<svg viewBox="0 0 30.853 50" class="Svg Svg-gandi Svg-root_3izI7 SVG-fill-green_3XEHx HeaderAccount_logo__9x2wo" aria-hidden="true">
  <path fill="#1aa" d="M30.254 16.03c1.068-1.389.641-3.419-.748-4.38-1.389-.962-3.312-.641-4.38.747-1.496 2.03-3.098 3.42-4.915 4.274-1.495.641-3.098.962-4.914 1.068-1.816-.106-3.312-.427-4.701-1.068-1.923-.855-3.526-2.244-4.915-4.274-.961-1.388-2.991-1.709-4.38-.747-1.389.961-1.71 2.991-.748 4.38 3.099 4.487 8.547 6.73 9.188 6.944-2.457 1.817-5.128 4.274-6.303 7.586-1.282 3.526-1.282 7.372 0 10.684 1.282 3.312 3.632 5.876 6.73 7.479 3.42 1.709 7.693 1.709 11.539 0 4.06-1.817 6.624-5.129 7.051-8.868.427-3.953-1.496-7.479-4.808-8.974-3.419-1.496-7.265-.428-9.936 2.777-1.068 1.39-.854 3.312.535 4.38 1.388 1.07 3.312.855 4.38-.533.748-.962 1.602-1.282 2.457-.962.641.32 1.282 1.175 1.175 2.67-.106 1.497-1.389 2.885-3.418 3.847-2.137.962-4.488.962-6.09.107-1.71-.855-2.992-2.35-3.74-4.167a8.676 8.676 0 0 1 0-6.196c.748-2.03 2.565-3.847 5.877-5.876a87.503 87.503 0 0 1 4.273-2.458c-.107.107 7.586-4.06 10.791-8.44zM15.19.004c-3.953 0-7.265 3.205-7.265 7.265 0 3.953 3.205 7.265 7.265 7.265 3.953 0 7.265-3.205 7.265-7.265 0-3.953-3.205-7.265-7.265-7.265zm0 9.402a2.143 2.143 0 0 1-2.137-2.137c0-1.175.962-2.137 2.137-2.137s2.137.962 2.137 2.137a2.143 2.143 0 0 1-2.137 2.137z"/>
</svg>
