<svg xmlns="http://www.w3.org/2000/svg" xml:space="preserve" style="fill-rule:evenodd;clip-rule:evenodd;stroke-linejoin:round;stroke-miterlimit:2" viewBox="0 0 189.868 166"><path d="M199.222 140.063c0-8.912-.351-16.6-1.05-23.065-.7-6.466-2.01-11.535-3.934-15.203-2.451-7.163-7.956-11.706-16.525-13.631-6.819-1.747-20.021-2.622-39.606-2.622h-25.181c-19.587 0-32.874.875-39.868 2.622-8.394 1.925-14.078 6.468-17.05 13.631-3.325 7.687-4.984 20.443-4.984 38.268v14.419c0 17.824 1.659 30.58 4.984 38.268 3.147 6.994 8.919 11.45 17.312 13.369 6.819 1.75 20.019 2.622 39.606 2.622h25.181c19.409 0 32.524-.872 39.343-2.622 8.569-1.919 14.163-6.375 16.788-13.369 1.924-3.668 3.234-8.734 3.934-15.2.699-6.466 1.05-14.156 1.05-23.068v-14.419Zm19.425 43.009c-1.051 8.219-2.801 15.037-5.247 20.456-2.625 5.247-6.125 9.75-10.5 13.506-4.375 3.759-9.534 6.512-15.482 8.262v.26c-5.074 1.574-11.636 2.8-19.683 3.675-8.05.875-17.847 1.31-29.391 1.31h-25.455c-26.594 0-45.053-2.448-55.372-7.344-11.549-5.07-19.334-14.425-23.356-28.063-1.399-5.068-2.406-12.149-3.018-21.243-.613-9.091-.919-20.369-.919-33.831 0-11.013.481-20.628 1.444-28.847.962-8.218 2.665-14.949 5.115-20.196 2.625-5.244 6.078-9.747 10.366-13.506 4.287-3.757 9.578-6.684 15.878-8.784h.262c9.797-3.322 26.331-4.985 49.6-4.985h25.455c25.544 0 43.912 2.538 55.109 7.606 5.6 2.45 10.366 6.035 14.303 10.754 3.938 4.721 6.865 10.577 8.791 17.571 1.049 4.897 1.924 11.89 2.625 20.981.699 9.094 1.049 20.368 1.049 33.831 0 10.841-.524 20.368-1.574 28.587" style="fill:#367ca9;fill-rule:nonzero" transform="matrix(.99932 0 0 .99521 -30.203 -63.437)"/><path d="m92.299 190.703 11.13-5.466-11.13 5.466 5.467 11.13 11.129-5.466-5.466-11.13-11.13 5.466Zm-5.466-11.129 11.129-5.467-11.129 5.467 5.466 11.129 11.13-5.466-5.467-11.13-11.129 5.467Zm-5.467-11.13 11.13-5.467-11.13 5.467 5.467 11.13 11.129-5.467-5.466-11.13-11.13 5.467Zm-5.466-11.13 11.129-5.466-11.129 5.466 5.466 11.13 11.13-5.467-5.467-11.129-11.129 5.466Zm-5.467-11.131 11.13-5.465-11.13 5.465 5.467 11.131 11.129-5.466-5.466-11.13-11.13 5.465Zm-5.467-11.128 11.13-5.467-11.13 5.467 5.467 11.128 11.13-5.465-5.467-11.13-11.13 5.467Zm55.256 28.119 11.129-5.467-11.129 5.467 5.467 11.13 11.129-5.466-5.467-11.131-11.129 5.467Zm-5.466-11.129 11.129-5.467-11.129 5.467 5.466 11.129 11.129-5.467-5.466-11.129-11.129 5.467Zm-5.467-11.131 11.13-5.467-11.13 5.467 5.467 11.131 11.129-5.467-5.466-11.131-11.13 5.467Zm-5.467-11.129 11.13-5.467-11.13 5.467 5.467 11.129 11.13-5.467-5.467-11.129-11.13 5.467Zm-5.466-11.13 11.13-5.467-11.13 5.467 5.466 11.13 11.13-5.467-5.466-11.13-11.13 5.467Zm55.255 28.119 11.131-5.466-11.131 5.466 5.467 11.13 11.13-5.467-5.466-11.129-11.131 5.466Zm-5.467-11.13 11.131-5.466-11.131 5.466 5.467 11.13 11.131-5.466-5.467-11.13-11.131 5.466Zm-5.466-11.129 11.13-5.467-11.13 5.467 5.466 11.129 11.131-5.466-5.467-11.13-11.13 5.467Zm-5.466-11.13 11.129-5.467-11.129 5.467 5.466 11.13 11.13-5.467-5.467-11.13-11.129 5.467Zm-5.466-11.13 11.129-5.467-11.129 5.467 5.466 11.13 11.129-5.467-5.466-11.13-11.129 5.467Zm-55.65 27.333 11.13-5.467-11.13 5.467 5.467 11.13 11.13-5.467-5.467-11.13-11.13 5.467Zm5.467 11.13 11.13-5.467-11.13 5.467 5.466 11.13 11.13-5.467-5.466-11.13-11.13 5.467Zm5.466 11.13 11.13-5.467-11.13 5.467 5.467 11.129 11.13-5.466-5.467-11.13-11.13 5.467Zm5.467 11.129 11.13-5.466-11.13 5.466 5.466 11.13 11.13-5.467-5.466-11.129-11.13 5.466Zm5.466 11.13 11.13-5.467-11.13 5.467 5.467 11.13 11.13-5.467-5.467-11.13-11.13 5.467Zm5.467 11.13 11.13-5.467-11.13 5.467 5.466 11.13 11.13-5.467-5.466-11.13-11.13 5.467Zm11.13-5.467 11.13-5.466-11.13 5.466 5.466 11.13 11.13-5.467-5.466-11.129-11.13 5.466Zm11.13-5.466 11.129-5.466-11.129 5.466 5.466 11.129 11.13-5.466-5.467-11.129-11.129 5.466Zm-16.203-61.116 11.129-5.466-11.129 5.466 5.466 11.13 11.13-5.467-5.467-11.129-11.129 5.466Zm5.466 11.13 11.13-5.467-11.13 5.467 5.467 11.129 11.13-5.466-5.467-11.13-11.13 5.467Zm5.467 11.129 11.13-5.466-11.13 5.466 5.466 11.131 11.13-5.467-5.466-11.13-11.13 5.466Zm5.466 11.131 11.13-5.467-11.13 5.467 5.466 11.129 11.131-5.466-5.467-11.13-11.13 5.467Zm5.466 11.129 11.131-5.466-11.131 5.466 5.467 11.131 11.13-5.467-5.466-11.13-11.131 5.466Zm5.467 11.131 11.13-5.467-11.13 5.467 5.467 11.129 11.13-5.466-5.467-11.13-11.13 5.467Zm11.13-5.467 11.13-5.467-11.13 5.467 5.467 11.13 11.13-5.467-5.467-11.13-11.13 5.467Zm11.13-5.467 11.13-5.467-11.13 5.467 5.467 11.13 11.129-5.467-5.466-11.13-11.13 5.467Zm11.13-5.467 11.13-5.466-11.13 5.466 5.466 11.13 11.13-5.466-5.466-11.13-11.13 5.466Zm-5.466-11.129 11.129-5.466-11.129 5.466 5.466 11.129 11.13-5.466-5.467-11.129-11.129 5.466Zm-5.467-11.13 11.129-5.467-11.129 5.467 5.467 11.13 11.129-5.466-5.467-11.131-11.129 5.467Zm-5.467-11.13 11.129-5.467-11.129 5.467 5.467 11.13 11.129-5.467-5.467-11.13-11.129 5.467Zm-5.467-11.13 11.13-5.466-11.13 5.466 5.467 11.13 11.129-5.467-5.466-11.129-11.13 5.466Zm-5.466-11.13 11.13-5.466-11.13 5.466 5.466 11.13 11.13-5.466-5.466-11.13-11.13 5.466Z" style="fill:#f58236;fill-rule:nonzero" transform="matrix(.99932 0 0 .99521 -30.203 -63.437)"/></svg>