<svg preserveAspectRatio="xMidYMid meet" viewBox="0 0 596 596" xmlns="http://www.w3.org/2000/svg"><g transform="matrix(.1 0 0 -.1 0 596)"><path d="m602 5944c-280-61-498-282-557-565-22-106-22-3192 0-3298 54-259 236-462 490-549l80-27 1486-3 1485-2 509-656c290-374 535-680 571-714 127-118 271-158 399-109 79 30 154 100 191 182l29 62 3 617 3 618 27 5c170 35 283 89 387 187 116 108 188 235 220 389 22 104 22 3178 1 3293-55 286-277 510-567 571-102 22-4659 21-4757-1zm4688-275c170-27 311-149 362-312 17-57 18-123 16-1666l-3-1606-32-68c-19-39-55-92-88-126-102-107-197-141-392-141h-122l-3-717c-3-773-3-766-55-779-37-10-67 3-120 50-27 25-294 360-593 745l-544 701h-1511c-1650 0-1567-3-1677 57-69 37-153 130-191 210l-32 68-3 1605c-2 1583-2 1606 18 1671 46 154 193 281 354 308 77 13 4536 13 4616 0z"/><path d="m1231 4910c-92-33-151-93-151-152 0-30 632-2093 654-2137 49-94 236-138 388-91 93 29 130 68 162 172 14 46 158 520 321 1053 163 534 296 985 297 1003 0 41-22 74-74 112-97 71-264 80-315 18-7-8-94-304-193-659-100-354-213-758-252-898-42-148-74-247-78-240-5 8-119 407-254 888-136 480-251 882-257 893-31 58-144 75-248 38z"/><path d="m3244 4920c-39-16-72-67-79-122-3-29-5-528-3-1108 3-1188-4-1087 81-1132 62-33 202-33 270 1 80 39 77 21 77 521v441l140-3 141-3 234-455c128-250 246-470 260-488 54-68 136-78 232-28 80 41 153 133 153 192 0 10-99 202-220 427-122 225-219 414-218 419 2 6 24 18 49 28 111 42 227 146 286 256 60 113 78 199 78 379-1 123-5 175-19 225-71 257-260 405-571 450-84 12-861 12-891 0zm862-383c68-23 135-83 165-149 18-42 24-76 27-159 7-179-37-275-153-334l-59-30-248-3-248-4v345c0 189 3 347 8 351 4 4 108 6 232 3 173-3 237-8 276-20z"/></g></svg>