<?xml version="1.0" encoding="UTF-8" standalone="no" ?>
<!DOCTYPE svg PUBLIC "-//W3C//DTD SVG 1.1//EN" "http://www.w3.org/Graphics/SVG/1.1/DTD/svg11.dtd">
<svg xmlns="http://www.w3.org/2000/svg" xmlns:xlink="http://www.w3.org/1999/xlink" version="1.1" width="596" height="596" viewBox="0 0 596 596" xml:space="preserve">
<desc>Created with Fabric.js 5.2.4</desc>
<defs>
</defs>
<g transform="matrix(1 0 0 1 298 298)" id="f8137a44-4c30-4bb1-b40a-736eb8b6b828"  >
<rect style="stroke: none; stroke-width: 1; stroke-dasharray: none; stroke-linecap: butt; stroke-dashoffset: 0; stroke-linejoin: miter; stroke-miterlimit: 4; fill: rgb(255,255,255); fill-rule: nonzero; opacity: 1; visibility: hidden;" vector-effect="non-scaling-stroke"  x="-298" y="-298" rx="0" ry="0" width="596" height="596" />
</g>
<g transform="matrix(Infinity NaN NaN Infinity 0 0)" id="187df3e6-16b9-4f77-bc94-3023d2255e37"  >
</g>
<g transform="matrix(1 0 0 1 298 298)" id="Selection"  >
<path style="stroke: rgb(0,0,0); stroke-width: 0; stroke-dasharray: none; stroke-linecap: butt; stroke-dashoffset: 0; stroke-linejoin: miter; stroke-miterlimit: 4; fill: rgb(255,255,255); fill-rule: nonzero; opacity: 1;" vector-effect="non-scaling-stroke"  transform=" translate(-298.5, -299.67)" d="M 513 431 C 513 431 513 492 513 492 C 513 492 513 539 513 539 C 513 539 512 556 512 556 C 511.99 560.03 512.3 565.19 511.21 569 C 507.96 580.42 496.3 584.19 486 579.17 C 477.81 575.17 473.5 568.85 468 562 C 468 562 390.35 463 390.35 463 C 390.35 463 375.58 444 375.58 444 C 368.83 435.34 368.27 431.02 357 431 C 357 431 167 431 167 431 C 167 431 83 431 83 431 C 78.29 430.94 59.86 429.67 56 428.4 C 38.31 422.61 20.03 402.1 20 383 C 20 383 20 185 20 185 C 20 185 20 75 20 75 C 20 75 21.78 57 21.78 57 C 27.58 35.98 48.04 19.03 70 19 C 70 19 94 19 94 19 C 94 19 111 18 111 18 C 111 18 353 18 353 18 C 353 18 487 18 487 18 C 487 18 502 19 502 19 C 502 19 527 19 527 19 C 549.11 19.03 569.24 35.96 575.21 57 C 575.21 57 577 78 577 78 C 577 78 577 383 577 383 C 576.97 402.27 558.79 422.43 541 428.25 C 531.36 431.41 522.89 431 513 431 Z M 133.98 113.48 C 129.85 113.88 122.22 115.26 120.11 119.33 C 118.69 122.05 121.03 128.09 121.86 131 C 121.86 131 131.14 162 131.14 162 C 131.14 162 171.58 294 171.58 294 C 171.58 294 179.33 319 179.33 319 C 180.45 322.36 181.87 327.99 184.42 330.35 C 187.42 333.14 194.96 334.66 199 334.66 C 203.52 334.66 211.47 332.98 214.73 329.73 C 217.3 327.15 218.55 322.45 219.66 319 C 219.66 319 226.66 296 226.66 296 C 226.66 296 265.28 169 265.28 169 C 265.28 169 276.42 131 276.42 131 C 278.01 125.44 280.94 120.26 274.94 116.53 C 271.87 114.62 263.77 112.02 260.7 114.75 C 258.77 116.47 257.57 121.49 256.86 124 C 256.86 124 251 144 251 144 C 251 144 219 258 219 258 C 217.13 264.5 211.81 284.12 209.18 288.98 C 206.5 293.92 201.73 297.09 196 295.35 C 190.15 293.57 188.89 289.19 187.28 284 C 187.28 284 180.58 261 180.58 261 C 180.58 261 150.29 154 150.29 154 C 150.29 154 141.58 124 141.58 124 C 140.02 118.54 140.31 114.23 133.98 113.48 Z M 328 331 C 332.69 331.84 334.13 332.11 339 331.99 C 349.35 331.73 348.89 325.77 349 317 C 349 317 349 249 349 249 C 349.06 237.79 352.79 234.06 364 234 C 364 234 383 234 383 234 C 396.5 234.18 397.98 243.77 403.26 254 C 403.26 254 432.26 310 432.26 310 C 434.44 314.23 443.01 331.15 446.21 333.16 C 448.02 334 450.06 333.9 452 333.16 C 453.64 332.88 455.57 331.84 456.99 330.89 C 468.36 323.27 461.15 317.58 454.76 305 C 454.76 305 428.76 256 428.76 256 C 426.21 250.99 420.31 241.46 421.41 236 C 422.74 229.35 428.69 227.49 434 224.74 C 439.33 221.98 444.52 218.38 448.56 213.91 C 463.06 197.9 462.09 183.97 462 164 C 461.97 157.8 461.26 153.89 459.33 148 C 447.24 111.11 403.36 113 372 113.21 C 372 113.21 338 113.21 338 113.21 C 335.51 113.75 329.5 113.74 328.02 115.6 C 326.42 117.6 326 128.11 326 131 C 326 131 326 242 326 242 C 326 242 326 285 326 285 C 326 285 327 302 327 302 C 327 302 328 331 328 331 Z M 357.02 130.65 C 362.58 129.49 371.99 130 378 130 C 378 130 400 131.07 400 131.07 C 400 131.07 409 131.07 409 131.07 C 417.6 132.54 427.11 137.96 432.21 145 C 440.56 156.52 440.15 167.54 440 181 C 439.82 196.1 434.34 207.5 421 215.13 C 413.89 219.19 412.09 219.99 404 220 C 404 220 369 220 369 220 C 364.35 220 357.05 220.71 353.21 217.99 C 348.74 214.84 349.01 209.84 349 205 C 349 205 349 145 349 145 C 349.09 138.22 350.44 133.56 357.02 130.65 Z" stroke-linecap="round" />
</g>
<g transform="matrix(1 0 0 1 298 298)"  >
<g style="" vector-effect="non-scaling-stroke"   >
		<g transform="matrix(0.1 0 0 -0.1 0 0)"  >
<path style="stroke: none; stroke-width: 1; stroke-dasharray: none; stroke-linecap: butt; stroke-dashoffset: 0; stroke-linejoin: miter; stroke-miterlimit: 4; fill: rgb(0,0,0); fill-rule: nonzero; opacity: 1;" vector-effect="non-scaling-stroke"  transform=" translate(-2985.06, -2980.77)" d="M 602 5944 C 322 5883 104 5662 45 5379 C 23 5273 23 2187 45 2081 C 99 1822 281 1619 535 1532 L 615 1505 L 2101 1502 L 3586 1500 L 4095 844 C 4385 470 4630 164 4666 130 C 4793 12 4937 -28 5065 21 C 5144 51 5219 121 5256 203 L 5285 265 L 5288 882 L 5291 1500 L 5318 1505 C 5488 1540 5601 1594 5705 1692 C 5821 1800 5893 1927 5925 2081 C 5947 2185 5947 5259 5926 5374 C 5871 5660 5649 5884 5359 5945 C 5257 5967 700 5966 602 5944 z M 5290 5669 C 5460 5642 5601 5520 5652 5357 C 5669 5300 5670 5234 5668 3691 L 5665 2085 L 5633 2017 C 5614 1978 5578 1925 5545 1891 C 5443 1784 5348 1750 5153 1750 L 5031 1750 L 5028 1033 C 5025 260 5025 267 4973 254 C 4936 244 4906 257 4853 304 C 4826 329 4559 664 4260 1049 L 3716 1750 L 2205 1750 C 555 1750 638 1747 528 1807 C 459 1844 375 1937 337 2017 L 305 2085 L 302 3690 C 300 5273 300 5296 320 5361 C 366 5515 513 5642 674 5669 C 751 5682 5210 5682 5290 5669 z" stroke-linecap="round" />
</g>
		<g transform="matrix(0.1 0 0 -0.1 -99.41 -73.95)"  >
<path style="stroke: none; stroke-width: 1; stroke-dasharray: none; stroke-linecap: butt; stroke-dashoffset: 0; stroke-linejoin: miter; stroke-miterlimit: 4; fill: rgb(0,0,0); fill-rule: nonzero; opacity: 1;" vector-effect="non-scaling-stroke"  transform=" translate(-1991, -3720.29)" d="M 1231 4910 C 1139 4877 1080 4817 1080 4758 C 1080 4728 1712 2665 1734 2621 C 1783 2527 1970 2483 2122 2530 C 2215 2559 2252 2598 2284 2702 C 2298 2748 2442 3222 2605 3755 C 2768 4289 2901 4740 2902 4758 C 2902 4799 2880 4832 2828 4870 C 2731 4941 2564 4950 2513 4888 C 2506 4880 2419 4584 2320 4229 C 2220 3875 2107 3471 2068 3331 C 2026 3183 1994 3084 1990 3091 C 1985 3099 1871 3498 1736 3979 C 1600 4459 1485 4861 1479 4872 C 1448 4930 1335 4947 1231 4910 z" stroke-linecap="round" />
</g>
		<g transform="matrix(0.1 0 0 -0.1 97.05 -74)"  >
<path style="stroke: none; stroke-width: 1; stroke-dasharray: none; stroke-linecap: butt; stroke-dashoffset: 0; stroke-linejoin: miter; stroke-miterlimit: 4; fill: rgb(0,0,0); fill-rule: nonzero; opacity: 1;" vector-effect="non-scaling-stroke"  transform=" translate(-3955.6, -3720.8)" d="M 3244 4920 C 3205 4904 3172 4853 3165 4798 C 3162 4769 3160 4270 3162 3690 C 3165 2502 3158 2603 3243 2558 C 3305 2525 3445 2525 3513 2559 C 3593 2598 3590 2580 3590 3080 L 3590 3521 L 3730 3518 L 3871 3515 L 4105 3060 C 4233 2810 4351 2590 4365 2572 C 4419 2504 4501 2494 4597 2544 C 4677 2585 4750 2677 4750 2736 C 4750 2746 4651 2938 4530 3163 C 4408 3388 4311 3577 4312 3582 C 4314 3588 4336 3600 4361 3610 C 4472 3652 4588 3756 4647 3866 C 4707 3979 4725 4065 4725 4245 C 4724 4368 4720 4420 4706 4470 C 4635 4727 4446 4875 4135 4920 C 4051 4932 3274 4932 3244 4920 z M 4106 4537 C 4174 4514 4241 4454 4271 4388 C 4289 4346 4295 4312 4298 4229 C 4305 4050 4261 3954 4145 3895 L 4086 3865 L 3838 3862 L 3590 3858 L 3590 4203 C 3590 4392 3593 4550 3598 4554 C 3602 4558 3706 4560 3830 4557 C 4003 4554 4067 4549 4106 4537 z" stroke-linecap="round" />
</g>
</g>
</g>
</svg>