
<svg enable-background="new 0 0 512 200" viewBox="0 0 512 200" xmlns="http://www.w3.org/2000/svg"><g fill="#1f2938"><path d="m477 71.403v57.194h-65.364v-8.171h57.194v-8.17h-57.194v-40.853h8.171v32.682h49.023v-32.682z"/><path d="m191.034 71.403v57.193h8.17v-16.341h57.193v-40.852zm57.193 32.682h-49.023v-24.511h49.023z"/><path d="m329.932 71.403v8.171h-57.194v32.682h-8.17v-40.853z"/><path d="m338.102 71.403v40.852h65.364v-8.17h-57.193v-8.17h57.193v-24.512zm57.193 16.341h-49.023v-8.17h49.023z"/></g><path d="m97.968 40.693-19.885 11.481 13.255 7.652 6.613-3.826 6.645 3.824 13.252-7.654z" fill="#3c77b9"/><path d="m97.971 159.307 49.702-28.698-.001-30.61-13.26 7.653.005 15.304-36.452 21.046-36.455-21.05-.001-15.303-13.25-7.65v30.607z" fill="#3c77b9"/><path d="m154.298 65.558v.01l.009 15.296-46.399 26.79 13.245 7.653-23.186 13.391-23.195-13.391 13.254-7.653-46.399-26.79.009-15.287-6.636-3.831v-19.128l56.331 32.518 6.636-3.822 6.618 3.822 56.34-32.528v19.128z" fill="#1f2938"/></svg>
