<svg version="1.1" id="Layer_1" xmlns="http://www.w3.org/2000/svg" xmlns:xlink="http://www.w3.org/1999/xlink" x="0px" y="0px"
	 viewBox="0 0 34 34" style="enable-background:new 0 0 34 34;" xml:space="preserve">
<style type="text/css">
	.st0{fill:#B2CADB;}
	.st1{fill:#47525B;}
</style>
<g>
	<path class="st0" d="M7.1,2.5h23.7c1.5,0,2.7,1.2,2.7,2.7c0,0,0,0,0,0c0,1.5-1.2,2.7-2.7,2.7c0,0,0,0,0,0H7.1V2.5z M12.9,14.3h17.9
		c1.5,0,2.7,1.2,2.7,2.7c0,1.5-1.2,2.7-2.7,2.7H12.9C12.9,19.7,12.9,14.3,12.9,14.3z M7.1,26.1h23.7c1.5,0,2.7,1.2,2.7,2.7
		c0,0,0,0,0,0c0,1.5-1.2,2.7-2.7,2.7l0,0H7.1V26.1z"/>
	<path class="st1" d="M5.2,9.9c2.6,0,4.7-2.1,4.7-4.7c0,0,0,0,0,0c0-2.6-2.1-4.7-4.7-4.7c0,0,0,0,0,0c-2.6,0-4.7,2.1-4.7,4.7
		c0,0,0,0,0,0C0.5,7.8,2.6,9.9,5.2,9.9C5.2,9.9,5.2,9.9,5.2,9.9z M13.9,21.7c2.6,0,4.7-2.1,4.7-4.7c0,0,0,0,0,0
		c0-2.6-2.1-4.7-4.7-4.7c0,0,0,0,0,0c-2.6,0-4.7,2.1-4.7,4.7c0,0,0,0,0,0C9.1,19.6,11.3,21.7,13.9,21.7
		C13.9,21.7,13.9,21.7,13.9,21.7z M5.2,33.5c2.6,0,4.7-2.1,4.7-4.7c0,0,0,0,0,0c0-2.6-2.1-4.7-4.7-4.7c0,0,0,0,0,0
		c-2.6,0-4.7,2.1-4.7,4.7c0,0,0,0,0,0C0.5,31.4,2.6,33.5,5.2,33.5C5.2,33.5,5.2,33.5,5.2,33.5z"/>
</g>
</svg>
