<svg clip-rule="evenodd" fill-rule="evenodd" stroke-linejoin="round" stroke-miterlimit="2" version="1.1" viewBox="5.6843e-14 99.517 500 300.97" xml:space="preserve" xmlns="http://www.w3.org/2000/svg">
    <g transform="matrix(.61856 0 0 .61856 .61856 100.14)">
        <path d="M799,40.173C799,21.864 784.136,7 765.827,7L41.173,7C22.864,7 8,21.864 8,40.173L8,444.827C8,463.136 22.864,478 41.173,478L765.827,478C784.136,478 799,463.136 799,444.827L799,40.173Z" fill="#fff"/>
    </g>
    <g transform="matrix(.61856 0 0 .61856 5.6843e-14 99.517)">
        <path d="m767.16 486.56h-725.99c-22.724 0-41.173-18.448-41.173-41.172v-404.22c0-22.724 18.448-41.172 41.173-41.173h725.99c22.724 1e-3 41.172 18.449 41.172 41.173v404.22c0 22.724-18.448 41.172-41.172 41.172zm-1.015-472.06h-725.04c-14.557 1e-3 -26.374 11.818-26.374 26.374v406.14c0 14.556 11.817 26.374 26.374 26.374h725.04c14.557 0 26.374-11.818 26.374-26.374v-406.14c0-14.556-11.817-26.373-26.374-26.374zm-0.398 453.5h-724.52c-11.629 0-21.071-9.442-21.071-21.071v-405.97c0-11.628 9.441-21.069 21.071-21.07h724.52c11.63 1e-3 21.07 9.442 21.07 21.07v405.97c0 11.629-9.441 21.071-21.07 21.071zm-332.56-230.52c5.441-6.163 11.633-11.817 19.496-14.663 7.4-2.675 17.641-3.1 23.879 2.521 5.666 5.104 4.408 13.967-2.163 17.629-7.433 4.146-14.558 0.2-21.504-2.687-7.967-3.313-15.221 4.354-18.821 10.537-3.975 6.825-2.725 16.729-2.75 24.342-0.033 10.216 0 20.429 0 30.641 0 3.325-0.046 6.675 0.167 9.996 0.217 3.471-0.154 9.109 2.046 12.05 4.108 5.504 16.2 4.742 22.271 5.9 3.079 0.584 7.045 1.75 6.141 5.613-1 4.296-6.954 2.962-10.104 2.787-17.704-0.983-35.217-1.421-52.913 0.113-3.225 0.283-9.05 1.625-10.887-2.067-2.363-4.737 3.321-6.096 6.562-6.837 4.055-0.93 8.725-1.384 12.48-3.259 3.52-1.762 3.42-6.583 3.429-10.004 0.05-19.262-0.204-38.542-0.204-57.808 0-5.546 1.804-17.317-5.859-18.142-2.991-0.325-9.304 0.913-11.371-1.779-2.941-3.833 2.275-6.342 5.105-7.167 8.075-2.354 15.325-6.35 21.633-11.95 2.454-2.179 5.542-6.696 8.983-7.225 4.213-0.654 3.596 3.613 3.284 6.321-0.659 5.792-0.567 11.588-0.763 17.404 0.621-0.754 1.242-1.512 1.863-2.266zm-186.06-48.863c0.171 2.95-0.671 6.033-3.829 6.75-4.683 1.062-6.096-3.313-6.721-6.929-1.521-8.821-4.221-16.854-10.912-23.142-12.45-11.7-34.167-12.583-46.45-0.154-10.917 11.046-12.38 32.183-1.455 43.796 5.725 6.087 14.43 9.992 21.88 13.508 8.095 3.829 16.312 7.417 24.396 11.284 14.916 7.137 27.82 18.558 31.704 35.183 3.783 16.179 1.271 33.883-8.159 47.708-20.07 29.417-61.262 31.075-91.946 19.038-1.483-0.584-9.704-3.234-9.729-4.725-0.079-4.496-0.154-8.996-0.233-13.492-0.163-9.683-1.4-19.979-0.417-29.637 0.771-7.6 9.463-8.184 10.838-0.5 1.521 8.483 2.804 16.833 7.15 24.429 8.958 15.666 24.083 22.516 41.862 19.796 16.721-2.563 28.121-17.005 30.488-33.125 1.2-8.18 0.267-16.946-3.817-24.225-4.221-7.53-11.354-12.705-18.808-16.75-15.421-8.371-33.221-12.713-47.071-23.896-13.963-11.271-19.138-27.809-15.454-45.321 3.341-15.867 14.846-30.35 29.7-36.95 15.216-6.759 33.262-7.204 49.258-3.034 3.609 0.942 7.209 2.146 10.596 3.721 1.817 0.846 3.575 1.779 5.346 2.725 1.196 0.646 0.775 1.963 0.817 3.271 0.32 10.225 0.645 20.446 0.966 30.671zm264.5 74c-0.079-4.092 0.163-8.521-0.758-12.542-0.954-4.183-4.396-4.737-8.25-4.737-3.742 0-8.808-8e-3 -8.071-5.138 0.446-3.095 7.021-4.029 9.309-4.941 7.591-3.034 14.033-7.813 19.116-14.225 1.8-2.275 5.638-8.038 8.859-3.904 1.212 1.558 0.858 4.316 0.858 6.208v69.929c0 6.683-8e-3 13.367 0.033 20.05 0.025 4.042 9e-3 8.221 0.671 12.217 0.788 4.8 3.963 6.062 8.413 6.854 3.245 0.571 8.533 0.542 10.683 3.571 2.083 2.937-0.121 6.133-3.379 6.55-3.688 0.479-7.888-0.554-11.6-0.734-4.467-0.212-8.925-0.362-13.396-0.325-8.975 0.096-17.938 0.442-26.896 0.959-3.421 0.196-8.508-1.629-6.196-6.142 1.921-3.75 8.267-3.292 11.688-3.958 2.396-0.467 5.6-1.15 7.1-3.3 1.55-2.209 1.429-5.792 1.566-8.371 0.259-4.858 0.25-9.717 0.25-14.575v-43.446zm102.18 41.908c0.05 4.096-8e-3 8.238 0.325 12.321 0.275 3.413-8e-3 8.334 2.217 11.184 2.325 2.958 7.171 3.487 10.638 3.904 3.425 0.416 8.858-0.2 11.812 1.912 2.804 2.013 1.942 6.154-0.908 7.709-3.333 1.816-9.292 0.275-12.954 0.05-8.359-0.505-16.78-0.655-25.155-0.45-8.754 0.212-17.858 1.7-26.579 1.304-4.25-0.188-6.454-5-3.025-8.059 2.809-2.508 8.138-2.412 11.6-3.025 3.571-0.62 8.154-1.187 10.013-4.733 1.708-3.267 1.212-7.696 1.162-11.262-0.108-8.175-0.154-16.346-0.154-24.525v-36.546c0-2.546 0.4-5.692-1.912-7.459-3.075-2.358-8.55-0.554-12.196-1.225-3.084-0.566-5.167-3.537-2.396-6.308 2.683-2.679 7.554-2.85 10.887-4.433 7.946-3.767 5.559-15.375 5.663-22.654 0.233-16.438 5.796-34.092 17.121-46.33 5.712-6.175 12.116-11.725 19.758-15.404 6.913-3.325 15.629-6.771 23.384-4.596 7.42 2.079 12.241 11.079 5.52 17.021-6.345 5.6-14.4 2.975-21.47 0.892-19.346-5.696-22.305 19.066-23.005 32.7-0.479 9.404-0.546 18.792-0.546 28.208 0 4.104 0.221 7.663 4.888 8.929 3.867 1.055 8.513 0.809 12.5 0.859 4.646 0.062 9.279 8e-3 13.913-0.304 3.254-0.221 7.116-0.992 9.708 1.562 2.279 2.246 2.267 6.017 0 8.258-2.646 2.617-6.221 1.642-9.496 1.4-6.996-0.512-13.962-0.745-20.967-0.158-6.275 0.529-10.346 2.517-10.346 9.083v50.175zm-317.65-45.987c-4.321 15.25-4.642 34.95 5.092 48.367 10.358 14.283 27.296 19.2 44.4 17.212 7.983-0.933 17.083-4.767 22.283-11.092 1.858-2.262 3.679-6.291 6.996-6.558 4.208-0.342 4.592 3.542 3.504 6.829-2.567 7.767-9.904 14.784-16.2 19.621-6.683 5.146-15.475 7.946-23.754 8.988-17.488 2.2-35.808-1.405-49.013-13.605-11.995-11.095-17.275-27.729-17.504-43.741-0.241-17.138 3.492-33.946 14.571-47.425 11.342-13.804 27.967-20.442 45.542-20.904 16.354-0.43 33.333 6.15 41.779 20.812 2.471 4.288 7.287 16.271 0.95 19.454-3.329 1.671-8.533 0.763-12.092 0.684-4.75-0.109-9.491-0.271-14.241-0.33-17.471-0.216-34.892 0.346-52.313 1.688zm4.333-11.133c8.85 0.233 17.709 0.604 26.563 0.604 4.404 0 8.808-0.017 13.204-0.367 3.421-0.271 9.354 0.075 11.7-2.908 5.483-6.975-3.342-16.267-9.679-18.379-7.329-2.438-16.613-2.321-23.55 1.412-8.138 4.379-13.608 11.833-18.238 19.638zm222.84-69.467c7.254 0.896 12.829 7.4 12.038 14.812-0.784 7.334-7.488 12.759-14.809 12.038-17.333-1.713-14.508-29.063 2.771-26.85z"/>
    </g>
</svg>
