<svg xmlns="http://www.w3.org/2000/svg" fill="#123c13" viewBox="8.503889083862305 12.550002098083496 352.68780517578125 330.4263916015625" class="css-l6yfq7" aria-hidden="true" aria-label="ForageIcon">
  <path d="M316.75 47.32 148.33 160.75l122.22 84.76 85.04-113.72c7.54-10.08 7.46-23.96-.19-33.95l-38.65-50.52zM54.93 48.37 14.79 97.83c-8.08 9.95-8.4 24.13-.79 34.44l51 69.09 144.52-97.33L54.93 48.37zm167.84 46.74 86.15-58.02-10.36-13.55a27.97 27.97 0 0 0-22.22-10.99H97.31c-8.43 0-16.4 3.8-21.72 10.36L63.53 37.78l159.24 57.33zm-85.89 73.36-64.22 43.25 88.5 119.88c11.15 15.11 33.67 15.18 44.91.14l56.77-75.91-125.96-87.36z" fill="#123C13"></path>
</svg>