<svg viewBox="0 0 1108.12 940.2" xmlns="http://www.w3.org/2000/svg"><path d="M552.69 0c-169.1 0-262.45 143.46-262.45 283.52h524.9C815.14 143.46 709.81 0 552.69 0z" fill="#cfcfcf"/><path d="M552.69 53.2c-137.37 0-213.21 116.54-213.21 230.32l213.21 24.18 213.21-24.18c0-113.78-85.57-230.32-213.21-230.32zM89.8 739.52a20 20 0 01-2.23-39.88 42.8 42.8 0 10-42.22-21.82 20 20 0 01-35 19.31 82.79 82.79 0 1181.76 42.26 21.78 21.78 0 01-2.31.13z" fill="#585e62"/><rect fill="#cfcfcf" height="144.19" rx="49.42" transform="rotate(27.09 142.594 540.035)" width="104.68" x="90.27" y="467.98"/><path d="M181.568 393.875l55.91 28.598-43.057 84.177a31.4 31.4 0 01-42.254 13.656 31.4 31.4 0 01-13.656-42.254l43.057-84.177z" fill="#585e62"/><circle cx="222.59" cy="387.53" fill="#cfcfcf" r="75.05"/><path d="M258.09 321.8a75.09 75.09 0 00-91.23 14.64 75.06 75.06 0 0151.58 126.06 75.06 75.06 0 0039.65-140.7z" fill="#b1b1b1"/><path d="M1018.31 739.52a22.09 22.09 0 01-2.28-.13 82.8 82.8 0 1181.77-42.26 20 20 0 11-35-19.31 42.8 42.8 0 10-42.23 21.82 20 20 0 01-2.23 39.88z" fill="#585e62"/><rect fill="#cfcfcf" height="144.19" rx="49.42" transform="rotate(152.91 965.508 540.103)" width="104.68" x="913.18" y="467.98"/><path d="M955.922 520.362a31.4 31.4 0 01-42.254-13.656L870.61 422.53l55.91-28.598 43.057 84.177a31.4 31.4 0 01-13.656 42.254z" fill="#585e62"/><circle cx="885.53" cy="387.53" fill="#cfcfcf" r="75.05"/><path d="M850 321.8a75.08 75.08 0 0191.22 14.64 75.06 75.06 0 00-51.54 126.06A75.05 75.05 0 01850 321.8z" fill="#b1b1b1"/><path d="M248.78 940.2c-36.67 0-67-39.85-75.51-99.15-4.56-31.83-2.26-65.19 6.48-94 9.41-31 25.51-53.59 45.32-63.72a51.72 51.72 0 0123.69-5.84h103.52V940.2z" fill="#585e62"/><path d="M351.43 940.2c-21.26 0-38.85-39.85-43.78-99.15-2.64-31.83-1.31-65.19 3.76-94 5.45-31 14.78-53.59 26.27-63.72 4.39-3.87 9-5.84 13.73-5.84s9.34 2 13.75 5.8l49.7 43.83c17.37 15.32 23.39 64 20.23 102-2.43 29.28-10 52.18-20.19 61.28l-49.69 43.82c-4.44 3.99-9.08 5.98-13.78 5.98z" fill="#585e62"/><path d="M360.57 699l49.65 43.79c11.18 9.9 17.78 47.45 14.78 83.91-2 24.27-7.83 41.95-14.77 48.13l-49.65 43.79C342 935 322.79 899.19 317.75 838.55s6-123.1 24.58-139.51c6.15-5.42 12.5-5.04 18.24-.04z" fill="#35393b"/><path d="M850.73 940.2c36.66 0 67-39.85 75.51-99.15 4.56-31.83 2.26-65.19-6.48-94-9.41-31-25.51-53.59-45.32-63.72a51.72 51.72 0 00-23.69-5.84H747.22V940.2z" fill="#585e62"/><path d="M748.08 940.2c21.26 0 38.85-39.85 43.78-99.15 2.64-31.83 1.31-65.19-3.76-94-5.45-31-14.79-53.59-26.27-63.72-4.4-3.87-9-5.84-13.73-5.84s-9.34 2-13.76 5.8l-49.69 43.83c-17.38 15.32-23.39 64-20.23 102 2.43 29.28 10 52.18 20.19 61.28l49.68 43.82c4.45 3.99 9.09 5.98 13.79 5.98z" fill="#585e62"/><path d="M738.94 699l-49.65 43.79c-11.19 9.86-17.8 47.41-14.77 83.87 2 24.27 7.83 41.95 14.77 48.13l49.65 43.79c18.61 16.41 37.78-19.43 42.82-80.07s-6-123.1-24.58-139.51c-6.18-5.38-12.5-5-18.24 0z" fill="#35393b"/><path d="M848.63 451.38a83.62 83.62 0 01-.56-45.6c14.74-53.13 5.06-111.78 5.06-111.78-185.07-57.77-300.13-.48-300.13-.48s-114.79-57.64-300-.45c0 0-9.86 58.64 4.72 111.83a83.69 83.69 0 01-.69 45.59c-5.14 17.57-10.72 44.5-10.77 78.8-.37 249 306 326.08 306 326.08s306.58-76.15 306.95-325.16c0-34.3-5.49-61.21-10.58-78.83z" fill="#cfcfcf"/><path d="M552.34 808.87c-50.72-15.87-261.7-93.25-261.42-279.51 0-29.65 4.89-52.42 9-66.31a128.3 128.3 0 00.91-70c-6.2-22.58-6.9-47.13-6.17-65.29 40.48-10.23 80.2-15.37 118.41-15.32 75.66.12 119.86 21 120.3 21.17l20.39 10.23L573 333.52c.11 0 44.36-20.75 120-20.64 38.21.06 77.91 5.32 118.37 15.68.67 18.14-.1 42.71-6.37 65.27a128.33 128.33 0 00.69 70c4 13.91 8.82 36.69 8.77 66.35-.28 187.06-211.26 263.09-262.12 278.69z" fill="#49b04a"/><path d="M610.15 478.76A57.46 57.46 0 10540 534.68l-32.29 135.47L552.38 683l44.71-12.71-31.84-135.57a57.46 57.46 0 0044.9-55.96z" fill="#35393b"/><g fill="#49b04a"><path d="M454.94 131.08a60.64 60.64 0 00-60.64 60.64h121.28a60.64 60.64 0 00-60.64-60.64zm187.44 0a60.64 60.64 0 00-60.64 60.64H703a60.64 60.64 0 00-60.62-60.64z"/><circle cx="483.23" cy="229.43" r="11.52"/><circle cx="528.52" cy="229.43" r="11.52"/><circle cx="573.8" cy="229.43" r="11.52"/><circle cx="619.09" cy="229.43" r="11.52"/></g></svg>