<svg version="1.1" id="Layer_1" xmlns="http://www.w3.org/2000/svg" xmlns:xlink="http://www.w3.org/1999/xlink" x="0px" y="0px"
	 viewBox="0 0 612 792" style="enable-background:new 0 0 612 792;" xml:space="preserve">
<style type="text/css">
	.st0{fill:#01A9D1;}
	.st1{fill:#8DACBD;}
	.st2{fill:#1D5A76;}
	.st3{fill:#1D5976;}
	.st4{fill:#8FADBE;}
	.st5{fill:#00A8D1;}
	.st6{fill:#8CABBC;}
	.st7{fill:#12AFD4;}
	.st8{fill:#FBFDFD;}
	.st9{fill:#F7FCFD;}
	.st10{fill:#FCFDFD;}
	.st11{fill:#FCFCFD;}
</style>
<path class="st0" d="M268.65,389.91c0-4.65,0.09-9.31-0.04-13.96c-0.07-2.39,0.84-3.21,3.19-3.14c4.48,0.13,8.99-0.17,13.46,0.12
	c7.61,0.49,11.27,7.6,7.05,13.93c-1.29,1.93-1.07,2.53,0.48,3.85c3.12,2.66,3.63,6.14,2.48,9.97c-1.11,3.71-3.58,5.82-7.36,6.56
	c-5.61,1.09-11.27,0.37-16.9,0.56c-2.57,0.09-2.34-1.77-2.35-3.43C268.64,399.55,268.64,394.73,268.65,389.91z"/>
<path class="st1" d="M376.4,408.04c-5.62,0.51-9.85-1.71-11.58-6.82c-1.92-5.66-1.92-11.49,2.55-16.32
	c3.82-4.13,8.82-3.83,13.43-2.42c4.74,1.45,6.73,5.58,7.13,10.43c0.19,2.24-0.54,3.4-3.03,3.32c-4.15-0.12-8.3,0.02-12.45-0.04
	c-3.05-0.04-3.36,1.34-2.16,3.74c2.36,4.73,7.42,5.45,10.73,1.13c1.86-2.43,4.1-2.89,5.81-1.25c1.69,1.63-0.36,3.68-1.59,5.05
	C382.89,407.49,379.79,408.54,376.4,408.04z"/>
<path class="st2" d="M265.2,394.69c0.01,8.92-4.14,13.47-12.3,13.48c-8.11,0.01-12.33-4.64-12.26-13.51
	c0.07-8.54,4.28-13.02,12.29-13.06C260.76,381.56,265.19,386.29,265.2,394.69z"/>
<path class="st3" d="M209.08,373.13c11.85-1.95,10.62,9.83,16.89,13.75c2.05-3.07,4.62-6.28,6.47-9.86
	c2.04-3.96,4.84-5.01,9.43-3.66c-2.72,3.98-5.06,7.96-7.94,11.5c-4.38,5.4-6.73,11.2-5.77,18.27c0.26,1.96,1.21,4.91-2.92,4.74
	c-3.8-0.16-2.71-2.94-2.5-4.68c0.8-6.85-1.22-12.59-5.51-17.91C214.34,381.69,212.06,377.62,209.08,373.13z"/>
<path class="st4" d="M338.08,394.97c0-3.33,0.02-6.66-0.01-9.98c-0.01-1.63,0.35-3.6,2.27-2.85c3.81,1.49,7.26-0.6,10.9-0.37
	c5.64,0.35,7.83,2.38,7.91,7.95c0.07,4.66,0.04,9.32,0,13.98c-0.02,1.9,0.55,4.27-2.69,4.16c-3.33-0.11-2.32-2.65-2.38-4.42
	c-0.14-3.99-0.1-7.99-0.1-11.98c0-3.07-1.16-5.38-4.5-5.36c-3.28,0.02-5.31,2.11-5.51,5.32c-0.26,4.31-0.15,8.65-0.1,12.97
	c0.02,2.06-0.22,3.53-2.88,3.53c-2.61,0-3-1.35-2.95-3.47C338.14,401.29,338.08,398.13,338.08,394.97z"/>
<path class="st0" d="M318.2,407.98c-4.37,0.19-6.28-1.87-6.22-6c0.06-3.81,0.1-7.62-0.03-11.43c-0.06-1.73,1.06-4.14-2.21-4.57
	c-1.18-0.16-1.16-2.28-0.82-2.42c3.7-1.57,2.52-5.29,3.79-7.87c0.49-1,2-1.91,3.38-1.67c1.66,0.29,0.97,1.84,1.04,2.87
	c0.16,2.47-0.94,5.63,3.53,5.28c1.03-0.08,1.11,1,1.13,1.85c0.03,1.09-0.24,2.18-1.5,2.08c-3.38-0.25-3.18,1.94-3.14,4.19
	c0.06,3.15-0.03,6.3,0.07,9.44c0.05,1.46,0.1,3.26,2.14,3.34c2.34,0.09,2.85,1.52,2.63,3.3C321.66,409,319.4,407.55,318.2,407.98z"
	/>
<path class="st1" d="M392.94,395.14c-0.78-3.12,1.99-7.62-2.87-10.06c-0.17-0.09-0.25-0.86-0.15-0.92c3.6-2.06,1.94-6.84,4.73-9.2
	c1.87-1.58,3.38-1.36,3.39,1.6c0.01,2.73-0.74,5.92,3.83,5.74c0.85-0.03,0.92,1.23,0.87,2.07c-0.08,1.25-0.91,1.73-2.02,1.69
	c-2.3-0.07-2.74,1.26-2.7,3.2c0.07,3.33,0.02,6.65,0.03,9.98c0.01,1.98,0.4,3.68,2.87,3.86c1.83,0.13,1.96,1.49,1.97,2.88
	c0.02,1.95-1.39,1.88-2.76,2c-4.95,0.44-7.06-1.41-7.2-6.44C392.89,399.55,392.94,397.55,392.94,395.14z"/>
<path class="st5" d="M305.83,395.1c0,3.14-0.08,6.28,0.03,9.41c0.07,2.16-0.39,3.4-2.96,3.35c-2.28-0.05-2.76-1.09-2.74-3.06
	c0.06-6.61,0.07-13.21-0.01-19.82c-0.02-1.99,0.42-2.98,2.71-3.03c2.52-0.06,3.09,1.02,3,3.25
	C305.73,388.49,305.83,391.8,305.83,395.1z"/>
<path class="st6" d="M329.22,402.13c2.05-0.21,2.94,0.67,2.99,2.81c0.06,2.57-1.31,2.94-3.42,2.96c-2.28,0.01-2.7-1.17-2.72-3.11
	C326.06,402.5,327.25,401.94,329.22,402.13z"/>
<path class="st7" d="M305.84,375.63c0.32,2.49-1.27,2.55-3.09,2.62c-2.36,0.09-2.64-1.2-2.64-3.11c0-2.16,1.27-2.28,2.9-2.35
	C305.09,372.71,306.18,373.43,305.84,375.63z"/>
<path class="st8" d="M279.45,402.99c-1.45-0.75-4.6,1.57-5.07-1.61c-0.44-2.98-1.7-7.64,0.65-8.89c3.42-1.82,8.13-1.31,11.98,0.56
	c2.22,1.08,3.37,3.21,2.42,5.84c-1.52,4.21-5.13,4.09-8.66,4.09C280.44,402.99,280.11,402.99,279.45,402.99z"/>
<path class="st9" d="M279.59,387.01c-4.93,0-7.26-3.67-5.31-8.26c0.5-1.17,1.37-1.35,2.37-1.34c2.16,0.01,4.32,0.01,6.47,0.19
	c2.99,0.25,5.18,1.58,5,4.95c-0.17,3.41-2.65,4.28-5.54,4.45C281.59,387.06,280.59,387.01,279.59,387.01z"/>
<path class="st10" d="M376.01,392.55c-2.01-1.42-5.64,1.28-5.67-2.29c-0.02-2.63,2.68-4.35,5.71-4.31c3.09,0.04,5.62,1.95,5.37,4.62
	C381.1,394.15,377.49,390.72,376.01,392.55z"/>
<path class="st11" d="M259.62,394.83c0.03,5.01-2.78,8.96-6.49,9.14c-3.72,0.18-6.8-3.7-6.91-8.71c-0.12-5.36,2.78-9.38,6.73-9.34
	C256.75,385.96,259.59,389.75,259.62,394.83z"/>
</svg>
