<svg version="1.1" id="Layer_1" xmlns="http://www.w3.org/2000/svg" xmlns:xlink="http://www.w3.org/1999/xlink" x="0px" y="0px"
	 viewBox="0 0 612 792" style="enable-background:new 0 0 612 792;" xml:space="preserve">
<style type="text/css">
	.st0{fill:#08ABD3;}
	.st1{fill:#90AEBF;}
	.st2{fill:#235E7A;}
	.st3{fill:#93B0C0;}
	.st4{fill:#05AAD2;}
	.st5{fill:#8EADBD;}
	.st6{fill:#19B1D6;}
	.st7{fill:#9BB6C5;}
	.st8{fill:#17B0D5;}
</style>
<path class="st0" d="M278.7,373c2.5,0,5-0.3,7.5,0.1c6.7,0.9,10.1,7.7,6.4,13.4c-1.4,2.2-1.3,2.8,0.5,4.6c5.3,5.3,2.6,14.3-4.7,16.1
	c-5.9,1.5-11.9,0.5-17.9,0.7c-1.9,0.1-2.1-1.2-2.1-2.6c0-9.8,0.1-19.6,0-29.4c0-2.5,1.1-3.1,3.3-3c2.3,0.1,4.6,0,7,0
	C278.7,372.9,278.7,372.9,278.7,373z M279.4,403c0.7,0,1,0,1.3,0c3.5,0,7.2,0.1,8.6-4.1c0.9-2.6-0.2-4.8-2.4-5.8
	c-3.8-1.9-8.6-2.4-12-0.6c-2.4,1.3-1.1,5.9-0.7,8.9C274.9,404.6,278,402.3,279.4,403z M279.6,387c1,0,2,0,3,0
	c2.9-0.1,5.3-1.1,5.5-4.5c0.1-3.4-2.1-4.7-5.1-4.9c-2.1-0.2-4.3-0.2-6.5-0.2c-1,0-1.9,0.2-2.3,1.4C272.3,383.5,274.6,387,279.6,387z
	"/>
<path class="st1" d="M378.3,396.8c-1,0-2-0.1-3,0c-1.7,0.2-3.9-0.9-5.1,0.9c-1,1.5,0.4,2.8,1.4,3.9c1.6,1.8,3.6,3.1,6.2,2.1
	c1.4-0.5,2.6-1.4,3.3-2.8c1.4-2.6,4.1-2.4,5.6-1.2c2.3,1.7,0,3.6-1.1,5c-3.8,4.8-9.3,4.2-14.3,3.1c-4.8-1.1-7.1-5.1-7.5-10.1
	c-0.9-11.8,5.5-18.1,15.6-15.6c3.4,0.8,5.6,3,7.1,5.8c3.3,6,1.5,9-5.3,9C380.3,396.8,379.3,396.8,378.3,396.8z M375.8,392.3
	c1.8-1.1,5.3,1.4,5.5-1.9c0.2-2.7-2.4-4.5-5.5-4.5c-3,0-5.7,1.8-5.6,4.4C370.5,393.8,374,391.2,375.8,392.3z"/>
<path class="st2" d="M265.2,395.3c-0.2,8.9-4.7,13.2-13.3,12.9c-7.4-0.3-11.6-5.4-11.3-13.9c0.3-8.5,5-13.1,13.1-12.8
	C261.2,381.9,265.5,386.9,265.2,395.3z M259.6,394.8c0-5.1-2.9-8.9-6.7-8.9c-4,0-6.8,4-6.7,9.3c0.1,5,3.2,8.9,6.9,8.7
	C256.8,403.8,259.6,399.9,259.6,394.8z"/>
<path class="st2" d="M241.5,373.3c-1.9,4.5-4.8,8.1-7.7,11.7c-4.3,5.3-6.5,11-5.7,17.9c0.2,1.8,1.6,4.9-2.6,5
	c-4.1,0.1-3.1-2.8-2.9-4.8c0.8-6.9-1.2-12.6-5.5-17.9c-2.9-3.5-5.1-7.6-7.8-11.6c6-1.1,6-1.1,16.3,13.8c2.4-3.6,5.1-7,7-10.7
	C234.7,372.8,237.4,372.1,241.5,373.3z"/>
<path class="st3" d="M338,394.9c0-0.5-0.1-1,0-1.5c0.5-3.7-1.5-10.2,1-10.5c4.4-0.6,9.2-2,13.9-1.1c4.5,0.9,6.6,3.6,6.7,7.9
	c0.1,5,0,10,0,15c0,1.8-0.2,3.2-2.6,3.3c-2.5,0.1-3.2-1-3.1-3.3c0.1-4.2,0-8.3,0-12.5c0-3.1-1-6-4.5-6c-3.5,0-5.4,2.4-5.5,5.9
	c-0.2,4.1-0.1,8.3,0,12.5c0,2.2-0.5,3.4-3,3.4c-2.7,0-2.9-1.5-2.8-3.6C338.1,401.2,338,398.1,338,394.9z"/>
<path class="st4" d="M318.2,408c-4.4,0.2-6.3-1.8-6.3-6c0.1-3.8,0.1-7.7,0-11.5c0-1.8,0.9-4.2-2.3-4.5c-0.9-0.1-1.1-1.9-0.8-2
	c3.6-1.9,2.3-6.1,4.3-8.6c0.6-0.8,1.8-1.7,3.1-1.3c1.3,0.4,0.8,1.6,0.9,2.5c0.2,2.6-1,6,3.7,5.7c1-0.1,0.9,1.2,0.9,2
	c0,1.2-0.6,1.9-1.8,1.9c-3.1-0.2-2.9,2-2.9,4c0,3.2,0,6.3,0.1,9.5c0.1,1.4,0,3.3,2.1,3.4c2.3,0.1,2.9,1.5,2.7,3.3
	C321.6,409,319.4,407.6,318.2,408z"/>
<path class="st5" d="M399.2,408c-4.5,0.3-6.4-1.7-6.3-5.9c0.1-3.8,0.1-7.6,0-11.5c0-1.9,0.7-4.2-2.2-4.8c-0.3-0.1-0.6-0.7-0.7-1.2
	c-0.2-0.6,4.8-9.9,5.4-10.2c2.1-1,2.6,0.1,2.7,2c0.1,2.6-1,5.7,3.7,6c1.7,0.1,1.7,3.2-0.4,3.5c-3.8,0.5-3.3,3-3.3,5.5
	c0,2.5-0.1,5,0,7.5c0.1,1.6,0,3.7,2.1,4.1c2.4,0.4,3.2,1.7,2.6,3.8C402.2,408.7,400.3,407.7,399.2,408z"/>
<path class="st6" d="M305.9,395.4c0,3,0,6,0,9c0,2,0,3.6-2.8,3.6c-2.5,0-3.1-1.1-3.1-3.3c0.1-6.5,0.1-13,0-19.4c0-2.2,0.5-3.3,3-3.3
	c2.7,0,2.8,1.5,2.8,3.5C305.8,388.7,305.9,392,305.9,395.4z"/>
<path class="st7" d="M329.3,407.9c-2.2,0.3-3.3-0.6-3.3-3c0-2.7,1.5-2.8,3.5-2.9c2.2-0.1,3.3,0.6,3.3,3.1
	C332.8,407.7,331.4,408.1,329.3,407.9z"/>
<path class="st8" d="M305.8,375.3c0.3,2-0.3,3.1-2.6,3c-1.8-0.1-3.2-0.1-3.2-2.6c0-2,0.4-3.2,2.7-3.1
	C304.5,372.8,306.2,372.8,305.8,375.3z"/>
</svg>
