<svg xmlns="http://www.w3.org/2000/svg" version="1.1" style="shape-rendering:geometricPrecision; text-rendering:geometricPrecision; image-rendering:optimizeQuality; fill-rule:evenodd; clip-rule:evenodd" xmlns:xlink="http://www.w3.org/1999/xlink" viewBox="0 0 1024 1024"> <g><path style="opacity:0.992" fill="#125873" d="M 1023.5,419.5 C 1023.5,425.833 1023.5,432.167 1023.5,438.5C 1019.22,454.948 1008.89,465.781 992.5,471C 983.907,472.828 975.24,473.994 966.5,474.5C 951.524,473.365 936.524,472.531 921.5,472C 927.506,493.129 924.173,512.629 911.5,530.5C 924.012,543.444 924.679,556.944 913.5,571C 906.288,576.107 898.621,580.44 890.5,584C 900.878,587.6 910.044,593.1 918,600.5C 930.491,622.702 924.324,637.202 899.5,644C 883.047,647.678 866.381,649.678 849.5,650C 790.138,652.166 730.804,651.5 671.5,648C 598.851,643.049 526.184,638.382 453.5,634C 402.159,630.842 350.825,630.842 299.5,634C 270.081,637.07 241.081,642.403 212.5,650C 196.098,655.246 179.598,660.079 163,664.5C 145.783,662.323 128.949,658.49 112.5,653C 101.99,649.809 93.8231,643.642 88,634.5C 83.2252,621.388 86.3919,610.555 97.5,602C 101.841,598.828 106.508,596.161 111.5,594C 121.418,590.249 131.418,586.916 141.5,584C 111.857,570.265 94.6905,547.099 90,514.5C 89.8328,500.155 89.3328,485.822 88.5,471.5C 70.3978,468.724 52.7311,464.224 35.5,458C 19.6188,452.252 7.61877,442.085 -0.5,427.5C -0.5,420.5 -0.5,413.5 -0.5,406.5C 7.65213,390.518 19.9855,378.685 36.5,371C 45.2927,366.269 54.2927,362.102 63.5,358.5C 57.8553,391.564 70.1887,414.564 100.5,427.5C 106.708,416.454 113.541,405.787 121,395.5C 151.383,360.691 187.55,352.857 229.5,372C 236.524,377.367 241.691,384.2 245,392.5C 251.882,381.284 261.049,372.451 272.5,366C 298.56,358.236 317.726,366.403 330,390.5C 336.01,415.307 329.843,436.474 311.5,454C 315.833,457 319.5,460.667 322.5,465C 323.167,465.667 323.833,465.667 324.5,465C 337.829,450.665 354.162,444.832 373.5,447.5C 374.672,442.32 377.005,437.82 380.5,434C 387.112,432.79 393.778,432.29 400.5,432.5C 400.495,425.3 399.329,418.3 397,411.5C 393.29,405.913 389.457,400.413 385.5,395C 402.281,386.91 419.948,383.577 438.5,385C 453.551,390.902 460.718,402.069 460,418.5C 477.177,425.151 485.677,437.817 485.5,456.5C 499.584,461.534 509.417,457.201 515,443.5C 529.607,427.474 547.107,423.307 567.5,431C 570.5,432.667 573.5,434.333 576.5,436C 577.5,436.667 578.5,436.667 579.5,436C 586.686,426.476 595.853,419.643 607,415.5C 611.911,400.497 619.745,387.331 630.5,376C 650.549,359.694 670.883,359.36 691.5,375C 707.132,395.344 708.632,416.844 696,439.5C 692.38,444.789 688.38,449.789 684,454.5C 683.333,455.167 683.333,455.833 684,456.5C 688.667,459.833 692.667,463.833 696,468.5C 703.896,458.98 713.729,452.647 725.5,449.5C 723.263,433.471 729.929,423.304 745.5,419C 754.326,417.207 763.159,415.707 772,414.5C 768.934,408.215 765.101,402.215 760.5,396.5C 776.713,387.951 794.047,384.451 812.5,386C 821.404,387.904 827.571,393.071 831,401.5C 832.918,406.674 834.084,412.007 834.5,417.5C 855.797,419.317 877.13,419.817 898.5,419C 922.2,418.245 944.2,411.912 964.5,400C 973.038,393.129 980.538,385.296 987,376.5C 1005.95,385.272 1018.12,399.605 1023.5,419.5 Z M 209.5,457.5 C 210.675,457.281 211.675,457.614 212.5,458.5C 214.809,462.642 217.976,465.976 222,468.5C 221.916,473.509 221.416,478.509 220.5,483.5C 211.499,482.088 202.499,481.755 193.5,482.5C 191.517,496.63 185.184,508.464 174.5,518C 170.934,520.201 167.1,521.701 163,522.5C 159.196,522.031 156.529,520.031 155,516.5C 152.351,501.7 154.018,487.367 160,473.5C 170.163,471.133 180.33,468.633 190.5,466C 197.311,464.017 203.645,461.183 209.5,457.5 Z M 830.5,460.5 C 834.514,460.334 838.514,460.501 842.5,461C 838.333,465.167 834.167,469.333 830,473.5C 829.924,469.181 830.091,464.848 830.5,460.5 Z M 773.5,461.5 C 775.104,462.287 775.771,463.62 775.5,465.5C 767.725,465.273 767.059,463.939 773.5,461.5 Z M 682.5,564.5 C 696.84,585.837 715.173,589.837 737.5,576.5C 740.605,581.448 743.939,586.281 747.5,591C 685.106,593.498 622.773,592.498 560.5,588C 562.167,586.333 563.833,584.667 565.5,583C 577.197,581.734 588.863,580.234 600.5,578.5C 605.804,579.767 611.138,580.934 616.5,582C 629.5,582.667 642.5,582.667 655.5,582C 666.741,579.587 675.741,573.754 682.5,564.5 Z M 221.5,567.5 C 224.631,570.129 227.631,572.962 230.5,576C 224.167,576.667 217.833,576.667 211.5,576C 215.025,573.302 218.358,570.469 221.5,567.5 Z M 455.5,574.5 C 459.972,577.573 464.639,580.407 469.5,583C 459.832,583.138 450.166,582.804 440.5,582C 445.592,579.454 450.592,576.954 455.5,574.5 Z M 818.5,581.5 C 822.741,579.379 827.075,577.213 831.5,575C 833.403,574.226 835.07,574.56 836.5,576C 830.697,578.546 824.697,580.379 818.5,581.5 Z M 362.5,575.5 C 364.745,575.541 365.412,576.375 364.5,578C 362.833,578.667 361.167,578.667 359.5,578C 360.942,577.623 361.942,576.79 362.5,575.5 Z M 496.5,580.5 C 498.257,581.292 499.591,582.625 500.5,584.5C 497.124,585.711 493.791,585.544 490.5,584C 492.727,583.059 494.727,581.892 496.5,580.5 Z"/></g> <g><path style="opacity:1" fill="#f48528" d="M 231.5,398.5 C 230.903,399.139 230.07,399.472 229,399.5C 209.854,398.697 190.687,398.197 171.5,398C 161.336,397.273 151.336,396.44 141.5,395.5C 163.507,375.599 188.507,370.766 216.5,381C 223.89,384.883 228.89,390.716 231.5,398.5 Z"/></g> <g><path style="opacity:1" fill="#f48528" d="M 316.5,396.5 C 316.5,397.5 316.5,398.5 316.5,399.5C 297.326,399.83 278.326,399.497 259.5,398.5C 268.64,379.435 283.307,373.268 303.5,380C 309.917,383.91 314.25,389.41 316.5,396.5 Z"/></g> <g><path style="opacity:1" fill="#f4872a" d="M 688.5,421.5 C 678.167,421.5 667.833,421.5 657.5,421.5C 657.737,420.209 657.404,419.209 656.5,418.5C 656.965,414.208 656.132,410.208 654,406.5C 652.612,405.446 651.112,405.28 649.5,406C 645.334,410.647 643.001,416.147 642.5,422.5C 635.167,422.5 627.833,422.5 620.5,422.5C 624.767,406.123 633.434,392.623 646.5,382C 657.326,377.093 667.992,377.426 678.5,383C 689.653,393.714 692.987,406.548 688.5,421.5 Z"/></g> <g><path style="opacity:1" fill="#f68c2e" d="M 141.5,395.5 C 151.336,396.44 161.336,397.273 171.5,398C 190.687,398.197 209.854,398.697 229,399.5C 230.07,399.472 230.903,399.139 231.5,398.5C 232.751,403.369 232.751,408.369 231.5,413.5C 196.983,413.262 162.65,412.262 128.5,410.5C 132.489,405.179 136.822,400.179 141.5,395.5 Z"/></g> <g><path style="opacity:1" fill="#f58e31" d="M 316.5,396.5 C 320,408.525 318.333,419.858 311.5,430.5C 302.524,429.692 293.524,429.358 284.5,429.5C 286.528,421.157 285.695,413.157 282,405.5C 280,402.833 278,402.833 276,405.5C 271.962,415.238 268.795,425.238 266.5,435.5C 259.124,435.726 251.791,435.392 244.5,434.5C 247.338,421.505 252.338,409.505 259.5,398.5C 278.326,399.497 297.326,399.83 316.5,399.5C 316.5,398.5 316.5,397.5 316.5,396.5 Z"/></g> <g><path style="opacity:1" fill="#1e5a71" d="M 284.5,429.5 C 280.578,437.923 274.411,444.257 266,448.5C 265.585,444.152 265.751,439.819 266.5,435.5C 268.795,425.238 271.962,415.238 276,405.5C 278,402.833 280,402.833 282,405.5C 285.695,413.157 286.528,421.157 284.5,429.5 Z"/></g> <g><path style="opacity:1" fill="#1a5972" d="M 656.5,418.5 C 656.942,432.62 650.942,442.954 638.5,449.5C 638.167,448.833 637.833,448.167 637.5,447.5C 639.019,439.098 640.686,430.765 642.5,422.5C 643.001,416.147 645.334,410.647 649.5,406C 651.112,405.28 652.612,405.446 654,406.5C 656.132,410.208 656.965,414.208 656.5,418.5 Z"/></g> <g><path style="opacity:1" fill="#f58b2d" d="M 819.5,423.5 C 809.345,425.817 799.012,426.15 788.5,424.5C 788.233,417.164 786.566,410.164 783.5,403.5C 789.471,400.78 795.804,399.446 802.5,399.5C 810.801,398.394 816.301,401.727 819,409.5C 819.499,414.155 819.666,418.821 819.5,423.5 Z"/></g> <g><path style="opacity:1" fill="#f69133" d="M 76.5,430.5 C 57.6592,431.698 38.6592,431.698 19.5,430.5C 13.9629,424.996 12.1295,418.329 14,410.5C 15.802,405.071 18.9686,400.571 23.5,397C 30.228,391.941 37.228,387.274 44.5,383C 46.1341,382.506 47.8008,382.34 49.5,382.5C 51.2427,402.659 60.2427,418.659 76.5,430.5 Z"/></g> <g><path style="opacity:1" fill="#f48b2e" d="M 1009.5,429.5 C 986.149,429.338 963.149,428.338 940.5,426.5C 960.298,420.688 977.298,410.355 991.5,395.5C 1003.27,403.71 1009.27,415.043 1009.5,429.5 Z"/></g> <g><path style="opacity:1" fill="#f69334" d="M 128.5,410.5 C 162.65,412.262 196.983,413.262 231.5,413.5C 228.68,422.17 223.68,429.17 216.5,434.5C 208.648,434.825 200.982,434.492 193.5,433.5C 193.15,428.319 190.317,425.652 185,425.5C 178.723,426.622 173.223,429.288 168.5,433.5C 150.977,433.672 133.644,433.006 116.5,431.5C 119.239,423.677 123.239,416.677 128.5,410.5 Z"/></g> <g><path style="opacity:1" fill="#f69032" d="M 443.5,437.5 C 434.25,438.472 424.917,438.805 415.5,438.5C 415.802,435.941 415.468,433.607 414.5,431.5C 414.666,427.486 414.499,423.486 414,419.5C 412.64,413.404 411.307,407.404 410,401.5C 419.811,398.06 429.644,397.894 439.5,401C 441.617,402.731 443.117,404.898 444,407.5C 444.59,417.514 444.424,427.514 443.5,437.5 Z"/></g> <g><path style="opacity:1" fill="#f59234" d="M 819.5,423.5 C 819.5,424.5 819.5,425.5 819.5,426.5C 818.549,427.919 818.216,429.585 818.5,431.5C 821.833,431.5 825.167,431.5 828.5,431.5C 853.464,433.407 878.464,433.907 903.5,433C 916.043,431.805 928.376,429.638 940.5,426.5C 963.149,428.338 986.149,429.338 1009.5,429.5C 1009.52,434.09 1008.52,438.423 1006.5,442.5C 927.664,441.391 848.831,440.058 770,438.5C 760.475,438.498 751.308,437.832 742.5,436.5C 747.224,433.24 752.557,431.407 758.5,431C 768.474,429.946 778.474,429.446 788.5,429.5C 788.5,427.833 788.5,426.167 788.5,424.5C 799.012,426.15 809.345,425.817 819.5,423.5 Z"/></g> <g><path style="opacity:1" fill="#1b5972" d="M 193.5,433.5 C 190.456,438.386 186.123,441.886 180.5,444C 173.032,446.66 165.366,448.16 157.5,448.5C 157.351,447.448 157.517,446.448 158,445.5C 161.336,441.332 164.836,437.332 168.5,433.5C 173.223,429.288 178.723,426.622 185,425.5C 190.317,425.652 193.15,428.319 193.5,433.5 Z"/></g> <g><path style="opacity:1" fill="#997a4d" d="M 819.5,426.5 C 819.5,427.833 819.5,429.167 819.5,430.5C 822.713,430.19 825.713,430.523 828.5,431.5C 825.167,431.5 821.833,431.5 818.5,431.5C 818.216,429.585 818.549,427.919 819.5,426.5 Z"/></g> <g><path style="opacity:1" fill="#f69738" d="M 742.5,436.5 C 751.308,437.832 760.475,438.498 770,438.5C 848.831,440.058 927.664,441.391 1006.5,442.5C 1000.74,451.735 992.408,457.235 981.5,459C 966.472,459.809 951.472,459.475 936.5,458C 900.498,453.667 864.498,449.333 828.5,445C 824.413,444.238 820.413,444.404 816.5,445.5C 790.84,444.767 765.173,444.433 739.5,444.5C 739.018,441.169 740.018,438.503 742.5,436.5 Z"/></g> <g><path style="opacity:1" fill="#f69739" d="M 656.5,418.5 C 657.404,419.209 657.737,420.209 657.5,421.5C 667.833,421.5 678.167,421.5 688.5,421.5C 679.279,443.701 662.612,456.034 638.5,458.5C 620.88,457.527 603.214,457.194 585.5,457.5C 588.697,447.273 594.697,439.106 603.5,433C 607.749,431.874 612.082,431.208 616.5,431C 617.737,428.031 619.07,425.197 620.5,422.5C 627.833,422.5 635.167,422.5 642.5,422.5C 640.686,430.765 639.019,439.098 637.5,447.5C 637.833,448.167 638.167,448.833 638.5,449.5C 650.942,442.954 656.942,432.62 656.5,418.5 Z"/></g> <g><path style="opacity:1" fill="#f69c3d" d="M 19.5,430.5 C 38.6592,431.698 57.6592,431.698 76.5,430.5C 86.2568,436.961 96.7568,441.961 108,445.5C 108.833,445.167 109.667,444.833 110.5,444.5C 112.275,439.956 114.275,435.623 116.5,431.5C 133.644,433.006 150.977,433.672 168.5,433.5C 164.836,437.332 161.336,441.332 158,445.5C 157.517,446.448 157.351,447.448 157.5,448.5C 165.366,448.16 173.032,446.66 180.5,444C 186.123,441.886 190.456,438.386 193.5,433.5C 200.982,434.492 208.648,434.825 216.5,434.5C 209.205,441.157 200.871,446.324 191.5,450C 177.955,455.275 163.955,458.442 149.5,459.5C 135.131,459.782 120.797,459.449 106.5,458.5C 88.5993,456.849 70.9326,453.683 53.5,449C 40.77,445.14 29.4366,438.973 19.5,430.5 Z"/></g> <g><path style="opacity:1" fill="#f69b3c" d="M 739.5,444.5 C 765.173,444.433 790.84,444.767 816.5,445.5C 816.262,454.171 815.928,462.838 815.5,471.5C 806.833,471.5 798.167,471.5 789.5,471.5C 789.5,462.833 789.5,454.167 789.5,445.5C 774.476,445.67 760.81,450.004 748.5,458.5C 743.869,454.871 740.869,450.205 739.5,444.5 Z"/></g> <g><path style="opacity:1" fill="#f59b3d" d="M 284.5,429.5 C 293.524,429.358 302.524,429.692 311.5,430.5C 305.113,441.711 295.779,449.544 283.5,454C 277.833,455.667 272.167,457.333 266.5,459C 265.058,459.377 264.058,460.21 263.5,461.5C 255.167,461.5 246.833,461.5 238.5,461.5C 238.719,460.325 238.386,459.325 237.5,458.5C 233.529,457.678 229.862,456.178 226.5,454C 225.594,452.301 225.261,450.467 225.5,448.5C 230.14,449.397 234.806,449.564 239.5,449C 241.104,444.051 242.771,439.218 244.5,434.5C 251.791,435.392 259.124,435.726 266.5,435.5C 265.751,439.819 265.585,444.152 266,448.5C 274.411,444.257 280.578,437.923 284.5,429.5 Z"/></g> <g><path style="opacity:1" fill="#f69d3f" d="M 414.5,431.5 C 415.468,433.607 415.802,435.941 415.5,438.5C 424.917,438.805 434.25,438.472 443.5,437.5C 443.369,438.376 443.702,439.043 444.5,439.5C 449.828,437.834 455.161,436.168 460.5,434.5C 461.554,434.68 462.554,435.013 463.5,435.5C 470.349,442.393 472.183,450.393 469,459.5C 467.581,460.46 466.081,461.293 464.5,462C 456.895,463.311 449.228,463.811 441.5,463.5C 440.841,466.455 440.508,469.455 440.5,472.5C 432.167,472.5 423.833,472.5 415.5,472.5C 415.81,469.287 415.477,466.287 414.5,463.5C 407.759,463.829 401.092,463.329 394.5,462C 388.764,458.813 387.098,454.146 389.5,448C 397.749,446.375 406.082,445.542 414.5,445.5C 414.5,440.833 414.5,436.167 414.5,431.5 Z"/></g> <g><path style="opacity:1" fill="#f7a142" d="M 585.5,457.5 C 603.214,457.194 620.88,457.527 638.5,458.5C 635.968,461.236 634.635,464.57 634.5,468.5C 625.766,469.135 617.433,468.468 609.5,466.5C 609.92,464.326 609.92,462.326 609.5,460.5C 599.5,466.168 591.5,473.835 585.5,483.5C 573.678,482.505 561.678,482.172 549.5,482.5C 546.812,467.308 537.812,461.308 522.5,464.5C 524.375,451.206 532.042,443.706 545.5,442C 561.44,440.935 571.606,448.102 576,463.5C 576.333,469.167 576.667,474.833 577,480.5C 579.085,472.447 581.918,464.781 585.5,457.5 Z"/></g> <g><path style="opacity:1" fill="#f8a747" d="M 238.5,461.5 C 246.833,461.5 255.167,461.5 263.5,461.5C 262.642,467.816 262.476,474.15 263,480.5C 269.368,474.462 276.535,469.628 284.5,466C 301.869,461.217 311.535,467.717 313.5,485.5C 287.332,485.128 261.332,484.461 235.5,483.5C 235.522,475.989 236.522,468.656 238.5,461.5 Z"/></g> <g><path style="opacity:1" fill="#f6a445" d="M 771.5,486.5 C 749.003,485.993 726.67,485.326 704.5,484.5C 710.908,471.374 721.408,464.041 736,462.5C 739.129,462.329 741.963,463.162 744.5,465C 748.28,468.782 751.28,473.116 753.5,478C 759.278,478.094 764.944,478.761 770.5,480C 771.423,482.041 771.756,484.208 771.5,486.5 Z"/></g> <g><path style="opacity:1" fill="#f8a848" d="M 397.5,486.5 C 374.824,486.644 352.157,486.311 329.5,485.5C 334.588,473.25 343.588,465.417 356.5,462C 368.228,461.024 375.561,466.19 378.5,477.5C 383.511,477.334 388.511,477.501 393.5,478C 396.909,479.696 398.242,482.529 397.5,486.5 Z"/></g> <g><path style="opacity:1" fill="#f7a545" d="M 909.5,484.5 C 909.5,485.833 909.5,487.167 909.5,488.5C 885.83,488.373 862.163,488.04 838.5,487.5C 847.301,474.265 859.634,466.931 875.5,465.5C 884.309,467.79 893.309,468.957 902.5,469C 907.142,473.117 909.475,478.284 909.5,484.5 Z"/></g> <g><path style="opacity:1" fill="#f8a949" d="M 106.5,458.5 C 120.797,459.449 135.131,459.782 149.5,459.5C 145.229,469.277 141.896,479.277 139.5,489.5C 127.833,489.5 116.167,489.5 104.5,489.5C 104.5,484.833 104.5,480.167 104.5,475.5C 104.436,469.738 105.103,464.071 106.5,458.5 Z"/></g> <g><path style="opacity:1" fill="#f8a747" d="M 609.5,466.5 C 617.433,468.468 625.766,469.135 634.5,468.5C 634.334,473.511 634.501,478.511 635,483.5C 640.676,477.482 647.176,472.649 654.5,469C 674.868,463.688 686.201,471.521 688.5,492.5C 676.172,492.008 663.839,491.675 651.5,491.5C 649.901,490.438 648.234,490.438 646.5,491.5C 633.485,491.603 620.485,491.27 607.5,490.5C 607.5,488.167 607.5,485.833 607.5,483.5C 607.45,477.611 608.116,471.944 609.5,466.5 Z"/></g> <g><path style="opacity:1" fill="#f9ae4d" d="M 235.5,483.5 C 261.332,484.461 287.332,485.128 313.5,485.5C 313.5,491.5 313.5,497.5 313.5,503.5C 303.561,504.617 293.561,504.617 283.5,503.5C 284.737,496.702 282.737,491.202 277.5,487C 270.286,484.277 265.286,486.444 262.5,493.5C 261.521,496.625 261.187,499.958 261.5,503.5C 253.16,503.666 244.827,503.5 236.5,503C 234.893,501.951 234.227,500.451 234.5,498.5C 234.179,493.305 234.513,488.305 235.5,483.5 Z"/></g> <g><path style="opacity:1" fill="#f9ae4d" d="M 329.5,485.5 C 352.157,486.311 374.824,486.644 397.5,486.5C 397.5,492.833 397.5,499.167 397.5,505.5C 388.167,505.5 378.833,505.5 369.5,505.5C 369.122,500.106 368.288,494.773 367,489.5C 366.586,489.043 366.086,488.709 365.5,488.5C 360.08,492.999 356.414,498.666 354.5,505.5C 343.335,505.043 332.335,504.377 321.5,503.5C 322.839,496.781 325.506,490.781 329.5,485.5 Z"/></g> <g><path style="opacity:1" fill="#f9ac4b" d="M 704.5,484.5 C 726.67,485.326 749.003,485.993 771.5,486.5C 771.5,497.167 771.5,507.833 771.5,518.5C 761.442,519.14 751.775,518.473 742.5,516.5C 742.666,508.826 742.5,501.159 742,493.5C 741.64,491.579 740.806,489.912 739.5,488.5C 738.522,488.977 737.689,489.643 737,490.5C 735.058,494.069 732.892,497.402 730.5,500.5C 719.116,501.144 708.116,500.477 697.5,498.5C 698.793,493.247 701.126,488.581 704.5,484.5 Z"/></g> <g><path style="opacity:1" fill="#f8ac4c" d="M 909.5,484.5 C 911.281,495.465 909.281,505.799 903.5,515.5C 894.978,515.345 886.644,514.678 878.5,513.5C 882.239,507.74 883.406,501.406 882,494.5C 880.582,492.637 878.749,492.137 876.5,493C 866.37,499.088 860.036,507.922 857.5,519.5C 847.561,520.617 837.561,520.617 827.5,519.5C 827.5,518.167 827.5,516.833 827.5,515.5C 828.046,504.849 831.713,495.515 838.5,487.5C 862.163,488.04 885.83,488.373 909.5,488.5C 909.5,487.167 909.5,485.833 909.5,484.5 Z"/></g> <g><path style="opacity:1" fill="#1b5a73" d="M 369.5,505.5 C 369.129,517.27 366.129,528.27 360.5,538.5C 351.131,547.816 347.131,545.816 348.5,532.5C 349.089,523.148 351.089,514.148 354.5,505.5C 356.414,498.666 360.08,492.999 365.5,488.5C 366.086,488.709 366.586,489.043 367,489.5C 368.288,494.773 369.122,500.106 369.5,505.5 Z"/></g> <g><path style="opacity:1" fill="#f9ad4c" d="M 549.5,482.5 C 561.678,482.172 573.678,482.505 585.5,483.5C 582.234,491.229 579.901,499.229 578.5,507.5C 576.277,508.702 573.777,509.369 571,509.5C 563.088,509.432 555.588,508.432 548.5,506.5C 549.166,498.517 549.499,490.517 549.5,482.5 Z"/></g> <g><path style="opacity:1" fill="#195a73" d="M 742.5,516.5 C 741.067,527.866 736.067,537.366 727.5,545C 725.567,545.783 724.067,545.283 723,543.5C 722.501,538.511 722.334,533.511 722.5,528.5C 724.213,518.996 726.879,509.662 730.5,500.5C 732.892,497.402 735.058,494.069 737,490.5C 737.689,489.643 738.522,488.977 739.5,488.5C 740.806,489.912 741.64,491.579 742,493.5C 742.5,501.159 742.666,508.826 742.5,516.5 Z"/></g> <g><path style="opacity:1" fill="#195a73" d="M 651.5,491.5 C 652.045,493.593 652.878,495.593 654,497.5C 654.758,507.534 654.591,517.534 653.5,527.5C 652.317,537.364 648.317,545.864 641.5,553C 640.241,553.982 638.908,554.315 637.5,554C 636.087,549.308 635.254,544.474 635,539.5C 634.5,530.84 634.334,522.173 634.5,513.5C 634.408,509.941 635.241,506.608 637,503.5C 639.619,499.05 642.786,495.05 646.5,491.5C 648.234,490.438 649.901,490.438 651.5,491.5 Z"/></g> <g><path style="opacity:1" fill="#1b5a73" d="M 878.5,513.5 C 873.031,518.064 866.698,520.73 859.5,521.5C 858.287,521.253 857.62,520.586 857.5,519.5C 860.036,507.922 866.37,499.088 876.5,493C 878.749,492.137 880.582,492.637 882,494.5C 883.406,501.406 882.239,507.74 878.5,513.5 Z"/></g> <g><path style="opacity:1" fill="#f9ad4c" d="M 414.5,463.5 C 415.477,466.287 415.81,469.287 415.5,472.5C 423.833,472.5 432.167,472.5 440.5,472.5C 440.5,475.167 440.5,477.833 440.5,480.5C 439.507,488.984 439.174,497.651 439.5,506.5C 430.833,506.5 422.167,506.5 413.5,506.5C 413.5,503.167 413.5,499.833 413.5,496.5C 414.119,485.511 414.452,474.511 414.5,463.5 Z"/></g> <g><path style="opacity:1" fill="#f9ab4a" d="M 789.5,471.5 C 798.167,471.5 806.833,471.5 815.5,471.5C 814.834,485.49 814.5,499.49 814.5,513.5C 805.5,513.5 796.5,513.5 787.5,513.5C 787.5,512.167 787.5,510.833 787.5,509.5C 788.135,496.831 788.802,484.164 789.5,471.5 Z"/></g> <g><path style="opacity:1" fill="#f7ac4c" d="M 485.5,507.5 C 475.085,507.808 464.751,507.475 454.5,506.5C 454.458,496.321 455.625,486.321 458,476.5C 460.855,472.656 464.688,470.823 469.5,471C 476.195,470.335 482.862,470.502 489.5,471.5C 486.642,483.321 485.308,495.321 485.5,507.5 Z"/></g> <g><path style="opacity:1" fill="#f8ac4c" d="M 530.5,508.5 C 521.479,508.599 512.479,508.266 503.5,507.5C 503.5,504.5 503.5,501.5 503.5,498.5C 503.569,491.086 504.402,483.753 506,476.5C 508.014,469.486 512.681,466.82 520,468.5C 525.342,468.284 530.509,469.118 535.5,471C 536.804,471.804 537.471,472.971 537.5,474.5C 534.203,485.681 531.869,497.014 530.5,508.5 Z"/></g> <g><path style="opacity:1" fill="#f8b554" d="M 104.5,475.5 C 104.5,480.167 104.5,484.833 104.5,489.5C 116.167,489.5 127.833,489.5 139.5,489.5C 137.745,500.667 138.412,511.667 141.5,522.5C 129.82,522.527 118.154,522.194 106.5,521.5C 103.49,506.136 102.823,490.803 104.5,475.5 Z"/></g> <g><path style="opacity:1" fill="#fab755" d="M 283.5,503.5 C 293.561,504.617 303.561,504.617 313.5,503.5C 312.76,510.826 312.093,518.159 311.5,525.5C 302.5,525.5 293.5,525.5 284.5,525.5C 284.823,518.978 284.49,512.645 283.5,506.5C 283.5,505.5 283.5,504.5 283.5,503.5 Z"/></g> <g><path style="opacity:1" fill="#f9b352" d="M 607.5,483.5 C 607.5,485.833 607.5,488.167 607.5,490.5C 620.485,491.27 633.485,491.603 646.5,491.5C 642.786,495.05 639.619,499.05 637,503.5C 635.241,506.608 634.408,509.941 634.5,513.5C 633.515,517.634 633.182,521.968 633.5,526.5C 623.833,526.5 614.167,526.5 604.5,526.5C 604.516,511.949 605.516,497.616 607.5,483.5 Z"/></g> <g><path style="opacity:1" fill="#fab352" d="M 651.5,491.5 C 663.839,491.675 676.172,492.008 688.5,492.5C 689.631,504.328 688.631,515.995 685.5,527.5C 674.833,527.5 664.167,527.5 653.5,527.5C 654.591,517.534 654.758,507.534 654,497.5C 652.878,495.593 652.045,493.593 651.5,491.5 Z"/></g> <g><path style="opacity:1" fill="#fab453" d="M 697.5,498.5 C 708.116,500.477 719.116,501.144 730.5,500.5C 726.879,509.662 724.213,518.996 722.5,528.5C 712.115,528.786 701.782,528.452 691.5,527.5C 691.69,517.333 693.69,507.666 697.5,498.5 Z"/></g> <g><path style="opacity:1" fill="#f9b655" d="M 878.5,513.5 C 886.644,514.678 894.978,515.345 903.5,515.5C 898.614,523.193 891.614,528.026 882.5,530C 873.712,530.961 865.046,530.461 856.5,528.5C 856.5,529.833 856.5,531.167 856.5,532.5C 856.5,533.5 856.5,534.5 856.5,535.5C 846.833,535.5 837.167,535.5 827.5,535.5C 826.368,528.679 826.368,522.012 827.5,515.5C 827.5,516.833 827.5,518.167 827.5,519.5C 837.561,520.617 847.561,520.617 857.5,519.5C 857.62,520.586 858.287,521.253 859.5,521.5C 866.698,520.73 873.031,518.064 878.5,513.5 Z"/></g> <g><path style="opacity:1" fill="#fabb59" d="M 223.5,538.5 C 204.662,538.2 185.995,537.534 167.5,536.5C 187.42,530.244 199.753,516.911 204.5,496.5C 223.506,497.013 231.339,506.68 228,525.5C 227.365,530.243 225.865,534.576 223.5,538.5 Z"/></g> <g><path style="opacity:1" fill="#f8ba59" d="M 262.5,493.5 C 262.382,507.181 262.716,520.848 263.5,534.5C 263.5,536.167 263.5,537.833 263.5,539.5C 253.194,538.629 242.86,538.296 232.5,538.5C 232.285,524.968 232.951,511.635 234.5,498.5C 234.227,500.451 234.893,501.951 236.5,503C 244.827,503.5 253.16,503.666 261.5,503.5C 261.187,499.958 261.521,496.625 262.5,493.5 Z"/></g> <g><path style="opacity:1" fill="#fbbb59" d="M 321.5,503.5 C 332.335,504.377 343.335,505.043 354.5,505.5C 351.089,514.148 349.089,523.148 348.5,532.5C 347.527,534.948 347.194,537.615 347.5,540.5C 337.833,540.5 328.167,540.5 318.5,540.5C 318.5,533.5 318.5,526.5 318.5,519.5C 318.585,513.863 319.585,508.529 321.5,503.5 Z"/></g> <g><path style="opacity:1" fill="#f9ba59" d="M 369.5,505.5 C 378.833,505.5 388.167,505.5 397.5,505.5C 398.455,516.449 398.789,527.449 398.5,538.5C 398.5,539.5 398.5,540.5 398.5,541.5C 390.167,541.5 381.833,541.5 373.5,541.5C 373.5,540.833 373.5,540.167 373.5,539.5C 369.366,538.515 365.032,538.182 360.5,538.5C 366.129,528.27 369.129,517.27 369.5,505.5 Z"/></g> <g><path style="opacity:1" fill="#f7b959" d="M 440.5,480.5 C 440.344,501.178 440.677,521.844 441.5,542.5C 431.488,542.447 421.488,542.113 411.5,541.5C 411.5,537.5 411.5,533.5 411.5,529.5C 411.621,518.315 412.287,507.315 413.5,496.5C 413.5,499.833 413.5,503.167 413.5,506.5C 422.167,506.5 430.833,506.5 439.5,506.5C 439.174,497.651 439.507,488.984 440.5,480.5 Z"/></g> <g><path style="opacity:1" fill="#fbbb59" d="M 503.5,498.5 C 503.5,501.5 503.5,504.5 503.5,507.5C 512.479,508.266 521.479,508.599 530.5,508.5C 530.5,518.5 530.5,528.5 530.5,538.5C 530.5,540.167 530.5,541.833 530.5,543.5C 505.826,543.569 481.16,543.236 456.5,542.5C 454.725,530.587 454.058,518.587 454.5,506.5C 464.751,507.475 475.085,507.808 485.5,507.5C 485.116,514.589 485.616,521.589 487,528.5C 488.211,531.759 490.044,534.592 492.5,537C 496.578,537.28 499.411,535.447 501,531.5C 502.018,520.366 502.851,509.366 503.5,498.5 Z"/></g> <g><path style="opacity:1" fill="#fabb59" d="M 548.5,506.5 C 555.588,508.432 563.088,509.432 571,509.5C 573.777,509.369 576.277,508.702 578.5,507.5C 576.181,518.696 575.181,530.029 575.5,541.5C 575.5,542.5 575.5,543.5 575.5,544.5C 565.5,544.5 555.5,544.5 545.5,544.5C 545.212,531.584 546.212,518.917 548.5,506.5 Z"/></g> <g><path style="opacity:1" fill="#fabc5a" d="M 742.5,516.5 C 751.775,518.473 761.442,519.14 771.5,518.5C 771.505,528.552 772.172,538.552 773.5,548.5C 764.792,548.745 756.126,548.411 747.5,547.5C 747.752,544.68 747.252,542.014 746,539.5C 744.726,542.391 743.226,545.058 741.5,547.5C 725.132,547.789 708.798,547.456 692.5,546.5C 691.542,540.256 691.209,533.923 691.5,527.5C 701.782,528.452 712.115,528.786 722.5,528.5C 722.334,533.511 722.501,538.511 723,543.5C 724.067,545.283 725.567,545.783 727.5,545C 736.067,537.366 741.067,527.866 742.5,516.5 Z"/></g> <g><path style="opacity:1" fill="#fabb59" d="M 787.5,509.5 C 787.5,510.833 787.5,512.167 787.5,513.5C 796.5,513.5 805.5,513.5 814.5,513.5C 814.838,525.562 815.838,537.562 817.5,549.5C 806.841,548.957 796.175,548.623 785.5,548.5C 785.5,546.833 785.5,545.167 785.5,543.5C 785.584,531.98 786.251,520.646 787.5,509.5 Z"/></g> <g><path style="opacity:1" fill="#fbc25f" d="M 106.5,521.5 C 118.154,522.194 129.82,522.527 141.5,522.5C 147.082,532.721 155.749,537.388 167.5,536.5C 185.995,537.534 204.662,538.2 223.5,538.5C 221.281,543.709 218.281,548.376 214.5,552.5C 183.13,552.974 151.797,552.308 120.5,550.5C 113.55,542.01 108.883,532.343 106.5,521.5 Z"/></g> <g><path style="opacity:1" fill="#fac15f" d="M 283.5,506.5 C 284.49,512.645 284.823,518.978 284.5,525.5C 293.5,525.5 302.5,525.5 311.5,525.5C 311.307,535.194 311.64,544.861 312.5,554.5C 303.358,554.74 294.025,554.74 284.5,554.5C 284.784,552.585 284.451,550.919 283.5,549.5C 283.5,535.167 283.5,520.833 283.5,506.5 Z"/></g> <g><path style="opacity:1" fill="#f8c362" d="M 318.5,519.5 C 318.5,526.5 318.5,533.5 318.5,540.5C 328.167,540.5 337.833,540.5 347.5,540.5C 347.194,537.615 347.527,534.948 348.5,532.5C 347.131,545.816 351.131,547.816 360.5,538.5C 365.032,538.182 369.366,538.515 373.5,539.5C 372.504,539.414 371.671,539.748 371,540.5C 366.4,549.874 360.234,558.041 352.5,565C 337.331,572.167 326.497,568 320,552.5C 317.379,541.46 316.879,530.46 318.5,519.5 Z"/></g> <g><path style="opacity:1" fill="#fac462" d="M 575.5,541.5 C 576.883,549.966 579.883,557.966 584.5,565.5C 574.938,567.488 565.271,567.988 555.5,567C 546.921,561.997 543.588,554.497 545.5,544.5C 555.5,544.5 565.5,544.5 575.5,544.5C 575.5,543.5 575.5,542.5 575.5,541.5 Z"/></g> <g><path style="opacity:1" fill="#f9c05f" d="M 634.5,513.5 C 634.334,522.173 634.5,530.84 635,539.5C 635.254,544.474 636.087,549.308 637.5,554C 638.908,554.315 640.241,553.982 641.5,553C 648.317,545.864 652.317,537.364 653.5,527.5C 664.167,527.5 674.833,527.5 685.5,527.5C 674.756,564.554 650.422,577.721 612.5,567C 607.219,563.278 604.386,558.112 604,551.5C 603.199,543.088 603.366,534.755 604.5,526.5C 614.167,526.5 623.833,526.5 633.5,526.5C 633.182,521.968 633.515,517.634 634.5,513.5 Z"/></g> <g><path style="opacity:1" fill="#fac361" d="M 692.5,546.5 C 708.798,547.456 725.132,547.789 741.5,547.5C 737.777,556.724 731.443,563.558 722.5,568C 705.014,571.719 695.014,564.552 692.5,546.5 Z"/></g> <g><path style="opacity:1" fill="#fac160" d="M 856.5,532.5 C 857.613,541.55 861.946,548.717 869.5,554C 876.497,555.001 882.33,552.834 887,547.5C 892.519,537.224 898.852,536.89 906,546.5C 907.82,551.243 906.986,555.576 903.5,559.5C 891.018,570.029 876.685,573.529 860.5,570C 842.143,565.478 831.143,553.978 827.5,535.5C 837.167,535.5 846.833,535.5 856.5,535.5C 856.5,534.5 856.5,533.5 856.5,532.5 Z"/></g> <g><path style="opacity:1" fill="#fbc966" d="M 120.5,550.5 C 151.797,552.308 183.13,552.974 214.5,552.5C 195.604,573.808 172.604,579.641 145.5,570C 135.648,565.412 127.315,558.912 120.5,550.5 Z"/></g> <g><path style="opacity:1" fill="#f9c664" d="M 263.5,534.5 C 264.694,544.77 267.36,554.77 271.5,564.5C 270.624,565.251 269.624,565.751 268.5,566C 259.833,566.667 251.167,566.667 242.5,566C 237.901,564.402 235.068,561.235 234,556.5C 232.928,550.545 232.428,544.545 232.5,538.5C 242.86,538.296 253.194,538.629 263.5,539.5C 263.5,537.833 263.5,536.167 263.5,534.5 Z"/></g> <g><path style="opacity:1" fill="#fbca67" d="M 283.5,549.5 C 284.451,550.919 284.784,552.585 284.5,554.5C 294.025,554.74 303.358,554.74 312.5,554.5C 316.125,563.614 322.792,569.448 332.5,572C 323.156,580.781 312.156,584.114 299.5,582C 293.026,579.526 288.526,575.026 286,568.5C 284.593,562.241 283.759,555.908 283.5,549.5 Z"/></g> <g><path style="opacity:1" fill="#fac764" d="M 411.5,529.5 C 411.5,533.5 411.5,537.5 411.5,541.5C 421.488,542.113 431.488,542.447 441.5,542.5C 442.481,546.748 443.648,551.081 445,555.5C 445.777,558.429 445.61,561.263 444.5,564C 437.048,567.262 429.381,569.929 421.5,572C 416.833,574.667 412.167,577.333 407.5,580C 396.165,586.419 386.998,584.252 380,573.5C 375.931,563.222 373.764,552.555 373.5,541.5C 381.833,541.5 390.167,541.5 398.5,541.5C 398.5,540.5 398.5,539.5 398.5,538.5C 398.337,548.138 401.671,556.471 408.5,563.5C 409.754,552.038 410.754,540.704 411.5,529.5 Z"/></g> <g><path style="opacity:1" fill="#fbc765" d="M 530.5,538.5 C 531.48,546.839 533.98,554.839 538,562.5C 541.479,568.146 546.312,572.146 552.5,574.5C 544.466,583.339 534.466,586.839 522.5,585C 520.101,584.269 517.935,583.102 516,581.5C 509.702,571.244 505.369,560.244 503,548.5C 499.857,555.959 495.357,562.459 489.5,568C 479.176,572.23 470.676,569.73 464,560.5C 460.119,555.072 457.619,549.072 456.5,542.5C 481.16,543.236 505.826,543.569 530.5,543.5C 530.5,541.833 530.5,540.167 530.5,538.5 Z"/></g> <g><path style="opacity:1" fill="#fac664" d="M 785.5,543.5 C 785.5,545.167 785.5,546.833 785.5,548.5C 796.175,548.623 806.841,548.957 817.5,549.5C 818.825,553.809 820.158,558.143 821.5,562.5C 821.291,563.086 820.957,563.586 820.5,564C 812.46,567.791 804.127,570.791 795.5,573C 789.992,576.255 784.325,579.255 778.5,582C 765.618,586.968 756.785,583.134 752,570.5C 750.176,562.881 748.676,555.214 747.5,547.5C 756.126,548.411 764.792,548.745 773.5,548.5C 775.089,554.954 778.256,560.62 783,565.5C 783.858,558.019 784.692,550.686 785.5,543.5 Z"/></g> <g><path style="opacity:1" fill="#fdd27d" d="M 843.5,588.5 C 864.031,589.965 883.364,595.465 901.5,605C 904.704,607.869 907.537,611.035 910,614.5C 910.993,621.213 908.16,625.713 901.5,628C 888.838,632.166 875.838,634.499 862.5,635C 811.505,636.313 760.505,636.647 709.5,636C 615.527,629.62 521.527,623.62 427.5,618C 355.948,612.185 285.281,617.519 215.5,634C 199.213,638.072 183.213,643.072 167.5,649C 148.933,648.287 130.933,644.62 113.5,638C 109.722,635.888 106.222,633.388 103,630.5C 98.889,623.61 100.056,617.777 106.5,613C 114.216,607.976 122.549,604.31 131.5,602C 157.171,596.073 183.171,592.407 209.5,591C 254.508,590.243 299.508,590.576 344.5,592C 419.845,595.778 495.179,599.778 570.5,604C 630.814,606.302 691.148,606.969 751.5,606C 775.482,604.877 799.148,601.544 822.5,596C 829.853,594.163 836.853,591.663 843.5,588.5 Z"/></g> </svg>
