<svg
   xmlns:dc="http://purl.org/dc/elements/1.1/"
   xmlns:cc="http://creativecommons.org/ns#"
   xmlns:rdf="http://www.w3.org/1999/02/22-rdf-syntax-ns#"
   xmlns:svg="http://www.w3.org/2000/svg"
   xmlns="http://www.w3.org/2000/svg"
   aria-label="Orcid"
   role="img"
   viewBox="0 0 512 512"
   version="1.1"
   id="svg55">
  <metadata
     id="metadata61">
    <rdf:RDF>
      <cc:Work
         rdf:about="">
        <dc:format>image/svg+xml</dc:format>
        <dc:type
           rdf:resource="http://purl.org/dc/dcmitype/StillImage" />
        <dc:title></dc:title>
      </cc:Work>
    </rdf:RDF>
  </metadata>
  <defs
     id="defs59" />
  <circle
     cx="256"
     cy="256"
     r="256"
     fill="#a6ce39"
     id="circle51" />
  <path
     d="m173 372h-31v-214h31zm45-214h83c79 0 114 57 114 107 0 55-43 107-114 107h-84zm31 187h49c70 0 86-53 86-79 0-43-27-79-87-79h-47zm-71-231c0 11-9 20-20 20s-20-9-20-20a20 20 0 0 1 20-20c11 0 20 9 20 20z"
     fill="#fff"
     id="path53" />
</svg>
