<svg xmlns="http://www.w3.org/2000/svg" xmlns:xlink="http://www.w3.org/1999/xlink" viewBox="0 0 48 48" version="1.1">
    
    <g id="Page-1" stroke="none" stroke-width="1" fill="none" fill-rule="evenodd">
        <g id="Group-70" fill="#FFFFFF">
            <g id="Group-60">
                <polygon id="Path-2" fill-opacity="0.5" points="6 24 11.5 11.5 24 6 36.5 11.5 42 24 36 24 36 14 31 14 28 17 28 24 20 24 20 17 17 14 12 14 12 24"></polygon>
                <polygon id="Path-2" points="12 14 12 35 17.5 35 24 28 30.5 35 36 35 36 14 31 14 31 29 24 21.5 17 29 17 14"></polygon>
                <path d="M38.5,9.5 L24,3.5 L9.5,9.5 L3.5,24 L9.5,38.5 L24,44.5 L38.5,38.5 L44.5,24 L38.5,9.5 Z M41,41 L24,48 L7,41 L0,24 L7,7 L24,0 L41,7 L48,24 L41,41 Z" id="Shape"></path>
            </g>
            
            
        </g>
    </g>
</svg>