<svg xmlns="http://www.w3.org/2000/svg" xmlns:xlink="http://www.w3.org/1999/xlink" version="1.1" id="Layer_1" x="0px" y="0px" style="enable-background:new 0 0 612 792;" xml:space="preserve" viewBox="257.53 367.08 96.30 56.10">
<style type="text/css">
	.st0{fill:#D63085;}
	.st1{fill:#E13282;}
	.st2{fill:#DB3485;}
	.st3{fill:#EA3A84;}
	.st4{fill:#E63280;}
	.st5{fill:#FDF5F9;}
</style>
<path class="st0" d="M320.99,367.09c10.41,0,20.82,0,31.23,0c1.65,1.51,1.51,3.5,1.51,5.47c0.03,16.44,0.06,32.88,0.1,49.32  c-0.54,1.26-1.63,1.31-2.79,1.3c-10.01-0.05-20.03-0.08-30.04-0.12c0-1.23,0-2.47,0-3.7c8.2,0,16.39,0,24.59,0  c0.07-0.31,0.15-0.62,0.22-0.94c-5.81-5.19-11.61-10.37-17.42-15.56c1.03-0.86,2.06-1.73,3.09-2.59  c6.01,5.12,12.02,10.24,18.4,15.68c0-14.15,0-27.64,0-41.87c-6.46,5.59-12.42,10.76-18.38,15.92c-1.47-0.47-2.05-1.63-2.33-3.02  c5.58-4.96,11.17-9.92,17.53-15.58c-9.29,0-17.49,0-25.7,0C320.99,369.97,320.99,368.53,320.99,367.09z"></path>
<path class="st1" d="M320.99,419.36c0,1.23,0,2.47,0,3.7c-12.96,0.04-25.93,0.08-38.89,0.11c-0.75,0-1.49-0.02-2.05-0.63  c0.27-0.78,0.54-1.56,0.81-2.34c0.37-0.02,0.77,0.04,1.11-0.07c13.45-4.42,23.45-20.97,21.19-34.9c-0.27-1.64-1.13-2.22-2.54-2.69  c-6.15-2.06-11.75-5.11-16.62-9.42c-0.87-0.77-1.74-1.92-3.12-0.73c-0.26-1.02-0.52-2.05-0.78-3.07c0.49-0.75,0.98-1.5,1.47-2.24  c13.14,0,26.27,0,39.41,0c0,1.44,0,2.88,0,4.31c-10.92,0-21.84,0-33.81,0c4.99,4.71,9.96,7.07,15.29,8.63  c2.08,0.61,3.47,1.46,3.29,3.62c-0.34,4.16,2.24,6.43,5.1,8.68c1.54,1.21,2.87,2.67,4.3,4.02c-0.6,1.17-0.85,2.6-2.28,3.18  c-1.23-1-2.26-1.39-3.69,0c-3.34,3.24-7.14,5.96-9.5,10.19c-2.05,3.66-5.35,6.43-9.56,9.62  C301.26,419.18,311.13,418.85,320.99,419.36z"></path>
<path class="st2" d="M331.49,390c-1.69,1.71-4.56,3.31-4.75,5.17c-0.21,2.06,3.39,3.06,4.73,5.1c-1.03,0.86-2.06,1.73-3.09,2.59  c-0.59-0.43-1.3-0.76-1.74-1.31c-2.64-3.36-4.98-3.57-8.02-0.15c-2.65,2.99-4.03-0.53-5.74-1.86c1.43-0.58,1.68-2.01,2.28-3.18  c1.58,0.86,2.72,0.14,3.92-0.9c3.31-2.87,6.71-5.65,10.07-8.47C329.45,388.37,330.02,389.53,331.49,390z"></path>
<path class="st3" d="M280.89,372.41c-4.61,4.6-10.14,7.79-16.3,9.72c-2.97,0.93-3.78,2.58-3.83,5.31  c-0.25,13.99,5.63,24.51,17.9,31.47c0.74,0.42,1.47,0.87,2.21,1.3c-0.27,0.78-0.54,1.56-0.81,2.34  c-15.11-5.05-25.86-25.05-21.59-40.06c0.31-1.08,0.78-1.76,1.84-2.03c7.64-1.89,13.93-6.14,19.81-11.12  C280.37,370.36,280.63,371.38,280.89,372.41z"></path>
<path class="st4" d="M264.89,390.1c-0.35-2.49,0.61-4.72,4.4-5.83c4.16-1.22,7.73-3.85,10.92-6.78c1.37-1.25,2.27-1.35,3.65-0.09  c3.77,3.44,8.06,6.11,12.95,7.67c1.57,0.5,1.99,1.45,2.19,2.92c1.42,10.49-5.72,22.94-15.46,27.11c-1.77,0.76-3.05,0.28-4.46-0.55  C270.07,409.26,265.39,401.4,264.89,390.1z M294.84,391.16c-0.74-0.77-1.4-1.48-2.08-2.16c-0.92-0.91-1.55-0.17-2.15,0.44  c-1.47,1.48-2.93,2.97-4.37,4.48c-5.12,5.35-5.11,5.36-10.55,0.22c-0.09-0.08-0.18-0.17-0.26-0.26c-1-1.17-1.89-1.71-3.24-0.24  c-1.12,1.22-1.47,2.03-0.1,3.3c2.43,2.25,4.8,4.58,7.05,7.01c1.28,1.38,2.14,1.07,3.29-0.1c3.62-3.68,7.31-7.28,10.96-10.92  C293.88,392.4,294.3,391.8,294.84,391.16z"></path>
<path class="st5" d="M294.84,391.16c-0.53,0.64-0.95,1.24-1.46,1.76c-3.65,3.65-7.34,7.25-10.96,10.92  c-1.15,1.17-2.01,1.48-3.29,0.1c-2.25-2.43-4.62-4.76-7.05-7.01c-1.37-1.27-1.02-2.08,0.1-3.3c1.36-1.47,2.25-0.92,3.24,0.24  c0.08,0.09,0.17,0.18,0.26,0.26c5.44,5.14,5.44,5.14,10.55-0.22c1.44-1.51,2.9-3,4.37-4.48c0.6-0.61,1.23-1.35,2.15-0.44  C293.44,389.68,294.09,390.38,294.84,391.16z"></path>
</svg>
