<svg version="1.0" xmlns="http://www.w3.org/2000/svg" width="130px" height="76px" viewBox="0 0 1300 760" preserveAspectRatio="xMidYMid meet">
<g id="layer101" fill="#e02c7f" stroke="none">
 <path d="M235 724 c-78 -46 -109 -76 -157 -148 -53 -82 -78 -169 -78 -270 0 -115 3 -120 64 -139 62 -20 160 -78 216 -130 l42 -37 486 2 487 3 0 375 0 375 -500 3 -501 2 -59 -36z m152 -40 c133 -79 223 -239 223 -398 0 -54 -6 -61 -67 -84 -66 -25 -134 -64 -178 -103 l-34 -30 -53 40 c-56 42 -156 95 -200 106 -22 6 -27 14 -33 54 -8 61 16 177 52 243 50 92 169 196 226 198 10 0 39 -12 64 -26z m787 8 c-5 -5 -67 -59 -139 -122 -71 -63 -138 -120 -147 -128 -16 -13 -21 -11 -53 17 -20 17 -38 31 -42 31 -3 0 -21 -14 -40 -30 -21 -19 -39 -28 -47 -23 -31 18 -108 96 -132 134 -14 23 -46 61 -71 85 l-45 44 363 0 c200 0 359 -4 353 -8z m66 -317 l0 -276 -152 136 c-84 75 -153 141 -153 146 0 10 285 267 298 268 4 1 7 -123 7 -274z m-245 -146 c102 -89 185 -163 185 -165 0 -2 -174 -4 -386 -4 -264 0 -383 3 -379 10 12 20 89 64 160 91 l70 27 3 44 c2 39 9 49 70 105 37 35 73 61 79 58 7 -2 96 -77 198 -166z"/>
 <path d="M254 628 c-89 -60 -147 -159 -160 -275 -10 -83 -3 -97 73 -132 37 -18 86 -47 109 -66 23 -19 45 -35 48 -35 3 0 33 20 66 44 32 24 84 54 115 67 l55 23 0 57 c0 78 -32 174 -77 233 -43 56 -124 116 -158 116 -12 0 -45 -15 -71 -32z m151 -208 c85 -85 89 -91 72 -107 -16 -16 -21 -13 -92 57 l-75 74 -48 -47 c-45 -44 -49 -46 -65 -30 -16 16 -14 21 45 80 34 35 65 63 68 63 3 0 46 -40 95 -90z"/>
 </g>

</svg>
