<svg
   xmlns:dc="http://purl.org/dc/elements/1.1/"
   xmlns:cc="http://creativecommons.org/ns#"
   xmlns:rdf="http://www.w3.org/1999/02/22-rdf-syntax-ns#"
   xmlns:svg="http://www.w3.org/2000/svg"
   xmlns="http://www.w3.org/2000/svg"
   viewBox="0 0 682.66669 224.26666"
   xml:space="preserve"
   id="svg2"
   version="1.1"><metadata
     id="metadata8"><rdf:RDF><cc:Work
         rdf:about=""><dc:format>image/svg+xml</dc:format><dc:type
           rdf:resource="http://purl.org/dc/dcmitype/StillImage" /></cc:Work></rdf:RDF></metadata><defs
     id="defs6" /><g
     transform="matrix(1.3333333,0,0,-1.3333333,0,224.26667)"
     id="g10"><g
       transform="scale(0.1)"
       id="g12"><path
         id="path14"
         style="fill:#489fdd;fill-opacity:1;fill-rule:nonzero;stroke:none"
         d="M 807.004,404 C 772.004,312 670,247 557.004,247 379,247 265,394 265,622 c 0,237.004 115,385 300,385 112.004,0 220,-70 247.004,-162.004 15,-45 20,-107 20,-234.996 0,-101 -7.004,-164 -25,-206 z M 835,1681 V 1131 C 737.996,1213 647.996,1248 525,1248 215,1248 0,996 0,631 0,264 220,4 532.004,4 649,4 752.004,44 834,124 V 32 h 252 v 1650 l -251,-1 v 0" /><path
         id="path16"
         style="fill:#489fdd;fill-opacity:1;fill-rule:nonzero;stroke:none"
         d="m 1948,409 c 0,-70 -10,-97 -45,-127 -45,-40 -122,-68 -187,-68 -122,0 -223,80 -223,178 0,80 53,127 170,155 78,18 142,25 285,40 z m 255,22 V 869.004 C 2203,1011 2188,1066 2126,1131 c -72,78 -205,120 -370,120 -167,0 -335,-40 -497,-122 l 105,-202 c 167,72.004 250,92 365,92 155,0 218,-54.996 220,-189.996 v -38 c -202,-20 -270,-28.008 -350,-42 C 1344,699.004 1224,587 1224,397 1224,172 1419,2 1676,2 c 137,0 245,50 322,147 25,-82 92,-132 205,-147 l 128,195 c -116,47 -128,72 -128,234" /><path
         id="path18"
         style="fill:#489fdd;fill-opacity:1;fill-rule:nonzero;stroke:none"
         d="m 2767,441 c 0,-147 30,-182 155,-182 42,0 90,5 142,15 l 32,-222 c -82,-22 -175,-35 -255,-35 -235,0 -327,97 -327,340 v 650 h -217 v 217 h 217 v 367 l 252,90 v -457 h 314 V 1007 H 2767 V 441" /><path
         id="path20"
         style="fill:#489fdd;fill-opacity:1;fill-rule:nonzero;stroke:none"
         d="m 3638,441 c 0,-147 30,-182 155,-182 42,0 90,5 142,15 l 32,-222 c -82,-22 -175,-35 -255,-35 -235,0 -327,97 -327,340 v 650 h -217 v 217 h 217 v 367 l 252,90 v -457 h 313 v -217 h -313 l 1,-566 v 0" /><path
         id="path22"
         style="fill:#489fdd;fill-opacity:1;fill-rule:nonzero;stroke:none"
         d="m 4545,246 c -185,0 -307,152 -307,380 0,228.004 125,385 310,385 180,0 300,-153 300,-385 0,-227 -123,-380 -303,-380 z m -10,1008 c -332,0 -555,-253 -555,-632 0,-367 235,-622 575,-622 333,0 565,257 565,622 0,374 -237,632 -585,632" /></g></g></svg>