<svg
   viewBox="0 0 208.23666 277.46082"
   version="1.1"
   id="svg5"
   xml:space="preserve"
   xmlns="http://www.w3.org/2000/svg"
   xmlns:svg="http://www.w3.org/2000/svg"><defs
     id="defs2" /><g
     id="layer1"
     transform="translate(-1.3993371,-1.5973152)"><g
       id="g179"
       transform="matrix(2.414067,0,0,2.414067,331.09906,-139.0919)"><path
         style="fill:#ea9d35;stroke-width:0.211667"
         d="m -111.47216,173.06976 c 0.15279,-0.0611 0.33536,-0.0536 0.40569,0.0167 0.0703,0.0703 -0.0547,0.12036 -0.27781,0.11117 -0.24658,-0.0102 -0.29673,-0.0603 -0.12788,-0.12788 z m 13.110104,0.004 c 0.145521,-0.0587 0.383646,-0.0587 0.529166,0 0.145521,0.0587 0.02646,0.10677 -0.264583,0.10677 -0.291042,0 -0.410104,-0.048 -0.264583,-0.10677 z m 1.049051,-0.0715 c 0.127665,-0.17463 0.298554,-0.93663 0.379756,-1.69334 0.0812,-0.75671 0.198869,-1.42346 0.261482,-1.48166 0.06261,-0.0582 0.04867,0.56091 -0.03099,1.37583 -0.09357,0.9573 -0.26826,1.59403 -0.493598,1.79917 -0.310015,0.28222 -0.322978,0.28222 -0.116652,0 z m -15.248345,-0.15875 c -0.0525,-0.0873 -0.0188,-0.53975 0.075,-1.00542 l 0.17055,-0.84667 -0.0346,1.00525 c -0.036,1.04462 -0.0524,1.11044 -0.21098,0.84684 z m 0.43935,-4.70959 c 0.0623,-0.87312 0.1477,-1.62719 0.18975,-1.67569 0.14127,-0.16298 0.0281,1.98636 -0.13835,2.62819 -0.0965,0.37202 -0.11778,-0.0225 -0.0514,-0.9525 z m 15.539614,0.635 c 0,-0.29104 0.04804,-0.4101 0.106762,-0.26458 0.05872,0.14552 0.05872,0.38364 0,0.52917 -0.05872,0.14552 -0.106762,0.0265 -0.106762,-0.26459 z m 0.227353,-1.69333 c 0,-0.40746 0.04356,-0.57415 0.0968,-0.37042 0.05324,0.20373 0.05324,0.53711 0,0.74084 -0.05324,0.20372 -0.0968,0.037 -0.0968,-0.37042 z m -15.447397,-1.5875 c 0.002,-0.46567 0.0457,-0.63124 0.0963,-0.36795 0.0506,0.26329 0.0487,0.64429 -0.004,0.84667 -0.053,0.20237 -0.0944,-0.0131 -0.0921,-0.47872 z m 15.653544,-0.42333 c -0.0036,-0.34925 0.06768,-1.11125 0.158341,-1.69334 l 0.164842,-1.05833 0.0032,1.05833 c 0.0017,0.58209 -0.06947,1.34409 -0.158341,1.69334 l -0.16158,0.635 -0.0065,-0.635 z m -15.446144,-1.37584 c 0,-0.40746 0.0436,-0.57414 0.0968,-0.37041 0.0532,0.20372 0.0532,0.5371 0,0.74083 -0.0532,0.20373 -0.0968,0.037 -0.0968,-0.37042 z m 0.31679,-2.8575 c 0.0634,-0.81491 0.14992,-1.52135 0.19221,-1.56986 0.14141,-0.16219 0.029,1.77319 -0.14036,2.41653 -0.10139,0.38515 -0.12179,0.052 -0.0519,-0.84667 z m 15.86026,-1.69333 c 0.05159,-0.81492 0.178217,-2.00554 0.281392,-2.64583 0.179942,-1.11673 0.183059,-1.10379 0.07651,0.3175 -0.06109,0.81491 -0.18772,2.00554 -0.281391,2.64583 -0.160931,1.10004 -0.165145,1.08255 -0.07651,-0.3175 z m -15.53778,-1.05833 c 0.002,-0.46567 0.0457,-0.63125 0.0963,-0.36795 0.0506,0.26329 0.0487,0.64429 -0.004,0.84666 -0.053,0.20238 -0.0944,-0.0131 -0.0921,-0.47871 z m 0.19955,-1.69334 c 0.004,-0.34925 0.0517,-0.4665 0.10542,-0.26055 0.0537,0.20594 0.0501,0.49169 -0.008,0.635 -0.058,0.1433 -0.10189,-0.0252 -0.0976,-0.37445 z m 0.21043,-2.2225 c -0.005,-0.40746 0.0676,-1.16946 0.16084,-1.69333 l 0.16948,-0.9525 0.0143,0.84666 c 0.008,0.46567 -0.0645,1.22767 -0.16083,1.69334 l -0.17513,0.84667 -0.009,-0.74084 z m 15.774079,-0.635 c 0.06435,-0.75671 0.152003,-1.41552 0.19478,-1.46403 0.141546,-0.16049 0.03082,1.55815 -0.142041,2.20486 -0.106948,0.40011 -0.126458,0.12606 -0.05274,-0.74083 z m 0.20032,-2.37073 c 0.178272,-0.93583 0.283908,-1.01659 0.283908,-0.21704 0,0.36178 -0.09381,0.71577 -0.208479,0.78663 -0.130264,0.0805 -0.158564,-0.13318 -0.07543,-0.56959 z m -15.557669,-0.80427 c 0,-0.29104 0.048,-0.4101 0.10676,-0.26458 0.0587,0.14552 0.0587,0.38364 0,0.52916 -0.0587,0.14553 -0.10676,0.0265 -0.10676,-0.26458 z m 15.890684,-1.48167 c 0,-0.40745 0.04356,-0.57414 0.0968,-0.37041 0.05324,0.20373 0.05324,0.5371 0,0.74083 -0.05324,0.20373 -0.0968,0.037 -0.0968,-0.37042 z m -15.673674,-0.21166 c -0.0114,-0.40746 0.11637,-1.55046 0.28406,-2.54 l 0.30489,-1.79917 -0.13388,1.48167 c -0.0736,0.81491 -0.20146,1.95791 -0.28406,2.54 -0.12257,0.86382 -0.154,0.92217 -0.17101,0.3175 z m 15.988147,-2.43417 c 0.06423,-0.93133 0.15157,-1.73302 0.194096,-1.78153 0.14778,-0.16855 0.05184,1.78662 -0.12897,2.6282 -0.13063,0.60803 -0.148986,0.36939 -0.06513,-0.84667 z m 8.274535,-0.42827 c -0.117016,-0.11702 -0.03136,-0.56453 0.951154,-4.96923 0.298632,-1.33879 0.701768,-3.19617 0.895862,-4.1275 0.194092,-0.93133 0.534143,-2.55058 0.755667,-3.59833 0.221526,-1.04775 0.455289,-2.19075 0.519475,-2.54 0.06419,-0.34925 0.30942,-1.49225 0.544969,-2.54 0.23555,-1.04775 0.503958,-2.33363 0.596462,-2.8575 0.09251,-0.52388 0.513597,-2.52413 0.935758,-4.445 0.42216,-1.92088 0.867467,-3.96875 0.989569,-4.55084 0.21848,-1.04153 0.463889,-2.14113 0.850314,-3.81 0.107825,-0.46566 0.237686,-1.08479 0.288584,-1.37583 0.133456,-0.76312 0.47342,-2.36785 0.964101,-4.55083 0.235511,-1.04775 0.527461,-2.4765 0.648782,-3.175 0.121319,-0.6985 0.307293,-1.60338 0.413273,-2.01084 0.105981,-0.40745 0.248958,-1.0742 0.317724,-1.481663 0.06877,-0.407458 0.211929,-1.074208 0.318142,-1.481667 0.106212,-0.407458 0.440156,-1.931458 0.742099,-3.386667 0.301944,-1.455208 0.730946,-3.503083 0.953338,-4.550833 0.222394,-1.04775 0.596428,-2.809875 0.831187,-3.915833 0.234762,-1.105959 0.467166,-2.248959 0.516457,-2.540001 0.127601,-0.753431 0.369491,-1.851679 1.165496,-5.291666 0.228976,-0.989542 0.463964,-2.084917 0.522192,-2.434167 0.05823,-0.34925 0.213095,-1.11125 0.344149,-1.693333 0.131051,-0.582084 0.319714,-1.492168 0.419248,-2.022409 0.09953,-0.530241 0.291914,-1.376092 0.427514,-1.879669 0.1356,-0.503577 0.334532,-1.403243 0.442076,-1.999258 0.107544,-0.596016 0.282461,-1.464665 0.388707,-1.930331 0.219536,-0.962226 0.804924,-3.756312 0.953442,-4.550834 0.0544,-0.291041 0.269824,-1.267354 0.478716,-2.169583 l 0.379802,-1.640417 h 8.3902 8.390201 l -0.390492,1.677017 c -0.214771,0.922359 -0.446011,1.993921 -0.513865,2.38125 -0.06786,0.387328 -0.257888,1.275733 -0.422298,1.974233 -0.304303,1.292845 -0.794423,3.482846 -1.586925,7.090834 -0.242925,1.105958 -0.527691,2.344208 -0.632813,2.751667 -0.105122,0.407458 -0.296399,1.264708 -0.425059,1.905 -0.128659,0.640291 -0.415893,1.926166 -0.638295,2.8575 -0.222403,0.931333 -0.544735,2.360083 -0.716291,3.175 -0.171558,0.814916 -0.512455,2.338916 -0.757553,3.386666 -0.245097,1.047751 -0.535483,2.333626 -0.645304,2.857501 -0.109819,0.523875 -0.285951,1.3335 -0.391401,1.799166 -0.105452,0.465667 -0.485629,2.180167 -0.844838,3.81 -0.359209,1.629834 -1.085554,4.868334 -1.6141,7.196667 -0.528545,2.32833 -1.109695,4.94771 -1.291442,5.82083 -0.18175,0.87313 -0.517891,2.39713 -0.746982,3.38667 -0.229091,0.98954 -0.500867,2.18017 -0.603945,2.64583 -0.103077,0.46567 -0.387155,1.75155 -0.631283,2.8575 -0.244128,1.10596 -0.636352,2.86809 -0.871614,3.91584 -0.235259,1.04775 -0.512294,2.286 -0.615634,2.75166 -0.10334,0.46567 -0.377429,1.6563 -0.609086,2.64584 -0.231656,0.98954 -0.466534,2.03729 -0.521949,2.32833 -0.131284,0.68951 -0.287443,1.39065 -0.542146,2.43417 -0.113661,0.46566 -0.398153,1.70391 -0.632206,2.75166 -0.234052,1.04775 -0.771946,3.45396 -1.195318,5.34712 -0.423371,1.89316 -0.803878,3.65528 -0.845568,3.91583 -0.04169,0.26055 -0.253585,1.23572 -0.470876,2.16705 l -0.395073,1.69334 -7.833227,0.0555 c -4.308274,0.0305 -7.885359,0.003 -7.949077,-0.0604 z m -7.969695,-2.0059 c 0,-0.29104 0.04804,-0.4101 0.106763,-0.26458 0.05872,0.14552 0.05872,0.38365 0,0.52917 -0.05872,0.14552 -0.106763,0.0265 -0.106763,-0.26459 z m -15.655487,-0.74083 c 0.004,-0.34925 0.0517,-0.4665 0.10542,-0.26055 0.0537,0.20594 0.0501,0.49169 -0.008,0.635 -0.058,0.1433 -0.10189,-0.0252 -0.0976,-0.37445 z m 15.874998,-1.05833 c 0.0043,-0.34925 0.05175,-0.4665 0.105419,-0.26056 0.05367,0.20595 0.05014,0.4917 -0.0079,0.635 -0.05798,0.14331 -0.10189,-0.0252 -0.09758,-0.37444 z m -15.674448,-0.9525 c -0.0324,-1.21195 0.18415,-2.54 0.41424,-2.54 0.0975,0 0.1256,0.13479 0.0624,0.29953 -0.0632,0.16474 -0.19058,0.95056 -0.28304,1.74625 -0.1413,1.21615 -0.17216,1.29492 -0.19358,0.49422 z m 15.864053,-0.89959 c 0.09572,-0.49477 0.185695,-1.3282 0.199957,-1.85208 0.01427,-0.52387 0.07651,-0.82582 0.138333,-0.67099 0.159118,0.39851 -0.147595,3.42266 -0.347131,3.42266 -0.09085,0 -0.08687,-0.40481 0.0088,-0.89959 z m -15.417493,-3.01625 c 0.002,-0.46566 0.0457,-0.63124 0.0963,-0.36794 0.0506,0.26329 0.0487,0.64429 -0.004,0.84666 -0.053,0.20237 -0.0944,-0.0131 -0.0921,-0.47872 z m 15.855044,-0.3175 c 0,-0.29104 0.04804,-0.4101 0.106763,-0.26458 0.05872,0.14552 0.05872,0.38365 0,0.52917 -0.05872,0.14552 -0.106763,0.0265 -0.106763,-0.26459 z m -15.647644,-1.69333 c 0,-0.40746 0.0436,-0.57414 0.0968,-0.37042 0.0532,0.20373 0.0532,0.53711 0,0.74084 -0.0532,0.20373 -0.0968,0.037 -0.0968,-0.37042 z m 15.838089,-0.2293 c 0.0067,-0.39776 0.09605,-1.1042 0.198524,-1.56987 0.143195,-0.65067 0.158837,-0.50368 0.06757,0.635 -0.126387,1.57688 -0.286407,2.13907 -0.266094,0.93487 z m -15.617879,-1.46403 c 0,-0.52388 0.0413,-0.73819 0.0917,-0.47625 0.0504,0.26194 0.0504,0.69056 0,0.9525 -0.0504,0.26194 -0.0917,0.0476 -0.0917,-0.47625 z m 0.20312,-1.69334 c 0,-0.40745 0.0436,-0.57414 0.0968,-0.37041 0.0532,0.20373 0.0532,0.5371 0,0.74083 -0.0532,0.20373 -0.0968,0.037 -0.0968,-0.37042 z m 15.875278,-0.74083 c 4.23e-4,-0.34925 0.07341,-0.92075 0.162283,-1.27 0.223981,-0.88023 0.233923,-0.0139 0.01215,1.05833 -0.147243,0.71187 -0.175014,0.74557 -0.174426,0.21167 z m -15.655068,-1.16417 c 0,-0.52387 0.0413,-0.73818 0.0917,-0.47625 0.0504,0.26194 0.0504,0.69057 0,0.9525 -0.0504,0.26194 -0.0917,0.0476 -0.0917,-0.47625 z m 0.20739,-1.79916 c 0.002,-0.46567 0.0457,-0.63125 0.0963,-0.36795 0.0506,0.26329 0.0487,0.64429 -0.004,0.84667 -0.053,0.20237 -0.0944,-0.0131 -0.0921,-0.47872 z m 15.968202,-1.27 c 0.06495,-0.6985 0.153793,-1.30969 0.197426,-1.3582 0.141666,-0.15749 0.03411,1.34029 -0.143135,1.9932 -0.113352,0.41755 -0.131943,0.20011 -0.05429,-0.635 z m -15.788812,-1.28764 c 0.0116,-0.45597 0.10108,-1.06715 0.19884,-1.3582 0.11445,-0.34074 0.13636,-0.077 0.0615,0.74084 -0.13392,1.46365 -0.29141,1.83708 -0.26037,0.61736 z m 16.106835,-1.6757 c 0.0043,-0.34925 0.05175,-0.4665 0.105419,-0.26055 0.05367,0.20594 0.05014,0.49169 -0.0079,0.635 -0.05798,0.1433 -0.10189,-0.0252 -0.09758,-0.37445 z m -15.692405,-1.60513 c 0.007,-0.51418 0.0941,-1.31587 0.1941,-1.78153 0.13063,-0.60803 0.14899,-0.3694 0.0651,0.84666 -0.12851,1.86341 -0.27839,2.40397 -0.25923,0.93487 z m 15.911914,0.2293 c 0,-0.40746 0.04356,-0.57415 0.0968,-0.37042 0.05324,0.20373 0.05324,0.53711 0,0.74084 -0.05324,0.20373 -0.0968,0.037 -0.0968,-0.37042 z m 0.3076,-2.64583 c 0.06532,-0.81492 0.154653,-1.52136 0.198525,-1.56986 0.147152,-0.1627 0.05736,1.34916 -0.130954,2.20486 -0.143195,0.65068 -0.158837,0.50368 -0.06757,-0.635 z m -15.808374,-1.46918 c 0,-0.40058 0.0732,-0.77357 0.16264,-0.82886 0.0895,-0.0553 0.12708,0.27247 0.0836,0.72834 -0.0976,1.0235 -0.24625,1.08418 -0.24625,0.10052 z m 16.127401,-1.38832 c -0.0051,-0.29104 0.06691,-0.95779 0.16013,-1.48167 l 0.169483,-0.9525 0.0015,0.84667 c 8.47e-4,0.46566 -0.07126,1.13241 -0.16013,1.48166 -0.146429,0.57546 -0.162456,0.58539 -0.170934,0.10584 z m -15.874471,-0.3175 c 0.004,-0.34925 0.0517,-0.4665 0.10542,-0.26056 0.0537,0.20595 0.0501,0.4917 -0.008,0.635 -0.058,0.14331 -0.10189,-0.0252 -0.0976,-0.37444 z m 0.19545,-2.34597 c 0.0138,-0.45597 0.10142,-1.11478 0.19478,-1.46403 0.10694,-0.40011 0.12645,-0.12606 0.0527,0.74083 -0.13114,1.54219 -0.28592,1.9944 -0.24751,0.7232 z m 16.110727,-0.7232 c 0,-0.40746 0.04356,-0.57415 0.0968,-0.37042 0.05324,0.20373 0.05324,0.53711 0,0.74084 -0.05324,0.20373 -0.0968,0.037 -0.0968,-0.37042 z m 0.203825,-1.79917 c 0.0043,-0.34925 0.05175,-0.4665 0.105418,-0.26055 0.05367,0.20594 0.05014,0.49169 -0.0079,0.635 -0.05798,0.1433 -0.10189,-0.0252 -0.09758,-0.37445 z m -15.866882,-1.37583 c 4.2e-4,-0.40746 0.0734,-1.02658 0.16228,-1.37583 0.14722,-0.57854 0.16273,-0.58795 0.17443,-0.10584 0.007,0.29105 -0.066,0.91017 -0.16228,1.37584 l -0.17513,0.84666 6.3e-4,-0.74083 z m 16.188056,-1.27 c 0.06435,-0.75671 0.152002,-1.41552 0.19478,-1.46403 0.141546,-0.16049 0.03082,1.55815 -0.142041,2.20486 -0.106949,0.40011 -0.126458,0.12606 -0.05274,-0.74083 z m -15.789066,-2.34597 c 0.0138,-0.51418 0.1028,-1.22061 0.19784,-1.56986 0.109,-0.40055 0.1292,-0.088 0.0547,0.84666 -0.13405,1.68219 -0.29024,2.12942 -0.25257,0.7232 z m 16.101658,-0.19403 c -0.0048,-0.29104 0.06762,-0.95779 0.160833,-1.48167 0.127093,-0.71426 0.173058,-0.79367 0.183777,-0.3175 0.0079,0.34925 -0.06451,1.016 -0.160831,1.48167 -0.10962,0.52997 -0.178363,0.64873 -0.183779,0.3175 z m -15.662098,-3.4925 c 0.004,-0.34925 0.0517,-0.4665 0.10542,-0.26056 0.0537,0.20595 0.0501,0.4917 -0.008,0.635 -0.058,0.14331 -0.10189,-0.0252 -0.0976,-0.37444 z m 16.144711,-1.05258 c 0.07487,-0.69534 0.188288,-1.31446 0.252037,-1.37583 0.06375,-0.0614 0.05961,0.45076 -0.0092,1.13809 -0.06881,0.68732 -0.182226,1.30644 -0.252038,1.37583 -0.06981,0.0694 -0.06567,-0.44275 0.0092,-1.13809 z m -15.999461,-0.36952 c 0.0974,-0.58778 0.12725,-0.61759 0.1939,-0.1939 0.0433,0.27536 -0.009,0.58792 -0.11515,0.69456 -0.11742,0.11743 -0.14849,-0.08 -0.0787,-0.50066 z m 0.26186,-2.193871 c 0.0138,-0.455966 0.10143,-1.114779 0.19478,-1.464029 0.10695,-0.400103 0.12646,-0.126056 0.0527,0.740834 -0.13115,1.542186 -0.28592,1.994396 -0.24752,0.723195 z m 16.095044,-0.08819 c 0,-0.291042 0.04804,-0.410105 0.106763,-0.264584 0.05872,0.145521 0.05872,0.383646 0,0.529167 -0.05872,0.145521 -0.106763,0.02646 -0.106763,-0.264583 z m 0.235896,-1.693334 c 0,-0.523875 0.04128,-0.738187 0.09173,-0.47625 0.05045,0.261938 0.05045,0.690563 0,0.9525 -0.05045,0.261938 -0.09173,0.04762 -0.09173,-0.47625 z m 0.303469,-2.751667 c 0.06453,-0.873125 0.152552,-1.627187 0.195605,-1.675695 0.145923,-0.164412 0.02926,1.989214 -0.142373,2.628195 -0.104081,0.387492 -0.12483,0.01623 -0.05323,-0.9525 z m -16.186739,0.529167 c 4.3e-4,-0.34925 0.0734,-0.92075 0.16229,-1.27 0.22398,-0.880235 0.23392,-0.01389 0.0122,1.058333 -0.14725,0.711863 -0.17502,0.745562 -0.17443,0.211667 z m 16.460621,-3.187493 c 0,-0.414329 0.07937,-0.704272 0.176375,-0.644319 0.16684,0.103113 0.07925,1.397645 -0.09457,1.397645 -0.04499,0 -0.08181,-0.338997 -0.08181,-0.753326 z m -16.065571,-0.428479 c 0.0116,-0.455966 0.0992,-1.067153 0.19454,-1.358195 0.10774,-0.328731 0.1287,-0.04812 0.0553,0.740834 -0.13675,1.470571 -0.28063,1.826052 -0.24987,0.617361 z m 16.318502,-1.040695 c 0.0043,-0.34925 0.05175,-0.4665 0.105418,-0.260555 0.05367,0.205945 0.05014,0.491695 -0.0079,0.635 -0.05798,0.143305 -0.10189,-0.02519 -0.09758,-0.374445 z m 0.219509,-2.010833 c 0,-0.407458 0.04356,-0.574146 0.0968,-0.370417 0.05324,0.203729 0.05324,0.537104 0,0.740834 -0.05324,0.203729 -0.0968,0.03704 -0.0968,-0.370417 z m -16.086391,-0.740833 c 4.2e-4,-0.34925 0.0734,-0.92075 0.16228,-1.27 0.22398,-0.880235 0.23393,-0.01389 0.0122,1.058333 -0.14724,0.711862 -0.17501,0.745562 -0.17442,0.211667 z m 16.302329,-1.27 c 0.0024,-0.465667 0.0457,-0.631243 0.09632,-0.367949 0.05063,0.263294 0.04871,0.644294 -0.0043,0.846667 -0.05298,0.202372 -0.0944,-0.01306 -0.09205,-0.478718 z M -98.573723,85.84924 c 2.124604,-0.03452 5.601229,-0.03452 7.725834,0 2.124604,0.03453 0.386291,0.06277 -3.862917,0.06277 -4.249209,0 -5.987524,-0.02825 -3.862917,-0.06277 z"
         id="path185" /><path
         style="fill:#606e88;stroke-width:0.211667"
         d="m -130.59057,145.6475 c -0.0646,-0.26344 -0.20162,-0.95523 -0.3044,-1.53732 -0.29914,-1.69425 -1.03054,-5.61311 -1.28388,-6.87916 -0.12813,-0.64029 -0.31779,-1.64042 -0.42146,-2.2225 -0.10368,-0.58209 -0.37958,-2.05846 -0.61311,-3.28084 -1.00668,-5.26921 -1.34269,-7.07571 -1.92915,-10.37166 -0.34179,-1.92088 -0.71779,-3.96875 -0.83556,-4.55084 -0.54705,-2.7037 -0.66942,-3.54084 -0.55946,-3.8274 0.10094,-0.26304 1.19917,-0.30692 7.37662,-0.29469 3.99191,0.008 7.35435,0.0814 7.4721,0.16324 0.11774,0.0819 0.47281,1.67285 0.78903,3.53552 0.60833,3.58329 1.95255,11.34355 2.2732,13.12333 0.10487,0.58209 0.3895,2.20134 0.6325,3.59834 0.243,1.397 0.53291,3.04006 0.64424,3.65125 0.11134,0.61119 0.30244,1.65894 0.42467,2.32833 0.12224,0.6694 0.31653,1.78858 0.43177,2.48708 0.11524,0.6985 0.30408,1.79388 0.41965,2.43417 0.40953,2.26896 1.31616,2.00316 -7.04853,2.06649 l -7.35069,0.0556 z"
         id="path183" /><path
         style="fill:#ce2b3d;stroke-width:0.211667"
         d="m -112.33751,172.84394 c -0.10183,-0.19395 0.0923,-2.31186 0.68407,-7.46125 0.90977,-7.91711 1.29545,-11.37065 1.48922,-13.33501 0.10909,-1.10595 0.30207,-2.77283 0.42883,-3.70416 0.12677,-0.93134 0.31649,-2.55059 0.42161,-3.59834 0.10511,-1.04775 0.29684,-2.80987 0.42605,-3.91583 0.1292,-1.10596 0.27562,-2.43946 0.32536,-2.96333 0.0498,-0.52388 0.13628,-1.3335 0.1923,-1.79917 0.45839,-3.81017 0.96114,-8.28087 1.05923,-9.41917 0.0652,-0.7567 0.15956,-1.61395 0.20968,-1.905 0.0501,-0.29104 0.24481,-1.95511 0.43266,-3.69793 0.18784,-1.74282 0.37915,-3.50495 0.42513,-3.91583 0.046,-0.41089 0.186,-1.74719 0.31118,-2.96957 0.12517,-1.22237 0.31829,-2.93687 0.42914,-3.81 0.11086,-0.87312 0.29492,-2.44475 0.40903,-3.4925 0.57003,-5.23386 1.09447,-9.898456 1.2732,-11.324167 0.10945,-0.873125 0.30995,-2.682875 0.44556,-4.021666 0.1356,-1.338792 0.35464,-3.127215 0.48675,-3.974273 l 0.2402,-1.540108 7.911748,-0.04739 7.911745,-0.04739 -0.135907,1.693333 c -0.136737,1.703663 -0.23242,2.549642 -0.442895,3.915834 -0.115431,0.749245 -1.136498,9.338687 -1.295837,10.900837 -0.04749,0.46567 -0.181523,1.60867 -0.297836,2.54 -0.471788,3.77767 -2.098425,17.41558 -2.549864,21.37833 -0.119361,1.04775 -0.304541,2.57175 -0.411516,3.38667 -0.106972,0.81492 -0.291029,2.33892 -0.409016,3.38667 -0.272967,2.42403 -0.389708,3.40694 -0.653624,5.50333 -0.117247,0.93133 -0.26557,2.31246 -0.329608,3.06917 -0.06404,0.75671 -0.15861,1.50406 -0.210164,1.66078 -0.07647,0.23247 -0.609187,4.59835 -1.0758,8.81672 -0.05151,0.46566 -0.240823,1.98966 -0.4207,3.38667 -0.179874,1.397 -0.406362,3.44487 -0.503307,4.55083 -0.09694,1.10596 -0.22667,2.15371 -0.288284,2.32833 -0.06161,0.17463 -0.216353,1.41288 -0.343872,2.75167 -0.225691,2.36949 -0.32716,3.24311 -0.528563,4.55083 -0.05379,0.34925 -0.15843,1.15888 -0.232539,1.79917 -0.07411,0.64029 -0.176795,1.2356 -0.228192,1.32292 -0.0514,0.0873 -3.463579,0.15875 -7.582629,0.15875 -4.11905,0 -7.52669,-0.0714 -7.57254,-0.15875 z"
         id="path181" /></g></g>
</svg>
