<svg clip-rule="evenodd" fill-rule="evenodd" stroke-linejoin="round" stroke-miterlimit="2" version="1.1" viewBox="-.00028371 -4.5124e-5 500 499.31" xml:space="preserve" xmlns="http://www.w3.org/2000/svg">
    <g transform="matrix(.49908 0 0 .49908 -229.18 -19.825)" fill="#fe0180" fill-rule="nonzero">
        <path d="m1152 481.63c22.81-14.73 30.14-37.84 34.88-62.05 7.44-38.08 6.42-76.5 3.48-114.98-2.48-32.43-7.38-64.48-14.32-96.22-7.04-32.25-16.16-63.9-31.16-93.44-5.6-11.03-12.84-21.34-20.12-31.4-6.44-8.9-15.99-13.84-26.38-17.07-0.89-0.28-1.74-0.64-3.64-1.35 8.96-3.99 17.36-4.82 25.98-3.54 22.41 3.35 40.07 15.34 55.75 30.92 35.18 34.93 54.16 78.43 66.49 125.45 10.72 40.88 13.73 82.38 8.92 124.33-4.45 38.79-15.74 75.34-39.68 106.77-12.14 15.93-26.9 29.28-47.98 32.49-3.99 0.61-8.15 0.09-12.22 0.09z"/>
        <path d="m901.02 350.34c-7.9-13.14-18.13-22.05-30.81-27.1-11.2-4.46-23.06-7.79-34.93-9.97-33.62-6.16-67.58-5.79-101.58-3.61-36.12 2.32-71.82 7.49-107.14 15.25-31.58 6.94-62.46 16.15-91.66 30.29-7.77 3.76-15.32 8.09-22.57 12.78-13.71 8.87-23.81 20.68-27.71 37.07-0.55 0.06-1.09 0.11-1.64 0.17-0.99-5.48-2.73-10.95-2.82-16.44-0.32-19.16 7.2-35.74 18.89-50.36 28.17-35.23 65.64-56.66 107.51-71.38 43.88-15.42 89.06-22.21 135.48-19.76 33.32 1.75 65.64 8.34 95.98 22.9 21.78 10.45 41.27 23.79 54.68 44.49 6.71 10.34 9.85 21.67 8.32 35.67z"/>
        <path d="m824.04 1015c-12.54 5.06-24.03 4.69-35.67 1.3-23.66-6.9-41.61-21.91-56.99-40.37-30.47-36.56-46.89-79.63-57.37-125.38-6.73-29.41-9.09-59.23-7.72-89.29 1.85-40.58 10.52-79.39 31.57-114.76 10.86-18.24 24.59-33.57 43.98-42.96 8.16-3.95 16.96-5.41 26.65-4.18-4.39 3.73-8.59 6.85-12.27 10.51-9.83 9.76-15.34 21.92-19.13 35.08-5.43 18.83-8.14 38.07-8.98 57.57-2.87 66.72 5.45 132.25 22.29 196.71 7.84 30 18.38 59.1 34.96 85.57 9.57 15.25 19.19 24.86 38.68 30.2z"/>
        <path d="m1434.9 677.37c5.2 11.25 4.87 22.72 1.53 34.32-6.82 23.69-21.85 41.67-40.3 57.05-36.28 30.26-79.03 46.63-124.41 57.21-30.55 7.12-61.56 9.39-92.79 7.87-40.25-1.96-78.7-10.92-113.67-31.9-17.89-10.73-32.96-24.36-42.15-43.45-3.93-8.17-5.64-16.97-4.31-24.98 7.19 6.38 14.16 13.78 22.29 19.52 12.91 9.11 28.37 12.13 43.56 14.85 34.49 6.18 69.26 5.77 104.09 3.4 44.14-3 87.61-10 130.34-21.35 30.31-8.05 59.73-18.6 86.49-35.38 14.06-8.8 25.36-20.01 29.33-37.16z"/>
        <path d="m1312.8 194.62c13.8 1.89 23.58 8.14 32 16.79 14.65 15.04 22.11 33.76 27.13 53.7 7.22 28.68 7.49 57.68 3.68 86.81-7.56 57.74-28.82 110.14-62.33 157.59-20.21 28.63-44.51 53.13-75.48 70.16-15.78 8.68-32.17 16.35-50.78 16.32-11.83-0.01-22.83-3.31-32.31-9.8 7.69-1.99 15.9-2.96 23.08-6.2 14.95-6.74 26.66-17.97 37.39-30.21 22.36-25.51 38.99-54.72 54.47-84.62 21.39-41.34 38.16-84.51 50.62-129.38 8.47-30.49 13.6-61.47 13.25-93.11-0.18-16.7-5.26-32.13-17.47-44.43-0.78-0.79-1.49-1.66-3.25-3.62z"/>
        <path d="m1438.8 416c11.05 8.48 16.44 18.76 19.47 30.45 5.26 20.33 2.46 40.28-3.06 60.08-7.95 28.49-22.09 53.81-39.85 77.21-35.19 46.39-79.64 81.35-132.27 105.95-31.75 14.84-65 24.07-100.34 23.5-18.01-0.29-36.04-1.76-52.19-11-10.26-5.88-18.19-14.19-23.2-24.53 7.67 2.09 15.28 5.31 23.12 6.06 16.32 1.56 32.07-2.38 47.45-7.69 32.06-11.06 60.99-28.18 89.26-46.48 39.08-25.29 75.04-54.47 108.11-87.25 22.48-22.28 42.29-46.64 57.68-74.29 8.12-14.59 11.37-30.51 6.86-47.24-0.3-1.09-0.48-2.2-1.04-4.77z"/>
        <path d="m765.55 495.56c-26.81 0.58-44.05 17.41-60.26 35.39-22.93 25.43-39.47 55.14-55.1 85.34-21.39 41.33-38.1 84.51-50.56 129.37-8.47 30.48-13.57 61.47-13.15 93.1 0.22 16.68 5.38 32.11 17.68 44.32 0.59 0.58 1.11 1.24 1.64 1.88 0.09 0.1 0.05 0.31 0.29 2.14-5.92-2.22-11.41-3.59-16.22-6.21-14.26-7.77-23.9-20.01-30.84-34.38-14.34-29.68-18.25-61.35-16.72-93.85 1.78-37.75 10.3-74.11 24.76-108.94 17.46-42.06 40.78-80.44 74.13-112.02 21.3-20.17 45.43-35.83 73.89-44.05 17.91-5.17 34.77-2.6 50.46 7.91z"/>
        <path d="m914.38 735.13c2.06 8.01 2.58 16.47 6.32 23.12 5.73 10.18 12.74 20.03 20.88 28.38 19.91 20.43 43.88 35.6 68.6 49.57 49.03 27.7 100.6 49.22 154.9 64.25 30.5 8.44 61.48 13.56 93.13 13.2 16.88-0.19 32.45-5.36 44.81-17.79 0.68-0.68 1.43-1.29 2.16-1.93l1.53 0.72c-2.02 5.33-3.48 10.97-6.18 15.93-7.52 13.79-19.42 23.14-33.21 30.02-23.98 11.97-49.76 17.13-76.29 17.28-81.08 0.46-152.69-26.75-215.83-76.65-29.3-23.16-52.24-51.7-65.47-87.23-6.46-17.37-7.53-34.66 0.46-51.88 0.63-1.35 1.35-2.67 2.11-3.95 0.68-1.12 1.48-2.16 2.08-3.04z"/>
        <path d="m1005.7 346.41c-2.1-8.2-3.03-16.48-6.31-23.68-6.73-14.75-17.85-26.36-30-36.94-20.33-17.71-43.07-31.8-66.59-44.79-47.24-26.1-96.88-46.27-148.88-60.66-30.16-8.34-60.87-13.3-92.17-12.89-16.87 0.22-32.46 5.35-44.78 17.83-0.58 0.59-1.24 1.1-1.89 1.62-0.1 0.08-0.32 0.01-0.48 0.02-0.63-6.07 3.78-16.59 9.82-24.02 14.56-17.89 34.33-26.96 55.89-32.77 41.61-11.21 83.15-8.21 124.52 1.45 51.53 12.04 98.12 34.56 139.35 67.69 28.99 23.3 52.17 51.33 65.66 86.53 6.73 17.57 8.35 35.21 0.11 52.82-1.27 2.68-2.84 5.21-4.25 7.79z"/>
        <path d="m811.57 403.51c0.06 0.38 0.12 0.77 0.19 1.15-0.32-0.15-0.64-0.31-0.95-0.46 0.25-0.23 0.51-0.46 0.76-0.69z"/>
        <path d="m1098.7 392.67c12.28-24.22 6.97-47.88-1.15-71.17-12.76-36.64-33-69.32-54.93-101.06-18.49-26.76-38.87-51.97-60.85-75.89-22.34-24.31-46.16-47.05-74-65-10.4-6.71-21.84-11.96-33.2-16.98-10.04-4.44-20.79-3.9-31.39-1.45-0.9 0.21-1.83 0.32-3.83 0.67 5.73-7.97 12.57-12.92 20.65-16.14 21.05-8.4 42.34-6.94 63.74-1.39 47.99 12.44 86.31 40.45 120.65 74.85 29.86 29.91 53.37 64.23 70.36 102.89 15.71 35.74 24.37 73 19.53 112.22-2.45 19.88-8.48 38.85-25.07 52.24-3.14 2.51-6.99 4.16-10.51 6.21z"/>
        <path d="m481.25 662.92c-10.7-8.27-16.19-18.36-19.14-30.13-6-23.91-2.11-46.98 6.04-69.58 16.16-44.77 45.02-80.7 79.21-112.86 21.98-20.67 46.52-37.77 73.16-51.78 35.95-18.9 73.83-31.03 114.98-30.74 21.23 0.15 41.4 4.26 59.29 16.25 7.53 5.04 13.24 11.9 17.08 20.89-5.43-1.9-10.26-3.95-15.27-5.28-13.39-3.55-26.67-2.16-39.94 1.21-18.99 4.82-36.97 12.21-54.21 21.34-59.03 31.23-111.37 71.52-158.49 118.63-21.93 21.92-41.71 45.72-56.18 73.41-8.34 15.96-11.77 29.12-6.53 48.64z"/>
        <path d="m1082.4 1018.2c-8.27 10.7-18.37 16.18-30.13 19.14-23.91 6-46.98 2.1-69.58-6.06-44.77-16.17-80.69-45.04-112.84-79.24-20.66-21.98-37.76-46.53-51.76-73.17-18.9-35.96-31.02-73.84-30.72-114.99 0.16-21.23 4.27-41.4 16.26-59.29 5.05-7.53 11.91-13.24 20.89-17.07-1.91 5.43-3.95 10.26-5.28 15.27-3.55 13.39-2.16 26.67 1.2 39.94 4.82 18.99 12.2 36.97 21.33 54.22 31.22 59.04 71.5 111.39 118.59 158.52 21.92 21.93 45.71 41.72 73.4 56.2 15.96 8.32 29.12 11.76 48.64 6.53z"/>
    </g>
</svg>
