<svg xmlns="http://www.w3.org/2000/svg" viewBox="0 0 192.756 192.756">
  <g fill-rule="evenodd" clip-rule="evenodd">
    <path d="M16.316 142.09c-.138 1.512-1.375 5.777-6.741 5.777-5.502 0-6.741-4.266-6.741-7.291 0-4.678 2.063-8.117 7.016-8.117 2.338 0 6.053 1.102 6.465 5.641h-3.852c-.275-.963-.826-2.477-2.614-2.338-2.339 0-3.026 2.338-3.026 4.127 0 1.65 0 4.814 2.889 4.814 2.063 0 2.614-1.926 2.614-2.613h3.99zM28.284 140.164c0 1.787-.55 4.4-3.576 4.4-2.889 0-3.439-2.613-3.439-4.4 0-1.926.551-4.402 3.439-4.402 3.026 0 3.576 2.476 3.576 4.402zm3.852 0c0-5.229-3.439-7.705-7.428-7.705-3.852 0-7.429 2.477-7.429 7.705 0 5.227 3.577 7.703 7.429 7.703 3.989 0 7.428-2.476 7.428-7.703zM47.268 147.453h-3.852v-8.941c0-.963-.138-2.75-2.476-2.75-1.788 0-3.026 1.1-3.026 3.301v8.391h-3.852v-14.58h3.714v2.062c.55-.824 1.65-2.477 4.402-2.477s5.09 1.652 5.09 4.816v10.178zM64.738 131.221H54.284v4.127h9.629v3.439h-9.629v5.09h10.867v3.576H50.294v-19.67h14.444v3.438zM70.516 140.301c0-2.338.825-4.539 3.164-4.539 2.751 0 3.302 2.338 3.302 4.676 0 2.201-.963 4.266-3.302 4.266-2.476-.001-3.164-2.753-3.164-4.403zm10.18-12.518h-3.852v7.016c-.688-.963-1.789-2.34-4.265-2.34-3.164 0-6.053 2.477-6.053 7.566 0 3.99 1.788 7.842 6.19 7.842 1.514 0 3.302-.688 4.127-2.34h.138v1.926h3.714v-19.67h.001zM83.447 132.873h3.852v14.58h-3.852v-14.58zm0-5.365h3.852v3.576h-3.852v-3.576zM98.305 137.275c-.139-.965-.414-1.928-2.614-1.928-2.064 0-2.338.826-2.338 1.514 0 2.201 9.216.551 9.216 5.916 0 4.264-4.127 5.09-6.465 5.09-3.302 0-6.878-1.238-7.016-5.09h3.99c0 1.238.825 2.062 3.164 2.062 1.925 0 2.476-.963 2.476-1.514 0-2.338-9.08-.549-9.08-6.051 0-2.064 1.376-4.816 5.915-4.816 2.889 0 6.19.689 6.465 4.816h-3.713v.001zM114.537 140.164c0 1.787-.551 4.4-3.439 4.4-3.027 0-3.576-2.613-3.576-4.4 0-1.926.549-4.402 3.576-4.402 2.888 0 3.439 2.476 3.439 4.402zm3.988 0c0-5.229-3.576-7.705-7.428-7.705s-7.428 2.477-7.428 7.705c0 5.227 3.576 7.703 7.428 7.703s7.428-2.476 7.428-7.703zM133.52 147.453h-3.713v-8.941c0-.963-.139-2.75-2.613-2.75-1.652 0-2.891 1.1-2.891 3.301v8.391h-3.852v-14.58h3.578v2.062h.137c.412-.824 1.514-2.477 4.402-2.477 2.752 0 4.951 1.652 4.951 4.816v10.178h.001zM140.398 146.904c0 3.301-1.789 4.539-4.127 5.09v-1.377c1.102-.412 2.201-.963 2.338-3.164h-2.338v-3.988h4.127v3.439zM148.928 132.873h3.852v14.58h-3.852v-14.58zm0-5.365h3.852v3.576h-3.852v-3.576zM168.736 147.453h-3.852v-8.941c0-.963 0-2.75-2.477-2.75-1.65 0-3.025 1.1-3.025 3.301v8.391h-3.852v-14.58h3.713v2.062h.139c.412-.824 1.512-2.477 4.264-2.477 2.889 0 5.09 1.652 5.09 4.816v10.178zM184.006 142.09c-.137 1.512-1.238 5.777-6.604 5.777-5.502 0-6.74-4.266-6.74-7.291 0-4.678 2.064-8.117 7.016-8.117 2.201 0 6.053 1.102 6.328 5.641h-3.852c-.137-.963-.688-2.477-2.477-2.338-2.475 0-3.025 2.338-3.025 4.127 0 1.65 0 4.814 2.889 4.814 1.926 0 2.613-1.926 2.613-2.613h3.852zM185.932 143.465h3.99v3.988h-3.99v-3.988zM142.875 101.783h-57.64c-16.92 0-30.814-13.757-30.814-30.814 0-17.058 13.894-30.814 30.814-30.814h57.64v-10.73h-57.64c-22.835 0-41.544 18.571-41.544 41.544s18.709 41.545 41.544 41.545h57.64v-10.731z" fill="#0097d5"/>
    <path d="M62.262 71.106c0 13.069 10.73 23.799 23.936 23.799h56.677v-10.73H86.198c-7.291 0-13.206-5.916-13.206-13.069 0-7.291 5.916-13.206 13.206-13.206h56.677V47.17H86.198c-13.206 0-23.936 10.73-23.936 23.936z" fill="#0097d5"/>
    <path d="M142.875 65.604H85.786c-2.889 0-5.365 2.476-5.365 5.365 0 3.026 2.477 5.365 5.365 5.365h57.089v-10.73z" fill="#0097d5"/>
  </g>
</svg>
