<svg version="1.2" baseProfile="tiny" id="Layer_1" xmlns="http://www.w3.org/2000/svg" viewBox="0 0 609 80">
<g>
	<g>
		<g>
			<path fill-rule="evenodd" fill="#387ED1" d="M66.252,21.469c4.404,5.71,8.056,12.124,10.886,19.04V3.931H46.077     C53.549,7.968,60.394,13.874,66.252,21.469z"/>
		</g>
		<g>
			<path fill-rule="evenodd" fill="#387ED1" d="M21.473,7.828c-5.754,0-11.289,1.23-16.473,3.506v64.735h68.963     C73.429,38.315,50.088,7.828,21.473,7.828"/>
		</g>
	</g>
	<g>
		<path fill="#387ED1" d="M118.349,64.918l38.533-46.65H119.56V8.098h52.25v8.49l-38.533,46.651h38.533v10.169h-53.461V64.918z"/>
		<path fill="#387ED1" d="M186.177,8.098h48.331v10.356H197.56v16.794h32.751v10.357H197.56v17.446h37.413v10.356h-48.796V8.098z"/>
		<path fill="#387ED1" d="M248.689,8.098h29.11c4.105,0,7.744,0.576,10.917,1.726c3.171,1.151,5.814,2.752,7.93,4.805    c1.741,1.805,3.08,3.888,4.013,6.251c0.933,2.364,1.398,4.977,1.398,7.837v0.187c0,2.675-0.388,5.085-1.165,7.231    c-0.779,2.146-1.853,4.044-3.22,5.691c-1.369,1.648-3.001,3.049-4.898,4.198c-1.897,1.152-3.997,2.038-6.297,2.659l17.633,24.725    h-13.529l-16.097-22.765h-0.186h-14.227v22.765h-11.383V8.098z M276.92,40.473c4.115,0,7.393-0.982,9.824-2.951    c2.434-1.968,3.652-4.639,3.652-8.012v-0.187c0-3.56-1.188-6.263-3.559-8.106c-2.369-1.842-5.709-2.764-10.014-2.764h-16.752    v22.019H276.92z"/>
		<path fill="#387ED1" d="M347.309,74.528c-5.039,0-9.641-0.886-13.807-2.658c-4.168-1.772-7.744-4.182-10.73-7.232    c-2.986-3.047-5.318-6.607-6.996-10.682c-1.682-4.073-2.521-8.413-2.521-13.016v-0.187c0-4.603,0.84-8.941,2.521-13.016    c1.678-4.073,4.041-7.651,7.09-10.73c3.045-3.079,6.654-5.52,10.824-7.324c4.166-1.803,8.768-2.706,13.807-2.706    c5.037,0,9.641,0.886,13.809,2.659c4.166,1.772,7.744,4.184,10.73,7.231c2.984,3.048,5.316,6.609,6.996,10.683    c1.682,4.074,2.521,8.413,2.521,13.015v0.187c0,4.604-0.84,8.943-2.521,13.015c-1.68,4.075-4.043,7.651-7.09,10.73    c-3.049,3.078-6.656,5.521-10.824,7.324S352.348,74.528,347.309,74.528z M347.496,63.985c3.221,0,6.178-0.606,8.871-1.819    c2.695-1.214,5.002-2.86,6.922-4.944c1.918-2.084,3.422-4.526,4.506-7.325s1.625-5.785,1.625-8.956v-0.187    c0-3.172-0.541-6.173-1.625-9.004c-1.084-2.83-2.604-5.286-4.553-7.37c-1.951-2.083-4.289-3.747-7.016-4.992    c-2.725-1.244-5.697-1.866-8.918-1.866s-6.178,0.606-8.871,1.819c-2.695,1.213-5.002,2.862-6.922,4.945    c-1.92,2.085-3.422,4.525-4.508,7.324c-1.084,2.799-1.625,5.785-1.625,8.957v0.187c0,3.172,0.541,6.173,1.625,9.002    c1.086,2.833,2.604,5.289,4.555,7.372c1.951,2.085,4.289,3.748,7.014,4.991C341.303,63.363,344.275,63.985,347.496,63.985z"/>
		<path fill="#387ED1" d="M395.451,8.098h24.354c5.1,0,9.779,0.825,14.043,2.473c4.26,1.648,7.928,3.934,11.008,6.857    c3.08,2.924,5.457,6.361,7.139,10.311c1.68,3.95,2.52,8.227,2.52,12.829v0.187c0,4.604-0.84,8.896-2.52,12.875    c-1.682,3.98-4.059,7.435-7.139,10.356c-3.08,2.926-6.748,5.226-11.008,6.904c-4.264,1.68-8.943,2.519-14.043,2.519h-24.354V8.098    z M419.711,63.052c3.42,0,6.531-0.545,9.33-1.639s5.18-2.622,7.137-4.589c1.959-1.969,3.482-4.312,4.572-7.03    c1.088-2.717,1.635-5.667,1.635-8.854v-0.187c0-3.186-0.547-6.152-1.635-8.9c-1.09-2.749-2.613-5.106-4.572-7.074    c-1.957-1.969-4.338-3.514-7.137-4.639c-2.799-1.124-5.91-1.687-9.33-1.687h-12.877v44.598H419.711z"/>
		<path fill="#387ED1" d="M468.414,8.098h11.383v27.151h31.352V8.098h11.383v65.311h-11.383V45.885h-31.352v27.523h-11.383V8.098z"/>
		<path fill="#387ED1" d="M562.463,7.631H573.1l28.736,65.777h-12.129l-6.625-15.768h-30.883l-6.719,15.768h-11.756L562.463,7.631z     M578.885,47.472l-11.291-26.125l-11.197,26.125H578.885z"/>
	</g>
</g>
</svg>
