<svg clip-rule="evenodd" fill-rule="evenodd" stroke-linejoin="round" stroke-miterlimit="2" version="1.1" viewBox="-.0014835 -3.525e-5 500 500" xml:space="preserve" xmlns="http://www.w3.org/2000/svg">
    <g transform="matrix(13.921 0 0 13.921 -583.45 -2.2725)">
        <path d="m65.847 24.104 1.881-0.668c7.574-2.742 10.832-6.981 9.961-12.97-0.175-1.214-0.505-2.355-0.875-3.342-2.117 2.342-10.954 5.028-10.954 5.028h-4e-3v-0.016l-0.671-1.877c-2.748-7.574-6.984-10.835-12.973-9.956-1.206 0.17-2.347 0.5-3.342 0.866 2.349 2.12 5.016 10.964 5.016 10.964l-1.88 0.668c-7.567 2.747-10.832 6.986-9.957 12.975 0.174 1.209 0.504 2.346 0.87 3.339 2.12-2.344 10.961-5.011 10.961-5.011h6e-3l0.669 1.877c2.738 7.574 6.976 10.828 12.966 9.962 1.213-0.179 2.354-0.506 3.342-0.879-2.336-2.116-5.023-10.953-5.023-10.953v-7e-3h7e-3z" fill="#00a95c" fill-rule="nonzero"/>
    </g>
</svg>
