<svg viewBox="0 0 512 512" version="1.1" xmlns="http://www.w3.org/2000/svg" xmlns:xlink="http://www.w3.org/1999/xlink" xml:space="preserve" style="fill-rule:evenodd;clip-rule:evenodd;stroke-linejoin:round;stroke-miterlimit:2;">
    <g transform="matrix(1,0,0,1,-1492.65,-724.244)">
        <g transform="matrix(3.2,0,0,3.2,1492.65,724.244)">
            <path d="M0,31C0,13.879 13.879,0 31,0L129,0C146.121,0 160,13.879 160,31L160,129C160,146.121 146.121,160 129,160L31,160C13.879,160 0,146.121 0,129L0,31ZM110,63.007C109.981,66.317 96.109,69 79,69C61.879,69 48,66.314 48,63L48,79.92C48,83.278 61.879,86 79,86C96.121,86 110,83.278 110,79.92L110,63.007ZM79,91C96.109,91 109.981,88.317 110,85.007L110,102.034C110,105.329 96.121,108 79,108C61.879,108 48,105.329 48,102.034L48,85C48,88.314 61.879,91 79,91ZM110,107C110,110.295 96.121,112.966 79,112.966C61.879,112.966 48,110.295 48,107L48,124.034C48,127.329 61.879,130 79,130C96.121,130 110,127.329 110,124.034L110,107ZM110,48L79,28L48,48L48,59C48,61.761 61.879,64 79,64C96.121,64 110,61.761 110,59L110,48Z" style="fill:rgb(3,27,78);"/>
        </g>
    </g>
</svg>