<!-- Generator: Adobe Illustrator 19.0.0, SVG Export Plug-In . SVG Version: 6.00 Build 0)  -->
<svg version="1.1" id="Layer_1" xmlns="http://www.w3.org/2000/svg" xmlns:xlink="http://www.w3.org/1999/xlink" viewBox="0 0 969.4 680.6" xml:space="preserve">
<style type="text/css">
	.st0{fill:#060606;}
</style>
<g>
	<g id="XMLID_1_">
		<g>
			<path class="st0" d="M775.4,2.1c0,90.1,0,179.5,0,269.8c-48.5-40.8-101.7-55.3-162.3-32.6c-1.2-1.8-2.2-3.3-3.2-4.8
				c-30.4-45.8-71.1-77.3-125.6-88.4c-59.2-12.1-112.2,2.4-159.1,40.1c-19.5,15.7-35.9,34.2-49.3,55.4c-0.5,0.8-1.1,1.6-1.2,1.8
				c-13.3-3.6-25.9-8.1-38.9-10.2c-13-2.1-26.4-1.9-40.2-2.8c0-75.6,0-152.6,0-230.5C388.7,0.7,581.9,1.4,775.4,2.1z"/>
		</g>
		<g>
		</g>
	</g>
	<path class="st0" d="M794,537.1c0-67.5,0-134.3,0-201.3c5.4,0,10.5,0,15.7,0c21.2,0.1,42.3-0.3,63.5,0.4c28.5,1,53.9,10,73.4,32
		c11.2,12.7,17.5,27.8,20.4,44.3c3.5,19.4,3.6,38.8-1.6,57.9c-9.7,35.7-34.7,55.3-69.5,63.4c-9.2,2.1-18.8,2.9-28.2,3.1
		c-22.6,0.4-45.3,0.1-68,0.1C797.8,537.1,796,537.1,794,537.1z M844.8,490.2c10.7,0,21.1,0.9,31.3-0.2c17.6-1.9,30.8-11.2,36.4-28.3
		c2.8-8.7,4.3-18.3,3.9-27.4c-2.3-44-35.8-56.3-71.6-50.8C844.8,418.9,844.8,454.4,844.8,490.2z"/>
	<path class="st0" d="M585,435.2c0.6,56.4-39,102.5-96.7,113.1C432,558.6,369.1,520,355.7,464.8c-9.7-39.6-0.9-76.3,25.8-107.9
		c4-4.7,8.9-8.6,12.9-13.3c12.5-14.5,38.5-9.9,44.2,13c2.5,10.2-1.2,17.2-9.3,23.2c-15.1,11.1-24.3,26.1-28,44.6
		c-8.4,42.6,27.1,83.4,70.5,81.1c53.7-2.9,83.9-60.2,55.5-105.9c-5.5-8.8-12.7-16.6-19.9-24.2c-9-9.6-10.3-21.9-2.3-31.5
		c7.6-9.1,22.3-11.1,32.2-4.2c31.1,21.7,45.9,52.1,47.6,89.5C585.1,431.2,585,433.2,585,435.2z"/>
	<g id="XMLID_2_">
		<g>
			<path class="st0" d="M212.2,412.1c-17.5,0-34.5,0-51.4-0.1c-1.2,0-2.8-1.5-3.4-2.7c-12.9-24-38.9-35.6-65.1-28.2
				c-22.6,6.3-33.2,23.1-37.3,44.9c-2.4,12.8-1.6,25.6,3.4,37.8c7.9,19.4,23.2,29,43.4,31.3c25.5,2.9,43.7-8,56.1-29.9
				c0.7-1.3,2.5-2.9,3.8-2.9c16.3-0.2,32.7-0.1,49,0c0.3,0,0.6,0.3,1.8,0.9c-1.6,5.3-2.7,11.1-5,16.3
				c-13.6,31.4-52.3,69.7-108.1,63.1c-46.8-5.5-79.6-32-92-74.7c-12-41.2,2.8-90.3,35-115.9c19.1-15.1,41.3-21.1,65.2-21.3
				c40-0.2,71.5,16,93.6,49.5C207.3,389.6,211.7,399.8,212.2,412.1z"/>
		</g>
		<g>
		</g>
	</g>
	<path class="st0" d="M604.3,335.2c17.7,0,34.6,0,52.4,0c0,1.9,0,3.8,0,5.7c0,40.5,0,81,0,121.5c0,1.7,0,3.3,0,5
		c0.1,22.3,14.5,33.2,36.1,27.5c9-2.4,14.9-9.5,15.9-19.6c0.4-4.1,0.5-8.3,0.5-12.5c0-40,0-80,0-120c0-2.1,0-4.3,0-6.9
		c17.8,0,35.1,0,53.1,0c0,2.1,0,4.1,0,6.1c0,42.2,0,84.3,0,126.5c0,42.7-27.8,72.1-70.3,74.7c-11.9,0.7-23.6,0.1-35.2-3
		c-30.9-8.4-51.7-34.6-52-66.6c-0.4-39.7-0.3-79.3-0.5-119C604.3,348.3,604.3,342,604.3,335.2z"/>
	<path class="st0" d="M238.1,335.3c18.3,0,36.2,0,54.5,0c0,52.2,0,104.1,0,156.6c19.7,0,39.1,0,58.8,0c0,15.5,0,30.4,0,45.8
		c-37.6,0-75.3,0-113.4,0C238.1,470.4,238.1,403,238.1,335.3z"/>
	<path class="st0" d="M484.2,583.1c-158,0-316,0-474,0c-7.2,0-10.1-1.7-10.2-5.9c-0.1-4.3,2.9-6.1,10-6.1c316.3,0,632.7,0,949,0
		c1,0,2,0,3,0c4.1,0,6.9,1.8,6.8,6.2c-0.1,4.1-2.7,5.8-6.6,5.8c-1.3,0-2.7,0-4,0C800.2,583.1,642.2,583.1,484.2,583.1z"/>
	<path class="st0" d="M446.2,361.6c0-16.7,0-33.3,0-50c0-10.1,5.1-17.1,14.9-19.9c8-2.3,15.9-1.6,23.2,2.4
		c6.8,3.7,10.5,9.3,10.4,17.4c-0.2,32.8-0.2,65.6-0.1,98.4c0,9.8-4,17.2-12.8,21.3c-9.4,4.4-18.8,4.3-27.5-1.9
		c-5.6-4-8.2-9.8-8.2-16.8C446.3,395.6,446.2,378.6,446.2,361.6z"/>
	<path class="st0" d="M145.6,668.4c6.7-15.6,12.9-29.9,19.1-44.2c4.6-10.7,4.6-10.8,16.3-10.7c1.6,0,3.2,0.3,5.1,0.5
		c-0.6,1.1-0.7,1.6-0.9,1.7c-8.4,2.8-8.5,2.9-8.2,11.7c0.5,13.6,1.1,27.3,1.4,40.9c0.1,4.9,1.4,8.1,6.9,8.1c0.9,0,1.7,0.8,2.2,2.3
		c-7.9,0-15.8,0-23.8,0c0-0.7,0-1.2,0.1-1.2c6.8-1.6,6.9-6.5,6.8-12.2c-0.3-12.8-0.1-25.6-0.1-38.4c-0.6-0.1-1.2-0.3-1.9-0.4
		c-0.6,1.1-1.3,2.2-1.8,3.4c-6.5,15.3-13,30.6-19.6,45.9c-0.7,1.6-2.3,2.8-3.6,4.2c-1-1.3-2.4-2.5-3.1-4
		c-6.4-14.1-12.7-28.2-19.1-42.3c-0.6-1.3-1.3-2.6-2.9-3.8c-0.3,5.8-0.6,11.7-0.8,17.5c-0.2,6.7-0.4,13.3-0.6,20
		c-0.2,4.6,0,8.9,6.3,9.1c0.4,0,0.9,0.4,1.2,0.8c0.2,0.2,0.1,0.6,0.2,1.4c-7,0-13.9,0-20.8,0c-0.1-0.3-0.3-0.6-0.4-0.9
		c1-0.5,1.9-1.3,2.9-1.3c4.2-0.3,5.9-2.8,6.1-6.6c0.7-14.5,1.4-28.9,1.8-43.4c0.2-6.7-0.7-7.3-10-12.1c1.7-0.3,3.4-0.5,5.1-0.8
		c8.7-1.6,13.1,2,16.3,10.4C131.5,638.5,138.6,652.7,145.6,668.4z"/>
	<path class="st0" d="M892.7,629.9c0,7,0.1,14.1,0,21.1c-0.1,5.5-0.4,11-0.6,16.5c-0.2,4.7,0.3,8.9,6.5,9c0.5,0,0.9,0.7,2.4,2
		c-8.1,0-15,0-23.5,0c2.1-1.2,2.9-2,3.8-2c5-0.3,6.3-3.6,6.5-7.8c0.6-13.1,1.3-26.3,1.7-39.4c0.3-9.7-0.7-11-10.3-13.9
		c0.8-0.7,1.4-1.6,2.1-1.7c11.9-2,14.5-0.5,19.4,10.6c6.4,14.4,12.9,28.7,19.8,44c1.1-2.3,1.8-3.7,2.5-5.1
		c6.5-15.1,13.1-30.2,19.4-45.4c1.3-3.2,3-4.3,6.3-4.1c4,0.2,8,0.1,12.1,0.1c0.1,0.4,0.1,0.8,0.2,1.3c-0.6,0.4-1.1,1.1-1.7,1.2
		c-6.8,1.5-7.5,2.3-7.2,9.4c0.4,14.1,1.2,28.3,1.4,42.4c0.1,5.4,1.6,8.7,7.6,8.6c0.6,0,1.3,0.7,1.8,2c-7.9,0-15.9,0-23.9,0
		c0-0.5,0-1.1,0.1-1.1c6.6-1.4,6.9-6.1,6.7-11.7c-0.3-13-0.1-25.9-0.1-38.9c-0.6-0.1-1.3-0.2-1.9-0.3c-0.6,1.2-1.3,2.3-1.9,3.5
		c-6.6,15.4-13.1,30.9-19.8,46.3c-0.6,1.4-2.2,2.5-3.4,3.7c-1-1.2-2.2-2.3-2.8-3.7c-6.4-14.1-12.7-28.2-19-42.3
		c-0.7-1.4-1.4-2.8-2.1-4.3C893.9,629.8,893.3,629.8,892.7,629.9z"/>
	<path class="st0" d="M567.1,679c-4.6,0-9.2,0.2-13.8-0.1c-1.2-0.1-2.7-1.6-3.4-2.8c-4-6.9-7.7-14-11.5-21
		c-3.8-6.8-4.1-6.9-12.7-5.7c0,7.5-0.2,15.2,0.2,22.8c0.1,1.4,2.5,2.9,4.1,3.9c1.1,0.7,2.7,0.9,4.1,1.2c-0.1,0.4-0.2,0.8-0.3,1.2
		c-8,0-16,0-24.2,0c0.3-0.8,0.3-1.4,0.5-1.4c7.8-1,7.8-6.6,7.7-12.6c-0.2-12.2-0.1-24.3-0.1-36.5c0-10,0-10-9.2-13.3
		c1.4-0.7,2.3-1.4,3.2-1.4c8.3-0.2,16.6-0.3,24.9-0.4c1.7,0,3.3,0.2,5,0.5c6.7,1.4,12.5,4.1,14.1,11.5c1.6,7.6-1.8,14.8-8.7,19.2
		c-1.2,0.8-2.6,1.5-4.4,2.6c4.9,8.2,9.4,16.6,14.7,24.4c1.5,2.3,5,3.3,7.6,4.9c0.9,0.5,1.8,0.9,2.7,1.4
		C567.4,678,567.3,678.5,567.1,679z M525.6,645.5c3.8-0.2,7.2-0.1,10.3-0.7c8.2-1.8,12.5-9.7,10.3-18.6c-1.6-6.7-9.4-11.2-16.9-9.3
		c-1.5,0.4-3.5,2.7-3.6,4.2C525.4,628.9,525.6,636.7,525.6,645.5z"/>
	<path class="st0" d="M261.5,614.9c0.4-0.6,0.6-1.1,0.8-1.1c10.5-0.1,21-1.1,31.4,0c11.4,1.1,17.3,8.6,16.8,18.6
		c-0.5,10.4-8.5,18.5-19.8,19.7c-4.1,0.4-8.2,0.1-12.7,0.1c0,6.6-0.3,13.1,0.2,19.5c0.1,1.6,2.9,3.3,4.8,4.4
		c1.5,0.9,3.5,0.8,5.3,1.2c-0.1,0.5-0.1,0.9-0.2,1.4c-8.7,0-17.4,0-26.3,0c0.3-0.7,0.4-1.4,0.7-1.5c7.5-3.1,7.5-3.1,7.5-11.5
		c0-12.3,0-24.7,0-37C270,618.6,270,618.6,261.5,614.9z M278,647.7c2,0.3,3.6,0.8,5.2,0.9c6.5,0.4,12.4-1.2,15.6-7.4
		c3.2-6.1,3.5-12.6-0.2-18.5c-3.7-6-10.1-6.6-16.4-5.7c-1.6,0.2-4,2.4-4.1,3.8C277.8,629.6,278,638.6,278,647.7z"/>
	<path class="st0" d="M383.8,677.5c0.7-0.3,1.3-0.8,2-1c7.3-1.9,7.7-2.2,7.7-9.7c0-12.7,0-25.3,0-38c0-10.4,0-10.4-8.6-13.8
		c1.9-1.8,35.5-2.7,45.6-1.2c-0.3,4.9-0.6,9.8-0.9,14.7c-0.4,0.2-0.7,0.4-1.1,0.6c-0.7-1-1.7-2-2-3.1c-2.5-7.8-3.9-9-12-9.1
		c-13.1-0.3-13.1-0.3-13.1,12.9c0,4.1,0,8.3,0,12.7c7.8,0,15.2,0,23,0c0,1.7,0,3.4,0,5.2c-7.4,0-14.8,0-22.7,0
		c0,7.9-0.2,15.8,0.2,23.7c0.1,1.3,2.2,3.4,3.4,3.5c5.6,0.2,11.5,0.7,16.8-0.6c2.9-0.7,5-4.8,7.4-7.5c1.1-1.3,1.9-2.9,2.9-4.3
		c0.5,0.2,1,0.4,1.5,0.7c-0.9,5.1-1.8,10.2-2.7,15.5c-15.8,0-31.5,0-47.1,0C384,678.3,383.9,677.9,383.8,677.5z"/>
	<path class="st0" d="M739.7,614.2c8.7,0,17.4,0,26.2,0c-0.3,0.8-0.3,1.3-0.5,1.3c-8.7,2.5-8.7,2.6-8.7,11.6c0,9.7-0.1,19.3,0,29
		c0.1,11,6.5,18,17.2,18.8c11,0.8,19.1-5,20-16.2c0.9-11.8,0.4-23.6,0.4-35.4c0-4.1-2.3-6.4-6.4-6.9c-1.4-0.2-2.8-0.5-4.4-0.8
		c2.6-2.6,21.5-2.9,25.8,0c-12.8-0.2-10.5,8.5-10.6,15.8c-0.1,8.2,0,16.3,0,24.5c-0.1,10-3.9,18.1-13.5,22c-10.1,4.1-20.3,4-29.3-3
		c-5.1-3.9-7-9.6-7-15.9c0-10.5,0-21,0-31.5c0-9.7,0-9.7-9-12C739.7,615.1,739.7,614.6,739.7,614.2z"/>
	<path class="st0" d="M4.9,614c8.2,0,16.5,0,24.9,0c-0.2,0.8-0.3,1.3-0.4,1.4c-7.9,2.7-8,2.7-8,11.6c0,13.5,0.1,27-0.1,40.4
		c-0.1,5.1,0.5,9,6.9,9c0.6,0,1.1,0.8,2.7,2.1c-9.3,0-17.5,0-25.7,0c-0.3-0.5-0.7-0.9-1-1.4c0.7-0.2,1.3-0.4,2-0.5
		c7.1-0.4,7.3-5.4,7.3-10.7c0-12.6,0.2-25.3-0.1-37.9C13.2,617.7,15.3,618.3,4.9,614z"/>
	<path class="st0" d="M665.8,678.6c-9.4,0-17.5,0-26.6,0c1.2-1.1,1.6-1.8,2-1.9c6.6-0.5,7.3-5,7.2-10.3c-0.1-12.8,0-25.6,0-38.4
		c0-9.9,0-9.9-8.5-12.9c2.2-2.2,20.6-2.6,24.6-0.6c0,0.2,0,0.5-0.1,0.5c-8.9,1.4-8.3,8-8.2,14.5c0.2,12.6,0.2,25.3,0,37.9
		c-0.1,5.1,0.5,9,6.9,9C663.8,676.5,664.3,677.4,665.8,678.6z"/>
</g>
</svg>
