<svg xmlns="http://www.w3.org/2000/svg" xmlns:xlink="http://www.w3.org/1999/xlink" viewBox="0 0 3630 1828" version="1.1">
<g id="surface1">
<path style=" stroke:none;fill-rule:nonzero;fill:rgb(0%,0%,0%);fill-opacity:1;" d="M 0 1761.996094 L 0 1695.992188 L 47.398438 1696.507813 L 94.800781 1697.019531 L 99.601563 1700.308594 C 103.144531 1702.738281 104.921875 1704.644531 106.398438 1707.597656 L 108.398438 1711.597656 L 108.398438 1738.03125 C 108.398438 1767.058594 108.605469 1765.710938 103.296875 1771.472656 C 98.898438 1776.242188 90.070313 1778.910156 77.800781 1779.175781 C 77.25 1779.1875 76.800781 1779.6875 76.800781 1780.289063 C 76.800781 1781.492188 80.644531 1785.863281 101.957031 1808.886719 C 109.851563 1817.417969 117.023438 1825.207031 117.894531 1826.199219 L 119.480469 1827.996094 L 83.546875 1827.996094 L 44.398438 1779.207031 L 38 1779.191406 C 34.480469 1779.183594 30.25 1778.957031 28.601563 1778.683594 L 25.601563 1778.1875 L 25.601563 1827.996094 L 0 1827.996094 Z M 78 1754.570313 C 81.433594 1753.601563 82.523438 1749.714844 82.660156 1737.996094 C 82.792969 1726.449219 82.148438 1722.769531 79.765625 1721.414063 C 78.480469 1720.6875 70.863281 1720.335938 51.800781 1720.132813 L 25.601563 1719.851563 L 25.601563 1735.023438 C 25.601563 1753.910156 25.785156 1754.988281 29.089844 1755.484375 C 33.175781 1756.097656 75.386719 1755.308594 78 1754.570313 Z M 171.601563 1827.210938 C 163.285156 1826.582031 160.789063 1825.5 156.199219 1820.519531 C 150.003906 1813.800781 149.984375 1813.609375 150.121094 1765.199219 C 150.246094 1721.726563 150.804688 1711.757813 153.394531 1706.488281 C 154.9375 1703.351563 159.632813 1699.738281 164 1698.332031 C 165.808594 1697.746094 182.582031 1697.15625 211.367188 1696.65625 L 255.9375 1695.882813 L 262.414063 1699.253906 C 269.875 1703.136719 272.328125 1705.898438 273.773438 1712.039063 C 275.191406 1718.054688 275.109375 1804.65625 273.679688 1811.339844 C 271.765625 1820.304688 265.460938 1826.054688 256.253906 1827.242188 C 249.976563 1828.050781 182.375 1828.027344 171.601563 1827.210938 Z M 248.234375 1761.402344 C 248.507813 1739.292969 248.453125 1720.929688 248.117188 1720.59375 C 247.777344 1720.257813 231.503906 1720.074219 211.953125 1720.1875 L 176.398438 1720.398438 L 176.132813 1727.199219 C 175.988281 1730.9375 176.121094 1749.207031 176.429688 1767.796875 L 176.988281 1801.597656 L 247.742188 1801.597656 Z M 325.527344 1827.410156 L 321.050781 1827.125 L 320.527344 1810.960938 C 319.855469 1790.152344 319.851563 1713.964844 320.527344 1703.796875 L 321.042969 1695.996094 L 358.722656 1696.046875 C 403.503906 1696.109375 413.367188 1696.617188 418.234375 1699.105469 C 423.25 1701.671875 427.753906 1706.523438 428.871094 1710.554688 C 429.441406 1712.613281 429.859375 1720.269531 429.914063 1729.597656 C 430.019531 1748.371094 429.394531 1750.496094 422.070313 1756.152344 C 419.617188 1758.046875 417.609375 1760.148438 417.605469 1760.824219 C 417.605469 1761.5 418.773438 1762.722656 420.203125 1763.539063 C 427.242188 1767.558594 430.019531 1773.105469 431.1875 1785.472656 C 432.042969 1794.511719 431.046875 1808.105469 429.199219 1812.535156 C 427.269531 1817.167969 422.683594 1821.398438 415.820313 1824.867188 L 409.636719 1827.996094 L 369.820313 1827.847656 C 347.921875 1827.761719 327.988281 1827.566406 325.527344 1827.410156 Z M 400.179688 1802.46875 C 401.542969 1802.1875 403.398438 1800.964844 404.308594 1799.746094 C 405.78125 1797.769531 405.964844 1796.382813 405.980469 1786.890625 C 406.011719 1770.546875 407.234375 1771.136719 372.183594 1770.578125 L 346.367188 1770.167969 L 346.582031 1786.484375 L 346.800781 1802.796875 L 351.199219 1803.300781 C 356.359375 1803.890625 396.566406 1803.207031 400.179688 1802.46875 Z M 400.746094 1748.027344 C 403.210938 1746.707031 404.964844 1742.632813 405.398438 1737.234375 C 405.921875 1730.734375 404.441406 1721.5 402.667969 1720.203125 C 401.628906 1719.441406 394.625 1719.199219 373.828125 1719.199219 L 346.363281 1719.199219 L 346.582031 1733.796875 L 346.800781 1748.398438 L 350 1748.945313 C 355.128906 1749.824219 398.871094 1749.03125 400.746094 1748.027344 Z M 472 1761.996094 L 472 1695.996094 L 523.914063 1695.996094 C 570.515625 1695.996094 575.878906 1696.128906 576.3125 1697.261719 C 576.582031 1697.957031 576.800781 1703 576.800781 1708.464844 L 576.800781 1718.398438 L 547.324219 1718.398438 C 531.113281 1718.398438 513.476563 1718.632813 508.125 1718.921875 L 498.398438 1719.445313 L 498.398438 1747.746094 L 513.398438 1748.269531 C 521.648438 1748.558594 531.730469 1748.792969 535.800781 1748.796875 L 543.199219 1748.796875 L 543.199219 1770.394531 L 523.300781 1770.394531 C 512.355469 1770.394531 502.265625 1770.621094 500.882813 1770.898438 L 498.367188 1771.402344 L 498.582031 1787.097656 L 498.800781 1802.796875 L 537.292969 1802.5 C 569.222656 1802.257813 575.910156 1802.394531 576.496094 1803.300781 C 576.882813 1803.902344 577.324219 1809.707031 577.472656 1816.195313 L 577.746094 1827.996094 L 472 1827.996094 Z M 616 1761.996094 L 616 1695.996094 L 654.601563 1696.039063 C 702.265625 1696.089844 708.605469 1696.492188 715.605469 1699.941406 C 725.449219 1704.785156 725.964844 1706.71875 725.984375 1738.796875 L 726 1763.597656 L 723.78125 1767.371094 C 719.757813 1774.214844 714.507813 1776.945313 702.542969 1778.421875 C 691.671875 1779.765625 691.664063 1779.691406 704.089844 1792.585938 C 709.980469 1798.699219 719.777344 1809.167969 725.859375 1815.847656 L 736.921875 1827.996094 L 700.878906 1827.996094 L 681.667969 1803.714844 L 662.460938 1779.4375 L 653.132813 1778.878906 C 648.007813 1778.570313 643.582031 1778.546875 643.304688 1778.824219 C 643.027344 1779.101563 642.6875 1790.046875 642.546875 1803.148438 L 642.292969 1826.96875 L 635.746094 1827.476563 C 632.144531 1827.757813 626.230469 1827.988281 622.601563 1827.992188 L 616 1828 Z M 690.296875 1754.445313 C 699.21875 1753.410156 699.539063 1752.910156 699.863281 1739.445313 C 700.203125 1725.5 699.847656 1723.59375 696.5625 1721.804688 C 694.308594 1720.574219 690.929688 1720.375 668.601563 1720.132813 L 643.199219 1719.863281 L 643.199219 1737.0625 C 643.199219 1750.074219 643.445313 1754.363281 644.199219 1754.667969 C 645.898438 1755.351563 684.050781 1755.167969 690.296875 1754.445313 Z M 789.90625 1827.445313 C 788.527344 1827.175781 788.121094 1826.34375 787.714844 1822.957031 C 787.4375 1820.667969 787.210938 1796.746094 787.207031 1769.796875 L 787.199219 1720.796875 L 777.324219 1720.796875 C 771.894531 1720.796875 761.996094 1720.5625 755.324219 1720.273438 L 743.199219 1719.746094 L 743.199219 1695.996094 L 860.800781 1695.996094 L 860.800781 1719.746094 L 848.199219 1720.269531 C 841.269531 1720.558594 831.066406 1720.792969 825.527344 1720.792969 L 815.460938 1720.792969 L 814.929688 1751.394531 C 814.640625 1768.226563 814.402344 1792.113281 814.398438 1804.476563 L 814.398438 1826.957031 L 807.800781 1827.472656 C 800.835938 1828.011719 792.742188 1828 789.90625 1827.445313 Z M 900.367188 1827.234375 C 892.296875 1825.992188 885.765625 1820.675781 883.6875 1813.652344 C 882.125 1808.378906 880.425781 1795.726563 881.058594 1794.082031 C 881.761719 1792.246094 903.019531 1786.496094 904.871094 1787.640625 C 905.273438 1787.890625 905.601563 1791.3125 905.601563 1795.246094 L 905.601563 1802.398438 L 971.199219 1802.398438 L 971.199219 1773.597656 L 956.601563 1773.558594 C 934.09375 1773.496094 901.527344 1772.199219 898.292969 1771.238281 C 893.949219 1769.945313 891.425781 1767.578125 888.570313 1762.117188 L 886 1757.199219 L 886 1712.398438 L 888.734375 1707.355469 C 891.820313 1701.664063 894.195313 1699.644531 899.28125 1698.390625 C 903.867188 1697.257813 955.421875 1695.765625 966.78125 1696.4375 C 976.929688 1697.035156 982.183594 1698.6875 986.96875 1702.785156 C 988.753906 1704.3125 990.78125 1706.984375 991.476563 1708.722656 C 993.234375 1713.113281 994.667969 1725.203125 993.65625 1727.09375 C 992.886719 1728.527344 982.164063 1732.566406 974.648438 1734.253906 C 970.527344 1735.179688 970.398438 1734.9375 970.398438 1726.304688 L 970.398438 1719.941406 L 940.199219 1720.480469 C 923.589844 1720.773438 909.859375 1721.136719 909.691406 1721.28125 C 909.523438 1721.429688 909.203125 1726.523438 908.984375 1732.609375 C 908.539063 1745.070313 908.773438 1745.722656 914.234375 1747.105469 C 915.867188 1747.519531 931.960938 1748.179688 950 1748.570313 C 985.253906 1749.335938 985.257813 1749.335938 989.363281 1753.730469 C 990.332031 1754.769531 991.707031 1757.011719 992.417969 1758.714844 C 994.34375 1763.328125 995.445313 1780.097656 994.902344 1796.625 C 994.492188 1809.113281 994.171875 1811.832031 992.710938 1815.230469 C 990.757813 1819.769531 986.921875 1823.46875 981.640625 1825.914063 C 978.121094 1827.542969 976.789063 1827.601563 941.199219 1827.726563 C 920.960938 1827.796875 902.585938 1827.574219 900.367188 1827.234375 Z M 1129.199219 1827.3125 C 1124.589844 1826.707031 1118.671875 1823.503906 1115.738281 1820.023438 C 1112.679688 1816.386719 1109.210938 1802.75 1109.738281 1796.425781 L 1110 1793.257813 L 1116 1791.378906 C 1126.019531 1788.238281 1132.96875 1786.984375 1133.730469 1788.179688 C 1134.089844 1788.738281 1134.378906 1792.167969 1134.390625 1795.796875 L 1134.398438 1802.398438 L 1198.960938 1802.398438 L 1199.480469 1795.796875 C 1199.761719 1792.167969 1199.988281 1785.6875 1200 1781.398438 L 1200 1773.597656 L 1185 1773.550781 C 1176.75 1773.523438 1160.640625 1773.222656 1149.199219 1772.882813 C 1127.070313 1772.21875 1125.601563 1771.949219 1120.929688 1767.703125 C 1115.441406 1762.71875 1113.238281 1751.382813 1113.839844 1731.199219 C 1114.601563 1705.609375 1118.328125 1699.320313 1133.769531 1697.589844 C 1137.421875 1697.183594 1154.671875 1696.746094 1172.101563 1696.625 L 1203.800781 1696.398438 L 1210.070313 1699.597656 C 1219.21875 1704.257813 1222.398438 1710.074219 1222.398438 1722.132813 L 1222.398438 1727.976563 L 1219.398438 1729.238281 C 1214.070313 1731.484375 1200.421875 1735.058594 1199.71875 1734.394531 C 1199.339844 1734.039063 1198.839844 1730.652344 1198.609375 1726.863281 L 1198.179688 1719.980469 L 1168.488281 1720.1875 L 1138.808594 1720.398438 L 1138.589844 1734.199219 L 1138.359375 1748 L 1152.980469 1748.046875 C 1183.378906 1748.144531 1210.621094 1749.300781 1213.75 1750.628906 C 1217.519531 1752.222656 1221.25 1757.355469 1222.339844 1762.476563 C 1223.269531 1766.78125 1223.558594 1808.4375 1222.691406 1812.753906 C 1222 1816.207031 1215.308594 1823.375 1210.601563 1825.699219 L 1206.808594 1827.578125 L 1170 1827.707031 C 1149.761719 1827.777344 1131.398438 1827.597656 1129.199219 1827.3125 Z M 1268 1761.917969 L 1268 1695.835938 L 1313.800781 1696.125 L 1359.601563 1696.417969 L 1365.441406 1699.148438 C 1371.839844 1702.128906 1374.640625 1704.851563 1376.058594 1709.421875 C 1376.621094 1711.238281 1377.140625 1721.675781 1377.378906 1736.238281 C 1377.738281 1757.386719 1377.628906 1760.476563 1376.429688 1763.640625 C 1374.691406 1768.183594 1368.820313 1774.09375 1365 1775.152344 C 1363.390625 1775.597656 1346.898438 1776.207031 1328.359375 1776.507813 L 1294.640625 1777.050781 L 1294.128906 1793.125 C 1293.839844 1801.964844 1293.601563 1813.429688 1293.601563 1818.597656 L 1293.601563 1827.996094 L 1268 1827.996094 Z M 1348.019531 1752.542969 C 1350.210938 1751.503906 1351.269531 1748.785156 1352.011719 1742.289063 C 1352.808594 1735.265625 1352.019531 1726.332031 1350.269531 1722.6875 L 1349.179688 1720.398438 L 1294 1720.398438 L 1293.789063 1737.0625 L 1293.570313 1753.730469 L 1320.179688 1753.425781 C 1334.820313 1753.257813 1347.351563 1752.863281 1348.019531 1752.542969 Z M 1376.96875 1827.128906 C 1377.210938 1826.507813 1384.5 1809.617188 1393.148438 1789.597656 C 1401.800781 1769.578125 1411.609375 1746.898438 1414.929688 1739.199219 C 1418.261719 1731.496094 1423.328125 1719.808594 1426.191406 1713.21875 C 1429.058594 1706.632813 1431.738281 1700.289063 1432.140625 1699.125 C 1432.78125 1697.3125 1433.46875 1696.941406 1437.039063 1696.511719 C 1442.328125 1695.875 1449.640625 1695.875 1454.910156 1696.503906 L 1459.011719 1696.996094 L 1462.039063 1704.695313 C 1463.699219 1708.929688 1468.289063 1719.597656 1472.230469 1728.394531 C 1476.171875 1737.195313 1481.109375 1748.535156 1483.210938 1753.597656 C 1488.660156 1766.742188 1509.179688 1813.703125 1512.519531 1820.664063 C 1514.058594 1823.894531 1515.089844 1826.773438 1514.800781 1827.066406 C 1514.101563 1827.769531 1491.621094 1828.253906 1488.328125 1827.636719 C 1486.03125 1827.203125 1485.519531 1826.574219 1483.601563 1821.773438 C 1482.421875 1818.816406 1479.820313 1812.523438 1477.839844 1807.785156 L 1474.230469 1799.175781 L 1444.519531 1799.386719 L 1414.800781 1799.597656 L 1409.429688 1812.796875 C 1406.480469 1820.054688 1403.960938 1826.265625 1403.828125 1826.59375 C 1403.699219 1826.921875 1397.511719 1827.429688 1390.058594 1827.726563 C 1378.570313 1828.175781 1376.589844 1828.085938 1376.96875 1827.128906 Z M 1461.929688 1774.457031 C 1462.890625 1773.660156 1463.148438 1772.695313 1462.789063 1771.257813 C 1461.890625 1767.648438 1453.558594 1747.105469 1449.390625 1738.199219 C 1444.75 1728.28125 1444.460938 1728.234375 1440.609375 1736.796875 C 1435.609375 1747.910156 1426.308594 1772.160156 1426.558594 1773.445313 C 1426.941406 1775.4375 1430.660156 1775.863281 1446.480469 1775.722656 C 1457.351563 1775.625 1460.871094 1775.335938 1461.929688 1774.457031 Z M 1555.199219 1827.277344 C 1548.769531 1826.269531 1542.738281 1822.0625 1539.769531 1816.496094 L 1538 1813.199219 L 1538 1710.796875 L 1540.160156 1707.121094 C 1542.421875 1703.277344 1546.320313 1699.828125 1550.140625 1698.296875 C 1553.179688 1697.082031 1608.648438 1695.855469 1621.300781 1696.722656 C 1631.53125 1697.425781 1638.070313 1699.507813 1642.191406 1703.375 C 1645.710938 1706.683594 1647.308594 1713.007813 1648 1726.398438 C 1648.351563 1733.21875 1648.410156 1739.015625 1648.121094 1739.277344 C 1646.5 1740.777344 1622.730469 1745.398438 1621.75 1744.410156 C 1621.488281 1744.15625 1621.128906 1738.554688 1620.941406 1731.960938 L 1620.601563 1719.976563 L 1563.601563 1720.398438 L 1563.601563 1801.996094 L 1592.199219 1802.207031 L 1620.800781 1802.417969 L 1620.871094 1799.007813 C 1621.050781 1790.292969 1622.089844 1775.238281 1622.550781 1774.78125 C 1623.121094 1774.214844 1639.859375 1778.515625 1644.839844 1780.507813 C 1648.859375 1782.113281 1649.121094 1783.164063 1648.601563 1795.472656 C 1647.808594 1814.199219 1644.941406 1820.652344 1635.328125 1825.375 L 1630.800781 1827.597656 L 1594.800781 1827.71875 C 1575 1827.785156 1557.179688 1827.585938 1555.199219 1827.277344 Z M 1692 1761.996094 L 1692 1695.996094 L 1796 1695.996094 L 1796 1719.199219 L 1718.398438 1719.199219 L 1718.398438 1747.746094 L 1733.398438 1748.269531 C 1741.648438 1748.558594 1751.730469 1748.792969 1755.800781 1748.796875 L 1763.199219 1748.796875 L 1763.199219 1770.394531 L 1743.300781 1770.394531 C 1732.359375 1770.394531 1722.269531 1770.621094 1720.878906 1770.898438 L 1718.371094 1771.402344 L 1718.578125 1786.628906 L 1718.800781 1801.859375 L 1756.539063 1801.667969 C 1793.789063 1801.480469 1794.308594 1801.5 1795.941406 1803.136719 C 1797.46875 1804.664063 1797.601563 1805.722656 1797.601563 1816.394531 L 1797.601563 1827.996094 L 1692 1827.996094 Z M 1912.320313 1827.449219 C 1910.730469 1827.136719 1910.609375 1826.449219 1910.089844 1815.53125 C 1909.789063 1809.160156 1909.789063 1779.828125 1910.101563 1750.351563 L 1910.660156 1696.757813 L 1923.53125 1696.976563 L 1936.398438 1697.199219 L 1937.019531 1712.398438 C 1937.359375 1720.757813 1937.539063 1749.675781 1937.410156 1776.664063 C 1937.210938 1824.175781 1937.148438 1825.761719 1935.648438 1826.863281 C 1934.480469 1827.714844 1931.601563 1827.96875 1924.050781 1827.886719 C 1918.519531 1827.828125 1913.238281 1827.628906 1912.320313 1827.449219 Z M 1983.199219 1761.910156 L 1983.199219 1695.824219 L 1992.460938 1696.117188 L 2001.71875 1696.414063 L 2005.460938 1700.410156 C 2007.519531 1702.609375 2021.171875 1717.613281 2035.800781 1733.746094 C 2064.28125 1765.15625 2075.339844 1776.796875 2076.679688 1776.796875 C 2078.289063 1776.796875 2078.488281 1771.410156 2078.25 1733.796875 L 2078 1695.996094 L 2103.199219 1695.996094 L 2103.199219 1827.996094 L 2084.21875 1827.996094 L 2073.929688 1816.199219 C 2068.269531 1809.707031 2053.25 1792.988281 2040.570313 1779.042969 C 2027.878906 1765.097656 2016.019531 1751.867188 2014.210938 1749.640625 C 2012.398438 1747.417969 2010.660156 1745.597656 2010.339844 1745.597656 C 2008.71875 1745.597656 2008.410156 1751.554688 2008.171875 1787.683594 L 2007.910156 1826.96875 L 2001.351563 1827.476563 C 1997.75 1827.757813 1992.191406 1827.988281 1989 1827.992188 L 1983.199219 1828 Z M 2153 1827.457031 L 2150.398438 1827.097656 L 2150.398438 1762.433594 C 2150.398438 1701.597656 2150.480469 1697.734375 2151.800781 1697.195313 C 2154.390625 1696.136719 2193.851563 1695.796875 2210.398438 1696.691406 C 2235.878906 1698.066406 2244.550781 1701.109375 2256 1712.710938 C 2263.488281 1720.292969 2267.328125 1726.933594 2270.449219 1737.699219 C 2272.628906 1745.214844 2273.5 1766.835938 2272.039063 1776.898438 C 2269.910156 1791.457031 2263.859375 1804.078125 2254.648438 1813.203125 C 2248.46875 1819.316406 2241.488281 1823.027344 2231.179688 1825.675781 C 2224.800781 1827.316406 2222.359375 1827.429688 2190 1827.617188 C 2171.078125 1827.726563 2154.429688 1827.65625 2153 1827.457031 Z M 2212 1801.527344 C 2225.378906 1800.367188 2233.300781 1796.25 2239.148438 1787.425781 C 2243.539063 1780.804688 2245.199219 1773.859375 2245.128906 1762.398438 C 2245.011719 1740.847656 2239.96875 1729.226563 2228.28125 1723.503906 C 2224.359375 1721.585938 2222.628906 1721.320313 2209.78125 1720.632813 C 2196.410156 1719.914063 2182.621094 1720.210938 2178.601563 1721.296875 L 2176.800781 1721.785156 L 2176.800781 1803.15625 L 2189.800781 1802.742188 C 2196.949219 1802.511719 2206.941406 1801.96875 2212 1801.527344 Z M 2330.359375 1827.214844 C 2321.589844 1826.082031 2315.769531 1820.574219 2313.03125 1810.796875 C 2310.53125 1801.875 2309.53125 1699.75 2311.921875 1697.359375 C 2312.480469 1696.792969 2317.601563 1696.335938 2325.609375 1696.132813 L 2338.398438 1695.804688 L 2338.398438 1802.398438 L 2398.949219 1802.398438 L 2399.46875 1789.070313 C 2399.761719 1781.738281 2400 1757.800781 2400 1735.871094 L 2400 1695.996094 L 2427.339844 1695.996094 L 2426.808594 1745.398438 C 2426.519531 1772.566406 2425.96875 1799.074219 2425.578125 1804.300781 C 2424.628906 1817.089844 2423.21875 1819.96875 2415.628906 1824.597656 L 2410.058594 1827.996094 L 2372.429688 1827.894531 C 2351.730469 1827.835938 2332.800781 1827.53125 2330.359375 1827.214844 Z M 2483.21875 1825.554688 C 2473.53125 1820.214844 2471.808594 1816.914063 2471.359375 1802.785156 L 2471.03125 1792.371094 L 2480.109375 1790.167969 C 2489.710938 1787.84375 2493.199219 1787.496094 2493.988281 1788.78125 C 2494.261719 1789.210938 2494.78125 1792.292969 2495.160156 1795.632813 C 2495.53125 1798.96875 2495.960938 1801.765625 2496.121094 1801.847656 C 2496.269531 1801.929688 2510.800781 1801.816406 2528.398438 1801.597656 L 2560.398438 1801.199219 L 2560.101563 1787.996094 C 2559.941406 1780.738281 2559.660156 1774.636719 2559.480469 1774.441406 C 2559.308594 1774.25 2544.679688 1773.796875 2526.980469 1773.441406 C 2509.28125 1773.085938 2492.820313 1772.433594 2490.398438 1771.992188 C 2485.070313 1771.027344 2480.269531 1767.820313 2478.230469 1763.867188 C 2475.730469 1759.035156 2475.089844 1751.566406 2475.351563 1730.671875 L 2475.601563 1710.796875 L 2478.078125 1706.398438 C 2481.449219 1700.417969 2484.761719 1698.65625 2494.460938 1697.671875 C 2505.488281 1696.554688 2551.199219 1695.894531 2559.679688 1696.730469 C 2571.539063 1697.902344 2578.589844 1702.644531 2581.109375 1711.160156 C 2582.910156 1717.195313 2583.609375 1726.132813 2582.410156 1727.582031 C 2581.558594 1728.617188 2568.390625 1733.269531 2562.289063 1734.691406 C 2559.679688 1735.300781 2559.230469 1734.003906 2559.210938 1725.789063 L 2559.199219 1719.976563 L 2528.601563 1720.1875 L 2498 1720.398438 L 2497.78125 1734.105469 L 2497.558594 1747.8125 L 2535.191406 1748.40625 L 2572.820313 1749 L 2577.109375 1753.644531 C 2583.269531 1760.289063 2583.601563 1762.082031 2583.589844 1788.398438 C 2583.578125 1816.667969 2582.839844 1819.089844 2572.53125 1824.910156 L 2567.058594 1827.996094 L 2527.328125 1827.984375 L 2487.601563 1827.96875 Z M 2652.199219 1827.433594 L 2650.398438 1827.085938 L 2650.398438 1721.046875 L 2638.269531 1720.523438 C 2631.601563 1720.234375 2622.089844 1719.996094 2617.140625 1719.996094 C 2612.179688 1719.996094 2607.558594 1719.777344 2606.871094 1719.511719 C 2605.800781 1719.101563 2605.601563 1717.308594 2605.601563 1707.910156 L 2605.601563 1696.796875 L 2641 1696.796875 C 2660.46875 1696.796875 2686.929688 1696.558594 2699.800781 1696.269531 L 2723.199219 1695.742188 L 2723.199219 1720 L 2678.398438 1720 L 2678.398438 1828 L 2666.199219 1827.890625 C 2659.488281 1827.828125 2653.191406 1827.625 2652.199219 1827.433594 Z M 2748 1761.996094 L 2748 1695.996094 L 2782.601563 1696.023438 C 2801.628906 1696.035156 2822.929688 1696.382813 2829.929688 1696.792969 C 2845.390625 1697.699219 2849.230469 1699.109375 2853.289063 1705.363281 C 2857.808594 1712.339844 2858 1713.667969 2857.96875 1736.796875 C 2857.941406 1760.378906 2857.378906 1763.941406 2852.769531 1770.316406 C 2849.511719 1774.808594 2844.03125 1777.304688 2835.199219 1778.3125 C 2828.039063 1779.128906 2825.601563 1779.757813 2825.601563 1780.796875 C 2825.601563 1781.847656 2830.878906 1787.789063 2847.730469 1805.671875 C 2856.589844 1815.089844 2864.820313 1823.96875 2866 1825.398438 L 2868.140625 1827.996094 L 2832.289063 1827.996094 L 2818.75 1811.015625 C 2791.421875 1776.769531 2793.269531 1778.398438 2781.679688 1778.398438 L 2774.398438 1778.398438 L 2774.398438 1827.996094 L 2748 1827.996094 Z M 2825.808594 1755.152344 C 2830.96875 1753.722656 2831.601563 1751.84375 2831.589844 1738.03125 C 2831.589844 1724.386719 2831.171875 1722.023438 2828.609375 1721.226563 C 2827.609375 1720.917969 2815.011719 1720.46875 2800.601563 1720.226563 L 2774.398438 1719.789063 L 2774.398438 1755.996094 L 2798.601563 1755.988281 C 2812.949219 1755.988281 2824.019531 1755.644531 2825.808594 1755.148438 Z M 2900 1761.996094 L 2900 1695.996094 L 2928 1695.996094 L 2928 1827.996094 L 2900 1827.996094 Z M 2973.601563 1761.996094 L 2973.601563 1695.996094 L 3079.199219 1695.996094 L 3079.199219 1719.199219 L 3042.199219 1719.277344 C 3021.851563 1719.320313 3004.300781 1719.613281 3003.199219 1719.921875 L 3001.199219 1720.488281 L 3001.480469 1734.042969 C 3001.628906 1741.5 3001.808594 1747.65625 3001.878906 1747.730469 C 3001.949219 1747.800781 3011.988281 1748.121094 3024.199219 1748.445313 L 3046.398438 1749.027344 L 3046.398438 1770.398438 L 3026.101563 1770.398438 C 3014.929688 1770.398438 3004.679688 1770.621094 3003.300781 1770.898438 L 3000.800781 1771.398438 L 3000.800781 1779.175781 C 3000.800781 1783.453125 3001.039063 1790.246094 3001.320313 1794.273438 L 3001.839844 1801.597656 L 3036 1801.597656 C 3054.789063 1801.597656 3072.378906 1801.828125 3075.078125 1802.113281 L 3080 1802.625 L 3080 1827.996094 L 2973.601563 1827.996094 Z M 3136.398438 1827.503906 C 3127.558594 1826.335938 3121.859375 1822.71875 3118.699219 1816.261719 C 3116.75 1812.273438 3116.441406 1810.582031 3116.140625 1802.355469 L 3115.808594 1792.992188 L 3120.910156 1791.324219 C 3128.519531 1788.828125 3137.671875 1786.941406 3138.398438 1787.714844 C 3138.75 1788.089844 3139.179688 1791.164063 3139.339844 1794.542969 C 3139.5 1797.925781 3139.800781 1800.867188 3140.019531 1801.082031 C 3140.230469 1801.296875 3154.808594 1801.5625 3172.398438 1801.671875 L 3204.398438 1801.875 L 3204.800781 1788.855469 C 3205.171875 1776.917969 3205.078125 1775.773438 3203.769531 1775.070313 C 3202.980469 1774.648438 3189.121094 1773.964844 3172.96875 1773.546875 C 3132.410156 1772.5 3128.570313 1771.84375 3124 1765.203125 C 3120.230469 1759.71875 3119.878906 1756.765625 3120.148438 1732.78125 C 3120.421875 1708.847656 3120.480469 1708.539063 3125.320313 1703.695313 C 3132.429688 1696.582031 3139.601563 1695.683594 3181.601563 1696.636719 C 3209.171875 1697.261719 3211.890625 1697.449219 3215.199219 1698.941406 C 3223.070313 1702.488281 3226.351563 1708.242188 3228.429688 1722.175781 C 3228.878906 1725.160156 3228.679688 1725.785156 3226.738281 1727.578125 C 3224.761719 1729.421875 3218.140625 1731.996094 3215.410156 1731.996094 C 3214.808594 1731.996094 3212.679688 1732.738281 3210.699219 1733.644531 C 3205.660156 1735.9375 3204.921875 1735.109375 3204.628906 1726.925781 L 3204.398438 1720.398438 L 3173.679688 1720.1875 L 3142.949219 1719.976563 L 3143.46875 1733.320313 C 3143.769531 1740.660156 3144.171875 1746.835938 3144.390625 1747.050781 C 3144.601563 1747.261719 3161.25 1747.753906 3181.390625 1748.140625 L 3218 1748.851563 L 3222.128906 1753.082031 C 3228.191406 1759.292969 3228.410156 1760.480469 3228.320313 1786.398438 C 3228.210938 1816.820313 3227.46875 1819.425781 3217.480469 1824.847656 L 3212.398438 1827.597656 L 3175.601563 1827.707031 C 3155.359375 1827.769531 3137.71875 1827.675781 3136.398438 1827.503906 Z M 997.199219 1590.3125 C 967.960938 1588.3125 949.296875 1583.558594 927.78125 1572.632813 C 887.824219 1552.34375 855.011719 1516.46875 839.121094 1475.699219 C 832.921875 1459.789063 828.65625 1444.121094 816.882813 1393.996094 C 808.867188 1359.882813 797.289063 1311.4375 777.207031 1227.996094 C 762.503906 1166.914063 743.253906 1086.042969 742.019531 1080.199219 C 741.71875 1078.765625 741.007813 1077.597656 740.441406 1077.597656 C 739.324219 1077.597656 718.660156 1086.917969 690.800781 1099.992188 C 674.152344 1107.800781 528.980469 1180.53125 496.445313 1197.359375 L 481.289063 1205.199219 L 471.027344 1245.597656 C 456.625 1302.300781 443.492188 1352.726563 410.238281 1478.996094 L 381.320313 1588.796875 L 224.859375 1588.753906 C 86.523438 1588.71875 1.410156 1588.074219 0.394531 1587.058594 C 0.0625 1586.726563 59.785156 1347.898438 87.179688 1239.996094 C 155.132813 972.378906 191.539063 830.378906 323.464844 318.398438 C 346.082031 230.621094 373.726563 123.210938 384.894531 79.71875 L 405.199219 0.640625 C 751.441406 0.589844 1072.730469 7.441406 1434 2.058594 C 1510.128906 0.671875 1539.28125 4.058594 1567.738281 17.570313 C 1615.390625 40.210938 1643.429688 91.871094 1639.148438 149.171875 C 1637.640625 169.429688 1632.058594 194 1616.800781 247.601563 C 1611.921875 264.761719 1605.390625 288.511719 1602.308594 300.398438 C 1599.21875 312.28125 1590.390625 346.121094 1582.691406 375.601563 C 1574.980469 405.078125 1564.761719 445.289063 1559.960938 464.960938 C 1537.890625 555.359375 1526.761719 590.210938 1507.890625 627.988281 C 1494.148438 655.519531 1479.691406 675.511719 1457.21875 698.058594 C 1437.988281 717.359375 1423.820313 728.609375 1399.058594 744.238281 C 1375.789063 758.929688 1336.25 779.328125 1246.800781 822.789063 C 1171.710938 859.277344 1090.449219 900.640625 1086.519531 904.378906 C 1085.390625 905.457031 1090.820313 929.53125 1123.699219 1069.199219 C 1130.949219 1099.996094 1137.960938 1130.238281 1139.269531 1136.398438 C 1147.558594 1175.402344 1154.96875 1192.933594 1168.289063 1205.003906 C 1176.199219 1212.183594 1188.480469 1217.425781 1201.601563 1219.222656 C 1217.808594 1221.445313 1253.429688 1221.429688 1314.800781 1219.175781 C 1349.351563 1217.90625 1395.988281 1218.921875 1398.058594 1220.988281 C 1398.621094 1221.550781 1357.800781 1379.296875 1317.78125 1531.199219 L 1302.710938 1588.398438 L 1197.148438 1588.910156 C 1139.101563 1589.195313 1084.039063 1589.804688 1074.800781 1590.269531 C 1055.339844 1591.242188 1011.179688 1591.269531 997.199219 1590.3125 Z M 704.601563 689.300781 C 761.25 660.96875 837.121094 622.859375 873.199219 604.601563 C 1003.230469 538.808594 1029.609375 525.699219 1055.601563 513.949219 C 1133.589844 478.691406 1160.941406 460.980469 1177.789063 434.800781 C 1188.230469 418.570313 1192.691406 403.550781 1190.398438 392.308594 C 1189.570313 388.25 1188.859375 387.039063 1185.320313 383.589844 C 1180.761719 379.160156 1172.738281 374.671875 1164.800781 372.121094 C 1155.441406 369.121094 1146.789063 368.449219 1119.199219 368.570313 C 1104.898438 368.628906 1003.640625 368.910156 894.167969 369.179688 L 695.136719 369.671875 L 693.96875 372.230469 C 693.328125 373.640625 689.546875 388.300781 685.574219 404.800781 C 677.351563 438.921875 670.101563 467.578125 646.285156 559.988281 C 623.441406 648.640625 600.515625 740.800781 601.308594 740.800781 C 601.46875 740.800781 647.953125 717.621094 704.601563 689.300781 Z M 2497.328125 1589.902344 C 2496.949219 1589.5 2345.75 1588.984375 2144.929688 1588.699219 C 1951.480469 1588.421875 1784.160156 1587.917969 1773.101563 1587.574219 L 1753 1586.949219 L 1768.03125 1527.273438 C 1791.960938 1432.261719 1823.488281 1312.222656 1846.480469 1228.597656 L 1849.058594 1219.199219 L 2033.53125 1219.214844 C 2134.988281 1219.222656 2232.289063 1219.578125 2249.738281 1220.003906 C 2281.75 1220.785156 2307.671875 1220.210938 2323.230469 1218.382813 C 2350.269531 1215.195313 2374.621094 1196.207031 2383.511719 1171.351563 C 2385.828125 1164.871094 2386 1163.660156 2386 1153.597656 C 2386 1140.816406 2384.878906 1136.296875 2379.839844 1128.757813 C 2375.570313 1122.355469 2366.449219 1113.355469 2357.199219 1106.414063 C 2353.238281 1103.445313 2317.601563 1079.640625 2278 1053.519531 C 2194.378906 998.355469 1959.25 841.714844 1883.601563 790.769531 C 1823.621094 750.378906 1776.429688 718.890625 1751.460938 702.609375 C 1715.941406 679.449219 1699.320313 664.171875 1682.46875 639.199219 C 1663.621094 611.261719 1652.269531 582.058594 1647.589844 549.441406 C 1645.859375 537.371094 1645.261719 516.46875 1646.300781 504.570313 C 1647.441406 491.609375 1648.5 486.398438 1654.800781 462.800781 C 1657.628906 452.238281 1670.191406 402.558594 1682.738281 352.398438 C 1713.601563 228.960938 1733.710938 149.988281 1737.28125 138.191406 C 1747.191406 105.421875 1760.28125 79.921875 1775.769531 63.199219 C 1788.539063 49.398438 1798.199219 41.121094 1812.398438 31.800781 C 1835.300781 16.769531 1862.300781 6.761719 1890.558594 2.820313 C 1913.289063 -0.339844 1939.789063 -0.609375 2009.601563 1.628906 C 2028.28125 2.230469 2082.828125 2.371094 2178.398438 2.050781 C 2534.671875 0.898438 2791.121094 0.699219 2792.75 1.570313 C 2794.921875 2.730469 2794.929688 7.160156 2792.769531 11.910156 C 2776.589844 65.378906 2761.980469 135.480469 2749.078125 182.398438 C 2738.378906 221.21875 2733 241.789063 2726.800781 267.601563 C 2714.300781 319.648438 2708.21875 342.488281 2701.769531 361.601563 L 2698.660156 370.800781 L 2397.53125 371.199219 L 2096.398438 371.601563 L 2088.800781 375.378906 C 2075.828125 381.828125 2068.019531 389.398438 2062.148438 401.199219 C 2055.949219 413.671875 2053.089844 427.53125 2053.839844 441.511719 C 2054.410156 452.089844 2055.988281 458.398438 2060.390625 467.601563 C 2066.550781 480.460938 2074.898438 488.019531 2099.71875 503.230469 C 2115.601563 512.96875 2417.890625 711.429688 2567.601563 810.398438 C 2595.761719 829.019531 2636.261719 855.765625 2657.601563 869.839844 C 2712.929688 906.332031 2721.421875 912.566406 2736.800781 927.976563 C 2764.441406 955.679688 2785.351563 999.292969 2792.101563 1043.3125 C 2793.46875 1052.269531 2793.878906 1058.496094 2793.910156 1071.597656 C 2793.960938 1086.835938 2793.75 1089.5 2791.699219 1100.285156 C 2790.449219 1106.824219 2787.851563 1118.164063 2785.910156 1125.484375 C 2783.980469 1132.808594 2776.980469 1160.398438 2770.359375 1186.796875 C 2740.808594 1304.589844 2711.589844 1419.84375 2708.328125 1431.453125 C 2697.429688 1470.246094 2684.960938 1497.800781 2669.480469 1517.277344 C 2651.320313 1540.140625 2626.351563 1560.3125 2601.199219 1572.449219 C 2582.449219 1581.496094 2565.179688 1586.492188 2544.800781 1588.753906 C 2534.460938 1589.902344 2498.160156 1590.78125 2497.328125 1589.902344 Z M 1362.710938 1587.398438 C 1362.949219 1586.628906 1367.628906 1568.71875 1373.121094 1547.597656 C 1410.460938 1404.003906 1417.25 1378.238281 1431.320313 1326.796875 C 1437.210938 1305.234375 1451.800781 1253.890625 1460.308594 1224.796875 L 1462.058594 1218.796875 L 1482.03125 1218.15625 C 1500.699219 1217.558594 1523.390625 1218.320313 1524.660156 1219.59375 C 1525.421875 1220.351563 1507.03125 1291.914063 1478.511719 1399.199219 C 1458.210938 1475.574219 1444.898438 1526.457031 1436.300781 1560.59375 L 1429.199219 1588.789063 L 1395.75 1588.789063 C 1364.261719 1588.789063 1362.320313 1588.710938 1362.710938 1587.394531 Z M 1492 1587.746094 C 1492 1586.289063 1517.519531 1484.613281 1525.96875 1452.398438 C 1529.789063 1437.878906 1541.320313 1394.136719 1551.601563 1355.199219 C 1566.859375 1297.417969 1576.351563 1261.035156 1586.460938 1221.515625 L 1587.199219 1218.632813 L 1610.601563 1218.097656 C 1630.261719 1217.644531 1650.550781 1218.285156 1651.660156 1219.390625 C 1651.980469 1219.710938 1637.539063 1275.472656 1619.511719 1343.597656 C 1583.789063 1478.527344 1572.390625 1522.253906 1560.730469 1568.996094 L 1555.800781 1588.796875 L 1523.898438 1588.796875 C 1498.078125 1588.796875 1492 1588.597656 1492 1587.746094 Z M 1618.78125 1586.996094 C 1629.089844 1541.960938 1649.75 1461.386719 1688.28125 1315.996094 C 1696.851563 1283.65625 1705.890625 1249.277344 1708.378906 1239.597656 C 1710.859375 1229.917969 1713.230469 1221.1875 1713.628906 1220.199219 L 1714.371094 1218.398438 L 1779.808594 1218.398438 L 1777.808594 1226.996094 C 1772.980469 1247.835938 1754.300781 1321.65625 1743.738281 1361.597656 C 1737.398438 1385.578125 1726.558594 1426.617188 1719.640625 1452.796875 C 1707.210938 1499.859375 1689.550781 1569.414063 1686.789063 1582.199219 L 1685.371094 1588.796875 L 1618.371094 1588.796875 Z M 2865.421875 1588.007813 C 2849.699219 1587.730469 2836.601563 1587.261719 2836.300781 1586.964844 C 2835.75 1586.417969 2840.359375 1568.261719 2890.519531 1373.199219 C 2994.128906 970.222656 3104.660156 545.128906 3231.289063 62.539063 L 3247.53125 0.679688 L 3349.160156 1.179688 C 3422.769531 1.550781 3615.539063 2.378906 3629.800781 2.398438 C 3630.96875 2.398438 3630.351563 6.160156 3627.148438 18.398438 C 3591.441406 154.949219 3502.96875 497.890625 3383.589844 962.398438 C 3347.238281 1103.859375 3308.140625 1255.957031 3296.699219 1300.398438 C 3273.851563 1389.167969 3224.390625 1581.039063 3223.128906 1585.796875 L 3222.339844 1588.796875 L 3058.171875 1588.65625 C 2967.878906 1588.578125 2881.140625 1588.289063 2865.421875 1588.007813 Z M 2770.949219 371.191406 C 2766.640625 370.851563 2762.921875 370.390625 2762.691406 370.148438 C 2762.199219 369.671875 2777.558594 309.53125 2798.789063 228.800781 C 2829.390625 112.429688 2842.601563 61.910156 2850.269531 31.988281 L 2858.171875 1.199219 L 2891.019531 0.988281 L 2923.871094 0.78125 L 2910.308594 54.589844 C 2880.96875 170.988281 2829.078125 369.839844 2827.78125 370.839844 C 2827.089844 371.371094 2777.230469 371.671875 2770.949219 371.191406 Z M 2900.140625 371.171875 C 2896.039063 370.828125 2892.449219 370.308594 2892.148438 370.011719 C 2891.039063 368.898438 2946.859375 149.171875 2979.851563 24.800781 L 2986.109375 1.199219 L 3018.308594 0.988281 C 3048.738281 0.789063 3050.488281 0.859375 3050.089844 2.191406 C 3049.859375 2.960938 3042.609375 31.320313 3033.988281 65.199219 C 2997.789063 207.421875 2955.640625 369.261719 2954.46875 370.5 C 2953.71875 371.300781 2908.339844 371.871094 2900.140625 371.171875 Z M 3026.949219 371.191406 C 3022.640625 370.851563 3018.921875 370.390625 3018.691406 370.160156 C 3017.75 369.210938 3043.859375 264.410156 3073.96875 148.398438 C 3083.898438 110.121094 3096.429688 61.25 3101.808594 39.800781 L 3111.601563 0.800781 L 3145.058594 0.800781 C 3176.539063 0.800781 3178.480469 0.878906 3178.089844 2.199219 C 3177.859375 2.96875 3174.929688 14.941406 3171.578125 28.800781 C 3160.019531 76.679688 3143.929688 140.390625 3123.488281 219.199219 C 3110.601563 268.910156 3083.910156 370.761719 3083.75 370.878906 C 3083.039063 371.390625 3032.988281 371.660156 3026.949219 371.191406 Z M 3026.949219 371.191406 "/>
</g>
</svg>
