<!DOCTYPE svg PUBLIC "-//W3C//DTD SVG 20010904//EN" "http://www.w3.org/TR/2001/REC-SVG-20010904/DTD/svg10.dtd">
<svg version="1.0" xmlns="http://www.w3.org/2000/svg" width="400px" height="400px" viewBox="0 0 4000 4000" preserveAspectRatio="xMidYMid meet">
<g id="layer101" fill="#363944" stroke="none">
 <path d="M0 2000 l0 -2000 2000 0 2000 0 0 2000 0 2000 -2000 0 -2000 0 0 -2000z"/>
 </g>
<g id="layer102" fill="#4aa4dc" stroke="none">
 <path d="M1303 2730 c-125 -3 -196 -9 -204 -16 -30 -31 -10 -84 271 -711 360 -800 344 -767 375 -781 18 -8 102 -12 260 -12 l235 0 29 28 c39 37 641 1377 641 1427 0 63 -6 65 -255 65 -218 0 -225 -1 -249 -22 -13 -13 -56 -95 -96 -183 -39 -88 -124 -278 -188 -422 -64 -145 -119 -263 -122 -263 -3 0 -31 57 -62 128 -31 70 -113 253 -183 407 -70 154 -131 290 -136 302 -11 29 -45 50 -89 54 -19 2 -121 2 -227 -1z"/>
 </g>

</svg>