<svg viewBox="0 0 24 24" version="1.1" xmlns="http://www.w3.org/2000/svg" xmlns:xlink="http://www.w3.org/1999/xlink" xml:space="preserve" xmlns:serif="http://www.serif.com/" style="fill-rule:evenodd;clip-rule:evenodd;stroke-linejoin:round;stroke-miterlimit:2;">
    <g transform="matrix(0.0960006,0,0,0.0960006,-0.287973,-0.288076)">
        <path d="M16.864,168.45C-13.474,85.1 4.199,47.2 87.549,16.864C170.899,-13.472 208.799,4.2 239.135,87.549C269.471,170.898 251.799,208.8 168.449,239.135C85.099,269.47 47.199,251.8 16.864,168.45" style="fill:rgb(51,55,64);fill-rule:nonzero;"/>
    </g>
    <g transform="matrix(0.0959996,0,0,0.0959996,-0.287835,-0.28794)">
        <path d="M89.2,79.858L83.95,79.858C79.45,79.868 74.716,80.748 70.86,83.425C68.854,84.814 67.229,86.685 66.137,88.867C64.923,91.4 64.321,94.182 64.378,96.99L64.378,172.315C64.378,173.741 65.552,174.915 66.978,174.915L77.237,174.915C78.663,174.915 79.837,173.741 79.837,172.315L79.837,119.245L89.196,119.245C90.622,119.245 91.796,118.071 91.796,116.645L91.796,107.855C91.796,106.429 90.622,105.255 89.196,105.255L79.841,105.255L79.841,98.576C79.792,97.462 79.945,96.349 80.293,95.29C80.397,94.984 80.572,94.706 80.803,94.48C81.159,94.194 81.592,94.02 82.047,93.98C82.942,93.869 83.845,93.826 84.747,93.853L89.203,93.853C90.629,93.853 91.803,92.679 91.803,91.253L91.803,82.462C91.803,81.036 90.629,79.862 89.203,79.862M151.195,128.12C151.371,121.507 148.612,115.144 143.665,110.753C138.829,106.536 132.039,104.271 124.054,104.274C115.931,104.274 108.914,106.599 103.791,110.674C98.641,114.678 95.501,120.749 95.209,127.266C95.207,127.307 95.206,127.348 95.206,127.389C95.206,128.815 96.38,129.989 97.806,129.989L108.672,129.989C110.016,129.991 111.151,128.95 111.266,127.611C111.5,125.158 112.782,122.922 114.781,121.482C117.492,119.587 120.749,118.63 124.054,118.757C128.106,118.757 131.019,119.857 132.877,121.472C134.778,123.145 135.827,125.588 135.731,128.118L135.731,128.485C135.739,128.788 135.705,129.091 135.631,129.385L135.531,129.61C135.345,129.803 135.113,129.943 134.856,130.018C133.398,130.492 131.892,130.801 130.366,130.939C128.166,131.231 125.307,131.533 121.745,132.01L121.751,132.01C115.215,132.889 108.54,133.958 103.131,137.01C100.364,138.527 98.045,140.746 96.409,143.444C94.639,146.586 93.757,150.152 93.859,153.757C93.813,157.041 94.475,160.296 95.801,163.301C97.697,167.406 100.946,170.739 105.001,172.739C109.34,174.832 114.113,175.87 118.929,175.768C125.179,175.774 129.919,174.32 133.409,172.097C134.227,171.579 135.004,171 135.734,170.364L135.734,172.311C135.734,173.737 136.908,174.911 138.334,174.911L143.328,174.911L151.193,145.647L151.195,128.12ZM135.732,147.896C135.86,151.34 134.614,154.698 132.269,157.224C129.931,159.582 126.237,161.268 120.391,161.285C116.626,161.291 113.841,160.464 112.176,159.27C111.408,158.742 110.779,158.035 110.343,157.211C109.901,156.32 109.677,155.337 109.689,154.342L109.689,154.275C109.658,153.148 109.948,152.036 110.527,151.069C111.573,149.589 113.055,148.47 114.765,147.869C117.084,146.974 119.506,146.373 121.974,146.081C125.68,145.56 129.493,145.008 132.654,144.381C133.688,144.179 134.716,143.943 135.735,143.675L135.732,147.896Z" style="fill:white;fill-rule:nonzero;"/>
    </g>
    <g transform="matrix(0.0959996,0,0,0.0959996,-0.287835,-0.28794)">
        <path d="M194.737,72.455C194.244,71.813 193.479,71.435 192.67,71.435L179.606,71.435C178.431,71.434 177.394,72.229 177.091,73.365L151.194,169.735L149.917,174.496L148.158,181.035C148.098,181.256 148.068,181.485 148.068,181.714C148.068,183.14 149.241,184.314 150.668,184.314L163.737,184.314C164.911,184.316 165.948,183.521 166.252,182.387L195.185,74.715C195.394,73.933 195.228,73.097 194.737,72.454" style="fill:rgb(162,153,255);fill-rule:nonzero;"/>
    </g>
</svg>
