<svg viewBox="0 0 286 286" xmlns="http://www.w3.org/2000/svg" xmlns:xlink="http://www.w3.org/1999/xlink">
    <g id="Group">
        <linearGradient id="linearGradient1" x1="38.7432" y1="57.6662" x2="256.2322" y2="234.6575" gradientUnits="userSpaceOnUse">
            <stop offset="0.002983" stop-color="#3c83c5" stop-opacity="1"/>
            <stop offset="1" stop-color="#3463ad" stop-opacity="1"/>
        </linearGradient>
        <path id="Path" fill="url(#linearGradient1)" stroke="none" d="M 286.399994 142.800003 C 286.399994 221.776718 222.376724 285.799988 143.399994 285.799988 C 64.423279 285.799988 0.4 221.776718 0.4 142.800003 C 0.4 63.823273 64.423279 -0.200012 143.399994 -0.200012 C 222.376724 -0.200012 286.399994 63.823273 286.399994 142.800003 Z"/>
        <path id="path1" fill="#ffffff" stroke="none" d="M 174.699997 46.799988 L 143.300003 101.100006 L 112 46.799988 L 36.700001 177.199997 L 107.800003 177.199997 L 143.399994 238.800003 L 179 177.199997 L 250 177.199997 L 174.699997 46.799988 Z M 107.800003 162.699997 L 61.800003 162.699997 L 112 75.800003 L 135 115.600006 L 107.800003 162.699997 Z M 143.399994 209.800003 L 120.399994 170 L 174.800003 75.800003 L 197.800003 115.600006 L 143.399994 209.800003 Z M 206.100006 130.100006 L 224.899994 162.699997 L 187.300003 162.699997 L 206.100006 130.100006 Z"/>
    </g>
</svg>
