<?xml version="1.0" encoding="utf-8"?><!-- Uploaded to: SVG Repo, www.svgrepo.com, Generator: SVG Repo Mixer Tools -->
<svg width="800px" height="800px" viewBox="0 0 48 48" fill="none" xmlns="http://www.w3.org/2000/svg">
<circle cx="24" cy="24" r="20" fill="#FF2449"/>
<path d="M15.129 13.1335C14.0821 13.7551 12.0195 16.1245 12 16.746V17.7745C12 19.0783 13.2188 20.2243 14.3253 20.2243C15.6539 20.2243 16.761 19.1231 16.761 17.8162C16.761 19.1231 17.8301 20.2243 19.1589 20.2243C20.4877 20.2243 21.5225 19.1231 21.5225 17.8162C21.5225 19.1231 22.6592 20.2243 23.9879 20.2243H24.0121C25.3409 20.2243 26.4776 19.1231 26.4776 17.8162C26.4776 19.1231 27.5124 20.2243 28.8411 20.2243C30.1699 20.2243 31.239 19.1231 31.239 17.8162C31.239 19.1231 32.3462 20.2243 33.6747 20.2243C34.7812 20.2243 36 19.0785 36 17.7745V16.746C35.9805 16.1244 33.9179 13.7549 32.8713 13.1335C29.6175 13.0193 27.3618 12.9995 23.9999 13C20.6381 13.0003 16.055 13.0528 15.1287 13.1335H15.129ZM21.5057 19.6102C21.3786 19.8317 21.2212 20.0343 21.0381 20.2122C20.5365 20.7026 19.849 21.0067 19.0911 21.0067C18.362 21.0074 17.6611 20.7218 17.1399 20.2119C16.9582 20.0339 16.8201 19.8435 16.6936 19.6219L16.6931 19.6223C16.5666 19.8443 16.3906 20.0345 16.2085 20.2127C15.6873 20.7223 14.9863 21.0076 14.2573 21.007C14.166 21.007 14.0709 20.9818 13.9941 20.9554C13.8872 22.0677 13.8422 23.1306 13.8263 23.9057L13.8261 23.9101C13.8241 24.3037 13.8221 24.6273 13.8202 25.077C13.8407 27.4107 13.589 32.6411 14.8491 33.9262C16.8019 34.3815 20.395 34.5888 23.9998 34.5901H24.0004C27.6051 34.5888 31.1982 34.3815 33.1509 33.9262C34.4111 32.641 34.1594 27.4106 34.18 25.0769C34.1778 24.6273 34.176 24.3037 34.1741 23.91L34.1737 23.9056C34.158 23.1303 34.1129 22.0674 34.006 20.9551C33.9292 20.9815 33.8342 21.0068 33.7428 21.0068C33.0138 21.0074 32.3128 20.7221 31.7916 20.2125C31.6095 20.0343 31.4334 19.8442 31.307 19.6221L31.3064 19.6217C31.1798 19.8433 31.0418 20.0337 30.8601 20.2117C30.339 20.7215 29.6381 21.0071 28.909 21.0063C28.1512 21.0063 27.4636 20.7022 26.962 20.2119C26.7789 20.034 26.6215 19.8313 26.4945 19.6099C26.3688 19.8311 26.2129 20.0337 26.0312 20.2119C25.51 20.7217 24.809 21.0072 24.0799 21.0064C24.0535 21.0064 24.0271 21.0053 24.0007 21.0045H24C23.9736 21.0053 23.9472 21.0064 23.9205 21.0064C23.1914 21.0072 22.4903 20.7218 21.9691 20.212C21.7876 20.0338 21.6316 19.8311 21.506 19.61L21.5057 19.6102ZM19.5019 22.2013L19.5017 22.2022H19.5032C20.2967 22.2038 21.0016 22.2022 21.875 23.1555C22.5625 23.0834 23.2808 23.0474 23.9997 23.0485H24.0003C24.7192 23.0475 25.4375 23.0834 26.1251 23.1555C26.9985 22.2021 27.7034 22.2037 28.4969 22.2022H28.4983L28.4981 22.2013C28.8731 22.2013 30.3728 22.2013 31.4178 25.1362L32.5402 29.1626C33.372 32.158 32.2739 32.2313 30.9042 32.2338C28.8729 32.1583 27.7481 30.6831 27.7481 29.2081C26.6237 29.3924 25.312 29.4846 24.0002 29.4846H23.9996C22.6878 29.4846 21.376 29.3924 20.2517 29.2081C20.2517 30.6831 19.1269 32.1583 17.0957 32.2338C15.7259 32.2313 14.6279 32.1581 15.4597 29.1626L16.5824 25.1363C17.6274 22.2014 19.1271 22.2014 19.5021 22.2014L19.5019 22.2013ZM23.9997 24.5078V24.5084C23.9978 24.5103 21.8613 26.4725 21.4772 27.1703L22.8763 27.1143V28.3344C22.8763 28.3915 23.4377 28.3682 23.9997 28.3422H24.0003C24.5622 28.3682 25.1236 28.3915 25.1236 28.3344V27.1143L26.5227 27.1703C26.1385 26.4725 24.0002 24.5084 24.0002 24.5084V24.5078L23.9999 24.508L23.9997 24.5078Z" fill="white"/>
</svg>