<svg xmlns="http://www.w3.org/2000/svg" viewBox="5 5 313.96 313.96"><rect stroke-linejoin="round" height="313.96" stroke="#d54c4c" stroke-linecap="round" stroke-width="10" fill="#fa5c5c" ry="8.614" width="313.96" y="5" x="5" color="#000"/><g fill="#fff"><path d="M59.159 220.2h22.626v67.062H59.16v-67.063zm11.45-5.451c-3.815 0-6.746-.956-8.791-2.862-2.044-1.908-3.067-4.452-3.067-7.634 0-2.999 1.022-5.544 3.067-7.633 2.045-2.09 4.976-3.135 8.79-3.135 3.818 0 6.748 1.045 8.792 3.135 2.046 2.09 3.068 4.634 3.068 7.632 0 3.18-1.022 5.725-3.067 7.633-2.043 1.907-4.974 2.862-8.79 2.862m44.151 73.865c-6.541 0-11.471-1.749-14.789-5.248-3.317-3.498-4.976-8.382-4.976-14.652v-31.757h-8.994v-16.767h8.995v-16.354h22.627v16.354h14.72v16.767h-14.723v28.488c0 2.09.431 3.567 1.295 4.43s2.203 1.294 4.02 1.294c2.454 0 5.135-1.089 8.042-3.27l5.18 14.857c-2.633 1.818-5.632 3.25-8.996 4.295s-7.498 1.567-12.403 1.567m54.76 0c-10.358 0-18.514-2.952-24.465-8.86-5.954-5.905-8.93-14.493-8.93-25.76 0-8.178 1.682-15.039 5.042-20.58 3.454-5.727 7.772-9.588 12.953-11.588 5.45-2.09 10.494-3.134 15.128-3.134 5.814 0 10.677 1.159 14.583 3.477 3.908 2.316 6.793 4.838 8.656 7.563s3.203 4.862 4.02 6.408l-15.674 10.084c-1.453-2.997-3.044-5.36-4.77-7.087-1.728-1.725-3.818-2.587-6.27-2.587-3.454 0-6.18 1.362-8.179 4.086-2 2.728-2.999 6.86-2.999 12.405 0 5.998 1.181 10.405 3.543 13.222s5.726 4.224 10.086 4.224c3.453 0 6.339-.633 8.657-1.907 2.315-1.27 4.518-2.905 6.608-4.906l7.226 16.902c-2.182 1.818-5.408 3.613-9.677 5.384-4.274 1.771-9.452 2.657-15.54 2.657m32.307-1.35v-91.05h22.762v27.67c1.909-1.364 4.226-2.568 6.95-3.612 2.728-1.045 5.999-1.568 9.816-1.568 7.995 0 13.971 2.272 17.924 6.816s5.93 10.95 5.93 19.218v42.526h-22.762v-39.8c0-3.817-.726-6.611-2.18-8.383s-3.365-2.658-5.727-2.658c-1.998 0-3.861.455-5.588 1.364-1.724.907-3.18 1.861-4.362 2.86v46.617h-22.76z"/><g color="#000"><path d="M210.957 35.565a7.582 7.582 0 00-3.136-.114L107.202 52.043c-4.455.734-8.043 4.926-8.043 9.4v101.002c0 4.473 3.588 7.48 8.043 6.746l.744-.123a7.586 7.586 0 01-.29-2.07V65.993c0-4.472 3.602-8.664 8.075-9.398l99.878-16.377c-.627-2.348-2.359-4.062-4.644-4.653z" fill-opacity=".235"/><path d="M115.726 56.48c-4.472.734-8.074 4.927-8.074 9.399v101.003c0 4.473 3.602 7.482 8.074 6.748l101.003-16.565c4.473-.733 8.073-4.923 8.073-9.395V46.666c0-4.472-3.6-7.484-8.073-6.75L115.726 56.481zm28.548 27.874h.008c4.646-.763 7.95 1.706 9.121 6.048l25.68-4.211c1.169-4.727 4.452-8.276 9.1-9.038 7.38-1.21 15.493 5.037 18.025 13.882l6.052 21.12c2.534 8.845-1.439 17.075-8.82 18.285-6.478 1.062-13.52-3.62-16.858-10.765l-40.709 6.676c-3.336 8.24-10.38 15.232-16.86 16.294-7.382 1.21-11.351-5.717-8.817-15.392l6.051-23.105c2.533-9.677 10.645-18.585 18.026-19.795zm15.966 10.538v8.253l-6.627 1.087 6.308 6.968 6.305 6.97 6.311-9.042 6.308-9.037-6.215 1.019v-8.25l-12.39 2.032z"/></g></g></svg>