<?xml version="1.0" encoding="UTF-8" standalone="no" ?>
<!DOCTYPE svg PUBLIC "-//W3C//DTD SVG 1.1//EN" "http://www.w3.org/Graphics/SVG/1.1/DTD/svg11.dtd">
<svg xmlns="http://www.w3.org/2000/svg" xmlns:xlink="http://www.w3.org/1999/xlink" version="1.1" width="245" height="221" viewBox="0 0 245 221" xml:space="preserve">
<desc>Created with Fabric.js 5.2.4</desc>
<defs>
</defs>
<g transform="matrix(1 0 0 1 122.5 110.5)" id="505198c1-c4f0-4c13-8caa-a3f21c5be6fe"  >
<rect style="stroke: none; stroke-width: 1; stroke-dasharray: none; stroke-linecap: butt; stroke-dashoffset: 0; stroke-linejoin: miter; stroke-miterlimit: 4; fill: rgb(255,255,255); fill-rule: nonzero; opacity: 1; visibility: hidden;" vector-effect="non-scaling-stroke"  x="-122.5" y="-110.5" rx="0" ry="0" width="245" height="221" />
</g>
<g transform="matrix(Infinity NaN NaN Infinity 0 0)" id="e1b50d67-eb32-4ee5-ba82-f545e0840996"  >
</g>
<g transform="matrix(1 0 0 1 122.5 110.5)" id="03020a7a-1877-4d25-b77d-74baa665af93"  >
<path style="stroke: rgb(255,255,255); stroke-width: 0; stroke-dasharray: none; stroke-linecap: butt; stroke-dashoffset: 0; stroke-linejoin: miter; stroke-miterlimit: 4; fill: rgb(255,255,255); fill-rule: nonzero; opacity: 1;" vector-effect="non-scaling-stroke"  transform=" translate(-122.69, -110.37)" d="M 31.99 1.365 C 21.287 7.72 0.2 31.945 0 38.298 L 0 48.814 C 0 62.144 12.46 73.86 23.773 73.86 C 37.357 73.86 48.675 62.602000000000004 48.676 49.239999999999995 C 48.676 62.602 59.606 73.86 73.191 73.86 C 86.777 73.86 97.356 62.602000000000004 97.356 49.239999999999995 C 97.356 62.602 108.978 73.86 122.56299999999999 73.86 L 122.80899999999998 73.86 C 136.39499999999998 73.86 148.017 62.602000000000004 148.017 49.239999999999995 C 148.017 62.602 158.597 73.86 172.18099999999998 73.86 C 185.766 73.86 196.69599999999997 62.602000000000004 196.69599999999997 49.239999999999995 C 196.69599999999997 62.602 208.01599999999996 73.86 221.59899999999996 73.86 C 232.91199999999995 73.86 245.37199999999996 62.146 245.37199999999996 48.814 L 245.37199999999996 38.298 C 245.17199999999997 31.944000000000003 224.08499999999995 7.7180000000000035 213.38399999999996 1.365000000000002 C 180.118 0.197 157.056 -0.005 122.685 0 C 88.315 0.003 41.45700000000001 0.54 31.988 1.365 z M 97.184 67.582 C 95.88509499398518 69.84626973131546 94.27621007715494 71.9179615018364 92.404 73.737 C 87.276 78.75099999999999 80.247 81.859 72.49799999999999 81.859 C 65.04132009643594 81.86599078105242 57.87926583414389 78.94846256091078 52.54999999999999 73.73299999999999 C 50.69199999999999 71.913 49.27999999999999 69.96699999999998 47.98699999999999 67.701 L 47.98099999999999 67.705 C 46.688999999999986 69.975 44.88899999999999 71.92 43.02699999999999 73.742 C 37.695695387187506 78.95362823588465 30.534456609149352 81.86867028910652 23.078999999999986 81.86200000000002 C 22.144999999999985 81.86200000000001 21.172999999999988 81.60400000000001 20.386999999999986 81.334 C 19.294999999999987 92.706 18.833999999999985 103.574 18.670999999999985 111.498 L 18.668999999999986 111.543 C 18.648999999999987 115.56700000000001 18.628999999999987 118.876 18.608999999999988 123.47300000000001 C 18.81899999999999 147.33300000000003 16.245999999999988 200.80700000000002 29.128999999999987 213.94600000000003 C 49.09299999999999 218.60100000000003 85.829 220.72100000000003 122.684 220.73400000000004 L 122.69 220.73400000000004 C 159.54399999999998 220.72100000000003 196.28 218.60100000000003 216.244 213.94600000000003 C 229.127 200.80600000000004 226.554 147.33200000000002 226.764 123.47200000000002 C 226.74200000000002 118.87600000000002 226.72400000000002 115.56700000000002 226.704 111.54200000000003 L 226.70100000000002 111.49700000000003 C 226.53900000000002 103.57100000000003 226.07800000000003 92.70400000000004 224.98600000000002 81.33200000000002 C 224.20000000000002 81.60200000000002 223.229 81.86000000000003 222.294 81.86000000000003 C 214.83854339085065 81.86667028910654 207.6773046128125 78.95162823588467 202.346 73.74000000000002 C 200.484 71.91800000000002 198.684 69.97400000000002 197.391 67.70300000000002 L 197.385 67.69900000000001 C 196.09099999999998 69.96500000000002 194.67999999999998 71.912 192.822 73.73100000000001 C 187.49294028019204 78.9460363755117 180.33123429835373 81.86320994058093 172.875 81.85600000000001 C 165.127 81.85600000000001 158.097 78.74600000000001 152.969 73.733 C 151.09678992284506 71.91396150183641 149.4879050060148 69.84226973131547 148.189 67.578 C 146.90401697133433 69.83977358825501 145.31001047353098 71.91137620522707 143.453 73.733 C 138.12244008366676 78.94748687604623 130.95992233148147 81.86419335317673 123.503 81.857 C 123.233 81.857 122.963 81.845 122.693 81.837 L 122.68599999999999 81.837 C 122.416 81.845 122.14599999999999 81.857 121.87299999999999 81.857 C 114.41621894890152 81.86446052157754 107.2537205809625 78.9481209605365 101.92299999999999 73.734 C 100.06600905470061 71.9123588893206 98.47200477024968 69.84075914886547 97.18699999999998 67.579 z M 76.698 94.07199999999999 L 76.696 94.082 L 76.711 94.082 C 84.824 94.09899999999999 92.031 94.082 100.961 103.82799999999999 C 107.989 103.091 115.333 102.72299999999998 122.68299999999999 102.734 L 122.689 102.734 C 130.039 102.72399999999999 137.38299999999998 103.091 144.41199999999998 103.82799999999999 C 153.34199999999998 94.08099999999999 160.54899999999998 94.09799999999998 168.66199999999998 94.082 L 168.676 94.082 L 168.67399999999998 94.07199999999999 C 172.50699999999998 94.07199999999999 187.83999999999997 94.07199999999999 198.52399999999997 124.079 L 210 165.244 C 218.504 195.868 207.277 196.617 193.273 196.644 C 172.505 195.871 161.006 180.78900000000002 161.006 165.709 C 149.51 167.593 136.099 168.535 122.688 168.536 L 122.682 168.536 C 109.27 168.536 95.85900000000001 167.593 84.364 165.709 C 84.364 180.78900000000002 72.864 195.871 52.097 196.644 C 38.093 196.61700000000002 26.867 195.869 35.371 165.244 L 46.85 124.08 C 57.534 94.073 72.867 94.073 76.7 94.073 z M 122.68299999999999 117.654 L 122.68299999999999 117.66 C 122.663 117.67999999999999 100.82 137.74 96.893 144.875 L 111.197 144.302 L 111.197 156.77599999999998 C 111.197 157.35999999999999 116.937 157.12199999999999 122.683 156.856 L 122.68900000000001 156.856 C 128.433 157.12199999999999 134.174 157.35999999999999 134.174 156.77599999999998 L 134.174 144.302 L 148.478 144.875 C 144.55 137.74 122.68800000000002 117.66 122.68800000000002 117.66 L 122.68800000000002 117.654 L 122.68500000000002 117.65599999999999 z" stroke-linecap="round" />
</g>
<g transform="matrix(NaN NaN NaN NaN 0 0)"  >
<g style=""   >
</g>
</g>
<g transform="matrix(NaN NaN NaN NaN 0 0)"  >
<g style=""   >
</g>
</g>
</svg>