<svg clip-rule="evenodd" stroke-linejoin="round" stroke-miterlimit="2" version="1.1" viewBox="0 0 34 31" xml:space="preserve" xmlns="http://www.w3.org/2000/svg">
    <path d="m31 31h-28c-1.646 0-3-1.354-3-3v-25c-0-1.646 1.354-3 3-3h28c1.646-0 3 1.354 3 3v25c0 1.646-1.354 3-3 3z" fill="#fff"/>
    <path d="m31 31h-28c-1.646 0-3-1.354-3-3v-25c-0-1.646 1.354-3 3-3h28c1.646-0 3 1.354 3 3v25c0 1.646-1.354 3-3 3zm-27-6.5c0 0.823 0.677 1.5 1.5 1.5h5.5v-2h-4.5c-0.274 0-0.5-0.226-0.5-0.5v-3c0-0.274 0.226-0.5 0.5-0.5h4.5v-2h-5.5c-0.823 0-1.5 0.677-1.5 1.5v5zm8-18c0-0.823-0.677-1.5-1.5-1.5h-5c-0.823 0-1.5 0.677-1.5 1.5v5c0 0.823 0.677 1.5 1.5 1.5h3.5v-2h-2.5c-0.274 0-0.5-0.226-0.5-0.5v-3c0-0.274 0.226-0.5 0.5-0.5h3c0.274 0 0.5 0.226 0.5 0.5v6c0 0.274-0.226 0.5-0.5 0.5h-5.5v2h6.5c0.823 0 1.5-0.677 1.5-1.5v-8zm0 13v5c0 0.823 0.677 1.5 1.5 1.5h5c0.823 0 1.5-0.677 1.5-1.5v-5c0-0.823-0.677-1.5-1.5-1.5h-5c-0.823 0-1.5 0.677-1.5 1.5zm9-13c0-0.823-0.677-1.5-1.5-1.5h-5c-0.823 0-1.5 0.677-1.5 1.5v5c0 0.823 0.677 1.5 1.5 1.5h5c0.823 0 1.5-0.677 1.5-1.5v-5zm9 0c0-0.823-0.677-1.5-1.5-1.5h-5c-0.823 0-1.5 0.677-1.5 1.5v5c0 0.823 0.677 1.5 1.5 1.5h3.5v-2h-2.5c-0.274 0-0.5-0.226-0.5-0.5v-3c0-0.274 0.226-0.5 0.5-0.5h3c0.274 0 0.5 0.226 0.5 0.5v6c0 0.274-0.226 0.5-0.5 0.5h-5.5v2h6.5c0.823 0 1.5-0.677 1.5-1.5v-8zm0 11.5h-7.5c-0.823 0-1.5 0.677-1.5 1.5v6.5h2v-5.5c0-0.274 0.226-0.5 0.5-0.5h1v6h2v-6h1.5v6h2v-8zm-11.5-7h-3c-0.274 0-0.5-0.226-0.5-0.5v-3c0-0.274 0.226-0.5 0.5-0.5h3c0.274 0 0.5 0.226 0.5 0.5v3c0 0.274-0.226 0.5-0.5 0.5zm-4 9h3c0.274 0 0.5 0.226 0.5 0.5v3c0 0.274-0.226 0.5-0.5 0.5h-3c-0.274 0-0.5-0.226-0.5-0.5v-3c0-0.274 0.226-0.5 0.5-0.5z"/>
</svg>
