<svg version="1.1" xmlns="http://www.w3.org/2000/svg" xmlns:xlink="http://www.w3.org/1999/xlink" viewBox="30.99 98.50 450.01 315.00">
	<g>
	  <path d="M277,242.1h-46.5v-41.8H277V242.1L277,242.1z M277,98.5h-46.5v42.7H277V98.5z M332,200.3h-46.5V242H332L332,200.3
			  L332,200.3z M222.1,149.6h-46.5v42.3h46.5V149.6z M277,149.6h-46.5v42.3H277V149.6z M471.6,219.9c-10.1-6.8-33.5-9.3-51.4-5.9
			  c-2.3-16.9-11.7-31.6-28.9-44.8l-9.8-6.5l-6.5,9.8c-12.9,19.5-16.5,51.7-2.6,73c-6.1,3.3-18.1,7.8-34,7.5H32.7
			  c-6.1,35.7,4.1,82.1,30.9,114c26.1,30.9,65.2,46.5,116.3,46.5c110.7,0,192.6-51,230.9-143.6c15,0.3,47.5,0.1,64.2-31.8
			  c1.1-1.8,4.6-9.3,6-12L471.6,219.9L471.6,219.9z M112.3,200.3H65.9V242h46.5L112.3,200.3L112.3,200.3z M167.2,200.3h-46.5V242h46.5
			  V200.3z M222.1,200.3h-46.5V242h46.5V200.3z M167.2,149.6h-46.5v42.3h46.5V149.6z" fill="#2496ed"></path>
	</g>
</svg>