<svg version="1.1" xmlns="http://www.w3.org/2000/svg" xmlns:xlink="http://www.w3.org/1999/xlink" viewBox="0 0 24 24"><title>Cryptopia icon</title><path d="M19.9056 1.31665H14.5387L11.8552 5.96355L14.5387 10.6125H19.9056L22.589 5.96355L19.9056 1.31665Z" fill="#4D4D4D"/>
<path d="M13.8331 0.0959473L10.4462 5.96353L13.8331 11.8311H20.6089L24 5.96353L20.6089 0.0959473H13.8331ZM11.2282 5.96353L14.2241 0.774568H20.2241L23.222 5.96353L20.2179 11.1546H14.2179L11.2282 5.96353Z" fill="#4D4D4D"/>
<path d="M19.9056 13.3478H14.5387L11.8552 17.9967L14.5387 22.6457H19.9056L22.589 17.9967L19.9056 13.3478Z" fill="#4D4D4D"/>
<path d="M13.8331 12.129L10.4462 17.9966L13.8331 23.8642H20.6089L24 17.9966L20.6089 12.129H13.8331ZM11.2282 17.9966L14.2241 12.8056H20.2241L23.222 17.9966L20.2179 23.1877H14.2179L11.2282 17.9966Z" fill="#4D4D4D"/>
<path d="M9.45928 7.33118H4.09238L1.40894 11.9801L4.09238 16.6291H9.45928L12.1427 11.9801L9.45928 7.33118Z" fill="#4D4D4D"/>
<path d="M3.3869 6.11255L0 11.9801L3.3869 17.8477H10.1628L13.5517 11.9801L10.1628 6.11255H3.3869ZM0.782069 11.9801L3.78 6.7891H9.78L12.7697 11.9801L9.77172 17.1712H3.77172L0.782069 11.9801Z" fill="#4D4D4D"/>
</svg>
