<svg xmlns="http://www.w3.org/2000/svg" version="1.2" viewBox="0 0 216 198.8"><path d="M214.5 197.4c-1 1-2.1 1.5-3.5 1.5s-2.5-.5-3.5-1.5-1.4-2.1-1.4-3.5.5-2.5 1.4-3.5c1-1 2.1-1.4 3.5-1.4s2.5.5 3.5 1.4c1 1 1.5 2.1 1.5 3.5 0 1.3-.5 2.5-1.5 3.5zm-6.5-6.5c-.8.8-1.2 1.8-1.2 3s.4 2.2 1.2 3c.8.8 1.8 1.3 3 1.3s2.2-.4 3-1.3c.8-.8 1.2-1.8 1.2-3s-.4-2.2-1.2-3c-.8-.8-1.8-1.2-3-1.2-1.1-.1-2.1.3-3 1.2zm3 .2c.7 0 1.2.1 1.5.2.6.2.8.7.8 1.4 0 .5-.2.8-.5 1.1-.2.1-.5.2-.8.3.4.1.7.2.9.5.2.3.3.6.3.8v1.2h-.9v-.7c0-.6-.2-1-.5-1.2-.2-.1-.6-.2-1.1-.2h-.7v2.1h-1v-5.4h2zm1 .9c-.2-.1-.6-.2-1.2-.2h-.8v1.9h.9c.4 0 .7 0 .9-.1.4-.1.6-.4.6-.8s-.2-.6-.4-.8z"/><path d="M178.4 0H38.3C17.2 0 0 16.7 0 37.1v124.5c0 20.7 16.6 37 37.9 37h140.2c21.3 0 37.9-16.3 37.9-37V37.1C216 16.3 199.5 0 178.4 0m33.3 161.6c0 18.4-14.8 32.7-33.7 32.7H37.9C19 194.4 4.3 180 4.3 161.6V37.1c0-18.4 14.9-32.9 34-32.9h140.2c18.7 0 33.3 14.4 33.3 32.9v124.5z" fill="#040301"/><path d="M211.7 161.6c0 18.4-14.8 32.7-33.7 32.7H37.9C19 194.4 4.3 180 4.3 161.6V37.1c0-18.4 14.9-32.9 34-32.9h140.2c18.7 0 33.3 14.4 33.3 32.9v124.5z" fill="#ffab00"/><path d="M173 122.1h-17.9l-3.1-19.5-11.5 19.3h-18.1l11 11.6-9 19.5 19.8-11.8 15.5 12-2.9-19.7" fill="#fff"/><path d="M185.5 118.2h-27.1l-4.3-27-15.8 26.8h-3c-1.8-3.1-2.5-7.6-2.5-10.4 0-4.6.3-9.1.3-15 0-7.8-2.3-11.9-8.4-13.4V79c12.9-1.8 18.8-10.4 18.8-22.4 0-17.1-11.4-20.8-26.3-20.8H77.1l-17 80.4h21.3l6.2-29.3h14.2c7.6 0 10.7 3.7 10.7 10.8 0 5.4-.6 9.7-.6 13.8 0 1.5.3 5.1 1.4 6.5l15.4 16.3-13.3 28.5 28.4-16.9 21.2 16.3-3.9-26.9 24.4-17.1zm-77.3-46.3h-17l4.1-19.4h15.8c5.6 0 11.5 1.5 11.5 8.3 0 8.7-6.7 11.1-14.4 11.1m36 69.3L124.4 153l9.1-19.4-11-11.6h18.1l11.4-19.3 3.1 19.5h18l-16.2 11.3 2.9 19.8-15.6-12.1z" fill="#040301"/></svg>