<svg clip-rule="evenodd" fill-rule="evenodd" stroke-linejoin="round" stroke-miterlimit="2" version="1.1" viewBox="0 0 500 500" xml:space="preserve" xmlns="http://www.w3.org/2000/svg">
    <g transform="scale(.5)">
        <circle cx="500" cy="500" r="500" fill="url(#b)"/>
        <circle cx="500" cy="500" r="500" fill="url(#a)"/>
        <path d="m839.05 449.21h-0.52l-61.12-61.11c-2.217-2.204-3.467-5.204-3.47-8.33v-141c-0.038-29.653-24.427-54.042-54.08-54.08h-38.17c-29.662 0.027-54.066 24.418-54.11 54.08v0.81l-90.23-87.39c-21.155-20.28-55.094-19.998-75.91 0.63l-305.57 305.59c-10.17 10.129-15.893 23.906-15.893 38.26 0 14.314 5.692 28.057 15.813 38.18l0.08 0.09 29.13 28.94c20.899 20.82 55.152 20.96 76.22 0.31l234.78-231.43c4.587-4.539 12.083-4.539 16.67 0l230.11 230.12c4.529 4.592 4.529 12.078 0 16.67l-28.28 28.28c-4.592 4.529-12.078 4.529-16.67 0l-161.56-156.56c-21.161-20.414-55.257-20.119-76.06 0.66l-155 155.84c-20.869 21.003-20.869 55.417 0 76.42l28.7 28.69c20.929 20.844 55.242 20.934 76.28 0.2l83.58-82.59c4.592-4.529 12.078-4.529 16.67 0l83.11 81.7c2.248 2.188 3.521 5.193 3.53 8.33-0.01 3.128-1.258 6.128-3.47 8.34l-82.31 82.55c-0.36 0-0.67-0.22-1.06-0.22-16.926 5e-3 -30.85 13.934-30.85 30.86 0 16.929 13.931 30.86 30.86 30.86s30.86-13.931 30.86-30.86v-0.52l82.69-82.67c10.146-10.144 15.852-23.918 15.852-38.265s-5.706-28.121-15.852-38.265l-0.31-0.31-83.11-81.67c-20.969-20.573-55.031-20.573-76 0l-83.86 82.7c-4.578 4.56-12.092 4.56-16.67 0l-28.64-28.72c-4.529-4.592-4.529-12.078 0-16.67l155.14-155.84c4.534-4.605 12.048-4.677 16.67-0.16l161.53 156.94c21.14 20.37 55.157 20.124 76-0.55l28.3-28.31c20.948-20.999 20.948-55.501 0-76.5l-230.25-230.24c-20.904-20.83-55.166-20.978-76.25-0.33l-234.84 231.38c-4.6 4.502-12.06 4.502-16.66 0l-29-29.06c-4.56-4.578-4.56-12.092 0-16.67l305.59-305.56c4.543-4.582 12.04-4.645 16.66-0.14l161.95 156.73v-100.56c0.033-6.463 5.347-11.768 11.81-11.79h38.14c6.478 0.016 11.807 5.332 11.84 11.81v141.19c0.054 14.328 5.743 28.075 15.83 38.25l60.81 60.81c0 0.38-0.22 0.69-0.22 1.05 0.016 16.918 13.942 30.83 30.86 30.83 16.929 0 30.86-13.931 30.86-30.86s-13.931-30.86-30.86-30.86h-0.03l-0.04-0.01z" fill="#fff" fill-rule="nonzero"/>
    </g>
    <defs>
        <linearGradient id="b" x2="1" gradientTransform="matrix(6.1232e-14 1e3 -1e3 6.1232e-14 500 0)" gradientUnits="userSpaceOnUse"><stop stop-color="#57277c" offset="0"/><stop stop-color="#491f59" offset="1"/></linearGradient>
        <radialGradient id="a" cx="0" cy="0" r="1" gradientTransform="matrix(500,0,0,500,500,500)" gradientUnits="userSpaceOnUse"><stop stop-opacity="0" offset="0"/><stop stop-opacity=".1" offset="1"/></radialGradient>
    </defs>
</svg>
