<svg version="1.1" id="Layer_1" xmlns="http://www.w3.org/2000/svg" xmlns:xlink="http://www.w3.org/1999/xlink" x="0px" y="0px"
	 viewBox="0 0 612 792" style="enable-background:new 0 0 612 792;" xml:space="preserve">
<style type="text/css">
	.st0{fill:#FD9701;}
</style>
<path class="st0" d="M286.48,310.73c-30.51,0-61.02,0-91.52,0c-3.16,0-3.21-0.05-1.63-3.61c22.26-50.23,54.49-80.34,97.22-87.51
	c67.22-11.29,128.99,49.36,142.7,140.16c15.34,101.56-34.51,194.57-104.75,211.38c-65.4,15.65-128.98-38.45-147.45-125.68
	c-5.3-25.03-6.41-50.45-3.68-76.23c0.31-2.9,1.09-3.47,3.05-3.47c35.1,0.07,70.19,0.05,105.29,0.05c25.07,0,50.14-0.04,75.21,0.07
	c2.37,0.01,3.68-0.95,4.67-3.97c5.02-15.23,10.2-30.37,15.3-45.54c1.5-4.45,0.94-5.63-2.64-5.63
	C347.66,310.73,317.07,310.73,286.48,310.73z M306.37,388.1c-15.2,0-30.4,0.08-45.61-0.08c-2.4-0.03-2.9,0.97-2.89,4.07
	c0.08,38.32,0.05,76.64,0.05,114.96c0,1.04-0.01,2.09,0.06,3.13c0.1,1.56,0.75,2.72,1.86,2.91c2.07,0.35,3.91,0.56,5.59-2.37
	c12.46-21.75,25.11-43.29,37.65-64.96c1.1-1.9,2.22-2.74,4.04-2.71c9.26,0.13,18.51-0.03,27.77,0.14c2.41,0.04,3.62-1.11,4.6-4.1
	c4.97-15.12,10.12-30.14,15.21-45.19c1.55-4.59,1-5.79-2.72-5.79C336.77,388.1,321.57,388.1,306.37,388.1z"/>
</svg>
