<svg xmlns="http://www.w3.org/2000/svg" viewBox="0 0 400 400" aria-labelledby="navbar-fanatical-logo"><g fill="none"><path fill="#FF9800" d="M2.8756 166.0056h284.671a2.9981 2.9981 0 0 0 2.7221-1.7424l25.8632-56.0452c.6946-1.504.0391-3.2867-1.464-3.9817a2.9968 2.9968 0 0 0-1.258-.2767l-288.9182.0356C58.4482 42.0187 124.261 0 199.882 0c110.3917 0 199.882 89.543 199.882 200s-89.4903 200-199.882 200C89.4902 400 0 310.457 0 200c0-11.588.985-22.946 2.8756-33.9944zM125.9256 328c0 2.2091 1.7898 4 3.9977 4h5.1722l62.8312-79.0111h49.4291a2.9981 2.9981 0 0 0 2.722-1.7422l25.835-55.976a3.0015 3.0015 0 0 0 .2761-1.2577c0-1.6569-1.3423-3-2.9982-3h-147.265V328z"/></g></svg>
