<svg clip-rule="evenodd" fill-rule="evenodd" stroke-linejoin="round" stroke-miterlimit="2" version="1.1" viewBox="80.062 0 339.88 500" xml:space="preserve" xmlns="http://www.w3.org/2000/svg">
    <g transform="matrix(3.8482 0 0 3.8482 80.062 0)" fill-rule="nonzero">
        <path d="m36.56 39.93c-16.22-1.73-32.56-13.99-33.85-39.93 25.17 0 38.63 14.9 39.93 38.51 4.76-28.32 27.07-25 27.07-25 1.06 16.05-12.12 25.78-27.07 26.59-4.2-8.85-29.36-30.56-29.36-30.56-0.012-0.015-0.031-0.024-0.05-0.024-0.035 0-0.064 0.029-0.064 0.064 0 0.015 5e-3 0.029 0.014 0.04s24.27 21.15 23.38 30.31" fill="url(#a)"/>
        <path d="m44.16 129.93c-1.57-0.1-16.22-0.65-17.11-17.11-0.72-10 7.19-17.38 7.19-27.08-1.8-24.21-34.24-21.21-34.24 0-0.013 5.299 2.086 10.39 5.83 14.14l24.17 24.18c3.752 3.742 8.841 5.844 14.14 5.84" fill="#980200"/>
        <path d="m88.32 85.75c-0.09 1.57-0.65 16.22-17.11 17.11-10 0.73-17.37-7.18-27.08-7.18-24.21 1.79-21.21 34.22 0 34.22 5.299 0.016 10.392-2.084 14.14-5.83l24.19-24.17c3.747-3.752 5.846-8.848 5.83-14.15" fill="#f00"/>
        <path d="m44.16 41.59c1.57 0.09 16.22 0.65 17.11 17.11 0.73 10-7.18 17.38-7.18 27.08 1.79 24.21 34.22 21.21 34.22 0 0.013-5.299-2.086-10.39-5.83-14.14l-24.18-24.19c-3.753-3.739-8.842-5.837-14.14-5.83" fill="#980200"/>
        <path d="m0.08 85.75c0.09-1.57 0.65-16.22 17.11-17.11 10-0.72 17.37 7.19 27.08 7.19 24.21-1.8 21.21-34.23 0-34.23-5.299-0.016-10.392 2.084-14.14 5.83l-24.19 24.18c-3.744 3.75-5.843 8.841-5.83 14.14" fill="#f00"/>
    </g>
    <defs>
        <linearGradient id="a" x2="1" gradientTransform="matrix(67.06,0,0,67.06,2.71,20.04)" gradientUnits="userSpaceOnUse"><stop stop-color="#12b212" offset="0"/><stop stop-color="#0f0" offset="1"/></linearGradient>
    </defs>
</svg>
