<svg viewBox="0 0 1000 1000" version="1.1" xmlns="http://www.w3.org/2000/svg" xmlns:xlink="http://www.w3.org/1999/xlink" xml:space="preserve" xmlns:serif="http://www.serif.com/" style="fill-rule:evenodd;clip-rule:evenodd;stroke-linejoin:round;stroke-miterlimit:2;">
    <g transform="matrix(0.1,0,0,-0.1,0,970)">
        <path d="M4420,8329C3600,8292 2810,8184 2110,8013C1777,7932 1285,7779 1252,7747C1242,7736 1238,7641 1233,7284C1224,6596 1257,5832 1320,5240C1365,4828 1458,4293 1529,4040C1583,3849 1596,3807 1626,3715C1714,3452 1887,3059 2017,2831C2275,2378 2541,2024 2895,1661C3247,1301 3631,1000 4095,721C4359,563 4929,300 5009,300C5061,300 5418,451 5649,571C6786,1162 7685,2097 8191,3212C8413,3702 8531,4110 8631,4745C8719,5307 8762,5860 8786,6759C8794,7078 8782,7724 8766,7745C8755,7761 8485,7855 8300,7909C7468,8148 6561,8288 5560,8330C5293,8341 4681,8341 4420,8329ZM5755,7175L5765,5495L7515,5485L7518,4763C7519,4365 7519,4039 7518,4038C7516,4036 7121,4033 6640,4030L5765,4025L5762,3191C5760,2538 5757,2354 5747,2348C5731,2338 4279,2338 4262,2348C4252,2355 4249,2530 4247,3191L4245,4025L3370,4030C2889,4033 2494,4036 2492,4038C2491,4039 2491,4365 2492,4763L2495,5485L3359,5488C3983,5489 4227,5493 4237,5501C4248,5511 4250,5653 4250,6337C4250,6790 4252,7165 4255,7170C4259,7177 4536,7179 5008,7178L5755,7175Z" style="fill:rgb(227,0,11);fill-rule:nonzero;"/>
    </g>
</svg>
