<svg xmlns="http://www.w3.org/2000/svg" viewBox="0 0 1698 1698" preserveAspectRatio="xMidYMid meet">
 <g fill="#7ec140">
  <path d="M0 849 l0 -849 849 0 849 0 0 849 0 849 -849 0 -849 0 0 -849z m819.8 722.9 c57.7 -6.3 97.5 -37 112 -86.4 5.3 -17.9 5.7 -22.5 5.7 -63.5 0 -36.1 -0.2 -39.1 -2.3 -48.7 -8.7 -39.7 -30.1 -68.7 -62.8 -85.1 -22.3 -11.2 -54.8 -17.1 -83.7 -15.1 -63.6 4.3 -106.8 37.4 -120.7 92.4 -4.5 17.7 -5.3 27.8 -4.7 63.7 0.5 35.2 1.2 41 6.8 58.5 11.8 36.9 37.3 63.2 74 76.1 22.2 7.8 50.7 10.9 75.7 8.1z m323.5 -1.9 c55.3 -10.9 90.9 -49.3 98.2 -105.7 l0.7 -5.3 -40.4 0 -40.4 0 -1.7 7.4 c-4 18.4 -14.1 29.9 -30.2 34.2 -8 2.2 -28.9 1.8 -36.7 -0.6 -10.9 -3.3 -18.8 -10.2 -24.2 -20.7 -5.1 -10.1 -5.7 -15.4 -6.3 -48.3 -0.7 -44.1 1.1 -58.1 9.4 -70 8 -11.4 18.7 -16.7 35.8 -17.7 28.7 -1.7 45.5 9.4 52 34.2 0.8 3.2 1.5 6.7 1.5 7.7 0 1.7 2.3 1.8 40.6 1.8 l40.5 0 -0.6 -5.7 c-4.2 -35.5 -21.2 -65.7 -47.9 -84.7 -24.5 -17.5 -57.2 -25.8 -92.6 -23.5 -60.5 4 -101.1 32.5 -117.5 82.5 -5.1 15.5 -6.7 28.4 -7.2 58.9 -0.9 47.2 2.8 70.7 14.7 94 18.9 36.7 51.9 57.2 102 63.4 12.3 1.6 37.9 0.6 50.3 -1.9z m-839.8 -4.5 c25.7 -3.9 43.9 -12.1 57.8 -26.2 6.8 -6.8 8.6 -9.4 13.3 -18.7 5.5 -10.6 7.7 -20.1 7.7 -33.6 0.1 -13.2 -1.5 -20.5 -6.8 -30.9 -8 -15.9 -21.6 -26.9 -41.2 -33.2 -7 -2.2 -7.3 -2.4 -7.3 -5.3 0 -2.7 0.8 -3.5 5.2 -6.1 6.8 -3.9 17.4 -14.6 21.7 -21.8 12.7 -21.5 14.2 -45.9 4 -67.6 -11.7 -25.1 -35.1 -39.8 -69.1 -43.1 -6.2 -0.7 -39.5 -0.9 -84.3 -0.8 l-74 0.3 -0.3 144.3 -0.2 144.2 81.7 0 c67.7 0 83.5 -0.3 91.8 -1.5z m329.5 -33.5 l0 -35 -59.7 -0.2 -59.8 -0.3 -0.3 -109.2 -0.2 -109.3 -43 0 -43 0 0 144.5 0 144.5 103 0 103 0 0 -35z m752 -26.5 l0 -61.5 6.4 0 6.4 0 30.5 61.5 30.6 61.5 50.1 0 c40.5 0 50.1 -0.2 49.7 -1.3 -0.2 -0.7 -18.7 -35.7 -41.1 -77.7 -29.1 -54.9 -40.6 -77.4 -40.6 -79.7 0 -2.4 9 -18.6 35.6 -64.5 19.6 -33.7 36.2 -62.3 37 -63.5 l1.4 -2.3 -47.2 0 -47.3 0.1 -30 51.4 -29.9 51.5 -5.8 0 -5.8 0 0 -51.5 0 -51.5 -43 0 -43 0 0 144.5 0 144.5 43 0 43 0 0 -61.5z m209.7 -216.7 c-0.2 -2.4 -0.4 -0.7 -0.4 3.7 0 4.4 0.2 6.3 0.4 4.3 0.2 -2.1 0.2 -5.7 0 -8z m-1017.2 -95.3 c13.9 -2.2 25.9 -6 38.1 -12 14.8 -7.3 15.6 -7.3 23.6 1.5 l6.3 7 35.4 -0.2 35.3 -0.3 -25.1 -28 c-25.1 -27.9 -25.2 -28 -24.8 -32 0.2 -2.2 1.6 -6.8 3.1 -10.1 6.2 -14.7 7.6 -25.1 7.6 -60.1 l0 -28.3 -29.5 0 -29.5 0 0 21 0 21 -3.2 0 c-3.1 0 -5.8 -2.8 -37.8 -38.6 -35.3 -39.4 -41.2 -46.7 -43 -53.2 -1.4 -5.3 -1.2 -17.7 0.4 -21.5 3.3 -8 13 -12.4 25.6 -11.5 8.8 0.7 14.6 3.8 17.8 9.6 2 3.5 2.5 6.3 3 14.8 l0.5 10.4 32 0 32 0 -0.6 -13.2 c-0.7 -15.5 -2.3 -22.3 -8 -33.3 -5.3 -10.3 -17 -22.2 -27.7 -28.2 -25.7 -14.4 -62.1 -17.2 -93 -7.1 -30.9 10 -51 33.7 -53.5 63 -1.3 14.8 5.7 34.1 16.9 46.5 4.6 5 5.6 6.8 5.6 9.7 0 3.3 -0.4 3.8 -4.9 6 -6.8 3.5 -20.2 13.8 -25.2 19.4 -15.6 17.5 -22.7 37.2 -21.6 59.6 0.7 13.7 2.6 21.5 8.3 33.3 10.2 21.4 28.5 37 54.4 46.6 9.7 3.6 24.5 7.1 36 8.6 11 1.4 35.8 1.2 45.5 -0.4z m-361.5 -56.5 l0 -53 41 0 41 0 0 53 0 53 43 0 43 0 0 -144.5 0 -144.5 -43 0 -43 0 0 52.5 0 52.5 -40.7 -0.2 -40.8 -0.3 -0.3 -52.2 -0.2 -52.3 -43 0 -43 0 0 144.5 0 144.5 43 0 43 0 0 -53z m619.8 13.7 l0.2 -38.7 16.2 0.2 16.2 0.3 22.6 38.8 22.5 38.7 48.8 0 48.9 0 -2.3 -3.7 c-1.3 -2.1 -13.5 -21.5 -27.1 -43.2 -29.4 -46.8 -28.5 -44.2 -17.8 -51.5 14.3 -9.8 27.9 -26.9 34.7 -43.6 6.3 -15.6 9.1 -35.7 7.3 -51.9 -5.3 -48.1 -32 -79.4 -77.5 -91 -15.1 -3.8 -22.7 -4.1 -101.7 -4.1 l-76.8 0 0 144.5 0 144.5 42.8 -0.2 42.7 -0.3 0.3 -38.8z"/>
  <path d="M782.8 1500.9 c-10.6 -2.5 -21.8 -11 -27 -20.5 -6 -11.1 -6.3 -14.1 -6.3 -57.9 0 -36 0.2 -40.6 1.8 -46 7.2 -23.2 22.6 -33.5 50.2 -33.5 27.3 0.1 44.4 13.1 49 37.5 2.1 11 2.1 75 0 84.9 -4 19 -15.6 31.6 -32.6 35.5 -5.3 1.3 -29.9 1.2 -35.1 0z"/>
  <path d="M211.2 1477.8 l0.3 -27.3 35.5 -0.3 c38.8 -0.3 40.4 -0.1 47.2 5.6 5.4 4.6 7.8 11.3 7.8 22.2 0 7.9 -0.4 10.3 -2.4 14.5 -2.7 5.8 -5.7 8.8 -10.8 11 -3.1 1.3 -9.6 1.5 -40.8 1.5 l-37 0 0.2 -27.2z"/>
  <path d="M212 1366.5 l0 -26.5 25.8 0 c14.1 0 27.3 0.5 29.3 1 6.1 1.7 10.2 5.2 13.2 10.9 2.4 4.8 2.7 6.6 2.7 14.5 -0.1 13.1 -3.6 20.3 -12.2 24.7 -3.4 1.7 -6.2 1.9 -31.3 1.9 l-27.5 0 0 -26.5z"/>
  <path d="M539.6 1139.4 c-15.1 -3.4 -29.2 -14.1 -33.1 -25.1 -2.6 -7.4 -3 -18.6 -1.1 -26.3 2.2 -8.4 5.1 -13.3 12.2 -20.3 9.8 -9.7 7.9 -11 41.7 26.8 34.9 39 34.3 37.6 18.2 43 -10.2 3.5 -27.3 4.3 -37.9 1.9z"/>
  <path d="M836 1006.6 l0 -38.6 24.8 0 c13.6 0 27.8 0.5 31.5 1 12.1 1.8 20.4 7.7 25.1 17.9 1.7 3.8 2.1 7.1 2.4 18.1 0.3 12.1 0.1 14.1 -1.9 19.4 -2.8 7.5 -9.3 14.6 -16.2 17.7 -5 2.3 -6.1 2.4 -35.4 2.7 l-30.3 0.3 0 -38.5z"/>
 </g>
 <g fill="#ffffff">
  <path d="M777 1574.9 c-62.5 -7.1 -103.1 -43.3 -114.6 -102.2 -2.2 -11 -3.2 -74 -1.4 -89 6.2 -53.7 36.7 -91.7 85.5 -106.6 20.6 -6.2 44.4 -8.8 67.7 -7.1 68.4 4.9 110.5 38.9 124 100.3 2.1 9.6 2.3 12.4 2.3 51.7 0 44.3 -0.3 48.4 -5.7 66.5 -12.8 43.5 -46 73.3 -92.9 83.3 -18.6 4 -45.4 5.3 -64.9 3.1z m37.9 -77 c17 -3.9 28.6 -16.5 32.6 -35.5 2.1 -9.9 2.1 -68 0 -78.9 -4 -20.8 -17.3 -33.7 -38.2 -36.7 -21.8 -3.2 -41.7 5.2 -50.1 20.9 -6.5 12.4 -6.7 14 -6.7 54.8 0 40.5 0.4 44 6.3 54.9 5.2 9.5 16.4 18 27 20.5 5.2 1.2 23.8 1.3 29.1 0z"/>
  <path d="M1090 1574.9 c-63.7 -7.8 -101.7 -40.4 -113.4 -97 -2.9 -14.3 -3.8 -31.4 -3.3 -63.4 0.6 -40.7 3.1 -55.4 13.2 -77.3 7.7 -16.6 22.5 -34.1 37 -43.9 20.1 -13.5 45.2 -21.2 76.1 -23.3 51.6 -3.5 95 12.9 119.8 45.3 14.7 19.2 23.4 41.9 25.2 66.1 l0.7 8.6 -43.7 0 c-41.2 0 -43.6 -0.1 -43.6 -1.8 0 -3.1 -3 -13.5 -5.5 -18.9 -7.1 -15.6 -25.1 -24.7 -44.9 -22.9 -14.7 1.3 -25.6 7.1 -32.9 17.6 -8.1 11.7 -10.2 26.3 -9.4 67 0.6 29.7 1.4 35.5 6.3 45.3 7.9 15.5 20.7 22.7 40.3 22.7 15.4 0 24.8 -3.4 33.2 -12.1 5.7 -5.8 9.5 -13.4 11.6 -23.5 l1.7 -7.4 43.4 0 43.5 0 -0.6 7.8 c-3.8 48.8 -33.6 88.2 -78.9 104.1 -15.2 5.3 -28 7.3 -49.3 7.6 -10.4 0.2 -22.4 -0.1 -26.5 -0.6z"/>
  <path d="M127.2 1422.8 l0.3 -147.3 77 -0.3 c46.8 -0.1 81 0.1 87.3 0.8 27.4 2.7 49.7 13.6 61.6 30.4 9 12.6 13.3 24.7 14.3 40.6 0.9 16.2 -2.7 32.1 -10.5 44.8 -5.6 9.3 -11.4 15.5 -19.5 21 l-7.4 4.9 7.1 2.3 c19.5 6.2 33.1 17.2 41.1 33.1 5.6 11.1 6.9 17.5 6.9 33.9 -0.1 16.7 -1.9 25.2 -7.8 36.6 -4.7 9.3 -6.5 11.9 -13.3 18.7 -13.9 14.1 -32.1 22.3 -57.8 26.2 -8.3 1.2 -24.4 1.5 -94.8 1.5 l-84.7 0 0.2 -147.2z m158.6 77.7 c5.1 -2.2 8.1 -5.2 10.8 -11 4.7 -10 2.2 -24.3 -5.4 -30.7 -6.7 -5.6 -8.7 -5.9 -44.2 -5.6 l-32.5 0.3 -0.3 24.3 -0.2 24.2 34 0 c28.5 0 34.7 -0.3 37.8 -1.5z m-18 -112.4 c18.1 -9.3 15.6 -38.7 -3.7 -44.1 -2 -0.5 -13.8 -1 -26.3 -1 l-22.8 0 0 23.5 0 23.5 24.5 0 c22.2 0 24.9 -0.2 28.3 -1.9z"/>
  <path d="M424 1422.5 l0 -147.5 46 0 46 0 0.2 109.3 0.3 109.2 59.8 0.3 59.7 0.2 0 38 0 38 -106 0 -106 0 0 -147.5z"/>
  <path d="M1296 1422.5 l0 -147.5 46 0 46 0 0 51.5 0 51.5 2.8 0 c2.6 0 4.5 -2.9 32.7 -51.5 l30 -51.4 51.8 -0.1 51.8 0 -1.2 2.3 c-0.7 1.2 -18 31.1 -38.5 66.5 l-37.4 64.3 2.9 5.7 c1.6 3.1 20.9 39.6 42.9 81 l40 75.2 -55 0 -54.9 0 -30.6 -61.5 -30.5 -61.5 -3.4 0 -3.4 0 0 61.5 0 61.5 -46 0 -46 0 0 -147.5z"/>
  <path d="M1590.6 1315.5 c-5.3 -1.9 -8.5 -4.4 -12.1 -9.4 -2.4 -3.4 -3 -5.4 -3.3 -11.1 -0.9 -15.6 8.8 -25.6 24.8 -25.4 16.4 0.2 27.2 14.9 22.6 30.7 -3.7 12.9 -18.6 20 -32 15.2z m17.2 -4.9 c3.6 -1.9 7.8 -6.5 9.1 -9.9 1.5 -3.9 1.4 -12.1 -0.3 -16 -4.1 -9.9 -18.8 -13.8 -28.4 -7.4 -11.5 7.5 -10.3 27 2 33 4.1 2 14 2.2 17.6 0.3z"/>
  <path d="M1591 1292.5 l0 -10.5 5.8 0 c7.2 0 10.4 1.6 11.6 5.7 0.7 2.5 0.5 3.8 -0.8 5.8 -1.5 2.3 -1.5 2.8 -0.1 5.5 2 3.9 2 4 -2 4 -2.9 0 -3.7 -0.5 -5.2 -3.2 l-1.8 -3.3 -0.3 3.3 c-0.3 2.9 -0.6 3.2 -3.8 3.2 l-3.4 0 0 -10.5z m10.8 -2.8 c0.2 -1.2 -0.3 -1.7 -1.7 -1.7 -1.5 0 -2.1 0.6 -2.1 2.1 0 2.5 3.3 2.2 3.8 -0.4z"/>
  <path d="M529 1196.9 c-44.4 -5.7 -75.9 -24.9 -90.4 -55.2 -6.9 -14.3 -8.1 -20.3 -8.1 -40.2 0 -19.4 1.1 -24.8 7.5 -38 7.3 -15 20.9 -29.6 35.2 -37.7 10.2 -5.8 9.9 -4.7 3.4 -11.9 -7.1 -7.8 -14 -21.5 -16.2 -31.9 -2.1 -9.7 -1.3 -24.8 1.6 -34.5 8.6 -27.6 30.1 -45.3 64.5 -53 10.8 -2.4 36.9 -3 49.3 -1.1 12.8 1.9 26.4 6.4 36.2 11.9 10.7 6 22.4 17.9 27.7 28.2 6.1 11.8 7.4 17.6 8 36.3 l0.6 16.2 -35 0 -35 0 -0.5 -10.4 c-0.5 -8.5 -1 -11.3 -2.9 -14.8 -4.2 -7.6 -14 -11.2 -24 -8.8 -15.5 3.7 -19.6 19.9 -9.1 35.4 2 3 19.2 22.8 38.2 44 l34.5 38.6 0.3 -21 0.2 -21 32.5 0 32.5 0 0 31.3 c0 38 -1.2 47.9 -7.6 63.1 -1.4 3.3 -2.6 6.7 -2.7 7.3 -0.1 0.7 12 14.8 26.8 31.4 14.9 16.6 27.2 30.5 27.3 31 0.2 0.5 -17 0.9 -40.4 0.9 l-40.9 0 -6.5 -7 -6.5 -7 -11 5.5 c-12 6 -24 9.8 -38 12 -9.8 1.6 -40.3 1.9 -51.5 0.4z m45.8 -62.5 c4.2 -1.4 8.2 -3.1 8.9 -3.7 0.9 -0.9 -5.2 -8.3 -27.4 -33.2 -15.7 -17.6 -28.9 -32.1 -29.3 -32.3 -1.1 -0.4 -12.1 11 -14.5 15.3 -8.2 13.9 -6.5 30 4.3 41.6 13.4 14.5 36.7 19.5 58 12.3z"/>
  <path d="M127 1045.5 l0 -147.5 46 0 46 0 0.2 52.3 0.3 52.2 37.8 0.3 37.7 0.2 0 -52.5 0 -52.5 46 0 46 0 0 147.5 0 147.5 -46 0 -46 0 0 -53 0 -53 -38 0 -38 0 0 53 0 53 -46 0 -46 0 0 -147.5z"/>
  <path d="M747 1045.5 l0 -147.5 79.8 0 c82.1 0 89.6 0.3 104.7 4.1 46.1 11.7 72.7 43.4 77.6 92.6 1.9 18.6 -0.9 40.2 -7.4 56.3 -6.8 16.7 -20.4 33.8 -34.7 43.6 -3.9 2.6 -7 5 -7 5.4 0 0.3 12.8 21 28.5 46 15.7 24.9 28.5 45.7 28.5 46.2 0 0.4 -24 0.8 -53.3 0.8 l-53.2 0 -22.5 -38.7 -22.6 -38.8 -13.2 -0.3 -13.2 -0.3 -0.2 38.8 -0.3 38.8 -45.7 0.3 -45.8 0.2 0 -147.5z m151.7 -6.4 c6.9 -3.1 13.4 -10.2 16.2 -17.7 2 -5.1 2.2 -7.4 1.9 -16.4 -0.3 -7.8 -0.9 -11.7 -2.5 -15.1 -4.6 -10.2 -12.9 -16.1 -25 -17.9 -3.7 -0.5 -16.6 -1 -28.5 -1 l-21.8 0 0 35.6 0 35.5 27.3 -0.3 c26.1 -0.3 27.4 -0.4 32.4 -2.7z"/>
 </g>
</svg>