<svg xmlns="http://www.w3.org/2000/svg" viewBox=".5 .4 32.55 37.8">
  <g fill="#000">
    <path d="m12.8 25.9 2.3-2.2 6.8-6.4 3.8-3.6.6-.5c.6-.6 1-1.4 1.1-2.2v-.4l.1-2.4.1-3.9c0-1-.3-2-1-2.7C25.9.9 25 .5 24 .5L17.8.4h-.1c-1 0-1.8.4-2.6 1L1.7 14.1C1 14.8.6 15.7.5 16.7c0 1 .3 2 1 2.7l6 6.4c.7.8 1.7 1.2 2.7 1.2 1-.1 1.9-.4 2.6-1.1zm-3.1-7.1c-.1 0-.2 0-.3-.1l-.6-.6c-.2-.2-.1-.4 0-.6l.1-.1c.1-.1.2-.4 0-.5-.1-.2-.3-.5-.4-.8-.2-.4-.3-.8-.5-1.2-.1-.2.1-.4.3-.5l1.1-.4c.2-.1.5 0 .5.2 0 .1.1.3.1.4.3.9.7 1.6 1.1 2 .4.4.6.4.8.2.2-.2 0-.7-.6-2-.2-.4-.3-.7-.4-1-.3-1 0-1.7.6-2.3.6-.6 1.4-.7 2.2-.4l.6.3c.1.1.4.1.5 0 .1-.2.4-.1.5 0l.6.6c.2.2.2.4 0 .6l.1-.1c-.1.1-.1.3 0 .5.2.3.4.6.5.9l.3.6c.1.2 0 .4-.2.5l-.9.5c-.2.1-.4 0-.5-.2 0-.1-.1-.1-.1-.2-.4-.8-.9-1.5-1.2-1.9-.3-.3-.6-.3-.7-.2-.2.2-.1.5.7 1.9.2.3.3.6.4.9.4 1 .2 1.8-.5 2.6s-1.7.9-2.7.5c-.2-.1-.4-.2-.6-.4-.2-.1-.4-.1-.5.1-.1.2-.2.2-.3.2zm9.2-11.9c.2-.2.5-.4.9-.4h.3c.3 0 .6.2.9.4.2.2.3.4.4.7v.6c-.1.3-.2.5-.4.7-.6.6-1.5.5-2.1-.1-.3-.3-.4-.7-.4-1.1 0-.1.2-.5.4-.8zm14 10-1.8-6c-.1-.2-.2-.5-.3-.7v.5c0 .3 0 .5-.1.8-.2 1.2-.6 2.3-1.4 3.3-.2.3-.5.6-.8.9l-.6.5-.6.6-3.2 3.1-1.9 1.8.2.1c.2.1.3.3.2.5v.1c-.1.2 0 .4.1.5.4.3.8.7 1.3 1.2.2.2.2.4 0 .6l-.7.8c-.1.1-.4.1-.6 0-.7-.7-1.4-1.3-1.8-1.5-.3-.2-.6-.1-.7.1-.1.3.1.5 1.2 1.6 1.2 1.1 1.5 2.1.9 3.3-.5 1.2-1.7 1.6-3.1 1.1-.2 0-.4 0-.5.2-.1.1-.2.2-.4.2h-.2l-.8-.4c-.2-.1-.3-.4-.2-.6v-.1c.1-.2 0-.4-.1-.5l-1.2-1.2-1.1 1c-.9.9-2 1.5-3.3 1.7-.5.1-1 .2-1.6.2-.4 0-.8 0-1.2-.1 0 1.3.7 2.5 1.9 3.1l7.7 4.2c.6.3 1.2.4 1.8.4.4 0 .7 0 1.1-.2 1-.3 1.7-.9 2.2-1.8l8.8-16.3c1-1.1 1.1-2.1.8-3z"/>
    <path d="M19.4 27.6c.5.3.8.2.9 0 .1-.3-.2-.6-1.3-1.7-.2-.2-.4-.4-.6-.7l-.8.7c.7.8 1.3 1.4 1.8 1.7z"/>
  </g>
</svg>