<svg xmlns="http://www.w3.org/2000/svg" fill="none" viewBox="0 0 50 48"><g fill="#FF4B11"><path d="M25.1073 46.9362C24.4867 46.9358 23.88 46.7514 23.3641 46.4062C22.8483 46.0611 22.4463 45.5708 22.209 44.9972C21.9718 44.4237 21.9099 43.7927 22.0313 43.184C22.1526 42.5753 22.4517 42.0162 22.8907 41.5775C23.3297 41.1387 23.889 40.84 24.4978 40.719C25.1066 40.5981 25.7375 40.6604 26.3109 40.898C26.8843 41.1356 27.3744 41.5379 27.7192 42.054C28.064 42.5701 28.248 43.1769 28.248 43.7975C28.2469 44.63 27.9156 45.428 27.3268 46.0164C26.738 46.6049 25.9398 46.9357 25.1073 46.9362Z"></path><path d="M9.37939 47.7574V47.5248C9.38421 43.3551 11.0428 39.3575 13.9912 36.409C16.9397 33.4606 20.9373 31.802 25.1071 31.7972H25.3336V38.0664H25.1071C22.6001 38.0691 20.1967 39.0667 18.4247 40.8402C16.6528 42.6136 15.6572 45.0179 15.6567 47.5248V47.7513L9.37939 47.7574Z"></path><path d="M41.589 34.964C41.0936 34.9641 40.6053 34.8468 40.1639 34.6219C39.7225 34.397 39.3406 34.0708 39.0494 33.67C38.7583 33.2691 38.5661 32.8051 38.4887 32.3158C38.4113 31.8265 38.4509 31.3258 38.6041 30.8547C38.8072 30.2236 39.2056 29.6733 39.7417 29.2833C40.2779 28.8933 40.924 28.6837 41.587 28.6847C42.0824 28.6848 42.5708 28.8021 43.0122 29.027C43.4537 29.2519 43.8356 29.578 44.1269 29.9788C44.4182 30.3795 44.6105 30.8435 44.6883 31.3328C44.766 31.8221 44.7268 32.3228 44.574 32.7941C44.3702 33.4252 43.9714 33.9753 43.435 34.3653C42.8986 34.7552 42.2522 34.9649 41.589 34.964Z"></path><path d="M40.2807 47.9292C36.316 46.6365 33.026 43.8238 31.1326 40.1083C29.2392 36.3927 28.897 32.0779 30.1812 28.1104L30.2519 27.894L36.2219 29.8334L36.1511 30.0498C35.3795 32.4337 35.5849 35.0263 36.7222 37.2589C37.8596 39.4915 39.8361 41.1819 42.2181 41.9593L42.4324 42.028L40.493 48L40.2807 47.9292Z"></path><path d="M35.2916 15.5881C34.7136 15.5864 34.1474 15.425 33.6553 15.1219C33.1632 14.8188 32.7643 14.3857 32.5026 13.8704C32.241 13.355 32.1267 12.7774 32.1724 12.2013C32.2181 11.6251 32.422 11.0728 32.7617 10.6051C33.0519 10.2041 33.4327 9.87722 33.8729 9.65093C34.3132 9.42465 34.8006 9.30535 35.2957 9.30273C35.8743 9.30302 36.4416 9.46327 36.9349 9.76578C37.4282 10.0683 37.8283 10.5013 38.0909 11.0169C38.3535 11.5325 38.4685 12.1107 38.4231 12.6876C38.3777 13.2645 38.1737 13.8175 37.8337 14.2858C37.5425 14.6877 37.1605 15.0152 36.7187 15.2415C36.2769 15.4679 35.788 15.5866 35.2916 15.5881Z"></path><path d="M37.4679 25.1517C34.1527 25.1579 30.9217 24.1074 28.2441 22.1526L28.0601 22.0192L31.7508 16.9411L31.9328 17.0746C33.5393 18.2489 35.478 18.8815 37.4679 18.8805C37.9698 18.8808 38.4708 18.8416 38.9665 18.7632C40.1934 18.572 41.3702 18.1395 42.4289 17.4908C43.4876 16.842 44.4072 15.9898 45.1346 14.9835L45.2681 14.7994L50.3563 18.4902L50.2228 18.6722C48.7569 20.68 46.8377 22.3134 44.6213 23.4393C42.4049 24.5653 39.9539 25.152 37.4679 25.1517Z"></path><path d="M14.9245 15.5881C14.2614 15.5887 13.6151 15.3792 13.0783 14.9897C12.5416 14.6002 12.1421 14.0506 11.937 13.42C11.732 12.7893 11.7319 12.1099 11.9369 11.4792C12.1419 10.8485 12.5414 10.299 13.0781 9.90943C13.612 9.51624 14.2574 9.3037 14.9205 9.30274C15.5836 9.30217 16.2299 9.51168 16.7667 9.9012C17.3034 10.2907 17.7029 10.8402 17.908 11.4709C18.113 12.1016 18.1131 12.781 17.9081 13.4117C17.7031 14.0423 17.3035 14.5919 16.7669 14.9814C16.233 15.3746 15.5876 15.5872 14.9245 15.5881Z"></path><path d="M18.0996 17.208L18.2816 17.0745C20.3094 15.601 21.6688 13.3824 22.061 10.9067C22.4531 8.43093 21.8458 5.9008 20.3727 3.87276L20.2413 3.69075L25.3193 0L25.4528 0.184032C27.904 3.55894 28.9144 7.76926 28.2617 11.889C27.609 16.0088 25.3467 19.7006 21.9724 22.1526L21.7883 22.2861L18.0996 17.208Z"></path><path d="M8.62742 34.9641C7.83607 34.9657 7.07318 34.669 6.49095 34.133C5.90873 33.597 5.54999 32.8613 5.48628 32.0725C5.42258 31.2837 5.65862 30.4999 6.14729 29.8774C6.63596 29.255 7.34134 28.8397 8.1227 28.7143C8.90407 28.589 9.70397 28.7628 10.3628 29.2012C11.0217 29.6396 11.491 30.3102 11.6772 31.0794C11.8634 31.8485 11.7528 32.6596 11.3675 33.3507C10.9821 34.0419 10.3503 34.5624 9.59814 34.8083C9.28477 34.911 8.95717 34.9635 8.62742 34.9641Z"></path><path d="M14.0653 30.0578C13.4477 28.1615 12.2471 26.5087 10.6347 25.335C9.02229 24.1613 7.08048 23.5267 5.08616 23.5217C4.09092 23.5227 3.10204 23.6803 2.1558 23.9888L1.93941 24.0657L0 18.0877L0.216389 18.0189C1.79067 17.5048 3.43614 17.2421 5.09223 17.2403C7.57045 17.239 10.0131 17.8297 12.2169 18.9633C14.06 19.8955 15.7001 21.1838 17.0421 22.7539C18.3841 24.3239 19.4014 26.1445 20.0352 28.1103L20.104 28.3267L14.1341 30.2661L14.0653 30.0578Z"></path></g></svg>