<svg viewBox="0.3594619929790497 0.9874989986419678 32.2452507019043 30.930225372314453" version="1.1" xmlns="http://www.w3.org/2000/svg" xmlns:xlink="http://www.w3.org/1999/xlink">
    <defs>
        <linearGradient x1="33.716946%" y1="2.93382794e-05%" x2="59.2544921%" y2="88.3819491%" id="linearGradient-1">
            <stop stop-color="#FFFFFF" stop-opacity="0" offset="0%"></stop>
            <stop stop-color="#71C2FF" offset="49.517274%"></stop>
            <stop stop-color="#39AAFF" offset="100%"></stop>
        </linearGradient>
    </defs>
    <g transform="translate(0.359462, 0.987499)" fill-rule="nonzero">
        <path d="M16.4254469,7.52506589 C16.3838386,7.52546019 16.344594,7.53957408 16.3182591,7.56362163 C16.2919242,7.58766918 16.2812002,7.61918386 16.2889688,7.64969682 L22.5000143,30.930225 C25.5048806,29.6360671 28.0449127,27.4583512 29.7827268,24.686336 L16.5482401,7.5767236 C16.5226453,7.54434279 16.4758134,7.52464376 16.4254469,7.52506589 L16.4254469,7.52506589 Z" id="path6733" fill="url(#linearGradient-1)" opacity="0.5"></path>
        <path d="M16.0620602,1.77635684e-15 C7.18149323,0.0333740924 0,7.24187565 0,16.1225052 C0,19.1514532 0.853105693,22.1191613 2.46178281,24.6856148 L15.9039454,7.30728117 C15.9488644,7.249043 16.0320388,7.21314877 16.1220699,7.21314877 C16.2121009,7.21314877 16.2952753,7.249043 16.3401943,7.30728117 L29.7830966,24.686336 C31.392034,22.1197136 32.2452493,19.1517345 32.2452493,16.1225052 C32.2452493,7.21831339 25.026909,1.77635684e-15 16.1227171,1.77635684e-15 C16.1024982,1.77635684e-15 16.0822792,1.77635684e-15 16.0620602,1.77635684e-15 L16.0620602,1.77635684e-15 Z" id="circle6810" fill="#2185D0"></path>
    </g>
</svg>
