<svg viewBox="0 0 90 90" xmlns="http://www.w3.org/2000/svg">
    <g fill="none" fill-rule="evenodd">
        <path fill="#86FFA0" d="M0 0h90v90H0z" />
        <path
            d="M65.663 45c-3.441-.907-4.487-3.782-4.652-7.673-.439-10.35 12.154-16.875 9.662-4.833-.687 3.325-2.477 7.893-5.01 12.506Zm17.493-3.826c-7.858 4.522-11.753 4.07-11.753 4.07 3.937-7.94 9.07-21.705-.752-23.966-14.327-3.298-23.168 23.719-8.37 28.549-4.693 7.197-10.438 13.382-14.59 13.377-5.355-.005.808-15.896.808-15.896l-4.879-2.311s-7.067 9.441-16.876 16.105c-5.94 4.035-6.544.577-3.84-2.9 5.479-7.035 14.508-15.58 10.808-19.014-3.113-2.888-6.752.877-7.36 1.55a7.05 7.05 0 0 1-.343.358c-1.132 1.11-5.86 5.432-10.716 5.432-3.78 0-5.461-1.776-5.461-1.776L5 49.086s6.947 6.404 18.112.88c0 0-5.396 5.785-7.76 9.635-3.947 6.429.38 12.212 10.748 7.868 5.553-2.325 13.935-10.463 13.935-10.463s-2.714 14.022 8.074 11.744c11.916-2.517 20.105-17.887 20.23-18.095 0 0 4.248-.051 9.02-1.476 3.283-.98 5.289-1.722 7.641-3.063l-1.844-4.942Z"
            fill="#003349" fill-rule="nonzero" />
    </g>
</svg>