<svg version="1.1" id="Layer_1" xmlns="http://www.w3.org/2000/svg" xmlns:xlink="http://www.w3.org/1999/xlink" x="0px" y="0px" style="enable-background:new 0 0 612 792;" xml:space="preserve" viewBox="5.97 95.87 600.16 600.25">
<style type="text/css">
	.st0{fill:#1A80B2;}
	.st1{fill:#42609D;}
	.st2{fill:#7588B5;}
	.st3{fill:#98D2BD;}
	.st4{fill:#C1E2CD;}
	.st5{fill:#03B7BB;}
	.st6{fill:#01A9BD;}
	.st7{fill:#3372AA;}
	.st8{fill:#0099BD;}
	.st9{fill:#938CBC;}
	.st10{fill:#48BFC6;}
	.st11{fill:#57C3C7;}
	.st12{fill:#7CCBC7;}
	.st13{fill:#FCFDFD;}
	.st14{fill:#4CA0BC;}
	.st15{fill:#035698;}
</style>
<path class="st0" d="M6.1,543.9c0-49.3,0-98.6,0-148c1.9-0.2,3.3,0.9,5,1.8c6.5,3.5,11.2,9.5,18,12.7c3.2,1.5,6.1,4.2,8.4,6.8
	c5.4,5.9,12.6,9.2,18.5,14.2c6.2,5.2,13,10.1,19.7,14.8c8.4,5.8,16.5,12.2,25.4,17.1c10.8,6,22.1,11,33.5,15.7
	c2.9,1.2,6.3,4.4,10.1,1.5c13.2,16.6,27.8,31.7,45.2,44c10.3,7.3,21.4,13.3,32.5,19.3c-0.5,2-0.1,3.6,1.6,4.9c1,0.8,3,1.4,3.1,2.2
	c0.2,5.2,4.2,4.8,7.3,4.9c6.1,0.2,12.3,0.7,18.3-0.9c22.4,5.7,45.1,8.2,68.3,7c1.7,0.1,3.5,0.2,5.2,0.3c-1,2.1-3,1.8-4.8,1.8
	c-5,0-10,0-14.9,0.1c-1.6,0-3.7-0.5-4,1.8c-0.2,2.1,1.4,3.4,3.3,3.8c2,0.5,3.2,1.4,4.8,2.8c3.8,3.4,5.7,8.9,10.5,10.9
	c5.3,2.1,5.4,10.5,12.6,9.8c0.2,0,0.4,1.3,0.9,1.7c4.4,3.2,6.8,9.4,13.6,9c-7.2,7.9-14.4,15.8-22.6,24.8c0-8.3,0-15,0-21.7
	c0-1.5,0.5-3.7-2.1-3.6c-2.6,0.1-5.3-0.8-7.8,0.8c-1.8,1.1-1.3,2.9-1.3,4.5c-0.1,5.1-0.1,10.3-0.1,15.4c-1.7-0.1-3.2,0.4-4.7,1.3
	c-3.4,2.2-7.2,3.1-11.3,2.6c-3.1-7-6.5-13.8-9.2-20.9c-1.4-3.5-3.6-3.6-6.6-3.7c-3.1,0-5.5,0.1-7,3.8c-4,9.8-8.5,19.3-12.8,28.9
	c-2.8,3-6.4,4.4-10.1,5.8c-0.9,0.4-2,0.7-2.1,1.8c-0.3,3.5-2.5,2.6-4.6,2.3c-0.8-1-1.6-2.1-2.4-3.1c-2.5-2.9-3.6-4.9,0.8-7.9
	c6-4.2,6.9-11,5.7-17.9c-1.3-6.9-5.9-10.9-12.5-12.7c-1.6-0.4-3.2-0.7-4.8-1.1c0.4-0.3,0.7-0.5,1.1-0.8c-0.3-0.1-0.5-0.4-0.8-0.4
	c-8.5,0-17,0-25.5,0c-1.9-0.1-3.1-1-3.1-3.1c0-1.4-0.4-2.6-2-3c-0.7-0.3-1.3-0.7-2-1c-5.1-3.9-10.1-8-15.8-11
	c-8-4.2-16.2-8.1-23.7-13.1c-6.2-4.1-13.3-6.6-19.2-11.3c-4.8-3.8-10.8-6-15-10.5c-5-5.3-6.1-12.8-7.7-19.2
	c-1.5-6.2-4.4-11.9-5.9-18.1c-1.7-7.4-4.7-14.6-7-21.9c-1.5-4.8-3-9.7-5-14.3c-1.2-2.7-2.7-5-2.8-8.2c0-3.5-3.8-5.9-7-4.7
	c-10.5,3.9-20,10-30.3,14.4c-9.1,3.9-17.5,9.9-27.1,13.1c-1.9,0.6-2.8,2.2-3.6,3.9c-6.2,13.2-12.3,26.4-18.8,39.4
	C9.4,537,9.2,541.2,6.1,543.9z"></path>
<path class="st1" d="M178,695.9c-56,0-112,0-167.9,0.1c-3.4,0-4.1-0.7-4.1-4.1c0.1-48.7,0.1-97.3,0.1-146c2.4,0.3,4.3,1.7,5.9,3.4
	c3.7,3.7,8,7,12.2,10c4.4,3.1,9.2,6.1,13.2,9.5c11.2,9.6,23.3,18,34.7,27.3c5.9,4.8,12.1,9.4,17.9,14.3c6.6,5.6,13.5,9.4,22.7,6.6
	c4.7-1.5,9.7-2.4,14.6-3c9.8-1.3,19.2-3.3,27-10.1c0.1,14.4,0.1,28.9,0.2,43.3c0,8.5,0,8.5,8.4,8.5c1.2,3,3.9,2.2,6,2.1
	c18.8-0.9,37.5,1.8,56.3,0.1c1.9-0.2,4.3-0.5,4.7,2.4c0.4,2.7-1.2,3.4-3.5,3.7c-0.9,0.1-1.9,0.6-2.7,1.2
	c-10.3,6.6-20.7,13.1-30.9,19.7c-1.5,1-2.2,2.9-4.4,2.9C182.8,687.9,180.3,691.8,178,695.9z"></path>
<path class="st2" d="M549.9,695.9c-76,0-152,0-227.9,0c3.3-4.3,8.6-5.6,13.1-7.4c13-5.4,25.2-12.4,38.3-17.5
	c7.4-2.9,14.4-7.4,21.8-10.8c2-0.9,2.9-2.1,2.9-4.1c1.7-0.6,3.3-1.3,5.2-1.2c2,0.1,4.2,0.2,3.9-2.8c-0.2-2.5,1.4-6-3.3-6
	c0.1-4.8,2.7-8.7,4.2-13c3-8.9,6.8-17.6,9.1-26.8c0,14.8,0.2,29.6,0,44.4c-0.1,4.3,2.2,4.2,5.3,4.3c3.4,0.1,4.8-0.8,4.6-4.5
	c-0.3-5.3-0.2-10.7,0-16c0.1-4.3-0.6-8.8,0.7-13.8c1.6,2,2.7,3.5,3.8,4.9c6.6,8.8,13.4,17.4,19.7,26.4c2.8,4,6.5,3.1,9.8,2.6
	c3.2-0.5,1.7-3.9,1.7-5.9c0.1-13.6,0-27.3,0.1-40.9c0-2.8-0.3-5.6-3.6-5.1c-2.5,0.4-6.6-0.4-6.1,4.9c0.5,6.4,0.1,13,0.1,19.5
	c0,3.3,0,6.7,0,10c-7.8-8.8-14.8-17.5-21.1-26.7c-3.5-5.1-7.4-8.3-13.8-7c3.3-4.5,4.8-9.9,6.5-14.9c2.8-8.3,6.3-16.3,9.2-24.5l0,0
	c1.2,0,1.9-0.6,2.3-1.8c10.4-0.8,20.7,0.8,31.2-1.8c7-1.8,14.8-1.5,22.1-1.8c12.9-0.5,25.6-3.6,38.6-2.6c1.8,12.3,1,24.8,1.8,37.2
	c1.4,22.8,1.7,45.7,2.2,68.6c0.1,4.2,1.4,7.6,3.8,11C541,680,545.8,687.8,549.9,695.9z"></path>
<path class="st3" d="M320,96.1c46,0,92,0,138,0c-0.9,2.7-3.5,2.3-5.4,2.8c-11.7,3.2-23.5,6.2-35.2,9.3c-4.8,1.3-5,1.9-1.5,5.2
	c3.6,3.4,7.4,6.7,11.1,10c19.2,16.6,38.4,33.2,57.7,49.9c1,0.8,1.8,2.5,3.2,2.1c1.8-0.6,1.1-2.6,1.1-4c0.1-9.8,0-19.6,0.1-29.5
	c0-1.1-0.3-2.5,1.1-3c1-0.4,1.9,0.4,2.6,1.1c4.2,4,8.4,8,12.6,12c10.3,9.9,20.4,19.9,30.9,29.6c12.7,11.7,25.6,23.2,38.5,34.7
	c10.4,9.3,20.8,18.5,31.3,27.8c0,0.3,0,0.7,0,1c-6.8,5.2-11.5,12.3-17.6,18.2c-2.6,2.5-5.2,3.3-8.6,2.2c-13-4.2-25.9-8.4-38.9-12.5
	c-8.2-2.6-16-6.5-24.8-7c0,0,0,0,0,0c-0.3-0.4-0.6-0.9-1-1.3c-0.3,0.4-0.7,0.8-1,1.2c-7.9,7.3-14.9,15.3-22.1,23.3
	c-3.7-7-7.3-13.9-11-20.9c2.7-22,5.3-44,8-66c0.4-3.4-0.6-4.7-4.2-3.2c-12,4.8-24.1,9.2-36,14.2c-3.4,1.5-8,1.6-9.8,6
	c-12.3-10.6-25.9-19.1-40-27c3.9-19.8,7.8-39.6,11.9-60.2c-3.4,1.4-4.7,3.2-6.1,4.8c-9.8,11-19.7,22-29.1,33.3
	c-2.6,3.1-6.1,5.6-7.5,9.7c-4.4-1.3-8.8-2.5-13.2-3.8c2.5-0.2,3.4-1.1,1.8-3.4c-1.6-2.3-3.3-4.6-4.8-7
	c-10.6-15.9-20.4-32.3-31.9-47.6l-0.1-0.1c0-0.3-0.1-0.5-0.2-0.8C319.9,96.9,319.9,96.5,320,96.1z"></path>
<path class="st4" d="M605.9,244c-10.4-9.3-20.9-18.5-31.3-27.8c-12.9-11.5-25.8-23-38.5-34.7c-10.5-9.7-20.6-19.7-30.9-29.6
	c-4.2-4-8.4-8-12.6-12c-0.7-0.7-1.6-1.5-2.6-1.1c-1.4,0.5-1.1,1.9-1.1,3c0,9.8,0,19.6-0.1,29.5c0,1.4,0.7,3.4-1.1,4
	c-1.4,0.5-2.2-1.2-3.2-2.1c-19.2-16.6-38.5-33.2-57.7-49.9c-3.8-3.3-7.5-6.6-11.1-10c-3.4-3.2-3.2-3.9,1.5-5.2
	c11.7-3.1,23.5-6.1,35.2-9.3c1.9-0.5,4.5-0.1,5.4-2.8c48.1,0,96.1,0,144.2-0.1c3.1,0,3.8,0.7,3.8,3.8
	C605.9,147.9,605.9,196,605.9,244z"></path>
<path class="st5" d="M174,96.1c0.3,0,0.7,0,1,0c13.5,23.2,26.9,46.4,40.4,69.6c0.5-0.2,0.9-0.4,1.4-0.5c1.1-9.7,2.2-19.4,3.1-29.1
	c0.3-2.8,0.1-5.7,2-8c19,6.6,37.9,13.3,57,19.8c2.1,0.7,3.6,1.6,4,3.9c-2.6,0.3-5.3,0.6-7.9,1c-31.9,5-61,16.8-87.3,35.5
	c-16.2,11.5-30.4,25.1-42.7,40.7c-8.9,11.3-15.9,23.6-23,36c0.1-1.3,0-2.7,0.4-3.9c1.5-4.5,0.5-6.3-4-5.8c-9.4,1-18.7,2.3-28.1,3.6
	c-7.8,1-15.5,2.2-23.3,3.3c-0.2-0.5-0.3-1-0.5-1.6c9.1-3.8,18.1-7.6,27.2-11.3c10.2-4.1,20.4-7.9,30.7-11.8c3.2-1.2,4-2.8,1.6-5.9
	c-2.6-3.2-5.5-6.1-8-9.3c-4.7-6.1-8.3-13.2-15.3-17.2c-3.2-1.8-6-4.1-9.1-6.1c-9-6-17.9-12-27-17.8c-5.8-3.7-6.1-3.3-9.9,1.9
	c-5.1,7-8.9,14.9-15,21.1c-0.8,0.8-0.7,2.6-2.2,2.3c-1.4-0.2-1.4-1.7-1.7-2.8c-2.9-9.9-5.5-19.8-8.8-29.6
	c-4.4-13.1-7.4-26.5-11.9-39.6c-2.9-8.6-4.7-17.6-8-26.1c-0.9-2.4-1.3-4.7-1.2-7.2c1.9,0.4,2.6,2,3.5,3.3
	c7.7,11.4,15.5,22.8,23.2,34.2c7.7,11.4,15.4,22.8,23.1,34.2c1.5,2.3,2.9,4.6,6.3,2.2c13.7-9.9,27.5-19.8,41.3-29.6
	c16-11.4,32.2-22.7,48.1-34.2C160.5,106.2,167.7,101.7,174,96.1z"></path>
<path class="st6" d="M8.2,101c-0.1,2.5,0.3,4.8,1.2,7.2c3.3,8.5,5,17.5,8,26.1c4.5,13,7.5,26.5,11.9,39.6c3.3,9.7,5.9,19.7,8.8,29.6
	c0.3,1.1,0.3,2.6,1.7,2.8c1.5,0.2,1.5-1.5,2.2-2.3c6.1-6.3,9.9-14.2,15-21.1c3.8-5.2,4.1-5.6,9.9-1.9c9.1,5.8,18,11.8,27,17.8
	c3,2,5.9,4.3,9.1,6.1c7.1,4,10.6,11.1,15.3,17.2c2.5,3.2,5.4,6.1,8,9.3c2.5,3.1,1.6,4.7-1.6,5.9c-10.2,3.9-20.5,7.8-30.7,11.8
	c-9.1,3.6-18.1,7.5-27.2,11.3c0.2,0.5,0.3,1,0.5,1.6c7.8-1.1,15.5-2.2,23.3-3.3c9.4-1.2,18.7-2.5,28.1-3.6c4.5-0.5,5.5,1.3,4,5.8
	c-0.4,1.2-0.3,2.6-0.4,3.9c-2.9,9.2-7.8,17.6-10.5,26.9c-6.7,22.5-10.1,45.3-9.7,68.8c0.2,12.9,2.6,25.4,4.3,38.1
	c-0.5,0.5-1.1,0.8-1.7,0.3c-5.1-4.2-10.3-8.4-15.4-12.6c-1.3-1.1-2.4-2.3-2.9-4c-6.4-20.5-12.7-41.1-19.5-61.6
	c-2.5-7.3-3.3-15.5-8.8-21.5c-15.4-16.7-31.1-33.2-46.6-49.8c-1.4-1.5-2.9-2.8-5.1-2.6c0-49.7,0-99.3,0-149
	C7.8,98.4,8.1,99.6,8.2,101z"></path>
<path class="st7" d="M154.4,604c-7.7,6.7-17.2,8.7-27,10.1c-4.9,0.7-9.9,1.6-14.6,3c-9.2,2.8-16.1-0.9-22.7-6.6
	c-5.8-4.9-11.9-9.5-17.9-14.3c-11.5-9.2-23.5-17.7-34.7-27.3c-4-3.4-8.8-6.4-13.2-9.5c-4.2-2.9-8.5-6.2-12.2-10
	c-1.7-1.7-3.5-3.1-5.9-3.4c0-0.7,0-1.3,0-2c3.1-2.7,3.3-6.9,5.1-10.4c6.5-13,12.6-26.3,18.8-39.4c0.8-1.7,1.7-3.3,3.6-3.9
	c9.6-3.2,18-9.2,27.1-13.1c10.3-4.4,19.8-10.5,30.3-14.4c3.2-1.2,6.9,1.2,7,4.7c0,3.2,1.6,5.5,2.8,8.2c2,4.6,3.5,9.5,5,14.3
	c2.3,7.3,5.3,14.5,7,21.9c1.4,6.2,4.4,11.8,5.9,18.1c1.6,6.4,2.7,13.9,7.7,19.2c4.2,4.5,10.2,6.6,15,10.5
	c5.8,4.7,12.9,7.2,19.2,11.3c7.5,4.9,15.7,8.8,23.7,13.1c5.7,3,10.7,7.1,15.8,11c-0.9,0.3-1.8,0.8-2.8,0.9c-4.8,0.8-9.8,2-14.3,3.2
	c-6,1.6-11.8,3.5-18,3.9c0,0,0,0,0,0c-0.3-0.1-0.5-0.2-0.8-0.2c-1.4,0.1-2.8,0.3-4.2,0.4C158.1,603.5,156.1,602.8,154.4,604z"></path>
<path class="st8" d="M6.1,247c2.2-0.2,3.7,1.1,5.1,2.6c15.6,16.6,31.2,33.1,46.6,49.8c5.5,6,6.4,14.2,8.8,21.5
	c6.8,20.4,13.1,41,19.5,61.6c0.5,1.7,1.6,2.9,2.9,4c5.1,4.3,10.2,8.5,15.4,12.6c0.6,0.5,1.2,0.2,1.7-0.3c3,9.5,5.3,19.1,8.9,28.4
	c6,15.7,14.1,30.2,23,44.3c0,1.3,0.5,2.2,1.9,2.6l0.2,0.3c0.3,0.6,0.6,1.1,0.9,1.7c0.3,0.4,0.6,0.8,0.9,1.1c0.1,1.1,0.3,2.2,1.8,2.1
	l0,0.1c0.3,0.4,0.6,0.8,0.9,1.2c0,0,0.1,0,0.1,0c-3.8,2.8-7.2-0.3-10.1-1.5c-11.4-4.8-22.7-9.8-33.5-15.7
	c-8.9-4.9-17-11.3-25.4-17.1c-6.8-4.7-13.5-9.6-19.7-14.8c-6-5-13.2-8.3-18.5-14.2c-2.3-2.5-5.2-5.3-8.4-6.8
	c-6.8-3.1-11.4-9.2-18-12.7c-1.6-0.9-3-2-5-1.8C6.1,346.3,6.1,296.7,6.1,247z"></path>
<path class="st9" d="M549.9,695.9c-4.1-8.1-8.9-15.9-14.3-23.2c-2.4-3.3-3.7-6.7-3.8-11c-0.5-22.9-0.8-45.8-2.2-68.6
	c-0.8-12.4,0.1-24.9-1.8-37.2c2.1-2.2,4.8-1.9,7.5-2c12.3-0.6,24.3-3.4,36.6-4.5c9.6-0.9,19.2-3.1,29-3.6c1.7,0.1,3.3,0.1,5,0.2
	c0,48.8,0,97.6,0.1,146.5c0,3-0.6,3.6-3.6,3.6C584.9,695.8,567.4,695.9,549.9,695.9z"></path>
<path class="st7" d="M398.1,656c0,2-0.9,3.2-2.9,4.1c-7.4,3.4-14.4,7.9-21.8,10.8c-13.1,5.2-25.3,12.1-38.3,17.5
	c-4.5,1.9-9.8,3.1-13.1,7.4c-48,0-96,0-144,0c2.3-4.1,4.8-8,10.2-8c2.2,0,2.9-2,4.4-2.9c10.3-6.6,20.6-13.2,30.9-19.7
	c0.8-0.5,1.8-1.1,2.7-1.2c2.3-0.2,3.9-1,3.5-3.7c-0.4-2.9-2.8-2.5-4.7-2.4c-18.8,1.8-37.5-1-56.3-0.1c-2.2,0.1-4.8,0.9-6-2.1
	c0.4-0.4,0.8-0.7,1.2-1.1l0.3-0.3c0-0.9,0.1-1.7,0.1-2.6c0.1-3.1,3.5-3.9,4.5-6c2.9-6.6,6.6-6.2,11.2-2l0,0c0.1,0.9,0.4,1.5,1.4,1.7
	l-0.3,0.1c0.4,0.5,0.8,0.9,1.3,1.4c3.8,6.6,8.9,10,17.1,7.2c-2.6-4-5.2-7.9-7.8-11.8c0.3-4.1-2-6.4-5.5-7.7l0-0.1
	c-0.3-0.4-0.6-0.8-0.9-1.3l0,0.1c-2.5-4.8-1.6-9.4,0.9-13.9c0.3-0.5,0-1.3,0-2l0,0.1c0.4-0.4,0.7-0.8,1.1-1.1l-0.1,0.2
	c0.3-0.4,0.6-0.8,0.9-1.2l0,0.4l0-0.4c1-0.1,1.4-0.7,1.6-1.7c1.8-2,3.6-4,5.4-6c1.9,0,2.6-1.1,2.6-2.9l0,0c4.2-1.7,3.1-5.7,4-8.9
	c1.6,0.4,2,1.5,2,3c0,2.1,1.1,3,3.1,3.1c0.4,0.4,0.9,0.7,1.3,1.1c-0.3,0.9-0.5,1.9-0.8,2.8c-2.2-1.8-1.6,0.4-1.6,1.2
	c0,6.7,0,13.3,0,20c0,8.4,0,16.8,0,25.2c1-8.8,0.8-17.6,1-26.4c0.1-6-0.8-12,0.6-17.9c0.1,14.1,0.2,28.3,0.2,42.4
	c0,5.6,2.1,6.7,7.4,4.7c4.1-1.5,2.2-4.8,2.3-7.2c0.2-8.6,0.1-8.6,8.5-8c-0.2,2.5-0.2,5,2.6,6.3c1.2,0.6,1.2,1.8,1.3,3
	c0.8,7,2.3,7.8,9.2,5.6c2.8,1.6,5.8,0.9,8.7,0.7c1.6-0.1,3.1-1.2,1.5-3.4c-1.4-2-2.6-4.2-3.9-6.3c2.1,0.3,4.4,1.1,4.6-2.3
	c0.1-1.1,1.2-1.4,2.1-1.8c3.6-1.5,7.3-2.9,10.1-5.8c-2.2,5.3-4.5,10.7-6.7,16c-0.5,1.3-1.6,2.8,0.7,3.6c3.4,1.3,8.5-0.1,9.2-3.5
	c1.6-7.9,6.5-9.2,13.4-8.3c2.1,0.3,4.4,0.4,6.5,0c6.8-1.2,11,1.4,12.4,8.2c0.2,0.8,0.6,1.6,1.1,2.2c2.9,3.7,6.2,0.3,9,0
	c2.2-0.2,0-2.7-0.5-4c-3-7.5-6.2-15-9.4-22.5c4.1,0.5,7.9-0.4,11.3-2.6c1.5-0.9,2.9-1.5,4.7-1.3c0,8.2,0,16.4,0.1,24.6
	c0,1.7-0.6,3.7,1.3,5c2.2,4.5,5.4,1.2,8.2,1c2.8-0.2,2-2.9,1.8-4.3c-1.1-6.5,1.8-11.1,6.2-15.3c1.8-1.7,2.6-1.9,4,0.2
	c3.7,5.3,7.8,10.4,11.3,15.9c2.4,3.9,5.4,5.5,9.8,4.8c1.3-0.2,2.9,0.4,3.6-1c1-1.7-0.7-2.7-1.5-3.8c-5.3-7.6-10.7-15.2-16.1-22.8
	c-1.2-1.7-2.4-3-0.4-5.1c4-4,7.7-8.2,11.6-12.4c0.2,1.4,0.4,2.9,2.1,3.3c2.7,2.9,5.2,6,8.3,8.5c3,2.5,4,5.3,3.9,9
	c-0.2,7.8-0.1,15.6-0.1,23.3c1.2,1.1,2.7,1.1,4.2,1c8,0,15.9-0.1,23.9-0.1C396.7,655.8,397.4,655.9,398.1,656z"></path>
<path class="st10" d="M605.9,392c0,1.3,0,2.7,0,4c-4.2,2-7.4,5.3-11,8.1c-5.6,4.3-11.6,8.2-16.5,13.2c-8.2,8.5-17.8,15.5-26.3,23.6
	c-0.6,0.5-1.4,0.8-2.1,1.2c-4.7-11.7-9.5-23.3-14.2-35c-2.5-6.3-6.4-12.4-7.3-18.9c-1.7-11.9-3-24-4.5-36l0.2-0.3
	c2.1-2.9,4.3-5.9,6.4-8.8c17.1-24.1,34.3-48.2,51.4-72.3c0.6-0.8,0.7-2,2-1.7c1,0.2,1,1.3,1.1,2c0.3,1.3,0.6,2.6,0.8,3.9
	c1.6,10,3.2,20,4.8,30c3.1,18.5,6,37,9.4,55.5C602,370.8,603,381.6,605.9,392z"></path>
<path class="st11" d="M8.2,101c-0.1-1.4-0.4-2.7-2.1-3c0.4-0.6-1-2.1,1-2c1.2,0.1,2.3,0,3.5,0c54.5,0,109,0,163.5,0
	c-6.3,5.7-13.6,10.1-20.4,15c-16,11.5-32.1,22.8-48.1,34.2c-13.8,9.8-27.6,19.7-41.3,29.6c-3.3,2.4-4.7,0.1-6.3-2.2
	c-7.7-11.4-15.4-22.8-23.1-34.2c-7.7-11.4-15.4-22.8-23.2-34.2C10.7,103,10,101.4,8.2,101z"></path>
<path class="st11" d="M549.9,442c0.7-0.4,1.6-0.6,2.1-1.2c8.6-8.1,18.1-15,26.3-23.6c4.9-5,10.9-8.9,16.5-13.2
	c3.6-2.8,6.8-6.1,11-8.1c0,46.3,0,92.6,0,139c-2.9-1.1-3.1-4.3-3.4-6.2c-0.8-4.7-3.3-4.9-7-4.8c-6.7,0.2-13.3,0.1-20,0.1
	c-7.3-0.1-14.6-0.5-21.3,3.5c-1.7,1-4.2,1.1-5.7-0.2c-4.8-4.3-4.5-0.3-4.8,2.8c-4.6-0.8-6.6-3.5-6-8.1c1-7.4,2-14.8,3.1-22.1
	c1.6-10.9,3.3-21.9,5-32.8C547.2,458.6,548.6,450.3,549.9,442z"></path>
<path class="st12" d="M605.9,392c-2.9-10.4-3.9-21.2-5.9-31.8c-3.4-18.4-6.3-37-9.4-55.5c-1.7-10-3.2-20-4.8-30
	c-0.2-1.3-0.5-2.6-0.8-3.9c-0.2-0.8-0.2-1.8-1.1-2c-1.3-0.3-1.5,0.9-2,1.7c-17.1,24.1-34.2,48.2-51.4,72.3c-2.1,3-4.3,5.9-6.4,8.8
	c-1.3-8.9-1.8-17.8-2.3-26.8c-0.4-9.3-1.6-18.5-2.2-27.8c-1.2-17-3.7-34-3.7-51.1c8.8,0.4,16.6,4.4,24.8,7c13,4.1,26,8.3,38.9,12.5
	c3.4,1.1,6,0.3,8.6-2.2c6.1-5.9,10.9-13,17.6-18.2C605.9,294,605.9,343,605.9,392z"></path>
<path class="st11" d="M283,151.7c-0.4-2.3-1.9-3.1-4-3.9c-19-6.5-38-13.2-57-19.8c10.5-5.4,22-8.2,33.2-11.5
	c18.4-5.5,36.4-12.4,54.9-17.5c1.6-0.4,2.6-1.3,2.9-3c1.3,0,2.7,0,4,0c0.3,0,0.7,0,1,0c0.7,0,1.3,0,2,0c-0.1,0.4-0.1,0.8-0.2,1.2
	c-0.2,0.3-0.2,0.6,0.2,0.8c0,0,0.1,0.1,0.1,0.1c0.1,2.5-0.1,5,0.5,7.4c3.3,13.7,5.3,27.6,8,41.3c0.3,1.6,0.2,2.9-0.6,4.3
	C312.9,150.3,297.9,149.5,283,151.7z"></path>
<path class="st10" d="M313,96.1c-0.3,1.7-1.3,2.5-2.9,3c-18.5,5.1-36.5,12-54.9,17.5c-11.2,3.3-22.7,6.1-33.2,11.5
	c-1.9,2.4-1.8,5.2-2,8c-1,9.7-2.1,19.4-3.1,29.1c-0.5,0.2-0.9,0.4-1.4,0.5c-13.5-23.2-26.9-46.4-40.4-69.6
	C221,96.1,267,96.1,313,96.1z"></path>
<path class="st2" d="M543.8,530c0.3-3.1-0.1-7.1,4.8-2.8c1.6,1.4,4,1.2,5.7,0.2c6.7-4,14-3.5,21.3-3.5c6.7,0.1,13.3,0.1,20-0.1
	c3.7-0.1,6.2,0.2,7,4.8c0.3,1.9,0.5,5.1,3.4,6.2c0,3.7,0,7.3,0,11c-1.7-0.1-3.3-0.1-5-0.2c-0.2-3.5-3.2-3.2-5.3-3.8
	c-6.2-1.6-12.5-2.9-18.8-4.3C565.8,535.1,554.8,532.5,543.8,530z"></path>
<path class="st10" d="M318,96.1c-0.3,0-0.7,0-1,0C317.3,96.1,317.7,96.1,318,96.1z"></path>
<path class="st13" d="M283,151.7c14.9-2.2,29.9-1.4,44.9-0.5c0,0,0.1,0,0.1,0c0.9,0.8,1.9,0.8,3,0.6c8,1.5,16,2.9,23.9,4.4
	c4.4,1.3,8.8,2.5,13.2,3.8c10.5,3.5,20.7,8,30.8,12.4c14.1,7.9,27.7,16.4,40,27c10.2,8.9,19.6,18.5,27.8,29.2
	c4.9,6.4,9.5,13.2,14.2,19.8c3.7,7,7.3,13.9,11,20.9c4.6,11.2,8.9,22.5,12.1,34.3c2.8,10.5,4.1,21.2,5.8,31.8
	c0.2,5.5,0.4,11,0.6,16.5c0.8,28.5-3.8,56-14.2,82.5c-4.9,12.6-11.6,24.2-18.2,35.9c-6.8,8.7-13.2,17.8-20.7,26
	c-11.7,12.8-25.2,23.5-39.2,33.5c-0.5,0.2-1,0.2-1.4,0.5c-24,15.5-50.3,25.1-78.4,29.7c-5.7,0.6-11.4,1.3-17.2,1.9
	c-23.1,1.2-45.9-1.2-68.3-7c-1.9-1.8-4.5-0.5-6.6-1.5c-7.6-3.9-15.8-6.3-23.7-9.6c-11.1-6-22.2-11.9-32.5-19.3
	c-17.4-12.3-32-27.4-45.2-44c0,0-0.1,0-0.1,0c-0.3-0.4-0.6-0.8-0.9-1.2c0,0,0-0.1,0-0.1c-0.2-1-0.8-1.8-1.8-2.1
	c-0.3-0.4-0.6-0.8-0.9-1.2c0.2-0.8-0.2-1.3-0.9-1.7c0,0-0.2-0.3-0.2-0.3c-0.2-1.2-0.9-2-1.9-2.6c-8.9-14.1-17.1-28.6-23-44.3
	c-3.5-9.3-5.9-18.9-8.9-28.4c-1.7-12.7-4-25.2-4.3-38.1c-0.4-23.5,2.9-46.3,9.7-68.8c2.8-9.3,7.6-17.7,10.5-26.9
	c7.1-12.4,14.1-24.7,23-36c12.3-15.6,26.5-29.2,42.7-40.7c26.3-18.7,55.4-30.5,87.3-35.5C277.7,152.3,280.4,152,283,151.7z
	 M242,350.1c0.4,0.4,0.8,0.9,1.2,1.3c0,0.3,0.2,0.4,0.4,0.4c3.3,5,4.7,10.3,4.6,16.4c-0.2,18.8-0.2,37.5-0.1,56.3
	c0,5.8,0.8,11.6,5.9,15.6c6.3,6.8,14,8.1,22.3,4.9c8.2-3.2,12.7-9.7,12.8-18.5c0.2-20.1,0.1-40.3,0.1-60.4c0-6.3,2-11.8,6.7-16
	c6.5-5.8,14.1-7,21.8-3.6c8,3.6,12.1,10.2,12.1,19.1c0.1,20.5-0.1,40.9,0.2,61.4c0.2,11,8.3,18.9,19.4,19.6
	c9.8,0.7,18.7-6.4,20.7-16.4c1.3-2,0.8-4.2,0.8-6.3c0-18.3,0-36.5,0-54.8c0-4,0.2-7.9,1.4-11.8l-0.3-0.2c0,0,0.3,0.2,0.3,0.2
	c0.4-0.7,0.9-1.5,1.3-2.2c5-7.1,11.7-10.9,20.5-9.5c10.4,1.7,16.9,9.3,17.1,20.2c0.2,19.7,0,39.3,0.1,59c0,12.9,8.9,22.1,20.8,21.9
	c11.8-0.2,20-9,20-21.9c0-19.5-0.2-39,0.1-58.5c0.3-18.5-2.8-36.5-9.9-53.4c-20.9-49.7-58-79.6-111.4-88.9
	c-14.1-2.7-28.1-2.7-42.2-0.1c-1,0.1-2,0-3,0.2C220.9,234.4,169.4,291.6,167,357c-0.9,23.3-0.2,46.6-0.2,69.9
	c0,5.7,2.3,10.4,6.5,14.1c6.6,5.9,14.3,7.1,22.3,3.7c8.1-3.5,12.1-10.2,12.1-19c0.1-19.5,0-39,0.1-58.4c0-17.2,12.4-26.1,28.8-20.9
	C238.3,347.6,240.2,348.8,242,350.1L242,350.1z"></path>
<path class="st8" d="M338.1,560c28.1-4.6,54.4-14.2,78.4-29.7c0.4-0.3,0.9-0.3,1.4-0.5c-2.4,3.5-1.6,6.4,1.5,8.9
	c1.8,1.5,2.8,3.2,2.6,5.5c-0.1,1.3,0.3,2.5,1.2,3.7c2.8,3.7,6,7.3,7,12.1c0.4,1.9,2.1,1.9,3.6,1.9c0,0.6,0.1,1.3,0.1,1.9
	c0,0,0,0,0,0c-4.9-0.2-6.5,4.7-10.3,6.4c-6.9,3.1-12.8,8-19.1,12.2c-4.7,3.1-9,7-14.1,9.1c-6.1,2.6-10.8,7.2-16.4,10.4
	c-1.4,0.1-2.7,0.2-4.1,0.3c-3,0.9-2.7,5.2-6,5.7c-2.8-1.1-5.1,3.9-8,0.7c0.7-1.8,2.9-2.6,3-5.2c-3.7-0.1-7.3-0.4-10.9,0.4
	c-6.8,0.4-9.2-5.8-13.6-9c-0.5-0.3-0.6-1.7-0.9-1.7c-7.2,0.6-7.3-7.7-12.6-9.8c-4.8-1.9-6.6-7.5-10.5-10.9c-1.6-1.4-2.8-2.3-4.8-2.8
	c-1.8-0.5-3.5-1.7-3.3-3.8c0.3-2.3,2.5-1.8,4-1.8c5-0.1,10,0,14.9-0.1c1.8,0,3.8,0.3,4.8-1.8C330.1,561.1,334.6,563.4,338.1,560z"></path>
<path class="st13" d="M207.6,605.9c0.3-0.9,0.5-1.9,0.8-2.8c7.9,0,15.9,0.1,23.8,0.1c1.6,0.4,3.2,0.7,4.8,1.1
	c6.7,1.8,11.2,5.7,12.5,12.7c1.3,6.9,0.4,13.8-5.7,17.9c-4.4,3-3.3,5-0.8,7.9c0.9,1,1.6,2.1,2.4,3.1c1.3,2.1,2.5,4.3,3.9,6.3
	c1.5,2.2,0.1,3.3-1.5,3.4c-2.9,0.2-5.9,0.8-8.7-0.7c-1.3-4.2-3.9-7.6-5.9-11.4c-1.6-3-3.9-4.2-7.2-3.5c-8.4-0.6-8.3-0.6-8.5,8
	c-0.1,2.4,1.9,5.6-2.3,7.2c-5.3,2-7.4,0.9-7.4-4.7c-0.1-14.1-0.2-28.3-0.2-42.4C207.6,607.3,207.6,606.6,207.6,605.9z M217.9,612.8
	c-0.1,1.8-0.3,3.6-0.3,5.4c0,14.2,0,14.2,14.4,12.3c5-0.4,7.9-3,8.4-8c0.4-4.1-0.6-7.8-4.8-9.3C229.9,611.2,223.9,611.2,217.9,612.8
	z"></path>
<path class="st13" d="M348,603.9c3.6-0.9,7.2-0.5,10.9-0.4c-0.1,2.5-2.4,3.4-3,5.2c-0.7,0.7-1.3,1.4-2,2.1
	c-3.8,4.1-7.6,8.4-11.6,12.4c-2.1,2.1-0.8,3.4,0.4,5.1c5.4,7.6,10.8,15.2,16.1,22.8c0.8,1.1,2.4,2.1,1.5,3.8c-0.8,1.4-2.4,0.8-3.6,1
	c-4.4,0.7-7.4-0.9-9.8-4.8c-3.5-5.5-7.6-10.5-11.3-15.9c-1.4-2.1-2.2-1.9-4-0.2c-4.5,4.2-7.3,8.8-6.2,15.3c0.2,1.5,1.1,4.2-1.8,4.3
	c-2.7,0.2-6,3.5-8.2-1c0-16.5,0.1-33,0.1-49.5c2.5-1.6,5.2-0.6,7.8-0.8c2.7-0.1,2.1,2,2.1,3.6c0,6.7,0,13.4,0,21.7
	C333.6,619.6,340.8,611.8,348,603.9z"></path>
<path class="st13" d="M298,627.9c3.1,7.5,6.3,14.9,9.4,22.5c0.5,1.3,2.7,3.7,0.5,4c-2.9,0.3-6.2,3.7-9,0c-0.5-0.6-0.9-1.4-1.1-2.2
	c-1.4-6.9-5.6-9.4-12.4-8.2c-2.1,0.4-4.3,0.3-6.5,0c-6.8-0.9-11.7,0.5-13.4,8.3c-0.7,3.4-5.8,4.8-9.2,3.5c-2.3-0.9-1.2-2.4-0.7-3.6
	c2.2-5.4,4.5-10.7,6.7-16c4.3-9.6,8.8-19.2,12.8-28.9c1.5-3.7,3.9-3.8,7-3.8c3,0,5.2,0.2,6.6,3.7C291.5,614.1,294.9,620.9,298,627.9
	z M288.2,630.3c-1.5-5.4-3.9-10.3-6.6-16.4c-2.2,5.7-4,10.2-5.8,14.8c-1.3,1.9-2.2,3.9-2.6,6.7c4.2,0,8.2,0,12.1,0
	C291,635.3,291,635.3,288.2,630.3z"></path>
<path class="st1" d="M202,596c-1,3.1,0.1,7.2-4,8.9c-0.2-1.9-1.5-2.8-3-2.5c-3.6,0.7-7.3,0.6-10.2,4c-6.3,7.2-13.1,14-19.7,21
	c0-8.1-0.1-16.2-0.1-24.3c6.2-0.4,12-2.2,18-3.9c4.5-1.2,9.5-2.4,14.3-3.2c0.9-0.2,1.8-0.6,2.8-0.9C200.7,595.3,201.3,595.6,202,596
	z"></path>
<path class="st8" d="M222.4,543.8c7.9,3.2,16.1,5.7,23.7,9.6c2.1,1.1,4.7-0.2,6.6,1.5c-6,1.5-12.2,1.1-18.3,0.9
	c-3.1-0.1-7.1,0.3-7.3-4.9c0-0.8-2-1.4-3.1-2.2C222.3,547.5,221.9,545.8,222.4,543.8z"></path>
<path class="st1" d="M315.4,604.1c0,16.5-0.1,33-0.1,49.5c-1.8-1.3-1.2-3.3-1.3-5c-0.1-8.2-0.1-16.4-0.1-24.6c0-5.1,0-10.3,0.1-15.4
	C314.1,607,313.6,605.2,315.4,604.1z"></path>
<path class="st1" d="M232.3,603.2c-7.9,0-15.9-0.1-23.8-0.1c-0.4-0.4-0.9-0.7-1.3-1.1c8.5,0,17,0,25.5,0c0.3,0,0.5,0.2,0.8,0.4
	C233,602.7,232.7,602.9,232.3,603.2z"></path>
<path class="st14" d="M338.1,560c-3.5,3.4-8,1.1-11.9,2.2c-1.7-0.1-3.5-0.2-5.2-0.3C326.6,561.3,332.4,560.6,338.1,560z"></path>
<path class="st13" d="M165.1,627.4c6.6-7,13.4-13.8,19.7-21c2.9-3.3,6.6-3.2,10.2-4c1.5-0.3,2.9,0.6,3,2.5c0,0,0,0,0,0
	c-0.9,1-1.7,1.9-2.6,2.9c-1.8,2-3.6,4-5.4,6c-0.5,0.6-1,1.1-1.6,1.7c0,0,0,0.4,0,0.4s0-0.4,0-0.4c-0.3,0.4-0.6,0.8-0.9,1.2
	c0,0,0.1-0.2,0.1-0.2c-0.4,0.4-0.7,0.8-1.1,1.1c0,0,0-0.1,0-0.1c-8.3,9.4-8.7,5.5-0.9,15.8c0,0,0-0.1,0-0.1c0.3,0.4,0.6,0.8,0.9,1.3
	c0,0,0,0.1,0,0.1c1.8,2.6,3.7,5.1,5.5,7.7c2.6,3.9,5.2,7.8,7.8,11.8c-8.2,2.8-13.3-0.6-17.1-7.2c-0.4-0.5-0.8-0.9-1.3-1.4
	c0,0,0.3-0.1,0.3-0.1c-0.5-0.6-0.9-1.1-1.4-1.7c0,0,0,0,0,0c-2.5-3.6-4.9-7.2-7.3-10.7c-6.6,4.8-10.4,10.6-8.4,18.7
	c0,0.9-0.1,1.7-0.1,2.6c-0.2,0-0.3,0.1-0.3,0.3c-0.4,0.4-0.8,0.7-1.2,1.1c-8.4,0-8.3,0-8.4-8.5c0-14.4-0.1-28.9-0.2-43.3
	c1.8-1.1,3.8-0.4,5.6-0.8c3.3,0.2,4.4,1.8,4.2,5.1c-0.3,3.8-0.3,7.7,0,11.4C164.4,622.2,162.8,625,165.1,627.4z"></path>
<path class="st14" d="M543.8,530c11,2.6,22,5.2,33,7.7c6.3,1.5,12.6,2.8,18.8,4.3c2.2,0.5,5.1,0.3,5.3,3.8c-9.8,0.5-19.3,2.8-29,3.6
	c-12.3,1.1-24.3,3.9-36.6,4.5c-2.6,0.1-5.4-0.2-7.5,2c-13-1-25.7,2.1-38.6,2.6c-7.3,0.3-15,0-22.1,1.8c-10.4,2.6-20.8,1-31.2,1.8
	c-0.1-0.1-0.3-0.3-0.4-0.4c0.6-4.5,3.9-7.6,5.9-11.3c7.1-13.1,15.6-25.2,22.8-38.2c3.6-6.4,8.1-12.1,11.6-18.5c2.7-5,4.3-11,9.9-14
	c0.8,0.6,1.7,1,2.4,1.7c14,14,27.9,28,42.8,41c3,2.7,4.8,3.7,6.7-0.6C537.2,526.5,539.2,529.1,543.8,530z"></path>
<path class="st14" d="M374,601.8c5.6-3.2,10.2-7.8,16.4-10.4c5.1-2.2,9.4-6,14.1-9.1c6.3-4.2,12.2-9,19.1-12.2
	c3.8-1.7,5.5-6.6,10.3-6.4c-3,8.2-6.4,16.2-9.2,24.5c-1.7,5.1-3.2,10.4-6.5,14.9c-0.3,0.9-0.7,1.9-1,2.8c-2.3,9.2-6.1,17.8-9.1,26.8
	c-1.5,4.3-4.1,8.3-4.2,13c-5,0.4-10,0.4-15,0c-0.6-0.3-1.1-0.6-1.7-0.9c-3.7-1.5-7.4-3.7-6.8-7.9c0.6-4.1,5-1.4,7.5-2.3
	c0.1-0.1,0.3-0.2,1.4-0.9c-4,0-7,0-10,0c1.4-1.4,3.2-0.7,4.7-0.7c5.5-0.1,11-0.2,16.5,0c3.2,0.1,3.4-1.8,3.3-4.2
	c-0.1-2.3,0-4.3-3.3-4.2c-4.3,0.2-8.6,0.1-13,0.1c-9.1,0-9,0-8.8-9c0.1-3,0.9-4.1,4-4c6.5,0.2,13-0.1,19.4,0.1
	c3.5,0.1,4.9-1,4.5-4.5c-0.2-1.5,0-3-0.7-4.4c-1.4-1.7-3.3-1.2-5.1-1.2C391.8,601.9,382.9,601.9,374,601.8z"></path>
<path class="st13" d="M417.2,606.1c0.3-0.9,0.7-1.9,1-2.8c6.4-1.2,10.3,1.9,13.8,7c6.3,9.2,13.3,17.9,21.1,26.7c0-3.3,0-6.7,0-10
	c0-6.5,0.4-13-0.1-19.5c-0.5-5.3,3.6-4.6,6.1-4.9c3.3-0.5,3.7,2.3,3.6,5.1c-0.1,13.6,0,27.3-0.1,40.9c0,2,1.5,5.4-1.7,5.9
	c-3.3,0.5-7,1.4-9.8-2.6c-6.3-9-13.1-17.6-19.7-26.4c-1.1-1.4-2.2-2.9-3.8-4.9c-1.3,5-0.5,9.5-0.7,13.8c-0.1,5.3-0.3,10.7,0,16
	c0.2,3.7-1.2,4.6-4.6,4.5c-3.1-0.1-5.3,0-5.3-4.3C417.4,635.7,417.2,620.9,417.2,606.1z"></path>
<path class="st13" d="M388.9,645.9c5,0.5,10,0.4,15,0c4.7,0,3.1,3.6,3.3,6c0.3,3-1.9,3-3.9,2.8c-1.9-0.1-3.5,0.6-5.2,1.2
	c-0.7-0.1-1.3-0.1-2-0.2c-1.2-1.7-3-1-4.5-1c-7.4-0.1-14.8,0-22.2,0c-0.1-16.2-0.2-32.4-0.3-48.6c0-1.2,0.3-2.3,1.3-3
	c11.8,0,23.7,0,35.5,0c0.8,1.4,0.5,2.9,0.7,4.4c0.4,3.5-1,4.6-4.5,4.5c-6.5-0.3-13,0.1-19.4-0.1c-3.1-0.1-3.9,1-4,4
	c-0.2,9-0.3,9,8.8,9c4.3,0,8.6,0.1,13-0.1c3.3-0.1,3.2,1.9,3.3,4.2c0.1,2.4-0.1,4.2-3.3,4.2c-5.5-0.1-11-0.1-16.5,0
	c-1.6,0-3.3-0.6-4.7,0.7c-0.1,0.8-0.3,1.6-0.3,2.4C379,647.7,376.4,646.2,388.9,645.9z"></path>
<path class="st14" d="M433.8,563.8c0-0.6-0.1-1.3-0.1-1.9c0.7-0.1,1.3-0.1,2-0.2c0.1,0.1,0.3,0.3,0.4,0.4
	C435.8,563.2,435.1,563.8,433.8,563.8z"></path>
<path class="st12" d="M480.8,248.3c-4.7-6.6-9.3-13.4-14.2-19.8c-8.2-10.7-17.7-20.3-27.8-29.2c1.8-4.4,6.4-4.5,9.8-6
	c11.8-5.1,24-9.4,36-14.2c3.6-1.5,4.6-0.2,4.2,3.2C486.2,204.4,483.5,226.3,480.8,248.3z"></path>
<path class="st11" d="M509.6,335.3c-1.7-10.6-3-21.4-5.8-31.8c-3.1-11.8-7.4-23.1-12.1-34.3c7.2-7.9,14.2-16,22.1-23.3
	c0.7,0,1.3,0,2,0.1c0,0,0,0,0,0c0,17.1,2.5,34.1,3.7,51.1c0.6,9.3,1.8,18.5,2.2,27.8c0.4,9,1,17.9,2.3,26.8c0,0-0.2,0.3-0.2,0.3
	c-4-4.2-6.3-9.7-10-14.2C512.8,336.7,512.6,333.5,509.6,335.3z"></path>
<path class="st12" d="M398.9,172.4c-10.1-4.5-20.3-9-30.8-12.4c1.4-4.1,4.9-6.6,7.5-9.7c9.5-11.3,19.4-22.2,29.1-33.3
	c1.4-1.6,2.7-3.4,6.1-4.8C406.7,132.8,402.8,152.6,398.9,172.4z"></path>
<path class="st10" d="M354.9,156.2c-8-1.5-16-2.9-23.9-4.4c-0.9-0.7-1.9-0.8-3-0.6c0,0-0.1,0-0.1,0c0.8-1.3,0.9-2.7,0.6-4.3
	c-2.7-13.8-4.7-27.7-8-41.3c-0.6-2.4-0.3-4.9-0.5-7.4c11.5,15.3,21.3,31.7,31.9,47.6c1.6,2.4,3.2,4.6,4.8,7
	C358.3,155.1,357.3,156,354.9,156.2z"></path>
<path class="st12" d="M515.9,246c-0.7,0-1.3,0-2-0.1c0.3-0.4,0.7-0.8,1-1.2C515.3,245.2,515.6,245.6,515.9,246z"></path>
<path class="st10" d="M319.9,98.1c-0.3-0.2-0.4-0.5-0.2-0.8C319.9,97.5,319.9,97.8,319.9,98.1z"></path>
<path class="st2" d="M165.1,627.4c-2.2-2.3-0.7-5.1-0.9-7.6c-0.3-3.8-0.3-7.7,0-11.4c0.3-3.3-0.9-4.9-4.2-5.1
	c1.4-0.1,2.8-0.3,4.2-0.4c0.2,0.1,0.5,0.2,0.8,0.2c0,0,0,0,0,0C165,611.1,165,619.2,165.1,627.4z"></path>
<path class="st1" d="M165,603c-0.3,0-0.5-0.1-0.8-0.2C164.5,602.8,164.7,602.9,165,603z"></path>
<path class="st0" d="M141.9,477.2c1,0.4,1.6,1.1,1.8,2.1C142.2,479.4,142.1,478.3,141.9,477.2z"></path>
<path class="st0" d="M138.1,471.4c1,0.6,1.7,1.4,1.9,2.6C138.6,473.7,138.2,472.7,138.1,471.4z"></path>
<path class="st0" d="M143.7,479.4c0.3,0.4,0.6,0.8,0.9,1.2C144.3,480.2,144,479.8,143.7,479.4z"></path>
<path class="st0" d="M140.2,474.3c0.7,0.4,1,0.9,0.9,1.7C140.7,475.5,140.5,474.9,140.2,474.3z"></path>
<path class="st14" d="M370.3,603.2c-1,0.8-1.3,1.8-1.3,3c0.1,16.2,0.2,32.4,0.3,48.6c-0.4,0-0.9,0.1-1.3,0.1
	c0-7.8-0.1-15.6,0.1-23.3c0.1-3.8-0.8-6.6-3.9-9c-3-2.5-5.6-5.7-8.3-8.5c2.7-1.9,6.8-2,7.9-6.1c3.3-0.5,3-4.8,6-5.7
	C370,602.5,370.2,602.8,370.3,603.2z"></path>
<path class="st0" d="M226.1,639.9c3.3-0.7,5.6,0.5,7.2,3.5c2,3.8,4.7,7.2,5.9,11.4c-7,2.2-8.4,1.3-9.2-5.6c-0.1-1.2-0.1-2.4-1.3-3
	C225.9,644.9,225.9,642.4,226.1,639.9z"></path>
<path class="st1" d="M164.5,651.8c-2-8.2,1.7-13.9,8.4-18.7c2.4,3.5,4.9,7.1,7.3,10.7c-4.6-4.2-8.3-4.6-11.2,2
	C168,647.9,164.6,648.7,164.5,651.8z"></path>
<path class="st1" d="M207.6,605.9c0,0.7,0,1.4,0,2.1c-1.4,5.9-0.5,11.9-0.6,17.9c-0.2,8.8,0,17.6-1,26.4c0-8.4,0-16.8,0-25.2
	c0-6.7,0-13.3,0-20C206.1,606.3,205.4,604,207.6,605.9z"></path>
<path class="st1" d="M185.6,633.3c-7.8-10.4-7.4-6.4,0.9-15.8c0,0.7,0.3,1.5,0,2C184,623.9,183.1,628.5,185.6,633.3z"></path>
<path class="st0" d="M363.9,607.9c-1.1,4.1-5.2,4.1-7.9,6.1c-1.8-0.4-2-1.8-2.1-3.3c0.7-0.7,1.3-1.4,2-2.1
	C358.8,611.8,361.1,606.8,363.9,607.9z"></path>
<path class="st1" d="M368,654.9c0.4,0,0.9-0.1,1.3-0.1c7.4,0,14.8-0.1,22.2,0c1.5,0,3.3-0.7,4.5,1c-8,0-15.9,0.1-23.9,0.1
	C370.7,655.9,369.2,656,368,654.9z"></path>
<path class="st1" d="M191.9,642.3c-1.8-2.6-3.7-5.1-5.5-7.7C189.9,635.9,192.2,638.1,191.9,642.3z"></path>
<path class="st1" d="M195.4,607.8c0.9-1,1.7-1.9,2.6-2.9C198,606.6,197.3,607.7,195.4,607.8z"></path>
<path class="st1" d="M188.4,615.4c0.5-0.6,1-1.1,1.6-1.7C189.9,614.6,189.5,615.3,188.4,615.4z"></path>
<path class="st1" d="M180.2,643.7c0.5,0.6,0.9,1.1,1.4,1.7C180.6,645.3,180.3,644.6,180.2,643.7z"></path>
<path class="st1" d="M186.5,617.6c0.4-0.4,0.7-0.8,1.1-1.1C187.3,616.8,186.9,617.2,186.5,617.6z"></path>
<path class="st1" d="M186.4,634.5c-0.3-0.4-0.6-0.8-0.9-1.3C185.8,633.6,186.1,634,186.4,634.5z"></path>
<path class="st1" d="M181.3,645.5c0.4,0.5,0.8,0.9,1.3,1.4C182.2,646.4,181.7,646,181.3,645.5z"></path>
<path class="st1" d="M164.1,654.7c0-0.2,0.1-0.3,0.3-0.3C164.4,654.3,164.1,654.7,164.1,654.7z"></path>
<path class="st1" d="M187.5,616.6c0.3-0.4,0.6-0.8,0.9-1.2C188.2,615.8,187.9,616.2,187.5,616.6z"></path>
<path class="st5" d="M509.6,335.3c3-1.8,3.2,1.3,4.2,2.5c3.7,4.4,6,9.9,10,14.2c1.4,12,2.7,24,4.5,36c1,6.5,4.8,12.6,7.3,18.9
	c4.7,11.7,9.5,23.3,14.2,35c-1.3,8.3-2.7,16.6-4,25c-1.7,10.9-3.4,21.9-5,32.8c-1.1,7.4-2,14.7-3.1,22.1c-1.9,4.3-3.6,3.2-6.7,0.6
	c-14.9-13-28.8-27-42.8-41c-0.7-0.7-1.6-1.1-2.4-1.7c-3.9-2.2-7.8-4.3-8.1-9.5c6.6-11.7,13.2-23.4,18.2-35.9
	c10.4-26.5,15-54.1,14.2-82.5C510.1,346.3,509.8,340.8,509.6,335.3z"></path>
<path class="st15" d="M331,224.1c53.4,9.2,90.5,39.1,111.4,88.9c7.1,16.9,10.2,34.9,9.9,53.4c-0.3,19.5,0,39-0.1,58.5
	c0,12.8-8.2,21.7-20,21.9c-11.9,0.2-20.8-9-20.8-21.9c-0.1-19.7,0.1-39.3-0.1-59c-0.1-10.9-6.7-18.6-17.1-20.2
	c-8.8-1.4-15.5,2.4-20.5,9.5c-1.1,0.4-1.4,1.1-1.3,2.2l-0.3-0.2c0,0,0.3,0.2,0.3,0.2c-2.4,1-2.2,3.1-2.2,5.1c0,22.6,0,45.2,0,67.9
	c-2,10-10.8,17.1-20.7,16.4c-11.1-0.8-19.2-8.7-19.4-19.6c-0.3-20.5-0.1-40.9-0.2-61.4c0-8.8-4.2-15.5-12.1-19.1
	c-7.8-3.5-15.4-2.2-21.8,3.6c-4.7,4.2-6.7,9.7-6.7,16c0,20.1,0.1,40.3-0.1,60.4c-0.1,8.8-4.5,15.3-12.8,18.5
	c-8.3,3.2-16,1.8-22.3-4.9c-0.3-1.3-0.3-2.7-1-3.8c-2.8-4.2-3.2-8.8-3.2-13.8c0.1-19.8,0.1-39.6,0-59.4c0-4.7-1.2-9.1-6.2-11.3
	c-0.3,0-0.4-0.2-0.4-0.4c0.1-0.9-0.5-1.2-1.2-1.3c0,0,0,0,0,0c-1-2.5-2.6-4-5.4-3.7c-16.4-5.2-28.8,3.7-28.8,20.9
	c0,19.5,0,39-0.1,58.4c0,8.8-4,15.5-12.1,19c-8,3.4-15.7,2.2-22.3-3.7c-4.2-3.7-6.5-8.4-6.5-14.1c0-23.3-0.6-46.6,0.2-69.9
	c2.4-65.5,53.9-122.7,118.8-132.9c1-0.2,2-0.1,3-0.2C302.9,224,316.9,224,331,224.1z"></path>
<path class="st6" d="M477.8,470.3c0.3,5.2,4.3,7.3,8.1,9.5c-5.6,3-7.2,9-9.9,14c-3.5,6.4-8,12.1-11.6,18.5
	c-7.3,12.9-15.8,25.1-22.8,38.2c-2,3.7-5.4,6.8-5.9,11.3c-0.7,0.1-1.3,0.1-2,0.2c-1.5,0-3.2,0.1-3.6-1.9c-1-4.8-4.2-8.4-7-12.1
	c-0.9-1.2-1.3-2.3-1.2-3.7c0.2-2.4-0.8-4.1-2.6-5.5c-3.1-2.5-3.9-5.5-1.5-8.9c14-10.1,27.5-20.7,39.2-33.5
	C464.6,488.1,471,479,477.8,470.3z"></path>
<path class="st1" d="M243.6,351.8c5,2.2,6.2,6.6,6.2,11.3c0.1,19.8,0.2,39.6,0,59.4c0,4.9,0.4,9.5,3.2,13.8c0.7,1,0.7,2.5,1,3.8
	c-5.1-4-5.9-9.7-5.9-15.6c-0.1-18.8-0.2-37.5,0.1-56.3C248.3,362.2,246.9,356.8,243.6,351.8z"></path>
<path class="st1" d="M370.1,430.2c0-22.6-0.1-45.2,0-67.9c0-1.9-0.1-4.1,2.2-5.1c-1.2,3.8-1.4,7.8-1.4,11.8c0.1,18.3,0,36.5,0,54.8
	C370.9,426,371.3,428.2,370.1,430.2z"></path>
<path class="st1" d="M331,224.1c-14.1,0-28.1-0.1-42.2-0.1C302.9,221.3,316.9,221.4,331,224.1z"></path>
<path class="st1" d="M236.5,346.3c2.9-0.3,4.5,1.2,5.4,3.7C240.2,348.8,238.3,347.6,236.5,346.3z"></path>
<path class="st1" d="M372.3,357.2c-0.1-1.1,0.2-1.8,1.3-2.2C373.2,355.8,372.7,356.5,372.3,357.2z"></path>
<path class="st11" d="M328,151.1c1.1-0.1,2.1-0.1,3,0.6C329.9,151.9,328.8,152,328,151.1z"></path>
<path class="st1" d="M242,350.1c0.7,0.1,1.3,0.5,1.2,1.3C242.8,351,242.4,350.5,242,350.1z"></path>
<path class="st1" d="M370.3,603.2c-0.1-0.3-0.3-0.7-0.4-1c1.4-0.1,2.7-0.2,4.1-0.3c8.9,0,17.9,0,26.8,0.1c1.8,0,3.7-0.5,5.1,1.2
	C394,603.2,382.1,603.2,370.3,603.2z"></path>
<path class="st0" d="M217.9,612.8c6-1.7,12-1.6,17.7,0.4c4.2,1.5,5.3,5.2,4.8,9.3c-0.5,5.1-3.5,7.6-8.4,8c-2.2-2.1-4.8-0.7-7-0.6
	c-4.5,0.2-6.1-1.6-6.1-6C219,620.3,220,616.4,217.9,612.8z"></path>
<path class="st7" d="M217.9,612.8c2.1,3.5,1,7.4,1,11.1c0,4.5,1.6,6.2,6.1,6c2.3-0.1,4.9-1.5,7,0.6c-14.4,1.9-14.4,1.9-14.4-12.3
	C217.7,616.5,217.9,614.7,217.9,612.8z"></path>
<path class="st0" d="M275.8,628.7c1.8-4.6,3.6-9.1,5.8-14.8c2.6,6.1,5.1,11,6.6,16.4c-1.4,6.6-6.6,3.1-10,3.5
	C274.2,634.2,276.7,630.4,275.8,628.7z"></path>
<path class="st1" d="M275.8,628.7c0.9,1.7-1.6,5.6,2.4,5.1c3.4-0.4,8.6,3.1,10-3.5c2.8,5.1,2.8,5.1-2.9,5.1c-3.9,0-7.9,0-12.1,0
	C273.6,632.6,274.5,630.6,275.8,628.7z"></path>
<path class="st1" d="M388.9,645.9c-12.5,0.3-9.8,1.9-10.1-9.6c0-0.8,0.2-1.6,0.3-2.4c3,0,6.1,0,10,0c-1.1,0.7-1.2,0.9-1.4,0.9
	c-2.5,0.9-6.9-1.8-7.5,2.3c-0.6,4.2,3.1,6.4,6.8,7.9C387.8,645.2,388.3,645.6,388.9,645.9z"></path>
</svg>
