<svg version="1.1" xmlns="http://www.w3.org/2000/svg" xmlns:xlink="http://www.w3.org/1999/xlink" viewBox="0 0 24 24"><title>Kraken icon</title><path d="M11.2461 2.61646C13.3233 2.48262 15.4396 2.90086 17.3102 3.82658C20.0631 5.17612 22.2576 7.61868 23.2962 10.5018C23.7541 11.7733 23.9998 13.1228 23.9998 14.4723V19.4913C23.9998 19.6976 24.0054 19.904 23.9551 20.1047C23.8435 20.6122 23.4805 21.0583 23.0059 21.2702C22.6764 21.4264 22.2967 21.4431 21.9393 21.3873C21.1743 21.2479 20.5769 20.5285 20.5713 19.7534C20.5657 18.1975 20.5713 16.6416 20.5713 15.0802C20.5824 14.6396 20.588 14.1656 20.3479 13.7753C19.957 13.0559 19.0189 12.7157 18.2595 13.0224C17.6174 13.2511 17.1539 13.8979 17.1483 14.5783C17.1427 16.162 17.1483 17.7402 17.1483 19.3184C17.1483 19.614 17.1651 19.9151 17.0757 20.1995C16.9138 20.7572 16.4503 21.2089 15.8919 21.3595C15.1604 21.5602 14.3172 21.2368 13.9487 20.562C13.6974 20.1549 13.7142 19.6642 13.7198 19.2069C13.7142 17.6398 13.7253 16.0672 13.7142 14.5002C13.6974 13.7028 13.0441 12.9834 12.2512 12.883C11.7375 12.8049 11.1958 12.9778 10.8217 13.3403C10.4867 13.6581 10.2912 14.1154 10.2912 14.5783V19.1511C10.2856 19.5359 10.3303 19.9318 10.1851 20.2943C9.95618 20.9468 9.29728 21.4264 8.59928 21.4096C7.88454 21.4487 7.19213 20.9579 6.96319 20.2887C6.83475 19.9597 6.86267 19.6028 6.86267 19.2571C6.86267 17.6789 6.86826 16.1007 6.86267 14.5225C6.85709 13.7418 6.24844 13.028 5.48344 12.8886C4.78544 12.738 4.01486 13.0893 3.66865 13.7139C3.51789 13.976 3.43971 14.2772 3.43971 14.5727V19.6976C3.4453 20.1939 3.21636 20.6903 2.83106 21.0081C2.25033 21.5156 1.31223 21.5435 0.703578 21.075C0.262446 20.7739 0 20.2553 0 19.7199V14.5281C0.00558395 12.5651 0.502555 10.6077 1.44066 8.87899C2.20566 7.46811 3.26103 6.21337 4.523 5.20958C6.42154 3.68159 8.80589 2.76145 11.2461 2.61646Z" fill="#2AA7FA"/>
</svg>
