<svg version="1.1" id="Layer_1" xmlns="http://www.w3.org/2000/svg" xmlns:xlink="http://www.w3.org/1999/xlink" x="0px" y="0px"
	 viewBox="0 0 612 792" style="enable-background:new 0 0 612 792;" xml:space="preserve">
<style type="text/css">
	.st0{fill:#5841D7;}
	.st1{fill:#FDFDFE;}
	.st2{fill:#7565D2;}
	.st3{fill:#6959C3;}
	.st4{fill:#5949AB;}
	.st5{fill:#5849AA;}
	.st6{fill:#5A46C1;}
</style>
<path class="st0" d="M405.9,396.5c0,32-0.1,63.9,0.1,95.9c0,3-0.6,3.6-3.6,3.6c-64.3-0.1-128.6-0.1-192.8,0c-3,0-3.6-0.6-3.6-3.6
	c0.1-64.3,0.1-128.6,0-192.8c0-3,0.6-3.6,3.6-3.6c64.3,0.1,128.6,0.1,192.8,0c3,0,3.6,0.6,3.6,3.6
	C405.9,331.9,405.9,364.2,405.9,396.5z M256,404.8c0,0-0.2,0.2-0.2,0.2c0.4-0.4,0.8-0.7,1.2-1.1c0,0-0.2,0.1-0.2,0.1
	c0.4-0.3,0.8-0.6,1.2-0.9l0,0c3.3,0,6.7,0,10-0.1l-0.1,0c0.4,0.3,0.9,0.6,1.3,0.8l-0.2-0.2c0.4,0.4,0.8,0.7,1.3,1.1l-0.1-0.1
	c3.2,6.3,2.7,13.2,2.7,19.9c0,7,0,13.9,0,20.9c0,2.9,0.4,5.7,3.6,7l-0.1-0.1c0.5,0.5,1,1,1.5,1.6l-0.1,0c4.2,4.4,9.5,4.2,13.7-0.5
	l-0.2,0.2c1.5-0.3,2.2-1.3,2.4-2.8l-0.1,0.1c2.9-1.9,3.1-4.9,3.1-7.9c0-12,0-24.1,0.1-36.1l0,0c2-0.7,3.3-2.1,4-4c0,0,0,0,0,0
	c3.3,0,6.7,0,10,0l0,0c0.7,2,2.1,3.3,4.1,4c0,0,0-0.1,0-0.1c0,12,0,24.1,0,36.1c0,3,0.2,6,3.1,7.9l-0.1-0.1c0.2,1.5,0.9,2.4,2.4,2.8
	c0,0-0.2-0.2-0.2-0.2c0.5,0.6,1,1.1,1.5,1.7c5.1,2.7,8.6,2.3,12.2-1.3l0,0c0.8-0.2,1.3-0.7,1.4-1.5l0.1-0.1c3.4-1.5,3.4-4.6,3.4-7.6
	c0-11.9,0-23.9,0-35.8l0,0.1c0.3-0.7,0.6-1.4,1-2.1l0,0c0.9-0.5,1.6-1.2,1.7-2.3l0,0c0.4-0.3,0.8-0.6,1.1-0.9l0,0
	c0.4-0.3,0.9-0.5,1.3-0.8l-0.1,0c11.9-0.1,14.2,2.2,14.2,14.1c0,8.4-0.1,16.9,0.1,25.3c0,3.1-0.2,6.4,2.9,8.5l0,0
	c3.5,6.8,10.8,8.2,15.9,2.9l-0.1,0.1c0.4-0.3,0.7-0.7,1.1-1c0.3-0.3,0.6-0.6,0.9-1c1.8-0.7,2.1-2.4,2.5-4c0.2-0.8,0.6-1.6,0.6-2.4
	c0-12.9,0-25.7,0-38.6c0-1.3-0.2-2.6-1.2-3.7c-0.3-1.1-0.6-2.2-0.8-3.4c-4.5-29.6-27.3-54.7-56.1-61.7c-29.4-7.2-59.6,3.9-77.8,28.4
	c-8.3,11.2-12.6,24-14.9,37.6c-0.3,0.6-0.8,1.2-0.8,1.8c-0.5,13.4-0.5,26.7,0,40.1c0,0.6,0.5,1.2,0.8,1.8c3.7,6.8,8.3,9.4,13.8,7.6
	c4.8-1.6,7.4-5.5,7.5-11.6c0.2-10.8,0.3-21.6,0.4-32.4c0,10.7,0,21.4,0,32.1c1.7-12.6,0.4-25.2,2.2-37.7c0,0-0.1,0.2-0.1,0.2
	C255.3,405.6,255.7,405.2,256,404.8z"/>
<path class="st1" d="M252.8,411.5c-0.1,10.8-0.2,21.6-0.4,32.4c-0.1,6.2-2.7,10-7.5,11.6c-5.5,1.8-10.1-0.8-13.8-7.6
	c0-14.5,0-29.1,0-43.6c2.3-13.6,6.5-26.4,14.9-37.6c18.2-24.5,48.4-35.6,77.8-28.4c28.8,7,51.6,32.1,56.1,61.7
	c0.2,1.1,0.5,2.2,0.8,3.4c0.1,14.6,0.1,29.1,0.2,43.7c-0.7,1.7-1.5,3.3-2.2,5c-0.3,0.3-0.6,0.6-0.9,1c-0.4,0.3-0.7,0.7-1.1,1
	c0,0,0.1-0.1,0.1-0.1c-7.4,3.2-10.1,2.7-15.9-2.9c0,0,0,0,0,0c-1-2.7-1.3-5.4-1.3-8.3c0.1-9.8,0.2-19.6,0-29.4
	c-0.2-9.5-7.5-14.2-15.8-10.4c0,0,0.1,0,0.1,0c-0.4,0.3-0.9,0.5-1.3,0.8c0,0,0,0,0,0c-0.4,0.3-0.8,0.6-1.1,0.9c0,0,0,0,0,0
	c-0.9,0.5-1.6,1.2-1.7,2.3c0,0,0,0,0,0c-0.8,0.5-1,1.2-1,2.1c0,0,0-0.1,0-0.1c-1.4,1.7-0.9,3.8-0.9,5.7c0,9.4-0.1,18.9,0,28.3
	c0.1,3.4-0.6,6.5-2.5,9.4c0,0-0.1,0.1-0.1,0.1c-0.5,0.5-1,1-1.4,1.5c0,0,0,0,0,0c-3.9,2.2-7.9,2.7-12,0.7c-0.5-0.4-1.1-0.7-1.6-1.1
	c0,0,0.2,0.2,0.2,0.2c-0.8-0.9-1.6-1.8-2.4-2.8c0,0,0.1,0.1,0.1,0.1c-1-2.7-1.3-5.4-1.3-8.3c0.1-9.4,0-18.8,0-28.3
	c0-2.6,0-5.3-1.9-7.5c0,0,0,0.1,0,0c-0.7-2-2.1-3.3-4.1-4c0,0,0,0,0,0c-3.4-2.2-6.7-2.2-10,0c0,0,0,0,0,0c-2.1,0.6-3.4,2-4,4
	c0,0,0,0,0,0c-1.9,2.2-1.9,4.8-1.9,7.5c0,8.4,0,16.9,0,25.3c0,3.8,0.4,7.6-1.2,11.2c0,0,0.1-0.1,0.1-0.1c-0.8,0.9-1.6,1.8-2.4,2.8
	c0,0,0.2-0.2,0.2-0.2c-4.5,3-9,3.2-13.7,0.5c0,0,0.1,0,0.1,0c-0.5-0.5-1-1-1.5-1.6c0,0,0.1,0.1,0.1,0.1c-2.1-2.8-2.7-5.9-2.6-9.3
	c0.1-9.8,0.1-19.5,0-29.3c0-3.6-0.5-7-3.7-9.3c0,0,0.1,0.1,0.1,0.1c-0.4-0.4-0.8-0.7-1.3-1.1c0,0,0.2,0.2,0.2,0.2
	c-0.4-0.3-0.9-0.6-1.3-0.8c0,0,0.1,0,0.1,0c-3.4-2.2-6.7-2.1-10,0.1c0,0,0,0,0,0c-0.4,0.3-0.8,0.6-1.2,0.9c0,0,0.2-0.1,0.2-0.1
	c-0.4,0.4-0.8,0.7-1.2,1.1c0,0,0.2-0.2,0.2-0.2c-0.4,0.4-0.8,0.8-1.1,1.2c0,0,0.1-0.2,0.1-0.2C253.2,407.3,252.7,409.3,252.8,411.5z
	"/>
<path class="st2" d="M343.9,402.9c8.3-3.8,15.6,0.8,15.8,10.4c0.2,9.8,0.1,19.6,0,29.4c0,2.9,0.3,5.6,1.3,8.3
	c-3.1-2.1-2.8-5.5-2.9-8.5c-0.1-8.4-0.1-16.9-0.1-25.3C358.1,405.1,355.7,402.8,343.9,402.9z"/>
<path class="st3" d="M293.9,450.9c1.6-3.6,1.2-7.4,1.2-11.2c0-8.4,0-16.9,0-25.3c0-2.6,0-5.3,1.9-7.5c0,12,0,24.1-0.1,36.1
	C296.9,446.1,296.8,449,293.9,450.9z"/>
<path class="st3" d="M315,406.9c1.9,2.2,1.9,4.8,1.9,7.5c0,9.4,0.1,18.8,0,28.3c0,2.8,0.2,5.6,1.3,8.3c-2.9-1.9-3.1-4.9-3.1-7.9
	C315,431,315,419,315,406.9z"/>
<path class="st3" d="M270.3,404.6c3.2,2.3,3.7,5.7,3.7,9.3c0,9.8,0.1,19.5,0,29.3c0,3.4,0.6,6.6,2.6,9.3c-3.2-1.3-3.5-4.1-3.6-7
	c0-7-0.1-13.9,0-20.9C273.1,417.8,273.5,410.9,270.3,404.6z"/>
<path class="st2" d="M335.5,452.3c1.9-2.8,2.6-5.9,2.5-9.4c-0.1-9.4-0.1-18.9,0-28.3c0-1.9-0.4-4,0.9-5.7c0,11.9,0,23.9,0,35.8
	C338.9,447.7,338.9,450.8,335.5,452.3z"/>
<path class="st4" d="M380.9,446.9c-0.1-14.6-0.1-29.1-0.2-43.7c0.9,1.1,1.2,2.3,1.2,3.7c0,12.9,0,25.7,0,38.6c0,0.8-0.4,1.6-0.6,2.4
	C381.2,447.6,381.1,447.3,380.9,446.9z"/>
<path class="st5" d="M231.1,404.2c0,14.5,0,29.1,0,43.6c-0.3-0.6-0.8-1.2-0.8-1.8c-0.4-13.4-0.5-26.7,0-40.1
	C230.3,405.4,230.9,404.8,231.1,404.2z"/>
<path class="st6" d="M252.8,411.5c-0.1-2.2,0.4-4.1,2.2-5.6c-1.8,12.5-0.4,25.1-2.2,37.7C252.8,432.8,252.8,422.2,252.8,411.5z"/>
<path class="st2" d="M361,450.9c5.8,5.7,8.4,6.2,15.9,2.9C371.8,459.1,364.5,457.7,361,450.9z"/>
<path class="st3" d="M278,453.9c4.7,2.7,9.2,2.5,13.7-0.5C287.6,458.1,282.3,458.3,278,453.9z"/>
<path class="st2" d="M321.9,454.5c4.1,2,8.1,1.5,12-0.7c-3.6,3.6-7.1,4-12.2,1.3C321.8,454.9,321.9,454.7,321.9,454.5z"/>
<path class="st3" d="M301,403c3.3-2.2,6.7-2.2,10,0C307.7,403,304.3,403,301,403z"/>
<path class="st3" d="M258.1,403c3.3-2.1,6.7-2.3,10-0.1C264.7,403,261.4,403,258.1,403z"/>
<path class="st3" d="M297,407c0.7-2,2-3.4,4-4C300.3,404.9,298.9,406.3,297,407z"/>
<path class="st3" d="M311,403c2,0.7,3.4,2,4.1,4C313.1,406.3,311.7,404.9,311,403z"/>
<path class="st2" d="M380.9,446.9c0.1,0.3,0.2,0.7,0.4,1c-0.4,1.6-0.7,3.3-2.5,4C379.5,450.2,380.2,448.6,380.9,446.9z"/>
<path class="st3" d="M291.5,453.6c0.8-0.9,1.6-1.8,2.4-2.8C293.8,452.3,293,453.3,291.5,453.6z"/>
<path class="st3" d="M318.1,450.8c0.8,0.9,1.6,1.8,2.4,2.8C319,453.2,318.2,452.3,318.1,450.8z"/>
<path class="st2" d="M339.8,406.9c0.1-1.1,0.8-1.8,1.7-2.3C341.4,405.7,340.7,406.4,339.8,406.9z"/>
<path class="st2" d="M338.9,409c-0.1-0.9,0.1-1.6,1-2.1C339.5,407.6,339.2,408.3,338.9,409z"/>
<path class="st3" d="M276.5,452.4c0.5,0.5,1,1,1.5,1.6C277.6,453.4,277,452.9,276.5,452.4z"/>
<path class="st2" d="M333.9,453.9c0.5-0.5,1-1,1.4-1.5C335.2,453.2,334.7,453.7,333.9,453.9z"/>
<path class="st3" d="M321.9,454.5c-0.1,0.2-0.1,0.4-0.2,0.6c-0.5-0.6-1-1.1-1.5-1.7C320.9,453.8,321.4,454.2,321.9,454.5z"/>
<path class="st6" d="M256.9,404c0.4-0.3,0.8-0.6,1.2-0.9C257.7,403.4,257.3,403.7,256.9,404z"/>
<path class="st3" d="M268,402.9c0.4,0.3,0.9,0.6,1.3,0.8C268.9,403.5,268.5,403.2,268,402.9z"/>
<path class="st2" d="M342.7,403.7c0.4-0.3,0.9-0.5,1.3-0.8C343.5,403.2,343.1,403.4,342.7,403.7z"/>
<path class="st6" d="M255.8,405c0.4-0.4,0.8-0.7,1.2-1.1C256.6,404.2,256.2,404.6,255.8,405z"/>
<path class="st3" d="M269.2,403.6c0.4,0.4,0.8,0.7,1.3,1.1C270,404.4,269.6,404,269.2,403.6z"/>
<path class="st6" d="M254.9,406c0.4-0.4,0.8-0.8,1.1-1.2C255.7,405.2,255.3,405.6,254.9,406z"/>
<path class="st2" d="M341.6,404.5c0.4-0.3,0.8-0.6,1.1-0.9C342.3,404,341.9,404.2,341.6,404.5z"/>
<path class="st2" d="M376.8,453.9c0.4-0.3,0.7-0.7,1.1-1C377.5,453.2,377.2,453.5,376.8,453.9z"/>
</svg>
