<svg version="1.1" id="Layer_1" xmlns="http://www.w3.org/2000/svg" xmlns:xlink="http://www.w3.org/1999/xlink" x="0px" y="0px" style="enable-background:new 0 0 612 792;" xml:space="preserve" viewBox="206.00 296.00 200.00 200.00">
<style type="text/css">
	.st0{fill:#5841D8;}
	.st1{fill:#FEFEFE;}
	.st2{fill:#614ECB;}
	.st3{fill:#5944C2;}
	.st4{fill:#5948BC;}
	.st5{fill:#5845C2;}
	.st6{fill:#5847B6;}
	.st7{fill:#584AA9;}
	.st8{fill:#5846BB;}
	.st9{fill:#594AA8;}
	.st10{fill:#5E4FAD;}
	.st11{fill:#5A4BB3;}
	.st12{fill:#5846BA;}
	.st13{fill:#5847B9;}
	.st14{fill:#5848B4;}
	.st15{fill:#5946BB;}
	.st16{fill:#5D4FB0;}
	.st17{fill:#5947B2;}
	.st18{fill:#5847B5;}
</style>
<path class="st0" d="M206.1,396c0-32.1,0.1-64.3-0.1-96.4c0-3,0.6-3.6,3.6-3.6c64.3,0.1,128.6,0.1,192.8,0c3,0,3.6,0.6,3.6,3.6
	c-0.1,64.3-0.1,128.6,0,192.8c0,3-0.6,3.6-3.6,3.6c-64.3-0.1-128.6-0.1-192.8,0c-3,0-3.6-0.6-3.6-3.6
	C206.1,460.3,206.1,428.1,206.1,396z"></path>
<path class="st1" d="M356.1,405.7c0.1-2-1.3-2.6-2.9-3c-3.6-0.8-7.2-0.7-10.5,1c-1.1,1.3-3.2,1.8-2.7,4.1c-1.3,2.2-1.5,4.7-1.5,7.2
	c-0.1,11.3,0.4,22.6-0.2,33.8c-1.2,2.5-2.6,4.7-5.3,5.8c-0.4,0.3-0.8,0.6-1.1,0.9c-3.3,1.8-6.6,1.1-9.8-0.4
	c-2.6-1.8-3.7-4.6-5.1-7.2c-1.3-1.8-0.9-3.8-0.9-5.8c0-9.5,0-18.9,0-28.4c0-3.1-0.4-5.9-2.8-8.2c-2.9-2.9-6.5-5.1-10.4-3.5
	c-4.5,1.9-7.6,5.5-7.6,11c0,10-0.2,19.9,0.1,29.9c0.1,5.3-1.6,9.4-6.2,12.1c-3.2,2.3-6.5,1.5-9.8,0.2c-1.9-1.7-4-3.2-5-5.6
	c-1.3-3-0.6-6.2-0.6-9.3c0-9.8-0.2-19.6,0.1-29.4c-2.6-9.2-12.3-12.8-17.7-6.3c-1.2,1.9-1.5,4.3-3,6c-1.1,10.5-0.3,21.1-0.4,31.7
	c-0.1,4.1-0.7,7.9-3.6,11c-3.1,3.4-6.7,4.1-10.8,2c-3.4-1.5-5.5-4.3-7-7.6c-1.2-6.2-0.3-12.5-0.5-18.7c-0.2-6.8,0-13.6,0-20.3
	c0.3-1.8-0.6-3.7,0.7-5.4c1.3-5.7,2.7-11.4,4-17.1c0.4-3.1,1.4-6,3.6-8.3c11.3-21.5,29-34.9,52.5-40.8c9.8-2.5,19.5-2.5,29.3,0
	c4.4,1.3,8.8,2.7,13.2,4c1.8,0.6,3.8,0.9,5,2.7c23,11.9,36.5,30.7,41.1,56c0.3,1.5,0.6,2.9,0.9,4.3c1.1,2,0.3,4.2,0.6,6.3
	c0,10.8,0,21.6,0,32.3c0,1.6,0.5,3.3-0.5,4.9c-1.6,3.8-4.2,6.5-8,8.1c-2.8,0.8-5.4,1.1-7.8-1c-4-2.8-5.5-6.6-5.6-11.4
	c-0.2-10.9,0.7-21.8-0.5-32.7C357.6,409.3,357.7,407,356.1,405.7z"></path>
<path class="st2" d="M313.2,405.6c4,1.6,3.6,5.3,3.6,8.4c0.2,11.3,0.1,22.6,0.1,33.9c-2.4-1.4-1.9-3.7-1.9-5.8
	c0-9.1-0.1-18.3,0-27.4C315.1,411.5,314.7,408.5,313.2,405.6z"></path>
<path class="st3" d="M252.9,410.7c-0.1-2.6,0.9-4.5,3-6c-3.9,13.1-0.8,26.7-3,40C252.9,433.4,252.9,422,252.9,410.7z"></path>
<path class="st4" d="M337.2,450c1.7-6.2,0.7-12.4,0.8-18.7c0.2-6.1,0-12.2,0.1-18.3c0-1.9-0.4-4.1,1.9-5.2
	c-1.9,11.7-0.6,23.6-1,35.3c-0.1,2.3,0.3,4.7-1,6.8C337.7,450.5,337.4,450.5,337.2,450z"></path>
<path class="st5" d="M356.1,405.7c2.7,0.6,2.9,2.8,3,5c0,11.3,0,22.5,0,33.8c-0.4,0-0.7,0-1.1,0c0-7.1,0-14.1,0-21.2
	C357.9,417.5,358.6,411.4,356.1,405.7z"></path>
<path class="st6" d="M273.6,411c0.1,10.5,0.3,21.1,0.3,31.6c0,2.8,0.3,5.6,1.3,8.2c-0.3,0.4-0.7,0.5-1.1,0.1
	c-1.6-3.5-1.1-7.2-1-10.8C273.3,430.5,272.3,420.7,273.6,411z"></path>
<path class="st7" d="M230.9,408c0.1,13.3,0.1,26.6,0.2,39.8c-1.3-1.7-1.1-3.8-1.1-5.7c0-11.4,0-22.8,0-34.1
	C230.4,407.3,230.7,407.3,230.9,408z"></path>
<path class="st8" d="M320.7,337.2c-9.8-1.4-19.5-1.4-29.3,0c0.1-1.7,1.6-1.7,2.5-1.7c8-0.5,16.1-0.8,24.1,0.2
	C318.9,335.7,320.4,335.5,320.7,337.2z"></path>
<path class="st9" d="M380.9,447.8c0.1-12.6,0.1-25.2,0.2-37.8c0.3-0.7,0.6-0.7,0.9,0c0,10.7,0,21.4,0,32.1
	C382,444.1,382.2,446.1,380.9,447.8z"></path>
<path class="st10" d="M342.7,403.8c3.3-2.7,6.8-3.1,10.5-1C349.7,403.1,346.2,403.4,342.7,403.8z"></path>
<path class="st11" d="M238.1,455.4c4,1.2,7.5,0.2,10.8-2C245.7,457.4,242.9,457.9,238.1,455.4z"></path>
<path class="st12" d="M279.1,454.8c3.3,1.2,6.6,1.6,9.9,0.4c-3.1,3.1-6.6,1.8-10,0.7c-0.3-0.3-0.4-0.5-0.3-0.7
	C278.9,454.9,279,454.8,279.1,454.8z"></path>
<path class="st13" d="M238.9,378c-1.2,2.8-2.4,5.5-3.6,8.3C235.1,382.9,235.7,379.9,238.9,378z"></path>
<path class="st12" d="M322,455.2c3.2,0.6,6.5,1.1,9.8,0.4C328.4,457.6,325.2,457.7,322,455.2z"></path>
<path class="st14" d="M365.1,454.9c2.5,0.9,5.1,1.2,7.8,1C370,457.4,367.3,458,365.1,454.9z"></path>
<path class="st8" d="M337.2,450c0.3,0,0.5,0,0.8,0c-1,2.3-1.8,4.9-5.1,4.7C334.3,453.1,335.7,451.5,337.2,450z"></path>
<path class="st15" d="M279.1,454.8c0,0.4,0,0.7-0.1,1.1c-2.1-1.2-3.7-2.9-5-4.9c0.4,0,0.7-0.1,1.1-0.1
	C276.5,452.2,277.8,453.5,279.1,454.8z"></path>
<path class="st16" d="M338.9,343.9c-1.7-0.9-3.4-1.8-5-2.7C336,341.2,338,341.5,338.9,343.9z"></path>
<path class="st17" d="M381.9,410c-0.3,0-0.6,0-0.9,0c-0.1-1.9-0.1-3.8-0.2-5.7C383,405.8,381.6,408.1,381.9,410z"></path>
<path class="st18" d="M230.9,408c-0.3,0-0.6,0-0.9,0c0.5-1.5-1.1-3.5,1.2-4.6C231.1,405,231,406.5,230.9,408z"></path>
</svg>
