<svg viewBox="0 0 561 561" version="1.1" xmlns="http://www.w3.org/2000/svg" xmlns:xlink="http://www.w3.org/1999/xlink" xml:space="preserve" xmlns:serif="http://www.serif.com/" style="fill-rule:evenodd;clip-rule:evenodd;stroke-linejoin:round;stroke-miterlimit:2;">
    <g transform="matrix(1,0,0,1,-74.666,-0.00874773)">
        <g transform="matrix(1,0,0,1,309.67,377.5)">
            <path d="M-15.586,-101.9L-20.449,-106.782C-24.119,-110.449 -30.429,-107.852 -30.429,-102.652L-30.429,-32.929C-30.429,-29.705 -27.791,-27.089 -24.559,-27.089L45.177,-27.089C50.372,-27.089 52.999,-33.387 49.297,-37.059C47.023,-39.334 47.023,-43.026 49.297,-45.311L123.477,-119.691C125.753,-121.966 125.753,-125.658 123.477,-127.948L116.72,-134.68C113.047,-138.347 115.664,-144.646 120.85,-144.646L190.547,-144.646C193.77,-144.646 196.407,-142.029 196.407,-138.806L196.407,-69.079C196.407,-63.885 190.077,-61.277 186.407,-64.949L181.699,-69.646C179.393,-71.99 175.721,-71.99 173.456,-69.646L48.406,55.354C46.132,57.62 42.44,57.62 40.136,55.354L-112.86,-97.65C-113.964,-98.745 -114.585,-100.237 -114.585,-101.791C-114.585,-103.345 -113.964,-104.837 -112.86,-105.932L98.944,-317.73C101.21,-320.01 101.21,-323.73 98.944,-326L49.14,-375.8C46.866,-378.055 43.144,-378.055 40.87,-375.8L-233.3,-101.6C-235.572,-99.32 -235.572,-95.6 -233.3,-93.33L40.87,180.84C43.144,183.106 46.875,183.106 49.14,180.84L323.3,-93.33C325.566,-95.61 325.566,-99.31 323.3,-101.582L162.002,-262.882C159.746,-265.152 156.035,-265.152 153.75,-262.882L-7.305,-101.898C-8.399,-100.794 -9.891,-100.173 -11.445,-100.173C-12.999,-100.173 -14.491,-100.794 -15.585,-101.898L-15.586,-101.9Z" style="fill:rgb(222,89,89);fill-rule:nonzero;"/>
        </g>
    </g>
</svg>