<svg xmlns="http://www.w3.org/2000/svg" width="120" fill="none" viewBox="0 0 118 29">
<path fill="url(#logoa)" d="M61.55 21.446 54.334 4.534h4.826l6.414 15.206-4.023 1.706Z"></path>
<path fill="url(#logob)" d="M87.37 21.782h-4.374v-9.666c0-.962-.393-1.895-1.079-2.58a3.73 3.73 0 0 0-2.58-1.08c-.962 0-1.895.394-2.58 1.08a3.73 3.73 0 0 0-1.08 2.58v9.593h-4.373v-9.593c0-2.129.846-4.17 2.347-5.671a8.093 8.093 0 0 1 5.7-2.362c2.129 0 4.17.846 5.672 2.347a8.022 8.022 0 0 1 2.347 5.671v9.68Z"></path>
<path fill="url(#logoc)" d="M56.871 28.866v-4.373c1.487 0 2.668-.525 3.63-1.604a6.02 6.02 0 0 0 1.094-1.837l.029-.073 5.773-16.445h4.636l-6.269 17.874a10.376 10.376 0 0 1-1.822 3.193c-1.808 2.143-4.257 3.265-7.07 3.265Z"></path>
<path fill="url(#logod)" fill-rule="evenodd" d="M95.198 17.116c.73.438 1.56.671 2.406.671.714 0 1.414-.16 2.055-.466a4.817 4.817 0 0 0 1.633-1.327l3.441 2.697a8.865 8.865 0 0 1-3.164 2.566 9.052 9.052 0 0 1-10.35-1.75 9.051 9.051 0 0 1-2.654-6.385c0-2.391.962-4.694 2.653-6.386a9.052 9.052 0 0 1 6.386-2.653 9.068 9.068 0 0 1 8.776 6.852c.175.714.263 1.443.248 2.186 0 .744-.087 1.473-.262 2.187H93.478a4.757 4.757 0 0 1-.54-2.186 4.42 4.42 0 0 0 .54 2.187c.394.743.991 1.37 1.72 1.807Zm-1.72-6.181a4.658 4.658 0 0 1 1.72-1.808 4.677 4.677 0 0 1 2.406-.67 4.68 4.68 0 0 1 2.405.67 4.762 4.762 0 0 1 1.72 1.808h-8.25Z" clip-rule="evenodd"></path>
<path fill="url(#logoe)" d="M106.381 10.935H93.479a4.583 4.583 0 0 0-.54 2.186c0 .758.19 1.517.54 2.187h12.887a9.157 9.157 0 0 0 .263-2.187 8.485 8.485 0 0 0-.248-2.186Z"></path>
<path fill="url(#logof)" d="M118 4.534h-11.269v4.374H118V4.534Z"></path>
<path fill="url(#logog)" d="M118 22.174h-2.42a5.797 5.797 0 0 1-4.14-1.72 5.858 5.858 0 0 1-1.721-4.14V1.327L114.093 0v16.314a1.49 1.49 0 0 0 1.487 1.487H118v4.373Z"></path>
<path fill="url(#logoh)" d="M47.06 22.204c-5.03 0-9.127-4.097-9.127-9.127s4.097-9.14 9.126-9.14a9.08 9.08 0 0 1 7.8 4.373l-3.776 2.304a4.69 4.69 0 0 0-4.024-2.26 4.716 4.716 0 0 0-4.709 4.709 4.716 4.716 0 0 0 4.71 4.709 4.734 4.734 0 0 0 4.096-2.376l3.834 2.186a9.146 9.146 0 0 1-7.93 4.622Z"></path>
<path fill="url(#logoi)" d="M0 14.409 9.852 4.206a13.644 13.644 0 0 1 19.706 0c1.785 1.892 3.043 4.122 3.638 6.486-.397-.743-.859-1.486-1.454-2.094-3.108-3.243-8.135-3.243-11.309 0l-5.62 5.81 5.62 5.812c3.108 3.243 8.135 3.243 11.309 0 .595-.609 1.124-1.352 1.454-2.095-.595 2.366-1.785 4.663-3.638 6.486-5.422 5.675-14.283 5.675-19.706 0L0 14.41Z"></path>
<path fill="url(#logoj)" d="M33.196 14.408c0-2.77-2.116-5-4.827-5-2.645 0-4.827 2.23-4.827 5s2.117 5 4.827 5c2.645-.068 4.827-2.297 4.827-5Z"></path>
<defs>
<linearGradient id="logoa" x1="63.865" x2="57.451" y1="21.656" y2="6.057" gradientUnits="userSpaceOnUse">
<stop offset=".05" stop-color="#D10055"></stop>
<stop offset=".88" stop-color="#F9379F"></stop>
</linearGradient>
<linearGradient id="logoc" x1="64.447" x2="64.447" y1="28.868" y2="6.929" gradientUnits="userSpaceOnUse">
<stop offset=".05" stop-color="#D10055"></stop>
<stop offset=".88" stop-color="#F9379F"></stop>
</linearGradient>
<linearGradient id="logod" x1="94.627" x2="99.719" y1="25.767" y2="8.219" gradientUnits="userSpaceOnUse">
<stop offset=".05" stop-color="#D10055"></stop>
<stop offset=".88" stop-color="#F9379F"></stop>
</linearGradient>
<linearGradient id="logoe" x1="103.684" x2="89.116" y1="7.87" y2="16.106" gradientUnits="userSpaceOnUse">
<stop offset=".102" stop-color="#F9379F"></stop>
<stop offset="1" stop-color="#D10055"></stop>
</linearGradient>
<linearGradient id="logof" x1="95.598" x2="116.297" y1="10.35" y2="5.714" gradientUnits="userSpaceOnUse">
<stop offset=".05" stop-color="#D10055"></stop>
<stop offset=".88" stop-color="#F9379F"></stop>
</linearGradient>
<linearGradient id="logog" x1="110.583" x2="113.817" y1="28.353" y2="4.528" gradientUnits="userSpaceOnUse">
<stop offset=".05" stop-color="#D10055"></stop>
<stop offset=".88" stop-color="#F9379F"></stop>
</linearGradient>
<linearGradient id="logoh" x1="37.932" x2="54.999" y1="13.069" y2="13.069" gradientUnits="userSpaceOnUse">
<stop stop-color="#F9379F"></stop>
<stop offset="1" stop-color="#D10055"></stop>
</linearGradient>
<linearGradient id="logoi" x1="-.001" x2="46.907" y1="14.431" y2="14.433" gradientUnits="userSpaceOnUse">
<stop stop-color="#F9379F"></stop>
<stop offset="1" stop-color="#D10055"></stop>
</linearGradient>
<linearGradient id="logoj" x1="23.542" x2="38.248" y1="14.407" y2="14.433" gradientUnits="userSpaceOnUse">
<stop stop-color="#F9379F"></stop>
<stop offset="1" stop-color="#D10055"></stop>
</linearGradient>
<radialGradient id="logob" cx="0" cy="0" r="1" gradientTransform="matrix(0 -16.4936 24.0198 0 79.384 19.872)" gradientUnits="userSpaceOnUse">
<stop offset=".05" stop-color="#D10055"></stop>
<stop offset=".912" stop-color="#F9379F"></stop>
</radialGradient>
</defs>
</svg>