<svg version="1.1" id="Layer_1" xmlns="http://www.w3.org/2000/svg" xmlns:xlink="http://www.w3.org/1999/xlink" x="0px" y="0px"
	 viewBox="0 0 674.5 698.4" style="enable-background:new 0 0 674.5 698.4;" xml:space="preserve">
<style type="text/css">
	.st0{fill:#F42534;}
	.st1{fill:#D82237;}
	.st2{fill:#C3002F;}
	.st3{fill:#911A1D;}
	.st4{fill:#A41F35;}
	.st5{fill:#D6202A;}
	.st6{fill:#AC162C;}
	.st7{fill:#EB0029;}
</style>
<g>
	<path class="st0" d="M427,427.5l131.7,131.7c3.4,3.4,8.8,3.4,12.2,0c1.6-1.6,2.5-3.8,2.5-6.1V421.5c0-4.8-3.9-8.6-8.6-8.6l0,0
		H433.2c-4.8,0-8.6,3.9-8.6,8.7C424.6,423.8,425.5,425.9,427,427.5z"/>
	<path class="st1" d="M308.2,412.8H8.5c-4.8,0.1-8.6,4-8.5,8.7c0,2.2,0.9,4.3,2.4,5.9l149.8,149.8c3.4,3.4,8.8,3.4,12.2,0
		c0,0,0,0,0,0l149.8-149.8c3.3-3.4,3.2-8.9-0.2-12.2C312.5,413.7,310.4,412.9,308.2,412.8z"/>
	<path class="st2" d="M350.2,638.3v-177c0-4.8-3.9-8.6-8.6-8.6c-2.3,0-4.5,0.9-6.1,2.5l-177,177c-3.4,3.4-3.4,8.8,0,12.2
		c1.6,1.6,3.8,2.5,6.1,2.5h177C346.3,646.9,350.2,643.1,350.2,638.3L350.2,638.3z"/>
	<path class="st3" d="M520.1,569.4L405.8,455.1c-3.4-3.4-8.8-3.4-12.2,0c-1.6,1.6-2.5,3.8-2.5,6.1v228.5c0,4.8,3.9,8.6,8.6,8.6
		c2.3,0,4.5-0.9,6.1-2.5l114.3-114.3C523.4,578.2,523.4,572.8,520.1,569.4z"/>
	<path class="st4" d="M433.2,378.3h232.7c4.8,0,8.6-3.9,8.6-8.6c0-2.3-0.9-4.5-2.5-6.1L555.6,247.2c-3.4-3.4-8.8-3.4-12.2,0
		c0,0,0,0,0,0L427,363.6c-3.4,3.4-3.4,8.8,0,12.2C428.7,377.4,430.9,378.3,433.2,378.3z"/>
	<path class="st5" d="M391.1,144.2v185.6c0,4.8,3.9,8.6,8.6,8.6c2.3,0,4.5-0.9,6.1-2.5l185.6-185.6c3.4-3.4,3.4-8.8,0-12.2
		c-1.6-1.6-3.8-2.5-6.1-2.5H399.8C395,135.6,391.1,139.5,391.1,144.2z"/>
	<path class="st6" d="M94.5,164.7v205c0,4.8,3.9,8.6,8.6,8.6c0,0,0,0,0,0h205c4.8,0,8.6-3.9,8.6-8.6c0-2.3-0.9-4.5-2.5-6.1l-205-205
		c-3.4-3.4-8.8-3.3-12.2,0.1C95.4,160.2,94.5,162.4,94.5,164.7z"/>
	<path class="st7" d="M174.8,175.3L335.5,336c3.4,3.4,8.8,3.4,12.2,0c1.6-1.6,2.5-3.8,2.5-6.1V8.6c0-4.8-3.9-8.6-8.6-8.6
		c-2.3,0-4.5,0.9-6.1,2.5L174.8,163.1C171.4,166.4,171.4,171.9,174.8,175.3C174.8,175.3,174.8,175.3,174.8,175.3z"/>
</g>
</svg>
