<?xml version="1.0" encoding="utf-8"?>
<!-- Generator: Adobe Illustrator 22.1.0, SVG Export Plug-In . SVG Version: 6.00 Build 0)  -->
<svg version="1.1" id="Layer_1" xmlns="http://www.w3.org/2000/svg" xmlns:xlink="http://www.w3.org/1999/xlink" x="0px" y="0px"
	 viewBox="0 0 512 512" style="enable-background:new 0 0 512 512;" xml:space="preserve">
<g>
	<path d="M480.9,160.5v-21.4l-28.6-8.8l-2.2-10.4l20.2-20.8l-10.4-19.5l-29.1,7.5l-7.2-7.5l7.5-28.3l-19.2-11.6l-21.4,21.1
		l-10.7-3.2l-7-26.5H350l-6.2,26.5l-12.2,3.2l-19.8-21.1l-19.5,11l8.1,27.8l-8.1,8.4l-28.6-7.5l-11,19.2l20.8,21.1l-2.9,10.4
		l-28.6,7.8l-0.3,21.8l28.9,7.5l2.4,12.2l-20.2,20l10.4,18.6l29.7-7.5l7.2,8.6l-8.1,27l20,11.6l19.5-20.5l11.6,2.9l6.7,28.6
		l22.7,0.3l6.7-28.9l11.6-3.5l20.8,21.7l20.5-12.2l-8.8-28.1l7.8-8.1l28.9,8.8l10.3-20.2l-21-18.9l2.2-12.2L480.9,160.5L480.9,160.5
		z M361.2,205.9c-31.4,0-57-25.5-57-57s25.5-57,57-57s57,25.5,57,57C418.3,180.5,392.8,205.9,361.2,205.9z M433.9,222.4l47.1,14.6
		V277l-55.3,13.5l-4.1,22.8l39.1,35.4l-19.3,38.1L387.1,370l-14.7,15.3l16.8,52.7l-38.5,22.8l-39.1-40.7l-21.8,6.6L277.2,481
		l-42.6-0.5L222,426.7l-21.8-5.6l-36.6,38.6l-37.6-21.8l15.3-50.7l-13.8-16.2l-55.7,14.2L52,350.1l38.1-37.6l-4.8-22.9l-54.2-14.2
		l0.5-41.1l53.7-14.8l5.7-19.8l-39.1-39.6l20.8-36l53.8,14.2l15.3-15.8l-15.3-52.2l36.6-20.8l37,39.6l22.8-6.1L234.5,31h42.6
		l11.6,46.1L266,71.2l-6.3-1.7l-3.3,5.7l-11,19.2L242,100l4.6,4.6l17.3,17.5l-0.3,1l-23.9,6.5l-6.2,1.7l-0.1,6.4l-0.2,13
		c-47.7,10.4-83.7,53-83.7,103.9c0,58.5,47.5,106.1,106.1,106.1c50.7,0,93.1-35.6,103.6-83.2l13.3,0.2l6.9,0.1l1.6-6.7l5.6-24.1
		l1.9-0.6l17.2,17.9l4.7,4.9l5.8-3.4l20.5-12.2l5.8-3.5l-2-6.5L433.9,222.4L433.9,222.4z"/>
</g>
</svg>
