<svg xmlns="http://www.w3.org/2000/svg" viewBox="0 0 512 512"><path d="M480.9 160.5v-21.4l-28.6-8.8-2.2-10.4 20.2-20.8-10.4-19.5-29.1 7.5-7.2-7.5 7.5-28.3-19.2-11.6-21.4 21.1-10.7-3.2-7-26.5H350l-6.2 26.5-12.2 3.2-19.8-21.1-19.5 11 8.1 27.8-8.1 8.4-28.6-7.5-11 19.2 20.8 21.1-2.9 10.4-28.6 7.8-.3 21.8 28.9 7.5 2.4 12.2-20.2 20 10.4 18.6 29.7-7.5 7.2 8.6-8.1 27 20 11.6 19.5-20.5 11.6 2.9 6.7 28.6 22.7.3 6.7-28.9 11.6-3.5 20.8 21.7 20.5-12.2-8.8-28.1 7.8-8.1 28.9 8.8 10.3-20.2-21-18.9 2.2-12.2 29.4-6.9zm-119.7 45.4c-31.4 0-57-25.5-57-57s25.5-57 57-57 57 25.5 57 57c.1 31.6-25.4 57-57 57zm72.7 16.5L481 237v40l-55.3 13.5-4.1 22.8 39.1 35.4-19.3 38.1-54.3-16.8-14.7 15.3 16.8 52.7-38.5 22.8-39.1-40.7-21.8 6.6-12.6 54.3-42.6-.5-12.6-53.8-21.8-5.6-36.6 38.6-37.6-21.8 15.3-50.7-13.8-16.2-55.7 14.2L52 350.1l38.1-37.6-4.8-22.9-54.2-14.2.5-41.1 53.7-14.8 5.7-19.8-39.1-39.6 20.8-36 53.8 14.2 15.3-15.8-15.3-52.2 36.6-20.8 37 39.6 22.8-6.1 11.6-52h42.6l11.6 46.1-22.7-5.9-6.3-1.7-3.3 5.7-11 19.2-3.4 5.6 4.6 4.6 17.3 17.5-.3 1-23.9 6.5-6.2 1.7-.1 6.4-.2 13c-47.7 10.4-83.7 53-83.7 103.9 0 58.5 47.5 106.1 106.1 106.1 50.7 0 93.1-35.6 103.6-83.2l13.3.2 6.9.1 1.6-6.7 5.6-24.1 1.9-.6 17.2 17.9 4.7 4.9 5.8-3.4 20.5-12.2 5.8-3.5-2-6.5-6.6-21.2z"/></svg>