<?xml version="1.0" encoding="UTF-8" standalone="no"?>
<svg
   xmlns:dc="http://purl.org/dc/elements/1.1/"
   xmlns:cc="http://creativecommons.org/ns#"
   xmlns:rdf="http://www.w3.org/1999/02/22-rdf-syntax-ns#"
   xmlns:svg="http://www.w3.org/2000/svg"
   xmlns="http://www.w3.org/2000/svg"
   xmlns:sodipodi="http://sodipodi.sourceforge.net/DTD/sodipodi-0.dtd"
   xmlns:inkscape="http://www.inkscape.org/namespaces/inkscape"
   version="1.1"
   id="layer"
   x="0"
   y="0"
   viewBox="0 0 652 652"
   xml:space="preserve"
   sodipodi:docname="whmcs.svg"
   inkscape:version="0.92.4 (5da689c313, 2019-01-14)"><metadata
     id="metadata15"><rdf:RDF><cc:Work
         rdf:about=""><dc:format>image/svg+xml</dc:format><dc:type
           rdf:resource="http://purl.org/dc/dcmitype/StillImage" /><dc:title></dc:title></cc:Work></rdf:RDF></metadata><defs
     id="defs13" /><sodipodi:namedview
     pagecolor="#ffffff"
     bordercolor="#666666"
     borderopacity="1"
     objecttolerance="10"
     gridtolerance="10"
     guidetolerance="10"
     inkscape:pageopacity="0"
     inkscape:pageshadow="2"
     inkscape:window-width="1275"
     inkscape:window-height="859"
     id="namedview11"
     showgrid="false"
     inkscape:zoom="0.51189325"
     inkscape:cx="921.86846"
     inkscape:cy="-231.20061"
     inkscape:window-x="3"
     inkscape:window-y="0"
     inkscape:window-maximized="0"
     inkscape:current-layer="layer" /><style
     id="style2">.st1{fill:#043855}</style><path
     inkscape:connector-curvature="0"
     d="m 1335.9197,738.4136 v -21.4 l -28.6,-8.8 -2.2,-10.4 20.2,-20.8 -10.4,-19.5 -29.1,7.5 -7.2,-7.5 7.5,-28.3 -19.2,-11.6 -21.4,21.1 -10.7,-3.2 -7,-26.5 h -22.8 l -6.2,26.5 -12.2,3.2 -19.8,-21.1 -19.5,11 8.1,27.8 -8.1,8.4 -28.6,-7.5 -11,19.2 20.8,21.1 -2.9,10.4 -28.6,7.8 -0.3,21.8 28.9,7.5 2.4,12.2 -20.2,20 10.4,18.6 29.7,-7.5 7.2,8.6 -8.1,27 20,11.6 19.5,-20.5 11.6,2.9 6.7,28.6 22.7,0.3 6.7,-28.9 11.6,-3.5 20.8,21.7 20.5,-12.2 -8.8,-28.1 7.8,-8.1 28.9,8.8 10.3,-20.2 -21,-18.9 2.2,-12.2 z m -119.7,45.4 c -31.4,0 -57,-25.5 -57,-57 0,-31.5 25.5,-57 57,-57 31.5,0 57,25.5 57,57 0.1,31.6 -25.4,57 -57,57 z"
     id="path2"
     style="fill:#d8dadb;fill-opacity:1"
     sodipodi:nodetypes="cccccccccccccccccccccccccccccccccccccccccccccccccssscs" /><path
     inkscape:connector-curvature="0"
     d="m 1290.3197,801.9136 47.1,14.6 v 40 l -55.3,13.5 -4.1,22.8 39.1,35.4 -19.3,38.1 -54.3,-16.8 -14.7,15.3 16.8,52.7 -38.5,22.8 -39.1,-40.7 -21.8,6.6 -12.6,54.3 -42.6,-0.5 -12.6,-53.8 -21.8,-5.6 -36.6,38.6 -37.59996,-21.8 15.3,-50.7 -13.8,-16.2 -55.7,14.2 -19.8,-35.1 38.1,-37.6 -4.8,-22.9 -54.2,-14.2 0.5,-41.1 53.7,-14.8 5.7,-19.8 -39.1,-39.6 20.8,-36 53.8,14.2 15.3,-15.8 -15.3,-52.2 36.59996,-20.8 37,39.6 22.8,-6.1 11.6,-52 h 42.6 l 11.6,46.1 -22.7,-5.9 -6.3,-1.7 -3.3,5.7 -11,19.2 -3.4,5.6 4.6,4.6 17.3,17.5 c -5.3297,4.47342 -16.9882,5.53865 -24.2,7.5 l -6.2,1.7 -0.1,6.4 -0.2,13 c -47.7,10.4 -83.7,53 -83.7,103.9 0,58.5 47.5,106.1 106.1,106.1 50.7,0 93.1,-35.6 103.6,-83.2 l 13.3,0.2 6.9,0.1 1.6,-6.7 5.6,-24.1 1.9,-0.6 17.2,17.9 4.7,4.9 5.8,-3.4 20.5,-12.2 5.8,-3.5 -2,-6.5 z"
     id="path2-6"
     sodipodi:nodetypes="cccccccccccccccccccccccccccccccccccccccccccccccccccssccccccccccccc"
     style="fill:#7abf42;fill-opacity:1" /></svg>