<svg xmlns:dc="http://purl.org/dc/elements/1.1/" xmlns:cc="http://creativecommons.org/ns#" xmlns:rdf="http://www.w3.org/1999/02/22-rdf-syntax-ns#" xmlns:svg="http://www.w3.org/2000/svg" xmlns="http://www.w3.org/2000/svg" xmlns:sodipodi="http://sodipodi.sourceforge.net/DTD/sodipodi-0.dtd" xmlns:inkscape="http://www.inkscape.org/namespaces/inkscape" version="1.1" id="layer" x="0" y="0" xml:space="preserve" sodipodi:docname="whmcs.svg" inkscape:version="0.92.4 (5da689c313, 2019-01-14)" viewBox="6.48 1.47 644.56 646.85"><metadata id="metadata15"><rdf:rdf><cc:work rdf:about=""><dc:format>image/svg+xml</dc:format><dc:type rdf:resource="http://purl.org/dc/dcmitype/StillImage"></dc:type><dc:title></dc:title></cc:work></rdf:rdf></metadata><defs id="defs13"></defs><sodipodi:namedview pagecolor="#ffffff" bordercolor="#666666" borderopacity="1" objecttolerance="10" gridtolerance="10" guidetolerance="10" inkscape:pageopacity="0" inkscape:pageshadow="2" inkscape:window-width="1280" inkscape:window-height="961" id="namedview11" showgrid="false" inkscape:zoom="0.51189325" inkscape:cx="509.3843" inkscape:cy="3.2232665" inkscape:window-x="1912" inkscape:window-y="-8" inkscape:window-maximized="1" inkscape:current-layer="layer"></sodipodi:namedview><style id="style2">.st1{fill:#043855}</style><path inkscape:connector-curvature="0" d="M 648.89547,186.85333 V 156.19406 L 607.92093,143.58651 604.76905,128.68669 633.70911,98.887024 618.80927,70.949841 577.1184,81.694911 566.80313,70.949841 577.5482,30.405109 550.04082,13.786067 519.38155,44.015531 504.05192,39.430968 494.02319,1.4650534 h -32.66501 l -8.8826,37.9659146 -17.47865,4.584563 -28.36698,-30.229464 -27.93719,15.759437 11.60468,39.828393 -11.60468,12.034479 -40.97453,-10.74507 -15.75944,27.507379 29.79967,30.229465 -4.15477,14.89983 -40.97452,11.17487 -0.42981,31.23234 41.40433,10.74507 3.43843,17.47865 -28.94005,28.65351 14.89982,26.64778 42.55048,-10.74507 10.31527,12.32101 -11.60468,38.68225 28.65353,16.61905 27.93718,-29.36986 16.61904,4.15476 9.59893,40.97454 32.52175,0.4298 9.59893,-41.40434 16.61904,-5.01436 29.79966,31.08906 29.36985,-17.47865 -12.60754,-40.25819 11.17487,-11.60468 41.40434,12.60755 14.75657,-28.94005 -30.08621,-27.07758 3.15189,-17.47864 z m -171.49132,65.04349 c -44.98603,0 -81.66254,-36.53323 -81.66254,-81.66254 0,-45.12928 36.53324,-81.662524 81.66254,-81.662524 45.12929,0 81.66253,36.533244 81.66253,81.662524 0.14326,45.27257 -36.38997,81.66254 -81.66253,81.66254 z" id="path2" style="fill:#d8dadb;fill-opacity:1;stroke-width:1.43267596" sodipodi:nodetypes="cccccccccccccccccccccccccccccccccccccccccccccccccssscs"></path><path inkscape:connector-curvature="0" d="m 583.56544,277.82825 67.47904,20.91707 v 57.30705 l -79.22698,19.34112 -5.87397,32.66501 56.01763,50.71674 -27.65065,54.58496 -77.79431,-24.06896 -21.06034,21.91994 24.06896,75.50203 -55.15803,32.66501 -56.01763,-58.30991 -31.23234,9.45566 -18.05171,77.79431 -61.032,-0.71634 -18.05172,-77.07797 -31.23234,-8.02298 -52.43594,55.30129 -53.86856,-31.23234 21.91994,-72.63667 -19.77093,-23.20935 -79.800056,20.344 -28.366985,-50.28693 54.584957,-53.86863 -6.876845,-32.80827 -77.6510372,-20.344 0.716338,-58.88299 76.9346992,-21.20361 8.166253,-28.36698 -56.017633,-56.73398 29.799662,-51.57633 77.077967,20.344 21.91994,-22.63627 -21.91994,-74.785695 52.43589,-29.799662 53.00901,56.733972 32.66501,-8.739324 16.61904,-74.4991536 h 61.032 l 16.61905,66.0463656 -32.52174,-8.452789 -9.02586,-2.43555 -4.72784,8.166254 -15.75943,27.50738 -4.87111,8.022992 6.59032,6.5903 24.78529,25.07184 c -7.63573,6.40895 -24.33858,7.93508 -34.67076,10.74506 l -8.88258,2.43555 -0.14328,9.16913 -0.28653,18.62478 c -68.33865,14.89983 -119.91498,75.93183 -119.91498,148.85504 0,83.81155 68.05211,152.00693 152.00692,152.00693 72.63667,0 133.38214,-51.00326 148.42524,-119.19864 l 19.0546,0.28653 9.88546,0.14326 2.29227,-9.59892 8.02299,-34.52749 2.72208,-0.85961 24.64203,25.6449 6.73358,7.02011 8.30953,-4.8711 29.36985,-17.47864 8.30952,-5.01437 -2.86534,-9.31239 z" id="path2-6" sodipodi:nodetypes="cccccccccccccccccccccccccccccccccccccccccccccccccccssccccccccccccc" style="fill:#7abf42;fill-opacity:1;stroke-width:1.43267596"></path></svg>
