<?xml version="1.0" encoding="utf-8"?>
<!-- Generator: Adobe Illustrator 19.2.1, SVG Export Plug-In . SVG Version: 6.00 Build 0)  -->
<svg version="1.1" id="layer" xmlns="http://www.w3.org/2000/svg" xmlns:xlink="http://www.w3.org/1999/xlink" x="0px" y="0px"
	 viewBox="0 0 652 652" style="enable-background:new 0 0 652 652;" xml:space="preserve">
<style type="text/css">
	.st0{fill:#7ABF42;}
	.st1{fill:#043855;}
	.st2{fill:#D8DADB;}
</style>
<path class="st0" d="M486.1,354.6c-16.3,0-29.5-13.3-29.5-29.6c0-16.3,13.3-29.5,29.6-29.5c11.9,0,22.7,7.2,27.2,18.2h19.7
	c-0.4-1.6-0.8-3.1-1.3-4.6l11.4-10.3l-5.6-9.9l-15.2,4.2c-1.3-1.5-2.7-2.9-4.3-4.3l4.6-14.4l-9.8-5.9l-11.6,10.5c-2-0.7-4-1.2-6-1.6
	l-3.6-14.7l-11.4-0.2l-3.9,15c-2.1,0.4-4.2,1-6.3,1.7l-10.7-11.1l-10,5.5l4.2,15.4c-1.4,1.3-2.8,2.6-4.1,4.1l-15.2-4.2l-6,9.7
	l11.5,11.2c-0.6,1.9-1.2,3.8-1.5,5.8l-14.9,4.2l-0.3,11.4l15.3,4.1c0.4,2.1,1,4.1,1.7,6.1l-11.7,10.1l5.4,10l15.8-4.3
	c1.2,1.4,2.5,2.7,3.9,3.9l-3.7,15.8l9.7,5.5l11.5-11.2c1.7,0.6,3.5,1,5.3,1.4l3.7,15.5h11.4l3.8-15.5c2.1-0.4,4.1-1,6.1-1.6
	l10.5,11.3l10.1-5.6l-4.2-15c1.6-1.4,3.1-2.8,4.5-4.4l14.7,4.4l5.8-9.8l-9.2-9H510C504.4,350.3,495.5,354.7,486.1,354.6L486.1,354.6
	z"/>
<polygon class="st1" points="21.6,268.8 43.2,268.8 70.3,353.8 97.8,268.4 115.4,268.4 143,353.8 170.1,268.8 191,268.8 
	154.1,384.3 133.3,384.3 106.3,301.9 80.7,384.3 59.3,384.3 21.6,268.8 "/>
<polygon class="st1" points="200.8,268.8 220.4,268.8 220.4,316.5 270.4,316.5 270.4,268.8 290,268.8 290,383.5 270.4,383.5 
	270.4,335.1 220.4,335.1 220.4,383.5 200.8,383.5 200.8,268.8 "/>
<polygon class="st1" points="303.4,268.8 326,268.8 359.4,316.6 392.9,268.8 416.4,268.8 416.4,383.5 395.1,383.5 395.1,298.5 
	359.7,349.8 323.4,298.8 323.4,383.5 303.4,383.5 303.4,268.8 "/>
<path class="st1" d="M543.3,354.2v21.5c11.4,5.9,24,9.2,36.8,9.5c19.5,0,41.6-9.6,41.6-32.3c0-22.7-13.9-32.1-34.6-37.6
	s-24.3-9.3-24.3-15.6c0-5.5,4.3-14,23.6-14c10.1-0.1,20,3.4,27.8,9.8v-20.7c0,0-16.1-7.7-30.7-7.7s-40.2,3.4-40.2,34.4
	c0,40.7,57.1,24.5,57.1,50.5c0,10.5-10,14-24.3,13.8C560.3,365.6,543.3,354.2,543.3,354.2z"/>
<path class="st2" d="M520,274.5c-10.6,0-19.2,8.6-19.1,19.3c0,10.6,8.6,19.2,19.3,19.1c10.6,0,19.1-8.6,19.1-19.2
	C539.3,283.1,530.6,274.5,520,274.5L520,274.5z M550.9,300.1c-0.3,1.3-0.6,2.7-1.1,3.9l7.1,7l-3.8,6.4l-9.5-2.9
	c-0.9,1-1.9,2-2.9,2.9l2.6,9.7l-6.4,3.7l-6.8-7.3c-1.3,0.4-2.6,0.8-4,1.1l-2.5,10.1h-7.4l-2.3-10.1c-1.2-0.2-2.3-0.5-3.5-0.9
	L503,331l-6.3-3.5l2.4-10.2c-0.9-0.8-1.8-1.7-2.6-2.6l-10.2,2.8l-3.3-6.3l7.6-6.6c-0.5-1.3-0.8-2.6-1.1-4l-9.9-2.6l0.2-7.4l9.6-2.6
	c0.2-1.3,0.6-2.5,1-3.8l-7.5-7.2l3.9-6.3l9.8,2.6c0.8-0.9,1.7-1.8,2.6-2.6l-2.6-10l6.5-3.5l7,7.2c1.3-0.5,2.7-0.8,4.1-1.1l2.6-9.7
	l7.4,0.2l2.3,9.6c1.3,0.3,2.6,0.6,3.9,1l7.5-6.9l6.4,3.8l-3,9.4c1,0.9,1.9,1.8,2.8,2.8l9.8-2.8l3.6,6.5l-7.4,6.7
	c0.5,1.5,0.9,3,1.2,4.5l10.1,2.6v7.4l-10.1,2.2L550.9,300.1z"/>
</svg>
