<svg version="1.1" id="svg9" viewBox="0.9214230179786682 0.34605878591537476 19.83729362487793 20.712820053100586" sodipodi:docname="redacted.svg" inkscape:version="1.2.1 (9c6d41e410, 2022-07-14)" xmlns:inkscape="http://www.inkscape.org/namespaces/inkscape" xmlns:sodipodi="http://sodipodi.sourceforge.net/DTD/sodipodi-0.dtd" xmlns:xlink="http://www.w3.org/1999/xlink" xmlns="http://www.w3.org/2000/svg" xmlns:svg="http://www.w3.org/2000/svg">
  <defs id="defs13">
    <linearGradient inkscape:collect="always" id="linearGradient16710">
      <stop style="stop-color:#ffffff;stop-opacity:1;" offset="0" id="stop16706"></stop>
      <stop style="stop-color:#8fa1d2;stop-opacity:1;" offset="1" id="stop16708"></stop>
    </linearGradient>
    <linearGradient inkscape:collect="always" id="linearGradient16638">
      <stop style="stop-color:#ffffff;stop-opacity:1;" offset="0" id="stop16634"></stop>
      <stop style="stop-color:#8fa1d2;stop-opacity:1;" offset="1" id="stop16636"></stop>
    </linearGradient>
    <inkscape:path-effect effect="bspline" id="path-effect14295" is_visible="true" lpeversion="1" weight="33.333333" steps="2" helper_size="0" apply_no_weight="true" apply_with_weight="true" only_selected="false"></inkscape:path-effect>
    <inkscape:path-effect effect="bspline" id="path-effect14291" is_visible="true" lpeversion="1" weight="33.333333" steps="2" helper_size="0" apply_no_weight="true" apply_with_weight="true" only_selected="false"></inkscape:path-effect>
    <inkscape:path-effect effect="bspline" id="path-effect14191" is_visible="true" lpeversion="1" weight="33.333333" steps="2" helper_size="0" apply_no_weight="true" apply_with_weight="true" only_selected="false"></inkscape:path-effect>
    <inkscape:path-effect effect="bspline" id="path-effect8379" is_visible="true" lpeversion="1" weight="33.333333" steps="2" helper_size="0" apply_no_weight="true" apply_with_weight="true" only_selected="false"></inkscape:path-effect>
    <linearGradient inkscape:collect="always" xlink:href="#linearGradient16638" id="linearGradient16642" x1="41.711529" y1="2.509068" x2="41.790787" y2="12.010816" gradientUnits="userSpaceOnUse" gradientTransform="translate(-31.289475,-1.5177669)"></linearGradient>
    <linearGradient inkscape:collect="always" xlink:href="#linearGradient16710" id="linearGradient16712" x1="37.456062" y1="17.058937" x2="32.298031" y2="16.882158" gradientUnits="userSpaceOnUse" gradientTransform="matrix(1,0,0,0.98291676,-31.289475,-1.6177111)"></linearGradient>
    <linearGradient inkscape:collect="always" xlink:href="#linearGradient16710" id="linearGradient16754" gradientUnits="userSpaceOnUse" gradientTransform="matrix(-1,0,0,0.98291676,53.097862,-1.4961594)" x1="37.456062" y1="17.058937" x2="32.298031" y2="16.882158"></linearGradient>
  </defs>
  <sodipodi:namedview id="namedview11" pagecolor="#ffffff" bordercolor="#000000" borderopacity="0.25" inkscape:showpageshadow="2" inkscape:pageopacity="0.0" inkscape:pagecheckerboard="0" inkscape:deskcolor="#d1d1d1" showgrid="false" inkscape:zoom="32" inkscape:cx="5.59375" inkscape:cy="9.375" inkscape:window-width="1920" inkscape:window-height="1017" inkscape:window-x="-8" inkscape:window-y="-8" inkscape:window-maximized="1" inkscape:current-layer="g15"></sodipodi:namedview>
  <g inkscape:groupmode="layer" inkscape:label="Image" id="g15">
    <path style="opacity:1;fill:#000000;stroke-width:1.01003" d="m 8.148198,19.053976 c 0.4595911,0.172837 1.3775531,0.518051 2.442091,0.533418 1.064538,0.01537 2.276117,-0.298458 2.881374,-0.456309 0.605257,-0.157851 0.604644,-0.161152 0.622985,0.107209 0.01834,0.268361 0.05575,0.808336 0.586536,1.1952 0.530784,0.386864 1.553733,0.621383 2.473835,0.613755 0.920102,-0.0076 1.737725,-0.256954 2.295849,-0.547932 0.558124,-0.290978 0.857413,-0.623839 1.033322,-0.812533 0.17591,-0.188693 0.22828,-0.23307 0.254421,-2.004159 0.02614,-1.771088 0.02614,-5.269828 0.0038,-7.137505 C 20.72007,8.6774433 20.675169,8.4407435 20.536802,7.9414371 20.398436,7.4421308 20.166486,6.6802652 19.871096,5.9997151 19.575706,5.3191651 19.216566,4.7200272 18.909863,4.2576662 18.60316,3.7953053 18.348764,3.4698409 18.035719,3.158639 17.722674,2.847437 17.350754,2.5507403 17.05102,2.3229186 16.751287,2.0950969 16.523725,1.9362528 16.311161,1.7917649 16.098597,1.6472769 15.901043,1.5171997 15.690912,1.3961871 15.480782,1.2751744 15.258056,1.163402 15.005615,1.0612672 14.753174,0.95913229 14.471046,0.86685821 14.236437,0.79390499 14.001829,0.72095177 13.814772,0.66737829 13.601491,0.62201403 13.388211,0.57664976 13.148779,0.53966509 12.858817,0.50265149 12.568856,0.46563789 12.228422,0.42865411 11.895423,0.40272756 11.562423,0.37680102 11.236952,0.36200755 10.890869,0.3527421 10.544785,0.34347666 10.178163,0.33977814 9.7777608,0.3693 9.3773585,0.39882185 8.9433896,0.46169556 8.5954226,0.51900745 8.2474557,0.57631933 7.9855777,0.62809776 7.641322,0.71684386 7.2970664,0.80558996 6.8705793,0.93133736 6.5188056,1.0570807 6.1670319,1.1828241 5.8901882,1.3085721 5.5533806,1.4972191 5.2165731,1.685866 4.8200144,1.9373615 4.4719875,2.1926122 4.1239605,2.4478629 3.8246714,2.7067547 3.5664417,2.9694426 3.308212,3.2321304 3.0912276,3.498419 2.8891579,3.7869988 2.6870882,4.0755785 2.5000328,4.3862487 2.3279401,4.6673284 2.1558473,4.9484081 1.9987202,5.1999031 1.8527939,5.5144335 1.7068675,5.8289638 1.5721898,6.2062003 1.4599564,6.5391021 1.347723,6.8720039 1.2579372,7.1604801 1.1906334,7.4675754 1.1233296,7.7746706 1.0784362,8.1001343 1.0372945,8.4404214 c -0.0411416,0.3402871 -0.0785531,0.695341 -0.0972123,1.0541598 -0.0186592,0.3588189 -0.0186592,0.7212678 -0.0186592,2.4115268 0,1.690258 0,4.708199 0.0714501,6.331944 0.0714501,1.623746 0.21361272,1.85305 0.39267212,2.040952 0.1790595,0.187901 0.3974333,0.336727 0.5583894,0.440777 0.1609562,0.10405 0.2785147,0.172147 0.4665459,0.213584 0.1880311,0.04144 0.4866193,0.06621 0.9079362,0.08367 0.4213168,0.01746 0.979174,0.02881 1.4668542,0.03724 0.4876802,0.0084 0.9050726,0.01394 1.2855772,-0.06478 0.3805045,-0.07872 0.7246862,-0.241455 0.9451152,-0.544263 0.220429,-0.302808 0.3176979,-0.74662 0.4092648,-1.030958 0.091567,-0.284337 0.1774003,-0.408636 0.2203896,-0.470891 0.042989,-0.06226 0.042989,-0.06225 0.5025803,0.110591 z" id="path8377" inkscape:path-effect="#path-effect8379" inkscape:original-d="m 7.688607,18.88114 c 0.918977,0.346218 1.836939,0.691432 2.753884,1.035641 1.212644,-0.312832 2.424223,-0.626657 3.63481,-0.941492 3.99e-4,-0.0022 -2.18e-4,-0.0055 -0.0018,-0.0097 0.03843,0.541001 0.07585,1.080975 0.112237,1.619956 1.024062,0.235545 2.047011,0.470064 3.069076,0.70361 0.818671,-0.24834 1.636294,-0.497666 2.452921,-0.747992 0.300317,-0.331871 0.599607,-0.664731 0.897887,-0.998604 0.0534,-0.04338 0.105768,-0.08776 0.157129,-0.133146 0.001,-3.497876 0.001,-6.996616 0,-10.4964309 -0.04391,-0.235685 -0.0888,-0.472387 -0.134703,-0.7100968 C 20.399076,7.441936 20.16713,6.6800691 19.934156,5.9171524 19.57601,5.3189827 19.21687,4.7198449 18.856693,4.1196664 18.603303,3.7951933 18.348907,3.4697291 18.093491,3.1432542 17.722579,2.8475557 17.350659,2.550859 16.977708,2.2531455 16.751148,2.0952954 16.523587,1.9364511 16.294995,1.7765926 16.098443,1.6475111 15.900889,1.5174333 15.702305,1.3863433 15.480584,1.2755688 15.257858,1.163797 15.034104,1.0510141 14.752976,0.95973915 14.470847,0.86746535 14.187687,0.77418195 14.00164,0.72161085 13.814583,0.66803755 13.626508,0.61345915 13.388083,0.57747735 13.148651,0.54049285 12.9082,0.50250325 c -0.33944,-0.0359818 -0.679874,-0.0729657 -1.021345,-0.110956 -0.324475,-0.0137905 -0.649946,-0.0285832 -0.976452,-0.0443822 -0.365628,-0.00269 -0.73225,-0.0064 -1.09991,-0.011096 -0.432971,0.063881 -0.86694,0.1267544 -1.301935,0.1886252 -0.260873,0.052785 -0.522751,0.1045631 -0.785649,0.1553383 C 7.29742,0.80678935 6.870933,0.93253685 6.443421,1.0572827 6.167584,1.1840395 5.89074,1.309787 5.612876,1.4345328 5.217319,1.6870422 4.82076,1.9385372 4.423178,2.1890331 4.124892,2.4489397 3.825603,2.7078317 3.525292,2.9657245 3.309314,3.2330284 3.09233,3.4993173 2.874325,3.7646073 2.688277,4.0762943 2.501222,4.3869647 2.313147,4.696637 2.157029,4.9491464 1.999902,5.2006414 1.841756,5.4511373 1.708087,5.8293992 1.573409,6.2066356 1.437708,6.5828877 1.348938,6.8723821 1.259148,7.160857 1.168342,7.4483439 1.124452,7.7748254 1.079562,8.1002896 1.033659,8.4247561 c -0.0364,0.356069 -0.07381,0.711123 -0.11223601,1.065177 0.001,0.363467 0.001,0.7259159 0,1.0873669 0.001,3.019066 0.001,6.037007 0,9.054004 C 1.064607,19.861622 1.20677,20.090926 1.347919,20.31923 c 0.2165374,0.147893 0.4349111,0.296719 0.646566,0.440647 0.1102226,0.06427 0.2277817,0.132366 0.3320855,0.192364 0.2718658,0.02347 0.5704534,0.04825 0.854201,0.07087 0.558942,0.01236 1.1167991,0.02372 1.6737445,0.03407 0.4184222,0.0065 0.8358146,0.01202 1.252198,0.01654 0.345212,-0.161735 0.689394,-0.324466 1.032568,-0.488206 0.0983,-0.442828 0.195558,-0.886643 0.291814,-1.331471 0.08686,-0.123303 0.17269,-0.247605 0.257511,-0.372914 z" sodipodi:nodetypes="scccccccccccccccccccccccccccccccccccccccsscccccss"></path>
    <path style="fill:url(#linearGradient16712);stroke-width:0.985353" d="m 6.158677,10.852379 c 0.0079,2.960185 0.0206,8.877633 0.0206,8.877633 L 2.9564,19.714782 c 0,0 -0.310393,-0.110674 -0.467084,-0.167473 -0.167472,-0.19586 -0.37701,-0.329257 -0.442868,-0.578808 -0.584192,-2.213619 -0.441394,-4.889848 -0.172319,-7.45996 0.02182,-0.208422 0.165772,-0.407614 0.333933,-0.532666 0.147115,-0.109401 0.354575,-0.09612 0.530365,-0.145651" id="path16719" sodipodi:nodetypes="ccccssac"></path>
    <path style="fill:url(#linearGradient16754);stroke-width:0.985353" d="m 15.64971,10.973931 c -0.0079,2.960185 -0.0206,8.877633 -0.0206,8.877633 l 3.222877,-0.01523 c 0,0 0.310393,-0.110674 0.467084,-0.167473 0.167472,-0.19586 0.37701,-0.329257 0.442868,-0.578808 0.584192,-2.213619 0.441394,-4.889848 0.172319,-7.45996 -0.02182,-0.208422 -0.165772,-0.407614 -0.333933,-0.532666 -0.147115,-0.109401 -0.354575,-0.09612 -0.530365,-0.145651" id="path16719-3" sodipodi:nodetypes="ccccssac"></path>
    <path style="fill:url(#linearGradient16642)" d="m 2.7744513,10.191053 c 0.1957473,0.02585 0.5861294,0.07741 0.8764167,-0.121296 C 3.9411552,9.8710477 4.1326594,9.4217488 4.3683719,8.7257617 4.6040844,8.0297745 4.8839755,7.0869844 5.2855144,6.3611281 5.6870534,5.6352717 6.2100068,5.1270494 6.8805039,4.6813258 7.5510009,4.2356022 8.368577,3.8525936 9.1753918,3.6464381 9.9822067,3.4402827 10.777686,3.4108206 11.510662,3.4477547 c 0.732976,0.036934 1.403241,0.1400517 1.896786,0.2580701 0.493545,0.1180184 0.810263,0.2505984 1.086442,0.4017515 0.276179,0.1511532 0.410314,0.2971232 0.598137,0.433397 0.187823,0.1362738 0.308237,0.2823604 0.422263,0.3929922 0.114026,0.1106317 0.253195,0.2558245 0.337856,0.3773792 0.08466,0.1215546 0.22037,0.2584896 0.297683,0.3837176 0.07731,0.1252278 0.147061,0.2074728 0.22432,0.3621667 0.07726,0.1546939 0.177811,0.323209 0.255201,0.4852505 0.07739,0.1620415 0.151045,0.3019863 0.290883,0.6776455 0.139838,0.3756593 0.346074,0.9870001 0.500714,1.4804977 0.154641,0.4934977 0.257759,0.8691407 0.42194,1.1462587 0.164181,0.2771176 0.388645,0.4560096 0.600947,0.5548396 0.212301,0.09883 0.412431,0.11836 0.605486,0.07296 0.193054,-0.0454 0.379797,-0.155435 0.498729,-0.360961 C 19.666982,9.908196 19.718541,9.6062079 19.692982,9.2565225 19.667423,8.906837 19.564308,8.5091061 19.472232,8.1518616 19.380157,7.7946171 19.299137,7.4779051 19.221852,7.2127464 19.144567,6.9475878 19.070913,6.7339911 18.883187,6.3362331 18.695462,5.938475 18.393474,5.3565965 17.962728,4.7378159 17.531982,4.1190353 16.9722,3.4635013 16.287311,2.9035002 15.602422,2.3434991 14.792212,1.8794697 14.081411,1.573594 13.370609,1.2677182 12.759269,1.1204073 12.077848,1.046609 11.396427,0.97281065 10.645141,0.97281065 9.9269264,1.0059136 9.2087118,1.0390166 8.5237158,1.1053066 7.7537302,1.3630561 6.9837445,1.6208057 6.1293584,2.070095 5.4883677,2.4900243 4.8473771,2.9099536 4.4201751,3.3003278 4.0002206,3.8197665 3.5802661,4.3392053 3.1677953,4.9873737 2.8473767,5.7425801 2.5269581,6.4977866 2.2986263,7.3595558 2.1808553,7.9636924 2.0630843,8.5678291 2.0557179,8.9140083 2.091856,9.2104594 2.127994,9.5069105 2.2267587,9.780738 2.2960165,9.9041291 2.3652743,10.02752 2.572159,10.12049 2.5435478,10.11051 c -0.028611,-0.01 0.2309035,0.08054 0.2309035,0.08054 z" id="path17498" sodipodi:nodetypes="scccczzzcccccccccccccccccccccccccccczzss"></path>
    <ellipse style="opacity:1;fill:#cb0000;fill-opacity:1" id="path16704" cx="10.739184" cy="10.761281" rx="2.0771263" ry="2.0992231"></ellipse>
  </g>
</svg>