<svg xmlns="http://www.w3.org/2000/svg" viewBox="0 0 1024.0024 1024"><defs/><defs><linearGradient id="a" x1="511.60999" x2="511.60999" y1="1026.9" y2="-.32418999" gradientTransform="translate(.00124066 -.00000513)" gradientUnits="userSpaceOnUse"><stop offset="0" stop-color="#096fd2"/><stop offset="1" stop-color="#0e8ee9"/></linearGradient><linearGradient id="b" x1="412.95001" x2="412.85999" y1="648.08002" y2="376.45001" gradientTransform="translate(.00124066 -.00000513)" gradientUnits="userSpaceOnUse"><stop offset="0" stop-color="#096fd2"/><stop offset="1" stop-color="#0e8ee9"/></linearGradient></defs><path fill="url(#a)" d="M917.00124 0h-811.2A107.2 105.8 0 00.00124066 106.3v811.4A107.2 105.8 0 00106.40124 1024h811.2a107.2 105.8 0 00106.39996-106.3V106.3A107.2 105.8 0 00917.00124 0zm-405.4 935.4A426.2 420.6 0 0188.701241 512 426.2 420.6 0 01511.60124 88.6a426.2 420.6 0 01423.2 423.4 426.2 420.6 0 01-423.2 423.4z" class="cls-1"/><path fill="url(#b)" d="M904.20124 511.99999l-293.5-135.7 23.58 86.95h-245.2l23.58-86.95-293.5 135.8 293.7 135.7-23.58-86.95h245.2l-23.58 86.95 293.3-135.7" class="cls-1"/></svg>
