<svg id="Layer_1" data-name="Layer 1" xmlns="http://www.w3.org/2000/svg" viewBox="0.0021224021911621094 -1.1920928955078125e-7 500.0001220703125 434.0400085449219"><defs><style>.cls-1{fill:#00c08b;}</style></defs><title>Logo Mark Green</title><path class="cls-1" d="M412.27,279.09a8.69,8.69,0,0,0-6.8-3.93H302.86a4.55,4.55,0,0,0-4.53,4.53V429.5a4.55,4.55,0,0,0,4.53,4.54H497.2c2.49,0,3.52-1.77,2.27-3.93Z"></path><path class="cls-1" d="M197.15,274.78H94.53a8.69,8.69,0,0,0-6.8,3.93l-87.2,151c-1.24,2.16-.22,3.93,2.27,3.93H197.15a4.55,4.55,0,0,0,4.54-4.54V279.32A4.55,4.55,0,0,0,197.15,274.78Z"></path><path class="cls-1" d="M142.81,190.89h214c2.49,0,3.51-1.77,2.26-3.93L252.08,1.62c-1.25-2.16-3.29-2.16-4.54,0L140.54,187C139.29,189.12,140.31,190.89,142.81,190.89Z"></path></svg>