<svg viewBox="0 0.7699999809265137 199.97401428222656 77.4273910522461" xmlns="http://www.w3.org/2000/svg" xmlns:xlink="http://www.w3.org/1999/xlink">
    <style>
    	.empower-capital{fill:#000000}.personal{fill:#00cfff}
	</style>
	<g fill="none" fill-rule="evenodd">
		<path class="empower-capital" d="M7.215 74.182l-2.082-4.655-2.095 4.655h4.177zm-2.553-5.857h.969l4.177 9.217H8.695L7.62 75.123h-4.99l-1.086 2.42H.485l4.177-9.218zM11.208 68.39h.97l5.774 7.335V68.39h1.008v9.152h-.825l-5.919-7.505v7.505h-1.008zM133.388 72.904v-.026c0-2.589 1.938-4.733 4.636-4.733 1.663 0 2.658.588 3.574 1.45l-.707.76c-.772-.733-1.637-1.256-2.88-1.256-2.03 0-3.549 1.647-3.549 3.753v.026c0 2.118 1.532 3.779 3.549 3.779 1.257 0 2.082-.484 2.959-1.321l.68.667c-.955.967-2.002 1.608-3.666 1.608-2.645 0-4.596-2.079-4.596-4.707M150.713 72.904v-.026c0-2.079-1.519-3.779-3.614-3.779-2.095 0-3.588 1.674-3.588 3.753v.026c0 2.079 1.519 3.779 3.614 3.779 2.095 0 3.588-1.674 3.588-3.753m-8.276 0v-.026c0-2.524 1.899-4.733 4.688-4.733 2.79 0 4.662 2.183 4.662 4.707v.026c0 2.523-1.899 4.733-4.688 4.733-2.79 0-4.662-2.184-4.662-4.707M153.67 68.302h1.048l3.339 4.994 3.34-4.994h1.047v9.152h-1.035V70.04l-3.34 4.904h-.052l-3.339-4.89v7.4h-1.008zM168.095 73.283c1.519 0 2.514-.81 2.514-2.014v-.026c0-1.307-.982-1.987-2.462-1.987h-2.317v4.027h2.265zm-3.3-4.981h3.43c2.07 0 3.431 1.098 3.431 2.902v.026c0 1.975-1.65 2.995-3.6 2.995h-2.226v3.229h-1.035v-9.152zM178.241 74.094l-2.082-4.655-2.095 4.655h4.177zm-2.553-5.858h.97l4.176 9.218h-1.113l-1.074-2.419h-4.989l-1.087 2.419h-1.06l4.177-9.218zM182.234 68.302h.97l5.774 7.334v-7.334h1.009v9.152h-.826l-5.918-7.505v7.505h-1.009zM195.116 73.832l-3.81-5.53h1.257l3.09 4.576 3.117-4.576h1.204l-3.81 5.517v3.635h-1.048zM60.965 68.244h6.962v1.804h-4.945v1.87h4.352v1.803h-4.352v1.935h5.01v1.805h-7.027zM69.487 68.244h2.188l2.427 3.897 2.426-3.897h2.19v9.217H76.7v-6.018l-2.598 3.937h-.053l-2.571-3.897v5.978h-1.991zM84.205 72.891c1.015 0 1.608-.605 1.608-1.395v-.026c0-.909-.633-1.396-1.648-1.396h-1.57v2.817h1.61zm-3.64-4.647h3.771c2.203 0 3.534 1.303 3.534 3.186v.026c0 2.133-1.661 3.24-3.731 3.24h-1.543v2.764h-2.031v-9.216zM96.249 72.879v-.027c0-1.58-1.161-2.896-2.796-2.896-1.635 0-2.77 1.29-2.77 2.87v.026c0 1.58 1.161 2.897 2.796 2.897 1.636 0 2.77-1.29 2.77-2.87m-7.688 0v-.027c0-2.62 2.07-4.766 4.918-4.766 2.849 0 4.893 2.12 4.893 4.74v.026c0 2.62-2.07 4.766-4.919 4.766-2.848 0-4.892-2.12-4.892-4.74M98.495 68.244h2.176l1.912 6.175 2.07-6.175h1.74l2.07 6.175 1.913-6.175h2.123l-3.152 9.217h-1.767l-2.083-5.939-2.083 5.939h-1.768zM113.43 68.244h6.963v1.804h-4.945v1.87h4.352v1.803h-4.352v1.935h5.01v1.805h-7.028zM126.04 72.72c.989 0 1.556-.526 1.556-1.303v-.026c0-.87-.607-1.317-1.596-1.317h-2.017v2.646h2.057zm-4.088-4.477h4.22c1.173 0 2.083.33 2.69.936.514.513.79 1.237.79 2.106v.026c0 1.488-.803 2.423-1.977 2.858l2.255 3.291h-2.374l-1.977-2.949h-1.596v2.95h-2.03v-9.218z"></path>
		<path d="M57.948 68.266c-9.377 2.208-9.302-2.435-17.246-1.458l-4.07 1.887c8.363-1.482 8.54 4.197 19.84 1.003.515-.145 1.003-.286 1.476-.406v-1.026z" fill="#DB1830"></path>
		<path d="M57.948 70.462c-1.42.174-3.04.472-4.921 1-11.895 3.338-11.575-2.186-20.357-.917l-4.063 1.887c8.596-1.16 8.948 4.209 20.629 1.003 3.808-1.046 6.505-1.336 8.712-1.202v-1.77z" fill="#DB1830"></path>
		<path d="M37.668.758c-2.903-.653-6.267-1.04-12.363.63C13.235 4.692 13.428-.72 4.37.47L.31 2.357C9.084 1.233 9.526 6.535 21.431 3.36c8.83-2.354 11.876-.64 16.236.265V.758z" fill="#DB1830" mask="url(#mask-2)" transform="translate(20.28 73.81)"></path>
		<path class="personal" d="M11.653 6.073c-.912 1.388-1.247 3.064-1.247 6.129 0 3.207.287 4.596 1.295 5.984.815 1.102 1.917 1.676 3.356 1.676 3.117 0 4.604-2.49 4.604-7.756 0-5.315-1.487-7.9-4.556-7.9-1.534 0-2.59.574-3.452 1.867zm-1.295-1.15c2.35-3.542 4.315-4.74 7.72-4.74 5.658 0 9.111 4.597 9.111 12.114 0 7.47-3.5 11.874-9.495 11.874-1.87 0-3.692-.526-4.89-1.388-.816-.622-1.487-1.532-2.35-3.16v7.613c0 2.394.383 2.729 3.212 2.825h1.103v3.543H0v-3.543h1.104c2.206-.096 2.494-.431 2.494-2.825V7.27c0-2.394-.288-2.73-2.494-2.825H0V.902h10.358v4.022z" mask="url(#mask-4)" transform="translate(0 9.35)"></path>
		<path class="personal" d="M45.557 18.63c-.048-2.059-.24-2.968-.815-3.878-.72-1.054-1.87-1.628-3.357-1.628-1.438 0-2.637.574-3.309 1.628-.575.91-.767 1.82-.815 3.878h8.296zm6.761 6.368c-.335 2.538-.815 3.687-2.014 5.075-1.966 2.299-5.035 3.496-8.823 3.496-7.24 0-11.94-4.597-11.94-11.778 0-7.47 4.747-12.45 11.892-12.45 3.5 0 6.666 1.293 8.584 3.543 1.966 2.25 2.685 4.597 2.781 9.385h-15.68c.095 2.73.335 3.926 1.198 5.219.911 1.293 2.206 1.915 4.124 1.915 2.973 0 4.46-1.245 5.227-4.405h4.651zM64.26 13.172c1.63-2.538 3.357-3.543 5.946-3.543 3.213 0 5.37 2.01 5.37 5.075 0 2.538-1.677 4.357-4.123 4.357-1.918 0-3.357-1.293-3.357-3.064 0-1.533.768-2.49 2.542-3.113-.672-.335-1.007-.43-1.44-.43-1.294 0-2.589.718-3.452 1.915-1.055 1.436-1.39 2.92-1.39 6.224v5.746c0 2.346.288 2.729 2.445 2.825h2.206v3.543h-15.2v-3.543h1.198c2.158-.096 2.446-.431 2.494-2.825v-9.72c-.048-2.394-.336-2.729-2.494-2.825h-1.199v-3.543H64.26v2.92zM80.134 33.042h-3.309V24.28h3.74c.864 2.394 1.487 3.256 2.973 4.261 1.247.862 2.59 1.245 4.268 1.245 2.35 0 3.788-.957 3.788-2.442 0-.67-.287-1.149-1.006-1.58-.815-.526-.96-.575-5.755-1.771-1.918-.479-3.98-1.389-5.37-2.299-1.822-1.197-2.734-2.872-2.734-4.98 0-4.26 3.98-7.325 9.495-7.325 2.781 0 4.603.527 7.289 2.011l.719-1.388h3.213v7.66h-3.213c-1.39-2.106-2.206-2.968-3.453-3.686-1.15-.623-2.541-1.006-3.788-1.006-1.918 0-3.165.862-3.165 2.203 0 .574.24 1.196.672 1.484.719.623 1.007.718 4.507 1.58 2.973.766 4.843 1.389 6.282 2.107 2.11 1.101 3.357 3.256 3.357 5.746 0 4.357-3.932 7.469-9.447 7.469-2.877 0-5.131-.622-8.248-2.299l-.815 1.772zM108.427 21.359c0 5.746 1.727 8.475 5.371 8.475 3.548 0 5.323-2.73 5.323-8.379 0-5.602-1.775-8.331-5.323-8.331-3.548 0-5.37 2.777-5.37 8.235m18.22.144c0 7.23-5.082 12.018-12.802 12.018-7.96 0-12.948-4.74-12.948-12.21 0-7.086 5.18-11.874 12.9-11.874 7.768 0 12.85 4.74 12.85 12.066M143.675 29.164h.863c2.11-.096 2.397-.431 2.397-2.825v-8.427c0-1.82-.144-2.49-.624-3.208-.479-.766-1.438-1.197-2.588-1.197-2.974 0-4.988 2.49-4.988 6.176v6.656c0 2.394.287 2.729 2.446 2.825h.815v3.543h-14.05v-3.543h1.39c2.206-.096 2.494-.431 2.542-2.825v-9.72c-.048-2.394-.336-2.73-2.542-2.825h-1.39v-3.543h10.645v4.022c3.165-3.735 4.892-4.74 8.056-4.74 2.254 0 4.316.718 5.515 1.963 1.199 1.197 1.63 2.92 1.63 6.32v8.523c0 2.394.336 2.729 2.734 2.825h1.007v3.543h-13.858v-3.543zM172.736 21.359c-1.247.623-2.398 1.15-2.782 1.293-2.253.957-2.877 1.293-3.404 1.915-.576.623-.815 1.293-.815 2.011 0 1.628 1.054 2.634 2.733 2.634 2.733 0 4.268-1.676 4.268-4.597V21.36zm12.132 5.267c0 2.73-.336 3.974-1.295 5.124-1.055 1.148-2.637 1.771-4.651 1.771-2.926 0-4.316-.862-5.563-3.4-2.686 2.538-4.7 3.448-7.72 3.448-4.412 0-7.242-2.49-7.242-6.416 0-1.963.864-3.687 2.35-4.74 1.439-.958 3.357-1.628 6.857-2.347 3.981-.813 5.323-1.819 5.323-4.117 0-2.299-1.87-3.83-4.747-3.83-1.726 0-2.685.335-3.836 1.34 1.774.24 2.685 1.15 2.685 2.73 0 1.675-1.63 3.016-3.692 3.016-2.302 0-3.884-1.485-3.884-3.64 0-3.733 3.98-6.128 10.31-6.128 3.452 0 6.042.718 7.815 2.107 1.584 1.293 1.92 2.346 1.92 6.176v9.241c0 1.485.382 2.203 1.246 2.203.863 0 1.246-.67 1.246-2.203v-2.538h2.878v2.203zM196.09 26.339c0 2.394.288 2.729 2.446 2.825h1.438v3.543h-14.673v-3.543h1.39c2.206-.096 2.494-.431 2.542-2.825v-19.2c-.048-2.394-.336-2.73-2.541-2.825H185.3V.77h10.79v25.568z"></path>
		<path class="empower-capital" d="M87.117 48.914c0-4.72 3.777-8.565 8.53-8.565 2.85 0 5.336 1.363 6.847 3.48l-2.583 1.873c-.95-1.338-2.364-2.166-4.143-2.166-3.046 0-5.264 2.385-5.264 5.378 0 2.993 2.194 5.426 5.24 5.426 1.803 0 3.217-.827 4.167-2.19l2.583 1.898a8.412 8.412 0 01-6.847 3.48c-4.753 0-8.53-3.845-8.53-8.614M116.312 50.35l-2.144-6.303-2.12 6.303h4.264zm1.023 2.944h-6.286l-1.34 4.015h-3.607l6.262-16.765h3.656l6.238 16.765H118.7l-1.365-4.015zM136.174 46.018c0-1.216-.61-2.482-2.193-2.482h-3.339v4.94h3.29c1.632 0 2.242-1.266 2.242-2.458m3.411 0c0 2.75-1.681 5.427-5.482 5.427h-3.46v5.864h-3.388V40.544h6.848c3.8 0 5.482 2.725 5.482 5.474"></path>
		<path class="empower-capital" mask="url(#mask-6)" d="M145.386 56.734h3.387V39.97h-3.387zM167.026 42.962h-4.63v13.772h-3.387V42.962h-4.63v-2.993h12.647zM179.284 49.775l-2.144-6.302-2.12 6.302h4.264zm1.023 2.945h-6.286l-1.34 4.014h-3.607l6.262-16.765h3.656l6.238 16.765h-3.558l-1.365-4.014zM190.227 39.97h3.387V53.74h6.36v2.993h-9.747z" transform="translate(0 .574)"></path>
		<path d="M198.656 40.93h.22c.124 0 .177-.094.177-.176 0-.082-.053-.177-.178-.177h-.22v.354zm.348.171l.292.416h-.237l-.285-.4h-.118v.4h-.21V40.38h.44c.252 0 .37.17.37.36 0 .204-.075.318-.252.361zm.774-.167c0-.53-.42-.963-.952-.963a.954.954 0 00-.948.963.949.949 0 101.9 0zm.196 0a1.146 1.146 0 11-2.293 0c0-.639.506-1.16 1.145-1.16.64 0 1.148.521 1.148 1.16z" fill="#221F1F" mask="url(#mask-6)" transform="translate(0 .574)"></path>
	</g>
</svg>