<svg xmlns="http://www.w3.org/2000/svg" viewBox="0 0 240 240">
    <path style="fill:#01cfff; stroke:none;" d="M0 0L0 240L240 240L240 0L0 0z"></path>
    <path style="fill:#4fdeff; stroke:none;" d="M169 54L170 55L169 54z"></path>
    <path style="fill:#8feaff; stroke:none;" d="M170 54L171 55L170 54z"></path>
    <path style="fill:#c3f3ff; stroke:none;" d="M171.667 54.3333L172.333 54.6667L171.667 54.3333z"></path>
    <path style="fill:#ffffff; stroke:none;" d="M148 72L148 57L108 57L108 70C112.682 70.0971 118.971 70.2473 121.297 75.1088C124.32 81.4265 123 90.2173 123 97L123 142C123 149.021 124.538 158.412 121.486 164.956C118.944 170.406 113.115 169.997 108 170L108 183L165 183L165 170C160.918 170 155.737 170.681 152.228 168.142C143.92 162.131 148 139.053 148 130C153.843 135.66 156.679 142.061 165 144.896C170.501 146.77 176.308 147.174 182 146.246C214.835 140.892 219.981 97.5012 207.19 72C199.404 56.4783 179.957 49.4146 164 56.919C157.133 60.1483 152.833 66.4505 148 72z"></path>
    <path style="fill:#c3f3ff; stroke:none;" d="M183 54L184 55L183 54z"></path>
    <path style="fill:#8feaff; stroke:none;" d="M184.667 54.3333L185.333 54.6667L184.667 54.3333z"></path>
    <path style="fill:#4fdeff; stroke:none;" d="M186 54L187 55L186 54M166 55L167 56L166 55z"></path>
    <path style="fill:#c3f3ff; stroke:none;" d="M167 55L168 56L167 55z"></path>
    <path style="fill:#8feaff; stroke:none;" d="M188 55L189 56L188 55z"></path>
    <path style="fill:#4fdeff; stroke:none;" d="M189 55L190 56L189 55M108 56L108 57L148 57C137.488 52.589 119.434 56 108 56z"></path>
    <path style="fill:#8feaff; stroke:none;" d="M164 56L165 57L164 56M191 56L192 57L191 56M148 57L150 71L148 57M162 57L163 58L162 57M193 57L194 58L193 57z"></path>
    <path style="fill:#4fdeff; stroke:none;" d="M160 58L161 59L160 58z"></path>
    <path style="fill:#8feaff; stroke:none;" d="M195 58L196 59L195 58M159 59L160 60L159 59z"></path>
    <path style="fill:#c3f3ff; stroke:none;" d="M196 59L197 60L196 59z"></path>
    <path style="fill:#4fdeff; stroke:none;" d="M197 59L198 60L197 59z"></path>
    <path style="fill:#c3f3ff; stroke:none;" d="M158 60L159 61L158 60z"></path>
    <path style="fill:#4fdeff; stroke:none;" d="M198 60L199 61L198 60M156 61L157 62L156 61z"></path>
    <path style="fill:#c3f3ff; stroke:none;" d="M157 61L158 62L157 61z"></path>
    <path style="fill:#8feaff; stroke:none;" d="M199 61L200 62L199 61z"></path>
    <path style="fill:#4fdeff; stroke:none;" d="M155 62L156 63L155 62z"></path>
    <path style="fill:#8feaff; stroke:none;" d="M200 62L201 63L200 62z"></path>
    <path style="fill:#4fdeff; stroke:none;" d="M154 63L155 64L154 63z"></path>
    <path style="fill:#8feaff; stroke:none;" d="M201 63L202 64L201 63z"></path>
    <path style="fill:#c3f3ff; stroke:none;" d="M154 64L155 65L154 64z"></path>
    <path style="fill:#8feaff; stroke:none;" d="M202 64L203 65L202 64z"></path>
    <path style="fill:#c3f3ff; stroke:none;" d="M153 65L154 66L153 65z"></path>
    <path style="fill:#4fdeff; stroke:none;" d="M203 65L204 66L203 65z"></path>
    <path style="fill:#8feaff; stroke:none;" d="M152 66L153 67L152 66z"></path>
    <path style="fill:#4fdeff; stroke:none;" d="M151 67L152 68L151 67z"></path>
    <path style="fill:#c3f3ff; stroke:none;" d="M204 67L205 68L204 67z"></path>
    <path style="fill:#4fdeff; stroke:none;" d="M150 68L151 69L150 68z"></path>
    <path style="fill:#8feaff; stroke:none;" d="M205 68L206 69L205 68z"></path>
    <path style="fill:#c3f3ff; stroke:none;" d="M150 69L151 70L150 69M164 69L164 70L168 70L164 69M108 70L108 71L115 71L108 70M160 70L161 71L160 70z"></path>
    <path style="fill:#8feaff; stroke:none;" d="M161 70L162 71L161 70z"></path>
    <path style="fill:#4fdeff; stroke:none;" d="M162 70L163 71L162 70z"></path>
    <path style="fill:#01cfff; stroke:none;" d="M163 70.534C140.772 75.8282 143.11 135.871 170 129.466C192.103 124.201 189.511 64.2195 163 70.534z"></path>
    <path style="fill:#4fdeff; stroke:none;" d="M170 70L171 71L170 70z"></path>
    <path style="fill:#8feaff; stroke:none;" d="M171 70L172 71L171 70z"></path>
    <path style="fill:#c3f3ff; stroke:none;" d="M172 70L173 71L172 70M206 70L207 71L206 70z"></path>
    <path style="fill:#4fdeff; stroke:none;" d="M117 71L118 72L117 71z"></path>
    <path style="fill:#8feaff; stroke:none;" d="M118 71L119 72L118 71z"></path>
    <path style="fill:#c3f3ff; stroke:none;" d="M148 71L149 72L148 71M158 71L159 72L158 71z"></path>
    <path style="fill:#4fdeff; stroke:none;" d="M159 71L160 72L159 71M173 71L174 72L173 71z"></path>
    <path style="fill:#c3f3ff; stroke:none;" d="M174 71L175 72L174 71z"></path>
    <path style="fill:#4fdeff; stroke:none;" d="M207 71L208 72L207 71z"></path>
    <path style="fill:#c3f3ff; stroke:none;" d="M120 72L121 73L120 72z"></path>
    <path style="fill:#8feaff; stroke:none;" d="M157 72L158 73L157 72M175 72L176 73L175 72z"></path>
    <path style="fill:#c3f3ff; stroke:none;" d="M207 72L208 73L207 72z"></path>
    <path style="fill:#4fdeff; stroke:none;" d="M156 73L157 74L156 73M176 73L177 74L176 73M208 73L209 74L208 73z"></path>
    <path style="fill:#8feaff; stroke:none;" d="M121 74L122 75L121 74z"></path>
    <path style="fill:#4fdeff; stroke:none;" d="M155 74L156 75L155 74M177 74L178 75L177 74z"></path>
    <path style="fill:#8feaff; stroke:none;" d="M208 74L209 75L208 74z"></path>
    <path style="fill:#4fdeff; stroke:none;" d="M121 75L122 76L121 75z"></path>
    <path style="fill:#8feaff; stroke:none;" d="M154 75L155 76L154 75z"></path>
    <path style="fill:#4fdeff; stroke:none;" d="M178 75L179 76L178 75z"></path>
    <path style="fill:#c3f3ff; stroke:none;" d="M153 76L154 77L153 76M179 76L180 77L179 76z"></path>
    <path style="fill:#8feaff; stroke:none;" d="M209 76L210 77L209 76z"></path>
    <path style="fill:#c3f3ff; stroke:none;" d="M209 77L210 78L209 77z"></path>
    <path style="fill:#8feaff; stroke:none;" d="M152 78L153 79L152 78M180 78L181 79L180 78z"></path>
    <path style="fill:#4fdeff; stroke:none;" d="M210 78L211 79L210 78z"></path>
    <path style="fill:#c3f3ff; stroke:none;" d="M122 79L122 162L123 162L123 105L122 79z"></path>
    <path style="fill:#8feaff; stroke:none;" d="M210 79L211 80L210 79z"></path>
    <path style="fill:#4fdeff; stroke:none;" d="M100 80L100 81L108 81L100 80z"></path>
    <path style="fill:#8feaff; stroke:none;" d="M151 80L152 81L151 80M181 80L182 81L181 80z"></path>
    <path style="fill:#c3f3ff; stroke:none;" d="M210 80L211 81L210 80z"></path>
    <path style="fill:#4fdeff; stroke:none;" d="M95 81L96 82L95 81z"></path>
    <path style="fill:#c3f3ff; stroke:none;" d="M96.6667 81.3333L97.3333 81.6667L96.6667 81.3333z"></path>
    <path style="fill:#ffffff; stroke:none;" d="M84 87L84 88L107 90L107 81L84 87z"></path>
    <path style="fill:#c3f3ff; stroke:none;" d="M107 81L106 91C108.789 88.5629 108.361 84.2442 107 81z"></path>
    <path style="fill:#4fdeff; stroke:none;" d="M181 81L182 82L181 81M93 82L94 83L93 82z"></path>
    <path style="fill:#c3f3ff; stroke:none;" d="M94 82L95 83L94 82M150 82L151 83L150 82M182 82L183 83L182 82z"></path>
    <path style="fill:#4fdeff; stroke:none;" d="M211 82L212 83L211 82M91 83L92 84L91 83z"></path>
    <path style="fill:#c3f3ff; stroke:none;" d="M92 83L93 84L92 83z"></path>
    <path style="fill:#8feaff; stroke:none;" d="M150 83L151 84L150 83M182 83L183 84L182 83M211 83L212 84L211 83M89 84L90 85L89 84z"></path>
    <path style="fill:#c3f3ff; stroke:none;" d="M90 84L91 85L90 84z"></path>
    <path style="fill:#4fdeff; stroke:none;" d="M150 84L151 85L150 84M182 84L183 85L182 84z"></path>
    <path style="fill:#c3f3ff; stroke:none;" d="M211 84L212 85L211 84z"></path>
    <path style="fill:#8feaff; stroke:none;" d="M87 85L88 86L87 85M85 86L86 87L85 86z"></path>
    <path style="fill:#c3f3ff; stroke:none;" d="M149 86L150 87L149 86z"></path>
    <path style="fill:#4fdeff; stroke:none;" d="M212.333 86.6667L212.667 87.3333L212.333 86.6667M82 87L83 88L82 87z"></path>
    <path style="fill:#c3f3ff; stroke:none;" d="M83 87L83 89L85 89L83 87z"></path>
    <path style="fill:#8feaff; stroke:none;" d="M149 87L150 88L149 87z"></path>
    <path style="fill:#c3f3ff; stroke:none;" d="M183 87L184 88L183 87z"></path>
    <path style="fill:#4fdeff; stroke:none;" d="M80 88L79 90L81 90L80 88z"></path>
    <path style="fill:#c3f3ff; stroke:none;" d="M81 88L82 89L81 88z"></path>
    <path style="fill:#ffffff; stroke:none;" d="M82 88L83 89L82 88z"></path>
    <path style="fill:#8feaff; stroke:none;" d="M85 88L85 89L90 89L85 88z"></path>
    <path style="fill:#4fdeff; stroke:none;" d="M90.6667 88.3333L91.3333 88.6667L90.6667 88.3333z"></path>
    <path style="fill:#8feaff; stroke:none;" d="M92 88L92 89L96 89L92 88z"></path>
    <path style="fill:#c3f3ff; stroke:none;" d="M96.6667 88.3333L97.3333 88.6667L96.6667 88.3333z"></path>
    <path style="fill:#4fdeff; stroke:none;" d="M149.333 88.6667L149.667 89.3333L149.333 88.6667z"></path>
    <path style="fill:#8feaff; stroke:none;" d="M183.333 88.6667L183.667 89.3333L183.333 88.6667M212 88L213 89L212 88z"></path>
    <path style="fill:#4fdeff; stroke:none;" d="M100 89L101 90L100 89z"></path>
    <path style="fill:#8feaff; stroke:none;" d="M101 89L102 90L101 89z"></path>
    <path style="fill:#c3f3ff; stroke:none;" d="M102 89L103 90L102 89M212.333 89.6667L212.667 90.3333L212.333 89.6667z"></path>
    <path style="fill:#4fdeff; stroke:none;" d="M104 90L105 91L104 90z"></path>
    <path style="fill:#8feaff; stroke:none;" d="M105 90L106 91L105 90z"></path>
    <path style="fill:#4fdeff; stroke:none;" d="M183.333 90.6667L183.667 91.3333L183.333 90.6667z"></path>
    <path style="fill:#c3f3ff; stroke:none;" d="M148 93L148 109L149 109L148 93z"></path>
    <path style="fill:#4fdeff; stroke:none;" d="M213 94L213 98L214 98L213 94z"></path>
    <path style="fill:#c3f3ff; stroke:none;" d="M184 95L184 105L185 105L184 95z"></path>
    <path style="fill:#4fdeff; stroke:none;" d="M65.6667 96.3333L66.3333 96.6667L65.6667 96.3333z"></path>
    <path style="fill:#8feaff; stroke:none;" d="M67 96L67 97L71 97L67 96z"></path>
    <path style="fill:#c3f3ff; stroke:none;" d="M71 96L71 97L77 97L71 96z"></path>
    <path style="fill:#8feaff; stroke:none;" d="M77 96L77 97L80 97L77 96z"></path>
    <path style="fill:#4fdeff; stroke:none;" d="M80.6667 96.3333L81.3333 96.6667L80.6667 96.3333M61 97L62 98L61 97z"></path>
    <path style="fill:#c3f3ff; stroke:none;" d="M62 97L63 98L62 97z"></path>
    <path style="fill:#ffffff; stroke:none;" d="M48 104L48 105C67.8838 101.309 87.1299 113.147 107 114L107 104C92.694 101.039 79.0772 94.1836 64 97.3897C58.4366 98.5727 53.2192 101.83 48 104z"></path>
    <path style="fill:#c3f3ff; stroke:none;" d="M83.6667 97.3333L84.3333 97.6667L83.6667 97.3333z"></path>
    <path style="fill:#8feaff; stroke:none;" d="M85 97L86 98L85 97z"></path>
    <path style="fill:#4fdeff; stroke:none;" d="M86 97L87 98L86 97M59 98L60 99L59 98z"></path>
    <path style="fill:#c3f3ff; stroke:none;" d="M60 98L61 99L60 98M88 98L89 99L88 98z"></path>
    <path style="fill:#8feaff; stroke:none;" d="M89 98L90 99L89 98z"></path>
    <path style="fill:#4fdeff; stroke:none;" d="M90 98L91 99L90 98z"></path>
    <path style="fill:#8feaff; stroke:none;" d="M213 98L213 104L214 104L213 98z"></path>
    <path style="fill:#4fdeff; stroke:none;" d="M57 99L58 100L57 99z"></path>
    <path style="fill:#c3f3ff; stroke:none;" d="M58 99L59 100L58 99M91 99L92 100L91 99z"></path>
    <path style="fill:#8feaff; stroke:none;" d="M92 99L93 100L92 99z"></path>
    <path style="fill:#4fdeff; stroke:none;" d="M93 99L94 100L93 99z"></path>
    <path style="fill:#8feaff; stroke:none;" d="M55 100L56 101L55 100z"></path>
    <path style="fill:#c3f3ff; stroke:none;" d="M94 100L95 101L94 100z"></path>
    <path style="fill:#8feaff; stroke:none;" d="M95 100L96 101L95 100z"></path>
    <path style="fill:#4fdeff; stroke:none;" d="M96 100L97 101L96 100z"></path>
    <path style="fill:#8feaff; stroke:none;" d="M53 101L54 102L53 101z"></path>
    <path style="fill:#c3f3ff; stroke:none;" d="M97 101L98 102L97 101z"></path>
    <path style="fill:#8feaff; stroke:none;" d="M98 101L99 102L98 101z"></path>
    <path style="fill:#4fdeff; stroke:none;" d="M99 101L100 102L99 101z"></path>
    <path style="fill:#8feaff; stroke:none;" d="M51 102L52 103L51 102z"></path>
    <path style="fill:#c3f3ff; stroke:none;" d="M100 102L101 103L100 102z"></path>
    <path style="fill:#8feaff; stroke:none;" d="M101 102L102 103L101 102z"></path>
    <path style="fill:#4fdeff; stroke:none;" d="M102 102L103 103L102 102M48 103L49 104L48 103z"></path>
    <path style="fill:#c3f3ff; stroke:none;" d="M49 103L50 104L49 103z"></path>
    <path style="fill:#8feaff; stroke:none;" d="M104 103L105 104L104 103z"></path>
    <path style="fill:#4fdeff; stroke:none;" d="M105 103L106 104L105 103M46.3333 104.667L46.6667 105.333L46.3333 104.667z"></path>
    <path style="fill:#c3f3ff; stroke:none;" d="M47 104L48 105L47 104M50 104L50 105L61 105L50 104M107 104L107 113L108 113L107 104z"></path>
    <path style="fill:#4fdeff; stroke:none;" d="M213 104L213 108L214 108L213 104M63.6667 105.333L64.3333 105.667L63.6667 105.333z"></path>
    <path style="fill:#8feaff; stroke:none;" d="M65.6667 105.333L66.3333 105.667L65.6667 105.333z"></path>
    <path style="fill:#c3f3ff; stroke:none;" d="M67 105L68 106L67 105z"></path>
    <path style="fill:#4fdeff; stroke:none;" d="M69 106L70 107L69 106z"></path>
    <path style="fill:#8feaff; stroke:none;" d="M70 106L71 107L70 106z"></path>
    <path style="fill:#c3f3ff; stroke:none;" d="M71 106L72 107L71 106z"></path>
    <path style="fill:#4fdeff; stroke:none;" d="M73 107L74 108L73 107z"></path>
    <path style="fill:#8feaff; stroke:none;" d="M74 107L75 108L74 107z"></path>
    <path style="fill:#4fdeff; stroke:none;" d="M76 108L77 109L76 108z"></path>
    <path style="fill:#8feaff; stroke:none;" d="M77 108L78 109L77 108z"></path>
    <path style="fill:#c3f3ff; stroke:none;" d="M78 108L79 109L78 108z"></path>
    <path style="fill:#4fdeff; stroke:none;" d="M183 108L183 111L184 111L183 108M79 109L80 110L79 109z"></path>
    <path style="fill:#8feaff; stroke:none;" d="M80 109L81 110L80 109z"></path>
    <path style="fill:#c3f3ff; stroke:none;" d="M81 109L82 110L81 109z"></path>
    <path style="fill:#8feaff; stroke:none;" d="M83 110L84 111L83 110z"></path>
    <path style="fill:#c3f3ff; stroke:none;" d="M84 110L85 111L84 110z"></path>
    <path style="fill:#4fdeff; stroke:none;" d="M86 111L87 112L86 111z"></path>
    <path style="fill:#8feaff; stroke:none;" d="M87 111L88 112L87 111z"></path>
    <path style="fill:#c3f3ff; stroke:none;" d="M88 111L89 112L88 111z"></path>
    <path style="fill:#4fdeff; stroke:none;" d="M149.333 111.667L149.667 112.333L149.333 111.667z"></path>
    <path style="fill:#8feaff; stroke:none;" d="M183 111L184 112L183 111z"></path>
    <path style="fill:#c3f3ff; stroke:none;" d="M212.333 111.667L212.667 112.333L212.333 111.667z"></path>
    <path style="fill:#4fdeff; stroke:none;" d="M29.6667 112.333L30.3333 112.667L29.6667 112.333z"></path>
    <path style="fill:#8feaff; stroke:none;" d="M31.6667 112.333L32.3333 112.667L31.6667 112.333z"></path>
    <path style="fill:#c3f3ff; stroke:none;" d="M33 112L33 113L37 113L33 112z"></path>
    <path style="fill:#ffffff; stroke:none;" d="M16 119L16 120C40.1043 120 61.5969 132.113 86 128.08C92.1881 127.058 104.762 126.81 107 120L79 120.711L39 112.259L16 119z"></path>
    <path style="fill:#c3f3ff; stroke:none;" d="M42 112L42 113L46 113L42 112z"></path>
    <path style="fill:#8feaff; stroke:none;" d="M46.6667 112.333L47.3333 112.667L46.6667 112.333z"></path>
    <path style="fill:#4fdeff; stroke:none;" d="M48.6667 112.333L49.3333 112.667L48.6667 112.333M90 112L91 113L90 112z"></path>
    <path style="fill:#8feaff; stroke:none;" d="M91 112L92 113L91 112z"></path>
    <path style="fill:#c3f3ff; stroke:none;" d="M92 112L93 113L92 112M183.333 112.667L183.667 113.333L183.333 112.667z"></path>
    <path style="fill:#8feaff; stroke:none;" d="M27 113L28 114L27 113z"></path>
    <path style="fill:#c3f3ff; stroke:none;" d="M28 113L29 114L28 113M51 113L52 114L51 113z"></path>
    <path style="fill:#8feaff; stroke:none;" d="M52.6667 113.333L53.3333 113.667L52.6667 113.333z"></path>
    <path style="fill:#4fdeff; stroke:none;" d="M54 113L55 114L54 113M95 113L96 114L95 113z"></path>
    <path style="fill:#8feaff; stroke:none;" d="M96 113L96 114L99 114L96 113z"></path>
    <path style="fill:#c3f3ff; stroke:none;" d="M99 113L99 114L102 114L99 113z"></path>
    <path style="fill:#8feaff; stroke:none;" d="M107 113L108 114L107 113M149.333 113.667L149.667 114.333L149.333 113.667M212 113L213 114L212 113M25 114L26 115L25 114z"></path>
    <path style="fill:#c3f3ff; stroke:none;" d="M56 114L57 115L56 114z"></path>
    <path style="fill:#4fdeff; stroke:none;" d="M57 114L58 115L57 114M212.333 114.667L212.667 115.333L212.333 114.667z"></path>
    <path style="fill:#8feaff; stroke:none;" d="M23 115L24 116L23 115z"></path>
    <path style="fill:#c3f3ff; stroke:none;" d="M59 115L60 116L59 115z"></path>
    <path style="fill:#8feaff; stroke:none;" d="M60 115L61 116L60 115z"></path>
    <path style="fill:#4fdeff; stroke:none;" d="M61 115L62 116L61 115z"></path>
    <path style="fill:#c3f3ff; stroke:none;" d="M149 115L150 116L149 115z"></path>
    <path style="fill:#4fdeff; stroke:none;" d="M182 115L183 116L182 115M20 116L21 117L20 116z"></path>
    <path style="fill:#c3f3ff; stroke:none;" d="M21 116L22 117L21 116M62 116L63 117L62 116z"></path>
    <path style="fill:#8feaff; stroke:none;" d="M63 116L64 117L63 116z"></path>
    <path style="fill:#4fdeff; stroke:none;" d="M64 116L65 117L64 116z"></path>
    <path style="fill:#8feaff; stroke:none;" d="M182 116L183 117L182 116z"></path>
    <path style="fill:#4fdeff; stroke:none;" d="M18 117L19 118L18 117z"></path>
    <path style="fill:#c3f3ff; stroke:none;" d="M19 117L20 118L19 117M65 117L66 118L65 117z"></path>
    <path style="fill:#8feaff; stroke:none;" d="M66 117L67 118L66 117z"></path>
    <path style="fill:#4fdeff; stroke:none;" d="M67 117L68 118L67 117z"></path>
    <path style="fill:#8feaff; stroke:none;" d="M150 117L151 118L150 117z"></path>
    <path style="fill:#c3f3ff; stroke:none;" d="M182 117L183 118L182 117M211 117L212 118L211 117z"></path>
    <path style="fill:#4fdeff; stroke:none;" d="M16 118L17 119L16 118z"></path>
    <path style="fill:#c3f3ff; stroke:none;" d="M17 118L18 119L17 118M69 118L70 119L69 118z"></path>
    <path style="fill:#4fdeff; stroke:none;" d="M70 118L71 119L70 118z"></path>
    <path style="fill:#c3f3ff; stroke:none;" d="M150 118L151 119L150 118z"></path>
    <path style="fill:#4fdeff; stroke:none;" d="M181 118L182 119L181 118z"></path>
    <path style="fill:#8feaff; stroke:none;" d="M211 118L212 119L211 118M14 119L14 120L19 121L19 120L14 119z"></path>
    <path style="fill:#c3f3ff; stroke:none;" d="M15 119L16 120L15 119M72 119L73 120L72 119z"></path>
    <path style="fill:#8feaff; stroke:none;" d="M73 119L74 120L73 119z"></path>
    <path style="fill:#4fdeff; stroke:none;" d="M74.6667 119.333L75.3333 119.667L74.6667 119.333M102.667 119.333L103.333 119.667L102.667 119.333z"></path>
    <path style="fill:#8feaff; stroke:none;" d="M104 119L105 120L104 119z"></path>
    <path style="fill:#c3f3ff; stroke:none;" d="M105 119L105 120L106 124L107 124L108 119L105 119z"></path>
    <path style="fill:#4fdeff; stroke:none;" d="M151 119L152 120L151 119z"></path>
    <path style="fill:#8feaff; stroke:none;" d="M181 119L182 120L181 119z"></path>
    <path style="fill:#4fdeff; stroke:none;" d="M211 119L212 120L211 119z"></path>
    <path style="fill:#8feaff; stroke:none;" d="M12 120L13 121L12 120z"></path>
    <path style="fill:#c3f3ff; stroke:none;" d="M13.6667 120.333L14.3333 120.667L13.6667 120.333z"></path>
    <path style="fill:#4fdeff; stroke:none;" d="M19 120L19 121L25 121L19 120z"></path>
    <path style="fill:#8feaff; stroke:none;" d="M25 120L25 121L28 121L25 120z"></path>
    <path style="fill:#c3f3ff; stroke:none;" d="M28 120L28 121L31 121L28 120M77 120L78 121L77 120z"></path>
    <path style="fill:#8feaff; stroke:none;" d="M78.6667 120.333L79.3333 120.667L78.6667 120.333z"></path>
    <path style="fill:#4fdeff; stroke:none;" d="M80.6667 120.333L81.3333 120.667L80.6667 120.333M95.6667 120.333L96.3333 120.667L95.6667 120.333z"></path>
    <path style="fill:#8feaff; stroke:none;" d="M97.6667 120.333L98.3333 120.667L97.6667 120.333z"></path>
    <path style="fill:#c3f3ff; stroke:none;" d="M99.6667 120.333L100.333 120.667L99.6667 120.333z"></path>
    <path style="fill:#8feaff; stroke:none;" d="M151 120L152 121L151 120z"></path>
    <path style="fill:#4fdeff; stroke:none;" d="M32.6667 121.333L33.3333 121.667L32.6667 121.333z"></path>
    <path style="fill:#8feaff; stroke:none;" d="M34 121L35 122L34 121z"></path>
    <path style="fill:#c3f3ff; stroke:none;" d="M35 121L36 122L35 121M86 121L86 122L90 122L86 121z"></path>
    <path style="fill:#4fdeff; stroke:none;" d="M152 121L153 122L152 121z"></path>
    <path style="fill:#8feaff; stroke:none;" d="M180 121L181 122L180 121M210 121L211 122L210 121z"></path>
    <path style="fill:#4fdeff; stroke:none;" d="M37 122L38 123L37 122z"></path>
    <path style="fill:#8feaff; stroke:none;" d="M38 122L39 123L38 122z"></path>
    <path style="fill:#c3f3ff; stroke:none;" d="M39 122L40 123L39 122M152 122L153 123L152 122z"></path>
    <path style="fill:#4fdeff; stroke:none;" d="M210 122L211 123L210 122M41 123L42 124L41 123z"></path>
    <path style="fill:#8feaff; stroke:none;" d="M42 123L43 124L42 123z"></path>
    <path style="fill:#c3f3ff; stroke:none;" d="M43 123L44 124L43 123z"></path>
    <path style="fill:#8feaff; stroke:none;" d="M107 123L108 124L107 123M153 123L154 124L153 123z"></path>
    <path style="fill:#c3f3ff; stroke:none;" d="M179 123L180 124L179 123z"></path>
    <path style="fill:#4fdeff; stroke:none;" d="M44 124L45 125L44 124z"></path>
    <path style="fill:#8feaff; stroke:none;" d="M45 124L46 125L45 124z"></path>
    <path style="fill:#c3f3ff; stroke:none;" d="M46 124L47 125L46 124M102 124L103 125L102 124z"></path>
    <path style="fill:#8feaff; stroke:none;" d="M103 124L104 125L103 124z"></path>
    <path style="fill:#4fdeff; stroke:none;" d="M104 124L105 125L104 124M154 124L155 125L154 124M178 124L179 125L178 124z"></path>
    <path style="fill:#8feaff; stroke:none;" d="M209 124L210 125L209 124M48 125L49 126L48 125z"></path>
    <path style="fill:#c3f3ff; stroke:none;" d="M49 125L50 126L49 125M99 125L100 126L99 125z"></path>
    <path style="fill:#8feaff; stroke:none;" d="M100 125L101 126L100 125z"></path>
    <path style="fill:#4fdeff; stroke:none;" d="M155 125L156 126L155 125M177 125L178 126L177 125M209 125L210 126L209 125M51 126L52 127L51 126z"></path>
    <path style="fill:#8feaff; stroke:none;" d="M52 126L53 127L52 126z"></path>
    <path style="fill:#c3f3ff; stroke:none;" d="M94 126L95 127L94 126z"></path>
    <path style="fill:#8feaff; stroke:none;" d="M95.6667 126.333L96.3333 126.667L95.6667 126.333z"></path>
    <path style="fill:#4fdeff; stroke:none;" d="M97 126L98 127L97 126M156 126L157 127L156 126M176 126L177 127L176 126z"></path>
    <path style="fill:#c3f3ff; stroke:none;" d="M208 126L209 127L208 126z"></path>
    <path style="fill:#4fdeff; stroke:none;" d="M54 127L55 128L54 127z"></path>
    <path style="fill:#8feaff; stroke:none;" d="M55 127L56 128L55 127z"></path>
    <path style="fill:#c3f3ff; stroke:none;" d="M56 127L57 128L56 127M89.6667 127.333L90.3333 127.667L89.6667 127.333z"></path>
    <path style="fill:#8feaff; stroke:none;" d="M91 127L92 128L91 127z"></path>
    <path style="fill:#4fdeff; stroke:none;" d="M92 127L93 128L92 127z"></path>
    <path style="fill:#8feaff; stroke:none;" d="M157 127L158 128L157 127M175 127L176 128L175 127z"></path>
    <path style="fill:#4fdeff; stroke:none;" d="M208 127L209 128L208 127M59 128L60 129L59 128z"></path>
    <path style="fill:#8feaff; stroke:none;" d="M60 128L61 129L60 128z"></path>
    <path style="fill:#c3f3ff; stroke:none;" d="M61.6667 128.333L62.3333 128.667L61.6667 128.333M83.6667 128.333L84.3333 128.667L83.6667 128.333z"></path>
    <path style="fill:#8feaff; stroke:none;" d="M85 128L86 129L85 128z"></path>
    <path style="fill:#4fdeff; stroke:none;" d="M86.6667 128.333L87.3333 128.667L86.6667 128.333z"></path>
    <path style="fill:#c3f3ff; stroke:none;" d="M158 128L159 129L158 128z"></path>
    <path style="fill:#4fdeff; stroke:none;" d="M159 128L160 129L159 128M173 128L174 129L173 128z"></path>
    <path style="fill:#c3f3ff; stroke:none;" d="M174 128L175 129L174 128M207 128L208 129L207 128z"></path>
    <path style="fill:#4fdeff; stroke:none;" d="M65 129L65 130L68 130L65 129z"></path>
    <path style="fill:#8feaff; stroke:none;" d="M68 129L68 130L77 130L68 129z"></path>
    <path style="fill:#4fdeff; stroke:none;" d="M77 129L77 130L81 130L77 129z"></path>
    <path style="fill:#c3f3ff; stroke:none;" d="M160 129L161 130L160 129z"></path>
    <path style="fill:#8feaff; stroke:none;" d="M161 129L162 130L161 129z"></path>
    <path style="fill:#4fdeff; stroke:none;" d="M162 129L163 130L162 129M170 129L171 130L170 129z"></path>
    <path style="fill:#8feaff; stroke:none;" d="M171 129L172 130L171 129z"></path>
    <path style="fill:#c3f3ff; stroke:none;" d="M172 129L173 130L172 129z"></path>
    <path style="fill:#4fdeff; stroke:none;" d="M207 129L208 130L207 129z"></path>
    <path style="fill:#c3f3ff; stroke:none;" d="M148 130L148 162L149 162L150 130L148 130M165 130L165 131L168 131L165 130M206 130L207 131L206 130z"></path>
    <path style="fill:#4fdeff; stroke:none;" d="M149 131L150 132L149 131M206 131L207 132L206 131z"></path>
    <path style="fill:#c3f3ff; stroke:none;" d="M150 132L151 133L150 132z"></path>
    <path style="fill:#8feaff; stroke:none;" d="M205 132L206 133L205 132z"></path>
    <path style="fill:#c3f3ff; stroke:none;" d="M204 133L205 134L204 133z"></path>
    <path style="fill:#8feaff; stroke:none;" d="M151 134L152 135L151 134z"></path>
    <path style="fill:#4fdeff; stroke:none;" d="M204 134L205 135L204 134z"></path>
    <path style="fill:#c3f3ff; stroke:none;" d="M152 135L153 136L152 135z"></path>
    <path style="fill:#4fdeff; stroke:none;" d="M203 135L204 136L203 135M152 136L153 137L152 136M202 136L203 137L202 136z"></path>
    <path style="fill:#8feaff; stroke:none;" d="M153 137L154 138L153 137z"></path>
    <path style="fill:#4fdeff; stroke:none;" d="M201 137L202 138L201 137z"></path>
    <path style="fill:#8feaff; stroke:none;" d="M154 138L155 139L154 138z"></path>
    <path style="fill:#4fdeff; stroke:none;" d="M200 138L201 139L200 138z"></path>
    <path style="fill:#c3f3ff; stroke:none;" d="M155 139L156 140L155 139z"></path>
    <path style="fill:#4fdeff; stroke:none;" d="M199 139L200 140L199 139z"></path>
    <path style="fill:#c3f3ff; stroke:none;" d="M156 140L157 141L156 140M197 140L198 141L197 140z"></path>
    <path style="fill:#4fdeff; stroke:none;" d="M198 140L199 141L198 140z"></path>
    <path style="fill:#8feaff; stroke:none;" d="M157 141L158 142L157 141M196 141L197 142L196 141z"></path>
    <path style="fill:#4fdeff; stroke:none;" d="M158 142L159 143L158 142z"></path>
    <path style="fill:#c3f3ff; stroke:none;" d="M159 142L160 143L159 142M194 142L195 143L194 142z"></path>
    <path style="fill:#4fdeff; stroke:none;" d="M195 142L196 143L195 142z"></path>
    <path style="fill:#8feaff; stroke:none;" d="M160 143L161 144L160 143z"></path>
    <path style="fill:#c3f3ff; stroke:none;" d="M161 143L162 144L161 143M192 143L193 144L192 143z"></path>
    <path style="fill:#4fdeff; stroke:none;" d="M193 143L194 144L193 143M162 144L163 145L162 144z"></path>
    <path style="fill:#c3f3ff; stroke:none;" d="M163 144L164 145L163 144z"></path>
    <path style="fill:#8feaff; stroke:none;" d="M190 144L191 145L190 144z"></path>
    <path style="fill:#4fdeff; stroke:none;" d="M191 144L192 145L191 144z"></path>
    <path style="fill:#8feaff; stroke:none;" d="M165 145L166 146L165 145z"></path>
    <path style="fill:#c3f3ff; stroke:none;" d="M166 145L167 146L166 145M186 145L187 146L186 145z"></path>
    <path style="fill:#8feaff; stroke:none;" d="M187 145L188 146L187 145z"></path>
    <path style="fill:#4fdeff; stroke:none;" d="M188 145L189 146L188 145M168.667 146.333L169.333 146.667L168.667 146.333z"></path>
    <path style="fill:#8feaff; stroke:none;" d="M170 146L171 147L170 146z"></path>
    <path style="fill:#c3f3ff; stroke:none;" d="M171.667 146.333L172.333 146.667L171.667 146.333M180.667 146.333L181.333 146.667L180.667 146.333z"></path>
    <path style="fill:#8feaff; stroke:none;" d="M182.667 146.333L183.333 146.667L182.667 146.333z"></path>
    <path style="fill:#4fdeff; stroke:none;" d="M184 146L185 147L184 146M121.333 164.667L121.667 165.333L121.333 164.667M149 164L150 165L149 164z"></path>
    <path style="fill:#8feaff; stroke:none;" d="M149 165L150 166L149 165z"></path>
    <path style="fill:#c3f3ff; stroke:none;" d="M121 166L122 167L121 166z"></path>
    <path style="fill:#4fdeff; stroke:none;" d="M120 167L121 168L120 167z"></path>
    <path style="fill:#c3f3ff; stroke:none;" d="M150 167L151 168L150 167z"></path>
    <path style="fill:#8feaff; stroke:none;" d="M119 168L120 169L119 168z"></path>
    <path style="fill:#c3f3ff; stroke:none;" d="M151 168L152 169L151 168z"></path>
    <path style="fill:#4fdeff; stroke:none;" d="M152 168L153 169L152 168M113 169L113 170L116 170L113 169z"></path>
    <path style="fill:#8feaff; stroke:none;" d="M116.667 169.333L117.333 169.667L116.667 169.333z"></path>
    <path style="fill:#c3f3ff; stroke:none;" d="M154 169L155 170L154 169z"></path>
    <path style="fill:#8feaff; stroke:none;" d="M155.667 169.333L156.333 169.667L155.667 169.333z"></path>
    <path style="fill:#4fdeff; stroke:none;" d="M157 169L157 170L161 170L157 169z"></path>
    <path style="fill:#8feaff; stroke:none;" d="M165 170L165 183L166 183L165 170z"></path>
    <path style="fill:#c3f3ff; stroke:none;" d="M108 183L108 184L165 184L147 183L108 183z"></path>
    <path style="fill:#4fdeff; stroke:none;" d="M165 183L166 184L165 183z"></path>
    </svg>