<svg viewBox="0 9.533000946044922 27.18899917602539 33.42100143432617" xmlns="http://www.w3.org/2000/svg" xmlns:xlink="http://www.w3.org/1999/xlink">
    <style>
    	.empower-capital{fill:#000000}.personal{fill:#00cfff}
	</style>
	<g fill="none" fill-rule="evenodd">
		<path class="personal" d="M11.653 6.073c-.912 1.388-1.247 3.064-1.247 6.129 0 3.207.287 4.596 1.295 5.984.815 1.102 1.917 1.676 3.356 1.676 3.117 0 4.604-2.49 4.604-7.756 0-5.315-1.487-7.9-4.556-7.9-1.534 0-2.59.574-3.452 1.867zm-1.295-1.15c2.35-3.542 4.315-4.74 7.72-4.74 5.658 0 9.111 4.597 9.111 12.114 0 7.47-3.5 11.874-9.495 11.874-1.87 0-3.692-.526-4.89-1.388-.816-.622-1.487-1.532-2.35-3.16v7.613c0 2.394.383 2.729 3.212 2.825h1.103v3.543H0v-3.543h1.104c2.206-.096 2.494-.431 2.494-2.825V7.27c0-2.394-.288-2.73-2.494-2.825H0V.902h10.358v4.022z" mask="url(#mask-4)" transform="translate(0 9.35)"></path>
			</g>
</svg>