<svg xmlns:svg="http://www.w3.org/2000/svg" xmlns="http://www.w3.org/2000/svg" version="1.0" viewBox="0 0 141.7324981689453 141.7324981689453" id="svg2632">
  <defs id="defs2634"></defs>
  <path d="M 141.7325,141.7325 L 0,141.7325 L 0,0 L 141.7325,0 L 141.7325,141.7325 z" id="path2484" style="fill:#003560;fill-opacity:1;fill-rule:nonzero;stroke:none"></path>
  <path d="M 104.67975,106.02463 L 104.67975,92.45963 L 114.076,92.45963 C 118.3885,92.45963 121.79475,94.44213 121.79475,99.11463 C 121.79475,103.89338 117.886,106.02463 113.616,106.02463 L 104.67975,106.02463 z M 104.67975,123.24213 L 104.67975,108.71338 L 114.22725,108.71338 C 118.94475,108.71338 122.7585,110.90088 122.7585,115.87838 C 122.7585,120.95338 119.05225,123.24213 114.3235,123.24213 L 104.67975,123.24213 z M 101.47725,125.98463 L 115.091,125.98463 C 120.62725,125.98463 126.006,122.83463 126.006,115.97588 C 126.006,111.66213 123.31725,107.90338 118.236,107.14088 L 118.236,107.08963 C 122.456,106.07713 124.9435,102.56963 124.9435,98.60588 C 124.9435,92.76838 120.92975,89.71963 114.83225,89.71963 L 101.47725,89.71963 L 101.47725,125.98463 z" id="path2496" style="fill:#ffffff;fill-opacity:1;fill-rule:nonzero;stroke:none"></path>
  <path d="M 80.23637,126.593 C 88.72012,126.593 94.91512,121.7205 94.91512,112.87925 L 94.91512,89.768 L 87.09637,89.768 L 87.09637,112.62675 C 87.09637,117.35175 84.75762,119.78425 80.39262,119.78425 C 75.71262,119.78425 73.58387,116.89175 73.58387,112.62675 L 73.58387,89.768 L 65.66387,89.768 L 65.66387,113.33675 C 65.66387,122.2255 71.45512,126.593 80.23637,126.593" id="path2500" style="fill:#ffffff;fill-opacity:1;fill-rule:nonzero;stroke:none"></path>
  <path d="M 52.90237,113.85425 C 57.96487,110.983 59.91487,106.7155 59.91487,102.39925 C 59.91487,95.28925 54.83112,89.7505 47.31612,89.7505 L 31.29362,89.7505 L 31.29362,125.96425 L 39.16612,125.96425 L 39.16612,96.14925 L 45.35737,96.14925 C 49.76737,96.14925 52.21362,98.7805 52.21362,102.39925 C 52.21362,105.51675 50.29362,108.67425 45.40862,108.67425 L 40.45237,108.67425 L 52.90237,125.96425 L 61.58862,125.96425 L 52.90237,113.85425 z" id="path2504" style="fill:#ffffff;fill-opacity:1;fill-rule:nonzero;stroke:none"></path>
</svg>
