<svg version="1.1" id="Layer_1" xmlns="http://www.w3.org/2000/svg" xmlns:xlink="http://www.w3.org/1999/xlink" x="0px" y="0px" viewBox="1.0000059604644775 1.0000189542770386 427.9999694824219 427.9999694824219" enable-background="new 0 0 428 428" xml:space="preserve">
<path fill="#1795FD" opacity="1.000000" stroke="none" d="
M201.000000,429.000000 
	C134.000015,429.000000 67.500015,429.000000 1.000018,429.000000 
	C1.000012,286.333344 1.000012,143.666718 1.000006,1.000056 
	C143.666626,1.000037 286.333252,1.000037 428.999908,1.000019 
	C428.999939,143.666611 428.999939,286.333221 428.999969,428.999908 
	C353.166656,429.000000 277.333344,429.000000 201.000000,429.000000 
M185.881149,280.386261 
	C192.032104,276.276031 198.183060,272.165833 203.855209,268.375549 
	C197.980667,262.542938 192.862839,257.461670 187.727783,252.363297 
	C163.517685,273.936432 132.560394,267.799744 116.093994,250.721436 
	C98.362900,232.331360 96.760139,203.730804 112.704918,183.634872 
	C120.584976,173.703278 130.827744,167.472473 143.225311,165.177139 
	C160.590576,161.962097 175.628372,167.282043 187.926010,178.405090 
	C193.442505,173.144241 198.587448,168.237717 203.891144,163.179794 
	C202.535141,161.885986 201.273087,160.567352 199.894928,159.383896 
	C176.128632,138.975357 141.067551,136.353134 114.211922,152.956207 
	C87.221680,169.642502 73.922112,201.990891 81.526459,232.456680 
	C92.973137,278.316315 141.530991,300.933960 185.881149,280.386261 
M341.422485,162.994690 
	C344.032471,162.994690 346.642456,162.994690 349.430603,162.994690 
	C349.430603,156.023315 349.430603,149.636047 349.430603,143.206909 
	C304.058380,143.206909 259.027344,143.206909 213.989014,143.206909 
	C213.989014,149.952530 213.989014,156.344879 213.989014,163.131775 
	C232.125549,163.131775 249.883392,163.131775 268.034241,163.131775 
	C268.034241,203.946869 268.034241,244.358612 268.034241,285.095581 
	C275.517487,285.095581 282.603607,285.095581 290.363770,285.095581 
	C290.363770,244.397064 290.363770,203.866699 290.363770,162.994690 
	C307.501556,162.994690 323.970978,162.994690 341.422485,162.994690 
z"></path>
<path fill="#0D253F" opacity="1.000000" stroke="none" d="
M185.558411,280.574707 
	C141.530991,300.933960 92.973137,278.316315 81.526459,232.456680 
	C73.922112,201.990891 87.221680,169.642502 114.211922,152.956207 
	C141.067551,136.353134 176.128632,138.975357 199.894928,159.383896 
	C201.273087,160.567352 202.535141,161.885986 203.891144,163.179794 
	C198.587448,168.237717 193.442505,173.144241 187.926010,178.405090 
	C175.628372,167.282043 160.590576,161.962097 143.225311,165.177139 
	C130.827744,167.472473 120.584976,173.703278 112.704918,183.634872 
	C96.760139,203.730804 98.362900,232.331360 116.093994,250.721436 
	C132.560394,267.799744 163.517685,273.936432 187.727783,252.363297 
	C192.862839,257.461670 197.980667,262.542938 203.855209,268.375549 
	C198.183060,272.165833 192.032104,276.276031 185.558411,280.574707 
z"></path>
<path fill="#FEFEFF" opacity="1.000000" stroke="none" d="
M340.931458,162.994690 
	C323.970978,162.994690 307.501556,162.994690 290.363770,162.994690 
	C290.363770,203.866699 290.363770,244.397064 290.363770,285.095581 
	C282.603607,285.095581 275.517487,285.095581 268.034241,285.095581 
	C268.034241,244.358612 268.034241,203.946869 268.034241,163.131775 
	C249.883392,163.131775 232.125549,163.131775 213.989014,163.131775 
	C213.989014,156.344879 213.989014,149.952530 213.989014,143.206909 
	C259.027344,143.206909 304.058380,143.206909 349.430603,143.206909 
	C349.430603,149.636047 349.430603,156.023315 349.430603,162.994690 
	C346.642456,162.994690 344.032471,162.994690 340.931458,162.994690 
z"></path>
</svg>