<svg xmlns="http://www.w3.org/2000/svg" viewBox="0 0 64 64"><g fill="none" fill-rule="evenodd"><path fill="#1A8CFF" d="M32 8c13.255 0 24 10.745 24 24S45.255 56 32 56 8 45.255 8 32 18.745 8 32 8"/><path fill="#FFF" d="M2 32C2 15.431 15.431 2 32 2c16.569 0 30 13.431 30 30 0 16.57-13.431 30-30 30C15.431 62 2 48.57 2 32zm6 0c0 13.255 10.745 24 24 24s24-10.745 24-24S45.255 8 32 8 8 18.745 8 32z"/><path fill="#000" fill-rule="nonzero" d="M1 32c0 17.121 13.88 31 31 31 17.12 0 31-13.879 31-31C63 14.88 49.12 1 32 1 14.88 1 1 14.88 1 32zm1 0C2 15.433 15.43 2 32 2s30 13.433 30 30-13.43 30-30 30S2 48.567 2 32zm7-.002C9 44.7 19.298 54.996 32 54.996S55 44.7 55 31.998C55 19.297 44.702 9 32 9S9 19.297 9 31.998zM8 32C8 18.747 18.744 8 32 8s24 10.747 24 24-10.743 24-24 24S8 45.253 8 32z" opacity=".5"/><path fill="#000" fill-opacity=".05" d="M42.32 57.078c9.129-3.891 15.528-12.927 15.528-23.456 0-14.082-11.446-25.498-25.565-25.498C18.164 8.124 6.72 19.54 6.72 33.622c0 14.04 11.378 25.427 25.44 25.494-.044.001-.086.004-.129.004-14.818 0-26.83-11.981-26.83-26.76C5.2 17.581 17.212 5.6 32.03 5.6c14.818 0 26.83 11.981 26.83 26.76 0 11.143-6.83 20.691-16.54 24.718zM31.512 59.42c16.553 0 29.971-13.383 29.971-29.891 0-1.54-.117-3.052-.342-4.529.557 2.278.859 4.656.859 7.105 0 16.51-13.419 29.891-29.971 29.891-15.01 0-27.441-11.003-29.629-25.362C5.598 49.71 17.415 59.42 31.512 59.42z"/><path fill="#F7F7F7" d="M32 14c9.941 0 18 8.059 18 18s-8.059 18-18 18-18-8.059-18-18 8.059-18 18-18z"/><path fill="#000" fill-opacity=".25" fill-rule="nonzero" d="M32 14c-9.941 0-18 8.059-18 18s8.059 18 18 18 18-8.059 18-18-8.059-18-18-18zm0-1c10.493 0 19 8.507 19 19 0 10.494-8.507 19-19 19s-19-8.506-19-19c0-10.493 8.507-19 19-19z"/><path fill="#000" fill-opacity=".05" d="M40 32a8 8 0 1 1-16 0 8 8 0 0 1 16 0z"/><path fill="#000" fill-opacity=".05" fill-rule="nonzero" d="M39 32a7 7 0 1 0-14 0 7 7 0 0 0 14 0zm1 0a8 8 0 1 1-16 0 8 8 0 0 1 16 0z"/><path fill="#FFF" fill-rule="nonzero" d="M40 32a8 8 0 1 0-16 0 8 8 0 0 0 16 0zm1 0a9 9 0 1 1-18 0 9 9 0 0 1 18 0z"/><path fill="#FFF" d="M28 28v-8h8v14l-2 2 2 2v8h-8V32l2-2-2-2z"/><path fill="#4D4D4D" d="M28 27v-8h8v14l-2 2 2 2v8h-8V31l2-2-2-2z"/><path fill="gray" d="M35 38v7h-6V32l2-2-2-2v-7h6v13l-2 2 2 2z"/></g></svg>