<svg viewBox="0 0 36 36" fill="none" xmlns="http://www.w3.org/2000/svg">
<path fill-rule="evenodd" clip-rule="evenodd" d="M18.0235 36C8.06938 36 0 27.9411 0 18C0 8.05887 8.06938 0 18.0235 0C27.9775 0 36.0469 8.05887 36.0469 18C36.0469 27.9411 27.9775 36 18.0235 36ZM17.7777 24.4023V20.8227C17.774 20.7674 17.7944 20.7133 17.8337 20.6741C17.8729 20.6349 17.9271 20.6145 17.9825 20.6182H22.1811C25.1412 20.4988 27.4777 18.0647 27.4722 15.1061C27.4667 12.1475 25.1211 9.72203 22.1607 9.61364H11.8791C11.6529 9.61364 11.4695 9.79679 11.4695 10.0227V24.4636C11.4695 26.2033 12.8816 27.6136 14.6236 27.6136C16.3655 27.6136 17.7777 26.2033 17.7777 24.4636C17.805 24.4227 17.805 24.4023 17.7777 24.4023ZM17.9825 15.9136H21.9559C22.4083 15.9136 22.7751 15.5473 22.7751 15.0955C22.7751 14.6436 22.4083 14.2773 21.9559 14.2773H16.5693C16.3431 14.2773 16.1597 14.4604 16.1597 14.6864V24.4432C16.1597 25.2904 15.4719 25.9773 14.6236 25.9773C13.7752 25.9773 13.0875 25.2904 13.0875 24.4432V11.4341C13.0838 11.3788 13.1042 11.3246 13.1435 11.2854C13.1827 11.2463 13.2369 11.2259 13.2923 11.2295H21.9559C23.3461 11.204 24.6445 11.9211 25.3618 13.1107C26.0791 14.3004 26.1064 15.7819 25.4335 16.9971C24.7605 18.2123 23.4895 18.9767 22.0992 19.0023H17.9825C17.9271 19.0059 17.8729 18.9856 17.8337 18.9464C17.7944 18.9072 17.774 18.853 17.7777 18.7977V16.1386C17.7772 16.0219 17.8661 15.9242 17.9825 15.9136Z" fill="#0F6FDE"/>
</svg>
