<svg version="1.1" id="Layer_1" xmlns="http://www.w3.org/2000/svg" x="0" y="0" xml:space="preserve" viewBox="114 223 384.01 346.48"><style>.st1{fill:#fefefe}.st2{fill:#fdfdfd}.st3{fill:#faf4f4}</style><path d="M116.41 569.43c-1.24-.04-2.9.47-2.27-1.88.13-.47.02-.99.02-1.49 0-113.16.02-226.32-.09-339.48 0-3.16.79-3.58 3.71-3.58 125.5.09 250.99.09 376.49 0 2.86 0 3.75.32 3.74 3.54-.12 88.05-.1 176.11-.1 264.16-1.09-.41-1.28-1.43-1.48-2.35-2.53-11.49-6.73-22.38-12.1-32.8-7.13-13.83-16.07-26.31-28.31-36.16l.01.01c-4.93-4.81-10.49-8.73-16.6-11.88l-.03-.02c-.78-.86-1.69-1.49-2.88-1.63l.04.02c-6.66-4.2-13.76-7.48-21.1-10.27-.16-.22-.36-.28-.61-.2-4.25-2.37-8.87-3.87-13.42-5.48-13.6-4.83-27.29-9.38-41.42-12.44-.12-.22-.29-.26-.5-.12-13.65-4.11-27.61-6.98-41.48-10.16-.5-.07-1-.13-1.5-.2-.82-.27-1.63-.59-2.46-.81-10.35-2.71-20.92-4.72-30.7-9.3-2.54-1.19-5.01-2.67-4.96-5.89.05-3.19 2.55-4.62 5.05-5.92 3.58-1.87 7.6-2.32 11.35-3.63.51-.07 1.02-.13 1.52-.2 1.72-.19 3.43-.41 5.15-.57 8.02-.75 16.03-1.49 24.05-2.23l1.5-.06c3.25.38 6.45-.3 9.62-.74 8.32-1.16 16.72-2.17 24.14-6.66l-.01.01c2.93-1.23 5.38-3.01 6.84-5.94l-.02.03c3.71-5.56 2.52-10.25-3.66-14.52-1.72-1.47-3.38-3.07-6.77-2.58 2.71 1.22 4.04 3.01 5.73 4.4 2.6 6.16 1.24 9.68-4.9 12.56-3.05 1.44-6.3 2.25-9.58 2.98-8.03 1.8-16.27 1.87-24.38 3.05-1 .04-2 .07-2.99.11-7.03.03-14.01.73-20.99 1.45-.75.02-1.49.05-2.24.07-5.29-.03-10.54.37-15.73 1.41l-1.51.09c-2.81.09-5.58.46-8.25 1.37-.51.06-1.01.13-1.52.19-6.98 1.34-13.82 3.04-19.78 7.19-.23.1-.45.21-.68.31-3.33 1.64-5.88 4.19-7.99 7.16-3.33 4.69-2.96 7.85 1.29 11.83 2.75 2.58 5.92 4.63 9.3 6.22 15.65 7.36 31.37 14.6 47.06 21.89l-.01-.01c3.01 1.75 6.02 3.5 9.03 5.24l-.02-.02c.59.76 1.34 1.28 2.27 1.52l-.03-.01c5.44 4.12 10.96 8.13 15.39 13.43 6.13 7.32 9.01 15.61 7.94 25.19-.73 6.45-3.74 12.01-6.79 17.56-4.02 5.03-8.15 9.94-12.88 14.35-5.18 4.82-10.99 8.85-16.42 13.34l.02-.02-15.93 10.32.04-.04c-.46.2-.94.34-1.36.59-25.09 14.92-51.47 27.26-78.03 39.26-15.18 6.86-30.42 13.59-45.63 20.38-13.24 5.49-26.49 10.98-39.73 16.48-.73.32-1.29.78-1.46 1.58z" fill="#830110"/><path class="st1" d="M116.41 569.43c.17-.8.73-1.25 1.43-1.54 13.24-5.5 26.49-10.99 39.73-16.48 2.2 1.36 4.4.75 6.41-.3 4.74-2.46 9.55-4.82 14.31-7.17 5.05-2.49 10.42-4.2 15.4-6.93 7.92-4.35 16.83-6.62 24.74-11.22 4.3-2.5 9.52-3.42 13.84-5.89 7-4.01 14.31-7.37 21.39-11.19 1.92-1.04 4.92-.81 6.15-2.26 3.5-4.09 9.03-4.39 12.86-7.72 1.35-1.17 2.54-2.67 4.65-2.92 2.7-.32 4.36-2.13 5.27-4.64l-.04.04c1.56.17 3.82 1 4.45-.55 1.45-3.62 7.21-1 7.62-5.66.01-.11.68-.26 1.03-.24 3.04.22 3.03-1.75 2.83-3.87l-.02.02c3.15-.82 6.93-.43 8.42-4.46.19-.51.8-.93 1.3-1.25 5.42-3.47 10.63-7.16 14.2-12.71.4-.62.77-1.37 1.36-1.74 2.79-1.77 3.57-4.55 4.02-7.54 2.04.57 2.14-2.11 3.76-2.24 3.11.45 5.7-1.54 8.66-1.86 1.43-.15 2.05-1.47 1.78-2.84-1.13-5.69.39-11.34.16-17.03-.15-3.83-1.74-7.64-.59-11.46.94-3.13-.39-4.35-3.18-4.23-2.95.13-5.64-.57-8.33-1.57 0-.25-.01-.49-.01-.74 2.39-6.6-3.54-9.86-5.9-14.54-.17-.34-1.21-.53-1.72-.37-2.89.92-3.49-.73-3.66-3.04-.16-2.06-1.21-3.1-3.41-3.1-1.35 0-2.69-.47-4.04-.65-5.29-.7-5.76-1.26-4.88-6.7.33-2.04.04-3.8-2.27-3.76-6.6.14-12.89-2.65-19.57-1.75-2.14.29-3.61-.8-2.97-3.44.32-1.32.32-2.71.53-4.06.2-1.28.62-2.52 2.12-2.74 6.56-.93 13.12-.19 19.68.03.43.01 1.14.4 1.21.72.89 4.09 4.95 5.02 7.46 7.46 2.11 2.06 4.98 4 7.88 3.22 2.21-.6 3.92-1 5.95.08 1.14.61 2.6.7 3.6-.09 2.65-2.13 5.2-1.73 7.95-.28 1.58.83 3.37.83 5.13.76 4.24-.17 8.46.1 12.66.75.87.14 1.98.06 2.18 1.06.28 1.39-1.03 1.09-1.78 1.21-1.52.25-2.12 1.16-2.12 2.6 0 1.24.46 2.15 1.77 2.52 7.04 2.01 14.13 4.68 21.5 3.67 5.86-.8 11.45.13 16.98 1.14 2.92.53 4.27 4.73 7.57 5.75.21.06.12 1.17.13 1.8.03 1.86 1.06 2.99 2.81 2.66 3.76-.71 7.31.64 10.95.77 9.21.33 9.24.22 10.2 9.23.25 2.32 1.23 3.21 3.45 2.26 1.6-.68 3.07-1.71 4.72-2.19 3.55-1.05 4.53 5.3 8.68 3.17.43-.22 1 .96 1.12 1.73.14.9.41 1.81 1.33 2.11 2.66.86 3.77 2.94 4.84 5.31 1.24 2.73 6.51 3.16 8.84.93 1.1.05 2.48-.25 3 1 1.39 3.32 4.52 5.15 6.53 7.85 4.64 6.22 9.05 12.66 13.01 19.33 1.84 3.09 4.23 6.15 4.44 10.05 0 9.19-.03 18.37.02 27.56.01 1.43-.61 3.1.68 4.26 1.43 1.29 2.62-1.06 4.15-.53-.31 3.07.81 4.3 3.88 3.19 1.04-.37 2.17-.5 3.26-.74 0 22.99-.05 45.98.07 68.97.01 2.57-.51 3.07-3.07 3.07-126.16-.06-252.33-.05-378.49-.05z"/><path class="st2" d="M497.9 497.46c-1.09.24-2.22.36-3.26.74-3.07 1.11-4.19-.12-3.88-3.19-1.53-.53-2.72 1.81-4.15.53-1.29-1.16-.67-2.82-.68-4.26-.05-9.18-.03-18.37-.02-27.56 1.75 1.04 2.33 2.89 2.86 4.63.53 1.72.17 3.82.98 5.34 2.81 5.29 4.89 10.74 5.18 16.78.09 1.92 1.25 2.54 2.97 2.5v4.49z"/><path class="st3" d="M497.9 492.96c-1.72.04-2.88-.58-2.97-2.5-.29-6.04-2.37-11.49-5.18-16.78-.81-1.52-.45-3.61-.98-5.34-.53-1.74-1.11-3.58-2.86-4.63-.21-3.9-2.6-6.96-4.44-10.05-3.97-6.67-8.37-13.11-13.01-19.33-2.01-2.7-5.14-4.53-6.53-7.85-.52-1.25-1.9-.95-3-1-1.65-1.7-2.15-3.95-2.92-6.08 12.25 9.85 21.19 22.33 28.31 36.16 5.37 10.42 9.57 21.31 12.1 32.8.2.92.39 1.94 1.48 2.35v2.25z"/><path class="st2" d="M456.01 419.41c.77 2.13 1.27 4.38 2.92 6.08-2.33 2.23-7.6 1.81-8.84-.93-1.07-2.37-2.19-4.45-4.84-5.31-.92-.3-1.19-1.2-1.33-2.11-.12-.77-.7-1.95-1.12-1.73-4.15 2.13-5.13-4.22-8.68-3.17-1.64.49-3.12 1.51-4.72 2.19-2.22.95-3.2.06-3.45-2.26-.95-9.01-.99-8.9-10.2-9.23-3.64-.13-7.19-1.47-10.95-.77-1.75.33-2.78-.8-2.81-2.66-.01-.62.08-1.73-.13-1.8-3.31-1.01-4.65-5.21-7.57-5.75-5.53-1.01-11.12-1.94-16.98-1.14-7.36 1-14.45-1.66-21.5-3.67-1.31-.37-1.76-1.28-1.77-2.52 0-1.44.6-2.35 2.12-2.6.75-.12 2.06.18 1.78-1.21-.21-1-1.32-.93-2.18-1.06-4.2-.65-8.41-.93-12.66-.75-1.76.07-3.55.08-5.13-.76-2.74-1.45-5.29-1.85-7.95.28-.99.79-2.45.7-3.6.09-2.03-1.09-3.74-.68-5.95-.08-2.9.78-5.77-1.15-7.88-3.22-2.51-2.45-6.56-3.38-7.46-7.46-.07-.32-.78-.7-1.21-.72-6.56-.23-13.12-.96-19.68-.03-1.5.21-1.92 1.46-2.12 2.74-.21 1.35-.2 2.74-.53 4.06-.65 2.64.83 3.73 2.97 3.44 6.68-.9 12.98 1.88 19.57 1.75 2.31-.05 2.6 1.71 2.27 3.76-.88 5.44-.41 6 4.88 6.7 1.35.18 2.7.65 4.04.65 2.2-.01 3.25 1.04 3.41 3.1.18 2.31.78 3.95 3.66 3.04.5-.16 1.54.03 1.72.37 2.36 4.68 8.29 7.94 5.9 14.54-2.7-2.66-5.55-5.19-8.08-8-2.94-3.27-5.72-6.6-10.72-6.21l.03.01c-.13-1.44-1.13-1.59-2.27-1.52l.02.02c-1.72-3.97-5.24-4.83-9.03-5.24l.01.01c.13-1.3-.46-1.87-1.69-2.44-7.21-3.32-14.24-7.08-21.59-10.05-2.41-.97-3.99-3.02-6.8-3.52-6.05-1.08-10.68-5.86-16.73-7.21-.22-.05-.51-.27-.56-.46-.95-3.54-4.02-3.98-6.86-5.14-2.2-.91-4.6-3.32-3.9-5.66.99-3.34 1.85-7.36 6.17-8.61 1.95-.56 2.86-1.9 2.3-4 .23-.1.45-.21.68-.31 1.52.24 2.81-.2 4.2-.9 3.46-1.73 7.09-3.27 11-3.41 2.29-.08 3.75-.8 4.58-2.88.51-.06 1.01-.13 1.52-.19 1.31.95 6.53.09 8.25-1.37l1.51-.09c5.14 2.48 10.11-.84 15.19-.51.16.01.36-.59.54-.9.75-.02 1.49-.05 2.24-.07 1.04 2.47 3.25 1.54 4.81 1.27 4.49-.8 8.95-1.54 13.52-1.34 1.12.05 2.28.05 2.66-1.38 1-.04 2-.07 2.99-.11 4.31.98 8.39 1.46 13.03.38 5.66-1.32 11.42-3.69 17.54-2.33.21.05.72-.38.77-.65.41-2.09 2-1.95 3.5-1.89 1.86.08 2.59-.98 3.71-2.38 2.22-2.79 3.84-5.57 3.36-9.4 3 3.3 1.4 6.95 1.66 10.37l.02-.03c-2.31 1.95-6.31 1.94-6.84 5.94l.01-.01c-3.14-.02-5.95 1.15-8.9 2.07-7.44 2.32-15.07 4.04-22.95 4.08-1.03 0-1.7.16-1.91 1.25l-1.5.06c-.22-1.18-.94-1.06-1.94-1-7.17.44-14.31 1.64-21.53.99-2.57-.23-4.19 1.13-5.74 2.8-.51.07-1.02.13-1.52.2-.77-2.12-2.12-1.46-3.61-.87-2.28.89-4.58 2.05-6.95 2.28-3.3.31-5.71 1.67-6.92 4.56-1.19 2.82.86 8.93 2.85 10.53 1.18.95 2.51.35 3.82.97 8.5 4.02 17.69 5.97 26.83 7.89 1.73.36 3.79 1.55 5.73.2.5.07 1 .13 1.5.2 0 1.6.69 2.48 2.37 2.75 6.12.99 12.24 1.99 18.33 3.16 2.64.51 5.43 1.01 7.75 2.24 4.2 2.23 8.55 2.26 13.03 2.01.21-.14.37-.1.5.12 2.84 2.31 6.52 2.76 9.68 4.42 2.74 1.44 6.25.83 8.89 1.91 6.6 2.7 13.74 3.63 20.2 6.64 5.13 2.4 10.25 4.85 16.08 4.95.25-.08.46-.02.61.2.27 1.61 1.28 2.27 2.73 3.07 2.52 1.4 5.65 1.81 7.68 3.4 3.31 2.6 6.81 3.43 10.69 3.79l-.04-.02c.2 1.9 1.66 1.55 2.88 1.63l.03.02c1.51 5.05 6.8 5.8 10.22 8.66 1.65 1.38 3.51 3.71 6.39 3.23l-.03-.03zm-190.99-54.08c1.04-.38 4.61 1.55 4.13-2.29-.45-3.55 3.72-6.75.5-10.35-.22-.24.33-1.46.79-1.96 1.28-1.4.68-2.79.16-4.17-1.44-3.83-4.53-5.17-10.27-4.13-3.3.6-1.63 3.25-1.74 5.14-.03.48-.32.95-.37 1.44-.36 4.12-1.63 7.9.12 12.45 1.41 3.61 2.73 4.4 6.68 3.87z"/><path class="st3" d="M282.59 491.17c-.91 2.51-2.57 4.33-5.27 4.64-2.11.25-3.3 1.74-4.65 2.92-3.82 3.33-9.35 3.63-12.86 7.72-1.24 1.44-4.23 1.22-6.15 2.26-7.08 3.82-14.4 7.18-21.39 11.19-4.32 2.47-9.54 3.39-13.84 5.89-7.91 4.6-16.83 6.87-24.74 11.22-4.97 2.73-10.35 4.44-15.4 6.93-4.76 2.35-9.57 4.71-14.31 7.17-2.02 1.04-4.21 1.65-6.41.3 15.21-6.79 30.45-13.51 45.63-20.38 26.55-12 52.94-24.34 78.03-39.26.41-.26.9-.4 1.36-.6zM250.32 343.22c.56 2.1-.36 3.44-2.3 4-4.33 1.25-5.18 5.28-6.17 8.61-.7 2.34 1.71 4.75 3.9 5.66 2.83 1.17 5.9 1.6 6.86 5.14.05.19.34.41.56.46 6.06 1.35 10.69 6.13 16.73 7.21 2.81.5 4.39 2.55 6.8 3.52 7.35 2.97 14.37 6.74 21.59 10.05 1.23.57 1.82 1.14 1.69 2.44-15.69-7.29-31.4-14.53-47.06-21.89-3.38-1.59-6.55-3.64-9.3-6.22-4.25-3.98-4.61-7.14-1.29-11.83 2.11-2.96 4.67-5.5 7.99-7.15zM316.51 367.06c-1.94 1.34-3.99.16-5.73-.2-9.14-1.92-18.32-3.87-26.83-7.89-1.31-.62-2.63-.02-3.82-.97-1.99-1.6-4.04-7.71-2.85-10.53 1.22-2.88 3.63-4.24 6.92-4.56 2.37-.23 4.68-1.39 6.95-2.28 1.5-.59 2.84-1.25 3.61.87-3.75 1.31-7.77 1.77-11.35 3.63-2.49 1.3-4.99 2.73-5.05 5.92-.05 3.22 2.41 4.69 4.96 5.89 9.78 4.58 20.35 6.59 30.7 9.3.86.22 1.67.54 2.49.82zM311.22 397.04c5-.39 7.78 2.94 10.72 6.21 2.53 2.81 5.37 5.34 8.08 8 0 .25 0 .49.01.74-.05 1.17.25 2.21 1.15 3.01 4.04 3.6 4.29 8.65 4.77 13.43.79 7.89-.91 15.43-4.43 22.54-1.62.13-1.72 2.81-3.76 2.24 3.05-5.55 6.06-11.1 6.79-17.56 1.08-9.58-1.81-17.87-7.94-25.19-4.44-5.28-9.95-9.3-15.39-13.42zM367.58 325.14c-.26-3.41 1.34-7.07-1.66-10.37.48 3.83-1.14 6.6-3.36 9.4-1.11 1.4-1.85 2.46-3.71 2.38-1.5-.06-3.09-.21-3.5 1.89-.05.27-.56.7-.77.65-6.11-1.36-11.88 1.01-17.54 2.33-4.64 1.08-8.71.6-13.03-.38 8.11-1.18 16.35-1.24 24.38-3.05 3.28-.74 6.53-1.55 9.58-2.98 6.14-2.88 7.5-6.4 4.9-12.56.35-.61.69-1.22 1.04-1.82 6.19 4.26 7.37 8.95 3.67 14.51zM414.84 395.45c-5.84-.1-10.95-2.55-16.08-4.95-6.46-3.01-13.59-3.94-20.2-6.64-2.64-1.08-6.15-.47-8.89-1.91-3.15-1.66-6.84-2.11-9.68-4.42 14.13 3.06 27.83 7.6 41.42 12.44 4.56 1.61 9.18 3.11 13.43 5.48zM327.76 453.22c-.45 2.98-1.23 5.77-4.02 7.54-.59.37-.96 1.12-1.36 1.74-3.57 5.54-8.78 9.24-14.2 12.71-.5.32-1.11.74-1.3 1.25-1.49 4.03-5.27 3.64-8.42 4.46 5.43-4.5 11.23-8.53 16.42-13.34 4.73-4.42 8.86-9.33 12.88-14.36zM359.5 377.42c-4.48.25-8.83.22-13.03-2.01-2.33-1.24-5.11-1.74-7.75-2.24-6.09-1.17-12.21-2.17-18.33-3.16-1.68-.27-2.38-1.14-2.37-2.75 13.87 3.18 27.83 6.05 41.48 10.16zM327.01 338.44c.2-1.09.87-1.24 1.91-1.25 7.88-.04 15.51-1.75 22.95-4.08 2.95-.92 5.76-2.09 8.9-2.07-7.42 4.49-15.81 5.5-24.14 6.66-3.17.44-6.36 1.12-9.62.74zM296.31 341.3c1.55-1.67 3.17-3.04 5.74-2.8 7.21.65 14.36-.55 21.53-.99 1-.06 1.72-.18 1.94 1-8.02.74-16.04 1.48-24.05 2.23-1.73.16-3.44.37-5.16.56zM436.55 405.92c-3.88-.36-7.38-1.19-10.69-3.79-2.03-1.6-5.17-2-7.68-3.4-1.45-.81-2.46-1.46-2.73-3.07 7.35 2.77 14.45 6.06 21.1 10.26z"/><path class="st3" d="M298.48 480.89c.19 2.12.21 4.1-2.83 3.87-.35-.03-1.02.12-1.03.24-.41 4.67-6.17 2.04-7.62 5.66-.62 1.55-2.88.72-4.45.55l15.93-10.32zM456.03 419.42c-2.88.48-4.73-1.85-6.39-3.23-3.42-2.85-8.71-3.6-10.22-8.66 6.11 3.16 11.68 7.08 16.61 11.89zM270.79 335.72c-.83 2.07-2.29 2.8-4.58 2.88-3.91.14-7.54 1.67-11 3.41-1.39.7-2.68 1.14-4.2.9 5.96-4.14 12.8-5.85 19.78-7.19zM321.03 331.14c-.38 1.43-1.54 1.43-2.66 1.38-4.58-.2-9.04.54-13.52 1.34-1.56.28-3.77 1.2-4.81-1.27 6.97-.73 13.96-1.43 20.99-1.45zM297.79 332.66c-.18.31-.38.91-.54.9-5.08-.33-10.04 2.99-15.19.51 5.2-1.03 10.44-1.44 15.73-1.41zM299.97 390.31c3.79.41 7.31 1.28 9.03 5.24-3.01-1.74-6.02-3.49-9.03-5.24zM360.76 331.05c.53-4 4.53-4 6.84-5.94-1.46 2.93-3.91 4.71-6.84 5.94zM280.55 334.17c-1.72 1.46-6.94 2.32-8.25 1.37 2.68-.91 5.44-1.28 8.25-1.37z"/><path d="M363.92 310.62c-.35.61-.69 1.22-1.04 1.82-1.68-1.4-3.02-3.18-5.73-4.4 3.39-.49 5.05 1.11 6.77 2.58z" fill="#fad3d3"/><path class="st3" d="M439.39 407.52c-1.22-.08-2.69.27-2.88-1.63 1.19.14 2.1.77 2.88 1.63zM308.97 395.54c1.14-.07 2.14.07 2.27 1.52-.93-.24-1.68-.75-2.27-1.52z"/><path class="st2" d="M331.51 450.98c3.52-7.11 5.22-14.64 4.43-22.54-.48-4.78-.73-9.83-4.77-13.43-.9-.8-1.2-1.84-1.15-3.01 2.69.99 5.38 1.7 8.33 1.57 2.78-.12 4.12 1.1 3.18 4.23-1.15 3.82.44 7.63.59 11.46.22 5.69-1.29 11.34-.16 17.03.27 1.37-.36 2.69-1.78 2.84-2.97.3-5.56 2.29-8.67 1.85z"/><path class="st1" d="M265.02 365.33c-3.95.54-5.27-.25-6.66-3.88-1.75-4.55-.49-8.33-.12-12.45.04-.49.34-.95.37-1.44.1-1.89-1.56-4.54 1.74-5.14 5.74-1.04 8.83.3 10.27 4.13.52 1.38 1.12 2.77-.16 4.17-.47.51-1.01 1.72-.79 1.96 3.21 3.61-.95 6.81-.5 10.35.46 3.85-3.11 1.91-4.15 2.3z"/></svg>