<svg version="1.1" id="Layer_1" xmlns="http://www.w3.org/2000/svg" xmlns:xlink="http://www.w3.org/1999/xlink" x="0px" y="0px"
	 viewBox="0 0 612 792" style="enable-background:new 0 0 612 792;" xml:space="preserve">
<style type="text/css">
	.st0{fill:#830110;}
	.st1{fill:#FEFEFE;}
	.st2{fill:#FDFDFD;}
	.st3{fill:#FAF4F4;}
	.st4{fill:#FAD3D3;}
</style>
<path class="st0" d="M116.41,569.43c-1.24-0.04-2.9,0.47-2.27-1.88c0.13-0.47,0.02-0.99,0.02-1.49c0-113.16,0.02-226.32-0.09-339.48
	c0-3.16,0.79-3.58,3.71-3.58c125.5,0.09,250.99,0.09,376.49,0c2.86,0,3.75,0.32,3.74,3.54c-0.12,88.05-0.1,176.11-0.1,264.16
	c-1.09-0.41-1.28-1.43-1.48-2.35c-2.53-11.49-6.73-22.38-12.1-32.8c-7.13-13.83-16.07-26.31-28.31-36.16l0.01,0.01
	c-4.93-4.81-10.49-8.73-16.6-11.88l-0.03-0.02c-0.78-0.86-1.69-1.49-2.88-1.63l0.04,0.02c-6.66-4.2-13.76-7.48-21.1-10.27
	c-0.16-0.22-0.36-0.28-0.61-0.2c-4.25-2.37-8.87-3.87-13.42-5.48c-13.6-4.83-27.29-9.38-41.42-12.44c-0.12-0.22-0.29-0.26-0.5-0.12
	c-13.65-4.11-27.61-6.98-41.48-10.16c-0.5-0.07-1-0.13-1.5-0.2c-0.82-0.27-1.63-0.59-2.46-0.81c-10.35-2.71-20.92-4.72-30.7-9.3
	c-2.54-1.19-5.01-2.67-4.96-5.89c0.05-3.19,2.55-4.62,5.05-5.92c3.58-1.87,7.6-2.32,11.35-3.63c0.51-0.07,1.02-0.13,1.52-0.2
	c1.72-0.19,3.43-0.41,5.15-0.57c8.02-0.75,16.03-1.49,24.05-2.23c0.5-0.02,1-0.04,1.5-0.06c3.25,0.38,6.45-0.3,9.62-0.74
	c8.32-1.16,16.72-2.17,24.14-6.66l-0.01,0.01c2.93-1.23,5.38-3.01,6.84-5.94l-0.02,0.03c3.71-5.56,2.52-10.25-3.66-14.52
	c-1.72-1.47-3.38-3.07-6.77-2.58c2.71,1.22,4.04,3.01,5.73,4.4c2.6,6.16,1.24,9.68-4.9,12.56c-3.05,1.44-6.3,2.25-9.58,2.98
	c-8.03,1.8-16.27,1.87-24.38,3.05c-1,0.04-2,0.07-2.99,0.11c-7.03,0.03-14.01,0.73-20.99,1.45c-0.75,0.02-1.49,0.05-2.24,0.07
	c-5.29-0.03-10.54,0.37-15.73,1.41c-0.5,0.03-1.01,0.06-1.51,0.09c-2.81,0.09-5.58,0.46-8.25,1.37c-0.51,0.06-1.01,0.13-1.52,0.19
	c-6.98,1.34-13.82,3.04-19.78,7.19c-0.23,0.1-0.45,0.21-0.68,0.31c-3.33,1.64-5.88,4.19-7.99,7.16c-3.33,4.69-2.96,7.85,1.29,11.83
	c2.75,2.58,5.92,4.63,9.3,6.22c15.65,7.36,31.37,14.6,47.06,21.89l-0.01-0.01c3.01,1.75,6.02,3.5,9.03,5.24l-0.02-0.02
	c0.59,0.76,1.34,1.28,2.27,1.52l-0.03-0.01c5.44,4.12,10.96,8.13,15.39,13.43c6.13,7.32,9.01,15.61,7.94,25.19
	c-0.73,6.45-3.74,12.01-6.79,17.56l0,0c-4.02,5.03-8.15,9.94-12.88,14.35c-5.18,4.82-10.99,8.85-16.42,13.34l0.02-0.02
	c-5.31,3.44-10.62,6.88-15.93,10.32l0.04-0.04c-0.46,0.2-0.94,0.34-1.36,0.59c-25.09,14.92-51.47,27.26-78.03,39.26
	c-15.18,6.86-30.42,13.59-45.63,20.38c-13.24,5.49-26.49,10.98-39.73,16.48C117.14,568.17,116.58,568.63,116.41,569.43z"/>
<path class="st1" d="M116.41,569.43c0.17-0.8,0.73-1.25,1.43-1.54c13.24-5.5,26.49-10.99,39.73-16.48c2.2,1.36,4.4,0.75,6.41-0.3
	c4.74-2.46,9.55-4.82,14.31-7.17c5.05-2.49,10.42-4.2,15.4-6.93c7.92-4.35,16.83-6.62,24.74-11.22c4.3-2.5,9.52-3.42,13.84-5.89
	c7-4.01,14.31-7.37,21.39-11.19c1.92-1.04,4.92-0.81,6.15-2.26c3.5-4.09,9.03-4.39,12.86-7.72c1.35-1.17,2.54-2.67,4.65-2.92
	c2.7-0.32,4.36-2.13,5.27-4.64c0,0-0.04,0.04-0.04,0.04c1.56,0.17,3.82,1,4.45-0.55c1.45-3.62,7.21-1,7.62-5.66
	c0.01-0.11,0.68-0.26,1.03-0.24c3.04,0.22,3.03-1.75,2.83-3.87c0,0-0.02,0.02-0.02,0.02c3.15-0.82,6.93-0.43,8.42-4.46
	c0.19-0.51,0.8-0.93,1.3-1.25c5.42-3.47,10.63-7.16,14.2-12.71c0.4-0.62,0.77-1.37,1.36-1.74c2.79-1.77,3.57-4.55,4.02-7.54
	c0,0,0,0,0,0c2.04,0.57,2.14-2.11,3.76-2.24c3.11,0.45,5.7-1.54,8.66-1.86c1.43-0.15,2.05-1.47,1.78-2.84
	c-1.13-5.69,0.39-11.34,0.16-17.03c-0.15-3.83-1.74-7.64-0.59-11.46c0.94-3.13-0.39-4.35-3.18-4.23c-2.95,0.13-5.64-0.57-8.33-1.57
	c0-0.25-0.01-0.49-0.01-0.74c2.39-6.6-3.54-9.86-5.9-14.54c-0.17-0.34-1.21-0.53-1.72-0.37c-2.89,0.92-3.49-0.73-3.66-3.04
	c-0.16-2.06-1.21-3.1-3.41-3.1c-1.35,0-2.69-0.47-4.04-0.65c-5.29-0.7-5.76-1.26-4.88-6.7c0.33-2.04,0.04-3.8-2.27-3.76
	c-6.6,0.14-12.89-2.65-19.57-1.75c-2.14,0.29-3.61-0.8-2.97-3.44c0.32-1.32,0.32-2.71,0.53-4.06c0.2-1.28,0.62-2.52,2.12-2.74
	c6.56-0.93,13.12-0.19,19.68,0.03c0.43,0.01,1.14,0.4,1.21,0.72c0.89,4.09,4.95,5.02,7.46,7.46c2.11,2.06,4.98,4,7.88,3.22
	c2.21-0.6,3.92-1,5.95,0.08c1.14,0.61,2.6,0.7,3.6-0.09c2.65-2.13,5.2-1.73,7.95-0.28c1.58,0.83,3.37,0.83,5.13,0.76
	c4.24-0.17,8.46,0.1,12.66,0.75c0.87,0.14,1.98,0.06,2.18,1.06c0.28,1.39-1.03,1.09-1.78,1.21c-1.52,0.25-2.12,1.16-2.12,2.6
	c0,1.24,0.46,2.15,1.77,2.52c7.04,2.01,14.13,4.68,21.5,3.67c5.86-0.8,11.45,0.13,16.98,1.14c2.92,0.53,4.27,4.73,7.57,5.75
	c0.21,0.06,0.12,1.17,0.13,1.8c0.03,1.86,1.06,2.99,2.81,2.66c3.76-0.71,7.31,0.64,10.95,0.77c9.21,0.33,9.24,0.22,10.2,9.23
	c0.25,2.32,1.23,3.21,3.45,2.26c1.6-0.68,3.07-1.71,4.72-2.19c3.55-1.05,4.53,5.3,8.68,3.17c0.43-0.22,1,0.96,1.12,1.73
	c0.14,0.9,0.41,1.81,1.33,2.11c2.66,0.86,3.77,2.94,4.84,5.31c1.24,2.73,6.51,3.16,8.84,0.93c1.1,0.05,2.48-0.25,3,1
	c1.39,3.32,4.52,5.15,6.53,7.85c4.64,6.22,9.05,12.66,13.01,19.33c1.84,3.09,4.23,6.15,4.44,10.05c0,9.19-0.03,18.37,0.02,27.56
	c0.01,1.43-0.61,3.1,0.68,4.26c1.43,1.29,2.62-1.06,4.15-0.53c-0.31,3.07,0.81,4.3,3.88,3.19c1.04-0.37,2.17-0.5,3.26-0.74
	c0,22.99-0.05,45.98,0.07,68.97c0.01,2.57-0.51,3.07-3.07,3.07C368.74,569.42,242.57,569.43,116.41,569.43z"/>
<path class="st2" d="M497.9,497.46c-1.09,0.24-2.22,0.36-3.26,0.74c-3.07,1.11-4.19-0.12-3.88-3.19c-1.53-0.53-2.72,1.81-4.15,0.53
	c-1.29-1.16-0.67-2.82-0.68-4.26c-0.05-9.18-0.03-18.37-0.02-27.56c1.75,1.04,2.33,2.89,2.86,4.63c0.53,1.72,0.17,3.82,0.98,5.34
	c2.81,5.29,4.89,10.74,5.18,16.78c0.09,1.92,1.25,2.54,2.97,2.5C497.9,494.46,497.9,495.96,497.9,497.46z"/>
<path class="st3" d="M497.9,492.96c-1.72,0.04-2.88-0.58-2.97-2.5c-0.29-6.04-2.37-11.49-5.18-16.78c-0.81-1.52-0.45-3.61-0.98-5.34
	c-0.53-1.74-1.11-3.58-2.86-4.63c-0.21-3.9-2.6-6.96-4.44-10.05c-3.97-6.67-8.37-13.11-13.01-19.33c-2.01-2.7-5.14-4.53-6.53-7.85
	c-0.52-1.25-1.9-0.95-3-1c-1.65-1.7-2.15-3.95-2.92-6.08c12.25,9.85,21.19,22.33,28.31,36.16c5.37,10.42,9.57,21.31,12.1,32.8
	c0.2,0.92,0.39,1.94,1.48,2.35C497.9,491.46,497.9,492.21,497.9,492.96z"/>
<path class="st2" d="M456.01,419.41c0.77,2.13,1.27,4.38,2.92,6.08c-2.33,2.23-7.6,1.81-8.84-0.93c-1.07-2.37-2.19-4.45-4.84-5.31
	c-0.92-0.3-1.19-1.2-1.33-2.11c-0.12-0.77-0.7-1.95-1.12-1.73c-4.15,2.13-5.13-4.22-8.68-3.17c-1.64,0.49-3.12,1.51-4.72,2.19
	c-2.22,0.95-3.2,0.06-3.45-2.26c-0.95-9.01-0.99-8.9-10.2-9.23c-3.64-0.13-7.19-1.47-10.95-0.77c-1.75,0.33-2.78-0.8-2.81-2.66
	c-0.01-0.62,0.08-1.73-0.13-1.8c-3.31-1.01-4.65-5.21-7.57-5.75c-5.53-1.01-11.12-1.94-16.98-1.14c-7.36,1-14.45-1.66-21.5-3.67
	c-1.31-0.37-1.76-1.28-1.77-2.52c0-1.44,0.6-2.35,2.12-2.6c0.75-0.12,2.06,0.18,1.78-1.21c-0.21-1-1.32-0.93-2.18-1.06
	c-4.2-0.65-8.41-0.93-12.66-0.75c-1.76,0.07-3.55,0.08-5.13-0.76c-2.74-1.45-5.29-1.85-7.95,0.28c-0.99,0.79-2.45,0.7-3.6,0.09
	c-2.03-1.09-3.74-0.68-5.95-0.08c-2.9,0.78-5.77-1.15-7.88-3.22c-2.51-2.45-6.56-3.38-7.46-7.46c-0.07-0.32-0.78-0.7-1.21-0.72
	c-6.56-0.23-13.12-0.96-19.68-0.03c-1.5,0.21-1.92,1.46-2.12,2.74c-0.21,1.35-0.2,2.74-0.53,4.06c-0.65,2.64,0.83,3.73,2.97,3.44
	c6.68-0.9,12.98,1.88,19.57,1.75c2.31-0.05,2.6,1.71,2.27,3.76c-0.88,5.44-0.41,6,4.88,6.7c1.35,0.18,2.7,0.65,4.04,0.65
	c2.2-0.01,3.25,1.04,3.41,3.1c0.18,2.31,0.78,3.95,3.66,3.04c0.5-0.16,1.54,0.03,1.72,0.37c2.36,4.68,8.29,7.94,5.9,14.54
	c-2.7-2.66-5.55-5.19-8.08-8c-2.94-3.27-5.72-6.6-10.72-6.21l0.03,0.01c-0.13-1.44-1.13-1.59-2.27-1.52l0.02,0.02
	c-1.72-3.97-5.24-4.83-9.03-5.24c0,0,0.01,0.01,0.01,0.01c0.13-1.3-0.46-1.87-1.69-2.44c-7.21-3.32-14.24-7.08-21.59-10.05
	c-2.41-0.97-3.99-3.02-6.8-3.52c-6.05-1.08-10.68-5.86-16.73-7.21c-0.22-0.05-0.51-0.27-0.56-0.46c-0.95-3.54-4.02-3.98-6.86-5.14
	c-2.2-0.91-4.6-3.32-3.9-5.66c0.99-3.34,1.85-7.36,6.17-8.61c1.95-0.56,2.86-1.9,2.3-4c0.23-0.1,0.45-0.21,0.68-0.31
	c1.52,0.24,2.81-0.2,4.2-0.9c3.46-1.73,7.09-3.27,11-3.41c2.29-0.08,3.75-0.8,4.58-2.88c0.51-0.06,1.01-0.13,1.52-0.19
	c1.31,0.95,6.53,0.09,8.25-1.37c0.5-0.03,1.01-0.06,1.51-0.09c5.14,2.48,10.11-0.84,15.19-0.51c0.16,0.01,0.36-0.59,0.54-0.9
	c0.75-0.02,1.49-0.05,2.24-0.07c1.04,2.47,3.25,1.54,4.81,1.27c4.49-0.8,8.95-1.54,13.52-1.34c1.12,0.05,2.28,0.05,2.66-1.38
	c1-0.04,2-0.07,2.99-0.11c4.31,0.98,8.39,1.46,13.03,0.38c5.66-1.32,11.42-3.69,17.54-2.33c0.21,0.05,0.72-0.38,0.77-0.65
	c0.41-2.09,2-1.95,3.5-1.89c1.86,0.08,2.59-0.98,3.71-2.38c2.22-2.79,3.84-5.57,3.36-9.4c3,3.3,1.4,6.95,1.66,10.37
	c0,0,0.02-0.03,0.02-0.03c-2.31,1.95-6.31,1.94-6.84,5.94l0.01-0.01c-3.14-0.02-5.95,1.15-8.9,2.07
	c-7.44,2.32-15.07,4.04-22.95,4.08c-1.03,0-1.7,0.16-1.91,1.25c-0.5,0.02-1,0.04-1.5,0.06c-0.22-1.18-0.94-1.06-1.94-1
	c-7.17,0.44-14.31,1.64-21.53,0.99c-2.57-0.23-4.19,1.13-5.74,2.8c-0.51,0.07-1.02,0.13-1.52,0.2c-0.77-2.12-2.12-1.46-3.61-0.87
	c-2.28,0.89-4.58,2.05-6.95,2.28c-3.3,0.31-5.71,1.67-6.92,4.56c-1.19,2.82,0.86,8.93,2.85,10.53c1.18,0.95,2.51,0.35,3.82,0.97
	c8.5,4.02,17.69,5.97,26.83,7.89c1.73,0.36,3.79,1.55,5.73,0.2c0.5,0.07,1,0.13,1.5,0.2c0,1.6,0.69,2.48,2.37,2.75
	c6.12,0.99,12.24,1.99,18.33,3.16c2.64,0.51,5.43,1.01,7.75,2.24c4.2,2.23,8.55,2.26,13.03,2.01c0.21-0.14,0.37-0.1,0.5,0.12
	c2.84,2.31,6.52,2.76,9.68,4.42c2.74,1.44,6.25,0.83,8.89,1.91c6.6,2.7,13.74,3.63,20.2,6.64c5.13,2.4,10.25,4.85,16.08,4.95
	c0.25-0.08,0.46-0.02,0.61,0.2c0.27,1.61,1.28,2.27,2.73,3.07c2.52,1.4,5.65,1.81,7.68,3.4c3.31,2.6,6.81,3.43,10.69,3.79
	c0,0-0.04-0.02-0.04-0.02c0.2,1.9,1.66,1.55,2.88,1.63l0.03,0.02c1.51,5.05,6.8,5.8,10.22,8.66c1.65,1.38,3.51,3.71,6.39,3.23
	L456.01,419.41z M265.02,365.33c1.04-0.38,4.61,1.55,4.13-2.29c-0.45-3.55,3.72-6.75,0.5-10.35c-0.22-0.24,0.33-1.46,0.79-1.96
	c1.28-1.4,0.68-2.79,0.16-4.17c-1.44-3.83-4.53-5.17-10.27-4.13c-3.3,0.6-1.63,3.25-1.74,5.14c-0.03,0.48-0.32,0.95-0.37,1.44
	c-0.36,4.12-1.63,7.9,0.12,12.45C259.75,365.07,261.07,365.86,265.02,365.33z"/>
<path class="st3" d="M282.59,491.17c-0.91,2.51-2.57,4.33-5.27,4.64c-2.11,0.25-3.3,1.74-4.65,2.92c-3.82,3.33-9.35,3.63-12.86,7.72
	c-1.24,1.44-4.23,1.22-6.15,2.26c-7.08,3.82-14.4,7.18-21.39,11.19c-4.32,2.47-9.54,3.39-13.84,5.89
	c-7.91,4.6-16.83,6.87-24.74,11.22c-4.97,2.73-10.35,4.44-15.4,6.93c-4.76,2.35-9.57,4.71-14.31,7.17c-2.02,1.04-4.21,1.65-6.41,0.3
	c15.21-6.79,30.45-13.51,45.63-20.38c26.55-12,52.94-24.34,78.03-39.26C281.64,491.51,282.13,491.37,282.59,491.17z"/>
<path class="st3" d="M250.32,343.22c0.56,2.1-0.36,3.44-2.3,4c-4.33,1.25-5.18,5.28-6.17,8.61c-0.7,2.34,1.71,4.75,3.9,5.66
	c2.83,1.17,5.9,1.6,6.86,5.14c0.05,0.19,0.34,0.41,0.56,0.46c6.06,1.35,10.69,6.13,16.73,7.21c2.81,0.5,4.39,2.55,6.8,3.52
	c7.35,2.97,14.37,6.74,21.59,10.05c1.23,0.57,1.82,1.14,1.69,2.44c-15.69-7.29-31.4-14.53-47.06-21.89
	c-3.38-1.59-6.55-3.64-9.3-6.22c-4.25-3.98-4.61-7.14-1.29-11.83C244.44,347.41,247,344.87,250.32,343.22z"/>
<path class="st3" d="M316.51,367.06c-1.94,1.34-3.99,0.16-5.73-0.2c-9.14-1.92-18.32-3.87-26.83-7.89
	c-1.31-0.62-2.63-0.02-3.82-0.97c-1.99-1.6-4.04-7.71-2.85-10.53c1.22-2.88,3.63-4.24,6.92-4.56c2.37-0.23,4.68-1.39,6.95-2.28
	c1.5-0.59,2.84-1.25,3.61,0.87c-3.75,1.31-7.77,1.77-11.35,3.63c-2.49,1.3-4.99,2.73-5.05,5.92c-0.05,3.22,2.41,4.69,4.96,5.89
	c9.78,4.58,20.35,6.59,30.7,9.3C314.88,366.46,315.69,366.78,316.51,367.06z"/>
<path class="st3" d="M311.22,397.04c5-0.39,7.78,2.94,10.72,6.21c2.53,2.81,5.37,5.34,8.08,8c0,0.25,0,0.49,0.01,0.74
	c-0.05,1.17,0.25,2.21,1.15,3.01c4.04,3.6,4.29,8.65,4.77,13.43c0.79,7.89-0.91,15.43-4.43,22.54c-1.62,0.13-1.72,2.81-3.76,2.24
	c3.05-5.55,6.06-11.1,6.79-17.56c1.08-9.58-1.81-17.87-7.94-25.19C322.17,405.18,316.66,401.16,311.22,397.04z"/>
<path class="st3" d="M367.58,325.14c-0.26-3.41,1.34-7.07-1.66-10.37c0.48,3.83-1.14,6.6-3.36,9.4c-1.11,1.4-1.85,2.46-3.71,2.38
	c-1.5-0.06-3.09-0.21-3.5,1.89c-0.05,0.27-0.56,0.7-0.77,0.65c-6.11-1.36-11.88,1.01-17.54,2.33c-4.64,1.08-8.71,0.6-13.03-0.38
	c8.11-1.18,16.35-1.24,24.38-3.05c3.28-0.74,6.53-1.55,9.58-2.98c6.14-2.88,7.5-6.4,4.9-12.56c0.35-0.61,0.69-1.22,1.04-1.82
	C370.1,314.89,371.28,319.58,367.58,325.14z"/>
<path class="st3" d="M414.84,395.45c-5.84-0.1-10.95-2.55-16.08-4.95c-6.46-3.01-13.59-3.94-20.2-6.64
	c-2.64-1.08-6.15-0.47-8.89-1.91c-3.15-1.66-6.84-2.11-9.68-4.42c14.13,3.06,27.83,7.6,41.42,12.44
	C405.97,391.58,410.59,393.08,414.84,395.45z"/>
<path class="st3" d="M327.76,453.22c-0.45,2.98-1.23,5.77-4.02,7.54c-0.59,0.37-0.96,1.12-1.36,1.74
	c-3.57,5.54-8.78,9.24-14.2,12.71c-0.5,0.32-1.11,0.74-1.3,1.25c-1.49,4.03-5.27,3.64-8.42,4.46c5.43-4.5,11.23-8.53,16.42-13.34
	C319.61,463.16,323.74,458.25,327.76,453.22z"/>
<path class="st3" d="M359.5,377.42c-4.48,0.25-8.83,0.22-13.03-2.01c-2.33-1.24-5.11-1.74-7.75-2.24
	c-6.09-1.17-12.21-2.17-18.33-3.16c-1.68-0.27-2.38-1.14-2.37-2.75C331.89,370.44,345.85,373.31,359.5,377.42z"/>
<path class="st3" d="M327.01,338.44c0.2-1.09,0.87-1.24,1.91-1.25c7.88-0.04,15.51-1.75,22.95-4.08c2.95-0.92,5.76-2.09,8.9-2.07
	c-7.42,4.49-15.81,5.5-24.14,6.66C333.46,338.14,330.27,338.82,327.01,338.44z"/>
<path class="st3" d="M296.31,341.3c1.55-1.67,3.17-3.04,5.74-2.8c7.21,0.65,14.36-0.55,21.53-0.99c1-0.06,1.72-0.18,1.94,1
	c-8.02,0.74-16.04,1.48-24.05,2.23C299.74,340.9,298.03,341.11,296.31,341.3z"/>
<path class="st3" d="M436.55,405.92c-3.88-0.36-7.38-1.19-10.69-3.79c-2.03-1.6-5.17-2-7.68-3.4c-1.45-0.81-2.46-1.46-2.73-3.07
	C422.8,398.43,429.9,401.72,436.55,405.92z"/>
<path class="st3" d="M298.48,480.89c0.19,2.12,0.21,4.1-2.83,3.87c-0.35-0.03-1.02,0.12-1.03,0.24c-0.41,4.67-6.17,2.04-7.62,5.66
	c-0.62,1.55-2.88,0.72-4.45,0.55C287.86,487.77,293.17,484.33,298.48,480.89z"/>
<path class="st3" d="M456.03,419.42c-2.88,0.48-4.73-1.85-6.39-3.23c-3.42-2.85-8.71-3.6-10.22-8.66
	C445.53,410.69,451.1,414.61,456.03,419.42z"/>
<path class="st3" d="M270.79,335.72c-0.83,2.07-2.29,2.8-4.58,2.88c-3.91,0.14-7.54,1.67-11,3.41c-1.39,0.7-2.68,1.14-4.2,0.9
	C256.97,338.77,263.81,337.06,270.79,335.72z"/>
<path class="st3" d="M321.03,331.14c-0.38,1.43-1.54,1.43-2.66,1.38c-4.58-0.2-9.04,0.54-13.52,1.34c-1.56,0.28-3.77,1.2-4.81-1.27
	C307.01,331.86,314,331.16,321.03,331.14z"/>
<path class="st3" d="M297.79,332.66c-0.18,0.31-0.38,0.91-0.54,0.9c-5.08-0.33-10.04,2.99-15.19,0.51
	C287.26,333.04,292.5,332.63,297.79,332.66z"/>
<path class="st3" d="M299.97,390.31c3.79,0.41,7.31,1.28,9.03,5.24C305.99,393.81,302.98,392.06,299.97,390.31z"/>
<path class="st3" d="M360.76,331.05c0.53-4,4.53-4,6.84-5.94C366.14,328.04,363.69,329.82,360.76,331.05z"/>
<path class="st3" d="M280.55,334.17c-1.72,1.46-6.94,2.32-8.25,1.37C274.98,334.63,277.74,334.26,280.55,334.17z"/>
<path class="st4" d="M363.92,310.62c-0.35,0.61-0.69,1.22-1.04,1.82c-1.68-1.4-3.02-3.18-5.73-4.4
	C360.54,307.55,362.2,309.15,363.92,310.62z"/>
<path class="st3" d="M439.39,407.52c-1.22-0.08-2.69,0.27-2.88-1.63C437.7,406.03,438.61,406.66,439.39,407.52z"/>
<path class="st3" d="M308.97,395.54c1.14-0.07,2.14,0.07,2.27,1.52C310.31,396.82,309.56,396.31,308.97,395.54z"/>
<path class="st2" d="M331.51,450.98c3.52-7.11,5.22-14.64,4.43-22.54c-0.48-4.78-0.73-9.83-4.77-13.43c-0.9-0.8-1.2-1.84-1.15-3.01
	c2.69,0.99,5.38,1.7,8.33,1.57c2.78-0.12,4.12,1.1,3.18,4.23c-1.15,3.82,0.44,7.63,0.59,11.46c0.22,5.69-1.29,11.34-0.16,17.03
	c0.27,1.37-0.36,2.69-1.78,2.84C337.21,449.43,334.62,451.42,331.51,450.98z"/>
<path class="st1" d="M265.02,365.33c-3.95,0.54-5.27-0.25-6.66-3.88c-1.75-4.55-0.49-8.33-0.12-12.45c0.04-0.49,0.34-0.95,0.37-1.44
	c0.1-1.89-1.56-4.54,1.74-5.14c5.74-1.04,8.83,0.3,10.27,4.13c0.52,1.38,1.12,2.77-0.16,4.17c-0.47,0.51-1.01,1.72-0.79,1.96
	c3.21,3.61-0.95,6.81-0.5,10.35C269.63,366.88,266.06,364.94,265.02,365.33z"/>
</svg>
