<svg clip-rule="evenodd" fill-rule="evenodd" stroke-linejoin="round" stroke-miterlimit="2" version="1.1" viewBox="0 0 500 500" xml:space="preserve" xmlns="http://www.w3.org/2000/svg">
<defs>
<style>.a{fill:#fff;}.a,.b{fill-rule:evenodd;}.b{fill:#41bdf5;}.c{mask:url(#a);}</style>
<mask id="a" x="51.96" y="70" width="396.09" height="351" maskUnits="userSpaceOnUse">
<path class="a" d="m96 413.22v-133.64h-34.71a9.34 9.34 0 0 1-6.66-15.88l187-190.2a11.66 11.66 0 0 1 16.5-0.14l0.12 0.12 97.6 98.79v-18.27a7.77 7.77 0 0 1 7.78-7.77h32.41a7.77 7.77 0 0 1 7.77 7.77v67.14l41.57 42.62a9.33 9.33 0 0 1-6.68 15.85h-34.88v133.61a7.77 7.77 0 0 1-7.77 7.78h-292.23a7.78 7.78 0 0 1-7.82-7.78zm206.43-163.22a14.83 14.83 0 0 0 1.46-6.48 15 15 0 1 0-8.52 13.57l21.52 21.6v20.92l-27 27.07v-19.88a15 15 0 1 0-10 0v29.87l-25 25.08v-147.29l20.52-20.59a14.86 14.86 0 0 0 6.46 1.47 15 15 0 1 0-13.53-8.56l-18.41 18.52-18.45-18.52a15 15 0 1 0-7.06 7.09l20.52 20.59v105.16l-36-36.1v-28.87a15 15 0 1 0-10 0v18.84l-28-28.08v-27.86a15 15 0 1 0-10 0v32l30.9 31h-17.71a15 15 0 1 0 0 10h27.77l43 43.2v75.07l-23-23.06v-28.76a15 15 0 1 0-10 0v18.84l-33.44-33.56a15 15 0 1 0-7.06 7.09l33.43 33.56h-17.71a15 15 0 1 0 0 10h27.77l28 28.08h14.11l29-29.09h26.76a15 15 0 1 0 0-10h-30.9l-26.91 27v-32.99l32.05-32.16h51.74a15 15 0 1 0 0-10h-41.74l29.91-30v-25.12l21.51-21.6a15 15 0 1 0-7.06-7.09l-14.45 14.51v-45.92a15 15 0 1 0-10 0v45.91l-14.48-14.46zm-129.43 143.91a6 6 0 1 1 6-6 6 6 0 0 1-6 6zm44-45.13a6 6 0 1 1 6-6 6 6 0 0 1-6 6zm-52-7a6 6 0 1 1 6-6 6 6 0 0 1-6 5.98zm-5-50.14a6 6 0 1 1 6-6 6 6 0 0 1-6 5.98zm124.91 7a6 6 0 1 1 6-6 6 6 0 0 1-6 6zm67.95 46.13a6 6 0 1 1 6-6 6 6 0 0 1-6 6zm-26 48.14a6 6 0 1 1 6-6 6 6 0 0 1-5.98 6zm28-143.42a6 6 0 1 1 6-6 6 6 0 0 1-6 6zm-33-39.11a6 6 0 1 1 6-6 6 6 0 0 1-5.98 6zm-40-24.07a6 6 0 1 1 6-6 6 6 0 0 1-6 6zm-64 0a6 6 0 1 1 6-6 6 6 0 0 1-6 6zm-52 23.07a6 6 0 1 1 6-6 6 6 0 0 1-5.86 6zm38 37.11a6 6 0 1 1 6-6 6 6 0 0 1-5.86 6zm84.94 3a6 6 0 1 1 6-6 6 6 0 0 1-5.89 6z"/>
</mask>
</defs>
<path class="b" d="M0,0H500V500H0Z"/>
<g class="c">
<path class="a" d="M52,70H448V421H52Z"/>
</g>
</svg>
