<svg
  viewBox="2.882664203643799 1.1708096265792847 42.23468780517578 45.658714294433594"
  version="1.1"
  xmlns="http://www.w3.org/2000/svg"
  xmlns:xlink="http://www.w3.org/1999/xlink"
  xml:space="preserve"
  xmlns:serif="http://www.serif.com/"
  style="fill-rule:evenodd;clip-rule:evenodd;stroke-linejoin:round;stroke-miterlimit:2;"
>
    <g transform="matrix(1.52197,0,0,1.52197,-13.098,-12.5273)">
        <path
      d="M24.375,17.129C28.026,17.129 30.995,20.143 30.995,23.846C30.995,26.923 28.945,29.522 26.158,30.314L26.158,34.533L34.338,30.274C34.55,30.163 34.683,29.944 34.683,29.701L34.683,27.404L38.25,27.404L38.25,29.701C38.25,31.307 37.375,32.761 35.967,33.495L26.294,38.53C25.7,38.838 25.042,38.999 24.375,39C23.708,38.999 23.051,38.838 22.456,38.53L12.784,33.494C11.379,32.767 10.496,31.301 10.5,29.701L10.5,27.404L14.067,27.404L14.067,29.701C14.067,29.944 14.199,30.163 14.412,30.274L22.592,34.533L22.592,30.314C19.805,29.522 17.755,26.923 17.755,23.846C17.755,20.143 20.725,17.129 24.375,17.129ZM24.375,20.748C22.69,20.75 21.324,22.136 21.322,23.846C21.322,25.555 22.691,26.944 24.375,26.944C26.059,26.944 27.428,25.555 27.428,23.846C27.428,22.138 26.059,20.748 24.375,20.748ZM22.457,9.469C23.662,8.844 25.089,8.844 26.294,9.469L35.966,14.505C37.37,15.232 38.253,16.698 38.249,18.298L38.249,20.594L34.683,20.594L34.683,18.298C34.683,18.056 34.55,17.836 34.337,17.724L24.665,12.689C24.483,12.595 24.267,12.595 24.085,12.689L14.412,17.725C14.2,17.835 14.067,18.057 14.067,18.299L14.067,20.595L10.5,20.595L10.5,18.299C10.5,16.693 11.375,15.239 12.783,14.505L22.457,9.469Z"
      style="fill:rgb(86,154,239);"
    />
    </g>
</svg>
