<svg xmlns="http://www.w3.org/2000/svg" xmlns:xlink="http://www.w3.org/1999/xlink" version="1.1" id="Layer_1" x="0px" y="0px" viewBox="500 500" style="enable-background:new 0 0 500 500;zoom: 1;" xml:space="preserve"><style type="text/css">
        .st0{fill:#800000;}
</style><g id="XMLID_33_"><path d="M13.099998,4 h84.6 c3,0 5,0.8 6.8,2.5 c2,2 2.8,4 2.8,6.6 v87.6 c0,2.5 -0.8,4.5 -2.8,6.8 c-1.8,1.5 -3.8,2.5 -6.8,2.5 h-19.4 l-5.3,-4.8 c-1.8,-0.8 -2.5,-1.5 -2.3,-2.5 l3,-4.5 l5,1.3 c1.3,0.5 2.5,0.5 4.3,-0.8 c1.3,-0.5 2.5,-1.3 3.3,-2.5 l1.3,-1.8 l1.3,-1.8 c0.8,-0.3 1.3,-1.3 1.3,-1.5 c0.5,-2.3 0,-3.8 -0.8,-5 c-1,-1.8 -2.3,-3 -3.8,-3.5 c-1.3,-0.3 -2.3,-1.3 -2.3,-2.5 l1,-1.3 c0.8,-0.3 1.3,-0.8 1.3,-1.5 c0,-1.3 -0.5,-2.3 -1.3,-2.3 v-0.3 c1.3,-0.5 2,-1 1.5,-2.3 l-0.8,-2 c-0.5,-1.3 0,-1.8 0.5,-2 h5 c2,-0.5 3.3,-1.3 3.3,-2.5 c0,-1.3 -1.3,-3.5 -3.3,-6.8 l-3.8,-5 l-0.5,-1.8 l2,-1.5 c1.3,-1.3 1.8,-2.5 1.3,-3.5 l-0.8,-0.8 l-1.3,-0.8 l-0.5,-1.3 l-2.8,-8.8 c1.5,-1.3 2.5,-2.3 2.8,-2.5 c1,-2.3 1.3,-3.8 1,-5 c0.3,-2.5 0,-4.8 -1.3,-6.3 l-3,-2.5 l-3.8,-2.5 l-5.6,-1.8 l-3.3,-0.8 c-1.3,0.3 -2,0.3 -2.5,0 l-2,-0.5 h-3 l-6.8,1.3 h-7.6 l-3.8,0.8 c-0.3,0.5 -1.3,1 -2,1 l-2.5,0.8 l-1.8,1.3 l-1.5,1.8 c-1.3,0 -1.8,0.3 -2.3,1.3 l-0.8,0.8 l-1.3,0.8 l-2,2.3 l-3.5,2.5 l-3.8,4.5 l-4,11.4 l-0.5,3.8 c-0.8,1.8 -1.3,3.8 -1.3,5.8 l0.5,2.5 l0.8,1.8 l0.5,5.6 l2,6.3 l1.3,2 c0.5,1.8 0.8,3 2,3.8 l3.5,4.3 c1.3,0.8 1.5,2 2,4 l-3,1 l-4.5,9.1 l-3.3,5 l-2.3,3.5 l1,1.5 l0.3,1.3 l-4,4.8 h-1.8 c-2.5,0 -4.5,-1 -6.8,-2.5 c-2,-2.3 -2.8,-4.3 -2.8,-6.8 v-87.6 c0,-2.5 0.8,-4.5 2.8,-6.6 C8.5,4.800003 10.599998,4 13.099998,4 " id="XMLID_61_" class="st0"></path></g></svg>