  <svg xmlns="http://www.w3.org/2000/svg" viewBox="-0.10422134399414062 66.94343566894531 256.14385986328125 121.82907104492188">
    <g transform="matrix(5, 0, 0, 5, 127.949997, 127.860001)">
      <linearGradient id="SVGID_6" gradientUnits="objectBoundingBox" gradientTransform="matrix(1 0 0 1 25.61 13.13)" x1="0.00316112717" y1="0.496838873" x2="0.996838873" y2="0.496838873">
        <stop offset="0" style="stop-color:rgb(255,53,138);stop-opacity: 1"></stop>
        <stop offset="1" style="stop-color:rgb(254,165,135);stop-opacity: 1"></stop>
      </linearGradient>
      <path style="stroke: none; stroke-width: 1; stroke-dasharray: none; stroke-linecap: butt; stroke-dashoffset: 0; stroke-linejoin: miter; stroke-miterlimit: 4; fill: url(#SVGID_6); fill-rule: nonzero; opacity: 1;" transform=" translate(-25.61, -13.13)" d="M 30.0838452 13.921875 C 29.8926194 16.0835625 28.871071 18.086625 27.3563613 19.632375 C 26.4505548 20.557125 24.9610065 20.631375 24.0149419 19.7488125 C 22.2133935 18.0714375 21.0895226 15.6718125 21.1079742 13.014 C 21.1247484 10.5823125 22.0825548 8.3041875 23.8035871 6.5998125 C 24.3537806 6.0530625 24.9643613 5.5974375 25.6135226 5.2160625 L 25.6185548 5.21775 C 25.9037161 5.3848125 26.1804903 5.5670625 26.4488774 5.7661875 L 26.4505548 5.7661875 C 26.791071 6.017625 27.1164903 6.294375 27.4251355 6.5998125 C 29.3575226 8.5134375 30.3287484 11.1560625 30.0838452 13.921875 M 49.0604903 12.4048125 C 47.6464258 10.962 45.759329 10.1604375 43.7464258 10.1469375 C 42.9144258 10.135125 42.3776516 10.2380625 41.9146839 10.3561875 C 40.6767484 4.89375 35.9011355 0.9871875 30.2432 0.9466875 L 30.1526194 0.9466875 C 28.547329 0.9466875 27.0141677 1.269 25.6101677 1.846125 C 24.1575226 1.2571875 22.5891355 0.95175 20.9872 0.9466875 C 15.3292645 0.9871875 10.5502968 4.89375 9.31403871 10.3561875 C 8.85107097 10.2380625 8.29249032 10.135125 7.48397419 10.1469375 C 5.47107097 10.1604375 3.58397419 10.962 2.16990968 12.4048125 C 0.757522581 13.847625 -0.0140903226 15.757875 -0.000670967788 17.7845625 C 0.0194580645 20.5081875 1.45700645 23.004 3.95300645 24.418125 C 5.03997419 25.0340625 6.28629677 25.3125 7.53597419 25.3125 L 7.59468387 25.3125 L 15.6697806 25.30575 L 15.7603613 25.30575 C 16.6124903 25.30575 17.3019097 24.6105 17.3019097 23.75325 C 17.3019097 22.896 16.6124903 22.2024375 15.7603613 22.2024375 L 13.8028129 22.2024375 L 13.8028129 22.21425 L 7.5712 22.278375 C 6.3232 22.25475 5.25803871 21.8345625 4.40255484 21.009375 C 3.73829677 20.3664375 3.27029677 19.5226875 3.09752258 18.6114375 C 2.55739355 15.73425 4.73636129 13.199625 7.50578065 13.179375 L 7.9268129 13.179375 C 8.58939355 13.179375 9.20332903 13.4341875 9.77365161 13.7716875 C 10.2282323 14.04 10.7834581 14.0535 11.2497806 13.797 C 11.7144258 13.5455625 12.0096516 13.0798125 12.0398452 12.5499375 C 12.3132645 7.779375 16.2518452 4.0145625 21.0090065 3.979125 L 21.0777806 3.979125 C 21.4317161 3.979125 21.7822968 4.0078125 22.1295226 4.046625 C 19.6821677 6.2505 18.1188129 9.4348125 18.0936516 12.9920625 C 18.0684903 16.23375 19.3013935 19.288125 21.5625548 21.596625 C 21.7084903 21.745125 21.8611355 21.8818125 22.0121032 22.0168125 L 22.0137806 22.0185 C 22.0825548 22.0708125 25.3770065 24.56325 29.1042323 22.113 L 29.1126194 22.109625 C 29.2988129 21.940875 29.4900387 21.778875 29.6661677 21.596625 C 31.927329 19.2898125 33.1585548 16.23375 33.135071 12.9920625 C 33.1149419 9.750375 31.8367484 6.7145625 29.5420387 4.438125 C 29.4531355 4.350375 29.3592 4.269375 29.2669419 4.1866875 L 29.2652645 4.185 C 29.2099097 4.1394375 29.1579097 4.093875 29.1059097 4.046625 L 29.1176516 4.0449375 C 29.4581677 4.006125 29.8020387 3.979125 30.1509419 3.979125 L 30.2197161 3.979125 C 34.9768774 4.0145625 38.9154581 7.779375 39.1888774 12.551625 C 39.2140387 12.9988125 39.427071 13.39875 39.7726194 13.6636875 C 40.2020387 13.996125 41.0004903 14.0265 41.4735226 13.759875 C 42.1595871 13.375125 42.9647484 13.1439375 43.7246194 13.179375 C 44.9340387 13.1878125 46.0646194 13.6704375 46.9117161 14.5344375 C 47.7588129 15.4018125 48.2217806 16.5459375 48.2133935 17.762625 C 48.2050065 18.9793125 47.7269419 20.118375 46.8664258 20.9705625 C 46.0042323 21.82275 44.8837161 22.248 43.6592 22.278375 L 35.5606194 22.204125 C 34.7252645 22.1990625 34.0425548 22.879125 34.0425548 23.7211875 C 34.0425548 24.5548125 34.7118452 25.2315 35.5388129 25.23825 L 43.6357161 25.3125 L 43.6927484 25.3125 C 44.9407484 25.3125 46.187071 25.0340625 47.2757161 24.418125 C 49.7733935 23.0056875 51.2092645 20.5081875 51.2277161 17.7845625 C 51.2428129 15.757875 50.4728774 13.8493125 49.0604903 12.4048125" stroke-linecap="round"></path>
    </g>
  </svg>