<svg width="500" height="174" viewBox="0 0 500 174" xmlns="http://www.w3.org/2000/svg" xmlns:xlink="http://www.w3.org/1999/xlink">
    <path id="Path" fill="#161a35" stroke="none" d="M 241.300003 51.610001 C 237.630264 56.191322 234.577545 61.234367 232.220001 66.610001 L 237.710007 69.389999 C 240.640625 62.32531 245.02179 55.954567 250.570007 50.690002 C 256.12439 55.949303 260.5065 62.321434 263.429993 69.389999 L 268.920013 66.610001 C 266.566284 61.232384 263.513275 56.188858 259.839996 51.610001 C 262.467224 46.738388 266.795746 43.004303 272 41.119995 L 269.790009 37.889999 C 264.553284 40.023071 260.142395 43.785324 257.209991 48.620003 C 256.380005 47.75 255.529999 46.910004 254.650009 46.119995 L 250.570007 42.380005 L 246.490005 46.119995 C 245.610001 46.910004 244.76001 47.75 243.940002 48.620003 C 240.992905 43.784821 236.568176 40.02626 231.320007 37.899994 L 229.110001 41.119995 C 234.327866 42.993851 238.669235 46.729782 241.300003 51.610001 Z"/>
    <path id="path1" fill="#161a35" stroke="none" d="M 297.100006 53.739998 L 290.869995 56.879997 L 252.479996 76.450005 L 252.479996 76.450005 L 234 86.120003 L 225.220001 90.709999 L 225.889999 94.709999 C 226.460464 98.308266 227.289276 101.860779 228.369995 105.340004 C 229.470413 108.907631 230.837601 112.387451 232.459991 115.75 C 234.069626 119.097046 235.959717 122.301819 238.110001 125.330002 C 240.208527 128.295929 242.611603 131.034164 245.279999 133.5 L 249.279999 137.199997 L 253.339996 133.5 C 255.991119 131.026047 258.383453 128.288605 260.480011 125.330002 C 262.623444 122.299271 264.51001 119.094803 266.119995 115.75 C 267.73642 112.384842 269.103455 108.905487 270.209991 105.340004 C 271.299133 101.860397 272.141235 98.308228 272.730011 94.709999 L 273.399994 90.340004 L 259.199982 83.060005 L 252.589996 86.540001 L 266.809998 93.770004 C 265.716431 100.53511 263.641205 107.104355 260.649994 113.270004 C 259.191498 116.267929 257.489105 119.14093 255.559998 121.860001 C 253.722336 124.453506 251.628464 126.855606 249.309998 129.029999 C 246.991531 126.855606 244.897659 124.453506 243.059998 121.860001 C 241.137375 119.142365 239.444839 116.269073 238 113.270004 C 236.501358 110.194252 235.231247 107.012314 234.199997 103.75 C 233.170547 100.477997 232.378494 97.135994 231.830002 93.75 L 249.330002 84.830002 L 249.389999 84.830002 L 256 81.490005 L 259.119995 79.870003 L 295.679993 61.25 C 297.813843 64.035759 299.145203 67.352058 299.529999 70.840004 C 299.603821 71.504211 299.64386 72.171738 299.649994 72.840004 C 299.688721 83.180435 291.340393 91.595909 281 91.639999 C 279.654175 91.637711 278.312714 91.486794 277 91.190002 L 276.440002 95.400002 L 276.160004 97.400002 C 282.696686 98.718674 289.489044 97.352676 295.007751 93.609581 C 300.526489 89.866478 304.307678 84.060905 305.5 77.5 C 306.708954 70.853073 305.230774 63.998024 301.389984 58.440002 C 300.144135 56.714684 298.704742 55.137741 297.100006 53.739998 Z"/>
    <path id="path2" fill="#161a35" stroke="none" d="M 221.690002 91.190002 C 220.377197 91.486229 219.035797 91.637138 217.690002 91.639999 C 217.001907 91.638535 216.314331 91.601822 215.630005 91.530006 C 210.686417 90.98967 206.161011 88.504501 203.052322 84.622871 C 199.943649 80.741249 198.507217 75.782204 199.059998 70.840004 C 199.440277 67.350929 200.77211 64.033463 202.910004 61.25 L 239.479996 79.870003 L 246.199997 76.450005 L 207.75 56.879997 L 201.580002 53.739998 C 194.693375 59.543327 191.48381 68.61731 193.190002 77.459999 C 195.337265 89.274734 205.631729 97.859772 217.639999 97.850006 C 219.282104 97.846954 220.919937 97.682838 222.529999 97.360001 L 222.25 95.360001 Z"/>
</svg>
