<svg version="1.1" id="Layer_1" xmlns="http://www.w3.org/2000/svg" xmlns:xlink="http://www.w3.org/1999/xlink" viewBox="0 0 269.29998779296875 269.29998779296875" style="enable-background:new 0 0 269.2 269.2;" xml:space="preserve">
<style type="text/css">
	.st0{fill:#449BF7;}
	.st1{fill:#FFFFFF;}
</style>
<path class="st0" d="M93.9,0h81.5c27,0,40.5,0,55.1,4.6c7.8,2.9,15,7.4,20.9,13.3c5.9,5.9,10.4,13,13.3,20.9
	c4.6,14.5,4.6,28.1,4.6,55.1v81.5c0,27,0,40.5-4.6,55.1c-2.9,7.8-7.4,15-13.3,20.9c-5.9,5.9-13,10.4-20.9,13.3
	c-14.5,4.6-28.1,4.6-55.1,4.6H93.9c-27,0-40.5,0-55.1-4.6c-7.8-2.9-15-7.4-20.9-13.3s-10.4-13-13.3-20.9C0,215.9,0,202.4,0,175.4
	V93.9c0-27,0-40.5,4.6-55.1c2.9-7.8,7.4-15,13.3-20.9s13-10.4,20.9-13.3C53.3,0,66.8,0,93.9,0z"></path>
<path class="st1" d="M79.3,116.8c-5,0-9.1-4.2-9.1-9.3c0-5.1,4.1-9.3,9.1-9.3h1.4v5.4h-0.5c-2,0-3.6,1.7-3.6,3.8s1.7,3.8,3.6,3.8
	h0.5v5.6L79.3,116.8L79.3,116.8z M80.8,158c0.7,35.8,29.3,64.7,64.5,64.7c35.6,0,64.5-29.6,64.5-66c0-35.5-27.2-64.5-61.5-66l-0.2,0
	h-14h-20.5v-8.5V50.7c0-9.3-7.3-16.8-16.4-16.8s-16.4,7.5-16.4,16.8v31.6v8.4h-1.4c-9.1,0-16.4,7.5-16.4,16.8s7.3,16.8,16.4,16.8
	h1.4V158z M113.6,157.4v-33h30.6h0.6h0.4c17.4,0,31.6,14.5,31.6,32.4s-14.2,32.4-31.6,32.4c-17,0-31-13.8-31.6-31.1L113.6,157.4z
	 M148.1,111.2c23.2,1.5,41.6,21.4,41.6,45.5c0,25.1-19.9,45.5-44.4,45.5c-23.9,0-43.4-19.4-44.4-43.6l0-0.5V51
	c0-2.1-1.7-3.8-3.6-3.8c-2,0-3.6,1.7-3.6,3.8v107.2l0,0.4c1,28.4,23.7,51.1,51.7,51.1c28.6,0,51.8-23.7,51.8-53
	c0-29.3-23.2-53-51.8-53c-1,0-2,0.1-3,0.1h-28.7v-5.6h16.4h17.1c30.6,1.1,55.2,26.8,55.2,58.5c0,32.3-25.6,58.5-57.2,58.5
	c-31.1,0-56.5-25.5-57.2-57.2v-51.2V50.7c0-5.1,4.1-9.3,9.1-9.3s9.1,4.2,9.1,9.3v56.1v51.2c0.7,21.4,17.9,38.6,38.9,38.6
	c21.5,0,38.9-17.9,38.9-39.9s-17.4-39.9-38.9-39.9h-0.4H134h-20.3v-5.6h33.8L148.1,111.2z"></path>
</svg>