<svg version="1.1" id="Layer_1" xmlns="http://www.w3.org/2000/svg" xmlns:xlink="http://www.w3.org/1999/xlink" x="0px" y="0px"
	 viewBox="0 0 30 34.7" style="enable-background:new 0 0 30 34.7;" xml:space="preserve">
<style type="text/css">
	.st0{fill:#D4D4D5;}
	.st1{fill:#ED7C37;}
	.st2{fill:#B7B7B8;}
	.st3{fill:#DE5126;}
	.st4{fill:#C2C2C3;}
	.st5{fill:#A2A2A2;}
	.st6{fill:#929293;}
	.st7{fill:#F89B33;}
</style>
<title>ionq-logo-dark</title>
<polygon class="st0" points="15,4.2 26.4,10.8 30,8.7 15,0 0,8.7 3.6,10.8 "/>
<polygon class="st1" points="3.6,10.8 3.6,10.8 3.6,23.9 4.8,23.2 7.3,21.8 7.3,12.9 15,8.4 15,5.5 15,4.2 "/>
<polygon class="st2" points="26.4,10.8 26.4,23.9 25.2,23.2 30,26 30,8.7 "/>
<polygon class="st3" points="26.4,10.8 15,4.2 15,5.5 15,8.4 22.7,12.9 22.7,21.8 25.2,23.2 26.4,23.9 "/>
<polygon class="st4" points="26.4,28.1 26.4,28.1 26.4,28.1 "/>
<path class="st5" d="M26.4,28.1L22.7,26L26.4,28.1z"/>
<polygon class="st6" points="22.7,26 22.7,26 22.7,30.2 22.7,30.2 26.4,32.3 26.4,28.1 26.4,28.1 "/>
<polygon class="st6" points="4.8,23.2 4.8,23.2 3.6,23.9 3.6,10.8 0,8.7 0,26 15,34.7 15,30.5 3.6,23.9 "/>
<polygon class="st2" points="15,34.7 22.7,30.2 22.7,26 15,30.5 "/>
<polygon class="st4" points="22.7,26 22.7,26 22.7,26 "/>
<polygon class="st7" points="26.4,23.9 25.3,23.3 22.7,21.8 15,26.3 7.3,21.8 4.8,23.2 3.6,23.9 15,30.5 22.7,26 22.7,26 22.7,26 
	26.4,28.1 26.4,28.1 30,26 "/>
<polygon class="st2" points="30,26 26.4,28.1 26.4,32.3 30,30.2 "/>
</svg>
