<svg viewBox="0 0 1024 1024" fill="none" xmlns="http://www.w3.org/2000/svg">
<rect width="1024" height="1024" rx="100" fill="white"/>
<path d="M225.787 624.815C205.052 624.815 186.796 620.758 171.02 612.644C155.469 604.531 143.411 593.487 134.847 579.514C126.282 565.315 122 549.2 122 531.17C122 512.914 126.169 496.8 134.508 482.826C143.073 468.628 154.68 457.584 169.329 449.696C183.979 441.582 200.544 437.525 219.025 437.525C236.83 437.525 252.832 441.357 267.031 449.02C281.455 456.457 292.837 467.275 301.176 481.474C309.515 495.448 313.684 512.238 313.684 531.846C313.684 533.875 313.571 536.241 313.346 538.946C313.121 541.425 312.895 543.791 312.67 546.045H164.935V515.281H284.948L264.664 524.409C264.664 514.943 262.749 506.716 258.917 499.73C255.086 492.743 249.789 487.334 243.028 483.503C236.267 479.446 228.378 477.417 219.363 477.417C210.348 477.417 202.347 479.446 195.361 483.503C188.599 487.334 183.303 492.856 179.471 500.068C175.64 507.055 173.724 515.394 173.724 525.085V533.198C173.724 543.115 175.865 551.905 180.148 559.568C184.655 567.005 190.853 572.752 198.741 576.809C206.855 580.64 216.321 582.556 227.139 582.556C236.83 582.556 245.282 581.091 252.494 578.161C259.931 575.231 266.693 570.837 272.778 564.977L300.838 595.403C292.499 604.869 282.018 612.193 269.397 617.377C256.776 622.335 242.239 624.815 225.787 624.815Z" fill="black"/>
<path d="M459.343 437.525C473.768 437.525 486.614 440.455 497.883 446.315C509.377 451.95 518.392 460.739 524.928 472.684C531.464 484.404 534.732 499.504 534.732 517.985V622.11H481.994V526.099C481.994 511.449 478.726 500.631 472.19 493.645C465.879 486.658 456.864 483.164 445.145 483.164C436.806 483.164 429.255 484.968 422.494 488.574C415.958 491.954 410.774 497.251 406.943 504.463C403.337 511.675 401.534 520.915 401.534 532.184V622.11H348.795V440.23H399.167V490.602L389.702 475.389C396.238 463.219 405.591 453.865 417.761 447.329C429.932 440.793 443.792 437.525 459.343 437.525Z" fill="black"/>
<path d="M656.912 624.815C635.501 624.815 618.823 619.406 606.878 608.587C594.933 597.544 588.96 581.204 588.96 559.568V400H641.699V558.892C641.699 566.554 643.727 572.527 647.784 576.809C651.841 580.866 657.363 582.894 664.349 582.894C672.688 582.894 679.788 580.641 685.648 576.133L699.846 613.32C694.437 617.152 687.901 620.082 680.239 622.11C672.801 623.913 665.026 624.815 656.912 624.815ZM560.901 484.855V444.287H687V484.855H560.901Z" fill="black"/>
<path d="M814.103 624.815C793.368 624.815 775.112 620.758 759.336 612.644C743.785 604.531 731.727 593.487 723.163 579.514C714.598 565.315 710.316 549.2 710.316 531.17C710.316 512.914 714.485 496.8 722.824 482.826C731.389 468.628 742.996 457.584 757.645 449.696C772.295 441.582 788.86 437.525 807.341 437.525C825.146 437.525 841.148 441.357 855.347 449.02C869.771 456.457 881.153 467.275 889.492 481.474C897.831 495.448 902 512.238 902 531.846C902 533.875 901.887 536.241 901.662 538.946C901.437 541.425 901.211 543.791 900.986 546.045H753.25V515.281H873.264L852.98 524.409C852.98 514.943 851.065 506.716 847.233 499.73C843.402 492.743 838.105 487.334 831.344 483.503C824.583 479.446 816.694 477.417 807.679 477.417C798.664 477.417 790.663 479.446 783.677 483.503C776.915 487.334 771.619 492.856 767.787 500.068C763.956 507.055 762.04 515.394 762.04 525.085V533.198C762.04 543.115 764.181 551.905 768.464 559.568C772.971 567.005 779.169 572.752 787.057 576.809C795.171 580.64 804.637 582.556 815.455 582.556C825.146 582.556 833.598 581.091 840.81 578.161C848.247 575.231 855.009 570.837 861.094 564.977L889.153 595.403C880.814 604.869 870.334 612.193 857.713 617.377C845.092 622.335 830.555 624.815 814.103 624.815Z" fill="black"/>
</svg>
