<svg viewBox="0 0 29 34" version="1.1" xmlns="http://www.w3.org/2000/svg" xmlns:xlink="http://www.w3.org/1999/xlink" xml:space="preserve" xmlns:serif="http://www.serif.com/" style="fill-rule:evenodd;clip-rule:evenodd;stroke-linejoin:round;stroke-miterlimit:2;"><path id="logo" d="M5.551,2.938c-1.516,0.124 -6.291,4.98 -5.453,6.652c2.946,5.876 6.639,13.901 7.97,21.183c0.355,3.558 2.939,3.935 8.269,1.169c-0.298,-1.947 -1.574,-7.241 -1.707,-7.94c3.619,3.096 7.526,6.56 8.299,6.022c2.43,-0.401 3.795,-1.481 5.184,-2.547c-2.759,-8.021 -5.061,-18.544 -5.693,-23.76c-0.154,-1.273 -11.393,-6.904 -9.348,-1.228l1.468,9.498c-2.353,-1.819 -4.324,-4.545 -6.561,-6.997c-0.719,-0.788 -1.393,-2.137 -2.428,-2.052Z" style="fill:url(#_Linear1);"/><defs><linearGradient id="_Linear1" x1="0" y1="0" x2="1" y2="0" gradientUnits="userSpaceOnUse" gradientTransform="matrix(-5.94793,39.3533,-39.3533,-5.94793,13.6723,0.939051)"><stop offset="0" style="stop-color:#f6d900;stop-opacity:1"/><stop offset="0.49" style="stop-color:#e5641a;stop-opacity:1"/><stop offset="1" style="stop-color:#f3c52b;stop-opacity:1"/></linearGradient></defs></svg>
