<svg clip-rule="evenodd" fill-rule="evenodd" stroke-linejoin="round" stroke-miterlimit="2" version="1.1" viewBox=".12738 12.875 499.87 474.25" xml:space="preserve" xmlns="http://www.w3.org/2000/svg" xmlns:serif="http://www.serif.com/">
    <g transform="matrix(10.047 0 0 10.047 -1.1888 9.0266)">
        
            <path d="m17.798 18.429c-1.572 1.125-5.359 4.626-17.667 3.23v-9.529c4.616 1.352 6.439 1.352 9.058 1.352 2.618 0 9.931-0.79 14.294-5.349-0.608 2.433-1.277 6.569-5.685 10.296z" fill="#bc2845"/>
            <path d="m23.834 0.383c0 0.54 1.085 9.721-3.628 15.54-4.712 5.82-10.027 6.013-15.53 6.013 4.163-2.389 7.409-6.435 8.469-9.314 1.059-2.879 0.621-8.569 0.396-12.239h10.293z" fill="#dd586b"/>
        
        <g transform="matrix(-1 7.6571e-16 -7.6571e-16 -1 50 47.968)">
            <path d="m17.798 18.429c-1.572 1.125-5.359 4.626-17.667 3.23v-9.529c4.616 1.352 6.439 1.352 9.058 1.352 2.618 0 9.931-0.79 14.294-5.349-0.608 2.433-1.277 6.569-5.685 10.296z" fill="#1bb2a3" serif:id="Path-3"/>
            <path d="m23.834 0.383c0 0.54 1.085 9.721-3.628 15.54-4.712 5.82-10.027 6.013-15.53 6.013 4.163-2.389 7.409-6.435 8.469-9.314 1.059-2.879 0.621-8.569 0.396-12.239h10.293z" fill="#5bd8cf" serif:id="Path-2"/>
        </g>
        <g transform="matrix(1 0 0 -1 0 47.968)">
            <path d="m22.975 0.383c0.245 3.035-0.025 10.692-2.511 14.347-2.485 3.656-4.758 7.204-13.601 7.743 4.163-2.39 4.944-6.745 6.004-9.624 1.059-2.879 0.794-8.796 0.568-12.466h9.54z" fill="#fc8f00" serif:id="Path-2"/>
            <path d="m17.798 18.429c-1.69 1.366-5.668 5.424-17.667 4.202v-10.143c4.88 0.729 6.056 0.977 9.577 0.977s8.587-1.809 13.206-7.508c-0.438 3.774-1.031 8.957-5.116 12.472z" fill="#ffc776" serif:id="Path-3"/>
        </g>
        <g transform="matrix(-1,0,0,1,50,0)">
            <path d="m23.021 0.383c0 0.54 0.878 10.798-3.834 16.617-4.713 5.82-10.574 5.806-16.078 5.806 4.163-2.39 8.645-6.189 9.774-9.825 1.129-3.637 0.728-8.549 0.464-12.598h9.674z" fill="#0063ad" serif:id="Path-2"/>
            <path d="m17.023 19.253c-2.326 1.722-6.618 4.942-16.907 3.35v-10.055c3.184 0.656 5.641 0.934 8.26 0.934 2.618 0 9.409 0.752 14.582-7.673-0.53 5.271-1.527 9.717-5.935 13.444z" fill="#499bce" serif:id="Path-3"/>
        </g>
    </g>
</svg>
