<svg xmlns="http://www.w3.org/2000/svg" xmlns:xlink="http://www.w3.org/1999/xlink" viewBox="0 0 112 112">
    <defs>
        <path id="a" d="M0 .267h111.628v80.134H0Z"/>
        <path id="c" d="M0 105.733h111.628V1H0Z"/>
    </defs>
    <g fill="none" fill-rule="evenodd" transform="translate(-1.5e-7 2.4561578) scale(1.00333)">
        <g fill="#fff" transform="translate(0 .733)">
            <mask id="b">
                <use xlink:href="#a"/>
            </mask>
            <path d="M46.15.467c-1.025.303-4.392 1.5-4.74 4.214a3.4 3.4 0 0 0-.027.439c0 .076.01.157.014.236l-1.106-.035-2.765-.057-.998.176c-1.187.192-4.39.716-4.454 4.006l-.047 1.086c0 1.955.399 4.09 1.125 6.012.214.573.54 1.014.779 1.335l.185.267c.418 1.641 1.114 2.991 1.944 4.181-2.244.27-4.51.635-6.743 1.306l.45-.085c-1.218.092-2.386.74-3.57 1.982l-.11.114-.09.13a6.68 6.68 0 0 0-.872 1.665c-4.615 1.367-8.413 2.535-11.495 3.544-2.717.894-8.126 3.197-8.355 3.294l-.148.063-.04.027-.081.033C.869 36.085 0 38.935 0 41.028c0 3.287 2.553 4.201 3.78 4.64.277.098.564.201.71.284 1.654.905 3.242.592 4.4.364l.786-.136c.568-.07 1.194-.255 1.816-.451.574 1.202 1.624 2.313 3.27 2.632 1.409.275 2.349.015 3.104-.257.043.423.129.844.303 1.255.29.687.777 1.317 1.38 1.853-.998.781-2.413 2.187-2.413 3.893 0 .153.01.309.035.467l.017.117c.13.91.474 3.332 3.787 4.689 1.275.522 2.75.669 4.402.458.146.499.364.97.654 1.398-.912.45-1.117.605-1.257.718l-.046.038c-.608.518-1.492 1.329-2.16 2.369-.276.415-1.11 1.807-1.11 3.393 0 .286.027.578.09.873a3.616 3.616 0 0 0 1.645 2.352c1.204.743 2.52.82 3.534.723.166 1.069.948 2.288 3.369 2.997l.154.046c.779.238 1.829.196 4.04.008l.89-.068c.268-.01.718-.076 1.243-.17 0 1.087.32 2.053.929 2.774l.044.05c1.37 1.521 3.436 1.933 4.26 2.041.92.127 2.09-.263 4.363-1.19l.556-.222a9.83 9.83 0 0 1 .712-.214c.087.118.15.241.258.354.49.505 1.367 1.096 2.76 1.047 1.27-.033 3.415-.511 3.654-.565l.129-.029.122-.044c2.649-.954 11.38-4.119 12.547-4.746l.044-.025c.968-.488 8.716-2.96 12.023-4.016l2.38-.762c3.486-1.097 6.687-3.574 7.61-4.534l.033-.037c.773-.842 1.275-1.998 1.497-3.436a2.92 2.92 0 0 0 .035-.454c0-.755-.294-1.47-.686-2.147 1.812-.809 3.58-1.6 3.63-1.623.65-.239 2.32-.987 3.019-2.53.164-.361.237-.716.259-1.061 1.933-.497 4.066-1.043 4.066-1.043l.066-.016c1.225-.291 4.483-1.063 7.515-2.566 2.835-1.372 3.38-2.997 3.38-4.369 0-.187-.01-.366-.025-.542l-.01-.125-.01.158c.013-.101.018-.204.018-.308 0-1.423-1.177-2.941-2.256-3.734l-.03-.105c-.684-.824-1.706-.877-2.197-.903l.054.003-.602-.098c-.78-.165-1.63-.29-3.442-.25-.042-.547-.128-1.07-.298-1.558-1.073-3.221-3.915-5.52-7.234-5.835-2.08-.261-3.69-.168-5.421-.021 1.488-1.74 3.017-3.707 3.418-4.882.349-.99.99-5.513 1.02-5.934l.005-.063.009-.581c0-1.247-.125-2.094-.23-2.778a464.91 464.91 0 0 0-.144-1.298c-.098-3-.6-5.662-.7-6.171l-1.004-4.98-2.996 4.083a51.484 51.484 0 0 1-1.082 1.45c-.596.46-3.356 2.369-5.444 3.677-.467-1.883-1.584-3.538-3.352-4.806l-.08-.057-.083-.048c-2.224-1.301-4.67-2.51-7.475-2.549-2.811-.095-5.428.477-7.78 1.704-1.428.772-2.485 1.898-3.417 2.892-.587.623-1.13 1.2-1.705 1.656l.11-.082c-.508.35-.981.722-1.437 1.1-.353-1.853-.764-3.931-1.678-5.954-1.111-2.376-2.593-4.426-4.67-6.474C50.453 1.701 48.6.905 47.586.524L47.463.48l-.634-.213-.68.2z"
                  mask="url(#b)"/>
        </g>
        <path fill="#fff"
              d="M20.056 55.29c-.12-.756.876-1.845 1.902-2.568 1.057-.725 2.748-1.48 3.776-1.842 1.026-.333 1.75-.575 2.324-.756 3.323-1.147 10.813-3.774 11.114-3.894.332-.153 17.334-5.708 18.785-6.013 1.417-.3 7.518-3.017 8.155-3.562.42-.362 12.772-1.782 14.374-.996 1.568.785-.514 6.162 2.356 5.375 2.835-.783 11.685-2.173 13.254.363 1.571 2.538.304 3.807-.813 4.288-1.089.455-21.653 5.587-21.653 5.587s-29.294 7.912-30.41 8.092c-.877.154-6.916 2.026-9.213 2.778-.632.213.091-.028-1.116.334-1.54.451-1.269.211-1.964.09-1.539-.3-2.718-1.36-2.839-2.806-.12-1.42 2.266-2.236 2.085-2.236-.182 0-4.499 2.206-7.61.937-2.326-.937-2.387-2.387-2.507-3.172"/>
        <path fill="#0066b2"
              d="M30.844 63.097s15.644-4.86 17.335-5.496c1.69-.634 20.05-5.68 21.32-5.95 1.238-.272 14.164-4.258 15.64-4.651 1.48-.392 11.238-2.99 11.238-2.99s3.11-.752 6.25-.904c3.14-.121 3.23.242 4.379.33 1.148.063.453.304.817.425.33.09 1.75 1.54 1.66 2.235-.092.695.693 1.872-2.175 3.26-2.868 1.42-5.98 2.145-7.127 2.417-1.146.27-6.705 1.72-6.705 1.72s1.36.635.939 1.572c-.424.935-1.904 1.448-1.904 1.448l-7.036 3.144s1.752.51 1.992.873c.243.364.876 1.27.784 1.84-.09.577-.302 1.605-.965 2.328-.666.695-3.563 2.99-6.734 3.988-3.17 1.025-13.682 4.316-14.798 4.95-1.12.604-12.261 4.622-12.261 4.622s-2.143.483-3.262.512c-1.75.06-1.63-1.811-1.63-1.811s-2.264.544-2.84.787c-.573.21-3.17 1.358-3.833 1.265-.696-.09-2.115-.421-2.96-1.358-.816-.966-.27-2.898.03-3.111.272-.213.905-1.206.905-1.206s-3.985.935-4.801.965c-.785.028-3.533.364-4.23.153-.692-.214-2.322-.575-2.021-1.842.302-1.302 1.117-2.265 1.993-2.627.876-.366-3.171 1.114-3.171 1.114s-1.933.696-3.351-.18c-1.39-.877-.514-2.871.03-3.684.542-.846 1.328-1.541 1.75-1.902.453-.364 4.742-2.236 4.742-2.236"/>
        <path fill="#ec1c24"
              d="M6.105 36.957s5.525-2.354 8.183-3.23c6.099-1.994 13.62-4.168 16.097-4.893 2.354-.724 9.633-2.93 15.793-4.802 4.894-1.479 9.12-2.748 9.574-2.868 1.056-.24 22.195-6.886 22.892-6.07.693.784 2.869 2.747 2.748 5.588-.121 2.868-5.375 9.843-6.281 10.325-.938.455-16.58 3.536-16.58 3.536s8.093-3.202 8.454.12c.335 3.321-6.282 4.5-6.613 4.68-.331.212-13.136 4.228-22.74 7.308-6.372 2.052-10.48 3.623-10.871 3.685-1.026.09-2.81 1.48-4.592.784-1.206-.482-2.745-1.84-2.052-3.53.695-1.725 2.175-2.056 2.175-2.056s-.968.331-3.02.696c-2.054.331-2.417 1.115-4.108.784-1.721-.33-2.176-2.386-2.084-2.96.119-.573-2.415.604-3.655.757-1.268.151-2.627.723-3.895.028-1.237-.695-3.412-.695-3.412-3.079 0-3.686 3.716-4.593 3.987-4.803"/>
        <path fill="#00a551"
              d="m81.84 20.417-.227-.946c-.2-.775-.444-1.738-.464-2.149-.196-1.719-1.104-3.172-2.705-4.318-1.98-1.158-4.123-2.23-6.441-2.26-2.456-.09-4.731.403-6.765 1.464-1.1.595-1.992 1.545-2.856 2.466-.606.643-1.231 1.31-1.934 1.866-.85.585-1.637 1.273-2.4 1.935l-1.346 1.144c-.03.01-.184.076-.231.055l-.031-.055c-.274-1.034-.477-2.097-.673-3.127-.356-1.874-.723-3.812-1.566-5.675-.995-2.13-2.346-3.992-4.252-5.867-.855-.882-3.033-1.683-3.124-1.718l-.038-.013-.037.011c-.126.037-3.043.91-3.24 2.453-.1.78.513 1.574 1.823 2.357a.467.467 0 0 0 .057.05c-.361.24-3.354.14-5.17.08l-2.531-.053-.791.141c-1.257.205-2.684.433-2.71 1.971-.03.337-.044.682-.044 1.037 0 1.696.347 3.562.989 5.261.112.3.31.57.5.827.188.258.368.5.466.771.644 2.814 2.317 4.648 4.09 6.593 0 0 .02.024.03.033l-.213.02c-3.342.312-6.801.637-10.08 1.622-.663.048-1.391.485-2.196 1.331-.522.744-.757 1.368-.757 1.988-.027.18-.04.362-.04.546 0 1.036.4 2.101 1.238 3.296 1.103 1.735 2.328 3.137 3.739 4.284 1.79 1.348 3.748 2.287 6.352 3.042 1.15.355 2.089-.304 3-.942.433-.304.886-.59 1.352-.79-.676 1.215-1.2 2.711-1.2 4.16 0 1.098.296 2.161 1.05 3.031.848.913 2.062 1.37 3.134 1.727.635.117 1.239.105 1.876.088l1.203.007c1.339-.084 2.726-.8 3.546-1.826 2.38-3.527 3.579-7.284 3.579-11.194 0-.45-.017-.906-.05-1.36l.134-.298.09-.19c.15.137 1.087.98 1.087.98 1.164.912 1.219 1.031 1.875 2.482l1.326 2.795c.335.655.49 1.607.49 2.763 0 5.245-3.23 14.68-7.78 19.72-1.011 1.121-1.51 1.926-1.51 2.436 0 .132.033.243.097.336.532.766 3.046-.2 3.33-.314l.036-.013.02-.034c.064-.102 6.407-10.167 8.44-18.185.335-1.319.542-2.806.542-4.339 0-3.146-.866-6.484-3.26-8.942l-.493-.41a3.95 3.95 0 0 0-.68-.543c.057-.112.16-.33.215-.447 1.186.311 2.279.794 3.334 1.266 1.27.568 2.468 1.104 3.828 1.362.479.12.819.316 1.147.508.497.29.965.56 1.84.523l1.352-.144c.609-.09 1.01-.15 1.43.042.152.07.359.033.628-.114 1.167-.635 3.292-3.24 3.468-4.479.008-.07.008-.152.008-.24 0-1.055-.4-3.3-1.591-4.22-.597-.468-1.83-1.092-2.917-1.64-.865-.436-1.913-.969-2.105-1.183 3.194-1.735 6.073-.399 6.103-.386 2.994 1.93 3.968 2.555 4.312 2.728.016.011.006.036.023.044 0 0 .014-.02.019-.024.132.063.158.047.18.016l.069-.106-.137-.09c-.11-.07.112-.534.304-.943.455-.958 1.14-2.402.835-4.08m-6.687 5.662z"/>
        <path fill="#fd0"
              d="M100.832 40.119c-.82-2.458-2.957-4.195-5.448-4.428-2.147-.275-3.708-.138-5.686.038l-1.34.114c-.328 0-1.782.583-3.804 1.407-.478.196-.936.382-1.326.536 1.105-.91 2.863-2.742 4.352-4.465 1.72-1.927 3.676-4.343 4.01-5.322.25-.708.88-4.958.913-5.406.004-.17.007-.333.007-.487 0-1.11-.111-1.846-.212-2.508l-.154-1.4c-.093-3.112-.664-5.908-.67-5.938l-.054-.266-.161.22c-.011.015-1.027 1.419-1.29 1.713-.267.267-4.428 3.15-6.768 4.536-3.698 2.208-5.37 5.07-5.918 6.01l-.132.22c-.342.564-.737 1.438-1.116 2.283-.356.79-.69 1.538-.936 1.913-.345.51-.756 1.646-1.055 2.478-.133.366-.26.714-.307.786-.243.259-.34.792-.434 1.305a3.955 3.955 0 0 1-.198.769 1.731 1.731 0 0 1-.116-.266c-.01-.04-.327-1.106-2.333-4.822-1.856-3.46-2.14-3.437-5.61-3.13l-1.302.108c-3.832.28-6.672 2.257-8.197 3.319l-.702.474c-.79.485-2.335 2.665-4.121 5.189l-2.022 2.824.27-.028c.473-.055.914.01 1.385.078.49.07 1 .13 1.54.054-.03.146-.063.293-.063.44 0 .737.384 1.468 1.094 2.029.887.886 1.743 1.41 2.85 1.742.138.006.22.19.295.374.085.197.172.402.336.515l.062.044.08-.038c.139-.077.199-.4.29-3.51.019-.618.037-1.26.054-1.338.668-2.113 2.317-3.458 4.515-3.681.815-.088 3.152.206 3.494 1.925.01.03.464 1.047.734 1.323.003.014.762 2.19.762 2.19.466 1.388.836 2.483 1.655 4.186.11.202.123.416.135.638l.036.357c.036.18.054.372.054.569 0 .69-.215 1.47-.616 2.222-.33.574-1.03 1.43-1.548 1.54-1.34.254-1.681.032-2.503-.504l-.763-.478c-.555-.325-1.083-2.71-1.242-3.6.186-1.82.447-4.961.14-5.21-.187-.165-.54.11-2.687 2.104-1.301 1.21-2.921 2.714-4.256 3.724-1.91 1.425-2.857 3.205-3.55 4.506-.301.565-.562 1.053-.816 1.337-.361.385-.223.903-.09 1.403l.12.51c.234 1.193.96 2.09 1.665 2.96l.142.177c.475.655 1.888 2.37 1.902 2.388.035.03 2.408 2.27 4.338.618 2.72-.88 4.014-1.708 4.065-1.744.968-.478 2.027-.967 2.549-1.163-.876.85-2.63 3.145-3.241 5.012-.61 1.916-1.873 4.978-2.197 5.63l-.333.647c-.637 1.257-2.131 4.2-2.517 4.61-.486.485-.676.82-.343 1.298.069.104.149.157.24.166.165.014.303-.123.476-.294.164-.163.369-.364.643-.495.39-.204 2.533-2.19 4.798-4.29 1.807-1.675 3.675-3.407 4.283-3.876 1.25-.975 2.196-1.922 3.393-3.121l.334-.332 3.616-3.677c.386.244 2.379 1.46 3.932 1.954 1.123.222 2.449.39 3.844 0 2.486-.734 6.256-3.488 8.98-5.667l.158-.127-.184-.08c-.504-.217-1.081-.027-1.815.212-.91.294-2.043.665-3.527.414-2.15-.315-2.924-.622-3.49-.847l-.388-.146-.233-.073c-1.448-.45-2.947-.92-3.811-2.174a.176.176 0 0 1-.012-.07c0-.1.042-.243.089-.401l.09-.377c.198-.746.767-1.253 1.315-1.742l.494-.458c1.016-1.234 1.973-2.03 3.015-2.513.868-.443 2.225-1 3.796-1.138l.947-.01c1.03-.013 2.002-.03 3.01.132.756.099.957.898 1.15 1.67l.052.204c.026.509-.083 1.153-.301 1.739-.187.163-2.417.393-3.746.53-1.852.19-1.853.198-1.882.325l-.01.048.035.05c.52.799 2.244 1.153 3.227 1.292 2.754.386 6.506.128 7.765-.965 1.65-1.514 2.87-3.146 3.536-4.724.765-2.031.933-3.597.514-4.8"/>
        <path fill="#231f20"
              d="M30.174 57.525c-.178.006-4.51 2.215-7.608.944-2.323-.955-2.396-2.392-2.516-3.17-.08-.521.34-1.188.938-1.792-.97.727-1.837 1.745-1.724 2.477.118.776.19 2.216 2.514 3.169 2.382.974 5.492-.103 6.883-.658.658-.633 1.629-.974 1.513-.97m3.24 4.769c-.795.184-1.963.362-2.49.264-1.538-.29-2.711-1.348-2.835-2.804-.033-.389.12-.729.356-1.021-.582.378-1.205.954-1.142 1.706.122 1.454 1.297 2.513 2.835 2.801.097.019.175.039.24.059l.466-.202s1.023-.321 2.57-.803"/>
        <path fill="#ec1c24"
              d="m2.192 95.594 4.77-.298c.104.775.314 1.364.63 1.771.516.656 1.256.984 2.215.984.714 0 1.266-.167 1.653-.504.388-.335.582-.724.582-1.167 0-.42-.184-.796-.553-1.13-.37-.33-1.226-.645-2.569-.94-2.199-.494-3.766-1.15-4.704-1.969-.943-.819-1.416-1.864-1.416-3.134 0-.833.242-1.62.726-2.363.482-.74 1.21-1.324 2.18-1.748.97-.425 2.3-.636 3.99-.636 2.072 0 3.654.385 4.742 1.157 1.09.771 1.736 1.996 1.943 3.68l-4.726.276c-.125-.73-.39-1.262-.792-1.594-.402-.333-.957-.497-1.665-.497-.582 0-1.023.123-1.318.37-.295.248-.441.548-.441.902 0 .258.12.49.364.697.236.214.797.414 1.683.598 2.191.472 3.761.95 4.71 1.433.947.483 1.638 1.083 2.069 1.8.433.715.648 1.516.648 2.4a5.15 5.15 0 0 1-.864 2.88c-.576.876-1.38 1.542-2.412 1.996-1.034.454-2.337.681-3.908.681-2.76 0-4.67-.53-5.732-1.594-1.063-1.063-1.665-2.413-1.805-4.05m25.711.763 4.283.487c-.235.893-.623 1.666-1.162 2.32-.538.652-1.226 1.16-2.064 1.521-.837.361-1.902.542-3.193.542-1.247 0-2.286-.116-3.116-.348a5.429 5.429 0 0 1-2.141-1.127 5.715 5.715 0 0 1-1.407-1.831c-.338-.701-.508-1.63-.508-2.787 0-1.208.206-2.216.62-3.019a5.45 5.45 0 0 1 1.24-1.587c.523-.468 1.061-.816 1.615-1.044.877-.361 2.003-.542 3.376-.542 1.919 0 3.382.342 4.389 1.028 1.006.687 1.712 1.691 2.119 3.011l-4.239.565c-.133-.502-.374-.88-.725-1.134-.351-.256-.821-.383-1.411-.383-.745 0-1.349.267-1.81.802-.462.534-.692 1.342-.692 2.424 0 .965.228 1.698.687 2.199.456.501 1.04.751 1.747.751.591 0 1.088-.15 1.49-.452.403-.303.702-.768.902-1.396m10.315-1.251c0 1.05.211 1.824.636 2.324.424.503.958.754 1.6.754a2 2 0 0 0 1.6-.742c.416-.494.624-1.287.624-2.38 0-1.019-.21-1.777-.63-2.275-.42-.498-.942-.746-1.56-.746-.658 0-1.2.253-1.628.758-.428.505-.642 1.274-.642 2.307m-4.516.011c0-1.793.605-3.27 1.815-4.433 1.21-1.16 2.845-1.744 4.903-1.744 2.354 0 4.132.684 5.335 2.05.967 1.098 1.451 2.452 1.451 4.06 0 1.808-.6 3.291-1.799 4.445-1.199 1.154-2.858 1.732-4.976 1.732-1.888 0-3.416-.479-4.582-1.439-1.432-1.188-2.147-2.746-2.147-4.67m28.058 5.844h-4.207V99.06c-.627.781-1.259 1.337-1.897 1.67-.638.332-1.423.498-2.352.498-1.24 0-2.213-.371-2.918-1.111-.703-.743-1.056-1.885-1.056-3.427v-7.483h4.526v6.465c0 .739.137 1.263.41 1.573.274.308.658.462 1.151.462.54 0 .981-.204 1.323-.618.344-.412.515-1.154.515-2.224v-5.657h4.505zm8.168-16.227v4.472h2.48v3.297h-2.48v4.166c0 .5.05.831.144.994.147.25.405.375.775.375.331 0 .796-.095 1.394-.286l.332 3.11c-1.114.243-2.154.364-3.122.364-1.12 0-1.947-.144-2.478-.43-.532-.288-.925-.724-1.18-1.31-.253-.587-.38-1.536-.38-2.847v-4.136h-1.66v-3.297h1.66V87.05Z"/>
        <mask id="d" fill="#fff">
            <use xlink:href="#c"/>
        </mask>
        <path fill="#ec1c24"
              d="M74.72 100.963h4.505V89.208H74.72Zm0-13.161h4.505v-3.066H74.72Zm7.383 1.406h4.195v1.915c.626-.782 1.261-1.34 1.904-1.677.642-.336 1.424-.503 2.345-.503 1.249 0 2.223.371 2.928 1.111.705.742 1.058 1.888 1.058 3.438v7.471h-4.528V94.5c0-.738-.135-1.26-.409-1.567-.273-.305-.657-.459-1.151-.459-.546 0-.988.207-1.328.62-.34.413-.509 1.155-.509 2.225v5.645h-4.505zm19.059 5.701c0 .848.181 1.476.542 1.885.361.41.838.615 1.43.615a1.82 1.82 0 0 0 1.41-.636c.38-.424.57-1.063.57-1.92 0-.856-.199-1.511-.597-1.965-.4-.454-.887-.68-1.462-.68-.576 0-1.036.207-1.378.626-.344.416-.515 1.108-.515 2.075zm4.24-5.7h4.217v11.1l.01.522c0 .736-.157 1.438-.47 2.108-.313.668-.73 1.208-1.25 1.622-.522.411-1.18.71-1.98.895-.803.185-1.719.276-2.752.276-2.362 0-3.983-.353-4.865-1.063-.88-.706-1.322-1.656-1.322-2.843 0-.148.007-.346.021-.597l4.372.498c.111.404.281.685.51.841.332.228.75.343 1.251.343.648 0 1.133-.174 1.454-.522.322-.346.482-.95.482-1.814v-1.782c-.442.524-.884.904-1.328 1.14a4.701 4.701 0 0 1-2.246.553c-1.57 0-2.84-.687-3.809-2.059-.686-.973-1.028-2.26-1.028-3.863 0-1.828.442-3.222 1.327-4.182.886-.96 2.044-1.44 3.476-1.44.914 0 1.67.155 2.263.466.595.31 1.15.822 1.666 1.538V89.21Z"
              mask="url(#d)"/>
    </g>
</svg>