<svg version="1.2" baseProfile="tiny-ps" xmlns="http://www.w3.org/2000/svg" viewBox="0 0 1016 941" width="1016" height="941">
	<title>Tokocrypto_Digital_Exchange</title>
	<style>
		tspan { white-space:pre }
		.shp0 { fill: #1aa64a } 
		.shp1 { fill: #007ea4 } 
	</style>
	<g id="Background">
		<path id="Path 0" class="shp0" d="M570.5 6.03C562.8 6.51 550.2 7.62 542.5 8.49C534.8 9.36 521.75 11.2 513.5 12.58C505.25 13.96 493.55 16.2 487.5 17.55C481.45 18.91 470.88 21.57 464 23.47C457.13 25.37 444.75 29.22 436.5 32.02C428.25 34.83 415.2 39.78 407.5 43.04C399.8 46.3 387.43 52.05 380 55.83C372.57 59.6 361.1 65.98 354.5 70.01C347.9 74.03 337.55 80.83 331.5 85.12C325.45 89.41 318.08 95.3 315.12 98.21C312.16 101.12 308.57 105.53 307.14 108C305.18 111.36 304.53 113.89 304.53 118C304.53 122 305.31 125.13 307.41 129.5C309.89 134.68 316.41 141.63 355.39 180.62C394.8 220.04 401.26 226.09 406.5 228.56C410.71 230.53 413.99 231.35 417.5 231.3C420.25 231.26 424.98 230.29 428 229.14C431.02 227.99 439.13 223.81 446 219.85C452.88 215.89 464.35 209.86 471.5 206.44C478.65 203.02 490.13 198.19 497 195.7C503.88 193.22 515.13 189.81 522 188.13C528.88 186.44 538.77 184.38 544 183.54C549.23 182.7 560.7 181.51 569.5 180.9C581.2 180.1 589.67 180.1 601 180.91C609.52 181.52 621 182.7 626.5 183.53C632 184.36 641.67 186.21 648 187.63C654.33 189.06 665.13 192.03 672 194.22C678.88 196.42 690.13 200.66 697 203.64C703.88 206.61 713.77 211.47 719 214.44C724.23 217.4 732.55 222.48 737.5 225.73C742.45 228.98 751.21 235.44 756.98 240.07C762.74 244.71 772.37 253.45 778.38 259.5C784.4 265.55 793.65 275.9 798.95 282.5C804.24 289.1 813.36 301.7 819.22 310.5C825.07 319.3 832.06 328.98 834.76 332C837.46 335.02 842.55 339.82 846.08 342.65C849.61 345.48 855.88 349.62 860 351.84C864.13 354.06 871.33 356.99 876 358.34C880.67 359.7 888.1 361.12 892.5 361.5C897.26 361.91 903.94 361.71 909 361.01C913.67 360.36 921.1 358.68 925.5 357.29C929.9 355.9 936.65 353.18 940.5 351.26C944.35 349.33 949.98 346.12 953 344.13C956.02 342.14 962.25 336.91 966.84 332.51C971.42 328.1 976.87 321.8 978.93 318.5C981 315.2 983.84 309.57 985.26 306C986.68 302.43 988.32 296.8 988.92 293.5C989.52 290.2 990.01 284.01 990.01 279.75C990 275.49 989.37 268.74 988.59 264.75C987.82 260.76 986.18 254.57 984.96 251C983.74 247.43 980.57 240.22 977.91 235C975.25 229.78 968.73 218.97 963.43 211C958.12 203.03 950.06 191.55 945.5 185.5C940.95 179.45 932.34 168.65 926.37 161.5C920.41 154.35 907.87 140.85 898.51 131.5C889.15 122.15 875.87 109.87 869 104.22C862.12 98.57 850.79 89.79 843.81 84.72C836.83 79.65 824.23 71.36 815.81 66.3C807.39 61.24 794.2 53.96 786.5 50.13C778.8 46.3 766.88 40.81 760 37.93C753.13 35.06 740.08 30.26 731 27.27C721.92 24.28 707.52 20.11 699 18.01C690.48 15.91 676.52 13.02 668 11.6C659.48 10.17 646.42 8.31 639 7.47C631.58 6.62 616.27 5.76 605 5.54C593.73 5.33 578.2 5.54 570.5 6.03Z" />
		<path id="Path 1" class="shp1" d="M248 168.37C245.53 169 241.25 171.16 238.5 173.16C235.75 175.17 231.19 179.66 228.37 183.15C225.55 186.64 218.97 196.03 213.75 204C208.53 211.97 201.67 223 198.51 228.5C195.35 234 189.44 245.14 185.38 253.25C181.32 261.36 175.78 273.29 173.07 279.75C170.35 286.21 166.51 296 164.53 301.5C162.54 307 159.08 318.02 156.83 326C154.58 333.98 151.34 343.16 149.62 346.4C147.88 349.69 144.28 354.26 141.5 356.7C138.75 359.12 134.25 361.85 131.5 362.77C127.76 364.02 123.48 364.39 114.5 364.24C107.9 364.13 97.78 364.52 92 365.1C86.22 365.69 78.58 367.08 75 368.18C71.42 369.29 64.67 372.17 60 374.57C55.33 376.97 48.58 381.34 45 384.28C41.42 387.22 36.48 392.06 34 395.03C31.52 398 27.35 404.04 24.72 408.46C22.1 412.88 18.85 419.88 17.51 424C16.16 428.13 14.57 433.75 13.97 436.5C13.37 439.25 12.88 446.45 12.9 452.5C12.91 460.97 13.51 465.8 15.47 473.5C16.88 479 20 487.55 22.41 492.5C24.82 497.45 29.24 504.65 32.23 508.5C35.22 512.35 40.56 517.8 44.09 520.62C47.61 523.43 52.98 527.13 56 528.83C59.02 530.54 65.1 533.26 69.5 534.88C73.9 536.5 81.33 538.53 86 539.4C90.67 540.26 102.15 541.42 111.5 541.97C120.85 542.51 130.86 543.64 133.75 544.48C136.64 545.32 140.24 547.06 141.75 548.37C143.26 549.67 145.71 552.93 147.2 555.62C148.68 558.3 153.93 572.42 158.86 587C163.8 601.58 170.15 618.9 172.98 625.5C175.8 632.1 182.08 645.15 186.92 654.5C191.76 663.85 198.99 676.9 202.98 683.5C206.98 690.1 214.22 701.35 219.07 708.5C223.93 715.65 231.63 726.29 236.2 732.14C240.76 738 248.39 747.22 253.14 752.64C257.89 758.06 268.69 769.25 277.14 777.51C285.59 785.76 298.57 797.38 306 803.33C313.43 809.28 326.48 818.8 335 824.49C343.52 830.17 355 837.39 360.5 840.53C366 843.67 375.79 848.89 382.25 852.12C388.71 855.35 400.41 860.75 408.25 864.1C416.09 867.46 431.73 873.29 443 877.06C454.27 880.84 469.57 885.48 477 887.38C484.43 889.28 497.48 892.3 506 894.1C517.26 896.47 524.24 897.39 531.5 897.43C539.92 897.49 542.13 897.16 545.5 895.34C547.7 894.15 550.71 891.9 552.2 890.34C553.68 888.78 555.9 885.25 557.13 882.5C559.22 877.84 559.43 875.46 560.18 847.5C560.62 831 560.63 799.95 560.2 778.5C559.46 741.49 559.31 739.3 557.3 735.5C556.13 733.3 553.67 730.09 551.84 728.36C550 726.63 546.7 724.32 544.5 723.22C542.3 722.12 535.55 719.8 529.5 718.07C523.45 716.34 513.55 712.51 507.5 709.55C501.45 706.59 492.45 701.45 487.5 698.14C482.55 694.83 473.56 688.15 467.52 683.31C461.48 678.46 450.95 669.1 444.12 662.5C437.28 655.9 427.41 645.77 422.19 640C416.96 634.23 408.92 624.77 404.32 619C399.72 613.23 393.05 604.45 389.51 599.5C385.97 594.55 380.25 585.77 376.8 580C373.35 574.23 369.07 565.9 367.28 561.5C365.37 556.8 364.01 551.64 363.97 549C363.94 546.51 364.49 543.98 365.21 543.34C366.14 542.5 379.85 542.04 414 541.7C440.13 541.45 468.48 540.73 477 540.11C485.52 539.5 497.45 538.28 503.5 537.41C509.55 536.54 518.1 534.62 522.5 533.15C526.9 531.68 533.65 528.62 537.5 526.36C541.35 524.1 547.15 519.83 550.38 516.88C553.61 513.92 558.29 508.8 560.78 505.5C563.27 502.2 567.24 495.45 569.6 490.5C571.97 485.55 574.82 477.68 575.94 473C577.28 467.43 577.99 461.06 578.01 454.5C578.02 447.02 577.39 441.98 575.49 434.5C574.09 429 570.9 420.23 568.4 415C565.9 409.77 561.69 402.57 559.03 399C556.38 395.43 552.02 390.46 549.35 387.96C546.68 385.46 542.48 382.03 540 380.34C537.52 378.65 532.8 375.91 529.5 374.25C526.2 372.59 521.25 370.47 518.5 369.53C515.75 368.6 510.13 367.13 506 366.28C499.79 364.99 485.68 364.62 424 364.11C355.66 363.55 349.23 363.36 346.25 361.75C344.46 360.79 342.05 358.76 340.89 357.25C339.12 354.93 338.85 353.48 339.22 348C339.57 342.65 340.66 339.38 345.4 329.5C348.57 322.9 354.26 312.77 358.04 307C361.83 301.23 365.68 294.25 366.61 291.5C367.76 288.08 368.14 284.6 367.81 280.5C367.49 276.57 366.33 272.6 364.45 269C362.28 264.84 353.03 254.88 326.54 228.13C307.27 208.67 286.77 188.54 281 183.39C274.92 177.97 267.97 172.79 264.5 171.1C261.2 169.49 257.15 167.96 255.5 167.69C253.85 167.43 250.47 167.73 248 168.37Z" />
		<path id="Path 2" class="shp0" d="M877.5 546.59C873.65 547.45 867.58 549.37 864 550.86C860.42 552.36 854.82 555.36 851.55 557.54C848.27 559.72 842.71 564.42 839.18 568C835.65 571.58 830.45 578.1 827.63 582.49C824.81 586.88 819.63 594.76 816.13 599.99C812.63 605.22 806.1 614.23 801.63 620C797.16 625.77 786.75 637.27 778.5 645.54C769.7 654.36 758.54 664.3 751.5 669.58C744.9 674.52 735.34 681.14 730.25 684.29C725.16 687.43 715.6 692.7 709 696C702.4 699.3 692.61 703.75 687.25 705.88C681.89 708.02 673.67 710.98 669 712.46C664.33 713.94 654.2 716.72 646.5 718.64C638.8 720.56 630.59 723.23 628.25 724.57C625.91 725.9 622.95 728.46 621.66 730.25C620.37 732.04 618.69 735.08 617.91 737C616.75 739.89 616.5 752.24 616.5 808C616.5 870.75 616.63 875.82 618.31 880C619.3 882.48 621.21 885.96 622.56 887.75C623.9 889.54 626.91 891.98 629.25 893.18C632.32 894.75 635.86 895.47 642 895.78C648.24 896.09 654.49 895.5 665.5 893.57C673.75 892.13 687.02 889.35 695 887.4C702.98 885.44 718.05 881.02 728.5 877.57C738.95 874.12 753.13 868.93 760 866.04C766.88 863.14 778.35 857.84 785.5 854.26C792.65 850.68 803.23 845.03 809 841.7C814.77 838.37 822.65 833.62 826.5 831.14C830.35 828.67 838.45 823.17 844.5 818.94C850.55 814.7 860.67 807.09 867 802.04C873.33 796.98 884.52 787.37 891.88 780.67C899.23 773.98 910.36 762.88 916.59 756C922.83 749.13 932.26 738.1 937.54 731.5C942.83 724.9 951.8 712.52 957.48 704C963.16 695.48 971.21 682.42 975.38 675C979.54 667.58 984.26 657.9 985.87 653.5C987.48 649.1 989.34 641.9 990.01 637.5C990.7 632.95 990.94 626.7 990.56 623C990.2 619.42 989.21 613.8 988.37 610.5C987.52 607.2 985.38 601.35 983.61 597.5C981.84 593.65 978.87 588.25 977.01 585.5C975.15 582.75 971.8 578.31 969.56 575.62C967.33 572.94 962.35 568.28 958.5 565.27C954.65 562.25 947.45 557.83 942.5 555.44C937.55 553.04 929 549.9 923.5 548.44C915.48 546.32 910.63 545.72 899 545.41C888.34 545.13 882.65 545.45 877.5 546.59Z" />
	</g>
</svg>