<svg id="Layer_1" xmlns="http://www.w3.org/2000/svg" viewBox="0 0 198 198"><style>.st0{fill:#007ea3}.st1{fill:#1aa54a}</style><title>lgo tc 2</title><path class="st0" d="M82.2 108.6h-9.6c-1.4 0-1.8.5-1.6 1.8.3 1.5.8 2.8 1.6 4.1 3.3 5.8 7.4 11.2 12.1 16 4.2 4.7 9.2 8.7 14.7 11.8 1.8 1 3.8 1.8 5.8 2.2.6.2 1.2.3 1.8.6 2.3.7 3.9 3 3.8 5.4v23.6c0 .5-.1 1-.1 1.4-.4 3.8-2.9 5.7-6.7 5.1-18.5-3.1-35.2-10.1-49.1-22.9C46.8 150 40.1 141 35 131c-2.6-5.3-4.8-10.8-6.5-16.5-1.5-4.9-2.3-5.5-7.5-5.8-3.1-.2-6.1-.3-9.1-1.3-12.2-4.1-16-19.9-7-29.2 4.1-4.2 9.2-5.7 14.9-5.5 1.1.1 2.2.1 3.3-.1 3.2-.7 4.7-3.1 5.5-6 1.8-6.8 4.4-13.3 7.8-19.4 2.1-3.9 4.5-7.7 7.2-11.2 3.2-3.9 5.6-4.2 9.5-.9.7.6 1.3 1.2 2 1.8l14 14c3.3 3.3 3.6 6 .9 9.9-1.4 2-2.6 4.2-3.6 6.5-.2.5-.4 1-.5 1.6-.4 1.5.4 3 1.9 3.5.2.1.4.1.5.1 1.5.3 3.1.4 4.7.3h22.8c4-.2 8 1.1 11.2 3.4 8.8 6.8 10.8 21 0 28.8-3 2.1-6.4 2.8-10 3-4.8.4-9.8.6-14.8.6z"/><path class="st1" d="M119.5 0c21.9.1 42.9 8.6 60.3 25.9 5.6 5.7 10.6 12 14.7 18.9 2.2 3.3 3.4 7.2 3.4 11.2-.1 4.6-2.3 9-6.2 11.6-5.9 4.4-12.3 6-19.3 3-3.5-1.6-6.4-4.3-8.3-7.7-4-6.5-9.1-12.3-15.2-16.9-7.8-5.7-17-9.3-26.6-10.3-12.5-1.5-24 1.4-34.8 7.8-1.2.7-2.4 1.4-3.6 1.9-1.6.6-3.3.4-4.7-.6C78 44 77 43.1 76 42.1L62.3 28.3c-.9-.9-1.7-1.9-2.4-3-1.1-1.8-.9-4.1.6-5.7 1.1-1.2 2.4-2.3 3.8-3.2C75.1 8.8 87.2 4.2 100.2 1.8 106.6.7 113 .1 119.5 0zM122.3 162.2v-11.4c0-3.5 1.4-5.3 4.8-6 10.5-2.1 20.2-7.3 27.8-14.8 3.9-3.8 7.2-8.1 10-12.7 1.8-3.2 4.7-5.7 8.1-7 10-3.8 22 2.2 24.7 12.4.9 3.4.5 7-1.2 10.1-6.8 13.2-16.8 24.5-29.1 32.8-10.7 7.4-22.9 12.3-35.7 14.4-1.1.2-2.1.3-3.2.4-3.6.3-5.7-1.5-6-5.1-.2-2.8-.1-5.7-.1-8.5-.1-1.5-.1-3-.1-4.6z"/></svg>