<svg xmlns="http://www.w3.org/2000/svg" viewBox="0.3689999580383301 0.3689999580383301 63.262001037597656 63.262001037597656"><path fill="#fedd00" d="M63.631 2.369a2 2 0 0 0-2-2H2.369a2 2 0 0 0-2 2v59.262a2 2 0 0 0 2 2h59.262a2 2 0 0 0 2-2V2.369z"></path><path fill="none" stroke="#d9b500" stroke-width=".66" d="M63.301 2.699a2 2 0 0 0-2-2H2.699a2 2 0 0 0-2 2v58.602a2 2 0 0 0 2 2h58.602a2 2 0 0 0 2-2V2.699z"></path><path d="M22.972 46.553V17.7h-4.81v-4.81H35.22c10.654 0 12.864 7.027 12.864 11.901 0 3.91-1.587 6.914-3.23 8.557-2.664 2.664-6.291 3.287-11.788 3.287h-4.307v9.918h5.044v4.81H18.162v-4.81h4.81zm5.781-14.565h4.81c7.084 0 8.614-3.287 8.614-7.254 0-4.534-2.55-7.027-6.8-7.027h-6.618l-.006 14.281z"></path></svg>