<svg version="1.1" id="Layer_1" xmlns="http://www.w3.org/2000/svg" xmlns:xlink="http://www.w3.org/1999/xlink" x="0px" y="0px" style="enable-background:new 0 0 612 792;" xml:space="preserve" viewBox="5.27 189.35 593.37 347.40">
<style type="text/css">
	.st0{fill:#1FBBC4;}
	.st1{fill:#C8EEF0;}
	.st2{fill:#7ED8DD;}
	.st3{fill:#FCFDFD;}
	.st4{fill:#FDFEFE;}
	.st5{fill:#20BCC5;}
</style>
<path class="st0" d="M536.09,410.21c7.1-4.18,13.55-9.2,18.64-15.71c2.68-3.43,5.95-6.48,7.68-10.61c0.58-1.37,1.28-1.29,2.43-0.45
	c5.11,3.7,9.63,8.02,13.74,12.79c10.63,12.35,17.56,26.4,19.36,42.74c1.73,15.59,0.46,30.98-6.52,45.09
	c-10.72,21.69-27.88,36.73-50.51,45.55c-13.08,5.1-26.65,7.11-40.58,7.11c-117.47,0.02-234.94,0.02-352.4,0.01
	c-24.69,0-48.17-5.1-70.24-16.41c-11.59-5.94-22.21-13.15-31.75-22.04c-9.78-9.11-18.05-19.3-24.76-30.94
	c-3.17-5.5-5.55-11.21-7.89-17.02c-10.49-26.07-10.01-52.57-2.32-79.05c3.33-11.47,9.2-22.06,15.98-31.94
	c4.35-6.33,9.36-12.25,14.83-17.64c12.63-12.43,27.05-22.25,43.36-29.36c11.88-5.18,24.2-8.63,36.91-10.82
	c1.96-0.34,3.97-0.43,6.56-0.7c-9.14,18.8-15.23,37.87-16.54,58.26c-0.53,4.9-0.9,9.82-0.73,15.33c1.21-5.41,1.41-10.37,1.82-15.3
	c1.66-13.17,5.79-25.71,10.64-37.94c4.01-10.09,9.4-19.65,15.45-28.68c7-10.43,14.99-20.17,24.13-28.8
	c16.44-15.52,34.97-28.05,55.72-37.12c21.22-9.28,43.4-14.76,66.54-16.55c27.58-2.13,54.54,0.9,80.82,9.41
	c13.25,4.29,25.91,10,38,17.05c13.2,7.69,25.4,16.66,36.31,27.29c7.38,7.19,14.23,14.88,20.22,23.36
	c5.89,8.34,11.05,16.98,15.7,26.07c3.99,7.8,6.16,16.13,9.22,24.2c3.38,8.91,4.42,18.15,5.66,27.42c-0.47,3.62,0.8,7.04,1.14,10.58
	c-0.14-3.51,1.03-7.06-0.34-10.51c-0.25-11.38-1.74-22.63-4.8-33.55c-2.3-8.19-5.62-16.09-8.49-24.12c-0.08-0.22-0.19-0.44-0.3-0.65
	c-3.18-6.01-3.18-5.96,3.8-6.2c19.47-0.66,37.3,4.46,53.06,15.82c9.21,6.64,16.51,15.06,21.89,25.35
	c9.32,17.83,9.79,36.11,3.41,54.56c-4.19,12.11-11.83,22.28-21.99,30.35c-1.21,0.96-2.31,2.06-3.46,3.1
	c-0.73,0.26-1.46,0.51-2.45,0.86C534.3,410.87,535.25,411.1,536.09,410.21z M297.91,222.96c-5.49-0.24-13.94,0.51-22.31,1.77
	c-26.32,3.96-50.37,13.73-71.86,29.43c-12.51,9.14-23.27,20.19-32.27,32.78c-6.26,8.76-11.22,18.36-15.5,28.24
	c-3.74,8.63-5.77,17.91-7.35,27.05c-2.59,15.02-2.6,30.15,1.07,45.26c2.64,10.88,5.38,21.61,10.53,31.61
	c1.73,3.35,3.47,6.67,5.39,9.93c7.02,11.98,15.83,22.38,25.9,31.87c6.26,5.9,13,11.15,20.18,15.77
	c16.45,10.58,34.3,17.94,53.46,22.04c20.27,4.33,40.67,5.01,61.15,1.81c16.32-2.55,31.9-7.4,46.81-14.64
	c16.31-7.91,30.64-18.44,43.28-31.32c5.39-5.49,10.31-11.47,14.62-17.81c6.99-10.3,13.04-21.34,16.57-33.23
	c8.61-29.04,9.01-58.06-2.16-86.8c-4.28-11.02-9.72-21.21-16.62-30.79c-7.27-10.1-15.71-18.94-25.25-26.86
	c-9.56-7.94-19.97-14.47-31.13-19.89C349.83,228.2,325.96,223.07,297.91,222.96z"></path>
<path class="st1" d="M113.16,339.12c-0.4,4.93-0.61,9.89-1.82,15.3c-0.17-5.51,0.19-10.43,0.73-15.33
	C112.43,339.1,112.79,339.11,113.16,339.12z"></path>
<path class="st2" d="M492.38,344.91c1.38,3.46,0.2,7,0.34,10.51c-0.34-3.54-1.61-6.96-1.14-10.58
	C491.85,344.87,492.11,344.89,492.38,344.91z"></path>
<path class="st3" d="M297.91,222.96c28.05,0.11,51.92,5.24,74.5,16.22c11.16,5.43,21.57,11.95,31.13,19.89
	c9.54,7.93,17.98,16.76,25.25,26.86c6.9,9.59,12.34,19.78,16.62,30.79c11.17,28.74,10.77,57.76,2.16,86.8
	c-3.53,11.89-9.58,22.93-16.57,33.23c-4.3,6.34-9.23,12.32-14.62,17.81c-12.64,12.88-26.97,23.41-43.28,31.32
	c-14.91,7.23-30.49,12.09-46.81,14.64c-20.48,3.2-40.88,2.52-61.15-1.81c-19.16-4.1-37.01-11.46-53.46-22.04
	c-7.18-4.62-13.93-9.87-20.18-15.77c-10.07-9.49-18.87-19.89-25.9-31.87c-1.92-3.27-3.66-6.58-5.39-9.93
	c-5.16-10-7.89-20.73-10.53-31.61c-3.67-15.11-3.66-30.25-1.07-45.26c1.58-9.14,3.6-18.42,7.35-27.05
	c4.29-9.88,9.24-19.48,15.5-28.24c9-12.59,19.76-23.65,32.27-32.78c21.49-15.7,45.54-25.47,71.86-29.43
	C283.97,223.47,292.42,222.72,297.91,222.96z M300.53,484.33c2.74-0.14,5.48-0.24,8.22-0.42c2.73-0.19,5.46-0.41,8.19-0.7
	c27.87-2.89,52.55-13.53,74.24-31.08c9.43-7.64,17.42-16.79,24.13-26.86c7.39-11.08,12.93-23.26,15.87-36.22
	c4.54-19.99,4.55-39.98-2.12-59.79c-3.89-11.55-9.04-22.23-15.96-32.28c-9.25-13.42-20.9-24.12-34.3-33.15
	c-9.03-6.08-18.7-10.93-28.91-14.56c-23.11-8.2-46.87-10.35-71.16-6.83c-25.18,3.65-47.64,13.58-67.48,29.35
	c-8.93,7.1-16.71,15.48-23.26,24.79c-7.39,10.49-13.37,21.94-16.63,34.33c-7.97,30.27-5.51,59.47,10.43,87.08
	c4.78,8.27,10.19,15.89,16.66,22.89c9.35,10.12,20.06,18.37,32.03,25.15C252.23,478.37,275.68,484,300.53,484.33z"></path>
<path class="st4" d="M536.09,410.21c-0.84,0.89-1.79,0.65-3.05,0.22c0.99-0.34,1.72-0.6,2.45-0.86
	C535.69,409.79,535.89,410,536.09,410.21z"></path>
<path class="st0" d="M300.53,484.33c-24.85-0.33-48.3-5.95-70.05-18.28c-11.97-6.78-22.68-15.03-32.03-25.15
	c-6.47-7-11.88-14.62-16.66-22.89c-15.94-27.61-18.4-56.8-10.43-87.08c3.26-12.39,9.24-23.84,16.63-34.33
	c6.56-9.31,14.33-17.69,23.26-24.79c19.84-15.78,42.31-25.7,67.48-29.35c24.29-3.52,48.04-1.38,71.16,6.83
	c10.21,3.62,19.88,8.47,28.91,14.56c13.4,9.03,25.05,19.73,34.3,33.15c6.92,10.05,12.07,20.73,15.96,32.28
	c6.67,19.81,6.66,39.79,2.12,59.79c-2.94,12.96-8.48,25.14-15.87,36.22c-6.71,10.07-14.7,19.22-24.13,26.86
	c-21.69,17.56-46.36,28.2-74.24,31.08c-2.72,0.28-5.46,0.51-8.19,0.7C306.01,484.09,303.27,484.19,300.53,484.33z M239.33,367.12
	c0,17.18,0.26,34.37-0.09,51.55c-0.24,11.32,6.42,19.08,17.54,21.2c12.07,2.3,25.94-6.11,25.48-20.43
	c-0.2-6.2,0.07-12.41-0.09-18.61c-0.06-2.4,0.75-2.99,3.04-2.97c11.34,0.1,22.68-0.06,34.02,0.08c10.37,0.13,20.39-1.14,29.96-5.5
	c12.61-5.74,22.28-14.61,27.59-27.32c7.54-18.03,4.5-40.38-13.06-55.8c-9.95-8.74-21.47-14.1-34.54-14.44
	c-23.38-0.6-46.78-0.38-70.18-0.17c-10.56,0.1-20.04,8.65-19.77,20.5C239.62,332.51,239.33,349.82,239.33,367.12z"></path>
<path class="st4" d="M239.33,367.12c0-17.3,0.29-34.61-0.1-51.9c-0.27-11.85,9.21-20.41,19.77-20.5c23.39-0.21,46.8-0.43,70.18,0.17
	c13.07,0.34,24.59,5.69,34.54,14.44c17.56,15.43,20.61,37.77,13.06,55.8c-5.32,12.71-14.98,21.58-27.59,27.32
	c-9.57,4.36-19.59,5.63-29.96,5.5c-11.34-0.14-22.68,0.02-34.02-0.08c-2.29-0.02-3.1,0.57-3.04,2.97c0.16,6.2-0.11,12.41,0.09,18.61
	c0.46,14.31-13.42,22.72-25.48,20.43c-11.12-2.12-17.78-9.88-17.54-21.2C239.59,401.49,239.33,384.3,239.33,367.12z M305.01,361.41
	c6.68,0,13.35-0.02,20.03,0.01c3.86,0.01,7.3-1.4,10.17-3.7c5.09-4.08,6.39-9.66,4.76-15.78c-1.78-6.66-6.74-10.17-13.26-10.68
	c-14.15-1.09-28.35-0.22-42.53-0.47c-2.43-0.04-2.26,1.49-2.26,3.08c0.01,8.22,0.09,16.45-0.05,24.67
	c-0.04,2.47,0.89,2.96,3.12,2.92C291.65,361.33,298.33,361.41,305.01,361.41z"></path>
<path class="st5" d="M305.01,361.41c-6.68,0-13.35-0.08-20.03,0.05c-2.23,0.04-3.16-0.45-3.12-2.92c0.14-8.22,0.06-16.44,0.05-24.67
	c0-1.6-0.17-3.13,2.26-3.08c14.18,0.25,28.38-0.62,42.53,0.47c6.52,0.5,11.48,4.02,13.26,10.68c1.64,6.12,0.33,11.7-4.76,15.78
	c-2.88,2.31-6.32,3.72-10.17,3.7C318.36,361.4,311.68,361.41,305.01,361.41z"></path>
</svg>
