<svg xmlns="http://www.w3.org/2000/svg" xmlns:xlink="http://www.w3.org/1999/xlink" version="1.1" id="Layer_1" x="0px" y="0px" viewBox="0.54 2.32 62.91 40.42">
<g>
	<path fill="#1EBCC5" d="M63.457,32.629c0-3.183-1.476-6.018-3.774-7.869c-0.91,1.838-2.474,3.286-4.382,4.072   c2.723-1.408,4.588-4.243,4.588-7.518c0-4.675-3.784-8.415-8.459-8.415c-0.355,0-0.689,0.026-1.034,0.068   c1.17,2.559,1.818,5.349,1.818,8.347c0,0.193-0.01,0.384-0.017,0.576C51.861,11.025,42.954,2.319,32.005,2.319   c-10.916,0-19.806,8.657-20.19,19.481c-0.004-0.163-0.019-0.323-0.019-0.486c0-2.992,0.667-5.822,1.833-8.376   C6.253,13.863,0.543,20.145,0.543,27.772c0,8.265,6.7,14.965,14.965,14.965h38.054v-0.017   C59.044,42.609,63.457,38.138,63.457,32.629"></path>
	<path fill="#FFFFFF" d="M31.839,36.634c-7.824,0-14.167-6.343-14.167-14.167c0-7.823,6.343-14.167,14.167-14.167   c7.825,0,14.167,6.343,14.167,14.167C46.006,30.291,39.664,36.634,31.839,36.634 M31.846,6.226   c-8.984,0-16.266,7.282-16.266,16.265s7.282,16.266,16.266,16.266s16.265-7.283,16.265-16.266S40.83,6.226,31.846,6.226"></path>
	<path fill="#FFFFFF" d="M34.338,22.349H34.32h-4.425h-0.018v-3.556h0.018h4.425h0.018c0.982,0,1.778,0.796,1.778,1.777   C36.116,21.552,35.32,22.349,34.338,22.349 M27.611,14.552c-1.261,0-2.284,1.022-2.284,2.284v12.392   c0,1.261,1.023,2.285,2.284,2.285c1.263,0,2.284-1.024,2.284-2.285v-2.636h4.425v-0.009c3.322,0,6.017-2.693,6.017-6.015   c0-3.323-2.694-6.016-6.017-6.016"></path>

</g>
</svg>
