<svg version="1.0" xmlns="http://www.w3.org/2000/svg" viewBox="0 0 298.324 300.5"><g fill="#005399"><path d="m21.195 147.22-.051.437-.061.447-.071.519-.081.437-.092.397-.081.345-.112.326-.112.305-.163.345-.163.387-.061.152-.172-.061-.366-.132-.326-.112-.325-.101-.305-.092-.356-.081-.447-.081-.509-.092-.63-.091-.447-.061.365-.275.061-.01.346-.275.336-.274.172-.173.173-.173.153-.183.152-.214.133-.233.142-.254.112-.285.112-.326.081-.345.071-.387.041-.426.04-.478v-.529l-.02-.244-.02-.254-.021-.204-.04-.234-.051-.213-.061-.194-.061-.192-.071-.173-.061-.173-.092-.173-.173-.285-.213-.274-.224-.234-.233-.183-.245-.163-.274-.132-.265-.112-.264-.081-.274-.041-.265-.01h-.325l-.285.031-.284.061-.255.091-.243.143-.214.152-.224.173-.193.193-.193.214-.193.233-.173.244-.153.254-.325.519-.305.539v.041l-.203.335-.448.773-.457.752-.183.346-.326.508-.386.519-.213.254-.224.265-.265.253-.274.224-.325.214-.326.213-.366.173-.396.132-.214.082-.203.05-.234.041-.244.041-.254.02-.244.02h-.559l-.285-.02-.305-.041-.285-.04-.305-.051-.274-.081-.265-.072-.285-.101-.254-.122-.244-.122-.244-.143-.254-.132-.234-.152-.223-.173-.214-.204-.203-.182-.194-.214-.234-.254-.203-.285-.213-.295-.173-.305-.173-.305-.153-.335-.131-.336-.112-.366-.122-.356-.072-.376-.081-.386-.051-.407-.04-.407-.041-.396v-.854l.041-.346.04-.346.051-.366.081-.346.133-.67.132-.509.152-.752.102-.356.051-.275.04-.213.041-.204.031-.203.193.051.498.152.427.112.356.092.366.061.366.061.397.03.457.041.539.061.437.02-.346.306-.264.213-.305.274-.153.153-.152.193-.173.183-.152.224-.153.244-.152.264-.133.295-.121.305-.092.346-.071.366-.061.406-.041.438v.447l.041.427.061.376.111.376.112.346.153.305.193.275.193.244.204.213.254.194.223.152.275.132.264.112.265.082.274.06.285.021h.325l.285-.041.285-.061.244-.092.254-.121.223-.133.214-.152.193-.173.194-.193.172-.214.153-.213.153-.224.284-.468.264-.457.692-1.291.02-.041.458-.813.477-.804.244-.386.275-.366.285-.346.325-.325.153-.153.172-.132.173-.142.194-.132.182-.112.194-.122.213-.092.214-.101.203-.072.234-.061.244-.061.254-.05.244-.041.264-.02h.58l.326.02.304.041.305.04.285.071.305.061.285.092.274.102.285.112.264.142.255.122.244.162.244.153.233.173.234.193.204.193.193.214.152.152.133.193.152.214.173.234.152.264.153.285.152.315.133.335.142.387.112.407.091.467.102.468.051.508.061.539v1.21l-.021.447zm246.681 50.42.133-.315.153-.325.172-.306.194-.325.346-.559.284-.447.417-.631.193-.335.132-.224.122-.173.112-.193.091-.193.173.132.428.295.345.244.326.214.325.192.315.173.356.194.417.193.498.213.417.194-.448.152-.325.091-.356.153-.203.102-.224.112-.224.132-.223.152-.214.183-.233.214-.235.223-.203.255-.214.284-.192.336-.184.335-.173.407-.152.407-.122.386-.061.386-.031.387v.356l.031.376.051.173.04.173.051.172.051.153.142.264.153.234.163.234.193.214.224.192.223.153.245.153.253.111.295.102.295.071.284.041h.265l.275-.01.264-.061.244-.081.254-.102.224-.112.234-.132.224-.163.233-.152.417-.346.406-.346 1.069-.956.06-.04.692-.62.721-.57.367-.294.386-.255.376-.224.407-.192.204-.082.213-.081.204-.071.213-.051.213-.041.234-.041.224-.04h.458l.244.02.254.02.244.041.254.061.254.071.264.082.275.112.295.111.274.132.265.163.264.153.254.173.244.183.224.203.214.193.213.203.193.224.193.224.162.233.154.245.152.254.132.254.122.264.071.193.072.234.091.255.071.264.061.284.031.326.041.376.02.356v.407l-.051.427-.031.467-.091.478-.102.498-.142.519-.184.559-.233.6-.163.397-.183.406-.193.407-.193.407-.254.437-.224.407-.214.325-.203.295-.224.264-.223.254-.254.285-.274.285-.123.142-.112-.112-.305-.254-.274-.234-.265-.193-.264-.193-.325-.193-.367-.224-.457-.275-.569-.305-.387-.213.417-.122.061-.01.417-.122.428-.153.203-.091.233-.102.214-.132.203-.132.203-.173.224-.214.204-.213.213-.275.193-.305.194-.325.193-.386.173-.417.182-.488.132-.458.041-.214.041-.233.03-.204.031-.223v-.397l-.031-.213-.009-.193-.041-.194-.062-.173-.051-.193-.06-.172-.112-.245-.153-.254-.162-.213-.183-.214-.213-.193-.224-.152-.255-.153-.264-.132-.294-.102-.295-.061-.265-.01h-.295l-.274.03-.265.082-.264.091-.244.102-.244.153-.254.152-.255.153-.223.193-.478.386-.478.407-.02.01-.306.274-.66.56-.681.579-.305.244-.479.346-.538.376-.285.173-.305.152-.325.153-.336.122-.376.102-.386.081-.387.04h-.427l-.203-.02-.234-.02-.224-.03-.254-.051-.224-.051-.253-.071-.245-.102-.264-.092-.316-.142-.304-.152-.285-.153-.264-.193-.265-.173-.254-.213-.223-.194-.235-.223-.213-.234-.193-.234-.163-.254-.152-.265-.153-.264-.142-.274-.132-.285-.102-.315-.092-.285-.071-.315-.06-.326-.041-.304-.031-.346-.02-.326v-.345l.02-.356.031-.346.041-.336.081-.376.071-.366.101-.355.113-.377.111-.356zm-101.938 50.898-2.298.326-2.298.315-2.287.224-2.298.214-1.638.122v-55.463l-.173.071-1.362.732-1.372.732-1.403.732-1.413.712-1.413.732-1.444.712-1.454.711-1.494.691-.071.041v49.596l-1.576-.122-2.308-.214-2.288-.224-2.298-.315-2.277-.326-2.277-.386-2.268-.437-2.257-.468-2.258-.539-2.226-.559-2.227-.61-2.217-.661-2.196-.691-2.196-.752-2.156-.783-2.166-.834-2.146-.864-2.115-.925-2.104-.966-2.105-.996-2.064-1.037-2.043-1.078-2.023-1.119-2.013-1.179-1.962-1.19-1.962-1.25-1.942-1.291-1.912-1.302-1.891-1.373-1.851-1.403-1.82-1.434-1.79-1.475-1.779-1.525-1.779-1.556-1.718-1.617-1.678-1.637-1.647-1.657-1.606-1.698-1.556-1.729-1.505-1.759-1.464-1.769-1.434-1.8-1.383-1.84-1.332-1.84-1.281-1.891-1.25-1.881-1.18-1.932-1.148-1.942-1.108-1.962-1.047-1.983-.997-2.003-.956-2.023-.915-2.043-.864-2.054-.803-2.074-.742-2.084-.712-2.125-.661-2.104-.6-2.125-.549-2.156-.498-2.155-.438-2.156-.407-2.176-.346-2.196-.285-2.196v-.092h-1.525v37.824h6.477l.366 1.027 1.434 3.629 1.606 3.589 1.769 3.518 1.912 3.447 2.084 3.386 2.237 3.314 2.369 3.213 2.511 3.162 2.633 3.06 2.766 2.969 2.888 2.887 3 2.766 3.121 2.694 3.213 2.583 3.305 2.46 3.406 2.369 3.488 2.257 3.579 2.115 3.65 2.022 3.731 1.871 3.782 1.749 3.833 1.637 3.925 1.484 3.935 1.342 4.016 1.2 4.027 1.058 4.077.904 4.087.753 4.128.59 4.128.427 4.148.274 4.148.092h.346l4.148-.092 4.138-.274 4.138-.427 4.118-.59 4.098-.753 4.067-.904 4.036-1.058 4.006-1.2 3.945-1.342 3.894-1.484 3.864-1.637 3.782-1.749 3.731-1.871 3.649-2.022 3.569-2.115 3.487-2.257 3.416-2.369 3.314-2.46 3.203-2.583 3.121-2.694 2.989-2.766 2.888-2.887 2.766-2.969 2.633-3.06 2.502-3.162 2.368-3.213 2.237-3.314 2.074-3.386 1.932-3.447 1.759-3.518 1.617-3.589 1.434-3.629.396-1.027h6.434v-37.824h-1.504l-.021.092-.294 2.196-.336 2.196-.387 2.176-.437 2.156-.519 2.155-.529 2.156-.62 2.125-.641 2.104-.701 2.125-.772 2.084-.804 2.074-.844 2.054-.915 2.043-.956 2.023-.991 2.005-1.047 1.983-1.108 1.962-1.149 1.942-1.189 1.932-1.24 1.881-1.281 1.891-1.342 1.84-1.362 1.84-1.434 1.8-1.475 1.769-1.515 1.759-1.546 1.729-1.606 1.698-1.647 1.657-1.677 1.637-1.719 1.617-1.779 1.556-1.759 1.525-1.81 1.475-1.82 1.434-1.851 1.403-1.901 1.373-1.901 1.302-1.932 1.291-1.952 1.25-1.993 1.19-2.003 1.179-2.023 1.119-2.054 1.078-2.054 1.037-2.084.996-2.095.966-2.146.925-2.146.864-2.145.834-2.176.783-2.176.752-2.217.691-2.206.661-2.237.61-2.227.559-2.257.539-2.258.468-2.247.437-2.276.385zm-.081 19.99-2.064.305-2.063.265-2.064.213-2.063.193-2.044.152-2.063.102-2.044.062-2.054.03-.071-.03h-.011l-2.054-.03-2.063-.071-2.054-.102-2.054-.153-2.064-.173-2.063-.224-2.074-.274-2.054-.305-2.074-.325-2.055-.387-2.043-.427-2.064-.458-2.043-.508-2.044-.539-2.044-.569-2.054-.62-2.023-.651-2.003-.691-2.033-.722-1.983-.763-1.993-.813-1.983-.823-1.972-.874-1.942-.895-1.952-.946-1.932-.986-1.911-1.017-1.912-1.037-1.871-1.077-1.871-1.139-1.84-1.139-1.83-1.19-1.8-1.22-1.779-1.25-1.759-1.271-1.718-1.292-1.678-1.322-1.667-1.352-1.637-1.362-1.596-1.403-1.566-1.403-1.545-1.454-1.515-1.474-1.464-1.484-1.434-1.505-1.414-1.545-1.362-1.536-1.332-1.576-1.301-1.576-1.261-1.626-1.241-1.606-1.189-1.637-1.169-1.657-1.108-1.678-1.088-1.698-1.027-1.708-.997-1.718-.976-1.729-.915-1.729-.885-1.779-.833-1.749-.803-1.79-.742-1.789-.712-1.79-.041-.082h-1.719l-1.088.021h-2.297l-1.017.02h-1.291v-44.015l7.199.021.132 1.332.254 2.176.305 2.176.366 2.155.396 2.135.458 2.135.519 2.115.569 2.125.641 2.095.661 2.084.732 2.074.763 2.044.844 2.033.854 2.023.936 2.033.976 1.973 1.037 1.962 1.067 1.952 1.108 1.921 1.179 1.912 1.21 1.881 1.261 1.871 1.322 1.84 1.363 1.82 1.393 1.779 1.444 1.779 1.495 1.729 1.545 1.718 1.586 1.667 1.626 1.657 1.667 1.637 1.718 1.597 1.729 1.565 1.698 1.424 1.688 1.403 1.739 1.362 1.769 1.332 1.8 1.292 1.789 1.271 1.831 1.21 1.86 1.189 1.871 1.149 1.911 1.108 1.912 1.078 1.952 1.047 1.962.997 1.972.956 2.003.925 2.013.895 2.013.844 2.054.813 2.064.763 2.064.742 2.094.671 2.095.651 2.125.61 2.114.559 2.115.519 2.166.488 2.135.437 2.166.386 2.155.366 2.176.305 2.186.254 2.176.234.133.021v-.143l-.041-44.584v-.193l-.143.082-.335.152-1.79.803-1.952.895-2.135.915-2.318.986-2.45 1.017-2.623 1.047-1.373.519-1.383.519-1.443.539-1.464.519-1.515.519-1.545.498-1.566.499-1.606.508-1.647.478-1.667.478-1.698.468-1.729.447-1.769.427-1.779.396-1.81.407-1.851.366-1.851.336-1.901.335-1.932.285-1.932.285-.204.021h-.416l-.214-.021-.213-.01-.203-.041-.214-.031-.193-.071-.193-.071-.193-.082-.183-.071-.173-.102-.173-.112-.173-.112-.173-.122-.132-.152-.234-.234-.193-.224-.152-.274-.132-.275-.112-.274-.081-.295-.031-.285-.02-.315v-.112l.02-.143.021-.224.03-.254.061-.224.082-.254.071-.234.122-.244.112-.254.112-.244.305-.488.346-.498.376-.519.427-.529.478-.519.498-.519.529-.539.559-.539 1.18-1.088 1.261-1.159.976-.895.935-.875.895-.875.813-.803.355-.407.326-.366.295-.346.244-.326.214-.315.132-.264.061-.132.031-.122.02-.091.021-.092v-.051l-.122-.569-.112-.559-.071-.58-.081-.559-.051-.56-.041-.58-.02-.549v-1.078l.02-.508.041-.478.03-.468.041-.437.061-.438.071-.427.082-.407.152-.732.193-.691.173-.6.183-.519.6-1.444.671-1.393.763-1.342.824-1.292.895-1.271.976-1.21 1.007-1.18 1.098-1.128 1.139-1.098 1.189-1.058 1.22-1.027 1.281-.976 1.302-.945 1.342-.905 1.342-.864 1.403-.834 1.423-.783 1.403-.773 1.424-.732 1.434-.691 1.423-.661 1.434-.61 1.424-.59 1.403-.569 1.403-.539 1.362-.499 1.332-.458 1.312-.447 1.291-.417 1.23-.376 1.199-.356 1.139-.335.071-.01.783 2.877-1.2.325-1.646.509-1.657.539-1.709.58-1.708.59-1.729.661-1.718.691-1.719.732-1.718.763-1.698.834-1.678.844-1.657.895-1.617.936-1.596.976-1.525 1.027-1.484 1.058-1.414 1.118-1.383 1.139-1.281 1.19-1.22 1.25-1.128 1.281-1.047 1.322-.956 1.362-.844 1.403-.742 1.475-.641 1.495-.142.427-.163.499-.153.559-.122.61-.122.702-.092.722-.041.397-.021.396-.02.427v.905l.02.478.041.478.041.488.071.499.061.488.092.498.091.478.041.173.02.152.021.183v.397l-.041.234-.041.224-.051.234-.061.234-.091.234-.102.224-.112.254-.112.234-.132.234-.153.244-.173.234-.366.478-.396.498-.447.508-.468.519-.519.519-.56.539-1.189 1.119-1.291 1.169-.844.773-.905.823-.895.875-.854.864-.407.417-.376.407-.325.407-.305.386-.254.366-.183.346-.102.153-.061.152-.031.132-.041.142v.061l.071.051.061.041.112.061.081.02.071.01h.214l2.105-.305 2.104-.346 2.135-.386 2.155-.437 2.166-.488 2.176-.519 2.186-.559 2.176-.6 2.196-.63 2.176-.651 2.176-.712 2.186-.711 2.166-.752 2.155-.773 2.135-.793 2.125-.803 2.105-.833 2.084-.844 2.064-.864 2.022-.864 2.003-.895 1.963-.875 1.922-.895 1.911-.905 1.851-.905 1.8-.905 1.759-.875 1.718-.895 1.657-.885 1.627-.884 1.546-.864 1.505-.854 1.87-1.078 1.882-1.057 1.9-1.037 1.901-1.017 1.912-.986 1.952-.986 1.941-.936 1.942-.905 1.962-.864 1.973-.854 1.993-.783 2.003-.773 2.003-.722 2.023-.651 2.033-.61 2.044-.539 2.043-.498 2.085-.448 2.054-.386 2.104-.305 2.115-.234 2.114-.173 2.115-.092 2.146-.02 2.145.051 2.176.152 2.156.234 2.196.305 2.206.427 2.217.498 2.236.6 2.237.702 1.088.356-.062 1.159v.672l.021.325.041.325.051.326.081.315.081.305.102.335.102.285.133.305.132.305.143.294.152.285.346.56.356.559.406.519.417.519.447.478.457.467.458.448.478.417.458.387.457.386.173.132.021-.234.092-.783.111-.793.133-.742.152-.752.173-.711.193-.712.213-.671.204-.661.061-.213.041-.213.021-.254.02-.244-.02-.264-.021-.295-.041-.264-.061-.295-.153-.549-.183-.549-.193-.478-.193-.447-.183-.335-.163-.274-.132-.234-.346-.56-.396-.65-.325-.529 2.268-.325.183-.01.315-.102.233-.061.244-.092.295-.091.285-.143.305-.173.295-.173.315-.234.294-.244.133-.132.143-.163.142-.153.112-.163.132-.203.112-.173.102-.213.092-.214.132-.305.152-.305.173-.325.173-.315.396-.63.447-.651.479-.661.528-.651.579-.661.61-.63.184-.193-.265-.01h-1.221l-.671.031-.722.051-.763.102-.763.122-.793.152-.782.183-.396.122-.377.132-.406.132-.387.132-.376.163-.366.173-.366.173-.355.193-.355.213-.336.213-.325.224-.315.254-.295.264-.265.275-.264.285-.255.315-.823 1.037-1.129-.65-1.586-.905-1.606-.874-1.616-.824-1.657-.793-1.657-.763-1.688-.732-1.677-.702-1.698-.671-1.719-.63-1.738-.6-1.738-.559-1.76-.539-1.759-.498-1.779-.458-1.779-.427-1.789-.407-1.779-.346-1.81-.325-1.8-.295-1.81-.254-1.79-.224-1.82-.173-1.789-.153-1.82-.102-1.799-.071-1.79-.041h-1.8l-1.799.041-1.79.071-1.779.122-1.759.152-1.779.193-.234.01-.549.061-.559.061-.244.02h-.285l-.233-.02-.203-.041-.214-.061-.214-.051-.193-.081-.162-.092-.193-.122-.163-.112-.152-.142-.142-.122-.133-.183-.122-.152-.111-.193-.092-.193-.102-.183-.062-.173-.051-.204-.04-.193-.041-.183-.061-.427v-.447l.02-.498.041-.499.081-.508.092-.478.122-.458.132-.417.133-.376.152-.346.945-2.593.071-.193-.233.02-.519.132-.519.153-.529.152-.519.193-.519.193-.508.234-.499.224-.518.254-.499.274-.498.285-.498.305-.488.315-1.454-2.603.163-.112.62-.396.61-.355.62-.326.62-.335.641-.285.6-.274.631-.224.641-.234.6-.213.63-.173.621-.132.609-.132.61-.102.59-.071.6-.071.579-.01 2.166-.061-2.542 7.208-.325.875-.092.427-.102.448-.071.458-.02.407v.061l.02.031v.021l.021.132.112-.02 1.108-.092 1.779-.193 1.769-.153 1.8-.112 1.8-.081 1.8-.031h1.819l1.811.01 1.81.082 1.819.091 1.841.142 1.81.173 1.83.204 1.82.254 1.819.294 1.82.305 1.81.366 1.811.386 1.799.427 1.8.427 1.779.508 1.779.519 1.77.559 1.759.58 1.738.641 1.739.651 1.718.691 1.698.711 1.698.752 1.678.793 1.657.824 1.626.844 1.627.895.071.03.041-.061.438-.386.457-.356.478-.355.499-.326.519-.305.538-.294.55-.265.559-.244.569-.233.6-.214.59-.193.61-.173.59-.153.62-.132.6-.122.61-.112.6-.082.61-.061.569-.051.59-.021.579-.02h.56l.528.02.539.041.519.061.478.051.468.102.447.091.428.122.366.132.365.132.326.173 2.084 1.118-1.871 1.423-.193.132-.457.386-.306.244-.346.335-.386.366-.417.396-.427.427-.438.478-.417.529-.417.519-.406.559-.387.569-.162.315-.153.285-.152.305-.152.315-.143.325-.162.305-.173.305-.193.295-.193.285-.224.274-.233.254-.255.244-.244.254-.284.203-.285.244-.284.183-.325.193-.325.193-.346.173-.346.163-.122.031.061.122.173.458.143.467.122.458.122.438.071.447.061.427.03.417.031.407-.031.265v.254l-.03.244-.021.254-.051.254-.04.234-.082.234-.071.224-.213.62-.193.63-.152.63-.152.62-.112.621-.092.589-.102.56-.051.539-.102 1.007-.061.823-.011.641-.021.387v.071l.051 2.664-2.287-1.312-.468-.275-1.017-.671-.661-.478-.732-.56-.376-.325-.396-.335-.406-.356-.396-.376-.407-.397-.396-.427-.406-.427-.377-.458-.386-.468-.356-.498-.355-.498-.336-.539-.314-.539-.274-.56-.255-.58-.224-.569-.193-.62-.152-.61-.132-.641-.081-.661v-.071l-.051-.041-2.115-.589-2.095-.529-2.095-.447-2.054-.336-2.074-.254-2.054-.173-2.023-.091-2.054-.051-2.003.071-2.023.112-1.992.193-1.982.264-1.993.315-1.963.376-1.941.447-1.963.478-1.932.559-1.921.6-1.912.641-1.922.681-1.881.732-1.901.773-1.87.813-1.851.824-1.861.885-1.85.884-1.83.946-1.811.945-1.819.966-1.82.996-1.789 1.007-1.79 1.017-.173.102-.122.071-.071.041v.071l.051 53.653v.143l.112-.021 2.196-.234 2.165-.254 2.177-.305 2.176-.366 2.145-.386 2.156-.437 2.145-.488 2.136-.519 2.125-.559 2.095-.61 2.104-.651 2.084-.671 2.084-.742 2.064-.763 2.044-.813 2.023-.844 2.013-.895 2.003-.925 1.973-.956 1.973-.997 1.921-1.047 1.942-1.078 1.881-1.108 1.871-1.149 1.86-1.189 1.83-1.21 1.81-1.271 1.79-1.292 1.779-1.332 1.708-1.362 1.698-1.403 1.688-1.424 1.759-1.565 1.719-1.597 1.657-1.637 1.627-1.657 1.586-1.667 1.535-1.718 1.494-1.729 1.444-1.779 1.403-1.779 1.352-1.82 1.322-1.84 1.261-1.871 1.22-1.881 1.169-1.912 1.129-1.921 1.067-1.952 1.018-1.962.976-1.973.936-2.033.874-2.023.824-2.033.772-2.044.722-2.074.671-2.084.62-2.095.58-2.125.519-2.115.457-2.135.396-2.135.366-2.155.305-2.176.234-2.176.132-1.332 7.199-.021-.011 43.913h-7.402l-.011.082-.712 1.81-.772 1.79-.793 1.769-.844 1.779-.874 1.759-.926 1.738-.956 1.729-1.017 1.739-1.026 1.688-1.067 1.698-1.129 1.678-1.149 1.657-1.199 1.627-1.221 1.647-1.271 1.586-1.302 1.606-1.332 1.556-1.372 1.566-1.403 1.515-1.443 1.525-1.475 1.474-1.494 1.495-1.546 1.434-1.565 1.434-1.587 1.383-1.646 1.383-1.668 1.352-1.667 1.322-1.729 1.292-1.759 1.271-1.77 1.25-1.8 1.22-1.84 1.19-1.83 1.158-1.881 1.119-1.892 1.077-1.881 1.058-1.922.996-1.932.986-1.952.946-1.941.895-1.973.895-1.983.823-1.992.804-2.003.772-2.014.712-2.023.691-2.013.661-2.044.62-2.043.569-2.034.539-2.054.498-2.063.468-2.044.427-2.064.387-2.075.345zM36.914 82.24l.031-.366.041-.346v-.346l-.041-.417-.071-.427-.102-.427-.132-.407-.173-.407-.204-.396-.254-.407-.285-.386-.326-.386-.346-.366-.376-.386-.447-.366-.458-.356-.499-.366-.528-.356-.58-.346-.346-.204-.356-.203-.386-.193-.387-.183-.396-.173-.396-.152-.407-.163-.437-.112-.427-.102-.437-.071-.437-.061h-.458l-.458.021-.458.061-.234.03-.234.071-.224.071-.224.081-.254.092-.244.112-.254.132-.244.143-.234.152-.224.173-.234.173-.213.193-.204.193-.213.214-.204.224-.193.254-.193.254-.193.244-.173.274-.173.285-.387.691-.335.702-.285.65-.274.58-.092.254.458.305.549.366.63.376.671.427.712.447.722.438.732.447.681.396.305.203.783.458 1.118.65 1.261.752 1.281.752 1.108.651.772.467.295.173.346.173.305.132.173.061.152.021h.152l.173-.041.173-.061.163-.092.173-.142.193-.193.193-.224.213-.274.224-.326.234-.386.152-.285.204-.407.254-.498.224-.58.122-.305.112-.325.092-.325.081-.356.086-.322zm2.765-1.556-.041.58-.071.549-.102.559-.153.559-.152.519-.183.549-.213.498-.213.498-.224.478-.254.468-.244.437-.254.447-.346.58-.315.539-.325.478-.295.478-.224.356-.214.335-.213.315-.173.305-.264.467-.224.407-.173.346-.153.326-.081.152-.082.132-.051.152-.081.132-.204.366-.132-.366-.061-.132-.091-.173-.173-.213-.274-.295-.396-.335-.569-.448-.773-.539-.997-.63-2.064-1.312-.986-.62-.132-.071-.325-.193-.478-.285-.559-.335-.549-.305-.478-.285-.326-.203-.132-.071-1.952-1.139-1.515-.844-1.18-.651-.915-.447-.386-.173-.346-.153-.305-.112-.285-.122-.569-.152-.6-.152-.305-.071.254-.244.285-.356.458-.62.478-.691.458-.691.285-.529.254-.518.244-.499.244-.519.294-.559.285-.59.326-.62.386-.651.295-.508.315-.498.336-.498.386-.499.396-.468.427-.458.203-.213.254-.213.233-.193.244-.193.244-.173.274-.173.285-.153.265-.152.305-.143.285-.112.326-.091.325-.102.325-.071.346-.061.346-.041.366-.021h.376l.387.021.396.041.427.061.396.071.407.102.396.112.407.132.763.264.702.315.63.285.559.294.417.234.325.173.386.224.376.274.407.264.396.315.427.305.397.346.386.366.376.386.387.427.345.417.346.468.305.478.285.519.244.519.122.295.112.264.091.295.082.305.071.295.081.305.051.305.041.285.02.295.021.305v.579zM210.085 263.79l.457-.275.458-.285.437-.325.447-.325.417-.336.011-.031.315-.233-.02.416-.021.255.021.284.04.184.051.192.082.225.101.294.183.458.203.477.255.488.244.478.275.468.274.458.265.426.223.397 3.152 5.206.539.885.498.762.234.335.243.305.224.265.255.254.284.255.285.223.295.194.305.152.295.122.336.091.314.061.325.021h.346l.366-.062.357-.081.376-.092.396-.152.376-.173.427-.214.397-.233.437-.285.366-.295.346-.305.285-.304.121-.153.112-.153.092-.162.102-.163.091-.183.061-.152.071-.173.041-.193.061-.305.02-.326v-.326l-.041-.334-.06-.327-.092-.325-.122-.325-.111-.346-.154-.325-.152-.325-.173-.336-.173-.325-.355-.651-.387-.64-3.151-5.196-.316-.518-.325-.519-.315-.499-.295-.487-.286-.438-.243-.366-.193-.315-.152-.213-.295-.357-.235-.294-.274-.234-.305-.223-.264-.214.304-.122.438-.193.407-.163.355-.193.367-.213.366-.235.365-.274.336-.285.366-.274.203-.194.081.295.092.458.143.468.173.457.223.529.265.59.386.711.458.834.59 1.017.182.274.438.732.62 1.037.712 1.169.721 1.19.641 1.048.436.731.173.285.377.733.386.752.173.407.173.386.133.407.121.416.102.428.061.417.041.447v.691l-.021.234-.041.234-.04.224-.051.254-.082.244-.071.254-.091.254-.153.326-.183.325-.193.325-.203.295-.224.284-.233.265-.244.274-.275.254-.264.235-.265.223-.295.214-.264.213-.539.366-.498.305-.488.285-.56.295-.569.265-.62.254-.305.091-.305.102-.315.091-.315.082-.306.06-.284.041-.305.01h-.559l-.265-.01-.244-.041-.243-.06-.255-.051-.234-.062-.223-.101-.214-.092-.224-.101-.193-.112-.213-.122-.184-.133-.385-.284-.367-.325-.345-.336-.325-.355-.306-.387-.305-.387-.58-.812-.528-.804-.021-.041-.152-.275-.417-.691-.59-.996-.701-1.118-.682-1.139-.589-.976-.417-.692-.163-.254-.783-1.251-.63-.945-.488-.712-.406-.519-.154-.193-.152-.152-.152-.132-.132-.122-.254-.194-.285-.152-.285-.193.326-.132.498-.234.477-.213zM85.87 24.875l.041-.224.02-.224v-.447l-.02-.224-.041-.234-.041-.234-.071-.224-.051-.254-.102-.234-.092-.244-.101-.232-.132-.254-.224-.376-.234-.376-.264-.305-.264-.274-.275-.244-.285-.193-.152-.071-.152-.082-.163-.061-.163-.051-.274-.083-.264-.041-.244-.021-.274.021-.244.021-.264.041-.234.061-.244.051-.447.152-.417.193-.335.183-.295.152-.437.224-.366.214-.315.213-.376.244.163.335.183.376.173.396.193.396.213.448.244.498.285.58.366.691.427.793.163.346.427.763.458.874.346.651.641-.305.294-.132.265-.122.254-.132.224-.112.427-.234.376-.274.346-.264.305-.275.285-.305.234-.305.091-.152.092-.153.081-.183.082-.152.071-.213.051-.193.036-.204zm3.141.011-.122.386-.132.427-.193.407-.183.387-.233.335-.244.356-.274.305-.285.315-.285.264-.305.264-.305.254-.305.234-.325.213-.61.376-.6.325-.285.173-.305.152-.305.163-.346.173-.569.264.366.681.508.925.458.803.406.732.376.62.335.539.295.458.254.386.224.326.213.254.173.213.152.153.132.122.213.152.132.051.041.021.041.02.336.173-.355.154-.478.213-.508.234-.468.224-.468.254-.478.264-.458.274-.458.274-.438.285-.081.041-.295.183.01-.356.02-.021v-.191l-.02-.214-.031-.254-.082-.285-.091-.315-.112-.346-.143-.356-.152-.427-.396-.905-.498-1.047-.569-1.149-.691-1.292-2.979-5.623-.436-.802-.458-.833-.478-.803-.509-.813-.244-.366-.254-.366-.244-.326-.244-.325-.234-.274-.224-.244-.234-.234-.214-.173-.244-.173.294-.132.407-.172.6-.254.61-.285.671-.315.762-.396.183-.102.295-.173.356-.213.427-.213.427-.254.396-.224.346-.193.224-.132.651-.346.691-.336.346-.152.355-.122.346-.142.366-.112.356-.102.376-.071.356-.041.366-.041h.356l.366.021.386.061.356.091.234.082.234.102.224.102.213.132.224.142.213.153.213.173.213.193.193.193.203.213.183.234.183.244.193.254.173.295.163.265.173.305.264.519.254.6.112.305.091.315.102.346.081.325.051.356.041.356.02.366v.366l-.02.386-.041.356-.066.383zM21.144 126.041v-.407l-.041-.386-.061-.386-.071-.386-.132-.356-.142-.366-.143-.274-.183-.254-.163-.264-.193-.254-.213-.254-.224-.224-.254-.234-.244-.204-.234-.183-.244-.173-.254-.153-.264-.173-.285-.132-.285-.153-.325-.132-.305-.142-.325-.112-.346-.143-.366-.091-.366-.112-.762-.193-.824-.152-.59-.122-.65-.081-.691-.051-.702-.041h-.732l-.356.021-.366.041-.366.061-.366.051-.335.082-.346.091-.235.08-.244.091-.213.102-.204.092-.406.213-.366.254-.305.244-.285.275-.244.285-.233.294-.193.285-.154.285-.153.294-.112.285-.102.275-.071.244-.061.254-.051.234-.041.346-.041.325v.651l.041.335.061.315.071.315.091.335.082.204.081.193.112.214.092.193.122.193.132.173.132.183.152.183.305.346.346.326.396.315.427.285.458.275.498.244.508.234.58.204.59.193.63.204.691.152.681.122.468.082.458.081.437.041.417.051.407.02.396.021h.762l.366-.021.366-.041.346-.031.325-.061.325-.071.285-.082.305-.091.264-.122.417-.173.447-.274.224-.153.254-.173.224-.203.234-.224.224-.244.236-.276.193-.285.193-.305.163-.346.152-.386.122-.407.091-.437.061-.407.022-.386zm2.328-1.352.021.508-.021.508-.041.529-.051.539-.102.539-.071.427-.102.396-.112.407-.112.386-.152.386-.152.376-.173.376-.173.346-.254.427-.285.417-.305.407-.326.366-.346.366-.356.325-.406.325-.417.275-.407.244-.417.234-.437.213-.458.163-.478.163-.478.132-.498.112-.519.081-.519.061-.539.041-.549.01h-.569l-.58-.03-.59-.061-.61-.082-.61-.112-.621-.112-.569-.132-.569-.163-.539-.152-.529-.183-.498-.203-.478-.224-.468-.234-.458-.254-.417-.244-.386-.295-.371-.293-.366-.315-.346-.325-.305-.346-.285-.346-.285-.396-.254-.376-.224-.386-.193-.427-.193-.407-.152-.437-.132-.427-.112-.468-.081-.458-.051-.458-.041-.468-.021-.499v-.478l.041-.508.051-.519.081-.499.112-.539.132-.539.163-.498.163-.488.193-.478.213-.438.224-.447.274-.417.264-.407.285-.366.326-.376.325-.346.346-.305.366-.285.376-.265.407-.254.376-.214.407-.173.396-.173.427-.132.437-.112.458-.122.458-.082.478-.051.498-.061.499-.021h.519l.528.021.539.041.549.031.58.081.569.092.59.142.6.132.549.152.539.153.539.193.488.204.478.203.478.234.447.244.417.254.396.264.386.295.366.305.346.326.325.356.295.346.295.355.265.396.244.397.234.406.193.427.152.427.153.427.112.468.081.458.071.488.039.503zM12.4 160v.448l-.03.203-.061.214-.072.213-.081.173-.112.193-.112.173-.152.153-.153.132-.163.121-.182.113-.173.101-.214.072-.203.04-.213.041-.214.02-.224-.02-.213-.041-.214-.04-.183-.072-.193-.101-.173-.113-.173-.121-.152-.132-.153-.153-.122-.173-.111-.193-.072-.173-.081-.213-.061-.214-.031-.203V160l.031-.213.061-.214.081-.193.072-.193.111-.163.122-.172.153-.163.152-.132.173-.133.173-.101.193-.092.183-.081.214-.031.213-.04.224-.031.214.031.213.04.203.031.214.081.173.092.182.101.163.133.153.132.152.163.112.172.112.163.081.193.072.193.061.214zm114.75 134.759.162-.63.092-.448.233.387.031.061.234.386.254.366.142.173.183.173.163.173.193.173.234.152.244.152.265.133.325.122.325.112.387.101.426.072.458.081.488.041h.478l.234-.021.214-.02.203-.04.214-.041.203-.051.193-.061.193-.061.173-.072.173-.101.162-.092.163-.102.153-.111.203-.193.193-.194.173-.233.132-.244.133-.254.09-.265.072-.274.051-.295.02-.306-.041-.304-.03-.275-.102-.264-.092-.254-.152-.244-.152-.234-.173-.214-.214-.193-.203-.203-.234-.203-.254-.173-.488-.346-.518-.346-.021-.02-.346-.224-.701-.509-.722-.498-.356-.212-.458-.357-.498-.406-.233-.235-.244-.253-.224-.286-.203-.295-.194-.325-.193-.345-.142-.366-.132-.417-.031-.214-.041-.213-.041-.234-.019-.244v-.772l.03-.286.04-.355.062-.325.081-.325.092-.306.101-.316.122-.284.143-.285.152-.274.152-.264.183-.255.193-.254.194-.223.234-.214.213-.213.244-.193.254-.173.265-.173.264-.173.285-.132.315-.133.305-.122.295-.111.336-.102.335-.071.356-.061.335-.061.366-.041.357-.01.385-.02.387.02.376.01.407.041.335.04.346.082.366.071.346.102.65.193.498.132.458.152.498.153.316.101.254.051.223.062.194.06-.051.194-.194.477-.142.428-.102.366-.101.356-.081.366-.072.385-.071.468-.081.519-.082.458-.224-.376-.203-.295-.254-.306-.131-.173-.173-.172-.194-.173-.214-.193-.233-.153-.234-.173-.295-.162-.305-.133-.325-.111-.366-.112-.397-.081-.417-.061-.427-.031h-.396l-.396.031-.377.081-.335.092-.346.141-.305.164-.285.213-.214.193-.192.214-.173.234-.153.233-.112.265-.092.274-.081.264-.041.295-.009.326v.305l.05.265.051.274.122.254.112.244.132.214.173.213.173.193.193.194.204.172.213.173.448.325.436.285 1.221.773.02.021.803.498.763.539.355.294.357.285.314.304.295.346.153.184.132.173.112.193.122.183.101.193.102.193.082.213.071.235.081.233.051.224.041.234.02.264.01.255.031.274-.031.284-.01.285-.031.316-.06.304-.092.305-.071.315-.092.286-.111.284-.113.274-.141.275-.154.244-.141.254-.184.244-.173.234-.182.213-.194.214-.223.214-.214.182-.173.123-.173.131-.233.154-.224.132-.265.142-.315.132-.325.132-.366.122-.376.112-.417.081-.448.071-.467.061-.529.041h-.528l-.59-.02-.61-.061-.458-.062-.448-.05-.436-.081-.417-.072-.519-.122-.417-.111-.366-.122-.346-.133-.304-.132-.325-.132-.326-.172-.356-.194-.162-.081.07-.153.163-.346.132-.325.122-.316.112-.325.091-.345.122-.427zM106.611 28.556l-.498.152-.549.204-.6.213-.691.254-.722.265-.803.305-.204.081-.844.325-.732.295-.65.245-.57.253-.508.214-.509.224-.478.234-.498.254-.244.132v-.295l-.02-.437-.02-.407-.031-.386-.081-.417-.132-.62-.173-.61-.193-.661-.204-.641-.234-.65-.223-.651-.254-.63-.224-.641-2.613-6.761-.071-.193-.437-1.099-.376-.904-.316-.743-.305-.64-.285-.539-.284-.519-.346-.488-.407-.528-.162-.214.244-.081.061-.02.223-.052.306-.081.345-.122.448-.132.528-.183.651-.234.762-.274.926-.346.742-.305.742-.305.763-.325.772-.305.742-.336.723-.305.711-.315.651-.285.173-.081.071.193.061.193.051.193.061.173.061.173.091.295.082.264.091.264.092.295.132.305.142.316.153.315.173.356.264.538-.498-.304-.397-.194-.366-.152-.193-.041-.193-.041-.214-.02h-.223l-.255.041-.264.04-.305.072-.346.081-.813.275-1.017.376-.651.254-.559.244-.569.254-.61.275.132.366.112.356.142.376.133.376.131.376.133.356.132.366.142.356 1.048 2.745.345-.091.315-.102.346-.112.346-.112.356-.122.406-.153.428-.152.477-.193.702-.275.62-.264.244-.142.234-.122.203-.122.173-.112.132-.122.133-.112.101-.092.092-.122.152-.243.153-.275.02-.041.234-.437.112.478.101.478.112.447.132.458.214.518.162.468.194.386.193.366.214.367.223.365-.417-.101-.284-.051-.234-.041-.224-.02-.213-.021-.234.021-.224.02-.254.051-.295.081-.509.133-.498.152-.498.173-.508.203-.559.204-.61.233-.651.265-.742.315.172.437.255.641.294.762.305.793.295.773.245.651.172.447.061.153.153.366.132.305.132.275.132.223.122.193.143.153.081.061.081.061.071.041.102.04.183.031h.234l.264-.031.285-.061.346-.091.407-.143.437-.152.498-.194.264-.111.387-.153.478-.223.508-.275.325-.183.295-.153.244-.173.234-.152.203-.152.193-.153.153-.163.153-.132.254-.285.203-.284.173-.295.173-.305.305-.549.041.62.02.6.041.498.03.427.061.386.051.367.081.386.092.417.122.508.03.153-.132.051-.193.06-.183.061-.234.072-.224.081-.407.132zM263.85 92.173l-.213-.406-.234-.407-.224-.376-.264-.386-.04-.082-.173-.244.304-.02.417-.041.498-.081.306-.051.365-.101.428-.112.468-.133.609-.213.692-.254.753-.285.813-.305 1.769-.732 1.85-.814 1.871-.843 1.749-.814 1.616-.783 1.312-.681.772-.417.59-.366.244-.152.214-.153.173-.142.152-.133.132-.111.113-.142.101-.112.092-.133.152-.274.132-.285.214-.406.132.426.193.651.214.58.183.518.214.498.172.407.285.58.345.691.438.732.051.112-.081.102-.265.294-.234.245-.254.264-.265.325-.325.397-.427.498-.528.651-.672.824-.071.101-.061.091-5.105 7.067-1.544 2.196-.346.478-.295.406-.244.346-.234.295.549-.274.539-.265.61-.274.6-.265.6-.274.569-.274.56-.224.508-.254.274-.112 3.376-1.505.803-.366.732-.346.651-.305.569-.295.518-.264.438-.254.387-.214.314-.203.265-.193.264-.173.183-.153.163-.142.254-.244.173-.193.214-.275.101.326.112.376.153.437.192.518.265.58.163.386.192.407.235.396.233.407.112.234-.274.021-.315.03-.367.041-.376.081-.426.092-.489.142-.579.183-.672.234-.782.305-1.179.488-1.201.478-1.178.498-1.221.508-1.22.519-1.251.539-1.27.559-1.302.579-.62.265-.6.284-.64.295-.631.305-.61.306-.63.356-.621.345-.599.356-.194.142-.071-.234-.02-.081-.122-.376-.112-.386-.122-.387-.152-.366-.143-.335-.173-.316-.193-.335-.233-.336-.092-.122.092-.101.436-.55.377-.487.315-.417.326-.428.325-.467.386-.559.458-.651.579-.803 5.287-7.433 1.241-1.779.498-.712.417-.589.365-.509.316-.396-.579.305-.59.325-.682.346-.721.366-.824.407-.915.427-1.048.477-1.169.539-3.365 1.485-.64.284-.651.295-.651.326-.661.325-.62.366-.61.386-.285.204-.295.223-.264.204-.254.233-.224.234-.081-.294v-.01l-.112-.468-.112-.447-.142-.438zM47.956 229.729l.264.325.295.325.183.254-.305.041-.326.041-.356.061-.406.051-.437.071-.499.081-.559.122-.63.132-.702.153-.803.193-1.108.275-1.149.284-1.18.285-1.21.325-1.26.336-1.322.366-1.373.376-1.433.407-1.037.305-.854.254-.763.254-.671.214-.63.223-.631.234-.671.264-.742.336-.153.051-.101-.132-.183-.387-.234-.407-.244-.396-.275-.407-.223-.325-.254-.346-.265-.335-.285-.325-.101-.112-.092-.133.112-.111.102-.102.203-.214.234-.234.264-.304.407-.478.61-.753.59-.752.518-.692.437-.579 5.603-7.605.63-.885.529-.772.447-.631.376-.539.306-.468.294-.416.224-.366.234-.367.224-.406.193-.326.152-.325.153-.396.173-.356.172.346.265.498.264.498.275.467.284.448.306.437.345.417.346.407.346.406.02.041.173.214-.234.071h-.041l-.04.02-.092.041-.153.081-.172.112-.234.153-.264.213-.306.285-.366.366-.396.468-.407.518-.478.59-.589.752-.743.986-1.474 1.922-1.047 1.352-.864 1.118-.712.906-.58.762-.518.712-.519.681-.539.732-.589.844 1.006-.305 1.403-.447 1.627-.499 1.657-.518 1.586-.488 1.322-.397.915-.295.346-.091 1.302-.427 1.158-.386 1.037-.367.895-.365.743-.326.62-.295.244-.152.234-.133.173-.111.131-.132.031-.021.02-.02.194-.153.101.214.112.244.112.254.132.234.132.244.123.254.131.224.133.234.152.213.254.346z"/><path d="M155.161 151.409v-95.93H143.56v104.826l.162-.152.905-.213.834-.213.793-.173.722-.153.62-.132.56-.112.478-.102.387-.081.061-.021.041-.03.295-.539.335-.519.315-.498.346-.509.346-.498.366-.478.366-.488.355-.478.387-.458.376-.447.406-.447.396-.417.428-.427.396-.417.437-.407.428-.386.061-.041v-.06zm3.111-58.656h57.945v-7.839h-58.056v7.838h.111zm1.565-41.32-.061-.529-.092-.529-.111-.518-.153-.499-.173-.498-.192-.488-.204-.478-.233-.458-.244-.448-.295-.417-.284-.427-.326-.407-.325-.386-.355-.366-.376-.366-.377-.326-.396-.325-.427-.285-.417-.274-.437-.274-.458-.224-.488-.213-.478-.193-.498-.173-.488-.132-.519-.122-.519-.091-.539-.082-.528-.041-.56-.01-.539.01-.528.041-.528.082-.519.091-.519.122-.519.132-.488.173-.488.193-.457.213-.458.224-.457.274-.417.274-.427.285-.397.325-.386.326-.356.366-.365.366-.326.386-.335.407-.274.427-.285.417-.254.448-.234.458-.203.478-.193.488-.183.498-.143.499-.122.518-.081.529-.061.529-.051.549-.011.529v.396l.011.376.051.376.04.376.051.366.082.366.091.366.102.366.092.346.132.366.133.346.132.346.173.346.184.325.162.335.193.326.233.346V52.44l17.62.02v5.948l.214-.366.183-.305.173-.325.153-.325.152-.336.132-.346.143-.325.111-.346.092-.346.102-.346.071-.356.051-.355.071-.346.03-.376.041-.356.021-.366v-.377l-.021-.529-.044-.548zm-19.42 33.481H82.301v7.839h58.239v-7.839h-.123zm20.529 51.498 1.302-.183 1.301-.173 1.262-.163 1.25-.153 1.23-.112 1.23-.112 1.179-.102 1.17-.091 1.148-.082 1.118-.061 1.108-.051 1.058-.041 1.047-.021 1.018-.021 1.952-.02 1.789.041 1.688.061 1.546.071 1.372.122 1.23.132.549.071.509.082.468.071.417.082 1.118.244.071 1.098.051.335.041.346.071.325.102.305.091.315.112.305.143.305.142.295.163.305.173.274.173.285.183.265.214.274.193.264.224.254.214.254.478.478.498.458.498.448.519.406.529.387.538.355.519.356.509.305.214.091-.021-.224-.041-.427v-.407l-.01-.396v-.945l.01-.539.041-.539.04-.529.062-.508.071-.519.081-.508.092-.478.021-.173.02-.173.021-.173v-.487l-.04-.305-.052-.285-.081-.295-.081-.274-.092-.264-.102-.244-.102-.244-.214-.396-.192-.305-.133-.213-.081-.091-.152-.224-.356-.499-.447-.58-.325-.458 2.064-.62.121-.051.265-.102.152-.092.184-.112.213-.142.234-.153.203-.193.234-.214.224-.244.233-.274.193-.326.193-.346.173-.386.152-.447.092-.326.111-.335.143-.356.132-.346.152-.366.153-.346.192-.366.163-.346.427-.732.438-.732.519-.732.528-.732.163-.203-.295.01-.579.081-.631.071-.691.122-.732.152-.742.173-.772.234-.763.244-.763.295-.376.152-.386.173-.356.173-.376.193-.356.213-.345.203-.346.244-.326.224-.325.254-.305.244-.285.274-.264.285-.274.295-.244.305-.214.305-.203.346-.753 1.312-1.301-.711-.956-.539-.956-.519-.945-.498-.976-.508-.956-.478-.977-.468-.955-.437-.956-.438-.976-.427-.956-.427-.977-.396-.976-.386-.977-.366-.955-.376-.977-.346-.966-.326-.976-.325-.997-.305-.976-.285-.966-.295-.997-.274-1.006-.264-.966-.234-.997-.224-.996-.234-1.007-.213-.996-.193-1.017-.173-.997-.173-1.006-.152-1.007-.153-1.017-.142h-.133v17.813l.133-.041 1.332-.213 1.322-.208zm-55.636-10.869-1.505.478-1.495.519-1.515.539-1.505.58-1.495.6-1.484.63-1.474.671-1.454.702-1.434.752-1.413.783-1.383.803-1.332.875-1.301.905-1.261.946-1.2.996-1.169 1.058-1.108 1.098-1.057 1.139-.986 1.21-.915 1.25-.864 1.322-.763 1.373-.711 1.444-.61 1.505-.152.427-.152.499-.153.559-.132.61-.112.691-.102.732-.03.397-.021.396-.02.407v.905l.02.478.031.499.041.478.061.488.071.508.102.478.112.498.021.152.02.173.021.173v.407l-.021.204-.041.244-.051.224-.082.234-.081.244-.092.234-.112.234-.142.234-.132.254-.154.218-.143.254-.366.478-.427.498-.437.499-.478.528-.519.519-.549.539-1.2 1.098-1.291 1.169-.813.773-.905.824-.915.864-.864.874-.396.417-.366.427-.346.407-.285.386-.244.366-.213.326-.071.152-.061.153-.061.152-.02.142v.071l.061.041.061.041.112.051.173.02h.193l2.288-.325 2.308-.417 2.359-.488 2.349-.539 2.369-.6 2.369-.651 2.369-.691 2.369-.752 2.369-.772 2.338-.824 2.329-.844 2.298-.875 2.257-.885 2.227-.925 2.186-.905 2.125-.925 2.084-.925 2.013-.905 1.962-.895 1.871-.905 1.81-.875 1.718-.844 1.647-.834 1.525-.783 2.807-1.444 2.358-1.25 1.871-1.037 1.363-.752.945-.559.976-.519.997-.539.996-.508.996-.519.986-.478 1.017-.508 1.027-.458 1.017-.478 1.037-.447 1.027-.458 1.057-.417 1.048-.447 1.047-.407 1.058-.407 1.067-.396.081-.02v-23.334l-.132.041-.387.031-.386.021-.376.041-.407.061-.387.041-.365.031-.356.041-.366.061-2.003.224-.295.02-.66.041-.671.041-.306.021-.325.01-.284-.031-.306-.061-.274-.091-.265-.143-.243-.152-.214-.204-.214-.224-.102-.132-.071-.132-.071-.132-.081-.152-.132-.356-.112-.356-.071-.407-.061-.467-.03-.478-.031-.519.031-.6.03-.63.071-.701.102-.702.132-.773.152-.813.173-.844.204-.905.061-.193-.203.071-.427.163-.417.193-.407.193-.417.204-.417.234-.406.254-.396.254-.427.285-.396.285-.407.315-.376.305-.406.326-.377.346-.386.345-.356.366-.376.366-.355.386-.346.407-.346.386-.346.396-.306.427-.325.427-.305.417-.285.447-.264.438-.265.447-.274.447-.234.438-.224.467-.204.458-.193.458-.193.468-.041.092-.326.6-.03.082-.082.152-.102.183-.071.163-3.172.834-2.653.701-2.786.752-1.464.407-1.454.417-1.464.447-1.496.463zm56.368-67.329-.163.325-.173.326-.162.335-.173.305-.193.315-.214.305-.193.305-.233.285-.204.285-.234.295-.244.285-.244.275-.254.274-.265.244-.264.275-.274.224-.031.061v7.87l.163-.092.62-.315.61-.335.59-.366.579-.407.569-.407.539-.427.528-.438.539-.468.488-.478.498-.499.468-.519.458-.519.437-.559.417-.569.396-.569.387-.6.366-.61.346-.62.305-.63.305-.641.265-.651.254-.661.234-.671.193-.671.192-.671.143-.671.132-.702.122-.691.071-.691.071-.722.021-.681.03-.722-.03-1.027-.071-1.047-.132-1.006-.184-.997-.224-.986-.264-.956-.326-.946-.365-.925-.396-.905-.438-.884-.498-.844-.519-.813-.58-.813-.59-.763-.62-.732-.681-.712-.702-.671-.722-.63-.772-.6-.793-.58-.834-.519-.834-.508-.864-.447-.904-.396-.915-.366-.936-.325-.945-.265-.977-.233-.996-.173-1.007-.143-1.017-.071-1.037-.02-1.047.02-1.018.071-1.006.143-.997.173-.976.233-.956.265-.936.325-.925.366-.895.396-.875.447-.844.508-.823.519-.783.58-.763.6-.742.63-.691.671-.671.712-.65.732-.59.763-.56.813-.528.813-.478.844-.458.884-.406.905-.356.925-.315.946-.284.956-.234.986-.162.997-.112 1.006-.091 1.047-.031 1.027.031.722.03.712.061.691.071.712.122.691.122.691.183.691.163.682.214.671.233.671.244.661.265.65.314.63.326.641.335.62.346.61.396.6.407.58.427.569.427.539.468.539.458.529.498.499.508.458.519.467.529.438.559.427.58.397.59.396.59.355.62.346.609.336.173.091v-7.839l-.061-.03-.265-.254-.295-.244-.264-.254-.255-.274-.254-.264-.233-.285-.234-.294-.233-.285-.224-.295-.214-.305-.183-.315-.193-.305-.193-.325-.173-.326-.173-.325-.152-.325-.152-.356-.153-.326-.122-.346-.121-.346-.112-.346-.102-.366-.092-.366-.102-.346-.051-.366-.081-.366-.062-.366-.03-.386-.041-.356-.02-.396-.031-.356v-.398l.031-.681.04-.722.092-.671.122-.671.143-.661.192-.651.214-.63.244-.62.265-.61.314-.58.326-.579.335-.56.387-.539.427-.519.417-.478.468-.488.457-.468.488-.417.519-.407.528-.376.56-.356.569-.326.59-.305.59-.274.62-.244.65-.213.631-.193.661-.152.681-.122.661-.092.712-.041.681-.021.712.021.682.041.681.092.682.122.65.152.65.193.631.213.61.244.609.274.569.305.58.326.549.356.549.376.509.407.498.417.478.468.438.488.447.478.396.519.387.539.335.56.346.579.285.58.284.61.255.62.203.63.173.651.162.661.122.671.082.671.061.722.021.681v.396l-.021.356-.021.366-.04.376-.062.356-.03.366-.081.366-.071.366-.081.356-.092.356-.102.346-.112.345-.111.356-.133.326-.132.346-.151.325zm1.657 58.585 1.017.193.986.193 1.017.203.996.244.986.244.997.244 1.006.254.986.295.966.264.997.305.986.305.985.335.967.346.976.346.977.366.976.366.986.386.966.407.977.417.976.427.956.438.976.447.977.478.976.467.945.499.977.498.956.519.102.061.081-.091.366-.448.427-.447.458-.396.457-.386.498-.386.499-.346.538-.326.529-.305.579-.295.56-.295.559-.244.601-.234.59-.203.589-.214.59-.183.601-.153.6-.152.59-.112.59-.112.569-.102.559-.061.549-.051.539-.061.509-.021h.976l.458.041.447.041.396.051.387.061.346.102.325.091.264.112.651.234.782.274.59.224-1.769 1.677-.152.173-.428.427-.264.305-.326.366-.346.407-.365.458-.377.498-.386.519-.366.58-.355.6-.346.62-.306.63-.132.325-.122.326-.112.335-.122.346-.091.325-.112.326-.122.315-.122.305-.152.305-.183.295-.163.265-.173.264-.193.274-.213.254-.224.224-.234.254-.224.213-.264.213-.255.204-.284.193-.102.061.04.092.193.447.173.447.132.437.133.427.071.447.091.417.031.427.02.427-.02.325-.021.326-.033.306-.071.305-.071.427-.071.427-.062.417-.04.447-.041.437-.01.468-.021.458v.488l.021.864.03.793.061.681.082.62.071.508.051.366.051.224.021.082.07.346.173.783.214.925.163.732-2.634-1.037-.498-.213-1.108-.519-.722-.386-.804-.458-.427-.275-.438-.264-.457-.305-.458-.315-.437-.346-.468-.346-.458-.386-.457-.407-.438-.407-.447-.427-.407-.468-.406-.467-.387-.499-.365-.519-.326-.539-.295-.539-.295-.58-.243-.6-.193-.61-.173-.641-.021-.051-.071-.02-1.108-.132-1.22-.143-1.362-.091-1.475-.061-1.565-.051h-3.448l-1.851.051-1.921.102-1.993.112-2.064.173-2.114.193-1.078.112-1.067.132-1.108.142-1.088.153-1.118.152-1.099.173-1.128.193-1.129.193-.092.021v9.202l1.454 2.603-.487.346-.468.346-.479.356-.457.376-.468.396-.458.407-.437.427-.447.447-.438.438-.417.467-.396.478-.427.478-.387.498-.396.519-.376.529-.377.529-.355.569-.346.559-.346.549-.325.58-.336.651-.711.122-1.28.224-1.343.274-1.402.305-1.454.325-1.535.386-1.566.427-.406.112-.783-2.877v-.081l.03-15.902v-.173l-.152.051-.955.366-.967.387-.935.386-.956.407-.945.407-.946.417-.935.427-.936.427-.915.437-.946.447-.895.458-.904.468-.905.458-.874.468-.885.478-.864.478-1.373.773-1.911 1.057-2.389 1.271-2.827 1.484-1.566.793-1.667.823-1.759.864-1.83.895-1.912.895-1.993.925-2.064.925-2.105.945-2.176.925-2.216.946-2.257.905-2.308.895-2.328.905-2.359.854-2.389.823-2.41.813-2.4.742-2.43.722-2.43.671-2.41.6-2.399.559-2.39.478-2.379.427-2.349.346-.204.01-.213.021h-.213l-.204-.021-.213-.01-.193-.041-.213-.061-.203-.051-.193-.061-.193-.082-.193-.091-.173-.102-.173-.092-.163-.122-.163-.132-.152-.132-.203-.234-.193-.244-.173-.254-.132-.275-.091-.285-.082-.294-.061-.305-.02-.285v-.234l.041-.254.041-.224.061-.254.071-.244.102-.234.092-.254.112-.244.132-.254.295-.478.346-.519.376-.498.437-.529.458-.519.498-.519.539-.539.549-.539 1.19-1.118 1.261-1.139.976-.884.935-.885.895-.864.803-.823.366-.387.325-.366.285-.366.244-.335.193-.285.163-.285.051-.122.041-.112.02-.112v-.144l-.112-.559-.102-.549-.091-.569-.061-.569-.061-.56-.051-.559-.021-.559v-1.077l.021-.519.03-.478.041-.468.061-.458.061-.427.051-.417.071-.407.173-.752.193-.671.193-.621.193-.519.661-1.637.752-1.556.844-1.505.895-1.423.986-1.362 1.058-1.312 1.118-1.241 1.159-1.189 1.22-1.139 1.281-1.078 1.342-1.017 1.373-.966 1.403-.945 1.444-.864 1.474-.844 1.495-.793 1.525-.752 1.545-.711 1.556-.671 1.556-.63 1.596-.6 1.566-.58 1.566-.539 1.566-.519 1.565-.498 1.525-.468 1.535-.447 1.505-.417 2.908-.793 2.796-.722 1.79-.468.061-.021.021-.061.264-.65.305-.651.305-.641.346-.641.366-.61.376-.62.406-.59.417-.59.447-.59.458-.559.458-.549.498-.549.488-.519.498-.498.519-.498.529-.468.549-.438.549-.447.549-.396.58-.386.549-.366.579-.346.57-.325.569-.295.579-.264.59-.254.579-.213.569-.173.58-.173.559-.112.56-.102.56-.061 2.236-.204-.661 2.135-.314 1.139-.306 1.129-.274 1.118-.213 1.078-.184 1.027-.143.936-.03.447-.04.407-.021.356v.854l.051.152.01.112.082-.021 1.352-.092h.062l.295-.041.65-.071.65-.081.306-.021.427-.051.438-.061.416-.061.448-.03.406-.041.438-.061.417-.02.416-.041.122-.01V95.793H79.281V81.894h61.258v-7.737l-.081-.041-.803-.346-.773-.366-.742-.407-.742-.427-.701-.458-.712-.468-.681-.508-.682-.519-.65-.559-.601-.59-.62-.59-.569-.641-.579-.63-.529-.671-.519-.702-.498-.702-.478-.732-.427-.752-.407-.752-.386-.793-.366-.772-.325-.803-.285-.783-.265-.833-.233-.803-.203-.854-.184-.824-.132-.844-.112-.875-.081-.844-.041-.864-.03-.875.041-1.189.092-1.19.132-1.159.224-1.149.265-1.149.295-1.088.376-1.098.406-1.058.458-1.017.528-1.027.569-.966.6-.956.641-.905.682-.885.732-.854.793-.803.793-.772.844-.732.874-.691.905-.65.945-.62.966-.56 1.007-.519 1.017-.458 1.067-.427 1.068-.366 1.107-.305 1.119-.275 1.148-.193 1.159-.153 1.169-.091 1.2-.021 1.189.021 1.169.091 1.159.153 1.149.193 1.108.275 1.107.305 1.068.366 1.047.427 1.037.458.996.519.966.56.936.62.926.65.884.691.824.732.813.772.772.803.722.854.682.885.65.905.61.956.559.966.519 1.027.458 1.017.417 1.058.366 1.098.314 1.088.255 1.149.213 1.149.152 1.159.082 1.19.03 1.189-.021.875-.03.844-.081.864-.112.854-.162.844-.163.824-.193.833-.233.824-.265.803-.305.813-.306.793-.366.783-.376.772-.396.752-.447.752-.457.732-.499.712-.519.691-.528.671-.569.661-.579.61-.59.6-.631.58-.65.56-.65.539-.691.498-.702.478-.712.468-.742.417-.752.386-.763.386-.783.346-.071.021v7.778h61.066v13.899l-60.954-.041h-.112v20.254l.092.021 1.027.132 1.017.132 1.017.163 1.007.173 1.016.173zm112.483 14.214-.143-.468-.092-.305.316.072.254.081.274.051.285.061.335.02.428.02h.519l.65-.04.783-.061.925-.092.905-.091.865-.102.843-.092.854-.101.845-.112.874-.112.915-.122 2.125-.285 1.433-.233 1.109-.194.884-.152.641-.122.498-.092.386-.081.295-.051.315-.081.387-.112.314-.102.276-.091.233-.092.356-.173.326-.203.263-.152v.366l.031.518v.529l.031.518.061.519.071.498.112.519.132.498.122.528.021.021.071.285-.295-.082-.316-.071-.264-.081-.295-.051-.264-.051-.285-.02-.305-.011h-.681l-.865.061-1.108.103-1.434.162-1.819.213-2.105.306-.955.142-.885.112-.864.132-.834.122-.833.132-.845.132-.874.153-.936.152-.691.112-.549.122-.458.112-.386.122-.325.132-.306.132-.314.173-.336.213-.265.173v-1.504l-.04-.499-.061-.457-.092-.539-.111-.539zm-20.376 92.29-.316.051-.467.061.285-.346.396-.539.346-.478.325-.488.285-.478.224-.386.314-.559.346-.712.336-.773.041-.112.152.02.386.061.346.052.377.04.427.041.528.04.672.031.863.061 1.089.061.03.02h.04l8.704.041 2.674-.031h1.515l.355.031-.548-.315-.58-.325-.62-.346-.59-.346-.589-.356-.57-.325-.539-.326-.498-.284-.051-.02-3.172-1.881-.773-.468-.701-.387-.641-.345-.559-.305-.498-.254-.457-.204-.408-.183-.355-.152-.325-.112-.265-.092-.254-.081-.214-.041-.345-.061-.265-.03-.325-.041.203-.254.234-.305.265-.386.284-.437.336-.57.213-.336.184-.386.193-.407.192-.406.031-.061.102-.244.183.213.214.244.244.254.274.275.325.284.397.326.488.366.59.417.701.468 1.078.691 1.077.681 1.099.681 1.128.702 1.149.691 1.169.712 1.18.712 1.199.712.601.345.589.346.589.346.631.335.611.325.63.306.65.305.651.274.224.091-.173.194-.03.061-.265.325-.234.305-.234.315-.203.346-.173.326-.172.325-.143.366-.143.386-.05.112h-.122l-.732-.031-.59-.02-.55-.02h-.518l-.579-.021-.651.021h-.793l-.976.02-9.1.02h-2.135l-.864.011-.732-.011h-1.139l.59.265.62.315.681.335.722.397.793.437.884.478.977.579 1.108.662 3.183 1.88.609.346.631.366.63.346.651.346.66.295.662.264.345.112.336.122.346.081.325.071.305.051-.203.234-.031.041-.305.345-.284.366-.265.346-.224.366-.223.407-.194.407-.162.416-.153.427-.04.102-.112.285-.194-.234-.284-.326-.366-.366-.224-.213-.295-.244-.315-.275-.416-.305-.509-.386-.6-.407-.661-.437-.732-.488-1.616-1.017-1.719-1.037-1.779-1.037-1.708-.976-1.545-.834-1.323-.701-.782-.386-.651-.265-.265-.122-.224-.071-.233-.051-.193-.061-.194-.041-.172-.02h-.305zm-140.595-26.324.02.122v.132l-.02.143-.02.102-.041.132-.051.121-.122.173-.071.082-.092.112-.142.101-.173.112-.183.122-.254.112-.285.132-.325.112-.376.143-.448.131-.498.112-.549.133-.03-.173-.082-.325-.325-.265-.366-.336-.326-.244-.111-.111.264-.376.234-.397.213-.387.184-.386.152-.285.132-.294.173-.265.173-.254.091-.091.102-.102.112-.092.122-.081.122-.051.142-.061.153-.02.152-.021h.153l.152.021.133.04.152.051.132.082.132.071.163.102.132.111.265.295.264.326.274.386.265.448.061.111.051.112zM244.746 64.406l-.295-.396-.315-.366-.315-.366-.366-.366-.387-.387-.417-.376-.234-.224.286-.091.314-.112.306-.153.304-.162.305-.163.306-.193.314-.214.336-.233.346-.254.712-.529.731-.6.845-.701.925-.763.03-.061 3.976-3.488 1.647-1.423 1.24-1.129.936-.894.661-.672.254-.264.213-.254.173-.214.132-.192.204-.346.182-.326.072-.142.061-.112.173.214.325.386.265.366.345.417.386.488.417.518.427.539.428.539.447.519.396.478.457.528.458.519.498.539.499.539.498.539.518.538.488.539.509.519.132.152-.173.122-.366.224-.305.193-.285.214-.264.223-.325.295-.305.285-.285.335-.294.326-.377.498.071-.61v-.122l.02-.326v-.365l-.02-.194-.061-.193-.071-.234-.102-.244-.131-.254-.154-.274-.173-.265-.192-.285-.224-.294-.234-.305-.224-.305-.253-.295-.265-.285-.244-.274-.254-.285-.254-.285-.163-.173-.173-.183-.173-.173-.173-.152-.132-.153-.132-.152-.153-.142-.132-.153-.884.702-.631.518-.549.478-.65.58-1.912 1.677.285.346.244.325.233.275.194.234.152.183.112.152.112.142.112.133.305.386.356.407.376.396.417.448.366.366.305.264.274.214.224.162.193.082.173.081.173.041.152.04.132.021.133.04.406.092-.346.234-.244.152-.295.214-.284.193-.304.213-.286.254-.345.326-.326.325-.304.305-.285.326-.081.071-.113.152-.132.122-.061-.366-.04-.234-.041-.203-.051-.213-.071-.234-.122-.255-.173-.284-.203-.325-.275-.407-.325-.478-.387-.478-.355-.427-.285-.346-.081-.101-.092-.092-.264-.295-.315-.366-.376-.417-.479-.539-1.281 1.109-1.088.945-.904.804-.763.701-.631.6-.538.539-.458.498-.396.498-.234.275-.142.244-.122.234-.122.264-.031.081-.152.275-.163-.254-.295-.468z"/><path d="m86.165 155.608.03.132v.366l-.03.143-.051.111-.051.133-.112.152-.081.102-.112.102-.133.111-.152.092-.213.142-.224.112-.285.112-.325.142-.386.132-.437.112-.478.133-.58.142-.03-.183-.082-.336-.325-.254-.366-.335-.325-.265-.133-.112.153-.173.132-.193.122-.193.132-.193.214-.386.183-.407.132-.285.163-.274.152-.265.163-.234.101-.112.112-.101.102-.091.122-.062.122-.071.132-.04.152-.041.163-.02h.143l.152.02.163.041.132.05.153.082.122.071.142.122.132.122.275.264.264.326.264.386.264.427.062.132zM84.69 262.437l-.386.346-.305.304-.265.295-.254.285-.457.621-.569.813-.265.376-.061-.477-.041-.306-.071-.386-.061-.234-.081-.234-.092-.244-.121-.254-.122-.255-.153-.263-.183-.244-.224-.275-.234-.274-.285-.244-.294-.255-.376-.243-.376-.235-.387-.173-.376-.131-.366-.123-.346-.061-.346-.01-.315.01-.315.061-.305.081-.284.092-.265.143-.244.152-.214.173-.213.183-.193.223-.153.224-.162.295-.122.265-.072.274-.071.265-.01.284.01.255.031.274.051.264.081.255.071.244.122.254.112.244.254.487.264.458.763 1.261.021.01.477.813.438.824.192.407.194.426.142.438.122.427.061.213.031.224.02.214.02.233.021.235-.021.213-.02.223-.02.235-.031.254-.061.223-.081.235-.071.253-.112.224-.122.254-.133.254-.152.244-.173.255-.173.254-.213.244-.183.233-.213.214-.224.213-.234.184-.234.173-.244.182-.244.153-.264.132-.265.132-.264.102-.285.112-.264.071-.285.061-.193.061-.234.04-.264.021-.265.011h-.63l-.346-.032-.376-.06-.386-.071-.427-.102-.437-.133-.438-.173-.478-.192-.498-.234-.498-.285-.539-.336-.356-.223-.366-.254-.366-.265-.376-.295-.406-.325-.316-.285-.295-.274-.254-.245-.223-.274-.204-.264-.213-.295-.245-.325-.101-.153.122-.102.295-.244.274-.233.244-.235.234-.233.529-.61.752-.884.285-.346.041.437v.041l.051.447.061.438.061.233.05.234.092.224.101.254.133.233.152.244.193.255.234.243.244.255.285.254.346.265.376.254.427.264.437.193.213.102.194.071.213.061.204.061.203.051.193.02.194.021.213.02h.193l.183-.02.173-.021.193-.03.264-.061.275-.122.244-.112.234-.153.223-.172.194-.194.193-.213.173-.254.152-.264.112-.276.082-.284.03-.264.02-.275-.02-.274-.03-.285-.082-.264-.071-.274-.112-.265-.112-.275-.142-.264-.305-.539-.305-.519-.02-.04-.194-.366-.437-.772-.417-.774-.193-.365-.264-.519-.255-.58-.111-.325-.122-.325-.071-.346-.082-.366-.01-.387-.021-.386.031-.396.082-.428.06-.213.052-.214.081-.213.091-.224.092-.233.122-.235.132-.233.132-.224.193-.295.203-.264.214-.275.234-.223.224-.234.234-.214.243-.193.265-.173.264-.152.275-.153.274-.142.285-.112.285-.091.304-.081.295-.082.295-.031.336-.041.305-.019h.641l.325.04.325.041.346.071.325.081.346.071.325.123.346.131.346.133.345.173.336.173.325.192.346.214.284.193.265.214.295.213.264.224.478.468.397.366.03.02.448.417.315.315.223.183.173.183.173.152.152.113zM255.615 78.915l-.295-.58-.244-.599-.112-.305-.112-.315-.102-.305-.071-.306-.081-.304-.041-.295-.04-.305v-.814l.04-.264.041-.254.061-.234.05-.244.083-.234.09-.234.103-.203.091-.214.112-.213.132-.193.264-.407.305-.366.346-.356.356-.335.346-.326.386-.315.813-.59.783-.559.021-.02 5.978-3.925 1.2-.823.945-.662.682-.518.498-.397.193-.183.152-.173.132-.131.113-.133.172-.274.153-.275.152-.305.173.305.031.102.243.468.224.437.224.437.275.427.305.447.325.438.325.427.346.406.041.061.264.326-.427-.041-.244-.021-.285.042-.182.03-.184.061-.233.081-.285.112-.457.214-.479.233-.477.265-.458.274-.478.285-.438.275-.396.264-.386.254-5.063 3.335-.906.589-.742.519-.304.234-.286.254-.263.224-.235.254-.253.285-.204.294-.172.306-.154.305-.121.325-.071.315-.041.326-.021.345.021.346.051.346.091.366.132.366.143.386.193.387.213.396.255.427.224.315.233.305.224.265.213.233.234.214.244.173.224.153.234.142.224.101.254.082.233.081.244.041.234.02h.468l.254-.041.244-.04.254-.061.244-.082.235-.091.487-.193.498-.245.499-.294.498-.285.498-.325.498-.305 5.043-3.335.498-.336.519-.325.498-.346.478-.305.417-.285.366-.274.295-.214.193-.152.366-.285.285-.274.234-.285.214-.315.192-.265.112.316.214.437.192.386.184.356.213.376.255.346.284.325.274.346.316.366.193.234-.285.061-.467.122-.458.142-.457.194-.518.223-.571.315-.68.407-.824.478-.997.62-.263.193-.733.458-.996.65-1.149.773-1.169.753-1.007.65-.712.488-.264.173-.01.021-.712.396-.752.407-.387.193-.396.173-.376.153-.417.131-.427.102-.427.102-.428.03-.467.021h-.224l-.233-.021-.224-.02-.254-.041-.225-.051-.254-.061-.244-.081-.254-.071-.335-.152-.335-.153-.316-.193-.284-.193-.315-.234-.265-.234-.265-.244-.254-.254-.244-.255-.233-.264-.235-.264-.192-.275-.366-.538-.357-.499-.295-.508zM150.281 2.649l.04.387.051.427.101.447.071.397-.355-.203-.387-.255-.345-.193-.173-.081-.162-.051-.184-.041-.203-.061-.447-.061-.549-.01h-1.586l-2.106.112v.793l.021.803v.885l.02.945.041 1.058.04 1.179.041 1.322.072 1.505.06 1.118.062 1.098.051 1.058.05 1.026.092.936.081.884.092.773.122.671.061.346.071.295.06.254.051.183.163.325.153.295.163.285-.357-.031-.498-.061-.518-.02-.489-.02-.518.02-.559.041-.549.071-.559.081-.56.071h-.009l-.427.081.244-.345.03-.02.072-.133.09-.254.062-.213.06-.254.032-.326.04-.396.041-.509.03-.59.03-.711v-1.8l-.03-1.088-.03-1.25-.051-1.413-.102-1.922-.091-1.617-.081-1.352-.072-1.098-.082-.915-.07-.753-.062-.64-.06-.539-.611.041-.783.04-.691.021-.305.01-.763.071-.629.071-.276.03-.233.052-.224.05-.193.061-.194.062-.141.07-.153.082-.142.091-.295.194-.285.244-.366.335.071-.488.061-.376.04-.386.011-.387-.011-.407-.03-.325-.03-.325-.041-.305-.051-.346-.06-.275-.041-.294-.041-.245.234.041.447.031.651.02h.793l.976-.02 1.067-.031 1.169-.041L140.733.9l1.251-.05 1.383-.072 1.23-.07 1.118-.062 1.017-.05.915-.082.854-.071.824-.081.783-.092.213-.02-.021.224-.04.508-.01.468v.417l.01.406zm-45.063 268.776 1.048.407.935.345.874.316.834.285.773.254.773.223.233.081-.122.194-.233.417-.204.406-.183.407-.142.386-.132.366-.122.387-.112.417-.092.427-.101.386-.234-.345-.244-.367-.244-.305-.132-.142-.133-.133-.132-.111-.172-.122-.387-.224-.498-.254-.631-.285-.823-.355-1.972-.763-.306.712-.315.752-.335.783-.356.885-.407.985-.437 1.099-.478 1.25-.549 1.403-.386 1.007-.366 1.017-.376 1.007-.346.956-.305.924-.285.844-.234.773-.152.672-.092.334-.061.286-.02.254-.01.203-.031.356.041.325.04.346-.314-.173-.428-.255-.457-.233-.458-.203-.478-.194-.508-.193-.498-.152-.499-.153-.508-.122-.152-.041-.397-.111.356-.234h.02l.061-.04.071-.052.092-.081.102-.112.132-.153.153-.213.172-.295.193-.366.224-.437.275-.539.304-.64.326-.742.376-.885.427-1.027.458-1.149.498-1.311.691-1.79.549-1.505.458-1.25.386-1.058.305-.864.224-.722.193-.61.152-.539-.559-.213-.742-.285-.63-.234-.264-.122-.733-.265-.61-.193-.264-.06-.234-.051-.223-.041-.194-.041h-.549l-.172.02-.326.082-.386.112-.458.131.264-.426.194-.325.193-.326.173-.345.173-.367.091-.304.091-.295.082-.306.081-.325.031-.132.04-.152.041-.163.041-.153.051-.233.213.142.346.193.518.244.661.315.844.346.976.386 1.088.437 1.231.478 1.331.529 1.281.498zm-68.101-58.941.193.245-.325.04-.305.041-.285.03-.285.041-.274.061-.265.071-.284.082-.326.122-.325.132-.803.345-.997.499-1.281.63-1.626.854-1.891 1.017-.875.468-.803.417-.763.426-.752.407-.722.417-.742.407-.753.447-.803.458-.61.366-.498.295-.376.264-.326.234-.264.234-.234.244-.234.254-.244.305-.193.274-.132-.335-.193-.559-.193-.488-.204-.468-.213-.407-.265-.498-.305-.468-.295-.417-.284-.386-.194-.274.326-.011.254-.03.265-.031.284-.04.346-.102.407-.132.498-.173.59-.264.721-.336.865-.417.823-.427.803-.386.763-.397.742-.386.763-.387.773-.406.772-.427 1.901-.997 1.241-.712.986-.579.773-.437.569-.325.427-.275.336-.193.274-.193.244-.173.346-.234.264-.214.214-.172.193-.173.264-.285.255-.274.183-.244.112.284.193.519.213.478.214.488.223.457.234.427.265.428.284.426.295.417zm-12.404-30.827.081.427.092.417.132.427.152.427.153.417.081.274-.284-.02-.478-.061-.468-.041h-.488l-.58.041-.64.061-.793.122-.936.163-1.149.193-7.351 1.505h-.02l-.823.122-.845.091-.416.041-.417.02h-.427l-.437-.04-.417-.041-.448-.071-.417-.143-.416-.152-.214-.082-.213-.111-.204-.092-.213-.142-.214-.133-.203-.152-.214-.152-.213-.173-.244-.255-.254-.264-.224-.295-.214-.305-.193-.305-.163-.325-.162-.325-.153-.336-.132-.326-.112-.325-.091-.345-.102-.326-.172-.64-.113-.58-.091-.579-.102-.61-.03-.661-.031-.651v-.325l.031-.336.01-.325.04-.305.061-.305.052-.295.081-.285.092-.264.121-.275.092-.223.132-.234.112-.214.152-.213.133-.193.152-.194.173-.172.183-.173.163-.153.193-.153.193-.142.396-.264.407-.234.438-.193.457-.193.458-.173.457-.132.966-.275.945-.224h.021l6.995-1.433 1.433-.325 1.109-.245.844-.233.61-.193.233-.092.204-.102.173-.091.152-.071.255-.204.223-.193.285-.203.03.345.031.498.061.519.051.539.101.539.112.539.153.518.152.519.173.498.021.081.111.387-.356-.173-.233-.122-.265-.071-.173-.021-.213-.02-.244-.02h-.285l-.519.02-.518.061-.539.051-.529.081-.539.092-.498.102-.498.101-.457.091-5.938 1.19-.519.122-.498.092-.457.122-.428.091-.396.112-.366.122-.325.132-.326.133-.325.193-.305.193-.285.213-.244.234-.234.244-.193.275-.152.284-.132.316-.112.325-.082.346-.05.376-.021.386v.417l.041.437.051.437.081.478.112.509.153.468.081.203.071.213.091.193.102.173.112.173.102.173.111.152.133.133.132.142.132.132.142.112.153.102.264.173.305.112.305.122.305.07.346.041.325.041.366.02.336-.02.366-.021.366-.04.366-.041.356-.05.742-.143.712-.132 5.948-1.21.589-.142.59-.112.6-.112.549-.122.498-.112.417-.122.366-.071.234-.081.244-.051.193-.071.193-.082.163-.081.315-.173.325-.193.285-.214v.346l.021.468.03.437zm151.667 98.227.081.498.081.458.102.447.092.468.112.498.132.549.021.102.051.285.102.427.132.498.112.519.122.529.111.437.062.306.346-.031.284-.04.306-.081.346-.071.417-.102.437-.112.438-.132.457-.193.214-.122.234-.112.213-.132.203-.152.214-.184.193-.192.183-.204.173-.233.152-.254.112-.244.122-.234.071-.254.061-.224.041-.233.041-.234v-.6l-.041-.346-.062-.265-.04-.214-.112-.386-.111-.366-.163-.325-.152-.285-.193-.295-.224-.224-.224-.213-.244-.173-.183-.102-.143-.071-.183-.082-.163-.051-.193-.061-.193-.041-.183-.04-.214-.021-.447-.021-.437.041-.499.061-.508.092-1.841.559.092.641.09.537zm-4.159-2.816.265-.021.295-.04.325-.031.356-.061.487-.092.569-.132.702-.163.274-.071.305-.061.295-.092.356-.102.457-.111.488-.143.498-.112.539-.132.417-.102.468-.092.487-.102.539-.051.265-.021.295-.021h.549l.295.021.274.041.285.03.295.081.284.071.265.102.295.133.264.142.265.173.244.193.254.224.244.255.234.264.213.315.203.346.193.366.184.406.162.438.152.478.143.529.051.305.051.285.041.314.021.285v.284l-.021.275-.01.264-.052.274-.03.265-.051.254-.061.255-.082.224-.173.468-.213.416-.224.407-.255.366-.264.346-.265.314-.265.265-.284.234-.254.203-.275.162.366.377.519.528.58.59.6.641.579.6.499.498.325.346.111.133.712.711.59.601.519.519.478.437.438.387.438.355.457.306.498.305.498.285-.549.061-.487.041-.458.081-.458.071-.457.102-.447.112-.438.111-.417.143-.487.152-.488.152-.051.021-.062.021-.071-.122-.355-.478-.355-.468-.366-.458-.356-.438-.365-.447-.366-.427-.356-.406-.355-.396-.772-.854-.641-.691-.529-.549-.457-.447-.387-.346-.325-.295-.325-.265-.305-.233-2.044.427.152.671.214.905.173.772.091.346.173.712.173.63.153.539.132.488.143.417.122.386.122.346.132.336.111.284.102.234.112.213.092.173.193.265.213.254.051.071.193.234-.325.061-.173.041-.488.071-.508.081-.479.092-.498.102-.508.132-.509.152-.519.153-.519.173-.355.111.121-.346.031-.051.081-.274.061-.285.021-.192v-.234l-.021-.265-.02-.314-.051-.539-.103-.61-.132-.731-.173-.854-.213-.956-.244-1.098-.265-1.23-.305-1.393-1.17-5.043-.264-1.058-.255-.966-.254-.864-.265-.772-.254-.672-.233-.589-.133-.255-.143-.254-.142-.214-.102-.183-.193-.274.325-.021.287-.022zm61.432-227.303.112.325.152.326.173.335.203.325.234.326.295.305.314.315.306.264.325.224.325.193.366.183.346.152.376.112.366.082.406.051.295.02h.315l.305-.02.315-.031.315-.061.305-.081.325-.071.306-.122.274-.091.274-.132.274-.142.265-.153.284-.152.274-.173.265-.193.285-.203.264-.224.285-.224.295-.254.265-.274.579-.549.549-.62.346-.407.376-.478.396-.539.428-.59.193-.335.192-.325.193-.335.152-.336.173-.346.133-.345.111-.376.122-.356.051-.254.03-.244.041-.234.021-.254.021-.437-.021-.447-.062-.407-.081-.386-.111-.346-.122-.346-.152-.305-.153-.315-.192-.265-.173-.234-.173-.234-.193-.203-.173-.173-.163-.153-.265-.244-.284-.183-.265-.173-.284-.152-.306-.143-.281-.133-.325-.091-.306-.102-.224-.031-.233-.02-.214-.031-.224-.01h-.233l-.214.01-.224.031-.233.02-.438.092-.458.132-.457.173-.458.214-.468.244-.478.295-.458.346-.467.366-.488.427-.479.458-.498.509-.478.528-.305.356-.285.346-.295.356-.233.335-.255.346-.213.346-.203.325-.193.326-.173.325-.152.335-.133.305-.111.305-.112.305-.081.315-.081.285-.051.305-.041.447-.021.519.021.295.021.285.061.305.051.326.102.312zm-3.06-.925-.103-.498-.051-.498-.02-.499v-.488l.02-.468.051-.498.082-.458.111-.488.133-.498.152-.478.193-.478.224-.488.254-.478.265-.478.305-.488.336-.498.335-.478.387-.478.427-.488.488-.559.519-.499.498-.458.498-.427.468-.376.488-.325.457-.305.458-.244.437-.214.438-.193.427-.173.407-.132.366-.102.376-.092.336-.061.325-.061.457-.03.468-.021.458.021.437.03.458.061.438.071.437.122.447.152.438.153.447.193.417.214.406.233.428.275.406.274.396.315.396.346.407.366.366.386.355.387.336.406.305.397.265.427.243.427.234.437.193.447.173.438.142.458.122.468.071.458.082.467.02.458.021.468-.04.438-.041.447-.071.427-.092.438-.142.447-.133.447-.162.438-.193.437-.234.447-.254.438-.265.447-.284.458-.305.447-.346.447-.366.458-.387.448-.396.458-.417.427-.417.396-.427.386-.417.356-.427.326-.438.305-.417.295-.447.244-.437.234-.458.203-.438.173-.437.153-.458.142-.468.092-.457.081-.458.082-.457.01h-.458l-.457-.01-.458-.061-.457-.082-.468-.112-.428-.142-.447-.153-.437-.183-.448-.233-.427-.254-.427-.264-.438-.315-.427-.325-.417-.346-.305-.305-.306-.295-.295-.305-.264-.305-.244-.305-.254-.335-.204-.325-.213-.346-.244-.438-.193-.447-.193-.478-.152-.488-.109-.48zM93.444 266.159l-.213.203-.244.193-.214.213-.213.193-.193.194-.173.214-.183.254-.193.264-.214.305-.437.732-.549.987-.671 1.27-.864 1.637-.956 1.922-.437.864-.427.834-.376.782-.387.774-.356.752-.366.772-.386.804-.376.834-.315.65-.224.539-.173.447-.112.367-.071.345-.061.326-.041.345-.02.386-.02.346-.265-.213-.376-.265-.447-.295-.458-.284-.498-.275-.518-.243-.509-.214-.478-.153-.447-.163-.316-.111.245-.214.213-.173.204-.173.213-.214.203-.263.275-.346.285-.428.345-.558.387-.692.478-.843.437-.814.417-.772.417-.763.386-.753.407-.752.396-.773.397-.803.152-.295.326-.671.335-.65.142-.295.62-1.302.489-1.047.366-.804.294-.599.204-.458.152-.366.112-.315.122-.285.132-.386.092-.326.081-.264.051-.234.061-.406.041-.387.01-.305.254.173.437.284.437.295.468.265.458.274.437.204.458.183.457.183.458.163.142.051zm23.335 23.832-.396-.143-.407-.111-.407-.112-.396-.091-.396-.103-.448-.111-.417-.102-.447-.092-.427-.081-.458-.092-.447-.081-.458-.081-.458-.092-.285.519-.407.712-.346.62-.153.244-.091.213-.671 1.251-.376.731-.122.234-.071.173-.041.132-.041.122-.061.224-.03.315-.041.224-.193-.092-.438-.173-.437-.152-.458-.152-.458-.143-.458-.091-.458-.082-.458-.061-.499-.03-.366-.062.264-.265.478-.508.437-.479.407-.457.396-.549.438-.61.519-.772.61-.977.773-1.22L113.8 279l.528-.854.427-.712.315-.579.294-.499.204-.417.173-.376.173-.335.142-.366.071-.163.173.062.508.193.519.173.559.192.549.153.519.111.529.102.549.081.569.071.153.021v.173l-.041.793-.02.712-.021.671v.651l.021.691.041.772.061.885.051 1.047.519 8.145.03.457.051.519.041.56.05.538.041.56.03.539.041.498.061.468.062.691.051.56.081.437.071.366.102.274.071.224.122.193.092.193.264.468-.487-.214-.58-.233-.528-.214-.499-.152-.478-.112-.569-.132-.549-.081-.508-.062-.458-.051-.264-.021.081-.213.041-.092.03-.081.112-.234.071-.244.041-.233.031-.254.02-.285v-1.037l-.02-.793-.102-2.806-.417-.143-.417-.133-.398-.132zm-.864-2.837.671.163.671.132.671.112-.021-.498-.051-.691-.01-.813-.03-.824-.041-.813-.041-.65-.021-.468v-.173l-.01-.213v-.55l-.031-.519v-2.451l.031-.63.01-.498-5.104 8.489.63.184.671.192.671.193.671.173.663.153zm161.001-145.739.041-.428.06-.396.051-.346.101-.346.092-.325.113-.345.131-.387.061-.173.173.061.366.112.346.081.305.072.326.061.376.03.426.071.539.031.641.061.437.041-.335.284-.041.041-.346.284-.325.315-.153.153-.152.193-.152.183-.143.244-.102.244-.122.254-.091.306-.081.325-.062.345-.03.387-.021.447.021.458.03.498.062.488.06.203.041.234.071.214.081.183.072.203.071.193.102.173.091.173.122.152.112.153.142.132.122.132.214.183.234.153.244.132.244.122.274.071.295.061.275.031h.284l.306-.031.315-.061.264-.091.255-.122.223-.153.213-.173.203-.193.173-.213.173-.214.173-.244.163-.254.122-.264.274-.56.265-.569v-.01l.162-.366.387-.804.396-.793.183-.365.275-.519.356-.549.193-.264.203-.285.234-.274.275-.255.274-.244.315-.213.356-.214.367-.173.203-.091.213-.061.224-.081.234-.051.253-.041.245-.041.274-.02.265-.02.304-.021.306.021.305.02.285.041.294.061.285.051.265.081.284.071.264.122.254.112.254.122.244.152.255.153.224.152.203.173.224.194.244.254.223.264.234.275.193.284.184.315.173.305.173.326.162.345.122.366.112.367.102.365.09.387.062.406.06.397.051.427.021.427v.346l-.021.356-.01.376-.041.346-.101.671-.071.518-.081.488-.082.498-.03.346-.041.244-.02.254-.031.214-.193-.041-.498-.091-.427-.082-.366-.081-.387-.031-.366-.02-.406-.02h-1.434l.325-.336.254-.223.286-.285.152-.173.122-.193.163-.213.132-.234.132-.255.142-.284.113-.285.07-.336.082-.345.051-.377.02-.406v-.427l-.031-.468-.061-.396-.112-.387-.122-.366-.152-.325-.194-.285-.182-.254-.214-.234-.244-.213-.254-.173-.244-.133-.275-.122-.263-.07-.286-.051-.264-.051h-.284l-.316.02-.305.061-.264.091-.254.122-.234.133-.224.152-.193.173-.193.193-.142.203-.173.224-.143.234-.132.224-.264.488-.224.478-.58 1.331-.02.031-.386.854-.407.844-.234.407-.224.386-.284.366-.275.346-.132.173-.183.152-.142.153-.173.132-.173.142-.193.133-.194.122-.203.101-.214.102-.233.081-.224.071-.253.082-.245.061-.274.03-.265.02-.304.021-.306.02-.305-.02-.325-.021-.306-.04-.284-.051-.304-.061-.286-.071-.274-.102-.285-.122-.264-.101-.274-.122-.244-.153-.245-.153-.234-.172-.224-.173-.212-.203-.164-.153-.162-.173-.173-.183-.172-.214-.184-.253-.162-.275-.173-.305-.173-.346-.173-.366-.142-.407-.143-.417-.112-.467-.121-.519-.071-.539-.051-.569-.051-.62-.011-.458v-.895l.041-.457zM125.878 3.503l-.101-.233-.173-.367-.183-.325-.163-.274h.407l.499-.021.498-.01.488-.041.498-.061.508-.091.488-.101.509-.133.468-.122.09-.01.295-.081-.081.294-.132.57-.082.559-.03.295-.02.305v.325l.02.366.061.864.112 1.119.163 1.423.233 1.83.305 2.136.133.986.132.905.132.864.142.854.122.824.163.854.132.854.173.925.143.702.101.549.122.457.112.397.132.325.142.305.173.315.204.315.193.295h-.366l-.458-.02-.518.02-.549.041-.56.061-.549.092-.518.111-.498.143-.478.152-.305.092.082-.316.071-.264.06-.244.041-.295.031-.366.02-.417v-.518l-.031-.661-.091-.793-.092-.976-.091-.925-.112-.885-.101-.844-.113-.874-.111-.844-.122-.844-.122-.895-.316-2.104-.253-1.454-.194-1.129-.142-.864-.122-.661-.091-.498-.072-.366-.082-.326-.09-.295-.102-.396-.092-.305zm64.35 270.068-.183-.214-.122-.173-.142-.142-.113-.112-.203-.234.306-.071.051-.02.498-.133.477-.162.498-.153.458-.193.457-.183.458-.234.448-.234.417-.233.111-.051.295-.133-.021.306-.019.071v.752l.019.214.032.254.06.264.072.326.152.559.193.64.234.651.255.671.244.661.223.61.234.58.214.488.457 1.169.529-.194.539-.193.519-.193.517-.193.519-.193.508-.203.498-.193.509-.214.427-.173.397-.173.407-.183.396-.163.406-.182.417-.194.427-.163.417-.213.722-.315-.173-.376-.183-.468-.163-.387-.071-.152-.406-.977-.234-.538-.204-.508-.203-.457-.214-.489-.345-.691-.285-.569-.264-.448-.213-.366-.214-.285-.173-.254-.182-.214-.173-.213-.214-.203.305-.061.041-.021.477-.152.498-.143.499-.173.467-.173.397-.172.416-.193.417-.204.397-.233.214-.113.233-.141.031.274v.132l.061.387.051.386.081.458.153.558.173.621.203.692.254.772.265.782.295.834.304.844.305.834.306.823.874 2.157.061.152.365.925.357.884.346.865.345.813.346.773.325.732.295.691.315.63.264.519.235.407.212.346.173.254.163.223.173.173.163.163.122.132.254.214-.304.071-.092.04-.509.133-.468.132-.468.162-.457.173-.477.193-.458.224-.468.274-.508.265-.244.143-.02-.295-.011-.305-.04-.306-.041-.314-.061-.326-.173-.692-.204-.772-.254-.823-.325-.947-.376-1.036-.427-1.18-.966-2.369-.6.214-.569.213-.539.193-.498.194-.478.173-.458.173-.436.172-.449.173-.466.194-.489.212-.498.214-.488.203-.519.235-.529.254-.549.254-.549.244.254.62.295.763.285.681.102.305.712 1.657.579 1.312.244.539.235.457.203.386.182.346.163.275.173.244.132.214.132.172.265.285.253.254.235.213-.305.092-.518.143-.53.152-.508.173-.478.193-.478.193-.458.223-.477.255-.468.254-.041.03-.294.164.02-.336.02-.285v-.285l-.02-.295-.031-.304-.071-.326-.091-.407-.133-.477-.193-.56-.305-.925-.284-.854-.305-.803-.285-.793-.295-.732-.294-.733-.295-.731-.286-.733-.853-2.155-.336-.742-.305-.732-.304-.711-.286-.682-.285-.671-.263-.62-.265-.569-.274-.56-.286-.539-.253-.447-.204-.346zM171.306 22.395l.265-.489.132-.284.132-.336.163-.376.193-.468.184-.6.223-.691.234-.762.234-.854.243-.885.255-.946.254-.976.244-1.006.244-.997.234-1.006.203-.966.214-.956.183-.884.183-.844.152-.773.112-.692.132-.874.081-.691.032-.285v-.498l-.021-.193-.011-.193-.03-.163-.03-.163-.051-.142-.122-.285-.152-.315-.205-.397.428.153.651.244.579.203.518.153.509.132.549.132.651.122.711.132.742.082.163.02.01.153.062.376.06.366.062.366.071.427.132.538.152.672.203.844.255 1.098 2.491 8.398.783 2.542.173.579.152.478.112.427.092.346.132-.651.163-.701.152-.702.173-.722.142-.671.163-.661.152-.569.112-.508.885-3.599.203-.885.173-.783.132-.712.112-.641.102-.559.071-.498.061-.437.03-.386.021-.356v-.539l-.021-.204-.03-.345-.061-.275-.051-.325.305.132.356.132.437.163.539.132.59.153.386.071.407.081.417.081.436.072h.123l.264.04-.152.244-.173.275-.173.305-.173.325-.173.407-.193.488-.203.579-.234.692-.245.823-.345 1.241-.325 1.24-.346 1.271-.346 1.291-.325 1.292-.335 1.322-.326 1.331-.335 1.373-.163.651-.153.681-.142.671-.142.671-.142.692-.113.711-.09.691-.083.733-.02.234-.203-.092-.061-.03-.386-.153-.387-.153-.356-.111-.386-.112-.376-.082-.367-.061-.385-.03-.376-.021h-.154l-.019-.131-.173-.702-.163-.569-.143-.539-.131-.509-.173-.559-.194-.63-.223-.753-.316-.945-2.653-8.754-.61-2.044-.275-.844-.203-.702-.173-.589-.152-.499-.092.631-.122.691-.132.753-.142.813-.183.885-.234.996-.245 1.119-.304 1.25-.855 3.62-.03.02-.152.671-.163.712-.132.711-.143.712-.092.722-.06.722-.01.356v.345l.01.346.041.346.04.305-.284-.132h-.062l-.396-.193-.417-.173-.427-.153-.447-.122-.407-.091-.448-.061-.457-.041-.437-.031h-.143l-.305-.04.184-.254zm103.892 149.308.243-.61.193-.509.194-.477.172-.478.113-.305.101-.234.072-.234.06-.193.173.081.478.204.407.193.355.132.346.122.346.122.386.082.457.121.509.112.438.102-.387.234-.285.173-.335.234-.173.132-.193.152-.194.173-.193.193-.183.224-.173.234-.172.274-.153.295-.163.315-.132.366-.101.387-.102.427-.061.437-.031.427.01.407.041.386.072.346.101.325.132.285.173.274.173.255.213.223.204.193.254.173.254.132.245.122.263.092.275.081.315.041h.295l.295-.021.274-.06.244-.072.245-.101.233-.132.234-.133.203-.183.194-.162.193-.193.194-.204.335-.417.335-.427.865-1.169.009-.021.581-.752.588-.732.306-.346.325-.304.325-.316.367-.264.193-.132.162-.122.204-.112.193-.092.223-.101.204-.082.213-.071.235-.061.223-.04.244-.031.234-.02.264-.021.254.021h.265l.295.03.284.061.306.061.295.071.294.102.285.102.285.102.274.142.264.152.244.153.244.152.235.173.223.193.213.193.214.214.183.234.183.213.173.245.112.172.112.193.132.234.122.244.112.295.121.285.092.356.081.366.092.376.061.447.031.448.009.478v.518l-.03.559-.071.58-.102.61-.071.427-.122.417-.091.447-.133.447-.152.498-.143.428-.142.356-.142.335-.152.305-.163.315-.194.305-.233.346-.082.152-.142-.081-.336-.193-.325-.152-.274-.153-.306-.112-.355-.142-.417-.153-.498-.152-.631-.214-.416-.111.376-.214.071-.02.396-.214.386-.224.194-.122.193-.152.163-.173.183-.173.182-.213.143-.244.183-.255.132-.315.132-.325.133-.376.111-.407.102-.468.071-.498.041-.457v-.468l-.02-.214-.021-.203-.04-.214-.031-.193-.061-.193-.061-.193-.072-.193-.081-.173-.101-.153-.081-.173-.184-.213-.192-.213-.204-.163-.224-.183-.233-.132-.265-.112-.274-.102-.286-.061-.304-.051h-.305l-.265.041-.274.051-.265.101-.244.112-.233.132-.235.173-.223.183-.203.203-.224.214-.193.214-.366.478-.386.498v.02l-.265.315-.539.692-.559.691-.264.305-.387.448-.457.457-.254.234-.265.213-.285.204-.304.203-.346.173-.366.152-.386.112-.397.102-.223.03-.214.021h-.722l-.255-.021-.263-.03-.285-.061-.285-.061-.315-.071-.265-.082-.284-.112-.265-.101-.264-.132-.254-.132-.233-.143-.245-.173-.213-.173-.224-.172-.214-.193-.192-.194-.194-.203-.173-.234-.163-.234-.173-.305-.182-.295-.143-.325-.132-.325-.122-.346-.112-.346-.071-.345-.081-.366-.041-.387-.04-.386-.011-.387v-.396l.011-.407.04-.407.041-.426.081-.417.071-.326.092-.345.101-.356zM66.165 253.409l.041-.306v-.305l-.041-.193-.02-.173-.051-.173-.061-.193-.061-.183-.071-.163-.091-.192-.122-.184-.112-.183-.132-.173-.132-.173-.152-.173-.346-.366-.386-.355-1.545-1.169-.438.458-.386.386-.346.366-.295.346-.295.336-.305.346-.326.386-.346.417-.041.062-2.064 2.44.234.233.213.214.224.213.295.224.295.274.366.285.386.274.417.244.213.122.234.111.244.103.254.07.244.062.264.041.285.02.285.011.295-.03.265-.041.244-.081.254-.071.224-.102.213-.092.193-.122.173-.112.305-.233.244-.224.214-.214.132-.152.244-.325.213-.315.163-.325.142-.305.102-.315.051-.328zm3.406-.113.021.265v.254l-.021.265-.03.254-.051.274-.071.265-.071.274-.102.244-.112.274-.143.265-.122.274-.183.265-.163.274-.193.264-.214.274-.233.285-.183.233-.214.214-.224.214-.213.193-.234.162-.224.163-.234.152-.224.132-.234.122-.224.092-.254.092-.224.102-.234.061-.244.051-.234.062-.234.04-.458.051-.438.021-.437-.021-.407-.03-.376-.061-.366-.082-.305-.091-.285-.122-.081.528-.112.722-.132.834-.152.885-.143.834-.091.671-.071.478-.041.173v.102l-.153.956-.132.834-.102.711-.061.631-.03.579-.021.56.041.56.03.559.082.58-.387-.447-.285-.285-.325-.335-.335-.326-.366-.346-.366-.284-.346-.274-.366-.265-.417-.315-.417-.284-.102-.071.041-.143.173-.559.173-.58.132-.549.153-.58.122-.559.132-.539.112-.539.092-.519.213-1.118.173-.945.112-.753.102-.609.051-.519.021-.468.021-.407.02-.406-1.565-1.383-.438.519-.6.712-.519.62-.224.254-.458.59-.427.519-.335.447-.295.406-.264.346-.234.326-.183.305-.193.305-.152.254-.132.234-.102.214-.071.173-.102.346-.071.305-.041.081-.051.285-.234-.214-.061-.051-.376-.366-.386-.366-.386-.365-.376-.346-.417-.336-.427-.325-.437-.325-.458-.325-.285-.234.346-.092.051-.02.274-.103.264-.111.153-.092.193-.143.204-.173.234-.203.376-.376.458-.458.519-.559.58-.65.651-.753.722-.854.824-.935.875-1.058 3.325-3.955.691-.844.61-.793.539-.702.478-.661.376-.62.335-.549.122-.254.122-.254.091-.224.082-.213.081-.335.204.274.376.427.427.438.63.58.996.864.204.173.234.173.234.213.264.213.386.305.396.335.417.325.427.366.396.346.458.407.234.224.244.254.234.254.234.285.204.284.203.315.193.305.173.346.142.346.112.366.102.387.03.381zM222.835 31.688l.243.173.295.193.356.234.376.224.427.234.438.193.224.102.265.071.244.061.243.031.265.041.265.021.295-.021.284-.041.265-.061.274-.071.244-.091.233-.112.214-.122.184-.132.192-.143.153-.132.284-.265.214-.264.173-.244.111-.173.234-.356.162-.376.143-.356.092-.356.04-.163.011-.183.021-.173v-.173l-.021-.173-.011-.152-.02-.173-.062-.173-.03-.152-.062-.173-.071-.153-.102-.152-.192-.305-.225-.315-.284-.305-.336-.295-.355-.285-.396-.295-1.688-.956-.387.498-.336.458-.314.407-.265.387-.254.386-.265.386-.265.427-.284.437-.234.346-.519.793-.569.905-.417.651.244.213.256.193zm-8.165 7.625-.478-.295-.478-.264-.479-.254-.325-.173.325-.152.071-.021.234-.112.274-.173.122-.122.183-.152.193-.193.203-.224.325-.407.387-.518.438-.6.478-.712.549-.823.631-.925.691-1.068.782-1.189 2.807-4.331.579-.905.519-.844.438-.793.376-.712.315-.65.244-.6.091-.264.071-.275.092-.233.03-.234.051-.326.255.234.417.366.467.386.702.498 1.098.732.244.152.244.173.265.152.314.193.397.254.427.264.447.295.447.285.59.407.59.427.264.214.275.224.243.254.255.224.233.254.203.274.193.265.193.285.143.315.143.305.111.325.081.356.051.244.021.254.021.265v.254l-.021.265-.03.274-.041.264-.081.285-.07.273-.102.295-.111.285-.112.285-.163.295-.152.305-.173.295-.183.305-.173.244-.193.254-.193.234-.193.213-.203.193-.193.183-.203.173-.233.153-.214.163-.214.132-.224.112-.233.122-.438.193-.457.132-.447.122-.428.071-.427.03-.417.021-.386-.021-.336-.03-.355-.061-.285-.061-.021.529-.021.722-.03.854-.021.864-.04.844-.021.702-.021.478-.021.193-.01.966-.021.844-.021.732.021.651.03.6.062.56.091.559.112.58.143.549-.438-.356-.346-.315-.366-.285-.355-.274-.387-.244-.406-.274-.377-.234-.406-.204-.458-.254-.416-.244-.133-.051.03-.122.103-.6.091-.58.082-.579.07-.58.052-.58.061-.559.051-.529.03-.529.082-1.149.03-.946.051-.762.01-.641-.01-.519v-.468l-.051-.407-.03-.396-1.739-1.2-.386.6-.499.773-.437.691-.193.285-.387.641-.325.559-.284.478-.244.427-.214.376-.193.376-.173.326-.152.325-.132.264-.071.234-.081.214-.051.193-.082.346-.04.325v.082l-.011.325-.274-.213-.417-.305-.437-.335-.448-.325-.457-.325-.437-.267zM29.359 104.039l-.061.173-.223.58-.194.498-.193.498-.193.518-.203.6-.254.712-.285.844-.326 1.037-.365 1.098-.285.905-.224.752-.193.631-.173.559-.152.538-.153.57-.153.61-.101.295-.204-.193-.304-.315-.326-.265-.173-.132-.213-.122-.234-.132-.244-.143-.519-.243-.61-.275-.691-.264-.742-.295-.783-.285-.803-.264-.783-.275-.743-.254-4.931-1.606-.63-.214-.59-.193-.58-.183-.538-.163-.508-.162-.499-.133-.478-.132-.457-.132-.539-.132-.437-.102-.407-.051-.326-.071-.304-.01-.265-.021-.285.021h-.284l-.325.01.172-.305.133-.275.223-.487.254-.59.194-.529.152-.559.132-.539.112-.498.091-.488.082-.326.234.214.051.041.213.203.346.254.223.153.306.172.366.194.437.213.539.234.63.264.732.295.854.325.976.367 1.129.386 1.26.437 1.434.488 1.302.427 1.128.356.956.295.854.275.783.203.711.213.702.173.732.193.153-.295.173-.305.152-.325.173-.325.153-.387.172-.406.173-.438.163-.528.173-.549.142-.509.112-.447.071-.417.061-.366.041-.346.01-.304v-.295l-.01-.244-.041-.234-.041-.214-.05-.214-.153-.365-.152-.346-.255-.498.478.264.498.275.417.213.366.193.346.173.346.152.346.173.396.173.478.214zm245.625 11.916.143.417.183.519.233.58.133.315.152.305.173.305.173.294.193.305.203.274.234.265.243.234.326.285.346.244.365.234.387.193.417.173.417.142.457.092.468.071.488.041.519.03h.528l.58-.051.569-.071.62-.102.63-.132.641-.153.387-.091.406-.122.407-.132.396-.132.396-.163.406-.163.396-.193.377-.224.386-.224.366-.274.346-.285.325-.305.306-.335.284-.355.132-.214.143-.193.112-.214.111-.234.092-.244.102-.254.092-.274.061-.265.051-.264.071-.295.011-.285.02-.295.011-.285v-.305l-.011-.315-.03-.305-.051-.305-.051-.315-.061-.325-.071-.325-.112-.366-.102-.386-.122-.387-.122-.366-.254-.671-.224-.6-.102-.224-.569.112-.671.152-.732.173-.783.183-.813.183-.813.193-.803.193-.742.193-.346.081-.874.234-1.251.305-1.403.366-1.434.377-1.24.315-.885.224-.326.081-.366.112-.325.143-.143.081-.122.092-.111.112-.092.132-.092.183-.051.183-.04.234v.254l.021.305.04.346.081.386.112.438.072.334zm-3.844-5.806-.03-.163-.122-.366.346.153.133.051.192.061.265.041h.387l.538-.041.702-.092.936-.152 1.148-.254 2.359-.539 1.159-.274.142-.031.366-.102.549-.132.61-.173.631-.152.528-.143.387-.091.142-.041 2.156-.569 1.677-.468 1.302-.387.956-.325.396-.152.346-.143.305-.132.285-.132.519-.285.519-.305.264-.152v.305l.062.478.092.752.081.417.071.427.081.427.092.376.162.58.163.56.173.539.193.539.213.6.193.621.203.671.193.732.133.549.132.6.102.6.071.6.061.61.021.64-.021.305-.021.305-.02.315-.062.305-.03.305-.081.305-.082.315-.111.305-.112.285-.132.315-.132.285-.184.295-.183.305-.193.274-.224.285-.254.264-.265.275-.295.274-.295.244-.325.254-.355.224-.356.213-.366.214-.355.193-.742.326-.712.285-.681.254-.56.173-.488.153-.346.081-.438.112-.457.102-.468.102-.498.071-.519.061-.519.031-.528.021h-.56l-.56-.021-.549-.061-.56-.091-.549-.112-.549-.152-.569-.213-.274-.122-.265-.112-.274-.132-.274-.163-.265-.152-.244-.163-.254-.183-.244-.173-.233-.183-.204-.204-.213-.203-.184-.213-.386-.427-.356-.458-.295-.468-.294-.498-.265-.478-.224-.508-.214-.519-.193-.498-.173-.498-.142-.499-.143-.508-.133-.478-.152-.671-.152-.62-.111-.569-.122-.559-.092-.407-.071-.387-.102-.386-.071-.346-.143-.498-.111-.427-.112-.366-.111-.326-.071-.173-.051-.152-.061-.187zM57.645 240.953l-.152.143-.153.112-.132.132-.234.173-.224.173-.213.192-.234.194-.244.223-.244.255-.254.254-.245.264-.406.448.112-.58.041-.437v-.407l-.021-.193-.03-.193-.061-.214-.102-.213-.092-.214-.152-.244-.173-.274-.203-.265-.539-.681-.712-.803-.478-.508-.396-.458-.437-.437-.479-.509-.62.509-.589.518-.59.519-.549.498-2.186 1.983.437.579.468.58.508.6.621.701.294.335.468.468.244.244.244.234.274.203.224.184.153.091.152.071.143.082.152.04.264.061.305.031h.041l.499.061-.407.264-.417.295-.386.264-.367.295-.417.366-.345.346-.305.305-.244.305-.275.356-.264.325-.061-.427-.051-.284-.041-.255-.05-.213-.082-.204-.071-.193-.122-.213-.153-.214-.172-.274-.305-.417-.326-.407-.346-.427-.355-.417-.407-.447-.417-.457-.478-.529-.538-.57-.346.306-.519.467-.589.529-.631.579-.61.559-.498.468-.356.305-.142.133-.285.253-.224.245-.213.213-.173.213-.132.194-.102.173-.01.091-.02.102-.02.091v.102l.04.193.071.234.132.224.173.254.214.285.244.335.325.346.346.396.213.234.285.284.366.367.437.386.264.254.255.194.244.193.234.152.203.132.213.133.194.102.193.09.356.143.345.071.326.081.346.062.609.092-.569.233-.539.244-.437.194-.386.193-.326.192-.325.173-.325.214-.356.254-.427.285-.132.102-.092-.143-.122-.132-.132-.152-.132-.173-.153-.173-.264-.326-.305-.376-.326-.396-.386-.468-.417-.498-.477-.539-.519-.59-.59-.66-.061-.082-.61-.671-.559-.6-.468-.539-.447-.457-.397-.427-.407-.407-.376-.356-.427-.366-.223-.193.284-.122.417-.173.366-.173.346-.173.366-.234.508-.345.519-.366.539-.407.518-.437.529-.437.519-.447.518-.458.498-.448 5.328-4.87.152-.132.865-.813.701-.672.57-.579.488-.498.396-.458.366-.467.336-.499.366-.559.142-.233.163.213.04.061.133.203.173.234.253.315.285.356.346.427.437.519.529.61.651.742.518.58.559.579.55.59.559.59.569.589.559.57.529.569.539.529.132.152-.153.122zM32.592 96.83l-.193.295-.254.396-.264.448-.244.509-.255.498-.173.437-.172.467-.153.519-.152.58-.071.325-.234-.254-.173-.173-.183-.193-.234-.184-.264-.223-.366-.224-.437-.274-.58-.305-.702-.366-.864-.407-.823-.407-.783-.366-.783-.356-.783-.356-.783-.345-.803-.366-.824-.346-.305-.132-.661-.305-.691-.295-.305-.132-1.342-.559-1.068-.417-.823-.336-.61-.244-.458-.173-.366-.122-.305-.101-.305-.082-.386-.122-.326-.081-.264-.071-.244-.041-.407-.04h-.671l.132-.285.275-.448.264-.457.255-.478.203-.467.193-.458.173-.508.152-.499.173-.538.071-.306.214.224.234.213.203.214.214.193.213.173.224.173.254.173.264.173.326.172.762.407.997.508 1.322.59 1.636.763 1.993.854.895.407.864.365.803.346.783.326.783.325.783.305.803.336.844.345.661.245.539.203.437.152.386.092.336.061.325.03.366.021h.387zm238.579 92.046v-.041l.204-.478.193-.478.192-.498.154-.498.131-.508.112-.519.102-.519.071-.518.061-.295.244.173.244.214.234.172.234.153.224.152.274.163.275.132.295.153.325.142.823.305 1.048.366 1.351.437 1.729.539 2.044.61.945.295.885.254.844.255.824.223.803.214.823.233.854.224.885.234.692.173.548.112.457.101.387.041.357.041.335-.021.335-.02.386-.061.336-.04-.152.315-.204.437-.203.478-.194.518-.182.509-.112.457-.112.488-.081.529-.092.6-.041.345-.264-.223-.193-.173-.214-.163-.233-.162-.295-.173-.387-.183-.477-.204-.6-.254-.753-.264-.905-.315-.854-.285-.843-.274-.825-.275-.802-.244-.814-.254-.844-.265-.854-.254-2.054-.59-1.413-.386-1.088-.315-.844-.204-.65-.172-.468-.122-.386-.071-.305-.061-.316-.061-.396-.061-.325-.051-.285-.021-.254-.02h-.397l-.387.041-.284.03zm-239.27 13.828.173.386.193.427.224.427.112.274h-.265l-.325.021-.346.04-.376.041-.437.071-.499.122-.599.153-.681.183-.804.275-1.189.406-1.2.417-1.21.427-1.24.447-1.241.478-1.301.468-1.302.498-1.332.498-.63.244-.63.255-.651.254-.631.264-.65.295-.63.305-.631.325-.63.326-.214.122-.051-.214v-.112l-.101-.407-.092-.386-.102-.356-.132-.376-.132-.345-.173-.346-.193-.325-.193-.346-.071-.112.071-.102.478-.538.406-.468.346-.397.346-.427.356-.447.406-.519.498-.63.59-.773 5.654-7.158 1.362-1.718.529-.671.467-.58.376-.457.326-.407-.59.285-.61.315-.691.305-.743.325-.843.356-.956.377-1.047.426-1.21.458-3.437 1.332h-.041l-.671.254-.651.264-.66.295-.671.285-.63.325-.611.366-.305.194-.294.193-.265.213-.264.204-.255.213-.03-.305-.02-.061-.081-.447-.092-.427-.122-.448-.153-.406-.152-.407-.183-.396-.234-.397-.234-.396-.051-.102-.173-.285h.326l.417-.02.518-.041.305-.061.366-.071.417-.082.498-.132.59-.152.712-.214.762-.244.844-.295 1.78-.61 1.901-.722 1.901-.732 1.83-.721 1.627-.702 1.352-.61.773-.387.61-.304.244-.153.234-.142.173-.132.162-.123.143-.132.112-.112.111-.112.082-.131.163-.255.183-.295.223-.396.102.437.173.64.142.57.173.539.193.518.193.488.244.611.326.681.365.712.062.131-.102.082-.285.264-.264.255-.275.264-.304.335-.356.397-.468.508-.59.651-.742.844-5.47 6.802-1.678 2.115-.366.467-.305.377-.264.325-.234.274.539-.213.559-.244.59-.244.61-.224.59-.234.569-.223.579-.214.519-.203.356-.153 3.467-1.321.824-.326.742-.284.671-.295.589-.275.509-.223.468-.234.376-.194.345-.193.285-.173.234-.152.214-.152.172-.133.265-.234.172-.193.245-.254.061.346.091.376.112.437.193.519.214.599zM165.989 21.235l.061.326.091.325.112.386.102.306-.305-.082-.478-.132-.519-.112-.518-.112-.549-.081-.478-.061-.498-.01h-.539l-.58.03h-.355l.172-.285.132-.213.122-.254.133-.265.112-.325.112-.406.132-.519.142-.641.132-.782.152-.946.133-.905.112-.885.112-.843.122-.854.091-.865.122-.864.082-.895.254-2.125.132-1.443.101-1.139.082-.885.04-.66.032-.519.019-.387V3.056l-.019-.346-.021-.284-.011-.234-.091-.407-.102-.366-.04-.132-.041-.153.306.072.518.122.508.122.518.081.519.081.498.041.519.041h1.382l-.142.264-.153.274-.131.265-.113.254-.122.274-.091.265-.101.305-.092.315-.071.356-.163.875-.173 1.097-.193 1.424-.244 1.789-.255 2.135-.101 1.018-.102.945-.09.885-.103.843-.07.854-.082.844-.072.854-.081.905-.041.682-.01.589-.02.478.02.387zm79.6 213.699.276-.274.304-.346.367-.427.436-.518.519-.621.6-.722.519-.681.538-.651.509-.691.518-.681.489-.651.467-.62.427-.57.397-.538.111-.153.142.132.153.133.153.112.132.142.152.111.203.194.214.193.214.193.254.213.234.183.274.194.295.213.315.234.498.305-.569.02h-.233l-.224.021-.193.02-.194.041-.193.03-.183.082-.173.101-.213.112-.194.132-.203.194-.244.213-.233.244-.581.641-.701.854-.426.528-.387.488-.346.499-.417.559.59.498.6.519.589.518.58.468 2.288 1.891.478-.529.478-.539.539-.61.609-.752.285-.376.387-.519.213-.264.163-.305.173-.265.142-.274.071-.173.061-.152.03-.153.021-.142v-.285l-.021-.325v-.549l.336.396.295.325.326.326.345.325.457.387.407.305.346.234.346.213.355.224.367.213-.397.122-.274.092-.235.081-.203.092-.193.101-.173.112-.183.152-.214.173-.212.214-.377.386-.346.387-.365.396-.367.427-.386.468-.386.498-.428.559-.477.611.366.295.528.437.631.508.671.559.63.498.539.448.356.305.132.112.305.234.274.182.244.173.224.143.224.091.193.081h.092l.101.02.082-.02.101-.02.193-.061.204-.112.213-.152.204-.214.254-.254.285-.325.315-.366.335-.407.193-.244.255-.325.275-.407.314-.478.193-.305.164-.295.131-.274.132-.244.103-.255.091-.213.061-.214.061-.203.071-.366.041-.366.02-.346v-.966l.326.539.304.498.286.407.243.346.234.305.233.295.245.284.305.336.346.356.111.122-.111.132-.112.132-.132.163-.153.163-.193.193-.265.315-.315.346-.335.406-.387.437-.426.478-.458.559-.488.6-.539.671-.59.732-.518.651-.458.559-.397.529-.365.478-.326.458-.325.467-.305.458-.152.254-.154-.254-.233-.387-.203-.325-.234-.325-.264-.326-.417-.467-.468-.438-.477-.467-.519-.458-.509-.457-.518-.448-.529-.447-.529-.417-5.592-4.545-.122-.091-.925-.753-.783-.62-.682-.508-.548-.397-.519-.325-.518-.295-.529-.244-.61-.254-.265-.112.194-.193.071-.081.163-.153zM60.898 39.882l4.413 12.628.061.122-.101.072-1.088.955-.102.092-.112-.061-.478-.285-1.22-.712-1.738-1.006-1.993-1.169-1.983-1.16-1.739-1.016-1.24-.722-.468-.265-.569-.325-.529-.284-.498-.295-.468-.265-.457-.274-.458-.265-.457-.294-.519-.306.295.306.305.335.305.335.336.397.488.549.457.549.458.529.457.539.458.559.457.559.478.58.498.579 2.41 2.898.59.742.519.59.416.488.387.386.365.346.336.285.387.295.406.274.244.163-.244.152-.406.275-.387.264-.397.295-.365.305-.326.295-.305.305-.284.305-.265.346-.193.254-.132-.295-.041-.132-.173-.448-.233-.498-.153-.264-.163-.315-.193-.346-.234-.366-.366-.519-.417-.599-.518-.682-.59-.772-.671-.875-.722-.935-.824-1.027-.884-1.118-.112-.153-.285-.346-.264-.346-.142-.152-1.871-2.288-.508-.6-.468-.528-.417-.458-.386-.376-.336-.335-.305-.285-.295-.234-.244-.173-.213-.152-.204-.122-.172-.072-.133-.05-.274-.072-.183-.01-.519-.02.438-.305.081-.061.529-.386.498-.387.518-.386.478-.407.417-.366.407-.376.376-.427.427-.427.224-.224.101-.122.122.092.651.488.559.427.519.366.498.345.488.306.518.325.6.345.651.387.224.142.61.356.843.508.997.56.976.569.834.508.61.346.213.132.59.305.539.315.478.265.457.274.417.265.407.254.376.264.407.265-.234-.478-.203-.498-.214-.539-.193-.559-.183-.56-.193-.528-.193-.57-.173-.518-.417-1.19-2.033-5.958-.011-.03-.213-.58-.193-.498-.173-.468-.153-.396-.172-.407-.194-.407-.223-.447-.275-.499-.071-.152.152-.091.366-.214.356-.234.427-.325.529-.427.447-.397.458-.447.478-.498.518-.58.203-.213.103.274.172.437.142.386.173.387.234.386.264.428.367.477.457.6.59.702 2.013 2.399 1.698 1.993 1.413 1.657 1.19 1.342.966 1.109.823.864.692.712.61.539.244.234.213.182.194.143.172.112.305.183.305.131.082.021.335.132-.315.193-.407.265-.437.295-.447.325-.427.346-.346.325-.386.387-.387.396-.397.488-.264.305-.061-.396-.02-.163-.041-.163-.051-.183-.081-.193-.112-.224-.132-.254-.153-.275-.192-.305-.234-.325-.265-.386-.305-.407-.366-.437-.813-1.047-1.057-1.231-3.498-4.056-.438-.519-.416-.508-.387-.458-.386-.437-.346-.427-.305-.386-.305-.387-.264-.346.092.244.101.295.091.295.123.326zm55.098-15.048v-.579l-.041-.427-.071-.478-.081-.6-.133-.691-.152-.813-.193-.936-.254-1.078-.265-1.22-.335-1.362-.468-1.851-.397-1.555-.325-1.312-.295-1.078-.244-.864-.223-.732-.194-.62-.173-.539-.579.163-.773.183-.671.173-.284.061-.753.213-.59.193-.274.092-.224.101-.193.072-.163.101-.172.112-.163.102-.122.112-.122.112-.234.254-.224.295-.325.376-.02-.478-.021-.366-.04-.387-.051-.406-.082-.407-.071-.285-.102-.304-.111-.295-.112-.305-.112-.265-.102-.315-.111-.224h.244l.467-.061.621-.091.803-.183.935-.204 1.058-.254 1.138-.274 1.19-.285 1.23-.305 1.312-.335 1.179-.285 1.078-.285.986-.275.885-.233.843-.244.784-.255.762-.253.214-.052.02.214.071.478.061.468.071.416.092.407.102.366.111.387.163.396.143.407.162.407-.386-.173-.427-.153-.377-.112-.173-.04-.183-.021-.182-.02h-.204l-.437.041-.56.071-.681.142-.874.173-2.033.508.152.773.173.814.173.864.203.945.234 1.017.275 1.159.294 1.291.366 1.424.244 1.037.275 1.047.264 1.027.265.997.264.935.275.874.244.742.254.662.132.325.112.264.101.214.112.193.194.295.183.244.254.244-.366.051-.499.05-.518.081-.509.072-.478.122-.518.132-.498.173-.498.173-.498.173-.133.04-.396.173.193-.407v-.01l.031-.071.02-.091.041-.112.02-.153zm47.95 265.461-.184-.457-.254-.661-.285-.742-.305-.793-.285-.732-.254-.62-.173-.437-.051-.163-.092-.203-.173-.539-.183-.488-.173-.417-.152-.447-.143-.437-.162-.468-.153-.519-.192-.601-.143-.478-2.115 9.669.712-.03.691-.01.682-.041.681-.061.661-.051.691-.082.661-.091.693-.101zm-.173-9.048.254.661.265.701.325.793.386.905.122.325.346.875.498 1.189.58 1.383.569 1.393.498 1.21.366.844.122.336.183.417.203.478.225.488.203.519.213.498.204.498.203.468.193.417.295.641.243.519.214.406.193.306.173.233.152.193.152.152.173.132.376.346-.519-.02-.62-.031-.579-.021-.519.021-.488.021-.488.051-.487.081-.539.112-.569.132-.234.081v-.345l.021-.112v-.488l-.04-.233-.051-.244-.082-.295-.091-.305-.234-.671-.265-.753-1.026-2.623h-.407l-.417.021h-.427l-.417.021-.427.02-.417.021-.417.041-.427.021-.417.04-.438.051-.467.062-.438.061-.427.051-.448.062-.457.071-.447.081-.051.021-.112.56-.152.782-.111.722-.062.285-.041.214-.132.793-.092.63-.091.458-.031.346-.04.274-.021.173v.152l.021.112.021.233.04.305.041.234-.203-.011-.488-.03-.458-.01h-.478l-.478.04-.458.051-.457.082-.458.091-.478.103-.366.091.173-.346.305-.671.265-.62.234-.6.203-.631.213-.731.234-.885.265-1.099.325-1.352 2.196-9.771.233-.966.173-.793.122-.671.102-.56.081-.478.041-.407.03-.406.041-.387.01-.173h.184l.569.021h.569l.549-.021.569-.03.529-.061.559-.082.529-.091.538-.122.153-.021.061.143.224.803.214.712.213.661.205.626zm42.773-257.724.61.326.285.152.274.163.244.132.233.112.438.193.427.153.427.122.407.071.396.061h.579l.173-.041.193-.021.163-.041.213-.051.193-.082.193-.102.193-.091.193-.112.183-.122.173-.132.173-.152.173-.173.152-.173.152-.193.153-.193.152-.214.132-.213.112-.234.142-.244.133-.325.111-.305.092-.294.092-.285.03-.274.041-.264v-.488l-.041-.224-.03-.234-.071-.213-.082-.183-.07-.203-.092-.173-.112-.173-.122-.173-.111-.153-.132-.132-.133-.163-.152-.112-.285-.244-.305-.213-.305-.173-.295-.153-.265-.142-.254-.122-.427-.204-.387-.173-.387-.132-.396-.163-.142.244-.204.396-.213.387-.204.407-.233.437-.244.508-.295.569-.355.722-.417.823-.163.346-.355.773-.427.905-.324.672zm-7.818 7.717-.325-.112.284-.213h.031l.03-.021.132-.112.173-.132.173-.183.173-.224.214-.254.193-.305.224-.325.233-.366.498-.864.529-1.027.6-1.149.62-1.312 2.756-5.755.498-1.118.457-1.017.387-.925.305-.854.133-.386.111-.346.102-.346.071-.305.062-.315.04-.244.03-.254v-.224l.031-.305.264.152.285.204.569.325.61.346.681.376.783.396.224.102.346.132.396.193.438.193.417.193.386.193.346.152.224.102.438.204.457.234.509.264.498.295.224.173.255.173.243.173.224.193.234.193.214.214.203.224.193.234.173.254.173.254.132.274.132.295.122.295.071.305.081.346.041.346.01.346-.01.387-.041.386-.081.427-.111.417-.133.447-.173.458-.224.478-.274.529-.325.529-.173.274-.183.295-.225.254-.243.265-.224.244-.275.254-.264.234-.306.234-.305.203-.346.173-.346.173-.366.143-.437.132-.417.102-.417.051-.427.02h-.428l-.417-.041-.396-.03-.396-.082-.386-.102-.377-.092-.386-.122-.346-.132-.682-.274-.6-.275-.315-.142-.315-.173-.325-.173-.335-.173-.529-.254-.091.214-.092.213-.102.193-.03.051-.448.966-.386.854-.336.763-.284.671-.234.58-.193.519-.152.447-.111.366-.082.335-.07.244-.041.213v.447l.021.152v.031l.021.041.061.387-.325-.193-.498-.295-.458-.264-.457-.254-.468-.224-.488-.234-.519-.213-.519-.214-.521-.195zM52.083 65.159l-.101.356-.112.345-.153.346-.132.325-.173.305-.173.326-.193.295-.183.305-.193.274-.386.529-.376.467-.366.438-.417.468-.468.447-.488.417-.254.213-.265.203-.254.183-.264.173-.264.153-.285.142-.275.112-.264.092-.244.081-.254.081-.265.051-.254.02-.223.041h-.499l-.234-.02-.243-.021-.234-.04-.224-.031-.234-.081-.457-.133-.438-.172-.427-.214-.437-.234-.417-.254-.406-.264-.804-.58-.762-.589h-.01l-.041-.021-5.511-4.545-1.138-.925-.926-.671-.701-.529-.539-.345-.224-.133-.193-.091-.193-.081-.153-.061-.305-.092-.305-.061-.346-.081.244-.224.061-.061.367-.345.355-.366.346-.387.346-.376.325-.427.305-.427.285-.447.275-.437.07-.092.214-.346.112.417.041.112.04.122.031.132.061.142.091.153.122.173.153.183.172.244.336.376.366.366.386.366.397.366.407.366.397.346.386.305.365.294 4.698 3.864.803.661.702.559.325.224.326.224.315.162.305.153.356.163.345.112.346.081.346.03.325.02.326-.02.325-.05.325-.102.326-.122.315-.153.315-.183.325-.233.305-.265.326-.295.305-.325.325-.366.224-.326.213-.294.193-.306.153-.284.132-.295.091-.264.082-.275.051-.264.02-.254.02-.275-.02-.223-.02-.255-.051-.254-.082-.224-.071-.234-.102-.213-.131-.224-.112-.213-.153-.214-.152-.213-.346-.397-.386-.407-.417-.386-.437-.386-.438-.387-.457-.365-4.687-3.854-.478-.386-.478-.397-.457-.366-.438-.376-.427-.305-.345-.265-.285-.213-.204-.142-.386-.265-.346-.162-.325-.163-.366-.112-.325-.101.274-.214.346-.305.305-.305.305-.305.284-.326.234-.315.224-.346.224-.345.213-.346.082-.122.132-.264.173.264.244.407.274.386.325.387.356.406.478.458.58.539.722.64.874.763.254.213.671.539.936.773 1.067.874 1.068.875.925.773.661.538.254.214.041.03.59.57.609.569.285.315.275.326.264.325.244.345.234.367.214.386.183.407.162.427.051.224.061.233.041.234.03.234.041.244.02.254v.509l-.041.396-.05.346zm235.743 97.19-.204-.04-.194-.072-.192-.101-.173-.113-.163-.121-.163-.132-.132-.153-.132-.173-.092-.173-.101-.193-.072-.213-.06-.194-.031-.223V160l.031-.213.06-.214.072-.193.101-.193.092-.163.132-.172.132-.163.163-.132.163-.122.173-.112.192-.092.194-.081.204-.031.233-.04.214-.031.224.031.212.04.214.031.194.081.182.092.173.112.173.122.152.132.133.163.142.172.082.163.111.193.071.193.051.214.021.213.02.234-.02.214-.021.223-.051.194-.071.213-.111.193-.082.173-.142.173-.133.153-.152.132-.173.121-.173.113-.182.101-.194.072-.214.04-.212.041-.224.02-.214-.02zm-59.5 90.521.091-.346.132-.346.122-.325.183-.325.173-.336.214-.325.203-.305.244-.326.254-.315.265-.285.284-.284.305-.295.326-.285.264-.193.295-.214.294-.193.316-.193.589-.325.458-.255.6-.325.355-.213.255-.132.183-.112.214-.122.173-.112.101.193.203.458.194.386.193.346.173.315.213.305.223.325.265.366.325.447.295.366-.457-.081-.326-.061-.406-.051h-.733l-.263.041-.285.031-.285.081-.305.091-.305.122-.336.153-.314.193-.327.214-.345.264-.346.305-.295.315-.233.305-.203.325-.164.325-.122.316-.09.325-.051.306-.021.304.021.295.04.305.071.274.092.265.132.274.132.224.172.234.214.234.235.214.223.152.244.132.254.102.254.071.244.061.275.041h.528l.265-.02.264-.041.549-.102.509-.112 1.423-.346h.011l.915-.213.925-.173.458-.05.436-.041.458-.021.437.021.234.009.203.032.224.05.223.041.224.061.214.071.203.091.214.103.213.091.193.142.214.132.183.153.213.173.194.192.193.194.193.234.183.254.193.244.153.275.152.244.153.295.122.263.101.276.102.284.092.295.061.285.061.284.041.295.009.285.021.294-.021.306-.009.284-.032.214-.03.214-.04.264-.082.274-.081.285-.112.305-.142.336-.163.325-.193.366-.224.346-.244.386-.315.386-.336.387-.366.396-.417.407-.477.407-.346.264-.346.274-.366.265-.355.254-.438.295-.387.223-.345.194-.326.152-.304.133-.325.122-.346.111-.397.133-.132.06-.081-.172-.132-.367-.163-.304-.122-.316-.153-.284-.182-.326-.224-.386-.285-.447-.346-.539-.233-.376.426.111h.061l.417.102.458.071.233.021.224.02.255-.02.264-.021.264-.061.265-.071.284-.101.316-.133.325-.173.325-.213.366-.224.356-.294.366-.326.325-.345.285-.346.254-.366.092-.173.101-.173.092-.193.051-.173.081-.194.041-.193.03-.173.021-.192.02-.276-.02-.284-.03-.274-.082-.285-.102-.254-.102-.265-.152-.254-.183-.223-.204-.234-.233-.193-.254-.153-.244-.142-.244-.092-.265-.06-.265-.041-.294-.01h-.285l-.295.01-.285.041-.304.04-.59.112-.62.142h-.01l-.387.071-.874.173-.864.173-.397.102-.569.081-.641.051-.336.02h-.355l-.356-.02-.346-.051-.376-.081-.366-.122-.356-.163-.387-.193-.192-.123-.173-.131-.193-.132-.193-.154-.173-.182-.194-.163-.163-.193-.192-.213-.193-.254-.173-.255-.153-.244-.152-.254-.143-.264-.112-.255-.111-.264-.092-.275-.071-.264-.081-.295-.041-.264-.031-.295-.03-.265-.011-.294v-.285l.041-.285.031-.355.061-.346zm10.33-9.873-.336-.152-.295-.122.224-.194.407-.305.427-.325.396-.366.387-.366.335-.366.345-.386.326-.397.326-.417.04-.051.173-.254.122.295.234.549.264.508.142.245.173.253.194.275.223.265.579.681.753.803 1.007 1.037 1.261 1.312 1.505 1.535.731.712.641.66.65.611.601.599.609.58.61.6.631.569.651.641.518.477.438.367.355.304.305.235.315.193.285.152.326.142.355.133.325.132-.263.193-.489.366-.426.325-.357.326-.346.325-.385.428-.366.426-.295.407-.286.376-.172.275-.153-.306-.081-.254-.122-.233-.132-.265-.193-.315-.224-.346-.336-.417-.417-.477-.539-.6-.65-.712-.6-.671-.61-.64-.59-.641-.609-.61-.601-.6-.609-.631-.641-.64-.223-.234-.53-.518-.518-.519-.234-.224-1.057-1.006-.834-.793-.651-.61-.477-.448-.366-.325-.306-.275-.243-.193-.224-.183-.326-.254-.275-.213-.233-.153-.203-.132z"/></g></svg>
