<svg xmlns="http://www.w3.org/2000/svg" viewBox="0 0 1488 1492" version="1.1"><path d="M 1220.003 516.820 C 1220 526.072, 1220.032 526.193, 1224.403 533.393 C 1230.581 543.571, 1238.857 560.413, 1244.543 574.380 C 1248.928 585.154, 1249.697 586.393, 1252.798 587.689 C 1254.678 588.474, 1256.407 588.927, 1256.639 588.694 C 1257.168 588.165, 1251.711 573.038, 1245.707 558.389 C 1240.631 546.005, 1229.139 522.648, 1223.612 513.482 L 1220.005 507.500 1220.003 516.820 M 1296.630 655.750 C 1291.599 671.333, 1287.006 689, 1287.985 689 C 1288.450 689, 1290.556 687.036, 1292.665 684.635 C 1296.291 680.509, 1305 662.036, 1305 658.473 C 1305 655.995, 1301.573 645.003, 1300.800 645.001 C 1300.415 645.001, 1298.538 649.837, 1296.630 655.750 M 1185.730 810 C 1185.383 810.825, 1182.787 818.630, 1179.961 827.345 C 1167.823 864.779, 1142.115 922.481, 1121.507 958.546 C 1079.994 1031.195, 1015.155 1092.337, 939.306 1130.355 C 841.079 1179.591, 722.420 1188.423, 617.500 1154.308 C 579.383 1141.914, 546.713 1126.095, 512.212 1103.325 C 458.394 1067.807, 414.115 1021.506, 380.549 965.650 C 372.677 952.550, 356.639 921.113, 351.411 908.532 C 345.463 894.222, 348.304 913.186, 355.150 933.500 C 361.173 951.369, 378.897 990.833, 381.234 991.574 C 384.992 992.767, 390.278 998.538, 399.464 1011.474 C 414.653 1032.867, 426.143 1046.328, 446.908 1067.058 C 468.215 1088.328, 485.194 1102.471, 507.887 1117.851 C 567.764 1158.432, 630.764 1181.501, 705.500 1190.214 C 722.778 1192.228, 778.902 1191.880, 797 1189.646 C 833.106 1185.190, 867.264 1177.037, 898 1165.540 C 989.532 1131.301, 1066.745 1066.928, 1117.552 982.500 C 1126.191 968.144, 1145.376 930.713, 1154.455 910.500 C 1167.329 881.835, 1183.533 838.784, 1186.446 825.500 C 1187.724 819.673, 1187.124 806.688, 1185.730 810" stroke="none" fill="#87b2c7" fill-rule="evenodd"/><path d="M 710 171.676 C 597.798 179.813, 493.262 218.890, 404.022 286.056 C 319.020 350.032, 253.667 435.563, 213.841 534.953 C 208.129 549.207, 199.797 573.130, 200.350 573.684 C 200.555 573.888, 201.894 573.611, 203.325 573.067 C 206.554 571.839, 209.339 566.477, 215.908 548.847 C 242.927 476.331, 295.517 399.217, 356.500 342.693 C 453.931 252.386, 571.573 200.289, 703.500 189.026 C 783.952 182.158, 868.146 195.102, 947.638 226.559 C 1007.479 250.239, 1063.974 284.841, 1097.500 318.346 L 1111.500 332.337 1122.875 336.210 C 1129.131 338.340, 1134.681 339.940, 1135.207 339.764 C 1136.686 339.271, 1115.516 316.510, 1102.845 304.970 C 1042.978 250.447, 965.879 210.026, 878 187.090 C 851.389 180.144, 821.775 175.149, 791.500 172.498 C 776.223 171.161, 724.323 170.637, 710 171.676 M 1073.997 341.669 C 1116.592 377.951, 1133.007 393.547, 1150.125 414 C 1169.445 437.085, 1178.027 449.857, 1182.479 462.151 C 1184.051 466.492, 1185.532 468.596, 1188.530 470.747 C 1206.304 483.501, 1206.094 483.377, 1204.996 480.490 C 1201.832 472.167, 1190.310 451.635, 1180.924 437.593 C 1158.227 403.635, 1126.762 368.350, 1099.941 346.777 L 1090.421 339.121 1079.961 338.479 L 1069.500 337.838 1073.997 341.669 M 366.358 1137 C 366.586 1142.775, 367.568 1150.985, 368.540 1155.244 L 370.306 1162.988 377.673 1168.533 C 387.826 1176.175, 388.517 1176.360, 386.374 1170.873 C 382.541 1161.055, 374.023 1142.005, 370.111 1134.500 L 365.942 1126.500 366.358 1137" stroke="none" fill="#9ebc81" fill-rule="evenodd"/><path d="M 1218.710 539 C 1215.699 651.403, 1206.090 731.601, 1187.508 799.401 C 1183.849 812.751, 1183.372 815.193, 1185.242 811 C 1186.274 808.685, 1186.408 808.906, 1187.059 814 C 1187.954 821.006, 1186.563 827.357, 1179.941 846.500 C 1160.469 902.786, 1128.834 967.845, 1102.166 1006.448 C 1068.916 1054.578, 1023.378 1097.850, 974 1128.237 C 919.336 1161.877, 862.648 1181.544, 797 1189.646 C 778.902 1191.880, 722.778 1192.228, 705.500 1190.214 C 642.091 1182.822, 587.948 1165.332, 535.820 1135.402 C 502.542 1116.296, 475.099 1095.201, 446.908 1067.058 C 426.342 1046.527, 414.547 1032.742, 400.323 1012.615 C 395.615 1005.952, 390.353 998.999, 388.631 997.165 C 385.633 993.971, 380.211 990.455, 379.453 991.214 C 378.817 991.850, 401.342 1036.014, 409.436 1050 C 435.241 1094.591, 471.814 1147.217, 509.511 1194 C 526.714 1215.349, 535 1226.325, 535 1227.764 C 535 1229.499, 516.087 1221.734, 495.500 1211.547 C 452.406 1190.221, 416.320 1164.045, 378.255 1126.500 C 367.660 1116.050, 358.994 1107.735, 358.996 1108.023 C 359.009 1109.747, 365.946 1125.816, 372.800 1140 C 380.721 1156.390, 388.504 1174.829, 387.799 1175.534 C 387.271 1176.062, 369.471 1162.395, 356.005 1151.123 C 341.665 1139.119, 317.561 1115.148, 304.598 1100 C 293.701 1087.266, 279.124 1068.055, 268.177 1052 C 259.260 1038.923, 252.012 1029.654, 251.277 1030.389 C 250.460 1031.207, 260.925 1049.570, 270.430 1064 C 291.412 1095.849, 312.710 1121.708, 342.500 1151.504 C 390.015 1199.028, 436.886 1232.665, 496.500 1262.021 C 659.625 1342.351, 853.609 1340.006, 1014 1255.765 C 1100.142 1210.522, 1172.555 1145.675, 1226.173 1065.760 C 1276.047 991.426, 1305.666 906.430, 1315.649 809 C 1318.012 785.940, 1318.032 735.236, 1315.686 714.338 C 1313.698 696.615, 1311.987 686.113, 1308.342 669.249 L 1305.693 656.998 1304.015 661.749 C 1300.081 672.883, 1296.305 680.508, 1292.691 684.614 C 1290.567 687.026, 1288.450 689, 1287.985 689 C 1286.120 689, 1299.155 645.448, 1301.227 644.758 C 1302.085 644.472, 1302.098 644.179, 1301.277 643.671 C 1299.738 642.720, 1297.008 650.278, 1289.912 675.128 C 1286.672 686.473, 1283.171 697.723, 1282.132 700.128 L 1280.242 704.500 1279.648 701 C 1279.321 699.075, 1278.357 690.300, 1277.506 681.500 C 1274.827 653.811, 1269.113 625.179, 1260.998 598.783 C 1259.185 592.888, 1257.339 588.290, 1256.895 588.565 C 1256.451 588.839, 1254.578 588.433, 1252.733 587.662 C 1249.713 586.400, 1248.898 585.079, 1244.543 574.380 C 1238.755 560.164, 1230.344 543.094, 1224.677 534.068 C 1220.832 527.942, 1220.519 526.894, 1220.027 518.500 C 1219.663 512.276, 1219.256 518.599, 1218.710 539 M 1144.204 912.552 C 1141.892 917.215, 1140.023 921.360, 1140.051 921.765 C 1140.078 922.169, 1142.132 918.516, 1144.614 913.646 C 1147.095 908.777, 1148.964 904.631, 1148.767 904.434 C 1148.570 904.237, 1146.517 907.890, 1144.204 912.552 M 351.360 908 C 352.117 910.808, 358.286 924.047, 358.663 923.671 C 358.869 923.465, 357.219 919.517, 354.996 914.898 C 352.774 910.279, 351.137 907.175, 351.360 908 M 1131 939 C 1127.692 945.600, 1125.210 951, 1125.485 951 C 1125.760 951, 1128.692 945.600, 1132 939 C 1135.308 932.400, 1137.790 927, 1137.515 927 C 1137.240 927, 1134.308 932.400, 1131 939 M 1105.650 982.500 C 1101.437 988.825, 1098.208 994, 1098.473 994 C 1098.738 994, 1102.034 989.388, 1105.797 983.750 C 1113.669 971.958, 1114.264 971, 1113.713 971 C 1113.491 971, 1109.862 976.175, 1105.650 982.500 M 399.715 995.250 C 400.243 995.938, 403.468 1000.212, 406.882 1004.750 C 410.296 1009.288, 413.303 1013, 413.564 1013 C 413.824 1013, 410.824 1008.725, 406.897 1003.500 C 402.970 998.275, 399.531 994, 399.256 994 C 398.980 994, 399.187 994.563, 399.715 995.250 M 1091.564 1002.750 C 1088.440 1007.013, 1087.206 1009.008, 1088.820 1007.184 C 1092.321 1003.229, 1098.308 995, 1097.683 995 C 1097.441 995, 1094.687 998.487, 1091.564 1002.750 M 415.630 1016.250 C 416.719 1017.487, 422.145 1023.675, 427.688 1030 C 438.660 1042.519, 458.734 1062.359, 469.019 1070.851 C 475.046 1075.827, 474.975 1075.723, 468 1069.372 C 452.674 1055.417, 436.536 1039.133, 425.760 1026.750 C 419.658 1019.737, 414.437 1014, 414.158 1014 C 413.880 1014, 414.542 1015.013, 415.630 1016.250 M 1063.490 1036.250 C 1045.680 1055.050, 1042.809 1058.195, 1046.836 1054.489 C 1051.739 1049.979, 1071.454 1029, 1070.790 1029 C 1070.553 1029, 1067.267 1032.263, 1063.490 1036.250 M 1008.326 1086.313 C 1000.058 1092.790, 995.115 1097.077, 999 1094.401 C 1002.982 1091.659, 1018 1079.837, 1018 1079.446 C 1018 1078.737, 1017.958 1078.767, 1008.326 1086.313 M 488.668 1086.713 C 492.428 1090.021, 504 1098.260, 504 1097.629 C 504 1097.387, 499.837 1094.205, 494.750 1090.558 C 489.663 1086.911, 486.926 1085.180, 488.668 1086.713 M 987.233 1101.411 C 978.685 1107.212, 974.391 1110.500, 978 1108.482 C 981.475 1106.538, 997 1095.909, 997 1095.474 C 997 1094.769, 997.203 1094.646, 987.233 1101.411 M 738.750 1174.746 C 744.388 1174.924, 753.612 1174.924, 759.250 1174.746 C 764.888 1174.568, 760.275 1174.422, 749 1174.422 C 737.725 1174.422, 733.112 1174.568, 738.750 1174.746" stroke="none" fill="#9bd3eb" fill-rule="evenodd"/><path d="M 731.199 170.744 C 735.984 170.927, 744.084 170.928, 749.199 170.746 C 754.315 170.564, 750.400 170.414, 740.500 170.413 C 730.600 170.412, 726.415 170.561, 731.199 170.744 M 725 187.666 C 654.114 191.486, 591.726 205.267, 530 230.739 C 415.265 278.088, 317.688 362.804, 253.842 470.500 C 239.096 495.372, 223.537 527.682, 215.075 551 C 209.337 566.812, 206.277 572.216, 202.440 573.309 C 199.460 574.158, 199.258 574.614, 194.693 590.840 C 178.381 648.824, 173.156 690.625, 174.298 754 C 174.907 787.805, 176.250 803.509, 181.051 832.974 C 188.123 876.368, 200.754 920.888, 217.670 962.044 C 227.174 985.165, 248.740 1027.443, 253.627 1032.535 C 255.757 1034.754, 261.325 1042.129, 266 1048.924 C 288.818 1082.092, 305.918 1102.994, 329.470 1126.505 C 343.249 1140.261, 368.692 1162.641, 369.561 1161.772 C 369.763 1161.571, 369.049 1157.152, 367.977 1151.953 C 366.904 1146.754, 366.020 1138.897, 366.013 1134.493 C 366.002 1127.726, 365.458 1125.106, 362.500 1117.571 C 360.575 1112.668, 358.998 1108.396, 358.996 1108.078 C 358.994 1107.760, 367.660 1116.050, 378.255 1126.500 C 416.320 1164.045, 452.406 1190.221, 495.500 1211.547 C 516.087 1221.734, 535 1229.499, 535 1227.764 C 535 1226.325, 526.714 1215.349, 509.511 1194 C 470.735 1145.878, 433.806 1092.532, 407.893 1047.207 C 393.915 1022.759, 370.423 974.071, 360.024 948 C 352.281 928.586, 346.036 904.793, 347.358 899.739 C 347.647 898.634, 345.644 891.158, 342.906 883.126 C 335.318 860.865, 328.236 830.342, 323.386 799 C 320.836 782.520, 320.222 711.645, 322.474 693.789 C 336.508 582.532, 393.807 480.117, 480.943 410.545 C 546.315 358.351, 624.028 326.711, 707.269 318.400 C 727.480 316.382, 779.537 316.941, 802 319.418 C 914.358 331.804, 994.645 358.565, 1104.500 420.245 C 1126.833 432.785, 1157.624 451.393, 1176.250 463.606 C 1184.912 469.286, 1192 473.740, 1192 473.503 C 1192 473.266, 1190.339 471.943, 1188.308 470.564 C 1185.532 468.677, 1184.094 466.611, 1182.507 462.230 C 1178.026 449.853, 1169.484 437.131, 1150.125 414 C 1133.007 393.547, 1116.592 377.951, 1073.997 341.669 L 1069.500 337.838 1079.990 338.482 C 1087.473 338.940, 1090.985 339.581, 1092.240 340.717 C 1093.208 341.593, 1094 342.070, 1094 341.778 C 1094 341.485, 1089.838 337.855, 1084.750 333.711 C 1079.662 329.567, 1074.191 324.800, 1072.591 323.118 L 1069.683 320.059 1078.668 322.464 C 1083.610 323.786, 1092.548 326.456, 1098.531 328.396 C 1104.515 330.336, 1109.611 331.723, 1109.856 331.477 C 1110.946 330.387, 1082.334 303.503, 1071.301 295.250 C 1011.154 250.259, 939.001 217.426, 863.209 200.559 C 815.298 189.897, 767.079 185.399, 725 187.666 M 1125.500 370 C 1129.874 374.400, 1133.678 378, 1133.953 378 C 1134.228 378, 1130.874 374.400, 1126.500 370 C 1122.126 365.600, 1118.322 362, 1118.047 362 C 1117.772 362, 1121.126 365.600, 1125.500 370 M 1145.554 391.500 C 1154.756 402.221, 1159.159 406.727, 1152.926 399.044 C 1150.492 396.044, 1146.099 391.094, 1143.164 388.044 C 1140.056 384.814, 1141.053 386.257, 1145.554 391.500" stroke="none" fill="#b9d992" fill-rule="evenodd"/></svg>
