<?xml version="1.0" encoding="UTF-8"?>
<svg version="1.1" xmlns="http://www.w3.org/2000/svg" width="256" height="256">
<path d="M0 0 C63.36 0 126.72 0 192 0 C192 5.28 192 10.56 192 16 C197.28 16 202.56 16 208 16 C208 21.28 208 26.56 208 32 C213.28 32 218.56 32 224 32 C224 90.08 224 148.16 224 208 C218.72 208 213.44 208 208 208 C208 213.28 208 218.56 208 224 C202.72 224 197.44 224 192 224 C192 229.28 192 234.56 192 240 C186.72 240 181.44 240 176 240 C176 245.28 176 250.56 176 256 C117.92 256 59.84 256 0 256 C0 250.72 0 245.44 0 240 C-5.28 240 -10.56 240 -16 240 C-16 234.72 -16 229.44 -16 224 C-21.28 224 -26.56 224 -32 224 C-32 160.64 -32 97.28 -32 32 C-26.72 32 -21.44 32 -16 32 C-16 26.72 -16 21.44 -16 16 C-10.72 16 -5.44 16 0 16 C0 10.72 0 5.44 0 0 Z " fill="#002F54" transform="translate(32,0)"/>
<path d="M0 0 C47.52 0 95.04 0 144 0 C144 5.28 144 10.56 144 16 C149.28 16 154.56 16 160 16 C160 37.12 160 58.24 160 80 C154.72 80 149.44 80 144 80 C144 85.28 144 90.56 144 96 C149.28 96 154.56 96 160 96 C160 117.12 160 138.24 160 160 C144.16 160 128.32 160 112 160 C112 144.16 112 128.32 112 112 C101.44 112 90.88 112 80 112 C80 101.44 80 90.88 80 80 C90.56 80 101.12 80 112 80 C112 64.16 112 48.32 112 32 C96.16 32 80.32 32 64 32 C64 74.24 64 116.48 64 160 C42.88 160 21.76 160 0 160 C0 107.2 0 54.4 0 0 Z " fill="#ADD8E6" transform="translate(48,32)"/>
<path d="M0 0 C15.84 0 31.68 0 48 0 C48 15.84 48 31.68 48 48 C37.44 48 26.88 48 16 48 C16 58.56 16 69.12 16 80 C26.56 80 37.12 80 48 80 C48 95.84 48 111.68 48 128 C63.84 128 79.68 128 96 128 C96 106.88 96 85.76 96 64 C90.72 64 85.44 64 80 64 C80 58.72 80 53.44 80 48 C90.56 48 101.12 48 112 48 C112 79.68 112 111.36 112 144 C117.28 144 122.56 144 128 144 C128 149.28 128 154.56 128 160 C122.72 160 117.44 160 112 160 C112 165.28 112 170.56 112 176 C106.72 176 101.44 176 96 176 C96 170.72 96 165.44 96 160 C37.92 160 -20.16 160 -80 160 C-80 154.72 -80 149.44 -80 144 C-85.28 144 -90.56 144 -96 144 C-96 112.32 -96 80.64 -96 48 C-85.44 48 -74.88 48 -64 48 C-64 74.4 -64 100.8 -64 128 C-42.88 128 -21.76 128 0 128 C0 85.76 0 43.52 0 0 Z " fill="#002F54" transform="translate(112,64)"/>
<path d="M0 0 C5.28 0 10.56 0 16 0 C16 58.08 16 116.16 16 176 C21.28 176 26.56 176 32 176 C32 181.28 32 186.56 32 192 C90.08 192 148.16 192 208 192 C208 202.56 208 213.12 208 224 C149.92 224 91.84 224 32 224 C32 218.72 32 213.44 32 208 C26.72 208 21.44 208 16 208 C16 202.72 16 197.44 16 192 C10.72 192 5.44 192 0 192 C0 128.64 0 65.28 0 0 Z " fill="#647E91" transform="translate(0,32)"/>
<path d="M0 0 C10.56 0 21.12 0 32 0 C32 31.68 32 63.36 32 96 C53.12 96 74.24 96 96 96 C96 101.28 96 106.56 96 112 C69.6 112 43.2 112 16 112 C16 106.72 16 101.44 16 96 C10.72 96 5.44 96 0 96 C0 64.32 0 32.64 0 0 Z " fill="#002F54" transform="translate(16,112)"/>
<path d="M0 0 C10.56 0 21.12 0 32 0 C32 31.68 32 63.36 32 96 C37.28 96 42.56 96 48 96 C48 101.28 48 106.56 48 112 C42.72 112 37.44 112 32 112 C32 117.28 32 122.56 32 128 C26.72 128 21.44 128 16 128 C16 122.72 16 117.44 16 112 C0.16 112 -15.68 112 -32 112 C-32 106.72 -32 101.44 -32 96 C-16.16 96 -0.32 96 16 96 C16 69.6 16 43.2 16 16 C10.72 16 5.44 16 0 16 C0 10.72 0 5.44 0 0 Z " fill="#002F54" transform="translate(192,112)"/>
<path d="M0 0 C58.08 0 116.16 0 176 0 C176 5.28 176 10.56 176 16 C117.92 16 59.84 16 0 16 C0 10.72 0 5.44 0 0 Z " fill="#001525" transform="translate(32,240)"/>
<path d="M0 0 C5.28 0 10.56 0 16 0 C16 58.08 16 116.16 16 176 C10.72 176 5.44 176 0 176 C0 117.92 0 59.84 0 0 Z " fill="#002F54" transform="translate(240,32)"/>
<path d="M0 0 C5.28 0 10.56 0 16 0 C16 58.08 16 116.16 16 176 C10.72 176 5.44 176 0 176 C0 117.92 0 59.84 0 0 Z " fill="#8699A5" transform="translate(224,32)"/>
<path d="M0 0 C58.08 0 116.16 0 176 0 C176 5.28 176 10.56 176 16 C117.92 16 59.84 16 0 16 C0 10.72 0 5.44 0 0 Z " fill="#97B5C1" transform="translate(32,0)"/>
<path d="M0 0 C15.84 0 31.68 0 48 0 C48 15.84 48 31.68 48 48 C32.16 48 16.32 48 0 48 C0 32.16 0 16.32 0 0 Z " fill="#002F54" transform="translate(112,64)"/>
<path d="M0 0 C47.52 0 95.04 0 144 0 C144 5.28 144 10.56 144 16 C96.48 16 48.96 16 0 16 C0 10.72 0 5.44 0 0 Z " fill="#EAF5F9" transform="translate(48,32)"/>
<path d="M0 0 C5.28 0 10.56 0 16 0 C16 31.68 16 63.36 16 96 C10.72 96 5.44 96 0 96 C0 64.32 0 32.64 0 0 Z " fill="#001525" transform="translate(16,112)"/>
<path d="M0 0 C5.28 0 10.56 0 16 0 C16 31.68 16 63.36 16 96 C10.72 96 5.44 96 0 96 C0 64.32 0 32.64 0 0 Z " fill="#8699A5" transform="translate(0,32)"/>
<path d="M0 0 C26.4 0 52.8 0 80 0 C80 5.28 80 10.56 80 16 C53.6 16 27.2 16 0 16 C0 10.72 0 5.44 0 0 Z " fill="#001525" transform="translate(32,208)"/>
<path d="M0 0 C5.28 0 10.56 0 16 0 C16 26.4 16 52.8 16 80 C10.72 80 5.44 80 0 80 C0 53.6 0 27.2 0 0 Z " fill="#001525" transform="translate(240,128)"/>
<path d="M0 0 C5.28 0 10.56 0 16 0 C16 26.4 16 52.8 16 80 C10.72 80 5.44 80 0 80 C0 53.6 0 27.2 0 0 Z " fill="#647E91" transform="translate(224,128)"/>
<path d="M0 0 C21.12 0 42.24 0 64 0 C64 5.28 64 10.56 64 16 C42.88 16 21.76 16 0 16 C0 10.72 0 5.44 0 0 Z " fill="#647E91" transform="translate(48,192)"/>
<path d="M0 0 C5.28 0 10.56 0 16 0 C16 21.12 16 42.24 16 64 C10.72 64 5.44 64 0 64 C0 42.88 0 21.76 0 0 Z " fill="#255072" transform="translate(208,48)"/>
<path d="M0 0 C5.28 0 10.56 0 16 0 C16 21.12 16 42.24 16 64 C10.72 64 5.44 64 0 64 C0 42.88 0 21.76 0 0 Z " fill="#255072" transform="translate(32,48)"/>
<path d="M0 0 C15.84 0 31.68 0 48 0 C48 5.28 48 10.56 48 16 C32.16 16 16.32 16 0 16 C0 10.72 0 5.44 0 0 Z " fill="#001525" transform="translate(160,208)"/>
<path d="M0 0 C15.84 0 31.68 0 48 0 C48 5.28 48 10.56 48 16 C32.16 16 16.32 16 0 16 C0 10.72 0 5.44 0 0 Z " fill="#647E91" transform="translate(160,192)"/>
<path d="M0 0 C15.84 0 31.68 0 48 0 C48 5.28 48 10.56 48 16 C32.16 16 16.32 16 0 16 C0 10.72 0 5.44 0 0 Z " fill="#255072" transform="translate(112,96)"/>
<path d="M0 0 C15.84 0 31.68 0 48 0 C48 5.28 48 10.56 48 16 C32.16 16 16.32 16 0 16 C0 10.72 0 5.44 0 0 Z " fill="#647E91" transform="translate(112,64)"/>
<path d="M0 0 C5.28 0 10.56 0 16 0 C16 15.84 16 31.68 16 48 C10.72 48 5.44 48 0 48 C0 32.16 0 16.32 0 0 Z " fill="#97B5C1" transform="translate(0,32)"/>
<path d="M0 0 C5.28 0 10.56 0 16 0 C16 5.28 16 10.56 16 16 C21.28 16 26.56 16 32 16 C32 21.28 32 26.56 32 32 C21.44 32 10.88 32 0 32 C0 21.44 0 10.88 0 0 Z " fill="#8699A5" transform="translate(208,0)"/>
<path d="M0 0 C10.56 0 21.12 0 32 0 C32 5.28 32 10.56 32 16 C21.44 16 10.88 16 0 16 C0 10.72 0 5.44 0 0 Z " fill="#001525" transform="translate(128,160)"/>
<path d="M0 0 C10.56 0 21.12 0 32 0 C32 5.28 32 10.56 32 16 C21.44 16 10.88 16 0 16 C0 10.72 0 5.44 0 0 Z " fill="#647E91" transform="translate(128,144)"/>
<path d="M0 0 C10.56 0 21.12 0 32 0 C32 5.28 32 10.56 32 16 C21.44 16 10.88 16 0 16 C0 10.72 0 5.44 0 0 Z " fill="#EAF5F9" transform="translate(128,112)"/>
<path d="M0 0 C5.28 0 10.56 0 16 0 C16 5.28 16 10.56 16 16 C10.72 16 5.44 16 0 16 C0 10.72 0 5.44 0 0 Z " fill="#001525" transform="translate(208,224)"/>
<path d="M0 0 C5.28 0 10.56 0 16 0 C16 5.28 16 10.56 16 16 C10.72 16 5.44 16 0 16 C0 10.72 0 5.44 0 0 Z " fill="#001525" transform="translate(16,224)"/>
<path d="M0 0 C5.28 0 10.56 0 16 0 C16 5.28 16 10.56 16 16 C10.72 16 5.44 16 0 16 C0 10.72 0 5.44 0 0 Z " fill="#001525" transform="translate(224,208)"/>
<path d="M0 0 C5.28 0 10.56 0 16 0 C16 5.28 16 10.56 16 16 C10.72 16 5.44 16 0 16 C0 10.72 0 5.44 0 0 Z " fill="#647E91" transform="translate(208,208)"/>
<path d="M0 0 C5.28 0 10.56 0 16 0 C16 5.28 16 10.56 16 16 C10.72 16 5.44 16 0 16 C0 10.72 0 5.44 0 0 Z " fill="#647E91" transform="translate(16,208)"/>
<path d="M0 0 C5.28 0 10.56 0 16 0 C16 5.28 16 10.56 16 16 C10.72 16 5.44 16 0 16 C0 10.72 0 5.44 0 0 Z " fill="#001525" transform="translate(0,208)"/>
<path d="M0 0 C5.28 0 10.56 0 16 0 C16 5.28 16 10.56 16 16 C10.72 16 5.44 16 0 16 C0 10.72 0 5.44 0 0 Z " fill="#EAF5F9" transform="translate(192,128)"/>
<path d="M0 0 C5.28 0 10.56 0 16 0 C16 5.28 16 10.56 16 16 C10.72 16 5.44 16 0 16 C0 10.72 0 5.44 0 0 Z " fill="#001525" transform="translate(192,112)"/>
<path d="M0 0 C5.28 0 10.56 0 16 0 C16 5.28 16 10.56 16 16 C10.72 16 5.44 16 0 16 C0 10.72 0 5.44 0 0 Z " fill="#97B5C1" transform="translate(176,112)"/>
<path d="M0 0 C5.28 0 10.56 0 16 0 C16 5.28 16 10.56 16 16 C10.72 16 5.44 16 0 16 C0 10.72 0 5.44 0 0 Z " fill="#97B5C1" transform="translate(192,96)"/>
<path d="M0 0 C5.28 0 10.56 0 16 0 C16 5.28 16 10.56 16 16 C10.72 16 5.44 16 0 16 C0 10.72 0 5.44 0 0 Z " fill="#EAF5F9" transform="translate(192,48)"/>
<path d="M0 0 C5.28 0 10.56 0 16 0 C16 5.28 16 10.56 16 16 C10.72 16 5.44 16 0 16 C0 10.72 0 5.44 0 0 Z " fill="#002F54" transform="translate(208,32)"/>
<path d="M0 0 C5.28 0 10.56 0 16 0 C16 5.28 16 10.56 16 16 C10.72 16 5.44 16 0 16 C0 10.72 0 5.44 0 0 Z " fill="#255072" transform="translate(192,32)"/>
<path d="M0 0 C5.28 0 10.56 0 16 0 C16 5.28 16 10.56 16 16 C10.72 16 5.44 16 0 16 C0 10.72 0 5.44 0 0 Z " fill="#002F54" transform="translate(224,16)"/>
<path d="M0 0 C5.28 0 10.56 0 16 0 C16 5.28 16 10.56 16 16 C10.72 16 5.44 16 0 16 C0 10.72 0 5.44 0 0 Z " fill="#97B5C1" transform="translate(16,16)"/>
<path d="M0 0 C5.28 0 10.56 0 16 0 C16 5.28 16 10.56 16 16 C10.72 16 5.44 16 0 16 C0 10.72 0 5.44 0 0 Z " fill="#002F54" transform="translate(208,0)"/>
<path d="M0 0 C5.28 0 10.56 0 16 0 C16 5.28 16 10.56 16 16 C10.72 16 5.44 16 0 16 C0 10.72 0 5.44 0 0 Z " fill="#8699A5" transform="translate(192,0)"/>
<path d="M0 0 C5.28 0 10.56 0 16 0 C16 5.28 16 10.56 16 16 C10.72 16 5.44 16 0 16 C0 10.72 0 5.44 0 0 Z " fill="#8699A5" transform="translate(160,0)"/>
</svg>
