<svg viewBox="4.874929904937744 4.530137538909912 860.8070068359375 860.7392578125" version="1.1" xmlns="http://www.w3.org/2000/svg" xmlns:xlink="http://www.w3.org/1999/xlink" xml:space="preserve" xmlns:serif="http://www.serif.com/" style="fill-rule:evenodd;clip-rule:evenodd;stroke-linejoin:round;stroke-miterlimit:2;">
    <g transform="matrix(1,0,0,1,4.87493,4.30732)">
        <path d="M804.366,731.438C813.986,741.035 819.393,754.084 819.378,767.672C819.378,783.312 812.377,795.908 804.378,803.91C789.113,819.15 768.342,835.021 741.201,846.249C717.713,855.99 692.529,860.991 667.1,860.962L193.652,860.962C140.174,860.962 91.766,839.298 56.719,804.256C21.672,769.209 0,720.804 0,667.315L0,193.849C0,140.372 21.664,91.967 56.719,56.929C91.761,21.895 140.174,0.223 193.652,0.223L667.096,0.223C692.524,0.188 717.71,5.181 741.201,14.915C772.497,27.885 792.511,43.879 811.825,64.73C819.517,73.031 826.838,85.316 826.838,100.968C826.838,114.077 821.828,127.191 811.825,137.202C802.228,146.821 789.18,152.227 775.591,152.214C762.011,152.184 748.98,146.785 739.358,137.202C725.701,123.532 718.207,116.515 702.547,109.884C691.336,105.134 679.281,102.692 667.104,102.706L193.652,102.706C168.515,102.706 145.727,112.928 129.225,129.447C112.726,145.941 102.501,168.721 102.501,193.853L102.501,667.319C102.501,692.477 112.726,715.248 129.225,731.742C145.727,748.248 168.515,758.482 193.652,758.482L667.096,758.482C679.65,758.482 691.631,755.94 702.539,751.305C713.51,746.634 723.477,739.89 731.894,731.443C741.514,721.856 754.55,716.459 768.132,716.439C781.719,716.417 794.769,721.819 804.366,731.438ZM665.589,670.442C663.745,633.063 638.49,575.515 575.015,567.95L349.188,567.95L609.371,318.868C620.354,308.386 645.011,272.846 627.456,234.604C613.354,203.856 589.741,190.751 548.472,190.751L224.358,190.751C225.68,233.75 247.137,285.084 304.126,294.274L489.328,294.274L215.623,551.507C204.517,562.166 186.255,594.931 200.669,628.21C213.678,658.2 235.598,670.442 276.341,670.442L665.589,670.442ZM860.807,190.751C807.064,190.847 758.298,235.914 758.298,284.251L758.298,670.442C812.04,670.325 860.807,625.275 860.807,576.942L860.807,190.751Z" style="fill:rgb(244,140,0);fill-rule:nonzero;"></path>
    </g>
</svg>
