<svg id="layer" xmlns="http://www.w3.org/2000/svg" viewBox="0 0 652 652">
  <defs>
    <style>
      .cls-1 {
        fill: #fabe00;
      }

      .cls-2 {
        fill: #040000;
      }

      .cls-3 {
        fill: #ab002b;
      }
    </style>
  </defs>
  <polygon class="cls-2" points="21.4 353.7 25.8 353.7 36.1 368.6 46.1 353.7 50.5 353.7 50.5 385.9 45.5 385.9 45.5 363.6 36.7 376.4 35.4 376.4 26.4 363.5 26.4 385.9 21.4 385.9 21.4 353.7"/>
  <path class="cls-2" d="m69,353.7h3.8l12.7,32.2h-5.3l-2.8-7.1h-13.1l-2.8,7.1h-5.2l12.7-32.2Zm-2.9,20.3h9.5l-4.8-12.2-4.7,12.2Z"/>
  <path class="cls-2" d="m91.3,385.9v-32.2h11.4c2.2,0,4,.3,5.6.8s2.7,1.3,3.6,2.3c.8,1,1.4,2,1.8,3.2.4,1.1.5,2.4.5,3.8,0,2.2-.6,4.1-1.7,5.8-1.2,1.7-2.7,2.8-4.6,3.4l8.7,12.9h-6.1l-7.9-11.8h-6.1v11.8h-5.2Zm5-27v9.9h6.5c1.9,0,3.4-.5,4.5-1.4s1.6-2.2,1.6-3.7-.5-2.7-1.4-3.6c-1-.8-2.6-1.2-4.9-1.2h-6.3Z"/>
  <polygon class="cls-2" points="134.4 372 134.4 385.9 129.4 385.9 129.4 372 117.8 353.7 124 353.7 132 366.5 140.2 353.7 146.2 353.7 134.4 372"/>
  <polygon class="cls-2" points="151.8 353.7 156.8 353.7 156.8 380.7 173.3 380.7 173.3 385.9 151.8 385.9 151.8 353.7"/>
  <path class="cls-2" d="m190.5,353.7h3.8l12.7,32.2h-5.3l-2.8-7.1h-13.2l-2.8,7.1h-5.2l12.8-32.2Zm-2.9,20.3h9.5l-4.8-12.2-4.7,12.2Z"/>
  <polygon class="cls-2" points="233.7 385.9 217.7 363.9 217.7 385.9 212.8 385.9 212.8 353.7 216.7 353.7 232.7 375.7 232.7 353.7 237.6 353.7 237.6 385.9 233.7 385.9"/>
  <path class="cls-2" d="m246.5,353.7h9.1c2.9,0,5.4.4,7.6,1.2,2.2.8,3.9,2,5.1,3.5s2.2,3.1,2.7,4.9c.6,1.8.9,3.8.9,6,0,4.9-1.4,8.9-4.2,12-2.8,3-7,4.6-12.6,4.6h-8.5v-32.2h-.1Zm5.1,5.2v21.7h3.9c3.8,0,6.7-1,8.5-3s2.8-4.8,2.8-8.3c0-7-3.7-10.4-11.2-10.4h-4Z"/>
  <path class="cls-2" d="m292.2,353.7h9.1c2.9,0,5.4.4,7.6,1.2,2.2.8,3.9,2,5.1,3.5s2.1,3.1,2.7,4.9.9,3.8.9,6c0,4.9-1.4,8.9-4.2,12s-7,4.6-12.6,4.6h-8.5v-32.2h-.1Zm5,5.2v21.7h3.9c3.8,0,6.7-1,8.5-3s2.8-4.8,2.8-8.3c0-7-3.7-10.4-11.2-10.4h-4Z"/>
  <polygon class="cls-2" points="325 353.7 346.5 353.7 346.5 358.9 330 358.9 330 367 345.4 367 345.4 372.1 330 372.1 330 380.7 346.9 380.7 346.9 385.9 325 385.9 325 353.7"/>
  <path class="cls-2" d="m354.7,385.9v-32.2h11.7c2.3,0,4.3.3,6,.9s2.9,1.4,3.7,2.5c.8,1.1,1.4,2.2,1.8,3.3.4,1.1.5,2.4.5,3.8s-.2,2.7-.6,3.9c-.4,1.2-1.1,2.3-2,3.4-.9,1-2.2,1.8-3.8,2.4-1.6.6-3.5.9-5.7.9h-6.7v11h-4.9v.1Zm5-27v10.8h6.6c4.6,0,7-1.8,7-5.4s-2.2-5.3-6.7-5.3h-6.9v-.1Z"/>
  <path class="cls-2" d="m392.8,353.7h3.8l12.7,32.2h-5.3l-2.8-7.1h-13.2l-2.8,7.1h-5.2l12.8-32.2Zm-3,20.3h9.5l-4.8-12.2-4.7,12.2Z"/>
  <path class="cls-2" d="m415,385.9v-32.2h11.4c2.2,0,4,.3,5.6.8s2.7,1.3,3.5,2.3,1.4,2,1.8,3.2c.3,1.1.5,2.4.5,3.8,0,2.2-.6,4.1-1.7,5.8-1.2,1.7-2.7,2.8-4.6,3.4l8.7,12.9h-6.1l-7.9-11.8h-6.1v11.8h-5.1Zm5.1-27v9.9h6.5c1.9,0,3.4-.5,4.5-1.4s1.6-2.2,1.6-3.7-.5-2.7-1.4-3.6c-1-.8-2.6-1.2-4.9-1.2h-6.3Z"/>
  <polygon class="cls-2" points="443.1 353.7 467.6 353.7 467.6 358.9 457.9 358.9 457.9 385.9 452.8 385.9 452.8 358.9 443.1 358.9 443.1 353.7"/>
  <polygon class="cls-2" points="473.4 353.7 477.8 353.7 488.2 368.6 498.2 353.7 502.6 353.7 502.6 385.9 497.6 385.9 497.6 363.6 488.7 376.4 487.4 376.4 478.4 363.5 478.4 385.9 473.4 385.9 473.4 353.7"/>
  <polygon class="cls-2" points="511.6 353.7 533.1 353.7 533.1 358.9 516.6 358.9 516.6 367 532 367 532 372.1 516.6 372.1 516.6 380.7 533.5 380.7 533.5 385.9 511.6 385.9 511.6 353.7"/>
  <polygon class="cls-2" points="562.2 385.9 546.2 363.9 546.2 385.9 541.3 385.9 541.3 353.7 545.2 353.7 561.2 375.7 561.2 353.7 566.1 353.7 566.1 385.9 562.2 385.9"/>
  <polygon class="cls-2" points="571.9 353.7 596.4 353.7 596.4 358.9 586.6 358.9 586.6 385.9 581.6 385.9 581.6 358.9 571.9 358.9 571.9 353.7"/>
  <path class="cls-2" d="m68.5,404.1c2.9-3.2,6.4-4.8,10.5-4.8s7.7,1.6,10.6,4.7,4.3,7.1,4.3,11.8-1.4,8.6-4.3,11.8c-2.9,3.2-6.4,4.7-10.5,4.7s-7.6-1.6-10.5-4.7-4.3-7.1-4.3-11.8c-.1-4.6,1.4-8.5,4.2-11.7m3.8,19.7c1.9,2.1,4.1,3.1,6.8,3.1s5-1,6.9-3.1c1.8-2.1,2.8-4.7,2.8-8s-1-5.9-2.8-8c-1.9-2.1-4.1-3.1-6.8-3.1s-4.9,1-6.8,3.1-2.8,4.7-2.8,8c-.2,3.3.8,5.9,2.7,8"/>
  <polygon class="cls-2" points="101.3 399.7 122.6 399.7 122.6 405 106.3 405 106.3 414.1 121.5 414.1 121.5 419.3 106.3 419.3 106.3 431.9 101.3 431.9 101.3 399.7"/>
  <polygon class="cls-2" points="139.9 399.7 164.4 399.7 164.4 405 154.6 405 154.6 431.9 149.6 431.9 149.6 405 139.9 405 139.9 399.7"/>
  <path class="cls-2" d="m170.2,431.9v-32.2h11.4c2.2,0,4,.3,5.6.8,1.5.5,2.7,1.3,3.5,2.3s1.4,2,1.8,3.2c.3,1.1.5,2.4.5,3.8,0,2.2-.6,4.1-1.7,5.8-1.2,1.7-2.7,2.8-4.6,3.4l8.7,12.9h-6.1l-7.9-11.8h-6.1v11.8h-5.1Zm5-26.9v9.9h6.5c1.9,0,3.4-.5,4.5-1.4s1.6-2.2,1.6-3.7-.5-2.7-1.4-3.6c-.9-.8-2.6-1.2-4.9-1.2h-6.3Z"/>
  <path class="cls-2" d="m212.5,399.7h3.8l12.7,32.2h-5.3l-2.8-7.1h-13.2l-2.8,7.1h-5.2l12.8-32.2Zm-2.9,20.3h9.5l-4.8-12.2-4.7,12.2Z"/>
  <polygon class="cls-2" points="255.7 431.9 239.7 410 239.7 431.9 234.8 431.9 234.8 399.7 238.7 399.7 254.7 421.8 254.7 399.7 259.6 399.7 259.6 431.9 255.7 431.9"/>
  <path class="cls-2" d="m284.2,420.7c-.7-.7-1.5-1.2-2.6-1.6s-2.2-.7-3.5-1.1c-1.3-.3-2.5-.7-3.8-1.1s-2.4-1-3.5-1.6-1.9-1.5-2.6-2.7c-.7-1.1-1-2.5-1-4.1,0-2.5,1.1-4.7,3.2-6.5s4.9-2.6,8.1-2.6c4.8,0,8.5,1.5,11.2,4.6l-2.7,4c-2.4-2.2-5.3-3.4-8.6-3.4-1.7,0-3.2.3-4.3,1-1.2.6-1.7,1.6-1.7,2.8,0,1,.4,1.8,1.3,2.5s2,1.1,3.3,1.5c1.3.3,2.8.7,4.3,1.2,1.6.5,3,1.1,4.3,1.7s2.4,1.6,3.3,2.8c.9,1.3,1.3,2.9,1.3,4.7,0,2.8-1.1,5.1-3.2,6.9-2.2,1.8-4.8,2.7-7.9,2.7-2.5,0-5-.6-7.3-1.7-2.4-1.1-4.1-2.5-5.4-4.2l3-3.9c2.6,3.1,6,4.6,10.2,4.6,1.7,0,3.1-.3,4.1-1s1.4-1.7,1.4-2.9c.1-1.1-.2-1.9-.9-2.6"/>
  <path class="cls-2" d="m297.7,431.9v-32.2h11.7c2.4,0,4.3.3,6,.9,1.6.6,2.9,1.4,3.7,2.5.8,1.1,1.4,2.2,1.8,3.3.4,1.1.5,2.4.5,3.8s-.2,2.7-.6,3.9c-.4,1.2-1.1,2.3-2,3.4-.9,1-2.2,1.8-3.8,2.4-1.6.6-3.5.9-5.7.9h-6.7v11h-4.9v.1Zm5-27v10.8h6.6c4.6,0,7-1.8,7-5.4s-2.2-5.3-6.7-5.3h-6.9v-.1Z"/>
  <path class="cls-2" d="m331.3,404.1c2.9-3.2,6.4-4.8,10.6-4.8s7.7,1.6,10.6,4.7,4.3,7.1,4.3,11.8-1.4,8.6-4.3,11.8c-2.9,3.2-6.4,4.7-10.5,4.7s-7.7-1.6-10.5-4.7c-2.9-3.1-4.3-7.1-4.3-11.8-.1-4.6,1.3-8.5,4.1-11.7m3.8,19.7c1.9,2.1,4.1,3.1,6.8,3.1s5-1,6.9-3.1c1.8-2.1,2.8-4.7,2.8-8s-.9-5.9-2.8-8-4.1-3.1-6.8-3.1-4.9,1-6.8,3.1-2.8,4.7-2.8,8c-.1,3.3.8,5.9,2.7,8"/>
  <path class="cls-2" d="m364.1,431.9v-32.2h11.4c2.2,0,4,.3,5.6.8s2.7,1.3,3.5,2.3,1.4,2,1.8,3.2c.3,1.1.5,2.4.5,3.8,0,2.2-.6,4.1-1.7,5.8-1.2,1.7-2.7,2.8-4.6,3.4l8.7,12.9h-6.1l-7.9-11.8h-6.1v11.8h-5.1Zm5-26.9v9.9h6.5c1.9,0,3.4-.5,4.5-1.4s1.6-2.2,1.6-3.7-.5-2.7-1.4-3.6c-1-.8-2.6-1.2-4.9-1.2h-6.3Z"/>
  <polygon class="cls-2" points="392.2 399.7 416.7 399.7 416.7 405 406.9 405 406.9 431.9 401.9 431.9 401.9 405 392.2 405 392.2 399.7"/>
  <path class="cls-2" d="m428.8,399.7h3.8l12.7,32.2h-5.3l-2.8-7.1h-13.2l-2.8,7.1h-5.2l12.8-32.2Zm-3,20.3h9.5l-4.8-12.2-4.7,12.2Z"/>
  <polygon class="cls-2" points="444.7 399.7 469.2 399.7 469.2 405 459.4 405 459.4 431.9 454.4 431.9 454.4 405 444.7 405 444.7 399.7"/>
  <rect class="cls-2" x="475" y="399.7" width="5" height="32.2"/>
  <path class="cls-2" d="m491.5,404.1c2.9-3.2,6.4-4.8,10.6-4.8s7.7,1.6,10.6,4.7c2.9,3.1,4.3,7.1,4.3,11.8s-1.4,8.6-4.3,11.8c-2.9,3.2-6.4,4.7-10.5,4.7s-7.7-1.6-10.5-4.7c-2.9-3.1-4.3-7.1-4.3-11.8-.1-4.6,1.3-8.5,4.1-11.7m3.8,19.7c1.9,2.1,4.1,3.1,6.8,3.1s5-1,6.9-3.1c1.8-2.1,2.8-4.7,2.8-8s-.9-5.9-2.8-8-4.1-3.1-6.8-3.1-4.9,1-6.8,3.1-2.8,4.7-2.8,8c-.1,3.3.8,5.9,2.7,8"/>
  <polygon class="cls-2" points="545.2 431.9 529.2 410 529.2 431.9 524.3 431.9 524.3 399.7 528.2 399.7 544.2 421.8 544.2 399.7 549.1 399.7 549.1 431.9 545.2 431.9"/>
  <path class="cls-2" d="m565,331h6.5v1.2h-2.5v5.4h-1.3v-5.4h-2.7v-1.2Zm7.4,0h1.1l2.8,3.2,2.7-3.2h1.1v6.6h-1.3v-4.7l-2.5,3h-.1l-2.5-3v4.7h-1.3v-6.6Z"/>
  <path class="cls-2" d="m365.9,259.9h0c0-.4,0-.9-.1-1.3,0-.7.1-1.3.2-2-.5-3.5-1.8-6.8-3.8-9.7-2.1-3-5-5.5-8.3-7.2-2.8-1.4-5.8-2.2-8.8-2.4-.1.1-.2.3-.2.4-1.3,2.5-2.4,5.1-3.2,7.8-.3.9-.5,1.8-.8,2.7-.9,3.7-1.4,7.6-1.4,11.6v13.8h26.4v-13.7h0Z"/>
  <path class="cls-2" d="m470.2,211.4h-82.3c-8,0-15.5,2-22.1,5.4-.2.1-.3.2-.4.2.1.1.2.1.3.1,8.8,4.5,16.1,11.9,20.7,20.6h.5c.4,0,.8-.1,1.2-.1h82l.2-.4v-25.8h-.1Z"/>
  <polygon class="cls-2" points="213.6 306.2 239.9 271.3 239.9 212.4 239.9 210.7 208 210.7 188.1 237.1 143.6 296.3 143.6 212 143.6 210.7 111.7 210.7 21.1 331 54.1 331 117.3 246.9 117.3 331 143.6 331 150.4 331 213.6 246.9 213.6 306.2"/>
  <path class="cls-1" d="m366.2,325.6c-.1,0-.2-.1-.3-.1-4.4-2.3-8.5-5.2-12-8.8-3.5-3.5-6.4-7.5-8.7-11.9-.2,0-.3,0-.5.1h-97.6l25.6-34h-32.9l-26.3,34.9v25.4h130c1,0,2,0,3-.1.9-.1,1.8-.1,2.7-.3.3,0,.6-.1.9-.1.6-.1,1.2-.2,1.8-.3.3-.1.7-.1,1-.2.5-.1,1.1-.2,1.6-.4.4-.1.7-.2,1.1-.3.5-.1,1-.3,1.6-.4.3-.1.7-.2,1-.3.5-.2,1.1-.3,1.6-.5.3-.1.6-.2,1-.4.6-.2,1.1-.5,1.7-.7.3-.1.5-.2.8-.3.8-.4,1.6-.7,2.4-1.1.2,0,.4-.1.5-.2"/>
  <path class="cls-1" d="m344.8,237.7h0c3.2.2,6.1,1,8.8,2.4,3.3,1.7,6.1,4.1,8.2,7.1,2.3,3.3,3.7,7.2,4,11.4v.2c0,.4.1.7.1,1.1v22.9c0,.4,0,.7-.1,1.1v.2c0,.7-.1,1.3-.2,1.9,1.6,10.5,10.2,18.6,21,19.3.1-.1.2-.3.2-.4.8-1.7,1.6-3.4,2.3-5.1.7-1.8,1.2-3.6,1.7-5.4.2-.9.4-1.9.6-2.8.5-2.9.8-5.8.8-8.8v-22.9c0-3-.3-5.9-.8-8.8-.2-.9-.4-1.9-.6-2.8-.5-1.9-1-3.7-1.7-5.4-.7-1.8-1.4-3.5-2.3-5.1-4.6-9-12-16.3-21-21-6.6-3.4-14.2-5.4-22.1-5.4h-79.4l-19.8,26.3h99.3c.3,0,.6,0,1,0"/>
  <path class="cls-2" d="m517.9,259.9c0-.9,0-1.8-.1-2.8v-.8c-.1-.7-.1-1.3-.2-2,0-.2,0-.3-.1-.5,0-.1,0-.2-.1-.4-.1-.7-.2-1.3-.3-2-.1-.2-.1-.5-.1-.7-.2-.7-.3-1.5-.5-2.2v-.1q0-.1-.1-.2c-.2-1-.6-2-.9-3-.5-1.7-1.1-3.4-1.8-5h0c-.4-.9-.8-1.7-1.2-2.5h0c-.1-.1-.1-.3-.2-.4h-42.1l-.2.4h.6c.3,0,.6.1.9.1,1.4.1,2.8.4,4.1.8,1.1.3,2.2.7,3.3,1.2h0l1.8.9s.1,0,.1.1c.6.3,1.1.7,1.6,1.1.1,0,.1.1.2.1.5.4,1,.7,1.4,1.1.1.1.2.1.2.2.4.4.9.8,1.2,1.2.1,0,.1.1.1.1q.1.1.2.2c.3.3.6.7.9,1q.1.1.2.2c.1.1.2.3.3.5.3.4.6.8.9,1.2.1.2.3.4.4.6,0,.1.1.1.1.2.2.3.4.7.6,1,.1.3.2.5.4.8.2.4.4.7.5,1.1.1.2.2.4.3.7,0,.1.1.2.1.3.1.3.3.7.4,1,.1.4.2.8.3,1.1.1.3.2.6.2.9.1.5.2.9.2,1.4,0,.2.1.5.1.7.1.7.1,1.5.1,2.2v22.9c0,.7,0,1.5-.1,2.2,0,.2-.1.5-.1.7-.1.5-.1,1-.2,1.4-.1.3-.2.6-.2,1-.1.4-.2.8-.3,1.1-.1.4-.2.7-.4,1,0,.1-.1.2-.1.3-.1.2-.2.5-.3.7-.1.4-.3.7-.5,1.1-.1.3-.2.5-.4.8-.2.3-.4.7-.6,1,0,.1-.1.1-.1.2-.1.2-.2.4-.4.6-.3.4-.6.8-.9,1.2-.1.2-.2.3-.3.5l-.2.2c-.3.4-.6.7-.9,1l-.2.2-.1.1-1.2,1.2c-.1.1-.2.1-.2.2-.5.4-1,.8-1.4,1.1q-.1.1-.2.1c-.5.4-1.1.7-1.6,1.1l-.1.1c-.6.3-1.2.7-1.8.9h0c-1.1.5-2.2.9-3.3,1.2-1.3.4-2.7.6-4.1.8-.3,0-.6.1-.9.1-.4,0-.8.1-1.2.1h-81.5c-.4,0-.8,0-1.2-.1-11.3-.6-20.3-9.6-21-20.8,0-.4.1-.9.1-1.3v-10.6h-26.4v10.7c0,8,2,15.5,5.4,22.2,2.3,4.5,5.3,8.6,8.8,12.1s7.6,6.5,12.1,8.8c6.6,3.4,14.2,5.4,22.1,5.4h81.5c18.7,0,35-10.7,43.1-26.3h0c.4-.8.8-1.7,1.2-2.5h0c.7-1.6,1.3-3.3,1.8-5,.3-1,.6-2,.9-3,0-.1,0-.2.1-.2v-.1c.2-.7.3-1.5.5-2.2.1-.2.1-.5.1-.7.1-.7.2-1.3.3-2,0-.1,0-.2.1-.4,0-.2,0-.3.1-.5.1-.6.1-1.3.2-2v-.8c.1-.9.1-1.8.1-2.8h0v-22.8h.1Z"/>
  <polygon class="cls-3" points="469.8 211.4 469.8 237.7 532.3 237.7 532.3 331 558.5 331 558.5 237.7 595 237.7 621.1 211.6 621.1 211.4 469.8 211.4"/>
</svg>
