<svg version="1.1" id="layer" xmlns="http://www.w3.org/2000/svg" xmlns:xlink="http://www.w3.org/1999/xlink" x="0px" y="0px" viewBox="21.100000381469727 210.6999969482422 600 221.6999969482422" style="enable-background:new 0 0 652 652;" xml:space="preserve">
<style type="text/css">
	.st0{fill:#040000;}
	.st1{fill:#FABE00;}
	.st2{fill:#AB002B;}
</style>
<polygon class="st0" points="21.4,353.7 25.8,353.7 36.1,368.6 46.1,353.7 50.5,353.7 50.5,385.9 45.5,385.9 45.5,363.6 36.7,376.4 
	35.4,376.4 26.4,363.5 26.4,385.9 21.4,385.9 "></polygon>
<path class="st0" d="M69,353.7h3.8l12.7,32.2h-5.3l-2.8-7.1H64.3l-2.8,7.1h-5.2L69,353.7z M66.1,374h9.5l-4.8-12.2L66.1,374z"></path>
<path class="st0" d="M91.3,385.9v-32.2h11.4c2.2,0,4,0.3,5.6,0.8c1.6,0.5,2.7,1.3,3.6,2.3c0.8,1,1.4,2,1.8,3.2
	c0.4,1.1,0.5,2.4,0.5,3.8c0,2.2-0.6,4.1-1.7,5.8c-1.2,1.7-2.7,2.8-4.6,3.4l8.7,12.9h-6.1l-7.9-11.8h-6.1v11.8H91.3z M96.3,358.9v9.9
	h6.5c1.9,0,3.4-0.5,4.5-1.4c1.1-0.9,1.6-2.2,1.6-3.7c0-1.5-0.5-2.7-1.4-3.6c-1-0.8-2.6-1.2-4.9-1.2H96.3z"></path>
<polygon class="st0" points="134.4,372 134.4,385.9 129.4,385.9 129.4,372 117.8,353.7 124,353.7 132,366.5 140.2,353.7 
	146.2,353.7 "></polygon>
<polygon class="st0" points="151.8,353.7 156.8,353.7 156.8,380.7 173.3,380.7 173.3,385.9 151.8,385.9 "></polygon>
<path class="st0" d="M190.5,353.7h3.8l12.7,32.2h-5.3l-2.8-7.1h-13.2l-2.8,7.1h-5.2L190.5,353.7z M187.6,374h9.5l-4.8-12.2
	L187.6,374z"></path>
<polygon class="st0" points="233.7,385.9 217.7,363.9 217.7,385.9 212.8,385.9 212.8,353.7 216.7,353.7 232.7,375.7 232.7,353.7 
	237.6,353.7 237.6,385.9 "></polygon>
<path class="st0" d="M246.5,353.7h9.1c2.9,0,5.4,0.4,7.6,1.2c2.2,0.8,3.9,2,5.1,3.5c1.2,1.5,2.2,3.1,2.7,4.9c0.6,1.8,0.9,3.8,0.9,6
	c0,4.9-1.4,8.9-4.2,12c-2.8,3-7,4.6-12.6,4.6h-8.5V353.7z M251.6,358.9v21.7h3.9c3.8,0,6.7-1,8.5-3c1.8-2,2.8-4.8,2.8-8.3
	c0-7-3.7-10.4-11.2-10.4H251.6z"></path>
<path class="st0" d="M292.2,353.7h9.1c2.9,0,5.4,0.4,7.6,1.2c2.2,0.8,3.9,2,5.1,3.5c1.2,1.5,2.1,3.1,2.7,4.9c0.6,1.8,0.9,3.8,0.9,6
	c0,4.9-1.4,8.9-4.2,12s-7,4.6-12.6,4.6h-8.5V353.7z M297.2,358.9v21.7h3.9c3.8,0,6.7-1,8.5-3c1.8-2,2.8-4.8,2.8-8.3
	c0-7-3.7-10.4-11.2-10.4H297.2z"></path>
<polygon class="st0" points="325,353.7 346.5,353.7 346.5,358.9 330,358.9 330,367 345.4,367 345.4,372.1 330,372.1 330,380.7 
	346.9,380.7 346.9,385.9 325,385.9 "></polygon>
<path class="st0" d="M354.7,385.9v-32.2h11.7c2.3,0,4.3,0.3,6,0.9c1.7,0.6,2.9,1.4,3.7,2.5c0.8,1.1,1.4,2.2,1.8,3.3
	c0.4,1.1,0.5,2.4,0.5,3.8c0,1.4-0.2,2.7-0.6,3.9c-0.4,1.2-1.1,2.3-2,3.4c-0.9,1-2.2,1.8-3.8,2.4c-1.6,0.6-3.5,0.9-5.7,0.9h-6.7v11
	H354.7z M359.7,358.9v10.8h6.6c4.6,0,7-1.8,7-5.4c0-3.6-2.2-5.3-6.7-5.3H359.7z"></path>
<path class="st0" d="M392.8,353.7h3.8l12.7,32.2H404l-2.8-7.1H388l-2.8,7.1H380L392.8,353.7z M389.8,374h9.5l-4.8-12.2L389.8,374z"></path>
<path class="st0" d="M415,385.9v-32.2h11.4c2.2,0,4,0.3,5.6,0.8c1.6,0.5,2.7,1.3,3.5,2.3c0.8,1,1.4,2,1.8,3.2
	c0.3,1.1,0.5,2.4,0.5,3.8c0,2.2-0.6,4.1-1.7,5.8c-1.2,1.7-2.7,2.8-4.6,3.4l8.7,12.9h-6.1l-7.9-11.8h-6.1v11.8H415z M420.1,358.9v9.9
	h6.5c1.9,0,3.4-0.5,4.5-1.4c1.1-0.9,1.6-2.2,1.6-3.7c0-1.5-0.5-2.7-1.4-3.6c-1-0.8-2.6-1.2-4.9-1.2H420.1z"></path>
<polygon class="st0" points="443.1,353.7 467.6,353.7 467.6,358.9 457.9,358.9 457.9,385.9 452.8,385.9 452.8,358.9 443.1,358.9 "></polygon>
<polygon class="st0" points="473.4,353.7 477.8,353.7 488.2,368.6 498.2,353.7 502.6,353.7 502.6,385.9 497.6,385.9 497.6,363.6 
	488.7,376.4 487.4,376.4 478.4,363.5 478.4,385.9 473.4,385.9 "></polygon>
<polygon class="st0" points="511.6,353.7 533.1,353.7 533.1,358.9 516.6,358.9 516.6,367 532,367 532,372.1 516.6,372.1 
	516.6,380.7 533.5,380.7 533.5,385.9 511.6,385.9 "></polygon>
<polygon class="st0" points="562.2,385.9 546.2,363.9 546.2,385.9 541.3,385.9 541.3,353.7 545.2,353.7 561.2,375.7 561.2,353.7 
	566.1,353.7 566.1,385.9 "></polygon>
<polygon class="st0" points="571.9,353.7 596.4,353.7 596.4,358.9 586.6,358.9 586.6,385.9 581.6,385.9 581.6,358.9 571.9,358.9 "></polygon>
<path class="st0" d="M68.5,404.1c2.9-3.2,6.4-4.8,10.5-4.8c4.2,0,7.7,1.6,10.6,4.7c2.9,3.1,4.3,7.1,4.3,11.8c0,4.7-1.4,8.6-4.3,11.8
	c-2.9,3.2-6.4,4.7-10.5,4.7c-4.1,0-7.6-1.6-10.5-4.7c-2.9-3.1-4.3-7.1-4.3-11.8C64.2,411.2,65.7,407.3,68.5,404.1 M72.3,423.8
	c1.9,2.1,4.1,3.1,6.8,3.1c2.7,0,5-1,6.9-3.1c1.8-2.1,2.8-4.7,2.8-8c0-3.3-1-5.9-2.8-8c-1.9-2.1-4.1-3.1-6.8-3.1
	c-2.6,0-4.9,1-6.8,3.1c-1.9,2.1-2.8,4.7-2.8,8C69.4,419.1,70.4,421.7,72.3,423.8"></path>
<polygon class="st0" points="101.3,399.7 122.6,399.7 122.6,405 106.3,405 106.3,414.1 121.5,414.1 121.5,419.3 106.3,419.3 
	106.3,431.9 101.3,431.9 "></polygon>
<polygon class="st0" points="139.9,399.7 164.4,399.7 164.4,405 154.6,405 154.6,431.9 149.6,431.9 149.6,405 139.9,405 "></polygon>
<path class="st0" d="M170.2,431.9v-32.2h11.4c2.2,0,4,0.3,5.6,0.8c1.5,0.5,2.7,1.3,3.5,2.3c0.8,1,1.4,2,1.8,3.2
	c0.3,1.1,0.5,2.4,0.5,3.8c0,2.2-0.6,4.1-1.7,5.8c-1.2,1.7-2.7,2.8-4.6,3.4l8.7,12.9h-6.1l-7.9-11.8h-6.1v11.8H170.2z M175.2,405v9.9
	h6.5c1.9,0,3.4-0.5,4.5-1.4c1.1-0.9,1.6-2.2,1.6-3.7c0-1.5-0.5-2.7-1.4-3.6c-0.9-0.8-2.6-1.2-4.9-1.2H175.2z"></path>
<path class="st0" d="M212.5,399.7h3.8l12.7,32.2h-5.3l-2.8-7.1h-13.2l-2.8,7.1h-5.2L212.5,399.7z M209.6,420h9.5l-4.8-12.2
	L209.6,420z"></path>
<polygon class="st0" points="255.7,431.9 239.7,410 239.7,431.9 234.8,431.9 234.8,399.7 238.7,399.7 254.7,421.8 254.7,399.7 
	259.6,399.7 259.6,431.9 "></polygon>
<path class="st0" d="M284.2,420.7c-0.7-0.7-1.5-1.2-2.6-1.6c-1.1-0.4-2.2-0.7-3.5-1.1c-1.3-0.3-2.5-0.7-3.8-1.1
	c-1.3-0.4-2.4-1-3.5-1.6c-1.1-0.6-1.9-1.5-2.6-2.7c-0.7-1.1-1-2.5-1-4.1c0-2.5,1.1-4.7,3.2-6.5c2.1-1.8,4.9-2.6,8.1-2.6
	c4.8,0,8.5,1.5,11.2,4.6l-2.7,4c-2.4-2.2-5.3-3.4-8.6-3.4c-1.7,0-3.2,0.3-4.3,1c-1.2,0.6-1.7,1.6-1.7,2.8c0,1,0.4,1.8,1.3,2.5
	c0.9,0.7,2,1.1,3.3,1.5c1.3,0.3,2.8,0.7,4.3,1.2c1.6,0.5,3,1.1,4.3,1.7c1.3,0.6,2.4,1.6,3.3,2.8c0.9,1.3,1.3,2.9,1.3,4.7
	c0,2.8-1.1,5.1-3.2,6.9c-2.2,1.8-4.8,2.7-7.9,2.7c-2.5,0-5-0.6-7.3-1.7c-2.4-1.1-4.1-2.5-5.4-4.2l3-3.9c2.6,3.1,6,4.6,10.2,4.6
	c1.7,0,3.1-0.3,4.1-1c1-0.7,1.4-1.7,1.4-2.9C285.2,422.2,284.9,421.4,284.2,420.7"></path>
<path class="st0" d="M297.7,431.9v-32.2h11.7c2.4,0,4.3,0.3,6,0.9c1.6,0.6,2.9,1.4,3.7,2.5c0.8,1.1,1.4,2.2,1.8,3.3
	c0.4,1.1,0.5,2.4,0.5,3.8c0,1.4-0.2,2.7-0.6,3.9c-0.4,1.2-1.1,2.3-2,3.4c-0.9,1-2.2,1.8-3.8,2.4c-1.6,0.6-3.5,0.9-5.7,0.9h-6.7v11
	H297.7z M302.7,404.9v10.8h6.6c4.6,0,7-1.8,7-5.4c0-3.6-2.2-5.3-6.7-5.3H302.7z"></path>
<path class="st0" d="M331.3,404.1c2.9-3.2,6.4-4.8,10.6-4.8c4.2,0,7.7,1.6,10.6,4.7c2.9,3.1,4.3,7.1,4.3,11.8
	c0,4.7-1.4,8.6-4.3,11.8c-2.9,3.2-6.4,4.7-10.5,4.7c-4.1,0-7.7-1.6-10.5-4.7c-2.9-3.1-4.3-7.1-4.3-11.8
	C327.1,411.2,328.5,407.3,331.3,404.1 M335.1,423.8c1.9,2.1,4.1,3.1,6.8,3.1c2.7,0,5-1,6.9-3.1c1.8-2.1,2.8-4.7,2.8-8
	c0-3.3-0.9-5.9-2.8-8c-1.9-2.1-4.1-3.1-6.8-3.1c-2.6,0-4.9,1-6.8,3.1c-1.9,2.1-2.8,4.7-2.8,8C332.3,419.1,333.2,421.7,335.1,423.8"></path>
<path class="st0" d="M364.1,431.9v-32.2h11.4c2.2,0,4,0.3,5.6,0.8c1.6,0.5,2.7,1.3,3.5,2.3c0.8,1,1.4,2,1.8,3.2
	c0.3,1.1,0.5,2.4,0.5,3.8c0,2.2-0.6,4.1-1.7,5.8c-1.2,1.7-2.7,2.8-4.6,3.4l8.7,12.9h-6.1l-7.9-11.8h-6.1v11.8H364.1z M369.1,405v9.9
	h6.5c1.9,0,3.4-0.5,4.5-1.4c1.1-0.9,1.6-2.2,1.6-3.7c0-1.5-0.5-2.7-1.4-3.6c-1-0.8-2.6-1.2-4.9-1.2H369.1z"></path>
<polygon class="st0" points="392.2,399.7 416.7,399.7 416.7,405 406.9,405 406.9,431.9 401.9,431.9 401.9,405 392.2,405 "></polygon>
<path class="st0" d="M428.8,399.7h3.8l12.7,32.2H440l-2.8-7.1H424l-2.8,7.1h-5.2L428.8,399.7z M425.8,420h9.5l-4.8-12.2L425.8,420z"></path>
<polygon class="st0" points="444.7,399.7 469.2,399.7 469.2,405 459.4,405 459.4,431.9 454.4,431.9 454.4,405 444.7,405 "></polygon>
<rect x="475" y="399.7" class="st0" width="5" height="32.2"></rect>
<path class="st0" d="M491.5,404.1c2.9-3.2,6.4-4.8,10.6-4.8c4.2,0,7.7,1.6,10.6,4.7c2.9,3.1,4.3,7.1,4.3,11.8
	c0,4.7-1.4,8.6-4.3,11.8c-2.9,3.2-6.4,4.7-10.5,4.7c-4.1,0-7.7-1.6-10.5-4.7c-2.9-3.1-4.3-7.1-4.3-11.8
	C487.3,411.2,488.7,407.3,491.5,404.1 M495.3,423.8c1.9,2.1,4.1,3.1,6.8,3.1c2.7,0,5-1,6.9-3.1c1.8-2.1,2.8-4.7,2.8-8
	c0-3.3-0.9-5.9-2.8-8c-1.9-2.1-4.1-3.1-6.8-3.1c-2.6,0-4.9,1-6.8,3.1c-1.9,2.1-2.8,4.7-2.8,8C492.5,419.1,493.4,421.7,495.3,423.8"></path>
<polygon class="st0" points="545.2,431.9 529.2,410 529.2,431.9 524.3,431.9 524.3,399.7 528.2,399.7 544.2,421.8 544.2,399.7 
	549.1,399.7 549.1,431.9 "></polygon>
<path class="st0" d="M565,331h6.5v1.2h-2.5v5.4h-1.3v-5.4H565V331z M572.4,331h1.1l2.8,3.2l2.7-3.2h1.1v6.6h-1.3v-4.7l-2.5,3h-0.1
	l-2.5-3v4.7h-1.3V331z"></path>
<path class="st0" d="M365.9,259.9L365.9,259.9c0-0.4,0-0.9-0.1-1.3c0-0.7,0.1-1.3,0.2-2c-0.5-3.5-1.8-6.8-3.8-9.7
	c-2.1-3-5-5.5-8.3-7.2c-2.8-1.4-5.8-2.2-8.8-2.4c-0.1,0.1-0.2,0.3-0.2,0.4c-1.3,2.5-2.4,5.1-3.2,7.8c-0.3,0.9-0.5,1.8-0.8,2.7
	c-0.9,3.7-1.4,7.6-1.4,11.6v13.8h26.4V259.9z"></path>
<path class="st0" d="M470.2,211.4c-0.3,0-0.5,0-0.8,0h-81.5c-8,0-15.5,2-22.1,5.4c-0.2,0.1-0.3,0.2-0.4,0.2c0.1,0.1,0.2,0.1,0.3,0.1
	c8.8,4.5,16.1,11.9,20.7,20.6c0.2,0,0.3,0,0.5,0c0.4,0,0.8-0.1,1.2-0.1h81.5c0.2,0,0.4,0,0.5,0l0.2-0.4V211.4z"></path>
<polygon class="st0" points="213.6,306.2 239.9,271.3 239.9,212.4 239.9,210.7 208,210.7 188.1,237.1 143.6,296.3 143.6,212 
	143.6,210.7 111.7,210.7 21.1,331 54.1,331 117.3,246.9 117.3,331 143.6,331 150.4,331 213.6,246.9 "></polygon>
<path class="st1" d="M366.2,325.6c-0.1,0-0.2-0.1-0.3-0.1c-4.4-2.3-8.5-5.2-12-8.8c-3.5-3.5-6.4-7.5-8.7-11.9c-0.2,0-0.3,0-0.5,0.1
	c-0.4,0-0.8,0-1.2,0h-96.4l25.6-34h-32.9l-26.3,34.9v25.4h50.6h79.4c1,0,2,0,3-0.1c0.9-0.1,1.8-0.1,2.7-0.3c0.3,0,0.6-0.1,0.9-0.1
	c0.6-0.1,1.2-0.2,1.8-0.3c0.3-0.1,0.7-0.1,1-0.2c0.5-0.1,1.1-0.2,1.6-0.4c0.4-0.1,0.7-0.2,1.1-0.3c0.5-0.1,1-0.3,1.6-0.4
	c0.3-0.1,0.7-0.2,1-0.3c0.5-0.2,1.1-0.3,1.6-0.5c0.3-0.1,0.6-0.2,1-0.4c0.6-0.2,1.1-0.5,1.7-0.7c0.3-0.1,0.5-0.2,0.8-0.3
	c0.8-0.4,1.6-0.7,2.4-1.1C365.9,325.8,366.1,325.7,366.2,325.6"></path>
<path class="st1" d="M344.8,237.7L344.8,237.7c3.2,0.2,6.1,1,8.8,2.4c3.3,1.7,6.1,4.1,8.2,7.1c2.3,3.3,3.7,7.2,4,11.4
	c0,0.1,0,0.2,0,0.2c0,0.4,0.1,0.7,0.1,1.1v22.9c0,0.4,0,0.7-0.1,1.1c0,0.1,0,0.2,0,0.2c0,0.7-0.1,1.3-0.2,1.9
	c1.6,10.5,10.2,18.6,21,19.3c0.1-0.1,0.2-0.3,0.2-0.4c0.8-1.7,1.6-3.4,2.3-5.1c0.7-1.8,1.2-3.6,1.7-5.4c0.2-0.9,0.4-1.9,0.6-2.8
	c0.5-2.9,0.8-5.8,0.8-8.8v-22.9c0-3-0.3-5.9-0.8-8.8c-0.2-0.9-0.4-1.9-0.6-2.8c-0.5-1.9-1-3.7-1.7-5.4c-0.7-1.8-1.4-3.5-2.3-5.1
	c-4.6-9-12-16.3-21-21c-6.6-3.4-14.2-5.4-22.1-5.4h-79.4l-19.8,26.3h99.3C344.1,237.7,344.4,237.7,344.8,237.7"></path>
<path class="st0" d="M517.9,259.9c0-0.9,0-1.8-0.1-2.8c0,0,0-0.1,0-0.1c0-0.2,0-0.5,0-0.7c-0.1-0.7-0.1-1.3-0.2-2
	c0-0.2,0-0.3-0.1-0.5c0-0.1,0-0.2-0.1-0.4c-0.1-0.7-0.2-1.3-0.3-2c-0.1-0.2-0.1-0.5-0.1-0.7c-0.2-0.7-0.3-1.5-0.5-2.2
	c0,0,0-0.1,0-0.1c0-0.1,0-0.1-0.1-0.2c-0.2-1-0.6-2-0.9-3c-0.5-1.7-1.1-3.4-1.8-5v0c-0.4-0.9-0.8-1.7-1.2-2.5c0,0,0,0,0,0
	c-0.1-0.1-0.1-0.3-0.2-0.4h-42.1v0l-0.2,0.4c0.2,0,0.4,0,0.6,0c0.3,0,0.6,0.1,0.9,0.1c1.4,0.1,2.8,0.4,4.1,0.8
	c1.1,0.3,2.2,0.7,3.3,1.2l0,0c0.6,0.3,1.2,0.6,1.8,0.9c0,0,0.1,0,0.1,0.1c0.6,0.3,1.1,0.7,1.6,1.1c0.1,0,0.1,0.1,0.2,0.1
	c0.5,0.4,1,0.7,1.4,1.1c0.1,0.1,0.2,0.1,0.2,0.2c0.4,0.4,0.9,0.8,1.2,1.2c0.1,0,0.1,0.1,0.1,0.1c0.1,0.1,0.1,0.1,0.2,0.2
	c0.3,0.3,0.6,0.7,0.9,1c0.1,0.1,0.1,0.1,0.2,0.2c0.1,0.1,0.2,0.3,0.3,0.5c0.3,0.4,0.6,0.8,0.9,1.2c0.1,0.2,0.3,0.4,0.4,0.6
	c0,0.1,0.1,0.1,0.1,0.2c0.2,0.3,0.4,0.7,0.6,1c0.1,0.3,0.2,0.5,0.4,0.8c0.2,0.4,0.4,0.7,0.5,1.1c0.1,0.2,0.2,0.4,0.3,0.7
	c0,0.1,0.1,0.2,0.1,0.3c0.1,0.3,0.3,0.7,0.4,1c0.1,0.4,0.2,0.8,0.3,1.1c0.1,0.3,0.2,0.6,0.2,0.9c0.1,0.5,0.2,0.9,0.2,1.4
	c0,0.2,0.1,0.5,0.1,0.7c0.1,0.7,0.1,1.5,0.1,2.2v22.9c0,0.7,0,1.5-0.1,2.2c0,0.2-0.1,0.5-0.1,0.7c-0.1,0.5-0.1,1-0.2,1.4
	c-0.1,0.3-0.2,0.6-0.2,1c-0.1,0.4-0.2,0.8-0.3,1.1c-0.1,0.4-0.2,0.7-0.4,1c0,0.1-0.1,0.2-0.1,0.3c-0.1,0.2-0.2,0.5-0.3,0.7
	c-0.1,0.4-0.3,0.7-0.5,1.1c-0.1,0.3-0.2,0.5-0.4,0.8c-0.2,0.3-0.4,0.7-0.6,1c0,0.1-0.1,0.1-0.1,0.2c-0.1,0.2-0.2,0.4-0.4,0.6
	c-0.3,0.4-0.6,0.8-0.9,1.2c-0.1,0.2-0.2,0.3-0.3,0.5c-0.1,0.1-0.1,0.1-0.2,0.2c-0.3,0.4-0.6,0.7-0.9,1c-0.1,0.1-0.1,0.1-0.2,0.2
	c0,0-0.1,0.1-0.1,0.1c-0.4,0.4-0.8,0.8-1.2,1.2c-0.1,0.1-0.2,0.1-0.2,0.2c-0.5,0.4-1,0.8-1.4,1.1c-0.1,0.1-0.1,0.1-0.2,0.1
	c-0.5,0.4-1.1,0.7-1.6,1.1l-0.1,0.1c-0.6,0.3-1.2,0.7-1.8,0.9l0,0c-1.1,0.5-2.2,0.9-3.3,1.2c-1.3,0.4-2.7,0.6-4.1,0.8
	c-0.3,0-0.6,0.1-0.9,0.1c-0.4,0-0.8,0.1-1.2,0.1h-81.5c-0.4,0-0.8,0-1.2-0.1c-11.3-0.6-20.3-9.6-21-20.8c0-0.4,0.1-0.9,0.1-1.3V272
	h-26.4v10.7c0,8,2,15.5,5.4,22.2c2.3,4.5,5.3,8.6,8.8,12.1c3.5,3.5,7.6,6.5,12.1,8.8c6.6,3.4,14.2,5.4,22.1,5.4h81.5
	c18.7,0,35-10.7,43.1-26.3c0,0,0,0,0,0c0.4-0.8,0.8-1.7,1.2-2.5v0c0.7-1.6,1.3-3.3,1.8-5c0.3-1,0.6-2,0.9-3c0-0.1,0-0.2,0.1-0.2
	c0-0.1,0-0.1,0-0.1c0.2-0.7,0.3-1.5,0.5-2.2c0.1-0.2,0.1-0.5,0.1-0.7c0.1-0.7,0.2-1.3,0.3-2c0-0.1,0-0.2,0.1-0.4
	c0-0.2,0-0.3,0.1-0.5c0.1-0.6,0.1-1.3,0.2-2c0-0.2,0-0.5,0-0.7c0-0.1,0-0.1,0-0.1c0.1-0.9,0.1-1.8,0.1-2.8v0V259.9L517.9,259.9z"></path>
<polygon class="st2" points="469.8,211.4 469.8,237.7 532.3,237.7 532.3,331 558.5,331 558.5,237.7 595,237.7 621.1,211.6 
	621.1,211.4 "></polygon>
</svg>
