<svg version="1.1" id="Layer_1" xmlns="http://www.w3.org/2000/svg" xmlns:xlink="http://www.w3.org/1999/xlink" viewBox="0.699999988079071 2.0999999046325684 360 335.8999938964844">
<style type="text/css">
	.st0{fill:#000001;}
	.st1{clip-path:url(#SVGID_00000030487496089997657510000011420032355861178026_);}
	.st2{fill:#FEC028;}
	.st3{fill:#B82527;}
	.st4{fill:#FFFFFF;}
	.st5{fill:#FDB913;}
	.st6{fill:#A30C33;}
</style>
<path class="st0" d="M97.5,173.4V145l-12.1,24.4h-4.2l-12-24.4v28.4h-6v-38.1h7.6l12.5,25.3l12.5-25.3h7.5v38.1L97.5,173.4z"></path>
<path class="st0" d="M130.8,169.8c-2.4,2.7-6,4.1-9.6,3.8c-5,0.6-9.5-3.1-10.1-8.1c0-0.3,0-0.6-0.1-0.9c0-5.3,4-8.6,10.9-8.7h8.7
	v-0.9c0-3.6-2.3-5.8-6.9-5.8c-3.1,0.1-6,1.1-8.5,2.9l-2.6-4.4c3.7-2.5,8-3.7,12.4-3.6c7.4,0,11.6,3.8,11.7,10.2v19h-6.2L130.8,169.8
	z M130.7,163.2v-2.7h-7.8c-4.1,0-6,1.1-6,3.9c0,2.6,2.1,4.3,5.6,4.3C127,168.7,130.4,166.4,130.7,163.2z"></path>
<path class="st0" d="M151.9,150.2c1.8-3.8,5.8-6.2,10-6v6c-4.8-0.7-9.2,2.6-9.9,7.4c0,0.2-0.1,0.4-0.1,0.7v15.1h-6.3v-28.9h6.3
	V150.2z"></path>
<path class="st0" d="M181,177.3c-1.3,4.1-5.1,6.9-9.4,6.9c-2.5,0.1-4.8-0.8-6.7-2.4l2.7-4.8c1.1,0.9,2.4,1.4,3.8,1.4
	c2,0,3.8-1.3,4.4-3.2l1-2.2l-12-28.5h6.5l8.6,21.9l8-21.9h6.3L181,177.3z"></path>
<path class="st0" d="M198.1,173.4v-40.3h6.3v40.3H198.1z"></path>
<path class="st0" d="M231.5,169.8c-2.4,2.7-6,4.1-9.6,3.8c-5,0.6-9.5-3.1-10.1-8.1c0-0.3,0-0.6-0.1-0.9c0-5.3,4-8.6,10.9-8.7h8.7
	v-0.9c0-3.6-2.3-5.8-6.9-5.8c-3.1,0.1-6,1.1-8.5,2.9l-2.6-4.4c3.7-2.5,8-3.7,12.4-3.6c7.4,0,11.6,3.8,11.7,10.2v19h-6.2L231.5,169.8
	z M231.4,163.2v-2.7h-7.8c-4.1,0-6,1.1-6,3.9c0,2.6,2.1,4.3,5.6,4.3C227.7,168.7,231.1,166.4,231.4,163.2z"></path>
<path class="st0" d="M273.9,155.4v18h-6.2v-16.2c0.3-3.5-2.3-6.7-5.8-7c-0.4,0-0.8,0-1.1,0c-4.4-0.1-8.1,3.4-8.2,7.9v15.4h-6.2
	v-28.9h6.2v5.5c2.1-3.9,6.3-6.2,10.6-5.7c5.6-0.4,10.4,3.8,10.8,9.3C274,154.2,274,154.8,273.9,155.4z"></path>
<path class="st0" d="M310.1,173.4h-6.2v-4.9c-2.2,3.5-6.1,5.5-10.2,5.2c-7.5,0.2-13.7-5.8-13.9-13.3c0-0.5,0-1,0.1-1.5
	c-0.6-7.4,4.9-14,12.3-14.6c0.5,0,1-0.1,1.4,0c4.1-0.2,8.1,1.8,10.3,5.3v-16.4h6.2V173.4z M303.9,159c0.4-4.8-3.2-9.1-8.1-9.5
	c-0.3,0-0.5,0-0.8,0c-5.2,0.3-9.2,4.9-8.8,10.1c0.3,4.7,4.1,8.5,8.8,8.8c4.8,0.1,8.8-3.8,8.9-8.7C303.9,159.5,303.9,159.3,303.9,159
	z"></path>
<g>
	<defs>
		<path id="SVGID_1_" d="M187,17.2C125.1,18.1,108.4,56,108.4,56v69.3l102.4,0.1H232h20.4h11.7V55.7c0,0-17.5-37.2-76.9-38.5h-7.3"></path>
	</defs>
	<clipPath id="SVGID_00000147205343025993634870000018257898854817722274_">
		<use xlink:href="#SVGID_1_" style="overflow:visible;"></use>
	</clipPath>
	<g style="clip-path:url(#SVGID_00000147205343025993634870000018257898854817722274_);">
		<rect x="104.3" y="2.1" class="st2" width="129.1" height="155.5"></rect>
		<polygon class="st0" points="228.5,93.9 186.4,68.8 186.4,2.2 228.5,2.2 		"></polygon>
		<polygon class="st0" points="186.6,163.1 145,137.6 145,43.7 186.6,68.7 		"></polygon>
		<polygon class="st0" points="144.9,43.7 144.9,18.1 102.9,18.1 		"></polygon>
		<rect x="93" y="92.4" class="st3" width="201" height="34.7"></rect>
		<rect x="228.3" y="16.2" class="st3" width="60" height="71.6"></rect>
		<path class="st4" d="M174.5,88v-0.1l0,0V88z"></path>
		<path class="st4" d="M174.5,87.4L174.5,87.4v-0.1V87.4z"></path>
		<polygon class="st4" points="235.2,79.7 235.2,79.8 235.1,79.8 		"></polygon>
		<path class="st4" d="M182.1,106.5c0,4.2-3.4,7.6-7.6,7.6c0,0,0,0,0,0l0,0c-4.2,0-7.6-3.4-7.6-7.6c0,0,0,0,0,0v-28
			c0-4.2,3.4-7.6,7.6-7.6c0,0,0,0,0,0l0,0c4.2,0,7.6,3.4,7.6,7.6c0,0,0,0,0,0V106.5z"></path>
		<path class="st4" d="M295.3,84.9c4.2,0,7.6,3.4,7.6,7.6c0,0,0,0,0,0l0,0c0,4.2-3.4,7.6-7.6,7.6l0,0h-134c-4.2,0-7.6-3.4-7.6-7.6
			c0,0,0,0,0,0l0,0c0-4.2,3.4-7.6,7.6-7.6c0,0,0,0,0,0H295.3z"></path>
		<path class="st4" d="M236.1,134.9c0,4.2-3.4,7.6-7.6,7.6l0,0l0,0c-4.2,0-7.6-3.4-7.6-7.6c0,0,0,0,0,0V50.4c0-4.2,3.4-7.6,7.6-7.6
			l0,0l0,0c4.2,0,7.6,3.4,7.6,7.6l0,0V134.9z"></path>
		<path class="st4" d="M242.5,55.6c4.2,0,7.6,3.4,7.6,7.6c0,0,0,0,0,0l0,0c0,4.2-3.4,7.6-7.6,7.6l0,0h-28.1c-4.2,0-7.6-3.4-7.6-7.6
			l0,0l0,0c0-4.2,3.4-7.6,7.6-7.6c0,0,0,0,0,0L242.5,55.6z"></path>
		<path class="st4" d="M242.5,114.1c4.2,0,7.6,3.4,7.6,7.6c0,0,0,0,0,0l0,0c0,4.2-3.4,7.6-7.6,7.6l0,0h-28.1c-4.2,0-7.6-3.4-7.6-7.6
			c0,0,0,0,0,0l0,0c0-4.2,3.4-7.6,7.6-7.6c0,0,0,0,0,0H242.5z"></path>
	</g>
</g>
<path d="M7.6,199.4h2.7l6.2,9l6-9h2.6v19.3h-3v-13.4l-5.3,7.7h-0.8l-5.4-7.7v13.4h-3L7.6,199.4z"></path>
<path d="M36.3,199.4h2.3l7.6,19.3H43l-1.7-4.3h-7.9l-1.7,4.3h-3.1L36.3,199.4z M34.5,211.5h5.7l-2.9-7.3L34.5,211.5z"></path>
<path d="M49.6,218.7v-19.3h6.9c1.1,0,2.3,0.1,3.4,0.5c0.8,0.3,1.6,0.7,2.1,1.4c0.5,0.6,0.8,1.2,1.1,1.9c0.2,0.7,0.3,1.5,0.3,2.3
	c0,1.2-0.3,2.5-1,3.5c-0.7,1-1.7,1.7-2.9,2.1l5.2,7.7h-3.7l-4.8-7.1h-3.7v7.1H49.6z M52.6,202.5v6h3.9c1,0.1,1.9-0.2,2.7-0.8
	c0.7-0.6,1-1.4,1-2.2c0-0.8-0.3-1.6-0.9-2.1c-0.9-0.6-1.9-0.9-3-0.8L52.6,202.5z"></path>
<path d="M75.5,210.4v8.4h-3v-8.4l-7-11h3.7l4.8,7.7l4.9-7.7h3.6L75.5,210.4z"></path>
<path d="M85.9,199.4h3v16.1h9.9v3.2H85.9V199.4z"></path>
<path d="M109.1,199.4h2.3l7.6,19.3h-3.2l-1.7-4.3h-7.9l-1.7,4.3h-3.1L109.1,199.4z M107.4,211.5h5.7l-2.9-7.3L107.4,211.5z"></path>
<path d="M135.1,218.7l-9.6-13.2v13.2h-2.9v-19.3h2.3l9.6,13.2v-13.2h2.9v19.3H135.1z"></path>
<path d="M142.8,199.4h5.4c1.6,0,3.1,0.2,4.6,0.8c1.2,0.4,2.2,1.1,3.1,2.1c0.7,0.9,1.3,1.9,1.6,3c0.4,1.2,0.5,2.4,0.5,3.6
	c0.1,2.6-0.8,5.2-2.5,7.2c-1.7,1.8-4.2,2.7-7.6,2.8h-5.1L142.8,199.4z M145.8,202.5v13h2.3c2.3,0,4-0.6,5.1-1.8
	c1.2-1.4,1.8-3.2,1.6-5c0-4.2-2.2-6.3-6.7-6.3L145.8,202.5z"></path>
<path d="M170.2,199.4h5.4c1.6,0,3.1,0.2,4.6,0.8c1.2,0.4,2.2,1.1,3.1,2.1c0.7,0.9,1.3,1.9,1.6,3c0.4,1.2,0.5,2.4,0.5,3.6
	c0.1,2.6-0.8,5.2-2.5,7.2c-1.7,1.8-4.2,2.7-7.6,2.8h-5.1L170.2,199.4z M173.2,202.5v13h2.4c2.3,0,4-0.6,5.1-1.8
	c1.2-1.4,1.8-3.2,1.6-5c0-4.2-2.2-6.3-6.7-6.3L173.2,202.5z"></path>
<path d="M189.8,199.4h12.9v3.1h-9.9v4.9h9.3v3h-9.3v5.1H203v3.2h-13.2V199.4z"></path>
<path d="M207.7,218.7v-19.3h7c1.2,0,2.4,0.2,3.6,0.5c0.9,0.3,1.6,0.8,2.2,1.5c0.5,0.6,0.8,1.3,1.1,2c0.2,0.7,0.3,1.5,0.3,2.3
	c0,0.8-0.1,1.6-0.4,2.3c-0.3,0.7-0.7,1.4-1.2,2c-0.6,0.7-1.4,1.2-2.3,1.5c-1.1,0.4-2.3,0.6-3.4,0.5h-4v6.6L207.7,218.7z
	 M210.7,202.5v6.5h4c2.8,0,4.2-1.1,4.2-3.3c0-2.2-1.3-3.2-4-3.2H210.7z"></path>
<path d="M230.5,199.4h2.3l7.6,19.3h-3.2l-1.8-4.3h-7.9l-1.7,4.3h-3.1L230.5,199.4z M228.7,211.5h5.7l-2.9-7.3L228.7,211.5z"></path>
<path d="M243.9,218.7v-19.3h6.8c1.1,0,2.3,0.1,3.4,0.5c0.8,0.3,1.6,0.7,2.1,1.4c0.5,0.6,0.8,1.2,1.1,1.9c0.2,0.7,0.3,1.5,0.3,2.3
	c0,1.2-0.3,2.5-1,3.5c-0.7,1-1.6,1.7-2.8,2.1l5.2,7.7h-3.6l-4.8-7.1h-3.7v7.1L243.9,218.7z M246.9,202.5v6h3.9
	c1,0.1,1.9-0.2,2.7-0.8c0.7-0.6,1-1.4,1-2.2c0-0.8-0.3-1.6-0.9-2.1c-0.9-0.6-1.9-0.8-3-0.8L246.9,202.5z"></path>
<path d="M260.7,199.4h14.7v3.1h-5.9v16.2h-3v-16.2h-5.8L260.7,199.4z"></path>
<path d="M278.9,199.4h2.6l6.2,9l6-9h2.6v19.3h-3v-13.4l-5.3,7.7h-0.8l-5.4-7.7v13.4h-3L278.9,199.4z"></path>
<path d="M301.8,199.4h12.9v3.1h-9.9v4.9h9.3v3h-9.3v5.1H315v3.2h-13.2V199.4z"></path>
<path d="M332.1,218.7l-9.6-13.2v13.2h-2.9v-19.3h2.3l9.6,13.2v-13.2h3v19.3H332.1z"></path>
<path d="M338,199.4h14.7v3.1h-5.8v16.2h-3v-16.2H338L338,199.4z"></path>
<path d="M35.9,229.6c3.1-3.5,8.4-3.8,12-0.7c0,0,0,0,0,0c0.2,0.2,0.5,0.5,0.7,0.7c3.4,4.1,3.4,10,0,14.1c-3.1,3.5-8.5,3.8-12,0.7
	c0,0,0,0,0,0c-0.2-0.2-0.5-0.4-0.7-0.7C32.5,239.7,32.5,233.7,35.9,229.6L35.9,229.6z M38.2,241.5c2,2.3,5.4,2.5,7.6,0.5
	c0,0,0,0,0,0c0.2-0.2,0.4-0.3,0.5-0.5c1.1-1.3,1.7-3.1,1.7-4.8c0.1-1.8-0.5-3.5-1.7-4.8c-1.9-2.2-5.3-2.5-7.6-0.6c0,0,0,0,0,0
	c-0.2,0.2-0.4,0.4-0.6,0.6C35.9,234.7,35.9,238.7,38.2,241.5L38.2,241.5z"></path>
<path d="M55.6,227h12.8v3.1h-9.8v5.5h9.1v3.1h-9.1v7.6h-3L55.6,227z"></path>
<path d="M78.8,227h14.7v3.1h-5.8v16.2h-3v-16.2h-5.8V227z"></path>
<path d="M96.9,246.3V227h6.8c1.1,0,2.3,0.1,3.4,0.5c0.8,0.3,1.6,0.7,2.1,1.4c0.5,0.6,0.8,1.2,1.1,1.9c0.2,0.7,0.3,1.5,0.3,2.3
	c0,1.2-0.3,2.5-1,3.5c-0.7,1-1.6,1.7-2.8,2.1l5.2,7.7h-3.7l-4.8-7.1H100v7.1L96.9,246.3z M99.9,230.2v5.9h3.9c1,0.1,1.9-0.2,2.7-0.8
	c0.7-0.6,1-1.4,1-2.2c0-0.8-0.3-1.6-0.9-2.1c-0.9-0.6-1.9-0.9-3-0.8H99.9z"></path>
<path d="M122.3,227h2.3l7.6,19.3h-3.2l-1.7-4.3h-7.9l-1.7,4.3h-3.1L122.3,227z M120.6,239.2h5.7l-2.9-7.4L120.6,239.2z"></path>
<path d="M148.2,246.3l-9.6-13.2v13.2h-2.9V227h2.3l9.6,13.2V227h2.9v19.3H148.2z"></path>
<path d="M165.4,239.6c-0.4-0.4-1-0.8-1.5-1c-0.7-0.2-1.4-0.5-2.1-0.6s-1.5-0.4-2.3-0.7c-0.7-0.3-1.4-0.6-2.1-1
	c-0.6-0.4-1.2-1-1.5-1.6c-1.2-2.2-0.6-4.8,1.3-6.4c1.4-1.1,3.1-1.7,4.9-1.6c2.5-0.1,5,0.9,6.7,2.8l-1.6,2.4c-1.4-1.3-3.3-2-5.2-2
	c-0.9,0-1.8,0.2-2.6,0.6c-0.9,0.5-1.3,1.6-0.8,2.5c0.1,0.3,0.3,0.5,0.6,0.7c0.6,0.4,1.3,0.7,2,0.9c0.8,0.2,1.7,0.4,2.6,0.8
	c0.9,0.3,1.7,0.6,2.6,1c0.8,0.4,1.5,1,2,1.7c0.6,0.8,0.8,1.8,0.8,2.8c0,1.6-0.7,3.1-1.9,4.1c-1.3,1.1-3,1.6-4.8,1.6
	c-1.5,0-3-0.3-4.4-1c-1.3-0.6-2.4-1.4-3.3-2.5l1.8-2.4c1.5,1.8,3.8,2.8,6.1,2.8c0.9,0,1.7-0.2,2.4-0.6c0.6-0.4,0.9-1,0.9-1.7
	C166,240.5,165.8,240,165.4,239.6z"></path>
<path d="M173.5,246.3V227h7c1.2,0,2.4,0.2,3.6,0.5c0.9,0.3,1.6,0.8,2.2,1.5c0.5,0.6,0.8,1.3,1.1,2c0.2,0.7,0.3,1.5,0.3,2.3
	c0,0.8-0.1,1.6-0.4,2.3c-0.3,0.7-0.7,1.4-1.2,2c-0.6,0.7-1.4,1.2-2.3,1.5c-1.1,0.4-2.3,0.6-3.4,0.5h-4v6.6L173.5,246.3z
	 M176.5,230.1v6.5h4c2.8,0,4.2-1.1,4.2-3.3s-1.3-3.2-4-3.2L176.5,230.1z"></path>
<path d="M193.6,229.6c3.1-3.5,8.4-3.8,12-0.7c0,0,0,0,0,0c0.2,0.2,0.5,0.5,0.7,0.7c3.4,4.1,3.4,10,0,14.1c-3.1,3.5-8.5,3.8-12,0.7
	c0,0,0,0,0,0c-0.2-0.2-0.5-0.4-0.7-0.7C190.2,239.7,190.2,233.7,193.6,229.6L193.6,229.6z M195.9,241.5c2,2.3,5.4,2.5,7.6,0.5
	c0,0,0,0,0,0c0.2-0.2,0.4-0.3,0.5-0.5c1.1-1.3,1.7-3.1,1.6-4.8c0.1-1.8-0.5-3.5-1.7-4.8c-1.9-2.2-5.3-2.5-7.6-0.6c0,0,0,0,0,0
	c-0.2,0.2-0.4,0.4-0.6,0.6C193.6,234.7,193.6,238.7,195.9,241.5L195.9,241.5z"></path>
<path d="M213.3,246.3V227h6.8c1.1,0,2.3,0.1,3.4,0.5c0.8,0.3,1.6,0.7,2.1,1.4c0.5,0.6,0.8,1.2,1.1,1.9c0.2,0.7,0.3,1.5,0.3,2.3
	c0,1.2-0.3,2.5-1,3.5c-0.7,1-1.6,1.7-2.8,2.1l5.2,7.7h-3.6l-4.8-7.1h-3.7v7.1L213.3,246.3z M216.3,230.2v5.9h3.9
	c1,0.1,1.9-0.2,2.7-0.8c0.7-0.6,1-1.4,1-2.2c0-0.8-0.3-1.6-0.9-2.1c-0.9-0.6-1.9-0.8-2.9-0.8H216.3z"></path>
<path d="M230.2,227h14.7v3.1H239v16.2h-3v-16.2h-5.8L230.2,227z"></path>
<path d="M252.1,227h2.3l7.6,19.3h-3.2l-1.7-4.3h-7.9l-1.7,4.3h-3L252.1,227z M250.3,239.2h5.7l-2.9-7.4L250.3,239.2z"></path>
<path d="M261.6,227h14.7v3.1h-5.8v16.2h-3v-16.2h-5.8L261.6,227z"></path>
<path d="M279.8,227h3v19.3h-3V227z"></path>
<path d="M289.8,229.6c3.1-3.5,8.4-3.8,12-0.7c0,0,0,0,0,0c0.2,0.2,0.5,0.5,0.7,0.7c3.4,4.1,3.4,10,0,14.1c-3.1,3.5-8.5,3.8-12,0.7
	c0,0,0,0,0,0c-0.2-0.2-0.5-0.4-0.7-0.7C286.4,239.7,286.4,233.7,289.8,229.6L289.8,229.6z M292,241.5c2,2.3,5.4,2.5,7.6,0.5
	c0,0,0,0,0,0c0.2-0.2,0.4-0.3,0.5-0.5c1.1-1.3,1.7-3.1,1.6-4.8c0.1-1.8-0.5-3.5-1.7-4.8c-1.9-2.2-5.3-2.5-7.6-0.6c0,0,0,0,0,0
	c-0.2,0.2-0.4,0.4-0.6,0.6C289.8,234.7,289.8,238.7,292,241.5L292,241.5z"></path>
<path d="M322,246.3l-9.6-13.2v13.2h-2.9V227h2.3l9.6,13.2V227h2.9v19.3H322z"></path>
<path d="M327,334h3.9v0.8h-1.5v3.2h-0.8v-3.2H327L327,334z M331.5,334h0.7l1.7,1.9l1.6-1.9h0.7v3.9h-0.8v-2.8l-1.5,1.8l0,0l-1.5-1.8
	v2.8h-0.8L331.5,334z"></path>
<path d="M207.6,291.3L207.6,291.3v-0.8c0-0.4,0.1-0.8,0.2-1.2c-0.6-4.4-3.4-8.1-7.3-10.1c-1.7-0.9-3.5-1.4-5.4-1.5l-0.1,0.2l0,0
	c-0.8,1.5-1.4,3.1-1.9,4.7c-0.2,0.5-0.3,1.1-0.5,1.6c-0.6,2.3-0.8,4.6-0.8,7l0,0v8.3h15.8L207.6,291.3z"></path>
<path d="M270.2,262.3h-49.4c-4.6,0-9.2,1.1-13.3,3.2l-0.3,0.1l0.1,0.1c5.3,2.7,9.7,7.1,12.4,12.4h50.2l0.1-0.2V262.3z"></path>
<polygon points="116.2,319.2 132,298.2 132,262.9 132,261.8 112.9,261.8 100.9,277.7 74.2,313.2 74.2,262.6 74.2,261.8 55,261.8 
	0.7,334 20.5,334 58.4,283.6 58.4,334 74.2,334 78.3,334 116.2,283.6 "></polygon>
<path class="st5" d="M207.8,330.8l-0.1-0.1c-5.3-2.7-9.7-7.1-12.4-12.4h-58.8l15.3-20.3H132l-15.8,20.9v15.2h78c0.6,0,1.2,0,1.8,0
	c0.6,0,1.1-0.1,1.6-0.2l0.5-0.1l1.1-0.2l0.6-0.1l1-0.2l0.6-0.2l1-0.3l0.6-0.2l0.9-0.3l0.6-0.2l1-0.4l0.5-0.2c0.5-0.2,1-0.4,1.4-0.7
	l0,0L207.8,330.8z"></path>
<path class="st5" d="M194.9,278c6.8,0.4,12.2,5.8,12.6,12.5v15.3c0,0.4-0.1,0.8-0.1,1.2c0.9,6.3,6.2,11.2,12.6,11.6l0.1-0.2
	c1-2,1.8-4.1,2.4-6.4c0.1-0.5,0.3-1.1,0.4-1.7c0.3-1.7,0.5-3.5,0.5-5.3v-13.7c0-1.8-0.2-3.5-0.5-5.3c-0.1-0.6-0.2-1.1-0.4-1.7
	c-2-8.2-7.5-15.1-15-18.9c-4.1-2.1-8.7-3.2-13.3-3.2h-47.6L134.7,278h59.6L194.9,278L194.9,278z"></path>
<path d="M298.8,291.3c0-0.6,0-1.1,0-1.7v-0.5c0-0.4,0-0.8-0.1-1.2v-0.5c0-0.4-0.1-0.8-0.2-1.2l-0.1-0.4l0,0
	c-0.1-0.4-0.2-0.9-0.3-1.3v-0.2c-0.2-0.6-0.3-1.2-0.5-1.8c-0.3-1-0.7-2-1.1-3l0,0c-0.2-0.5-0.5-1-0.7-1.5l0,0l-0.1-0.2h-25.5
	l-0.1,0.2h0.4h0.5c1.5,0.1,3,0.5,4.4,1.2l0,0c0.4,0.2,0.7,0.4,1.1,0.6h0c0.3,0.2,0.7,0.4,1,0.6l0.1,0.1c0.3,0.2,0.6,0.5,0.9,0.7
	l0.1,0.1c0.3,0.2,0.5,0.5,0.8,0.7l0.1,0.1l0.1,0.1l0.5,0.6l0.1,0.1l0.2,0.3c0.2,0.2,0.4,0.5,0.5,0.7l0.2,0.4l0.1,0.1
	c0.1,0.2,0.2,0.4,0.3,0.6c0.1,0.2,0.2,0.3,0.2,0.5c0.1,0.1,0.2,0.4,0.3,0.7c0.1,0.1,0.1,0.3,0.1,0.4l0.1,0.2
	c0.1,0.2,0.2,0.4,0.2,0.6l0.2,0.7c0.1,0.2,0.1,0.4,0.1,0.6c0,0.2,0.1,0.6,0.1,0.8c0,0.3,0,0.3,0.1,0.5c0,0.4,0.1,0.9,0.1,1.3V305
	c0,0.4,0,0.9-0.1,1.3c0,0.2,0,0.3-0.1,0.5c-0.1,0.3-0.1,0.6-0.1,0.8c-0.1,0.3-0.1,0.4-0.1,0.6c0,0.2-0.1,0.5-0.2,0.7
	s-0.1,0.4-0.2,0.6l-0.1,0.2c0,0.1-0.1,0.3-0.1,0.4c0,0.1-0.2,0.4-0.3,0.7c-0.1,0.2-0.1,0.3-0.2,0.5c-0.1,0.2-0.2,0.4-0.3,0.6
	l-0.1,0.1l-0.2,0.4c-0.2,0.2-0.3,0.5-0.5,0.7l-0.2,0.3l-0.1,0.1c-0.2,0.2-0.4,0.4-0.5,0.6l-0.1,0.1l-0.1,0.1
	c-0.2,0.3-0.5,0.5-0.8,0.7l-0.1,0.1c-0.3,0.2-0.6,0.5-0.9,0.7l-0.1,0.1c-0.3,0.2-0.7,0.4-1,0.6h0c-0.3,0.2-0.7,0.4-1.1,0.6l0,0
	c-1.4,0.6-2.9,1-4.4,1.2h-0.5h-50.3c-6.8-0.4-12.2-5.7-12.6-12.5V305l0,0v-6.4h-15.8v6.4l0,0c0,4.6,1.1,9.2,3.2,13.3l0,0
	c5,9.7,15,15.8,25.9,15.8h48.9c10.9,0,20.9-6.1,25.9-15.8l0,0c0.2-0.5,0.5-1,0.7-1.5l0,0c0.4-1,0.8-2,1.1-3c0.2-0.6,0.4-1.2,0.5-1.8
	v-0.2c0.1-0.5,0.2-0.9,0.3-1.4l0,0l0.1-0.4c0.1-0.4,0.1-0.8,0.2-1.2v-0.5c0-0.4,0.1-0.8,0.1-1.2v-0.4l0,0c0-0.5,0-1.1,0-1.7l0,0
	v-13.8H298.8L298.8,291.3z"></path>
<polygon class="st6" points="269.9,262.2 269.9,278 307.4,278 307.4,334 323.2,334 323.2,278 345,278 360.7,262.3 360.7,262.2 "></polygon>
</svg>
