<svg version="1.1" id="Layer_1" xmlns="http://www.w3.org/2000/svg" xmlns:xlink="http://www.w3.org/1999/xlink" x="0px" y="0px" viewBox="0 0 360 335.8999938964844" style="enable-background:new 0 0 360 335.9;" xml:space="preserve">
<style type="text/css">
	.st0{fill:#000001;}
	.st1{clip-path:url(#SVGID_00000067211840894196087300000000751474065947987613_);}
	.st2{fill:#FEC028;}
	.st3{fill:#B82527;}
	.st4{fill:#FFFFFF;}
	.st5{fill:#FDB913;}
	.st6{fill:#A30C33;}
</style>
<path class="st0" d="M92.8,171.3v-28.4l-12.1,24.4h-4.2l-12-24.4v28.4h-6v-38.1h7.6l12.5,25.3l12.5-25.3h7.5v38.1H92.8z"></path>
<path class="st0" d="M126.1,167.7c-2.4,2.7-6,4.1-9.6,3.8c-5,0.6-9.5-3.1-10.1-8.1c0-0.3,0-0.6-0.1-0.9c0-5.3,4-8.6,10.9-8.7h8.7
	v-0.9c0-3.6-2.3-5.8-6.9-5.8c-3.1,0.1-6,1.1-8.5,2.9l-2.6-4.4c3.7-2.5,8-3.7,12.4-3.6c7.4,0,11.6,3.8,11.7,10.2v19h-6.2L126.1,167.7
	z M126,161.1v-2.7h-7.8c-4.1,0-6,1.1-6,3.9c0,2.6,2.1,4.3,5.6,4.3C122.3,166.6,125.7,164.3,126,161.1z"></path>
<path class="st0" d="M147.2,148.1c1.8-3.8,5.8-6.2,10-6v6c-4.8-0.7-9.2,2.6-9.9,7.4c0,0.2-0.1,0.4-0.1,0.7v15.1h-6.3v-28.9h6.3
	V148.1z"></path>
<path class="st0" d="M176.3,175.2c-1.3,4.1-5.1,6.9-9.4,6.9c-2.5,0.1-4.8-0.8-6.7-2.4l2.7-4.8c1.1,0.9,2.4,1.4,3.8,1.4
	c2,0,3.8-1.3,4.4-3.2l1-2.2l-12-28.5h6.5l8.6,21.9l8-21.9h6.3L176.3,175.2z"></path>
<path class="st0" d="M193.4,171.3V131h6.3v40.3H193.4z"></path>
<path class="st0" d="M226.8,167.7c-2.4,2.7-6,4.1-9.6,3.8c-5,0.6-9.5-3.1-10.1-8.1c0-0.3,0-0.6-0.1-0.9c0-5.3,4-8.6,10.9-8.7h8.7
	v-0.9c0-3.6-2.3-5.8-6.9-5.8c-3.1,0.1-6,1.1-8.5,2.9l-2.6-4.4c3.7-2.5,8-3.7,12.4-3.6c7.4,0,11.6,3.8,11.7,10.2v19h-6.2L226.8,167.7
	z M226.7,161.1v-2.7h-7.8c-4.1,0-6,1.1-6,3.9c0,2.6,2.1,4.3,5.6,4.3C223,166.6,226.4,164.3,226.7,161.1z"></path>
<path class="st0" d="M269.2,153.3v18H263v-16.2c0.3-3.5-2.3-6.7-5.8-7c-0.4,0-0.8,0-1.1,0c-4.4-0.1-8.1,3.4-8.2,7.9v15.4h-6.2v-28.9
	h6.2v5.5c2.1-3.9,6.3-6.2,10.6-5.7c5.6-0.4,10.4,3.8,10.8,9.3C269.3,152.1,269.3,152.7,269.2,153.3z"></path>
<path class="st0" d="M305.4,171.3h-6.2v-4.9c-2.2,3.5-6.1,5.5-10.2,5.2c-7.5,0.2-13.7-5.8-13.9-13.3c0-0.5,0-1,0.1-1.5
	c-0.6-7.4,4.9-14,12.3-14.6c0.5,0,1-0.1,1.4,0c4.1-0.2,8.1,1.8,10.3,5.3v-16.4h6.2L305.4,171.3L305.4,171.3z M299.2,156.9
	c0.4-4.8-3.2-9.1-8.1-9.5c-0.3,0-0.5,0-0.8,0c-5.2,0.3-9.2,4.9-8.8,10.1c0.3,4.7,4.1,8.5,8.8,8.8c4.8,0.1,8.8-3.8,8.9-8.7
	C299.2,157.4,299.2,157.2,299.2,156.9z"></path>
<g>
	<g>
		<defs>
			<path id="SVGID_1_" d="M182.3,15.1c-61.9,0.9-78.6,38.8-78.6,38.8v69.3l102.4,0.1h21.2h20.4h11.7V53.6c0,0-17.5-37.2-76.9-38.5
				h-7.3"></path>
		</defs>
		<clipPath id="SVGID_00000048481081331469702950000015873335515491898755_">
			<use xlink:href="#SVGID_1_" style="overflow:visible;"></use>
		</clipPath>
		<g style="clip-path:url(#SVGID_00000048481081331469702950000015873335515491898755_);">
			<rect x="99.6" y="0" class="st2" width="129.1" height="155.5"></rect>
			<polygon class="st0" points="223.8,91.8 181.7,66.7 181.7,0.1 223.8,0.1 			"></polygon>
			<polygon class="st0" points="181.9,161 140.3,135.5 140.3,41.6 181.9,66.6 			"></polygon>
			<polygon class="st0" points="140.2,41.6 140.2,16 98.2,16 			"></polygon>
			<rect x="88.3" y="90.3" class="st3" width="201" height="34.7"></rect>
			<rect x="223.6" y="14.1" class="st3" width="60" height="71.6"></rect>
			<path class="st4" d="M169.8,85.9L169.8,85.9L169.8,85.9L169.8,85.9z"></path>
			<path class="st4" d="M169.8,85.3L169.8,85.3L169.8,85.3L169.8,85.3z"></path>
			<polygon class="st4" points="230.5,77.6 230.5,77.7 230.4,77.7 			"></polygon>
			<path class="st4" d="M177.4,104.4c0,4.2-3.4,7.6-7.6,7.6l0,0l0,0c-4.2,0-7.6-3.4-7.6-7.6l0,0v-28c0-4.2,3.4-7.6,7.6-7.6l0,0l0,0
				c4.2,0,7.6,3.4,7.6,7.6l0,0V104.4z"></path>
			<path class="st4" d="M290.6,82.8c4.2,0,7.6,3.4,7.6,7.6l0,0l0,0c0,4.2-3.4,7.6-7.6,7.6l0,0h-134c-4.2,0-7.6-3.4-7.6-7.6l0,0l0,0
				c0-4.2,3.4-7.6,7.6-7.6l0,0H290.6z"></path>
			<path class="st4" d="M231.4,132.8c0,4.2-3.4,7.6-7.6,7.6l0,0l0,0c-4.2,0-7.6-3.4-7.6-7.6l0,0V48.3c0-4.2,3.4-7.6,7.6-7.6l0,0l0,0
				c4.2,0,7.6,3.4,7.6,7.6l0,0V132.8z"></path>
			<path class="st4" d="M237.8,53.5c4.2,0,7.6,3.4,7.6,7.6l0,0l0,0c0,4.2-3.4,7.6-7.6,7.6l0,0h-28.1c-4.2,0-7.6-3.4-7.6-7.6l0,0l0,0
				c0-4.2,3.4-7.6,7.6-7.6l0,0H237.8z"></path>
			<path class="st4" d="M237.8,112c4.2,0,7.6,3.4,7.6,7.6l0,0l0,0c0,4.2-3.4,7.6-7.6,7.6l0,0h-28.1c-4.2,0-7.6-3.4-7.6-7.6l0,0l0,0
				c0-4.2,3.4-7.6,7.6-7.6l0,0C209.7,112,237.8,112,237.8,112z"></path>
		</g>
	</g>
</g>
<path d="M6.9,197.3h2.7l6.2,9l6-9h2.6v19.3h-3v-13.4l-5.3,7.7h-0.8l-5.4-7.7v13.4h-3L6.9,197.3z"></path>
<path d="M35.6,197.3h2.3l7.6,19.3h-3.2l-1.7-4.3h-7.9l-1.7,4.3h-3.1L35.6,197.3z M33.8,209.4h5.7l-2.9-7.3L33.8,209.4z"></path>
<path d="M48.9,216.6v-19.3h6.9c1.1,0,2.3,0.1,3.4,0.5c0.8,0.3,1.6,0.7,2.1,1.4c0.5,0.6,0.8,1.2,1.1,1.9c0.2,0.7,0.3,1.5,0.3,2.3
	c0,1.2-0.3,2.5-1,3.5s-1.7,1.7-2.9,2.1l5.2,7.7h-3.7l-4.8-7.1h-3.7v7.1L48.9,216.6L48.9,216.6z M51.9,200.4v6h3.9
	c1,0.1,1.9-0.2,2.7-0.8c0.7-0.6,1-1.4,1-2.2s-0.3-1.6-0.9-2.1c-0.9-0.6-1.9-0.9-3-0.8L51.9,200.4z"></path>
<path d="M74.8,208.3v8.4h-3v-8.4l-7-11h3.7l4.8,7.7l4.9-7.7h3.6L74.8,208.3z"></path>
<path d="M85.2,197.3h3v16.1h9.9v3.2H85.2V197.3z"></path>
<path d="M108.4,197.3h2.3l7.6,19.3h-3.2l-1.7-4.3h-7.9l-1.7,4.3h-3.1L108.4,197.3z M106.7,209.4h5.7l-2.9-7.3L106.7,209.4z"></path>
<path d="M134.4,216.6l-9.6-13.2v13.2h-2.9v-19.3h2.3l9.6,13.2v-13.2h2.9v19.3H134.4z"></path>
<path d="M142.1,197.3h5.4c1.6,0,3.1,0.2,4.6,0.8c1.2,0.4,2.2,1.1,3.1,2.1c0.7,0.9,1.3,1.9,1.6,3c0.4,1.2,0.5,2.4,0.5,3.6
	c0.1,2.6-0.8,5.2-2.5,7.2c-1.7,1.8-4.2,2.7-7.6,2.8h-5.1V197.3z M145.1,200.4v13h2.3c2.3,0,4-0.6,5.1-1.8c1.2-1.4,1.8-3.2,1.6-5
	c0-4.2-2.2-6.3-6.7-6.3L145.1,200.4z"></path>
<path d="M169.5,197.3h5.4c1.6,0,3.1,0.2,4.6,0.8c1.2,0.4,2.2,1.1,3.1,2.1c0.7,0.9,1.3,1.9,1.6,3c0.4,1.2,0.5,2.4,0.5,3.6
	c0.1,2.6-0.8,5.2-2.5,7.2c-1.7,1.8-4.2,2.7-7.6,2.8h-5.1V197.3z M172.5,200.4v13h2.4c2.3,0,4-0.6,5.1-1.8c1.2-1.4,1.8-3.2,1.6-5
	c0-4.2-2.2-6.3-6.7-6.3L172.5,200.4z"></path>
<path d="M189.1,197.3H202v3.1h-9.9v4.9h9.3v3h-9.3v5.1h10.2v3.2h-13.2V197.3z"></path>
<path d="M207,216.6v-19.3h7c1.2,0,2.4,0.2,3.6,0.5c0.9,0.3,1.6,0.8,2.2,1.5c0.5,0.6,0.8,1.3,1.1,2c0.2,0.7,0.3,1.5,0.3,2.3
	s-0.1,1.6-0.4,2.3c-0.3,0.7-0.7,1.4-1.2,2c-0.6,0.7-1.4,1.2-2.3,1.5c-1.1,0.4-2.3,0.6-3.4,0.5h-4v6.6L207,216.6z M210,200.4v6.5h4
	c2.8,0,4.2-1.1,4.2-3.3s-1.3-3.2-4-3.2H210z"></path>
<path d="M229.8,197.3h2.3l7.6,19.3h-3.2l-1.8-4.3h-7.9l-1.7,4.3H222L229.8,197.3z M228,209.4h5.7l-2.9-7.3L228,209.4z"></path>
<path d="M243.2,216.6v-19.3h6.8c1.1,0,2.3,0.1,3.4,0.5c0.8,0.3,1.6,0.7,2.1,1.4c0.5,0.6,0.8,1.2,1.1,1.9c0.2,0.7,0.3,1.5,0.3,2.3
	c0,1.2-0.3,2.5-1,3.5s-1.6,1.7-2.8,2.1l5.2,7.7h-3.6l-4.8-7.1h-3.7v7.1L243.2,216.6z M246.2,200.4v6h3.9c1,0.1,1.9-0.2,2.7-0.8
	c0.7-0.6,1-1.4,1-2.2s-0.3-1.6-0.9-2.1c-0.9-0.6-1.9-0.8-3-0.8L246.2,200.4z"></path>
<path d="M260,197.3h14.7v3.1h-5.9v16.2h-3v-16.2H260L260,197.3z"></path>
<path d="M278.2,197.3h2.6l6.2,9l6-9h2.6v19.3h-3v-13.4l-5.3,7.7h-0.8l-5.4-7.7v13.4h-3L278.2,197.3z"></path>
<path d="M301.1,197.3H314v3.1h-9.9v4.9h9.3v3h-9.3v5.1h10.2v3.2h-13.2V197.3z"></path>
<path d="M331.4,216.6l-9.6-13.2v13.2h-2.9v-19.3h2.3l9.6,13.2v-13.2h3v19.3H331.4z"></path>
<path d="M337.3,197.3H352v3.1h-5.8v16.2h-3v-16.2h-5.9V197.3z"></path>
<path d="M35.2,227.5c3.1-3.5,8.4-3.8,12-0.7l0,0c0.2,0.2,0.5,0.5,0.7,0.7c3.4,4.1,3.4,10,0,14.1c-3.1,3.5-8.5,3.8-12,0.7l0,0
	c-0.2-0.2-0.5-0.4-0.7-0.7C31.8,237.6,31.8,231.6,35.2,227.5L35.2,227.5z M37.5,239.4c2,2.3,5.4,2.5,7.6,0.5l0,0
	c0.2-0.2,0.4-0.3,0.5-0.5c1.1-1.3,1.7-3.1,1.7-4.8c0.1-1.8-0.5-3.5-1.7-4.8c-1.9-2.2-5.3-2.5-7.6-0.6l0,0c-0.2,0.2-0.4,0.4-0.6,0.6
	C35.2,232.6,35.2,236.6,37.5,239.4L37.5,239.4z"></path>
<path d="M54.9,224.9h12.8v3.1h-9.8v5.5H67v3.1h-9.1v7.6h-3L54.9,224.9z"></path>
<path d="M78.1,224.9h14.7v3.1H87v16.2h-3V228h-5.8L78.1,224.9L78.1,224.9z"></path>
<path d="M96.2,244.2v-19.3h6.8c1.1,0,2.3,0.1,3.4,0.5c0.8,0.3,1.6,0.7,2.1,1.4c0.5,0.6,0.8,1.2,1.1,1.9c0.2,0.7,0.3,1.5,0.3,2.3
	c0,1.2-0.3,2.5-1,3.5s-1.6,1.7-2.8,2.1l5.2,7.7h-3.7l-4.8-7.1h-3.5v7.1L96.2,244.2z M99.2,228.1v5.9h3.9c1,0.1,1.9-0.2,2.7-0.8
	c0.7-0.6,1-1.4,1-2.2s-0.3-1.6-0.9-2.1c-0.9-0.6-1.9-0.9-3-0.8L99.2,228.1L99.2,228.1z"></path>
<path d="M121.6,224.9h2.3l7.6,19.3h-3.2l-1.7-4.3h-7.9l-1.7,4.3h-3.1L121.6,224.9z M119.9,237.1h5.7l-2.9-7.4L119.9,237.1z"></path>
<path d="M147.5,244.2l-9.6-13.2v13.2H135v-19.3h2.3l9.6,13.2v-13.2h2.9v19.3H147.5z"></path>
<path d="M164.7,237.5c-0.4-0.4-1-0.8-1.5-1c-0.7-0.2-1.4-0.5-2.1-0.6s-1.5-0.4-2.3-0.7c-0.7-0.3-1.4-0.6-2.1-1
	c-0.6-0.4-1.2-1-1.5-1.6c-1.2-2.2-0.6-4.8,1.3-6.4c1.4-1.1,3.1-1.7,4.9-1.6c2.5-0.1,5,0.9,6.7,2.8l-1.6,2.4c-1.4-1.3-3.3-2-5.2-2
	c-0.9,0-1.8,0.2-2.6,0.6c-0.9,0.5-1.3,1.6-0.8,2.5c0.1,0.3,0.3,0.5,0.6,0.7c0.6,0.4,1.3,0.7,2,0.9c0.8,0.2,1.7,0.4,2.6,0.8
	c0.9,0.3,1.7,0.6,2.6,1c0.8,0.4,1.5,1,2,1.7c0.6,0.8,0.8,1.8,0.8,2.8c0,1.6-0.7,3.1-1.9,4.1c-1.3,1.1-3,1.6-4.8,1.6
	c-1.5,0-3-0.3-4.4-1c-1.3-0.6-2.4-1.4-3.3-2.5l1.8-2.4c1.5,1.8,3.8,2.8,6.1,2.8c0.9,0,1.7-0.2,2.4-0.6c0.6-0.4,0.9-1,0.9-1.7
	C165.3,238.4,165.1,237.9,164.7,237.5z"></path>
<path d="M172.8,244.2v-19.3h7c1.2,0,2.4,0.2,3.6,0.5c0.9,0.3,1.6,0.8,2.2,1.5c0.5,0.6,0.8,1.3,1.1,2c0.2,0.7,0.3,1.5,0.3,2.3
	s-0.1,1.6-0.4,2.3c-0.3,0.7-0.7,1.4-1.2,2c-0.6,0.7-1.4,1.2-2.3,1.5c-1.1,0.4-2.3,0.6-3.4,0.5h-4v6.6L172.8,244.2z M175.8,228v6.5h4
	c2.8,0,4.2-1.1,4.2-3.3s-1.3-3.2-4-3.2H175.8z"></path>
<path d="M192.9,227.5c3.1-3.5,8.4-3.8,12-0.7l0,0c0.2,0.2,0.5,0.5,0.7,0.7c3.4,4.1,3.4,10,0,14.1c-3.1,3.5-8.5,3.8-12,0.7l0,0
	c-0.2-0.2-0.5-0.4-0.7-0.7C189.5,237.6,189.5,231.6,192.9,227.5L192.9,227.5z M195.2,239.4c2,2.3,5.4,2.5,7.6,0.5l0,0
	c0.2-0.2,0.4-0.3,0.5-0.5c1.1-1.3,1.7-3.1,1.6-4.8c0.1-1.8-0.5-3.5-1.7-4.8c-1.9-2.2-5.3-2.5-7.6-0.6l0,0c-0.2,0.2-0.4,0.4-0.6,0.6
	C192.9,232.6,192.9,236.6,195.2,239.4L195.2,239.4z"></path>
<path d="M212.6,244.2v-19.3h6.8c1.1,0,2.3,0.1,3.4,0.5c0.8,0.3,1.6,0.7,2.1,1.4c0.5,0.6,0.8,1.2,1.1,1.9c0.2,0.7,0.3,1.5,0.3,2.3
	c0,1.2-0.3,2.5-1,3.5s-1.6,1.7-2.8,2.1l5.2,7.7h-3.6l-4.8-7.1h-3.7v7.1L212.6,244.2z M215.6,228.1v5.9h3.9c1,0.1,1.9-0.2,2.7-0.8
	c0.7-0.6,1-1.4,1-2.2s-0.3-1.6-0.9-2.1c-0.9-0.6-1.9-0.8-2.9-0.8L215.6,228.1L215.6,228.1z"></path>
<path d="M229.5,224.9h14.7v3.1h-5.9v16.2h-3V228h-5.8V224.9z"></path>
<path d="M251.4,224.9h2.3l7.6,19.3h-3.2l-1.7-4.3h-7.9l-1.7,4.3h-3L251.4,224.9z M249.6,237.1h5.7l-2.9-7.4L249.6,237.1z"></path>
<path d="M260.9,224.9h14.7v3.1h-5.8v16.2h-3V228H261L260.9,224.9z"></path>
<path d="M279.1,224.9h3v19.3h-3V224.9z"></path>
<path d="M289.1,227.5c3.1-3.5,8.4-3.8,12-0.7l0,0c0.2,0.2,0.5,0.5,0.7,0.7c3.4,4.1,3.4,10,0,14.1c-3.1,3.5-8.5,3.8-12,0.7l0,0
	c-0.2-0.2-0.5-0.4-0.7-0.7C285.7,237.6,285.7,231.6,289.1,227.5L289.1,227.5z M291.3,239.4c2,2.3,5.4,2.5,7.6,0.5l0,0
	c0.2-0.2,0.4-0.3,0.5-0.5c1.1-1.3,1.7-3.1,1.6-4.8c0.1-1.8-0.5-3.5-1.7-4.8c-1.9-2.2-5.3-2.5-7.6-0.6l0,0c-0.2,0.2-0.4,0.4-0.6,0.6
	C289.1,232.6,289.1,236.6,291.3,239.4L291.3,239.4z"></path>
<path d="M321.3,244.2l-9.6-13.2v13.2h-2.9v-19.3h2.3l9.6,13.2v-13.2h2.9v19.3H321.3z"></path>
<path d="M326.3,331.9h3.9v0.8h-1.5v3.2h-0.8v-3.2h-1.6V331.9z M330.8,331.9h0.7l1.7,1.9l1.6-1.9h0.7v3.9h-0.8V333l-1.5,1.8l0,0
	l-1.5-1.8v2.8h-0.8L330.8,331.9z"></path>
<path d="M206.9,289.2L206.9,289.2v-0.8c0-0.4,0.1-0.8,0.2-1.2c-0.6-4.4-3.4-8.1-7.3-10.1c-1.7-0.9-3.5-1.4-5.4-1.5l-0.1,0.2l0,0
	c-0.8,1.5-1.4,3.1-1.9,4.7c-0.2,0.5-0.3,1.1-0.5,1.6c-0.6,2.3-0.8,4.6-0.8,7l0,0v8.3h15.8V289.2z"></path>
<path d="M269.5,260.2h-49.4c-4.6,0-9.2,1.1-13.3,3.2l-0.3,0.1l0.1,0.1c5.3,2.7,9.7,7.1,12.4,12.4h50.2l0.1-0.2v-15.6H269.5z"></path>
<polygon points="115.5,317.1 131.3,296.1 131.3,260.8 131.3,259.7 112.2,259.7 100.2,275.6 73.5,311.1 73.5,260.5 73.5,259.7 
	54.3,259.7 0,331.9 19.8,331.9 57.7,281.5 57.7,331.9 73.5,331.9 77.6,331.9 115.5,281.5 "></polygon>
<path class="st5" d="M207.1,328.7l-0.1-0.1c-5.3-2.7-9.7-7.1-12.4-12.4h-58.8l15.3-20.3h-19.8l-15.8,20.9V332h78c0.6,0,1.2,0,1.8,0
	s1.1-0.1,1.6-0.2l0.5-0.1l1.1-0.2l0.6-0.1l1-0.2l0.6-0.2l1-0.3l0.6-0.2l0.9-0.3l0.6-0.2l1-0.4l0.5-0.2c0.5-0.2,1-0.4,1.4-0.7l0,0
	L207.1,328.7z"></path>
<path class="st5" d="M194.2,275.9c6.8,0.4,12.2,5.8,12.6,12.5v15.3c0,0.4-0.1,0.8-0.1,1.2c0.9,6.3,6.2,11.2,12.6,11.6l0.1-0.2
	c1-2,1.8-4.1,2.4-6.4c0.1-0.5,0.3-1.1,0.4-1.7c0.3-1.7,0.5-3.5,0.5-5.3v-13.7c0-1.8-0.2-3.5-0.5-5.3c-0.1-0.6-0.2-1.1-0.4-1.7
	c-2-8.2-7.5-15.1-15-18.9c-4.1-2.1-8.7-3.2-13.3-3.2h-47.6L134,275.9h59.6H194.2L194.2,275.9z"></path>
<path d="M298.1,289.2c0-0.6,0-1.1,0-1.7V287c0-0.4,0-0.8-0.1-1.2v-0.5c0-0.4-0.1-0.8-0.2-1.2l-0.1-0.4l0,0c-0.1-0.4-0.2-0.9-0.3-1.3
	v-0.2c-0.2-0.6-0.3-1.2-0.5-1.8c-0.3-1-0.7-2-1.1-3l0,0c-0.2-0.5-0.5-1-0.7-1.5l0,0l-0.1-0.2h-25.5l-0.1,0.2h0.4h0.5
	c1.5,0.1,3,0.5,4.4,1.2l0,0c0.4,0.2,0.7,0.4,1.1,0.6l0,0c0.3,0.2,0.7,0.4,1,0.6l0.1,0.1c0.3,0.2,0.6,0.5,0.9,0.7l0.1,0.1
	c0.3,0.2,0.5,0.5,0.8,0.7l0.1,0.1l0.1,0.1l0.5,0.6l0.1,0.1l0.2,0.3c0.2,0.2,0.4,0.5,0.5,0.7l0.2,0.4l0.1,0.1
	c0.1,0.2,0.2,0.4,0.3,0.6c0.1,0.2,0.2,0.3,0.2,0.5c0.1,0.1,0.2,0.4,0.3,0.7c0.1,0.1,0.1,0.3,0.1,0.4l0.1,0.2
	c0.1,0.2,0.2,0.4,0.2,0.6l0.2,0.7c0.1,0.2,0.1,0.4,0.1,0.6s0.1,0.6,0.1,0.8c0,0.3,0,0.3,0.1,0.5c0,0.4,0.1,0.9,0.1,1.3v13.7
	c0,0.4,0,0.9-0.1,1.3c0,0.2,0,0.3-0.1,0.5c-0.1,0.3-0.1,0.6-0.1,0.8c-0.1,0.3-0.1,0.4-0.1,0.6s-0.1,0.5-0.2,0.7s-0.1,0.4-0.2,0.6
	l-0.1,0.2c0,0.1-0.1,0.3-0.1,0.4s-0.2,0.4-0.3,0.7c-0.1,0.2-0.1,0.3-0.2,0.5s-0.2,0.4-0.3,0.6l-0.1,0.1l-0.2,0.4
	c-0.2,0.2-0.3,0.5-0.5,0.7l-0.2,0.3l-0.1,0.1c-0.2,0.2-0.4,0.4-0.5,0.6l-0.1,0.1l-0.1,0.1c-0.2,0.3-0.5,0.5-0.8,0.7l-0.1,0.1
	c-0.3,0.2-0.6,0.5-0.9,0.7l-0.1,0.1c-0.3,0.2-0.7,0.4-1,0.6l0,0c-0.3,0.2-0.7,0.4-1.1,0.6l0,0c-1.4,0.6-2.9,1-4.4,1.2h-0.5h-50.3
	c-6.8-0.4-12.2-5.7-12.6-12.5v-0.8l0,0v-6.4h-15.8v6.4l0,0c0,4.6,1.1,9.2,3.2,13.3l0,0c5,9.7,15,15.8,25.9,15.8h48.9
	c10.9,0,20.9-6.1,25.9-15.8l0,0c0.2-0.5,0.5-1,0.7-1.5l0,0c0.4-1,0.8-2,1.1-3c0.2-0.6,0.4-1.2,0.5-1.8v-0.2c0.1-0.5,0.2-0.9,0.3-1.4
	l0,0l0.1-0.4c0.1-0.4,0.1-0.8,0.2-1.2v-0.5c0-0.4,0.1-0.8,0.1-1.2v-0.4l0,0c0-0.5,0-1.1,0-1.7l0,0v-13.8h0.1V289.2z"></path>
<polygon class="st6" points="269.2,260.1 269.2,275.9 306.7,275.9 306.7,331.9 322.5,331.9 322.5,275.9 344.3,275.9 360,260.2 
	360,260.1 "></polygon>
</svg>
