<svg viewBox="20.000062942504883 14.99975299835205 48.000038146972656 60.000247955322266" xmlns="http://www.w3.org/2000/svg"><g fill="none" fill-rule="evenodd"><path d="M50.748 55.858c1.74 2.126 3.538 4.325 1.576 6.796-.632.795-1.354 1.3-1.992 1.747-1.378.97-2.29 1.61-1.884 4.765l-1.672.219c-.54-4.176 1.051-5.292 2.592-6.374.595-.42 1.159-.814 1.636-1.418 1.019-1.278.417-2.24-1.56-4.658a48.508 48.508 0 0 1-1.151-1.445c-.678-.892-.926-1.882-.714-2.856.223-1.017.892-1.855 1.565-2.473-3.107-2.038-3.162-5.433-3.162-5.48h.842l.846-.005c.001.157.08 2.917 2.974 4.389l.209.104c.977.456 2.262.763 3.935.797 6.973-.146 7.116-5.078 7.118-5.29l1.688.004c0 .017-.009.481-.169 1.161.807-.03 2.309-.303 2.855-.608-.311-1.12-2.306-4.813-4.14-7.867l.509-1.26.194-.053c-.29-1.32-.862-3.969-1.146-5.718-6.446-.985-11.094-.234-13.817 2.24-2.629 2.394-2.47 5.564-2.464 5.699l-.937.06-.746.062c-.038-.435-.34-.895-.706-1.067-.334-.156-.718-.081-1.143.222-.659.467-.894 1.06-.738 1.867.27 1.414 1.675 2.966 2.758 3.631.164-.102.283-.166.332-.193l.245.467c.035.012.075.14.075.14l.075.144.397.75a6.582 6.582 0 0 0-.811.536s-.085.096-.113.088c-.602.479-1.246 1.154-1.403 1.877-.104.486.028.962.406 1.46.372.487.75.95 1.114 1.397 1.74 2.129 3.538 4.329 1.577 6.8-.632.793-1.355 1.3-1.991 1.746-1.38.97-2.292 1.61-1.884 4.762l-1.672.22c-.54-4.175 1.051-5.293 2.59-6.373.594-.42 1.158-.815 1.638-1.416 1.016-1.281.417-2.241-1.56-4.66a48.837 48.837 0 0 1-1.152-1.446c-.68-.893-.925-1.882-.714-2.857.209-.956.817-1.755 1.446-2.36-1.367-1.029-2.697-2.754-3.01-4.392-.28-1.454.226-2.725 1.422-3.577.93-.659 1.934-.79 2.828-.371.093.042.181.096.267.15a9.19 9.19 0 0 1 2.716-4.6c3.1-2.84 8.198-3.745 15.146-2.697 1.555-1.988 2.227-4.938-.444-7.437-2.453-2.288-6.745-2.964-9.688-.126l-1.408-.438c-.497-2.366-3.262-3.541-5.685-3.85-3.663-.47-8.447.722-10.288 4.453-2.448 4.949.7 7.448.834 7.553l-.553 1.525c-3.623-.2-6.057.399-7.24 1.777-1.527 1.781-.907 4.835-.407 7.29.418 2.055.749 3.678-.069 4.641-.93 1.097-2.043 1.493-3.068 1.493a4.134 4.134 0 0 1-1.848-.44c-1.441-.728-2.238-2.143-1.943-3.44l1.645.382c-.119.514.336 1.177 1.06 1.541.38.195 1.719.722 2.87-.637.283-.333-.067-2.059-.3-3.2-.574-2.818-1.287-6.325.783-8.739 1.317-1.535 3.523-2.327 6.713-2.399-.988-1.574-1.865-4.307.01-8.103 2.211-4.47 7.776-5.925 12.016-5.382 3.21.412 5.646 1.875 6.685 3.936 3.579-2.566 8.262-1.665 11.03.92 2.195 2.05 3.652 5.77.717 9.614.3 2.14 1.37 6.85 1.38 6.899l-.546.91c4.37 7.398 3.965 8.19 3.766 8.581-.412.802-1.923 1.264-3.269 1.45 1.59 1.06 3.132 2.898 3.024 5.684-.086 2.185-1.736 3.95-3.329 5.657-2.138 2.288-3.388 3.782-2.212 5.578l-1.409.934c-1.97-3.007.348-5.486 2.391-7.675 1.384-1.48 2.813-3.01 2.873-4.561.121-3.103-2.508-4.445-3.534-4.85-1.096 1.663-3.22 3.318-7.327 3.47v.016c-.106 0-.204-.007-.309-.01-.105.003-.203.01-.31.01v-.016c-1.463-.053-2.675-.299-3.676-.667-.645.484-1.405 1.219-1.575 2.01-.105.485.028.964.407 1.46.37.49.75.953 1.115 1.399h-.002ZM38.607 25.993l1.3 1.084c-.797.965-.34 1.797-.108 2.112.38.512 1.093.885 1.72.615 1.067-.46 1.226-.7 2.124-2.022a55.599 55.599 0 0 1 2.227-3.094c1.1-1.432 2.364-2.186 3.755-2.242 2.226-.083 3.869 1.698 3.937 1.776l-1.249 1.144c-.01-.013-1.198-1.284-2.63-1.222-.866.037-1.7.569-2.48 1.58a58.112 58.112 0 0 0-2.165 3.014c-.943 1.392-1.334 1.97-2.851 2.626-.352.152-.732.23-1.116.23-.977 0-1.96-.498-2.625-1.39-.953-1.282-.892-2.937.16-4.212Zm18.388 35.479c1.737 2.127 3.537 4.329 1.573 6.797-.629.794-1.35 1.3-1.988 1.75-1.381.967-2.292 1.606-1.885 4.761L53.02 75c-.538-4.177 1.055-5.293 2.593-6.375.595-.418 1.158-.813 1.639-1.416 1.015-1.279.414-2.24-1.56-4.66a46.041 46.041 0 0 1-1.152-1.446c-.68-.893-.926-1.88-.715-2.855.464-2.133 2.906-3.487 3.183-3.635l.792 1.501c-.561.302-2.076 1.339-2.325 2.5-.105.485.027.96.405 1.46.371.488.748.951 1.115 1.398ZM39.593 34.497c-4.978-.187-7.58.89-7.735 3.205-.064.922.013 2.01.096 3.163.203 2.811.433 6-1.459 7.898-1.035 1.04-2.54 1.55-4.582 1.55-.33 0-.678-.013-1.036-.04l.122-1.692c2.062.153 3.467-.18 4.301-1.019 1.347-1.35 1.155-4.005.97-6.574-.088-1.212-.169-2.358-.098-3.403.16-2.338 1.935-5.067 9.482-4.785l-.062 1.698h.001Zm20.533 2.888c-.026-.041-.637-.968-2.323-.968-1.576 0-3.795 1.545-4.518 2.141l-1.008-1.238c.125-.103 3.065-2.502 5.527-2.502 2.63 0 3.642 1.67 3.683 1.74l-.685.408-.676.419Zm-2.783 1.556c0-.551.503-.998 1.124-.998.621 0 1.127.447 1.127.999 0 .551-.506.998-1.127.998-.62 0-1.124-.447-1.124-.998v-.001Z" fill="#D1AE52"></path></g></svg>
