<svg color-interpolation="auto" color-rendering="auto" fill="black" font-family="'Dialog'" font-size="12px" image-rendering="auto" shape-rendering="auto" stroke="black" stroke-linecap="square" stroke-miterlimit="10" text-rendering="auto" version="1.1" viewBox="0 0 560 420" xmlns="http://www.w3.org/2000/svg">
 <g transform="matrix(1.1301 0 0 1.1301 -47.195 -24.901)" stroke-width=".54324">
  <path d="m253.43 391.79c-0.35508-0.22577-3.8152-7.9836-7.6891-17.24-11.616-27.755-16.427-38.367-23.73-52.341-11.947-22.864-22.013-33.366-34.004-35.478-4.5725-0.80543-10.313 0.0958-17.939 2.8162l-5.8628 2.0914-1.7838-1.2118c-1.7936-1.2185-20.77-14.952-27.86-20.163-2.0915-1.5372-16.209-11.797-31.372-22.8-15.163-11.003-27.57-20.311-27.57-20.684s0.30558-0.80051 0.67906-0.94931c0.37348-0.14879 14.124-6.0709 30.558-13.16 16.433-7.0894 31.467-13.57 33.41-14.402 1.9421-0.83156 14.022-6.0285 26.844-11.549l23.312-10.037 8.1429-10.253c9.9745-12.559 23.407-26.202 30.298-30.773 5.8458-3.8775 8.6671-5.1326 15.163-6.7455 5.9404-1.475 10.429-3.4489 15.307-6.7316 15.506-10.434 30.677-28.322 52.235-61.593 13.125-20.255 15.567-23.66 20.748-28.928 5.3695-5.4588 8.9088-7.5518 13.737-8.1237 13.827-1.6376 28.509 16.593 45.354 56.315 8.5119 20.072 16.604 42.189 32.698 89.364 15.26 44.734 21.475 61.685 32.86 89.635 4.1382 10.159 8.7869 21.641 10.331 25.515 5.3376 13.398 11.957 29.025 15.209 35.905 1.7956 3.799 3.2647 7.2402 3.2647 7.6471 0 3.1108-10.818-5.0249-28.233-21.233-18.229-16.966-25.265-22.458-34.512-26.942-7.6253-3.6973-11.187-4.5591-18.742-4.5345-5.5229 0.018-6.8458 0.21888-11.408 1.7326-5.768 1.9137-11.713 5.1982-18.199 10.054-6.7722 5.0704-22.196 21.016-35.311 36.505-23.023 27.19-32.802 37.632-44.025 47.006-10.567 8.8258-24.095 16.534-35.16 20.034-5.8171 1.84-5.8218 1.8409-6.7506 1.2503z" fill="#daa79f"/>
  <path d="m244.88 370.68c-16.851-40.062-25.894-57.724-35.874-70.068-4.7608-5.8882-9.0513-9.48-14.411-12.065-3.6338-1.7522-4.6302-1.9841-9.3346-2.1731-4.4733-0.17967-6.029 5e-3 -10.328 1.227-2.7838 0.79121-6.3327 1.959-7.8865 2.5952-1.9967 0.81744-3.0322 0.99347-3.5311 0.60033-0.38827-0.30594-14.885-10.778-32.214-23.272s-36.507-26.342-42.618-30.775c-6.1102-4.4327-11.591-8.3794-12.18-8.7703-1.3724-0.91125-0.80019-1.8598 1.7617-2.9203 1.084-0.4487 22.872-9.7383 48.418-20.644 25.546-10.905 50.237-21.434 54.868-23.398 9.6283-4.0822 8.2293-2.8549 19.646-17.233 10.014-12.612 20.089-22.767 27.377-27.592 6.2882-4.1636 8.8019-5.2788 16.098-7.1418 8.1242-2.0744 14.357-5.5653 23.132-12.956 11.531-9.7116 25.389-26.756 40.067-49.279 19.479-29.89 22.832-34.415 28.777-38.842 6.3694-4.7427 11.705-5.3472 18.262-2.0687 11.764 5.8825 23.854 24.741 38.065 59.381 8.3174 20.273 14.074 36.194 32.213 89.092 13.625 39.733 19.833 56.727 28.678 78.499 2.549 6.2745 7.7364 19.109 11.528 28.52 8.5492 21.224 10.192 25.141 15.328 36.552 2.2573 5.0149 3.9706 9.2516 3.8072 9.415-1.2074 1.2074-11.653-7.2672-30.166-24.473-10.947-10.174-17.358-15.472-23.876-19.727-13.443-8.7768-25.651-10.931-38.094-6.723-15.207 5.1435-27.241 15.865-57.389 51.132-29.611 34.638-44.638 48.51-61.948 57.187-5.2286 2.6208-13.832 5.684-17.353 6.1782l-2.1735 0.30512z" fill="#feca34"/>
  <path d="m252.6 389.09c-11.809-29.002-17.77-42.571-25.955-59.078-12.399-25.006-21.01-36.149-32.045-41.47-3.6338-1.7522-4.6302-1.9841-9.3346-2.1731-4.4733-0.17967-6.029 5e-3 -10.328 1.227-2.7838 0.79121-6.3327 1.959-7.8865 2.5952-1.9967 0.81744-3.0322 0.99347-3.5311 0.60033-0.38827-0.30594-14.885-10.778-32.214-23.272s-36.507-26.342-42.618-30.775c-6.1102-4.4327-11.591-8.3794-12.18-8.7703-1.3724-0.91125-0.80019-1.8598 1.7617-2.9203 1.084-0.4487 22.872-9.7383 48.418-20.644 25.546-10.905 50.237-21.434 54.868-23.398 9.6283-4.0822 8.2293-2.8549 19.646-17.233 10.014-12.612 20.089-22.767 27.377-27.592 6.2882-4.1636 8.8019-5.2788 16.098-7.1418 8.1242-2.0744 14.357-5.5653 23.132-12.956 11.531-9.7116 25.389-26.756 40.067-49.279 19.479-29.89 22.832-34.415 28.777-38.842 6.3694-4.7427 11.705-5.3472 18.262-2.0687 11.764 5.8825 23.854 24.741 38.065 59.381 8.3174 20.273 14.074 36.194 32.213 89.092 13.625 39.733 19.833 56.727 28.678 78.499 2.549 6.2745 7.7364 19.109 11.528 28.52 8.5492 21.224 10.192 25.141 15.328 36.552 2.2573 5.0149 3.9706 9.2516 3.8072 9.415-1.2074 1.2074-11.653-7.2672-30.166-24.473-10.947-10.174-17.358-15.472-23.876-19.727-13.443-8.7768-25.651-10.931-38.094-6.723-15.156 5.1263-27.17 15.81-57.191 50.86-9.7248 11.354-20.345 23.437-23.601 26.852-11.671 12.241-24.597 22.869-28.846 23.719-1.6037 0.32074-2.1985-0.0231-5.5942-3.2343-1.404-1.3277-10.731-7.4081-11.364-7.4081-0.5871 0-1.2258-0.26577-3.6866-1.5341-2.122-1.0936-6.5562-0.94264-8.1989 0.2792-1.8267 1.3587-2.083 2.9164-0.96261 5.8501 1.1838 3.0998 2.7952 5.2063 8.0459 10.518l4.468 4.5196-1.3472 1.0162c-1.5614 1.1778-7.5775 3.2541-9.4286 3.2541-0.95134 0-1.4696-0.50427-2.0938-2.0372zm104.59-312.57c0.96646-5.187-0.37218-14.184-2.3808-16.002-0.89654-0.81136-1.0205-0.76303-1.7724 0.69097-1.6873 3.2629-1.4345 12.829 0.45886 17.361 0.77736 1.8605 0.8699 1.9124 2.0326 1.1404 0.78205-0.51927 1.377-1.6612 1.6618-3.1899z" fill="#a1a19e"/>
  <path d="m252.6 389.09c-19.26-47.302-31.521-72.75-41.556-86.252-4.698-6.3208-11.294-12.295-16.314-14.776-4.122-2.0372-4.203-2.0526-10.701-2.0318-6.2586 0.02-6.8417 0.12233-13.232 2.3221l-6.6854 2.3012-21.806-15.903c-11.993-8.7468-31.589-22.993-43.547-31.657-11.957-8.6648-21.631-15.999-21.498-16.297 0.13368-0.29878 4.8926-2.5203 10.575-4.9368 54.873-23.334 102.68-44.321 103.77-45.558 0.59757-0.67621 4.1713-5.1147 7.9416-9.8633 14.157-17.831 26.664-29.571 36.178-33.96 1.857-0.85679 5.7684-2.1777 8.6919-2.9354 8.6378-2.2386 14.301-5.3274 23.045-12.568 13.093-10.842 26.382-27.681 47.586-60.294 5.0794-7.8123 10.673-16.119 12.431-18.459 12.389-16.491 23.384-18.414 35.531-6.216 9.4714 9.5114 18.862 26.205 29.968 53.275 8.3174 20.273 14.074 36.194 32.213 89.092 13.625 39.733 19.833 56.727 28.678 78.499 2.549 6.2745 7.7364 19.109 11.528 28.52 8.5492 21.224 10.192 25.141 15.328 36.552 2.2573 5.0149 3.9706 9.2516 3.8072 9.415-1.2074 1.2074-11.653-7.2672-30.166-24.473-10.947-10.174-17.358-15.472-23.876-19.727-13.443-8.7768-25.651-10.931-38.094-6.723-15.156 5.1263-27.17 15.81-57.191 50.86-9.7248 11.354-20.345 23.437-23.601 26.852-11.671 12.241-24.597 22.869-28.846 23.719-1.6037 0.32074-2.1985-0.0231-5.5942-3.2343-1.404-1.3277-10.731-7.4081-11.364-7.4081-0.5871 0-1.2258-0.26577-3.6866-1.5341-2.122-1.0936-6.5562-0.94264-8.1989 0.2792-1.8267 1.3587-2.083 2.9164-0.96261 5.8501 1.1838 3.0998 2.7952 5.2063 8.0459 10.518l4.468 4.5196-1.3472 1.0162c-1.5614 1.1778-7.5775 3.2541-9.4286 3.2541-0.95134 0-1.4696-0.50427-2.0938-2.0372zm104.59-312.57c0.96646-5.187-0.37218-14.184-2.3808-16.002-0.89654-0.81136-1.0205-0.76303-1.7724 0.69097-1.6873 3.2629-1.4345 12.829 0.45886 17.361 0.77736 1.8605 0.8699 1.9124 2.0326 1.1404 0.78205-0.51927 1.377-1.6612 1.6618-3.1899z" fill="#feae2f"/>
  <path d="m252.55 388.88c-0.46826-1.3026-1.8402-5.1184-3.0488-8.4797l-2.1974-6.1114 6.7482 6.822c3.7115 3.7521 6.8016 6.9912 6.8668 7.1979 0.17787 0.56342-3.5285 2.2921-5.6539 2.637-1.794 0.29112-1.8954 0.21396-2.715-2.0659zm33.265-16.197c-1.0249-0.88329-2.2506-1.9834-2.7238-2.4446-0.47324-0.46125-1.1334-0.83863-1.4669-0.83863s-0.80198-0.30557-1.0409-0.67905c-0.23893-0.37349-0.81832-0.92352-1.2875-1.2223-3.8765-2.4685-7.9532-5.1881-8.495-5.6672-0.36087-0.31907-0.84628-0.58014-1.0787-0.58014-0.23242 0-1.6484-0.58981-3.1466-1.3107-4.8276-2.3228-8.4664-3.2208-12.851-3.1712-5.6681 0.0641-8.8159 1.8724-10.066 5.7824-0.48091 1.5041-0.63996 1.2926-3.676-4.8892-1.7453-3.5538-5.061-10.495-7.3683-15.425-12.971-27.715-20.004-39.231-29.268-47.926-3.0407-2.8536-5.7974-4.8508-8.6231-6.2473-4.122-2.0372-4.203-2.0526-10.701-2.0318-6.2586 0.02-6.8417 0.12233-13.232 2.3221l-6.6854 2.3012-21.806-15.903c-11.993-8.7468-31.597-22.998-43.565-31.67-11.967-8.6719-21.759-15.956-21.759-16.187 0-0.23085 4.767-2.4466 10.593-4.9238 54.988-23.38 102.94-44.428 104.03-45.669 0.59757-0.67621 4.1713-5.1147 7.9416-9.8633 14.157-17.831 26.664-29.571 36.178-33.96 1.857-0.85679 5.7684-2.1777 8.6919-2.9354 8.6378-2.2386 14.301-5.3274 23.045-12.568 13.093-10.842 26.382-27.681 47.586-60.294 5.0794-7.8123 10.673-16.119 12.431-18.459 12.389-16.491 23.384-18.414 35.531-6.216 9.4714 9.5114 18.862 26.205 29.968 53.275 8.3174 20.273 14.074 36.194 32.213 89.092 13.625 39.733 19.833 56.727 28.678 78.499 2.549 6.2745 7.7364 19.109 11.528 28.52 8.5492 21.224 10.192 25.141 15.328 36.552 2.2573 5.0149 3.9706 9.2516 3.8072 9.415-1.2074 1.2074-11.653-7.2672-30.166-24.473-10.947-10.174-17.358-15.472-23.876-19.727-13.443-8.7768-25.651-10.931-38.094-6.723-15.154 5.1256-27.161 15.803-57.194 50.86-19.285 22.511-26.252 30.086-34.134 37.114-4.7764 4.2586-12.186 9.8771-13.025 9.8771-0.19812 0-1.1987-0.72269-2.2236-1.606zm71.461-282.5c1.5625-1.7265 2.0805-5.1943 2.0716-13.868-6e-3 -5.7181-0.27966-9.283-0.91784-11.951-1.1876-4.9654-2.8664-8.4203-4.0917-8.4203-1.7951 0-2.7404 1.8839-3.496 6.9674-1.3193 8.8758-0.34187 19.967 2.2585 25.627 1.3674 2.9763 2.5494 3.4421 4.1755 1.6453z" fill="#fd8e29"/>
  <path d="m253.55 390.56c0.17501-0.28317 0.0186-0.51485-0.34766-0.51485-0.36621 0-0.52429-0.14156-0.35129-0.31456 0.17302-0.17301-0.0582-1.4086-0.5138-2.7457-0.45559-1.3371-0.7233-2.5362-0.5949-2.6646 0.30798-0.30798 5.8644 4.6208 5.8644 5.202 0 0.45613-1.1551 0.93242-3.2306 1.3321-0.63104 0.12153-1.0017-0.0105-0.8262-0.29445zm39.504-22.805c-0.67227-0.27022-1.2223-0.74364-1.2223-1.0521 0-0.30841-0.35809-0.56075-0.79576-0.56075-0.43766 0-1.0574-0.48892-1.3772-1.0865-0.31981-0.59757-0.94724-1.0865-1.3943-1.0865s-0.95351-0.36669-1.1255-0.81487c-0.17198-0.44817-0.61534-0.81486-0.98524-0.81486s-1.0994-0.47162-1.621-1.048c-0.52164-0.57642-1.7207-1.4429-2.6646-1.9256-0.94389-0.48265-2.4495-1.3423-3.3459-1.9102-0.89635-0.56799-2.7298-1.5961-4.0743-2.2846-1.3445-0.68853-2.5261-1.4352-2.6257-1.6593-0.0996-0.22409-0.65295-0.40743-1.2297-0.40743-0.57673 0-1.5342-0.24446-2.1277-0.54325-0.59352-0.29878-1.538-0.77098-2.0987-1.0493-0.56079-0.27835-1.9664-0.67722-3.1237-0.88638-1.1572-0.20916-2.5417-0.60642-3.0765-0.8828-0.53486-0.27638-3.2239-0.55551-5.9757-0.62028-5.3314-0.12549-9.8311 0.86543-13.347 2.9393-2.1459 1.2656-2.7176 0.96062-4.149-2.2137-0.53971-1.1969-1.203-2.1761-1.4741-2.1761s-0.34172-0.24446-0.15706-0.54325c0.18466-0.29878 0.0769-0.54324-0.23956-0.54324-0.31641 0-0.5753-0.25341-0.5753-0.56313 0-1.1494-12.517-26.224-16.185-32.422-7.8088-13.196-15.582-21.701-23.336-25.533-4.122-2.0372-4.203-2.0526-10.701-2.0318-6.2586 0.02-6.8417 0.12233-13.232 2.3221l-6.6854 2.3012-21.806-15.903c-11.993-8.7468-31.597-22.998-43.565-31.67-11.967-8.6719-21.641-16.006-21.498-16.297 0.14355-0.29164 4.9105-2.5074 10.593-4.9238 54.873-23.334 102.68-44.321 103.77-45.558 0.59757-0.67621 4.1713-5.1147 7.9416-9.8633 14.157-17.831 26.664-29.571 36.178-33.96 1.857-0.85679 5.7684-2.1777 8.6919-2.9354 8.6378-2.2386 14.301-5.3274 23.045-12.568 13.093-10.842 26.382-27.681 47.586-60.294 5.0794-7.8123 10.673-16.119 12.431-18.459 12.389-16.491 23.384-18.414 35.531-6.216 9.4714 9.5114 18.862 26.205 29.968 53.275 8.3174 20.273 14.074 36.194 32.213 89.092 13.625 39.733 19.833 56.727 28.678 78.499 2.549 6.2745 7.7364 19.109 11.528 28.52 8.5492 21.224 10.192 25.141 15.328 36.552 2.2573 5.0149 3.9706 9.2516 3.8072 9.415-1.2074 1.2074-11.653-7.2672-30.166-24.473-10.947-10.174-17.358-15.472-23.876-19.727-13.443-8.7768-25.651-10.931-38.094-6.723-15.171 5.1312-27.213 15.846-57.208 50.902-16.157 18.882-32.818 37.024-33.435 36.407-0.1367-0.1367-1.5786 0.83478-3.2042 2.1588-3.0876 2.5148-3.4934 2.6513-5.4938 1.8472zm65.92-263.09c1.186-1.0202 1.6166-2.0953 2.2299-5.5683 2.3522-13.319 0.51882-33.986-3.7792-42.603-1.5613-3.1301-1.9403-3.5311-3.3378-3.5311-2.081 0-3.3272 2.3795-4.4384 8.4749-1.0936 5.999-1.0959 20.234-4e-3 27.534 0.87359 5.8425 3.1268 13.384 4.4301 14.828 0.42585 0.4717 0.77427 1.144 0.77427 1.4939 0 1.0907 2.5848 0.69721 4.1254-0.62799z" fill="#ca6d5f"/>
  <path d="m253.59 389.88c-0.89757-1.4321-2.1581-5.2501-1.8388-5.5694 0.29777-0.29778 5.8575 4.6306 5.8575 5.1924 0 0.2382-0.73558 0.6895-1.6346 1.0029-1.4313 0.49896-1.7278 0.4211-2.3841-0.62591zm39.465-22.128c-0.67227-0.27022-1.2223-0.74364-1.2223-1.0521 0-0.30841-0.35809-0.56075-0.79576-0.56075-0.43766 0-1.0574-0.48892-1.3772-1.0865-0.31981-0.59757-0.94724-1.0865-1.3943-1.0865s-0.95351-0.36669-1.1255-0.81487c-0.17198-0.44817-0.61534-0.81486-0.98524-0.81486s-1.0994-0.47162-1.621-1.048c-0.52164-0.57642-1.7207-1.4429-2.6646-1.9256-0.94389-0.48265-2.4495-1.3423-3.3459-1.9102-0.89635-0.56799-2.7298-1.5961-4.0743-2.2846-1.3445-0.68853-2.5261-1.4352-2.6257-1.6593-0.0996-0.22409-0.65295-0.40743-1.2297-0.40743-0.57673 0-1.5342-0.24446-2.1277-0.54325-0.59352-0.29878-1.538-0.77098-2.0987-1.0493-0.56079-0.27835-1.9664-0.67722-3.1237-0.88638-1.1572-0.20916-2.5417-0.60642-3.0765-0.8828-0.53486-0.27638-3.2239-0.55551-5.9757-0.62028-5.3314-0.12549-9.8311 0.86543-13.347 2.9393-1.3224 0.77997-2.0163 0.91806-2.5185 0.50126-0.38125-0.31641-1.7557-2.952-3.0544-5.8568-2.7958-6.2537-10.252-20.996-14.485-28.641-8.2693-14.933-17.764-25.904-25.894-29.919-4.313-2.1301-4.3251-2.1324-10.865-2.1115-6.2586 0.02-6.8417 0.12233-13.232 2.3221l-6.6854 2.3012-21.806-15.903c-11.993-8.7468-31.597-22.998-43.565-31.67-11.967-8.6719-21.641-16.006-21.498-16.297 0.14355-0.29164 4.9105-2.5074 10.593-4.9238 54.873-23.334 102.68-44.321 103.77-45.558 0.59757-0.67621 4.1713-5.1147 7.9416-9.8633 14.157-17.831 26.664-29.571 36.178-33.96 1.857-0.85679 5.7684-2.1777 8.6919-2.9354 8.6378-2.2386 14.301-5.3274 23.045-12.568 13.093-10.842 26.382-27.681 47.586-60.294 14.315-22.017 18.794-27.399 25.584-30.742 17.275-8.5047 34.791 14.05 58.109 74.824 4.6227 12.048 13.014 35.478 19.844 55.411 20.442 59.653 24.89 71.984 34.588 95.883 2.7279 6.7227 7.8726 19.494 11.433 28.38 7.4556 18.61 12.196 29.937 16.5 39.433 1.67 3.6837 3.0364 6.8247 3.0364 6.98 0 0.55463-3.9922-2.0875-8.343-5.5216-4.908-3.8739-10.684-9.0265-21.87-19.508-4.1119-3.8531-9.7843-8.9173-12.605-11.254-21.14-17.508-37.565-21.001-55.781-11.863-13.6 6.8224-24.717 17.601-55.461 53.774-13.086 15.397-25.16 28.313-30.428 32.551-4.2312 3.4038-4.5644 3.5414-6.5982 2.7238zm65.92-263.09c1.186-1.0202 1.6166-2.0953 2.2299-5.5683 2.3522-13.319 0.51882-33.986-3.7792-42.603-1.5613-3.1301-1.9403-3.5311-3.3378-3.5311-2.081 0-3.3272 2.3795-4.4384 8.4749-1.0936 5.999-1.0959 20.234-4e-3 27.534 0.87359 5.8425 3.1268 13.384 4.4301 14.828 0.42585 0.4717 0.77427 1.144 0.77427 1.4939 0 1.0907 2.5848 0.69721 4.1254-0.62799z" fill="#f86d23"/>
  <path d="m300.39 360.88c-0.52288-0.13664-0.95068-0.48102-0.95068-0.7653 0-0.28427-0.61115-0.74921-1.3581-1.0332-0.74697-0.28399-1.3581-0.76686-1.3581-1.073s-0.47677-0.55669-1.0595-0.55669c-0.58273 0-1.255-0.30558-1.4939-0.67906-0.48177-0.75307-1.993-1.7727-3.7769-2.5482-0.64324-0.27964-1.3299-0.76798-1.526-1.0852-0.19605-0.31722-0.80479-0.57676-1.3528-0.57676-0.54798 0-1.137-0.36669-1.309-0.81486-0.17198-0.44818-0.69037-0.81487-1.152-0.81487s-1.2638-0.22391-1.7826-0.49758c-0.51882-0.27367-1.7989-0.89158-2.8447-1.3731s-2.268-1.0753-2.7162-1.3194c-2.5018-1.3625-3.3398-1.6992-4.2299-1.6992-0.54186 0-1.2174-0.22658-1.5013-0.5035-0.72377-0.70613-12.331-2.8222-16.259-2.9642-1.7927-0.0648-4.6065 0.0916-6.2528 0.34762-1.6463 0.25597-3.5494 0.55293-4.2291 0.6599-1.4691 0.2312-7.1584 2.4629-8.1582 3.2002-0.42034 0.30995-0.89846 0.31984-1.1914 0.0247-0.26914-0.27121-3.0922-5.6268-6.2736-11.901-11.627-22.932-16.722-30.932-24.936-39.154-4.4136-4.4181-6.2998-5.884-9.7853-7.6054-4.313-2.1301-4.3251-2.1324-10.865-2.1115-6.2586 0.02-6.8417 0.12233-13.232 2.3221l-6.6854 2.3012-21.806-15.903c-11.993-8.7468-31.597-22.998-43.565-31.67-11.967-8.6719-21.759-15.956-21.759-16.187 0-0.23085 4.767-2.4466 10.593-4.9238 54.988-23.38 102.94-44.428 104.03-45.669 0.59757-0.67621 4.1713-5.1147 7.9416-9.8633 14.157-17.831 26.664-29.571 36.178-33.96 1.857-0.85679 5.7684-2.1777 8.6919-2.9354 8.6378-2.2386 14.301-5.3274 23.045-12.568 13.093-10.842 26.382-27.681 47.586-60.294 14.315-22.017 18.794-27.399 25.584-30.742 17.275-8.5047 34.791 14.05 58.109 74.824 4.6227 12.048 13.014 35.478 19.844 55.411 20.442 59.653 24.89 71.984 34.588 95.883 2.7279 6.7227 7.8726 19.494 11.433 28.38 7.4556 18.61 12.196 29.937 16.5 39.433 1.67 3.6837 3.0364 6.8247 3.0364 6.98 0 0.55463-3.9922-2.0875-8.343-5.5216-4.908-3.8739-10.684-9.0265-21.87-19.508-4.1119-3.8531-9.7843-8.9173-12.605-11.254-21.14-17.508-37.565-21.001-55.781-11.863-13.41 6.7272-24.637 17.522-53.36 51.309-18.505 21.767-27.696 31.333-29.952 31.174-0.49035-0.0347-1.3193-0.17482-1.8422-0.31146zm61.778-233.81c0.3077-1.0644 1.0058-2.61 1.5514-3.4348 0.54558-0.8248 0.85203-1.8643 0.681-2.31-0.17102-0.44569-0.0534-1.2916 0.2614-1.8798 0.91741-1.7142 1.131-4.8704 1.2276-18.137 0.19271-26.488-5.7035-51.88-12.047-51.88-2.3327 0-4.4046 5.7008-5.8243 16.026-1.1016 8.0119-0.79557 28.392 0.5547 36.935 1.566 9.9079 5.6911 22.55 7.358 22.55 0.30221 0 0.54947 0.46501 0.54947 1.0334 0 0.65975 0.58922 1.2388 1.6297 1.6015 0.89635 0.31247 1.6297 0.84323 1.6297 1.1795 0 1.4298 1.9115 0.10447 2.4284-1.6838z" fill="#56948b"/>
  <path d="m300.39 360.88c-0.52288-0.13664-0.95068-0.48102-0.95068-0.7653 0-0.28427-0.61115-0.74921-1.3581-1.0332-0.74697-0.28399-1.3581-0.76686-1.3581-1.073s-0.47677-0.55669-1.0595-0.55669c-0.58273 0-1.255-0.30558-1.4939-0.67906-0.48177-0.75307-1.993-1.7727-3.7769-2.5482-0.64324-0.27964-1.3299-0.76798-1.526-1.0852-0.19605-0.31722-0.80479-0.57676-1.3528-0.57676-0.54798 0-1.137-0.36669-1.309-0.81486-0.17198-0.44818-0.69037-0.81487-1.152-0.81487s-1.2638-0.22391-1.7826-0.49758c-0.51882-0.27367-1.7989-0.89158-2.8447-1.3731s-2.268-1.0753-2.7162-1.3194c-2.5018-1.3625-3.3398-1.6992-4.2299-1.6992-0.54186 0-1.2174-0.22658-1.5013-0.5035-0.72377-0.70613-12.331-2.8222-16.259-2.9642-1.7927-0.0648-4.6065 0.0916-6.2528 0.34762-1.6463 0.25597-3.5494 0.55293-4.2291 0.6599-1.4691 0.2312-7.1584 2.4629-8.1582 3.2002-0.42034 0.30995-0.89846 0.31984-1.1914 0.0247-0.26914-0.27121-3.0922-5.6268-6.2736-11.901-11.627-22.932-16.722-30.932-24.936-39.154-4.4136-4.4181-6.2998-5.884-9.7853-7.6054-4.313-2.1301-4.3251-2.1324-10.865-2.1115-6.2621 0.02-6.8392 0.12145-13.256 2.3301-4.2728 1.4706-6.936 2.1298-7.3338 1.8151-0.34352-0.27176-11.625-8.507-25.071-18.3-13.445-9.7935-27.685-20.351-31.643-23.462l-7.1973-5.6557 2.3426-3.3632c4.1645-5.9789 9.5336-17.687 11.975-26.111 0.5854-2.0205 0.89339-2.2418 7.6776-5.5171 3.8872-1.8767 21.002-9.4471 38.033-16.823 19.026-8.2401 31.384-13.885 32.051-14.641 0.59757-0.67662 4.2155-5.1732 8.0399-9.9923 8.4044-10.59 14.667-17.298 19.112-20.47 1.824-1.3016 4.361-3.6053 5.6376-5.1194 4.3504-5.1594 10.916-8.8185 20.088-11.196 8.5685-2.2206 14.255-5.3265 22.979-12.551 13.093-10.842 26.382-27.681 47.586-60.294 14.315-22.017 18.794-27.399 25.584-30.742 17.275-8.5047 34.791 14.05 58.109 74.824 4.6227 12.048 13.014 35.478 19.844 55.411 20.442 59.653 24.89 71.984 34.588 95.883 2.7279 6.7227 7.8726 19.494 11.433 28.38 7.4556 18.61 12.196 29.937 16.5 39.433 1.67 3.6837 3.0364 6.8247 3.0364 6.98 0 0.55463-3.9922-2.0875-8.343-5.5216-4.908-3.8739-10.684-9.0265-21.87-19.508-4.1119-3.8531-9.7843-8.9173-12.605-11.254-21.14-17.508-37.565-21.001-55.781-11.863-13.41 6.7272-24.637 17.522-53.36 51.309-18.505 21.767-27.696 31.333-29.952 31.174-0.49035-0.0347-1.3193-0.17482-1.8422-0.31146zm61.778-233.81c0.3077-1.0644 1.0058-2.61 1.5514-3.4348 0.54558-0.8248 0.85203-1.8643 0.681-2.31-0.17102-0.44569-0.0534-1.2916 0.2614-1.8798 0.91741-1.7142 1.131-4.8704 1.2276-18.137 0.19271-26.488-5.7035-51.88-12.047-51.88-2.3327 0-4.4046 5.7008-5.8243 16.026-1.1016 8.0119-0.79557 28.392 0.5547 36.935 1.566 9.9079 5.6911 22.55 7.358 22.55 0.30221 0 0.54947 0.46501 0.54947 1.0334 0 0.65975 0.58922 1.2388 1.6297 1.6015 0.89635 0.31247 1.6297 0.84323 1.6297 1.1795 0 1.4298 1.9115 0.10447 2.4284-1.6838zm-35.085-72.719c5.1468-9.9576 7.1432-16.126 5.54-17.117-0.8909-0.5506-3.6289 2.2878-5.3848 5.5822-1.7235 3.2336-5.5261 15.942-5.5261 18.469 0 1.2874 0.0472 1.307 1.0231 0.42385 0.56269-0.50922 2.5192-3.8205 4.3478-7.3583z" fill="#a7615b"/>
  <path d="m300.39 360.88c-0.52288-0.13664-0.95068-0.48102-0.95068-0.7653 0-0.28427-0.61115-0.74921-1.3581-1.0332-0.74697-0.28399-1.3581-0.76686-1.3581-1.073s-0.47677-0.55669-1.0595-0.55669c-0.58273 0-1.255-0.30558-1.4939-0.67906-0.48177-0.75307-1.993-1.7727-3.7769-2.5482-0.64324-0.27964-1.3299-0.76798-1.526-1.0852-0.19605-0.31722-0.80479-0.57676-1.3528-0.57676-0.54798 0-1.137-0.36669-1.309-0.81486-0.17198-0.44818-0.69037-0.81487-1.152-0.81487s-1.2638-0.22391-1.7826-0.49758c-0.51882-0.27367-1.7989-0.89158-2.8447-1.3731s-2.268-1.0753-2.7162-1.3194c-2.5018-1.3625-3.3398-1.6992-4.2299-1.6992-0.54186 0-1.2174-0.22658-1.5013-0.5035-0.72377-0.70613-12.331-2.8222-16.259-2.9642-1.7927-0.0648-4.6065 0.0916-6.2528 0.34762-1.6463 0.25597-3.5494 0.55293-4.2291 0.6599-1.4949 0.23527-7.1686 2.4694-8.1864 3.2236-1.0912 0.80852-2.1402-0.88043-6.6317-10.677-10.669-23.271-21.743-39.462-31.35-45.839-8.4948-5.6385-18.235-5.9728-31.191-1.0705l-3.6264 1.3722-7.7818-5.5688c-16.662-11.924-42.891-31.226-49.747-36.61l-7.1973-5.6516 2.3426-3.3632c4.1645-5.9789 9.5336-17.687 11.975-26.111 0.58536-2.0203 0.89388-2.2421 7.6776-5.5186 7.679-3.709 29.306-13.139 46.996-20.491 6.1251-2.5457 13.703-5.7723 16.841-7.1703l5.7041-2.5418 7.3338-9.5074c8.6237-11.18 15.655-18.856 20.322-22.186 1.8457-1.317 4.4004-3.6334 5.6771-5.1475 4.349-5.1576 10.609-8.6533 19.919-11.122 8.819-2.339 14.412-5.3888 23.148-12.624 13.093-10.842 26.382-27.681 47.586-60.294 5.0794-7.8123 10.633-16.062 12.343-18.333 9.7895-13.007 17.648-16.465 27.231-11.982 4.3853 2.0516 11.983 9.7197 16.659 16.814 12.82 19.45 24.184 46.73 46.39 111.37 19.317 56.228 25.615 73.676 34.805 96.426 3.4397 8.5154 9.2569 22.939 12.927 32.051 7.5092 18.644 12.231 29.83 15.883 37.626 1.3663 2.9164 2.3403 5.4462 2.1646 5.622-0.85346 0.85347-12.027-8.256-25.37-20.684-5.2354-4.8762-11.719-10.753-14.408-13.059-22.445-19.249-39.314-23.26-58.127-13.823-13.41 6.7272-24.637 17.522-53.36 51.309-18.505 21.767-27.696 31.333-29.952 31.174-0.49035-0.0347-1.3193-0.17482-1.8422-0.31146zm61.778-233.81c0.3077-1.0644 1.0058-2.61 1.5514-3.4348 0.54558-0.8248 0.85203-1.8643 0.681-2.31-0.17102-0.44569-0.0534-1.2916 0.2614-1.8798 0.91741-1.7142 1.131-4.8704 1.2276-18.137 0.19271-26.488-5.7035-51.88-12.047-51.88-2.3327 0-4.4046 5.7008-5.8243 16.026-1.1016 8.0119-0.79557 28.392 0.5547 36.935 1.566 9.9079 5.6911 22.55 7.358 22.55 0.30221 0 0.54947 0.46501 0.54947 1.0334 0 0.65975 0.58922 1.2388 1.6297 1.6015 0.89635 0.31247 1.6297 0.84323 1.6297 1.1795 0 1.4298 1.9115 0.10447 2.4284-1.6838zm-35.085-72.719c5.1468-9.9576 7.1432-16.126 5.54-17.117-0.8909-0.5506-3.6289 2.2878-5.3848 5.5822-1.7235 3.2336-5.5261 15.942-5.5261 18.469 0 1.2874 0.0472 1.307 1.0231 0.42385 0.56269-0.50922 2.5192-3.8205 4.3478-7.3583z" fill="#5e837a"/>
  <path d="m300.39 360.88c-0.52288-0.13664-0.95068-0.48102-0.95068-0.7653 0-0.28427-0.61115-0.74921-1.3581-1.0332-0.74697-0.28399-1.3581-0.76686-1.3581-1.073s-0.47677-0.55669-1.0595-0.55669c-0.58273 0-1.255-0.30558-1.4939-0.67906-0.48177-0.75307-1.993-1.7727-3.7769-2.5482-0.64324-0.27964-1.3299-0.76798-1.526-1.0852-0.19605-0.31722-0.80479-0.57676-1.3528-0.57676-0.54798 0-1.137-0.36669-1.309-0.81486-0.17198-0.44818-0.69037-0.81487-1.152-0.81487s-1.2638-0.22391-1.7826-0.49758c-0.51882-0.27367-1.7989-0.89158-2.8447-1.3731s-2.268-1.0753-2.7162-1.3194c-2.5018-1.3625-3.3398-1.6992-4.2299-1.6992-0.54186 0-1.2174-0.22658-1.5013-0.5035-0.72377-0.70613-12.331-2.8222-16.259-2.9642-1.7927-0.0648-4.6065 0.0916-6.2528 0.34762-1.6463 0.25597-3.5494 0.55293-4.2291 0.6599-1.4949 0.23527-7.1686 2.4694-8.1864 3.2236-1.0912 0.80852-2.1402-0.88043-6.6317-10.677-10.669-23.271-21.743-39.462-31.35-45.839-8.4987-5.6411-18.234-5.9732-31.207-1.0644l-3.6424 1.3782-9.1238-6.6621c-14.152-10.334-26.021-19.208-31.583-23.614-4.3072-3.4123-5.0206-4.1981-4.7137-5.1929 2.9929-9.7029 6.8045-26.592 9.2758-41.101 0.78883-4.6312 1.7102-8.7565 2.0474-9.1675 1.0339-1.2598 18.92-9.4577 37.851-17.349 6.4239-2.6776 14.247-6.0104 17.384-7.406l5.7041-2.5376 6.1869-8.0532c8.2426-10.729 14.089-17.185 19.314-21.329 2.3732-1.8819 6.1623-5.2771 8.4203-7.5449 6.681-6.7098 10.336-8.7725 19.614-11.068 9.9278-2.4564 18.185-7.635 28.94-18.151 11.507-11.25 20.997-23.585 38.716-50.317 14.655-22.111 18.019-26.732 22.431-30.817 4.6646-4.3186 7.5246-5.5851 12.561-5.5624 5.8881 0.0266 9.2063 1.754 15.524 8.0813 9.326 9.3403 17.909 24.526 29.197 51.657 7.366 17.705 12.809 32.545 25.704 70.079 19.317 56.228 25.615 73.676 34.805 96.426 3.4397 8.5154 9.2569 22.939 12.927 32.051 7.5092 18.644 12.231 29.83 15.883 37.626 1.3663 2.9164 2.3403 5.4462 2.1646 5.622-0.85346 0.85347-12.027-8.256-25.37-20.684-5.2354-4.8762-11.719-10.753-14.408-13.059-22.445-19.249-39.314-23.26-58.127-13.823-13.41 6.7272-24.637 17.522-53.36 51.309-18.505 21.767-27.696 31.333-29.952 31.174-0.49035-0.0347-1.3193-0.17482-1.8422-0.31146zm61.778-233.81c0.3077-1.0644 1.0058-2.61 1.5514-3.4348 0.54558-0.8248 0.85203-1.8643 0.681-2.31-0.17102-0.44569-0.0534-1.2916 0.2614-1.8798 0.91741-1.7142 1.131-4.8704 1.2276-18.137 0.19271-26.488-5.7035-51.88-12.047-51.88-2.3327 0-4.4046 5.7008-5.8243 16.026-1.1016 8.0119-0.79557 28.392 0.5547 36.935 1.566 9.9079 5.6911 22.55 7.358 22.55 0.30221 0 0.54947 0.46501 0.54947 1.0334 0 0.65975 0.58922 1.2388 1.6297 1.6015 0.89635 0.31247 1.6297 0.84323 1.6297 1.1795 0 1.4298 1.9115 0.10447 2.4284-1.6838zm-37.128-68.555c4.4479-7.3601 9.0093-18.858 8.258-20.815-0.85679-2.2328-4.1862 0.74748-6.6429 5.9462-1.6215 3.4314-4.5032 12.906-5.2069 17.12-0.58061 3.4768 0.56376 2.7596 3.5918-2.2511z" fill="#e4531e"/>
  <path d="m305.61 353.92c-0.17199-0.44818-0.76103-0.81487-1.309-0.81487-0.54797 0-1.1385-0.23008-1.3123-0.51128-0.1738-0.28121-1.4716-1.0755-2.8841-1.765-1.4125-0.68958-2.6903-1.4012-2.8397-1.5814-0.25347-0.30574-2.8227-1.5008-5.9757-2.7796-0.74696-0.30295-1.7248-0.7685-2.173-1.0346s-1.1816-0.62226-1.6297-0.79156c-0.44818-0.16931-1.2394-0.53444-1.7582-0.81142-0.51882-0.27697-1.3166-0.50358-1.7729-0.50358-0.45628 0-1.3763-0.28263-2.0445-0.62807-2.4652-1.2744-3.0263-1.4785-5.0866-1.8502-1.1572-0.20879-2.3485-0.56033-2.6473-0.7812-1.8143-1.3412-17.886-2.3758-23.36-1.5038-1.4939 0.23799-3.3274 0.51289-4.0743 0.61089-2.1569 0.283-5.4745 1.4274-8.4927 2.9295-1.5559 0.77433-3.186 1.2354-3.6875 1.0429-0.49439-0.18971-2.9476-4.6161-5.4516-9.8365-10.936-22.799-20.749-36.85-30.043-43.02-8.4987-5.6411-18.234-5.9732-31.207-1.0644l-3.6424 1.3782-9.1238-6.6621c-14.152-10.334-26.021-19.208-31.583-23.614-4.3072-3.4123-5.0206-4.1981-4.7137-5.1929 2.9929-9.7029 6.8045-26.592 9.2758-41.101 0.78883-4.6312 1.7102-8.7565 2.0474-9.1675 1.0339-1.2598 18.92-9.4577 37.851-17.349 6.4239-2.6776 14.247-6.0104 17.384-7.406l5.7041-2.5376 6.1869-8.0532c8.2426-10.729 14.089-17.185 19.314-21.329 2.3732-1.8819 6.1623-5.2771 8.4203-7.5449 6.681-6.7098 10.336-8.7725 19.614-11.068 9.9278-2.4564 18.185-7.635 28.94-18.151 11.507-11.25 20.997-23.585 38.716-50.317 14.655-22.111 18.019-26.732 22.431-30.817 4.6646-4.3186 7.5246-5.5851 12.561-5.5624 5.8881 0.0266 9.2063 1.754 15.524 8.0813 9.326 9.3403 17.909 24.526 29.197 51.657 7.366 17.705 12.809 32.545 25.704 70.079 19.317 56.228 25.615 73.676 34.805 96.426 3.4397 8.5154 9.2569 22.939 12.927 32.051 7.5092 18.644 12.231 29.83 15.883 37.626 1.3663 2.9164 2.3403 5.4462 2.1646 5.622-0.85346 0.85347-12.027-8.256-25.37-20.684-5.2354-4.8762-11.719-10.753-14.408-13.059-22.445-19.249-39.314-23.26-58.127-13.823-13.411 6.7275-24.644 17.529-53.359 51.309-6.6035 7.7684-14.301 16.508-17.106 19.421-4.6629 4.8435-5.2726 5.2966-7.1271 5.2966-1.3015 0-2.14-0.2919-2.3407-0.81486zm59.906-202.6c1.4279-1.4279 1.7907-2.1671 1.5447-3.1472-0.2121-0.84506 0.0531-1.7572 0.77938-2.6805 0.60549-0.76976 1.0964-2.1037 1.091-2.9643-5e-3 -0.86063 0.13736-2.7871 0.31732-4.281 1.0527-8.7389 1.186-24.288 0.29801-34.768-0.32912-3.8842-0.73486-8.6512-0.90165-10.593-0.54721-6.3719-3.4408-22.423-5.1665-28.659-2.1731-7.8526-5.5466-14.669-7.9448-16.052l-1.7604-1.0156-1.5844 1.5844c-1.8443 1.8443-3.3624 6.4786-4.7612 14.535-1.2277 7.0704-1.3993 37.094-0.26244 45.904 0.91687 7.1053 2.886 17.134 4.6935 23.903 1.2763 4.78 1.9595 6.6083 3.8881 10.405 0.4028 0.79307 0.73237 1.6928 0.73237 1.9995 0 1.0088 2.4291 4.3891 3.1708 4.4126 0.39944 0.0127 1.0031 0.75638 1.3414 1.6527 0.81659 2.1634 2.1971 2.0912 4.5248-0.23646zm-40.477-92.808c4.4479-7.3601 9.0093-18.858 8.258-20.815-0.85679-2.2328-4.1862 0.74748-6.6429 5.9462-1.6215 3.4314-4.5032 12.906-5.2069 17.12-0.58061 3.4768 0.56376 2.7596 3.5918-2.2511z" fill="#626e66"/>
  <path d="m305.61 353.92c-0.17199-0.44818-0.76103-0.81487-1.309-0.81487-0.54797 0-1.1385-0.23008-1.3123-0.51128-0.1738-0.28121-1.4716-1.0755-2.8841-1.765-1.4125-0.68958-2.6903-1.4012-2.8397-1.5814-0.25347-0.30574-2.8227-1.5008-5.9757-2.7796-0.74696-0.30295-1.7248-0.7685-2.173-1.0346s-1.1816-0.62226-1.6297-0.79156c-0.44818-0.16931-1.2394-0.53444-1.7582-0.81142-0.51882-0.27697-1.3166-0.50358-1.7729-0.50358-0.45628 0-1.3763-0.28263-2.0445-0.62807-2.4652-1.2744-3.0263-1.4785-5.0866-1.8502-1.1572-0.20879-2.3485-0.56033-2.6473-0.7812-1.8143-1.3412-17.886-2.3758-23.36-1.5038-1.4939 0.23799-3.3274 0.51289-4.0743 0.61089-2.1569 0.283-5.4745 1.4274-8.4927 2.9295-1.5559 0.77433-3.186 1.2354-3.6875 1.0429-0.49439-0.18971-2.9476-4.6161-5.4516-9.8365-9.214-19.21-15.659-29.333-23.891-37.527-11.611-11.556-20.223-13.077-37.894-6.6901l-3.091 1.1172-8.3172-6.2179c-4.5745-3.4198-9.8598-7.502-11.745-9.0715-2.981-2.4814-3.3895-3.0424-3.1322-4.3005 1.4707-7.1897 3.6832-37.083 4.53-61.203l0.40049-11.408 2.7162-1.4794c2.6012-1.4168 18.645-8.6106 34.768-15.59 5.3582-2.3194 7.9265-3.7326 8.6919-4.7829 7.4145-10.173 20.041-24.5 25.188-28.578 1.9491-1.5447 5.0808-4.3208 6.9593-6.1691 6.7963-6.6871 11.581-9.4003 20.372-11.551 11.706-2.8639 23.956-11.715 37.382-27.009 8.6751-9.8818 15.95-19.795 29.634-40.381 22.4-33.699 26.207-37.737 35.561-37.732 5.8716 0.0035 9.1854 1.7274 15.524 8.0757 9.326 9.3403 17.909 24.526 29.197 51.657 7.366 17.705 12.809 32.545 25.704 70.079 19.317 56.228 25.615 73.676 34.805 96.426 3.4397 8.5154 9.2569 22.939 12.927 32.051 7.5092 18.644 12.231 29.83 15.883 37.626 1.3663 2.9164 2.3403 5.4462 2.1646 5.622-0.85346 0.85347-12.027-8.256-25.37-20.684-5.2354-4.8762-11.719-10.753-14.408-13.059-22.445-19.249-39.314-23.26-58.127-13.823-13.411 6.7275-24.644 17.529-53.359 51.309-6.6035 7.7684-14.301 16.508-17.106 19.421-4.6629 4.8435-5.2726 5.2966-7.1271 5.2966-1.3015 0-2.14-0.2919-2.3407-0.81486zm59.906-202.6c1.4279-1.4279 1.7907-2.1671 1.5447-3.1472-0.2121-0.84506 0.0531-1.7572 0.77938-2.6805 0.60549-0.76976 1.0964-2.1037 1.091-2.9643-5e-3 -0.86063 0.13736-2.7871 0.31732-4.281 1.0527-8.7389 1.186-24.288 0.29801-34.768-0.32912-3.8842-0.73486-8.6512-0.90165-10.593-0.54721-6.3719-3.4408-22.423-5.1665-28.659-2.1731-7.8526-5.5466-14.669-7.9448-16.052l-1.7604-1.0156-1.5844 1.5844c-1.8443 1.8443-3.3624 6.4786-4.7612 14.535-1.2277 7.0704-1.3993 37.094-0.26244 45.904 0.91687 7.1053 2.886 17.134 4.6935 23.903 1.2763 4.78 1.9595 6.6083 3.8881 10.405 0.4028 0.79307 0.73237 1.6928 0.73237 1.9995 0 1.0088 2.4291 4.3891 3.1708 4.4126 0.39944 0.0127 1.0031 0.75638 1.3414 1.6527 0.81659 2.1634 2.1971 2.0912 4.5248-0.23646zm-40.477-92.808c4.4479-7.3601 9.0093-18.858 8.258-20.815-0.85679-2.2328-4.1862 0.74748-6.6429 5.9462-1.6215 3.4314-4.5032 12.906-5.2069 17.12-0.58061 3.4768 0.56376 2.7596 3.5918-2.2511z" fill="#d1481c"/>
  <path d="m313.56 344.95c0-0.29663-0.58122-0.53933-1.2916-0.53933-0.71037 0-1.6005-0.37221-1.978-0.82714-0.37755-0.45492-1.1064-0.69386-1.6196-0.53098-0.51321 0.16289-1.2211-0.0508-1.573-0.4749-0.35196-0.42408-1.1169-0.64632-1.6998-0.49387-0.66386 0.1736-1.1856-0.0504-1.3963-0.59933-0.18499-0.48208-0.78468-0.8765-1.3326-0.8765s-1.1474-0.24446-1.332-0.54325c-0.18466-0.29878-0.91804-0.54324-1.6297-0.54324-0.71169 0-1.4456-0.24536-1.631-0.54524-0.18533-0.29988-0.90647-0.4023-1.6025-0.2276-0.69605 0.17469-1.4289 0.0533-1.6285-0.26963-0.19962-0.323-0.94525-0.58727-1.6569-0.58727s-1.4582-0.26575-1.659-0.59057c-0.20075-0.32481-0.82608-0.46999-1.3896-0.32262-0.56355 0.14737-1.1615 0.0465-1.3289-0.2243-0.16733-0.27073-0.88652-0.49224-1.5982-0.49224-0.71169 0-1.4523-0.25616-1.6458-0.56924-0.19349-0.31308-0.75795-0.51997-1.2544-0.45975-0.49641 0.0602-1.2692-0.0286-1.7174-0.19737-2.5898-0.97523-11.009-1.8719-20.372-2.1696-2.0084-0.0639-10.661 0.80382-12.346 1.2382-1.1273 0.29046-3.0886 0.79108-4.3585 1.1125-3.0932 0.78295-10.684 3.792-11.047 4.3791-0.88113 1.4257-2.1894-0.32495-6.2464-8.3588-9.7891-19.385-15.13-27.616-23.008-35.456-11.611-11.556-20.223-13.077-37.894-6.6901l-3.091 1.1172-8.3172-6.2179c-4.5745-3.4198-9.8598-7.502-11.745-9.0715-2.981-2.4814-3.3895-3.0424-3.1322-4.3005 1.4707-7.1897 3.6832-37.083 4.53-61.203l0.40049-11.408 2.7162-1.4794c2.6012-1.4168 18.645-8.6106 34.768-15.59 5.3582-2.3194 7.9265-3.7326 8.6919-4.7829 7.4145-10.173 20.041-24.5 25.188-28.578 1.9491-1.5447 5.0808-4.3208 6.9593-6.1691 6.7963-6.6871 11.581-9.4003 20.372-11.551 11.706-2.8639 23.956-11.715 37.382-27.009 8.6751-9.8818 15.95-19.795 29.634-40.381 22.4-33.699 26.207-37.737 35.561-37.732 5.8716 0.0035 9.1854 1.7274 15.524 8.0757 9.326 9.3403 17.909 24.526 29.197 51.657 7.366 17.705 12.809 32.545 25.704 70.079 19.317 56.228 25.615 73.676 34.805 96.426 3.4397 8.5154 9.2556 22.939 12.924 32.051 7.2821 18.088 14.181 34.359 16.636 39.234 1.9185 3.8102 1.9825 4.4853 0.34275 3.6155-3.8435-2.0388-11.553-8.5504-25.7-21.706-19.47-18.106-28.932-24.925-39.48-28.451-9.2231-3.0835-17.678-3.003-26.6 0.25317-14.471 5.2812-26.575 16.231-55.572 50.27-5.0778 5.9608-11 12.692-13.16 14.958-3.5444 3.7183-4.1413 4.1289-6.1144 4.2062-1.2026 0.0471-2.1865-0.15703-2.1865-0.45366zm56.715-155.79c1.9034-1.3033 2.6691-3.576 2.5941-7.6992-0.0188-1.0353 0.23913-2.2118 0.57325-2.6144 1.4787-1.7817 1.6004-42.534 0.17479-58.52-1.9886-22.297-5.1772-42.098-9.0043-55.915-1.952-7.0477-6.1166-15.788-8.271-17.36-3.2177-2.3465-6.0296 0.71377-8.0082 8.7158-1.282 5.1846-2.555 13.799-3.1179 21.099-0.7039 9.129-0.37382 32.894 0.59996 43.195 0.93825 9.9251 4.3631 31.778 5.1417 32.808 0.24722 0.32707 1.0044 2.7948 1.6826 5.4839 1.3315 5.2791 2.4894 9.1387 3.2596 10.865 0.26662 0.59757 0.925 2.431 1.4631 4.0743 0.53808 1.6433 1.4144 3.4252 1.9475 3.9597s0.96916 1.2653 0.96916 1.624c0 1.4732 1.9692 5.3097 2.8744 5.5999 0.53514 0.17156 1.1143 1.0184 1.287 1.8819 0.17416 0.87083 0.76901 1.7144 1.3358 1.8943 0.56199 0.17837 1.0218 0.74786 1.0218 1.2655 0 1.2494 1.2927 2.619 1.508 1.5978 0.0824-0.39099 0.96837-1.2713 1.9687-1.9563zm-45.239-130.64c4.4479-7.3601 9.0093-18.858 8.258-20.815-0.85679-2.2328-4.1862 0.74748-6.6429 5.9462-1.6215 3.4314-4.5032 12.906-5.2069 17.12-0.58061 3.4768 0.56376 2.7596 3.5918-2.2511z" fill="#c43819"/>
  <path d="m231.34 337.12c-0.42807-0.65333-2.3037-4.2314-4.1682-7.9512-8.433-16.825-14.348-25.822-21.953-33.392-11.611-11.556-20.223-13.077-37.894-6.6901l-3.091 1.1172-8.3172-6.2179c-4.5745-3.4198-9.8598-7.502-11.745-9.0715-2.981-2.4814-3.3895-3.0424-3.1322-4.3005 1.4707-7.1897 3.6832-37.083 4.53-61.203l0.40049-11.408 2.7162-1.4794c2.6012-1.4168 18.645-8.6106 34.768-15.59 5.3582-2.3194 7.9265-3.7326 8.6919-4.7829 7.4145-10.173 20.041-24.5 25.188-28.578 1.9491-1.5447 5.0808-4.3208 6.9593-6.1691 6.7963-6.6871 11.581-9.4003 20.372-11.551 11.706-2.8639 23.956-11.715 37.382-27.009 8.6751-9.8818 15.95-19.795 29.634-40.381 22.4-33.699 26.207-37.737 35.561-37.732 5.8716 0.0035 9.1854 1.7274 15.524 8.0757 9.326 9.3403 17.909 24.526 29.197 51.657 7.366 17.705 12.809 32.545 25.704 70.079 19.317 56.228 25.615 73.676 34.805 96.426 3.4397 8.5154 9.2559 22.939 12.925 32.051 7.525 18.69 14.14 34.299 16.602 39.177 0.91213 1.8069 1.5793 3.5226 1.4826 3.8127-0.46556 1.3967-10.954-7.222-26.776-22.003-16.47-15.386-24.857-21.814-34.32-26.302-4.8654-2.3076-12.094-4.4636-14.966-4.4636-2.5396 0-3.4195-0.82282-4.4652-4.1758-0.54171-1.7369-1.3201-3.8069-1.7296-4.6-0.40961-0.79306-0.74473-2.1443-0.74473-3.0028s-0.33314-2.0431-0.7403-2.6324c-0.40717-0.58935-0.88335-1.8049-1.0582-2.7013-0.31125-1.5957-1.4907-6.5424-2.5905-10.865-0.30409-1.1951-0.91525-4.2509-1.3581-6.7906-0.44287-2.5397-1.0591-5.0692-1.3694-5.6212-0.64908-1.1546-2.3908-11.318-2.9004-16.924-0.34049-3.746-1.2195-9.957-2.7678-19.557-0.4337-2.6891-1.1656-8.1894-1.6264-12.223-1.53-13.393-1.8403-15.783-2.1045-16.211-0.14409-0.23314-0.30576-1.7536-0.35926-3.3789s-0.42812-5.3996-0.8325-8.3874c-0.40437-2.9878-1.13-9.2216-1.6126-13.853-0.48257-4.6312-1.2342-10.62-1.6704-13.31-0.43614-2.6891-1.1584-7.5783-1.605-10.865-2.7438-20.193-7.8163-43.873-11.929-55.689-4.4196-12.697-9.1945-19.273-12.651-17.424-4.4281 2.3699-7.028 13.438-9.0715 38.617-0.98407 12.126 0.0893 46.104 1.9564 61.93 0.29963 2.5397 0.66751 6.2066 0.81751 8.1487 0.15 1.9421 0.61142 5.4868 1.0254 7.8771 0.41395 2.3903 0.91186 6.0572 1.1065 8.1487 0.19461 2.0915 1.0635 7.4 1.9308 11.797 0.86732 4.3966 2.076 10.875 2.6859 14.396 0.6099 3.5211 1.6951 9.4578 2.4116 13.193 3.4784 18.133 4.5935 25.03 4.6112 28.52 0.0106 2.0915 0.41304 6.0029 0.89436 8.6919s1.0371 7.5783 1.235 10.865c0.40976 6.8034 0.28323 26.045-0.21507 32.707l-0.33346 4.458-8.2377 9.416c-4.5307 5.1788-11.886 13.65-16.345 18.826-6.4843 7.5257-8.587 9.6151-10.503 10.436-2.692 1.1539-3.7594 1.2811-4.0265 0.47979-0.1172-0.35161-0.82098-0.30579-1.9711 0.12832-1.4605 0.55127-1.8713 0.54164-2.2385-0.0525-0.32534-0.5264-0.73176-0.57854-1.4695-0.18849-1.3843 0.73187-5.8241 0.54556-6.8263-0.28646-0.44678-0.37089-0.93188-0.5548-1.078-0.40868-0.59983 0.59985-6.4249 0.77574-6.4249 0.19402 0-0.34406-0.57927-0.48503-1.3711-0.33367-0.75409 0.14415-1.5065 0.0429-1.6721-0.22496-0.16556-0.26788-1.1096-0.33538-2.0978-0.14998-1.037 0.19454-1.9453 0.0968-2.148-0.23123-0.19318-0.31257-0.71321-0.4294-1.1556-0.25963s-1.1523 0.0199-1.5776-0.33305c-0.58941-0.48916-1.0536-0.49164-1.9528-0.0104-0.85303 0.45653-1.3438 0.46696-1.7731 0.0377-0.32646-0.32648-1.1414-0.59359-1.811-0.59359s-1.3356-0.19133-1.4802-0.42517c-0.14453-0.23384-1.6286-0.38401-3.2978-0.33369-1.6693 0.0503-3.1458-0.0877-3.2811-0.30669-0.24678-0.39929-15.492-0.2472-19.57 0.19524-8.1697 0.88646-18.32 3.6165-24.181 6.5037l-3.7524 1.8486zm93.697-278.61c4.4479-7.3601 9.0093-18.858 8.258-20.815-0.85679-2.2328-4.1862 0.74748-6.6429 5.9462-1.6215 3.4314-4.5032 12.906-5.2069 17.12-0.58061 3.4768 0.56376 2.7596 3.5918-2.2511z" fill="#b73518"/>
  <path d="m227.18 328.79c-7.6022-13.928-9.1226-16.551-12.679-21.866-2.3782-3.5546-5.8767-7.7548-9.2839-11.146-11.611-11.556-20.223-13.077-37.894-6.6901l-3.091 1.1172-8.3172-6.2179c-4.5745-3.4198-9.8598-7.502-11.745-9.0715-2.981-2.4814-3.3895-3.0424-3.1322-4.3005 1.4707-7.1897 3.6832-37.083 4.53-61.203l0.40049-11.408 2.7162-1.4794c2.6012-1.4168 18.645-8.6106 34.768-15.59 5.3582-2.3194 7.9265-3.7326 8.6919-4.7829 7.4145-10.173 20.041-24.5 25.188-28.578 1.9491-1.5447 5.0808-4.3208 6.9593-6.1691 6.7963-6.6871 11.581-9.4003 20.372-11.551 11.706-2.8639 23.956-11.715 37.382-27.009 8.6751-9.8818 15.95-19.795 29.634-40.381 18.629-28.026 22.727-33.112 29.585-36.731 3.0541-1.6113 9.2523-1.3868 13.071 0.47335 14.402 7.0157 29.929 35.573 50.876 93.57 3.7722 10.445 9.1159 25.646 11.363 32.323 4.8623 14.451 18.489 53.674 22.93 66.004 6.1435 17.055 31.6 80.597 38.794 96.833 2.5485 5.7516 4.451 10.457 4.2278 10.457-1.4741 0-11.722-8.6384-25.822-21.767-19.652-18.298-28.573-24.688-39.891-28.575-4.8571-1.6681-5.2579-1.9197-6.1086-3.8342-0.50071-1.127-0.92852-2.4193-0.95068-2.8719-0.0222-0.4526-0.52217-1.722-1.1111-2.8209-0.97581-1.8206-2.5872-7.0823-3.8752-12.654-0.27629-1.1951-0.97607-3.0412-1.5551-4.1024-0.59499-1.0905-1.4241-4.5154-1.9069-7.8771-0.46982-3.2712-1.31-6.8033-1.8671-7.849-0.55707-1.0457-1.4195-4.346-1.9164-7.3338-0.49697-2.9878-1.2699-7.6326-1.7176-10.322-0.44769-2.6891-1.154-5.9893-1.5695-7.3338s-1.6203-7.5783-2.6773-13.853c-1.0569-6.2745-2.4198-14.097-3.0286-17.384-0.60879-3.2866-1.4823-8.787-1.9411-12.223-0.45882-3.436-1.1619-7.7141-1.5624-9.5068s-1.0218-5.4596-1.3807-8.1487c-0.35886-2.6891-1.1056-7.3338-1.6595-10.322-0.55383-2.9878-1.2639-7.1437-1.5779-9.2352-0.314-2.0915-1.0611-6.4918-1.6602-9.7784-0.59912-3.2866-1.6969-9.4079-2.4396-13.603-4.8855-27.596-12.02-51.008-17.546-57.579-4.877-5.7986-8.4751-3.028-11.493 8.8501-3.7784 14.869-5.6258 38.59-5.5525 71.295 0.0452 20.151 0.19914 26.322 0.88774 35.583 0.13331 1.7927 0.37759 8.1487 0.54285 14.124 0.16526 5.9757 0.50612 14.165 0.75746 18.199 0.25136 4.0336 0.48486 8.4339 0.51889 9.7784 0.0341 1.3445 0.18669 5.6226 0.33924 9.5068 0.50108 12.759 0.73529 27.696 0.44191 28.184-0.15836 0.26302-0.36975 2.9521-0.46975 5.9757s-0.43799 7.2087-0.75109 9.3002c-0.31309 2.0915-0.6689 5.5917-0.79068 7.7783s-0.56244 4.509-0.97922 5.1608c-0.4494 0.70286-0.66864 2.0696-0.53871 3.3582 0.1692 1.678-0.1 2.6425-1.1817 4.2343-0.97992 1.4419-1.4008 2.778-1.4008 4.4464 0 3.032-0.70187 4.8561-2.924 7.5992-0.97591 1.2047-2.0794 3.2905-2.4523 4.635-0.87082 3.1402-8.876 14.124-10.294 14.124-0.55119 0-1.4446 0.48892-1.9854 1.0865-0.54079 0.59757-1.2256 1.0865-1.5218 1.0865-0.29618 0-1.7692 1.1511-3.2733 2.558-1.6052 1.5015-2.8252 2.2868-2.9536 1.9014-0.2997-0.89913-1.2166-0.82351-2.3398 0.19298-0.51637 0.4673-1.7579 0.86964-2.759 0.89408-1.0011 0.0245-2.4048 0.49896-3.1192 1.0545-0.83728 0.65099-1.515 0.83085-1.9065 0.50595-0.76136-0.63187-4.1911-0.34001-5.7389 0.48836-0.64116 0.34314-1.4578 0.52522-1.8147 0.40462s-1.4304 0.10583-2.3854 0.50316c-1.1132 0.46312-1.8562 0.52865-2.0701 0.18257-0.21602-0.34953-0.75011-0.31698-1.5149 0.0923-0.64968 0.34769-2.5294 0.70931-4.1772 0.80358-2.9262 0.16742-5.6849 0.47257-8.9716 0.99242-0.89636 0.14177-3.2173 0.41079-5.1576 0.59783-1.9403 0.18703-3.896 0.51926-4.346 0.73828-0.44997 0.21902-2.1191 0.44094-3.7091 0.49316-1.5901 0.0522-3.3463 0.33861-3.9028 0.63643-0.55649 0.29783-1.6246 0.54151-2.3736 0.54151s-1.5128 0.24446-1.6975 0.54324c-0.18466 0.29879-0.93955 0.54325-1.6775 0.54325-2.446 0-10.909 3.0087-18.547 6.5936-2.4588 1.1541-4.6816 2.0983-4.9396 2.0983-0.25793 0-1.7699-2.3835-3.3599-5.2966zm97.856-270.28c4.4479-7.3601 9.0093-18.858 8.258-20.815-0.85679-2.2328-4.1862 0.74748-6.6429 5.9462-1.6215 3.4314-4.5032 12.906-5.2069 17.12-0.58061 3.4768 0.56376 2.7596 3.5918-2.2511z" fill="#63514a"/>
  <path d="m227.18 328.79c-7.6181-13.958-9.1142-16.533-12.543-21.594-7.4081-10.934-13.08-16.455-20.591-20.043-3.3661-1.608-3.8356-1.6848-10.05-1.6448-5.427 0.035-7.3834 0.29327-11.68 1.5419-2.8384 0.82494-5.8331 1.6283-6.6548 1.7852l-1.4939 0.2853-8e-3 -15.137c-0.0105-19.205-0.81038-44.408-1.9631-61.856-0.49351-7.4696-0.92411-15.131-0.95688-17.025l-0.0596-3.444 3.2595-1.7349c3.3534-1.7849 7.3763-3.6278 19.468-8.9182l6.9734-3.051 7.2319-8.9892c9.303-11.564 16.293-19.293 19.92-22.027 1.5854-1.1951 4.413-3.6875 6.2836-5.5386 5.9556-5.8937 12.942-9.7759 20.353-11.31 4.5838-0.94875 12.262-4.5171 17.092-7.944 15.042-10.67 29.296-27.726 51.697-61.855 12.799-19.501 15.682-23.53 20.226-28.274 2.9253-3.0538 5.0248-4.71 7.3339-5.7852 18.535-8.6309 37.022 18.309 64.194 93.544 3.7722 10.445 9.1159 25.646 11.363 32.323 4.8623 14.451 18.489 53.674 22.93 66.004 6.1435 17.055 31.6 80.597 38.794 96.833 2.5485 5.7516 4.451 10.457 4.2278 10.457-1.4741 0-11.722-8.6384-25.822-21.767-19.652-18.298-28.573-24.688-39.891-28.575-4.8571-1.6681-5.2579-1.9197-6.1086-3.8342-0.50071-1.127-0.92852-2.4193-0.95068-2.8719-0.0222-0.4526-0.52217-1.722-1.1111-2.8209-0.97581-1.8206-2.5872-7.0823-3.8752-12.654-0.27629-1.1951-0.97607-3.0412-1.5551-4.1024-0.59499-1.0905-1.4241-4.5154-1.9069-7.8771-0.46982-3.2712-1.31-6.8033-1.8671-7.849-0.55707-1.0457-1.4195-4.346-1.9164-7.3338-0.49697-2.9878-1.2699-7.6326-1.7176-10.322-0.44769-2.6891-1.154-5.9893-1.5695-7.3338s-1.6203-7.5783-2.6773-13.853c-1.0569-6.2745-2.4198-14.097-3.0286-17.384-0.60879-3.2866-1.4823-8.787-1.9411-12.223-0.45882-3.436-1.1619-7.7141-1.5624-9.5068s-1.0218-5.4596-1.3807-8.1487c-0.35886-2.6891-1.1056-7.3338-1.6595-10.322-0.55383-2.9878-1.2639-7.1437-1.5779-9.2352-0.314-2.0915-1.0611-6.4918-1.6602-9.7784-0.59912-3.2866-1.6969-9.4079-2.4396-13.603-4.8855-27.596-12.02-51.008-17.546-57.579-4.877-5.7986-8.4751-3.028-11.493 8.8501-3.7784 14.869-5.6258 38.59-5.5525 71.295 0.0452 20.151 0.19914 26.322 0.88774 35.583 0.13331 1.7927 0.37759 8.1487 0.54285 14.124 0.16526 5.9757 0.50612 14.165 0.75746 18.199 0.25136 4.0336 0.48486 8.4339 0.51889 9.7784 0.0341 1.3445 0.18669 5.6226 0.33924 9.5068 0.50108 12.759 0.73529 27.696 0.44191 28.184-0.15836 0.26302-0.36975 2.9521-0.46975 5.9757s-0.43799 7.2087-0.75109 9.3002c-0.31309 2.0915-0.6689 5.5917-0.79068 7.7783s-0.56244 4.509-0.97922 5.1608c-0.4494 0.70286-0.66864 2.0696-0.53871 3.3582 0.1692 1.678-0.1 2.6425-1.1817 4.2343-0.97992 1.4419-1.4008 2.778-1.4008 4.4464 0 3.032-0.70187 4.8561-2.924 7.5992-0.97591 1.2047-2.0794 3.2905-2.4523 4.635-0.87082 3.1402-8.876 14.124-10.294 14.124-0.55119 0-1.4446 0.48892-1.9854 1.0865-0.54079 0.59757-1.2256 1.0865-1.5218 1.0865-0.29618 0-1.7692 1.1511-3.2733 2.558-1.6052 1.5015-2.8252 2.2868-2.9536 1.9014-0.2997-0.89913-1.2166-0.82351-2.3398 0.19298-0.51637 0.4673-1.7579 0.86964-2.759 0.89408-1.0011 0.0245-2.4048 0.49896-3.1192 1.0545-0.83728 0.65099-1.515 0.83085-1.9065 0.50595-0.76136-0.63187-4.1911-0.34001-5.7389 0.48836-0.64116 0.34314-1.4578 0.52522-1.8147 0.40462s-1.4304 0.10583-2.3854 0.50316c-1.1132 0.46312-1.8562 0.52865-2.0701 0.18257-0.21602-0.34953-0.75011-0.31698-1.5149 0.0923-0.64968 0.34769-2.5294 0.70931-4.1772 0.80358-2.9262 0.16742-5.6849 0.47257-8.9716 0.99242-0.89636 0.14177-3.2173 0.41079-5.1576 0.59783-1.9403 0.18703-3.896 0.51926-4.346 0.73828-0.44997 0.21902-2.1191 0.44094-3.7091 0.49316-1.5901 0.0522-3.3463 0.33861-3.9028 0.63643-0.55649 0.29783-1.6246 0.54151-2.3736 0.54151s-1.5128 0.24446-1.6975 0.54324c-0.18466 0.29879-0.93955 0.54325-1.6775 0.54325-2.446 0-10.909 3.0087-18.547 6.5936-2.4588 1.1541-4.6816 2.0983-4.9396 2.0983-0.25793 0-1.7699-2.3835-3.3599-5.2966zm97.856-270.28c4.4479-7.3601 9.0093-18.858 8.258-20.815-0.85679-2.2328-4.1862 0.74748-6.6429 5.9462-1.6215 3.4314-4.5032 12.906-5.2069 17.12-0.58061 3.4768 0.56376 2.7596 3.5918-2.2511z" fill="#b42417"/>
  <path d="m227.18 328.79c-7.6181-13.958-9.1142-16.533-12.543-21.594-7.4081-10.934-13.08-16.455-20.591-20.043-3.3661-1.608-3.8356-1.6848-10.05-1.6448-5.427 0.035-7.3834 0.29327-11.68 1.5419-2.8384 0.82494-5.8331 1.6283-6.6548 1.7852l-1.4939 0.2853-8e-3 -15.137c-0.0105-19.205-0.81038-44.408-1.9631-61.856-0.49351-7.4696-0.92411-15.131-0.95688-17.025l-0.0596-3.444 3.2595-1.7349c3.3534-1.7849 7.3763-3.6278 19.468-8.9182l6.9734-3.051 7.2319-8.9892c9.303-11.564 16.293-19.293 19.92-22.027 1.5854-1.1951 4.413-3.6875 6.2836-5.5386 5.9556-5.8937 12.942-9.7759 20.353-11.31 4.5838-0.94875 12.262-4.5171 17.092-7.944 15.042-10.67 29.296-27.726 51.697-61.855 12.799-19.501 15.682-23.53 20.226-28.274 2.9253-3.0538 5.0248-4.71 7.3339-5.7852 18.535-8.6309 37.022 18.309 64.194 93.544 3.7722 10.445 9.1159 25.646 11.363 32.323 4.8623 14.451 18.489 53.674 22.93 66.004 6.1435 17.055 31.6 80.597 38.794 96.833 2.5485 5.7516 4.4993 10.457 4.3353 10.457-1.3703 0-13.707-11.289-13.707-12.543 0-0.35423-2.6891-6.0882-5.9757-12.742-3.2866-6.6539-5.9757-12.288-5.9757-12.52s-0.46555-1.4161-1.0346-2.6308c-1.8927-4.0407-3.1233-7.0802-3.5335-8.7276-0.2232-0.89635-0.71423-1.9964-1.0912-2.4446s-1.2516-2.2816-1.9437-4.0743-1.4647-3.4917-1.7169-3.7756c-0.2522-0.28385-0.46005-0.895-0.46189-1.3581-2e-3 -0.46311-0.33521-1.478-0.74081-2.2553-0.40561-0.7773-1.4979-3.6097-2.4274-6.2943-0.92946-2.6846-2.0614-5.5932-2.5153-6.4638-0.45397-0.87053-0.82691-1.8558-0.82875-2.1894-3e-3 -0.62718-1.3542-4.2505-3.5204-9.4434-2.2408-5.3716-3.5451-8.9698-3.5485-9.7889-2e-3 -0.44241-0.31622-1.4155-0.69863-2.1625s-1.885-5.025-3.3391-9.5068c-1.4541-4.4818-2.946-8.8821-3.3153-9.7784-0.36931-0.89636-0.83624-2.2409-1.0376-2.9878-0.2014-0.74697-0.56439-1.847-0.80664-2.4446-0.67909-1.6752-4.4106-13.671-5.5767-17.927-0.57299-2.0915-1.3612-4.5361-1.7515-5.4324-1.078-2.4756-2.4657-6.7226-3.2839-10.05-0.40405-1.6433-1.5115-5.0658-2.461-7.6054-0.94948-2.5397-2.2066-6.4278-2.7937-8.6403-0.58707-2.2125-2.4106-7.9573-4.0524-12.766-1.6418-4.809-3.4325-10.333-3.9794-12.275-0.5469-1.9421-1.644-5.2423-2.4379-7.3338-0.79393-2.0915-2.3999-6.614-3.5688-10.05-1.1689-3.436-2.7649-7.9585-3.5467-10.05-0.78176-2.0915-1.8945-5.1472-2.4728-6.7906-0.57826-1.6433-1.2829-3.4768-1.5658-4.0743-0.28296-0.59757-1.872-4.3867-3.5313-8.4203-3.4727-8.442-8.1967-18.05-9.8676-20.07-0.63143-0.76332-1.6961-2.4675-2.3659-3.787-0.66983-1.3195-1.9867-3.1976-2.9263-4.1734-0.93962-0.97583-2.0751-2.1701-2.5233-2.654-1.4693-1.5862-6.2218-5.5323-7.4339-6.1725-2.8898-1.5263-6.2591 0.22239-8.3589 4.3384-1.5737 3.0846-3.5944 11.139-4.8197 19.209-2.502 16.481-3.4428 33.176-3.3826 60.029 0.0452 20.151 0.19914 26.322 0.88774 35.583 0.13331 1.7927 0.37759 8.1487 0.54285 14.124 0.16526 5.9757 0.50612 14.165 0.75746 18.199 0.25136 4.0336 0.48486 8.4339 0.51889 9.7784 0.0341 1.3445 0.18669 5.6226 0.33924 9.5068 0.50108 12.759 0.73529 27.696 0.44191 28.184-0.15836 0.26302-0.36975 2.9521-0.46975 5.9757s-0.43799 7.2087-0.75109 9.3002c-0.31309 2.0915-0.6689 5.5917-0.79068 7.7783s-0.56244 4.509-0.97922 5.1608c-0.4494 0.70286-0.66864 2.0696-0.53871 3.3582 0.1692 1.678-0.1 2.6425-1.1817 4.2343-0.97992 1.4419-1.4008 2.778-1.4008 4.4464 0 3.032-0.70187 4.8561-2.924 7.5992-0.97591 1.2047-2.0794 3.2905-2.4523 4.635-0.87082 3.1402-8.876 14.124-10.294 14.124-0.55119 0-1.4446 0.48892-1.9854 1.0865-0.54079 0.59757-1.2256 1.0865-1.5218 1.0865-0.29618 0-1.7692 1.1511-3.2733 2.558-1.6052 1.5015-2.8252 2.2868-2.9536 1.9014-0.2997-0.89913-1.2166-0.82351-2.3398 0.19298-0.51637 0.4673-1.7579 0.86964-2.759 0.89408-1.0011 0.0245-2.4048 0.49896-3.1192 1.0545-0.83728 0.65099-1.515 0.83085-1.9065 0.50595-0.76136-0.63187-4.1911-0.34001-5.7389 0.48836-0.64116 0.34314-1.4578 0.52522-1.8147 0.40462s-1.4304 0.10583-2.3854 0.50316c-1.1132 0.46312-1.8562 0.52865-2.0701 0.18257-0.21602-0.34953-0.75011-0.31698-1.5149 0.0923-0.64968 0.34769-2.5294 0.70931-4.1772 0.80358-2.9262 0.16742-5.6849 0.47257-8.9716 0.99242-0.89636 0.14177-3.2173 0.41079-5.1576 0.59783-1.9403 0.18703-3.896 0.51926-4.346 0.73828-0.44997 0.21902-2.1191 0.44094-3.7091 0.49316-1.5901 0.0522-3.3463 0.33861-3.9028 0.63643-0.55649 0.29783-1.6246 0.54151-2.3736 0.54151s-1.5128 0.24446-1.6975 0.54324c-0.18466 0.29879-0.93955 0.54325-1.6775 0.54325-2.446 0-10.909 3.0087-18.547 6.5936-2.4588 1.1541-4.6816 2.0983-4.9396 2.0983-0.25793 0-1.7699-2.3835-3.3599-5.2966zm97.856-270.28c4.4479-7.3601 9.0093-18.858 8.258-20.815-0.85679-2.2328-4.1862 0.74748-6.6429 5.9462-1.6215 3.4314-4.5032 12.906-5.2069 17.12-0.58061 3.4768 0.56376 2.7596 3.5918-2.2511z" fill="#375858"/>
  <path d="m227.18 328.79c-7.6181-13.958-9.1142-16.533-12.543-21.594-7.4081-10.934-13.08-16.455-20.591-20.043-3.3661-1.608-3.8356-1.6848-10.05-1.6448-5.427 0.035-7.3834 0.29327-11.68 1.5419-2.8384 0.82494-5.8331 1.6283-6.6548 1.7852l-1.4939 0.2853-8e-3 -15.137c-0.0105-19.205-0.81038-44.408-1.9631-61.856-0.49351-7.4696-0.92411-15.131-0.95688-17.025l-0.0596-3.444 3.2595-1.7349c3.3534-1.7849 7.3763-3.6278 19.468-8.9182l6.9734-3.051 7.4172-9.2608c10.583-13.213 12.808-15.295 19.127-17.896 9.3406-3.8449 21.711-11.62 21.711-13.646 0-0.63689-0.80132-0.80693-3.8027-0.80693-2.0915 0-3.7997-0.18334-3.796-0.40743 0.0218-1.3226 7.6232-4.7075 13.132-5.8477 4.5838-0.94875 12.262-4.5171 17.092-7.944 14.689-10.42 27.804-25.981 50.76-60.225 7.5338-11.239 7.8357-11.606 7.9937-9.7171 0.16185 1.9351-1.1699 7.8189-4.2803 18.911-0.87334 3.1144-1.5879 6.2612-1.5879 6.9929 0 1.1551 0.11394 1.2359 0.86478 0.61272 2.0967-1.7401 13.145-23.016 17.286-33.288 3.2936-8.1699 3.6206-12.907 0.82954-12.022-1.8158 0.5763-1.1595-0.62882 1.7986-3.3027 8.2098-7.4209 16.639-7.2204 25.282 0.60147 12.651 11.448 26.435 39.034 44.505 89.067 3.7722 10.445 9.1159 25.646 11.363 32.323 4.8623 14.451 18.489 53.674 22.93 66.004 6.1435 17.055 31.6 80.597 38.794 96.833 2.5485 5.7516 4.4993 10.457 4.3353 10.457-1.3703 0-13.707-11.289-13.707-12.543 0-0.35423-2.6891-6.0882-5.9757-12.742-3.2866-6.6539-5.9757-12.288-5.9757-12.52s-0.46555-1.4161-1.0346-2.6308c-1.8927-4.0407-3.1233-7.0802-3.5335-8.7276-0.2232-0.89635-0.71423-1.9964-1.0912-2.4446s-1.2516-2.2816-1.9437-4.0743-1.4647-3.4917-1.7169-3.7756c-0.2522-0.28385-0.46005-0.895-0.46189-1.3581-2e-3 -0.46311-0.33521-1.478-0.74081-2.2553-0.40561-0.7773-1.4979-3.6097-2.4274-6.2943-0.92946-2.6846-2.0614-5.5932-2.5153-6.4638-0.45397-0.87053-0.82691-1.8558-0.82875-2.1894-3e-3 -0.62718-1.3542-4.2505-3.5204-9.4434-2.2408-5.3716-3.5451-8.9698-3.5485-9.7889-2e-3 -0.44241-0.31622-1.4155-0.69863-2.1625s-1.885-5.025-3.3391-9.5068c-1.4541-4.4818-2.946-8.8821-3.3153-9.7784-0.36931-0.89636-0.83624-2.2409-1.0376-2.9878-0.2014-0.74697-0.56439-1.847-0.80664-2.4446-0.67909-1.6752-4.4106-13.671-5.5767-17.927-0.57299-2.0915-1.3612-4.5361-1.7515-5.4324-1.078-2.4756-2.4657-6.7226-3.2839-10.05-0.40405-1.6433-1.5115-5.0658-2.461-7.6054-0.94948-2.5397-2.2066-6.4278-2.7937-8.6403-0.58707-2.2125-2.4106-7.9573-4.0524-12.766-1.6418-4.809-3.4325-10.333-3.9794-12.275-0.5469-1.9421-1.644-5.2423-2.4379-7.3338-0.79393-2.0915-2.3999-6.614-3.5688-10.05-1.1689-3.436-2.7649-7.9585-3.5467-10.05-0.78176-2.0915-1.8945-5.1472-2.4728-6.7906-0.57826-1.6433-1.2829-3.4768-1.5658-4.0743-0.28296-0.59757-1.872-4.3867-3.5313-8.4203-3.4727-8.442-8.1967-18.05-9.8676-20.07-0.63143-0.76332-1.6961-2.4675-2.3659-3.787-0.66983-1.3195-1.9867-3.1976-2.9263-4.1734-0.93962-0.97583-2.0751-2.1701-2.5233-2.654-1.4693-1.5862-6.2218-5.5323-7.4339-6.1725-2.8898-1.5263-6.2591 0.22239-8.3589 4.3384-1.5737 3.0846-3.5944 11.139-4.8197 19.209-2.502 16.481-3.4428 33.176-3.3826 60.029 0.0452 20.151 0.19914 26.322 0.88774 35.583 0.13331 1.7927 0.37759 8.1487 0.54285 14.124 0.16526 5.9757 0.50612 14.165 0.75746 18.199 0.25136 4.0336 0.48486 8.4339 0.51889 9.7784 0.0341 1.3445 0.18669 5.6226 0.33924 9.5068 0.50108 12.759 0.73529 27.696 0.44191 28.184-0.15836 0.26302-0.36975 2.9521-0.46975 5.9757s-0.43799 7.2087-0.75109 9.3002c-0.31309 2.0915-0.6689 5.5917-0.79068 7.7783s-0.56244 4.509-0.97922 5.1608c-0.4494 0.70286-0.66864 2.0696-0.53871 3.3582 0.1692 1.678-0.1 2.6425-1.1817 4.2343-0.97992 1.4419-1.4008 2.778-1.4008 4.4464 0 3.032-0.70187 4.8561-2.924 7.5992-0.97591 1.2047-2.0794 3.2905-2.4523 4.635-0.87082 3.1402-8.876 14.124-10.294 14.124-0.55119 0-1.4446 0.48892-1.9854 1.0865-0.54079 0.59757-1.2256 1.0865-1.5218 1.0865-0.29618 0-1.7692 1.1511-3.2733 2.558-1.6052 1.5015-2.8252 2.2868-2.9536 1.9014-0.2997-0.89913-1.2166-0.82351-2.3398 0.19298-0.51637 0.4673-1.7579 0.86964-2.759 0.89408-1.0011 0.0245-2.4048 0.49896-3.1192 1.0545-0.83728 0.65099-1.515 0.83085-1.9065 0.50595-0.76136-0.63187-4.1911-0.34001-5.7389 0.48836-0.64116 0.34314-1.4578 0.52522-1.8147 0.40462s-1.4304 0.10583-2.3854 0.50316c-1.1132 0.46312-1.8562 0.52865-2.0701 0.18257-0.21602-0.34953-0.75011-0.31698-1.5149 0.0923-0.64968 0.34769-2.5294 0.70931-4.1772 0.80358-2.9262 0.16742-5.6849 0.47257-8.9716 0.99242-0.89636 0.14177-3.2173 0.41079-5.1576 0.59783-1.9403 0.18703-3.896 0.51926-4.346 0.73828-0.44997 0.21902-2.1191 0.44094-3.7091 0.49316-1.5901 0.0522-3.3463 0.33861-3.9028 0.63643-0.55649 0.29783-1.6246 0.54151-2.3736 0.54151s-1.5128 0.24446-1.6975 0.54324c-0.18466 0.29879-0.93955 0.54325-1.6775 0.54325-2.446 0-10.909 3.0087-18.547 6.5936-2.4588 1.1541-4.6816 2.0983-4.9396 2.0983-0.25793 0-1.7699-2.3835-3.3599-5.2966z" fill="#a82716"/>
  <path d="m228.18 329.88c-0.4474-0.5254-2.849-4.6222-5.337-9.104-10.78-19.42-18.895-28.895-28.794-33.624-3.3661-1.608-3.8356-1.6848-10.05-1.6448-5.427 0.035-7.3834 0.29327-11.68 1.5419-2.8384 0.82494-5.8331 1.6283-6.6548 1.7852l-1.4939 0.2853-8e-3 -15.137c-0.0105-19.205-0.81038-44.408-1.9631-61.856-0.49351-7.4696-0.92411-15.131-0.95688-17.025l-0.0596-3.444 3.2595-1.7349c3.3534-1.7849 7.3763-3.6278 19.468-8.9182l6.9734-3.051 7.4172-9.2608c10.583-13.213 12.808-15.295 19.127-17.896 9.3406-3.8449 21.711-11.62 21.711-13.646 0-0.63689-0.80132-0.80693-3.8027-0.80693-2.0915 0-3.7997-0.18334-3.796-0.40743 0.0218-1.3226 7.6232-4.7075 13.132-5.8477 4.5838-0.94875 12.262-4.5171 17.092-7.944 14.689-10.42 27.804-25.981 50.76-60.225 7.5338-11.239 7.8357-11.606 7.9937-9.7171 0.16185 1.9351-1.1699 7.8189-4.2803 18.911-0.87334 3.1144-1.5879 6.2612-1.5879 6.9929 0 1.1551 0.11394 1.2359 0.86478 0.61272 2.0967-1.7401 13.145-23.016 17.286-33.288 3.2936-8.1699 3.6206-12.907 0.82954-12.022-1.8158 0.5763-1.1595-0.62882 1.7986-3.3027 8.2541-7.461 16.975-7.2177 25.073 0.69946 9.9659 9.7439 20.778 29.034 32.511 58.004 8.0585 19.896 12.374 31.936 33.3 92.895 5.8086 16.921 11.56 33.087 17.779 49.979 1.3202 3.5854 5.337 13.731 8.9261 22.545 3.5891 8.8142 7.9344 19.57 9.6561 23.903 7.3919 18.6 15.944 38.928 18.612 44.241l1.3475 2.6829-1.555-0.99488c-4.7484-3.038-12.148-10.013-12.148-11.45 0-0.22211-2.6891-5.848-5.9757-12.502-3.2866-6.6539-5.9757-12.288-5.9757-12.52s-0.46555-1.4161-1.0346-2.6308c-1.8927-4.0407-3.1233-7.0802-3.5335-8.7276-0.2232-0.89635-0.71423-1.9964-1.0912-2.4446s-1.2516-2.2816-1.9437-4.0743-1.4647-3.4917-1.7169-3.7756c-0.2522-0.28385-0.46005-0.895-0.46189-1.3581-2e-3 -0.46311-0.33521-1.478-0.74081-2.2553-0.40561-0.7773-1.4979-3.6097-2.4274-6.2943-0.92946-2.6846-2.0614-5.5932-2.5153-6.4638-0.45397-0.87053-0.82691-1.8558-0.82875-2.1894-3e-3 -0.62718-1.3542-4.2505-3.5204-9.4434-2.2408-5.3716-3.5451-8.9698-3.5485-9.7889-2e-3 -0.44241-0.31622-1.4155-0.69863-2.1625s-1.885-5.025-3.3391-9.5068c-1.4541-4.4818-2.946-8.8821-3.3153-9.7784-0.36931-0.89636-0.83624-2.2409-1.0376-2.9878-0.2014-0.74697-0.56439-1.847-0.80664-2.4446-0.67909-1.6752-4.4106-13.671-5.5767-17.927-0.57299-2.0915-1.3612-4.5361-1.7515-5.4324-1.078-2.4756-2.4657-6.7226-3.2839-10.05-0.40405-1.6433-1.5115-5.0658-2.461-7.6054-0.94948-2.5397-2.2066-6.4278-2.7937-8.6403-0.58707-2.2125-2.4106-7.9573-4.0524-12.766-1.6418-4.809-3.4325-10.333-3.9794-12.275-0.5469-1.9421-1.644-5.2423-2.4379-7.3338-0.79393-2.0915-2.3999-6.614-3.5688-10.05-1.1689-3.436-2.7649-7.9585-3.5467-10.05-0.78176-2.0915-1.8945-5.1472-2.4728-6.7906-0.57826-1.6433-1.2829-3.4768-1.5658-4.0743-0.28296-0.59757-1.872-4.3867-3.5313-8.4203-3.4754-8.4484-8.1979-18.053-9.869-20.07-0.63218-0.76332-1.782-2.6408-2.5552-4.1721s-1.7824-2.9288-2.2428-3.1054c-0.46033-0.17664-1.2986-1.0802-1.8628-2.008-0.56421-0.92776-1.7593-2.2194-2.6558-2.8703-0.89648-0.6509-3.138-2.4669-4.9812-4.0355-4.9711-4.2306-7.1899-3.7494-9.7875 2.1229-2.7183 6.1451-6.3788 24.989-7.634 39.3-0.3145 3.5854-0.67981 7.1301-0.81182 7.8771-0.59142 3.3466-2.5629 36.296-3.2667 54.596-0.17235 4.4818-0.41474 8.7598-0.53862 9.5068-0.1239 0.74696-0.36117 5.3917-0.52728 10.322-0.48526 14.401-0.89075 21.31-1.3853 23.602-0.2544 1.1791-0.34571 2.3328-0.2029 2.5639s-0.0106 2.9333-0.34093 6.0049c-0.33032 3.0716-0.71682 7.5292-0.85887 9.9058s-0.47755 5.2969-0.74556 6.4897c-0.268 1.1928-0.35422 2.384-0.19159 2.6471 0.36964 0.5981-0.77699 8.4149-1.7835 12.158-0.41404 1.5399-0.7528 3.5408-0.7528 4.4464 0 0.90561-0.24712 2.2965-0.54915 3.0909s-0.58422 2.4604-0.62709 3.7023c-0.0429 1.2418-0.4069 3.2054-0.80896 4.3634s-0.73103 2.9377-0.73103 3.9549c0 1.0172-0.61319 3.3063-1.3626 5.0869-0.74945 1.7806-1.6352 4.5234-1.9683 6.0951-0.33311 1.5717-1.0644 3.7646-1.6252 4.8732-0.56075 1.1085-1.0211 2.3308-1.0229 2.7162-2e-3 0.38538-0.38801 1.4341-0.85816 2.3304-0.47015 0.89635-1.3589 3.0965-1.9749 4.8892-1.2825 3.7319-7.0183 12.667-9.9393 15.482-1.0848 1.0457-2.4872 2.4514-3.1166 3.1237-0.62932 0.67226-1.4057 1.2316-1.7253 1.2429-0.31959 0.0113-1.4356 1.1114-2.4799 2.4446s-2.1881 2.424-2.5416 2.424-0.97777 0.33499-1.3872 0.74442-1.4664 1.1178-2.3489 1.5741c-0.88244 0.45633-2.0644 1.3379-2.6264 1.959s-1.2445 0.99176-1.5165 0.82366-1.0863 0.0821-1.8096 0.55605c-0.72332 0.47393-1.6293 0.86275-2.0133 0.86402-0.384 1e-3 -1.782 0.72136-3.1067 1.6002-1.3247 0.87882-2.6126 1.4717-2.8619 1.3176-0.24939-0.15414-1.2435 0.19533-2.2091 0.77658s-2.0266 0.95629-2.3578 0.83342c-0.7013-0.2602-8.2849 2.1384-10.429 3.2986-1.5459 0.83647-4.4129 1.6562-5.1768 1.4801-0.24971-0.0575-1.2564 0.39127-2.2371 0.99738-0.98071 0.60611-2.2899 1.102-2.9092 1.102-0.61937 0-1.2656 0.22566-1.436 0.50145-0.17046 0.2758-1.1006 0.67513-2.067 0.88739-0.96643 0.21226-2.4915 0.69922-3.3891 1.0821s-2.9764 1.2272-4.6198 1.8763c-4.9387 1.9506-12.13 5.3747-14.443 6.8769-0.98311 0.63846-1.2422 0.60936-1.9474-0.21884z" fill="#64423b"/>
  <path d="m228.17 329.88c-0.45136-0.5254-2.9746-4.8666-5.6072-9.6472-12.03-21.845-22.004-32.267-33.329-34.824-3.4448-0.77792-4.6362-0.80919-8.8568-0.23242-5.1302 0.70108-6.2719 0.54632-4.1688-0.56512 2.135-1.1283 7.4784-5.394 8.0167-6.3998 0.30376-0.56759 0.32467-2.5746 0.052-4.996-0.25062-2.226-0.74324-7.8365-1.0947-12.468-0.35147-4.6312-1.4548-15.51-2.4518-24.174-0.99699-8.6648-2.1072-18.565-2.4671-22.001-0.35991-3.436-1.3563-10.848-2.2143-16.471-0.85795-5.623-1.5599-10.67-1.5599-11.215 0-0.98378 2.7134-2.4771 12.766-7.0262 3.6807-1.6655 4.0124-1.9854 10.322-9.9539 3.5853-4.5282 8.387-10.204 10.67-12.613 3.7803-3.9878 4.6062-4.5687 9.2352-6.496 9.3865-3.908 21.653-11.638 21.653-13.646 0-0.63918-0.81477-0.80693-3.9191-0.80693-3.4184 0-3.8175-0.10002-3.1236-0.78295 1.6143-1.5889 7.4778-4.0447 12.784-5.3544 8.1891-2.0212 14.376-5.4049 22.913-12.53 12.628-10.541 24.575-25.284 43.376-53.53 8.679-13.039 9.1944-13.694 9.3495-11.89 0.1621 1.8852-1.1842 7.8163-4.2803 18.857-0.87334 3.1144-1.5879 6.2612-1.5879 6.9929 0 1.1551 0.11394 1.2359 0.86478 0.61272 2.0967-1.7401 13.145-23.016 17.286-33.288 3.3652-8.3474 3.6271-12.878 0.69372-12-0.83863 0.25104-0.32514-0.53058 1.7418-2.6514 4.1737-4.2824 8.1551-5.9868 13.288-5.6885 4.9252 0.28619 7.8014 1.6616 11.977 5.7278 9.9327 9.6719 20.772 29.005 32.511 57.991 8.0585 19.896 12.374 31.936 33.3 92.895 5.8086 16.921 11.56 33.087 17.779 49.979 1.3202 3.5854 5.337 13.731 8.9261 22.545 3.5891 8.8142 7.9344 19.57 9.6561 23.903 7.3919 18.6 15.944 38.928 18.612 44.241l1.3475 2.6829-1.555-0.99488c-4.7484-3.038-12.148-10.013-12.148-11.45 0-0.22211-2.6891-5.848-5.9757-12.502-3.2866-6.6539-5.9757-12.288-5.9757-12.52s-0.46555-1.4161-1.0346-2.6308c-1.8927-4.0407-3.1233-7.0802-3.5335-8.7276-0.2232-0.89635-0.71423-1.9964-1.0912-2.4446s-1.2516-2.2816-1.9437-4.0743-1.4647-3.4917-1.7169-3.7756c-0.2522-0.28385-0.46005-0.895-0.46189-1.3581-2e-3 -0.46311-0.33521-1.478-0.74081-2.2553-0.40561-0.7773-1.4979-3.6097-2.4274-6.2943-0.92946-2.6846-2.0614-5.5932-2.5153-6.4638-0.45397-0.87053-0.82691-1.8558-0.82875-2.1894-3e-3 -0.62718-1.3542-4.2505-3.5204-9.4434-2.2408-5.3716-3.5451-8.9698-3.5485-9.7889-2e-3 -0.44241-0.31622-1.4155-0.69863-2.1625s-1.885-5.025-3.3391-9.5068c-1.4541-4.4818-2.946-8.8821-3.3153-9.7784-0.36931-0.89636-0.83624-2.2409-1.0376-2.9878-0.2014-0.74697-0.56439-1.847-0.80664-2.4446-0.67909-1.6752-4.4106-13.671-5.5767-17.927-0.57299-2.0915-1.3612-4.5361-1.7515-5.4324-1.078-2.4756-2.4657-6.7226-3.2839-10.05-0.40405-1.6433-1.5115-5.0658-2.461-7.6054-0.94948-2.5397-2.2066-6.4278-2.7937-8.6403-0.58707-2.2125-2.4106-7.9573-4.0524-12.766-1.6418-4.809-3.4325-10.333-3.9794-12.275-0.5469-1.9421-1.644-5.2423-2.4379-7.3338-0.79393-2.0915-2.3999-6.614-3.5688-10.05-1.1689-3.436-2.7649-7.9585-3.5467-10.05-0.78176-2.0915-1.8945-5.1472-2.4728-6.7906-0.57826-1.6433-1.2829-3.4768-1.5658-4.0743-0.28296-0.59757-1.872-4.3867-3.5313-8.4203-3.4754-8.4484-8.1979-18.053-9.869-20.07-0.63218-0.76332-1.782-2.6408-2.5552-4.1721s-1.7824-2.9288-2.2428-3.1054c-0.46033-0.17664-1.2986-1.0802-1.8628-2.008-0.56421-0.92776-1.7593-2.2194-2.6558-2.8703-0.89648-0.6509-3.138-2.4669-4.9812-4.0355-4.9711-4.2306-7.1899-3.7494-9.7875 2.1229-2.7183 6.1451-6.3788 24.989-7.634 39.3-0.3145 3.5854-0.67981 7.1301-0.81182 7.8771-0.59142 3.3466-2.5629 36.296-3.2667 54.596-0.17235 4.4818-0.41474 8.7598-0.53862 9.5068-0.1239 0.74696-0.36117 5.3917-0.52728 10.322-0.48526 14.401-0.89075 21.31-1.3853 23.602-0.2544 1.1791-0.34571 2.3328-0.2029 2.5639s-0.0106 2.9333-0.34093 6.0049c-0.33032 3.0716-0.71682 7.5292-0.85887 9.9058s-0.47755 5.2969-0.74556 6.4897c-0.268 1.1928-0.35422 2.384-0.19159 2.6471 0.36964 0.5981-0.77699 8.4149-1.7835 12.158-0.41404 1.5399-0.7528 3.5408-0.7528 4.4464 0 0.90561-0.24712 2.2965-0.54915 3.0909s-0.58422 2.4604-0.62709 3.7023c-0.0429 1.2418-0.4069 3.2054-0.80896 4.3634s-0.73103 2.9377-0.73103 3.9549c0 1.0172-0.61319 3.3063-1.3626 5.0869-0.74945 1.7806-1.6352 4.5234-1.9683 6.0951-0.33311 1.5717-1.0644 3.7646-1.6252 4.8732-0.56075 1.1085-1.0211 2.3308-1.0229 2.7162-2e-3 0.38538-0.38801 1.4341-0.85816 2.3304-0.47015 0.89635-1.3589 3.0965-1.9749 4.8892-1.2825 3.7319-7.0183 12.667-9.9393 15.482-1.0848 1.0457-2.4872 2.4514-3.1166 3.1237-0.62932 0.67226-1.4057 1.2316-1.7253 1.2429-0.31959 0.0113-1.4356 1.1114-2.4799 2.4446s-2.1881 2.424-2.5416 2.424-0.97777 0.33499-1.3872 0.74442-1.4664 1.1178-2.3489 1.5741c-0.88244 0.45633-2.0644 1.3379-2.6264 1.959s-1.2445 0.99176-1.5165 0.82366-1.0863 0.0821-1.8096 0.55605c-0.72332 0.47393-1.6293 0.86275-2.0133 0.86402-0.384 1e-3 -1.782 0.72136-3.1067 1.6002-1.3247 0.87882-2.6126 1.4717-2.8619 1.3176-0.24939-0.15414-1.2435 0.19533-2.2091 0.77658s-2.0266 0.95629-2.3578 0.83342c-0.7013-0.2602-8.2849 2.1384-10.429 3.2986-1.5459 0.83647-4.4129 1.6562-5.1768 1.4801-0.24971-0.0575-1.2564 0.39127-2.2371 0.99738-0.98071 0.60611-2.2899 1.102-2.9092 1.102-0.61937 0-1.2656 0.22566-1.436 0.50145-0.17046 0.2758-1.1006 0.67513-2.067 0.88739-0.96643 0.21226-2.4915 0.69922-3.3891 1.0821s-2.9764 1.2272-4.6198 1.8763c-4.9387 1.9506-12.13 5.3747-14.443 6.8769-0.98301 0.63841-1.2432 0.60928-1.9546-0.21884z" fill="#a81e15"/>
  <path d="m228.17 329.88c-0.45136-0.5254-2.9746-4.8666-5.6072-9.6472-12.03-21.845-22.004-32.267-33.329-34.824-3.4448-0.77792-4.6362-0.80919-8.8568-0.23242-5.1302 0.70108-6.2719 0.54632-4.1688-0.56512 2.135-1.1283 7.4784-5.394 8.0167-6.3998 0.30376-0.56759 0.32467-2.5746 0.052-4.996-0.25062-2.226-0.74324-7.8365-1.0947-12.468-0.35147-4.6312-1.4548-15.51-2.4518-24.174-0.99699-8.6648-2.1072-18.565-2.4671-22.001-0.35991-3.436-1.3563-10.848-2.2143-16.471-0.85795-5.623-1.5599-10.67-1.5599-11.215 0-0.98378 2.7134-2.4771 12.766-7.0262 3.6807-1.6655 4.0124-1.9854 10.322-9.9539 3.5853-4.5282 8.387-10.204 10.67-12.613 3.7803-3.9878 4.6062-4.5687 9.2352-6.496 9.3865-3.908 21.653-11.638 21.653-13.646 0-0.63918-0.81477-0.80693-3.9191-0.80693-3.4184 0-3.8175-0.10002-3.1236-0.78295 1.6143-1.5889 7.4778-4.0447 12.784-5.3544 8.1891-2.0212 14.376-5.4049 22.913-12.53 12.628-10.541 24.575-25.284 43.376-53.53 8.679-13.039 9.1944-13.694 9.3495-11.89 0.1621 1.8852-1.1842 7.8163-4.2803 18.857-0.87334 3.1144-1.5879 6.2612-1.5879 6.9929 0 1.1551 0.11394 1.2359 0.86478 0.61272 2.0967-1.7401 13.145-23.016 17.286-33.288 3.3652-8.3474 3.6272-12.879 0.69372-11.999-2.3782 0.71334 4.1404-5.2688 7.5027-6.8853 3.9365-1.8926 8.8679-2.0937 12.766-0.52083 2.816 1.1362 7.4582 5.0478 10.757 9.064 2.8196 3.4329 2.8898 3.9923 0.24389 1.9449-2.9662-2.2953-5.1914-3.0607-6.6416-2.2845-1.5793 0.8452-4.7165 4.3751-6.9291 7.7964-4.4935 6.9482-8.2137 26.379-10.73 56.042-0.67766 7.9895-2.2226 35.632-2.7325 48.892-0.17235 4.4818-0.41474 8.7598-0.53862 9.5068-0.1239 0.74696-0.36117 5.3917-0.52728 10.322-0.48526 14.401-0.89075 21.31-1.3853 23.602-0.2544 1.1791-0.34571 2.3328-0.2029 2.5639s-0.0106 2.9333-0.34093 6.0049c-0.33032 3.0716-0.71682 7.5292-0.85887 9.9058s-0.47755 5.2969-0.74556 6.4897c-0.268 1.1928-0.35422 2.384-0.19159 2.6471 0.36964 0.5981-0.77699 8.4149-1.7835 12.158-0.41404 1.5399-0.7528 3.5408-0.7528 4.4464 0 0.90561-0.24712 2.2965-0.54915 3.0909s-0.58422 2.4604-0.62709 3.7023c-0.0429 1.2418-0.4069 3.2054-0.80896 4.3634s-0.73103 2.9377-0.73103 3.9549c0 1.0172-0.61319 3.3063-1.3626 5.0869-0.74945 1.7806-1.6352 4.5234-1.9683 6.0951-0.33311 1.5717-1.0644 3.7646-1.6252 4.8732-0.56075 1.1085-1.0211 2.3308-1.0229 2.7162-2e-3 0.38538-0.38801 1.4341-0.85816 2.3304-0.47015 0.89635-1.3589 3.0965-1.9749 4.8892-1.2825 3.7319-7.0183 12.667-9.9393 15.482-1.0848 1.0457-2.4872 2.4514-3.1166 3.1237-0.62932 0.67226-1.4057 1.2316-1.7253 1.2429-0.31959 0.0113-1.4356 1.1114-2.4799 2.4446s-2.1881 2.424-2.5416 2.424-0.97777 0.33499-1.3872 0.74442-1.4664 1.1178-2.3489 1.5741c-0.88244 0.45633-2.0644 1.3379-2.6264 1.959s-1.2445 0.99176-1.5165 0.82366-1.0863 0.0821-1.8096 0.55605c-0.72332 0.47393-1.6293 0.86275-2.0133 0.86402-0.384 1e-3 -1.782 0.72136-3.1067 1.6002-1.3247 0.87882-2.6126 1.4717-2.8619 1.3176-0.24939-0.15414-1.2435 0.19533-2.2091 0.77658s-2.0266 0.95629-2.3578 0.83342c-0.7013-0.2602-8.2849 2.1384-10.429 3.2986-1.5459 0.83647-4.4129 1.6562-5.1768 1.4801-0.24971-0.0575-1.2564 0.39127-2.2371 0.99738-0.98071 0.60611-2.2899 1.102-2.9092 1.102-0.61937 0-1.2656 0.22566-1.436 0.50145-0.17046 0.2758-1.1006 0.67513-2.067 0.88739-0.96643 0.21226-2.4915 0.69922-3.3891 1.0821s-2.9764 1.2272-4.6198 1.8763c-4.9387 1.9506-12.13 5.3747-14.443 6.8769-0.98301 0.63841-1.2432 0.60928-1.9546-0.21884z" fill="#962315"/>
  <path d="m222.85 319.83c-12.647-21.611-22.76-31.965-33.618-34.417-3.4448-0.77792-4.6362-0.80919-8.8568-0.23242-5.1302 0.70108-6.2719 0.54632-4.1688-0.56512 2.135-1.1283 7.4784-5.394 8.0167-6.3998 0.30376-0.56759 0.32467-2.5746 0.052-4.996-0.25062-2.226-0.74324-7.8365-1.0947-12.468-0.35147-4.6312-1.4548-15.51-2.4518-24.174-0.99699-8.6648-2.1072-18.565-2.4671-22.001-0.35991-3.436-1.3563-10.848-2.2143-16.471-0.85795-5.623-1.5599-10.67-1.5599-11.215 0-0.98378 2.7134-2.4771 12.766-7.0262 3.6807-1.6655 4.0124-1.9854 10.322-9.9539 3.5853-4.5282 8.387-10.204 10.67-12.613 3.7803-3.9878 4.6062-4.5687 9.2352-6.496 9.3865-3.908 21.653-11.638 21.653-13.646 0-0.63918-0.81477-0.80693-3.9191-0.80693-3.4184 0-3.8175-0.10002-3.1236-0.78295 1.6143-1.5889 7.4778-4.0447 12.784-5.3544 8.1891-2.0212 14.376-5.4049 22.913-12.53 12.628-10.541 24.575-25.284 43.376-53.53 8.679-13.039 9.1944-13.694 9.3495-11.89 0.1621 1.8852-1.1842 7.8163-4.2803 18.857-0.87334 3.1144-1.5879 6.2612-1.5879 6.9929 0 1.1551 0.11394 1.2359 0.86478 0.61272 2.0967-1.7401 13.145-23.016 17.286-33.288 3.3652-8.3474 3.6271-12.878 0.69372-12-0.83863 0.25104-0.32514-0.53058 1.7418-2.6514 4.1571-4.2654 8.1492-5.9805 13.288-5.709 3.3275 0.17576 4.2871 0.47292 6.7326 2.0849 1.5686 1.034 2.852 2.0167 2.852 2.1837 0 0.16709-0.78924 0.5377-1.7539 0.82357-2.8128 0.83359-4.1756 3.3808-8.3376 15.583-3.7904 11.113-8.2166 36.072-11.924 67.238-0.0889 0.74696-0.5471 4.2916-1.0183 7.877-0.91247 6.943-1.2647 9.7453-3.1067 24.718-0.64329 5.2287-1.3652 11.096-1.6042 13.038-2.2339 18.15-3.0176 23.679-3.4576 24.391-0.19423 0.31427-0.57518 2.5943-0.84657 5.0667-0.27138 2.4724-0.84435 6.3288-1.2733 8.5697-0.42891 2.2409-1.4107 7.4968-2.1817 11.68-0.77103 4.183-1.868 9.1944-2.4378 11.137-0.56973 1.9421-1.3323 4.9978-1.6946 6.7906-0.36231 1.7927-1.0041 4.0623-1.4261 5.0434-0.42205 0.98119-0.76735 2.288-0.76735 2.904 0 0.61602-0.33601 1.7689-0.74669 2.562-0.99379 1.9191-2.5188 6.6434-2.5155 7.7925 3e-3 0.89874-4.3904 9.781-5.4971 11.114-0.30827 0.37144-1.125 2.2908-1.8149 4.2652-1.4787 4.2318-7.2841 13.994-10.259 17.251-1.15 1.2591-2.6131 3.0264-3.2513 3.9273-1.6692 2.3564-11.674 12.109-14.079 13.724-1.1204 0.75237-2.0372 1.5503-2.0372 1.7731s-0.72146 0.70399-1.6032 1.0692c-0.88179 0.36524-1.9875 1.2505-2.4571 1.9673s-1.1694 1.3032-1.5551 1.3032c-0.38569 0-2.3006 1.0726-4.2554 2.3836-1.9548 1.311-5.577 3.3856-8.0494 4.6102-2.4724 1.2246-4.7754 2.459-5.1178 2.7432-0.34239 0.28416-3.0605 1.7875-6.0403 3.3407-11.522 6.0058-15.282 8.0062-17.641 9.3839-1.3445 0.78544-2.6966 1.431-3.0047 1.4346-0.30806 4e-3 -1.8834-2.2547-3.5008-5.0185z" fill="#65312b"/>
  <path d="m220.39 315.76c-10.854-18.19-17.926-25.679-27.894-29.539-3.2098-1.2429-11.176-1.7223-14.339-0.86293-2.4758 0.67259-1.6763-0.31093 2.0002-2.4605 8.385-4.9025 18.415-13.286 26.697-22.315 5.3498-5.832 5.2741-5.4762 3.2737-15.381-0.71643-3.5472-1.837-9.2608-2.4902-12.697-0.6532-3.436-1.7787-9.1808-2.5012-12.766-2.7056-13.428-5.0988-25.16-6.2057-30.422l-1.1428-5.4324-3.093-2.7996c-3.7303-3.3765-4.2048-2.138 5.4204-14.148 9.3691-11.69 11.525-13.681 17.562-16.213 9.2486-3.8786 21.458-11.585 21.458-13.543 0-0.59532-0.94454-0.82141-3.9385-0.94274l-3.9385-0.15961 2.173-1.3962c2.8773-1.8488 5.8214-2.9731 11.964-4.5691 7.891-2.0502 14.061-5.4754 22.394-12.431 12.628-10.541 24.575-25.284 43.376-53.53 8.679-13.039 9.1944-13.694 9.3495-11.89 0.1621 1.8852-1.1842 7.8163-4.2803 18.857-0.87334 3.1144-1.5879 6.2612-1.5879 6.9929 0 1.1551 0.11394 1.2359 0.86478 0.61272 2.0967-1.7401 13.145-23.016 17.286-33.288 3.3642-8.345 3.6233-12.836 0.69372-12.028-0.7912 0.21817-0.0679-0.75437 2.1611-2.9059 5.4403-5.2511 11.129-6.7182 17.137-4.4194 2.6083 0.99802 5.7838 3.0623 5.2582 3.4181-0.11702 0.07922-0.93858 0.38191-1.8257 0.67264-2.6896 0.88149-4.1212 3.5988-8.207 15.578-3.7904 11.113-8.2166 36.072-11.924 67.238-0.0889 0.74696-0.5471 4.2916-1.0183 7.877-0.91247 6.943-1.2647 9.7453-3.1067 24.718-0.64329 5.2287-1.3652 11.096-1.6042 13.038-2.2339 18.15-3.0176 23.679-3.4576 24.391-0.19423 0.31427-0.57518 2.5943-0.84657 5.0667-0.27138 2.4724-0.84435 6.3288-1.2733 8.5697-0.42891 2.2409-1.4107 7.4968-2.1817 11.68-0.77103 4.183-1.868 9.1944-2.4378 11.137-0.56973 1.9421-1.3323 4.9978-1.6946 6.7906-0.36231 1.7927-1.0041 4.0623-1.4261 5.0434-0.42205 0.98119-0.76735 2.288-0.76735 2.904 0 0.61602-0.33601 1.7689-0.74669 2.562-0.99379 1.9191-2.5188 6.6434-2.5155 7.7925 3e-3 0.89874-4.3904 9.781-5.4971 11.114-0.30827 0.37144-1.125 2.2908-1.8149 4.2652-1.4787 4.2318-7.2841 13.994-10.259 17.251-1.15 1.2591-2.6131 3.0264-3.2513 3.9273-1.6692 2.3564-11.674 12.109-14.079 13.724-1.1204 0.75237-2.0372 1.5503-2.0372 1.7731s-0.72146 0.70399-1.6032 1.0692c-0.88179 0.36524-1.9875 1.2505-2.4571 1.9673s-1.1694 1.3032-1.5551 1.3032c-0.38569 0-2.3006 1.0726-4.2554 2.3836-1.9548 1.311-5.577 3.3856-8.0494 4.6102-2.4724 1.2246-4.7754 2.459-5.1178 2.7432-0.34239 0.28416-3.0605 1.7875-6.0403 3.3407-11.522 6.0058-15.282 8.0062-17.641 9.3839-1.3445 0.78544-2.6909 1.431-2.9919 1.4346-0.301 4e-3 -2.9901-4.0872-5.9757-9.0906z" fill="#861c13"/>
  <path d="m217.28 310.3c-8.5533-12.993-14.277-18.929-21.873-22.686-2.0915-1.0344-5.2635-2.1462-7.0488-2.4707-2.9329-0.53308-9.0836-0.28831-10.973 0.43668-0.39612 0.15201-0.71552 0.0669-0.7098-0.18918 6e-3 -0.25606 1.5734-1.3794 3.4838-2.4963 8.385-4.9025 18.415-13.286 26.697-22.315 5.3498-5.832 5.2741-5.4762 3.2737-15.381-0.71643-3.5472-1.837-9.2608-2.4902-12.697-0.6532-3.436-1.7787-9.1808-2.5012-12.766-2.7056-13.428-5.0988-25.16-6.2057-30.422l-1.1428-5.4324-3.093-2.7996c-3.7303-3.3765-4.2048-2.138 5.4204-14.148 9.3691-11.69 11.525-13.681 17.562-16.213 9.2486-3.8786 21.458-11.585 21.458-13.543 0-0.59532-0.94454-0.82141-3.9385-0.94274l-3.9385-0.15961 2.173-1.3962c2.8773-1.8488 5.8214-2.9731 11.964-4.5691 7.891-2.0502 14.061-5.4754 22.394-12.431 12.628-10.541 24.575-25.284 43.376-53.53 8.679-13.039 9.1944-13.694 9.3495-11.89 0.1621 1.8852-1.1842 7.8163-4.2803 18.857-0.87334 3.1144-1.5879 6.2612-1.5879 6.9929 0 1.1551 0.11394 1.2359 0.86478 0.61272 2.0967-1.7401 13.145-23.016 17.286-33.288 3.3642-8.345 3.6233-12.836 0.69372-12.028-0.7912 0.21817-0.0679-0.75437 2.1611-2.9059 4.1722-4.0271 8.1762-5.7244 12.745-5.4025 1.6815 0.11847 3.7124 0.64462 4.5131 1.1692l1.4557 0.95383-1.4046 1.1048c-1.9209 1.511-3.3919 4.5694-5.5098 11.456-1.8516 6.0208-6.1168 24.465-8.6375 37.352-0.78897 4.0336-2.0567 10.39-2.8171 14.124-0.76043 3.7348-1.4833 7.4017-1.6064 8.1487-0.36734 2.2287-1.1871 6.4729-2.3083 11.951-0.58093 2.8385-1.5757 7.9721-2.2106 11.408-0.63491 3.436-1.4886 7.7141-1.8971 9.5068s-1.1417 5.2152-1.6293 7.6054c-0.48763 2.3903-1.2291 5.8127-1.6476 7.6054-0.41857 1.7927-1.5206 6.9264-2.449 11.408-0.92836 4.4818-2.1402 9.6154-2.6929 11.408s-1.2905 4.8172-1.6394 6.721c-0.3489 1.9038-0.9642 4.2262-1.3673 5.1608-0.6976 1.6174-1.2086 3.4926-3.4981 12.836-0.54911 2.2409-1.268 4.8077-1.5976 5.7041-1.3934 3.7897-4.4123 13.256-4.4123 13.836 0 0.34618-0.62459 1.9949-1.388 3.6638-0.76338 1.6689-1.5304 3.7923-1.7046 4.7186-0.17415 0.9263-1.1145 3.151-2.0896 4.9437-0.97512 1.7927-1.9483 4.1151-2.1627 5.1608-0.21436 1.0458-1.583 4.1235-3.0414 6.8394-1.4584 2.7159-2.6516 5.385-2.6516 5.9312 0 1.6446-7.0081 13.972-9.1702 16.131-1.1078 1.1061-3.1889 4.1039-4.6247 6.6618-1.4358 2.5579-3.073 4.9747-3.6383 5.3706-0.56529 0.39595-1.7731 1.7487-2.684 3.0062-1.804 2.4904-15.01 15.817-15.674 15.817-0.22483 0-1.3699 0.87896-2.5446 1.9532s-3.3688 2.7607-4.8756 3.7476c-1.5069 0.9869-3.0781 2.202-3.4915 2.7002-0.41346 0.49819-1.5029 1.285-2.4211 1.7484-0.91812 0.46342-2.1978 1.3253-2.8437 1.9153-0.64594 0.58997-2.6469 1.967-4.4466 3.0601-1.7997 1.0931-5.7888 3.5153-8.8647 5.3827-3.0759 1.8674-5.9641 3.3906-6.4183 3.3849-0.45416-6e-3 -2.7172-2.8835-5.0289-6.395z" fill="#65221d"/>
  <path d="m215.78 307.93c-8.2029-12.596-13.672-17.731-22.936-21.534-2.7712-1.1377-4.3279-1.405-8.3001-1.4252-2.6891-0.0136-5.5615 0.15782-6.3831 0.38104-2.4758 0.67259-1.6763-0.31093 2.0002-2.4605 12.137-7.0961 29.485-22.569 41.671-37.166 7.6162-9.1233 21.663-28.408 21.647-29.72-4e-3 -0.34037-4.5878-3.9452-10.186-8.0108-29.334-21.303-40.478-29.579-40.734-30.246-0.33658-0.87713 0.35562-1.8557 8.3447-11.797 8.6053-10.708 10.851-12.747 16.779-15.233 9.2486-3.8786 21.458-11.585 21.458-13.543 0-0.59532-0.94454-0.82141-3.9385-0.94274l-3.9385-0.15961 2.173-1.3962c2.8773-1.8488 5.8214-2.9731 11.964-4.5691 7.891-2.0502 14.061-5.4754 22.394-12.431 12.628-10.541 24.575-25.284 43.376-53.53 8.679-13.039 9.1944-13.694 9.3495-11.89 0.1621 1.8852-1.1842 7.8163-4.2803 18.857-0.87334 3.1144-1.5879 6.2612-1.5879 6.9929 0 1.1551 0.11394 1.2359 0.86478 0.61272 2.0967-1.7401 13.145-23.016 17.286-33.288 3.3642-8.345 3.6233-12.836 0.69372-12.028-0.7912 0.21817-0.0679-0.75437 2.1611-2.9059 4.3552-4.2038 8.0879-5.7119 12.882-5.2048 1.8284 0.19339 3.8884 0.7057 4.5778 1.1385l1.2536 0.78683-1.4046 1.1048c-1.9209 1.511-3.3919 4.5694-5.5098 11.456-1.8516 6.0208-6.1168 24.465-8.6375 37.352-0.78897 4.0336-2.0567 10.39-2.8171 14.124-0.76043 3.7348-1.4833 7.4017-1.6064 8.1487-0.36734 2.2287-1.1871 6.4729-2.3083 11.951-0.58093 2.8385-1.5757 7.9721-2.2106 11.408-0.63491 3.436-1.4886 7.7141-1.8971 9.5068s-1.1417 5.2152-1.6293 7.6054c-0.48763 2.3903-1.2291 5.8127-1.6476 7.6054-0.41857 1.7927-1.5206 6.9264-2.449 11.408-0.92836 4.4818-2.1402 9.6154-2.6929 11.408s-1.2905 4.8172-1.6394 6.721c-0.3489 1.9038-0.9642 4.2262-1.3673 5.1608-0.6976 1.6174-1.2086 3.4926-3.4981 12.836-0.54911 2.2409-1.268 4.8077-1.5976 5.7041-1.3934 3.7897-4.4123 13.256-4.4123 13.836 0 0.34618-0.62459 1.9949-1.388 3.6638-0.76338 1.6689-1.5304 3.7923-1.7046 4.7186-0.17415 0.9263-1.1145 3.151-2.0896 4.9437-0.97512 1.7927-1.9483 4.1151-2.1627 5.1608-0.21436 1.0458-1.583 4.1235-3.0414 6.8394-1.4584 2.7159-2.6516 5.385-2.6516 5.9312 0 1.6446-7.0081 13.972-9.1702 16.131-1.1078 1.1061-3.1889 4.1039-4.6247 6.6618-1.4358 2.5579-3.073 4.9747-3.6383 5.3706-0.56529 0.39595-1.7731 1.7487-2.684 3.0062-1.804 2.4904-15.01 15.817-15.674 15.817-0.22483 0-1.3699 0.87896-2.5446 1.9532s-3.3688 2.7607-4.8756 3.7476c-1.5069 0.9869-3.0781 2.202-3.4915 2.7002-0.41346 0.49819-1.5029 1.285-2.4211 1.7484-0.91812 0.46342-2.1978 1.3253-2.8437 1.9153-0.64594 0.58997-2.6469 1.967-4.4466 3.0601-1.7997 1.0931-5.7888 3.5153-8.8647 5.3827-3.0759 1.8674-5.9641 3.3924-6.4183 3.389-0.4654-4e-3 -3.3149-3.8286-6.5298-8.7652z" fill="#771813"/>
  <path d="m214.32 304.63c-0.92872-0.97511-2.9457-3.3619-4.4821-5.304-5.6791-7.1785-14.324-12.887-21.477-14.181-2.9316-0.5304-9.0881-0.28386-10.973 0.4394-0.39612 0.15201-0.71552 0.0669-0.7098-0.18918 6e-3 -0.25606 1.5734-1.3794 3.4838-2.4963 12.137-7.0961 29.485-22.569 41.671-37.166 7.6162-9.1233 21.663-28.408 21.647-29.72-4e-3 -0.34037-4.5878-3.9452-10.186-8.0108-29.334-21.303-40.478-29.579-40.734-30.246-0.33658-0.87713 0.35562-1.8557 8.3447-11.797 8.6053-10.708 10.851-12.747 16.779-15.233 9.2486-3.8786 21.458-11.585 21.458-13.543 0-0.59532-0.94454-0.82141-3.9385-0.94274l-3.9385-0.15961 2.173-1.3962c2.8773-1.8488 5.8214-2.9731 11.964-4.5691 7.891-2.0502 14.061-5.4754 22.394-12.431 12.628-10.541 24.575-25.284 43.376-53.53 8.679-13.039 9.1944-13.694 9.3495-11.89 0.1621 1.8852-1.1842 7.8163-4.2803 18.857-0.87334 3.1144-1.5879 6.2612-1.5879 6.9929 0 1.1551 0.11394 1.2359 0.86478 0.61272 2.0967-1.7401 13.145-23.016 17.286-33.288 3.3642-8.345 3.6233-12.836 0.69372-12.028-0.7912 0.21817-0.0679-0.75437 2.1611-2.9059 4.2164-4.0698 8.2622-5.7753 12.383-5.22 1.5056 0.20293 2.9218 0.47827 3.1471 0.61187 0.22529 0.1336-0.18513 1.0226-0.91203 1.9757-3.1388 4.1152-4.9438 10.011-14.169 46.278-7.07 27.795-9.4864 36.906-10.048 37.884-0.29789 0.51882-0.54321 1.3744-0.54517 1.9014-3e-3 0.91301-2.9328 12.013-3.6218 13.724-0.1805 0.44818-0.37408 1.1816-0.43017 1.6297-0.11693 0.93424-1.2404 4.639-1.8945 6.2473-0.24302 0.59757-0.85456 2.9665-1.359 5.2643-0.50441 2.2978-1.1621 4.2594-1.4615 4.3592s-0.64419 1.2179-0.76621 2.4847c-0.12201 1.2668-0.56692 2.972-0.98869 3.7894-0.42176 0.81741-1.1932 3.1974-1.7144 5.2889-0.52114 2.0915-1.6062 5.6362-2.4113 7.8771-0.80508 2.2409-2.1771 6.2545-3.049 8.9191-0.87186 2.6646-1.9064 5.1685-2.2991 5.5643-0.39263 0.39575-0.64901 1.1492-0.56972 1.6742 0.0793 0.52506-0.40676 2.4214-1.0801 4.2141-3.0779 8.1948-5.7278 14.903-6.925 17.532-0.71753 1.5752-1.3046 3.2079-1.3046 3.6281 0 0.42022-0.38415 1.1482-0.85367 1.6177-0.46951 0.46952-0.72743 0.85367-0.57314 0.85367 0.33833 0-1.2159 3.553-5.2875 12.087-1.6749 3.5107-3.3084 6.3831-3.63 6.3831-0.32159 0-0.46991 0.18577-0.32959 0.41281 0.32923 0.53271-0.90691 3.4756-1.8902 4.5-1.3615 1.4185-2.7311 3.8474-2.9974 5.3159-0.1434 0.79079-0.81382 2.1742-1.4898 3.0742-0.67601 0.90001-2.506 4.0109-4.0666 6.9131s-3.6962 6.3045-4.7457 7.5607-2.2927 3.0375-2.7626 3.9584c-0.46995 0.92097-1.8024 2.711-2.9609 3.9779s-2.5145 3.159-3.0131 4.2046c-0.49865 1.0457-1.3515 2.0424-1.8951 2.215-0.54367 0.17255-0.9885 0.52717-0.9885 0.78803 0 0.46731-3.601 4.4442-11.213 12.384-2.22 2.3155-4.1371 3.8871-4.4818 3.6741-0.33417-0.20653-0.60226-0.0246-0.60226 0.40872 0 0.42952-1.4003 1.9718-3.1118 3.4273-1.7115 1.4555-3.4838 2.9759-3.9385 3.3786-2.7384 2.425-15.947 11.695-18.504 12.987-0.16155 0.0816-1.0536-0.64945-1.9823-1.6246z" fill="#3c2a2a"/>
  <path d="m214.1 304.35c-1.0518-1.124-2.8636-3.2659-4.0262-4.7598-4.4574-5.7275-11.624-11.289-17.899-13.89-2.4943-1.0338-3.0149-1.4788-3.0149-2.5772 0-1.2502-0.12989-1.3068-2.23-0.97098-1.2265 0.19612-2.9604 0.73431-3.8532 1.196-2.8572 1.4775-2.1565 0.49212 1.6096-2.2636 14.673-10.736 31.833-27.939 44.541-44.652 6.543-8.605 14.259-19.666 14.25-20.426-4e-3 -0.34037-4.5878-3.9452-10.186-8.0108-29.099-21.133-40.477-29.575-40.722-30.215-0.28522-0.74327 8.7699-12.262 11.888-15.123 1.052-0.96511 3.8703-2.4195 6.7041-3.4597 15.786-5.7944 32.857-16.319 47.106-29.043 12.113-10.816 22.883-22.576 39.357-42.973 9.8479-12.193 13.267-16.026 14.299-16.026 1.3799 0 0.0946 5.2954-5.121 21.098-2.8545 8.6489-5.1899 15.904-5.1899 16.122s0.35495 0.10207 0.78878-0.25798c2.4234-2.0112 14.06-24.266 24.156-46.197 10.117-21.978 12.053-27.376 10.951-30.538-0.73972-2.122-0.30522-2.6681 3.6702-4.6131 2.346-1.1478 3.7757-1.4784 6.1572-1.4236 4.1582 0.09559 4.539 0.42213 2.9388 2.5201-3.1388 4.1152-4.9438 10.011-14.169 46.278-7.07 27.795-9.4864 36.906-10.048 37.884-0.29789 0.51882-0.54321 1.3744-0.54517 1.9014-3e-3 0.91301-2.9328 12.013-3.6218 13.724-0.1805 0.44818-0.37408 1.1816-0.43017 1.6297-0.11693 0.93424-1.2404 4.639-1.8945 6.2473-0.24302 0.59757-0.85456 2.9665-1.359 5.2643-0.50441 2.2978-1.1621 4.2594-1.4615 4.3592s-0.64419 1.2179-0.76621 2.4847c-0.12201 1.2668-0.56692 2.972-0.98869 3.7894-0.42176 0.81741-1.1932 3.1974-1.7144 5.2889-0.52114 2.0915-1.6062 5.6362-2.4113 7.8771-0.80508 2.2409-2.1771 6.2545-3.049 8.9191-0.87186 2.6646-1.9064 5.1685-2.2991 5.5643-0.39263 0.39575-0.64901 1.1492-0.56972 1.6742 0.0793 0.52506-0.40676 2.4214-1.0801 4.2141-3.0779 8.1948-5.7278 14.903-6.925 17.532-0.71753 1.5752-1.3046 3.2079-1.3046 3.6281 0 0.42022-0.38415 1.1482-0.85367 1.6177-0.46951 0.46952-0.72743 0.85367-0.57314 0.85367 0.33833 0-1.2159 3.553-5.2875 12.087-1.6749 3.5107-3.3084 6.3831-3.63 6.3831-0.32159 0-0.46991 0.18577-0.32959 0.41281 0.32923 0.53271-0.90691 3.4756-1.8902 4.5-1.3615 1.4185-2.7311 3.8474-2.9974 5.3159-0.1434 0.79079-0.81382 2.1742-1.4898 3.0742-0.67601 0.90001-2.506 4.0109-4.0666 6.9131s-3.6962 6.3045-4.7457 7.5607-2.2927 3.0375-2.7626 3.9584c-0.46995 0.92097-1.8024 2.711-2.9609 3.9779s-2.5145 3.159-3.0131 4.2046c-0.49865 1.0457-1.3515 2.0424-1.8951 2.215-0.54367 0.17255-0.9885 0.52717-0.9885 0.78803 0 0.46731-3.601 4.4442-11.213 12.384-2.22 2.3155-4.1371 3.8871-4.4818 3.6741-0.33417-0.20653-0.60226-0.0246-0.60226 0.40872 0 0.42952-1.4003 1.9718-3.1118 3.4273-1.7115 1.4555-3.4838 2.9759-3.9385 3.3786-2.7354 2.4224-15.927 11.681-18.502 12.986-0.15999 0.0811-1.1514-0.7722-2.2032-1.8962z" fill="#671512"/>
  <path d="m205.45 294.38c-3.4714-3.1117-9.7501-7.2139-13.282-8.678-2.4943-1.0338-3.0149-1.4788-3.0149-2.5772 0-1.2502-0.12989-1.3068-2.23-0.97098-1.2265 0.19612-2.9604 0.73431-3.8532 1.196-2.8572 1.4775-2.1565 0.49212 1.6096-2.2636 14.673-10.736 31.833-27.939 44.541-44.652 6.543-8.605 14.259-19.666 14.25-20.426-4e-3 -0.34037-4.5878-3.9452-10.186-8.0108-29.099-21.133-40.477-29.575-40.722-30.215-0.28522-0.74327 8.7699-12.262 11.888-15.123 1.052-0.96511 3.8703-2.4195 6.7041-3.4597 15.786-5.7944 32.857-16.319 47.106-29.043 12.113-10.816 22.883-22.576 39.357-42.973 9.8479-12.193 13.267-16.026 14.299-16.026 1.3799 0 0.0946 5.2954-5.121 21.098-2.8545 8.6489-5.1899 15.904-5.1899 16.122s0.35495 0.10207 0.78878-0.25798c2.4234-2.0112 14.06-24.266 24.156-46.197 10.099-21.939 12.052-27.379 10.957-30.52-0.70786-2.0306-0.5674-2.2713 2.2897-3.9252 2.7596-1.5973 6.5829-2.6688 7.9616-2.2312 0.96183 0.30527 0.95015 0.42949-0.24526 2.6085-2.0188 3.68-4.7242 11.471-10.321 29.722-13.576 44.269-26.586 83.391-31.795 95.611-0.57322 1.3445-2.274 5.6816-3.7795 9.638-1.5055 3.9563-3.2181 8.2344-3.8057 9.5068-0.58767 1.2724-2.2724 5.1248-3.7439 8.5608-5.4268 12.672-8.2024 18.616-13.505 28.918-6.5302 12.688-9.0863 17.075-17.799 30.554-1.4939 2.311-3.2051 4.9848-3.8027 5.9419-1.4084 2.2556-9.2366 12.557-10.353 13.624-0.31583 0.30178-1.2731 1.5023-2.1273 2.6678-2.787 3.8027-15.625 16.658-22.016 22.047-6.4748 5.4587-15.248 11.972-16.088 11.944-0.26468-9e-3 -1.5813-1.0023-2.9258-2.2076z" fill="#501211"/>
  <path d="m194.47 286.92c-4.4754-2.1454-5.2857-2.7305-5.2966-3.8246-0.012-1.207-0.15915-1.2684-2.2429-0.93514-1.2265 0.19612-2.9604 0.73431-3.8532 1.196-2.8572 1.4775-2.1565 0.49212 1.6096-2.2636 19.378-14.179 37.174-32.783 54.011-56.462 5.1908-7.3005 6.0598-8.7666 5.6189-9.48-0.26732-0.43254-13.471-10.027-43.34-31.492-4.7059-3.3818-8.5561-6.2792-8.5561-6.4386 0-0.53526 10.202-12.871 12.038-14.555 1.052-0.96511 3.8703-2.4195 6.7041-3.4597 15.786-5.7944 32.857-16.319 47.106-29.043 12.113-10.816 22.883-22.576 39.357-42.973 9.8479-12.193 13.267-16.026 14.299-16.026 1.3799 0 0.0946 5.2954-5.121 21.098-2.8545 8.6489-5.1899 15.904-5.1899 16.122s0.35495 0.10207 0.78878-0.25798c2.4234-2.0112 14.06-24.266 24.156-46.197 10.117-21.978 12.053-27.376 10.951-30.538-0.41717-1.1967-0.41601-1.8762 4e-3 -2.3823 0.88204-1.0625 5.9751-3.477 7.3345-3.477 1.1602 0 1.1391 0.11916-0.84483 4.7534-2.2541 5.2655-4.5589 11.688-12.135 33.817-2.8132 8.2166-5.7411 16.528-6.5065 18.47-0.7654 1.9421-1.6255 4.3867-1.9114 5.4325s-1.6488 4.7684-3.0288 8.2724c-1.38 3.5041-2.509 6.6226-2.509 6.93s-0.82874 2.6963-1.8416 5.3087c-6.1765 15.93-7.5941 19.491-9.0427 22.72-0.88565 1.974-1.6151 3.8718-1.6209 4.2174-6e-3 0.34563-1.1301 3.1952-2.4982 6.3325-5.4988 12.609-6.3812 14.657-9.1292 21.187-5.0243 11.938-15.576 33.691-17.392 35.854-0.37631 0.44818-1.7379 2.7706-3.0257 5.1608s-3.4944 6.3187-4.9035 8.7298c-1.4091 2.4111-2.7327 4.9217-2.9414 5.5791-0.20865 0.65742-1.2535 2.3405-2.3219 3.7402-1.0684 1.3997-3.5119 5.1082-5.43 8.2412-1.9181 3.133-3.795 5.9554-4.171 6.272-0.94935 0.79951-4.6737 6.1785-4.6737 6.7501 0 0.25735-0.60248 1.0704-1.3388 1.8068-0.73637 0.73636-2.5683 2.9087-4.071 4.8275-1.5027 1.9188-3.5619 4.3442-4.5759 5.39-1.0141 1.0458-2.0545 2.308-2.3121 2.8051-0.84775 1.6359-10.778 11.574-17.363 17.378-8.3202 7.3325-17.605 14.15-19.06 13.994-0.24373-0.0261-2.8208-1.1873-5.7269-2.5804z" fill="#3d1415"/>
  <path d="m198.5 288.44c-0.65391-0.6092-1.1889-1.2258-1.1889-1.3702 0-0.14442 0.94156-1.2961 2.0924-2.5592 1.9654-2.1573 10.373-12.631 15.835-19.725 1.3445-1.7464 3.9223-4.8956 5.7284-6.998 1.8061-2.1025 5.1979-6.634 7.5372-10.07 2.3394-3.436 4.9822-7.1029 5.873-8.1487 1.7363-2.0384 11.316-16.451 14.804-22.273 1.1636-1.9421 3.1341-5.1201 4.3791-7.0622s2.7932-4.5089 3.4406-5.7041c0.64739-1.1951 1.8442-3.301 2.6596-4.6797 0.8154-1.3787 3.6531-6.5124 6.306-11.408 2.6529-4.8958 5.2106-9.5126 5.6837-10.26 2.9196-4.6095 38.656-76.952 38.656-78.253 0-0.24101 1.4364-3.4506 3.1919-7.1325 2.9437-6.1737 4.3872-9.3629 9.6693-21.362 1.0522-2.3903 2.5992-5.8127 3.4379-7.6054 0.83862-1.7927 2.5475-5.5818 3.7975-8.4203 1.25-2.8385 2.4956-5.3931 2.7678-5.6769 0.27229-0.28384 0.49507-0.83482 0.49507-1.2244s1.0684-2.9686 2.3743-5.7312c1.3059-2.7626 2.8061-6.3675 3.334-8.0108 1.3734-4.2762 2.7405-6.792 4.3999-8.0973 0.79559-0.62581 1.6304-1.1378 1.8552-1.1378 0.22475 0-0.50708 2.139-1.6263 4.7534-2.2541 5.2655-4.5589 11.688-12.135 33.817-2.8132 8.2166-5.7411 16.528-6.5065 18.47-0.7654 1.9421-1.6255 4.3867-1.9114 5.4325s-1.6488 4.7684-3.0288 8.2724c-1.38 3.5041-2.509 6.6226-2.509 6.93s-0.82874 2.6963-1.8416 5.3087c-6.1765 15.93-7.5941 19.491-9.0427 22.72-0.88565 1.974-1.6151 3.8718-1.6209 4.2174-6e-3 0.34563-1.1301 3.1952-2.4982 6.3325-5.4988 12.609-6.3812 14.657-9.1292 21.187-5.0243 11.938-15.576 33.691-17.392 35.854-0.37631 0.44818-1.7379 2.7706-3.0257 5.1608s-3.4944 6.3187-4.9035 8.7298c-1.4091 2.4111-2.7327 4.9217-2.9414 5.5791-0.20865 0.65742-1.2535 2.3405-2.3219 3.7402-1.0684 1.3997-3.5119 5.1082-5.43 8.2412-1.9181 3.133-3.795 5.9554-4.171 6.272-0.94935 0.79951-4.6737 6.1785-4.6737 6.7501 0 0.25735-0.60248 1.0704-1.3388 1.8068-0.73637 0.73636-2.5683 2.9087-4.071 4.8275-1.5027 1.9188-3.5619 4.3442-4.5759 5.39-1.0141 1.0458-2.0545 2.308-2.3121 2.8051-0.84775 1.6359-10.778 11.574-17.363 17.378-8.2484 7.2692-17.457 14.041-19.093 14.041-0.26209 0-1.0115-0.49845-1.6654-1.1077zm28.717-85.876c-9.0979-6.5853-17.287-12.569-18.199-13.297-0.91139-0.72782-1.9015-1.5051-2.2003-1.7274-5.2417-3.8986-6.7906-5.2996-6.7906-6.1419 0-0.74941 7.9822-1.5923 17.112-1.8069 1.1951-0.0281 2.3685-0.35666 2.6074-0.73014 0.54015-0.84431 2.259-0.87488 3.7684-0.067 0.9295 0.49746 1.2745 0.43295 1.8431-0.34466 0.55468-0.75856 1.1542-0.88397 2.895-0.6056 1.3499 0.21586 2.1955 0.13938 2.1955-0.19859 0-0.30231 1.2137-0.54966 2.6971-0.54966 2.1904 0 2.8127-0.21597 3.3123-1.1495 0.54364-1.0158 0.92563-1.1083 3.2846-0.79536 2.5227 0.33465 2.6992 0.27586 3.2108-1.0697 0.51837-1.3634 0.69074-1.4161 4.0638-1.2418 3.4 0.17565 3.5401 0.1314 4.0282-1.2724 0.5378-1.5467 0.53557-1.546 8.4669-2.3814 3.5158-0.3703 4.6176-0.93714 4.6176-2.3756 0-1.5124 2.0689-3.2954 3.8239-3.2954 1.4734 0 1.6086 0.1583 1.6086 1.8843 0 1.4518 0.18706 1.8125 0.81487 1.5716 0.52548-0.20165 0.81486 0.0121 0.81486 0.60192 0 0.80507-7.2175 15.264-10.177 20.388-0.60402 1.0457-1.9385 3.3681-2.9656 5.1608-2.9865 5.2129-11.887 19.467-12.806 20.508-0.46155 0.52287-0.98464 0.94121-1.1624 0.92962-0.17778-0.0116-7.767-5.4091-16.865-11.994z" fill="#3e0f11"/>
 </g>
</svg>
