<svg xmlns="http://www.w3.org/2000/svg" viewBox="0 0 600 375.65"><g fill="#535556"><path d="M124.55 98.838a11.578 11.578 0 01-3.633 8.468 12.07 12.07 0 01-8.868 3.54 12.563 12.563 0 01-8.468-3.633c-8.89-8.89-23.495-12.453-33.039-12.409-14.513 0-25.864 4.968-34.055 14.903-8.19 9.935-12.296 24.038-12.316 42.308v131.08a10.87 10.87 0 01-3.818 9.083 13.117 13.117 0 01-8.252 3.08 13.118 13.118 0 01-8.252-3.08 10.839 10.839 0 01-3.819-9.083v-131.08a109.066 109.066 0 014.434-31.622 75.831 75.831 0 0113.302-25.772A63.645 63.645 0 0139.72 76.978a69.067 69.067 0 0130.791-6.435 76.981 76.981 0 0126.604 5.234 64.311 64.311 0 0123.37 14.503 11.978 11.978 0 014.065 8.56zM184.96 283.09a10.869 10.869 0 01-3.818 9.083 12.778 12.778 0 01-16.535 0 10.838 10.838 0 01-3.818-9.083V86.74a10.869 10.869 0 013.818-9.083 12.809 12.809 0 0116.535 0 10.9 10.9 0 013.818 9.083zM394.54 283.09a10.869 10.869 0 01-3.849 9.083 12.778 12.778 0 01-16.504 0 10.838 10.838 0 01-3.818-9.083V149.21a52.962 52.962 0 00-4.25-21.154 54.716 54.716 0 00-29.004-29.005 55.022 55.022 0 00-42.308 0 54.746 54.746 0 00-29.005 29.005 53.178 53.178 0 00-4.219 21.154v133.88a10.838 10.838 0 01-3.818 9.083 12.778 12.778 0 01-16.535 0 10.838 10.838 0 01-3.818-9.083V149.21a76.456 76.456 0 016.158-30.637 79.071 79.071 0 0116.72-25.002 80.058 80.058 0 0124.632-16.719 78.731 78.731 0 0161.583 0 77.287 77.287 0 0141.692 41.692 76.637 76.637 0 016.159 30.637zM600 297.19a76.24 76.24 0 01-6.158 30.791 77.846 77.846 0 01-41.782 41.507 76.7 76.7 0 01-30.637 6.158 92.514 92.514 0 01-17.736-1.816 101.245 101.245 0 01-18.475-5.45 79.604 79.604 0 01-16.904-9.238 50.505 50.505 0 01-12.686-12.9 11.515 11.515 0 01-2.002-6.867 11.055 11.055 0 013.818-8.652 12.593 12.593 0 018.653-3.449c1.721.025 3.424.368 5.019 1.016a9.793 9.793 0 014.65 4.219c4.788 7.211 15.122 12.919 21.953 15.118a76.294 76.294 0 0023.555 3.849 53.025 53.025 0 0021.154-4.25 54.713 54.713 0 0029.005-29.005 52.871 52.871 0 004.403-21.03V269.48a78.3 78.3 0 01-24.633 15.92 77.22 77.22 0 01-29.806 5.85 76.145 76.145 0 01-30.79-6.159 78.43 78.43 0 01-41.508-41.507 76.023 76.023 0 01-6.158-30.79v-63.584a76.45 76.45 0 016.158-30.637 78.861 78.861 0 0116.72-25.002 80.058 80.058 0 0124.632-16.719 78.734 78.734 0 0161.583 0 77.26 77.26 0 0141.692 41.692 76.641 76.641 0 016.159 30.637v148.01zm-24.171-147.98a52.958 52.958 0 00-4.25-21.154 54.713 54.713 0 00-29.004-29.005 55.025 55.025 0 00-42.308 0 54.775 54.775 0 00-29.128 28.974 53.36 53.36 0 00-4.219 21.154v63.277a53.321 53.321 0 004.219 21.307 54.832 54.832 0 0011.7 17.335 54.293 54.293 0 0017.336 11.67 55.025 55.025 0 0042.308 0 54.713 54.713 0 0029.005-29.005 52.93 52.93 0 004.341-21.307z"/></g><circle cx="172.89" cy="20.661" r="20.661" fill="#1c9ad6"/></svg>