<svg xmlns:xlink="http://www.w3.org/1999/xlink" xmlns="http://www.w3.org/2000/svg" viewBox="0 0 140 54" fill="none">
<path d="M19.3065 11.4615C29.5344 11.4615 37.8257 18.3301 37.8257 26.8025C37.8257 31.7425 35.0044 36.1342 30.6267 38.9396C30.3498 39.1171 30.251 39.4651 30.4063 39.7496L31.8977 42.4808C32.1601 42.9616 31.7021 43.5135 31.1625 43.3667L24.5957 41.5836C24.4942 41.5558 24.3881 41.5545 24.2851 41.5779C22.7004 41.9439 21.0324 42.1432 19.3065 42.1432C9.07898 42.1432 0.78772 35.275 0.78772 26.8025C0.78772 18.3301 9.07898 11.4615 19.3065 11.4615" fill="url(#paint0_linear_1256_8484)"/>
<path fill-rule="evenodd" clip-rule="evenodd" d="M7.68301 25.6392L7.40139 26.0999C7.34155 26.1979 7.37705 26.3228 7.4805 26.3793L9.42173 27.4374L7.4805 28.4959C7.37705 28.5524 7.34155 28.6773 7.40139 28.7753L7.68301 29.236C7.74285 29.334 7.87504 29.3672 7.97882 29.311L9.91971 28.2526V30.3695C9.91971 30.4825 10.0167 30.5742 10.1364 30.5742H10.6996C10.819 30.5742 10.916 30.4825 10.916 30.3695V28.2523L12.8576 29.311C12.961 29.3672 13.0936 29.334 13.1534 29.236L13.435 28.7753C13.4945 28.6773 13.459 28.5524 13.3556 28.4959L11.4143 27.4374L13.3556 26.3793C13.459 26.3228 13.4945 26.1979 13.435 26.0999L13.1534 25.6392C13.0936 25.5412 12.961 25.508 12.8576 25.5641L10.916 26.6229V24.5057C10.916 24.3927 10.819 24.301 10.6996 24.301H10.1364C10.0167 24.301 9.91971 24.3927 9.91971 24.5057V26.6226L7.97882 25.5641C7.87504 25.508 7.74285 25.5412 7.68301 25.6392ZM15.7315 26.0999L16.0127 25.6392C16.0726 25.5412 16.2051 25.508 16.3085 25.5642L18.2498 26.6226V24.5057C18.2498 24.3927 18.3465 24.301 18.4665 24.301H19.0297C19.149 24.301 19.2461 24.3927 19.2461 24.5057V26.6229L21.1876 25.5642C21.2911 25.508 21.4236 25.5412 21.4835 25.6392L21.7651 26.0999C21.8246 26.198 21.7891 26.3228 21.6853 26.3793L19.7444 27.4374L21.6853 28.4959C21.7891 28.5524 21.8246 28.6773 21.7651 28.7753L21.4835 29.236C21.4236 29.334 21.2911 29.3673 21.1876 29.3111L19.2461 28.2523V30.3695C19.2461 30.4825 19.149 30.5742 19.0297 30.5742H18.4665C18.3465 30.5742 18.2498 30.4825 18.2498 30.3695V28.2526L16.3085 29.3111C16.2051 29.3673 16.0726 29.334 16.0127 29.236L15.7315 28.7753C15.6716 28.6773 15.7071 28.5524 15.8106 28.4959L17.7518 27.4374L15.8106 26.3793C15.7071 26.3228 15.6716 26.198 15.7315 26.0999ZM24.0611 26.0999L24.3423 25.6392C24.4022 25.5412 24.5344 25.508 24.6382 25.5642L26.5794 26.6226V24.5057C26.5794 24.3927 26.6761 24.301 26.7957 24.301H27.3593C27.4787 24.301 27.5757 24.3927 27.5757 24.5057V26.6229L29.5173 25.5642C29.6207 25.508 29.7532 25.5412 29.8131 25.6392L30.0943 26.0999C30.1538 26.198 30.1187 26.3228 30.0149 26.3793L28.074 27.4374L30.0149 28.4959C30.1187 28.5524 30.1538 28.6773 30.0943 28.7753L29.8131 29.236C29.7532 29.334 29.6207 29.3673 29.5173 29.3111L27.5757 28.2523V30.3695C27.5757 30.4825 27.4787 30.5742 27.3593 30.5742H26.7957C26.6761 30.5742 26.5794 30.4825 26.5794 30.3695V28.2526L24.6382 29.3111C24.5344 29.3673 24.4022 29.334 24.3423 29.236L24.0611 28.7753C24.0012 28.6773 24.0367 28.5524 24.1402 28.4959L26.0814 27.4374L24.1402 26.3793C24.0367 26.3228 24.0012 26.198 24.0611 26.0999Z" fill="white"/>
<path fill-rule="evenodd" clip-rule="evenodd" d="M55.814 29.4167C56.0445 29.4167 56.2513 29.5076 56.4343 29.6894C56.6174 29.8712 56.7089 30.0832 56.7089 30.3256C56.7089 30.6757 56.492 31.0123 56.0581 31.3354C55.6242 31.6585 55.0954 31.9211 54.4717 32.1231C53.848 32.325 53.2786 32.426 52.7633 32.426C51.9363 32.426 51.2651 32.3452 50.7499 32.1836C50.2347 32.0221 49.6991 31.7865 49.1432 31.4768C48.7229 31.2479 48.3771 31.0829 48.106 30.982C47.8348 30.881 47.5162 30.8305 47.1501 30.8305C46.9874 30.8305 46.8348 30.8541 46.6925 30.9012C46.5501 30.9483 46.4111 31.0055 46.2755 31.0728C45.9501 31.2344 45.6451 31.3152 45.3603 31.3152C45.1027 31.3152 44.8824 31.2176 44.6994 31.0224C44.5163 30.8271 44.4248 30.6083 44.4248 30.366C44.4248 29.9486 44.6078 29.6726 44.9739 29.5379L47.2518 28.7099C46.1535 28.5214 45.1773 28.0905 44.3231 27.4173C43.4689 26.7441 42.8045 25.8959 42.33 24.8726C41.8554 23.8493 41.6182 22.7385 41.6182 21.5402C41.6182 20.1803 41.9131 18.9483 42.5029 17.8442C43.0927 16.7402 43.9096 15.8684 44.9536 15.2288C45.9976 14.5892 47.1772 14.2695 48.4924 14.2695C49.8076 14.2695 50.9872 14.5892 52.0312 15.2288C53.0752 15.8684 53.8921 16.7402 54.4819 17.8442C55.0717 18.9483 55.3666 20.1803 55.3666 21.5402C55.3666 22.725 55.1395 23.8156 54.6853 24.812C54.2311 25.8083 53.5972 26.6431 52.7837 27.3163C51.9702 27.9895 51.0346 28.4339 49.977 28.6493L48.4314 29.2148C48.7703 29.2552 49.0788 29.3326 49.3567 29.447C49.6347 29.5615 49.9703 29.7197 50.3635 29.9217C50.8516 30.164 51.2787 30.3491 51.6448 30.4771C52.0108 30.605 52.4176 30.6689 52.865 30.6689C53.2582 30.6689 53.5972 30.6151 53.8819 30.5073C54.1667 30.3996 54.4378 30.2515 54.6954 30.063C54.8039 29.9822 54.9293 29.8846 55.0717 29.7702C55.2141 29.6557 55.3429 29.5682 55.4581 29.5076C55.5734 29.447 55.692 29.4167 55.814 29.4167ZM43.7127 21.5402C43.7127 22.55 43.9161 23.4622 44.3228 24.2768C44.7296 25.0914 45.2956 25.7309 46.021 26.1954C46.7464 26.6599 47.5701 26.8922 48.4921 26.8922C49.4141 26.8922 50.2378 26.6599 50.9631 26.1954C51.6885 25.7309 52.2546 25.0914 52.6614 24.2768C53.0681 23.4622 53.2715 22.55 53.2715 21.5402C53.2715 20.5303 53.0681 19.6181 52.6614 18.8035C52.2546 17.989 51.6885 17.3494 50.9631 16.8849C50.2378 16.4204 49.4141 16.1881 48.4921 16.1881C47.5701 16.1881 46.7464 16.417 46.021 16.8748C45.2956 17.3326 44.7296 17.9688 44.3228 18.7834C43.9161 19.5979 43.7127 20.5169 43.7127 21.5402ZM65.6374 18.026C65.9221 18.026 66.156 18.1202 66.339 18.3087C66.5221 18.4972 66.6136 18.7261 66.6136 18.9954V24.3676C66.6136 25.7679 66.2238 26.8551 65.4442 27.6293C64.6646 28.4035 63.5629 28.7906 62.1393 28.7906C60.7292 28.7906 59.6377 28.4035 58.8649 27.6293C58.092 26.8551 57.7056 25.7679 57.7056 24.3676V18.9954C57.7056 18.7261 57.7971 18.4972 57.9802 18.3087C58.1632 18.1202 58.3903 18.026 58.6615 18.026C58.9462 18.026 59.1801 18.1202 59.3631 18.3087C59.5462 18.4972 59.6377 18.7261 59.6377 18.9954V24.3676C59.6377 26.1315 60.4715 27.0134 62.1393 27.0134C62.9663 27.0134 63.5968 26.7912 64.0307 26.3469C64.4646 25.9026 64.6815 25.2428 64.6815 24.3676V18.9954C64.6815 18.7261 64.773 18.4972 64.9561 18.3087C65.1391 18.1202 65.3662 18.026 65.6374 18.026ZM71.3316 27.6394C71.3316 27.9087 71.2401 28.1376 71.0571 28.3261C70.874 28.5146 70.6402 28.6089 70.3554 28.6089C70.0842 28.6089 69.8571 28.5146 69.6741 28.3261C69.4911 28.1376 69.3995 27.9087 69.3995 27.6394V18.8944C69.3995 18.6251 69.4911 18.3962 69.6741 18.2077C69.8571 18.0192 70.0842 17.925 70.3554 17.925C70.6402 17.925 70.874 18.0192 71.0571 18.2077C71.2401 18.3962 71.3316 18.6251 71.3316 18.8944V27.6394ZM70.3555 16.592C69.9623 16.592 69.681 16.5213 69.5115 16.38C69.342 16.2386 69.2573 16.0131 69.2573 15.7034V15.3803C69.2573 15.0571 69.3488 14.8282 69.5318 14.6936C69.7149 14.5589 69.9962 14.4916 70.3758 14.4916C70.7555 14.4916 71.03 14.5623 71.1995 14.7037C71.369 14.8451 71.4537 15.0706 71.4537 15.3803V15.7034C71.4537 16.0265 71.3656 16.2554 71.1894 16.3901C71.0131 16.5247 70.7351 16.592 70.3555 16.592ZM78.755 17.7836C79.8262 17.7836 80.7176 17.9519 81.4295 18.2885C82.1413 18.6251 82.4972 19.056 82.4972 19.5811C82.4972 19.81 82.4226 20.0153 82.2735 20.1971C82.1243 20.3789 81.9345 20.4697 81.704 20.4697C81.5278 20.4697 81.3888 20.4428 81.2871 20.389C81.1854 20.3351 81.0464 20.2476 80.8702 20.1264C80.7888 20.0456 80.66 19.9514 80.4837 19.8437C80.321 19.7629 80.0905 19.6956 79.7923 19.6417C79.494 19.5878 79.2228 19.5609 78.9787 19.5609C78.2737 19.5609 77.65 19.7225 77.1077 20.0456C76.5653 20.3688 76.145 20.8164 75.8467 21.3887C75.5484 21.9609 75.3993 22.5971 75.3993 23.2972C75.3993 24.0108 75.545 24.6504 75.8365 25.2159C76.128 25.7814 76.5382 26.2257 77.067 26.5488C77.5958 26.872 78.1991 27.0336 78.8771 27.0336C79.5821 27.0336 80.1516 26.9258 80.5854 26.7104C80.6803 26.6566 80.8092 26.569 80.9719 26.4479C81.1074 26.3402 81.2261 26.2594 81.3278 26.2055C81.4295 26.1517 81.5549 26.1247 81.704 26.1247C81.9752 26.1247 82.1887 26.2089 82.3447 26.3772C82.5006 26.5455 82.5786 26.7643 82.5786 27.0336C82.5786 27.3163 82.3989 27.5957 82.0396 27.8717C81.6803 28.1477 81.199 28.3733 80.5956 28.5483C79.9922 28.7233 79.3448 28.8108 78.6533 28.8108C77.6229 28.8108 76.7145 28.5719 75.9281 28.0939C75.1417 27.6159 74.5349 26.9561 74.1078 26.1146C73.6807 25.2731 73.4672 24.334 73.4672 23.2972C73.4672 22.2605 73.6909 21.3214 74.1383 20.4798C74.5858 19.6383 75.2094 18.9786 76.0094 18.5006C76.8094 18.0226 77.7246 17.7836 78.755 17.7836ZM93.2767 26.9326C93.48 27.148 93.5817 27.3836 93.5817 27.6395C93.5817 27.9087 93.4767 28.1343 93.2665 28.316C93.0563 28.4978 92.836 28.5887 92.6055 28.5887C92.3072 28.5887 92.07 28.481 91.8937 28.2655L87.8871 24.0445L86.6668 25.1351V27.6395C86.6668 27.9087 86.5753 28.1376 86.3923 28.3261C86.2092 28.5146 85.9821 28.6089 85.711 28.6089C85.4262 28.6089 85.1923 28.5146 85.0093 28.3261C84.8263 28.1376 84.7347 27.9087 84.7347 27.6395V14.633C84.7347 14.3637 84.8263 14.1348 85.0093 13.9463C85.1923 13.7578 85.4262 13.6636 85.711 13.6636C85.9821 13.6636 86.2092 13.7578 86.3923 13.9463C86.5753 14.1348 86.6668 14.3637 86.6668 14.633V22.8327L91.6496 18.2885C91.8801 18.0866 92.1174 17.9856 92.3615 17.9856C92.592 17.9856 92.8021 18.0832 92.9919 18.2784C93.1818 18.4737 93.2767 18.679 93.2767 18.8944C93.2767 19.1637 93.1479 19.4061 92.8902 19.6215L89.3718 22.7317L93.2767 26.9326ZM101.208 17.8442C102.13 17.8442 102.964 18.0765 103.709 18.541C104.455 19.0055 105.042 19.6552 105.469 20.49C105.896 21.3247 106.109 22.2672 106.109 23.3174C106.109 24.3677 105.896 25.3068 105.469 26.1348C105.042 26.9629 104.455 27.6125 103.709 28.0838C102.964 28.555 102.143 28.7907 101.249 28.7907C100.544 28.7907 99.8859 28.6358 99.2758 28.3261C98.6657 28.0165 98.1708 27.6395 97.7911 27.1951V31.6787C97.7911 31.948 97.6996 32.1769 97.5166 32.3654C97.3335 32.5539 97.0996 32.6482 96.8149 32.6482C96.5437 32.6482 96.3166 32.5573 96.1336 32.3755C95.9506 32.1937 95.859 31.9615 95.859 31.6787V18.9752C95.859 18.6925 95.9472 18.4569 96.1234 18.2684C96.2997 18.0799 96.5302 17.9856 96.8149 17.9856C97.0996 17.9856 97.3335 18.0799 97.5166 18.2684C97.6996 18.4569 97.7911 18.6925 97.7911 18.9752V19.5609C98.1165 19.0897 98.5911 18.6857 99.2148 18.3491C99.8385 18.0125 100.503 17.8442 101.208 17.8442ZM100.985 27.0134C101.608 27.0134 102.171 26.8518 102.673 26.5287C103.174 26.2055 103.564 25.7646 103.842 25.2058C104.12 24.647 104.259 24.0176 104.259 23.3175C104.259 22.6173 104.12 21.9879 103.842 21.4291C103.564 20.8703 103.174 20.4294 102.673 20.1062C102.171 19.7831 101.608 19.6215 100.985 19.6215C100.347 19.6215 99.7779 19.7797 99.2762 20.0961C98.7746 20.4125 98.3847 20.8535 98.1068 21.419C97.8288 21.9845 97.6899 22.6173 97.6899 23.3175C97.6899 24.0176 97.8288 24.6504 98.1068 25.2159C98.3847 25.7814 98.7746 26.2224 99.2762 26.5388C99.7779 26.8552 100.347 27.0134 100.985 27.0134ZM116.991 17.8846C117.275 17.8846 117.509 17.9755 117.692 18.1573C117.875 18.339 117.967 18.578 117.967 18.8742V27.6395C117.967 27.9087 117.875 28.1376 117.692 28.3261C117.509 28.5146 117.275 28.6089 116.991 28.6089C116.706 28.6089 116.475 28.518 116.299 28.3362C116.123 28.1545 116.035 27.9222 116.035 27.6395V27.1143C115.682 27.5856 115.201 27.9862 114.591 28.316C113.981 28.6459 113.323 28.8108 112.618 28.8108C111.696 28.8108 110.859 28.5752 110.106 28.104C109.354 27.6327 108.764 26.9763 108.337 26.1348C107.91 25.2933 107.696 24.3475 107.696 23.2972C107.696 22.247 107.91 21.3012 108.337 20.4596C108.764 19.6181 109.35 18.9618 110.096 18.4905C110.842 18.0193 111.662 17.7836 112.557 17.7836C113.276 17.7836 113.943 17.9317 114.56 18.2279C115.177 18.5242 115.669 18.9012 116.035 19.3589V18.8742C116.035 18.5915 116.123 18.3559 116.299 18.1674C116.475 17.9789 116.706 17.8846 116.991 17.8846ZM112.841 27.0336C113.479 27.0336 114.045 26.872 114.54 26.5489C115.034 26.2257 115.421 25.7814 115.699 25.2159C115.977 24.6504 116.116 24.0109 116.116 23.2972C116.116 22.5971 115.977 21.9643 115.699 21.3988C115.421 20.8333 115.034 20.3856 114.54 20.0557C114.045 19.7259 113.479 19.5609 112.841 19.5609C112.204 19.5609 111.638 19.7225 111.143 20.0456C110.648 20.3688 110.262 20.8131 109.984 21.3786C109.706 21.9441 109.567 22.5836 109.567 23.2972C109.567 24.0109 109.706 24.6504 109.984 25.2159C110.262 25.7814 110.648 26.2257 111.143 26.5489C111.638 26.872 112.204 27.0336 112.841 27.0336ZM120.224 26.9528C120.102 26.7643 120.041 26.5825 120.041 26.4075C120.041 26.1382 120.184 25.9093 120.469 25.7208C120.604 25.6265 120.76 25.5794 120.936 25.5794C121.18 25.5794 121.404 25.6804 121.607 25.8824C122.014 26.3402 122.451 26.6835 122.919 26.9124C123.387 27.1413 123.946 27.2557 124.597 27.2557C125.112 27.2423 125.567 27.1244 125.96 26.9023C126.353 26.6801 126.55 26.32 126.55 25.8218C126.55 25.364 126.35 25.0139 125.95 24.7716C125.55 24.5292 124.963 24.3071 124.19 24.1051C123.431 23.9031 122.801 23.6911 122.299 23.4689C121.797 23.2467 121.374 22.9236 121.028 22.4995C120.682 22.0754 120.509 21.52 120.509 20.8333C120.509 20.2274 120.682 19.6956 121.028 19.2378C121.374 18.78 121.835 18.4232 122.411 18.1674C122.987 17.9115 123.614 17.7836 124.292 17.7836C124.943 17.7836 125.59 17.9048 126.234 18.1472C126.878 18.3895 127.404 18.7598 127.811 19.258C127.973 19.4465 128.055 19.6417 128.055 19.8437C128.055 20.0591 127.946 20.2678 127.729 20.4697C127.594 20.5909 127.424 20.6515 127.221 20.6515C126.977 20.6515 126.78 20.5707 126.631 20.4092C126.346 20.086 125.997 19.8369 125.584 19.6619C125.17 19.4869 124.712 19.3993 124.211 19.3993C123.695 19.3993 123.258 19.5037 122.899 19.7124C122.54 19.9211 122.36 20.2745 122.36 20.7727C122.374 21.2439 122.58 21.594 122.98 21.8229C123.38 22.0518 123.994 22.274 124.821 22.4894C125.539 22.6779 126.136 22.8798 126.611 23.0953C127.085 23.3107 127.485 23.6305 127.811 24.0546C128.136 24.4787 128.299 25.0341 128.299 25.7208C128.299 26.3536 128.116 26.9023 127.75 27.3668C127.383 27.8313 126.905 28.1881 126.316 28.4372C125.726 28.6863 125.099 28.8108 124.434 28.8108C123.58 28.8108 122.79 28.6627 122.065 28.3665C121.34 28.0703 120.726 27.5991 120.224 26.9528ZM129.926 26.9528C129.804 26.7643 129.743 26.5825 129.743 26.4075C129.743 26.1382 129.885 25.9093 130.17 25.7208C130.306 25.6265 130.461 25.5794 130.638 25.5794C130.882 25.5794 131.105 25.6804 131.309 25.8824C131.716 26.3402 132.153 26.6835 132.621 26.9124C133.088 27.1413 133.648 27.2557 134.299 27.2557C134.814 27.2423 135.268 27.1244 135.661 26.9023C136.054 26.6801 136.251 26.32 136.251 25.8218C136.251 25.364 136.051 25.0139 135.651 24.7716C135.251 24.5292 134.665 24.3071 133.892 24.1051C133.132 23.9031 132.502 23.6911 132 23.4689C131.499 23.2467 131.075 22.9236 130.729 22.4995C130.383 22.0754 130.211 21.52 130.211 20.8333C130.211 20.2274 130.383 19.6956 130.729 19.2378C131.075 18.78 131.536 18.4232 132.112 18.1674C132.688 17.9115 133.316 17.7836 133.993 17.7836C134.644 17.7836 135.292 17.9048 135.936 18.1472C136.58 18.3895 137.105 18.7598 137.512 19.258C137.675 19.4465 137.756 19.6417 137.756 19.8437C137.756 20.0591 137.648 20.2678 137.431 20.4697C137.295 20.5909 137.126 20.6515 136.922 20.6515C136.678 20.6515 136.481 20.5707 136.332 20.4092C136.048 20.086 135.698 19.8369 135.285 19.6619C134.871 19.4869 134.414 19.3993 133.912 19.3993C133.397 19.3993 132.96 19.5037 132.6 19.7124C132.241 19.9211 132.061 20.2745 132.061 20.7727C132.075 21.2439 132.282 21.594 132.682 21.8229C133.082 22.0518 133.695 22.274 134.522 22.4894C135.241 22.6779 135.837 22.8798 136.312 23.0953C136.787 23.3107 137.187 23.6305 137.512 24.0546C137.837 24.4787 138 25.0341 138 25.7208C138 26.3536 137.817 26.9023 137.451 27.3668C137.085 27.8313 136.607 28.1881 136.017 28.4372C135.427 28.6863 134.8 28.8108 134.136 28.8108C133.282 28.8108 132.492 28.6627 131.766 28.3665C131.041 28.0703 130.428 27.5991 129.926 26.9528Z" fill="#4A4A4A"/>
<path d="M48.5814 37.0674C48.723 37.1382 48.8035 37.2477 48.8228 37.3957C48.8486 37.5438 48.8131 37.679 48.7166 37.8013C48.6457 37.8979 48.5524 37.9526 48.4365 37.9655C48.3271 37.9784 48.2176 37.9559 48.1082 37.8979C47.9214 37.8013 47.7251 37.7241 47.5191 37.6661C47.313 37.6082 47.0941 37.5792 46.8624 37.5792C46.4954 37.5792 46.1638 37.6404 45.8676 37.7627C45.5779 37.8786 45.3268 38.0492 45.1144 38.2746C44.9019 38.4935 44.7377 38.7542 44.6218 39.0568C44.5124 39.3594 44.4577 39.6942 44.4577 40.0612C44.4577 40.4668 44.5188 40.8273 44.6412 41.1428C44.7635 41.4518 44.9309 41.7158 45.1433 41.9347C45.3622 42.1472 45.6166 42.3081 45.9063 42.4176C46.2024 42.5206 46.5211 42.5721 46.8624 42.5721C47.0813 42.5721 47.2937 42.5463 47.4997 42.4948C47.7122 42.4433 47.9118 42.3661 48.0985 42.2631C48.2144 42.2051 48.3271 42.1858 48.4365 42.2051C48.5524 42.218 48.6457 42.2727 48.7166 42.3693C48.826 42.5045 48.8646 42.6429 48.8325 42.7846C48.8067 42.9198 48.7262 43.0228 48.591 43.0936C48.4301 43.1837 48.253 43.261 48.0599 43.3254C47.8667 43.3897 47.6704 43.4413 47.4708 43.4799C47.2712 43.5185 47.0684 43.5378 46.8624 43.5378C46.3988 43.5378 45.961 43.4606 45.549 43.3061C45.1369 43.1515 44.7699 42.9262 44.448 42.63C44.1261 42.3339 43.8718 41.9701 43.6851 41.5388C43.5048 41.1074 43.4147 40.6149 43.4147 40.0612C43.4147 39.5654 43.4984 39.1083 43.6658 38.6898C43.8396 38.2649 44.081 37.9011 44.3901 37.5985C44.7055 37.2895 45.0725 37.0513 45.491 36.8839C45.9095 36.7101 46.3666 36.6232 46.8624 36.6232C47.1714 36.6232 47.4708 36.6618 47.7605 36.739C48.0566 36.8163 48.3303 36.9257 48.5814 37.0674Z" fill="#4A4A4A"/>
<path d="M53.5911 38.3228C53.7327 38.3228 53.8486 38.3711 53.9387 38.4677C54.0289 38.5578 54.0739 38.6737 54.0739 38.8154V42.968C54.0739 43.5346 53.9645 43.9949 53.7456 44.349C53.5331 44.7032 53.2434 44.9607 52.8764 45.1216C52.5159 45.289 52.107 45.3727 51.6499 45.3727C51.4181 45.3727 51.1864 45.3502 50.9546 45.3051C50.7228 45.2665 50.5329 45.2086 50.3848 45.1313C50.2303 45.0605 50.1208 44.9736 50.0565 44.8705C49.9921 44.7675 49.9824 44.6549 50.0275 44.5325C50.0726 44.378 50.1498 44.2718 50.2593 44.2138C50.3687 44.1623 50.4814 44.1591 50.5973 44.2042C50.7067 44.2493 50.8516 44.3072 51.0318 44.378C51.2121 44.4488 51.4181 44.4843 51.6499 44.4843C51.9654 44.4843 52.2326 44.4327 52.4515 44.3297C52.6704 44.2267 52.8346 44.0658 52.944 43.8469C53.0599 43.628 53.1178 43.3447 53.1178 42.997V42.3307L53.2724 42.5624C53.1693 42.7749 53.0341 42.9519 52.8667 43.0936C52.6994 43.2352 52.4998 43.3447 52.268 43.4219C52.0427 43.4992 51.7916 43.5378 51.5147 43.5378C51.1606 43.5378 50.8548 43.4606 50.5973 43.3061C50.3462 43.1451 50.153 42.9262 50.0178 42.6494C49.8826 42.3661 49.815 42.0442 49.815 41.6836V38.8154C49.815 38.6737 49.8601 38.5578 49.9502 38.4677C50.0404 38.3711 50.1562 38.3228 50.2979 38.3228C50.4331 38.3228 50.5458 38.3711 50.6359 38.4677C50.7325 38.5578 50.7808 38.6737 50.7808 38.8154V41.4229C50.7808 41.8478 50.8741 42.16 51.0608 42.3596C51.2475 42.5528 51.5244 42.6494 51.8914 42.6494C52.136 42.6494 52.3485 42.5978 52.5287 42.4948C52.709 42.3918 52.8507 42.2502 52.9537 42.0699C53.0567 41.8832 53.1082 41.6675 53.1082 41.4229V38.8154C53.1082 38.6737 53.1533 38.5578 53.2434 38.4677C53.34 38.3711 53.4558 38.3228 53.5911 38.3228Z" fill="#4A4A4A"/>
<path d="M57.9857 38.2456C58.4364 38.2456 58.8355 38.3583 59.1832 38.5836C59.5373 38.8089 59.8174 39.1212 60.0234 39.5204C60.2294 39.9131 60.3324 40.367 60.3324 40.8821C60.3324 41.3971 60.2294 41.8542 60.0234 42.2534C59.8174 42.6526 59.5405 42.968 59.1929 43.1998C58.8452 43.4252 58.4525 43.5378 58.0147 43.5378C57.77 43.5378 57.5382 43.4992 57.3193 43.4219C57.1004 43.3382 56.9073 43.2352 56.7399 43.1129C56.5725 42.9841 56.4341 42.8489 56.3246 42.7073C56.2216 42.5657 56.1572 42.4337 56.1315 42.3113L56.3922 42.1858V43.026C56.3922 43.1612 56.3439 43.2771 56.2474 43.3737C56.1572 43.4638 56.0446 43.5089 55.9093 43.5089C55.7677 43.5089 55.6518 43.4638 55.5617 43.3737C55.4715 43.2835 55.4265 43.1676 55.4265 43.026V36.7873C55.4265 36.6457 55.4715 36.5298 55.5617 36.4397C55.6518 36.3431 55.7677 36.2948 55.9093 36.2948C56.0446 36.2948 56.1572 36.3431 56.2474 36.4397C56.3439 36.5298 56.3922 36.6457 56.3922 36.7873V39.501L56.2377 39.4141C56.257 39.2918 56.3182 39.1663 56.4212 39.0375C56.5242 38.9023 56.653 38.7735 56.8075 38.6512C56.9684 38.5289 57.1487 38.4323 57.3483 38.3615C57.5543 38.2842 57.7668 38.2456 57.9857 38.2456ZM57.8795 39.1341C57.5704 39.1341 57.3 39.2113 57.0682 39.3658C56.8429 39.5204 56.6658 39.7296 56.5371 39.9936C56.4083 40.2511 56.3439 40.5473 56.3439 40.8821C56.3439 41.2168 56.4083 41.5194 56.5371 41.7898C56.6658 42.0538 56.8429 42.2631 57.0682 42.4176C57.3 42.5721 57.5704 42.6494 57.8795 42.6494C58.1821 42.6494 58.446 42.5721 58.6714 42.4176C58.8967 42.2631 59.0737 42.0506 59.2025 41.7802C59.3377 41.5098 59.4053 41.2104 59.4053 40.8821C59.4053 40.5473 59.3377 40.2511 59.2025 39.9936C59.0737 39.7296 58.8967 39.5204 58.6714 39.3658C58.446 39.2113 58.1821 39.1341 57.8795 39.1341Z" fill="#4A4A4A"/>
<path d="M63.7907 43.5378C63.2563 43.5378 62.7927 43.4284 62.4 43.2095C62.0073 42.9841 61.7015 42.6783 61.4826 42.292C61.2701 41.8993 61.1639 41.4518 61.1639 40.9497C61.1639 40.3831 61.2765 39.9002 61.5019 39.501C61.7336 39.0954 62.033 38.7864 62.4 38.5739C62.767 38.355 63.1565 38.2456 63.5686 38.2456C63.884 38.2456 64.1834 38.31 64.4667 38.4387C64.75 38.5611 65.0011 38.7349 65.22 38.9602C65.4453 39.1791 65.6224 39.4399 65.7511 39.7425C65.8799 40.0386 65.9475 40.3638 65.9539 40.7179C65.9475 40.8466 65.896 40.9529 65.7994 41.0366C65.7028 41.1203 65.5902 41.1621 65.4614 41.1621H61.7047L61.4729 40.3412H65.1041L64.9206 40.5151V40.2736C64.9077 40.0483 64.8337 39.8519 64.6985 39.6845C64.5633 39.5107 64.3959 39.3787 64.1963 39.2886C63.9967 39.192 63.7875 39.1437 63.5686 39.1437C63.3754 39.1437 63.1887 39.1759 63.0084 39.2403C62.8346 39.2982 62.6769 39.3948 62.5352 39.53C62.4 39.6652 62.2906 39.8455 62.2069 40.0708C62.1296 40.2897 62.091 40.5634 62.091 40.8917C62.091 41.2458 62.165 41.5548 62.3131 41.8188C62.4612 42.0828 62.6608 42.2888 62.9118 42.4369C63.1629 42.5785 63.4398 42.6494 63.7424 42.6494C63.9806 42.6494 64.177 42.6268 64.3315 42.5817C64.486 42.5302 64.6148 42.4691 64.7178 42.3983C64.8208 42.3274 64.9109 42.2598 64.9882 42.1955C65.0848 42.1375 65.1813 42.1085 65.2779 42.1085C65.3938 42.1085 65.4904 42.1504 65.5676 42.2341C65.6449 42.3113 65.6835 42.4047 65.6835 42.5141C65.6835 42.6558 65.6127 42.7846 65.4711 42.9004C65.2972 43.0678 65.0558 43.2159 64.7467 43.3447C64.4442 43.4734 64.1255 43.5378 63.7907 43.5378Z" fill="#4A4A4A"/>
<path d="M67.5284 43.4413C67.3867 43.4413 67.2708 43.3962 67.1807 43.3061C67.0906 43.2095 67.0455 43.0904 67.0455 42.9487V38.854C67.0455 38.7124 67.0906 38.5965 67.1807 38.5063C67.2708 38.4098 67.3867 38.3615 67.5284 38.3615C67.6636 38.3615 67.7762 38.4098 67.8664 38.5063C67.963 38.5965 68.0112 38.7124 68.0112 38.854V39.9356L67.9147 39.5204C67.9662 39.3401 68.0434 39.1727 68.1464 39.0182C68.2559 38.8637 68.3847 38.7285 68.5327 38.6126C68.6808 38.4967 68.845 38.4065 69.0253 38.3422C69.212 38.2778 69.4051 38.2456 69.6047 38.2456C69.7721 38.2456 69.917 38.2907 70.0393 38.3808C70.1616 38.4709 70.2228 38.5836 70.2228 38.7188C70.2228 38.8926 70.1777 39.0214 70.0876 39.1051C69.9974 39.1824 69.8977 39.221 69.7882 39.221C69.6916 39.221 69.5983 39.2017 69.5081 39.163C69.418 39.118 69.3118 39.0954 69.1894 39.0954C69.0542 39.0954 68.9158 39.1308 68.7742 39.2017C68.6325 39.2725 68.5038 39.3787 68.3879 39.5204C68.272 39.6556 68.1786 39.8165 68.1078 40.0032C68.0434 40.1899 68.0112 40.3992 68.0112 40.631V42.9487C68.0112 43.0904 67.963 43.2095 67.8664 43.3061C67.7762 43.3962 67.6636 43.4413 67.5284 43.4413Z" fill="#4A4A4A"/>
<path d="M70.7826 42.6494C70.7247 42.5592 70.6989 42.4562 70.7053 42.3403C70.7118 42.218 70.7794 42.115 70.9082 42.0313C70.9983 41.9733 71.0916 41.9508 71.1882 41.9637C71.2912 41.9701 71.3878 42.0184 71.4779 42.1085C71.6582 42.3081 71.8578 42.4659 72.0767 42.5817C72.302 42.6976 72.5724 42.7556 72.8879 42.7556C73.0167 42.7491 73.1487 42.7298 73.2839 42.6976C73.4191 42.659 73.535 42.5946 73.6315 42.5045C73.7281 42.4079 73.7764 42.2695 73.7764 42.0892C73.7764 41.9283 73.7249 41.7995 73.6219 41.7029C73.5189 41.6064 73.3837 41.5291 73.2163 41.4712C73.0489 41.4068 72.8686 41.3488 72.6755 41.2973C72.4694 41.2394 72.2602 41.175 72.0477 41.1042C71.8417 41.0333 71.655 40.9432 71.4876 40.8338C71.3202 40.7179 71.1818 40.5698 71.0723 40.3895C70.9693 40.2093 70.9178 39.9871 70.9178 39.7232C70.9178 39.4206 71.0015 39.1598 71.1689 38.9409C71.3427 38.722 71.5649 38.5514 71.8353 38.4291C72.1121 38.3068 72.4115 38.2456 72.7334 38.2456C72.9201 38.2456 73.1165 38.2713 73.3225 38.3228C73.5285 38.3679 73.7281 38.442 73.9213 38.545C74.1144 38.648 74.2818 38.7832 74.4234 38.9506C74.4878 39.0343 74.5232 39.1341 74.5297 39.25C74.5425 39.3658 74.491 39.4689 74.3751 39.559C74.2979 39.6234 74.2045 39.6523 74.0951 39.6459C73.9856 39.6395 73.8955 39.6041 73.8247 39.5397C73.7024 39.3852 73.5446 39.2661 73.3515 39.1824C73.1583 39.0922 72.9394 39.0472 72.6948 39.0472C72.5724 39.0472 72.4437 39.0665 72.3085 39.1051C72.1797 39.1373 72.0703 39.1984 71.9801 39.2886C71.89 39.3787 71.8449 39.5107 71.8449 39.6845C71.8449 39.8455 71.8964 39.9743 71.9994 40.0708C72.1089 40.1674 72.2505 40.2479 72.4244 40.3123C72.5982 40.3766 72.7881 40.4346 72.9941 40.4861C73.1937 40.5376 73.3901 40.5988 73.5832 40.6696C73.7828 40.7404 73.9599 40.8338 74.1144 40.9497C74.2754 41.0591 74.4041 41.204 74.5007 41.3842C74.6037 41.5581 74.6552 41.7802 74.6552 42.0506C74.6552 42.3661 74.5619 42.6365 74.3751 42.8618C74.1949 43.0807 73.9631 43.2481 73.6798 43.364C73.403 43.4799 73.11 43.5378 72.801 43.5378C72.434 43.5378 72.067 43.4734 71.7001 43.3447C71.3395 43.2095 71.0337 42.9777 70.7826 42.6494Z" fill="#4A4A4A"/>
<path d="M78.0598 43.5378C77.5254 43.5378 77.0619 43.4284 76.6691 43.2095C76.2764 42.9841 75.9706 42.6783 75.7517 42.292C75.5392 41.8993 75.433 41.4518 75.433 40.9497C75.433 40.3831 75.5457 39.9002 75.771 39.501C76.0028 39.0954 76.3022 38.7864 76.6691 38.5739C77.0361 38.355 77.4256 38.2456 77.8377 38.2456C78.1532 38.2456 78.4525 38.31 78.7358 38.4387C79.0191 38.5611 79.2702 38.7349 79.4891 38.9602C79.7144 39.1791 79.8915 39.4399 80.0203 39.7425C80.149 40.0386 80.2166 40.3638 80.2231 40.7179C80.2166 40.8466 80.1651 40.9529 80.0685 41.0366C79.972 41.1203 79.8593 41.1621 79.7305 41.1621H75.9738L75.742 40.3412H79.3732L79.1897 40.5151V40.2736C79.1768 40.0483 79.1028 39.8519 78.9676 39.6845C78.8324 39.5107 78.665 39.3787 78.4654 39.2886C78.2658 39.192 78.0566 39.1437 77.8377 39.1437C77.6445 39.1437 77.4578 39.1759 77.2776 39.2403C77.1037 39.2982 76.946 39.3948 76.8044 39.53C76.6692 39.6652 76.5597 39.8455 76.476 40.0708C76.3987 40.2897 76.3601 40.5634 76.3601 40.8917C76.3601 41.2458 76.4342 41.5548 76.5822 41.8188C76.7303 42.0828 76.9299 42.2888 77.181 42.4369C77.4321 42.5785 77.7089 42.6494 78.0115 42.6494C78.2497 42.6494 78.4461 42.6268 78.6006 42.5817C78.7551 42.5302 78.8839 42.4691 78.9869 42.3983C79.0899 42.3274 79.1801 42.2598 79.2573 42.1955C79.3539 42.1375 79.4505 42.1085 79.547 42.1085C79.6629 42.1085 79.7595 42.1504 79.8368 42.2341C79.914 42.3113 79.9527 42.4047 79.9527 42.5141C79.9527 42.6558 79.8818 42.7846 79.7402 42.9004C79.5664 43.0678 79.3249 43.2159 79.0159 43.3447C78.7133 43.4734 78.3946 43.5378 78.0598 43.5378Z" fill="#4A4A4A"/>
<path d="M83.5648 38.2456C83.9125 38.2456 84.2215 38.2842 84.4919 38.3615C84.7623 38.4323 84.9716 38.5353 85.1197 38.6705C85.2742 38.7993 85.3514 38.9506 85.3514 39.1244C85.3514 39.2339 85.3192 39.3369 85.2549 39.4334C85.1905 39.5236 85.0939 39.5686 84.9651 39.5686C84.875 39.5686 84.7977 39.5526 84.7334 39.5204C84.6754 39.4882 84.6207 39.4495 84.5692 39.4045C84.5177 39.3594 84.4533 39.3143 84.376 39.2693C84.3052 39.2306 84.199 39.1984 84.0573 39.1727C83.9221 39.1469 83.7998 39.1341 83.6904 39.1341C83.3491 39.1341 83.053 39.2113 82.8019 39.3658C82.5572 39.5204 82.3641 39.7296 82.2224 39.9936C82.0872 40.2575 82.0196 40.5569 82.0196 40.8917C82.0196 41.2265 82.0872 41.5259 82.2224 41.7898C82.3641 42.0538 82.554 42.2631 82.7922 42.4176C83.0369 42.5721 83.3202 42.6494 83.6421 42.6494C83.8352 42.6494 83.993 42.6365 84.1153 42.6107C84.2376 42.5785 84.3438 42.5399 84.434 42.4948C84.5306 42.4369 84.611 42.3789 84.6754 42.321C84.7462 42.2566 84.8428 42.2244 84.9651 42.2244C85.1068 42.2244 85.213 42.2695 85.2838 42.3596C85.3611 42.4433 85.3997 42.5496 85.3997 42.6783C85.3997 42.82 85.3128 42.9584 85.139 43.0936C84.9716 43.2224 84.7462 43.3286 84.4629 43.4123C84.1797 43.496 83.8674 43.5378 83.5262 43.5378C83.024 43.5378 82.5862 43.4219 82.2128 43.1902C81.8458 42.9584 81.5593 42.6429 81.3533 42.2437C81.1537 41.8446 81.0539 41.3939 81.0539 40.8917C81.0539 40.3831 81.1601 39.9324 81.3726 39.5397C81.5851 39.1405 81.8812 38.825 82.2611 38.5933C82.6409 38.3615 83.0755 38.2456 83.5648 38.2456Z" fill="#4A4A4A"/>
<path d="M90.1082 38.3615C90.2434 38.3615 90.3561 38.4098 90.4462 38.5063C90.5428 38.5965 90.5911 38.7124 90.5911 38.854V41.3939C90.5911 42.0635 90.4044 42.5882 90.031 42.968C89.6575 43.3415 89.1296 43.5282 88.4471 43.5282C87.7711 43.5282 87.2464 43.3415 86.873 42.968C86.506 42.5882 86.3225 42.0635 86.3225 41.3939V38.854C86.3225 38.7124 86.3676 38.5965 86.4577 38.5063C86.5479 38.4098 86.6637 38.3615 86.8054 38.3615C86.9406 38.3615 87.0533 38.4098 87.1434 38.5063C87.24 38.5965 87.2883 38.7124 87.2883 38.854V41.3939C87.2883 41.8124 87.3848 42.1246 87.578 42.3307C87.7776 42.5367 88.0673 42.6397 88.4471 42.6397C88.8334 42.6397 89.1264 42.5367 89.326 42.3307C89.5255 42.1246 89.6253 41.8124 89.6253 41.3939V38.854C89.6253 38.7124 89.6704 38.5965 89.7605 38.5063C89.8507 38.4098 89.9666 38.3615 90.1082 38.3615Z" fill="#4A4A4A"/>
<path d="M92.4169 43.4413C92.2752 43.4413 92.1593 43.3962 92.0692 43.3061C91.9791 43.2095 91.934 43.0904 91.934 42.9487V38.854C91.934 38.7124 91.9791 38.5965 92.0692 38.5063C92.1593 38.4098 92.2752 38.3615 92.4169 38.3615C92.5521 38.3615 92.6647 38.4098 92.7549 38.5063C92.8514 38.5965 92.8997 38.7124 92.8997 38.854V39.9356L92.8031 39.5204C92.8547 39.3401 92.9319 39.1727 93.0349 39.0182C93.1444 38.8637 93.2731 38.7285 93.4212 38.6126C93.5693 38.4967 93.7335 38.4065 93.9137 38.3422C94.1005 38.2778 94.2936 38.2456 94.4932 38.2456C94.6606 38.2456 94.8054 38.2907 94.9278 38.3808C95.0501 38.4709 95.1113 38.5836 95.1113 38.7188C95.1113 38.8926 95.0662 39.0214 94.9761 39.1051C94.8859 39.1824 94.7861 39.221 94.6767 39.221C94.5801 39.221 94.4867 39.2017 94.3966 39.163C94.3065 39.118 94.2002 39.0954 94.0779 39.0954C93.9427 39.0954 93.8043 39.1308 93.6627 39.2017C93.521 39.2725 93.3922 39.3787 93.2764 39.5204C93.1605 39.6556 93.0671 39.8165 92.9963 40.0032C92.9319 40.1899 92.8997 40.3992 92.8997 40.631V42.9487C92.8997 43.0904 92.8514 43.2095 92.7549 43.3061C92.6647 43.3962 92.5521 43.4413 92.4169 43.4413Z" fill="#4A4A4A"/>
<path d="M96.8783 42.9487C96.8783 43.0904 96.8332 43.2095 96.7431 43.3061C96.6529 43.3962 96.537 43.4413 96.3954 43.4413C96.2602 43.4413 96.1443 43.3962 96.0477 43.3061C95.9576 43.2095 95.9125 43.0904 95.9125 42.9487V38.8154C95.9125 38.6737 95.9576 38.5578 96.0477 38.4677C96.1443 38.3711 96.2602 38.3228 96.3954 38.3228C96.537 38.3228 96.6529 38.3711 96.7431 38.4677C96.8332 38.5578 96.8783 38.6737 96.8783 38.8154V42.9487ZM96.3857 37.6855C96.199 37.6855 96.0638 37.6533 95.9801 37.5889C95.8964 37.5181 95.8546 37.4022 95.8546 37.2412V37.0867C95.8546 36.9257 95.8996 36.8131 95.9898 36.7487C96.0799 36.6843 96.2151 36.6521 96.3954 36.6521C96.5885 36.6521 96.727 36.6875 96.8107 36.7584C96.8944 36.8227 96.9362 36.9322 96.9362 37.0867V37.2412C96.9362 37.4086 96.8911 37.5245 96.801 37.5889C96.7173 37.6533 96.5789 37.6855 96.3857 37.6855Z" fill="#4A4A4A"/>
<path d="M98.1097 38.4194H100.379C100.508 38.4194 100.614 38.4645 100.698 38.5546C100.788 38.6383 100.833 38.7446 100.833 38.8733C100.833 38.9956 100.788 39.0987 100.698 39.1824C100.614 39.2661 100.508 39.3079 100.379 39.3079H98.1097C97.981 39.3079 97.8715 39.2661 97.7814 39.1824C97.6977 39.0922 97.6558 38.986 97.6558 38.8637C97.6558 38.7349 97.6977 38.6287 97.7814 38.545C97.8715 38.4613 97.981 38.4194 98.1097 38.4194ZM99.1237 37.164C99.2654 37.164 99.3813 37.2122 99.4714 37.3088C99.5615 37.399 99.6066 37.5148 99.6066 37.6565V42.1375C99.6066 42.2534 99.6259 42.3468 99.6646 42.4176C99.7032 42.4884 99.7547 42.5367 99.8191 42.5624C99.8899 42.5882 99.9607 42.6011 100.032 42.6011C100.102 42.6011 100.164 42.5882 100.215 42.5624C100.273 42.5367 100.341 42.5238 100.418 42.5238C100.495 42.5238 100.566 42.5592 100.63 42.63C100.695 42.7009 100.727 42.7974 100.727 42.9198C100.727 43.0743 100.643 43.1998 100.476 43.2964C100.308 43.393 100.128 43.4413 99.935 43.4413C99.8255 43.4413 99.6967 43.4316 99.5487 43.4123C99.4006 43.393 99.2557 43.3447 99.1141 43.2674C98.9789 43.1902 98.8662 43.0678 98.7761 42.9004C98.6859 42.7266 98.6409 42.4852 98.6409 42.1761V37.6565C98.6409 37.5148 98.6859 37.399 98.7761 37.3088C98.8727 37.2122 98.9885 37.164 99.1237 37.164Z" fill="#4A4A4A"/>
<path d="M105.679 38.3228C105.82 38.3228 105.936 38.3711 106.026 38.4677C106.116 38.5578 106.161 38.6737 106.161 38.8154V42.968C106.161 43.5346 106.052 43.9949 105.833 44.349C105.621 44.7032 105.331 44.9607 104.964 45.1216C104.603 45.289 104.195 45.3727 103.737 45.3727C103.506 45.3727 103.274 45.3502 103.042 45.3051C102.81 45.2665 102.62 45.2086 102.472 45.1313C102.318 45.0605 102.208 44.9736 102.144 44.8705C102.08 44.7675 102.07 44.6549 102.115 44.5325C102.16 44.378 102.237 44.2718 102.347 44.2138C102.456 44.1623 102.569 44.1591 102.685 44.2042C102.794 44.2493 102.939 44.3072 103.119 44.378C103.3 44.4488 103.506 44.4843 103.737 44.4843C104.053 44.4843 104.32 44.4327 104.539 44.3297C104.758 44.2267 104.922 44.0658 105.032 43.8469C105.147 43.628 105.205 43.3447 105.205 42.997V42.3307L105.36 42.5624C105.257 42.7749 105.122 42.9519 104.954 43.0936C104.787 43.2352 104.587 43.3447 104.356 43.4219C104.13 43.4992 103.879 43.5378 103.602 43.5378C103.248 43.5378 102.942 43.4606 102.685 43.3061C102.434 43.1451 102.241 42.9262 102.105 42.6494C101.97 42.3661 101.903 42.0442 101.903 41.6836V38.8154C101.903 38.6737 101.948 38.5578 102.038 38.4677C102.128 38.3711 102.244 38.3228 102.385 38.3228C102.521 38.3228 102.633 38.3711 102.723 38.4677C102.82 38.5578 102.868 38.6737 102.868 38.8154V41.4229C102.868 41.8478 102.962 42.16 103.148 42.3596C103.335 42.5528 103.612 42.6494 103.979 42.6494C104.224 42.6494 104.436 42.5978 104.616 42.4948C104.797 42.3918 104.938 42.2502 105.041 42.0699C105.144 41.8832 105.196 41.6675 105.196 41.4229V38.8154C105.196 38.6737 105.241 38.5578 105.331 38.4677C105.428 38.3711 105.543 38.3228 105.679 38.3228Z" fill="#4A4A4A"/>
<defs>
<linearGradient id="paint0_linear_1256_8484" x1="37.8257" y1="43.3908" x2="37.8257" y2="11.4615" gradientUnits="userSpaceOnUse">
<stop stop-color="#0BA360"/>
<stop offset="1" stop-color="#3CBA92"/>
</linearGradient>
</defs>
</svg>