<?xml version="1.0" encoding="utf-8"?>
<!-- Generator: Adobe Illustrator 25.4.1, SVG Export Plug-In . SVG Version: 6.00 Build 0)  -->
<svg version="1.1" id="svg" xmlns="http://www.w3.org/2000/svg" xmlns:xlink="http://www.w3.org/1999/xlink" x="0px" y="0px"
	 viewBox="0 0 400 401.7" style="enable-background:new 0 0 400 401.7;" xml:space="preserve">
<style type="text/css">
	.st0{fill-rule:evenodd;clip-rule:evenodd;fill:#4CCC54;}
	.st1{fill-rule:evenodd;clip-rule:evenodd;fill:#8ED784;}
	.st2{fill-rule:evenodd;clip-rule:evenodd;fill:#5F5F5F;}
	.st3{fill-rule:evenodd;clip-rule:evenodd;fill:#A4DCAC;}
</style>
<g id="svgg">
	<path id="path1" class="st0" d="M187.4,0.3c-0.1,0.2-2.1,0.5-4.5,0.6c-5.2,0.3-16.2,1.7-17.6,2.3c-0.6,0.2-1.9,0.4-3,0.4
		c-1.1,0-2,0.2-2.2,0.3c-0.1,0.2-0.8,0.4-1.5,0.6c-3.6,0.6-9.4,1.9-9.9,2.2c-0.3,0.2-1.2,0.5-2,0.6c-3.9,0.8-19.4,6.1-21.7,7.4
		c-0.4,0.2-0.9,0.4-1.2,0.4s-1.5,0.5-2.7,1.1c-1.2,0.6-3.4,1.6-4.8,2.2c-6.3,2.9-13.7,6.9-19.1,10.1C95,30,93.1,31.2,93,31.2
		c-0.1,0-1.3,0.8-2.7,1.7c-1.4,1-3.4,2.3-4.5,3.1c-1.1,0.8-2.2,1.6-2.5,1.9c-0.3,0.3-0.9,0.7-1.4,1c-0.5,0.2-1,0.6-1.3,0.8
		s-2,1.6-3.8,3c-4.5,3.5-9.1,7.5-12.8,11c-1.7,1.6-3.6,3.4-4.4,4.1C56.2,61,47.5,70.7,42.7,76.8c-1.5,1.9-2.8,3.6-3,3.8
		s-0.6,0.8-0.8,1.3c-0.2,0.5-0.7,1.1-1,1.4c-0.5,0.5-2.1,2.8-4.5,6.5c-0.7,1.1-1.5,2.2-1.7,2.5c-0.2,0.3-0.4,0.6-0.4,0.7
		c0,0.1-1.2,2.1-2.6,4.4c-4.3,7.1-9.3,16.8-12.2,23.9c-0.7,1.7-1.4,3.4-1.6,3.8c-1,2.2-2.4,6-2.4,6.5c0,0.3-0.2,0.5-0.4,0.5
		s-0.4,0.4-0.4,0.8c0,0.4-0.4,2-1,3.5c-1.3,3.6-2.9,8.8-3.2,10.5c-0.2,0.8-0.4,1.6-0.6,1.8c-0.2,0.2-0.8,2.7-1.4,5.6
		c-0.6,2.9-1.2,5.5-1.4,5.9c-0.2,0.4-0.4,1.4-0.4,2.3S3.3,165,3,166.3c-0.7,2.7-2.2,15.8-2.2,18.8c0,1.1-0.2,2.2-0.4,2.3
		c-0.5,0.3-0.6,25.8-0.1,25.8c0.2,0,0.5,2.1,0.6,4.7c0.4,6.1,1.7,16.3,2.2,17.3c0.2,0.4,0.4,1.6,0.4,2.6c0,1,0.2,2.1,0.4,2.5
		c0.2,0.4,0.8,2.7,1.2,5.1s1.2,5.4,1.6,6.8c0.4,1.3,0.8,2.8,0.8,3.2c0,0.5,0.2,1,0.4,1.2c0.2,0.2,0.6,1.5,1,2.9
		c0.4,1.4,1.1,3.7,1.6,5c0.5,1.4,1,2.8,1,3.1c0,0.4,0.2,0.7,0.4,0.9c0.2,0.1,0.5,0.7,0.6,1.3c0.4,1.6,1.7,5.1,3.1,8
		c0.6,1.3,1.2,2.6,1.2,2.7c0,0.9,8.8,18.3,9.6,19c0.1,0.1,0.7,1.2,1.4,2.4c2.2,4.2,12.4,19.1,14.4,21.2c0.3,0.3,0.6,0.7,0.6,0.9
		c0,0.1,0.4,0.7,0.9,1.2c0.5,0.5,1.3,1.5,1.8,2.1c7.5,9.4,18.7,20.6,28.1,28c0.8,0.6,1.5,1.3,1.7,1.6c0.2,0.3,0.5,0.5,0.7,0.5
		c0.2,0,0.7,0.3,1.1,0.6c3.3,2.8,9.2,7,9.6,7c0.2,0,0.5,0.3,0.6,0.6c0.1,0.3,0.5,0.6,0.8,0.6c0.3,0,0.9,0.4,1.3,0.8
		c0.4,0.4,0.9,0.8,1.1,0.8c0.2,0,1.6,0.8,3,1.8c1.4,1,4,2.6,5.7,3.5c1.7,0.9,3.5,1.9,4,2.3c1.8,1.3,17,8.5,21,10
		c1.3,0.5,2.6,1,2.8,1.2c0.2,0.2,2.6,1,5.4,2c2.8,0.9,5.6,1.9,6.3,2.2c0.7,0.3,1.5,0.6,1.8,0.6c0.3,0,1.5,0.3,2.8,0.8
		c1.2,0.4,3.6,1.1,5.2,1.4c1.6,0.4,3.1,0.9,3.3,1s0.9,0.3,1.5,0.3c0.6,0,2.4,0.3,4,0.8c1.6,0.4,5.4,1.2,8.5,1.6s6.2,1,7,1.3
		c0.8,0.2,4,0.6,7.2,0.8c3.2,0.2,8.4,0.6,11.6,0.8c6,0.4,22.7,0.1,23.4-0.4c0.2-0.2,3-0.4,6.2-0.5s6.3-0.4,7-0.6
		c0.7-0.2,4.2-0.9,7.8-1.5c3.6-0.6,7.3-1.3,8.2-1.6c0.9-0.3,2.1-0.5,2.7-0.5c0.6,0,1.5-0.2,1.8-0.4c0.4-0.2,2.6-0.9,4.9-1.4
		c4.4-1.1,19.5-6,20.2-6.6c0.2-0.2,1.5-0.7,2.8-1.2c6.8-2.6,22.7-10.8,29.6-15.2c0.5-0.3,1.8-1.1,2.9-1.8c1.7-1,6-4,7.2-5
		c0.2-0.2,1.2-0.8,2.1-1.4c4.4-2.8,16.1-12.9,23.6-20.3c6.7-6.7,18.9-20.8,18.9-21.8c0-0.2,0.3-0.5,0.6-0.6c0.3-0.1,0.6-0.5,0.6-0.8
		c0-0.3,0.2-0.6,0.3-0.7c0.3-0.1,6.7-9.5,8.8-12.9c4.6-7.4,12.4-22.8,12.4-24.4c0-0.3,0.1-0.6,0.3-0.6c0.2,0,0.9-1.4,1.5-3.2
		s1.3-3.2,1.5-3.2c0.2,0,0.3-0.4,0.3-0.8c0-0.4,0.2-1.1,0.4-1.5c0.9-1.5,3.5-9.8,5.6-17.3c0.6-2.3,1.3-4.7,1.6-5.3s0.4-1.8,0.4-2.6
		s0.2-1.7,0.4-1.9c0.2-0.2,0.9-3.4,1.5-7c0.6-3.6,1.2-6.7,1.4-6.8c0.1-0.1,0.4-2.6,0.5-5.6c0.2-3,0.5-5.6,0.7-5.8
		c0.5-0.5,0.5-37.1,0-37.6c-0.2-0.2-0.5-2.5-0.6-5.2c-0.1-2.6-0.4-5.2-0.6-5.6c-0.2-0.4-0.8-3.8-1.4-7.4s-1.2-6.8-1.4-7
		c-0.2-0.2-0.4-1.1-0.5-2c-0.2-1.8-2.6-10.8-3.1-12c-0.2-0.4-1.2-3.2-2.1-6.2s-2-5.9-2.3-6.6c-0.3-0.7-0.8-1.9-1.2-2.8
		c-0.4-0.9-0.8-2-1-2.6c-0.2-0.6-0.7-2-1.3-3.2c-0.6-1.2-1.3-2.9-1.7-3.8c-1.6-3.4-3.4-7.2-3.6-7.4c-0.1-0.1-0.8-1.4-1.5-2.8
		c-0.7-1.4-1.8-3.6-2.5-4.8c-0.7-1.2-1.8-3.1-2.4-4.2c-0.9-1.7-2.9-4.7-6.9-10.8c-1.1-1.7-5.9-8.1-6.5-8.7c-0.3-0.3-0.6-0.8-0.6-1.1
		c0-0.3-0.1-0.5-0.3-0.5s-1-0.9-1.9-2.1c-0.9-1.1-1.9-2.5-2.4-3c-0.4-0.5-1.4-1.6-2.2-2.6c-4.4-5.3-20.3-21.2-21.3-21.2
		c-0.1,0-0.8-0.6-1.6-1.3c-0.8-0.7-2.3-2-3.5-2.9s-3.1-2.4-4.4-3.4c-3.7-2.9-8.3-6.1-10-7.1c-0.9-0.5-2.5-1.5-3.5-2.3
		c-4.5-3.1-22-12.5-26.4-14.1c-1.1-0.4-2-0.9-2-1c0-0.2-0.7-0.4-1.5-0.6c-0.8-0.1-1.7-0.4-1.9-0.6c-0.2-0.2-1.7-0.8-3.2-1.4
		c-1.5-0.6-3.1-1.2-3.6-1.4c-0.4-0.2-3.2-1.1-6.2-2s-5.8-1.8-6.2-2c-0.4-0.2-1.5-0.4-2.4-0.6c-0.9-0.1-1.8-0.4-2-0.6
		c-0.2-0.2-2.7-0.8-5.6-1.4c-2.9-0.6-5.5-1.2-5.9-1.4c-0.4-0.2-1.4-0.4-2.2-0.4c-0.8,0-2.1-0.2-2.9-0.4C233.1,2.6,223,1.3,217.8,1
		c-2.5-0.1-4.6-0.4-4.6-0.6C213.2-0.1,187.7-0.1,187.4,0.3 M196.3,70.4c1.9,0.5,3.9,1,4.3,1.2c0.4,0.2,3.6,1,7.1,1.8
		c7.2,1.7,7,1.5,5.7,5.6c-0.3,1.1-1.6,6.1-2.8,11.1c-1.2,5.1-2.4,9.7-2.6,10.4c-0.2,0.7-0.8,2.8-1.2,4.8c-0.5,2-0.9,3.9-1,4.2
		c-0.2,0.8,0.7,1.1,8.2,2.8c7.5,1.7,8.4,1.9,8.6,1.6c0.2-0.4,5.8-22.4,6.2-24.8c0.2-1,0.6-2.8,1-4c0.3-1.2,0.8-3,1-3.9l0.4-1.7
		l1.7,0.3c2,0.3,12,2.8,14.8,3.6c1.1,0.3,2.1,0.6,2.4,0.6c3.5,0,3.9,1.1,2.5,6.2c-0.8,2.9-4.2,16.4-4.8,19.2c-0.3,1.3-1,4.3-1.6,6.5
		c-1.3,5.1-1.3,5.1,0.1,5.6c16.7,6.3,25.3,11.3,32.9,19c18.5,18.9,10.5,54.7-14,62.4c-1.2,0.4-2.4,0.8-2.7,0.9
		c-0.6,0.2,0.5,1.8,1.3,1.8c1.8,0,11.1,8,14.4,12.4c7.8,10.4,8.6,26.7,2,42c-10.2,23.5-27.1,32.7-55.9,30.3c-7.9-0.7-9.4-0.9-17-2.1
		c-2-0.3-3.8-0.6-3.8-0.5c-0.1,0.1-0.6,2.2-2.6,10.4c-2,8.3-2.8,11.5-3.2,12.8c-0.2,0.8-1,3.7-1.7,6.6c-1.7,7.2-1.6,7-4.6,5.8
		c-0.7-0.3-11.7-3-16.6-4.1c-3-0.7-3.1-0.9-2-5c0.5-1.9,1.1-4.5,1.4-5.7c1.4-5.8,2.9-12,3.3-13.2c1-3.1,2.9-12,2.8-12.5
		c-0.2-0.5-4.3-1.7-11.1-3.3c-1.2-0.3-2.8-0.7-3.6-1c-2-0.6-1.6-1.3-4,8.4c-0.4,1.7-1.3,5.2-2,8c-0.7,2.8-1.5,6-1.8,7.2
		c-0.3,1.2-0.9,3.7-1.4,5.6c-0.5,1.9-1,4-1.1,4.7c-0.3,1.9-2,1.7-11.1-0.8c-0.4-0.1-2.8-0.7-5.2-1.2c-5-1.1-6.6-1.7-6.6-2.3
		c0-0.4,2.5-10.6,3.2-13.1c0.2-0.8,0.9-3.6,1.6-6.4c0.7-2.8,1.8-7.2,2.4-10c1.7-6.8,1.7-6.5-0.7-7.1c-1.1-0.3-4.2-1.1-6.8-1.8
		c-2.6-0.7-5.8-1.5-7-1.8c-10.5-2.5-12.7-3.1-13.3-3.4c-0.4-0.2-1-0.4-1.4-0.4c-1,0-12.9-3-13.2-3.3c-0.1-0.1-0.1-0.7,0.2-1.2
		c0.2-0.5,1.1-2.4,1.9-4.3c0.8-1.9,1.7-3.9,2-4.6c0.3-0.7,1.8-4.3,3.4-8c3.5-8.3,3-7.7,6-6.8c1.4,0.4,4,1,5.7,1.4
		c1.8,0.4,4.4,1,5.8,1.4c7.5,1.9,10.8-0.3,12.6-8.2c0.3-1.2,1.2-4.8,2-8c0.8-3.2,1.6-6.4,1.8-7.2c1-4.2,2.9-12.1,3.4-13.8
		c0.3-1.1,1.2-4.7,2-8c0.8-3.3,1.7-6.9,2-8c0.3-1.1,1.2-4.7,2-8c0.8-3.3,1.6-6.5,1.8-7.2c0.2-0.7,1-3.9,1.8-7.2s1.7-6.9,2-8
		c0.3-1.1,1.2-4.8,2-8.2c0.8-3.4,1.7-7,2.1-8c1-2.8,0.8-7.8-0.3-9.8c-2.5-4.4-5.6-5.8-19.3-9c-6.3-1.5-6-1-4.7-6.2
		c1.5-5.8,1.9-7.5,3.3-13.2c1.5-6.3,1.5-6.3,5.1-5.3c3.3,0.9,8.7,2.3,12,3.1c1.6,0.4,7.2,1.8,12.4,3.1c11.8,3,15.4,3.8,16,3.6
		c0.4-0.1,5.8-20.6,7.2-26.9c0.5-2.6,1.9-7.8,2.2-8.2C192.1,69.5,192.3,69.5,196.3,70.4 M199.4,137.7c-0.3,0.7-1.6,6.1-2.4,9.3
		c-0.3,1.3-1.2,4.9-2,8s-1.7,6.7-2,8c-0.3,1.3-1.2,5.2-2.1,8.6c-2.3,9.2-2.3,8.7-1,9c0.6,0.1,1.7,0.4,2.5,0.6
		c0.8,0.2,2.4,0.6,3.6,0.9c1.2,0.3,3,0.7,4,1c10.2,2.6,24.7,3.5,30.8,1.9c14.6-3.9,19.5-21,9.2-31.8c-6.3-6.5-16.6-10.9-35.7-15.2
		C199.7,137.1,199.6,137.1,199.4,137.7 M182.5,205.1c-0.5,2.3-1.6,6.6-3.3,13.3c-0.7,2.8-1.4,5.8-1.6,6.8c-0.2,1-0.5,2.2-0.7,2.8
		s-0.8,2.7-1.2,4.8s-1.1,4.7-1.4,5.8c-3.2,11.4-3.3,12.4-1.3,12.8c0.7,0.1,2.2,0.5,3.3,0.8c8.3,2.4,15.3,3.8,26.8,5.4
		c4.3,0.6,14.8,0.3,18.6-0.6c20.4-4.6,23.2-28.5,4.6-39.5c-3.6-2.1-7.9-4.3-9.4-4.8c-0.8-0.3-1.6-0.6-1.8-0.8c-1.4-1-15-5-26.8-7.8
		C182.6,202.9,183,202.9,182.5,205.1"/>
	<path id="path2" class="st1" d="M183.2,0.4c-6.1,0.5-6.6,0.7-1,0.5c2.6-0.1,5-0.4,5.2-0.6s0.3-0.3,0.2-0.3
		C187.5,0.1,185.5,0.3,183.2,0.4 M213.2,0.4c0,0.3,9.2,0.9,9.5,0.6c0.1-0.1-0.5-0.2-1.3-0.3c-0.9,0-3.1-0.2-4.9-0.3
		S213.2,0.3,213.2,0.4 M172.8,1.5c-1,0.1-1.9,0.3-2.1,0.5c-0.3,0.3,4.6-0.1,6.1-0.5C177.5,1.3,175.2,1.3,172.8,1.5 M225.2,1.6
		c1,0.2,2.4,0.3,3.2,0.3c1.1,0,1-0.1-0.6-0.3C225.1,1.2,222.8,1.2,225.2,1.6 M163.6,3.2c-1.4,0.3-1.4,0.3-0.2,0.3
		c0.7,0,1.6-0.1,2-0.3C166.4,2.8,165.6,2.8,163.6,3.2 M235.2,3.2c0.6,0.2,1.4,0.3,2,0.3c0.9,0,0.9,0-0.2-0.3
		C235.3,2.8,233.9,2.8,235.2,3.2 M240.2,4c0.1,0.2,1,0.4,1.9,0.6c0.9,0.1,2.2,0.4,2.7,0.5c0.6,0.1,0.9,0.1,0.8,0
		C245.2,4.7,240,3.7,240.2,4 M158,4.2c-0.1,0.1-1.7,0.5-3.6,0.8c-1.9,0.4-3.5,0.8-3.7,1c-0.3,0.3,4.2-0.6,8.1-1.6
		c1.2-0.3,1.2-0.3,0.4-0.4C158.6,4,158.1,4.1,158,4.2 M247,5.5c0.4,0.1,1.4,0.3,2.2,0.5c0.9,0.2,1.2,0.2,1,0
		c-0.2-0.2-1.2-0.5-2.2-0.5C247,5.4,246.6,5.4,247,5.5 M251.8,6.8c0.2,0.2,1.1,0.5,2,0.6c1.8,0.3,1.5,0.1-0.8-0.5
		C252.2,6.6,251.6,6.6,251.8,6.8 M256.2,7.9c0.6,0.5,3.8,1.4,4.1,1.1c0.1-0.1,0.1-0.2-0.1-0.2c-0.2,0-1.3-0.3-2.4-0.6
		C256.7,7.9,256,7.7,256.2,7.9 M142,8.4c-0.4,0.3-0.3,0.3,0.6,0.1c1.5-0.3,1.8-0.6,0.8-0.6C142.9,8,142.3,8.2,142,8.4 M138.9,9.3
		c-0.7,0.2-1.3,0.5-1.2,0.6s1-0.1,1.9-0.4C141.6,8.8,140.9,8.7,138.9,9.3 M265.4,11c0.7,0.3,1.5,0.5,1.8,0.5c0.3,0,0-0.3-0.8-0.6
		C264.6,10.3,263.9,10.3,265.4,11 M268.4,11.8c0,0.3,2.1,1,2.3,0.8c0.1-0.1-0.4-0.4-1.1-0.6C268.9,11.8,268.4,11.7,268.4,11.8
		 M127.8,13.4c-0.8,0.6-0.8,0.6,0,0.3c0.4-0.2,1.1-0.5,1.4-0.6c0.5-0.2,0.5-0.2,0-0.3C128.8,12.8,128.2,13.1,127.8,13.4 M120.2,16.4
		c-0.9,0.4-1.4,0.8-1.1,0.8c0.6,0,2.9-1.1,2.9-1.4C122,15.6,122.1,15.5,120.2,16.4 M281.2,17.1c0.3,0.1,1,0.4,1.4,0.6
		c0.8,0.4,0.8,0.4,0-0.3c-0.4-0.3-1.1-0.6-1.4-0.6C280.7,16.9,280.7,16.9,281.2,17.1 M286.4,19.3c0.6,0.5,4.8,2.6,4.8,2.5
		c0-0.3-4.1-2.6-4.6-2.6C286.4,19.2,286.3,19.3,286.4,19.3 M111.4,20.4c-0.9,0.4-1.8,1-2,1.2c-0.2,0.2,0.5-0.1,1.7-0.6
		c1.2-0.6,2.1-1.1,2.1-1.2C113.2,19.5,113.2,19.5,111.4,20.4 M292.4,22.6c0.6,0.3,1.2,0.6,1.4,0.6s0-0.3-0.6-0.6
		c-0.6-0.3-1.2-0.6-1.4-0.6S291.9,22.3,292.4,22.6 M104.8,24c-0.8,0.4-1.3,0.8-1.1,0.8c0.4,0,2.7-1.2,2.7-1.4
		C106.4,23.1,106.4,23.1,104.8,24 M294.8,23.7c0.7,0.5,4,2.3,4,2.1c0-0.3-3.4-2.2-3.8-2.2C294.8,23.6,294.7,23.7,294.8,23.7
		 M97.1,28.3C96,29,95,29.7,94.7,30c-0.3,0.3,0.6-0.2,2-1c1.4-0.8,2.5-1.5,2.5-1.6C99.2,27.1,99.1,27.2,97.1,28.3 M308.4,31.7
		c0.9,0.9,3.9,2.5,3.2,1.7c-0.3-0.4-0.7-0.6-0.9-0.6c-0.2,0-1-0.4-1.7-0.9C308.4,31.5,308.1,31.4,308.4,31.7 M86.1,35.4
		c-1.4,1-2.4,1.8-2.2,1.8c0.4,0,4.9-3.1,4.9-3.4C88.8,33.5,88.8,33.5,86.1,35.4 M316.1,36.9c1.9,1.5,2.7,2,2.7,1.8
		c0-0.2-3.9-3.1-4.2-3.1C314.5,35.6,315.1,36.2,316.1,36.9 M82,38.4c-0.7,0.5-0.7,0.7-0.2,0.4c1.3-0.7,2-1.2,1.6-1.2
		C83.2,37.6,82.6,38,82,38.4 M319.2,38.9c0,0.1,0.8,0.9,1.9,1.7c1,0.8,1.8,1.3,1.6,1.1C322.3,41.2,319.2,38.6,319.2,38.9 M75.6,43.2
		c-1.1,0.9-2,1.7-2,1.8s0.9-0.5,1.9-1.3c2.6-2.1,2.7-2.1,2.4-2.1C77.8,41.6,76.8,42.3,75.6,43.2 M324.9,43.5c0.3,0.5,2.7,2.2,2.7,2
		c0-0.1-0.7-0.7-1.5-1.3C325.3,43.6,324.8,43.3,324.9,43.5 M71.6,46.5c-0.8,0.7-2.2,2-3.2,2.8c-1,0.9-1.4,1.4-1,1.1
		c0.9-0.5,6.1-5.2,5.8-5.2C73.1,45.2,72.4,45.8,71.6,46.5 M334.2,51.2c1,1.2,10.2,9.8,10.2,9.5c0-0.1-2.5-2.5-5.5-5.3
		C335.9,52.5,333.8,50.6,334.2,51.2 M64.4,53c-1,1-1.7,1.8-1.6,1.8s1-0.8,2-1.8c1-1,1.7-1.8,1.6-1.8C66.3,51.2,65.4,52,64.4,53
		 M60.4,56.8l-1.8,1.6l1.9-1.5c1-0.8,1.9-1.6,1.9-1.6C62.4,55,62,55.3,60.4,56.8 M57,60.1l-1.2,1.3l1.3-1.2c1.2-1.1,1.5-1.4,1.2-1.4
		C58.2,58.8,57.6,59.4,57,60.1 M347.4,64.4c1.6,1.7,3,3.4,3.3,3.8c0.2,0.4,0.6,0.7,0.7,0.5c0.1-0.1-1.3-1.9-3.3-3.8
		C345.5,62.2,345.3,62.1,347.4,64.4 M53.4,64.1l-1.2,1.3l1.3-1.2c1.2-1.1,1.5-1.4,1.2-1.4C54.6,62.8,54,63.4,53.4,64.1 M47.9,70.1
		l-2.7,3.3l2.4-2.6c2.1-2.2,3.5-4,3.1-4C50.7,66.8,49.4,68.3,47.9,70.1 M191.6,70.4c-0.2,0.4-0.4,1-0.4,1.3c0,0.3,0.2,0,0.4-0.6
		c0.4-1,0.6-1.1,1.5-0.9c3,0.6,3.3,0.6,1.8,0.1C192.8,69.4,192.1,69.5,191.6,70.4 M199.4,71.6c1.1,0.5,1.5,0.5,1.2,0
		c-0.1-0.2-0.6-0.4-1.1-0.4C198.6,71.3,198.6,71.3,199.4,71.6 M204.2,72.8c0.4,0.2,1.2,0.3,1.6,0.3c0.6,0,0.6-0.1-0.2-0.3
		C204.2,72.4,203.2,72.4,204.2,72.8 M355.6,74c0.7,0.9,1.3,1.6,1.4,1.6c0.3,0-2-3.2-2.4-3.2C354.5,72.4,354.9,73.1,355.6,74
		 M43.5,75.3c-1.3,1.6-2.4,3.3-1.6,2.5c0.9-1,3.4-4.2,3.2-4.2C44.9,73.6,44.2,74.4,43.5,75.3 M209,73.9c0.4,0.2,1.4,0.5,2.2,0.6
		c1,0.2,1.1,0.1,0.6-0.1c-0.4-0.2-1.4-0.5-2.2-0.6C208.6,73.7,208.5,73.7,209,73.9 M189.9,76.8c-0.3,1.7,0,2,0.3,0.3
		c0.2-0.7,0.2-1.3,0.1-1.4C190.2,75.7,190,76.1,189.9,76.8 M359.8,79.2c0.5,0.9,3.8,5.2,4,5.2c0.2,0-2.1-3.2-3.5-4.8
		C359.9,79.1,359.7,78.9,359.8,79.2 M230.8,81.2c-0.2,0.9-0.4,1.8-0.3,1.9c0.1,0.1,0.4-0.6,0.6-1.5c0.2-0.9,0.4-1.8,0.3-1.9
		C231.3,79.6,231,80.3,230.8,81.2 M236.2,80.8c0.4,0.2,1.2,0.3,1.6,0.3c0.6,0,0.6-0.1-0.2-0.3C236.2,80.4,235.2,80.4,236.2,80.8
		 M38.2,82.2c-0.4,0.6-0.6,1.1-0.5,1.2c0.1,0.1,0.5-0.4,0.9-1C39.4,80.9,39.1,80.8,38.2,82.2 M212.2,82.4c-0.2,0.7-0.2,1.3-0.1,1.4
		c0.1,0.1,0.3-0.4,0.4-1.1C212.9,81.1,212.6,80.8,212.2,82.4 M241,82c0.4,0.2,1.1,0.3,1.4,0.3c0.4,0,0.3-0.1-0.2-0.3
		c-0.4-0.2-1.1-0.3-1.4-0.3C240.4,81.7,240.5,81.8,241,82 M245.2,82.9c0.1,0.1,0.7,0.3,1.4,0.4c0.9,0.2,1,0.2,0.6-0.1
		C246.7,82.9,244.8,82.6,245.2,82.9 M187.8,85.2c-0.2,0.7-0.2,1.3-0.1,1.4c0.1,0.1,0.3-0.4,0.4-1.1
		C188.5,83.9,188.2,83.6,187.8,85.2 M252.2,84.8c0.4,0.2,0.9,0.7,1.1,1.3l0.3,1l0-1.1c0-1-0.6-1.6-1.7-1.5
		C251.6,84.4,251.8,84.6,252.2,84.8 M34.8,87.1c-1,1.4-1,1.6-0.2,0.7c1.1-1.2,2-2.6,1.7-2.6C36.2,85.2,35.6,86.1,34.8,87.1
		 M229.4,86.4c-0.2,0.7-0.2,1.3-0.1,1.4c0.1,0.1,0.3-0.4,0.4-1.1C230.1,85.1,229.8,84.8,229.4,86.4 M210.6,88.4
		c-0.3,1.7,0,2,0.4,0.4c0.2-0.7,0.2-1.3,0.1-1.4C211,87.3,210.8,87.7,210.6,88.4 M252.5,89c-0.2,1.1-0.4,2-0.3,2.1
		c0.2,0.2,1.1-3.2,0.9-3.6C253,87.3,252.8,88,252.5,89 M366.4,88.2c0.7,1.3,1.2,2,1.2,1.6c0-0.2-0.4-0.9-0.8-1.4
		C366.2,87.7,366.1,87.7,366.4,88.2 M186.2,91.2c-0.3,1.7,0,2,0.4,0.3c0.2-0.7,0.2-1.3,0.1-1.4C186.6,90.1,186.4,90.5,186.2,91.2
		 M228,92.4c-0.2,0.9-0.4,1.8-0.3,1.9c0.1,0.1,0.4-0.6,0.6-1.5c0.2-0.9,0.4-1.8,0.3-1.9C228.5,90.8,228.2,91.5,228,92.4 M369.5,93.2
		c0.4,0.7,1,1.4,1.3,1.7c0.3,0.3,0.1-0.3-0.6-1.2C368.9,91.7,368.4,91.4,369.5,93.2 M209.2,94.2c-0.3,1-0.4,1.9-0.3,2
		c0.1,0.1,0.4-0.7,0.6-1.7c0.3-1,0.4-1.9,0.3-2C209.8,92.4,209.5,93.2,209.2,94.2 M251.4,93.6c-0.2,0.7-0.2,1.3-0.1,1.4
		c0.1,0.1,0.3-0.4,0.4-1.1C252.1,92.3,251.8,92,251.4,93.6 M29.7,94.9c-0.6,0.7-1.4,2.3-1.2,2.3c0.1,0,0.5-0.6,1-1.4
		C30.4,94.4,30.4,94,29.7,94.9 M138.3,95.1c-0.1,0.2-0.3,1-0.4,1.9l-0.2,1.6l0.4-1.7l0.5-1.7l1.8,0.2c1.2,0.1,1.6,0.1,1-0.1
		C140.4,94.8,138.5,94.7,138.3,95.1 M184.8,97c-0.3,1-0.4,1.9-0.3,2c0.1,0.1,0.4-0.7,0.6-1.7c0.3-1,0.4-1.9,0.3-2
		C185.4,95.2,185.1,96,184.8,97 M227,96.4c-0.2,0.7-0.2,1.3-0.1,1.4c0.1,0.1,0.3-0.4,0.4-1.1C227.7,95.1,227.4,94.8,227,96.4
		 M144.8,96.4c1.4,0.4,2.4,0.4,1.4,0c-0.4-0.2-1.2-0.3-1.6-0.3C144,96.1,144,96.1,144.8,96.4 M155.4,99c1.1,0.3,2.1,0.5,2.1,0.4
		c0.2-0.2-2.8-1-3.5-1C153.7,98.5,154.3,98.7,155.4,99 M372.8,98.6c0,0.2,0.4,0.8,0.8,1.4c0.5,0.7,0.7,0.7,0.4,0.2
		C373.4,98.9,372.8,98.2,372.8,98.6 M208,99.3c0,0.4-0.2,1-0.3,1.4c-0.2,0.7-0.2,0.7,0.2,0c0.3-0.4,0.4-1,0.3-1.4
		C208.1,98.7,208.1,98.7,208,99.3 M249.8,99.8c-0.1,0.6-0.2,1.1-0.1,1.2c0.1,0.1,0.3-0.3,0.4-0.9c0.1-0.6,0.2-1.1,0.1-1.2
		C250.2,98.8,250,99.2,249.8,99.8 M183.8,101c-0.2,0.8-0.2,1.5-0.1,1.6c0.1,0.1,0.3-0.5,0.5-1.3c0.2-0.8,0.2-1.5,0.1-1.6
		C184.2,99.6,184,100.2,183.8,101 M136.8,100.9c0,0.4-0.1,1-0.3,1.4c-0.2,0.7-0.2,0.7,0.2,0c0.3-0.4,0.4-1,0.3-1.4
		C136.9,100.3,136.9,100.3,136.8,100.9 M165.4,101.6c0.4,0.2,1.1,0.3,1.4,0.3c0.4,0,0.3-0.1-0.2-0.3c-0.4-0.2-1.1-0.3-1.4-0.3
		C164.8,101.3,164.9,101.4,165.4,101.6 M225.4,102.6c-0.1,0.6-0.2,1.1-0.1,1.2c0.1,0.1,0.3-0.3,0.4-0.9c0.1-0.6,0.2-1.1,0.1-1.2
		C225.8,101.6,225.6,102,225.4,102.6 M170.2,102.8c0.4,0.2,1.1,0.3,1.4,0.3c0.4,0,0.3-0.1-0.2-0.3c-0.4-0.2-1.1-0.3-1.4-0.3
		C169.6,102.5,169.7,102.6,170.2,102.8 M206.6,104.6c-0.1,0.8-0.2,1.5-0.1,1.6c0.1,0.1,0.3-0.5,0.5-1.3c0.2-0.8,0.2-1.5,0.1-1.6
		C207,103.2,206.8,103.8,206.6,104.6 M23.9,105c-0.4,0.8-0.6,1.4-0.5,1.4c0.3,0,1.5-2.4,1.3-2.6C24.6,103.7,24.2,104.2,23.9,105
		 M248.6,104.6c-0.1,0.6-0.2,1.1-0.1,1.2c0.1,0.1,0.3-0.3,0.4-0.9c0.1-0.6,0.2-1.1,0.1-1.2C249,103.6,248.8,104,248.6,104.6
		 M175.6,104.1c0.1,0.1,0.9,0.3,1.8,0.4c1.1,0.2,1.4,0.1,0.8-0.1C177.4,104.1,175.3,103.8,175.6,104.1 M182,105.2l-1,0.3l1.1,0
		c0.6,0,1.1-0.1,1.1-0.4c0-0.2,0-0.4-0.1-0.4C183,104.9,182.6,105,182,105.2 M135.4,106.2c-0.1,0.4-0.2,1-0.2,1.3
		c0,0.4,0.2,0.1,0.4-0.5C136,105.8,135.9,105.1,135.4,106.2 M224.2,107.6c-0.2,0.7-0.2,1.3-0.1,1.4c0.1,0.1,0.3-0.4,0.4-1.1
		C224.9,106.3,224.6,106,224.2,107.6 M205.7,108.5c-0.5,1.9-0.4,2.1,1.1,2.5l1,0.2l-1-0.5c-0.6-0.3-1-0.5-1.1-0.5
		c0,0,0.1-0.7,0.3-1.6c0.2-0.8,0.3-1.6,0.2-1.7C206.2,106.9,205.9,107.5,205.7,108.5 M247.2,110.5c0,0.4-0.2,1-0.3,1.4
		c-0.2,0.7-0.2,0.7,0.2,0c0.3-0.4,0.4-1,0.3-1.4C247.3,109.9,247.3,109.9,247.2,110.5 M134,111.9c-0.2,0.8-0.4,1.8-0.4,2.1
		s0.3-0.3,0.6-1.4c0.3-1.1,0.5-2.1,0.4-2.1C134.5,110.4,134.3,111,134,111.9 M20.1,112.1c-0.3,0.5-0.4,0.9-0.3,1
		c0.1,0.1,0.4-0.2,0.7-0.7C21,111.3,20.7,111,20.1,112.1 M210.8,112c0.6,0.2,1.4,0.3,1.8,0.3c0.6,0,0.6-0.1-0.2-0.3
		c-0.5-0.2-1.4-0.3-1.8-0.3C210,111.7,210,111.7,210.8,112 M217,113.4c1.1,0.3,2.2,0.5,2.4,0.5c0.7-0.1-2.7-1.1-3.6-1.1
		C215.4,112.9,215.9,113.1,217,113.4 M222.7,113.5c-0.2,0.7-0.5,0.8-1.4,0.7c-1.1-0.1-1.1-0.1-0.1,0.2c1.1,0.4,2.2-0.3,1.9-1.2
		C223,112.8,222.9,112.9,222.7,113.5 M246,115.2c-0.3,1.1-0.4,2.1-0.3,2.2c0.1,0.1,0.4-0.8,0.7-1.9c0.3-1.1,0.4-2.1,0.3-2.2
		C246.6,113.2,246.3,114.1,246,115.2 M133.1,116.1c-0.3,1.7-0.3,2.8,0.1,2.7c0.2,0,0.3-0.9,0.4-2
		C133.6,114.5,133.4,114.3,133.1,116.1 M17.3,117.9c-0.1,0.4-0.6,1.5-1,2.5c-0.9,2.1-0.9,2.7-0.1,1.1c0.8-1.4,1.8-4.3,1.5-4.3
		C17.7,117.2,17.5,117.5,17.3,117.9 M135,119.2c0.4,0.2,1.2,0.3,1.6,0.3c0.6,0,0.6-0.1-0.2-0.3C135,118.8,134,118.8,135,119.2
		 M244.9,120.3c-0.1,0.8,1.3,2,1.8,1.6c0.1-0.1-0.2-0.3-0.6-0.5c-0.4-0.1-0.9-0.7-1-1.1l-0.2-0.9L244.9,120.3 M141.6,120.8
		c1.4,0.4,2.4,0.4,1.4,0c-0.4-0.2-1.2-0.3-1.6-0.3C140.8,120.5,140.8,120.5,141.6,120.8 M247.6,122.4c0.3,0.2,1,0.5,1.6,0.6l1,0.3
		l-1-0.6c-0.6-0.3-1.3-0.6-1.6-0.6C247.1,122,247.1,122.1,247.6,122.4 M384.8,122.1c0,0.5,1.7,4.9,2.1,5.3c0.2,0.2-0.1-0.9-0.7-2.4
		C385.2,122.4,384.8,121.5,384.8,122.1 M14.9,124c-0.2,0.7-0.3,1.2-0.2,1.2c0.3,0,1-2.1,0.8-2.3C15.4,122.8,15.1,123.3,14.9,124
		 M149.6,122.9c0.1,0.1,0.8,0.4,1.6,0.7c0.8,0.3,1.2,0.3,1,0.1c-0.2-0.2-0.9-0.5-1.6-0.7C149.9,122.8,149.5,122.8,149.6,122.9
		 M250.8,123.5c0.3,0.2,1.1,0.5,1.6,0.6c0.7,0.2,0.8,0.2,0.4-0.1c-0.3-0.2-1.1-0.5-1.6-0.6C250.5,123.2,250.4,123.3,250.8,123.5
		 M254.4,125c0.6,0.3,1.2,0.6,1.4,0.6c0.2,0-0.1-0.3-0.6-0.6s-1.2-0.6-1.4-0.6S253.9,124.7,254.4,125 M258.8,127
		c1.4,0.7,2.8,1.4,3,1.4s-0.8-0.6-2.2-1.4s-2.8-1.4-3-1.4S257.4,126.3,258.8,127 M13.2,128c-0.2,0.5-0.4,1-0.3,1.2
		c0.1,0.2,0.3-0.2,0.6-0.8C14,127,13.8,126.8,13.2,128 M157.4,128.8c0.3,0.7,0.7,1.2,0.8,1.2s-0.1-0.5-0.4-1.2s-0.7-1.2-0.8-1.2
		S157.1,128.1,157.4,128.8 M387.2,128.4c0,0.6,1.1,2.9,1.2,2.3c0-0.1-0.2-0.9-0.6-1.6C387.5,128.4,387.2,128.1,387.2,128.4
		 M262.4,128.5c0,0.1,1,0.8,2.3,1.5c1.3,0.7,2.8,1.6,3.3,1.9l1,0.6l-1-0.8C266.9,130.8,262.4,128.2,262.4,128.5 M158.6,133.7
		c0,2.5,0.1,2.9,0.4,1.9c0.2-0.7,0.2-2,0-3.1C158.6,130.7,158.6,130.7,158.6,133.7 M388.8,132.8c0.6,1.8,0.9,2.1,0.6,0.6
		c-0.2-0.7-0.5-1.4-0.7-1.6C388.5,131.6,388.6,132,388.8,132.8 M269.2,132.5c0.2,0.2,3.9,3,4.8,3.6c0.3,0.2-0.1-0.2-1-1
		C271.7,133.9,268.5,131.8,269.2,132.5 M389.6,135.2c0,0.3,0.2,1.1,0.5,1.8c0.7,1.5,0.7,0.8,0-1
		C389.9,135.2,389.7,134.9,389.6,135.2 M278.2,140c2,2.1,4,4.3,4.5,5l0.9,1.2l-0.9-1.4c-1-1.6-3.3-4.1-6.2-6.8
		C275.5,137,276.2,137.9,278.2,140 M199,137.6c-0.1,0.5-0.2,0.9,0,1.1c0.1,0.1,0.2-0.1,0.2-0.4c0-0.4,0.3-0.8,0.7-1.1
		c0.6-0.4,0.6-0.4,0-0.4C199.6,136.8,199.1,137.2,199,137.6 M202,137.6c0.3,0.2,0.9,0.4,1.4,0.4c1,0,0.7-0.2-0.8-0.6
		C201.7,137.2,201.6,137.3,202,137.6 M157.6,139.2c-0.2,0.7-0.4,1.6-0.4,1.9c0,0.4,0.3-0.2,0.6-1.1
		C158.4,138,158.3,137.3,157.6,139.2 M207.4,138.7c0.4,0.2,1.4,0.5,2.2,0.6c1,0.2,1.1,0.1,0.6-0.1c-0.4-0.2-1.4-0.5-2.2-0.6
		C207,138.5,206.9,138.5,207.4,138.7 M9,139.8c-0.1,0.6-0.2,1.1-0.1,1.2c0.1,0.1,0.3-0.3,0.4-0.9c0.1-0.6,0.2-1.1,0.1-1.2
		C9.4,138.8,9.2,139.2,9,139.8 M391.3,140c0,0.3,0.2,1,0.3,1.4c0.2,0.5,0.3,0.6,0.3,0.2c0-0.3-0.2-1-0.3-1.4
		C391.4,139.7,391.3,139.6,391.3,140 M213.8,140.4c0.4,0.2,1.1,0.3,1.4,0.3c0.4,0,0.3-0.1-0.2-0.3c-0.4-0.2-1.1-0.3-1.4-0.3
		C213.2,140.1,213.3,140.2,213.8,140.4 M217.6,141.6c0.3,0.2,0.9,0.4,1.4,0.4c1,0,0.7-0.2-0.8-0.6
		C217.3,141.2,217.2,141.3,217.6,141.6 M8,143c-0.2,0.8-0.3,1.6-0.3,1.7c0.1,0.1,0.3-0.5,0.6-1.4c0.2-0.8,0.3-1.6,0.3-1.7
		S8.3,142.2,8,143 M222.3,143c0.7,0.3,1.5,0.6,1.6,0.6c0.5,0-1.8-1.2-2.3-1.2C221.3,142.4,221.6,142.7,222.3,143 M156.2,144.9
		c-0.3,1.7,0,2,0.4,0.3c0.2-0.7,0.2-1.3,0.1-1.4C156.6,143.7,156.4,144.1,156.2,144.9 M225.6,144.2c0.5,0.3,1.2,0.6,1.4,0.6
		s-0.1-0.3-0.6-0.6c-0.5-0.3-1.2-0.6-1.4-0.6S225.1,143.9,225.6,144.2 M196.2,148.6c-0.1,0.6-0.2,1.2-0.1,1.3s0.3-0.3,0.5-0.9
		c0.1-0.6,0.2-1.2,0.1-1.3S196.4,148,196.2,148.6 M234,148.3c0.5,0.4,1.8,1.3,2.8,2l1.8,1.3l-1.5-1.3c-0.8-0.7-2.1-1.6-2.8-2
		C233.1,147.6,233,147.6,234,148.3 M393.8,148.6c0.6,2.8,1.1,4.3,1.2,4.1c0.2-0.2-1-4.8-1.3-5.1
		C393.6,147.5,393.6,147.9,393.8,148.6 M155,149.8c-0.1,0.6-0.2,1.1-0.1,1.2c0.1,0.1,0.3-0.3,0.4-0.9c0.1-0.6,0.2-1.1,0.1-1.2
		C155.4,148.8,155.2,149.2,155,149.8 M286.2,151.2c0.1,0.6,0.4,1.3,0.6,1.6c0.3,0.4,0.3,0.3,0.1-0.4c-0.1-0.5-0.4-1.3-0.6-1.6
		C286.1,150.4,286,150.5,286.2,151.2 M5.4,152.4c-0.2,0.9-0.2,1.7-0.1,1.8c0.1,0.1,0.3-0.6,0.5-1.5c0.1-0.9,0.2-1.7,0.1-1.8
		C5.8,150.8,5.6,151.5,5.4,152.4 M240.7,153.8c1.1,1.3,2.2,2.8,2.4,3.2c0.3,0.4,0.2,0.2-0.1-0.4c-0.3-0.7-1.4-2.1-2.4-3.2l-1.9-2
		L240.7,153.8 M195,153.6c-0.2,0.7-0.2,1.3-0.1,1.4c0.1,0.1,0.3-0.4,0.4-1.1C195.7,152.3,195.4,152,195,153.6 M153.6,155.6
		c-0.2,0.9-0.4,1.8-0.3,1.9c0.1,0.1,0.4-0.6,0.6-1.5c0.2-0.9,0.4-1.8,0.3-1.9C154.1,154,153.8,154.7,153.6,155.6 M287.7,155.2
		c0,0.3,0.2,1,0.3,1.4c0.2,0.5,0.3,0.6,0.3,0.2c0-0.3-0.2-1-0.3-1.4C287.8,154.9,287.7,154.8,287.7,155.2 M4.2,158
		c-0.2,0.9-0.2,1.7-0.1,1.8c0.1,0.1,0.3-0.6,0.5-1.5c0.1-0.9,0.2-1.7,0.1-1.8C4.6,156.4,4.4,157.1,4.2,158 M152.5,160.1
		c-0.3,1.1-0.4,2.1-0.3,2.2c0.1,0.1,0.4-0.8,0.7-1.9c0.3-1.1,0.4-2.1,0.3-2.2C153,158.1,152.7,158.9,152.5,160.1 M243.9,158.6
		c0.2,0.4,0.5,1.1,0.6,1.4c0.2,0.5,0.2,0.5,0.3,0c0-0.3-0.2-1-0.6-1.4C243.6,157.8,243.6,157.8,243.9,158.6 M396.9,162.3
		c0.5,3.2,0.8,3.6,0.5,0.7c-0.1-1.3-0.4-2.5-0.5-2.7C396.6,160.1,396.7,161,396.9,162.3 M288.9,165.6c0,4.3,0.1,4.9,0.3,3
		c0.2-1.3,0.2-3.8,0-5.4C289,160.5,288.9,160.8,288.9,165.6 M245.1,162.2c0.1,0.9,0.3,1.7,0.4,1.8c0.3,0.3,0.1-1.8-0.3-2.6
		C244.9,160.8,244.9,161.1,245.1,162.2 M3.2,163.4c0,0.4-0.2,1.2-0.3,1.8l-0.2,1l0.4-1c0.2-0.5,0.4-1.3,0.3-1.8
		C3.3,162.6,3.3,162.6,3.2,163.4 M192.4,164.1c0,0.4-0.1,1-0.3,1.4c-0.2,0.7-0.2,0.7,0.2,0c0.3-0.4,0.4-1,0.3-1.4
		C192.5,163.5,192.5,163.5,192.4,164.1 M151,166c-0.2,0.7-0.2,1.3-0.1,1.4c0.1,0.1,0.3-0.4,0.4-1.1C151.7,164.7,151.4,164.4,151,166
		 M398,169.2c0,0.6,0.1,1.3,0.3,1.4c0.2,0.1,0.2-0.4,0.2-1.2C398.3,167.7,398,167.6,398,169.2 M191,169.4c-0.1,0.6-0.2,1.1-0.1,1.2
		c0.1,0.1,0.3-0.3,0.4-0.9c0.1-0.6,0.2-1.1,0.1-1.2C191.4,168.4,191.2,168.8,191,169.4 M245,169.8c-0.2,0.8-0.2,1.5-0.1,1.7
		s0.3-0.5,0.5-1.3c0.2-0.8,0.2-1.5,0.1-1.7S245.2,169,245,169.8 M1.9,170.7c-0.1,0.2-0.3,1.8-0.4,3.7c-0.2,3.8-0.1,3.3,0.5-1.1
		C2.2,170.5,2.2,170.1,1.9,170.7 M288.5,172.8c0,0.8,0.1,1.1,0.2,0.7c0.1-0.4,0.1-1,0-1.4C288.6,171.7,288.5,172,288.5,172.8
		 M189.8,174.2c-0.1,0.4-0.2,1-0.2,1.3c0,0.4,0.2,0.1,0.4-0.5C190.4,173.8,190.3,173.1,189.8,174.2 M399.1,177.4
		c0.1,2,0.3,3.7,0.5,3.9c0.2,0.2,0.1-1.1,0-2.8C399,173.9,398.8,173.3,399.1,177.4 M148.4,176.2c-0.3,1-0.4,1.9-0.3,2
		c0.1,0.1,0.4-0.7,0.6-1.7c0.3-1,0.4-1.9,0.3-2C149,174.4,148.7,175.2,148.4,176.2 M287.9,175.6c-0.3,1.7,0,2,0.4,0.4
		c0.2-0.7,0.2-1.3,0.1-1.4C288.2,174.5,288,174.9,287.9,175.6 M241.3,178.6c-1.2,1.5-2.6,2.7-4.8,4c-1.7,1-2.9,1.8-2.7,1.8
		c1.6,0,7.8-4.9,9-7.3C243.5,175.9,243.1,176.3,241.3,178.6 M0.8,179.3c0,0.7-0.2,2.9-0.3,4.8c-0.1,1.9-0.2,3.4,0,3.2
		c0.3-0.4,0.9-9.3,0.6-9.3C0.9,178,0.8,178.6,0.8,179.3 M188.7,178.8c0,0.4-0.1,1-0.1,1.3c0,0.3,0.2,0.5,0.5,0.6
		c0.3,0.1,0.3,0,0.1-0.1c-0.2-0.1-0.3-0.7-0.2-1.4c0.1-0.6,0.1-1.2,0-1.2C188.9,178,188.8,178.4,188.7,178.8 M286.5,180.7
		c-0.6,1.9-0.3,2.2,0.3,0.3c0.3-0.8,0.4-1.5,0.3-1.6C287,179.3,286.7,179.9,286.5,180.7 M147,182c-0.2,0.7-0.2,1.3-0.1,1.4
		c0.1,0.1,0.3-0.4,0.4-1.1C147.7,180.7,147.4,180.4,147,182 M191,181.1c1.2,0.5,3.3,0.9,2.6,0.5c-0.3-0.2-1.2-0.5-2-0.6
		C190.7,180.9,190.5,180.9,191,181.1 M196.4,182.5c0.1,0.1,0.7,0.3,1.4,0.4c0.9,0.2,1,0.2,0.6-0.1
		C197.9,182.5,196,182.2,196.4,182.5 M285.2,183.9c-0.3,0.6-0.4,1.1-0.3,1.3s0.4-0.3,0.6-0.9C286.1,182.8,285.9,182.5,285.2,183.9
		 M202,184c0.3,0.2,1.1,0.4,1.8,0.4c1.5,0,1.2-0.2-0.8-0.5C201.9,183.7,201.6,183.7,202,184 M209.6,185.3c0.1,0.1,0.9,0.3,1.8,0.4
		c1.1,0.2,1.4,0.1,1-0.1C211.9,185.2,209.2,185,209.6,185.3 M228.4,185.6c-0.4,0.3-0.3,0.3,0.6,0.1c1.5-0.3,1.8-0.6,0.8-0.6
		C229.3,185.2,228.7,185.4,228.4,185.6 M145.6,187.4c-0.3,1-0.4,1.9-0.3,2c0.1,0.1,0.4-0.7,0.6-1.7c0.3-1,0.4-1.9,0.3-2
		C146.2,185.6,145.9,186.4,145.6,187.4 M218.1,186.3c1.5,0.1,3.8,0.1,5.2,0c1.4-0.1,0.1-0.1-2.7-0.1
		C217.7,186.2,216.6,186.2,218.1,186.3 M282.8,188.9c-0.3,0.5-1.1,1.7-1.8,2.6c-0.8,0.9-1.2,1.7-1,1.7c0.6,0,4.1-5.2,3.6-5.2
		C283.3,188,283,188.4,282.8,188.9 M144.6,191.6c-0.2,0.7-0.2,1.3-0.1,1.4c0.1,0.1,0.3-0.4,0.4-1.1C145.3,190.3,145,190,144.6,191.6
		 M277.8,195.1c-0.9,0.8-2.2,2-3,2.6c-0.8,0.6-1,0.9-0.5,0.7c0.9-0.4,5.7-4.8,5.3-4.8C279.5,193.6,278.7,194.3,277.8,195.1
		 M143,197.8c-0.2,0.8-0.2,1.5-0.1,1.6c0.1,0.1,0.3-0.5,0.5-1.3c0.1-0.8,0.2-1.5,0.1-1.6C143.4,196.4,143.2,197,143,197.8 M271,200
		c-1.1,0.6-1.8,1.2-1.6,1.2c0.4,0,3.8-2,3.8-2.2C273.2,198.7,273.2,198.7,271,200 M141.8,202.6c-0.1,0.6-0.2,1.1-0.1,1.2
		c0.1,0.1,0.3-0.3,0.4-0.9c0.1-0.6,0.2-1.1,0.1-1.2C142.2,201.6,142,202,141.8,202.6 M263.4,203.2c-0.5,0.2-0.6,0.3-0.2,0.3
		c0.3,0,1-0.2,1.4-0.3c0.5-0.2,0.6-0.3,0.2-0.3C264.5,202.9,263.8,203,263.4,203.2 M261.7,203.9c-0.4,0.2-0.2,0.5,0.6,1.1
		c1.1,0.7,1.1,0.7,0.4-0.1c-0.4-0.4-0.6-0.9-0.4-1.1C262.6,203.5,262.3,203.5,261.7,203.9 M189.4,204.6c1.1,0.3,2.3,0.5,2.6,0.5
		c0.3,0-0.3-0.3-1.4-0.6c-1.1-0.3-2.3-0.5-2.6-0.5C187.7,204.1,188.3,204.3,189.4,204.6 M181.8,206.4c-0.2,0.5-0.2,1-0.1,1.1
		s0.3-0.2,0.5-0.7c0.2-0.5,0.2-0.9,0.1-1.1S181.9,205.9,181.8,206.4 M264.2,206.1c1.9,1.3,3,1.9,3,1.8c0-0.3-3.1-2.3-3.5-2.3
		C263.6,205.6,263.8,205.8,264.2,206.1 M140.6,207.6c-0.2,0.7-0.2,1.3-0.1,1.4c0.1,0.1,0.3-0.4,0.4-1.1
		C141.3,206.3,141,206,140.6,207.6 M204.2,208.4c0.4,0.2,1.1,0.3,1.4,0.3c0.4,0,0.3-0.1-0.2-0.3c-0.4-0.2-1.1-0.3-1.4-0.3
		C203.6,208.1,203.7,208.2,204.2,208.4 M207.8,209.4c0.7,0.3,1.6,0.7,2.2,0.8c0.8,0.2,0.8,0.1-0.2-0.3c-0.7-0.3-1.7-0.7-2.2-0.8
		C206.8,208.9,206.8,208.9,207.8,209.4 M269.2,209.3c0,0.1,0.9,0.8,1.9,1.7c1,0.9,1.5,1.1,1.1,0.6
		C271.4,210.7,269.2,209,269.2,209.3 M180.5,211.8c-0.2,1.1-0.4,2-0.3,2.1c0.2,0.2,1.1-3.2,0.9-3.6
		C181,210.1,180.8,210.8,180.5,211.8 M212,210.7c0.3,0.2,1.1,0.5,1.6,0.6c0.7,0.2,0.8,0.2,0.4-0.1c-0.3-0.2-1.1-0.5-1.6-0.6
		C211.7,210.4,211.6,210.5,212,210.7 M214.8,211.8c0,0.3,2.1,1,2.3,0.8c0.1-0.1-0.4-0.4-1.1-0.6
		C215.3,211.8,214.8,211.7,214.8,211.8 M273.2,212.5c0,0.1,0.4,0.7,1,1.3c0.5,0.5,1,0.9,1,0.7c0-0.2-0.5-0.7-1-1.3
		C273.6,212.7,273.2,212.4,273.2,212.5 M139,214c-0.2,0.7-0.2,1.3-0.1,1.4c0.1,0.1,0.3-0.4,0.4-1.1C139.7,212.7,139.4,212.4,139,214
		 M0.4,215.6c0,1.4,0.2,3.7,0.4,5.2c0.2,1.8,0.2,1,0.1-2.4C0.7,213.2,0.4,211.2,0.4,215.6 M218.8,213.4c0,0.3,4,2.3,4.2,2.1
		c0.1-0.1-0.8-0.6-2-1.2C219.8,213.7,218.8,213.3,218.8,213.4 M179.4,216c-0.2,0.7-0.2,1.3-0.1,1.4c0.1,0.1,0.3-0.4,0.4-1.1
		C180.1,214.7,179.8,214.4,179.4,216 M224,216.1c0.7,0.7,3.6,2.4,3.6,2.2c0-0.1-0.9-0.8-2.1-1.5C224.3,216.1,223.7,215.8,224,216.1
		 M138,217.9c-0.2,0.8-0.4,1.8-0.4,2.1s0.3-0.3,0.6-1.4c0.3-1.1,0.5-2.1,0.4-2.1C138.5,216.4,138.3,217,138,217.9 M278.9,219.7
		c0.9,1.4,1.8,2.5,1.8,2.5c0.2-0.2-2.3-4-3-4.6C277.5,217.3,278,218.3,278.9,219.7 M231.1,221.4c1.6,1.5,3.6,3.7,4.3,4.8
		c0.8,1.1,1.4,1.9,1.4,1.7c0-1.1-4.4-5.9-7.6-8.5C228.6,219,229.5,219.8,231.1,221.4 M399.4,219.4c-0.1,0.3-0.2,1.4-0.1,2.5l0.1,1.9
		l0.2-2.5C399.8,218.8,399.7,218.3,399.4,219.4 M178,221.7c0,0.4-0.2,1-0.3,1.4c-0.2,0.7-0.2,0.7,0.2,0c0.3-0.4,0.4-1,0.3-1.4
		C178.1,221.1,178.1,221.1,178,221.7 M136.8,222.9c0,0.4-0.1,1-0.3,1.4c-0.2,0.7-0.2,0.7,0.2,0c0.3-0.4,0.4-1,0.3-1.4
		C136.9,222.3,136.9,222.3,136.8,222.9 M1.5,226.8c0.1,1.9,0.3,3.5,0.5,3.7s0.1-1,0-2.6C1.4,223.5,1.2,223,1.5,226.8 M398.9,225.6
		c0,1,0.1,1.4,0.2,0.9c0.1-0.5,0.1-1.3,0-1.8C399,224.2,398.9,224.6,398.9,225.6 M176.9,226.2c-0.2,1.1-0.4,2-0.3,2.1
		c0.2,0.2,1.1-3.1,0.9-3.6C177.4,224.5,177.2,225.2,176.9,226.2 M135.4,228.2c-0.1,0.4-0.2,1-0.2,1.3c0,0.4,0.2,0.1,0.4-0.5
		C136,227.8,135.9,227.1,135.4,228.2 M237.3,229.6c0.2,0.7,0.5,1.1,0.6,1.1c0.2-0.2-0.6-2.3-0.8-2.3
		C236.9,228.4,237,228.9,237.3,229.6 M283.9,232.2c0.1,1.1,0.3,2.1,0.4,2.2c0.3,0.3,0.1-2.6-0.3-3.4
		C283.8,230.5,283.7,230.9,283.9,232.2 M397.8,232.6c-0.1,1.2-0.2,2.3-0.1,2.4c0.1,0.1,0.3-0.8,0.5-2.1c0.2-1.2,0.2-2.3,0.1-2.4
		C398.2,230.5,398,231.4,397.8,232.6 M175.2,232.8c-0.2,1.1-0.4,2.2-0.3,2.3s0.4-0.8,0.6-1.9c0.2-1.1,0.4-2.2,0.3-2.3
		S175.5,231.7,175.2,232.8 M133.6,234.6c-0.5,1.2-1.3,2.4-1.7,2.7c-0.4,0.3-0.8,0.6-0.8,0.8s0.4,0,1-0.5c0.9-0.9,2.9-4.7,2.5-5.1
		C134.6,232.5,134.1,233.4,133.6,234.6 M238.6,236.8c0,4.1,0,4.4,0.3,2.3c0.2-1.3,0.2-3.3,0-4.6
		C238.6,232.4,238.6,232.7,238.6,236.8 M3.1,236.2c0.3,2,0.5,2.3,0.5,0.8c0-0.6-0.2-1.4-0.4-1.8C2.9,234.8,2.9,235.1,3.1,236.2
		 M284.5,238.2c0,2,0.1,2.8,0.1,1.9c0.1-0.9,0.1-2.5,0-3.6C284.6,235.5,284.5,236.2,284.5,238.2 M107.8,235.6
		c-0.4,0.7-0.1,0.7,1,0.1c1-0.5,1-0.5,0.1-0.5C108.4,235.2,107.9,235.4,107.8,235.6 M174.1,237.7c-0.2,0.9-0.4,1.8-0.3,1.9
		c0.1,0.1,0.4-0.6,0.6-1.5c0.2-0.9,0.4-1.8,0.3-1.9C174.6,236.1,174.3,236.7,174.1,237.7 M106.9,237.8c-0.7,1.5-0.5,1.8,0.2,0.4
		c0.3-0.6,0.5-1.2,0.4-1.3C107.4,236.9,107.1,237.3,106.9,237.8 M116.2,237.4c2.1,0.6,4.4,1.1,4.1,0.8c-0.3-0.3-4.7-1.4-5.3-1.3
		C114.8,236.9,115.3,237.1,116.2,237.4 M396.9,238.7c0,0.5-0.2,1.2-0.3,1.6c-0.2,0.7-0.2,0.7,0.2,0c0.3-0.4,0.4-1.1,0.3-1.6
		C396.9,237.8,396.9,237.8,396.9,238.7 M129.9,238.7c-0.1,0.1-0.9,0.4-1.8,0.6c-1.4,0.3-1.4,0.3-0.3,0.3c0.7,0,1.6-0.2,2.2-0.5
		s0.8-0.6,0.6-0.6C130.3,238.4,130,238.5,129.9,238.7 M123.4,239.2c0.8,0.3,3.3,0.6,3,0.3c-0.1-0.1-1-0.3-2-0.4
		C123.2,238.9,122.9,239,123.4,239.2 M4,241.7c0.5,2.5,0.8,2.8,0.5,0.7c-0.1-1-0.4-2-0.6-2.1C3.8,240.1,3.8,240.7,4,241.7
		 M172.9,242.5c-0.3,1.1-0.4,2.1-0.3,2.2c0.1,0.1,0.4-0.8,0.7-1.9c0.3-1.1,0.4-2.1,0.3-2.2C173.4,240.5,173.1,241.3,172.9,242.5
		 M284.1,243.6c0,1,0.1,1.4,0.2,0.9c0.1-0.5,0.1-1.3,0-1.8C284.2,242.2,284.1,242.6,284.1,243.6 M104.1,244.2
		c-0.7,1.5-0.5,1.8,0.2,0.4c0.3-0.6,0.5-1.2,0.4-1.3C104.6,243.3,104.3,243.7,104.1,244.2 M237.2,244.4c-0.2,0.7-0.4,1.4-0.3,1.4
		c0.1,0.1,0.4-0.4,0.6-1.1c0.2-0.7,0.4-1.4,0.3-1.4C237.8,243.2,237.5,243.7,237.2,244.4 M395.4,244.6c-0.1,0.3-0.2,1-0.1,1.5
		c0.1,0.7,0.2,0.5,0.4-0.6C395.8,243.9,395.7,243.6,395.4,244.6 M4.9,245.2c0,0.6,0.1,1.4,0.3,2c0.4,1.3,0.4-0.1,0-1.8
		C4.9,244.3,4.9,244.3,4.9,245.2 M102.9,247c-0.7,1.5-0.5,1.8,0.2,0.4c0.3-0.6,0.5-1.2,0.4-1.3C103.4,246.1,103.1,246.5,102.9,247
		 M235.5,248.2c-0.6,1-2.1,2.7-3.4,3.8c-1.2,1.1-1.9,1.8-1.4,1.6c1.6-0.8,6.5-6.6,6.1-7.1C236.6,246.5,236.1,247.2,235.5,248.2
		 M171.4,248.1c-0.3,1.7,0,2,0.4,0.3c0.2-0.7,0.2-1.3,0.1-1.4C171.8,246.9,171.6,247.3,171.4,248.1 M394.2,250.3
		c-0.1,0.6-0.6,2.4-1,3.9c-0.4,1.5-0.7,2.8-0.6,2.9c0.2,0.2,1.2-3.1,1.8-5.9c0.2-1,0.3-1.9,0.2-1.9
		C394.5,249.2,394.3,249.6,394.2,250.3 M282.6,250.9c-0.1,0.7-0.2,1.4-0.1,1.4c0.1,0.1,0.3-0.4,0.4-1.1c0.2-0.7,0.2-1.3,0.1-1.4
		C283,249.7,282.8,250.1,282.6,250.9 M174.2,251.9c1.2,0.5,3.3,0.9,2.6,0.5c-0.3-0.2-1.2-0.5-2-0.6
		C173.9,251.7,173.7,251.7,174.2,251.9 M6.9,253c0,0.4,0.1,1.2,0.3,1.6c0.4,1,0.4,0,0-1.4C6.9,252.4,6.9,252.4,6.9,253 M178.8,253.2
		c1.4,0.4,2.4,0.4,1.4,0c-0.4-0.2-1.2-0.3-1.6-0.3C178,252.9,178,252.9,178.8,253.2 M183.6,254.4c0.3,0.2,1,0.4,1.6,0.4
		c1.3,0,1-0.2-0.8-0.5C183.4,254.1,183.2,254.1,183.6,254.4 M228,254.8c-0.8,0.4-1.3,0.8-1.1,0.8c0.4,0,2.7-1.2,2.7-1.4
		C229.6,253.9,229.6,253.9,228,254.8 M281.2,255.6c-0.2,0.7-0.4,1.5-0.4,1.7c0,0.2,0.3-0.3,0.6-1.1c0.3-0.9,0.5-1.6,0.4-1.7
		C281.8,254.4,281.5,254.9,281.2,255.6 M98.9,256.2c-0.7,1.5-0.5,1.8,0.2,0.4c0.3-0.6,0.5-1.2,0.4-1.3
		C99.4,255.3,99.1,255.7,98.9,256.2 M8,257.4c0.7,2.1,0.9,2.4,0.6,1c-0.1-0.8-0.4-1.6-0.6-1.8C7.7,256.4,7.7,256.6,8,257.4
		 M222.4,256.8c-0.8,0.3-0.8,0.3-0.2,0.3c0.4,0,1.2-0.1,1.6-0.3C224.8,256.4,223.8,256.4,222.4,256.8 M199.5,257.5
		c0.5,0.1,1.3,0.1,1.8,0c0.5-0.1,0.1-0.2-0.9-0.2C199.4,257.3,199,257.4,199.5,257.5 M208.5,258.3c1.3,0.1,3.3,0.1,4.6,0
		c1.3-0.1,0.2-0.1-2.3-0.1S207.2,258.2,208.5,258.3 M280,259c-0.3,0.6-0.4,1.1-0.3,1.3s0.4-0.3,0.6-0.9s0.4-1.2,0.3-1.3
		C280.6,258.1,280.3,258.5,280,259 M391.4,259.8c-0.1,0.6-0.2,1.1-0.1,1.2c0.1,0.1,0.3-0.3,0.4-0.9c0.1-0.6,0.2-1.1,0.1-1.2
		C391.8,258.8,391.6,259.2,391.4,259.8 M97.4,259.8c-0.3,0.8,0.1,1.4,0.9,1.4c0.6,0,0.5-0.1-0.1-0.5c-0.4-0.3-0.6-0.7-0.5-1
		c0.2-0.3,0.2-0.5,0-0.5C97.7,259.2,97.5,259.5,97.4,259.8 M278.7,262.5c-0.4,0.9-0.6,1.7-0.5,1.8c0.1,0.1,0.4-0.6,0.8-1.5
		c0.4-0.9,0.6-1.7,0.5-1.8C279.4,260.9,279,261.5,278.7,262.5 M102.8,262.1c0.1,0.1,0.7,0.3,1.4,0.4c0.9,0.2,1,0.2,0.6-0.1
		C104.3,262.1,102.4,261.8,102.8,262.1 M108.2,263.6c0.4,0.2,1.2,0.3,1.6,0.3c0.6,0,0.6-0.1-0.2-0.3
		C108.2,263.2,107.2,263.2,108.2,263.6 M390,264.4c-0.2,0.7-0.4,1.4-0.3,1.4c0.1,0.1,0.4-0.4,0.6-1.1c0.2-0.7,0.4-1.4,0.3-1.4
		C390.6,263.2,390.3,263.7,390,264.4 M111.8,264.4c0.2,0.2,1.1,0.5,2,0.6c1.8,0.3,1.5,0.1-0.8-0.5
		C112.2,264.2,111.6,264.2,111.8,264.4 M10.4,265c0,0.2,0.3,0.9,0.6,1.4c0.3,0.6,0.6,0.8,0.6,0.6s-0.3-0.9-0.6-1.4
		C10.7,265,10.4,264.8,10.4,265 M276.6,266.8c-0.6,1.1-0.9,2-0.8,2c0.1,0,0.7-0.9,1.2-2c0.6-1.1,0.9-2,0.8-2
		C277.7,264.8,277.2,265.7,276.6,266.8 M117.2,265.7c0.1,0.1,0.7,0.3,1.4,0.4c0.9,0.2,1,0.2,0.6-0.1
		C118.7,265.7,116.8,265.4,117.2,265.7 M122.6,267.2c0.4,0.2,1.2,0.3,1.6,0.3c0.6,0,0.6-0.1-0.2-0.3
		C122.6,266.8,121.6,266.8,122.6,267.2 M127.6,268.3c0.3,0.2,1.1,0.5,1.8,0.6c0.8,0.2,1,0.1,0.6-0.1c-0.3-0.2-1.1-0.5-1.8-0.6
		C127.4,268.1,127.2,268.1,127.6,268.3 M12,269.6c0.6,1.8,0.9,2.1,0.6,0.6c-0.2-0.7-0.5-1.4-0.7-1.6C11.8,268.4,11.8,268.8,12,269.6
		 M132.2,269.5c0.4,0.2,1.4,0.5,2.2,0.6c1,0.2,1.1,0.1,0.6-0.1c-0.4-0.2-1.4-0.5-2.2-0.6C131.8,269.3,131.7,269.3,132.2,269.5
		 M137.2,270.9c0.1,0.1,0.9,0.3,1.8,0.4c1.1,0.2,1.4,0.1,0.8-0.1C139,270.9,136.9,270.6,137.2,270.9 M13,272.5
		c0.2,0.5,0.4,1.1,0.6,1.3c0.2,0.2,0.2-0.2-0.1-0.9C13.1,271.4,12.6,271.1,13,272.5 M272.6,273.1c-0.6,0.8-2.1,2.6-3.3,3.9l-2.2,2.4
		l2.6-2.6c2.4-2.4,4.7-5.2,4.3-5.2C273.8,271.6,273.2,272.3,272.6,273.1 M140.6,274.4c-0.2,0.7-0.2,1.3-0.1,1.5
		c0.1,0.1,0.3-0.4,0.5-1.1c0.2-0.7,0.2-1.3,0.1-1.5C141,273.2,140.8,273.7,140.6,274.4 M385.3,277c-0.5,1.2-0.8,2.2-0.7,2.2
		c0.3,0,1.8-3.7,1.7-4.1C386.3,275,385.8,275.8,385.3,277 M15.2,277.6c0,0.1,0.4,0.9,0.8,1.8c0.5,0.9,0.7,1.1,0.5,0.6
		C16.3,279.1,15.2,277.1,15.2,277.6 M166.8,278.8c0.3,0.2,1.3,0.5,2.2,0.6c1,0.2,1.3,0.1,0.8-0.1
		C168.6,278.8,166.1,278.3,166.8,278.8 M173,280.4c0.4,0.2,1.1,0.3,1.4,0.3c0.4,0,0.3-0.1-0.2-0.3c-0.4-0.2-1.1-0.3-1.4-0.3
		C172.4,280.1,172.5,280.2,173,280.4 M264.4,281.2l-1.4,1.2l1.7-1.1c0.9-0.6,1.7-1.1,1.7-1.2C266.4,279.7,265.7,280.1,264.4,281.2
		 M383.5,281.1c-0.3,1.5-0.1,1.6,0.5,0.1c0.2-0.7,0.3-1.2,0.1-1.2S383.6,280.5,383.5,281.1 M178.6,281.8c1.1,0.3,1.7,0.8,1.9,1.5
		c0.3,1,0.3,1,0.3-0.1c0-0.9-0.2-1.1-1.5-1.5C177.2,281,176.6,281.2,178.6,281.8 M162.2,282.8c-0.1,0.5-0.2,1-0.1,1.1
		c0.1,0.1,0.3-0.2,0.5-0.7c0.1-0.5,0.2-1,0.1-1.1C162.6,282,162.4,282.3,162.2,282.8 M381.8,285c-0.5,1.2-0.9,2.3-0.8,2.4
		c0.1,0.1,0.6-0.9,1.2-2.2c0.6-1.3,0.9-2.4,0.8-2.4S382.3,283.8,381.8,285 M138,284.7c-0.2,0.8-0.4,1.8-0.4,2.1
		c0,0.3,0.3-0.3,0.6-1.4c0.3-1.1,0.5-2.1,0.4-2.1C138.5,283.2,138.3,283.8,138,284.7 M18.5,285.1c0.7,1.7,1.2,2.1,0.7,0.6
		c-0.2-0.7-0.6-1.4-0.8-1.5C18.2,284,18.2,284.5,18.5,285.1 M179.9,285.6c-0.3,1.7,0,2,0.3,0.4c0.2-0.7,0.2-1.3,0.1-1.4
		C180.2,284.5,180,284.9,179.9,285.6 M160.9,288.2c-0.2,1.1-0.4,2-0.3,2.1c0.2,0.2,1.1-3.1,0.9-3.6
		C161.4,286.5,161.2,287.2,160.9,288.2 M253.7,286.8c-0.7,0.2-1.3,0.5-1.3,0.6c0,0.3,2.1-0.3,2.6-0.7
		C255.4,286.3,255.4,286.3,253.7,286.8 M203.1,287.5c-0.1,0.2-0.3,1-0.4,1.9c-0.2,1.1-0.1,1.4,0.1,0.8c0.2-0.4,0.4-1.2,0.4-1.7
		c0-0.5,0.3-1,0.7-1.1c0.6-0.2,0.6-0.2,0-0.2C203.6,287.2,203.2,287.3,203.1,287.5 M208.4,288.4c0.6,0.2,1.5,0.3,2,0.3h1l-1-0.3
		c-0.5-0.2-1.4-0.3-2-0.3h-1L208.4,288.4 M248.8,288.4c-0.8,0.3-0.8,0.3-0.2,0.3c0.4,0,1.2-0.1,1.6-0.3
		C251.2,288,250.2,288,248.8,288.4 M20.4,289c0,0.2,0.3,0.9,0.6,1.4c0.3,0.6,0.6,0.8,0.6,0.6s-0.3-0.9-0.6-1.4
		C20.7,289,20.4,288.8,20.4,289 M214.2,289.2c1.2,0.3,4.5,0.5,4.2,0.3c-0.1-0.1-1.3-0.2-2.8-0.4C214,288.9,213.4,289,214.2,289.2
		 M244.6,289.2c-1.1,0.3-1.1,0.3-0.2,0.3c0.6,0,1.5-0.1,2-0.3C247.7,288.8,246.3,288.8,244.6,289.2 M136.8,289.7
		c0,0.4-0.1,1-0.3,1.4c-0.2,0.7-0.2,0.7,0.2,0c0.3-0.4,0.4-1,0.3-1.4C136.9,289.1,136.9,289.1,136.8,289.7 M219.3,289.9
		c0.4,0.1,1,0.1,1.4,0c0.4-0.1,0.1-0.2-0.7-0.2S218.9,289.8,219.3,289.9 M223.9,290.3c0.5,0.1,1.3,0.1,1.8,0
		c0.5-0.1,0.1-0.2-0.9-0.2C223.8,290.1,223.4,290.2,223.9,290.3 M229.9,290.7c1.2,0.1,3,0.1,4.2,0s0.2-0.1-2.1-0.1
		S228.7,290.6,229.9,290.7 M178.2,292c-0.3,1.7,0,2,0.4,0.4c0.2-0.7,0.2-1.3,0.1-1.4C178.6,290.9,178.4,291.3,178.2,292
		 M159.8,292.4c-0.2,0.7-0.2,1.3-0.1,1.4c0.1,0.1,0.3-0.4,0.4-1.1C160.5,291.1,160.2,290.8,159.8,292.4 M377.8,293.2
		c-0.6,1.1-0.9,2-0.8,2s0.7-0.9,1.2-2c0.6-1.1,0.9-2,0.8-2S378.4,292.1,377.8,293.2 M22,292.2c0,0.2,0.3,0.8,0.6,1.4
		c0.3,0.5,0.6,0.8,0.6,0.6s-0.3-0.9-0.6-1.4C22.3,292.2,22,292,22,292.2 M135.4,295c-0.1,0.4-0.2,1-0.2,1.3c0,0.4,0.2,0.1,0.4-0.5
		C136,294.6,135.9,293.9,135.4,295 M24.2,296.6c0.6,1.1,1.3,2.2,1.5,2.4c0.6,0.6-1.2-2.7-1.9-3.6C23.4,295,23.6,295.5,24.2,296.6
		 M177.2,296c-0.2,0.7-0.4,1.6-0.4,1.9c0,0.4,0.3-0.2,0.6-1.1C178,294.8,177.9,294.1,177.2,296 M375.8,296.8
		c-0.4,0.7-0.6,1.3-0.5,1.4c0.1,0.1,0.5-0.5,0.8-1.2C376.9,295.3,376.7,295.1,375.8,296.8 M158.4,298.1c0,0.4-0.1,1-0.3,1.4
		c-0.2,0.7-0.2,0.7,0.2,0c0.3-0.4,0.4-1,0.3-1.4C158.5,297.5,158.5,297.5,158.4,298.1 M200.1,299.4c-0.2,1.1-0.4,2-0.3,2.1
		c0.2,0.2,1.1-3.1,0.9-3.6C200.6,297.7,200.4,298.4,200.1,299.4 M175.9,301.6c-0.3,1.7,0,2,0.3,0.4c0.2-0.7,0.2-1.3,0.1-1.4
		C176.2,300.5,176,300.9,175.9,301.6 M157.3,302.6c-0.2,1.1-0.4,2-0.3,2.1c0.2,0.2,1.1-3.1,0.9-3.6
		C157.8,300.9,157.6,301.6,157.3,302.6 M199,303.4c-0.1,0.4-0.2,1-0.2,1.3s0.2,0.1,0.4-0.5C199.6,303,199.5,302.3,199,303.4
		 M132.8,305.8c-0.3,1.2-0.4,2.3-0.3,2.4c0.1,0.1,0.4-0.8,0.7-2.1c0.3-1.2,0.4-2.3,0.3-2.4C133.4,303.7,133.1,304.6,132.8,305.8
		 M174.6,306.2c-0.1,0.4-0.2,1-0.2,1.3c0,0.4,0.2,0.1,0.4-0.5C175.2,305.8,175.1,305.1,174.6,306.2 M369.5,307.7l-0.7,1.3l0.8-0.9
		c0.7-0.8,1.1-1.7,0.7-1.7C370.2,306.4,369.9,307,369.5,307.7 M155.6,309.2c-0.2,1.1-0.4,2.2-0.3,2.3c0.1,0.1,0.4-0.8,0.6-1.9
		c0.2-1.1,0.4-2.2,0.3-2.3C156.2,307.2,155.9,308.1,155.6,309.2 M133.6,308.7c0.3,0.2,1.2,0.5,2,0.6c0.9,0.2,1.1,0.1,0.6-0.1
		C135,308.7,132.9,308.3,133.6,308.7 M197.6,309.3c0,0.4-0.1,1-0.3,1.4c-0.2,0.7-0.2,0.7,0.2,0c0.3-0.4,0.4-1,0.3-1.4
		C197.7,308.7,197.7,308.7,197.6,309.3 M366.9,311.5c-1.8,2.5-2.5,3.7-1.9,3.1c0.9-0.9,3.9-5.4,3.6-5.4
		C368.6,309.2,367.8,310.2,366.9,311.5 M173.2,312.2c-0.3,1-0.4,1.9-0.3,2c0.1,0.1,0.4-0.7,0.6-1.7c0.3-1,0.4-1.9,0.3-2
		C173.8,310.4,173.5,311.2,173.2,312.2 M34.4,313c0.2,0.4,0.8,1.2,1.3,1.8c0.6,0.7,0.7,0.7,0.4,0.2c-0.2-0.4-0.8-1.2-1.3-1.8
		C34.2,312.5,34.1,312.5,34.4,313 M154.3,313.3c-0.7,0.8-0.5,1,0.4,0.4c0.3-0.2,0.5-0.5,0.4-0.7
		C155.1,312.7,154.7,312.9,154.3,313.3 M150.4,312.9c0.1,0.1,0.7,0.3,1.4,0.4c0.9,0.2,1,0.2,0.6-0.1
		C151.9,312.9,150,312.6,150.4,312.9 M196.2,315c-0.1,0.6-0.2,1.1-0.1,1.2c0.1,0.1,0.3-0.3,0.4-0.9c0.1-0.6,0.2-1.1,0.1-1.2
		C196.6,314,196.4,314.4,196.2,315 M172.2,316.2c-0.3,1.6,0.2,2.6,1.3,2.5c0.4,0,0.3-0.2-0.3-0.4c-0.8-0.3-0.9-0.5-0.7-2
		C172.9,314.4,172.6,314.3,172.2,316.2 M38.8,319.3c1.6,2.2,3,3.8,2.6,3.1c-0.4-0.9-3.4-4.8-3.6-4.8
		C37.6,317.6,38.1,318.4,38.8,319.3 M362,318.5c0,0.4-0.3,0.8-0.6,0.9c-0.3,0.1-0.6,0.4-0.6,0.7c0,0.2,0.4,0.1,0.8-0.4
		c0.5-0.5,0.8-1.1,0.6-1.4C362.1,318,362.1,318,362,318.5 M194.8,320.4c-0.2,1.1-0.4,2.2-0.3,2.3c0.1,0.1,0.4-0.8,0.6-1.9
		c0.2-1.1,0.4-2.2,0.3-2.3C195.4,318.4,195.1,319.3,194.8,320.4 M186.4,322c1.4,0.4,2.4,0.4,1.4,0c-0.4-0.2-1.2-0.3-1.6-0.3
		C185.6,321.7,185.6,321.7,186.4,322 M357.6,324.4c-0.9,1.1-1.6,2-1.5,2c0.1,0,1-0.9,1.9-2s1.6-2,1.5-2
		C359.4,322.4,358.5,323.3,357.6,324.4 M191.4,323.2c0.7,0.6,2.5,0.9,2.8,0.4c0.2-0.3,0.1-0.4-0.1-0.2c-0.2,0.1-1,0.1-1.7-0.1
		C191.7,323,191.2,323,191.4,323.2 M351.7,331.5c-2.3,2.6-2.9,3.4-1.5,1.9c2.8-3,6-6.6,5.7-6.6C355.8,326.8,353.9,328.9,351.7,331.5
		 M45.9,328.2c0.9,1.6,0.9,1.6,0.9,1.1c0-0.2-0.4-0.8-0.8-1.4l-0.8-0.9L45.9,328.2 M51.2,334.5c1,1,1.9,1.9,1.9,1.9
		c0.3,0-1.8-2.3-2.7-3C49.8,333,50.2,333.5,51.2,334.5 M58.2,341.9c2.9,2.9,5.6,5.5,6,5.7c0.4,0.2,0.7,0.4,0.6,0.3
		c-0.1-0.1-2.8-2.7-6-5.7l-5.8-5.6L58.2,341.9 M332.8,350.5c-2.2,2-4,3.7-4,3.9c0,0.1,0.9-0.6,1.9-1.5c5.2-4.8,6.5-6,6.3-6
		C336.9,346.8,335,348.4,332.8,350.5 M66.7,350c0.9,1,1.7,1.7,1.8,1.6c0.1-0.1-0.7-0.9-1.7-1.8l-1.8-1.6L66.7,350 M73.2,355.6
		c0.8,0.7,1.6,1.2,1.8,1.2c0.2,0-0.3-0.5-1.2-1.2C71.8,354,71.4,354,73.2,355.6 M323.9,358c-1.1,0.9-1.8,1.6-1.6,1.6
		c0.4,0,4.1-3.2,3.7-3.2C325.9,356.4,324.9,357.1,323.9,358 M78.4,359.6c0.8,0.7,1.9,1.6,2.6,2.1c1,0.7,1,0.6-0.2-0.4
		c-0.8-0.7-1.9-1.6-2.6-2.1C77.2,358.5,77.2,358.5,78.4,359.6 M82.4,362.5c0,0.1,0.9,0.7,1.9,1.4c1.4,1,1.6,1,0.7,0.2
		C83.8,363.2,82.4,362.2,82.4,362.5 M313.5,365.6c-1.2,0.9-2.3,1.7-2.3,1.8c0,0.2,3.6-2.3,4.6-3.1
		C316.8,363.4,315.5,364.2,313.5,365.6 M86.8,365.8c0.3,0.3,1,0.9,1.7,1.2c1,0.5,1.1,0.5,0.7,0c-0.3-0.3-0.7-0.6-1.1-0.6
		c-0.3,0-0.7-0.3-0.8-0.6c-0.1-0.3-0.4-0.6-0.6-0.6C86.5,365.2,86.5,365.4,86.8,365.8 M92,369c0,0.1,0.8,0.8,1.8,1.4
		c1,0.7,1.8,1.1,1.8,1c0-0.1-0.8-0.8-1.8-1.4C92.8,369.3,92,368.9,92,369 M303,372.4c-0.7,0.4-1,0.8-0.8,0.8c0.4,0,2.6-1.6,2.2-1.6
		C304.3,371.6,303.7,372,303,372.4 M299.8,374.2c-0.9,0.5-1.4,1-1.2,1c0.4,0,3-1.6,3-1.8C301.6,373.1,301.5,373.2,299.8,374.2
		 M100.4,374.2c0,0.1,0.5,0.5,1.2,0.8c0.7,0.3,1.2,0.5,1.2,0.4c0-0.1-0.5-0.5-1.2-0.8C100.9,374.3,100.4,374.1,100.4,374.2
		 M292.7,378c-1.3,0.7-2.3,1.3-2.3,1.4c0,0.1,1.1-0.3,2.4-1c1.3-0.7,2.4-1.3,2.4-1.4C295.2,376.7,295.3,376.7,292.7,378
		 M288.4,380.2c-0.5,0.3-0.8,0.6-0.6,0.6s0.9-0.3,1.4-0.6c0.5-0.3,0.8-0.6,0.6-0.6S289,379.9,288.4,380.2 M115.6,382.1
		c0,0.1,0.6,0.4,1.3,0.6c0.7,0.2,1.1,0.3,0.9,0.1C117.3,382.4,115.6,381.9,115.6,382.1 M283.3,382.6c-0.7,0.3-1.3,0.7-1.3,0.8
		c0,0.2,2.8-0.9,3.2-1.2C285.5,381.8,284.5,382.1,283.3,382.6 M122.4,385.1c0.9,0.6,5,2.2,4.6,1.7c-0.4-0.3-3.1-1.5-4.6-2
		C121.9,384.8,121.9,384.8,122.4,385.1 M276.6,385.6c-0.9,0.4-1.5,0.8-1.3,0.8c0.5,0,3.1-1.1,3.1-1.4
		C278.4,384.7,278.5,384.7,276.6,385.6 M266.9,389.2c-0.7,0.2-1.3,0.5-1.3,0.6c0,0.3,2.1-0.3,2.6-0.7
		C268.6,388.7,268.6,388.7,266.9,389.2 M135.6,390.1c0.1,0.1,0.8,0.4,1.6,0.7c0.8,0.3,1.2,0.3,1,0.1c-0.2-0.2-0.9-0.5-1.6-0.7
		C135.9,390,135.5,390,135.6,390.1 M263,390.6c-1.5,0.7-0.8,0.7,1,0c0.8-0.3,1.1-0.5,0.8-0.6C264.5,390,263.7,390.3,263,390.6
		 M252.1,393.8c-3.8,1-4.9,1.7-1.4,0.8c1.3-0.3,2.8-0.7,3.4-0.8c0.6-0.1,1.2-0.4,1.3-0.6c0.1-0.2,0.2-0.3,0.1-0.3
		C255.5,392.9,253.9,393.3,252.1,393.8 M148.6,394.2c1,0.5,3.5,1,3.2,0.6c-0.2-0.2-1.1-0.5-2-0.6
		C148.9,394.1,148.4,394.1,148.6,394.2 M244.6,395.6c-0.6,0.3-0.3,0.3,0.8,0.1c0.9-0.1,1.7-0.3,1.8-0.4
		C247.5,395,245.4,395.3,244.6,395.6 M238.6,397l-2.4,0.5l2.2-0.2c1.2-0.1,2.5-0.4,2.8-0.6C242,396.3,241.5,396.4,238.6,397
		 M162.4,397.4c1.4,0.3,3.1,0.5,3.6,0.5c0.6,0-0.3-0.3-1.8-0.6c-1.5-0.3-3.2-0.5-3.6-0.5C160.2,396.9,161,397.1,162.4,397.4
		 M233.4,397.8c-0.2,0.1-1.5,0.3-2.8,0.5c-1.6,0.2-1.9,0.4-1,0.4c0.8,0,2.6-0.2,4-0.5c1.4-0.3,2.1-0.5,1.4-0.5
		C234.3,397.7,233.6,397.7,233.4,397.8 M168.2,398.4c1.2,0.3,4.5,0.5,4.2,0.3c-0.1-0.1-1.3-0.2-2.8-0.4
		C168,398.1,167.4,398.2,168.2,398.4 M180.9,399.9c0.8,0.1,2.2,0.1,3,0c0.8-0.1,0.2-0.2-1.5-0.2
		C180.8,399.7,180.1,399.8,180.9,399.9 M215.1,399.9c-0.1,0.2,0.8,0.2,2.1,0.2c3.9-0.2,4.4-0.4,1.2-0.4
		C216.6,399.6,215.2,399.7,215.1,399.9 M117.7,400.7c0.4,0.1,1,0.1,1.4,0c0.4-0.1,0.1-0.2-0.7-0.2
		C117.6,400.5,117.3,400.6,117.7,400.7"/>
	<path id="path3" class="st2" d="M60,400c-1.4,0.2-3.9,0.6-5.4,0.9l-2.8,0.6l5.9,0l5.9,0v-1c0-0.6-0.2-1-0.5-0.9
		C62.8,399.7,61.4,399.9,60,400 M115,401.2c-0.5,0.2,0.6,0.3,3.2,0.3s3.7-0.1,3.2-0.3c-0.4-0.2-1.9-0.3-3.2-0.3S115.4,401,115,401.2
		 M308.6,401.2c-0.5,0.2,0.6,0.3,3.2,0.3c2.6,0,3.7-0.1,3.2-0.3c-0.4-0.2-1.9-0.3-3.2-0.3C310.5,400.9,309,401,308.6,401.2"/>
	<path id="path4" class="st3" d="M178.6,0.4c-4.1,0.4-4.9,0.8-1,0.5c1.6-0.1,4.5-0.4,6.4-0.5l3.4-0.3l-2.8,0
		C183.1,0.1,180.4,0.3,178.6,0.4 M216.6,0.4c5.9,0.6,9.8,0.8,7.8,0.4c-1-0.2-3.9-0.4-6.4-0.6C214.2,0.1,214,0.1,216.6,0.4
		 M165.8,2.4c-2.6,0.4-5.2,0.9-5.6,1.2c-0.5,0.3-0.6,0.4-0.1,0.2c0.4-0.1,2.8-0.5,5.4-0.9c2.6-0.4,4.9-0.8,5.1-1s0.3-0.3,0.2-0.3
		S168.4,2,165.8,2.4 M230,2c0.3,0.2,1.8,0.5,3.2,0.6c2,0.2,2.2,0.1,1-0.1C231.2,1.8,229.4,1.6,230,2 M237.2,3.2
		c2.6,0.6,4.2,0.8,3.6,0.5c-0.3-0.2-1.6-0.5-2.8-0.6C236.3,2.9,236.1,2.9,237.2,3.2 M155.8,4.3c-0.4,0.1-1,0.3-1.2,0.5
		c-0.3,0.3,1.8-0.1,3.2-0.6C158.4,4,156.7,4.1,155.8,4.3 M245,4.8c1.1,0.5,1.5,0.5,1.2,0c-0.1-0.2-0.6-0.4-1.1-0.4
		C244.2,4.5,244.2,4.5,245,4.8 M147.3,6.5c-1.8,0.4-3.3,1-3.3,1.1c0,0.2,1.1,0,2.5-0.4c1.4-0.4,2.8-0.8,3.2-0.8
		c0.4,0,0.8-0.2,0.9-0.4c0.1-0.2,0.2-0.4,0.1-0.4C150.7,5.7,149.1,6,147.3,6.5 M250.2,6c0.4,0.4,3.3,1.1,3,0.7
		c-0.1-0.1-0.9-0.4-1.8-0.6C250.6,5.8,250,5.8,250.2,6 M254,7c1.8,0.7,3,1,2.6,0.6c-0.2-0.2-1-0.5-1.8-0.6C254,6.9,253.7,6.9,254,7
		 M140.2,8.6L139,9.2l1.2-0.2c0.7-0.1,1.5-0.4,1.8-0.6C143.1,7.8,141.6,8,140.2,8.6 M259.2,8.6c1.8,0.7,2.5,0.7,1,0
		c-0.7-0.3-1.5-0.5-1.8-0.5C258.1,8.1,258.4,8.3,259.2,8.6 M135.6,10.2c-0.8,0.3-1.1,0.5-0.8,0.6c0.3,0,1.1-0.2,1.8-0.5
		C138.1,9.5,137.4,9.5,135.6,10.2 M262.8,9.8c0.1,0.1,1.6,0.6,3.3,1.2s3,0.8,2.8,0.7C268.4,11.1,262.3,9.3,262.8,9.8 M132.2,11.4
		c-1,0.5-1,0.5-0.2,0.3c1.1-0.3,2.4-0.9,1.8-0.9C133.6,10.8,132.9,11.1,132.2,11.4 M128.9,12.4c-0.5,0.2-0.9,0.4-0.9,0.5
		c0,0.3,2-0.2,2.2-0.6C130.5,11.9,130.1,11.9,128.9,12.4 M270.4,12.3c0.3,0.2,1.1,0.5,1.6,0.6c0.7,0.2,0.8,0.2,0.4-0.1
		c-0.3-0.2-1-0.5-1.6-0.6C270.1,12,270,12.1,270.4,12.3 M124.6,14.2c-1.5,0.5-3,1.2-3.2,1.4c-0.2,0.2,0.8-0.1,2.2-0.6
		c1.4-0.6,2.8-1,3.1-1c0.3,0,0.6-0.2,0.7-0.4C127.7,13.1,127.9,13.1,124.6,14.2 M273.4,13.6c0.1,0.2,1.2,0.6,2.5,1
		c1.3,0.4,2.5,0.9,2.7,1.1c0.2,0.2,0.6,0.3,0.8,0.3c0.6,0-1.1-1.2-1.8-1.2c-0.3,0-1.1-0.3-1.6-0.5C274.7,13.6,273.1,13.2,273.4,13.6
		 M115.5,18.2c-2.2,1.1-3,1.7-1.4,1.1c1.5-0.6,3.5-1.6,3.5-1.8C117.6,17.2,117.7,17.1,115.5,18.2 M282.8,17.4c0,0.1,0.8,0.5,1.7,0.9
		c2.5,1.1,3.2,1.3,2.9,0.9c-0.1-0.2-0.5-0.4-0.7-0.4c-0.3,0-0.9-0.2-1.5-0.5C283.8,17.6,282.8,17.2,282.8,17.4 M111.3,20
		c-0.5,0.2-1,0.5-1.1,0.7c-0.2,0.3,2-0.5,2.5-1C113.1,19.5,112.2,19.6,111.3,20 M106.1,22.9c-4,2-7.7,4.2-7.7,4.5
		c0,0.1,0.9-0.3,2.1-1c1.2-0.7,3.7-2,5.6-3c1.9-1,3.5-1.9,3.5-2C109.6,21.1,109.8,21,106.1,22.9 M293.8,23c0.4,0.3,1,0.6,1.2,0.6
		s0.1-0.3-0.4-0.6c-0.4-0.3-1-0.6-1.2-0.6S293.4,22.7,293.8,23 M298.4,25.4c0,0.1,0.4,0.4,0.9,0.6c0.5,0.2,1.3,0.7,1.8,1
		s0.9,0.5,0.9,0.3s-0.7-0.7-1.5-1.1C298.4,25.1,298.4,25.1,298.4,25.4 M96.4,28.4c-0.7,0.5-0.7,0.7-0.2,0.4c1.3-0.7,2-1.2,1.6-1.2
		C97.6,27.6,96.9,28,96.4,28.4 M302.4,27.7c0.8,0.7,2.1,1.1,1.6,0.5c-0.3-0.4-0.8-0.7-1.2-0.7C302.5,27.6,302.3,27.7,302.4,27.7
		 M304.8,28.9c0,0.1,1.3,1,2.8,2c1.5,1,2.8,1.7,2.8,1.6c0-0.2-0.7-0.7-1.5-1.2c-0.8-0.5-2.1-1.3-2.8-1.7S304.8,28.8,304.8,28.9
		 M94.4,29.6c0,0.2-0.2,0.4-0.5,0.4s-0.9,0.4-1.3,0.8c-0.7,0.8-0.7,0.8,0.7,0c1.6-0.9,2.2-1.6,1.5-1.6
		C94.6,29.2,94.4,29.4,94.4,29.6 M87.7,34c-0.9,0.7-1.7,1.3-1.7,1.4c0,0.2,2.3-1.3,3.4-2.3C90.3,32.3,89.2,32.9,87.7,34 M312,33.6
		c0.5,0.5,1.3,1.1,1.7,1.5s0.8,0.6,0.9,0.4c0.1-0.1-0.4-0.7-1.1-1.2C311.8,33,310.7,32.5,312,33.6 M315.6,36.1
		c0.3,0.3,2,1.6,3.6,2.8c1.6,1.2,4,3,5.1,4c1.2,0.9,2.1,1.5,2,1.3c-0.1-0.4-9.6-7.6-10.8-8.3C315.1,35.6,315.1,35.6,315.6,36.1
		 M81.2,38.5c-2.4,1.7-6.4,5.2-4.4,3.8c0.8-0.5,1.5-1.1,1.6-1.2s1.4-1.1,2.8-2.1c1.4-1,2.4-1.8,2.2-1.8S82.2,37.8,81.2,38.5
		 M71,46.7c-8.9,7.6-16.5,15.2-23.8,23.7c-1.4,1.7-2.9,3.4-3.4,3.9c-0.4,0.5-0.7,0.9-0.6,0.9c0.1,0,2.2-2.3,4.5-5
		c5.5-6.5,15.9-16.8,22.3-22.3c4.4-3.8,5.4-4.7,4.9-4.6C75,43.2,73.2,44.8,71,46.7 M328.6,46.2c1.1,1,2.4,2.1,2.9,2.6
		c1,0.9,3.4,2.5,2.7,1.8c-1.2-1.2-7.1-6.1-7.3-6.1C326.7,44.4,327.5,45.2,328.6,46.2 M338.5,54.9c2.1,2.1,5.6,5.5,7.7,7.7l3.9,4
		l-4-4.4c-2.2-2.4-5.7-5.9-7.7-7.7l-3.7-3.3L338.5,54.9 M350.4,67.1c0,0.2,0.5,0.9,1.2,1.5c0.7,0.6,1.2,1.4,1.2,1.6
		c0,0.2,0.5,0.9,1.1,1.4c0.6,0.5,2.1,2.3,3.4,4c1.2,1.7,2.8,3.6,3.5,4.4c0.9,1,0.8,0.7-0.4-0.8c-0.9-1.2-1.9-2.5-2.2-2.8
		c-0.3-0.3-0.6-0.7-0.6-0.9c0-0.1-0.4-0.7-0.8-1.2C352.3,68.9,350.4,66.8,350.4,67.1 M212.2,75.1c0.4,0.1,1.1,0.4,1.4,0.7
		c0.5,0.4,0.5,0.4,0.1-0.2c-0.3-0.4-0.9-0.7-1.4-0.7C211.4,74.9,211.4,74.9,212.2,75.1 M40.7,78.3c-2.3,2.9-3.5,4.7-3.5,5.2
		c0,0.2,0.8-0.9,1.8-2.3c1-1.4,1.9-2.7,2.1-2.8c0.4-0.3,2.2-2.8,2-2.8C43,75.6,41.9,76.8,40.7,78.3 M189.8,78.2
		c-0.1,0.6-0.2,1.1-0.1,1.2c0.1,0.1,0.3-0.3,0.4-0.9c0.1-0.6,0.2-1.1,0.1-1.2C190.2,77.2,190,77.6,189.8,78.2 M212.2,81
		c-0.1,0.6-0.2,1.1-0.1,1.2c0.1,0.1,0.3-0.3,0.4-0.9c0.1-0.6,0.2-1.1,0.1-1.2C212.6,80,212.4,80.4,212.2,81 M238.4,81.6
		c1.4,0.4,2.4,0.4,1.4,0c-0.4-0.2-1.2-0.3-1.6-0.3C237.6,81.3,237.6,81.3,238.4,81.6 M363.4,83.6c0.8,1.1,1.4,2.1,1.4,2.2
		s0.4,0.7,0.9,1.2c0.5,0.6,1.3,1.8,1.9,2.8c0.5,1,1.2,2.1,1.6,2.3c0.5,0.4,0.6,0.4,0.2-0.1c-0.3-0.3-0.9-1.4-1.5-2.5
		c-1.1-2-5.4-7.9-5.7-7.9C362,81.6,362.6,82.5,363.4,83.6 M211,85.8c-0.1,0.6-0.2,1.1-0.1,1.2c0.1,0.1,0.3-0.3,0.4-0.9
		c0.1-0.6,0.2-1.1,0.1-1.2C211.4,84.8,211.2,85.2,211,85.8 M34.3,87.3c-1.1,1.5-1.8,2.7-1.2,2.1c0.7-0.8,2.6-3.4,2.4-3.4
		C35.3,86,34.8,86.6,34.3,87.3 M229.2,88.5c0,0.4-0.2,1-0.3,1.4c-0.2,0.7-0.2,0.7,0.2,0c0.3-0.4,0.4-1,0.3-1.4
		C229.3,87.9,229.3,87.9,229.2,88.5 M251.4,92.2c-0.1,0.6-0.2,1.1-0.1,1.2c0.1,0.1,0.3-0.3,0.4-0.9c0.1-0.6,0.2-1.1,0.1-1.2
		C251.8,91.2,251.6,91.6,251.4,92.2 M186.2,92.8c-0.2,0.7-0.2,1.3-0.1,1.4c0.1,0.1,0.3-0.4,0.4-1.1
		C186.9,91.5,186.6,91.2,186.2,92.8 M30.5,92.9c-0.3,0.3-0.5,0.7-0.5,1c0,0.3-0.2,0.5-0.4,0.5c-0.2,0-0.4,0.2-0.4,0.4
		c0,0.7,0.8,0,1.4-1.2C31.3,92.3,31.2,92.1,30.5,92.9 M372.3,97.2c0.6,1.1,1.2,1.9,1.2,1.8c0.2-0.2-1.8-3.8-2.1-3.8
		C371.3,95.2,371.7,96.1,372.3,97.2 M28.2,96.6c-0.4,0.6-0.6,1.1-0.5,1.2c0.1,0.1,0.5-0.4,0.8-1C29.4,95.3,29.1,95.2,28.2,96.6
		 M208.2,97c-0.1,0.8-0.2,1.5-0.1,1.6c0.1,0.1,0.3-0.5,0.5-1.3c0.1-0.8,0.2-1.5,0.1-1.6C208.6,95.6,208.4,96.2,208.2,97 M147.6,97.3
		c0.1,0.1,0.7,0.3,1.4,0.4c0.9,0.2,1,0.2,0.6-0.1C149.1,97.3,147.2,97,147.6,97.3 M184.6,99c-0.1,0.6-0.2,1.1-0.1,1.2
		c0.1,0.1,0.3-0.3,0.4-0.9c0.1-0.6,0.2-1.1,0.1-1.2C185,98,184.8,98.4,184.6,99 M226.6,99c-0.1,0.6-0.2,1.1-0.1,1.2
		c0.1,0.1,0.3-0.3,0.4-0.9c0.1-0.6,0.2-1.1,0.1-1.2C227,98,226.8,98.4,226.6,99 M26.7,99.3c-0.9,1.5-2,3.7-1.6,3.3
		c0.5-0.4,2.5-4.2,2.3-4.2C27.4,98.4,27,98.8,26.7,99.3 M163,101.2c0.4,0.2,1.1,0.3,1.4,0.3c0.4,0,0.3-0.1-0.2-0.3
		c-0.4-0.2-1.1-0.3-1.4-0.3C162.4,100.9,162.5,101,163,101.2 M375.9,103.6c0.6,1.1,1.2,1.9,1.2,1.8c0.2-0.2-1.9-3.8-2.2-3.8
		C374.9,101.6,375.3,102.5,375.9,103.6 M169,102.8c0.4,0.2,1.1,0.3,1.4,0.3c0.4,0,0.3-0.1-0.2-0.3c-0.4-0.2-1.1-0.3-1.4-0.3
		C168.4,102.5,168.5,102.6,169,102.8 M225.4,104c-0.2,0.7-0.2,1.3-0.1,1.4c0.1,0.1,0.3-0.4,0.4-1.1
		C226.1,102.7,225.8,102.4,225.4,104 M23.9,104.1c-0.3,1.2-0.1,1.3,0.5,0.1c0.3-0.6,0.3-1,0.1-1S24,103.6,23.9,104.1 M173.8,104
		c0.4,0.2,1.1,0.3,1.4,0.3c0.4,0,0.3-0.1-0.2-0.3c-0.4-0.2-1.1-0.3-1.4-0.3C173.2,103.7,173.3,103.8,173.8,104 M22.2,107.6
		c-0.6,1.1-0.9,2-0.8,2c0.1,0,0.7-0.9,1.2-2c0.6-1.1,0.9-2,0.8-2S22.8,106.5,22.2,107.6 M205.8,106.6c-0.1,0.6-0.2,1.1-0.1,1.2
		c0.1,0.1,0.3-0.3,0.4-0.9c0.1-0.6,0.2-1.1,0.1-1.2C206.2,105.6,206,106,205.8,106.6 M377.6,106.6c0,0.2,0.3,0.8,0.6,1.4l0.6,1
		l-0.3-1C378.3,107,377.6,105.9,377.6,106.6 M247.4,108.4c-0.2,0.7-0.2,1.3-0.1,1.4c0.1,0.1,0.3-0.4,0.4-1.1
		C248.1,107.1,247.8,106.8,247.4,108.4 M223.8,110.2c-0.1,0.6-0.2,1.1-0.1,1.2c0.1,0.1,0.3-0.3,0.4-0.9c0.1-0.6,0.2-1.1,0.1-1.2
		C224.2,109.2,224,109.6,223.8,110.2 M379.8,111.1c1.3,2.2,1.9,3.1,1.5,1.9c-0.3-0.9-2.2-3.8-2.4-3.8
		C378.8,109.2,379.3,110.1,379.8,111.1 M20.5,110.5c-0.5,0.6-1,1.9-0.7,1.9c0.1,0,0.5-0.5,0.8-1.2C21.2,110,21.2,109.6,20.5,110.5
		 M18.3,115.2c-0.6,1.3-1,2.4-0.9,2.4c0.3,0,2.3-4.4,2.1-4.6C19.4,112.9,18.9,113.9,18.3,115.2 M381.6,114.6c0,0.2,0.3,0.8,0.6,1.4
		l0.6,1l-0.3-1C382.3,115,381.6,113.9,381.6,114.6 M245,118c-0.2,0.7-0.2,1.3-0.1,1.4c0.1,0.1,0.3-0.4,0.4-1.1
		C245.7,116.7,245.4,116.4,245,118 M383.4,118.7c0.4,0.8,0.8,1.9,1,2.5c0.2,0.5,0.5,0.9,0.6,0.8c0.2-0.2-1.8-4.7-2.1-4.7
		C382.9,117.2,383.1,117.9,383.4,118.7 M138.6,119.8c0.9,0.3,2,0.5,2.4,0.5c0.4,0-0.1-0.3-1.2-0.6
		C137.3,119.1,136.5,119.1,138.6,119.8 M144.4,121.2c1.4,0.4,2.4,0.4,1.4,0c-0.4-0.2-1.2-0.3-1.6-0.3
		C143.6,120.9,143.6,120.9,144.4,121.2 M15.2,122.2c-0.2,0.6-0.6,1.5-0.8,2.1c-0.8,1.9-1.1,3.3-0.8,3.1c0.2-0.1,0.4-0.6,0.5-1.1
		s0.6-1.9,1-3c0.5-1.2,0.8-2.1,0.6-2.1C15.7,121.2,15.4,121.7,15.2,122.2 M152,123.3c0,0.3,2.9,1.9,3,1.8c0.1-0.1-0.6-0.5-1.5-1
		C152.7,123.6,152,123.2,152,123.3 M385.8,124c0.1,0.6,0.4,1.3,0.6,1.6c0.3,0.4,0.3,0.3,0.1-0.4c-0.1-0.5-0.4-1.3-0.6-1.6
		C385.7,123.2,385.6,123.3,385.8,124 M387.1,127.4c0.2,0.4,0.5,1.1,0.6,1.4c0.2,0.5,0.2,0.5,0.3,0c0-0.3-0.2-1-0.6-1.4
		C386.8,126.6,386.8,126.6,387.1,127.4 M12.4,129.1c-0.2,0.6-0.3,1.1-0.2,1.3c0.2,0.2,0.4-0.2,0.8-1.8
		C13.3,127.5,12.8,128,12.4,129.1 M388.3,130.6c0.1,0.6,0.4,1.1,0.6,1.3c0.2,0.2,0.3-0.1,0.1-0.7
		C388.6,129.8,388.1,129.4,388.3,130.6 M11.3,132.3c-0.9,2.3-1.7,5.1-1.5,5.2c0.1,0.1,0.6-1.2,1.2-2.9
		C11.9,131.6,12.2,129.9,11.3,132.3 M389.8,134.7c0.3,1.1,0.6,2.1,0.6,2.3c0,0.2,0.1,0.3,0.2,0.1c0.3-0.3-0.6-3.9-1.1-4.1
		C389.4,132.9,389.5,133.6,389.8,134.7 M270,133.3c0,0.1,0.7,0.7,1.5,1.3c0.8,0.6,1.3,0.9,1.2,0.7C272.3,134.8,270,133,270,133.3
		 M158.6,136.6c-0.1,0.6-0.2,1.1-0.1,1.2c0.1,0.1,0.3-0.3,0.4-0.9c0.1-0.6,0.2-1.1,0.1-1.2C159,135.6,158.8,136,158.6,136.6
		 M199,136.8c-0.1,0.2-0.2,0.5,0,0.7c0.1,0.1,0.2,0,0.2-0.3c0-0.4,0.3-0.4,1.1-0.3c0.8,0.2,0.9,0.2,0.5-0.2
		C200,136.3,199.3,136.3,199,136.8 M275.8,138c0.9,0.9,1.7,1.6,1.8,1.6c0.1,0-0.5-0.7-1.4-1.6c-0.9-0.9-1.7-1.6-1.8-1.6
		C274.3,136.4,274.9,137.1,275.8,138 M204.8,138c0.6,0.2,1.4,0.3,1.8,0.3c0.6,0,0.6-0.1-0.2-0.3c-0.5-0.2-1.4-0.3-1.8-0.3
		C204,137.7,204,137.7,204.8,138 M390.9,137.8c0,0.2,0.2,1,0.5,1.8c0.3,0.8,0.5,1.1,0.6,0.8c0-0.3-0.2-1.1-0.5-1.8
		C391.1,137.9,390.9,137.6,390.9,137.8 M8.4,140.6c-0.3,0.8-0.4,1.5-0.3,1.7c0.1,0.1,0.4-0.5,0.6-1.3C9.3,139,9,138.7,8.4,140.6
		 M280,142.2c0.7,0.8,1.4,1.4,1.6,1.4c0.1,0-0.4-0.6-1.2-1.4s-1.4-1.4-1.6-1.4C278.7,140.8,279.3,141.4,280,142.2 M392.2,142.4
		c0.2,0.8,0.4,1.6,0.6,1.7s0.2-0.3,0-1.1C392.4,141.1,391.8,140.5,392.2,142.4 M157.1,142.9c-0.3,1.7,0,2,0.3,0.3
		c0.2-0.7,0.2-1.3,0.1-1.4C157.4,141.7,157.2,142.1,157.1,142.9 M6.8,145.9c-0.2,1.1-0.6,2.6-0.8,3.5c-0.2,0.9-0.2,1.4-0.1,1.2
		c0.4-0.5,1.8-6.1,1.5-6.4C7.4,144,7.1,144.8,6.8,145.9 M196.6,146c-0.2,0.7-0.2,1.3-0.1,1.4c0.1,0.1,0.3-0.4,0.4-1.1
		C197.3,144.7,197,144.4,196.6,146 M393.5,146.2c0.4,1.9,1,3,0.7,1.4c-0.1-0.8-0.4-1.7-0.6-2C393.3,145.2,393.3,145.4,393.5,146.2
		 M231.6,146.6c0,0.1,0.5,0.5,1.2,0.8c0.7,0.3,1.2,0.5,1.2,0.4s-0.5-0.5-1.2-0.8S231.6,146.5,231.6,146.6 M284.2,148
		c0.3,0.7,0.7,1.2,0.8,1.2c0.1,0-0.1-0.5-0.4-1.2s-0.7-1.2-0.8-1.2C283.7,146.8,283.9,147.3,284.2,148 M395.2,153.3
		c0.4,1.8,0.9,4.1,1,5c0.1,0.9,0.4,1.8,0.6,1.9c0.2,0.1,0.2-0.5,0-1.3c-1.1-5.7-1.7-8.3-2-8.6C394.6,150.1,394.8,151.4,395.2,153.3
		 M240.8,153.5c0,0.2,0.5,0.8,1.1,1.4l1.1,1l-1-1.2c-0.6-0.7-1-1.3-1.1-1.4C240.8,153.1,240.8,153.2,240.8,153.5 M4.7,154.3
		c-0.1,0.2-0.3,1.1-0.4,2.1L4,158.2l0.6-2C5.1,154.4,5.2,153.5,4.7,154.3 M153.4,157.4c-0.1,0.6-0.2,1.1-0.1,1.2
		c0.1,0.1,0.3-0.3,0.4-0.9c0.1-0.6,0.2-1.1,0.1-1.2C153.8,156.4,153.6,156.8,153.4,157.4 M244.9,160c0,0.3,0.2,1,0.3,1.4
		c0.2,0.5,0.3,0.6,0.3,0.2c0-0.3-0.2-1-0.3-1.4C245,159.7,244.9,159.6,244.9,160 M3.1,161.9c-0.1,1-0.5,3.5-0.8,5.4
		c-0.3,1.9-0.4,3.4-0.2,3.3c0.2-0.1,0.3-0.7,0.3-1.3c0-0.6,0.3-2.9,0.7-5.2c0.4-2.3,0.6-4.1,0.4-4.1C3.4,160,3.2,160.9,3.1,161.9
		 M192.6,162c-0.2,0.7-0.2,1.3-0.1,1.4c0.1,0.1,0.3-0.4,0.4-1.1C193.3,160.7,193,160.4,192.6,162 M397.7,164.9
		c0.6,3.3,0.7,3.6,0.5,0.9c-0.1-1.3-0.4-2.5-0.5-2.7C397.4,162.9,397.5,163.7,397.7,164.9 M245.7,166c0,1.6,0.1,2.3,0.2,1.5
		c0.1-0.8,0.1-2.2,0-3C245.8,163.7,245.7,164.4,245.7,166 M150.6,168.6c-0.1,0.6-0.2,1.1-0.1,1.2c0.1,0.1,0.3-0.3,0.4-0.9
		c0.1-0.6,0.2-1.1,0.1-1.2C151,167.6,150.8,168,150.6,168.6 M399.2,175.6c0.3,3.1,0.7,5.5,0.8,5.4c0.2-0.2-0.8-10.6-1.1-10.8
		C398.7,170.1,398.9,172.6,399.2,175.6 M245,171.4c-0.1,0.6-0.2,1.1-0.1,1.2c0.1,0.1,0.3-0.3,0.4-0.9c0.1-0.6,0.2-1.1,0.1-1.2
		C245.4,170.4,245.2,170.8,245,171.4 M190,172.5c0,0.4-0.2,1-0.3,1.4c-0.2,0.7-0.2,0.7,0.2,0c0.3-0.4,0.4-1,0.3-1.4
		C190.1,171.9,190.1,171.9,190,172.5 M1.1,174.3c-0.3,0.6-1.1,10.3-1,11.7c0.1,1,0.2,0.7,0.3-1c0-1.3,0.3-4.3,0.6-6.7
		C1.4,174.1,1.4,173.7,1.1,174.3 M188.6,178c-0.2,0.7-0.2,1.3-0.1,1.4c0.1,0.1,0.3-0.4,0.4-1.1C189.3,176.7,189,176.4,188.6,178
		 M240.2,180.5l-1.2,1.3l1.3-1.2c0.7-0.6,1.3-1.2,1.3-1.3C241.6,179,241.3,179.3,240.2,180.5 M199.2,183.6c0.6,0.2,1.4,0.3,1.8,0.3
		c0.6,0,0.6-0.1-0.2-0.3c-0.6-0.2-1.4-0.3-1.8-0.3C198.4,183.3,198.4,183.3,199.2,183.6 M213.1,186.3c0.5,0.1,1.3,0.1,1.8,0
		c0.5-0.1,0.1-0.2-0.9-0.2S212.6,186.2,213.1,186.3 M226.3,186.3c0.5,0.1,1.2,0.1,1.6,0c0.4-0.1,0-0.2-0.9-0.2
		C226.1,186.1,225.8,186.2,226.3,186.3 M218.7,186.7c1.2,0.1,3,0.1,4.2,0c1.2-0.1,0.2-0.1-2.1-0.1S217.5,186.6,218.7,186.7
		 M145.4,189.4c-0.1,0.6-0.2,1.1-0.1,1.2c0.1,0.1,0.3-0.3,0.4-0.9c0.1-0.6,0.2-1.1,0.1-1.2C145.8,188.4,145.6,188.8,145.4,189.4
		 M277.8,194.9l-1.6,1.7l1.7-1.6c1.6-1.5,1.9-1.8,1.6-1.8C279.4,193.2,278.7,194,277.8,194.9 M143.9,195.6c-0.3,1.7,0,2,0.3,0.4
		c0.2-0.7,0.2-1.3,0.1-1.4C144.2,194.5,144,194.9,143.9,195.6 M261.5,203.6c-0.8,0.5-0.6,1,0.6,1.6c0.8,0.4,0.8,0.4-0.1-0.3
		l-0.9-0.7l0.9-0.5c0.5-0.3,0.8-0.5,0.5-0.5C262.4,203.2,261.9,203.4,261.5,203.6 M196.4,206c1.4,0.4,2.4,0.4,1.4,0
		c-0.4-0.2-1.2-0.3-1.6-0.3C195.6,205.7,195.6,205.7,196.4,206 M140.2,210.4c-0.2,0.7-0.2,1.3-0.1,1.4c0.1,0.1,0.3-0.4,0.4-1.1
		C140.9,209.1,140.6,208.8,140.2,210.4 M271.5,211.6c0.7,0.7,1.4,1.3,1.4,1.2c0.1-0.1-0.5-0.7-1.3-1.4l-1.4-1.2L271.5,211.6
		 M0.1,214.9c-0.1,2.6,0.8,11.6,1.1,12c0.2,0.2,0.1-1-0.1-2.6c-0.2-1.6-0.5-4.8-0.7-7.1S0.1,213.9,0.1,214.9 M227.4,217.9
		c2,1.8,2.8,2.3,2,1.4c-0.4-0.5-1.2-1.1-1.6-1.3C227.4,217.7,227.2,217.7,227.4,217.9 M178.2,219.8c-0.1,0.6-0.2,1.1-0.1,1.2
		c0.1,0.1,0.3-0.3,0.4-0.9c0.1-0.6,0.2-1.1,0.1-1.2C178.6,218.8,178.4,219.2,178.2,219.8 M399.3,224.5c-0.3,3-0.6,5.8-0.7,6.2
		c-0.2,0.6-0.1,0.6,0.2,0.1c0.4-0.7,1.5-9.8,1.2-11C399.9,219.4,399.6,221.5,399.3,224.5 M232.6,222.4c1.3,1.3,2.5,2.4,2.6,2.4
		s-0.9-1.1-2.2-2.4c-1.3-1.3-2.5-2.4-2.6-2.4S231.3,221.1,232.6,222.4 M175.8,229.4c-0.1,0.6-0.2,1.1-0.1,1.2
		c0.1,0.1,0.3-0.3,0.4-0.9c0.1-0.6,0.2-1.1,0.1-1.2C176.2,228.4,176,228.8,175.8,229.4 M1.7,230.8c0.1,0.3,0.5,2.6,0.9,5
		c0.4,2.4,0.9,4.7,1.1,5c0.3,0.5,0.3,0.4,0.2-0.2c-0.1-0.4-0.5-2.8-0.9-5.2c-0.4-2.4-0.9-4.6-1.1-4.8C1.7,230.4,1.6,230.4,1.7,230.8
		 M397.8,235.1c-0.1,1-0.4,2.3-0.5,2.7c-0.1,0.5-0.1,0.7,0.2,0.4c0.4-0.4,1.1-5,0.8-5C398.2,233.2,398,234.1,397.8,235.1
		 M284.1,238.2c0,2.2,0.1,3,0.1,1.9c0.1-1.2,0.1-3,0-4C284.2,235,284.1,236,284.1,238.2 M108.1,236.1c-0.3,0.3-0.5,0.7-0.5,0.9
		c0,0.2,0.2,0.1,0.5-0.2c0.3-0.4,0.9-0.7,1.3-0.8c0.8-0.2,0.8-0.2,0-0.2C108.9,235.6,108.3,235.8,108.1,236.1 M125.9,239.9
		c0.5,0.1,1.3,0.1,1.8,0c0.5-0.1,0.1-0.2-0.9-0.2C125.8,239.7,125.4,239.8,125.9,239.9 M395.7,245.2c-0.5,2.4-1,4.7-1.1,5.1
		c-0.2,0.6-0.2,0.6,0.2,0.1c0.5-0.7,2.2-8.7,2-9.3C396.6,240.9,396.2,242.7,395.7,245.2 M4.2,244.2c0.2,1.1,0.4,2.1,0.6,2.3
		c0.2,0.2,0.1-0.6-0.1-1.8C4.2,242,3.8,241.6,4.2,244.2 M171.8,245.4c-0.1,0.6-0.2,1.1-0.1,1.2c0.1,0.1,0.3-0.3,0.4-0.9
		c0.1-0.6,0.2-1.1,0.1-1.2C172.2,244.4,172,244.8,171.8,245.4 M283,248c-0.2,0.7-0.2,1.3-0.1,1.4c0.1,0.1,0.3-0.4,0.4-1.1
		c0.1-0.7,0.2-1.4,0.1-1.4C283.4,246.8,283.2,247.3,283,248 M170.9,250.1c-0.1,1.1,1.4,2.1,2.5,1.8c0.2-0.1-0.1-0.3-0.8-0.4
		c-1-0.2-1.3-0.5-1.4-1.4l-0.2-1.1L170.9,250.1 M233.8,250.9l-1.2,1.3l1.3-1.2c0.7-0.6,1.3-1.2,1.3-1.3
		C235.2,249.4,234.9,249.7,233.8,250.9 M6.1,251.6c0.2,1,0.5,1.8,0.6,1.9c0.4,0.3-0.3-2.9-0.7-3.3C5.8,250.1,5.8,250.7,6.1,251.6
		 M281.8,253c-0.1,0.6-0.2,1.1-0.1,1.2c0.1,0.1,0.3-0.3,0.4-0.9c0.1-0.6,0.2-1.1,0.1-1.2C282.2,252,282,252.4,281.8,253 M393.9,253
		c-0.1,0.7-0.4,1.6-0.5,2c-0.1,0.4,0,0.2,0.4-0.5c0.3-0.7,0.6-1.6,0.5-2C394.2,252.1,394.1,252.3,393.9,253 M7,255.2
		c0.2,0.8,0.4,1.6,0.6,1.8c0.2,0.2,0.2-0.3-0.1-1.2C7,253.8,6.6,253.4,7,255.2 M392,259.3c-0.5,1.6-0.9,3.2-1.1,3.5
		c-0.1,0.4-0.1,0.5,0.2,0.2c0.4-0.4,2.1-6.3,1.9-6.5C392.9,256.4,392.5,257.6,392,259.3 M8,258.8c0,0.6,0.2,1.5,0.6,2
		c0.7,1.3,0.7,1,0-1.2C8.2,258.3,8.1,258.1,8,258.8 M203.7,258.3c0.6,0.1,1.5,0.1,2,0c0.5-0.1,0-0.2-1.1-0.2
		C203.5,258.1,203.1,258.2,203.7,258.3 M215.9,258.3c0.5,0.1,1.3,0.1,1.8,0c0.5-0.1,0.1-0.2-0.9-0.2
		C215.8,258.1,215.4,258.2,215.9,258.3 M210.5,258.7c0.6,0.1,1.6,0.1,2.2,0c0.6-0.1,0.1-0.2-1.1-0.2
		C210.4,258.5,209.9,258.6,210.5,258.7 M9.6,263.3c0,0.6,1.7,5.3,2,5.6c0.4,0.4,0-0.8-1.1-3.8C10,263.5,9.6,262.8,9.6,263.3
		 M389.7,266.4c-0.2,0.7-0.3,1.2-0.2,1.2c0.3,0,1-2.1,0.8-2.3C390.2,265.2,389.9,265.7,389.7,266.4 M119.2,266
		c0.3,0.2,0.9,0.4,1.4,0.4c1,0,0.7-0.2-0.8-0.6C118.9,265.6,118.8,265.7,119.2,266 M124.8,267.3c0.1,0.1,0.7,0.3,1.4,0.4
		c0.9,0.2,1,0.2,0.6-0.1C126.3,267.3,124.4,267,124.8,267.3 M130,268.8c0.3,0.2,1,0.4,1.6,0.4c1.3,0,1-0.2-0.8-0.5
		C129.8,268.5,129.6,268.5,130,268.8 M388.8,268.5c0,0.1-0.5,1.5-1,3c-0.6,1.5-0.8,2.5-0.6,2.3c0.5-0.5,2.1-5.1,1.8-5.3
		C388.9,268.4,388.8,268.4,388.8,268.5 M12.2,271c0.2,0.7,0.5,1.4,0.7,1.6c0.2,0.2,0.2-0.2-0.1-1C12.1,269.8,11.8,269.5,12.2,271
		 M136.2,270.4c0.4,0.2,1.1,0.3,1.4,0.3c0.4,0,0.3-0.1-0.2-0.3c-0.4-0.2-1.1-0.3-1.4-0.3C135.6,270.1,135.7,270.2,136.2,270.4
		 M14.1,275.8c0.5,1.3,1.1,2.8,1.4,3.2c0.8,1.1,0.7,0.6-0.3-1.3c-0.4-0.9-0.8-1.9-0.8-2.2c0-0.3-0.3-0.9-0.6-1.3
		C13.4,273.7,13.5,274.2,14.1,275.8 M386.1,275.9c-0.4,1.3-0.4,1.4,0.1,0.7c0.5-0.7,0.8-2.2,0.5-2.2
		C386.6,274.4,386.4,275.1,386.1,275.9 M268.4,277.5l-2.6,2.7l2.7-2.6c1.5-1.4,2.7-2.6,2.7-2.7C271.2,274.6,270.8,275,268.4,277.5
		 M140.2,277.2c-0.2,0.7-0.2,1.3-0.1,1.4c0.1,0.1,0.3-0.4,0.4-1.1C140.9,275.9,140.6,275.6,140.2,277.2 M163.2,277.9
		c0,0.2,0.4,0.3,1,0.2c0.6-0.1,1-0.3,1-0.3c0-0.1-0.4-0.2-1-0.2S163.2,277.8,163.2,277.9 M384.4,279.9c-0.2,0.6-0.3,1.1-0.2,1.2
		c0.1,0.1,0.4-0.4,0.6-1.1C385.3,278.5,384.9,278.4,384.4,279.9 M16,280.5c0,0.3,0.3,0.9,0.6,1.3c0.5,0.7,0.6,0.7,0.2-0.5
		C16.3,279.9,16,279.6,16,280.5 M180.3,281.9c0.2,0.2,0.6,0.7,0.7,1.1c0.2,0.6,0.2,0.6,0.1-0.2c0-0.5-0.3-1-0.7-1.1
		C180,281.6,180,281.7,180.3,281.9 M17.2,282.9c0,0.5,2.1,4.7,2.2,4.6c0.1-0.1-0.2-0.9-0.6-1.8c-0.4-0.9-0.8-1.8-0.8-2
		c0-0.2-0.2-0.5-0.4-0.6C17.4,282.9,17.2,282.8,17.2,282.9 M258.4,284.6c-0.5,0.3-0.8,0.6-0.6,0.6s0.9-0.3,1.4-0.6
		c0.5-0.3,0.8-0.6,0.6-0.6S259,284.3,258.4,284.6 M381.9,285.6c-0.3,0.9-0.5,1.6-0.4,1.6c0.3,0,1.4-2.9,1.2-3
		C382.6,284.1,382.2,284.7,381.9,285.6 M203.1,287.1c-0.1,0.2,0.4,0.3,1,0.3c0.8,0,1-0.1,0.7-0.3
		C204.1,286.7,203.3,286.7,203.1,287.1 M179.4,288.2c-0.1,0.6-0.2,1.1-0.1,1.2c0.1,0.1,0.3-0.3,0.4-0.9c0.1-0.6,0.2-1.1,0.1-1.2
		C179.8,287.2,179.6,287.6,179.4,288.2 M211.9,288.7c0.5,0.1,1.3,0.1,1.8,0c0.5-0.1,0.1-0.2-0.9-0.2
		C211.8,288.5,211.4,288.6,211.9,288.7 M379.6,290.3c-0.8,1.7-0.8,1.7-0.6,1.7c0.3,0,1.5-2.4,1.3-2.6
		C380.2,289.3,379.9,289.7,379.6,290.3 M222.3,289.9c0.7,0.1,1.8,0.1,2.4,0c0.6-0.1,0-0.2-1.3-0.2
		C222.1,289.7,221.6,289.8,222.3,289.9 M238.5,289.9c0.6,0.1,1.5,0.1,2,0c0.5-0.1,0-0.2-1.1-0.2
		C238.3,289.7,237.9,289.8,238.5,289.9 M228.9,290.3c1.5,0.1,4,0.1,5.6,0c1.6-0.1,0.4-0.1-2.7-0.1
		C228.7,290.2,227.4,290.2,228.9,290.3 M136.4,292.3c-0.2,0.8-0.4,1.8-0.4,2.1c0,0.3,0.3-0.3,0.6-1.4c0.3-1.1,0.5-2.1,0.4-2.1
		C136.9,290.8,136.7,291.4,136.4,292.3 M178.2,293.4c-0.1,0.6-0.2,1.1-0.1,1.2c0.1,0.1,0.3-0.3,0.4-0.9c0.1-0.6,0.2-1.1,0.1-1.2
		C178.6,292.4,178.4,292.8,178.2,293.4 M375.9,297.3c-1.4,2.6-1.7,3.1-2.9,4.9c-0.4,0.6-0.7,1.2-0.5,1.3c0.1,0.1,0.5-0.2,0.8-0.8
		c0.3-0.6,1.3-2.2,2.2-3.7c1.7-2.8,2.3-4.1,2-4.1C377.3,294.8,376.6,295.9,375.9,297.3 M158.6,296.2c-0.1,0.6-0.2,1.1-0.1,1.2
		c0.1,0.1,0.3-0.3,0.4-0.9c0.1-0.6,0.2-1.1,0.1-1.2C159,295.2,158.8,295.6,158.6,296.2 M135.1,298c-0.3,1.7,0,2,0.3,0.4
		c0.2-0.7,0.2-1.3,0.1-1.4C135.4,296.9,135.2,297.3,135.1,298 M24.8,298.2c0,0.2,0.3,0.8,0.7,1.4c0.4,0.6,0.9,1.4,1,1.8
		c0.2,0.4,0.4,0.7,0.5,0.5c0.1-0.1,0-0.6-0.3-1.2C26.1,299.5,24.8,297.8,24.8,298.2 M199.2,301.7c0,0.4-0.2,1-0.3,1.4
		c-0.2,0.7-0.2,0.7,0.2,0c0.3-0.4,0.4-1,0.3-1.4C199.3,301.1,199.3,301.1,199.2,301.7 M27.6,302.8c0,0.3,0.5,1.3,1.1,2.1
		c1.2,1.7,1.8,2.1,0.7,0.4c-0.4-0.6-1-1.5-1.2-2.1C27.8,302.6,27.6,302.5,27.6,302.8 M175.4,304.4c-0.2,0.7-0.2,1.3-0.1,1.4
		c0.1,0.1,0.3-0.4,0.4-1.1C176.1,303.1,175.8,302.8,175.4,304.4 M156.2,305.8c-0.1,0.6-0.2,1.1-0.1,1.2c0.1,0.1,0.3-0.3,0.4-0.9
		c0.1-0.6,0.2-1.1,0.1-1.2C156.6,304.8,156.4,305.2,156.2,305.8 M197.9,307.2c-0.3,1.7,0,2,0.3,0.4c0.2-0.7,0.2-1.3,0.1-1.4
		C198.2,306.1,198,306.5,197.9,307.2 M370.1,307.1c-0.3,0.6-0.8,1.5-1.1,2.1l-0.7,1l0.9-1c1.1-1.3,2.1-3.2,1.7-3.2
		C370.7,306,370.4,306.5,370.1,307.1 M30.3,307.6c0.1,0.4,0.5,0.9,0.8,1c0.4,0.2,0.4,0-0.1-0.8C30.2,306.6,30,306.5,30.3,307.6
		 M174.2,309.2c-0.3,1.7,0,2,0.4,0.4c0.2-0.7,0.2-1.3,0.1-1.4C174.6,308.1,174.4,308.5,174.2,309.2 M33.2,311.6
		c0,0.3,0.5,1.2,1.1,1.8s0.9,0.9,0.7,0.6c-0.2-0.3-0.7-1.2-1.1-1.8C33.5,311.5,33.2,311.3,33.2,311.6 M366.2,313
		c-0.5,0.8-0.5,0.9-0.1,0.8c0.3-0.1,0.7-0.6,0.8-1C367.2,311.7,367,311.8,366.2,313 M196.2,313.6c-0.3,1.7,0,2,0.4,0.4
		c0.2-0.7,0.2-1.3,0.1-1.4C196.6,312.5,196.4,312.9,196.2,313.6 M364.3,315.8c-1.2,1.6-1.5,2.4-0.4,1.2c0.7-0.8,1.8-2.6,1.6-2.6
		C365.5,314.4,364.9,315,364.3,315.8 M35.6,315.3c0,0.3,4.8,6.7,5,6.7c0.1,0-0.8-1.4-2.1-3.1C36,315.4,35.6,314.9,35.6,315.3
		 M195.4,317c-0.1,0.6-0.2,1.1-0.1,1.2c0.1,0.1,0.3-0.3,0.4-0.9c0.1-0.6,0.2-1.1,0.1-1.2C195.8,316,195.6,316.4,195.4,317
		 M362.4,318.4c0,0.2-0.6,1.2-1.4,2.1s-1.4,1.8-1.4,2c0,0.3,2.7-3,3.3-4.1c0.2-0.3,0.1-0.5-0.1-0.5S362.4,318.2,362.4,318.4
		 M178.4,319.7c0.1,0.1,0.8,0.3,1.6,0.4c1,0.2,1.2,0.1,0.8-0.1C180.3,319.6,178,319.4,178.4,319.7 M184.2,321.2
		c0.4,0.2,1.1,0.3,1.4,0.3c0.4,0,0.3-0.1-0.2-0.3c-0.4-0.2-1.1-0.3-1.4-0.3C183.6,320.9,183.7,321,184.2,321.2 M40.8,322.5
		c0,0.1,0.5,0.8,1,1.5c0.6,0.8,1,1.1,1,0.7c0-0.3-0.5-1-1-1.5S40.8,322.3,40.8,322.5 M356,326.9c-3.1,3.8-8.4,9.6-13.1,14.4
		c-2.5,2.6-4.5,4.7-4.3,4.7c0.3,0,7.6-7.3,10.7-10.9c5.4-6.1,8.9-10.3,8.6-10.3C357.8,324.8,356.9,325.7,356,326.9 M45.9,329.1
		c0.9,1,2.4,2.7,3.3,3.7l1.7,1.8l-1.5-2c-0.8-1.1-1.8-2.3-2.2-2.6c-0.3-0.3-0.9-1.1-1.3-1.7c-0.4-0.6-0.9-1.1-1.1-1.1
		C44.5,327.2,45.1,328.1,45.9,329.1 M52.7,336.6c0.9,1.1,2.6,2.9,3.8,4c1.5,1.4,1.2,1-0.8-1.2C51.5,334.9,50.8,334.3,52.7,336.6
		 M334.4,349.5c-1.9,1.7-4.8,4.2-6.5,5.7c-1.7,1.4-3.1,2.7-3.1,2.8c0,0.4,4.8-3.7,9.8-8.3c1.1-1,2.4-2.1,2.8-2.3
		c0.4-0.2,0.7-0.6,0.5-0.7C337.8,346.5,336.2,347.8,334.4,349.5 M64,347.7c0,0.1,0.6,0.6,1.3,1.3c1.3,1.2,1.3,1.2,0.5,0.1
		C65.1,348.2,64,347.3,64,347.7 M66.8,350.5c0,0.1,1,1,2.2,2.1c1.2,1,2.2,1.8,2.2,1.7c0-0.3-2.4-2.7-2.7-2.7c-0.1,0-0.6-0.3-1-0.7
		C67.1,350.6,66.8,350.4,66.8,350.5 M76.4,358.3c0,0.2,0.4,0.6,0.8,0.9c0.5,0.3,1.2,0.9,1.7,1.3c0.9,0.7,7.8,5.7,9,6.5
		c0.4,0.2,1.4,0.9,2.3,1.4c2.3,1.5,2.6,1.6,2.6,1.4c0-0.1-1-0.8-2.1-1.5c-1.2-0.7-2.4-1.5-2.8-1.7c-1.9-1.2-7.6-5.4-9.4-6.9
		C77.3,358.7,76.4,358.1,76.4,358.3 M320.4,361.1c-1.4,1.4-1.4,1.4-0.2,0.6c1.3-0.9,2.5-2.1,1.9-2
		C322,359.7,321.2,360.3,320.4,361.1 M311.2,367.4c-2.1,1.4-3.6,2.6-3.5,2.6c0.4,0,7-4.3,7.3-4.8
		C315.3,364.6,315.4,364.6,311.2,367.4 M93.5,370.4c0.5,0.6,2.9,2.1,2.9,1.8c0-0.1-0.8-0.7-1.7-1.3
		C93.8,370.4,93.2,370.1,93.5,370.4 M303.6,372.4c-0.6,0.4-1.2,0.8-1.5,0.8s-0.6,0.2-0.7,0.4c-0.1,0.2,0,0.3,0.5,0.1
		c1-0.4,3.6-2.1,3.1-2.1C304.8,371.6,304.1,372,303.6,372.4 M96.8,372.6c0,0.1,0.5,0.5,1.2,0.8s1.2,0.5,1.2,0.4
		c0-0.1-0.5-0.5-1.2-0.8S96.8,372.5,96.8,372.6 M100.2,374.6c0.4,0.3,1,0.6,1.2,0.6c0.2,0,0.1-0.3-0.4-0.6c-0.4-0.3-1-0.6-1.2-0.6
		C99.6,374,99.7,374.3,100.2,374.6 M103,376.1c0.7,0.6,1.5,1.1,1.9,1.2c1,0.3,0.9-0.1-0.2-0.5c-0.5-0.2-1.3-0.7-1.9-1
		C102.1,375.3,102.2,375.4,103,376.1 M297.8,375.6c-0.1,0.2-1.1,0.8-2,1.3c-1,0.5-1.7,0.9-1.6,1c0.2,0.2,2.9-1.1,4.1-2
		c0.4-0.3,0.6-0.6,0.3-0.6C298.3,375.2,297.9,375.4,297.8,375.6 M106,377.8c0.4,0.4,4.9,2.6,5.1,2.4c0.1-0.1-1-0.7-2.3-1.4
		C106.4,377.7,105.6,377.4,106,377.8 M111.6,380.6c0,0.3,5.1,2.6,5.7,2.6c0.3,0-0.8-0.6-2.4-1.4
		C111.9,380.4,111.6,380.3,111.6,380.6 M284.6,382.4c-0.9,0.4-1.4,0.8-1.1,0.8c0.6,0,2.9-1.1,2.9-1.4
		C286.4,381.6,286.5,381.5,284.6,382.4 M118,383.5c0,0.3,4.4,2.3,4.6,2.1c0.1-0.1-0.9-0.6-2.2-1.2C119.1,383.7,118,383.4,118,383.5
		 M281.2,384c-0.8,0.4-1.7,0.8-2.1,0.8c-0.4,0-0.8,0.2-0.9,0.4c-0.1,0.2,0.2,0.2,0.9,0c1.3-0.4,3.7-1.6,3.7-1.8
		C282.8,383.1,282.8,383.1,281.2,384 M274,386.9c-1.2,0.5-2.4,1-2.6,1.2c-0.5,0.5,4.2-1.3,4.8-1.7
		C276.7,385.9,276.5,385.9,274,386.9 M126.1,387c0.3,0.3,3.1,1.4,3.1,1.2c0-0.1-0.7-0.5-1.4-0.8C126.3,386.8,125.7,386.7,126.1,387
		 M129.6,388.5c0.1,0.1,0.9,0.4,1.8,0.6c0.9,0.2,1.4,0.3,1.2,0C132.2,388.8,129.2,388.1,129.6,388.5 M268.9,388.8
		c-1.4,0.6-1.1,0.8,0.4,0.3c0.7-0.2,1.4-0.5,1.5-0.6C271.1,388.3,269.8,388.5,268.9,388.8 M133.7,389.8c0.6,0.7,11.7,4,11.3,3.4
		c-0.1-0.2-0.5-0.4-0.8-0.4c-0.5,0-7.2-2.1-10.2-3.1C133.7,389.6,133.5,389.6,133.7,389.8 M265.2,390.2c-1.3,0.5-1.3,0.6-0.2,0.3
		c0.7-0.1,1.4-0.4,1.6-0.6C267.1,389.5,266.9,389.5,265.2,390.2 M256.6,392.7c-0.4,0.1-1,0.3-1.1,0.5c-0.2,0.2,0.4,0.2,1.4-0.1
		c1-0.2,1.8-0.5,1.9-0.6C259,392.4,257.7,392.4,256.6,392.7 M147.2,394.2c0.8,0.3,1.8,0.5,2.2,0.5c0.4,0,0-0.3-1-0.6
		C146.1,393.5,145.3,393.5,147.2,394.2 M252.2,394.2c-0.9,0.3-1.2,0.5-0.8,0.5c0.4,0,1.3-0.2,2-0.5
		C254.9,393.5,254.3,393.5,252.2,394.2 M151.5,395.2c0.2,0.2,1.8,0.6,3.5,0.9c1.8,0.4,3.6,0.8,4.2,0.9c0.6,0.1,0.9,0.1,0.7-0.1
		c-0.2-0.2-2.2-0.7-4.5-1.2C153.1,395.3,151.3,395,151.5,395.2 M247,395.4l-2,0.5l1.8-0.2c1-0.1,2-0.4,2.2-0.6
		c0.2-0.2,0.3-0.4,0.2-0.3C249.1,394.9,248.1,395.1,247,395.4 M242.5,396.4c-0.7,0.2-1.4,0.4-1.6,0.6c-0.3,0.3,2.1-0.1,3.3-0.6
		C245.2,396,244.2,396,242.5,396.4 M164.3,398c0.2,0.2,1.4,0.4,2.7,0.5c2.9,0.3,2.5,0-0.7-0.5C165,397.9,164.1,397.8,164.3,398
		 M233.8,398.2l-2.4,0.5l2.4-0.2c1.3-0.1,2.6-0.4,2.8-0.6C237,397.5,236.9,397.5,233.8,398.2 M175,399.6c9.6,1.2,24,1.7,34.7,1.2
		c5.1-0.2,9.8-0.5,10.3-0.5c0.5,0,0.9-0.1,0.7-0.2c-0.1-0.1-4.8,0-10.5,0.3c-11,0.5-25,0.1-34.2-1.1c-2.5-0.3-5-0.5-5.6-0.5
		C169.9,398.9,171.9,399.2,175,399.6 M224.6,399.4c-2,0.3-3,0.5-2.2,0.5c0.8,0,3.1-0.2,5.2-0.5c2.1-0.3,3.1-0.5,2.2-0.5
		C228.9,398.9,226.6,399.1,224.6,399.4 M59.5,399.6c-1.3,0.2-2.4,0.4-2.6,0.6c-0.2,0.2,0.3,0.2,1.1,0.1c0.8-0.1,2.4-0.4,3.7-0.5
		l2.3-0.3l-0.2,1.1c-0.2,1.1-0.2,1.1,0.2,0.2C64.7,399.1,64.2,399,59.5,399.6 M114.5,400.8c-0.5,0.2-0.9,0.5-0.9,0.6
		c0,0.1,0.3,0.1,0.7,0c0.4-0.2,1.2-0.4,1.9-0.6c1.1-0.3,1.1-0.3,0.2-0.3C115.8,400.5,115,400.6,114.5,400.8 M308.1,400.8
		c-1.3,0.5-1.1,0.8,0.2,0.4c0.6-0.2,1.5-0.4,1.9-0.5c0.6-0.1,0.6-0.2-0.2-0.2C309.5,400.5,308.6,400.6,308.1,400.8 M313.8,400.8
		c0.7,0.2,1.6,0.5,2,0.7c0.6,0.2,0.7,0.2,0.4-0.2c-0.2-0.3-1.1-0.6-2-0.7C312.8,400.4,312.7,400.5,313.8,400.8 M50.6,401.5
		c0.4,0,1.2-0.2,1.8-0.3l1-0.3l-1,0c-0.6,0-1.4,0.1-1.8,0.3 M50.6,401.2"/>
</g>
</svg>
