<?xml version="1.0" encoding="UTF-8" standalone="no"?>
<!-- Created with Inkscape (http://www.inkscape.org/) -->

<svg
   xmlns:dc="http://purl.org/dc/elements/1.1/"
   xmlns:cc="http://creativecommons.org/ns#"
   xmlns:rdf="http://www.w3.org/1999/02/22-rdf-syntax-ns#"
   xmlns:svg="http://www.w3.org/2000/svg"
   xmlns="http://www.w3.org/2000/svg"
   xmlns:sodipodi="http://sodipodi.sourceforge.net/DTD/sodipodi-0.dtd"
   xmlns:inkscape="http://www.inkscape.org/namespaces/inkscape"
   width="512"
   height="512"
   viewBox="0 0 135.46666 135.46667"
   version="1.1"
   id="svg15238"
   inkscape:version="0.92.5 (2060ec1f9f, 2020-04-08)"
   sodipodi:docname="logo-black-square.svg"
   inkscape:export-filename="/home/mat/documents/stackinsat/img/logo-blue-square-512.png"
   inkscape:export-xdpi="96"
   inkscape:export-ydpi="96">
  <defs
     id="defs15232">
    <clipPath
       clipPathUnits="userSpaceOnUse"
       id="clipPath10584">
      <path
         d="M 0,2400 H 960 V 0 H 0 Z"
         id="path10582"
         inkscape:connector-curvature="0" />
    </clipPath>
    <clipPath
       clipPathUnits="userSpaceOnUse"
       id="clipPath10630">
      <path
         d="m 314.612,1918.874 h 0.002 l -11.796,-11.795 c -3.175,-3.176 -4.923,-7.395 -4.923,-11.888 v 0 c 0,-4.484 1.748,-8.704 4.923,-11.876 v 0 c 3.276,-3.28 7.577,-4.919 11.88,-4.919 v 0 c 4.304,0 8.607,1.644 11.883,4.919 v 0 l 13.505,13.503 c 0.003,0.01 0.008,0.01 0.011,0.01 v 0 c 1.295,1.293 1.295,3.393 0,4.689 v 0 c -1.293,1.291 -3.392,1.291 -4.687,0 v 0 L 321.896,1888 c -3.97,-3.967 -10.428,-3.967 -14.393,0 v 0 c -1.922,1.923 -2.982,4.478 -2.982,7.193 v 0 c 0,2.725 1.06,5.279 2.982,7.202 v 0 l 17.791,17.791 -4.685,4.686 -5.997,-5.996 z m -30.23,-23.683 c 0,-16.715 13.6,-30.312 30.316,-30.312 v 0 c 8.096,0 15.709,3.151 21.438,8.88 v 0 l -4.686,4.687 c -4.477,-4.479 -10.426,-6.942 -16.752,-6.942 v 0 c -13.063,0 -23.689,10.627 -23.689,23.687 v 0 c 0,6.535 2.66,12.454 6.953,16.743 v 0 l -4.69,4.689 c -5.489,-5.49 -8.89,-13.071 -8.89,-21.432 m 41.491,15.863 -13.517,-13.516 c -1.294,-1.297 -1.294,-3.393 0,-4.688 v 0 c 1.294,-1.297 3.393,-1.297 4.687,0 v 0 c 0.003,0 0.004,0.01 0.007,0.01 v 0 l 13.507,13.512 c 3.971,3.967 10.423,3.967 14.394,0 v 0 c 3.966,-3.972 3.966,-10.427 0,-14.398 v 0 l -8.646,-8.674 4.684,-4.683 8.647,8.674 c 6.55,6.55 6.55,17.214 0,23.764 v 0 c -3.276,3.275 -7.58,4.913 -11.883,4.913 v 0 c -4.303,0 -8.606,-1.638 -11.88,-4.913"
         id="path10628"
         inkscape:connector-curvature="0" />
    </clipPath>
    <clipPath
       clipPathUnits="userSpaceOnUse"
       id="clipPath894">
      <path
         d="m 466.389,1509.039 h 0.006 l -33.085,-33.082 c -8.901,-8.908 -13.805,-20.741 -13.805,-33.339 v 0 c 0,-12.576 4.904,-24.412 13.805,-33.312 v 0 c 9.188,-9.197 21.252,-13.791 33.322,-13.791 v 0 c 12.069,0 24.139,4.608 33.325,13.791 v 0 l 37.877,37.874 c 0.01,0.013 0.023,0.013 0.033,0.019 v 0 c 3.63,3.63 3.63,9.521 0,13.152 v 0 c -3.631,3.622 -9.516,3.622 -13.145,0 v 0 l -37.906,-37.907 c -11.133,-11.126 -29.243,-11.126 -40.366,0 v 0 c -5.391,5.391 -8.363,12.556 -8.363,20.174 v 0 c 0,7.637 2.972,14.804 8.363,20.194 v 0 l 49.897,49.901 -13.141,13.141 z m -84.784,-66.421 c 0,-46.881 38.142,-85.017 85.027,-85.017 v 0 c 22.704,0 44.057,8.839 60.122,24.905 v 0 l -13.14,13.144 c -12.557,-12.557 -29.242,-19.466 -46.982,-19.466 v 0 c -36.638,0 -66.443,29.802 -66.443,66.434 v 0 c 0,18.327 7.464,34.924 19.503,46.955 v 0 l -13.152,13.151 c -15.398,-15.398 -24.935,-36.658 -24.935,-60.106 m 116.366,44.489 -37.909,-37.908 c -3.631,-3.639 -3.631,-9.519 0,-13.146 v 0 c 3.629,-3.638 9.514,-3.638 13.144,0 v 0 c 0.009,0 0.012,0.022 0.02,0.022 v 0 l 37.883,37.896 c 11.136,11.128 29.234,11.128 40.369,0 v 0 c 11.125,-11.138 11.125,-29.242 0,-40.38 v 0 l -24.25,-24.326 13.139,-13.135 24.25,24.326 c 18.371,18.371 18.371,48.279 0,66.651 v 0 c -9.188,9.185 -21.258,13.778 -33.326,13.778 v 0 c -12.069,0 -24.137,-4.593 -33.32,-13.778"
         id="path892"
         inkscape:connector-curvature="0" />
    </clipPath>
    <clipPath
       clipPathUnits="userSpaceOnUse"
       id="clipPath114">
      <path
         d="m 466.389,1509.039 h 0.006 l -33.085,-33.082 c -8.901,-8.908 -13.805,-20.741 -13.805,-33.339 v 0 c 0,-12.576 4.904,-24.412 13.805,-33.312 v 0 c 9.188,-9.197 21.252,-13.791 33.322,-13.791 v 0 c 12.069,0 24.139,4.608 33.325,13.791 v 0 l 37.876,37.874 c 0.011,0.013 0.023,0.013 0.034,0.019 v 0 c 3.63,3.63 3.63,9.521 0,13.152 v 0 c -3.63,3.622 -9.516,3.622 -13.145,0 v 0 l -37.906,-37.907 c -11.133,-11.126 -29.243,-11.126 -40.366,0 v 0 c -5.391,5.391 -8.363,12.556 -8.363,20.174 v 0 c 0,7.637 2.972,14.804 8.363,20.194 v 0 l 49.896,49.901 -13.139,13.141 z m -84.785,-66.421 c 0,-46.881 38.144,-85.017 85.028,-85.017 v 0 c 22.705,0 44.057,8.839 60.122,24.905 v 0 l -13.141,13.144 c -12.556,-12.557 -29.241,-19.466 -46.981,-19.466 v 0 c -36.639,0 -66.443,29.802 -66.443,66.434 v 0 c 0,18.327 7.464,34.924 19.504,46.955 v 0 l -13.153,13.151 c -15.397,-15.398 -24.936,-36.658 -24.936,-60.106 m 116.367,44.489 -37.908,-37.908 c -3.632,-3.639 -3.632,-9.519 0,-13.146 v 0 c 3.629,-3.638 9.513,-3.638 13.144,0 v 0 c 0.008,0 0.011,0.022 0.019,0.022 v 0 l 37.883,37.896 c 11.136,11.128 29.234,11.128 40.369,0 v 0 c 11.125,-11.138 11.125,-29.242 0,-40.38 v 0 l -24.25,-24.326 13.139,-13.135 24.25,24.326 c 18.371,18.371 18.371,48.279 0,66.651 v 0 c -9.188,9.185 -21.258,13.778 -33.327,13.778 v 0 c -12.068,0 -24.136,-4.593 -33.319,-13.778"
         id="path112"
         inkscape:connector-curvature="0" />
    </clipPath>
  </defs>
  <sodipodi:namedview
     id="base"
     pagecolor="#ffffff"
     bordercolor="#666666"
     borderopacity="1.0"
     inkscape:pageopacity="0.0"
     inkscape:pageshadow="2"
     inkscape:zoom="2.8"
     inkscape:cx="50.127025"
     inkscape:cy="280.58121"
     inkscape:document-units="mm"
     inkscape:current-layer="layer1"
     showgrid="false"
     units="px"
     fit-margin-top="0"
     fit-margin-left="0"
     fit-margin-right="0"
     fit-margin-bottom="0"
     inkscape:window-width="3840"
     inkscape:window-height="2022"
     inkscape:window-x="0"
     inkscape:window-y="45"
     inkscape:window-maximized="1"
     inkscape:snap-object-midpoints="true"
     inkscape:snap-center="true"
     inkscape:snap-page="true"
     inkscape:snap-bbox="true"
     inkscape:snap-bbox-midpoints="true"
     inkscape:snap-nodes="true"
     inkscape:snap-grids="false"
     inkscape:bbox-nodes="true"
     inkscape:snap-global="true"
     inkscape:snap-bbox-edge-midpoints="false" />
  <metadata
     id="metadata15235">
    <rdf:RDF>
      <cc:Work
         rdf:about="">
        <dc:format>image/svg+xml</dc:format>
        <dc:type
           rdf:resource="http://purl.org/dc/dcmitype/StillImage" />
        <dc:title></dc:title>
      </cc:Work>
    </rdf:RDF>
  </metadata>
  <g
     inkscape:label="Layer 1"
     inkscape:groupmode="layer"
     id="layer1"
     transform="translate(-44.897436,-176.071)">
    <g
       transform="matrix(0.68779133,0,0,-0.68779133,-217.45113,1235.1686)"
       id="g108"
       style="stroke-width:0.51291394">
      <g
         id="g110"
         clip-path="url(#clipPath114)"
         style="stroke-width:0.51291394">
        <path
           d="M 641.967,1273.16 H 312.478 v 343.362 h 329.489 z"
           style="fill:#232323;fill-opacity:1;fill-rule:nonzero;stroke:none;stroke-width:0.51291394"
           id="path116"
           inkscape:connector-curvature="0" />
      </g>
    </g>
  </g>
</svg>
