<svg xmlns:dc="http://purl.org/dc/elements/1.1/" xmlns:cc="http://creativecommons.org/ns#" xmlns:rdf="http://www.w3.org/1999/02/22-rdf-syntax-ns#" xmlns:svg="http://www.w3.org/2000/svg" xmlns="http://www.w3.org/2000/svg" xml:space="preserve" id="svg2" version="1.1" viewBox="0 0 1351.3467 1365.3333"><metadata id="metadata8"><rdf:rdf><cc:work rdf:about=""><dc:format>image/svg+xml</dc:format><dc:type rdf:resource="http://purl.org/dc/dcmitype/StillImage"></dc:type></cc:work></rdf:rdf></metadata><defs id="defs6"></defs><g transform="matrix(1.3333333,0,0,-1.3333333,0,1365.3333)" id="g10"><g transform="scale(0.1)" id="g12"><path id="path14" style="fill:#ff574d;fill-opacity:1;fill-rule:nonzero;stroke:none" d="m 796.523,3297.45 c -79.175,131.01 -70.765,337.1 6.508,505.97 41.602,90.89 158.535,171.23 257.009,180.24 0.53,0.04 1.05,0.09 1.57,0.14 75.04,6.49 269.69,-57.92 312.43,-198.52 42.73,-140.59 86.05,-448.99 -177.5,-569.2 -157.95,-72.06 -349.642,-2 -400.017,81.37 z M 1375.15,2198.99 c 526.56,49.04 1081.52,330.05 1262.85,806.13 294.43,773.07 -459.51,1482.23 -1113.1,1710.1 C 682.914,5008.79 142.383,4610.87 17.207,3748.14 -112.031,2857.2 520.707,200.102 780.492,121.199 c 101.645,-30.8982 184.305,-13.797 250.198,30.703 167.49,127.977 329.05,163.739 252.2,525.7 -1.31,6.148 -104.15,829.018 -178.83,1154.168 -41.62,181.23 88.3,350.21 271.09,367.22"></path><path id="path16" style="fill:#ff574d;fill-opacity:1;fill-rule:nonzero;stroke:none" d="m 9172.52,1582.6 c -93.13,21.02 -193.09,22.47 -282.74,50.77 -434.26,137 -547.44,260.06 -336.77,624.36 121.59,210.27 248.06,418.41 365.72,630.39 155.31,279.87 132.28,548.92 -48.2,649.45 -178.05,99.19 -436.56,15.7 -667.56,-219.69 -86.92,-88.56 -171.07,-179.3 -270.17,-285.67 -55.62,-59.7 -162.28,-48.49 -199.77,21.26 -14.22,26.44 -26.29,49.32 -37.87,72.39 -111.32,221.72 -204.17,453.09 -341.76,660.92 -49.98,75.49 -216.52,108.39 -302.51,86.25 -89.5,-23.07 -183.37,-116.05 -206.16,-212.74 -20.24,-85.89 43.08,-190.36 80.85,-282.93 57.35,-140.57 123.46,-317.39 166.94,-459.22 43.49,-141.85 124.55,-710.01 155.36,-1134.96 6.66,-92.03 5.06,-198.25 27.14,-295.17 38.95,-170.92 101.84,-337.76 134.19,-509.428 29.16,-154.75 27.56,-313.992 45.35,-470.711 35.4,-311.969 228.08,-357.871 640.82,-372.473 205.72,-7.296 320.7,150.422 328.48,403.231 9.36,303.793 69.63,348.781 410.11,303.84 55.51,-7.328 110.08,-20.137 165.46,-28.43 265.43,-39.769 458.14,66.223 511.94,280.821 58.92,235.04 -73.24,427.77 -338.85,487.74"></path><path id="path18" style="fill:#ff574d;fill-opacity:1;fill-rule:nonzero;stroke:none" d="m 6006.38,2610.61 c -69.02,-3.85 -123.3,72.29 -118.19,164.03 1.83,33 20.21,94.95 59.33,127.85 68.58,57.69 165.47,53.74 217,-17.5 31.89,-44.08 40.21,-114.19 37.82,-145.97 -5.49,-73.13 -104.4,-127.28 -195.96,-128.41 z M 7031.08,1078.5 c -274.09,198.39 -552.96,391.55 -860.6,607.19 -61.52,43.11 -62.85,130.47 -2.38,175.09 132.53,97.82 251.5,184.72 366.92,275.22 408.86,320.56 482.48,807.03 166.42,1078.98 -318.53,274.07 -1107.27,337.12 -1468.3,101.57 -73.85,-48.19 -123.97,-171.37 -129.08,-244.77 -30.22,-433.49 -131.85,-897.84 -153.5,-1051.94 -20.19,-143.66 -0.04,-322.52 13.13,-417.96 21.68,-156.98 50.63,-296.39 55.02,-453.13 7.4,-264.059 -40.8,-531.27 -11.94,-792.281 12.92,-116.77 129.67,-281.0706 244.59,-320.8674 313.51,-108.6016 550.51,38.5976 616.2,338.8284 21.48,98.191 37.05,197.402 53.89,306.293 12.83,83.039 116.31,122.597 186.62,71.336 52.34,-38.149 100.22,-72.746 148.83,-106.539 94.86,-65.938 192.23,-129.028 288.57,-193.29 174.73,-116.519 342.27,-102.3 501.57,25.641 201.63,161.93 197.84,445.871 -15.96,600.629"></path><path id="path20" style="fill:#ff574d;fill-opacity:1;fill-rule:nonzero;stroke:none" d="m 4446.81,3677.46 c -224.26,-1.15 -399.23,-207.13 -424.56,-501.22 -3.07,-35.59 -1.36,-71.57 -0.87,-107.36 2.04,-150.13 4.47,-300.24 6.75,-450.35 3.07,-109.46 -18.93,-613.37 -71.74,-916.23 -10.26,-58.85 -111.27,-152.66 -160.42,-148.07 -75.84,7.08 -179.24,72.83 -206.07,135.79 -49.93,117.18 -61.98,249.6 -74.01,376.92 -30.26,320.24 -39.4,642.61 -85.89,960.7 -10.83,74.12 -129.16,178.31 -211.6,189.23 -86.06,11.41 -213.19,-54.43 -276.68,-121.02 -60.6,-63.56 -80.15,-170.58 -86.64,-260.18 -19.13,-263.83 -37.25,-528.92 -28.33,-792.71 8.18,-241.71 23.29,-488.66 86.69,-722.07 105.95,-390.109 470.27,-665.327 833.21,-676.339 349.54,-10.59 728.94,210.519 825.96,615.459 151.61,632.78 234.6,1280.95 299.62,1926.22 29.03,288.17 -200.24,492.39 -425.42,491.23"></path><path id="path22" style="fill:#ff574d;fill-opacity:1;fill-rule:nonzero;stroke:none" d="m 2891.32,700.723 c -233.39,37.996 -341.98,157.527 -377.86,335.287 -40.91,202.68 -42.57,510.68 -39.37,618.73 -2.61,171.46 16.23,346.41 -17.37,512.81 -15.54,77 -132.59,139.33 -209.22,144.1 -81.76,5.09 -192.26,-34.56 -248.59,-107.93 -49.05,-63.89 -43.78,-164.15 -51.49,-249.11 -21.99,-242.65 -46.22,-485.49 -54.38,-728.62 -6.21,-184.86 -3.12,-371.728 20.85,-555.029 33.53,-256.309 214.93,-418.691 490.8,-468.66 194.14,-35.102 399.8,-40.102 598.59,-30 187.01,9.5 275.92,143.199 184.93,290.66 -62.1,100.641 -183.03,219.23 -296.89,237.762"></path><path id="path24" style="fill:#ff574d;fill-opacity:1;fill-rule:nonzero;stroke:none" d="m 10018,722.402 c -37.07,24.289 -72.69,41.008 -101.48,43.039 -157.24,11.11 -263.83,-100.05 -250.27,-251.359 13.01,-145.191 119.78,-255.34 280.96,-223.172 13.83,2.762 27.3,6.903 40.5,12.172 186.99,74.77 194.89,311.43 30.29,419.32"></path><path id="path26" style="fill:#6a3906;fill-opacity:1;fill-rule:nonzero;stroke:none" d="m 2697.03,8988.22 c 0.03,0 0.72,0.9 1.06,1.33 0.05,0.07 0.12,0.17 0.18,0.25 -0.79,-1.13 -1.24,-1.58 -1.24,-1.58"></path><path id="path28" style="fill:#6a3906;fill-opacity:1;fill-rule:nonzero;stroke:none" d="m 8517.32,8398.52 c -47.08,50.69 -180.78,159.1 -414.27,72.31 -35.37,-13.12 -64.54,-23.54 -89.66,-31.14 -485.57,1036.97 -1513.36,1736.91 -2654.12,1795.81 -995.58,52.4 -1928.42,-357.74 -2563.46,-1123.77 -5.07,-5.24 -10.59,-11.15 -13.85,-15.15 -26.02,-31.71 -51.14,-64.04 -78.17,-99.85 -2.11,-2.59 -4.5,-5.69 -5.7,-7.18 -3.12,-3.96 -6.53,-8.9 -9.85,-13.89 -23.99,-32.49 -47.41,-65.44 -70.17,-98.72 -81.66,67.41 -179.65,112.92 -286.77,131.78 -163.09,28.39 -327.31,-8.05 -462.59,-102.83 -156.78,-109.88 -252.07,-286.38 -262.44,-473.01 -11.82,-7.16 -23.54,-14.76 -35.03,-22.76 -135.16,-94.78 -225.49,-236.75 -254.21,-399.79 -28.61,-163.04 7.77,-327.38 102.61,-462.59 94.95,-135.5 236.98,-225.89 399.96,-254.5 89.21,-15.66 178.53,-11.77 263.68,10.47 -1.57,-28.21 -2.81,-56.77 -3.71,-85.6 -0.45,-5.18 -0.68,-10.36 -0.68,-15.15 v -11.49 c -0.79,-40.71 -0.68,-81.77 0,-122.94 l 1.01,-40.94 c 1.36,-45.9 3.83,-91.57 7.21,-136.4 l 5.75,-62.18 c 2.14,-22.41 4.5,-44.6 7.09,-66.34 34.92,-299.21 111.62,-588.4 228.31,-861.49 -118.49,-114.83 -176.04,-278.03 -154.98,-445.24 12.39,-98.5 51.47,-190.64 112.63,-265.93 0.12,-0.23 7.55,-9.41 7.66,-9.63 l 385.78,-474.53 c 88.75,-109.31 215.13,-177.57 355.81,-192.05 121.53,-12.5 241.49,16.56 342.3,82.4 526.45,-377.44 1165.65,-583.96 1814.77,-583.96 26.58,0 53.05,0.34 79.86,1.02 570.15,14.75 1119.47,183.59 1596.82,489.68 173.68,-116.41 402.22,-119.9 582.89,-1.36 0.33,0.23 0.67,0.45 1.01,0.74 15.09,9.96 30.07,20.78 44.49,32.49 16.33,13.29 32.1,27.65 47.53,43.87 l 429.25,452.01 c 96.98,102.16 148.46,236.13 144.74,377.27 -3.27,127.22 -50.91,246.27 -135.05,339.42 252.53,510.18 359.42,1078.59 309.75,1652.3 -3.72,43.36 -8.56,87.29 -14.31,131.39 122.77,125.92 209.28,242.39 257.48,346.86 127.28,275.95 59.7,435.39 -19.37,520.59"></path><path id="path30" style="fill:#ffffff;fill-opacity:1;fill-rule:nonzero;stroke:none" d="m 7254.4,4901.25 c -27.79,-29.64 -26.3,-76.2 3.34,-103.99 l 59.02,-55.51 c 10.38,7.78 21.03,15.12 30.25,24.83 l 61.84,65.13 12.85,13.52 -63.31,59.36 c -29.64,27.79 -76.19,26.3 -103.99,-3.34"></path><path id="path32" style="fill:#ffffff;fill-opacity:1;fill-rule:nonzero;stroke:none" d="m 2639.46,5345.55 c 32.32,24.62 38.56,70.78 13.94,103.11 -24.61,32.32 -70.77,38.57 -103.1,13.95 l -64.47,-49.1 -14.22,-10.84 c -6.77,12.95 -12.2,26.36 -16.69,39.99 9.18,-28.78 23,-56.46 43.15,-81.24 l 7.26,-8.95 54.76,-67.37 10.33,7.87 69.04,52.58"></path><path id="path34" style="fill:#ffffff;fill-opacity:1;fill-rule:nonzero;stroke:none" d="m 2490.17,7827.21 c 68.4,341.75 223.64,624.36 405.37,779.11 116.15,98.91 243.01,146.01 365.25,121.54 313.48,-62.74 476.73,-567.7 364.62,-1127.86 -112.11,-560.16 -457.13,-963.4 -770.62,-900.66 -220.03,44.05 -365.55,306.27 -394.29,652.18 -12.22,146.93 -3.77,308.69 29.67,475.69 z M 2861.6,6357 c 405.43,-81.14 851.63,440.36 996.62,1164.79 145,724.45 -66.13,1377.49 -471.56,1458.64 -83.74,16.76 -169.12,6.88 -253.28,-24.52 -5.48,-2.48 -10.9,-4.46 -16.36,-6.64 -68.74,-28.03 -136.56,-69.91 -201.73,-125.26 -279.47,-373.4 -471.36,-820.32 -538.66,-1315.29 -14.13,-103.96 -22.19,-207.28 -24.8,-309.73 37.47,-446.63 225.53,-785.09 509.77,-841.99"></path><path id="path36" style="fill:#ff9a75;fill-opacity:1;fill-rule:nonzero;stroke:none" d="m 8198.22,8215.17 c -134.04,-49.9 -237.14,-81.95 -361.94,-53.54 -398.88,1011.22 -1364.19,1743.21 -2491.21,1801.42 -952.2,49.15 -1801.85,-368.51 -2350.99,-1039.31 -25.05,-30.6 -49.99,-61.3 -73.77,-92.93 -1.93,-2.58 -4.08,-4.99 -6,-7.57 0.32,0.28 0.66,0.5 0.98,0.77 65.17,55.35 132.99,97.23 201.73,125.26 5.46,2.18 10.88,4.16 16.36,6.64 84.16,31.4 169.54,41.28 253.28,24.52 405.43,-81.15 616.56,-734.19 471.56,-1458.64 C 3713.23,6797.36 3267.03,6275.86 2861.6,6357 c -284.24,56.9 -472.3,395.36 -509.77,841.99 -0.03,0.49 -0.11,0.96 -0.15,1.45 -0.12,-4.84 0.1,-9.76 0,-14.6 -0.77,-37.32 -0.69,-74.83 0.01,-112.47 0.13,-6.92 -0.18,-13.76 0,-20.69 0.14,-5.56 0.69,-11 0.87,-16.55 1.32,-41.87 3.5,-83.5 6.61,-124.88 1.41,-18.87 3.47,-37.54 5.25,-56.31 1.93,-20.31 4.16,-40.51 6.51,-60.68 37.62,-322.77 128.21,-628.75 264.12,-908.49 17.11,-35.2 8.4,-77.29 -21.98,-101.98 l -77.92,-63.34 c -70.77,-57.53 -101.86,-145.79 -91.2,-230.51 1.81,-14.38 5.08,-28.58 9.39,-42.55 0.49,-1.59 1.06,-3.15 1.58,-4.73 4.49,-13.63 9.92,-27.04 16.69,-39.99 l 14.22,10.84 64.47,49.1 c 32.33,24.62 78.49,18.37 103.1,-13.95 24.62,-32.33 18.38,-78.49 -13.94,-103.11 l -69.04,-52.58 -10.33,-7.87 v 0 l 331.07,-407.31 c 88.55,-108.94 250.13,-125.63 359.06,-37.08 l 72.5,58.92 c 30.74,24.98 74.31,24.62 105.34,0.01 503.53,-399.38 1144.25,-631.52 1836.96,-613.64 585.33,15.11 1124.25,206.81 1568.34,522.02 32.95,23.39 77.42,20.86 106.72,-6.97 l 46.11,-43.78 c 87.39,-83 219.19,-91.12 315.98,-27.49 5.22,3.43 10.61,7.2 15.65,10.98 l -1.06,0.99 -59.02,55.51 c -29.64,27.79 -31.13,74.35 -3.34,103.99 27.8,29.64 74.35,31.13 103.99,3.34 l 63.31,-59.36 v 0 l 354.49,373.28 c 96.67,101.79 92.47,264.18 -9.32,360.85 l -73.96,70.24 c -27.88,26.46 -33.69,68.07 -15.06,101.68 263.83,475.99 395.08,1034.5 343.9,1624.78 -7.39,85.32 -18.76,169.55 -33.66,252.59 84.89,78.1 240.11,231.79 300.85,363.53 65.2,141.42 81.53,287.13 -90.72,222.99"></path><path id="path38" style="fill:#ff574d;fill-opacity:1;fill-rule:nonzero;stroke:none" d="m 2547.15,7494.55 c -7.95,95.72 -2.44,201.09 19.33,309.87 44.56,222.63 145.69,406.72 264.07,507.53 75.66,64.43 158.3,95.12 237.93,79.17 204.21,-40.87 310.55,-369.81 237.52,-734.71 -73.03,-364.89 -297.78,-627.57 -502,-586.7 -143.32,28.69 -238.12,199.51 -256.85,424.84 z m 307.64,-795.21 c 313.49,-62.74 658.51,340.5 770.62,900.66 112.11,560.16 -51.14,1065.12 -364.62,1127.86 -122.24,24.47 -249.1,-22.63 -365.25,-121.54 -181.73,-154.75 -336.97,-437.36 -405.37,-779.11 -33.44,-167 -41.89,-328.76 -29.67,-475.69 28.74,-345.91 174.26,-608.13 394.29,-652.18"></path><path id="path40" style="fill:#ffdbc7;fill-opacity:1;fill-rule:nonzero;stroke:none" d="m 3306,7656.41 c 73.03,364.9 -33.31,693.84 -237.52,734.71 -79.63,15.95 -162.27,-14.74 -237.93,-79.17 -118.38,-100.81 -219.51,-284.9 -264.07,-507.53 -21.77,-108.78 -27.28,-214.15 -19.33,-309.87 18.73,-225.33 113.53,-396.15 256.85,-424.84 204.22,-40.87 428.97,221.81 502,586.7"></path><path id="path42" style="fill:#ffffff;fill-opacity:1;fill-rule:nonzero;stroke:none" d="m 2922.62,8123.37 c -135.41,49.36 -195.78,-48.18 -356.35,-2.21 -39.48,11.31 -60.61,37.04 -87.88,42.88 108.34,117.13 124.68,297.62 29.4,433.59 -109.81,156.66 -325.81,194.65 -482.47,84.86 -141.11,-98.9 -184.82,-283.61 -112.08,-433.87 -64.31,-2.45 -128.7,-22.2 -185.32,-61.88 -156.66,-109.79 -194.65,-325.79 -84.86,-482.45 109.8,-156.66 325.81,-194.65 482.47,-84.85 49.85,34.94 86.22,81.29 111.1,132.42 97.82,-179.77 282.49,-304.45 470.37,-312.99 148.18,-6.74 245.13,43.16 320.61,144.45 97.45,130.77 23.73,493.13 -104.99,540.05"></path></g></g></svg>
