<svg version="1.1" id="Layer_1" xmlns="http://www.w3.org/2000/svg" x="0" y="0" xml:space="preserve" viewBox="13.44 152.07 565.33 459.22"><style>.st0{fill:#282827}.st1{fill:#339ffe}.st14{fill:#3dcb8d}</style><path class="st0" d="M500 610.5c-.4.7-1.1.6-1.7.6h-32.7c-.1 0-.3-.1-.6-.2 1.6-1.8 2.6-3.9 3.9-5.9 3.2-4.9 5.8-10.1 8.3-15.3 2.8-6 5.2-12.1 7.4-18.4 1.9-5.4 3-11 4.5-16.5 2.3-7.9 3-16 3.9-24 .7-.8.1-1.9.8-2.7 1-13.1 1.5-26.2 0-39.4-.5-.5-.3-1.3-.7-1.9-.2-3.1-.7-6.2-1.4-9.3-2.7 2.7-4.7 5.7-7.3 8.3-6.8 6.6-14.5 11.7-23.3 15.3-20.4 8.4-41.3 9-62.5 4.4-11.6-2.5-23.1-5.6-34.7-7.7-13.4-2.4-27-4.2-40.6-5.1-14-1-28-1-42.1 0-14.1 1-28 3.1-41.7 6.3-14.5 3.4-28.6 8-42.3 13.8-6 2.5-11.9 5.4-17.7 8.4-9.9 5.2-19.4 11-28.7 17.2-6.6 4.4-13.2 8.6-19.9 12.9-2.7 1.8-5.5 3.5-8.2 5.3-.5.3-1 .6-1.4.3-.6-.4-.1-.9.1-1.4 2.9-7.3 5.3-14.8 8-22.1 1.4-3.6 2.4-7.4 3.9-11 2.9-7.2 5.4-14.4 7.8-21.7.1-.3.2-.7.2-1.1-.2-.4-.4-.1-.5 0-6.5 6.1-12.9 12.1-19.4 18.2-2.8 2.7-5.7 5.4-8.5 8.1-3.8 3.6-7.5 7.4-11.5 10.8-1.6 1.4-.5 3.3 0 4.7 1.5 4 2 8.3 3.4 12.3 2.6 7.4 5.3 14.8 8.7 21.9 2.2 4.6 4.7 9.1 7.4 13.4 4.1 6.5 8.2 13 13.3 18.8.8.9 1.4 2 2.1 3-.5.7-1.1.4-1.6.4H102c-1.3 0-2-.4-2.8-1.5-3.1-4.8-6.2-9.7-8.9-14.8-2.7-4.9-5.2-9.9-7.5-15-2.7-6-4.9-12.2-7.3-18.6-9.2 8.7-18.3 17.3-28 26.4V557c-.5-2-.5-4-.5-6.1 0-8.1-.2-16.2.1-24.3.4-10 .5-20 1.9-29.9.4-.9.9-1.8.7-2.8.8-7 1.5-14.1 3.2-21 .3-.6.8-1.1.7-1.8.9-6.3 2.9-12.3 4.7-18.4 2.7-8.7 6.2-17 10-25.2 2.4-5.3 5.2-10.4 8.3-15.4 5.3-8.4 10.9-16.5 17.3-24.1 5.6-6.6 11.5-12.8 17.5-18.9 5.3-5.3 11-10.2 16.9-14.9 13.4-10.7 27.8-20.1 43.2-27.8 7.4-3.7 14.9-7.1 22.6-10.1 1.5-.6 2.1-1.3 1.2-2.9-3.4-6.1-4.8-12.9-6.6-19.6-.7-2.8-.9-5.8-1-8.7 0-3.6-.3-7.1 0-10.7.1-1.8-.7-2.3-2.4-2.4-8.1-.6-16.2-.4-24.2-1.7-7.8-1.3-14.9-4.6-20.7-9.9-5.6-5.1-9.6-11.3-11-19-.5-2.6-1.4-5-.5-7.7 1.3-9.4 1.6-19 2.3-28.5.6-8.7 4.5-15.8 10.8-21.7 9.7-9.2 21.3-12.2 34.3-11.3 8.8.6 17.6 1 26.5 1.5 9.7.5 18.6 3.3 26.1 9.7 1.4 1.2 2.1 1.1 3.4-.5 4.5-5.7 8.9-11.5 13.7-16.9 1.7-1.9 3.1-4.2 4.8-6.1 2-2.2 3.8-4.7 5.6-7.1.6-.8 1.2-.9 2-.4 5.6 3 11.2 5.9 16.7 8.8 2.2 1.1 4.4 2.3 6.6 3.3 1.4.6 1.6 1.4.9 2.7-2.9 5-5.2 10.4-7.2 15.9-.4 1-.6 2-.8 2.9.4 1.1-.1 2.1-.5 3.2-1 2.9-1.4 5.8-1.4 8.8 0 1.8.8 2.4 2.5 2.4 14.2 0 27.8 3.3 41.1 8.1 10.5 3.8 20 9.4 28.4 16.9 7.3 6.5 13.3 13.9 17.8 22.5 3.6 6.8 6.5 13.9 7.1 21.7-.1.8.5 1.3.7 1.9.7 4.2 1.3 8.5.8 12.8-.3 2.7.1 5.6-.8 8.3-.3.7-.9 1.4-.7 2.3-.8 4.8-1.8 9.6-4 14.1-1.1 2.3-1 2.6 1.5 3.4 16.2 5 31.6 11.7 46.4 19.9 9.5 5.3 18.4 11.3 27.1 17.7 7.6 5.7 14.7 12 21.7 18.4 4.7 4.3 9 9 13.2 13.7 6.7 7.6 12.8 15.7 18.4 24.2 2.1 3.1 4.1 6.4 5.9 9.7 3.8 6.7 7.2 13.5 10.5 20.4 1.6 3.4 2.9 7 4.2 10.6 2.6 7.2 4.8 14.5 6.5 22 1.4 6.2 2.4 12.4 3.2 18.7.3 2.2.4 4.4.5 6.5.7 9.9.3 19.8-.3 29.7-.4 7.4-.9 14.7-2.3 22-1.3 6.4-2.2 13-3.9 19.3-2.1 7.7-4.4 15.3-7.3 22.7-2.4 6.2-5.2 12.2-8.1 18.2-.5 1.4-1.8 2.8-2.8 4.4z"/><path class="st1" d="M369.4 269.5c-.7-7.7-3.6-14.7-7.1-21.4-3.2-6.2-7.2-11.9-12-16.9-6.3-6.6-13.3-12.2-21.4-16.5-16.1-8.7-33.5-12.8-51.7-13.9h-.4c-4.6-.1-4.6-.1-4.5-4.6.1-3.6 1.2-7 2.4-10.3 7.4-.2 14.9-.7 22.3-.6 20 .1 39.9 2 59.6 5.8 17 3.3 33.6 8 49.8 14.1 11.7 4.4 23.1 9.6 34.2 15.5 9.7 5.2 19.1 10.8 28.1 17.1 6.9 4.8 13.5 9.8 20 15.1 5.5 4.6 10.8 9.4 16 14.4 5.6 5.4 11 11.1 16 17.1 4.1 4.8 8 9.6 11.8 14.7 4.4 6 8.5 12 12.3 18.4 2.8 4.7 5.5 9.5 8.1 14.4 2.8 5.5 5.4 11 7.8 16.7 3.1 7.3 5.6 14.7 8.1 22.2 1.9 5.7 2.8 11.6 4.4 17.3 2.3 8 2.8 16.1 4 24.3.3.5.4 1 .3 1.6.1.8-.2 1.7.4 2.4 1.3 14.3 1 28.6 0 42.8-.7.8-.1 1.9-.8 2.7-.8 7.5-1.9 14.9-3.2 22.3-.4.4-.4 1-.8 1.4-1.1 4.9-1.9 9.9-3.4 14.7-2.4 7.6-5 15.1-7.9 22.5-2.3 5.9-5.1 11.6-7.9 17.3-2.4 4.8-5 9.6-7.8 14.2-3.9 6.4-8 12.7-12.4 18.8-3.7 5.2-7.7 10.1-11.8 15-5 5.8-10.1 11.5-15.6 16.8-2.1 2-3.9 4.4-6.5 6l6-11.7c.1-.3.3-.5.4-.8 2-5.7 4.6-11.1 6.6-16.8 1.6-4.6 2.6-9.3 4.2-13.9 2-5.6 2.5-11.5 3.8-17.2 3.4-15.5 3.8-31.2 3.9-46.9 0-10-.8-20-3-29.8-1.2-5.2-2-10.6-3.9-15.6-1.4-3.7-2.2-7.7-3.7-11.3-2.5-6.1-5.1-12.3-7.9-18.3-2.5-5.1-5.2-10.2-8.2-15-3.8-6.1-7.8-12-12-17.8-3.5-4.8-7.3-9.3-11.2-13.7-5.7-6.3-11.5-12.3-17.9-17.9-4.3-3.7-8.5-7.4-13-10.9-6.1-4.7-12.3-9.2-18.8-13.3-4.3-2.7-8.6-5.3-13.1-7.8-9.9-5.5-20.2-10.2-30.8-14.2-5.3-2-10.6-3.9-16.1-5.4-1.1-.3-1.1-.9-.7-1.8 2.5-5 3.8-10.3 4.8-15.8.5-.5.3-1.3.8-1.8.9-7.3 1-14.6 0-21.8-.2-.9-.3-1.5-.6-1.9zM129.3 233.6c-.2 3.6.8 7 1.8 10.4 2.5 8.6 8 14.9 15.4 19.7 7.4 4.8 15.6 6.6 24.3 6.8 5.3.2 10.6.6 16 .8 1.5.1 2 .5 1.9 2-.4 6.1-.5 12.3.7 18.3 1.5 7.6 3.4 15.1 7.2 22 .8 1.5.5 2.2-1.1 2.8-10.4 3.8-20.4 8.6-30.1 13.8-6.1 3.3-11.9 6.9-17.7 10.7-6.3 4.2-12.4 8.6-18.3 13.3-5.1 4.1-10 8.4-14.7 12.9-5.2 5-10.2 10.2-15.1 15.5-5 5.4-9.4 11.3-13.9 17.2-1.5 1.9-2.8 4.1-4.1 6.1-2 3.3-4.1 6.5-6 9.8-3.3 5.9-6.4 12-9.1 18.2-2.9 6.5-5.3 13.1-7.5 19.8-1.9 5.7-3.3 11.4-4.4 17.3-.4.4-.4 1-.8 1.4-1.3 7.1-2.4 14.2-3.2 21.4-.6.6-.2 1.6-.8 2.3-1.9 20-2 40-1.9 60 0 .2-.1.4-.1.6-3.6-5.6-6.5-11.6-9.8-17.3-.1-.3-.3-.5-.4-.8-2-5.4-4.8-10.4-6.9-15.7-3.1-7.6-5.7-15.3-8.1-23.1-1.7-5.4-2.5-11-4-16.5-2.5-8.9-3.1-18-3.9-27.1-.7-.9 0-2.2-.7-3.2-.7-10.8-.8-21.6 0-32.4.6-.8.3-1.7.4-2.5 0-.8-.1-1.6.4-2.3.7-8 1.4-16 3.2-23.8 1.3-5.4 2-11 3.9-16.3 1.5-4.1 2.3-8.4 3.8-12.5 2.5-6.6 5-13.3 7.8-19.8 2.5-5.6 5.2-11.2 8.2-16.5 3.7-6.7 7.7-13.2 12-19.6 3.6-5.5 7.6-10.8 11.7-15.9 5.2-6.5 10.6-12.8 16.4-18.8 4.9-5.1 10.1-10 15.4-14.6 7-6.1 14.2-12 21.8-17.3 3.2-2.3 6.8-4.7 10.3-7.1z"/><path class="st0" d="M359.8 579c-7.2-.3-13.1-2.9-17.7-9-3.4-4.6-3.4-13.3-.9-17.4 5.3-8.4 14.8-11.6 23.8-9.5 7.7 1.7 14.4 8.2 15.1 15.6.8 8.2-3.6 14.3-10.2 17.8-3.1 1.8-6.5 2.7-10.1 2.5zM232 579.1c-7.5-.5-13.7-3.2-17.8-10.1-2.9-4.8-3.1-9.8-1-14.5 3.9-8.5 12.4-12.8 22.2-11.6 6.4.8 11.5 3.9 15.1 9.2 3.3 4.9 2.7 14.1-.7 18.5-4.7 5.8-10.6 8.2-17.8 8.5z"/><path d="M13.7 453.2c1.4.8.7 2.1.7 3.2-1.3-.9-.6-2.2-.7-3.2z" fill="#6fbcfe"/><path d="M14.5 415.9v2.6c-.2.3-.5.3-.8.1.1-.9-.7-2.1.8-2.7z" fill="#bbdffe"/><path d="M577.2 461.5c.1-1-.6-2.1.8-2.7-.1.9.7 2.1-.8 2.7z" fill="#c5e4fe"/><path d="M493.8 528.1c0 1 .5 2.1-.8 2.7.1-1-.6-2.1.8-2.7z" fill="#acacac"/><path d="M578 416c-1.3-.4-.7-1.5-.8-2.3.3-.2.6-.2.8.2v2.1z" fill="#5bb3fe"/><path d="M13.7 418.6c.3 0 .5-.1.8-.1-.1.8.6 1.9-.8 2.3v-2.2z" fill="#54affe"/><path d="M578 413.8c-.3-.1-.5-.1-.8-.2v-1.7c1.2.3.8 1.2.8 1.9z" fill="#daedfe"/><path d="M493.1 486.8c1.1.3.7 1.2.7 1.9-1.1-.3-.9-1.1-.7-1.9z" fill="#bdbdbd"/><path d="M573.3 485.2c-.1-.7-.1-1.2.8-1.4.1.7 0 1.2-.8 1.4z" fill="#a0d2fe"/><path d="M140.8 499.6c.2-.5.5-.9 1.1-.8.1 0 .2.4.2.5-.1.4-.4.3-.7.2-.2.1-.4.1-.6.1z" fill="#a1a1a1"/><path d="M265.4 369.6c.8 7 2.8 13.5 8 18.6.4.4.8.6.5 1.3-2.6 6-2.4 11.9.2 18 2.7 6.4 7.9 10.6 12.3 15.6 1.5 1.7 2.9 3.4 4.6 4.9 6.8 6 14.7 8.3 23.6 7.8 8.2-.4 14.9-4.1 21.1-9.1 1.2-1 2.2-1.2 3.7-.7 8.5 2.7 16.8 2.1 24.9-1.6 6-2.7 10.7-7 13.8-12.7 3.2-5.9 3.5-12.4 2-18.9-1.1-4.6-3.6-8.3-6.9-11.6-1.7-1.7-3.2-3.5-4.8-5.3-4.7-5.4-9.7-10.5-14.4-16-4.6-5.3-9.5-10.3-14.3-15.4-1.1-1.2-1.1-2 .3-3 2.3-1.7 4.4-3.5 6.5-5.4.6-.6 1.1-.6 1.9-.4 9.1 2.5 18 5.7 26.8 9.2 9.3 3.7 18.2 8.4 26.9 13.4 4.7 2.7 9.1 5.9 13.7 9 6.5 4.3 12.4 9.3 18.3 14.4 3.5 3 6.7 6.4 10 9.7 4.9 4.8 9.3 10.1 13.7 15.3 1.7 2.1 3.3 4.3 4.6 6.6 2.7 4.7 5.1 9.4 6.9 14.5 3.1 8.5 3.7 17 1.2 25.5-2.3 7.7-7 14-13.7 18.7-12.5 8.8-26.5 10.3-41.1 9.1-9.4-.8-18.4-3.8-27.6-5.8-11.8-2.6-23.7-4.9-35.7-6.6-20.7-3-41.6-4.1-62.5-3.4-14.5.5-29 2-43.3 4.6-15.4 2.7-30.5 6.7-45.2 11.9-7.6 2.7-15.2 5.6-22.5 9.1-.8.4-1.6.7-2.5 1-.1-2.2 1.4-3.6 1.9-5.5 1.9-6.9 4.7-13.6 7-20.4 2.5-7.2 5.1-14.3 7.7-21.4 2.7-7.5 5.3-15 8.1-22.5 2.6-7.2 5.3-14.4 7.7-21.6.6-1.8 1.9-3.4 2-5.5-2.7 1-4 3.4-5.9 5.1-4.9 4.3-9.5 9-14.2 13.5-5.9 5.6-11.9 11-17.8 16.6-3.1 2.9-6.1 5.8-9.1 8.7-6.1 5.7-12.3 11.4-18.4 17.2-3.1 3-6.3 6-9.5 9l-18.6 17.4c-3.1 2.9-6.1 6-9.3 8.9-4.9 4.6-9.9 9.1-14.7 13.8-2.9 2.9-6 5.7-9 8.5-1.9 1.8-3.8 3.6-5.8 5.5.3-11.2 1.4-22 2.9-32.7.3-.4.4-1 .7-1.4.8-5.1 1.5-10.3 3.1-15.2 1.4-4.3 2.2-8.7 3.9-12.9 2.5-6.3 4.9-12.5 7.8-18.6 2.3-4.9 5-9.6 7.8-14.2 2.6-4.2 5.3-8.3 8.3-12.2 4.9-6.5 10.2-12.8 15.9-18.6 6.3-6.4 12.9-12.5 19.9-18.1 8-6.4 16.4-12.2 25.2-17.5 7.2-4.2 14.5-8.1 22-11.5 6.2-2.8 12.5-5.3 18.9-7.4 1.7-.6 2.6.8 3.5 1.6 14 10.7 30 16.7 47.2 19.8 1.7.3 1.9.7 1.3 2.2-.5 1.4-.7 3-1.1 4.5-.4.3.4 1.6-.4 2.6z" fill="#fe6e21"/><path d="M218.9 279.2c.1-6.4.7-12.8 2.5-19 2-6.9 4.6-13.6 7.8-20 2.4-4.7 5-9.3 7.8-13.8 2.5-4 5.4-7.7 7.8-11.7.7-1.2 1.2-1.4 2.1 0 5.2 8.1 13.1 12.4 22.4 12.7 11.2.3 22.1 1.9 32.7 5.4 7 2.3 13.4 5.7 19.2 10.5 6 4.9 10.7 10.7 14.2 17.6 5.5 11 6.4 22.5 3 34.2-2 6.9-5.5 13.2-10.3 18.6-2.5 2.8-5.2 5.2-8.1 7.6-.7.6-1 .5-1.6-.2-2.1-2.4-4.5-4.5-6.5-7-10.1-12.5-28-15.3-41.2-8.6-9 4.5-15 11.3-16 21.7-.1 1.2-.5 1.3-1.6.9-5-2.3-9.8-5-14.3-8.3-5.5-4-9.6-9.1-13.4-14.6-.2-.3-.3-.6-.5-1-4.1-7.9-6.1-16.2-6-25z" fill="#fe6f21"/><path class="st14" d="M349 405.5c-1.8-.1-3.8-.8-5.2-2.9-1.4-2-3.5-3.3-4.8-5.4-.6-.9-1.3-.7-2-.1-6.1 4.5-12.2 9.1-18.4 13.6-2.4 1.7-4.7 4.1-8.3 2.7-.8-.3-1.4-.6-2-1.2-3.6-3.9-7.2-7.8-10.7-11.7-1.1-1.2-.8-3.9.5-5.1 2.2-2.1 4.9-3.7 7.3-5.5 3.5-2.7 7.2-5.2 10.7-7.8 1.4-1 2.8-2.1 4.2-3.1.8-.5.8-1 .2-1.7-2.3-2.9-4.9-5.5-7.4-8.2-.9-.9-1.3-.7-2.1-.1-3.2 2.4-6.4 4.7-9.7 6.9-2.7 1.8-4.2 1.7-7-.3-1.3-.9-2.2-2.1-3-3.4-1.2-2.3-.5-4.6 1.9-6.2 3.1-2.2 6.1-4.4 9.2-6.5 1.1-.8.9-1.4.1-2.2-3.9-4.2-7.7-8.4-11.6-12.6-3.2-3.5-6.5-7-9.8-10.4-1.8-1.9-2.3-5-1-7.3 1.3-2.2 4.9-3.6 7.5-2.7 1.6.5 3 1.4 4.2 2.7 6.2 6.8 12.4 13.5 18.6 20.3 3.5 3.8 6.8 7.7 10.3 11.5 4.5 5 9.2 9.8 13.7 14.8 3.1 3.3 6 6.7 9.1 10 3.5 3.8 7 7.7 10.6 11.4 1.9 2 2.6 4.7 1.7 7-1.1 2.3-3.1 3.5-6.8 3.5zM174.5 199c9.3.6 19.1 1 29 1.8 4.5.3 7.5 3.4 8.2 7.5.4 2.3-.2 4.4-1.5 6.2-2.3 3-4 6.4-5.8 9.6-3.4 6.3-6.7 12.7-9 19.5-.3 1-1 1.1-1.8 1.1-7.4-.4-14.9-.8-22.3-1.2-3.3-.2-6.4-.6-9-3.2-2-2-2.6-4.2-2.4-6.7.5-8.1 1.1-16.1 1.5-24.2.3-6.7 4.9-10.8 11.1-10.4h2z"/><path d="M265.4 369.6c.1-1.1-.7-2.4.8-3.2-.1 1.1.5 2.4-.8 3.2z" fill="#c95d23"/><path d="M49.7 496.2c0-.8-.5-1.9.8-2.3-.1.8.3 1.8-.8 2.3z" fill="#307fc5"/><path d="M370.1 292.8c.1.7.3 1.6-.8 1.8 0-.7-.2-1.5.8-1.8z" fill="#2e70aa"/><path d="M369.4 269.5c.9.2.8.8.7 1.4-.8-.1-.9-.7-.7-1.4z" fill="#2b5171"/><path d="M53.6 472.5c-.1-.7 0-1.2.8-1.4.1.7 0 1.2-.8 1.4z" fill="#2e628f"/><path d="M82.4 484.7c.1.7.1 1.3-.7 1.4-.1-.7-.1-1.2.7-1.4z" fill="#814625"/><path d="M195.3 217.2c-.3 4.4-.6 8.2-.8 11.9-.1 1-.4 1.4-1.5 1.3-4.9-.3-9.8-.6-14.6-.8-1.7-.1-2.1-.6-2-2.2.4-4.2.6-8.4.8-12.6.1-1.1.5-1.3 1.5-1.3 5.2.3 10.3.6 15.5.9.9 0 1.2.4 1.1 1.2-.1.8 0 1.5 0 1.6z" fill="#282828"/></svg>