<svg version="1.1" id="Layer_1" xmlns="http://www.w3.org/2000/svg" xmlns:xlink="http://www.w3.org/1999/xlink" x="0px" y="0px" width="100%" viewBox="1.0423879623413086 1.104843020439148 511.7903137207031 511.8951721191406" enable-background="new 0 0 512 512" xml:space="preserve">
<path fill="#187ABA" opacity="1.000000" stroke="none" d="
M349.000000,513.000000 
	C232.694931,513.000000 116.889854,513.000000 1.042388,513.000000 
	C1.042388,342.403229 1.042388,171.806458 1.042388,1.104843 
	C171.555084,1.104843 342.110229,1.104843 512.832703,1.104843 
	C512.832703,171.666534 512.832703,342.333252 512.832703,513.000000 
	C458.473053,513.000000 403.986542,513.000000 349.000000,513.000000 
M350.262726,434.779022 
	C369.288422,424.399353 384.929810,410.367279 394.766296,390.895508 
	C414.659241,351.516510 414.301605,302.899872 371.341125,267.986694 
	C354.255951,254.101883 335.359528,243.331329 315.109924,235.049545 
	C293.729065,226.305130 271.925873,218.598099 250.477356,210.012711 
	C235.930679,204.190002 221.880096,197.233246 209.836716,186.949310 
	C202.842453,180.976883 197.195984,174.009171 196.946274,164.197479 
	C196.577103,149.692703 205.239288,141.171646 217.082718,135.293900 
	C231.703796,128.037613 247.511261,126.713860 263.423065,128.287979 
	C286.854340,130.605942 304.016266,142.100281 312.931122,164.550858 
	C313.163391,165.135864 313.560516,165.655396 314.117554,166.612076 
	C337.090363,161.383377 360.018250,156.164902 382.991669,150.936081 
	C371.628601,113.709908 347.800415,85.880791 315.028595,72.222992 
	C288.163269,61.026772 260.018524,58.118038 231.240372,61.484386 
	C204.128235,64.655846 179.168396,73.505623 157.390472,90.462891 
	C111.151611,126.466553 100.065987,198.401535 155.127213,242.778625 
	C168.699722,253.717499 183.321152,263.039917 199.271637,269.839966 
	C223.270386,280.071106 247.829208,288.986938 271.844574,299.181335 
	C284.802917,304.682068 297.393188,311.208923 309.640808,318.168121 
	C317.522614,322.646667 322.637085,329.968018 324.101410,339.345184 
	C326.661774,355.740784 320.210968,369.462280 303.868835,377.323364 
	C271.691223,392.801849 239.988159,390.657104 209.701431,371.736267 
	C193.924286,361.879913 182.382080,348.076782 174.600128,330.766754 
	C152.094254,335.676392 129.776291,340.545044 107.273788,345.453979 
	C107.558868,346.653625 107.676186,347.292267 107.862366,347.910156 
	C121.732826,393.942657 150.371994,426.409607 195.944733,442.932251 
	C225.786926,453.751740 256.746338,455.625000 288.077576,452.608704 
	C309.607330,450.536041 330.354004,445.376617 350.262726,434.779022 
z"></path>
<path fill="#FEFFFF" opacity="1.000000" stroke="none" d="
M349.924683,434.928406 
	C330.354004,445.376617 309.607330,450.536041 288.077576,452.608704 
	C256.746338,455.625000 225.786926,453.751740 195.944733,442.932251 
	C150.371994,426.409607 121.732826,393.942657 107.862366,347.910156 
	C107.676186,347.292267 107.558868,346.653625 107.273788,345.453979 
	C129.776291,340.545044 152.094254,335.676392 174.600128,330.766754 
	C182.382080,348.076782 193.924286,361.879913 209.701431,371.736267 
	C239.988159,390.657104 271.691223,392.801849 303.868835,377.323364 
	C320.210968,369.462280 326.661774,355.740784 324.101410,339.345184 
	C322.637085,329.968018 317.522614,322.646667 309.640808,318.168121 
	C297.393188,311.208923 284.802917,304.682068 271.844574,299.181335 
	C247.829208,288.986938 223.270386,280.071106 199.271637,269.839966 
	C183.321152,263.039917 168.699722,253.717499 155.127213,242.778625 
	C100.065987,198.401535 111.151611,126.466553 157.390472,90.462891 
	C179.168396,73.505623 204.128235,64.655846 231.240372,61.484386 
	C260.018524,58.118038 288.163269,61.026772 315.028595,72.222992 
	C347.800415,85.880791 371.628601,113.709908 382.991669,150.936081 
	C360.018250,156.164902 337.090363,161.383377 314.117554,166.612076 
	C313.560516,165.655396 313.163391,165.135864 312.931122,164.550858 
	C304.016266,142.100281 286.854340,130.605942 263.423065,128.287979 
	C247.511261,126.713860 231.703796,128.037613 217.082718,135.293900 
	C205.239288,141.171646 196.577103,149.692703 196.946274,164.197479 
	C197.195984,174.009171 202.842453,180.976883 209.836716,186.949310 
	C221.880096,197.233246 235.930679,204.190002 250.477356,210.012711 
	C271.925873,218.598099 293.729065,226.305130 315.109924,235.049545 
	C335.359528,243.331329 354.255951,254.101883 371.341125,267.986694 
	C414.301605,302.899872 414.659241,351.516510 394.766296,390.895508 
	C384.929810,410.367279 369.288422,424.399353 349.924683,434.928406 
z"></path>
</svg>