<svg xmlns="http://www.w3.org/2000/svg" viewBox="0 0 512 136" preserveAspectRatio="xMidYMid"><path d="M60.936.04h43.33v135.374h-43.33V.04zM.06.04h43.27v135.374H.06V.04zm203.061 0h43.331v135.374h-43.331V.04zm116.456 0h43.331v135.374h-43.331V.04zm117.788 0h43.331v135.374h-43.331V.04z" fill="#3CF"/><path d="M104.132.04h55.658v43.295h-55.658V.04zm0 55.482h38.05v43.331h-38.05V55.522zM171.975.04h31.822v43.295h-31.822V.04zm73.936 0h31.822v43.295h-31.822V.04zm42.52 0h31.822v43.295h-31.822V.04zm73.937 0h31.822v43.295h-31.822V.04zm43.873 0h31.822v43.295h-31.822V.04zm73.937 0H512v43.295h-31.822V.04z" fill="#F40"/><path d="M203.121.04h43.331v43.295h-43.331V.04zm116.456 0h43.331v43.295h-43.331V.04zm117.81 0h43.331v43.295h-43.331V.04zM60.936.04h43.33v43.295h-43.33V.04zm0 55.482h43.33v43.334h-43.33V55.522z"/></svg>