<svg id="Layer_1" xmlns="http://www.w3.org/2000/svg" viewBox="0 0 472 295" width="2500" height="1563"><style>.st0{fill:#3c3738}.st1{fill:url(#path1_fill_1_)}</style><g id="TenX_2"><g id="TenX"><g transform="translate(131 -326)" id="Vector"><path id="path0_fill" class="st0" d="M336.9 462.4L211.4 326 104 441.6-1.3 326l-125.5 136.4c-5.6 6-5.6 15.3 0 21.5L-1.3 621l105.5-113.2L211.4 621l125.5-137.2c5.5-6.2 5.5-15.4 0-21.4zm-403.7 18.4c-4.5-4.9-4.3-12.4.2-17.2L-1 394.8l75.9 79.5L-1 553.8l-65.8-73zm343.5 0l-66 72.8-75.9-79.5 75.9-79.5 65.6 68.8c4.8 4.9 4.9 12.5.4 17.4z"/></g><g transform="translate(139.828 -323.629)" id="Vector_1_"><linearGradient id="path1_fill_1_" gradientUnits="userSpaceOnUse" x1="-1114.073" y1="318.419" x2="-1099.328" y2="318.419" gradientTransform="matrix(-13.7726 -11.4443 11.5566 -13.6388 -18820.129 -7844.368)"><stop offset="0" stop-color="#3c3738"/><stop offset=".5" stop-color="#040404"/><stop offset="1" stop-color="#3c3738"/></linearGradient><path id="path1_fill" class="st1" d="M-3.8 398.7l181.5 193.9 30-35.1L27.5 365l-31.3 33.7z"/></g><g transform="translate(139.828 -323.629)" id="Vector_2_"><path id="path2_fill" class="st0" d="M-6.8 547.5l31 32.4 180.6-191.2-31.3-33.7L-6.8 547.5z"/></g></g></g></svg>
