<svg xmlns="http://www.w3.org/2000/svg" viewBox="0 0 32.1 26.79">
  <path fill="#3569f3" fill-rule="evenodd" d="M32.096.797a.844.844 0 0 0-.015-.154c0-.015-.008-.03-.012-.045-.005-.015-.02-.069-.033-.103l-.023-.049a.673.673 0 0 0-.049-.084.502.502 0 0 0-.034-.051L31.91.28c-.012-.013-.026-.024-.038-.036L31.84.208 31.815.19a.772.772 0 0 0-.07-.054l-.06-.038a.777.777 0 0 0-.082-.037l-.065-.026c-.029-.01-.06-.014-.089-.02l-.066-.014a.858.858 0 0 0-.11 0h-.06c-.413.037-5.857.556-11.977 3.285-3.674 1.635-6.519 4.144-8.309 7.19l-.46.2C3.914 13.601 0 19.286 0 25.883v.111a.798.798 0 0 0 .798.797h21.749a.701.701 0 0 0 .126-.011l.055-.014c.026-.008.052-.012.079-.021.026-.01.038-.019.058-.028.02-.01.046-.019.068-.03a.876.876 0 0 0 .115-.082l8.764-7.39a.793.793 0 0 0 .283-.615V.797h.002Zm-7.924 22.772-.841.71V8.556l7.171-6.044v15.721l-6.33 5.335ZM9.854 19.401h11.882v5.795H2.978l6.876-5.795Zm10.03-14.656c2.8-1.233 5.73-2.15 8.735-2.732l-6.41 5.404a40.664 40.664 0 0 0-8.678 2.044c1.586-1.938 3.726-3.544 6.353-4.716Zm-7.877 7.008a41.152 41.152 0 0 1 9.73-2.667v8.72h-11.36a14.092 14.092 0 0 1 1.63-6.053Zm-2.188 1.018a15.79 15.79 0 0 0-1.055 5.46L1.691 24.2c.535-4.85 3.415-8.906 8.128-11.429Z" clip-rule="evenodd"/>
</svg>