<?xml version="1.0" encoding="utf-8"?>
<!-- Generator: Adobe Illustrator 25.4.1, SVG Export Plug-In . SVG Version: 6.00 Build 0)  -->
<svg version="1.0" id="Layer_1" xmlns="http://www.w3.org/2000/svg" xmlns:xlink="http://www.w3.org/1999/xlink" x="0px" y="0px"
	 viewBox="0 0 866 575.8" style="enable-background:new 0 0 866 575.8;" xml:space="preserve">
<style type="text/css">
	.st0{fill:#212121;}
	.st1{fill:#0188FF;}
	.st2{fill:none;}
</style>
<path id="prefix_a" class="st0" d="M282.7,203.2h-12.9v0.1l-7.5,0.1L120.8,372.7l40.9-0.3l108.2-129.5v129.6h33v-169l0.3-0.4
	L282.7,203.2z"/>
<path id="prefix_a-2" class="st0" d="M282.7,203.2h-12.9v0.1l-7.5,0.1L120.8,372.7l40.9-0.3l108.2-129.5v129.6h33v-169l0.3-0.4
	L282.7,203.2z"/>
<path id="prefix_b" class="st0" d="M529.7,203.1l-20.4,0.2h-12.9v0.1l-7.6,0.1L347.4,372.7l40.9-0.3l108.2-129.5v129.6h33v-169
	L529.7,203.1z"/>
<path id="prefix_b-2" class="st0" d="M529.7,203.1l-20.4,0.2h-12.9v0.1l-7.6,0.1L347.4,372.7l40.9-0.3l108.2-129.5v129.6h33v-169
	L529.7,203.1z"/>
<path id="prefix_c" class="st0" d="M612.3,203.4l-38.4-0.3l132.9,169.3l38.4,0.3L612.3,203.4z"/>
<path id="prefix_c-2" class="st0" d="M612.3,203.4l-38.4-0.3l132.9,169.3l38.4,0.3L612.3,203.4z"/>
<path class="st1" d="M706.8,203.4l38.4-0.3L612.3,372.4l-38.4,0.3L706.8,203.4z"/>
<rect x="90" y="172.9" class="st2" width="686" height="230"/>
</svg>
