<svg version="1.1" id="Layer_1" xmlns="http://www.w3.org/2000/svg" xmlns:xlink="http://www.w3.org/1999/xlink" x="0px" y="0px"
	 width="2274.3px" height="240.2px" viewBox="0 0 2274.3 240.2" enable-background="new 0 0 2274.3 240.2" xml:space="preserve">
<g>
	<g>
		<path fill="#F26C31" d="M89.7,59.3h67.8L147,99.5c-1.6,5.6-4.6,10.1-9,13.5c-4.4,3.4-9.5,5.1-15.3,5.1H91.2
			c-7.2,0-13.6,2.1-19,6.3c-5.5,4.2-9.4,9.9-11.6,17.1c-1.4,5.4-1.6,10.5-0.4,15.3c1.1,4.8,3,9.1,5.8,12.8c2.8,3.7,6.4,6.7,10.8,8.8
			c4.4,2.2,9.2,3.3,14.4,3.3h19.2c3.6,0,6.5,1.5,8.8,4.4c2.3,2.9,2.9,6.1,1.9,9.8l-12,44.4h-21c-14.4,0-27.7-3.1-39.8-9.4
			c-12.1-6.3-22.2-14.6-30.2-25.1c-8-10.4-13.5-22.2-16.3-35.5c-2.9-13.3-2.5-26.9,1.1-41l1.2-4.5c2.6-9.6,6.6-18.4,12.2-26.5
			c5.5-8.1,12-15,19.5-20.7c7.5-5.7,15.8-10.1,25.1-13.3C70.1,60.9,79.7,59.3,89.7,59.3z"/>
		<path fill="#F26C31" d="M123.9,240.2L183,18.8c1.6-5.6,4.6-10.1,9-13.5c4.4-3.4,9.5-5.1,15.3-5.1H270c14.4,0,27.6,3.2,39.8,9.5
			c12.1,6.3,22.1,14.7,30.1,25c8,10.4,13.5,22.3,16.5,35.6c3,13.3,2.6,27-1.2,40.9l-1.2,4.5c-2.6,9.6-6.6,18.5-12,26.6
			c-5.4,8.1-11.9,15.1-19.4,20.9s-15.9,10.3-25,13.5c-9.2,3.2-18.8,4.8-28.8,4.8h-54.3l10.8-40.5c1.6-5.4,4.6-9.8,9-13.2
			c4.4-3.4,9.5-5.1,15.3-5.1H267c7.2,0,13.6-2.2,19.3-6.6c5.7-4.4,9.4-10.1,11.2-17.1c1.4-5,1.5-9.9,0.4-14.7
			c-1.1-4.8-3.1-9-5.8-12.8c-2.8-3.7-6.4-6.7-10.8-9C277,60.2,272.2,59,267,59h-33.6l-43.8,162.9c-1.6,5.4-4.6,9.8-9,13.2
			c-4.4,3.4-9.4,5.1-15,5.1H123.9z"/>
		<path fill="#F26C31" d="M498,122l0.9-3.3c0.4-1.6,0.1-2.9-0.8-4c-0.9-1.1-2.2-1.7-3.8-1.7h-97.5c-4.2,0-8-0.9-11.4-2.7
			c-3.4-1.8-6.2-4.1-8.4-7.1c-2.2-2.9-3.7-6.2-4.5-10.1c-0.8-3.8-0.7-7.7,0.3-11.7l6-22.8h132c8.2,0,15.7,1.8,22.5,5.4
			c6.8,3.6,12.4,8.3,16.9,14.1c4.5,5.8,7.6,12.5,9.3,20c1.7,7.5,1.5,15.3-0.5,23.2l-23.7,88.2c-2.4,9-7.3,16.3-14.6,21.9
			c-7.3,5.6-15.7,8.4-25,8.4l-97.5-0.3c-8.6,0-16.5-1.8-23.7-5.6c-7.2-3.7-13.1-8.6-17.7-14.7c-4.6-6.1-7.8-13.1-9.6-21
			c-1.8-7.9-1.6-15.9,0.6-24.2l1.2-4.5c1.4-5.6,3.8-10.8,7.1-15.6c3.3-4.8,7.1-8.9,11.5-12.3c4.4-3.4,9.3-6,14.7-7.9
			c5.4-1.9,11.1-2.9,17.1-2.9h81.9l-6,22.5c-1.6,5.4-4.6,9.8-9,13.2c-4.4,3.4-9.4,5.1-15,5.1h-36.6c-3.4,0-5.6,1.7-6.6,5.1
			c-0.6,2.2-0.2,4.2,1.2,5.8c1.4,1.7,3.2,2.6,5.4,2.6H474c2.2,0,4.1-0.6,5.7-1.8c1.6-1.2,2.6-2.8,3-4.8l0.6-2.4L498,122z"/>
		<path fill="#F26C31" d="M672.6,59.3c14.6,0,27.9,3.1,40,9.4c12.1,6.3,22.1,14.7,30.2,25.1c8,10.4,13.4,22.3,16.3,35.7
			c2.9,13.4,2.4,27.1-1.3,41.1l-15,56.4c-1,4-3.2,7.2-6.4,9.6c-3.3,2.4-7,3.6-11,3.6H693c-3.8,0-6.8-1.4-9-4.3
			c-2.2-2.9-2.8-6.2-1.8-9.8l18-68.1c1.4-5,1.5-9.9,0.4-14.7c-1.1-4.8-3.1-9-5.8-12.8c-2.8-3.7-6.4-6.7-10.8-9
			c-4.4-2.3-9.2-3.4-14.4-3.4H636L606.9,227c-1,4-3.2,7.2-6.4,9.6c-3.3,2.4-7.1,3.6-11.2,3.6h-32.1c-3.6,0-6.6-1.4-8.9-4.3
			c-2.3-2.9-2.9-6.2-1.9-9.8l44.4-166.8H672.6z"/>
		<path fill="#F26C31" d="M849.3,116.4c-2.4,1.9-4.1,4.4-5.1,7.4l-13.5,51c-0.8,2.8-0.3,5.4,1.5,7.8c1.8,2.4,4.2,3.6,7.2,3.6h124.2
			l-9.6,35.7c-1.6,5.4-4.6,9.8-9,13.2c-4.4,3.4-9.4,5.1-15,5.1H816.9c-8.2,0-15.7-1.7-22.5-5.2c-6.8-3.5-12.4-8.2-16.9-14.1
			c-4.5-5.9-7.6-12.6-9.3-20.1c-1.7-7.5-1.4-15.1,0.8-22.9l18.3-68.1c2-7.4,5.1-14.2,9.3-20.4c4.2-6.2,9.1-11.5,14.8-15.9
			c5.7-4.4,12.1-7.8,19.2-10.3c7.1-2.5,14.4-3.8,22.1-3.8h80.1c8.2,0,15.7,1.8,22.5,5.4c6.8,3.6,12.4,8.3,16.9,14.1
			c4.5,5.8,7.5,12.5,9.2,20.1c1.6,7.6,1.4,15.3-0.6,23.1l-5.4,20.4c-2.4,9-7.3,16.3-14.5,21.8c-7.3,5.5-15.6,8.2-24.8,8.2h-90.6
			l6-22.2c1.4-5.4,4.3-9.8,8.7-13.2c4.4-3.4,9.5-5.1,15.3-5.1H912c3.4,0,5.6-1.7,6.6-5.1l1.2-4.5c0.6-2.2,0.2-4.2-1.2-6
			c-1.4-1.8-3.2-2.7-5.4-2.7h-55.8C854.4,113.6,851.7,114.6,849.3,116.4z"/>
		<path fill="#F26C31" d="M963.3,240.2l60.3-226.5c1-4,3.2-7.2,6.4-9.8c3.3-2.5,7.1-3.8,11.2-3.8h32.1c3.8,0,6.8,1.5,9.1,4.4
			c2.3,2.9,2.9,6.1,2,9.8l-45,167.1c-2.2,8.8-5.8,16.8-10.7,24c-4.9,7.2-10.7,13.3-17.4,18.5c-6.7,5.1-14.2,9.1-22.3,12
			C980.9,238.8,972.3,240.2,963.3,240.2z"/>
		<path fill="#F26C31" d="M1331.7,151.2c0.8,2.1,0.4,4-1.2,5.7l-37.1,36.2l15.8,35.3c1.4,2.9,1.2,5.6-0.5,8.1
			c-1.7,2.6-4.1,3.8-7.2,3.8h-31.2c-2.6,0-5-0.7-7.2-2.1c-2.3-1.4-3.9-3.3-5-5.8l-1.6-3.6c-3.5,3.6-7.5,6.4-12.2,8.5
			c-4.7,2-9.6,3.1-14.9,3.1h-70.7c-6.2,0-11.8-1.4-17-4.1c-5.1-2.7-9.4-6.2-12.8-10.6c-3.4-4.4-5.7-9.4-7-15.1
			c-1.3-5.7-1.1-11.5,0.6-17.4l9.9-37.5c1.7-5.7,4.3-10.7,8-14.9c3.7-4.2,8.1-7.5,13.2-9.7c-1.2-5.1-1-10.5,0.7-16.3l7.2-27.3
			c1.1-4.1,2.7-7.8,5.1-11.2c2.3-3.4,5.1-6.3,8.2-8.8s6.7-4.4,10.6-5.8c3.9-1.4,8-2,12.2-2h49.5c6.2,0,11.8,1.4,17,4.1
			c5.1,2.7,9.4,6.3,12.8,10.6c3.4,4.4,5.7,9.4,6.9,15.1c1.2,5.7,1.1,11.5-0.5,17.4l-7.2,27.3c-0.6,2.1-1.3,4.1-2.1,5.9
			c-0.8,1.8-1.8,3.5-2.8,5.2c0.6,0.9,1.2,1.8,1.7,2.8c0.5,1,0.9,2,1.2,3.1l0.2,0.7c0.5,1.1,0.8,2,1.1,2.9l0.2-0.2l3.4-2.7
			c2.7-2.4,5.7-3.6,9-3.6h38.6C1329.2,148,1330.9,149,1331.7,151.2z M1231.5,194.1l6.3-6.1l-5.4-12c-1.2-2.7-3.2-4.1-6.1-4.1h-49.5
			c-1.7,0-2.8,0.8-3.4,2.5l-4.5,17.2c-0.3,1.1-0.2,2,0.5,2.9c0.6,0.9,1.5,1.4,2.7,1.4h54.7C1228.4,195.9,1230,195.3,1231.5,194.1z
			 M1198.2,126.3c0.6,0.9,1.5,1.4,2.7,1.4h28.5c1.5,0,2.6-0.8,3.2-2.5l4.5-17.2c0.3-1.1,0.1-2-0.5-2.9c-0.6-0.9-1.5-1.4-2.7-1.4
			h-28.5c-1.5,0-2.6,0.8-3.2,2.5l-4.5,17.2C1197.5,124.4,1197.6,125.4,1198.2,126.3z"/>
		<path fill="#F26C31" d="M1731.9,14.6l-43.2,160.2c-2.6,9.6-6.6,18.4-12,26.6c-5.4,8.1-11.8,15-19.3,20.7s-15.9,10.2-25,13.3
			c-9.2,3.2-18.8,4.8-28.8,4.8h-236.7l60.3-226.5c1-4,3.2-7.2,6.5-9.8c3.3-2.5,7-3.8,11.2-3.8h32.1c3.8,0,6.8,1.5,9.2,4.5
			c2.3,3,2.9,6.3,1.9,9.9l-44.7,166.8h60.9l45-167.7c1-4,3.2-7.2,6.5-9.8c3.3-2.5,6.9-3.8,10.9-3.8h32.4c3.8,0,6.8,1.5,9,4.5
			c2.2,3,2.8,6.3,1.8,9.9l-44.7,166.8h36.6c7.2,0,13.7-2.1,19.4-6.5c5.7-4.3,9.4-9.9,11.2-16.9L1671,13.7c1-4,3.2-7.2,6.4-9.8
			c3.3-2.5,7.1-3.8,11.2-3.8h32.1c3.8,0,6.8,1.5,9.1,4.5C1732.2,7.7,1732.9,11,1731.9,14.6z"/>
		<path fill="#F26C31" d="M1773.6,149.6l-20.7,77.1c-1,4-3.1,7.3-6.4,9.8c-3.3,2.5-7.1,3.8-11.2,3.8h-32.1c-3.6,0-6.6-1.5-8.8-4.5
			s-2.9-6.2-2-9.6L1749,13.7c1-4,3.1-7.2,6.4-9.8c3.3-2.5,7.1-3.8,11.2-3.8h46.5l-23.7,90.6h75l20.7-77.1c1-4,3.2-7.2,6.4-9.8
			c3.3-2.5,6.9-3.8,11-3.8h47.1l-60.9,226.5c-1,4-3.2,7.3-6.4,9.8c-3.3,2.5-7,3.8-11,3.8H1839c-3.8,0-6.8-1.5-9-4.5
			c-2.2-3-2.8-6.2-1.8-9.6l20.4-76.5H1773.6z"/>
		<path fill="#F26C31" d="M1906.5,225.8l60.6-225.6h189.6c14.6,0,27.9,3.2,40.1,9.5c12.1,6.3,22.1,14.7,30.1,25
			c8,10.4,13.5,22.3,16.5,35.7c3,13.4,2.6,27.1-1.2,41.1l-30.9,115.2c-1,4-3.2,7.3-6.4,9.8c-3.3,2.5-7.1,3.8-11.2,3.8h-32.1
			c-3.8,0-6.9-1.5-9.2-4.5c-2.3-3-3-6.3-2-9.9l32.7-121.2c1.4-5.6,1.5-11.1,0.3-16.7c-1.2-5.5-3.4-10.4-6.8-14.7
			c-3.3-4.3-7.4-7.7-12.3-10.3c-4.9-2.6-10.3-3.9-16.3-3.9h-13.8l-45,167.7c-1,4-3.2,7.3-6.4,9.8c-3.3,2.5-7,3.8-11,3.8h-32.4
			c-3.8,0-6.8-1.5-9-4.5c-2.2-3-2.8-6.3-1.8-9.9L2073.3,59h-60.9l-45,167.7c-1,4-3.1,7.3-6.4,9.8c-3.3,2.5-7.1,3.8-11.2,3.8h-32.1
			c-3.8,0-6.9-1.5-9.2-4.5C1906.1,232.7,1905.5,229.4,1906.5,225.8z"/>
	</g>
	<g>
		<path fill="#F26C31" d="M2233.2,20.6c0-3.6,0.9-7.1,2.7-10.3c1.8-3.2,4.3-5.7,7.5-7.5c3.2-1.8,6.6-2.8,10.3-2.8
			c3.6,0,7.1,0.9,10.3,2.7c3.2,1.8,5.7,4.3,7.5,7.5c1.8,3.2,2.8,6.6,2.8,10.3c0,3.6-0.9,7-2.7,10.1c-1.8,3.2-4.2,5.7-7.4,7.6
			c-3.2,1.9-6.7,2.8-10.5,2.8c-3.8,0-7.3-0.9-10.4-2.8s-5.7-4.4-7.5-7.6C2234,27.6,2233.2,24.2,2233.2,20.6z M2236,20.6
			c0,3.2,0.8,6.1,2.4,8.8s3.8,4.9,6.5,6.5s5.7,2.4,8.8,2.4c3.2,0,6.1-0.8,8.8-2.4s4.9-3.7,6.5-6.4s2.4-5.7,2.4-8.9
			c0-3.2-0.8-6.1-2.4-8.8c-1.6-2.7-3.7-4.9-6.4-6.5s-5.7-2.4-8.9-2.4c-3.2,0-6.1,0.8-8.8,2.4s-4.9,3.7-6.5,6.4S2236,17.4,2236,20.6z
			 M2262.1,15.6c0,1.5-0.4,2.7-1.2,3.9s-1.9,2-3.3,2.5l6.5,10.8h-4.6l-5.7-9.7h-3.7v9.7h-4V8.4h7.1c3,0,5.2,0.6,6.7,1.8
			C2261.4,11.4,2262.1,13.2,2262.1,15.6z M2250.2,19.7h3c1.5,0,2.6-0.4,3.5-1.1s1.3-1.7,1.3-2.9c0-1.4-0.4-2.3-1.2-2.9
			s-2-0.9-3.7-0.9h-2.9V19.7z"/>
	</g>
</g>
</svg>
