<?xml version="1.0" encoding="utf-8"?>
<svg version="1.1" id="Layer_1" xmlns="http://www.w3.org/2000/svg" xmlns:xlink="http://www.w3.org/1999/xlink" x="0px" y="0px"
	 viewBox="0 0 100 100" style="enable-background:new 0 0 100 100;" xml:space="preserve">
<style type="text/css">
	.st0{fill-rule:evenodd;clip-rule:evenodd;fill:#F08821;}
	.st1{fill-rule:evenodd;clip-rule:evenodd;fill:#2B388A;}
</style>
<path class="st0" d="M97.2331,36.7368h-0.3074l-36.2768-5.2263c-1.8446-0.3074-3.3817-2.152-3.3817-3.9966V13.0647
	c0-1.5372,0.9223-2.4594,2.152-2.4594c0.3074,0,0.6149,0,0.9223,0l36.2768,11.6824c1.5372,0.6149,2.7669,2.4594,2.7669,4.304V33.97
	C99.6926,35.5071,98.4628,36.7368,97.2331,36.7368 M60.3415,60.1015c-1.5372,0-2.7669-1.2297-2.7669-3.0743V42.578
	c0-1.8446,1.2297-3.3817,3.0743-3.3817h0.3074l35.9693,3.0743c1.5371,0,2.7669,1.8446,2.7669,3.6892v7.3783
	c0,1.8446-1.2297,3.3817-2.7669,3.6892L60.3415,60.1015L60.3415,60.1015 M59.7266,89c-1.2297,0-2.152-0.9223-2.152-2.4594V72.0913
	c0-2.152,1.5372-3.9966,3.3817-3.9966l36.2768-5.2263h0.3074c1.2297,0,2.4594,1.2297,2.4594,2.7669v7.3783
	c0,1.8446-1.2297,3.6892-2.7669,4.304L60.9563,89C60.3415,89,60.0341,89,59.7266,89"/>
<path class="st1" d="M3.1594,41.6557c-1.5372,0-2.4594-1.2297-2.4594-2.7669v-1.2297c0-2.152,1.5372-4.304,3.0743-5.2263
	L49.274,10.6053c0.3074-0.3074,0.6149-0.3074,0.9223-0.3074c0.9223,0,1.8446,0.9223,1.8446,2.4594v14.4492
	c0,2.152-1.5372,3.9966-3.0743,4.304L3.7743,41.6557C3.4669,41.6557,3.4669,41.6557,3.1594,41.6557 M49.274,60.1015h-0.3074
	L3.7743,54.2604C1.9297,53.9529,0.7,52.1084,0.7,50.2638v-1.2297c0-1.8446,1.5372-3.6892,3.0743-3.9966l45.1923-5.8412h0.3074
	c1.5372,0,2.7669,1.2297,2.7669,3.0743v14.7566c0,0.9223-0.3074,1.5372-0.9223,2.152
	C50.8111,59.7941,50.1963,60.1015,49.274,60.1015 M50.5037,89c-0.3074,0-0.6149,0-0.9223-0.3074L3.7743,66.865
	C2.2372,65.9427,0.7,63.7907,0.7,61.6387V60.409c0-1.5372,0.9223-2.7669,2.4594-2.7669c0.3074,0,0.3074,0,0.6149,0l45.1923,10.1452
	c1.8446,0.3074,3.0743,2.4594,3.0743,4.304v14.4492c0,0.6149-0.3074,1.2297-0.6149,1.8446C51.426,88.6926,50.8111,89,50.5037,89"/>
</svg>
