<svg xmlns="http://www.w3.org/2000/svg" viewBox="6.37 1.50 11.27 21.00">
  <path d="M 6.7803026,1.7802239 C 6.5143298,1.9552598 6.379301,2.1841299 6.379301,2.4611189 V 21.511778 c 0,0.241646 0.1383226,0.461077 0.4152724,0.664827 0.2750191,0.204058 0.6140191,0.305754 1.0185774,0.305754 0.3866846,0 0.7257286,-0.101695 1.0202,-0.305754 0.2928904,-0.201782 0.4418834,-0.423181 0.4418834,-0.664827 V 2.4627549 c 0,-0.278666 -0.141835,-0.5039411 -0.427569,-0.682486 -0.2857768,-0.17332 -0.6299561,-0.262628 -1.0345144,-0.262628 -0.422432,0 -0.7666553,0.08931 -1.0328042,0.262583 z m 8.3311064,7.566865 -3.87723,2.4303441 c -0.173714,0.162522 -0.248408,0.409468 -0.216264,0.746941 0.02986,0.33416 0.184428,0.652343 0.457823,0.952574 0.274711,0.30211 0.58183,0.491494 0.933168,0.571947 0.346112,0.07847 0.608836,0.03564 0.78255,-0.125236 l 1.533221,-0.956214 v 8.544333 c 0,0.241606 0.133142,0.461077 0.402671,0.664787 0.262592,0.204042 0.599965,0.305753 1.004569,0.305753 0.404557,0 0.753963,-0.101717 1.046855,-0.305753 0.29447,-0.20375 0.441927,-0.423181 0.441927,-0.664828 V 10.024345 c 0,-0.278973 -0.143898,-0.503936 -0.4277,-0.6772561 -0.284065,-0.176956 -0.637027,-0.262945 -1.061082,-0.262945 -0.42243,0 -0.76143,0.08603 -1.020508,0.262945 z" id="path2-3" style="stroke-width:0.0439118"></path>
</svg>
