<svg clip-rule="evenodd" fill-rule="evenodd" stroke-linejoin="round" stroke-miterlimit="2" version="1.1" viewBox="-.00095117 122.64 500 254.72" xml:space="preserve" xmlns="http://www.w3.org/2000/svg">
    <g transform="matrix(3.5839 0 0 3.5839 -.00095117 122.64)">
        <path d="m40.84 50.373c-5.708 0-10.351 4.642-10.351 10.35 0 5.707 4.643 10.35 10.351 10.35 5.707 0 10.35-4.643 10.35-10.35 0-5.708-4.643-10.35-10.35-10.35" fill="#fcb716"/>
        <path d="m11.916 50.373c-5.708 0-10.351 4.642-10.351 10.35 0 5.707 4.643 10.35 10.351 10.35 5.706 0 10.35-4.643 10.35-10.35 0-5.708-4.644-10.35-10.35-10.35" fill="#ee363f"/>
        <path d="m69.764 50.373c-5.708 0-10.351 4.642-10.351 10.35 0 5.707 4.643 10.35 10.351 10.35 5.707 0 10.35-4.643 10.35-10.35 0-5.708-4.643-10.35-10.35-10.35" fill="#07af56"/>
        <path d="m127.61 50.373c-5.707 0-10.35 4.642-10.35 10.35 0 5.707 4.643 10.35 10.35 10.35s10.35-4.643 10.35-10.35c0-5.708-4.643-10.35-10.35-10.35" fill="#04a9df"/>
        <path d="m98.687 50.373c-5.707 0-10.351 4.643-10.351 10.35s4.643 10.349 10.351 10.349c5.707 0 10.35-4.642 10.35-10.349s-4.642-10.35-10.35-10.35" fill="#a1479a"/>
        <path d="m0 21.045c0-6.711 5.387-11.778 12.052-11.778 6.71 0 12.051 5.022 12.051 11.732v10.317c0 1.05-0.729 1.78-1.825 1.78-1.142 0-1.826-0.73-1.826-1.78v-3.013h-0.183c-1.415 2.419-4.246 4.519-8.446 4.519-6.482 0-11.823-5.021-11.823-11.777m20.543 0c0-4.839-3.652-8.491-8.491-8.491s-8.491 3.652-8.491 8.491c0 4.838 3.652 8.491 8.491 8.491s8.491-3.653 8.491-8.491m12.966 19.402c-0.958-0.457-1.416-1.279-1.05-2.237 0.366-1.005 1.279-1.415 2.237-0.959 1.644 0.776 3.697 1.324 5.888 1.324 5.434 0 8.72-3.241 8.72-8.765v-1.507h-0.183c-1.415 2.42-4.244 4.519-8.445 4.519-6.483 0-11.824-5.021-11.824-11.777 0-6.711 5.387-11.778 12.053-11.778 6.71 0 12.052 5.022 12.052 11.732v8.583c0 7.395-4.749 12.371-12.509 12.371-2.374 0-4.748-0.457-6.939-1.506m15.886-19.402c0-4.839-3.652-8.492-8.49-8.492-4.839 0-8.491 3.653-8.491 8.492s3.652 8.491 8.491 8.491c4.838 0 8.49-3.652 8.49-8.491m8.31 0c0-6.711 5.342-11.778 12.052-11.778s12.052 5.067 12.052 11.778c0 6.71-5.342 11.777-12.052 11.777s-12.052-5.067-12.052-11.777m20.543 0c0-4.839-3.652-8.491-8.491-8.491s-8.491 3.652-8.491 8.491c0 4.838 3.652 8.491 8.491 8.491s8.491-3.653 8.491-8.491m8.309 0c0-6.711 5.295-11.778 11.824-11.778 4.2 0 7.03 2.1 8.445 4.519h0.183v-12.006c0-1.049 0.73-1.78 1.826-1.78 1.142 0 1.826 0.731 1.826 1.78v19.31c0 6.711-5.342 11.732-12.052 11.732-6.664 0-12.052-5.067-12.052-11.777m20.543 0c0-4.839-3.652-8.491-8.491-8.491s-8.491 3.652-8.491 8.491c0 4.838 3.652 8.491 8.491 8.491s8.491-3.653 8.491-8.491m8.31 0c0-6.711 5.387-11.778 12.052-11.778 6.71 0 12.052 5.022 12.052 11.732v10.317c0 1.05-0.731 1.78-1.826 1.78-1.142 0-1.827-0.73-1.827-1.78v-3.013h-0.183c-1.415 2.419-4.245 4.519-8.445 4.519-6.482 0-11.823-5.021-11.823-11.777m20.542 0c0-4.839-3.651-8.491-8.49-8.491s-8.491 3.652-8.491 8.491c0 4.838 3.652 8.491 8.491 8.491s8.49-3.653 8.49-8.491" fill="#5a5b5b"/>
    </g>
</svg>
