<svg version="1.1" id="AW" xmlns="http://www.w3.org/2000/svg" xmlns:xlink="http://www.w3.org/1999/xlink" x="0px" y="0px" viewBox="281.8019714355469 325.9840087890625 198.42501831054688 198.42498779296875" enable-background="new 0 0 1190.551 841.89" xml:space="preserve">
<g>
	<g>
	</g>
	<g>
		<path fill="#E95420" d="M480.227,425.197c0,54.79-44.418,99.212-99.213,99.212c-54.797,0-99.212-44.422-99.212-99.212
			c0-54.796,44.415-99.213,99.212-99.213C435.809,325.984,480.227,370.401,480.227,425.197z"></path>
		<path fill="#FFFFFF" d="M329.518,425.195c0,7.045-5.711,12.756-12.756,12.756s-12.756-5.711-12.756-12.756
			c0-7.044,5.711-12.755,12.756-12.755S329.518,418.151,329.518,425.195z M402.094,487.218c3.522,6.1,11.322,8.19,17.422,4.668
			c6.1-3.521,8.19-11.321,4.668-17.423c-3.522-6.101-11.323-8.189-17.422-4.668C400.662,473.317,398.572,481.117,402.094,487.218z
			 M424.185,375.93c3.522-6.101,1.433-13.9-4.669-17.422c-6.098-3.521-13.9-1.432-17.422,4.668
			c-3.522,6.1-1.431,13.901,4.668,17.422C412.862,384.12,420.663,382.03,424.185,375.93z M381.014,388.819
			c19.003,0,34.602,14.573,36.235,33.154l18.453-0.288c-0.874-13.81-6.859-26.231-16.09-35.39
			c-4.889,1.887-10.557,1.63-15.449-1.195c-4.896-2.827-7.953-7.612-8.761-12.794c-4.585-1.245-9.408-1.913-14.388-1.913
			c-8.731,0-16.984,2.042-24.31,5.673l8.981,16.132C370.344,390.031,375.537,388.819,381.014,388.819z M344.636,425.197
			c0-12.308,6.113-23.187,15.468-29.771l-9.479-15.84c-10.978,7.33-19.162,18.518-22.611,31.625
			c4.084,3.291,6.701,8.331,6.701,13.984s-2.616,10.693-6.702,13.986c3.45,13.107,11.633,24.293,22.612,31.625l9.479-15.841
			C350.75,448.383,344.636,437.505,344.636,425.197z M381.014,461.575c-5.477,0-10.67-1.214-15.329-3.382l-8.981,16.132
			c7.325,3.633,15.579,5.675,24.31,5.675c4.979,0,9.802-0.669,14.388-1.914c0.808-5.182,3.865-9.967,8.76-12.794
			c4.893-2.823,10.56-3.081,15.449-1.193c9.231-9.159,15.217-21.58,16.091-35.391l-18.453-0.288
			C415.616,447,400.018,461.575,381.014,461.575z"></path>
	</g>
</g>
</svg>