<svg xmlns="http://www.w3.org/2000/svg" xmlns:xlink="http://www.w3.org/1999/xlink" x="0px" y="0px" viewBox="0 1 44 42"><g fill="none" fill-rule="evenodd" transform="translate(-5)"><g><g fill="#2281c4"><path d="m5.351 30.19v12.679h12.955c-5.903-2.296-10.608-6.901-12.955-12.679" mask="url(#T)"/><path d="m18.306.812h-12.955v12.679c2.346-5.778 7.05-10.382 12.955-12.679" mask="url(#T)"/></g><g fill="#f6a600"><path d="m48.32 13.491v-12.679h-12.954c5.903 2.297 10.608 6.901 12.954 12.679" mask="url(#T)"/><path d="m48.32 30.19c-2.346 5.778-7.05 10.383-12.955 12.679h12.955v-12.679" mask="url(#T)"/></g></g><g transform="translate(5)"><g fill="#2281c4"><path d="m10.205 3.948c-.084 2.01-2.961 4.288-5.262 3.151-2.301-1.705.575-5.113 2.635-5.397 1.706-.198 2.924.782 2.627 2.246" mask="url(#V)"/><path d="m20.368 2.914c-1.044 3.048-5.071 3.616-6.796 1.912-2.301-2.273 1.725-3.409 3.395-4.118 1.904-.129 3.447.863 3.401 2.207" mask="url(#W)"/></g><g fill="#f6a600"><path d="m30.845 3.606c-.59 3.492-6.343 2.356-6.918-.485 0-1.136 0-2.272 3.084-2.362 1.891.147 3.56 1.422 3.834 2.847" mask="url(#X)"/><path d="m39.735 5.02c.213 1.619-.823 2.718-2.433 2.391-1.61-.326-3.28-1.872-3.58-3.351-.3-1.478.907-2.474 2.608-2.286 1.7.188 3.191 1.627 3.404 3.246" mask="url(#Y)"/></g><g fill="#2281c4"><path d="m8.636 11.777c-.241 2.14-2.543 4.981-4.844 3.844-2.876-2.272 0-5.113 2.423-6.574 1.618-.343 2.753.79 2.422 2.73" mask="url(#b)"/><path d="m20.11 10.589c-.215 3.895-5.392 5.03-7.693 3.327-2.301-2.273.575-6.25 3.732-6.489 2.2-.209 4.02 1.134 3.961 3.161" mask="url(#c)"/></g><g fill="#f6a600"><path d="m32.3 11.397c.312 1.972-1.198 3.565-3.58 3.387-2.381-.178-4.541-2.14-4.633-4.166-.092-2.027 1.681-3.341 3.844-3.106 2.162.235 4.057 1.913 4.369 3.886" mask="url(#d)"/><path d="m40.948 12.974c.26 1.82-.695 3.206-2.207 2.982-1.512-.225-3.106-2.127-3.439-4.056-.332-1.928.766-3.06 2.353-2.724 1.586.336 3.03 1.978 3.293 3.798" mask="url(#e)"/></g><g fill="#2281c4"><path d="m7.751 22.04c.069 1.538-1.082 3.811-2.808 3.811-4.03-.568-3.452-6.818-.046-7.749 1.543-.155 2.855 1.585 2.854 3.938" mask="url(#g)"/><path d="m19.952 22.03c-.053 2.678-2.353 4.95-4.655 4.95-5.752-.568-5.752-9.09.011-9.671 2.489-.112 4.644 1.991 4.644 4.72" mask="url(#h)"/></g><g fill="#f6a600"><path d="m33.15 22.04c.001 2.468-1.842 4.555-4.264 4.678-2.422.123-4.533-1.961-4.533-4.68-.001-2.719 2.109-4.801 4.531-4.677 2.422.124 4.265 2.211 4.266 4.679" mask="url(#i)"/><path d="m41.628 22.04c.131 1.535-1.019 3.807-2.744 3.807-4.03-.568-3.452-6.818.059-7.69 1.497.15 2.685 1.872 2.686 3.883" mask="url(#j)"/></g><g fill="#2281c4"><path d="m8.63 32.31c.331 1.943-.805 3.077-2.422 2.734-1.618-.343-3.089-1.999-3.362-3.831-.272-1.831.696-3.227 2.253-2.998 1.556.229 3.2 2.152 3.531 4.095" mask="url(#l)"/><path d="m20.11 33.491c.361 4.288-5.391 3.72-7.116 2.02-2.301-2.273-1.151-6.25 2.451-6.153 2.444.159 4.608 2.106 4.665 4.138" mask="url(#m)"/></g><g fill="#f6a600"><path d="m32.31 32.685c-.312 1.976-2.207 3.656-4.371 3.892-2.164.235-3.938-1.083-3.846-3.113.092-2.031 2.253-3.995 4.635-4.173 2.382-.177 3.894 1.419 3.582 3.395" mask="url(#n)"/><path d="m40.953 31.11c-.344 2.692-2.645 4.964-4.946 3.26-1.726-1.136-.575-5.681 2.738-6.246 1.512-.223 2.467 1.165 2.208 2.986" mask="url(#o)"/></g><g fill="#2281c4"><path d="m10.199 40.14c.497 3.317-4.105 2.749-5.256.476-1.15-1.136-1.15-5.113 1.626-3.816 1.636.334 3.332 1.875 3.631 3.34" mask="url(#r)"/><path d="m20.367 41.18c-1.043 3.418-6.795 2.85-7.371-.56 0-1.704 1.725-2.84 3.367-2.25 2.124.199 3.957 1.464 4 2.809" mask="url(#s)"/></g><g fill="#f6a600"><path d="m30.85 40.486c-1.171 2.975-5.197 4.112-6.348 1.839-1.151-1.705 0-3.409 3.193-4.03 2.093-.225 3.43.77 3.155 2.196" mask="url(#t)"/><path d="m39.739 39.07c-.281 2.687-4.307 4.96-6.03 2.119-.575-2.272 1.726-3.977 3.603-4.51 1.61-.328 2.644.771 2.43 2.391" mask="url(#u)"/></g></g></g></svg>
