<svg xmlns="http://www.w3.org/2000/svg" viewBox="0 0 90 90"><path d="M70.502 50.872c.343 0 .66.182.831.478l18.522 32.028A1.08 1.08 0 0 1 88.918 85H52.09a1.083 1.083 0 0 1-.937-1.622L69.67 51.35a.962.962 0 0 1 .831-.478Zm-48.256-.978 35.943.042a1.08 1.08 0 0 1 .933 1.622L41.125 82.595a4.77 4.77 0 0 1-4.13 2.38H1.083a1.083 1.083 0 0 1-.937-1.621l17.97-31.075a4.774 4.774 0 0 1 4.13-2.385ZM37.026 6a4.781 4.781 0 0 1 4.134 2.398l17.976 31.065a1.08 1.08 0 0 1-.933 1.622l-35.946.042a4.774 4.774 0 0 1-4.141-2.385L.143 7.663a1.083 1.083 0 0 1 .937-1.621L37.026 6Zm51.892.059a1.083 1.083 0 0 1 .937 1.622L71.333 39.709a.962.962 0 0 1-1.662 0L51.153 7.681a1.08 1.08 0 0 1 .937-1.622h36.828Z" fill="#1ED699"/></svg>