<svg clip-rule="evenodd" fill-rule="evenodd" stroke-linejoin="round" stroke-miterlimit="2" version="1.1" viewBox="-.0046605 0 500 500" xml:space="preserve" xmlns="http://www.w3.org/2000/svg">
    <g transform="matrix(1.6667 0 0 1.6667 .0031068 0)">
        <g transform="translate(-1.5394)">
            <path d="m301.28 145.56s6.94-145.56-153.04-145.56c-141.48 0-145.9 139.63-145.9 139.63s-20.811 160.37 149.16 160.37c163.02 0 149.78-154.44 149.78-154.44zm-197.8-50.863c30.017-18.364 68.366-7.14 82.735 20.476 2.723 5.234 3.069 13.291 1.345 18.782-5.955 18.956-20.014 29.587-39.312 34.103 5.689-4.871 10.218-10.394 11.659-18.025 1.517-7.31-0.135-14.931-4.543-20.956-7.005-9.624-19.629-13.471-30.811-9.389-11.881 4.511-18.389 15.354-17.216 28.683 1.09 12.381 10.484 20.405 28.061 23.453-2.627 1.39-4.65 2.414-6.63 3.517-8.051 4.411-15.059 10.506-20.544 17.868-1.784 2.408-3.01 2.602-5.727 0.941-35.338-21.61-37.609-75.844 0.983-99.453zm-26.449 133.53c-5.677 1.441-11.178 3.574-16.981 5.478 2.838-19.152 25.265-36.789 44.23-34.777-5.494 7.569-8.702 16.557-9.242 25.894-6.302 1.16-12.241 1.941-18.007 3.404v1e-3zm120.79-186.98c5.61 0.206 11.23 0.121 16.844 0.254 1.401 0.092 2.794 0.286 4.167 0.58-1.255 1.928-2.672 3.746-4.235 5.434-2.007 1.87-4.275 3.698-7.166 0.856-0.696-0.684-2.339-0.527-3.549-0.543-5.582-0.073-11.172-0.252-16.746-0.041-4.837 0.155-9.657 0.647-14.425 1.473-0.894 0.16-2.23 3.131-1.819 4.227 0.969 2.585 2.383 5.436 4.478 7.089 7.74 6.11 15.972 11.596 23.748 17.664 7.556 5.897 14.589 12.358 18.875 21.253 5.584 11.59 5.747 23.743 3.338 35.95-4.02 20.378-14.333 37.261-31.032 49.524-6.728 4.941-15.06 7.746-22.767 11.295-6.778 3.123-13.755 5.812-20.549 8.901-12.249 5.57-19.133 18.865-17.108 32.688 1.859 12.685 12.987 23.271 25.735 25.456 15.292 2.622 31.071-7.316 34.812-22.86 4.207-17.478-5.289-33.083-23.065-37.813-0.782-0.208-1.568-0.405-3.201-0.827 4.755-2.124 8.862-3.638 12.653-5.724 6.614-3.64 13.108-7.494 19.481-11.562 1.874-1.199 2.887-1.2 4.485 0.182 12.225 10.57 19.518 23.718 21.563 39.839 3.385 26.684-9.247 51.198-33.072 63.762-36.86 19.439-81.965-2.686-90.106-43.552-6.973-35.003 17.73-66.754 47.462-72.884 12.787-2.636 24.48-7.959 33.57-17.807 5.866-6.354 8.709-11.806 9.678-14.266 1.804-4.61 2.727-9.518 2.721-14.469-0.195-4.283-1.201-8.49-2.966-12.398-3.104-7.075-14.995-18.33-17.939-20.704l-28-21.921c-0.987-0.812-2.099-0.753-4.508-0.59-2.861 0.194-10.175 0.599-13.331-0.228 2.553-1.933 9.514-4.746 12.502-7.007-9.073-6.13-19.43-3.916-28.941-5.747 2.2-4.095 13.081-10.39 19.27-11.091-0.366-3.456-0.93-6.888-1.687-10.281-0.378-1.391-1.931-2.74-3.287-3.535-3.286-1.927-6.769-3.517-10.549-5.433 3.384-2.187 7.305-3.4 11.332-3.505 3.816-0.145 7.633 0.227 11.348 1.105 6.743 1.541 12.124 0.535 17.488-4.048-4.222-1.7-8.443-3.253-12.538-5.09-4.034-1.839-7.966-3.895-11.779-6.159 10.622 1.476 20.896 5.459 31.757 4.004 0.093-0.494 0.185-0.988 0.278-1.481-8.12-1.89-16.239-3.78-25.229-5.873 15.04-1.376 29.042-1.604 42.301 4.855 3.731 1.817 7.635 3.321 11.211 5.397 1.744 1.012 2.918 3.008 4.349 4.559 1.137 1.233 2.05 2.884 3.446 3.627 5.3 2.818 11.134 2.929 17.078 2.787 0.045-0.676 0.086-1.311 0.131-1.993 5.982 1.869 12.715 8.768 12.704 13.806-9.691 0-19.374-0.037-29.056 0.054-1.035 0.01-2.062 0.766-3.093 1.175 0.979 0.571 1.942 1.6 2.942 1.637l-4e-3 -1e-3z" fill="#88171a" fill-rule="nonzero"/>
        </g>
        <g transform="translate(-1.5394)">
            <path d="m185.32 26.906c-0.432 0.27-0.694 0.745-0.694 1.255 0 0.426 0.184 0.833 0.505 1.114 0.396 0.697 1.139 1.129 1.941 1.129 0.398 0 0.788-0.106 1.131-0.307 0.933-0.471 1.848-0.972 2.975-1.567-0.908-0.775-1.636-1.415-2.386-2.032-1.318-1.086-2.411-0.404-3.472 0.408z" fill="#88171a" fill-rule="nonzero"/>
        </g>
    </g>
</svg>
