<?xml version="1.0" encoding="UTF-8" standalone="no"?>
<!DOCTYPE svg PUBLIC "-//W3C//DTD SVG 1.1//EN" "http://www.w3.org/Graphics/SVG/1.1/DTD/svg11.dtd">
<svg width="100%" height="100%" viewBox="0 0 150 150" version="1.1" xmlns="http://www.w3.org/2000/svg" xmlns:xlink="http://www.w3.org/1999/xlink" xml:space="preserve" xmlns:serif="http://www.serif.com/" style="fill-rule:evenodd;clip-rule:evenodd;stroke-linejoin:round;stroke-miterlimit:2;">
    <g transform="matrix(1,0,0,1,3.4,1.95)">
        <path d="M83.7,113.5C83.7,113.5 83.6,120.9 86.8,120.9C87.8,120.9 89.5,119.4 89.5,119.4L124.7,84.2C124.7,84.2 127.9,81.4 127.9,77.3C127.9,73.1 124.7,70.4 124.7,70.4L89.4,35.1C89.4,35.1 88.1,33.7 86.8,33.7C83.2,33.7 83.6,41.1 83.6,41.1L83.6,113.5" style="fill:rgb(0,80,157);fill-rule:nonzero;"/>
        <path d="M83.6,16.7L83.6,33.5L49.5,67.1L56.5,67.1C60.1,67.1 63.2,67.5 65.4,70.2C68.3,73.9 68.1,77.9 68.1,81.8L68.1,136L19.6,87.5C19.6,87.5 15.3,82.8 15.3,77.4C15.3,72 19.5,67.4 19.5,67.4L70.2,16.7C70.2,16.7 75.9,10.1 79.4,10.1C83.9,10.2 83.6,16.7 83.6,16.7" style="fill:rgb(53,119,41);fill-rule:nonzero;"/>
    </g>
</svg>
