<svg width="100%" height="100%" viewBox="10.815488815307617 129.62657165527344 482.477783203125 231.1632843017578" version="1.1" xmlns="http://www.w3.org/2000/svg" xmlns:xlink="http://www.w3.org/1999/xlink" xml:space="preserve" xmlns:serif="http://www.serif.com/" style="fill-rule:evenodd;clip-rule:evenodd;stroke-linejoin:round;stroke-miterlimit:2;">
    <g transform="matrix(0.174621,0,0,0.174621,-1022.12,121.14)">
        <path d="M5915.3,1372.4L6241.3,656.5C6241.3,656.5 6271.1,580 6360.5,580L6803.3,580C6714,580 6662.8,703.3 6662.8,703.3L6357.7,1372.4L5915.3,1372.4" style="fill:rgb(227,216,185);fill-rule:nonzero;"></path>
    </g>
    <g transform="matrix(0.174621,0,0,0.174621,-1022.12,121.14)">
        <path d="M8678.3,48.6C8618.5,188.4 8214.1,1056.3 8120,1276C8099.5,1323.8 8068.5,1370.1 7997.9,1370.1L7556.1,1370.1C7595.1,1370.1 7660.3,1329.8 7730.2,1163.7C7730.2,1163.7 8226.8,72.2 8238.3,48.8L8240.4,48.8C8246.4,48.8 8675.8,48.6 8678.3,48.6" style="fill:rgb(235,111,25);fill-rule:nonzero;"></path>
    </g>
    <g transform="matrix(0.174621,0,0,0.174621,-1022.12,121.14)">
        <path d="M7039.1,1370.9L6598.7,1370.9C6631.6,1370.9 6655.3,1360.3 6674,1344.6C6696.5,1326.7 6712.3,1302.4 6723.3,1276.8C6809.3,1088.1 7000.7,668 7081.6,488.7L7126.1,391.7C7126.1,391.7 7156,315.2 7245.3,315.2L7681.7,315.2C7592.3,315.2 7547.4,435.2 7547.4,435.2C7547.4,435.2 7182,1233.9 7163.6,1276.8C7152.6,1302.4 7136.8,1326.7 7114.3,1344.6C7095.7,1360.3 7072,1370.9 7039.1,1370.9" style="fill:rgb(250,181,17);fill-rule:nonzero;"></path>
    </g>
    <g transform="matrix(0.174621,0,0,0.174621,-1022.12,121.14)">
        <path d="M7823,842.6C7810.4,753.2 7788.1,315.2 7681.8,315.2C7592.4,315.2 7567.7,399.8 7392.3,894.6C7392.3,894.6 7422,1370 7556.2,1370C7690.3,1370.1 7823,842.6 7823,842.6" style="fill:rgb(0,66,88);fill-rule:nonzero;"></path>
    </g>
    <g transform="matrix(0.174621,0,0,0.174621,-1022.12,121.14)">
        <path d="M6803.4,580C6726.2,579.8 6689.4,670.6 6689.4,670.6L6547.2,1052.6C6550.2,1067.1 6508.5,1370.9 6598.7,1370.9C6692.1,1370.9 6723,1264.9 6735.8,1233.6C6773.2,1142.9 6866.9,883.6 6866.9,883.6C6860.5,753.8 6871.8,588.6 6803.4,580" style="fill:rgb(0,66,88);fill-rule:nonzero;"></path>
    </g>
</svg>
