<svg xmlns:dc="http://purl.org/dc/elements/1.1/" xmlns:cc="http://creativecommons.org/ns#" xmlns:rdf="http://www.w3.org/1999/02/22-rdf-syntax-ns#" xmlns:svg="http://www.w3.org/2000/svg" xmlns="http://www.w3.org/2000/svg" xmlns:sodipodi="http://sodipodi.sourceforge.net/DTD/sodipodi-0.dtd" xmlns:inkscape="http://www.inkscape.org/namespaces/inkscape" viewBox="1 0.99993896484375 134.65206909179688 62.60797119140625" id="svg2" version="1.1" inkscape:version="0.48.5 r10040" sodipodi:docname="ISC2.svg">
  <defs id="defs4"></defs>
  <sodipodi:namedview id="base" pagecolor="#ffffff" bordercolor="#666666" borderopacity="1.0" inkscape:pageopacity="0.0" inkscape:pageshadow="2" inkscape:zoom="2.8" inkscape:cx="99.957474" inkscape:cy="23.999268" inkscape:document-units="px" inkscape:current-layer="layer1" showgrid="false" inkscape:window-width="1024" inkscape:window-height="706" inkscape:window-x="-8" inkscape:window-y="-8" inkscape:window-maximized="1" fit-margin-top="1" fit-margin-left="1" fit-margin-right="1" fit-margin-bottom="1"></sodipodi:namedview>
  <metadata id="metadata7">
	<rdf:rdf>
	  <cc:work rdf:about="">
		<dc:format>image/svg+xml</dc:format>
		<dc:type rdf:resource="http://purl.org/dc/dcmitype/StillImage"></dc:type>
	  </cc:work>
	</rdf:rdf>
  </metadata>
  <g inkscape:label="Layer 1" inkscape:groupmode="layer" id="layer1" transform="translate(-303.13539,-564.46147)">
	<path inkscape:connector-curvature="0" id="path3001" style="font-size:33.71200943px;font-style:normal;font-variant:normal;font-weight:normal;font-stretch:normal;text-align:start;line-height:100%;letter-spacing:0px;word-spacing:0px;writing-mode:lr-tb;text-anchor:start;fill:#24514a;fill-opacity:1;stroke:none;font-family:Verdana;-inkscape-font-specification:Verdana" d="m 322.32822,628.06942 c -9.41829,-7.08796 -18.19283,-15.78756 -18.19283,-31.07456 0,-14.25797 12.7518,-26.8727 20.26544,-31.53339 l 2.96677,1.74361 c -20.06374,17.69159 -20.2005,43.44897 -1.54421,58.88086 z" sodipodi:nodetypes="cscccc"></path>
	<path inkscape:connector-curvature="0" id="path3003" style="font-size:33.71200943px;font-style:normal;font-variant:normal;font-weight:normal;font-stretch:normal;text-align:start;line-height:100%;letter-spacing:0px;word-spacing:0px;writing-mode:lr-tb;text-anchor:start;fill:#24514a;fill-opacity:1;stroke:none;font-family:Verdana;-inkscape-font-specification:Verdana" d="m 324.84067,618.24102 0,-41.32247 5.49729,0 0,41.32247 z" sodipodi:nodetypes="ccccc"></path>
	<path inkscape:connector-curvature="0" id="path3005" style="font-size:33.71200943px;font-style:normal;font-variant:normal;font-weight:normal;font-stretch:normal;text-align:start;line-height:100%;letter-spacing:0px;word-spacing:0px;writing-mode:lr-tb;text-anchor:start;fill:#24514a;fill-opacity:1;stroke:none;font-family:Verdana;-inkscape-font-specification:Verdana" d="m 360.74074,606.06146 c -2e-5,1.56287 -0.26468,3.10778 -0.79393,4.6347 -0.52933,1.52695 -1.271,2.82035 -2.225,3.88022 -1.04552,1.14969 -2.26421,2.0479 -3.65603,2.69458 -1.39187,0.6467 -3.06796,0.97006 -5.02828,0.97006 -2.1041,0 -3.99584,-0.26945 -5.67519,-0.80837 -1.67937,-0.53891 -3.38813,-1.33832 -5.1263,-2.39819 l 0,-6.68259 0.27446,0 c 1.47677,1.68862 3.18227,2.991 5.11648,3.90717 1.9342,0.91615 3.75453,1.26769 5.44976,1.37421 7.81277,0.49094 8.35063,-9.20143 3.78346,-11.70654 -0.90907,-0.49863 -2.55942,-1.64623 -3.77017,-2.42105 -2.99717,-1.91804 -6.93994,-3.38129 -8.80544,-6.05578 -1.26467,-1.8131 -1.87212,-2.37932 -1.87212,-5.30746 0,-3.35922 1.03245,-6.11221 3.09735,-8.25893 2.06487,-2.14665 4.68521,-3.21999 7.86097,-3.22004 2.05181,5e-5 3.93373,0.26951 5.64578,0.80838 1.712,0.53896 3.22801,1.20364 4.54799,1.99401 l 0,6.30534 -0.27445,0 c -1.11088,-1.29337 -2.57133,-2.36672 -4.38136,-3.22004 -1.81006,-0.85324 -3.11321,-0.85524 -5.00639,-0.93332 -7.34021,-0.30271 -8.16653,6.86341 -3.47324,10.48294 4.09233,3.15605 8.23921,3.86495 11.95044,7.49627 1.40153,1.37135 2.36119,3.59022 2.36121,6.46443 z" sodipodi:nodetypes="cccssscccsssssscccccccsssc"></path>
	<path inkscape:connector-curvature="0" id="path3007" style="font-size:33.71200943px;font-style:normal;font-variant:normal;font-weight:normal;font-stretch:normal;text-align:start;line-height:100%;letter-spacing:0px;word-spacing:0px;writing-mode:lr-tb;text-anchor:start;fill:#24514a;fill-opacity:1;stroke:none;font-family:Verdana;-inkscape-font-specification:Verdana" d="m 401.65147,614.89922 c -15.97718,7.39071 -36.26538,2.29993 -36.26538,-17.41386 0,-19.52205 21.39872,-24.49133 36.26538,-17.60581 l 0,6.09122 -0.44047,0 c -10.14395,-8.20946 -30.85355,-4.90752 -30.85355,11.51459 0,17.13579 21.1713,19.42661 30.8829,11.3728 l 0.41112,0 z" sodipodi:nodetypes="cscccsccc"></path>
	<path sodipodi:nodetypes="cscccc" d="m 400.92566,628.06942 c 9.41829,-7.08796 18.19283,-15.78756 18.19283,-31.07456 0,-14.25797 -12.7518,-26.8727 -20.26544,-31.53339 l -2.96677,1.74361 c 20.06374,17.69159 20.2005,43.44897 1.54421,58.88086 z" style="font-size:33.71200943px;font-style:normal;font-variant:normal;font-weight:normal;font-stretch:normal;text-align:start;line-height:100%;letter-spacing:0px;word-spacing:0px;writing-mode:lr-tb;text-anchor:start;fill:#24514a;fill-opacity:1;stroke:none;font-family:Verdana;-inkscape-font-specification:Verdana" id="path3020" inkscape:connector-curvature="0"></path>
	<g style="font-size:19.23098373px;font-style:normal;font-variant:normal;font-weight:300;font-stretch:normal;text-align:start;line-height:100%;letter-spacing:0px;word-spacing:0px;writing-mode:lr-tb;text-anchor:start;fill:#24514a;fill-opacity:1;stroke:none;font-family:Helvetica Neue;-inkscape-font-specification:Helvetica Neue Light" id="text3026">
	  <path d="m 421.3851,589.22888 0,-0.3756 4.31007,-6.60126 c 0.90145,-1.38347 1.35217,-2.55724 1.35218,-3.5213 -10e-6,-1.27079 -0.71679,-1.90619 -2.15034,-1.9062 -0.50707,10e-6 -0.98284,0.13304 -1.4273,0.39908 -0.44447,0.26607 -0.76686,0.60255 -0.96718,1.00944 l -1.21133,-0.99535 c 0.21284,-0.61348 0.6307,-1.10176 1.25358,-1.46486 0.62288,-0.36307 1.37565,-0.54462 2.25833,-0.54463 1.32087,10e-6 2.35378,0.30519 3.09874,0.91554 0.74494,0.61037 1.11742,1.47269 1.11743,2.58698 -10e-6,1.03292 -0.49456,2.33502 -1.48364,3.90629 l -3.08936,4.90165 5.38994,0 0,1.69022 z" style="font-weight:normal;fill:#24514a;font-family:Trebuchet MS;-inkscape-font-specification:Trebuchet MS" id="path2992" inkscape:connector-curvature="0"></path>
	</g>
	<g style="font-size:11.85856819px;font-style:normal;font-variant:normal;font-weight:300;font-stretch:normal;text-align:start;line-height:100%;letter-spacing:0px;word-spacing:0px;writing-mode:lr-tb;text-anchor:start;fill:#24514a;fill-opacity:1;stroke:none;font-family:Helvetica Neue;-inkscape-font-specification:Helvetica Neue Light" id="text3030">
	  <path d="m 430.9763,580.02374 c 0,-1.077 0.38216,-1.99669 1.14648,-2.75909 0.76432,-0.76238 1.68498,-1.14358 2.76198,-1.14359 1.077,10e-6 1.99669,0.38121 2.75909,1.14359 0.76238,0.7624 1.14358,1.68209 1.14359,2.75909 -1e-5,1.077 -0.38121,1.99766 -1.14359,2.76198 -0.7624,0.76432 -1.68209,1.14648 -2.75909,1.14648 -1.077,0 -1.99766,-0.38216 -2.76198,-1.14648 -0.76432,-0.76432 -1.14648,-1.68498 -1.14648,-2.76198 z m 7.1742,0 c -1e-5,-0.90329 -0.31847,-1.6734 -0.9554,-2.31034 -0.63694,-0.63693 -1.40705,-0.9554 -2.31034,-0.9554 -0.90329,0 -1.67437,0.31847 -2.31323,0.9554 -0.63886,0.63694 -0.9583,1.40705 -0.9583,2.31034 0,0.90329 0.31944,1.67436 0.9583,2.31323 0.63886,0.63886 1.40994,0.9583 2.31323,0.95829 0.90329,10e-6 1.6734,-0.31943 2.31034,-0.95829 0.63693,-0.63887 0.95539,-1.40994 0.9554,-2.31323 z m -2.04977,2.35665 -1.22176,-2.06714 -0.69483,0 0,2.06714 -0.68905,0 0,-4.81175 1.23333,0 c 1.15806,1e-5 1.73709,0.44393 1.7371,1.33177 -1e-5,0.61764 -0.31075,1.05385 -0.93224,1.30862 l 1.3144,2.17136 z m -1.91659,-4.22114 0,1.59813 c 0.0579,0.008 0.20844,0.0116 0.45164,0.0116 0.44778,10e-6 0.74888,-0.0569 0.90329,-0.17081 0.1544,-0.11387 0.23161,-0.33101 0.23161,-0.65141 0,-0.52885 -0.34742,-0.79327 -1.04226,-0.79328 l -0.27214,0 z" style="font-weight:normal;fill:#24514a;font-family:Trebuchet MS;-inkscape-font-specification:Trebuchet MS" id="path2995" inkscape:connector-curvature="0"></path>
	</g>
  </g>
</svg>
