<svg xmlns="http://www.w3.org/2000/svg" fill="none" viewBox="1.55 0.73 43 48.75"><path fill="#efefef" d="M14.9 33.2h7.7c.1 0 .2 0 .2.1l.6.6c.1.1.4.1.5 0l5.6-5.6c.2-.2.1-.6-.2-.6H1.9c-.3 0-.5.4-.2.6l21.1 21.1c.1.1.4.1.5 0l21.1-21.1c.2-.2.1-.6-.2-.6h-6.6c-.1 0-.2 0-.2.1l-14 14c-.1.1-.4.1-.5 0l-8.1-8.1c-.4-.1-.2-.5.1-.5z"/><path fill="#5AC9E4" d="M31.2 17h-7.7c-.1 0-.2 0-.2-.1l-.6-.6c-.1-.1-.4-.1-.5 0l-5.6 5.6c-.2.2-.1.6.2.6h27.4c.3 0 .5-.4.2-.6L23.4.8c-.1-.1-.4-.1-.5 0L1.8 21.9c-.2.2-.1.6.2.6h6.6c.1 0 .2 0 .2-.1l14-14c.1-.1.4-.1.5 0l8.1 8.1c.2.2.1.5-.2.5z"/></svg>