<?xml version="1.0" encoding="utf-8"?>
<!-- Generator: Adobe Illustrator 26.0.3, SVG Export Plug-In . SVG Version: 6.00 Build 0)  -->
<svg version="1.0" id="katman_1" xmlns="http://www.w3.org/2000/svg" xmlns:xlink="http://www.w3.org/1999/xlink" x="0px" y="0px"
	 viewBox="55 183.4 490.3 84" style="enable-background:new 55 183.4 490.3 84;" xml:space="preserve">
<style type="text/css">
	.st0{fill:#010202;}
	.st1{fill:#3D3938;}
	.st2{fill:#D0C5C0;}
</style>
<path class="st0" d="M535.8,213.8l8.8-14.7l-4.9-15.7h-337l-1.6,11.5l-3.1-11.5h-78.5l-2.7,10.8h-6.5l-1.5,6l-8.7-16.8H74.5L55,246
	l15.5,21.3h25.6l3.1-11.8h10.3l6.9,11.8h78.9l1.9-13.7l4.4,13.7h263.6l10.7-22.1h9.6l9-17.5l9.6,39.7h26.5l14.7-21.4L535.8,213.8z
	 M308.1,228.7l0-7.5h22.7l0.2,7.5H308.1z"/>
<polygon class="st1" points="72.7,263 59.8,245.2 80.7,245.2 92.6,263 "/>
<polygon class="st1" points="157.3,245.2 136.4,245.2 145.4,263 165.2,263 "/>
<polygon class="st1" points="164.3,245.2 171.8,263 191.6,263 185.2,245.2 "/>
<polygon class="st1" points="227,245.2 231.2,263 277.4,263 275.8,245.2 "/>
<polygon class="st1" points="331.5,245.2 330.2,263 284,263 282.7,245.2 "/>
<polygon class="st1" points="338.5,245.2 359.4,245.2 356.6,263 336.8,263 "/>
<polygon class="st1" points="366.3,245.2 363.2,263 383,263 387.2,245.2 "/>
<polygon class="st1" points="394.2,245.2 389.6,263 409.4,263 415.1,245.2 "/>
<polygon class="st1" points="422.1,245.2 416,263 435.9,263 443,245.2 "/>
<polygon class="st1" points="449.9,245.2 442.5,263 462.3,263 470.8,245.2 "/>
<polygon class="st1" points="519.6,245.2 508.5,263 528.3,263 540.5,245.2 "/>
<polygon class="st1" points="199.1,245.2 204.8,263 224.6,263 220,245.2 "/>
<polygon class="st1" points="108.6,245.2 129.5,245.2 138.8,263 119,263 "/>
<path class="st2" d="M114.6,221.2h-6.8l-3.1,11.8H91l3.3-11.8h-6.8l-6.9,24H59.8l17.9-57.5h19.4L94,198.6h6.6l-3.1,11.1h13.3
	l2.9-11.1h6.6l2.7-10.8h19.4l-12.9,57.5h-20.9L114.6,221.2z"/>
<path class="st2" d="M148.8,187.8h19.4l-10.8,57.5h-20.9L148.8,187.8z"/>
<path class="st2" d="M232.8,187.8H278l-0.4,10.8h-26.2l-0.8,11.1h26.6l-0.5,11.5h-27l-0.9,11.8h27.4l-0.5,12.2H227L232.8,187.8z"/>
<path class="st2" d="M284.5,187.8h45.2l0.3,10.8h-26.2l-0.1,34.4h27.4l0.4,12.2h-48.8L284.5,187.8z"/>
<path class="st2" d="M364.5,221.2h-6.8l1.6,24h-20.9l-2.3-57.5h45.2l2.2,21.9H377l0.5,5.7h6.7l3,29.8h-20.9L364.5,221.2z
	 M356.3,198.6l0.7,11.1h6.7l-0.8-11.1H356.3z"/>
<path class="st2" d="M439.6,187.8h45.2l2.6,10.8h-26.2l2.3,11.1h26.6l2.8,11.5h-27l5,24h-20.9L439.6,187.8z"/>
<path class="st2" d="M507.1,198.6H494l-2.7-10.8h45.2l3.4,10.8h-13.1l13.7,46.6h-20.9L507.1,198.6z"/>
<path class="st2" d="M201.6,227h-6.8l1.7-11.6h-6.7l-4.6,29.8h-20.9l10.3-57.5H194l-1.7,10.8h6.6l-1.6,11.1h6.7l3-21.9h19.4
	l-6.3,57.5h-20.9L201.6,227z"/>
<path class="st2" d="M433.1,187.8h-45.2l6.3,57.5h20.9l-2.5-18.2h6.8l2.6,18.2H443L433.1,187.8z M417.9,208.8h3.3l1.6,10.5h-4.5
	l-0.6-3.8H411l0.5,3.8h-4.5l-1.4-10.5h3.3l-0.4-2.8h-7.7l-0.9-7.4h8.7l0.9,6.5h6.6l-0.9-6.5h8.7l1.2,7.4h-7.7L417.9,208.8z"/>
</svg>
