<svg xmlns="http://www.w3.org/2000/svg" viewBox="0 0 24 24"><path d="M12.14 8.833h.003c5.735.385 9.153 3.192 9.153 7.512 0 3.81-3.055 7.655-9.875 7.655-3.16 0-5.857-.313-8.25-.94v-5.55c1.599.656 4.23 1.348 6.942 1.348 2.474 0 3.946-.82 3.946-2.211 0-1.678-1.783-1.787-2.466-1.83h-.009c-7.988-.544-8.848-5.267-8.848-7.274C2.736 4.064 5.207 0 12.182 0c4.046 0 6.228.632 8.104 1.288l.097.029v5.387l-.07-.02c-.755-.32-1.642-.632-1.642-.632-1.59-.476-3.817-.984-5.536-.984-.978 0-3.585 0-3.585 1.967 0 1.628 1.806 1.747 2.59 1.798z" fill="url(#paint0_linear)"/><defs><linearGradient id="paint0_linear" x1="22.838" y1="-1.388" x2="28.423" y2="29.927" gradientUnits="userSpaceOnUse"><stop stop-color="#6B195F"/><stop offset="1" stop-color="#4C255B"/></linearGradient></defs></svg>