<?xml version="1.0" encoding="UTF-8" standalone="no"?>
<svg xmlns="http://www.w3.org/2000/svg" version="1.0" width="400.000000pt" height="400.000000pt" viewBox="0 0 400.000000 400.000000" preserveAspectRatio="xMidYMid meet">
  <g transform="translate(0.000000,400.000000) scale(0.100000,-0.100000)" fill="#000000" stroke="none">
    <path d="M930 2071 l0 -559 33 -11 c55 -18 227 -30 300 -21 148 18 230 90 262 231 25 110 22 334 -5 422 -42 137 -122 181 -330 182 l-125 0 -2 140 c-1 77 -2 148 -3 158 0 14 -10 17 -65 17 l-65 0 0 -559z m375 117 c71 -37 86 -80 92 -253 10 -280 -31 -349 -207 -350 -41 0 -87 4 -102 8 l-28 7 0 290 c0 220 3 291 13 297 37 23 187 24 232 1z"></path>
    <path d="M2415 2618 c-3 -7 -4 -263 -3 -568 l3 -555 68 -3 67 -3 0 350 c0 218 4 352 10 356 5 3 47 9 92 12 98 6 154 -6 189 -43 l24 -26 5 -321 5 -322 68 -3 68 -3 -3 338 -3 339 -26 49 c-39 78 -86 99 -219 99 -58 1 -127 -1 -155 -4 l-50 -5 -3 163 -2 162 -66 0 c-42 0 -66 -4 -69 -12z"></path>
    <path d="M3155 2618 c-3 -7 -4 -263 -3 -568 l3 -555 68 -3 67 -3 0 571 0 570 -65 0 c-43 0 -67 -4 -70 -12z"></path>
    <path d="M620 2220 l0 -80 55 -1 c30 -1 64 -1 75 -1 11 0 25 0 30 1 7 1 10 30 8 79 l-3 77 -82 3 -83 3 0 -81z"></path>
    <path d="M1674 2275 c-12 -29 3 -619 16 -660 20 -63 74 -110 145 -126 98 -21 323 -12 418 17 16 5 17 33 17 395 l0 389 -70 0 -70 0 0 -340 0 -340 -26 -10 c-35 -14 -171 -12 -213 3 -19 7 -44 25 -55 40 -20 27 -21 42 -24 338 l-3 309 -65 0 c-48 0 -66 -4 -70 -15z"></path>
    <path d="M622 1598 l3 -83 60 -3 c32 -2 70 0 82 3 23 5 24 9 21 83 l-3 77 -83 3 -83 3 3 -83z"></path>
  </g>
</svg>
