<svg id="outputsvg" class="img-fluid" style="cursor:move;transform-origin:50% 50% 0px;transform:matrix(1, 0, 0, 1, 0, 0);transition:none 0s ease 0s" version="1.1" viewBox="0 0 8460 8460" xmlns="http://www.w3.org/2000/svg"><g id="l4lJtsgCtKqGpztspj5wK4m" fill="#ffffff"><g><path id="p1BljEyh2I" d="m2503 7565c-124-27-253-120-315-226-91-155-100-385-21-546 36-73 123-166 194-208 95-55 156-70 299-69 139 1 200 16 292 75 60 39 78 64 78 109 0 31-9 45-68 103-81 80-102 84-186 33-96-58-164-56-248 7-49 36-108 141-108 191 0 57 33 129 81 178 83 84 184 95 281 32 25-16 52-24 81-24 38 0 48 5 94 53 60 61 73 84 73 127 0 58-106 132-235 165-72 18-207 18-292 0z"/><path id="pMb2ypgKM" d="m4616 7564c-176-43-324-192-367-371-7-26-12-95-11-153 0-126 23-207 81-296 95-146 223-217 412-231 267-19 489 135 554 384 34 132 12 316-51 433-35 65-143 166-208 196-119 54-282 69-410 38zm243-302c19-9 51-32 71-52 104-104 99-234-13-337-101-93-216-86-317 18-77 79-89 177-34 266 73 116 185 157 293 105z"/><path id="pDyBCtERe" d="m3215 7561c-5-9-10-850-5-1013 0-17 19-18 248-18 267 0 303 5 407 57 62 32 162 132 197 199 54 101 73 251 48 385-32 172-175 325-355 380-56 16-530 25-540 10zm438-287c119-40 197-193 153-299-45-108-130-169-253-181l-63-7v503h58c32 0 79-7 105-16z"/><path id="p175R6wasW" d="m5503 7562c-9-5-12-136-14-508-1-276 1-506 5-513 5-8 85-11 280-11 296 0 322 4 399 57 119 83 163 285 92 429-26 53-105 134-131 134-20 0-18 7 19 75 117 213 137 255 137 283 0 57-17 63-163 60l-132-3-95-187c-126-249-130-249-130-8 0 167-1 180-19 190-22 11-230 14-248 2zm462-636c55-36 55-84 2-117-25-15-51-19-114-19h-83v73c0 41 3 77 8 81 12 14 161-1 187-18z"/><path id="pbUm7NvKj" d="m4040 5724c-74-30-272-111-440-179s-453-184-635-258c-181-74-460-187-620-251-159-65-293-123-297-129-9-15-10-60-2-81 6-15 206-16 2170-16h2164v55c0 30-1 55-3 55s-71 27-153 61c-82 33-252 102-379 154-126 51-293 119-370 150-260 106-672 273-1024 416-136 55-207 79-235 79-26-1-90-21-176-56z"/><path id="puMUoITpd" d="m2127 4626c-98-27-146-111-134-237 6-70 34-119 85-151l37-23h4200l38 24c57 35 81 90 82 181 0 124-46 186-156 209-79 17-4088 14-4152-3z"/><path id="pDnsCp7cF" d="m2578 4033c-38-6-86-57-94-99-9-51 1-149 19-174 38-54-74-51 1707-51 1450 0 1653 2 1679 16 41 21 65 88 58 163-6 70-22 106-56 129-25 17-116 18-1656 19-896 1-1642-1-1657-3z"/><path id="pOoxwwTWO" d="m2836 3516c-44-16-100-66-124-111-15-27-17-101-17-816v-785l27-41c66-100 185-137 326-101 64 16 134 86 150 150s17 1495 1 1553c-14 51-50 99-100 132-34 22-53 26-132 30-64 2-104-1-131-11z"/><path id="pQhpb97Hu" d="m5366 3515c-49-17-103-68-127-120-18-38-19-81-19-805 0-863-4-811 79-882 54-46 112-62 204-56 116 8 198 65 226 157 16 55 16 1494-1 1559-15 59-85 132-144 150-54 16-169 15-218-3z"/><path d="m3692 3487c-48-18-99-63-125-110l-22-42v-1520l22-42c48-89 140-131 268-121 99 8 167 53 200 132 15 35 17 119 16 797 0 740-1 759-20 798-25 48-80 94-130 110-49 14-166 13-209-2z"/><path d="m4515 3485c-54-19-119-92-134-149-16-64-16-1459 1-1524 16-64 86-134 150-150 148-38 277 7 328 114l22 45-1 754c-1 843 2 805-72 869-21 18-56 38-78 44-52 16-167 14-216-3z"/><path id="pdqNwdtun" d="m2052 1468c-7-7-12-29-12-50 0-45 9-52 130-101 47-20 139-58 205-85 66-28 185-77 265-110s442-183 805-335c363-151 677-280 699-287 80-26 131-12 456 125 168 70 357 149 420 175 645 268 1347 564 1357 572 16 13 17 62 3 89-11 19-45 19-2163 19-1661 0-2156-3-2165-12z"/></g></g><g id="l15zpJCXJiF1V0yusJn3isZ" fill="#235d37"><g><path id="ptDSobA0K" d="m4050 5968c-138-56-324-132-930-378-419-170-857-348-1220-495-184-75-488-198-675-274s-448-182-580-236-310-126-395-160l-155-63-8-48c-8-56-2-236 17-469 27-320 114-709 230-1023 397-1081 1211-1937 2271-2390 352-150 793-266 1140-298 33-3 92-9 130-14 90-10 601-10 680 0 33 4 87 10 120 13 256 23 587 97 878 197 773 263 1470 770 1960 1424 418 557 683 1188 781 1856 31 213 37 288 43 515l6 232-74 30c-41 17-159 66-264 108-457 185-558 226-690 280-77 31-243 99-370 150-126 52-286 117-355 145-179 75-689 282-1060 433-102 41-248 101-325 132s-210 85-295 120-252 102-370 150c-292 119-308 125-328 124-9 0-82-28-162-61zm371-297c352-143 764-310 1024-416 77-31 244-99 370-150 127-52 297-121 379-154 82-34 151-61 153-61s3-11 3-25v-25h-2134c-2222 0-2161-1-2137 38 3 6 137 63 296 128 160 64 439 177 620 251 182 74 467 190 635 258s366 149 440 179 140 55 146 56c6 0 98-35 205-79zm1828-1072c67-14 112-45 135-94 41-83 13-191-61-236l-38-24h-4140l-37 23c-133 83-102 287 49 328 64 17 4013 20 4092 3zm-388-612c73-49 72-194-2-232-42-22-3260-23-3291-1-32 23-48 51-54 99-10 73 31 137 97 150 13 2 744 4 1624 3 1511-1 1601-2 1626-19zm-2790-521c48-32 84-80 98-131 16-58 15-1429-1-1493-17-70-87-136-162-153-103-23-195 14-254 104l-27 41v755c0 840-5 779 68 849 49 47 99 63 176 57 46-3 75-12 102-29zm2483 22c59-18 129-91 144-150 17-65 17-1444 1-1499-46-152-246-207-370-101-83 71-79 22-79 852 0 695 1 737 19 775 50 107 167 158 285 123zm-1683-29c50-15 105-62 129-110 20-37 20-61 21-768 0-645-2-734-16-768-71-169-319-175-408-10l-22 42v1460l22 42c53 98 165 144 274 112zm830-1c22-6 57-26 78-44 74-64 71-28 72-839 0-724 0-726-21-770-46-95-147-140-257-116-72 17-143 83-161 151-16 63-17 1401-1 1465 15 58 80 131 134 150 49 17 106 19 156 3zm1648-2027c8-13 7-22-2-29-10-8-716-306-1357-572-63-26-251-104-418-174-166-70-315-129-331-132-16-4-46-1-68 6-30 10-623 255-1608 665-105 44-322 134-408 170-78 33-95 48-77 70 11 13 261 15 2136 15 2074 0 2124 0 2133-19z"/></g></g><g id="l1GnSoOb5qchPuT9092IqqM" fill="#c3002f"><g><path id="pwWCRa5zV" d="m3875 8350c-797-74-1519-348-2130-808-219-164-523-451-687-647-504-603-807-1281-929-2076-11-74-19-152-17-171l3-36 170 69c94 39 319 130 500 204 182 73 481 195 665 270s484 196 665 270c182 73 481 195 665 270s472 192 640 260 411 167 540 219c129 53 243 96 252 96 20 0 39-7 328-125 466-189 536-217 690-280 88-36 232-94 320-130s232-94 320-130 232-94 320-130 232-94 320-130 233-95 323-131c89-36 245-100 347-141s255-103 340-138 252-102 370-150 253-103 300-122 96-39 109-44l24-9-7 77c-8 93-48 339-76 461-142 634-440 1233-869 1747-96 116-380 400-496 496-638 532-1379 851-2195 945-36 4-78 9-95 11-58 8-631 10-710 3zm-1063-829c63-22 163-83 177-109 6-10 5-24-1-37-16-31-111-125-126-125-8 0-27 10-44 21-37 27-109 49-158 49-199 0-330-212-245-397 31-68 55-96 111-129 82-48 187-44 280 12l58 35 70-70c68-68 69-70 53-94-21-33-101-82-173-108-76-27-223-29-306-5-126 37-254 143-311 259-41 85-61 202-48 286 42 273 257 450 526 436 44-2 106-13 137-24zm2119 1c86-30 113-47 182-111 290-272 154-769-233-853-260-57-513 89-591 341-23 74-27 189-10 264 41 177 191 329 367 371 80 19 214 13 285-12zm-1206-1c79-24 150-66 212-124 159-149 198-388 95-581-35-67-135-167-197-199-101-51-142-57-377-57-201 0-218 1-218 18-3 294 1 946 5 953 9 14 430 5 480-10zm1996 9c18-10 19-23 19-190 0-98 3-181 8-183 4-2 25-2 47 0l41 5 94 186 95 187 101 3c84 3 104 0 118-13 18-18 24-6-123-275-28-52-49-100-47-106 3-7 21-20 40-29 45-21 103-85 127-139 54-123 10-284-98-359-76-52-105-57-369-57-150 0-245 4-249 10-3 5-6 222-5 482 0 361 3 474 13 480 18 11 165 10 188-2z"/><path d="m4677 7306c-109-41-180-144-179-263 1-233 279-357 449-201 50 47 70 81 88 150 30 112-39 249-150 302-51 25-158 31-208 12z"/><path id="p1FqnaYQLf" d="m3464 7319c-2-5-5-131-5-281l1-273 89 1c79 0 97 4 154 32 178 88 204 335 48 469-39 34-138 62-215 61-37-1-69-5-72-9z"/><path d="m5748 6974c-5-4-8-54-8-111v-103h110c128 0 164 12 186 65 11 28 12 41 1 71-21 63-51 77-174 82-59 2-111 1-115-4z"/></g></g></svg>
