<svg clip-rule="evenodd" fill-rule="evenodd" stroke-linejoin="round" stroke-miterlimit="2" version="1.1" viewBox=".0023329 -.0034051 500 499.96" xml:space="preserve" xmlns="http://www.w3.org/2000/svg">
    <g transform="matrix(43.821 0 0 43.821 -6078.1 -1574.3)">
        <path d="m141.61 47.334c-1.606 0-2.91-1.303-2.91-2.91v-5.589c0-1.607 1.304-2.91 2.91-2.91h5.588c1.608 0 2.912 1.303 2.912 2.91v5.589c0 1.607-1.304 2.91-2.912 2.91h-5.588z" fill="#111" fill-rule="nonzero"/>
    </g>
    <g transform="matrix(.95489 0 0 .95489 11.277 11.277)">
        <g transform="matrix(9.65 0 0 9.65 -1143.5 -151.91)">
            <path d="m141.61 61.921c-1.606 0-2.91-1.302-2.91-2.911v-5.589c0-1.606 1.304-2.91 2.91-2.91h5.588c1.608 0 2.912 1.304 2.912 2.91v5.589c0 1.609-1.304 2.911-2.912 2.911h-5.588z" fill="#a7423b" fill-rule="nonzero"/>
        </g>
        <g transform="matrix(9.65 0 0 9.65 -1143.5 -151.91)">
            <path d="m141.61 49.702c-2.05 0-3.718 1.669-3.718 3.719v5.589c0 2.051 1.668 3.72 3.718 3.72h5.588c2.051 0 3.72-1.669 3.72-3.72v-5.589c0-2.05-1.669-3.719-3.72-3.719h-5.588zm-2.101 9.308v-5.589c0-1.159 0.943-2.102 2.102-2.102h5.588c1.16 0 2.104 0.943 2.104 2.102v5.589c0 1.16-0.943 2.103-2.104 2.103h-5.588c-1.159 0-2.102-0.943-2.102-2.103" fill="#faa634" fill-rule="nonzero"/>
        </g>
        <g transform="matrix(9.65 0 0 9.65 -1143.5 -151.91)">
            <path d="m141.61 47.334c-1.606 0-2.91-1.303-2.91-2.91v-5.589c0-1.607 1.304-2.91 2.91-2.91h5.588c1.608 0 2.912 1.303 2.912 2.91v5.589c0 1.607-1.304 2.91-2.912 2.91h-5.588z" fill="#df6d36" fill-rule="nonzero"/>
        </g>
        <g transform="matrix(9.65 0 0 9.65 -1143.5 -151.91)">
            <path d="m141.61 35.117c-2.05 0-3.718 1.668-3.718 3.718v5.589c0 2.05 1.668 3.719 3.718 3.719h5.588c2.051 0 3.72-1.669 3.72-3.719v-5.589c0-2.05-1.669-3.718-3.72-3.718h-5.588zm-2.101 9.307v-5.589c0-1.159 0.943-2.101 2.102-2.101h5.588c1.16 0 2.104 0.942 2.104 2.101v5.589c0 1.159-0.943 2.102-2.104 2.102h-5.588c-1.159 0-2.102-0.943-2.102-2.102" fill="#faa634" fill-rule="nonzero"/>
        </g>
        <g transform="matrix(9.65 0 0 9.65 -1143.5 -151.91)">
            <path d="m141.61 32.786c-1.606 0-2.91-1.303-2.91-2.912v-5.588c0-1.607 1.304-2.91 2.91-2.91h5.588c1.608 0 2.912 1.303 2.912 2.91v5.588c0 1.609-1.304 2.912-2.912 2.912h-5.588z" fill="#ba683d" fill-rule="nonzero"/>
        </g>
        <g transform="matrix(9.65 0 0 9.65 -1143.5 -151.91)">
            <path d="m141.61 20.567c-2.05 0-3.718 1.668-3.718 3.719v5.588c0 2.051 1.668 3.72 3.718 3.72h5.588c2.051 0 3.72-1.669 3.72-3.72v-5.588c0-2.051-1.669-3.719-3.72-3.719h-5.588zm-2.101 9.307v-5.588c0-1.159 0.943-2.102 2.102-2.102h5.588c1.16 0 2.104 0.943 2.104 2.102v5.588c0 1.16-0.943 2.104-2.104 2.104h-5.588c-1.159 0-2.102-0.944-2.102-2.104" fill="#faa634" fill-rule="nonzero"/>
        </g>
    </g>
</svg>
