<svg version="1.1" xmlns="http://www.w3.org/2000/svg" xmlns:xlink="http://www.w3.org/1999/xlink" x="0px" y="0px"
	 viewBox="0 0 108 108" style="enable-background:new 0 0 108 108;" xml:space="preserve">
<style type="text/css">
	.st0{display:none;}
	.st1{display:inline;fill:#FFFFFF;stroke:#000000;stroke-width:0.3;stroke-miterlimit:10;}
	.st2{fill:#73A5FF;}
	.st3{fill:#FFFFFF;}
	.st4{fill:#2864F0;}
	.st5{fill:none;}
</style>
<g id="Background_Layer" class="st0">
	<rect id="Background_Colour_2_" class="st1" width="108" height="108"/>
</g>
<g id="Foreground_Layer" class="st0">
</g>
<g id="Logo__x28_72_xD7_72_x29_">
	<g>
		<g>
			<g>
				<polygon class="st2" points="38.48,44.24 36.15,42.67 29.63,43.94 30.01,45.89 32.41,58.28 50.02,54.86 47.61,42.47 				"/>
				<g>
					<circle class="st3" cx="39.57" cy="48.09" r="1.99"/>
					<path class="st3" d="M40.2,51.35c-2.16,0.42-3.68,1.93-3.4,3.37l7.82-1.52C44.34,51.76,42.36,50.93,40.2,51.35z"/>
				</g>
				<polygon class="st2" points="31.36,59.84 28.96,47.45 27,47.83 29.79,62.17 47.39,58.75 47.01,56.79 				"/>
			</g>
			<g>
				<path class="st4" d="M73.21,54.1c-3.23,0-6.39-0.33-9.44-0.95c6.91-3.33,12.1-9.68,13.85-17.34L58.3,50.68
					c-1.08,0.83-1.36,0.55-2.39,0.55c-1.63,0-3.18,0.65-4.28,1.72c-0.43,0.41-0.48,0.53-1.14,0.69l-1.35,0.33l2.57,0.56
					c2.05,0.45,2.52,0.78,3.65,2.25l14.53,18.86c0.37-5.55-1.3-11.07-5.09-15.49c1.6-0.01,3.07-0.29,4.49-0.78
					c1.18-0.41,1.48-0.5,2.97-0.5l7.7,0c0.1-0.52-0.09-0.67-0.85-0.78l-5.96-0.83c0.26-0.19,0.63-0.51,0.9-0.74
					c0.59-0.49,0.75-0.63,1.63-0.84c1.67-0.39,2.97-0.8,4.65-1.39c0.65-0.23,0.55-0.47,0.68-0.87C78.04,53.91,76.12,54.1,73.21,54.1
					z"/>
				<path class="st3" d="M55.31,54.47c-0.53,0-0.96-0.43-0.96-0.96c0-0.53,0.43-0.96,0.96-0.96c0.53,0,0.96,0.43,0.96,0.96
					C56.26,54.04,55.83,54.47,55.31,54.47z"/>
				<path class="st3" d="M64.65,58.99c-3.38,0-6.45-1.31-8.73-3.45c2.05-0.63,4.68-0.71,8.14-0.34c3.18,0.34,5.76,0.86,8.73,0.86
					C70.58,57.89,67.74,58.99,64.65,58.99z"/>
			</g>
		</g>
	</g>
</g>
</svg>
