<svg xmlns="http://www.w3.org/2000/svg" viewBox="0 0 42 40"><path fill="#2e3234" fill-rule="nonzero" d="M4.779 31.493c.371.015.746.066 1.095.194v-.003l.054.019 4.608-4.486.169.225c.239.323.493.618.761.913l.098.114c.071.07.127.14.197.21l.115.112.111.113.099.098.112.113.099.098.127.113.114.099a12.261 12.261 0 0 0 7.637 2.911c2.31.058 4.59-.532 6.581-1.702l.352.366c.409.436.831.872 1.241 1.308a14.514 14.514 0 0 1-8.23 2.292 14.508 14.508 0 0 1-8.963-3.375l.014-.029-2.956 2.91c.104.345.157.704.157 1.064 0 2.018-1.664 3.679-3.685 3.679C2.664 38.849 1 37.188 1 35.17s1.664-3.678 3.686-3.678h.095l-.002.001zm28.179-18.975a14.452 14.452 0 0 1 2.098 7.906 14.4 14.4 0 0 1-3.621 9.198l.014.014 1.818 1.927a2.29 2.29 0 0 1 1.973.689c.858.908.82 2.359-.085 3.22a2.302 2.302 0 0 1-3.226-.084 2.266 2.266 0 0 1-.579-1.997 731.196 731.196 0 0 0-3.197-3.389l-.185-.197.211-.169c.551-.435 1.061-.92 1.523-1.449a12.16 12.16 0 0 0 3.086-7.819 12.185 12.185 0 0 0-1.522-6.245l1.692-1.605zM7.277 3.922a2.33 2.33 0 0 1 1.707.706c.505.533.72 1.278.578 1.998l3.495 3.656-.212.17c-.549.436-1.056.913-1.521 1.448a12.282 12.282 0 0 0-1.578 14.078L8.068 27.61a14.337 14.337 0 0 1-2.113-7.946c.073-3.386 1.394-6.657 3.615-9.205L7.645 8.455c-.73.1-1.465-.157-1.972-.69a2.292 2.292 0 0 1 .085-3.221 2.313 2.313 0 0 1 1.301-.608c.073-.008.146-.01.219-.015l-.001.001zM36.685 1c2.022 0 3.685 1.661 3.685 3.679s-1.663 3.678-3.685 3.678c-.391 0-.779-.062-1.149-.183v.005l-.057-.02-5.003 4.739-.17-.225a11.72 11.72 0 0 0-.873-1.026l-.057-.071-.155-.155-.281-.281-.099-.084-.098-.084-.127-.113-.099-.084-.127-.113a12.263 12.263 0 0 0-7.581-2.869c-2.326-.057-4.595.521-6.567 1.702l-1.607-1.674a14.513 14.513 0 0 1 8.23-2.293 14.438 14.438 0 0 1 8.963 3.39h.028l3.312-3.14a3.654 3.654 0 0 1-.169-1.099C32.999 2.661 34.663 1 36.685 1h.002-.002z"/><path fill="#047aed" fill-rule="nonzero" d="M20.62 9.212c.417.002.833.034 1.246.082 5.947.745 10.16 6.16 9.427 12.096-.747 5.936-6.172 10.141-12.119 9.409-5.947-.745-10.161-6.161-9.428-12.095.71-5.507 5.344-9.473 10.874-9.492zm-.162 4.648c-2.408.193-4.15 2.01-4.212 4.426.039 1.677.764 2.861 2.138 3.788l.331.18-.837 3.931h5.615l-.836-3.932c1.542-.792 2.424-2.246 2.467-3.967-.032-2.493-1.964-4.37-4.438-4.431l-.228.005zm.083-.023h-.014.014z"/></svg>