<svg version="1.1" id="Layer_1" xmlns="http://www.w3.org/2000/svg" xmlns:xlink="http://www.w3.org/1999/xlink" x="0px" y="0px" viewBox="1.0000020265579224 1.0000050067901611 237 212" enable-background="new 0 0 237 212" xml:space="preserve">
<path fill="#81B5A1" opacity="1.000000" stroke="none" d="
M186.690277,207.993378 
	C178.568802,210.151840 172.048050,207.620773 165.745514,203.226593 
	C136.948273,183.148956 101.587234,182.414902 72.318108,200.858093 
	C67.635216,203.808899 62.546394,206.465668 57.281963,208.055328 
	C50.599739,210.073120 44.378723,207.504425 39.381046,202.929276 
	C19.592230,184.813553 7.923464,162.148071 4.156876,135.798660 
	C-0.818212,100.995125 8.109236,69.683121 31.102779,42.986397 
	C50.434345,20.541426 75.135948,7.229887 104.688866,3.961604 
	C143.893021,-0.374018 176.753342,12.994722 203.112091,41.832985 
	C220.952530,61.351604 230.553467,84.739609 232.169785,111.312607 
	C234.210434,144.862122 223.331100,173.770111 200.752762,198.296310 
	C197.064285,202.303009 191.686859,204.754883 186.690277,207.993378 
M69.598068,151.830597 
	C88.732834,180.040451 127.385536,182.359192 149.884460,166.766373 
	C171.260529,151.951706 178.459106,130.920776 173.806595,106.081696 
	C169.433868,82.736259 154.994308,67.227188 132.044052,61.235481 
	C108.723091,55.146996 88.739433,62.052460 72.833084,80.287170 
	C56.923485,98.525604 55.221302,130.819382 69.598068,151.830597 
z"></path>
</svg>