<?xml version="1.0" encoding="utf-8"?>
<!-- Generator: Adobe Illustrator 25.4.1, SVG Export Plug-In . SVG Version: 6.00 Build 0)  -->
<svg version="1.1" id="Layer_1" xmlns="http://www.w3.org/2000/svg" xmlns:xlink="http://www.w3.org/1999/xlink" x="0px" y="0px"
	 viewBox="0 0 148.56 147.75" style="enable-background:new 0 0 148.56 147.75;" xml:space="preserve">
<style type="text/css">
	.st0{fill-rule:evenodd;clip-rule:evenodd;fill:#0873F6;}
</style>
<path class="st0" d="M74.28,0C33.26,0,0,33.26,0,74.28c0,37.07,27.16,67.8,62.67,73.37V94.12H44.23V72.47h18.55v-1.63
	c-0.01-4.35-0.09-8.7,0.01-13.05c0.07-2.77,0.2-5.59,0.67-8.32c1.16-6.61,4.2-12.2,9.73-16.18c4.83-3.46,10.36-4.88,16.2-5.01
	c3.83-0.09,7.66,0.1,11.48,0.27c2.08,0.1,4.17,0.39,6.16,0.59v19.38c-0.62,0-1.08,0-1.54,0c-3.74,0.01-7.46-0.09-11.19,0.04
	c-5.11,0.18-8.89,2.13-9.08,8.51c-0.13,4.66-0.18,15.39-0.18,15.39s12,0.02,17.23,0c1.33,0,2.66,0,4.13,0
	c-0.97,7.43-1.89,14.56-2.83,21.76H85.21v53.54c35.84-5.29,63.35-36.17,63.35-73.48C148.56,33.26,115.3,0,74.28,0z"/>
</svg>
