<svg
   xmlns:dc="http://purl.org/dc/elements/1.1/"
   xmlns:cc="http://creativecommons.org/ns#"
   xmlns:rdf="http://www.w3.org/1999/02/22-rdf-syntax-ns#"
   xmlns:svg="http://www.w3.org/2000/svg"
   xmlns="http://www.w3.org/2000/svg"
   xmlns:sodipodi="http://sodipodi.sourceforge.net/DTD/sodipodi-0.dtd"
   xmlns:inkscape="http://www.inkscape.org/namespaces/inkscape"
   version="1.1"
   id="svg2"
   xml:space="preserve"
   viewBox="0 0 538.38666 566.08002"
   sodipodi:docname="the-vector-converter-1250-ZkRwBXWAPlTpZxLa.eps"><metadata
     id="metadata8"><rdf:RDF><cc:Work
         rdf:about=""><dc:format>image/svg+xml</dc:format><dc:type
           rdf:resource="http://purl.org/dc/dcmitype/StillImage" /></cc:Work></rdf:RDF></metadata><defs
     id="defs6" /><sodipodi:namedview
     pagecolor="#ffffff"
     bordercolor="#666666"
     borderopacity="1"
     objecttolerance="10"
     gridtolerance="10"
     guidetolerance="10"
     inkscape:pageopacity="0"
     inkscape:pageshadow="2"
     inkscape:window-width="640"
     inkscape:window-height="480"
     id="namedview4" /><g
     id="g10"
     inkscape:groupmode="layer"
     inkscape:label="ink_ext_XXXXXX"
     transform="matrix(1.3333333,0,0,-1.3333333,0,566.08)"><g
       id="g12"
       transform="scale(0.1)"><path
         d="m 2146.12,854.609 h -79.7 V 1093.7 h -65.87 v 67.49 h 211.43 v -67.49 h -65.86 V 854.609"
         style="fill:#0b5c95;fill-opacity:1;fill-rule:nonzero;stroke:none"
         id="path14" /><path
         d="m 2445.34,1042.87 v 118.32 h 79.7 V 854.609 h -79.7 V 980.25 H 2330.27 V 854.609 h -79.69 v 306.581 h 79.69 v -118.32 h 115.07"
         style="fill:#0b5c95;fill-opacity:1;fill-rule:nonzero;stroke:none"
         id="path16" /><path
         d="m 2656.71,1023.76 h 7.74 c 26.01,0 55.28,4.88 55.28,38.22 0,33.34 -29.27,38.22 -55.28,38.22 h -7.74 z m 175.26,-169.151 h -99.22 l -75.22,117.911 h -0.82 V 854.609 h -79.69 v 306.581 h 119.14 c 60.58,0 106.53,-28.87 106.53,-94.33 0,-42.29 -23.59,-78.88 -67.1,-86.61 l 96.38,-125.641"
         style="fill:#0b5c95;fill-opacity:1;fill-rule:nonzero;stroke:none"
         id="path18" /><path
         d="m 2946.19,854.609 h -79.7 v 306.581 h 79.7 V 854.609"
         style="fill:#0b5c95;fill-opacity:1;fill-rule:nonzero;stroke:none"
         id="path20" /><path
         d="m 3077.9,1093.7 v -51.24 h 87.41 v -67.491 h -87.41 v -120.36 h -79.7 v 306.581 h 176.05 v -67.49 h -96.35"
         style="fill:#0b5c95;fill-opacity:1;fill-rule:nonzero;stroke:none"
         id="path22" /><path
         d="m 3353.55,854.609 h -79.7 V 1093.7 h -65.87 v 67.49 h 211.44 v -67.49 h -65.87 V 854.609"
         style="fill:#0b5c95;fill-opacity:1;fill-rule:nonzero;stroke:none"
         id="path24" /><path
         d="m 2192.47,655.02 c -14.64,12.191 -33.34,20.32 -52.86,20.32 -14.64,0 -34.15,-8.539 -34.15,-25.61 0,-17.89 21.54,-24.808 35.37,-29.281 l 20.33,-6.09 c 42.69,-12.609 75.62,-34.16 75.62,-83.757 0,-30.5 -7.31,-61.821 -31.71,-82.543 -24,-20.34 -56.11,-28.868 -87.02,-28.868 -38.62,0 -76.43,13.008 -107.75,34.95 l 34.16,64.25 c 19.92,-17.481 43.5,-31.711 70.75,-31.711 18.7,0 38.62,9.351 38.62,30.91 0,22.351 -31.3,30.082 -48.37,34.961 -50.02,14.238 -82.96,27.25 -82.96,86.597 0,62.211 44.32,102.872 105.72,102.872 30.91,0 68.71,-9.75 95.97,-25.2 l -31.72,-61.8"
         style="fill:#0b5c95;fill-opacity:1;fill-rule:nonzero;stroke:none"
         id="path26" /><path
         d="m 2408.32,639.148 h -0.81 l -32.93,-97.578 h 66.28 z m -55.7,-158.566 -21.14,-53.273 h -84.58 l 117.92,306.589 h 87 L 2567.3,427.309 h -84.98 l -19.92,53.273 h -109.78"
         style="fill:#0b5c95;fill-opacity:1;fill-rule:nonzero;stroke:none"
         id="path28" /><path
         d="m 2675.83,547.672 74.41,186.226 h 86.6 L 2705.91,427.309 h -61.8 l -128.9,306.589 h 86.61 l 74.01,-186.226"
         style="fill:#0b5c95;fill-opacity:1;fill-rule:nonzero;stroke:none"
         id="path30" /><path
         d="m 2955.94,427.309 h -79.69 v 306.589 h 79.69 V 427.309"
         style="fill:#0b5c95;fill-opacity:1;fill-rule:nonzero;stroke:none"
         id="path32" /><path
         d="m 3007.96,733.898 h 79.69 l 145.97,-187.437 h 0.81 v 187.437 h 79.7 V 427.309 h -79.7 l -145.97,187.863 h -0.81 V 427.309 h -79.69 v 306.589"
         style="fill:#0b5c95;fill-opacity:1;fill-rule:nonzero;stroke:none"
         id="path34" /><path
         d="m 3671.88,598.5 c -0.82,-44.73 -4.07,-82.949 -31.31,-121.18 -30.09,-41.879 -75.22,-60.172 -126.45,-60.172 -96.37,0 -163.46,65.473 -163.46,161.821 0,99.621 67.5,165.09 166.31,165.09 63.02,0 111.81,-28.45 138.24,-85.797 l -75.63,-31.711 c -10.98,29.281 -34.15,48.789 -66.28,48.789 -52.45,0 -79.69,-50.008 -79.69,-96.781 0,-47.559 28.47,-95.938 80.91,-95.938 34.56,0 60.99,17.879 64.25,53.258 h -65.06 V 598.5 h 158.17"
         style="fill:#0b5c95;fill-opacity:1;fill-rule:nonzero;stroke:none"
         id="path36" /><path
         d="m 3876.75,655.02 c -14.63,12.191 -33.35,20.32 -52.87,20.32 -14.64,0 -34.15,-8.539 -34.15,-25.61 0,-17.89 21.56,-24.808 35.37,-29.281 l 20.34,-6.09 c 42.69,-12.609 75.63,-34.16 75.63,-83.757 0,-30.5 -7.32,-61.821 -31.72,-82.543 -23.99,-20.34 -56.1,-28.868 -87.01,-28.868 -38.62,0 -76.45,13.008 -107.74,34.95 l 34.15,64.25 c 19.92,-17.481 43.5,-31.711 70.74,-31.711 18.71,0 38.62,9.351 38.62,30.91 0,22.351 -31.3,30.082 -48.38,34.961 -50.02,14.238 -82.95,27.25 -82.95,86.597 0,62.211 44.32,102.872 105.73,102.872 30.89,0 68.71,-9.75 95.95,-25.2 l -31.71,-61.8"
         style="fill:#0b5c95;fill-opacity:1;fill-rule:nonzero;stroke:none"
         id="path38" /><path
         d="m 2103.82,165.898 h 13.42 c 28.88,0 57.34,0 57.34,37.403 0,38.64 -26.44,39.031 -57.34,39.031 h -13.42 z m -79.69,140.684 h 121.99 c 65.86,0 111.41,-30.492 111.41,-100.832 0,-72.379 -39.04,-104.09 -108.57,-104.09 h -45.14 V 0 h -79.69 v 306.582"
         style="fill:#0b5c95;fill-opacity:1;fill-rule:nonzero;stroke:none"
         id="path40" /><path
         d="m 2372.55,67.5 h 95.54 V 0 h -175.24 v 306.582 h 79.7 V 67.5"
         style="fill:#0b5c95;fill-opacity:1;fill-rule:nonzero;stroke:none"
         id="path42" /><path
         d="m 2662.42,211.852 h -0.81 l -32.93,-97.59 h 66.28 z M 2606.71,53.2695 2585.58,0 H 2501 l 117.92,306.582 h 87 L 2821.41,0 h -84.99 l -19.92,53.2695 h -109.79"
         style="fill:#0b5c95;fill-opacity:1;fill-rule:nonzero;stroke:none"
         id="path44" /><path
         d="m 2854.29,306.582 h 79.7 l 145.98,-187.441 h 0.8 v 187.441 h 79.69 V 0 h -79.69 L 2934.8,187.852 h -0.81 V 0 h -79.7 v 306.582"
         style="fill:#0b5c95;fill-opacity:1;fill-rule:nonzero;stroke:none"
         id="path46" /><path
         d="m 1389.48,3988.52 31.05,95.61 -81.28,59.12 h 100.55 l 31.01,95.61 31.09,-95.61 h 100.53 l -81.35,-59.12 31.09,-95.61 -81.36,59.08 -81.33,-59.08"
         style="fill:#0b5c95;fill-opacity:1;fill-rule:nonzero;stroke:none"
         id="path48" /><path
         d="m 978.094,3743.42 31.086,95.63 -81.325,59.11 H 1028.4 l 31.02,95.63 31.08,-95.63 h 100.58 l -81.37,-59.11 31.06,-95.63 -81.35,59.11 -81.326,-59.11"
         style="fill:#0b5c95;fill-opacity:1;fill-rule:nonzero;stroke:none"
         id="path50" /><path
         d="m 645.5,3463.32 31.051,95.65 -81.321,59.12 h 100.547 l 31.032,95.61 31.097,-95.61 h 100.559 l -81.36,-59.12 31.075,-95.65 -81.371,59.12 -81.309,-59.12"
         style="fill:#0b5c95;fill-opacity:1;fill-rule:nonzero;stroke:none"
         id="path52" /><path
         d="m 374.137,3104.45 31.078,95.65 -81.344,59.11 h 100.574 l 31.016,95.61 31.102,-95.61 h 100.546 l -81.363,-59.11 31.074,-95.65 -81.359,59.12 -81.324,-59.12"
         style="fill:#0b5c95;fill-opacity:1;fill-rule:nonzero;stroke:none"
         id="path54" /><path
         d="m 172.809,2710.57 31.101,95.64 -81.363,59.1 h 100.574 l 31.035,95.64 31.082,-95.64 h 100.559 l -81.359,-59.1 31.078,-95.64 -81.36,59.11 -81.347,-59.11"
         style="fill:#0b5c95;fill-opacity:1;fill-rule:nonzero;stroke:none"
         id="path56" /><path
         d="m 67.7656,2255.46 31.0938,95.61 -81.3399,59.08 H 118.066 l 31.063,95.65 31.078,-95.65 h 100.551 l -81.371,-59.08 31.101,-95.61 -81.359,59.08 -81.3634,-59.08"
         style="fill:#0b5c95;fill-opacity:1;fill-rule:nonzero;stroke:none"
         id="path58" /><path
         d="M 50.2695,1791.54 81.3594,1887.18 0,1946.24 h 100.57 l 31.059,95.64 31.078,-95.64 h 100.551 l -81.371,-59.06 31.09,-95.64 -81.348,59.08 -81.3595,-59.08"
         style="fill:#0b5c95;fill-opacity:1;fill-rule:nonzero;stroke:none"
         id="path60" /><path
         d="m 146.555,1327.64 31.093,95.62 -81.3667,59.08 H 196.855 l 31.036,95.64 31.089,-95.64 h 100.563 l -81.363,-59.08 31.074,-95.62 -81.363,59.07 -81.336,-59.07"
         style="fill:#0b5c95;fill-opacity:1;fill-rule:nonzero;stroke:none"
         id="path62" /><path
         d="m 2696.74,2394.16 c -0.02,2.19 -1.05,54.72 -52.49,54.72 h -158.63 l 0.02,-26.26 c 0,0 63.26,0 110.03,0 v -28.66 h 101.19 l -0.12,0.2"
         style="fill:#0b5c95;fill-opacity:1;fill-rule:nonzero;stroke:none"
         id="path64" /><path
         d="m 3875.72,1967.99 c 0,0 -86.02,172.83 -258.45,173.25 -6.68,13.07 -100.1,187.83 -313.38,182.72 h -133.33 c -46.77,64.82 -145.62,169.41 -296.81,169.41 -63.55,71.21 -134.36,112.53 -198.97,136.86 -18.3,28.93 -29.11,63.17 -29.11,103.76 0,270.13 321.52,407.76 321.52,652.17 0,244.4 -293.83,374.32 -479.74,387.18 0,0 257.27,-36.02 257.27,-172.37 0,-136.34 -444.95,-253.4 -444.95,-564.7 0,-134.24 39.53,-264.36 133.36,-369.01 -135.24,6.94 -435.69,51.17 -435.69,307.19 0,330.37 393.22,498.7 393.22,797.6 0,298.91 -359.36,457.8 -586.73,473.53 0,0 314.64,-44.04 314.64,-210.8 0,-166.76 -544.17,-309.92 -544.17,-690.63 0,-364.56 237.59,-704.54 913.91,-732.73 v -0.06 c 4.75,-0.03 9.33,-0.29 13.98,-0.48 3.15,-0.11 6.23,-0.26 9.4,-0.36 229.63,-14.6 311.54,-214.88 311.54,-214.88 260.25,0 199.31,-192.7 199.31,-192.7 -881.21,0 -1024.52,-871.34 -1024.52,-871.34 l 565.52,-0.05 c 0,0 52.71,749.5 837.83,749.5 0,0 45.92,145.52 -112.93,183.61 h 35.21 c 172.86,0 258.64,-174.14 258.64,-174.14 205.35,0 157.26,-152.06 157.26,-152.06 -695.34,0 -784.01,-606.91 -784.01,-606.91 h 461.19 c 0,0 -3.28,484.37 616.24,484.37 0,0 48.09,152.07 -157.25,152.07"
         style="fill:#0b5c95;fill-opacity:1;fill-rule:nonzero;stroke:none"
         id="path66" /></g></g></svg>
