<svg
   xmlns:dc="http://purl.org/dc/elements/1.1/"
   xmlns:cc="http://creativecommons.org/ns#"
   xmlns:rdf="http://www.w3.org/1999/02/22-rdf-syntax-ns#"
   xmlns:svg="http://www.w3.org/2000/svg"
   xmlns="http://www.w3.org/2000/svg"
   xmlns:sodipodi="http://sodipodi.sourceforge.net/DTD/sodipodi-0.dtd"
   xmlns:inkscape="http://www.inkscape.org/namespaces/inkscape"
   version="1.1"
   id="svg2"
   xml:space="preserve"
   viewBox="0 0 538.38666 566.08002"
   sodipodi:docname="the-vector-converter-1250-aOJEdslJRwZJRzUw.eps"><metadata
     id="metadata8"><rdf:RDF><cc:Work
         rdf:about=""><dc:format>image/svg+xml</dc:format><dc:type
           rdf:resource="http://purl.org/dc/dcmitype/StillImage" /></cc:Work></rdf:RDF></metadata><defs
     id="defs6" /><sodipodi:namedview
     pagecolor="#ffffff"
     bordercolor="#666666"
     borderopacity="1"
     objecttolerance="10"
     gridtolerance="10"
     guidetolerance="10"
     inkscape:pageopacity="0"
     inkscape:pageshadow="2"
     inkscape:window-width="640"
     inkscape:window-height="480"
     id="namedview4" /><g
     id="g10"
     inkscape:groupmode="layer"
     inkscape:label="ink_ext_XXXXXX"
     transform="matrix(1.3333333,0,0,-1.3333333,0,566.08)"><g
       id="g12"
       transform="scale(0.1)"><path
         d="m 2146.12,854.609 h -79.7 V 1093.7 h -65.87 v 67.49 h 211.43 v -67.49 h -65.86 V 854.609"
         style="fill:#ffffff;fill-opacity:1;fill-rule:nonzero;stroke:none"
         id="path14" /><path
         d="m 2445.34,1042.87 v 118.32 h 79.69 V 854.609 h -79.69 V 980.25 H 2330.27 V 854.609 h -79.69 v 306.581 h 79.69 v -118.32 h 115.07"
         style="fill:#ffffff;fill-opacity:1;fill-rule:nonzero;stroke:none"
         id="path16" /><path
         d="m 2656.72,1023.76 h 7.72 c 26.03,0 55.3,4.88 55.3,38.22 0,33.35 -29.27,38.22 -55.3,38.22 h -7.72 z m 175.24,-169.151 h -99.21 l -75.22,117.911 h -0.81 V 854.609 h -79.7 v 306.581 h 119.14 c 60.58,0 106.53,-28.87 106.53,-94.33 0,-42.29 -23.59,-78.88 -67.1,-86.61 l 96.37,-125.641"
         style="fill:#ffffff;fill-opacity:1;fill-rule:nonzero;stroke:none"
         id="path18" /><path
         d="m 2946.18,854.609 h -79.69 v 306.581 h 79.69 V 854.609"
         style="fill:#ffffff;fill-opacity:1;fill-rule:nonzero;stroke:none"
         id="path20" /><path
         d="m 3077.9,1093.7 v -51.24 h 87.41 v -67.491 h -87.41 v -120.36 h -79.7 v 306.581 h 176.06 v -67.49 h -96.36"
         style="fill:#ffffff;fill-opacity:1;fill-rule:nonzero;stroke:none"
         id="path22" /><path
         d="m 3353.55,854.609 h -79.69 V 1093.7 h -65.88 v 67.49 h 211.44 v -67.49 h -65.87 V 854.609"
         style="fill:#ffffff;fill-opacity:1;fill-rule:nonzero;stroke:none"
         id="path24" /><path
         d="m 2192.47,655.02 c -14.64,12.191 -33.34,20.32 -52.87,20.32 -14.63,0 -34.15,-8.539 -34.15,-25.621 0,-17.879 21.55,-24.797 35.37,-29.27 l 20.33,-6.09 c 42.7,-12.621 75.64,-34.168 75.64,-83.757 0,-30.5 -7.32,-61.821 -31.72,-82.551 -24,-20.332 -56.11,-28.86 -87.02,-28.86 -38.62,0 -76.44,13.008 -107.75,34.95 l 34.16,64.25 c 19.92,-17.481 43.51,-31.711 70.75,-31.711 18.7,0 38.62,9.34 38.62,30.902 0,22.359 -31.3,30.09 -48.38,34.957 -50.01,14.242 -82.95,27.25 -82.95,86.609 0,62.211 44.32,102.872 105.72,102.872 30.91,0 68.71,-9.75 95.96,-25.2 l -31.71,-61.8"
         style="fill:#ffffff;fill-opacity:1;fill-rule:nonzero;stroke:none"
         id="path26" /><path
         d="m 2408.32,639.148 h -0.81 l -32.93,-97.578 h 66.27 z m -55.7,-158.566 -21.14,-53.273 h -84.58 l 117.92,306.582 h 87.01 L 2567.3,427.309 h -84.98 l -19.92,53.273 h -109.78"
         style="fill:#ffffff;fill-opacity:1;fill-rule:nonzero;stroke:none"
         id="path28" /><path
         d="m 2675.83,547.672 74.41,186.219 h 86.61 L 2705.91,427.309 h -61.8 l -128.89,306.582 h 86.6 l 74.01,-186.219"
         style="fill:#ffffff;fill-opacity:1;fill-rule:nonzero;stroke:none"
         id="path30" /><path
         d="m 2955.94,427.309 h -79.7 v 306.582 h 79.7 V 427.309"
         style="fill:#ffffff;fill-opacity:1;fill-rule:nonzero;stroke:none"
         id="path32" /><path
         d="m 3007.96,733.891 h 79.69 l 145.97,-187.442 h 0.81 v 187.442 h 79.7 V 427.309 h -79.7 L 3088.46,615.16 h -0.81 V 427.309 h -79.69 v 306.582"
         style="fill:#ffffff;fill-opacity:1;fill-rule:nonzero;stroke:none"
         id="path34" /><path
         d="m 3671.88,598.5 c -0.81,-44.73 -4.07,-82.949 -31.31,-121.18 -30.09,-41.879 -75.22,-60.172 -126.45,-60.172 -96.37,0 -163.46,65.461 -163.46,161.832 0,99.61 67.5,165.079 166.31,165.079 63.02,0 111.81,-28.457 138.24,-85.797 l -75.63,-31.711 c -10.98,29.281 -34.15,48.789 -66.28,48.789 -52.45,0 -79.7,-50.008 -79.7,-96.77 0,-47.57 28.47,-95.961 80.92,-95.961 34.56,0 60.99,17.891 64.25,53.27 h -65.06 V 598.5 h 158.17"
         style="fill:#ffffff;fill-opacity:1;fill-rule:nonzero;stroke:none"
         id="path36" /><path
         d="m 3876.75,655.02 c -14.64,12.191 -33.34,20.32 -52.86,20.32 -14.64,0 -34.15,-8.539 -34.15,-25.621 0,-17.879 21.54,-24.797 35.36,-29.27 l 20.34,-6.09 c 42.69,-12.621 75.63,-34.168 75.63,-83.757 0,-30.5 -7.32,-61.821 -31.72,-82.551 -23.99,-20.332 -56.11,-28.86 -87.01,-28.86 -38.63,0 -76.44,13.008 -107.75,34.95 l 34.15,64.25 c 19.92,-17.481 43.51,-31.711 70.75,-31.711 18.7,0 38.63,9.34 38.63,30.902 0,22.359 -31.31,30.09 -48.38,34.957 -50.02,14.242 -82.96,27.25 -82.96,86.609 0,62.211 44.32,102.872 105.72,102.872 30.91,0 68.71,-9.75 95.97,-25.2 l -31.72,-61.8"
         style="fill:#ffffff;fill-opacity:1;fill-rule:nonzero;stroke:none"
         id="path38" /><path
         d="m 2103.83,165.898 h 13.42 c 28.87,0 57.32,0 57.32,37.403 0,38.64 -26.43,39.039 -57.32,39.039 h -13.42 z m -79.7,140.692 h 121.99 c 65.86,0 111.41,-30.5 111.41,-100.84 0,-72.379 -39.04,-104.09 -108.57,-104.09 h -45.13 V 0 h -79.7 v 306.59"
         style="fill:#ffffff;fill-opacity:1;fill-rule:nonzero;stroke:none"
         id="path40" /><path
         d="m 2372.54,67.5 h 95.55 V 0 h -175.24 v 306.59 h 79.69 V 67.5"
         style="fill:#ffffff;fill-opacity:1;fill-rule:nonzero;stroke:none"
         id="path42" /><path
         d="m 2662.42,211.84 h -0.81 l -32.93,-97.578 h 66.27 z M 2606.72,53.2695 2585.58,0 H 2501 l 117.92,306.59 h 87.01 L 2821.41,0 h -84.99 l -19.92,53.2695 h -109.78"
         style="fill:#ffffff;fill-opacity:1;fill-rule:nonzero;stroke:none"
         id="path44" /><path
         d="m 2854.3,306.59 h 79.69 l 145.97,-187.449 h 0.81 V 306.59 h 79.7 V 0 h -79.7 L 2934.8,187.859 h -0.81 V 0 h -79.69 v 306.59"
         style="fill:#ffffff;fill-opacity:1;fill-rule:nonzero;stroke:none"
         id="path46" /><path
         d="m 1389.48,3988.52 31.05,95.61 -81.27,59.12 h 100.54 l 31.01,95.61 31.09,-95.61 h 100.53 l -81.36,-59.12 31.1,-95.61 -81.36,59.08 -81.33,-59.08"
         style="fill:#ffffff;fill-opacity:1;fill-rule:nonzero;stroke:none"
         id="path48" /><path
         d="m 978.094,3743.42 31.086,95.63 -81.321,59.11 H 1028.4 l 31.02,95.64 31.08,-95.64 h 100.58 l -81.37,-59.11 31.06,-95.63 -81.35,59.11 -81.326,-59.11"
         style="fill:#ffffff;fill-opacity:1;fill-rule:nonzero;stroke:none"
         id="path50" /><path
         d="m 645.5,3463.33 31.051,95.64 -81.321,59.12 h 100.551 l 31.028,95.61 31.097,-95.61 h 100.559 l -81.36,-59.12 31.075,-95.64 -81.371,59.11 -81.309,-59.11"
         style="fill:#ffffff;fill-opacity:1;fill-rule:nonzero;stroke:none"
         id="path52" /><path
         d="m 374.141,3104.45 31.074,95.65 -81.34,59.11 h 100.57 l 31.016,95.61 31.102,-95.61 h 100.55 l -81.367,-59.11 31.074,-95.65 -81.359,59.12 -81.32,-59.12"
         style="fill:#ffffff;fill-opacity:1;fill-rule:nonzero;stroke:none"
         id="path54" /><path
         d="m 172.809,2710.57 31.101,95.64 -81.367,59.1 h 100.574 l 31.039,95.63 31.086,-95.63 h 100.555 l -81.356,-59.1 31.071,-95.64 -81.356,59.11 -81.347,-59.11"
         style="fill:#ffffff;fill-opacity:1;fill-rule:nonzero;stroke:none"
         id="path56" /><path
         d="m 67.7656,2255.46 31.0938,95.62 -81.3399,59.07 H 118.066 l 31.063,95.65 31.074,-95.65 h 100.559 l -81.375,-59.07 31.101,-95.62 -81.359,59.08 -81.3634,-59.08"
         style="fill:#ffffff;fill-opacity:1;fill-rule:nonzero;stroke:none"
         id="path58" /><path
         d="m 50.2695,1791.54 31.086,95.64 L 0,1946.24 h 100.57 l 31.059,95.65 31.074,-95.65 h 100.555 l -81.371,-59.06 31.086,-95.64 -81.344,59.07 -81.3595,-59.07"
         style="fill:#ffffff;fill-opacity:1;fill-rule:nonzero;stroke:none"
         id="path60" /><path
         d="m 146.551,1327.64 31.097,95.62 -81.3667,59.08 H 196.859 l 31.036,95.64 31.085,-95.64 h 100.563 l -81.363,-59.08 31.078,-95.62 -81.363,59.07 -81.344,-59.07"
         style="fill:#ffffff;fill-opacity:1;fill-rule:nonzero;stroke:none"
         id="path62" /><path
         d="m 2696.75,2394.16 c -0.02,2.19 -1.06,54.72 -52.5,54.72 h -158.63 l 0.02,-26.26 c 0,0 63.27,0 110.03,0 v -28.66 h 101.19 l -0.11,0.2"
         style="fill:#ffffff;fill-opacity:1;fill-rule:nonzero;stroke:none"
         id="path64" /><path
         d="m 3875.72,1967.99 c 0,0 -86.02,172.83 -258.45,173.25 -6.68,13.07 -100.09,187.83 -313.38,182.72 h -133.32 c -46.77,64.82 -145.64,169.41 -296.83,169.41 -63.54,71.21 -134.35,112.53 -198.96,136.87 -18.3,28.92 -29.11,63.16 -29.11,103.75 0,270.13 321.53,407.76 321.53,652.17 0,244.4 -293.84,374.32 -479.75,387.18 0,0 257.27,-36.02 257.27,-172.37 0,-136.35 -444.95,-253.4 -444.95,-564.69 0,-134.25 39.54,-264.37 133.36,-369.02 -135.24,6.94 -435.69,51.17 -435.69,307.19 0,330.37 393.22,498.7 393.22,797.6 0,298.91 -359.37,457.8 -586.73,473.53 0,0 314.64,-44.05 314.64,-210.81 0,-166.75 -544.18,-309.91 -544.18,-690.62 0,-364.55 237.6,-704.53 913.92,-732.73 l -0.01,-0.06 c 4.76,-0.03 9.35,-0.29 13.99,-0.48 3.14,-0.11 6.23,-0.26 9.39,-0.36 229.65,-14.6 311.55,-214.88 311.55,-214.88 260.25,0 199.3,-192.7 199.3,-192.7 -881.2,0 -1024.51,-871.34 -1024.51,-871.34 l 565.52,-0.04 c 0,0 52.7,749.48 837.83,749.48 0,0 45.92,145.53 -112.93,183.63 h 35.21 c 172.86,0 258.65,-174.15 258.65,-174.15 205.34,0 157.25,-152.07 157.25,-152.07 -695.34,0 -784.01,-606.89 -784.01,-606.89 h 461.2 c 0,0 -3.28,484.36 616.23,484.36 0,0 48.09,152.07 -157.25,152.07"
         style="fill:#ffffff;fill-opacity:1;fill-rule:nonzero;stroke:none"
         id="path66" /></g></g></svg>
