<svg xmlns="http://www.w3.org/2000/svg" viewBox="0 0 256 102"><path d="M121.003 49.796v29.781h-9.448V6.031h25.058a22.657 22.657 0 0116.225 6.367 20.468 20.468 0 016.778 15.521 20.375 20.375 0 01-6.778 15.61c-4.381 4.178-9.79 6.265-16.225 6.261h-15.61v.006zm0-34.71v25.673h15.844a12.488 12.488 0 009.348-3.803 12.535 12.535 0 000-17.974 12.323 12.323 0 00-9.348-3.903h-15.844v.006zm60.384 12.528c6.983 0 12.496 1.866 16.537 5.598 4.041 3.733 6.06 8.85 6.056 15.352v31.013h-9.037v-6.983h-.41c-3.913 5.75-9.116 8.626-15.61 8.626-5.544 0-10.182-1.643-13.914-4.929a15.739 15.739 0 01-5.598-12.323c0-5.207 1.968-9.348 5.903-12.423 3.936-3.075 9.19-4.617 15.762-4.624 5.61 0 10.23 1.026 13.861 3.08v-2.16a10.756 10.756 0 00-3.902-8.361 13.38 13.38 0 00-9.12-3.445c-5.277 0-9.453 2.226-12.528 6.678l-8.321-5.24c4.577-6.573 11.35-9.859 20.321-9.859zm-12.223 36.56a7.547 7.547 0 003.133 6.16 11.525 11.525 0 007.342 2.465 15.064 15.064 0 0010.627-4.412c3.13-2.946 4.694-6.403 4.694-10.37-2.945-2.347-7.053-3.52-12.323-3.52-3.838 0-7.038.925-9.6 2.775-2.588 1.878-3.873 4.16-3.873 6.901zm86.691-34.917l-31.547 72.502h-9.753l11.707-25.368-20.745-47.134h10.27l14.993 36.148h.206l14.582-36.148h10.287z" fill="#5F6368"/><path d="M82.824 43.376c.004-2.88-.24-5.753-.727-8.591H42.25v16.273h22.822a19.559 19.559 0 01-8.439 12.84V74.46h13.62c7.975-7.353 12.57-18.227 12.57-31.084z" fill="#4285F4"/><path d="M42.251 84.665c11.402 0 21.003-3.744 28.004-10.199l-13.62-10.563c-3.792 2.57-8.674 4.038-14.384 4.038-11.02 0-20.374-7.43-23.72-17.44H4.502v10.885a42.251 42.251 0 0037.75 23.279z" fill="#34A853"/><path d="M18.532 50.5a25.316 25.316 0 010-16.173V23.442H4.5a42.251 42.251 0 000 37.944L18.53 50.5z" fill="#FBBC04"/><path d="M42.251 16.887a22.939 22.939 0 0116.208 6.338l12.06-12.06A40.596 40.596 0 0042.25.162 42.251 42.251 0 004.5 23.442l14.03 10.885c3.346-10.01 12.7-17.44 23.72-17.44z" fill="#EA4335"/></svg>