<svg xmlns="http://www.w3.org/2000/svg" version="1.0" viewBox="0 0 680 680">
  <circle cx="340" cy="340" r="340"/>
  <path fill="#fff" d="M339 25.5c-.5 1.3-1.8 4.1-2.8 6.2-6 11.7-2.3 18.3 15.8 28.7 15.1 8.7 19.4 11.8 22.8 16.1 2.8 3.7 3.2 4.9 3.2 10.4 0 3.4-.7 7.8-1.5 9.7-2.1 5-11.4 13.7-22.5 21-13.3 8.8-16.4 11.8-15.5 15.1 1.1 4.5 4.1 7.8 11.7 12.8 17 11.3 20.8 14.5 23.9 20.6 3.6 7.2 3.8 13.8.8 23-2.9 8.6-3.2 8.9-7.7 7.7-11.1-3-38.6-3.2-52.1-.4-5.7 1.2-6 1.2-4.9-.4.7-1 3.9-5.1 7-9.2 7.1-9.2 9.1-13.8 8.3-18.9-.8-4.6-2.2-6.2-10.4-12.3-8.1-5.9-12.5-11.6-14.5-18.7-1.7-5.9-1.5-7.7 1.8-12.2 3-4.1 9.1-7.6 29.1-16.8 21.5-9.9 24.9-12 28.1-17.4 2.1-3.6 2.3-4.7 1.4-7.1-1.6-4.2-3.4-5.9-14.5-13.7-16.9-11.9-23.7-19.4-23.7-26.2 0-4.7 2.3-8.5 9.2-14.8 6.7-6.3 8.5-7.1 7-3.2zm-195.2 97.9c6.7 3.5 12.1 12.8 12.2 20.8 0 2.6-1.1 8.2-2.5 12.5s-2.5 8.8-2.5 10c0 2.1 4.6 6.3 6.9 6.3 2.7 0 13.3-6.3 21.2-12.5 4.6-3.7 11.2-8.1 14.7-9.7 5.4-2.6 7.2-3 12.6-2.6 5.3.3 7.3 1 11.9 4 6.6 4.4 6.7 4.6 10.6 27.8 3.4 19.9 5.2 25.2 10.7 29.9 4.1 3.7 12.8 8.1 15.9 8.1 1.1 0 2.6.4 3.3.9 1.4.9-.6 2.8-10.7 10.6-5.8 4.4-18.7 19.2-23.3 26.7-1.6 2.6-3.4 4.8-4 4.8-2.8 0-12.9-6.6-16.2-10.6-6.5-7.7-8.2-22.6-5.1-43.9 2.1-14.5 2-19.7-.7-23-3.4-4.3-10-3.3-24.2 3.9-13.2 6.7-17.7 7.6-26.2 5.1-8.1-2.4-14.5-8.7-16.9-16.9-2.8-9.5-1.8-12.8 7.9-26.6 3.1-4.3 3.2-7.3.6-11-3.4-4.8-10.3-7.5-19.2-7.4-4.3 0-7.8-.3-7.8-.6 0-.4 3.2-2.3 7.1-4.3 6.2-3.2 8-3.7 14.1-3.7 4 0 8 .6 9.6 1.4zm387.5 11.7c3.4 1.1 9.2 3.8 12.9 6 3.7 2.3 10 5.2 14 6.7 6.2 2.2 8.8 2.6 17.3 2.4 10-.1 10-.1 7.5 1.9-3.5 2.8-11 6.5-14.6 7.3-3.8.8-15.1-1.6-25.9-5.6-9.2-3.4-12.4-3.6-18.2-1.3-3.6 1.4-4.7 2.6-7.3 7.8-4.1 8.2-3.9 12 1.5 28 2.5 7.4 4.5 15.2 4.5 17.3 0 7-7.2 15.8-13.9 17-1.9.4-8.7.3-15-.1-15.6-1-17.7-.9-21.3 1.2-7.6 4.4-11.8 15.4-11.8 30.9v6.9l-4.8-7.2c-6.3-9.5-19-22.7-31.4-32.6-5.8-4.7-6-6.3-1.2-14.3 11-18.3 27.3-24.9 48.3-19.5 4.6 1.2 10.6 2.2 13.5 2.3 11.5.3 13-2.4 12-21.5-.7-14.6.2-20.1 4.2-25.4 3.1-4.1 7.8-6.9 14.5-8.7 7.2-2 8-1.9 15.2.5zM360 204.5c14.1 2.1 26.1 5.9 39.5 12.5 41.4 20.4 68 59.6 72.3 106.5 4.5 47.8-19.8 96.1-61.3 122.3-11.3 7-27.4 13.5-41.5 16.7-11.6 2.6-39.5 3.2-51.2 1-51.7-9.5-91.1-46.1-104.4-97-3.5-13.4-3.6-14.8-3.8-31.5-.1-18.7.9-25.9 6.1-42.5 7.7-24.3 26.6-49.6 48.8-65.3 27.5-19.4 62.5-27.8 95.5-22.7zm188.6 90.4c5.8 2.6 8.9 7.2 19.7 28.3 5.2 10.3 10.5 20.2 11.8 22 11.1 16.2 18.4 15.2 39.6-5.4 14.2-13.7 17.2-15.4 24.6-13.8 2.8.6 6.4 1.9 8.1 3 3.8 2.3 11.2 9.8 10.4 10.5-.3.3-2.9-.6-5.9-2-6.7-3.1-10-3.1-16.4-.1-5.1 2.3-7.7 4.9-24.7 24.5C607 372 602.1 375 594.1 375c-15.5 0-28.8-8.8-36.6-24-4.2-8.3-11.8-20.1-13.5-21-3-1.6-6.2 2-14.4 16.4-4.2 7.3-9.6 15.6-12.1 18.4-7.9 8.8-17.5 10.7-31.4 6.1l-7.3-2.4.6-5.5c.3-3 1-7.8 1.5-10.5 1.3-6.9 1.3-32.3 0-38.4-1.7-8.3-1-9.2 3.5-4.7 4.9 4.9 13.8 9.1 19.1 9 6-.1 10-2.7 21-13.4 7.5-7.2 11.1-10 14-10.7 5.5-1.5 5.5-1.5 10.1.6zm-453 11.3c4.7 3.7 7 6.6 16.8 21.3 13.8 20.6 16.9 22.9 22.9 16.6 1.9-2 6.6-7.9 10.5-13.2 8.6-11.6 14.1-16.8 22.4-21.1 6.2-3.2 6.5-3.3 19-3.3 8 .1 13.2.5 13.9 1.2.8.8.8 3 0 8.1-2.2 14.2-.8 38.5 2.9 51.1.5 1.9.8 3.6.6 3.8-.1.2-3-1.9-6.3-4.5-7.2-5.8-12.8-8.2-20.5-8.9-6.8-.7-8.8.3-20.7 10.2-12.3 10.2-18.4 13.5-24.8 13.5-5.7 0-10.5-1.6-13.9-4.7-3.6-3.1-9-13.9-15.4-30.7-6.2-16.4-8.4-20.9-12-24.1-2.1-1.9-2.2-1.9-5.8 0-2 1.1-8.9 7.1-15.2 13.4C57.3 347.5 53.9 350 49.5 350c-3.8 0-14.4-5-17-8-2-2.3-2-2.3 1.5-1.6 9.1 1.9 14.4 2.5 15.5 1.8 3.4-2 7.8-6.6 15-15.7 4.3-5.4 10.7-12.7 14.1-16.2 5.5-5.6 6.6-6.3 10.1-6.3 2.7 0 5 .8 6.9 2.2zm136.1 116.6c7.3 9.1 21.9 23 28.6 27.1 2 1.2 3.7 2.7 3.7 3.3s-2.3 3.3-5.2 5.9c-7.9 7.5-10.9 8.1-36.8 7.3-24.7-.8-24.1-.9-26.5 8.4-1.4 5.2-1.2 7 2.3 22.2 3.6 15.4 4.5 23.8 3.1 28.9-3.6 13.4-8.7 15-37.4 11.6-15.6-1.8-21.9-1.4-26.7 1.8-5.4 3.7-7.1 7.8-7.7 18.6l-.6 9.6-2.3-8.1c-3.9-14.2-2.3-25.4 4.4-30.1 5.9-4.1 9.5-4.6 29.9-3.8 17 .6 19.3.5 20.5-1 1.7-2 .8-5.5-5.5-22.5-7.6-20.7-9.3-34.2-5.7-47.2s10-17.7 30.6-22.9c14.6-3.6 18.2-5.9 21.3-13.4 1-2.5 2.1-4.5 2.4-4.5s3.7 4 7.6 8.8zm234.7-1.6c6 7.9 6.6 14.5 2.9 37.2-1.2 8.1-1.3 10.9-.4 15.2 1.1 4.9 1.6 5.5 5.8 7.5 3.8 1.9 5.6 2.1 12.1 1.6 4.3-.3 12.5-1.5 18.3-2.7 10.1-2.2 10.7-2.2 14.1-.6 5.6 2.7 6.3 9.6 2.4 22.3-5.7 18.1-6.9 24.1-5.6 29.3 1.7 7.1 6.1 13.4 11.7 16.7 4.8 2.8 5 2.8 21.1 2.8 8.9-.1 16.2.3 16.2.7 0 1.3-7.2 4.5-14.1 6.4-8.7 2.4-28.6 2.4-34.7.1-13.8-5.3-16.6-13.7-12.6-38.8 2-12.3 1.6-12.9-7.7-13.6-5.8-.4-8.2.1-25.4 5.7-10.4 3.3-20.9 6.4-23.1 6.7-12.5 1.7-20.6-9.2-18.4-24.6 1.9-12.8 1.3-18.7-2.2-25.4-2.1-3.9-4.8-7.1-7.5-9.1-2.4-1.6-4.3-3.3-4.3-3.7 0-.5 4.2-3.9 9.3-7.7 10.1-7.6 19.2-16.1 28-26.4 5.5-6.4 6-6.7 8.2-5.5 1.3.6 4 3.3 5.9 5.9zm-93.6 51.5c-.2.5-1.6 3.3-3.2 6.3-3.8 7.2-5.7 15.1-4.5 19.2.4 1.7 2.4 5.8 4.4 9.1 4.3 7.1 5.4 11.8 5.5 21.6 0 12.9-4.5 18.5-22.1 27.2-18.3 9.2-23.7 13.7-25.9 21.8-1.6 6.1-.7 8.6 6.6 19.2 13.3 19 16.4 25.2 16.4 32.1 0 3.6-2.3 9.2-5.6 13.5-4 5.3-6 3.7-2.9-2.3 2-4 1.8-11.1-.5-16.2s-10.3-13.8-18.5-20c-18.2-13.9-22.2-19-21-27.1 1.3-8.4 5.3-13.6 19.4-25.4 6.6-5.5 8.8-8.1 10.7-12.4 2.4-5.4 3-9.8 1.6-11.9-.4-.7-3.8-4.7-7.7-8.9-8.7-9.6-11.9-14.9-14-23.7-1.3-5.1-1.6-8.8-1-14.4l.7-7.5 8.6.8c11.9 1.1 42.8.8 47.7-.5 5.2-1.3 5.7-1.4 5.3-.5zM416 288.6c-5.2 1-14.6 4.8-24.4 9.9-10 5.3-15.9 7.3-29.5 9.8-5.5 1.1-7.6 1.1-9.9.2-2.7-1.2-6.2-6.6-6.2-9.6 0-1-.3-1-1.2-.1s-.9 2.3.1 5.9c1.5 5.8 3.3 7.9 8 9.4 2 .6 6.5 3.1 10.1 5.5 7.6 5.1 13.5 6.5 23.5 5.5 11.6-1.2 19.2-6.6 21.6-15.4 2.8-10.4 3.5-12.1 6.2-14.1 2.3-1.7 4.3-2.1 10.5-2.1 4.2 0 9.1.6 10.9 1.4 6.2 2.6 5.7.4-.6-2.8s-13.4-4.5-19.1-3.5zm-16.2 20.9c.2 3.3-.2 4.5-2.5 6.7-5.1 4.9-9.2 5.8-22.5 5-2.9-.2-10.1-5.8-9.3-7.2.3-.5 2.3-1.1 4.5-1.5 3.4-.6 4.7-.2 8.7 2.4 2.5 1.7 4.9 3.1 5.2 3.1 1.7 0 7.1-4.2 7.1-5.4 0-2.6 2.2-6.5 3.9-6.9 3.6-1 4.6-.2 4.9 3.8zm-148.2-14.4c-8.3 1.3-8.3 3.2.1 2.4 4.3-.4 9.3-.2 12.7.5 6.6 1.4 8.7 3.7 10.5 12.3 2.2 10.3 8.8 15.6 21.8 17.5 11.2 1.6 18.5-.7 24.5-7.7 3.6-4.2 6.2-5.6 12-6.6 2.2-.3 4.2-1.4 4.8-2.5 1.7-3.2 1.2-4.2-1.2-2.6-1.2.9-4.2 1.6-6.5 1.6-5.5 0-22.3-4-33.3-7.9-22.4-7.9-31.7-9.3-45.4-7zm41.1 14.1c.7.6 1.3 1.9 1.3 2.8 0 1.8 5.6 6 8 6 .7 0 2.8-1.1 4.6-2.5 5.9-4.5 15.3-2.7 11.3 2.2-4.4 5.3-20.2 7.2-26.7 3.3-4.9-3-9.1-13.2-5.9-14.3 1.4-.5 5.5.9 7.4 2.5zm62.3 37c-2.5 1.3-4.7 3.1-4.9 4.2-.3 1.8-.1 1.8 2.7-.3 1.7-1.1 3.7-2.1 4.5-2.1 1.7 0 4.2 5.4 3.2 6.9-.3.6-.2 1.1.4 1.1 2.6 0 2.7-11.3.1-11.8-.8-.1-3.5.8-6 2zm63.5-.3c-.7 1.2.1 1.7 4.3 2.6 2.5.5 3.2 1.2 3.2 2.9 0 5.9-14.3 19.8-26.3 25.5-37.3 18-102 14.9-136.7-6.5-5.6-3.4-6-3.9-6-7.4 0-2-.3-3.9-.6-4.3-1.7-1.7-12.5 5-14.3 9-1.7 3.6-2.6 18.5-1.4 20.8.8 1.4 1.2.6 1.7-3.6 1.7-13.1 4.2-16.4 6.6-8.7 4 12.6 8.8 20.3 19.4 31 10.9 11.1 27 19.9 44.4 24.5 13.1 3.4 36.7 4.3 49.1 1.9 18.8-3.6 34-10.9 45.7-21.9 12-11.1 21-27.4 24.6-44.5 1.1-5.3 2.3-9.9 2.5-10.2 1-1 4.9 4.7 6.2 9 2.2 7.3 2.5 7.7 2.9 3.2.4-5.1-2.2-14.5-5-18.5-1.2-1.6-3.6-3.6-5.4-4.3-3.8-1.6-14-1.9-14.9-.5zm7.3 21.9c-1.4 10.3-11.9 28.3-23 39.5-8.8 8.9-14.3 12.7-24.5 17.1-13.8 5.9-20.1 7.1-36.5 6.9-18.2-.2-26.7-2.1-42.3-9.7-17.5-8.6-33.4-23.8-40.6-39.1-4.6-9.6-4.2-10.1 5.4-5 22.1 11.8 61.2 17 97.7 13.1 27.6-3 46.4-9.8 56.9-20.8 3.1-3.2 6-5.8 6.5-5.8s.6 1.7.4 3.8zm-99.6-19.7c-3.1 1.2-4.9 5.4-3.2 7.4 1.5 1.8 3 2 3 .2 0-.7.7-2.3 1.6-3.5 1.4-2.1 1.7-2.1 5.1-.7 4.4 1.9 5.7 1 2.3-1.5-3-2.3-6-2.9-8.8-1.9z"/>
</svg>
