<svg xmlns="http://www.w3.org/2000/svg" version="1.0" viewBox=".96 1.34 255.24 253.2">
  <path fill="#09a5ff" d="M149.2 4.2c-9.4 2.4-12 3.3-11.2 4.3.8.9.3 1.7-1.6 3l-2.7 1.7.7-2.7c.7-2.7.7-2.7-3.1-2-5.6 1.1-6.8 1.3-6.8 1.5 0 .1-.9.3-2 .4-5.8.8-8.5 1.9-9.1 3.8-.4 1.3-.9 1.7-1.3.9-.8-1.2-6.7-2.2-7.6-1.3-.3.3-1.3.7-2.2.8-6.2.9-6 .7-5.8 10.4.1 5-.2 9.3-.7 9.6-1.7 1.1-.7 3.4 1.7 4 2 .5 2.3.9 1.4 2-1.8 2.2-4.8 1.7-5.8-.9S89.3 34 88 34c-.5 0-1.2.9-1.5 2.1-.6 1.8-.8 1.8-1.8.5s-3.4-1.5-13.7-1.2c-6.9.2-12.5.4-12.5.5s-2.9.4-6.5.6c-17.3 1.3-29.7 5.1-38.3 11.9-4.8 3.8-9.5 11.2-11.3 17.8C.6 73.2.4 99 2.3 99c11.1.4 31.8.1 32.6-.4.6-.4 1.1-.3 1.1.1 0 1.4 8.4.2 10.4-1.6 1.8-1.5 1.9-1.5 1.4.5-.7 2.7 1.5 2.6 3.8-.2 1-1.3 1.7-1.5 2-.7.6 1.3 3.5.6 4.6-1.1.4-.6 1-.7 1.5-.3.4.5-.2 1.6-1.5 2.5-2.1 1.6-.5 1.7 27.4 1.5 16.3-.1 29.9-.5 30.2-.8s.7-3.5.8-7.2c.3-8.3 2.1-10.5 9.1-10.8 5.7-.3 8.6.9 10.4 4.1 1.8 3.5 1.6 9.7-.5 12.8-2.2 3.4-13.6 11.5-21.6 15.3-.8.4-4.9 2.7-9 5.1-4.1 2.5-9.5 5.6-12 7s-15.6 9-29.2 16.9S38.6 156 38 156c-.5 0-1 .4-1 1 0 .5-.7 1-1.5 1s-1.5.4-1.5 1c0 .5-.4 1-1 1-.5 0-5 2.4-10 5.3-5 2.8-9.8 5.6-10.8 6.2-1 .5-3.8 2.2-6.3 3.7l-4.5 2.7v20.8l.1 20.8 44.8.1 44.9.1.9-2.5c.7-1.9 1.3-2.2 2.1-1.4.7.7 2 1.2 3 1.2 2 0 2.5 1.6.7 2.2-.9.3-.9.9-.1 2.4s.8 2.4 0 3.2c-1.2 1.2-1.8 27.6-.7 29.3.3.6 2.4.6 5.5-.1 2.7-.7 6-1.4 7.4-1.6 1.4-.3 3.3-.7 4.2-1 1.8-.5 4.9-1.2 8.8-2 1.4-.2 3.1-.7 3.9-1 .8-.2 3-.7 5-1s6.1-1.2 9.3-2c3.1-.8 6.8-1.5 8.2-1.6s2.6-.5 2.6-.8 1-.6 2.3-.6c1.2-.1 4.1-.7 6.5-1.3l4.2-1.2.1-5.2c0-2.9.1-7.5.2-10.2l.2-5 16-.2c8.8-.1 19.5-.2 23.8-.2 6-.1 7.9-.4 8.2-1.6.3-.8.7-2.3 1-3.2.4-1.1.9-1.3 1.6-.6.8.8.6 1.8-.5 3.5-1.6 2.4-1.5 2.5.6 2.2 1.3-.1 2.5-.3 2.8-.4h18.9l18.3.1-.6-3.3c-.3-1.8-.8-4.4-1.1-5.8-1-5.2-2.5-13.4-2.5-13.8s-3.4.3-7.2 1.4c-1 .3-1.8.1-1.8-.5 0-.5 1.5-1.3 3.3-1.7 4.5-1.1 4.7-1.1 5-1.3.5-.2-3-18.1-3.6-18.8-.3-.3-18.8-.5-41.1-.5s-40.6-.3-40.6-.8c0-.4 3.7-2.7 8.3-5 4.5-2.4 10-5.3 12.2-6.5 2.2-1.3 7.6-4.2 12-6.5s8.2-4.5 8.5-4.9c.3-.3 1.9-1.3 3.5-2.1 1.7-.8 3.2-1.7 3.5-2s4.8-3 10-5.9c9.7-5.5 18.7-11.9 22.8-16.3 2.8-3.1 3.6-6.7 1.7-7.5-.8-.3-1.5-.9-1.5-1.5 0-1.2 2.6-3.8 3.7-3.8 1.2 0 1.6-5.4 1.6-21.5-.2-29.2.5-25.6-6.3-32.4-4.2-4.3-8.4-7.2-14.3-10-8.3-4.1-27.9-9.7-29.7-8.6-.6.3-1 .3-1-.2 0-.4-1-.9-2.2-1-1.3-.1-4.3-.4-6.8-.6-2.5-.3-9.2-.8-15-1.2s-10.7-.8-11-1-.5-8-.5-17.4c.2-20 2.1-18.4-16.3-13.9zM137 53c0 .5-.7 1-1.5 1s-1.5-.5-1.5-1c0-.6.7-1 1.5-1s1.5.4 1.5 1zM92 94.2c2.3.1 2.8.4 1.9 1.4-1.1 1.4-3.6 1.2-6.8-.6-2.7-1.4-2.7-2.3-.1-1.5 1.1.3 3.3.7 5 .7zm119.7 2.5c-.3.3-1.1.2-1.7-.2-.9-.6-.9-1 .1-1.6 1.4-.8 2.7.7 1.6 1.8zm-71.8 15c-1 2.8-5.9 8.2-5.9 6.6 0-.5.8-1.8 1.9-2.9 1-1.1 2.4-3 3-4.2 1.6-3.1 2.3-2.8 1 .5zm40.1 3.9c0 .8-.7 1.4-1.5 1.4s-1.5-.9-1.5-2c0-1.3.5-1.8 1.5-1.4.8.4 1.5 1.2 1.5 2zm-24.3 13.1c-.9.9-1.9 1.4-2.3 1.1-1-1 .6-2.8 2.4-2.8 1.5 0 1.5.1-.1 1.7zm57.9 0c-.3 2.2-3.8 2.4-4.3.3-.4-1.3-.3-1.3.6 0 .9 1.2 1.1 1.2 1.7-.3.8-2.2 2.3-2.2 2 0zm-120.8 1.2c.3.8-.1 1.2-.9.9-.7-.2-1.5-1-1.7-1.7-.3-.8.1-1.2.9-.9.7.2 1.5 1 1.7 1.7zm34.2.6c0 .9-.6 1.2-1.5.9-.8-.4-1.2-1-.9-1.5.8-1.4 2.4-1 2.4.6zm82.3 4c.4.8.2 1.7-.3 2-.6.4-1-.3-1-1.4 0-2.5.6-2.7 1.3-.6zm-49.4 52.4c1.4.9.4 1.9-1.6 1.5-.7-.1-1.7-.2-2.3-.3-.5 0-1-.6-1-1.1 0-1.2 3-1.3 4.9-.1zm78.1 11c0 .5-.7 1.4-1.5 2.1-1.3 1-1.5.9-1.5-.9 0-1.2.6-2.1 1.5-2.1.8 0 1.5.4 1.5.9zm-22 5.7c0 1.7-.8 1.8-2.4.1-1.8-1.7-.9-4.2 1-2.6.8.6 1.4 1.8 1.4 2.5zm18.4 1.6c-.7 1.1-5.1 1-5.8-.1-.3-.5 1-.9 2.8-.8 1.9 0 3.3.5 3 .9z"/>
</svg>
