<svg xmlns="http://www.w3.org/2000/svg" viewBox="101.65 123.8 389.15 500.52"><path d="M156.58 251.83V130.37c0-6.72.99-7.46 7.6-5.77 16.96 4.35 29.08 20.02 29.09 37.87.04 66.29.11 132.58.01 198.86-.05 36.7 13.24 66.99 43.3 88.66 59.75 43.07 144.59 10.35 160.13-61.46 12.59-58.18-26.15-115.16-85.18-124.14-32.92-5.01-61.8 4.77-86.23 27.45-1.96 1.82-3.76 3.79-6.46 4.51-6.37 1.69-11.72-2.99-11.74-10.46-.05-25.99-.02-51.98-.02-77.98 0-2.83.09-5.67-.02-8.5-.2-4.83.95-8.95 5.64-11.29 4.67-2.34 8.57-.72 12.42 2.22 14.63 11.19 30.69 19.79 47.88 26.37 14.46 5.53 29.74 6.61 44.8 9.17 53.97 9.19 91.75 39.7 109.72 91.1 19.44 55.61 7.3 106.11-34.67 147.59-31.94 31.56-71.58 44.02-116.2 37.58-59.07-8.53-105.39-53.07-117.28-111.58-1.96-9.65-2.78-19.42-2.77-29.27.02-36.49.01-72.98.01-109.47h-.03z" fill="#1a1e5e"/><path d="M207.52 366.45c-.33-48.79 39.63-88.96 88.64-89.11 48.44-.15 88.56 39.59 88.76 87.93.21 49.55-38.77 89.36-87.85 89.73-49.41.36-89.22-39-89.55-88.55z" fill="#1a1d5d"/><path d="M167.22 565.75c7.77 2.77 14.21 6.53 17.81 13.97 8.43 17.38-.11 36.96-18.58 42.28-4.98 1.44-10.08 2.09-15.27 2.08-14.99-.03-29.98-.1-44.96.07-3.34.04-4.56-.67-4.55-4.32.14-34.47.12-68.94.01-103.41-.01-3.27.91-4.28 4.2-4.25 15.65.15 31.31-.12 46.96.14 19.11.32 31.24 11.97 30.72 29.27-.28 9.26-4.41 16.54-12.22 21.65-1.23.79-2.48 1.52-4.12 2.52zm-30.79 5.33c-7.62 0-13.95.09-20.28-.04-2.6-.06-3.87.38-3.82 3.48.17 12.31.09 24.62.03 36.93-.01 2.38.49 3.58 3.29 3.54 12.49-.15 24.99.25 37.46-.23 8.11-.31 15.92-2.53 20.87-9.84 8.88-13.14 1.57-29.67-14.44-32.97-8.09-1.67-16.27-.49-23.11-.87zm-2.26-49.11v-.35c-6.16 0-12.31.07-18.47-.04-2.2-.04-3.4.42-3.38 2.96.08 11.64.06 23.27.03 34.91-.01 1.66.56 2.46 2.28 2.42 13.46-.27 26.99.99 40.38-.61 11.99-1.43 18.2-9.16 17.86-20.63-.32-10.86-6.72-17.52-18.76-18.56-6.6-.57-13.29-.1-19.94-.1z" fill="#212564"/><path d="M308.56 568.36c0-17.32.08-34.63-.08-51.95-.03-3.28.87-4.24 4.17-4.22 23.14.13 46.29.16 69.44-.02 3.84-.03 4.68 1.15 4.7 4.8.02 3.86-.94 5.06-4.97 5.01-19.31-.22-38.63.02-57.95-.2-4.03-.04-5.01 1.13-4.9 5.04.29 9.98.3 19.97-.03 29.94-.14 4.18 1.38 4.93 5.13 4.9 18.14-.16 36.29.09 54.43-.17 4.06-.06 4.58 1.38 4.52 4.84-.06 3.32-.37 4.97-4.51 4.92-18.31-.26-36.63-.05-54.95-.17-3.32-.02-4.69.68-4.61 4.38.23 11.64.24 23.3-.01 34.94-.09 3.94 1.42 4.58 4.93 4.56 20.31-.15 40.63.02 60.94-.17 3.69-.03 4.8.83 4.76 4.65-.04 3.7-.96 4.74-4.73 4.71-23.98-.18-47.96-.16-71.93-.02-3.42.02-4.49-.73-4.44-4.33.2-17.13.09-34.28.09-51.44z" fill="#1d2161"/><path d="M291.76 512.92c-7.74 7.36-15.02 14.32-22.34 21.23-8.23 7.76-16.42 15.57-24.82 23.14-2.6 2.35-2.49 3.68-.16 6.24 17.4 19.04 34.62 38.26 51.89 57.42.65.72 1.27 1.45 2.39 2.74-7.57.49-13.75 1.55-19.43-5.35-13.53-16.43-28.17-31.95-42.19-47.98-2.24-2.56-3.78-3.44-5.95-.32-.09.13-.26.21-.38.32-5.1 4.99-12.56 8.7-14.86 15.1-2.29 6.36-.66 14.13-.71 21.28-.03 4.66-.04 9.32.05 13.98.11 5.55-4.06 2.84-6.45 3.29-2.41.45-4.33.34-4.32-3.37.14-34.81.17-69.63-.02-104.44-.03-4.72 2.67-3.94 5.42-3.96 2.83-.02 5.54-.62 5.46 4.04-.27 15.31-.12 30.63-.13 45.94v9.18c5.12-3.44 8.69-7.52 12.58-11.19 14.15-13.38 28.55-26.52 42.18-40.42 6.08-6.17 12.26-9.15 21.79-6.87z" fill="#222564"/><path d="M395.27 623.83c8.72-12.24 16.98-23.86 25.27-35.46 4.35-6.09 8.63-12.24 13.21-18.16 2.25-2.91 2.39-4.96.09-8.11-11.3-15.44-22.29-31.12-33.39-46.71-.47-.67-.92-1.36-1.4-2.07 7.14-2.79 11.91-1.48 16.01 4.34 8.32 11.84 16.62 23.69 24.95 35.52.85 1.21 1.89 2.29 3.15 3.8 7.63-10.81 15.08-21.36 22.54-31.91 1.34-1.9 3.05-3.65 3.98-5.73 3.51-7.96 9.91-8.01 17.74-6.54-5.32 7.53-10.4 14.79-15.55 22-6.67 9.33-13.26 18.72-20.17 27.88-2.01 2.67-1.78 4.3.1 6.88 12.15 16.66 24.1 33.46 36.11 50.23.84 1.17 1.61 2.39 2.88 4.3-4.22 0-7.66-.09-11.09.03-2.57.09-3.27-1.93-4.38-3.5-10.34-14.69-20.66-29.39-30.99-44.08-.36-.51-.81-.96-1.49-1.77-8.66 12.32-17.16 24.4-25.66 36.49-.96 1.36-1.88 2.75-2.84 4.11-6.5 9.2-6.5 9.2-19.07 8.46z" fill="#212463"/></svg>