<svg viewBox="19.988435745239258 19.368000030517578 1041.0526123046875 1040.533935546875" version="1.1" xmlns="http://www.w3.org/2000/svg" xmlns:xlink="http://www.w3.org/1999/xlink" xml:space="preserve" xmlns:serif="http://www.serif.com/" style="fill-rule:evenodd;clip-rule:evenodd;stroke-linejoin:round;stroke-miterlimit:2;">
    <g>
        <g>
            <g transform="matrix(-1,-1.22465e-16,1.22465e-16,-1,1079.62,1079.27)">
                <path d="M454.932,19.418L623.763,19.368C653.007,90.862 671.307,182.017 682.013,285.954L539.751,414.328L398.085,285.967C406.616,175.361 427.043,88.446 454.932,19.418Z" style="fill:rgb(191,19,19);"></path>
            </g>
            <g transform="matrix(-1.83757e-16,1,-1.00263,-1.8412e-16,1080.46,0.149612)">
                <path d="M454.932,19.418L623.763,19.368C653.007,90.862 671.307,182.017 682.013,285.954L539.751,414.328L398.085,285.967C406.616,175.361 427.043,88.446 454.932,19.418Z" style="fill:rgb(191,19,19);"></path>
            </g>
            <path d="M454.932,19.418L623.763,19.368C653.007,90.862 671.307,182.017 682.013,285.954L539.751,414.328L398.085,285.967C406.616,175.361 427.043,88.446 454.932,19.418Z" style="fill:rgb(191,19,19);"></path>
            <g transform="matrix(6.12323e-17,-1,1,6.12323e-17,0.620435,1079.67)">
                <path d="M454.932,19.418L623.763,19.368C653.007,90.862 671.307,182.017 682.013,285.954L539.751,414.328L398.085,285.967C406.616,175.361 427.043,88.446 454.932,19.418Z" style="fill:rgb(191,19,19);"></path>
            </g>
        </g>
        <g>
            <path d="M112.768,373.172C158.261,362.387 204.054,355.677 251.702,352.332C269.067,319.001 300.151,288.127 348.96,255.077C357.447,188.618 366.474,144.972 373.24,116.141C265.367,153.2 177.05,235.912 112.768,373.172Z" style="fill:rgb(191,19,19);"></path>
            <g transform="matrix(6.12323e-17,-1,1,6.12323e-17,-1.82702,1079)">
                <path d="M112.768,373.172C157.348,364.567 203.442,357.139 251.702,352.332C284.703,305.57 314.248,276.018 348.96,255.077C357.447,188.618 366.474,144.972 373.24,116.141C261.139,157.84 170.824,242.744 112.768,373.172Z" style="fill:rgb(191,19,19);"></path>
            </g>
            <g transform="matrix(-1,-1.22465e-16,1.22465e-16,-1,1078.9,1081.87)">
                <path d="M112.768,373.172C157.348,364.567 203.442,357.139 251.702,352.332C284.703,305.57 314.248,276.018 348.96,255.077C357.447,188.618 366.474,144.972 373.24,116.141C261.139,157.84 170.824,242.744 112.768,373.172Z" style="fill:rgb(191,19,19);"></path>
            </g>
            <g transform="matrix(-1.83697e-16,1,-1,-1.83697e-16,1081.61,0.526435)">
                <path d="M112.768,373.172C157.348,364.567 203.442,357.139 251.702,352.332C284.703,305.57 314.248,276.018 348.96,255.077C357.447,188.618 366.474,144.972 373.24,116.141C261.139,157.84 170.824,242.744 112.768,373.172Z" style="fill:rgb(191,19,19);"></path>
            </g>
        </g>
    </g>
</svg>