<svg xmlns="http://www.w3.org/2000/svg" viewBox="0 0 512 155"><path d="M21.341 73.403H.91V48.25h21.01v-6.388C21.919 10.92 35.989.139 63.744.139c7.517 0 13.298 1.199 17.731 1.996L79.354 26.89c-2.89-.998-5.78-1.598-10.984-1.598-8.867 0-12.336 6.388-12.336 16.57v6.389h24.67v25.152h-24.67v78.852H21.341V73.403M98.82 2.534h34.693v149.719H98.82V2.534zm64.373 2.396h34.693v26.35h-34.693V4.93zm0 43.321h34.693v104.004h-34.693V48.25zM302.16 77.993c-6.36-3.991-12.721-5.787-21.008-5.787-15.035 0-26.599 10.778-26.599 28.745 0 16.57 13.493 27.347 28.53 27.347 7.898 0 15.8-1.794 21.583-4.99l.772 26.75c-8.674 2.996-19.081 4.594-28.333 4.594-33.153 0-58.402-19.964-58.402-54.3 0-34.534 25.25-54.498 58.402-54.498 10.407 0 19.659 1.798 27.56 5.789l-2.506 26.35m17.736-75.459h34.69V91.97h.388l28.91-43.718h37.97l-34.888 47.71 37.779 56.294h-42.02l-27.751-51.502h-.387v51.502h-34.691V2.535" fill="#385C9A"/><path d="M509.353 76.994c-3.852-1.196-7.71-1.196-11.756-1.196-16.19 0-25.25 12.177-25.25 32.54v43.917h-34.692V48.25h31.609v19.164h.387c5.973-13.177 14.647-21.561 29.682-21.561 4.042 0 8.283.6 11.756 1.198l-1.736 29.942" fill="#DB2176"/></svg>