<svg viewBox="0 0 360 354" fill="none" xmlns="http://www.w3.org/2000/svg">
<path fill-rule="evenodd" clip-rule="evenodd" d="M348.241 261.796C346.777 256.918 339.701 253.502 339.701 253.502C339.067 253.111 338.433 252.818 337.944 252.574C326.185 246.914 315.791 240.083 307.057 232.324C300.029 226.078 293.979 219.246 289.148 211.926C283.243 203.046 280.462 195.579 279.29 191.578C278.607 188.943 278.754 187.918 279.29 186.551C279.778 185.429 281.096 184.307 281.779 183.819C285.732 181.038 292.124 176.89 296.028 174.352C299.395 172.156 302.323 170.254 304.03 169.082C309.545 165.227 313.302 161.323 315.547 157.078C318.426 151.613 318.768 145.562 316.523 139.657C313.497 131.655 306.031 126.873 296.565 126.873C294.467 126.873 292.271 127.117 290.123 127.556C284.707 128.727 279.534 130.679 275.24 132.338C274.947 132.485 274.607 132.24 274.607 131.899C275.045 121.212 275.582 106.866 274.411 93.203C273.337 80.857 270.8 70.463 266.652 61.387C262.455 52.262 257.088 45.527 252.794 40.697C248.743 36.061 241.668 29.229 230.933 23.081C215.855 14.444 198.678 10.052 179.891 10.052C161.152 10.052 144.024 14.444 128.898 23.032C117.577 29.522 110.306 36.842 106.987 40.648C102.742 45.527 97.3259 52.262 93.1289 61.338C88.9809 70.414 86.4439 80.808 85.3699 93.154C84.1989 106.817 84.6869 120.041 85.1749 131.85C85.1749 132.192 84.8339 132.436 84.5409 132.289C80.2469 130.63 75.074 128.678 69.658 127.507C67.511 127.019 65.363 126.824 63.216 126.824C53.75 126.824 46.2839 131.606 43.2579 139.609C41.0139 145.562 41.355 151.564 44.234 157.029C46.479 161.275 50.2359 165.178 55.7509 169.033C57.4589 170.205 60.3859 172.108 63.7529 174.303C67.6079 176.792 73.8049 180.794 77.7579 183.624C78.2459 183.965 79.9049 185.234 80.4419 186.551C81.0269 187.966 81.1249 188.992 80.3929 191.773C79.1729 195.823 76.3919 203.191 70.5849 211.926C65.7539 219.246 59.7029 226.078 52.6759 232.324C43.8929 240.083 33.499 246.914 21.7879 252.574C21.2509 252.818 20.5669 253.16 19.8349 253.599C19.8349 253.599 12.8089 257.161 11.4909 261.796C9.53995 268.629 14.7119 275.021 20.0799 278.486C28.7659 284.097 39.3549 287.123 45.5029 288.733C47.2109 289.172 48.773 289.611 50.188 290.05C51.066 290.343 53.2619 291.172 54.2379 292.393C55.4089 293.906 55.5549 295.808 55.9939 297.956C56.6779 301.567 58.19 306.007 62.631 309.082C67.511 312.449 73.7559 312.692 81.6129 312.985C89.8599 313.278 100.107 313.717 111.818 317.572C117.235 319.378 122.164 322.403 127.873 325.917C139.779 333.236 154.614 342.361 179.939 342.361C205.265 342.361 220.197 333.187 232.201 325.868C237.861 322.403 242.741 319.378 248.061 317.621C259.772 313.766 270.019 313.376 278.266 313.034C286.122 312.741 292.368 312.498 297.248 309.13C302.03 305.861 303.397 300.932 304.03 297.223C304.372 295.419 304.616 293.759 305.641 292.393C306.52 291.221 308.569 290.441 309.545 290.099C311.009 289.66 312.57 289.221 314.376 288.733C320.524 287.074 328.186 285.171 337.555 279.852C348.632 273.508 349.412 265.652 348.241 261.796Z" fill="#FFFFFE"/>
<path fill-rule="evenodd" clip-rule="evenodd" d="M332.821 272.459C317.499 280.901 307.3 280.022 299.347 285.146C292.612 289.489 296.613 298.809 291.685 302.225C285.683 306.373 267.872 301.932 244.938 309.496C226.004 315.742 213.902 333.748 179.842 333.748C145.684 333.748 133.923 315.839 114.746 309.496C91.812 301.932 74.001 306.373 67.999 302.225C63.119 298.858 67.071 289.489 60.337 285.146C52.432 280.022 42.185 280.95 26.862 272.459C17.103 267.043 22.617 263.724 25.887 262.163C81.466 235.275 90.299 193.749 90.689 190.626C91.177 186.918 91.714 183.941 87.566 180.183C83.614 176.524 65.998 165.593 61.118 162.226C53.018 156.566 49.456 150.954 52.091 144.025C53.896 139.242 58.385 137.437 63.119 137.437C64.583 137.437 66.095 137.632 67.511 137.925C76.392 139.877 85.029 144.318 90.006 145.488C90.689 145.635 91.275 145.733 91.86 145.733C94.496 145.733 95.471 144.415 95.276 141.34C94.69 131.63 93.324 112.696 94.837 95.032C96.935 70.731 104.792 58.63 114.112 47.991C118.601 42.868 139.584 20.665 179.793 20.665C220.1 20.665 241.033 42.868 245.474 47.991C254.794 58.678 262.65 70.731 264.749 95.032C266.262 112.697 264.944 131.63 264.31 141.34C264.114 144.561 265.091 145.733 267.726 145.733C268.263 145.733 268.897 145.635 269.58 145.488C274.558 144.269 283.194 139.828 292.075 137.925C293.539 137.632 295.003 137.437 296.467 137.437C301.2 137.437 305.69 139.242 307.495 144.025C310.13 150.954 306.568 156.614 298.468 162.226C293.588 165.642 275.973 176.524 272.02 180.183C267.921 183.99 268.457 186.918 268.897 190.626C269.287 193.749 278.168 235.275 333.699 262.163C337.066 263.724 342.58 267.043 332.821 272.459ZM357.952 258.991C355.463 252.208 350.73 248.597 345.314 245.572C344.288 244.986 343.361 244.498 342.58 244.108C340.971 243.278 339.312 242.449 337.652 241.619C320.769 232.689 307.642 221.417 298.517 208.047C295.442 203.557 293.295 199.459 291.782 196.14C291.002 193.895 291.051 192.627 291.588 191.505C292.026 190.626 293.149 189.699 293.734 189.259C296.613 187.356 299.639 185.405 301.64 184.088C305.251 181.745 308.13 179.89 309.936 178.622C316.864 173.791 321.695 168.667 324.721 162.909C328.966 154.809 329.503 145.586 326.233 136.851C321.647 124.798 310.276 117.284 296.418 117.284C293.539 117.284 290.66 117.625 287.732 118.211C286.952 118.357 286.22 118.552 285.488 118.748C285.634 110.549 285.44 101.766 284.707 93.227C282.121 63.07 271.581 47.308 260.553 34.719C255.966 29.449 247.963 21.787 236.008 14.907C219.318 5.34296 200.386 0.511963 179.744 0.511963C159.152 0.511963 140.267 5.34296 123.53 14.907C111.477 21.787 103.523 29.497 98.936 34.719C87.908 47.308 77.368 63.119 74.781 93.227C74.049 101.815 73.854 110.549 74.001 118.748C73.269 118.552 72.488 118.406 71.756 118.211C68.877 117.576 65.949 117.284 63.07 117.284C49.26 117.284 37.842 124.798 33.255 136.851C29.985 145.537 30.523 154.809 34.768 162.909C37.793 168.667 42.624 173.791 49.553 178.622C51.408 179.89 54.238 181.745 57.849 184.088C59.801 185.356 62.68 187.211 65.461 189.064C65.9 189.357 67.413 190.479 67.901 191.505C68.486 192.724 68.486 193.993 67.657 196.384C66.193 199.653 64.046 203.655 61.069 208.047C52.14 221.125 39.355 232.201 23.056 241.034C14.419 245.621 5.44003 248.695 1.63403 258.991C-1.24497 266.798 0.658026 275.63 7.92903 283.096C10.32 285.683 13.346 287.927 17.103 290.026C25.984 294.955 33.597 297.345 39.55 299.005C40.575 299.297 43.014 300.078 44.088 301.005C46.723 303.298 46.333 306.812 49.895 311.936C52.042 315.108 54.482 317.303 56.531 318.67C63.948 323.794 72.244 324.087 81.076 324.428C89.03 324.72 98.058 325.062 108.403 328.478C112.697 329.893 117.137 332.626 122.261 335.797C134.656 343.41 151.54 353.803 179.842 353.803C208.145 353.803 225.175 343.361 237.569 335.749C242.692 332.626 247.084 329.893 251.232 328.527C261.528 325.111 270.556 324.769 278.559 324.476C287.391 324.135 295.687 323.842 303.104 318.718C305.446 317.108 308.325 314.473 310.667 310.472C313.205 306.177 313.156 303.103 315.547 301.054C316.523 300.224 318.67 299.444 319.792 299.102C325.794 297.443 333.455 295.052 342.531 290.026C346.533 287.83 349.705 285.39 352.145 282.609C352.193 282.56 352.193 282.56 352.242 282.511C359.074 275.191 360.782 266.554 357.952 258.991Z" fill="black"/>
</svg>
