<svg xmlns="http://www.w3.org/2000/svg" fill="none" viewBox="232.44 233.5 535.06 535"><g fill="#5aedc4"><path d="M 387.5,233.5 C 437.833,233.5 488.167,233.5 538.5,233.5C 538.5,258.833 538.5,284.167 538.5,309.5C 487.804,309.032 437.138,309.532 386.5,311C 342.224,322.276 316.39,350.442 309,395.5C 308.5,481.833 308.333,568.166 308.5,654.5C 283.167,654.5 257.833,654.5 232.5,654.5C 232.333,567.166 232.5,479.833 233,392.5C 238.418,330.452 267.918,283.952 321.5,253C 342.431,242.439 364.431,235.939 387.5,233.5 Z"/><path d="M 576.5,233.5 C 602.167,233.5 627.833,233.5 653.5,233.5C 653.5,258.833 653.5,284.167 653.5,309.5C 627.833,309.5 602.167,309.5 576.5,309.5C 576.5,284.167 576.5,258.833 576.5,233.5 Z"/><path d="M 691.5,233.5 C 716.833,233.5 742.167,233.5 767.5,233.5C 767.5,258.833 767.5,284.167 767.5,309.5C 742.167,309.5 716.833,309.5 691.5,309.5C 691.5,284.167 691.5,258.833 691.5,233.5 Z"/><path d="M 691.5,348.5 C 716.833,348.5 742.167,348.5 767.5,348.5C 767.5,373.833 767.5,399.167 767.5,424.5C 742.167,424.5 716.833,424.5 691.5,424.5C 691.5,399.167 691.5,373.833 691.5,348.5 Z"/><path d="M 691.5,463.5 C 716.833,463.5 742.167,463.5 767.5,463.5C 767.5,488.833 767.5,514.167 767.5,539.5C 742.167,539.5 716.833,539.5 691.5,539.5C 691.5,514.167 691.5,488.833 691.5,463.5 Z"/><path d="M 691.5,577.5 C 716.833,577.5 742.167,577.5 767.5,577.5C 767.5,603.167 767.5,628.833 767.5,654.5C 742.167,654.5 716.833,654.5 691.5,654.5C 691.5,628.833 691.5,603.167 691.5,577.5 Z"/><path d="M 232.5,692.5 C 257.833,692.5 283.167,692.5 308.5,692.5C 308.5,717.833 308.5,743.167 308.5,768.5C 283.167,768.5 257.833,768.5 232.5,768.5C 232.5,743.167 232.5,717.833 232.5,692.5 Z"/><path d="M 347.5,692.5 C 372.833,692.5 398.167,692.5 423.5,692.5C 423.5,717.833 423.5,743.167 423.5,768.5C 398.167,768.5 372.833,768.5 347.5,768.5C 347.5,743.167 347.5,717.833 347.5,692.5 Z"/><path d="M 462.5,692.5 C 487.833,692.5 513.167,692.5 538.5,692.5C 538.5,717.833 538.5,743.167 538.5,768.5C 513.167,768.5 487.833,768.5 462.5,768.5C 462.5,743.167 462.5,717.833 462.5,692.5 Z"/><path d="M 576.5,692.5 C 602.167,692.5 627.833,692.5 653.5,692.5C 653.5,717.833 653.5,743.167 653.5,768.5C 627.833,768.5 602.167,768.5 576.5,768.5C 576.5,743.167 576.5,717.833 576.5,692.5 Z"/><path d="M 691.5,692.5 C 716.833,692.5 742.167,692.5 767.5,692.5C 767.5,717.833 767.5,743.167 767.5,768.5C 742.167,768.5 716.833,768.5 691.5,768.5C 691.5,743.167 691.5,717.833 691.5,692.5 Z"/></g></svg>
