<svg clip-rule="evenodd" fill-rule="evenodd" stroke-linejoin="round" stroke-miterlimit="2" version="1.1" viewBox="0 0 500 499.99" xml:space="preserve" xmlns="http://www.w3.org/2000/svg">
    <g transform="scale(8.3332)">
        <rect width="60.001" height="60" fill="#00a0e3"/>
    </g>
    <g transform="scale(8.3332)">
        <path d="m26.01 17.685v10.982h-9.146v-10.982h-6.864v-7.686h22.862v7.686h-6.852z" fill="#fff" fill-rule="nonzero"/>
    </g>
    <g transform="scale(8.3332)">
        <path d="m37.607 17.676h11.826l-11.004 10.99 11.572 10.994h-11.814l-10.986-10.994 10.406-10.99z" fill="#fff" fill-rule="nonzero"/>
    </g>
    <g transform="scale(8.3332)">
        <path d="m14.912 43.684-0.124 0.914h-1.836v5.401h-1.109v-5.401h-1.96l0.116-0.914h4.913z" fill="#fff" fill-rule="nonzero"/>
    </g>
    <g transform="scale(8.3332)">
        <path d="m22.86 49.92c-0.196 0.059-0.387 0.102-0.572 0.128-0.186 0.027-0.384 0.04-0.59 0.04-0.403 0-0.736-0.051-1.003-0.155-0.266-0.103-0.479-0.251-0.638-0.443-0.16-0.192-0.274-0.422-0.342-0.687-0.068-0.267-0.102-0.562-0.102-0.888v-0.452c0-0.325 0.043-0.621 0.129-0.888 0.085-0.265 0.217-0.492 0.394-0.682 0.178-0.189 0.404-0.334 0.679-0.435 0.275-0.1 0.605-0.15 0.989-0.15 0.231 0 0.448 0.017 0.652 0.053 0.203 0.035 0.391 0.08 0.563 0.133l-0.177 0.78c-0.118-0.036-0.249-0.065-0.39-0.089-0.142-0.023-0.299-0.034-0.47-0.034-0.468 0-0.797 0.1-0.985 0.301-0.189 0.201-0.284 0.544-0.284 1.028v0.373c0 0.509 0.102 0.868 0.306 1.078 0.203 0.21 0.545 0.315 1.024 0.315 0.166 0 0.33-0.01 0.493-0.031s0.315-0.046 0.457-0.075l-0.133 0.78z" fill="#fff" fill-rule="nonzero"/>
    </g>
    <g transform="scale(8.3332)">
        <path d="m24.137 50v-6.511l1.083-0.151v2.458c0.146-0.165 0.333-0.291 0.558-0.378 0.224-0.085 0.472-0.128 0.745-0.128 0.248 0 0.474 0.032 0.678 0.097 0.205 0.066 0.38 0.165 0.528 0.298 0.149 0.132 0.263 0.3 0.346 0.501 0.083 0.2 0.125 0.437 0.125 0.709v3.105h-1.083v-2.811c0-0.373-0.068-0.637-0.204-0.795-0.135-0.156-0.364-0.235-0.682-0.235-0.35 0-0.605 0.091-0.768 0.275-0.163 0.183-0.243 0.476-0.243 0.878v2.688h-1.083z" fill="#fff" fill-rule="nonzero"/>
    </g>
    <g transform="scale(8.3332)">
        <path d="m29.574 50v-4.542l0.931-0.132 0.08 0.566c0.148-0.195 0.338-0.343 0.572-0.447 0.234-0.103 0.501-0.155 0.803-0.155 0.249 0 0.475 0.032 0.678 0.097 0.204 0.066 0.381 0.165 0.529 0.298 0.147 0.132 0.263 0.3 0.345 0.501 0.083 0.2 0.125 0.437 0.125 0.709v3.105h-1.083v-2.811c0-0.373-0.068-0.637-0.203-0.795-0.136-0.156-0.365-0.235-0.684-0.235-0.348 0-0.604 0.091-0.767 0.275-0.163 0.183-0.243 0.476-0.243 0.878v2.688h-1.083z" fill="#fff" fill-rule="nonzero"/>
    </g>
    <g transform="scale(8.3332)">
        <path d="m35.596 43.551c0.231 0 0.398 0.052 0.501 0.156 0.104 0.103 0.156 0.249 0.156 0.438 0 0.19-0.052 0.336-0.156 0.44-0.103 0.104-0.27 0.155-0.501 0.155-0.23 0-0.397-0.051-0.501-0.155s-0.154-0.25-0.154-0.44c0-0.189 0.05-0.335 0.154-0.438 0.104-0.104 0.271-0.156 0.501-0.156m-0.541 1.925 1.082-0.15v4.674h-1.082v-4.524z" fill="#fff" fill-rule="nonzero"/>
    </g>
    <g transform="scale(8.3332)">
        <path d="m38.642 47.884v2.116h-1.038v-6.511l1.038-0.15v3.747l1.775-1.689h1.223l-2.154 2.053 2.234 2.55h-1.268l-1.81-2.116z" fill="#fff" fill-rule="nonzero"/>
    </g>
    <g transform="scale(8.3332)">
        <path d="m49.921 46.337c-0.071-0.018-0.156-0.036-0.256-0.054-0.102-0.017-0.205-0.027-0.311-0.027-0.391 0-0.673 0.103-0.847 0.306-0.174 0.204-0.262 0.517-0.262 0.936v2.502h-1.083v-4.541l0.932-0.134 0.079 0.621c0.148-0.201 0.332-0.353 0.551-0.456 0.218-0.104 0.481-0.156 0.789-0.156 0.118 0 0.223 7e-3 0.316 0.022 0.091 0.015 0.186 0.04 0.287 0.076l-0.195 0.905z" fill="#fff" fill-rule="nonzero"/>
    </g>
    <g transform="scale(8.3332)">
        <path d="m16.644 34.639c0.231 0 0.397 0.052 0.501 0.155 0.104 0.104 0.156 0.25 0.156 0.439 0 0.19-0.052 0.335-0.156 0.439s-0.27 0.156-0.501 0.156-0.398-0.052-0.501-0.156c-0.104-0.104-0.155-0.249-0.155-0.439 0-0.189 0.051-0.335 0.155-0.439 0.103-0.103 0.27-0.155 0.501-0.155m-0.541 1.924 1.083-0.15v4.674h-1.083v-4.524z" fill="#fff" fill-rule="nonzero"/>
    </g>
    <g transform="scale(8.3332)">
        <path d="m10.153 34.772c0.046 0 1.985 1e-3 1.985 1e-3 0.532 0 0.973 0.069 1.322 0.211 0.348 0.142 0.627 0.338 0.833 0.59 0.208 0.252 0.352 0.55 0.435 0.897 0.083 0.345 0.125 0.722 0.125 1.131v0.646c0 0.42-0.045 0.803-0.134 1.149s-0.236 0.645-0.443 0.896c-0.207 0.252-0.486 0.447-0.838 0.585-0.352 0.14-0.788 0.209-1.309 0.209h-2.128v-6.157c0-0.088 0.085-0.158 0.152-0.158m0.956 5.392h0.931c0.278 0 0.522-0.032 0.732-0.097s0.384-0.173 0.524-0.324c0.138-0.15 0.244-0.354 0.315-0.607 0.071-0.254 0.106-0.572 0.106-0.949v-0.524c0-0.379-0.034-0.695-0.101-0.949-0.068-0.254-0.172-0.457-0.312-0.608-0.138-0.15-0.311-0.256-0.518-0.319-0.208-0.062-0.453-0.093-0.736-0.093h-0.941v4.47z" fill="#fff" fill-rule="nonzero"/>
    </g>
    <g transform="scale(8.3332)">
        <path d="m21.922 36.847c-0.332-0.314-0.802-0.47-1.411-0.47-0.367 0-0.681 0.053-0.944 0.16-0.263 0.106-0.481 0.257-0.652 0.452-0.172 0.195-0.298 0.428-0.377 0.701-0.08 0.272-0.12 0.573-0.12 0.904v0.373c0 0.366 0.036 0.687 0.11 0.963 0.074 0.275 0.199 0.506 0.373 0.696 0.174 0.189 0.403 0.331 0.683 0.426 0.281 0.094 0.628 0.142 1.043 0.142 0.13 0 0.263-5e-3 0.399-0.014 0.136-8e-3 0.269-0.022 0.399-0.04 0.129-0.018 0.25-0.039 0.359-0.062 0.11-0.024 0.206-0.051 0.289-0.08l0.142-0.772c-0.25 0.048-0.468 0.08-0.657 0.098s-0.382 0.027-0.577 0.027c-0.438 0-0.765-0.051-0.985-0.151-0.218-0.101-0.366-0.281-0.443-0.541l2.785-1.233c0.053-0.023 0.08-0.065 0.08-0.125v-0.123c0-0.574-0.165-1.017-0.496-1.331m-2.213 0.643c0.156-0.21 0.414-0.315 0.776-0.315 0.301 0 0.524 0.07 0.664 0.209 0.135 0.131 0.219 0.32 0.252 0.566l-1.927 0.858v-0.284c0-0.479 0.078-0.824 0.235-1.034" fill="#fff" fill-rule="nonzero"/>
    </g>
    <g transform="scale(8.3332)">
        <path d="m18.137 45.76c-0.333-0.314-0.803-0.471-1.412-0.471-0.366 0-0.681 0.053-0.944 0.161-0.263 0.106-0.48 0.257-0.652 0.452-0.171 0.195-0.297 0.428-0.376 0.701-0.081 0.272-0.12 0.573-0.12 0.904v0.373c0 0.366 0.036 0.687 0.11 0.962 0.074 0.276 0.198 0.508 0.373 0.697 0.174 0.189 0.402 0.331 0.682 0.426 0.282 0.094 0.629 0.142 1.043 0.142 0.13 0 0.263-5e-3 0.399-0.014s0.269-0.022 0.399-0.039c0.131-0.019 0.251-0.04 0.359-0.063 0.11-0.024 0.206-0.051 0.289-0.081l0.142-0.77c-0.249 0.047-0.468 0.079-0.657 0.098-0.189 0.017-0.381 0.025-0.576 0.025-0.437 0-0.766-0.05-0.984-0.15-0.22-0.101-0.367-0.282-0.445-0.541l2.786-1.233c0.053-0.024 0.08-0.066 0.08-0.125v-0.123c0-0.574-0.166-1.018-0.496-1.331m-2.214 0.643c0.157-0.21 0.415-0.315 0.777-0.315 0.301 0 0.523 0.069 0.665 0.209 0.133 0.131 0.217 0.32 0.251 0.565l-1.928 0.858v-0.284c0-0.479 0.078-0.823 0.235-1.033" fill="#fff" fill-rule="nonzero"/>
    </g>
    <g transform="scale(8.3332)">
        <path d="m45.576 45.76c-0.332-0.314-0.803-0.471-1.411-0.471-0.367 0-0.682 0.053-0.945 0.161-0.263 0.106-0.48 0.257-0.651 0.452-0.172 0.195-0.298 0.428-0.377 0.701-0.08 0.272-0.121 0.573-0.121 0.904v0.373c0 0.366 0.037 0.687 0.111 0.962 0.074 0.276 0.199 0.508 0.373 0.697s0.402 0.331 0.683 0.426c0.281 0.094 0.628 0.142 1.043 0.142 0.13 0 0.263-5e-3 0.399-0.014 0.135-9e-3 0.269-0.022 0.398-0.039 0.13-0.019 0.25-0.04 0.36-0.063 0.11-0.024 0.206-0.051 0.289-0.081l0.142-0.77c-0.25 0.047-0.468 0.079-0.657 0.098-0.189 0.017-0.382 0.025-0.577 0.025-0.438 0-0.765-0.05-0.984-0.15-0.22-0.101-0.368-0.282-0.444-0.541l2.785-1.233c0.053-0.024 0.08-0.066 0.08-0.125v-0.123c0-0.574-0.165-1.018-0.496-1.331m-2.214 0.643c0.157-0.21 0.415-0.315 0.777-0.315 0.301 0 0.523 0.069 0.664 0.209 0.135 0.131 0.219 0.32 0.252 0.565l-1.927 0.858v-0.284c0-0.479 0.078-0.823 0.234-1.033" fill="#fff" fill-rule="nonzero"/>
    </g>
</svg>
