<svg xmlns="http://www.w3.org/2000/svg" xmlns:vectornator="http://vectornator.io" xmlns:xlink="http://www.w3.org/1999/xlink" stroke-miterlimit="10" style="fill-rule:nonzero;clip-rule:evenodd;stroke-linecap:round;stroke-linejoin:round;" version="1.1" viewBox="0 0 800 800" xml:space="preserve">
<defs></defs>

<g clip-path="url(#ArtboardFrame)" id="Layer-1" vectornator:layerName="Layer 1">
<path d="M-2.08449-2.05857L803.888-2.05857L803.888 801.947L-2.08449 801.947L-2.08449-2.05857Z" fill="#ffffff" fill-rule="evenodd" opacity="1" stroke="none"></path>
<path d="M17.1462 313.896C17.1462 256.502 63.6736 209.974 121.068 209.974C178.463 209.974 224.99 256.502 224.99 313.896C224.99 371.291 178.463 417.818 121.068 417.818C63.6736 417.818 17.1462 371.291 17.1462 313.896Z" fill="#b7e1f3" fill-rule="evenodd" opacity="1" stroke="none"></path>
<path d="M98.504 459.422C98.504 379.124 163.598 314.03 243.896 314.03C324.193 314.03 389.287 379.124 389.287 459.422C389.287 539.72 324.193 604.814 243.896 604.814C163.598 604.814 98.504 539.72 98.504 459.422Z" fill="#ffffff" fill-rule="evenodd" opacity="1" stroke="none"></path>
<path d="M125.193 459.184C125.193 392.331 179.388 338.136 246.241 338.136C313.094 338.136 367.288 392.331 367.288 459.184C367.288 526.037 313.094 580.232 246.241 580.232C179.388 580.232 125.193 526.037 125.193 459.184Z" fill="#a2d7f0" fill-rule="evenodd" opacity="1" stroke="none"></path>
<path d="M150.621 234.043C150.621 119.795 243.238 27.1789 357.485 27.1789C471.733 27.1789 564.35 119.795 564.35 234.043C564.35 348.291 471.733 440.907 357.485 440.907C243.238 440.907 150.621 348.291 150.621 234.043Z" fill="#ffffff" fill-rule="evenodd" opacity="1" stroke="none"></path>
<path d="M181.534 233.95C181.534 138.638 258.8 61.3727 354.112 61.3727C449.424 61.3727 526.689 138.638 526.689 233.95C526.689 329.262 449.424 406.528 354.112 406.528C258.8 406.528 181.534 329.262 181.534 233.95Z" fill="#81cbea" fill-rule="evenodd" opacity="1" stroke="none"></path>
<path d="M313.936 457.498C313.936 320.391 425.083 209.244 562.19 209.244C699.297 209.244 810.444 320.391 810.444 457.498C810.444 594.605 699.297 705.753 562.19 705.753C425.083 705.753 313.936 594.605 313.936 457.498Z" fill="#ffffff" fill-rule="evenodd" opacity="1" stroke="none"></path>
<path d="M345.725 455.18C345.725 338.639 440.2 244.163 556.741 244.163C673.283 244.163 767.758 338.639 767.758 455.18C767.758 571.722 673.283 666.197 556.741 666.197C440.2 666.197 345.725 571.722 345.725 455.18Z" fill="#00a6dd" fill-rule="evenodd" opacity="1" stroke="none"></path>
</g>
</svg>
