<svg viewBox="0 0 128 128" xmlns="http://www.w3.org/2000/svg">
<path d="M58.463 127.082c-11.254-1.298-20.74-4.573-28.875-9.97C-11.66 89.75-8.415 29.077 35.463 7.232c4.95-2.465 10.343-4.787 11.985-5.162 2.87-.654 2.766-.438-2.704 5.606C30.647 23.254 24.3 47.916 30.02 64.892c3.967 11.78 12.354 21.84 21.82 26.174 6.464 2.96 17.824 2.94 24.342-.043 11.103-5.08 18.41-17.218 17.494-29.054-.998-12.888-8.15-21.988-21.105-26.85-8.3-3.12-11.18-5.41-13.713-10.9C55.48 16.906 56.74 9.53 62.237 4c.344-.346.7-.695 1.084-1.02C66.71.146 67.11.06 78.466 1.82c2.766.43 9.136 2.996 14.19 5.49 18.904 9.34 31.603 27.28 34.248 48.387.586 4.66 1.064 22.772 1.064 40.25v31.775l-6.75-.022c-10.575-.033-18.25-4.533-18.25-10.7 0-2.796-.43-2.82-4.075-.223-9.744 6.938-28.39 11.69-40.425 10.3z" fill="#f9f9f9"/></svg>