<svg viewBox="0 0.9000000357627869 111.0999984741211 110.0999984741211" version="1.1" xmlns="http://www.w3.org/2000/svg" xmlns:xlink="http://www.w3.org/1999/xlink" xml:space="preserve" xmlns:serif="http://www.serif.com/" style="fill-rule:evenodd;clip-rule:evenodd;stroke-linejoin:round;stroke-miterlimit:2;">
    <g id="Page-1">
        <g id="RSB-Logo-Color">
            <g id="Group-3">
                <path id="Fill-1" d="M55.6,111L0,56L55.6,0.9L111.1,55.9L55.6,111" style="fill:rgb(0,78,75);fill-rule:nonzero;"></path>
            </g>
            <path id="Fill-4" d="M17.8,92.7L93.2,92.7L93.2,18.3L17.8,18.3L17.8,92.7Z" style="fill:rgb(112,11,49);fill-rule:nonzero;"></path>
            <path id="Fill-5" d="M55.6,103.8L7.2,55.8L55.6,7.8L104.1,55.8L55.6,103.8" style="fill:white;fill-rule:nonzero;"></path>
            <path id="Fill-14" d="M34.2,55.8L35.7,55.8C39.3,55.8 40.4,54.1 40.4,51.7C40.4,48.6 39,47.3 36.2,47.3L34.2,47.3L34.2,55.8ZM34.2,62C34.2,64.4 34.2,65.1 37.1,65.1L37.1,65.6L26.7,65.6L26.7,65.1C29.6,65.1 29.6,64.3 29.6,62L29.6,49.9C29.6,47.5 29.6,46.7 26.7,46.7L26.7,46.2L37.9,46.2C42.5,46.2 45.5,47.9 45.5,51.7C45.5,54.2 43.4,56 40.9,56.5L46.1,63.5C46.9,64.6 47.3,65.2 48.5,65.2L48.5,65.7L42.1,65.7L35.6,56.8L34.2,56.8L34.2,62Z" style="fill:rgb(0,78,75);fill-rule:nonzero;"></path>
            <path id="Fill-15" d="M62.7,52.2L62.1,52.2C61.8,49.6 59.3,46.8 56.4,46.8C54.7,46.8 53,47.6 53,49.4C53,53.4 64,53.6 64,60.1C64,63.8 60.7,66.1 57.1,66.1C55.5,66.1 54.5,65.8 53.1,65.2C52.8,65.1 52.3,64.9 52,64.9C51.3,64.9 50.7,65.5 50.5,66L49.9,66L49.9,58.6L50.5,58.6C51,61.8 53.5,65 57,65C58.7,65 60.7,64 60.7,62.1C60.7,57.6 49.9,57.8 49.9,51.2C49.9,47.9 52.8,45.6 56.1,45.6C57.6,45.6 58.5,45.9 59.8,46.5C60.2,46.7 60.7,46.9 61.2,46.9C62,46.9 62.1,46.2 62.2,45.6L62.8,45.6L62.8,52.2" style="fill:rgb(0,78,75);fill-rule:nonzero;"></path>
            <path id="Fill-16" d="M73.3,62.7C73.3,64.1 73.6,64.6 75,64.6C77.5,64.6 79.2,62.9 79.2,60.5C79.2,59.3 78.9,56.1 74.2,56.1L73.3,56.1L73.3,62.7ZM73.3,55C77,55 78.5,53.6 78.5,51.1C78.5,50.2 78.1,47.3 74.2,47.3L73.3,47.3L73.3,55ZM68.6,49.9C68.6,47.5 68.6,46.7 65.7,46.7L65.7,46.2L76.3,46.2C83.5,46.2 83.5,50.4 83.5,51C83.5,53.7 81.1,54.8 78.9,55.3L78.9,55.4C81.8,55.9 84.6,57.1 84.6,60.4C84.6,62.4 83,65.7 75.7,65.7L65.7,65.7L65.7,65.2C68.6,65.2 68.6,64.4 68.6,62.1L68.6,49.9Z" style="fill:rgb(0,78,75);fill-rule:nonzero;"></path>
        </g>
    </g>
</svg>