<svg xmlns="http://www.w3.org/2000/svg" version="1.1" viewBox="17.499975204467773 16.456331253051758 364.02081298828125 367.0436706542969" style="shape-rendering:geometricPrecision; text-rendering:geometricPrecision; image-rendering:optimizeQuality; fill-rule:evenodd; clip-rule:evenodd" xmlns:xlink="http://www.w3.org/1999/xlink">
<path style="opacity:0.951" fill="#1ab393" d="M 197.5,16.5 C 199.989,16.2978 202.323,16.7978 204.5,18C 263.333,52.1667 322.167,86.3333 381,120.5C 381.833,173.503 381.667,226.503 380.5,279.5C 320.194,313.983 260.028,348.65 200,383.5C 139.186,348.76 78.5194,313.76 18,278.5C 17.3333,225.833 17.3333,173.167 18,120.5C 78.1417,86.1854 137.975,51.5187 197.5,16.5 Z M 198.5,61.5 C 246.608,88.7235 294.608,116.224 342.5,144C 343.659,163.76 343.826,183.593 343,203.5C 286.605,170.929 230.105,138.596 173.5,106.5C 163.728,111.762 154.062,117.262 144.5,123C 140.626,125.432 136.959,128.098 133.5,131C 133.759,132.261 134.426,133.261 135.5,134C 155.33,145.081 174.997,156.414 194.5,168C 184.179,180.819 173.512,193.319 162.5,205.5C 127.003,185.253 91.6696,164.753 56.5,144C 104.06,116.726 151.393,89.2258 198.5,61.5 Z M 231.5,190.5 C 234.691,191.092 237.691,192.259 240.5,194C 274.37,214.033 308.37,233.866 342.5,253.5C 295.864,281.49 248.864,308.99 201.5,336C 200.167,336.667 198.833,336.667 197.5,336C 150.415,308.374 103.249,280.874 56,253.5C 55.3333,233.833 55.3333,214.167 56,194.5C 109.915,225.54 163.748,256.707 217.5,288C 219.167,288.667 220.833,288.667 222.5,288C 233.833,280.667 245.167,273.333 256.5,266C 259.321,263.283 258.987,260.95 255.5,259C 237.301,248.737 219.301,238.237 201.5,227.5C 211.523,215.148 221.523,202.814 231.5,190.5 Z"/>
</svg>
