<svg version="1.0" xmlns="http://www.w3.org/2000/svg" viewBox="68 62.8 375 386.4"><path d="M254.2 74.6c-4.1 38.5-19.1 75.1-43.2 105.4-7.7 9.6-25.5 27.3-34.5 34.1-29.4 22.5-67.5 37.7-101.2 40.6-4 .3-7.3.9-7.3 1.3s3.3 1 7.3 1.3c33.7 2.9 71.8 18.1 101.2 40.6 9 6.8 26.8 24.5 34.5 34.1 9.8 12.3 16.3 22.7 23.6 37.5 10.7 22 17 43.9 19.7 68.4l1.2 11.3 1.3-11.8c4.1-38.5 19.1-75.1 43.2-105.4 7.7-9.6 25.5-27.3 34.5-34.1 29.4-22.5 67.5-37.7 101.2-40.6 4-.3 7.3-.9 7.3-1.3s-3.3-1-7.3-1.3c-33.7-2.9-71.8-18.1-101.2-40.6-9-6.8-26.8-24.5-34.5-34.1-9.8-12.3-16.3-22.7-23.6-37.5-10.7-22-17-43.9-19.7-68.4l-1.2-11.3-1.3 11.8z"/></svg>
