<svg xmlns="http://www.w3.org/2000/svg" viewBox="-0.5 -0.5 1226 1344" style="fill-rule:evenodd;clip-rule:evenodd"><path style="opacity:.992" fill="#f06e45" d="M119.5-.5h987c44.3 5.494 79.13 26.494 104.5 63 6.52 11.42 11.36 23.42 14.5 36v1146c-13.94 47.78-44.94 78.95-93 93.5-8.74 2.18-17.4 4.01-26 5.5h-987c-44.295-5.49-79.128-26.49-104.5-63-7.756-13.15-12.922-27.15-15.5-42v-1134c9.214-44.41 34.881-75.576 77-93.5 14.002-5.582 28.335-9.415 43-11.5Zm12 82c321-.167 642 0 963 .5 13.67 1.33 26 5.997 37 14 7.12 5.45 11.28 12.617 12.5 21.5.5 26.665.67 53.331.5 80H81.5c-.167-26.669 0-53.335.5-80 2.635-12.643 9.801-21.81 21.5-27.5 9.06-4.19 18.393-7.024 28-8.5Zm-50 199h289v419h83v-419h319v419h83v-419h289c.17 170 0 340-.5 510-154.664 110.383-327.498 166.05-518.5 167-202.203-2.452-383.37-64.452-543.5-186-.5-163.666-.667-327.333-.5-491Zm0 593c188.932 125.405 396.932 179.9 624 163.5 158.132-12.88 304.13-61.377 438-145.5 1.17 111.67 1.33 223.33.5 335-3.09 12.09-10.25 20.93-21.5 26.5a84.252 84.252 0 0 1-28 8c-321 .67-642 .67-963 0-16.564-1.51-30.731-8.01-42.5-19.5-3.673-4.35-6.006-9.35-7-15-.5-117.67-.667-235.333-.5-353Z"/></svg>