<svg clip-rule="evenodd" fill-rule="evenodd" stroke-linejoin="round" stroke-miterlimit="2" version="1.1" viewBox="6.082 0 493.92 500" xml:space="preserve" xmlns="http://www.w3.org/2000/svg">
    <g transform="matrix(7.8074 0 0 7.8074 6.082 0)" fill-rule="nonzero">
        <path d="m23.075 53.232h-10.747v-12.855c0-2.74 1.054-4.215 3.414-4.51h7.376c0.219-0.018 0.439-0.027 0.659-0.027 4.394 0 8.01 3.616 8.01 8.01 0 0.226-0.01 0.452-0.029 0.678 0 5.479-3.309 8.745-8.64 8.745l-0.043-0.041zm-10.768-34.75v-3.372c0-2.95 1.264-4.383 4.004-4.552h5.521c4.72 0 7.586 2.824 7.586 7.586 0 3.582-1.939 7.797-7.376 7.797h-9.694l-0.041-7.459zm24.53 12.855-1.939-1.096 1.686-1.475c1.981-1.686 5.268-5.521 5.268-12.117 0-10.116-7.839-16.649-19.957-16.649h-15.383c-3.609 0.124-6.48 3.069-6.512 6.68v57.32h22.169c13.487 0 22.169-7.334 22.169-18.713 0-6.111-2.803-11.38-7.544-14.014" fill="#273b7d"/>
        <path d="m47.837 56.308c0-4.278 3.435-7.734 7.692-7.734 4.242 3e-3 7.731 3.492 7.734 7.734 0 4.278-3.456 7.734-7.734 7.734s-7.692-3.456-7.692-7.734" fill="#499fdd"/>
    </g>
</svg>
