<svg xmlns="http://www.w3.org/2000/svg" viewBox="0 0 470 187"><g fill="#7B00FF"><path d="M433.144 113.202h-228.63v17.199H433.3c10.932 0 19.678 8.755 19.678 19.7 0 10.945-8.746 19.7-19.678 19.7H187.18V91H170v96h263.144C453.446 187 470 170.427 470 150.101s-16.554-36.899-36.856-36.899z"/><path d="M17.179 93.818c0-10.982 8.745-19.768 19.677-19.768h226.288C283.446 74.05 300 57.42 300 37.025S283.446 0 263.144 0h-93.389v39.535h17.179V17.257h76.21c10.932 0 19.677 8.786 19.677 19.768 0 10.982-8.745 19.768-19.677 19.768H36.856C16.554 56.793 0 73.423 0 93.818S16.398 131 36.856 131H152.42v-17.257H36.856c-10.932-.157-19.677-8.943-19.677-19.925z"/></g></svg>