<svg xmlns="http://www.w3.org/2000/svg" viewBox="0 0 560 694"><path d="M273.2 1.5c-3.9 1.7-5.7 3.6-17.7 18.5C245 33.1 243 34.9 222.9 50.5 206.4 63.4 201 68.8 201 72.6c0 1.4 2 8.7 4.5 16.2 7.6 23.4 8.1 29.7 3.9 44.2-1.5 5.2-2.7 10.5-2.6 11.7.2 3.2 6.1 13.3 7.7 13.3.8 0 6.5-1.3 12.7-2.9 11.2-2.9 14.6-3.6 22.3-4.7 2.2-.3 4.7-.8 5.5-1.1 2.6-1 37.2-1.1 44-.2 16.1 2.2 17.8 2.6 31.2 5.9 6.5 1.7 12.4 3 13 3 .7 0 2.8-2.9 4.6-6.5 3.9-7.4 3.9-7.4-1.5-23.5-5-14.6-4.8-18.7 1.2-36.5 2.6-7.7 4.7-15.9 4.8-18.3 0-3.8-.5-4.7-5-9.1-2.7-2.6-10.2-8.7-16.6-13.5-16.4-12.4-20.5-16.3-30.4-29C284.2.9 280.7-1.7 273.2 1.5ZM9.1 169.1c-2.5.5-4.9 1.3-5.4 1.8C.6 174-1.1 201.4 1 213.3c.5 2.3 1.1 6.1 1.4 8.4 1.5 11.4 7.1 26.7 12.6 34.7 8.6 12.6 15.7 16.1 34.5 17 6.1.3 12.1.8 13.5 1.1 7.3 1.4 12.9 3 16.2 4.6 2.1 1.1 3.9 1.9 4.2 1.9.3 0 3.4-5.9 7-13.1 10.7-21.3 20.6-35.5 35.8-51.5l8.9-9.3-6.3-4.7c-22.9-16.9-52.9-27.9-89.3-32.9-7.2-1-25.9-1.2-30.4-.4Zm521.7-.6c-.2.2-3.7.6-7.8.9-21.3 1.8-46.9 8.7-66.9 18.2-11.5 5.4-26 14.5-29.5 18.3-1.8 2-1.8 2.1 3.2 7.3 18.8 19.6 35.1 43.7 45.7 67.5 0 .1 3.9-1.1 8.5-2.7 9.9-3.4 12.7-3.9 27.5-4.6 6.1-.3 12.8-1 15-1.6 13.6-3.5 24.9-20.5 30-45 2.2-10.8 2.5-14.1 2.9-27.3.6-19.2-1.3-28.7-6.2-30.1-2.7-.7-21.8-1.5-22.4-.9Zm-262.1 10.1c-.1.1-2.9.4-6.2.7-3.3.3-8.2 1.1-11 1.6-2.7.6-6.1 1.3-7.5 1.6-24.3 4.7-52.6 17.9-73 34.1-8.2 6.5-20 18-27 26.4-3 3.6-5.8 6.7-6.1 7-.4.3-4.5 6.1-9.1 13-17.1 25.4-29.2 56.1-32.3 82.5-.3 2.7-.8 7-1.1 9.5-.9 7.9-1.1 37.2-.3 45 4.1 38 15.7 70.5 36.3 101.5 35.2 52.8 92.1 84.6 152.1 84.9 17.6.1 21.6-.3 35.4-3.3 44.6-9.8 83.2-36 110.2-74.6 20.1-28.8 28.4-50 34.9-89.7 4-24.3 4.4-50.7 1.1-69.8-.6-3-1.3-7.3-1.6-9.5-.9-6.6-5.4-23.3-9.2-34.5-8.7-25.6-23.6-49-45.8-72-6.5-6.8-10.4-10.3-19.9-18.1-13.3-10.9-39.9-24.4-58.1-29.3-19.4-5.3-29.6-6.8-49.5-7h-12.3Zm-196.1 302C52 494.2 34 520.4 24.2 551c-6.6 20.8-9.1 36-8.3 51.2.3 4.9 18.9 9.1 39.6 8.9 23.9-.3 43.6-6 54.7-16 7.2-6.4 9.6-12.2 12.3-29.4.4-2 1.5-6.7 2.5-10.4 2.1-7.7 2.6-6.5-6.6-17-12-13.7-23.4-31.4-33.4-51.6-2.9-5.9-5.3-10.7-5.4-10.7 0 .1-3.2 2.1-7 4.6Zm403.9-1.9c-.3 1.5-3.2 7.9-6.4 14.3-8.3 16.7-18.9 32.1-32.4 47.2l-6.9 7.7 2.7 11.8c1.4 6.5 3.2 14.6 4 18.1 3.4 14.7 15.1 23.8 38.2 29.7 9.1 2.3 17.9 3 35.8 3 16.8-.1 27.1-1.5 30.7-4.4 4.1-3.4 2.8-22.4-3.3-44.9-4-15-13.1-35.4-21.3-47.7-2.2-3.3-4.2-6.2-4.5-6.5-.3-.3-2.2-2.5-4.1-5-6.7-8.6-19.6-19.6-28.1-24.1l-3.7-1.8-.7 2.6ZM244.4 616.4c.3 3.9.7 8 1 9.1 1.6 7.5 3.3 12.9 5.9 19 13.5 31.1 43.1 51.1 73.1 49.2 10.8-.7 12.4-1 24.1-4.3 9.4-2.7 12.3-4.1 8.3-4.2-9.1-.1-21.4-5.7-28.8-13.2-11.1-11.2-16.3-27.7-16.4-51.6v-9.1l-2.6.7c-3.3.9-11 1.3-24 1.3-13.4.1-23.6-.8-36.9-3.3l-4.3-.8.6 7.2Z"/></svg>
