<svg version="1.0" xmlns="http://www.w3.org/2000/svg" preserveAspectRatio="xMidYMid meet" viewBox="0.21 -0.83 884.62 758.03">
    <g transform="translate(-308,1124) scale(0.1,-0.1)" fill="#000000" stroke="none">
      <path d="M7207 11239 c-1355 -87 -2613 -815 -3372 -1954 -62 -93 -139 -215
          -170 -269 -738 -1293 -778 -2886 -104 -4216 192 -380 434 -724 741 -1053 l73
          -79 3125 3137 c1719 1725 3126 3140 3128 3144 6 17 -301 286 -473 415 -846
          636 -1881 943 -2948 875z"></path>
      <path d="M9235 6633 c-946 -1620 -1721 -2950 -1723 -2955 -2 -4 700 -8 1561
          -8 l1564 0 90 97 c305 332 532 656 722 1033 715 1412 625 3104 -236 4430 -77
          118 -244 349 -253 349 -3 1 -779 -1325 -1725 -2946z"></path>
    </g>
</svg>