<svg viewBox="0 0 512 512" xmlns="http://www.w3.org/2000/svg">
 <g>
  <path d="m123.9 8.6608c46.948 27.106 287.13 165.23 329.87 189.9 42.74 24.676 39.91 90.574 6.6833 109.76-33.227 19.184-24.446 16.828-83.451 50.894-91.439 52.792-121.12-20.573-121.12-41.987 0-57.933 47.584-51.798 9.0564-74.042-38.528-22.244-121.28-68.382-174.6-101.27-53.321-32.883-63.97-38.778-63.97-78.761 0-39.983 50.581-81.605 97.529-54.499z" fill="#13a7e1"/>
  <path d="m26.374 63.278v383.4c0.78757 36.288 30.183 65.3 66.48 65.32 36.289-0.0305 66.013-29.04 66.8-65.32v-330.71z" fill="#ff7d11"/>
  <path d="m159.65 170.14v38.788c-32.226-18.606-26.992-14.481-69.31-40.441-53.321-32.883-63.97-39.52-63.97-79.503v-25.706c18.55 0 109.81 93.309 133.28 106.86z" fill="#6e7ba0"/>
  <path d="m123.9 8.6608c43.844 25.313 35.751 47.912 35.751 174.44-32.226-18.606-26.992-14.481-69.31-40.441-53.321-32.883-63.97-39.52-63.97-79.503 0-39.983 50.581-81.605 97.529-54.499z" fill="#202945"/>
 </g>
</svg>
