<svg xmlns="http://www.w3.org/2000/svg" viewBox=".132 .132 16.335 16.474"><g fill="#1a3258"><path d="m15.563 12.048c-.5 0-.905.375-.905.839 0 .462.405.837.905.837.499 0 .904-.375.904-.837 0-.464-.405-.839-.904-.839zm0 1.526c-.41 0-.742-.308-.742-.687 0-.38.332-.688.742-.688s.741.308.741.688c0 .379-.331.687-.741.687m-15.383-1.417v2.694c0 1.505.936 1.755 1.72 1.755 1.16 0 1.697-.753 1.697-1.77v-2.68h-.767v2.771c0 .35-.117 1.003-.93.99-.74-.013-.875-.68-.875-1.109v-2.651zm6.624.176s-.49-.238-1.047-.238c-.693 0-1.565.349-1.565 1.304 0 .662.497.975.835 1.136.18.086.398.182.578.277.093.05.462.172.462.563 0 .42-.468.562-.678.562-.748 0-1.258-.334-1.258-.334l.079.84s.306.153 1.221.155c.873-.003 1.502-.554 1.502-1.312 0-.583-.405-.929-.752-1.094-.272-.13-.43-.202-.667-.312s-.482-.299-.482-.592c0-.314.294-.54.725-.54.636 0 .891.282 1.047.37zm6.245-.183h-.92l.146.365-1.43 3.745-1.475-4.11h-.92l.146.365-1.524 3.993h.832l.266-.76h1.576l.265.76h1.573l.267-.76h1.575l.266.76h.922zm-4.672 3.007.612-1.706.546 1.706zm3.68 0 .61-1.706.547 1.706z"/><path d="m15.742 12.912s.18-.061.18-.224c0-.164-.165-.256-.367-.256s-.325.046-.325.046v.802h.24v-.293h.072l.254.29h.305zm-.16-.061h-.112v-.267s.199-.017.199.114c0 .134-.088.153-.088.153m-15.449-5.596.04 1.362s.34-.247.721-.247c.382 0 .812.27.812.27l3.413 1.957.289-1.23-3.702-2.124s-.43-.267-.812-.267c-.383 0-.76.28-.76.28"/><path d="m.132 5.475.04 1.362s.34-.247.721-.247c.382 0 .812.269.812.269l3.781 2.169.288-1.23-4.07-2.335s-.428-.268-.811-.268-.76.28-.76.28"/><path d="m.132 3.695.04 1.362s.34-.248.721-.248c.382 0 .812.27.812.27l4.15 2.38.288-1.23-4.438-2.546s-.43-.267-.812-.267c-.383 0-.76.279-.76.279"/><path d="m7.245 1.528.38 1.607 5.198 2.98s.408.268.81.268.761-.28.761-.28l-.04-1.362s-.325.247-.721.247c-.397 0-.81-.269-.81-.269l-4.021-2.306-.278-1.033c0-.044.04-.064.055-.067l.68-.21c.092 0 .145.078.145.143l.036.074c.025.013.127-.036.134-.04v-.408a.51.51 0 0 0 -.517-.51h-.68s-.1-.23-.389-.23h-1.292c-.34 0-.423.316-.423.316l-.897 3.562-3.671-2.106s-.398-.27-.812-.27-.76.28-.76.28l.039 1.363s.306-.247.72-.247.813.27.813.27l4.517 2.589z"/><path d="m7.727 3.576.38 1.614 4.716 2.704s.422.27.81.27.761-.281.761-.281l-.039-1.362s-.302.247-.722.247-.81-.268-.81-.268z"/><path d="m8.21 5.633.38 1.615 4.233 2.426s.422.269.81.269.761-.28.761-.28l-.04-1.362s-.3.247-.721.247c-.42 0-.81-.268-.81-.268z"/><path d="m8.695 7.692.378 1.612 3.75 2.15s.422.27.81.27c.387 0 .761-.281.761-.281l-.04-1.361s-.3.246-.721.246-.81-.269-.81-.269z"/></g></svg>