<svg xmlns="http://www.w3.org/2000/svg" viewBox="0 0 197.27 233.09"><defs><style>.cls-1{fill:#4F0599;}</style></defs><title>Scaleway</title><g id="Calque_2" data-name="Calque 2"><g id="Calque_1-2" data-name="Calque 1"><path class="cls-1" d="M90.21,179.94h38.41a17.42,17.42,0,0,0,15.31-16.45V108.08a13.32,13.32,0,1,0-26.64,0v35.21a10,10,0,0,1-10,10H89.88a13.32,13.32,0,0,0-13.31,13.5A13.53,13.53,0,0,0,90.21,179.94Z"/><path class="cls-1" d="M107.53,53.44H69.11A17.42,17.42,0,0,0,53.8,69.89v55.4a13.32,13.32,0,1,0,26.64,0V90.09a10,10,0,0,1,10-10h17.4a13.32,13.32,0,0,0,13.31-13.5A13.52,13.52,0,0,0,107.53,53.44Z"/><path class="cls-1" d="M114,26.64a56.67,56.67,0,0,1,56.61,56.6V192.1h0a17.44,17.44,0,0,1-14.95,14.34H83.27a56.63,56.63,0,0,1-56.63-56.63V44.15A17.51,17.51,0,0,1,44.15,26.64H114M114,0H44.15A44.15,44.15,0,0,0,0,44.15V149.82a83.27,83.27,0,0,0,83.27,83.27H157a44.14,44.14,0,0,0,40.28-39.25h0V83.24A83.24,83.24,0,0,0,114,0Z"/></g></g></svg>