<svg xmlns="http://www.w3.org/2000/svg" viewBox="0 0 197.27 233.09"><defs><style>.cls-1{fill:#4f0599}</style></defs><g id="Calque_2" data-name="Calque 2"><g id="Calque_1-2" data-name="Calque 1"><path class="cls-1" d="M90.21 179.94h38.41a17.42 17.42 0 0015.31-16.45v-55.41a13.32 13.32 0 10-26.64 0v35.21a10 10 0 01-10 10H89.88a13.32 13.32 0 00-13.31 13.5 13.53 13.53 0 0013.64 13.15zm17.32-126.5H69.11A17.42 17.42 0 0053.8 69.89v55.4a13.32 13.32 0 1026.64 0v-35.2a10 10 0 0110-10h17.4a13.32 13.32 0 0013.31-13.5 13.52 13.52 0 00-13.62-13.15z"/><path class="cls-1" d="M114 26.64a56.67 56.67 0 0156.61 56.6V192.1a17.44 17.44 0 01-14.95 14.34H83.27a56.63 56.63 0 01-56.63-56.63V44.15a17.51 17.51 0 0117.51-17.51H114M114 0H44.15A44.15 44.15 0 000 44.15v105.67a83.27 83.27 0 0083.27 83.27H157a44.14 44.14 0 0040.28-39.25V83.24A83.24 83.24 0 00114 0z"/></g></g></svg>