<svg viewBox="0 -5 40 40" version="1.1" xmlns="http://www.w3.org/2000/svg" xmlns:xlink="http://www.w3.org/1999/xlink" xml:space="preserve" xmlns:serif="http://www.serif.com/" style="fill-rule:evenodd;clip-rule:evenodd;stroke-linejoin:round;stroke-miterlimit:1.41421;">
    <g transform="matrix(1,0,0,1,0,-29)">
        <g>
            <path d="M28,30L28,54.32C32.66,54.69 36.79,55.39 39.99,56.3L39.99,30L28,30ZM30,46L33,46L33,51L30,51L30,46ZM35,46L38,46L38,51L35,51L35,46ZM30,39L33,39L33,44L30,44L30,39ZM35,39L38,39L38,44L35,44L35,39ZM30,32L33,32L33,37L30,37L30,32ZM35,32L38,32L38,37L35,37L35,32Z" style="fill:rgb(227,24,55);"/>
            <path d="M28,30L28,54.32C32.66,54.69 36.79,55.39 39.99,56.3L39.99,30L28,30ZM30,46L33,46L33,51L30,51L30,46ZM35,46L38,46L38,51L35,51L35,46ZM30,39L33,39L33,44L30,44L30,39ZM35,39L38,39L38,44L35,44L35,39ZM30,32L33,32L33,37L30,37L30,32ZM35,32L38,32L38,37L35,37L35,32Z" style="fill:none;"/>
        </g>
        <path d="M14,37L14,54.17C15.93,54.06 17.94,54 20,54C22.06,54 24.07,54.06 26,54.18L26,37L14,37ZM16,46L19,46L19,51L16,51L16,46ZM21,46L24,46L24,51L21,51L21,46ZM16,39L19,39L19,44L16,44L16,39ZM21,39L24,39L24,44L21,44L21,39Z" style="fill:rgb(244,119,53);"/>
        <path d="M0,44L0,56.29C3.2,55.38 7.33,54.68 12,54.31L12,44L0,44ZM2,46L5,46L5,51L2,51L2,46ZM7,46L10,46L10,51L7,51L7,46Z" style="fill:rgb(246,160,26);"/>
    </g>
</svg>
