<svg xmlns="http://www.w3.org/2000/svg" xml:space="preserve" width="8.93666in" height="8.93666in" version="1.1" style="shape-rendering:geometricPrecision; text-rendering:geometricPrecision; image-rendering:optimizeQuality; fill-rule:evenodd; clip-rule:evenodd"
viewBox="0 0 8936.66 8936.66"
 xmlns:xlink="http://www.w3.org/1999/xlink">
 <defs>
  <style type="text/css">
   <![CDATA[
    .str0 {stroke:#231F1F;stroke-width:55.56;stroke-miterlimit:2.61313}
    .str1 {stroke:#7E7E7E;stroke-width:41.67;stroke-miterlimit:2.61313}
    .str2 {stroke:#F06721;stroke-width:97.22;stroke-miterlimit:4}
    .fil5 {fill:none;fill-rule:nonzero}
    .fil3 {fill:#758A38;fill-rule:nonzero}
    .fil2 {fill:#E4EBAA;fill-rule:nonzero}
    .fil4 {fill:#F06721;fill-rule:nonzero}
    .fil0 {fill:#F2F2F2;fill-rule:nonzero}
    .fil1 {fill:white;fill-rule:nonzero}
   ]]>
  </style>
 </defs>
 <g id="__x0023_Layer_x0020_1">
  <metadata id="CorelCorpID_0Corel-Layer"/>
  <g id="_1288421250496">
   <path class="fil0 str0" d="M8463.4 4497.14c0,2193.26 -1778.01,3971.26 -3971.28,3971.26 -2193.27,0 -3971.27,-1778 -3971.27,-3971.26 0,-2193.27 1778,-3971.27 3971.27,-3971.27 2193.27,0 3971.28,1778 3971.28,3971.27z"/>
   <path class="fil1 str1" d="M8053.69 4468.42c0,1966.98 -1594.57,3561.57 -3561.57,3561.57 -1967,0 -3561.57,-1594.58 -3561.57,-3561.57 0,-1967 1594.57,-3561.58 3561.57,-3561.58 1967,0 3561.57,1594.58 3561.57,3561.58z"/>
  </g>
  <g id="_1288421246432">
   <g>
    <path class="fil2" d="M6083.46 6074.02c-1565.73,-43.46 -2786.13,236.09 -4004.19,395.84 -82.22,-1046.56 -41.11,-2197.66 -56.38,-3043.37 1354.31,-18.8 2439.62,-304.22 3721.11,-397.01 46.98,1080.62 434.59,1821.79 339.46,3044.54zm-2481.92 -788.15l0 0c-35.24,650.72 1118.2,442.83 1014.85,-113.93 -350.03,25.84 -641.33,111.58 -1014.85,113.93zm-902.09 -846.88l0 0c202.03,135.08 561.46,19.97 563.81,-224.34 -144.48,-190.28 -601.39,-97.5 -563.81,224.34zm1974.49 -167.96l0 0c173.83,119.81 576.72,78.7 507.42,-225.52 -135.07,-17.62 -213.77,-90.44 -397.01,-56.38 -23.5,106.89 -119.81,142.13 -110.41,281.9zm-1353.13 -563.8l0 0c-273.68,-151.52 -934.98,15.27 -790.5,281.9 272.51,-28.19 438.12,-164.44 790.5,-112.76 0,-56.38 0,-113.93 0,-169.14zm1182.81 225.52l0 0c273.67,-209.07 768.18,-46.98 902.08,-281.9 -304.22,-118.64 -869.19,-55.21 -902.08,281.9z"/>
    <path class="fil3" d="M6758.84 5116.73c-89.26,357.07 -425.2,459.26 -507.42,732.94 -30.54,-1060.66 -371.18,-1810.05 -281.9,-2988.17 167.96,-131.55 277.2,-563.8 507.42,-451.04 102.2,667.17 485.11,1895.78 281.91,2706.26z"/>
    <path class="fil4" d="M4616.39 5171.93c103.35,556.76 -1050.09,764.66 -1014.85,113.93 373.52,-2.35 664.82,-88.09 1014.85,-113.93z"/>
    <path class="fil4" d="M3263.26 4214.64c-2.35,244.31 -361.78,359.43 -563.81,224.34 -37.58,-321.84 419.33,-414.63 563.81,-224.34z"/>
    <path class="fil4" d="M5181.36 4045.5c69.3,304.22 -333.58,345.33 -507.42,225.52 -9.4,-139.77 86.91,-175.02 110.41,-281.9 183.24,-34.06 261.94,38.76 397.01,56.38z"/>
    <path class="fil4" d="M2530.31 3989.12c-144.48,-266.63 516.82,-433.43 790.5,-281.9 0,55.2 0,112.76 0,169.14 -352.38,-51.68 -517.99,84.57 -790.5,112.76z"/>
    <path class="fil4" d="M5405.71 3650.84c-133.9,234.91 -628.41,72.82 -902.08,281.9 32.89,-337.11 597.87,-400.54 902.08,-281.9z"/>
    <path class="fil3" d="M5744 2917.89c-1263.86,44.63 -2472.52,406.41 -3664.73,338.28 229.05,-541.48 640.16,-900.91 1522.27,-789.32 -120.98,104.54 2046.13,-90.44 2593.5,-112.76 -142.13,196.16 -241.96,433.43 -451.04,563.81z"/>
   </g>
   <g>
    <path class="fil5 str2" d="M2869.78 6865.69c39.93,-173.84 -98.67,-166.79 -57.56,-339.46 -456.91,-44.63 -616.66,112.77 -902.09,56.38 -89.27,-687.14 41.12,-1415.39 0,-2311.6 -16.44,-362.94 -144.47,-755.26 -112.76,-903.26 111.59,-506.25 708.28,-655.43 902.09,-1013.68 438.12,24.67 728.25,-99.84 1183.99,-56.38 379.39,0 1886.39,82.22 2593.49,-169.14 494.51,886.82 334.77,1970.96 451.05,3100.93 -287.78,313.61 -581.42,621.36 -789.32,1013.67 -280.73,-125.67 -483.93,12.93 -789.33,-55.2 -156.22,123.33 9.4,401.72 0,563.81 402.89,-69.31 876.24,38.76 1409.51,0"/>
   </g>
  </g>
 </g>
</svg>
