<svg xmlns="http://www.w3.org/2000/svg" viewBox="104 48.77 432.1 542.43"><path d="M529.2 465.1L269.1 590c-1.6.8-3.4 1.2-5.2 1.2-2.2 0-4.4-.6-6.4-1.8-3.5-2.2-5.6-6-5.6-10.2V455.5l-140.5-58.8c-4.5-1.9-7.4-6.2-7.4-11.1V60.8c0-4.1 2.1-8 5.6-10.2 3.5-2.2 7.9-2.4 11.6-.7l270.4 129.8 127.3-61.1c3.7-1.8 8.1-1.5 11.6.7s5.6 6 5.6 10.2v324.8c-.1 4.6-2.7 8.8-6.9 10.8zM128 79.9v297.7l123.9 51.9v-59.8L174 338.3c-6.1-2.5-9.1-9.5-6.7-15.6 2.5-6.2 9.5-9.1 15.6-6.7l69 27.8v-49.1L174 263.3c-6.1-2.5-9.1-9.5-6.7-15.6 2.5-6.2 9.5-9.1 15.6-6.7l69 27.8v-14.3c0-4.6 2.6-8.8 6.8-10.8l17.8-8.6-103.1-46.9c-6-2.7-8.7-9.9-6-15.9 2.7-6 9.9-8.7 15.9-6l121.3 55.3 59.1-28.4L128 79.9zm384 68.7L275.9 262v298.2L512 446.7V148.6zM321 303.8l135.3-65.4c6-2.9 13.1-.4 16 5.6 2.9 6 .4 13.2-5.6 16l-135.3 65.4c-1.7.8-3.5 1.2-5.2 1.2-4.5 0-8.7-2.5-10.8-6.8-2.8-5.9-.3-13.1 5.6-16zm0 75l135.3-65.4c6-2.9 13.1-.4 16 5.6 2.9 6 .4 13.2-5.6 16l-135.3 65.4c-1.7.8-3.5 1.2-5.2 1.2-4.5 0-8.7-2.5-10.8-6.8-2.8-6-.3-13.1 5.6-16zm0 74.9l135.3-65.4c6-2.9 13.1-.4 16 5.6 2.9 6 .4 13.2-5.6 16l-135.3 65.4c-1.7.8-3.5 1.2-5.2 1.2-4.5 0-8.7-2.5-10.8-6.8-2.8-5.9-.3-13.1 5.6-16z"/></svg>