<svg xmlns="http://www.w3.org/2000/svg" enable-background="new 0 0 24 24" viewBox="0 1 24.02 22"><polygon points="13.721 22.506 13.721 22.506 13.72 22.507"/><path fill="#28B5F8" d="M1.759,10.223c0.01,0.04,0.03,0.02,0.03-0.02c-0.1-0.77,0.5-1.748,1.679-2.104C5.962,7.288,8.833,6.82,11.813,6.82c3.238,0,6.344,0.552,9.23,1.566L20.85,8.326c0.86,0.296,1.819-0.168,2.099-1.047c0.7-2.223,0.98-3.734,1.05-4.109c0.01-0.069-0.05-0.099-0.07-0.119C20.346,1.752,16.209,1,11.892,1C8.258,1,4.751,1.533,1.444,2.525L1.699,2.46C0.717,2.7,0,3.563,0,4.592c0,0.208,0.029,0.407,0.084,0.597C0.483,6.766,1.061,8.578,1.759,10.223z"/><path d="M4.243 11.635c.046-.017.095-.029.141-.047.001 0 .002-.001.004-.002L4.243 11.635zM6.752 18.715c-.022-.028-.043-.058-.065-.086v0L6.752 18.715z"/><path fill="#28B5F8" d="M9.566,9.729c-0.98-0.395-1.939-0.958-2.899-1.788h-0.01C5.797,8.119,4.608,8.396,3.718,8.692c-1.779,0.603-1.699,2.746-0.75,3.428c0.07-0.395,0.5-0.938,0.98-1.116C5.727,10.312,7.636,9.897,9.566,9.729z"/><path fill="#28B5F8" d="M6.687,18.629c-0.17-0.573,0.13-1.639,1.269-1.985c3.149-0.958,6.457-0.553,8.656,0.326c0.62,0.247,1.499,0.099,1.989-0.632c0.744-1.105,1.505-2.405,2.188-3.751l0.101-0.22c0.03-0.059,0-0.109-0.06-0.138c-2.634-1.251-5.725-1.982-8.991-1.982c-2.625,0-5.136,0.478-7.455,1.342c-0.848,0.318-1.375,1.333-0.846,2.3C4.541,15.666,5.565,17.19,6.687,18.629z"/><path fill="#28B5F8" d="M15.723,19.903c-0.96-0.485-1.783-1.079-2.5-1.779l0.001,0.001c-0.34-0.336-0.84-0.82-1.369-1.393c-1.2,0-2.369,0.119-3.618,0.514c-1.159,0.356-1.269,1.679-0.76,2.371c0.86,1.057,1.459,1.63,2.419,2.608C10.389,22.705,11.067,23,11.815,23c0.737,0,1.407-0.288,1.9-0.756c0.749-0.741,1.209-1.234,2.058-2.182C15.823,20.012,15.803,19.923,15.723,19.903z"/></svg>