<svg id="wealthsimple" data-name="wealthsimple" xmlns="http://www.w3.org/2000/svg" viewBox="0 0 200 200"><defs><style>.ws{fill:#ffffff;fill-rule:evenodd;}</style></defs><path class="ws" d="M153.84,41.68v1.48a17.55,17.55,0,0,1,10.32,7,26.82,26.82,0,0,1,3.5,14.7,66.44,66.44,0,0,1-3.06,19.89,148.48,148.48,0,0,1-8.9,21.85l-4.16,9.12-20.43-49.6a56.75,56.75,0,0,1-2.51-7.27,26.47,26.47,0,0,1-1-5.79,9.33,9.33,0,0,1,8.95-9.72V41.9H75v1.48a20.89,20.89,0,0,1,6,2.07,16,16,0,0,1,4.75,5A67.6,67.6,0,0,1,91.18,61l9.61,22.94L83.42,118.27,57.53,58.18a20.68,20.68,0,0,1-1.64-3.77,15.69,15.69,0,0,1-.39-2.89,7.49,7.49,0,0,1,1.86-5,12.92,12.92,0,0,1,5.46-3.49V41.68H0v1.48a31.33,31.33,0,0,1,13.44,8.25,72.83,72.83,0,0,1,11.8,18.68L65,158.48h1.64l35.84-71,30.64,71h1.64l36.44-78.67a128.07,128.07,0,0,1,14.53-25.29A39.89,39.89,0,0,1,200,42.94V41.52H153.84Z"/></svg>
