<svg xmlns="http://www.w3.org/2000/svg" viewBox="0 0 256 278"><path d="M51.85 73.454C18.856 93.99 0 123.176 0 123.176S4.886 61.98 51.85 26.173C70.526 11.93 96.062 0 130.408 0c12.902 0 39.96 2.245 64.33 17.27 24.372 15.026 34.219 27.613 45.199 46.04 4.738 7.952 8.596 18.167 11.004 28.02 4.51 18.462 5.058 40.542 5.058 40.542v29.085H81.822s-4.254 58.52 75.849 58.52c27.859 0 37.614-4.377 46.777-7.09 14.344-4.248 28.195-13.716 28.195-13.716l.026 58.468s-32.783 20.193-82.31 20.193c-13.947 0-28.645-1.17-42.82-5.77-12.387-4.018-38.327-14.858-55.69-40.263-6.141-8.986-12.797-20.945-16.093-32.628-3.563-12.631-3.52-24.902-3.52-31.662 0-25.284 8.639-49.425 23.628-66.876 19.417-22.605 43.958-32.556 43.958-32.556s-7.994 9.32-12.911 20.922c-4.917 11.603-6.262 23.277-6.262 23.277h98.35s5.753-58.77-55.65-58.77c-23.136 0-51.552 8.03-71.5 20.448z" fill="#3177BC"/></svg>