<svg viewBox="0 0 21.3 21.3" version="1.1" xmlns="http://www.w3.org/2000/svg" xmlns:xlink="http://www.w3.org/1999/xlink" xml:space="preserve" xmlns:serif="http://www.serif.com/" style="fill-rule:evenodd;clip-rule:evenodd;stroke-linejoin:round;stroke-miterlimit:2;">
    <path d="M9.997,0.016C8.573,0.147 7.447,0.433 6.248,0.969C5.515,1.299 4.643,1.832 3.977,2.363C3.548,2.707 2.711,3.545 2.364,3.976C1.117,5.547 0.337,7.405 0.071,9.46C0,10.027 0,11.229 0.075,11.84C0.172,12.646 0.331,13.353 0.589,14.125C1.692,17.382 4.396,19.958 7.716,20.904C10.556,21.717 13.521,21.344 16.066,19.854C17.609,18.961 18.96,17.614 19.861,16.068C20.721,14.601 21.188,13.081 21.312,11.321C21.374,10.481 21.298,9.428 21.109,8.508C20.68,6.428 19.637,4.535 18.089,3.028C16.42,1.397 14.24,0.361 11.873,0.081C11.486,0.028 10.273,-0.003 10,0.023L9.997,0.016ZM11.84,5.541C12.826,5.745 13.709,6.215 14.389,6.895C15.149,7.655 15.593,8.495 15.809,9.588C15.886,9.988 15.886,11.028 15.809,11.414C15.657,12.174 15.438,12.734 15.066,13.334C14.986,13.468 13.893,15.054 12.633,16.881L10.347,20.173L10.133,20.173C9.876,20.173 8.976,20.046 8.52,19.944C8.144,19.861 7.62,19.693 7.62,19.66C7.62,19.646 8.527,18.769 9.633,17.706C10.74,16.645 11.64,15.773 11.637,15.768C11.63,15.764 11.524,15.781 11.4,15.81C11.232,15.846 10.997,15.858 10.516,15.858C9.949,15.858 9.817,15.849 9.54,15.792C8.54,15.578 7.687,15.138 7.02,14.493C6.257,13.762 5.776,12.88 5.544,11.793C5.484,11.518 5.475,11.38 5.471,10.806C5.471,10.447 5.468,10.147 5.465,10.147C5.452,10.147 4.639,11.04 3.639,12.133C2.639,13.22 1.812,14.109 1.812,14.104C1.799,14.097 1.719,13.848 1.612,13.544C1.412,12.976 1.292,12.464 1.225,11.877L1.185,11.537L1.252,11.47C1.399,11.326 7.612,6.524 7.879,6.343C8.439,5.969 9.172,5.667 9.828,5.545C10.311,5.452 10.289,5.452 10.929,5.465C11.377,5.465 11.596,5.492 11.828,5.532L11.84,5.541Z" style="fill:rgb(9,169,237);fill-rule:nonzero;"/>
    <path d="M10.104,7.343C8.64,7.66 7.541,8.819 7.312,10.28C7.259,10.632 7.293,11.293 7.388,11.64C7.735,12.874 8.721,13.786 9.975,14.002C10.308,14.061 10.854,14.061 11.161,14.002C12.654,13.72 13.788,12.552 14.028,11.053C14.094,10.684 14.054,10.044 13.948,9.684C13.641,8.537 12.761,7.673 11.588,7.364C11.241,7.271 10.481,7.257 10.108,7.337L10.104,7.343Z" style="fill:rgb(9,169,237);fill-rule:nonzero;"/>
</svg>
