<svg viewBox="0 0 32 32" xmlns="http://www.w3.org/2000/svg"><defs><radialGradient cx="28.327%" cy="87.115%" fx="28.327%" fy="87.115%" r="81.763%" gradientTransform="matrix(.99875 0 0 1 0 0)" id="a"><stop stop-color="#FFD3A6" offset="0%" /><stop stop-color="#F7AB8D" offset="33.21%" /><stop stop-color="#F46665" offset="100%" /></radialGradient></defs><g fill-rule="nonzero" fill="none"><path d="M18.105 0C25.78 0 32 6.213 32 13.877c0 7.665-6.22 13.878-13.895 13.878-4.94 0-9.28-2.576-11.743-6.456h1.901c2.712 0 4.547-1.477 4.547-3.693 0-2.193-1.53-3.663-3.846-3.692H4.21v-.037C4.21 6.213 10.43 0 18.105 0Z" fill="url(#a)" /><path d="m15.046 26.457-1.986-3.073c2.227-1.146 3.57-3.195 3.57-5.786 0-4.058-2.968-6.77-7.402-6.77H0V31.54h4.915v-7.17h3.29l4.353 7.17h5.758l-3.27-5.082ZM4.915 20.31v-5.424h3.771c1.725 0 2.869 1.085 2.869 2.712 0 1.627-1.344 2.712-3.33 2.712H4.915Z" fill="#31445A" /></g></svg>
