<svg version="1.1" id="ndax" xmlns="http://www.w3.org/2000/svg" xmlns:xlink="http://www.w3.org/1999/xlink" x="0px" y="0px"
	 viewBox="0 0 200 200" style="enable-background:new 0 0 200 200;" xml:space="preserve">
<style type="text/css">
	.ndax-00{fill:#10359C;}
	.ndax-01{fill:#00B8FF;}
</style>
<path class="ndax-00" d="M82.7,81.3h-4.3l-14.3,37.3h5.1l3.4-9.7h15.6l3.7,9.7H97L82.7,81.3z M74,104.8l6.3-17.5l6.4,17.5H74z
	 M118.1,99.8l12,18.8h-5.9L115,104l-9.2,14.5h-5.9l12.1-18.8l-11.7-18.5h5.7l9.1,14.3l8.9-14.3h5.7L118.1,99.8z M28.6,81.3l0.1,37.3
	h-5L5,89.9v28.7H0V81.3h5l18.8,28.8V81.3H28.6z M62.4,101.1v-2.4c0.1-3.1-0.6-6.3-2-9.1c-1.3-2.6-3.3-4.7-5.7-6.1
	c-2.6-1.5-5.6-2.2-8.6-2.2H35.6v37.3h10.1c3.1,0,6.1-0.8,8.8-2.2c2.5-1.4,4.6-3.5,5.9-6.1C61.8,107.4,62.5,104.3,62.4,101.1z
	 M57.8,100.8c0,4.3-1,7.8-3.2,10.1c-2.3,2.4-5.5,3.7-8.8,3.6h-5.2V85.3h5.9c3.2-0.1,6.3,1.2,8.4,3.6c1.9,2.3,2.9,5.6,2.9,9.8V100.8z
	"/>
<path class="ndax-01" d="M198.2,89.3c-1.1-2.6-2.9-4.7-5.2-6.3c-2.4-1.5-5.1-2.2-7.9-2.2c-2.8-0.1-5.5,0.7-7.8,2.2
	c-2.3,1.5-4.1,3.7-5.2,6.3c-1.4,2.9-2.1,6.2-1.9,9.4v2.7c0,3.2,0.6,6.4,1.9,9.3c1.1,2.5,2.9,4.6,5.2,6.1c2.3,1.4,5,2.2,7.8,2.2
	c2.8,0,5.5-0.8,7.9-2.2c2.3-1.5,4.2-3.7,5.2-6.3c1.3-3,1.9-6.3,1.8-9.6v-2.2C200.1,95.6,199.5,92.4,198.2,89.3z M195,101.5
	c0,4.3-0.9,7.7-2.7,10c-1.8,2.3-4.5,3.6-7.4,3.4c-2.9,0.1-5.7-1.3-7.4-3.7c-1.8-2.4-2.7-5.7-2.7-10.1v-2.7c0.1-4.2,1-7.4,2.8-9.8
	c1.7-2.3,4.4-3.7,7.3-3.6c2.9-0.1,5.7,1.3,7.4,3.6c1.8,2.4,2.7,5.7,2.7,10.2h0V101.5z M159.3,81.3h4.8v37.3h-4.8V81.3z M142.2,97.9
	l10.1,10.2l-10.1,10.1V115l6.9-6.9l-6.9-7V97.9z M147.2,108l-8.2,8.2v-3.6l4.7-4.7l-4.7-4.7v-3.3L147.2,108z M141.8,107.9l-6,6v-12
	L141.8,107.9z"/>
</svg>
