<svg id="ndax" data-name="ndax" xmlns="http://www.w3.org/2000/svg" viewBox="-0.13 0.08 156.77 29.93"><defs><style>.ndax{fill:#fff;}</style></defs><path class="ndax" d="M61.3.4,50.1,29.6h4L56.8,22H69l2.9,7.6h4L64.7.4ZM57.9,18.8,62.8,5.1l5,13.7Zm34.5-3.9,9.4,14.7H97.2L90,18.2,82.8,29.6H78.2l9.5-14.7L78.5.4H83l7.1,11.2L97.1.4h4.5ZM22.3.4l.1,29.2H18.5L3.8,7.1V29.6H-.1V.4H3.8L18.5,23V.4ZM47.2,6.9a11.58,11.58,0,0,0-4.5-4.8A12.86,12.86,0,0,0,36,.4H27.8V29.6h7.9a15,15,0,0,0,6.9-1.7,11.21,11.21,0,0,0,4.6-4.8,14.9,14.9,0,0,0,1.6-7.2V14A14.76,14.76,0,0,0,47.2,6.9Zm-2,8.8c0,3.4-.8,6.1-2.5,7.9a9,9,0,0,1-6.9,2.8H31.7V3.5h4.6a8.36,8.36,0,0,1,6.6,2.8c1.5,1.8,2.3,4.4,2.3,7.7Zm110-9a10.87,10.87,0,0,0-4.1-4.9A11.37,11.37,0,0,0,144.9.1a11,11,0,0,0-6.1,1.7,11.53,11.53,0,0,0-4.1,4.9,15.61,15.61,0,0,0-1.5,7.4v2.1a18.35,18.35,0,0,0,1.5,7.3,11.16,11.16,0,0,0,4.1,4.8,11.67,11.67,0,0,0,6.1,1.7,12.3,12.3,0,0,0,6.2-1.7,10.87,10.87,0,0,0,4.1-4.9,17.56,17.56,0,0,0,1.4-7.5V14.2A17.56,17.56,0,0,0,155.2,6.7Zm-2.5,7.4v2.1q0,5.1-2.1,7.8a6.88,6.88,0,0,1-5.8,2.7,6.69,6.69,0,0,1-5.8-2.9c-1.4-1.9-2.1-4.5-2.1-7.9V13.8c.1-3.3.8-5.8,2.2-7.7a6.67,6.67,0,0,1,5.7-2.8,7,7,0,0,1,5.8,2.8c1.4,1.9,2.1,4.5,2.1,8ZM124.7.4h3.8V29.6h-3.8Zm-13.36,13,7.9,8-7.9,7.9v-2.5l5.4-5.4-5.4-5.5Zm3.9,7.9-6.4,6.4v-2.8l3.7-3.7-3.7-3.7v-2.6Zm-4.2-.1-4.7,4.7v-9.4Z"></path></svg>
