<svg xmlns="http://www.w3.org/2000/svg" viewBox="0 0 820 631">
  <g fill="#f5ea16">
    <path d="M726 580.5 c-31 -3.1 -179.5 -17.4 -465.8 -44.7 l-108.4 -10.3 -67.1 -77.8 c-37 -42.8 -67.3 -78.8 -67.5 -80 -0.4 -3.5 18.6 -193.9 19.5 -194.8 0.4 -0.4 37 -28.7 81.2 -62.8 67.2 -51.9 81 -62.1 83.5 -62 1.7 0 137.7 12.9 302.1 28.7 l299 28.7 0.2 2.5 c0.2 1.4 -9.7 108.7 -22 238.5 l-22.2 236 -4.5 0.2 c-2.5 0 -15.1 -1 -28 -2.2z m-646.3 -279.1 c5.9 -2.3 10.2 -6.5 13.3 -12.7 1.6 -3.3 3 -7.4 3 -9.1 0 -4.7 -4.2 -12.7 -8.8 -16.8 -7.7 -7 -15.7 -8.6 -23.5 -4.7 -12.2 6.1 -18.2 18.4 -13.8 28.3 3.7 8.6 8.4 13 16.5 15.8 5.2 1.7 7.5 1.6 13.3 -0.8z"/>
  </g>
  <g fill="#000000">
    <path d="M719 586.9 c-73.4 -7 -564.6 -52.9 -566.8 -52.9 -1.7 0 -18.1 -18.6 -70.9 -80.2 -37.7 -44.2 -69.2 -81 -69.9 -81.9 -1.2 -1.3 0 -16.2 7.6 -97 4.9 -52.5 9.2 -97.3 9.5 -99.6 l0.6 -4.3 84 -65.5 84 -65.5 306.4 29.2 306.5 29.2 0.1 4.1 c0 2.2 -10.2 113 -22.8 246.3 l-22.8 242.2 -3 -0.1 c-1.6 -0.1 -20.8 -1.9 -42.5 -4z m58.6 -242.4 c12.2 -129.3 21.9 -235.3 21.5 -235.6 -0.5 -0.5 -585.6 -56.8 -595.1 -57.2 -3.2 -0.2 -10.5 5.2 -83 61.2 -43.7 33.7 -80.1 61.9 -80.8 62.6 -0.9 0.8 -4.2 30.4 -10.6 96 l-9.4 94.9 6 7.1 c3.4 3.8 33.7 39 67.4 78 l61.2 71 108.4 10.3 c278.7 26.6 433.6 41.5 465.8 44.6 12.9 1.3 24.2 2.3 25 2.2 1.2 -0.1 5.2 -39.5 23.6 -235.1z"/>
    <path d="M63.4 305.2 c-12.1 -4.2 -19.2 -14.9 -18.2 -27.5 1.2 -14.6 12.4 -25 26.8 -25 7.7 0.1 12.5 2 18.2 7.1 15.5 14 9.6 39.7 -10.6 45.7 -6.4 1.9 -9.9 1.8 -16.2 -0.3z m16.2 -10.1 c9.6 -4.4 12.7 -17.2 6.4 -26.2 -3.2 -4.3 -10.2 -7.3 -15.8 -6.5 -9.7 1.3 -15.7 8.7 -15 18.5 0.5 7 3.1 11.1 9 14 5.3 2.6 10 2.6 15.4 0.2z"/>
  </g>
</svg>