<svg xmlns="http://www.w3.org/2000/svg" fill="none" style="" viewBox="1.55 0.73 43.00 48.75"><path fill="#efefef" d="M14.9,33.2h7.7c0.1,0,0.2,0,0.2,0.1l0.6,0.6c0.1,0.1,0.4,0.1,0.5,0l5.6-5.6c0.2-0.2,0.1-0.6-0.2-0.6H1.9c-0.3,0-0.5,0.4-0.2,0.6l21.1,21.1c0.1,0.1,0.4,0.1,0.5,0l21.1-21.1c0.2-0.2,0.1-0.6-0.2-0.6h-6.6c-0.1,0-0.2,0-0.2,0.1l-14,14c-0.1,0.1-0.4,0.1-0.5,0l-8.1-8.1C14.4,33.6,14.6,33.2,14.9,33.2z"></path><g><g><g><path fill="#5AC9E4" d="M31.2,17h-7.7c-0.1,0-0.2,0-0.2-0.1l-0.6-0.6c-0.1-0.1-0.4-0.1-0.5,0l-5.6,5.6c-0.2,0.2-0.1,0.6,0.2,0.6h27.4c0.3,0,0.5-0.4,0.2-0.6L23.4,0.8c-0.1-0.1-0.4-0.1-0.5,0L1.8,21.9c-0.2,0.2-0.1,0.6,0.2,0.6h6.6c0.1,0,0.2,0,0.2-0.1l14-14c0.1-0.1,0.4-0.1,0.5,0l8.1,8.1C31.6,16.7,31.5,17,31.2,17z"></path></g></g></g></svg>
