<svg version="1.1" xmlns="http://www.w3.org/2000/svg" xmlns:xlink="http://www.w3.org/1999/xlink" viewBox="0 0 24 24"><title>Swiftex icon</title><path d="M8.05956 15.9877H11.8503C11.8996 15.9877 11.9488 15.9877 11.9488 16.0369L12.2442 16.3323C12.2934 16.3816 12.4411 16.3816 12.4903 16.3323L15.2473 13.5754C15.3457 13.477 15.2965 13.28 15.1488 13.28H1.65956C1.51187 13.28 1.4134 13.477 1.5611 13.5754L11.9488 23.9631C11.998 24.0123 12.1457 24.0123 12.195 23.9631L22.5827 13.5754C22.6811 13.477 22.6319 13.28 22.4842 13.28H19.235C19.1857 13.28 19.1365 13.28 19.1365 13.3293L12.2442 20.2216C12.195 20.2708 12.0473 20.2708 11.998 20.2216L8.01033 16.2339C7.81341 16.1846 7.91187 15.9877 8.05956 15.9877Z" fill="#FFFFFF"/>
<path d="M16.0839 8.01231H12.2931C12.2439 8.01231 12.1947 8.01231 12.1947 7.96308L11.8993 7.6677C11.8501 7.61847 11.7024 7.61847 11.6531 7.6677L8.89622 10.4246C8.79776 10.5231 8.84699 10.72 8.99468 10.72H22.4839C22.6316 10.72 22.7301 10.5231 22.5824 10.4246L12.2439 0.0369231C12.1947 -0.0123077 12.047 -0.0123077 11.9978 0.0369231L1.61006 10.4246C1.5116 10.5231 1.56083 10.72 1.70853 10.72H4.95776C5.00699 10.72 5.05622 10.72 5.05622 10.6708L11.9485 3.77846C11.9978 3.72923 12.1455 3.72923 12.1947 3.77846L16.1824 7.76616C16.2808 7.86462 16.2316 8.01231 16.0839 8.01231Z" fill="#5AC9E4"/>
</svg>
