<svg version="1.0" xmlns="http://www.w3.org/2000/svg" width="512" height="512">
  <path style="fill:#ffffff; stroke:none;" d="M0 0L0 512L254 512L254 511C127.964 443.92 34.2489 317.844 10.9198 177C6.11111 147.969 3 118.414 3 89C3 81.291 0.0608037 65.9368 4.02778 59.213C6.3844 55.2186 13.0135 53.1874 17 51.2585C29.3437 45.2859 42.1638 40.2239 55 35.4244C107.529 15.7834 167.677 1 224 1L203 0L158 0L0 0z" />
  <path style="fill:#68b875; stroke:none;" d="M224 0.424377C165.666 8.08356 109.72 14.7413 54 35.5756C41.2089 40.3583 28.3077 45.3033 16 51.2585C12.2505 53.0727 5.38778 55.1114 3.60339 59.213C0.707735 65.8688 3 77.7839 3 85C3 108.76 4.64825 132.433 7.71836 156C21.9809 265.482 72.9629 368.557 157 441.424C179.955 461.328 203.674 479.532 229 496.333C235.47 500.625 248.919 512.586 257 511.474C265.475 510.308 275.974 500.994 283 496.333C303.725 482.584 324.134 468.252 343 452C426.678 379.917 483.078 285.297 501.414 176C506.279 147 509 117.375 509 88C509 80.5935 512.007 64.716 507.972 58.3904C504.882 53.5466 495.075 50.7834 490 48.5756C474.191 41.6978 458.362 35.454 442 30C393.359 13.7864 343.065 4.4075 292 0.910492C270.185 -0.583435 245.76 -2.43268 224 0.424377z" />
  <path style="fill:#ffffff; stroke:none;" d="M288 0L288 1C344.379 1 404.434 15.7662 457 35.4244C469.836 40.2247 482.656 45.2858 495 51.2585C498.986 53.1873 505.616 55.2186 507.972 59.213C511.939 65.9368 509 81.291 509 89C509 118.414 505.889 147.969 501.08 177C477.75 317.847 384.032 443.922 258 511L258 512L512 512L512 0L288 0z" />
  <path style="fill:#01ff01; stroke:none;" d="M330 4L331 5L330 4M356 8L357 9L356 8z" />
  <path style="fill:#81a183; stroke:none;" d="M144 10L145 11L144 10M367 10L368 11L367 10z" />
  <path style="fill:#01ff01; stroke:none;" d="M372 11L373 12L372 11z" />
  <path style="fill:#81a183; stroke:none;" d="M410 20L411 21L410 20M87 24L88 25L87 24M424 24L425 25L424 24z" />
  <path style="fill:#01ff01; stroke:none;" d="M437 28L438 29L437 28M440 29L441 30L440 29M443 30L444 31L443 30M446 31L447 32L446 31z" />
  <path style="fill:#81a183; stroke:none;" d="M54 35L55 36L54 35M41 40L42 41L41 40M36 42L37 43L36 42M29 45L30 46L29 45z" />
  <path style="fill:#01ff01; stroke:none;" d="M508 106L509 107L508 106z" />
  <path style="fill:#fcfefc; stroke:none;" d="M246 271L245 271C234.481 254.18 219.062 239.048 206.13 224C198.655 215.301 191.65 205.689 180 202.49C163.995 198.095 149.451 204.903 136 213C143.252 224.594 153.764 234.689 162.718 245C189.891 276.287 221.342 307.016 245 341L260.873 323L290.373 284L364.373 186L400 138C380.489 126.91 366.576 147.424 354 160C330.014 183.986 306.67 208.72 282.985 233C270.945 245.343 255.932 256.9 246 271z" />
  <path style="fill:#81a183; stroke:none;" d="M7 154L8 155L7 154z" />
  <path style="fill:#01ff01; stroke:none;" d="M504 154L505 155L504 154z" />
  <path style="fill:#81a183; stroke:none;" d="M12 186L13 187L12 186z" />
  <path style="fill:#01ff01; stroke:none;" d="M499 186L500 187L499 186M13 191L14 192L13 191z" />
  <path style="fill:#81a183; stroke:none;" d="M17 209L18 210L17 209z" />
  <path style="fill:#01ff01; stroke:none;" d="M494 209L495 210L494 209z" />
  <path style="fill:#81a183; stroke:none;" d="M489 228L490 229L489 228M25 238L26 239L25 238z" />
  <path style="fill:#01ff01; stroke:none;" d="M486 238L487 239L486 238M37 272L38 273L37 272M474 272L475 273L474 272M47 295L48 296L47 295M464 295L465 296L464 295z" />
  <path style="fill:#81a183; stroke:none;" d="M463 297L464 298L463 297z" />
  <path style="fill:#01ff01; stroke:none;" d="M56 313L57 314L56 313M455 313L456 314L455 313M62 324L63 325L62 324M449 324L450 325L449 324z" />
  <path style="fill:#81a183; stroke:none;" d="M76 347L77 348L76 347M435 347L436 348L435 347M82 356L83 357L82 356M429 356L430 357L429 356z" />
  <path style="fill:#01ff01; stroke:none;" d="M84 359L85 360L84 359M427 359L428 360L427 359M89 366L90 367L89 366M422 366L423 367L422 366z" />
  <path style="fill:#81a183; stroke:none;" d="M92 370L93 371L92 370M102 383L103 384L102 383z" />
  <path style="fill:#01ff01; stroke:none;" d="M131 416L132 417L131 416M380 416L381 417L380 416M132 417L133 418L132 417M379 417L380 418L379 417M133 418L134 419L133 418z" />
  <path style="fill:#81a183; stroke:none;" d="M378 418L379 419L378 418M141 426L142 427L141 426M370 426L371 427L370 426z" />
  <path style="fill:#01ff01; stroke:none;" d="M142 427L143 428L142 427z" />
  <path style="fill:#81a183; stroke:none;" d="M369 427L370 428L369 427z" />
  <path style="fill:#01ff01; stroke:none;" d="M143 428L144 429L143 428M368 428L369 429L368 428M157 441L158 442L157 441z" />
  <path style="fill:#81a183; stroke:none;" d="M354 441L355 442L354 441z" />
  <path style="fill:#01ff01; stroke:none;" d="M172 454L173 455L172 454M274 501L275 502L274 501z" />
</svg>
