<svg viewBox="0 0 101 64" xmlns="http://www.w3.org/2000/svg"><g fill="#2e2ea3"><path d="m84.6843 30.8446c.1005-.7033.2009-1.3061.2009-2.0094 0-6.4302-5.2237-11.6547-11.6529-11.6547-.9041 0-1.7077.1005-2.6118.3014-4.1187-10.24799-14.1643-17.4819-25.9176-17.4819-15.4702 0-27.9268 12.5589-27.9268 27.9309v.5024c8.0365 2.1099 15.1689 10.0471 19.2876 12.9607 4.3196 3.1146 10.2465 5.124 16.2738 5.124 6.0274 0 11.6529-1.9089 16.3743-5.2244 6.3288-4.2198 10.6484-5.4255 14.767-5.1241 5.726.4019 10.4475 4.9231 10.4475 10.7504 0 5.8274-4.5206 10.5495-10.2465 10.5495-3.2146.1005-6.6301-1.1052-9.242-3.416-.2009-.201 0-.6029.3014-.4019 3.5159 2.1099 8.1369 3.1146 11.452 1.4066 2.5113-1.1052 4.1186-3.7174 4.3196-6.7316.2009-4.2198-2.7123-6.7315-6.2283-7.1334-2.9132-.4019-4.621 1.1052-5.5251 1.8085s-2.8127 2.6122-5.8264 8.4395c-2.5114 4.8226-6.7306 10.449-11.6529 12.5589h22.2007c9.1415 0 16.5752-7.4349 16.5752-16.5777-.1004-8.8415-6.8309-15.9749-15.3697-16.5777zm-32.3468 9.9466c-5.3241 0-10.2465-1.3061-14.6665-3.6169 3.8173-2.7128 8.4382-4.4208 13.3606-4.7222-.6028-.9042-.9041-1.8085-.8037-3.2151.1005-1.9089.9041-4.6216 2.2101-6.0282 1.2054 1.4066 2.0091 4.1193 2.21 6.0282.1005 1.4066-.2009 2.3109-.8036 3.2151 4.9223.3014 9.5433 1.909 13.3606 4.7222-4.621 2.3108-9.5433 3.6169-14.8675 3.6169z"/><path d="m34.155 55.0581c-2.7123-3.3156-4.9223-6.2292-10.8492-15.0707-6.1278-9.0423-14.46569-9.2433-17.47936-6.631-3.41551 3.215-5.525079 7.7362-5.525079 12.7598 0 9.8461 7.936019 17.7833 17.780739 17.7833h25.4153c-3.6164-1.6075-6.6301-5.6264-9.3424-8.8414z"/><path d="m9.47152 13.1517c2.54568-.181 4.46278-2.3917 4.28188-4.93777-.181-2.5461-2.3913-4.46343-4.93704-4.28248-2.54571.18094-4.46276 2.39164-4.28184 4.93774.18092 2.54611 2.39129 4.46341 4.937 4.28251z"/><path d="m3.71687 21.7017c2.00911 0 3.71687-1.6075 3.71687-3.7174 0-2.0094-1.6073-3.7174-3.71687-3.7174-2.10958 0-3.71687 1.6075-3.71687 3.7174.100456 2.1099 1.70775 3.7174 3.71687 3.7174z"/><path d="m6.83099 24.4144c0 1.4066 1.20548 2.6123 2.61186 2.6123 1.40635 0 2.61185-1.2057 2.61185-2.6123s-1.2055-2.6122-2.61185-2.6122c-1.40638 0-2.61186 1.1052-2.61186 2.6122z"/></g></svg>