<svg stroke-miterlimit="10" style="fill-rule:nonzero;clip-rule:evenodd;stroke-linecap:round;stroke-linejoin:round;" version="1.1" viewBox="0 0 109.5 200" xml:space="preserve" xmlns="http://www.w3.org/2000/svg" xmlns:xlink="http://www.w3.org/1999/xlink">
<defs/>
<clipPath id="ArtboardFrame">
<rect height="200" width="109.5" x="0" y="0"/>
</clipPath>
<g clip-path="url(#ArtboardFrame)" id="Layer">
<g opacity="1">
<path d="M100.269 54.4761C112.627 42.117 112.523 21.9501 100.021 9.44744C87.52-3.05526 67.355-3.15925 54.998 9.19983L9.47871 54.7237C11.5766 52.6256 13.9545 51.0295 16.4109 49.6301C13.9476 51.0216 11.576 52.6261 9.47871 54.7237C3.51941 60.6836 0.459613 68.3919 0.141513 76.1591C0.127713 76.5623-0.00148704 76.9584 1.29581e-05 77.3618C1.29581e-05 77.3853 1.29581e-05 77.4091 1.29581e-05 77.4325C0.047113 85.5789 3.22801 93.7486 9.47871 99.9999L32.1144 122.639L54.5024 100.248L54.75 99.9999L77.386 77.3618L100.269 54.4761Z" fill="#2e4865" fill-rule="nonzero" opacity="1" stroke="none"/>
<path d="M9.23111 145.524C-3.12659 157.883-3.02259 178.049 9.47871 190.552C21.98 203.055 42.1447 203.159 54.5024 190.8L100.021 145.276C97.923 147.374 95.546 148.97 93.089 150.37C95.552 148.978 97.924 147.373 100.021 145.276C105.981 139.316 109.04 131.608 109.358 123.841C109.372 123.438 109.502 123.042 109.5 122.639C109.5 122.615 109.5 122.591 109.5 122.568C109.453 114.421 106.272 106.251 100.021 99.9999L77.386 77.3618L54.998 99.7523L54.75 99.9999L32.1144 122.639L9.23111 145.524Z" fill="#c6e28a" fill-rule="nonzero" opacity="1" stroke="none"/>
<path d="M9.23111 99.7523C-3.12659 87.3932-3.02259 67.2264 9.47871 54.7237C21.98 42.221 42.1447 42.117 54.5024 54.4761L100.021 99.9999C97.923 97.9018 95.546 96.3059 93.089 94.9064C95.552 96.2979 97.924 97.9023 100.021 99.9999C105.981 105.96 109.04 113.668 109.358 121.435C109.372 121.838 109.502 122.235 109.5 122.639C109.5 122.662 109.5 122.686 109.5 122.709C109.453 130.855 106.272 139.025 100.021 145.276L77.386 167.915L54.998 145.524L54.75 145.276L32.1144 122.639L9.23111 99.7523Z" fill="#b6db65" fill-rule="nonzero" opacity="1" stroke="none"/>
<path d="M9.47871 54.7237C4.79071 59.4121 1.83671 65.1811 0.636713 71.2071C0.311213 72.8412 0.210013 74.5028 0.141513 76.1591C0.124813 76.5622 0.00151296 76.9585 1.29581e-05 77.3618C0.00151296 77.7649 0.124813 78.1614 0.141513 78.5645C0.210013 80.2208 0.311313 81.8823 0.636713 83.5166C1.83671 89.5425 4.79071 95.3114 9.47871 99.9999L32.1144 122.639L54.75 99.9999L54.998 99.7523L77.386 77.3618L54.75 54.7237C42.2487 42.221 42.2487 21.9501 54.75 9.44744L9.47871 54.7237Z" fill="#a1cc39" fill-rule="nonzero" opacity="1" stroke="none"/>
</g>
</g>
</svg>
