<svg version="1.1" id="Layer_1" xmlns="http://www.w3.org/2000/svg" xmlns:xlink="http://www.w3.org/1999/xlink" x="0px" y="0px"
	 viewBox="0 0 612 792" style="enable-background:new 0 0 612 792;" xml:space="preserve">
<style type="text/css">
	.st0{fill:#1E2243;}
	.st1{fill:#31A6DE;}
</style>
<path class="st0" d="M303.83,330.49c10.62,9.72,15.4,21.22,18.79,33.55c4.35,15.83,1.95,30.2-8.39,43.24
	c-6.1,7.69-11.75,15.74-17.53,23.67c-12.62,17.32-13.1,35.33-2.95,53.91c0.88,1.61,1.92,3.14,2.6,4.83
	c0.81,2.02,3.72,4.08,1.78,6.09c-1.6,1.66-4.41,0.04-6.61-0.62c-26.14-7.94-51.38-45.59-29.35-82.01
	c5.59-9.24,13.53-16.41,20.66-24.3c13.94-15.43,20.04-33.81,20.76-54.27C303.62,333.61,303.7,332.66,303.83,330.49z"/>
<path class="st1" d="M338.14,397.26c13.51,12.74,20.45,27.64,20.1,45.61c-0.4,20.66-9.76,36.14-27.63,46.53
	c-1.56,0.91-3.26,1.98-4.24,3.41c-2.55,3.73-4.06,3.19-6.81-0.17c-14.16-17.27-12.02-35.27-2.91-53.64
	c5.46-11,13.42-20.63,17.94-32.17C335.73,403.9,336.78,400.93,338.14,397.26z"/>
</svg>
