<svg xmlns:dc="http://purl.org/dc/elements/1.1/" xmlns:cc="http://creativecommons.org/ns#" xmlns:rdf="http://www.w3.org/1999/02/22-rdf-syntax-ns#" xmlns:svg="http://www.w3.org/2000/svg" xmlns="http://www.w3.org/2000/svg" xmlns:sodipodi="http://sodipodi.sourceforge.net/DTD/sodipodi-0.dtd" xmlns:inkscape="http://www.inkscape.org/namespaces/inkscape" version="1.1" id="Guides" x="0px" y="0px" width="716.53857" height="1000" viewBox="-52.71501159667969 -104.00000762939453 716.5386352539062 1000" enable-background="new -52.715 -104 717.43 1000" xml:space="preserve" sodipodi:docname="Warner_Bros._Games_2019.svg" inkscape:version="0.92.3 (2405546, 2018-03-11)"><metadata id="metadata27"><rdf:rdf><cc:work rdf:about=""><dc:format>image/svg+xml</dc:format><dc:type rdf:resource="http://purl.org/dc/dcmitype/StillImage"></dc:type></cc:work></rdf:rdf></metadata><defs id="defs25">
</defs><sodipodi:namedview pagecolor="#ffffff" bordercolor="#666666" borderopacity="1" objecttolerance="10" gridtolerance="10" guidetolerance="10" inkscape:pageopacity="0" inkscape:pageshadow="2" inkscape:window-width="1366" inkscape:window-height="705" id="namedview23" showgrid="false" inkscape:zoom="2" inkscape:cx="393.67363" inkscape:cy="96.27797" inkscape:window-x="-8" inkscape:window-y="-8" inkscape:window-maximized="1" inkscape:current-layer="Guides"></sodipodi:namedview>
<title id="title2">ybimc-client-wbgames</title>
<g id="g48" transform="matrix(1.0005648,0,0,1.0005648,0.02978241,-0.50364928)"><path d="m 199.27,895.549 c -3.398,0.021 -6.77,-0.604 -9.934,-1.846 -2.931,-1.145 -5.596,-2.881 -7.833,-5.093 -2.291,-2.262 -4.053,-5 -5.157,-8.023 -2.507,-6.868 -2.507,-14.404 0,-21.271 1.189,-3.03 2.964,-5.801 5.221,-8.151 2.267,-2.205 4.951,-3.938 7.897,-5.094 3.121,-1.233 6.45,-1.859 9.806,-1.846 4.186,-0.046 8.331,0.801 12.163,2.482 3.644,1.661 6.672,4.421 8.662,7.896 l -10.189,8.408 c -1.049,-2.056 -2.605,-3.81 -4.522,-5.097 -1.899,-1.209 -4.115,-1.828 -6.368,-1.782 -1.448,0.008 -2.877,0.31 -4.202,0.894 -1.355,0.618 -2.568,1.508 -3.567,2.61 -1.104,1.28 -1.929,2.773 -2.42,4.392 -0.654,2.06 -0.955,4.211 -0.891,6.37 -0.036,2.013 0.288,4.019 0.955,5.922 0.503,1.625 1.35,3.126 2.484,4.392 1.004,1.156 2.271,2.053 3.693,2.614 3.478,1.448 7.445,1.117 10.634,-0.893 1.681,-1.313 2.869,-3.151 3.375,-5.221 H 197.87 v -9.681 h 25.09 v 2.546 c 0.053,3.795 -0.573,7.568 -1.846,11.146 -0.967,2.923 -2.503,5.63 -4.522,7.959 -2.125,2.185 -4.716,3.859 -7.579,4.905 -3.132,1.071 -6.434,1.565 -9.743,1.462 z" id="path10" inkscape:connector-curvature="0" style="fill:#000b6c;fill-opacity:1"></path><path d="m 240.981,844.605 h 18.531 l 16.367,49.99 h -14.266 l -2.929,-9.488 h -17.258 l -2.865,9.488 h -14.137 z m 3.439,30.185 h 11.208 l -5.667,-18.466 z" id="path12" inkscape:connector-curvature="0" style="fill:#000b6c;fill-opacity:1"></path><path d="m 312.688,894.849 h -6.942 L 293.9,859.952 v 34.896 h -12.099 v -50.243 h 19.104 l 8.408,25.472 8.467,-25.472 h 19.107 v 49.99 H 324.85 v -35.024 z" id="path14" inkscape:connector-curvature="0" style="fill:#000b6c;fill-opacity:1"></path><path d="m 347.713,894.849 v -50.243 h 38.207 l -2.482,11.207 H 361.02 v 8.788 h 21.141 v 10.125 h -20.947 v 8.853 h 24.898 v 11.018 z" id="path16" inkscape:connector-curvature="0" style="fill:#000b6c;fill-opacity:1"></path><path d="m 392.922,859.952 c -0.184,-4.421 1.729,-8.671 5.16,-11.463 3.998,-2.977 8.902,-4.484 13.883,-4.265 4.189,-0.063 8.346,0.715 12.227,2.291 3.553,1.451 6.668,3.798 9.045,6.814 l -8.664,8.916 c -1.387,-2.031 -3.188,-3.745 -5.285,-5.033 -2.305,-1.443 -4.986,-2.173 -7.703,-2.102 -1.342,-0.063 -2.672,0.271 -3.824,0.957 -0.85,0.594 -1.352,1.572 -1.336,2.61 0.014,0.949 0.461,1.839 1.213,2.422 1.375,0.975 2.934,1.668 4.584,2.038 l 7.131,2.162 c 4.316,1.07 8.271,3.269 11.463,6.37 2.041,2.198 3.18,5.086 3.182,8.087 0.029,2.188 -0.404,4.357 -1.273,6.366 -0.854,1.995 -2.186,3.745 -3.883,5.097 -1.875,1.572 -4.037,2.764 -6.369,3.504 -2.975,0.885 -6.064,1.312 -9.17,1.272 -4.371,0.054 -8.705,-0.789 -12.736,-2.485 -3.559,-1.438 -6.66,-3.816 -8.979,-6.875 l 8.471,-8.66 c 1.551,2.109 3.471,3.923 5.666,5.349 2.51,1.458 5.377,2.188 8.279,2.099 1.703,0.152 3.406,-0.273 4.84,-1.209 0.865,-0.565 1.408,-1.512 1.467,-2.547 0.023,-0.975 -0.428,-1.902 -1.213,-2.482 -1.068,-0.847 -2.305,-1.454 -3.629,-1.785 l -8.98,-2.863 c -3.875,-0.957 -7.391,-3.016 -10.125,-5.925 -2.2,-2.347 -3.426,-5.441 -3.442,-8.66 z" id="path18" inkscape:connector-curvature="0" style="fill:#000b6c;fill-opacity:1"></path></g>
<g id="g64" transform="matrix(0.9137158,0,0,0.9137158,177.93885,100.6029)"><path d="m 520.89383,775.58931 c 5.85309,0 10.87408,-4.87981 10.87408,-10.88935 0,-5.85532 -5.02203,-10.89372 -10.87408,-10.89372 -6.01274,0 -10.91329,5.03729 -10.91329,10.89372 -0.001,6.00954 4.90055,10.88935 10.91329,10.88935 m -76.56447,-26.49774 c 5.68169,18.20469 17.0531,26.66069 32.49402,26.66069 16.76231,0 30.70833,-13.49657 30.70833,-31.37756 0,-12.51449 -5.51948,-22.10351 -17.22042,-30.72028 l -12.20282,-9.10672 c -7.3033,-5.36649 -10.87291,-10.89374 -10.87291,-17.07059 0,-5.36429 3.57078,-10.07899 9.42282,-10.07899 7.6347,0 11.69978,6.0194 14.31465,15.44217 l 15.77348,-9.42277 c -5.35449,-16.74688 -15.4422,-23.73742 -29.26138,-23.73742 -15.60406,0 -28.46722,12.19298 -28.46722,29.09843 0,10.07897 3.89985,20.32088 15.43673,28.93657 l 13.52921,10.08443 c 6.809,5.19588 11.3706,10.88498 11.3706,18.03736 0,6.50607 -4.89614,12.19516 -12.03537,12.19516 -9.25445,0 -14.48094,-6.82868 -17.7202,-18.20796 z m -39.34583,9.26638 c -10.58306,0 -17.22473,-13.33035 -17.22473,-40.64285 0,-27.31252 6.64167,-40.80364 17.22473,-40.80364 10.54175,0 17.22392,13.49112 17.22392,40.80364 0,27.3125 -6.68217,40.64285 -17.22392,40.64285 m 0,17.71804 c 22.24677,0 35.77308,-19.18569 35.77308,-58.36089 0,-39.18286 -13.69352,-58.52166 -35.77308,-58.52166 -22.12099,0 -35.77401,19.3388 -35.77401,58.52166 0,39.1752 13.48674,58.36089 35.77401,58.36089 m -60.80077,-80.14507 c 0,10.56563 -7.17752,17.55288 -19.50181,21.94604 l -2.78103,0.97334 v -40.47883 c 14.77381,0.65618 22.28284,7.48049 22.28284,17.55945 m 2.11941,78.68178 h 20.2926 l -20.00496,-48.28193 c 9.75632,-6.98507 15.77476,-16.74577 15.77476,-30.39985 0,-22.10679 -17.22485,-35.11342 -41.58568,-35.11342 h -17.26418 v 113.79628 h 18.3873 v -36.90042 l 2.11731,-0.654 c 2.28022,-0.65181 4.39764,-1.46329 6.516,-2.27259 z m -91.38658,-49.25416 c 11.87037,-2.92659 21.45493,1.78372 21.45493,12.02454 0,11.70849 -11.20094,20.00044 -26.97453,20.00044 v -30.72794 z m 14.31791,-33.00601 c 0,7.96717 -6.01716,14.46775 -16.89229,16.74688 l -2.94405,0.64853 v -31.53942 c 12.36792,0.32372 19.83634,5.69021 19.83634,14.14401 m 25.35932,44.86868 c 0,-12.35591 -6.68216,-21.7787 -18.05602,-25.68188 6.68438,-5.68911 10.58307,-13.17178 10.58307,-20.64898 0,-18.36765 -15.76917,-30.07285 -40.3377,-30.07285 h -15.60394 v 113.79628 h 15.93545 c 28.80525,-10e-4 47.47914,-15.77025 47.47914,-37.39257 M 176.4044,695.93092 c 0,10.56563 -7.15238,17.55288 -19.51031,21.94604 l -2.76044,0.97334 v -40.47883 c 14.79372,0.65618 22.27075,7.48049 22.27075,17.55945 m 2.113,78.68178 h 20.33286 l -20.00472,-48.28193 c 9.75411,-6.98507 15.77359,-16.74577 15.77359,-30.39985 0,-22.10679 -17.23707,-35.11342 -41.62291,-35.11342 h -17.23241 v 113.79628 h 18.36984 v -36.90042 l 2.1172,-0.654 c 2.27265,-0.65181 4.38996,-1.46329 6.50064,-2.27259 z m -105.175272,0 H 127.47516 V 757.05215 H 91.709879 V 724.86421 H 118.53023 V 706.82028 H 91.709879 v -28.4499 h 32.187871 l 3.57741,-17.55507 H 73.342128 Z m -77.8657963,0 H 13.360601 V 703.89807 L 42.947853,774.6127 H 60.989559 V 660.81639 H 43.108548 v 70.71462 L 13.519167,660.81639 H -4.5236683 Z M -32.484712,695.93092 c 0,10.56563 -7.152381,17.55288 -19.510489,21.94604 l -2.762522,0.97334 v -40.47883 c 14.795807,0.65618 22.273011,7.48049 22.273011,17.55945 m 2.115088,78.68178 H -10.0531 l -19.996088,-48.28193 c 9.755256,-6.98507 15.770264,-16.74577 15.770264,-30.39985 0,-22.10679 -17.229167,-35.11342 -41.615102,-35.11342 h -17.232449 v 113.79628 h 18.367646 v -36.90042 l 2.116205,-0.654 c 2.276947,-0.65181 4.389836,-1.46329 6.499455,-2.27259 z m -93.640526,-38.85477 9.27076,-48.60018 9.2642,48.60018 z m -25.68082,38.85477 h 18.2047 l 4.06176,-21.2986 h 25.36146 l 4.069439,21.2986 h 18.853222 L -102.06305,660.81639 h -24.70965 z m -79.50095,0 h 18.53716 l 13.81154,-72.34306 13.82141,72.34306 h 18.53278 l 23.40828,-113.79631 h -18.36656 l -14.47325,73.96931 -13.97341,-73.96931 h -17.23683 l -13.97778,73.96931 -14.30588,-73.96931 H -252.435 Z" id="path4-1" inkscape:connector-curvature="0" style="opacity:1;fill:#000b6c;fill-opacity:1;stroke:none;stroke-width:1.09363782"></path><g id="g196" transform="matrix(1.0927301,0,0,1.0927301,-1047.8392,88.760062)" style="opacity:1"><path style="fill:#0541a8;fill-opacity:1;stroke:none" inkscape:connector-curvature="0" id="path2" d="m 1373.2049,-155.41065 c -0.7709,-3.074 -1.538,-4.227 -3.071,-4.61 l -55.344,-14.606 -7.689,-31.514 c -0.382,-1.538 -0.766,-2.691 -2.309,-3.074 l -56.877,-15.374 -6.919,-29.978 c -0.384,-2.307 -1.538,-3.458 -3.075,-3.845 l -147.765,-27.401 c -2.416,-0.449 -4.899,-0.449 -7.3229,0 l -147.76905,27.401 c -1.516,0.387 -2.694,1.538 -3.072,3.845 l -6.907,29.978 -56.885,15.374 c -1.556,0.383 -1.935,1.536 -2.313,3.074 l -7.667,31.514 -55.36504,14.606 c -1.516,0.384 -2.315,1.537 -3.072,4.61 -4.595,23.828 -6.906,49.196 -6.906,74.559003 0,221.374997 115.28304,413.523997 287.46999,528.083997 2.309,1.52 4.613,3.076 6.151,3.076 1.538,0 3.844,-1.557 6.1481,-3.076 172.179,-114.561 287.478,-306.709 287.478,-528.083997 0,-25.362003 -2.308,-50.731003 -6.919,-74.559003"></path><path style="fill:#ffffff;fill-opacity:1;stroke:none" inkscape:connector-curvature="0" id="path6-2" d="m 1064.9779,345.38235 c 0,1.557 -1.5339,2.313 -3.068,0.796 -42.269,-48.42 -70.72096,-107.619 -89.92496,-172.16 l -29.18,18.444 c -7.7,5.38 -13.852,3.076 -18.439,-5.378 -39.20099,-69.163 -64.55199,-182.8999967 -66.86799,-262.820997 0,-3.845 0.764,-6.151 3.832,-9.991 9.983,-12.296 22.279,-24.590003 33.812,-35.352003 2.316,-2.305 4.633,-0.767 4.633,3.072 0,98.369003 16.88299,189.819003 43.79099,249.76 2.316,4.61 4.592,4.61 7.667,2.307 l 8.461,-5.38 c -16.128,-71.470997 -25.352,-166.761997 -23.036,-276.657 0,-3.839 0.76,-5.377 3.072,-6.913 8.428,-5.381 23.796,-13.833 36.888,-19.213 3.832,-1.538 4.592,-0.771 4.592,2.307 -2.316,159.843003 10.776,270.506003 39.20396,358.881 0.7631,2.303 3.076,1.537 3.076,-0.767 -1.542,-32.278 -1.542,-60.712 -1.542,-95.294997 l -1.534,-275.884003 c 0,-3.075 0.7631,-4.612 3.839,-5.381 13.0661,-3.074 24.592,-5.377 38.426,-6.915 1.538,0 2.301,0.767 2.301,2.303 v 540.237 z"></path><path style="fill:#ffffff;fill-opacity:1;stroke:none" inkscape:connector-curvature="0" id="path44" d="m 1234.0479,-87.264647 c 0,-30.742003 -35.3539,-56.100003 -82.2289,-59.175003 V 14.175353 c 59.175,-34.579 82.2289,-69.164 82.2289,-101.44 m -6.147,115.273 c -16.1399,0 -30.74,6.148 -76.081,38.426 V 240.11635 c 78.39,-87.613 100.6761,-147.553997 100.6761,-178.295997 0,-21.516 -9.995,-33.812 -24.5951,-33.812 m -116.812,318.169997 c -1.533,1.517 -3.071,0.761 -3.071,-0.796 v -540.236 c 0,-1.537 0.766,-2.303 2.304,-2.303 102.978,6.915 169.07,49.951 169.07,112.195003 0,26.132 -9.99,51.492 -26.896,69.934 33.809,9.2220003 46.875,34.58 46.875,68.396 0,59.941997 -43.803,159.075997 -188.282,292.809997"></path></g></g></svg>