<svg xmlns="http://www.w3.org/2000/svg" viewBox="30.61521339416504 -0.0007398672751151025 276.00311279296875 346.2327575683594"><path d="m303.371 61.535c-.372-1.44-.72-1.974-1.44-2.16l-26.01-6.967-3.623-14.816c-.185-.72-.371-1.254-1.091-1.44l-26.73-7.222-3.251-14.096a1.95 1.95 0 0 0 -1.44-1.788l-69.46-12.89a9.499 9.499 0 0 0 -3.437 0l-69.437 12.89a1.974 1.974 0 0 0 -1.463 1.788l-3.251 14.096-26.73 7.222c-.72.186-.906.72-1.069 1.44l-3.622 14.816-26.01 6.967c-.72.186-1.092.72-1.44 2.16a184.72 184.72 0 0 0 -3.251 35.044c0 104.04 54.18 194.35 135.11 248.19a7.27 7.27 0 0 0 2.88 1.463 7.338 7.338 0 0 0 2.902-1.463c80.91-53.831 135.11-144.15 135.11-248.19a186.626 186.626 0 0 0 -3.251-35.044z" fill="#004db4"></path><path d="m158.501 297.017c0 .72-.72 1.068-1.44.348-19.879-22.759-33.232-50.557-42.266-80.909l-13.725 8.57c-3.623 2.508-6.502 1.44-8.662-2.532-18.416-32.512-30.353-85.926-31.421-123.52a6.502 6.502 0 0 1 1.788-4.644 176.204 176.204 0 0 1 15.838-16.651c1.069-1.092 2.16-.372 2.16 1.44 0 46.237 7.942 89.223 20.599 117.39 1.068 2.16 2.16 2.16 3.6 1.091l3.97-2.531c-7.57-33.604-11.912-78.378-10.821-130.05 0-1.812.348-2.532 1.44-3.251a126.947 126.947 0 0 1 17.323-9.034c1.812-.72 2.184-.372 2.184 1.068-1.092 75.127 5.039 127.15 18.415 168.69.349 1.068 1.44.72 1.44-.371-.72-15.165-.72-28.541-.72-44.774l-.72-129.68c0-1.44.349-2.16 1.812-2.532a144.86 144.86 0 0 1 18.044-3.251.975.975 0 0 1 1.091 1.092zm21.32-255.105a.951.951 0 0 0 -1.09 1.09v254.01c0 .72.719 1.07 1.439.35v-.092c67.974-62.842 88.503-109.4 88.503-137.64 0-15.885-6.154-27.797-22.04-32.14a49.049 49.049 0 0 0 12.636-32.838c0-29.261-31.051-49.488-79.448-52.74zm19.486 23.779c22.039 1.51 38.665 13.424 38.665 27.869 0 15.165-10.728 31.42-38.665 47.606zm35.761 82.048c6.874 0 11.566 5.781 11.566 15.907 0 14.445-10.472 42.614-47.327 83.789v-81.629c21.319-15.165 28.167-18.066 35.761-18.066z" fill="#fff"></path></svg>
