<svg viewBox="0.00025561952497810125 -0.0007425416843034327 276.0081481933594 346.2277526855469" xmlns="http://www.w3.org/2000/svg"><path d="m272.756 61.535c-.371-1.44-.72-1.974-1.44-2.16l-26.01-6.966-3.622-14.817c-.186-.72-.372-1.254-1.092-1.44l-26.73-7.222-3.25-14.096a1.95 1.95 0 0 0 -1.44-1.788l-69.462-12.89a9.499 9.499 0 0 0 -3.437 0l-69.437 12.89a1.974 1.974 0 0 0 -1.463 1.788l-3.25 14.096-26.73 7.223c-.72.185-.906.72-1.068 1.44l-3.623 14.816-26.01 6.967c-.72.185-1.092.72-1.44 2.16a184.716 184.716 0 0 0 -3.251 35.042c0 104.04 54.18 194.354 135.112 248.186a7.269 7.269 0 0 0 2.88 1.463 7.339 7.339 0 0 0 2.902-1.463c80.91-53.832 135.113-144.146 135.113-248.186a186.62 186.62 0 0 0 -3.252-35.044z" fill="#004db4"></path><path d="m127.89 297.018c0 .72-.72 1.068-1.44.348-19.878-22.758-33.232-50.557-42.265-80.91l-13.725 8.57c-3.623 2.508-6.503 1.44-8.663-2.531-18.415-32.512-30.352-85.926-31.42-123.524a6.502 6.502 0 0 1 1.788-4.644 176.124 176.124 0 0 1 15.838-16.651c1.068-1.092 2.16-.372 2.16 1.44 0 46.237 7.942 89.223 20.599 117.392 1.068 2.16 2.16 2.16 3.6 1.092l3.97-2.532c-7.57-33.603-11.913-78.378-10.822-130.05 0-1.81.349-2.53 1.44-3.25a126.937 126.937 0 0 1 17.325-9.034c1.811-.72 2.183-.372 2.183 1.068-1.092 75.127 5.039 127.147 18.416 168.693.348 1.068 1.44.72 1.44-.372-.72-15.164-.72-28.54-.72-44.774l-.72-129.678c0-1.44.348-2.16 1.811-2.531a144.843 144.843 0 0 1 18.044-3.251.975.975 0 0 1 1.092 1.091zm21.319-255.105a.951.951 0 0 0 -1.091 1.09v254.014c0 .72.72 1.068 1.44.348v-.092c67.974-62.841 88.503-109.404 88.503-137.643 0-15.885-6.154-27.798-22.039-32.14a49.049 49.049 0 0 0 12.635-32.838c0-29.261-31.051-49.488-79.448-52.74zm19.486 23.78c22.039 1.509 38.665 13.424 38.665 27.868 0 15.165-10.728 31.42-38.665 47.606zm35.76 82.047c6.875 0 11.567 5.781 11.567 15.907 0 14.445-10.472 42.614-47.327 83.788v-81.63c21.319-15.164 28.167-18.065 35.76-18.065z" fill="#fff"></path></svg>
