<svg
   viewBox="0 0 210 297"
   version="1.1"
   id="svg223"
   xml:space="preserve"
   xmlns="http://www.w3.org/2000/svg"
   xmlns:svg="http://www.w3.org/2000/svg"><defs
     id="defs220" /><g
     id="layer1"><path
       style="fill:#0065ff;fill-opacity:1;stroke-width:1.25974"
       d="m 93.892105,255.78934 c -5.19645,-2.8364 -15.673151,-8.90528 -23.281656,-13.48642 -7.608518,-4.58119 -14.895634,-8.75825 -16.193662,-9.2824 -5.549545,-2.24108 -9.654283,-6.21771 -9.654283,-9.35283 0,-1.76313 4.165015,-10.086 9.255592,-18.49529 5.090565,-8.40922 11.660939,-19.68284 14.600806,-25.05245 4.078979,-7.45014 5.989642,-9.77343 8.06575,-9.80729 1.496271,-0.024 31.030038,-0.005 65.630548,0.0417 44.23301,0.0618 63.41165,0.50406 64.59967,1.49019 1.27439,1.05762 1.60287,4.96992 1.33641,15.91816 l -0.35351,14.51581 -3.77918,2.24121 c -2.07858,1.23263 -7.18051,4.14902 -11.33762,6.48089 -16.01659,8.98415 -20.44857,11.53578 -29.2673,16.85031 -5.01141,3.02 -9.68821,5.49095 -10.3928,5.49095 -0.70467,0 -1.28119,0.56658 -1.28119,1.25969 0,0.69286 -0.57671,1.25976 -1.28118,1.25976 -0.70465,0 -5.38139,2.47986 -10.39279,5.51085 -5.01142,3.03098 -11.94602,7.03787 -15.41033,8.90424 -3.46425,1.86631 -8.56619,4.69814 -11.33762,6.29294 -8.35537,4.80806 -9.35855,4.76786 -19.525849,-0.78185 z M 16.670349,211.29511 c -4.018603,-2.4232 -7.6158117,-4.40581 -7.9937995,-4.40581 -0.3779797,0 -2.3390968,-1.17621 -4.3580178,-2.61384 L 0.64775741,201.66168 0.97473366,141.08785 1.3017076,80.513965 25.866505,66.206009 C 39.377143,58.336621 52.901949,50.632477 55.921652,49.085671 l 5.490356,-2.812362 3.682644,4.409064 c 2.025432,2.424985 4.834468,6.676582 6.242182,9.447999 1.40777,2.771425 5.136269,9.290531 8.285494,14.486944 11.548393,19.055431 14.534135,25.229554 13.736869,28.406204 -0.419582,1.67276 -5.85706,11.57894 -12.082742,22.01373 -6.225584,10.43479 -11.31929,19.27131 -11.31929,19.63666 0,0.36543 -1.700656,3.13622 -3.779202,6.15725 -2.078561,3.02108 -3.779217,5.774 -3.779217,6.11753 0,0.34338 -5.870188,10.72871 -13.044906,23.07809 -7.174681,12.34944 -14.007387,24.32593 -15.183777,26.6146 -2.559406,4.97923 -6.447023,9.06727 -8.618492,9.06281 -0.866068,-9.9e-4 -4.862618,-1.98584 -8.881222,-4.40908 z M 143.36599,151.14612 c -1.6695,-2.14803 -33.09736,-56.03457 -33.09736,-56.749177 0,-0.313812 -5.64248,-10.077033 -12.538893,-21.696035 C 79.664644,42.264898 77.923284,38.739936 79.822348,36.451735 c 2.047665,-2.46733 22.608062,-14.743223 24.692732,-14.743223 1.5584,0 6.37793,2.677284 37.09518,20.606565 7.88436,4.602012 14.64228,8.367296 15.01757,8.367296 0.37554,0 1.5774,0.779741 2.67123,1.732749 1.09382,0.953012 5.67347,3.706488 10.17704,6.118834 4.50357,2.412335 14.9908,8.380087 23.30505,13.261662 l 15.1168,8.875611 0.33566,34.296281 c 0.23752,24.24787 -0.0845,34.80272 -1.09905,36.02474 -1.99696,2.40625 -61.90533,2.55075 -63.76838,0.15428 z"
       id="path289" /></g>
</svg>
