<svg xmlns="http://www.w3.org/2000/svg" viewBox="0 0 512 512"><defs/><g fill="#00b8fa"><path d="M295.114 288.892c37.291 15.772 61.386 52.124 61.386 92.608 0 55.416-45.084 100.5-100.5 100.5l-30 15 30 15c71.958 0 130.5-58.542 130.5-130.5 0-52.563-31.283-99.761-79.683-120.232L256 239.705h-30l30 32.59 39.114 16.597z"/><path d="M412.162 156.162c-9.995 0-19.79 1.487-29.115 4.322 2.275-9.716 3.453-19.76 3.453-29.984C386.5 58.542 327.958 0 256 0l-30 15 30 15c55.416 0 100.5 45.084 100.5 100.5 0 26.078-9.881 50.659-27.86 69.446l-14.469-14.469-20.079 70.271 70.271-20.079-14.51-14.51c3.083-3.189 5.985-6.507 8.701-9.944 13.318-15.922 32.852-25.054 53.608-25.054C450.671 186.162 482 217.491 482 256s-31.329 69.838-69.838 69.838v30C467.213 355.838 512 311.051 512 256s-44.787-99.838-99.838-99.838z"/></g><g fill="#5cd4ff"><path d="M125.5 130.5c0 52.563 31.283 99.761 79.683 120.232L256 272.295v-32.59l-39.114-16.597C179.595 207.336 155.5 170.984 155.5 130.5 155.5 75.084 200.584 30 256 30V0c-71.958 0-130.5 58.542-130.5 130.5z"/><path d="M155.5 381.5c0-26.078 9.881-50.659 27.86-69.446l14.469 14.469 20.079-70.271-70.271 20.079 14.51 14.51c-3.083 3.189-5.985 6.507-8.701 9.944-13.318 15.923-32.852 25.054-53.608 25.054C61.329 325.838 30 294.509 30 256s31.329-69.838 69.838-69.838v-30C44.787 156.162 0 200.949 0 256s44.787 99.838 99.838 99.838c9.995 0 19.79-1.487 29.115-4.322-2.275 9.716-3.453 19.76-3.453 29.984 0 71.958 58.542 130.5 130.5 130.5v-30c-55.416 0-100.5-45.084-100.5-100.5z"/></g></svg>
