<svg version="1.1" id="Layer_1"
    xmlns="http://www.w3.org/2000/svg"
    xmlns:xlink="http://www.w3.org/1999/xlink" viewBox="-0.01680612564086914 0 37.218902587890625 31.899999618530273" style="enable-background:new 0 0 37.9 37.9;" xml:space="preserve">
    <style type="text/css">
	.st0{fill:#1783FA;}
    </style>
    <path id="Path_1" class="st0" d="M32.1,10.3c0.2-4.5-2.6-8.6-6.9-9.9C24.3,0.2,23.3,0,22.4,0h-0.6c-3,0.2-5.6,1.8-7.3,4.2
	C12.2,3.5,9.8,3.7,7.9,5C5.8,6.3,4.4,8.4,4,10.9c-2.6,1.6-4.2,4.5-4,7.5C0.2,22.7,3.7,26,8,26.1h4.1c0.1,0,0.1-0.1,0.2-0.2l0.2-2.1
	c0-0.1,0-0.1-0.1-0.2c0-0.1-0.1-0.1-0.2-0.1H7.7c-1.5,0-2.9-0.6-3.9-1.7c-1-1.1-1.5-2.6-1.5-4.1c0.2-2.1,1.5-4,3.4-4.9l0.4-0.2
	c0.1,0,0.1-0.1,0.1-0.2l0.1-0.9C6.4,9.8,7.5,8.2,9,7.3c0.9-0.6,1.9-0.9,2.9-0.9c0.7,0,1.5,0.2,2.2,0.5l1,0.5c0.1,0,0.2,0,0.2,0
	c0,0,0,0,0-0.1L16,6.1c1.2-2.1,3.4-3.4,5.8-3.6c0.9,0,1.8,0.1,2.6,0.3c3.3,1.1,5.4,4.3,5.1,7.8l-0.2,1.3c0,0.1,0.1,0.2,0.2,0.2
	l1.2,0.3c2.4,0.7,4,2.9,3.9,5.4c0.1,3-2.3,5.6-5.3,5.6c0,0,0,0,0,0h-3.6c-0.1,0-0.1,0-0.2,0.1c0,0.1-0.1,0.1-0.1,0.2l0.2,2.1
	c0,0.1,0.1,0.2,0.2,0.2h3.6c4.4-0.1,7.9-3.8,7.8-8.2C37.1,14.5,37.9,11.6,32.1,10.3z"></path>
    <path id="Path_2" class="st0" d="M17.4,19.5c-1.2,0.5-2.5,0.7-3.9,0.6L12.9,31c0,0.5,0.3,0.9,0.8,0.9c0,0,0,0,0,0h10.5
	c0.4,0,0.8-0.3,0.9-0.7c0-0.1,0-0.1,0-0.2l-0.7-10.7C22.1,20.9,19.6,20.6,17.4,19.5z M19.2,28.2v0.8c0,0.2-0.1,0.3-0.3,0.3
	c-0.2,0-0.3-0.1-0.3-0.3c0,0,0,0,0,0v-0.8c-0.5,0-1-0.2-1.4-0.5c-0.1-0.1-0.2-0.2-0.2-0.4c0-0.3,0.2-0.5,0.5-0.5
	c0.2,0,0.2,0,0.3,0.1c0.3,0.2,0.7,0.3,1.1,0.3c0.5,0,0.8-0.2,0.8-0.6c0-0.3-0.2-0.5-0.8-0.5h-0.3c-1.1-0.2-1.6-0.6-1.6-1.5
	c0-0.9,0.7-1.5,1.5-1.5v-0.7c0-0.2,0.2-0.3,0.3-0.3c0.2,0,0.3,0.1,0.3,0.3V23c0.4,0,0.8,0.2,1.2,0.3c0.2,0.1,0.3,0.3,0.2,0.5
	c0,0.2-0.2,0.5-0.4,0.5c0,0,0,0,0,0c-0.1,0-0.2,0-0.3-0.1c-0.2-0.1-0.5-0.2-0.8-0.2h-0.2c-0.3,0-0.6,0.2-0.6,0.5c0,0,0,0,0,0.1
	c0,0.3,0.2,0.5,0.8,0.5h0.3c1.1,0.2,1.6,0.6,1.6,1.5c0,0.9-0.7,1.6-1.6,1.6C19.3,28.2,19.3,28.2,19.2,28.2z"></path>
</svg>