<svg version="1.1" id="logo-text" xmlns="http://www.w3.org/2000/svg" xmlns:xlink="http://www.w3.org/1999/xlink" x="0px" y="0px" style="enable-background:new 0 0 101.58 21.57;" xml:space="preserve" viewBox="Infinity Infinity -Infinity -Infinity">
<g>
	<path style="fill-rule:evenodd;clip-rule:evenodd;fill:#5A5C61;" d="M12.24,12.83c-0.27-2.73-1.88-5.06-4.92-5.06   c-2.66,0-4.68,2.15-5.01,5.05L12.24,12.83L12.24,12.83z M7.75,19.63c2.12,0,3.61-0.84,4.87-2.13l1.43,1.25   c-1.55,1.69-3.42,2.82-6.35,2.82C3.46,21.57,0,18.41,0,13.72c0-4.37,3.13-7.86,7.39-7.86c4.56,0,7.19,3.55,7.19,7.97   c0,0.2,0,0.44-0.03,0.79H2.32C2.64,17.8,5.04,19.63,7.75,19.63L7.75,19.63z M16.99,13.79v-0.06c0-4.25,3.39-7.86,7.9-7.86   c2.92,0,4.73,1.2,6.16,2.67l-1.51,1.58c-1.23-1.25-2.6-2.27-4.68-2.27c-3.13,0-5.51,2.59-5.51,5.81v0.06   c0,3.25,2.44,5.84,5.66,5.84c1.96,0,3.49-0.96,4.7-2.24l1.46,1.34c-1.54,1.69-3.39,2.9-6.28,2.9C20.38,21.57,16.99,18,16.99,13.79    M46.69,13.79v-0.06c0-3.22-2.47-5.87-5.72-5.87c-3.33,0-5.63,2.65-5.63,5.81v0.06c0,3.22,2.44,5.84,5.69,5.84   C44.37,19.57,46.69,16.95,46.69,13.79 M32.98,13.79v-0.06c0-4.25,3.39-7.86,8.05-7.86c4.62,0,8.03,3.55,8.03,7.79v0.06   c0,4.25-3.42,7.86-8.08,7.86C36.34,21.57,32.98,18.04,32.98,13.79 M65.05,13.76V13.7c0-3.55-2.5-5.82-5.43-5.82   c-2.86,0-5.57,2.35-5.57,5.79v0.06c0,3.49,2.71,5.82,5.57,5.82C62.6,19.55,65.05,17.39,65.05,13.76 M54.14,18.35v2.87h-2.3V0h2.3   v9.22c1.26-1.8,3.07-3.34,5.9-3.34c3.69,0,7.36,2.84,7.36,7.79v0.06c0,4.91-3.64,7.83-7.36,7.83   C57.18,21.55,55.33,20.04,54.14,18.35 M82.25,12.83c-0.27-2.73-1.88-5.06-4.92-5.06c-2.66,0-4.68,2.15-5.01,5.05L82.25,12.83   L82.25,12.83z M77.76,19.63c2.12,0,3.61-0.84,4.86-2.13l1.43,1.25c-1.54,1.69-3.42,2.82-6.35,2.82c-4.23,0-7.69-3.17-7.69-7.86   c0-4.37,3.13-7.86,7.39-7.86c4.56,0,7.19,3.55,7.19,7.97c0,0.2,0,0.44-0.03,0.79H72.34C72.66,17.8,75.05,19.63,77.76,19.63   L77.76,19.63z M99.25,12.83c-0.27-2.73-1.88-5.06-4.92-5.06c-2.66,0-4.68,2.15-5.01,5.05L99.25,12.83L99.25,12.83z M94.75,19.63   c2.12,0,3.61-0.84,4.86-2.13l1.43,1.25c-1.54,1.69-3.42,2.82-6.35,2.82c-4.23,0-7.69-3.17-7.69-7.86c0-4.37,3.13-7.86,7.39-7.86   c4.56,0,7.19,3.55,7.19,7.97c0,0.2,0,0.44-0.03,0.79H89.33C89.66,17.8,92.04,19.63,94.75,19.63L94.75,19.63z"></path>
</g>
</svg>
