<svg enable-background="new -2.5 0 60.3 60.3" viewBox="-2.5 0 60.3 60.3" xmlns="http://www.w3.org/2000/svg" xmlns:xlink="http://www.w3.org/1999/xlink">
    <linearGradient id="a">
        <stop offset="0" stop-color="#fdcfa6" />
        <stop offset="1" stop-color="#d8a887" />
    </linearGradient>
    <linearGradient id="b" gradientTransform="matrix(.9999 -.0156 .0156 .9999 -.8603 1.5055)" gradientUnits="userSpaceOnUse" x1="51.3744" x2="50.368" xlink:href="#a" y1="27.2438" y2="34.7359" />
    <linearGradient id="c" gradientTransform="matrix(.9999 -.0156 .0156 .9999 -.8603 1.5055)" gradientUnits="userSpaceOnUse" x1="29.8994" x2="29.8994" xlink:href="#a" y1="38.1771" y2="6.6271" />
    <linearGradient id="d" gradientTransform="matrix(.9999 -.0156 .0156 .9999 -.8603 1.5055)" gradientUnits="userSpaceOnUse" x1="3.5577" x2="2.5563" xlink:href="#a" y1="27.1588" y2="32.945" />
    <path d="m48.8 23.5s.2-2.7 1.7-2.2c1.5.6 3.2 3 3.3 4.7s-1.5 5.5-1.2 6.8c.3 1.2.8 3.7-1.6 3.9" fill="url(#b)" />
    <path d="m25.4 3.3s3.4-1.1 8.7 1.3c5.4 2.4 10.4 8.1 13.9 16.6s3.9 22.8-1.6 28.8c-5.6 6.1-15.2 13.1-31.5 5.7 0 0-4.5-1.1-6-8.6-1.5-7.4 3.5-29.2 5.7-31.1s6.1-12.7 10.8-12.7z" fill="url(#c)" />
    <g fill="#d8a887">
        <path d="m49.1 44.7c.4-1.6.5-2.8.5-3.7-.6 3.8-1.1 6.2-.5 3.7z" />
        <path d="m49.9 28.1s-2.8-9.7-2.8-7.8-1.6 12-2.2 12.5c-.6.4-1.6 1.9-7.1 3.8 0 0 2.5-.2 7.1 1 3.2.8 4.5 1.4 4.7 3.3.5-4 1.1-9.7.3-12.8z" />
        <path d="m28.4 46.7c1.2-.8 2.9-4.9 2.9-4.9l-6 .1s1.9 5.6 3.1 4.8z" />
        <path d="m23.1 49.7c-.5.1 4.7 9.3 9.4-.2 0 0-5.8-.8-9.4.2z" />
        <path d="m23 37.2c.2 0 .1-.2.1-.2l-3.9-.4s-5.2-.3-5.6-1.4-.6-3.3-.6-3.3h-.3c.2-.2.3-.3.3-.3l4.8 1.3c-1.9-20 9.2-29.6 9.2-29.6-19.4 1.8-24.3 25.8-22.3 37.1s10 15.2 10 15.2c-6.3-4.6-3.3-9-3.3-9-.6-1.2-1.1-2.3-1.4-3.3-.2-4.6 9.5-6 13-6.1z" />
    </g>
    <path d="m24.3 41.3s.7-.1 1.7 0 1.8.5 2.1.5 1.2-.5 1.6-.6 1.8-.5 2-.5.2 1 .2 1 0 .1-.1.1c-.4.1-1.6.4-2.3.8-.7.5-1.9.4-2.9 0-.9-.3-1-.6-2.3-1.3z" />
    <path d="m28.1 43c-.5 0-1.1-.1-1.5-.3-.5-.2-.8-.4-1.1-.6s-.6-.4-1.2-.8c0-.1.7-.2 1.7-.1.6.1 1.1.2 1.5.3.3.1.5.2.6.2.2 0 .5-.1.9-.3.3-.1.5-.2.7-.3.2 0 .5-.1.8-.2.6-.2 1-.3 1.1-.3.2.2.2.9.2 1.1 0 0 0 .1-.1.2l-.2.1c-.5.1-1.5.4-2 .7-.3.2-.8.3-1.4.3zm-2.9-1.7c-.5 0-.9.1-.9.1.6.2.9.5 1.2.7s.6.4 1.1.6c1 .4 2.2.4 2.8 0 .5-.3 1.5-.6 2-.8l.2-.1c0-.4 0-.9-.1-1-.1 0-.7.1-1.1.3-.3.1-.7.2-.8.2-.2 0-.4.2-.7.3-.4.1-.7.3-.9.3-.2 0-.4-.1-.7-.2-.4-.1-.9-.3-1.5-.3-.1-.1-.4-.1-.6-.1z" />
    <path d="m24.6 35.9s.7 2.9-.4 4.4c.1 0 5.2 1 .4-4.4z" />
    <path d="m30 28.5.8 4.6s10.3-4.3 12.3-5.8.9-4 .9-4z" />
    <path d="m24.8 28.1-.3 4.3s-11.7-3.4-13.7-4.9-1.1-4-1.1-4z" />
    <path d="m4.9 32.7v.1c-.1.4-.8 2.8-1.1 4.5 0 0 .5 1.1.5.9.1-.1.3-.6.3-.8" />
    <circle cx="37.9" cy="34.3" r="1.8" />
    <path d="m32.4 36.9s.7-4.1 4.7-4.6c2.7-.3 8.1-2 9.4-3.2 1.3-1.1-3.9 3.8-8.4 4.5-4.6.7-5.3 2.8-5.7 3.3z" />
    <circle cx="17.5" cy="34.6" r="1.8" />
    <path d="m23.1 37s-.8-4.1-4.8-4.5c-2.7-.2-8.2-1.8-9.5-2.9s4 3.7 8.6 4.3c4.5.6 5.3 2.6 5.7 3.1z" />
    <path d="m8.6 29.5s-.2 1.6.7 2.4 11.4 2.5 12.3 3c.8.5-1.4-1.2-1.4-1.2s-10.2-2.7-11.6-4.2z" />
    <path d="m23.1 48.9s3.1-.5 3.6-.5c.5.1 1.6.3 2.2.2.6 0 1.2-.5 2-.4.7.1 1.6.6 3 .4s3.3-.6 3.3-.6-4.1 3.1-13.2 1.8c0 0-2.6-.4-4-.9-.2 0 2.5.1 3.1 0z" />
    <path d="m53.7 30.9c.9-1.7 1.1-3.1 1.1-3.9 0-.1 0-.1 0-.2 0-.7-.2-1.1-.2-1.1-.5-2-2.1-5.1-4.1-5.3s0 0-.1 0c-.8-.1-1.3.3-1.5.6-1-3.5-2.6-7-5.7-11 0-.1-.1-.1-.2-.2-5.1-6.6-12-10.4-17.3-9.7-7.8 1-13.9 9.2-13.9 9.2v.1c-9.2 11-8.6 24.4-8.8 24.1.1 0-.4 3.2.5 8.1.2 1 .5 2.1.9 3.3 1.1 4 3.6 8.6 9.1 11.6.2.1.4.2.6.3 6.3 3.7 14.1 4.1 20.2 2.5 6.2-1.5 10.3-5.2 12-7.2 4.3-5.5 5.2-10.4 4.9-15.3 1 .4 2.5-.3 2.5-1.9.2-1-.6-2.5 0-4zm-1-3.7s-.3 1.5-.8 3.2c-.3.9-.3 1.9-.2 2.7 0 .2 0 .4.1.6.1.8.1 1.4.1 1.5 0 .4-.1.8-.6 1.3-.2-1.9-.5-3.8-.9-5.8-.2 7.5-.6 13-5.9 19.7-1.4 1.7-5 5-10.6 6.3-5.5 1.4-12.7 1-18.2-2.3-11.6-6.8-9.8-21-9.9-21 0-.6 0-13.3 8.5-22.9 4.3-4.9 11.2-7 16.7-5.6 5.5 1.2 8.9 4.9 10.4 6.6 5.3 6.9 7 11.9 9.1 19.1-.1-1.6-.2-3.1-.4-4.6 2.3-.3 1.6 3.1 1.6 3.1.4-1 .5-3.2.2-3.8-.2-.7-.9-1.4-1.4-1.6-.4-.2-.5.3-.6.9 0-.3-.1-.6-.2-.9-.1-1 .2-1.9 1.7-.6.4.4.8.9 1 1.5.7 1.3.4 2.6.3 2.6z" />
    <path d="m5.8 24.2s-.3-2.7-1.8-2.1-3.1 3.1-3.2 4.8 1.7 5.5 1.4 6.7c-.2 1.3-1.2 4.4 2 3.8" fill="url(#d)" />
    <path d="m5.3 29.2s-.2-8.4-2.5-6.2c0 0 1.3-1.3 2.1-.8s.9 1.4.9 1.4.2.2.2.3c0 .2-.7 5.3-.7 5.3z" />
    <path d="m3 29.8s-.8-2.6-.7-3.4c.1-.7 2.3-2.5 2.4-2.4.1.2.7 2.5.7 2.5s-1.7-.7-2.2-.4c-.2.2-.3 2.8-.2 3.7z" />
    <path d="m5.9 22c.2-.1.2-.3-.3-.7-.4-.3-.9-.3-1.3-.2h-.1c-.1 0-.2 0-.3.1-.1 0-.1 0-.2.1-.4.2-.6.3-.6.3-1 .6-2 1.8-2.5 3.1-1 2-.3 4.1-.3 3.9 0 0 .5 1.7.9 3.3.6 1.4-.4 3.2 0 4.3.5 2.1 2.5 1.8 3.2 1.1-.1 0-.2-.1-.3-.1 0 0-.1-.1-.2-.1 0 0 0 0-.1 0-1.2-.5-.8-2.2-.8-2.2.2-.9.3-2.1-.1-3.3-.5-1.8-1-3.3-.9-3.3 0-.1-.5-1.4.2-2.8.5-1.6 2.2-2.6 2.2-2.6-.1-.3.8.4 1.4 1.3.1-.5.6-1.5.1-2.2z" />
</svg>