<svg version="1.1" xmlns="http://www.w3.org/2000/svg" viewBox="78.71 58.48 640.00 349.99"><path d="m648.54 145.68c-9.947 0-17.009-7.278-17.009-17.048 0-9.777 7.062-17.057 17.009-17.057 10.024 0 17.086 7.279 17.086 17.057 0 9.77-7.062 17.048-17.086 17.048zm-0.03-50.786c-19.693 0-33.679 14.4-33.679 33.738 0 19.33 13.985 33.729 33.679 33.729 19.822 0 33.808-14.4 33.808-33.729-1e-3 -19.338-13.986-33.738-33.808-33.738zm-0.029 84.95c-29.889 0-51.123-21.868-51.123-51.212 0-29.353 21.234-51.209 51.123-51.209 30.082 0 51.307 21.856 51.307 51.209 0 29.344-21.225 51.212-51.307 51.212zm-0.04-121.36c-40.929 0-69.995 29.946-69.995 70.143 0 40.189 29.066 70.125 69.995 70.125 41.194 0 70.27-29.937 70.27-70.125 0-40.197-29.075-70.143-70.27-70.143zm-490.28 125.41-21.018-5.008c-19.131-4.396-28.849-9.413-28.849-23.21 0-15.684 15.99-21.965 30.419-21.965 14.667 0 25.382 7.329 31.693 18.737 0.02 0.048 0.051 0.097 0.09 0.157 0.127 0.247 0.276 0.484 0.403 0.731l0.03-0.02c1.985 3.002 5.323 5.008 8.919 5.008 6.122 0 10.558-4.425 10.558-10.547 0-2.341-0.504-4.82-1.601-6.688-10.764-18.302-28.513-26.192-48.838-26.192-27.594 0-54.262 13.797-54.262 44.218 0 27.921 27.605 36.079 37.64 38.578l20.069 4.71c15.368 3.763 27.912 8.791 27.912 23.517 0 16.938-17.561 23.943-34.499 23.943-17.245 0-30.015-9.37-38.814-22.37h-0.01c-1.956-3-4.988-4.328-8.702-4.328-5.984 0-10.805 5.185-10.587 11.162 0.098 2.438 0.909 4.637 2.153 6.405 13.787 20.633 33.728 28.41 55.96 28.41 28.543 0 57.085-13.143 57.085-45.132 1e-3 -20.693-15.366-35.405-35.751-40.116zm140.31 66.41c-33.866 0-55.199-25.403-55.199-58.331 0-32.939 21.333-58.343 55.199-58.343 34.192 0 55.516 25.403 55.516 58.343 1e-3 32.929-21.323 58.331-55.516 58.331zm0-135.49c-45.471 0-77.777 32.93-77.777 77.158 0 44.217 32.306 77.146 77.777 77.146 45.786 0 78.093-32.929 78.093-77.146 0-44.228-32.306-77.158-78.093-77.158zm220.24 119.49c-0.771 0.74-1.549 1.472-2.399 2.175-1.106 1.014-2.391 2.112-3.854 3.208-8.829 6.391-19.979 10.094-33.017 10.094-33.876 0-55.198-25.402-55.198-58.332 0-32.939 21.322-58.342 55.198-58.342 34.183 0 55.506 25.403 55.506 58.342 0 17.196-5.816 32.317-16.236 42.855zm-50.618 83.626c2.528 0 5.146-0.168 7.863-0.504 5.018-0.631 9.588-0.909 13.729-0.909 19.24 0.109 29.036 5.7 34.943 12.158 5.895 6.499 8.168 15.311 8.158 22.796 0.01 3.586-0.555 6.795-1.177 8.721-2.944 8.93-8.888 15.002-17.996 19.576-9.035 4.484-21.095 6.777-33.707 6.757-4.514 0-9.105-0.288-13.639-0.831-8.573-0.987-19.911-4.671-28.13-11.093-4.138-3.199-6.458-6.991-8.858-11.485-2.379-4.514-2.783-9.748-2.783-16.442v-0.742c0-12.346 4.84-20.544 11.051-26.5 3.07-2.904 5.69-5.064 7.99-6.438 0.366-0.218 0.438-0.416 0.755-0.593 6.094 3.605 13.388 5.559 21.801 5.529zm11.348-203.64c-45.471 0-77.786 32.929-77.786 77.157 0 29.887 14.765 54.598 38.378 67.489-0.314 0.314-0.621 0.641-0.916 0.966-6.104 6.687-9.226 15.25-9.236 23.913-8e-3 3.821 0.624 7.741 1.977 11.494-3.062 1.956-6.717 4.634-10.46 8.147-9.026 8.408-18.734 22.541-19.021 42.097-0.01 0.454-0.01 0.829-0.01 1.118-0.01 10.071 2.379 19.157 6.459 26.774 6.133 11.466 15.683 19.445 25.539 24.77 9.917 5.334 20.257 8.166 29.273 9.274 5.373 0.643 10.826 0.988 16.268 0.988 15.151-0.02 30.261-2.578 43.409-9.019 13.085-6.34 24.333-17.253 29.192-32.562 1.443-4.553 2.212-9.719 2.231-15.428-0.02-11.595-3.349-25.759-13.767-37.452-10.421-11.734-27.654-19.566-51.288-19.459-5.138 0-10.606 0.356-16.426 1.078-1.877 0.227-3.596 0.334-5.166 0.334-7.239-0.048-10.872-2.053-13.036-4.098-2.133-2.084-3.2-4.839-3.229-8.058-0.01-3.28 1.284-6.727 3.467-9.078 2.231-2.332 5.008-3.91 9.846-3.97 0.436 0 0.9 0.01 1.374 0.05 3.101 0.216 6.112 0.325 9.037 0.325 24.188 0.047 42.38-7.448 54.756-17.759 12.415-10.312 18.971-22.854 22.071-32.76l-0.04-0.01c3.37-8.899 5.197-18.715 5.197-29.166 1e-3 -44.227-32.304-77.155-78.093-77.155z" fill="#50bd37"></path></svg>
