<svg viewBox="564 31.149999618530273 372 368.0000305175781" xmlns="http://www.w3.org/2000/svg">
  <defs>
    <style type="text/css">
	.st0{fill:#FFFFFF;}
	.st1{fill:#00D37E;}
</style>
  </defs>
  <g id="c" transform="matrix(0.9999999999999999, 0, 0, 0.9999999999999999, 564, 31.149999618530273)"></g>
  <polygon class="st0" points="85.6,264.6 29,264.6 0,154.3 56.6,154.3 " style="paint-order: stroke;" transform="matrix(0.9999999999999999, 0, 0, 0.9999999999999999, 564, 31.149999618530273)"></polygon>
  <polygon class="st1" points="326.5,169.9 269.9,169.9 315.4,0 372,0 " style="paint-order: stroke;" transform="matrix(0.9999999999999999, 0, 0, 0.9999999999999999, 564, 31.149999618530273)"></polygon>
  <polygon class="st1" points="212.8,84.9 164.9,263.6 137,368 192.9,368 193.6,368 269.4,84.9 " style="paint-order: stroke;" transform="matrix(0.9999999999999999, 0, 0, 0.9999999999999999, 564, 31.149999618530273)"></polygon>
  <polygon class="st0" points="146.7,196.1 90.1,196.1 135.7,368 136.4,368 192.9,368 " style="paint-order: stroke;" transform="matrix(0.9999999999999999, 0, 0, 0.9999999999999999, 564, 31.149999618530273)"></polygon>
</svg>