<svg viewBox="0 0.004062014166265726 1126.29736328125 1247.9561767578125" xmlns="http://www.w3.org/2000/svg">
   <g transform="matrix(1.3333333,0,0,-1.3333333,0,1247.96)">
    <g transform="scale(0.1)">
      <path d="M 6872.47,7614.35 H 4224.12 C 2728.43,7616.95 1470.89,6492.49 1306.89,5005.79 v 0 c -783.023,1419.94 -266.7,3205.82 1153.24,3988.87 432.29,238.38 917.72,363.94 1411.39,365.01 H 8447.23 L 6872.47,7614.35" style="fill:#ed0722;fill-opacity:1;fill-rule:nonzero;stroke:none" id="path14"></path>
      <path d="m 1574.77,1744.28 h 2649.35 c 1494.62,0.29 2750.54,1123.3 2917.26,2608.56 v 0 C 7927.33,2938.48 7417.85,1154.77 6003.46,368.852 5565.56,125.5 5072.54,-1.50781 4571.53,0.0117188 H 0 L 1574.77,1744.28" style="fill:#ed0722;fill-opacity:1;fill-rule:nonzero;stroke:none" id="path16"></path>
      <path d="m 4224.12,7036.75 c 1302.03,0 2357.48,-1055.45 2357.48,-2357.43 0,-1301.99 -1055.45,-2357.44 -2357.48,-2357.44 -1301.96,0 -2357.42,1055.45 -2357.42,2357.44 0,1301.98 1055.46,2357.43 2357.42,2357.43" style="fill:#ed0722;fill-opacity:1;fill-rule:nonzero;stroke:none" id="path18"></path>
    </g>
  </g>
</svg>