<svg xmlns="http://www.w3.org/2000/svg" fill="none" viewBox="0 0 500 500">
  <path fill="#6D4AFF" d="M.756 17.043c0-6.777 7.898-10.484 13.11-6.155L151.757 125.4c13.334 11.073 32.666 11.073 45.999 0l137.89-114.512c5.213-4.33 13.111-.622 13.111 6.155V252c0 19.882-16.118 36-36 36h-276c-19.882 0-36-16.118-36-36V17.043Z" />
  <path fill="url(#a)" fill-rule="evenodd" d="m221.737 105.484.019.016-69.443 61.341c-11.829 10.449-29.511 10.713-41.646.62L.756 76.053v-59.01c0-6.777 7.898-10.484 13.11-6.155L151.757 125.4c13.334 11.073 32.666 11.073 45.999 0l23.982-19.916Z" clip-rule="evenodd" />
  <path fill="url(#b)" fill-rule="evenodd" d="M274.756 61.455V288h38c19.882 0 36-16.119 36-36V17.043c0-6.776-7.898-10.485-13.111-6.154l-60.889 50.566Z" clip-rule="evenodd" />
  <defs>
    <linearGradient id="a" x1="263.256" x2="183.933" y1="145.5" y2="-193.141" gradientUnits="userSpaceOnUse">
      <stop stop-color="#E2DBFF" />
      <stop offset="1" stop-color="#6D4AFF" />
    </linearGradient>
    <linearGradient id="b" x1="454.756" x2="184.058" y1="471.5" y2="-106.769" gradientUnits="userSpaceOnUse">
      <stop offset=".271" stop-color="#E2DBFF" />
      <stop offset="1" stop-color="#6D4AFF" />
    </linearGradient>
  </defs>
</svg>
