<svg viewBox="0 0 64 64" xmlns="http://www.w3.org/2000/svg"><path d="m0 0h64v64h-64zm11.0857 37.8286h-2.85713v-4h-3.42857v11.0857h3.42857v-4h2.85713v4h3.5429v-11.0857h-3.5429zm14.0572 4.8c.3428-.6857.4571-1.4857.4571-2.1715v-1.7142h-2.4v1.6l-2.6286-2.8572c-.2285-.3428-.4571-.5714-.4571-.9143 0-.4571.3428-.6857.8-.6857.4571 0 .8.3429.8.8v.5714h2.6286v-.6857c0-1.7143-1.4858-2.8571-3.5429-2.8571-2.1714 0-3.6571 1.1428-3.6571 2.8571 0 .4572.1142 1.2572.9142 1.9429-1.0285.4571-2.0571 1.4857-2.0571 3.0857 0 2.1714 1.7143 3.6571 4.8 3.6571 1.0286 0 2.0571-.3428 2.7429-.8l.4571.5715h3.0857zm-4.2286.2285c-.8 0-1.8286-.4571-1.8286-1.4857 0-.5714.3429-1.0285.8-1.2571 0 0 1.8286 2.0571 2.1714 2.4-.2285.2286-.6857.3428-1.1428.3428zm10.6286-.8h1.0285l1.7143 2.8572h4l-2.1714-3.5429c1.1428-.6857 1.9428-1.9428 1.9428-3.5428 0-2.4-1.4857-4.1143-4.3428-4.1143h-5.6v11.0857h3.4286zm0-5.4857h1.7142c.8 0 1.2572.5715 1.2572 1.3715s-.4572 1.3714-1.2572 1.3714h-1.7142zm-19.2 16.8c.9142-.4571 1.4857-1.3714 1.4857-2.5143 0-1.7142-1.2572-2.8571-3.3143-2.8571h-5.7143v11.0857h5.8286c2.5143 0 3.8857-1.2571 3.8857-3.2 0-1.2571-.8-2.1714-2.1714-2.5143zm-4.22861-2.7428h1.6c.45711 0 .80001.3428.80001.8 0 .5714-.3429.9143-.80001.9143h-1.6zm2.28571 5.9428h-2.28571v-1.8285h2.28571c.5714 0 .9143.4571.9143.9142 0 .4572-.3429.9143-.9143.9143zm9.0286-8.5714h-3.4286v11.0857h7.8857v-2.8571h-4.4571zm10.7428-.2286c-3.4285 0-5.2571 2.0572-5.2571 5.0286v1.3714c0 2.9715 1.8286 5.0286 5.2571 5.0286 3.4286 0 5.2572-2.0571 5.2572-5.0286v-1.3714c0-2.9714-1.8286-5.0286-5.2572-5.0286zm1.8286 6.7429c0 1.2571-.6857 1.9428-1.8286 1.9428-1.1428 0-1.8285-.6857-1.8285-1.9428v-1.8286c0-1.2571.6857-1.9428 1.8285-1.9428 1.1429 0 1.8286.6857 1.8286 1.9428zm9.8286-3.7714c1.2571 0 1.7143.8 1.7143 1.6h3.3142c-.1142-2.5143-1.8285-4.5715-4.9142-4.5715-3.5429 0-5.2572 2.0572-5.2572 5.0286v1.4857c0 2.9714 1.7143 5.0286 5.2572 5.0286 3.0857 0 4.9142-2.0572 4.9142-4.5714h-3.3142c-.1143.8-.4572 1.6-1.7143 1.6-1.1429 0-1.7143-.8-1.7143-1.9429v-1.7143c0-1.2571.5714-1.9428 1.7143-1.9428zm16.8-2.7429h-3.8857l-2.2858 3.8857h-.2285v-3.8857h-3.4286v11.0857h3.4286v-4.5714h.2285l2.2858 4.5714h4.1142l-3.2-6.0571zm1.6.3429h-.3429v.8h.2286v-.2286l.1143.2286h.3428l-.1143-.2286c0-.1143.1143-.2286.1143-.3429 0-.2285-.1143-.2285-.3428-.2285zm0 .3428c0-.1143 0-.1143 0 0zm-.1143-.9143c-.5714 0-.9143.4572-.9143.9143 0 .4572.3429.9143.9143.9143s.9143-.4571.9143-.9143c.1143-.4571-.3429-.9143-.9143-.9143zm0 1.6c-.4572 0-.6857-.3428-.6857-.6857 0-.4571.2285-.6857.6857-.6857.4571 0 .6857.3429.6857.6857.1143.4572-.2286.6857-.6857.6857z" fill="#02ad4e"/></svg>