<?xml version="1.0" encoding="utf-8"?>
<svg version="1.1" id="Layer_1" xmlns="http://www.w3.org/2000/svg" xmlns:xlink="http://www.w3.org/1999/xlink" x="0px" y="0px"
	 viewBox="0 0 270.8 269.2" style="enable-background:new 0 0 270.8 269.2;" xml:space="preserve">
<style type="text/css">
	.st0{fill:#CD1417;}
	.st1{fill:#FFFFFF;}
</style>
<g>
	<g>
		<path class="st0" d="M136.1,0C40.2,2.6,0,19.7,0,134.6s40.2,132,136.1,134.6c97.8,0,127.8-24.1,134.5-122.1
			c0.3-4,0.2-22.9-0.2-27.9C263.2,23.6,232.9,0,136.1,0z"/>
		<path class="st1" d="M194.6,114.7C194.4,95,178.3,79,158.5,79c-7,0-13.6,2-19.1,5.5c-6.6-7-16-11.4-26.4-11.4
			c-20.1,0-36.4,16.3-36.4,36.4c0,1.8,0.2,3.5,0.4,5.2c-19.7,3.1-34.9,20.1-34.9,40.7c0,22.8,18.4,41.2,41.2,41.2H188
			c22.8,0,41.2-18.4,41.2-41.2C229.2,134.9,214.2,117.9,194.6,114.7z M163.7,140L163.7,140c-0.1,0.4-0.3,0.8-0.6,1.1l-22.8,17.3
			c-0.3,0.2-0.6,0.3-0.9,0.3c-0.1,0-0.1,0-0.2-0.1c-0.2,0-0.3,0-0.5-0.1c-0.2-0.1-0.5-0.3-0.6-0.5c-0.2-0.2-0.3-0.5-0.3-0.9
			c0,0,0-4.3,0-9.4c-12.3-0.4-22.7,1.5-30.2,17.1c1.6-23.9,12.1-31.5,30.2-31.9c0-0.6,0-0.9,0-0.9v-9.5c0-0.3,0.1-0.6,0.3-0.9
			c0.1-0.2,0.4-0.4,0.6-0.5c0.1,0,0.1,0,0.2,0c0.2-0.1,0.3-0.1,0.5-0.1c0.3,0,0.7,0.1,0.9,0.3l22.8,17.3c0.4,0.3,0.6,0.8,0.6,1.2
			C163.7,139.9,163.7,139.9,163.7,140L163.7,140z"/>
	</g>
</g>
</svg>
