<svg version="1.1" id="Layer_1" xmlns="http://www.w3.org/2000/svg" xmlns:xlink="http://www.w3.org/1999/xlink" x="0px" y="0px" viewBox="118.27366638183594 286.010009765625 377.02093505859375 279.40338134765625" style="enable-background:new 0 0 612 792;" xml:space="preserve">
<style type="text/css">
	.st0{fill:#2B779A;}
	.st1{fill:#235A79;}
	.st2{fill:#3287A7;}
	.st3{fill:#306B8A;}
	.st4{fill:#134156;}
	.st5{fill:#052F3E;}
	.st6{fill:#0D3546;}
	.st7{fill:#1C4F69;}
	.st8{fill:#5083A2;}
	.st9{fill:#69A6C4;}
	.st10{fill:#629DBA;}
	.st11{fill:#F5F5F5;}
</style>
<path class="st0" d="M457.89,444.59c1.69,0.08,3.15,0.85,4.65,1.54c-0.12,2.04-0.19,4.03,2.84,3.59c0.33,5.57-1.21,10.89-2.21,16.28
	c-1.88,1.49-4,1.88-6.3,1.35c-1.26-0.29-2.51-0.68-3.79-0.13c-4.48-1.37-7.82-4.69-11.73-7.02c-3.27-1.96-6.79-3.56-9.91-5.89
	c-1.94-1.45-2.9-2.39-1.9-4.73c0.55-1.28,0.7-2.73,1.03-4.11c1.32,0.3,2.58-1.09,4.02,0.05c1.54,1.22,2.6,0.48,3.02-1.3
	c0.38-1.6,1.04-2.2,2.13-0.51c0.44,0.68,0.94,1.14,1.68,0.93c2.85-0.8...8,0.01,0.56,0.02,0.84c-0.45,0.44-0.9,0.88-1.36,1.32c-1.33-0.12-2.6,0.1-3.78,0.75
	C304.95,342.29,304.75,342.08,304.56,341.87z"></path>
<path class="st1" d="M305.14,342.5c1.18-0.65,2.45-0.86,3.78-0.75c-0.73,1.28-1.47,2.55-2.23,3.88
	C305.41,344.77,305.33,343.62,305.14,342.5z"></path>
<path class="st8" d="M266.88,368.75c-0.21-0.88-0.1-1.65,0.72-2.18C267.61,367.39,268.09,368.35,266.88,368.75z"></path>
<path class="st8" d="M267.57,366.64c0.19-0.46,0.39-0.92,0.58-1.37C268.16,365.81,268.24,366.38,267.57,366.64z"></path>
<path class="st4" d="M271.85,365.96c0.44-0.01,0.66,0.21,0.68,0.64C272.31,366.39,272.08,366.17,271.85,365.96z"></path>
<path class="st4" d="M310.26,339.6c-0.62-0.34-0.7-0.96-0.8-1.57c0.42-0.51,0.85-1.01,1.27-1.52
	C311.21,337.64,310.27,338.55,310.26,339.6z"></path>
<path class="st4" d="M298.06,352.46c-0.03,0.94-0.06,1.88-0.09,2.81c-3.11,1.56-5.93-0.54-8.9-0.72c-0.08-1.4-0.16-2.8-0.24-4.2
	c1.24-1.35,2.86-0.6,4.31-0.77C293.9,352.04,297.26,350.08,298.06,352.46z"></path>
</svg>
