<svg version="1.1" id="layer" xmlns="http://www.w3.org/2000/svg" xmlns:xlink="http://www.w3.org/1999/xlink" viewBox="26 258.1000061035156 115.30000305175781 133.69998168945312" style="enable-background:new 0 0 500 500;" xml:space="preserve">
<style type="text/css">
	.st0{fill:#3B4550;}
	.st1{fill:#64BC4F;}
</style>
<path class="st0" d="M56.6,323.1l9.8,5.6v-12.7l26.7-15.6l-9.6-6l-26.8,15.8V323.1z M98.8,303.8l-9.8,5.6l11.3,6.6l-0.2,30.1
	l9.8-5.6v-30.3L98.8,303.8z M94.5,349.7v-10.9l-11.3,6.6l-26.7-15.6v10.9l26.8,15.6L94.5,349.7z"></path>
<path class="st1" d="M83.4,258.1l22.2,12.9l-58.4,34.6v29.8L26,323v-31.4L83.4,258.1z M141.3,358.1l-22.2,13.2v-66.1l-26.8-15.8
	l22.5-13l26.5,15.4V358.1z M26,358.5v-24.5l57.4,32.8l26.4-15.8l0.2,25.4L84,391.8L26,358.5z"></path>
</svg>