<?xml version="1.0" encoding="UTF-8" standalone="no"?>
<!DOCTYPE svg PUBLIC "-//W3C//DTD SVG 1.1//EN" "http://www.w3.org/Graphics/SVG/1.1/DTD/svg11.dtd">
<svg width="100%" height="100%" viewBox="0 0 1000 1000" version="1.1" xmlns="http://www.w3.org/2000/svg" xmlns:xlink="http://www.w3.org/1999/xlink" xml:space="preserve" xmlns:serif="http://www.serif.com/" style="fill-rule:evenodd;clip-rule:evenodd;stroke-linecap:round;stroke-linejoin:round;">
    <g transform="matrix(2.08328,0,0,2.08328,35.6738,-405.753)">
        <g id="Layer-1" serif:id="Layer 1">
            <g id="g14596">
                <g id="g14578" transform="matrix(1,0,0,1,280.714,-64.2857)">
                    <path id="path14584" d="M-83.357,737.885C-164.186,730.747 -239.172,677.716 -274.948,602.389C-290.758,569.101 -297.838,537.131 -297.838,499.033C-297.838,460.935 -290.758,428.964 -274.948,395.677C-251.452,346.205 -210.684,305.438 -161.213,281.942C-127.926,266.132 -95.955,259.052 -57.857,259.052C-19.759,259.052 12.212,266.132 45.499,281.942C94.97,305.438 135.738,346.205 159.234,395.677C175.043,428.964 182.124,460.935 182.124,499.033C182.124,537.131 175.043,569.101 159.234,602.389C135.738,651.86 94.97,692.628 45.499,716.123C5.534,735.104 -35.798,742.085 -83.357,737.885ZM-24.213,648.653C28.907,642.006 70.953,617.258 97.286,577.138C103.47,567.716 103.455,566.997 97.173,571.716C72.473,590.271 29.575,605.516 -13.706,611.12C-74.483,618.989 -137.874,609.647 -186.482,585.658C-199.132,579.415 -208.773,573.519 -215.461,567.937C-217.375,566.339 -219.151,565.033 -219.409,565.033C-220.867,565.033 -212.808,578.808 -206.464,587.158C-182.207,619.084 -146.209,639.104 -99.375,646.715C-91.445,648.003 -81.448,649.079 -67.982,650.093C-60.337,650.669 -33.183,649.775 -24.213,648.653L-24.213,648.653ZM-29.911,571.416C10.628,567.84 47.363,558.198 81.132,542.269C96.514,535.013 113.105,524.463 121.236,516.766C124.24,513.921 125.177,510.878 128.078,494.533C129.286,487.726 130.979,480.219 131.841,477.849C134.662,470.092 135.766,447.403 133.779,438.023C131.957,429.425 124.326,418.002 118.2,414.703L115.587,413.296L110.99,416.833C108.461,418.779 106.393,420.5 106.393,420.659C106.393,420.817 107.051,422.063 107.855,423.427C112.039,430.526 112.875,444.054 109.744,453.967C102.321,477.463 71.295,499.104 27.994,510.986C0.626,518.497 -23.297,521.562 -54.975,521.617C-85.33,521.67 -107.461,519.101 -133.335,512.521C-189.034,498.356 -222.928,471.339 -222.841,441.174C-222.819,433.214 -220.482,427.332 -212.707,415.659C-208.771,409.75 -205.05,403.068 -203.298,398.762C-199.98,390.608 -199.813,390.691 -208.763,396.069C-224.441,405.49 -237.713,418.137 -243.019,428.713C-246.793,436.232 -247.607,440.335 -247.607,451.831C-247.607,464.361 -246.519,471.499 -243.784,476.908C-241.886,480.659 -241.335,483.036 -240.471,491.196C-238.303,511.658 -238.64,510.625 -232.034,517.061C-207.27,541.19 -148.589,564.162 -96.107,570.272C-74.858,572.747 -49.883,573.178 -29.911,571.416Z" style="fill:rgb(211,181,66);fill-rule:nonzero;"/>
                    <path id="path14582" d="M-74.357,738.596C-75.801,738.432 -80.695,737.934 -85.232,737.489C-96.499,736.386 -113.925,732.856 -126.107,729.21C-155.523,720.404 -181.352,707.06 -206.357,687.747C-216.49,679.92 -238.745,657.666 -246.571,647.533C-273.887,612.165 -290.248,573.123 -296.109,529.32C-297.921,515.782 -297.921,482.283 -296.109,468.745C-290.248,424.943 -273.887,385.9 -246.571,350.533C-238.745,340.4 -216.49,318.145 -206.357,310.319C-170.99,283.003 -131.947,266.641 -88.145,260.78C-74.606,258.969 -41.108,258.969 -27.57,260.78C16.233,266.641 55.276,283.003 90.643,310.319C100.776,318.145 123.031,340.4 130.857,350.533C158.173,385.9 174.534,424.943 180.395,468.745C182.207,482.283 182.207,515.782 180.395,529.32C174.534,573.123 158.173,612.165 130.857,647.533C123.031,657.666 100.776,679.92 90.643,687.747C55.378,714.984 15.726,731.624 -27.175,737.192C-35.914,738.326 -68.266,739.288 -74.357,738.596ZM-18.482,648.325C2.399,645.017 19.065,639.863 36.357,631.365C57.39,621.029 76.029,605.87 90.435,587.385C96.318,579.836 103.797,568.187 103.167,567.556C102.929,567.319 100.738,568.661 98.297,570.539C74.664,588.725 34.374,603.604 -8.357,609.927C-41.139,614.778 -78.334,614.517 -109.565,609.215C-152.722,601.889 -191.638,586.602 -214.982,567.803C-217.87,565.478 -220.336,563.878 -220.463,564.248C-220.793,565.207 -218.078,570.316 -213.316,577.698C-187.835,617.198 -149.191,639.975 -94.232,647.891C-79.388,650.029 -72.026,650.416 -50.357,650.201C-32.683,650.025 -27.164,649.7 -18.482,648.325ZM-40.982,572.513C-9.812,570.846 19.8,565.334 47.893,555.97C79.449,545.451 109.013,529.599 121.462,516.525C125.267,512.529 125.963,510.19 128.91,491.533C129.659,486.789 130.847,481.558 131.549,479.908C133.818,474.58 134.84,466.126 134.867,452.462C134.895,437.988 134.23,434.538 130.022,427.335C127.504,423.027 120.372,415.32 117.554,413.862C115.708,412.907 115.312,413.052 110.991,416.263C108.462,418.142 106.393,420.046 106.393,420.494C106.393,420.943 107.076,422.72 107.911,424.445C109.76,428.265 111.617,436.701 111.617,441.283C111.617,471.634 75.885,499.283 19.018,512.934C-51.549,529.874 -136.137,520.994 -185.782,491.435C-209.499,477.313 -222.352,459.829 -222.374,441.658C-222.385,432.209 -220.977,428.717 -211.335,414.283C-205.509,405.562 -198.69,390.529 -200.942,391.372C-204.341,392.645 -213.913,398.647 -220.849,403.855C-233.654,413.47 -242.701,424.423 -246.051,434.366C-247.389,438.338 -247.607,440.813 -247.607,452.032C-247.607,467 -246.975,471.376 -243.907,477.658C-242.14,481.274 -241.543,483.865 -240.866,490.853C-240.403,495.635 -239.579,502.33 -239.034,505.729C-238.12,511.437 -237.794,512.17 -234.763,515.316C-232.959,517.19 -228.16,521.217 -224.099,524.265C-189.336,550.363 -130.605,569.479 -76.034,572.457C-59.766,573.345 -56.633,573.35 -40.982,572.513L-40.982,572.513ZM73.524,415.125C97.055,401.729 111.482,391.284 116.898,383.72C118.545,381.42 119.893,378.81 119.893,377.921C119.893,369.397 72.871,341.428 62.886,344.013C60.516,344.626 56.756,350.436 51.378,361.793C47.997,368.933 39.643,389.94 39.643,391.302C39.643,391.515 41.344,392.615 43.423,393.746C46.751,395.558 47.514,396.459 49.802,401.28C51.923,405.749 52.934,407.028 55.302,408.236C58.515,409.875 61.707,413.317 63.498,417.074C64.143,418.426 64.92,419.533 65.226,419.533C65.531,419.533 69.265,417.549 73.524,415.125Z" style="fill:rgb(87,139,52);fill-rule:nonzero;"/>
                    <path id="path14580" d="M-71.357,738.295C-85.334,737.193 -102.906,734.341 -115.982,731.052C-184.121,713.914 -241.111,667.944 -271.971,605.227C-284.138,580.5 -291.266,557.666 -294.467,533.158C-295.114,528.208 -296.03,522.47 -296.504,520.408C-297.651,515.412 -297.651,482.653 -296.504,477.658C-296.03,475.595 -295.114,469.858 -294.467,464.908C-291.266,440.4 -284.138,417.566 -271.971,392.838C-248.758,345.66 -211.229,308.132 -164.052,284.918C-139.324,272.751 -116.49,265.624 -91.982,262.423C-87.032,261.776 -81.295,260.86 -79.232,260.386C-74.237,259.239 -41.478,259.239 -36.482,260.386C-34.42,260.86 -28.682,261.776 -23.732,262.423C0.776,265.624 23.61,272.751 48.337,284.918C95.515,308.132 133.043,345.66 156.257,392.838C168.424,417.566 175.552,440.4 178.753,464.908C179.399,469.858 180.316,475.595 180.789,477.658C181.307,479.911 181.651,488.443 181.651,499.033C181.651,509.622 181.307,518.155 180.789,520.408C180.316,522.47 179.399,528.208 178.753,533.158C175.552,557.666 168.424,580.5 156.257,605.227C133.043,652.405 95.515,689.933 48.337,713.147C23.61,725.314 0.776,732.441 -23.732,735.643C-28.682,736.289 -34.251,737.135 -36.107,737.522C-40.771,738.495 -62.72,738.976 -71.357,738.295ZM-40.385,651.264C-25.498,650.438 -15.889,649.161 -3.107,646.309C40.333,636.614 75.749,612.473 99.15,576.606C107.095,564.428 107.227,562.392 99.69,568.305C77.02,586.087 39.54,600.877 -0.107,607.686C-21.701,611.394 -28.511,611.9 -56.732,611.893C-77.852,611.888 -85.962,611.604 -93.971,610.589C-113.887,608.065 -136.213,603.284 -152.732,598.006C-177.738,590.015 -203.331,576.916 -216.597,565.318C-220.833,561.615 -222.857,560.476 -222.857,561.796C-222.857,562.74 -217.489,572.848 -214.367,577.783C-185.717,623.066 -136.344,647.965 -68.732,651.226C-62.132,651.544 -56.057,651.849 -55.232,651.904C-54.407,651.959 -47.726,651.671 -40.385,651.264ZM-35.732,573.26C0.211,570.637 33.572,563.153 65.143,550.631C88.601,541.327 112.548,527.339 122.372,517.204C125.705,513.765 126.59,510.895 129.265,494.848C130.265,488.85 131.948,481.438 133.004,478.377C134.519,473.989 135.089,470.308 135.697,460.984C136.859,443.161 135.833,435.817 130.972,427.176C128.196,422.241 121.612,415.041 118.19,413.198L115.623,411.815L111.195,415.025C104.882,419.601 104.685,419.935 106.358,423.214C109.015,428.422 110.349,434.634 110.315,441.639C110.254,454.235 105.885,463.408 94.393,475.072C51.167,518.943 -64.431,534.087 -148.537,506.897C-187.127,494.422 -212.795,475.123 -219.591,453.473C-221.279,448.095 -221.488,446.336 -221.195,439.973C-220.781,430.989 -219.437,427.739 -210.975,415.248C-207.681,410.386 -203.931,403.749 -202.641,400.499C-201.352,397.25 -199.805,393.641 -199.205,392.479C-197.485,389.153 -199.092,389.143 -205.052,392.441C-217.658,399.417 -230.888,409.954 -237.87,418.578C-247.234,430.144 -249.666,438.745 -248.785,457.182C-248.25,468.4 -247.054,474.236 -244.305,479.038C-242.987,481.34 -242.393,483.828 -242.038,488.533C-241.205,499.534 -239.286,510.523 -237.757,513.034C-235.756,516.32 -225.462,524.883 -216.482,530.729C-170.006,560.987 -98.408,577.834 -35.732,573.26L-35.732,573.26ZM-36.857,502.015C-2.03,499.873 29.002,492.785 52.539,481.595C64.398,475.957 71.184,471.32 79.095,463.45C87.373,455.214 90.533,449.415 91.078,441.457C91.463,435.839 89.636,429.064 87.643,428.718C86.739,428.561 69.657,437.885 57.103,445.386C55.775,446.18 54.501,446.641 54.272,446.412C54.043,446.182 53.396,443.161 52.835,439.697C51.416,430.927 50.138,428.269 45.944,425.361C39.468,420.871 38.149,419.428 35.514,413.95C33.198,409.135 32.538,408.371 29.749,407.275C24.571,405.241 18.643,401.324 18.643,399.937C18.643,398.504 23.415,384.901 26.429,377.743C27.509,375.177 28.393,372.943 28.393,372.778C28.393,372.047 11.773,360.156 9.318,359.13C6.128,357.797 -5.108,356.586 -14.732,356.537C-24.192,356.489 -30.74,355.416 -39.857,352.419C-52.453,348.279 -53.122,348.207 -64.142,349.824C-72.827,351.099 -74.402,351.564 -78.083,353.936C-87.855,360.235 -95.632,362.498 -107.576,362.52C-111.616,362.528 -117.491,363.064 -120.632,363.712C-130.831,365.819 -133.81,367.346 -141.212,374.255C-150.586,383.007 -156.738,387.132 -167.906,392.156C-179.674,397.45 -180.987,398.36 -182.707,402.426C-186.667,411.786 -188.553,415.316 -193.12,421.913C-200.447,432.495 -202.167,436.616 -201.583,442.197C-200.144,455.965 -185.262,471.107 -162.713,481.743C-130.028,497.16 -82.475,504.82 -36.857,502.015ZM86.388,408.706C105.258,397.17 116.404,387.986 119.756,381.212C121.504,377.678 121.277,376.394 118.258,372.731C110.828,363.717 81.458,346.381 68.542,343.386C62.565,342 61.376,342.478 57.784,347.709C52.257,355.76 38.893,386.597 38.893,391.301C38.893,391.927 40.579,393.357 42.64,394.479C45.911,396.259 46.709,397.196 48.92,401.854C51.062,406.366 52.047,407.56 55.293,409.577C57.687,411.066 59.971,413.318 61.361,415.561C65.046,421.507 64.641,421.383 70.247,418.282C73.009,416.754 80.272,412.445 86.388,408.706Z" style="fill:rgb(3,4,3);fill-rule:nonzero;"/>
                </g>
                <g id="path14586" transform="matrix(0.264583,0,0,0.264583,0,0)">
                    <path d="M774.254,1918.02C764.804,1917.38 738.175,1914.95 715.077,1912.6C518.928,1892.66 303.241,1812.59 194.664,1719.4C164.876,1693.83 161.55,1686.21 154.687,1627.76C150.295,1590.36 147.286,1575.86 140.249,1558.18C123.886,1517.06 121.089,1438.81 134.563,1399.09C148.339,1358.49 192.013,1309.56 249.024,1270.85C279.293,1250.3 297.176,1239.93 299.066,1241.82C301.1,1243.85 281.124,1286.38 268.314,1307.29C261.154,1318.97 249.944,1337.25 243.404,1347.91C223.329,1380.62 219.159,1393.67 218.942,1424.46C218.587,1474.66 235.72,1511.48 280.313,1556.34C352.047,1628.51 476.364,1682.99 635.378,1711.95C688.193,1721.56 721.076,1724.94 790.755,1727.91C893.533,1732.29 999.393,1725.45 1082.07,1709.09C1300.06,1665.96 1450.46,1573.24 1478.71,1464.55C1486.2,1435.74 1483.68,1388.38 1473.48,1366.13C1469.24,1356.88 1465.77,1348.34 1465.77,1347.14C1465.77,1345.95 1472.9,1339.59 1481.61,1333.01C1492.31,1324.93 1499.2,1321.6 1502.83,1322.75C1513.45,1326.12 1540.02,1356.57 1551.3,1378.3C1564.98,1404.66 1568.85,1424.01 1568.85,1465.86C1568.85,1504.13 1564.84,1539.15 1557.34,1566.2C1554.28,1577.22 1547.26,1609.15 1541.73,1637.15C1536.21,1665.15 1529.79,1691.73 1527.48,1696.2C1521.49,1707.78 1497.71,1728.34 1465.96,1749.39C1339.94,1832.93 1165.21,1891.22 976.125,1912.79C938.875,1917.04 809.633,1920.38 774.254,1918.02Z" style="fill:white;fill-rule:nonzero;stroke:white;stroke-width:10.71px;"/>
                </g>
                <g id="path14588" transform="matrix(0.264583,0,0,0.264583,0,0)">
                    <path d="M765.663,2210.16C760.939,2209.5 740.322,2206.95 719.849,2204.49C500.183,2178.13 333.733,2077.44 243.125,1916.12C237.999,1906.99 234.341,1898.99 234.996,1898.33C235.651,1897.68 246.27,1904.69 258.593,1913.92C282.501,1931.82 340.38,1965.19 373.374,1980.08C475.258,2026.08 584.213,2055.51 708.395,2070.59C769.515,2078.01 928.084,2078.05 987.579,2070.66C1159.3,2049.34 1318.15,1996.12 1418.05,1926.42C1430.39,1917.81 1441.15,1911.44 1441.96,1912.25C1444,1914.29 1411.19,1962.69 1391.21,1987.12C1369.16,2014.09 1317.5,2063.74 1291.1,2083.35C1205.07,2147.22 1111.54,2184.66 986.437,2205.29C961.451,2209.41 787.642,2213.25 765.663,2210.16L765.663,2210.16Z" style="fill:white;fill-rule:nonzero;stroke:white;stroke-width:10.71px;"/>
                </g>
            </g>
        </g>
    </g>
</svg>
