<svg xmlns="http://www.w3.org/2000/svg" viewbox="0 0 175 175">
  <path fill="#14aace" d="M164.99 92.915c-22.385 14.99-34.72 23.247-42.186 26.739-12.275 5.737-24.335 8.663-35.03 8.663-6.773 0-13.002-1.175-18.393-3.542-8.028-3.55-13.854-9.876-16.845-18.286-.921-2.584-7.984-25.684 26.837-41.74a55.143 55.143 0 0 1 2.151-.92c-1.976-.342-4.235-.651-7.096-1.011-30.51-2.81-50.172 4.905-72.112 28.396v31.665c0 7.038 1.357 13.715 4.035 20.016 2.696 6.324 6.364 11.799 11.022 16.454 4.66 4.657 10.147 8.33 16.45 11.02 6.321 2.694 12.989 4.033 20.014 4.033h119.807v-87.27c-3.033 2.02-5.915 3.958-8.655 5.783"/>
  <path fill="#414f5c" d="M74.03 55.278c8.273 1.024 11.905 1.764 17.745 3.612l9.244 2.928-9.38 2.45c-4.084 1.068-7.478 2.008-10.914 3.594-29.673 13.67-25.122 31.361-23.916 34.764 2.471 6.934 7.252 12.132 13.834 15.044 12.429 5.464 30.216 3.616 48.788-5.068 7.082-3.316 20.02-11.974 41.446-26.315 3.658-2.45 7.583-5.073 11.768-7.873V52.388c0-7.018-1.34-13.705-4.03-20.005-2.679-6.316-6.37-11.85-11.012-16.615-4.663-4.754-10.103-8.48-16.298-11.169-6.221-2.687-12.934-4.03-20.178-4.03H1.319v80.609c21.53-21.372 42.454-28.692 72.712-25.9"/>
  <path fill="#fff" d="M148.953 39.487l-1.932.058c-.384 0-.629.018-1.3.053-1.602.075-4.872.46-4.872.46-6.226 1.343-8.269 4.861-8.9 9.04-.229 1.476-.312 2.895-.384 4.49-.034.673-.053.913-.053 1.298l-.057 1.55h-.155l-.056-1.55c0-.385-.02-.625-.053-1.299-.078-1.594-.147-3.013-.388-4.49-.623-4.178-2.674-7.696-8.904-9.04 0 0-3.263-.384-4.87-.46-.662-.034-.913-.052-1.29-.052l-1.934-.058v-.142l1.934-.04a61.49 61.49 0 0 0 1.29-.062c1.607-.07 4.87-.452 4.87-.452 6.23-1.36 8.281-4.874 8.904-9.061.241-1.45.31-2.899.388-4.476.033-.679.053-.912.053-1.307l.056-1.538h.155l.057 1.538c0 .395.019.628.053 1.307.072 1.577.155 3.027.384 4.476.631 4.187 2.674 7.701 8.9 9.061 0 0 3.27.382 4.872.452.671.036.916.05 1.3.063l1.932.039v.142"/>
</svg>