<svg id="Layer_1" data-name="Layer 1" xmlns="http://www.w3.org/2000/svg" xmlns:xlink="http://www.w3.org/1999/xlink" viewBox="0 0 128.5 128.89"><defs><style>.cls-1{fill:none;}.cls-2{clip-path:url(#clip-path);}.cls-3{fill:#00a8cb;}.cls-4{fill:#425968;}.cls-5{fill:#fff;}</style><clipPath id="clip-path" transform="translate(-187.45 -10.88)"><rect class="cls-1" x="11" y="10.88" width="481.39" height="264.12"/></clipPath></defs><title>Northwave Logo Strap</title><g class="cls-2"><path class="cls-3" d="M309.45,78.66c-16.78,11.24-26,17.43-31.64,20-9.2,4.31-18.25,6.5-26.27,6.5a34.13,34.13,0,0,1-13.79-2.66,23.08,23.08,0,0,1-12.64-13.71c-.69-1.94-6-19.26,20.13-31.3.54-.25,1.08-.48,1.61-.7-1.48-.25-3.17-.48-5.32-.75C218.65,54,203.9,59.77,187.45,77.38v23.75a38.11,38.11,0,0,0,3,15,38.34,38.34,0,0,0,20.61,20.61,37.87,37.87,0,0,0,15,3h89.85V74.32l-6.49,4.34" transform="translate(-187.45 -10.88)"/><path class="cls-4" d="M242,51.92a62.26,62.26,0,0,1,13.31,2.71l6.93,2.19-7,1.84A47.67,47.67,0,0,0,247,61.35c-22.25,10.26-18.84,23.53-17.93,26.08a18.93,18.93,0,0,0,10.37,11.28c9.32,4.1,22.66,2.71,36.59-3.8,5.31-2.49,15-9,31.09-19.74l8.82-5.9V49.75a37.83,37.83,0,0,0-3-15,40.38,40.38,0,0,0-8.26-12.46,38.39,38.39,0,0,0-12.22-8.37,37.67,37.67,0,0,0-15.14-3H187.45V71.34c16.15-16,31.84-21.52,54.53-19.42" transform="translate(-187.45 -10.88)"/><path class="cls-5" d="M297.43,38.69l-1.45,0c-.29,0-.48,0-1,0-1.2.06-3.65.35-3.65.35-4.67,1-6.2,3.64-6.68,6.78a32.32,32.32,0,0,0-.29,3.36c0,.51,0,.69,0,1l0,1.16h-.11l-.05-1.16c0-.29,0-.47,0-1a27.64,27.64,0,0,0-.29-3.36c-.46-3.14-2-5.78-6.68-6.78,0,0-2.44-.29-3.65-.35-.49,0-.68,0-1,0l-1.44,0v-.11l1.44,0,1,0c1.21-.06,3.65-.34,3.65-.34,4.68-1,6.22-3.66,6.68-6.8A27.46,27.46,0,0,0,284.1,28c0-.51,0-.68,0-1l.05-1.15h.11l0,1.15c0,.3,0,.47,0,1a32.09,32.09,0,0,0,.29,3.36c.48,3.14,2,5.78,6.68,6.8,0,0,2.45.28,3.65.34l1,0,1.45,0Z" transform="translate(-187.45 -10.88)"/></g></svg>