<svg data-name="Layer 1" xmlns="http://www.w3.org/2000/svg" viewBox="0 0 128.5 128.89"><defs><clipPath id="a" transform="translate(-187.45 -10.88)"><path fill="none" d="M11 10.88h481.39V275H11z"/></clipPath></defs><g clip-path="url(#a)"><path d="M122 67.78c-16.78 11.24-26 17.43-31.64 20-9.2 4.31-18.25 6.5-26.27 6.5a34.13 34.13 0 01-13.79-2.66 23.08 23.08 0 01-12.64-13.71c-.69-1.94-6-19.26 20.13-31.3.54-.25 1.08-.48 1.61-.7-1.48-.25-3.17-.48-5.32-.75C31.2 43.12 16.45 48.89 0 66.5v23.75a38.11 38.11 0 003 15 38.34 38.34 0 0020.61 20.61 37.87 37.87 0 0015 3h89.85V63.44l-6.49 4.34" fill="#00a8cb"/><path d="M54.55 41.04a62.26 62.26 0 0113.31 2.71l6.93 2.19-7 1.84a47.67 47.67 0 00-8.24 2.69C37.3 60.73 40.71 74 41.62 76.55a18.93 18.93 0 0010.37 11.28c9.32 4.1 22.66 2.71 36.59-3.8 5.31-2.49 15-9 31.09-19.74l8.82-5.9V38.87a37.83 37.83 0 00-3-15 40.38 40.38 0 00-8.26-12.46 38.39 38.39 0 00-12.22-8.37 37.67 37.67 0 00-15.14-3H0v60.42c16.15-16 31.84-21.52 54.53-19.42" fill="#425968"/><path d="M109.98 27.81h-2.45c-1.2.06-3.65.35-3.65.35-4.67 1-6.2 3.64-6.68 6.78a32.32 32.32 0 00-.29 3.36v2.16h-.11l-.05-1.16v-1a27.64 27.64 0 00-.29-3.36c-.46-3.14-2-5.78-6.68-6.78 0 0-2.44-.29-3.65-.35h-2.44v-.11h2.44c1.21-.06 3.65-.34 3.65-.34 4.68-1 6.22-3.66 6.68-6.8a27.46 27.46 0 00.19-3.44v-1l.05-1.15h.11v2.15a32.09 32.09 0 00.29 3.36c.48 3.14 2 5.78 6.68 6.8 0 0 2.45.28 3.65.34h2.45z" fill="#fff"/></g></svg>