<?xml version="1.0" encoding="UTF-8" standalone="no" ?>
<!DOCTYPE svg PUBLIC "-//W3C//DTD SVG 1.1//EN" "http://www.w3.org/Graphics/SVG/1.1/DTD/svg11.dtd">
<svg xmlns="http://www.w3.org/2000/svg" xmlns:xlink="http://www.w3.org/1999/xlink" version="1.1" width="560" height="560" viewBox="0 0 560 560" xml:space="preserve">
<desc>Created with Fabric.js 5.2.4</desc>
<defs>
</defs>
<g transform="matrix(0 0 0 0 0 0)" id="36b48ccb-0867-48fa-a2dc-12140642785f"  >
</g>
<g transform="matrix(1 0 0 1 280 280)" id="9245f497-52f1-4026-83f1-e0fbbc6d0eeb"  >
<rect style="stroke: none; stroke-width: 1; stroke-dasharray: none; stroke-linecap: butt; stroke-dashoffset: 0; stroke-linejoin: miter; stroke-miterlimit: 4; fill: rgb(255,255,255); fill-rule: nonzero; opacity: 1; visibility: hidden;" vector-effect="non-scaling-stroke"  x="-280" y="-280" rx="0" ry="0" width="560" height="560" />
</g>
<g transform="matrix(1 0 0 1 280 280)"  >
<g style="" vector-effect="non-scaling-stroke"   >
		<g transform="matrix(1 0 0 1 -0.5 0)"  >
<rect style="stroke: none; stroke-width: 1; stroke-dasharray: none; stroke-linecap: butt; stroke-dashoffset: 0; stroke-linejoin: miter; stroke-miterlimit: 4; fill: rgb(255,255,255); fill-rule: nonzero; opacity: 1; visibility: hidden;" vector-effect="non-scaling-stroke"  x="-280" y="-280" rx="0" ry="0" width="560" height="560" />
</g>
		<g transform="matrix(1 0 0 1 -0.5 123)"  >
<path style="stroke: rgb(0,21,37); stroke-width: 0; stroke-dasharray: none; stroke-linecap: butt; stroke-dashoffset: 0; stroke-linejoin: miter; stroke-miterlimit: 4; fill: rgb(0,21,37); fill-rule: nonzero; opacity: 1;" vector-effect="non-scaling-stroke"  transform=" translate(-280, -402.5)" d="M 35 245 C 35 245 70 245 70 245 C 70 245 70 455 70 455 C 70 455 245 455 245 455 C 245 455 245 490 245 490 C 245 490 70 490 70 490 C 70 490 70 525 70 525 C 70 525 455 525 455 525 C 455 525 455 490 455 490 C 455 490 350 490 350 490 C 350 490 350 455 350 455 C 350 455 455 455 455 455 C 455 455 455 490 455 490 C 455 490 490 490 490 490 C 490 490 490 455 490 455 C 490 455 525 455 525 455 C 525 455 525 280 525 280 C 525 280 560 280 560 280 C 560 280 560 455 560 455 C 560 455 525 455 525 455 C 525 455 525 490 525 490 C 525 490 490 490 490 490 C 490 490 490 525 490 525 C 490 525 455 525 455 525 C 455 525 455 560 455 560 C 455 560 70 560 70 560 C 70 560 70 525 70 525 C 70 525 35 525 35 525 C 35 525 35 490 35 490 C 35 490 0 490 0 490 C 0 490 0 455 0 455 C 0 455 35 455 35 455 C 35 455 35 245 35 245 Z M 420 245 C 420 245 455 245 455 245 C 455 245 455 280 455 280 C 455 280 420 280 420 280 C 420 280 420 245 420 245 Z M 280 350 C 280 350 350 350 350 350 C 350 350 350 385 350 385 C 350 385 280 385 280 385 C 280 385 280 350 280 350 Z M 70 455 C 70 455 35 455 35 455 C 35 455 35 490 35 490 C 35 490 70 490 70 490 C 70 490 70 455 70 455 Z" stroke-linecap="round" />
</g>
		<g transform="matrix(1 0 0 1 -18 53.5)"  >
<path style="stroke: rgb(100,126,145); stroke-width: 1; stroke-dasharray: none; stroke-linecap: butt; stroke-dashoffset: 0; stroke-linejoin: miter; stroke-miterlimit: 4; fill: rgb(100,126,145); fill-rule: nonzero; opacity: 1;" vector-effect="non-scaling-stroke"  transform=" translate(-262.5, -332.5)" d="M 245 140 C 245 140 350 140 350 140 C 350 140 350 175 350 175 C 350 175 245 175 245 175 C 245 175 245 140 245 140 Z M 0 280 C 0 280 35 280 35 280 C 35 280 35 455 35 455 C 35 455 70 455 70 455 C 70 455 70 490 70 490 C 70 490 455 490 455 490 C 455 490 455 455 455 455 C 455 455 350 455 350 455 C 350 455 350 420 350 420 C 350 420 455 420 455 420 C 455 420 455 455 455 455 C 455 455 490 455 490 455 C 490 455 490 280 490 280 C 490 280 525 280 525 280 C 525 280 525 455 525 455 C 525 455 490 455 490 455 C 490 455 490 490 490 490 C 490 490 455 490 455 490 C 455 490 455 525 455 525 C 455 525 70 525 70 525 C 70 525 70 490 70 490 C 70 490 35 490 35 490 C 35 490 35 455 35 455 C 35 455 0 455 0 455 C 0 455 0 280 0 280 Z M 280 315 C 280 315 350 315 350 315 C 350 315 350 350 350 350 C 350 350 280 350 280 350 C 280 350 280 315 280 315 Z M 105 420 C 105 420 245 420 245 420 C 245 420 245 455 245 455 C 245 455 105 455 105 455 C 105 455 105 420 105 420 Z" stroke-linecap="round" />
</g>
		<g transform="matrix(1 0 0 1 -18 -139.5)"  >
<path style="stroke: rgb(134,153,165); stroke-width: 1; stroke-dasharray: none; stroke-linecap: butt; stroke-dashoffset: 0; stroke-linejoin: miter; stroke-miterlimit: 4; fill: rgb(134,153,165); fill-rule: nonzero; opacity: 1;" vector-effect="non-scaling-stroke"  transform=" translate(-262.5, -140)" d="M 350 0 C 350 0 385 0 385 0 C 385 0 385 35 385 35 C 385 35 350 35 350 35 C 350 35 350 0 350 0 Z M 420 0 C 420 0 455 0 455 0 C 455 0 455 35 455 35 C 455 35 490 35 490 35 C 490 35 490 70 490 70 C 490 70 525 70 525 70 C 525 70 525 280 525 280 C 525 280 490 280 490 280 C 490 280 490 70 490 70 C 490 70 455 70 455 70 C 455 70 455 35 455 35 C 455 35 420 35 420 35 C 420 35 420 0 420 0 Z M 0 175 C 0 175 35 175 35 175 C 35 175 35 280 35 280 C 35 280 0 280 0 280 C 0 280 0 175 0 175 Z" stroke-linecap="round" />
</g>
		<g transform="matrix(1 0 0 1 -53 -139.5)"  >
<path style="stroke: rgb(151,181,193); stroke-width: 1; stroke-dasharray: none; stroke-linecap: butt; stroke-dashoffset: 0; stroke-linejoin: miter; stroke-miterlimit: 4; fill: rgb(151,181,193); fill-rule: nonzero; opacity: 1;" vector-effect="non-scaling-stroke"  transform=" translate(-227.5, -140)" d="M 70 0 C 70 0 350 0 350 0 C 350 0 350 35 350 35 C 350 35 70 35 70 35 C 70 35 70 70 70 70 C 70 70 35 70 35 70 C 35 70 35 175 35 175 C 35 175 0 175 0 175 C 0 175 0 70 0 70 C 0 70 35 70 35 70 C 35 70 35 35 35 35 C 35 35 70 35 70 35 C 70 35 70 0 70 0 Z M 385 0 C 385 0 420 0 420 0 C 420 0 420 35 420 35 C 420 35 385 35 385 35 C 385 35 385 0 385 0 Z M 420 210 C 420 210 455 210 455 210 C 455 210 455 245 455 245 C 455 245 420 245 420 245 C 420 245 420 280 420 280 C 420 280 385 280 385 280 C 385 280 385 245 385 245 C 385 245 420 245 420 245 C 420 245 420 210 420 210 Z" stroke-linecap="round" />
</g>
		<g transform="matrix(1 0 0 1 17.5 -34)"  >
<path style="stroke: rgb(0,47,84); stroke-width: 2; stroke-dasharray: none; stroke-linecap: butt; stroke-dashoffset: 0; stroke-linejoin: miter; stroke-miterlimit: 4; fill: rgb(0,47,84); fill-rule: nonzero; opacity: 1;" vector-effect="non-scaling-stroke"  transform=" translate(-297.5, -245)" d="M 455 0 C 455 0 490 0 490 0 C 490 0 490 35 490 35 C 490 35 525 35 525 35 C 525 35 525 70 525 70 C 525 70 560 70 560 70 C 560 70 560 280 560 280 C 560 280 525 280 525 280 C 525 280 525 70 525 70 C 525 70 490 70 490 70 C 490 70 490 105 490 105 C 490 105 455 105 455 105 C 455 105 455 70 455 70 C 455 70 105 70 105 70 C 105 70 105 105 105 105 C 105 105 70 105 70 105 C 70 105 70 245 70 245 C 70 245 105 245 105 245 C 105 245 105 455 105 455 C 105 455 70 455 70 455 C 70 455 70 245 70 245 C 70 245 35 245 35 245 C 35 245 35 70 35 70 C 35 70 70 70 70 70 C 70 70 70 35 70 35 C 70 35 455 35 455 35 C 455 35 455 0 455 0 Z M 490 35 C 490 35 455 35 455 35 C 455 35 455 70 455 70 C 455 70 490 70 490 70 C 490 70 490 35 490 35 Z M 245 175 C 245 175 350 175 350 175 C 350 175 350 210 350 210 C 350 210 245 210 245 210 C 245 210 245 175 245 175 Z M 245 245 C 245 245 280 245 280 245 C 280 245 280 385 280 385 C 280 385 350 385 350 385 C 350 385 350 490 350 490 C 350 490 245 490 245 490 C 245 490 245 245 245 245 Z M 455 245 C 455 245 490 245 490 245 C 490 245 490 455 490 455 C 490 455 455 455 455 455 C 455 455 455 245 455 245 Z" stroke-linecap="round" />
</g>
		<g transform="matrix(1 0 0 1 0.5 -121)"  >
<path style="stroke: rgb(37,80,114); stroke-width: 2; stroke-dasharray: none; stroke-linecap: butt; stroke-dashoffset: 0; stroke-linejoin: miter; stroke-miterlimit: 4; fill: rgb(37,80,114); fill-rule: nonzero; opacity: 1;" vector-effect="non-scaling-stroke"  transform=" translate(-280, -157.5)" d="M 420 70 C 420 70 455 70 455 70 C 455 70 455 105 455 105 C 455 105 490 105 490 105 C 490 105 490 245 490 245 C 490 245 455 245 455 245 C 455 245 455 105 455 105 C 455 105 420 105 420 105 C 420 105 420 70 420 70 Z M 70 105 C 70 105 105 105 105 105 C 105 105 105 245 105 245 C 105 245 70 245 70 245 C 70 245 70 105 70 105 Z M 245 210 C 245 210 350 210 350 210 C 350 210 350 245 350 245 C 350 245 245 245 245 245 C 245 245 245 210 245 210 Z" stroke-linecap="round" />
</g>
		<g transform="matrix(1 0 0 1 0.5 -17)"  >
<path style="stroke: rgb(173,216,230); stroke-width: 2; stroke-dasharray: none; stroke-linecap: butt; stroke-dashoffset: 0; stroke-linejoin: miter; stroke-miterlimit: 4; fill: rgb(173,216,230); fill-rule: nonzero; opacity: 1;" vector-effect="non-scaling-stroke"  transform=" translate(-280, -262.5)" d="M 105 105 C 105 105 420 105 420 105 C 420 105 420 140 420 140 C 420 140 455 140 455 140 C 455 140 455 210 455 210 C 455 210 420 210 420 210 C 420 210 420 245 420 245 C 420 245 385 245 385 245 C 385 245 385 280 385 280 C 385 280 420 280 420 280 C 420 280 420 315 420 315 C 420 315 455 315 455 315 C 455 315 455 420 455 420 C 455 420 350 420 350 420 C 350 420 350 315 350 315 C 350 315 280 315 280 315 C 280 315 280 280 280 280 C 280 280 350 280 350 280 C 350 280 350 140 350 140 C 350 140 245 140 245 140 C 245 140 245 420 245 420 C 245 420 105 420 105 420 C 105 420 105 105 105 105 Z" stroke-linecap="round" />
</g>
</g>
</g>
<g transform="matrix(1 0 0 1 281 193)"  >
<path style="stroke: rgb(234,245,249); stroke-width: 2; stroke-dasharray: none; stroke-linecap: butt; stroke-dashoffset: 0; stroke-linejoin: miter; stroke-miterlimit: 4; fill: rgb(234,245,249); fill-rule: nonzero; opacity: 1;" vector-effect="non-scaling-stroke"  transform=" translate(-280, -192.5)" d="M 105 70 C 105 70 420 70 420 70 C 420 70 420 105 420 105 C 420 105 455 105 455 105 C 455 105 455 140 455 140 C 455 140 420 140 420 140 C 420 140 420 105 420 105 C 420 105 105 105 105 105 C 105 105 105 70 105 70 Z M 280 245 C 280 245 350 245 350 245 C 350 245 350 280 350 280 C 350 280 280 280 280 280 C 280 280 280 245 280 245 Z M 420 280 C 420 280 455 280 455 280 C 455 280 455 315 455 315 C 455 315 420 315 420 315 C 420 315 420 280 420 280 Z" stroke-linecap="round" />
</g>
<g transform="matrix(0 0 0 0 0 0)"  >
<g style=""   >
</g>
</g>
<g transform="matrix(0 0 0 0 0 0)"  >
<g style=""   >
</g>
</g>
<g transform="matrix(1 0 0 1 280 261)"  >
<path style="stroke: rgb(173,216,230); stroke-width: 0; stroke-dasharray: none; stroke-linecap: butt; stroke-dashoffset: 0; stroke-linejoin: miter; stroke-miterlimit: 4; fill: rgb(173,216,230); fill-rule: nonzero; opacity: 1;" vector-effect="non-scaling-stroke"  transform=" translate(-280, -262.5)" d="M 105 105 C 105 105 420 105 420 105 C 420 105 420 140 420 140 C 420 140 455 140 455 140 C 455 140 455 210 455 210 C 455 210 420 210 420 210 C 420 210 420 245 420 245 C 420 245 385 245 385 245 C 385 245 385 280 385 280 C 385 280 420 280 420 280 C 420 280 420 315 420 315 C 420 315 455 315 455 315 C 455 315 455 420 455 420 C 455 420 350 420 350 420 C 350 420 350 315 350 315 C 350 315 280 315 280 315 C 280 315 280 280 280 280 C 280 280 350 280 350 280 C 350 280 350 140 350 140 C 350 140 245 140 245 140 C 245 140 245 420 245 420 C 245 420 105 420 105 420 C 105 420 105 105 105 105 Z" stroke-linecap="round" />
</g>
<g transform="matrix(0 0 0 0 0 0)"  >
<g style=""   >
</g>
</g>
<g transform="matrix(0 0 0 0 0 0)"  >
<g style=""   >
</g>
</g>
<g transform="matrix(1 0 0 1 280 156)"  >
<path style="stroke: rgb(37,80,114); stroke-width: 0; stroke-dasharray: none; stroke-linecap: butt; stroke-dashoffset: 0; stroke-linejoin: miter; stroke-miterlimit: 4; fill: rgb(37,80,114); fill-rule: nonzero; opacity: 1;" vector-effect="non-scaling-stroke"  transform=" translate(-280, -157.5)" d="M 420 70 C 420 70 455 70 455 70 C 455 70 455 105 455 105 C 455 105 490 105 490 105 C 490 105 490 245 490 245 C 490 245 455 245 455 245 C 455 245 455 105 455 105 C 455 105 420 105 420 105 C 420 105 420 70 420 70 Z M 70 105 C 70 105 105 105 105 105 C 105 105 105 245 105 245 C 105 245 70 245 70 245 C 70 245 70 105 70 105 Z M 245 210 C 245 210 350 210 350 210 C 350 210 350 245 350 245 C 350 245 245 245 245 245 C 245 245 245 210 245 210 Z" stroke-linecap="round" />
</g>
<g transform="matrix(0 0 0 0 0 0)"  >
<g style=""   >
</g>
</g>
<g transform="matrix(0 0 0 0 0 0)"  >
<g style=""   >
</g>
</g>
<g transform="matrix(1 0 0 1 297 245)"  >
<path style="stroke: rgb(0,47,84); stroke-width: 0; stroke-dasharray: none; stroke-linecap: butt; stroke-dashoffset: 0; stroke-linejoin: miter; stroke-miterlimit: 4; fill: rgb(0,47,84); fill-rule: nonzero; opacity: 1;" vector-effect="non-scaling-stroke"  transform=" translate(-297.5, -245)" d="M 455 0 C 455 0 490 0 490 0 C 490 0 490 35 490 35 C 490 35 525 35 525 35 C 525 35 525 70 525 70 C 525 70 560 70 560 70 C 560 70 560 280 560 280 C 560 280 525 280 525 280 C 525 280 525 70 525 70 C 525 70 490 70 490 70 C 490 70 490 105 490 105 C 490 105 455 105 455 105 C 455 105 455 70 455 70 C 455 70 105 70 105 70 C 105 70 105 105 105 105 C 105 105 70 105 70 105 C 70 105 70 245 70 245 C 70 245 105 245 105 245 C 105 245 105 455 105 455 C 105 455 70 455 70 455 C 70 455 70 245 70 245 C 70 245 35 245 35 245 C 35 245 35 70 35 70 C 35 70 70 70 70 70 C 70 70 70 35 70 35 C 70 35 455 35 455 35 C 455 35 455 0 455 0 Z M 490 35 C 490 35 455 35 455 35 C 455 35 455 70 455 70 C 455 70 490 70 490 70 C 490 70 490 35 490 35 Z M 245 175 C 245 175 350 175 350 175 C 350 175 350 210 350 210 C 350 210 245 210 245 210 C 245 210 245 175 245 175 Z M 245 245 C 245 245 280 245 280 245 C 280 245 280 385 280 385 C 280 385 350 385 350 385 C 350 385 350 490 350 490 C 350 490 245 490 245 490 C 245 490 245 245 245 245 Z M 455 245 C 455 245 490 245 490 245 C 490 245 490 455 490 455 C 490 455 455 455 455 455 C 455 455 455 245 455 245 Z" stroke-linecap="round" />
</g>
<g transform="matrix(0 0 0 0 0 0)"  >
<g style=""   >
</g>
</g>
<g transform="matrix(0 0 0 0 0 0)"  >
<g style=""   >
</g>
</g>
<g transform="matrix(1 0 0 1 228 140)"  >
<path style="stroke: rgb(151,181,193); stroke-width: 0; stroke-dasharray: none; stroke-linecap: butt; stroke-dashoffset: 0; stroke-linejoin: miter; stroke-miterlimit: 4; fill: rgb(151,181,193); fill-rule: nonzero; opacity: 1;" vector-effect="non-scaling-stroke"  transform=" translate(-227.5, -140)" d="M 70 0 C 70 0 350 0 350 0 C 350 0 350 35 350 35 C 350 35 70 35 70 35 C 70 35 70 70 70 70 C 70 70 35 70 35 70 C 35 70 35 175 35 175 C 35 175 0 175 0 175 C 0 175 0 70 0 70 C 0 70 35 70 35 70 C 35 70 35 35 35 35 C 35 35 70 35 70 35 C 70 35 70 0 70 0 Z M 385 0 C 385 0 420 0 420 0 C 420 0 420 35 420 35 C 420 35 385 35 385 35 C 385 35 385 0 385 0 Z M 420 210 C 420 210 455 210 455 210 C 455 210 455 245 455 245 C 455 245 420 245 420 245 C 420 245 420 280 420 280 C 420 280 385 280 385 280 C 385 280 385 245 385 245 C 385 245 420 245 420 245 C 420 245 420 210 420 210 Z" stroke-linecap="round" />
</g>
<g transform="matrix(0 0 0 0 0 0)"  >
<g style=""   >
</g>
</g>
<g transform="matrix(0 0 0 0 0 0)"  >
<g style=""   >
</g>
</g>
<g transform="matrix(1 0 0 1 263 140)"  >
<path style="stroke: rgb(134,153,165); stroke-width: 0; stroke-dasharray: none; stroke-linecap: butt; stroke-dashoffset: 0; stroke-linejoin: miter; stroke-miterlimit: 4; fill: rgb(134,153,165); fill-rule: nonzero; opacity: 1;" vector-effect="non-scaling-stroke"  transform=" translate(-262.5, -140)" d="M 350 0 C 350 0 385 0 385 0 C 385 0 385 35 385 35 C 385 35 350 35 350 35 C 350 35 350 0 350 0 Z M 420 0 C 420 0 455 0 455 0 C 455 0 455 35 455 35 C 455 35 490 35 490 35 C 490 35 490 70 490 70 C 490 70 525 70 525 70 C 525 70 525 280 525 280 C 525 280 490 280 490 280 C 490 280 490 70 490 70 C 490 70 455 70 455 70 C 455 70 455 35 455 35 C 455 35 420 35 420 35 C 420 35 420 0 420 0 Z M 0 175 C 0 175 35 175 35 175 C 35 175 35 280 35 280 C 35 280 0 280 0 280 C 0 280 0 175 0 175 Z" stroke-linecap="round" />
</g>
<g transform="matrix(0 0 0 0 0 0)"  >
<g style=""   >
</g>
</g>
<g transform="matrix(0 0 0 0 0 0)"  >
<g style=""   >
</g>
</g>
<g transform="matrix(1 0 0 1 262 334)"  >
<path style="stroke: rgb(100,126,145); stroke-width: 0; stroke-dasharray: none; stroke-linecap: butt; stroke-dashoffset: 0; stroke-linejoin: miter; stroke-miterlimit: 4; fill: rgb(100,126,145); fill-rule: nonzero; opacity: 1;" vector-effect="non-scaling-stroke"  transform=" translate(-262.5, -332.5)" d="M 245 140 C 245 140 350 140 350 140 C 350 140 350 175 350 175 C 350 175 245 175 245 175 C 245 175 245 140 245 140 Z M 0 280 C 0 280 35 280 35 280 C 35 280 35 455 35 455 C 35 455 70 455 70 455 C 70 455 70 490 70 490 C 70 490 455 490 455 490 C 455 490 455 455 455 455 C 455 455 350 455 350 455 C 350 455 350 420 350 420 C 350 420 455 420 455 420 C 455 420 455 455 455 455 C 455 455 490 455 490 455 C 490 455 490 280 490 280 C 490 280 525 280 525 280 C 525 280 525 455 525 455 C 525 455 490 455 490 455 C 490 455 490 490 490 490 C 490 490 455 490 455 490 C 455 490 455 525 455 525 C 455 525 70 525 70 525 C 70 525 70 490 70 490 C 70 490 35 490 35 490 C 35 490 35 455 35 455 C 35 455 0 455 0 455 C 0 455 0 280 0 280 Z M 280 315 C 280 315 350 315 350 315 C 350 315 350 350 350 350 C 350 350 280 350 280 350 C 280 350 280 315 280 315 Z M 105 420 C 105 420 245 420 245 420 C 245 420 245 455 245 455 C 245 455 105 455 105 455 C 105 455 105 420 105 420 Z" stroke-linecap="round" />
</g>
<g transform="matrix(0 0 0 0 0 0)"  >
<g style=""   >
</g>
</g>
<g transform="matrix(0 0 0 0 0 0)"  >
<g style=""   >
</g>
</g>
<g transform="matrix(1 0 0 1 280 403)"  >
<path style="stroke: rgb(0,21,37); stroke-width: 0; stroke-dasharray: none; stroke-linecap: butt; stroke-dashoffset: 0; stroke-linejoin: miter; stroke-miterlimit: 4; fill: rgb(0,21,37); fill-rule: nonzero; opacity: 1;" vector-effect="non-scaling-stroke"  transform=" translate(-280, -402.5)" d="M 35 245 C 35 245 70 245 70 245 C 70 245 70 455 70 455 C 70 455 245 455 245 455 C 245 455 245 490 245 490 C 245 490 70 490 70 490 C 70 490 70 525 70 525 C 70 525 455 525 455 525 C 455 525 455 490 455 490 C 455 490 350 490 350 490 C 350 490 350 455 350 455 C 350 455 455 455 455 455 C 455 455 455 490 455 490 C 455 490 490 490 490 490 C 490 490 490 455 490 455 C 490 455 525 455 525 455 C 525 455 525 280 525 280 C 525 280 560 280 560 280 C 560 280 560 455 560 455 C 560 455 525 455 525 455 C 525 455 525 490 525 490 C 525 490 490 490 490 490 C 490 490 490 525 490 525 C 490 525 455 525 455 525 C 455 525 455 560 455 560 C 455 560 70 560 70 560 C 70 560 70 525 70 525 C 70 525 35 525 35 525 C 35 525 35 490 35 490 C 35 490 0 490 0 490 C 0 490 0 455 0 455 C 0 455 35 455 35 455 C 35 455 35 245 35 245 Z M 420 245 C 420 245 455 245 455 245 C 455 245 455 280 455 280 C 455 280 420 280 420 280 C 420 280 420 245 420 245 Z M 280 350 C 280 350 350 350 350 350 C 350 350 350 385 350 385 C 350 385 280 385 280 385 C 280 385 280 350 280 350 Z M 70 455 C 70 455 35 455 35 455 C 35 455 35 490 35 490 C 35 490 70 490 70 490 C 70 490 70 455 70 455 Z" stroke-linecap="round" />
</g>
<g transform="matrix(0 0 0 0 0 0)"  >
<g style=""   >
</g>
</g>
<g transform="matrix(0 0 0 0 0 0)"  >
<g style=""   >
</g>
</g>
<g transform="matrix(1 0 0 1 279 158)"  >
<path style="stroke: rgb(37,80,114); stroke-width: 0; stroke-dasharray: none; stroke-linecap: butt; stroke-dashoffset: 0; stroke-linejoin: miter; stroke-miterlimit: 4; fill: rgb(37,80,114); fill-rule: nonzero; opacity: 1;" vector-effect="non-scaling-stroke"  transform=" translate(-280, -157.5)" d="M 420 70 C 420 70 455 70 455 70 C 455 70 455 105 455 105 C 455 105 490 105 490 105 C 490 105 490 245 490 245 C 490 245 455 245 455 245 C 455 245 455 105 455 105 C 455 105 420 105 420 105 C 420 105 420 70 420 70 Z M 70 105 C 70 105 105 105 105 105 C 105 105 105 245 105 245 C 105 245 70 245 70 245 C 70 245 70 105 70 105 Z M 245 210 C 245 210 350 210 350 210 C 350 210 350 245 350 245 C 350 245 245 245 245 245 C 245 245 245 210 245 210 Z" stroke-linecap="round" />
</g>
<g transform="matrix(0 0 0 0 0 0)"  >
<g style=""   >
</g>
</g>
<g transform="matrix(0 0 0 0 0 0)"  >
<g style=""   >
</g>
</g>
<g transform="matrix(1 0 0 1 280 158)" id="Selection #5"  >
<path style="stroke: rgb(37,80,114); stroke-width: 0; stroke-dasharray: none; stroke-linecap: butt; stroke-dashoffset: 0; stroke-linejoin: miter; stroke-miterlimit: 4; fill: rgb(37,80,114); fill-rule: nonzero; opacity: 1;" vector-effect="non-scaling-stroke"  transform=" translate(-280, -157.5)" d="M 420 70 C 420 70 455 70 455 70 C 455 70 455 105 455 105 C 455 105 490 105 490 105 C 490 105 490 245 490 245 C 490 245 455 245 455 245 C 455 245 455 105 455 105 C 455 105 420 105 420 105 C 420 105 420 70 420 70 Z M 70 105 C 70 105 105 105 105 105 C 105 105 105 245 105 245 C 105 245 70 245 70 245 C 70 245 70 105 70 105 Z M 245 210 C 245 210 350 210 350 210 C 350 210 350 245 350 245 C 350 245 245 245 245 245 C 245 245 245 210 245 210 Z" stroke-linecap="round" />
</g>
<g transform="matrix(NaN NaN NaN NaN 0 0)"  >
<g style=""   >
</g>
</g>
<g transform="matrix(NaN NaN NaN NaN 0 0)"  >
<g style=""   >
</g>
</g>
</svg>