<svg version="1.1" id="Layer_1" xmlns="http://www.w3.org/2000/svg" xmlns:xlink="http://www.w3.org/1999/xlink" x="0px" y="0px" enable-background="new 0 0 90 90" xml:space="preserve" viewBox="14.49 14.90 60.91 60.20">
<g>
<g>
<g>
<g id="mark_1_">
<path fill="#071C26" d="M73.9,60.3C69,63,63.3,64.5,57.3,64.4c-17.7-0.4-31.8-14.7-31.5-32.1c0.1-5.9,1.9-11.4,4.9-16
                    c-9.5,5.3-16,15.2-16.2,26.7C14.1,60.4,28.3,74.7,46,75.1C57.7,75.3,68.1,69.4,73.9,60.3"></path>
<path fill="#0073EC" d="M47.9,14.9c-4.8,0-9.3,1.2-13.3,3.4c-2.5,4.1-3.9,8.8-4.1,13.6c-0.3,15.1,12,27.6,27.3,27.9l0,0
                    c4.6,0,9.8-1.1,13.8-3.3c2.4-4.1,3.8-8.9,3.8-14C75.5,27.3,63.1,14.9,47.9,14.9z"></path>
</g>
</g>
</g>
</g>
</svg>
