<svg viewBox="0.5 0.5730000138282776 298.7879943847656 76.85400390625" version="1.1" xmlns="http://www.w3.org/2000/svg" xmlns:xlink="http://www.w3.org/1999/xlink" xml:space="preserve" xmlns:serif="http://www.serif.com/" style="fill-rule:evenodd;clip-rule:evenodd;stroke-linejoin:round;stroke-miterlimit:2;">
    <path d="M38.939,35.429C38.939,34.016 38.893,32.678 38.893,31.507C38.893,24.055 35.319,20.329 32.318,18.515C29.253,16.813 25.795,15.946 22.289,15.998C14.852,15.998 9.373,18.092 5.987,22.211C4.035,24.652 2.856,27.62 2.601,30.736C2.594,30.816 2.594,30.897 2.601,30.977C2.694,31.973 3.159,32.897 3.903,33.565C4.646,34.233 5.615,34.596 6.614,34.583C7.559,34.679 8.504,34.408 9.255,33.828C10.007,33.247 10.506,32.4 10.65,31.461C11.512,27.456 13.424,23.745 21.594,23.745C25.924,23.745 28.751,24.637 30.232,26.473C30.74,27.022 31.126,27.672 31.365,28.38C31.603,29.089 31.689,29.84 31.615,30.584C31.615,31.945 31.101,33.608 27.081,34.492C24.473,35.059 21.73,35.376 19.077,35.678L17.807,35.83C2.767,37.606 0.5,45.541 0.5,50.106C0.5,58.389 10.461,63.075 17.656,63.302L18.986,63.302C21.708,63.362 24.414,62.887 26.952,61.904L27.171,61.813C29.659,60.865 31.912,59.391 33.778,57.492C35.643,55.593 37.076,53.313 37.979,50.809C39.15,47.658 39.045,41.158 38.939,35.429ZM31.29,43.856C31.29,53.348 22.176,55.427 18.661,55.427C13.87,55.427 8.708,52.88 8.708,48.753C8.708,44.309 12.706,42.911 21.11,41.626C23.294,41.294 26.854,40.667 29.212,40.213C29.926,40.064 30.622,39.841 31.29,39.548L31.29,43.856Z" style="fill:rgb(30,36,48);fill-rule:nonzero;"></path>
    <path d="M46.21,20.646C46.21,18.794 47.132,17.865 48.991,17.865L50.933,17.865C52.785,17.865 53.714,18.794 53.714,20.23L53.714,22.755C53.714,23.513 53.658,24.271 53.548,25.022L53.714,25.022C53.714,25.022 57.342,16.837 68.074,16.837C79.547,16.837 86.802,25.944 86.802,39.193C86.802,52.797 78.617,61.541 67.485,61.541C64.796,61.624 62.136,60.961 59.799,59.628C57.463,58.294 55.54,56.341 54.243,53.983L54.077,53.983C54.251,55.212 54.335,56.453 54.327,57.694L54.327,74.639C54.327,76.498 53.397,77.427 51.628,77.427L48.991,77.427C47.132,77.427 46.21,76.498 46.21,74.639L46.21,20.646ZM66.2,54.475C72.949,54.475 78.511,48.987 78.511,39.291C78.511,30.01 73.538,24.024 66.419,24.024C60.04,24.002 54.16,28.491 54.16,39.374C54.16,46.97 58.355,54.475 66.2,54.475Z" style="fill:rgb(30,36,48);fill-rule:nonzero;"></path>
    <path d="M94.216,20.646C94.216,18.794 95.138,17.865 96.998,17.865L98.94,17.865C100.792,17.865 101.721,18.794 101.721,20.23L101.721,22.755C101.721,23.513 101.665,24.271 101.555,25.022L101.721,25.022C101.721,25.022 105.349,16.837 116.081,16.837C127.554,16.837 134.809,25.944 134.809,39.193C134.809,52.797 126.632,61.541 115.491,61.541C112.802,61.624 110.143,60.961 107.806,59.628C105.47,58.294 103.547,56.341 102.25,53.983L102.084,53.983C102.258,55.212 102.341,56.453 102.333,57.694L102.333,74.639C102.333,76.498 101.404,77.427 99.635,77.427L97.02,77.427C95.161,77.427 94.239,76.498 94.239,74.639L94.216,20.646ZM114.207,54.475C120.956,54.475 126.518,48.987 126.518,39.291C126.518,30.01 121.545,24.024 114.426,24.024C108.017,24.024 102.114,28.491 102.114,39.374C102.152,46.97 106.369,54.475 114.214,54.475L114.207,54.475Z" style="fill:rgb(30,36,48);fill-rule:nonzero;"></path>
    <path d="M143.755,24.954L141.072,24.954C140.696,24.994 140.315,24.95 139.959,24.824C139.602,24.699 139.278,24.494 139.01,24.227C138.743,23.959 138.539,23.635 138.413,23.279C138.287,22.922 138.243,22.541 138.283,22.165L138.283,21.069C138.244,20.694 138.289,20.314 138.415,19.958C138.542,19.602 138.746,19.279 139.013,19.013C139.281,18.746 139.604,18.543 139.961,18.417C140.317,18.292 140.697,18.248 141.072,18.288L143.77,18.288L143.77,16.262C143.755,2.764 154.804,0.573 159.21,0.573L160.223,0.573C162.06,0.573 162.989,1.585 162.989,3.354L162.989,4.956C162.989,6.815 161.985,7.571 160.043,7.745C156.92,7.911 151.94,8.667 151.94,16.603L151.94,18.288L159.279,18.288C159.654,18.248 160.034,18.292 160.391,18.417C160.747,18.543 161.069,18.746 161.337,19.013C161.605,19.279 161.809,19.602 161.936,19.958C162.061,20.314 162.108,20.694 162.068,21.069L162.068,22.165C162.108,22.541 162.064,22.922 161.939,23.279C161.812,23.635 161.608,23.959 161.34,24.227C161.074,24.494 160.748,24.699 160.392,24.824C160.036,24.95 159.655,24.994 159.279,24.954L151.94,24.954L151.94,57.762C151.94,59.621 151.018,60.551 149.159,60.551L146.544,60.551C144.776,60.551 143.763,59.621 143.763,57.762L143.755,24.954Z" style="fill:rgb(30,36,48);fill-rule:nonzero;"></path>
    <path d="M186.283,16.852C199.025,16.852 209.312,26.216 209.312,39.125C209.312,52.033 199.025,61.556 186.283,61.556C173.54,61.556 163.345,52.109 163.345,39.117C163.345,26.126 173.571,16.852 186.283,16.852ZM186.283,54.475C194.384,54.475 200.959,48.066 200.959,39.125C200.959,30.184 194.384,23.941 186.283,23.941C178.181,23.941 171.606,30.267 171.606,39.117C171.606,47.967 178.271,54.475 186.283,54.475Z" style="fill:rgb(30,36,48);fill-rule:nonzero;"></path>
    <path d="M216.418,3.777C216.418,1.927 217.348,1 219.207,0.995L221.821,0.995C223.59,0.995 224.603,1.925 224.603,3.777L224.603,47.891C224.603,52.706 226.711,53.378 228.48,53.545C228.787,53.553 229.09,53.624 229.371,53.753C229.649,53.882 229.9,54.067 230.106,54.296C230.311,54.525 230.469,54.794 230.568,55.086C230.666,55.377 230.704,55.686 230.679,55.993L230.679,58.011C230.679,59.78 229.924,60.876 227.807,60.876C223.273,60.876 216.418,59.613 216.418,48.897L216.418,3.777Z" style="fill:rgb(30,36,48);fill-rule:nonzero;"></path>
    <path d="M238.033,20.646C238.033,18.794 239.045,17.864 240.815,17.864L243.429,17.864C245.288,17.864 246.21,18.794 246.21,20.646L246.21,57.762C246.21,59.621 245.288,60.551 243.429,60.551L240.837,60.551C239.068,60.551 238.055,59.621 238.055,57.762L238.033,20.646Z" style="fill:rgb(30,36,48);fill-rule:nonzero;"></path>
    <path d="M276.259,16.852C289.002,16.852 299.288,26.216 299.288,39.125C299.288,52.033 289.002,61.556 276.259,61.556C263.518,61.556 253.315,52.109 253.315,39.117C253.315,26.125 263.51,16.852 276.259,16.852ZM276.259,54.475C284.361,54.475 290.937,48.066 290.937,39.125C290.937,30.184 284.361,23.941 276.259,23.941C268.158,23.941 261.583,30.267 261.583,39.117C261.583,47.967 268.249,54.475 276.259,54.475Z" style="fill:rgb(30,36,48);fill-rule:nonzero;"></path>
</svg>