<svg xmlns:xlink="http://www.w3.org/1999/xlink" xmlns="http://www.w3.org/2000/svg" viewBox="0 0 500 500" class="_3GvuX75tn1ng1aYo__nuRr"><path d="M465.4 65h-220c-12.2 0-22.1-9.9-22.1-22.1s9.9-22.1 22.1-22.1h220c12.2 0 22.1 9.9 22.1 22.1S477.6 65 465.4 65zM325 166.6H135c-12.2 0-22.1-9.9-22.1-22.1s9.9-22.1 22.1-22.1h190c12.2 0 22.1 9.9 22.1 22.1s-9.9 22.1-22.1 22.1z" class="_3E8MsFTnX5GJzvRrxgwFIb" fill="#EA0D3F"></path><path d="M260.9 272.3H32.6c-12.2 0-22.1-9.9-22.1-22.1 0-12.2 9.9-22.1 22.1-22.1H261c12.2 0 22.1 9.9 22.1 22.1-.1 12.2-10 22.1-22.2 22.1zM325 374.7H135c-12.2 0-22.1-9.9-22.1-22.1 0-12.2 9.9-22.1 22.1-22.1h190c12.2 0 22.1 9.9 22.1 22.1 0 12.3-9.9 22.1-22.1 22.1zm140.4 103h-220c-12.2 0-22.1-9.9-22.1-22.1s9.9-22.1 22.1-22.1h220c12.2 0 22.1 9.9 22.1 22.1s-9.9 22.1-22.1 22.1z" class="_1OOaR31DTDL1a63fYrMZoS" fill="#1C6B3B"></path></svg>
