<svg version="1.1" id="Ebene_1" xmlns="http://www.w3.org/2000/svg" xmlns:xlink="http://www.w3.org/1999/xlink" x="0px" y="0px"
	 viewBox="0 0 72.6 72.9" style="enable-background:new 0 0 72.6 72.9;" xml:space="preserve">
<style type="text/css">
	.st0{fill:#706F68;}
	.st1{fill:#3D3C37;}
	.st2{fill:#A0B100;}
	.st3{fill:#717F04;}
	.st4{fill:#BCCF00;}
</style>
<g>
	<path class="st0" d="M39.8,48.3v24.5h32.8V40.1H49.1C43.4,40.1,39.8,42.4,39.8,48.3"/>
	<path class="st1" d="M39.8,48.3v24.5h32.8L49.5,40.1c-0.1,0-0.2,0-0.3,0C43.4,40.1,39.8,42.3,39.8,48.3"/>
	<path class="st2" d="M36.5,21.6h36.1V0H21.2C23.1,2.6,36.5,21.6,36.5,21.6"/>
	<path class="st3" d="M21.2,29.3c0-4.3,3.5-7.7,7.8-7.7c0,0,0,0,0,0h7.5L21.2,0V29.3z"/>
	<path class="st4" d="M0,18.9v54h21.2V0H19C7.9,0,0,7.7,0,18.9"/>
</g>
</svg>
