<svg viewBox="0 0 106.798 106.798" xmlns="http://www.w3.org/2000/svg"><path d="M53.399 106.798c29.491 0 53.399-23.907 53.399-53.399C106.798 23.908 82.89 0 53.398 0 23.909 0 0 23.908 0 53.399c0 29.492 23.908 53.399 53.399 53.399Z" fill="#2ca01c"/><path d="M14.92 53.399c0 11.287 9.193 20.308 20.693 20.308h2.95V66.14h-2.95c-7.097 0-12.997-5.772-12.997-12.741 0-6.969 5.9-12.74 12.997-12.74h7.097V80.12c0 4.062 3.549 7.567 7.696 7.567V33.091H35.613c-11.5 0-20.692 8.979-20.692 20.308zm56.221-20.308h-2.95v7.568h2.95c7.097 0 12.997 5.771 12.997 12.74s-5.9 12.741-12.997 12.741h-7.097V26.721c0-4.061-3.548-7.567-7.695-7.567v54.553H71.14c11.5 0 20.693-8.978 20.693-20.308 0-11.329-9.192-20.308-20.693-20.308z" fill="#fff"/></svg>