<svg xmlns="http://www.w3.org/2000/svg" viewBox="253.75 330.49 104.5 166.03"><path d="M303.83 330.49c10.62 9.72 15.4 21.22 18.79 33.55 4.35 15.83 1.95 30.2-8.39 43.24-6.1 7.69-11.75 15.74-17.53 23.67-12.62 17.32-13.1 35.33-2.95 53.91.88 1.61 1.92 3.14 2.6 4.83.81 2.02 3.72 4.08 1.78 6.09-1.6 1.66-4.41.04-6.61-.62-26.14-7.94-51.38-45.59-29.35-82.01 5.59-9.24 13.53-16.41 20.66-24.3 13.94-15.43 20.04-33.81 20.76-54.27.03-.97.11-1.92.24-4.09z" fill="#1e2243"/><path d="M338.14 397.26c13.51 12.74 20.45 27.64 20.1 45.61-.4 20.66-9.76 36.14-27.63 46.53-1.56.91-3.26 1.98-4.24 3.41-2.55 3.73-4.06 3.19-6.81-.17-14.16-17.27-12.02-35.27-2.91-53.64 5.46-11 13.42-20.63 17.94-32.17 1.14-2.93 2.19-5.9 3.55-9.57z" fill="#31a6de"/></svg>