<svg version="1.1" id="Layer_1" xmlns="http://www.w3.org/2000/svg" xmlns:xlink="http://www.w3.org/1999/xlink" x="0px" y="0px" viewBox="1.0947295427322388 0.9999969601631165 584.9052734375 507.3231201171875" enable-background="new 0 0 585 531" xml:space="preserve">
<path fill="#2CA9E2" opacity="1.000000" stroke="none" d="
M586.000000,252.666672 
	C578.400757,254.259323 570.706055,255.108368 563.218811,256.849335 
	C531.601379,264.200989 501.047180,274.571442 472.165955,289.598328 
	C446.789001,302.801971 422.987396,318.415710 401.227386,336.944885 
	C381.125031,354.062531 361.500000,371.743958 341.777191,389.303406 
	C313.038666,414.889679 284.014893,440.096405 251.346039,460.703003 
	C219.717255,480.653534 185.990204,496.040436 150.427109,507.527100 
	C146.760178,508.711517 145.565414,507.035187 144.051163,504.391479 
	C131.631516,482.707825 119.116173,461.078979 106.646622,439.462524 
	C116.539017,435.718536 126.499077,432.269012 136.205719,428.213013 
	C161.735550,417.545288 185.009949,403.040436 206.798843,386.057312 
	C231.651978,366.685852 254.171997,344.770599 276.311981,322.444550 
	C289.246368,309.401520 301.759460,295.930725 314.928375,283.132172 
	C345.314697,253.600250 376.712830,225.313843 412.929230,202.798965 
	C447.931732,181.038712 485.490417,165.670883 525.343262,155.581100 
	C528.914062,154.677094 530.462036,156.343307 531.990662,159.004669 
	C542.467529,177.245789 552.984985,195.463593 563.529175,213.665909 
	C570.745483,226.123291 578.025940,238.543488 585.638855,250.990158 
	C586.000000,251.444443 586.000000,251.888901 586.000000,252.666672 
z"></path>
<path fill="#2CA9E2" opacity="1.000000" stroke="none" d="
M439.625000,0.999997 
	C444.456665,8.313133 449.026672,15.560058 453.346191,22.953304 
	C462.103088,37.941631 470.724365,53.009174 479.563171,68.324051 
	C431.899719,78.616425 388.427216,97.490379 348.750244,125.019943 
	C326.650299,140.353806 305.682373,157.115463 286.344940,175.838608 
	C260.985626,200.392395 235.801056,225.126694 210.443634,249.682495 
	C183.242584,276.023621 154.913010,300.977356 122.156197,320.395844 
	C102.175140,332.240692 81.116638,341.603455 58.846714,348.268463 
	C55.709835,349.207336 54.129921,348.545868 52.498329,345.696594 
	C36.711548,318.128204 20.783623,290.640564 4.880911,263.138611 
	C3.887159,261.420044 2.766873,259.774658 1.352731,258.047607 
	C1.000000,258.000000 1.000000,257.500000 1.408134,257.343750 
	C3.592358,256.868225 5.383546,256.615906 7.142285,256.219604 
	C37.312374,249.421280 65.574341,237.880524 92.313156,222.378250 
	C122.380478,204.946198 148.976364,182.893143 175.256027,160.440979 
	C194.566772,143.942719 213.219559,126.669235 232.658432,110.327522 
	C250.757523,95.112137 268.983154,79.950943 288.081665,66.040863 
	C327.076965,37.639320 369.940033,17.078743 417.071411,5.894177 
	C423.726654,4.314851 430.357727,2.633908 437.000000,1.000000 
	C437.750000,1.000000 438.500000,1.000000 439.625000,0.999997 
z"></path>
<path fill="#2EA9E3" opacity="1.000000" stroke="none" d="
M148.625000,1.000001 
	C155.948135,3.693245 162.834991,6.559181 169.854645,9.050922 
	C207.543777,22.429281 242.238052,41.432083 274.709564,64.636841 
	C275.089813,64.908577 275.321350,65.388367 275.545715,65.673645 
	C252.488739,84.841156 229.475662,103.972153 206.295380,123.242157 
	C176.472977,99.941765 143.567810,81.715263 106.423378,70.703041 
	C119.735886,47.500202 132.870880,24.606785 146.002930,1.356683 
	C146.750000,1.000000 147.500000,1.000000 148.625000,1.000001 
z"></path>
<path fill="#2FAAE3" opacity="1.000000" stroke="none" d="
M427.094147,91.268936 
	C444.480682,85.662537 461.488739,80.148399 479.908722,74.176521 
	C475.127838,86.707649 471.005493,97.602531 466.812195,108.470047 
	C464.317871,114.934425 463.219055,122.849869 458.731964,127.375763 
	C454.255890,131.890564 446.345062,133.016678 439.921082,135.580917 
	C400.954498,151.135071 364.688324,171.330368 332.066895,197.895004 
	C311.515778,214.630417 292.784637,233.210175 274.516968,252.382935 
	C252.712982,275.267242 230.925262,298.183136 206.706573,318.672180 
	C181.446793,340.042053 154.321350,358.550781 124.910538,375.233398 
	C118.165329,362.825867 111.508530,350.580933 104.665321,337.993134 
	C112.806328,333.385010 120.889351,329.549896 128.163513,324.540253 
	C143.947876,313.669647 159.788849,302.788300 174.760895,290.850586 
	C205.799713,266.102295 232.449463,236.638519 260.893066,209.096405 
	C286.295410,184.499207 311.829742,160.015167 340.572601,139.185486 
	C367.371796,119.764397 395.785858,103.312378 427.094147,91.268936 
z"></path>
<path fill="#2FAAE3" opacity="1.000000" stroke="none" d="
M363.133179,230.071182 
	C342.444946,249.120865 321.692444,267.588409 301.690704,286.836151 
	C283.940582,303.917175 267.304962,322.152252 249.673325,339.361450 
	C223.606186,364.804077 196.098282,388.531250 164.327271,406.802246 
	C146.747955,416.911865 128.340332,425.161285 108.994133,431.280273 
	C108.265915,431.510590 107.489342,431.588043 105.914337,431.898621 
	C110.338974,420.844788 115.196442,410.691528 118.460220,400.049469 
	C122.452682,387.031464 130.498444,379.031708 142.364014,372.430664 
	C170.990799,356.505066 197.416245,337.156158 221.170425,314.521271 
	C240.678833,295.932098 259.936920,277.030029 278.450958,257.457886 
	C318.024963,215.622116 361.313690,178.825287 414.027679,154.421036 
	C427.981171,147.961212 442.350922,142.405060 456.452576,136.257385 
	C459.627625,134.873215 461.162170,135.620148 462.625336,138.603897 
	C466.715088,146.943756 471.059418,155.158752 475.515137,163.835648 
	C469.862823,166.188431 464.227417,168.412567 458.690186,170.858963 
	C425.121399,185.690186 394.222534,204.863449 365.835693,228.107269 
	C365.067535,228.736267 364.210876,229.257126 363.133179,230.071182 
z"></path>
<path fill="#2EAAE3" opacity="1.000000" stroke="none" d="
M294.591919,448.381836 
	C292.345306,446.710358 290.398590,445.234192 288.433899,443.744446 
	C298.415985,435.489075 308.155945,427.544128 317.768250,419.447540 
	C324.739655,413.575409 331.581818,407.547424 338.405151,401.502625 
	C342.756287,397.647919 346.836365,393.473389 351.344666,389.820801 
	C352.333496,389.019653 354.939514,389.249664 356.266022,389.978333 
	C370.608032,397.856567 384.559326,406.495483 399.171478,413.821411 
	C423.280609,425.908752 448.766602,434.387054 475.088165,440.309875 
	C476.462555,440.619141 477.798706,441.098297 479.462494,441.589874 
	C471.122925,456.038788 462.941742,470.218811 454.754791,484.395508 
	C450.615082,491.563934 446.424103,498.703186 442.345123,505.905945 
	C441.146729,508.022034 440.098907,508.664215 437.282440,508.160248 
	C400.576904,501.592133 365.866882,489.316925 333.144318,471.595001 
	C320.072296,464.515442 307.624023,456.284180 294.591919,448.381836 
z"></path>
<path fill="#30AAE3" opacity="1.000000" stroke="none" d="
M562.123657,298.269348 
	C551.577881,316.504486 541.283875,334.459473 530.805664,352.306366 
	C530.146362,353.429352 527.844910,354.547394 526.650391,354.257019 
	C495.227020,346.618134 465.028656,335.658173 436.446686,320.421936 
	C436.180328,320.279968 436.035339,319.910400 435.806000,319.610962 
	C480.365356,288.486389 529.808044,269.581146 584.422302,259.771118 
	C576.641846,273.224030 569.487549,285.594269 562.123657,298.269348 
z"></path>
<path fill="#31ABE3" opacity="1.000000" stroke="none" d="
M360.071503,381.884460 
	C370.406036,372.527283 380.459534,363.357727 390.726196,354.433411 
	C391.813202,353.488495 394.448517,353.297577 395.863953,353.912109 
	C416.301056,362.785034 436.658203,371.842407 457.007233,380.916809 
	C458.093445,381.401215 459.429871,382.236511 459.820190,383.233307 
	C466.302917,399.789093 472.652771,416.396820 479.496735,434.201141 
	C472.217163,432.452301 466.015411,431.185638 459.941772,429.466400 
	C425.247711,419.645782 392.699463,405.026093 362.424011,385.418091 
	C361.321899,384.704224 360.698486,383.251282 360.071503,381.884460 
z"></path>
<path fill="#34ACE3" opacity="1.000000" stroke="none" d="
M400.186584,346.730896 
	C409.350006,339.506317 418.293182,332.503967 427.336487,325.633453 
	C428.111389,325.044800 429.770508,324.867401 430.650330,325.281708 
	C445.273773,332.167053 459.838226,339.177582 474.969971,346.425598 
	C470.319763,355.618500 465.508392,365.130005 460.177277,375.668945 
	C440.225372,366.576721 420.625122,357.654114 401.051880,348.672546 
	C400.547424,348.441071 400.339203,347.563995 400.186584,346.730896 
z"></path>
<path fill="#30AAE3" opacity="1.000000" stroke="none" d="
M78.153114,167.963211 
	C94.358078,175.485382 110.207787,182.842010 127.253670,190.753830 
	C88.970901,219.493027 49.079453,240.328949 2.770450,250.121887 
	C20.416574,219.570938 37.517124,189.964554 54.785244,160.068054 
	C62.564346,162.680954 70.181107,165.239304 78.153114,167.963211 
z"></path>
<path fill="#31ABE3" opacity="1.000000" stroke="none" d="
M158.146164,146.760193 
	C148.322617,140.904449 138.819366,135.205292 129.379440,129.403091 
	C127.888153,128.486465 126.049995,127.366005 125.442841,125.897217 
	C118.961678,110.218513 112.696465,94.450531 105.976196,77.721931 
	C141.358963,88.366806 172.262833,105.544853 201.321167,127.962097 
	C196.044632,132.850174 191.048080,137.608932 185.904480,142.203079 
	C181.698669,145.959625 177.416840,149.649902 172.939697,153.069733 
	C171.902283,153.862183 169.585770,154.068100 168.456741,153.449982 
	C164.977905,151.545303 161.788940,149.111176 158.146164,146.760193 
z"></path>
<path fill="#33ACE3" opacity="1.000000" stroke="none" d="
M116.932838,148.864563 
	C119.581604,144.087067 122.035004,139.624878 124.943169,134.335556 
	C138.557907,142.702087 151.823624,150.854156 165.806534,159.446930 
	C160.343826,164.147491 155.696381,168.276428 150.906387,172.232773 
	C145.815887,176.437271 140.581711,180.467453 135.427444,184.595215 
	C133.041626,186.505905 131.093597,186.862488 128.074783,184.949600 
	C120.721313,180.290070 112.933525,176.315933 104.788628,171.768784 
	C108.764137,164.253204 112.750801,156.716553 116.932838,148.864563 
z"></path>
</svg>