<svg xmlns="http://www.w3.org/2000/svg" viewBox="0 0 90 90" fill-rule="evenodd" xmlns:v="https://vecta.io/nano"><path fill="#002e32" d="M0 0h90v90H0z"/><g fill="#00b386" fill-rule="nonzero"><path d="M19.077 54.137l4.655 7.753c.287.475-.051 1.082-.599 1.082h-9.314c-.548 0-.886-.607-.599-1.082l4.655-7.753a.7.7 0 0 1 1.201 0zm8.597-13.329l4.655 7.753c.287.475-.051 1.082-.599 1.082h-9.311c-.548 0-.886-.607-.599-1.082l4.655-7.753c.271-.455.924-.455 1.198 0z" opacity=".4"/><path d="M71.772 54.17l4.638 7.748c.286.475-.051 1.082-.597 1.082h-9.275c-.546 0-.882-.607-.597-1.082l4.638-7.748c.27-.455.921-.455 1.194 0zm-17.795 0l4.638 7.748c.286.475-.051 1.082-.597 1.082h-9.275c-.546 0-.882-.607-.597-1.082l4.638-7.748c.27-.455.921-.455 1.194 0zm-17.383 0l4.636 7.748c.286.475-.051 1.082-.597 1.082h-9.276c-.546 0-.882-.607-.597-1.082l4.636-7.748c.273-.455.923-.455 1.196 0zm26.418-13.278l4.636 7.748c.286.475-.051 1.082-.597 1.082h-9.276c-.546 0-.882-.607-.597-1.082l4.636-7.748c.273-.455.923-.455 1.196 0zm-17.796 0l4.638 7.748c.286.475-.051 1.082-.597 1.082h-9.275c-.546 0-.882-.607-.597-1.082l4.638-7.748a.69.69 0 0 1 1.194 0zm8.76-13.551l4.638 7.748c.286.475-.051 1.082-.597 1.082h-9.275c-.546 0-.882-.607-.597-1.082l4.638-7.748c.27-.455.921-.455 1.194 0z"/></g></svg>