<svg version="1.1" id="Layer_1" xmlns="http://www.w3.org/2000/svg" xmlns:xlink="http://www.w3.org/1999/xlink" x="0px" y="0px"
	 viewBox="0 0 612 792" style="enable-background:new 0 0 612 792;" xml:space="preserve">
<style type="text/css">
	.st0{fill:#0190FE;}
	.st1{fill:#0290FE;}
</style>
<path class="st0" d="M422.92,271.07c3.99,2.41,5.07,5.97,5.06,10.55c-0.12,51.43-0.07,102.86-0.08,154.29
	c0,8.15-2.22,10.38-10.32,10.4c-11.14,0.02-22.29,0.05-33.43-0.01c-9.69-0.05-14.24-4.69-14.32-14.47c-0.06-7.66,0-15.31-0.13-22.97
	c-0.16-9.23-5.07-14.02-14.37-14.05c-11.81-0.05-23.62-0.01-35.43-0.02c-11.87-0.01-16.08-4.28-16.08-16.31
	c-0.01-13.31,0.03-26.63-0.01-39.94c-0.03-10.22-4.72-14.83-15.04-14.87c-7.82-0.03-15.64,0.09-23.45-0.04
	c-9.59-0.16-14.23-5-14.26-14.66c-0.03-9.32,0.16-18.65-0.08-27.96c-0.12-4.48,1.31-7.75,5.19-9.94
	C311.75,271.07,367.33,271.07,422.92,271.07z"/>
<path class="st1" d="M181.28,345.01c2.52-3.87,6.07-5.03,10.63-4.97c14.3,0.21,28.6,0.06,42.9,0.08
	c10.55,0.02,15.3,4.71,15.31,15.14c0.02,26.96,0,53.92,0.01,80.88c0.01,10.66,4.47,15.12,15.19,15.12c25.61,0.02,51.22,0,76.83,0.01
	c11.56,0.01,15.96,4.42,15.96,15.97c0.01,12.98,0.03,25.96-0.01,38.94c-0.02,6.77-2.55,9.36-9.39,9.36
	c-52.72,0.04-105.43-0.01-158.15,0.07c-4.09,0.01-6.88-1.81-9.29-4.75C181.28,455.59,181.28,400.3,181.28,345.01z"/>
</svg>
