<svg viewBox="0 0 125.6 125.8" xmlns="http://www.w3.org/2000/svg">
 <g fill="#ee212e">
  <path d="m125.2 0s-0.4 0.6-1.1 1.8-1.7 3-2.9 5.3c-0.6 1.1-1.2 2.4-2 3.8-0.7 1.4-1.6 2.8-2.4 4.3-0.9 1.5-1.7 3.2-2.7 4.9-0.5 0.9-0.9 1.7-1.4 2.6s-1.1 1.8-1.6 2.7c-2.2 3.7-4.4 7.8-7.1 11.8-1.3 2-2.6 4.2-4 6.3-1.5 2.1-2.9 4.2-4.4 6.4-1.4 2.2-3.1 4.3-4.7 6.5-0.8 1.1-1.6 2.2-2.5 3.2l-1.2 1.6-1.3 1.6c-1.8 2.1-3.6 4.2-5.3 6.3-1.8 2.1-3.8 4-5.7 6.1-1.8 2.1-3.9 3.9-5.9 5.9-1 1-2 1.9-3 2.9s-2.1 1.8-3.1 2.7-2.1 1.8-3.1 2.6c-1 0.9-2 1.8-3.1 2.6-2.1 1.6-4.3 3.2-6.3 4.8-0.5 0.4-1 0.8-1.6 1.2-0.5 0.4-1.1 0.7-1.6 1.1-1.1 0.7-2.1 1.4-3.2 2.2-1 0.7-2.1 1.4-3.1 2.1s-2.1 1.3-3.1 1.9c-2.1 1.3-4.1 2.5-6 3.7s-3.9 2.2-5.8 3.2-3.7 2.1-5.4 3l-5 2.5c-1.6 0.8-3.1 1.5-4.4 2.2-1.4 0.7-2.7 1.2-3.8 1.7-2.3 1-4.1 2-5.4 2.5-1.2 0.6-1.9 0.9-1.9 0.9s0.7-0.1 2.1-0.2 3.4-0.3 6-0.6c1.3-0.2 2.7-0.3 4.3-0.6 1.5-0.3 3.2-0.6 5-1s3.7-0.8 5.6-1.2c2-0.5 4-1.2 6.1-1.8 1.1-0.3 2.2-0.7 3.3-1 1.1-0.4 2.3-0.7 3.4-1.2 2.2-0.9 4.6-1.9 6.9-2.9 2.4-0.9 4.7-2.2 7.2-3.5 1.2-0.6 2.4-1.3 3.7-1.9 0.6-0.3 1.2-0.7 1.8-1s1.2-0.7 1.8-1.1c2.4-1.5 4.8-3.1 7.3-4.7 2.4-1.6 4.7-3.5 7.1-5.3 1.2-0.9 2.4-1.8 3.5-2.8l3.3-3c2.2-2.1 4.5-4 6.5-6.3 2-2.2 4.1-4.4 6.1-6.7 1.9-2.3 3.7-4.7 5.5-7.1l1.4-1.8 1.2-1.8c0.8-1.2 1.6-2.5 2.4-3.7l2.4-3.6c0.8-1.2 1.4-2.5 2.1-3.7 1.4-2.5 2.7-4.9 4-7.3 1.2-2.4 2.3-4.8 3.3-7.2 2.2-4.6 3.7-9.2 5.2-13.4 0.4-1.1 0.7-2.1 1.1-3.1 0.3-1 0.6-2 0.9-3 0.5-2 1.1-3.8 1.5-5.6s0.9-3.4 1.2-4.9 0.5-2.9 0.8-4.2c0.5-2.5 0.7-4.5 1-5.9 0-1.1 0.1-1.8 0.1-1.8z"/>
  <path d="m0.1 70.3s0.6 0.2 1.6 0.5c1.1 0.3 2.6 0.7 4.6 1.2 2 0.4 4.3 1.1 6.9 1.8 2.6 0.6 5.5 1.5 8.6 2.3l2.4 0.6c0.8 0.2 1.6 0.5 2.4 0.8 1.6 0.5 3.3 1 5.1 1.5 3.4 1.2 7.1 2.2 10.7 3.6 1.8 0.7 3.7 1.2 5.5 2 0.9 0.4 1.8 0.7 2.8 1.1 0.9 0.4 1.9 0.7 2.8 1.1 1.9 0.8 3.7 1.7 5.6 2.4 1 0.4 1.9 0.8 2.8 1.3l5.6 2.6 2.7 1.4c1.8 1 3.7 1.8 5.5 2.8 1.8 1 3.6 2 5.4 2.9 0.9 0.4 1.8 1 2.6 1.5 0.9 0.5 1.7 1 2.6 1.5 3.5 1.9 6.7 3.9 9.9 5.8 1.6 0.9 3.1 1.9 4.6 2.8 1.5 0.9 3 1.8 4.4 2.6 1.5 0.8 2.7 1.7 4 2.5s2.5 1.5 3.7 2.2c2.4 1.3 4.4 2.6 6.2 3.6 1.7 1 3.2 1.7 4.1 2.3 1 0.5 1.5 0.8 1.5 0.8l0.9-0.8s-1.5-1.6-4.2-4.5c-1.3-1.4-2.9-3.2-4.9-5.1s-4.1-4.1-6.6-6.3c-1.3-1.1-2.6-2.2-3.9-3.4-1.4-1.2-2.7-2.4-4.3-3.6-3-2.4-6.1-4.9-9.6-7.3-0.9-0.6-1.7-1.2-2.6-1.8s-1.7-1.2-2.7-1.8c-1.8-1.1-3.7-2.3-5.5-3.5-1.9-1.2-3.9-2.1-5.8-3.2l-2.9-1.6-3-1.4-3.1-1.4c-1-0.5-2-0.9-3.1-1.3-2.1-0.8-4.2-1.6-6.2-2.4-4.2-1.3-8.3-2.8-12.4-3.7-4-1.1-8.1-1.7-11.8-2.4-1.9-0.3-3.8-0.5-5.6-0.7-0.9-0.1-1.8-0.2-2.6-0.3-0.9-0.1-1.7-0.1-2.6-0.2-1.7-0.1-3.3-0.2-4.8-0.3s-3 0-4.3 0c-2.7 0-5.1 0-7 0.2-3.9 0.3-6.1 0.4-6.1 0.4z"/>
  <path d="m63.3 121.8c13 0 23.4-3.3 31.2-9.9 14.4-12.2 19.7-35.7 15.8-69.9l-5.8 0.7c3.6 32.2-1 54-13.8 64.8-11.7 10-31.1 11.2-57.4 3.7l-1.6 5.6c11.7 3.3 22.3 5 31.6 5z"/>
 </g>
 <circle cx="72.6" cy="26.2" r="18.8" fill="#009a46"/>
</svg>
