<svg xmlns="http://www.w3.org/2000/svg" xmlns:svg="http://www.w3.org/2000/svg" version="1.1" id="svg5" viewBox="9 0.84 118.67 133.84">
  <defs id="defs2"/>
  <g id="layer1" transform="translate(-52.051201,-15.88471)">
    <g id="g1280" transform="translate(4.1259767e-7,-135.99583)">
      <path style="display:none;fill:#fefefe;stroke-width:0.264583" d="m 52.051201,219.87845 v -67.99791 h 67.733329 67.73333 v 67.99791 67.99792 H 119.78453 52.051201 Z" id="path1296"/>
      <path style="display:inline;fill:#9dd6a3;stroke-width:0.264583" d="m 119.51995,286.19642 c -1.03086,-0.55133 -5.08722,-2.87818 -11.60056,-6.65442 -0.251,-0.14553 -1.37496,-0.79184 -2.49769,-1.43625 l -2.04133,-1.17167 v -12.7851 c 0,-7.22934 0.10164,-12.78511 0.23391,-12.78511 0.12865,0 2.88089,1.54781 6.11608,3.43958 3.2352,1.89177 5.91672,3.43959 5.95893,3.43959 0.0422,0 1.09705,0.60051 2.34409,1.33448 l 2.26735,1.33448 1.49454,-0.83155 c 1.83234,-1.01949 4.0699,-2.29272 4.60384,-2.61969 0.95493,-0.58478 6.33593,-3.71836 7.52673,-4.38313 0.71996,-0.40192 1.85105,-1.04846 2.51354,-1.43675 0.66249,-0.3883 1.38312,-0.78887 1.6014,-0.89017 0.21828,-0.1013 0.87313,-0.48081 1.45521,-0.84337 0.58208,-0.36254 2.3672,-1.40353 3.96692,-2.3133 1.59972,-0.90977 3.11154,-1.77319 3.35959,-1.91871 0.24806,-0.14552 1.08232,-0.60533 1.85392,-1.02179 0.77159,-0.41647 1.59087,-0.92249 1.82061,-1.12448 0.22974,-0.202 0.5,-0.36727 0.60057,-0.36727 0.10057,0 0.6794,-0.31346 1.28629,-0.69657 1.27537,-0.8051 3.51163,-2.09813 4.37616,-2.53034 l 0.59531,-0.29761 v -21.34222 -21.34221 l -0.91644,-0.50959 c -0.50404,-0.28027 -2.26021,-1.29902 -3.9026,-2.26388 -1.64239,-0.96487 -3.57522,-2.08315 -4.29518,-2.48507 -0.71996,-0.40193 -1.85106,-1.04846 -2.51355,-1.43676 -0.66248,-0.38829 -1.38311,-0.78886 -1.60139,-0.89016 -0.21828,-0.1013 -0.87313,-0.48355 -1.45521,-0.84945 -0.58209,-0.36589 -1.23693,-0.74037 -1.45521,-0.83217 -0.21828,-0.0918 -0.57547,-0.31408 -0.79375,-0.49396 -0.21828,-0.17988 -0.99219,-0.64663 -1.71979,-1.03723 -0.72761,-0.39061 -1.91823,-1.06112 -2.64583,-1.49004 -0.72761,-0.42892 -2.02435,-1.16446 -2.88165,-1.63453 -0.8573,-0.47007 -1.75027,-0.97784 -1.98437,-1.12839 -0.23411,-0.15055 -0.9019,-0.54056 -1.48398,-0.86669 -0.58209,-0.32613 -1.41553,-0.81332 -1.85209,-1.08264 -1.02558,-0.63269 -3.78253,-2.21308 -5.90142,-3.38292 l -1.66809,-0.92096 -1.59202,0.94836 c -0.87561,0.5216 -1.63959,0.94836 -1.69773,0.94836 -0.0581,0 -0.97234,0.51197 -2.03155,1.1377 -1.05922,0.62573 -2.10445,1.22185 -2.32273,1.32471 -0.21828,0.10286 -0.87312,0.48639 -1.45521,0.85228 -0.58208,0.3659 -1.23692,0.74037 -1.45521,0.83217 -0.21828,0.0918 -0.57546,0.31408 -0.79375,0.49396 -0.21828,0.17988 -0.99218,0.64442 -1.71979,1.03231 -0.7276,0.3879 -1.50151,0.81705 -1.71979,0.95366 -0.77583,0.48558 -4.37211,2.5385 -4.7625,2.71866 -0.21828,0.10073 -0.873123,0.48205 -1.455206,0.84738 -0.582084,0.36533 -1.296459,0.78251 -1.5875,0.92706 -0.291042,0.14456 -1.005417,0.56128 -1.5875,0.92605 -0.582083,0.36476 -1.296458,0.7817 -1.5875,0.92651 -0.291042,0.14482 -0.945885,0.5154 -1.455208,0.82351 -0.509323,0.30811 -1.938073,1.1247 -3.175,1.81464 -1.236927,0.68994 -2.844271,1.62125 -3.571875,2.06957 -0.727604,0.44832 -1.70987,1.01303 -2.182812,1.25492 L 83.272033,196.92 v 34.1011 c 0,18.75561 -0.07883,34.1011 -0.175191,34.1011 -0.198613,0 -0.275326,-0.0432 -8.019603,-4.52059 -4.918377,-2.84356 -5.968925,-3.56884 -7.823589,-5.40128 -2.274813,-2.24756 -4.012578,-4.86625 -4.894652,-7.37591 -1.335604,-3.80004 -1.312168,-3.18216 -1.309042,-34.5117 l 0.0029,-29.28531 3.238223,-1.84447 c 1.781023,-1.01447 5.252092,-3.01586 7.713487,-4.44755 2.461395,-1.43169 5.021239,-2.90692 5.688541,-3.27829 0.667303,-0.37136 3.475465,-1.98631 6.240361,-3.58878 2.764896,-1.60247 8.420364,-4.87792 12.567708,-7.27877 4.147344,-2.40086 8.790784,-5.09091 10.318754,-5.9779 5.23607,-3.03955 6.19129,-3.4133 11.98804,-4.69069 1.18471,-0.26106 1.82146,-0.26971 2.77812,-0.0377 0.68262,0.16553 2.01504,0.44413 2.96092,0.61911 1.98507,0.36721 4.68065,1.4511 7.14375,2.87249 6.83209,3.94261 14.63788,8.45737 18.78542,10.86522 2.69213,1.56292 5.4901,3.16991 6.2177,3.57109 0.72761,0.40119 3.28745,1.87992 5.68855,3.28609 2.40109,1.40616 4.54421,2.63737 4.7625,2.73601 0.21828,0.0986 0.57546,0.29635 0.79375,0.43934 0.90257,0.59128 4.55335,2.65379 4.69738,2.65379 0.0857,0 0.34371,0.16409 0.57345,0.36465 0.22974,0.20056 0.95349,0.64985 1.60833,0.99843 0.65485,0.34858 1.48828,0.8261 1.85208,1.06115 0.36381,0.23506 1.19724,0.71863 1.85209,1.07459 l 1.19062,0.64721 v 29.34625 29.34626 l -0.62029,2.51354 c -0.68495,2.77551 -1.94781,5.51734 -3.47313,7.54063 -2.29313,3.04175 -4.01854,4.42738 -8.88506,7.13535 -1.24527,0.69293 -3.18583,1.81319 -14.80277,8.54542 -2.76489,1.60231 -5.591,3.22716 -6.28024,3.61077 -0.68925,0.38361 -3.59081,2.06378 -6.44794,3.7337 -2.85712,1.66992 -5.23015,3.03622 -5.27341,3.03622 -0.0737,0 -3.7506,2.10077 -4.62028,2.63976 -1.76953,1.09668 -8.74129,5.03281 -8.91195,5.03152 -0.11889,-7.9e-4 -0.51383,-0.16082 -0.87763,-0.3554 z m -2.64584,-50.29304 c -1.81901,-1.06711 -5.56947,-3.2518 -8.33437,-4.85487 l -5.02708,-2.91468 -0.0694,-9.80191 -0.0694,-9.80192 3.78714,-2.24014 c 2.08293,-1.23208 4.25726,-2.49485 4.83185,-2.80615 0.5746,-0.3113 1.22331,-0.67731 1.44159,-0.81335 0.21828,-0.13604 1.85569,-1.0879 3.63867,-2.11525 l 3.2418,-1.86791 1.60102,0.93834 c 0.88057,0.51608 1.64385,0.93833 1.69617,0.93833 0.0523,0 2.39744,1.34891 5.21135,2.99757 2.81391,1.64866 5.86034,3.40255 6.76984,3.89753 l 1.65365,0.89996 v 9.85749 9.85748 l -1.05308,0.66478 c -0.57919,0.36562 -1.10117,0.66477 -1.15995,0.66477 -0.0588,0 -2.75385,1.54782 -5.98905,3.43959 -3.2352,1.89177 -5.92612,3.43958 -5.97983,3.43958 -0.0537,0 -0.67814,0.35719 -1.38765,0.79375 -0.7095,0.43656 -1.33637,0.78778 -1.39304,0.78047 -0.0567,-0.007 -1.59131,-0.88636 -3.41032,-1.95346 z" id="path1294"/>
      <path style="fill:#7ac781;stroke-width:0.264583" d="m 119.51995,286.20009 c -1.05837,-0.55447 -1.95384,-1.07925 -2.38125,-1.39549 -0.21828,-0.1615 -1.05172,-0.64789 -1.85209,-1.08085 -1.80934,-0.97878 -5.72898,-3.20511 -6.61458,-3.75704 -0.3638,-0.22673 -1.19724,-0.69744 -1.85208,-1.04601 -0.65485,-0.34859 -1.36922,-0.77325 -1.5875,-0.9437 -0.21828,-0.17045 -0.7243,-0.47372 -1.12448,-0.67394 l -0.7276,-0.36402 v -12.78759 c 0,-7.03317 0.0893,-12.78713 0.19843,-12.78659 0.10914,5.3e-4 0.55563,0.21851 0.99219,0.48438 0.43656,0.26586 1.38906,0.81544 2.11667,1.22127 1.19752,0.66795 6.57028,3.79603 7.54062,4.39025 0.53408,0.32705 2.77166,1.60028 4.60513,2.62041 l 1.49583,0.83226 1.38129,-0.72766 c 0.75971,-0.40022 1.54564,-0.85223 1.74652,-1.00447 0.20087,-0.15224 0.99456,-0.63399 1.76376,-1.07055 0.76919,-0.43657 2.21219,-1.26695 3.20665,-1.84529 2.52213,-1.46679 3.69856,-2.13522 5.37999,-3.05683 0.80036,-0.43869 1.93146,-1.09528 2.51354,-1.45909 0.58208,-0.3638 1.23693,-0.73954 1.45521,-0.83496 0.21828,-0.0954 0.81359,-0.43118 1.32291,-0.7461 0.50933,-0.31493 1.52136,-0.90076 2.24896,-1.30184 1.19643,-0.6595 5.23273,-2.99482 6.21771,-3.59742 0.78579,-0.48074 4.37433,-2.53503 4.7625,-2.72634 0.21828,-0.10758 0.63573,-0.33975 0.92765,-0.51595 0.29194,-0.17619 1.33373,-0.77266 2.31511,-1.32549 l 1.78432,-1.00513 V 218.3195 196.94268 l -5.88698,-3.41419 c -3.23783,-1.87781 -6.24416,-3.60778 -6.68073,-3.84438 -0.43656,-0.2366 -1.42406,-0.80248 -2.19445,-1.2575 -0.77039,-0.45503 -1.49072,-0.82732 -1.60073,-0.82732 -0.11001,0 -0.34348,-0.14346 -0.51882,-0.31879 -0.17533,-0.17534 -0.96307,-0.68135 -1.75053,-1.12448 -0.78746,-0.44313 -2.24539,-1.27888 -3.23985,-1.85723 -2.57656,-1.49844 -3.72418,-2.14974 -5.37999,-3.05329 -1.43691,-0.7841 -1.87526,-1.04328 -3.17386,-1.87662 -0.36443,-0.23385 -1.19838,-0.72519 -1.85322,-1.09185 -0.65485,-0.36666 -1.94621,-1.09806 -2.86969,-1.62533 -0.92348,-0.52726 -1.78326,-0.95866 -1.91061,-0.95866 -0.12735,0 -1.13778,0.53578 -2.2454,1.19062 -1.10762,0.65485 -2.06927,1.19063 -2.137,1.19063 -0.0677,0 -0.7425,0.39419 -1.49949,0.87598 -0.757,0.48179 -1.55495,0.95907 -1.77323,1.06061 -0.21828,0.10154 -0.75406,0.40486 -1.19062,0.67403 -0.43657,0.26917 -1.27,0.76041 -1.85209,1.09163 -0.58208,0.33123 -2.22857,1.27083 -3.65887,2.08801 -1.43029,0.81718 -3.24541,1.84834 -4.0336,2.29147 -0.78819,0.44313 -1.57652,0.94914 -1.75186,1.12448 -0.175334,0.17533 -0.408803,0.31879 -0.518814,0.31879 -0.110013,0 -0.830342,0.37229 -1.600729,0.82732 -0.77039,0.45502 -1.759439,1.02057 -2.197888,1.25677 -0.438449,0.2362 -3.444777,1.97124 -6.680729,3.85566 l -5.883547,3.42621 v 34.07848 c 0,18.74316 -0.07805,34.07847 -0.173445,34.07847 -0.15394,0 -3.777469,-2.07566 -11.398988,-6.52967 -2.20696,-1.28975 -4.797811,-3.50362 -6.324394,-5.40417 -1.105899,-1.37682 -2.807426,-4.55535 -3.313679,-6.19011 -0.97989,-3.16421 -1.013761,-4.29992 -1.014131,-34.00494 l -3.62e-4,-28.97785 0.990166,-0.52319 c 0.544591,-0.28775 3.372325,-1.90226 6.283854,-3.5878 2.911528,-1.68553 7.674937,-4.43921 10.585354,-6.11927 2.910417,-1.68006 7.553854,-4.36559 10.31875,-5.96784 2.764895,-1.60225 5.622395,-3.24114 6.349999,-3.64199 0.727604,-0.40085 1.620573,-0.93057 1.984375,-1.17716 0.363802,-0.24658 1.613958,-0.97323 2.778128,-1.61477 1.16416,-0.64154 2.32043,-1.28597 2.56948,-1.43206 4.82696,-2.83153 7.19586,-4.18357 8.27843,-4.72489 5.61052,-2.80543 12.4127,-2.84662 18.00545,-0.10903 1.01107,0.4949 4.6958,2.54998 8.1883,4.56685 3.4925,2.01686 8.96938,5.17777 12.17083,7.02425 3.20146,1.84647 6.75341,3.90897 7.89322,4.58335 1.13981,0.67437 2.10777,1.22613 2.15103,1.22613 0.0433,0 2.3849,1.34639 5.20366,2.99198 2.81875,1.64559 5.3036,3.07901 5.52189,3.18538 0.21828,0.10637 0.635,0.33913 0.92604,0.51725 0.29104,0.17812 1.36187,0.79853 2.37963,1.37868 1.01776,0.58016 2.04879,1.1739 2.29118,1.31942 0.24239,0.14552 1.16828,0.68035 2.05754,1.18852 l 1.61683,0.92394 -0.0738,30.1646 c -0.0833,34.05628 0.10303,31.10014 -2.25959,35.85273 -1.03963,2.09129 -1.64904,2.91378 -3.63058,4.90007 -2.22389,2.22921 -2.81837,2.63888 -8.99584,6.19933 -3.63802,2.09681 -7.9838,4.60447 -9.65729,5.57258 -1.67349,0.96811 -3.87614,2.22514 -4.89479,2.79342 -1.01864,0.56827 -2.05695,1.15386 -2.30736,1.3013 -4.40797,2.59562 -6.64782,3.9017 -7.66473,4.46939 -0.68247,0.38099 -2.56457,1.46679 -4.18245,2.41289 -1.61788,0.9461 -3.02999,1.72018 -3.13801,1.72018 -0.10802,0 -0.33986,0.14346 -0.5152,0.3188 -0.17533,0.17533 -0.96322,0.68135 -1.75085,1.12448 -0.78763,0.44312 -2.78135,1.57959 -4.43048,2.52547 -1.64913,0.94589 -3.11748,1.76654 -3.263,1.82367 -0.14552,0.0571 -0.56224,0.3094 -0.92604,0.5606 -1.01201,0.69877 -1.65638,0.81713 -2.38125,0.43737 z m 0.26099,-48.72703 c -0.36183,-0.20676 -0.83646,-0.46317 -1.05474,-0.56978 -0.21828,-0.10662 -2.41075,-1.36855 -4.87214,-2.80428 -2.46139,-1.43574 -5.02124,-2.9142 -5.68854,-3.28547 -0.6673,-0.37126 -2.01839,-1.14416 -3.00242,-1.71755 l -1.78915,-1.04253 0.0694,-9.81718 0.0694,-9.81718 4.89479,-2.82048 c 2.69213,-1.55126 6.47877,-3.73679 8.41474,-4.85672 l 3.51996,-2.03625 3.35921,1.95797 c 1.84757,1.07688 3.95452,2.28618 4.68213,2.68732 0.7276,0.40114 3.01956,1.72968 5.09323,2.95231 l 3.77031,2.22297 v 9.76173 9.76173 l -2.4474,1.43523 c -1.34606,0.78937 -4.88817,2.8379 -7.87135,4.55228 -2.98318,1.71437 -5.6637,3.27337 -5.95671,3.46443 -0.44317,0.28898 -0.64338,0.28418 -1.19063,-0.0285 z" id="path1292"/>
      <path style="fill:#55b95e;stroke-width:0.264583" d="m 119.51995,286.19411 c -0.3638,-0.19388 -1.07818,-0.60601 -1.5875,-0.91583 -0.50933,-0.30983 -1.40229,-0.83016 -1.98438,-1.15629 -0.58208,-0.32613 -1.26247,-0.71614 -1.51199,-0.86669 -1.09665,-0.66168 -6.53459,-3.75524 -7.61613,-4.33269 -0.65485,-0.34963 -1.36922,-0.77516 -1.5875,-0.94561 -0.21828,-0.17045 -0.7243,-0.47372 -1.12448,-0.67394 l -0.7276,-0.36402 v -12.78759 c 0,-7.03317 0.0893,-12.77888 0.19843,-12.76824 0.10914,0.0106 0.55563,0.24209 0.99219,0.51433 0.43656,0.27225 1.12433,0.67272 1.52838,0.88993 0.58132,0.31251 6.01789,3.4334 8.35133,4.79411 5.64141,3.28971 5.81691,3.36923 6.58255,2.98249 1.04263,-0.52666 1.99341,-1.08096 2.45545,-1.43153 0.21828,-0.16562 0.99218,-0.62071 1.71979,-1.01131 0.7276,-0.3906 1.91823,-1.06112 2.64583,-1.49004 0.72761,-0.42892 1.97776,-1.139 2.77813,-1.57796 3.02642,-1.65985 4.50564,-2.53292 4.81412,-2.8414 0.17534,-0.17534 0.4054,-0.31879 0.51126,-0.31879 0.18659,0 1.87484,-0.95947 15.04753,-8.55183 l 6.21771,-3.58371 0.0677,-21.42284 0.0677,-21.42284 -2.05207,-1.18492 c -1.12864,-0.6517 -4.31426,-2.4956 -7.07915,-4.09756 -2.7649,-1.60196 -5.61614,-3.24056 -6.3361,-3.64132 -1.69329,-0.94256 -3.87432,-2.18455 -4.37953,-2.49393 -0.9743,-0.59664 -6.34459,-3.72311 -7.54062,-4.38999 -0.72761,-0.40569 -2.19596,-1.25337 -3.26301,-1.88372 -1.06705,-0.63035 -1.9785,-1.14609 -2.02545,-1.14609 -0.0469,0 -0.95436,-0.53578 -2.01649,-1.19063 -1.06212,-0.65484 -2.1152,-1.19031 -2.34018,-1.18994 -0.22497,3.7e-4 -1.12341,0.43368 -1.99654,0.9629 -0.87312,0.52921 -1.94468,1.16562 -2.38125,1.41424 -1.59493,0.90828 -12.44702,7.18323 -12.83229,7.41995 -0.94003,0.57758 -4.548596,2.63765 -4.620282,2.63765 -0.04325,0 -2.416288,1.36629 -5.27341,3.03622 -2.857121,1.66992 -5.75869,3.35015 -6.447932,3.73384 -0.68924,0.38369 -1.759181,0.99323 -2.377644,1.35454 l -1.124479,0.65693 v 34.10611 c 0,18.75836 -0.07671,34.1061 -0.170474,34.1061 -0.09376,0 -2.385713,-1.29708 -5.093229,-2.88241 -2.707515,-1.58532 -5.399005,-3.14476 -5.981088,-3.46541 -4.615883,-2.54274 -8.336592,-6.98602 -9.916138,-11.84186 -1.043479,-3.20787 -1.088559,-4.74114 -1.008801,-34.31159 l 0.07702,-28.55649 1.322916,-0.7798 c 2.326367,-1.37127 13.617541,-7.87686 17.859374,-10.28995 2.255573,-1.28315 4.279635,-2.44368 4.497917,-2.57894 0.829005,-0.51373 6.274466,-3.68695 7.526726,-4.38604 0.71996,-0.40192 1.851054,-1.04846 2.513541,-1.43675 0.662488,-0.38829 1.383118,-0.78887 1.601399,-0.89017 0.218281,-0.1013 0.873125,-0.48355 1.455208,-0.84944 0.582083,-0.3659 1.236927,-0.74037 1.455208,-0.83217 0.218282,-0.0918 0.575469,-0.31408 0.793758,-0.49396 0.21828,-0.17988 0.99218,-0.64623 1.71979,-1.03635 0.7276,-0.39011 2.75166,-1.54102 4.49791,-2.55757 6.56882,-3.82394 9.40636,-4.80562 13.89063,-4.80562 4.44263,0 7.54091,1.05289 13.70238,4.65649 1.78825,1.04587 3.45585,2.02064 3.70579,2.16616 0.24994,0.14552 1.28714,0.72994 2.3049,1.2987 1.01776,0.56876 4.05312,2.31076 6.74526,3.87111 12.09276,7.00889 15.0169,8.69863 16.00729,9.24998 0.58208,0.32405 3.26099,1.87263 5.95313,3.44129 4.64505,2.70659 5.74637,3.33843 9.32656,5.35075 l 1.52135,0.85511 -4e-5,29.24153 c -4e-5,24.47705 -0.0627,29.56895 -0.38458,31.25106 -0.80289,4.1958 -2.54611,7.43208 -5.68844,10.56057 -2.21475,2.205 -4.51011,3.69786 -12.76257,8.30059 -0.68247,0.38064 -2.56457,1.46615 -4.18245,2.41225 -1.61788,0.9461 -2.98457,1.72018 -3.03708,1.72018 -0.0868,0 -5.01768,2.83679 -5.95942,3.42851 -0.21828,0.13716 -1.5875,0.92919 -3.04271,1.76008 -1.45521,0.83089 -3.18161,1.82683 -3.83646,2.2132 -0.65484,0.38637 -1.36922,0.78484 -1.5875,0.88548 -0.21828,0.10065 -0.87312,0.48236 -1.4552,0.84826 -0.58209,0.36589 -1.23693,0.74037 -1.45521,0.83217 -0.21828,0.0918 -0.57547,0.30971 -0.79375,0.48425 -0.21828,0.17455 -0.93266,0.59916 -1.5875,0.94358 -0.65485,0.34443 -1.36922,0.76551 -1.5875,0.93575 -0.21828,0.17023 -0.99219,0.62909 -1.71979,1.0197 -0.72761,0.3906 -1.91823,1.06112 -2.64584,1.49004 -0.7276,0.42892 -1.97776,1.13561 -2.77812,1.57043 -1.45038,0.78797 -1.91748,1.06409 -3.17387,1.87624 -1.04708,0.67685 -1.67059,0.78231 -2.38238,0.40297 z m -1.80881,-49.92052 c -1.21313,-0.72264 -2.25032,-1.31389 -2.30488,-1.31389 -0.0546,0 -2.45528,-1.37119 -5.33494,-3.04709 -2.87966,-1.67591 -5.5334,-3.21622 -5.8972,-3.42291 l -0.66146,-0.37582 v -9.83043 -9.83044 l 3.43958,-1.9885 c 1.89177,-1.09367 5.68583,-3.28245 8.43124,-4.86395 l 4.99166,-2.87545 4.93022,2.87375 c 2.71161,1.58057 5.40646,3.13803 5.98855,3.46104 0.58208,0.32301 2.15966,1.23337 3.50572,2.02304 l 2.4474,1.43574 v 9.7655 9.76549 l -2.4474,1.42097 c -11.73935,6.81596 -14.08374,8.13375 -14.45613,8.12587 -0.23467,-0.005 -1.41924,-0.60028 -2.63236,-1.32292 z" id="path1290"/>
      <path style="fill:#52b35b;stroke-width:0.264583" d="m 118.85849,285.80728 c -0.7276,-0.39635 -1.62057,-0.91315 -1.98438,-1.14845 -0.3638,-0.2353 -1.15573,-0.70894 -1.75985,-1.05254 -0.60412,-0.34359 -1.91381,-1.0979 -2.91042,-1.67625 -2.48605,-1.44269 -3.68124,-2.12259 -5.38389,-3.06269 -0.80037,-0.44192 -1.90169,-1.05741 -2.4474,-1.36776 l -0.99218,-0.56427 V 264.1496 c 0,-7.03215 0.0893,-12.77703 0.19843,-12.76639 0.10914,0.0106 0.55563,0.24572 0.99219,0.52241 0.43656,0.27668 1.44859,0.86252 2.24896,1.30185 2.09459,1.14974 6.3385,3.58903 7.62605,4.38325 0.24406,0.15055 0.91999,0.54033 1.50207,0.86619 0.58209,0.32586 1.53459,0.88935 2.11667,1.25221 2.16579,1.35009 2.33956,1.34993 4.49792,-0.004 0.58208,-0.36522 1.23692,-0.75423 1.4552,-0.86447 0.6307,-0.31852 4.79027,-2.67857 5.95313,-3.37767 0.58208,-0.34995 1.14877,-0.64143 1.25931,-0.64774 0.11054,-0.006 0.17007,5.71696 0.13229,12.71838 l -0.0687,12.72987 -2.38125,1.40374 c -1.30969,0.77206 -2.97657,1.72444 -3.70417,2.11641 -0.72761,0.39197 -1.51089,0.87794 -1.74063,1.07994 -0.22974,0.20199 -0.50901,0.36726 -0.62061,0.36726 -0.1116,0 -0.51894,0.22251 -0.90521,0.49446 -1.18515,0.8344 -1.67867,0.84757 -3.08355,0.0823 z m 58.86979,-72.60671 c -0.94589,-0.5599 -1.95792,-1.1316 -2.24896,-1.27046 -0.29104,-0.13886 -0.70776,-0.37024 -0.92604,-0.51418 -0.49132,-0.32398 -9.36126,-5.4636 -10.45104,-6.05577 -0.43657,-0.23723 -2.13226,-1.20507 -3.76822,-2.15078 l -2.97447,-1.71947 -0.002,-2.25145 c -0.002,-2.04808 0.0517,-2.28548 0.59322,-2.62799 1.11946,-0.70802 10.32405,-6.10076 10.41311,-6.10076 0.0489,0 0.9951,-0.53579 2.10272,-1.19063 1.10762,-0.65484 2.06124,-1.19062 2.11915,-1.19062 0.0579,0 0.75673,-0.41672 1.55293,-0.92605 0.7962,-0.50932 1.50601,-0.92604 1.57735,-0.92604 0.0713,0 0.91453,-0.49207 1.87373,-1.09349 0.95921,-0.60142 1.80052,-1.03699 1.86957,-0.96793 0.0691,0.0691 0.0948,6.84812 0.0572,15.06458 l -0.0684,14.93903 z M 61.047034,196.59512 c 0,-6.83948 0.07613,-12.43541 0.169175,-12.43541 0.09305,0 0.777655,0.37519 1.521354,0.83375 1.449428,0.89372 1.973234,1.19499 5.453221,3.13653 1.236927,0.69009 4.605043,2.63894 7.484703,4.33076 2.87966,1.69182 5.293041,3.07604 5.363071,3.07604 0.07003,0 0.601207,0.29915 1.180399,0.66478 l 1.053076,0.66477 v 6.0821 6.0821 h -11.1125 -11.112499 z" id="path1288"/>
      <path style="fill:#50ad58;stroke-width:0.264583" d="m 118.85849,285.80955 c -0.7276,-0.3976 -1.62057,-0.91542 -1.98438,-1.15072 -0.3638,-0.2353 -1.15573,-0.70894 -1.75985,-1.05254 -0.60412,-0.34359 -1.91381,-1.0979 -2.91042,-1.67625 -2.48605,-1.44269 -3.68124,-2.12259 -5.38389,-3.06269 -0.80037,-0.44192 -1.90169,-1.05741 -2.4474,-1.36776 l -0.99218,-0.56427 V 264.1496 c 0,-7.03215 0.0611,-12.78573 0.13588,-12.78573 0.1758,0 1.2061,0.5763 1.7162,0.95996 0.21828,0.16418 0.93265,0.58456 1.5875,0.9342 1.08154,0.57745 6.51948,3.671 7.61613,4.33269 0.24952,0.15055 0.92991,0.54033 1.51199,0.86619 0.58209,0.32586 1.53459,0.88935 2.11667,1.25221 2.24901,1.40197 1.99577,1.41985 5.20033,-0.36716 0.8229,-0.45889 1.56704,-0.83434 1.65365,-0.83434 0.0866,0 0.15748,5.70324 0.15748,12.67386 v 12.67387 l -0.99219,0.60593 c -1.40411,0.85749 -3.61348,2.07118 -3.77031,2.07118 -0.0728,0 -0.72761,-0.32531 -1.45521,-0.72291 z m 57.69234,-79.59942 c -1.59347,-0.94629 -3.51799,-2.06592 -4.27671,-2.48806 -0.75871,-0.42214 -3.68349,-2.1091 -6.49951,-3.7488 -2.81602,-1.6397 -5.44837,-3.15168 -5.84966,-3.35996 -0.93134,-0.48337 -0.83471,-0.7242 0.61602,-1.53544 0.64901,-0.36292 2.6683,-1.52596 4.48731,-2.58453 1.81901,-1.05857 3.9026,-2.25262 4.63021,-2.65344 0.7276,-0.40081 1.63895,-0.94986 2.02522,-1.2201 0.38626,-0.27024 0.7846,-0.49134 0.88519,-0.49134 0.1006,0 0.49894,-0.22111 0.8852,-0.49135 0.68216,-0.47725 1.87065,-1.16721 4.7372,-2.75011 l 1.38906,-0.76704 v 11.92612 c 0,6.55937 -0.0298,11.91678 -0.0661,11.90536 -0.0364,-0.0114 -1.36991,-0.79502 -2.96339,-1.74131 z M 61.047034,192.73036 c 0,-7.55342 0.04931,-8.60834 0.396196,-8.47523 0.217909,0.0836 1.053658,0.5726 1.857221,1.08664 0.803563,0.51403 1.523963,0.9346 1.600888,0.9346 0.07693,0 0.7913,0.41672 1.5875,0.92604 0.7962,0.50933 1.495018,0.92605 1.552928,0.92605 0.05791,0 0.978333,0.5137 2.045384,1.14156 1.06705,0.62786 2.118684,1.22242 2.336966,1.32124 0.218281,0.0988 0.575468,0.29942 0.79375,0.4458 0.218281,0.14638 2.301875,1.37505 4.630208,2.73038 2.328333,1.35534 4.501223,2.63419 4.828645,2.8419 0.538827,0.34182 0.595313,0.585 0.595313,2.56297 v 2.18531 h -11.1125 -11.112499 z" id="path1286"/>
      <path style="fill:#4ca655;stroke-width:0.264583" d="m 116.47724,284.4216 c -1.01865,-0.57526 -2.03068,-1.15898 -2.24896,-1.29715 -0.56358,-0.35674 -7.24686,-4.19821 -8.12891,-4.6724 -0.40405,-0.21721 -1.09182,-0.60628 -1.52838,-0.8646 l -0.79375,-0.46967 -0.0687,-12.88077 -0.0687,-12.88077 0.59783,0.33454 c 0.32881,0.184 0.77643,0.47006 0.99471,0.63567 0.21828,0.16562 1.02818,0.64187 1.79978,1.05833 0.77159,0.41647 1.60575,0.87628 1.85369,1.0218 0.24794,0.14552 1.28351,0.73926 2.30127,1.31941 1.01776,0.58016 2.0526,1.17547 2.29965,1.32292 0.24705,0.14745 1.08048,0.60883 1.85208,1.0253 0.7716,0.41646 1.5815,0.90438 1.79978,1.08426 0.21828,0.17988 0.60523,0.40094 0.85989,0.49126 0.43236,0.15333 0.46302,1.0146 0.46302,13.0048 0,7.06232 -0.0298,12.83438 -0.0661,12.8268 -0.0364,-0.008 -0.89958,-0.48447 -1.91823,-1.05973 z m 62.45727,-83.30331 c -0.1348,-0.21812 -0.92679,-0.69276 -4.36733,-2.61735 -0.6472,-0.36203 -1.71877,-0.97594 -2.38125,-1.36423 -0.66249,-0.38829 -1.38312,-0.78887 -1.6014,-0.89017 -0.21828,-0.1013 -0.87313,-0.48309 -1.45521,-0.84842 -0.58208,-0.36533 -1.29646,-0.78635 -1.5875,-0.9356 -0.29104,-0.14925 -0.76729,-0.41788 -1.05833,-0.59694 -0.29104,-0.17907 -0.80345,-0.47922 -1.13867,-0.667 l -0.60951,-0.34143 0.65124,-0.51227 c 0.35818,-0.28174 0.72747,-0.51226 0.82065,-0.51226 0.0932,0 0.82085,-0.41672 1.61705,-0.92604 0.7962,-0.50932 1.50722,-0.92604 1.58005,-0.92604 0.0728,0 0.61406,-0.30405 1.20274,-0.67567 0.58868,-0.37162 1.44952,-0.89064 1.91297,-1.15337 0.46346,-0.26273 1.97374,-1.13092 3.35618,-1.92931 1.38245,-0.79838 2.78144,-1.59324 3.10886,-1.76635 l 0.59531,-0.31475 v 8.60827 c 0,7.88065 -0.10519,9.24374 -0.64585,8.36893 z M 61.047034,188.77004 v -4.65008 l 1.389062,0.76704 c 2.866546,1.5829 4.055042,2.27286 4.737198,2.75011 0.386266,0.27024 0.770907,0.49135 0.854758,0.49135 0.08385,0 0.803893,0.41671 1.600093,0.92604 0.796199,0.50932 1.510574,0.92604 1.5875,0.92604 0.119924,0 1.012342,0.5264 3.463878,2.0432 0.287495,0.17788 0.909672,0.51887 1.382614,0.75776 0.472943,0.23888 0.859896,0.4803 0.859896,0.53648 0,0.0562 -3.571875,0.10214 -7.9375,0.10214 h -7.937499 z" id="path1284"/>
      <path style="fill:#489d50;stroke-width:0.264583" d="m 109.06163,280.10999 c -0.28704,-0.19692 -1.1172,-0.68653 -1.84481,-1.08801 -0.7276,-0.40148 -1.82893,-1.02557 -2.44739,-1.38688 l -1.12448,-0.65693 v -12.80939 -12.80939 l 0.59531,0.33297 c 0.32742,0.18313 0.77391,0.4673 0.99219,0.63147 0.21828,0.16418 0.93265,0.58912 1.5875,0.94432 0.65484,0.3552 1.57682,0.87572 2.04885,1.15671 l 0.85822,0.51089 0.002,12.76614 c 7.9e-4,7.02138 -0.0314,12.76615 -0.0718,12.76615 -0.0404,0 -0.30828,-0.16112 -0.59531,-0.35805 z m 69.3882,-87.7482 c -0.37,-0.29104 -0.74093,-0.52917 -0.82429,-0.52917 -0.0834,0 -0.80301,-0.41672 -1.59921,-0.92604 -0.7962,-0.50932 -1.51525,-0.92604 -1.59789,-0.92604 -0.0826,0 -0.64418,-0.3118 -1.24786,-0.69288 l -1.0976,-0.69289 0.63984,-0.49185 c 0.35191,-0.27053 0.71929,-0.49451 0.81641,-0.49775 0.15778,-0.005 2.8699,-1.55724 5.18124,-2.96492 l 0.85989,-0.5237 v 4.3872 c 0,2.41296 -0.103,4.38721 -0.2289,4.38721 -0.1259,0 -0.53163,-0.23813 -0.90163,-0.52917 z" id="path1282"/>
    </g>
  </g>
</svg>