<svg xmlns="http://www.w3.org/2000/svg" viewBox="0 0 1212 1286.667" xml:space="preserve"><path d="m0 0 77.64-46.117 137.182 81.142 136.015-80.558L427.893-.584 215.406 124.34Z" style="fill:#98daaf;fill-opacity:1;fill-rule:evenodd;stroke:none" transform="matrix(1.33333 0 0 -1.33333 301.253 375.12)"/><path d="m0 0 75.304-44.949 73.553 42.03-73.553 43.198z" style="fill:#98daaf;fill-opacity:1;fill-rule:evenodd;stroke:none" transform="matrix(1.33333 0 0 -1.33333 487.277 466.964)"/><path d="M0 0v-246.929l77.64-43.781.583 244.009z" style="fill:#4ac08f;fill-opacity:1;fill-rule:evenodd;stroke:none" transform="matrix(1.33333 0 0 -1.33333 301.253 374.341)"/><path d="m0 0-.583-81.142 75.304-42.614 74.137 43.781v75.889L75.305-45.533Z" style="fill:#4ac08f;fill-opacity:1;fill-rule:evenodd;stroke:none" transform="matrix(1.33333 0 0 -1.33333 488.055 466.964)"/><path d="m0 0 .584-130.761-136.015-78.807-74.721 41.447v-112.665l74.137-43.782 214.822 124.34L77.64 44.365z" style="fill:#4ac08f;fill-opacity:1;fill-rule:evenodd;stroke:none" transform="matrix(1.33333 0 0 -1.33333 768.257 436.609)"/></svg>