<svg id="svg" version="1.1" xmlns="http://www.w3.org/2000/svg" xmlns:xlink="http://www.w3.org/1999/xlink" viewBox="0, 0, 400,400"><g id="svgg"><path id="path0" d="M77.400 122.276 C 68.877 123.510,62.802 129.209,61.492 137.200 C 59.939 146.674,61.067 233.744,62.842 241.384 C 67.355 260.809,82.724 274.717,102.000 276.817 C 112.197 277.928,118.913 278.019,181.200 277.894 L 245.800 277.765 248.496 276.909 C 254.786 274.912,259.453 269.458,260.508 262.873 C 261.208 258.504,261.200 177.731,260.499 168.400 C 259.457 154.526,256.691 147.347,248.811 138.067 C 245.517 134.188,236.557 127.607,233.200 126.602 C 232.650 126.437,232.020 126.169,231.800 126.007 C 230.795 125.264,224.899 123.831,219.800 123.090 C 214.528 122.324,82.293 121.568,77.400 122.276 M324.644 124.167 C 322.774 124.861,319.806 126.868,316.113 129.935 C 314.614 131.181,312.490 132.916,311.393 133.791 C 310.297 134.666,309.220 135.582,309.000 135.827 C 308.780 136.073,306.620 137.864,304.200 139.808 C 301.780 141.753,299.530 143.643,299.200 144.008 C 298.870 144.374,296.745 146.186,294.477 148.036 C 286.015 154.941,284.136 156.528,281.576 158.934 C 278.903 161.447,275.488 166.218,274.713 168.523 C 274.477 169.225,274.124 170.006,273.928 170.257 C 271.101 173.895,271.103 224.426,273.931 229.864 C 274.142 230.269,274.895 231.770,275.605 233.200 C 277.732 237.486,280.754 240.819,287.008 245.780 C 288.104 246.648,289.180 247.558,289.400 247.800 C 289.620 248.043,291.870 249.922,294.400 251.975 C 296.930 254.028,299.180 255.912,299.400 256.160 C 299.620 256.408,301.780 258.212,304.200 260.169 C 306.620 262.126,308.780 263.927,309.000 264.173 C 309.220 264.418,310.297 265.334,311.393 266.209 C 312.490 267.084,314.650 268.856,316.193 270.146 C 325.214 277.688,330.000 278.227,335.684 272.342 C 338.820 269.095,338.600 274.617,338.600 199.145 L 338.600 131.290 337.210 129.345 C 333.967 124.809,328.731 122.651,324.644 124.167 " stroke="none" fill="#fbfbfc" fill-rule="evenodd"></path><path id="path1" d="M0.000 200.000 L 0.000 400.000 200.000 400.000 L 400.000 400.000 400.000 200.000 L 400.000 0.000 200.000 0.000 L 0.000 0.000 0.000 200.000 M219.800 123.090 C 224.899 123.831,230.795 125.264,231.800 126.007 C 232.020 126.169,232.650 126.437,233.200 126.602 C 236.557 127.607,245.517 134.188,248.811 138.067 C 256.691 147.347,259.457 154.526,260.499 168.400 C 261.200 177.731,261.208 258.504,260.508 262.873 C 259.453 269.458,254.786 274.912,248.496 276.909 L 245.800 277.765 181.200 277.894 C 118.913 278.019,112.197 277.928,102.000 276.817 C 82.724 274.717,67.355 260.809,62.842 241.384 C 61.067 233.744,59.939 146.674,61.492 137.200 C 62.802 129.209,68.877 123.510,77.400 122.276 C 82.293 121.568,214.528 122.324,219.800 123.090 M332.326 124.997 C 334.713 126.250,335.496 126.947,337.210 129.345 L 338.600 131.290 338.600 199.145 C 338.600 274.617,338.820 269.095,335.684 272.342 C 330.000 278.227,325.214 277.688,316.193 270.146 C 314.650 268.856,312.490 267.084,311.393 266.209 C 310.297 265.334,309.220 264.418,309.000 264.173 C 308.780 263.927,306.620 262.126,304.200 260.169 C 301.780 258.212,299.620 256.408,299.400 256.160 C 299.180 255.912,296.930 254.028,294.400 251.975 C 291.870 249.922,289.620 248.043,289.400 247.800 C 289.180 247.558,288.104 246.648,287.008 245.780 C 280.754 240.819,277.732 237.486,275.605 233.200 C 274.895 231.770,274.142 230.269,273.931 229.864 C 271.103 224.426,271.101 173.895,273.928 170.257 C 274.124 170.006,274.477 169.225,274.713 168.523 C 275.488 166.218,278.903 161.447,281.576 158.934 C 284.136 156.528,286.015 154.941,294.477 148.036 C 296.745 146.186,298.870 144.374,299.200 144.008 C 299.530 143.643,301.780 141.753,304.200 139.808 C 306.620 137.864,308.780 136.073,309.000 135.827 C 309.220 135.582,310.297 134.666,311.393 133.791 C 312.490 132.916,314.614 131.181,316.113 129.935 C 323.908 123.460,327.383 122.402,332.326 124.997 " stroke="none" fill="#438cfc" fill-rule="evenodd"></path></g></svg>