<svg xmlns="http://www.w3.org/2000/svg" viewBox="0 0 1299.08 291.93"><g data-name="Layer 2"><path d="M485.22 84a87.58 87.58 0 11-123.85 0 87.56 87.56 0 01123.85 0zM423.39 0a146 146 0 11-.19 0zm368.36 84a87.58 87.58 0 11-123.86 0 87.58 87.58 0 01123.86 0zM833 42.75A146 146 0 11729.73 0 146 146 0 01833 42.75zM58.39 291.2l14.59.73h219l-.73-14.58c-1.95-24-19-41.57-43.06-43.08l-14.6-.73H102.18L277.33 58.39l-.73-14.58C275.45 19.58 257.72 2 233.54.73L219 0H0l.73 14.58c1.89 23.75 19.17 41.7 43 43.08l14.62.73h131.4L14.6 233.54l.73 14.59c1.44 24.06 18.81 41.47 43.06 43.07zm999.29-203.71c5 8.61 6.57 18.32 7.13 29.28l.73 14.6v102.17l.73 14.58c1.44 23.88 19 41.55 43.07 43.08l14.59.73V131.37l.73-14.6c.57-10.82 2.15-20.76 7.19-29.39a58.41 58.41 0 01101 .19c5 8.59 6.51 18.51 7.09 29.2l.73 14.58v102.19l.73 14.58c1.51 24 19 41.68 43.07 43.08l14.58.73V116.77a116.77 116.77 0 00-204.35-77.24A116.79 116.79 0 00941.76 20C930.4 7.38 905 0 890.38 0v291.93l14.6-.73c24.38-1.6 42.11-18.82 43.06-43l.73-14.61V131.37l.73-14.6c.61-11 2.14-20.71 7.16-29.33a58.41 58.41 0 01101 0z" fill="#2d8cff" fill-rule="evenodd" data-name="Layer 1"/></g></svg>