<svg xmlns:dc="http://purl.org/dc/elements/1.1/" xmlns:cc="http://creativecommons.org/ns#" xmlns:rdf="http://www.w3.org/1999/02/22-rdf-syntax-ns#" xmlns:svg="http://www.w3.org/2000/svg" xmlns="http://www.w3.org/2000/svg" xmlns:xlink="http://www.w3.org/1999/xlink" xmlns:sodipodi="http://sodipodi.sourceforge.net/DTD/sodipodi-0.dtd" xmlns:inkscape="http://www.inkscape.org/namespaces/inkscape" id="svg4191" version="1.1" inkscape:version="0.92.2 (5c3e80d, 2017-08-06)" sodipodi:docname="logo.svg" viewBox="21.354074478149414 24.721160888671875 698.8289184570312 267.2107849121094">
  <defs id="defs4193">
    <linearGradient id="linearGradient3797">
      <stop style="stop-color:#b31515;stop-opacity:1;" offset="0" id="stop3799"></stop>
      <stop style="stop-color:#ce7f7f;stop-opacity:1;" offset="1" id="stop3801"></stop>
    </linearGradient>
    <linearGradient id="linearGradient3789">
      <stop style="stop-color:#313131;stop-opacity:1;" offset="0" id="stop3791"></stop>
      <stop style="stop-color:#7d7d7d;stop-opacity:1;" offset="1" id="stop3793"></stop>
    </linearGradient>
    <inkscape:perspective sodipodi:type="inkscape:persp3d" inkscape:vp_x="-34.702815 : 213.85575 : 1" inkscape:vp_y="0 : 1000 : 0" inkscape:vp_z="709.39166 : 213.85575 : 1" inkscape:persp3d-origin="337.34442 : 38.462051 : 1" id="perspective4226"></inkscape:perspective>
    <inkscape:perspective id="perspective4226-3" inkscape:persp3d-origin="337.34442 : 38.462051 : 1" inkscape:vp_z="709.39166 : 213.85575 : 1" inkscape:vp_y="0 : 1000 : 0" inkscape:vp_x="-34.702815 : 213.85575 : 1" sodipodi:type="inkscape:persp3d"></inkscape:perspective>
    <linearGradient inkscape:collect="always" xlink:href="#linearGradient3789" id="linearGradient3327" gradientUnits="userSpaceOnUse" x1="141.45398" y1="912.16406" x2="143.04501" y2="646.54431" gradientTransform="translate(0,320)"></linearGradient>
    <linearGradient inkscape:collect="always" xlink:href="#linearGradient3797" id="linearGradient3329" gradientUnits="userSpaceOnUse" x1="713.08264" y1="803.83734" x2="713.08466" y2="715.29742"></linearGradient>
    <linearGradient inkscape:collect="always" xlink:href="#linearGradient3797" id="linearGradient3331" gradientUnits="userSpaceOnUse" x1="713.08264" y1="803.83734" x2="713.08466" y2="715.29742"></linearGradient>
    <linearGradient inkscape:collect="always" xlink:href="#linearGradient3797" id="linearGradient3333" gradientUnits="userSpaceOnUse" x1="713.08264" y1="803.83734" x2="713.08466" y2="715.29742"></linearGradient>
    <linearGradient inkscape:collect="always" xlink:href="#linearGradient3797" id="linearGradient3335" gradientUnits="userSpaceOnUse" x1="713.08264" y1="803.83734" x2="713.08466" y2="715.29742"></linearGradient>
    <linearGradient inkscape:collect="always" xlink:href="#linearGradient3797" id="linearGradient3337" gradientUnits="userSpaceOnUse" x1="713.08264" y1="803.83734" x2="713.08466" y2="715.29742"></linearGradient>
    <linearGradient inkscape:collect="always" xlink:href="#linearGradient3797" id="linearGradient3339" gradientUnits="userSpaceOnUse" x1="713.08264" y1="803.83734" x2="713.08466" y2="715.29742"></linearGradient>
    <linearGradient inkscape:collect="always" xlink:href="#linearGradient3797" id="linearGradient3341" gradientUnits="userSpaceOnUse" x1="713.08264" y1="803.83734" x2="713.08466" y2="715.29742"></linearGradient>
    <linearGradient inkscape:collect="always" xlink:href="#linearGradient3797" id="linearGradient3343" gradientUnits="userSpaceOnUse" x1="713.08264" y1="803.83734" x2="713.08466" y2="715.29742"></linearGradient>
    <linearGradient inkscape:collect="always" xlink:href="#linearGradient3797" id="linearGradient3345" gradientUnits="userSpaceOnUse" x1="713.08264" y1="803.83734" x2="713.08466" y2="715.29742"></linearGradient>
    <linearGradient inkscape:collect="always" xlink:href="#linearGradient3797" id="linearGradient3347" gradientUnits="userSpaceOnUse" x1="713.08264" y1="803.83734" x2="713.08466" y2="715.29742"></linearGradient>
  </defs>
  <sodipodi:namedview id="base" pagecolor="#ffffff" bordercolor="#666666" borderopacity="1.0" inkscape:pageopacity="0.0" inkscape:pageshadow="2" inkscape:zoom="2.2681106" inkscape:cx="252.74814" inkscape:cy="180.68455" inkscape:document-units="px" inkscape:current-layer="layer1" showgrid="false" inkscape:window-width="1920" inkscape:window-height="1052" inkscape:window-x="0" inkscape:window-y="0" inkscape:window-maximized="1" fit-margin-top="0" fit-margin-left="0" fit-margin-right="0" fit-margin-bottom="0"></sodipodi:namedview>
  <metadata id="metadata4196">
    <rdf:rdf>
      <cc:work rdf:about="">
        <dc:format>image/svg+xml</dc:format>
        <dc:type rdf:resource="http://purl.org/dc/dcmitype/StillImage"></dc:type>
        <dc:title></dc:title>
      </cc:work>
    </rdf:rdf>
  </metadata>
  <g inkscape:label="Layer 1" inkscape:groupmode="layer" id="layer1" transform="translate(-4.318491,-312.25348)">
    <path sodipodi:nodetypes="cssssssscccssssssccsscc" style="fill:#c2374c;fill-opacity:1;stroke:none" d="m 117.56796,385.34389 c -13.02717,0 -23.517785,10.4906 -23.517785,23.5178 l 0,114.3216 c 0,13.0271 10.490615,23.5177 23.517785,23.5177 l 24.81036,0 c 26.14965,0 -4.76106,22.2704 -13.35666,28.0419 -28.75907,19.31 -80.616718,18.8809 -90.774051,-8.1106 -9.874282,-26.2394 13.393978,-59.6633 25.472827,-68.0044 8.51012,-5.8766 8.649937,5.9245 15.424276,10.4059 l -8.019744,-41.4994 -38.731061,23.1026 c 8.589927,1.6174 21.316532,-4.2729 16.744162,4.3376 -18.310853,34.4825 -30.373552,58.0656 -19.102434,80.8884 20.669651,41.8538 90.018255,26.7221 108.937665,20.4069 47.17317,-15.7459 45.88092,-40.1051 96.72215,-49.5689 12.80718,-2.3839 23.51778,-10.4906 23.51778,-23.5178 l 0,-114.3215 c 0,-13.0272 -10.49061,-23.5178 -23.51778,-23.5178 -0.5349,-16.58538 -8.18725,-32.35562 -34.78222,-36.53145 19.84722,11.9547 18.0238,37.14445 4.47607,37.00335 l -45.30204,-0.4719 c -13.09481,-0.1364 -25.04274,-36.41463 -4.01111,-48.36933 -31.25319,9.5842 -38.19465,35.07243 -38.50819,48.36933 z" id="path4209" inkscape:export-filename="D:\projekty\mdlogonew\logo5.png" inkscape:export-xdpi="51.14185" inkscape:export-ydpi="51.14185" inkscape:connector-curvature="0"></path>
    <g transform="translate(8.9226876,-308.15071)" style="font-style:normal;font-variant:normal;font-weight:normal;font-stretch:normal;font-size:165.45030212px;line-height:125%;font-family:'Diavlo Medium';-inkscape-font-specification:'Diavlo Medium';text-align:start;letter-spacing:0px;word-spacing:0px;writing-mode:lr-tb;text-anchor:start;fill:#ffffff;fill-opacity:1;stroke:none" id="g4211">
      <path d="m 161.00402,797.42173 c 0.15454,2.14258 1.23681,3.67876 3.24683,4.60855 2.00987,0.92979 4.01981,1.49576 6.02984,1.69789 2.00986,0.20213 3.09214,0.28298 3.24684,0.24255 l 0,-75.83041 c -0.12279,-2.14249 -1.16677,-3.67867 -3.13195,-4.60855 -1.96534,-0.92971 -4.11571,-1.49567 -6.45111,-1.69788 -2.33555,-0.20205 -4.11996,-0.28291 -5.35324,-0.24256 -1.38164,2.85188 -3.69938,7.65475 -6.95324,14.40863 -3.25399,6.75402 -6.50792,13.51435 -9.76179,20.28102 -3.25398,6.76676 -5.57173,11.59516 -6.95325,14.48522 L 114.9313,727.79563 c -1.68515,-3.07335 -3.62878,-4.91166 -5.8309,-5.51494 -2.20217,-0.60312 -3.51388,-0.83291 -3.93514,-0.68937 l -8.387302,0 0,75.83041 c 0.154602,2.14258 1.236878,3.67876 3.246832,4.60855 2.00993,0.92979 4.01988,1.49576 6.02984,1.69789 2.00992,0.20213 3.0922,0.28298 3.24684,0.24255 l 0,-52.62171 c -0.0383,-2.66167 -0.19152,-5.0936 -0.45958,-7.2958 -0.26811,-2.20209 -0.4213,-3.37018 -0.45958,-3.50429 l 18.9576,40.55779 c 2.23322,3.13807 4.63165,5.04819 7.19527,5.73036 2.56354,0.6822 3.95664,0.95508 4.17929,0.81863 l 23.2087,-47.45146 c -0.0384,0.14847 -0.19156,1.37401 -0.45957,3.67663 -0.26816,2.30273 -0.42136,4.79211 -0.45958,7.46814 z" style="font-size:114.89604187px;font-family:'Diavlo Medium';-inkscape-font-specification:'Diavlo Medium'" id="path4213" inkscape:connector-curvature="0"></path>
      <path d="m 205.05114,795.58342 c -4.38517,2.97529 -8.10966,6.27372 -11.1735,9.89529 -3.06387,3.62157 -4.66281,7.98277 -4.79685,13.08362 0.14361,4.62928 1.26383,7.83675 3.36067,9.62242 2.09681,1.78563 4.30853,2.63776 6.63516,2.55641 0.86408,-0.012 1.66356,-0.13168 2.39842,-0.35905 0.73483,-0.22743 1.39069,-0.49073 1.96757,-0.7899 -0.7588,-1.50323 -1.36678,-3.12133 -1.82395,-4.8543 -0.4572,-1.73301 -0.69178,-3.52345 -0.70373,-5.37132 0.0814,-3.81786 1.35478,-7.12586 3.82025,-9.92401 2.46542,-2.79817 5.63459,-5.61787 9.50752,-8.45912 l 4.48089,-3.44683 c 3.59041,-2.66651 7.15214,-6.63994 10.68519,-11.92032 3.53296,-5.28034 5.83085,-11.724 6.89368,-19.331 0.39489,-3.73882 0.78266,-7.49204 1.1633,-11.25967 0.38054,-3.76753 0.79703,-7.52075 1.24948,-11.25967 -1.2615,-0.201 -3.478,0.22985 -6.64952,1.29257 -3.17161,1.06283 -5.2445,3.96391 -6.21867,8.70326 l -1.95321,14.8214 c -0.64827,4.56106 -1.87948,8.38378 -3.69364,11.46818 -1.81424,3.08444 -3.53908,5.40928 -5.17452,6.97452 -1.6355,1.56528 -2.50926,2.34968 -2.62129,2.35321 -0.35908,0.01 -2.02505,-1.70425 -4.99792,-5.14153 -2.97292,-3.43724 -5.09846,-8.65536 -6.37664,-15.65438 -0.36864,-3.27446 -0.78035,-6.72129 -1.23512,-10.34051 -0.45481,-3.61913 -1.15375,-6.72128 -2.09683,-9.30646 -1.39072,-2.47736 -3.5785,-3.98535 -6.56335,-4.52398 -2.98487,-0.53851 -4.6269,-0.75393 -4.9261,-0.64628 0.45239,3.73892 0.86889,7.49214 1.24948,11.25967 0.38058,3.76763 0.76835,7.52085 1.1633,11.25967 0.91436,7.17375 2.99204,13.36369 6.23303,18.56983 3.24097,5.20617 6.63993,8.78226 10.1969,10.72828 z" style="font-size:114.89604187px;font-family:'Diavlo Medium';-inkscape-font-specification:'Diavlo Medium'" id="path4215" inkscape:connector-curvature="0"></path>
    </g>
    <g transform="translate(8.9226876,-308.15071)" style="font-style:normal;font-variant:normal;font-weight:normal;font-stretch:normal;font-size:165.45030212px;line-height:125%;font-family:'Diavlo Medium';-inkscape-font-specification:'Diavlo Medium';text-align:start;letter-spacing:0px;word-spacing:0px;writing-mode:lr-tb;text-anchor:start;fill:#c2374c;fill-opacity:1;stroke:none" id="g4237">
      <path d="m 294.97317,802.82178 c 9.53141,0.20824 17.78466,-1.7306 24.75978,-5.81654 6.97498,-4.08593 10.63246,-11.56843 10.97243,-22.44753 l 0,-25.62148 c -0.33997,-10.87902 -3.99745,-18.36152 -10.97243,-22.44753 -6.97512,-4.08586 -15.22837,-6.0247 -24.75978,-5.81653 l -33.31942,0 0,74.68146 c 0.13049,2.33478 1.1078,4.0355 2.93194,5.10217 1.82411,1.06668 3.71207,1.7376 5.66387,2.01278 1.95177,0.27518 3.18441,0.39291 3.69791,0.3532 z m 0,-70.77505 c 5.82367,-0.10765 10.63488,1.17056 14.43363,3.8346 3.79864,2.66418 5.76621,7.36049 5.90271,14.08895 l 0,23.43849 c -0.1365,6.73332 -2.10407,11.44878 -5.90271,14.14639 -3.79875,2.69764 -8.60996,3.99499 -14.43363,3.89206 l -17.92355,0 0,-59.40049 z" style="font-family:'Diavlo Bold';-inkscape-font-specification:'Diavlo Bold';fill:#c2374c;fill-opacity:1;stroke:none" id="path4239" inkscape:connector-curvature="0"></path>
      <path d="m 358.22012,764.2172 c -0.0718,-3.52578 0.61754,-6.24016 2.0681,-8.14315 1.45052,-1.90289 4.0931,-2.86513 7.92773,-2.88672 3.5234,0.0384 6.0415,0.79474 7.55432,2.26917 1.51274,1.47452 2.24997,3.4373 2.21172,5.88834 0.0526,2.31229 -0.7708,4.09315 -2.47024,5.3426 -1.69952,1.24951 -4.59103,1.88143 -8.67454,1.89576 -1.79525,-0.0287 -3.51867,-0.17231 -5.17025,-0.43086 -1.65163,-0.25847 -2.80058,-0.45954 -3.44684,-0.60319 z m 12.7533,39.98331 c 6.72847,-0.0575 12.17159,-1.32128 16.32939,-3.79152 4.15769,-2.47023 6.2976,-5.80217 6.41973,-9.99583 0.0191,-2.8532 -1.16815,-5.99364 -3.56173,-9.42135 -0.13888,3.5043 -1.92932,6.31922 -5.37132,8.44475 -3.44209,2.12556 -8.04745,3.21706 -13.81607,3.2745 -4.3014,-0.005 -7.50408,-0.88564 -9.60806,-2.64258 -2.10403,-1.75691 -3.15244,-4.36119 -3.14524,-7.81283 l 0,-4.1362 c 1.72818,0.68939 3.49947,1.20641 5.31387,1.55107 1.81435,0.34471 3.64309,0.51705 5.48622,0.51703 8.9378,-0.17471 15.18997,-2.09441 18.75654,-5.75909 3.56646,-3.66463 5.2803,-8.02583 5.14153,-13.08362 0.0167,-5.82128 -1.97002,-10.4362 -5.96015,-13.8448 -3.99024,-3.40848 -10.08444,-5.15104 -18.2826,-5.2277 -8.2461,0.0527 -14.53179,1.84316 -18.85707,5.37133 -4.32531,3.52827 -6.50352,8.4783 -6.53463,14.85012 l 0,21.48528 c 0.0622,6.37187 2.49416,11.32191 7.2958,14.85012 4.80162,3.52822 11.59954,5.31866 20.39379,5.37132 z" style="font-family:'Diavlo Bold';-inkscape-font-specification:'Diavlo Bold';fill:#c2374c;fill-opacity:1;stroke:none" id="path4241" inkscape:connector-curvature="0"></path>
      <path d="m 456.14519,742.84682 c -0.17665,-0.0446 -1.45752,0.0447 -3.84259,0.26808 -2.38517,0.22346 -4.81498,0.849 -7.28942,1.87661 -2.47453,1.02773 -3.93411,2.72561 -4.37876,5.09366 l -2.29789,17.46398 c -1.27106,7.93014 -3.18118,13.6988 -5.73036,17.30599 -2.54926,3.60722 -3.97108,5.3833 -4.26546,5.32824 -0.29445,0.0981 -1.71627,-1.59176 -4.26547,-5.06973 -2.54924,-3.47793 -4.45936,-9.33276 -5.73036,-17.5645 l -2.29789,-17.46398 c -0.47946,-2.36805 -1.94613,-4.06593 -4.40004,-5.09366 -2.45393,-1.02761 -4.85679,-1.65314 -7.20857,-1.87661 -2.3518,-0.22335 -3.61422,-0.31271 -3.78726,-0.26808 l 2.41278,22.63422 c 1.13972,8.91784 3.69861,16.32073 7.67666,22.2087 3.97803,5.888 7.82203,10.29512 11.53201,13.22138 3.70993,2.92627 5.73264,4.40571 6.06814,4.43834 0.3333,-0.0326 2.3475,-1.51207 6.0426,-4.43834 3.69503,-2.92626 7.53051,-7.33338 11.50648,-13.22138 3.97586,-5.88797 6.55177,-13.29086 7.72772,-22.2087 z" style="font-family:'Diavlo Bold';-inkscape-font-specification:'Diavlo Bold';fill:#c2374c;fill-opacity:1;stroke:none" id="path4243" inkscape:connector-curvature="0"></path>
      <path d="m 465.38778,796.15789 c 0.1844,2.44329 1.47518,4.19507 3.87238,5.25536 2.39717,1.0603 4.79435,1.70569 7.19154,1.93619 2.39717,0.2305 3.68796,0.3227 3.87238,0.2766 l 0,-53.31108 c -0.1674,-2.40705 -1.39011,-4.14182 -3.66812,-5.2043 -2.27805,-1.06236 -4.60715,-1.71626 -6.98729,-1.96172 -2.38017,-0.24533 -3.80713,-0.34604 -4.28089,-0.30212 z m 0.34469,-65.03032 c 0.0263,0.84263 0.43324,1.59902 1.22075,2.26917 0.7875,0.67028 1.79761,1.02454 3.03035,1.06277 l 10.11072,0 0,-9.53625 c -0.0623,-0.84248 -0.54099,-1.59887 -1.43619,-2.26917 -0.89524,-0.67013 -1.83354,-1.02439 -2.81491,-1.06277 l -10.11072,0 z" style="font-family:'Diavlo Bold';-inkscape-font-specification:'Diavlo Bold';fill:#c2374c;fill-opacity:1;stroke:none" id="path4245" inkscape:connector-curvature="0"></path>
      <path d="m 493.53733,785.58759 c -0.0168,4.97399 1.07952,9.18679 3.28885,12.6384 2.20932,3.45163 5.63222,5.25164 10.2687,5.40005 1.4601,0.067 3.02075,-0.18192 4.68196,-0.74682 1.66116,-0.5649 3.27925,-1.84788 4.85429,-3.84896 -3.85857,-0.32553 -6.22348,-2.40321 -7.09474,-6.23303 -0.8713,-3.82981 -1.22556,-7.45856 -1.06277,-10.88626 l 0,-59.40049 c -0.1674,-2.40703 -1.39011,-4.14179 -3.66812,-5.2043 -2.27805,-1.06234 -4.60715,-1.71624 -6.98729,-1.96172 -2.38017,-0.2453 -3.80713,-0.34601 -4.28088,-0.30213 z" style="font-family:'Diavlo Bold';-inkscape-font-specification:'Diavlo Bold';fill:#c2374c;fill-opacity:1;stroke:none" id="path4247" inkscape:connector-curvature="0"></path>
      <path d="m 523.64006,799.94941 c 0.0239,0.82342 0.34946,1.50321 0.9766,2.03938 0.62712,0.53618 1.41224,0.81384 2.35534,0.83299 l 8.5022,0 0,-9.42136 c -0.0263,-0.72286 -0.3471,-1.37393 -0.96224,-1.9532 -0.61519,-0.57925 -1.36679,-0.88564 -2.25481,-0.91916 l -8.61709,0 z" style="font-size:114.89604187px;font-family:'Diavlo Medium';-inkscape-font-specification:'Diavlo Medium';fill:#c2374c;fill-opacity:1;stroke:none" id="path4249" inkscape:connector-curvature="0"></path>
      <path d="m 587.44459,797.07705 c 0.1489,2.07023 1.19146,3.57237 3.12769,4.50642 1.93613,0.93405 3.87232,1.51703 5.80855,1.74895 1.93613,0.23191 2.9787,0.32979 3.12769,0.29362 l 0,-42.39609 c -0.26096,-6.98459 -2.69768,-11.77186 -7.31017,-14.36182 -4.61258,-2.58986 -9.83549,-3.8154 -15.66874,-3.67663 -3.12612,0.10059 -6.06551,0.50272 -8.81816,1.20639 -2.7527,0.70379 -5.51975,1.10592 -8.30113,1.2064 -2.04897,-0.0478 -3.86813,-0.32548 -5.45749,-0.83299 -1.58939,-0.50739 -2.71918,-0.9574 -3.38939,-1.35001 l 0,53.65576 c 0.14893,2.14257 1.19149,3.67875 3.12768,4.60855 1.93617,0.92979 3.87236,1.49575 5.80856,1.69788 1.93617,0.20213 2.97873,0.28298 3.12769,0.24256 l 0,-49.05998 c 0.067,-0.0813 1.22552,-0.40687 3.47556,-0.9766 2.24999,-0.56964 5.18937,-0.89518 8.81815,-0.97661 4.54309,0.0216 7.77928,0.92639 9.70859,2.71439 1.92923,1.78809 2.86754,4.33013 2.81492,7.62612 z" style="font-size:114.89604187px;font-family:'Diavlo Medium';-inkscape-font-specification:'Diavlo Medium';fill:#c2374c;fill-opacity:1;stroke:none" id="path4251" inkscape:connector-curvature="0"></path>
      <path d="m 658.17918,782.48544 c -0.16042,3.76521 -1.99395,6.69023 -5.50058,8.77507 -3.50672,2.08487 -8.06898,3.14285 -13.68681,3.17396 -4.7873,-0.002 -8.25328,-0.94547 -10.39796,-2.82928 -2.14472,-1.88378 -3.19792,-4.6939 -3.1596,-8.43038 l 0,-6.3192 c 1.60851,0.85455 3.47554,1.47211 5.60111,1.85267 2.12553,0.38061 4.1649,0.56731 6.11814,0.56011 8.62184,-0.15077 14.73039,-1.946 18.32568,-5.38568 3.59519,-3.43962 5.33775,-7.61891 5.2277,-12.53787 -0.007,-5.53165 -1.9748,-9.92158 -5.90271,-13.16979 -3.928,-3.24811 -9.77325,-4.90929 -17.53578,-4.98355 -7.78173,0.0503 -13.70359,1.75938 -17.76557,5.12717 -4.06201,3.3679 -6.10618,8.09293 -6.1325,14.17512 l 0,22.40444 c 0.0694,6.08224 2.34336,10.80727 6.82187,14.17511 4.47847,3.36785 10.74501,5.0769 18.79962,5.12717 6.31198,-0.0311 11.58276,-1.17527 15.81236,-3.43247 4.2295,-2.2572 6.42686,-5.44073 6.59208,-9.55061 0.0191,-2.62342 -1.05325,-5.53408 -3.21705,-8.73199 z M 625.43423,764.2172 c -0.091,-3.76036 0.69414,-6.66623 2.35534,-8.71762 1.66116,-2.0513 4.74416,-3.09014 9.24901,-3.11652 4.20319,0.0431 7.20002,0.87613 8.9905,2.49896 1.7904,1.62293 2.66168,3.7772 2.61385,6.46282 0.0622,2.60192 -0.89526,4.60779 -2.87236,6.0176 -1.97718,1.40989 -5.34742,2.12319 -10.11072,2.13991 -2.19978,-0.0526 -4.34927,-0.29199 -6.44846,-0.71809 -2.09924,-0.42603 -3.35829,-0.72284 -3.77716,-0.89043 z" style="font-size:114.89604187px;font-family:'Diavlo Medium';-inkscape-font-specification:'Diavlo Medium';fill:#c2374c;fill-opacity:1;stroke:none" id="path4253" inkscape:connector-curvature="0"></path>
      <path d="m 673.98693,784.89823 c 0.0598,6.1325 2.00825,10.8719 5.84526,14.2182 3.83699,3.3463 9.20351,5.041 16.0996,5.08408 5.89549,-0.0503 10.62053,-1.18485 14.17512,-3.40375 3.5545,-2.2189 5.37845,-5.22051 5.47185,-9.00486 -0.002,-1.48644 -0.34234,-2.99443 -1.01969,-4.52398 -0.67744,-1.52951 -1.67798,-3.12367 -3.00162,-4.78248 -0.1293,4.22239 -1.56548,7.29582 -4.30855,9.22029 -2.74314,1.92449 -6.01763,2.87237 -9.82348,2.84364 -4.34448,-0.0407 -7.34609,-1.19442 -9.00486,-3.4612 -1.65882,-2.26676 -2.44871,-5.40242 -2.3697,-9.40699 l 0,-25.27681 16.54482,0 c 2.2943,-0.1191 3.94822,-0.95315 4.96174,-2.50215 1.01344,-1.5489 1.63756,-3.09784 1.87235,-4.64684 0.23471,-1.5489 0.33117,-2.38295 0.28937,-2.50215 l -23.66828,0 0,-4.36599 c -0.33752,-4.79918 -2.01785,-7.75292 -5.041,-8.86125 -3.02317,-1.10818 -5.36415,-1.56297 -7.02293,-1.36437 z" style="font-size:114.89604187px;font-family:'Diavlo Medium';-inkscape-font-specification:'Diavlo Medium';fill:#c2374c;fill-opacity:1;stroke:none" id="path4255" inkscape:connector-curvature="0"></path>
    </g>
    <text id="text4335" y="582.40131" x="384.04251" style="font-style:normal;font-weight:normal;line-height:0%;font-family:sans-serif;letter-spacing:0px;word-spacing:0px;fill:#000000;fill-opacity:1;stroke:none;stroke-width:1px;stroke-linecap:butt;stroke-linejoin:miter;stroke-opacity:1" xml:space="preserve"><tspan y="582.40131" x="384.04251" id="tspan4337" sodipodi:role="line" style="font-size:40px;line-height:0;font-family:sans-serif"> </tspan></text>
  </g>
</svg>
