<svg xmlns="http://www.w3.org/2000/svg" viewBox="0 0 207.69531 41.65625">
  <path
     style="fill:#998a7a;fill-opacity:1;fill-rule:nonzero;stroke:none"
     d="m 53.066407,17.488281 c -0.292969,5.464844 -2.160157,8.898437 -7.796875,8.898437 -6.613282,0 -8.476563,-4.917968 -8.476563,-11.996093 0,-7.074219 1.863281,-11.992188 8.476563,-11.992188 6.824218,-0.08594 7.839843,5.339844 7.839843,8.179688 h -4.574218 c 0,-2.121094 -0.59375,-4.875 -3.265625,-4.789063 -3.304688,0 -3.898438,3.558594 -3.898438,8.601563 0,5.046875 0.59375,8.605468 3.898438,8.605468 2.542968,0.04297 3.476562,-2.078125 3.476562,-5.507812 h 4.320313" />
  <path
     style="fill:#998a7a;fill-opacity:1;fill-rule:nonzero;stroke:none"
     d="m 63.371094,22.996093 c 3.347656,0 3.941406,-2.796875 3.941406,-8.605468 0,-5.042969 -0.59375,-8.601563 -3.941406,-8.601563 -3.308594,0 -3.898437,3.558594 -3.898437,8.601563 0,5.808593 0.589843,8.605468 3.898437,8.605468 m 0,-20.597656 c 6.652344,0 8.519531,4.917969 8.519531,11.992188 0,7.078125 -2.164062,11.996093 -8.519531,11.996093 -6.316406,0 -8.476562,-4.917968 -8.476562,-11.996093 0,-7.074219 1.863281,-11.992188 8.476562,-11.992188" />
  <path
     style="fill:#998a7a;fill-opacity:1;fill-rule:nonzero;stroke:none"
     d="m 74.644532,2.992187 h 4.324218 v 2.667969 h 0.125 C 80.242188,3.625 82.402344,2.398437 84.945313,2.398437 c 3.472656,0 5.675781,1.566406 5.675781,6.1875 V 25.792968 H 86.046875 V 10.15625 c 0,-2.96875 -0.890625,-4.113282 -3.179687,-4.113282 -1.863281,0 -3.644531,1.480469 -3.644531,4.449219 V 25.792968 H 74.644532 V 2.992187" />
  <path
     style="fill:#998a7a;fill-opacity:1;fill-rule:nonzero;stroke:none"
     d="m 104.04688,9.644531 v -0.59375 c 0,-1.824219 -0.63672,-3.515625 -3.00782,-3.515625 -1.824211,0 -3.265621,0.847656 -3.265621,2.964844 0,1.78125 0.80469,2.5 3.222661,3.347656 l 2.92578,1.019531 c 3.39062,1.144531 4.95312,2.96875 4.95312,6.570313 0,4.871093 -3.55859,6.949218 -8.17969,6.949218 -5.761716,0 -7.499997,-2.671875 -7.499997,-7.078125 v -0.847656 h 4.070316 v 0.722656 c 0,2.628907 0.93359,4.066407 3.558591,4.066407 2.5,0 3.73047,-1.269532 3.73047,-3.347657 0,-1.699218 -0.89063,-2.796875 -2.5,-3.347656 l -3.730471,-1.316406 c -3.429687,-1.1875 -4.875,-2.921875 -4.875,-6.566406 0,-4.28125 3.09375,-6.273438 7.796881,-6.273438 5.80859,0 7.12109,3.390625 7.12109,6.230469 v 1.015625 h -4.32031" />
  <path
     style="fill:#998a7a;fill-opacity:1;fill-rule:nonzero;stroke:none"
     d="m 123.03906,23.125 h -0.1289 c -1.14453,2.03125 -3.30469,3.261718 -5.84766,3.261718 -3.39062,0 -5.67969,-1.566406 -5.67969,-7.457031 v -15.9375 h 4.57422 v 16.359375 c 0,2.542969 1.14844,3.390625 3.09766,3.390625 1.94922,0 3.73047,-1.269531 3.73047,-3.8125 v -15.9375 h 4.57422 v 22.800781 h -4.32032 V 23.125" />
  <path
     style="fill:#998a7a;fill-opacity:1;fill-rule:nonzero;stroke:none"
     d="m 130.94531,2.992187 h 4.32422 v 2.667969 h 0.12891 c 1.14453,-2.035156 3.30469,-3.261719 5.46484,-3.261719 3.26563,0 4.6211,1.566406 5.30078,3.476563 1.3125,-2.207032 3.00782,-3.476563 5.76172,-3.476563 3.22266,0 5.55469,1.652344 5.55469,6.058594 v 17.335937 h -4.58203 V 10.15625 c 0,-2.96875 -0.88281,-4.113282 -2.75,-4.113282 -1.86719,0 -3.64453,1.480469 -3.64453,4.449219 v 15.300781 h -4.57813 V 10.15625 c 0,-2.96875 -0.89062,-4.113282 -2.79687,-4.113282 -1.82422,0 -3.60547,1.480469 -3.60547,4.449219 v 15.300781 h -4.57813 V 2.992187" />
  <path
     style="fill:#998a7a;fill-opacity:1;fill-rule:nonzero;stroke:none"
     d="m 172.28906,11.847656 v -1.226563 c 0,-2.882812 -0.92968,-5.085937 -3.51562,-5.085937 -2.92188,0 -3.81641,2.882812 -3.81641,5.847656 v 0.464844 z m -7.33203,3.136719 v 1.316406 c 0,3.050781 0.38672,6.949219 3.81641,6.949219 3.26562,0 3.64453,-3.730469 3.64453,-5.085938 h 4.32031 c 0,5.042969 -3.04687,8.222656 -8.00781,8.222656 -3.73047,0 -8.34766,-1.101562 -8.34766,-11.65625 0,-5.976562 1.26953,-12.332031 8.42969,-12.332031 6.36328,0 8.05469,3.8125 8.05469,10.171875 v 2.414063 h -11.91016" />
  <path
     style="fill:#998a7a;fill-opacity:1;fill-rule:nonzero;stroke:none"
     d="m 179.79297,2.992187 h 4.57812 v 3.558594 h 0.082 c 1.01953,-2.542969 2.71484,-4.152344 5.30078,-4.152344 0.50781,0 0.80859,0.08594 1.10156,0.167969 v 4.664062 c -0.33984,-0.08594 -1.14453,-0.257812 -1.90625,-0.257812 -2.07813,0 -4.57813,0.933594 -4.57813,5.171875 v 13.648437 h -4.57808 V 2.992187" />
  <path
     style="fill:#998a7a;fill-opacity:1;fill-rule:nonzero;stroke:none"
     d="m 202.86719,9.644531 v -0.59375 c 0,-1.824219 -0.63672,-3.515625 -3.01172,-3.515625 -1.82031,0 -3.26172,0.847656 -3.26172,2.964844 0,1.78125 0.80469,2.5 3.21875,3.347656 l 2.92578,1.019531 c 3.39453,1.144531 4.95703,2.96875 4.95703,6.570313 0,4.871093 -3.55468,6.949218 -8.17578,6.949218 -5.76172,0 -7.5039,-2.671875 -7.5039,-7.078125 v -0.847656 h 4.07031 v 0.722656 c 0,2.628907 0.93359,4.066407 3.5625,4.066407 2.49609,0 3.73047,-1.269532 3.73047,-3.347657 0,-1.699218 -0.89453,-2.796875 -2.50391,-3.347656 l -3.73047,-1.316406 c -3.43359,-1.1875 -4.87109,-2.921875 -4.87109,-6.566406 0,-4.28125 3.08984,-6.273438 7.79687,-6.273438 5.8086,0 7.11719,3.390625 7.11719,6.230469 v 1.015625 h -4.32031" />
  <path
     style="fill:#7daeca;fill-opacity:1;fill-rule:nonzero;stroke:none"
     d="m 18.449219,23.164062 c 3.417969,1.515625 7.128906,1.464844 10.335938,0.167969 V 3.597656 C 28.785157,1.609375 27.175782,0 25.1875,0 h -8.800781 c -2.007812,1.351562 -3.671875,3.261718 -4.722656,5.640625 -2.964844,6.714843 0.07422,14.558593 6.785156,17.523437" />
  <path
     style="fill:#998a7a;fill-opacity:1;fill-rule:nonzero;stroke:none"
     d="M 6.464844,6.515625 C 7.613282,3.917968 9.289063,1.722656 11.3125,0 H 3.601563 C 1.613282,0 0,1.609375 0,3.597656 V 25.1875 c 0,1.988281 1.613282,3.597656 3.601563,3.597656 h 8.964844 C 5.648438,23.855468 2.898438,14.589843 6.464844,6.515625" />
  <path
     style="fill:#7daeca;fill-opacity:1;fill-rule:nonzero;stroke:none"
     d="m 60.898438,36.597656 c -0.128906,-0.890625 -0.777344,-1.371094 -1.667969,-1.371094 -0.832031,0 -2.003906,0.4375 -2.003906,2.65625 0,1.214844 0.535156,2.5 1.933594,2.5 0.929687,0 1.582031,-0.621094 1.738281,-1.667969 h 1.609375 c -0.296875,1.894532 -1.46875,2.941407 -3.347656,2.941407 -2.285157,0 -3.546875,-1.625 -3.546875,-3.773438 0,-2.203125 1.203125,-3.929687 3.605468,-3.929687 1.695313,0 3.132813,0.847656 3.289063,2.644531 h -1.609375" />
  <path
     style="fill:#7daeca;fill-opacity:1;fill-rule:nonzero;stroke:none"
     d="m 63.769532,34.152343 h 1.515625 v 1.414063 h 0.02344 c 0.1875,-0.777344 1.148438,-1.613281 2.136719,-1.613281 0.367187,0 0.464844,0.02734 0.605469,0.04687 v 1.550781 c -0.226563,-0.02734 -0.46875,-0.07031 -0.691407,-0.07031 -1.101562,0 -1.976562,0.890625 -1.976562,2.5 v 3.476563 h -1.613281 v -7.304688" />
  <path
     style="fill:#7daeca;fill-opacity:1;fill-rule:nonzero;stroke:none"
     d="m 73.792969,37.164062 c -0.05469,-1.019531 -0.746094,-1.9375 -1.835937,-1.9375 -1.117188,0 -1.878907,0.847656 -1.921875,1.9375 z m -3.757812,1.054688 c 0,1.144531 0.625,2.164062 1.964843,2.164062 0.933594,0 1.5,-0.410156 1.777344,-1.214844 h 1.527344 C 74.953125,40.765625 73.597657,41.652343 72,41.652343 c -2.289062,0 -3.574218,-1.59375 -3.574218,-3.839843 0,-2.078125 1.355468,-3.859375 3.53125,-3.859375 2.304687,0 3.71875,2.078125 3.445312,4.265625 h -5.367187" />
  <path
     style="fill:#7daeca;fill-opacity:1;fill-rule:nonzero;stroke:none"
     d="m 79.941407,40.382812 c 1.441406,0 2.046875,-1.316406 2.046875,-2.585937 0,-1.609375 -0.777344,-2.570313 -2.019532,-2.570313 -1.511718,0 -2.050781,1.339844 -2.050781,2.65625 0,1.257813 0.621094,2.5 2.023438,2.5 m 3.601562,1.074219 h -1.527344 v -0.992188 h -0.02734 c -0.421875,0.835938 -1.34375,1.1875 -2.261719,1.1875 -2.300781,0 -3.417969,-1.710937 -3.417969,-3.898437 0,-2.640625 1.570313,-3.800781 3.164063,-3.800781 0.917968,0 1.9375,0.339843 2.429687,1.144531 h 0.03125 v -3.730469 h 1.609372 v 10.089844" />
  <path
     style="fill:#7daeca;fill-opacity:1;fill-rule:nonzero;stroke:none"
     d="m 85.222657,34.152343 h 1.609375 v 7.304688 h -1.609375 z m 0,-2.785156 h 1.609375 v 1.527344 h -1.609375 v -1.527344" />
  <path
     style="fill:#7daeca;fill-opacity:1;fill-rule:nonzero;stroke:none"
     d="M 87.789063,34.152343 H 89 v -2.191406 h 1.613282 v 2.191406 h 1.453125 v 1.199219 h -1.453125 v 3.902344 c 0,0.664062 0.05469,1 0.773437,1 0.226563,0 0.453125,0 0.679688,-0.05469 v 1.242188 c -0.351563,0.03125 -0.6875,0.08594 -1.042969,0.08594 -1.683594,0 -1.992188,-0.652343 -2.023438,-1.867187 v -4.308595 h -1.210937 v -1.199219" />
  <path
     style="fill:#7daeca;fill-opacity:1;fill-rule:nonzero;stroke:none"
     d="m 103.56641,41.457031 h -1.58203 V 40.4375 h -0.0273 c -0.39453,0.734375 -1.26953,1.214843 -2.078121,1.214843 -1.90625,0 -2.72656,-0.960937 -2.72656,-2.867187 v -4.632813 h 1.61328 v 4.476563 c 0,1.289062 0.52343,1.753906 1.398431,1.753906 1.33985,0 1.79297,-0.863281 1.79297,-1.992187 v -4.238282 h 1.60938 v 7.304688" />
  <path
     style="fill:#7daeca;fill-opacity:1;fill-rule:nonzero;stroke:none"
     d="m 105.20313,34.152343 h 1.52343 v 1.074219 l 0.0312,0.02734 c 0.47657,-0.804688 1.3125,-1.300781 2.26954,-1.300781 1.58203,0 2.58593,0.847656 2.58593,2.488281 v 5.015625 h -1.60937 v -4.589844 c -0.0273,-1.144531 -0.48047,-1.640625 -1.42578,-1.640625 -1.07422,0 -1.76953,0.847656 -1.76953,1.921875 v 4.308594 h -1.60547 v -7.304688" />
  <path
     style="fill:#7daeca;fill-opacity:1;fill-rule:nonzero;stroke:none"
     d="m 113.26563,34.152343 h 1.60547 v 7.304688 h -1.60547 z m 0,-2.785156 h 1.60547 v 1.527344 h -1.60547 v -1.527344" />
  <path
     style="fill:#7daeca;fill-opacity:1;fill-rule:nonzero;stroke:none"
     d="m 121.94922,37.796875 c 0,-1.257813 -0.63672,-2.570313 -2.07812,-2.570313 -1.44141,0 -2.07422,1.3125 -2.07422,2.570313 0,1.273437 0.63281,2.589843 2.07422,2.589843 1.4414,0 2.07812,-1.316406 2.07812,-2.589843 m -5.76172,0 c 0,-2.230469 1.33594,-3.84375 3.6836,-3.84375 2.34765,0 3.68749,1.613281 3.68749,3.84375 0,2.246093 -1.33984,3.855468 -3.68749,3.855468 -2.34766,0 -3.6836,-1.609375 -3.6836,-3.855468" />
  <path
     style="fill:#7daeca;fill-opacity:1;fill-rule:nonzero;stroke:none"
     d="m 124.85547,34.152343 h 1.52734 v 1.074219 l 0.0234,0.02734 c 0.48438,-0.804688 1.32031,-1.300781 2.27734,-1.300781 1.58594,0 2.58985,0.847656 2.58985,2.488281 v 5.015625 h -1.61328 v -4.58984 c -0.0273,-1.144531 -0.48043,-1.640625 -1.42965,-1.640625 -1.07031,0 -1.76172,0.847656 -1.76172,1.921875 v 4.308594 h -1.61328 v -7.304688" />
</svg>
