<svg id="Ebene_2" xmlns="http://www.w3.org/2000/svg" viewBox="0 0 254.75 241.11"><defs><style>.cls-1{fill:#068fd8;}</style></defs><g id="Ebene_1-2"><g id="gzDyQB.tif"><path class="cls-1" d="M148.75,0s44.48,24.73,64.4,36.09c13.85,7.9,27.34,16.43,41.6,23.61v98.52c-46.95,27.07-93.92,54.09-140.79,81.31-3.86,2.24-6.6,2.02-10.32-.16-31.69-18.5-63.49-36.84-95.32-55.1-2.94-1.69-4.69-3.73-5.67-6.99-2.78-9.25-4.1-18.42-.07-27.63,.83-1.9,.04-3.5-.43-5.25-2.34-8.77-3.54-17.54,.53-26.2,.93-1.97,.11-3.86-.3-5.8-1.71-8.17-2.54-16.34,.08-24.51,.95-2.95,2.59-5.01,5.42-6.64C53.16,55.23,98.39,29.09,143.6,2.93m101.02,59.15c-14.01-8.08-27.49-15.74-40.82-23.65-2.54-1.5-4.24-1.31-6.66,.11-16.52,9.68-33.15,19.18-49.73,28.76-10.17,5.88-10.31,5.93-12.96-5.73-.74-3.24-2.32-4.39-5.28-4.6-5.28-.37-10.56-.86-15.85-1.21-1.97-.13-3.7-.45-4.11-2.73-.37-2.08,.68-3.31,2.51-4.31,4.64-2.53,9.17-5.25,13.74-7.89,13.49-7.8,26.98-15.61,41.1-23.78-4.58-2.66-8.69-4.75-12.46-7.33-3.12-2.14-5.5-2.05-8.85-.1-32.95,19.21-66.03,38.19-99.06,57.26-10.52,6.07-21.01,12.21-32.07,18.63,2.48,1.55,4.36,2.81,6.3,3.93,27.9,16.1,55.86,32.09,83.65,48.37,3.65,2.14,6.14,2.06,9.73-.04,32.09-18.74,64.3-37.26,96.48-55.84,11.25-6.5,22.5-13,34.36-19.86Zm3.3,37.41c-1.57,.87-2.55,1.4-3.51,1.95-43.58,25.17-87.17,50.32-130.71,75.57-3.33,1.93-5.93,2.23-9.45,.12-13.86-8.33-27.94-16.3-41.94-24.39-16.72-9.65-33.53-19.14-50.11-29.02-4.12-2.45-4.85-.37-5.15,2.7-.52,5.29-.06,10.5,1.44,15.69,.81,2.8,2.25,4.54,4.69,5.94,28.32,16.29,56.82,32.28,84.76,49.2,8.1,4.9,13.77,4.85,21.92,.01,41.29-24.5,83.01-48.27,124.63-72.21,2.62-1.51,3.65-3.18,3.52-6.23-.27-6.12-.08-12.25-.08-19.32ZM8.38,153.04c-2.64,7.63-1.52,14.68,.48,21.76,.55,1.95,1.73,3.09,3.36,4.03,31.33,18.05,62.66,36.09,93.95,54.2,1.95,1.13,3.41,1.21,5.39,.07,44.44-25.72,88.91-51.37,133.37-77.05,1.24-.72,2.93-1.22,2.94-3.04,.05-7.15,.02-14.31,.02-21.99-1.6,.81-2.33,1.14-3.03,1.54-43.92,25.34-87.84,50.66-131.71,76.1-2.89,1.68-5.16,2.03-8.17,.27-19.09-11.2-38.27-22.24-57.43-33.32-12.98-7.5-25.97-14.96-39.17-22.56ZM247.92,68.19c-2.23,1.21-3.66,1.95-5.05,2.75-43.04,24.83-86.11,49.62-129.07,74.58-3.65,2.12-6.31,2.12-9.92-.06-11.59-7-23.43-13.57-35.16-20.34-18.73-10.8-37.49-21.55-56.13-32.51-3.76-2.21-4.94-1.43-4.81,2.67,.11,3.64-.35,7.36,.29,10.89,.7,3.82,.53,7.93,5.1,10.52,30.73,17.45,61.31,35.17,91.84,52.96,3.04,1.77,5.14,1.57,8.03-.19,8.17-4.98,16.58-9.59,24.88-14.37,35.18-20.3,70.37-40.59,105.52-60.95,1.98-1.15,4.66-1.72,4.54-5.16-.23-6.62-.07-13.24-.07-20.8Zm-106.91-4.98c18.19-10.53,35.2-20.37,52.73-30.52-6.41-3.7-12.06-6.78-17.5-10.19-2.14-1.34-3.6-1.21-5.71,.03-12.22,7.2-24.54,14.22-36.82,21.31-3.05,1.76-6.08,3.55-9.13,5.32,8.87,.77,17.58,.86,16.42,14.04Z"/></g></g></svg>
