<svg xmlns="http://www.w3.org/2000/svg" viewBox="0.00 50.00 500.00 400.00">
  <g transform="matrix(1.886789, 0, 0, -1.886789, -351.413971, 1414.84082)">
    <g id="body" transform="matrix(1, 0, 0, 1, 318.75, 511.366486)">
      <title>Body</title>
      <path d="m 0,0 c -20.346,0 -40.691,7.762 -56.215,23.285 l -53,53 c -31.047,31.047 -31.047,81.383 0,112.43 29.997,29.997 78,31.012 109.215,3.044 31.216,27.967 79.219,26.952 109.215,-3.044 31.047,-31.047 31.047,-81.383 0,-112.43 l -53,-53 C 40.692,7.762 20.346,0 0,0" style="fill:#ff69ad;fill-opacity:1;fill-rule:nonzero;stroke:none" id="body-path">
        <title>Body</title>
      </path>
    </g>
    <g id="left-eye" transform="matrix(1, 0, 0, 1, 303.125, 656.25)">
      <title>Left Eye</title>
      <path d="M 0 0 C 0 -3.452 -2.798 -6.25 -6.25 -6.25 C -9.702 -6.25 -12.5 -3.452 -12.5 0 C -12.5 3.452 -9.702 6.25 -6.25 6.25 C -2.798 6.25 0 3.452 0 0" style="fill:#461036;fill-opacity:1;fill-rule:nonzero;stroke:none" id="left-pupil-path">
        <title>Left Pupil</title>
      </path>
      <path d="M 0 0 C 0 -3.452 -2.798 -6.25 -6.25 -6.25 C -9.702 -6.25 -12.5 -3.452 -12.5 0 C -12.5 3.452 -9.702 6.25 -6.25 6.25 C -2.798 6.25 0 3.452 0 0 Z" style="fill:none;stroke:#461036;stroke-width:6;stroke-linecap:butt;stroke-linejoin:miter;stroke-miterlimit:10;stroke-dasharray:none;stroke-opacity:1" id="left-iris-path">
        <title>Left Iris</title>
      </path>
    </g>
    <g id="right-eye" transform="matrix(1, 0, 0, 1, 346.875, 656.25)">
      <title>Right Eye</title>
      <path d="m 0,0 c 0,-3.452 -2.798,-6.25 -6.25,-6.25 -3.452,0 -6.25,2.798 -6.25,6.25 0,3.452 2.798,6.25 6.25,6.25 C -2.798,6.25 0,3.452 0,0" style="fill:#461036;fill-opacity:1;fill-rule:nonzero;stroke:none" id="right-pupil-path">
        <title>Right Pupil</title>
      </path>
      <path d="M 0 0 C 0 -3.452 -2.798 -6.25 -6.25 -6.25 C -9.702 -6.25 -12.5 -3.452 -12.5 0 C -12.5 3.452 -9.702 6.25 -6.25 6.25 C -2.798 6.25 0 3.452 0 0 Z" style="fill:none;stroke:#461036;stroke-width:6;stroke-linecap:butt;stroke-linejoin:miter;stroke-miterlimit:10;stroke-dasharray:none;stroke-opacity:1" id="right-iris-path">
        <title>Right Iris</title>
      </path>
    </g>
    <g id="mouth" transform="matrix(1, 0, 0, 1, 296.88681, 631.243286)">
      <title>Mouth</title>
      <path d="M 0,0 C 10.004,-16.325 33.722,-16.325 43.726,0" style="fill:none;stroke:#461036;stroke-width:10;stroke-linecap:round;stroke-linejoin:round;stroke-miterlimit:10;stroke-dasharray:none;stroke-opacity:1" id="mouth-path">
        <title>Mouth</title>
      </path>
    </g>
    <g id="right-cheek" transform="matrix(1, 0, 0, 1, 418.75, 637.5)">
      <title>Right Cheek</title>
      <path d="M 0,0 C 0,17.259 -13.991,31.25 -31.25,31.25 -48.509,31.25 -62.5,17.259 -62.5,0 c 0,-17.259 13.991,-31.25 31.25,-31.25 C -13.991,-31.25 0,-17.259 0,0" style="fill:#e34198;fill-opacity:1;fill-rule:nonzero;stroke:none" id="right-cheek-path">
        <title>Right Cheek</title>
      </path>
    </g>
    <g id="left-cheek" transform="matrix(1, 0, 0, 1, 281.25, 637.5)">
      <title>Left Cheek</title>
      <path d="M 0,0 C 0,17.259 -13.991,31.25 -31.25,31.25 -48.509,31.25 -62.5,17.259 -62.5,0 c 0,-17.259 13.991,-31.25 31.25,-31.25 C -13.991,-31.25 0,-17.259 0,0" style="fill:#e34198;fill-opacity:1;fill-rule:nonzero;stroke:none" id="left-cheek-path">
        <title>Left Cheek</title>
      </path>
    </g>
  </g>
</svg>
