<svg xmlns="http://www.w3.org/2000/svg" viewBox="0.18 0.18 399.77 399.77"><g fill-rule="evenodd"><path d="M243.945 94.539c-6.935.78-20.759 4.041-24.349 5.744-3.619 1.718-38.737 37.04-38.737 38.963 0 .732-.581.774 4.983-.359 13.185-2.686 33.208-5.935 45.877-7.444 9.608-1.146 9.15-2.143 9.417 20.51.251 21.406 1.268 36.911 2.404 36.645.284-.067 2.74-3.171 5.458-6.899 7.671-10.519 18.092-23.554 26.748-33.457 2.605-2.98 2.906-3.739 3.571-8.984 1.9-14.998-1.203-32.559-6.859-38.819-4.128-4.569-16.877-7.207-28.513-5.9m-23.437 46.138c-8.846 1.314-13.901 2.153-21.094 3.498-12.122 2.268-26.779 5.431-28.173 6.08-2.853 1.328-26.026 31.08-36.613 47.005-1.013 1.523-1.425 2.573-1.425 3.626 0 3.648 3.356 23.076 5.708 33.043l.954 4.046-2.716 8.259c-5.599 17.024-16.825 57.84-16.106 58.559.175.175 1.778.267 3.562.204l3.243-.114 2.431-6.445c20.226-53.611 52.024-107.115 90.155-151.697 5.934-6.938 5.934-6.935.074-6.064m10.288 7.047c-12.904 13.812-34.729 43.254-49.031 66.143-12.434 19.898-28.344 49.805-26.497 49.805.104 0 2.785-1.035 5.957-2.299 12.612-5.028 33.551-12.268 45.256-15.647 3.356-.969 3.249-.853 7.012-7.64 4.916-8.865 16.217-27.911 22.06-37.177.457-.725.408-2.401-.334-11.523-1.364-16.766-1.997-26.456-2.275-34.812-.281-8.461-.372-8.751-2.148-6.85m-51.108 114.727c-9.505 3.269-22.476 8.289-26.247 10.157l-2.855 1.415-2.807 6.641c-1.544 3.652-2.818 6.773-2.832 6.934-.064.745 1.711.044 7.924-3.13 3.685-1.882 10.654-5.266 15.488-7.519 4.834-2.254 10.196-4.801 11.914-5.66l3.125-1.562 2.405-4.687c2.19-4.266 2.551-5.336 1.772-5.242-.149.018-3.698 1.211-7.887 2.653" fill="#fbfbfb"/><path d="M.195 200v199.609h399.61V.391H.195V200M259.416 94.32c15.049 2.269 20.685 11.815 20.648 34.977-.02 12.497-.719 15.661-4.355 19.726-7.547 8.438-18.882 22.709-28.779 36.231-2.676 3.656-3.571 4.365-4.209 3.333-.915-1.481-2.828-43.017-2.301-49.964.541-7.121-.49-7.719-10.951-6.361-13.311 1.729-30.271 4.433-39.549 6.307-9.164 1.851-9.793 1.883-9.836.493-.044-1.452 35.627-37.295 38.697-38.883 8.635-4.465 29.717-7.505 40.635-5.859m-33.736 46.305c.056.322-1.414 2.344-3.267 4.492-39.752 46.096-73.196 102.685-93.672 158.496l-.681 1.856H120.703v-1.29c0-1.441 1.844-9.179 4.301-18.046.893-3.223 2.317-8.492 3.164-11.708 1.658-6.295 7.171-24.479 9.678-31.922l1.539-4.568-.764-2.98c-2.009-7.844-5.808-29.979-5.808-33.842 0-1.83.225-2.351 2.413-5.57 10.434-15.355 32.199-43.435 35.085-45.266 2.119-1.344 24.186-5.996 41.212-8.688 11.148-1.763 13.986-1.956 14.157-.964m7.636 11.914c.334 6.789 1.415 23.398 2.494 38.321l.681 9.415-3.343 5.429c-7.772 12.622-16.953 28.247-20.773 35.353-2.42 4.501-1.154 3.891-19.406 9.346-5.336 1.595-21.249 7.344-29.74 10.744-10.702 4.286-10.508 4.68-4.032-8.189 17.632-35.034 39.878-68.506 66.581-100.179 7.307-8.667 7.123-8.662 7.538-.24m-44.802 107.378c.228.594-4.136 9.591-4.982 10.272-.288.232-4.743 2.39-9.899 4.797a1174.857 1174.857 0 00-18.853 9.05c-12.019 5.928-11.571 6.152-7.327-3.652 3.441-7.949 2.241-6.865 12.038-10.88 15.048-6.167 28.615-10.648 29.023-9.587" fill="#23cc9c"/><path d="M210.73 107.52l-2.332 2.441 2.442-2.332c1.343-1.282 2.441-2.381 2.441-2.441 0-.289-.385.064-2.551 2.332m-19.141 19.14l-2.331 2.442 2.441-2.332c2.268-2.166 2.62-2.551 2.332-2.551-.061 0-1.159 1.098-2.442 2.441m-6.063 6.445l-1.346 1.465 1.465-1.346c1.363-1.253 1.644-1.583 1.346-1.583-.066 0-.725.659-1.465 1.464m45.304 14.063l-.947 1.074 1.045-.92c1.492-1.312 1.874-.804 1.962 2.603l.078 3.005.135-2.868c.186-3.93-.543-4.857-2.273-2.894m-61.909 4.492l-1.148 1.27 1.27-1.148c.698-.631 1.27-1.202 1.27-1.269 0-.302-.323-.036-1.392 1.147m71.829 7.324c0 1.397.071 1.968.158 1.27.086-.698.086-1.841 0-2.539-.087-.698-.158-.127-.158 1.269m-7.43.782c0 1.181.073 1.665.163 1.074a8.682 8.682 0 000-2.149c-.09-.59-.163-.107-.163 1.075m.38 7.031c0 .967.076 1.362.169.879a5.515 5.515 0 000-1.758c-.093-.483-.169-.088-.169.879m7.406 1.562c0 .752.081 1.06.179.684a3.215 3.215 0 000-1.367c-.098-.376-.179-.069-.179.683m3.209 19.956c-.144.234-.595.338-1 .232-.406-.106-.639-.034-.519.161.333.539 1.191.424 1.735-.231.268-.323.387-.586.266-.586s-.338.191-.482.424M120.959 305.176c.099.161 1.654.293 3.455.293 1.801 0 3.356-.132 3.455-.293.1-.161-1.455-.293-3.455-.293s-3.555.132-3.455.293" fill="#73e0be"/><path d="M99.902.293c55.054.055 145.142.055 200.196 0C355.151.238 310.107.194 200 .194S44.849.238 99.902.293M.194 200c0 109.463.044 154.243.099 99.512.055-54.732.055-144.292 0-199.024C.238 45.757.194 90.537.194 200m399.609 0c0 109.463.045 154.243.099 99.512.055-54.732.055-144.292 0-199.024-.054-54.731-.099-9.951-.099 99.512M247.577 94.041c1.783.072 4.595.072 6.25-.001 1.655-.073.196-.132-3.241-.132-3.438.001-4.792.06-3.009.133m-6.073.369c.376.098.991.098 1.367 0s.068-.179-.683-.179c-.752 0-1.06.081-.684.179m-26.66 8.91c-.949.967-1.638 1.758-1.53 1.758.107 0 .972-.791 1.92-1.758.949-.966 1.638-1.757 1.53-1.757-.107 0-.971.791-1.92 1.757m-13.676 13.379l-8.395 8.496 8.497-8.395c7.894-7.8 8.672-8.597 8.395-8.597-.056 0-3.879 3.823-8.497 8.496m-13.491 13.867l-1.544 1.661 1.66-1.545c1.544-1.436 1.84-1.776 1.544-1.776-.064 0-.811.747-1.66 1.66m-4.694 5.079l-1.147 1.269 1.269-1.147c.699-.631 1.27-1.203 1.27-1.27 0-.302-.322-.036-1.392 1.148m57.407 8.105c0 3.115.06 4.39.134 2.832a71.319 71.319 0 000-5.664c-.074-1.558-.134-.283-.134 2.832m-7.062 11.719c0 1.396.071 1.968.158 1.269.086-.698.086-1.841 0-2.539-.087-.698-.158-.127-.158 1.27m.377 8.008c.003 1.074.079 1.467.169.873.09-.594.087-1.473-.005-1.953-.093-.48-.166.005-.164 1.08m.4 6.64c.003 1.289.076 1.77.162 1.067.087-.702.086-1.756-.004-2.343-.089-.587-.16-.013-.158 1.276m.387 5.664c0 1.182.073 1.665.163 1.074a8.674 8.674 0 000-2.148c-.09-.591-.163-.107-.163 1.074m.391 5.469c0 1.182.073 1.665.162 1.074.09-.591.09-1.557 0-2.148-.089-.591-.162-.108-.162 1.074m.385 4.883c.003 1.074.079 1.467.169.873.089-.593.087-1.472-.006-1.953-.092-.48-.166.006-.163 1.08m.385 4.883c0 .966.076 1.362.17.879a5.574 5.574 0 000-1.758c-.094-.484-.17-.088-.17.879m-71.2 51.562c-.438.86-.709 1.563-.602 1.563.108 0 .554-.703.993-1.563.438-.859.709-1.562.602-1.562-.108 0-.554.703-.993 1.562m-15.36 13.104c-.917 1.925-.788 2.252.171.433.436-.825.723-1.57.639-1.655-.085-.084-.449.466-.81 1.222m8.204.781c-.918 1.925-.789 2.252.17.434.436-.826.724-1.571.639-1.656-.084-.084-.449.466-.809 1.222m-1.633 7.209c-1.081.275-1.096.301-.195.338.537.022 1.24-.13 1.562-.338.665-.43.322-.43-1.367 0m-3.711 21.484c-1.182.625-2.011 1.144-1.842 1.154.415.025 4.186-1.9 4.186-2.137 0-.261.054-.284-2.344.983M99.902 399.902c55.054.055 145.142.055 200.196 0 55.053-.054 10.009-.099-100.098-.099s-155.151.045-100.098.099" fill="#2dd49c"/><path d="M254.785 94.41c.376.098.991.098 1.367 0s.069-.179-.683-.179-1.06.081-.684.179m-40.332 9.692c-.949.966-1.637 1.757-1.53 1.757.108 0 .972-.791 1.921-1.757.949-.967 1.637-1.758 1.53-1.758-.108 0-.972.791-1.921 1.758m-13.285 12.988l-7.223 7.324 7.325-7.223c4.028-3.972 7.324-7.268 7.324-7.324 0-.278-.716.418-7.426 7.223m78.626 8.691c0 .967.076 1.363.169.879a5.574 5.574 0 000-1.758c-.093-.483-.169-.088-.169.879m-91.122 4.102c-.949.967-1.637 1.758-1.53 1.758.107 0 .972-.791 1.921-1.758.948-.967 1.637-1.758 1.529-1.758-.107 0-.971.791-1.92 1.758m46.973 1.246c.376.098.991.098 1.367 0 .376-.099.068-.179-.684-.179s-1.059.08-.683.179m44.154 1.488c.003 1.074.079 1.467.169.874.09-.594.087-1.473-.006-1.953-.092-.481-.166.005-.163 1.079m-96.425 3.028l-1.147 1.269 1.269-1.147c.698-.631 1.27-1.203 1.27-1.27 0-.302-.323-.036-1.392 1.148m57.423 9.863c.001 6.23.055 8.724.12 5.542a324.05 324.05 0 000-11.328c-.066-3.048-.12-.445-.12 5.786m-7.859 9.57c0 1.397.07 1.968.157 1.27.087-.699.087-1.841 0-2.539-.087-.699-.157-.127-.157 1.269m.364 8.008c.004.859.084 1.165.177.679.094-.486.09-1.189-.007-1.563-.098-.373-.175.025-.17.884m7.835 1.953c.002 1.289.075 1.769.162 1.067.087-.702.085-1.756-.004-2.343-.089-.587-.161-.013-.158 1.276m-7.453 4.492c0 .752.081 1.06.179.684a3.215 3.215 0 000-1.367c-.098-.376-.179-.069-.179.683m7.813 3.125c0 .752.08 1.06.179.684a3.215 3.215 0 000-1.367c-.099-.376-.179-.069-.179.683m-108.594 28.516c0 .752.081 1.059.179.683a3.215 3.215 0 000-1.367c-.098-.376-.179-.068-.179.684m28.425 48.047c-.438.859-.709 1.562-.602 1.562.108 0 .554-.703.993-1.562.438-.86.709-1.563.602-1.563-.108 0-.554.703-.993 1.563" fill="#a7ecd7"/></g></svg>