<?xml version="1.0" encoding="UTF-8" standalone="no"?>
<svg
   xmlns:dc="http://purl.org/dc/elements/1.1/"
   xmlns:cc="http://web.resource.org/cc/"
   xmlns:rdf="http://www.w3.org/1999/02/22-rdf-syntax-ns#"
   xmlns:svg="http://www.w3.org/2000/svg"
   xmlns="http://www.w3.org/2000/svg"
   xmlns:sodipodi="http://sodipodi.sourceforge.net/DTD/sodipodi-0.dtd"
   xmlns:inkscape="http://www.inkscape.org/namespaces/inkscape"
   width="8in"
   height="8in"
   viewBox="0 0 1 1"
   preserveAspectRatio="none"
   id="svg2"
   sodipodi:version="0.32"
   inkscape:version="0.45.1"
   sodipodi:docname="FAA.svg"
   inkscape:output_extension="org.inkscape.output.svg.inkscape"
   inkscape:export-xdpi="90"
   inkscape:export-ydpi="90">
  <metadata
     id="metadata461">
    <rdf:RDF>
      <cc:Work
         rdf:about="">
        <dc:format>image/svg+xml</dc:format>
        <dc:type
           rdf:resource="http://purl.org/dc/dcmitype/StillImage" />
      </cc:Work>
    </rdf:RDF>
  </metadata>
  <defs
     id="defs459">































































































































































































































</defs>
  <sodipodi:namedview
     inkscape:window-height="714"
     inkscape:window-width="718"
     inkscape:pageshadow="2"
     inkscape:pageopacity="0.0"
     guidetolerance="10.0"
     gridtolerance="10.0"
     objecttolerance="10.0"
     borderopacity="1.0"
     bordercolor="#666666"
     pagecolor="#ffffff"
     id="base"
     inkscape:showpageshadow="false"
     inkscape:zoom="0.74246212"
     inkscape:cx="426.09524"
     inkscape:cy="392.50305"
     inkscape:window-x="556"
     inkscape:window-y="22"
     inkscape:current-layer="svg2" />
  <title
     id="title4">SVG drawing</title>
  <desc
     id="desc6">This was produced by version 4.1 of GNU libplot, a free library for exporting 2-D vector graphics.</desc>
  <g
     id="g3838">
    <polygon
       transform="matrix(2.3691069e-2,0,0,-2.3691069e-2,-0.9391376,14.641554)"
       points="0,648 0,648 0,648 "
       style="font-style:normal;font-variant:normal;font-weight:normal;font-stretch:normal;letter-spacing:normal;word-spacing:normal;text-anchor:start;fill:#ffffff;fill-opacity:1;fill-rule:nonzero;stroke:#ffffff;stroke-width:0;stroke-linecap:butt;stroke-linejoin:miter;stroke-miterlimit:10.43299961;stroke-dasharray:none;stroke-dashoffset:0;stroke-opacity:1"
       id="polygon12" />
    <path
       d="M 0.9999289,0.49988155 L 0.99926556,0.52546793 L 0.99734665,0.55105418 L 0.99414826,0.57592987 L 0.98974179,0.60056853 L 0.98417443,0.62473352 L 0.97742245,0.64866149 L 0.96955695,0.67187863 L 0.96057807,0.69462211 L 0.95055674,0.71665477 L 0.93951675,0.73821362 L 0.92745793,0.75906179 L 0.91445151,0.77943616 L 0.90049751,0.79909971 L 0.88564328,0.81805257 L 0.86991241,0.83605783 L 0.85335228,0.85358917 L 0.83598675,0.86993602 L 0.81783938,0.88580908 L 0.7989339,0.90049751 L 0.77931772,0.91447525 L 0.75903815,0.92750527 L 0.73809525,0.93958771 L 0.71653638,0.95072255 L 0.69438523,0.96067277 L 0.67166549,0.96967541 L 0.64844824,0.97749342 L 0.62473348,0.98412694 L 0.6005449,0.98981288 L 0.57592988,0.99407716 L 0.55091212,0.997394 L 0.52553897,0.99928931 L 0.49981048,1 C 0.22366738,1 -6.9388939e-18,0.77611933 -6.9388939e-18,0.49988155 C -6.9388939e-18,0.22388053 0.22366738,4.2663355e-17 0.49981048,4.2663355e-17 C 0.77578774,4.2663355e-17 0.9999289,0.22388053 0.9999289,0.49988155 z "
       style="font-style:normal;font-variant:normal;font-weight:normal;font-stretch:normal;letter-spacing:normal;word-spacing:normal;text-anchor:start;fill:#a87b00;fill-opacity:1;fill-rule:nonzero;stroke:#a87b00;stroke-width:0;stroke-linecap:butt;stroke-linejoin:miter;stroke-miterlimit:10.43299961;stroke-dasharray:none;stroke-dashoffset:0;stroke-opacity:1"
       id="path106" />
    <path
       d="M 0.97919932,0.49988155 L 0.97855959,0.52452021 L 0.97671162,0.5489221 L 0.97367918,0.57285007 L 0.96946225,0.59654114 L 0.96410805,0.61975828 L 0.95764032,0.64250176 L 0.95010657,0.66477131 L 0.94153051,0.68656721 L 0.93193563,0.70765227 L 0.92136942,0.7282634 L 0.90983175,0.74840088 L 0.89737037,0.76782753 L 0.88400861,0.78678038 L 0.86977022,0.80478565 L 0.85472644,0.82231698 L 0.83885337,0.83890073 L 0.82219855,0.85477379 L 0.80483299,0.86969912 L 0.78670932,0.88415066 L 0.7679223,0.89741771 L 0.74849563,0.90997394 L 0.7284293,0.92134568 L 0.70777069,0.93200659 L 0.68654349,0.94171991 L 0.66477139,0.95024876 L 0.64250179,0.95782987 L 0.61975836,0.9642265 L 0.59658849,0.9694385 L 0.5729922,0.97370293 L 0.54899314,0.97678272 L 0.52466242,0.97867804 L 0.50000001,0.97938873 C 0.23522862,0.97938873 0.020729692,0.76451083 0.020729692,0.49988155 C 0.020729692,0.23525227 0.23522862,0.020611271 0.50000001,0.020611271 C 0.76467663,0.020611271 0.97919932,0.23525227 0.97919932,0.49988155 z "
       style="font-style:normal;font-variant:normal;font-weight:normal;font-stretch:normal;letter-spacing:normal;word-spacing:normal;text-anchor:start;fill:#d4b76a;fill-opacity:1;fill-rule:nonzero;stroke:#d4b76a;stroke-width:0;stroke-linecap:butt;stroke-linejoin:miter;stroke-miterlimit:10.43299961;stroke-dasharray:none;stroke-dashoffset:0;stroke-opacity:1"
       id="path108" />
    <path
       d="M 0.95984363,0.49964466 L 0.95925139,0.52333572 L 0.95747452,0.54678989 L 0.95456053,0.56977014 L 0.9505094,0.59251361 L 0.94536835,0.61478317 L 0.93918501,0.63657906 L 0.93195924,0.65790102 L 0.92371478,0.67874905 L 0.91452261,0.69912342 L 0.90435923,0.71902387 L 0.89329549,0.73821362 L 0.88133151,0.75692958 L 0.86851464,0.77493484 L 0.8548685,0.79222928 L 0.84041697,0.80904993 L 0.82520731,0.82492299 L 0.80923953,0.84008522 L 0.79256101,0.85477379 L 0.77517177,0.86827761 L 0.75716655,0.88107087 L 0.73849799,0.8931533 L 0.71926085,0.90428814 L 0.69943142,0.91423836 L 0.6790571,0.92347789 L 0.65818527,0.93176969 L 0.63681593,0.93911391 L 0.61499645,0.94527364 L 0.59275054,0.95024876 L 0.57012557,0.95427628 L 0.54709785,0.95735607 L 0.52376215,0.95901449 L 0.50009477,0.95972518 C 0.24615021,0.95972518 0.040251127,0.75384978 0.040251127,0.49964466 C 0.040251127,0.24567628 0.24615021,0.039801023 0.50009477,0.039801023 C 0.75403934,0.039801023 0.95984363,0.24567628 0.95984363,0.49964466 z "
       style="font-style:normal;font-variant:normal;font-weight:normal;font-stretch:normal;letter-spacing:normal;word-spacing:normal;text-anchor:start;fill:#091f62;fill-opacity:1;fill-rule:nonzero;stroke:#0030ad;stroke-width:0;stroke-linecap:butt;stroke-linejoin:miter;stroke-miterlimit:10.43299961;stroke-dasharray:none;stroke-dashoffset:0;stroke-opacity:1"
       id="path110" />
    <path
       d="M 0.49990525,0.18858082 L 0.48389008,0.18905476 L 0.46808814,0.19023925 L 0.45249942,0.19213455 L 0.43717129,0.19474056 L 0.42210378,0.19829415 L 0.40734425,0.20255857 L 0.39286899,0.20753369 L 0.37874912,0.21298272 L 0.36496092,0.21914232 L 0.35152809,0.22601274 L 0.33849799,0.23359385 L 0.32587066,0.2416489 L 0.31366975,0.25041464 L 0.30191897,0.25965403 L 0.29061835,0.26936749 L 0.27981521,0.27979151 L 0.26950961,0.29045242 L 0.25972518,0.30182416 L 0.25050937,0.3136697 L 0.24181475,0.32575213 L 0.23373609,0.33854539 L 0.2262497,0.3515754 L 0.2193556,0.36484246 L 0.21312486,0.3785833 L 0.20755745,0.39279794 L 0.2026771,0.40724949 L 0.19848378,0.42217481 L 0.19500119,0.43710015 L 0.19227672,0.45249942 L 0.19028666,0.46813544 L 0.1891021,0.4840085 L 0.18867568,0.49988155 C 0.18867568,0.67187863 0.32795546,0.81141904 0.49990525,0.81141904 C 0.67185502,0.81141904 0.81122957,0.67187863 0.81122957,0.49988155 C 0.81122957,0.32788434 0.67185502,0.18858082 0.49990525,0.18858082 z "
       style="font-style:normal;font-variant:normal;font-weight:normal;font-stretch:normal;letter-spacing:normal;word-spacing:normal;text-anchor:start;fill:#ffffff;fill-opacity:1;fill-rule:nonzero;stroke:#ffffff;stroke-width:0;stroke-linecap:butt;stroke-linejoin:miter;stroke-miterlimit:10.43299961;stroke-dasharray:none;stroke-dashoffset:0;stroke-opacity:1"
       id="path112" />
    <path
       d="M 0.73006398,0.66263924 L 0.73598675,0.6538735 L 0.74157783,0.64487086 L 0.74686095,0.63563134 L 0.75181238,0.62615491 L 0.75640845,0.61644158 L 0.76067284,0.60672826 L 0.76455817,0.59677804 L 0.76808814,0.58659078 L 0.77121536,0.57616677 L 0.77396353,0.56574275 L 0.77633263,0.5548448 L 0.7782753,0.54418389 L 0.77979154,0.53328594 L 0.78090501,0.52215111 L 0.78156836,0.5110164 L 0.78180527,0.49964466 L 0.84074865,0.49964466 L 0.83954041,0.49727554 L 0.78161574,0.49206341 C 0.77929401,0.40464348 0.73719499,0.32693675 0.67277897,0.27671171 C 0.68296613,0.26818287 0.69073681,0.25941714 0.69777305,0.2501776 C 0.70471453,0.24093821 0.70127933,0.23240937 0.70127933,0.23240937 C 0.68443498,0.2444918 0.66787492,0.25396823 0.65159915,0.26178624 C 0.64778489,0.25941714 0.64399432,0.25681113 0.64010899,0.25467892 L 0.64010899,0.25444202 C 0.63991946,0.25444202 0.6398247,0.25444202 0.63965886,0.25444202 C 0.59855486,0.23075095 0.55098319,0.21701011 0.50037906,0.21677321 L 0.5002843,0.15873017 L 0.49786782,0.15991464 L 0.49334281,0.21677321 C 0.34240701,0.21985315 0.22006634,0.34162518 0.21627577,0.49230044 L 0.16093343,0.49727554 L 0.15972518,0.49964466 L 0.21608624,0.49964466 C 0.21608624,0.6536366 0.33963517,0.77919927 0.49270316,0.78251596 L 0.49760722,0.83913763 L 0.50009477,0.84032225 L 0.50009477,0.78251596 C 0.59412463,0.78227906 0.67889127,0.73371244 0.73006398,0.66263924 z "
       style="font-style:normal;font-variant:normal;font-weight:normal;font-stretch:normal;letter-spacing:normal;word-spacing:normal;text-anchor:start;fill:#d4b76a;fill-opacity:1;fill-rule:nonzero;stroke:#d4b76a;stroke-width:0;stroke-linecap:butt;stroke-linejoin:miter;stroke-miterlimit:10.43299961;stroke-dasharray:none;stroke-dashoffset:0;stroke-opacity:1"
       id="path282" />
    <path
       d="M 0.77604834,0.49964466 L 0.77569297,0.5138593 L 0.77462688,0.52807393 L 0.77287374,0.54181465 L 0.77045725,0.5553186 L 0.76735372,0.56882255 L 0.76363421,0.58185257 L 0.75929875,0.59464583 L 0.75434732,0.60720205 L 0.74882731,0.61952138 L 0.7427387,0.63136691 L 0.7360815,0.64297555 L 0.72890311,0.6543473 L 0.72120351,0.66500834 L 0.71300641,0.67543236 L 0.70431178,0.68561947 L 0.69516702,0.6950959 L 0.68559584,0.70433543 L 0.67557453,0.71286428 L 0.66512676,0.72115608 L 0.65429994,0.72897423 L 0.64309407,0.73608154 L 0.63153283,0.74271494 L 0.61963991,0.74887468 L 0.60739162,0.75432358 L 0.59485904,0.75929868 L 0.58201849,0.76356311 L 0.56891732,0.76735373 L 0.55555556,0.77043353 L 0.5419569,0.77280263 L 0.52814499,0.77469795 L 0.51411989,0.77564554 L 0.49990525,0.77611933 C 0.34731107,0.77611933 0.22366738,0.65245198 0.22366738,0.49964466 C 0.22366738,0.34731099 0.34731107,0.22340674 0.49990525,0.22340674 C 0.65242834,0.22340674 0.77604834,0.34731099 0.77604834,0.49964466 z "
       style="font-style:normal;font-variant:normal;font-weight:normal;font-stretch:normal;letter-spacing:normal;word-spacing:normal;text-anchor:start;fill:#d4b76a;fill-opacity:1;fill-rule:nonzero;stroke:#09ba00;stroke-width:0;stroke-linecap:butt;stroke-linejoin:miter;stroke-miterlimit:10.43299961;stroke-dasharray:none;stroke-dashoffset:0;stroke-opacity:1"
       id="path114" />
    <path
       d="M 0.09012082,0.40606486 L 0.15666903,0.42383324 L 0.15981996,0.4122246 C 0.15981996,0.4122246 0.13380716,0.40511728 0.13075101,0.40440659 C 0.1315802,0.40156355 0.13667377,0.3821369 0.13667377,0.3821369 L 0.1270552,0.3795309 C 0.1270552,0.3795309 0.12186687,0.39895754 0.12113243,0.40180044 C 0.11845535,0.40108975 0.1055911,0.39777306 0.1028903,0.39682534 C 0.10374319,0.39398243 0.10992656,0.37052826 0.10992656,0.37052826 L 0.10030798,0.36815915 L 0.09012082,0.40606486 z "
       style="font-style:normal;font-variant:normal;font-weight:normal;font-stretch:normal;letter-spacing:normal;word-spacing:normal;text-anchor:start;fill:#ffffff;fill-opacity:1;fill-rule:nonzero;stroke:#ffffff;stroke-width:0;stroke-linecap:butt;stroke-linejoin:miter;stroke-miterlimit:10.43299961;stroke-dasharray:none;stroke-dashoffset:0;stroke-opacity:1"
       id="path116" />
    <path
       d="M 0.1111348,0.33878228 L 0.17370291,0.36768536 L 0.19090264,0.33001655 L 0.18182896,0.32575213 C 0.18182896,0.32575213 0.17090737,0.3494432 0.16972281,0.35228623 C 0.16711681,0.35110161 0.1533286,0.34470498 0.15074626,0.34375739 C 0.15204928,0.34091449 0.16036485,0.32267233 0.16036485,0.32267233 L 0.1511964,0.31864481 C 0.1511964,0.31864481 0.14288083,0.33688697 0.14167259,0.33949297 C 0.13918503,0.33854539 0.12778963,0.33309635 0.12530206,0.33214876 C 0.12658138,0.32930586 0.13667377,0.3072732 0.13667377,0.3072732 L 0.1276001,0.30300879 L 0.1111348,0.33878228 z "
       style="font-style:normal;font-variant:normal;font-weight:normal;font-stretch:normal;letter-spacing:normal;word-spacing:normal;text-anchor:start;fill:#ffffff;fill-opacity:1;fill-rule:nonzero;stroke:#ffffff;stroke-width:0;stroke-linecap:butt;stroke-linejoin:miter;stroke-miterlimit:10.43299961;stroke-dasharray:none;stroke-dashoffset:0;stroke-opacity:1"
       id="path118" />
    <path
       d="M 0.15861171,0.25373133 L 0.14371003,0.27434261 L 0.19950249,0.31461742 L 0.21440418,0.29400615 C 0.21959252,0.28666193 0.22172472,0.27884379 0.2204217,0.27102577 C 0.21895285,0.26202314 0.21312486,0.25349444 0.20405117,0.24686091 C 0.18711207,0.23477848 0.170552,0.23714759 0.15861171,0.25373133 z M 0.16491352,0.26202314 L 0.16548212,0.26131245 L 0.16607439,0.26060175 L 0.16671406,0.25989106 L 0.16737741,0.25894334 L 0.16806445,0.25823265 L 0.16875148,0.25752182 L 0.16950961,0.25704802 L 0.17026771,0.25633734 L 0.17104952,0.25562665 L 0.17187871,0.25515272 L 0.17273158,0.25444202 L 0.17360816,0.25396823 L 0.17450842,0.25349444 L 0.17543237,0.25325753 L 0.17640371,0.25278375 L 0.17737504,0.25254672 L 0.17839375,0.25230981 L 0.17945985,0.25207292 L 0.18052594,0.25183602 L 0.18163943,0.25183602 L 0.1827766,0.25183602 L 0.18393745,0.25207292 L 0.18514571,0.25207292 L 0.18635395,0.25230981 L 0.18763327,0.25278375 L 0.18891258,0.25325753 L 0.18957593,0.25349444 L 0.19023928,0.25373133 L 0.19090264,0.25396823 L 0.19158968,0.25420513 L 0.19227672,0.25467892 L 0.19296376,0.25491582 L 0.19367449,0.25538975 L 0.19438523,0.25586354 L 0.19509596,0.25633734 L 0.19580669,0.25681113 L 0.19654112,0.25728493 L 0.19729922,0.25775885 C 0.2045013,0.26297086 0.20867093,0.26865667 0.20968965,0.2745795 C 0.20987918,0.27552709 0.20987918,0.27647481 0.20987918,0.2771855 C 0.20987918,0.28239751 0.20765223,0.28618814 0.20608861,0.28832035 C 0.20608861,0.28832035 0.20071073,0.29590146 0.19850747,0.29898126 C 0.19590145,0.29708595 0.16147833,0.2722104 0.158896,0.27055197 C 0.1604596,0.26818287 0.16491352,0.26202314 0.16491352,0.26202314 z "
       style="font-style:normal;font-variant:normal;font-weight:normal;font-stretch:normal;letter-spacing:normal;word-spacing:normal;text-anchor:start;fill:#ffffff;fill-opacity:1;fill-rule:nonzero;stroke:#ffffff;stroke-width:0;stroke-linecap:butt;stroke-linejoin:miter;stroke-miterlimit:10.43299961;stroke-dashoffset:0;stroke-opacity:1"
       id="path120" />
    <path
       d="M 0.19803365,0.2056385 L 0.24551054,0.25562665 L 0.27550344,0.22719737 L 0.26856196,0.21985315 C 0.26856196,0.21985315 0.24968018,0.23785828 0.24745322,0.23999049 C 0.24551054,0.23785828 0.23503909,0.22696046 0.23309643,0.22482826 C 0.23522862,0.22293294 0.24968018,0.20895519 0.24968018,0.20895519 L 0.24283345,0.20184788 C 0.24283345,0.20184788 0.2283819,0.21558872 0.22617864,0.21772093 C 0.22430704,0.21558872 0.21561242,0.20658609 0.21376451,0.20469078 C 0.21599148,0.20255857 0.23357025,0.18573793 0.23357025,0.18573793 L 0.22662877,0.1786306 L 0.19803365,0.2056385 z "
       style="font-style:normal;font-variant:normal;font-weight:normal;font-stretch:normal;letter-spacing:normal;word-spacing:normal;text-anchor:start;fill:#ffffff;fill-opacity:1;fill-rule:nonzero;stroke:#ffffff;stroke-width:0;stroke-linecap:butt;stroke-linejoin:miter;stroke-miterlimit:10.43299961;stroke-dasharray:none;stroke-dashoffset:0;stroke-opacity:1"
       id="path124" />
    <path
       d="M 0.26958067,0.14688463 L 0.25050937,0.15967775 L 0.28853352,0.21701011 L 0.29862593,0.21013968 C 0.29862593,0.21013968 0.28502724,0.18952855 0.28336887,0.18715944 C 0.28502724,0.18597482 0.28751482,0.18431655 0.28843877,0.18360572 C 0.29012083,0.18431655 0.31954514,0.19639898 0.31954514,0.19639898 L 0.3321251,0.18787013 C 0.3321251,0.18787013 0.29900498,0.17531391 0.29575931,0.17412929 C 0.29779674,0.17057569 0.29909975,0.16678507 0.29909975,0.16275768 C 0.29909975,0.15873017 0.29798626,0.15470264 0.29575931,0.15138595 C 0.29289267,0.14712152 0.28919688,0.14427862 0.28474295,0.1433309 C 0.27761195,0.14190951 0.27133381,0.1457 0.26958067,0.14688463 z M 0.27187871,0.15730865 L 0.27244729,0.15707174 L 0.27299218,0.15659795 L 0.27353708,0.15636105 L 0.27410567,0.15612416 L 0.27436626,0.15612416 L 0.27465055,0.15588726 L 0.27491117,0.15588726 L 0.27519546,0.15565036 L 0.27545606,0.15565036 L 0.27574035,0.15541333 L 0.27600096,0.15541333 L 0.27628525,0.15541333 L 0.27654584,0.15541333 L 0.27680646,0.15517643 L 0.27709075,0.15517643 L 0.27735135,0.15517643 L 0.27761195,0.15517643 L 0.27787254,0.15517643 L 0.27813314,0.15517643 L 0.27839375,0.15493954 L 0.27865435,0.15493954 L 0.27891495,0.15493954 L 0.27915186,0.15493954 L 0.27941247,0.15517643 L 0.27964939,0.15517643 L 0.27990999,0.15517643 L 0.28014689,0.15517643 L 0.28040749,0.15517643 C 0.28242123,0.15565036 0.28410329,0.15683485 0.28531153,0.15873017 C 0.28696992,0.16109927 0.28770434,0.16346838 0.28770434,0.16583748 C 0.28770434,0.1701019 0.28493249,0.17389239 0.27948354,0.17768302 C 0.27948354,0.17768302 0.2785359,0.17815681 0.2777067,0.1786306 C 0.27633262,0.17649839 0.26770908,0.16346838 0.26614546,0.16109927 C 0.26799337,0.15991464 0.27187871,0.15730865 0.27187871,0.15730865 z "
       style="font-style:normal;font-variant:normal;font-weight:normal;font-stretch:normal;letter-spacing:normal;word-spacing:normal;text-anchor:start;fill:#ffffff;fill-opacity:1;fill-rule:nonzero;stroke:#ffffff;stroke-width:0;stroke-linecap:butt;stroke-linejoin:miter;stroke-miterlimit:10.43299961;stroke-dashoffset:0;stroke-opacity:1"
       id="path126" />
    <path
       d="M 0.33674485,0.11087423 L 0.33750297,0.18479033 L 0.34804549,0.18052592 C 0.34804549,0.18052592 0.34785596,0.16275768 0.34785596,0.16062547 C 0.34979864,0.15991464 0.37026771,0.15162284 0.37221039,0.15067512 C 0.37367922,0.15233353 0.38609335,0.16512679 0.38609335,0.16512679 L 0.39819949,0.16015154 L 0.34702678,0.10660981 L 0.33674485,0.11087423 z M 0.3475006,0.12485197 L 0.34790335,0.12532577 L 0.34835347,0.12579956 L 0.34882729,0.12627335 L 0.34932481,0.12674715 L 0.34984602,0.12722108 L 0.3504146,0.12793178 L 0.35098319,0.12840556 L 0.35159915,0.12911626 L 0.35219144,0.12982708 L 0.35283108,0.13053778 L 0.35411041,0.13172226 L 0.35541341,0.13314377 L 0.35674012,0.13456529 L 0.35801942,0.13598668 L 0.35865909,0.13646048 L 0.35927507,0.1371713 L 0.35989102,0.137882 L 0.36048331,0.13835578 L 0.36105189,0.13906661 L 0.36159678,0.13954041 L 0.3620943,0.1402511 L 0.36259182,0.1407249 L 0.36306564,0.14119869 L 0.36349207,0.14167262 L 0.36387113,0.14214641 L 0.3642265,0.14238331 L 0.36453448,0.14262021 L 0.36479508,0.143094 C 0.36145464,0.14427862 0.35110164,0.14854304 0.3477612,0.14996443 C 0.3477612,0.14617394 0.34757167,0.13077467 0.3475006,0.12485197 z "
       style="font-style:normal;font-variant:normal;font-weight:normal;font-stretch:normal;letter-spacing:normal;word-spacing:normal;text-anchor:start;fill:#ffffff;fill-opacity:1;fill-rule:nonzero;stroke:#ffffff;stroke-width:0;stroke-linecap:butt;stroke-linejoin:miter;stroke-miterlimit:10.43299961;stroke-dashoffset:0;stroke-opacity:1"
       id="path130" />
    <path
       d="M 0.39950248,0.089789164 L 0.41319593,0.15707174 L 0.45401564,0.14877994 L 0.45197821,0.13906661 C 0.45197821,0.13906661 0.4262497,0.14427862 0.42319356,0.14498931 C 0.42255391,0.14167262 0.4114428,0.087183161 0.4114428,0.087183161 L 0.39950248,0.089789164 z "
       style="font-style:normal;font-variant:normal;font-weight:normal;font-stretch:normal;letter-spacing:normal;word-spacing:normal;text-anchor:start;fill:#ffffff;fill-opacity:1;fill-rule:nonzero;stroke:#ffffff;stroke-width:0;stroke-linecap:butt;stroke-linejoin:miter;stroke-miterlimit:10.43299961;stroke-dasharray:none;stroke-dashoffset:0;stroke-opacity:1"
       id="path134" />
    <path
       d="M 0.50824449,0.14522622 L 0.51952145,0.14664772 C 0.51952145,0.14664772 0.5278607,0.13077467 0.52887942,0.12911626 C 0.53101161,0.12935315 0.55292586,0.13172226 0.55505805,0.1319593 C 0.55562663,0.13409137 0.5602464,0.15114904 0.5602464,0.15114904 L 0.57330018,0.15280733 L 0.55403934,0.081260325 L 0.54311776,0.079838943 L 0.50824449,0.14522622 z M 0.54572378,0.097370279 L 0.54586592,0.09808097 L 0.54603176,0.098554764 L 0.54622128,0.099265592 L 0.54641082,0.099976283 L 0.54662402,0.10068697 L 0.54681356,0.1013978 L 0.54705046,0.10234539 L 0.54726369,0.10305608 L 0.5475006,0.10400381 L 0.54773752,0.10495139 L 0.54821133,0.10660981 L 0.54870885,0.10850513 L 0.54920635,0.1104003 L 0.54970387,0.11205871 L 0.54994078,0.11300644 L 0.55017768,0.11395403 L 0.55041459,0.11466472 L 0.55062782,0.11561244 L 0.55084103,0.11632313 L 0.55105426,0.11703383 L 0.5512438,0.11774465 L 0.55143332,0.11845534 L 0.55162286,0.11916604 L 0.55178868,0.11987673 L 0.55193084,0.12035065 L 0.55207298,0.12082445 L 0.55219144,0.12129825 L 0.55228619,0.12153514 C 0.54868516,0.12129825 0.53757404,0.11987673 0.533973,0.11940293 C 0.53572614,0.11632313 0.54295192,0.10281918 0.54572378,0.097370279 z "
       style="font-style:normal;font-variant:normal;font-weight:normal;font-stretch:normal;letter-spacing:normal;word-spacing:normal;text-anchor:start;fill:#ffffff;fill-opacity:1;fill-rule:nonzero;stroke:#ffffff;stroke-width:0;stroke-linecap:butt;stroke-linejoin:miter;stroke-miterlimit:10.43299961;stroke-dashoffset:0;stroke-opacity:1"
       id="path136" />
    <path
       d="M 0.59689649,0.16015154 L 0.60753376,0.16346838 L 0.65131486,0.1047145 L 0.64039328,0.1013978 C 0.64039328,0.1013978 0.61281688,0.13835578 0.60810235,0.14475242 C 0.60753376,0.13669751 0.60428809,0.090499856 0.60428809,0.090499856 L 0.5918029,0.08670923 L 0.59689649,0.16015154 z "
       style="font-style:normal;font-variant:normal;font-weight:normal;font-stretch:normal;letter-spacing:normal;word-spacing:normal;text-anchor:start;fill:#ffffff;fill-opacity:1;fill-rule:nonzero;stroke:#ffffff;stroke-width:0;stroke-linecap:butt;stroke-linejoin:miter;stroke-miterlimit:10.43299961;stroke-dasharray:none;stroke-dashoffset:0;stroke-opacity:1"
       id="path140" />
    <polygon
       transform="matrix(2.3691069e-2,0,0,-2.3691069e-2,-0.9391376,14.641554)"
       points="66.848,610.52 67.312,610.3 68.555,612.93 68.09,613.15 66.848,610.52 "
       style="font-style:normal;font-variant:normal;font-weight:normal;font-stretch:normal;letter-spacing:normal;word-spacing:normal;text-anchor:start;fill:#ffffff;fill-opacity:1;fill-rule:nonzero;stroke:#ffffff;stroke-width:0;stroke-linecap:butt;stroke-linejoin:miter;stroke-miterlimit:10.43299961;stroke-dasharray:none;stroke-dashoffset:0;stroke-opacity:1"
       id="polygon142" />
    <path
       d="M 0.67055202,0.18905476 L 0.68000474,0.19545124 C 0.68000474,0.19545124 0.6947169,0.18526413 0.69647004,0.18407964 C 0.69822318,0.18526413 0.7164653,0.19782036 0.71821844,0.19900498 C 0.71776832,0.20113719 0.71395406,0.21843163 0.71395406,0.21843163 L 0.7246861,0.22601274 L 0.74098556,0.15375505 L 0.73181712,0.14735842 L 0.67055202,0.18905476 z M 0.72608387,0.16417907 L 0.72596541,0.16465286 L 0.72582328,0.16536368 L 0.72568112,0.16583748 L 0.72551529,0.16654817 L 0.72534946,0.1674959 L 0.72518362,0.16820659 L 0.72499408,0.16891728 L 0.72480456,0.169865 L 0.72461504,0.1708126 L 0.72440181,0.17152329 L 0.72399906,0.1734186 L 0.72359631,0.17531391 L 0.72319357,0.17720922 L 0.72276713,0.1788675 L 0.72257759,0.17981523 L 0.72238807,0.18076281 L 0.72217484,0.18171054 L 0.72200901,0.18242123 L 0.72181949,0.18313192 L 0.72165365,0.18407964 L 0.7214878,0.18479033 L 0.72132197,0.18550103 L 0.72117982,0.18597482 L 0.72103768,0.18668565 L 0.72091922,0.18715944 L 0.72080077,0.18763324 L 0.72070601,0.18810703 L 0.72063493,0.18858082 C 0.71767354,0.18644875 0.70841034,0.18028902 0.70544896,0.17815681 C 0.7085051,0.1760246 0.72117982,0.1674959 0.72608387,0.16417907 z "
       style="font-style:normal;font-variant:normal;font-weight:normal;font-stretch:normal;letter-spacing:normal;word-spacing:normal;text-anchor:start;fill:#ffffff;fill-opacity:1;fill-rule:nonzero;stroke:#ffffff;stroke-width:0;stroke-linecap:butt;stroke-linejoin:miter;stroke-miterlimit:10.43299961;stroke-dashoffset:0;stroke-opacity:1"
       id="path144" />
    <path
       d="M 0.78216065,0.20018947 L 0.78204219,0.20042636 L 0.78185265,0.20042636 L 0.78161574,0.20066325 L 0.78133145,0.20113719 L 0.78099978,0.20137408 L 0.78062072,0.20184788 L 0.78019428,0.20208477 L 0.77974414,0.20255857 L 0.77924663,0.2032694 L 0.77870174,0.2037432 L 0.77813316,0.20421698 L 0.77751719,0.20492768 L 0.77687752,0.2056385 L 0.77619048,0.2063492 L 0.77476902,0.20777058 L 0.7732291,0.2091921 L 0.77161811,0.21108741 L 0.76991236,0.21274582 L 0.76815921,0.21440411 L 0.766335,0.21629941 L 0.7644871,0.21819473 L 0.76074391,0.22198522 L 0.758896,0.22411743 L 0.75704811,0.22601274 L 0.75522389,0.22767115 L 0.75347076,0.22956647 L 0.75176499,0.23122475 L 0.7501303,0.23288316 L 0.74861408,0.23454159 L 0.74716894,0.23596296 L 0.74650558,0.23667379 L 0.74586592,0.23738448 L 0.74524995,0.23809517 L 0.74468136,0.2385691 L 0.74413647,0.2390429 L 0.74363896,0.23975358 L 0.74316514,0.24022738 L 0.7427387,0.24046428 L 0.74235965,0.24093821 L 0.74202796,0.24141201 L 0.74174367,0.2416489 L 0.74150677,0.2418858 L 0.74131723,0.2421227 L 0.74119878,0.2421227 L 0.74110401,0.24235959 L 0.74108032,0.24235959 L 0.74977495,0.25088843 C 0.74977495,0.25088843 0.78855723,0.21108741 0.79085526,0.2087183 C 0.79298745,0.21085051 0.807439,0.22482826 0.807439,0.22482826 L 0.81447526,0.21772093 L 0.77263682,0.17697233 L 0.76560058,0.18407964 L 0.78216065,0.20018947 z "
       style="font-style:normal;font-variant:normal;font-weight:normal;font-stretch:normal;letter-spacing:normal;word-spacing:normal;text-anchor:start;fill:#ffffff;fill-opacity:1;fill-rule:nonzero;stroke:#ffffff;stroke-width:0;stroke-linecap:butt;stroke-linejoin:miter;stroke-miterlimit:10.43299961;stroke-dasharray:none;stroke-dashoffset:0;stroke-opacity:1"
       id="path148" />
    <polygon
       transform="matrix(2.3691069e-2,0,0,-2.3691069e-2,-0.9391376,14.641554)"
       points="72.344,606.25 72.66,605.84 74.961,607.62 74.645,608.02 72.344,606.25 "
       style="font-style:normal;font-variant:normal;font-weight:normal;font-stretch:normal;letter-spacing:normal;word-spacing:normal;text-anchor:start;fill:#ffffff;fill-opacity:1;fill-rule:nonzero;stroke:#ffffff;stroke-width:0;stroke-linecap:butt;stroke-linejoin:miter;stroke-miterlimit:10.43299961;stroke-dasharray:none;stroke-dashoffset:0;stroke-opacity:1"
       id="polygon150" />
    <path
       d="M 0.82399906,0.28618814 L 0.82399906,0.28618814 C 0.80483299,0.29661215 0.79836533,0.31438039 0.80760485,0.33143807 C 0.81186923,0.33925608 0.81807629,0.34446809 0.82556268,0.3466003 C 0.83425729,0.3492063 0.84453922,0.34778491 0.85453689,0.34233587 C 0.87377399,0.33191186 0.88026533,0.31414349 0.87100219,0.29708595 C 0.86176266,0.2800284 0.84333098,0.27576398 0.82399906,0.28618814 z M 0.81648899,0.32669985 L 0.81613363,0.32598902 L 0.81577826,0.32527833 L 0.81547028,0.32456764 L 0.81520968,0.32385695 L 0.81497276,0.32314613 L 0.81475955,0.32243544 L 0.81457001,0.32172475 L 0.81440418,0.32125081 L 0.81428572,0.32054012 L 0.81419097,0.31982943 L 0.81411988,0.31911874 L 0.8140725,0.31864481 L 0.81404881,0.31793412 L 0.8140725,0.31746032 L 0.8140962,0.31674963 L 0.81414358,0.3160388 L 0.8143331,0.31485431 L 0.8145937,0.31390659 L 0.81492539,0.31272211 L 0.81532814,0.31153749 L 0.81582565,0.3105899 L 0.81637054,0.30964231 L 0.81696281,0.30869458 L 0.81760248,0.307747 L 0.81831321,0.30679928 L 0.81904762,0.30585168 L 0.81980574,0.30490409 L 0.82058756,0.30419327 L 0.82141674,0.30348257 L 0.82224593,0.30277188 L 0.82307511,0.30206105 L 0.823928,0.30135037 L 0.82475718,0.30063968 L 0.82558637,0.30016588 L 0.82641555,0.29945506 L 0.82722105,0.29898126 L 0.82797917,0.29850747 L 0.82873728,0.29803367 L 0.82944801,0.29779678 L 0.83011136,0.29732284 C 0.83482588,0.29471684 0.84399433,0.29068932 0.85212029,0.29305856 C 0.85638472,0.29447994 0.85982,0.29732284 0.86221272,0.30182416 C 0.86387113,0.30490409 0.8646293,0.30798389 0.8646293,0.3105899 C 0.8646293,0.32101392 0.85389716,0.32812123 0.84842456,0.33120117 C 0.84157783,0.33499166 0.82473348,0.34186208 0.81648899,0.32669985 z "
       style="font-style:normal;font-variant:normal;font-weight:normal;font-stretch:normal;letter-spacing:normal;word-spacing:normal;text-anchor:start;fill:#ffffff;fill-opacity:1;fill-rule:nonzero;stroke:#ffffff;stroke-width:0;stroke-linecap:butt;stroke-linejoin:miter;stroke-miterlimit:10.43299961;stroke-dashoffset:0;stroke-opacity:1"
       id="path152" />
    <path
       d="M 0.83011136,0.37455578 L 0.83323858,0.38521669 C 0.83323858,0.38521669 0.87026775,0.37431889 0.87896239,0.37194978 C 0.87285002,0.3790571 0.84176736,0.4145937 0.84176736,0.4145937 L 0.84491828,0.42549152 L 0.91099263,0.40630176 L 0.90793657,0.39564085 C 0.90793657,0.39564085 0.87090735,0.40653866 0.86221272,0.40890777 C 0.86832509,0.40203748 0.89940773,0.36650087 0.89940773,0.36650087 L 0.89628058,0.35536603 L 0.83011136,0.37455578 z "
       style="font-style:normal;font-variant:normal;font-weight:normal;font-stretch:normal;letter-spacing:normal;word-spacing:normal;text-anchor:start;fill:#ffffff;fill-opacity:1;fill-rule:nonzero;stroke:#ffffff;stroke-width:0;stroke-linecap:butt;stroke-linejoin:miter;stroke-miterlimit:10.43299961;stroke-dasharray:none;stroke-dashoffset:0;stroke-opacity:1"
       id="path156" />
    <path
       d="M 0.090310352,0.61051874 L 0.090334041,0.61051874 L 0.090357744,0.61051874 L 0.090428813,0.61051874 L 0.090523573,0.61051874 L 0.090642034,0.61051874 L 0.090784173,0.61051874 L 0.090950014,0.61051874 L 0.091139546,0.61051874 L 0.091329077,0.61051874 L 0.091565988,0.61051874 L 0.091802899,0.61051874 L 0.092063499,0.61051874 L 0.092347789,0.61051874 L 0.092655769,0.61051874 L 0.092963762,0.61051874 L 0.093295432,0.61051874 L 0.094006164,0.61075578 L 0.094764275,0.61075578 L 0.09556978,0.61075578 L 0.09639896,0.61075578 L 0.097275534,0.61075578 L 0.098175798,0.61099268 L 0.099076047,0.61099268 L 0.10002369,0.61099268 L 0.10189529,0.61099268 L 0.10281924,0.61122957 L 0.10374319,0.61122957 L 0.10464346,0.61122957 L 0.10549633,0.61122957 L 0.10634921,0.61146648 L 0.10713101,0.61146648 L 0.10788914,0.61146648 L 0.10859987,0.61146648 L 0.10890785,0.61146648 L 0.10923951,0.61146648 L 0.1095238,0.61146648 L 0.10980811,0.61146648 L 0.11006871,0.61146648 L 0.11030562,0.61146648 L 0.11054253,0.61170337 L 0.11073205,0.61170337 L 0.11092158,0.61170337 L 0.11106373,0.61170337 L 0.11120588,0.61170337 L 0.11132433,0.61170337 C 0.111964,0.61359868 0.11947406,0.63634203 0.12011372,0.63823734 C 0.11845535,0.63965886 0.1040038,0.65174129 0.1040038,0.65174129 L 0.10826818,0.66477131 L 0.16813552,0.61478317 L 0.16453448,0.60388535 L 0.086614553,0.59914714 L 0.090310352,0.61051874 z M 0.12250652,0.61241406 L 0.12290927,0.61241406 L 0.12338309,0.61241406 L 0.12390429,0.61241406 L 0.12449658,0.61241406 L 0.12515991,0.61241406 L 0.12587064,0.61265096 L 0.12662877,0.61265096 L 0.12743426,0.61265096 L 0.12828715,0.61265096 L 0.12916371,0.61265096 L 0.13008766,0.61288799 L 0.1310353,0.61288799 L 0.13200663,0.61288799 L 0.13300166,0.61288799 L 0.1350154,0.61312489 L 0.13707653,0.61312489 L 0.13911395,0.61336178 L 0.14112771,0.61336178 L 0.14209904,0.61336178 L 0.14304668,0.61359868 L 0.14397063,0.61359868 L 0.1448472,0.61359868 L 0.14570007,0.61359868 L 0.14650557,0.61383558 L 0.14728738,0.61383558 L 0.14799811,0.61383558 L 0.14866146,0.61383558 L 0.14925374,0.61383558 C 0.14463399,0.6178631 0.13167497,0.62876092 0.12871357,0.63113002 C 0.1276001,0.62757643 0.12371475,0.61596779 0.12250652,0.61241406 z "
       style="font-style:normal;font-variant:normal;font-weight:normal;font-stretch:normal;letter-spacing:normal;word-spacing:normal;text-anchor:start;fill:#ffffff;fill-opacity:1;fill-rule:nonzero;stroke:#ffffff;stroke-width:0;stroke-linecap:butt;stroke-linejoin:miter;stroke-miterlimit:10.43299961;stroke-dashoffset:0;stroke-opacity:1"
       id="path158" />
    <path
       d="M 0.12132196,0.6917792 L 0.13511016,0.71475959 C 0.13991946,0.7228145 0.14676617,0.7282634 0.15482114,0.73015872 C 0.16415542,0.73252782 0.1748164,0.7306325 0.18497987,0.72447291 C 0.19433783,0.71878697 0.20035537,0.71167965 0.20248757,0.70338785 C 0.2045013,0.6953328 0.20274817,0.6868041 0.19739398,0.67780147 L 0.18360579,0.65458419 L 0.12132196,0.6917792 z M 0.1811893,0.67069414 L 0.18126036,0.67093104 L 0.18133145,0.67093104 L 0.18147359,0.67116794 L 0.18163943,0.67140483 L 0.18180525,0.67187863 L 0.18199479,0.67211566 L 0.18218432,0.67235256 L 0.18239754,0.67282635 L 0.18261076,0.67306326 L 0.18282398,0.67353704 L 0.18306089,0.67401084 L 0.18351102,0.67472167 L 0.18398485,0.67543236 L 0.18445866,0.67637995 L 0.18467189,0.67661684 L 0.1849088,0.67709077 L 0.18512201,0.67732767 L 0.18533522,0.67780147 L 0.18552476,0.67803836 L 0.18571429,0.67851216 L 0.18590382,0.67874905 L 0.18604596,0.67898595 L 0.1862118,0.67922299 L 0.18628287,0.67945988 L 0.18633026,0.67945988 L 0.18640134,0.67969677 L 0.18644871,0.67969677 L 0.18651978,0.67969677 L 0.18656717,0.67993368 L 0.18659086,0.67993368 L 0.18663824,0.67993368 L 0.18666193,0.68017057 L 0.18668563,0.68017057 L 0.18670931,0.68017057 L 0.186733,0.68017057 L 0.186733,0.68017057 L 0.186733,0.68017057 C 0.1891495,0.68419809 0.19109216,0.68893631 0.19109216,0.69391142 C 0.19109216,0.70054494 0.18765696,0.70741523 0.17739873,0.71357497 C 0.15685857,0.72589429 0.14705046,0.71475959 0.14380479,0.70907365 C 0.14380479,0.70907365 0.13871122,0.70054494 0.13676854,0.69722812 C 0.1395404,0.6955697 0.17841743,0.67235256 0.1811893,0.67069414 z "
       style="font-style:normal;font-variant:normal;font-weight:normal;font-stretch:normal;letter-spacing:normal;word-spacing:normal;text-anchor:start;fill:#ffffff;fill-opacity:1;fill-rule:nonzero;stroke:#ffffff;stroke-width:0;stroke-linecap:butt;stroke-linejoin:miter;stroke-miterlimit:10.43299961;stroke-dashoffset:0;stroke-opacity:1"
       id="path162" />
    <path
       d="M 0.17424782,0.77232884 L 0.18239754,0.78062065 C 0.18239754,0.78062065 0.20774698,0.75550819 0.21727079,0.74626867 C 0.21153756,0.7581142 0.19673063,0.7886757 0.19673063,0.7886757 L 0.20488036,0.7969675 C 0.20488036,0.7969675 0.23624733,0.78275286 0.24809287,0.77730395 C 0.23875859,0.78654349 0.21312486,0.81189283 0.21312486,0.81189283 L 0.22162995,0.82042167 L 0.27327649,0.76948594 L 0.26308932,0.75906179 C 0.26308932,0.75906179 0.22061123,0.77848844 0.21348022,0.78156837 C 0.21691543,0.77469795 0.23717129,0.73276472 0.23717129,0.73276472 L 0.22589435,0.72139298 L 0.17424782,0.77232884 z "
       style="font-style:normal;font-variant:normal;font-weight:normal;font-stretch:normal;letter-spacing:normal;word-spacing:normal;text-anchor:start;fill:#ffffff;fill-opacity:1;fill-rule:nonzero;stroke:#ffffff;stroke-width:0;stroke-linecap:butt;stroke-linejoin:miter;stroke-miterlimit:10.43299961;stroke-dasharray:none;stroke-dashoffset:0;stroke-opacity:1"
       id="path166" />
    <polygon
       transform="matrix(2.3691069e-2,0,0,-2.3691069e-2,-0.9391376,14.641554)"
       points="50.27,582.45 50.711,582.14 52.465,584.65 52.027,584.96 50.27,582.45 "
       style="font-style:normal;font-variant:normal;font-weight:normal;font-stretch:normal;letter-spacing:normal;word-spacing:normal;text-anchor:start;fill:#ffffff;fill-opacity:1;fill-rule:nonzero;stroke:#ffffff;stroke-width:0;stroke-linecap:butt;stroke-linejoin:miter;stroke-miterlimit:10.43299961;stroke-dasharray:none;stroke-dashoffset:0;stroke-opacity:1"
       id="polygon168" />
    <path
       d="M 0.29343759,0.87040981 L 0.30390903,0.87538492 C 0.30390903,0.87538492 0.32167734,0.83771611 0.32556266,0.8296612 C 0.32677091,0.83890073 0.33333334,0.88936267 0.33333334,0.88936267 L 0.34406539,0.89433778 L 0.37517177,0.82871361 L 0.36470032,0.82373836 C 0.36470032,0.82373836 0.34702678,0.86117028 0.34304668,0.86946222 C 0.34183843,0.8599858 0.33537077,0.80999766 0.33537077,0.80999766 L 0.32454395,0.80478565 L 0.29343759,0.87040981 z "
       style="font-style:normal;font-variant:normal;font-weight:normal;font-stretch:normal;letter-spacing:normal;word-spacing:normal;text-anchor:start;fill:#ffffff;fill-opacity:1;fill-rule:nonzero;stroke:#ffffff;stroke-width:0;stroke-linecap:butt;stroke-linejoin:miter;stroke-miterlimit:10.43299961;stroke-dasharray:none;stroke-dashoffset:0;stroke-opacity:1"
       id="path170" />
    <polygon
       transform="matrix(2.3691069e-2,0,0,-2.3691069e-2,-0.9391376,14.641554)"
       points="55.656,579.8 56.172,579.65 57,582.6 56.48,582.75 55.656,579.8 "
       style="font-style:normal;font-variant:normal;font-weight:normal;font-stretch:normal;letter-spacing:normal;word-spacing:normal;text-anchor:start;fill:#ffffff;fill-opacity:1;fill-rule:nonzero;stroke:#ffffff;stroke-width:0;stroke-linecap:butt;stroke-linejoin:miter;stroke-miterlimit:10.43299961;stroke-dasharray:none;stroke-dashoffset:0;stroke-opacity:1"
       id="polygon172" />
    <path
       d="M 0.42994552,0.86282869 L 0.42985076,0.86377629 L 0.42980337,0.86472401 L 0.42980337,0.8656716 L 0.42987445,0.86685622 L 0.4299929,0.86756692 L 0.43015875,0.8685145 L 0.43037196,0.86946222 L 0.43063256,0.87040981 L 0.43091685,0.8711205 L 0.43127221,0.87206823 L 0.43165127,0.87277892 L 0.43205403,0.87348975 L 0.43250416,0.87420043 L 0.43297797,0.87514803 L 0.43349918,0.87585886 L 0.43404407,0.87656955 L 0.43461267,0.87704334 L 0.43520494,0.87775403 L 0.4358209,0.87846486 L 0.43646056,0.87917555 L 0.43710022,0.87988624 L 0.43778726,0.88036004 L 0.43916134,0.88154465 L 0.44058281,0.88272914 L 0.44202796,0.88391376 L 0.44349681,0.88509825 L 0.44494196,0.88604597 C 0.45188345,0.89125798 0.45790098,0.8957593 0.45697703,0.90262972 C 0.45614785,0.90902635 0.45003555,0.91139546 0.44475243,0.91068463 C 0.43800049,0.90973704 0.43245676,0.90642021 0.42698413,0.90286662 L 0.42456764,0.9014451 L 0.42290927,0.91471215 L 0.42402275,0.91518595 C 0.4307747,0.91826574 0.43641318,0.91992416 0.44198058,0.92063485 C 0.46178631,0.92324099 0.46882257,0.91021083 0.46984127,0.90286662 C 0.47140489,0.89031039 0.46188108,0.88343997 0.45344706,0.87704334 C 0.44707416,0.87230513 0.44150677,0.8680407 0.44226487,0.86282869 C 0.44252548,0.8602227 0.44567638,0.85501069 0.4533523,0.85619517 C 0.45825634,0.85690599 0.46252073,0.85903807 0.46697466,0.86164422 L 0.47067046,0.86353939 L 0.47223407,0.85145696 L 0.4711206,0.85098317 C 0.46612179,0.84814027 0.4607676,0.84671875 0.45493959,0.84577116 C 0.43864014,0.84363895 0.43096423,0.85501069 0.42994552,0.86282869 z "
       style="font-style:normal;font-variant:normal;font-weight:normal;font-stretch:normal;letter-spacing:normal;word-spacing:normal;text-anchor:start;fill:#ffffff;fill-opacity:1;fill-rule:nonzero;stroke:#ffffff;stroke-width:0;stroke-linecap:butt;stroke-linejoin:miter;stroke-miterlimit:10.43299961;stroke-dasharray:none;stroke-dashoffset:0;stroke-opacity:1"
       id="path174" />
    <path
       d="M 0.48815448,0.85169385 L 0.48872306,0.86188111 C 0.48872306,0.86188111 0.5100924,0.86093339 0.51314855,0.86069648 C 0.51333808,0.86401332 0.51639423,0.92276706 0.51639423,0.92276706 L 0.52906894,0.92205637 C 0.52906894,0.92205637 0.5260128,0.86330249 0.52582328,0.8599858 C 0.52887942,0.8597489 0.55024877,0.85880118 0.55024877,0.85880118 L 0.54970387,0.84837716 L 0.48815448,0.85169385 z "
       style="font-style:normal;font-variant:normal;font-weight:normal;font-stretch:normal;letter-spacing:normal;word-spacing:normal;text-anchor:start;fill:#ffffff;fill-opacity:1;fill-rule:nonzero;stroke:#ffffff;stroke-width:0;stroke-linecap:butt;stroke-linejoin:miter;stroke-miterlimit:10.43299961;stroke-dasharray:none;stroke-dashoffset:0;stroke-opacity:1"
       id="path176" />
    <path
       d="M 0.58912581,0.83913763 L 0.56571904,0.84506047 L 0.58365317,0.91542284 L 0.59606729,0.91234304 C 0.59606729,0.91234304 0.58948117,0.88699356 0.58874675,0.88391376 C 0.59068941,0.88343997 0.59402986,0.88249224 0.59523811,0.88225535 C 0.59651743,0.88343997 0.6217958,0.90570951 0.6217958,0.90570951 L 0.63705284,0.901682 C 0.63705284,0.901682 0.60791283,0.87728024 0.60549634,0.87514803 C 0.61077944,0.87064671 0.61419097,0.86425021 0.61419097,0.85761669 C 0.61419097,0.85595827 0.61402512,0.85429986 0.61364606,0.85264158 C 0.61224829,0.84742944 0.60947645,0.84340204 0.60540157,0.84103294 C 0.59883915,0.83700542 0.59125801,0.83866383 0.58912581,0.83913763 z M 0.58772804,0.85027248 L 0.58841508,0.85003557 L 0.58907844,0.85003557 L 0.58974177,0.84979868 L 0.59038143,0.84979868 L 0.59068941,0.84979868 L 0.5910211,0.84979868 L 0.59132908,0.84979868 L 0.59163705,0.84979868 L 0.59194505,0.84979868 L 0.59225303,0.84979868 L 0.59256101,0.84979868 L 0.59286901,0.84979868 L 0.5931533,0.84979868 L 0.59343759,0.84979868 L 0.59372188,0.84979868 L 0.59400617,0.85003557 L 0.59429047,0.85003557 L 0.59457475,0.85003557 L 0.59483536,0.85003557 L 0.59511965,0.85027248 L 0.59538025,0.85027248 L 0.59564085,0.85027248 L 0.59587776,0.85050937 L 0.59613836,0.85050937 L 0.59637527,0.85074626 L 0.59661218,0.85074626 L 0.59684909,0.85098317 L 0.59708601,0.85098317 C 0.5989339,0.85216778 0.60023692,0.85382606 0.60078181,0.85619517 C 0.60116088,0.85761669 0.60142148,0.85903807 0.60142148,0.86045959 C 0.60142148,0.8625918 0.60087658,0.86448712 0.59995262,0.86590849 C 0.59800996,0.86946222 0.59402986,0.87183133 0.58829662,0.87325271 C 0.58829662,0.87325271 0.58718315,0.87348975 0.58616442,0.87348975 C 0.58550107,0.8711205 0.58135513,0.85477379 0.58059703,0.85216778 C 0.58282398,0.85145696 0.58772804,0.85027248 0.58772804,0.85027248 z "
       style="font-style:normal;font-variant:normal;font-weight:normal;font-stretch:normal;letter-spacing:normal;word-spacing:normal;text-anchor:start;fill:#ffffff;fill-opacity:1;fill-rule:nonzero;stroke:#ffffff;stroke-width:0;stroke-linecap:butt;stroke-linejoin:miter;stroke-miterlimit:10.43299961;stroke-dashoffset:0;stroke-opacity:1"
       id="path178" />
    <path
       d="M 0.64870885,0.81781566 L 0.65463161,0.8955224 L 0.66529259,0.89031039 C 0.66529259,0.89031039 0.66380005,0.87159443 0.6637053,0.86946222 C 0.66555319,0.8685145 0.68694624,0.85809048 0.6888889,0.8571429 C 0.69045251,0.85856428 0.70443023,0.87135754 0.70443023,0.87135754 L 0.71674959,0.8654347 L 0.6591803,0.81260366 L 0.64870885,0.81781566 z M 0.66083866,0.83155652 L 0.6612888,0.83203031 L 0.66178631,0.83226721 L 0.66230753,0.832741 L 0.66287611,0.83345183 L 0.66349207,0.83392562 L 0.66410804,0.83439941 L 0.66477139,0.8351101 L 0.66545843,0.8355839 L 0.66616916,0.83629473 L 0.66687989,0.83700542 L 0.66837243,0.83842694 L 0.66988867,0.83961142 L 0.67140489,0.84103294 L 0.67289743,0.84245432 L 0.67363184,0.84316515 L 0.67436628,0.84387584 L 0.67505331,0.84434964 L 0.67574035,0.84506047 L 0.67638002,0.84553426 L 0.67701967,0.84624495 L 0.67761195,0.84671875 L 0.67818054,0.84719253 L 0.67870174,0.84766647 L 0.67917556,0.84814027 L 0.6796257,0.84861405 L 0.68002843,0.84908785 L 0.68036012,0.84932474 L 0.68064441,0.84956165 C 0.67730396,0.85122006 0.66621654,0.85666896 0.66287611,0.85832738 C 0.66259182,0.85453689 0.66131249,0.83771611 0.66083866,0.83155652 z "
       style="font-style:normal;font-variant:normal;font-weight:normal;font-stretch:normal;letter-spacing:normal;word-spacing:normal;text-anchor:start;fill:#ffffff;fill-opacity:1;fill-rule:nonzero;stroke:#ffffff;stroke-width:0;stroke-linecap:butt;stroke-linejoin:miter;stroke-miterlimit:10.43299961;stroke-dashoffset:0;stroke-opacity:1"
       id="path182" />
    <path
       d="M 0.68860461,0.79744129 L 0.69490643,0.80573323 C 0.69490643,0.80573323 0.71191662,0.79270308 0.7143331,0.7908079 C 0.71637055,0.7936508 0.7520019,0.84032225 0.7520019,0.84032225 L 0.7620943,0.8325041 C 0.7620943,0.8325041 0.7265577,0.7858328 0.72452027,0.78322665 C 0.72691306,0.78133148 0.74394694,0.76830132 0.74394694,0.76830132 L 0.73764512,0.76024641 L 0.68860461,0.79744129 z "
       style="font-style:normal;font-variant:normal;font-weight:normal;font-stretch:normal;letter-spacing:normal;word-spacing:normal;text-anchor:start;fill:#ffffff;fill-opacity:1;fill-rule:nonzero;stroke:#ffffff;stroke-width:0;stroke-linecap:butt;stroke-linejoin:miter;stroke-miterlimit:10.43299961;stroke-dasharray:none;stroke-dashoffset:0;stroke-opacity:1"
       id="path186" />
    <polygon
       transform="matrix(2.3691069e-2,0,0,-2.3691069e-2,-0.9391376,14.641554)"
       points="71.281,586.49 73.488,584.37 73.859,584.76 71.652,586.88 71.281,586.49 "
       style="font-style:normal;font-variant:normal;font-weight:normal;font-stretch:normal;letter-spacing:normal;word-spacing:normal;text-anchor:start;fill:#ffffff;fill-opacity:1;fill-rule:nonzero;stroke:#ffffff;stroke-width:0;stroke-linecap:butt;stroke-linejoin:miter;stroke-miterlimit:10.43299961;stroke-dasharray:none;stroke-dashoffset:0;stroke-opacity:1"
       id="polygon188" />
    <line
       x1="0.83444679"
       y1="0.69770163"
       x2="0.83444679"
       y2="0.69770163"
       style="font-style:normal;font-variant:normal;font-weight:normal;font-stretch:normal;letter-spacing:normal;word-spacing:normal;text-anchor:start;fill:#0030ad;fill-opacity:1;fill-rule:nonzero;stroke:#0030ad;stroke-width:0;stroke-linecap:butt;stroke-linejoin:miter;stroke-miterlimit:10.43299961;stroke-dasharray:none;stroke-dashoffset:0;stroke-opacity:1"
       id="line192" />
    <path
       d="M 0.80992657,0.68182898 L 0.80916846,0.68182898 L 0.80843403,0.68206589 L 0.8076996,0.68230278 L 0.80696518,0.68253968 L 0.80623076,0.68277658 L 0.80549634,0.68301347 L 0.80478561,0.68325037 L 0.80407488,0.68348726 L 0.80338783,0.6839612 L 0.8026771,0.68419809 L 0.80199006,0.68443499 L 0.8013267,0.68490878 L 0.80063967,0.68538258 L 0.79997632,0.68561947 L 0.79931297,0.68609327 L 0.79867331,0.68656721 L 0.79803366,0.68704099 L 0.79739399,0.68751479 L 0.79677802,0.68798858 L 0.79616206,0.68846238 L 0.79556978,0.68893631 L 0.79497751,0.689647 L 0.79438523,0.69012079 L 0.79381665,0.69059459 L 0.79324805,0.69130542 L 0.79267947,0.6917792 L 0.79213458,0.6924899 L 0.79161337,0.69320059 L 0.79106847,0.69367452 L 0.79057097,0.69438521 L 0.79007345,0.6950959 L 0.78957594,0.69580673 C 0.77799101,0.71286428 0.78282398,0.73229092 0.80187161,0.74532094 C 0.81167971,0.75195447 0.82234069,0.75479737 0.83176974,0.75290219 C 0.83991946,0.75148067 0.84695571,0.74650556 0.85221514,0.73868755 C 0.85749824,0.7311063 0.8594409,0.7225776 0.85794843,0.71452255 C 0.85619517,0.70528315 0.84982233,0.69628052 0.83991946,0.689647 C 0.8300166,0.68277658 0.81937931,0.67993368 0.80992657,0.68182898 z M 0.80938167,0.73418624 L 0.80893155,0.73394934 L 0.80845773,0.73371244 L 0.80796022,0.73323851 L 0.8074627,0.73300161 L 0.8069415,0.73252782 L 0.80642029,0.73205402 L 0.80589909,0.73158024 L 0.80535419,0.73134333 L 0.8048093,0.73086941 L 0.80424072,0.73039561 L 0.80369582,0.72968492 L 0.80315092,0.72921112 L 0.80258235,0.7287372 L 0.80203745,0.7282634 L 0.80149254,0.72755271 L 0.80097135,0.72707892 L 0.80042646,0.72636809 L 0.79992894,0.72589429 L 0.79940773,0.7251836 L 0.7989339,0.72447291 L 0.79846009,0.72376208 L 0.79800996,0.72305139 L 0.79755984,0.7225776 L 0.79715708,0.72186691 L 0.79675433,0.72091918 L 0.79639897,0.72020849 L 0.79606729,0.7194978 L 0.79575931,0.71878697 L 0.79547502,0.71807629 L 0.79523811,0.71712869 L 0.79502489,0.71641786 L 0.79483536,0.71547028 C 0.7939114,0.71096896 0.79502489,0.70623075 0.79808104,0.70172943 C 0.80113719,0.69722812 0.80502252,0.69462211 0.80964228,0.69367452 C 0.81845536,0.692253 0.82769487,0.69722812 0.83240939,0.70054494 C 0.83925612,0.70528315 0.85406309,0.71760249 0.84371003,0.73276472 C 0.83323858,0.74816398 0.81622838,0.73892445 0.80938167,0.73418624 z "
       style="font-style:normal;font-variant:normal;font-weight:normal;font-stretch:normal;letter-spacing:normal;word-spacing:normal;text-anchor:start;fill:#ffffff;fill-opacity:1;fill-rule:nonzero;stroke:#ffffff;stroke-width:0;stroke-linecap:butt;stroke-linejoin:miter;stroke-miterlimit:10.43299961;stroke-dashoffset:0;stroke-opacity:1"
       id="path190" />
    <path
       d="M 0.83740821,0.60270074 L 0.83380718,0.61170337 C 0.83380718,0.61170337 0.87239997,0.6268656 0.88090506,0.63018243 C 0.87166553,0.63207774 0.82196164,0.64202796 0.82196164,0.64202796 L 0.81760248,0.65316281 L 0.88516934,0.67969677 L 0.88933906,0.66879883 C 0.88933906,0.66879883 0.85084104,0.6536366 0.84231225,0.65031977 C 0.8514807,0.6484246 0.9012793,0.63847424 0.9012793,0.63847424 L 0.90551998,0.62757643 L 0.83807156,0.60104246 L 0.83740821,0.60270074 z "
       style="font-style:normal;font-variant:normal;font-weight:normal;font-stretch:normal;letter-spacing:normal;word-spacing:normal;text-anchor:start;fill:#ffffff;fill-opacity:1;fill-rule:nonzero;stroke:#ffffff;stroke-width:0;stroke-linecap:butt;stroke-linejoin:miter;stroke-miterlimit:10.43299961;stroke-dasharray:none;stroke-dashoffset:0;stroke-opacity:1"
       id="path196" />
    <polygon
       transform="matrix(2.3691069e-2,0,0,-2.3691069e-2,-0.9391376,14.641554)"
       points="75.938,597.42 76.773,597.42 77.035,598.22 77.289,597.42 78.129,597.42 77.453,596.93 77.707,596.13 77.035,596.62 76.359,596.13 76.617,596.93 75.938,597.42 "
       style="font-style:normal;font-variant:normal;font-weight:normal;font-stretch:normal;letter-spacing:normal;word-spacing:normal;text-anchor:start;fill:#ffffff;fill-opacity:1;fill-rule:nonzero;stroke:#ffffff;stroke-width:0;stroke-linecap:butt;stroke-linejoin:miter;stroke-miterlimit:10.43299961;stroke-dasharray:none;stroke-dashoffset:0;stroke-opacity:1"
       id="polygon198" />
    <polygon
       transform="matrix(2.3691069e-2,0,0,-2.3691069e-2,-0.9391376,14.641554)"
       points="43.328,597.41 44.164,597.41 44.426,598.21 44.676,597.41 45.52,597.41 44.84,596.92 45.105,596.12 44.426,596.61 43.75,596.12 44.004,596.92 43.328,597.41 "
       style="font-style:normal;font-variant:normal;font-weight:normal;font-stretch:normal;letter-spacing:normal;word-spacing:normal;text-anchor:start;fill:#ffffff;fill-opacity:1;fill-rule:nonzero;stroke:#ffffff;stroke-width:0;stroke-linecap:butt;stroke-linejoin:miter;stroke-miterlimit:10.43299961;stroke-dasharray:none;stroke-dashoffset:0;stroke-opacity:1"
       id="polygon200" />
    <path
       d="M 0.76967544,0.53541815 L 0.7676854,0.53920864 L 0.7655295,0.54299927 L 0.76323147,0.546553 L 0.76079129,0.55010659 L 0.75818527,0.55366032 L 0.75541343,0.55721391 L 0.75252311,0.56076764 L 0.74949066,0.56408433 L 0.74631605,0.56740103 L 0.7429993,0.57071786 L 0.73954041,0.57403456 L 0.73596306,0.57735139 L 0.73224356,0.58043118 L 0.72840561,0.58351098 L 0.7244255,0.58659078 L 0.72035064,0.58943382 C 0.72866621,0.55958301 0.73191187,0.52925842 0.7307984,0.49964466 L 0.77206824,0.49964466 C 0.77206824,0.51196398 0.77114429,0.52380952 0.76967544,0.53541815 z "
       style="font-style:normal;font-variant:normal;font-weight:normal;font-stretch:normal;letter-spacing:normal;word-spacing:normal;text-anchor:start;fill:#0a6826;fill-opacity:1;fill-rule:nonzero;stroke:#d4b76a;stroke-width:0;stroke-linecap:butt;stroke-linejoin:miter;stroke-miterlimit:10.43299961;stroke-dasharray:none;stroke-dashoffset:0;stroke-opacity:1"
       id="path202" />
    <path
       d="M 0.72080077,0.65861171 L 0.71774463,0.6624022 L 0.71447526,0.66619282 L 0.71106373,0.66998345 L 0.7074627,0.67353704 L 0.70369582,0.67709077 L 0.69976311,0.68064437 L 0.69568825,0.6839612 L 0.69144754,0.68727789 L 0.68704099,0.69059459 L 0.682516,0.69367452 L 0.67782517,0.69675432 L 0.67301589,0.69959722 L 0.66806445,0.70267702 L 0.66297086,0.70528315 L 0.65775883,0.70812606 L 0.65242834,0.71073207 C 0.68230278,0.67827526 0.70322199,0.64179107 0.71580195,0.60388535 C 0.73598675,0.59109209 0.75273633,0.57664056 0.76515046,0.5602937 C 0.75700072,0.59630424 0.74171998,0.62947174 0.72080077,0.65861171 z "
       style="font-style:normal;font-variant:normal;font-weight:normal;font-stretch:normal;letter-spacing:normal;word-spacing:normal;text-anchor:start;fill:#0a6826;fill-opacity:1;fill-rule:nonzero;stroke:#d4b76a;stroke-width:0;stroke-linecap:butt;stroke-linejoin:miter;stroke-miterlimit:10.43299961;stroke-dasharray:none;stroke-dashoffset:0;stroke-opacity:1"
       id="path204" />
    <path
       d="M 0.60928691,0.74958536 L 0.61253259,0.74697936 L 0.61573088,0.74461025 L 0.61888179,0.74200424 L 0.62200901,0.73939824 L 0.62506516,0.73702914 L 0.62809761,0.73442313 L 0.631059,0.73181713 L 0.63399669,0.72897423 C 0.64641082,0.72447291 0.65816158,0.71902387 0.66917793,0.71310117 C 0.65093581,0.7277896 0.63086947,0.73987204 0.60928691,0.74958536 z "
       style="font-style:normal;font-variant:normal;font-weight:normal;font-stretch:normal;letter-spacing:normal;word-spacing:normal;text-anchor:start;fill:#0a6826;fill-opacity:1;fill-rule:nonzero;stroke:#d4b76a;stroke-width:0;stroke-linecap:butt;stroke-linejoin:miter;stroke-miterlimit:10.43299961;stroke-dasharray:none;stroke-dashoffset:0;stroke-opacity:1"
       id="path206" />
    <path
       d="M 0.57097844,0.76308931 L 0.56683252,0.7642738 L 0.56266288,0.76522152 L 0.55846956,0.76616911 L 0.55427625,0.76711684 L 0.55003555,0.76806442 L 0.54577115,0.76877511 L 0.54150677,0.76948594 L 0.53719499,0.77019663 C 0.54302299,0.76308931 0.54859039,0.75598199 0.5538735,0.74887468 C 0.57311064,0.74626867 0.59161337,0.74247804 0.60919214,0.73726603 C 0.59744137,0.74650556 0.58476664,0.75503441 0.57097844,0.76308931 z "
       style="font-style:normal;font-variant:normal;font-weight:normal;font-stretch:normal;letter-spacing:normal;word-spacing:normal;text-anchor:start;fill:#0a6826;fill-opacity:1;fill-rule:nonzero;stroke:#d4b76a;stroke-width:0;stroke-linecap:butt;stroke-linejoin:miter;stroke-miterlimit:10.43299961;stroke-dasharray:none;stroke-dashoffset:0;stroke-opacity:1"
       id="path208" />
    <path
       d="M 0.50000001,0.77280263 L 0.50000001,0.75242826 C 0.50009477,0.75242826 0.50009477,0.75242826 0.50009477,0.75242826 C 0.51416726,0.75242826 0.52795547,0.75148067 0.54155414,0.75029619 C 0.53601044,0.75740351 0.5302535,0.76451083 0.52425966,0.77161815 C 0.51629946,0.77232884 0.50824449,0.77280263 0.50000001,0.77280263 z "
       style="font-style:normal;font-variant:normal;font-weight:normal;font-stretch:normal;letter-spacing:normal;word-spacing:normal;text-anchor:start;fill:#0a6826;fill-opacity:1;fill-rule:nonzero;stroke:#d4b76a;stroke-width:0;stroke-linecap:butt;stroke-linejoin:miter;stroke-miterlimit:10.43299961;stroke-dasharray:none;stroke-dashoffset:0;stroke-opacity:1"
       id="path210" />
    <path
       d="M 0.60272448,0.6484246 L 0.60021323,0.65411039 L 0.59758351,0.6597962 L 0.59483536,0.66548213 L 0.59199243,0.67116794 L 0.58905473,0.67685388 L 0.58599859,0.68253968 L 0.58282398,0.68822548 L 0.57955461,0.69391142 L 0.57616679,0.69983412 L 0.5726842,0.70552006 L 0.56908316,0.71120585 L 0.56538736,0.71689166 L 0.56157309,0.7225776 L 0.55766407,0.7282634 L 0.55363659,0.73394934 L 0.54951435,0.73963514 C 0.53349918,0.74153046 0.51693912,0.74247804 0.50009477,0.74247804 C 0.50009477,0.74247804 0.50009477,0.74247804 0.50000001,0.74247804 L 0.50000001,0.6593224 C 0.5358209,0.6593224 0.57052831,0.65553191 0.60272448,0.6484246 z "
       style="font-style:normal;font-variant:normal;font-weight:normal;font-stretch:normal;letter-spacing:normal;word-spacing:normal;text-anchor:start;fill:#0a6826;fill-opacity:1;fill-rule:nonzero;stroke:#d4b76a;stroke-width:0;stroke-linecap:butt;stroke-linejoin:miter;stroke-miterlimit:10.43299961;stroke-dasharray:none;stroke-dashoffset:0;stroke-opacity:1"
       id="path212" />
    <path
       d="M 0.50000001,0.50959488 L 0.50000001,0.50959488 L 0.50000001,0.50959488 L 0.50000001,0.50959488 L 0.50000001,0.50959488 L 0.50000001,0.50959488 L 0.50000001,0.50959488 L 0.50000001,0.50959488 L 0.50000001,0.50959488 L 0.50000001,0.50959488 L 0.50000001,0.50959488 L 0.50000001,0.50959488 L 0.50000001,0.50959488 L 0.50002371,0.50959488 L 0.50002371,0.50959488 L 0.50002371,0.50959488 L 0.50002371,0.50959488 L 0.50002371,0.50959488 L 0.50002371,0.50959488 L 0.50002371,0.50959488 L 0.50002371,0.50959488 L 0.5000474,0.50959488 L 0.5000474,0.50959488 L 0.5000474,0.50959488 L 0.5000474,0.50959488 L 0.50007108,0.50959488 L 0.50007108,0.50959488 L 0.50007108,0.50959488 L 0.50007108,0.50959488 L 0.50007108,0.50959488 L 0.50007108,0.50959488 L 0.50007108,0.50959488 L 0.50009477,0.50959488 L 0.50009477,0.50959488 L 0.50009477,0.50959488 L 0.50009477,0.50959488 L 0.50009477,0.50959488 L 0.50009477,0.50959488 L 0.50009477,0.50959488 L 0.50009477,0.50959488 L 0.50009477,0.50959488 L 0.50009477,0.50959488 L 0.50009477,0.50959488 L 0.50009477,0.50959488 L 0.50009477,0.50959488 L 0.50009477,0.50959488 L 0.50009477,0.50959488 C 0.53525231,0.50959488 0.56875149,0.50604115 0.59938404,0.49964466 L 0.62966123,0.49964466 C 0.63271738,0.54536837 0.62520731,0.59156603 0.6071784,0.63752665 C 0.57384507,0.64534466 0.53757404,0.64960908 0.50000001,0.64960908 L 0.50000001,0.50959488 z "
       style="font-style:normal;font-variant:normal;font-weight:normal;font-stretch:normal;letter-spacing:normal;word-spacing:normal;text-anchor:start;fill:#0a6826;fill-opacity:1;fill-rule:nonzero;stroke:#d4b76a;stroke-width:0;stroke-linecap:butt;stroke-linejoin:miter;stroke-miterlimit:10.43299961;stroke-dasharray:none;stroke-dashoffset:0;stroke-opacity:1"
       id="path214" />
    <path
       d="M 0.52146411,0.22743426 L 0.52032694,0.22814495 L 0.51916609,0.22909267 L 0.51795783,0.22980337 L 0.51674959,0.23075095 L 0.51549397,0.23169868 L 0.51421466,0.23240937 L 0.51293533,0.23335696 L 0.51160863,0.23430468 L 0.51028193,0.23548917 L 0.50890785,0.23643689 L 0.50753376,0.23738448 L 0.50613599,0.2385691 L 0.50471452,0.23975358 L 0.50329306,0.24070118 L 0.50184791,0.2418858 L 0.50037906,0.24307029 L 0.50037906,0.22648654 C 0.50748639,0.22648654 0.51452264,0.22696046 0.52146411,0.22743426 z "
       style="font-style:normal;font-variant:normal;font-weight:normal;font-stretch:normal;letter-spacing:normal;word-spacing:normal;text-anchor:start;fill:#0a6826;fill-opacity:1;fill-rule:nonzero;stroke:#d4b76a;stroke-width:0;stroke-linecap:butt;stroke-linejoin:miter;stroke-miterlimit:10.43299961;stroke-dasharray:none;stroke-dashoffset:0;stroke-opacity:1"
       id="path216" />
    <path
       d="M 0.60523574,0.24804554 L 0.59905237,0.2470978 L 0.59291638,0.24638711 L 0.58687515,0.24567628 L 0.58088132,0.2452025 L 0.57493486,0.2447287 L 0.56908316,0.2442549 L 0.56325517,0.24401801 L 0.55752192,0.24378111 L 0.55183606,0.24354422 L 0.54619759,0.24354422 L 0.54063019,0.24354422 L 0.53513386,0.24354422 L 0.52968492,0.24378111 L 0.52430704,0.24401801 L 0.51897656,0.2444918 L 0.51369344,0.24496559 C 0.5238806,0.23714759 0.53229093,0.23193558 0.53785833,0.22932958 C 0.56135989,0.23264627 0.58393747,0.2390429 0.60523574,0.24804554 z "
       style="font-style:normal;font-variant:normal;font-weight:normal;font-stretch:normal;letter-spacing:normal;word-spacing:normal;text-anchor:start;fill:#0a6826;fill-opacity:1;fill-rule:nonzero;stroke:#d4b76a;stroke-width:0;stroke-linecap:butt;stroke-linejoin:miter;stroke-miterlimit:10.43299961;stroke-dasharray:none;stroke-dashoffset:0;stroke-opacity:1"
       id="path218" />
    <path
       d="M 0.64084342,0.26652445 L 0.63593935,0.26865667 L 0.63101162,0.27078888 L 0.62613126,0.27268418 L 0.62125089,0.27434261 L 0.61641792,0.27623778 L 0.61160863,0.27789619 L 0.60682303,0.27931771 L 0.60208482,0.28097599 C 0.58218432,0.26936749 0.56005687,0.25989106 0.53534709,0.25349444 C 0.56597964,0.25254672 0.59957357,0.25562665 0.63622366,0.26344466 C 0.63778726,0.26462928 0.6392798,0.26557687 0.64084342,0.26652445 z "
       style="font-style:normal;font-variant:normal;font-weight:normal;font-stretch:normal;letter-spacing:normal;word-spacing:normal;text-anchor:start;fill:#0a6826;fill-opacity:1;fill-rule:nonzero;stroke:#d4b76a;stroke-width:0;stroke-linecap:butt;stroke-linejoin:miter;stroke-miterlimit:10.43299961;stroke-dasharray:none;stroke-dashoffset:0;stroke-opacity:1"
       id="path220" />
    <path
       d="M 0.66472401,0.2831082 L 0.66531629,0.28334511 L 0.66593225,0.28381903 L 0.66652452,0.28429283 L 0.66711681,0.28476662 L 0.66770907,0.28524041 L 0.66830136,0.28571421 L 0.66858565,0.28595124 L 0.66889363,0.28618814 L 0.66917793,0.28642504 L 0.66943853,0.28666193 C 0.63835585,0.31177438 0.59995262,0.32148784 0.59699124,0.32196164 C 0.59699124,0.32196164 0.59680172,0.32101392 0.59744137,0.31982943 C 0.62807392,0.30656237 0.64899314,0.29471684 0.66472401,0.2831082 z "
       style="font-style:normal;font-variant:normal;font-weight:normal;font-stretch:normal;letter-spacing:normal;word-spacing:normal;text-anchor:start;fill:#0a6826;fill-opacity:1;fill-rule:nonzero;stroke:#d4b76a;stroke-width:0;stroke-linecap:butt;stroke-linejoin:miter;stroke-miterlimit:10.43299961;stroke-dasharray:none;stroke-dashoffset:0;stroke-opacity:1"
       id="path222" />
    <path
       d="M 0.71497276,0.45178872 L 0.71587303,0.4562899 L 0.7167259,0.46055433 L 0.71748403,0.46481874 L 0.71817106,0.46908316 L 0.71878702,0.47358448 L 0.7193556,0.4778489 L 0.71982943,0.48235008 L 0.72025587,0.4866145 L 0.66055437,0.48140249 C 0.68137883,0.47311068 0.69981048,0.46316033 0.71497276,0.45178872 z "
       style="font-style:normal;font-variant:normal;font-weight:normal;font-stretch:normal;letter-spacing:normal;word-spacing:normal;text-anchor:start;fill:#0a6826;fill-opacity:1;fill-rule:nonzero;stroke:#d4b76a;stroke-width:0;stroke-linecap:butt;stroke-linejoin:miter;stroke-miterlimit:10.43299961;stroke-dasharray:none;stroke-dashoffset:0;stroke-opacity:1"
       id="path224" />
    <path
       d="M 0.60753376,0.38095242 L 0.60786545,0.38047848 L 0.60819712,0.38000469 L 0.6085051,0.37929399 L 0.60878939,0.37882021 L 0.60907368,0.37834641 L 0.60933429,0.37787247 L 0.60959489,0.37739869 L 0.60985549,0.37692489 L 0.6100924,0.3764511 L 0.61030563,0.3759773 L 0.61073207,0.37502958 L 0.61113482,0.37408199 L 0.61149017,0.37313426 L 0.61182186,0.37242357 L 0.61210615,0.37147599 L 0.61239044,0.37076516 L 0.61265104,0.36981757 L 0.61288795,0.36910688 L 0.61312486,0.36839605 L 0.61333808,0.36768536 L 0.61355131,0.36697467 C 0.59151861,0.37716178 0.56969913,0.37716178 0.56969913,0.37716178 C 0.56969913,0.37716178 0.56977021,0.376688 0.57014927,0.3762142 C 0.57088369,0.3759773 0.57339493,0.37550337 0.57339493,0.37550337 C 0.6117034,0.36768536 0.63890074,0.3489694 0.64456291,0.34257277 C 0.64806919,0.33854539 0.64972756,0.33451787 0.65065151,0.33143807 C 0.67453211,0.35607672 0.69220565,0.38474291 0.70360105,0.41411991 C 0.70710733,0.42312241 0.71006871,0.43236194 0.71257997,0.44183837 C 0.69322436,0.45700073 0.66778016,0.46979385 0.63807155,0.47950718 L 0.63686331,0.47950718 C 0.63539446,0.46813544 0.6334518,0.45700073 0.63077471,0.44586589 C 0.62511254,0.42264861 0.61708127,0.40108975 0.60753376,0.38095242 z "
       style="font-style:normal;font-variant:normal;font-weight:normal;font-stretch:normal;letter-spacing:normal;word-spacing:normal;text-anchor:start;fill:#0a6826;fill-opacity:1;fill-rule:nonzero;stroke:#d4b76a;stroke-width:0;stroke-linecap:butt;stroke-linejoin:miter;stroke-miterlimit:10.43299961;stroke-dasharray:none;stroke-dashoffset:0;stroke-opacity:1"
       id="path226" />
    <path
       d="M 0.54100925,0.29637526 L 0.53565506,0.29755974 L 0.53039565,0.29874436 L 0.52518362,0.29992885 L 0.52006634,0.30111347 L 0.51504384,0.30253485 L 0.5100924,0.30371948 L 0.50523574,0.305141 L 0.50047384,0.30656237 L 0.50037906,0.25657424 C 0.50073444,0.25657424 0.50111348,0.25657424 0.50149254,0.25657424 C 0.51369344,0.26723528 0.52729212,0.2805022 0.54100925,0.29637526 z "
       style="font-style:normal;font-variant:normal;font-weight:normal;font-stretch:normal;letter-spacing:normal;word-spacing:normal;text-anchor:start;fill:#0a6826;fill-opacity:1;fill-rule:nonzero;stroke:#d4b76a;stroke-width:0;stroke-linecap:butt;stroke-linejoin:miter;stroke-miterlimit:10.43299961;stroke-dasharray:none;stroke-dashoffset:0;stroke-opacity:1"
       id="path228" />
    <path
       d="M 0.55091212,0.29424305 L 0.54880362,0.29163705 L 0.54669511,0.28926793 L 0.5445866,0.28689883 L 0.54250179,0.28452972 L 0.54039328,0.28216062 L 0.53830847,0.2800284 L 0.53622366,0.2776593 L 0.53413884,0.27552709 L 0.53205403,0.27339488 L 0.5299929,0.27126267 L 0.52795547,0.26913046 L 0.52589435,0.26723528 L 0.5238806,0.26533998 L 0.52184318,0.26320776 L 0.51985312,0.26131245 L 0.51786307,0.25941714 C 0.54413647,0.26486618 0.5676617,0.27363178 0.58865199,0.28476662 C 0.5756219,0.28832035 0.56301826,0.29140014 0.55091212,0.29424305 z "
       style="font-style:normal;font-variant:normal;font-weight:normal;font-stretch:normal;letter-spacing:normal;word-spacing:normal;text-anchor:start;fill:#0a6826;fill-opacity:1;fill-rule:nonzero;stroke:#d4b76a;stroke-width:0;stroke-linecap:butt;stroke-linejoin:miter;stroke-miterlimit:10.43299961;stroke-dasharray:none;stroke-dashoffset:0;stroke-opacity:1"
       id="path230" />
    <path
       d="M 0.64695571,0.32741054 L 0.64416016,0.32930586 L 0.64131723,0.33096427 L 0.63845062,0.33262255 L 0.63556031,0.33404407 L 0.6326463,0.33570248 L 0.62975598,0.33688697 L 0.62686568,0.33830849 L 0.62397537,0.33949297 L 0.62110876,0.3406776 L 0.61828952,0.34186208 L 0.61549397,0.34280981 L 0.61274579,0.34375739 L 0.61004502,0.34470498 L 0.60741531,0.34541581 L 0.60485667,0.34636339 L 0.60236912,0.34707409 L 0.59997632,0.34754802 L 0.59767828,0.34825871 L 0.59547502,0.34873251 L 0.5933902,0.3492063 L 0.59142384,0.34968009 L 0.58957594,0.35015402 L 0.58789388,0.35039092 L 0.58633026,0.35086471 L 0.58493249,0.35110161 L 0.58367687,0.35133851 L 0.58261077,0.3515754 L 0.5817105,0.3515754 L 0.58099977,0.35181231 L 0.58047857,0.35181231 L 0.58017059,0.35181231 L 0.58007583,0.35181231 L 0.58005213,0.35181231 C 0.58005213,0.35181231 0.58033643,0.35039092 0.58078656,0.35039092 C 0.61122957,0.34162518 0.6313196,0.33285944 0.6451078,0.32409385 C 0.64491828,0.32456764 0.64465767,0.32456764 0.64437338,0.32480454 C 0.64529734,0.32575213 0.64612652,0.32669985 0.64695571,0.32741054 z "
       style="font-style:normal;font-variant:normal;font-weight:normal;font-stretch:normal;letter-spacing:normal;word-spacing:normal;text-anchor:start;fill:#0a6826;fill-opacity:1;fill-rule:nonzero;stroke:#d4b76a;stroke-width:0;stroke-linecap:butt;stroke-linejoin:miter;stroke-miterlimit:10.43299961;stroke-dasharray:none;stroke-dashoffset:0;stroke-opacity:1"
       id="path232" />
    <path
       d="M 0.52776595,0.44728741 L 0.52778963,0.44728741 L 0.52783701,0.44728741 L 0.52793178,0.44728741 L 0.52807392,0.44728741 L 0.52821607,0.44728741 L 0.5284293,0.44728741 L 0.5286425,0.44728741 L 0.5289268,0.44728741 L 0.52954277,0.44705051 L 0.53027719,0.44705051 L 0.53113008,0.44705051 L 0.53207772,0.44681347 L 0.53312011,0.44681347 L 0.53425729,0.44657658 L 0.53548923,0.44633969 L 0.53679224,0.44610278 L 0.53816633,0.44586589 L 0.53961148,0.44562899 L 0.54110401,0.44539209 L 0.54264394,0.4449183 L 0.54423123,0.44444437 L 0.54586592,0.44420747 L 0.54752429,0.44373368 L 0.54920635,0.44325989 L 0.55088842,0.4425492 L 0.55259419,0.44207526 L 0.55429994,0.44136457 L 0.55598201,0.44065388 L 0.55768776,0.43994319 L 0.55934613,0.43923236 L 0.56098082,0.43828477 L 0.56259182,0.43733705 L 0.56417911,0.43638946 L 0.56569535,0.43544187 L 0.56716418,0.43425725 L 0.56858565,0.43307277 C 0.5872779,0.41885812 0.58588013,0.40322196 0.58588013,0.40322196 C 0.56477139,0.41317218 0.54155414,0.41530439 0.54155414,0.41530439 C 0.54155414,0.41530439 0.5416489,0.41411991 0.54257285,0.41317218 C 0.56486615,0.4091448 0.58543,0.39943134 0.59421938,0.39374554 C 0.59699124,0.39185022 0.59921819,0.38995492 0.60116088,0.38805973 C 0.6010661,0.38829663 0.6010661,0.38829663 0.60097135,0.38853353 C 0.60947645,0.40701259 0.61679698,0.42667613 0.62198532,0.4479981 C 0.62437813,0.45818521 0.62613126,0.46837247 0.62752903,0.47855959 L 0.54219381,0.47097847 C 0.55756931,0.45771142 0.55792467,0.44373368 0.55792467,0.44373368 C 0.53416253,0.45415783 0.52776595,0.44728741 0.52776595,0.44728741 z "
       style="font-style:normal;font-variant:normal;font-weight:normal;font-stretch:normal;letter-spacing:normal;word-spacing:normal;text-anchor:start;fill:#0a6826;fill-opacity:1;fill-rule:nonzero;stroke:#d4b76a;stroke-width:0;stroke-linecap:butt;stroke-linejoin:miter;stroke-miterlimit:10.43299961;stroke-dasharray:none;stroke-dashoffset:0;stroke-opacity:1"
       id="path234" />
    <path
       d="M 0.7026771,0.61170337 L 0.69976311,0.61904759 L 0.69663589,0.6263918 L 0.69329544,0.63373602 L 0.68971808,0.64084335 L 0.68590382,0.64795066 L 0.68187634,0.65505799 L 0.67761195,0.66192841 L 0.67311064,0.66879883 L 0.66839612,0.67566925 L 0.663421,0.68253968 L 0.65823265,0.6891732 L 0.65278371,0.6955697 L 0.64712155,0.70220322 L 0.64119878,0.70836296 L 0.63503911,0.71452255 L 0.62864251,0.72068229 C 0.60817343,0.7282634 0.58578537,0.73418624 0.56218906,0.73773983 C 0.5838427,0.70717834 0.60087658,0.67661684 0.61345653,0.64605549 C 0.64676617,0.63776355 0.67694861,0.62615491 0.7026771,0.61170337 z "
       style="font-style:normal;font-variant:normal;font-weight:normal;font-stretch:normal;letter-spacing:normal;word-spacing:normal;text-anchor:start;fill:#0a6826;fill-opacity:1;fill-rule:nonzero;stroke:#d4b76a;stroke-width:0;stroke-linecap:butt;stroke-linejoin:miter;stroke-miterlimit:10.43299961;stroke-dasharray:none;stroke-dashoffset:0;stroke-opacity:1"
       id="path236" />
    <path
       d="M 0.61800523,0.63468374 L 0.62106137,0.6263918 L 0.6238806,0.6178631 L 0.62646293,0.60933427 L 0.62880834,0.60104246 L 0.63091685,0.59251361 L 0.63281214,0.58398478 L 0.63444682,0.57569297 L 0.63586829,0.56716414 L 0.63705284,0.55863543 L 0.63800049,0.55034349 L 0.63871122,0.54181465 L 0.63918503,0.53328594 L 0.63944563,0.524994 L 0.63946932,0.5164653 L 0.63925611,0.50817336 L 0.63880597,0.49964466 L 0.72089553,0.49964466 C 0.72219853,0.53186443 0.71812367,0.56526882 0.70758116,0.59796253 C 0.68239755,0.61336178 0.65195453,0.62591801 0.61800523,0.63468374 z "
       style="font-style:normal;font-variant:normal;font-weight:normal;font-stretch:normal;letter-spacing:normal;word-spacing:normal;text-anchor:start;fill:#0a6826;fill-opacity:1;fill-rule:nonzero;stroke:#d4b76a;stroke-width:0;stroke-linecap:butt;stroke-linejoin:miter;stroke-miterlimit:10.43299961;stroke-dasharray:none;stroke-dashoffset:0;stroke-opacity:1"
       id="path238" />
    <path
       d="M 0.67529022,0.29140014 L 0.6811893,0.29661215 L 0.68694624,0.30182416 L 0.69256101,0.3075101 L 0.69800996,0.31295901 L 0.70331676,0.31888171 L 0.70843403,0.32480454 L 0.71340915,0.33096427 L 0.71819476,0.33712387 L 0.72279082,0.3435205 L 0.72722105,0.34991713 L 0.73146175,0.35655052 L 0.73551292,0.36342094 L 0.73937457,0.37029136 L 0.74304668,0.37716178 L 0.74650558,0.38426911 L 0.74977495,0.39161333 C 0.74515518,0.40724949 0.73515756,0.42170103 0.72080077,0.43496794 C 0.71850273,0.42667613 0.71580195,0.41862123 0.7127695,0.41056618 C 0.70000001,0.37787247 0.68009951,0.3461265 0.65261788,0.31911874 C 0.66140726,0.31272211 0.66704574,0.30632548 0.67147596,0.30016588 C 0.67360816,0.29708595 0.67472164,0.29424305 0.67529022,0.29140014 z "
       style="font-style:normal;font-variant:normal;font-weight:normal;font-stretch:normal;letter-spacing:normal;word-spacing:normal;text-anchor:start;fill:#0a6826;fill-opacity:1;fill-rule:nonzero;stroke:#d4b76a;stroke-width:0;stroke-linecap:butt;stroke-linejoin:miter;stroke-miterlimit:10.43299961;stroke-dasharray:none;stroke-dashoffset:0;stroke-opacity:1"
       id="path240" />
    <path
       d="M 0.7719024,0.49135272 L 0.72996921,0.48756223 C 0.72885574,0.47311068 0.72672354,0.45889604 0.72350155,0.4451552 C 0.73783464,0.43307277 0.74856671,0.41956882 0.75515283,0.40488038 C 0.76515046,0.43212504 0.77097845,0.46102812 0.7719024,0.49135272 z "
       style="font-style:normal;font-variant:normal;font-weight:normal;font-stretch:normal;letter-spacing:normal;word-spacing:normal;text-anchor:start;fill:#0a6826;fill-opacity:1;fill-rule:nonzero;stroke:#d4b76a;stroke-width:0;stroke-linecap:butt;stroke-linejoin:miter;stroke-miterlimit:10.43299961;stroke-dasharray:none;stroke-dashoffset:0;stroke-opacity:1"
       id="path242" />
    <path
       d="M 0.49168445,0.23738448 L 0.4907131,0.23667379 L 0.48978916,0.23596296 L 0.48884152,0.23525227 L 0.48794126,0.23454159 L 0.4870173,0.23383076 L 0.48611705,0.23312007 L 0.48524047,0.23240937 L 0.4843402,0.23193558 L 0.48348733,0.23122475 L 0.48263445,0.23075095 L 0.48178158,0.23004027 L 0.48095238,0.22956647 L 0.48014689,0.22885564 L 0.47934139,0.22838185 L 0.47855959,0.22790806 L 0.47780148,0.22743426 C 0.48270553,0.22696046 0.48760957,0.22672357 0.49251363,0.22672357 L 0.49168445,0.23738448 z "
       style="font-style:normal;font-variant:normal;font-weight:normal;font-stretch:normal;letter-spacing:normal;word-spacing:normal;text-anchor:start;fill:#0a6826;fill-opacity:1;fill-rule:nonzero;stroke:#d4b76a;stroke-width:0;stroke-linecap:butt;stroke-linejoin:miter;stroke-miterlimit:10.43299961;stroke-dasharray:none;stroke-dashoffset:0;stroke-opacity:1"
       id="path244" />
    <path
       d="M 0.47704337,0.77185505 L 0.4748164,0.76924891 L 0.47258944,0.7666429 L 0.47038617,0.7638 L 0.46823029,0.761194 L 0.46607439,0.75858799 L 0.46394219,0.75598199 L 0.45974889,0.75053309 C 0.46974651,0.75148067 0.47983891,0.75195447 0.49009714,0.75219137 L 0.49185028,0.77280263 C 0.48685146,0.77256574 0.48194741,0.77232884 0.47704337,0.77185505 z "
       style="font-style:normal;font-variant:normal;font-weight:normal;font-stretch:normal;letter-spacing:normal;word-spacing:normal;text-anchor:start;fill:#0a6826;fill-opacity:1;fill-rule:nonzero;stroke:#d4b76a;stroke-width:0;stroke-linecap:butt;stroke-linejoin:miter;stroke-miterlimit:10.43299961;stroke-dasharray:none;stroke-dashoffset:0;stroke-opacity:1"
       id="path246" />
    <path
       d="M 0.42902157,0.7638 L 0.42402275,0.7607202 L 0.41914239,0.75787731 L 0.41430941,0.75479737 L 0.40959489,0.75148067 L 0.40495144,0.74840088 L 0.40037906,0.74508404 L 0.39592514,0.74176735 L 0.3915423,0.73845066 C 0.40893153,0.74318887 0.42736319,0.74674246 0.44660034,0.74911157 C 0.45188345,0.75621889 0.45742716,0.76332621 0.46325517,0.77043353 C 0.45159915,0.76901201 0.44022744,0.7666429 0.42902157,0.7638 z "
       style="font-style:normal;font-variant:normal;font-weight:normal;font-stretch:normal;letter-spacing:normal;word-spacing:normal;text-anchor:start;fill:#0a6826;fill-opacity:1;fill-rule:nonzero;stroke:#d4b76a;stroke-width:0;stroke-linecap:butt;stroke-linejoin:miter;stroke-miterlimit:10.43299961;stroke-dasharray:none;stroke-dashoffset:0;stroke-opacity:1"
       id="path248" />
    <path
       d="M 0.3321251,0.71570717 L 0.33629473,0.71783938 L 0.34053543,0.71997159 L 0.34487089,0.72186691 L 0.34925374,0.72376208 L 0.35370766,0.7256574 L 0.35823265,0.72755271 L 0.36282872,0.72921112 L 0.36747216,0.7311063 C 0.37524284,0.73797672 0.38339256,0.74461025 0.39201612,0.75100688 C 0.37052831,0.74176735 0.35036722,0.72992181 0.3321251,0.71570717 z "
       style="font-style:normal;font-variant:normal;font-weight:normal;font-stretch:normal;letter-spacing:normal;word-spacing:normal;text-anchor:start;fill:#0a6826;fill-opacity:1;fill-rule:nonzero;stroke:#d4b76a;stroke-width:0;stroke-linecap:butt;stroke-linejoin:miter;stroke-miterlimit:10.43299961;stroke-dasharray:none;stroke-dashoffset:0;stroke-opacity:1"
       id="path250" />
    <path
       d="M 0.28040749,0.66311303 L 0.28040749,0.66334993 C 0.25716656,0.63231464 0.24041697,0.59630424 0.23200663,0.55721391 C 0.24468136,0.57474525 0.26235491,0.59061831 0.28391377,0.60435915 C 0.29687278,0.64297555 0.31843166,0.68040746 0.34944326,0.71333807 C 0.32037432,0.70030791 0.29649373,0.68325037 0.28040749,0.66311303 z "
       style="font-style:normal;font-variant:normal;font-weight:normal;font-stretch:normal;letter-spacing:normal;word-spacing:normal;text-anchor:start;fill:#0a6826;fill-opacity:1;fill-rule:nonzero;stroke:#d4b76a;stroke-width:0;stroke-linecap:butt;stroke-linejoin:miter;stroke-miterlimit:10.43299961;stroke-dasharray:none;stroke-dashoffset:0;stroke-opacity:1"
       id="path252" />
    <path
       d="M 0.22764748,0.53067994 L 0.22724473,0.52688932 L 0.22688937,0.52309883 L 0.22658139,0.5190713 L 0.22629709,0.51528067 L 0.22608387,0.51125329 L 0.22594173,0.50746267 L 0.22582326,0.50343515 L 0.22579958,0.49964466 L 0.26882257,0.49964466 C 0.26770908,0.52925842 0.27104952,0.55981992 0.27938878,0.58990761 C 0.25541341,0.57285007 0.23755035,0.55271259 0.22783701,0.53067994 L 0.22764748,0.53067994 z "
       style="font-style:normal;font-variant:normal;font-weight:normal;font-stretch:normal;letter-spacing:normal;word-spacing:normal;text-anchor:start;fill:#0a6826;fill-opacity:1;fill-rule:nonzero;stroke:#d4b76a;stroke-width:0;stroke-linecap:butt;stroke-linejoin:miter;stroke-miterlimit:10.43299961;stroke-dasharray:none;stroke-dashoffset:0;stroke-opacity:1"
       id="path254" />
    <path
       d="M 0.24337835,0.40345886 L 0.24470505,0.40630176 L 0.24612651,0.4091448 L 0.24764274,0.41175081 L 0.24927743,0.4145937 L 0.25098319,0.41719971 L 0.2528074,0.41980571 L 0.25472637,0.42241172 L 0.25674012,0.42501772 L 0.25884863,0.42762373 L 0.26105189,0.43022973 L 0.26334993,0.43283587 L 0.26571904,0.43520498 L 0.26820659,0.43781098 L 0.27076523,0.44018008 L 0.27341862,0.4425492 L 0.27614311,0.4449183 C 0.27289743,0.45865901 0.27076523,0.47311068 0.26958067,0.48756223 L 0.2259891,0.49135272 C 0.22691306,0.46055433 0.23302536,0.43094055 0.24337835,0.40345886 z "
       style="font-style:normal;font-variant:normal;font-weight:normal;font-stretch:normal;letter-spacing:normal;word-spacing:normal;text-anchor:start;fill:#0a6826;fill-opacity:1;fill-rule:nonzero;stroke:#d4b76a;stroke-width:0;stroke-linecap:butt;stroke-linejoin:miter;stroke-miterlimit:10.43299961;stroke-dasharray:none;stroke-dashoffset:0;stroke-opacity:1"
       id="path256" />
    <path
       d="M 0.34453921,0.2745795 L 0.344326,0.27505329 L 0.34413647,0.27576398 L 0.34394693,0.27647481 L 0.3437811,0.27694861 L 0.34363896,0.2776593 L 0.34349681,0.27836999 L 0.34335466,0.27908082 L 0.34323621,0.27955461 L 0.34311774,0.2802653 L 0.34304668,0.28097599 L 0.34295192,0.28168682 L 0.34288083,0.28216062 L 0.34283345,0.28287131 L 0.34280977,0.28358214 L 0.34278608,0.28429283 L 0.34276239,0.28476662 C 0.34276239,0.29447994 0.34702678,0.30324568 0.35479745,0.31153749 C 0.32324095,0.33996677 0.30085289,0.37455578 0.28696992,0.41009238 C 0.28391377,0.4179104 0.28133145,0.42596544 0.27900972,0.43402035 C 0.26401327,0.4207533 0.2535655,0.40606486 0.24875622,0.39019195 C 0.26939115,0.3432836 0.30279555,0.30324568 0.34453921,0.2745795 z "
       style="font-style:normal;font-variant:normal;font-weight:normal;font-stretch:normal;letter-spacing:normal;word-spacing:normal;text-anchor:start;fill:#0a6826;fill-opacity:1;fill-rule:nonzero;stroke:#d4b76a;stroke-width:0;stroke-linecap:butt;stroke-linejoin:miter;stroke-miterlimit:10.43299961;stroke-dasharray:none;stroke-dashoffset:0;stroke-opacity:1"
       id="path258" />
    <path
       d="M 0.3633973,0.26344466 L 0.37022034,0.26202314 L 0.3769486,0.26083866 L 0.38360579,0.25941714 L 0.39019191,0.25846954 L 0.39673064,0.25752182 L 0.40317461,0.25657424 L 0.4095712,0.25586354 L 0.41587303,0.25515272 L 0.42212747,0.25444202 L 0.42831084,0.25420513 L 0.43442313,0.25373133 L 0.44044065,0.25349444 L 0.44641081,0.25325753 L 0.45230988,0.25325753 L 0.45816158,0.25325753 L 0.4639185,0.25349444 C 0.42347786,0.26391846 0.38969439,0.28216062 0.36221276,0.305141 C 0.3560057,0.29874436 0.35249942,0.29187394 0.35249942,0.28476662 C 0.35249942,0.2776593 0.35628999,0.27031508 0.3633973,0.26344466 z "
       style="font-style:normal;font-variant:normal;font-weight:normal;font-stretch:normal;letter-spacing:normal;word-spacing:normal;text-anchor:start;fill:#0a6826;fill-opacity:1;fill-rule:nonzero;stroke:#d4b76a;stroke-width:0;stroke-linecap:butt;stroke-linejoin:miter;stroke-miterlimit:10.43299961;stroke-dasharray:none;stroke-dashoffset:0;stroke-opacity:1"
       id="path260" />
    <path
       d="M 0.48566691,0.31130059 L 0.48365317,0.31201142 L 0.4817105,0.31272211 L 0.47981521,0.3134328 L 0.47794362,0.31414349 L 0.47611942,0.31485431 L 0.47436626,0.31580191 L 0.47263682,0.3165126 L 0.47095475,0.31722343 L 0.46932007,0.31817101 L 0.46773276,0.31888171 L 0.46616916,0.31959253 L 0.46467663,0.32054012 L 0.46320778,0.32125081 L 0.46176262,0.32219853 L 0.46038854,0.32290922 L 0.45903815,0.32385695 L 0.45773513,0.32456764 L 0.45647951,0.32551523 L 0.45524758,0.32646296 L 0.45406303,0.32717365 L 0.45290217,0.32812123 L 0.45178868,0.32906895 L 0.44968018,0.33096427 L 0.44771382,0.33262255 L 0.44586592,0.33451787 L 0.44418385,0.33641317 L 0.44262024,0.33854539 C 0.43809524,0.33759766 0.43354655,0.33688697 0.42921109,0.33593939 C 0.44873253,0.30703617 0.47019665,0.28334511 0.48945748,0.26533998 L 0.48566691,0.31130059 z "
       style="font-style:normal;font-variant:normal;font-weight:normal;font-stretch:normal;letter-spacing:normal;word-spacing:normal;text-anchor:start;fill:#0a6826;fill-opacity:1;fill-rule:nonzero;stroke:#d4b76a;stroke-width:0;stroke-linecap:butt;stroke-linejoin:miter;stroke-miterlimit:10.43299961;stroke-dasharray:none;stroke-dashoffset:0;stroke-opacity:1"
       id="path262" />
    <path
       d="M 0.47076523,0.52878462 L 0.48111823,0.64913529 C 0.4506752,0.64795066 0.42134566,0.64416017 0.39412463,0.63800044 C 0.37581142,0.59180292 0.36823028,0.54560528 0.37119167,0.49964466 L 0.40087658,0.49964466 C 0.4286425,0.50556735 0.45873016,0.50888419 0.49019191,0.50935798 L 0.47076523,0.52878462 z "
       style="font-style:normal;font-variant:normal;font-weight:normal;font-stretch:normal;letter-spacing:normal;word-spacing:normal;text-anchor:start;fill:#0a6826;fill-opacity:1;fill-rule:nonzero;stroke:#d4b76a;stroke-width:0;stroke-linecap:butt;stroke-linejoin:miter;stroke-miterlimit:10.43299961;stroke-dasharray:none;stroke-dashoffset:0;stroke-opacity:1"
       id="path264" />
    <path
       d="M 0.39857855,0.64889838 L 0.40352997,0.64984598 L 0.40850509,0.6507937 L 0.41355131,0.65174129 L 0.41862119,0.65268887 L 0.42371477,0.6533997 L 0.42887942,0.65411039 L 0.43925611,0.65553191 L 0.44977495,0.6567164 L 0.46041222,0.65766399 L 0.47114429,0.65837482 L 0.48194741,0.65884861 L 0.48917319,0.74224115 C 0.47649846,0.74200424 0.46401328,0.74129355 0.45188345,0.73987204 C 0.42949539,0.70954744 0.41172709,0.67922299 0.39857855,0.64889838 z "
       style="font-style:normal;font-variant:normal;font-weight:normal;font-stretch:normal;letter-spacing:normal;word-spacing:normal;text-anchor:start;fill:#0a6826;fill-opacity:1;fill-rule:nonzero;stroke:#d4b76a;stroke-width:0;stroke-linecap:butt;stroke-linejoin:miter;stroke-miterlimit:10.43299961;stroke-dasharray:none;stroke-dashoffset:0;stroke-opacity:1"
       id="path266" />
    <path
       d="M 0.38692253,0.64629238 L 0.38933902,0.65197818 L 0.39185028,0.65790102 L 0.39447998,0.66358682 L 0.39720447,0.66927263 L 0.4000474,0.67495856 L 0.40298508,0.68088126 L 0.40604123,0.68656721 L 0.40921582,0.692253 L 0.4124852,0.69793881 L 0.41584932,0.70386164 L 0.41933191,0.70954744 L 0.42293296,0.71523338 L 0.42662877,0.72091918 L 0.43041934,0.72660512 L 0.43435207,0.73252782 L 0.43837954,0.73821362 C 0.41494908,0.73489693 0.3928453,0.72944803 0.37266051,0.7225776 C 0.33712391,0.6898839 0.31231935,0.65197818 0.29715707,0.61217716 C 0.32295665,0.6266287 0.35342337,0.63823734 0.38692253,0.64629238 z "
       style="font-style:normal;font-variant:normal;font-weight:normal;font-stretch:normal;letter-spacing:normal;word-spacing:normal;text-anchor:start;fill:#0a6826;fill-opacity:1;fill-rule:nonzero;stroke:#d4b76a;stroke-width:0;stroke-linecap:butt;stroke-linejoin:miter;stroke-miterlimit:10.43299961;stroke-dasharray:none;stroke-dashoffset:0;stroke-opacity:1"
       id="path268" />
    <path
       d="M 0.36138356,0.49964466 L 0.36095713,0.50817336 L 0.3607676,0.5164653 L 0.36079129,0.524994 L 0.36105189,0.53352284 L 0.36157309,0.54205168 L 0.36228382,0.55034349 L 0.36325515,0.55887232 L 0.36443971,0.56740103 L 0.36588488,0.57592987 L 0.36754324,0.58422167 L 0.36941483,0.59275052 L 0.37154703,0.60127935 L 0.37391613,0.60980805 L 0.37649846,0.6183369 L 0.3793177,0.6266287 L 0.38237385,0.63515754 C 0.34814027,0.6263918 0.31741294,0.61383558 0.29215826,0.59819942 C 0.28159205,0.56550585 0.27735135,0.53210132 0.27863066,0.49964466 L 0.36138356,0.49964466 z "
       style="font-style:normal;font-variant:normal;font-weight:normal;font-stretch:normal;letter-spacing:normal;word-spacing:normal;text-anchor:start;fill:#0a6826;fill-opacity:1;fill-rule:nonzero;stroke:#d4b76a;stroke-width:0;stroke-linecap:butt;stroke-linejoin:miter;stroke-miterlimit:10.43299961;stroke-dasharray:none;stroke-dashoffset:0;stroke-opacity:1"
       id="path270" />
    <path
       d="M 0.3395404,0.48140249 L 0.27938878,0.4866145 C 0.28040749,0.47476896 0.28216063,0.46292343 0.2846482,0.45155169 C 0.30002369,0.46292343 0.31852642,0.47311068 0.3395404,0.48140249 z "
       style="font-style:normal;font-variant:normal;font-weight:normal;font-stretch:normal;letter-spacing:normal;word-spacing:normal;text-anchor:start;fill:#0a6826;fill-opacity:1;fill-rule:nonzero;stroke:#d4b76a;stroke-width:0;stroke-linecap:butt;stroke-linejoin:miter;stroke-miterlimit:10.43299961;stroke-dasharray:none;stroke-dashoffset:0;stroke-opacity:1"
       id="path272" />
    <path
       d="M 0.41366975,0.34209898 L 0.41018716,0.34778491 L 0.40677565,0.35347072 L 0.40343522,0.35939356 L 0.40018954,0.36531626 L 0.39701493,0.37147599 L 0.39393509,0.37763558 L 0.39095001,0.38403222 L 0.3880834,0.39042884 L 0.38531153,0.39682534 L 0.38265814,0.40345886 L 0.3801232,0.41032929 L 0.37773039,0.41696281 L 0.37545606,0.42407013 L 0.37332387,0.43094055 L 0.37135751,0.43804788 L 0.36950961,0.44539209 C 0.36673774,0.45652693 0.36479508,0.46789854 0.36332624,0.47927028 L 0.36323146,0.47927028 L 0.36323146,0.47927028 C 0.33304905,0.46932006 0.30705994,0.4562899 0.28725422,0.44089077 C 0.28974177,0.43165125 0.29260839,0.42264861 0.2960436,0.41364598 C 0.30945274,0.3790571 0.33139068,0.34565271 0.36211799,0.31817101 C 0.37441366,0.32788434 0.39218197,0.33617628 0.41366975,0.34209898 z "
       style="font-style:normal;font-variant:normal;font-weight:normal;font-stretch:normal;letter-spacing:normal;word-spacing:normal;text-anchor:start;fill:#0a6826;fill-opacity:1;fill-rule:nonzero;stroke:#d4b76a;stroke-width:0;stroke-linecap:butt;stroke-linejoin:miter;stroke-miterlimit:10.43299961;stroke-dasharray:none;stroke-dashoffset:0;stroke-opacity:1"
       id="path274" />
    <path
       d="M 0.41921347,0.33333338 L 0.41537551,0.33238566 L 0.41163232,0.33120117 L 0.40798389,0.33025344 L 0.40443023,0.32906895 L 0.40094764,0.32764745 L 0.39758351,0.32646296 L 0.39429046,0.32527833 L 0.39111585,0.32385695 L 0.38805971,0.32243544 L 0.38509833,0.32101392 L 0.38223171,0.31959253 L 0.37948354,0.31793412 L 0.37687752,0.3165126 L 0.37436626,0.31485431 L 0.37197347,0.3134328 L 0.36969913,0.31177438 C 0.39940773,0.28737262 0.43660271,0.26865667 0.48185265,0.25941714 C 0.46169155,0.2781331 0.43930348,0.30324568 0.41921347,0.33333338 z "
       style="font-style:normal;font-variant:normal;font-weight:normal;font-stretch:normal;letter-spacing:normal;word-spacing:normal;text-anchor:start;fill:#0a6826;fill-opacity:1;fill-rule:nonzero;stroke:#d4b76a;stroke-width:0;stroke-linecap:butt;stroke-linejoin:miter;stroke-miterlimit:10.43299961;stroke-dasharray:none;stroke-dashoffset:0;stroke-opacity:1"
       id="path276" />
    <path
       d="M 0.43800049,0.47145227 L 0.43672117,0.47168916 L 0.43548923,0.47192607 L 0.43425729,0.47216296 L 0.43307274,0.47216296 L 0.43191187,0.47239985 L 0.4307747,0.47263676 L 0.42968492,0.47287365 L 0.42861881,0.47287365 L 0.42757641,0.47311068 L 0.42658139,0.47334759 L 0.42561006,0.47334759 L 0.4246861,0.47358448 L 0.42378584,0.47358448 L 0.42293296,0.47382137 L 0.42212747,0.47382137 L 0.42134566,0.47405828 L 0.42061124,0.47405828 L 0.41990049,0.47405828 L 0.41923716,0.47429517 L 0.41864487,0.47429517 L 0.41807629,0.47429517 L 0.4175314,0.47429517 L 0.41705759,0.47453207 L 0.41663114,0.47453207 L 0.41625207,0.47453207 L 0.41589672,0.47453207 L 0.41561242,0.47453207 L 0.41537551,0.47453207 L 0.41518599,0.47476896 L 0.41506753,0.47476896 L 0.41497276,0.47476896 L 0.41494908,0.47476896 L 0.37330018,0.47832269 C 0.37469795,0.46813544 0.37645108,0.45794832 0.37896235,0.4477612 C 0.38839139,0.40867086 0.40469084,0.37431889 0.42338309,0.34470498 C 0.42781332,0.34565271 0.43245676,0.3466003 0.43707653,0.34754802 C 0.41532813,0.39421933 0.48261077,0.45676383 0.43800049,0.47145227 z "
       style="font-style:normal;font-variant:normal;font-weight:normal;font-stretch:normal;letter-spacing:normal;word-spacing:normal;text-anchor:start;fill:#0a6826;fill-opacity:1;fill-rule:nonzero;stroke:#d4b76a;stroke-width:0;stroke-linecap:butt;stroke-linejoin:miter;stroke-miterlimit:10.43299961;stroke-dasharray:none;stroke-dashoffset:0;stroke-opacity:1"
       id="path278" />
    <path
       d="M 0.46242597,0.22909267 L 0.46297086,0.22932958 L 0.46351576,0.22956647 L 0.46408434,0.22980337 L 0.46467663,0.23004027 L 0.46529259,0.23051406 L 0.46590856,0.23075095 L 0.46654822,0.23122475 L 0.46721157,0.23146164 L 0.46787492,0.23193558 L 0.46856196,0.23217247 L 0.46995974,0.23312007 L 0.47145227,0.23406779 L 0.4729685,0.23501537 L 0.47457949,0.23596296 L 0.47621417,0.23714759 L 0.47791993,0.23833207 L 0.47964939,0.23951669 L 0.4814499,0.24070118 L 0.48329781,0.2421227 L 0.48519309,0.24354422 L 0.48713575,0.24496559 C 0.45816158,0.2421227 0.42660508,0.24307029 0.39218197,0.24828243 C 0.41430941,0.238806 0.43781095,0.23217247 0.46242597,0.22909267 z "
       style="font-style:normal;font-variant:normal;font-weight:normal;font-stretch:normal;letter-spacing:normal;word-spacing:normal;text-anchor:start;fill:#0a6826;fill-opacity:1;fill-rule:nonzero;stroke:#d4b76a;stroke-width:0;stroke-linecap:butt;stroke-linejoin:miter;stroke-miterlimit:10.43299961;stroke-dasharray:none;stroke-dashoffset:0;stroke-opacity:1"
       id="path280" />
    <polygon
       transform="matrix(2.3691069e-2,0,0,-2.3691069e-2,-0.9391376,14.641554)"
       points="60.855,611.27 61.379,605.25 60.766,605.07 60.758,611.32 60.855,611.27 "
       style="font-style:normal;font-variant:normal;font-weight:normal;font-stretch:normal;letter-spacing:normal;word-spacing:normal;text-anchor:start;fill:#a87b00;fill-opacity:1;fill-rule:nonzero;stroke:#a87b00;stroke-width:0;stroke-linecap:butt;stroke-linejoin:miter;stroke-miterlimit:10.43299961;stroke-dasharray:none;stroke-dashoffset:0;stroke-opacity:1"
       id="polygon284" />
    <polygon
       transform="matrix(2.3691069e-2,0,0,-2.3691069e-2,-0.9391376,14.641554)"
       points="59.508,595.7 46.434,596.84 46.383,596.93 75.133,596.93 75.078,596.84 61.984,595.7 60.828,582.6 60.746,582.55 60.746,596.93 59.508,595.7 "
       style="font-style:normal;font-variant:normal;font-weight:normal;font-stretch:normal;letter-spacing:normal;word-spacing:normal;text-anchor:start;fill:#a87b00;fill-opacity:1;fill-rule:nonzero;stroke:#a87b00;stroke-width:0;stroke-linecap:butt;stroke-linejoin:miter;stroke-miterlimit:10.43299961;stroke-dasharray:none;stroke-dashoffset:0;stroke-opacity:1"
       id="polygon286" />
    <path
       d="M 0.55719025,0.32669985 L 0.55721394,0.32669985 L 0.55723763,0.32646296 L 0.55723763,0.32646296 L 0.55726132,0.32646296 L 0.55726132,0.32646296 L 0.55728501,0.32646296 L 0.55728501,0.32646296 L 0.55730871,0.32646296 L 0.55730871,0.32646296 L 0.55730871,0.32646296 L 0.55730871,0.32646296 L 0.5573324,0.32646296 L 0.5573324,0.32646296 L 0.5573324,0.32646296 L 0.5573324,0.32646296 L 0.5573324,0.32622606 L 0.5573324,0.32622606 L 0.5573324,0.32622606 L 0.5573324,0.32622606 L 0.5573324,0.32622606 L 0.5573324,0.32622606 L 0.5573324,0.32622606 L 0.5573324,0.32622606 L 0.5573324,0.32622606 L 0.5573324,0.32622606 L 0.55730871,0.32622606 L 0.55730871,0.32622606 L 0.55730871,0.32622606 L 0.55730871,0.32622606 L 0.55728501,0.32622606 L 0.55726132,0.32622606 L 0.55726132,0.32598902 L 0.55723763,0.32598902 L 0.55723763,0.32598902 L 0.55721394,0.32598902 L 0.55719025,0.32598902 L 0.55719025,0.32598902 L 0.55716655,0.32598902 L 0.55714287,0.32598902 L 0.55714287,0.32598902 L 0.55714287,0.32598902 L 0.55711918,0.32598902 L 0.55711918,0.32598902 L 0.55711918,0.32598902 L 0.55711918,0.32598902 L 0.55711918,0.32598902 L 0.55711918,0.32598902 L 0.55709549,0.32598902 L 0.55709549,0.32598902 L 0.55709549,0.32598902 L 0.55709549,0.32598902 L 0.55709549,0.32598902 C 0.55709549,0.32598902 0.48009951,0.32385695 0.45993841,0.3819 C 0.45993841,0.3819 0.45946459,0.38332152 0.45974889,0.38521669 C 0.46003318,0.38687511 0.46019902,0.39042884 0.46019902,0.39042884 C 0.46019902,0.39042884 0.46863303,0.34399429 0.54359158,0.33499166 C 0.54359158,0.33499166 0.5525705,0.33380718 0.55719025,0.32669985 z "
       style="font-style:normal;font-variant:normal;font-weight:normal;font-stretch:normal;letter-spacing:normal;word-spacing:normal;text-anchor:start;fill:#a87b00;fill-opacity:1;fill-rule:nonzero;stroke:#a87b00;stroke-width:0;stroke-linecap:butt;stroke-linejoin:miter;stroke-miterlimit:10.43299961;stroke-dasharray:none;stroke-dashoffset:0;stroke-opacity:1"
       id="path288" />
    <path
       d="M 0.53859276,0.35655052 L 0.53861645,0.35655052 L 0.53861645,0.35655052 L 0.53861645,0.35655052 L 0.53864014,0.35655052 L 0.53864014,0.35655052 L 0.53866383,0.35655052 L 0.53866383,0.35655052 L 0.53866383,0.35655052 L 0.53866383,0.35655052 L 0.53868753,0.35655052 L 0.53868753,0.35655052 L 0.53868753,0.35655052 L 0.53868753,0.35655052 L 0.53868753,0.35655052 L 0.53868753,0.35655052 L 0.53868753,0.35655052 L 0.53868753,0.35655052 L 0.53868753,0.35655052 L 0.53868753,0.35655052 L 0.53868753,0.35655052 L 0.53868753,0.35631362 L 0.53868753,0.35631362 L 0.53868753,0.35631362 L 0.53868753,0.35631362 L 0.53868753,0.35631362 L 0.53868753,0.35631362 L 0.53866383,0.35631362 L 0.53866383,0.35631362 L 0.53866383,0.35631362 L 0.53866383,0.35631362 L 0.53864014,0.35631362 L 0.53864014,0.35631362 L 0.53861645,0.35631362 L 0.53861645,0.35631362 L 0.53859276,0.35631362 L 0.53859276,0.35631362 L 0.53856907,0.35631362 L 0.53856907,0.35631362 L 0.53854537,0.35631362 L 0.53854537,0.35631362 L 0.53854537,0.35631362 L 0.53852168,0.35631362 L 0.53852168,0.35631362 L 0.53852168,0.35631362 L 0.53852168,0.35631362 L 0.53852168,0.35631362 L 0.53852168,0.35631362 L 0.53849799,0.35631362 L 0.53849799,0.35631362 L 0.53849799,0.35631362 L 0.53849799,0.35631362 L 0.53849799,0.35631362 L 0.53849799,0.35631362 L 0.53849799,0.35631362 C 0.53849799,0.35631362 0.47983891,0.35678741 0.4665956,0.40156355 C 0.4665956,0.40156355 0.46621654,0.40274817 0.46640608,0.40416955 C 0.4665956,0.40535417 0.46678512,0.40819708 0.46678512,0.40819708 C 0.46678512,0.40819708 0.47325279,0.37266047 0.52831084,0.36389474 C 0.52831084,0.36389474 0.53515755,0.36223646 0.53859276,0.35655052 z "
       style="font-style:normal;font-variant:normal;font-weight:normal;font-stretch:normal;letter-spacing:normal;word-spacing:normal;text-anchor:start;fill:#a87b00;fill-opacity:1;fill-rule:nonzero;stroke:#a87b00;stroke-width:0;stroke-linecap:butt;stroke-linejoin:miter;stroke-miterlimit:10.43299961;stroke-dasharray:none;stroke-dashoffset:0;stroke-opacity:1"
       id="path290" />
    <path
       d="M 0.52248284,0.38545374 L 0.52250653,0.38545374 L 0.52250653,0.38545374 L 0.52250653,0.38545374 L 0.52253022,0.38545374 L 0.52253022,0.38545374 L 0.52253022,0.38545374 L 0.52253022,0.38545374 L 0.52255391,0.38545374 L 0.52255391,0.38545374 L 0.52255391,0.38545374 L 0.52255391,0.38545374 L 0.52255391,0.38545374 L 0.52255391,0.38545374 L 0.52255391,0.38521669 L 0.52257759,0.38521669 L 0.52257759,0.38521669 L 0.52257759,0.38521669 L 0.52257759,0.38521669 L 0.52257759,0.38521669 L 0.52257759,0.38521669 L 0.52257759,0.38521669 L 0.52257759,0.38521669 L 0.52257759,0.38521669 L 0.52257759,0.38521669 L 0.52257759,0.38521669 L 0.52255391,0.38521669 L 0.52255391,0.38521669 L 0.52255391,0.38521669 L 0.52255391,0.38521669 L 0.52255391,0.38521669 L 0.52253022,0.38521669 L 0.52253022,0.38521669 L 0.52253022,0.38521669 L 0.52253022,0.38521669 L 0.52250653,0.38521669 L 0.52250653,0.38521669 L 0.52250653,0.3849798 L 0.52250653,0.3849798 L 0.52250653,0.3849798 L 0.52250653,0.3849798 L 0.52250653,0.3849798 L 0.52248284,0.3849798 L 0.52248284,0.3849798 L 0.52248284,0.3849798 L 0.52248284,0.3849798 L 0.52248284,0.3849798 L 0.52248284,0.3849798 L 0.52248284,0.3849798 C 0.52248284,0.3849798 0.48009951,0.38900732 0.47306326,0.42170103 C 0.47306326,0.42170103 0.47280266,0.42264861 0.4729685,0.42359633 C 0.47306326,0.42454393 0.47325279,0.42643924 0.47325279,0.42643924 C 0.47325279,0.42643924 0.47732766,0.40085286 0.5140725,0.39208712 C 0.5140725,0.39208712 0.5207297,0.39090264 0.52248284,0.38545374 z "
       style="font-style:normal;font-variant:normal;font-weight:normal;font-stretch:normal;letter-spacing:normal;word-spacing:normal;text-anchor:start;fill:#a87b00;fill-opacity:1;fill-rule:nonzero;stroke:#a87b00;stroke-width:0;stroke-linecap:butt;stroke-linejoin:miter;stroke-miterlimit:10.43299961;stroke-dasharray:none;stroke-dashoffset:0;stroke-opacity:1"
       id="path292" />
  </g>
</svg>
