<svg xmlns="http://www.w3.org/2000/svg" viewBox="0 0 125 19">
        <path d="M 0,7.9587302 H 7.6808519 V 0 H 0 Z m 41.038853,0.029825 V 4.9965785 h 2.211662 V 0.96201058 h 4.975358 V 4.9965785 h 2.665635 v 3.1135802 h -2.665635 v 4.6204583 c 0,1.224339 0.277957,1.760847 1.532996,1.760847 0.378134,0 0.754152,-0.02434 1.132639,-0.07866 v 3.831393 c -1.004948,0 -2.137235,0.152734 -3.192272,0.152734 -2.111484,0 -4.448721,-0.331569 -4.448721,-3.95485 V 8.1101587 h -2.151074 c 0.603713,1.2431069 0.889475,2.8025273 0.889475,4.6453613 H 32.44032 c 0.127338,1.504762 0.982021,2.577778 2.536181,2.577778 0.806004,0 1.686083,-0.305467 2.088556,-0.943563 h 4.647665 c -1.003184,2.859965 -3.744305,4.187655 -6.70765,4.187655 -4.172528,0 -7.314358,-2.502293 -7.314358,-6.917813 0,-3.8550267 2.762285,-6.9957675 6.886841,-6.9957675 3.264446,0 5.359297,1.1684613 6.461298,3.3247457 z m -38.3337116,-2.833 V 2.8045855 H 4.9739468 V 5.1555556 Z M 10.708607,18.244197 V 0.01985891 H 20.5341 c 4.724915,0 5.728099,2.70440919 5.728099,4.56825399 0,1.8366843 -0.877257,2.8342151 -2.209898,3.5724868 1.607423,0.5629629 3.114669,1.8641973 3.114669,4.5439153 0,3.649735 -3.114669,5.539682 -6.282249,5.539682 z M 16.235293,4.3570723 v 2.7583774 h 2.916078 c 1.155214,0 1.883263,-0.3329806 1.883263,-1.5061728 0,-0.9209877 -0.752741,-1.2522046 -1.883263,-1.2522046 z m 0,6.1516757 v 3.396825 h 3.243771 c 1.156625,0 2.159809,-0.333333 2.159809,-1.736508 0,-1.074074 -0.628225,-1.660317 -1.935116,-1.660317 z m 16.229013,-0.382152 h 4.751017 c 0,-1.2261022 -0.90477,-2.2204584 -2.185559,-2.2204584 -1.484671,0 -2.337589,0.7911816 -2.565458,2.2204584 z m 19.251231,8.117672 V 0.01992945 h 4.975358 V 6.4248677 h 0.04903 c 0.85433,-1.0194003 1.962277,-1.7608465 4.070587,-1.7608465 2.33759,0 4.476235,1.4539682 4.476235,4.4910053 V 18.244268 H 60.309626 V 11.3 c 0,-1.5308642 -0.176016,-2.6042328 -1.631763,-2.6042328 -0.856093,0 -1.986968,0.4349206 -1.986968,2.5548498 v 6.993651 z M 80.230246,12.75552 h -9.548948 c 0.124516,1.504762 0.980609,2.577778 2.53618,2.577778 0.806357,0 1.687847,-0.547443 2.088909,-1.185538 h 4.645902 c -1.001421,2.858554 -3.744305,4.42963 -6.705887,4.42963 -4.174291,0 -7.316121,-2.502293 -7.316121,-6.917813 0,-3.8550267 2.764048,-6.9957675 6.88684,-6.9957675 5.178887,0 7.413125,2.9372134 7.413125,8.0917105 z m -9.52461,-2.628924 h 4.749254 c 0,-1.2261022 -0.901596,-2.2204584 -2.183796,-2.2204584 -1.48326,0 -2.339353,0.7911816 -2.565458,2.2204584 z M 92.749805,8.8499471 h -4.520327 c -0.02751,-0.4335097 -0.251854,-0.7647266 -0.581311,-0.9943563 -0.29771,-0.254321 -0.701594,-0.382716 -1.103714,-0.382716 -0.704064,0 -1.507246,0.1530864 -1.507246,1.0190476 0,0.384127 0.301943,0.562963 0.576725,0.6895944 0.830696,0.3590829 2.71396,0.4610229 4.372883,1.0222222 1.659275,0.536508 3.117843,1.531217 3.117843,3.70194 0,3.675838 -3.469875,4.671605 -6.637455,4.671605 -3.063169,0 -6.432868,-1.008113 -6.505532,-4.429277 h 4.750665 c 0.02434,0.46067 0.223282,0.601058 0.601417,0.930864 0.251501,0.228219 0.728402,0.384127 1.332641,0.384127 0.6508,0 1.681498,-0.256084 1.681498,-1.020811 0,-0.767901 -0.427871,-0.997531 -2.73971,-1.406349 -3.794746,-0.66314 -5.327742,-1.888184 -5.327742,-4.1597886 0,-3.3442681 3.544303,-4.211993 6.158085,-4.211993 2.814138,0 6.208175,0.7922399 6.33128,4.1858907 z M 107.42131,0.02010582 V 18.244092 h -4.79793 v -1.45679 h -0.0519 c -0.62822,0.845149 -1.38096,1.790123 -3.818728,1.790123 -3.694569,0 -5.478008,-3.701587 -5.478008,-7.021517 0,-3.1128745 1.180964,-6.8917105 5.553846,-6.8917105 1.48114,0 2.81555,0.6624339 3.56829,1.7865961 h 0.0515 V 0.02010582 Z m 14.16942,9.82606698 v 5.4363312 c 0,0.99612 0.0469,2.11993 0.60106,2.961905 h -5.07589 c -0.12769,-0.356261 -0.20176,-0.893121 -0.17601,-1.250441 h -0.0501 c -1.05645,1.223986 -2.58663,1.583422 -4.19687,1.583422 -2.51502,0 -4.59758,-1.226102 -4.59758,-4.007055 0,-4.189065 4.82227,-4.035273 7.36163,-4.519224 0.67655,-0.1280422 1.35698,-0.3315695 1.35698,-1.1749558 0,-0.8941799 -0.82752,-1.2257496 -1.63459,-1.2257496 -1.53017,0 -1.83388,0.7925926 -1.86104,1.3520283 h -4.6205 c 0.15026,-3.7266314 3.61732,-4.3382716 6.7073,-4.3382716 6.23251,0 6.1856,2.6303351 6.1856,5.1820105 z m -18.96735,1.7622932 c 0,-1.55732 -0.40248,-3.2687835 -2.18415,-3.2687835 -1.784852,0 -2.188736,1.7114635 -2.188736,3.2687835 0,1.579894 0.403884,3.29171 2.188736,3.29171 1.78167,0 2.18415,-1.711816 2.18415,-3.29171 z m 14.19058,1.913192 v -1.22575 c -0.60248,0.306879 -1.27973,0.483951 -1.96122,0.639859 -1.10477,0.25291 -1.68326,0.534745 -1.68326,1.430688 0,0.610935 0.65574,1.221164 1.55733,1.221164 1.13405,0 2.01131,-0.687478 2.08715,-2.065961 z m 6.42606,-10.3735451 c 0.2448,0 0.48466,0.064197 0.71817,0.1918871 0.23351,0.1280423 0.41553,0.3107584 0.54604,0.5485009 0.13051,0.2384479 0.19577,0.4864197 0.19577,0.7446208 0,0.2557319 -0.0642,0.50194 -0.19295,0.7375661 -0.1284,0.2359789 -0.30865,0.4190476 -0.54004,0.5499118 -0.23175,0.1305115 -0.47408,0.1957672 -0.72699,0.1957672 -0.25327,0 -0.4956,-0.065256 -0.72735,-0.1957672 -0.23139,-0.1308642 -0.41199,-0.3139329 -0.54109,-0.5499118 -0.12911,-0.2356261 -0.19331,-0.4818342 -0.19331,-0.7375661 0,-0.2582011 0.0653,-0.5061729 0.19648,-0.7446208 0.13087,-0.2377425 0.31323,-0.4204586 0.5471,-0.5485009 0.23315,-0.1276896 0.47302,-0.1918871 0.71817,-0.1918871 z m 0,0.2462081 c -0.2053,0 -0.40494,0.053263 -0.59965,0.1601411 -0.19401,0.1068783 -0.34604,0.259612 -0.45574,0.458201 -0.1097,0.1985891 -0.16473,0.405291 -0.16473,0.6204586 0,0.2137566 0.054,0.4190476 0.16155,0.6148148 0.10794,0.1957672 0.25856,0.3488536 0.45257,0.4582011 0.1933,0.1093474 0.39541,0.1643739 0.606,0.1643739 0.21023,0 0.41235,-0.055027 0.60565,-0.1643739 0.194,-0.1093475 0.34427,-0.2624339 0.4515,-0.4582011 0.10688,-0.1957672 0.1605,-0.4010582 0.1605,-0.6148148 0,-0.2151676 -0.0543,-0.4218695 -0.16367,-0.6204586 -0.109,-0.198589 -0.26103,-0.3513227 -0.45574,-0.458201 C 123.64355,3.4475838 123.4439,3.394321 123.24002,3.394321 Z m -0.64093,2.0589065 V 3.8564021 h 0.54004 c 0.18484,0 0.31817,0.014815 0.40107,0.044092 0.0825,0.02963 0.14815,0.081129 0.19718,0.1544974 0.049,0.073369 0.0737,0.1513227 0.0737,0.2338624 0,0.1171076 -0.0409,0.2186949 -0.12275,0.3051146 -0.0822,0.08642 -0.19083,0.1347443 -0.32664,0.1453263 0.0557,0.023633 0.10018,0.051852 0.13369,0.084656 0.0631,0.062787 0.14074,0.168254 0.23245,0.3167549 l 0.19154,0.312522 h -0.3097 l -0.13934,-0.2518518 c -0.1097,-0.1978836 -0.19823,-0.3216932 -0.26525,-0.3714286 -0.0466,-0.036684 -0.11429,-0.055027 -0.20353,-0.055027 h -0.14886 v 0.6783069 z m 0.25362,-0.8987654 h 0.30794 c 0.14709,0 0.24762,-0.022222 0.30124,-0.066667 0.0529,-0.044444 0.0801,-0.1037037 0.0801,-0.1770723 0,-0.047266 -0.0131,-0.089594 -0.0388,-0.1269841 -0.0257,-0.03739 -0.0617,-0.064903 -0.10723,-0.083598 -0.0459,-0.018342 -0.13087,-0.027513 -0.25468,-0.027513 h -0.28854 z" id="Combined-Shape"></path>
</svg>
