<svg viewBox="0 0 128 128" xmlns="http://www.w3.org/2000/svg"><path clip-rule="evenodd" fill="none" d="M0 0h128v128H0z"/><path d="M65.991 94.906c-1.067-1.28-1.931-2.472-3.599-4.899l-.22-.32-.128-.187c-2.284-3.412-4.136-6.681-5.584-9.948-1.379-3.15-2.246-5.994-2.593-8.745-.295-2.548-.132-4.74.563-6.571a8.93 8.93 0 013.507-4.423c3.989-2.622 9.678-2.284 13.189.805 1.678 1.456 2.78 3.689 3.058 6.128.35 3.119-.234 6.519-1.639 10.339-2.158 5.768-5.506 11.303-10.537 17.91l2.027 1.554 1.956-1.643zm43.466 9.257c-1.12 3.938-3.824 7.39-7.334 9.368-3.093 1.762-6.829 2.398-10.396 1.791-4.248-.673-8.424-2.868-12.77-6.434-2.553-2.09-5-4.53-7.956-7.832l.114 3.284c4.867-6.269 8.376-11.582 11.087-17.133 3.038-6.24 4.751-12.066 4.932-17.853.121-4.346-.733-8.533-2.585-12.128-2.501-4.953-6.994-8.853-12.284-10.749-4.789-1.742-10.129-1.909-15.054-.479-4.735 1.365-8.968 4.259-11.861 8.181-2.519 3.383-4.031 7.588-4.378 11.975-.462 5.481.674 11.183 3.119 17.22 2.893 7.022 7.102 13.732 12.824 20.925l.049-3.255a66.168 66.168 0 01-6.959 7.042c-4.333 3.734-8.441 6.106-12.662 7.036-3.712.848-7.621.396-10.873-1.279-3.875-1.967-6.862-5.686-7.983-9.938-.843-3.074-.7-6.481.364-9.676.626-1.87 1.257-3.378 2.744-6.695l.125-.279c.271-.606.447-.999.626-1.405a1427.209 1427.209 0 0127.336-57.234l.734-1.452.037-.073c1.716-3.401 2.513-4.949 3.527-6.812 1.361-2.465 2.559-4.067 4.005-5.185 1.733-1.38 3.907-2.12 6.05-2.07a9.517 9.517 0 016.265 2.288c1.547 1.308 2.73 3.034 4.312 6.041 2.274 4.35 4.253 8.275 7.878 15.567l.648 1.303.072.144a1399.216 1399.216 0 0123.286 49.329c.1.231.179.408.367.837l.139.314c1.391 3.153 1.961 4.585 2.455 6.36.813 2.95.819 6.098.001 8.951l-.001.005zm13.206-5.312c-.04-3.68-.838-7.437-2.286-11.187-.717-1.862-1.35-3.328-2.784-6.527l-.084-.187-.398-.888a1434.25 1434.25 0 00-27.756-58.083c-.246-.482-.441-.868-.874-1.723l-.018-.035c-1.588-3.137-2.319-4.555-3.272-6.298-1.744-3.17-3.521-5.647-5.668-7.674C75.745 2.581 70.633.342 65.321.006L63.01 0c-5.58.277-10.862 2.605-14.747 6.462-2.035 1.963-3.741 4.367-5.444 7.458-.956 1.744-1.742 3.266-3.241 6.231l-.177.35-.684 1.352a1442.473 1442.473 0 00-18.915 38.824c-4.5 9.636-7.678 16.575-10.736 23.507-1.887 4.299-2.956 7.514-3.424 10.929-.99 6.587.424 13.536 3.914 19.249 3.005 4.958 7.513 8.936 12.759 11.239a28.28 28.28 0 0013.029 2.347c5.605-.303 11.234-2.271 16.449-5.563 4.772-2.983 9.063-6.846 14.096-12.346l-3.761-.004c4.611 5.061 8.614 8.732 13.006 11.651 5.158 3.456 10.689 5.624 16.269 6.16 6.487.69 13.186-.963 18.607-4.625 4.772-3.201 8.541-7.92 10.659-13.338a29 29 0 001.993-11.049l.001.017z" fill="#FF7977"/></svg>