<svg viewBox="0 0 204 204" version="1.1" xmlns="http://www.w3.org/2000/svg" >
    <g fill="#00305e">
        <path d="m102 0c56.333044 0 102 45.6669555 102 102 0 56.333044-45.666956 102-102 102-56.3330445 0-102-45.666956-102-102 0-56.3330445 45.6669555-102 102-102zm0 12c-49.7056275 0-90 40.2943725-90 90 0 49.705627 40.2943725 90 90 90 49.705627 0 90-40.294373 90-90 0-49.7056275-40.294373-90-90-90z" fill-rule="nonzero"/>
        <path d="m37.9878046 82.9261449.7189343.0647718c.1533668.8105223.3313426 1.6171059.4557059 2.4320047 1.5160899 9.9564706 7.0065329 17.4327956 14.8040692 23.4421266 8.00891 6.171262 17.1819135 10.178358 26.4410485 14.03184 9.3711937 3.900311 18.7696332 7.746354 28.0256915 11.904001 2.953959 1.326508 5.692588 3.335308 8.18381 5.437327 9.394045 7.925788 7.326011 21.900734-3.890419 26.987505-5.858698 2.656956-12.057089 2.84208-18.3016224 2.239003-28.7841764-2.778184-55.6681868-27.490362-59.0185259-59.505558-.8977889-8.580071-.3265087-17.0227199 1.8940138-25.3546446.1546851-.5794447.454827-1.1199389.6872941-1.6783765zm98.0560854-38.7494894c4.148812 2.5392282 7.805006 5.68416 10.327429 9.931087 2.705671 4.5554683 2.929349 9.1796471.406048 13.9311812-.378363.7129271-.406048 1.8201741-.165232 2.6153789 1.433913 4.737967 3.002737 9.4352329 4.503007 14.1535058.199948.6284612.268502 1.2980612.397699 1.9488424-.185007.0949694-.369575.1903765-.554142.2853459-.54711-.6013271-1.135969-1.169393-1.633422-1.8087953-8.684779-11.1643765-18.611872-20.9580424-31.136972-27.8501082-6.281886-3.4565365-12.968502-5.6815342-20.1824537-6.1546307-4.0108269-.2630258-7.8761972.2332659-11.5148131 2.0578165-6.0199757 3.0184518-10.0756263 11.8125318-1.9392768 18.2945224 5.2751142 4.202287 11.4563668 6.6806823 17.5985086 9.2299765 11.059108 4.5896047 22.275097 8.8400329 33.132498 13.8602823 5.372232 2.4836471 10.475962 5.9086728 15.035658 9.7013228 13.070893 10.868964 15.076965 26.806757 5.557239 40.901181-4.577274 6.776089-10.685578 11.929383-17.7009 16.066461-.310689.182937-.640713.353619-.983921.455153-.180172.052955-.408684-.058208-.94437-.154489.177976-.50986.243453-.862166.411762-1.155389 5.623594-9.789727 3.830654-23.365539-5.969-32.246711-6.379004-5.781317-13.930011-9.584908-21.771053-12.879077-10.8376258-4.552842-21.868169-8.68423-32.5133178-13.640584-5.493519-2.557609-10.7857717-5.9852607-15.3832595-9.9284607-13.6083356-11.6720471-12.9799274-31.1175812-.5906159-43.4307812 7.4692699-7.4238071 16.7073114-11.3748847 26.9385017-13.1793036 17.3357195-3.0574023 33.6233595-.21576 48.6743985 8.996273z"/>
    </g>
</svg>
