<svg xmlns="http://www.w3.org/2000/svg" viewBox="417.87799072265625 13.950900077819824 82.12200927734375 90.66310119628906">
<path d="M455.502 53.5427C469.819 45.3039 471.183 33.4035 473.041 22.8396C474.158 16.4317 474.625 13.9509 474.625 13.9509H500C500 13.9509 498.792 20.7525 497.675 27.1512C495.844 37.7517 496.119 45.4595 482.25 53.5427L462.376 64.9945C448.059 73.2333 446.695 85.1337 444.846 95.6976C443.729 102.105 443.263 104.577 443.263 104.577H417.878C417.878 104.577 419.086 97.7755 420.203 91.3768C422.034 80.7763 421.759 73.0685 435.628 64.9945L455.502 53.5427Z" fill="#00D37E"></path>
<path d="M449.68 50.3479H439.29C435.096 50.3407 431.039 48.8583 427.829 46.1603C424.619 43.4624 422.461 39.7209 421.732 35.5914L417.915 13.9601H443.299L449.68 50.3479Z" fill="#00D37E"></path>
<path d="M468.208 68.2259H478.588C482.79 68.2245 486.859 69.7039 490.078 72.4044C493.297 75.1048 495.462 78.8534 496.192 82.9916L500 104.614H474.625L468.208 68.2259Z" fill="#00D37E"></path>
</svg>
