<svg xmlns:dc="http://purl.org/dc/elements/1.1/" xmlns:cc="http://creativecommons.org/ns#" xmlns:rdf="http://www.w3.org/1999/02/22-rdf-syntax-ns#" xmlns:svg="http://www.w3.org/2000/svg" xmlns="http://www.w3.org/2000/svg" xml:space="preserve" id="svg2" version="1.1" viewBox="80.27 1.29 80.15 112.89"><metadata id="metadata8"><rdf:rdf><cc:work rdf:about=""><dc:format>image/svg+xml</dc:format><dc:type rdf:resource="http://purl.org/dc/dcmitype/StillImage"></dc:type></cc:work></rdf:rdf></metadata><defs id="defs6"></defs><g transform="matrix(1.3333333,0,0,-1.3333333,0,190.66667)" id="g10"><g transform="scale(0.1)" id="g12"><path id="path16" style="fill:#0dab40;fill-opacity:1;fill-rule:evenodd;stroke:none" d="M 1083.2,694.398 H 602.574 c 0,-66.918 53.59,-120.793 120.223,-120.793 H 1083.2 c 66.35,0 119.94,54.161 119.94,120.793 v 496.792 c 0,2.27 -1.98,4.53 -4.25,4.53 h -111.44 c -2.27,0 -4.25,-1.98 -4.25,-4.53 V 694.398 Z m 0,725.902 c 66.35,0 119.94,-54.16 119.94,-121.08 H 722.516 V 802.434 c 0,-2.27 -1.985,-4.539 -4.536,-4.539 H 606.543 c -2.27,0 -4.539,1.988 -4.539,4.539 v 496.786 c 0,66.92 53.594,121.08 120.23,121.08 H 1083.2 v 0"></path></g></g></svg>
