<svg xmlns:dc="http://purl.org/dc/elements/1.1/" xmlns:cc="http://creativecommons.org/ns#" xmlns:rdf="http://www.w3.org/1999/02/22-rdf-syntax-ns#" xmlns:svg="http://www.w3.org/2000/svg" xmlns="http://www.w3.org/2000/svg" xmlns:sodipodi="http://sodipodi.sourceforge.net/DTD/sodipodi-0.dtd" xmlns:inkscape="http://www.inkscape.org/namespaces/inkscape" version="1.1" id="svg18" sodipodi:docname="privacy.svg" inkscape:version="1.0.2 (e86c8708, 2021-01-15)" viewBox="64.15 76.98 48.88 48.88">
  <metadata id="metadata24">
    <rdf:rdf>
      <cc:work rdf:about="">
        <dc:format>image/svg+xml</dc:format>
        <dc:type rdf:resource="http://purl.org/dc/dcmitype/StillImage"></dc:type>
      </cc:work>
    </rdf:rdf>
  </metadata>
  <defs id="defs22"></defs>
  <sodipodi:namedview pagecolor="#ffffff" bordercolor="#666666" borderopacity="1" objecttolerance="10" gridtolerance="10" guidetolerance="10" inkscape:pageopacity="0" inkscape:pageshadow="2" inkscape:window-width="1299" inkscape:window-height="748" id="namedview20" showgrid="false" inkscape:zoom="1.0521087" inkscape:cx="45.789736" inkscape:cy="170.31366" inkscape:window-x="0" inkscape:window-y="23" inkscape:window-maximized="0" inkscape:current-layer="svg18" inkscape:document-rotation="0"></sodipodi:namedview>
  <g id="#232320ff" transform="matrix(0.24437466,0,0,0.24437466,64.156871,76.988241)">
    <path fill="#232320" opacity="1" d="M 0,0 H 200 V 200 H 0 V 0 m 60,50 c 0,33.41 0,66.82 0,100.23 7.16,0.01 14.32,0 21.48,0 0,-10.96 0.01,-21.93 -0.01,-32.89 10.28,-0.19 20.66,0.65 30.83,-1.22 8.13,-1.38 16.38,-4.59 21.84,-11.03 6.18,-7.07 7.45,-17.03 6.59,-26.06 -0.5,-8.55 -4.81,-17.02 -12.1,-21.72 C 119.94,51.57 109.2,50.18 99,50.03 86,49.97 73,50.02 60,50 Z" id="path10"></path>
    <path fill="#232320" opacity="1" d="m 81.49,98.4 c 0.01,-9.86 -0.07,-19.73 0.04,-29.59 8.64,0.24 17.37,-0.67 25.91,0.97 3.77,0.86 7.63,2.72 9.7,6.13 2.88,4.82 2.71,11.26 -0.3,15.98 -3.29,4.71 -9.4,6.01 -14.79,6.39 -6.85,0.27 -13.71,0.05 -20.56,0.12 z" id="path12"></path>
  </g>
  <g id="#ffffffff" transform="matrix(0.24437466,0,0,0.24437466,64.156871,76.988241)">
    <path fill="#ffffff" opacity="1" d="m 60,50 c 13,0.02 26,-0.03 39,0.03 10.2,0.15 20.94,1.54 29.63,7.28 7.29,4.7 11.6,13.17 12.1,21.72 0.86,9.03 -0.41,18.99 -6.59,26.06 -5.46,6.44 -13.71,9.65 -21.84,11.03 -10.17,1.87 -20.55,1.03 -30.83,1.22 0.02,10.96 0.01,21.93 0.01,32.89 -7.16,0 -14.32,0.01 -21.48,0 C 60,116.82 60,83.41 60,50 m 21.49,48.4 c 6.85,-0.07 13.71,0.15 20.56,-0.12 5.39,-0.38 11.5,-1.68 14.79,-6.39 3.01,-4.72 3.18,-11.16 0.3,-15.98 -2.07,-3.41 -5.93,-5.27 -9.7,-6.13 C 98.9,68.14 90.17,69.05 81.53,68.81 81.42,78.67 81.5,88.54 81.49,98.4 Z" id="path15"></path>
  </g>
</svg>