<svg viewBox="0 0 394.09 343.41" xmlns="http://www.w3.org/2000/svg"><path d="M146.183 251.68c6.311-1.52 7.572-1.535 13.918-.203 6.352 1.329 4.383 19.23-.951 21.322-3.777 1.472-8.87.127-13.945-1.217-5.085-1.349-5.333-18.394.977-19.902zm-33.64.247c3.876-2.061 9.437-.951 14.997.157 5.551 1.111 7.557 20.941.982 23.279-6.574 2.329-7.918 2.457-14.822 1.485-6.91-.971-6.646-22.001-1.157-24.922zm199.222 47.509c-7.376 3.24-66.404 7.039-67.624-1.498-1.213-8.544 17.346-56.388 23.698-65.018 6.361-8.621 14.662-26.219 23.181-18.862 8.512 7.364-19.32 60.61-6.307 61.336 13.025.717 31.301-59.081 31.301-70.712 0-11.622-4.983-11.622-18.276-9.968-13.284 1.669-28.23 1.669-36.542 1.669-8.3 0-18.269 13.282-19.924 28.242-1.669 14.936-7.065 69.184-15.169 70.298-8.094 1.112-127.857 19.3-135.25 13.529-7.39-5.776-14.917-51.575-4.507-51.092s9.458 29.909 19.248 32.767c12.368 3.624 57.597-2.388 67.572-5.709 9.961-3.331 9.961-53.16-1.664-56.476s-109.905 2.139-124.578 0c-14.678-2.145-11.629-4.989-6.647-13.289 4.982-8.305 66.445-126.245 71.428-132.89 4.984-6.636 151.916-36.386 163.996-34.804s-95.896 141.116-87.59 175.996c1.928 8.08 12.342 11.738 20.106 5.336 10.3-8.494 62.697-142.063 77.645-140.396s45.108 125.097 46.763 136.73c1.664 11.616-13.474 71.561-20.859 74.811zM178.141 20.31c6.648-6.652 21.594-6.652 26.581 0 4.984 6.641-1.664 16.602-11.628 18.265-9.969 1.665-20.829-12.393-14.953-18.265zm166.103 282.366c-8.165-4.65-11.629-1.652-6.647-14.937 4.988-13.289 8.305-34.88 13.293-39.868 4.983-4.989 32.603 3.147 36.303-10.692 3.691-13.838-16.078-66.101-32.981-118.87-11.22-35.016-40.762-90.08-57.373-93.41-16.601-3.323-57.581 10.358-63.23 7.04-5.644-3.328-6.528-26.897-21.035-30.059-14.502-3.164-41.079-3.164-49.389 6.801-7.132 8.554-.485 24.994-11.04 30.763-10.549 5.779-35.464 2.449-48.753 10.761C91.436 57.672 2.064 204.681.4 214.654s1.664 29.898 11.629 33.218 25.517 5.623 34.887 8.306c9.365 2.681 13.282 44.847 13.282 51.491S13.057 329.16 14.2 340.01c1.158 10.849 31.051-7.426 62.61-10.745 31.563-3.325 109.632-8.3 151.156-4.984 41.534 3.324 166.116 16.612 166.116 4.984s-38.206-19.936-49.835-26.587" fill="#307464"/></svg>
