<svg xmlns="http://www.w3.org/2000/svg" viewBox="0 0 600 600">
  <path 
        fill="#0A0B0D" 
        d="M319.897.18c70.85-2.403 142.426 19.221 200.312 61.374 69.892 49.891 119.485 128.508 135.234 214.438 12.797 62.188 5.505 127.694-16.608 186.736-28.96 77.272-86.567 142.571-158.455 179.95-46.465 23.923-98.503 38.125-150.748 34.909-43.543 2.581-86.982-7.487-127.017-24.698-80.896-34.623-147-103.878-178.984-187.688-25.074-64.344-30.719-136.705-14.414-204.05 18.541-82.043 68.615-155.817 136.577-202.813C196.905 22.475 258.091 2.406 319.897.18m-62.975 79.854c-69.372 20.633-129.461 71.975-161.618 138.435-25.006 50.21-32.882 108.649-24.521 164.232 1.374 6.711.755 14.34 4.988 20.104 26.342-60.419 57.919-121.124 108.611-163.808 48.603-39.396 107.276-69.5 170.286-70.667-12.761-15.581-25.59-31.093-38.691-46.394 45.19 13.074 90.247 26.678 134.995 41.305-30.716 31.624-61.356 63.354-93.349 93.601 1.035-19.47 2.479-38.974 2.96-58.479-22.048 3.958-42.578 14.842-59.639 29.54-37.214 32.261-59.124 79.182-72.744 126.354-14.033 48.479-19.877 99.532-17.436 150.023 34.875-4.096 68.684-16.394 99.154-34.13 37.183-21.696 68.653-56.077 81.311-98.688-16.028 2.649-31.919 6.258-47.671 10.245 25.452-33.211 51.485-65.965 76.872-99.249 21.839 37.101 44.159 73.949 63.281 112.644-16.987-6.749-32.982-15.898-50.316-21.662 17.78 72.861 13.86 151.581-14.446 221.081 76.08-27.168 138.021-92.5 162.34-171.4 21.668-69.007 15.548-147.27-18.397-211.044-28.723-55.649-77.248-99.995-134.104-123.385-54.204-22.473-115.769-25.053-171.866-8.658z"
        />
</svg>
