<svg version="1.1" id="Layer_1" xmlns="http://www.w3.org/2000/svg" xmlns:xlink="http://www.w3.org/1999/xlink" x="0px" y="0px"
	 viewBox="0 0 512 512" style="enable-background:new 0 0 512 512;" xml:space="preserve">
<g>
	<path d="M105.2,38.9c-23.2,11.8-23.2,13.7-1.5,38c120.6,134.3,149.4,166,151.6,166c3,0.3,170.1-182.2,171.9-187.7
		c0.7-1.5-4.4-6.7-11.1-11.4c-8.8-6.7-18.4-9.2-36.5-10c-33.9-2.2-45.7,5.2-87.8,52.4c-19.2,21.3-35.4,39.1-35.4,39.1
		c-0.3,0-16.2-17.3-35-38.3c-18.8-21-40.6-42.1-47.9-46.2c-17-9.6-51.7-10.3-68.3-1.8H105.2z M27.7,93.2C9.6,100.2,0,106.8,0,111.9
		c0,2.6,28.4,35.8,62.8,73.8c34.7,38,62.7,69.7,62.7,70.4c0,0.7-28.4,32.5-62.8,70.5C28,365,0.3,398.6,0.8,401.5
		c1.8,10,32.1,22.6,54.2,22.6c35.8-0.4,43.9-6.7,119.6-89.7c38-41.7,68.9-77.1,68.9-78.2c0-1.4-30.6-36.1-68.2-77.4
		c-49.1-53.5-73.1-77.5-84.5-82.7C73.4,87.6,45.4,86.2,27.7,93.2L27.7,93.2z M421.6,95.7c-10.7,5.5-37.7,32.1-84.2,83
		c-37.6,41.3-68.3,76-68.3,77.4c0,1.5,31,36.6,69,78.2c75.6,83,83.7,89.2,119.5,89.7c22.2,0,52.4-12.6,54.3-22.6
		c0.3-3.3-27.3-36.5-62-74.5c-34.3-37.9-62.7-70.1-62.7-70.8c0-0.7,28.4-32.8,62.7-70.8c34.7-37.9,62.3-71.2,62-74.1
		c-1.8-9.6-29.2-20.7-52.8-22.2C442.2,88.4,433.4,89.9,421.6,95.7L421.6,95.7z M169.7,362.1c-45.7,50.6-83.3,93.3-84.1,95.2
		c-0.7,1.5,4.4,6.7,11.1,11.4c8.8,6.7,18.4,9.2,36.5,10c33.6,2.2,46.1-5.6,88.5-53.5c18.5-20.7,34.3-38,34.7-38
		c0.4,0,16.3,17.3,35.1,38.3c43.2,48,54.6,55,88.2,53.2c18.1-0.7,27.7-3.3,36.5-10c6.7-4.7,11.8-9.9,11.1-11.4
		c-1.8-5.5-169-188.2-171.9-187.7C253.7,269.5,215.4,311.2,169.7,362.1z"/>
</g>
</svg>
