<svg viewBox="0 0 166 170" version="1.1" xmlns="http://www.w3.org/2000/svg" xmlns:xlink="http://www.w3.org/1999/xlink" xml:space="preserve" xmlns:serif="http://www.serif.com/" style="fill-rule:evenodd;clip-rule:evenodd;stroke-linejoin:round;stroke-miterlimit:2;">
    <g id="SELMA" transform="matrix(1,0,0,1,-1,-0.999995)">
        <g transform="matrix(1,0,0,1,9,11)">
            <path d="M75,150C115.593,150 148.5,117.049 148.5,76.401C148.5,35.754 115.593,2.802 75,2.802C34.407,2.802 1.5,35.754 1.5,76.401C1.5,117.049 34.407,150 75,150Z" style="fill:white;fill-rule:nonzero;"/>
        </g>
        <g transform="matrix(1,0,0,1,9,11)">
            <path d="M9.074,76.311C9.074,39.855 38.553,10.31 74.913,10.31C111.274,10.31 140.749,39.853 140.749,76.311C140.749,112.769 111.274,142.322 74.906,142.322C38.538,142.322 9.074,112.767 9.074,76.311Z" style="fill:rgb(59,102,255);fill-rule:nonzero;"/>
        </g>
        <g transform="matrix(1,0,0,1,9,11)">
            <path d="M92.759,70.099C92.478,70.249 92.791,70.763 93.049,71.245C93.308,71.726 93.414,71.995 93.693,71.845C93.973,71.695 94.323,71.177 94.068,70.695C93.813,70.213 93.04,69.947 92.759,70.099Z" style="fill:rgb(244,180,157);fill-rule:nonzero;"/>
        </g>
        <g transform="matrix(1,0,0,1,9,11)">
            <path d="M88.825,103.167C100.423,109.794 126.433,59.76 110.136,54.12C96.913,49.541 79.236,97.687 88.825,103.167Z" style="fill:rgb(46,131,232);fill-rule:nonzero;"/>
        </g>
        <g transform="matrix(1,0,0,1,9,11)">
            <path d="M62.519,103.167C50.92,109.794 24.907,59.76 41.199,54.12C54.431,49.541 72.108,97.687 62.519,103.167Z" style="fill:rgb(46,131,232);fill-rule:nonzero;"/>
        </g>
        <g transform="matrix(1,0,0,1,9,11)">
            <path d="M89.345,94.563C87.684,85.997 95.594,79.874 95.594,79.874L75.828,83.56L56.063,79.874C56.063,79.874 63.973,86.003 62.314,94.568C60.816,102.256 52.764,100.208 46.277,102.871C44.159,104.993 49.601,128.025 77.106,128.025C105.195,128.025 107.204,104.697 105.382,102.871C98.89,100.203 90.834,102.248 89.345,94.563Z" style="fill:rgb(239,176,154);fill-rule:nonzero;"/>
        </g>
        <g transform="matrix(1,0,0,1,9,11)">
            <path d="M74.631,126.75C74.73,126.755 74.828,126.755 74.927,126.75L74.631,126.75Z" style="fill:rgb(255,197,168);fill-rule:nonzero;"/>
        </g>
        <g transform="matrix(1,0,0,1,9,11)">
            <path d="M60.47,103.874C55.208,103.565 51.306,105.937 49.308,107.292C40.255,113.48 57.36,123.759 75,123.903C92.945,124.05 111.409,113.941 100.774,107.062C98.662,105.695 95.788,104.204 91.11,103.874C81.354,105.674 80.972,108.68 75.552,108.551C70.579,108.423 70.193,106.449 60.47,103.874Z" style="fill:rgb(255,197,168);fill-rule:nonzero;"/>
        </g>
        <g transform="matrix(1,0,0,1,9,11)">
            <path d="M74.93,142.365C98.695,142.365 118.908,130.02 130.681,111.239L130.584,111.181C117.12,103.353 108.077,103.124 104.787,101.062L103.946,101.062C103.946,101.062 106.729,119.043 75.63,119.043C45.856,119.043 46.547,101.062 46.547,101.062L45.704,101.062C42.418,103.124 33.223,103.227 19.761,111.044C19.574,111.153 19.387,111.265 19.199,111.382C31.008,130.023 51.283,142.365 74.93,142.365Z" style="fill:rgb(100,156,255);fill-rule:nonzero;"/>
        </g>
        <g transform="matrix(1,0,0,1,9,11)">
            <path d="M74.345,3.634C56.742,4.021 36.4,19.03 37.481,51.337C38.528,82.65 58.205,86.828 63.388,91.63C71.195,98.868 78.536,100.491 88.294,91.643C93.526,86.897 113.153,82.399 114.202,51.092C115.269,18.792 92.011,4.021 74.345,3.634Z" style="fill:rgb(239,176,154);fill-rule:nonzero;"/>
        </g>
        <g transform="matrix(1,0,0,1,9,11)">
            <path d="M74.345,2.609C56.742,2.997 36.394,17.846 37.475,50.154C38.522,81.467 58.149,85.546 63.382,90.293C68.347,94.793 71.392,96.398 75.405,96.451C79.453,96.398 83.324,94.964 88.284,90.464C93.518,85.714 113.143,81.062 114.192,49.755C115.269,17.457 92.015,2.997 74.345,2.609Z" style="fill:rgb(255,188,164);fill-rule:nonzero;"/>
        </g>
        <g transform="matrix(1,0,0,1,9,11)">
            <path d="M75.364,1.776C57.761,1.776 36.394,15.213 37.475,47.527C38.522,78.841 58.149,83.357 63.383,88.101C68.339,92.601 71.573,94.499 75.577,94.534C79.631,94.499 82.931,92.725 87.901,88.219C93.135,83.472 113.143,78.871 114.192,47.565C115.269,15.252 93.041,1.776 75.364,1.776Z" style="fill:rgb(255,197,168);fill-rule:nonzero;"/>
        </g>
        <g transform="matrix(1,0,0,1,9,11)">
            <path d="M91.543,74.113C91.262,74.262 91.573,74.775 91.833,75.257C92.093,75.739 92.198,76.007 92.477,75.853C92.756,75.7 93.104,75.19 92.852,74.708C92.599,74.226 91.822,73.96 91.543,74.113Z" style="fill:rgb(244,180,157);fill-rule:nonzero;"/>
        </g>
        <g transform="matrix(1,0,0,1,9,11)">
            <g opacity="0.6">
                <path d="M86.693,51.309C87.025,51.474 87.353,51.474 87.849,51.474L87.682,51.309C89.328,50.979 90.976,50.649 92.622,50.649C95.092,50.649 97.892,51.962 100.197,51.474C98.716,49.001 87.353,47.844 86.693,51.309Z" style="fill:rgb(239,176,154);fill-opacity:0.6;fill-rule:nonzero;"/>
            </g>
        </g>
        <g transform="matrix(1,0,0,1,9,11)">
            <g opacity="0.6">
                <path d="M47.998,51.969C50.303,52.462 53.103,51.144 55.573,51.144C57.219,51.144 58.865,51.474 60.513,51.802L60.348,51.969C60.842,51.969 61.172,51.969 61.502,51.802C60.842,48.341 49.479,49.498 47.998,51.969Z" style="fill:rgb(239,176,154);fill-opacity:0.6;fill-rule:nonzero;"/>
            </g>
        </g>
        <g transform="matrix(1,0,0,1,9,11)">
            <path d="M61.423,51.422C59.408,50.154 55.861,50.151 55.18,50.393C54.2,50.736 53.571,49.989 52.519,50.16C51.463,50.408 51.759,51.274 50.97,51.801C50.088,52.378 49.659,51.572 48.91,52.328C48.307,53.156 48.161,54.364 47.328,54.062C46.579,53.837 46.877,54.137 47.328,54.591C47.856,55.341 48.575,55.176 48.937,54.692C49.965,53.306 53.176,52.931 53.176,52.931C52.597,53.514 52.564,55.916 54.631,56.732C55.062,56.903 57.412,56.929 57.869,56.801C60.095,56.173 60.212,54.255 59.981,53.357C61.713,53.327 64.02,54.844 64.65,55.344C65.71,56.188 65.916,55.449 65.457,54.99C65.445,54.99 63.432,52.686 61.423,51.422Z" style="fill:rgb(35,46,76);fill-opacity:0.8;fill-rule:nonzero;"/>
        </g>
        <g transform="matrix(1,0,0,1,9,11)">
            <path d="M101.065,54.062C100.238,54.364 100.086,53.156 99.485,52.328C98.736,51.578 98.298,52.378 97.425,51.801C96.637,51.274 96.933,50.408 95.878,50.16C94.824,49.989 94.193,50.736 93.217,50.393C92.534,50.151 88.985,50.154 86.974,51.422C84.963,52.689 82.948,54.984 82.948,54.984C82.487,55.444 82.695,56.182 83.753,55.339C84.382,54.838 86.691,53.321 88.422,53.351C88.195,54.249 88.311,56.164 90.536,56.796C90.991,56.923 93.345,56.897 93.774,56.726C95.833,55.911 95.807,53.509 95.225,52.926C95.225,52.926 98.44,53.301 99.468,54.686C99.828,55.17 100.549,55.339 101.075,54.585C101.517,54.137 101.818,53.837 101.065,54.062Z" style="fill:rgb(35,46,76);fill-opacity:0.8;fill-rule:nonzero;"/>
        </g>
        <g transform="matrix(1,0,0,1,9,11)">
            <path d="M79.635,69.15C78.287,69.155 76.955,69.451 75.731,70.019C75.285,70.206 75.405,70.206 74.982,70.019C73.767,69.459 72.446,69.168 71.109,69.165C71,69.165 70.895,69.209 70.818,69.286C70.741,69.364 70.697,69.469 70.697,69.578C70.697,69.687 70.741,69.792 70.818,69.87C70.895,69.947 71,69.99 71.109,69.99C72.338,69.995 73.552,70.264 74.667,70.78C74.883,70.888 75.121,70.944 75.362,70.944C75.603,70.944 75.841,70.888 76.057,70.78C77.182,70.258 78.406,69.983 79.647,69.975C79.703,69.979 79.759,69.971 79.813,69.952C79.866,69.934 79.914,69.904 79.956,69.865C79.997,69.827 80.03,69.78 80.052,69.728C80.075,69.676 80.086,69.62 80.086,69.564C80.086,69.507 80.075,69.451 80.052,69.4C80.03,69.348 79.997,69.301 79.956,69.263C79.914,69.224 79.866,69.194 79.813,69.175C79.759,69.156 79.703,69.149 79.647,69.152L79.635,69.15Z" style="fill:rgb(239,176,154);fill-rule:nonzero;"/>
        </g>
        <g transform="matrix(1,0,0,1,9,11)">
            <g opacity="0.5">
                <path d="M104.919,45.408C101.574,42.596 90.976,41.283 86.363,44.096C86.363,44.096 84.545,46.674 89.547,45.577C91.507,45.148 98.378,46.155 100.088,47.452C107.222,52.83 106.481,46.728 104.919,45.408Z" style="fill:rgb(255,215,197);fill-opacity:0.5;fill-rule:nonzero;"/>
            </g>
        </g>
        <g transform="matrix(1,0,0,1,9,11)">
            <g opacity="0.5">
                <path d="M47.158,45.231C45.54,46.483 44.548,52.543 51.899,47.464C53.663,46.245 60.57,45.525 62.508,46.035C67.461,47.338 65.749,44.687 65.749,44.687C61.259,41.694 50.617,42.561 47.158,45.231Z" style="fill:rgb(255,215,197);fill-opacity:0.5;fill-rule:nonzero;"/>
            </g>
        </g>
        <g transform="matrix(1,0,0,1,9,11)">
            <path d="M63.537,77.05C65.084,77.337 66.679,78.09 69.662,77.076C74.039,75.589 75.261,77.153 75.63,77.464C76.005,77.153 77.224,75.589 81.598,77.076C84.699,78.132 86.946,76.626 87.403,77.25C85.493,78.737 82.063,79.847 75.913,79.864C69.763,79.881 65.601,79.264 63.578,77.256C63.509,77.185 63.483,77.037 63.537,77.05Z" style="fill:rgb(244,77,153);fill-rule:nonzero;"/>
        </g>
        <g transform="matrix(1,0,0,1,9,11)">
            <path d="M79.687,83.012C79.771,82.986 80.05,83.012 79.973,83.123C77.651,86.524 73.202,86.524 70.893,83.005C70.82,82.894 70.87,82.682 71.179,82.838C71.923,83.213 79.056,83.222 79.687,83.012Z" style="fill:rgb(239,176,154);fill-rule:nonzero;"/>
        </g>
        <g transform="matrix(1,0,0,1,9,11)">
            <path d="M63.558,77.108C66.26,78.983 72.275,79.66 75.574,79.682C78.789,79.703 84.583,79.135 87.287,77.266C87.33,77.232 87.377,77.286 87.314,77.393C86.686,78.454 82.173,83.937 75.574,83.944C68.61,83.944 64.164,78.301 63.537,77.237C63.483,77.132 63.513,77.076 63.558,77.108Z" style="fill:rgb(247,92,170);fill-rule:nonzero;"/>
        </g>
        <g transform="matrix(1,0,0,1,9,11)">
            <path d="M70.76,79.195C72.811,79.697 78.307,79.858 79.807,79.382C80.041,79.307 80.108,79.425 79.936,79.497C76.077,81.064 71.753,79.684 70.726,79.285C70.599,79.243 70.599,79.153 70.76,79.195Z" style="fill:rgb(255,239,231);fill-rule:nonzero;"/>
        </g>
        <g transform="matrix(1,0,0,1,9,11)">
            <path d="M55.705,41.467C53.065,41.501 46.265,42.322 45.297,45.247C49.686,43.151 54.128,43.372 58.692,44.42C60.709,44.833 64.884,46.693 66.911,45.684C67.094,45.592 67.235,45.432 67.302,45.238L67.461,44.767C67.478,44.718 67.483,44.666 67.477,44.614C67.471,44.562 67.454,44.513 67.427,44.468C67.4,44.424 67.363,44.386 67.32,44.358C67.277,44.329 67.228,44.31 67.177,44.302C63.27,43.674 60.001,41.518 55.705,41.467Z" style="fill:rgb(204,143,125);fill-rule:nonzero;"/>
        </g>
        <g transform="matrix(1,0,0,1,9,11)">
            <path d="M93.395,41.636C89.109,41.823 85.905,44.058 82.038,44.81C81.983,44.821 81.931,44.844 81.886,44.877C81.841,44.909 81.804,44.952 81.777,45C81.75,45.049 81.734,45.103 81.73,45.158C81.725,45.214 81.733,45.27 81.753,45.322L81.895,45.697C81.936,45.81 81.998,45.913 82.08,46C82.161,46.087 82.26,46.157 82.369,46.205C84.44,47.102 88.509,45.144 90.496,44.675C95.026,43.49 99.46,43.136 103.912,45.099C102.854,42.21 96.034,41.593 93.395,41.636Z" style="fill:rgb(204,143,125);fill-rule:nonzero;"/>
        </g>
        <g transform="matrix(1,0,0,1,9,11)">
            <path d="M43.115,69.504C46.225,75.403 35.207,41.247 59.824,35.81C72.588,32.982 93.894,21.709 91.615,17.247C85.041,4.399 23.076,31.486 43.115,69.504Z" style="fill:rgb(255,188,164);fill-rule:nonzero;"/>
        </g>
        <g transform="matrix(1,0,0,1,9,11)">
            <path d="M105.895,77.259C101.47,82.247 113.612,56.336 100.42,35.579C95.459,27.773 86.858,18.938 90.886,16.641C107.534,7.122 125.181,55.526 105.895,77.259Z" style="fill:rgb(255,188,164);fill-rule:nonzero;"/>
        </g>
        <g transform="matrix(1,0,0,1,9,11)">
            <path d="M97.281,6.185C48.672,-17.218 -1.656,28.807 39.513,93.576C40.86,95.691 53.028,106.302 61.423,107.452C67.183,108.243 64.771,106.306 62.299,103.799C41.184,82.409 32.266,43.132 50.056,37.293C80.205,27.397 77.507,14.877 91.342,19.822C94.489,20.947 101.72,8.315 97.281,6.185Z" style="fill:rgb(249,237,237);fill-rule:nonzero;"/>
        </g>
        <g transform="matrix(1,0,0,1,9,11)">
            <path d="M97.283,6.56C93.964,5.932 88.755,17.81 91.343,20.202C128.046,54.259 103.9,92.491 88.693,106.135C86.73,107.894 89.099,108.708 92.938,107.26C95.934,106.135 109.301,101.073 113.642,93.771C130.205,65.888 133.353,13.394 97.283,6.56Z" style="fill:rgb(249,237,237);fill-rule:nonzero;"/>
        </g>
        <g transform="matrix(1,0,0,1,9,11)">
            <path d="M56.742,45.862C53.67,45.862 43.929,45.967 43.506,56.001C43.506,65.822 50.071,70.785 56,70.785C61.929,70.785 69.663,66.454 69.663,56.211C69.663,45.967 56.742,45.862 56.742,45.862Z" style="fill:white;fill-opacity:0.1;fill-rule:nonzero;"/>
        </g>
        <g transform="matrix(1,0,0,1,9,11)">
            <path d="M108.688,49.324L104.381,49.324C103.273,48.296 101.979,47.488 100.57,46.942C98.478,46.123 96.262,45.666 94.016,45.591C92.599,45.591 89.28,45.591 86.295,46.92C82.642,48.549 80.694,51.608 80.509,56.001C80.509,56.365 80.518,56.721 80.535,57.068C80.4,56.648 80.269,55.755 80.361,53.88C80.361,52.286 77.721,51.572 75.103,51.572C72.485,51.572 69.846,52.286 69.846,53.895C69.931,55.583 69.83,56.464 69.71,56.929C69.719,56.691 69.725,56.451 69.725,56.203C69.725,51.891 67.433,48.69 63.096,46.935C61.003,46.116 58.787,45.659 56.542,45.583C55.124,45.583 51.804,45.583 48.821,46.912C47.537,47.461 46.388,48.281 45.45,49.316L41.248,49.316C41.248,49.316 40.295,49.633 41.248,50.741L44.416,50.741C43.574,52.196 43.106,53.948 43.016,55.991C43.016,61.791 45.244,65.318 47.115,67.255C49.441,69.675 52.6,71.061 55.774,71.061C59.173,71.039 62.452,69.792 65.007,67.547C66.933,65.847 69.187,62.847 69.627,57.955C69.667,57.94 69.705,57.921 69.742,57.9C70.283,57.561 70.491,56.246 70.373,53.891C70.373,52.748 72.807,52.129 75.084,52.129C76.22,52.104 77.351,52.27 78.432,52.618C79.062,52.847 79.811,53.252 79.811,53.874C79.694,56.243 79.9,57.557 80.44,57.896C80.488,57.926 80.539,57.948 80.593,57.964C81.028,62.61 82.955,65.556 84.604,67.264C86.925,69.675 90.084,71.061 93.265,71.061C96.664,71.039 99.942,69.792 102.497,67.547C104.641,65.653 107.196,62.149 107.196,56.215C107.196,54.12 106.653,52.286 105.596,50.753L108.688,50.753C109.641,49.641 108.688,49.324 108.688,49.324ZM64.654,67.137C62.198,69.293 59.048,70.492 55.781,70.512C52.748,70.512 49.731,69.19 47.506,66.885C45.707,65.01 43.561,61.617 43.559,56.01C43.735,51.846 45.574,48.954 49.023,47.417C51.901,46.134 55.139,46.134 56.513,46.134C58.694,46.215 60.845,46.659 62.88,47.447C67.043,49.134 69.155,52.082 69.155,56.203C69.169,61.943 66.714,65.316 64.654,67.135L64.654,67.137ZM102.138,67.137C99.681,69.293 96.532,70.491 93.265,70.512C90.23,70.512 87.213,69.19 84.99,66.885C83.189,65.01 81.043,61.617 81.043,56.01C81.219,51.846 83.056,48.954 86.507,47.417C89.383,46.134 92.621,46.134 93.997,46.134C96.178,46.215 98.33,46.658 100.364,47.447C104.529,49.134 106.639,52.082 106.639,56.203C106.651,61.943 104.196,65.316 102.138,67.135L102.138,67.137Z" style="fill:rgb(59,102,255);fill-rule:nonzero;"/>
        </g>
        <path d="M94.224,45.862C91.155,45.862 81.413,45.967 80.988,56.001C80.988,65.822 87.554,70.785 93.484,70.785C99.415,70.785 107.143,66.454 107.143,56.211C107.143,45.967 94.224,45.862 94.224,45.862Z" style="fill:white;fill-opacity:0.1;fill-rule:nonzero;"/>
    </g>
</svg>