<svg xmlns="http://www.w3.org/2000/svg" viewBox="0 0 88.6 87.36"><path d="M.06 67.13v20.25h7.32c5.44 0 10.12-4.37 10.12-9.97-.16-6.23-4.05-10.29-9.5-10.28H.06zm24.44 0-7.78 20.25h4.34l6.07-16.04 5 12.75H26.5v3.28h11.22l-7.94-20.25H24.5zm9.78 0v3.43h6.56v16.81h4.5v-16.8h6.38v-3.44H34.28zm19.16 0v20.25h14v-3.29h-9.66V78.5h8.56v-3.44h-8.56v-4.5h9.19v-3.44H53.44zm14.62 0L76 87.38h4.81l7.78-20.25H77.87v3.43H83l-4.69 12.28-5.75-15.72h-4.5zM4.25 70.56h3.44c3.42 0 5.75 2.49 5.6 6.69-.16 4.36-3.12 6.69-6.7 6.69H4.25V70.56z" style="fill:#00a992;"/><path d="M-20.3 42.77h88.28v-62.45H-20.3v62.45z" style="fill:#96d550;" transform="translate(20.3 19.68)"/></svg>