<svg width="652" height="652" viewBox="0 0 652 652" xmlns="http://www.w3.org/2000/svg" xmlns:xlink="http://www.w3.org/1999/xlink">
    <path id="Path" fill="#ffffff" stroke="none" d="M 326.100006 269.299988 L 276.200012 298.100006 L 276.200012 355.700012 L 326.100006 384.5 L 376 355.700012 L 376 298.100006 L 326.100006 269.299988 Z M 326.100006 269.299988 L 276.200012 298.100006 L 276.200012 355.700012 L 326.100006 384.5 L 376 355.700012 L 376 298.100006 L 326.100006 269.299988 Z"/>
    <path id="path1" fill="#03316c" stroke="none" d="M 345.800018 362 L 338.700012 362 L 330.200012 354.200012 L 330.200012 350.200012 L 339 341.799988 L 339 328.5 L 350.5 321 L 363.600006 330.899994 L 345.800018 362 Z M 316.399994 341 L 317.700012 328.5 L 313.399994 317.299988 L 338.800018 317.299988 L 334.600006 328.5 L 335.800018 341 L 326 341 L 316.399994 341 Z M 322.200012 354.200012 L 313.700012 362.100006 L 306.5 362.100006 L 288.600006 330.899994 L 301.799988 321.100006 L 313.399994 328.5 L 313.399994 341.799988 L 322.200012 350.200012 L 322.200012 354.200012 Z M 306.399994 294.200012 L 345.700012 294.200012 L 350.399994 314.200012 L 301.799988 314.200012 L 306.399994 294.200012 Z M 326.100006 269.299988 L 276.200012 298.100006 L 276.200012 355.700012 L 326.100006 384.5 L 376 355.700012 L 376 298.100006 L 326.100006 269.299988 Z"/>
    <g id="Group">
        <g id="g1">
            <g id="g2"/>
        </g>
    </g>
    <g id="g3">
        <g id="g4">
            <g id="g5"/>
        </g>
    </g>
</svg>
