<svg xmlns="http://www.w3.org/2000/svg" viewBox="0 0 43.66 43.66"><defs><style>.cls-1{fill:#fff;}.cls-2{fill:#63b44b;}.cls-2,.cls-3,.cls-4,.cls-5,.cls-6,.cls-7,.cls-8,.cls-9{fill-rule:evenodd;}.cls-3{fill:#00a9e1;}.cls-4{fill:#9b529b;}.cls-5{fill:#c6c6c6;}.cls-6{fill:#f29c17;}.cls-7{fill:#f9c700;}.cls-8{fill:#eb7d1a;}.cls-9{fill:#e43c2a;}</style></defs><path class="cls-2" d="M22.59,22.68H.77A21.76,21.76,0,0,1,7.16,7.25L22.59,22.68Z" transform="translate(-0.77 -0.85)"/><path class="cls-3" d="M7.16,7.25A21.81,21.81,0,0,1,22.59.85V22.68L7.16,7.25Z" transform="translate(-0.77 -0.85)"/><path class="cls-4" d="M22.6.85A21.84,21.84,0,0,1,44.43,22.68H22.59V.85Z" transform="translate(-0.77 -0.85)"/><path class="cls-5" d="M44.43,22.68h0a21.83,21.83,0,0,1-43.66,0H44.43Z" transform="translate(-0.77 -0.85)"/><path class="cls-6" d="M23.38,44.5H22.6A21.77,21.77,0,0,1,7.16,38.12L22.59,22.68V44.5Z" transform="translate(-0.77 -0.85)"/><path class="cls-7" d="M7.16,38.12A21.77,21.77,0,0,1,.77,22.68H22.59L7.16,38.12Z" transform="translate(-0.77 -0.85)"/><path class="cls-8" d="M38,38.12A21.73,21.73,0,0,1,23.38,44.5h-.79V22.68L38,38.12Z" transform="translate(-0.77 -0.85)"/><path class="cls-9" d="M44.43,22.68h0A21.77,21.77,0,0,1,38,38.12L22.59,22.68Z" transform="translate(-0.77 -0.85)"/></svg>