<svg xmlns="http://www.w3.org/2000/svg" xml:space="preserve" viewBox="0 0 600.00001 176.937"><path fill="#fff" fill-rule="evenodd" d="M542.35081 83.439127c13.02769 0 24.69057 8.56094 28.79386 20.720203h-57.51684c4.02362-12.159263 15.68649-20.720203 28.72298-20.720203zm57.6409 31.204343c0-15.136973-5.89346-29.405353-16.56376-40.261774-10.73236-10.856331-24.87676-16.873961-39.96046-16.873961h-.74447c-15.63322.18614-30.39795 6.389971-41.4493 17.494151-11.04245 11.104681-17.24625 25.807394-17.43242 41.502634-.18598 16.00567 5.95565 31.14248 17.30819 42.61922 11.35285 11.47671 26.37458 17.80448 42.38006 17.80448h.0613c20.96836 0 40.6428-11.22856 51.37512-29.28122l1.36489-2.29537-23.57389-11.6009-1.1788 1.92314c-5.89349 9.73982-16.12959 15.50916-27.48222 15.50916-14.51654 0-27.0568-9.67769-30.90309-23.44978H600v-13.08978ZM452.318 37.221735c-10.28044 0-18.61109-8.330532-18.61109-18.610991 0-10.2803104 8.33065-18.61096077 18.61109-18.61096077 10.28045 0 18.61096 8.33065037 18.61096 18.61096077.008 10.280459-8.33051 18.610991-18.61096 18.610991M438.04954 174.57096h28.54573V59.927176h-28.54573ZM383.4484 2.4103333h28.53686V174.57096H383.4484ZM328.84735 174.57096h28.5457V2.4103333h-28.5457zm-75.0732-25.8871c-17.31703 0-31.40834-14.09121-31.40834-31.40824 0-17.316993 14.09131-31.408344 31.40834-31.408344s31.40808 14.091351 31.40808 31.408344c0 17.31703-14.09106 31.40824-31.40808 31.40824zm0-91.176125c-32.95929 0-59.71467 26.817572-59.71467 59.714705 0 32.89714 26.81751 59.71477 59.71467 59.71477 32.89713 0 59.71468-26.81763 59.71468-59.71477 0-32.906023-26.75547-59.714705-59.71468-59.714705zm-121.85768.18614c-1.55087-.12427-3.03977-.18614-4.59077-.18614-14.39246 0-28.040421 5.893511-37.851231 16.315661-9.801671-10.36013-23.387781-16.315661-37.665162-16.315661-28.536661 0-51.809312 23.201661-51.809312 51.738595v65.32463h27.925322v-64.51819c0-11.848993 9.73988-22.767383 21.216399-23.946203.80658-.0618 1.613101-.124111 2.357601-.124111 12.903561 0 23.449791 10.546351 23.511801 23.450004v65.1385H103.548v-64.6423c0-11.786943 9.67766-22.705373 21.21648-23.884083.80651-.0615 1.61297-.12412 2.35743-.12412 12.9037 0 23.51195 10.48418 23.57396 23.325873v65.32463h28.5457v-64.51819c0-13.089762-4.83884-25.683224-13.58604-35.422854-8.7383-9.801891-20.71137-15.819441-33.73905-16.936041" clip-rule="evenodd"/></svg>