<svg viewBox="91.60745239257812 75.48292541503906 896.7891845703125 893.700927734375" version="1.1" xmlns="http://www.w3.org/2000/svg" xmlns:xlink="http://www.w3.org/1999/xlink" xml:space="preserve" xmlns:serif="http://www.serif.com/" style="fill-rule:evenodd;clip-rule:evenodd;stroke-linejoin:round;stroke-miterlimit:2;">
    <g id="Layer1">
        <g>
            <g transform="matrix(1.00711,0,0,35.5179,-6.00163,-17934.4)">
                <ellipse cx="542.149" cy="519.646" rx="445.229" ry="12.581" style="fill:url(#_Linear1);"></ellipse>
            </g>
            <g>
                <g transform="matrix(57.5549,0,0,7.11481,-17541.3,-4292.75)">
                    <rect x="309.603" y="702.201" width="9.066" height="5.036" style="fill:url(#_Linear2);"></rect>
                </g>
                <g transform="matrix(16.5936,0,0,16.5936,-464.202,-4397.14)">
                    <path d="M44.317,303.099L44.317,283.67L52.298,283.67L52.298,286.119L47.857,286.119L47.857,291.767L51.407,291.767L51.407,294.264L47.857,294.264L47.857,303.099L44.317,303.099Z" style="fill:white;fill-rule:nonzero;"></path>
                    <path d="M59.06,303.334C55.638,303.334 53.841,301.357 53.669,297.404L56.751,296.76C56.829,299.33 57.564,300.615 58.954,300.615C59.493,300.615 59.894,300.451 60.155,300.123C60.417,299.795 60.548,299.353 60.548,298.799C60.548,298.26 60.45,297.765 60.255,297.316C60.06,296.867 59.833,296.5 59.575,296.215C59.317,295.93 58.95,295.576 58.474,295.154L55.919,292.939C55.169,292.283 54.61,291.601 54.243,290.894C53.876,290.187 53.692,289.303 53.692,288.24C53.692,286.732 54.136,285.56 55.023,284.724C55.909,283.889 57.126,283.463 58.673,283.447C59.384,283.439 60.013,283.527 60.56,283.711C61.107,283.894 61.558,284.14 61.913,284.449C62.269,284.758 62.566,285.142 62.804,285.603C63.042,286.064 63.22,286.543 63.337,287.039C63.454,287.535 63.536,288.088 63.583,288.697L60.56,289.295C60.544,288.904 60.519,288.564 60.483,288.275C60.448,287.986 60.388,287.693 60.302,287.396C60.216,287.099 60.105,286.859 59.968,286.676C59.831,286.492 59.648,286.346 59.417,286.236C59.187,286.127 58.919,286.084 58.614,286.107C58.091,286.139 57.691,286.312 57.413,286.629C57.136,286.945 56.997,287.369 56.997,287.9C56.997,288.525 57.12,289.039 57.366,289.441C57.612,289.844 57.997,290.275 58.521,290.736L61.052,292.939C61.474,293.322 61.841,293.693 62.153,294.053C62.466,294.412 62.765,294.822 63.05,295.283C63.335,295.744 63.552,296.252 63.7,296.806C63.849,297.361 63.923,297.947 63.923,298.564C63.923,299.978 63.476,301.127 62.581,302.01C61.687,302.892 60.513,303.334 59.06,303.334Z" style="fill:white;fill-rule:nonzero;"></path>
                    <path d="M69.501,296.279L72.103,296.279L70.802,288.299L69.501,296.279ZM64.989,303.099L68.939,283.67L72.63,283.67L76.567,303.099L73.274,303.099L72.489,298.588L69.126,298.588L68.329,303.099L64.989,303.099Z" style="fill:white;fill-rule:nonzero;"></path>
                </g>
            </g>
        </g>
    </g>
    <defs>
        <linearGradient id="_Linear1" x1="0" y1="0" x2="1" y2="0" gradientUnits="userSpaceOnUse" gradientTransform="matrix(890.459,0,0,25.1614,96.9195,519.646)"><stop offset="0" style="stop-color:rgb(21,51,62);stop-opacity:1"></stop><stop offset="1" style="stop-color:rgb(50,78,98);stop-opacity:1"></stop></linearGradient>
        <linearGradient id="_Linear2" x1="0" y1="0" x2="1" y2="0" gradientUnits="userSpaceOnUse" gradientTransform="matrix(9.06598,0,0,5.03577,309.603,704.718)"><stop offset="0" style="stop-color:rgb(97,169,47);stop-opacity:1"></stop><stop offset="1" style="stop-color:rgb(96,167,48);stop-opacity:1"></stop></linearGradient>
    </defs>
</svg>