<svg viewBox="91.60745239257812 75.48292541503906 896.7891845703125 893.700927734375" version="1.1" xmlns="http://www.w3.org/2000/svg" xmlns:xlink="http://www.w3.org/1999/xlink" xml:space="preserve" xmlns:serif="http://www.serif.com/" style="fill-rule:evenodd;clip-rule:evenodd;stroke-linejoin:round;stroke-miterlimit:2;">
    <g id="Layer1">
        <g transform="matrix(1.00711,0,0,35.5179,-6.00163,-17934.4)">
            <ellipse cx="542.149" cy="519.646" rx="445.229" ry="12.581" style="fill:url(#_Linear1);"></ellipse>
        </g>
        <g>
            <path d="M322.429,475.914L322.429,632.168L264.586,632.168L264.586,302.19L322.41,302.19L322.41,302.168L399.607,302.168L399.607,340.76L322.429,340.76L322.429,439.17L399.62,439.17L399.62,475.914L322.429,475.914ZM544.157,398.04C544.157,398.04 545.028,372.371 537.764,360.6C530.5,348.829 522.145,346.675 522.145,346.675C522.145,346.675 509.593,342.264 494.85,351.157C486.427,356.237 481.827,374.043 484.425,388.99C486.375,400.202 495.753,410.349 495.753,410.349C495.753,410.349 511.893,425.062 529.881,441.428C540.305,450.911 556.71,463.579 569.708,478.465C579.142,489.269 588.453,504.638 588.453,504.638C588.453,504.638 608.15,542.394 593.337,583.807C574.815,635.589 517.761,632.119 517.761,632.119C517.761,632.119 482.599,632.693 462.385,616.173C427.336,587.53 429.734,533.391 429.734,533.391L480.834,524.719C479.494,555.255 489.985,579.476 504.325,586.122C506.26,587.087 516.464,590.065 524.971,587.784C531.603,586.005 536.751,579.298 538.524,576.819C542.493,571.267 543.917,556.605 543.903,551.671C543.871,540.475 539.466,532.046 539.466,532.046C532.053,517.674 521.07,506.959 506.587,493.71C493.761,481.979 478.328,468.117 458.199,450.101C429.003,423.97 429.731,381.455 429.731,381.455C429.731,381.455 428.614,343.968 450.778,324.77C478.86,300.447 515.504,302.195 515.504,302.195C515.504,302.195 546.678,303.838 563.757,317.113C589.994,337.507 594.135,389.865 594.135,389.865L544.157,398.04ZM615.736,632.156L681.342,302.172L746.945,302.168L812.566,632.168L756.616,632.166L745.025,554.969L685.195,554.967L673.615,632.161L615.736,632.156ZM715.039,376.287L692.011,516.402L738.046,516.387L715.039,376.287Z" style="fill:white;"></path>
            <g transform="matrix(57.5549,0,0,7.11481,-17541.5,-4292.75)">
                <rect x="309.603" y="702.201" width="9.066" height="5.036" style="fill:url(#_Linear2);"></rect>
            </g>
        </g>
    </g>
    <defs>
        <linearGradient id="_Linear1" x1="0" y1="0" x2="1" y2="0" gradientUnits="userSpaceOnUse" gradientTransform="matrix(890.459,0,0,25.1614,96.9195,519.646)"><stop offset="0" style="stop-color:rgb(21,51,62);stop-opacity:1"></stop><stop offset="1" style="stop-color:rgb(50,78,98);stop-opacity:1"></stop></linearGradient>
        <linearGradient id="_Linear2" x1="0" y1="0" x2="1" y2="0" gradientUnits="userSpaceOnUse" gradientTransform="matrix(9.06598,0,0,5.03577,309.603,704.718)"><stop offset="0" style="stop-color:rgb(97,169,47);stop-opacity:1"></stop><stop offset="1" style="stop-color:rgb(96,167,48);stop-opacity:1"></stop></linearGradient>
    </defs>
</svg>