<svg version="1.1" id="Layer_1" xmlns="http://www.w3.org/2000/svg" xmlns:xlink="http://www.w3.org/1999/xlink" x="0px" y="0px"
	 viewBox="-10 -10 1350 1350" stroke="#3EA11B" stroke-width="10" style="enable-background:new 0 0 1306.8 1306.8;" xml:space="preserve">
<style type="text/css">
	.st0{display:none;fill:#FFFFFF;}
	.st1{fill:#FFFFFF;}
	.st2{fill:#3EA11B;}
</style>
<g>
	<path id="Up" class="st0" d="M1117.4,1114.9c254-257.6,251-672.4-6.6-926.3c-238.2-234.8-615-252.5-874.1-41
		c-48.9-21.7-89.7-58.4-116.3-104.8C105.2,12.4,68.2,0,37.8,15.3c-17.6,8.8-30,25.6-33.2,45C2,77.7,0.7,95.2,0.7,112.7
		C1.5,195.6,28.6,276,78,342.5c-136.6,254.4-90.6,568.3,113.5,772.7c255.8,255.5,670.2,255.5,926,0"/>
	<path id="Down" class="st1" d="M1114.2,188.7C856.7-65.5,442.3-62.5,188.5,195.3c-234.6,238.4-252.3,615.5-41,874.8
		c-21.7,49-58.4,89.8-104.7,116.4c-30.4,15.3-42.6,52.3-27.4,82.7c8.9,17.7,25.7,30,45.2,33.2c17.3,2.6,34.8,3.9,52.4,3.9
		c82.7-0.9,163-27.9,229.4-77.4c254.4,136.6,568.1,90.1,772.2-114.3c255.4-256,255.4-670.8,0-926.8"/>
	<g>
		<path class="st2" stroke="green" stroke-width="4" d="M970.3,386.2c-9.8-20.6-23.5-39.1-40.2-54.5c40.8-3.4,76.7-28.2,94.4-65.1c9.6-19.9,14.8-41.6,15.4-63.7
			v-25.2H808.2c-65.1-0.2-125.4,34.2-158.4,90.3c-32.9-56-93-90.4-158-90.3H260.2v25.2c0.8,22.1,6.1,43.8,15.7,63.7
			c17.9,36.9,53.9,61.6,94.7,65.1c-15,14.8-27.3,32-36.6,50.8C262.3,451,221,545.6,219.6,644.8c0.5,105.9,46.8,206.3,126.9,275.5
			c10.2,9.1,20.5,17.9,31.5,26c-21.5,70.5,18.2,145.2,88.7,166.7c67.1,20.5,138.7-14.5,163.7-80H667c18.9,53.1,69.1,88.5,125.5,88.5
			c14.8,0,29.5-2.3,43.5-7c34.3-11,62.7-35.4,78.7-67.7c15.3-31.6,17.3-67.9,5.5-101c10.8-8,21.2-16.5,31.1-25.6
			c79.8-69.3,125.9-169.6,126.5-275.4C1077.4,547.8,1038.8,454.9,970.3,386.2z M650.5,565.8l53.8,53.8l-53.8,54.1l-54.1-54.1
			L650.5,565.8z M363.4,463.8c0-82.4,76.1-147,161.8-127.4c47.3,10.8,85.8,49.3,96.6,96.6c19.6,85.7-45,161.8-127.4,161.8l0,0
			C422.1,594.5,363.6,536,363.4,463.8z M541.9,1061.9c-19.8,9.8-42.7,11.4-63.7,4.4c-20.8-7.3-38-22.4-47.9-42.1
			c-7.3-15.4-9.9-32.5-7.7-49.4c48.1,26.9,100.6,44.9,155.1,53C569.5,1042.6,557,1054.5,541.9,1061.9z M868.2,1025.3
			c-9.7,20-26.9,35.3-47.9,42.4c-20.8,6.9-43.5,5.5-63.3-4c-15.9-7.9-28.7-20.7-36.6-36.6c54.5-7.8,107.1-25.7,155.1-52.7
			c3.1,17.1,0.5,34.7-7.3,50.1V1025.3z M658.6,982.5h-15.7c-139.7-3.3-252.4-97.7-252.4-212.9c0.8-49.6,21.1-96.9,56.3-131.7
			c15.8,4.4,32.2,6.7,48.7,6.6c16.7-0.1,33.3-2.4,49.4-7l106.8,106.8l106.5-106.8c16.1,4.6,32.7,6.9,49.4,7c16.1,0,32-2.1,47.6-6.2
			c34.9,34.9,54.8,82,55.6,131.3C909.6,885.2,797.2,979.6,658.6,982.5z M804.9,594.7c-82.4,0-147-76.1-127.4-161.8
			c10.8-47.3,49.3-85.8,96.6-96.6c85.7-19.6,161.8,45,161.8,127.4l0,0C935.7,536,877.2,594.5,804.9,594.7z"/>
		<path class="st2" d="M492.5,503.6c23,0.2,41.9-18.3,42.1-41.3s-18.3-41.9-41.3-42.1s-41.9,18.3-42.1,41.3c0,0.1,0,0.2,0,0.4
			C451.2,484.8,469.6,503.4,492.5,503.6"/>
		<path class="st2" d="M804.9,420.2c-23,0-41.7,18.7-41.7,41.7s18.7,41.7,41.7,41.7s41.7-18.7,41.7-41.7l0,0
			C846.6,438.9,828,420.2,804.9,420.2"/>
	</g>
	<g>
		<path class="st2" d="M966.4,1057.2c-3.2-7.4-4.7-15.1-4.7-23.1s1.6-15.7,4.7-23.1c3.2-7.4,7.4-13.7,12.8-19
			c5.4-5.3,11.7-9.6,19-12.7c7.3-3.2,15-4.7,23.1-4.7c8.1,0,15.8,1.6,23.1,4.7c7.3,3.2,13.7,7.4,19,12.7c5.4,5.3,9.6,11.7,12.7,19
			c3.1,7.4,4.7,15.1,4.7,23.1s-1.6,15.7-4.7,23.1c-3.1,7.4-7.4,13.7-12.7,19c-5.4,5.3-11.7,9.6-19,12.7c-7.3,3.2-15,4.7-23.1,4.7
			c-8.1,0-15.8-1.6-23.1-4.7c-7.3-3.2-13.7-7.4-19-12.7C973.8,1070.9,969.6,1064.6,966.4,1057.2z M980.7,1010.2
			c-4.2,7.2-6.3,15.1-6.3,23.6s2.1,16.4,6.3,23.6c4.2,7.2,9.9,12.9,17.1,17.1c7.2,4.2,15.1,6.3,23.5,6.3c8.5,0,16.3-2.1,23.5-6.3
			c7.2-4.2,12.9-9.9,17.1-17.1s6.3-15.1,6.3-23.6s-2.1-16.4-6.3-23.6c-4.2-7.2-9.9-12.9-17.1-17.1c-7.2-4.2-15.1-6.3-23.5-6.3
			c-8.5,0-16.3,2.1-23.5,6.3S984.9,1003,980.7,1010.2z M1000.6,1064.5v-62h26.4c9.2,0,15.1,4.2,17.9,12.7c0.6,1.9,1,4.2,1,6.7
			c0,2.5-0.9,5.7-2.7,9.6c-1.8,3.9-4.5,6.5-8.1,7.8l10.9,25.3h-14.1l-11.3-24.7h-7.4v24.7L1000.6,1064.5L1000.6,1064.5z
			 M1023.6,1028.6c5.7,0,8.5-2.6,8.5-7.9c0-2.6-1-4.4-3-5.3c-2-0.9-5.2-1.4-9.6-1.4h-6.4v14.6H1023.6z"/>
	</g>
</g>
</svg>
