<?xml version="1.0" encoding="utf-8"?>
<!-- Generator: Adobe Illustrator 26.0.1, SVG Export Plug-In . SVG Version: 6.00 Build 0)  -->
<svg version="1.1"
	 id="svg8" inkscape:version="1.0 (4035a4fb49, 2020-05-01)" sodipodi:docname="Assetto Corsa.svg" xmlns:cc="http://creativecommons.org/ns#" xmlns:dc="http://purl.org/dc/elements/1.1/" xmlns:inkscape="http://www.inkscape.org/namespaces/inkscape" xmlns:rdf="http://www.w3.org/1999/02/22-rdf-syntax-ns#" xmlns:sodipodi="http://sodipodi.sourceforge.net/DTD/sodipodi-0.dtd" xmlns:svg="http://www.w3.org/2000/svg"
	 xmlns="http://www.w3.org/2000/svg" xmlns:xlink="http://www.w3.org/1999/xlink" x="0px" y="0px" viewBox="0 0 370 370"
	 style="enable-background:new 0 0 370 370;" xml:space="preserve">
<style type="text/css">
	.st0{fill:#FC0000;}
	.st1{fill:#21211F;}
</style>
<g id="layer1" transform="translate(-1.3787272,-113.29179)" inkscape:groupmode="layer" inkscape:label="Calque 1">
	<path id="rect24" sodipodi:nodetypes="ccccccccc" class="st0" d="M370.6,211.4L255.9,325.7v-40.5l-59.8,59.6v40.8h65.2l109.6-109.3
		v-65H370.6z"/>
	<path id="rect24-6-7-5" class="st0" d="M306.4,146.2L196.1,256.2v65.3c0,0,70.7-70.5,110.3-109.9V146.2z"/>
	<path id="rect24-6-7" sodipodi:nodetypes="ccccccc" class="st1" d="M176.6,210.8L1.8,385v65.3c0,0,76.7-76.4,115-114.7v65
		l59.7-59.6V210.8z"/>
	<path id="path13" sodipodi:nodetypes="ccccccccccccc" class="st1" d="M57.5,439.9v10h9.3v-44.8H56l-18.6,44.8h9.7l4.1-10H57.5z
		 M53.6,432.2l4.5-12.1v12.1H53.6z"/>
	<path id="path15" class="st1" d="M88.6,404.7c-9.3,0-15.6,6-15.6,14.9c0,3.8,1.7,7.4,5.3,10.8c2.8,2.7,4.4,4.1,4.4,6.8
		c0,3.1-2.6,4.6-5.8,4.5c-2.4,0-4.8-0.7-6.3-1.5v9.4c1.5,0.4,3.7,0.7,6.6,0.7c8.6,0,15.4-5.3,15.4-15.1c0-3.3-1.5-7.2-5.4-10.6
		c-3.9-3.3-4.4-4.6-4.4-6.3c0-3.1,2.3-4.9,5.4-4.9c2,0,3.5,0.5,4.8,1.2c0.6-2,1.2-6.2,1.5-9C93.4,405.1,91.4,404.7,88.6,404.7
		L88.6,404.7z"/>
	<path id="path19" class="st1" d="M141.5,422.5H132l1.9-8.8h9.7l1.7-8.6h-19.7l-8.6,44.8h20.5l1.7-8.7h-10.8l2.1-10.4h9.4
		L141.5,422.5z"/>
	<path id="path21" class="st1" d="M147.9,405.1l-1.7,8.6h7.7l-7,36.1h9.8l7-36.1h7.3h0.3l1.7-8.6H147.9z"/>
	<path id="path25" class="st1" d="M215.5,404.5c-4.2,0-7.5,1.7-10.2,4.3c-6.1,6-9.1,17.3-9.1,26.7c0,4.9,1.5,14.8,11.5,14.8
		c4.1,0,7.5-1.5,10.3-4.4c5.8-6,8.8-17.3,8.8-27.2C226.8,413.5,225.4,404.5,215.5,404.5L215.5,404.5z M214.2,413.1
		c2.3,0,2.7,2.8,2.7,4.5c0,4.8-1.7,19.1-5.7,23.1c-0.6,0.7-1.4,1.1-2.1,1.1c-2.7,0-3-3.1-3-5c0-6.6,2.1-18.7,5.8-22.5
		C212.6,413.5,213.4,413.1,214.2,413.1L214.2,413.1z"/>
	<path id="path27" sodipodi:nodetypes="scssccsscsccs" class="st1" d="M258.4,404.7c-4.9,0-9.9,1.7-13.9,5.7
		c-4.8,4.9-8.6,13-8.6,24.7c0,4.3,1.4,15.1,13.6,15.1c2.2,0,4-0.2,5.3-0.5l1.6-9.2c-1.2,0.5-3.3,0.9-4.7,0.7
		c-3.9-0.3-5.3-3.1-5.3-8.2c0-7,2-12.4,4.6-15.9c1.7-2.2,4.1-3.5,6-3.6c2.2-0.1,3.5,0.5,4.3,0.9l1.8-9
		C262.2,405,260.3,404.7,258.4,404.7z"/>
	<path id="path31" class="st1" d="M308,404.9c-3.1,0-6.4,0.3-9.4,0.9l-8.2,44.1h9.3l3.1-17.2h1c1.8,0,2.6,0.9,2.6,2.4v14.8h0.7h3.7
		h5.1v-5.2v-3.3v-3.9c0-4.5-0.3-6.2-2.7-8.1V429c4.8-1.7,8.2-7.3,8.2-13.4c0-3.1-1.2-5.7-3-7.6C315.9,405.5,311.9,404.9,308,404.9z
		 M308.5,412.9c2.3,0,2.9,2.3,2.9,4c0,3.7-1.9,7.6-5.2,7.6h-1.5l2-11.4C307.2,413,307.8,412.9,308.5,412.9L308.5,412.9z"/>
	<path id="path15-7" class="st1" d="M112.4,404.7c-9.3,0-15.6,6-15.6,14.9c0,3.8,1.7,7.4,5.3,10.8c2.8,2.7,4.4,4.1,4.4,6.8
		c0,3.1-2.6,4.6-5.8,4.5c-2.4,0-4.8-0.7-6.3-1.5v9.4c1.5,0.4,3.7,0.7,6.6,0.7c8.6,0,15.4-5.3,15.4-15.1c0-3.3-1.5-7.2-5.4-10.6
		c-3.9-3.3-4.4-4.6-4.4-6.3c0-3.1,2.3-4.9,5.4-4.9c2,0,3.5,0.5,4.8,1.2c0.6-2,1.2-6.2,1.5-9C117.1,405.1,115.2,404.7,112.4,404.7
		L112.4,404.7z"/>
	<path id="path21-2" class="st1" d="M174.9,405.1l-1.7,8.6h7.7l-7,36.1h9.8l7-36.1h7.3h0.3l1.7-8.6H174.9z"/>
	<path id="path25-0" class="st1" d="M280.2,404.5c-4.2,0-7.5,1.7-10.2,4.3c-6.1,6-9.1,17.3-9.1,26.7c0,4.9,1.5,14.8,11.5,14.8
		c4.1,0,7.5-1.5,10.3-4.4c5.8-6,8.8-17.3,8.8-27.2C291.5,413.5,290.2,404.5,280.2,404.5L280.2,404.5z M279,413.1
		c2.3,0,2.7,2.8,2.7,4.5c0,4.8-1.7,19.1-5.7,23.1c-0.6,0.7-1.4,1.1-2.1,1.1c-2.7,0-3-3.1-3-5c0-6.6,2.1-18.7,5.8-22.5
		C277.3,413.5,278.1,413.1,279,413.1L279,413.1z"/>
	<path id="path15-7-5" class="st1" d="M339,404.7c-9.3,0-15.6,6-15.6,14.9c0,3.8,1.7,7.4,5.3,10.8c2.8,2.7,4.4,4.1,4.4,6.8
		c0,3.1-2.6,4.6-5.8,4.5c-2.4,0-4.8-0.7-6.3-1.5v9.4c1.5,0.4,3.7,0.7,6.6,0.7c8.6,0,15.4-5.3,15.4-15.1c0-3.3-1.5-7.2-5.4-10.6
		c-3.9-3.3-4.4-4.6-4.4-6.3c0-3.1,2.3-4.9,5.4-4.9c2,0,3.5,0.5,4.8,1.2c0.6-2,1.2-6.2,1.5-9C343.7,405.1,341.8,404.7,339,404.7z"/>
	<path id="path13-4" sodipodi:nodetypes="ccccccccccccc" class="st1" d="M361.6,439.9v10h9.3v-44.8h-10.9l-18.6,44.8h9.7l4.1-10
		H361.6z M357.7,432.2l4.5-12.1v12.1H357.7z"/>
</g>
</svg>
