<svg xmlns="http://www.w3.org/2000/svg" viewBox="0 0 256 295"><g fill="none"><path d="M84.79 47.571C33.31 69.438.91 112.32.91 167.417c0 70.416 57.083 127.501 127.502 127.501 70.416 0 127.501-57.085 127.501-127.501 0-84.663-78.663-118.32-78.663-118.32s-17.182-7.135-26.789-13.54c0 0-12.137-7.417-33.292-34.724 0 0 .48 31.026-32.378 46.74" fill="#136DA9"/><path d="M115.653 270.238c-4.478-3.112-3.413-13.022 8.722-5.942 0 0 25.84 18.977 66.751-3.792 3.181-1.77 7.08 4.475-3.034 10.2 0 0-41.34 21.152-72.439-.466z" fill="#F0F0F0"/><path d="M115.653 270.238c-4.478-3.112-3.413-13.022 8.722-5.942 0 0 25.84 18.977 66.751-3.792 3.181-1.77 7.08 4.475-3.034 10.2 0 0-41.34 21.152-72.439-.466h0z" stroke="#FFFDFF"/><path d="M168.37 238.76c15.045 1.762 9.872 8.996 13.908 10.112 8.216 2.277 4.677-6.7 4.677-6.7-6.07-12.136-16.562-11.377-16.562-11.377-16.434-2.529-28.697 13.148-28.697 13.148-3.035 6.699 1.21 7.044 2.78 6.321 7.965-3.667 12.81-12.805 23.894-11.504z" fill="#F0F0F0"/><path d="M168.37 238.76c15.045 1.762 9.872 8.996 13.908 10.112 8.216 2.277 4.677-6.7 4.677-6.7-6.07-12.136-16.562-11.377-16.562-11.377-16.434-2.529-28.697 13.148-28.697 13.148-3.035 6.699 1.21 7.044 2.78 6.321 7.965-3.667 12.81-12.805 23.894-11.504h0z" stroke="#FFFDFF"/><path d="M17.597 231.53s45.717 37.824 156.968-46.44c0 0 55.879-35.079 54.195-95.224 0 0-18.082-25.988-48.594-39.39-4.34-1.907-42.467-22.711-63.057-48.8 0 0-3.732 75.685-100.67 105.565 0 0-24.427 36.028-11.11 94.584 0 0 8.523 23.74 12.268 29.706" fill="#008ECE"/><path d="M90.115 245.587s-37.927 1.01-33.375-39.445c0 0 7.922-45.512 61.187-35.398 0 0 11.633 2.528 33.377 19.216 0 0 14.349 11.062 22.25 10.854 0 0 6.131.587 18.88-7.482 0 0 25.999-20.063 35.088-19.468.226.015 18.345-1.981 18.345 27.222 0 0 .336 32.196-23.935 42.983 0 0-6.406 2.191-13.318-5.057 0 0-19.89-22.587-29.667-26.296 0 0-5.646-2.212-13.148.506 0 0-4.888.506-24.945 13.822 0 0-33.715 21.07-50.739 18.543z" fill="#F0F0F0"/><path d="M90.115 245.587s-37.927 1.01-33.375-39.445c0 0 7.922-45.512 61.187-35.398 0 0 11.633 2.528 33.377 19.216 0 0 14.349 11.062 22.25 10.854 0 0 6.131.587 18.88-7.482 0 0 25.999-20.063 35.088-19.468.226.015 18.345-1.981 18.345 27.222 0 0 .336 32.196-23.935 42.983 0 0-6.406 2.191-13.318-5.057 0 0-19.89-22.587-29.667-26.296 0 0-5.646-2.212-13.148.506 0 0-4.888.506-24.945 13.822 0 0-33.715 21.07-50.739 18.543h0z" stroke="#FFFDFF"/><path d="M110.174 100.454c24.555-35.171 6.935-99.79 6.935-99.79-2.167 35.06-31.747 46.63-31.747 46.63-52.964 22.86-68.923 58.935-68.923 58.935 11.35 16.095 41.48 69.065 93.735-5.775" fill="#008ECE"/><path d="M117.109.664s3.178 29.5-12.835 39.107c0 0-25.681 11.954-33.52 15.873 0 0-32.979 19.905-43.85 38.614 0 0-23.262 31.128 8.85 23.769 0 0 58.07-16.394 81.67-65.867 0 0 1.389-4.171-3.037-8.47 0 0 17.701-13.358 2.722-43.026" fill="#A0D8F1"/><path d="M117.109.664s1.324 20.144-15.398 36.834c0 0-5.022 7.077-30.957 18.146 0 0-29.69 15.48-43.001 36.948 0 0-19.727 23.796 7.323 17.416 0 0 54.809-20.199 74.892-57.29 0 0 2.717-3.898-1.418-7.914 0 0 19.663-15.357 8.559-44.14" fill="#F0F0F0"/></g></svg>