<svg version="1.1" id="layer" xmlns="http://www.w3.org/2000/svg" xmlns:xlink="http://www.w3.org/1999/xlink" x="0px" y="0px"
	 viewBox="0 0 652 652" style="enable-background:new 0 0 652 652;" xml:space="preserve">
<style type="text/css">
	.st0{fill:#009C82;}
</style>
<path class="st0" d="M101.1,379.2l42.3-108.1h25.7l42.3,108.1h-24.2l-11.3-28.7h-44.6L120,379.2H101.1z M135.9,336.1h34L153.2,293
	C153.2,293,135.9,336.1,135.9,336.1z M21,378.4v-18.9c8.3,3.8,15.1,6,18.9,6c4.5,0.8,8.3,0.8,11.3,0.8c6,0,11.3-1.5,14.4-4.5
	c3-3,4.5-6,4.5-9.8c0-3-0.8-6-2.3-8.3c-1.5-2.3-6-5.3-12.8-9.1l-7.6-3.8c-10.6-6-17.4-11.3-21.2-15.9c-3.8-5.3-5.3-10.6-5.3-17.4
	c0-8.3,3-15.1,9.1-21.2s15.1-9.1,27.2-9.1c9.1,0,18.9,1.5,29.5,3.8v17.4c-11.3-3-20.4-5.3-26.4-5.3c-5.3,0-9.8,1.5-12.1,3.8
	c-3,2.3-4.5,5.3-4.5,8.3c0,2.3,0.8,5.3,2.3,6.8c1.5,2.3,6,5.3,12.8,9.1l7.6,4.5c12.1,6.8,19.6,12.8,22.7,17.4
	c3.8,5.3,5.3,10.6,5.3,16.6c0,9.1-3,16.6-9.8,22.7c-6.8,6-17.4,9.1-32.5,9.1C42.9,382.2,33.1,380.7,21,378.4z M357.3,379.2V271.1
	h22.7v108.1H357.3z M457,382.2c-11.3,0-21.2-2.3-29.5-6.8c-8.3-4.5-14.4-11.3-18.9-20.4c-4.5-9.1-6.8-18.9-6.8-29.5
	c0-11.3,2.3-21.2,6.8-29.5c4.5-8.3,10.6-15.9,18.9-20.4c8.3-4.5,18.1-6.8,29.5-6.8c11.3,0,21.2,2.3,29.5,6.8s15.1,11.3,18.9,20.4
	c4.5,9.1,6.8,18.9,6.8,29.5c0,11.3-2.3,21.2-6.8,29.5c-4.5,9.1-10.6,15.1-18.9,20.4C478.2,379.9,468.4,382.2,457,382.2z M457,367.1
	c10.6,0,18.1-4.5,23.4-12.8c5.3-8.3,7.6-18.1,7.6-29.5c0-11.3-2.3-21.2-7.6-29.5s-12.8-12.1-23.4-12.1c-10.6,0-18.1,4.5-23.4,12.8
	c-5.3,8.3-7.6,18.1-7.6,29.5c0,11.3,2.3,20.4,7.6,29.5C438.9,362.6,446.4,367.1,457,367.1z M534.9,379.2V271.1H556l47.6,71v-71H621
	v108.1h-18.9l-49.9-74.1v74.1C552.2,379.2,534.9,379.2,534.9,379.2z M231.8,286.2c-6,15.1-9.8,31.7-9.8,48.4c0,10.6,1.5,21.2,3.8,31
	l39.3-39.3C265.1,326.3,231.8,286.2,231.8,286.2z M351.2,204.6c-18.1,0-37.8,4.5-54.4,12.8c-24.9-25.7-57.4-40.1-92.2-40.1h-0.8
	v21.9h0.8c26.4,0,52.1,10.6,71,29.5l0.8,0.8h-0.8c-15.1,11.3-28,24.9-37,41.6h12.1l31,37l26.4-26.4h-9.1v-10.6h26.4
	c-3-12.1-8.3-24.2-15.9-34.8v-0.8h0.8c12.8-5.3,27.2-8.3,40.1-8.3h6v-22.7H351.2z M293.8,321.8l27.2,32.5
	c6.8-15.1,9.8-32.5,9.8-49.1c0-6.8-0.8-12.8-1.5-18.9C329.3,286.2,293.8,321.8,293.8,321.8z M351.2,442.7c-28,0-55.9-12.1-75.6-32.5
	l-0.8-0.8h0.8c12.8-9.1,23.4-19.6,32.5-31.7l-31.7-37.8l-30.2,31h9.1v9.1h-24.9c3,7.6,6.8,15.1,10.6,22.7v0.8h-0.8
	c-11.3,4.5-23.4,6.8-36.3,6.8h-0.8v21.9h0.8c17.4,0,34-3.8,49.9-10.6c25.7,26.4,61.2,43.1,97.5,43.1h6v-21.9H351.2z"/>
</svg>
