<svg version="1.1" id="wealthsimple" xmlns="http://www.w3.org/2000/svg" xmlns:xlink="http://www.w3.org/1999/xlink" x="0px"
	 y="0px" viewBox="0 40 200 120" style="enable-background:new 0 0 200 200;" xml:space="preserve">
<style type="text/css">
	.ws{fill-rule:evenodd;clip-rule:evenodd;fill:#444444;}
</style>
<path class="ws" d="M153.8,41.7v1.5c4.2,1,7.9,3.5,10.3,7c2.6,4.5,3.8,9.6,3.5,14.7c0,6.7-1,13.5-3.1,19.9
	c-2.4,7.5-5.4,14.8-8.9,21.8l-4.2,9.1l-20.4-49.6c-1-2.4-1.8-4.8-2.5-7.3c-0.5-1.9-0.9-3.8-1-5.8c-0.2-5.1,3.8-9.5,8.9-9.7
	c0,0,0,0,0,0v-1.4H75v1.5c2.1,0.4,4.1,1.1,6,2.1c1.9,1.3,3.5,3,4.8,5c2.1,3.4,3.9,6.9,5.4,10.5l9.6,22.9l-17.4,34.3L57.5,58.2
	c-0.7-1.2-1.2-2.5-1.6-3.8c-0.2-0.9-0.3-1.9-0.4-2.9c0-1.8,0.6-3.6,1.9-5c1.5-1.6,3.4-2.8,5.5-3.5v-1.3H0v1.5
	c5.1,1.6,9.7,4.4,13.4,8.2c4.9,5.6,8.8,11.9,11.8,18.7L65,158.5h1.6l35.8-71l30.6,71h1.6l36.4-78.7c3.9-9,8.7-17.4,14.5-25.3
	c3.8-4.9,8.7-8.9,14.3-11.6v-1.4h-46.2V41.7z"/>
</svg>
