<svg viewBox="0 0 180 180" xmlns="http://www.w3.org/2000/svg" stroke-miterlimit="2" stroke-linejoin="round" clip-rule="evenodd" fill-rule="evenodd">
 <g>
  <path d="m90,180c-49.72376,0 -90,-40.27624 -90,-90c0,-49.72376 40.27624,-90 90,-90c49.72376,0 90,40.27624 90,90c0,49.72376 -40.27624,90 -90,90z" opacity="1" fill="#016297"/>
  <g>
   <path fill-rule="nonzero" fill="#a5cae4" d="m62.4665,90.6865l10.368,-16.752l9.81,0l-15.783,22.911m-2.445,3.523l20.401,29.722l-9.81,0l-14.862,-22.673l-14.919,22.673l-9.81,0l20.383,-29.371l-18.268,-26.785l9.868,0l12.746,20.501"/>
   <g>
    <path fill-rule="nonzero" fill="#ffffff" d="m104.4625,85.5645l0,-28.018l40.121,0l0,-7.637l-49.167,0l0,43.292l46.85,0c0.258,-2.936 0.663,-5.474 1.204,-7.637l-39.008,0z"/>
    <path d="m95.4165,97.1365l9.046,0l0,32.954l-9.046,0l0,-32.954z" fill="#ffffff"/>
   </g>
  </g>
 </g>
</svg>