<svg xmlns="http://www.w3.org/2000/svg" viewBox="0 -0.01 37.58 32.81"><g stroke-width=".265"><path d="M10.588 28.438v-4.366h8.731v8.732h-8.731zM.005 16.532v-4.366h8.731v8.732H.005zm10.583.02v-4.386h19.579v4.205c0 3.124-.085 4.237-.33 4.326-.183.066-4.588.148-9.79.18l-9.46.06zm0-12.19V-.004h26.988v8.731H10.588z" fill="#acebf3"/><path d="M0 16.398v-4.233h8.731v8.466H0zm10.583 0v-4.233h19.315v8.466H10.583zm0-12.039V-.007h26.988v8.732H10.583z" fill="#5ecade"/><path d="M10.588 4.358V-.008h26.988v8.732H10.588z" fill="#00a6c2"/></g></svg>
