<svg xmlns="http://www.w3.org/2000/svg" xmlns:xlink="http://www.w3.org/1999/xlink" width="227.067" height="45.508" viewBox="0 0 227.067 45.508"><defs><linearGradient id="a" x1="0.238" y1="1.301" x2="0.743" y2="-0.798" gradientUnits="objectBoundingBox"><stop offset="0" stop-color="#81e2c7"/><stop offset="0.184" stop-color="#56d3b5"/><stop offset="0.469" stop-color="#19bd9b"/><stop offset="0.757" stop-color="#0a9988"/><stop offset="0.923" stop-color="#048a81"/></linearGradient><radialGradient id="b" cx="444.013" cy="1717.484" r="43.373" gradientTransform="translate(-66.692 -220.15) scale(1.194 1.171)" gradientUnits="userSpaceOnUse"><stop offset="0" stop-color="#81e2c7"/><stop offset="0.002" stop-color="#80e1c6"/><stop offset="0.147" stop-color="#5bd4b7"/><stop offset="0.292" stop-color="#3ecaaa"/><stop offset="0.436" stop-color="#29c2a2"/><stop offset="0.577" stop-color="#1dbe9c"/><stop offset="0.714" stop-color="#19bd9b"/></radialGradient><linearGradient id="c" x1="0.209" y1="1.565" x2="0.701" y2="-0.722" xlink:href="#a"/></defs><g transform="translate(-100.09 -432.94)"><g transform="translate(152.783 446.157)"><path d="M182.807,470.1h10.958v1.866H180.832V453.193h12.419v1.867H182.807v6.6h8.874v1.812h-8.874Z" transform="translate(-180.832 -453.193)" fill="#172335"/><path d="M223.418,453.193h2.652v18.776h-1.975V456.034l-6.818,15.935h-2.056l-6.791-15.881v15.881h-1.975V453.193h2.625l7.17,16.5Z" transform="translate(-189.733 -453.193)" fill="#172335"/><path d="M254.705,462.176a4.6,4.6,0,0,1,3.328,4.6,4.676,4.676,0,0,1-1.7,3.76,6.774,6.774,0,0,1-4.491,1.434h-7.819V453.193h7.467a6.168,6.168,0,0,1,4.194,1.38,4.453,4.453,0,0,1,1.6,3.571,4.121,4.121,0,0,1-2.57,3.95Zm-8.712-7.251v6.548h5.492c2.246,0,3.734-1.353,3.734-3.328,0-1.921-1.515-3.219-3.815-3.219Zm5.574,15.314c2.624,0,4.41-1.515,4.41-3.761,0-1.975-1.7-3.3-4.275-3.3h-5.709v7.062Z" transform="translate(-202.782 -453.193)" fill="#172335"/><path d="M273.523,470.1h10.958v1.866H271.548V453.193h12.419v1.867H273.523v6.6H282.4v1.812h-8.874Z" transform="translate(-212.346 -453.193)" fill="#172335"/><path d="M311.212,471.969h-2.3l-4-7.63h-5.763v7.63H297.17V453.193h7.711a5.9,5.9,0,0,1,4.248,1.542,5.658,5.658,0,0,1-2.165,9.307Zm-12.067-16.91v7.414h5.736a3.53,3.53,0,0,0,3.788-3.707,3.573,3.573,0,0,0-3.788-3.707Z" transform="translate(-221.246 -453.193)" fill="#172335"/><path d="M350.964,455.059H340.547V462.2h9.064v1.84h-9.064v7.927h-1.975V453.193h12.392Z" transform="translate(-235.629 -453.193)" fill="#172335"/><path d="M364.841,470.211a7.259,7.259,0,0,1-2.056-5.384V453.193h1.975v11.634a5.558,5.558,0,0,0,1.515,4.031,6.084,6.084,0,0,0,8.036,0,5.558,5.558,0,0,0,1.515-4.031V453.193h2v11.634a7.1,7.1,0,0,1-7.522,7.44A7.366,7.366,0,0,1,364.841,470.211Z" transform="translate(-244.04 -453.193)" fill="#172335"/><path d="M406.4,453.193h1.975v18.776h-2.246l-11.066-15.854v15.854h-1.975V453.193h2.246L406.4,469.02Z" transform="translate(-254.569 -453.193)" fill="#172335"/><path d="M430.083,453.193a9.45,9.45,0,0,1,6.953,2.6,10.019,10.019,0,0,1-.027,13.609,9.611,9.611,0,0,1-6.98,2.57h-6.007V453.193ZM430,470.1a7.527,7.527,0,1,0,0-15.043h-4V470.1Z" transform="translate(-265.314 -453.193)" fill="#172335"/></g><g transform="translate(100.09 432.94)"><path d="M147.31,460.227l-5.756,6.873-3.314-3.957,2.442-2.916Z" transform="translate(-113.343 -442.419)" fill="url(#a)"/><path d="M134.057,450.748l4.142,4.947L126.29,469.916l-4.143-4.947Zm-19.366,5.317,4.142,4.947,11.909-14.222-4.142-4.946Zm-14.6-.371,19.055,22.754,3.969-4.741L108.2,455.9l15.085-18.013-4.142-4.947Z" transform="translate(-100.09 -432.94)" fill="url(#b)"/><path d="M135.885,446.584l-5.756,6.873-3.314-3.957,2.442-2.916Z" transform="translate(-109.374 -437.68)" fill="url(#c)"/></g></g></svg>