<svg clip-rule="evenodd" fill-rule="evenodd" stroke-linejoin="round" stroke-miterlimit="2" version="1.1" viewBox="55.337 .15 389.33 499.7" xml:space="preserve" xmlns="http://www.w3.org/2000/svg">
    <g transform="matrix(5.4912 0 0 5.4912 55.337 -1.4974)" fill="#ff6900" fill-rule="nonzero">
        <path d="m22.2 60.2 48.7-3.9v-8.1l-48.7 4.9v7.1z"/>
        <path d="m22.2 91.3h48.7v-10.1l-48.7 0.9v9.2z"/>
        <path d="m22.2 75.1 48.7-1.9v-9.4l-48.7 2.9v8.4z"/>
        <path d="m0 30 70.9-14.1v-5.7l-70.9 15.5v4.3z"/>
        <path d="m0 18.6v3.5l70.9-16.9v-4.9l-70.9 18.3z"/>
        <path d="m0 39.2 70.9-11.3v-6.3l-70.9 12.8v4.8z"/>
        <path d="m0 49.8 70.9-8.5v-7.2l-70.9 10v5.7z"/>
    </g>
</svg>
