<svg xmlns="http://www.w3.org/2000/svg" viewBox="31.78 0 136.43 123.11">
    <path d="M168.215 89.607a6.317 6.317 0 01-1.85 4.467l-28.29 28.29c-1.592 1.592-4.314.464-4.314-1.787V57.186l34.061-33.87h.393v66.291" fill="#e83860"/>
    <path d="M145.64.74a2.526 2.526 0 00-3.574 0L100 42.806h-.584v47.478l.584 1.247 33.761-33.761 34.454-34.454L145.64.74" fill="#dfc586"/>
    <path d="M31.785 89.607c0 1.676.665 3.282 1.85 4.467l28.29 28.29c1.592 1.592 4.314.464 4.314-1.787V57.186l-34.062-33.87h-.392v66.291" fill="#327787"/>
    <path d="M57.934.74a2.527 2.527 0 00-3.574 0L31.785 23.316 66.239 57.77 100 91.53V42.806L57.934.74" fill="#8abb9c"/>
    <!-- <path
        d="M0 194.12v-34.136h9.09v4.576c2.098-3.496 5.15-5.212 9.281-5.212 4.132 0 7.247 1.78 9.472 5.467 3.56-3.75 6.293-5.467 10.552-5.467 7.692 0 12.014 4.323 12.014 12.269v22.503H40.62v-18.498c0-4.768-1.017-6.929-4.768-6.929-3.814 0-5.848 2.352-5.848 6.929v18.498h-9.853v-18.498c0-4.768-1.017-6.929-4.768-6.929-3.814 0-5.848 2.352-5.848 6.929v18.498H0m74.048-8.645c4.45 0 8.073-3.75 8.073-8.391 0-4.705-3.623-8.454-8.073-8.454s-8.073 3.75-8.073 8.454c0 4.64 3.687 8.39 8.073 8.39zM61.27 164.433c3.433-3.432 7.946-5.339 12.586-5.339 4.959 0 9.218 1.716 12.65 4.958 3.624 3.433 5.594 8.137 5.594 12.778 0 5.148-1.716 9.408-5.149 12.84-3.496 3.496-7.818 5.34-12.968 5.34-5.212 0-9.408-1.78-12.904-5.467-3.305-3.433-5.022-7.819-5.022-12.586 0-4.768 1.844-9.155 5.213-12.524m36.48 29.687v-34.136h9.535l-.127 4.576c2.098-3.432 5.277-5.212 9.79-5.212 7.056 0 11.633 4.45 11.633 12.269v22.503h-10.044v-18.498c0-4.768-1.017-6.929-4.894-6.929-3.942 0-6.04 2.352-6.04 6.929v18.498H97.75m84.196-8.645c4.45 0 8.074-3.75 8.074-8.391 0-4.705-3.624-8.454-8.074-8.454-4.45 0-8.073 3.75-8.073 8.454 0 4.64 3.687 8.39 8.073 8.39zm-12.777-21.042c3.433-3.432 7.946-5.339 12.587-5.339 4.958 0 9.217 1.716 12.65 4.958 3.623 3.433 5.594 8.137 5.594 12.778 0 5.148-1.717 9.408-5.15 12.84-3.495 3.496-7.818 5.34-12.967 5.34-5.213 0-9.408-1.78-12.904-5.467-3.306-3.433-5.022-7.819-5.022-12.586 0-4.768 1.843-9.155 5.212-12.524M134.91 194.12V187l14.049-18.18H134.91v-8.836h25.363v8.073l-12.395 17.227h12.65v8.836H134.91"
        fill="#132136" /&gt; -->
</svg>