<svg xmlns="http://www.w3.org/2000/svg" xmlns:xlink="http://www.w3.org/1999/xlink" version="1.1" viewBox="22.729999542236328 0 68 72.00999450683594" xml:space="preserve">
<defs>
</defs>
<g transform="matrix(1 0 0 1 36.91 30.89)" id="Logo">
<polygon style="stroke: none; stroke-width: 1; stroke-dasharray: none; stroke-linecap: butt; stroke-dashoffset: 0; stroke-linejoin: miter; stroke-miterlimit: 4; fill: rgb(0,0,0); fill-rule: nonzero; opacity: 1;" points="14.17,-30.89 -14.18,-14.54 -14.18,-14.52 -14.18,24.74 -3.52,30.89 -3.52,-8.39 14.17,-18.61 14.17,-30.89 "></polygon>
</g>
<g transform="matrix(1 0 0 1 56.73 36)" id="Logo">
<polygon style="stroke: none; stroke-width: 1; stroke-dasharray: none; stroke-linecap: butt; stroke-dashoffset: 0; stroke-linejoin: miter; stroke-miterlimit: 4; fill: rgb(0,0,0); fill-rule: nonzero; opacity: 1;" points="5.66,-36 5.66,-4.72 -5.65,-4.72 -5.65,-16.39 -16.31,-10.25 -16.31,29.83 -5.65,36 -5.65,4.8 5.66,4.8 5.66,16.4 16.31,10.25 16.31,-29.85 5.66,-36 "></polygon>
</g>
<g transform="matrix(1 0 0 1 76.56 41.12)" id="Logo">
<polygon style="stroke: none; stroke-width: 1; stroke-dasharray: none; stroke-linecap: butt; stroke-dashoffset: 0; stroke-linejoin: miter; stroke-miterlimit: 4; fill: rgb(0,0,0); fill-rule: nonzero; opacity: 1;" points="-14.17,30.89 14.17,14.54 14.17,14.52 14.17,-24.74 3.53,-30.89 3.53,8.39 -14.17,18.6 -14.17,30.89 "></polygon>
</g>
</svg>