<svg id="LOGOS" xmlns="http://www.w3.org/2000/svg" viewBox="28.917667388916016 26.329219818115234 123.17233276367188 124.30079650878906"><defs><style>.cls-1{fill:#e03875;}</style></defs><path class="cls-1" d="M91.09,150.63A62.15,62.15,0,1,1,133.15,42.74h0l-14.7,15.43h0a40.83,40.83,0,1,0,0,60.62h0l14.7,15.43h0A62,62,0,0,1,91.09,150.63Z"></path><path class="cls-1" d="M141.11,119.54a5.09,5.09,0,1,1,5.1-5.09A5.1,5.1,0,0,1,141.11,119.54Z"></path><path class="cls-1" d="M90.7,101.93a13.46,13.46,0,1,1,13.46-13.45A13.47,13.47,0,0,1,90.7,101.93Z"></path><path class="cls-1" d="M147,102.13A5.09,5.09,0,1,1,152.05,97,5.11,5.11,0,0,1,147,102.13Z"></path><path class="cls-1" d="M131.81,101.55a5.1,5.1,0,1,1,5.09-5.09A5.1,5.1,0,0,1,131.81,101.55Z"></path><path class="cls-1" d="M147,85a5.09,5.09,0,1,1,5.09-5.09A5.11,5.11,0,0,1,147,85Z"></path><path class="cls-1" d="M131.81,85.59a5.09,5.09,0,1,1,5.09-5.09A5.09,5.09,0,0,1,131.81,85.59Z"></path><path class="cls-1" d="M141.4,67.88a5.1,5.1,0,1,1,5.09-5.09A5.1,5.1,0,0,1,141.4,67.88Z"></path></svg>