<svg xmlns="http://www.w3.org/2000/svg" xmlns:xlink="http://www.w3.org/1999/xlink" viewBox="66 211.8 167.2 169.93">
    <linearGradient id="linearGradient1" x1="87.8899" y1="378.542" x2="211.2722" y2="255.1597" gradientUnits="userSpaceOnUse">
        <stop offset="1e-05" stop-color="#25316a" stop-opacity="1"/>
        <stop offset="0.060518" stop-color="#293269" stop-opacity="1"/>
        <stop offset="0.1216" stop-color="#343468" stop-opacity="1"/>
        <stop offset="0.183" stop-color="#453764" stop-opacity="1"/>
        <stop offset="0.2446" stop-color="#5b3c60" stop-opacity="1"/>
        <stop offset="0.3064" stop-color="#764459" stop-opacity="1"/>
        <stop offset="0.3684" stop-color="#964d4f" stop-opacity="1"/>
        <stop offset="0.4293" stop-color="#bf5a3d" stop-opacity="1"/>
        <stop offset="0.4872" stop-color="#f36c21" stop-opacity="1"/>
        <stop offset="1" stop-color="#9c9c9c" stop-opacity="1"/>
    </linearGradient>
    <path id="Path" fill="url(#linearGradient1)" stroke="none" d="M 192.899994 283.400024 L 192.899994 283.400024 L 192.899994 236.800018 L 149.600006 211.800018 L 106.300003 236.800018 L 106.300003 283.400024 L 106.300003 283.5 L 66 306.700012 L 66 356.700012 L 109.300003 381.700012 L 149.600006 358.400024 L 189.899994 381.700012 L 233.199997 356.700012 L 233.199997 306.700012 L 192.899994 283.400024 Z M 149.600006 304.900024 L 115.199997 285 L 149.600006 265.100006 L 184 285 L 149.600006 304.900024 Z M 112.199997 290.200012 L 146.600006 310.100006 L 146.600006 349.799988 L 112.199997 329.900024 L 112.199997 290.200012 Z M 152.5 310.100006 L 186.899994 290.200012 L 186.899994 329.900024 L 152.5 349.700012 L 152.5 310.100006 Z M 112.199997 240.200012 L 149.600006 218.600006 L 187 240.200012 L 187 279.900024 L 149.600006 258.300018 L 112.199997 279.900024 L 112.199997 240.200012 Z M 71.900002 353.200012 L 71.900002 310 L 106.300003 290.100006 L 106.300003 333.200012 L 143.699997 354.799988 L 109.199997 374.700012 L 71.900002 353.200012 Z M 227.300003 353.200012 L 189.899994 374.799988 L 155.399994 354.900024 L 192.800003 333.300018 L 192.800003 290.200012 L 227.199997 310.100006 L 227.300003 353.200012 Z"/>
</svg>