<svg id="Layer_2" data-name="Layer 2" xmlns="http://www.w3.org/2000/svg" viewBox="0 0 42.65 58.06">
  <defs>
    <style>
      .cls-1 {
        fill: #333230;
      }

      .cls-1, .cls-2 {
        fill-rule: evenodd;
        stroke-width: 0px;
      }

      .cls-2 {
        fill: #97ca4f;
      }
    </style>
  </defs>
  <g id="Layer_1-2" data-name="Layer 1">
    <g>
      <path class="cls-2" d="M13.22,45.34C6.4,43.11,1.54,36.49.35,29.56-2.94,10.41,17.44-6.86,37.79,2.73c.24,4.3-1.76,10.42-7.24,12.26,27.2,17.17,3.95,52.35-24.56,40.78-5.2-2.65-2.42-7.5,3.14-4.69,6.21,2.14,14.28,2.14,19.36-.67,3.28-1.79,6.21-4.24,8.28-7.37.58-.88,1.35-2.2,1.96-3.63.43-1.01,1.82-5.2.74-5.66-.27-.11-.41.21-.49.51-.69,2.78-2.04,5.19-3.89,7.36-2.18,2.54-4.93,4.48-8.4,5.75-4.06,1.48-8.78,1.67-15.25.25.43-.46,1.29-1.75,1.78-2.27h0ZM31.99,4.45s.15.78.18,1.9c.11,3.18-.76,5.23-3.01,7.47-.46.46-.98.93-1.55,1.43,7.68,4.78,11.69,15.22,7.23,22.52-6.02,9.84-17.94,7.6-24.46.87-6.82-7.05-5.92-16.17-1.02-22.93,5.05-6.98,14.34-11.48,22.62-11.24h0Z"/>
      <path class="cls-1" d="M8.84,26.04c1.46-14.6,18.26-17.49,24.5,1.97,5.04,20-26.82,15.65-24.5-1.97h0ZM22.54,35.65c13.26.48,6.91-13.08-1.8-16.08-8.63-2.97-13.43,16.08,1.8,16.08h0Z"/>
    </g>
  </g>
</svg>