<svg xmlns="http://www.w3.org/2000/svg" viewBox="5.31 0.25 24.19 34.51"><path d="M22.92,13.42H12.08a6.59,6.59,0,0,1,0-13.17H22.92a6.59,6.59,0,0,1,0,13.17ZM12.08,2.75a4.09,4.09,0,0,0,0,8.17H22.92a4.09,4.09,0,0,0,0-8.17Z"></path><path d="M17.42,24.08H12.08a6.58,6.58,0,0,1,0-13.16,1.25,1.25,0,0,1,0,2.5,4.08,4.08,0,0,0,0,8.16h4.09V12.17a1.25,1.25,0,0,1,2.5,0V22.83A1.25,1.25,0,0,1,17.42,24.08Z"></path><path d="M12.16,34.75a6.59,6.59,0,1,1,0-13.17,1.25,1.25,0,0,1,0,2.5,4.09,4.09,0,1,0,4.08,4.09V22.83a1.25,1.25,0,0,1,2.5,0v5.34A6.59,6.59,0,0,1,12.16,34.75Z"></path><path d="M22.83,24.25a6.67,6.67,0,1,1,6.67-6.67A6.67,6.67,0,0,1,22.83,24.25Zm0-10.83A4.17,4.17,0,1,0,27,17.58,4.17,4.17,0,0,0,22.83,13.42Z"></path><path d="M17.42,13.42h0a1.25,1.25,0,0,1-1.24-1.26l.08-10.67A1.25,1.25,0,0,1,17.5.25h0a1.25,1.25,0,0,1,1.24,1.26l-.08,10.67A1.26,1.26,0,0,1,17.42,13.42Z"></path></svg>