<svg version="1.1" id="Layer_1" xmlns="http://www.w3.org/2000/svg" xmlns:xlink="http://www.w3.org/1999/xlink" x="0px" y="0px"
	 viewBox="0 0 43.6 43.6" style="enable-background:new 0 0 43.6 43.6;" xml:space="preserve">
<style type="text/css">
	.st0{fill:#696158;}
</style>
<g>
	<path class="st0" d="M23.5,43.6H20c-13.4,0-20-6.7-20-20.1v-3.3C0,6.7,6.7,0,20,0h3.5c13.4,0,20,6.7,20,20.1v3.8H4.4
		c0.2,10.6,5.2,15.4,15.8,15.4h3.2c7.8,0,12.6-2.5,14.4-7.2h4.6C40.4,39.6,34.1,43.6,23.5,43.6 M4.4,19.6h34.7
		C38.9,9.1,34,4.3,23.4,4.3h-3.2C9.6,4.3,4.6,9.1,4.4,19.6"/>
</g>
</svg>
