<svg viewBox="0 0 1200 246" version="1.1" xmlns="http://www.w3.org/2000/svg" xmlns:xlink="http://www.w3.org/1999/xlink" xml:space="preserve" xmlns:serif="http://www.serif.com/" style="fill-rule:evenodd;clip-rule:evenodd;stroke-linejoin:round;stroke-miterlimit:2;">
    <g>
        <path d="M18.45,145.979L163.083,145.979C162.171,102.121 141.587,82.133 97.408,82.133L84.108,82.133C39.929,82.133 19.362,102.121 18.45,145.979ZM98.037,245.825L83.496,245.825C27.825,245.825 0,218 0,162.008L0,148.092C0,92.117 27.825,64.275 83.496,64.275L98.037,64.275C153.692,64.275 181.554,92.117 181.554,148.092L181.554,163.837L18.45,163.837C19.362,208.013 39.929,227.971 84.108,227.971L97.408,227.971C130.096,227.971 149.779,217.7 157.346,198.029L176.696,198.029C168.538,229.188 141.912,245.825 98.037,245.825Z" style="fill:white;fill-rule:nonzero;"/>
        <path d="M366.108,131.154C360.958,97.571 340.379,82.133 301.346,82.133L288.042,82.133C242.967,82.133 222.4,103.021 222.4,149.008L222.4,161.112C222.4,207.104 242.967,227.971 288.042,227.971L301.346,227.971C340.379,227.971 360.958,212.55 366.108,178.954L384.554,178.954C379.104,223.742 351.583,245.829 301.954,245.829L287.45,245.829C231.763,245.829 203.933,217.987 203.933,162.008L203.933,148.096C203.933,92.121 231.763,64.296 287.45,64.296L301.954,64.296C351.583,64.296 379.104,86.383 384.554,131.154L366.108,131.154Z" style="fill:white;fill-rule:nonzero;"/>
        <path d="M488.342,227.975L501.663,227.975C546.737,227.975 567.3,207.108 567.3,161.117L567.3,149.017C567.3,103.029 546.737,82.138 501.663,82.138L488.342,82.138C443.263,82.138 422.683,103.029 422.683,149.017L422.683,161.117C422.683,207.108 443.263,227.975 488.342,227.975ZM404.229,148.1C404.229,92.125 432.058,64.3 487.733,64.3L502.254,64.3C557.942,64.3 585.771,92.125 585.771,148.1L585.771,162.012C585.771,217.992 557.942,245.833 502.254,245.833L487.733,245.833C432.058,245.833 404.229,217.992 404.229,162.012L404.229,148.1Z" style="fill:white;fill-rule:nonzero;"/>
        <path d="M694.704,227.975L708.004,227.975C753.096,227.975 773.663,207.108 773.663,161.117L773.663,149.017C773.663,103.029 753.096,82.138 708.004,82.138L694.704,82.138C649.608,82.138 629.046,103.029 629.046,149.017L629.046,161.117C629.046,207.108 649.608,227.975 694.704,227.975ZM708.613,64.3C764.288,64.3 792.129,92.125 792.129,148.1L792.129,162.012C792.129,217.992 764.288,245.833 708.613,245.833L694.092,245.833C638.404,245.833 610.592,217.992 610.592,162.012L610.592,3.788L629.046,3.788L629.046,92.125C641.446,73.658 662.912,64.3 694.092,64.3L708.613,64.3Z" style="fill:white;fill-rule:nonzero;"/>
        <path d="M832.967,145.979L977.588,145.979C976.692,102.121 956.108,82.133 911.929,82.133L898.625,82.133C854.446,82.133 833.867,102.121 832.967,145.979ZM912.542,245.825L898.012,245.825C842.346,245.825 814.517,218 814.517,162.008L814.517,148.092C814.517,92.117 842.346,64.275 898.012,64.275L912.542,64.275C968.213,64.275 996.054,92.117 996.054,148.092L996.054,163.837L832.967,163.837C833.867,208.013 854.446,227.971 898.625,227.971L911.929,227.971C944.617,227.971 964.283,217.7 971.85,198.029L991.196,198.029C983.058,229.188 956.429,245.825 912.542,245.825Z" style="fill:white;fill-rule:nonzero;"/>
        <path d="M1036.9,145.979L1181.53,145.979C1180.62,102.121 1160.03,82.133 1115.86,82.133L1102.55,82.133C1058.38,82.133 1037.81,102.121 1036.9,145.979ZM1116.48,245.825L1101.95,245.825C1046.27,245.825 1018.45,218 1018.45,162.008L1018.45,148.092C1018.45,92.117 1046.27,64.275 1101.95,64.275L1116.48,64.275C1172.14,64.275 1200,92.117 1200,148.092L1200,163.837L1036.9,163.837C1037.81,208.013 1058.38,227.971 1102.55,227.971L1115.86,227.971C1148.54,227.971 1168.21,217.7 1175.78,198.029L1195.14,198.029C1186.98,229.188 1160.35,245.825 1116.48,245.825Z" style="fill:white;fill-rule:nonzero;"/>
    </g>
</svg>
