<svg viewBox="0 0 24 10" version="1.1" xmlns="http://www.w3.org/2000/svg" xmlns:xlink="http://www.w3.org/1999/xlink" xml:space="preserve" xmlns:serif="http://www.serif.com/" style="fill-rule:evenodd;clip-rule:evenodd;stroke-linejoin:round;stroke-miterlimit:2;">
    <g transform="matrix(1,0,0,1,0,-7.37457)">
        <path d="M3.677,16.456C4.211,16.187 4.463,15.979 4.787,14.726C5.075,13.609 5.879,10.328 5.954,10.094C6.132,9.539 6.37,9.581 6.532,10.094C6.606,10.328 7.411,13.61 7.699,14.726C8.021,15.979 8.275,16.187 8.809,16.456C9.215,16.661 10.027,16.603 10.027,16.603L12.486,7.392C11.57,7.278 10.618,7.724 10.412,8.702L10.41,8.702L9.125,13.63L8.057,9.597C7.769,8.408 7.277,7.794 6.241,7.794C5.215,7.794 4.716,8.395 4.425,9.597L3.357,13.63L2.073,8.703C1.865,7.71 0.894,7.281 0,7.392L2.459,16.603C2.459,16.603 3.271,16.661 3.677,16.456Z" style="fill-rule:nonzero;"/>
    </g>
    <g transform="matrix(1,0,0,1,0,-7.37457)">
        <path d="M14.752,7.382C14.752,7.383 14.097,7.365 13.731,7.555C13.255,7.802 13.078,8.218 13.078,9.37C13.078,9.37 13.32,9.139 13.676,9.011C14.83,8.596 14.752,7.867 14.752,7.382Z" style="fill:rgb(246,199,18);fill-rule:nonzero;"/>
    </g>
    <g transform="matrix(1,0,0,1,0,-7.37457)">
        <path d="M14.104,16.475C14.626,16.211 14.746,15.957 14.751,14.812L14.751,9.229L14.75,9.229L14.75,8.896C14.75,8.896 14.596,9.131 14.245,9.326C14.019,9.451 13.803,9.535 13.571,9.646C13.003,9.916 13.076,10.164 13.076,10.954L13.076,16.603C13.078,16.602 13.699,16.68 14.104,16.475ZM24,7.423C24,7.423 22.683,7.201 22.031,7.789C21.533,8.238 21.116,8.887 19.999,10.481C19.981,10.508 19.765,10.873 19.509,10.481C18.411,8.912 17.978,8.241 17.477,7.789C16.825,7.201 15.508,7.423 15.508,7.423L18.628,12.02L15.517,16.602C15.517,16.602 16.888,16.774 17.54,16.186C17.971,15.798 18.199,15.429 19.509,13.559C19.764,13.168 19.98,13.531 19.999,13.559C21.101,15.134 21.47,15.716 21.992,16.186C22.644,16.774 23.991,16.602 23.991,16.602L20.879,12.02L20.88,12.02L24,7.423Z" style="fill-rule:nonzero;"/>
    </g>
</svg>