<svg version="1.1" id="Layer_1" xmlns="http://www.w3.org/2000/svg" xmlns:xlink="http://www.w3.org/1999/xlink" x="0px" y="0px" viewBox="89.09555053710938 179.14556884765625 433.7919616699219 433.761962890625" style="enable-background:new 0 0 612 792;" xml:space="preserve">
<style type="text/css">
	.st0{fill:#0181C5;}
	.st1{fill:#FCFDFD;}
	.st2{fill:#FBFDFD;}
	.st3{fill:#0281C6;}
</style>
<path class="st0" d="M89.1,396.01c0-54.97-0.01-109.95,0-164.92c0.01-30.29,21.66-51.94,51.93-51.94c109.96-0.01,219.93,0,329.89,0
	c30.29,0,51.96,21.64,51.96,51.92c0.01,109.95,0.01,219.9,0,329.84c0,30.25-21.58,51.95-51.93,51.96
	c-109.96,0.05-219.93,0.05-329.89,0c-30.34-0.01-51.95-21.72-51.96-51.94C89.09,505.96,89.1,450.99,89.1,396.01z M148.06,366.7
	c0-2.4,0-4.01,0-5.61c0-18.16,0.08-36.32-0.03-54.47c-0.06-9.25-5.84-14.64-15.19-14.58c-8.56,0.06-13.79,5.61-13.8,14.77
	c-0.02,40.15,0.12,80.3-0.05,120.44c-0.13,31.26,23.78,68.79,69.81,71.19c27.33,1.43,49.17-11,64.58-34
	c0.86-1.29,1.06-3.22,2.97-3.7c23.19,39....44-2.62-5.49,0.16
	c-9.46,12.88-19.02,25.68-28.69,38.41c-6.11,8.05-14.43,9.12-21.61,3.07c-6.18-5.22-7.03-13.55-1.8-20.6
	c11.3-15.25,22.65-30.45,34.15-45.54c1.94-2.55,2.06-4.12,0.06-6.75c-11.52-15.08-22.9-30.26-34.14-45.56
	c-7.22-9.83-2.25-22.42,9.31-23.97c6.02-0.81,10.62,1.76,14.19,6.54c9.46,12.67,19.1,25.21,28.35,38.03
	c2.64,3.65,3.75,3.03,6.07-0.15c9.12-12.51,18.46-24.86,27.77-37.22c6-7.96,14.71-9.67,21.69-4.35c6.85,5.22,7.5,14.19,1.57,22.13
	c-11.16,14.93-22.28,29.9-33.58,44.73c-1.83,2.41-1.83,3.9,0,6.3c11.3,14.83,22.4,29.8,33.6,44.71
	C492.29,476.49,494.31,479.7,493.94,483.35z"></path>
<path class="st3" d="M364.04,425.64c-0.06,24.04-19.56,43.43-43.65,43.4c-24.07-0.02-43.57-19.49-43.58-43.52
	c-0.02-24.27,19.67-43.83,43.94-43.67C344.82,382.01,364.1,401.51,364.04,425.64z"></path>
<path class="st3" d="M191.55,469.04c-24.02-0.04-43.52-19.59-43.5-43.61c0.02-24.24,19.73-43.75,44.04-43.58
	c24.01,0.16,43.36,19.79,43.24,43.87C235.21,449.75,215.67,469.08,191.55,469.04z"></path>
</svg>
