<svg xmlns="http://www.w3.org/2000/svg" xmlns:xlink="http://www.w3.org/1999/xlink" version="1.1" id="Layer_1" x="0px" y="0px" style="enable-background:new 0 0 612 792;" xml:space="preserve" viewBox="89.10 179.15 433.79 433.76">
<style type="text/css">
	.st0{fill:#0181C5;}
	.st1{fill:#FCFDFD;}
	.st2{fill:#FBFDFD;}
	.st3{fill:#0281C6;}
</style>
<path class="st0" d="M89.1,396.01c0-54.97-0.01-109.95,0-164.92c0.01-30.29,21.66-51.94,51.93-51.94c109.96-0.01,219.93,0,329.89,0  c30.29,0,51.96,21.64,51.96,51.92c0.01,109.95,0.01,219.9,0,329.84c0,30.25-21.58,51.95-51.93,51.96  c-109.96,0.05-219.93,0.05-329.89,0c-30.34-0.01-51.95-21.72-51.96-51.94C89.09,505.96,89.1,450.99,89.1,396.01z M148.06,366.7  c0-2.4,0-4.01,0-5.61c0-18.16,0.08-36.32-0.03-54.47c-0.06-9.25-5.84-14.64-15.19-14.58c-8.56,0.06-13.79,5.61-13.8,14.77  c-0.02,40.15,0.12,80.3-0.05,120.44c-0.13,31.26,23.78,68.79,69.81,71.19c27.33,1.43,49.17-11,64.58-34  c0.86-1.29,1.06-3.22,2.97-3.7c23.19,39.48,72.37,49.82,108.21,22.78c33.23-25.07,38.6-73.08,11.52-105.12  c-13.59-16.08-31.16-24.93-52.23-25.67c-29.94-1.05-52.17,12.57-67.83,37.87C233.32,351.51,185.11,341.09,148.06,366.7z   M493.94,483.35c0.37-3.65-1.65-6.86-3.99-9.98c-11.19-14.91-22.3-29.89-33.6-44.71c-1.83-2.41-1.84-3.89,0-6.3  c11.3-14.83,22.42-29.8,33.58-44.73c5.94-7.95,5.29-16.92-1.57-22.13c-6.98-5.32-15.7-3.61-21.69,4.35  c-9.31,12.37-18.65,24.72-27.77,37.22c-2.32,3.17-3.43,3.8-6.07,0.15c-9.26-12.82-18.9-25.36-28.35-38.03  c-3.57-4.78-8.17-7.35-14.19-6.54c-11.56,1.55-16.53,14.14-9.31,23.97c11.23,15.29,22.62,30.47,34.14,45.56  c2,2.62,1.89,4.2-0.06,6.75c-11.5,15.09-22.86,30.3-34.15,45.54c-5.22,7.05-4.38,15.38,1.8,20.6c7.18,6.06,15.5,4.98,21.61-3.07  c9.66-12.73,19.23-25.53,28.69-38.41c2.04-2.78,3.28-3.66,5.49-0.16c2.3,3.65,5.12,6.97,7.72,10.43  c7.19,9.59,14.29,19.25,21.59,28.75c4.01,5.21,10.51,7.51,15.36,5.86C489.8,496.22,493.95,490.59,493.94,483.35z"></path>
<path class="st1" d="M148.06,366.7c37.05-25.61,85.26-15.18,107.95,23.9c15.66-25.29,37.89-38.92,67.83-37.87  c21.07,0.74,38.64,9.59,52.23,25.67c27.08,32.04,21.71,80.05-11.52,105.12c-35.85,27.04-85.03,16.7-108.21-22.78  c-1.91,0.48-2.11,2.41-2.97,3.7c-15.4,23-37.24,35.43-64.58,34c-46.03-2.41-69.94-39.94-69.81-71.19  c0.17-40.15,0.03-80.3,0.05-120.44c0-9.16,5.24-14.71,13.8-14.77c9.35-0.06,15.13,5.33,15.19,14.58  c0.11,18.16,0.03,36.32,0.03,54.47C148.06,362.69,148.06,364.29,148.06,366.7z M364.04,425.64c0.06-24.13-19.22-43.63-43.29-43.79  c-24.28-0.16-43.96,19.41-43.94,43.67c0.02,24.03,19.51,43.5,43.58,43.52C344.49,469.07,363.99,449.68,364.04,425.64z   M191.55,469.04c24.12,0.04,43.66-19.29,43.78-43.32c0.12-24.08-19.22-43.71-43.24-43.87c-24.3-0.16-44.02,19.35-44.04,43.58  C148.04,449.46,167.54,469.01,191.55,469.04z"></path>
<path class="st2" d="M493.94,483.35c0.01,7.24-4.14,12.87-10.79,15.12c-4.85,1.65-11.35-0.65-15.36-5.86  c-7.3-9.5-14.41-19.16-21.59-28.75c-2.59-3.46-5.42-6.78-7.72-10.43c-2.2-3.5-3.44-2.62-5.49,0.16  c-9.46,12.88-19.02,25.68-28.69,38.41c-6.11,8.05-14.43,9.12-21.61,3.07c-6.18-5.22-7.03-13.55-1.8-20.6  c11.3-15.25,22.65-30.45,34.15-45.54c1.94-2.55,2.06-4.12,0.06-6.75c-11.52-15.08-22.9-30.26-34.14-45.56  c-7.22-9.83-2.25-22.42,9.31-23.97c6.02-0.81,10.62,1.76,14.19,6.54c9.46,12.67,19.1,25.21,28.35,38.03  c2.64,3.65,3.75,3.03,6.07-0.15c9.12-12.51,18.46-24.86,27.77-37.22c6-7.96,14.71-9.67,21.69-4.35c6.85,5.22,7.5,14.19,1.57,22.13  c-11.16,14.93-22.28,29.9-33.58,44.73c-1.83,2.41-1.83,3.9,0,6.3c11.3,14.83,22.4,29.8,33.6,44.71  C492.29,476.49,494.31,479.7,493.94,483.35z"></path>
<path class="st3" d="M364.04,425.64c-0.06,24.04-19.56,43.43-43.65,43.4c-24.07-0.02-43.57-19.49-43.58-43.52  c-0.02-24.27,19.67-43.83,43.94-43.67C344.82,382.01,364.1,401.51,364.04,425.64z"></path>
<path class="st3" d="M191.55,469.04c-24.02-0.04-43.52-19.59-43.5-43.61c0.02-24.24,19.73-43.75,44.04-43.58  c24.01,0.16,43.36,19.79,43.24,43.87C235.21,449.75,215.67,469.08,191.55,469.04z"></path>
</svg>
