<svg xmlns="http://www.w3.org/2000/svg" viewBox="89.1 179.15 433.79 433.76"><path d="M89.1 396.01c0-54.97-.01-109.95 0-164.92.01-30.29 21.66-51.94 51.93-51.94 109.96-.01 219.93 0 329.89 0 30.29 0 51.96 21.64 51.96 51.92.01 109.95.01 219.9 0 329.84 0 30.25-21.58 51.95-51.93 51.96-109.96.05-219.93.05-329.89 0-30.34-.01-51.95-21.72-51.96-51.94-.01-54.97 0-109.94 0-164.92zm58.96-29.31v-5.61c0-18.16.08-36.32-.03-54.47-.06-9.25-5.84-14.64-15.19-14.58-8.56.06-13.79 5.61-13.8 14.77-.02 40.15.12 80.3-.05 120.44-.13 31.26 23.78 68.79 69.81 71.19 27.33 1.43 49.17-11 64.58-34 .86-1.29 1.06-3.22 2.97-3.7 23.19 39.48 72.37 49.82 108.21 22.78 33.23-25.07 38.6-73.08 11.52-105.12-13.59-16.08-31.16-24.93-52.23-25.67-29.94-1.05-52.17 12.57-67.83 37.87-22.7-39.09-70.91-49.51-107.96-23.9zm345.88 116.65c.37-3.65-1.65-6.86-3.99-9.98-11.19-14.91-22.3-29.89-33.6-44.71-1.83-2.41-1.84-3.89 0-6.3 11.3-14.83 22.42-29.8 33.58-44.73 5.94-7.95 5.29-16.92-1.57-22.13-6.98-5.32-15.7-3.61-21.69 4.35-9.31 12.37-18.65 24.72-27.77 37.22-2.32 3.17-3.43 3.8-6.07.15-9.26-12.82-18.9-25.36-28.35-38.03-3.57-4.78-8.17-7.35-14.19-6.54-11.56 1.55-16.53 14.14-9.31 23.97 11.23 15.29 22.62 30.47 34.14 45.56 2 2.62 1.89 4.2-.06 6.75-11.5 15.09-22.86 30.3-34.15 45.54-5.22 7.05-4.38 15.38 1.8 20.6 7.18 6.06 15.5 4.98 21.61-3.07 9.66-12.73 19.23-25.53 28.69-38.41 2.04-2.78 3.28-3.66 5.49-.16 2.3 3.65 5.12 6.97 7.72 10.43 7.19 9.59 14.29 19.25 21.59 28.75 4.01 5.21 10.51 7.51 15.36 5.86 6.63-2.25 10.78-7.88 10.77-15.12z" fill="#0181c5"/><path d="M148.06 366.7c37.05-25.61 85.26-15.18 107.95 23.9 15.66-25.29 37.89-38.92 67.83-37.87 21.07.74 38.64 9.59 52.23 25.67 27.08 32.04 21.71 80.05-11.52 105.12-35.85 27.04-85.03 16.7-108.21-22.78-1.91.48-2.11 2.41-2.97 3.7-15.4 23-37.24 35.43-64.58 34-46.03-2.41-69.94-39.94-69.81-71.19.17-40.15.03-80.3.05-120.44 0-9.16 5.24-14.71 13.8-14.77 9.35-.06 15.13 5.33 15.19 14.58.11 18.16.03 36.32.03 54.47.01 1.6.01 3.2.01 5.61zm215.98 58.94c.06-24.13-19.22-43.63-43.29-43.79-24.28-.16-43.96 19.41-43.94 43.67.02 24.03 19.51 43.5 43.58 43.52 24.1.03 43.6-19.36 43.65-43.4zm-172.49 43.4c24.12.04 43.66-19.29 43.78-43.32.12-24.08-19.22-43.71-43.24-43.87-24.3-.16-44.02 19.35-44.04 43.58-.01 24.03 19.49 43.58 43.5 43.61z" fill="#fcfdfd"/><path d="M493.94 483.35c.01 7.24-4.14 12.87-10.79 15.12-4.85 1.65-11.35-.65-15.36-5.86-7.3-9.5-14.41-19.16-21.59-28.75-2.59-3.46-5.42-6.78-7.72-10.43-2.2-3.5-3.44-2.62-5.49.16-9.46 12.88-19.02 25.68-28.69 38.41-6.11 8.05-14.43 9.12-21.61 3.07-6.18-5.22-7.03-13.55-1.8-20.6 11.3-15.25 22.65-30.45 34.15-45.54 1.94-2.55 2.06-4.12.06-6.75-11.52-15.08-22.9-30.26-34.14-45.56-7.22-9.83-2.25-22.42 9.31-23.97 6.02-.81 10.62 1.76 14.19 6.54 9.46 12.67 19.1 25.21 28.35 38.03 2.64 3.65 3.75 3.03 6.07-.15 9.12-12.51 18.46-24.86 27.77-37.22 6-7.96 14.71-9.67 21.69-4.35 6.85 5.22 7.5 14.19 1.57 22.13-11.16 14.93-22.28 29.9-33.58 44.73-1.83 2.41-1.83 3.9 0 6.3 11.3 14.83 22.4 29.8 33.6 44.71 2.36 3.12 4.38 6.33 4.01 9.98z" fill="#fbfdfd"/><path d="M364.04 425.64c-.06 24.04-19.56 43.43-43.65 43.4-24.07-.02-43.57-19.49-43.58-43.52-.02-24.27 19.67-43.83 43.94-43.67 24.07.16 43.35 19.66 43.29 43.79zm-172.49 43.4c-24.02-.04-43.52-19.59-43.5-43.61.02-24.24 19.73-43.75 44.04-43.58 24.01.16 43.36 19.79 43.24 43.87-.12 24.03-19.66 43.36-43.78 43.32z" fill="#0281c6"/></svg>