<svg version="1.1" id="Layer_1" xmlns="http://www.w3.org/2000/svg" xmlns:xlink="http://www.w3.org/1999/xlink" x="0px" y="0px"
	 viewBox="0 0 108.4 108.5" style="enable-background:new 0 0 108.4 108.5;" xml:space="preserve">
<style type="text/css">
	.st0{fill:#231F20;}
</style>
<path class="st0" d="M54.2,0.1c-0.2,0-0.3,0-0.5-0.1C53.9,0.1,54.1,0.1,54.2,0.1z"/>
<g>
	<path d="M34.3,54.2c0-11.1,9-20.1,20.1-20.1c3.7,0,7.1,1,10,2.7l4-7.2c-4.1-2.4-8.9-3.7-14-3.7c-7.8,0-14.9,3.2-20,8.3
		c-5.1,5.1-8.3,12.2-8.3,20c0,7.8,3.1,14.9,8.3,20c0.1,0.1,0.3,0.3,0.4,0.4l5.6-6c0,0,0,0,0.1,0.1C36.6,65,34.3,59.9,34.3,54.2z"/>
	<path d="M74.4,34.4l-5.6,6c3.4,3.6,5.5,8.5,5.5,13.8c0,11.1-9,20.1-20,20.1c-3.4,0-6.5-0.8-9.3-2.3l0,0l-4,7.2
		c4,2.1,8.5,3.3,13.3,3.3c7.8,0,14.9-3.2,20-8.3c5.1-5.1,8.3-12.2,8.3-20C82.6,46.5,79.5,39.5,74.4,34.4z"/>
</g>
<path d="M38.9,54.2c0-8.5,6.9-15.4,15.4-15.4l0,0c8.5,0,15.4,6.9,15.4,15.4l0,0c0,8.5-6.9,15.4-15.4,15.4l0,0
	C45.8,69.6,38.9,62.7,38.9,54.2L38.9,54.2z M39.6,54.2c0,8.1,6.6,14.7,14.7,14.7l0,0c8.1,0,14.7-6.6,14.7-14.7l0,0
	c0-8.1-6.6-14.7-14.7-14.7l0,0C46.2,39.5,39.6,46.1,39.6,54.2L39.6,54.2z"/>
<path d="M56.7,54.2c0,1.3-1.1,2.4-2.4,2.4c-1.3,0-2.4-1.1-2.4-2.4c0-1.3,1.1-2.4,2.4-2.4C55.7,51.8,56.7,52.9,56.7,54.2z"/>
<g>
	<path d="M28.8,81.1l5.7-6.2c-5.4-5.2-8.8-12.5-8.8-20.7c0-15.9,12.8-28.7,28.7-28.7c5.2,0,10,1.4,14.2,3.8l4-7.4
		c-5.4-3-11.6-4.8-18.2-4.8c-10.2,0-19.5,4.2-26.2,10.9c-6.7,6.7-10.9,16-10.9,26.2c0,10.2,4.1,19.5,10.9,26.2
		C28.3,80.6,28.5,80.9,28.8,81.1z"/>
	<path d="M80.5,28C80.5,28,80.5,27.9,80.5,28l-5.8,6.1c5.1,5.2,8.3,12.3,8.3,20.1c0,15.8-12.8,28.7-28.7,28.7
		c-4.9,0-9.5-1.2-13.5-3.4l-4.1,7.3c5.3,2.9,11.3,4.5,17.7,4.5c10.2,0,19.5-4.2,26.2-10.9c6.7-6.7,10.9-16,10.9-26.2
		C91.4,44,87.2,34.7,80.5,28z"/>
</g>
<g>
	<path d="M86.8,21.7c-0.1-0.1-0.2-0.2-0.3-0.3l-5.7,6.2c6.8,6.8,11.1,16.2,11.1,26.6c0,20.7-16.8,37.5-37.5,37.5
		c-6.5,0-12.6-1.6-17.9-4.5l-4.1,7.3c6.5,3.6,14,5.6,22,5.6c12.7,0,24.2-5.1,32.5-13.5c8.3-8.3,13.4-19.8,13.4-32.5
		C100.2,41.5,95.1,30,86.8,21.7z"/>
	<path d="M22.7,87.6l5.7-6.2c-7.2-6.8-11.7-16.5-11.7-27.2c0-20.7,16.8-37.5,37.5-37.5c6.7,0,13,1.8,18.4,4.8l4-7.4
		c-6.6-3.7-14.3-5.9-22.5-5.9c-12.7,0-24.2,5.1-32.5,13.5C13.5,30,8.4,41.5,8.4,54.2c0,12.7,5.2,24.2,13.5,32.5
		C22.1,87,22.4,87.3,22.7,87.6z"/>
</g>
<g>
	<path class="st0" d="M17.1,93.7"/>
	<path class="st0" d="M28.2,101.8"/>
	<path d="M92,15.5l-5.2,5.6c8.6,8.4,13.9,20.1,13.9,33.1c0,25.6-20.8,46.4-46.4,46.4c-8.1,0-15.6-2.1-22.2-5.7l-3.9,6.9
		c7.7,4.2,16.6,6.7,26,6.7c29.9,0,54.2-24.3,54.2-54.2C108.4,39.1,102.1,25.3,92,15.5z"/>
</g>
<path d="M55.1,0.1h-0.9C24.5,0.1,0.3,24.1,0,53.8l0,0v0.5c0,15.5,6.6,29.5,17.1,39.4l5.4-5.8C13.5,79.4,7.9,67.5,7.9,54.2
	c0-25.6,20.8-46.4,46.4-46.4c8.2,0,16,2.2,22.7,5.9L80.7,7C73.1,2.7,64.4,0.2,55.1,0.1z"/>
</svg>
