<svg xmlns="http://www.w3.org/2000/svg" xml:space="preserve" viewBox="423.1 253.6 138.3 134.5">
  <path fill="#7abf42" d="M486.1 354.6c-16.3 0-29.5-13.3-29.5-29.6s13.3-29.5 29.6-29.5c11.9 0 22.7 7.2 27.2 18.2h19.7c-.4-1.6-.8-3.1-1.3-4.6l11.4-10.3-5.6-9.9-15.2 4.2c-1.3-1.5-2.7-2.9-4.3-4.3l4.6-14.4-9.8-5.9-11.6 10.5c-2-.7-4-1.2-6-1.6l-3.6-14.7-11.4-.2-3.9 15c-2.1.4-4.2 1-6.3 1.7l-10.7-11.1-10 5.5 4.2 15.4c-1.4 1.3-2.8 2.6-4.1 4.1l-15.2-4.2-6 9.7 11.5 11.2c-.6 1.9-1.2 3.8-1.5 5.8l-14.9 4.2-.3 11.4 15.3 4.1c.4 2.1 1 4.1 1.7 6.1l-11.7 10.1 5.4 10 15.8-4.3c1.2 1.4 2.5 2.7 3.9 3.9l-3.7 15.8 9.7 5.5 11.5-11.2c1.7.6 3.5 1 5.3 1.4l3.7 15.5h11.4l3.8-15.5c2.1-.4 4.1-1 6.1-1.6l10.5 11.3 10.1-5.6-4.2-15c1.6-1.4 3.1-2.8 4.5-4.4l14.7 4.4 5.8-9.8-9.2-9H510c-5.6 7.4-14.5 11.8-23.9 11.7z"/>
  <path fill="#d8dadb" d="M520 274.5c-10.6 0-19.2 8.6-19.1 19.3 0 10.6 8.6 19.2 19.3 19.1 10.6 0 19.1-8.6 19.1-19.2s-8.7-19.2-19.3-19.2zm30.9 25.6c-.3 1.3-.6 2.7-1.1 3.9l7.1 7-3.8 6.4-9.5-2.9c-.9 1-1.9 2-2.9 2.9l2.6 9.7-6.4 3.7-6.8-7.3c-1.3.4-2.6.8-4 1.1l-2.5 10.1h-7.4l-2.3-10.1c-1.2-.2-2.3-.5-3.5-.9L503 331l-6.3-3.5 2.4-10.2c-.9-.8-1.8-1.7-2.6-2.6l-10.2 2.8-3.3-6.3 7.6-6.6c-.5-1.3-.8-2.6-1.1-4l-9.9-2.6.2-7.4 9.6-2.6c.2-1.3.6-2.5 1-3.8l-7.5-7.2 3.9-6.3 9.8 2.6c.8-.9 1.7-1.8 2.6-2.6l-2.6-10 6.5-3.5 7 7.2c1.3-.5 2.7-.8 4.1-1.1l2.6-9.7 7.4.2 2.3 9.6c1.3.3 2.6.6 3.9 1l7.5-6.9 6.4 3.8-3 9.4c1 .9 1.9 1.8 2.8 2.8l9.8-2.8 3.6 6.5-7.4 6.7c.5 1.5.9 3 1.2 4.5l10.1 2.6v7.4l-10.1 2.2-.4-.5z"/>
</svg>