<svg xmlns="http://www.w3.org/2000/svg" viewBox="0 0 38 32">
	<g fill="none" fill-rule="evenodd">
		
		<path d="M19.161 3.00854H3.00391V14.2368H3.00558V16.2257L6.34646 10.3258L9.54383 16.6385L14.8439 4.23867L19.161 13.9894V3.00854Z" fill="#ECECEC"/>
		<path d="M3.00391 24.1128V26.6048H19.161V18.1811H16.8797L14.9056 13.7202L9.83253 25.5869L6.16123 18.3382L3.68309 22.7205C3.52184 23.0076 3.28824 23.2474 3.00558 23.4158V24.1195L3.00391 24.1128Z" fill="#ECECEC"/>
		<path d="M19.1609 18.1811V26.6048H3.00379V24.1128V14.2367V3.00846H19.1609V13.9893L19.3177 14.342H22.1646V1.00282C22.1646 0.736856 22.0592 0.481785 21.8714 0.29372C21.6836 0.105655 21.4289 0 21.1634 0H1.00126C0.735712 0 0.481031 0.105655 0.293258 0.29372C0.105484 0.481785 0 0.736856 0 1.00282V30.9972C0 31.2631 0.105484 31.5182 0.293258 31.7063C0.481031 31.8943 0.735712 32 1.00126 32H21.1634C21.4289 32 21.6836 31.8943 21.8714 31.7063C22.0592 31.5182 22.1646 31.2631 22.1646 30.9972V18.1811H19.1609ZM9.75397 29.7303C9.75397 29.3943 9.88725 29.072 10.1245 28.8345C10.3617 28.5969 10.6834 28.4634 11.0189 28.4634C11.1852 28.4632 11.3498 28.4958 11.5035 28.5593C11.6572 28.6229 11.7968 28.7162 11.9144 28.8339C12.0321 28.9515 12.1254 29.0913 12.1891 29.2451C12.2527 29.3989 12.2855 29.5638 12.2855 29.7303C12.2855 29.8968 12.2527 30.0617 12.1891 30.2155C12.1254 30.3693 12.0321 30.509 11.9144 30.6267C11.7968 30.7444 11.6572 30.8377 11.5035 30.9012C11.3498 30.9648 11.1852 30.9974 11.0189 30.9972C10.6834 30.9972 10.3617 30.8637 10.1245 30.6261C9.88725 30.3885 9.75397 30.0663 9.75397 29.7303Z" fill="#7C7B7B"/>
		<path d="M12.2835 29.7303C12.2835 29.5638 12.2507 29.3989 12.187 29.2451C12.1234 29.0913 12.0301 28.9515 11.9124 28.8339C11.7948 28.7162 11.6551 28.6229 11.5015 28.5593C11.3478 28.4958 11.1831 28.4632 11.0169 28.4634C10.6814 28.4634 10.3597 28.5969 10.1225 28.8344C9.88524 29.072 9.75195 29.3943 9.75195 29.7303C9.75195 30.0663 9.88524 30.3885 10.1225 30.6261C10.3597 30.8637 10.6814 30.9972 11.0169 30.9972C11.1831 30.9974 11.3478 30.9648 11.5015 30.9012C11.6551 30.8377 11.7948 30.7444 11.9124 30.6267C12.0301 30.509 12.1234 30.3693 12.187 30.2155C12.2507 30.0617 12.2835 29.8968 12.2835 29.7303Z" fill="#ECECEC"/>
		<path d="M37.7846 16.2623C37.7868 16.0122 37.7398 15.7641 37.6462 15.5322C37.5526 15.3002 37.4143 15.0891 37.2391 14.9107C37.064 14.7324 36.8555 14.5903 36.6255 14.4928C36.3956 14.3952 36.1487 14.3439 35.8989 14.3419H19.318L19.1611 13.9893L14.8457 4.23853L9.54397 16.6384L6.34829 10.3256L3.01074 16.2256V23.4125C3.2934 23.244 3.527 23.0043 3.68825 22.7172L6.16805 18.3415L9.83935 25.5902L14.9124 13.7235L16.8866 18.1844H35.9106C36.4133 18.1774 36.8927 17.9712 37.2439 17.6109C37.5951 17.2507 37.7895 16.7658 37.7846 16.2623Z" fill="#00AEEF"/>

	</g>
</svg>
