<?xml version="1.0" encoding="UTF-8" standalone="no"?>
<svg xmlns="http://www.w3.org/2000/svg" version="1.1" viewBox="0 0 140 140"><path d="M 68.3,9.7 8,70 68.3,130.3 Z" fill="#4E4E56" /><path d="M 71.7,9.7 V 130.3 L 132,70 Z" fill="#00B2AD" /><path d="m 90.7,91 c -6.6,0 -11.8,-3.6 -14,-12 l 8,-1.7 c 0.9,5.1 3.9,7 6.3,7 2.8,0 5,-1.9 5,-5.1 0,-8 -18.2,-8.2 -18.2,-20.1 0,-7.3 4.4,-12 12.8,-12 7.3,0 11.7,4.3 13.1,10.4 l -7.3,2.1 c -1.4,-4 -3.1,-5.7 -6,-5.7 -2.9,0 -4.5,1.8 -4.5,4.7 0,6.4 18.2,6.9 18.2,20.3 0.2,7.2 -4.9,12.1 -13.4,12.1 z" fill="#FFFFFF" /><path d="m 60.7,63.9 h -8.2 v -3.6 c 0,-4.7 -2.1,-6 -5.3,-6 -3.2,0 -5.3,1.3 -5.3,6 v 17.4 c 0,4.7 2.1,6 5.3,6 3.2,0 5.3,-1.3 5.3,-6 v -3.8 h 8.2 v 2.7 c 0,10.5 -5.6,14.3 -13.5,14.3 -7.9,0 -13.5,-3.8 -13.5,-14.3 V 61.4 c 0,-10.5 5.6,-14.3 13.5,-14.3 7.9,0 13.5,3.8 13.5,14.3 z" fill="#FFFFFF" /></svg>
