<svg xmlns="http://www.w3.org/2000/svg" xmlns:xlink="http://www.w3.org/1999/xlink" version="1.1" x="0px" y="0px" enable-background="new 0 0 300 300" xml:space="preserve" viewBox="0.99 32.70 298.04 234.67">
<g>
<path d="M246.3,95.5c20.7,1.3,38.1,11.3,47.4,32.4c9.3,21.2,6.6,41.8-9.4,58.6c-25,26.3-51.1,51.6-76.8,77.2         c-4.7,4.7-10.7,4.8-14.8,0.8c-4.2-4.1-3.9-10.4,0.9-15.2c24.5-24.6,49.2-49.2,73.7-73.8c9.9-9.9,13.6-21.6,9.6-35.1         c-3.9-13-12.8-21.2-26.1-23.9c-12.6-2.6-23.3,1.4-32.3,10.5c-29.3,29.4-58.6,58.7-87.9,88c-1.9,1.9-3.7,3.9-5.8,5.6         c-4.2,3.4-9.9,3.1-13.5-0.5c-3.6-3.6-3.9-9.3-0.6-13.6c0.9-1.2,2.1-2.2,3.2-3.3c29.8-29.9,59.7-59.7,89.5-89.6         C214.8,102,228.2,95.7,246.3,95.5z"/>
<path d="M61.8,204.3c-27.8,0.1-47.9-12.5-56-32.6c-8.8-21.9-5.7-42.4,10.8-59.4c24.7-25.6,50.1-50.4,75.2-75.5         c5-5,11.1-5.3,15.3-1.2c4.3,4.2,3.8,10.5-1.3,15.6c-24.7,24.7-49.5,49.4-74.1,74.3c-10,10.1-13.1,22.4-8.3,35.9         c4.8,13.5,14.7,21.2,28.9,22.8c11.4,1.3,20.9-2.9,28.9-11c29.5-29.6,59.1-59.2,88.7-88.8c1.4-1.4,2.7-2.8,4.1-4         c4.6-4.2,10.4-4.3,14.4-0.3c3.9,3.9,4,10-0.1,14.4c-4.9,5.1-9.9,10-14.9,15c-26.1,26.1-52.2,52.1-78.2,78.2         C84.3,198.5,71.4,204.2,61.8,204.3z"/>
<path d="M118.5,267.3c-14-0.1-26.2-4.8-36.6-14c-5.5-4.9-6.3-11.1-2.3-15.6c4.2-4.6,9.8-4.4,15.6,0.5c15.1,12.9,34.3,12.2,48.5-2         c30-30,60-60,90-90.1c7-7,12.9-8,17.7-3c4.6,4.9,3.5,10.3-3.4,17.2c-30,30-60,60-90,90C146.7,261.7,133.6,267.2,118.5,267.3z"/>
<path d="M181.4,32.7c14.4,0.4,26.3,4.9,36.4,14c5.5,4.9,6.4,11.1,2.5,15.6c-4,4.6-10.1,4.4-15.7-0.4c-15.1-12.9-34.3-12.3-48.5,1.9         C126,93.9,95.9,124,65.7,154.2c-0.7,0.7-1.3,1.4-2,2c-5.1,4.8-11,5.1-15.2,0.7c-4.2-4.2-3.7-10.1,1.3-15.2c3.5-3.6,7-7,10.5-10.6         c27.4-27.4,54.9-54.9,82.3-82.3C153.5,37.9,166.9,32.7,181.4,32.7z"/>
</g>
</svg>
