<svg viewBox="0 0 744 643" version="1.1" xmlns="http://www.w3.org/2000/svg" xmlns:xlink="http://www.w3.org/1999/xlink">
    <!-- Generator: Sketch 52.2 (67145) - http://www.bohemiancoding.com/sketch -->
    <title>squarespace-logo-tertiary-black</title>
    <desc>Created with Sketch.</desc>
    <defs>
        <polygon id="path-1" points="0.451 0.641 225.2635 0.641 225.2635 209.9702 0.451 209.9702"></polygon>
        <polygon id="path-3" points="0.6932 0.5921 36.4282 0.5921 36.4282 40 0.6932 40"></polygon>
        <polygon id="path-5" points="0.6712 0.287 24.098 0.287 24.098 35.923 0.6712 35.923"></polygon>
    </defs>
    <g id="squarespace-logo-tertiary-black" stroke="none" stroke-width="1" fill="none" fill-rule="evenodd">
        <rect id="clear-space" fill="#FFFFFF" opacity="0" x="0" y="0" width="745" height="643"></rect>
        <g transform="translate(176.000000, 134.000000)" id="Group-34">
            <g>
                <path d="M91.5193,153.8658 L204.4483,40.9378 C212.1203,33.2668 222.3333,29.0428 233.2133,29.0428 C244.0863,29.0428 254.2963,33.2618 261.9623,40.9288 L270.7623,49.7278 L288.3603,32.1298 L279.5603,23.3298 C267.2023,10.9708 250.7423,4.1628 233.2053,4.1628 C215.6763,4.1648 199.2133,10.9748 186.8503,23.3388 L73.9213,136.2688 L91.5193,153.8658 Z" id="Fill-1" fill="#030303"></path>
                <g id="Group-5" transform="translate(17.000000, 0.360000)">
                    <mask id="mask-2" fill="white">
                        <use xlink:href="#path-1"></use>
                    </mask>
                    <g id="Clip-4"></g>
                    <path d="M225.2635,77.8652 L207.6655,60.2672 L94.7365,173.1962 C78.8755,189.0542 53.0765,189.0582 37.2215,173.2052 C21.3645,157.3442 21.3645,131.5402 37.2215,115.6812 L134.6635,18.2392 L117.0655,0.6402 L19.6225,98.0832 C-5.9395,123.6452 -5.9395,165.2412 19.6225,190.8032 C31.9845,203.1632 48.4445,209.9702 65.9715,209.9702 C83.5035,209.9702 99.9705,203.1612 112.3345,190.7952 L225.2635,77.8652 Z" id="Fill-3" fill="#030303" mask="url(#mask-2)"></path>
                </g>
                <path d="M354.6746,98.4429 C342.3146,86.0849 325.8546,79.2759 308.3186,79.2759 C290.7856,79.2779 274.3226,86.0889 261.9626,98.4519 L149.0346,211.3799 L166.6326,228.9789 L279.5606,116.0479 C295.4226,100.1899 321.2226,100.1929 337.0756,116.0419 C344.7456,123.7109 348.9696,133.9249 348.9696,144.8019 C348.9696,155.6819 344.7456,165.8959 337.0756,173.5649 L239.6326,271.0069 L257.2326,288.6039 L354.6746,191.1639 C380.2376,165.6009 380.2376,124.0049 354.6746,98.4429" id="Fill-6" fill="#030303"></path>
                <path d="M299.7796,135.7408 L186.8506,248.6698 C170.9896,264.5248 145.1906,264.5298 129.3346,248.6788 L120.5356,239.8788 L102.9366,257.4778 L111.7366,266.2748 C124.0946,278.6368 140.5536,285.4438 158.0926,285.4438 C175.6216,285.4418 192.0856,278.6318 204.4486,266.2678 L317.3776,153.3408 L299.7796,135.7408 Z" id="Fill-8" fill="#030303"></path>
                <path d="M6.055,361.0582 C6.419,362.8452 7.271,364.2442 8.611,365.2522 C9.951,366.2622 11.713,366.7662 13.897,366.7662 C16.048,366.7662 17.71,366.2702 18.885,365.2772 C20.059,364.2852 20.647,362.9782 20.647,361.3562 C20.647,360.5622 20.49,359.8922 20.176,359.3462 C19.861,358.8002 19.423,358.3372 18.86,357.9562 C18.297,357.5772 17.602,357.2532 16.776,356.9892 C15.948,356.7242 15.021,356.4432 13.996,356.1452 L11.316,355.4012 C9.728,354.9712 8.305,354.4502 7.048,353.8372 C5.79,353.2252 4.715,352.5052 3.822,351.6782 C2.929,350.8512 2.25,349.9002 1.787,348.8242 C1.323,347.7492 1.092,346.4992 1.092,345.0772 C1.092,343.5882 1.39,342.2152 1.985,340.9572 C2.581,339.7012 3.425,338.6242 4.516,337.7312 C5.609,336.8382 6.931,336.1352 8.487,335.6212 C10.042,335.1102 11.795,334.8532 13.748,334.8532 C17.421,334.8532 20.332,335.7212 22.483,337.4582 C24.634,339.1962 25.891,341.5202 26.256,344.4322 L20.3,344.9282 C19.935,343.4392 19.208,342.2812 18.116,341.4542 C17.024,340.6272 15.502,340.2132 13.55,340.2132 C11.729,340.2132 10.306,340.6352 9.281,341.4792 C8.255,342.3232 7.742,343.4072 7.742,344.7302 C7.742,345.4912 7.891,346.1272 8.189,346.6402 C8.487,347.1542 8.917,347.6002 9.48,347.9802 C10.042,348.3612 10.728,348.7002 11.539,348.9972 C12.35,349.2952 13.268,349.6112 14.294,349.9412 L16.826,350.7352 C18.413,351.2312 19.845,351.7522 21.118,352.2982 C22.392,352.8442 23.476,353.4982 24.369,354.2592 C25.263,355.0202 25.949,355.9302 26.429,356.9892 C26.909,358.0482 27.149,359.3552 27.149,360.9102 C27.149,362.5652 26.818,364.0792 26.156,365.4512 C25.494,366.8252 24.568,367.9912 23.377,368.9502 C22.186,369.9102 20.771,370.6552 19.133,371.1832 C17.495,371.7122 15.684,371.9782 13.699,371.9782 C10.026,371.9782 6.965,371.1182 4.516,369.3972 C2.068,367.6762 0.562,365.0792 0,361.6042 L6.055,361.0582 Z" id="Fill-10" fill="#000000"></path>
                <g id="Group-14" transform="translate(34.000000, 334.360000)">
                    <mask id="mask-4" fill="white">
                        <use xlink:href="#path-3"></use>
                    </mask>
                    <g id="Clip-13"></g>
                    <path d="M18.4612,5.9521 C16.6742,5.9521 15.0782,6.2831 13.6712,6.9431 C12.2652,7.6041 11.0742,8.5201 10.0982,9.6921 C9.1222,10.8651 8.3772,12.2531 7.8642,13.8531 C7.3512,15.4561 7.0952,17.1981 7.0952,19.0801 C7.0952,20.9631 7.3602,22.7131 7.8892,24.3321 C8.4182,25.9501 9.1712,27.3531 10.1482,28.5431 C11.1232,29.7311 12.3152,30.6641 13.7212,31.3421 C15.1272,32.0181 16.7242,32.3561 18.5112,32.3561 C20.2972,32.3561 21.8942,32.0351 23.3002,31.3911 C24.7062,30.7471 25.8982,29.8471 26.8742,28.6901 C27.8492,27.5351 28.6022,26.1391 29.1322,24.5051 C29.6612,22.8701 29.9262,21.0781 29.9262,19.1301 C29.9262,17.2141 29.6612,15.4471 29.1322,13.8291 C28.6022,12.2121 27.8492,10.8241 26.8742,9.6681 C25.8982,8.5131 24.6982,7.6041 23.2752,6.9431 C21.8522,6.2831 20.2482,5.9521 18.4612,5.9521 M18.5112,0.5921 C21.1912,0.5921 23.6392,1.0471 25.8562,1.9571 C28.0732,2.8671 29.9592,4.1401 31.5142,5.7781 C33.0692,7.4171 34.2762,9.3771 35.1372,11.6601 C35.9982,13.9431 36.4282,16.4411 36.4282,19.1541 C36.4282,21.9681 35.9732,24.5071 35.0632,26.7731 C34.1522,29.0401 32.8552,31.0001 31.1672,32.6541 L35.9322,38.2631 L35.9322,40.0001 L29.8772,40.0001 L26.5512,35.9311 C25.3932,36.4601 24.1512,36.8731 22.8292,37.1711 C21.5052,37.4691 20.0822,37.6181 18.5602,37.6181 C15.8142,37.6181 13.3402,37.1621 11.1402,36.2531 C8.9402,35.3431 7.0702,34.0691 5.5322,32.4311 C3.9932,30.7931 2.8022,28.8421 1.9592,26.5741 C1.1152,24.3081 0.6932,21.8351 0.6932,19.1541 C0.6932,16.4411 1.1152,13.9521 1.9592,11.6841 C2.8022,9.4191 4.0012,7.4661 5.5572,5.8281 C7.1112,4.1901 8.9892,2.9081 11.1902,1.9811 C13.3902,1.0561 15.8312,0.5921 18.5112,0.5921" id="Fill-12" fill="#000000" mask="url(#mask-4)"></path>
                </g>
                <path d="M94.0023,366.9644 C96.5503,366.9644 98.5353,366.1794 99.9583,364.6074 C101.3803,363.0354 102.0923,360.6284 102.0923,357.3854 L102.0923,335.6474 L108.3463,335.6474 L108.3463,357.5344 C108.3463,360.1154 108.0153,362.3234 107.3533,364.1604 C106.6913,365.9964 105.7483,367.5024 104.5243,368.6774 C103.3003,369.8524 101.7943,370.7124 100.0083,371.2584 C98.2213,371.8044 96.2193,372.0764 94.0023,372.0764 C91.7523,372.0764 89.7423,371.8044 87.9723,371.2584 C86.2013,370.7124 84.7043,369.8524 83.4803,368.6774 C82.2563,367.5024 81.3133,365.9964 80.6513,364.1604 C79.9893,362.3234 79.6593,360.1154 79.6593,357.5344 L79.6593,335.6474 L85.9123,335.6474 L85.9123,357.3854 C85.9123,360.6284 86.6233,363.0354 88.0463,364.6074 C89.4693,366.1794 91.4543,366.9644 94.0023,366.9644" id="Fill-15" fill="#000000"></path>
                <path d="M125.8641,355.7476 L137.6271,355.7476 L135.6911,350.0896 C134.9291,347.8736 134.3181,346.0696 133.8551,344.6806 C133.3911,343.2906 132.9771,342.0666 132.6141,341.0076 L131.0751,341.0076 C130.8771,341.5696 130.6781,342.1326 130.4801,342.6946 C130.2811,343.2576 130.0581,343.8866 129.8101,344.5806 C129.5611,345.2756 129.2881,346.0696 128.9901,346.9636 C128.6931,347.8556 128.3281,348.8986 127.8991,350.0896 L125.8641,355.7476 Z M114.5971,369.5456 L127.2541,335.6466 L136.6341,335.6466 L149.1411,369.5456 L149.1411,371.2826 L142.9871,371.2826 L139.4131,361.1076 L123.9781,361.1076 L120.4051,371.2826 L114.5971,371.2826 L114.5971,369.5456 Z" id="Fill-17" fill="#000000"></path>
                <path d="M163.1873,351.9263 L168.5973,351.9263 C170.9803,351.9263 172.8573,351.4913 174.2303,350.6233 C175.6033,349.7543 176.2913,348.3363 176.2913,346.3673 C176.2913,344.3673 175.5953,342.9743 174.2053,342.1873 C172.8163,341.4013 170.9473,341.0073 168.5973,341.0073 L163.1873,341.0073 L163.1873,351.9263 Z M184.0823,371.2823 L178.0763,371.2823 L167.2073,357.2863 L163.1873,357.2863 L163.1873,371.2823 L157.0333,371.2823 L157.0333,335.6473 L168.5973,335.6473 C170.4163,335.6473 172.1463,335.7713 173.7833,336.0193 C175.4213,336.2673 176.9023,336.8383 178.2263,337.7313 C181.0373,339.5833 182.4453,342.3793 182.4453,346.1163 C182.4453,347.7383 182.2053,349.1523 181.7243,350.3603 C181.2443,351.5673 180.6073,352.5923 179.8143,353.4363 C179.0193,354.2803 178.1013,354.9663 177.0603,355.4943 C176.0173,356.0243 174.9333,356.4213 173.8083,356.6853 L184.0823,369.5443 L184.0823,371.2823 Z" id="Fill-19" fill="#000000"></path>
                <polygon id="Fill-21" fill="#000000" points="192.0237 335.647 215.1027 335.647 215.1027 341.106 198.1287 341.106 198.1287 350.437 213.9117 350.437 213.9117 355.797 198.1287 355.797 198.1287 365.823 215.4507 365.823 215.4507 371.283 192.0237 371.283"></polygon>
                <path d="M229.2479,361.0582 C229.6109,362.8452 230.4639,364.2442 231.8039,365.2522 C233.1439,366.2622 234.9059,366.7662 237.0899,366.7662 C239.2399,366.7662 240.9019,366.2702 242.0779,365.2772 C243.2519,364.2852 243.8399,362.9782 243.8399,361.3562 C243.8399,360.5622 243.6829,359.8922 243.3679,359.3462 C243.0539,358.8002 242.6149,358.3372 242.0529,357.9562 C241.4899,357.5772 240.7949,357.2532 239.9689,356.9892 C239.1409,356.7242 238.2139,356.4432 237.1879,356.1452 L234.5089,355.4012 C232.9209,354.9712 231.4969,354.4502 230.2399,353.8372 C228.9819,353.2252 227.9069,352.5052 227.0149,351.6782 C226.1209,350.8512 225.4419,349.9002 224.9789,348.8242 C224.5159,347.7492 224.2839,346.4992 224.2839,345.0772 C224.2839,343.5882 224.5819,342.2152 225.1779,340.9572 C225.7729,339.7012 226.6169,338.6242 227.7089,337.7312 C228.8009,336.8382 230.1239,336.1352 231.6799,335.6212 C233.2339,335.1102 234.9879,334.8532 236.9399,334.8532 C240.6129,334.8532 243.5239,335.7212 245.6759,337.4582 C247.8259,339.1962 249.0839,341.5202 249.4479,344.4322 L243.4919,344.9282 C243.1279,343.4392 242.3999,342.2812 241.3089,341.4542 C240.2169,340.6272 238.6939,340.2132 236.7419,340.2132 C234.9219,340.2132 233.4989,340.6352 232.4739,341.4792 C231.4479,342.3232 230.9349,343.4072 230.9349,344.7302 C230.9349,345.4912 231.0839,346.1272 231.3819,346.6402 C231.6799,347.1542 232.1089,347.6002 232.6719,347.9802 C233.2339,348.3612 233.9209,348.7002 234.7319,348.9972 C235.5429,349.2952 236.4609,349.6112 237.4859,349.9412 L240.0179,350.7352 C241.6059,351.2312 243.0369,351.7522 244.3109,352.2982 C245.5839,352.8442 246.6689,353.4982 247.5609,354.2592 C248.4549,355.0202 249.1419,355.9302 249.6219,356.9892 C250.1009,358.0482 250.3419,359.3552 250.3419,360.9102 C250.3419,362.5652 250.0109,364.0792 249.3489,365.4512 C248.6859,366.8252 247.7609,367.9912 246.5689,368.9502 C245.3779,369.9102 243.9639,370.6552 242.3259,371.1832 C240.6869,371.7122 238.8759,371.9782 236.8909,371.9782 C233.2189,371.9782 230.1569,371.1182 227.7089,369.3972 C225.2599,367.6762 223.7549,365.0792 223.1919,361.6042 L229.2479,361.0582 Z" id="Fill-23" fill="#000000"></path>
                <path d="M265.4778,352.2242 L271.4338,352.2242 C272.5258,352.2242 273.5268,352.1342 274.4368,351.9532 C275.3458,351.7732 276.1408,351.4702 276.8188,351.0432 C277.4978,350.6172 278.0268,350.0432 278.4078,349.3212 C278.7878,348.6002 278.9778,347.7142 278.9778,346.6642 C278.9778,345.5822 278.7878,344.6732 278.4078,343.9352 C278.0268,343.1972 277.5048,342.6152 276.8438,342.1882 C276.1818,341.7612 275.3958,341.4582 274.4868,341.2782 C273.5758,341.0982 272.5918,341.0072 271.5338,341.0072 L265.4778,341.0072 L265.4778,352.2242 Z M259.2738,335.6472 L272.2778,335.6472 C274.6928,335.6472 276.7198,335.9282 278.3578,336.4912 C279.9958,337.0532 281.3188,337.8302 282.3288,338.8242 C283.3368,339.8162 284.0658,340.9822 284.5118,342.3232 C284.9578,343.6622 285.1818,345.1102 285.1818,346.6652 C285.1818,348.5192 284.8758,350.1312 284.2638,351.5042 C283.6518,352.8772 282.7668,354.0102 281.6088,354.9042 C280.4498,355.7972 279.0438,356.4672 277.3898,356.9142 C275.7348,357.3612 273.8658,357.5842 271.7818,357.5842 L265.4778,357.5842 L265.4778,371.2832 L259.2738,371.2832 L259.2738,335.6472 Z" id="Fill-25" fill="#000000"></path>
                <path d="M298.1863,355.7476 L309.9493,355.7476 L308.0133,350.0896 C307.2513,347.8736 306.6393,346.0696 306.1763,344.6806 C305.7133,343.2906 305.2993,342.0666 304.9363,341.0076 L303.3973,341.0076 C303.1993,341.5696 303.0003,342.1326 302.8013,342.6946 C302.6033,343.2576 302.3793,343.8866 302.1313,344.5806 C301.8833,345.2756 301.6113,346.0696 301.3133,346.9636 C301.0153,347.8556 300.6513,348.8986 300.2213,350.0896 L298.1863,355.7476 Z M286.9193,369.5456 L299.5763,335.6466 L308.9563,335.6466 L321.4633,369.5456 L321.4633,371.2826 L315.3093,371.2826 L311.7363,361.1076 L296.3003,361.1076 L292.7263,371.2826 L286.9193,371.2826 L286.9193,369.5456 Z" id="Fill-27" fill="#000000"></path>
                <path d="M359.2835,361.8531 C358.7215,363.2431 357.9845,364.5511 357.0755,365.7781 C356.1645,367.0051 355.0645,368.0801 353.7745,368.9981 C352.4845,369.9161 350.9865,370.6421 349.2825,371.1761 C347.5785,371.7101 345.6845,371.9781 343.5995,371.9781 C340.9525,371.9781 338.5455,371.5141 336.3785,370.5871 C334.2115,369.6621 332.3615,368.3791 330.8295,366.7421 C329.2975,365.1031 328.1145,363.1521 327.2805,360.8851 C326.4465,358.6191 326.0305,356.1621 326.0305,353.5141 C326.0305,350.8681 326.4465,348.4111 327.2805,346.1441 C328.1145,343.8781 329.3045,341.9171 330.8535,340.2621 C332.4025,338.6091 334.2615,337.3091 336.4285,336.3671 C338.5955,335.4231 341.0185,334.9521 343.6995,334.9521 C347.6025,334.9521 350.8715,335.8631 353.5015,337.6821 C356.1325,339.5011 357.9935,341.9171 359.0855,344.9281 L352.7825,346.1681 C351.9215,344.3491 350.7215,342.9171 349.1835,341.8751 C347.6445,340.8331 345.7835,340.3121 343.5995,340.3121 C341.8465,340.3121 340.2825,340.6501 338.9095,341.3261 C337.5365,342.0021 336.3785,342.9331 335.4355,344.1201 C334.4925,345.3061 333.7725,346.7071 333.2765,348.3231 C332.7805,349.9381 332.5325,351.6681 332.5325,353.5141 C332.5325,355.3931 332.7885,357.1321 333.3015,358.7311 C333.8135,360.3311 334.5585,361.7141 335.5345,362.8851 C336.5105,364.0551 337.6935,364.9691 339.0835,365.6281 C340.4725,366.2881 342.0615,366.6181 343.8475,366.6181 C346.1645,366.6181 348.0745,366.0551 349.5805,364.9301 C351.0865,363.8051 352.2525,362.4321 353.0795,360.8101 L359.2835,361.8531 Z" id="Fill-29" fill="#000000"></path>
                <g id="Group-33" transform="translate(367.000000, 335.360000)">
                    <mask id="mask-6" fill="white">
                        <use xlink:href="#path-5"></use>
                    </mask>
                    <g id="Clip-32"></g>
                    <polygon id="Fill-31" fill="#000000" mask="url(#mask-6)" points="0.6712 0.287 23.7502 0.287 23.7502 5.746 6.7762 5.746 6.7762 15.077 22.5592 15.077 22.5592 20.437 6.7762 20.437 6.7762 30.463 24.0982 30.463 24.0982 35.923 0.6712 35.923"></polygon>
                </g>
            </g>
        </g>
    </g>
</svg>