<svg viewBox="0 0 64 64" fill="none" xmlns="http://www.w3.org/2000/svg">
<path d="M39.8751 42.8716H3.07323C1.38295 42.8716 0 41.4886 0 39.7983C0 38.1081 1.38295 36.7251 3.07323 36.7251H39.8751C41.5654 36.7251 42.9484 38.1081 42.9484 39.7983C42.9484 41.4886 41.5654 42.8716 39.8751 42.8716Z" fill="#99CFAC"/>
<path d="M32.0384 61.695C29.042 61.695 26.0456 61.234 23.2028 60.3889C21.5894 59.8511 20.6674 58.1608 21.2052 56.5473C21.7431 54.9339 23.4333 54.0119 25.0468 54.5497C27.2749 55.2412 29.6566 55.6254 32.0384 55.6254C42.4874 55.6254 51.5534 48.9411 54.5498 38.9531C55.0108 37.3397 56.7779 36.4177 58.3913 36.8787C60.0047 37.3397 60.9267 39.1068 60.4657 40.7202C56.5474 53.2436 45.1764 61.695 32.0384 61.695Z" fill="#49B881"/>
<path d="M60.9268 27.2749H24.1249C22.4346 27.2749 21.0516 25.8919 21.0516 24.2016C21.0516 22.5114 22.4346 21.1284 24.1249 21.1284H60.9268C62.617 21.1284 64 22.5114 64 24.2016C64 25.8919 62.617 27.2749 60.9268 27.2749Z" fill="#99CFAC"/>
<path d="M6.53059 27.2749C6.22327 27.2749 5.91595 27.1981 5.60862 27.1212C3.99518 26.6603 3.07321 24.8932 3.53419 23.2797C7.45256 10.7563 18.8235 2.30493 32.0384 2.30493C35.0348 2.30493 38.0312 2.76592 40.8739 3.61105C42.4874 4.14887 43.4093 5.83914 42.8715 7.45259C42.3337 9.06603 40.6434 9.988 39.03 9.45019C36.8019 8.75871 34.4201 8.37456 32.0384 8.37456C21.5894 8.37456 12.5234 15.0588 9.52699 25.0468C9.066 26.4298 7.83671 27.2749 6.53059 27.2749V27.2749Z" fill="#49B881"/>
<path d="M50.2472 15.5967C51.9445 15.5967 53.3205 14.2207 53.3205 12.5234C53.3205 10.8261 51.9445 9.4502 50.2472 9.4502C48.5499 9.4502 47.174 10.8261 47.174 12.5234C47.174 14.2207 48.5499 15.5967 50.2472 15.5967Z" fill="#99CFAC"/>
<path d="M13.7527 54.6267C15.45 54.6267 16.8259 53.2507 16.8259 51.5535C16.8259 49.8562 15.45 48.4802 13.7527 48.4802C12.0554 48.4802 10.6794 49.8562 10.6794 51.5535C10.6794 53.2507 12.0554 54.6267 13.7527 54.6267Z" fill="#99CFAC"/>
</svg>
