<svg id="logo" role="img" aria-labelledby="titleText" viewBox="3.489990711212158 4.25 1032.25 390.8900146484375" xmlns="http://www.w3.org/2000/svg" class="gusto-logo gusto-logo--guava"><title id="titleText">Gusto logo</title><path fill="#F45D48" d="M920.06 61.34A115.69 115.69 0 1 0 1035.74 177 115.81 115.81 0 0 0 920.06 61.34zm0 176.5A60.82 60.82 0 1 1 980.88 177a60.89 60.89 0 0 1-60.82 60.84zM579.44 153.62l-20.21-10.1q-13.14-6.47-16.46-10.2a12 12 0 0 1-3.33-8.18c0-3.9 1.74-7.17 5.25-9.8s8.35-3.94 14.54-3.94q17 0 37.78 20.61l34.14-34.14a89.18 89.18 0 0 0-72.32-36.36q-31.32 0-51.41 18.48t-20.1 44.54q0 40.41 53.33 67.28l18.58 9.29q24 12.12 24 24.85 0 6.87-6.66 12.12T559 243.32q-10.11 0-23.13-7a85.18 85.18 0 0 1-23-18L479.24 255q28.67 37.57 76.76 37.57 36.16 0 57.68-19.59t21.51-48.89q0-22-11.92-38.38t-43.83-32.09zM236.05 65.92h-54.87l.18 19.73c-17.77-18-39.66-24.31-62.18-24.31a115.69 115.69 0 0 0 0 231.38c26.63 0 49.42-11.8 61.16-26.81 0 .91-.08 11.82-.11 13-.22 7.46-1.3 19.41-8.33 31.62A60.6 60.6 0 0 1 87.53 331l-27.29 47.5a114.77 114.77 0 0 0 59.46 16.64c30.36 0 68.22-12 95.07-49.21 22.33-30.92 21.28-60.13 21.28-88.41zM119.18 237.84A60.82 60.82 0 1 1 180 177a60.88 60.88 0 0 1-60.82 60.84zM454.8 65.92h-55.15v110c.11 15.58.09 42.57-11.4 54.14-5.51 5.54-11.51 10.5-24.24 10.5s-18.78-5-24.28-10.5c-11.49-11.57-11.46-38.56-11.35-54.14v-110h-55.11v109.61c-.15 22.57-.43 64.6 27.24 92.45 16.24 16.34 35.58 24.63 63.54 24.63s47.31-8.29 63.55-24.63c27.67-27.85 27.39-69.88 27.24-92.45z"></path><path fill="#F45D48" d="M740.05 237.18c-6.29-.85-12.48-5.34-16-13.54-2.41-5.62-3.28-13-3.28-22.09V113.1h64.81V65.75h-64.81V4.25h-55v192.84c0 18.91 1.52 41.83 14 63 10.65 18 29.41 32.55 60.2 32.55 37.33 0 64.19-27 64.19-27l-33-40.58s-14.49 14.37-31.11 12.12z"></path></svg>
