<svg version="1.1" id="Layer_1" xmlns="http://www.w3.org/2000/svg" xmlns:xlink="http://www.w3.org/1999/xlink" x="0px" y="0px"
	 viewBox="0 0 612 792" style="enable-background:new 0 0 612 792;" xml:space="preserve">
<style type="text/css">
	.st0{fill:#04829E;}
	.st1{fill:#665045;}
	.st2{fill:#65B2C3;}
	.st3{fill:#F5F9FA;}
	.st4{fill:#FAE7CB;}
	.st5{fill:#90694C;}
	.st6{fill:#152235;}
	.st7{fill:#F1D1AB;}
	.st8{fill:#2F82BF;}
	.st9{fill:#4D9DD5;}
	.st10{fill:#FDFCFC;}
	.st11{fill:#EFD0AB;}
	.st12{fill:#F8CD50;}
	.st13{fill:#F1F2F2;}
	.st14{fill:#E8B785;}
</style>
<path class="st0" d="M553.47,479.29c4.46,10.94,7.52,22.33,10.86,33.63c0.34,1.15,0.19,2.06-0.72,2.92
	c-6.6,6.2-13.19,12.41-19.77,18.63c-0.52,0.49-1.05,0.99-1.56,1.49c-6.84,6.67-13.57,13.47-20.56,19.98
	c-8.38,7.8-16.64,15.72-24.9,23.65c-8,7.68-16.07,15.29-24.1,22.94c-8.28,7.9-16.5,15.88-24.94,23.6
	c-5.09,4.66-9.5,10.05-15.1,14.16c-1.16,0.85-2.06,1.26-3.53,1.04c-34.13-5.15-68.27-10.25-102.41-15.33
	c-45.16-6.73-90.33-13.43-135.49-20.16c-36.86-5.49-73.72-10.99-110.59-16.47c-12.92-1.92-25.85-3.82-38.78-5.63
	c-2.22-0.31-3.08-0.85-2.63-3.35c1.02-5.65,1.43-11.41,2.52-17.05c5.34-27.83,7.57-56.13,12.49-84
	c4.83-27.32,7.33-54.95,12.18-82.23c4.89-27.54,7.62-55.39,12.32-82.93c1.28-7.5,2.47-15.01,3.6-22.52c0.31-2.03,1.3-2.69,3.22-3.06
	c24.82-4.77,49.63-9.63,74.44-14.48c24.1-4.7,48.21-9.41,72.32-14.11c0.58-0.11,1.19-0.1,1.79-0.15
	c-7.33,5.32-14.92,10.32-21.93,16.03c-8.32,6.78-16.54,13.77-24.09,21.38c-8.89,8.96-17.49,18.3-25.33,28.19
	c-6.05,7.64-11.72,15.65-17.28,23.72c-7.29,10.58-12.68,22.12-18.32,33.5c-4.62,9.32-7.18,19.57-8.17,29.97
	c-0.87,9.11-0.89,18.37,4.6,26.34c4.39,6.38,10.94,10.62,17.24,14.86c5.43,3.66,6.05,4.12,4.02,10.19
	c-2.7,8.04-2.62,16.23-1.2,24.45c1.6,9.22,6.31,16.86,12.36,23.84c6.19,7.14,14,11.71,22.62,15.25c5.45,2.23,11.18,2.45,16.85,3.2
	c1.09,0.14,2.13,0.13,2.71,1.33c1.4,2.9,3.38,5.43,5.08,8.14c4,6.35,7.79,12.73,12.59,18.64c8.3,10.21,17.73,19.04,28.31,26.7
	c13.64,9.88,28.45,17.55,44.44,22.97c27.47,9.32,55.43,12.79,84.1,7.04c19.96-4.01,38.21-12.19,54.95-23.76
	c6.29-4.35,12.15-9.19,17.94-14.21c10.48-9.09,19.11-19.7,26.69-31.12c8.4-12.67,13.26-27.18,19.77-40.83
	c4.31-9.03-1.85-21.3-11.44-21.55c-1.8-0.05-2.75-0.92-2.7-2.96c0.06-2.76-0.3-5.66-1.66-8c-1.98-3.41-1.31-5.87,0.9-8.93
	c5.64-7.81,4.04-20.32-4.17-25.2c-6.76-4.02-11.85-9.89-18.47-13.98c-6.44-3.98-13.03-7.58-19.97-10.47
	c-2.76-1.15-3.92-2.63-4.09-5.51c-0.63-10.13-1.14-20.29-2.24-30.37c-0.83-7.56-2.12-15.16-7.55-21.2
	c-1.51-1.69-3.44-3.28-4.22-5.29c-2.73-7.02-6.75-13.12-11.92-18.53c-1.16-1.21-0.86-2.32,0.02-3.52c1.98-2.68,4.21-5.3,5.81-8.1
	c6.87-11.99,14.25-23.92,16.21-37.94c1.42-10.14,1.17-19.97-5.78-28.85c-10.73-13.71-25.25-17.16-41.28-15.76
	c-18.39,1.6-35.31,8.31-51.23,17.47c-2.1,1.21-3.64,0.85-5.21-0.4c-4.76-3.78-9.46-7.65-14.18-11.49
	c29.86-5.81,59.72-11.6,89.57-17.43c22.8-4.45,45.6-8.94,68.4-13.43c4.65-0.92,4.62-0.96,5.97,3.68c3,10.34,5.5,20.87,9.17,30.96
	c4.78,13.14,7.63,26.85,12.42,39.92c4.69,12.79,7.41,26.17,12.1,38.9c4.79,13.01,7.56,26.62,12.33,39.58
	c4.71,12.79,7.41,26.17,12.1,38.9c4.83,13.12,7.82,26.78,12.44,39.92c2.09,5.94,4.37,11.78,5.42,18.01
	C546.49,468.83,548.68,475.99,553.47,479.29z M74.96,566.87c8.69-0.02,17.25-7.89,17.23-15.83c-0.03-7.95-8.62-15.78-17.3-15.76
	c-9.15,0.02-16.52,7.09-16.5,15.83C58.41,559.83,65.83,566.89,74.96,566.87z M476.61,321.87c3.49,0.19,5.54-0.72,5.72-3.79
	c0.16-2.81-1.95-3.98-4.17-4.72c-4.99-1.67-10.03-3.21-15.07-4.74c-4.74-1.45-7.99-0.27-8.23,5.1c-0.06,1.3-0.44,2.58-0.63,3.88
	c-0.84,5.53-0.83,5.52-6.14,3.73c-1.24-0.42-2.51-0.76-3.75-1.2c-4.2-1.46-6.34-0.33-7.34,4.04c-0.88,3.84-1.47,7.74-2.52,11.53
	c-0.67,2.42,0.25,5.34,2.5,6.16c2.52,0.92,4.93-0.34,5.81-3.21c0.56-1.82,1.14-3.7,1.26-5.58c0.2-3.19,2-3.09,4.18-2.34
	c1.81,0.63,3.53,1.5,5.33,2.15c4.85,1.76,7.18,0.49,8.25-4.5c0.5-2.33,0.86-4.69,1.2-7.05c0.36-2.51,1.26-3.5,4.02-2.41
	C470.34,320.22,473.85,321.04,476.61,321.87z M102.45,344.02c-3.82,0.09-5.11,1.64-5.31,4.52c-0.4,5.7-1.52,6.77-7.25,6.96
	c-2.96,0.09-4.94,1.12-4.9,4.35c0.04,3.28,2.33,4.14,5.09,4.3c5.97,0.35,6.63,0.99,7.1,6.93c0.28,3.64,2.8,5.17,6.23,3.92
	c2.87-1.05,3.01-3.49,3.09-5.87c0.12-3.42,1.79-5.02,5.17-4.98c0.72,0.01,1.46,0.04,2.15-0.11c2.46-0.53,4.85-1.45,4.68-4.47
	c-0.17-3.08-2.29-4.04-5.24-4.08c-5.23-0.08-6.04-1.02-6.77-6.52C106.11,346.12,105.13,343.78,102.45,344.02z M183.07,580.57
	c3.18-0.16,4.29-1.97,4.72-4.42c1.08-6.21,1.41-6.59,7.45-7.03c2.67-0.19,4.46-1.41,4.6-4.04c0.14-2.67-1.82-4.49-4.22-4.45
	c-5.49,0.09-8.19-1.87-8.05-7.69c0.05-2.25-2.04-3.93-4.47-3.79c-1.99,0.11-3.49,1.32-3.84,3.6c-1.06,6.89-1.09,6.85-7.83,7.75
	c-2.63,0.35-4.62,1.57-4.37,4.61c0.22,2.71,1.94,3.85,4.59,4c6.07,0.34,6.82,1.1,7.6,7.44
	C179.55,579.06,180.98,580.33,183.07,580.57z M488.57,438.83c1.14,0.05,2.13-0.37,2.97-1.07c7.68-6.4,15.37-12.79,22.99-19.25
	c2.11-1.78,2.64-4.12,0.8-6.33c-1.87-2.25-4.18-2.04-6.34-0.26c-6.61,5.44-13.21,10.9-19.79,16.38c-1.28,1.07-2.54,2.19-3.67,3.42
	c-1.23,1.35-1.46,3-0.66,4.67C485.6,437.91,486.87,438.71,488.57,438.83z M474.48,428.92c1.57-0.03,2.94-0.69,3.54-2.07
	c2.96-6.74,6.02-13.45,8.59-20.34c1.31-3.5-1.92-6.4-5.59-5.51c-1.98,0.48-2.86,1.98-3.59,3.7c-2.48,5.78-4.1,11.9-7.32,17.41
	C468,425.72,470.21,428.3,474.48,428.92z M500.2,454.1c0.66-0.21,1.92-0.55,3.14-1c5.15-1.9,10.26-3.87,15.43-5.73
	c3.65-1.31,5.14-3.17,4.33-5.73c-0.86-2.75-3.6-3.81-7.15-2.54c-5.61,2.02-11.17,4.17-16.74,6.29c-0.77,0.29-1.62,0.61-2.19,1.17
	c-1.2,1.17-3.36,2.22-2.18,4.28C495.78,452.52,497.21,454.16,500.2,454.1z M85.79,463.36c2.72-0.03,6.4-3.34,6.38-5.74
	c-0.02-2.41-3.73-5.69-6.44-5.68c-2.96,0-5.74,2.79-5.72,5.74C80.02,460.63,82.84,463.39,85.79,463.36z"/>
<path class="st1" d="M308.91,245.09c4.72,3.84,9.41,7.71,14.18,11.49c1.57,1.24,3.11,1.6,5.21,0.4
	c15.92-9.17,32.84-15.87,51.23-17.47c16.03-1.4,30.55,2.06,41.28,15.76c6.95,8.87,7.2,18.71,5.78,28.85
	c-1.96,14.02-9.34,25.94-16.21,37.94c-1.6,2.8-3.84,5.42-5.81,8.1c-0.88,1.2-1.18,2.31-0.02,3.52c5.17,5.41,9.19,11.51,11.92,18.53
	c0.78,2.01,2.71,3.6,4.22,5.29c5.42,6.04,6.72,13.64,7.55,21.2c1.1,10.09,1.61,20.24,2.24,30.37c0.18,2.88,1.34,4.36,4.09,5.51
	c6.94,2.9,13.53,6.49,19.97,10.47c6.62,4.09,11.71,9.96,18.47,13.98c8.21,4.88,9.81,17.38,4.17,25.2c-2.21,3.06-2.88,5.52-0.9,8.93
	c1.36,2.34,1.72,5.24,1.66,8c-0.05,2.04,0.9,2.92,2.7,2.96c9.59,0.24,15.75,12.51,11.44,21.55c-6.51,13.65-11.37,28.16-19.77,40.83
	c-7.57,11.42-16.2,22.03-26.69,31.12c-5.79,5.02-11.65,9.86-17.94,14.21c-16.73,11.57-34.99,19.75-54.95,23.76
	c-28.67,5.75-56.63,2.28-84.1-7.04c-15.99-5.42-30.8-13.09-44.44-22.97c-10.58-7.66-20.01-16.49-28.31-26.7
	c-4.8-5.9-8.59-12.29-12.59-18.64c-1.7-2.7-3.68-5.24-5.08-8.14c-0.58-1.2-1.61-1.19-2.71-1.33c-5.67-0.74-11.4-0.96-16.85-3.2
	c-8.63-3.54-16.44-8.11-22.62-15.25c-6.05-6.98-10.76-14.61-12.36-23.84c-1.43-8.22-1.5-16.41,1.2-24.45
	c2.04-6.07,1.42-6.53-4.02-10.19c-6.3-4.24-12.85-8.48-17.24-14.86c-5.49-7.97-5.47-17.23-4.6-26.34
	c0.99-10.41,3.55-20.65,8.17-29.97c5.64-11.38,11.03-22.91,18.32-33.5c5.56-8.07,11.22-16.08,17.28-23.72
	c7.83-9.88,16.43-19.23,25.33-28.19c7.55-7.61,15.77-14.6,24.09-21.38c7.01-5.71,14.59-10.71,21.93-16.03
	c6.58-3.07,12.54-7.27,19.16-10.33c12.58-5.83,25.35-10.61,39.56-9.75C298.66,240.12,304.1,241.66,308.91,245.09z M229.69,274.81
	c-2.26-1.88-4.56-1.64-6.75,0.02c-2.25,1.71-3.51,3.82-2.08,6.71c0.05,0.23,0.07,0.46,0.05,0.69c-3.09,2.42-6.35,4.66-9.23,7.31
	c-10.61,9.74-21.39,19.32-30.78,30.32c-5.09,5.96-10.49,11.66-14.7,18.32c-0.86,0.81-1.83,1.53-2.55,2.44
	c-4.61,5.78-8.49,12.1-12.44,18.3c-5.67,8.92-10.99,18.16-14.9,28.04c-4.41,11.15-7.99,22.56-7.27,34.77
	c0.39,6.62,2.36,12.61,8.21,16.74c3.78,2.67,7.45,5.54,10.95,8.57c2.26,1.95,3.82,1.63,5.51-0.58c3.64-4.77,7.73-9.07,13.18-11.85
	c8.62-5.07,17.79-8.44,27.91-7.74c4.57,0.32,6.79-1.82,8.35-5.43c6.41-14.89,15.01-28.39,25.01-41.14
	c7.31-9.32,15.11-18.05,23.96-25.93c9.83-8.77,20.37-16.49,31.62-23.34c2.44-1.49,5.59-1.95,7.57-4.69
	c-3.46-0.75-6.62,0.26-9.81,0.19c13.86-8.34,29-11.48,45.83-11.18c-3.48-3.1-7.14-3.32-10.49-5.25c5.47-1.87,10.68-2.07,15.83-2.55
	c5.29-0.5,10.51,0.87,16.36,1.31c-2.06-1.81-3.62-3.17-5.7-5c7.62,0.82,14.24,2.71,20.78,4.93c1.1,0.37,2.36,1.53,3.3,0.5
	c1.02-1.13-1.36-1.71-1.01-3.26c2.51,0.72,5.07,1.25,7.47,2.2c7.77,3.08,14.86,7.14,19.57,14.39c2.02,3.11,2.75,3.29,4.84,0.27
	c5.16-7.46,9.42-15.47,13.42-23.58c3.01-6.11,4.65-12.71,5.47-19.55c1.86-15.44-6.22-26.14-21.34-29.19
	c-2.28-0.76-4.55-1.59-7.02-1.18c-12.96-0.99-25.06,2.46-36.96,7.05c-8.36,3.22-16.27,7.32-24.06,11.7
	c-5.04-4.48-10.12-8.91-15.1-13.46c-4.55-4.16-9.14-7.79-15.64-3.83c-4.71-2.37-9.69-1.47-14.4-0.55
	c-19.29,3.78-35.91,13.3-51.6,24.68C230.6,274.91,230.15,274.86,229.69,274.81z M219.64,494.28c-0.13-0.56-0.25-1.12-0.38-1.68
	c0.05-0.21,0.1-0.41,0.15-0.62c-0.17,0.06-0.35,0.12-0.52,0.18c-1.86,1.15-1.76,3.16-2.19,4.94c-0.4-0.08-0.81-0.17-1.21-0.25
	c0.08-3.95,0.15-7.9,0.23-11.85c0.59-3.64,0.46-7.3,0.37-11.68c-1.66,2.1-3.45,3.17-4.29,5.24c-0.06-5.8-0.18-11.43,2.41-16.82
	c0.93-1.95,2.06-4.42,0.79-6.87c2.35-3.36,3.07-7.41,4.79-11.04c0.99-2.09,0.15-3.18-1.72-3.82c-2.7-0.94-5.41-1.87-8.15-2.69
	c-17.56-5.25-33.11-0.99-46.45,10.89c-6.09,5.43-9.27,13.2-11.97,20.83c-1.69,4.77-1.3,9.96-0.84,14.93
	c0.34,3.69,0.99,7.34,3.16,10.77c2.16,3.42,4.62,6.67,7.09,9.73c4.16,5.15,9.17,9.72,15.33,12.64c8.93,4.23,18.28,6.21,28.13,4.45
	c6.95-1.24,13.82-2.83,19.55-7.38c0.89-0.7,1.78-1.34,1.36-2.62c-1.6-4.82-3.24-9.63-4.86-14.44c-0.12-0.57-0.24-1.13-0.35-1.7
	C220.2,494.95,220.07,494.56,219.64,494.28z M357.14,534.49c3.76,1.81,7.86,2.11,11.89,2.36c22.07,1.37,43-3.16,63.1-12.17
	c4.92-2.21,9.62-4.78,14.28-7.41c9.89-5.59,18.99-12.26,26.7-20.69c1.44,1.84-0.22,3.21-1.03,4.31c-2.24,3.06-4.65,6.06-7.34,8.72
	c-9.32,9.23-20.74,15.14-32.68,20.23c-16.44,7.01-33.47,11.47-51.38,12.28c-8.92,0.4-17.71-0.31-26.27-3.04
	c-8.94-2.86-14.78-8.47-16.49-17.98c-2.29-12.71,5.3-21.94,18.15-22.01c2.51-0.01,5.01-0.3,7.52-0.46c0.35,0.05,0.71,0.15,1.06,0.15
	c23.77-0.37,46.47-5.2,67.75-16.1c13.5-6.92,25.74-15.43,36.09-26.59c1.87-2.01,1.94-3.85,1.03-6.16c-1.59-4.06-4.89-6.02-8.7-7.43
	c-2.31-2.18-4.53-4.47-6.94-6.53c-6.28-5.37-13.31-9.5-21.12-12.28c-0.69-0.46-1.32-1.04-2.07-1.35
	c-6.9-2.89-10.22-8.03-10.44-15.52c-0.19-6.56-0.72-13.12-1.32-19.66c-0.67-7.34-0.71-14.84-4.47-21.56
	c-0.56-4.42-4.29-6.38-7.06-9.09c0.39-2.07-0.87-3.73-1.6-5.42c-4.39-10.06-11.3-16.79-22.95-17.83c-6.78-0.6-13.45-0.65-20.38,0.82
	c0.99-2.16,1.37-3.28-1.5-2.46c-3.03,0.87-5.77,2.2-8.52,3.64c-0.87,0.46-2.04,1.6-2.85,0.45c-0.64-0.92,0.48-1.94,1.12-2.78
	c0.73-0.97,1.98-1.56,2.42-3.35c-3.7,1.46-7.25,1.99-10.14,4.29c-2.42,1.93-4.97,3.7-7.46,5.54c-4.82,3.57-10.68,4.67-16.11,6.8
	c-12.83,5.04-25.32,10.79-36.52,18.87c-7.17,5.16-13.46,11.34-19.4,17.97c-7.34,8.19-10.75,18.19-14.22,28.12
	c-2.66,7.63-1.88,15.86-1.51,23.83c0.31,6.88,1.23,13.77,4.92,20.3c1.55-3.17-0.24-6.89,2.57-9.72c1.07,7.69,1.99,15.05,4.35,22.51
	c0.79-2.6-0.4-5.07,0.99-7.33c3.97,7.49,5.75,15.64,10.17,22.72c-0.47-3.12-0.94-6.24-1.41-9.36c2.88,4.02,6.43,7.07,9.42,10.6
	c1.73,2.04,1.69,3.66-0.07,5.64c-1.8,2.03-3.64,4.14-4.89,6.51c-6.57,12.5-8.36,25.7-5.48,39.55c1.54,7.38,4.96,13.79,9.34,19.86
	c3.83,5.3,7.51,10.63,13.66,14.32c-0.35-3.58-2.89-6.25-2.29-10.22c4.6,5.62,7.7,11.81,13.66,15.7c0.38-1.83-1.57-2.82-0.53-4.74
	c5.17,5.63,10.87,10.42,17.24,15.04c0.03-2.21-1.32-3.1-1.9-4.38l-0.01,0.01c1.16,0.26,2.34,0.43,3.46,0.79
	c7.41,2.39,15.07,3.78,22.77,4.11c14.79,0.62,29.63,0.53,44.15-2.85c5.14-1.2,10.63-1.39,15.29-4.37l0.16-0.11l0.19,0.07
	c0.72,0.2,1.37,0.17,1.81-0.54c0.34-0.08,0.67-0.16,1.01-0.24c0.49,0.13,0.87-0.02,1.15-0.45c0.66-0.26,1.31-0.57,1.99-0.79
	c10.88-3.49,21.11-8.3,30.44-14.94c6.8-4.26,12.74-9.46,18.2-15.37c9.64-10.45,17.5-21.86,21.23-35.76
	c1.05-1.59,2.03-3.23,3.16-4.76c1.89-2.56,2.45-8.58,0.91-10.74c-2.35-3.28-6.08-4.35-10.45-2.98c-0.93-1.2-1.68-2.49-2.76-3.63
	c-2.07-2.18-3.95-4.39-3.41-8.1c0.53-3.64-0.75-7.31-2.62-10.63c-0.87-1.54-1.46-1.61-2.93-0.48c-9.27,7.12-18.89,13.63-29.53,18.68
	c-12.65,6-25.85,9.97-39.53,12.56c-11.09,2.1-22.33,2.66-33.58,3.12c-8.77-0.83-13.18,1.33-15.13,7.41
	C340.17,522.34,346.28,532.42,357.14,534.49z"/>
<path class="st2" d="M553.47,479.29c-4.79-3.3-6.98-10.46-4.64-15.2C551.1,468.94,552.38,474.08,553.47,479.29z"/>
<path class="st2" d="M74.96,566.87c-9.14,0.02-16.55-7.03-16.57-15.76c-0.02-8.73,7.36-15.81,16.5-15.83
	c8.68-0.02,17.27,7.81,17.3,15.76C92.22,558.98,83.65,566.85,74.96,566.87z M82.81,550.96c-0.07-3.84-3.84-7.14-8.05-7.03
	c-3.68,0.09-7.06,3.61-7,7.27c0.06,3.67,3.56,7.07,7.23,7.03C79.25,558.18,82.88,554.81,82.81,550.96z"/>
<path class="st2" d="M476.61,321.87c-2.75-0.83-6.27-1.64-9.59-2.95c-2.76-1.09-3.66-0.09-4.02,2.41c-0.34,2.36-0.7,4.72-1.2,7.05
	c-1.07,5-3.41,6.26-8.25,4.5c-1.8-0.65-3.52-1.53-5.33-2.15c-2.18-0.75-3.98-0.86-4.18,2.34c-0.12,1.88-0.7,3.76-1.26,5.58
	c-0.88,2.86-3.29,4.13-5.81,3.21c-2.25-0.82-3.17-3.73-2.5-6.16c1.05-3.79,1.64-7.69,2.52-11.53c1-4.37,3.14-5.5,7.34-4.04
	c1.24,0.43,2.51,0.78,3.75,1.2c5.31,1.79,5.31,1.79,6.14-3.73c0.2-1.3,0.58-2.58,0.63-3.88c0.24-5.37,3.49-6.54,8.23-5.1
	c5.04,1.54,10.07,3.08,15.07,4.74c2.22,0.74,4.33,1.91,4.17,4.72C482.15,321.14,480.1,322.05,476.61,321.87z"/>
<path class="st2" d="M102.45,344.02c2.68-0.24,3.66,2.1,4.03,4.95c0.73,5.5,1.54,6.44,6.77,6.52c2.95,0.04,5.07,1,5.24,4.08
	c0.17,3.02-2.22,3.93-4.68,4.47c-0.69,0.15-1.43,0.12-2.15,0.11c-3.38-0.04-5.05,1.56-5.17,4.98c-0.09,2.38-0.22,4.82-3.09,5.87
	c-3.43,1.25-5.95-0.28-6.23-3.92c-0.46-5.94-1.13-6.58-7.1-6.93c-2.76-0.16-5.04-1.02-5.09-4.3c-0.04-3.23,1.94-4.26,4.9-4.35
	c5.73-0.18,6.85-1.26,7.25-6.96C97.34,345.66,98.63,344.11,102.45,344.02z"/>
<path class="st2" d="M183.07,580.57c-2.09-0.23-3.53-1.5-3.83-4.02c-0.78-6.34-1.53-7.1-7.6-7.44c-2.65-0.15-4.37-1.29-4.59-4
	c-0.25-3.04,1.74-4.26,4.37-4.61c6.74-0.9,6.78-0.86,7.83-7.75c0.35-2.28,1.86-3.49,3.84-3.6c2.43-0.13,4.52,1.54,4.47,3.79
	c-0.14,5.82,2.56,7.79,8.05,7.69c2.41-0.04,4.36,1.78,4.22,4.45c-0.13,2.62-1.93,3.84-4.6,4.04c-6.04,0.44-6.37,0.82-7.45,7.03
	C187.36,578.59,186.25,580.41,183.07,580.57z"/>
<path class="st3" d="M488.56,438.83c-1.69-0.12-2.97-0.92-3.69-2.45c-0.8-1.67-0.57-3.32,0.66-4.67c1.12-1.23,2.38-2.35,3.67-3.42
	c6.58-5.48,13.17-10.94,19.79-16.38c2.16-1.77,4.48-1.99,6.34,0.26c1.84,2.22,1.31,4.55-0.8,6.33
	c-7.63,6.46-15.32,12.85-22.99,19.25C490.7,438.46,489.7,438.88,488.56,438.83z"/>
<path class="st3" d="M474.48,428.92c-4.27-0.62-6.48-3.2-4.37-6.82c3.22-5.51,4.84-11.63,7.32-17.41c0.74-1.71,1.61-3.22,3.59-3.7
	c3.67-0.88,6.9,2.01,5.59,5.51c-2.57,6.89-5.63,13.6-8.59,20.34C477.42,428.23,476.05,428.89,474.48,428.92z"/>
<path class="st3" d="M500.2,454.1c-2.99,0.05-4.42-1.58-5.37-3.25c-1.18-2.06,0.98-3.11,2.18-4.28c0.57-0.56,1.42-0.87,2.19-1.17
	c5.57-2.12,11.13-4.28,16.74-6.29c3.55-1.28,6.29-0.22,7.15,2.54c0.8,2.56-0.68,4.42-4.33,5.73c-5.16,1.85-10.28,3.83-15.43,5.73
	C502.12,453.56,500.86,453.9,500.2,454.1z"/>
<path class="st2" d="M85.79,463.36c-2.95,0.03-5.77-2.73-5.78-5.68c-0.02-2.95,2.76-5.74,5.72-5.74c2.71,0,6.42,3.27,6.44,5.68
	C92.19,460.02,88.51,463.33,85.79,463.36z"/>
<path class="st4" d="M472.97,493.04c4.37-1.37,8.1-0.3,10.45,2.98c1.55,2.16,0.99,8.18-0.91,10.74c-1.13,1.53-2.11,3.17-3.16,4.76
	c-1.08,0.03-1.71,0.78-2.38,1.46c-6.75,6.84-14.17,12.8-22.6,17.46c-6.79,3.74-13.76,6.99-21.17,9.47
	c-5.26,1.76-10.62,3.08-16.04,4.7c1.03,0.67,2.09,1.31,3.16,1.34c6.09,0.19,12.2,0.41,18.14-1.45c3.96-1.24,4.07-0.97,4.36,3.18
	c0.37,5.3-1.85,10-2.9,14.97c-9.33,6.64-19.56,11.45-30.44,14.94c-0.68,0.22-1.33,0.52-1.99,0.79c-0.38,0.15-0.76,0.3-1.15,0.45
	c-0.34,0.08-0.67,0.16-1.01,0.24c-0.69-0.11-1.32-0.01-1.81,0.54l-0.19-0.07c0,0-0.16,0.11-0.17,0.11
	c-1.18,0.18-2.36,0.32-3.53,0.55c-11.12,2.19-22.24,2.98-33.46,0.52c-4.99-1.1-9.84-2.56-14.73-4.85c-0.1,2.13,1.95,2.8,1.86,4.67
	c-5.38-2.75-9.62-6.62-13.91-10.81c-0.62,1.74,0.96,2.74,0.21,3.89c-4.12-2.93-6.91-7.16-10.27-11.17c-1,2.83,1.67,4.6,0.9,7.02
	c-6.92-6.49-11.6-14.21-14.16-23.23c-1.01-3.56-2.02-7.13-3.05-10.68c-0.23-0.78-0.41-1.79-1.46-1.77
	c-1.41,0.03-1.23,1.27-1.27,2.15c-0.08,1.91-0.03,3.83-0.03,5.74c-4.35-7.56-5.52-15.8-6.67-24.05c0.06-0.35,0.18-0.71,0.16-1.06
	c-0.56-16.42,7.29-29.37,16.84-41.78c2.16-2.81,6.07-4,6.95-7.85c0.46-0.24,0.92-0.48,1.38-0.72c2.86-3.06,6.21-5.47,9.66-7.85
	c8.78-6.04,17.9-11.38,27.86-15.2c4.31-1.65,7.29-4.03,8.77-8.91c3.48-11.45,10.67-19.32,23.32-20.79c3.57,0.13,7,0.86,10.29,2.26
	c1.49,1.62,3.29,2.83,4.15,5.15c0.85,2.32,0.72,5.91,2.43,6.71c1.94,0.91,5.06-0.2,7.5-0.95c3.27-1,7.18,0.04,9.81-3
	c7.8,2.78,14.84,6.91,21.12,12.28c2.41,2.06,4.63,4.35,6.94,6.53c-2.64,3.48-4.99,7.24-7.98,10.4c-9.07,9.62-20,16.63-31.76,22.68
	c-16.38,8.42-33.41,15.03-51,20.34c-2.23,0.67-4.73,0.9-6.51,2.72c-2.51,0.16-5.01,0.45-7.52,0.46
	c-12.85,0.07-20.44,9.3-18.15,22.01c1.71,9.52,7.55,15.13,16.49,17.98c8.56,2.73,17.35,3.44,26.27,3.04
	c17.91-0.81,34.94-5.26,51.38-12.28c11.94-5.09,23.36-11,32.68-20.23c2.69-2.67,5.1-5.66,7.34-8.72c0.81-1.1,2.47-2.47,1.03-4.31
	C473.06,495.4,473.01,494.22,472.97,493.04z M395.52,437.21c5.88,1.27,10.97,0.08,14.87-4.78c2.02,0.15,2.67-1.23,2.86-2.81
	c0.24-2,0.27-4.03-2.16-4.92c0.06-1.1-0.18-1.99-1.08-2.84c-4.49-4.24-9.6-3.77-14.57-1.57c-4.81,2.13-7.84,5.96-8.08,11.51
	c-1.09,1.95-0.35,3.49,1.21,4.69C390.7,438.13,393.01,438.85,395.52,437.21z"/>
<path class="st5" d="M303.63,517.64c1.16,8.25,2.32,16.49,6.67,24.05c0-1.91-0.06-3.83,0.03-5.74c0.04-0.88-0.14-2.12,1.27-2.15
	c1.06-0.02,1.24,0.99,1.46,1.77c1.04,3.56,2.05,7.12,3.05,10.68c2.55,9.02,7.24,16.74,14.16,23.23c0.77-2.42-1.9-4.2-0.9-7.02
	c3.36,4.02,6.15,8.24,10.27,11.17c0.75-1.15-0.83-2.15-0.21-3.89c4.3,4.18,8.53,8.05,13.91,10.81c0.09-1.87-1.96-2.54-1.86-4.67
	c4.89,2.29,9.74,3.76,14.73,4.85c11.21,2.46,22.34,1.67,33.46-0.52c1.17-0.23,2.35-0.37,3.53-0.55c-4.65,2.98-10.14,3.17-15.29,4.37
	c-14.53,3.38-29.36,3.47-44.15,2.85c-7.7-0.32-15.36-1.72-22.77-4.11c-1.12-0.36-2.31-0.53-3.46-0.79c-0.1-0.06-0.19-0.11-0.29-0.17
	c0.1,0.05,0.2,0.11,0.3,0.16c0.58,1.27,1.93,2.17,1.9,4.38c-6.37-4.62-12.07-9.41-17.24-15.04c-1.03,1.92,0.92,2.91,0.53,4.74
	c-5.95-3.89-9.06-10.07-13.66-15.7c-0.6,3.97,1.94,6.64,2.29,10.22c-6.15-3.69-9.84-9.02-13.66-14.32
	c-4.38-6.07-7.81-12.48-9.34-19.86c-2.88-13.85-1.09-27.05,5.48-39.55c1.25-2.37,3.09-4.49,4.89-6.51c1.76-1.98,1.8-3.6,0.07-5.64
	c-2.98-3.52-6.54-6.58-9.42-10.6c0.47,3.12,0.94,6.24,1.41,9.36c-4.42-7.08-6.2-15.22-10.17-22.72c-1.38,2.26-0.2,4.73-0.99,7.33
	c-2.36-7.46-3.27-14.82-4.35-22.51c-2.81,2.83-1.03,6.55-2.57,9.72c-3.7-6.53-4.61-13.42-4.92-20.3
	c-0.36-7.97-1.15-16.21,1.51-23.83c3.47-9.93,6.88-19.93,14.22-28.12c5.94-6.63,12.23-12.8,19.4-17.97
	c11.21-8.07,23.7-13.82,36.52-18.87c5.42-2.13,11.29-3.24,16.11-6.8c2.49-1.84,5.04-3.61,7.46-5.54c2.89-2.31,6.45-2.84,10.14-4.29
	c-0.44,1.78-1.69,2.38-2.42,3.35c-0.64,0.85-1.76,1.86-1.12,2.78c0.81,1.16,1.98,0.01,2.85-0.45c2.75-1.44,5.49-2.78,8.52-3.64
	c2.87-0.82,2.5,0.29,1.5,2.46c6.93-1.47,13.6-1.43,20.38-0.82c11.65,1.04,18.57,7.78,22.95,17.83c0.73,1.68,1.99,3.35,1.6,5.42
	c-7.69-3.36-14.08-1.84-20.33,4.82c-2.53,0.83-4.7,2.18-6.61,4.06c-8.04,7.89-17.67,11.16-28.95,10.33
	c-6.52-0.48-12.97-1.92-19.56-1.48c-7.87-1.32-15.58-0.38-22.87,2.57c-12.61,5.09-19.1,15.92-23.58,27.77
	c-3.01,7.95-3.65,16.56-1.02,25.02c0.28,4.55,1.25,8.74,4.25,12.52c2.98,3.74,5.56,7.83,9.5,10.66
	c8.26,5.92,17.32,10.07,27.39,11.88c1.19,0.21,2.77-0.03,3.32,1.62c-0.46,0.24-0.92,0.48-1.38,0.72
	c-5.94,1.17-10.67,4.79-15.54,7.96c-8.77,5.71-16.22,12.69-18.67,23.43c-0.84,3.7-1.9,7.57,0.49,11.89
	c1.34-4.25,1.51-8.4,5.04-11.71c-0.39,2.86-0.63,5.1-1.01,7.32c-0.72,4.18-0.6,8.34,0.18,12.49c0.23,1.25,0.22,3.1,1.88,2.97
	c1.65-0.13,0.79-1.93,0.94-3c0.26-1.84-0.35-3.84,1.09-5.53C303.06,514.28,301.7,516.52,303.63,517.64z"/>
<path class="st6" d="M395.84,250.55c15.11,3.05,23.19,13.75,21.33,29.19c-0.82,6.84-2.46,13.43-5.47,19.55
	c-4,8.11-8.26,16.12-13.42,23.58c-2.09,3.02-2.83,2.84-4.84-0.27c-4.7-7.25-11.8-11.31-19.57-14.39c-2.4-0.95-4.97-1.47-7.47-2.2
	c-0.36,1.55,2.03,2.13,1.01,3.26c-0.93,1.03-2.2-0.13-3.3-0.5c-6.54-2.22-13.16-4.1-20.78-4.93c2.08,1.83,3.64,3.2,5.7,5
	c-5.86-0.44-11.07-1.81-16.36-1.31c-5.15,0.49-10.36,0.69-15.83,2.55c3.35,1.93,7.01,2.14,10.49,5.25
	c-16.83-0.3-31.97,2.83-45.83,11.18c3.19,0.07,6.35-0.94,9.81-0.19c-1.97,2.74-5.13,3.2-7.57,4.69
	c-11.24,6.85-21.79,14.58-31.62,23.34c-8.84,7.88-16.65,16.62-23.96,25.93c-10,12.75-18.61,26.25-25.01,41.14
	c-1.56,3.62-3.79,5.75-8.35,5.43c-10.12-0.7-19.3,2.68-27.91,7.74c2.41-10.51,6.34-20.35,11.46-29.92
	c7.29-13.62,15.6-26.44,25.15-38.57c7.69-9.76,15.85-19.03,24.38-28.06c9.39-9.95,19.65-18.85,30.26-27.38
	c9.02-7.26,18.68-13.69,28.68-19.55c1-0.59,2.73-0.83,0.89-2.32c-6.3-5.1-11.67-11.27-18.36-15.92l0,0.03
	c-0.24-0.28-0.47-0.56-0.71-0.84c-0.84-3.4-1.01-6.86-0.9-10.35c10.14,8.59,20.29,17.17,30.43,25.76
	c-3.95,3.79-8.34,7.08-12.4,10.71c-11.17,9.99-22.21,20.16-32.09,31.48c-0.94,1.07-1.84,2.19-2.85,3.19
	c-5.83,5.71-10.49,12.43-15.95,18.46c-0.54,0.52-1.08,1.32-0.2,1.68c1.26,0.52,1.51-0.62,1.67-1.58c0.87-0.76,1.95-1.15,2.8-2.05
	c8.37-8.77,16.62-17.64,25.52-25.91c7.95-7.38,15.94-14.69,24.36-21.54c11.88-9.66,24.28-18.49,37.49-26.28
	c10.11-5.97,20.35-11.61,31.06-16.38c9.76-4.34,19.8-7.84,30.57-8.73C390.71,250.53,393.28,250.54,395.84,250.55z M232.14,354.84
	c-1.1,1.42-2.2,2.85-3.31,4.27c-4.19,3.81-7.48,8.38-10.75,12.96c-1.75,2.23-3.5,4.47-5.24,6.7c1.21,0.09,1.9-0.22,2.31-0.75
	c1.3-1.68,2.49-3.43,3.72-5.16c3.61-4.29,7.21-8.59,10.82-12.88c1.12-1.33,2.24-2.65,3.36-3.98c0.56-0.63,1.86-1.22,0.82-2.16
	C232.99,353.04,232.54,354.16,232.14,354.84z"/>
<path class="st7" d="M331.97,374.21c6.59-0.44,13.04,1,19.56,1.48c11.28,0.82,20.91-2.44,28.95-10.33c1.91-1.88,4.08-3.23,6.61-4.06
	c1.06-0.11,2.13-0.12,3.16-0.34c7.06-1.5,13.81-0.82,20.23,2.64c1.31,0.7,2.15,2.37,4,1.98c3.76,6.72,3.79,14.22,4.47,21.56
	c0.6,6.54,1.13,13.1,1.32,19.66c0.21,7.49,3.53,12.62,10.44,15.52c0.75,0.31,1.38,0.9,2.07,1.35c-2.63,3.04-6.54,2-9.81,3
	c-2.45,0.75-5.56,1.86-7.5,0.95c-1.71-0.8-1.58-4.39-2.43-6.71c-0.85-2.32-2.66-3.54-4.15-5.15c0.25-5.39-0.73-10.53-3.73-15.08
	c-2.27-3.44-4.79-3.12-6.83,0.28c-2.59,4.33-1.4,8.4,0.27,12.54c-12.66,1.46-19.85,9.34-23.32,20.79c-1.48,4.88-4.45,7.26-8.77,8.91
	c-9.96,3.82-19.08,9.16-27.86,15.2c-3.46,2.38-6.8,4.79-9.66,7.85c-0.55-1.65-2.13-1.41-3.32-1.62
	c-10.08-1.81-19.13-5.96-27.39-11.88c-3.94-2.83-6.52-6.91-9.5-10.66c-3.01-3.78-3.97-7.96-4.25-12.52
	c1.42-4.93,1.36-10.07,3.3-15.05c3.7-9.49,8.46-17.96,16.06-24.91c6.9-6.31,14.64-10.92,23.52-13.69
	C328.94,375.41,330.68,375.44,331.97,374.21z M326.65,435.31c1.24,0.16,2.3-0.39,3.43-0.79c5.59-1.97,11.14-4.04,17.06-5
	c3.33-0.54,6.9-0.17,9.97-2.05c0.85-0.45,2.16,0.67,2.75-0.75c-0.63-1.29-2-1.67-2.9-2.58c-0.88-4.76-3.58-7.66-8.32-9.06
	c-4.21-1.24-7.94-0.06-11.78,1.27c-5.63,1.96-8.86,6.92-8.31,12.89c-0.92,1.37-1.89,2.71-2.75,4.12
	C325.22,434.3,325.16,435.19,326.65,435.31z M309.12,421.39c6.5-14.07,14.68-25.97,31.1-30.79
	C316.89,386.42,304.84,407.06,309.12,421.39z M392.1,376.32c6.43-1.26,11.85-0.73,16.98,2.16c0.79,0.45,2.15,1.46,2.92,0.43
	c0.85-1.14-0.37-2.21-1.16-3.01C405.94,370.83,397.99,370.77,392.1,376.32z"/>
<path class="st8" d="M269.35,272.88c6.69,4.65,12.06,10.82,18.36,15.92c1.84,1.49,0.11,1.73-0.89,2.32
	c-10.01,5.86-19.66,12.29-28.68,19.55c-10.6,8.53-20.86,17.44-30.26,27.38c-8.53,9.03-16.69,18.3-24.38,28.06
	c-9.55,12.13-17.86,24.95-25.15,38.57c-5.12,9.57-9.05,19.41-11.46,29.92c-5.45,2.77-9.53,7.08-13.18,11.85
	c-1.68,2.2-3.25,2.52-5.51,0.58c-3.51-3.02-7.17-5.9-10.95-8.57c-5.85-4.13-7.82-10.12-8.21-16.74
	c-0.72-12.21,2.86-23.62,7.27-34.77c3.91-9.88,9.23-19.12,14.9-28.04c3.94-6.2,7.83-12.52,12.44-18.3c0.73-0.91,1.7-1.63,2.55-2.44
	c0.12,0.21,0.21,0.44,0.37,0.62c8.43,9.17,18.55,16.52,27.36,25.29c1.3,1.29,2.22,0.46,2.9-0.6c1.68-2.62,4.01-4.71,5.87-7.15
	c9.97-13.05,21.73-24.41,33.64-35.61c3.47-3.26,6.86-6.65,10.58-9.66c7.79-6.31,15.77-12.38,24.17-17.83
	c3.24-2.1,3.48-4.13,2.2-7.42C271.67,281.61,269.42,277.56,269.35,272.88z"/>
<path class="st9" d="M269.35,272.88c0.06,4.68,2.32,8.73,3.95,12.92c1.28,3.29,1.04,5.33-2.2,7.42
	c-8.41,5.45-16.38,11.52-24.17,17.83c-3.72,3.01-7.11,6.4-10.58,9.66c-11.91,11.19-23.67,22.56-33.64,35.61
	c-1.86,2.44-4.19,4.53-5.87,7.15c-0.68,1.06-1.6,1.89-2.9,0.6c-8.81-8.76-18.93-16.11-27.36-25.29c-0.16-0.17-0.25-0.41-0.37-0.62
	c4.21-6.66,9.61-12.35,14.7-18.32c9.39-11,20.17-20.58,30.78-30.32c2.88-2.65,6.14-4.88,9.23-7.31c0.9,0.75,1.7,1.66,2.71,2.22
	c2.54,1.41,5.08,1.11,7.17-0.84c1.88-1.75,2.39-3.98,1.27-6.43c-0.34-0.74-0.67-1.48-1.01-2.22c15.69-11.38,32.31-20.91,51.6-24.68
	c4.71-0.92,9.69-1.82,14.4,0.55c-0.17,0.28-0.33,0.57-0.5,0.85c-2.31,3.9-2.42,8.02-1.25,12.27c-5.27-1.77-10.56-3.49-15.81-5.33
	c-3.95-1.39-8.64-0.22-11.75,3.1c-0.11,3.49,0.07,6.95,0.9,10.35c0.24,0.28,0.47,0.56,0.71,0.84L269.35,272.88z"/>
<path class="st10" d="M472.97,493.04c0.04,1.18,0.08,2.35,0.12,3.53c-7.71,8.43-16.81,15.1-26.7,20.69
	c-4.66,2.63-9.36,5.21-14.28,7.41c-20.1,9.01-41.03,13.54-63.1,12.17c-4.02-0.25-8.13-0.55-11.89-2.36
	c-2.33-2.71-4.94-5.24-6.15-8.72c-1-2.85-0.17-3.93,2.79-3.36c12.14,2.35,24.29,1.76,36.38-0.17c11.98-1.92,23.39-5.8,34.36-10.96
	c1.08-0.51,2.32-0.95,2.73-2.41c-2.2-0.55-3.7,0.78-5.36,1.28c-13.16,4.01-26.46,7.48-40.22,8.32c-9.63,0.58-19.35,1.38-28.84-1.85
	c-2.82-0.96-2.7-2.13-1.89-4.36c1.38-3.81,4.73-5.53,7.68-7.7c11.25-0.46,22.49-1.01,33.58-3.12c13.68-2.59,26.89-6.56,39.53-12.56
	c10.65-5.05,20.26-11.57,29.53-18.68c1.47-1.13,2.06-1.06,2.93,0.48c1.88,3.32,3.16,6.99,2.62,10.63c-0.54,3.71,1.34,5.92,3.41,8.1
	C471.3,490.55,472.05,491.84,472.97,493.04z"/>
<path class="st5" d="M220.4,497.14c1.62,4.81,3.26,9.62,4.86,14.44c0.43,1.28-0.47,1.92-1.36,2.62c-5.73,4.55-12.6,6.14-19.55,7.38
	c-9.86,1.76-19.21-0.22-28.13-4.45c-6.16-2.92-11.17-7.49-15.33-12.64c-2.47-3.06-4.93-6.32-7.09-9.73
	c-2.17-3.43-2.81-7.08-3.16-10.77c-0.46-4.97-0.85-10.17,0.84-14.93c2.7-7.63,5.88-15.4,11.97-20.83
	c13.34-11.88,28.89-16.14,46.45-10.89c2.74,0.82,5.45,1.75,8.15,2.69c1.88,0.65,2.72,1.73,1.72,3.82
	c-1.72,3.62-2.44,7.68-4.78,11.04c-4.46-0.57-8.89-1.51-13.45-0.79c-8.48,1.34-19.4,8.14-20.69,17.99
	c-3.4,12.58,3.24,25.15,15.86,29.42c7.14,2.42,14.36,2.37,21.38-0.8C219.66,499.99,220.7,499.02,220.4,497.14z"/>
<path class="st11" d="M363.58,498.62c1.78-1.82,4.28-2.05,6.51-2.72c17.59-5.31,34.62-11.92,51-20.34
	c11.76-6.04,22.68-13.06,31.76-22.68c2.98-3.16,5.33-6.92,7.98-10.4c3.81,1.41,7.12,3.37,8.7,7.43c0.91,2.32,0.84,4.15-1.03,6.16
	c-10.36,11.16-22.59,19.68-36.09,26.59c-21.29,10.91-43.98,15.73-67.75,16.1C364.29,498.77,363.93,498.67,363.58,498.62z"/>
<path class="st11" d="M180.85,472.07c1.29-9.85,12.21-16.65,20.69-17.99c4.56-0.72,8.99,0.21,13.45,0.79
	c1.27,2.45,0.14,4.92-0.79,6.87c-2.58,5.4-2.47,11.02-2.41,16.82c0.84-2.07,2.63-3.14,4.29-5.24c0.09,4.38,0.22,8.03-0.37,11.68
	c-1.31,0.32-1.11,1.37-1.12,2.31c-0.01,2.03,0.02,4.07-0.02,6.1c-0.01,0.68,0.25,1.54-0.56,1.92c-0.82,0.38-1.28-0.39-1.78-0.85
	c-2.92-2.68-4.82-6.09-6.62-9.92c-1.18,3.44,1.4,6.16,0.78,9.56c-3.28-3.87-6.69-7.13-8.67-11.76c-1.19,2.39,1.24,4.4-0.2,6.54
	c-2.95-2.14-4.33-5.25-6.2-7.97c-0.55-0.81-0.75-2.58-2.05-1.93c-1.22,0.61-0.18,1.71,0.33,2.68c0.65,1.25,1.24,2.67,0.93,4.3
	C187.32,484.43,184.93,480.94,180.85,472.07z"/>
<path class="st12" d="M296.55,251.68c0.17-0.28,0.33-0.57,0.5-0.85c6.51-3.95,11.1-0.33,15.65,3.83c4.97,4.55,10.06,8.98,15.1,13.45
	c-2.02,1.8-4.26,3.2-6.96,3.72c-3.3-2.15-5.62-5.58-9.41-7.24c1.85,3.69,1.99,7.74,3.35,11.44c-0.48,0.69-1.09,1.2-1.95,1.34
	c-6.23-1.98-12.46-3.97-19.36-6.17c3.59,4.75,8.62,6.78,11.86,10.77c-1.74,2.67-4.17,4.45-7.16,5.51
	c-10.14-8.59-20.29-17.17-30.43-25.76c3.12-3.32,7.8-4.49,11.75-3.1c5.25,1.84,10.54,3.56,15.81,5.33c0.99,0.4,1.98,0.81,2.97,1.22
	c0.66,0.28,1.38,0.7,2.01,0.2c0.74-0.58,0.21-1.46-0.08-1.95C298.07,259.78,298.13,255.48,296.55,251.68z"/>
<path class="st13" d="M320.83,271.83c2.71-0.52,4.94-1.92,6.96-3.72c7.79-4.38,15.7-8.48,24.06-11.7c11.9-4.58,24-8.04,36.96-7.05
	c-0.22,0.38-0.44,0.76-0.66,1.15c-10.77,0.9-20.81,4.39-30.57,8.73c-10.71,4.77-20.95,10.41-31.06,16.38
	c-13.21,7.8-25.61,16.63-37.49,26.28c-8.42,6.85-16.41,14.16-24.36,21.54c-8.9,8.26-17.15,17.14-25.52,25.91
	c-0.86,0.9-1.93,1.29-2.8,2.05c-0.49-0.03-0.98-0.07-1.47-0.1c5.46-6.03,10.12-12.74,15.95-18.46c1.02-1,1.91-2.11,2.85-3.19
	c9.88-11.32,20.91-21.49,32.09-31.48c4.06-3.63,8.45-6.92,12.4-10.71c2.99-1.06,5.42-2.84,7.16-5.5c3.04-0.65,4.89-3.24,7.5-4.6
	c0.86-0.14,1.47-0.65,1.94-1.34C317,274.93,319.25,273.87,320.83,271.83z"/>
<path class="st11" d="M439.93,562.66c1.05-4.97,3.27-9.67,2.9-14.97c-0.29-4.15-0.4-4.42-4.36-3.18
	c-5.94,1.85-12.05,1.64-18.14,1.45c-1.07-0.03-2.13-0.67-3.16-1.34c5.42-1.62,10.77-2.94,16.04-4.7c7.41-2.48,14.38-5.73,21.17-9.47
	c8.44-4.65,15.86-10.62,22.6-17.46c0.67-0.68,1.3-1.43,2.38-1.46c-3.73,13.9-11.59,25.31-21.23,35.76
	C452.68,553.2,446.73,558.4,439.93,562.66z"/>
<path class="st7" d="M358.61,504.56c-2.95,2.17-6.3,3.88-7.68,7.7c-0.81,2.24-0.93,3.4,1.89,4.36c9.49,3.23,19.21,2.43,28.84,1.85
	c13.76-0.83,27.06-4.31,40.22-8.32c1.66-0.5,3.16-1.83,5.36-1.28c-0.4,1.46-1.64,1.9-2.73,2.41c-10.97,5.15-22.39,9.04-34.36,10.96
	c-12.08,1.93-24.23,2.52-36.38,0.17c-2.96-0.57-3.78,0.51-2.79,3.36c1.22,3.48,3.83,6.01,6.15,8.72
	c-10.86-2.08-16.97-12.15-13.65-22.52C345.43,505.89,349.84,503.73,358.61,504.56z"/>
<path class="st4" d="M180.85,472.07c4.08,8.86,6.46,12.35,9.67,13.9c0.31-1.63-0.28-3.05-0.93-4.3c-0.5-0.97-1.55-2.07-0.33-2.68
	c1.31-0.65,1.5,1.12,2.05,1.93c1.87,2.73,3.25,5.84,6.2,7.97c1.44-2.14-0.98-4.16,0.2-6.54c1.98,4.64,5.4,7.89,8.67,11.76
	c0.62-3.4-1.96-6.12-0.78-9.56c1.81,3.84,3.7,7.24,6.62,9.92c0.5,0.46,0.96,1.23,1.78,0.85c0.81-0.37,0.55-1.24,0.56-1.92
	c0.03-2.03,0.01-4.07,0.02-6.1c0.01-0.94-0.19-1.99,1.12-2.31c-0.08,3.95-0.15,7.9-0.23,11.85c-0.08,0.74-0.58,1.88,0.43,2.02
	c1.22,0.16,0.71-1.07,0.79-1.77c0.43-1.78,0.34-3.79,2.19-4.94c0.03,0.23,0.15,0.37,0.37,0.44c0.13,0.56,0.25,1.12,0.38,1.68
	c0.14,0.39,0.28,0.77,0.41,1.16c0.12,0.57,0.24,1.13,0.35,1.7c0.29,1.87-0.74,2.85-2.31,3.55c-7.02,3.17-14.24,3.21-21.38,0.8
	C184.1,497.22,177.45,484.66,180.85,472.07z"/>
<path class="st4" d="M414.47,365.57c-1.85,0.39-2.69-1.28-4-1.98c-6.42-3.46-13.17-4.15-20.23-2.64c-1.03,0.22-2.1,0.23-3.16,0.34
	c6.25-6.66,12.64-8.17,20.33-4.82C410.18,359.19,413.91,361.16,414.47,365.57z"/>
<path class="st2" d="M231.05,274.96c0.34,0.74,0.67,1.48,1.01,2.22c1.13,2.45,0.61,4.69-1.27,6.43c-2.09,1.94-4.63,2.24-7.17,0.84
	c-1-0.56-1.81-1.47-2.71-2.22c0.02-0.23,0-0.46-0.05-0.69c2.87-2.34,6.64-3.5,8.83-6.73C230.15,274.86,230.6,274.91,231.05,274.96z"
	/>
<path class="st5" d="M229.69,274.81c-2.19,3.23-5.96,4.39-8.83,6.73c-1.43-2.89-0.17-5,2.08-6.71
	C225.14,273.16,227.44,272.92,229.69,274.81z"/>
<path class="st11" d="M388.15,250.52c0.22-0.38,0.44-0.76,0.66-1.15c2.48-0.41,4.75,0.41,7.03,1.18
	C393.28,250.54,390.71,250.53,388.15,250.52z"/>
<path class="st11" d="M216.7,497.1c-0.08,0.7,0.44,1.93-0.79,1.77c-1.01-0.13-0.51-1.27-0.43-2.02
	C215.89,496.93,216.29,497.01,216.7,497.1z"/>
<path class="st5" d="M403.54,579.62c0.49-0.55,1.12-0.65,1.81-0.54C404.91,579.78,404.26,579.82,403.54,579.62z"/>
<path class="st5" d="M219.26,492.6c-0.22-0.07-0.34-0.22-0.37-0.44c0.17-0.06,0.35-0.12,0.52-0.18
	C219.36,492.18,219.31,492.39,219.26,492.6z"/>
<path class="st5" d="M220.05,495.44c-0.14-0.39-0.28-0.77-0.41-1.16C220.07,494.56,220.2,494.95,220.05,495.44z"/>
<path class="st5" d="M406.36,578.84c0.38-0.15,0.76-0.3,1.15-0.45C407.23,578.81,406.85,578.96,406.36,578.84z"/>
<path class="st0" d="M82.81,550.96c0.07,3.86-3.56,7.23-7.82,7.27c-3.67,0.03-7.16-3.37-7.23-7.03c-0.06-3.66,3.32-7.17,7-7.27
	C78.97,543.81,82.75,547.11,82.81,550.96z"/>
<path class="st11" d="M303.63,517.64c-1.93-1.12-0.56-3.36-1.65-4.86c-1.44,1.69-0.83,3.69-1.09,5.53c-0.15,1.06,0.71,2.86-0.94,3
	c-1.66,0.13-1.65-1.72-1.88-2.97c-0.78-4.15-0.9-8.31-0.18-12.49c0.38-2.22,0.62-4.46,1.01-7.32c-3.53,3.32-3.7,7.47-5.04,11.71
	c-2.39-4.31-1.33-8.19-0.49-11.89c2.45-10.74,9.9-17.72,18.67-23.43c4.87-3.17,9.61-6.79,15.54-7.96c-0.87,3.85-4.78,5.04-6.95,7.85
	c-9.55,12.41-17.41,25.36-16.84,41.78C303.8,516.93,303.69,517.29,303.63,517.64z"/>
<path class="st7" d="M387.36,431.8c0.24-5.56,3.27-9.39,8.08-11.51c4.97-2.2,10.09-2.67,14.57,1.57c0.9,0.85,1.14,1.74,1.08,2.84
	c-3.63,2.06-3.53,5.95-0.7,7.73c-3.9,4.86-8.99,6.05-14.87,4.78C396.01,432.36,392.46,430.01,387.36,431.8z"/>
<path class="st1" d="M398.58,413.49c-1.68-4.14-2.87-8.21-0.27-12.54c2.04-3.4,4.56-3.72,6.83-0.28c3,4.55,3.98,9.68,3.73,15.08
	C405.58,414.36,402.14,413.63,398.58,413.49z"/>
<path class="st1" d="M387.36,431.8c5.11-1.79,8.65,0.56,8.17,5.41c-2.51,1.64-4.83,0.93-6.96-0.71
	C387.01,435.29,386.26,433.75,387.36,431.8z"/>
<path class="st1" d="M410.39,432.42c-2.83-1.78-2.93-5.67,0.7-7.73c2.43,0.88,2.41,2.92,2.16,4.92
	C413.06,431.2,412.41,432.57,410.39,432.42z"/>
<path class="st4" d="M331.97,374.21c-1.29,1.24-3.03,1.21-4.6,1.7c-8.88,2.77-16.62,7.39-23.52,13.69
	c-7.6,6.95-12.36,15.42-16.06,24.91c-1.94,4.98-1.88,10.12-3.3,15.05c-2.62-8.46-1.98-17.07,1.02-25.02
	c4.48-11.85,10.97-22.67,23.58-27.77C316.39,373.83,324.1,372.89,331.97,374.21z"/>
<path class="st1" d="M317.52,581.97c-0.1-0.05-0.2-0.11-0.3-0.16c0.1,0.06,0.19,0.11,0.29,0.17
	C317.51,581.98,317.52,581.97,317.52,581.97z"/>
<path class="st11" d="M229.69,359.99c-3.61,4.29-7.21,8.59-10.82,12.88c-0.26-0.27-0.53-0.53-0.79-0.8
	c3.27-4.58,6.56-9.14,10.75-12.96C229.12,359.4,229.4,359.69,229.69,359.99z"/>
<path class="st2" d="M218.08,372.07c0.26,0.27,0.53,0.53,0.79,0.8c-1.23,1.73-2.42,3.48-3.72,5.16c-0.41,0.53-1.1,0.84-2.31,0.75
	C214.59,376.54,216.34,374.31,218.08,372.07z"/>
<path class="st4" d="M229.69,359.99c-0.28-0.29-0.57-0.58-0.85-0.87c1.1-1.42,2.2-2.85,3.31-4.27c0.3,0.39,0.6,0.77,0.91,1.16
	C231.93,357.33,230.81,358.66,229.69,359.99z"/>
<path class="st4" d="M232.14,354.84c0.4-0.68,0.85-1.8,1.73-1c1.04,0.94-0.26,1.53-0.82,2.16
	C232.74,355.62,232.44,355.23,232.14,354.84z"/>
<path class="st4" d="M234.88,351.31c0.49,0.03,0.98,0.07,1.47,0.1c-0.16,0.97-0.41,2.1-1.67,1.58
	C233.8,352.64,234.34,351.84,234.88,351.31z"/>
<path class="st8" d="M269.35,272.91c-0.24-0.28-0.47-0.56-0.71-0.84C268.88,272.35,269.12,272.63,269.35,272.91z"/>
<path class="st14" d="M309.12,421.39c-4.28-14.33,7.76-34.97,31.1-30.79C323.8,395.42,315.62,407.32,309.12,421.39z"/>
<path class="st14" d="M328.55,429.23c-0.55-5.97,2.68-10.93,8.31-12.89c3.83-1.33,7.56-2.52,11.78-1.27c4.74,1.4,7.45,4.3,8.32,9.06
	c-5.39-1.86-10.79-2.63-16.48-1.15C335.96,424.16,332.19,426.51,328.55,429.23z"/>
<path class="st1" d="M328.55,429.23c3.64-2.72,7.41-5.07,11.93-6.25c5.69-1.48,11.09-0.71,16.48,1.15c0.9,0.91,2.28,1.29,2.9,2.58
	c-0.59,1.43-1.9,0.31-2.75,0.75c-11.47-2.49-21.45,0.78-30.46,7.84c-1.49-0.12-1.43-1.01-0.86-1.96
	C326.65,431.95,327.62,430.6,328.55,429.23z"/>
<path class="st4" d="M326.65,435.31c9-7.06,18.98-10.33,30.46-7.84c-3.07,1.88-6.64,1.51-9.97,2.05c-5.92,0.96-11.47,3.02-17.06,5
	C328.95,434.92,327.9,435.47,326.65,435.31z"/>
<path class="st14" d="M392.1,376.32c5.89-5.54,13.84-5.49,18.75-0.43c0.78,0.81,2.01,1.88,1.16,3.01c-0.78,1.03-2.13,0.01-2.92-0.43
	C403.95,375.59,398.53,375.05,392.1,376.32z"/>
<path class="st6" d="M296.55,251.68c1.58,3.8,1.51,8.1,3.65,11.75c0.28,0.48,0.82,1.37,0.08,1.95c-0.64,0.5-1.35,0.07-2.01-0.2
	c-0.99-0.41-1.98-0.81-2.97-1.22C294.13,259.7,294.24,255.58,296.55,251.68z"/>
<path class="st6" d="M312.83,277.38c-2.61,1.36-4.45,3.95-7.5,4.6c-3.24-3.99-8.27-6.02-11.86-10.77
	C300.37,273.41,306.6,275.39,312.83,277.38z"/>
<path class="st6" d="M320.83,271.83c-1.58,2.04-3.84,3.1-6.06,4.2c-1.35-3.7-1.5-7.75-3.35-11.44
	C315.22,266.26,317.54,269.69,320.83,271.83z"/>
</svg>
