<svg version="1.1" id="Layer_1" xmlns="http://www.w3.org/2000/svg" xmlns:xlink="http://www.w3.org/1999/xlink" x="0px" y="0px" viewBox="39.134273529052734 213.75123596191406 525.3627319335938 427.6373291015625" style="enable-background:new 0 0 612 792;" xml:space="preserve">
<style type="text/css">
	.st0{fill:#04829E;}
	.st1{fill:#665045;}
	.st2{fill:#65B2C3;}
	.st3{fill:#F5F9FA;}
	.st4{fill:#FAE7CB;}
	.st5{fill:#90694C;}
	.st6{fill:#152235;}
	.st7{fill:#F1D1AB;}
	.st8{fill:#2F82BF;}
	.st9{fill:#4D9DD5;}
	.st10{fill:#FDFCFC;}
	.st11{fill:#EFD0AB;}
	.st12{fill:#F8CD50;}
	.st13{fill:#F1F2F2;}
	.st14{fill:#E8B785;}
</style>
<path class="st0" d="M553.47,479.29c4.46,10.94,7.52,22.33,10.86,33.63c0.34,1.15,0.19,2.06-0.72,2.92
	c-6.6,6.2-13.19,12.41-19.77,18.63c-0.52,0.49-1.05,0.99-1.56,1.49c-6.84,6.67-13.57,13.47-20.56,19.98
	c-8.38,7.8-16.64,15.72-24.9,23.65c-8,7.68-16.07,15.29-24.1,22.94c-8.28,7.9-16.5,15.88-24.94,23.6
	c-5.09,4.66-9.5,10.05-15.1,14.16c-1.16,0.85-2.06,1.26-3.53,1.04c-34.13-....75c-11.47-2.49-21.45,0.78-30.46,7.84c-1.49-0.12-1.43-1.01-0.86-1.96
	C326.65,431.95,327.62,430.6,328.55,429.23z"></path>
<path class="st4" d="M326.65,435.31c9-7.06,18.98-10.33,30.46-7.84c-3.07,1.88-6.64,1.51-9.97,2.05c-5.92,0.96-11.47,3.02-17.06,5
	C328.95,434.92,327.9,435.47,326.65,435.31z"></path>
<path class="st14" d="M392.1,376.32c5.89-5.54,13.84-5.49,18.75-0.43c0.78,0.81,2.01,1.88,1.16,3.01c-0.78,1.03-2.13,0.01-2.92-0.43
	C403.95,375.59,398.53,375.05,392.1,376.32z"></path>
<path class="st6" d="M296.55,251.68c1.58,3.8,1.51,8.1,3.65,11.75c0.28,0.48,0.82,1.37,0.08,1.95c-0.64,0.5-1.35,0.07-2.01-0.2
	c-0.99-0.41-1.98-0.81-2.97-1.22C294.13,259.7,294.24,255.58,296.55,251.68z"></path>
<path class="st6" d="M312.83,277.38c-2.61,1.36-4.45,3.95-7.5,4.6c-3.24-3.99-8.27-6.02-11.86-10.77
	C300.37,273.41,306.6,275.39,312.83,277.38z"></path>
<path class="st6" d="M320.83,271.83c-1.58,2.04-3.84,3.1-6.06,4.2c-1.35-3.7-1.5-7.75-3.35-11.44
	C315.22,266.26,317.54,269.69,320.83,271.83z"></path>
</svg>
