<svg xmlns="http://www.w3.org/2000/svg" viewBox="0 0 256 180"><defs><linearGradient id="a" x1="49.98%" x2="49.98%" y1="0%" y2="100.03%"><stop offset="0%" stop-color="#E52D27"/><stop offset="100%" stop-color="#BF171D"/></linearGradient></defs><path d="M101.6 123.2l69.2-35.8-69.2-36.1v71.9z" fill="#FFF"/><path d="M101.6 51.3l60.7 40.5 8.5-4.4-69.2-36.1z" fill="#420000" opacity=".12"/><path d="M253.301 38.8s-2.499-17.6-10.196-25.4c-9.696-10.2-20.592-10.2-25.69-10.8C181.73 0 128.05 0 128.05 0h-.1S74.271 0 38.385 2.6c-4.998.6-15.894.6-25.69 10.8C5.098 21.2 2.599 38.8 2.599 38.8S0 59.6 0 80.3v19.4c0 20.7 2.599 41.4 2.599 41.4s2.499 17.6 10.196 25.4c9.696 10.2 22.491 9.9 28.189 10.9 20.492 2 86.966 2.6 86.966 2.6s53.779-.1 89.565-2.7c4.998-.6 15.894-.6 25.69-10.8 7.697-7.8 10.196-25.4 10.196-25.4S256 120.4 256 99.7V80.3c-.1-20.7-2.699-41.5-2.699-41.5zm-151.74 84.4V51.3l69.172 36.1-69.173 35.8z" fill="url(#a)"/></svg>