<svg xmlns="http://www.w3.org/2000/svg" viewBox="0 0 69 69">
 <path d="M.02 34.72C0 38.71 3.57 39.8 5.33 36.3c2.94-5.87 10.27-8.24 18.69-6.88 7.34 1.19-20.9-16.14-24 5.3z" fill="#fd5a20"/>
 <path d="M42.82 14.13a13.79 13.79 0 0 0-5.26-5.72 1.49 1.49 0 0 1 .3-.47 1.8 1.8 0 0 0 .43-1.82 1.52 1.52 0 0 1 .26-1.34 1.72 1.72 0 0 0 .33-1.43 1.49 1.49 0 0 1 .12-.92c.3-.67.69-1.83-.1-2.26-.94-.5-2.17.68-2.65 1.7a1.48 1.48 0 0 1-.75.74 2.58 2.58 0 0 0-1.4 1.52 1.49 1.49 0 0 1-.86.97 2.59 2.59 0 0 0-1.33 1.23 25.7 25.7 0 0 0-14.03 1.78 29.89 29.89 0 0 0-12.75 9.84A26.38 26.38 0 0 0 .02 34.72a5.65 5.65 0 0 1 3-4.01 16.92 16.92 0 0 1 6.27-1.87 43.7 43.7 0 0 1 7.97-.19 64.39 64.39 0 0 1 8.09 1 19.52 19.52 0 0 0 9.2-.27 13.57 13.57 0 0 0 6.2-3.76 11.33 11.33 0 0 0 2.86-5.63 9.33 9.33 0 0 0-.79-5.86z" fill="#fdbf45"/>
 <path d="M25.35 29.66c10.1 1.92 16.54-3.13 18.07-8.82-7.13 14.87-19.84 4.3-34.78 5-5.05.24-7.99-1.6-2.75-8.88A26.39 26.39 0 0 0 .02 34.72c1.1-7 15.16-6.99 25.33-5.06z" fill="#fa9837"/>
 <path d="M51.32 6.26c-3.44-2-6.18.54-4.02 3.81 3.6 5.49 1.98 13.01-3.41 19.62-4.7 5.76 24.43-10 7.43-23.43z" fill="#a30011"/>
 <path d="M66.08 33.18c3.64-2.84 3.17-4.46-.5-4.84a29 29 0 0 0-2.3-9.26A26.38 26.38 0 0 0 51.31 6.26a5.64 5.64 0 0 1 1.97 4.6 16.92 16.92 0 0 1-1.52 6.37 43.7 43.7 0 0 1-3.83 7 64.39 64.39 0 0 1-4.93 6.5 19.52 19.52 0 0 0-4.37 8.1 13.57 13.57 0 0 0 .16 7.25 11.33 11.33 0 0 0 3.43 5.3 9.33 9.33 0 0 0 5.48 2.25 14.48 14.48 0 0 0 11.87-5.16 20.46 20.46 0 0 0 2.09-2.8 2.02 2.02 0 0 1 .68-.66c6.37-3.8 7.14-5.9 3.08-6.28 5.66-3.62 5.6-5.47.65-5.55z" fill="#f33d96"/>
 <path d="M43.01 30.72c-6.72 7.79-5.57 15.89-1.42 20.06-9.29-13.62 6.23-19.32 13.1-32.6 2.32-4.5 5.38-6.12 9.06 2.07A26.39 26.39 0 0 0 51.32 6.26c5.5 4.47-1.54 16.63-8.3 24.46z" fill="#e10d66"/>
 <path d="M50.27 64.85c3.46-2 2.61-5.63-1.3-5.39-6.55.4-12.28-4.74-15.33-12.7C31 39.8 30.17 72.91 50.27 64.84z" fill="#1f9175"/>
 <path d="M45.3 64.27a16.92 16.92 0 0 1-4.76-4.49 43.7 43.7 0 0 1-4.17-6.8 64.38 64.38 0 0 1-3.19-7.5l-.19-.52c2.17-1.61 2.94-2.89 2.25-3.78-.59-.75-2.24-1.22-5.01-1.37a16.65 16.65 0 0 0-1.9-2.16 13.57 13.57 0 0 0-6.37-3.46 11.33 11.33 0 0 0-6.3.35 9.33 9.33 0 0 0-4.68 3.62 14.24 14.24 0 0 0-1.8 11.65c-1.62 2.23-2.3 3.81-2.08 4.74.25 1.1 1.74 1.3 4.37.63a27.55 27.55 0 0 0 6.82 7.57 29.89 29.89 0 0 0 14.92 6.1 26.38 26.38 0 0 0 17.06-4 5.64 5.64 0 0 1-4.97-.58z" fill="#7ef4c3"/>
 <path d="m33.18 45.48c-3.41-9.7-11.01-12.74-16.7-11.2 16.44-1.3 13.67 15 21.78 27.57 2.74 4.25 2.63 7.7-6.3 6.83a26.39 26.39 0 0 0 18.31-3.83c-6.6 2.55-13.65-9.6-17.09-19.37z" fill="#4cd69e"/>
</svg>
