<svg width="200" height="200" viewBox="0 0 200 200" fill="none" xmlns="http://www.w3.org/2000/svg">
<rect width="200" height="200" rx="100" fill="#051478"/>
<path d="M29.7826 121.485C39.5399 121.485 46.6723 116.023 46.6723 108.599C46.6723 93.5652 23.1009 98.4704 23.1009 90.9138C23.1009 87.8381 26.0971 86.0351 30.1008 86.0351C34.4757 86.0351 36.7559 88.1298 37.9491 90.4896L46.1155 87.8646C43.9413 82.0314 37.9491 78.5845 30.6576 78.5845C20.8737 78.5845 14.4572 84.4973 14.4572 91.6297C14.4572 106.16 37.8695 100.804 37.8695 109.103C37.8695 112.019 34.6878 113.981 30.0477 113.981C25.1691 113.981 21.9873 111.303 20.6351 107.194L12.3625 109.845C14.2716 116.925 21.0063 121.485 29.7826 121.485ZM165.616 78.611C153.393 78.611 143.901 88.2623 143.901 100.061C143.901 111.86 153.393 121.512 165.616 121.512C177.84 121.512 187.385 111.86 187.385 100.061C187.358 88.2358 177.84 78.611 165.616 78.611ZM165.616 86.4063C172.881 86.4063 178.396 92.1069 178.396 100.035C178.396 107.963 172.881 113.663 165.616 113.663C158.458 113.663 152.863 107.963 152.863 100.035C152.863 92.1069 158.431 86.4063 165.616 86.4063ZM78.7814 79.2474H71.2513L53.5661 120.822H62.6341L66.2135 112.099H83.6336L87.213 120.769L92.9137 112.364L78.7814 79.2474ZM69.1832 104.887L74.8838 90.8342L80.6109 104.887H69.1832ZM113.675 99.2128L98.959 120.822H108.584L118.474 106.08L128.364 120.822H138.253L123.405 99.0007L136.848 79.2209H127.25L118.606 92.1069L109.962 79.2209H100.099L113.675 99.2128Z" fill="white"/>
</svg>
