<svg xmlns="http://www.w3.org/2000/svg" viewBox="0 0 66.575 63.017"><path d="M64.644 27.004 37.545 1.646c-2.347-2.195-6.056-2.195-8.478 0L12.035 17.618c4.466 1.665 7.948 5.374 9.235 9.992h23.012c1.211 0 2.119.984 2.119 2.12v3.481c0 1.211-.984 2.12-2.119 2.12h-2.649v4.92c0 1.211-.985 2.12-2.12 2.12h-5.829a2.115 2.115 0 0 1-2.119-2.12v-4.92H21.346c-1.287 4.693-4.769 8.478-9.311 10.067L29.143 61.37c2.346 2.195 6.055 2.195 8.478 0l27.023-25.358c2.574-2.422 2.574-6.51 0-9.008zM7.039 24.506c-1.135 0-2.195.303-3.179.757C1.589 26.399 0 28.745 0 31.47c0 2.65 1.438 4.92 3.633 6.132a7.01 7.01 0 0 0 3.331.832 6.946 6.946 0 0 0 6.964-6.964c.151-3.785-3.028-6.964-6.889-6.964z" fill="#e10600"/></svg>