<svg xmlns="http://www.w3.org/2000/svg" viewBox=".13 .07 2047.72 2047.81">
  <path fill="#2e2f33" d="M471 1.1c-65 7.6-103 16.5-150.1 35.5-64.7 26-121.5 63.8-171.4 114-41.7 41.9-74.5 87.9-99.1 138.9-24.8 51.7-37.7 95.6-47.6 163-2.2 15-2.2 15-2.6 563.5-.2 398.6 0 551.8.8 560.5 9.9 106.3 46.6 199.2 110.4 279 33.4 41.8 74.9 79.7 119.6 109 67.7 44.5 141.2 70.8 227 81.2 13.7 1.7 46.4 1.8 562 2.1 546.3.2 547.5.2 566.5-1.8 79.8-8.6 149.4-31.9 216-72.4 27.2-16.5 55.8-38.1 81-61.3 42.6-39.3 78.5-85.8 105.3-136.3 2.4-4.7 5-9.4 5.7-10.5.6-1.1 3.9-8.1 7.2-15.5 24.4-54.2 37.2-102 44.3-164.6 2-18 2-20.7 1.7-567.5-.3-549.4-.3-549.4-2.4-564.4-8.9-60.8-18.5-97.3-36.8-140.1-21.4-50-47.3-92.1-81.4-132.4-13.1-15.6-43.9-46.5-59-59.3-56.3-48-122.8-83.2-195.1-103.5-24.8-7-52.2-12.1-84.6-15.7C1565.8 0 1565.8 0 1022.2.1 721.9.2 475.1.6 471 1.1z"/>
  <path fill="#fff" d="M634.2 589.6c29.5 2.6 65.4 9.6 92 18 38.3 12.1 84.6 34.8 116.8 57.3 37.1 26 72.8 59.8 95.4 90.4 6.6 9 8 11.7 10 19.4 9.9 38-24.5 71.7-62.4 61.2-12.2-3.4-18.7-8.6-35.6-28.9-31.7-38.1-77.8-72.4-123.4-91.8-30.5-12.9-66.6-22.1-99.5-25.2-14.1-1.3-50.8-1.3-65 0-38.1 3.6-75.6 14-111.2 31-66 31.5-123.9 88.4-156.7 153.9-17.4 34.7-28.3 69.9-33 106.6-4.1 31.6-4.2 48.7-.6 80.5 3.5 30 9.6 55.4 20.1 82.8 26.2 68.6 73.4 125.7 136.8 165.2 37.7 23.4 84.4 40.4 127.6 46.4 6.1.8 21.4 2 34 2.6 12.6.7 23.2 1.3 23.5 1.5 1.2.8 35.7-2.6 48-4.6 24.8-4 50.3-11.6 75.2-22.3 64.6-27.7 123.3-79 168.5-147.1 34.6-52.3 57.4-102.5 82.8-183 46-145.6 115.7-253.1 210.7-325.1 82.1-62.3 185.8-95.7 281.2-90.5 57.4 3.1 97 11.6 146.6 31.3 68.9 27.4 131.5 74.5 180.6 135.8 24.9 31.2 47.2 69.9 62.9 109.5 19.2 48.2 29.1 98.4 30.2 152.5.5 23.8.2 30.2-1.6 47.5-9.3 86.9-38.8 160.9-91.2 228.5-14.2 18.4-45 50.2-63.6 65.8-66.8 55.9-151 91.3-237.3 99.7-17 1.7-60.6 1.9-79.8.5-82.5-6.3-168.1-40.2-233.9-92.5-12.7-10.1-17.2-14.1-32.7-29.4-23-22.5-39.1-41.1-45.9-53.1-5.5-9.6-7.2-24.8-4.2-36.5 4.2-16 14.7-27.5 31-33.9 5.9-2.4 8.6-2.8 17-2.9 18.9-.3 27.9 4.7 44.9 24.8 13.2 15.6 33.5 36.1 46.9 47.3 50 41.8 115.8 69.2 180.2 75.2 14.1 1.3 53.6 1.3 68.5 0 46.4-4.1 95.9-20.7 137.7-46.1 24.5-14.8 43.9-30.3 65.8-52.3 43.7-43.8 73.5-96.8 88.4-157.1 13-52.5 12.5-110.9-1.4-163-13.7-51.5-41.1-101.6-76.9-140.7-56.3-61.7-130.7-99.8-211.7-108.4-12.1-1.2-22.2-1.5-47.4-1.1-29.1.4-33.3.7-46.4 3.1-72.1 13.3-131.2 44.9-186.6 100.1-57.5 57.2-103.8 139.5-135.4 240.3-13.9 44.3-21.1 64.3-35.1 97.2-38.1 89.3-90.1 163.5-153.3 218.7-69.3 60.5-156.2 99.6-244.2 109.8-17.7 2-67.4 2-89 0-52.9-5.1-101.3-18.7-148-41.4-43.8-21.3-75.7-43.3-110.1-75.6-37.9-35.7-69.7-79-92.1-125.3-21.6-44.9-34.5-89.4-41.5-142.7-3-23.1-3.2-73.3-.5-95.5 6.6-53.2 19.3-97.9 40.3-141.8 38.6-80.8 100.7-147.3 179.4-192.3 39.4-22.5 84-39 131-48.3 19.7-3.9 38.3-6 71.5-8 9.5-.5 33.5.4 51.7 2z"/>
</svg>
