<svg version="1.1" xmlns="http://www.w3.org/2000/svg" xmlns:xlink="http://www.w3.org/1999/xlink" xmlns:a="http://ns.adobe.com/AdobeSVGViewerExtensions/3.0/" x="0px" y="0px" viewBox="0 0 51.8 56.7" enable-background="new 0 0 51.8 56.7" xml:space="preserve">
<defs xmlns="http://www.w3.org/2000/svg">
</defs>
<path xmlns="http://www.w3.org/2000/svg" fill="#333333" d="M8.5,48.7C2.8,43.3,0,36.5,0,28.3S2.8,13.3,8.5,8c5.7-5.3,12.7-8,21.3-8c5.3,0,9.9,1,13.7,3   c3.8,2,6.6,4.4,8.4,7.2L40.7,20.5c-2.3-3.4-5.7-5-10.2-5c-3.6,0-6.6,1.2-9,3.5c-2.4,2.3-3.6,5.4-3.6,9.4s1.2,7.1,3.6,9.4   c2.4,2.3,5.4,3.5,9,3.5c-0.8,15.4,0,0-0.8,15.4C21.3,56.7,14.2,54,8.5,48.7z"/>
<circle xmlns="http://www.w3.org/2000/svg" fill="#333333" cx="32" cy="28.9" r="7.7"/>
</svg>
