<svg xmlns="http://www.w3.org/2000/svg" viewBox="0 0 137 137" fill="none">
<rect width="137" height="137" rx="68.5" fill="#FD3E72"/>
<mask id="mask0" mask-type="alpha" maskUnits="userSpaceOnUse" x="0" y="0" width="137" height="137">
<rect width="137" height="137" rx="68.5" fill="#FD3E72"/>
</mask>
<g mask="url(#mask0)">
<g style="mix-blend-mode:multiply">
<path d="M137.001 91.1906L107.032 25.6875L97.4307 91.1906L35.7227 94.9902L58.911 137H137.001V91.1906Z" fill="url(#paint0_linear)" fill-opacity="0.24"/>
</g>
<path d="M106.859 25.6875C100.169 25.6875 94.7752 31.3455 94.7752 38.3631V75.0742C94.7752 76.6093 94.6916 78.1444 94.5244 79.7672C94.3571 81.3462 93.939 82.7936 93.2699 84.1094C92.6009 85.4252 91.5974 86.5217 90.2594 87.3989C88.9213 88.2761 86.9979 88.7147 84.5727 88.7147C82.1475 88.7147 80.2241 88.2761 78.8861 87.3989C77.548 86.5217 76.5445 85.4252 75.8755 84.1094C75.2065 82.7936 74.7883 81.3462 74.6211 79.7672C74.4538 78.1883 74.3702 76.6093 74.3702 75.0742V37.2228C67.68 37.2228 62.2861 42.8807 62.2861 49.8984V75.0303C62.2861 76.5654 62.2024 78.1005 62.0352 79.7234C61.8679 81.3023 61.4498 82.7497 60.7808 84.0655C60.1117 85.3813 59.1082 86.4778 57.7702 87.355C56.4321 88.2323 54.5087 88.6709 52.0835 88.6709C49.6583 88.6709 47.7349 88.2323 46.3969 87.355C45.0588 86.4778 44.0553 85.3813 43.3863 84.0655C42.7173 82.7497 42.2991 81.3023 42.1319 79.7234C41.9646 78.1444 41.881 76.5654 41.881 75.0303V48.758C35.1908 48.758 29.7969 54.4598 29.7969 61.4336V75.0303C29.7969 78.6269 30.1314 81.7848 30.8004 84.5041C31.4694 87.2235 32.3057 89.5481 33.3092 91.5218C34.3546 93.4955 35.5253 95.1183 36.8634 96.4341C38.2014 97.7499 39.5813 98.8026 40.9611 99.6359C44.1808 101.566 47.9022 102.618 52.0417 102.75C56.2649 102.618 59.9863 101.566 63.2478 99.6359C64.6276 98.8026 66.0075 97.7499 67.3037 96.4341C67.6382 96.0832 67.9727 95.7324 68.3072 95.3376C68.6417 95.7324 68.9762 96.0832 69.3107 96.4341C70.6488 97.7499 72.0286 98.8026 73.4085 99.6359C76.6281 101.566 80.3495 102.618 84.4891 102.75C88.7123 102.618 92.4337 101.566 95.6951 99.6359C97.075 98.8026 98.4548 97.7499 99.7511 96.4341C101.089 95.1183 102.26 93.4955 103.305 91.5218C104.351 89.5481 105.187 87.2235 105.814 84.5041C106.441 81.7848 106.734 78.6707 106.734 75.0303L106.859 25.6875Z" fill="white"/>
</g>
<defs>
<linearGradient id="paint0_linear" x1="75.1681" y1="64.2187" x2="106.685" y2="124.917" gradientUnits="userSpaceOnUse">
<stop stop-color="#666666"/>
<stop offset="1" stop-color="#666666" stop-opacity="0"/>
</linearGradient>
</defs>
</svg>
