<svg width="232" height="75" viewBox="0 0 232 75" fill="none" xmlns="http://www.w3.org/2000/svg">
<path d="M107.999 41.2814H82.5262C81.3683 41.2814 80.4911 42.2976 80.7017 43.419C80.7367 43.6643 80.7718 43.9096 80.8069 44.1549C80.9824 45.1361 81.2631 46.0823 81.649 47.0285C82.2455 48.4652 83.1929 49.7268 84.4911 50.8482C85.7542 51.9696 87.5437 52.4952 89.8243 52.4952C92.105 52.4952 93.8594 51.9345 95.1576 50.8482C96.1751 49.9721 96.947 48.9909 97.5435 47.9396C97.8593 47.3789 98.4909 47.0285 99.1224 47.0285H106.245C107.543 47.0285 108.421 48.3251 107.999 49.5165C107.684 50.4277 107.298 51.3037 106.842 52.0747C106.035 53.5115 105.157 54.773 104.175 55.8243C103.193 56.8756 102.175 57.7517 101.052 58.4526C99.9294 59.1534 98.8768 59.7141 97.8242 60.1697C95.2628 61.1509 92.5962 61.6765 89.7542 61.6765C86.0349 61.6065 82.7367 60.8355 79.8596 59.3637C78.6315 58.6979 77.4386 57.8568 76.2456 56.8406C75.0526 55.8243 74 54.5277 73.0877 52.9858C72.1755 51.4439 71.4386 49.5866 70.8772 47.4139C70.3159 45.2413 70.0352 42.7532 70.0352 39.8446C70.0352 36.9711 70.3159 34.4479 70.8772 32.2753C71.4386 30.1026 72.1755 28.2453 73.0877 26.6683C74 25.0914 75.0526 23.7948 76.2456 22.7435C77.4386 21.6922 78.6315 20.8512 79.8596 20.1853C82.7016 18.6434 85.9647 17.8374 89.6489 17.6973C89.7191 17.6973 89.7892 17.6973 89.8594 17.6973C92.8769 17.8374 95.6839 18.4682 98.3154 19.5896C99.4382 20.0802 100.561 20.746 101.684 21.552C102.807 22.358 103.859 23.3392 104.842 24.5307C105.824 25.7222 106.666 27.1239 107.403 28.7709C108.14 30.418 108.701 32.3103 109.017 34.4479C109.122 35.289 109.228 36.13 109.298 37.0061C109.368 37.8822 109.438 38.8283 109.438 39.8446C109.473 39.7745 109.684 41.2814 107.999 41.2814ZM95.8593 34.3779C97.1926 34.3779 98.14 32.9761 97.5435 31.7847C97.5435 31.7847 97.5435 31.7496 97.5084 31.7496C97.0874 30.8735 96.526 30.0675 95.7892 29.3316C95.0523 28.6308 94.2102 28.035 93.2278 27.6145C92.2453 27.194 91.0524 26.9837 89.7542 26.9837C88.4208 26.9837 87.263 27.194 86.2805 27.6145C85.2981 28.035 84.4209 28.5957 83.7192 29.3316C82.9823 30.0675 82.4209 30.8385 81.9648 31.7496V31.7847C81.3683 33.0112 82.3157 34.4129 83.649 34.4129H95.8593V34.3779Z" fill="#A12B52"/>
<path d="M64.947 0C59.333 0 54.8067 4.52058 54.8067 10.1275V39.4587C54.8067 40.6852 54.7366 41.9117 54.5962 43.2083C54.4559 44.4699 54.105 45.6263 53.5436 46.6776C52.9822 47.7289 52.1401 48.605 51.0173 49.3059C49.8945 50.0067 48.2805 50.3572 46.2455 50.3572C44.2104 50.3572 42.5964 50.0067 41.4736 49.3059C40.3508 48.605 39.5087 47.7289 38.9473 46.6776C38.3859 45.6263 38.0351 44.4699 37.8947 43.2083C37.7544 41.9468 37.6842 40.6852 37.6842 39.4587V9.21638C32.0702 9.21638 27.544 13.737 27.544 19.3439V39.4237C27.544 40.6502 27.4738 41.8767 27.3335 43.1733C27.1931 44.4348 26.8423 45.5913 26.2809 46.6426C25.7195 47.6939 24.8774 48.57 23.7546 49.2708C22.6318 49.9717 21.0178 50.3221 18.9827 50.3221C16.9477 50.3221 15.3337 49.9717 14.2109 49.2708C13.0881 48.57 12.246 47.6939 11.6846 46.6426C11.1232 45.5913 10.7723 44.4348 10.632 43.1733C10.4916 41.9117 10.4214 40.6502 10.4214 39.4237V18.4328C4.8075 18.4328 0.28125 22.9884 0.28125 28.5603V39.4237C0.28125 42.2972 0.561948 44.8203 1.12334 46.993C1.68474 49.1657 2.38648 51.023 3.22857 52.5999C4.10575 54.1769 5.0882 55.4735 6.21099 56.5248C7.33378 57.5761 8.49165 58.4171 9.64953 59.0829C12.3512 60.6248 15.474 61.4659 18.9476 61.571C22.4914 61.4659 25.6142 60.6248 28.351 59.0829C29.5089 58.4171 30.6668 57.5761 31.7545 56.5248C32.0352 56.2444 32.3159 55.9641 32.5966 55.6487C32.8773 55.9641 33.158 56.2444 33.4386 56.5248C34.5614 57.5761 35.7193 58.4171 36.8772 59.0829C39.5789 60.6248 42.7017 61.4659 46.1753 61.571C49.7191 61.4659 52.8419 60.6248 55.5787 59.0829C56.7365 58.4171 57.8944 57.5761 58.9821 56.5248C60.1049 55.4735 61.0874 54.1769 61.9645 52.5999C62.8417 51.023 63.5435 49.1657 64.0698 46.993C64.5961 44.8203 64.8417 42.3323 64.8417 39.4237L64.947 0Z" fill="#A12B52"/>
<path d="M140.173 59.0129C139.892 59.8189 139.156 60.3796 138.278 60.3796H132.945H127.612C126.77 60.3796 125.998 59.8189 125.717 59.0129L113.331 21.0611C112.91 19.7645 113.858 18.4679 115.226 18.4679H121.226C122.068 18.4679 122.84 19.0286 123.121 19.8346L131.05 44.0495C131.647 45.8717 134.208 45.8717 134.805 44.0495L139.366 30.1022L147.015 6.69336C148.699 1.61209 154.173 -1.19137 159.261 0.490701L140.173 59.0129Z" fill="#EF4273"/>
<path d="M189.086 26.3871C188.173 24.8101 187.121 23.5135 185.928 22.4622C184.735 21.4109 183.542 20.5699 182.314 19.9041C179.437 18.3622 176.174 17.5211 172.56 17.416C169.086 17.416 166.139 17.9417 163.718 18.9579C161.297 19.9742 159.297 21.446 157.718 23.3383C156.139 25.2307 155.016 27.5435 154.279 30.2769C153.577 33.0103 153.191 36.0941 153.191 39.5634V71.8032C153.191 73.1698 154.279 74.2562 155.648 74.2562H160.56C161.928 74.2562 163.016 73.1698 163.016 71.8032V55.5781C163.542 56.314 164.139 56.9448 164.77 57.5055C166.209 58.732 167.612 59.6081 168.981 60.1338C170.524 60.7295 172.103 61.0799 173.753 61.185C173.893 61.185 173.998 61.185 174.138 61.185C177.472 61.115 180.454 60.344 183.051 58.8722C184.209 58.2064 185.331 57.3653 186.419 56.3491C187.507 55.3328 188.454 54.0362 189.331 52.4943C190.173 50.9524 190.875 49.0951 191.401 46.9575C191.928 44.8198 192.173 42.2967 192.173 39.4232C192.173 36.5496 191.893 34.0616 191.296 31.8889C190.735 29.7863 189.998 27.929 189.086 26.3871ZM181.682 43.4532C181.472 44.8899 181.016 46.2216 180.349 47.4481C179.682 48.6746 178.735 49.7259 177.507 50.5319C176.279 51.3729 174.63 51.7584 172.595 51.7584C170.56 51.7584 168.91 51.3379 167.682 50.5319C166.454 49.6909 165.472 48.6746 164.77 47.4481C164.068 46.2216 163.612 44.8899 163.402 43.4532C163.191 42.0164 163.086 40.6847 163.086 39.4933C163.086 38.0215 163.191 36.5496 163.367 35.0778C163.577 33.606 163.963 32.3094 164.595 31.1179C165.226 29.9265 166.174 28.9803 167.437 28.2794C168.7 27.5786 170.419 27.1931 172.56 27.1931C174.595 27.1931 176.244 27.6136 177.472 28.4196C178.7 29.2606 179.682 30.2769 180.314 31.5034C180.98 32.7299 181.402 34.0966 181.647 35.4983C181.858 36.9351 181.963 38.2668 181.963 39.4582C181.998 40.6847 181.893 42.0164 181.682 43.4532Z" fill="#EF4273"/>
<path d="M230.699 30.1719C229.857 27.6488 228.769 25.5812 227.436 23.9342C226.102 22.2871 224.664 21.0256 223.12 20.1495C221.576 19.2734 220.102 18.6076 218.734 18.2221C217.366 17.8016 216.137 17.5913 215.12 17.5213C214.102 17.4512 213.506 17.4512 213.331 17.4512C213.12 17.4512 212.488 17.4862 211.506 17.5213C210.524 17.5913 209.331 17.8016 207.962 18.2221C206.594 18.6426 205.12 19.2734 203.576 20.1495C202.032 21.0256 200.594 22.2871 199.261 23.9342C197.927 25.5812 196.84 27.6838 195.997 30.1719C195.155 32.695 194.699 35.7788 194.699 39.4583V58.1714C194.699 59.3979 195.682 60.3792 196.91 60.3792H202.559C203.787 60.3792 204.769 59.3979 204.769 58.1714V39.4934C204.769 38.2669 204.875 37.0403 205.085 35.7788C205.296 34.5172 205.717 33.3608 206.313 32.3095C206.91 31.2582 207.787 30.3821 208.874 29.7163C209.962 29.0154 211.436 28.7001 213.26 28.7001C215.085 28.7001 216.559 29.0505 217.646 29.7163C218.734 30.4172 219.611 31.2582 220.208 32.3095C220.804 33.3608 221.225 34.5172 221.436 35.7788C221.646 37.0403 221.751 38.3019 221.751 39.4934V58.1714C221.751 59.3979 222.734 60.3792 223.962 60.3792H229.751C230.979 60.3792 231.962 59.3979 231.962 58.1714V39.4934C231.962 35.7788 231.541 32.695 230.699 30.1719Z" fill="#EF4273"/>
</svg>
