<svg clip-rule="evenodd" fill-rule="evenodd" stroke-linejoin="round" stroke-miterlimit="2" version="1.1" viewBox="28 28 1024 1024" xml:space="preserve" xmlns="http://www.w3.org/2000/svg">
    <g transform="matrix(.94815 0 0 .94815 28 28)">
        <circle cx="540" cy="540" r="540"/>
        <path d="m540 0c298.03 0 540 241.97 540 540s-241.97 540-540 540-540-241.97-540-540 241.97-540 540-540zm0 75.938c256.12 0 464.06 207.94 464.06 464.06s-207.94 464.06-464.06 464.06-464.06-207.94-464.06-464.06 207.94-464.06 464.06-464.06z" fill="#fff"/>
    </g>
    <g transform="matrix(.24604 0 0 .24604 288.35 352.9)">
        <g transform="matrix(4.1667 0 0 4.1667 -37.536 1037.1)">
            <path d="m0-127.1c0-1.858 1.672-3.344 3.53-3.344h4.645l74.139 71.352h0.186v-65.964c0-1.858 1.487-3.531 3.531-3.531h22.297c1.859 0 3.531 1.673 3.531 3.531v125.05c0 1.859-1.672 3.345-3.531 3.345h-2.973c-0.557 0-2.044-0.557-2.415-0.929l-73.396-73.768h-0.186v69.309c0 1.858-1.487 3.53-3.531 3.53h-22.111c-1.858 0-3.53-1.672-3.53-3.53l-0.186-125.05z" fill="#fff" fill-rule="nonzero"/>
        </g>
        <g transform="matrix(4.1667 0 0 4.1667 653.07 1036.3)">
            <path d="m0-124.86c0-1.858 1.672-3.531 3.53-3.531h22.855c2.044 0 3.531 1.673 3.531 3.531v75.254c0 13.007 9.662 23.412 22.855 23.412 13.378 0 23.226-10.405 23.226-23.412v-75.254c0-1.858 1.487-3.531 3.53-3.531h22.856c1.858 0 3.53 1.673 3.53 3.531v76.74c0 28.244-23.784 51.656-53.142 51.656-29.173 0-52.771-23.412-52.771-51.656v-76.74z" fill="#fff" fill-rule="nonzero"/>
        </g>
        <g transform="matrix(4.1667 0 0 4.1667 1320.4 1024.7)">
            <path d="m0-121.15c0-2.416 1.858-4.46 4.46-4.46h21.74c2.415 0 4.459 2.044 4.459 4.46v48.869l41.25-51.47c0.743-0.929 2.416-1.859 3.53-1.859h23.413c3.531 0 5.389 4.088 3.345 6.876l-43.481 54.443 47.383 61.689c2.044 2.787 0 6.876-3.531 6.876h-25.642c-1.3 0-2.973-0.744-3.344-1.301l-42.923-58.345v55.372c0 2.415-2.044 4.459-4.459 4.459h-21.74c-2.602 0-4.46-2.044-4.46-4.459v-121.15z" fill="#fff" fill-rule="nonzero"/>
        </g>
        <g transform="matrix(4.1667 0 0 4.1667 1942.9 1028.6)">
            <path d="m0-123.01c0-1.858 1.672-3.531 3.53-3.531h22.298c1.858 0 3.53 1.673 3.53 3.531v123.01c0 1.858-1.672 3.53-3.53 3.53h-22.298c-1.858 0-3.53-1.672-3.53-3.53v-123.01z" fill="#fff" fill-rule="nonzero"/>
        </g>
        <g transform="matrix(0 4.1667 4.1667 0 2003.4 106.84)">
            <path d="m19.221-18.892c-10.842 0-19.385 8.214-19.385 18.727 0 10.844 8.543 19.386 19.385 19.386 10.514 0 19.056-8.542 19.056-19.386 0-10.513-8.542-18.727-19.056-18.727" fill="#ffcc3e" fill-rule="nonzero"/>
        </g>
    </g>
</svg>
