<svg version="1.0" xmlns="http://www.w3.org/2000/svg" viewBox="0 0 2115.000000 2116.000000"
 preserveAspectRatio="xMidYMid meet">
<g transform="translate(0.000000,2116.000000) scale(0.100000,-0.100000)"
stroke="none">
<path d="M10180 21149 c-1770 -63 -3512 -579 -5035 -1491 -1922 -1153 -3422
-2872 -4304 -4936 -417 -976 -687 -2031 -791 -3096 -39 -408 -45 -527 -45
-1036 0 -594 19 -903 86 -1410 249 -1886 1023 -3703 2209 -5184 474 -592 1032
-1155 1605 -1621 1583 -1286 3496 -2087 5510 -2305 654 -70 1411 -79 2065 -24
1442 122 2871 550 4140 1242 2416 1316 4234 3529 5049 6142 527 1692 620 3498
271 5240 -312 1557 -971 3019 -1933 4290 -303 399 -566 700 -952 1086 -305
306 -452 441 -720 664 -1691 1408 -3754 2246 -5945 2415 -410 31 -792 39
-1210 24z m865 -1089 c1339 -71 2596 -399 3763 -984 l152 -76 0 -2305 0 -2305
-4747 -2 -4748 -3 -3 -1322 c-1 -808 -6 -1323 -11 -1323 -28 0 -197 -129 -277
-212 -142 -147 -224 -297 -276 -506 -31 -122 -31 -349 0 -473 110 -447 459
-766 906 -828 577 -80 1122 330 1206 908 17 113 8 314 -18 413 -77 286 -244
514 -490 664 l-67 41 -3 832 -2 831 4750 0 4750 0 0 2500 c0 1375 3 2500 6
2500 22 0 495 -356 707 -533 327 -272 762 -694 1029 -997 1503 -1706 2342
-3842 2385 -6072 l6 -308 -2551 0 -2552 0 0 -4168 0 -4169 -247 -120 c-399
-195 -783 -351 -1198 -486 -145 -48 -458 -140 -547 -161 l-28 -6 0 3727 0
3728 68 32 c156 74 333 219 446 366 346 452 346 1082 0 1534 -457 597 -1346
662 -1879 136 -276 -272 -415 -646 -377 -1015 46 -450 301 -821 704 -1024 l68
-34 0 -3824 0 -3823 -122 -17 c-1621 -215 -3268 -15 -4769 579 -144 57 -396
167 -562 244 l-87 41 0 2855 0 2855 1028 0 1027 -1 33 -57 c118 -206 351 -382
607 -459 84 -25 102 -27 280 -27 179 0 195 2 279 27 186 58 332 144 461 274
393 396 402 1037 20 1442 -328 347 -830 431 -1251 207 -155 -82 -296 -213
-389 -359 l-48 -77 -1509 0 -1508 0 0 -3065 c0 -1686 -3 -3065 -6 -3065 -3 0
-82 52 -175 115 -544 369 -950 705 -1415 1169 -369 370 -657 704 -938 1086
l-106 145 0 5477 0 5476 101 139 c117 159 297 387 412 521 l79 92 3731 0 3732
0 22 -38 c40 -69 134 -173 216 -237 487 -386 1195 -227 1475 330 71 143 110
333 98 488 -32 416 -304 754 -703 873 -120 36 -327 45 -453 19 -185 -37 -340
-118 -480 -251 -50 -48 -110 -116 -132 -150 l-42 -64 -3244 0 -3244 0 79 67
c450 384 1051 792 1598 1088 1259 679 2664 1067 4090 1128 180 8 719 6 890 -3z
m-9205 -9482 l-1 -3713 -39 92 c-164 390 -334 904 -440 1340 -301 1226 -357
2504 -164 3753 88 572 250 1209 440 1733 62 171 195 507 200 507 2 0 4 -1671
4 -3712z m18160 -1082 c0 -42 -40 -325 -75 -531 -81 -480 -193 -921 -355
-1406 -604 -1808 -1769 -3419 -3305 -4570 -126 -95 -290 -213 -322 -233 -10
-6 -13 673 -13 3378 l0 3386 2035 0 2035 0 0 -24z"/>
</g>
</svg>
