<svg xmlns="http://www.w3.org/2000/svg" viewBox="0 0 256 194"><defs><linearGradient id="a" x1=".004%" x2="100.032%" y1="49.998%" y2="49.998%"><stop offset="0%" stop-opacity=".1"/><stop offset="100%" stop-opacity=".2"/></linearGradient></defs><path d="M238.834 193.595H16.154C7.52 193.595.25 186.551.25 177.689V16.815C.249 8.18 7.292.909 16.154.909h222.68c8.634 0 15.906 7.044 15.906 15.906v160.874c0 8.862-7.044 15.906-15.906 15.906z" fill="#E3E3E3"/><path d="M32.06 193.595l95.207-76.575.682-4.09-98.161-70.666-.228 147.923 2.5 3.408z" fill="#231F20" opacity=".1"/><path d="M16.154 193.595c-8.862 0-15.905-7.044-15.905-15.906V16.587c0-8.861 7.043-10.452 15.905-10.452 8.862 0 15.906 1.818 15.906 10.452v177.008H16.154z" fill="#D54B3D"/><path d="M16.154 8.407c11.361 0 13.634 3.409 13.634 8.18v174.736H16.154c-7.498 0-13.633-6.135-13.633-13.634V16.587c0-4.999 2.272-8.18 13.633-8.18zm0-2.272C7.292 6.135.25 7.953.25 16.587V177.69c0 8.862 7.043 15.906 15.905 15.906H32.06V16.587c0-8.861-7.044-10.452-15.906-10.452z" fill="#D72B27"/><path d="M238.834 193.595h-15.906V16.133c0-8.862 7.044-9.998 15.906-9.998 8.862 0 15.906 1.136 15.906 9.998v161.784c0 8.634-7.044 15.678-15.906 15.678z" fill="#D54B3D"/><path d="M238.834 8.407c10.225 0 13.633 2.045 13.633 7.726v161.784c0 7.498-6.135 13.633-13.633 13.633H225.2V16.133c0-5.908 3.409-7.726 13.634-7.726zm0-2.272c-8.862 0-15.906 1.136-15.906 9.998v177.69h15.906c8.862 0 15.906-7.045 15.906-15.906V16.133c0-8.862-7.044-9.998-15.906-9.998z" fill="#D72B27"/><path d="M170.667 193.595L1.58 23.195l8.894 3.617 117.702 84.755L254.74 18.76v159.157c0 8.634-7.044 15.678-15.906 15.678h-68.167z" fill="url(#a)"/><path d="M127.267 117.02L7.065 29.766C.021 24.54-2.024 14.542 3.202 7.498 8.43.454 18.654-1.136 25.925 4.09l101.57 73.848L229.744 3.18c7.044-5.226 17.042-3.635 22.268 3.636 5.226 7.044 3.636 17.042-3.636 22.268l-121.11 87.935z" fill="#D54B3D"/><path d="M238.834 2.272c4.317 0 8.407 2.045 11.134 5.68 4.317 6.136 2.954 14.543-2.954 19.088l-119.747 87.254L8.429 27.949C2.294 23.404.703 14.769 5.02 8.862c2.5-3.409 6.817-5.68 11.361-5.68 2.954 0 5.908.908 8.18 2.726l101.343 73.62 1.363.91 1.363-.91L230.654 4.772c2.5-1.59 5.226-2.5 8.18-2.5zm0-2.272c-3.181 0-6.59.909-9.316 2.954L127.267 77.71 25.697 3.863C22.972 1.818 19.564.909 16.155.909c-4.999 0-9.998 2.272-13.179 6.59-4.999 7.043-2.954 17.041 4.09 22.267l120.202 87.482L248.15 29.085c7.044-5.226 8.635-14.997 3.636-22.268C248.605 2.272 243.833 0 238.834 0z" fill="#D72B27"/></svg>