<svg xmlns="http://www.w3.org/2000/svg" viewBox="0 0 120 80"><defs><linearGradient x1="0%" y1="27.7777778%" x2="100%" y2="72.2222222%" id="A"><stop stop-color="#ff4c1d" offset="0%"/><stop stop-color="#9b0063" offset="100%"/></linearGradient></defs><path d="M1.009 23.341A2.41 2.41 0 0 0 0 25.29h0v.03a2.39 2.39 0 0 0 .204.947h0L11.69 52.288a2.41 2.41 0 0 0 3.011 1.296h0c7.52-2.682 33.561-11.165 50.414-6.589h0s-16.906.978-32.193 12.966h0a2.4 2.4 0 0 0-.707 2.855h0l5.143 11.627h0l1.98 4.645a1.51 1.51 0 0 0 2.641.237h0c3.567-5.372 9.581-8.055 15.359-10.397h0c5.919-2.398 12.094-4.187 18.394-5.252h0c6.713-1.135 13.567-1.438 20.351-.838h0c1.13.1 2.179-.593 2.516-1.674h0l5.189-16.583a2.4 2.4 0 0 0-.88-2.656h0c-5.786-4.191-28.704-18.269-69.007-12.614h0s34.391-19.756 78.053 1.946h0c1.323.659 2.92-.033 3.361-1.438h0l4.574-14.624a2.42 2.42 0 0 0 .11-.683h0v-.07a2.4 2.4 0 0 0-1.216-2.051h0C113.304 9.291 94.751 0 69.23 0h0C49.669-.001 26.016 5.456 1.009 23.341" fill="url(#A)" fill-rule="evenodd"/></svg>
