<svg xmlns="http://www.w3.org/2000/svg" viewBox="0 0 861.192 888.938"><path fill="#0F9D58" d="M669.783 886.964H191.409L153.02 791.29l38.389-95.675h478.374l23.918 95.675z"/><path fill="#4285F4" d="M861.132 428.503v410.624c0 26.43-21.407 47.837-47.837 47.837H669.783V488.3L430.596 249.113l32.888-92.685 101.415-41.798.12.12 283.616 283.915c7.355 8.012 12.497 18.357 12.497 29.838z"/><path fill="#F4B400" d="M191.409 488.3v398.665H47.897c-26.43 0-47.837-21.407-47.837-47.837V679.649l89.695-136.037L191.409 488.3z"/><path fill="#DB4437" d="M565.019 114.75L430.596 249.113.06 679.649V428.503c.419-11.481 5.143-21.826 12.498-29.839 0 0 383.476-383.835 384.254-384.672C405.481 5.382 418.637 0 430.596 0s25.115 5.382 33.785 13.992c.299.299 43.353 43.412 100.518 100.638"/><path opacity=".2" fill="#FFF" d="M848.635 398.665L464.322 13.993C455.711 5.382 442.555 0 430.596 0s-25.115 5.382-33.785 13.992L12.498 398.665C5.143 406.677.478 417.022 0 428.503v5.98c.419-11.481 5.143-21.826 12.498-29.839L396.811 19.972c8.671-8.611 21.826-13.992 33.785-13.992 11.959 0 25.115 5.382 33.785 13.992l384.313 384.672c7.355 8.013 12.497 18.358 12.497 29.839v-5.98c-.059-11.481-5.201-21.826-12.556-29.838z"/><path opacity=".2" fill="#BF360C" d="M47.897 880.985c-26.43 0-47.837-21.407-47.837-47.837v5.98c0 26.43 21.407 47.837 47.837 47.837h143.512v-5.98H47.897z"/><path opacity=".2" fill="#1A237E" d="M813.295 880.985H669.783v5.98h143.512c26.43 0 47.837-21.407 47.837-47.837v-5.98c0 26.43-21.407 47.837-47.837 47.837z"/><path opacity=".2" fill="#263238" d="M430.596 880.985H191.409v5.979h478.374v-5.979z"/><path opacity=".2" fill="#FFF" d="M430.596 695.615H191.409v5.98h478.374v-5.98z"/><radialGradient id="a" cx="5398.28" cy="-1699.731" r="3695.744" gradientTransform="matrix(.25 0 0 -.25 -1116.303 -252.539)" gradientUnits="userSpaceOnUse"><stop offset="0" stop-color="#fff" stop-opacity=".1"/><stop offset="1" stop-color="#fff" stop-opacity="0"/></radialGradient><path fill="url(#a)" d="M848.635 398.665L464.322 13.993C455.711 5.382 442.555 0 430.596 0s-25.115 5.382-33.785 13.992L12.498 398.665C5.143 406.677.478 417.022 0 428.503V841.1c0 26.43 21.407 47.837 47.837 47.837h765.398c26.43 0 47.837-21.407 47.837-47.837V428.503c.06-11.481-5.082-21.826-12.437-29.838zm-178.852 296.95H191.409V488.3l239.187-239.187L669.783 488.3v207.315z"/><path opacity=".2" fill="#1A237E" d="M434.842 244.867l-4.246 4.246L669.783 488.3v-8.491z"/><path opacity=".2" fill="#BF360C" d="M191.409 488.3v8.491L.06 688.14v-8.491z"/></svg>