<svg xmlns="http://www.w3.org/2000/svg" viewBox="0 0 536 375">
    <path d="M412.52,3.231 C414.098,1.679 416.269,0.717 418.655,0.717 L527.043,0.717 C531.877,0.717 535.796,4.643 535.796,9.478 C535.796,12.318 534.441,14.843 532.347,16.441 L373.237,154.957 C371.651,156.539 369.465,157.517 367.048,157.517 C364.477,157.517 362.167,156.412 360.566,154.653 L306.372,107.481 C304.964,105.925 304.101,103.862 304.101,101.599 C304.101,98.909 305.31,96.503 307.227,94.89 L412.52,3.231" id="Fill-1" fill="#174489"></path>
    <path d="M412.52,372.483 C414.098,374.038 416.269,375 418.655,375 L527.043,375 C531.877,375 535.796,371.074 535.796,366.239 C535.796,363.399 534.441,360.874 532.347,359.273 L373.237,220.756 C371.651,219.178 369.465,218.2 367.048,218.2 C364.477,218.2 362.167,219.309 360.566,221.063 L306.372,268.237 C304.964,269.792 304.101,271.855 304.101,274.118 C304.101,276.812 305.31,279.214 307.227,280.831 L412.52,372.483" id="Fill-2" fill="#174489"></path>
    <path d="M123.191,372.699 C121.636,374.122 119.558,375 117.279,375 L8.752,375 C3.919,375 0,371.074 0,366.239 C0,363.823 0.977,361.637 2.563,360.059 L192.735,194.552 C194.644,192.947 195.852,190.542 195.852,187.851 C195.852,185.307 194.767,183.025 193.042,181.427 L3.102,16.155 C1.201,14.554 0,12.16 0,9.478 C0,4.643 3.919,0.717 8.752,0.717 L117.279,0.717 C119.565,0.717 121.651,1.595 123.206,3.031 L327.942,181.242 C329.797,182.843 330.967,185.206 330.967,187.851 C330.967,190.503 329.789,192.882 327.927,194.491 L123.191,372.699" id="Fill-1" fill="#A8CB3B"></path>
</svg>