<svg viewBox="171.0391 141.6603 48.743 49.1748" xmlns="http://www.w3.org/2000/svg">
  <g transform="matrix(1, 0, 0, 1, -19.596866607666012, 29.11534118652344)">
    <path style="fill:#ebc14a;fill-opacity:1;stroke-width:0.08466666" d="M 213.018 161.719 C 213.018 161.704 213.189 161.18 213.399 160.555 C 213.608 159.93 213.78 159.378 213.78 159.328 C 213.78 159.278 213.32 158.895 212.759 158.478 L 211.738 157.719 L 213.031 157.677 L 214.325 157.634 L 214.704 156.449 L 215.083 155.264 L 215.462 156.47 L 215.841 157.677 L 217.154 157.677 L 218.466 157.677 L 217.435 158.448 C 216.868 158.872 216.404 159.266 216.404 159.324 C 216.404 159.381 216.482 159.653 216.577 159.928 C 216.95 161.012 217.153 161.75 217.056 161.674 C 217 161.631 216.574 161.318 216.108 160.979 C 215.642 160.64 215.219 160.329 215.168 160.289 C 215.11 160.244 214.933 160.323 214.702 160.499 C 213.905 161.103 213.018 161.746 213.018 161.719 L 213.018 161.719 Z" id="path1642"/>
    <path style="fill:#ebc14a;fill-opacity:1;stroke-width:0.08466666" d="M 202.688 158.37 C 202.688 158.334 202.86 157.793 203.069 157.168 C 203.279 156.544 203.45 156.01 203.45 155.982 C 203.45 155.954 202.984 155.59 202.413 155.174 L 201.376 154.417 L 202.672 154.374 L 203.969 154.332 L 204.354 153.153 L 204.74 151.973 L 204.942 152.602 C 205.053 152.948 205.222 153.489 205.317 153.803 L 205.49 154.375 L 206.813 154.375 L 208.137 154.375 L 207.106 155.146 C 206.503 155.597 206.075 155.976 206.075 156.06 C 206.075 156.138 206.244 156.706 206.451 157.322 L 206.827 158.443 L 206.557 158.255 C 206.341 158.104 205.302 157.337 204.84 156.987 C 204.784 156.944 204.347 157.213 203.718 157.676 C 203.152 158.094 202.688 158.406 202.688 158.37 L 202.688 158.37 Z" id="path1588"/>
    <path style="fill:#ebc14a;fill-opacity:1;stroke-width:0.08466666" d="M 223.459 158.234 C 223.586 157.905 224.192 155.954 224.173 155.938 C 224.161 155.928 223.679 155.573 223.103 155.147 L 222.054 154.374 L 223.373 154.374 L 224.692 154.374 L 225.05 153.231 C 225.246 152.603 225.43 152.088 225.457 152.088 C 225.484 152.089 225.663 152.593 225.855 153.21 L 226.205 154.332 L 227.5 154.374 L 228.795 154.417 L 227.786 155.17 C 227.23 155.585 226.767 155.93 226.756 155.938 C 226.745 155.946 226.905 156.482 227.111 157.129 C 227.318 157.777 227.472 158.321 227.454 158.339 C 227.436 158.357 226.981 158.044 226.443 157.643 L 225.464 156.915 L 224.492 157.635 C 223.957 158.03 223.496 158.354 223.467 158.354 C 223.437 158.354 223.434 158.3 223.459 158.234 L 223.459 158.234 Z" id="path1586"/>
    <path style="fill:#ebc14a;fill-opacity:1;stroke-width:0.08466666" d="M 194.744 150.817 C 194.97 150.214 195.519 148.447 195.488 148.42 C 195.467 148.401 194.979 148.038 194.404 147.614 L 193.358 146.844 L 194.697 146.82 L 196.036 146.797 L 196.381 145.721 C 196.57 145.13 196.746 144.625 196.772 144.6 C 196.797 144.574 196.98 145.067 197.178 145.694 L 197.539 146.835 L 198.848 146.858 L 200.158 146.881 L 199.137 147.64 C 198.576 148.057 198.116 148.459 198.116 148.533 C 198.116 148.606 198.285 149.17 198.492 149.786 C 198.699 150.402 198.822 150.88 198.767 150.847 C 198.712 150.814 198.261 150.49 197.766 150.126 C 197.271 149.762 196.829 149.464 196.784 149.464 C 196.739 149.464 196.458 149.646 196.16 149.869 C 195.019 150.723 194.698 150.937 194.744 150.817 L 194.744 150.817 Z" id="path1548"/>
    <path style="fill:#ebc14a;fill-opacity:1;stroke-width:0.08466666" d="M 231.221 150.882 C 231.221 150.866 231.392 150.343 231.602 149.718 C 231.812 149.093 231.983 148.539 231.983 148.487 C 231.983 148.436 231.517 148.053 230.948 147.637 L 229.914 146.881 L 231.221 146.839 L 232.529 146.797 L 232.904 145.612 L 233.28 144.426 L 233.661 145.631 L 234.042 146.835 L 235.337 146.858 L 236.632 146.882 L 235.62 147.643 C 235.063 148.062 234.608 148.443 234.608 148.49 C 234.609 148.537 234.776 149.099 234.98 149.739 L 235.35 150.903 L 234.915 150.589 C 234.676 150.416 234.215 150.076 233.89 149.833 L 233.3 149.391 L 232.874 149.696 C 232.64 149.864 232.172 150.206 231.835 150.456 C 231.497 150.706 231.221 150.897 231.221 150.882 L 231.221 150.882 Z" id="path1546"/>
    <path style="fill:#0c4da2;fill-opacity:1;stroke-width:0.31999999" d="M 210.285 125.929 C 207.32 125.926 204.546 125.951 204.513 126.004 C 204.487 126.046 204.491 130.751 204.522 136.46 L 204.579 146.839 L 206.464 146.839 L 208.349 146.839 L 208.625 146.352 C 208.987 145.715 209.719 145.002 210.365 144.659 C 210.65 144.507 210.917 144.384 210.959 144.384 C 211.002 144.384 211.625 144.936 212.344 145.61 L 213.653 146.836 L 220.045 146.832 C 225.615 146.829 226.404 146.813 226.183 146.709 C 226.043 146.643 225.529 146.413 225.04 146.197 C 223.577 145.552 221.857 144.345 220.791 143.214 C 219.955 142.328 219.951 142.312 220.488 142.084 C 222.359 141.292 224.406 139.867 225.381 138.677 C 226.465 137.353 226.983 135.669 226.875 133.817 C 226.821 132.894 226.656 132.124 226.317 131.217 C 225.114 127.998 222.232 126.352 217.208 126.014 C 216.408 125.961 213.251 125.931 210.285 125.929 L 210.285 125.929 Z M 213.555 128.807 C 214.104 128.801 214.652 128.843 215.049 128.937 C 217.17 129.435 218.983 131.215 219.546 133.352 C 219.769 134.194 219.787 135.544 219.588 136.383 C 219.098 138.444 217.485 140.155 215.388 140.837 C 214.59 141.096 212.952 141.139 212.096 140.921 C 211.013 140.646 210.112 140.127 209.291 139.306 C 208.092 138.106 207.54 136.896 207.453 135.279 C 207.294 132.324 209.209 129.7 212.054 128.972 C 212.456 128.869 213.006 128.813 213.555 128.807 L 213.555 128.807 Z" id="path1544"/>
    <path style="fill:#ebc14a;fill-opacity:1;stroke-width:0.08466666" d="M 212.844 139.81 C 210.939 139.516 209.243 137.944 208.79 136.052 C 208.652 135.477 208.669 134.279 208.824 133.694 C 209.297 131.893 210.773 130.505 212.618 130.124 C 213.415 129.959 213.823 129.958 214.584 130.118 C 215.517 130.314 216.344 130.768 217.036 131.464 C 217.728 132.161 218.117 132.84 218.354 133.766 C 218.751 135.318 218.367 136.897 217.28 138.177 C 216.279 139.358 214.4 140.05 212.844 139.81 L 212.844 139.81 Z" id="path1540"/>
    <path style="fill:#ebc14a;fill-opacity:1;stroke-width:0.08466666" d="M 192.279 139.248 C 192.508 138.564 192.687 137.997 192.676 137.989 C 192.664 137.981 192.201 137.636 191.646 137.221 L 190.636 136.467 L 191.904 136.444 L 193.172 136.421 L 193.545 135.28 C 193.75 134.652 193.939 134.14 193.964 134.14 C 193.989 134.141 194.166 134.645 194.357 135.262 L 194.703 136.383 L 195.991 136.425 L 197.279 136.467 L 196.261 137.224 C 195.329 137.917 195.247 138 195.296 138.198 C 195.326 138.317 195.496 138.85 195.674 139.382 C 195.852 139.914 195.983 140.365 195.964 140.384 C 195.945 140.402 195.485 140.089 194.941 139.687 L 193.953 138.955 L 193.177 139.535 C 192.75 139.854 192.28 140.2 192.132 140.304 L 191.862 140.493 L 192.279 139.248 Z" id="path1524"/>
    <path style="fill:#ebc14a;fill-opacity:1;stroke-width:0.08466666" d="M 234.358 139.248 C 234.587 138.564 234.766 137.997 234.755 137.989 C 234.744 137.981 234.28 137.636 233.725 137.221 L 232.716 136.467 L 233.983 136.444 L 235.251 136.421 L 235.624 135.28 C 235.83 134.652 236.018 134.14 236.043 134.14 C 236.069 134.141 236.247 134.646 236.441 135.262 L 236.792 136.383 L 238.085 136.425 L 239.379 136.467 L 238.369 137.221 C 237.814 137.635 237.35 137.981 237.339 137.989 C 237.328 137.997 237.488 138.533 237.695 139.18 C 237.901 139.827 238.057 140.37 238.041 140.386 C 238.024 140.402 237.566 140.087 237.023 139.685 L 236.035 138.953 L 235.258 139.534 C 234.83 139.854 234.359 140.2 234.211 140.304 L 233.941 140.493 L 234.358 139.248 Z" id="path1522"/>
    <path style="fill:#ebc14a;fill-opacity:1;stroke-width:0.08466666" d="M 197.947 129.435 C 197.551 129.137 197.088 128.794 196.918 128.674 L 196.609 128.455 L 195.62 129.187 C 195.076 129.59 194.617 129.906 194.601 129.89 C 194.584 129.873 194.74 129.346 194.946 128.719 C 195.152 128.091 195.321 127.553 195.322 127.523 C 195.322 127.494 194.86 127.123 194.294 126.7 L 193.266 125.931 L 194.553 125.908 L 195.841 125.884 L 196.231 124.699 L 196.621 123.514 L 197.001 124.718 L 197.382 125.922 L 198.653 125.946 L 199.924 125.969 L 198.935 126.711 C 198.392 127.119 197.947 127.503 197.947 127.563 C 197.947 127.623 198.062 128.013 198.203 128.429 C 198.476 129.233 198.711 129.995 198.683 129.984 C 198.674 129.98 198.343 129.734 197.947 129.435 L 197.947 129.435 Z" id="path1520"/>
    <path style="fill:#ebc14a;fill-opacity:1;stroke-width:0.08466666" d="M 231.647 128.755 C 231.877 128.067 232.057 127.498 232.046 127.49 C 232.034 127.482 231.571 127.137 231.016 126.722 L 230.006 125.969 L 231.274 125.945 L 232.542 125.922 L 232.915 124.782 C 233.12 124.155 233.315 123.67 233.347 123.704 C 233.38 123.739 233.558 124.244 233.742 124.826 L 234.078 125.884 L 235.364 125.926 L 236.649 125.969 L 235.628 126.727 C 235.067 127.145 234.608 127.508 234.608 127.535 C 234.608 127.562 234.779 128.094 234.988 128.718 C 235.197 129.341 235.353 129.866 235.335 129.884 C 235.317 129.902 234.858 129.589 234.316 129.188 L 233.33 128.458 L 232.551 129.027 C 232.122 129.341 231.649 129.689 231.5 129.801 L 231.228 130.005 L 231.647 128.755 Z" id="path1518"/>
    <path style="fill:#ebc14a;fill-opacity:1;stroke-width:0.08466666" d="M 224.448 121.927 C 224.448 121.911 224.619 121.387 224.829 120.762 C 225.038 120.137 225.21 119.596 225.21 119.56 C 225.21 119.524 224.765 119.16 224.221 118.752 L 223.233 118.01 L 224.469 117.987 L 225.705 117.963 L 226.109 116.759 L 226.513 115.555 L 226.895 116.759 L 227.276 117.964 L 228.533 117.987 L 229.79 118.01 L 228.815 118.73 C 228.279 119.126 227.839 119.508 227.837 119.58 C 227.836 119.652 228.003 120.214 228.209 120.829 C 228.416 121.444 228.568 121.947 228.549 121.947 C 228.529 121.947 228.075 121.623 227.54 121.227 C 227.005 120.832 226.543 120.508 226.514 120.508 C 226.484 120.508 226.057 120.803 225.565 121.164 C 224.632 121.849 224.448 121.975 224.448 121.927 L 224.448 121.927 Z" id="path1516"/>
    <path style="fill:#ebc14a;fill-opacity:1;stroke-width:0.08466666" d="M 201.334 121.798 C 201.335 121.764 201.504 121.222 201.71 120.595 C 201.941 119.892 202.056 119.419 202.009 119.363 C 201.968 119.312 201.492 118.949 200.951 118.556 L 199.969 117.841 L 201.284 117.817 L 202.6 117.794 L 202.956 116.652 C 203.152 116.024 203.34 115.539 203.374 115.575 C 203.408 115.61 203.585 116.116 203.767 116.698 L 204.099 117.756 L 205.436 117.78 L 206.773 117.803 L 205.698 118.612 C 205.106 119.056 204.639 119.465 204.659 119.52 C 204.875 120.108 205.408 121.795 205.385 121.817 C 205.369 121.832 204.927 121.525 204.402 121.134 C 203.878 120.743 203.409 120.423 203.359 120.423 C 203.309 120.423 202.833 120.747 202.301 121.142 C 201.769 121.538 201.334 121.833 201.334 121.799 L 201.334 121.798 Z" id="path1514"/>
    <path style="fill:#ebc14a;fill-opacity:1;stroke-width:0.08466666" d="M 212.848 118.964 C 212.848 118.948 213.02 118.423 213.229 117.798 C 213.439 117.174 213.609 116.623 213.608 116.574 C 213.607 116.526 213.159 116.162 212.613 115.766 L 211.621 115.047 L 212.863 115.023 L 214.106 115 L 214.515 113.772 L 214.924 112.545 L 215.302 113.773 L 215.681 115 L 216.936 115.024 L 218.191 115.047 L 217.216 115.767 C 216.679 116.162 216.239 116.53 216.238 116.584 C 216.236 116.639 216.402 117.2 216.606 117.832 C 216.809 118.464 216.933 118.957 216.881 118.927 C 216.828 118.898 216.381 118.574 215.887 118.209 C 215.393 117.844 214.96 117.545 214.925 117.545 C 214.89 117.545 214.456 117.842 213.96 118.205 C 213.01 118.902 212.848 119.012 212.848 118.964 L 212.848 118.964 Z" id="path1510"/>
  </g>
</svg>