<svg xmlns="http://www.w3.org/2000/svg" width="922" height="1148">
<path style="fill:#6b0beb; stroke:none;" d="M383 0L383 685L383 861L383 906L384.028 923.397L394 925L423 925L539 925L539 0L383 0M155 1034L155 44C141.8 50.7029 130.69 73.069 122.14 85C94.9526 122.942 70.1421 162.511 48.7415 204C28.6808 242.891 11.3173 283.765 3.2608 327C-3.91947 365.533 0 406.924 0 446L0 654L0 791C0 818.414 -2.49784 847.04 3.21065 874C10.8363 910.014 28.8994 944.658 56 969.911C72.4458 985.235 91.8803 996.595 111 1008.2C124.223 1016.23 139.894 1030.54 155 1034M767 44L767 1035C784.8 1028.26 801.814 1014.22 818 1004.19C838.01 991.792 857.87 979.647 873.83 962C901.187 931.753 917.966 893.578 921.83 853C923.702 833.35 922 812.743 922 793L922 694L922 455C922 406.238 926.442 355.67 914.525 308C889.921 209.585 828.402 124.147 769 44L767 44M575 182L575 1147C588.659 1142.98 601.93 1131.67 614 1124.19L692 1075.81L720 1058.42C723.26 1056.4 728.741 1054.38 730.397 1050.67C732.281 1046.45 731 1039.55 731 1035L731 1000L731 876L731 442L731 305L731 267C731 262.387 732.299 255.328 729.972 251.174C724.14 240.762 703.221 231.6 693 225.861C656.163 205.18 616.522 190.052 575 182M346 1148L346 183C305.002 186.263 261.088 207.451 226 227.579C217.095 232.687 195.864 241.656 191.603 251.325C189.523 256.045 191 263.91 191 269L191 309L191 449L191 875L191 999L191 1035C191 1039.73 189.795 1046.46 191.603 1050.9C193.308 1055.08 199.352 1057.58 203 1059.8C212.368 1065.48 221.711 1071.24 231 1077.05C268.917 1100.78 306.518 1126.99 346 1148z"/>
</svg>
