<svg id="svg" version="1.1" xmlns="http://www.w3.org/2000/svg" viewBox="0 0 500 500" style="display: block;"><path d="M0 0 C165 0 330 0 500 0 C500 165 500 330 500 500 C335 500 170 500 0 500 C0 335 0 170 0 0 Z " transform="translate(0,0)" style="fill: #FEFEFE;"></path><path d="M0 0 C20.46 0 40.92 0 62 0 C62 122.1 62 244.2 62 370 C41.54 370 21.08 370 0 370 C0 247.9 0 125.8 0 0 Z " transform="translate(219,20)" style="fill: #6B05EA;"></path><path d="M0 0 C0 127.05 0 254.1 0 385 C-3.77772222 383.48891111 -6.62892679 382.11404719 -10 379.98046875 C-10.95946533 379.37654297 -11.91893066 378.77261719 -12.9074707 378.15039062 C-14.43827271 377.17875977 -14.43827271 377.17875977 -16 376.1875 C-18.15987625 374.8263785 -20.32003808 373.46571007 -22.48046875 372.10546875 C-23.5689209 371.41888184 -24.65737305 370.73229492 -25.77880859 370.02490234 C-30.60690709 366.98986756 -35.45904902 363.994259 -40.3125 361 C-60.43990912 348.56009088 -60.43990912 348.56009088 -62 347 C-62.10716912 345.30318816 -62.14396191 343.60190458 -62.15377426 341.90174007 C-62.162549 340.78999603 -62.17132373 339.67825199 -62.18036437 338.53281873 C-62.18495485 337.29608508 -62.18954532 336.05935142 -62.1942749 334.78514099 C-62.20289055 333.48319434 -62.2115062 332.18124768 -62.22038293 330.8398481 C-62.24408597 327.20906457 -62.26128694 323.57827454 -62.27731514 319.94745004 C-62.29182309 316.83726414 -62.31000486 313.72710389 -62.32814655 310.61693739 C-62.49935633 281.13292866 -62.58378422 251.64831363 -62.65206528 222.16390896 C-62.66111419 218.32436014 -62.67032377 214.48481174 -62.6796875 210.64526367 C-62.68200741 209.69093093 -62.68432733 208.73659819 -62.68671754 207.75334627 C-62.7254826 192.29709508 -62.80601106 176.84134111 -62.90281627 161.3853563 C-63.00133569 145.52444563 -63.05823819 129.66379306 -63.07564378 113.80258328 C-63.08655346 104.89397468 -63.11634455 95.98627293 -63.19359589 87.0779705 C-63.25937776 79.48978787 -63.28804045 71.90262668 -63.26802835 64.31416463 C-63.25899473 60.44202568 -63.26778932 56.57209606 -63.32471848 52.70031738 C-63.3859991 48.49997561 -63.36185845 44.30440734 -63.32952881 40.10374451 C-63.36088794 38.8826259 -63.39224708 37.6615073 -63.42455649 36.4033851 C-63.32360744 31.33761163 -63.20452627 28.25668221 -59.60725832 24.50365269 C-56.81823471 22.44352053 -54.02928971 20.68207217 -51 19 C-49.86294385 18.30934115 -49.86294385 18.30934115 -48.70291686 17.60472959 C-46.8349445 16.4718 -44.93879765 15.44396906 -43 14.4375 C-41.93821533 13.8813501 -41.93821533 13.8813501 -40.85498047 13.31396484 C-28.96554585 7.26677477 -13.49551919 0 0 0 Z " transform="translate(204,94)" style="fill: #6B04EA;"></path><path d="M0 0 C10.14557315 1.12728591 10.14557315 1.12728591 13.69140625 2.34765625 C14.48289062 2.61900391 15.274375 2.89035156 16.08984375 3.16992188 C16.90582031 3.46447266 17.72179687 3.75902344 18.5625 4.0625 C19.861875 4.5255957 19.861875 4.5255957 21.1875 4.99804688 C33.72184911 9.59029372 45.77273774 15.77878997 57 23 C57.86257164 23.43502083 58.72514328 23.87004166 59.61385345 24.31824493 C63.56430871 28.75810359 62.73664116 33.80774753 62.72912598 39.54870605 C62.75564279 41.50123755 62.75564279 41.50123755 62.78269529 43.49321413 C62.83081446 47.10956416 62.84749612 50.72548308 62.85885 54.34211063 C62.87632312 58.2415905 62.92218337 62.14075662 62.96383667 66.04003906 C63.05787465 75.45923132 63.10366849 84.87842982 63.14414334 94.29798007 C63.16425872 98.73550076 63.18951485 103.17299182 63.21421814 107.61048889 C63.29446344 122.36534916 63.3627342 137.12018667 63.3950882 151.87523651 C63.40361767 155.70393389 63.41217802 159.53263118 63.42089844 163.36132812 C63.42305483 164.31291512 63.42521122 165.26450212 63.42743295 166.24492508 C63.46456644 181.65360888 63.58333011 197.06051635 63.73658067 212.46843904 C63.89269495 228.29335879 63.97709437 244.11737855 63.99103308 259.94307375 C64.00060199 268.82674816 64.04119392 277.70787992 64.16169739 286.59080505 C64.26409912 294.15818571 64.30117537 301.72238184 64.25409216 309.29036945 C64.23204068 313.15046676 64.24021581 317.00402787 64.33219528 320.86323547 C64.83975395 343.38016765 64.83975395 343.38016765 60.12045479 349.39585495 C55.64737957 353.34515557 50.7147413 355.86875196 45.20725155 358.08130646 C42.35492722 359.26848965 39.85264486 360.84495355 37.2890625 362.55859375 C35.73498268 363.51921295 34.18031101 364.47887545 32.625 365.4375 C30.88274288 366.51290804 29.14055778 367.58843278 27.3984375 368.6640625 C26.5228418 369.20450195 25.64724609 369.74494141 24.74511719 370.30175781 C21.83959567 372.0992327 18.93890135 373.90431056 16.0390625 375.7109375 C14.5857251 376.61501343 14.5857251 376.61501343 13.10302734 377.53735352 C11.22989881 378.70280941 9.35779373 379.86991213 7.48681641 381.03881836 C6.65069824 381.55839111 5.81458008 382.07796387 4.953125 382.61328125 C4.21223633 383.07516846 3.47134766 383.53705566 2.70800781 384.01293945 C1 385 1 385 0 385 C0 257.95 0 130.9 0 0 Z " transform="translate(296,94)" style="fill: #6B05EA;"></path><path d="M0 0 C5.63405456 5.63405456 5.63405456 5.63405456 7.9453125 8.828125 C8.45908447 9.53622314 8.97285645 10.24432129 9.50219727 10.97387695 C10.03772217 11.72499756 10.57324707 12.47611816 11.125 13.25 C11.693396 14.0443042 12.26179199 14.8386084 12.84741211 15.65698242 C38.77818181 52.16406272 61.67847157 91.52918798 61.54931641 137.31054688 C61.558035 139.38249945 61.5684093 141.4544456 61.58029175 143.52638245 C61.60682743 149.09873559 61.60825715 154.67081547 61.60316515 160.24321938 C61.6010098 164.91735006 61.61083239 169.59142723 61.62037599 174.26554632 C61.64248006 185.3012587 61.6434888 196.33683486 61.63134766 207.37255859 C61.61926342 218.71192878 61.64392152 230.05080294 61.68648779 241.39008856 C61.72183977 251.17157547 61.73370405 260.95290531 61.72721231 270.73445368 C61.72360663 276.55654078 61.72865746 282.37827361 61.75664139 288.20030212 C61.78198729 293.67707272 61.77773446 299.15307488 61.75181961 304.62983513 C61.74713037 306.6250886 61.75240348 308.62039783 61.76906586 310.61558723 C61.93875625 332.53585738 56.15364489 350.87132905 40.9765625 367.078125 C39.99185552 368.05964577 38.99918677 369.03322356 38 370 C37.44957031 370.53584717 36.89914062 371.07169434 36.33203125 371.6237793 C30.40419447 377.10624834 23.63469769 381.16733826 16.75 385.3125 C15.56730023 386.03383651 14.38500576 386.75583798 13.203125 387.47851562 C8.84998291 390.12684346 4.55944618 392.72027691 0 395 C0 264.65 0 134.3 0 0 Z " transform="translate(373,39)" style="fill: #6B04EA;"></path><path d="M0 0 C0.33 0 0.66 0 1 0 C1 130.02 1 260.04 1 394 C-3.21336537 392.59554488 -5.8148861 391.71071267 -9.35546875 389.4609375 C-10.13736572 388.96706543 -10.9192627 388.47319336 -11.72485352 387.96435547 C-12.53752686 387.43986816 -13.3502002 386.91538086 -14.1875 386.375 C-15.03175537 385.83375488 -15.87601074 385.29250977 -16.74584961 384.73486328 C-35.29307831 372.76649702 -49.41823406 360.36915537 -57 339 C-57.24881739 338.40820985 -57.49763477 337.8164197 -57.75399208 337.20669651 C-61.1225392 328.07975339 -60.4202424 318.43704931 -60.38818359 308.85717773 C-60.39225334 306.81434347 -60.39759748 304.7715114 -60.40411377 302.72868347 C-60.41775119 297.19932967 -60.41250183 291.67014446 -60.40297651 286.14078784 C-60.39535419 280.33515152 -60.40243333 274.52952914 -60.40713501 268.72389221 C-60.41258812 258.96848985 -60.40541577 249.21315567 -60.39111328 239.45776367 C-60.37481972 228.21524453 -60.38005314 216.97288891 -60.3965925 205.7303738 C-60.41025838 196.05014229 -60.41210123 186.3699597 -60.40427649 176.68972164 C-60.39962379 170.92075462 -60.39890777 165.15186411 -60.40888596 159.38290215 C-60.41762669 153.94992466 -60.4114054 148.5171552 -60.39420319 143.08419991 C-60.39027459 141.10305245 -60.39130917 139.12188715 -60.39799118 137.14074707 C-60.54759852 88.22943833 -34.42688558 46.17057465 -6 8 C-5.44828125 7.24686523 -4.8965625 6.49373047 -4.328125 5.71777344 C-3.51601562 4.6161084 -3.51601562 4.6161084 -2.6875 3.4921875 C-2.19636719 2.82300293 -1.70523438 2.15381836 -1.19921875 1.46435547 C-0.80347656 0.98111816 -0.40773437 0.49788086 0 0 Z " transform="translate(126,39)" style="fill: #6B04EA;"></path></svg>