<svg viewBox="0 0 512 514" xmlns="http://www.w3.org/2000/svg">
    <path fill-rule="evenodd" clip-rule="evenodd" d="M457.921 323.534L377.029 256.624L457.921 189.715L483.079 220.291L439.154 256.624L483.079 292.958L457.921 323.534V323.534ZM427.167 398.359L328.968 319.803H247.33V480.451H207.785V280.16H342.788L451.822 367.378L427.167 398.359V398.359ZM368.887 451.27L324.669 414.807V470.33L285.124 480.451V357.711L317.451 357.548L401.701 426.972L368.887 451.27V451.27ZM169.164 418.018L129.618 452.503V64.2007L169.164 98.7017V418.018ZM91.7107 370.525L52.1651 336.786V186.033L91.7107 149.634V370.509V370.525ZM207.801 32.8141H247.346V193.446H328.968L427.167 114.89L451.838 145.871L342.804 233.089H207.801V32.7978V32.8141ZM285.124 38.1993L324.669 48.3209V103.844L368.887 67.3799L401.701 91.6782L317.451 161.102L285.124 160.94V38.1993V38.1993ZM255.992 0C114.614 0 0 114.89 0 256.608C0 398.359 114.614 513.249 255.992 513.249C397.386 513.249 512 398.359 512 256.624C512 114.89 397.386 0 255.992 0Z" fill="#FFC700"/>
</svg>
