<svg version="1.1" id="svg2" xml:space="preserve" viewBox="17.761465072631836 15.360031127929688 363.17718505859375 221.77330017089844" sodipodi:docname="prusaresearch-logo-rgb-black.eps" xmlns:inkscape="http://www.inkscape.org/namespaces/inkscape" xmlns:sodipodi="http://sodipodi.sourceforge.net/DTD/sodipodi-0.dtd" xmlns="http://www.w3.org/2000/svg" xmlns:svg="http://www.w3.org/2000/svg"><defs id="defs6"></defs><sodipodi:namedview id="namedview4" pagecolor="#ffffff" bordercolor="#666666" borderopacity="1.0" inkscape:pageshadow="2" inkscape:pageopacity="0.0" inkscape:pagecheckerboard="0"></sodipodi:namedview><g id="g8" inkscape:groupmode="layer" inkscape:label="ink_ext_XXXXXX" transform="matrix(1.3333333,0,0,-1.3333333,0,248)"><g id="g10" transform="scale(0.1)"><path d="m 267.469,1633.6 h 97.597 c 14.399,0 28.262,-1.08 41.602,-3.2 13.324,-2.14 25.062,-6.27 35.199,-12.4 10.129,-6.14 18.262,-14.8 24.403,-26 6.121,-11.2 9.199,-25.87 9.199,-44 0,-18.14 -3.078,-32.8 -9.199,-44 -6.141,-11.2 -14.274,-19.87 -24.403,-26 -10.137,-6.14 -21.875,-10.27 -35.199,-12.4 -13.34,-2.14 -27.203,-3.2 -41.602,-3.2 h -97.597 z m 0,-268.8 h 131.996 c 35.73,0 66.129,5.2 91.203,15.6 25.062,10.4 45.465,24.13 61.199,41.2 15.723,17.06 27.203,36.66 34.403,58.8 7.199,22.12 10.8,44.66 10.8,67.6 0,23.46 -3.601,46.13 -10.8,68 -7.2,21.86 -18.68,41.32 -34.403,58.4 -15.734,17.06 -36.137,30.8 -61.199,41.2 -25.074,10.4 -55.473,15.6 -91.203,15.6 H 141.867 V 1160 h 125.602 v 204.8" style="fill:#000000;fill-opacity:1;fill-rule:nonzero;stroke:none" id="path12"></path><path d="m 799.461,1633.6 h 137.598 c 28.804,0 50.402,-6.28 64.801,-18.8 14.4,-12.54 21.6,-32.67 21.6,-60.4 0,-28.8 -7.2,-49.6 -21.6,-62.4 -14.399,-12.8 -35.997,-19.2 -64.801,-19.2 H 799.461 Z m 0,-250.4 h 125.602 c 31.46,0 54.125,-6.93 67.996,-20.8 13.861,-13.88 22.921,-35.74 27.201,-65.6 3.2,-22.94 5.6,-46.94 7.2,-72 1.6,-25.07 5.86,-46.67 12.8,-64.8 h 125.6 c -5.88,8 -10.27,17.73 -13.2,29.2 -2.93,11.46 -5.08,23.6 -6.41,36.4 -1.32,12.8 -2.26,25.32 -2.79,37.6 -0.55,12.26 -1.07,22.93 -1.6,32 -1.08,14.4 -3.07,28.8 -6,43.2 -2.95,14.4 -7.6,27.6 -14,39.6 -6.41,12 -14.67,22.4 -24.81,31.2 -10.13,8.8 -22.93,15.33 -38.39,19.6 v 1.6 c 32.01,12.8 55.05,31.46 69.19,56 14.13,24.52 21.22,53.6 21.22,87.2 0,21.86 -3.89,42.26 -11.61,61.2 -7.73,18.93 -18.94,35.6 -33.61,50 -14.67,14.4 -32.26,25.73 -52.79,34 -20.54,8.26 -43.6,12.4 -69.201,12.4 h -308 V 1160 h 125.602 v 223.2" style="fill:#000000;fill-opacity:1;fill-rule:nonzero;stroke:none" id="path14"></path><path d="m 1490.65,1147.2 c 76.27,0 136,18.8 179.2,56.4 43.2,37.6 64.8,95.06 64.8,172.4 v 355.2 H 1609.06 V 1376 c 0,-42.68 -8.55,-74 -25.61,-94 -17.07,-20 -48,-30 -92.8,-30 -25.6,0 -46,3.6 -61.19,10.8 -15.21,7.2 -27.08,16.52 -35.61,28 -8.53,11.46 -14.14,24.66 -16.8,39.6 -2.67,14.93 -4,30.13 -4,45.6 v 355.2 h -125.6 V 1376 c 0,-77.87 21.21,-135.47 63.6,-172.8 42.4,-37.34 102.26,-56 179.6,-56" style="fill:#000000;fill-opacity:1;fill-rule:nonzero;stroke:none" id="path16"></path><path d="m 2125.04,1257.6 c -11.2,-5.34 -23.2,-8.94 -35.99,-10.8 -12.81,-1.87 -24.81,-2.8 -36.01,-2.8 -16.53,0 -32.54,2 -48,6 -15.48,4 -28.93,10.13 -40.4,18.4 -11.47,8.26 -20.67,19.06 -27.6,32.4 -6.94,13.33 -10.4,29.6 -10.4,48.8 h -121.6 c -0.53,-35.2 5.86,-65.6 19.2,-91.2 13.33,-25.6 31.33,-46.68 54.01,-63.2 22.65,-16.54 48.79,-28.68 78.39,-36.4 29.6,-7.73 60.13,-11.6 91.61,-11.6 38.92,0 73.19,4.54 102.79,13.6 29.61,9.06 54.4,21.72 74.4,38 20,16.26 35.06,35.6 45.21,58 10.11,22.4 15.19,46.66 15.19,72.8 0,32 -6.79,58.26 -20.4,78.8 -13.6,20.53 -29.73,36.93 -48.4,49.2 -18.67,12.26 -37.48,21.2 -56.39,26.8 -18.95,5.6 -33.74,9.46 -44.41,11.6 -35.74,9.06 -64.67,16.52 -86.79,22.4 -22.14,5.86 -39.49,11.73 -52.01,17.6 -12.53,5.86 -20.93,12.26 -25.2,19.2 -4.27,6.93 -6.4,16 -6.4,27.2 0,12.26 2.67,22.4 8,30.4 5.32,8 12.13,14.66 20.4,20 8.26,5.33 17.46,9.06 27.6,11.2 10.13,2.13 20.26,3.2 30.4,3.2 15.47,0 29.73,-1.34 42.8,-4 13.07,-2.67 24.67,-7.2 34.81,-13.6 10.11,-6.4 18.26,-15.2 24.39,-26.4 6.12,-11.2 9.73,-25.34 10.8,-42.4 h 121.6 c 0,33.06 -6.28,61.2 -18.79,84.4 -12.54,23.2 -29.48,42.26 -50.81,57.2 -21.33,14.92 -45.74,25.73 -73.2,32.4 -27.47,6.66 -56.13,10 -85.99,10 -25.61,0 -51.21,-3.48 -76.81,-10.4 -25.6,-6.94 -48.54,-17.6 -68.8,-32 -20.27,-14.4 -36.67,-32.4 -49.2,-54 -12.54,-21.6 -18.8,-47.08 -18.8,-76.4 0,-26.14 4.92,-48.4 14.81,-66.8 9.86,-18.4 22.79,-33.74 38.8,-46 15.99,-12.27 34.12,-22.27 54.39,-30 20.26,-7.74 41.06,-14.27 62.4,-19.6 20.8,-5.87 41.33,-11.2 61.6,-16 20.27,-4.8 38.4,-10.4 54.41,-16.8 15.99,-6.4 28.91,-14.4 38.8,-24 9.86,-9.6 14.79,-22.14 14.79,-37.6 0,-14.4 -3.74,-26.27 -11.2,-35.6 -7.47,-9.33 -16.8,-16.67 -28,-22" style="fill:#000000;fill-opacity:1;fill-rule:nonzero;stroke:none" id="path18"></path><path d="m 2577.04,1590.4 h 1.6 l 72,-209.6 h -148 z m -107.2,-303.2 h 213.6 l 43.2,-127.2 h 130.4 l -213.6,571.2 h -128.8 l -216,-571.2 h 126.4 l 44.8,127.2" style="fill:#000000;fill-opacity:1;fill-rule:nonzero;stroke:none" id="path20"></path><path d="m 465.559,793.41 c 8.097,7.211 12.148,18.899 12.148,35.11 0,15.589 -4.051,26.921 -12.148,33.968 -8.106,7.047 -20.254,10.578 -36.454,10.578 h -77.402 v -90.445 h 77.402 c 16.2,0 28.348,3.598 36.454,10.789" style="fill:#000000;fill-opacity:1;fill-rule:nonzero;stroke:none" id="path22"></path><path d="m 1969.44,793.41 c 8.1,7.211 12.15,18.899 12.15,35.11 0,15.589 -4.05,26.921 -12.15,33.968 -8.1,7.047 -20.25,10.578 -36.45,10.578 h -77.4 v -90.445 h 77.4 c 16.2,0 28.35,3.598 36.45,10.789" style="fill:#000000;fill-opacity:1;fill-rule:nonzero;stroke:none" id="path24"></path><path d="m 1601.34,848.762 h -0.9 l -41.85,-117.903 h 83.25 l -40.5,117.903" style="fill:#000000;fill-opacity:1;fill-rule:nonzero;stroke:none" id="path26"></path><path d="m 281.059,927.965 h 173.25 c 14.394,0 27.375,-2.324 38.918,-6.973 11.55,-4.66 21.445,-11.027 29.707,-19.129 8.242,-8.097 14.539,-17.476 18.894,-28.125 4.348,-10.652 6.524,-22.129 6.524,-34.418 0,-18.898 -3.973,-35.261 -11.922,-49.058 -7.95,-13.801 -20.93,-24.293 -38.926,-31.5 v -0.891 c 8.699,-2.41 15.898,-6.082 21.601,-11.031 5.692,-4.949 10.352,-10.801 13.954,-17.551 3.593,-6.75 6.222,-14.168 7.871,-22.269 1.64,-8.098 2.773,-16.2 3.379,-24.309 0.293,-5.102 0.597,-11.102 0.898,-17.992 0.293,-6.91 0.82,-13.949 1.574,-21.16 0.742,-7.188 1.942,-14.02 3.602,-20.469 1.64,-6.449 4.121,-11.918 7.422,-16.418 h -70.653 c -3.898,10.187 -6.3,22.34 -7.199,36.449 -0.898,14.09 -2.246,27.59 -4.051,40.488 -2.402,16.813 -7.5,29.102 -15.293,36.903 -7.812,7.797 -20.558,11.707 -38.254,11.707 H 351.703 V 606.672 h -70.644 z m 323.992,0 H 845.344 V 868.563 H 675.695 v -68.844 h 155.703 v -54.91 H 675.695 v -78.75 H 848.949 V 606.672 H 605.051 Z M 1069.22,715.121 c -5.55,5.391 -12.82,9.891 -21.82,13.488 -9,3.61 -19.2,6.762 -30.6,9.461 -11.41,2.7 -22.948,5.692 -34.648,9 -12.004,2.989 -23.703,6.668 -35.109,11.02 -11.395,4.351 -21.59,9.969 -30.594,16.879 -9.004,6.89 -16.281,15.519 -21.828,25.871 -5.555,10.351 -8.32,22.871 -8.32,37.57 0,16.5 3.515,30.828 10.566,42.981 7.051,12.148 16.281,22.277 27.676,30.371 11.406,8.101 24.309,14.101 38.703,18.004 14.402,3.894 28.797,5.847 43.204,5.847 16.8,0 32.92,-1.879 48.38,-5.625 15.44,-3.754 29.17,-9.828 41.17,-18.226 11.99,-8.399 21.52,-19.121 28.57,-32.172 7.04,-13.051 10.58,-28.879 10.58,-47.481 h -68.4 c -0.6,9.602 -2.64,17.551 -6.07,23.86 -3.46,6.297 -8.04,11.25 -13.73,14.847 -5.71,3.598 -12.23,6.141 -19.57,7.653 -7.36,1.492 -15.38,2.246 -24.09,2.246 -5.7,0 -11.392,-0.602 -17.095,-1.797 -5.703,-1.203 -10.871,-3.309 -15.519,-6.301 -4.656,-3.004 -8.485,-6.754 -11.473,-11.25 -3.008,-4.496 -4.504,-10.207 -4.504,-17.105 0,-6.301 1.192,-11.403 3.594,-15.301 2.402,-3.902 7.129,-7.5 14.18,-10.801 7.043,-3.301 16.797,-6.601 29.247,-9.89 12.45,-3.309 28.72,-7.508 48.83,-12.61 6,-1.199 14.32,-3.371 24.97,-6.519 10.65,-3.153 21.22,-8.18 31.73,-15.071 10.5,-6.91 19.57,-16.14 27.23,-27.679 7.64,-11.551 11.47,-26.332 11.47,-44.321 0,-14.711 -2.86,-28.351 -8.55,-40.961 -5.71,-12.589 -14.17,-23.468 -25.42,-32.621 -11.25,-9.148 -25.21,-16.277 -41.86,-21.379 -16.65,-5.089 -35.93,-7.648 -57.82,-7.648 -17.706,0 -34.874,2.187 -51.527,6.527 -16.648,4.352 -31.355,11.172 -44.101,20.473 -12.754,9.301 -22.879,21.16 -30.371,35.559 -7.508,14.402 -11.102,31.5 -10.801,51.3 h 68.398 c 0,-10.808 1.946,-19.961 5.852,-27.461 3.895,-7.5 9.07,-13.57 15.527,-18.218 6.446,-4.661 14.012,-8.102 22.723,-10.352 8.691,-2.25 17.7,-3.367 26.99,-3.367 6.31,0 13.06,0.508 20.26,1.566 7.19,1.051 13.95,3.071 20.25,6.082 6.3,2.989 11.54,7.121 15.74,12.371 4.2,5.239 6.31,11.918 6.31,20.02 0,8.699 -2.78,15.758 -8.33,21.16 z m 117.67,212.844 h 240.3 v -59.402 h -169.65 v -68.844 h 155.71 v -54.91 h -155.71 v -78.75 h 173.25 v -59.387 h -243.9 z m 378.45,0 h 72.45 l 120.15,-321.293 h -73.35 l -24.3,71.539 h -120.15 l -25.21,-71.539 h -71.09 z m 219.59,0 h 173.26 c 14.4,0 27.37,-2.324 38.92,-6.973 11.55,-4.66 21.45,-11.027 29.71,-19.129 8.24,-8.097 14.54,-17.476 18.9,-28.125 4.34,-10.652 6.52,-22.129 6.52,-34.418 0,-18.898 -3.98,-35.261 -11.92,-49.058 -7.95,-13.801 -20.93,-24.293 -38.93,-31.5 v -0.891 c 8.7,-2.41 15.9,-6.082 21.6,-11.031 5.69,-4.949 10.35,-10.801 13.95,-17.551 3.6,-6.75 6.23,-14.168 7.88,-22.269 1.64,-8.098 2.76,-16.2 3.37,-24.309 0.3,-5.102 0.6,-11.102 0.9,-17.992 0.3,-6.91 0.83,-13.949 1.58,-21.16 0.74,-7.188 1.94,-14.02 3.59,-20.469 1.65,-6.449 4.12,-11.918 7.43,-16.418 h -70.65 c -3.9,10.187 -6.3,22.34 -7.2,36.449 -0.9,14.09 -2.25,27.59 -4.05,40.488 -2.4,16.813 -7.5,29.102 -15.3,36.903 -7.81,7.797 -20.55,11.707 -38.25,11.707 h -70.65 V 606.672 h -70.66 z m 320.85,-95.176 c 7.2,20.539 17.55,38.477 31.05,53.777 13.51,15.297 30.08,27.297 49.73,35.997 19.64,8.703 41.77,13.05 66.37,13.05 17.7,0 34.43,-2.55 50.18,-7.648 15.75,-5.106 29.84,-12.531 42.3,-22.277 12.44,-9.75 22.73,-21.821 30.82,-36.223 8.1,-14.406 13.2,-30.906 15.31,-49.496 h -68.4 c -1.21,8.101 -3.91,15.519 -8.11,22.269 -4.2,6.75 -9.45,12.672 -15.75,17.778 -6.3,5.097 -13.43,9.07 -21.37,11.922 -7.96,2.851 -16.28,4.277 -24.98,4.277 -15.91,0 -29.4,-3.078 -40.5,-9.223 -11.1,-6.152 -20.1,-14.402 -27,-24.754 -6.9,-10.347 -11.92,-22.129 -15.08,-35.328 -3.14,-13.199 -4.71,-26.851 -4.71,-40.941 0,-13.5 1.57,-26.629 4.71,-39.379 3.16,-12.758 8.18,-24.231 15.08,-34.43 6.9,-10.199 15.9,-18.379 27,-24.519 11.1,-6.153 24.59,-9.231 40.5,-9.231 21.6,0 38.48,6.602 50.63,19.801 12.15,13.199 19.58,30.598 22.27,52.211 h 68.4 c -1.8,-20.113 -6.45,-38.262 -13.94,-54.453 -7.5,-16.199 -17.41,-30.008 -29.71,-41.399 -12.31,-11.41 -26.7,-20.109 -43.19,-26.101 -16.51,-6 -34.65,-9.008 -54.46,-9.008 -24.6,0 -46.73,4.277 -66.37,12.828 -19.65,8.551 -36.22,20.32 -49.73,35.332 -13.5,14.988 -23.85,32.617 -31.05,52.867 -7.19,20.25 -10.8,42.071 -10.8,65.481 0,23.992 3.61,46.269 10.8,66.82 z m 335.71,95.176 h 70.64 V 804.66 h 130.05 v 123.305 h 70.66 V 606.672 h -70.66 v 138.59 h -130.05 v -138.59 h -70.64 z M 140.004,446.672 H 2853.33 V 1093.33 H 140.004 V 446.672" style="fill:#000000;fill-opacity:1;fill-rule:nonzero;stroke:none" id="path28"></path><path d="m 208.676,160.57 c -4.406,-6.379 -10.582,-9.558 -18.52,-9.558 -9.176,0 -15.996,3.289 -20.476,9.879 -4.477,6.589 -6.711,14.89 -6.711,24.918 0,8.519 1.082,15.472 3.25,20.839 4.183,10.102 11.875,15.153 23.066,15.153 11.051,0 18.633,-5.16 22.746,-15.473 2.168,-5.449 3.25,-12.316 3.25,-20.629 0,-10.379 -2.203,-18.758 -6.605,-25.129 z m -10.793,87.969 c -8.578,0 -15.645,-1.789 -21.192,-5.367 -4.687,-2.863 -8.972,-7.024 -12.867,-12.461 V 287 H 133.211 V 128.879 h 30.187 v 14.711 c 4.098,-5.731 7.915,-9.738 11.446,-12.031 5.902,-3.86 13.711,-5.797 23.426,-5.797 15.476,0 27.535,5.976 36.171,17.937 8.637,11.961 12.961,27.031 12.961,45.231 0,17.539 -4.382,31.859 -13.14,42.961 -8.754,11.097 -20.883,16.648 -36.379,16.648" style="fill:#000000;fill-opacity:1;fill-rule:nonzero;stroke:none" id="path30"></path><path d="m 316.203,159.602 -25.566,86.367 h -34.051 l 43.023,-122.25 c 0.215,-0.86 -0.449,-3.219 -1.988,-7.09 -1.543,-3.867 -3.211,-6.41 -4.996,-7.629 -1.863,-1.289 -4.156,-2.109 -6.875,-2.469 -2.723,-0.351 -5.586,-0.461 -8.594,-0.32 l -3.867,0.219 V 81.9297 c 3.297,-0.2109 5.774,-0.3281 7.422,-0.3711 1.644,-0.0391 3.832,-0.0586 6.559,-0.0586 13.55,0 22.582,2.6719 27.097,8.0117 4.52,5.3281 10.656,19.0973 18.414,41.2973 l 40.141,115.16 h -32.547 l -24.172,-86.367" style="fill:#000000;fill-opacity:1;fill-rule:nonzero;stroke:none" id="path32"></path><path d="m 547.598,202.422 c 0,-11.844 -1.094,-20.25 -3.274,-25.231 -3.64,-8.421 -11.129,-12.621 -22.457,-12.621 -11.437,0 -18.898,3.84 -22.383,11.539 -3.48,7.692 -5.429,21 -5.843,39.93 v 5.641 h -48.313 v -5.641 c 0,-28.777 5.305,-51.5 15.91,-68.148 10.602,-16.661 31.438,-24.993 62.496,-24.993 31.059,0 52.539,10.293 64.442,30.883 7.039,12.168 10.554,28.66 10.554,49.469 v 170.332 h -51.132 v -171.16" style="fill:#000000;fill-opacity:1;fill-rule:nonzero;stroke:none" id="path34"></path><path d="m 809.32,187.809 c -11.898,-14.938 -27.972,-22.411 -48.226,-22.411 -20.254,0 -36.418,7.473 -48.477,22.411 -12.066,14.941 -18.097,36.191 -18.097,63.75 0,27.562 6.031,48.812 18.097,63.75 12.059,14.941 28.223,22.41 48.477,22.41 20.254,0 36.328,-7.5 48.226,-22.489 11.895,-15 17.848,-36.218 17.848,-63.671 0,-27.559 -5.953,-48.809 -17.848,-63.75 z m -48.226,193.242 c -34.977,0 -61.707,-9.52 -80.188,-28.551 -24.793,-22.469 -37.187,-56.109 -37.187,-100.941 0,-43.938 12.394,-77.59 37.187,-100.938 18.481,-19.031 45.211,-28.551 80.188,-28.551 34.969,0 61.699,9.52 80.183,28.551 24.676,23.348 37.024,57 37.024,100.938 0,44.832 -12.348,78.472 -37.024,100.941 -18.484,19.031 -45.214,28.551 -80.183,28.551" style="fill:#000000;fill-opacity:1;fill-rule:nonzero;stroke:none" id="path36"></path><path d="m 1086.35,250.398 c -9.39,7.411 -23.5,13.34 -42.32,17.762 l -42.95,10.129 c -16.564,3.871 -27.4,7.25 -32.506,10.133 -7.945,4.308 -11.918,10.84 -11.918,19.59 0,9.508 4.028,16.929 12.086,22.238 8.059,5.32 18.832,7.969 32.338,7.969 12.14,0 22.29,-2.047 30.47,-6.141 12.25,-6.199 18.83,-16.656 19.74,-31.379 h 49.14 c -0.9,26.012 -10.56,45.852 -28.99,59.52 -18.43,13.672 -40.7,20.5 -66.81,20.5 -31.259,0 -54.954,-7.25 -71.087,-21.75 -16.133,-14.5 -24.199,-32.699 -24.199,-54.61 0,-24.019 8.242,-41.668 24.734,-52.961 9.738,-6.757 27.629,-13.007 53.664,-18.757 l 26.498,-5.813 c 15.5,-3.316 26.83,-7.137 33.97,-11.457 7.14,-4.43 10.71,-10.68 10.71,-18.762 0,-13.839 -7.29,-23.3 -21.86,-28.39 -7.69,-2.649 -17.69,-3.981 -30.01,-3.981 -20.562,0 -35.085,5.032 -43.562,15.114 -4.633,5.527 -7.738,13.878 -9.32,25.058 h -48.809 c 0,-25.449 9.231,-45.461 27.688,-60.012 18.457,-14.558 43.797,-21.828 76.013,-21.828 31.54,0 55.96,7.391 73.24,22.16 17.29,14.782 25.93,33.34 25.93,55.7 0,21.8 -7.29,38.461 -21.88,49.968" style="fill:#000000;fill-opacity:1;fill-rule:nonzero;stroke:none" id="path38"></path><path d="m 1195.55,235.789 h 118.87 v 42.5 h -118.87 v 51.961 h 129.5 v 43.332 H 1145.58 V 128.879 h 185.44 v 43.992 h -135.47 v 62.918" style="fill:#000000;fill-opacity:1;fill-rule:nonzero;stroke:none" id="path40"></path><path d="m 1370.87,128.879 h 50.8 v 102.59 h 108.41 v 42.5 h -108.41 v 56.281 h 123.68 v 43 H 1370.87 V 128.879" style="fill:#000000;fill-opacity:1;fill-rule:nonzero;stroke:none" id="path42"></path><path d="m 1798.27,267.832 c -6.47,-5.871 -15.54,-8.801 -27.2,-8.801 h -46.09 v 72.051 h 46.09 c 11.66,0 20.73,-2.711 27.2,-8.133 6.48,-5.429 9.72,-14.5 9.72,-27.23 0,-12.731 -3.24,-22.02 -9.72,-27.887 z m 38.92,86.828 c -14.4,12.621 -33.71,18.922 -57.94,18.922 H 1674.18 V 128.879 h 50.8 v 87.992 h 50.95 c 26.59,0 47.05,5.969 61.38,17.918 14.31,11.961 21.48,32.383 21.48,61.262 0,26.449 -7.19,45.988 -21.6,58.609" style="fill:#000000;fill-opacity:1;fill-rule:nonzero;stroke:none" id="path44"></path><path d="m 2030.56,269.328 c -5.47,-2.656 -13.67,-3.988 -24.6,-3.988 h -55.03 v 65.742 h 56.45 c 10.51,0 18.39,-1.441 23.65,-4.312 9.35,-5.098 14.03,-15.059 14.03,-29.891 0,-13.719 -4.83,-22.91 -14.5,-27.551 z m 60.34,-120.367 c -0.9,3.988 -1.35,11.57 -1.35,22.75 v 16.43 c 0,17.16 -2.35,29.91 -7.06,38.269 -4.69,8.36 -12.69,14.801 -23.98,19.34 13.5,4.648 23.18,12.59 29.05,23.828 5.87,11.231 8.8,22.66 8.8,34.281 0,9.629 -1.51,18.2 -4.53,25.731 -3.03,7.519 -7.13,14.379 -12.31,20.59 -6.26,7.519 -13.89,13.218 -22.91,17.101 -9.01,3.867 -21.88,5.969 -38.6,6.301 H 1900.96 V 128.879 h 49.97 v 95.953 h 49.94 c 14.24,0 23.95,-2.602 29.13,-7.801 5.19,-5.203 7.87,-15.601 8.09,-31.211 l 0.33,-22.742 c 0.11,-7.199 0.83,-14.226 2.16,-21.09 0.66,-3.316 1.77,-7.687 3.32,-13.109 h 56.45 v 6.141 c -4.96,2.992 -8.1,7.64 -9.45,13.941" style="fill:#000000;fill-opacity:1;fill-rule:nonzero;stroke:none" id="path46"></path><path d="m 2289.77,223.289 c 0,-16.809 -1.98,-29.078 -5.96,-36.82 -6.17,-13.719 -19.57,-20.571 -40.19,-20.571 -20.74,0 -34.19,6.852 -40.36,20.571 -3.98,7.742 -5.96,20.011 -5.96,36.82 v 150.293 h -51.96 v -150.41 c 0,-26.012 4.03,-46.262 12.09,-60.762 15.14,-26.558 43.87,-39.84 86.19,-39.84 42.31,0 70.98,13.282 86.01,39.84 8.07,14.5 12.1,34.75 12.1,60.762 v 150.41 h -51.96 V 223.289" style="fill:#000000;fill-opacity:1;fill-rule:nonzero;stroke:none" id="path48"></path><path d="m 2559.91,250.398 c -9.4,7.411 -23.5,13.34 -42.32,17.762 l -42.95,10.129 c -16.57,3.871 -27.4,7.25 -32.51,10.133 -7.94,4.308 -11.91,10.84 -11.91,19.59 0,9.508 4.02,16.929 12.08,22.238 8.05,5.32 18.84,7.969 32.34,7.969 12.14,0 22.3,-2.047 30.46,-6.141 12.26,-6.199 18.84,-16.656 19.75,-31.379 h 49.14 c -0.9,26.012 -10.56,45.852 -29,59.52 -18.42,13.672 -40.69,20.5 -66.79,20.5 -31.26,0 -54.96,-7.25 -71.1,-21.75 -16.13,-14.5 -24.2,-32.699 -24.2,-54.61 0,-24.019 8.25,-41.668 24.74,-52.961 9.74,-6.757 27.63,-13.007 53.66,-18.757 l 26.5,-5.813 c 15.5,-3.316 26.83,-7.137 33.97,-11.457 7.14,-4.43 10.71,-10.68 10.71,-18.762 0,-13.839 -7.28,-23.3 -21.86,-28.39 -7.69,-2.649 -17.69,-3.981 -30,-3.981 -20.58,0 -35.1,5.032 -43.57,15.114 -4.63,5.527 -7.74,13.878 -9.32,25.058 h -48.81 c 0,-25.449 9.23,-45.461 27.68,-60.012 18.46,-14.558 43.8,-21.828 76.02,-21.828 31.54,0 55.96,7.391 73.24,22.16 17.29,14.782 25.93,33.34 25.93,55.7 0,21.8 -7.29,38.461 -21.88,49.968" style="fill:#000000;fill-opacity:1;fill-rule:nonzero;stroke:none" id="path50"></path><path d="m 2684.25,221.352 31.76,96.289 30.92,-96.289 z m 3.38,152.23 -87.35,-244.703 h 53.48 l 16.58,50.301 h 90.12 l 16.15,-50.301 h 55.45 l -86.58,244.703 h -57.85" style="fill:#000000;fill-opacity:1;fill-rule:nonzero;stroke:none" id="path52"></path></g></g></svg>