<svg
   fill="none"
   viewBox="0 0 62.974075 64.054039"
   version="1.1"
   id="svg23"
   sodipodi:docname="skiff-logo.svg"
   inkscape:version="1.2 (dc2aedaf03, 2022-05-15)"
   xmlns:inkscape="http://www.inkscape.org/namespaces/inkscape"
   xmlns:sodipodi="http://sodipodi.sourceforge.net/DTD/sodipodi-0.dtd"
   xmlns="http://www.w3.org/2000/svg"
   xmlns:svg="http://www.w3.org/2000/svg">
  <sodipodi:namedview
     id="namedview25"
     pagecolor="#ffffff"
     bordercolor="#000000"
     borderopacity="0.25"
     inkscape:showpageshadow="2"
     inkscape:pageopacity="0.0"
     inkscape:pagecheckerboard="0"
     inkscape:deskcolor="#d1d1d1"
     showgrid="false"
     inkscape:zoom="8.0674847"
     inkscape:cx="81.623954"
     inkscape:cy="32.16616"
     inkscape:window-width="2554"
     inkscape:window-height="1207"
     inkscape:window-x="0"
     inkscape:window-y="0"
     inkscape:window-maximized="1"
     inkscape:current-layer="svg23" />
  <g
     clip-path="url(#clip0_212_5812)"
     id="g16"
     transform="translate(-0.05322261,0.00476053)">
    <path
       fill="#000000"
       d="M 40.7803,3.28293 C 43.5539,3.23112 46.3051,3.79348 48.84,4.93035 46.9416,3.71772 44.9164,2.72006 42.8011,1.95553 37.6014,0.0377093 31.997,-0.484505 26.537,0.440047 21.0771,1.3646 15.9489,3.70421 11.655,7.22962 11.3847,7.4311 10.6681,8.09479 10.3861,8.33183 10.1041,8.56887 9.45792,9.20887 9.2112,9.51702 8.96447,9.82516 8.41228,10.3585 8.03631,10.7022 7.66035,11.0459 7.20215,11.6859 6.95543,11.994 L 6.10951,13.1081 C 5.88628,13.4163 5.36934,14.1867 5.15786,14.4948 4.94638,14.803 4.80539,15.0755 4.7114,15.2178 4.61741,15.36 4.40593,15.7155 4.34719,15.8103 c -0.05875,0.0949 -0.61094,1.1141 -0.75193,1.3512 -0.14098,0.237 -0.56393,1.1852 -0.72842,1.517 l -0.55219,1.2919 c 0,0.1422 -0.42296,1.1851 -0.49345,1.3155 -0.07049,0.1304 -0.24674,0.7585 -0.34073,1.0667 -0.19973,0.5926 -0.37595,1.28 -0.540433,1.8844 -0.09399,0.3674 -0.281968,1.28 -0.36421,1.6474 v 0.2845 c -1.370565,7.5427 -0.024732,15.3313 3.794863,21.9615 0.38771,0.64 0.91641,1.517 1.36287,2.1214 0.16448,0.2489 0.4582,0.6756 0.64619,0.9126 l 0.68141,0.9008 1.08091,1.28 1.17488,1.1852 c 0.22323,0.2014 0.57568,0.5807 0.81065,0.7703 l 0.423,0.3674 0.1057,0.083 0.1057,0.083 0.2115,0.1777 c 0.2702,0.2252 0.611,0.4623 0.8929,0.6637 l 0.2233,0.1541 0.2349,0.1541 c 0.2468,0.1659 0.6815,0.4385 0.9517,0.5807 0.2702,0.1423 0.3525,0.2133 0.4817,0.2726 l 0.7402,0.3674 c 0.2349,0.1186 0.5404,0.2489 0.7636,0.3437 0.5522,0.2252 1.1749,0.4267 1.6919,0.6163 0.3054,0.0712 0.6344,0.1778 0.9399,0.2608 l 0.8106,0.1778 0.8225,0.1422 c 0.9451,0.1417 1.8994,0.213 2.8549,0.2133 2.3309,-0.0681 4.6292,-0.5704 6.7791,-1.4815 2.2697,-0.9791 4.3224,-2.4062 6.0375,-4.1973 1.715,-1.7911 3.0576,-3.9101 3.949,-6.2323 l 0.1997,-0.5215 c 0,-0.1778 0.1998,-0.64 0.2585,-0.8059 0.1057,-0.4267 0.2585,-0.9363 0.3407,-1.363 0,-0.1541 0.094,-0.3911 0.1175,-0.5452 0.1356,-0.8199 0.2259,-1.6469 0.2702,-2.477 0,-0.1896 0,-0.64 0,-0.8415 v -0.1304 c -0.6109,0 -1.1749,-0.0829 -1.8093,-0.154 C 33.7577,40.6177 29.3938,38.2153 26.3221,34.491 23.2504,30.7668 21.702,26.0011 21.9927,21.1652 22.2833,16.3293 24.391,11.7872 27.8862,8.46453 31.3815,5.1419 36.0011,3.28881 40.8038,3.28293 Z M 14.2632,51.5437 C 13.5385,50.931 12.8518,50.274 12.2071,49.5763 9.47054,46.6394 7.36651,43.1627 6.02758,39.3651 4.68866,35.5675 4.14386,31.5313 4.42752,27.5108 4.71117,23.4904 5.81714,19.5727 7.67573,16.0046 9.53432,12.4366 12.1053,9.29553 15.2266,6.77924 15.4616,6.57776 15.8375,6.31701 16.0725,6.13923 17.0115,5.43533 17.9924,4.79016 19.0097,4.20737 22.2754,2.37213 25.8693,1.208 29.5837,0.782206 L 30.9583,0.66368 h 1.3863 1.3746 L 32.3446,0.770342 30.9818,0.948113 29.6307,1.1733 c -4.0949,0.75544 -7.978,2.40003 -11.3803,4.81977 -3.4022,2.41974 -6.2422,5.55683 -8.32313,9.19373 -2.08096,3.637 -3.35312,7.6869 -3.72832,11.8691 -0.3752,4.1823 0.15553,8.3967 1.5554,12.3515 1.14008,3.1923 2.83485,6.1541 5.00495,8.7467 l 0.2115,0.2607 0.1058,0.1304 0.1174,0.1185 c 0.5836,0.6776 1.2074,1.3187 1.8681,1.92 2.3817,2.0918 5.31,3.4477 8.435,3.9059 3.1251,0.4581 6.3148,-8e-4 9.1882,-1.3222 -2.8782,1.6234 -6.1736,2.3365 -9.4587,2.047 -3.285,-0.2895 -6.4079,-1.5684 -8.9634,-3.6707 z m 3.9593,-5.4282 -0.2114,-0.2251 -0.1175,-0.1067 -0.7872,-0.8059 C 14.7461,42.4576 12.9119,39.4845 11.7129,36.2352 10.514,32.9859 9.97466,29.5266 10.127,26.0629 c 0.1523,-3.4637 0.9932,-6.8612 2.4727,-9.9906 1.4795,-3.1294 3.5675,-5.927 6.1398,-8.2264 0.8002,-0.70864 1.6439,-1.36574 2.526,-1.96741 0.4934,-0.33185 1.1044,-0.7348 1.6213,-1.01924 0.517,-0.28445 1.1749,-0.62816 1.6919,-0.90076 0.1997,-0.10666 0.3877,-0.16592 0.5756,-0.26074 0.188,-0.09481 0.705,-0.32001 0.8812,-0.37927 2.061,-0.82494 4.2226,-1.36704 6.4266,-1.61183 0.329,0 0.9164,-0.09481 1.2454,-0.10666 h 0.9399 c 0.9414,-0.01376 1.8827,0.02582 2.8197,0.11852 -1.4529,0.0175 -2.9024,0.14824 -4.3353,0.3911 -4.1253,0.68505 -8.0226,2.37524 -11.3537,4.92386 -3.331,2.54863 -5.9953,5.87873 -7.7616,9.70133 -1.8383,4.0859 -2.5729,8.5895 -2.1293,13.0541 0.4437,4.4646 2.0497,8.7316 4.6553,12.3681 0.1997,0.2489 0.5287,0.723 0.7401,0.9719 0.3525,0.4385 0.799,0.9718 1.1749,1.3866 2.0978,2.3912 4.9271,4.007 8.039,4.591 3.1119,0.5841 6.3279,0.1028 9.1378,-1.3673 -5.2517,3.7334 -12.7945,2.6904 -17.4118,-1.6237 z m 3.184,-8.5333 c 0.9947,1.4475 2.1805,2.7514 3.5246,3.8756 1.6515,1.3478 3.6043,2.2684 5.6888,2.6815 2.0844,0.4131 4.2373,0.3063 6.2715,-0.3112 -1.6899,0.7402 -3.5205,1.0963 -5.3621,1.0431 -1.8416,-0.0533 -3.649,-0.5146 -5.2941,-1.3512 -1.6838,-0.835 -3.1948,-1.9853 -4.4528,-3.3896 -2.1635,-2.3555 -3.8026,-5.1505 -4.8073,-8.1975 -1.0047,-3.047 -1.3518,-6.2755 -1.018,-9.4689 0.3338,-3.1935 1.3408,-6.2779 2.9535,-9.0465 1.6126,-2.7686 3.7935,-5.15723 6.3965,-7.00566 0.2584,-0.18963 0.6579,-0.43851 0.9399,-0.61629 0.5169,-0.3437 1.1749,-0.67556 1.6801,-0.97186 0.5052,-0.29629 0.8694,-0.42666 1.2571,-0.59259 2.3736,-1.01688 4.9079,-1.59884 7.484,-1.71853 0.5287,0 1.1044,0 1.6331,0 h 0.2702 0.282 l 0.8106,0.0711 c 0.4465,0 0.893,0.11852 1.3394,0.17777 -0.4464,0 -0.8929,0 -1.3511,0 h -1.0691 c -2.0476,0.13085 -4.0696,0.52924 -6.0154,1.18519 -3.2531,1.06587 -6.213,2.88637 -8.6423,5.31529 -2.4292,2.42888 -4.26,5.39858 -5.3454,8.67058 -1.0853,3.272 -1.395,6.7552 -0.9042,10.1698 0.4908,3.4146 1.7685,6.6655 3.7305,9.4918 z"
       id="path10" />
    <path
       fill="#000000"
       d="m 23.427,22.7556 -0.658,-0.0593 v 0.0593 c 0.5092,0 1.0144,0.0355 1.5157,0.1066 z"
       id="path12" />
    <path
       fill="#000000"
       d="m 51.4244,56.7586 c 0.2585,-0.2015 0.9869,-0.8652 1.2688,-1.1023 l 1.1749,-1.1852 1.1749,-1.1851 c 0.2702,-0.32 0.8342,-0.9719 1.0809,-1.2919 L 56.9698,50.88 c 0.2233,-0.3081 0.7402,-1.0785 0.9517,-1.3866 l 0.4464,-0.723 c 0.0705,-0.0948 0.3055,-0.4978 0.3643,-0.5926 0.0587,-0.0948 0.6109,-1.1022 0.7401,-1.3511 0.1293,-0.2489 0.5757,-1.1852 0.7402,-1.517 0.1645,-0.3319 0.3877,-0.9126 0.5522,-1.2919 0,-0.1303 0.4229,-1.1852 0.4817,-1.3155 0.0587,-0.1304 0.2585,-0.7585 0.3525,-1.0667 0.1997,-0.5926 0.3759,-1.28 0.5404,-1.8844 0.094,-0.3674 0.2702,-1.2801 0.3642,-1.6475 V 37.8312 C 63.8762,30.2884 62.5302,22.4991 58.7087,15.8697 58.321,15.2178 57.7923,14.3526 57.3458,13.7363 57.1813,13.4874 56.8876,13.0608 56.6996,12.8238 L 56.0182,11.9349 C 55.7832,11.6623 55.1605,10.9038 54.9255,10.643 54.6906,10.3823 54.1501,9.80154 53.7507,9.45783 53.5392,9.25635 53.1749,8.87706 52.9517,8.68743 L 52.5288,8.33189 52.423,8.23709 52.3173,8.15412 52.0941,7.97635 C 51.8356,7.75116 51.4949,7.51413 51.2129,7.31265 L 50.9779,7.15857 50.7547,7.00449 C 50.4962,6.83856 50.0733,6.56598 49.803,6.42376 49.5328,6.28154 49.4506,6.21041 49.3213,6.15115 L 48.5812,5.78375 47.8175,5.44004 C 47.2653,5.21485 46.6426,5.01338 46.1257,4.82375 L 45.1858,4.57487 44.3751,4.38524 43.5527,4.24299 c -0.9452,-0.14174 -1.8994,-0.21304 -2.855,-0.21333 -2.3309,0.06809 -4.6292,0.57036 -6.779,1.48148 -2.2698,0.97914 -4.3225,2.40623 -6.0375,4.19734 -1.715,1.79112 -3.0577,3.91012 -3.949,6.23232 l -0.1998,0.5333 c -0.0587,0.1659 -0.1997,0.6282 -0.2585,0.7941 -0.1174,0.4267 -0.2584,0.9363 -0.3407,1.363 0,0.154 -0.0939,0.3911 -0.1174,0.5451 -0.1507,0.8304 -0.2488,1.6696 -0.2938,2.5126 0,0.1896 0,0.6519 0,0.8415 v 0.1897 c 2.4872,0.0287 4.9437,0.5573 7.2259,1.5548 2.2823,0.9975 4.3447,2.444 6.0664,4.2548 1.7218,1.8108 3.0685,3.9496 3.9614,6.2915 0.8929,2.3419 1.3141,4.8397 1.239,7.3477 -0.1351,3.1596 -1.0324,6.2383 -2.6141,8.9689 -1.5817,2.7305 -3.8,5.0305 -6.4624,6.7004 -2.6625,1.6698 -5.6886,2.6591 -8.8159,2.882 -3.1273,0.2228 -6.2612,-0.3274 -9.1299,-1.6031 1.9007,1.2116 3.9253,2.2129 6.0389,2.9866 5.2126,1.9135 10.8288,2.4269 16.2974,1.4898 5.4687,-0.9371 10.6018,-3.2925 14.8957,-6.8349 z M 48.8396,12.4089 c 0.7297,0.6155 1.424,1.2724 2.0796,1.9674 5.2435,5.6331 8.0633,13.1309 7.8431,20.8549 -0.2201,7.724 -3.4623,15.0461 -9.018,20.3659 -0.282,0.2607 -0.7402,0.7111 -1.0456,0.9481 l -0.5405,0.4504 -0.2819,0.237 -0.1293,0.1067 -0.7049,0.5333 c -0.9473,0.7002 -1.936,1.3414 -2.9607,1.92 L 42.836,60.4563 C 38.651,62.542 34.0118,63.5285 29.3483,63.3245 36.8968,62.9183 44.0016,59.6 49.1921,54.0564 53.8146,49.099 56.5448,42.6489 56.8976,35.8525 57.2504,29.056 55.2028,22.3536 51.1189,16.9363 50.8722,16.5808 50.5432,16.2134 50.273,15.8815 L 50.0615,15.6208 49.9558,15.4904 49.85,15.36 C 47.5469,12.5447 44.3876,10.5741 40.8617,9.75348 37.3359,8.93284 33.6401,9.30798 30.347,10.8208 c 2.8827,-1.64386 6.1901,-2.37173 9.4896,-2.08837 3.2995,0.28335 6.4373,1.56477 9.003,3.67647 z m -4.6995,4.7408 c 0.376,0.2963 0.7519,0.6518 1.1044,0.9718 3.0201,2.9295 5.281,6.5623 6.584,10.5792 1.303,4.017 1.6083,8.2953 0.889,12.4591 -0.7192,4.1639 -2.441,8.0858 -5.0141,11.4214 -2.5731,3.3356 -5.9188,5.9829 -9.7431,7.7092 l -0.5875,0.2489 -0.141,0.0593 -0.1527,0.0592 -0.2937,0.1185 c -0.3055,0.1067 -0.8694,0.3319 -1.1749,0.4267 -3.2078,1.0483 -6.5967,1.4116 -9.9513,1.0667 1.6567,-0.0304 3.3076,-0.2049 4.9345,-0.5215 3.9955,-0.785 7.7491,-2.5159 10.9519,-5.0503 3.2028,-2.5344 5.7631,-5.7998 7.4703,-9.5275 1.871,-4.169 2.5912,-8.7703 2.0846,-13.318 -0.5067,-4.5477 -2.2214,-8.873 -4.9631,-12.519 -0.2115,-0.2963 -0.5287,-0.6637 -0.7519,-0.9482 -0.2232,-0.2844 -0.6932,-0.7822 -1.0104,-1.1851 -2.1191,-2.2957 -4.9264,-3.8265 -7.991,-4.3574 -3.0647,-0.531 -6.2174,-0.0328 -8.9743,1.4181 4.9698,-3.5556 12.1013,-2.8445 16.7421,0.9363 z m -12.5712,42.4415 0.9751,-0.4149 0.9517,-0.4622 c 0.3642,-0.1778 0.7989,-0.4385 1.1749,-0.64 l 1.1161,-0.6992 c 0.3172,-0.2252 0.7637,-0.5334 1.0692,-0.7704 4.3807,-3.3181 7.3629,-8.1781 8.3534,-13.6132 C 46.1998,37.5562 45.126,31.9441 42.2016,27.2712 L 41.6259,26.3941 41.0032,25.5526 40.3453,24.723 c -0.6645,-0.8046 -1.4042,-1.5428 -2.2088,-2.2044 -1.6498,-1.3423 -3.5986,-2.2594 -5.6782,-2.6724 -2.0796,-0.4129 -4.2276,-0.3093 -6.2586,0.302 2.0504,-0.8926 4.2963,-1.2298 6.5155,-0.9782 2.2193,0.2515 4.335,1.083 6.1379,2.4123 1.2182,0.8822 2.3197,1.9178 3.278,3.0814 2.3737,2.816 4.0206,6.1803 4.794,9.7936 0.7733,3.6132 0.6492,7.3632 -0.3613,10.9164 -1.0105,3.5531 -2.8761,6.7991 -5.4307,9.4492 -2.5547,2.65 -5.7191,4.6219 -9.2118,5.7401 -3.1591,0.9842 -6.503,1.2075 -9.7632,0.6518 3.214,0.1202 6.419,-0.4159 9.4225,-1.5762 z"
       id="path14" />
  </g>
  <defs
     id="defs21">
    <clipPath
       id="clip0_212_5812">
      <rect
         fill="#ffffff"
         height="64"
         width="162.909"
         id="rect18"
         x="0"
         y="0" />
    </clipPath>
  </defs>
</svg>
