<svg
   fill-rule="evenodd"
   stroke-linejoin="round"
   stroke-miterlimit="2"
   clip-rule="evenodd"
   viewBox="0 0 414.43924 348.53674"
   version="1.1"
   id="svg6"
   sodipodi:docname="logo.svg"
   width="414.43924"
   height="348.53674"
   xmlns:inkscape="http://www.inkscape.org/namespaces/inkscape"
   xmlns:sodipodi="http://sodipodi.sourceforge.net/DTD/sodipodi-0.dtd"
   xmlns="http://www.w3.org/2000/svg"
   xmlns:svg="http://www.w3.org/2000/svg">
  <sodipodi:namedview
     id="namedview8"
     pagecolor="#ffffff"
     bordercolor="#000000"
     borderopacity="0.25"
     inkscape:showpageshadow="2"
     inkscape:pageopacity="0.0"
     inkscape:pagecheckerboard="0"
     inkscape:deskcolor="#d1d1d1" />
  <defs
     id="defs2" />
  <path
     fill="#0043ce"
     d="m 244.75245,348.31713 -74.6697,0.13435 -0.20802,-113.77942 c 1.6849,-30.73219 -16.74453,-54.87687 -47.61448,-56.0431 -18.69105,-0.70603 -48.77863,14.51786 -47.409621,54.14037 2.279584,13.4849 11.022566,27.6516 23.335616,34.76524 5.968945,2.99416 13.052315,5.05842 21.200645,6.2193 1.00064,0.0642 2.02105,0.10203 3.05792,0.11007 l 5e-4,0.27738 0.42275,0.0488 -0.17002,74.34665 -0.11889,-0.006 1e-5,0.003 C 41.909388,346.73057 -0.81976277,282.37065 0.16731223,221.67002 l -0.006488,-3.60586 c -0.0115876,-0.93447 -0.0132214,-1.84253 -0.004896,-2.7209 -0.0181353,-13.74983 -0.0434497,-25.984 -0.08764166,-43.20427 -0.0013546,-0.75287 0.0104753,-1.51897 0.03547784,-2.30492 L 0,119.50395 C 1.4165483,53.410258 55.464882,0.11979326 121.93225,2.016281e-4 186.48441,-0.11594407 239.50026,49.960481 244.01938,113.39852 l 0.31398,0.15464 c 14.59394,-6.20445 30.64246,-9.64768 47.48962,-9.67799 l 0.78919,-10e-4 c 67.06911,0.30529 121.48637,54.79077 121.60722,121.95818 l 0.0453,32.51221 c 0.0789,56.66686 0.0651,71.02433 0.17455,89.66768 l -74.66971,0.13435 -0.22423,-122.78746 c -0.73514,-25.01194 -19.72144,-44.82989 -44.42788,-46.81952 l -6.60414,0.0119 -0.30704,0.0303 c -2.13274,0.22508 -4.25538,0.55581 -6.34804,1.03177 -3.89818,0.88206 -7.69645,2.22954 -11.26937,4.0257 -4.62204,2.31977 -8.86298,5.39834 -12.49194,9.08338 -5.51102,5.59044 -9.56991,12.57504 -11.7258,20.12417 -0.79737,2.7983 -1.34034,5.67208 -1.61581,8.5685 -0.15237,1.56877 -0.21558,3.14727 -0.22265,4.72238 z M 74.541622,143.6137 c 9.74771,-0.0175 17.673711,7.88329 17.691244,17.6277 0.01754,9.74771 -7.87998,17.67701 -17.627691,17.69455 -9.74771,0.0175 -17.673711,-7.88329 -17.69125,-17.631 -0.01753,-9.74441 7.879986,-17.67371 17.627697,-17.69125 z"
     id="path4" />
</svg>
