<svg viewBox="0 0 120 241" version="1.1" xmlns="http://www.w3.org/2000/svg" xmlns:xlink="http://www.w3.org/1999/xlink" xml:space="preserve" xmlns:serif="http://www.serif.com/" style="fill-rule:evenodd;clip-rule:evenodd;stroke-linejoin:round;stroke-miterlimit:2;">
    <g id="svgg">
        <path id="path0" d="M22.428,24.67C10.715,25.206 2.069,36.319 4.428,47.804C4.568,48.485 6.778,55.827 11.097,69.956C11.897,72.575 13.31,77.203 14.236,80.241C15.162,83.279 17.135,89.751 18.62,94.622C20.105,99.494 22.091,106.008 23.033,109.099C23.975,112.189 25.036,115.66 25.39,116.813C25.744,117.965 26.399,120.135 26.846,121.635L27.658,124.362L30.334,118.968C32.833,113.933 35.43,108.65 42.821,93.575C44.465,90.222 47.32,84.402 49.167,80.641C51.013,76.88 52.523,73.709 52.523,73.594C52.523,73.479 51.101,68.713 49.362,63.004C47.623,57.294 45.223,49.408 44.028,45.479C41.489,37.13 41.145,36.17 39.973,34.17C36.361,28.003 29.6,24.342 22.428,24.67M56.568,153.051L44.154,178.337L46.446,185.86C49.24,195.034 51.466,202.334 54.114,211.003C55.218,214.618 56.812,219.846 57.658,222.622C60.083,230.588 61.639,233.241 65.654,236.256C77.812,245.384 94.899,237.885 96.534,222.705C96.978,218.58 98.466,223.987 82.329,171.099C75.279,147.992 73.657,142.669 71.562,135.765C70.275,131.522 69.168,127.987 69.102,127.908C69.035,127.83 63.395,139.144 56.568,153.051" style="fill:rgb(212,12,100);"/>
        <path id="path1" d="M96.714,0.515C92.137,1.482 87.314,4.763 84.806,8.617C84.183,9.574 55.761,67.169 53.434,72.191L52.662,73.854L60.826,100.615C65.315,115.334 69.045,127.314 69.114,127.237C69.593,126.703 118.668,26.249 119.059,24.999C123.442,11.004 111.097,-2.523 96.714,0.515M14.572,151.329C-0.793,182.655 0.143,180.454 0.143,185.264C0.143,200.806 17.048,209.778 30.093,201.158C33.714,198.765 34.844,197.106 40.032,186.552L44.122,178.231L38.504,159.808C35.414,149.675 31.766,137.699 30.397,133.194C29.028,128.689 27.846,124.936 27.77,124.853C27.694,124.77 21.755,136.685 14.572,151.329" style="fill:rgb(148,196,68);"/>
        <path id="path3" d="M51.572,75.956C51.017,77.056 45.44,88.39 39.179,101.143L27.794,124.33L35.964,151.122C40.457,165.858 44.158,177.94 44.188,177.969C44.218,177.999 45.824,174.794 47.758,170.847C49.691,166.9 53.064,160.027 55.253,155.575C68.436,128.755 68.933,127.715 68.807,127.211C68.696,126.765 53.104,75.558 52.737,74.432C52.596,74.002 52.482,74.152 51.572,75.956" style="fill:rgb(60,164,20);"/>
        <path id="path4" d="M100.381,0.092C100.669,0.136 101.14,0.136 101.428,0.092C101.716,0.048 101.481,0.013 100.904,0.013C100.328,0.013 100.093,0.048 100.381,0.092M87.083,5.718L86.523,6.337L87.143,5.777C87.483,5.469 87.762,5.191 87.762,5.158C87.762,5.011 87.604,5.141 87.083,5.718M0.011,185.194C0.012,185.822 0.048,186.057 0.09,185.714C0.132,185.372 0.132,184.858 0.088,184.571C0.045,184.285 0.01,184.565 0.011,185.194" style="fill:rgb(116,172,52);"/>
    </g>
</svg>
