<svg width="50" height="50" xmlns="http://www.w3.org/2000/svg" xmlns:svg="http://www.w3.org/2000/svg">
 <g class="layer">
  <title>Layer 1</title>
  <path d="m24.79,5.06l-2.34,-5.06l1.32,0.03l1.64,3.81l1.84,-3.72l1.32,0.03l-2.6,4.94l-0.09,3.49l-1.17,-0.03l0.08,-3.49l0,0z" fill="#F53C59" id="svg_1"/>
  <path d="m31.24,6.07l-0.57,-5.54l1.23,0.46l0.32,4.14l2.95,-2.93l1.23,0.46l-4.06,3.82l-1.21,3.28l-1.1,-0.41l1.21,-3.27l0,-0.01z" fill="#F53C59" id="svg_2"/>
  <path d="m37.01,9.13l1.25,-5.43l1.02,0.83l-1.04,4.02l3.73,-1.81l1.02,0.84l-5.07,2.29l-2.21,2.71l-0.91,-0.75l2.21,-2.7l0,0z" fill="#F53C59" id="svg_3"/>
  <path d="m41.48,13.9l2.94,-4.74l0.69,1.12l-2.27,3.47l4.11,-0.51l0.7,1.12l-5.55,0.53l-2.96,1.85l-0.62,-1l2.96,-1.84l0,0z" fill="#F53C59" id="svg_4"/>
  <path d="m44.17,19.86l4.32,-3.53l0.29,1.29l-3.28,2.54l4.05,0.86l0.3,1.29l-5.42,-1.31l-3.4,0.78l-0.26,-1.15l3.4,-0.77l0,0z" fill="#F53C59" id="svg_5"/>
  <path d="m44.78,26.36l5.22,-1.94l-0.14,1.32l-3.92,1.34l3.56,2.12l-0.14,1.32l-4.7,-2.99l-3.47,-0.36l0.12,-1.17l3.47,0.36l0,0z" fill="#F53C59" id="svg_6"/>
  <path d="m43.26,32.72l5.56,-0.13l-0.55,1.2l-4.15,-0.01l2.68,3.17l-0.56,1.2l-3.48,-4.36l-3.16,-1.48l0.49,-1.06l3.17,1.47l0,0z" fill="#F53C59" id="svg_7"/>
  <path d="m39.75,38.24l5.31,1.68l-0.91,0.95l-3.92,-1.36l1.51,3.87l-0.92,0.95l-1.88,-5.25l-2.52,-2.42l0.82,-0.84l2.51,2.42l0,0z" fill="#F53C59" id="svg_8"/>
  <path d="m34.65,42.32l4.49,3.31l-1.17,0.6l-3.28,-2.55l0.18,4.15l-1.17,0.61l-0.09,-5.58l-1.6,-3.11l1.04,-0.53l1.6,3.1l0,0z" fill="#F53C59" id="svg_9"/>
  <path d="m28.51,44.53l3.16,4.59l-1.31,0.19l-2.26,-3.48l-1.18,3.98l-1.31,0.19l1.73,-5.3l-0.5,-3.46l1.16,-0.17l0.5,3.46l0.01,0z" fill="#F53C59" id="svg_10"/>
  <path d="m21.98,44.62l1.52,5.37l-1.3,-0.25l-1.02,-4.02l-2.4,3.39l-1.3,-0.25l3.35,-4.46l0.64,-3.43l1.15,0.21l-0.64,3.44l0,0z" fill="#F53C59" id="svg_11"/>
  <path d="m15.77,42.59l-0.31,5.57l-1.15,-0.65l0.35,-4.14l-3.37,2.41l-1.15,-0.65l4.61,-3.12l1.73,-3.04l1.02,0.58l-1.73,3.04l0,0z" fill="#F53C59" id="svg_12"/>
  <path d="m10.57,38.65l-2.1,5.17l-0.87,-0.99l1.66,-3.8l-3.97,1.19l-0.88,-0.98l5.38,-1.47l2.61,-2.32l0.77,0.88l-2.6,2.32l0,0z" fill="#F53C59" id="svg_13"/>
  <path d="m6.91,33.24l-3.65,4.21l-0.51,-1.22l2.8,-3.06l-4.14,-0.16l-0.51,-1.22l5.55,0.36l3.22,-1.34l0.46,1.08l-3.22,1.35l0,0z" fill="#F53C59" id="svg_14"/>
  <path d="m5.2,26.92l-4.83,2.77l-0.08,-1.32l3.65,-1.96l-3.86,-1.52l-0.08,-1.32l5.13,2.18l3.48,-0.21l0.07,1.17l-3.48,0.21l0,0z" fill="#F53C59" id="svg_15"/>
  <path d="m5.63,20.4l-5.46,1.09l0.34,-1.28l4.09,-0.7l-3.18,-2.66l0.34,-1.28l4.17,3.7l3.37,0.91l-0.31,1.14l-3.36,-0.92l0,0z" fill="#F53C59" id="svg_16"/>
  <path d="m8.15,14.37l-5.52,-0.76l0.74,-1.09l4.09,0.67l-2.14,-3.56l0.74,-1.09l2.75,4.86l2.88,1.96l-0.65,0.97l-2.89,-1.96l0,0z" fill="#F53C59" id="svg_17"/>
  <path d="m12.48,9.48l-4.98,-2.5l1.06,-0.79l3.65,1.95l-0.87,-4.05l1.05,-0.8l1.03,5.48l2.1,2.79l-0.94,0.71l-2.1,-2.79l0,0z" fill="#F53C59" id="svg_18"/>
  <path d="m18.16,6.26l-3.9,-3.98l1.25,-0.41l2.83,3.04l0.48,-4.13l1.26,-0.41l-0.81,5.52l1.09,3.32l-1.12,0.37l-1.08,-3.32l0,0z" fill="#F53C59" id="svg_19"/>
  <path d="m24.86,12.57l-1.46,-3.15l0.82,0.02l1.02,2.37l1.15,-2.32l0.82,0.02l-1.62,3.08l-0.05,2.17l-0.74,-0.02l0.06,-2.17l0,0z" fill="#F53C59" id="svg_20"/>
  <path d="m28.87,13.2l-0.36,-3.46l0.77,0.29l0.2,2.57l1.83,-1.82l0.77,0.29l-2.53,2.38l-0.75,2.04l-0.69,-0.26l0.76,-2.04l0,0.01z" fill="#F53C59" id="svg_21"/>
  <path d="m32.46,15.1l0.77,-3.39l0.64,0.52l-0.64,2.51l2.32,-1.13l0.63,0.52l-3.16,1.43l-1.37,1.69l-0.57,-0.47l1.38,-1.68l0,0z" fill="#F53C59" id="svg_22"/>
  <path d="m35.24,18.05l1.82,-2.95l0.44,0.7l-1.42,2.16l2.56,-0.32l0.44,0.7l-3.45,0.33l-1.85,1.15l-0.38,-0.62l1.84,-1.15z" fill="#F53C59" id="svg_23"/>
  <path d="m36.92,21.76l2.68,-2.2l0.18,0.8l-2.04,1.59l2.53,0.53l0.18,0.8l-3.37,-0.81l-2.12,0.49l-0.16,-0.71l2.12,-0.49z" fill="#F53C59" id="svg_24"/>
  <path d="m37.3,25.8l3.25,-1.21l-0.08,0.82l-2.44,0.84l2.22,1.32l-0.09,0.81l-2.93,-1.85l-2.16,-0.22l0.07,-0.73l2.16,0.23l0,-0.01z" fill="#F53C59" id="svg_25"/>
  <path d="m36.37,29.76l3.46,-0.09l-0.34,0.74l-2.58,0l1.67,1.97l-0.35,0.75l-2.17,-2.71l-1.97,-0.91l0.31,-0.66l1.97,0.91l0,0z" fill="#F53C59" id="svg_26"/>
  <path d="m34.2,33.2l3.31,1.03l-0.57,0.6l-2.44,-0.84l0.94,2.41l-0.57,0.59l-1.18,-3.27l-1.57,-1.5l0.51,-0.53l1.57,1.51z" fill="#F53C59" id="svg_27"/>
  <path d="m31.04,35.74l2.8,2.05l-0.73,0.38l-2.04,-1.58l0.11,2.59l-0.73,0.37l-0.06,-3.47l-1,-1.93l0.65,-0.33l1,1.92l0,0z" fill="#F53C59" id="svg_28"/>
  <path d="m27.22,37.13l1.98,2.85l-0.81,0.12l-1.42,-2.16l-0.73,2.48l-0.81,0.13l1.07,-3.31l-0.32,-2.15l0.72,-0.11l0.32,2.15l0,0z" fill="#F53C59" id="svg_29"/>
  <path d="m23.16,37.21l0.96,3.33l-0.81,-0.14l-0.64,-2.51l-1.49,2.12l-0.81,-0.15l2.07,-2.78l0.39,-2.15l0.72,0.14l-0.39,2.14l0,0z" fill="#F53C59" id="svg_30"/>
  <path d="m19.3,35.96l-0.18,3.47l-0.71,-0.4l0.2,-2.58l-2.09,1.51l-0.72,-0.4l2.86,-1.96l1.06,-1.9l0.64,0.36l-1.06,1.9l0,0z" fill="#F53C59" id="svg_31"/>
  <path d="m16.05,33.53l-1.29,3.22l-0.55,-0.61l1.02,-2.37l-2.46,0.75l-0.55,-0.61l3.34,-0.93l1.62,-1.45l0.49,0.55l-1.62,1.45l0,0z" fill="#F53C59" id="svg_32"/>
  <path d="m13.75,30.17l-2.26,2.64l-0.32,-0.76l1.74,-1.91l-2.58,-0.09l-0.32,-0.75l3.46,0.2l2,-0.85l0.28,0.67l-2,0.85l0,0z" fill="#F53C59" id="svg_33"/>
  <path d="m12.67,26.25l-3,1.75l-0.05,-0.82l2.26,-1.24l-2.41,-0.93l-0.05,-0.82l3.2,1.33l2.17,-0.14l0.05,0.73l-2.17,0.14l0,0z" fill="#F53C59" id="svg_34"/>
  <path d="m12.91,22.2l-3.4,0.69l0.21,-0.79l2.54,-0.45l-1.98,-1.65l0.21,-0.8l2.61,2.29l2.1,0.55l-0.19,0.71l-2.1,-0.55l0,0z" fill="#F53C59" id="svg_35"/>
  <path d="m14.45,18.44l-3.44,-0.45l0.46,-0.68l2.55,0.4l-1.35,-2.21l0.46,-0.68l1.72,3.01l1.81,1.21l-0.4,0.6l-1.81,-1.2l0,0z" fill="#F53C59" id="svg_36"/>
  <path d="m17.12,15.38l-3.11,-1.54l0.65,-0.49l2.29,1.2l-0.57,-2.52l0.66,-0.5l0.66,3.4l1.32,1.73l-0.58,0.45l-1.32,-1.73z" fill="#F53C59" id="svg_37"/>
  <path d="m20.64,13.35l-2.45,-2.46l0.78,-0.26l1.77,1.88l0.29,-2.57l0.78,-0.27l-0.48,3.44l0.69,2.07l-0.69,0.23l-0.69,-2.06l0,0z" fill="#F53C59" id="svg_38"/>
  <path d="m24.91,17.65l-0.85,-1.86l0.48,0.01l0.6,1.4l0.68,-1.36l0.48,0.02l-0.96,1.8l-0.04,1.28l-0.43,-0.01l0.04,-1.28l0,0z" fill="#F53C59" id="svg_39"/>
  <path d="m27.27,18.02l-0.21,-2.03l0.45,0.17l0.12,1.51l1.08,-1.07l0.45,0.17l-1.49,1.4l-0.44,1.21l-0.41,-0.15l0.45,-1.21l0,0z" fill="#F53C59" id="svg_40"/>
  <path d="m29.38,19.14l0.46,-1.99l0.38,0.3l-0.38,1.48l1.37,-0.67l0.37,0.31l-1.86,0.84l-0.81,1l-0.34,-0.28l0.81,-0.99z" fill="#F53C59" id="svg_41"/>
  <path d="m31.02,20.89l1.08,-1.74l0.26,0.41l-0.84,1.27l1.51,-0.19l0.26,0.41l-2.04,0.2l-1.08,0.68l-0.23,-0.37l1.08,-0.67l0,0z" fill="#F53C59" id="svg_42"/>
  <path d="m32.01,23.07l1.58,-1.29l0.11,0.47l-1.2,0.93l1.49,0.32l0.11,0.47l-1.99,-0.48l-1.25,0.29l-0.1,-0.42l1.25,-0.29z" fill="#F53C59" id="svg_43"/>
  <path d="m32.24,25.46l1.92,-0.72l-0.05,0.49l-1.44,0.49l1.3,0.78l-0.05,0.48l-1.72,-1.1l-1.28,-0.13l0.05,-0.43l1.27,0.14l0,0z" fill="#F53C59" id="svg_44"/>
  <path d="m31.69,27.79l2.04,-0.06l-0.2,0.44l-1.53,0l0.99,1.16l-0.2,0.44l-1.28,-1.59l-1.17,-0.54l0.18,-0.39l1.17,0.54l0,0z" fill="#F53C59" id="svg_45"/>
  <path d="m30.41,29.81l1.95,0.61l-0.34,0.35l-1.44,-0.49l0.56,1.42l-0.34,0.35l-0.69,-1.93l-0.93,-0.88l0.3,-0.32l0.93,0.89l0,0z" fill="#F53C59" id="svg_46"/>
  <path d="m28.54,31.32l1.65,1.21l-0.43,0.22l-1.2,-0.93l0.07,1.52l-0.43,0.22l-0.04,-2.05l-0.59,-1.13l0.38,-0.2l0.59,1.13l0,0.01z" fill="#F53C59" id="svg_47"/>
  <path d="m26.29,32.13l1.17,1.68l-0.48,0.07l-0.84,-1.27l-0.43,1.46l-0.48,0.07l0.63,-1.94l-0.18,-1.27l0.42,-0.07l0.19,1.27l0,0z" fill="#F53C59" id="svg_48"/>
  <path d="m23.9,32.17l0.56,1.97l-0.48,-0.09l-0.38,-1.47l-0.87,1.24l-0.48,-0.08l1.22,-1.64l0.23,-1.27l0.43,0.08l-0.23,1.26z" fill="#F53C59" id="svg_49"/>
  <path d="m21.62,31.44l-0.11,2.04l-0.42,-0.24l0.12,-1.51l-1.23,0.89l-0.42,-0.24l1.69,-1.15l0.62,-1.12l0.38,0.21l-0.63,1.12l0,0z" fill="#F53C59" id="svg_50"/>
  <path d="m19.71,30l-0.76,1.9l-0.33,-0.36l0.61,-1.4l-1.46,0.45l-0.32,-0.36l1.97,-0.55l0.95,-0.86l0.29,0.33l-0.95,0.85l0,0z" fill="#F53C59" id="svg_51"/>
  <path d="m18.35,28.02l-1.33,1.55l-0.19,-0.44l1.02,-1.13l-1.52,-0.05l-0.18,-0.45l2.04,0.12l1.17,-0.5l0.17,0.4l-1.18,0.5l0,0z" fill="#F53C59" id="svg_52"/>
  <path d="m17.72,25.71l-1.77,1.02l-0.03,-0.48l1.33,-0.73l-1.42,-0.55l-0.03,-0.48l1.89,0.79l1.28,-0.08l0.03,0.43l-1.28,0.08l0,0z" fill="#F53C59" id="svg_53"/>
  <path d="m17.86,23.32l-2,0.41l0.12,-0.47l1.5,-0.26l-1.17,-0.98l0.12,-0.46l1.54,1.34l1.24,0.33l-0.11,0.42l-1.24,-0.33l0,0z" fill="#F53C59" id="svg_54"/>
  <path d="m18.77,21.1l-2.02,-0.27l0.27,-0.4l1.5,0.24l-0.79,-1.3l0.27,-0.4l1.01,1.77l1.07,0.72l-0.24,0.35l-1.07,-0.71l0,0z" fill="#F53C59" id="svg_55"/>
  <path d="m20.35,19.3l-1.83,-0.9l0.38,-0.3l1.35,0.71l-0.33,-1.49l0.38,-0.29l0.39,2.01l0.78,1.02l-0.34,0.26l-0.78,-1.02l0,0z" fill="#F53C59" id="svg_56"/>
  <path d="m22.43,18.11l-1.44,-1.46l0.46,-0.15l1.04,1.11l0.17,-1.51l0.46,-0.16l-0.28,2.03l0.4,1.22l-0.41,0.13l-0.4,-1.21l0,0z" fill="#F53C59" id="svg_57"/>
  <path d="m61.98,32.29l0,-14.58l2.17,0l0,12.49l6.98,0l0,2.09l-9.15,0z" fill="#072234" id="svg_58"/>
  <path d="m77.11,32.29l0,-6l-4.32,-8.58l2.3,0l3.04,6.47l3.04,-6.47l2.3,0l-4.32,8.58l0,6l-2.04,0z" fill="#072234" id="svg_59"/>
  <path d="m88.7,32.29l0,-14.58l2.17,0l0,7.51l0.04,0l5.9,-7.51l2.57,0l-4.59,5.75l5.07,8.83l-2.57,0l-3.9,-7.13l-2.52,2.69l0,4.44l-2.17,0z" fill="#072234" id="svg_60"/>
  <path d="m105.4,32.29l0,-14.58l2.17,0l0,7.51l0.04,0l5.9,-7.51l2.57,0l-4.59,5.75l5.07,8.83l-2.57,0l-3.9,-7.13l-2.52,2.69l0,4.44l-2.17,0z" fill="#072234" id="svg_61"/>
  <path d="m122.1,32.29l0,-14.58l9.15,0l0,2.09l-6.98,0l0,4.16l5.96,0l0,1.96l-5.96,0l0,4.28l6.98,0l0,2.09l-9.15,0z" fill="#072234" id="svg_62"/>
 </g>
</svg>
