<svg viewBox="0 0 531 418" version="1.1" xmlns="http://www.w3.org/2000/svg" xmlns:xlink="http://www.w3.org/1999/xlink" xml:space="preserve" xmlns:serif="http://www.serif.com/" style="fill-rule:evenodd;clip-rule:evenodd;stroke-linejoin:round;stroke-miterlimit:2;">
    <path d="M181.481,230.15C220.581,158.15 272.081,103.65 318.881,78.35L271.881,4.35C268.181,-1.45 262.281,-1.45 258.781,4.35L1.581,409.75C-2.119,415.55 0.981,417.25 7.681,417.25L130.381,417.25C128.481,364.85 144.181,298.45 181.481,230.15" style="fill:rgb(62,164,72);fill-rule:nonzero;"/>
    <path d="M334.881,124.45C309.681,110.65 255.281,161.75 213.381,238.65C171.481,315.55 158.081,388.95 183.281,402.85C201.581,412.75 232.381,386.65 265.281,343.75L265.281,245.55C265.281,235.35 271.681,229.75 276.481,238.65L303.881,290.45C304.281,289.85 304.481,289.35 304.881,288.75C346.781,211.85 360.181,138.35 334.881,124.45" style="fill:rgb(62,164,72);fill-rule:nonzero;"/>
    <path d="M529.281,409.75L425.481,246.05C415.62,279.277 402.244,311.359 385.581,341.75C376.644,358.08 366.865,373.935 356.281,389.25L375.881,417.25L523.181,417.25C529.881,417.25 532.981,415.55 529.281,409.75" style="fill:rgb(62,164,72);fill-rule:nonzero;"/>
</svg>
