<svg xmlns="http://www.w3.org/2000/svg" viewBox="0 0 142.7 120.2"><path d="M0 0c1.6 1.8 3.1 3.7 4.8 5.5C9.3 10.4 14.1 15 18.5 20c3.6 3.4 6.6 7.3 10.1 10.8 2 2 4 4.1 5.9 6.1 5.6 6.3 11.6 12.2 17.4 18.4 1.2 1.3 2.4 2.5 3.6 3.7-.2.9-.1 2-.8 2.7-3.1 3.3-6.3 6.4-9.2 9.8-10 10.4-19.8 20.9-29.7 31.5-3.7 3.6-7 7.6-10.7 11.2-1.9 1.8-3.5 3.7-4.8 6 10 0 20 .1 30 0 7-7.8 14.3-15.4 21.6-22.9 5.9-6.8 12.4-13 18.5-19.7.2-.3.7-1 1-1.3 1.7 1.9 3.4 3.7 5.2 5.5.7.7 1.3 1.4 2 2 .8 1 1.7 1.9 2.5 2.9.3.2.9.6 1.2.7l-.2.8h1.1l-.1.7c.8.7 1.5 1.4 2.3 2.1 4 4.7 8.6 8.7 12.6 13.5.3.2.8.7 1.1.9.3.4 1 1.2 1.3 1.6l.9.9c.8.9 1.6 1.9 2.4 2.8 2.6 2.7 5.4 5.3 7.7 8.3 1.2 1 2.6 1.4 4.2 1.2 9.1-.1 18.1.1 27.1-.1-1-1.4-2-2.9-3-4.3-2.8-2.6-5.4-5.4-8-8.1-1.6-1.7-3.3-3.4-4.9-5.1-1.6-2.1-3.4-4-5.4-5.8-1.5-1.8-3.1-3.5-4.9-5.2-2.3-2.7-4.9-5.1-7.3-7.7-.9-1-1.9-2.1-2.8-3.1-1-1.1-1.9-2.1-2.9-3.1-2-2-4-4.1-6-6.2-.6-.6-1.2-1.3-1.8-1.9-.8-.9-1.6-1.8-2.5-2.6l-1-1c-1.9-2.1-3.7-4.1-5.6-6.2 4.6-4.8 9.5-9.4 13.8-14.6h.2c.8-1 1.6-1.9 2.4-2.8.3-.2 1-.5 1.3-.7.7-1 1.4-1.9 2.2-2.9 1.7-1.6 3.3-3.3 4.9-5 1.8-1.6 3.4-3.4 4.9-5.3h.3c1.1-1.2 2.3-2.3 3.4-3.5l-.2-.4c4.9-5 9.8-10 14.5-15.2h.2c1.4-2 3.2-3.8 5-5.4 1-1.2 2-2.5 2.9-3.7-10.2-.1-20.3-.1-30.5-.1l.1.5c-.8.8-1.5 1.6-2.3 2.5l-.3-.1c-4.8 6.1-10.7 11.1-15.7 17l-.2.2c-.3.3-.9.8-1.2 1.1-4.2 5.1-9.1 9.6-13.6 14.6-.2.3-.5.8-.7 1.1-.4.3-1.2 1-1.6 1.3-1.6 1.9-3.3 3.6-5 5.5-8.9-9.6-17.9-19.3-27.1-28.7C39.8 10 35.1 5 30.2.2 20.2-.2 10.1.2 0 0" fill="#fbfdfe"/><path d="M0 0c10.1.1 20.2-.3 30.2.2C35.1 5 39.8 10 44.3 15.1c9.2 9.5 18.1 19.1 27.1 28.7 4.5 5.8 9.9 10.8 14.9 16.1-5 5.4-10.4 10.4-14.9 16.2-.2.3-.7 1-1 1.3-6.1 6.7-12.5 12.9-18.5 19.7-7.3 7.5-14.5 15.2-21.6 22.9-10 .1-20 .1-30 0 1.3-2.2 3-4.2 4.8-6 3.7-3.6 6.9-7.7 10.7-11.2C25.6 92.3 56 60.5 56.2 59.6 55 58.4 30.6 32.8 28.6 30.8 25.1 27.3 22 23.4 18.5 20c-4.3-5-9.2-9.5-13.7-14.4C3.1 3.8 1.6 1.9 0 0z" fill="#2fb900"/><path d="M112.2.1c10.2 0 20.3-.1 30.5.1-.9 1.2-1.9 2.5-2.9 3.7-1.8 1.7-3.6 3.4-5 5.4h-.2c-4.7 5.2-33 35-33.8 35.9 0 0-9.3 9.7-13.9 14.6 1.8 2.1 10.2 11.2 10.8 11.8 2 2 10.8 11.3 11.7 12.3 2.3 2.7 4.9 5.1 7.3 7.7 1.7 1.6 8.6 8.9 10.2 10.9 1.6 1.7 14.9 16 15.9 17.5-9.1.1-18.1 0-27.1.1-1.5.2-3-.2-4.2-1.2-2.3-3-27.6-29.5-28.3-30.2 0 0-5.8-6.5-6.5-7.2-1.8-1.8-3.6-3.6-5.2-5.5 4.5-5.8 9.9-10.8 14.9-16.2-5-5.3-10.4-10.4-14.9-16.1 1.7-1.8 38.4-40.6 38.4-40.6.7-.8 1.5-1.6 2.3-2.5V.1z"/></svg>