<svg xmlns="http://www.w3.org/2000/svg" viewBox="0 0 63.93 89.88"><defs><style>.cls-1{fill:#49cc68;}</style></defs><g id="Layer_2" data-name="Layer 2"><g id="Logo"><path class="cls-1" d="M40.52,83.63a29.43,29.43,0,0,1-8.33,1.25H31.8a29.1,29.1,0,0,1-8.38-1.27A2.5,2.5,0,1,0,22,88.41a34.61,34.61,0,0,0,9.8,1.47h.39a34.24,34.24,0,0,0,9.74-1.46,2.5,2.5,0,0,0-1.41-4.79ZM62.35,22.1h0V22a.17.17,0,0,1,0-.05,31.94,31.94,0,0,0-60.73.1.13.13,0,0,1,0,.06c-2.82,8.29-1.8,19.39,2.75,29.73,6.22,14.14,17.51,24,27.5,24h.29c10,0,21.28-9.83,27.5-24C64.17,41.52,65.19,30.4,62.35,22.1ZM47.67,10c-5.05-.21-10.56,2-15.7,6.26C26.82,12,21.31,9.81,16.26,10a27.08,27.08,0,0,1,31.41,0ZM36.09,69.93a9.71,9.71,0,0,1-8.25,0C19.31,66,17.58,50.2,24.07,35.46A44.88,44.88,0,0,1,32,23.18a44.75,44.75,0,0,1,7.9,12.28C46.35,50.2,44.62,66,36.09,69.93ZM8.89,49.86c-4.07-9.26-5-19-2.56-26.19,1.3-3.77,3.49-6.45,6.33-7.76,4.43-2.05,10.16-.6,15.67,3.85a49.93,49.93,0,0,0-8.84,13.68c-4.37,10-5.35,20.19-3.33,28.12A48,48,0,0,1,8.89,49.86Zm46.15,0a48.29,48.29,0,0,1-7.27,11.71c2-7.94,1-18.18-3.33-28.13a50.14,50.14,0,0,0-8.83-13.68c5.5-4.45,11.23-5.9,15.66-3.85,2.84,1.31,5,4,6.33,7.76C60.07,30.81,59.11,40.6,55,49.86Z"/></g></g></svg>