<?xml version="1.0" encoding="UTF-8"?>
<svg width="512px" height="512px" viewBox="0 0 512 512" version="1.1" xmlns="http://www.w3.org/2000/svg" xmlns:xlink="http://www.w3.org/1999/xlink">
    <title>Artboard</title>
    <defs>
        <linearGradient x1="100%" y1="56.5026221%" x2="0%" y2="56.5026221%" id="linearGradient-1">
            <stop stop-color="#00B1F3" offset="0%"></stop>
            <stop stop-color="#40D6AC" offset="27.384575%"></stop>
            <stop stop-color="#9FD045" offset="39.1009025%"></stop>
            <stop stop-color="#FFC500" offset="61.0713061%"></stop>
            <stop stop-color="#FFA200" offset="74.9240902%"></stop>
            <stop stop-color="#FE3503" offset="100%"></stop>
        </linearGradient>
    </defs>
    <g id="Artboard" stroke="none" stroke-width="1" fill="none" fill-rule="evenodd">
        <rect id="Rectangle" fill="#FFFFFF" x="0" y="0" width="512" height="512" rx="60"></rect>
        <path d="M166,257.092 L166,312.058903 C166,317.348003 162.314924,321 157.182139,321 C152.27027,321 148.627917,317.477267 148.499399,312.34067 L148.495887,312.058903 L148.495,257.092 L166,257.092 Z M71.504,257.092 L71.5041128,312.058903 C71.5041128,317.348003 67.8190364,321 62.6862515,321 C57.7743831,321 54.1320295,317.477267 54.0035118,312.34067 L54,312.058903 L54,257.092 L71.504,257.092 Z M225.575,256.83 L225.575,269.841713 C225.575,292.908529 238.267295,305.798366 260.831087,306.053856 L261.517857,306.057728 C285.196536,306.057728 301.233935,290.295822 301.552315,266.021245 L301.557143,265.283054 L301.557,256.83 L319,256.83 L319,312.515829 C319,317.327747 315.828571,321 310.807143,321 C305.877013,321 302.602841,317.460069 302.48541,312.777151 L302.482143,312.515829 L302.482143,294.407821 L302.085714,294.407821 C294.817857,310.616387 278.3,321 256.496429,321 C226.930786,321 208.373766,302.755904 208.005582,273.639816 L208,272.75419 L208,256.83 L225.575,256.83 Z M416.495126,185 C451.669118,185 476,210.325885 476,246.921788 C476,253.147734 472.292002,256.924809 466.007583,257.048982 L465.685822,257.052142 L372.990452,257.052142 C372.990452,287.949721 390.312982,306.310987 417.685224,306.310987 C436.859016,306.310987 449.817856,298.586592 458.809703,282.124767 C460.528733,279.592179 462.512229,278.452514 465.421356,278.452514 C470.049513,278.452514 473.223106,281.238361 473.223106,285.79702 C473.223106,287.189944 472.694174,289.089385 471.900775,290.988827 C464.099025,309.729981 444.131834,321 418.478622,321 C379.948163,321 356.236332,297.188555 355.053217,256.831829 L341.225352,256.830986 C337.787185,256.830986 335,254.043801 335,250.605634 C335,247.167467 337.787185,244.380282 341.225352,244.380282 L355.422448,244.37909 C358.775119,207.923929 382.158658,185 416.495126,185 Z M62.6862515,135 C67.9858989,135 71.3812741,138.40126 71.5008476,143.533518 L71.5041128,143.815166 L71.5041128,212.069736 L71.8989424,212.069736 C78.8742656,195.950575 95.1938895,185.750169 117.041128,185.750169 C146.748108,185.750169 165.619858,204.510756 165.994322,233.356393 L166,234.233582 L166,244.692 L148.495,244.692 L148.495887,237.004062 C148.495887,214.563169 135.467813,200.885444 112.731888,200.614133 L112.039953,200.61002 C87.6750176,200.61002 71.8234773,216.778684 71.508883,241.051428 L71.5041128,241.789438 L71.504,244.692 L54,244.692 L54,143.815166 C54,138.620515 57.4276901,135.126493 62.4128029,135.003363 L62.6862515,135 Z M216.853571,185 C221.785332,185 225.442436,188.542272 225.571474,193.707359 L225.575,193.990689 L225.575,244.38 L208,244.38 L208,193.990689 C208,188.767225 211.569037,185.131677 216.578891,185.003501 L216.853571,185 Z M310.278571,185 C315.340115,185 318.872071,188.542272 318.996598,193.707359 L319,193.990689 L319,244.38 L301.557,244.38 L301.557143,193.990689 C301.557143,188.767225 304.998714,185.131677 310.004015,185.003501 L310.278571,185 Z M416.295813,200.323944 C391.975984,200.323944 374.905034,217.446895 373.156399,243.585453 L373.108108,244.380282 L457.898649,244.380282 C457.502431,217.921159 440.729225,200.323944 416.295813,200.323944 Z" id="Combined-Shape" fill="url(#linearGradient-1)" fill-rule="nonzero"></path>
        <text id="PHILIPS" font-family="Arial-Black, Arial Black" font-size="58" font-weight="700" letter-spacing="0.372857143" fill="#0181E2">
            <tspan x="125.795098" y="440">PHILIPS</tspan>
        </text>
    </g>
</svg>
