<svg viewBox="0 0 359 307" fill="none" xmlns="http://www.w3.org/2000/svg">
<path fill-rule="evenodd" clip-rule="evenodd" d="M266.386 263.173C317.314 263.173 358.727 221.761 358.727 170.835C358.727 145.48 347.938 120.815 329.511 103.464C329.114 54.3876 289.083 14.6035 239.912 14.6035C225.632 14.6035 211.728 17.9676 199.153 24.4059C182.606 8.77822 160.742 0 137.679 0C89.5692 0 50.211 38.0863 48.164 85.6984C18.9994 101.995 0.613281 132.912 0.613281 166.728C0.613281 217.906 42.2305 259.523 93.4092 259.523C95.833 259.523 98.2585 259.428 100.675 259.24C117.772 288.001 149.033 306.072 182.862 306.072C215.218 306.072 245.053 289.815 262.652 263.097C263.898 263.148 265.144 263.173 266.386 263.173ZM182.862 281.705C155.454 281.705 130.236 265.715 118.486 240.9L114.511 232.504L105.362 234.115C101.439 234.806 97.4193 235.155 93.4092 235.155C55.6887 235.155 24.9813 204.448 24.9813 166.728C24.9813 139.805 40.7937 115.363 65.3524 104.301L72.907 100.899L72.5191 92.6223C72.472 91.6171 72.4483 90.6012 72.4483 89.597C72.4483 53.64 101.721 24.3672 137.679 24.3672C157.033 24.3672 175.169 32.8204 187.63 47.6418L194.649 55.99L203.72 49.9352C214.483 42.7517 226.96 38.9706 239.912 38.9706C275.871 38.9706 305.146 68.244 305.146 104.201C305.146 105.498 305.106 106.808 305.027 108.096L304.647 114.304L309.453 118.253C325.037 131.06 334.359 150.741 334.359 170.835C334.359 208.303 303.856 238.806 266.386 238.806C263.492 238.806 260.559 238.618 257.665 238.247L249.399 237.187L245.414 244.506C232.903 267.489 209.003 281.705 182.862 281.705ZM229.15 184.222L229.39 184.12C232.556 182.757 233.689 181.56 233.689 178.259V174.111C233.689 170.463 231.587 168.115 228.161 168.115H227.969L227.28 168.267C219.615 170.963 212.077 172.328 204.878 172.328C197.708 172.328 190.635 170.973 183.854 168.299L183.649 168.219L182.882 168.115C179.457 168.115 177.355 170.463 177.355 174.111V178.259C177.355 181.365 178.526 182.781 181.258 183.957C181.407 184.02 181.482 184.052 181.556 184.083C181.631 184.115 181.706 184.146 181.855 184.208C189.269 187.378 197.027 188.991 204.89 188.991C212.728 188.991 220.875 187.388 229.15 184.222ZM123.488 150.127C123.488 146.783 125.223 144.941 127.549 144.453L149.948 138.573L127.496 132.68C125.168 132.071 123.488 130.233 123.488 127.018V119.957C123.488 116.872 125.341 115.543 127.46 115.543C128.145 115.543 128.856 115.692 129.565 115.959L169.542 128.892C172.578 129.904 174.249 132.342 174.249 135.684V141.461C174.249 144.802 172.58 147.242 169.539 148.255L129.479 161.214C128.802 161.414 128.198 161.512 127.611 161.512C125.101 161.512 123.488 159.708 123.488 157.081V150.127Z" fill="black"/>
</svg>
