<svg viewBox="0 0 320 320" xmlns="http://www.w3.org/2000/svg" xmlns:xlink="http://www.w3.org/1999/xlink"><defs><linearGradient id="a" x1="31.004%" x2="71.484%" y1="4.141%" y2="94.797%"><stop offset="0" stop-color="#2e3973"/><stop offset="1" stop-color="#141729"/></linearGradient><path id="b" d="m210.657132 224.640113c-.725509 0-1.453135-.01482-2.181314-.04435-10.281068 15.608199-27.709564 25.105433-46.611144 25.105433v-14.235152c15.270865 0 29.232314-8.30496 36.541432-21.731083l2.327793-4.275925 4.828931.619339c1.690273.216787 3.40373.326586 5.094302.326586 21.888902 0 39.708201-17.819471 39.708201-39.708201 0-11.738615-5.445838-23.23668-14.549764-30.717943l-2.80743-2.30704.222059-3.626953c.046057-.752265.069353-1.51771.069353-2.275627 0-21.0056-17.101482-38.1069106-38.107567-38.1069106-7.566477 0-14.855107 2.2088689-21.142516 6.4054546l-5.299417 3.537141-4.100045-4.8769676c-7.279214-8.6585612-17.874214-13.596879-29.180059-13.596879-21.005771 0-38.106254 17.1009966-38.106254 38.1069106 0 .586626.0138786 1.180075.041398 1.767338l.2265655 4.834908-4.4131693 1.987863c-14.3465866 6.46226-23.5838199 20.740919-23.5838199 36.469066 0 22.036156 17.9385182 39.975192 39.9738797 39.975192 2.342607 0 4.690722-.204447 6.982258-.607886l5.344757-.940979 2.322327 4.904964c6.863738 14.496839 21.595689 23.837632 37.606785 23.837632v14.235152c-19.762011 0-38.023801-10.556639-48.011658-27.358769-1.411629.109859-2.828578.165037-4.244469.165037-29.8973106 0-54.2090313-24.312422-54.2090313-54.210343 0-19.754614 10.7406961-37.816573 27.7778954-47.336717 1.1958606-27.8147305 24.1878739-50.0645202 52.2925359-50.0645202 13.472562 0 26.245121 5.1281859 35.911265 14.2577913 7.346177-3.7612307 15.468392-5.7265403 23.810772-5.7265403 28.724328 0 52.109069 23.2416392 52.340978 51.9117242 10.764591 10.136609 17.067522 24.545695 17.067522 39.357901 0 29.750556-24.192563 53.943353-53.943352 53.943353zm-21.752781-46.122328c-4.834103 1.84918-9.593662 2.785705-14.171888 2.785705-4.593833 0-9.125636-.941843-13.456585-2.793979-.174683-.072699-.174683-.072699-.349086-.146914-1.596044-.686893-2.279558-1.513971-2.279558-3.328642v-2.423256c0-2.130976 1.227717-3.502536 3.228329-3.502536l.448441.06076.119381.046545c3.961414 1.56232 8.093038 2.353999 12.281863 2.353999 4.205685 0 8.609134-.797485 13.08674-2.372902l.402542-.088402h.112175c2.001136 0 3.228985 1.371427 3.228985 3.502536v2.423256c0 1.928708-.661885 2.628035-2.511364 3.423829zm-59.350296-23.23363 13.084908-3.434893-13.11581-3.44269c-1.360066-.356038-2.341114-1.429362-2.341114-3.307566v-4.124914c0-1.802713 1.08232-2.578891 2.320428-2.578891.400194 0 .815136.086938 1.229639.243273l23.353145 7.554965c1.774025.591341 2.750183 2.015896 2.750183 3.967902v3.375108c0 1.951454-.97503 3.376841-2.751779 3.969053l-23.40228 7.570418c-.395444.116781-.747827.174189-1.091004.174189-1.466168 0-2.408332-1.054157-2.408332-2.588731v-4.062594c0-1.95312 1.013147-3.029424 2.372016-3.314629z"/><filter id="c" height="116.8%" width="112%" x="-6%" y="-4.2%"><feOffset dy="10" in="SourceAlpha" result="shadowOffsetOuter1"/><feGaussianBlur in="shadowOffsetOuter1" result="shadowBlurOuter1" stdDeviation="2.5"/><feColorMatrix in="shadowBlurOuter1" values="0 0 0 0 0   0 0 0 0 0   0 0 0 0 0  0 0 0 0.05 0"/></filter><filter id="d" height="111.7%" width="107.6%" x="-3.8%" y="-1.7%"><feGaussianBlur in="SourceAlpha" result="shadowBlurInner1" stdDeviation="1.5"/><feOffset dy="-3" in="shadowBlurInner1" result="shadowOffsetInner1"/><feComposite in="shadowOffsetInner1" in2="SourceAlpha" k2="-1" k3="1" operator="arithmetic" result="shadowInnerInner1"/><feColorMatrix in="shadowInnerInner1" result="shadowMatrixInner1" values="0 0 0 0 0   0 0 0 0 0   0 0 0 0 0  0 0 0 0.05 0"/><feMorphology in="SourceAlpha" radius="1" result="shadowSpreadInner2"/><feOffset in="shadowSpreadInner2" result="shadowOffsetInner2"/><feComposite in="shadowOffsetInner2" in2="SourceAlpha" k2="-1" k3="1" operator="arithmetic" result="shadowInnerInner2"/><feColorMatrix in="shadowInnerInner2" result="shadowMatrixInner2" values="0 0 0 0 1   0 0 0 0 1   0 0 0 0 1  0 0 0 0.2 0"/><feMerge><feMergeNode in="shadowMatrixInner1"/><feMergeNode in="shadowMatrixInner2"/></feMerge></filter></defs><g fill="none" fill-rule="evenodd"><path d="m0 0h320v320h-320z" fill="url(#a)"/><g fill-rule="nonzero"><use fill="#000" filter="url(#c)" xlink:href="#b"/><use fill="#fff" xlink:href="#b"/><use fill="#000" filter="url(#d)" xlink:href="#b"/></g></g></svg>