<svg viewBox="0 0 676 400" xmlns="http://www.w3.org/2000/svg" style="fill-rule:evenodd;clip-rule:evenodd;stroke-linejoin:round;stroke-miterlimit:2;">
    <path d="M663.501,39.126C687.507,77.975 675.949,129.399 637.273,153.652C611.516,169.833 580.514,169.612 555.485,156.741L555.47,156.761L555.066,156.583L554.651,156.404C552.363,155.439 549.974,154.706 545.801,154.07C541.258,153.377 536.129,153.866 530.412,155.537L530.128,155.621C527.345,156.62 524.588,157.964 521.952,159.668C505.448,170.117 500.273,192.01 510.307,208.571L548.625,270.601C572.631,309.45 561.072,360.874 522.397,385.127C483.943,409.38 433.042,397.702 409.037,358.629L371.472,297.773C361.025,280.931 339.02,275.766 322.572,286.32C312.009,292.99 306.022,304.501 305.903,316.279L305.901,316.636C305.901,344.482 292.342,371.653 267.225,387.373C228.772,411.625 177.871,399.948 153.865,360.874L12.499,127.272C-11.507,88.423 0.051,36.998 38.727,12.746C77.181,-11.507 128.082,0.17 152.087,39.244L189.874,105.324C200.216,121.998 221.887,127.227 238.279,117.089L238.774,116.777C249.221,110.265 255,96.037 255.445,84.584C255,56.289 268.781,28.668 294.121,12.725C332.574,-11.528 383.475,0.149 407.481,39.223L445.49,103.752C455.937,120.594 477.942,125.759 494.39,115.205C498.267,112.746 501.866,108.504 505.188,102.481C503.895,104.934 504.012,104.688 505.54,101.742C507.832,97.323 509.307,93.827 509.966,91.254C510.603,88.764 511.07,86.358 511.368,84.036C514.376,52.225 525.117,28.561 550.141,12.627C588.595,-11.625 639.496,0.052 663.501,39.126Z" style="fill:rgb(103,234,221);"/>
</svg>