<svg viewBox="0 0 210 48" xmlns="http://www.w3.org/2000/svg">
  <g fill="none" fill-rule="evenodd">
    <path d="M16.205 23.274c0-4.465-3.62-8.084-8.084-8.084-4.414.07-7.957 3.668-7.957 8.084 0 4.416 3.543 8.015 7.958 8.084 4.466 0 8.085-3.62 8.085-8.084m193.715 0c.032-2.91-1.502-5.612-4.017-7.076-2.515-1.464-5.622-1.464-8.137 0-2.514 1.465-4.048 4.168-4.015 7.078.002 4.465 3.622 8.085 8.087 8.084 4.465 0 8.085-3.62 8.084-8.086" fill="#2CB7DF"></path>
    <path d="M124.113 30.53c-3.93 0-7.114-2.895-7.114-7.256 0-4.36 3.184-7.255 7.113-7.255 2.53 0 4.717 1.183 6.03 3.258l6.577-4.724c-2.764-3.998-7.38-6.62-12.607-6.62-8.462 0-15.323 6.862-15.323 15.327 0 8.464 6.86 15.325 15.323 15.325 5.022 0 9.51-2.235 12.937-6.942l-6.643-4.6c-1.397 2.066-3.544 3.487-6.294 3.487zm-34.4 0c-3.93 0-7.115-2.895-7.115-7.256 0-4.36 3.185-7.255 7.115-7.255s7.115 2.915 7.115 7.254c0 4.34-3.186 7.256-7.115 7.256zm7.272-19.212c-2.04-1.936-4.763-3.383-8.583-3.383-7.274 0-14.014 6.13-14.014 15.326 0 9.195 6.676 15.325 14.014 15.325 3.538 0 6.237-1.376 8.278-3.384v2.52h8.21V8.816h-7.905v2.503zm-34.466.864V8.815h-7.914V37.72h8.204V24.01c0-5.758 3.198-7.32 6.747-7.32.87 0 1.802.057 2.79.29V8.814c-.58-.175-1.454-.29-2.326-.29-2.326 0-5.672.762-7.5 3.657zm85.61-11.8h-8.21v28.192c0 5.757 3.515 9.373 10.472 9.373 2.79 0 5.397-.408 7.13-.87V29.73c-1.608.462-3.4.81-5.622.81-2.292 0-3.77-.64-3.77-3.023V16.02h9.53V8.773h-9.53V.383zm26.895 30.148c-3.93 0-7.116-2.895-7.116-7.256 0-4.36 3.185-7.255 7.115-7.255 3.928 0 7.114 2.915 7.114 7.254 0 4.34-3.187 7.256-7.115 7.256zm0-22.595c-8.464 0-15.324 6.86-15.324 15.326 0 8.464 6.86 15.325 15.325 15.325 8.463 0 15.324-6.86 15.324-15.324 0-8.464-6.862-15.325-15.325-15.325zM35.38 30.53c-3.93 0-7.115-2.916-7.115-7.256s3.185-7.255 7.115-7.255 7.114 2.893 7.114 7.254c0 4.36-3.185 7.256-7.114 7.256zm1.31-22.595c-3.82 0-6.542 1.447-8.583 3.383V8.815h-7.904v39.183h8.21V35.2c2.04 2.01 4.74 3.385 8.278 3.385 7.338 0 14.016-6.13 14.016-15.324 0-9.195-6.742-15.325-14.015-15.325z" fill="#263077">
    </path>
  </g>
</svg>
