<svg xmlns="http://www.w3.org/2000/svg" viewBox="164.26 163.79 319.48 350.01">
  <path d="M456.03 243.66h-52.16V191.5c0-15.3-12.41-27.71-27.71-27.71H191.97c-15.3 0-27.71 12.4-27.71 27.71v264.06c0 15.3 12.41 27.71 27.71 27.71h238.52l25.82 25.82c3.01 3.01 7.1 4.71 11.36 4.71 8.87 0 16.07-7.19 16.07-16.07V271.37c0-15.3-12.4-27.71-27.71-27.71m1.08 212.99H190.88V190.42h186.36v53.25H271.83c-15.3 0-27.71 12.41-27.71 27.71v104.33c0 15.3 12.4 27.71 27.71 27.71h104.32c15.3 0 27.71-12.41 27.71-27.71V270.3h53.25v186.36Zm-79.87-186.36v106.49H270.75V270.29z"/>
</svg>
