<svg viewBox="2.760598659515381 -0.0000019073486328125 36.84890365600586 32.099998474121094" xmlns="http://www.w3.org/2000/svg" role="img" aria-labelledby="basecamp-logo-title">
  <title id="basecamp-logo-title">Basecamp logo</title>
  <path class="icon" d="m37.9 25.7c-.9 0-1.6-.7-1.7-1.6-.6-8.6-5.3-20.7-14-20.7-7.2 0-12.6 5-16.1 14.9-.3.9-1.3 1.4-2.2 1-.9-.3-1.4-1.3-1-2.1 4-11.4 10.5-17.2 19.3-17.2 11.5 0 16.8 14.6 17.4 23.9.1.9-.6 1.8-1.6 1.8z" fill="#1d2d35"></path>
  <path class="icon" d="m21.8 32c-5.8 0-11.4-2.5-15.3-6.9-.5-.4-.6-1.1-.4-1.7 1.1-2.9 4-9.6 7.7-9.7 1.9 0 3.3 1.5 4.4 2.7.3.4.8.9 1.2 1.2.9-.9 2.6-3.7 3.9-6.6.4-.9 1.4-1.2 2.3-.8s1.2 1.4.8 2.3c-4 8.7-6.1 8.7-6.9 8.7-1.6 0-2.7-1.2-3.8-2.4-.5-.5-1.5-1.6-1.9-1.6-.9.1-2.8 3.2-4.1 6.5 3.3 3.3 7.8 5.1 12.4 5 4 0 11.1-.7 14-5-.8-8.6-5.5-20.2-14-20.2-.9 0-1.7-.8-1.7-1.7s.8-1.8 1.8-1.8c11.5 0 16.8 14.6 17.4 23.9 0 .3-.1.7-.2 1-2.7 4.6-8.8 7.2-17.2 7.2-.1-.1-.3-.1-.4-.1z" fill="#1d2d35"></path>
</svg>