<?xml version="1.0" encoding="utf-8"?>
<!-- Generator: Adobe Illustrator 19.1.0, SVG Export Plug-In . SVG Version: 6.00 Build 0)  -->
<svg version="1.1" id="Layer_1" xmlns="http://www.w3.org/2000/svg" xmlns:xlink="http://www.w3.org/1999/xlink" x="0px" y="0px"
	 viewBox="113 -113.3 406.3 406.3" style="enable-background:new 113 -113.3 406.3 406.3;" xml:space="preserve">
<path d="M316.1-79.5c-109.5,0-195.2,139.2-203.2,256.8c34.3,59.6,117,81.9,203.2,81.9s168.8-22.4,203.2-81.9
	C511.1,59.7,425.3-79.5,316.1-79.5z M317.2,231.5L317.2,231.5c-161.6,0-177-68.5-177-68.5s37.4-112,75.5-112.2
	c27.9-0.2,39.8,39.8,62.6,39.8s72.3-87.8,90.1-87.8s48.4,32.8,72.3,63.7c34.5,44.6,51.2,97.7,51.2,97.7S478.9,231.5,317.2,231.5z"/>
</svg>
