<svg clip-rule="evenodd" fill-rule="evenodd" stroke-linecap="round" stroke-linejoin="round" version="1.1" viewBox="0 0 500 500" xml:space="preserve" xmlns="http://www.w3.org/2000/svg">
    <g transform="scale(.97656)">
        <path d="m1 0h511v512h-512l1-512z" fill="#202867" fill-rule="nonzero" stroke="#202867" stroke-width="1px"/>
    </g>
    <g transform="matrix(1.9846 0 0 1.9846 -1465.6 -17.822)">
        <path d="m847.3 152.1c14.8 14.9 15.3 38.1 15.3 54.2h3.7c0-16.1 0.5-39.3 15.3-54.2 14.9-14.8 38.1-15.3 54.2-15.3v-3.7c-16.1 0-39.3-0.5-54.2-15.3-14.8-14.9-15.3-38.1-15.3-54.2h-3.7c0 16.1-0.5 39.3-15.3 54.2-14.9 14.8-38.1 15.3-54.2 15.3v3.7c16.1 0.1 39.4 0.5 54.2 15.3z" fill="#feca27" fill-rule="nonzero"/>
    </g>
</svg>
