<svg xmlns="http://www.w3.org/2000/svg" version="1.1" id="Layer_1" x="0" y="0" xml:space="preserve" viewBox="186.9 123.2 588.8 588.8"><style>.st0{fill:#0046b4}</style><path class="st0" d="M481.3 712c-78.7 0-152.6-30.6-208.2-86.2-55.6-55.6-86.2-129.5-86.2-208.2 0-78.7 30.6-152.6 86.2-208.2 55.6-55.6 129.5-86.2 208.2-86.2s152.6 30.6 208.2 86.2c55.6 55.6 86.2 129.5 86.2 208.2 0 78.7-30.6 152.6-86.2 208.2-55.6 55.5-129.6 86.2-208.2 86.2zm0-569.5c-73.5 0-142.6 28.6-194.5 80.5-51.9 51.9-80.5 121-80.5 194.5s28.6 142.6 80.5 194.5c51.9 51.9 121 80.5 194.5 80.5S623.8 664 675.8 612s80.5-121 80.5-194.5-28.6-142.6-80.5-194.5-121-80.5-194.5-80.5z"/><path class="st0" d="M427.1 326.1c-84.6 10-145 86.7-134.9 171.3 0 0 15.3 158.4 195.1 157.6 132.9-.7 236.3-105.9 236.3-236.3 0-76.6-37.3-145.3-93.7-188.4-102.1-83-252.6-67.7-335.6 34.6-57.4 70.7-67.7 164.4-34.7 243l-1.6-6.3c-2.7-12.4-4.1-25.4-4.1-38.7 0-100 80.7-181 180.1-181 90.1 0 165.1 59.7 177.4 149 12.9 93.7-45.1 156-110.1 161.1-65.3 5.1-123.9-38.7-131.7-103.7-7.7-65 38.7-123.9 103.7-131.7 37.9-4.4 73.7 9.4 98.6 34.7-28.1-40.4-75-66.1-126.3-66.1-6.2-.1-12.3.2-18.5.9"/><path class="st0" d="M560.4 529.8c33-40.6 26.9-100.1-13.7-133.1s-100.1-26.9-133.1 13.7c-22.9 28-26.9 65.3-13.7 96.4-5-21.1-.4-44.3 14.4-62.4 25.3-31.1 71.1-35.9 102.3-10.6 31.1 25.3 35.9 71.1 10.6 102.3-14.7 18.1-36.4 27.3-58.1 26.9 33 6.6 68.6-5.2 91.3-33.2"/><path class="st0" d="M411.4 488c-1.3 30.4 22.3 56.1 52.7 57.4 30.4 1.3 56.1-22.3 57.6-52.7.9-21-10.1-39.9-27.1-49.9 9.7 8.1 15.6 20.6 15 34.1-1 23.4-20.7 41.6-44.1 40.6s-41.6-20.7-40.6-44.1c.6-13.7 7.6-25.4 17.9-32.9-17.9 8.8-30.5 26.5-31.4 47.5"/></svg>