<svg xmlns:dc="http://purl.org/dc/elements/1.1/" xmlns:cc="http://creativecommons.org/ns#" xmlns:rdf="http://www.w3.org/1999/02/22-rdf-syntax-ns#" xmlns:svg="http://www.w3.org/2000/svg" xmlns="http://www.w3.org/2000/svg" id="svg37" height="136mm" width="121mm" version="1.0" viewBox="5.43 5.43 446.02 501.72">
  <metadata id="metadata41">
    <rdf:rdf>
      <cc:work rdf:about="">
        <dc:format>image/svg+xml</dc:format>
        <dc:type rdf:resource="http://purl.org/dc/dcmitype/StillImage"></dc:type>
      </cc:work>
    </rdf:rdf>
  </metadata>
  <defs id="defs3">
    <pattern y="0" x="0" height="6" width="6" patternUnits="userSpaceOnUse" id="EMFhbasepattern"></pattern>
  </defs>
  <path id="path5" d="  M 416.87691,185.43863   L 416.87691,185.43863   L 396.07707,185.43863   L 396.07707,166.87876   C 396.07707,74.719447 320.87762,0 228.15831,0   C 135.439,0 60.239554,74.719447 60.239554,166.87876   L 60.239554,185.43863   L 39.439708,185.43863   C 17.679869,185.43863 0,203.0385 0,224.71834   L 0,377.9172   C 0.079999407,388.15712 0.63999526,395.51707 4.6399656,400.95703   C 8.7999348,406.39699 15.759883,408.31698 26.159806,408.23698   L 59.519559,408.23698   L 64.639521,488.95638   C 64.639521,489.11638 64.639521,489.43637 64.639521,489.83637   C 64.639521,491.99636 64.879519,496.87632 67.599499,501.59628   C 70.23948,506.39625 75.839438,510.63622 84.959371,510.55622   L 169.75874,510.55622   L 213.83842,463.83656   L 246.79817,463.83656   L 289.43786,511.99621   L 290.63785,511.99621   L 323.11761,511.99621   L 365.51729,511.99621   L 365.51729,511.99621   C 372.07724,511.99621 378.0772,512.15621 383.27716,508.79623   C 388.47712,505.43626 391.5971,499.0363 393.11709,487.83639   C 395.27707,471.59651 395.83707,427.03684 396.79706,408.31698   L 430.15681,408.31698   C 440.47674,408.23698 447.11669,407.27698 451.51666,402.63702   C 455.67662,397.83705 456.23662,391.0371 456.31662,380.87718   L 456.31662,224.71834   C 456.31662,203.0385 438.63675,185.43863 416.87691,185.43863   z " style="fill:#349334;fill-rule:nonzero;fill-opacity:1;stroke:none;"></path>
  <path id="path7" d="  M 451.43666,381.19718   C 451.51666,391.1971 450.47666,396.79706 447.99668,399.43704   C 445.6767,402.07702 440.63674,403.43701 430.55681,403.35701   L 392.1571,403.35701   L 392.0771,405.83699   C 391.1171,423.59686 390.47711,470.95651 388.31712,487.51639   C 386.79713,498.23631 384.07715,502.71628 380.79718,504.79626   C 377.5972,507.03624 372.55724,507.19624 365.91729,507.11624   L 365.91729,507.11624   L 292.15784,507.11624   L 249.51815,458.9566   L 211.91843,458.9566   L 167.83876,505.67625   L 85.119369,505.67625   C 77.599425,505.59625 74.399449,502.71628 72.399464,499.3563   C 70.399479,495.99633 70.079481,491.83636 70.079481,490.23637   C 70.079481,489.75637 70.079481,489.51637 70.079481,489.51637   L 70.15948,489.27638   L 64.639521,403.35701   L 26.319805,403.35701   C 16.399879,403.35701 11.599914,401.51703 9.039933,398.15705   C 6.3999526,394.71708 5.4399597,388.23712 5.4399597,378.2372   L 5.4399597,224.95833   C 5.4399597,206.15847 20.799846,191.03858 39.679706,190.95859   L 65.759513,190.95859   L 65.759513,167.19876   C 65.919512,77.839423 138.55897,5.5999585 228.47831,5.4399597   C 318.31764,5.5999585 391.0371,77.839423 391.1971,167.19876   L 391.1971,190.95859   L 417.27691,190.95859   C 436.15677,191.03858 451.43666,206.15847 451.43666,224.95833   L 451.43666,381.19718   z " style="fill:#4bb749;fill-rule:nonzero;fill-opacity:1;stroke:none;"></path>
  <path id="path9" d="  M 70.23948,398.79705   L 386.07714,398.79705   L 386.07714,409.27697   L 70.23948,409.27697   z " style="fill:#118011;fill-rule:nonzero;fill-opacity:1;stroke:none;"></path>
  <path id="path11" d="  M 65.359516,402.47702   L 65.359516,204.55848   L 70.719476,204.55848   L 70.719476,402.47702   z " style="fill:#118011;fill-rule:nonzero;fill-opacity:1;stroke:none;"></path>
  <path id="path13" d="  M 386.71714,402.47702   L 386.71714,204.55848   L 392.0771,204.55848   L 392.0771,402.47702   z " style="fill:#118011;fill-rule:nonzero;fill-opacity:1;stroke:none;"></path>
  <path id="path15" d="  M 338.87749,246.95817   C 338.87749,258.31809 288.23786,267.51802 225.75833,267.51802   C 163.19879,267.51802 112.55917,258.31809 112.55917,246.95817   C 112.55917,235.51826 163.19879,226.31832 225.75833,226.31832   C 288.23786,226.31832 338.87749,235.51826 338.87749,246.95817   z " style="fill:#62b565;fill-rule:evenodd;fill-opacity:1;stroke:none;"></path>
  <path id="path17" d="  M 331.03755,194.23856   L 331.03755,164.07878   C 331.03755,107.19921 284.87789,61.119547 227.83831,61.119547   C 170.87873,61.119547 124.63908,107.19921 124.63908,164.07878   L 124.63908,194.23856   z " style="fill:#ffffff;fill-rule:nonzero;fill-opacity:1;stroke:none;"></path>
  <path id="path19" d="  M 184.55863,162.79879   L 276.55795,162.79879   L 276.55795,173.75871   L 184.55863,173.75871   z " style="fill:#7f7f7f;fill-rule:evenodd;fill-opacity:1;stroke:none;"></path>
  <path id="path21" d="  M 213.03842,117.11913   C 213.03842,127.59905 204.47849,136.15899 193.99856,136.15899   C 183.43864,136.15899 174.8787,127.59905 174.8787,117.11913   C 174.8787,106.55921 183.43864,98.079273 193.99856,98.079273   C 204.47849,98.079273 213.03842,106.55921 213.03842,117.11913   z " style="fill:#000000;fill-rule:nonzero;fill-opacity:1;stroke:none;"></path>
  <path id="path23" d="  M 280.79792,117.11913   C 280.79792,127.59905 272.23798,136.15899 261.75806,136.15899   C 251.19814,136.15899 242.7182,127.59905 242.7182,117.11913   C 242.7182,106.55921 251.19814,98.079273 261.75806,98.079273   C 272.23798,98.079273 280.79792,106.55921 280.79792,117.11913   z " style="fill:#000000;fill-rule:nonzero;fill-opacity:1;stroke:none;"></path>
  <path id="path25" d="  M 191.27858,309.27771   L 260.23807,309.27771   L 260.23807,360.71733   L 191.27858,360.71733   z " style="fill:#ffffff;fill-rule:nonzero;fill-opacity:1;stroke:none;"></path>
  <path id="path27" d="  M 201.9185,303.83775   C 205.03848,292.95783 214.63841,285.03789 226.07833,285.03789   C 237.43824,285.03789 247.11817,292.95783 250.23815,303.83775   L 258.39809,303.83775   C 255.11811,288.63786 241.99821,277.19795 225.99833,277.19795   C 210.07844,277.19795 196.95854,288.63786 193.67857,303.83775   z " style="fill:#ffffff;fill-rule:nonzero;fill-opacity:1;stroke:none;"></path>
  <path id="path29" d="  M 435.35678,413.19694   C 437.19676,413.19694 438.95675,413.19694 440.55674,413.11694   L 440.55674,407.27698   C 437.59676,407.75698 434.15678,407.91698 430.07681,407.91698   L 396.63706,407.91698   C 396.07707,417.27691 395.67707,433.03679 395.19707,448.47668   L 400.63703,448.47668   C 401.11703,434.79678 401.43703,421.51688 401.91702,413.19694   z " style="fill:#118011;fill-rule:nonzero;fill-opacity:1;stroke:none;"></path>
  <path id="path31" d="  M 440.55674,416.23692   L 440.55674,413.35694   C 438.95675,413.43694 437.27676,413.51694 435.35678,413.51694   L 401.91702,413.51694   C 401.43703,421.67688 401.11703,434.87678 400.63703,448.47668   L 408.39697,448.47668   C 426.15684,448.47668 440.55674,433.99679 440.55674,416.23692   z " style="fill:#1dcc24;fill-rule:evenodd;fill-opacity:1;stroke:none;"></path>
  <path id="path33" d="  M 59.759557,408.31698   L 26.319805,408.31698   C 21.199843,408.31698 16.879875,407.83698 13.279902,406.71699   L 13.279902,413.35694   C 15.439886,413.59694 17.679869,413.75694 20.23985,413.75694   L 53.679602,413.67694   L 55.919586,448.47668   L 62.319538,448.47668   z " style="fill:#118011;fill-rule:nonzero;fill-opacity:1;stroke:none;"></path>
  <path id="path35" d="  M 20.23985,413.67694   C 17.679869,413.67694 15.439886,413.59694 13.279902,413.35694   L 13.279902,416.23692   C 13.279902,433.99679 27.599796,448.47668 45.199665,448.47668   L 55.679588,448.47668   L 53.519604,413.67694   z " style="fill:#1dcc24;fill-rule:evenodd;fill-opacity:1;stroke:none;"></path>
</svg>
