<svg xmlns="http://www.w3.org/2000/svg" viewBox="0 0 210 52" fill="none">
<path opacity="0.5" fill-rule="evenodd" clip-rule="evenodd" d="M0.173828 20.423L1.55054 15.1548L11.2465 9.54169V16.5744L0.173828 23.5541V20.423Z" fill="#1C60DD"/>
<path opacity="0.7" fill-rule="evenodd" clip-rule="evenodd" d="M4.7627 20.6085L15.6811 13.8195V19.3948C15.6811 19.3948 15.5152 21.235 14.717 21.5778C14.1268 21.8186 4.76561 27.3575 4.76561 27.3575L4.7627 20.6085Z" fill="#1C60DD"/>
<path opacity="0.9" fill-rule="evenodd" clip-rule="evenodd" d="M10.709 23.9019L20.4151 18.1818V23.7564C20.4151 23.7564 20.4151 25.2975 19.451 25.8396C18.8288 26.1722 10.7112 30.8968 10.7112 30.8968L10.709 23.9019Z" fill="#1C60DD"/>
<path opacity="0.5" fill-rule="evenodd" clip-rule="evenodd" d="M14.7314 7.5501L20.068 4.1098V11.1389L14.7365 14.4017L14.7314 7.5501Z" fill="#1C60DD"/>
<path opacity="0.7" fill-rule="evenodd" clip-rule="evenodd" d="M19.0769 11.7384L24.4397 8.57098V15.8475L19.0747 18.9633L19.0769 11.7384Z" fill="#1C60DD"/>
<path opacity="0.5" fill-rule="evenodd" clip-rule="evenodd" d="M23.189 2.23462L26.841 0V4.84761C26.841 4.84761 26.841 7.27287 25.8769 7.75822C25.6914 7.85645 23.2086 9.30157 23.2086 9.30157L23.189 2.23462Z" fill="#1C60DD"/>
<path opacity="0.9" fill-rule="evenodd" clip-rule="evenodd" d="M23.2854 16.4297L26.9237 14.2467L26.84 19.8169C26.84 19.8169 26.9237 21.286 25.8758 21.9998C25.6343 22.2145 23.1566 23.4209 23.2003 23.4449C23.2439 23.4689 23.2709 16.2325 23.2854 16.4297Z" fill="#1C60DD"/>
<path opacity="0.7" fill-rule="evenodd" clip-rule="evenodd" d="M27.5684 6.7868L30.479 4.85999C30.479 4.85999 30.5081 7.75021 30.479 9.70832C30.4576 10.3031 30.3188 10.8878 30.0707 11.4287C29.8226 11.9696 29.4699 12.4563 29.0331 12.8605C29.0331 12.8605 27.5276 13.7977 27.5735 13.8239C27.6193 13.8501 27.5684 6.7868 27.5684 6.7868Z" fill="#1C60DD"/>
<path fill-rule="evenodd" clip-rule="evenodd" d="M11.2464 9.53659C11.2013 9.63119 2.34507 14.0262 1.00255 15.5339C1.68727 14.9561 0.420432 16.1044 0.274902 17.834L0.696211 34.089C0.696211 34.089 0.0194965 36.9021 3.34632 38.8143C5.71846 40.178 19.4391 47.9675 21.1236 48.7599C22.8081 49.5523 23.2425 48.3 23.2425 48.3V32.5223C23.2061 32.4794 23.7453 30.0294 20.858 28.1819C20.3035 27.7002 2.5248 19.6022 1.7695 17.0525C0.958167 14.3143 11.2464 10.2446 11.2464 9.53659Z" fill="white"/>
<path fill-rule="evenodd" clip-rule="evenodd" d="M22.4152 32.3804L23.2811 31.7539V48.5627C23.2811 48.5627 22.8634 49.4031 22.4152 49.4831C22.3621 49.4555 22.4152 32.3804 22.4152 32.3804Z" fill="#C0C9D7"/>
<path d="M1.15989 17.6055C1.28291 17.8009 1.42396 17.9843 1.5812 18.1534C1.4033 17.957 1.25388 17.7366 1.13734 17.4985C0.089519 14.796 7.68621 11.7574 10.8515 9.72723C10.8515 9.72723 3.16821 13.5423 1.64524 14.8732C0.299082 16.0491 0.202305 16.76 0.202305 16.76L0.0400391 17.7532C0.0735106 17.2715 0.0844254 16.8415 0.202305 16.76C0.187752 16.8437 1.14752 17.4796 1.15989 17.6055Z" fill="#1C60DD"/>
<path d="M20.0482 28.8499C19.4238 28.3223 11.4561 24.679 5.94629 21.3842C6.27373 21.5908 6.56552 21.772 6.79473 21.9234L19.8459 48.1683C20.1209 48.3138 20.3283 48.431 20.4869 48.5052L22.4152 49.4686V32.6097C22.3912 32.5907 22.6073 30.263 20.0482 28.8499Z" fill="#1C60DD"/>
<path opacity="0.3" d="M0.595218 36.2756C0.296862 35.6609 0.0960499 35.0034 0 34.3269C0.0292989 35.0165 0.234174 35.6873 0.595218 36.2756Z" fill="url(#paint0_linear)"/>
<path d="M5.9462 21.3842C3.99609 20.2302 2.38071 19.0936 1.58029 18.1542C1.42327 17.9848 1.28246 17.8012 1.15971 17.6055C1.14516 17.4796 0.213766 16.7549 0.238506 16.6683C0.120627 16.7505 0.045679 17.2606 0.012207 17.7452L0.0376748 34.3233C0.132269 35.5508 0.226864 35.5981 0.552851 36.2756C1.02946 37.0141 1.26522 37.2943 2.11512 38.0525C4.11033 39.2713 16.4644 46.3375 19.8633 48.1669L6.79464 21.9161L5.9462 21.3842Z" fill="#1C60DD"/>
<path opacity="0.2" d="M5.92437 21.3726C3.97426 20.2185 2.35888 19.0819 1.55846 18.1425C1.4084 17.9725 1.27488 17.7885 1.15971 17.5931C1.14516 17.468 0.210128 16.7432 0.238506 16.6566C0.180294 16.7127 0.0718744 17.3617 0.0384025 17.8456L0.012207 34.372C0.0595043 35.4046 0.261063 35.6905 0.557945 36.3061C0.982891 37.0141 1.52936 37.5431 2.14568 38.0409C4.14162 39.2597 16.4433 46.3259 19.8421 48.1552L6.77281 21.9045L5.92437 21.3726Z" fill="url(#paint1_linear)"/>
<path fill-rule="evenodd" clip-rule="evenodd" d="M19.6048 35.6803L16.8929 34.0067C16.4112 33.7273 15.947 33.9078 16.1849 34.4018V38.9053C16.3006 39.0719 16.5342 39.6111 16.4258 39.8832C16.0372 39.8643 17.9684 41.4841 19.0598 42.0946C19.3778 42.2728 19.9709 42.3471 19.925 41.6129V36.2632C19.9264 36.1466 19.8973 36.0317 19.8406 35.9299C19.7847 35.8279 19.7035 35.742 19.6048 35.6803Z" fill="#B0B5BE"/>
<path fill-rule="evenodd" clip-rule="evenodd" d="M19.4894 35.9503C19.0674 35.4249 17.6572 34.618 16.7003 33.9274C16.4595 33.7513 16.0404 33.8765 16.0455 34.1683C16.1059 37.5759 16.1182 39.144 16.3154 39.8112C16.4609 40.3206 18.0582 41.3909 18.9663 41.9942C19.2362 42.1768 19.6008 42.2205 19.6124 41.8901C19.6634 40.4574 19.6124 37.1335 19.6124 36.2836C19.6083 36.1613 19.5643 36.0438 19.4873 35.9489L19.4894 35.9503Z" fill="white"/>



<defs>
<linearGradient id="paint0_linear" x1="8.96611" y1="25.3221" x2="0.394973" y2="35.1891" gradientUnits="userSpaceOnUse">
<stop/>
<stop offset="1" stop-color="#1C60DD" stop-opacity="0"/>
</linearGradient>
<linearGradient id="paint1_linear" x1="13.0859" y1="28.9023" x2="4.5149" y2="38.7692" gradientUnits="userSpaceOnUse">
<stop offset="0.19"/>
<stop offset="1" stop-color="#1C60DD" stop-opacity="0"/>
</linearGradient>
</defs>
</svg>