<svg version="1.0" xmlns="http://www.w3.org/2000/svg" viewBox="0 0 600 450" style="enable-background:new 0 0 600 600" xml:space="preserve"><path d="M212.6 121.8c0 7.5-6.1 13.5-13.6 13.5h-22v-27h22.1c7.4-.1 13.5 6 13.5 13.5zm19.4 0c0-17.7-14.4-32.1-32.2-32.1h-41.5v91H177v-26.9h22.8c17.8.1 32.2-14.3 32.2-32zm48.9 168.8h67.3v-18.5h-48.8v-15c7.4-1.2 14.7-3 21.7-5.6l9.1-3.3-6.6-18.1-9.1 3.3c-4.9 1.8-10 3.2-15.1 4.2V218h48.8v-18.5h-67.3v39.3c-11.3-1.1-19.3-5.5-24.7-10.2-9.5-8.3-19.3-24.8-12.5-57l2-9.4-18.9-4-2 9.4c-7 32.6-.5 58.7 18.6 75.4 7.9 6.9 17.2 11.4 27.5 13.6 3.2.7 6.5 1.1 9.8 1.3l.2 32.7zm142.6 23c0 3.9-.6 7.8-1.8 11.5-1.2 3.5-2.9 6.6-5.1 9.2-2.2 2.6-5 4.6-8.1 6-3.2 1.5-6.7 2.2-10.6 2.2-3.9 0-7.5-.7-10.7-2.2-3.1-1.4-5.9-3.4-8.1-6-2.2-2.6-3.9-5.6-5.1-9.2-1.2-3.7-1.8-7.6-1.8-11.5 0-4.1.6-8 1.8-11.5s2.9-6.6 5.1-9.2c2.2-2.6 5-4.7 8.1-6.1 3.2-1.5 6.7-2.2 10.7-2.2 3.9 0 7.5.7 10.6 2.2 3.1 1.4 5.9 3.5 8.1 6.1 2.2 2.6 3.9 5.7 5.1 9.2 1.2 3.5 1.8 7.3 1.8 11.5zm18.4 0c0-6.8-1-13.1-3.1-18.9-2-5.8-5-10.8-8.8-15.1-3.9-4.3-8.6-7.6-13.9-9.9-5.4-2.4-11.5-3.6-18.2-3.6-6.7 0-12.8 1.2-18.3 3.6-5.3 2.3-10.1 5.7-13.9 9.9-3.8 4.2-6.8 9.3-8.8 15.1-2 5.8-3.1 12.1-3.1 18.9s1 13.1 3.1 18.9c2 5.8 5 10.8 8.8 15 3.9 4.2 8.6 7.6 13.9 9.9 5.5 2.4 11.6 3.6 18.3 3.6s12.8-1.2 18.2-3.6c5.3-2.3 10-5.6 13.9-9.9 3.8-4.2 6.8-9.2 8.8-15 2.1-5.8 3.1-12.1 3.1-18.9z" style="fill:#010202"/></svg>
