<svg version="1.1" id="Layer_1" xmlns="http://www.w3.org/2000/svg" xmlns:xlink="http://www.w3.org/1999/xlink" x="0px" y="0px" viewBox="-57.5 -57.5 300 300" xml:space="preserve">
<g>
	<path fill="#70828C" d="M210.128,57.131c-10.213-13.441-25.062-22.098-41.793-24.372c-2.844-0.362-5.733-0.569-8.592-0.569
		c-10.322,0-20.217,2.462-29.41,7.316c-1.569,0.83-3.104,1.732-4.57,2.668l-0.072,0.041l-0.051,0.051l-5.098,3.835l-1.615,1.201
		l1.217,1.606l13.16,17.311l1.22,1.579l1.589-1.2l3.941-2.995c0.73-0.45,1.508-0.899,2.311-1.329
		c5.441-2.877,11.308-4.331,17.424-4.331c1.682,0,3.388,0.123,5.076,0.341c9.92,1.357,18.715,6.479,24.775,14.453
		c6.068,7.947,8.669,17.793,7.322,27.718c-2.515,18.49-18.473,32.441-37.113,32.441c-1.686,0-3.383-0.107-5.063-0.34
		c-7.775-1.061-14.912-4.453-20.626-9.85c-0.619-0.584-1.244-1.219-1.871-1.875L82.744,55.708l-3.158-4.152l-0.015,0.193
		l-2.07-2.709l-0.607-0.747c-1.299-1.438-2.6-2.769-3.916-4.005C62.95,34.828,50.401,28.84,36.7,26.964
		c-2.949-0.398-5.938-0.598-8.899-0.598c-32.782,0-60.821,24.504-65.237,57.011c-2.357,17.408,2.217,34.722,12.881,48.736
		c10.667,14.014,26.127,23.039,43.532,25.41c2.968,0.387,5.988,0.59,8.962,0.59c10.749,0,21.051-2.572,30.633-7.633
		c0.365-0.184,0.707-0.379,1.063-0.582l0.404-0.223l2.012-1.133l-1.398-1.828L47.282,129.15l-0.984-1.287l-1.457,0.674
		c-5.4,2.535-11.119,3.826-16.996,3.826c-1.799,0-3.612-0.123-5.406-0.361c-21.922-2.986-37.34-23.244-34.365-45.167
		c2.685-19.791,19.771-34.719,39.739-34.719c1.799,0,3.626,0.123,5.421,0.361c8.328,1.135,15.971,4.785,22.096,10.557
		c0.684,0.648,1.363,1.33,2.018,2.049l38.936,51.164l3.144,4.129l0.019-0.205l12.691,16.674l0.59,0.717
		c1.248,1.4,2.496,2.684,3.768,3.873c9.634,9.078,21.675,14.836,34.822,16.621c2.79,0.369,5.667,0.578,8.557,0.578
		c31.44,0,58.354-23.543,62.596-54.723C224.741,87.187,220.362,70.571,210.128,57.131z"/>
	<g>
		<path fill="#66CCCA" d="M102.384,144.463c-0.205-0.205-0.43-0.408-0.617-0.609l-25.121-33.002
			c-1.09-1.219-2.279-2.436-3.531-3.615c-9.349-8.801-21-14.377-33.729-16.119c-1.209-0.145-2.427-0.266-3.637-0.354H33.88
			l9.267,12.126c0.2,0.188,0.427,0.422,0.614,0.621l25.12,32.99c1.09,1.221,2.279,2.439,3.536,3.625
			c9.342,8.801,21.003,14.367,33.721,16.1c1.225,0.152,2.435,0.273,3.645,0.359h1.863L102.384,144.463z"/>
	</g>
</g>
</svg>
