<?xml version="1.0" encoding="utf-8"?>
<!-- Generator: Adobe Illustrator 16.0.0, SVG Export Plug-In . SVG Version: 6.00 Build 0)  -->
<!DOCTYPE svg PUBLIC "-//W3C//DTD SVG 1.1//EN" "http://www.w3.org/Graphics/SVG/1.1/DTD/svg11.dtd" [
	<!ENTITY ns_flows "http://ns.adobe.com/Flows/1.0/">
	<!ENTITY ns_extend "http://ns.adobe.com/Extensibility/1.0/">
	<!ENTITY ns_ai "http://ns.adobe.com/AdobeIllustrator/10.0/">
	<!ENTITY ns_graphs "http://ns.adobe.com/Graphs/1.0/">
]>
<svg version="1.1" id="Layer_1" xmlns:x="&ns_extend;" xmlns:i="&ns_ai;" xmlns:graph="&ns_graphs;"
	 xmlns="http://www.w3.org/2000/svg" xmlns:xlink="http://www.w3.org/1999/xlink" xmlns:a="http://ns.adobe.com/AdobeSVGViewerExtensions/3.0/"
	 x="0px" y="0px" width="300px" height="300px" viewBox="-57.5 -57.5 300 300" enable-background="new -57.5 -57.5 300 300"
	 xml:space="preserve">
<g>
	<path fill="#97A3AA" d="M210.236,57.097C200.011,43.643,185.147,34.978,168.4,32.7c-2.848-0.363-5.742-0.573-8.599-0.573
		c-10.334,0-20.238,2.465-29.44,7.324c-1.569,0.831-3.108,1.732-4.575,2.669l-0.072,0.041l-0.051,0.048l-5.105,3.839l-1.616,1.204
		l1.22,1.61l13.174,17.326l1.217,1.583l1.596-1.202l3.945-3.002c0.729-0.448,1.51-0.898,2.313-1.327
		c5.446-2.878,11.317-4.336,17.44-4.336c1.683,0,3.39,0.121,5.081,0.342c9.931,1.355,18.734,6.483,24.799,14.465
		c6.078,7.956,8.678,17.813,7.332,27.748c-2.519,18.509-18.49,32.473-37.15,32.473c-1.689,0-3.387-0.108-5.072-0.34
		c-7.781-1.063-14.929-4.458-20.645-9.858c-0.621-0.585-1.248-1.219-1.873-1.878L82.725,55.672l-3.161-4.157l-0.014,0.193
		l-2.07-2.714l-0.611-0.745c-1.299-1.44-2.604-2.769-3.92-4.009c-10.037-9.469-22.597-15.465-36.313-17.342
		c-2.949-0.398-5.943-0.598-8.908-0.598c-32.813,0-60.881,24.529-65.301,57.068c-2.361,17.426,2.219,34.754,12.893,48.782
		c10.678,14.03,26.154,23.065,43.576,25.434c2.969,0.392,5.994,0.597,8.973,0.597c10.758,0,21.072-2.576,30.666-7.64
		c0.363-0.187,0.705-0.382,1.059-0.585l0.404-0.223l2.016-1.135l-1.4-1.83l-13.383-17.581l-0.986-1.289l-1.457,0.679
		c-5.404,2.534-11.129,3.828-17.014,3.828c-1.802,0-3.615-0.121-5.41-0.363c-21.943-2.989-37.375-23.268-34.4-45.211
		C-9.349,67.02,7.755,52.076,27.741,52.076c1.803,0,3.631,0.123,5.428,0.365c8.336,1.133,15.987,4.788,22.119,10.564
		c0.683,0.648,1.362,1.33,2.018,2.05l38.973,51.217l3.145,4.131l0.02-0.205l12.701,16.693l0.593,0.718
		c1.249,1.398,2.499,2.684,3.768,3.875c9.646,9.09,21.698,14.852,34.86,16.639c2.792,0.369,5.672,0.576,8.566,0.576
		c31.474,0,58.412-23.565,62.658-54.774C224.861,87.183,220.479,70.551,210.236,57.097z"/>
	<g>
		<path fill="#66CCCA" d="M102.384,144.516c-0.205-0.203-0.429-0.408-0.619-0.608L76.62,110.871
			c-1.091-1.221-2.281-2.438-3.535-3.619c-9.355-8.811-21.021-14.392-33.762-16.135c-1.211-0.144-2.43-0.266-3.641-0.354h-1.867
			l9.273,12.138c0.202,0.192,0.428,0.426,0.615,0.624l25.146,33.025c1.09,1.219,2.281,2.441,3.539,3.627
			c9.348,8.806,21.021,14.381,33.756,16.113c1.227,0.154,2.438,0.277,3.649,0.365h1.862L102.384,144.516z"/>
	</g>
</g>
</svg>
