<svg version="1.2" baseProfile="tiny-ps" xmlns="http://www.w3.org/2000/svg" viewBox="0 0 1129 928" width="1129" height="928">
	<title>LOGO_INDODAX_NEW</title>
	<style>
		tspan { white-space:pre }
		.shp0 { fill: #1585b6 } 
	</style>
	<g id="Background">
		<path id="Path 0" fill-rule="evenodd" class="shp0" d="M198.5 0C199.05 0 249.23 49.72 420.5 220.98L426 222.14C429.02 222.78 434.43 224.78 438 226.58C441.92 228.55 446.74 232.16 450.14 235.68C453.8 239.45 457.14 244.32 459.64 249.5C463.49 257.48 463.5 257.53 463.5 282.65L459.35 291.08C456.18 297.52 453.72 300.88 448.85 305.39C445.36 308.63 440.36 312.34 437.75 313.64C435.14 314.94 430.41 316.68 427.25 317.51C424.09 318.33 418.57 319 415 318.99C411.43 318.98 406.02 318.31 403 317.5C399.98 316.69 395.04 314.78 392.02 313.26C389.01 311.74 383.95 307.91 380.77 304.75C377.03 301.02 373.76 296.45 371.49 291.75C369.56 287.76 367.42 281.29 365.5 270.24L282.25 186.62C236.46 140.63 198.65 103 198.22 103C197.8 103 180.81 119.65 123.5 177L360.5 414L395.5 413.97C414.75 413.96 430.86 414.29 431.29 414.72C431.73 415.15 362.65 484.91 123.5 724L198.5 799L494.52 503L661.5 503.08L809 650.51C890.13 731.59 956.95 797.95 957.5 797.97C958.05 797.99 975.15 781.35 1032.5 723.99L874.69 567.5L869.09 566.84C866.02 566.47 861.02 565.19 858 563.98C854.98 562.78 850.7 560.55 848.5 559.02C846.3 557.49 842.44 554.05 839.91 551.37C837.39 548.69 834.13 544.14 832.66 541.25C831.2 538.36 829.32 533.41 828.49 530.25C827.67 527.09 826.99 521.8 826.99 518.5C826.99 515.2 827.7 509.8 828.56 506.5C829.42 503.2 831.44 498.02 833.04 495C834.65 491.98 838.56 486.89 841.73 483.69C845.05 480.35 850.26 476.49 854 474.6C857.7 472.73 863.73 470.76 868 470.02C873.85 469.01 877.15 468.98 883 469.86C887.85 470.6 893.15 472.31 898 474.71C902.72 477.04 907.55 480.47 911.03 483.96C914.13 487.07 917.98 492.35 919.8 496C921.58 499.57 923.5 504.98 925.11 513.5L1129 717.5L1129 730.5L958 901.5L633.5 577L523.52 577L198.5 902L20.5 724L294 450.5L20.5 177L109 88.5C157.67 39.83 197.95 0 198.5 0ZM958 0C958.27 0 996.86 38.36 1129 170.5L1129 183.5L798.5 514L878 593.5C941.12 656.62 958.02 673 960 672.99C961.38 672.99 964.98 673.71 968 674.6C971.02 675.49 975.75 677.36 978.5 678.76C981.25 680.16 986.25 684.04 989.6 687.4C992.96 690.75 996.89 695.86 998.35 698.75C999.81 701.64 1001.68 706.59 1002.51 709.75C1003.33 712.91 1004.01 718.42 1004.01 722C1004.01 725.58 1003.3 731.2 1002.44 734.5C1001.58 737.8 999.67 742.75 998.2 745.5C996.72 748.25 992.81 753.24 989.51 756.58C985.6 760.55 981.23 763.74 977 765.73C973.43 767.41 968.14 769.29 965.25 769.89C962.36 770.5 957.75 771 955 771C952.25 771 947.64 770.5 944.75 769.9C941.86 769.29 936.57 767.38 933 765.65C929.05 763.74 924.12 760.15 920.44 756.5C916.59 752.68 913.26 748.13 911.28 744C909.57 740.42 907.63 734.58 905.76 724.5L826.13 644.5C782.33 600.5 735.02 552.88 695.5 512.85L1032.5 177.11L995.5 140.05C975.15 119.67 958.21 103 957.85 103C957.49 103 890.67 169.36 661.5 397.94L366.5 398L192.5 224.02L186.75 222.51C183.59 221.68 178.64 219.81 175.75 218.35C172.86 216.89 167.88 213.18 164.67 210.1C161.46 207.02 157.56 202.25 156 199.5C154.45 196.75 152.38 191.8 151.41 188.5C150.27 184.64 149.68 179.47 149.74 174C149.81 168.11 150.49 163.66 151.96 159.5C153.13 156.2 155.15 151.7 156.46 149.5C157.77 147.3 160.57 143.7 162.68 141.5C164.8 139.3 168.77 135.95 171.51 134.06C174.26 132.17 178.98 129.71 182 128.58C186.3 126.99 189.89 126.54 198.5 126.54C207.11 126.54 210.7 126.99 215 128.58C218.02 129.71 222.75 132.16 225.5 134.04C228.25 135.92 232.44 139.49 234.82 141.98C237.19 144.47 240.68 149.65 242.56 153.5C244.71 157.89 246.45 163.49 248.5 176.53L399 325L632.5 325L795 162.5C884.37 73.13 957.72 0 958 0ZM-4570 23L-4150.75 23.01C-3879.58 23.01 -3724.79 23.37 -3712.5 24.03C-3702.05 24.59 -3687.65 25.71 -3680.5 26.53C-3673.35 27.35 -3663.22 28.73 -3658 29.6C-3652.78 30.47 -3644.68 32.05 -3640 33.11C-3635.32 34.17 -3627.22 36.41 -3622 38.08C-3616.78 39.75 -3606.65 43.96 -3599.5 47.44C-3592.35 50.92 -3582.9 56.43 -3578.5 59.69C-3574.1 62.95 -3567.38 68.74 -3563.56 72.56C-3559.74 76.38 -3553.95 83.1 -3550.69 87.5C-3547.43 91.9 -3541.92 101.35 -3538.44 108.5C-3534.96 115.65 -3530.75 125.78 -3529.08 131C-3527.41 136.22 -3525.17 144.32 -3524.11 149C-3523.05 153.68 -3521.47 161.78 -3520.6 167C-3519.73 172.22 -3518.35 182.35 -3517.54 189.5C-3516.72 196.65 -3515.59 210.82 -3515.03 221C-3514.39 232.49 -3514 315.26 -3514 439.5C-3514 563.92 -3514.39 646.49 -3515.03 658C-3515.6 668.17 -3516.74 682.58 -3517.56 690C-3518.39 697.42 -3519.97 708.67 -3521.08 715C-3522.19 721.33 -3523.99 730.1 -3525.09 734.5C-3526.19 738.9 -3528.25 746.1 -3529.68 750.5C-3531.1 754.9 -3534.36 763 -3536.93 768.5C-3539.49 774 -3544.21 782.55 -3547.42 787.5C-3551.03 793.08 -3557.28 800.54 -3563.87 807.13C-3570.47 813.72 -3577.92 819.97 -3583.5 823.58C-3588.45 826.79 -3596.55 831.28 -3601.5 833.57C-3606.45 835.85 -3614.1 838.89 -3618.5 840.32C-3622.9 841.74 -3630.1 843.81 -3634.5 844.9C-3638.9 846 -3647.9 847.82 -3654.5 848.96C-3661.1 850.1 -3672.8 851.68 -3680.5 852.49C-3688.2 853.29 -3704.4 854.41 -3716.5 854.97C-3730.23 855.6 -3847.43 855.98 -4318 856L-4322.75 859.3C-4325.36 861.12 -4330.2 863.66 -4333.5 864.94C-4337.25 866.4 -4342.5 867.46 -4347.5 867.76C-4351.9 868.02 -4357.98 867.74 -4361 867.13C-4364.02 866.52 -4369.43 864.57 -4373 862.8C-4376.93 860.85 -4381.88 857.18 -4385.5 853.54C-4389.17 849.85 -4392.73 844.97 -4394.65 841C-4396.38 837.42 -4398.29 832.14 -4398.9 829.25C-4399.5 826.36 -4400 821.64 -4400.01 818.75C-4400.01 815.86 -4399.3 810.8 -4398.44 807.5C-4397.58 804.2 -4395.44 798.8 -4393.69 795.51C-4391.93 792.22 -4388 787.04 -4384.93 784.01C-4381.82 780.93 -4376.54 777.11 -4372.93 775.33C-4369.4 773.59 -4363.57 771.61 -4360 770.93C-4356.34 770.24 -4350.44 769.94 -4346.5 770.25C-4342.65 770.56 -4337.02 771.76 -4334 772.92C-4330.98 774.07 -4326.14 776.59 -4318 782L-4010.25 781.69C-3777.97 781.46 -3700.42 781.09 -3694 780.18C-3689.32 779.52 -3680.1 778.07 -3673.5 776.96C-3666.9 775.84 -3656.78 773.37 -3651 771.45C-3644.78 769.4 -3637.03 765.87 -3632 762.8C-3627.32 759.95 -3621.01 755.12 -3617.97 752.06C-3614.93 749 -3610.67 743.8 -3608.51 740.5C-3606.34 737.2 -3603.11 731.13 -3601.33 727C-3599.55 722.88 -3596.97 715 -3595.6 709.5C-3594.23 704 -3592.43 694.77 -3591.6 689C-3590.77 683.23 -3589.51 672.65 -3588.79 665.5C-3587.78 655.32 -3587.5 606.56 -3587.5 440.5C-3587.5 271.9 -3587.77 225.43 -3588.83 213.5C-3589.57 205.25 -3591.27 191.97 -3592.61 184C-3593.96 176.03 -3596.43 165.45 -3598.1 160.5C-3599.77 155.55 -3602.67 148.57 -3604.55 145C-3606.42 141.43 -3610.1 135.82 -3612.73 132.55C-3615.35 129.27 -3620.2 124.43 -3623.5 121.78C-3626.8 119.13 -3632.43 115.44 -3636 113.59C-3639.57 111.73 -3645.88 109.02 -3650 107.56C-3654.13 106.1 -3661.78 104.04 -3667 102.99C-3672.22 101.93 -3682.13 100.38 -3689 99.53C-3695.88 98.68 -3710.5 97.55 -3721.5 97.01C-3733.74 96.41 -3887.97 96.03 -4497 96L-4497 782L-4481 782L-4480.5 112.5L-4118 112.21C-3878.04 112.02 -3747.22 112.27 -3731 112.96C-3717.53 113.53 -3701.32 114.69 -3695 115.52C-3688.68 116.36 -3679.68 117.99 -3675 119.16C-3670.32 120.32 -3663.13 122.68 -3659 124.41C-3654.88 126.15 -3648.35 129.63 -3644.5 132.16C-3640.65 134.69 -3634.57 139.9 -3631 143.74C-3627.43 147.58 -3622.59 154.05 -3620.27 158.11C-3617.94 162.17 -3614.65 169.55 -3612.95 174.5C-3611.26 179.45 -3609.01 188.68 -3607.95 195C-3606.89 201.32 -3605.5 211 -3604.87 216.5C-3604.07 223.54 -3603.6 284.28 -3603.3 422C-3603.01 552.18 -3603.23 625.35 -3603.94 641C-3604.53 653.92 -3605.67 669.45 -3606.48 675.5C-3607.29 681.55 -3609.09 691 -3610.48 696.5C-3611.88 702.03 -3615.02 710.52 -3617.51 715.5C-3619.99 720.45 -3624.39 727.42 -3627.31 731C-3630.22 734.58 -3635.28 739.67 -3638.55 742.33C-3641.82 744.98 -3649 749.37 -3654.5 752.07C-3660 754.77 -3668.78 758.07 -3674 759.4C-3679.22 760.72 -3689.35 762.63 -3696.5 763.64C-3708.87 765.38 -3726.09 765.49 -4391 766L-4391 202L-4066.25 202.02C-3784.45 202.03 -3740.57 202.23 -3734.5 203.5C-3730.65 204.31 -3724.35 206.52 -3720.5 208.41C-3715.93 210.64 -3711.54 213.86 -3707.85 217.67C-3704.58 221.05 -3700.91 226.23 -3699.12 230C-3697.41 233.57 -3695.35 239.65 -3694.53 243.5C-3693.23 249.57 -3693.03 275.68 -3693.03 439.5C-3693.03 602.32 -3693.24 629.47 -3694.51 635.5C-3695.32 639.35 -3697.3 645.2 -3698.91 648.5C-3700.51 651.8 -3703.81 656.75 -3706.25 659.5C-3708.68 662.25 -3713.11 666.06 -3716.09 667.97C-3719.06 669.88 -3724.88 672.58 -3736.5 676.5L-4228.5 677.07L-4232 679.74C-4233.93 681.2 -4238.2 683.66 -4241.5 685.2C-4244.85 686.76 -4250.59 688.37 -4254.5 688.86C-4258.4 689.34 -4264.6 689.35 -4268.5 688.87C-4273.26 688.29 -4277.91 686.84 -4283 684.34C-4287.75 682 -4292.55 678.6 -4296.07 675.07C-4299.62 671.53 -4302.98 666.77 -4305.32 662C-4307.68 657.18 -4309.34 652 -4309.96 647.5C-4310.58 642.97 -4310.57 638.03 -4309.94 633.5C-4309.36 629.37 -4307.59 623.63 -4305.63 619.5C-4303.8 615.65 -4300.1 610.09 -4297.4 607.13C-4294.71 604.18 -4290.02 600.3 -4287 598.51C-4283.98 596.72 -4279.02 594.43 -4276 593.43C-4272.32 592.21 -4267.53 591.61 -4261.5 591.61C-4254.92 591.6 -4250.75 592.19 -4246 593.78C-4242.43 594.97 -4236.91 597.76 -4228 604L-4000.75 603.75C-3821.52 603.55 -3772.92 603.24 -3770.75 602.25C-3769.16 601.53 -3767.68 599.84 -3767.25 598.25C-3766.84 596.74 -3766.51 525.3 -3766.52 439.5C-3766.53 340.33 -3766.9 282.44 -3767.52 280.59C-3768.15 278.71 -3769.57 277.29 -3771.5 276.6C-3773.59 275.86 -3856.81 275.45 -4318 275L-4318 693L-4017.75 692.71C-3775.83 692.48 -3716.04 692.17 -3710 691.12C-3705.88 690.4 -3700.03 688.86 -3697 687.7C-3693.97 686.55 -3690.15 684.41 -3688.5 682.96C-3686.85 681.51 -3684.43 678.11 -3683.13 675.41C-3681.82 672.71 -3680.02 666.9 -3679.13 662.5C-3677.65 655.26 -3677.5 634.2 -3677.5 441C-3677.5 266.71 -3677.75 225.94 -3678.85 219C-3679.59 214.32 -3681.02 208.25 -3682.03 205.5C-3683.2 202.34 -3685.46 199.06 -3688.19 196.57C-3690.56 194.41 -3694.07 191.99 -3696 191.2C-3697.93 190.4 -3702.88 189.04 -3707 188.17C-3713.74 186.75 -3749.57 186.56 -4407 186L-4407.5 855.5L-4570 856L-4570 23ZM-3167.55 23.5L-2614.5 24.14L-2357.8 280.5L-2364.26 638.5L-2417.13 719.75C-2469.95 800.93 -2470 801 -2469.99 806.25C-2469.99 809.14 -2470.7 814.2 -2471.56 817.5C-2472.42 820.8 -2474.56 826.14 -2476.31 829.37C-2478.07 832.6 -2482.2 837.84 -2485.5 841.02C-2489.03 844.42 -2494.17 848.06 -2498 849.88C-2501.58 851.57 -2507.87 853.47 -2512 854.11C-2517.89 855.02 -2521.11 855 -2527 853.98C-2531.5 853.2 -2537.3 851.26 -2541.5 849.12C-2545.55 847.07 -2550.83 843.23 -2554.03 840.03C-2557.16 836.9 -2560.96 831.68 -2562.79 828C-2564.57 824.42 -2566.52 819.02 -2567.13 816C-2567.75 812.98 -2568.02 806.67 -2567.74 802C-2567.41 796.58 -2566.42 791.51 -2565.01 788C-2563.79 784.98 -2561.38 780.48 -2559.66 778C-2557.93 775.52 -2554.59 771.7 -2552.23 769.5C-2549.88 767.3 -2545.64 764.15 -2542.81 762.5C-2537.85 759.6 -2536.05 756.99 -2440.5 609.59L-2434.3 313.5L-2646.5 101.21L-3135.5 99.98L-3334.97 305.5L-3334.87 606.5L-3137.5 790.4L-2909.5 786.66C-2784.1 784.61 -2677.79 782.72 -2665 782L-2642.65 746.25C-2630.36 726.59 -2600.48 678.77 -2532.17 569.5L-2529 351.5L-2685.5 195L-3096.5 195.11L-3163 267.08C-3199.57 306.66 -3232.17 342.07 -3241.36 352.5L-3232.5 571.14L-3193.5 606.32C-3172.05 625.67 -3140.78 653.85 -3093.5 696.4L-2950.5 695.2C-2871.85 694.54 -2788.24 693.67 -2721.9 692.5L-2624 545L-2624 390.5L-2724.5 290L-3057 290L-3098.25 338.78C-3120.94 365.62 -3140.07 388.23 -3140.77 389.03C-3141.79 390.22 -3141.64 403.56 -3139.99 458.5C-3138.87 495.9 -3137.85 527.92 -3137.73 529.65C-3137.53 532.4 -3132.29 537.69 -3054.5 610.68L-2795.5 608.06L-2791 603.75C-2788.53 601.38 -2784.93 598.46 -2783 597.27C-2781.07 596.08 -2776.8 594.17 -2773.5 593.04C-2770.2 591.9 -2764.8 590.71 -2761.5 590.38C-2758.2 590.06 -2752.57 590.33 -2749 590.98C-2745.43 591.63 -2739.8 593.43 -2736.5 594.98C-2733.2 596.53 -2728.03 600.02 -2725 602.73C-2721.97 605.45 -2718.06 609.89 -2716.29 612.59C-2714.53 615.29 -2712.22 619.98 -2711.17 623C-2710.11 626.02 -2708.93 631.42 -2708.54 635C-2708.07 639.37 -2708.32 643.8 -2709.3 648.5C-2710.1 652.35 -2712.23 658.42 -2714.03 662C-2715.87 665.66 -2719.75 670.93 -2722.9 674.07C-2726.59 677.75 -2731.23 680.98 -2736.5 683.54C-2743.82 687.11 -2745.35 687.48 -2754.5 687.87C-2762.6 688.21 -2765.83 687.9 -2771.5 686.21C-2775.35 685.07 -2781.2 682.39 -2790.5 676.39L-2920.5 677.61C-2992 678.28 -3058.38 678.86 -3085.5 678.97L-3148 621.56C-3204.86 569.33 -3210.52 563.84 -3210.73 560.82C-3210.86 558.99 -3212.84 513.4 -3215.12 459.5C-3218.7 375.16 -3219.09 361.21 -3217.89 359.42C-3217.13 358.28 -3187.93 324.85 -3089.5 212.93L-2693.5 213L-2547 359.5L-2547.06 564.5L-2676.55 768.5L-2774.02 769.1C-2827.64 769.44 -2929.32 769.75 -3128.5 769.89L-3311.5 602.72L-3311.74 597.11C-3311.87 594.02 -3313.36 532.55 -3315.05 460.5C-3316.74 388.45 -3317.98 327.41 -3317.5 320.22L-3128.5 117.79L-2653.5 118.92L-2452 320.5L-2452.04 603.5L-2538.09 730.5C-2585.42 800.35 -2624.45 858.08 -2624.82 858.79C-2625.37 859.82 -2677.21 860.76 -2886 863.52C-3029.28 865.41 -3151.56 866.97 -3169 867L-3411.88 638.5L-3412 274L-3167.55 23.5ZM-2256 23L-1836.25 23C-1561.22 23 -1410.12 23.36 -1398 24.03C-1387.82 24.6 -1373.43 25.75 -1366 26.6C-1358.57 27.44 -1347.32 29.04 -1341 30.14C-1334.68 31.24 -1324.55 33.43 -1318.5 35.01C-1312.45 36.58 -1304.57 38.99 -1301 40.35C-1297.43 41.72 -1292.02 43.94 -1289 45.29C-1285.98 46.64 -1279.68 50.02 -1275 52.8C-1270.32 55.58 -1262.9 60.74 -1258.5 64.27C-1254.1 67.8 -1247.61 74.03 -1244.07 78.1C-1240.54 82.17 -1235.44 88.88 -1232.73 93C-1230.03 97.13 -1225.86 104.55 -1223.47 109.5C-1221.09 114.45 -1217.56 123.22 -1215.64 129C-1213.72 134.78 -1210.96 144.9 -1209.5 151.5C-1208.04 158.1 -1206.01 169.57 -1204.97 177C-1203.94 184.43 -1202.52 196.35 -1201.8 203.5C-1200.78 213.74 -1200.5 263.66 -1200.5 438.5C-1200.5 612.17 -1200.78 663.55 -1201.79 674.5C-1202.5 682.2 -1203.77 693.67 -1204.6 700C-1205.43 706.33 -1207.21 716.9 -1208.55 723.5C-1209.9 730.1 -1212.19 739.55 -1213.64 744.5C-1215.09 749.45 -1218.24 758.11 -1220.64 763.75C-1223.04 769.39 -1227.08 777.49 -1229.61 781.75C-1232.15 786.01 -1236.3 792.2 -1238.84 795.5C-1241.37 798.8 -1246.83 804.82 -1250.97 808.88C-1255.11 812.93 -1262.77 819.09 -1268 822.55C-1273.23 826.02 -1281.32 830.7 -1286 832.96C-1290.68 835.23 -1300.13 838.85 -1307 841.02C-1313.88 843.19 -1325.13 846.07 -1332 847.43C-1338.88 848.78 -1350.35 850.59 -1357.5 851.45C-1364.65 852.32 -1375.9 853.54 -1382.5 854.18C-1391.23 855.03 -1477.53 855.44 -2004 856L-2007.25 858.39C-2009.04 859.7 -2012.52 861.79 -2015 863.04C-2017.48 864.28 -2021.75 865.91 -2024.5 866.64C-2027.25 867.38 -2032.65 867.98 -2036.5 867.99C-2040.35 868 -2046.2 867.3 -2049.5 866.44C-2052.8 865.58 -2057.74 863.67 -2060.47 862.19C-2063.21 860.71 -2067.95 857.02 -2071.01 854C-2074.28 850.76 -2078.03 845.62 -2080.12 841.5C-2082.26 837.3 -2084.2 831.5 -2084.98 827C-2085.99 821.15 -2086.02 817.85 -2085.14 812C-2084.44 807.42 -2082.67 801.77 -2080.6 797.5C-2078.44 793.06 -2075.05 788.36 -2071.35 784.66C-2067.97 781.29 -2062.75 777.45 -2059 775.57C-2055.43 773.77 -2049.8 771.73 -2046.5 771.03C-2042.97 770.28 -2037.41 769.97 -2033 770.28C-2028.88 770.57 -2023.02 771.73 -2020 772.85C-2016.98 773.97 -2012.14 776.49 -2004 782L-1696.25 781.7C-1411.23 781.43 -1387.58 781.28 -1376 779.68C-1369.13 778.73 -1359 777.03 -1353.5 775.9C-1348 774.78 -1340.8 772.96 -1337.5 771.87C-1334.2 770.78 -1327.9 768.12 -1323.5 765.97C-1319.1 763.82 -1312.46 759.57 -1308.75 756.53C-1305.04 753.49 -1299.91 748.19 -1297.36 744.75C-1294.81 741.31 -1291 734.9 -1288.9 730.5C-1286.79 726.1 -1283.97 718.67 -1282.64 714C-1281.3 709.33 -1279.27 699.88 -1278.13 693C-1277 686.13 -1275.52 675.55 -1274.85 669.5C-1273.95 661.35 -1273.54 605.27 -1273.25 453C-1272.99 310.64 -1273.21 241.36 -1273.98 227.5C-1274.59 216.5 -1275.76 202.32 -1276.59 196C-1277.41 189.68 -1278.77 181.13 -1279.59 177C-1280.42 172.88 -1282.26 165.9 -1283.67 161.5C-1285.09 157.1 -1287.98 150.13 -1290.1 146C-1292.21 141.88 -1296.09 135.82 -1298.72 132.55C-1301.35 129.27 -1306.2 124.42 -1309.5 121.77C-1312.8 119.12 -1318.88 115.2 -1323 113.07C-1327.13 110.95 -1334.21 108.03 -1338.75 106.6C-1343.29 105.17 -1352.29 103.06 -1358.75 101.91C-1365.21 100.77 -1376.8 99.11 -1384.5 98.24C-1397.01 96.82 -1440.17 96.61 -2183 96L-2183 782L-2167 782L-2166.5 112.5L-1804 112.21C-1565.3 112.02 -1432.96 112.27 -1416.5 112.96C-1402.31 113.54 -1385.66 114.86 -1378 116C-1370.57 117.1 -1361.13 118.95 -1357 120.11C-1352.88 121.26 -1346.35 123.65 -1342.5 125.41C-1338.65 127.16 -1333.25 130.13 -1330.5 132C-1327.75 133.87 -1322.86 137.89 -1319.63 140.95C-1316.4 144 -1311.93 149.2 -1309.69 152.5C-1307.45 155.8 -1304.15 161.65 -1302.37 165.5C-1300.59 169.35 -1297.99 176.78 -1296.61 182C-1295.22 187.22 -1293.39 196.68 -1292.53 203C-1291.68 209.32 -1290.54 222.15 -1290 231.5C-1289.43 241.46 -1289.03 327.76 -1289.03 440C-1289.03 551.23 -1289.43 638.63 -1290 648.5C-1290.53 657.85 -1291.7 670.67 -1292.6 677C-1293.5 683.33 -1295.03 691.65 -1296 695.5C-1296.97 699.35 -1299.15 705.88 -1300.85 710C-1302.54 714.13 -1305.75 720.31 -1307.97 723.75C-1310.18 727.19 -1313.91 732.09 -1316.25 734.63C-1318.59 737.18 -1322.98 741.19 -1326 743.54C-1329.02 745.89 -1335.1 749.62 -1339.5 751.84C-1343.9 754.05 -1351.32 756.98 -1356 758.35C-1360.68 759.71 -1369.45 761.54 -1375.5 762.41C-1381.55 763.28 -1391.45 764.45 -1397.5 765C-1404.57 765.64 -1527.83 766 -2077 766L-2077 202L-1752.25 202.02C-1470.45 202.03 -1426.57 202.23 -1420.5 203.5C-1416.65 204.31 -1410.35 206.53 -1406.5 208.43C-1402.35 210.48 -1397.36 214.04 -1394.23 217.19C-1391.32 220.11 -1387.63 224.97 -1386.02 228C-1384.41 231.03 -1382.3 235.75 -1381.31 238.5C-1379.63 243.22 -1379.52 254.27 -1379.24 436C-1378.96 613.51 -1379.07 629.08 -1380.63 636C-1381.55 640.13 -1383.77 646.42 -1385.56 650C-1387.66 654.19 -1390.98 658.55 -1394.91 662.25C-1398.33 665.48 -1403.74 669.28 -1407.25 670.92C-1410.69 672.52 -1416.99 674.55 -1421.25 675.42C-1428.19 676.83 -1454.44 677 -1914.5 677.06L-1918 679.73C-1919.93 681.2 -1924.2 683.66 -1927.5 685.19C-1930.83 686.73 -1936.62 688.36 -1940.5 688.85C-1944.35 689.33 -1950.2 689.38 -1953.5 688.97C-1956.8 688.56 -1962.2 687.18 -1965.5 685.92C-1968.8 684.65 -1974.18 681.56 -1977.45 679.06C-1980.72 676.55 -1985.33 671.69 -1987.7 668.25C-1990.06 664.81 -1992.91 658.96 -1994.02 655.25C-1995.32 650.92 -1996.04 645.64 -1996.04 640.5C-1996.04 635.4 -1995.33 630.15 -1994.07 626C-1992.98 622.42 -1990.36 616.8 -1988.24 613.5C-1986.12 610.2 -1982.38 605.77 -1979.94 603.66C-1977.5 601.55 -1972.8 598.46 -1969.5 596.79C-1966.2 595.12 -1960.35 593.1 -1956.5 592.29C-1952.08 591.37 -1947.29 591.06 -1943.5 591.46C-1940.2 591.8 -1934.8 592.95 -1931.5 594.02C-1928.2 595.08 -1922.91 597.76 -1914 604L-1686.75 603.75C-1507.52 603.55 -1458.92 603.24 -1456.75 602.25C-1455.16 601.53 -1453.68 599.84 -1453.25 598.25C-1452.84 596.74 -1452.5 525.08 -1452.5 439C-1452.5 326.69 -1452.81 281.79 -1453.61 280C-1454.22 278.63 -1456.02 277.08 -1457.61 276.56C-1459.38 275.98 -1565.55 275.49 -2004 275L-2004 693L-1702.75 692.7C-1423.91 692.42 -1400.89 692.27 -1393.25 690.7C-1388.71 689.76 -1382.86 687.93 -1380.25 686.63C-1377.64 685.33 -1374.04 682.63 -1372.25 680.63C-1370.33 678.49 -1368.22 674.43 -1367.11 670.75C-1366.07 667.31 -1364.61 659.33 -1363.86 653C-1362.76 643.66 -1362.5 603.53 -1362.5 439C-1362.5 277.42 -1362.77 234.38 -1363.82 226C-1364.54 220.22 -1365.62 213.47 -1366.22 211C-1366.81 208.53 -1368.08 204.93 -1369.04 203C-1370 201.07 -1372.07 198.2 -1373.64 196.6C-1375.21 195.01 -1378.52 192.81 -1381 191.71C-1383.48 190.62 -1388.88 189.01 -1393 188.15C-1399.7 186.76 -1437.33 186.56 -2093 186L-2093.5 855.5L-2256 856L-2256 23ZM-6200 34L-5949 34L-5949 867L-6200 867L-6200 34ZM-6127 794L-6022 794L-6022 107L-6127 107L-6127 794ZM-556 34.46C-314.11 34.6 -230.5 34.95 -221.5 35.84C-214.9 36.5 -204.1 37.73 -197.5 38.56C-190.9 39.4 -178.98 41.4 -171 43C-163.02 44.6 -151.55 47.55 -145.5 49.57C-139.45 51.58 -130.45 55.15 -125.5 57.5C-120.55 59.86 -112.23 64.62 -107 68.08C-101.49 71.73 -93.5 78.4 -87.98 83.94C-82.74 89.2 -75.92 97.33 -72.83 102C-69.74 106.67 -65.08 114.78 -62.48 120C-59.88 125.22 -56.02 134.68 -53.92 141C-51.81 147.32 -48.74 159.25 -47.1 167.5C-45.46 175.75 -43.4 188.35 -42.54 195.5C-41.67 202.65 -40.45 214.13 -39.83 221C-39.02 229.9 -38.59 324.83 -38 867L-290 867L-290 733L-753 733L-758.27 736.75C-761.16 738.81 -766.9 741.58 -771.02 742.91C-777.45 744.98 -779.91 745.26 -788.5 744.89C-797.74 744.48 -799.15 744.14 -807 740.33C-813.3 737.27 -816.92 734.7 -821.01 730.35C-824.05 727.13 -827.99 721.58 -829.77 718C-831.56 714.42 -833.52 709.02 -834.13 706C-834.75 702.98 -835 697.13 -834.71 693C-834.41 688.88 -833.12 682.66 -831.83 679.19C-830.55 675.71 -827.46 670.09 -824.96 666.69C-822.09 662.78 -818.04 658.92 -813.96 656.2C-810.41 653.83 -805.02 650.94 -802 649.77C-797.65 648.09 -794.31 647.65 -786 647.65C-777.44 647.65 -774.39 648.07 -769.5 649.95C-766.2 651.22 -760.91 654 -752 660L-217 660L-217 794L-112 794L-112.32 509.75C-112.57 295.96 -112.95 223.14 -113.85 216C-114.51 210.78 -115.76 202.22 -116.63 197C-117.5 191.78 -119.32 183.22 -120.68 178C-122.03 172.78 -124.6 165.35 -126.38 161.5C-128.16 157.65 -131.44 151.8 -133.66 148.5C-135.89 145.2 -140.84 139.57 -144.67 136C-148.89 132.06 -154.95 127.76 -160.06 125.09C-164.7 122.66 -171.43 119.68 -175 118.47C-178.57 117.25 -186.23 115.31 -192 114.14C-197.77 112.98 -208.13 111.34 -215 110.49C-221.88 109.64 -238.98 108.52 -253 108C-267.54 107.46 -402.54 107.05 -567 107.06C-725.68 107.06 -866.52 107.48 -880 107.97C-893.48 108.47 -910.57 109.61 -918 110.51C-925.43 111.41 -936.45 113.19 -942.5 114.46C-948.55 115.73 -956.88 118.07 -961 119.67C-965.13 121.27 -971.65 124.32 -975.5 126.45C-979.92 128.89 -985.45 133.31 -990.5 138.41C-994.9 142.86 -1000.07 149.19 -1002 152.49C-1003.93 155.78 -1007.02 162.53 -1008.88 167.49C-1010.74 172.44 -1013.3 181.68 -1014.58 188C-1015.86 194.32 -1017.7 205.57 -1018.68 213C-1020.34 225.62 -1020.47 245.03 -1021 794L-916 794L-916 570L-128 570L-128 704L-125.05 707.75C-123.42 709.81 -120.97 713.98 -119.59 717C-118.22 720.02 -116.58 725.65 -115.97 729.5C-115.15 734.61 -115.14 738.53 -115.94 744C-116.62 748.72 -118.29 754.1 -120.44 758.5C-122.46 762.63 -126.08 767.76 -129.27 771C-132.25 774.02 -137.8 778.14 -141.6 780.14C-145.39 782.14 -150.86 784.28 -153.75 784.89C-156.64 785.5 -161.59 786 -164.75 786.01C-167.91 786.01 -173.09 785.33 -176.25 784.51C-179.41 783.68 -184.36 781.81 -187.25 780.35C-190.14 778.89 -195.12 775.18 -198.32 772.1C-201.52 769.02 -205.31 764.48 -206.73 762C-208.15 759.52 -209.93 755.7 -210.69 753.5C-211.45 751.3 -212.5 746.69 -213.03 743.25C-213.66 739.16 -213.65 734.75 -213 730.5C-212.45 726.92 -211.01 721.41 -209.8 718.25C-208.59 715.09 -206.11 710.59 -201 704L-201 644L-843 644L-843 867L-1094 867L-1093.99 551.25C-1093.98 347.44 -1093.62 230.36 -1092.96 221C-1092.4 213.03 -1091.26 200.65 -1090.42 193.5C-1089.57 186.35 -1087.56 173.86 -1085.94 165.75C-1084.32 157.64 -1081.36 145.94 -1079.36 139.75C-1077.36 133.56 -1073.09 123.33 -1069.88 117C-1066.66 110.67 -1061.16 101.67 -1057.65 97C-1054.14 92.33 -1047.73 85.18 -1043.39 81.13C-1039.05 77.08 -1031.45 71.07 -1026.5 67.78C-1021.55 64.48 -1013.9 60.08 -1009.5 58C-1005.1 55.91 -997.45 52.79 -992.5 51.05C-987.55 49.32 -979.23 46.81 -974 45.49C-968.77 44.16 -957.52 41.96 -949 40.59C-940.48 39.23 -928.55 37.61 -922.5 36.99C-916.45 36.38 -904.07 35.52 -895 35.08C-885.93 34.63 -733.38 34.36 -556 34.46ZM-5832 40L-5492 40L-4926.93 606.5L-4927 40L-4765 40L-4765 783L-4979.5 783L-5560.5 202L-5669 202L-5669 710L-5665.7 714.75C-5663.88 717.36 -5661.36 722.2 -5660.11 725.5C-5658.85 728.8 -5657.57 734.65 -5657.26 738.5C-5656.94 742.48 -5657.23 748.31 -5657.94 752C-5658.62 755.58 -5660.83 761.61 -5662.84 765.42C-5664.85 769.23 -5668.98 774.78 -5672 777.77C-5675.28 781 -5680.33 784.57 -5684.5 786.59C-5688.81 788.68 -5694.39 790.42 -5699 791.11C-5704.63 791.95 -5708.25 791.94 -5713.5 791.06C-5717.35 790.41 -5722.98 788.76 -5726 787.38C-5729.02 786 -5733.75 783.14 -5736.5 781.03C-5739.25 778.92 -5743.5 774.34 -5745.95 770.85C-5748.39 767.36 -5751.31 762.02 -5752.42 759C-5754.01 754.7 -5754.46 751.1 -5754.45 742.5C-5754.44 733.2 -5754.07 730.57 -5752.03 725.5C-5750.7 722.2 -5748.12 717.36 -5743 710L-5743 129L-5528.5 129L-4947.5 710L-4838 710L-4838 113L-4854 113L-4854 694L-4940.5 693.92L-5522 113L-5759 113L-5759 799L-5653 799L-5653 219L-5567 219L-4985.5 798.97L-4749 799L-4748.97 461.25C-4748.94 138.49 -4749.01 123.43 -4750.72 121.86C-4751.7 120.96 -4753.94 117.36 -4755.7 113.86C-4757.46 110.36 -4759.43 105.03 -4760.08 102C-4760.76 98.82 -4761.04 92.92 -4760.73 88C-4760.41 82.86 -4759.36 77.33 -4758.07 74C-4756.9 70.97 -4753.81 65.69 -4751.22 62.25C-4748.62 58.81 -4744.02 54.17 -4741 51.94C-4737.98 49.71 -4733.14 47.01 -4730.25 45.94C-4727.36 44.87 -4722.07 43.55 -4718.5 43C-4714.25 42.35 -4709.84 42.34 -4705.75 42.97C-4702.31 43.5 -4697.48 44.65 -4695 45.52C-4692.52 46.39 -4688.48 48.39 -4686 49.97C-4683.52 51.55 -4679.21 55.24 -4676.41 58.17C-4673.61 61.1 -4670.12 65.86 -4668.66 68.75C-4667.2 71.64 -4665.27 76.81 -4664.38 80.25C-4663.24 84.64 -4662.91 88.88 -4663.27 94.5C-4663.58 99.3 -4664.71 104.9 -4666.09 108.5C-4667.36 111.8 -4669.88 116.64 -4675 124L-4675 872L-5015.5 872.09L-5579.93 306.5L-5580 872L-5832 872L-5832 40ZM-6075.5 115.1C-6072.75 115.03 -6068.02 115.44 -6065 116.01C-6061.98 116.58 -6056.69 118.38 -6053.25 120.02C-6049.81 121.66 -6044.49 125.36 -6041.42 128.25C-6038.35 131.14 -6034.55 135.53 -6032.97 138C-6031.39 140.47 -6029.39 144.53 -6028.52 147C-6027.65 149.47 -6026.5 154.31 -6025.97 157.75C-6025.37 161.61 -6025.35 166.39 -6025.9 170.25C-6026.4 173.69 -6027.84 179.2 -6029.1 182.5C-6030.37 185.8 -6032.89 190.41 -6038 197L-6038 704L-6034.7 708.25C-6032.89 710.59 -6030.41 715.09 -6029.2 718.25C-6027.99 721.41 -6026.55 726.92 -6026 730.5C-6025.35 734.75 -6025.34 739.16 -6025.97 743.25C-6026.5 746.69 -6027.65 751.52 -6028.52 754C-6029.38 756.48 -6031.15 760.3 -6032.44 762.5C-6033.74 764.7 -6037.43 769.02 -6040.65 772.1C-6043.87 775.18 -6048.86 778.89 -6051.75 780.35C-6054.64 781.81 -6059.59 783.68 -6062.75 784.51C-6065.91 785.33 -6071.09 786.01 -6074.25 786.01C-6077.41 786 -6082.36 785.5 -6085.25 784.89C-6088.14 784.28 -6093.61 782.14 -6097.4 780.14C-6101.2 778.14 -6106.75 774.02 -6109.73 771C-6113 767.69 -6116.5 762.72 -6118.53 758.5C-6120.57 754.26 -6122.35 748.54 -6123.03 744C-6123.86 738.45 -6123.86 734.68 -6123.03 729.5C-6122.42 725.65 -6120.78 720.02 -6119.41 717C-6118.03 713.98 -6115.58 709.81 -6111 704L-6111 197.5L-6114.25 192.96C-6116.04 190.47 -6118.48 186.19 -6119.68 183.46C-6120.88 180.73 -6122.37 175.35 -6122.98 171.5C-6123.6 167.65 -6123.79 162.03 -6123.41 159C-6123.03 155.97 -6121.86 151.03 -6120.81 148C-6119.77 144.97 -6117.62 140.47 -6116.04 138C-6114.45 135.53 -6110.65 131.14 -6107.58 128.25C-6104.51 125.36 -6099.19 121.65 -6095.75 120.01C-6092.31 118.36 -6087.48 116.61 -6085 116.11C-6082.52 115.62 -6078.25 115.17 -6075.5 115.1ZM-568.5 124.18C-354.15 124.06 -242.66 124.35 -235 125.04C-228.68 125.6 -217.88 127 -211 128.14C-204.13 129.29 -195.13 131.33 -191 132.68C-186.88 134.03 -179.94 137.02 -175.59 139.32C-170.65 141.93 -164.68 146.32 -159.7 151C-155.31 155.13 -149.89 161.2 -147.67 164.5C-145.44 167.8 -142.41 173.2 -140.92 176.5C-139.44 179.8 -137.25 185.65 -136.07 189.5C-134.88 193.35 -133.05 201.9 -132 208.5C-130.95 215.1 -129.61 226.57 -129.04 234C-128.38 242.57 -128 303.51 -128 554L-916 554L-916.01 410.25C-916.02 284.51 -915.83 265.37 -914.46 257.5C-913.5 251.96 -911.57 245.71 -909.45 241.25C-907.27 236.68 -904.05 232.06 -900.72 228.75C-897.82 225.86 -892.76 222.08 -889.47 220.34C-886.19 218.6 -880.8 216.35 -877.5 215.34C-871.73 213.57 -859.74 213.5 -566.5 213.5C-272.22 213.5 -261.29 213.57 -255.5 215.36C-252.2 216.38 -246.8 218.58 -243.5 220.26C-240.2 221.93 -235.25 225.61 -232.5 228.44C-229.75 231.27 -226.08 236.26 -224.34 239.54C-222.6 242.82 -220.37 248.2 -219.4 251.5C-217.79 256.93 -217.6 263.83 -217 391L-212.95 397.25C-210.73 400.69 -208.02 406.43 -206.93 410C-205.61 414.36 -204.97 419.29 -205 425C-205.03 431.19 -205.66 435.26 -207.32 440C-208.58 443.57 -211.15 448.74 -213.05 451.49C-214.95 454.23 -218.3 458.2 -220.5 460.3C-222.7 462.4 -226.75 465.4 -229.5 466.97C-232.25 468.54 -237.2 470.6 -240.5 471.54C-245 472.83 -249 473.15 -256.5 472.83C-265.55 472.44 -267.26 472.04 -274.5 468.6C-280.24 465.87 -284.22 463.06 -288.58 458.65C-292.36 454.84 -295.85 450.03 -297.78 446C-299.49 442.43 -301.46 436.35 -302.15 432.5C-303.08 427.26 -303.13 423.61 -302.34 418C-301.77 413.88 -300.22 408.02 -298.91 405C-297.6 401.98 -294.99 397.48 -289.72 390.5L-290.26 344C-290.59 315.33 -291.21 295.97 -291.88 293.5C-292.48 291.3 -293.31 289.18 -293.74 288.78C-294.16 288.39 -299 287.58 -304.5 286.99C-311.44 286.25 -394.22 286.01 -575 286.23C-741.29 286.44 -836.33 286.9 -837.8 287.52C-839.13 288.09 -840.59 289.98 -841.24 292C-842.03 294.47 -842.46 322.91 -843 481L-201 481L-201.35 359.75C-201.65 252.34 -201.88 237.44 -203.35 229.25C-204.26 224.16 -206.13 217.53 -207.5 214.5C-208.88 211.47 -211.46 207.89 -213.25 206.53C-215.04 205.17 -218.75 203.18 -221.5 202.11C-224.25 201.04 -230.55 199.57 -235.5 198.83C-242.86 197.74 -303.26 197.5 -566.5 197.5C-829.74 197.5 -890.14 197.74 -897.5 198.83C-902.45 199.57 -908.75 201.04 -911.5 202.11C-914.25 203.18 -917.96 205.17 -919.75 206.53C-921.54 207.89 -924.12 211.47 -925.5 214.5C-926.88 217.53 -928.75 224.16 -929.68 229.25C-931.21 237.7 -931.38 258.73 -932 704L-928.7 708.25C-926.89 710.59 -924.37 715.2 -923.1 718.5C-921.84 721.8 -920.4 727.31 -919.9 730.75C-919.36 734.51 -919.37 739.49 -919.92 743.25C-920.43 746.69 -921.57 751.52 -922.47 754C-923.36 756.48 -925.15 760.3 -926.44 762.5C-927.74 764.7 -931.43 769.02 -934.65 772.1C-937.87 775.18 -942.86 778.89 -945.75 780.35C-948.64 781.81 -953.59 783.68 -956.75 784.51C-959.91 785.33 -965.2 786.01 -968.5 786.01C-971.8 786.01 -977.09 785.33 -980.25 784.51C-983.41 783.68 -988.36 781.81 -991.25 780.35C-994.14 778.89 -999.13 775.18 -1002.35 772.1C-1005.57 769.02 -1009.27 764.7 -1010.56 762.5C-1011.86 760.3 -1013.77 756.02 -1014.82 753C-1015.86 749.98 -1017.03 745.02 -1017.41 742C-1017.79 738.98 -1017.67 733.8 -1017.14 730.5C-1016.61 727.2 -1015.15 721.8 -1013.89 718.5C-1012.63 715.2 -1010.11 710.59 -1005 704L-1004.69 467.25C-1004.41 248.77 -1004.25 229.57 -1002.65 218.5C-1001.69 211.9 -1000.08 202.68 -999.06 198C-998.05 193.32 -995.92 186.13 -994.34 182C-992.75 177.88 -989.38 171.13 -986.84 167C-984.07 162.51 -978.86 156.29 -973.85 151.5C-967.17 145.12 -963.35 142.44 -954.99 138.25C-948.85 135.17 -940.56 132 -935 130.59C-929.77 129.27 -919.65 127.47 -912.5 126.6C-905.35 125.72 -897.48 124.86 -895 124.68C-892.52 124.5 -745.6 124.27 -568.5 124.18ZM954 130.11C958.13 130.08 963.52 130.52 966 131.09C968.48 131.66 973.4 133.56 976.93 135.31C980.47 137.06 985.89 140.97 988.97 144C992.32 147.29 996 152.31 998.13 156.5C1000.29 160.76 1002.18 166.43 1002.95 171C1003.93 176.8 1003.96 180.2 1003.08 186C1002.45 190.19 1000.59 196.37 998.87 200C996.97 204.02 993.45 208.91 989.65 212.82C985.54 217.05 981.18 220.29 976.5 222.6C972.65 224.5 966.83 226.6 957.64 228.5L700.5 487.06L486.48 487L387.99 585.75C333.82 640.06 280.15 693.95 247.97 726.5L246.42 733C245.58 736.58 243.45 742.15 241.69 745.4C239.92 748.67 235.72 753.89 232.25 757.15C228.81 760.37 223.19 764.33 219.75 765.95C216.31 767.58 210.13 769.42 206 770.06C200.39 770.93 196.74 770.93 191.5 770.09C187.65 769.47 181.35 767.45 177.5 765.6C173.65 763.75 168.7 760.69 166.5 758.79C164.3 756.9 160.56 752.46 158.18 748.93C155.8 745.38 152.94 739.36 151.8 735.5C150.12 729.83 149.81 726.7 150.2 719C150.52 712.75 151.41 707.62 152.79 704C153.95 700.98 156.83 695.86 159.2 692.64C161.56 689.42 166.2 684.78 169.5 682.33C172.8 679.88 177.86 677.01 180.75 675.94C183.64 674.87 189.04 673.56 199.5 672.05L457.51 414L668 414L786.53 296.25C851.72 231.49 905.22 177.6 905.42 176.5C905.62 175.4 906.29 171.8 906.91 168.5C907.53 165.2 909.09 160.25 910.37 157.5C911.65 154.75 914.39 150.47 916.47 148C918.55 145.53 922.55 141.75 925.37 139.61C928.19 137.48 932.07 135.05 934 134.22C935.93 133.39 939.52 132.14 942 131.45C944.48 130.75 949.88 130.15 954 130.11Z" />
	</g>
</svg>