<svg xmlns="http://www.w3.org/2000/svg" xmlns:xlink="http://www.w3.org/1999/xlink" viewBox="-0.00011860579252243042 0.00020200014114379883 92.08806610107422 56.65599822998047" version="1.1" xml:space="preserve" style="fill-rule:evenodd;clip-rule:evenodd;stroke-linejoin:round;stroke-miterlimit:2;">
    <g id="Content" transform="matrix(1,0,0,1,0.0378814,-0.013798)">
        <path d="M92.05,35.4C92.05,35.363 92.05,35.327 92.05,35.29C92.05,23.698 82.512,14.16 70.92,14.16C69.673,14.16 68.428,14.27 67.2,14.49C62.194,5.561 52.724,0.014 42.488,0.014C29.525,0.014 18.136,8.912 15,21.49C6.391,22.795 -0.038,30.273 -0.038,38.98C-0.038,48.685 7.948,56.67 17.652,56.67C17.668,56.67 17.684,56.67 17.7,56.67L71.51,56.67C82.909,56.299 92.078,46.805 92.05,35.4Z" style="fill: rgb(2, 62, 90); fill-rule: nonzero;"></path>
    </g>
</svg>