<svg version="1.1" id="Layer_1" xmlns="http://www.w3.org/2000/svg" xmlns:xlink="http://www.w3.org/1999/xlink" x="0px" y="0px"
	 viewBox="0 0 370 338.7" style="enable-background:new 0 0 370 338.7;" xml:space="preserve">
<g id="Sketch-Symbol_Sketch-Symbol-Light---Transparent">
	<path id="Symbol" d="M185.9,0l101.6,11.5c2.1,0.2,4.1,1.4,5.4,3.1l75.6,101.9c2.2,2.9,2,6.9-0.3,9.7L188,337.4
		c-1.4,1.6-3.9,1.8-5.5,0.4c-0.2-0.1-0.3-0.3-0.4-0.4L1.9,126.1c-2.3-2.8-2.5-6.8-0.3-9.7L77.2,14.6c1.3-1.7,3.2-2.9,5.4-3.1
		L184.1,0C184.7-0.1,185.3-0.1,185.9,0z M207,22c-0.6-0.7-1.7-0.7-2.3,0c-0.6,0.5-0.7,1.4-0.3,2l0.1,0.2l57.3,71.3
		c1.3,1.7,1.1,4.1-0.6,5.5c-0.6,0.5-1.3,0.8-2.1,0.8h-0.3H111.2c-2.1,0-3.9-1.8-3.9-3.9c0-0.7,0.2-1.5,0.6-2.1l0.2-0.3l57.3-71.3
		c0.6-0.7,0.5-1.7-0.2-2.3c-0.6-0.5-1.4-0.5-2,0L163,22l-77.6,78c-1.2,1.2-3.2,1.2-4.4,0c-0.5-0.5-0.9-1.2-0.9-2v-0.3l2.7-56.5
		c0-0.9-0.7-1.6-1.5-1.6c-0.6,0-1.2,0.4-1.5,1l-0.1,0.2l-14.7,65c-0.5,2.2-2.2,4-4.3,4.6l-0.4,0.1l-36.4,7.8
		c-0.7,0.2-1.2,0.8-1.2,1.5c0,0.8,0.6,1.4,1.4,1.5h0.2h36.3c2.1,0,4.1,1.1,5.2,2.8l0.2,0.4L153,280c0.5,1.2,1.9,1.7,3.1,1.2
		s1.7-1.9,1.2-3.1l-0.1-0.2L86.8,128.1c-0.3-0.6-0.5-1.3-0.4-2c0-2.5,1.9-4.5,4.3-4.7H279c2.6,0,4.7,2.1,4.7,4.6
		c0,0.6-0.1,1.2-0.3,1.7l-0.1,0.3l-70.4,149.7c-0.5,1.2,0,2.6,1.1,3.1c1,0.5,2.2,0.2,2.9-0.7l0.1-0.2l87.1-155.4c1-1.8,2.9-3,5-3.2
		h36.8c0.9,0,1.5-0.8,1.5-1.6c0-0.6-0.4-1.1-1-1.4l-0.2-0.1l-36.4-7.8c-2.2-0.5-4-2.1-4.6-4.3l-0.1-0.4l-14.7-65.1
		c-0.2-0.8-1-1.4-1.9-1.2c-0.6,0.2-1.1,0.7-1.2,1.4v0.2l2.7,56.5c0.1,1.7-1.2,3.2-2.9,3.3c-0.8,0-1.5-0.2-2.1-0.7l-0.2-0.2L207,22z"
		/>
</g>
</svg>
