<svg id="Layer_1" data-name="Layer 1" xmlns="http://www.w3.org/2000/svg" viewBox="0 0 380 380"><g id="Sketch-Symbol_Sketch-Symbol-Light---Transparent" data-name="Sketch-Symbol/Sketch-Symbol-Light---Transparent"><path id="Symbol" d="M190.54,20.94,292.13,32.4a7.78,7.78,0,0,1,5.38,3.09l75.62,101.86a7.76,7.76,0,0,1-.33,9.68L192.63,358.29a3.9,3.9,0,0,1-5.49.43,4.47,4.47,0,0,1-.44-.43L6.52,147a7.78,7.78,0,0,1-.32-9.68L81.82,35.49A7.76,7.76,0,0,1,87.2,32.4L188.79,20.94A8.53,8.53,0,0,1,190.54,20.94Zm21.09,22a1.65,1.65,0,0,0-2.6,2l.14.2,57.29,71.29a3.89,3.89,0,0,1-2.71,6.31l-.32,0H115.9a3.89,3.89,0,0,1-3.24-6l.21-.28,57.29-71.29a1.65,1.65,0,0,0-2.27-2.36l-.19.16-77.61,78a3.12,3.12,0,0,1-5.32-2v-.3l2.68-56.5a1.56,1.56,0,0,0-3-.62l-.06.21-14.7,65a6.26,6.26,0,0,1-4.35,4.61l-.42.1-36.41,7.84a1.57,1.57,0,0,0-1.23,1.52,1.55,1.55,0,0,0,1.35,1.54l.21,0H65.14a6.25,6.25,0,0,1,5.22,2.82l.21.36,87.14,155.36A2.33,2.33,0,0,0,162,299l-.09-.23L91.42,149a4.55,4.55,0,0,1-.45-2,4.67,4.67,0,0,1,4.34-4.66H283.68a4.66,4.66,0,0,1,4.36,6.35l-.13.3L217.47,298.73a2.33,2.33,0,0,0,4,2.35l.14-.22L308.75,145.5a6.25,6.25,0,0,1,5-3.17h36.75a1.56,1.56,0,0,0,.53-3l-.21-.06-36.41-7.84a6.21,6.21,0,0,1-4.65-4.3l-.11-.41L295,61.66a1.56,1.56,0,0,0-3.07.2v.21l2.68,56.5a3.11,3.11,0,0,1-5.08,2.56l-.24-.21Z"/></g></svg>