<svg viewBox="0 0 136 129" version="1.1" xmlns="http://www.w3.org/2000/svg" xmlns:xlink="http://www.w3.org/1999/xlink">
    <!-- Generator: Sketch 56.2 (81672) - https://sketch.com -->
    <title>Logomark / Guilded-Wordmark-Color</title>
    <desc>Created with Sketch.</desc>
    <g id="Logomark-/-Guilded-Wordmark-Color" stroke="none" stroke-width="1" fill="none" fill-rule="evenodd">
        <rect id="Rectangle" fill="#F5C400" x="0" y="0" width="136" height="129"></rect>
        <path d="M47.8903288,48.2641509 C47.8903288,48.2641509 47.9503286,56.8036226 52.3351089,65.6355094 C56.8398888,74.1369434 63.0510609,79.5977358 68.175038,81.7730189 C73.4694143,79.2981887 78.5837914,75.0023019 81.3749789,70.3735849 L66.840644,70.3735849 C63.0798608,67.2568679 60.1206741,62.0861132 59.4414771,56.109434 L102.079686,56.109434 C99.9772956,65.718717 95.5157156,74.4578868 91.2653346,80.023283 C85.3658754,87.739919 77.3664831,93.6292832 68.2062379,97 L68.0718385,97 C52.7791069,90.9068302 44.5519438,81.309434 39.1231681,70.480566 C35.6407837,63.5410566 32,50.9410566 32,34 L104,34 C104.011637,38.7709414 103.690875,43.5370029 103.039682,48.2641509 L47.8903288,48.2641509 Z" id="Path" fill="#111820" fill-rule="nonzero"></path>
    </g>
</svg>