<svg viewBox="0 0 512 512" xmlns="http://www.w3.org/2000/svg">
    <defs>
        <radialGradient cx="50%" cy="46.315893%" fx="50%" fy="46.315893%" r="26.3279859%" gradientTransform="translate(0.500000,0.463159),rotate(151.814365),scale(1.000000,1.564189),translate(-0.500000,-0.463159)" id="radialGradient-1">
            <stop stop-color="#2A39C6" offset="0%"></stop>
            <stop stop-color="#6674FC" offset="100%"></stop>
        </radialGradient>
        <linearGradient x1="77.6096571%" y1="0%" x2="20.8873255%" y2="100%" id="linearGradient-2">
            <stop stop-color="#347FE0" offset="0%"></stop>
            <stop stop-color="#A64CF2" offset="100%"></stop>
        </linearGradient>
    </defs>
    <g id="Logo-Square" stroke="none" stroke-width="1" fill="none" fill-rule="evenodd">
        <g transform="translate(56.000000, 30.000000)">
            <g id="Logo/Dark/Symbol" transform="translate(21.000000, 0.000000)">
                <path d="M118.808032,0 C125.077296,0 130.914727,2.99628914 134.295682,7.94964146 L355.096383,331.439211 C356.992339,334.216929 358,337.446302 358,340.744785 C358,350.274577 349.765949,358 339.608733,358 L232.285808,358 C225.922839,358 220.011915,354.91414 216.657584,349.841121 L2.76304352,26.3515514 C0.95697072,23.6200852 0,20.4696001 0,17.2552153 C0,7.72542303 8.23405068,0 18.3912669,0 L118.808032,0 Z" id="Rectangle-Copy-22" fill="url(#radialGradient-1)"></path>
                <path d="M239.191968,0 L339.608733,0 C349.765949,0 358,7.72542303 358,17.2552153 C358,20.4696001 357.043029,23.6200852 355.236956,26.3515514 L141.342416,349.841121 C137.988085,354.91414 132.077161,358 125.714192,358 L18.3912669,358 C8.23405068,358 0,350.274577 0,340.744785 C0,337.446302 1.00766091,334.216929 2.90361701,331.439211 L223.704318,7.94964146 C227.085273,2.99628914 232.922704,0 239.191968,0 Z" id="Rectangle-Copy-23" fill="url(#linearGradient-2)"></path>
            </g>
            <path d="M46.3588246,399.09509 L29.4214273,425.012229 L46.4318306,450.856361 L34.2398248,450.856361 L23.0699033,432.969885 L11.8269757,450.856361 L0,450.856361 L17.0104034,424.939222 L0.073006023,399.09509 L12.1920058,399.09509 L23.2889213,416.981566 L34.6048549,399.09509 L46.3588246,399.09509 Z M94.6888118,450.856361 L90.3814565,439.029385 L69.3557218,439.029385 L65.0483665,450.856361 L54.3894871,450.856361 L74.2471254,399.09509 L85.9280891,399.09509 L105.639715,450.856361 L94.6888118,450.856361 Z M79.8685892,410.265012 L72.7139989,429.830626 L87.0231794,429.830626 L79.8685892,410.265012 Z M163.75251,450.856361 L153.166636,450.856361 L129.658697,414.134331 L129.658697,450.856361 L119.583866,450.856361 L119.583866,399.09509 L132.140902,399.09509 L153.677678,433.334915 L153.677678,399.09509 L163.75251,399.09509 L163.75251,450.856361 Z M193.027925,422.676036 L200.985581,422.676036 C206.022997,422.676036 209.08925,419.755795 209.08925,415.302427 C209.08925,410.703048 206.022997,407.855813 200.985581,407.855813 L193.027925,407.855813 L193.027925,422.676036 Z M202.226684,431.363753 L192.954919,431.363753 L192.954919,450.856361 L182.880088,450.856361 L182.880088,399.09509 L202.226684,399.09509 C212.447527,399.09509 219.237087,405.88465 219.237087,415.229421 C219.237087,424.647198 212.447527,431.363753 202.226684,431.363753 Z M241.795948,424.939222 C241.795948,436.620186 249.972623,442.168644 257.930279,442.168644 C265.960942,442.168644 274.137616,436.620186 274.137616,424.939222 C274.137616,413.258259 265.960942,407.709801 257.930279,407.709801 C249.972623,407.709801 241.795948,413.258259 241.795948,424.939222 Z M231.356087,425.012229 C231.356087,408.293849 243.913123,398 257.930279,398 C272.020442,398 284.577478,408.293849 284.577478,425.012229 C284.577478,441.657602 272.020442,451.951451 257.930279,451.951451 C243.913123,451.951451 231.356087,441.657602 231.356087,425.012229 Z M308.012411,424.939222 C308.012411,436.620186 316.189086,442.168644 324.146742,442.168644 C332.177405,442.168644 340.354079,436.620186 340.354079,424.939222 C340.354079,413.258259 332.177405,407.709801 324.146742,407.709801 C316.189086,407.709801 308.012411,413.258259 308.012411,424.939222 Z M297.57255,425.012229 C297.57255,408.293849 310.129586,398 324.146742,398 C338.236905,398 350.793941,408.293849 350.793941,425.012229 C350.793941,441.657602 338.236905,451.951451 324.146742,451.951451 C310.129586,451.951451 297.57255,441.657602 297.57255,425.012229 Z M400,450.856361 L366.855266,450.856361 L366.855266,399.09509 L376.930097,399.09509 L376.930097,441.219566 L400,441.219566 L400,450.856361 Z" id="XANPOOL" fill="#5B69F2" fill-rule="nonzero"></path>
        </g>
    </g>
</svg>