<svg clip-rule="evenodd" fill-rule="evenodd" stroke-linejoin="round" stroke-miterlimit="2" version="1.1" viewBox="-.00067318 67.499 500 365" xml:space="preserve" xmlns="http://www.w3.org/2000/svg">
    <g transform="matrix(2.5 0 0 2.5 -4.8225e-5 67.5)">
        <path d="m51.313 98.888 48.687-28.267 81.146 47.112-48.688 28.267-81.145-47.112zm-37.868-21.985c-17.927-10.408-17.927-27.282 0-37.689l16.229-9.423 48.687 28.267-48.687 28.267-16.229-9.422zm108.19-18.845 48.687-28.267 16.229 9.423c17.927 10.407 17.927 27.281 0 37.689l-16.229 9.422-48.687-28.267zm-70.326-40.83 16.229-9.422c17.926-10.408 46.99-10.408 64.916 0l16.229 9.422-48.687 28.267-48.687-28.267z" fill="#009991" fill-rule="nonzero"/>
    </g>
</svg>
