<?xml version="1.0" encoding="utf-8"?>
<!-- Generator: Adobe Illustrator 24.1.0, SVG Export Plug-In . SVG Version: 6.00 Build 0)  -->
<svg version="1.1" id="Layer_1" xmlns="http://www.w3.org/2000/svg" xmlns:xlink="http://www.w3.org/1999/xlink" x="0px" y="0px"
	 viewBox="0 0 1024 1024" style="enable-background:new 0 0 1024 1024;" xml:space="preserve">
<style type="text/css">
	.st0{fill:url(#SVGID_1_);}
	.st1{fill:#FFFFFF;}
</style>
<linearGradient id="SVGID_1_" gradientUnits="userSpaceOnUse" x1="0.4059" y1="513.8635" x2="1024.4059" y2="513.8635" gradientTransform="matrix(6.123234e-17 1 -1 6.123234e-17 1026 0)">
	<stop  offset="0" style="stop-color:#365DC9"/>
	<stop  offset="1" style="stop-color:#222C94"/>
</linearGradient>
<circle class="st0" cx="512.14" cy="512.41" r="512"/>
<g id="Group_11544_1_" transform="translate(-526.758 -488.04)">
	<path id="Path_5701" class="st1" d="M1038.42,744.04h208.53c14.22-0.11,28.28,3.02,41.11,9.15c12.45,5.89,23.53,14.32,32.52,24.75
		h0.53c6.91,8.06,12.53,17.14,16.66,26.91c4.34,10.23,6.71,21.18,6.99,32.29v0.53c0.02,20.68-2.51,41.28-7.52,61.34l0.53-1.62
		c-4.66,26.19-9.32,52.55-13.97,79.09l-13.97,79.63c-3.94,22.98-7.88,45.85-11.82,68.61c-3.94,22.75-8.06,45.45-12.36,68.09
		c-5.77,25.63-19.05,48.96-38.15,67c-18.65,18.12-42.54,29.89-68.28,33.61l-1.08,0.53c-2.87,0.36-5.92,0.63-9.13,0.81
		c-3.22,0.18-6.44,0.27-9.67,0.26H917.99c-15.47,0.13-30.81-2.8-45.15-8.62c-13.99-5.18-26.99-12.73-38.42-22.31
		c-11.37-9.61-20.93-21.18-28.22-34.17c-7.54-13-12.8-27.2-15.55-41.97v-1.07c-16.12-91.12-32.43-182.06-48.9-272.82
		c-1.43-8.97-3.04-18.03-4.83-27.18c-1.79-9.14-3.23-18.2-4.31-27.18c-0.35-2.51-0.72-5.2-1.07-8.06c-0.37-3.03-0.55-6.09-0.53-9.15
		c-0.01-46.73,33.12-86.89,79-95.78l0.53-0.53c3.82-0.75,7.68-1.29,11.56-1.62c4.12-0.35,8.33-0.53,12.63-0.53h203.7L1038.42,744.04
		z M984.1,1120.69v55.96c-0.11,7.96,2.99,15.62,8.62,21.25c5.6,5.85,13.4,9.07,21.5,8.86h48.37c16.59-0.11,30-13.55,30.1-30.14
		v-110.81c-0.04-1.97,0.42-3.92,1.35-5.65c0.89-1.61,2.33-2.85,4.06-3.5c48.85-29.58,68.55-90.57,46.22-143.13
		c-5.86-13.65-14.24-26.06-24.71-36.59c-21.57-21.43-50.75-33.42-81.15-33.35c-5.04,0-10.06,0.36-15.05,1.07
		c-5.02,0.72-10.03,1.62-15.05,2.7h1.07c-34.74,7.35-63.67,31.28-77.39,64.03l-0.53,0.53c-2.57,6.69-4.46,13.61-5.64,20.68
		c-1.26,7.37-1.88,14.83-1.88,22.31c-0.21,20.74,5.08,41.16,15.32,59.19c9.68,17.37,23.42,32.14,40.04,43.05l0.53,0.53
		c1.3,0.6,2.41,1.53,3.22,2.7c0.73,1.12,1.1,2.43,1.07,3.77v56.49L984.1,1120.69z"/>
</g>
</svg>
