<svg xmlns="http://www.w3.org/2000/svg" version="1.2" baseProfile="tiny-ps" viewBox="28.44 35.94 483.48 441.07">
	<style>
		tspan { white-space:pre }
		.shp0 { fill: #caf4ff } 
		.shp1 { fill: #007cfc } 
		.shp2 { fill: #50baff } 
	</style>
	<g id="Background">
		<path id="Path 0" class="shp0" d="M14.5 38.35C11.75 39.63 7.96 42.43 6.08 44.59C4.2 46.74 2.06 49.96 1.33 51.75C0.6 53.54 0 58.15 0 62C0 65.85 0.47 70.24 1.05 71.75C1.62 73.26 7.58 82.69 14.3 92.7C21.01 102.72 26.92 110.82 27.42 110.7C27.93 110.59 28.39 107.35 28.45 103.5C28.53 97.73 29.07 95.56 31.52 91.1C33.16 88.13 35.85 84.67 37.5 83.41C39.15 82.15 42.19 80.42 44.25 79.56C47.53 78.19 56.95 78 119.75 78.02C189.11 78.04 191.64 78.11 195.75 80.02C198.32 81.22 200.2 81.6 200.5 81C200.78 80.45 200.7 79.44 200.32 78.75C199.95 78.06 194.93 70.75 189.16 62.5C183.4 54.25 177.29 45.98 175.59 44.13C173.89 42.27 170.25 39.69 167.5 38.39L162.5 36.02L19.5 36.02L14.5 38.35Z"></path>
		<path id="Path 1" class="shp1" d="M312.05 37.35C310.15 37.98 306.37 40.52 303.64 43C300.9 45.48 297.85 49.3 296.86 51.5C295.74 53.97 295.04 57.9 295.02 61.75C295.01 65.19 295.61 69.46 296.35 71.25C297.09 73.04 320.52 110.72 348.43 155C376.33 199.28 400.59 236.97 402.33 238.76C404.07 240.55 407.75 242.98 410.5 244.16C413.6 245.49 417.59 246.3 421 246.3C424.02 246.29 428.3 245.52 430.5 244.58C432.7 243.64 435.85 241.86 437.5 240.62C439.3 239.26 454.24 216.63 474.91 183.93C493.84 153.99 509.97 127.92 510.77 126C511.74 123.63 512.09 119.91 511.85 114.49L511.5 106.47C483.6 62.33 474.15 47.73 472.5 45.56C470.82 43.35 467.09 40.37 464 38.78L458.5 35.94C336.19 36.17 314.5 36.54 312.05 37.35Z"></path>
		<path id="Path 2" class="shp2" d="M42.07 80.74C39.08 82.26 35.64 84.85 34.43 86.5C33.23 88.15 31.41 91.08 30.41 93C29.21 95.3 28.54 98.9 28.45 103.5C28.36 107.93 28.85 111.6 29.79 113.5C30.6 115.15 38.18 127.64 46.63 141.25C55.64 155.75 62.62 166 63.5 166C64.66 166 65 164.69 65.01 160.25C65.02 156.37 65.77 152.88 67.33 149.5C68.6 146.75 71.41 143.02 73.57 141.22C75.73 139.41 79.75 137.27 82.5 136.46C86.74 135.21 98.18 135.02 157.5 135.24L227.5 135.5C234.47 138.97 236.84 139.98 237.25 139.99C237.66 139.99 238.01 139.44 238.01 138.75C238.02 138.06 231.01 126.25 222.43 112.5C213.86 98.75 205.42 86.04 203.67 84.26C201.93 82.49 200.39 81.25 200.25 81.51C200.11 81.78 198.09 81.11 195.75 80.02C191.64 78.11 189.1 78.04 119.5 78.01L47.5 77.98L42.07 80.74Z"></path>
		<path id="Path 3" class="shp1" d="M82 136.51C79.53 137.28 75.7 139.42 73.5 141.28C71.28 143.16 68.54 146.85 67.34 149.58C66.05 152.54 65.07 157.09 64.9 161C64.75 164.57 65 168.63 65.47 170C65.94 171.38 80.79 195.45 98.48 223.5C116.17 251.55 157.56 317.25 190.45 369.5C227.73 428.72 252 466.29 254.88 469.26C257.77 472.23 261.19 474.58 264 475.52C266.48 476.35 270.86 477.02 273.75 477.01C276.73 477.01 280.84 476.18 283.25 475.1C285.59 474.05 288.95 471.91 290.73 470.35C292.5 468.78 308.44 444.55 326.15 416.5C343.85 388.45 359.84 362.69 361.67 359.25C364.34 354.24 365 351.86 364.99 347.25C364.98 343.33 364.24 339.91 362.64 336.5C361.36 333.75 357.16 326.55 353.31 320.5C349.46 314.45 323.9 273.95 296.51 230.5C269.12 187.05 244.86 148.9 242.6 145.71C240.35 142.53 238.05 139.94 237.5 139.95C236.95 139.96 234.47 138.97 232 137.74L227.5 135.5C99.2 135.15 85.69 135.37 82 136.51Z"></path>
	</g>
</svg>
