<svg xmlns="http://www.w3.org/2000/svg" version="1.1" viewBox="0 0 512 512" style="shape-rendering:geometricPrecision; text-rendering:geometricPrecision; image-rendering:optimizeQuality; fill-rule:evenodd; clip-rule:evenodd" >
<path style="opacity:1" fill="#1e2127" d="M -0.5,-0.5 C 170.167,-0.5 340.833,-0.5 511.5,-0.5C 511.5,170.167 511.5,340.833 511.5,511.5C 340.833,511.5 170.167,511.5 -0.5,511.5C -0.5,340.833 -0.5,170.167 -0.5,-0.5 Z"/>
<path style="opacity:1" fill="#fec72a" d="M 360.5,151.5 C 290.669,150.501 220.669,150.167 150.5,150.5C 150.5,193.5 150.5,236.5 150.5,279.5C 137.167,279.5 123.833,279.5 110.5,279.5C 110.5,223.167 110.5,166.833 110.5,110.5C 207.167,110.5 303.833,110.5 400.5,110.5C 400.5,137.5 400.5,164.5 400.5,191.5C 387.167,191.5 373.833,191.5 360.5,191.5C 360.5,178.167 360.5,164.833 360.5,151.5 Z"/>
<path style="opacity:1" fill="#594c29" d="M 360.5,151.5 C 290.833,151.5 221.167,151.5 151.5,151.5C 151.832,194.337 151.499,237.003 150.5,279.5C 150.5,236.5 150.5,193.5 150.5,150.5C 220.669,150.167 290.669,150.501 360.5,151.5 Z"/>
<path style="opacity:1" fill="#fec72a" d="M 360.5,236.5 C 373.833,236.5 387.167,236.5 400.5,236.5C 400.5,291.167 400.5,345.833 400.5,400.5C 303.833,400.5 207.167,400.5 110.5,400.5C 110.5,376.833 110.5,353.167 110.5,329.5C 123.833,329.5 137.167,329.5 150.5,329.5C 150.5,339.833 150.5,350.167 150.5,360.5C 220.5,360.5 290.5,360.5 360.5,360.5C 360.5,319.167 360.5,277.833 360.5,236.5 Z"/>
</svg>
