<svg version="1.1" id="layer" xmlns="http://www.w3.org/2000/svg" xmlns:xlink="http://www.w3.org/1999/xlink" x="0px" y="0px" viewBox="79.42396545410156 71 483.65386962890625 500" style="enable-background:new 0 0 652 652;" xml:space="preserve">
<style type="text/css">
	.st0{fill:#8065C6;}
	.st1{fill:#127093;}
	.st2{fill:#FFFFFF;}
</style>
<g id="big-logosvg">
	<path id="path-1" class="st0" d="M538.6,321.2c21-18.8,30.1-48.8,20.9-77.2c-9.1-27.9-35-47.1-62.4-50.6l-310.2-9.8L143,377.4
		c0,0,3.3,70.7,2.7,70.7c-5.4,27.1,4.3,57.7,28.2,75.1c24.3,17.6,55.7,18.2,80.1,4.2C265.3,553,291.1,571,321,571
		c30,0,55.8-17.9,67.2-43.6c24.4,14.1,55.8,13.5,80.1-4.1c24.3-17.6,34.6-47.2,28.7-74.7c28-2.9,53.1-21.8,62.4-50.2
		C568.7,370,559.6,340,538.6,321.2z"></path>
	<path id="path-2" class="st1" d="M497.1,193.4c5.1-27-4.9-57.3-28.6-74.5c-24.2-17.6-55.6-18.3-80-4.2C377.1,89,351.3,71,321.4,71
		c-30,0-55.7,17.9-67.2,43.6c-24.4-14.1-55.8-13.5-80,4.1c-24.3,17.6-34.6,47.3-28.7,74.8c-28,2.9-53.1,21.8-62.3,50.3
		c-9.3,28.5-0.2,58.5,20.8,77.4C82.9,340,73.8,370,83,398.5c9.1,28.1,35.3,46.6,62.7,50l111.4-194.4L497.1,193.4z"></path>
	<path id="path-3" class="st2" d="M460.2,386.8H231.9l-11.2,60.9c0,0-72.5,0-75.7,0l48.6-254.3h303.5L460.2,386.8z M260.2,256.4
		l-13,63h150l13-63H260.2z"></path>
</g>
</svg>
