<svg xmlns="http://www.w3.org/2000/svg" xmlns:xlink="http://www.w3.org/1999/xlink" viewBox="-0.5625,-0.5664060115814209,254.875,216.44531273841858" version="1.1" style="zoom: 1;">
    <defs>
        <clipPath id="clip1">
            <path d="M 0 0.0195313 L 254.878906 0.0195313 L 254.878906 217 L 0 217 Z M 0 0.0195313"></path>
        </clipPath>
        <clipPath id="clip2">
            <path d="M 1807 83 L 1836.140625 83 L 1836.140625 112 L 1807 112 Z M 1807 83"></path>
        </clipPath>
    </defs>
    <g id="surface1">
        <g clip-path="url(#clip1)" clip-rule="nonzero">
            <path style="stroke:none;fill-rule:nonzero;fill:rgb(88.999939%,55.299377%,14.498901%);fill-opacity:1;" d="M61.601563,97.207031 C80.816406,97.207031 97.203125,127.722656 100.03125,175.195313 L100.597656,175.195313 C103.421875,165.59375 104.554688,155.980469 103.988281,145.804688 C103.988281,111.335938 88.164063,80.816406 66.121094,80.816406 C45.210938,80.816406 43.515625,97.769531 48.605469,105.121094 C50.296875,102.296875 54.253906,97.207031 61.601563,97.207031 M83.078125,183.675781 C83.644531,179.148438 84.773438,175.765625 84.773438,170.105469 C84.773438,148.066406 71.773438,113.027344 46.90625,113.027344 C27.695313,113.027344 24.867188,131.117188 31.082031,136.765625 C32.214844,132.808594 36.734375,127.160156 44.082031,127.160156 C64.425781,127.160156 79.121094,158.808594 82.511719,183.675781 M207.40625,105.121094 C209.105469,102.296875 210.234375,98.898438 210.234375,96.640625 C210.234375,88.164063 202.320313,80.25 191.019531,80.25 C158.238281,80.25 145.808594,137.894531 155.414063,175.195313 C158.804688,124.332031 175.195313,97.207031 193.84375,97.207031 C203.449219,97.207031 206.277344,102.859375 207.40625,105.121094 M208.539063,113.027344 C177.457031,113.027344 166.152344,165.59375 172.367188,183.675781 C176.324219,157.113281 190.453125,127.160156 210.234375,127.160156 C220.40625,127.160156 223.230469,133.941406 223.796875,136.765625 C230.578125,129.421875 226.621094,113.027344 208.539063,113.027344 M133.375,201.195313 C114.726563,201.195313 95.511719,205.714844 79.683594,215.890625 L79.683594,216.445313 C87.597656,214.757813 106.246094,213.0625 129.417969,213.0625 C154.851563,213.0625 163.894531,216.445313 168.414063,216.445313 C171.238281,216.445313 172.367188,214.757813 172.367188,211.929688 C172.367188,204.582031 153.71875,201.195313 133.375,201.195313 M133.375,181.410156 C117.550781,181.410156 95.511719,185.933594 79.683594,196.105469 L79.683594,196.671875 C85.902344,195.542969 106.8125,193.277344 129.984375,193.277344 C152.023438,193.277344 165.019531,196.671875 168.414063,196.671875 C171.238281,196.671875 172.367188,194.972656 172.367188,192.152344 C172.367188,184.804688 153.71875,181.410156 133.375,181.410156 M207.40625,55.949219 C205.148438,56.515625 201.757813,59.90625 201.757813,65.558594 C201.757813,71.773438 206.277344,84.207031 223.796875,84.207031 C241.882813,84.207031 254.3125,70.644531 254.3125,51.992188 C254.3125,33.910156 240.75,17.519531 211.929688,17.519531 C177.457031,17.519531 133.375,48.039063 133.375,122.632813 C133.375,137.335938 135.070313,152.589844 138.460938,169.546875 L139.023438,169.546875 C139.023438,77.425781 173.5,34.476563 210.796875,34.476563 C226.621094,34.476563 235.097656,44.648438 235.097656,54.820313 C235.097656,64.996094 229.449219,71.773438 220.40625,71.773438 C209.105469,71.773438 205.714844,62.167969 207.40625,55.949219 M45.777344,67.253906 C44.648438,69.515625 40.691406,72.90625 33.910156,72.90625 C24.867188,72.90625 18.085938,66.121094 18.085938,55.949219 C18.085938,46.910156 25.996094,37.300781 40.125,37.300781 C75.164063,37.300781 116.421875,88.164063 116.984375,152.589844 C116.984375,156.546875 116.984375,163.894531 116.421875,169.546875 L116.984375,169.546875 C120.375,158.808594 123.765625,141.289063 123.765625,128.855469 C123.765625,72.90625 85.335938,19.21875 40.125,19.21875 C13,19.21875 -0.5625,36.738281 -0.5625,52.558594 C-0.5625,70.078125 9.605469,83.640625 25.996094,83.640625 C38.996094,83.640625 45.777344,74.601563 45.777344,67.253906 M41.257813,-0.566406 C37.863281,-0.566406 35.605469,1.699219 35.605469,3.960938 C35.605469,7.347656 37.863281,9.042969 41.824219,10.738281 C54.820313,15.828125 78.554688,18.652344 105.679688,18.652344 C153.71875,18.652344 202.320313,11.871094 223.796875,3.390625 L223.796875,2.828125 C206.277344,3.960938 175.761719,5.652344 127.15625,5.652344 C61.035156,5.652344 47.472656,-0.566406 41.257813,-0.566406 M79.121094,24.867188 L79.121094,25.433594 C84.773438,27.128906 111.332031,38.996094 122.636719,81.945313 C123.203125,84.769531 124.894531,85.902344 126.59375,85.902344 C129.417969,85.902344 130.550781,83.640625 130.550781,79.6875 C130.550781,59.90625 119.246094,41.820313 109.640625,33.910156 C100.03125,26 87.03125,24.304688 79.121094,24.867188 M144.113281,31.085938 C152.589844,22.609375 164.453125,19.21875 177.457031,20.347656 L177.457031,20.910156 C173.5,22.042969 163.328125,25.433594 153.152344,36.171875 C144.675781,45.214844 139.023438,55.949219 136.199219,65.558594 C132.808594,47.472656 138.460938,36.738281 144.113281,31.085938"></path>
        </g>
        <g clip-path="url(#clip2)" clip-rule="nonzero"></g>
    </g>
</svg>