<svg xmlns="http://www.w3.org/2000/svg" fill="none" viewBox="0 0 64 64"><g fill-rule="evenodd" clip-path="url(#a)" clip-rule="evenodd"><path fill="#F5E3F7" d="M64 32.51C64 14.852 49.673.536 31.998.536 14.326.535 0 14.849 0 32.51v16.713c0 7.832 6.413 14.242 14.251 14.242H49.75c7.837 0 14.251-6.41 14.251-14.242V32.51Z"/><path fill="#FF5A9D" d="M59.536 33.963c0-4.908-1.444-23.96-19.919-26.847C23.2 4.551 9.595 9.715 6.131 26.169c-3.466 16.455-.29 31.755 11.835 33.198 12.126 1.443 15.588.866 28.29.289 12.703-.578 13.28-20.785 13.28-25.693Z"/><path fill="#fff" d="M43.59 19.976c-5.403 0-10.006 3.418-11.769 8.208-1.76-4.791-6.365-8.208-11.768-8.208-6.923 0-12.535 5.612-12.535 12.535s5.612 12.535 12.535 12.535c5.403 0 10.007-3.418 11.77-8.208 1.76 4.79 6.364 8.208 11.766 8.208 6.923 0 12.535-5.612 12.535-12.535S50.512 19.976 43.59 19.976Z"/><path fill="#7320D3" d="M20.31 23.681a8.185 8.185 0 0 0-8.186 8.186 8.184 8.184 0 0 0 8.185 8.185 8.185 8.185 0 1 0 0-16.37Zm23.023 0a8.186 8.186 0 1 0 0 16.371 8.185 8.185 0 1 0 0-16.37Z"/><path fill="#fff" d="M27.425 25.991a3.598 3.598 0 1 1-7.196 0 3.598 3.598 0 0 1 7.196 0Zm23.983 0a3.598 3.598 0 1 1-7.195 0 3.598 3.598 0 0 1 7.195 0Z"/></g><defs><clipPath id="a"><path fill="#fff" d="M0 0h64v64H0z"/></clipPath></defs></svg>