<svg xmlns="http://www.w3.org/2000/svg" viewBox="0 0 60 60" fill="none">
  <path d="M56.074 19.065a5.806 5.806 0 0 0-1.732-.29H43.393c-1.309 0-2.348-.986-2.348-2.3v-8.76l-3.117 3.23v5.53c0 3.074 2.386 5.703 5.465 5.703h10.93c1.308 0 2.27.948 2.27 2.243v11.003c0 1.315-.98 2.397-2.27 2.397h-.904l1.577 1.567c.404.406.809.87 1.059 1.372C58.306 40.045 60 37.918 60 35.424V24.42c.019-2.475-1.675-4.64-3.926-5.356ZM41.047 52.15v-8.76c0-1.315 1.039-2.436 2.347-2.436h8.718l-3.214-3.133h-5.504c-3.06 0-5.465 2.476-5.465 5.57v10.982c0 1.315-1.154 2.495-2.463 2.495h-10.95c-1.308 0-2.443-1.2-2.443-2.495v-.908l-1.54 1.585c-.404.406-.846.774-1.347 1.025.712 2.262 2.849 3.925 5.33 3.925h10.95c2.483 0 4.6-1.663 5.311-3.925.173-.542.27-1.122.27-1.702V52.15ZM7.89 40.954h8.717c1.308 0 2.348 1.121 2.348 2.436v8.76l3.117-3.23v-5.53c0-3.074-2.405-5.569-5.465-5.569H5.657c-1.308 0-2.27-1.082-2.27-2.397V24.422c0-1.315.962-2.244 2.27-2.244h.905l-1.578-1.643a6.287 6.287 0 0 1-1.058-1.412C1.693 19.858 0 21.946 0 24.441v11.002c0 2.495 1.693 4.583 3.945 5.298.539.174 1.135.232 1.732.232H7.89v-.02ZM18.974 7.715v8.76c0 1.314-1.059 2.3-2.348 2.3H7.89l3.213 3.423h5.504c3.06 0 5.465-2.63 5.465-5.704V5.472c0-1.315 1.154-2.359 2.444-2.359h10.95c1.308 0 2.462 1.044 2.462 2.36v.908l1.52-1.586c.404-.406.847-.696 1.347-.947C40.083 1.586 37.967 0 35.485 0h-10.95c-2.482 0-4.6 1.586-5.311 3.848a5.117 5.117 0 0 0-.25 1.624v2.243Z" fill="#FF4738"/>
  <path d="m6.562 22.065 6.158 6.187a2.389 2.389 0 0 1 0 3.365l-6.158 6.207h4.522l3.907-3.926a5.587 5.587 0 0 0 1.635-3.964c0-1.489-.577-2.9-1.635-3.963l-3.907-3.926-3.194-3.19-.635-.638a2.375 2.375 0 0 1-.693-1.683c0-.638.25-1.218.693-1.682l7.736-7.773c.885-.89 2.444-.89 3.329 0l.635.638V5.494c0-.58.096-1.16.25-1.683a5.469 5.469 0 0 0-6.466 1.006L4.984 12.59a5.543 5.543 0 0 0-1.635 3.944c0 .91.211 1.799.635 2.572.25.503.596.967 1 1.373l1.578 1.586Zm46.876 15.737-6.157-6.188a2.296 2.296 0 0 1 0-3.287l6.157-6.13h-4.522l-3.906 3.868c-1.058 1.063-1.636 2.436-1.636 3.925 0 1.49.578 2.881 1.636 3.945l3.906 3.906 3.214 3.21.635.638c.442.444.693 1.044.693 1.682a2.41 2.41 0 0 1-.693 1.682l-7.755 7.735c-.885.889-2.444.889-3.33 0l-.634-.639v2.243c0 .58-.096 1.16-.27 1.683a5.435 5.435 0 0 0 2.56.618 5.462 5.462 0 0 0 3.925-1.643l7.736-7.773a5.543 5.543 0 0 0 1.636-3.945c0-.909-.212-1.798-.635-2.572a5.339 5.339 0 0 0-1-1.372l-1.56-1.586ZM22.166 53.484l6.158-6.188a2.408 2.408 0 0 1 3.387 0l6.215 6.188V48.94l-3.945-3.926a5.545 5.545 0 0 0-3.964-1.643c-1.5 0-2.886.58-3.945 1.643l-3.906 3.926-3.214 3.229-.635.638c-.885.89-2.444.89-3.329 0l-7.735-7.773a2.375 2.375 0 0 1-.693-1.682c0-.639.25-1.257.693-1.702l.635-.677H5.655c-.577 0-1.154-.058-1.674-.232-1.077 2.108-.75 4.776 1 6.536l7.737 7.792a5.49 5.49 0 0 0 3.925 1.644 5.5 5.5 0 0 0 2.56-.62c.5-.25.962-.599 1.366-1.005l1.597-1.604ZM37.831 6.382l-6.157 6.188a2.408 2.408 0 0 1-3.387 0L22.07 6.382v4.544l3.945 3.926a5.545 5.545 0 0 0 3.964 1.643c1.501 0 2.887-.58 3.945-1.643l3.906-3.926 3.214-3.229.635-.638c.885-.89 2.444-.89 3.33 0l7.735 7.773c.442.445.693 1.044.693 1.683 0 .638-.25 1.198-.693 1.643l-.635.6h2.232c.577 0 1.155.135 1.674.29a5.624 5.624 0 0 0-1-6.517L47.28 4.758a5.471 5.471 0 0 0-3.926-1.624 5.29 5.29 0 0 0-2.56.638c-.5.251-.961.6-1.365 1.005L37.83 6.382Z" fill="#819EFF"/>
</svg>
