<svg xmlns="http://www.w3.org/2000/svg" viewBox="184 604 1672.19 828"><path d="M327.16 814c-112.836 40.548-171 165.744-130.032 278.58 41.016 112.872 165.744 171.048 278.58 130.032 113.292-40.98 171.468-166.176 130.032-278.58-40.98-113.724-82.416-226.548-123.852-339.852l-99.612 36.612 59.484 163.5A213.907 213.907 0 00327.16 814zm1385.856 408.612c112.872-40.98 171.048-165.708 130.032-278.58-40.968-113.304-166.176-171.468-279-130.032-112.404 40.548-170.58 165.744-130.032 278.58 41.436 113.292 82.404 226.116 123.84 339.42l100.08-36.144-59.532-163.968c37.032 7.032 76.74 4.404 114.612-9.276zM1676.872 1123c-58.164 20.712-121.632-8.82-142.824-66.564-21.144-57.756 8.388-122.112 66.564-143.256 57.744-20.712 121.68 9.24 142.824 66.984 21.192 57.756-8.808 121.692-66.564 142.836zm-520.128-322.224c-120.324 0-217.776 97.404-217.776 217.74 0 119.904 97.452 217.308 217.776 217.308 119.916 0 217.32-97.404 217.32-217.308 0-120.336-97.404-217.74-217.32-217.74zm0 105.804c61.272 0 111.516 50.244 111.516 111.936 0 61.308-50.244 111.096-111.516 111.096-61.728 0-111.504-49.788-111.504-111.096 0-61.692 49.776-111.936 111.504-111.936zm-292.26 293.1l-100.032 36.612c-31.308-85.5-54.66-150.744-85.968-236.292-22.92-63.468 9.24-137.484 75.792-161.772l115.08-41.856 36.564 100.08-115.5 41.856c-10.128 3.516-15.42 14.112-11.856 25.128l85.92 236.244zm-501.192-286.5c57.756-21.132 121.692 9.24 142.836 66.564 21.132 58.176-8.82 122.112-66.564 143.256-57.756 20.712-121.644-8.82-142.824-66.984-20.724-57.336 8.808-121.692 66.552-142.836z" fill="#2BD686"/></svg>