<svg
  viewBox="0 0 80 80"
  version="1.1"
  xmlns="http://www.w3.org/2000/svg"
  xmlns:xlink="http://www.w3.org/1999/xlink"
  xml:space="preserve"
  xmlns:serif="http://www.serif.com/"
  style="fill-rule:evenodd;clip-rule:evenodd;stroke-linejoin:round;stroke-miterlimit:2;"
>
    <circle cx="40" cy="40" r="40" style="fill:white;" />
    <g transform="matrix(0.893909,0,0,0.893909,4.25179,31.0609)">
        <path
      d="M24.83,0C19.344,0 14.83,4.514 14.83,10C14.83,15.486 19.344,20 24.83,20C30.316,20 34.83,15.486 34.83,10C34.781,4.533 30.297,0.049 24.83,0ZM24.83,17.9C24.813,17.9 24.797,17.9 24.78,17.9C20.474,17.9 16.93,14.357 16.93,10.05C16.93,5.744 20.474,2.2 24.78,2.2C29.068,2.2 32.603,5.713 32.63,10C32.63,14.296 29.126,17.846 24.83,17.9ZM46.32,0C40.834,0 36.32,4.514 36.32,10C36.32,15.486 40.834,20 46.32,20C51.806,20 56.32,15.486 56.32,10C56.32,4.514 51.806,0 46.32,0ZM46.32,17.9C46.303,17.9 46.287,17.9 46.27,17.9C41.964,17.9 38.42,14.357 38.42,10.05C38.42,5.744 41.964,2.2 46.27,2.2C50.558,2.2 54.093,5.713 54.12,10C54.121,10.043 54.121,10.087 54.121,10.13C54.121,14.393 50.614,17.9 46.351,17.9C46.341,17.9 46.33,17.9 46.32,17.9ZM7.63,6C5.746,5.695 3.818,6.204 2.33,7.4L2.33,2.1L11.33,2.1C11.63,2.1 11.83,2 11.83,1.1C11.83,0.2 11.43,0.2 11.23,0.2L1.33,0.2C0.836,0.2 0.43,0.606 0.43,1.1L0.43,9.9C0.43,10.4 0.73,10.5 1.23,10.6C1.54,10.743 1.91,10.661 2.13,10.4C3.266,8.789 5.162,7.879 7.13,8C9.441,8.289 11.29,10.096 11.63,12.4C11.946,15.14 9.966,17.658 7.23,18L6.63,18C4.539,17.97 2.668,16.657 1.93,14.7C1.83,14.4 1.63,14.2 0.83,14.5C0.03,14.8 -0.07,15 0.03,15.3C1.376,18.895 5.41,20.778 9.03,19.5C12.625,18.154 14.508,14.12 13.23,10.5C12.335,8.087 10.179,6.354 7.63,6ZM63.12,0.1C60.392,0.414 58.312,2.754 58.32,5.5L58.32,14.4C58.32,14.9 58.72,15 59.32,15C59.92,15 60.32,14.9 60.32,14.4L60.32,5.5C60.284,3.803 61.539,2.332 63.22,2.1C64.128,2.008 65.034,2.298 65.72,2.9C66.416,3.503 66.817,4.379 66.82,5.3C66.753,5.983 66.512,6.637 66.12,7.2C65.478,8.091 64.415,8.585 63.32,8.5C62.92,8.5 62.62,8.5 62.52,9.4C62.52,10 62.52,10.3 63.02,10.4C64.025,10.503 65.038,10.293 65.92,9.8C67.531,8.979 68.623,7.397 68.82,5.6C68.832,5.457 68.838,5.313 68.838,5.169C68.838,2.456 66.707,0.179 64,-0C63.714,0.08 63.417,0.114 63.12,0.1ZM76.22,5.3L79.82,1.7C79.92,1.6 80.22,1.3 79.62,0.6C79.453,0.374 79.199,0.229 78.92,0.2C78.763,0.203 78.616,0.277 78.52,0.4L74.92,4L71.32,0.3C71.02,-0 70.72,0.1 70.22,0.5C69.72,0.9 69.72,1.3 70.02,1.6L73.62,5.2L70,8.9C69.895,9.01 69.825,9.15 69.8,9.3C69.805,9.586 69.956,9.85 70.2,10C70.396,10.191 70.637,10.328 70.9,10.4C71.081,10.377 71.253,10.309 71.4,10.2L75,6.6L78.6,10.2C78.696,10.323 78.843,10.397 79,10.4C79.279,10.371 79.533,10.226 79.7,10C80,9.6 80.1,9.2 79.8,9L76.22,5.3Z"
      style="fill-rule:nonzero;"
    />
    </g>
</svg>
