<svg xmlns="http://www.w3.org/2000/svg" viewBox="-1.00 -1.00 26.00 18.40"><defs></defs><path fill="transparent" d="M-1-1h26v18.4H-1z"></path><path fill="#7b8794" d="M1.08270149 8.96225727c-.246422.037499-.508915-.05357-.674982-.262493-.241065-.310706-.187495-.755337.123211-1.001759l.187495-.144639c.310706-.241065.755337-.187495 1.001759.123211.241065.310706.187495.755337-.123211 1.001759l-.187495.144639c-.096426.074998-.208923.123211-.326777.139282z" class="st1"></path><path fill="#3ae7e1" d="M.82556554 13.02822027c-.246422.037499-.508915-.05357-.674982-.26785-.241065-.310706-.187495-.755337.123211-1.001759l4.349884-3.396338c.310706-.241065.760694-.187495 1.001759.123211s.187495.755337-.123211 1.001759l-4.349884 3.401695c-.101783.074998-.21428.123211-.326777.139282z" class="st0"></path><path fill="#7b8794" d="M7.02361454 8.20692027c-.246422.037499-.508915-.05357-.674982-.26785-.241065-.310706-.187495-.755337.123211-1.001759l.691053-.541057c.310706-.241065.755337-.187495 1.001759.123211.241065.310706.187495.755337-.123211 1.001759l-.691053.541057c-.101783.074998-.21428.123211-.326777.144639z" class="st1"></path><path fill="#3ae7e1" d="M6.64326749 12.35859527c-.246422.037499-.508915-.05357-.674982-.26785-.241065-.310706-.187495-.755337.123211-1.001759l3.567762-2.78564c.310706-.241065.760694-.187495 1.001759.123211s.187495.755337-.123211 1.001759l-3.567762 2.78564c-.096426.080355-.208923.128568-.326777.144639z" class="st0"></path><path fill="#7b8794" d="M4.69331954 13.90676827c-.246422.037499-.508915-.05357-.674982-.26785-.241065-.310706-.187495-.760694.123211-1.001759l.251779-.198209c.310706-.241065.760694-.187495 1.001759.123211s.187495.760694-.123211 1.001759l-.251779.198209c-.101783.080355-.21428.128568-.326777.144639z" class="st1"></path><path fill="#3ae7e1" d="M22.67676854-.00000373h-16.542416c-.616055 0-1.189254.380347-1.371392.969617-.085712.273207-.080355.551771 0 .80355.080355.257136.241065.492844.466059.669625 0 0 6.337331 4.923083 7.890861 5.994483.557128.358919 1.098185.235708 1.419605-.010714l8.040857-6.256976v10.815783c0 1.055329-.85712 1.912449-1.912449 1.912449h-15.197809c-.391061 0-.707124.316063-.707124.707124 0 .396418.32142.717838.717838.717838h15.181738c1.842808 0 3.337411-1.494603 3.337411-3.337411v-11.662189c.005357-.728552-.58927-1.323179-1.323179-1.323179zm-11.442552 5.898057l.005357-.037499.021428.032142-.026785.005357zm2.587431 1.28568l-7.365875-5.758775h14.758535l-7.39266 5.758775z" class="st0"></path></svg>
