<svg version="1.1"
	 id="Layer_1" xmlns:cc="http://creativecommons.org/ns#" xmlns:dc="http://purl.org/dc/elements/1.1/" xmlns:rdf="http://www.w3.org/1999/02/22-rdf-syntax-ns#"
	 xmlns="http://www.w3.org/2000/svg" xmlns:xlink="http://www.w3.org/1999/xlink" x="0px" y="0px" viewBox="0 0 295.33 50"
	 style="enable-background:new 0 0 295.33 50;" xml:space="preserve">
<style type="text/css">
	.st0{fill:#3AE7E1;}
	.st1{fill:#F5F7FA;}
</style>
<g id="XMLID_29_">
	<path id="XMLID_41_" class="st0" d="M8.74,21.66c-0.72,0.11-1.48-0.16-1.96-0.78c-0.7-0.9-0.54-2.2,0.36-2.91l5.76-4.5
		c0.9-0.7,2.2-0.54,2.91,0.36c0.7,0.9,0.54,2.2-0.36,2.91l-5.76,4.5C9.41,21.47,9.08,21.61,8.74,21.66z"/>
</g>
<g id="XMLID_30_">
	<path id="XMLID_40_" class="st1" d="M3.15,26.05c-0.72,0.11-1.48-0.16-1.96-0.76c-0.7-0.9-0.54-2.2,0.36-2.91l0.54-0.42
		c0.9-0.7,2.2-0.54,2.91,0.36c0.7,0.9,0.54,2.2-0.36,2.91L4.1,25.65C3.82,25.86,3.49,26,3.15,26.05z"/>
</g>
<g id="XMLID_31_">
	<path id="XMLID_39_" class="st0" d="M2.4,37.87c-0.72,0.11-1.48-0.16-1.96-0.78c-0.7-0.9-0.54-2.2,0.36-2.91l12.64-9.87
		c0.9-0.7,2.21-0.54,2.91,0.36c0.7,0.9,0.54,2.2-0.36,2.91L3.35,37.46C3.05,37.68,2.73,37.82,2.4,37.87z"/>
</g>
<g id="XMLID_34_">
	<path id="XMLID_38_" class="st1" d="M20.42,23.85c-0.72,0.11-1.48-0.16-1.96-0.78c-0.7-0.9-0.54-2.2,0.36-2.91l2.01-1.57
		c0.9-0.7,2.2-0.54,2.91,0.36c0.7,0.9,0.54,2.2-0.36,2.91l-2.01,1.57C21.07,23.65,20.74,23.79,20.42,23.85z"/>
</g>
<g id="XMLID_32_">
	<path id="XMLID_37_" class="st0" d="M19.31,35.92c-0.72,0.11-1.48-0.16-1.96-0.78c-0.7-0.9-0.54-2.2,0.36-2.91l10.37-8.1
		c0.9-0.7,2.21-0.54,2.91,0.36s0.54,2.2-0.36,2.91l-10.37,8.1C19.98,35.74,19.65,35.88,19.31,35.92z"/>
</g>
<path id="XMLID_36_" class="st1" d="M13.64,40.42c-0.72,0.11-1.48-0.16-1.96-0.78c-0.7-0.9-0.54-2.21,0.36-2.91l0.73-0.58
	c0.9-0.7,2.21-0.54,2.91,0.36c0.7,0.9,0.54,2.21-0.36,2.91L14.59,40C14.3,40.24,13.97,40.38,13.64,40.42z"/>
<path id="XMLID_44_" class="st0" d="M65.91,0H17.83c-1.79,0-3.46,1.11-3.99,2.82c-0.25,0.79-0.23,1.6,0,2.34
	c0.23,0.75,0.7,1.43,1.35,1.95c0,0,18.42,14.31,22.94,17.42c1.62,1.04,3.19,0.69,4.13-0.03L65.63,6.31v31.44
	c0,3.07-2.49,5.56-5.56,5.56H15.9c-1.14,0-2.06,0.92-2.06,2.06c0,1.15,0.93,2.09,2.09,2.09h44.13c5.36,0,9.7-4.34,9.7-9.7V3.85
	C69.78,1.73,68.05,0,65.91,0z M32.65,17.14l0.02-0.11l0.06,0.09L32.65,17.14z M40.17,20.88L18.76,4.14h42.9L40.17,20.88z"/>
</svg>
