<svg version="1.0" xmlns="http://www.w3.org/2000/svg"
 width="103.000000pt" height="71.000000pt" viewBox="0 0 103.000000 71.000000"
 preserveAspectRatio="xMidYMid meet">

<g transform="translate(0.000000,71.000000) scale(0.100000,-0.100000)"
fill="#000000" stroke="none">
<path d="M0 355 l0 -355 113 0 113 0 -1 28 0 27 353 5 354 5 19 24 c18 21 19
42 19 268 l0 244 -57 -44 c-32 -25 -110 -86 -173 -136 -79 -62 -123 -91 -142
-91 -31 0 -364 251 -381 287 -14 31 13 70 55 78 18 3 190 5 381 3 332 -3 349
-4 363 -22 13 -19 14 -19 14 7 l0 27 -515 0 -515 0 0 -355z m247 128 c8 -22
-82 -103 -114 -103 -41 0 -29 41 25 83 51 40 79 46 89 20z m113 -73 c8 -15 5
-24 -17 -45 -31 -28 -43 -31 -61 -13 -17 17 -15 26 14 53 32 30 50 31 64 5z
m-272 -56 c4 -28 -24 -51 -46 -38 -23 15 -25 29 -6 48 21 22 48 17 52 -10z
m370 -16 c7 -7 12 -18 12 -25 0 -20 -162 -144 -185 -141 -44 6 -26 36 62 107
48 39 90 71 93 71 3 0 11 -5 18 -12z m-205 -12 c3 -8 0 -21 -6 -29 -25 -32
-190 -157 -208 -157 -11 0 -19 2 -19 4 0 2 -3 11 -6 19 -4 11 26 40 97 96 101
80 132 94 142 67z m-9 -179 c9 -15 7 -21 -9 -33 -11 -8 -26 -13 -35 -12 -19 4
-25 35 -9 54 15 19 38 15 53 -9z"/>
<path d="M300 626 c0 -3 75 -63 287 -228 9 -7 53 22 150 98 76 59 145 113 153
121 12 11 -34 13 -288 13 -166 0 -302 -2 -302 -4z"/>
<path d="M1020 91 c0 -16 -52 -72 -74 -81 -16 -7 -7 -9 32 -9 l52 -1 0 50 c0
28 -2 50 -5 50 -3 0 -5 -4 -5 -9z"/>
</g>
</svg>
