<svg version="1.0" xmlns="http://www.w3.org/2000/svg"
 width="512.000000pt" height="462.000000pt" viewBox="0 0 512.000000 462.000000"
 preserveAspectRatio="xMidYMid meet">

<g transform="translate(0.000000,462.000000) scale(0.100000,-0.100000)"
fill="#000000" stroke="none">
<path d="M0 2315 c0 -1617 3 -2305 11 -2305 22 0 577 235 1019 432 986 440
1438 700 1708 983 85 89 110 123 149 202 l48 96 0 111 c0 106 -2 114 -34 181
-41 84 -159 207 -266 277 -102 67 -272 154 -495 253 -269 120 -347 162 -408
220 -76 74 -70 117 26 207 61 57 125 90 236 122 125 37 256 53 596 76 454 30
563 46 666 95 121 59 103 163 -41 239 -62 33 -19 23 50 -11 110 -55 151 -106
142 -175 -18 -132 -196 -209 -552 -238 -323 -25 -381 -31 -454 -46 -197 -40
-267 -124 -157 -189 74 -43 204 -81 636 -184 689 -165 983 -259 1305 -416 488
-239 744 -566 923 -1175 7 -24 10 517 11 1758 l1 1792 -2560 0 -2560 0 0
-2305z"/>
</g>
</svg>

