<svg version="1.1" xmlns="http://www.w3.org/2000/svg" xmlns:xlink="http://www.w3.org/1999/xlink" preserveAspectRatio="xMidYMid meet" viewBox="0 0 640 640" width="640" height="640"><defs><path d="M263.21 298.94C262.51 298.03 262.66 296.74 263.57 296.03C264.14 295.58 268.75 291.98 269.32 291.53C270.22 290.83 271.51 290.99 272.23 291.89C272.93 292.79 272.77 294.08 271.87 294.8C271.3 295.25 266.69 298.84 266.12 299.29C265.84 299.53 265.51 299.67 265.17 299.71C264.45 299.82 263.69 299.56 263.21 298.94Z" id="a1C19U1BHi"></path><path d="M257.62 303.34C256.92 302.44 257.08 301.14 257.98 300.43C258.04 300.39 258.47 300.05 258.53 300.01C259.43 299.31 260.72 299.46 261.43 300.37C262.13 301.27 261.98 302.56 261.08 303.28C261.02 303.32 260.59 303.65 260.53 303.7C260.25 303.91 259.93 304.05 259.58 304.1C258.87 304.21 258.11 303.94 257.62 303.34Z" id="dxgcMHG0x"></path><path d="M256.88 315.13C256.18 314.23 256.33 312.93 257.24 312.22C258.5 311.23 268.6 303.34 269.86 302.36C270.77 301.66 272.07 301.81 272.77 302.72C273.47 303.62 273.32 304.91 272.42 305.62C271.15 306.61 261.05 314.51 259.79 315.5C259.49 315.72 259.16 315.86 258.84 315.9C258.12 316.01 257.36 315.75 256.88 315.13Z" id="f6IcGwczT"></path><path d="M274.87 301.13C274.17 300.23 274.33 298.94 275.23 298.22C275.43 298.06 277.04 296.81 277.24 296.65C278.14 295.95 279.43 296.11 280.15 297.01C280.85 297.91 280.69 299.2 279.79 299.92C279.59 300.07 277.98 301.33 277.78 301.49C277.49 301.7 277.16 301.84 276.83 301.91C276.12 302.02 275.36 301.75 274.87 301.13Z" id="cRm1F1BDh"></path><path d="M273.77 313.18C273.07 312.28 273.22 310.99 274.13 310.27C275.16 309.47 283.45 303 284.49 302.19C285.39 301.49 286.69 301.64 287.39 302.54C288.09 303.45 287.94 304.74 287.04 305.45C286 306.26 277.71 312.73 276.68 313.54C276.4 313.77 276.07 313.91 275.73 313.96C275.01 314.07 274.25 313.81 273.77 313.18Z" id="gwWrdXw6v"></path><path d="M268.11 317.68C267.41 316.78 267.56 315.47 268.47 314.77C268.54 314.71 269.12 314.25 269.2 314.19C270.1 313.49 271.4 313.65 272.1 314.55C272.8 315.45 272.65 316.76 271.75 317.46C271.67 317.52 271.09 317.98 271.02 318.04C270.72 318.27 270.39 318.41 270.07 318.46C269.35 318.56 268.59 318.3 268.11 317.68Z" id="aSSOTFr9Y"></path><path d="M274.25 278.08C272.46 278.08 270.8 279.18 270.27 280.89C270.02 281.69 270.04 282.5 270.27 283.23C270.5 283.97 270.97 284.66 271.62 285.17C271.62 285.17 290.02 299.46 294.53 302.58C296.15 303.62 297.72 303.26 298.65 302.54C300.21 301.33 307.99 295.28 322 284.38C322 303.22 322 313.69 322 315.78C322 318.84 319.51 321.33 316.45 321.33C312.04 321.33 276.73 321.33 272.32 321.33C271.19 321.33 270.27 322.25 270.27 323.39C270.27 324.54 271.2 325.47 272.35 325.47C276.76 325.47 312.02 325.47 316.43 325.47C321.78 325.47 326.12 321.13 326.12 315.78C326.12 312.39 326.12 285.31 326.12 281.92C326.14 279.81 324.41 278.08 322.28 278.08C322.28 278.08 279.05 278.08 274.25 278.08ZM289.07 295.09L289.14 295.19L289.07 295.09ZM296.57 298.94L275.18 282.22L318.03 282.22L296.57 298.94Z" id="a1gUU1vN6e"></path></defs><g><g><g><use xlink:href="#a1C19U1BHi" opacity="1" fill="#3ae7e1" fill-opacity="1"></use><g><use xlink:href="#a1C19U1BHi" opacity="1" fill-opacity="0" stroke="#000000" stroke-width="1" stroke-opacity="0"></use></g></g><g><use xlink:href="#dxgcMHG0x" opacity="1" fill="#f5f7fa" fill-opacity="1"></use><g><use xlink:href="#dxgcMHG0x" opacity="1" fill-opacity="0" stroke="#000000" stroke-width="1" stroke-opacity="0"></use></g></g><g><use xlink:href="#f6IcGwczT" opacity="1" fill="#3ae7e1" fill-opacity="1"></use><g><use xlink:href="#f6IcGwczT" opacity="1" fill-opacity="0" stroke="#000000" stroke-width="1" stroke-opacity="0"></use></g></g><g><use xlink:href="#cRm1F1BDh" opacity="1" fill="#f5f7fa" fill-opacity="1"></use><g><use xlink:href="#cRm1F1BDh" opacity="1" fill-opacity="0" stroke="#000000" stroke-width="1" stroke-opacity="0"></use></g></g><g><use xlink:href="#gwWrdXw6v" opacity="1" fill="#3ae7e1" fill-opacity="1"></use><g><use xlink:href="#gwWrdXw6v" opacity="1" fill-opacity="0" stroke="#000000" stroke-width="1" stroke-opacity="0"></use></g></g><g><use xlink:href="#aSSOTFr9Y" opacity="1" fill="#f5f7fa" fill-opacity="1"></use><g><use xlink:href="#aSSOTFr9Y" opacity="1" fill-opacity="0" stroke="#000000" stroke-width="1" stroke-opacity="0"></use></g></g><g><use xlink:href="#a1gUU1vN6e" opacity="1" fill="#3ae7e1" fill-opacity="1"></use><g><use xlink:href="#a1gUU1vN6e" opacity="1" fill-opacity="0" stroke="#000000" stroke-width="1" stroke-opacity="0"></use></g></g></g></g></svg>
