<svg xmlns="http://www.w3.org/2000/svg" viewBox=".6 0 27.41 21.8">
  <defs>
    <radialGradient id="a" cx="0" cy="0" r="1" gradientTransform="translate(14.305 10.902) scale(9.59995)" gradientUnits="userSpaceOnUse">
      <stop/>
      <stop offset="1" stop-opacity="0"/>
    </radialGradient>
  </defs>
  <path fill="#2a54ff" d="M28.006 0c-3.163 0-6.292.8-9.048 2.315a18.885 18.885 0 0 0-7.23 7.058 12.82 12.82 0 0 1-.78 1.195c-.036.05-.071.1-.11.149-2.45 3.241-6.18 5.1-10.237 5.1v5.987c3.164 0 6.293-.8 9.048-2.314a18.947 18.947 0 0 0 4.882-3.85 18.901 18.901 0 0 0 2.348-3.208l.044-.074a13 13 0 0 1 .734-1.12l.113-.152c2.448-3.24 6.18-5.1 10.236-5.1V0Z"/>
  <path fill="url(#a)" d="M28.006 0c-3.163 0-6.292.8-9.048 2.315a18.885 18.885 0 0 0-7.23 7.058 12.82 12.82 0 0 1-.78 1.195c-.036.05-.071.1-.11.149-2.45 3.241-6.18 5.1-10.237 5.1v5.987c3.164 0 6.293-.8 9.048-2.314a18.947 18.947 0 0 0 4.882-3.85 18.901 18.901 0 0 0 2.348-3.208l.044-.074a13 13 0 0 1 .734-1.12l.113-.152c2.448-3.24 6.18-5.1 10.236-5.1V0Z" opacity=".3"/>
  <path fill="#2a54ff" d="M28.006 15.816a12.73 12.73 0 0 1-10.237-5.099c-.037-.05-.075-.099-.112-.152a12.58 12.58 0 0 1-.777-1.193 18.967 18.967 0 0 0-3.18-4.064 18.802 18.802 0 0 0-4.05-2.992A18.834 18.834 0 0 0 .6 0v5.99c4.057 0 7.788 1.858 10.238 5.1.038.049.075.1.111.149.263.359.51.736.733 1.117l.047.079a18.981 18.981 0 0 0 2.348 3.207 18.978 18.978 0 0 0 4.88 3.847 18.835 18.835 0 0 0 9.049 2.315v-5.987Z"/>
</svg>