<svg xmlns="http://www.w3.org/2000/svg" viewBox="0.54 2.32 62.91 40.42"><path fill="#1EBCC5" d="M63.457 32.629c0-3.183-1.476-6.018-3.774-7.869a8.498 8.498 0 01-4.382 4.072 8.46 8.46 0 004.588-7.518c0-4.675-3.784-8.415-8.459-8.415-.355 0-.689.026-1.034.068a19.898 19.898 0 011.818 8.347c0 .193-.01.384-.017.576-.336-10.865-9.243-19.571-20.192-19.571-10.916 0-19.806 8.657-20.19 19.481-.004-.163-.019-.323-.019-.486 0-2.992.667-5.822 1.833-8.376C6.253 13.863.543 20.145.543 27.772c0 8.265 6.7 14.965 14.965 14.965h38.054v-.017c5.482-.111 9.895-4.582 9.895-10.091"/><path fill="#FFF" d="M31.839 36.634c-7.824 0-14.167-6.343-14.167-14.167 0-7.823 6.343-14.167 14.167-14.167 7.825 0 14.167 6.343 14.167 14.167s-6.342 14.167-14.167 14.167m.007-30.408c-8.984 0-16.266 7.282-16.266 16.265s7.282 16.266 16.266 16.266 16.265-7.283 16.265-16.266S40.83 6.226 31.846 6.226"/><path fill="#FFF" d="M34.338 22.349h-4.461v-3.556h4.461a1.778 1.778 0 110 3.556m-6.727-7.797a2.284 2.284 0 00-2.284 2.284v12.392a2.284 2.284 0 104.568 0v-2.636h4.425v-.009a6.017 6.017 0 100-12.031"/></svg>