<svg viewBox="0 0 72 72" xmlns="http://www.w3.org/2000/svg"><g fill="#039be5" fill-rule="evenodd"><path d="M36 72C16.092 72 0 55.828 0 36.052 0 16.275 16.092 0 36 0s36 16.172 36 35.948C72 55.725 55.908 72 36 72zm0-65.82c-16.504 0-29.81 13.39-29.81 29.768S19.598 65.717 36 65.717c16.504 0 29.81-13.39 29.81-29.769C65.81 19.571 52.402 6.18 36 6.18z" fill-rule="nonzero"/><path d="M11.9 40.8h11v3h-11v-3zm0-9h11v3h-11v-3zm16 3h18v6h-18v-6z" fill-rule="nonzero"/><path d="M21.9 18.8h7v36h-7v-36zm29 22h11v3h-11v-3zm0-9h11v3h-11v-3z" fill-rule="nonzero"/><path d="M44.9 18.8h7v36h-7z"/></g></svg>