<svg viewBox="0 0 111 79" xmlns="http://www.w3.org/2000/svg" version="1.1" xml:space="preserve">
 <g>
  <g>
   <g>
    <path fill="#41b7ff" opacity="undefined" d="m6.93662,61.25126l6.93661,0l13.87322,0l27.74644,0l-0.00062,17.74324l-48.55566,0.00539c-2.96975,-0.08709 -6.92583,-0.35178 -6.93661,-3.42943l0,-3.30443l0,-6.60886c0.01078,-3.30722 3.96686,-4.33206 6.93661,-4.40591l0.00001,0z"/>
    <path fill="#41b7ff" opacity="undefined" d="m62.33434,61.25125l6.95224,0l13.90447,0l27.80895,0l-0.00062,17.74324l-48.66503,0.00539c-2.97644,-0.08709 -6.94143,-0.35178 -6.95224,-3.42943l0,-3.30443l0,-6.60886c0.0108,-3.30722 3.97579,-4.33206 6.95224,-4.40591l-0.00001,0z" transform="rotate(180, 83.1911, 70.1256)"/>
   </g>
   <g transform="rotate(180, 55.4999, 8.87431)">
    <path fill="#41b7ff" opacity="undefined" d="m6.93657,0l6.93661,0l13.87322,0l27.74644,0l-0.00062,17.74324l-48.55566,0.00539c-2.96975,-0.08709 -6.92583,-0.35178 -6.93661,-3.42943l0,-3.30443l0,-6.60886c0.01078,-3.30722 3.96686,-4.33206 6.93661,-4.40591l0.00001,0z"/>
    <path fill="#41b7ff" opacity="undefined" d="m62.33429,-0.00001l6.95224,0l13.90447,0l27.80895,0l-0.00062,17.74324l-48.66503,0.00539c-2.97644,-0.08709 -6.94143,-0.35178 -6.95224,-3.42943l0,-3.30443l0,-6.60886c0.0108,-3.30722 3.97579,-4.33206 6.95224,-4.40591l-0.00001,0z" transform="rotate(180, 83.191, 8.8743)"/>
   </g>
   <path fill="#ffffff" d="m111.08995,31.48228l-0.09016,15.53196c-0.4671,5.55027 -4.05545,5.72169 -13.06225,5.55068l-27.04681,-0.1032c-6.30532,-0.04089 -8.8315,-2.26473 -10.24246,-8.50712c-0.2769,-1.22503 -0.8244,-2.59125 -1.6909,-3.44693c-0.86937,-0.85853 -1.78493,-1.41353 -2.69684,-1.68381c-0.45595,-0.13514 -0.91101,-0.1991 -1.35892,-0.19423l0.00494,-5.66275c1.23162,0 4.55099,0 5.55235,0c2.3384,-5.64374 7.12168,-6.57698 13.61439,-6.57003l19.53948,0.03754c3.23154,0.05034 7.56951,0.05679 11.0996,0.67841c1.76505,0.31081 3.32811,0.77542 4.44993,1.47621c1.12182,0.70079 1.92764,1.63775 1.92764,2.89327l0.00001,0z"/>
   <path fill="#ffffff" d="m0.00008,31.48228l-0.03693,15.53196c0.45777,5.55027 4.09973,5.72169 12.92661,5.55068l26.50654,-0.1032c6.17937,-0.04089 8.65508,-2.26473 10.03786,-8.50712c0.27136,-1.22503 0.80794,-2.59125 1.65713,-3.44693c0.85201,-0.85853 1.74928,-1.41353 2.64297,-1.68381c0.44685,-0.13514 0.89281,-0.1991 1.33178,-0.19423l-0.00484,-5.66275c-1.20702,0 -4.46009,0 -5.44144,0c-2.29169,-5.64374 -6.97942,-6.57698 -13.34243,-6.57003l-19.14917,0.03754c-3.16699,0.05034 -7.41831,0.05679 -10.87788,0.67841c-1.72979,0.31081 -3.26163,0.77542 -4.36104,1.47621c-1.09941,0.70079 -1.88914,1.63775 -1.88914,2.89327l-0.00002,0z"/>
  </g>
 </g>
</svg>