<svg clip-rule="evenodd" fill-rule="evenodd" stroke-linejoin="round" stroke-miterlimit="2" version="1.1" viewBox="0 0 500 500" xml:space="preserve" xmlns="http://www.w3.org/2000/svg">
    <g transform="scale(1.7639)">
        <circle cx="141.73" cy="141.73" r="141.73"/>
        <path d="m247.33 194.17c-47.42-16.51-85.29 14.76-125 11.42-27-2.26-39.23-12.82-44.54-20-3-4.12-1-5.19 0.2-4.68 0.63 0.27 1.75 0.9 2.46 1.3 12.33 7.06 42.91 19.09 88.78 5.09 45-13.74 76.45-2.59 79.74 5.18 0.072 0.162 0.108 0.337 0.108 0.514 0 0.696-0.573 1.27-1.27 1.27-0.164 0-0.326-0.032-0.478-0.094z" fill="#fff" fill-rule="nonzero"/>
        <path d="m40.38 190.84c-3.77 0-6.25-2.6-6.25-5.9s2.36-5.78 6.25-5.9c4.13-0.12 6.37-1.3 8.49-7.08l1.65-4.6-18.75-45.86c-0.459-0.959-0.701-2.007-0.71-3.07 0.023-3.44 2.86-6.257 6.3-6.257 0.1 0 0.2 2e-3 0.3 7e-3 3.07 0 5 1.65 6.13 4.72l12.87 34.1h0.24l12.1-34.1c1.06-3.07 3.07-4.72 6.13-4.72 0.067-2e-3 0.134-3e-3 0.201-3e-3 3.384 0 6.17 2.785 6.17 6.17 0 0.027-1e-3 0.055-1e-3 0.083 5e-3 1.044-0.164 2.082-0.5 3.07l-20.92 53.19c-5 12.62-9.67 16.16-18.87 16.16l-0.83-0.01zm47.9-35.73c-1.407-4.5-2.082-9.196-2-13.91-0.107-4.737 0.531-9.461 1.89-14 3.18-9.91 11.91-15.69 23.23-15.69 11.67 0 20.17 6 23.35 15.69 1.321 4.438 1.958 9.051 1.89 13.68 9e-3 0.114 0.014 0.229 0.014 0.344 0 2.342-1.928 4.27-4.27 4.27-0.115 0-0.23-5e-3 -0.344-0.014h-31.73c-0.028-4e-3 -0.057-6e-3 -0.086-6e-3 -0.345 0-0.63 0.285-0.63 0.63 0 0.029 2e-3 0.058 6e-3 0.086 0.015 1.491 0.296 2.968 0.83 4.36 1.89 5.54 6.37 8.61 12.85 8.61 4.84 0 8-1.41 11.67-3.89 1.378-1.116 3.07-1.777 4.84-1.89 0.096-5e-3 0.192-8e-3 0.288-8e-3 2.885 0 5.26 2.375 5.26 5.26 0 0.096-3e-3 0.192-8e-3 0.288 0.018 2.072-1 4.021-2.71 5.19-5.07 4.13-11.32 6.84-20.52 6.84-12.1-0.04-20.63-5.95-23.82-15.84zm34.32-25.11c-1.53-4.6-5.78-7.31-11.09-7.31s-9.67 2.71-11.2 7.31c-0.511 1.561-0.751 3.198-0.71 4.84-4e-3 0.028-6e-3 0.057-6e-3 0.086 0 0.345 0.285 0.63 0.63 0.63 0.029 0 0.058-2e-3 0.086-6e-3h22.29c0.028 4e-3 0.057 6e-3 0.086 6e-3 0.345 0 0.63-0.285 0.63-0.63 0-0.029-2e-3 -0.058-6e-3 -0.086 0.04-1.642-0.2-3.279-0.71-4.84zm39.22 40.32c-11.56 0-15.57-5.78-15.57-16.63v-57.9c0-4.36 2.71-7 6.6-7s6.6 2.59 6.6 7v56.84c0 4 1.3 5.42 4.6 5.9 3.89 0.47 5.54 2.83 5.54 5.78 0 3.42-2.12 6-6.84 6l-0.93 0.01zm30.57 0c-11.56 0-15.57-5.78-15.57-16.63v-57.9c0-4.36 2.71-7 6.6-7s6.6 2.59 6.6 7v56.84c0 4 1.3 5.42 4.6 5.9 3.89 0.47 5.54 2.83 5.54 5.78 0 3.42-2.12 6-6.84 6l-0.93 0.01zm13.76-15.09c-1.3-4-1.89-7.78-1.89-14s0.59-10 1.89-14c3.18-9.91 11.91-15.69 23.47-15.69s20.16 5.78 23.35 15.69c1.3 4 1.89 7.78 1.89 14s-0.59 10-1.89 14c-3.18 9.9-11.91 15.68-23.35 15.68s-20.29-5.78-23.47-15.68zm34.08-3.54c0.94-2.95 1.18-5.66 1.18-10.49s-0.24-7.43-1.18-10.5c-1.65-4.72-5.31-7.43-10.61-7.43s-9.08 2.71-10.73 7.43c-0.94 3.07-1.18 5.66-1.18 10.5s0.24 7.55 1.18 10.49c1.65 4.72 5.42 7.43 10.73 7.43s8.96-2.71 10.61-7.43z" fill="#fff100" fill-rule="nonzero"/>
    </g>
</svg>
