<svg xmlns="http://www.w3.org/2000/svg"
    xmlns:xlink="http://www.w3.org/1999/xlink" viewBox="0.00970458984375 0.5639495849609375 41.81663513183594 39.750091552734375" version="1.1">
    <g id="Paxos-—-Wires" stroke="none" stroke-width="1" fill="none" fill-rule="evenodd">
        <g id="Paxos-—-Home-Wires" transform="translate(-151.000000, -67.000000)">
            <g id="Nav">
                <g id="paxos-logo" transform="translate(150.000000, 67.000000)">
                    <path d="M12.6319586,5.74035146 C13.4316851,4.82898003 14.1605056,4.05115146 14.8567791,3.39983718 C3.08871103,3.01795146 6.51428358,11.5904657 2.67954865,20.30238 C-1.73638284,30.3356657 3.19913838,34.1592085 10.5535997,35.3505514 C9.53418093,34.1381228 8.70190745,32.7511514 8.06840319,31.2540657 C3.30026658,25.2048086 5.21937764,14.1840086 12.6319586,5.74035146" id="Fill-1" fill="#B3D234"></path>
                    <path d="M40.9487878,16.4279972 C39.8538134,19.5357973 37.8440356,23.0231403 35.0031466,26.4554261 C32.7887876,29.1297977 30.3268388,31.2360263 27.7858472,32.7612264 C24.8484796,34.678855 21.204377,35.8104551 17.1301888,35.8104551 C14.8495733,35.8104551 12.6073169,35.6827693 10.5533681,35.3500836 C11.7669066,36.7921122 13.2419835,37.9893123 14.9576759,38.8245409 C25.5970609,44.0092839 26.2689241,34.3777979 37.5255399,29.4905977 C43.8466341,26.7459404 43.8698819,21.3807974 40.9487878,16.4279972" id="Fill-3" fill="#0095D9"></path>
                    <path d="M27.7822429,6.40501993 C29.3514737,6.69319135 30.8404994,7.21330563 32.1737643,7.97239134 C35.746961,10.0095056 39.0016619,13.126677 40.9486705,16.4277626 C42.8654568,10.9876484 41.9727388,6.71076278 37.7788243,5.93644851 C33.1699353,5.0871628 29.5665164,4.81421995 26.1037472,2.37764856 C21.8389266,-0.623551402 18.1006701,0.366305727 14.8564308,3.40030568 C15.0854222,3.40733426 15.3190633,3.41787711 15.5596786,3.43193426 C20.060465,3.69901997 24.3555078,4.5822771 27.7822429,6.40501993" id="Fill-5" fill="#EEE809"></path>
                    <path d="M12.6319587,5.74035128 C5.21937776,14.1840084 3.30026671,25.2048083 8.06840331,31.2540654 C5.92727517,26.1899797 6.07606149,19.8736369 9.09363404,14.8306369 C13.1108647,8.11600841 21.1685738,5.18860842 27.7825907,6.4057227 C24.3558558,4.58180843 20.0608132,3.69972272 15.5611894,3.43146557 C15.3194116,3.41740843 15.0857706,3.408037 14.8567792,3.399837 C14.1605057,4.05115129 13.4316852,4.82897985 12.6319587,5.74035128" id="Fill-7" fill="#51B849"></path>
                    <path d="M32.173531,7.97286012 C30.8402661,7.21260296 29.3512405,6.69366009 27.7820098,6.40548865 C32.2944199,8.80574586 35.2968814,12.8389745 35.263172,19.263089 C35.2329498,24.8367462 32.3757875,29.7626035 27.785497,32.7614607 C30.3264884,31.2362607 32.7895994,29.1300321 35.0027959,26.4556606 C37.8448471,23.0233748 39.8534624,19.5360318 40.9484368,16.4282318 C39.0014283,13.127146 35.7467275,10.008803 32.173531,7.97286012" id="Fill-9" fill="#00845D"></path>
                    <path d="M27.0398216,29.7071937 C21.9450526,33.0059364 15.1520273,31.5346222 11.865942,26.4201652 C8.57985666,21.3057082 10.2048822,14.7199369 15.139241,11.1845656 C20.657121,7.23216569 27.7337703,8.79133708 30.3131206,14.4715941 C32.8285393,20.0101082 32.1334282,26.4084509 27.0398216,29.7071937 M27.7825913,6.40513696 C21.1685743,5.18919415 13.1108651,8.11542261 9.09363439,14.8300509 C6.0760618,19.8730508 5.92611308,26.1905648 8.06840364,31.2534789 C8.7019079,32.7505646 9.53301899,34.1387074 10.5536002,35.3511359 C12.6075488,35.6838216 14.8498052,35.8103359 17.1292582,35.8103359 C21.2046085,35.8103359 24.848711,34.6787359 27.7849161,32.7611074 C32.376369,29.7634218 35.2335313,24.8363934 35.2625911,19.2627365 C35.2974629,12.8386224 32.2938391,8.80539402 27.7825913,6.40513696" id="Fill-11" fill="#005121"></path>
                </g>
            </g>
        </g>
    </g>
</svg>