<svg xmlns="http://www.w3.org/2000/svg" viewBox="-0.00 0.02 1824.00 440.63"><g fill-rule="nonzero" fill="none"><path d="M53.7 302.68c12.16 7.46 178.56 109.98 178.56 109.98s17.4 13.64 34.94 5.18c17.53-8.46 16.82-25.58 16.82-27.82V163.59s.65-13.59-5.18-25.88c-6.57-13.86-15.5-21.2-25.23-27.17C243.88 104.57 84.76 6.38 84.76 6.38S70.61-4.81 53.71 2.5C36.8 9.81 36.24 26.05 36.24 30.32v244.86c.12 3.69.55 8.59 1.94 11.33 2.42 4.79 3.36 8.7 15.52 16.17zm56.93-192.15l98.98 60.81v137.8l-98.98-60.17V110.53z" fill="#26ABFF"></path><path d="M0 294.91c.12 3.69.55 8.9 1.94 11.65 2.43 4.79 3.37 8.71 15.53 16.17 12.16 7.46 178.56 109.98 178.56 109.98s17.4 13.64 34.94 5.18c17.53-8.46 16.82-25.58 16.82-27.82V183.64s.65-13.59-5.18-25.88c-6.57-13.86-15.5-21.2-25.23-27.17-9.73-5.97-168.85-104.16-168.85-104.16s-14.15-11.19-31.05-3.88C.56 29.86 0 46.1 0 50.37v244.54zm74.4-164.32l98.98 60.81v137.8L74.4 269.03V130.59z" fill="#F50049"></path><path d="M396 57h151.59C597.86 57 623 78.44 623 121.3v95.41c0 42.87-25.14 64.29-75.41 64.29H485v106h-89V57zm138 146.64v-71.27c0-7.57-4.26-11.36-12.76-11.36H486v94h35.24c8.5-.01 12.76-3.79 12.76-11.37zM785.22 387l-10.13-49h-77.98l-10.64 49h-88.06l84.14-330h108.62l84.14 330h-90.09zm-74.29-114h49.87l-24.19-117.82L710.93 273zM978 270v117h-90V57h152.51c50.32 0 75.49 21.25 75.49 63.74v85.63c0 32.51-14.71 52.52-44.12 60.04L1132.42 387h-96.44l-52.33-117H978zm34.24-148H977v88h35.24c8.51 0 12.76-3.79 12.76-11.39v-65.22c0-7.59-4.26-11.39-12.76-11.39zM1270 311.71V264.3c0-7.53-4.26-11.3-12.77-11.3h-49c-25.3 0-43.16-5.55-53.59-16.67-10.43-11.11-15.64-27.11-15.64-47.97v-67.73c0-42.41 24.95-63.62 74.87-63.62h70.26c49.91 0 74.87 21.22 74.87 63.62V160h-90v-27c0-7.33-4.29-11-12.86-11h-14.29c-8.56 0-12.85 3.8-12.85 11.4v49.21c0 7.6 4.28 11.4 12.85 11.4h48.29c25.34 0 42.89 5.36 53.68 16.06 10.79 10.71 16.18 26.42 16.18 47.13v66.27c0 42.37-24.5 63.54-74.53 63.54h-69.91c-50.38 0-75.56-21.18-75.56-63.54V284h90v27.71c0 7.53 4.22 11.29 12.66 11.29h14.68c8.44 0 12.66-3.76 12.66-11.29zM1470 322h112v66h-200V57h196v66h-108v67h94l-.52 62H1470v70zm354-142h-89v-52.74c0-7.5-4.22-11.26-12.65-11.26h-17.71c-8.43 0-12.65 3.76-12.65 11.26l-.52 188.65c0 7.39 4.26 11.09 12.8 11.09h17.92c8.53 0 12.8-3.7 12.8-11.09V266h89v57.9c0 42.74-25.06 64.1-75.18 64.1h-72.63c-50.12 0-75.18-21.36-75.18-64.1V120.55c0-42.36 25.58-63.55 75.7-63.55h72.11c50.12 0 75.18 21.19 75.18 63.55V180h.01z" fill="#F9FAFC"></path></g></svg>