<svg viewBox="0 0 42 51" fill="none" xmlns="http://www.w3.org/2000/svg">
  <path d="M39.8092 23.9075C35.3831 24.9978 29.3621 25.8206 21.0263 25.8206C12.4936 25.8206 6.67029 24.9978 2.24429 23.9075C-0.985456 23.1113 -0.966032 7.27016 18.268 5.8645C19.3814 4.3217 18.7664 1.29438 18.072 0.436412C17.9224 0.252133 18.0956 -0.030713 18.3254 0.00271437C18.7149 0.0566116 19.0958 0.162078 19.4583 0.316417C22.4152 1.59094 23.875 5.09224 24.1961 5.9005C43.0119 7.50415 43.0152 23.119 39.8092 23.9075ZM37.7647 27.0849C35.2302 27.6086 28.8519 28.6148 21.0119 28.6148C13.172 28.6148 6.79701 27.6068 4.26762 27.084C4.11603 27.0524 3.95952 27.0539 3.80857 27.0886C3.65762 27.1232 3.5157 27.1902 3.3923 27.2849C3.2689 27.3797 3.16686 27.5001 3.09301 27.6381C3.01916 27.7761 2.9752 27.9285 2.96406 28.0851C2.65739 32.3981 2.87959 45.9644 18.3237 48.6558C19.15 49.3697 20.5203 51.0077 21.0195 51C21.5188 51.0077 22.8891 49.3715 23.7145 48.6558C39.0437 45.6704 39.3521 32.3707 39.0682 28.0945C39.058 27.9373 39.0147 27.7842 38.9413 27.6454C38.8678 27.5065 38.7659 27.3853 38.6424 27.2898C38.5189 27.1943 38.3767 27.1267 38.2253 27.0917C38.0739 27.0566 37.9168 27.0549 37.7647 27.0866V27.0849Z" fill="#74C947" />
</svg>
