<svg version="1.1" id="Layer_1" xmlns="http://www.w3.org/2000/svg" xmlns:xlink="http://www.w3.org/1999/xlink" x="0px" y="0px" style="enable-background:new 0 0 110 31.3;" xml:space="preserve" viewBox="1.20 0.70 107.50 29.70">
  <defs>
    <linearGradient id="h">
      <stop offset="0%" stop-color="#3ab795"></stop>
      <stop offset="100%" stop-color="#c1da5a"></stop>
    </linearGradient>
  </defs>
  <path d="M13.9,9.1c-2.8,0-5.1,0.8-6.3,2.5c0,0,0-0.7,0-10.9H1.2c0,12.3,0,29.2,0,29.2h6.5V19c0-2.6,1.5-4,4.1-4c2.3,0,3.4,1.3,3.4,3.6c0,0,0,4.3,0,6.8c0,3.8,0,4.5,0,4.5h6.4c0,0,0-1.6,0-4.5c0-2.5,0-7.2,0-7.2C21.6,12.4,18.4,9.1,13.9,9.1zM34.9,9.1c-6.3,0-11.2,4.4-11.2,10.7c0,6.2,4.9,10.6,11.2,10.6c6.3,0,11.2-4.4,11.2-10.6C46.1,13.6,41.2,9.1,34.9,9.1z M34.9,24.9c-2.9,0-4.6-2.1-4.6-5.1c0-3.1,1.8-5.1,4.6-5.1c2.9,0,4.6,2.1,4.6,5.1C39.5,22.8,37.8,24.9,34.9,24.9z M71.4,9.6c0,0-3.2,0-5.4,0c-2.2,0-4.9,1.3-6.2,4.5L59,15.6c-0.9,2.1-1.6,3.5-1.6,3.5L57.2,20l-0.3-0.9c0,0-0.7-1.5-1.6-3.5L54.6,14c-1.3-3.2-4.1-4.5-6.2-4.5c-2.2,0-5.4,0-5.4,0s2.2,0.6,4.5,4.5c2.3,3.8,8.6,16.3,8.6,16.3h2.3c0,0,6.3-12.5,8.6-16.3C69.2,10.2,71.4,9.6,71.4,9.6z M79.8,9.1c-6.3,0-11.2,4.4-11.2,10.6c0,6.3,4.7,10.7,12,10.7c4.3,0,6.7-1.3,8.7-3l-3.7-4c-1,0.7-2.8,1.6-5.1,1.6c-2.9,0-4.6-1.2-5.3-3.3h15.5C91,14.6,87.1,9.1,79.8,9.1z M75.2,17.8c0.5-2.4,2.2-3.6,4.8-3.6c2.5,0,4,1.3,4.3,3.6H75.2z M105.3,9.1c-2.1,0-4.5,0.7-5.7,2.9l0-2.5h-6.5c0,0,0,1.2,0,4.4c0,3.2,0,15.9,0,15.9h6.5v-9c0-4.3,1.6-5.7,4.5-5.7c0.9,0,1.7,0.2,2.5,0.6l2.1-5.9C107.9,9.5,106.7,9.1,105.3,9.1z" fill="url(#h)"></path>
</svg>
