<?xml version="1.0" encoding="UTF-8"?>
<svg enable-background="new 0 0 400 400" version="1.1" viewBox="0 0 400 400" xml:space="preserve" xmlns="http://www.w3.org/2000/svg">
<style type="text/css">
	.st0{fill:url(#a);}
</style>
		<radialGradient id="a" cx="151.42" cy="265.89" r="265.33" gradientTransform="matrix(1 0 0 -1 0 401.28)" gradientUnits="userSpaceOnUse">
		<stop stop-color="#E8E01A" offset="0"/>
		<stop stop-color="#E8E01A" offset=".33"/>
		<stop stop-color="#EDD216" offset=".6294"/>
		<stop stop-color="#F2C412" offset="1"/>
	</radialGradient>
	<circle class="st0" cx="200" cy="200" r="184.2"/>
	<path d="M200,0C89.7,0,0,89.7,0,200s89.7,200,200,200s200-89.7,200-200C400,89.7,310.3,0,200,0z M368.3,200   c0,92.8-75.5,168.3-168.3,168.3S31.7,292.8,31.7,200S107.2,31.7,200,31.7S368.3,107.2,368.3,200z"/>
	<path d="m299.9 206.5c-8.8 0-15.8 7.1-15.8 15.8 0 36.4-33 66-73.5 66s-73.5-29.6-73.5-66c0-8.7-7.1-15.8-15.8-15.8s-15.8 7.1-15.8 15.8c0 53.9 47.2 97.7 105.2 97.7s105.2-43.8 105.2-97.7c-0.2-8.7-7.3-15.8-16-15.8z"/>
	<path d="m156.5 170.9c14.7 0 26.6-12.5 26.6-28s-11.9-28-26.6-28-26.6 12.5-26.6 28c0.1 15.5 12 28 26.6 28z"/>
	<path d="m264.3 170.9c14.7 0 26.6-12.5 26.6-28s-11.9-28-26.6-28-26.6 12.5-26.6 28 11.9 28 26.6 28z"/>
</svg>
