<svg viewBox="0 0 219 73" version="1.1" xmlns="http://www.w3.org/2000/svg" xmlns:xlink="http://www.w3.org/1999/xlink" xml:space="preserve" xmlns:serif="http://www.serif.com/" style="fill-rule:evenodd;clip-rule:evenodd;stroke-linejoin:round;stroke-miterlimit:2;">
    <g id="Page-1">
        <g id="Final-Logo">
            <g id="passiv-fullname">
                <g id="Group">
                    <path id="Fill-2" d="M178.145,10.191C179.556,6.986 179.933,3.688 179.424,0.884C179.356,0.513 179.037,0.239 178.653,0.22C173.272,-0.05 167.997,2.981 165.705,8.201C164.514,10.889 164.3,13.765 164.895,16.41C165.016,16.947 165.776,16.988 165.969,16.471C167.687,11.864 171.165,7.697 174.263,6.419C171.287,7.652 168.166,13.045 166.88,17.968C166.716,18.598 167.256,19.195 167.911,19.101C171.871,18.534 175.948,15.183 178.145,10.191" style="fill:rgb(4,162,135);"/>
                    <path id="Fill-3" d="M126.777,2.413C129.441,1.215 132.227,0.503 135.019,0.259C142.36,-0.383 149.742,2.207 155.077,7.683C155.435,8.048 156.106,8.802 156.106,8.802C157.103,9.891 158.333,11.338 159.608,13.121C159.598,13.103 159.589,13.086 159.579,13.068C159.591,13.089 159.603,13.109 159.614,13.13C162.31,16.696 165.906,22.63 166.826,30.49L161.963,25.202C156.838,18.155 158.053,19.441 156.507,17.937C149.959,11.568 142.208,9.994 138.856,9.524C141.022,10.079 143.466,10.92 146.019,12.216C153.55,16.035 158.046,21.779 160.428,25.538C160.711,25.985 160.493,26.58 159.986,26.734C158.67,27.132 157.007,27.519 155.082,27.687C153.783,27.801 152.365,27.815 150.855,27.668C142.226,26.824 136.802,21.296 134.636,19.088C128.927,13.27 127.01,6.655 126.318,3.303C126.243,2.936 126.434,2.567 126.777,2.413Z" style="fill:rgb(4,162,135);"/>
                </g>
                <path id="Passiv" d="M13.387,71.505L13.387,54.097L21.973,54.097C26.069,54.097 30.952,53.546 35.048,49.529C39.144,45.512 39.695,40.628 39.695,36.453C39.695,32.043 38.908,27.632 34.812,23.693C30.795,19.834 26.069,18.967 21.5,18.967L-0.239,18.967L-0.239,71.505L13.387,71.505ZM17.956,43.07L13.387,43.07L13.387,29.995L18.035,29.995C19.767,29.995 22.288,30.231 23.863,31.885C25.281,33.303 25.439,35.193 25.439,36.611C25.439,37.871 25.36,39.998 23.706,41.416C22.052,42.912 19.374,43.07 17.956,43.07ZM59.065,72.686C62.531,72.686 67.099,71.662 70.014,67.645L70.014,71.505L82.616,71.505L82.616,36.296L70.014,36.296L70.014,39.683C68.517,38.029 65.13,35.114 59.459,35.114C54.418,35.114 49.771,37.084 46.778,40.077C43.942,42.912 41.343,47.56 41.343,54.176C41.343,59.453 42.997,63.47 46.384,67.094C50.637,71.583 55.284,72.686 59.065,72.686ZM59.373,61.974C57.247,61.974 55.041,60.871 53.702,59.611C52.127,58.114 51.26,55.909 51.26,53.861C51.26,52.049 52.048,49.765 53.781,48.111C55.593,46.378 57.719,45.827 59.295,45.827C61.973,45.827 63.784,47.008 64.966,48.111C66.935,50.001 67.408,52.207 67.408,53.861C67.408,56.697 66.147,58.429 65.045,59.532C63.469,61.107 61.421,61.974 59.373,61.974ZM102.253,72.686C105.168,72.686 111.154,72.371 115.25,68.275C116.983,66.621 118.794,63.786 118.794,59.532C118.794,56.933 117.849,54.176 116.116,52.522C115.092,51.498 112.572,50.238 110.918,49.765L108.633,49.135C106.664,48.584 105.64,48.584 104.459,48.111C103.671,47.796 102.962,47.245 102.962,46.142C102.962,45.354 103.356,44.803 104.065,44.409C104.853,43.936 105.719,43.7 106.979,43.7C109.264,43.7 111.863,44.645 113.596,45.433L117.849,37.399C115.801,36.532 111.784,35.114 106.586,35.114C101.387,35.114 96.661,36.611 93.983,39.368C92.014,41.416 90.675,44.566 90.675,47.953C90.675,50.631 91.62,52.601 92.959,54.018C94.849,56.066 97.37,56.697 99.103,57.09L102.411,57.878C103.671,58.193 104.931,58.429 105.719,59.138C106.27,59.611 106.349,60.162 106.349,60.714C106.349,61.344 106.27,61.816 105.719,62.368C104.931,63.077 103.435,63.313 102.49,63.313C101.151,63.313 99.181,62.998 97.606,62.447C95.873,61.895 94.062,60.95 92.565,59.847L88.075,68.59C94.14,72.292 99.103,72.686 102.253,72.686ZM136.226,72.686C139.14,72.686 145.126,72.371 149.222,68.275C150.955,66.621 152.767,63.786 152.767,59.532C152.767,56.933 151.822,54.176 150.089,52.522C149.065,51.498 146.544,50.238 144.89,49.765L142.606,49.135C140.637,48.584 139.613,48.584 138.431,48.111C137.644,47.796 136.935,47.245 136.935,46.142C136.935,45.354 137.329,44.803 138.037,44.409C138.825,43.936 139.692,43.7 140.952,43.7C143.236,43.7 145.835,44.645 147.568,45.433L151.822,37.399C149.774,36.532 145.757,35.114 140.558,35.114C135.359,35.114 130.633,36.611 127.955,39.368C125.986,41.416 124.647,44.566 124.647,47.953C124.647,50.631 125.592,52.601 126.931,54.018C128.822,56.066 131.342,56.697 133.075,57.09L136.383,57.878C137.644,58.193 138.904,58.429 139.692,59.138C140.243,59.611 140.322,60.162 140.322,60.714C140.322,61.344 140.243,61.816 139.692,62.368C138.904,63.077 137.407,63.313 136.462,63.313C135.123,63.313 133.154,62.998 131.579,62.447C129.846,61.895 128.034,60.95 126.537,59.847L122.048,68.59C128.113,72.292 133.075,72.686 136.226,72.686ZM169.828,71.505L169.828,36.296L157.226,36.296L157.226,71.505L169.828,71.505ZM200.863,71.505L219.215,36.296L205.195,36.296L196.609,54.334L188.181,36.296L174.082,36.296L192.277,71.505L200.863,71.505Z" style="fill:rgb(27,29,35);fill-rule:nonzero;"/>
            </g>
        </g>
    </g>
</svg>
