<svg viewBox="0 0 24 22.4" version="1.1" xmlns="http://www.w3.org/2000/svg" xmlns:xlink="http://www.w3.org/1999/xlink" xml:space="preserve" style="fill-rule:evenodd;clip-rule:evenodd;stroke-linejoin:round;stroke-miterlimit:2;">
    <g transform="matrix(1,0,0,1,-0.000354287,-0.8)">
        <path d="M22.109,7.951L23.594,10.415C24.135,11.439 24.135,12.666 23.594,13.69L19.089,21.407C18.518,22.502 17.384,23.194 16.149,23.2L7.83,23.2C6.595,23.194 5.461,22.502 4.89,21.407L3.335,18.775L9.474,13.08L13.921,15.658C14.383,15.975 15.017,15.889 15.377,15.46L22.109,7.951ZM8.719,8.579L1.99,16.15L0.406,13.725C-0.135,12.703 -0.135,11.477 0.406,10.455L5.158,2.59C5.731,1.496 6.865,0.806 8.1,0.8L16.108,0.8C17.336,0.8 18.465,1.487 19.05,2.59L20.666,5.312L14.649,10.904L10.217,8.33C9.734,8 9.068,8.11 8.718,8.578L8.719,8.579Z" style="fill-rule:nonzero;"/>
    </g>
</svg>