<svg height="680" viewBox="0 0 499.599 135.92" width="2500" xmlns="http://www.w3.org/2000/svg"><g fill="none" fill-rule="evenodd"><path d="m192.166 80.616c0 10.324-7.851 17.23-20.5 17.23-6.616 0-12.941-1.963-16.431-5.38l3.853-7.489c2.617 2.764 6.761 4.362 11.414 4.362 6.834 0 11.05-3.489 11.05-8.65 0-5.163-4.071-8.434-10.25-8.434-2.763 0-5.162.582-7.344 1.745l-2.762-5.16 14.831-17.013h-18.32v-8.507h31.696v6.397l-13.885 14.76c10.033.217 16.648 6.686 16.648 16.138m3.682-10.717c0-16.503 11.415-27.48 28.499-27.48 8.797 0 15.921 2.908 21.228 8.65l-6.47 6.544c-3.054-3.926-8.215-6.689-14.613-6.689-10.832 0-18.03 7.634-18.03 19.048 0 11.559 7.343 19.192 18.175 19.192 7.27 0 12.286-3.271 15.704-8.505l6.906 6.18c-5.161 7.051-13.013 10.832-22.828 10.832-17.084 0-28.57-11.122-28.57-27.772m84.043 7.244c0-7.124-4.29-11.85-10.687-11.85-6.47 0-10.76 4.726-10.76 11.85 0 7.126 4.29 11.85 10.76 11.85 6.398 0 10.687-4.724 10.687-11.85zm-31.697 0c0-12.141 8.433-20.283 21.01-20.283 12.504 0 20.938 8.142 20.938 20.283 0 12.214-8.434 20.356-20.938 20.356-12.577 0-21.01-8.142-21.01-20.356zm107.824-5.016v24.645h-9.887v-23.046c0-5.088-3.199-8.433-8.07-8.433-4.798 0-7.997 3.345-7.997 8.433v23.045h-9.887v-23.045c0-5.088-3.199-8.433-8.069-8.433-4.799 0-7.998 3.345-7.998 8.433v23.045h-9.887v-39.183h9.524l.146 4.651c2.762-3.561 6.906-5.379 11.704-5.379 5.161 0 9.305 2.18 11.85 5.888 2.835-3.852 7.415-5.888 12.65-5.888 9.524 0 15.921 6.108 15.921 15.267m68.592 0v24.645h-9.887v-23.046c0-5.088-3.199-8.433-8.07-8.433-4.798 0-7.997 3.345-7.997 8.433v23.045h-9.887v-23.045c0-5.088-3.199-8.433-8.07-8.433-4.797 0-7.997 3.345-7.997 8.433v23.045h-9.887v-39.183h9.524l.146 4.651c2.761-3.561 6.906-5.379 11.704-5.379 5.161 0 9.305 2.18 11.85 5.888 2.835-3.852 7.415-5.888 12.65-5.888 9.524 0 15.921 6.108 15.921 15.267m29.461 8.288c-2.544-.509-5.16-.8-7.415-.8-4.652 0-7.634 2.18-7.634 5.526 0 3.198 2.109 5.306 6.108 5.306 4.58 0 8.869-3.635 8.941-10.032zm9.887-8.288v24.645h-9.522l-.22-5.598c-2.616 4.072-7.123 6.325-11.922 6.325-8.142 0-13.595-4.872-13.595-12.14 0-7.561 6.689-12.505 16.72-12.505 2.691 0 5.672.29 8.652.872v-.726c0-5.235-3.489-8.36-9.45-8.36-3.709 0-6.689 1.09-9.16 3.125l-4.29-5.816c4.217-3.417 9.161-5.089 15.994-5.089 10.033 0 16.793 6.035 16.793 15.267zm4.453 20.72 3.707-5.962c3.709 2.181 7.415 2.908 11.27 2.908 3.634 0 6.106-1.528 6.106-3.926 0-2.4-2.763-3.706-6.689-4.725l-3.272-.873c-6.615-1.745-11.122-4.289-11.122-10.468 0-7.78 6.106-12.94 15.412-12.94 5.888 0 10.905 1.235 14.757 3.852l-4.142 6.47c-3.127-1.744-6.47-2.544-9.96-2.544-3.563 0-6.035 1.309-6.035 3.562 0 2.326 2.472 3.417 5.888 4.29l3.272.945c6.69 1.744 11.995 4.797 11.995 11.705 0 7.414-6.542 12.358-16.357 12.358-5.961 0-11.268-1.526-14.83-4.652" fill="#39535c"/><path d="m135.38 0v135.92h-135.38v-135.92z" fill="#00a59a"/><path d="m88.662 83.935h15.231a.2.2 0 0 0 .19-.137l5.153-15.498a.2.2 0 0 0 .002-.007l4.467-15.373a.2.2 0 0 0 -.015-.15l-.65-1.22a.2.2 0 0 0 -.177-.106h-18.68a.2.2 0 0 0 -.197.168l-2.676 16.682a.2.2 0 0 1 -.001.005l-2.842 15.4a.2.2 0 0 0 .196.236zm-34.297 0h15.167a.2.2 0 0 0 .19-.136l5.188-15.499a.2.2 0 0 0 .002-.007l4.497-15.373a.2.2 0 0 0 -.016-.15l-.654-1.22a.2.2 0 0 0 -.176-.106h-18.81a.2.2 0 0 0 -.196.168l-2.697 16.684v.002l-2.692 15.403a.2.2 0 0 0 .197.234zm-33.392 0h15.23a.2.2 0 0 0 .19-.137l5.153-15.498a.2.2 0 0 0 .003-.007l4.467-15.373a.2.2 0 0 0 -.016-.15l-.65-1.22a.2.2 0 0 0 -.176-.106h-18.68a.2.2 0 0 0 -.197.168l-2.678 16.682a.2.2 0 0 1 0 .005l-2.843 15.4a.2.2 0 0 0 .197.236z" fill="#fff"/></g></svg>
