<svg version="1.1" id="Layer_1" xmlns="http://www.w3.org/2000/svg" xmlns:xlink="http://www.w3.org/1999/xlink" x="0px" y="0px" style="enable-background:new 0 0 612 792;" xml:space="preserve" viewBox="156.00 246.00 300.00 300.00">
<style type="text/css">
	.st0{fill:#255FAB;}
	.st1{fill:#FEFEFE;}
	.st2{fill:#375B85;}
	.st3{fill:#355A94;}
	.st4{fill:#3B6799;}
	.st5{fill:#395C82;}
	.st6{fill:#456C9A;}
</style>
<path class="st0" d="M455.92,396c0,48.81-0.03,97.61,0.08,146.42c0.01,2.98-0.6,3.58-3.58,3.58c-97.61-0.1-195.23-0.1-292.84,0
	c-2.98,0-3.58-0.6-3.58-3.58c0.1-97.61,0.1-195.23,0-292.84c0-2.98,0.6-3.58,3.58-3.58c97.61,0.1,195.23,0.1,292.84,0
	c2.98,0,3.59,0.6,3.58,3.58C455.88,298.39,455.92,347.19,455.92,396z"></path>
<path class="st1" d="M237.92,406.04c-13.93-0.25-27.08-3.15-38.53-11.61c-14.56-10.75-22.16-25.26-23.62-43.22
	c-0.28-3.47,0.9-4.29,4.11-4.22c7.66,0.18,15.32,0.19,22.98-0.01c3.12-0.08,4.16,0.88,4.68,4.05c2.35,14.31,13.57,23.72,27.65,23.99
	c3.6,0.07,5.04-0.71,4.85-4.63c-0.33-6.64-0.07-13.32-0.07-19.98c0-1.74-0.04-3.39,2.48-3.37c9.16,0.07,18.31,0.06,27.47,0.15
	c0.55,0.01,1.1,0.64,1.65,0.99c0.29,7.6-0.79,15.24,0.87,22.82c0.59,2.69,1.77,3.55,4.36,3.54c19.46-0.06,38.92-0.07,58.39,0.02
	c2.69,0.01,3.41-0.99,3.35-3.5c-0.13-5.99-0.1-11.98-0.01-17.96c0.02-1.59-0.65-3.33,0.66-4.77c1.2-1.6,2.95-1.26,4.57-1.27
	c7.65-0.02,15.31,0.17,22.95-0.1c3.68-0.13,4.49,1.35,4.38,4.65c-0.2,6.15,0.2,12.32-0.16,18.45c-0.24,4.07,1.21,5.4,5.06,4.9
	c2.29-0.29,4.67,0.16,6.86-0.91c4.21-1.67,7.76-4.7,12.21-5.89c5.78-4.12,8.81-10.04,9.62-16.79c0.47-3.88,2-4.5,5.36-4.4
	c7.32,0.21,14.66,0.32,21.97-0.02c4.25-0.2,4.91,1.43,4.65,5.21c-2.14,30.45-26.27,52.88-57.86,53.62
	c-7.75,0.18-7.75,0.18-7.76,8.05c-0.01,9.49,0.07,18.98-0.07,28.47c-0.38,26.81-17.22,51.06-41.8,60.32
	c-25.93,9.77-54.19,2.98-72.55-17.42c-5.95-6.61-10-14.35-13.53-22.42c-2.51-4.92-3.92-10.18-4-15.65
	c-0.16-11.8-0.02-23.6-0.07-35.4C239.01,409.79,239.53,407.69,237.92,406.04z"></path>
<path class="st2" d="M339.17,348.33c0.09,7.79,0.12,15.58,0.32,23.37c0.07,2.73-1.2,3.3-3.63,3.29
	c-20.41-0.06-40.82-0.07-61.23,0.02c-2.62,0.01-3.5-0.9-3.43-3.47c0.21-7.78,0.25-15.57,0.36-23.36c0.97,4.1,0.6,8.28,0.38,12.39
	c-0.22,3.98,1.29,7.44,2.17,11.1c0.52,2.13,2.17,2.28,3.87,2.28c18.58,0.01,37.15-0.03,55.73,0.04c3.31,0.01,4.34-1.54,4.28-4.59
	c-0.1-5.31-0.05-10.62,0-15.92C338,351.68,337.61,349.77,339.17,348.33z"></path>
<path class="st3" d="M237.92,406.04c3.3-0.02,1.93,2.55,1.95,3.96c0.14,8.77,0.29,17.55,0.03,26.31c-0.27,9.02,0.92,17.8,3.18,26.48
	c-4.62-3.83-4.72-9.46-4.89-14.53C237.72,434.19,237.96,420.11,237.92,406.04z"></path>
<path class="st4" d="M395.05,368.17c-3.38,3.39-7.34,5.57-12.21,5.89C386.35,370.94,389.64,367.35,395.05,368.17z"></path>
<path class="st0" d="M275.82,458c-3.3-4.86-4.42-10.38-4.49-16.09c-0.14-10.65-0.05-21.31-0.09-31.96
	c-0.01-2.27-0.17-4.22,3.22-4.19c21.13,0.18,42.27,0.21,63.41,0.29c1.09,1.31,0.62,2.87,0.6,4.3c-0.23,13.38,0.58,26.78-0.42,40.15
	c-3.83,19.72-28.35,30.97-47.38,21.78c-4.13-2-7.68-4.7-10.7-8.13C279.08,461.76,277.82,459.63,275.82,458z"></path>
<path class="st5" d="M338.03,450.49c-0.06-14.82-0.12-29.64-0.18-44.45c1.4,0,1.55,1.03,1.55,2.03
	c-0.04,12.73-0.07,25.46-0.22,38.18C339.17,447.67,338.43,449.08,338.03,450.49z"></path>
<path class="st6" d="M275.82,458c3.02,0.94,4.37,3.01,4.14,6.14C278.12,462.4,276.5,460.52,275.82,458z"></path>
</svg>
