<svg clip-rule="evenodd" fill-rule="evenodd" stroke-linejoin="round" stroke-miterlimit="2" viewBox="0 0 560 400" xmlns="http://www.w3.org/2000/svg"><g fill-rule="nonzero" transform="matrix(6.36432 0 0 6.36432 -3138.55 -5562.11)"><g fill="#505256"><path d="m565.122 908.733c-.98 1.212-2.479 1.987-4.157 1.987-2.951 0-5.344-2.392-5.344-5.343 0-2.952 2.393-5.344 5.344-5.344 1.61 0 3.054.713 4.034 1.84l1.263-1.18c-1.296-1.464-3.188-2.387-5.297-2.387-3.904 0-7.07 3.166-7.07 7.071 0 3.904 3.166 7.069 7.07 7.069 2.218 0 4.197-1.021 5.494-2.62z"/><path d="m533.448 898.621v13.517l1.712-.004v-11.802h4.139c2.536 0 4.677 2.105 4.677 4.597v7.211l1.706-.004v-7.164c0-3.5-2.866-6.348-6.387-6.348z"/><path d="m504.144 910.41c1.548 1.267 3.41 1.933 5.408 1.933 2.863 0 4.712-1.52 4.712-3.873v-.04c0-2.011-1.164-3.04-4.296-3.803-2.562-.612-3.706-1.139-3.706-2.645v-.041c0-1.239 1.125-2.104 2.738-2.104 1.267 0 2.512.429 3.795 1.312l.889-1.254c-1.37-1.008-2.856-1.478-4.642-1.478-2.643 0-4.488 1.541-4.488 3.749v.041c0 2.372 1.501 3.169 4.46 3.884 2.681.619 3.544 1.247 3.544 2.586v.04c0 1.32-1.183 2.206-2.943 2.206-1.628 0-3.023-.526-4.475-1.697z"/><path d="m549.096 898.62h1.707v13.519h-1.707z"/></g><g fill="#52aee5"><path d="m523.364 910.719c-2.951 0-5.344-2.391-5.344-5.342 0-2.952 2.393-5.344 5.344-5.344 2.95 0 5.342 2.392 5.342 5.344 0 2.951-2.392 5.342-5.342 5.342m0-12.413c-3.904 0-7.071 3.165-7.071 7.071 0 3.905 3.167 7.07 7.071 7.07 3.905 0 7.07-3.165 7.07-7.07 0-3.906-3.165-7.071-7.07-7.071"/><path d="m570.141 911.262c0 .587-.476 1.063-1.062 1.063-.589 0-1.063-.476-1.063-1.063s.474-1.063 1.063-1.063c.586 0 1.062.476 1.062 1.063"/></g></g></svg>