<svg xmlns="http://www.w3.org/2000/svg" viewBox="0 -13 52 52">
  <g fill="black">
    <path d="M44.7141601 8.72166781L44.7141601 8.72166781C44.1290435 8.75392587 43.6816013 9.23779684 43.71602 9.78618394 43.7504386 10.302313 44.1978807 10.7216678 44.7141601 10.7216678L44.7141601 10.7216678C45.2992768 10.6894097 45.7467189 10.2055388 45.7123003 9.65715168 45.6778817 9.14102265 45.2648581 8.72166781 44.7141601 8.72166781zM46.7141601 4.72155952C46.7141601 5.26905167 46.147863 5.71992756 45.4602165 5.71992756L41.051189 5.71992756C40.3635426 5.75213298 39.7567957 5.33346251 39.7163459 4.78597036 39.6758961 4.23847822 40.2017434 3.75539691 40.8893899 3.72319149 40.9298397 3.72319149 40.9702895 3.72319149 41.051189 3.72319149L45.4602165 3.72319149C46.147863 3.69098607 46.7141601 4.17406738 46.7141601 4.72155952zM50.5647351 8.72340939L49.0218316 8.72340939C48.3492839 8.69117941 47.7558595 9.11016908 47.7162979 9.65807865 47.6767362 10.2059882 48.1910374 10.6894378 48.8635851 10.7216678 48.9031467 10.7216678 48.9427084 10.7216678 49.0218316 10.7216678L50.5647351 10.7216678C51.2372828 10.6894378 51.751584 10.2059882 51.7120224 9.65807865 51.7120224 9.14239905 51.1977212 8.72340939 50.5647351 8.72340939z"/>
    <path d="M50.7141601,14.0948204 C50.7141601,14.7242171 50.184263,15.2425439 49.5408166,15.2425439 L37.0503851,15.2425439 C36.4069387,15.2795673 35.9148914,15.8349174 35.9527412,16.4643142 C35.9905909,17.0566876 36.4826382,17.537991 37.0503851,17.537991 L45.642288,17.537991 C46.2857344,17.5009677 46.8534813,17.9822711 46.8913311,18.6116679 C46.9291809,19.2410647 46.4371336,19.7964148 45.7936871,19.8334382 C45.7558373,19.8334382 45.7179875,19.8334382 45.642288,19.8334382 L40.3811668,19.8334382 C40.2676175,20.0185549 40.1162183,20.2036716 39.9648191,20.3887883 C38.8671752,21.6846052 37.2774839,22.4991187 35.5363934,22.7212587 L6.61915219,22.7212587 C3.40191985,22.7582821 0.752434392,20.2777182 0.714160119,17.1307343 C0.676734808,14.0207737 3.17482109,11.4661632 6.31635385,11.3550931 L6.31635385,11.3550931 C6.31635385,7.24550233 9.72283515,3.91340167 13.8863123,3.91340167 C15.0596559,3.91340167 16.2329994,4.17256506 17.2927936,4.69089183 C20.7749745,0.24809095 27.3229885,-0.603445885 31.8649636,2.8397248 C32.2056117,3.09888818 32.5084101,3.35805156 32.8112084,3.65423829 L36.520488,3.65423829 C37.1639345,3.61721495 37.7316814,4.09851838 37.7695312,4.72791517 C37.807381,5.35731196 37.3153337,5.91266207 36.6718872,5.94968541 C36.6340374,5.94968541 36.5961876,5.94968541 36.520488,5.94968541 L32.7733586,5.94968541 C32.1299121,5.91266207 31.5621653,6.3939655 31.5243155,7.02336229 C31.4864657,7.65275908 31.978513,8.20810919 32.6219594,8.24513253 C32.6598092,8.24513253 32.697659,8.24513253 32.7733586,8.24513253 L39.5863212,8.24513253 C40.2297677,8.20810919 40.7975146,8.68941262 40.8353643,9.31880941 C40.8732141,9.9482062 40.3811668,10.5035563 39.7377204,10.5405797 C39.6998706,10.5405797 39.6620208,10.5405797 39.5863212,10.5405797 L33.984552,10.5405797 C33.3411055,10.577603 32.8490582,11.1329531 32.886908,11.7623499 C32.9247578,12.3547233 33.4168051,12.8360268 33.984552,12.8360268 L49.5029668,12.8360268 C50.1464132,12.9100735 50.6763103,13.4284002 50.7141601,14.0948204 C50.7141601,14.0948204 50.7141601,14.0948204 50.7141601,14.0948204 Z"/>
  </g>
</svg>