<svg viewBox="0 0 61 42" version="1.1" xmlns="http://www.w3.org/2000/svg" xmlns:xlink="http://www.w3.org/1999/xlink" xml:space="preserve" xmlns:serif="http://www.serif.com/" style="fill-rule:evenodd;clip-rule:evenodd;stroke-linejoin:round;stroke-miterlimit:2;">
    <g transform="matrix(1,0,0,1,-274.855,-82.4056)">
        <g id="XMLID_46_">
            <g id="XMLID_85_" transform="matrix(1,0,0,1,-97.2449,-146.194)">
                <path d="M372.1,248.3C372.1,241.9 374.3,236.2 378.6,231.4C380.1,229.6 381.5,228.6 382.4,228.6C382.7,228.6 383.1,228.6 383.2,228.9C383.5,229.2 383.6,229.3 383.6,229.7C383.6,230.1 383,230.9 381.9,232.1C377.3,236.5 375.1,242 375.1,248.5C375.1,255.7 377.5,261.7 382.2,266.1C383.2,266.9 383.6,267.8 383.6,268.3C383.6,268.6 383.5,269 383.2,269.1C382.9,269.4 382.6,269.5 382.4,269.5C381.3,269.5 379.8,268.2 377.8,265.6C373.9,261 372.1,255.3 372.1,248.3Z" style="fill:rgb(0,100,0);fill-rule:nonzero;"/>
            </g>
            <g id="XMLID_86_" transform="matrix(1,0,0,1,-97.2449,-146.194)">
                <path d="M432.5,250C432.5,256.4 430.3,262.1 426,266.9C424.5,268.7 423.1,269.7 422.2,269.7C421.9,269.7 421.5,269.7 421.4,269.4C421.1,269.1 421,268.8 421,268.6C421,268.2 421.6,267.3 422.7,266.4C427.3,262 429.5,256.5 429.5,250C429.5,242.8 427.1,236.8 422.4,232.4C421.4,231.6 421,230.7 421,230.2C421,229.9 421.1,229.5 421.4,229.4C421.7,229.1 422,229 422.2,229C423.3,229 424.8,230.3 426.8,232.9C430.6,237.4 432.5,243.2 432.5,250Z" style="fill:rgb(0,100,0);fill-rule:nonzero;"/>
            </g>
            <g id="XMLID_87_" transform="matrix(1,0,0,1,-97.2449,-146.194)">
                <path d="M416,268.3L388.4,268.3C387.6,268.3 386.7,267.6 386.7,266.6C386.7,265.6 387.4,264.9 388.4,264.9L416,264.9C416.8,264.9 417.7,265.6 417.7,266.6C417.6,267.6 417.1,268.3 416,268.3Z" style="fill:rgb(0,100,0);fill-rule:nonzero;"/>
            </g>
            <g id="XMLID_88_" transform="matrix(1,0,0,1,-97.2449,-146.194)">
                <path d="M396.4,232.1C396.4,232.1 398.8,233.8 398.8,236.5C398.8,241.5 392,247.1 392,252.3C392,258 396.3,261.6 400.3,262.7C400.9,262.8 401.1,262.1 400.4,262C398.7,261.6 396.8,259.4 396.8,255.9C396.8,252.7 399.9,251.5 401.1,249.9C402.4,248.2 402.1,246.3 401.4,245.7C400.7,245.1 401.1,244.3 402.5,245.3C403.8,246.3 405,247.9 404.6,249.6C404,251.7 404.7,252.9 405.9,253.1C407,253.2 408.3,252.7 408.1,251.7C408,250.7 407.4,249.6 407.7,249.6C408.5,249.6 410.2,251.5 410.2,254.6C410.2,257.7 407.7,259.9 406.9,260.7C406.5,261.1 407,261.8 407.7,261.5C408,261.4 408.7,260.9 409.1,260.7C411,259.3 414.2,256.4 414.2,251C414.2,245.3 412.1,242.8 409.9,240.7C407.8,238.6 407.3,239.2 407.8,240.1C409.6,243.3 408.5,244.3 407.2,244.3C405.7,244.3 405.5,240.7 405,238C403.6,231.9 398.2,230.9 397.2,230.9C396.1,231 395.1,231.5 396.4,232.1Z" style="fill:rgb(0,100,0);fill-rule:nonzero;"/>
            </g>
        </g>
    </g>
</svg>