<svg viewBox="0 0 136 40" xmlns="http://www.w3.org/2000/svg" fill="currentColor" fill-rule="evenodd" clip-rule="evenodd" stroke-linejoin="round" stroke-miterlimit="2" class="transition-colors duration-300 ease-in-out h-8 lg:h-12 "><path d="M44.942 30.109h8.417c4.269 0 7.746-1.983 7.746-6.466 0-2.074-.915-3.812-2.958-4.727 1.494-1.007 2.287-2.41 2.287-4.362 0-3.72-2.745-5.794-7.228-5.794h-8.264v21.349zm6.038-13.267v-3.02h1.708c1.037 0 1.555.61 1.555 1.464 0 .885-.518 1.556-1.494 1.556H50.98zm0 8.173v-3.446h2.257c1.067 0 1.647.854 1.647 1.708 0 .823-.641 1.738-1.739 1.738H50.98zm17.474 5.49c1.983 0 3.446-1.098 4.026-1.921v1.525h5.763V14.005h-5.916v9.577c0 .915-.549 1.708-1.708 1.708-.975 0-1.707-.58-1.707-1.8v-9.485h-5.916v10.37c0 3.721 1.646 6.13 5.458 6.13zM97.608 8.058h-5.916v6.954c-.579-.488-2.013-1.403-4.086-1.403-4.666 0-7.594 3.477-7.594 8.448 0 4.941 3.294 8.448 7.99 8.448 2.104 0 3.507-.823 4.117-1.433v1.037h5.489V8.058zm-5.733 13.999c0 1.83-1.006 3.355-2.958 3.355-1.861 0-2.989-1.312-2.989-3.355 0-1.982 1.098-3.385 2.989-3.385 1.769 0 2.958 1.25 2.958 3.385zm25.22-13.999h-5.917v6.954c-.579-.488-2.012-1.403-4.086-1.403-4.665 0-7.593 3.477-7.593 8.448 0 4.941 3.293 8.448 7.989 8.448 2.105 0 3.508-.823 4.118-1.433v1.037h5.489V8.058zm-5.733 13.999c0 1.83-1.006 3.355-2.958 3.355-1.86 0-2.989-1.312-2.989-3.355 0-1.982 1.098-3.385 2.989-3.385 1.768 0 2.958 1.25 2.958 3.385zm16.589 13.511 7.929-21.563h-6.16l-2.47 8.326-2.318-8.326h-6.343l5.977 15.494-2.165 6.069h5.55z"></path><path d="M15.996.534a3.503 3.503 0 0 1 3.501 0L33.742 8.76a3.501 3.501 0 0 1 1.751 3.032v16.451c0 1.25-.668 2.406-1.751 3.032L19.497 39.5a3.503 3.503 0 0 1-3.501 0A66030.71 66030.71 0 0 0 1.75 31.275 3.503 3.503 0 0 1 0 28.243V11.792A3.5 3.5 0 0 1 1.75 8.76L15.996.534z" fill="#0da7fe"></path><path d="m-.194 30.266 9.437-10.249 8.529 20.493L-.194 30.266z" fill="#1a67fd"></path><path d="M9.243 20.017-.07 9.698l-.124 20.568 9.437-10.249z" fill="#0da7fe"></path><path d="M9.243 20.017 17.772-.477-.07 9.698l9.313 10.32z" fill="#05bbff"></path><path d="m17.772-.477 17.747 30.741L9.243 20.017" fill="#00c9ff"></path><path d="m17.772 40.545 17.747-10.279L9.243 20.017l8.529 20.528z" fill="#1a86fd"></path><path d="M35.519 30.264V9.77L17.772-.477l17.747 30.741z" fill="#05bbff"></path><path d="m15.181 11.945 8.595 8.595-8.595 8.596-2.253-2.253 6.342-6.343-6.342-6.342 2.253-2.253z" fill="#1a67fd" fill-opacity="0.5"></path><path d="m23.776 19.53-2.253-2.254-8.595 8.596 2.253 2.253 8.595-8.596z" fill="#d6ffff"></path><path d="m15.181 10.934-2.253 2.253 8.595 8.595 2.253-2.253-8.595-8.595z" fill="#d6ffff"></path></svg>
