<svg xmlns="http://www.w3.org/2000/svg" viewBox="0 0 35.71 41.02"><defs><style>.cls-1{fill:#0da7fe;}.cls-1,.cls-2,.cls-3,.cls-4,.cls-5,.cls-6,.cls-7{fill-rule:evenodd;}.cls-2,.cls-6{fill:#1a67fd;}.cls-3{fill:#05bbff;}.cls-4{fill:#00c9ff;}.cls-5{fill:#1a86fd;}.cls-6{fill-opacity:0.5;}.cls-7{fill:#d6ffff;}</style></defs><g id="Calque_2" data-name="Calque 2"><g id="Calque_1-2" data-name="Calque 1"><path class="cls-1" d="M16.19,1a3.53,3.53,0,0,1,3.5,0L33.94,9.24a3.5,3.5,0,0,1,1.75,3V28.72a3.5,3.5,0,0,1-1.75,3L19.69,40a3.53,3.53,0,0,1-3.5,0L1.94,31.75a3.5,3.5,0,0,1-1.75-3V12.27a3.5,3.5,0,0,1,1.75-3Z"/><path class="cls-2" d="M0,30.74,9.44,20.49,18,41Z"/><path class="cls-1" d="M9.44,20.49.12,10.17,0,30.74Z"/><path class="cls-3" d="M9.44,20.49,18,0,.12,10.17,9.44,20.49Z"/><path class="cls-4" d="M18,0,35.71,30.74,9.44,20.49"/><path class="cls-5" d="M18,41,35.71,30.74,9.44,20.49Z"/><path class="cls-3" d="M35.71,30.74V10.25L18,0Z"/><path class="cls-6" d="M15.37,12.42,24,21l-8.59,8.59-2.26-2.25L19.46,21l-6.34-6.34Z"/><path class="cls-7" d="M24,20l-2.25-2.26-8.6,8.6,2.25,2.25L24,20Z"/><path class="cls-7" d="M15.37,11.41l-2.25,2.25,8.6,8.6L24,20Z"/></g></g></svg>