<svg version="1.1" xmlns="http://www.w3.org/2000/svg" xmlns:xlink="http://www.w3.org/1999/xlink" preserveAspectRatio="xMidYMid meet" viewBox="0 253.42569200072208 133.12 133.07733333333337"><defs><path d="M104.53 253.43C123.59 253.43 133.12 262.95 133.12 282.01C133.12 327.55 133.12 352.86 133.12 357.92C133.12 376.97 123.59 386.5 104.53 386.5C58.97 386.5 33.65 386.5 28.59 386.5C9.53 386.5 0 376.97 0 357.92C0 312.37 0 287.07 0 282.01C0 262.95 9.53 253.43 28.59 253.43C74.15 253.43 99.47 253.43 104.53 253.43Z" id="f4Ow4d9wq2"></path><linearGradient id="gradiente1k6HX7fD" gradientUnits="userSpaceOnUse" x1="0" y1="319.9" x2="133.08" y2="319.9"><stop style="stop-color: #7ec7f0;stop-opacity: 1" offset="0%"></stop><stop style="stop-color: #5ea0ee;stop-opacity: 1" offset="100%"></stop></linearGradient><path d="M99.63 261.75C116.41 261.75 124.8 270.14 124.8 286.92C124.8 326.57 124.8 348.6 124.8 353.01C124.8 369.79 116.41 378.18 99.63 378.18C59.95 378.18 37.9 378.18 33.49 378.18C16.71 378.18 8.32 369.79 8.32 353.01C8.32 313.36 8.32 291.33 8.32 286.92C8.32 270.14 16.71 261.75 33.49 261.75C73.17 261.75 95.22 261.75 99.63 261.75Z" id="g1BK5p1aPP"></path><radialGradient id="gradientbHgB6GnM1" gradientUnits="userSpaceOnUse" cx="106.88" cy="284.34" dx="320" dy="319.99" r="216.08"><stop style="stop-color: #ffffff;stop-opacity: 1" offset="0%"></stop><stop style="stop-color: #fcfdff;stop-opacity: 1" offset="100%"></stop></radialGradient><path d="M103.25 319.77C89.69 311.96 82.15 307.63 80.64 306.76C75.8 314.68 75.8 324.65 80.64 332.57C83.66 330.87 91.19 326.6 103.25 319.77Z" id="d12WgQ4WXe"></path><path d="M73.81 336.41C67.55 326.13 67.55 313.21 73.81 302.92C73.13 302.54 67.67 299.46 66.99 299.08C63.29 305.27 61.37 312.35 61.44 319.56C61.35 326.84 63.27 334 66.99 340.25C68.35 339.48 72.45 337.18 73.81 336.41Z" id="a1jg5kJpiO"></path><path d="M66.77 341.11C66.77 340.85 66.77 340.71 66.77 340.68C62.96 334.3 60.97 326.99 61.01 319.56C60.97 312.26 62.97 305.09 66.77 298.87C66.77 298.82 66.77 298.61 66.77 298.23L74.67 302.71C74.41 303.09 74.27 303.3 74.24 303.35C71.37 308.27 69.83 313.86 69.76 319.56C69.8 325.43 71.42 331.18 74.45 336.2C74.45 336.23 74.45 336.37 74.45 336.63L66.77 341.11ZM67.2 299.93C60.36 312.2 60.36 327.13 67.2 339.4C67.78 339.08 72.38 336.52 72.96 336.2C70.13 331.11 68.66 325.38 68.69 319.56C68.72 313.81 70.19 308.16 72.96 303.13C71.81 302.49 68.35 300.57 67.2 299.93Z" id="d5xw7rgv0"></path><path d="M60.16 344.09C51.34 329 51.34 310.33 60.16 295.24C59.48 294.86 54.02 291.78 53.33 291.4C48.3 299.93 45.64 309.65 45.65 319.56C45.61 329.6 48.26 339.48 53.33 348.15C54.7 347.34 58.79 344.9 60.16 344.09Z" id="g259PiHB3v"></path><path d="M53.12 348.79C53.12 348.53 53.12 348.39 53.12 348.36C42.6 330.68 42.6 308.65 53.12 290.97C53.12 290.94 53.12 290.8 53.12 290.55L61.01 295.03C61.01 295.28 61.01 295.42 61.01 295.45C56.66 302.74 54.37 311.07 54.4 319.56C54.42 328.11 56.7 336.5 61.01 343.88C61.01 343.91 61.01 344.05 61.01 344.31L53.12 348.79ZM53.55 292.25C48.82 300.58 46.32 309.98 46.29 319.56C46.29 329.27 48.79 338.82 53.55 347.29C54.12 346.95 58.73 344.22 59.31 343.88C50.79 328.86 50.79 310.47 59.31 295.45C58.15 294.81 54.7 292.89 53.55 292.25Z" id="afdNE0xgo"></path><path d="M46.51 351.99C40.83 342.13 37.89 330.93 37.97 319.56C37.88 308.32 40.83 297.26 46.51 287.56C45.82 287.18 40.36 284.1 39.68 283.72C33.33 294.59 30.02 306.97 30.08 319.56C30.09 332.3 33.47 344.82 39.89 355.83C41.22 355.06 45.18 352.75 46.51 351.99Z" id="a4lh4H4b2V"></path><path d="M39.68 356.68C39.42 356.3 39.28 356.08 39.25 356.04C36.06 350.64 33.62 344.82 32 338.76C26.88 320.05 29.49 300.06 39.25 283.29C39.25 283.26 39.25 283.12 39.25 282.87L47.15 287.35C47.15 287.6 47.15 287.74 47.15 287.77C35.48 307.43 35.48 331.9 47.15 351.56C47.15 351.6 47.15 351.82 47.15 352.2L39.68 356.68ZM39.89 284.36C37.07 289.57 34.85 295.08 33.28 300.79C29.86 313.14 29.86 326.19 33.28 338.55C34.8 344.31 37.09 349.83 40.11 354.97C40.68 354.65 45.29 352.09 45.87 351.77C40.29 341.95 37.35 330.85 37.33 319.56C37.28 308.42 40.15 297.46 45.65 287.77C44.5 287.09 41.05 285.04 39.89 284.36Z" id="a5absnmgLL"></path></defs><g><g><g><use xlink:href="#f4Ow4d9wq2" opacity="1" fill="url(#gradiente1k6HX7fD)"></use><g><use xlink:href="#f4Ow4d9wq2" opacity="1" fill-opacity="0" stroke="#000000" stroke-width="1" stroke-opacity="0"></use></g></g><g><use xlink:href="#g1BK5p1aPP" opacity="1" fill="url(#gradientbHgB6GnM1)"></use><g><use xlink:href="#g1BK5p1aPP" opacity="1" fill-opacity="0" stroke="#000000" stroke-width="1" stroke-opacity="0"></use></g></g><g><use xlink:href="#d12WgQ4WXe" opacity="1" fill="#86b7f0" fill-opacity="1"></use><g><use xlink:href="#d12WgQ4WXe" opacity="1" fill-opacity="0" stroke="#000000" stroke-width="1" stroke-opacity="0"></use></g></g><g><use xlink:href="#a1jg5kJpiO" opacity="1" fill="#384850" fill-opacity="1"></use><g><use xlink:href="#a1jg5kJpiO" opacity="1" fill-opacity="0" stroke="#000000" stroke-width="1" stroke-opacity="0"></use></g></g><g><use xlink:href="#d5xw7rgv0" opacity="1" fill="#384850" fill-opacity="1"></use><g><use xlink:href="#d5xw7rgv0" opacity="1" fill-opacity="0" stroke="#000000" stroke-width="1" stroke-opacity="0"></use></g></g><g><use xlink:href="#g259PiHB3v" opacity="1" fill="#384850" fill-opacity="1"></use><g><use xlink:href="#g259PiHB3v" opacity="1" fill-opacity="0" stroke="#000000" stroke-width="1" stroke-opacity="0"></use></g></g><g><use xlink:href="#afdNE0xgo" opacity="1" fill="#384850" fill-opacity="1"></use><g><use xlink:href="#afdNE0xgo" opacity="1" fill-opacity="0" stroke="#000000" stroke-width="1" stroke-opacity="0"></use></g></g><g><use xlink:href="#a4lh4H4b2V" opacity="1" fill="#384850" fill-opacity="1"></use><g><use xlink:href="#a4lh4H4b2V" opacity="1" fill-opacity="0" stroke="#000000" stroke-width="1" stroke-opacity="0"></use></g></g><g><use xlink:href="#a5absnmgLL" opacity="1" fill="#384850" fill-opacity="1"></use><g><use xlink:href="#a5absnmgLL" opacity="1" fill-opacity="0" stroke="#000000" stroke-width="1" stroke-opacity="0"></use></g></g></g></g></svg>