<svg viewBox="0 0 99 165" xmlns="http://www.w3.org/2000/svg" xmlns:xlink="http://www.w3.org/1999/xlink">
    <path id="path186" fill="#000000" stroke="none" d="M 66.204597 27.4505 C 66.467781 27.146088 66.769844 26.877579 67.10302 26.651901 C 67.607285 26.345398 68.173218 26.154495 68.760109 26.09288 C 69.498337 26.002609 70.209244 25.757706 70.846443 25.374146 C 71.408836 24.958038 71.872406 24.422882 72.204048 23.8069 C 72.616661 23.004623 73.259811 22.344086 74.050804 21.910233 C 75.197174 21.352905 76.49501 21.188034 77.744316 21.441055 L 78.103683 21.530899 L 77.953949 21.16156 C 77.195518 19.640747 75.570679 18.752655 73.881104 18.935471 C 72.947037 19.111786 72.063889 19.493683 71.295647 20.053497 C 70.67099 20.50528 69.971458 20.843216 69.229279 21.051743 C 68.623596 21.12027 68.010399 21.072845 67.422455 20.911987 C 66.397049 20.664001 65.335793 20.599777 64.287964 20.722321 L 71.744858 8.903091 L 59.13702 16.869095 C 59.079952 16.468491 59.079952 16.061829 59.13702 15.661224 C 59.277481 15.087662 59.543411 14.552383 59.915649 14.093979 C 60.386082 13.506714 60.726345 12.826187 60.913895 12.097488 C 61.015358 11.405396 60.960785 10.699387 60.754177 10.031113 C 60.489273 9.16922 60.489273 8.24765 60.754177 7.385757 C 61.16246 6.164169 61.962502 5.111481 63.030174 4.391022 L 63.369579 4.191376 L 63.000229 4.041641 C 61.388725 3.50383 59.612747 4.025482 58.548054 5.34935 C 58.025269 6.139893 57.684334 7.036545 57.549809 7.974731 C 57.420399 8.730865 57.156696 9.457733 56.771179 10.120956 C 56.390232 10.596817 55.922848 10.99646 55.393597 11.298889 C 54.48978 11.847733 53.691837 12.554398 53.037739 13.385223 L 49.893265 -0.150986 L 46.57909 14.423401 C 46.265034 14.160431 45.989483 13.854645 45.760529 13.514984 C 45.435768 13.005234 45.230972 12.428391 45.161583 11.827957 C 45.071308 11.089722 44.826401 10.378815 44.442844 9.741623 C 44.026371 9.182175 43.491131 8.721939 42.875599 8.393997 C 42.073315 7.981384 41.412781 7.338242 40.978931 6.547241 C 40.434319 5.393005 40.283524 4.091949 40.549686 2.84375 L 40.649509 2.454437 L 40.280159 2.604172 C 38.759354 3.362595 37.871269 4.987442 38.054073 6.677017 C 38.222607 7.628723 38.604881 8.5298 39.172108 9.312378 C 39.624985 9.936386 39.96302 10.636124 40.170353 11.378754 C 40.239616 11.984421 40.192177 12.597748 40.030598 13.185577 C 39.781418 14.214188 39.717197 15.278931 39.840931 16.330048 L 28.031687 8.893112 L 36.017651 21.530899 C 35.610413 21.563217 35.200665 21.539703 34.799793 21.461029 C 34.209503 21.330536 33.656548 21.067703 33.182632 20.692383 C 32.594234 20.223724 31.914104 19.883667 31.186144 19.694138 C 30.494072 19.592331 29.787983 19.646912 29.119776 19.853851 C 28.257795 20.118149 27.336405 20.118149 26.474424 19.853851 C 25.250685 19.444305 24.197412 18.64032 23.479687 17.567871 L 23.280039 17.22847 L 23.200178 17.657715 C 22.657722 19.272171 23.179798 21.053604 24.507881 22.119873 C 25.294857 22.642471 26.188236 22.983459 27.123283 23.118118 C 27.879364 23.247726 28.606197 23.511414 29.269512 23.896744 C 29.746908 24.276108 30.146826 24.743805 30.447441 25.274323 C 31.002926 26.185028 31.71616 26.989532 32.553741 27.650146 L 18.9776 30.794617 L 34.470371 34.328415 C 34.465706 34.42485 34.465706 34.521469 34.470371 34.617905 L 65.216339 34.617905 C 65.216339 34.617905 65.216339 34.408264 65.27623 34.31842 L 80.798943 30.794617 Z"/>
    <path id="path188" fill="#000000" stroke="none" d="M 0.240532 34.587952 L 0.240532 96.888458 C 0.236431 116.941971 12.314521 135.02269 30.841316 142.697388 C 49.368107 150.372086 70.693871 146.12886 84.871788 131.946838 C 94.201515 122.669746 99.431679 110.045479 99.396263 96.888458 L 99.396263 34.587952 Z"/>
    <path id="path190" fill="#ffdd00" stroke="none" d="M 1.518287 96.888458 L 1.518287 35.865707 L 49.66367 35.865707 L 49.66367 145.193573 C 23.045609 145.111038 1.512657 123.506645 1.518287 96.888458 Z"/>
    <path id="path192" fill="#e63312" stroke="none" d="M 98.118507 96.888458 C 98.124329 123.471725 76.645912 145.061691 50.062969 145.193573 L 50.062969 35.865707 L 98.118507 35.865707 Z"/>
    <path id="polyline194" fill="none" stroke="#000000" stroke-width="5.620122" stroke-linecap="round" stroke-linejoin="round" d="M 82.965141 112.371246 L 82.965141 112.371246 L 82.965141 112.371246 L 82.965141 112.371246 L 82.965141 112.371246 L 82.965141 112.371246 L 82.965141 112.371246"/>
    <path id="path196" fill="#000000" stroke="none" d="M 73.681458 96.35939 L 73.681458 47.225746 C 73.586746 45.533531 72.18692 44.209862 70.492058 44.209862 C 68.797203 44.209862 67.397377 45.533531 67.302666 47.225746 L 67.302666 96.349403 L 68.121223 96.349403 L 68.121223 47.225746 C 68.063622 46.334724 68.506294 45.485596 69.26976 45.022621 C 70.033234 44.559647 70.990822 44.559647 71.754288 45.022621 C 72.517761 45.485596 72.960434 46.334724 72.902824 47.225746 L 72.902824 96.35939 L 73.701416 96.35939 Z"/>
    <path id="path198" fill="#000000" stroke="none" d="M 29.598932 57.028511 C 28.98147 56.589539 28.240177 56.358757 27.482653 56.369675 C 26.911133 56.390099 26.350155 56.529495 25.835546 56.778954 C 25.119463 57.114754 24.34037 57.295067 23.549564 57.308022 C 22.424541 57.309692 21.345818 56.860229 20.554829 56.060219 L 20.315248 55.750763 L 20.205442 56.150063 C 19.995449 56.886757 20.147308 57.67939 20.614723 58.286308 C 21.329056 59.04541 22.327551 59.472305 23.369881 59.464233 C 24.473263 59.420647 25.543579 59.075386 26.464441 58.465988 L 26.853758 58.246376 C 28.24132 57.487709 28.850248 57.687355 29.09981 57.787186 L 29.09981 57.787186 L 29.249546 57.837097 L 29.329407 57.707321 L 29.568985 57.327988 L 29.658827 57.178253 Z"/>
    <path id="path200" fill="#000000" stroke="none" d="M 31.635353 42.993187 C 32.252827 42.993187 32.753387 42.492622 32.753387 41.875145 C 32.753387 41.257675 32.252827 40.757111 31.635353 40.757111 C 31.017879 40.757111 30.517319 41.257675 30.517319 41.875145 C 30.516123 42.171715 30.634941 42.456161 30.846741 42.663757 C 31.054983 42.874603 31.339006 42.993248 31.635353 42.993187 Z"/>
    <path id="line202" fill="none" stroke="#e30613" stroke-width="0.249561" stroke-linecap="round" stroke-linejoin="round" d="M 43.41465 117.053024 L 38.44339 121.974365"/>
    <path id="path204" fill="#000000" stroke="none" d="M 88.325722 108.877388 C 87.678787 108.231079 86.81353 107.85009 85.899979 107.809265 L 85.899979 106.212074 C 85.899979 105.109436 85.006119 104.215584 83.903488 104.215584 L 83.424332 104.215584 C 82.321701 104.215584 81.427841 105.109436 81.427841 106.212074 L 81.427841 107.310143 C 78.427483 106.197739 76.061623 103.831894 74.949226 100.831535 L 75.767792 100.831535 C 76.870422 100.831535 77.764282 99.937675 77.764282 98.835045 L 77.764282 98.355881 C 77.764282 97.25325 76.870422 96.35939 75.767792 96.35939 L 65.206352 96.35939 C 64.103722 96.35939 63.209862 97.25325 63.209862 98.355881 L 63.209862 98.835045 C 63.209862 99.937675 64.103722 100.831535 65.206352 100.831535 L 66.30442 100.831535 C 65.193611 103.807556 62.854782 106.160934 59.885704 107.290176 L 59.885704 106.222054 C 59.885704 105.119423 58.991844 104.225563 57.889214 104.225563 L 57.410053 104.225563 C 56.307423 104.225563 55.413563 105.119423 55.413563 106.222054 L 55.413563 107.819252 C 53.450947 107.921387 51.912006 109.542496 51.912006 111.507767 C 51.912006 113.473038 53.450947 115.094147 55.413563 115.196289 L 55.413563 116.793472 C 55.413563 117.896103 56.307423 118.789963 57.410053 118.789963 L 57.889214 118.789963 C 58.991844 118.789963 59.885704 117.896103 59.885704 116.793472 L 59.885704 115.984894 C 62.867489 117.110291 65.218201 119.468277 66.334373 122.453522 L 65.515808 122.453522 C 64.413177 122.453522 63.519318 123.347389 63.519318 124.45002 L 63.519318 124.929184 C 63.519318 126.031815 64.413177 126.925674 65.515808 126.925674 L 67.122978 126.925674 C 67.225121 128.88829 68.84623 130.427216 70.811501 130.427216 C 72.776772 130.427216 74.397881 128.88829 74.500015 126.925674 L 76.107193 126.925674 C 77.209824 126.925674 78.103683 126.031815 78.103683 124.929184 L 78.103683 124.430054 C 78.103683 123.327423 77.209824 122.433563 76.107193 122.433563 L 75.009125 122.433563 C 76.126419 119.449036 78.476723 117.091446 81.457787 115.964935 L 81.457787 116.773506 C 81.457787 117.876137 82.351646 118.769997 83.454277 118.769997 L 83.933434 118.769997 C 85.036072 118.769997 85.929924 117.876137 85.929924 116.773506 L 85.929924 115.176315 C 87.382103 115.091293 88.649139 114.161812 89.166275 112.802177 C 89.683411 111.442535 89.354332 109.905975 88.325722 108.877388 Z"/>
    <path id="path206" fill="#ffdd00" stroke="none" d="M 70.796524 129.620926 C 69.267288 129.618927 68.001465 128.431671 67.901619 126.905701 L 73.681458 126.905701 C 73.581871 128.427856 72.321915 129.613693 70.796524 129.620926 Z"/>
    <path id="path208" fill="#ffdd00" stroke="none" d="M 55.413563 114.387703 C 53.883392 114.297729 52.688576 113.030594 52.688576 111.497787 C 52.688576 109.964966 53.883392 108.69783 55.413563 108.607857 Z"/>
    <path id="path210" fill="#ffdd00" stroke="none" d="M 59.875721 108.128708 C 63.283218 106.931671 65.954033 104.238785 67.122978 100.821548 L 69.938034 100.821548 C 68.586853 105.726349 64.771057 109.568642 59.875721 110.953743 Z"/>
    <path id="path212" fill="#e63312" stroke="none" d="M 70.636803 101.44046 C 72.122665 106.33577 75.953545 110.166649 80.848854 111.652512 C 75.964027 113.148758 72.143456 116.976807 70.656769 121.864563 C 69.165825 116.968765 65.331993 113.138672 60.434738 111.652512 C 65.326225 110.163803 69.152885 106.333397 70.636803 101.44046 Z"/>
    <path id="path214" fill="#ffdd00" stroke="none" d="M 59.875721 115.126404 L 59.875721 112.301376 C 64.798988 113.662567 68.641319 117.516273 69.987946 122.443542 L 67.122978 122.443542 C 65.950165 119.026505 63.281353 116.331955 59.875721 115.126404 Z"/>
    <path id="path216" fill="#ffdd00" stroke="none" d="M 81.43782 115.126404 C 78.019958 116.320892 75.335754 119.012436 74.150627 122.433563 L 71.315613 122.433563 C 72.662239 117.506302 76.504578 113.65258 81.427841 112.291382 L 81.427841 115.126404 L 81.427841 115.126404 Z"/>
    <path id="path218" fill="#ffdd00" stroke="none" d="M 81.43782 110.973701 C 76.498779 109.619278 72.640091 105.76059 71.285667 100.821548 L 74.110703 100.821548 C 75.292595 104.263077 77.996292 106.966782 81.43782 108.148666 Z"/>
    <path id="path220" fill="#000000" stroke="none" d="M 8.575882 161.245346 C 8.575882 159.293701 10.158013 157.711563 12.109672 157.711563 C 14.061329 157.711563 15.64346 159.293701 15.64346 161.245346 C 15.64346 163.197006 14.061329 164.779144 12.109672 164.779144 C 10.158013 164.779144 8.575882 163.197006 8.575882 161.245346 Z M 12.109672 164.090347 C 13.675534 164.068375 14.929219 162.785049 14.914618 161.219101 C 14.900016 159.653152 13.62262 158.393433 12.056618 158.40065 C 10.490617 158.407898 9.224895 159.679337 9.224742 161.245346 C 9.224668 162.006866 9.529881 162.736618 10.072089 163.271317 C 10.614299 163.80603 11.348235 164.101044 12.109672 164.090347 Z"/>
    <path id="path222" fill="#000000" stroke="none" d="M 29.598932 158.031006 L 29.598932 158.799637 C 29.656809 158.754501 29.720631 158.71756 29.788599 158.689835 L 31.465652 158.689835 L 31.465652 164.489639 C 31.443693 164.563263 31.406254 164.631332 31.355844 164.689301 L 32.234303 164.689301 C 32.185261 164.630386 32.147984 164.562622 32.124493 164.489639 L 32.124493 158.689835 L 33.841476 158.689835 C 33.909283 158.71788 33.973061 158.754822 34.031143 158.799637 L 34.031143 158.031006 Z"/>
    <path id="path224" fill="#000000" stroke="none" d="M 20.085653 158.031006 L 20.085653 158.799637 C 20.143528 158.754501 20.207352 158.71756 20.27532 158.689835 L 21.952372 158.689835 L 21.952372 164.489639 C 21.930414 164.563263 21.892975 164.631332 21.842566 164.689301 L 22.721022 164.689301 C 22.67198 164.630386 22.634705 164.562622 22.611214 164.489639 L 22.611214 158.689835 L 24.328196 158.689835 C 24.396055 158.717773 24.459848 158.754715 24.517862 158.799637 L 24.517862 158.031006 Z"/>
    <path id="path226" fill="#000000" stroke="none" d="M 36.307144 158.749725 L 39.172108 158.749725 C 39.249748 158.7742 39.321236 158.815063 39.381741 158.869522 L 39.381741 158.100876 L 35.388756 158.100876 C 35.440132 158.154312 35.477806 158.219376 35.498566 158.290543 L 35.498566 164.489639 C 35.475555 164.565842 35.438297 164.636978 35.388756 164.69928 L 39.381741 164.69928 L 39.381741 163.920654 C 39.320885 163.974625 39.249508 164.015411 39.172108 164.040436 L 36.277195 164.040436 C 36.240814 164.017944 36.207294 163.991119 36.177372 163.960571 L 36.177372 161.714523 L 38.363529 161.714523 C 38.440929 161.739548 38.512306 161.780334 38.573158 161.83432 L 38.573158 160.955856 C 38.50993 161.003952 38.439068 161.041061 38.363529 161.065659 L 36.177372 161.065659 L 36.177372 158.749725 L 36.327106 158.749725 Z"/>
    <path id="path228" fill="#000000" stroke="none" d="M 48.31604 158.749725 L 51.200966 158.749725 C 51.278488 158.77449 51.349915 158.815308 51.410599 158.869522 L 51.410599 158.100876 L 47.417618 158.100876 C 47.46899 158.154312 47.506668 158.219376 47.527424 158.290543 L 47.527424 164.489639 C 47.501644 164.566711 47.460941 164.637939 47.407635 164.69928 L 51.400616 164.69928 L 51.400616 163.920654 C 51.339931 163.974854 51.268505 164.015686 51.190987 164.040436 L 48.306057 164.040436 C 48.252026 164.022385 48.201412 163.995392 48.156319 163.960571 L 48.156319 161.714523 L 50.352459 161.714523 C 50.429859 161.739548 50.501236 161.780334 50.562092 161.83432 L 50.562092 160.955856 C 50.498859 161.003952 50.427998 161.041061 50.352459 161.065659 L 48.156319 161.065659 L 48.156319 158.749725 L 48.306057 158.749725 Z"/>
    <path id="path230" fill="#000000" stroke="none" d="M 45.730579 158.090897 L 44.961929 158.090897 C 45.012341 158.152618 45.049698 158.223938 45.071739 158.300522 L 45.071739 162.992279 L 41.078758 157.911209 L 41.078758 164.489639 C 41.056461 164.566132 41.019131 164.637405 40.968948 164.69928 L 41.847404 164.69928 C 41.797226 164.637405 41.759895 164.566132 41.737598 164.489639 L 41.737598 159.767944 L 45.730579 164.849014 L 45.730579 158.300522 C 45.755604 158.223129 45.796394 158.151749 45.850372 158.090897 Z"/>
    <path id="path232" fill="#000000" stroke="none" d="M 5.631057 157.941147 C 5.216636 157.941727 4.803995 157.995407 4.403216 158.100876 C 4.317178 158.113724 4.22971 158.113724 4.143672 158.100876 C 4.083941 158.107162 4.023717 158.107162 3.963987 158.100876 L 3.754357 158.011032 L 3.754357 164.489639 C 3.732314 164.566223 3.694957 164.637558 3.644549 164.69928 L 4.532987 164.69928 C 4.482807 164.637405 4.445477 164.566132 4.423181 164.489639 L 4.423181 162.043945 C 4.790705 162.253708 5.207946 162.360596 5.631057 162.353394 C 6.849466 162.353394 7.837181 161.365692 7.837181 160.147278 C 7.837181 158.928879 6.849466 157.941147 5.631057 157.941147 Z M 5.631057 161.694565 C 5.183445 161.70787 4.748905 161.542664 4.423181 161.235367 L 4.423181 158.819611 C 4.804734 158.655426 5.21568 158.570526 5.631057 158.570053 C 6.493867 158.570053 7.193312 159.269485 7.193312 160.132309 C 7.193312 160.995117 6.493867 161.694565 5.631057 161.694565 Z"/>
    <path id="path234" fill="#000000" stroke="none" d="M 19.207197 158.969345 L 19.207197 157.9711 C 19.14362 158.02063 19.067644 158.051727 18.987583 158.060944 C 18.887758 158.060944 18.378653 157.941147 18.069197 157.941147 C 17.664288 157.927704 17.271011 158.07782 16.978041 158.357635 C 16.685072 158.637466 16.517076 159.023453 16.511932 159.428543 C 16.537703 160.159149 17.015669 160.796417 17.709829 161.025742 C 18.503141 161.222519 19.096376 161.882996 19.207197 162.69281 C 19.213364 163.089096 19.054485 163.470123 18.768604 163.744659 C 18.482719 164.01918 18.095572 164.162491 17.699846 164.140259 C 17.236656 164.165054 16.786522 163.982071 16.472004 163.641144 L 16.472004 164.809082 C 16.553665 164.758636 16.645937 164.72789 16.741529 164.719254 C 16.871302 164.719254 17.330496 164.849014 17.659916 164.849014 C 18.25535 164.893661 18.8423 164.687088 19.278503 164.279327 C 19.714706 163.871582 19.960344 163.299881 19.955881 162.702789 C 19.963541 161.77478 19.394674 160.939377 18.528389 160.606461 C 17.67988 160.137299 17.220688 160.027496 17.220688 159.418564 C 17.229952 159.169617 17.343306 158.936005 17.533117 158.774658 C 17.722925 158.613327 17.971752 158.539078 18.218933 158.570053 C 18.595713 158.519623 18.97121 158.671326 19.207197 158.969345 Z"/>
    <path id="path236" fill="#000000" stroke="none" d="M 56.671352 161.005768 C 57.006763 160.786438 57.203514 160.408066 57.190441 160.007523 C 57.223507 159.420563 56.996189 158.848846 56.569099 158.444839 C 56.14201 158.040848 55.558563 157.845612 54.974335 157.911209 C 54.559921 157.911896 54.147293 157.965561 53.746494 158.070923 C 53.663738 158.082947 53.579685 158.082947 53.496933 158.070923 C 53.437202 158.077225 53.376976 158.077225 53.317245 158.070923 L 53.147545 158.011032 L 53.147545 164.489639 C 53.125248 164.566132 53.087921 164.637405 53.037739 164.69928 L 55.733002 164.69928 C 56.835632 164.69928 57.729492 163.80542 57.729492 162.702789 C 57.789536 161.965683 57.359661 161.27626 56.671352 161.005768 Z M 55.393597 164.140259 L 53.766457 164.140259 L 53.766457 158.809631 C 54.15163 158.662781 54.562397 158.594894 54.974335 158.60997 C 55.378445 158.55217 55.787113 158.679276 56.087151 158.956085 C 56.387188 159.23291 56.546741 159.63002 56.521618 160.037476 C 56.433804 160.517731 56.011517 160.863998 55.523373 160.856033 L 54.724773 160.856033 L 54.724773 161.464951 L 55.723022 161.464951 C 56.064743 161.409531 56.411976 161.52475 56.65276 161.773499 C 56.893539 162.022232 56.997417 162.373032 56.930897 162.712769 C 56.882915 163.523254 56.205421 164.152359 55.393597 164.140259 Z"/>
    <path id="path238" fill="#000000" stroke="none" d="M 63.679035 164.319946 C 63.632187 163.244507 63.051758 162.263397 62.131756 161.704544 C 62.764351 161.459229 63.167255 160.834732 63.130001 160.157257 C 63.175381 159.559402 62.957565 158.971512 62.533596 158.547531 C 62.109631 158.123566 61.52174 157.905762 60.923878 157.951141 C 60.509472 157.951935 60.096859 158.005615 59.696037 158.110855 C 59.613297 158.123001 59.529217 158.123001 59.446476 158.110855 C 59.38673 158.116867 59.326538 158.116867 59.266788 158.110855 L 59.13702 158.011032 L 59.13702 164.489639 C 59.114723 164.566132 59.077393 164.637405 59.027214 164.69928 L 59.90567 164.69928 C 59.855488 164.637405 59.818157 164.566132 59.795864 164.489639 L 59.795864 158.809631 C 60.181034 158.662781 60.591801 158.594894 61.003738 158.60997 C 61.419945 158.579926 61.828674 158.732193 62.123745 159.027267 C 62.418816 159.322342 62.571098 159.731064 62.541039 160.147278 C 62.508129 160.512497 62.322243 160.846756 62.029339 161.067383 C 61.736431 161.28801 61.363857 161.37442 61.003738 161.305252 L 60.704266 161.305252 L 60.704266 161.90419 C 62.551018 161.90419 63.010212 163.77092 63.010212 164.47966 L 63.010212 164.689301 L 63.908634 164.689301 C 63.818119 164.575439 63.741077 164.451492 63.679035 164.319946 Z"/>
    <path id="path240" fill="#000000" stroke="none" d="M 70.347321 164.47966 L 67.502312 157.881256 L 64.657318 164.47966 C 64.61557 164.555023 64.565338 164.625366 64.507576 164.689301 L 65.415985 164.689301 C 65.365891 164.631409 65.340767 164.55603 65.346107 164.47966 L 66.004944 162.952347 L 68.999687 162.952347 L 69.638557 164.47966 C 69.643906 164.55603 69.618774 164.631409 69.56868 164.689301 L 70.477089 164.689301 C 70.427605 164.623474 70.384178 164.553314 70.347321 164.47966 Z M 66.264496 162.363388 L 67.502312 159.498413 L 68.740143 162.363388 Z"/>
    <path id="path242" fill="#000000" stroke="none" d="M 73.89109 158.969345 L 73.89109 157.9711 C 73.827507 158.02063 73.751534 158.051727 73.671471 158.060944 C 73.571648 158.060944 73.062546 157.941147 72.75309 157.941147 C 72.348183 157.927704 71.954903 158.07782 71.661934 158.357635 C 71.368965 158.637466 71.200966 159.023453 71.195824 159.428543 C 71.221596 160.159149 71.699562 160.796417 72.393723 161.025742 C 73.205688 161.209564 73.818359 161.87793 73.931023 162.702789 C 73.937187 163.099091 73.778305 163.480103 73.492424 163.754639 C 73.206543 164.02916 72.819389 164.17247 72.423668 164.150238 C 71.960709 164.17363 71.511154 163.990875 71.195824 163.651123 L 71.195824 164.819061 C 71.277481 164.768631 71.369759 164.737869 71.465355 164.729218 C 71.595123 164.729218 72.054314 164.858994 72.383736 164.858994 C 72.979172 164.903656 73.566124 164.697067 74.002327 164.289322 C 74.43853 163.881561 74.684166 163.30986 74.679703 162.712769 C 74.687363 161.78476 74.118492 160.949356 73.252213 160.616455 C 72.403702 160.147278 71.944511 160.037476 71.944511 159.428543 C 71.953773 159.179611 72.067123 158.945999 72.256935 158.784637 C 72.446747 158.623306 72.695572 158.549072 72.942757 158.580032 C 73.304291 158.541595 73.660843 158.687973 73.89109 158.969345 Z"/>
    <path id="path244" fill="#000000" stroke="none" d="M 96.421486 164.47966 L 94.424995 161.145523 L 96.122017 158.290543 C 96.177391 158.216919 96.237404 158.146896 96.301704 158.080902 L 95.303459 158.080902 C 95.355644 158.137589 95.381073 158.213898 95.373329 158.290543 L 94.075607 160.566544 L 92.727982 158.280563 C 92.71888 158.203766 92.744499 158.126907 92.797859 158.070923 L 91.799614 158.070923 C 91.863907 158.136917 91.92392 158.20694 91.979294 158.280563 L 93.676308 161.135544 L 91.679817 164.469681 C 91.629929 164.547546 91.569458 164.618088 91.500137 164.679306 L 92.498383 164.679306 C 92.442337 164.624985 92.41626 164.546768 92.428505 164.469681 L 94.075607 161.724518 L 95.702759 164.47966 C 95.715004 164.556747 95.688927 164.634964 95.632881 164.689301 L 96.631126 164.689301 C 96.550346 164.631241 96.479553 164.56044 96.421486 164.47966 Z"/>
    <path id="path246" fill="#000000" stroke="none" d="M 90.481926 162.563034 C 90.538246 163.413971 90.116234 164.225494 89.38726 164.66806 C 88.658295 165.110626 87.743584 165.110626 87.01461 164.66806 C 86.285637 164.225494 85.863625 163.413971 85.919945 162.563034 L 85.919945 162.563034 L 85.919945 158.300522 C 85.897903 158.223938 85.86055 158.152618 85.810143 158.090897 L 86.688599 158.090897 C 86.638184 158.152618 86.60083 158.223938 86.578789 158.300522 L 86.578789 162.563034 L 86.578789 162.563034 C 86.578789 163.46167 87.307281 164.190186 88.205933 164.190186 C 89.104576 164.190186 89.833069 163.46167 89.833069 162.563034 L 89.833069 162.563034 L 89.833069 158.300522 C 89.810768 158.224045 89.773445 158.152771 89.723267 158.090897 L 90.601723 158.090897 C 90.551308 158.152618 90.513954 158.223938 90.491913 158.300522 L 90.491913 162.563034 L 90.491913 162.563034 Z"/>
    <path id="path248" fill="#000000" stroke="none" d="M 84.881767 164.030457 L 81.797188 164.030457 L 81.797188 158.300522 C 81.819237 158.223938 81.85659 158.152618 81.906998 158.090897 L 81.028542 158.090897 C 81.078949 158.152618 81.11631 158.223938 81.138351 158.300522 L 81.138351 164.47966 C 81.11631 164.556244 81.078949 164.627563 81.028542 164.689301 L 85.0914 164.689301 L 85.0914 163.920654 C 85.029671 163.971054 84.958359 164.008408 84.881767 164.030457 Z"/>
    <path id="rect250" fill="#e63312" stroke="none" d="M 28.630636 48.92276 L 34.640076 48.92276 L 34.640076 50.080727 L 28.630636 50.080727 Z"/>
    <path id="polygon252" fill="#000000" stroke="none" d="M 75.348526 57.64743 L 72.882858 57.65741 L 72.882858 66.881203 L 75.348526 66.901161 L 75.348526 74.388 L 80.629242 74.388 L 80.629242 72.39151 L 82.865311 72.39151 L 82.865311 74.388 L 88.185959 74.388 L 88.185959 68.727951 L 85.870033 68.727951 L 85.870033 66.811325 L 88.185959 66.811325 L 88.185959 57.727287 L 85.870033 57.727287 L 85.870033 55.810654 L 88.185959 55.810654 L 88.185959 50.140625 L 82.865311 50.140625 L 82.865311 52.137115 L 80.629242 52.137115 L 80.629242 50.140625 L 75.348526 50.140625 Z"/>
    <path id="polygon254" fill="#ffdd00" stroke="none" d="M 85.081421 66.012726 L 85.081421 69.52655 L 87.387367 69.52655 L 87.387367 73.589409 L 83.653923 73.589409 L 83.653923 71.602898 L 79.83065 71.602898 L 79.83065 73.589409 L 76.147125 73.589409 L 76.147125 66.092583 L 73.661491 66.092583 L 73.661491 58.446022 L 76.147125 58.446022 L 76.147125 50.949196 L 79.83065 50.949196 L 79.83065 52.935707 L 83.653923 52.935707 L 83.653923 50.949196 L 87.387367 50.949196 L 87.387367 55.012054 L 85.081421 55.012054 L 85.081421 58.5159 L 87.387367 58.5159 L 87.387367 66.012726 Z"/>
    <path id="polygon256" fill="#000000" stroke="none" d="M 77.684425 64.026215 L 79.83065 64.026215 L 79.83065 69.446693 L 83.653923 69.446693 L 83.653923 64.026215 L 85.730278 64.026215 L 85.730278 60.51239 L 83.653923 60.51239 L 83.653923 55.091919 L 79.83065 55.091919 L 79.83065 60.51239 L 77.684425 60.51239 Z"/>
    <path id="polygon258" fill="#e63312" stroke="none" d="M 80.629242 61.310989 L 80.629242 55.890511 L 82.865311 55.890511 L 82.865311 61.310989 L 84.931679 61.310989 L 84.931679 63.227623 L 82.865311 63.227623 L 82.865311 68.648094 L 80.629242 68.648094 L 80.629242 63.227623 L 78.473038 63.227623 L 78.473038 61.310989 Z"/>
    <path id="path260" fill="#ffdd00" stroke="none" d="M 68.121223 96.35939 L 68.121223 47.215759 C 68.144638 46.582077 68.404633 45.980164 68.849953 45.528725 C 69.534874 44.849426 70.560394 44.647179 71.451942 45.015572 C 72.343491 45.383957 72.927124 46.251122 72.932777 47.215759 L 72.932777 96.35939 Z"/>
    <path id="path262" fill="#ffdd00" stroke="none" d="M 83.424332 117.971405 C 82.762756 117.971405 82.22644 117.435089 82.22644 116.773506 L 82.22644 106.212074 C 82.227211 105.897308 82.352867 105.595726 82.575829 105.37355 C 82.799805 105.147171 83.105896 105.021133 83.424332 105.024162 L 83.903488 105.024162 C 84.565071 105.024162 85.101387 105.560471 85.101387 106.222054 L 85.101387 116.793472 C 85.101387 117.455055 84.565071 117.991364 83.903488 117.991364 L 83.424332 117.991364 Z"/>
    <path id="path264" fill="#ffdd00" stroke="none" d="M 85.899979 114.387703 L 85.899979 108.607857 C 87.430153 108.69783 88.624969 109.964966 88.624969 111.497787 C 88.624969 113.030594 87.430153 114.297729 85.899979 114.387703 Z"/>
    <path id="path266" fill="#ffdd00" stroke="none" d="M 57.410053 117.971405 C 56.748478 117.971405 56.212162 117.435089 56.212162 116.773506 L 56.212162 106.212074 C 56.217587 105.552757 56.750736 105.019608 57.410053 105.014175 L 57.889214 105.014175 C 58.550789 105.014175 59.087109 105.550491 59.087109 106.212074 L 59.087109 116.783493 C 59.087109 117.445068 58.550789 117.981384 57.889214 117.981384 L 57.410053 117.981384 Z"/>
    <path id="path268" fill="#ffdd00" stroke="none" d="M 76.965683 98.835045 C 76.965683 99.496613 76.429367 100.032936 75.767792 100.032936 L 65.206352 100.032936 C 64.544769 100.032936 64.008453 99.496613 64.008453 98.835045 L 64.008453 98.355881 C 64.007683 98.03788 64.133377 97.732628 64.357841 97.50737 C 64.581825 97.281006 64.887917 97.154968 65.206352 97.15799 L 75.777771 97.15799 C 76.439354 97.15799 76.97567 97.694298 76.97567 98.355881 L 76.97567 98.835045 L 76.97567 98.835045 Z"/>
    <path id="path270" fill="#ffdd00" stroke="none" d="M 64.317917 124.430054 C 64.317917 123.768478 64.854233 123.232162 65.515808 123.232162 L 76.107193 123.232162 C 76.768768 123.232162 77.305084 123.768478 77.305084 124.430054 L 77.305084 124.90921 C 77.305084 125.570786 76.768768 126.107109 76.107193 126.107109 L 65.515808 126.107109 C 64.854233 126.107109 64.317917 125.570786 64.317917 124.90921 Z"/>
    <path id="path272" fill="#e63312" stroke="none" d="M 26.694038 57.847076 L 26.294741 58.076675 C 25.440769 58.670959 24.438595 59.016541 23.399828 59.074921 C 22.482805 59.088387 21.599812 58.727982 20.954126 58.076675 C 20.635891 57.669586 20.495508 57.151245 20.56481 56.639198 C 21.396511 57.358047 22.460253 57.751633 23.559547 57.747253 C 24.401728 57.734253 25.231699 57.543762 25.995266 57.188232 C 26.46269 56.959343 26.97261 56.830162 27.492634 56.808899 C 28.087536 56.79985 28.673841 56.951607 29.189651 57.248131 L 29.189651 57.327988 C 28.321989 57.120682 27.407074 57.310982 26.694038 57.847076 Z"/>
    <path id="path274" fill="#e63312" stroke="none" d="M 30.916616 41.865166 C 30.917231 41.674576 30.992485 41.491821 31.126247 41.356064 C 31.406755 41.092369 31.843987 41.092369 32.124493 41.356064 C 32.364113 41.518539 32.482853 41.808929 32.425724 42.092751 C 32.368599 42.376572 32.146763 42.598412 31.86294 42.655533 C 31.579119 42.712662 31.288731 42.593925 31.126247 42.354309 C 30.996361 42.224083 30.921335 42.049026 30.916616 41.865166 Z"/>
    <path id="path276" fill="#000000" stroke="none" d="M 37.025879 46.017868 C 37.025879 44.330841 35.658276 42.963234 33.971249 42.963234 C 33.305096 42.965385 32.657417 43.182449 32.124493 43.582146 C 31.99498 43.647171 31.848833 43.671532 31.705231 43.652023 L 31.635353 43.652023 C 31.46583 43.667023 31.295118 43.64312 31.13623 43.582146 C 30.609509 43.177933 29.963396 42.960228 29.299459 42.963234 C 28.064482 42.962219 26.950392 43.704941 26.476332 44.845306 C 26.002272 45.98568 26.261517 47.299309 27.133266 48.17408 C 27.443636 48.48468 27.818512 48.723244 28.231337 48.872849 L 28.231337 50.06076 L 28.630634 50.06076 L 28.630634 48.992638 C 28.849863 49.044327 29.074224 49.071114 29.299459 49.072502 L 33.981232 49.072502 C 34.202755 49.073647 34.423721 49.050209 34.640072 49.002625 L 34.640072 50.080727 L 35.039371 50.080727 L 35.039371 48.882828 C 36.233147 48.434196 37.024319 47.293159 37.025879 46.017868 Z"/>
    <path id="path278" fill="#e63312" stroke="none" d="M 33.971249 48.673203 L 29.299459 48.673203 C 27.830202 48.673203 26.639135 47.482132 26.639135 46.012871 C 26.639135 44.543617 27.830202 43.352554 29.299459 43.352554 C 29.875599 43.348167 30.437063 43.534149 30.896652 43.881622 C 31.122993 44.003189 31.379005 44.058548 31.635353 44.041344 L 31.705231 44.041344 C 31.935574 44.069527 32.168541 44.016579 32.364075 43.891602 C 32.827877 43.543739 33.391491 43.354706 33.971249 43.352554 C 35.440506 43.352554 36.631573 44.543617 36.631573 46.012871 C 36.631573 47.482132 35.440506 48.673203 33.971249 48.673203 Z"/>
    <path id="path280" fill="#000000" stroke="none" d="M 29.299459 44.370758 C 28.422867 44.370758 27.712248 45.081375 27.712248 45.95797 C 27.712248 46.834564 28.422867 47.545181 29.299459 47.545181 L 30.886669 47.545181 L 30.886669 45.95797 C 30.886669 45.081375 30.176052 44.370758 29.299459 44.370758 Z"/>
    <path id="path282" fill="#000000" stroke="none" d="M 33.961266 44.370758 C 33.084675 44.370758 32.374054 45.081375 32.374054 45.95797 L 32.374054 47.535202 L 33.961266 47.535202 C 34.78648 47.469597 35.422699 46.7808 35.422699 45.95298 C 35.422699 45.12516 34.78648 44.436363 33.961266 44.370758 Z"/>
    <path id="path284" fill="#ffdd00" stroke="none" d="M 30.477388 47.145882 L 29.299459 47.145882 C 28.643393 47.145882 28.111547 46.614037 28.111547 45.95797 C 28.111547 45.301903 28.643393 44.770058 29.299459 44.770058 C 29.955524 44.770058 30.487371 45.301903 30.487371 45.95797 L 30.487371 47.135902 L 30.487371 47.135902 Z"/>
    <path id="path286" fill="#ffdd00" stroke="none" d="M 33.961266 47.145882 L 32.773354 47.145882 L 32.773354 45.95797 C 32.773354 45.301903 33.305199 44.770058 33.961266 44.770058 C 34.617332 44.770058 35.149178 45.301903 35.149178 45.95797 C 35.149178 46.614037 34.617332 47.145882 33.961266 47.145882 Z"/>
    <path id="path288" fill="#ffdd00" stroke="none" d="M 78.902283 30.624924 L 65.665543 30.555038 C 65.654762 29.582932 65.554512 28.613876 65.366074 27.660126 Z"/>
    <path id="path290" fill="#ffdd00" stroke="none" d="M 63.010212 21.990097 C 62.472202 21.183319 61.860664 20.428085 61.183422 19.734055 L 70.487068 10.340576 Z"/>
    <path id="path292" fill="#ffdd00" stroke="none" d="M 70.307388 10.140915 L 60.903915 19.454559 C 60.209793 18.774445 59.454601 18.159592 58.647877 17.617783 Z"/>
    <path id="path294" fill="#ffdd00" stroke="none" d="M 55.533352 11.678223 C 56.103531 11.35144 56.605194 10.917572 57.010757 10.400467 C 57.424385 9.694595 57.708366 8.920395 57.849281 8.114487 C 57.997833 7.229523 58.338581 6.387878 58.847527 5.648819 C 59.728981 4.588181 61.115528 4.087799 62.471161 4.34111 C 61.476353 5.078552 60.730923 6.102661 60.334915 7.275955 C 60.047325 8.205887 60.047325 9.201004 60.334915 10.130936 C 60.527439 10.743637 60.581982 11.391342 60.494637 12.027603 C 60.318745 12.680756 60.013203 13.29184 59.596214 13.824448 C 59.184986 14.331375 58.894794 14.92543 58.747704 15.561401 C 58.636726 16.05098 58.636726 16.559204 58.747704 17.048782 L 58.298492 17.328293 C 56.793728 16.388885 55.139427 15.713654 53.407089 15.331802 L 53.08765 13.924271 C 53.74501 13.02005 54.57655 12.256393 55.533352 11.678223 Z"/>
    <path id="path296" fill="#ffdd00" stroke="none" d="M 52.967861 15.261917 C 52.01717 15.075623 51.05162 14.975388 50.082932 14.962448 L 50.013054 1.745682 Z"/>
    <path id="path298" fill="#ffdd00" stroke="none" d="M 49.743526 1.745682 L 49.683636 14.962448 C 48.711098 14.974625 47.741859 15.078232 46.788723 15.271896 Z"/>
    <path id="path300" fill="#ffdd00" stroke="none" d="M 40.389969 13.265427 C 40.568718 12.615829 40.616226 11.937119 40.52972 11.268936 C 40.331886 10.479675 39.993759 9.732422 39.531475 9.06282 C 39.008198 8.343567 38.647182 7.519363 38.473335 6.647064 C 38.346119 5.271912 38.972347 3.935455 40.110458 3.153198 C 39.94001 4.372314 40.141823 5.614487 40.689442 6.716934 C 41.1413 7.566376 41.836487 8.261566 42.685932 8.713425 C 43.268848 9.021912 43.774036 9.458832 44.163334 9.99118 C 44.510796 10.585083 44.731709 11.244431 44.812195 11.92778 C 44.879593 12.576736 45.094723 13.201645 45.44109 13.754578 C 45.689358 14.181091 46.03056 14.546173 46.439335 14.822693 L 46.319546 15.341782 C 44.58802 15.726242 42.934151 16.401291 41.428143 17.338272 L 40.210281 16.569626 C 40.04739 15.467346 40.108505 14.343536 40.389969 13.265427 Z"/>
    <path id="path302" fill="#ffdd00" stroke="none" d="M 41.108704 17.617783 C 40.301933 18.155792 39.5467 18.767334 38.852669 19.444565 L 29.459179 10.140915 Z"/>
    <path id="path304" fill="#ffdd00" stroke="none" d="M 29.269512 10.340576 L 38.573158 19.734055 C 37.892834 20.427994 37.277973 21.183212 36.736389 21.990097 Z"/>
    <path id="path306" fill="#ffdd00" stroke="none" d="M 34.370548 27.680099 C 34.183434 28.630661 34.083195 29.596283 34.071072 30.565033 L 20.864285 30.634903 Z"/>
    <path id="path308" fill="#ffdd00" stroke="none" d="M 20.864285 30.89444 L 34.071072 30.954346 C 34.081234 31.926498 34.181488 32.895615 34.370548 33.849258 Z"/>
    <path id="path310" fill="#ffdd00" stroke="none" d="M 34.460388 27.250854 L 33.082809 27.560303 C 32.15966 26.899963 31.381655 26.057404 30.796827 25.084656 C 30.470055 24.514481 30.036184 24.012817 29.519073 23.607254 C 28.79822 23.203079 28.01025 22.932541 27.193161 22.808655 C 26.311495 22.659332 25.473267 22.318588 24.737476 21.81041 C 23.675163 20.925781 23.174812 19.535507 23.429775 18.176804 C 24.169838 19.157959 25.189468 19.892242 26.354635 20.283096 C 27.284847 20.568832 28.279406 20.568832 29.209618 20.283096 C 29.822439 20.091217 30.470003 20.036682 31.106283 20.123383 C 31.773104 20.300369 32.397671 20.609253 32.943054 21.031784 C 33.449799 21.443298 34.043915 21.733536 34.680004 21.880295 C 35.169273 21.994034 35.678116 21.994034 36.167389 21.880295 L 36.456879 22.349472 C 35.520576 23.859406 34.845615 25.516434 34.460388 27.250854 Z"/>
    <path id="path312" fill="#ffdd00" stroke="none" d="M 34.949528 34.577972 C 33.77179 29.968857 34.78989 25.074158 37.707829 21.31694 C 40.625767 17.559738 45.116093 15.361649 49.873302 15.36174 C 53.961876 15.36438 57.881649 16.992477 60.768963 19.887268 C 63.656273 22.782074 65.2742 26.706055 65.266251 30.794617 C 65.266357 32.08403 65.105385 33.368393 64.787086 34.617905 L 34.949528 34.617905 Z"/>
    <path id="path314" fill="#ffdd00" stroke="none" d="M 63.259773 22.359451 L 64.028419 21.141586 C 65.141159 20.962418 66.278633 21.009949 67.372543 21.281342 C 68.021568 21.462906 68.700188 21.513809 69.369034 21.431076 C 70.157799 21.231812 70.904816 20.893799 71.575157 20.432831 C 72.297829 19.909073 73.125389 19.54808 74.000893 19.374695 C 75.376419 19.2453 76.713928 19.872025 77.494759 21.01181 C 76.275627 20.840103 75.033081 21.041977 73.931023 21.590805 C 73.081573 22.042664 72.386383 22.737839 71.934525 23.587296 C 71.634674 24.155807 71.2118 24.650299 70.696701 25.034744 C 70.102791 25.382202 69.443459 25.603119 68.760109 25.683609 C 68.111069 25.750656 67.486084 25.965805 66.933319 26.3125 C 66.50975 26.564728 66.145454 26.905182 65.865196 27.310745 L 65.346107 27.190948 C 64.927788 25.474426 64.222412 23.840927 63.259773 22.359451 Z"/>
    <path id="path316" fill="#ffdd00" stroke="none" d="M 65.366074 33.849258 C 65.554237 32.898834 65.654488 31.933121 65.665543 30.964325 L 78.892296 30.904434 Z"/>
    <path id="path318" fill="#000000" stroke="none" d="M 50.651932 22.299545 L 56.641403 22.299545 L 55.643158 20.542633 L 52.1493 21.291321 C 52.788177 20.572586 52.658405 18.635986 49.823387 18.626007 L 49.823387 18.626007 C 46.998352 18.626007 46.828651 20.622498 47.497475 21.291321 L 44.073494 20.542633 L 43.075249 22.299545 L 49.064724 22.299545 C 47.54739 21.560852 48.345985 20.412872 49.853336 20.402893 C 51.360687 20.392899 52.1493 21.560852 50.651932 22.299545 Z"/>
    <path id="polygon320" fill="#000000" stroke="none" d="M 39.890846 23.45752 L 40.549686 24.196213 L 40.549686 31.623169 L 39.890846 32.351883 L 40.549686 32.351883 L 41.468071 32.351883 L 42.386459 32.351883 L 43.045303 32.351883 L 42.386459 31.623169 L 42.386459 24.196213 L 43.045303 23.45752 L 42.386459 23.45752 L 41.468071 23.45752 L 40.549686 23.45752 Z"/>
    <path id="polygon322" fill="#000000" stroke="none" d="M 49.983109 23.45752 L 50.641953 24.196213 L 50.641953 26.971344 L 47.227947 26.971344 L 47.227947 24.196213 L 47.886791 23.45752 L 47.227947 23.45752 L 46.309566 23.45752 L 45.391178 23.45752 L 44.742321 23.45752 L 45.391178 24.196213 L 45.391178 31.623169 L 44.742321 32.351883 L 45.391178 32.351883 L 46.309566 32.351883 L 47.227947 32.351883 L 47.886791 32.351883 L 47.227947 31.623169 L 47.227947 28.8181 L 50.641953 28.8181 L 50.641953 31.623169 L 49.983109 32.351883 L 50.641953 32.351883 L 51.560333 32.351883 L 52.468739 32.351883 L 53.127579 32.351883 L 52.468739 31.623169 L 52.468739 24.196213 L 53.127579 23.45752 L 52.468739 23.45752 L 51.560333 23.45752 L 50.641953 23.45752 Z"/>
    <path id="polygon324" fill="#000000" stroke="none" d="M 54.225651 23.487457 L 56.761192 27.919678 L 54.225651 32.351883 L 60.025455 32.351883 L 61.083599 30.495148 L 57.469952 30.495148 L 58.93737 27.919678 L 57.479931 25.364166 L 60.354877 25.364166 L 59.286758 23.487457 Z"/>
    <path id="path326" fill="#000000" stroke="none" d="M 34.610126 105.493332 C 33.958832 104.894409 32.945938 104.93457 32.344109 105.583176 C 32.074581 105.922585 27.35288 111.572647 26.484407 112.570892 C 26.248652 112.389755 26.028286 112.189423 25.825565 111.971954 C 24.715942 110.679344 23.459688 109.520241 22.082144 108.518021 L 22.012266 108.518021 C 21.521101 108.077057 20.894405 107.816528 20.23539 107.77932 C 19.354649 107.740051 18.512999 108.145462 17.994696 108.858627 C 17.476393 109.5718 17.350643 110.497498 17.659916 111.32309 L 17.709829 111.462845 L 17.859566 111.462845 L 18.208952 111.402954 L 18.358688 111.402954 L 18.358688 111.153389 C 18.362831 110.917435 18.463923 110.693596 18.638197 110.53447 C 18.908323 110.277405 19.316896 110.23246 19.636442 110.424667 C 19.717859 110.731239 19.879858 111.010429 20.105618 111.233246 C 20.52953 111.654678 21.149427 111.811562 21.722775 111.642525 L 22.721022 112.590866 C 21.024004 112.491028 17.580057 112.520988 17.370424 112.520988 L 17.120863 112.520988 C 16.495808 112.402924 15.849795 112.472389 15.264128 112.720634 C 14.642666 113.02774 14.160996 113.559372 13.916495 114.208015 C 13.553778 115.216095 13.842537 116.343445 14.645215 117.053024 L 14.755022 117.152847 L 14.874811 117.063004 L 15.15432 116.853371 L 15.274109 116.763535 L 15.214215 116.643738 C 15.119276 116.42395 15.119276 116.174728 15.214215 115.954941 C 15.35076 115.587265 15.723947 115.363342 16.112635 115.415894 C 16.326777 115.642563 16.599873 115.805038 16.901249 115.885071 C 17.339113 116.004288 17.806486 115.943176 18.198969 115.71537 C 18.542818 115.522842 18.807882 115.215363 18.947653 114.846893 C 19.760963 114.898766 20.566967 115.032539 21.353424 115.246193 L 18.358688 116.513969 C 18.109127 116.603806 18.009302 116.623779 17.87953 116.673683 C 17.215263 116.833298 16.630613 117.226608 16.232426 117.781738 C 15.718555 118.497421 15.597933 119.423141 15.911251 120.246605 C 16.224569 121.070068 16.930048 121.681473 17.789688 121.874542 L 17.929441 121.874542 L 17.989338 121.734787 L 18.139074 121.415352 L 18.198969 121.275597 L 18.069197 121.19574 C 17.870886 121.062538 17.737043 120.852737 17.699846 120.61676 C 17.652912 120.315109 17.775654 120.012093 18.019285 119.82814 C 18.237349 119.902527 18.468719 119.929741 18.698092 119.907997 C 19.54236 119.791519 20.17935 119.082817 20.205442 118.230942 L 20.205442 118.230942 C 21.762135 117.520424 23.418455 117.052483 25.11681 116.843384 C 27.113302 116.673683 28.111547 116.68367 28.690529 116.68367 L 28.850248 116.68367 C 29.003326 116.667923 29.156689 116.710724 29.279493 116.803467 C 29.340599 116.879265 29.369299 116.976135 29.359354 117.072983 C 29.359354 117.342506 29.289476 117.961426 29.269512 118.161072 C 28.776293 118.649261 28.630014 119.388565 28.900162 120.027786 C 28.884554 120.431076 28.610176 120.778091 28.221354 120.886276 C 27.967052 120.949348 27.698151 120.909912 27.47267 120.776474 L 27.31295 120.636719 L 27.203144 120.766495 L 26.933617 121.055984 L 26.823811 121.175774 L 26.923635 121.305542 C 27.515831 122.08416 28.459099 122.513802 29.435211 122.449524 C 30.411325 122.385254 31.290115 121.83564 31.775108 120.986099 C 32.141148 120.323441 32.264698 119.553879 32.124493 118.809929 C 32.124493 118.570351 32.124493 118.260895 32.124493 118.151093 C 32.124493 115.425873 30.866705 114.357758 29.728704 113.938492 L 34.949528 107.38002 L 34.949528 107.38002 C 35.333454 106.75647 35.187294 105.943985 34.610126 105.493332 Z"/>
    <path id="path328" fill="#e63312" stroke="none" d="M 29.908388 122.014297 C 28.977688 122.268387 27.983774 121.965553 27.35288 121.235664 L 27.35288 121.18576 C 27.640326 121.318672 27.965193 121.346924 28.271267 121.26561 C 28.664011 121.157425 28.984631 120.873657 29.13974 120.496964 L 29.13974 120.496964 C 29.724512 121.11232 30.665632 121.221558 31.375811 120.756516 L 31.475634 120.68663 L 31.395775 120.836365 C 31.072731 121.408096 30.538927 121.830841 29.908388 122.014297 Z"/>
    <path id="path330" fill="#e63312" stroke="none" d="M 17.360443 112.910301 L 17.360443 112.910301 C 16.872385 112.881233 16.408878 113.126846 16.158876 113.547012 C 15.908875 113.967194 15.914143 114.49173 16.172531 114.906792 C 16.438354 115.35833 16.948038 115.607605 17.467661 115.540207 C 17.987286 115.472809 18.416508 115.101746 18.558338 114.597336 L 18.558338 114.437622 L 18.718056 114.437622 C 19.798355 114.472672 20.866333 114.678185 21.882494 115.046547 L 22.301758 115.226227 L 21.882494 115.405914 L 18.298794 116.883316 C 17.94768 116.920959 17.626026 117.096939 17.404974 117.372314 C 17.18392 117.647697 17.08168 117.999786 17.120863 118.350739 C 17.179167 119.069992 17.809067 119.606079 18.528389 119.548637 C 19.24535 119.470032 19.773321 118.840866 19.726284 118.12114 L 19.726284 117.991364 L 19.846073 117.94146 L 19.99581 117.881561 C 21.577602 117.157486 23.260784 116.679466 24.987038 116.46405 C 26.98353 116.294357 28.071617 116.304337 28.590704 116.304337 L 28.750423 116.304337 C 29.010815 116.28389 29.268845 116.366318 29.46916 116.533936 C 29.608871 116.685425 29.680946 116.88723 29.66881 117.092941 C 29.66881 117.442337 29.568985 118.260895 29.568985 118.290848 L 29.568985 118.370705 L 29.50909 118.370705 C 28.981516 118.848312 28.932718 119.660126 29.399284 120.197495 C 29.852707 120.659195 30.565077 120.74617 31.116266 120.40712 C 31.62816 119.988464 31.850229 119.310562 31.685266 118.670174 C 31.685266 118.580338 31.685266 118.51046 31.685266 118.360718 C 31.685266 116.234451 30.836758 114.68718 29.269512 114.247948 L 28.980021 114.168091 L 29.169687 113.928513 L 34.570194 107.150421 L 34.570194 107.150421 C 34.854332 106.694183 34.751293 106.097412 34.330616 105.762863 C 33.855629 105.290802 33.088623 105.290802 32.613636 105.762863 C 32.324142 106.132217 26.863741 112.610825 26.624161 112.890335 L 26.504372 113.03009 L 26.354635 112.930267 C 26.0403 112.711166 25.752239 112.456604 25.496143 112.1716 C 24.412355 110.910515 23.190138 109.77536 21.852547 108.787544 C 21.317608 108.503036 20.658228 108.613609 20.245373 109.057076 C 19.765833 109.581192 19.792425 110.392281 20.305267 110.883865 C 20.660864 111.225441 21.180292 111.333977 21.642916 111.163376 L 21.752724 111.163376 L 21.832582 111.233246 L 23.419792 112.650757 L 23.978811 113.089981 L 23.270056 113.000137 C 22.022249 112.840424 17.420338 112.880356 17.370424 112.880356 L 17.370424 112.880356 Z"/>
    <path id="path332" fill="#000000" stroke="none" d="M 30.108038 59.434288 L 30.028179 59.034988 C 29.408512 59.293427 28.711248 59.293427 28.091581 59.034988 C 28.88998 58.878105 29.621395 58.481049 30.187899 57.896988 C 30.497959 57.595177 30.674139 57.181694 30.677038 56.749008 C 30.682369 56.34922 30.528648 55.963699 30.249702 55.677261 C 29.970755 55.390831 29.589437 55.226952 29.189651 55.221695 C 28.82173 55.21151 28.464096 55.343834 28.191406 55.591042 C 27.826286 54.653511 26.974314 53.993423 25.975302 53.874054 L 23.68932 53.874054 C 23.440653 53.85601 23.196423 53.94696 23.020126 54.123253 C 22.84383 54.299545 22.752884 54.543777 22.770933 54.792442 L 22.770933 55.101898 L 22.601231 55.101898 C 22.096132 54.290764 21.658752 53.439369 21.29353 52.556374 C 21.158298 52.231194 21.184191 51.861298 21.363407 51.558128 C 21.473213 51.394409 21.655485 51.293968 21.852547 51.288605 L 27.093336 51.288605 L 27.342897 50.889305 L 21.852547 50.889305 C 21.529432 50.893082 21.228134 51.053032 21.043968 51.31855 C 20.783348 51.731262 20.738708 52.244629 20.924179 52.696129 C 21.313517 53.641777 21.780983 54.553329 22.321724 55.421341 L 22.381617 55.521164 L 23.200178 55.521164 L 23.200178 54.752518 C 23.195272 54.60965 23.245285 54.470329 23.339933 54.363197 C 23.444458 54.271851 23.580694 54.22525 23.719267 54.233429 L 26.005249 54.233429 C 26.939735 54.373695 27.701124 55.056595 27.941845 55.970375 L 28.291231 56.050232 C 28.493938 55.754044 28.830751 55.578156 29.189651 55.581062 C 29.485775 55.5821 29.769394 55.700569 29.978266 55.910477 C 30.190063 56.11808 30.308882 56.402527 30.307688 56.699097 C 30.305183 57.02623 30.172235 57.338837 29.938335 57.567566 C 29.396927 58.154297 28.664495 58.529366 27.871967 58.62571 L 27.772144 58.62571 L 27.672319 58.745499 L 27.542547 58.935165 L 27.432739 59.094879 L 27.582478 59.214676 C 28.335976 59.710709 29.287676 59.79689 30.118021 59.444267"/>
    <path id="path334" fill="#e63312" stroke="none" d="M 27.093336 51.268639 C 27.093336 51.268639 29.578968 52.92572 30.56723 53.71434 C 31.398838 54.393082 31.836742 55.442154 31.734499 56.510712 C 31.632254 57.579262 31.003355 58.52626 30.058126 59.034988 C 29.419699 59.303421 28.700062 59.303421 28.061634 59.034988 C 28.870739 58.883873 29.613375 58.486404 30.187899 57.896988 C 30.497959 57.595177 30.674139 57.181694 30.677038 56.749008 C 30.682369 56.34922 30.528648 55.963699 30.249702 55.677261 C 29.970755 55.390831 29.589437 55.226952 29.189651 55.221695 C 28.82173 55.21151 28.464096 55.343834 28.191406 55.591042 C 27.826286 54.653511 26.974314 53.993423 25.975302 53.874054 L 23.68932 53.874054 C 23.440653 53.85601 23.196423 53.94696 23.020126 54.123253 C 22.84383 54.299545 22.752884 54.543777 22.770933 54.792442 L 22.770933 55.101898 L 22.601231 55.101898 C 22.096132 54.290764 21.658752 53.439369 21.29353 52.556374 C 21.158298 52.231194 21.184191 51.861298 21.363407 51.558128 C 21.473213 51.394409 21.655485 51.293968 21.852547 51.288605 L 27.093336 51.288605 Z"/>
    <path id="path336" fill="#000000" stroke="none" d="M 46.159828 59.124832 C 46.892094 58.651772 47.33535 57.840393 47.337757 56.96862 C 47.344166 56.862236 47.344166 56.755562 47.337757 56.649185 L 46.998352 56.649185 C 42.106949 56.649185 41.577881 50.070747 34.87965 50.070747 L 27.802092 50.070747 L 27.093336 51.268639 C 27.093336 51.268639 29.578968 52.92572 30.56723 53.71434 C 31.318657 54.324028 31.752089 55.242317 31.745161 56.209953 C 31.736622 57.401047 31.078035 58.49231 30.028179 59.054955 L 30.108038 59.434288 C 30.389589 59.362808 30.676844 59.316048 30.96653 59.294533 C 32.342957 59.198738 33.700737 59.655937 34.738876 60.564774 C 35.77702 61.473618 36.409752 62.759018 36.496811 64.136024 C 36.53125 64.849113 36.422638 65.561882 36.177372 66.232338 C 36.576023 66.552963 37.073326 66.725777 37.584896 66.721474 C 38.001118 66.729637 38.409477 66.607475 38.752846 66.372093 C 37.143925 68.371742 36.5606 71.00779 37.175617 73.499565 C 36.460621 72.868805 35.543522 72.514717 34.59016 72.50132 C 33.366859 72.492653 32.210258 73.058022 31.465652 74.028633 C 31.037281 74.601112 30.363848 74.937828 29.648846 74.937042 C 29.171833 74.939232 28.706619 74.788826 28.321178 74.507797 C 29.266804 74.204208 29.90822 73.324776 29.908388 72.331619 C 29.921314 71.806145 29.740055 71.29435 29.399284 70.894142 L 10.752057 51.538162 C 8.984637 49.617783 7.586961 47.387589 6.629303 44.959724 C 4.822007 46.04171 3.672694 47.953117 3.564507 50.056755 C 3.456319 52.1604 4.403486 54.179626 6.090251 55.441299 L 20.065687 67.649849 L 20.145548 67.729706 C 19.985828 68.039162 19.846073 68.348625 19.716303 68.66806 L 10.831917 63.457214 C 8.045901 61.922516 5.562949 59.892853 3.504795 57.467743 C 2.611614 58.924301 2.343219 60.679382 2.760266 62.336304 C 3.177314 63.993225 4.244603 65.412109 5.7209 66.27227 L 18.837847 72.261742 C 18.790792 72.70607 18.767467 73.15258 18.767969 73.599388 C 18.767969 73.599388 18.767969 73.599388 18.767969 73.659286 C 18.208952 73.589409 13.557127 72.980484 12.778495 72.830742 C 9.154516 72.213318 5.607131 71.209351 2.197092 69.836006 C 2.007469 71.617462 2.58295 73.395668 3.780358 74.728241 C 4.977766 76.060806 6.684542 76.822464 8.476057 76.823723 L 19.227161 76.823723 C 19.336969 77.262955 19.486706 77.702179 19.636442 78.121445 C 19.406845 78.171356 10.572372 80.237724 9.114934 80.507256 C 7.657496 80.776779 3.904093 81.505501 2.466619 81.305847 C 3.163849 84.124489 5.692246 86.105209 8.595848 86.107414 C 9.349892 86.105202 10.097312 85.966537 10.80197 85.698128 L 21.263582 81.23597 L 21.263582 81.23597 C 21.483196 81.535446 21.642916 81.755058 21.882494 82.024582 L 21.882494 82.024582 C 21.882494 82.024582 12.30932 90.379898 10.991635 91.378143 C 9.299717 92.758263 7.437773 93.915695 5.451373 94.82209 C 6.659346 96.247429 8.436165 97.065117 10.304505 97.055481 C 12.172846 97.04586 13.941141 96.209892 15.134356 94.772171 L 24.457968 84.320549 L 24.457968 84.320549 C 24.777407 84.540161 25.110155 84.743134 25.456213 84.929482 L 21.363407 93.74398 C 19.925934 96.738716 17.979355 101.250793 14.755022 104.485107 C 16.441696 105.48201 18.49539 105.640121 20.314781 104.913147 C 22.134174 104.186172 23.513424 102.656357 24.048687 100.771629 L 28.351126 86.107414 C 28.905413 86.255081 29.46904 86.365135 30.03816 86.436829 C 29.978266 87.085686 29.638863 90.928932 28.910143 95.261322 C 29.102896 95.274986 29.296373 95.274986 29.489126 95.261322 C 31.694389 95.261322 33.482109 93.473602 33.482109 91.268341 L 33.292442 86.406883 L 33.292442 86.406883 C 35.162041 86.228157 36.97057 85.645752 38.593124 84.699883 L 40.869125 91.058708 C 38.331429 91.964066 36.100018 93.565842 34.430443 95.68058 C 32.513809 98.236092 31.635353 100.29248 27.812073 101.670059 C 28.553854 102.379875 29.540545 102.776703 30.56723 102.778107 C 30.72014 102.787842 30.873514 102.787842 31.026424 102.778107 C 32.218395 105.685486 34.967731 107.655396 38.103985 107.849197 C 38.103985 107.77932 38.103985 107.729401 38.103985 107.659531 C 38.106449 104.238487 40.218658 101.173401 43.41465 99.953072 C 43.833916 103.716461 43.654228 107.429932 39.152142 111.462845 C 37.130676 113.021942 36.120316 115.559319 36.516773 118.081215 C 37.907906 116.517227 39.827473 115.521896 41.907299 115.286125 C 40.909054 116.414139 39.082264 117.861603 37.295406 119.947929 C 35.899078 121.571259 35.333172 123.749687 35.762867 125.847366 C 36.192558 127.945053 37.569412 129.725525 39.491547 130.669098 C 39.343319 129.209366 39.541691 127.735268 40.07053 126.366646 C 40.759319 124.549843 44.961929 121.864563 45.44109 117.132874 C 45.742973 118.049316 45.914356 119.003677 45.950195 119.967896 C 45.950195 123.781197 44.442844 126.077156 42.017109 129.521103 C 43.152924 130.040604 44.470085 129.977341 45.550896 129.351395 C 46.154968 132.289581 47.671139 134.962097 49.883286 136.987991 L 49.883286 62.209412 C 48.981987 60.828903 47.683914 59.753555 46.159828 59.124832 Z"/>
    <path id="path338" fill="#ffdd00" stroke="#000000" stroke-width="0.219614" stroke-linecap="round" stroke-linejoin="round" d="M 33.092793 52.226952 L 34.290688 52.226952 L 34.290688 51.348495 L 29.299459 51.348495 L 29.299459 52.226952 L 30.497353 52.226952 C 30.497353 52.929878 31.067188 53.499718 31.770117 53.499718 C 32.473045 53.499718 33.042881 52.929878 33.042881 52.226952 L 33.042881 52.226952 Z"/>
    <path id="path340" fill="#e63312" stroke="none" d="M 20.005793 108.847443 C 19.697685 109.164574 19.531906 109.593437 19.5466 110.035355 L 19.456758 110.035355 C 19.079611 109.95253 18.685667 110.056595 18.398617 110.314865 C 18.18585 110.507523 18.047968 110.76915 18.009302 111.053566 L 17.949408 111.053566 C 17.723503 110.347931 17.856836 109.576416 18.306463 108.987518 C 18.756092 108.398621 19.465216 108.066742 20.205442 108.098755 L 20.514898 108.098755 L 21.014021 108.288422 C 20.624372 108.355301 20.268932 108.552383 20.005793 108.847443 Z"/>
    <path id="path342" fill="#e63312" stroke="none" d="M 14.814916 115.805214 C 14.718919 116.073044 14.718919 116.365913 14.814916 116.633759 L 14.814916 116.633759 C 14.297157 116.11171 14.064871 115.370911 14.191856 114.646698 C 14.318841 113.922485 14.78931 113.304901 15.453794 112.990158 C 15.56715 112.923485 15.687713 112.869904 15.813162 112.830444 C 16.008841 112.779655 16.209963 112.752838 16.412109 112.75058 C 16.066168 112.994278 15.810079 113.345078 15.683391 113.748825 C 15.565593 114.179108 15.62302 114.638535 15.84311 115.026581 L 15.623495 115.026581 C 15.240605 115.134377 14.93708 115.426666 14.814916 115.805214 Z"/>
    <path id="path344" fill="#e63312" stroke="none" d="M 17.210707 120.636719 C 17.258299 120.916992 17.403229 121.171509 17.619986 121.355453 L 17.619986 121.415352 C 16.91663 121.207138 16.357569 120.671341 16.119667 119.977463 C 15.881766 119.283585 15.994459 118.517471 16.422092 117.921494 C 16.480862 117.831818 16.544167 117.745178 16.611757 117.661942 C 16.715696 117.540558 16.840851 117.439079 16.98111 117.362473 C 16.575003 118.066101 16.735229 118.959991 17.360443 119.478752 L 17.560091 119.638474 C 17.292397 119.897293 17.162844 120.267456 17.210707 120.636719 Z"/>
    <path id="rect346" fill="#000000" stroke="none" d="M 49.663666 35.865707 L 50.062965 35.865707 L 50.062965 145.183578 L 49.663666 145.183578 Z"/>
</svg>
