<svg id="Calque_1" data-name="Calque 1" width="99.155907" height="165.15099" viewBox="0 0 46.552069 165.44125" version="1.1" xmlns="http://www.w3.org/2000/svg" xmlns:rdf="http://www.w3.org/1999/02/22-rdf-syntax-ns#" xmlns:cc="http://creativecommons.org/ns#" xmlns:dc="http://purl.org/dc/elements/1.1/">
  <defs>
    <style>
      .cls-1,.cls-5{fill:#fd0;}
      .cls-2{fill:#e63312;}
      .cls-3,.cls-4{fill:none;}
      .cls-3,.cls-5{stroke:#000;}
      .cls-3{stroke-width:5.63px;}
      .cls-4{stroke:#e30613;stroke-width:0.25px;}
      .cls-5{stroke-width:0.22px;}
      .cls-6{fill:#000;}
    </style>
  </defs>
  <title>logo</title>
  <path d="m 39.931901,27.65 a 4.6,4.6 0 0 1 0.899999,-0.8 4,4 0 0 1 1.66,-0.56 5.3,5.3 0 0 0 2.09,-0.72 4.76,4.76 0 0 0 1.36,-1.57 4.53,4.53 0 0 1 1.85,-1.9 5.82,5.82 0 0 1 3.7,-0.47 l 0.36,0.09 -0.15,-0.37 a 4.07,4.07 0 0 0 -4.08,-2.23 6.42,6.42 0 0 0 -2.59,1.12 6.56,6.56 0 0 1 -2.07,1 4.81,4.81 0 0 1 -1.81,-0.14 8.94,8.94 0 0 0 -3.139999,-0.19 L 45.4819,9.07 32.851901,17.05 a 4.29,4.29 0 0 1 0,-1.21 4,4 0 0 1 0.78,-1.57 5.32,5.32 0 0 0 1,-2 4.7,4.7 0 0 0 -0.16,-2.07 4.51,4.51 0 0 1 0,-2.65 5.86,5.86 0 0 1 2.28,-3 l 0.34,-0.2 -0.37,-0.15 a 4.07,4.07 0 0 0 -4.46,1.31 6.42,6.42 0 0 0 -1,2.63 6.44,6.44 0 0 1 -0.78,2.15 4.85,4.85 0 0 1 -1.38,1.18 8.85,8.85 0 0 0 -2.36,2.09 L 23.591901,0 20.2719,14.6 a 4.38,4.38 0 0 1 -0.82,-0.91 4,4 0 0 1 -0.6,-1.69 5.3,5.3 0 0 0 -0.72,-2.0899997 A 4.73,4.73 0 0 0 16.5619,8.56 4.53,4.53 0 0 1 14.6619,6.71 5.84,5.84 0 0 1 14.2319,3 l 0.1,-0.39 -0.37,0.15 a 4.07,4.07 0 0 0 -2.23,4.08 6.4,6.4 0 0 0 1.12,2.64 6.5,6.5 0 0 1 1,2.07 4.78,4.78 0 0 1 -0.14,1.81 8.94,8.94 0 0 0 -0.19,3.15 L 1.6918998,9.06 l 8,12.66 a 4.49,4.49 0 0 1 -1.22,-0.07 4,4 0 0 1 -1.62,-0.77 5.39,5.39 0 0 0 -2,-1 4.69,4.69 0 0 0 -2.07,0.16 4.52,4.52 0 0 1 -2.64999996,0 5.84,5.84 0 0 1 -3.00000004,-2.29 l -0.2,-0.34 -0.08,0.43 a 4.07,4.07 0 0 0 1.31,4.47 6.38,6.38 0 0 0 2.62000004,1 6.45,6.45 0 0 1 2.14999996,0.78 4.76,4.76 0 0 1 1.18,1.38 9,9 0 0 0 2.11,2.38 l -13.6,3.15 15.52,3.54 a 3,3 0 0 0 0,0.29 H 38.941901 c 0,0 0,-0.21 0.06,-0.3 L 54.5519,31 Z" id="path186"/>
  <path d="m -26.1481,34.8 v 62.41 a 49.66,49.66 0 0 0 84.78,35.12 49.34,49.34 0 0 0 14.55,-35.12 V 34.8 Z" id="path188"/>
  <path class="cls-1" d="M -24.8681,97.21 V 36.08 H 23.361901 V 145.6 A 48.38,48.38 0 0 1 -24.8681,97.21 Z" id="path190"/>
  <path class="cls-2" d="M 71.9019,97.21 A 48.38,48.38 0 0 1 23.761901,145.6 V 36.08 H 71.9019 Z" id="path192"/>
  <polyline class="cls-3" points="82.87 112.72 82.87 112.72 82.87 112.72 82.87 112.72 82.87 112.72 82.87 112.72 82.87 112.72" id="polyline194" transform="translate(-26.1481)"/>
  <path d="M 47.4219,96.68 V 47.46 a 3.2,3.2 0 0 0 -6.39,0 v 49.21 h 0.82 V 47.46 a 2.4,2.4 0 1 1 4.79,0 v 49.22 h 0.8 z" id="path196"/>
  <path d="m 3.2618998,57.28 a 3.57,3.57 0 0 0 -2.12,-0.66 4.12,4.12 0 0 0 -1.64999996,0.41 5.61,5.61 0 0 1 -2.29000004,0.53 4.21,4.21 0 0 1 -3,-1.25 l -0.24,-0.31 -0.11,0.4 a 2.42,2.42 0 0 0 0.41,2.14 3.75,3.75 0 0 0 2.76,1.18 6.05,6.05 0 0 0 3.10000004,-1 l 0.39,-0.22 C 1.9018998,57.74 2.5118998,57.94 2.7618998,58.04 v 0 l 0.15,0.05 0.08,-0.13 0.24,-0.38 0.09,-0.15 z" id="path198"/>
  <path d="m 5.3018998,43.22 a 1.12,1.12 0 1 0 -1.12,-1.12 1.1,1.1 0 0 0 0.33,0.79 1.11,1.11 0 0 0 0.79,0.33 z" id="path200"/>
  <line class="cls-4" x1="17.1019" y1="117.41" x2="12.121902" y2="122.34" id="line202"/>
  <path d="m 62.0919,109.22 a 3.67,3.67 0 0 0 -2.43,-1.07 v -1.6 a 2,2 0 0 0 -2,-2 h -0.48 a 2,2 0 0 0 -2,2 v 1.1 a 11,11 0 0 1 -6.49,-6.49 h 0.82 a 2,2 0 0 0 2,-2 v -0.48 a 2,2 0 0 0 -2,-2 H 38.931901 a 2,2 0 0 0 -2,2 v 0.48 a 2,2 0 0 0 2,2 h 1.1 a 11.06,11.06 0 0 1 -6.43,6.47 v -1.07 a 2,2 0 0 0 -2,-2 h -0.48 a 2,2 0 0 0 -2,2 v 1.6 a 3.7,3.7 0 0 0 0,7.39 v 1.6 a 2,2 0 0 0 2,2 h 0.48 a 2,2 0 0 0 2,-2 v -0.81 a 11.07,11.07 0 0 1 6.46,6.48 h -0.82 a 2,2 0 0 0 -2,2 v 0.48 a 2,2 0 0 0 2,2 H 40.8519 a 3.7,3.7 0 0 0 7.39,0 h 1.61 a 2,2 0 0 0 2,-2 v -0.5 a 2,2 0 0 0 -2,-2 h -1.1 a 11.08,11.08 0 0 1 6.46,-6.48 v 0.81 a 2,2 0 0 0 2,2 h 0.48 a 2,2 0 0 0 2,-2 v -1.6 a 3.7,3.7 0 0 0 2.4,-6.31 z" id="path204"/>
  <path class="cls-1" d="m 44.5319,130 a 2.91,2.91 0 0 1 -2.9,-2.72 h 5.79 a 2.91,2.91 0 0 1 -2.89,2.72 z" id="path206"/>
  <path class="cls-1" d="m 29.121901,114.74 a 2.9,2.9 0 0 1 0,-5.79 z" id="path208"/>
  <path class="cls-1" d="m 33.591901,108.47 a 11.81,11.81 0 0 0 7.259999,-7.32 h 2.82 A 14.57,14.57 0 0 1 33.591901,111.3 Z" id="path210"/>
  <path class="cls-2" d="M 44.3719,101.77 A 15.35,15.35 0 0 0 54.6019,112 15.38,15.38 0 0 0 44.3919,122.23 15.37,15.37 0 0 0 34.151901,112 15.35,15.35 0 0 0 44.3719,101.77 Z" id="path212"/>
  <path class="cls-1" d="m 33.591901,115.48 v -2.83 A 14.51,14.51 0 0 1 43.7219,122.81 h -2.87 a 11.86,11.86 0 0 0 -7.259999,-7.33 z" id="path214"/>
  <path class="cls-1" d="m 55.1919,115.48 a 11.87,11.87 0 0 0 -7.3,7.32 h -2.84 a 14.51,14.51 0 0 1 10.13,-10.16 v 2.84 0 z" id="path216"/>
  <path class="cls-1" d="m 55.1919,111.32 a 14.53,14.53 0 0 1 -10.17,-10.17 h 2.83 a 11.82,11.82 0 0 0 7.34,7.34 z" id="path218"/>
  <path d="m -17.7981,161.68 a 3.54,3.54 0 1 1 3.54,3.54 3.54,3.54 0 0 1 -3.54,-3.54 z m 3.54,2.85 a 2.85,2.85 0 1 0 -2.89,-2.85 2.85,2.85 0 0 0 2.89,2.85 z" id="path220" class="cls-6"/>
  <path d="m 3.2618998,158.46 v 0.77 a 0.8,0.8 0 0 1 0.19,-0.11 h 1.68 v 5.81 a 0.54,0.54 0 0 1 -0.11,0.2 h 0.88 a 0.6,0.6 0 0 1 -0.11,-0.2 v -5.81 h 1.72 a 0.83,0.83 0 0 1 0.19,0.11 v -0.77 z" id="path222" class="cls-6"/>
  <path d="m -6.2681002,158.46 v 0.77 a 0.8,0.8 0 0 1 0.19,-0.11 h 1.68 v 5.81 a 0.54,0.54 0 0 1 -0.11,0.2 h 0.88 a 0.6,0.6 0 0 1 -0.11,-0.2 v -5.81 h 1.72 a 0.82,0.82 0 0 1 0.19,0.11 v -0.77 z" id="path224" class="cls-6"/>
  <path d="M 9.9818998,159.18 H 12.8519 a 0.57,0.57 0 0 1 0.21,0.12 v -0.77 H 9.0618998 a 0.46,0.46 0 0 1 0.11,0.19 v 6.21 a 0.63,0.63 0 0 1 -0.11,0.21 H 13.0619 v -0.78 a 0.59,0.59 0 0 1 -0.21,0.12 H 9.9518998 a 0.53,0.53 0 0 1 -0.1,-0.08 v -2.25 H 12.0419 a 0.59,0.59 0 0 1 0.21,0.12 v -0.88 a 0.71,0.71 0 0 1 -0.21,0.11 H 9.8518998 v -2.32 H 10.0019 Z" id="path226" class="cls-6"/>
  <path d="m 22.011901,159.18 h 2.89 a 0.58,0.58 0 0 1 0.21,0.12 v -0.77 h -4 a 0.46,0.46 0 0 1 0.11,0.19 v 6.21 a 0.62,0.62 0 0 1 -0.12,0.21 h 4 v -0.78 a 0.58,0.58 0 0 1 -0.21,0.12 h -2.89 a 0.51,0.51 0 0 1 -0.15,-0.08 v -2.25 h 2.2 a 0.59,0.59 0 0 1 0.21,0.12 v -0.88 a 0.71,0.71 0 0 1 -0.21,0.11 h -2.2 v -2.32 h 0.15 z" id="path228" class="cls-6"/>
  <path d="m 19.4219,158.52 h -0.77 a 0.59,0.59 0 0 1 0.11,0.21 v 4.7 l -4,-5.09 v 6.59 a 0.6,0.6 0 0 1 -0.11,0.21 h 0.88 a 0.6,0.6 0 0 1 -0.11,-0.21 v -4.73 l 4,5.09 v -6.56 a 0.59,0.59 0 0 1 0.12,-0.21 z" id="path230" class="cls-6"/>
  <path d="m -20.7481,158.37 a 4.86,4.86 0 0 0 -1.23,0.16 0.88,0.88 0 0 1 -0.26,0 0.86,0.86 0 0 1 -0.18,0 l -0.21,-0.09 v 6.49 a 0.59,0.59 0 0 1 -0.11,0.21 h 0.89 a 0.6,0.6 0 0 1 -0.11,-0.21 v -2.45 a 2.36,2.36 0 0 0 1.21,0.31 2.21,2.21 0 1 0 0,-4.42 z m 0,3.76 a 1.69,1.69 0 0 1 -1.21,-0.46 v -2.42 a 3.07,3.07 0 0 1 1.21,-0.25 1.565,1.565 0 1 1 0,3.13 z" id="path232" class="cls-6"/>
  <path d="m -7.1481002,159.4 v -1 a 0.44,0.44 0 0 1 -0.22,0.09 c -0.1,0 -0.61,-0.12 -0.92,-0.12 a 1.51,1.51 0 0 0 -1.56,1.49 1.75,1.75 0 0 0 1.2,1.6 2,2 0 0 1 1.5,1.67 1.43,1.43 0 0 1 -1.51,1.45 1.56,1.56 0 0 1 -1.23,-0.5 v 1.17 a 0.62,0.62 0 0 1 0.27,-0.09 c 0.13,0 0.59,0.13 0.92,0.13 a 2.14,2.14 0 0 0 2.3,-2.15 2.23,2.23 0 0 0 -1.43,-2.1 c -0.85,-0.47 -1.31,-0.58 -1.31,-1.19 a 0.89,0.89 0 0 1 1,-0.85 1.08,1.08 0 0 1 0.99,0.4 z" id="path234" class="cls-6"/>
  <path d="m 30.381901,161.44 a 1.15,1.15 0 0 0 0.52,-1 2,2 0 0 0 -2.22,-2.1 4.87,4.87 0 0 0 -1.23,0.16 0.87,0.87 0 0 1 -0.25,0 0.86,0.86 0 0 1 -0.18,0 l -0.17,-0.06 v 6.49 a 0.6,0.6 0 0 1 -0.11,0.21 h 2.7 a 2,2 0 0 0 2,-2 1.68,1.68 0 0 0 -1.06,-1.7 z m -1.28,3.14 h -1.63 v -5.34 a 3.08,3.08 0 0 1 1.21,-0.2 1.36,1.36 0 0 1 1.55,1.43 1,1 0 0 1 -1,0.82 h -0.8 v 0.61 h 1 a 1.06,1.06 0 0 1 1.21,1.25 1.52,1.52 0 0 1 -1.54,1.43 z" id="path236" class="cls-6"/>
  <path d="m 37.401901,164.76 a 3.23,3.23 0 0 0 -1.55,-2.62 1.57,1.57 0 0 0 1,-1.55 2.06,2.06 0 0 0 -2.21,-2.21 4.88,4.88 0 0 0 -1.23,0.16 0.86,0.86 0 0 1 -0.25,0 0.9,0.9 0 0 1 -0.18,0 l -0.13,-0.1 v 6.49 a 0.6,0.6 0 0 1 -0.11,0.21 h 0.88 a 0.6,0.6 0 0 1 -0.11,-0.21 v -5.69 a 3.08,3.08 0 0 1 1.21,-0.2 1.44,1.44 0 0 1 1.54,1.54 1.3,1.3 0 0 1 -1.54,1.16 h -0.3 v 0.6 c 1.85,0 2.31,1.87 2.31,2.58 v 0.21 h 0.9 a 1.89,1.89 0 0 1 -0.23,-0.37 z" id="path238" class="cls-6"/>
  <path d="m 44.0819,164.92 -2.85,-6.61 -2.849999,6.61 a 1.13,1.13 0 0 1 -0.15,0.21 h 0.91 a 0.29,0.29 0 0 1 -0.07,-0.21 l 0.66,-1.53 H 42.7319 l 0.64,1.53 a 0.29,0.29 0 0 1 -0.07,0.21 h 0.91 a 1.37,1.37 0 0 1 -0.13,-0.21 z m -4.089999,-2.12 1.239999,-2.87 1.24,2.87 z" id="path240" class="cls-6"/>
  <path d="m 47.6319,159.4 v -1 a 0.44,0.44 0 0 1 -0.22,0.09 c -0.1,0 -0.61,-0.12 -0.92,-0.12 a 1.51,1.51 0 0 0 -1.56,1.49 1.75,1.75 0 0 0 1.2,1.6 2,2 0 0 1 1.54,1.68 1.43,1.43 0 0 1 -1.51,1.45 1.57,1.57 0 0 1 -1.23,-0.5 v 1.17 a 0.62,0.62 0 0 1 0.27,-0.09 c 0.13,0 0.59,0.13 0.92,0.13 a 2.14,2.14 0 0 0 2.3,-2.15 2.23,2.23 0 0 0 -1.43,-2.1 c -0.85,-0.47 -1.31,-0.58 -1.31,-1.19 a 0.89,0.89 0 0 1 1,-0.85 1.08,1.08 0 0 1 0.95,0.39 z" id="path242" class="cls-6"/>
  <path d="m 70.2019,164.92 -2,-3.34 1.7,-2.86 a 2.17,2.17 0 0 1 0.18,-0.21 h -1 a 0.27,0.27 0 0 1 0.07,0.21 l -1.3,2.28 -1.35,-2.29 a 0.26,0.26 0 0 1 0.07,-0.21 h -1 a 2.17,2.17 0 0 1 0.18,0.21 l 1.7,2.86 -2,3.34 a 1,1 0 0 1 -0.18,0.21 h 1 a 0.24,0.24 0 0 1 -0.07,-0.21 l 1.65,-2.75 1.63,2.76 a 0.24,0.24 0 0 1 -0.07,0.21 h 1 a 0.92,0.92 0 0 1 -0.21,-0.21 z" id="path244" class="cls-6"/>
  <path d="m 64.2519,163 a 2.29,2.29 0 1 1 -4.57,0 v 0 -4.27 a 0.59,0.59 0 0 0 -0.11,-0.21 h 0.88 a 0.59,0.59 0 0 0 -0.11,0.21 v 4.27 0 a 1.63,1.63 0 1 0 3.26,0 v 0 -4.27 a 0.6,0.6 0 0 0 -0.11,-0.21 h 0.88 a 0.59,0.59 0 0 0 -0.11,0.21 v 4.27 0 z" id="path246" class="cls-6"/>
  <path d="m 58.6419,164.47 h -3.09 v -5.74 a 0.59,0.59 0 0 1 0.11,-0.21 h -0.88 a 0.59,0.59 0 0 1 0.11,0.21 v 6.19 a 0.59,0.59 0 0 1 -0.11,0.21 h 4.07 v -0.77 a 0.59,0.59 0 0 1 -0.21,0.11 z" id="path248" class="cls-6"/>
  <rect class="cls-2" x="2.2919018" y="49.16" width="6.02" height="1.16" id="rect250"/>
  <polygon points="75.24,57.9 72.77,57.91 72.77,67.15 75.24,67.17 75.24,74.67 80.53,74.67 80.53,72.67 82.77,72.67 82.77,74.67 88.1,74.67 88.1,69 85.78,69 85.78,67.08 88.1,67.08 88.1,57.98 85.78,57.98 85.78,56.06 88.1,56.06 88.1,50.38 82.77,50.38 82.77,52.38 80.53,52.38 80.53,50.38 75.24,50.38 " id="polygon252" transform="translate(-26.1481)"/>
  <polygon class="cls-1" points="84.99,66.28 84.99,69.8 87.3,69.8 87.3,73.87 83.56,73.87 83.56,71.88 79.73,71.88 79.73,73.87 76.04,73.87 76.04,66.36 73.55,66.36 73.55,58.7 76.04,58.7 76.04,51.19 79.73,51.19 79.73,53.18 83.56,53.18 83.56,51.19 87.3,51.19 87.3,55.26 84.99,55.26 84.99,58.77 87.3,58.77 87.3,66.28 " id="polygon254" transform="translate(-26.1481)"/>
  <polygon points="77.58,64.29 79.73,64.29 79.73,69.72 83.56,69.72 83.56,64.29 85.64,64.29 85.64,60.77 83.56,60.77 83.56,55.34 79.73,55.34 79.73,60.77 77.58,60.77 " id="polygon256" transform="translate(-26.1481)"/>
  <polygon class="cls-2" points="80.53,61.57 80.53,56.14 82.77,56.14 82.77,61.57 84.84,61.57 84.84,63.49 82.77,63.49 82.77,68.92 80.53,68.92 80.53,63.49 78.37,63.49 78.37,61.57 " id="polygon258" transform="translate(-26.1481)"/>
  <path class="cls-1" d="M 41.8519,96.68 V 47.45 a 2.54,2.54 0 0 1 0.73,-1.69 2.4,2.4 0 0 1 4.09,1.69 v 49.23 z" id="path260"/>
  <path class="cls-1" d="m 57.1819,118.33 a 1.2,1.2 0 0 1 -1.2,-1.2 v -10.58 a 1.19,1.19 0 0 1 0.35,-0.84 1.18,1.18 0 0 1 0.85,-0.35 h 0.48 a 1.2,1.2 0 0 1 1.2,1.2 v 10.59 a 1.2,1.2 0 0 1 -1.2,1.2 h -0.48 z" id="path262"/>
  <path class="cls-1" d="m 59.6619,114.74 v -5.79 a 2.9,2.9 0 0 1 0,5.79 z" id="path264"/>
  <path class="cls-1" d="m 31.121901,118.33 a 1.2,1.2 0 0 1 -1.2,-1.2 v -10.58 a 1.21,1.21 0 0 1 1.2,-1.2 h 0.48 a 1.2,1.2 0 0 1 1.2,1.2 v 10.59 a 1.2,1.2 0 0 1 -1.2,1.2 h -0.48 z" id="path266"/>
  <path class="cls-1" d="m 50.7119,99.16 a 1.2,1.2 0 0 1 -1.2,1.2 H 38.931901 a 1.2,1.2 0 0 1 -1.2,-1.2 v -0.48 a 1.2,1.2 0 0 1 0.35,-0.85 1.18,1.18 0 0 1 0.85,-0.35 H 49.5219 a 1.2,1.2 0 0 1 1.2,1.2 v 0.48 0 z" id="path268"/>
  <path class="cls-1" d="m 38.041901,124.8 a 1.2,1.2 0 0 1 1.2,-1.2 H 49.8519 a 1.2,1.2 0 0 1 1.2,1.2 v 0.48 a 1.2,1.2 0 0 1 -1.2,1.2 H 39.241901 a 1.2,1.2 0 0 1 -1.2,-1.2 z" id="path270"/>
  <path class="cls-2" d="m 0.35189984,58.1 -0.4,0.23 a 5.63,5.63 0 0 1 -2.90000004,1 3.38,3.38 0 0 1 -2.45,-1 1.92,1.92 0 0 1 -0.39,-1.44 4.56,4.56 0 0 0 3,1.11 6,6 0 0 0 2.44000004,-0.56 3.76,3.76 0 0 1 1.49999996,-0.38 3.31,3.31 0 0 1 1.7,0.44 v 0.08 A 3,3 0 0 0 0.35189984,58.1 Z" id="path272"/>
  <path class="cls-2" d="m 4.5818998,42.09 a 0.73,0.73 0 0 1 0.21,-0.51 0.73,0.73 0 0 1 1,0 0.72,0.72 0 1 1 -1,1 0.72,0.72 0 0 1 -0.21,-0.49 z" id="path274"/>
  <path d="m 10.7019,46.25 a 3.06,3.06 0 0 0 -3.0600002,-3.06 3.1,3.1 0 0 0 -1.85,0.62 0.72,0.72 0 0 1 -0.42,0.07 h -0.07 a 1.12,1.12 0 0 1 -0.5,-0.07 3,3 0 0 0 -1.84,-0.62 3.06,3.06 0 0 0 -2.16999996,5.22 3,3 0 0 0 1.09999996,0.7 v 1.19 h 0.4 v -1.07 a 3,3 0 0 0 0.67,0.08 h 4.69 a 3,3 0 0 0 0.66,-0.07 v 1.08 h 0.4 v -1.2 A 3.07,3.07 0 0 0 10.7019,46.25 Z" id="path276"/>
  <path class="cls-2" d="m 7.6418998,48.91 h -4.68 a 2.665,2.665 0 0 1 0,-5.33 2.62,2.62 0 0 1 1.6,0.53 1.37,1.37 0 0 0 0.74,0.16 h 0.07 a 1,1 0 0 0 0.66,-0.15 2.7,2.7 0 0 1 1.61,-0.54 2.665,2.665 0 0 1 0,5.33 z" id="path278"/>
  <path d="m 2.9618998,44.6 a 1.59,1.59 0 0 0 -1.59,1.59 1.59,1.59 0 0 0 1.59,1.59 h 1.59 v -1.59 a 1.59,1.59 0 0 0 -1.59,-1.59 z" id="path280"/>
  <path d="m 7.6318998,44.6 a 1.59,1.59 0 0 0 -1.59,1.59 v 1.58 h 1.59 a 1.59,1.59 0 0 0 0,-3.17 z" id="path282"/>
  <path class="cls-1" d="m 4.1418998,47.38 h -1.18 a 1.19,1.19 0 1 1 1.19,-1.19 v 1.18 0 z" id="path284"/>
  <path class="cls-1" d="m 7.6318998,47.38 h -1.19 v -1.19 a 1.19,1.19 0 1 1 1.19,1.19 z" id="path286"/>
  <path class="cls-1" d="M 52.6519,30.83 39.391901,30.76 a 15.87,15.87 0 0 0 -0.3,-2.9 z" id="path288"/>
  <path class="cls-1" d="m 36.731901,22.18 a 15.74,15.74 0 0 0 -1.83,-2.26 L 44.2219,10.51 Z" id="path290"/>
  <path class="cls-1" d="m 44.0419,10.31 -9.419999,9.33 a 15.88,15.88 0 0 0 -2.26,-1.84 z" id="path292"/>
  <path class="cls-1" d="m 29.241901,11.85 a 5.11,5.11 0 0 0 1.48,-1.28 6.87,6.87 0 0 0 0.84,-2.29 6.15,6.15 0 0 1 1,-2.47 3.81,3.81 0 0 1 3.63,-1.31 6.08,6.08 0 0 0 -2.14,2.94 4.84,4.84 0 0 0 0,2.86 4.36,4.36 0 0 1 0.16,1.9 5.05,5.05 0 0 1 -0.9,1.8 4.3,4.3 0 0 0 -0.85,1.74 3.37,3.37 0 0 0 0,1.49 l -0.45,0.28 a 15.59,15.59 0 0 0 -4.9,-2 l -0.32,-1.41 a 8.4,8.4 0 0 1 2.45,-2.25 z" id="path294"/>
  <path class="cls-1" d="m 26.671901,15.44 a 16.15,16.15 0 0 0 -2.89,-0.3 l -0.07,-13.24 z" id="path296"/>
  <path class="cls-1" d="m 23.441901,1.9 -0.06,13.24 a 15.54,15.54 0 0 0 -2.9,0.31 z" id="path298"/>
  <path class="cls-1" d="m 14.0719,13.44 a 5.08,5.08 0 0 0 0.14,-2 6.8,6.8 0 0 0 -1,-2.21 6.16,6.16 0 0 1 -1.06,-2.42 3.82,3.82 0 0 1 1.64,-3.5 6.12,6.12 0 0 0 0.58,3.57 4.84,4.84 0 0 0 2,2 4.36,4.36 0 0 1 1.48,1.28 5,5 0 0 1 0.65,1.94 4.28,4.28 0 0 0 0.63,1.83 3.29,3.29 0 0 0 1,1.07 l -0.12,0.52 a 15.73,15.73 0 0 0 -4.9,2 l -1.22,-0.77 a 8.3,8.3 0 0 1 0.18,-3.31 z" id="path300"/>
  <path class="cls-1" d="m 14.7919,17.8 a 15.74,15.74 0 0 0 -2.26,1.83 L 3.1218998,10.31 Z" id="path302"/>
  <path class="cls-1" d="M 2.9318998,10.51 12.2519,19.92 a 15.83,15.83 0 0 0 -1.84,2.26 z" id="path304"/>
  <path class="cls-1" d="m 8.0418998,27.88 a 16,16 0 0 0 -0.3,2.89 l -13.23,0.07 z" id="path306"/>
  <path class="cls-1" d="m -5.4881002,31.1 13.23,0.06 a 15.76,15.76 0 0 0 0.3,2.9 z" id="path308"/>
  <path class="cls-1" d="m 8.1318998,27.45 -1.38,0.31 a 8.32,8.32 0 0 1 -2.29,-2.48 5.11,5.11 0 0 0 -1.28,-1.48 6.87,6.87 0 0 0 -2.32999996,-0.8 6.13,6.13 0 0 1 -2.46000004,-1 3.82,3.82 0 0 1 -1.31,-3.64 6.1,6.1 0 0 0 2.93000004,2.11 4.87,4.87 0 0 0 2.85999996,0 4.38,4.38 0 0 1 1.9,-0.16 5.17,5.17 0 0 1 1.84,0.91 4.29,4.29 0 0 0 1.74,0.85 3.29,3.29 0 0 0 1.49,0 L 10.1319,22.54 a 15.83,15.83 0 0 0 -2.0000002,4.91 z" id="path310"/>
  <path class="cls-1" d="m 8.6218998,34.79 a 15.43,15.43 0 0 1 14.9500012,-19.25 15.43,15.43 0 0 1 15.42,15.46 15.51,15.51 0 0 1 -0.48,3.83 H 8.6218998 Z" id="path312"/>
  <path class="cls-1" d="m 36.981901,22.55 0.77,-1.22 a 8.38,8.38 0 0 1 3.349999,0.14 5.1,5.1 0 0 0 2,0.15 6.87,6.87 0 0 0 2.21,-1 6.19,6.19 0 0 1 2.43,-1.06 3.81,3.81 0 0 1 3.5,1.64 6.1,6.1 0 0 0 -3.57,0.58 4.84,4.84 0 0 0 -2,2 4.33,4.33 0 0 1 -1.24,1.45 5,5 0 0 1 -1.94,0.65 4.27,4.27 0 0 0 -1.83,0.63 3.44,3.44 0 0 0 -1.069999,1 l -0.52,-0.12 a 15.71,15.71 0 0 0 -2.09,-4.84 z" id="path314"/>
  <path class="cls-1" d="m 39.091901,34.06 a 15.81,15.81 0 0 0 0.3,-2.89 L 52.6419,31.11 Z" id="path316"/>
  <path d="m 24.351901,22.49 h 6 l -1,-1.76 -3.5,0.75 c 0.64,-0.72 0.51,-2.66 -2.33,-2.67 v 0 c -2.83,0 -3,2 -2.33,2.67 l -3.430001,-0.75 -1,1.76 h 6.000001 c -1.52,-0.74 -0.72,-1.89 0.79,-1.9 1.51,-0.01 2.3,1.16 0.8,1.9 z" id="path318"/>
  <polygon points="39.72,23.65 40.38,24.39 40.38,31.83 39.72,32.56 40.38,32.56 41.3,32.56 42.22,32.56 42.88,32.56 42.22,31.83 42.22,24.39 42.88,23.65 42.22,23.65 41.3,23.65 40.38,23.65 " id="polygon320" transform="translate(-26.1481)"/>
  <polygon points="49.83,23.65 50.49,24.39 50.49,27.17 47.07,27.17 47.07,24.39 47.73,23.65 47.07,23.65 46.15,23.65 45.23,23.65 44.58,23.65 45.23,24.39 45.23,31.83 44.58,32.56 45.23,32.56 46.15,32.56 47.07,32.56 47.73,32.56 47.07,31.83 47.07,29.02 50.49,29.02 50.49,31.83 49.83,32.56 50.49,32.56 51.41,32.56 52.32,32.56 52.98,32.56 52.32,31.83 52.32,24.39 52.98,23.65 52.32,23.65 51.41,23.65 50.49,23.65 " id="polygon322" transform="translate(-26.1481)"/>
  <polygon points="54.08,23.68 56.62,28.12 54.08,32.56 59.89,32.56 60.95,30.7 57.33,30.7 58.8,28.12 57.34,25.56 60.22,25.56 59.15,23.68 " id="polygon324" transform="translate(-26.1481)"/>
  <path d="m 8.2818998,105.83 a 1.61,1.61 0 0 0 -2.27,0.09 c -0.27,0.34 -5,6 -5.86999996,7 a 5.4,5.4 0 0 1 -0.66,-0.6 22,22 0 0 0 -3.75000004,-3.46 h -0.07 a 2.91,2.91 0 0 0 -1.78,-0.74 2.63,2.63 0 0 0 -2.58,3.55 l 0.05,0.14 h 0.15 l 0.35,-0.06 h 0.15 v -0.25 a 0.86,0.86 0 0 1 0.28,-0.62 0.83,0.83 0 0 1 1,-0.11 1.78,1.78 0 0 0 0.47,0.81 1.64,1.64 0 0 0 1.62,0.41 l 1,0.95 c -1.7,-0.1 -5.15,-0.07 -5.36,-0.07 h -0.25 a 3.23,3.23 0 0 0 -1.8599998,0.2 2.74,2.74 0 0 0 -1.35,1.49 2.62,2.62 0 0 0 0.73,2.85 l 0.11,0.1 0.12,-0.09 0.28,-0.21 0.12,-0.09 -0.06,-0.12 a 0.87,0.87 0 0 1 0,-0.69 0.84,0.84 0 0 1 0.9,-0.54 1.68,1.68 0 0 0 0.7899998,0.47 1.7,1.7 0 0 0 1.3,-0.17 1.68,1.68 0 0 0 0.75,-0.87 12.14,12.14 0 0 1 2.41,0.4 l -3,1.27 c -0.25,0.09 -0.35,0.11 -0.48,0.16 a 2.85,2.85 0 0 0 -1.6499998,1.11 2.63,2.63 0 0 0 1.5599998,4.1 h 0.14 l 0.06,-0.14 0.15,-0.32 0.06,-0.14 -0.13,-0.08 a 0.86,0.86 0 0 1 -0.37,-0.58 0.83,0.83 0 0 1 0.32,-0.79 1.63,1.63 0 0 0 0.68,0.08 1.75,1.75 0 0 0 1.51,-1.68 v 0 a 16.79,16.79 0 0 1 4.92,-1.39 c 2.00000004,-0.17 3,-0.16 3.58,-0.16 h 0.16 a 0.61,0.61 0 0 1 0.43,0.12 0.37,0.37 0 0 1 0.08,0.27 c 0,0.27 -0.07,0.89 -0.09,1.09 a 1.7,1.7 0 0 0 -0.37,1.87 0.93,0.93 0 0 1 -0.68,0.86 1,1 0 0 1 -0.75,-0.11 L 0.97189984,121 l -0.11,0.13 -0.27,0.29 -0.11,0.12 0.1,0.13 a 2.92,2.92 0 0 0 4.85999996,-0.32 3.26,3.26 0 0 0 0.35,-2.18 c 0,-0.24 0,-0.55 0,-0.66 0,-2.73 -1.26,-3.8 -2.4,-4.22 l 5.23,-6.57 v 0 a 1.44,1.44 0 0 0 -0.34,-1.89 z" id="path326"/>
  <path class="cls-2" d="m 3.5718998,122.38 a 2.51,2.51 0 0 1 -2.56,-0.78 v -0.05 a 1.36,1.36 0 0 0 0.92,0.08 1.32,1.32 0 0 0 0.87,-0.77 v 0 a 1.76,1.76 0 0 0 2.24,0.26 l 0.1,-0.07 -0.08,0.15 a 2.52,2.52 0 0 1 -1.49,1.18 z" id="path328"/>
  <path class="cls-2" d="m -8.9981002,113.26 v 0 a 1.31,1.31 0 0 0 -1.1899998,2 1.31,1.31 0 0 0 2.3899998,-0.31 v -0.16 h 0.16 a 10.28,10.28 0 0 1 3.17,0.61 l 0.42,0.18 -0.42,0.18 -3.59,1.48 a 1.33,1.33 0 0 0 -1.18,1.47 1.31,1.31 0 0 0 1.41,1.2 1.35,1.35 0 0 0 1.2,-1.43 v -0.13 l 0.12,-0.05 0.15,-0.06 a 17.1,17.1 0 0 1 5,-1.42 c 2.00000004,-0.17 3.09,-0.16 3.61,-0.16 h 0.16 a 1,1 0 0 1 0.72,0.23 0.76,0.76 0 0 1 0.2,0.56 c 0,0.35 -0.1,1.17 -0.1,1.2 v 0.08 h -0.06 a 1.31,1.31 0 0 0 -0.11,1.83 1.39,1.39 0 0 0 1.72,0.21 1.7,1.7 0 0 0 0.57,-1.74 c 0,-0.09 0,-0.16 0,-0.31 0,-2.13 -0.85,-3.68 -2.42,-4.12 l -0.29,-0.08 0.19,-0.24 5.41,-6.79 v 0 a 1.06,1.06 0 0 0 -0.24,-1.39 1.22,1.22 0 0 0 -1.72,0 c -0.29,0.37 -5.75999996,6.86 -5.99999996,7.14 l -0.12,0.14 -0.15,-0.1 a 5,5 0 0 1 -0.86,-0.76 22.21,22.21 0 0 0 -3.65000004,-3.39 1.34,1.34 0 0 0 -1.61,0.27 1.31,1.31 0 0 0 0.06,1.83 1.29,1.29 0 0 0 1.34,0.28 h 0.11 l 0.08,0.07 1.59,1.42 0.56,0.44 -0.71,-0.09 c -1.25,-0.16 -5.86,-0.12 -5.91,-0.12 v 0 z" id="path330"/>
  <path d="m 3.7718998,59.69 -0.08,-0.4 a 2.52,2.52 0 0 1 -1.94,0 4,4 0 0 0 2.1,-1.14 1.62,1.62 0 0 0 0.49,-1.15 1.51,1.51 0 0 0 -1.49,-1.53 1.43,1.43 0 0 0 -1,0.37 2.73,2.73 0 0 0 -2.21999996,-1.72 H -2.6581002 a 0.86,0.86 0 0 0 -0.92,0.92 v 0.31 h -0.17 a 17.42,17.42 0 0 1 -1.31,-2.55 1.12,1.12 0 0 1 0.07,-1 0.61,0.61 0 0 1 0.49,-0.27 h 5.25000004 l 0.24999996,-0.4 h -5.5 a 1,1 0 0 0 -0.81,0.43 1.51,1.51 0 0 0 -0.12,1.38 18.44,18.44 0 0 0 1.4,2.73 l 0.06,0.1 h 0.82 V 55 a 0.56,0.56 0 0 1 0.14,-0.39 0.53,0.53 0 0 1 0.38,-0.13 h 2.29000004 a 2.37,2.37 0 0 1 1.93999996,1.74 l 0.35,0.08 a 1.08,1.08 0 0 1 0.9,-0.47 1.12,1.12 0 0 1 0.79,0.33 1.1,1.1 0 0 1 0.33,0.79 1.23,1.23 0 0 1 -0.37,0.87 3.37,3.37 0 0 1 -2.07,1.06 h -0.1 l -0.1,0.12 -0.13,0.19 -0.11,0.16 0.15,0.12 a 2.7,2.7 0 0 0 2.54,0.23" id="path332"/>
  <path class="cls-2" d="m 0.75189984,51.51 c 0,0 2.48999996,1.66 3.47999996,2.45 a 3.22,3.22 0 0 1 -0.51,5.33 2.58,2.58 0 0 1 -2,0 4,4 0 0 0 2.13,-1.14 1.62,1.62 0 0 0 0.49,-1.15 1.51,1.51 0 0 0 -1.49,-1.53 1.43,1.43 0 0 0 -1,0.37 2.73,2.73 0 0 0 -2.21999996,-1.72 H -2.6581002 a 0.86,0.86 0 0 0 -0.92,0.92 v 0.31 h -0.17 a 17.42,17.42 0 0 1 -1.31,-2.55 1.12,1.12 0 0 1 0.07,-1 0.61,0.61 0 0 1 0.49,-0.27 h 5.25000004 z" id="path334"/>
  <path d="m 19.8519,59.38 a 2.58,2.58 0 0 0 1.180001,-2.16 2.66,2.66 0 0 0 0,-0.32 h -0.34 C 15.7919,56.9 15.2619,50.31 8.5518998,50.31 h -7.09 l -0.70999996,1.2 c 0,0 2.48999996,1.66 3.47999996,2.45 a 3.19,3.19 0 0 1 1.18,2.5 3.26,3.26 0 0 1 -1.72,2.85 l 0.08,0.38 a 5,5 0 0 1 0.86,-0.14 5.19,5.19 0 0 1 5.5400002,4.85 5.36,5.36 0 0 1 -0.3200002,2.1 2.22,2.22 0 0 0 1.4100002,0.49 2,2 0 0 0 1.17,-0.35 8.24,8.24 0 0 0 -1.58,7.14 4,4 0 0 0 -2.5900002,-1 3.91,3.91 0 0 0 -3.13,1.53 2.27,2.27 0 0 1 -1.82,0.91 2.24,2.24 0 0 1 -1.33,-0.43 2.29,2.29 0 0 0 1.59,-2.18 2.14,2.14 0 0 0 -0.51,-1.44 L -15.6181,51.78 a 21.24,21.24 0 0 1 -4.13,-6.59 6.33,6.33 0 0 0 -0.54,10.5 l 13.9999998,12.23 0.08,0.08 c -0.16,0.31 -0.3,0.62 -0.43,0.94 L -15.5381,63.72 a 26.22,26.22 0 0 1 -7.34,-6 6.36,6.36 0 0 0 2.22,8.82 l 13.1399998,6 a 12.59,12.59 0 0 0 -0.07,1.34 c 0,0 0,0 0,0.06 -0.56,-0.07 -5.2199998,-0.68 -5.9999998,-0.83 a 51.55,51.55 0 0 1 -10.6,-3 6.33,6.33 0 0 0 6.29,7 h 10.7699998 c 0.11,0.44 0.26,0.88 0.41,1.3 -0.23,0.05 -9.0799998,2.12 -10.5399998,2.39 -1.46,0.27 -5.22,1 -6.66,0.8 a 6.33,6.33 0 0 0 6.14,4.81 6.26,6.26 0 0 0 2.21,-0.41 l 10.4799998,-4.47 v 0 c 0.22,0.3 0.38,0.52 0.62,0.79 v 0 c 0,0 -9.5899998,8.37 -10.9099998,9.37 a 25.58,25.58 0 0 1 -5.55,3.45 6.33,6.33 0 0 0 9.7,-0.05 l 9.3399998,-10.47 v 0 q 0.48,0.33 1.00000004,0.61 l -4.10000004,8.83 c -1.44,3 -3.39,7.52 -6.6199998,10.76 a 6.33,6.33 0 0 0 9.3099998,-3.72 l 4.31,-14.69 a 12.76,12.76 0 0 0 1.69,0.33 c -0.06,0.65 -0.4,4.5 -1.13,8.84 a 4.1,4.1 0 0 0 0.58,0 4,4 0 0 0 4,-4 l -0.19,-4.87 v 0 A 13,13 0 0 0 12.2719,85 l 2.28,6.37 A 14.37,14.37 0 0 0 8.1018998,96 c -1.92,2.56 -2.8,4.62 -6.63,6 a 4,4 0 0 0 2.76,1.11 3.62,3.62 0 0 0 0.46,0 8.21,8.21 0 0 0 7.0900002,5.08 c 0,-0.07 0,-0.12 0,-0.19 a 8.27,8.27 0 0 1 5.32,-7.72 c 0.42,3.77 0.24,7.49 -4.27,11.53 a 7,7 0 0 0 -2.64,6.63 8.51,8.51 0 0 1 5.4,-2.8 c -1,1.13 -2.83,2.58 -4.62,4.67 a 6.93,6.93 0 0 0 2.2,10.74 9.34,9.34 0 0 1 0.58,-4.31 c 0.69,-1.82 4.9,-4.51 5.38,-9.25 a 10.3,10.3 0 0 1 0.51,2.84 c 0,3.82 -1.51,6.12 -3.94,9.57 a 3.86,3.86 0 0 0 3.54,-0.17 14.27,14.27 0 0 0 4.340001,7.65 V 62.47 A 8.18,8.18 0 0 0 19.8519,59.38 Z" id="path336"/>
  <path class="cls-5" d="m 6.7618998,52.47 h 1.2 v -0.88 h -5 v 0.88 h 1.2 a 1.275,1.275 0 0 0 2.55,0 v 0 z" id="path338"/>
  <path class="cls-2" d="m -6.3481002,109.19 a 1.63,1.63 0 0 0 -0.46,1.19 h -0.09 a 1.2,1.2 0 0 0 -1.06,0.28 1.22,1.22 0 0 0 -0.39,0.74 h -0.06 a 2.27,2.27 0 0 1 2.26,-2.96 h 0.31 l 0.5,0.19 a 1.75,1.75 0 0 0 -1.01,0.56 z" id="path340"/>
  <path class="cls-2" d="m -11.5481,116.16 a 1.23,1.23 0 0 0 0,0.83 v 0 a 2.27,2.27 0 0 1 0.64,-3.65 1.74,1.74 0 0 1 0.36,-0.16 2.5,2.5 0 0 1 0.5999998,-0.08 1.93,1.93 0 0 0 -0.7299998,1 1.69,1.69 0 0 0 0.16,1.28 h -0.22 a 1.19,1.19 0 0 0 -0.81,0.78 z" id="path342"/>
  <path class="cls-2" d="m -9.1481002,121 a 1.21,1.21 0 0 0 0.41,0.72 v 0.06 a 2.27,2.27 0 0 1 -1.2,-3.5 3.16,3.16 0 0 1 0.19,-0.26 1.32,1.32 0 0 1 0.37,-0.3 1.67,1.67 0 0 0 0.38,2.12 l 0.2,0.16 a 1.18,1.18 0 0 0 -0.35,1 z" id="path344"/>
  <rect x="23.361898" y="36.080002" width="0.40000001" height="109.51" id="rect346"/>
</svg>
