<svg viewBox="0 0 23 32" xmlns="http://www.w3.org/2000/svg" role="img" aria-labelledby="logo">
    <path d="M19.586 17.77A16.994 16.994 0 0117 21.93c.718-2.82.372-6.461-1.184-9.998-.814-1.848-1.892-3.51-3.144-4.865 1.959-1.58 3.998-2.097 5.575-1.37 1.01.467 1.789 1.421 2.252 2.761.879 2.538.538 6.02-.912 9.313zm-16.42 0c-1.45-3.293-1.792-6.774-.913-9.312.464-1.34 1.243-2.294 2.253-2.76 1.576-.728 3.616-.212 5.574 1.369-1.252 1.355-2.33 3.017-3.143 4.865-1.557 3.536-1.903 7.178-1.184 9.998a16.978 16.978 0 01-2.588-4.16zm9.679 7.135a3.588 3.588 0 01-1.47.325 3.592 3.592 0 01-1.469-.325c-3.035-1.4-3.649-7.014-1.34-12.258.732-1.663 1.694-3.156 2.808-4.364 1.114 1.209 2.079 2.7 2.811 4.365 2.309 5.243 1.695 10.857-1.34 12.258zm4.12-21.3c-1.797-.075-3.757.694-5.59 2.226-1.83-1.532-3.791-2.302-5.59-2.227a9.594 9.594 0 015.59-1.784c2.066 0 4.004.651 5.59 1.785zm5.222 4.296v-.006l-.004-.01-.003-.008-.007-.018C20.654 3.182 16.32.042 11.375.042 6.416.042 2.07 3.198.563 7.896l-.005.023c-1.004 2.946-.64 6.891.978 10.567 2.214 5.03 6.231 8.523 9.789 8.523h.101c3.558 0 7.575-3.494 9.789-8.523 1.621-3.683 1.984-7.637.972-10.585zm-7.769 21.874c-1 .295-1.996.445-2.961.445h-.141c-.973 0-1.976-.152-2.981-.45a.89.89 0 00-1.107.598.89.89 0 00.6 1.106c1.17.347 2.344.523 3.488.523h.14c1.137 0 2.303-.174 3.466-.517a.888.888 0 10-.504-1.705z" fill="#49CC68"></path>
</svg>
