<svg stroke-miterlimit="10" style="fill-rule:nonzero;clip-rule:evenodd;stroke-linecap:round;stroke-linejoin:round;" version="1.1" viewBox="0 0 200 200" xml:space="preserve" xmlns="http://www.w3.org/2000/svg" xmlns:vectornator="http://vectornator.io" xmlns:xlink="http://www.w3.org/1999/xlink">
<defs/>
<g id="Untitled" vectornator:layerName="Untitled">
<g opacity="1">
<path d="M100.002 0C44.7752 0 0.00473752 44.7522 0.00473752 99.9569C0.00473752 155.162 44.7752 199.914 100.002 199.914C155.23 199.914 200 155.162 200 99.9569C199.993 44.7551 155.227 0.0067945 100.002 0ZM100.002 175.684C58.1622 175.684 24.244 141.78 24.244 99.9569C24.244 58.1338 58.1622 24.2294 100.002 24.2294C141.843 24.2294 175.761 58.1338 175.761 99.9569C175.72 141.763 141.826 175.644 100.002 175.684Z" fill="#f0f1f2" fill-rule="nonzero" opacity="1" stroke="none"/>
<path d="M87.8766 114.563C94.7757 120.751 105.229 120.751 112.128 114.563L112.128 85.5227C105.236 79.3187 94.7691 79.3187 87.8766 85.5227L87.8766 114.563ZM100.002 48.5572C86.3496 48.5564 73.2573 53.9842 63.6127 63.6436L80.7242 80.7728C91.368 70.1338 108.624 70.1338 119.268 80.7728L136.404 63.6436C126.755 53.9759 113.652 48.5471 99.9901 48.5572L100.002 48.5572ZM119.293 119.363C108.652 130.008 91.3898 130.008 80.7489 119.363L63.6374 136.443C83.7364 156.551 116.342 156.551 136.441 136.443L119.293 119.363ZM99.9654 200C100.85 188.185 93.5378 177.297 82.263 173.642L82.1646 173.642C52.6826 166.337 30.4019 142.158 25.5366 112.189L75.7631 112.189C71.7918 104.596 71.7918 95.5399 75.7631 87.9468L25.4873 87.9468C29.4588 63.1205 45.5301 41.8978 68.3559 31.3375C91.1816 20.7772 117.768 22.2643 139.273 35.3043L139.273 35.3043C149.752 41.5908 163.276 39.0718 170.787 29.4346C138.811-2.5934 89.2991-9.15517 50.0783 13.4372C10.8576 36.0296-8.28861 82.1408 3.40053 125.855C15.0897 169.569 54.6985 199.981 99.9654 200Z" fill="#ffbb17" fill-rule="nonzero" opacity="1" stroke="none"/>
</g>
</g>
</svg>
