<svg xmlns="http://www.w3.org/2000/svg" viewBox="181.25 271.07 246.75 244.55"><path d="M422.92 271.07c3.99 2.41 5.07 5.97 5.06 10.55-.12 51.43-.07 102.86-.08 154.29 0 8.15-2.22 10.38-10.32 10.4-11.14.02-22.29.05-33.43-.01-9.69-.05-14.24-4.69-14.32-14.47-.06-7.66 0-15.31-.13-22.97-.16-9.23-5.07-14.02-14.37-14.05-11.81-.05-23.62-.01-35.43-.02-11.87-.01-16.08-4.28-16.08-16.31-.01-13.31.03-26.63-.01-39.94-.03-10.22-4.72-14.83-15.04-14.87-7.82-.03-15.64.09-23.45-.04-9.59-.16-14.23-5-14.26-14.66-.03-9.32.16-18.65-.08-27.96-.12-4.48 1.31-7.75 5.19-9.94h166.75z" fill="#0190fe"/><path d="M181.28 345.01c2.52-3.87 6.07-5.03 10.63-4.97 14.3.21 28.6.06 42.9.08 10.55.02 15.3 4.71 15.31 15.14.02 26.96 0 53.92.01 80.88.01 10.66 4.47 15.12 15.19 15.12 25.61.02 51.22 0 76.83.01 11.56.01 15.96 4.42 15.96 15.97.01 12.98.03 25.96-.01 38.94-.02 6.77-2.55 9.36-9.39 9.36-52.72.04-105.43-.01-158.15.07-4.09.01-6.88-1.81-9.29-4.75.01-55.27.01-110.56.01-165.85z" fill="#0290fe"/></svg>