<svg viewBox="0 0 220 172" version="1.1" xmlns="http://www.w3.org/2000/svg" xmlns:xlink="http://www.w3.org/1999/xlink" xml:space="preserve" xmlns:serif="http://www.serif.com/" style="fill-rule:evenodd;clip-rule:evenodd;stroke-linejoin:round;stroke-miterlimit:2;">
    <path d="M16,139.25C7.223,139.25 0,146.473 0,155.25C0,164.027 7.223,171.25 16,171.25C24.777,171.25 32,164.027 32,155.25C32,146.473 24.777,139.25 16,139.25Z" style="fill:rgb(69,43,91);fill-rule:nonzero;"/>
    <path d="M212.35,0L111.92,32L111.92,0.3L3.61,34.86L3.61,126.71L97,96.89L97,128.45L219.81,89.2L186.54,56.7L212.35,0ZM97,81.17L18.53,106.17L18.53,45.82L97,20.82L97,81.17ZM192,82.41L111.92,108L111.92,47.65L185.71,24L168.8,59.73L192,82.41Z" style="fill:rgb(69,43,91);fill-rule:nonzero;"/>
</svg>
