<svg xmlns="http://www.w3.org/2000/svg" viewBox="0 0 690.465 138.82"><path d="M354.425 80.333c0 33.776 28.003 58.487 63.617 58.487 35.613 0 63.659-24.711 63.659-58.487V2.693h-34.459v73.622c0 18.255-12.612 30.525-29.286 30.525S388.67 94.613 388.67 76.315V2.693h-34.459zm219.324-46.558h41.129v102.48h34.459V33.775h41.128V2.651H573.749zM551.474 2.651h-34.459v133.604h34.459zM215.22 33.775h41.129v102.48h34.459V33.775h41.086V2.651H215.22zM34.416 2.651H0v133.604h34.46V2.65ZM197.05 58.486C197.05 24.711 169.046 0 133.433 0s-63.66 24.669-63.66 58.486v77.812h34.459V62.676c0-18.213 12.613-30.526 29.286-30.526 16.674 0 29.286 12.228 29.286 30.526v73.622h34.46z" fill="#236cff"/></svg>