<svg xmlns="http://www.w3.org/2000/svg" viewBox="0 0 298.85 299"><defs><style>.cls-1{fill:#337ab7;}</style></defs><g id="Calque_2" data-name="Calque 2"><g id="Calque_1-2" data-name="Calque 1"><path class="cls-1" d="M137.92.14c-15.4,1.4-32.9,5.6-45.5,11C42,32.54,8.32,76.64.82,130.94c-1,7.4-1.1,34-.2,41.5,3.8,29.2,21.3,49.5,46.8,54.3,20.3,3.7,37.8-1,52.3-14.3l5.6-5.1,6.7,4a70.2,70.2,0,0,0,40.3,10.6c9.3-.4,10.2-.6,17.7-2.8a73.26,73.26,0,0,0,50.1-52.7c1.9-8,2.5-20.9,1.2-27.5-.5-2.8-1.2-6.3-1.5-7.9-1.4-7.8-10.2-23.8-17.4-31.4-13.1-14-32.2-22.3-51.9-22.7-29-.6-55.3,16.1-67.6,42.8-5.1,11.1-6.2,19.8-6.5,50.2,0,4.4-.5,5.6-3.4,8.7-4.8,5-8.2,6.6-13.8,6.2-13.1-.9-16.8-8.5-16.3-33.4.4-21.7,4.2-37,13.2-53.2,27.4-49.7,89.1-69.5,139.6-44.7,42.1,20.7,66.3,66.4,59,111.6a98.12,98.12,0,0,1-10.3,32.1,106.12,106.12,0,0,1-68,55.2c-11.3,2.9-14.5,3.3-25.5,3.4-16.1.1-27.2-1.9-41-7.4a64.45,64.45,0,0,0-8-2.8c-.1.2-4.4,6.8-9.5,14.8s-10,15.7-11.1,17.2a11.53,11.53,0,0,0-1.9,3.7c0,1.3,16.9,8.5,27,11.4,8.8,2.6,12.1,3.4,18,4.2,1.9.3,6,.9,9,1.3,11.2,1.6,31.3.6,47.3-2.4,5.6-1,18.1-4.9,25.4-8a151.82,151.82,0,0,0,74.5-66.5c6.3-11.4,13.6-31.1,15.3-41.3.3-1.7,1-5.8,1.6-9.1,1.4-7.6,1.8-28.6.7-37.3C292.42,84.34,264,41.74,221,18c-12.1-6.7-33.6-14.2-45.8-16-2.1-.3-5.4-.9-7.4-1.2C163.82.24,142.72-.26,137.92.14Zm23.6,122.2c18.2,8.6,23.1,31.1,10.2,46.6-9.8,11.5-27.6,13.4-39.9,4.2-19.1-14.4-14.6-43.1,8-51.8C145.42,119.24,155.92,119.74,161.52,122.34Z"/></g></g></svg>