<svg version="1.2" xmlns="http://www.w3.org/2000/svg" viewBox="0 0 512 512" width="512" height="512">
	<title>Samsung Account</title>

	<style>
		tspan { white-space:pre } 
		.s2 { filter: url(#f1) url(#f2);fill: #2c8be2 } 
		.s3 { fill: #ffffff } 
	</style>

	<g id="icons" clip-path="url(#cp1)">
		<g id="samsung_account">
			<path id="samsung_account" class="s2" d="m41.6 165.8c15.2-73 61.8-113.7 134.5-126 53.7-9.1 107.5-9.2 161.1 0.3 74.9 13.2 119.9 56.2 134.2 130.3 11.1 57.3 11.3 115.2-0.2 172.5-15.3 72.5-63.1 117.2-135.5 129.5-53.8 9.1-107.5 9.2-161.2-0.3-74.8-13.1-120-58.3-134.3-132.5-11.7-57.6-10.6-115.9 1.4-173.8z"/>
			<path id="samsung_account" fill-rule="evenodd" class="s3" d="m256.5 381.7c31 0 59.2-11.2 81.1-29.8-16.1-30.3-46.4-42.4-81.1-42.4-34.7 0-65 12.1-81.1 42.4 21.9 18.6 50.1 29.8 81.1 29.8zm0-269.7c79.7 0 144.5 64.8 144.5 144.5 0 79.7-64.8 144.5-144.5 144.5-41 0-78-17.2-104.4-44.7 0.6-1.2 9.1-18.5 9.2-18.4 19.8-33.3 55-47.7 95.2-47.7 40.2 0 75.4 14.4 95.2 47.7 18.7-21.9 30-50.3 30-81.4 0-69.3-55.9-125.2-125.2-125.2-69.3 0-125.2 55.9-125.2 125.2 0 14.6 2.4 28.5 7 41.5-5.9 2.8-11.5 5.9-17.1 9.3-5.9-15.8-9.2-32.9-9.2-50.8 0-79.7 64.8-144.5 144.5-144.5zm-37 108.4c0 20.6 17.2 37.4 38.8 37.4 21.6 0 38.7-16.8 38.7-37.4 0-20.5-17.1-37.3-38.7-37.3-21.6 0-38.8 16.8-38.8 37.3zm94.1 0c0 29.9-25 54-55.3 54-30.4 0-55.4-24.1-55.4-54 0-29.8 25-53.9 55.4-53.9 30.3 0 55.3 24.1 55.3 53.9z"/>
		</g>
	</g>
</svg>
