<svg viewBox="0 0 1612 1857.9" xmlns="http://www.w3.org/2000/svg"><path d="M0 464.1 806 0l806 464.1v928.2l-806 465.6L0 1392.3z" fill="#0ea7e7"/><g fill="#fff"><path d="M1201.7 478.7v224.1l196.4 112-164.4 94.6-195-112V571.8z"/><path d="M1229.4 686.7v-211l183.3 104.8v211zm-819.1-208v224.1l-195 112 164.4 94.6 195-112V571.8z"/><path d="M382.6 686.7v-211L199.3 580.5v211zM806 1385l195 113.5v-189.1l-195-112-193.5 112v187.7z"/><path d="m806 1418.5-181.9 104.8L806 1629.5l183.3-106.2zm14.5-496.1 592.1 340.4v-206.6l-410.3-237.1V343.3L820.5 240.1zm-27.6 0V240.1L611 343.3V819l-411.7 237.1v206.6zm13.1 23.3-593.6 341.9 183.3 104.8 411.7-237.1 410.3 237.1 181.9-104.8z"/></g></svg>