<svg xmlns="http://www.w3.org/2000/svg" viewBox="0 0 162.688 162.5">
      <g id="g269">
        <g id="g271">
          <g id="g273">
            <path d="m 44.4,162.5 c -0.6,0 -1.3,0 -1.9,-0.1 -1.5,-0.2 -2.9,-0.5 -4.5,-1 -2.8,-0.9 -5.2,-2.2 -6.9,-3.2 -3.8,-2.2 -7.7,-4.9 -11.8,-8.3 -1.8,-1.5 -3.6,-3.1 -5.3,-4.7 l -1.4,-1.4 c -1,-0.9 -1.9,-1.9 -2.6,-3 -1.3,-2 -2.4,-4.6 -2.5,-8 -0.1,-1.1 -0.2,-2.2 -0.2,-3.4 0,-2.4 0.1,-5 0.5,-7.5 0.7,-5.2 2.4,-9.8 3.7,-13.3 0.1,-0.3 0.2,-0.6 0.3,-0.9 -0.4,-0.9 -0.7,-1.9 -1.1,-2.9 C 8.9,99.6 7.7,93.8 7.1,88 6.5,81.9 6.7,75.7 7.6,69.6 7.8,68.3 8,67 8.3,65.8 5.9,62.3 2.9,57.3 1,51.5 v -0.1 c -0.4,-1.2 -1.4,-4.2 -0.8,-8 0.2,-1.4 0.5,-2.8 1,-4.3 0.9,-2.8 2.2,-5.1 3.2,-6.8 2.2,-3.8 4.9,-7.6 8.2,-11.7 1.5,-1.8 3,-3.6 4.6,-5.2 L 18.6,14 c 0.7,-0.8 1.5,-1.5 2.4,-2.1 2,-1.5 4.8,-2.8 8.6,-2.9 1.2,-0.1 2.5,-0.2 3.8,-0.2 h 0.1 c 2.5,0 5.2,0.2 7.8,0.6 4,0.6 7.6,1.7 10.8,2.9 2.1,-0.9 4.3,-1.7 6.6,-2.5 5.4,-1.8 11.2,-3 17,-3.4 6.1,-0.5 12.3,-0.2 18.2,0.8 1.4,0.2 2.8,0.5 4.2,0.8 4.7,-3.2 9,-5.5 13.5,-6.9 h 0.1 c 1,-0.4 3.2,-1.1 6.1,-1.1 0.6,0 1.3,0 1.9,0.1 1.5,0.2 2.9,0.5 4.5,1 2.8,0.9 5.2,2.2 6.9,3.2 3.8,2.2 7.7,4.9 11.8,8.3 1.8,1.5 3.6,3.1 5.3,4.7 l 1.4,1.4 c 0.7,0.6 1.4,1.3 1.9,2.1 1.8,2.3 3.2,5.6 3.3,10.2 0.1,1.6 0.1,3.3 0,5 -0.2,3.7 -0.7,7.2 -1.6,10.4 -0.7,2.4 -1.5,4.8 -2.4,7.2 1.8,4.5 3.1,9.1 4,13.8 1.8,9.9 1.6,20.1 -0.6,29.9 1.3,1.9 2.5,3.7 3.5,5.5 1.7,3 3.1,6.1 4.1,9.3 0.4,1.2 1.3,4.2 0.7,8.2 -0.2,1.4 -0.6,2.7 -1.1,4.2 -1.8,5.1 -4.6,9.3 -7.1,12.8 -2.7,3.8 -5.8,7.5 -9,10.9 l -1.2,1.2 c -0.7,0.8 -1.5,1.5 -2.4,2.2 -2,1.5 -4.8,2.7 -8.6,2.9 -1.2,0.1 -2.5,0.2 -3.8,0.2 h -0.1 c -2.7,0 -5.4,-0.2 -8.2,-0.7 -4.5,-0.7 -8.5,-2.1 -12.1,-3.5 -1.9,0.8 -3.9,1.5 -5.8,2.1 -5.6,1.7 -11.5,2.8 -17.4,3.1 -6.1,0.4 -12.3,-0.1 -18.3,-1.2 -0.7,-0.1 -1.5,-0.3 -2.2,-0.4 -5.2,3.7 -9.8,6.1 -14.6,7.7 h -0.1 c -1,-0.1 -3.2,0.7 -6.1,0.7 z m -19.8,-28.4 10.6,3.7 c 0.9,-2.6 1,-5.4 0.4,-8 0,0.2 0,0.5 0.1,0.7 0,0.3 0.1,0.7 0.1,1.1 -0.1,-2 -0.8,-4.6 -2.6,-7 -0.7,-0.9 -1.5,-1.7 -2.4,-2.4 l 0.5,0.4 0.9,0.9 c -0.8,-0.8 -1.7,-1.6 -2.7,-2.3 z m 99.1,-4.7 c -0.8,0.8 -1.6,1.6 -2.3,2.7 l 11.9,4.6 v -11.1 c 0,0 0,0 0,0 -1.1,0 -2.2,0.1 -3.2,0.4 0.2,0 0.4,0 0.6,0 0.3,0 0.7,-0.1 1.1,-0.1 -1.8,0.1 -4.2,0.7 -6.4,2.1 -1.2,0.8 -2.2,1.7 -3.1,2.9 l 0.4,-0.5 z m -87.9,-2.6 c 0.5,0.4 1,0.8 1.5,1.3 2.6,2.2 5,3.9 7.2,5.2 1.4,-0.7 3,-1.7 4.7,-3 0.5,-0.3 0.9,-0.7 1.4,-1.1 0.3,-0.2 0.5,-0.5 0.8,-0.7 0.1,-0.1 0.3,-0.3 0.4,-0.4 l 6.2,-6.3 8.4,2.9 c 0.3,0.1 0.6,0.2 0.8,0.3 1.8,0.6 3.6,1 5.4,1.4 3.7,0.7 7.6,1 11.4,0.7 3.6,-0.2 7.3,-0.9 10.7,-1.9 1.7,-0.5 3.4,-1.1 5,-1.9 0.8,-0.3 1.6,-0.7 2.3,-1.1 2,-1 4.3,-1.6 6.6,-1.6 3.6,0 6.3,1.3 7.6,2 0.4,0.2 0.8,0.4 1.3,0.5 2.5,1 5.4,2.2 8,2.6 0.4,0.1 0.9,0.1 1.3,0.2 1.5,-1.7 2.9,-3.5 4.2,-5.3 0.8,-1.1 1.6,-2.2 2.3,-3.3 -0.1,-0.2 -0.2,-0.4 -0.4,-0.7 -0.7,-1.2 -1.5,-2.4 -2.5,-3.9 -0.3,-0.5 -0.7,-0.9 -1.1,-1.4 -0.2,-0.2 -0.3,-0.4 -0.5,-0.6 -4.1,-4 -5.5,-9.7 -3.6,-15.1 0.1,-0.3 0.2,-0.6 0.3,-0.8 2.3,-7.2 2.7,-14.9 1.4,-22.3 -0.7,-3.5 -1.7,-7 -3.2,-10.3 -0.1,-0.3 -0.3,-0.6 -0.4,-0.9 -3.3,-6.1 -1.9,-11.3 -0.7,-13.8 0.5,-1 0.9,-2.1 1.3,-3.1 0.8,-1.9 1.4,-3.9 2,-5.7 0.2,-0.9 0.4,-1.8 0.5,-2.9 -0.5,-0.4 -1,-0.8 -1.5,-1.3 -2.7,-2.2 -5,-3.9 -7.2,-5.2 -1.4,0.8 -3,1.8 -4.8,3 -0.5,0.4 -1,0.8 -1.5,1.2 -0.1,0.1 -0.3,0.2 -0.4,0.4 -2.7,2.6 -6.3,4 -10,4 -1.8,0 -3.5,-0.3 -5.2,-1 C 95.4,36.8 95,36.6 94.6,36.5 92.8,36 91,35.5 89.1,35.2 85.4,34.6 81.5,34.4 77.7,34.7 c -3.6,0.3 -7.2,1 -10.6,2.1 -1.7,0.5 -3.3,1.2 -4.9,1.9 -0.8,0.3 -1.5,0.7 -2.3,1.1 L 59.5,40 c -2.1,1.2 -4.6,1.8 -7,1.8 -2.2,0 -4.4,-0.5 -6.5,-1.5 -0.5,-0.2 -0.9,-0.4 -1.4,-0.6 -2.4,-1 -5.3,-2.1 -7.8,-2.4 -0.4,-0.1 -0.8,-0.1 -1.1,-0.2 -0.4,0.5 -0.8,1 -1.2,1.4 -2.2,2.7 -3.9,5 -5.2,7.3 0.7,1.4 1.7,2.9 2.9,4.7 0.3,0.5 0.7,1 1.1,1.4 0.2,0.3 0.5,0.5 0.7,0.8 l 5.8,6.1 -2.5,8 c -0.2,0.5 -0.3,1 -0.5,1.5 -0.5,1.8 -0.9,3.7 -1.2,5.6 -0.6,3.8 -0.7,7.6 -0.3,11.5 0.3,3.6 1.1,7.2 2.3,10.6 0.6,1.7 1.3,3.3 2,4.9 0.1,0.2 0.2,0.4 0.3,0.6 2.1,4.3 2.1,9.1 -0.1,13.4 -0.2,0.4 -0.4,0.8 -0.5,1.2 -0.4,1 -0.9,2 -1.3,3 -0.8,2.2 -1.8,4.8 -2.1,7.1 0,0.1 -0.1,0.4 -0.1,0.6 z m 94.1,-88 c 0.8,0.8 1.7,1.6 2.8,2.4 L 137.6,28.3 127,24.6 c -0.9,2.6 -1,5.4 -0.4,8 0,-0.1 0,-0.2 0,-0.3 0,-0.3 0,-0.8 0,-1.3 v -0.1 c 0,1.5 0.5,4 2.1,6.4 0.8,1.1 1.7,2.1 2.8,3 L 131,39.9 Z M 29.3,26.3 v 11.1 c 1.1,0 2.2,-0.1 3.2,-0.4 -0.2,0 -0.4,0 -0.6,0 -0.3,0 -0.7,0.1 -1.1,0.1 1.8,-0.1 4.2,-0.7 6.4,-2.1 1.2,-0.8 2.2,-1.7 3.1,-2.9 l -0.4,0.5 -0.9,1 c 0.8,-0.8 1.6,-1.7 2.3,-2.7 z" id="path276"></path>
          </g>
        </g>
        <g id="g278">
          <g id="g280">
            <g id="g282">
              <path style="fill:#faa431" d="M 56.3,88.4 57,116.7 50,111 c -7.8,12.7 -10.3,25 -6.6,34.1 l 1.3,3.2 -3.2,-1.4 c -7.3,-3.2 -13.9,-7.7 -19.4,-13.5 l -0.3,-0.3 -0.1,-0.5 c -0.4,-3.5 -0.2,-7.3 0.7,-11.2 v -0.1 c 1.3,-4.9 3.2,-9.8 5.6,-14.7 1.5,-3.1 3.3,-6.2 5.3,-9.2 l -6.1,-5 z" id="path284"></path>
            </g>
          </g>
          <g id="g286">
            <g id="g288">
              <path style="fill:#faa431" d="m 105.9,74.1 -0.7,-28.3 7,5.7 c 7.8,-12.7 10.3,-25 6.6,-34.1 l -1.3,-3.2 3.2,1.4 c 7.3,3.2 13.9,7.7 19.4,13.5 l 0.3,0.3 0.1,0.5 c 0.4,3.5 0.2,7.3 -0.7,11.2 v 0.1 c -1.3,4.9 -3.2,9.8 -5.6,14.7 -1.5,3.1 -3.3,6.2 -5.3,9.2 l 6.1,5 z" id="path290"></path>
            </g>
          </g>
          <g id="g292">
            <g id="g294">
              <path style="fill:#faa431" d="m 88.5,105.4 28.3,-0.7 -5.7,7 c 12.7,7.8 25,10.3 34.1,6.6 l 3.2,-1.3 -1.4,3.2 c -3.2,7.3 -7.7,13.9 -13.5,19.4 l -0.3,0.3 -0.5,0.1 c -3.5,0.4 -7.3,0.2 -11.2,-0.7 h -0.1 c -4.9,-1.3 -9.8,-3.2 -14.7,-5.6 -3.1,-1.5 -6.2,-3.3 -9.2,-5.3 l -5,6.1 z" id="path296"></path>
            </g>
          </g>
          <g id="g298">
            <g id="g300">
              <path style="fill:#faa431" d="m 74.1,57.6 -28.3,0.7 5.7,-7 C 38.8,43.5 26.5,41 17.4,44.7 L 14.3,46 15.7,42.8 C 18.9,35.5 23.4,28.9 29.2,23.4 L 29.5,23.1 30,23 c 3.5,-0.4 7.3,-0.2 11.2,0.7 h 0.1 c 4.9,1.3 9.8,3.2 14.7,5.6 3.1,1.5 6.2,3.3 9.2,5.3 l 5,-6.1 z" id="path302"></path>
            </g>
          </g>
          <g id="g304">
            <g id="g307">
              <circle style="fill:#e6832b" cx="81.400002" cy="80.800003" r="60.5" id="circle309"></circle>
            </g>
          </g>
          <g id="g311">
            <path style="fill:#ffffff" d="M 59.3,59.5 C 55.8,57.9 53.2,56.3 50.6,54.4 46.6,51.6 42.9,48.5 39.8,45.2 32.2,37.5 28.2,29.6 29.3,23.1 L 27,25.6 c -5.5,5.8 -12.8,16 -12.9,20.4 0.1,0.5 0.1,0.5 0.1,0.5 1,3.4 2.6,6.8 4.9,10.1 v 0.1 c 3,4.8 8.9,12.7 29.9,21.9 l -3.7,7 L 73.6,78 63.5,51.5 Z" id="path314"></path>
          </g>
          <g id="g316">
            <path style="fill:#ffffff" d="m 103.3,103.5 c 3.5,1.6 6.1,3.2 8.7,5.1 4,2.8 7.7,5.9 10.8,9.2 7.6,7.7 11.6,15.6 10.5,22.1 l 2.3,-2.4 c 5.5,-5.8 12.8,-16 12.9,-20.4 -0.1,-0.5 -0.1,-0.5 -0.1,-0.5 -1,-3.4 -2.6,-6.8 -4.9,-10.1 v -0.1 c -3,-4.8 -8.9,-12.7 -29.9,-21.9 l 3.7,-7 -28.3,7.6 10.2,26.2 z" id="path318"></path>
          </g>
          <g id="g320">
            <path style="fill:#ffffff" d="m 104,59.3 c 1.6,-3.5 3.2,-6.1 5.1,-8.7 2.8,-4 5.9,-7.7 9.2,-10.8 7.7,-7.6 15.6,-11.6 22.1,-10.5 L 138,27 c -5.8,-5.5 -16,-12.8 -20.4,-12.9 -0.5,0.1 -0.5,0.1 -0.5,0.1 -3.4,1 -6.8,2.6 -10.1,4.9 h -0.1 C 102.1,22.1 94.2,28 85,49 l -7,-3.7 7.6,28.3 26.4,-10 z" id="path323"></path>
          </g>
          <g id="g325">
            <path style="fill:#ffffff" d="m 58.2,103.2 c -1.6,3.5 -3.2,6.1 -5.1,8.7 -2.8,4 -5.9,7.7 -9.2,10.8 -7.7,7.6 -15.6,11.6 -22.1,10.5 l 2.4,2.3 c 5.8,5.5 16,12.8 20.4,12.9 0.5,-0.1 0.5,-0.1 0.5,-0.1 3.4,-1 6.8,-2.6 10.1,-4.9 h 0.1 c 4.8,-3 12.7,-8.9 21.9,-29.9 l 7,3.7 -7.6,-28.3 -26.3,10 z" id="path328"></path>
          </g>
        </g>
      </g>
</svg>
