<svg viewBox="0 0 44 39" xmlns="http://www.w3.org/2000/svg">
<path d="M26.2 14.7627C27.411 10.6558 28.233 7.59952 28.233 5.37805C28.233 2.43671 26.543 0 23.226 0C19.983 0 18.322 2.43671 18.322 5.37805C18.322 7.25702 18.938 10.4333 20.252 14.7627L21.118 17.9171L18.376 16.1291C13.829 12.9201 10.767 11.0295 7.95801 11.0295C5.63301 11.0295 3.11 12.7202 3.11 16.0825C3.11 20.3764 7.138 21.7231 16.52 21.7987L19.748 21.9536L17.144 24.0231C11.702 28.0384 8.742 30.7398 8.742 33.9895C8.742 36.1651 10.758 38.7342 13.589 38.7342C17.102 38.7342 19.221 35.5914 21.974 27.5287L23.152 24.4434L24.404 27.5287C26.86 34.6272 28.682 38.8083 32.714 38.8083C35.397 38.8083 37.561 36.3877 37.561 34.0637C37.561 31.1107 35.417 28.7801 29.234 24.0231L26.629 21.9536L29.932 21.7987C38.765 21.6489 43.34 20.4338 43.34 16.1567C43.34 12.7943 40.893 11.1037 38.522 11.1037C36.438 11.1037 33.29 12.4751 28.076 16.1291L25.333 17.9171L26.2 14.7627Z" fill="black"/>
</svg>
