<svg version="1.1" id="Layer_1" xmlns="http://www.w3.org/2000/svg" xmlns:xlink="http://www.w3.org/1999/xlink" x="0px" y="0px" viewBox="31.30078125 148.3984375 449.6953125 294.1015625" style="enable-background:new 0 0 512 512;" xml:space="preserve">
<g>
	<title>disroot</title>
	<g>
		<path d="M384,195.2c1.2,1.6,1.2,3.1,0,4.8c-1.2,0.4-2.1,0.4-2.9,0l-2.9-4.2l-6.9-1.8c-1.2-1.3-1.2-2.9,0-4.8
			c1.1-1.6,2.6-2.2,4.6-1.8C379.3,189.4,382.1,192,384,195.2L384,195.2z M468.1,276.5c0.4,1.2,0.6,2.1,0.6,2.9l-2.9,4.2v-6.5
			C466.6,276.6,467.4,276.5,468.1,276.5z M367.3,187.4l2.9,4.8c-1.5,2.8-3.1,4.6-4.6,5.3l-1.8,2.4c-0.7-2-1.3-4-1.7-5.9
			c-0.4,0-0.8-0.2-1.2-0.7l-2.3,2.4l-10.3-2.4c-1.5-2-1.2-4.2,1.1-6.5c2.3-2.4,5-3,8-1.8L367.3,187.4z M345.9,199.9l-2.9-1.8
			l2.3-1.2L345.9,199.9z M299.7,169.5l-3.4,4.2l-3.4-4.2l-2.9-0.6l9.2-1.8L299.7,169.5z M479.7,259.1c1.5,1.2,1.7,4.2,0.6,8.9
			l-3.4,10.2l-2.9,3.6l-0.6-7.2c0-1.6-0.2-3-0.5-4.2c0-1.2-0.2-2.4-0.7-3.6l-7.5,3.6c0.4,0.8,0.6,1.8,0.6,3c0.4,1.2,0.8,2,1.2,2.4
			l-8.1,0.6l0.5,2.3l1.8,1.8l-2.9,6.5c-0.4,3.6-1.4,5.6-2.9,6l-2.3-3.6l-7,1.8c-1.5-1.5-2.3-2.9-2.3-4.2l-1.8-2.3l2.9-3.6
			c-0.8-1.6-1.5-2.4-2.3-2.4l-2.9,1.3l-2.9,7.1c-2.6,0-4.4,0.4-5.1,1.3l3.4,4.8l12.1,6.6l0.6,4.2c1.5,0.4,2.7,1,3.4,1.8
			c1.2,0.8,2,1.4,2.3,1.8c-0.4,0.8-0.8,1.8-1.2,3c-0.4,0.8-1.2,1.5-2.3,2.3l-5.1,3.6l0.6,4.8c-3.1,1.2-5.8,3.1-8.1,5.9l-1.7,6.6
			c-4.2,0-7,0.4-8,1.2l0.5,9l-1.7-0.6c-1.5-2.4-3.1-3-4.6-1.8l2.3,7.8c-1.2,0-2.1,0.2-2.9,0.6l-1.2,1.3l2.3,4.2
			c0.4,1.6,0.5,2.8,0.5,3.6c-2.3,2-4.6,3.1-6.9,3.5c-1.9,0.4-3.4,1.8-4.6,4.3l0.6,7.2c-1.2,2.8-2.1,4.5-2.9,5.3
			c-3.8,0-6.7,0.4-8.6,1.2l-3.4,6.6l-2.9-1.2c-1.5-0.4-2.7-0.4-3.5,0l-2.3,4.8c-3.4,0-5.9,0.8-7.5,2.4l-4.6,4.2l1.1-5.3
			c1.2-3.2,0.6-5-1.7-5.4l-2.3,1.8l-0.5,3l-5.8,3.6l-0.6,6.6h-11l-2.3,4.2c-0.8,2.4-2.7,4.2-5.8,5.4c-3.1,1.2-8.5,1.8-16.2,1.8
			c-7.6,0-12.4,0.4-14.3,1.2c-2,0-3.7,1-5.2,3c-1.2,2.1-2.5,3.4-4,4.2l-9.2,3l-2.9,5.4l-4,3c-1.9,1.2-5,1.8-9.2,1.8l-5.8,3l-8.6,3.6
			l-6.3-0.6c-2.3-1.3-5-1.8-8-1.8h-10.4l-3.5-2.4l-6.9,1.2l-3.4,4.8l-5.2-3.6l-4-4.2l-9.2-0.6l-3.4-3l5.1-6.6l7-9.5v-6.6l8.1-9
			v-10.1c0-3.2,0.6-6,1.8-8.4l6.3,1.8c1.5-1.6,2.3-2.8,2.3-3.6c-2.3-2-4.4-4.6-6.4-7.8l-5.8-8.3l-6.9-9l-4.6-8.4l-5.2-8.3l-4-10.2
			l-8.6-9.6l-31.7-46.6l-5.8-10.2l-5.8-11.4l-4.6-3c-3.4-4.3-6.3-9.2-8.6-14.3l-1.7-7.2l-5.2-2.4l-17.9,3.6c-4.3,0-8.9,0.8-13.8,2.4
			l-12.2,4.8l-14.4,1.8l-8.1,3c-3.4,0.8-6.1,0.4-8.1-1.2l-4-4.7l-6.4,2.3l-5.2-1.8c0-4-0.4-6.4-1.1-7.2l-5.2-7.2
			c-2.3-1.6-4-2.6-5.2-3l0.6-3h5.8c-0.4-1.2-0.6-2.6-0.6-4.2v-3l5.7,2.4c2-1.2,3.1-2.2,3.5-3l2.3-4.8l4.6,0.6l3.4-10.2l-0.5-5.3
			l2.9,1.8l2.9,3c2-0.8,3.1-1.6,3.5-2.3l5.2-6.6l5.1,0.6l-1.7-4.2l-3.4-4.2l-5.2-1.8c2.3-3.6,7.3-6.1,14.9-7.8l18.5-1.8l6.4-4.2
			l15-3l23.1-1.2l8-1.8c3.1-1.2,6.2-1.4,9.2-0.6l9.2-0.6c6.1-1.6,10.5-2,13.3-1.2l7.5,0.6l10.4,0.7l15.5,3l13.8,1.2l9.8-4.2
			c2.3,0,4.8,1.5,7.5,4.8l5.8,4.2h12.1l4,4.8l-0.6,3l3.4,9.6l2.3-1.3l5.2-5.9l5.7,8.9l-6.9-2.3c-2.7,0-4.2,2-4.6,5.9l5.8,1.2l2.3,3
			l3.4-1.2c2-0.8,3.9-0.4,5.8,1.2c2.3,1.2,3.9,2.6,4.6,4.2l3.4,4.8h7.5c0-1.2,0.2-2,0.5-2.4c0.4-0.8,0.8-1.4,1.2-1.8l1.2,5.9h2.3
			l1.7-1.8l1.8,3l1.8-4.8c5,0,7.8-0.4,8.6-1.2c0-1.2-0.4-2.2-1.2-3l-2.3-3c0-2,1.5-2.8,4.6-2.3l8.1,2.3l5.7-0.6l3.4,3l1.2,2.4
			c-3.4-0.8-5.8-0.7-6.9,0.6c-0.8,0.8-1,2.2-0.6,4.2l4,3.6c0,2.8,1.3,5.8,4,8.9l2.3-2.3l0.5-4.8l2.3,3h9.8c1.9,0,3.4,2.2,4.6,6.6
			l1.8,6l2.3,1.8l2.9-3l9.2,3l1.8-3l2.9-1.2c1.5-1.3,2.6-2.2,2.9-3v-3l-1.2-3l8.1,2.4c1.5-1.6,2.5-2.8,2.9-3.6c-0.7-2-1.5-3-2.3-3
			l-5.8-1.2v-3l1.8-4.2l1.8-3.6c1.9,1.2,3.1,2.2,3.4,3l2.9,4.2l8.1-1.2l14.4,12.5l4.1-0.6l4,5.3l3.4,1.8c-1.2,1.6-1.2,3.4,0,5.3
			l4-1.8h4l3.4,5.9l3.4,6c3.1,0,5.4,0.4,7,1.2l2.3,10.8l6.4,3.6l5.2,1.8c0,2-0.4,3.6-1.2,4.8l1.2,6l1.7,3.5l-0.6,4.3l2.3-1.3
			c1.5-2,2.7-3.1,3.5-3.6L479.7,259.1z M334.4,170.7c1.2,1.2,1.2,2.9,0,5.3c-0.4,0.8-1.5,1.4-3.4,1.7c-1.2-1.2-1.2-2.9,0-5.3
			C331.3,171.7,332.5,171.1,334.4,170.7z M452.6,281.8c1.2,1.3,1.2,2.8,0,4.8l-2.9,1.3l-0.6-4.2c0-1.2,0.2-2,0.6-2.4
			C450.5,280.9,451.4,281.1,452.6,281.8z M428.3,252.6c0.8,0.7,1.2,2.7,1.2,5.9c-1.5,0.8-3.1,1-4.6,0.6c-1.9-1.2-2.3-3-1.2-5.3
			C424.5,251.7,426.1,251.3,428.3,252.6L428.3,252.6z M265.2,173.1l-3.4,6.6l1.7-4.8L265.2,173.1z M344.8,403.8l-2.3-3.6l2.3-1.8
			c1.9,0.4,2.6,1.8,2.3,4.3L344.8,403.8z M441.1,314.7c-2.3-1.6-3.9-3.1-4.6-4.8l3.4,2.3L441.1,314.7z M210.4,421l2.9-2.9l2.9-1.8
			L210.4,421z M458.3,266.3l-1.7,3.6l-0.6,1.8l-0.6-4.2L458.3,266.3z M461.2,295.6l-1.2,5.3L461.2,295.6z M420.3,229.8l1.7,2.4
			l-2.3,0.6l-2.3-1.8L420.3,229.8z M317,370.3l-2.3,1.8L317,370.3z M304.9,168.9l-0.6,3L304.9,168.9z M427.8,235.2l-1.1,3
			L427.8,235.2z M425.5,332.7l1.2,1.8l-1.8,1.2L425.5,332.7L425.5,332.7z M314.8,172.5l-1.2,1.8L314.8,172.5z M345.9,390.6l-1.1,2.4
			L345.9,390.6z M216.1,262.7l-2.3,2.4L216.1,262.7z M212.7,434.2l-0.6,3L212.7,434.2z M387.4,200.5l1.2,1.8l-2.9-1.2L387.4,200.5z
			 M293.4,363.1l-0.6,2.3L293.4,363.1L293.4,363.1z M426.7,241.8l-0.6,2.4L426.7,241.8L426.7,241.8z M422.6,269.9l-1.1,1.7
			L422.6,269.9z M430.1,344l-1.8,1.2L430.1,344z M62.8,194.6l-0.6,2.9L62.8,194.6L62.8,194.6z M449.2,294.3l-2.3,1.3L449.2,294.3z
			 M441.6,290.2l-3.4,0.7L441.6,290.2z M320,418.1l-0.6,1.8L320,418.1z M436.4,302.8v-3V302.8z M464.7,262.7
			c-0.4,0.8-0.6,1.6-0.6,2.4C464.1,263.9,464.3,263.1,464.7,262.7z M59.3,183.3l-0.6,2.3L59.3,183.3z M387.4,235.2l-2.3,0.7
			L387.4,235.2z M378.2,199.4l-1.2,1.8L378.2,199.4z M235.8,165.3l-1.8,0.6L235.8,165.3z M293.4,189.2l-0.6,2.4L293.4,189.2z
			 M285.4,188.6l-1.2,1.2L285.4,188.6z M210.9,430.1l-0.5,2.3L210.9,430.1z M419.1,280.7l-1.2-1.3L419.1,280.7z M277.3,185l-1.2-1.2
			L277.3,185z M462.4,260.9c0-3.1-0.6-5.7-1.8-7.8c-0.8-2-2.1-3.7-4-5.3l-0.6,7.8l4,1.8c0.4,1.2,0.4,2.1,0,2.9L462.4,260.9z
			 M417.4,246.6l-1.1-1.2L417.4,246.6z M440.4,273.5l-2.9-0.6l-3.4-5.4l1.1-4.8l-5.2,3.6l2.9,3.6l0.6,1.7l-7,3l4.6,0.6
			c0.8,0.8,1.5,1.4,2.3,1.8c1.2,0.4,1.9,0.6,2.3,0.6L440.4,273.5z M428.9,262.7l-2.3-1.8l-4-1.2l-1.8-3l-2.3,2.4l-1.8,4.2l4.6,1.8
			c2.3,0,4,0.6,5.2,1.7L428.9,262.7z M328,197.5l-2.3-1.2l-3.5-1.8c-1.5,0-2.3,0.4-2.3,1.2l0.6,3.6l4,2.4L328,197.5z M397.2,324.9
			l1.2-7.2c0-6.4-2.3-13.2-7-20.4c-3.8-7.2-8.9-13-15-17.3c-5-4.8-11.9-9-20.7-12.6l-23.1-10.1L324,252l-12.7-4.8L298,243l-21.4-4.8
			l-6.9-1.2c-3.4,0-6.1,0.4-8,1.2c-1.5,0.4-2.1,1.8-1.8,4.3l6.9,13.7c3.5,6.4,6.7,10.8,9.8,13.2l5.2,3.6v3.6l5.8,7.1l0.6,4.8
			c1.5,1.2,2.7,1.8,3.4,1.8c1.9,1.2,4.4,4.2,7.5,9l6.4,7.8l9.8,14.4l8.6,15.5l4,11.9l-1.2,7.8l2.3,3.6l-2.3,3.6
			c-1.1,1.2-1.1,2.4,0,3.6l4-1.2l7-3c1.9,0,5.2-1.2,9.8-3.6l12.7-6l17.9-7.2c7.3-3.1,12.5-6.4,15.6-9.5l2.3-6
			C396,328,396.4,326,397.2,324.9L397.2,324.9z"></path>
	</g>
</g>
</svg>
