<svg xmlns="http://www.w3.org/2000/svg" viewBox="0 0 10 10"><text xml:space="preserve" style="font-style:normal;font-variant:normal;font-weight:700;font-stretch:normal;font-size:2.64583325px;line-height:125%;font-family:&quot;Adobe Garamond Pro&quot;;-inkscape-font-specification:&quot;Adobe Garamond Pro Bold&quot;;text-align:start;letter-spacing:0;word-spacing:0;writing-mode:lr-tb;text-anchor:start;fill:#000;fill-opacity:1;stroke:none;stroke-width:.26458332px;stroke-linecap:butt;stroke-linejoin:miter;stroke-opacity:1" x="17.094" y="9.109" transform="translate(-11.627 -.284)"><tspan x="17.094" y="9.109" style="stroke-width:.26458332px">      </tspan></text><g style="font-style:normal;font-variant:normal;font-weight:700;font-stretch:normal;font-size:10px;line-height:125%;font-family:&quot;Adobe Garamond Pro&quot;;-inkscape-font-specification:&quot;Adobe Garamond Pro Bold&quot;;text-align:start;letter-spacing:0;word-spacing:0;writing-mode:lr-tb;text-anchor:start;fill:#000;fill-opacity:1;stroke:none;stroke-width:.28224891px;stroke-linecap:butt;stroke-linejoin:miter;stroke-opacity:1"><path d="M4.203 25.806q-.17 1.066-.298 1.856-.128.789-.235 1.365-.107.576-.192.981-.085.406-.15.726-.234.981-.597 1.472-.34.49-.96.49-.554 0-.874-.277-.299-.277-.278-.875 0-.192.128-.384t.3-.298q.255-.171.511-.47.277-.32.533-.896.278-.576.534-1.472t.47-2.218q-1.068 0-1.729.192-.661.17-1.024.704-.107.17-.235.149-.128-.021-.17-.299-.022-.149 0-.426.021-.299.15-.619.127-.341.362-.661.234-.342.661-.598.363-.213.832-.298.49-.086 1.173-.086h4.63q1.237 0 1.75-.042.532-.043.703-.15.043-.042.107-.021.085.021.085.192 0 .47-.213 1.024-.214.533-.512.747-.17.106-.47.149-.298.043-.98.043-.406 1.514-.428 2.965-.042 1.024.235 1.536.277.512.725.512.235 0 .534-.128.298-.15.661-.576.107-.128.213-.15.128-.042.214 0 .085.043.106.171.043.107-.02.32-.428 1.174-1.217 1.707-.768.533-1.728.533-.619 0-1.003-.234-.362-.235-.576-.555-.192-.341-.256-.725-.064-.384-.064-.704 0-1.152.406-2.347.426-1.195.896-2.325z" style="font-size:21.33333397px;stroke-width:.28224891px" transform="translate(.117 -21.407) scale(.93741)" aria-label="π"/></g></svg>
