<svg viewBox="0 0 47 24" fill="none" xmlns="http://www.w3.org/2000/svg">
<path fill-rule="evenodd" clip-rule="evenodd" d="M33.5014 4.95804L46.254 1.5405C46.7691 1.40246 47.0813 1.73641 46.946 2.28777C46.946 2.28777 45.4946 8.19997 44.868 10.7521C44.6897 11.4786 44.2102 12.0773 43.5668 12.3769C41.4718 13.3523 36.5073 15.6637 32.106 17.7128C33.7139 15.678 34.6805 13.0646 34.6805 10.214C34.6805 10.1513 34.68 10.0888 34.6791 10.0263L42.7111 7.23298L43.1558 5.55355L34.5043 8.12549C34.3131 7.00673 33.9712 5.9429 33.5014 4.95804ZM12.4353 4.67908L0.723575 1.5405C0.20847 1.40246 -0.10375 1.73641 0.0316027 2.28777C0.0316027 2.28777 1.48298 8.19997 2.10953 10.7521C2.28783 11.4786 2.76735 12.0773 3.41073 12.3769C5.12481 13.1749 8.75961 14.8672 12.4353 16.5785L12.4353 10.0739L4.26649 7.23298L3.82176 5.55355L12.4353 8.11418V4.67908ZM18.5042 1.50937H13.8169V23.9964H18.6529V19.0108C20.0755 19.8749 21.7271 20.3695 23.4888 20.3695C28.8304 20.3695 33.1606 15.8227 33.1606 10.214C33.1606 4.60534 28.8304 0.0585938 23.4888 0.0585938C21.6654 0.0585938 19.9599 0.588389 18.5042 1.50937ZM23.4888 15.2917C26.1596 15.2917 28.3247 13.0184 28.3247 10.214C28.3247 7.40968 26.1596 5.13631 23.4888 5.13631C20.818 5.13631 18.6529 7.40968 18.6529 10.214C18.6529 13.0184 20.818 15.2917 23.4888 15.2917Z" fill="#6800B3"></path>
</svg>