<svg viewBox="0 0 52 52" version="1.1" xmlns="http://www.w3.org/2000/svg" xmlns:xlink="http://www.w3.org/1999/xlink" xml:space="preserve" xmlns:serif="http://www.serif.com/" style="fill-rule:evenodd;clip-rule:evenodd;stroke-linejoin:round;stroke-miterlimit:2;">
    <path d="M51.275,19.215L52.2,19.215L52.2,0L32.964,0L32.964,0.92C37.352,2.104 41.353,4.42 44.564,7.637C47.775,10.843 50.089,14.835 51.274,19.215M0,26.147C0.012,32.819 2.556,39.487 7.635,44.566C12.726,49.656 19.413,52.202 26.1,52.202L26.1,0C19.413,0 12.726,2.546 7.635,7.637C2.556,12.716 0.012,19.384 0,26.055L0,26.147ZM51.275,32.987L52.2,32.987L52.2,52.201L32.964,52.201L32.964,51.282C37.352,50.098 41.353,47.781 44.564,44.565C47.774,41.359 50.088,37.366 51.274,32.987" style="fill:white;"/>
</svg>
