<svg xmlns="http://www.w3.org/2000/svg" viewBox="0 0 81 100"><path d="M19.519,55.946l0,26.647l23.788,0c3.391,0.167 6.778,-0.435 9.904,-1.761c4.255,-2.238 6.382,-6.403 6.382,-12.495c0.392,-4.513 -2.103,-8.813 -6.216,-10.712c-3.11,-1.227 -6.44,-1.798 -9.78,-1.679l-24.078,0Zm0,-38.582l0,22.026l23.808,0c3.614,0.147 7.2,-0.706 10.361,-2.465c2.652,-1.658 3.978,-4.587 3.978,-8.786c0,-4.655 -1.754,-7.729 -5.263,-9.221c-3.751,-1.14 -7.664,-1.658 -11.583,-1.533l-21.301,-0.021Zm53.17,-6.713c3.068,4.482 4.642,9.821 4.496,15.25c0.254,5.282 -1.353,10.49 -4.538,14.712c-2.067,2.414 -4.605,4.382 -7.459,5.781c4.655,1.575 8.643,4.68 11.313,8.806c2.618,4.376 3.941,9.407 3.813,14.505c0.117,5.661 -1.401,11.238 -4.372,16.059c-3.871,6.67 -10.425,11.367 -17.986,12.888c-4.555,0.924 -9.193,1.375 -13.841,1.347l-44.115,-0l0,-99.999l47.326,-0c11.936,0.193 20.39,3.744 25.363,10.651" fill="#009ee3"/></svg>
