<svg xmlns="http://www.w3.org/2000/svg" viewBox="0 0 139 152"><defs/><path fill="#56b366" fill-rule="evenodd" d="M138.86817588 17.00140874a16.9266618 16.9266618 0 00-33.8533236 0v.52427714l-73.77328263 23.8171613a16.9266618 16.9266618 0 10-14.0056892 26.43854697 16.7019716 16.7019716 0 005.16787463-.8987608l48.45818666 61.19063137a16.9266618 16.9266618 0 1026.58834044-6.21642889l25.76447637-88.00366202a16.85176507 16.85176507 0 0015.65341733-16.85176507zm-52.35281681 100.4365198a16.77686833 16.77686833 0 00-7.48967336 1.87241835L31.69095005 59.39295998a16.77686833 16.77686833 0 002.39669547-7.04029296l75.34611404-24.0418515a16.9266618 16.9266618 0 002.62138568 2.39669548L86.5902558 117.43792855h-.07489673z"/></svg>
