<svg xmlns="http://www.w3.org/2000/svg" viewBox="0 0 24 24"><path fill="#0ACF83" d="M8.526,23.25c2.208,0,4-1.624,4-3.625V16h-4c-2.208,0-4,1.624-4,3.625S6.318,23.25,8.526,23.25z"/><path fill="#A259FF" d="M4.75,12c0-2.208,1.692-4,3.776-4h3.776v8H8.526C6.442,16,4.75,14.208,4.75,12z"/><path fill="#F24E1E" d="M4.75,4.398c0-2.208,1.792-4,4-4h4v8h-4C6.542,8.398,4.75,6.606,4.75,4.398z"/><path fill="#FF7262" d="M11.625,0.75h4c2.208,0,4,1.792,4,4s-1.792,4-4,4h-4V0.75z"/><path fill="#1ABCFE" d="M19.625,12c0,2.208-1.792,4-4,4s-4-1.792-4-4s1.792-4,4-4S19.625,9.792,19.625,12z"/><path d="M15.625,16.497c-2.411,0-4.373-2.018-4.373-4.498s1.962-4.498,4.373-4.498s4.373,2.018,4.373,4.498S18.036,16.497,15.625,16.497z M15.625,9.001c-1.584,0-2.873,1.345-2.873,2.998s1.289,2.998,2.873,2.998s2.873-1.345,2.873-2.998S17.209,9.001,15.625,9.001z"/><path d="M8.374,24C5.962,24,4,21.982,4,19.501c0-1.564,0.779-2.945,1.958-3.752C4.779,14.942,4,13.563,4,12c0-1.562,0.78-2.943,1.961-3.751C4.78,7.443,4,6.062,4,4.499C4,2.018,5.962,0,8.374,0h7.253C18.038,0,20,2.02,20,4.503c0,2.48-1.962,4.499-4.374,4.499L12.747,9v10.501C12.747,21.982,10.785,24,8.374,24z M8.374,16.499c-1.584,0-2.874,1.347-2.874,3.003c0,1.653,1.289,2.999,2.874,2.999s2.874-1.345,2.874-2.999V8.25c0-0.414,0.336-0.75,0.75-0.75h3.628c0,0,0.001,0,0.001,0c0.763,0,1.48-0.309,2.022-0.869C18.198,6.064,18.5,5.309,18.5,4.503c0-1.656-1.289-3.003-2.874-3.003H8.374C6.789,1.5,5.5,2.845,5.5,4.499s1.289,2.999,2.874,2.999c0.414,0,0.75,0.335,0.75,0.749c0,0.414-0.334,0.75-0.749,0.751C6.79,9,5.5,10.348,5.5,12c0,1.653,1.289,2.999,2.874,2.999c0.414,0,0.75,0.336,0.75,0.75S8.788,16.499,8.374,16.499z"/></svg>