<svg id="Layer_1" data-name="Layer 1" xmlns="http://www.w3.org/2000/svg" xmlns:xlink="http://www.w3.org/1999/xlink" viewBox="0 0 380 380"><defs><style>.cls-1{fill:none;}.cls-2{clip-path:url(#clip-path);}.cls-3{fill:#48b862;}.cls-4{clip-path:url(#clip-path-2);}</style><clipPath id="clip-path"><path class="cls-1" d="M93.72,159.19c17.63,0,25.81,3.13,38.62,15.88l68.42,68.32c2.1,2.09,2.52,2.93,2.73,4a5.22,5.22,0,0,1,0,2.93c-.42,1.25-.84,2.08-2.73,4l-46.59,46.8c-2.1,2.09-2.73,2.5-4,2.92a5.25,5.25,0,0,1-2.94,0c-1.26-.42-2.1-.83-4-2.92L10.81,168.8c-3.78-3.76-2.52-9.61,4-9.61Z"/></clipPath><clipPath id="clip-path-2"><path class="cls-1" d="M286.68,75.19c-17.63,0-25.82,3.14-38.62,15.9l-68.42,68.42c-2.1,2.09-2.52,2.93-2.73,4a3.53,3.53,0,0,0-.21,1.46,3.57,3.57,0,0,0,.21,1.47c.42,1.25.84,2.09,2.73,4l46.59,46.66c2.1,2.09,2.73,2.51,4,2.93a5.25,5.25,0,0,0,2.94,0c1.26-.42,2.1-.84,4-2.93L369.58,84.61c3.78-3.77,2.52-9.42-4-9.42Z"/></clipPath></defs><g class="cls-2"><rect class="cls-3" x="7.7" y="158.19" width="197" height="147"/></g><g class="cls-4"><rect class="cls-3" x="175.7" y="74.19" width="197" height="147"/></g></svg>