<svg version="1.1" id="Layer_1" xmlns="http://www.w3.org/2000/svg" xmlns:xlink="http://www.w3.org/1999/xlink" x="0px" y="0px"
	 viewBox="0 0 365 231" style="enable-background:new 0 0 365 231;" xml:space="preserve">
<style type="text/css">
	.st0{clip-path:url(#SVGID_00000111182921887135589740000002115865978313356702_);}
	.st1{fill:#48B862;}
	.st2{clip-path:url(#SVGID_00000157296006965664810890000007531359758105812365_);}
</style>
<g>
	<defs>
		<path id="SVGID_1_" d="M86,85c17.6,0,25.8,3.1,38.6,15.9l68.4,68.3c2.1,2.1,2.5,2.9,2.7,4c0.3,1,0.3,2,0,2.9
			c-0.4,1.2-0.8,2.1-2.7,4l-46.6,46.8c-2.1,2.1-2.7,2.5-4,2.9c-1,0.3-2,0.3-2.9,0c-1.3-0.4-2.1-0.8-4-2.9L3.1,94.6
			c-3.8-3.8-2.5-9.6,4-9.6H86z"/>
	</defs>
	<clipPath id="SVGID_00000178886069533564489740000016006305377112232849_">
		<use xlink:href="#SVGID_1_"  style="overflow:visible;"/>
	</clipPath>
	<g style="clip-path:url(#SVGID_00000178886069533564489740000016006305377112232849_);">
		<rect y="84" class="st1" width="197" height="147"/>
	</g>
</g>
<g>
	<defs>
		<path id="SVGID_00000103959427272200753180000002675250119110237826_" d="M279,1c-17.6,0-25.8,3.1-38.6,15.9l-68.4,68.4
			c-2.1,2.1-2.5,2.9-2.7,4c-0.2,0.5-0.2,1-0.2,1.5c0,0.5,0,1,0.2,1.5c0.4,1.2,0.8,2.1,2.7,4l46.6,46.7c2.1,2.1,2.7,2.5,4,2.9
			c1,0.3,2,0.3,2.9,0c1.3-0.4,2.1-0.8,4-2.9L361.9,10.4c3.8-3.8,2.5-9.4-4-9.4H279z"/>
	</defs>
	<clipPath id="SVGID_00000111162685133004225460000003703713703914877872_">
		<use xlink:href="#SVGID_00000103959427272200753180000002675250119110237826_"  style="overflow:visible;"/>
	</clipPath>
	<g style="clip-path:url(#SVGID_00000111162685133004225460000003703713703914877872_);">
		<rect x="168" class="st1" width="197" height="147"/>
	</g>
</g>
</svg>
