<svg id="Layer_1" data-name="Layer 1" xmlns="http://www.w3.org/2000/svg" viewBox="0 0 913.53 913.53"><defs><style>.cls-1{fill:#1b112b;}.cls-2{fill:#9722ff;}.cls-3{fill:#dc29dd;}.cls-4{fill:#27a2fd;}.cls-5{fill:#34f;}</style></defs><rect class="cls-1" width="913.53" height="913.53"/><path class="cls-2" d="M324.9,243.13a10.36,10.36,0,0,0,10.35,10.35h17.6v39.34h-17.6a10.35,10.35,0,0,0,0,20.7h17.6v30.17a9.17,9.17,0,0,1-9.17,9.17H313.51v-17.6a10.35,10.35,0,0,0-20.7,0v17.6H253.47v-17.6a10.35,10.35,0,0,0-20.7,0v17.6H202.6a9.18,9.18,0,0,1-9.17-9.17V202.61a9.17,9.17,0,0,1,9.17-9.17H343.68a9.16,9.16,0,0,1,9.17,9.17v30.16h-17.6A10.36,10.36,0,0,0,324.9,243.13Z"/><path class="cls-3" d="M505,243.13a10.35,10.35,0,0,0,10.35,10.35H533v39.34h-17.6a10.35,10.35,0,0,0,0,20.7H533v30.17a9.18,9.18,0,0,1-9.17,9.17H382.73a9.17,9.17,0,0,1-9.17-9.17V313.52h17.59a10.35,10.35,0,1,0,0-20.7H373.56V253.48h17.59a10.36,10.36,0,1,0,0-20.71H373.56V202.61a9.16,9.16,0,0,1,9.17-9.17H523.81a9.17,9.17,0,0,1,9.17,9.17v30.16h-17.6A10.35,10.35,0,0,0,505,243.13Z"/><path class="cls-4" d="M713.1,202.61V343.69a9.17,9.17,0,0,1-9.17,9.17H673.76v-17.6a10.35,10.35,0,0,0-20.7,0v17.6H613.72v-17.6a10.35,10.35,0,0,0-20.7,0v17.6H562.85a9.18,9.18,0,0,1-9.17-9.17V313.52h17.6a10.35,10.35,0,1,0,0-20.7h-17.6V253.48h17.6a10.36,10.36,0,0,0,0-20.71h-17.6V202.61a9.17,9.17,0,0,1,9.17-9.17H703.93A9.16,9.16,0,0,1,713.1,202.61Z"/><path class="cls-3" d="M352.85,382.73V523.81a9.16,9.16,0,0,1-9.17,9.17H313.51v-17.6a10.35,10.35,0,1,0-20.7,0V533H253.47v-17.6a10.35,10.35,0,0,0-20.7,0V533H202.6a9.17,9.17,0,0,1-9.17-9.17V382.73a9.18,9.18,0,0,1,9.17-9.17h30.17v17.6a10.35,10.35,0,0,0,20.7,0v-17.6h39.34v17.6a10.35,10.35,0,1,0,20.7,0v-17.6h30.17A9.17,9.17,0,0,1,352.85,382.73Z"/><path class="cls-4" d="M505,423.25a10.35,10.35,0,0,0,10.35,10.35H533v39.34h-17.6a10.35,10.35,0,0,0,0,20.7H533v30.17a9.17,9.17,0,0,1-9.17,9.17H493.64v-17.6a10.35,10.35,0,1,0-20.7,0V533H433.6v-17.6a10.36,10.36,0,0,0-20.71,0V533H382.73a9.16,9.16,0,0,1-9.17-9.17V382.73a9.17,9.17,0,0,1,9.17-9.17H523.81a9.18,9.18,0,0,1,9.17,9.17V412.9h-17.6A10.35,10.35,0,0,0,505,423.25Z"/><path class="cls-5" d="M713.1,382.73V523.81a9.16,9.16,0,0,1-9.17,9.17H562.85a9.17,9.17,0,0,1-9.17-9.17V493.64h17.6a10.35,10.35,0,1,0,0-20.7h-17.6V433.6h17.6a10.35,10.35,0,0,0,0-20.7h-17.6V382.73a9.18,9.18,0,0,1,9.17-9.17H593v17.6a10.35,10.35,0,0,0,20.7,0v-17.6h39.34v17.6a10.35,10.35,0,0,0,20.7,0v-17.6h30.17A9.17,9.17,0,0,1,713.1,382.73Z"/><path class="cls-2" d="M324.9,603.38a10.36,10.36,0,0,0,10.35,10.35h17.6v39.33h-17.6a10.36,10.36,0,0,0,0,20.71h17.6v30.17a9.17,9.17,0,0,1-9.17,9.17H202.6a9.18,9.18,0,0,1-9.17-9.17V562.86a9.17,9.17,0,0,1,9.17-9.17h30.17v17.59a10.35,10.35,0,1,0,20.7,0V553.69h39.34v17.59a10.35,10.35,0,1,0,20.7,0V553.69h30.17a9.16,9.16,0,0,1,9.17,9.17V593h-17.6A10.36,10.36,0,0,0,324.9,603.38Z"/><path class="cls-5" d="M533,562.86V703.94a9.18,9.18,0,0,1-9.17,9.17H382.73a9.17,9.17,0,0,1-9.17-9.17V673.77h17.59a10.36,10.36,0,1,0,0-20.71H373.56V613.73h17.59a10.36,10.36,0,1,0,0-20.71H373.56V562.86a9.16,9.16,0,0,1,9.17-9.17h30.16v17.59a10.36,10.36,0,1,0,20.71,0V553.69h39.34v17.59a10.35,10.35,0,1,0,20.7,0V553.69h30.17A9.17,9.17,0,0,1,533,562.86Z"/><rect class="cls-2" x="586.7" y="586.7" width="159.42" height="159.42" rx="9.17" transform="translate(-276.04 666.41) rotate(-45)"/></svg>