<svg version="1.1" id="Layer_1" xmlns="http://www.w3.org/2000/svg" xmlns:xlink="http://www.w3.org/1999/xlink" x="0px" y="0px"
	 viewBox="0 0 890 448" style="enable-background:new 0 0 890 448;" xml:space="preserve">
<style type="text/css">
	.st0{fill:#FF6B00;}
</style>
<g id="Final_20_pms_orange_1_">
	<g>
		<g>
			<path class="st0" d="M878.1,265.9c-1.2-0.5-2.5-0.9-3.7-0.9c-2.7-0.2-5,0.5-7.4,1.7c-2.2,1.1-3.3,2.9-4.7,5
				c-3.1,4.7-5.4,9.8-8.2,14.6c-3.9,6.8-9,12.8-14,18.8c-4.8,5.7-10.3,10.7-15.5,16c-1,1-2.6,1.7-3.8,1.1c-1.1-0.6-1.4-2.1-1.2-3.3
				c1.5-13.8,2.7-27.8,4.5-41.5c0.7-6.3,1.6-12.3,2.3-18.7c1-9,2.1-17.8,3.2-26.8l8.6-66.7c0.7-4.7,1.1-13.6-5-18.9
				c-2.6-2.3-5.8-3.9-8.6-4.2c-3.2-0.2-6.5,0.5-9.2,2.1c-8.2,5.9-10.9,18.4-13.3,27.8c-5.3,22-6.6,45.3-17.2,65.8
				c-2.1,4.1-4.5,8-7.4,11.6c-2,2.5-4.1,4.9-6.8,6.5c-2.7,1.7-5.9,2.6-9.1,2c-3.9-0.9-7-4.1-8.7-7.6c-1.6-3.7-2.1-7.7-2.2-11.8
				c-0.9-19.5,2.7-39.6,8.8-58c1.6-4.7,3.2-9.2,3.7-13.9c1.1-5.8,1.1-13.9-4.2-18.9c-4.7-4.7-12.3-6.5-18.3-4.7
				c-7.1,2.1-11.3,9-13.6,14.4c-7.3,16.8-9.2,34.7-11.6,52.7c-1.6,12-4.7,23.4-10.8,33.9c-3.2,5.8-7.4,11.3-13.6,18.4
				c-2.3,2.6-5.3,5.5-8.4,7.9c-4.4,3.2-8.1,4.4-12,3.9s-7.9-3.2-10.2-7.6c-2.1-3.7-2.9-7.9-3.4-11.6c-1.1-6.9-1.6-14.1-1.4-22.4
				c0.2-8.1,0-16,1.6-24.1c2.8-14.3,24.8-70.7,29.6-85.5c4.9-15,9.6-30.1,12.9-45.6c2.9-13.8,4.5-27.9,4.1-42
				c-0.4-10-2.6-20.9-10.6-26.8c-6.3-4.5-15-4.9-22.1-1.8c-7.1,2.9-12.8,9-16.6,15.6c-3.9,6.8-6.1,14.1-8.2,21.6
				c-4.2,15.5-7.3,31.3-9.8,47.2c-2.5,15.5-5,30.8-7.5,46.2c-2.1,13-7.5,58.9-9.6,68.6c-2.1,10-6.3,19.7-10.9,28.8
				c-4.9,9.7-9.5,19.5-15,28.9c-1.7,3.1-3.6,6.1-6.4,8.2s-6.6,3.2-9.8,1.7c-3.8-1.7-5.4-6.4-6.1-10.6c-2.8-15.9-0.4-32,2.6-47.6
				c3.1-15.7,16.1-87.6,19-104.2c3.6-19.3,8.8-38.3,10.4-58c1.1-14.1,3.3-32-7.3-43.3c-4.2-5-11.3-5.8-16.2-5
				c-6.3,1.4-11.3,6.5-14.1,10.8c-3.7,4.7-6.9,10.2-9.5,17.1c-4.2,10.4-6.8,22.4-9.5,33.3l-1.1,4.7c-3.1,13.9-5.3,28.1-6.9,42.4
				c-0.9,7.6-1.6,15.4-2.2,23c-0.2,3.7-0.6,7.5-0.9,11.3c-0.1,2.9,0.2,6-1.1,8.8c-0.5,1-1.1,1.8-1.8,2.5c-2.9,2.6-7.4,2.2-11.3,2.1
				c-20.5-0.6-38.3,10.9-49.5,27.5c-6.5,9.2-10.2,19.9-14.1,30.5c-0.5,1.8-1.4,3.7-2.1,5.5c-1.8,5.3-4.7,12-8.1,18.7
				c-2.8,5.3-6.5,10.4-11.6,16.8c-5,6.3-9.5,11.1-14.1,15c-6.3,5.3-12.7,8.4-18.7,9.5c-6.5,1.4-14.1-1.6-19.9-7.4
				c-4.7-5.2-7.1-12.9-7.6-19.7c-0.1-2.1-0.1-4.3,1.1-6c1.8-2.5,5.3-2.6,8.4-2.8c22.2-1.6,42.2-16.5,50.3-37.1
				c5-12.3,6.5-25.4,4.4-38.1c-1.1-6.5-3.4-12.7-6.9-17.6c-3.7-5.3-8.6-9.2-14.5-11.8c-10.8-5-24.1-4.7-37,0.2
				c-21,8.4-34.7,27-41.4,57l-0.7,3.2c-4.2,17.8-8.4,36.5-21.3,49.4c-4.7,4.4-9.5,6-13.4,5.3c-1.6-0.2-2.9-1.4-3.9-2.8
				c-3.4-5.8,0.2-19.4,5.5-36.5c1.8-5.8,3.4-11.3,3.7-13.4c0.2-6.9-1-13.2-3.9-18.1c-2.9-5-7.9-9.2-13.6-11.8
				c-5.3-2.3-11.3-2.1-17.1-2.1h-1.8c-1.6,0-3.7,0-5.5-0.5c-2.3-0.5-4.4-2.3-5.3-4.7c-0.7-3.2,0-6,0.5-8.4c0.2-0.7,0.5-1.8,0.7-2.6
				c1.6-5.5-1-11.8-6-15s-11.6-3.7-17.1-1.4c-5.5,2.6-10.2,6.8-13.4,12.7c-3.2,5.8-4.4,12-3.7,17.6c1.4,4.7,2.6,11.6,1.6,17.3
				c-2.1,10.2-8.1,18.7-14.1,27c-1.4,1.8-2.6,3.9-3.9,5.8c-8.4,12-16.8,22-25.7,30.2c-13.6,12.3-29.4,21-45.1,24.5
				c-27.3,6-55.1-2.2-69.8-26.8c-8.2-13.9-11.7-30.2-12.8-46.3c-2.3-31.3,3.2-63,15.6-91.8c11.9-27.8,29.7-55.5,62.7-59
				c12.8-1.4,27.5,3.1,33.3,14.6c4.2,8.5,2.7,18.6,0,27.5s-6.4,17.9-6.6,27.3c-0.1,9.5,4.5,19.8,13.5,22.5
				c8.7,2.7,18.2-2.9,23.2-10.6c5-7.6,6.8-16.8,9-25.7c5.2-20.9,13.3-41,24.2-59.6c5-8.6,10.9-17.9,9.2-27.7
				c-1.2-7-6.6-13.2-13.5-15.2c-6.9-2.1-14.7,0.1-19.7,5.3c-4.9,5.3-7.4,13.5-14.1,15.7c-6.3,2.1-12.7-2-18.6-5
				c-21.8-11.7-48.8-11.3-71.6-1.8c-23.2,9.2-42,26.9-55.8,47.3C24.9,97,11.6,132.7,8.8,168.1c-1,12.4-1.1,25.4,0,37.9
				c1.4,16.8,3.7,31.2,7.9,44.1c5,15.5,11.6,28.9,19.9,39.9c9.7,12.5,21.5,22,34.4,27.3c13.6,5.5,28.6,8.1,43.6,7.6
				c14.1-0.5,28.9-3.9,43-10.4c12.3-5.5,24.7-13.6,37.5-24.7c11.3-9.5,21.8-20.5,30.7-32.6c6-8.1,11.4-16.7,16.1-25.7
				c2.3-4.5,4.5-9.2,6.5-14c1.6-3.9,3.2-7.9,7.4-9.6c2.1-1.6,5.5-0.7,7.4,0.5c2.3,1.4,4.2,2.8,5,5c1.6,4.2,0.7,8.4-0.2,12v0.5
				c-1,3.7-2.1,7.4-3.4,11.1c-5,15.5-8.7,29.6-5.8,43.6c1.6,7.6,4.7,14.1,9.2,19.2c4.7,5.3,11.3,8.6,18.4,9.7c9,1.4,18.6-1,26.5-4.8
				c5.2-2.5,10.2-5.7,14.5-9.6c2.2-2.1,4.4-4.3,6.3-6.6c1.7-2.2,3.3-5.4,6.6-5.3c1.6,0.1,2.9,1.1,3.9,2.3c1,1.2,1.5,2.7,2.1,4.2
				c8.4,19,28.4,30.7,48.9,30.7h2.6c9.8,0,20.2-3.3,28.8-8c9.8-5.2,17.6-12.7,25.7-20.2c0.7-0.6,1.5-1.4,2.5-1.6
				c1.4-0.2,2.7,0.5,3.6,1.6s1.4,2.3,1.8,3.7c5,12.4,16.8,21.8,30.1,24c13.3,2.2,27.4-2.9,36.3-12.9c2-2.2,3.7-4.7,6-6.4
				c2.3-1.7,5.5-2.8,8.2-1.7c3.8,1.5,4.9,6.1,6.6,9.8c3.9,8.6,13,13.6,22.4,13.8c10.7,0,20.3-5.4,28-12.5
				c7.1-6.6,12.9-14.6,18.9-22.2c1.1-1.4,2.2-2.7,3.8-3.6c1.5-0.9,3.6-1,4.9,0c1.1,0.9,1.6,2.2,2.1,3.4c6,14.6,21.4,23.8,37,23.6
				c15.1-0.2,29.5-8.1,40.3-18.8c3.4-3.3,7-7.3,11.7-7.7c5-0.6,7.5,4.2,9.3,8c2.5,5.3,4.2,8.7,9.1,12.4c5.8,4.2,13.2,5.5,19.9,3.7
				c6.3-1.6,12.5-5.8,17.3-11.6c2.6-3.2,4.1-7.4,7-10.3c3.2-3.3,4.7,1,4.9,3.6c0.5,4.3,0.5,8.6,0.2,12.9c-0.5,8.6-1.8,17.1-2.9,25.6
				c-0.4,2.5-0.7,5-2.3,6.9c-2.2,2.5-6,2.8-9.3,2.3c-3.9-0.6-7.7-0.9-11.7-1.1l-5-0.5c-7.4-0.5-14.7-1.4-22.4-1.6h-6.8
				c-14.7,0-26.8,1.8-37.6,5.8c-17.6,6.9-31.2,20.8-36.7,37.2c-2.6,7.6-3.2,15.7-1.8,23.4c1.4,7.4,4.7,14.7,10.2,21.3
				c9.7,11.6,24.9,18.9,42,19.9c15,0.7,31.2-2.3,47.3-9.5c31-13.4,54.1-39.9,61.9-71.2c0-0.7,0.5-1.4,1-1.6
				c10.8-3.7,20.8-9,29.6-15.5c9-6.9,17.1-14.7,23.8-23.6c3.3-4.3,6.4-8.8,9.2-13.5c2.7-4.5,4.9-9.3,7.5-13.9
				c2.1-3.7,4.1-7.4,4.8-11.4c0.9-4.1,0.4-8.6-2-12C882.2,268.3,880.2,266.7,878.1,265.9 M378.1,206.4c0.6-2.7,1.5-5.2,2.2-7.6
				c2.2-6.5,5.3-12.9,9.5-18.4c1.5-1.8,2.9-3.7,5-5c2-1.4,4.4-2.1,6.8-1.7c3.9,0.7,6.6,4.7,7.4,8.6c1.1,6.5-1.5,14.4-4.2,20.3
				c-2.6,5.5-6.4,11.4-11.4,15.2c-2.1,1.6-4.2,3.2-6.5,4.2c-1,0.2-2.3,1-4.2,1h-0.5c-2.1,0-4.2-1-4.7-3.2
				C376.5,215.5,377,210.8,378.1,206.4 M535.6,199.6c-0.2,2.7-0.9,5.5-1.1,8.2c-0.2,3.6-0.4,7-0.5,10.6c-0.1,6,0,12,0.5,17.9
				c0.4,5.5,1.7,10.9-0.5,16.2c-2.6,7.1-6.5,13.4-11.8,17.6c-2.6,2.1-5.5,4.2-9,5.8c-2.6,1.4-5.8,2.1-9,2.1c-0.7,0-1.4-0.2-2.1-0.2
				c-4.4,0-7.9-3.4-9.7-6.5c-2.1-3.2-2.9-6.9-3.7-10c-2.8-13.4-1.8-27.5,2.6-40.9c2.9-8.1,7.5-16,14-21.8c5.7-5.2,13-8.6,20.6-8.7
				c2.7,0,5.5,0.5,7.4,2.3c1.5,1.6,2.2,3.8,2.1,6C535.7,198.7,535.7,199.2,535.6,199.6 M770.6,369.5c-0.5,1.7-2.1,3.8-2.8,5.2
				c-1.7,2.9-3.8,5.9-6,8.6c-3.4,3.9-7.4,7.6-11.6,11.1c-8.7,6.5-18.4,11.3-28.4,14.1c-6.3,1.6-12.3,2.6-17.8,2.6h-1.4
				c-7.9-0.2-14.4-2.6-18.9-6.5c-2.1-1.8-5-5-5.8-9.2c-0.5-3.4,0-7.1,1.8-11.1c2.6-6,7.6-11.1,13.9-14.1c11.8-5.8,24.9-6.3,37.2-5.8
				c5,0.2,9.7,0.5,14.7,0.7c3.9,0.2,7.9,0.5,11.8,0.9c2.1,0.1,4.2,0.2,6.3,0.5c1.6,0.1,3.3-0.2,4.9,0.2
				C770.6,366.9,771,368.1,770.6,369.5"/>
		</g>
	</g>
</g>
</svg>
