<svg id="svg" viewBox="0 0 22.6875 22.68790054321289" fill="none" xmlns="http://www.w3.org/2000/svg"><path d="M9.18262 0H11.3434V6.21211V6.4822L10.263 9.18312H9.18262V0Z" fill="#D8F85D"></path><path d="M1.79492 4.84998L3.32279 3.32211L7.71542 7.71473L7.9064 7.90572L9.05231 10.5795L8.28837 11.3434L1.79492 4.84998Z" fill="#D8F85D"></path><path d="M0 13.5041L0 11.3434H6.21211H6.4822L9.18312 12.4237V13.5041H0Z" fill="#D8F85D"></path><path d="M4.85059 20.8935L3.32272 19.3657L7.71534 14.973L7.90633 14.782L10.5801 13.6361L11.344 14.4001L4.85059 20.8935Z" fill="#D8F85D"></path><path d="M13.5049 22.6879H11.3441V16.4758V16.2057L12.4245 13.5047H13.5049L13.5049 22.6879Z" fill="#D8F85D"></path><path d="M20.8936 17.8379L19.3657 19.3658L14.9731 14.9731L14.7821 14.7822L13.6362 12.1084L14.4001 11.3444L20.8936 17.8379Z" fill="#D8F85D"></path><path d="M22.6875 9.18265V11.3434L16.4754 11.3434H16.2053L13.5044 10.263V9.18265L22.6875 9.18265Z" fill="#D8F85D"></path><path d="M17.8369 1.79434L19.3648 3.32221L14.9722 7.71484L14.7812 7.90582L12.1074 9.05173L11.3435 8.28779L17.8369 1.79434Z" fill="#D8F85D"></path></svg>