<svg xmlns="http://www.w3.org/2000/svg" viewBox="0 0 19 23">
	<path d="M15.62 0H9.078v22.655c6.209-2.697 8.379-6.193 8.929-7.282.103-.208.155-.437.153-.669V2.492A2.47 2.47 0 0017.417.73 2.562 2.562 0 0015.62 0z" fill="#B51E23"/>
	<path d="M2.538 0C1.136 0 0 1.116 0 2.492v12.212c-.002.232.05.46.154.669.55 1.079 2.747 4.601 8.923 7.282V0H2.538z" fill="#E21D3E"/>
	<path d="M10.687 9.763a2.502 2.502 0 00.841-2.816 2.574 2.574 0 00-2.435-1.702 2.574 2.574 0 00-2.435 1.702A2.502 2.502 0 007.5 9.763a1082.07 1082.07 0 00-.846 4.758c.8.135 1.61.204 2.423.205.824.016 1.647-.038 2.461-.162-.285-1.618-.549-3.204-.851-4.8z" fill="#fff"/>
</svg>