<svg xmlns="http://www.w3.org/2000/svg" viewBox="0 0 256 256"><path fill="#22437a" d="M3 3h250v250H3z"/><path fill="#fff" fill-rule="nonzero" d="M37.797 94.3c2.176 0 3.974.19 5.393.474l-1.04 10.124a19.866 19.866 0 0 0-4.826-.568c-4.352 0-7.853 1.42-10.503 4.258-2.744 2.839-4.068 6.529-4.068 11.07v26.683H11.872V95.247h8.515l1.42 8.989h.567c1.703-3.028 3.88-5.488 6.624-7.191 2.744-1.798 5.677-2.744 8.8-2.744zm49.216 37.47c0 5.014-1.798 8.8-5.488 11.543-3.596 2.65-8.8 3.974-15.612 3.974-6.813 0-12.3-1.04-16.37-3.122v-9.367c5.962 2.743 11.544 4.163 16.748 4.163 6.718 0 10.03-1.987 10.03-6.056 0-1.325-.379-2.365-1.136-3.217-.662-.851-1.892-1.798-3.595-2.744-1.703-.851-4.069-1.892-7.096-3.122-5.867-2.271-9.84-4.542-11.922-6.813-2.082-2.27-3.123-5.204-3.123-8.894 0-4.352 1.703-7.759 5.299-10.124 3.5-2.46 8.326-3.69 14.382-3.69 5.96 0 11.638 1.23 17.031 3.69l-3.5 8.137c-5.489-2.27-10.125-3.406-13.91-3.406-5.771 0-8.61 1.608-8.61 4.92 0 1.609.757 2.933 2.271 4.069 1.514 1.135 4.73 2.649 9.746 4.541 4.257 1.609 7.285 3.123 9.178 4.447 1.892 1.42 3.311 2.934 4.257 4.731.947 1.798 1.42 3.88 1.42 6.34zm3.957-36.523h11.827l10.408 28.953c1.514 4.163 2.649 8.043 3.122 11.638h.379c.283-1.703.756-3.69 1.513-6.15.757-2.46 4.637-13.909 11.733-34.44h11.733l-21.857 57.905c-3.974 10.598-10.597 15.896-19.87 15.896-2.365 0-4.73-.284-7.002-.757v-8.61c1.609.379 3.501.568 5.583.568 5.204 0 8.894-3.028 11.07-9.084l1.893-4.825-20.533-51.094zM194.4 146.34h-10.882v-31.412c0-3.974-.756-6.907-2.365-8.8-1.608-1.987-4.163-2.933-7.57-2.933-4.636 0-7.947 1.325-10.124 4.069-2.081 2.744-3.122 7.285-3.122 13.625v25.452h-10.881V95.247h8.516l1.513 6.718h.568c1.514-2.46 3.69-4.352 6.529-5.677 2.838-1.325 5.96-1.987 9.462-1.987 12.205 0 18.356 6.245 18.356 18.734v33.306zm35.743.947c-7.759 0-13.625-2.27-17.599-6.812-4.068-4.447-6.055-10.976-6.055-19.397 0-8.61 2.081-15.234 6.244-19.87 4.258-4.542 10.314-6.907 18.262-6.907 5.393 0 10.218 1.04 14.57 3.028l-3.31 8.705c-4.542-1.798-8.327-2.65-11.355-2.65-8.8 0-13.246 5.867-13.246 17.6 0 5.676 1.135 10.029 3.311 12.867 2.176 2.933 5.393 4.353 9.651 4.353 4.826 0 9.462-1.23 13.72-3.596v9.462a20.438 20.438 0 0 1-6.15 2.46c-2.271.473-4.92.757-8.043.757zm-153.167 87.9c0-2.27.568-3.974 1.703-5.204 1.23-1.135 2.933-1.797 5.11-1.797 2.27 0 3.974.662 5.109 1.892 1.23 1.23 1.798 2.933 1.798 5.11 0 2.176-.568 3.879-1.798 5.203-1.135 1.23-2.839 1.893-5.11 1.893-2.176 0-3.879-.663-5.109-1.893-1.135-1.23-1.703-3.027-1.703-5.204zm72.563 5.773h-10.881v-31.414c0-3.974-.757-6.907-2.366-8.8-1.608-1.987-4.163-2.933-7.57-2.933-4.635 0-7.947 1.325-10.123 4.069-2.082 2.744-3.123 7.285-3.123 13.625v25.452h-10.88v-51.094h8.515l1.514 6.718h.567c1.514-2.46 3.69-4.352 6.53-5.677 2.838-1.325 5.96-1.987 9.46-1.987 12.207 0 18.357 6.245 18.357 18.735v33.305zm37.447.945c-7.948 0-14.193-2.365-18.64-7.001-4.542-4.637-6.718-10.976-6.718-19.113 0-8.327 2.082-14.95 6.245-19.68 4.163-4.826 9.84-7.192 17.126-7.192 6.718 0 12.016 2.082 15.99 6.15 3.88 4.069 5.867 9.746 5.867 16.937v5.866h-34.063c.19 4.92 1.514 8.8 3.974 11.45 2.555 2.648 6.15 3.973 10.692 3.973 3.028 0 5.866-.284 8.42-.852 2.65-.567 5.394-1.513 8.422-2.838v8.8c-2.65 1.23-5.299 2.176-8.043 2.649-2.744.567-5.771.851-9.272.851zm-1.987-44.754c-3.501 0-6.245 1.135-8.327 3.312-2.081 2.176-3.311 5.393-3.69 9.556h23.182c-.095-4.258-1.041-7.475-3.028-9.556-1.987-2.177-4.731-3.312-8.137-3.312zm53.191 35.955c2.65 0 5.3-.379 7.948-1.23v8.137c-1.23.568-2.744.946-4.636 1.325a30.08 30.08 0 0 1-5.866.567c-10.314 0-15.423-5.488-15.423-16.274v-27.534h-7.002v-4.825l7.475-3.974 3.69-10.787h6.718v11.354h14.571v8.232h-14.57v27.345c0 2.65.661 4.541 1.986 5.771 1.325 1.23 3.028 1.893 5.11 1.893z"/></svg>