<svg xmlns="http://www.w3.org/2000/svg" version="1.0" viewBox="1581.59 -9014.7 17458.44 18202.83">
  <path fill="#2aaae0" d="M10785 9180c743-34 1516-173 2248-405 891-282 1731-712 2473-1267 184-138 265-203 485-387 133-113 634-608 765-757 445-508 776-977 1118-1585 42-74 76-144 76-155 0-33-187-182-445-356-498-336-1087-580-1636-677-275-49-321-53-634-58-336-6-462 2-701 43-572 97-1068 318-1561 696-307 235-498 359-772 497-447 226-934 372-1426 427-222 25-601 29-820 10-545-50-1052-192-1516-426-491-247-898-560-1298-998-380-416-717-963-944-1532-262-659-381-1254-413-2070-8-217 20-641 62-930 124-852 420-1632 877-2314 76-115 235-330 274-371 10-11 58-67 107-125 237-279 592-589 921-803 505-328 1080-546 1672-632 252-37 550-49 873-35 522 22 1122 183 1616 433 279 142 497 283 846 549 187 142 297 212 498 316 475 247 951 367 1530 389 357 13 851-53 1214-163 596-180 1084-438 1576-833 92-73 110-90 110-101 0-8-233-414-304-530-537-873-1246-1662-2056-2287-86-66-189-143-230-171s-124-86-185-127c-444-306-1065-634-1595-842-203-80-709-249-885-296-705-189-1310-279-2125-317-181-9-667-4-699 6-8 3-114 11-235 19-230 15-582 56-847 100-1263 210-2475 705-3489 1426-437 311-741 568-1115 943-418 419-782 865-1091 1338-385 588-645 1103-928 1839-51 132-138 399-192 589-30 107-61 215-69 240-64 212-189 813-225 1085-41 317-71 626-98 1025-13 190-14 680-2 905 25 455 80 983 136 1295 14 80 29 168 34 195 17 103 83 406 121 560 211 846 555 1695 977 2410 769 1304 1832 2363 3107 3093 979 562 2117 935 3246 1066 356 41 427 47 609 55 263 12 718 12 965 1zm8043-6982c15-19 91-414 122-638 70-508 91-829 90-1425 0-739-44-1217-171-1846-29-140-54-268-56-286-4-21-12-33-26-37-12-3-2282-6-5044-6-4007 0-5023 3-5030 13-8 13-17 4203-8 4225 3 9 1024 12 5058 12 4032 0 5057-3 5065-12z"/>
</svg>
