<svg xmlns="http://www.w3.org/2000/svg" viewBox="0 0 110 99"><path fill="#0063AA" d="M77.126 76.756 63.388 98.073c-.458.464-.916.927-1.832.927H49.19c-1.832 0-2.748-1.854-1.832-3.707l22.44-33.83c.458-.926.458-1.853 0-2.317L48.275 26.707c-.916-1.39 0-3.707 1.832-3.707h12.365c.916 0 1.374.463 1.832.927l12.364 20.39c.916 1.39 2.748 1.39 3.664 0l12.364-20.39c.458-.464.916-.927 1.832-.927h12.365c1.832 0 2.748 1.854 1.832 3.707L87.2 59.147c-.458.926-.458 1.853 0 2.316l22.44 33.83c.916 1.39 0 3.707-1.832 3.707H95.444c-.916 0-1.374-.463-1.832-.927L79.874 76.756c-.984-1.39-1.832-1.39-2.748 0ZM30.072 36.425h7.048c.94 0 1.88-.934 1.88-1.868v-9.34c0-.934-.94-1.868-1.88-1.868h-7.048c-.94 0-1.88-.934-1.88-1.868V1.868C28.193.934 27.254 0 26.314 0H14.566c-.94 0-1.88.934-1.88 1.868v19.146c0 .934-.939 1.868-1.879 1.868H1.88c-.94 0-1.88.934-1.88 2.335v9.34c0 .934.94 1.868 1.88 1.868h8.457c.94 0 1.88.933 1.88 1.867v42.029C12.217 92.462 20.205 99 31.012 99h6.108c.94 0 1.88-.934 1.88-1.868V86.858c0-.932-.938-1.867-1.88-1.867h-3.759c-3.759 0-5.638-3.27-5.638-7.472V38.292c0-.934.94-1.867 2.35-1.867Z"/></svg>
