<svg version="1.1" xmlns="http://www.w3.org/2000/svg" xmlns:xlink="http://www.w3.org/1999/xlink" xml:space="preserve" style="fill-rule:evenodd;clip-rule:evenodd;stroke-linejoin:round;stroke-miterlimit:2;" viewBox="0 0 44.77 24">
	<path d="M32.51,7.62L44.23,7.62C44.53,7.62 44.77,7.38 44.77,7.08L44.77,0.54C44.77,0.24 44.53,0 44.23,0L28.9,0C28.66,0 28.43,0.1 28.27,0.27L24,4.77L19.72,0.27C19.55,0.1 19.33,0 19.09,0L4.91,0C4.67,0 4.44,0.1 4.28,0.27L0.24,4.53C0.09,4.69 0,4.9 0,5.12L0,23.45C0,23.76 0.24,24 0.54,24L7.07,24C7.37,24 7.61,23.76 7.61,23.46L7.61,8.62C7.61,8.12 8.01,7.72 8.51,7.72L15.47,7.72C15.97,7.72 16.37,8.12 16.37,8.62L16.37,23.45C16.37,23.75 16.61,23.99 16.91,23.99L23.44,23.99C23.74,23.99 23.98,23.75 23.98,23.45L23.98,19.24L28.26,23.73C28.44,23.9 28.67,24 28.9,24L44.23,24C44.53,24 44.77,23.76 44.77,23.46L44.77,16.93C44.77,16.63 44.53,16.39 44.23,16.39L32.51,16.39C32.01,16.39 31.61,15.99 31.61,15.49L31.61,8.52C31.62,8.02 32.02,7.62 32.51,7.62Z" style="fill:white;fill-rule:nonzero;"/>
</svg>
