<svg version="1.1" xmlns="http://www.w3.org/2000/svg" xmlns:xlink="http://www.w3.org/1999/xlink" x="0px" y="0px" style="enable-background:new 0 0 44.78 24;" xml:space="preserve" viewBox="0 0 44.77 24">
	<style type="text/css">.st0{fill:url(#A);}</style>
	<linearGradient id="A" gradientUnits="userSpaceOnUse" x1="7.467" y1="-2.9214" x2="39.4232" y2="29.0348">
		<stop offset="0" style="stop-color:#C69E66"/>
		<stop offset="0.5" style="stop-color:#FFDFA6"/>
		<stop offset="1" style="stop-color:#C69E66"/>
	</linearGradient>
	<path class="st0" d="M32.51,7.62h11.72c0.3,0,0.54-0.24,0.54-0.54V0.54c0-0.3-0.24-0.54-0.54-0.54H28.9c-0.24,0-0.47,0.1-0.63,0.27L24,4.77l-4.28-4.5C19.55,0.1,19.33,0,19.09,0L4.91,0C4.67,0,4.44,0.1,4.28,0.27L0.24,4.53C0.09,4.69,0,4.9,0,5.12v18.33C0,23.76,0.24,24,0.54,24h6.53c0.3,0,0.54-0.24,0.54-0.54V8.62c0-0.5,0.4-0.9,0.9-0.9h6.96c0.5,0,0.9,0.4,0.9,0.9v14.83c0,0.3,0.24,0.54,0.54,0.54h6.53c0.3,0,0.54-0.24,0.54-0.54v-4.21l4.28,4.49C28.44,23.9,28.67,24,28.9,24h15.33c0.3,0,0.54-0.24,0.54-0.54v-6.53c0-0.3-0.24-0.54-0.54-0.54H32.51c-0.5,0-0.9-0.4-0.9-0.9V8.52C31.62,8.02,32.02,7.62,32.51,7.62z"/>
</svg>
