<svg xmlns="http://www.w3.org/2000/svg" viewBox="0 0 89.55 48.03">
	<style>.cls-1{fill:#101010;}</style>
	<path class="cls-1" d="M65,15.24H88.47a1.08,1.08,0,0,0,1.08-1.08V1.09A1.08,1.08,0,0,0,88.47,0H57.81a1.76,1.76,0,0,0-1.26.54L48,9.53l-8.56-9A1.73,1.73,0,0,0,38.18,0H9.81A1.76,1.76,0,0,0,8.55.54L.48,9.05A1.72,1.72,0,0,0,0,10.25V46.91A1.09,1.09,0,0,0,1.09,48H14.16a1.08,1.08,0,0,0,1.08-1.09V17.25a1.81,1.81,0,0,1,1.8-1.8H31a1.81,1.81,0,0,1,1.8,1.8V46.91A1.08,1.08,0,0,0,33.84,48H46.91A1.09,1.09,0,0,0,48,46.91V38.49l8.55,9a1.72,1.72,0,0,0,1.26.54H88.47a1.08,1.08,0,0,0,1.08-1.09V33.84a1.08,1.08,0,0,0-1.08-1.08H65a1.81,1.81,0,0,1-1.8-1.8V17A1.81,1.81,0,0,1,65,15.24Z"/>
</svg>
