<svg xmlns="http://www.w3.org/2000/svg" xml:space="preserve" fill-rule="evenodd" stroke-linejoin="round" stroke-miterlimit="2" clip-rule="evenodd" viewBox="0 0 44.77 24">
  <path fill="#fff" fill-rule="nonzero" d="M32.51 7.62h11.72c.3 0 .54-.24.54-.54V.54c0-.3-.24-.54-.54-.54H28.9c-.24 0-.47.1-.63.27L24 4.77 19.72.27a.886.886 0 0 0-.63-.27H4.91c-.24 0-.47.1-.63.27L.24 4.53c-.15.16-.24.37-.24.59v18.33c0 .31.24.55.54.55h6.53c.3 0 .54-.24.54-.54V8.62c0-.5.4-.9.9-.9h6.96c.5 0 .9.4.9.9v14.83c0 .3.24.54.54.54h6.53c.3 0 .54-.24.54-.54v-4.21l4.28 4.49c.18.17.41.27.64.27h15.33c.3 0 .54-.24.54-.54v-6.53c0-.3-.24-.54-.54-.54H32.51c-.5 0-.9-.4-.9-.9V8.52c.01-.5.41-.9.9-.9Z"/>
</svg>
