<svg xmlns="http://www.w3.org/2000/svg" viewBox="0 0 89.55 48.03">
  <path fill="#101010" d="M65 15.24h23.47a1.08 1.08 0 0 0 1.08-1.08V1.09A1.08 1.08 0 0 0 88.47 0H57.81a1.76 1.76 0 0 0-1.26.54L48 9.53l-8.56-9A1.73 1.73 0 0 0 38.18 0H9.81a1.76 1.76 0 0 0-1.26.54L.48 9.05a1.72 1.72 0 0 0-.48 1.2v36.66A1.09 1.09 0 0 0 1.09 48h13.07a1.08 1.08 0 0 0 1.08-1.09V17.25a1.81 1.81 0 0 1 1.8-1.8H31a1.81 1.81 0 0 1 1.8 1.8v29.66A1.08 1.08 0 0 0 33.84 48h13.07A1.09 1.09 0 0 0 48 46.91v-8.42l8.55 9a1.72 1.72 0 0 0 1.26.54h30.66a1.08 1.08 0 0 0 1.08-1.09v-13.1a1.08 1.08 0 0 0-1.08-1.08H65a1.81 1.81 0 0 1-1.8-1.8V17a1.81 1.81 0 0 1 1.8-1.76Z"/>
</svg>
