<svg version="1.1" id="Layer_1" xmlns="http://www.w3.org/2000/svg" xmlns:xlink="http://www.w3.org/1999/xlink" x="0px" y="0px"
	 viewBox="0 0 612 792" style="enable-background:new 0 0 612 792;" xml:space="preserve">
<style type="text/css">
	.st0{fill:#1A1E5E;}
	.st1{fill:#1A1D5D;}
	.st2{fill:#212564;}
	.st3{fill:#1D2161;}
	.st4{fill:#222564;}
	.st5{fill:#212463;}
</style>
<path class="st0" d="M156.58,251.83c0-40.49,0-80.97,0-121.46c0-6.72,0.99-7.46,7.6-5.77c16.96,4.35,29.08,20.02,29.09,37.87
	c0.04,66.29,0.11,132.58,0.01,198.86c-0.05,36.7,13.24,66.99,43.3,88.66c59.75,43.07,144.59,10.35,160.13-61.46
	c12.59-58.18-26.15-115.16-85.18-124.14c-32.92-5.01-61.8,4.77-86.23,27.45c-1.96,1.82-3.76,3.79-6.46,4.51
	c-6.37,1.69-11.72-2.99-11.74-10.46c-0.05-25.99-0.02-51.98-0.02-77.98c0-2.83,0.09-5.67-0.02-8.5c-0.2-4.83,0.95-8.95,5.64-11.29
	c4.67-2.34,8.57-0.72,12.42,2.22c14.63,11.19,30.69,19.79,47.88,26.37c14.46,5.53,29.74,6.61,44.8,9.17
	c53.97,9.19,91.75,39.7,109.72,91.1c19.44,55.61,7.3,106.11-34.67,147.59c-31.94,31.56-71.58,44.02-116.2,37.58
	c-59.07-8.53-105.39-53.07-117.28-111.58c-1.96-9.65-2.78-19.42-2.77-29.27c0.02-36.49,0.01-72.98,0.01-109.47
	C156.59,251.83,156.59,251.83,156.58,251.83z"/>
<path class="st1" d="M207.52,366.45c-0.33-48.79,39.63-88.96,88.64-89.11c48.44-0.15,88.56,39.59,88.76,87.93
	c0.21,49.55-38.77,89.36-87.85,89.73C247.66,455.36,207.85,416,207.52,366.45z"/>
<path class="st2" d="M167.22,565.75c7.77,2.77,14.21,6.53,17.81,13.97c8.43,17.38-0.11,36.96-18.58,42.28
	c-4.98,1.44-10.08,2.09-15.27,2.08c-14.99-0.03-29.98-0.1-44.96,0.07c-3.34,0.04-4.56-0.67-4.55-4.32
	c0.14-34.47,0.12-68.94,0.01-103.41c-0.01-3.27,0.91-4.28,4.2-4.25c15.65,0.15,31.31-0.12,46.96,0.14
	c19.11,0.32,31.24,11.97,30.72,29.27c-0.28,9.26-4.41,16.54-12.22,21.65C170.11,564.02,168.86,564.75,167.22,565.75z M136.43,571.08
	c-7.62,0-13.95,0.09-20.28-0.04c-2.6-0.06-3.87,0.38-3.82,3.48c0.17,12.31,0.09,24.62,0.03,36.93c-0.01,2.38,0.49,3.58,3.29,3.54
	c12.49-0.15,24.99,0.25,37.46-0.23c8.11-0.31,15.92-2.53,20.87-9.84c8.88-13.14,1.57-29.67-14.44-32.97
	C151.45,570.28,143.27,571.46,136.43,571.08z M134.17,521.97c0-0.12,0-0.23,0-0.35c-6.16,0-12.31,0.07-18.47-0.04
	c-2.2-0.04-3.4,0.42-3.38,2.96c0.08,11.64,0.06,23.27,0.03,34.91c-0.01,1.66,0.56,2.46,2.28,2.42c13.46-0.27,26.99,0.99,40.38-0.61
	c11.99-1.43,18.2-9.16,17.86-20.63c-0.32-10.86-6.72-17.52-18.76-18.56C147.51,521.5,140.82,521.97,134.17,521.97z"/>
<path class="st3" d="M308.56,568.36c0-17.32,0.08-34.63-0.08-51.95c-0.03-3.28,0.87-4.24,4.17-4.22
	c23.14,0.13,46.29,0.16,69.44-0.02c3.84-0.03,4.68,1.15,4.7,4.8c0.02,3.86-0.94,5.06-4.97,5.01c-19.31-0.22-38.63,0.02-57.95-0.2
	c-4.03-0.04-5.01,1.13-4.9,5.04c0.29,9.98,0.3,19.97-0.03,29.94c-0.14,4.18,1.38,4.93,5.13,4.9c18.14-0.16,36.29,0.09,54.43-0.17
	c4.06-0.06,4.58,1.38,4.52,4.84c-0.06,3.32-0.37,4.97-4.51,4.92c-18.31-0.26-36.63-0.05-54.95-0.17c-3.32-0.02-4.69,0.68-4.61,4.38
	c0.23,11.64,0.24,23.3-0.01,34.94c-0.09,3.94,1.42,4.58,4.93,4.56c20.31-0.15,40.63,0.02,60.94-0.17c3.69-0.03,4.8,0.83,4.76,4.65
	c-0.04,3.7-0.96,4.74-4.73,4.71c-23.98-0.18-47.96-0.16-71.93-0.02c-3.42,0.02-4.49-0.73-4.44-4.33
	C308.67,602.67,308.56,585.52,308.56,568.36z"/>
<path class="st4" d="M291.76,512.92c-7.74,7.36-15.02,14.32-22.34,21.23c-8.23,7.76-16.42,15.57-24.82,23.14
	c-2.6,2.35-2.49,3.68-0.16,6.24c17.4,19.04,34.62,38.26,51.89,57.42c0.65,0.72,1.27,1.45,2.39,2.74
	c-7.57,0.49-13.75,1.55-19.43-5.35c-13.53-16.43-28.17-31.95-42.19-47.98c-2.24-2.56-3.78-3.44-5.95-0.32
	c-0.09,0.13-0.26,0.21-0.38,0.32c-5.1,4.99-12.56,8.7-14.86,15.1c-2.29,6.36-0.66,14.13-0.71,21.28c-0.03,4.66-0.04,9.32,0.05,13.98
	c0.11,5.55-4.06,2.84-6.45,3.29c-2.41,0.45-4.33,0.34-4.32-3.37c0.14-34.81,0.17-69.63-0.02-104.44c-0.03-4.72,2.67-3.94,5.42-3.96
	c2.83-0.02,5.54-0.62,5.46,4.04c-0.27,15.31-0.12,30.63-0.13,45.94c0,2.81,0,5.61,0,9.18c5.12-3.44,8.69-7.52,12.58-11.19
	c14.15-13.38,28.55-26.52,42.18-40.42C276.05,513.62,282.23,510.64,291.76,512.92z"/>
<path class="st5" d="M395.27,623.83c8.72-12.24,16.98-23.86,25.27-35.46c4.35-6.09,8.63-12.24,13.21-18.16
	c2.25-2.91,2.39-4.96,0.09-8.11c-11.3-15.44-22.29-31.12-33.39-46.71c-0.47-0.67-0.92-1.36-1.4-2.07
	c7.14-2.79,11.91-1.48,16.01,4.34c8.32,11.84,16.62,23.69,24.95,35.52c0.85,1.21,1.89,2.29,3.15,3.8
	c7.63-10.81,15.08-21.36,22.54-31.91c1.34-1.9,3.05-3.65,3.98-5.73c3.51-7.96,9.91-8.01,17.74-6.54c-5.32,7.53-10.4,14.79-15.55,22
	c-6.67,9.33-13.26,18.72-20.17,27.88c-2.01,2.67-1.78,4.3,0.1,6.88c12.15,16.66,24.1,33.46,36.11,50.23
	c0.84,1.17,1.61,2.39,2.88,4.3c-4.22,0-7.66-0.09-11.09,0.03c-2.57,0.09-3.27-1.93-4.38-3.5c-10.34-14.69-20.66-29.39-30.99-44.08
	c-0.36-0.51-0.81-0.96-1.49-1.77c-8.66,12.32-17.16,24.4-25.66,36.49c-0.96,1.36-1.88,2.75-2.84,4.11
	C407.84,624.57,407.84,624.57,395.27,623.83z"/>
</svg>
