<svg xmlns="http://www.w3.org/2000/svg" fill="none" viewBox="0.3 0.13 42.56 42.56">
  <defs/>
  <defs>
    <linearGradient id="a" x1=".079" x2=".869" y1="1.078" y2="-.135">
      <stop stop-color="#382BC6"/>
      <stop offset="1" stop-color="#FF3CAC"/>
    </linearGradient>
  </defs>
  <path fill="url(#a)" d="M111.143 23.238zM32.216 15.69a1.065 1.065 0 100 2.131 1.065 1.065 0 000-2.13zM21.573.13a21.278 21.278 0 10.003 42.558A21.278 21.278 0 0021.573.13zm9.678 30.18a13.29 13.29 0 01-9.797 4.371h-.025a13.293 13.293 0 01-9.877-4.417 13.152 13.152 0 01-3.317-10.33A13.32 13.32 0 0119.871 8.226c.515-.06 1.034-.09 1.553-.09a13.13 13.13 0 018.082 2.762.625.625 0 01.195.745.631.631 0 01-.16.224l-1.409 1.262a.808.808 0 01-.538.205.829.829 0 01-.475-.15 9.923 9.923 0 00-9.78-.91 10.037 10.037 0 00-3.379 2.476 9.921 9.921 0 00-2.477 7.814 10.047 10.047 0 008.804 8.795c.38.041.763.063 1.146.063a9.93 9.93 0 007.1-2.975.83.83 0 01.588-.247.81.81 0 01.447.134l1.564 1.026a.64.64 0 01.28.448.63.63 0 01-.16.503v-.002zm.965-10.342a3.212 3.212 0 110-6.425 3.212 3.212 0 010 6.425z"/>
</svg>
