<svg viewBox="0 0 377 301" fill="none" xmlns="http://www.w3.org/2000/svg">
<path d="M335.11 297.74H376.15V117.92L335.11 137.11V297.74Z" fill="white"/>
<path d="M210.06 0.0499954V50.9L317.39 97.81L210.06 144.72V195.57L258.69 172.83C259.29 176.62 259.62 180.51 259.62 184.48C259.62 225.59 226.84 259.05 186.53 259.05C146.22 259.05 113.44 225.59 113.44 184.48C113.44 179.93 113.86 175.49 114.65 171.18L166.24 195.63V144.74L61.22 97.81L166.24 50.88V0L0 78.79V116.84L76.79 153.24C73.96 163.17 72.37 173.62 72.37 184.48C72.37 248.68 123.57 300.92 186.53 300.92C249.46 300.92 300.66 248.69 300.66 184.48C300.66 174.27 299.26 164.43 296.74 155.04L376.13 117.92L376.15 117.91V77.72L210.06 0.0499954Z" fill="#0CC9AB"/>
</svg>
