<svg clip-rule="evenodd" fill-rule="evenodd" stroke-linejoin="round" stroke-miterlimit="2" version="1.1" viewBox=".0036292 0 499.97 500" xml:space="preserve" xmlns="http://www.w3.org/2000/svg" xmlns:serif="http://www.serif.com/">
    <g transform="matrix(19.252 0 0 19.252 -.015623 0)">
        <path d="m17.289 8.945c-5e-3 -1.372-0.417-2.587-1.234-3.644-0.817-1.056-1.84-1.952-3.07-2.687 1.096-0.654 2.063-1.162 2.903-1.523 1.259-0.543 3.26-1.091 3.962-1.091 1.477 0 2.447 0.282 3.13 0.606 0.682 0.324 1.551 0.991 2.065 1.863s0.75 1.459 0.849 2.545c0.049 0.526 0.074 2.075 0.076 4.647v1.012c-1e-3 0.707-3e-3 1.478-7e-3 2.312 4e-3 0.835 6e-3 1.606 7e-3 2.313v1.012c-2e-3 2.572-0.027 4.121-0.076 4.647-0.099 1.086-0.335 1.673-0.849 2.545s-1.383 1.539-2.065 1.863c-0.683 0.324-1.653 0.606-3.13 0.606-0.702 0-2.703-0.548-3.962-1.091-0.84-0.362-1.807-0.869-2.903-1.524 1.23-0.734 2.253-1.63 3.07-2.687 0.817-1.056 1.229-2.271 1.234-3.643v-8.081z" fill="#005aa0"/>
        <path d="m9.113 0.738c-1.097-0.385-2.102-0.631-3.014-0.738h13.77c-0.913 0.107-1.918 0.353-3.015 0.738-1.097 0.384-2.387 1.01-3.87 1.877-1.483-0.867-2.774-1.493-3.871-1.877z" fill="#36e0f5" serif:id="Combined-Shape"/>
        <path d="m8.681 17.026c6e-3 1.372 0.417 2.587 1.234 3.643 0.817 1.057 1.841 1.953 3.071 2.687-1.096 0.655-2.064 1.162-2.903 1.524-1.26 0.543-3.26 1.091-3.962 1.091-1.477 0-2.448-0.282-3.13-0.606-0.683-0.324-1.552-0.991-2.066-1.863s-0.75-1.459-0.849-2.545c-0.046-0.504-0.071-1.948-0.075-4.331v-1.687c1e-3 -0.607 3e-3 -1.258 6e-3 -1.954-3e-3 -0.695-5e-3 -1.346-6e-3 -1.953v-1.687c4e-3 -2.383 0.029-3.827 0.075-4.331 0.099-1.086 0.335-1.673 0.849-2.545s1.383-1.539 2.066-1.863c0.682-0.324 1.653-0.606 3.13-0.606 0.702 0 2.702 0.548 3.962 1.091 0.839 0.361 1.807 0.869 2.903 1.523-1.23 0.735-2.254 1.631-3.071 2.687-0.817 1.057-1.228 2.272-1.234 3.644v8.081z" fill="#00c2ff" serif:id="Combined-Shape"/>
        <path d="m6.099 25.971c0.912-0.107 1.917-0.353 3.014-0.738 1.097-0.384 2.388-1.01 3.871-1.877 1.483 0.867 2.773 1.493 3.87 1.877 1.097 0.385 2.102 0.631 3.015 0.738h-13.77z" fill="#0086b9" serif:id="Combined-Shape"/>
    </g>
</svg>
