<svg viewBox="0 0 1840 1963"><path d="M1103 123v123h123v367h-123v368H981v123H736v122H0v369h122v123h123v123h245v122h737v-122h245v-123h123v-123h123v-245h122V490h-122V368h-123V245h-123V0h-369z" style="fill:#050606"/><path d="M1594 858v368h-123v123h-122v123h-123v122h-123v123H491v123h735v-123h245v-123h123v-245h123V490h-123z" style="fill:#dfb924"/><path d="M1226 184v62h124V122h-124z" style="fill:#4d4218"/><path d="M1349 490.5V613h-122v369h-123v123H982v122H737v123H123v122h858v-123h245v-123h123v-122h122V368h-122z" style="fill:#f9ee3f"/><path d="M1471 736v368h-122v122h-123v123H981v123H123v122h123v123h857v-123h123v-122h123v-123h122v-123h123V368h-123z" style="fill:#f8ce29"/></svg>
