<svg xmlns="http://www.w3.org/2000/svg" width="180" height="180"><path d="M59 28v33h102V28H59z" fill="#00a7c3"/><path d="M19 74v32h33V74H19m40 0v32h73V74H59z" fill="#5fcbdf"/><path d="M132 74v32l.722-.778.028-.528.194-.805.028-.917L133 101V79l-.028-1.972-.028-.917-.194-.805-.028-.528L132 74M19 106l.778.722.528.028.805.194.917.028L24 107h28l-.778-.722-.528-.028-.805-.194-.917-.028L47 106H19m40 0l.778.722.528.028.805.194.917.028L63 107h58l-.778-.722-.528-.028-.805-.194-.917-.028L117 106H59m63 0l1 1-1-1m2 0l1 1-1-1m2 0l1 1-1-1m2 0l1 1-1-1m2 0l1 1-1-1m-71 13v33h33v-33H59z" fill="#adecf4"/></svg>
