<svg xmlns="http://www.w3.org/2000/svg" viewBox="-70 0 693 693">

  <!-- <defs id="defs6" /> -->
  <g transform="matrix(1.3333333,0,0,-1.3333333,0,693.33333)" id="g10">
    <g transform="scale(0.1)" id="g12">
      <!-- <path id="path14" style="fill:#293c82;fill-opacity:1;fill-rule:nonzero;stroke:none"
        d="m 14658.9,2739.78 c 0.7,0.63 1.4,1.22 2.1,1.85" /> -->
      <!-- <path id="path16" style="fill:#293c82;fill-opacity:1;fill-rule:nonzero;stroke:none"
        d="m 10114.3,3919.93 -112.3,0.17 c 0,0 -0.1,0 -0.2,0 -39.95,0 -77.5,-15.55 -105.77,-43.77 -28.34,-28.3 -43.94,-65.92 -43.94,-105.96 V 2375.61 c -4.17,-410.43 -327.07,-708.33 -767.75,-708.33 h -2.12 c -449.04,0 -765.51,307.78 -769.6,748.22 v 1354.69 c 0,40.08 -15.62,77.73 -44,106.02 -28.28,28.19 -65.8,43.7 -105.71,43.7 -0.15,0 -0.3,0 -0.45,0 l -112.75,-0.33 c -82.32,-0.24 -149.29,-67.41 -149.29,-149.72 V 2396.47 c 0,-346.43 117.28,-637.53 339.21,-841.83 197.49,-181.04 475.48,-286.66 783.7,-297.45 l 92.09,0.01 c 314.62,5.38 599.31,108.89 801.59,291.49 226.89,204.64 346.79,498.16 346.79,848.84 V 3770.2 c 0,82.44 -67.1,149.61 -149.5,149.73" /> -->
      <!-- <path id="path18" style="fill:#293c82;fill-opacity:1;fill-rule:nonzero;stroke:none"
        d="m 7214.95,1695.1 c -0.01,0 -0.04,0 -0.06,0 l -557.63,-0.23 c -445.85,1.32 -760.8,308.89 -765.9,747.69 v 1327.46 c 0,82.56 -67.17,149.72 -149.72,149.72 h -112.22 c -82.55,0 -149.72,-67.16 -149.72,-149.72 V 2423.81 c 0,-350.68 119.9,-644.2 346.74,-848.86 202.27,-182.58 486.95,-286.1 802.04,-291.49 h 586.47 c 82.55,0 149.72,67.17 149.72,149.73 v 112.18 c 0,40 -15.58,77.61 -43.87,105.89 -28.28,28.27 -65.86,43.84 -105.85,43.84" /> -->
      <g transform="scale(1.01963)" id="g20">
        <!-- <path id="path22" style="fill:#293c82;fill-opacity:1;fill-rule:nonzero;stroke:none"
          d="m 15883.3,2550.06 v -6.99 c 0,-530.12 -385.6,-929.88 -897.3,-929.88 -243,-2.7 -479.7,97.35 -647.5,273.57 -168.2,180.58 -259.3,415.94 -256.5,663.04 v 6.99 c 0,530.12 385.7,929.87 897,929.87 h 0.2 c 2.7,0.02 5.2,0.04 7.8,0.04 240.5,0 473,-99.54 638.7,-273.64 168.7,-180.42 260.1,-415.78 257.6,-663 z m 54.8,926.26 c -243.4,253.5 -582,393.11 -953,393.11 -358.4,4.64 -707.1,-139.57 -957.3,-396.55 -238,-250.02 -367.7,-577.82 -365,-922.82 v -6.77 c -3,-343.82 125.9,-670.42 362.8,-919.76 243.4,-253.46 581.9,-393.05 953.2,-393.1 5.1,-0.06 10.1,-0.1 15.2,-0.1 352.1,0 693.8,144.07 939.8,396.87 238.4,249.87 368.5,577.69 366.1,922.86 v 6.76 c 3.1,343.54 -125.2,670.05 -361.8,919.5" /> -->
      </g>
      <!-- <path id="path24" style="fill:#293c82;fill-opacity:1;fill-rule:nonzero;stroke:none"
        d="m 12991.9,3648.07 c -197.5,181.03 -475.5,286.66 -783.8,297.44 h -92 c -314.7,-5.39 -599.4,-108.9 -801.6,-291.49 -226.9,-204.64 -346.8,-498.17 -346.8,-848.84 V 1432.5 c 0,-82.43 67.1,-149.6 149.5,-149.72 l 112.2,-0.17 c 0.1,0 0.2,0 0.3,0 39.9,0 77.5,15.54 105.8,43.77 28.3,28.3 43.9,65.91 43.9,105.95 v 1394.76 c 4.2,410.44 327,708.34 767.7,708.34 h 2.2 c 449,0 765.5,-307.78 769.6,-748.21 v -1354.7 c 0,-40.07 15.6,-77.74 44,-106.03 28.3,-28.3 66.5,-43.68 106.1,-43.7 l 112.8,0.34 c 82.3,0.25 149.2,67.4 149.2,149.72 v 1373.38 c 0,346.44 -117.2,637.53 -339.1,841.84" /> -->
      <path id="path26" style="fill:#9fc7ec;fill-opacity:1;fill-rule:nonzero;stroke:none"
        d="m 1979.29,559.309 c -784.23,0 -1419.974,635.751 -1419.974,1419.981 0,784.23 635.744,1419.98 1419.974,1419.98 784.24,0 1419.98,-635.75 1419.98,-1419.98 0,-784.23 -635.74,-1419.981 -1419.98,-1419.981 z m 0,3399.281 C 886.16,3958.59 0,3072.42 0,1979.29 0,886.16 886.16,0 1979.29,0 c 1093.14,0 1979.29,886.16 1979.29,1979.29 0,1093.13 -886.15,1979.3 -1979.29,1979.3" />
      <path id="path28" style="fill:#709cd8;fill-opacity:1;fill-rule:nonzero;stroke:none"
        d="m 1979.29,978.102 c -784.23,0 -1419.974,635.748 -1419.974,1419.978 0,784.24 635.744,1419.98 1419.974,1419.98 784.24,0 1419.98,-635.74 1419.98,-1419.98 0,-784.23 -635.74,-1419.978 -1419.98,-1419.978 z m 0,3399.278 C 886.16,4377.38 0,3491.22 0,2398.08 0,1304.95 886.16,418.801 1979.29,418.801 c 1093.14,0 1979.29,886.149 1979.29,1979.279 0,1093.14 -886.15,1979.3 -1979.29,1979.3" />
      <path id="path30" style="fill:#4168bb;fill-opacity:1;fill-rule:nonzero;stroke:none"
        d="m 1979.29,1396.9 c -784.23,0 -1419.974,635.74 -1419.974,1419.98 0,784.23 635.744,1419.98 1419.974,1419.98 784.24,0 1419.98,-635.75 1419.98,-1419.98 0,-784.24 -635.74,-1419.98 -1419.98,-1419.98 z m 0,3399.27 C 886.16,4796.17 0,3910.01 0,2816.88 0,1723.75 886.16,837.59 1979.29,837.59 c 1093.14,0 1979.29,886.16 1979.29,1979.29 0,1093.13 -886.15,1979.29 -1979.29,1979.29" />
      <path id="path32" style="fill:#293c82;fill-opacity:1;fill-rule:nonzero;stroke:none"
        d="m 1979.29,1813.57 c -784.23,0 -1419.974,633.35 -1419.974,1414.62 0,781.27 635.744,1414.61 1419.974,1414.61 784.24,0 1419.98,-633.34 1419.98,-1414.61 0,-781.27 -635.74,-1414.62 -1419.98,-1414.62 z m 0,3386.43 C 886.16,5200 0,4317.19 0,3228.19 c 0,-1089 886.16,-1971.82 1979.29,-1971.82 1093.14,0 1979.29,882.82 1979.29,1971.82 0,1089 -886.15,1971.81 -1979.29,1971.81" />
    </g>
  </g>
</svg>