<svg viewBox="0 0 60 60" xmlns="http://www.w3.org/2000/svg"><g fill="none"><path fill="#E85E13" d="M0 0h59.994v59.994H0z"></path><path fill="#FFF" d="M18.348 33.24c0 4.806-2.808 7.182-6.804 7.182-3.126 0-5.154-1.446-6.486-3.27l2.346-2.4c1.188 1.506 2.37 2.376 4.08 2.376 1.908 0 3.216-1.272 3.216-3.966V19.866h3.648V33.24zm6.456 6.888H21.3V24.84h3.504v15.288zm-1.77-17.016c-1.26 0-2.28-1.02-2.286-2.274 0-1.26 1.02-2.28 2.274-2.286a2.287 2.287 0 012.286 2.274v.006a2.27 2.27 0 01-2.274 2.28zM38.838 35.61c0 3.21-2.49 4.806-5.676 4.806-2.172 0-4.572-.78-6.486-2.286l1.566-2.37c1.65 1.242 3.444 1.884 5.01 1.884 1.506 0 2.37-.636 2.37-1.65v-.06c0-1.188-1.62-1.59-3.414-2.142-2.256-.636-4.776-1.56-4.776-4.488v-.06c0-2.892 2.406-4.662 5.442-4.662 1.908 0 3.996.666 5.616 1.74l-1.392 2.49c-1.476-.894-3.042-1.446-4.314-1.446-1.362 0-2.142.636-2.142 1.536v.06c0 1.098 1.65 1.56 3.444 2.142 2.226.696 4.746 1.71 4.746 4.458l.006.048zm9.468 4.866c-4.548 0-7.902-3.558-7.902-7.932 0-4.374 3.36-8.016 7.932-8.016 2.898 0 4.692 1.074 6.108 2.634l-2.172 2.346C51.204 28.38 50.07 27.6 48.306 27.6c-2.55 0-4.398 2.202-4.398 4.89 0 2.748 1.884 4.95 4.572 4.95 1.65 0 2.868-.78 3.966-1.908l2.112 2.088c-1.506 1.668-3.27 2.856-6.252 2.856z"></path></g></svg>