<svg xmlns="http://www.w3.org/2000/svg" viewBox="0 0 1008.101 1008.101"><defs><style>.cls-1{fill:#585048;}.cls-2{fill:#fff;}.cls-3{fill:#faa41a;}</style></defs><g id="secondary"><path class="cls-1" d="M788.148,95.478l-1.354,4.086c-9.669,17.97-122.024,221.121-159.223,288.384-8.309,15.023-13.428,24.281-13.646,24.684-31.264,53.988-45.61,114.763-38.38,162.578a156.61,156.61,0,0,0,27.247,67.4,162.391,162.391,0,0,0,105.81,66.1c4.388.746,8.87,1.322,13.326,1.716,4.954.442,9.988.664,14.959.664a165.165,165.165,0,0,0,99.754-33.08,157.311,157.311,0,0,0,61.433-100.065c7.113-42.268-3.2-84.882-29.056-120A166.542,166.542,0,0,0,761.84,392.369c-2.393-.4-4.857-.762-7.327-1.07a28.992,28.992,0,0,1-25.479-29.794,28.646,28.646,0,0,1,9.643-20.878,29.256,29.256,0,0,1,22.777-7.139c3.325.412,6.7.906,10.04,1.465,58.706,9.878,110.173,41.505,144.925,89.061,34.911,47.776,48.789,105.877,39.076,163.6s-41.839,108.074-90.461,141.795a223.743,223.743,0,0,1-128.1,39.923h-.022c-6.638,0-13.336-.295-19.909-.875-5.973-.529-12.045-1.309-18.054-2.324a219.986,219.986,0,0,1-144.017-90.222,231.592,231.592,0,0,1-17.667-29.286c-29.742-58.734-31.2-127.371-4.206-198.492,9.253-24.393,20.637-47.989,31.436-69.617L733.656,69.445l4-4.834.163-.323q-19.791-10.564-40.612-19.373A497.55,497.55,0,0,0,151.73,855.205q2.55,2.55,5.134,5.054L427.852,357.852H137.966l50.885,85.7a26.221,26.221,0,0,1,3.168,20.311,28.074,28.074,0,0,1-26.983,21.028,26.367,26.367,0,0,1-22.562-12.358L66.855,345.255a26.276,26.276,0,0,1-3.968-14.206l.024-1.1a26.888,26.888,0,0,1,26.627-26.04H473.513c6.928,0,15.264,2.456,19.5,5.8l.41.3a30.418,30.418,0,0,1,9.1,39.083L209.348,892.849a30.389,30.389,0,0,1-5.773,7.563,497.555,497.555,0,0,0,651.8-748.85,500.3,500.3,0,0,0-67.124-56.341Z"/><path class="cls-2" d="M156.8,860.38a501.372,501.372,0,0,0,46.614,40.2c.056-.053.106-.112.162-.166a501.141,501.141,0,0,1-46.711-40.153Z"/><path class="cls-2" d="M502.525,349.1a30.418,30.418,0,0,0-9.1-39.083l-.41-.3c-4.235-3.341-12.571-5.8-19.5-5.8H89.538a26.888,26.888,0,0,0-26.627,26.04l-.024,1.1a26.276,26.276,0,0,0,3.968,14.206l75.619,127.273a26.367,26.367,0,0,0,22.562,12.358,28.074,28.074,0,0,0,26.983-21.028,26.221,26.221,0,0,0-3.168-20.311l-50.885-85.7H427.852L156.864,860.259a501.141,501.141,0,0,0,46.711,40.153,30.389,30.389,0,0,0,5.773-7.563Z"/><path class="cls-2" d="M771.494,334.953c-3.337-.559-6.715-1.053-10.04-1.465a29.256,29.256,0,0,0-22.777,7.139,28.646,28.646,0,0,0-9.643,20.878A28.992,28.992,0,0,0,754.513,391.3c2.47.308,4.934.667,7.327,1.07a166.542,166.542,0,0,1,107.178,65.578c25.851,35.116,36.169,77.73,29.056,120A157.311,157.311,0,0,1,836.641,678.01a165.165,165.165,0,0,1-99.754,33.08c-4.971,0-10-.222-14.959-.664-4.456-.394-8.938-.97-13.326-1.716a162.391,162.391,0,0,1-105.81-66.1,156.61,156.61,0,0,1-27.247-67.4c-7.23-47.815,7.116-108.59,38.38-162.578.218-.4,5.337-9.661,13.646-24.684,37.2-67.263,149.554-270.414,159.223-288.384l1.354-4.086a493.769,493.769,0,0,0-50.494-30.867l-4,4.834L564.492,378.513c-10.8,21.628-22.183,45.224-31.436,69.617-26.99,71.121-25.536,139.758,4.206,198.492a231.592,231.592,0,0,0,17.667,29.286A219.986,219.986,0,0,0,698.946,766.13c6.009,1.015,12.081,1.795,18.054,2.324,6.573.58,13.271.875,19.909.875h.022a223.743,223.743,0,0,0,128.1-39.923c48.622-33.721,80.748-84.08,90.461-141.795s-4.165-115.821-39.076-163.6C881.667,376.458,830.2,344.831,771.494,334.953Z"/><path class="cls-3" d="M865.748,845.705H560.006a30.872,30.872,0,0,0-30.872,30.872v.624a30.872,30.872,0,0,0,30.872,30.872H794.563a500.844,500.844,0,0,0,61.308-52.2Q860.892,850.851,865.748,845.705Z"/></g></svg>
