<svg xmlns="http://www.w3.org/2000/svg" viewBox="0 0 134.45 117.19"><defs><style>.cls-1{fill:#6ee3f7;fill-rule:evenodd;}</style></defs><g id="Calque_2" data-name="Calque 2"><g id="Calque_1-2" data-name="Calque 1"><path class="cls-1" d="M113.66,55.77,101.43,34.6a2.82,2.82,0,0,0-4.89,2.82l10.6,18.35H94L83.13,36.89,99.44,8.48l27.3,47.29Zm-14.23,53L92.89,97.39l20.76-36h13.09Zm-53.72-8.58,42.29.08,6.54,11.33H36.66L7.72,61.42H20.8L42,98l.24.37C43.29,99.79,43.85,100,45.71,100.14ZM40.42,61.42,51.51,80.63,45,92,27.32,61.42Zm4.41-36,6.55,11.34-11,19H27.32ZM78.3,34h-22L49.72,22.62H84.81Zm-6,21.8,7.59-13.22,7.63,13.22ZM83.08,80.4l11-19h13.11L89.63,91.75Zm-11-19H87.51L79.82,74.75ZM56.54,83.22l3.24-5.64,7.55-13.16L84.74,94.57H50Zm6-21.8L54.76,75,46.94,61.42Zm-3-21.8H75.06L67.32,53.1Zm2.81,16.15H46.94l7.7-13.33ZM39.92,5.65H94.55L88.05,17H46.46Zm94.51,52.61s0-.06,0-.09,0-.17,0-.25a.31.31,0,0,1,0-.08c0-.11-.07-.2-.1-.3v0l-.15-.31,0,0L101.87,1.41v0a2.9,2.9,0,0,0-.19-.29h0a2.5,2.5,0,0,0-.22-.24l-.06-.06a1.54,1.54,0,0,0-.19-.17l-.07-.06-.27-.18h0a2.09,2.09,0,0,0-.3-.14s0,0-.07,0a1.25,1.25,0,0,0-.25-.09l-.08,0A1.55,1.55,0,0,0,99.82,0h0l-.35,0H35l-.34,0h0a1.59,1.59,0,0,0-.3.06l-.09,0A2.34,2.34,0,0,0,34,.2l-.08,0a1.77,1.77,0,0,0-.31.15h0a2.11,2.11,0,0,0-.31.21l-.15.13L33,.83,32.86,1l-.08.1-.15.22a.35.35,0,0,1-.05.08v0h0L9.89,40.72a2.82,2.82,0,0,0,4.89,2.82L35,8.47,41.57,19.8l-20.77,36H2.51l-.16,0-.12,0-.14,0-.13,0-.11,0L1.69,56l-.09,0-.16.09h0l0,0-.23.15-.08.06-.24.22-.06.06-.16.19L.53,57l-.13.2a.43.43,0,0,1,0,.07,2.1,2.1,0,0,0-.15.3s0,0,0,0a2.76,2.76,0,0,0-.08.27l0,.08c0,.08,0,.17,0,.25a.25.25,0,0,1,0,.09c0,.11,0,.21,0,.31v.07a2.46,2.46,0,0,0,0,.28S0,59,0,59a1.85,1.85,0,0,0,0,.23l0,.1a1.43,1.43,0,0,0,.09.27s0,0,0,0,.1.2.16.3v0l32.2,55.77A2.81,2.81,0,0,0,35,117.19h64.4a0,0,0,0,0,0,0,2.06,2.06,0,0,0,.35,0h0l.31-.07.08,0,.25-.08.08,0,.3-.15.28-.19.07,0,.19-.17a.46.46,0,0,1,.07-.07,2.2,2.2,0,0,0,.2-.23s0,0,0,0a2.9,2.9,0,0,0,.19-.29l0,0L134.07,60l0,0,.15-.31a0,0,0,0,1,0,0c0-.09.07-.19.1-.29a.29.29,0,0,1,0-.09c0-.08,0-.17,0-.25s0-.06,0-.09,0-.22,0-.33S134.44,58.37,134.43,58.26Z"/></g></g></svg>