<svg xmlns="http://www.w3.org/2000/svg" viewBox="0 0 302.96 262">
  <defs>
    <style>.cls-1{fill:none;}
    </style>
  </defs>
  <title>Sidequest Mark Black</title>
  <g id="Layer_2" data-name="Layer 2">
    <g id="Layer_1-2" data-name="Layer 1">
      <polygon class="cls-1" points="227.33 0 76.07 0 0.43 131 76.07 262 227.33 262 302.96 131 227.33 0"/>
      <path d="M291.4,111.69,226.92,0h-129l30.58,52.92,9.33,16.17L126.69,88.41h-22.3L95.06,72.23,64.5,19.29,0,131,64.48,242.69l30.58-52.94,9.33-16.18h22.3l11.15,19.34-9.35,16.17L97.93,262h129L291.4,
               150.31H211.62L200.46,131l11.16-19.31ZM64.2,50,76.13,70.66l-18.3,31.69h76.9l38.48-66.6H136.6L124.67,15.08h85.55l-62.93,109H21.41Zm60.47,196.92,11.93-20.67h36.61l-38.48-66.63H57.83l18.3,
               31.7L64.2,212,21.41,137.89H147.29l16.56,28.69,46.37,80.34Zm98.15-49.31,18.28-31.7H265L222.2,240l-37.75-65.34L159.24,131l29.85-51.69L222.2,22,265,96.09H241.1l-18.28-31.7L184.34,131Z"/>
    </g>
  </g>
</svg>
