<svg viewBox="0 0 512 512" version="1.1" xmlns="http://www.w3.org/2000/svg" xmlns:xlink="http://www.w3.org/1999/xlink">
    <title>electrum</title>
    <g id="electrum" stroke="none" stroke-width="1" fill="none" fill-rule="evenodd">
        <path d="M257.183013,26.3169873 C194.4051,26.3169873 147.183013,129.453786 147.183013,255.316987 C147.183013,381.180189 194.4051,484.316987 257.183013,484.316987 C319.960925,484.316987 367.183013,381.180189 367.183013,255.316987 C367.183013,129.453786 319.960925,26.3169873 257.183013,26.3169873 Z M257.183013,45.3169873 C305.414335,45.3169873 348.183013,138.727184 348.183013,255.316987 C348.183013,371.906791 305.414335,465.316987 257.183013,465.316987 C208.95169,465.316987 166.183013,371.906791 166.183013,255.316987 C166.183013,138.727184 208.95169,45.3169873 257.183013,45.3169873 Z" id="Oval" fill="#2579FF" fill-rule="nonzero" transform="translate(257.183013, 255.316987) rotate(30.000000) translate(-257.183013, -255.316987) "></path>
        <path d="M257.183013,26.3169873 C194.4051,26.3169873 147.183013,129.453786 147.183013,255.316987 C147.183013,381.180189 194.4051,484.316987 257.183013,484.316987 C319.960925,484.316987 367.183013,381.180189 367.183013,255.316987 C367.183013,129.453786 319.960925,26.3169873 257.183013,26.3169873 Z M257.183013,45.3169873 C305.414335,45.3169873 348.183013,138.727184 348.183013,255.316987 C348.183013,371.906791 305.414335,465.316987 257.183013,465.316987 C208.95169,465.316987 166.183013,371.906791 166.183013,255.316987 C166.183013,138.727184 208.95169,45.3169873 257.183013,45.3169873 Z" id="Oval" fill="#2579FF" fill-rule="nonzero" transform="translate(257.183013, 255.316987) rotate(150.000000) translate(-257.183013, -255.316987) "></path>
        <path d="M257.183013,26.3169873 C194.4051,26.3169873 147.183013,129.453786 147.183013,255.316987 C147.183013,381.180189 194.4051,484.316987 257.183013,484.316987 C319.960925,484.316987 367.183013,381.180189 367.183013,255.316987 C367.183013,129.453786 319.960925,26.3169873 257.183013,26.3169873 Z M257.183013,45.3169873 C305.414335,45.3169873 348.183013,138.727184 348.183013,255.316987 C348.183013,371.906791 305.414335,465.316987 257.183013,465.316987 C208.95169,465.316987 166.183013,371.906791 166.183013,255.316987 C166.183013,138.727184 208.95169,45.3169873 257.183013,45.3169873 Z" id="Oval" fill="#2579FF" fill-rule="nonzero" transform="translate(257.183013, 255.316987) rotate(270.000000) translate(-257.183013, -255.316987) "></path>
        <path d="M249.5,196 L249.5,215.5 L259,215.5 L259,196 L270.5,196 L270.5,196 L270.5,215.5 C292.5,215.5 300,226 300,237 C300,243 299.5,249 289.5,254.5 C299,256 307,262 307,275 C307,293.5 293.5,303.5 270.5,303.5 L270.5,303.5 L270.5,323 L259,323 L259,303.5 L249.5,303.5 L249.5,323 L237.5,323 L237.5,303.5 L213,303.5 L215.5,289.5 L224,289.5 C226.761424,289.5 229,287.261424 229,284.5 L229,284.5 L229,233 C229,230.238576 226.761424,228 224,228 L224,228 L214,228 L214,215.5 L237.5,215.5 L237.5,196 L249.5,196 Z M249,263 L249,289 C272,290.333333 283.5,286 283.5,276 C283.5,266 272,261.666667 249,263 Z M249,229 L249,253 C267,253.666667 276,249.666667 276,241 C276,232.333333 267,228.333333 249,229 Z" id="Combined-Shape" fill="#2579FF"></path>
    </g>
</svg>
