<svg version="1.1" id="Layer_1" xmlns="http://www.w3.org/2000/svg" xmlns:xlink="http://www.w3.org/1999/xlink"
	 viewBox="0 0 200 200" xml:space="preserve">
<path fill="#0074C8" opacity="1.000000" stroke="none" 
	d="
M120.924805,191.938293 
	C107.548759,200.050751 94.593613,199.808060 81.473991,192.076019 
	C65.414474,182.611404 49.274689,173.277771 33.040161,164.116898 
	C19.338917,156.385498 12.299904,145.332977 12.746753,129.158051 
	C13.294120,109.344536 12.961707,89.503914 12.847016,69.675949 
	C12.774012,57.054802 18.234310,47.208652 28.661007,40.844463 
	C47.268349,29.487013 66.203926,18.641991 85.290916,8.105635 
	C95.911537,2.242859 107.222366,2.562696 117.803596,8.497927 
	C136.528305,19.001001 155.202667,29.621613 173.521454,40.809738 
	C183.762070,47.064148 189.374573,56.664883 189.342514,69.102692 
	C189.288391,90.097572 189.209961,111.093590 189.370224,132.087387 
	C189.473007,145.552399 183.442108,155.482101 172.214523,162.190033 
	C155.355072,172.262680 138.251938,181.927475 120.924805,191.938293 
M160.022491,88.519058 
	C160.627777,79.302589 159.877701,70.468903 152.514862,63.698189 
	C151.184921,62.475204 149.472946,61.667671 147.015945,60.068707 
	C157.973602,84.633827 153.501221,103.846901 131.301880,118.142960 
	C137.748123,126.236137 143.819916,133.859192 149.861298,141.444077 
	C156.186142,137.142242 159.961060,130.201538 160.004364,122.974831 
	C160.071198,111.821342 160.022308,100.667152 160.022491,88.519058 
M87.997414,145.499313 
	C87.997520,150.154419 88.255791,154.828583 87.913940,159.458450 
	C87.652557,162.998535 89.212715,164.432434 92.268364,165.507385 
	C102.574104,169.132889 111.063919,165.179993 119.471786,159.346710 
	C113.669838,150.208939 107.896812,141.128326 102.135963,132.039993 
	C97.477242,124.690376 97.483749,124.686249 87.997414,126.278954 
	C87.997414,132.281769 87.997414,138.390839 87.997414,145.499313 
M40.859566,88.513672 
	C40.861984,100.169533 40.735489,111.827347 40.911518,123.480591 
	C41.031689,131.435837 44.785015,137.463348 51.776344,142.386185 
	C51.776344,114.867416 51.776344,88.222198 51.776344,60.593578 
	C49.566402,62.623848 47.921951,63.942944 46.503174,65.471512 
	C40.645565,71.782402 40.508221,79.597672 40.859566,88.513672 
M97.426682,68.865547 
	C94.367081,68.865547 91.307480,68.865547 88.295227,68.865547 
	C88.295227,79.279778 88.295227,88.540146 88.295227,98.018776 
	C94.016182,98.018776 99.510826,98.504013 104.882500,97.898415 
	C111.913857,97.105682 115.912880,92.112091 116.319016,84.950340 
	C116.779533,76.829666 113.576485,71.901451 106.235847,69.942459 
	C103.697479,69.265045 100.993729,69.207298 97.426682,68.865547 
M89.977699,39.837547 
	C97.576042,39.837547 105.174393,39.837547 112.915054,39.837547 
	C105.391853,35.999428 97.806198,34.978573 89.977699,39.837547 
z"/>
</svg>