<svg xmlns="http://www.w3.org/2000/svg" viewBox="0 0 62 62">
  <defs>
    <linearGradient id="a" x1="50%" x2="50%" y1="100%" y2="0%">
      <stop offset="0%" stop-color="#09489b"/>
      <stop offset="100%" stop-color="#0084e9"/>
    </linearGradient>
  </defs>
  <path fill="url(#a)" d="M31 0c17.112 0 31 13.888 31 31 0 17.112-13.888 31-31 31C13.888 62 0 48.112 0 31 0 13.888 13.888 0 31 0zm0 60.14c16.12 0 29.14-13.02 29.14-29.14S47.12 1.86 31 1.86 1.86 14.88 1.86 31 14.88 60.14 31 60.14zm0-56.493c15.106 0 27.353 12.247 27.353 27.353 0 15.106-12.247 27.353-27.353 27.353C15.894 58.353 3.647 46.106 3.647 31 3.647 15.894 15.894 3.647 31 3.647zm0 47.868c11.314 0 20.515-9.2 20.515-20.515 0-11.314-9.2-20.515-20.515-20.515-11.314 0-20.515 9.2-20.515 20.515 0 4.911 1.74 9.45 4.663 12.993V18.878h29.218a4.325 4.325 0 0 1 4.351 4.351v7.46a4.325 4.325 0 0 1-4.351 4.352h-14.92l-5.595-5.595h17.406v-4.973h-18.65v21.136h-6.03A20.506 20.506 0 0 0 31 51.515z"/>
</svg>
