<svg xmlns="http://www.w3.org/2000/svg" xmlns:xlink="http://www.w3.org/1999/xlink" version="1.1" id="Layer_1" x="0px" y="0px" enable-background="new 0 0 180 180" xml:space="preserve" viewBox="12.48 12.50 155.04 155.00">
<path fill="#000000" d="M167.42,80.773c-0.508-3.18-2.229-4.084-6.385-5.417c-3.157-1.01-24.312-7.751-24.312-7.751  s-14.736-5.564-25.667,2.311c-1.472,1.058-2.992,2.267-4.527,3.557c1.289-1.534,2.493-3.06,3.553-4.533  c7.853-10.941,2.26-25.672,2.26-25.672s-6.775-21.139-7.793-24.296c-1.341-4.154-2.248-5.873-5.425-6.371  c-3.177-0.502-4.57,0.855-7.119,4.397c-1.94,2.69-14.886,20.723-14.886,20.723s-9.847,12.301-5.735,25.127  c0.553,1.728,1.231,3.548,1.987,5.406c-1.063-1.702-2.142-3.318-3.215-4.781c-7.982-10.848-23.717-10.084-23.717-10.084  s-22.198-0.088-25.518-0.096c-4.362-0.01-6.278,0.323-7.737,3.189c-1.457,2.868-0.594,4.612,1.984,8.131  c1.959,2.676,15.109,20.562,15.109,20.562s8.657,13.165,22.123,13.221c1.81,0.008,3.749-0.074,5.743-0.217  c-1.941,0.483-3.809,1.01-5.524,1.578c-12.785,4.239-16.921,19.439-16.921,19.439s-6.942,21.086-7.976,24.238  c-1.356,4.146-1.634,6.071,0.642,8.345c2.277,2.271,4.201,1.993,8.345,0.628c3.153-1.036,24.226-8.018,24.226-8.018  s15.195-4.166,19.409-16.958c0.565-1.718,1.087-3.578,1.566-5.519c-0.137,1.992-0.215,3.926-0.205,5.735  c0.08,13.469,13.259,22.1,13.259,22.1s17.91,13.116,20.587,15.074c3.525,2.569,5.271,3.428,8.136,1.966  c2.866-1.462,3.192-3.38,3.174-7.744c-0.011-3.315-0.14-25.516-0.14-25.516s0.738-15.735-10.126-23.696  c-1.461-1.068-3.072-2.145-4.773-3.202c1.856,0.751,3.673,1.424,5.397,1.97c12.834,4.089,25.114-5.777,25.114-5.777  s18.014-12.979,20.7-14.925C166.569,85.342,167.925,83.946,167.42,80.773z M90.964,64.428c2.421,0.38,3.623,5.53,2.681,11.501  c-0.938,5.97-3.663,10.501-6.086,10.12c-2.423-0.382-3.624-5.531-2.683-11.501C85.816,68.576,88.541,64.043,90.964,64.428z   M59.954,80.261c1.112-2.186,6.379-1.736,11.768,1.004c5.389,2.739,8.856,6.731,7.746,8.915c-1.113,2.187-6.381,1.738-11.771-1  C62.311,86.439,58.843,82.447,59.954,80.261z M76.307,110.039c-4.271,4.276-9.14,6.34-10.876,4.606  c-1.733-1.729,0.323-6.602,4.594-10.881c4.269-4.278,9.138-6.343,10.873-4.609C82.631,100.887,80.575,105.76,76.307,110.039z   M99.826,120.064c-2.185,1.114-6.182-2.345-8.93-7.729c-2.75-5.382-3.209-10.653-1.025-11.767c2.183-1.113,6.181,2.348,8.93,7.728  C101.55,113.679,102.009,118.947,99.826,120.064z M105.496,95.131c-5.969,0.952-11.121-0.242-11.507-2.66  c-0.384-2.424,4.143-5.158,10.11-6.106c5.971-0.953,11.12,0.239,11.506,2.661C115.991,91.445,111.466,94.18,105.496,95.131z"></path>
</svg>