<svg viewBox="0 0 30 13" version="1.1" xmlns="http://www.w3.org/2000/svg" xmlns:xlink="http://www.w3.org/1999/xlink" xml:space="preserve" xmlns:serif="http://www.serif.com/" style="fill-rule:evenodd;clip-rule:evenodd;stroke-linejoin:round;stroke-miterlimit:2;">
    <g transform="matrix(1,0,0,1,-1.2,-5.997)">
        <path d="M11.408,18.708L11.617,15.57L11.408,8.76C11.401,8.674 11.365,8.598 11.311,8.539C11.259,8.483 11.186,8.448 11.104,8.448L11.094,8.448C11.012,8.448 10.937,8.483 10.885,8.539C10.832,8.593 10.8,8.667 10.8,8.749L10.8,8.76L10.8,8.759L10.618,15.569L10.8,18.707C10.806,18.791 10.842,18.866 10.897,18.922C10.947,18.975 11.019,19.008 11.098,19.008L11.099,19.008C11.108,19.009 11.118,19.009 11.128,19.009C11.286,19.009 11.414,18.881 11.414,18.723C11.414,18.717 11.414,18.711 11.413,18.705L11.413,18.706L11.408,18.708ZM15.263,18.33L15.406,15.583L15.25,7.953L15.25,7.937C15.25,7.811 15.183,7.702 15.082,7.642L15.08,7.641C15.022,7.6 14.95,7.575 14.872,7.575C14.794,7.575 14.722,7.6 14.663,7.642L14.664,7.641C14.562,7.702 14.494,7.812 14.494,7.937L14.494,7.954L14.494,7.953L14.481,8.031L14.35,15.571C14.35,15.58 14.398,16.604 14.493,18.644L14.493,18.665C14.493,18.746 14.523,18.821 14.571,18.878C14.639,18.965 14.745,19.021 14.863,19.021L14.872,19.021C14.976,19.019 15.068,18.973 15.132,18.901C15.206,18.844 15.252,18.755 15.252,18.655L15.252,18.639L15.252,18.64L15.263,18.33ZM1.656,13.903L1.92,15.57L1.656,17.21C1.639,17.29 1.599,17.33 1.536,17.33C1.473,17.33 1.433,17.29 1.416,17.21L1.2,15.57L1.421,13.903C1.438,13.823 1.478,13.783 1.541,13.783C1.604,13.783 1.642,13.823 1.656,13.903ZM2.776,12.875L3.114,15.57L2.776,18.21C2.772,18.277 2.717,18.33 2.649,18.33L2.645,18.33C2.565,18.33 2.525,18.287 2.525,18.2L2.225,15.57L2.525,12.875C2.524,12.869 2.523,12.863 2.523,12.857C2.523,12.8 2.569,12.754 2.626,12.754C2.633,12.754 2.639,12.755 2.645,12.756L2.644,12.756L2.648,12.756C2.716,12.756 2.771,12.809 2.775,12.876L2.776,12.875ZM3.973,12.379L4.298,15.569L3.973,18.655C3.974,18.66 3.974,18.666 3.974,18.672C3.974,18.742 3.917,18.799 3.847,18.799C3.841,18.799 3.835,18.799 3.83,18.798L3.831,18.798L3.824,18.798C3.744,18.798 3.679,18.735 3.675,18.655L3.401,15.569L3.675,12.379C3.692,12.275 3.744,12.223 3.831,12.223C3.918,12.223 3.965,12.275 3.974,12.38L3.973,12.379ZM5.197,12.288L5.497,15.569L5.197,18.747C5.194,18.841 5.118,18.916 5.023,18.916L5.014,18.916C5.008,18.917 5.001,18.917 4.993,18.917C4.91,18.917 4.843,18.85 4.843,18.767C4.843,18.76 4.844,18.753 4.845,18.746L4.845,18.747L4.571,15.569L4.845,12.288C4.844,12.282 4.844,12.275 4.844,12.267C4.844,12.184 4.911,12.117 4.994,12.117C5.001,12.117 5.008,12.118 5.015,12.119L5.014,12.119L5.022,12.119C5.116,12.119 5.193,12.194 5.196,12.288L5.197,12.288ZM6.421,12.528L6.695,15.575L6.421,18.778C6.404,18.917 6.334,18.987 6.212,18.987C6.09,18.987 6.212,18.987 6.211,18.987C6.157,18.987 6.109,18.964 6.075,18.928C6.039,18.891 6.016,18.841 6.016,18.785L6.016,18.778L5.759,15.57L6.019,12.523C6.022,12.416 6.108,12.33 6.214,12.327C6.218,12.327 6.223,12.326 6.228,12.326C6.335,12.326 6.422,12.413 6.422,12.52L6.422,12.522L6.421,12.528ZM7.645,10.622L7.919,15.57L7.645,18.773C7.645,18.836 7.62,18.894 7.58,18.936C7.542,18.98 7.487,19.008 7.424,19.008C7.285,19.008 7.205,18.928 7.184,18.768L6.944,15.565L7.184,10.617C7.201,10.457 7.281,10.377 7.424,10.377C7.486,10.377 7.542,10.405 7.579,10.449C7.619,10.492 7.644,10.55 7.644,10.613L7.644,10.622L7.645,10.622ZM8.869,9.503L9.12,15.6L8.873,18.778C8.864,18.911 8.754,19.015 8.619,19.015C8.484,19.015 8.375,18.911 8.365,18.779L8.365,18.778L8.153,15.6L8.362,9.506C8.362,9.501 8.361,9.495 8.361,9.489C8.361,9.348 8.475,9.235 8.615,9.235C8.755,9.235 8.869,9.349 8.869,9.489C8.869,9.495 8.869,9.501 8.868,9.507L8.868,9.506L8.869,9.503ZM10.145,8.982L10.385,15.57L10.145,18.721L10.145,18.733C10.145,18.878 10.027,18.996 9.882,18.996C9.873,18.996 9.865,18.996 9.857,18.995L9.858,18.995C9.693,18.995 9.602,18.904 9.584,18.721L9.375,15.57L9.584,8.982L9.584,8.98C9.584,8.902 9.617,8.831 9.669,8.781C9.716,8.729 9.783,8.696 9.857,8.695L9.862,8.695C9.938,8.695 10.006,8.728 10.053,8.781C10.103,8.834 10.136,8.904 10.144,8.981L10.144,8.982L10.145,8.982ZM12.672,8.929L12.868,15.57L12.672,18.682C12.667,18.86 12.525,19.003 12.347,19.007L12.342,19.007C12.257,19.007 12.181,18.972 12.126,18.916C12.065,18.854 12.026,18.77 12.022,18.677L12.022,18.676L11.84,15.564L12.022,8.923L12.022,8.907C12.022,8.819 12.059,8.739 12.119,8.683C12.178,8.626 12.258,8.592 12.347,8.592C12.436,8.592 12.516,8.627 12.575,8.684C12.635,8.74 12.673,8.82 12.673,8.908L12.673,8.925L12.673,8.924L12.672,8.929ZM13.961,9.176L14.143,15.583L13.961,18.656L13.961,18.657C13.961,18.851 13.804,19.007 13.611,19.007C13.513,19.007 13.425,18.967 13.361,18.903C13.295,18.84 13.25,18.754 13.241,18.657L13.241,18.655L13.085,15.582L13.241,9.175C13.248,9.072 13.293,8.982 13.361,8.915C13.423,8.851 13.509,8.811 13.605,8.811L13.613,8.811C13.706,8.811 13.79,8.851 13.848,8.915C13.912,8.984 13.953,9.074 13.958,9.174L13.958,9.175L13.961,9.176ZM16.721,15.583L16.539,18.591C16.539,18.814 16.358,18.995 16.135,18.995C16.024,18.995 15.923,18.95 15.849,18.877C15.774,18.803 15.725,18.703 15.718,18.591L15.718,18.59L15.64,17.106L15.562,15.582L15.718,7.302L15.718,7.262C15.731,7.138 15.788,7.029 15.874,6.95C15.944,6.893 16.035,6.859 16.133,6.859L16.134,6.859C16.208,6.859 16.276,6.883 16.33,6.924L16.329,6.923C16.448,6.993 16.529,7.117 16.538,7.26L16.538,7.261L16.721,15.583ZM31.2,15.336C31.196,17.365 29.55,19.008 27.521,19.008L17.281,19.008C17.168,18.992 17.069,18.94 16.994,18.865C16.92,18.794 16.874,18.694 16.874,18.583L16.874,6.872C16.874,6.672 16.994,6.529 17.234,6.442C17.935,6.16 18.748,5.997 19.599,5.997C21.299,5.997 22.846,6.649 24.005,7.716L24,7.712C25.175,8.764 25.95,10.241 26.082,11.9L26.083,11.922C26.504,11.741 26.995,11.635 27.51,11.635C29.548,11.635 31.2,13.287 31.2,15.325L31.2,15.336Z" style="fill-rule:nonzero;"/>
    </g>
</svg>