<svg xmlns:dc="http://purl.org/dc/elements/1.1/" xmlns:cc="http://creativecommons.org/ns#" xmlns:rdf="http://www.w3.org/1999/02/22-rdf-syntax-ns#" xmlns:svg="http://www.w3.org/2000/svg" xmlns="http://www.w3.org/2000/svg" xmlns:sodipodi="http://sodipodi.sourceforge.net/DTD/sodipodi-0.dtd" xmlns:inkscape="http://www.inkscape.org/namespaces/inkscape" version="1.1" id="svg2" xml:space="preserve" sodipodi:docname="glassdoor-stacked-rgb.eps" viewBox="Infinity Infinity -Infinity -Infinity"><metadata id="metadata8"><rdf:rdf><cc:work rdf:about=""><dc:format>image/svg+xml</dc:format><dc:type rdf:resource="http://purl.org/dc/dcmitype/StillImage"></dc:type></cc:work></rdf:rdf></metadata><defs id="defs6"></defs><sodipodi:namedview pagecolor="#ffffff" bordercolor="#666666" borderopacity="1" objecttolerance="10" gridtolerance="10" guidetolerance="10" inkscape:pageopacity="0" inkscape:pageshadow="2" inkscape:window-width="640" inkscape:window-height="480" id="namedview4"></sodipodi:namedview><g id="g10" inkscape:groupmode="layer" inkscape:label="ink_ext_XXXXXX" transform="matrix(1.3333333,0,0,-1.3333333,0,637.33333)"><g id="g12" transform="scale(0.1)"><path d="M 5940,0 H 0 V 4779.96 H 5940 V 0" style="fill:#ffffff;fill-opacity:1;fill-rule:nonzero;stroke:none" id="path14"></path><path d="m 5160,1317.98 c 0,4.76 -3.17,9.52 -7.93,12.69 -9.52,4.76 -23.8,7.93 -53.94,7.93 -66.65,0 -125.35,-33.32 -150.73,-87.25 v 66.63 c 0,6.35 -4.76,11.1 -11.1,11.1 h -99.96 c -6.35,0 -11.11,-4.75 -11.11,-11.1 V 864.219 c 0,-6.34 4.76,-11.11 11.11,-11.11 h 104.72 c 6.34,0 11.1,4.77 11.1,11.11 V 1067.3 c 0,90.43 63.47,136.45 145.97,136.45 19.03,0 38.07,-4.77 47.59,-7.94 6.35,-1.58 12.7,3.17 12.7,9.52 z M 4495.23,965.762 c -71.39,0 -126.93,50.768 -126.93,126.918 0,76.17 55.54,126.93 126.93,126.93 71.39,0 126.93,-50.76 126.93,-126.93 -1.59,-77.73 -55.54,-126.918 -126.93,-126.918 z m 0,374.428 c -145.96,0 -255.43,-99.96 -255.43,-249.09 0,-147.549 109.47,-249.088 255.43,-249.088 145.96,0 255.43,99.949 255.43,249.088 0,147.55 -109.47,249.09 -255.43,249.09 z M 3914.55,965.762 c -71.4,0 -126.93,50.768 -126.93,126.918 0,76.17 55.53,126.93 126.93,126.93 71.4,0 126.93,-50.76 126.93,-126.93 0,-77.73 -55.53,-126.918 -126.93,-126.918 z m 0,374.428 c -145.97,0 -255.44,-99.96 -255.44,-249.09 0,-147.549 109.47,-249.088 255.44,-249.088 145.96,0 255.43,99.949 255.43,249.088 0,147.55 -107.88,249.09 -255.43,249.09 z M 3337.04,964.18 c -71.39,0 -123.76,50.77 -123.76,126.92 0,76.15 52.37,126.93 123.76,126.93 69.81,0 123.75,-49.18 123.75,-126.93 0,-77.74 -53.94,-126.92 -123.75,-126.92 z m 234.81,553.71 h -104.71 c -6.35,0 -11.11,-4.77 -11.11,-11.11 v -247.5 c -31.73,46 -85.68,80.91 -158.66,80.91 -115.82,0 -214.19,-88.84 -214.19,-249.09 0,-160.241 98.37,-249.088 215.79,-249.088 69.8,0 123.75,30.148 157.06,79.328 v -55.531 c 0,-6.348 4.76,-11.098 11.11,-11.098 h 104.71 c 6.34,0 11.11,4.75 11.11,11.098 v 642.561 c 0,4.75 -4.77,9.52 -11.11,9.52 z M 3014.96,997.488 c 0,-107.879 -79.32,-153.898 -204.66,-153.898 -87.26,0 -161.83,23.801 -204.66,71.398 -3.18,3.172 -3.18,9.524 0,14.282 l 60.28,77.74 c 3.18,4.77 11.11,4.77 15.87,0 31.73,-33.319 80.91,-52.35 141.2,-52.35 34.91,0 63.47,9.52 63.47,36.488 0,25.382 -25.39,31.732 -104.72,49.182 -69.81,14.28 -157.07,46.01 -157.07,149.14 0,95.19 76.16,150.72 199.91,150.72 82.5,0 141.2,-25.39 182.45,-63.46 4.77,-3.18 4.77,-9.52 1.59,-14.28 l -57.12,-74.57 c -3.17,-4.76 -11.1,-6.35 -14.27,-1.58 -28.56,25.38 -74.57,41.25 -120.58,41.25 -39.67,0 -60.29,-12.7 -60.29,-33.32 0,-23.8 25.38,-30.15 109.47,-47.6 79.33,-19.03 149.13,-49.18 149.13,-149.142 z m -482.31,0 c 0,-107.879 -79.33,-153.898 -204.67,-153.898 -87.26,0 -161.83,23.801 -204.66,71.398 -3.18,3.172 -3.18,9.524 0,14.282 l 60.29,77.74 c 3.17,4.77 11.1,4.77 15.86,0 31.73,-33.319 80.92,-52.35 141.2,-52.35 34.91,0 63.47,9.52 63.47,36.488 0,25.382 -25.38,31.732 -104.72,49.182 -69.81,14.28 -157.07,46.01 -157.07,149.14 0,95.19 76.16,150.72 199.91,150.72 82.51,0 141.21,-25.39 182.46,-63.46 4.76,-3.18 4.76,-9.52 1.58,-14.28 l -57.11,-74.57 c -3.17,-4.76 -11.11,-6.35 -14.28,-1.58 -28.56,25.38 -74.57,41.25 -120.58,41.25 -39.66,0 -60.29,-12.7 -60.29,-33.32 0,-23.8 25.38,-30.15 109.48,-47.6 79.32,-19.03 149.13,-49.18 149.13,-149.142 z m -623.52,47.602 c 0,-52.36 -42.84,-98.36 -109.47,-98.36 -44.43,0 -66.64,20.622 -66.64,50.758 0,26.972 20.63,46.012 58.7,52.362 l 117.41,14.28 z m -82.5,293.51 c -99.95,0 -174.52,-33.32 -207.84,-98.37 -1.59,-4.75 0,-11.1 3.17,-12.68 l 76.16,-53.95 c 4.76,-3.17 11.1,-1.58 14.28,3.18 20.62,38.07 68.22,50.77 114.23,50.77 55.53,0 82.5,-20.63 82.5,-47.6 v -7.93 c 0,-11.11 -6.35,-17.46 -25.38,-19.04 l -130.1,-11.11 c -87.26,-7.94 -152.31,-61.87 -152.31,-149.14 0,-87.25 66.63,-147.55 160.24,-147.55 74.57,0 122.17,36.5 145.96,74.57 v -53.941 c 0,-6.348 4.77,-11.098 11.11,-11.098 h 104.71 c 6.35,0 11.11,4.75 11.11,11.098 v 282.411 c 0,130.1 -69.81,190.38 -207.84,190.38 z m -310.97,168.18 V 864.219 c 0,-6.34 -4.76,-11.11 -11.1,-11.11 h -104.72 c -6.34,0 -11.1,4.77 -11.1,11.11 v 642.561 c 0,6.34 4.76,11.11 11.1,11.11 h 104.72 c 6.34,0 11.1,-4.77 11.1,-11.11 z m -474.38,-542.6 c -71.397,0 -123.749,50.77 -123.749,126.92 0,76.15 52.352,126.93 123.749,126.93 71.4,0 123.75,-49.18 123.75,-126.93 0,-77.74 -52.35,-126.92 -123.75,-126.92 z m 234.81,364.9 h -104.71 c -6.35,0 -11.11,-4.75 -11.11,-11.1 v -55.53 c -26.97,42.83 -80.91,77.74 -153.89,77.74 -117.411,0 -218.946,-88.84 -218.946,-245.91 0,-157.069 96.777,-244.339 223.706,-244.339 68.22,0 122.16,28.559 152.31,72.989 v -30.149 c 0,-68.222 -33.32,-122.172 -139.62,-122.172 -53.947,0 -96.783,17.461 -133.271,50.782 -4.762,4.75 -12.692,3.168 -15.868,-1.602 l -47.597,-79.32 c -6.348,-9.508 -4.758,-15.86 -1.586,-19.039 49.183,-42.84 111.058,-68.219 203.082,-68.219 199.91,0 258.61,111.059 258.61,233.219 v 433.14 c 0,4.76 -4.76,9.51 -11.11,9.51" style="fill:#31af40;fill-opacity:1;fill-rule:nonzero;stroke:none" id="path16"></path><path d="M 3411.61,2319.1 H 2245.48 v 0 c 0,-160.24 130.1,-291.92 291.93,-291.92 h 874.19 v 0 c 160.25,0 291.94,130.09 291.94,291.92 v 0 1197.86 c 0,6.34 -4.77,11.1 -11.11,11.1 h -269.71 c -6.35,0 -11.12,-4.76 -11.12,-11.1 V 2319.1 Z m 0,1749.98 c 160.24,0 291.93,-130.1 291.93,-291.93 v 0 H 2537.41 V 2580.88 c 0,-6.34 -4.76,-11.1 -11.11,-11.1 h -269.71 c -6.35,0 -11.11,4.76 -11.11,11.1 v 1196.27 0 c 0,160.25 130.1,291.93 291.93,291.93 v 0 h 874.2" style="fill:#31af40;fill-opacity:1;fill-rule:nonzero;stroke:none" id="path18"></path><path d="m 3757.64,2045.73 c 0,-1.02 0,-1.02 1.03,-2.06 0,-1.02 0,-1.02 1.03,-2.06 0,1.04 0,1.04 1.03,2.06 0,0 0,1.04 1.03,2.06 l 10.31,18.57 c 0,1.03 1.04,1.03 1.04,1.03 h 1.03 6.18 v -37.13 h -7.21 v 23.72 l 1.03,5.16 -11.35,-20.63 c -1.03,-1.03 -1.03,-2.06 -3.09,-2.06 h -1.03 c -1.03,0 -2.07,1.03 -3.09,2.06 l -11.35,20.63 v -4.12 -22.7 h -7.22 v 37.13 h 6.19 c 1.03,0 1.03,0 1.03,0 l 1.03,-1.02 z m -24.76,20.64 v -6.2 h -11.34 v -29.91 h -8.25 v 29.91 h -11.35 v 6.2 h 30.94" style="fill:#31af40;fill-opacity:1;fill-rule:nonzero;stroke:none" id="path20"></path></g></g></svg>
