<svg id="Gruppe_1232" data-name="Gruppe 1232" xmlns="http://www.w3.org/2000/svg" width="135" height="60" viewBox="0 0 135 60">
  <g id="Gruppe_39" data-name="Gruppe 39">
    <path id="Pfad_79" data-name="Pfad 79" d="M49.28,170.831a27.513,27.513,0,1,0-.076,38.814c4.981-4.982,13.67-11.86,13.67-19.445C62.874,182.653,54.216,175.806,49.28,170.831ZM47.9,205.812a21.941,21.941,0,0,1-15.555,6.453c-.681,0-1.355-.036-2.021-.1-.339-.031-.676-.071-1.01-.117-.665.092-1.338.157-2.021.188-.335.015-.672.025-1.011.025a22.011,22.011,0,0,1,0-44.021c.338,0,.674.011,1.008.026.683.031,1.357.1,2.022.188q.5-.07,1.01-.117c.667-.061,1.34-.1,2.022-.1a21.94,21.94,0,0,1,15.616,6.516c3.949,3.981,10.876,9.458,10.876,15.5C58.832,196.323,51.88,201.826,47.9,205.812Z" transform="translate(-2.25 -162.686)" fill="#191919"/>
    <path id="Pfad_80" data-name="Pfad 80" d="M62.714,177.791A21.94,21.94,0,0,0,47.1,171.275a16.087,16.087,0,0,0-3.032.214c5.294.484,11.063,2.729,14.607,6.3,3.949,3.981,10.875,9.458,10.875,15.5,0,6.068-6.952,11.571-10.936,15.556-4.059,4.06-9.282,5.758-14.545,6.24a18.7,18.7,0,0,0,3.031.214,21.941,21.941,0,0,0,15.555-6.454c3.985-3.986,10.936-9.489,10.936-15.556C73.589,187.249,66.663,181.771,62.714,177.791Z" transform="translate(-17.007 -165.717)" fill="#8c195f"/>
    <path id="Pfad_81" data-name="Pfad 81" d="M44.066,171.606a21.963,21.963,0,0,1,12.586,6.3c3.949,3.981,10.875,9.458,10.875,15.5,0,6.068-6.951,11.571-10.936,15.556a21.966,21.966,0,0,1-12.523,6.24h0c5.2-.461,10.57-2.215,14.545-6.24s10.936-9.489,10.936-15.556c0-6.037-6.926-11.515-10.875-15.5-3.545-3.572-9.314-5.817-14.607-6.3" transform="translate(-17.007 -165.833)" fill="#d72864"/>
    <path id="Pfad_82" data-name="Pfad 82" d="M7.395,193.286c0-11.8,9.484-21.471,23.016-21.8a21.216,21.216,0,0,0-3.03-.214,22.011,22.011,0,0,0,0,44.021,13.131,13.131,0,0,0,3.032-.214C18.786,215.4,7.395,205.083,7.395,193.286Z" transform="translate(-3.352 -165.717)" fill="#8c195f"/>
    <path id="Pfad_83" data-name="Pfad 83" d="M12.537,193.4a21.984,21.984,0,0,1,18.976-21.8h0c-13.529.326-23.016,10-23.016,21.8s11.375,22.116,23.018,21.8h0A22.04,22.04,0,0,1,12.537,193.4Z" transform="translate(-4.455 -165.833)" fill="#d72864"/>
  </g>
</svg>