<svg xmlns="http://www.w3.org/2000/svg" viewBox="0 0 384 384">
  <rect width="100%" height="100%" fill="#0540a9"/>
  <path style="fill:#ffffff; stroke:none;" d="M155 143L155 217C160.782 217 165.233 217.816 168 212C171.521 214.29 174.756 216.905 179 217.671C202.605 221.931 208.966 192.161 201.532 175C197.478 165.643 187.843 160.791 178 163.993C173.931 165.317 171.184 168.33 168 171C169.18 161.666 169 152.406 169 143L155 143M43 197C34.9834 201.286 35.5383 207.695 41 214C30.1302 216.838 25.8056 230.087 36.0432 237.03C50.7395 246.997 88.1807 240.431 82.4668 217.001C79.6714 205.538 66.303 206.126 57 205.996C55.0039 205.968 47.9086 205.958 49.3457 202.129C50.6673 198.608 61.6799 199.506 65 198.401C77.3404 194.294 78.2539 183.926 76 173C82.1882 172.142 83.9264 170.212 84 164C78.0289 164 71.9581 164.318 66 163.91C58.4382 163.393 51.3048 162.08 44.0008 165.133C29.5086 171.192 32.737 189.109 43 197M91 164C91 177.731 87.8608 196.061 93.1443 208.996C98.8642 223 118.252 218.847 127 211C129.422 217.705 133.609 217 140 217L140 164L126 164C126 174.676 128.395 188.923 124.272 198.999C122.165 204.149 115.48 208.98 110.133 205.254C106.089 202.435 106.022 197.432 106.001 193C105.954 183.334 106 173.666 106 164L91 164M242 164L242 193C242 198.701 241.476 204.787 244.279 209.996C249.844 220.342 270.156 221.646 276 211L278 211C279.859 217.889 284.849 217 291 217L291 164L276 164C276 174.397 278.326 188.036 275.196 198C273.66 202.888 268.626 208.136 263.015 206.218C258.745 204.757 256.711 200.158 256.185 196C254.872 185.627 256 174.455 256 164L242 164M298 164C300.991 176.623 307.385 188.962 312.2 201C314.127 205.817 317.731 211.74 317.861 217C318.102 226.757 308.575 228.995 301 229L301 240C309.18 241.519 317.635 241.047 323.907 234.895C330.096 228.824 332.197 219.876 335.192 212C341.25 196.071 347.539 180.141 353 164L337 164C333.998 176.976 326.614 189.568 326 203C321.724 190.392 317.003 176.979 314 164L298 164M53.044 172.604C63.7567 168.469 68.1327 186.476 58.8951 190.254C48.2109 194.623 43.6281 176.239 53.044 172.604M176.015 175.434C192.538 170.86 194.057 203.575 180.996 206.526C166.342 209.837 164.141 178.722 176.015 175.434M217.214 203.742C208.162 207.843 215.846 221.921 224.895 217.987C235.191 213.511 227.353 199.148 217.214 203.742M49.0046 218.434C53.3313 217.227 62.903 216.835 66.8519 219.179C72.8688 222.75 67.5988 228.844 62.9992 230.351C58.0802 231.963 50.6835 232.965 46.1481 229.91C40.9568 226.414 43.7214 219.906 49.0046 218.434z"/>
</svg>
