<svg viewBox="2 1.2000000476837158 744 161.60000610351562" xmlns="http://www.w3.org/2000/svg" xmlns:xlink="http://www.w3.org/1999/xlink" version="1.1">
<path style="fill:#142960;" d="M694.4,58c0-1.4,0.4-2.8,1.1-4c0.7-1.2,1.7-2.2,2.9-2.9s2.6-1.1,4-1.1s2.8,0.4,4,1.1
	c1.2,0.7,2.2,1.7,2.9,2.9s1.1,2.6,1.1,4s-0.3,2.7-1,3.9s-1.7,2.2-2.9,3c-1.2,0.7-2.6,1.1-4.1,1.1s-2.8-0.4-4.1-1.1
	c-1.2-0.7-2.2-1.7-2.9-2.9C694.8,60.7,694.4,59.4,694.4,58z M695.4,58c0,1.3,0.3,2.4,0.9,3.5c0.6,1.1,1.5,1.9,2.6,2.6
	s2.3,0.9,3.5,0.9c1.3,0,2.4-0.3,3.5-0.9s1.9-1.5,2.6-2.6c0.6-1.1,0.9-2.3,0.9-3.5s-0.3-2.4-0.9-3.5s-1.5-1.9-2.5-2.6
	c-1.1-0.7-2.3-1-3.6-1s-2.4,0.3-3.5,0.9c-1.1,0.6-1.9,1.5-2.6,2.6S695.4,56.7,695.4,58z M705.3,56c0,0.6-0.1,1.1-0.4,1.5
	c-0.3,0.4-0.7,0.8-1.2,1l2.5,4.2h-1.3l-2.2-3.8h-1.8v3.8h-1.1v-9.4h2.2c1,0,1.8,0.2,2.4,0.7C705,54.4,705.3,55.1,705.3,56z
	 M700.9,58h1.2c0.6,0,1.2-0.2,1.5-0.5c0.4-0.3,0.6-0.8,0.6-1.4c0-1.2-0.7-1.8-2.1-1.8h-1.2V58z"></path>
<g>
	<polygon style="fill:#142960;" points="48.7,109 60.3,109 60.3,84.4 91.6,84.4 91.6,73.9 60.3,73.9 60.3,62.1 108.4,62.1
		108.4,51.5 48.7,51.5 	"></polygon>
	<polygon style="fill:#142960;" points="127.5,51.5 115.8,51.5 115.8,109 171.5,109 171.5,98.5 127.5,98.5 	"></polygon>
	<polygon style="fill:#142960;" points="192.3,84.4 225.8,84.4 225.8,73.9 192.3,73.9 192.3,62.1 240.4,62.1 240.4,51.5 180.7,51.5
		180.7,109 242.5,109 242.5,98.5 192.3,98.5 	"></polygon>
	<polygon style="fill:#142960;" points="343.3,84.4 376.7,84.4 376.7,73.9 343.3,73.9 343.3,62.1 391.3,62.1 391.3,51.5 331.6,51.5
		331.6,109 393.5,109 393.5,98.5 343.3,98.5 	"></polygon>
	<polygon style="fill:#142960;" points="457.9,98.6 419.7,51.6 419.6,51.5 402.6,51.5 402.6,109 414.3,109 414.3,62 452.5,108.9
		452.6,109 469.6,109 469.6,51.5 457.9,51.5 	"></polygon>
	<polygon style="fill:#142960;" points="477,62.1 504.3,62.1 504.3,109 515.9,109 515.9,62.1 543.1,62.1 543.1,51.5 477,51.5 	"></polygon>
	<rect x="551.1" y="51.5" style="fill:#142960;" width="11.7" height="57.5"></rect>
	<path style="fill:#142960;" d="M617.3,51.5h-14.1L571.9,109h12.8l6.5-12.2h38l6.6,12.2h12.8l-31.2-57.3L617.3,51.5z M623.4,86.3
		h-26.3l13.2-24.4L623.4,86.3z"></path>
	<polygon style="fill:#142960;" points="665.7,98.5 665.7,51.5 654,51.5 654,109 709.7,109 709.7,98.5 	"></polygon>
	<polygon style="fill:#142960;" points="294.3,79.7 322.8,51.7 323.1,51.4 308.1,51.4 286.8,72.3 265.5,51.4 265.5,51.4 250.5,51.4
		279.3,79.7 249.5,108.9 249.2,109.2 264.3,109.2 286.8,87 309.3,109.1 309.4,109.2 324.4,109.2 	"></polygon>
</g>
<polygon style="fill:#142960;" points="205.1,152.6 12.5,152.6 12.5,11.4 209.8,11.4 230.3,31.6 245.4,31.6 214.4,1.2 2,1.2
	2,162.8 209.8,162.8 240.6,132.4 225.6,132.4 "></polygon>
<polygon style="fill:#142960;" points="359.2,1.2 328.3,31.6 343.2,31.6 363.7,11.4 735.5,11.4 735.5,152.6 368.5,152.6 348,132.4
	333.1,132.4 364.1,162.8 368.9,162.8 379,162.8 746,162.8 746,1.2 "></polygon>
</svg>
