<svg width="67" height="59" xmlns="http://www.w3.org/2000/svg"><g fill="#12123d"><path d="M16.304.113H.58a.597.597 0 00-.583.61v5.99c0 .162.061.317.17.431L33.192 41.75a.564.564 0 00.823 0l11.154-11.635-.101-.024.057-.095L16.714.291a.57.57 0 00-.41-.178"/><path d="M50.407.214L35.91 15.45a.358.358 0 000 .489l10.984 11.606a.32.32 0 00.473-.003l2.85-3.089c.047-.05.13-.016.13.055V58.21c0 .192.147.347.33.347H66.67c.182 0 .33-.155.33-.347V.46a.339.339 0 00-.33-.346H50.64a.322.322 0 00-.233.101M.546 58.556h15.169a.562.562 0 00.549-.576V28.73a.589.589 0 00-.16-.405L.934 12.357c-.345-.363-.937-.107-.937.406V57.98c0 .318.246.576.549.576"/></g></svg>