<svg xmlns:xlink="http://www.w3.org/1999/xlink" xmlns="http://www.w3.org/2000/svg" fill="none" viewBox="0 0 50 50" >
  <defs/>
  <path fill="url(#paint0_linear)" d="M19.883 33.147s-.188.807-1.229.807c-.935 0-1.207-.92-1.207-.92l-3.99-10.472s-3.262 6.834-3.41 7.162c-.148.328-.27.483-.52.642-.251.16-.914.173-.914.173H5.778C8.18 38.89 15.876 45 25 45c9.614 0 17.642-6.784 19.563-15.825l-2.943-.005c-.596.026-.74-.07-.922-.196-.215-.15-.395-.436-.395-.436l-3.313-5.214-3.616 5.4s-.37.761-1.26.748c-.89-.012-1.12-.825-1.12-.825l-5.339-12.573-5.772 17.073zM5 25c0 1.102.09 2.183.262 3.236h2.725l4.386-9.076s.29-.806 1.206-.78c.915.027 1.166.771 1.166.771l3.904 9.994 5.605-16.672s.216-.96 1.243-.96c1.007 0 1.254.88 1.254.88l5.691 13.392 3.562-5.363s.335-.478 1.075-.452c.74.025 1.007.572 1.007.572l4.04 6.357 2.782.022c.06-.632.092-1.273.092-1.921 0-11.046-8.954-20-20-20S5 13.954 5 25z"/>
  <defs>
    <linearGradient id="paint0_linear" x1="5" x2="45" y1="25" y2="25" gradientUnits="userSpaceOnUse">
      <stop stop-color="#199ED9"/>
      <stop offset=".186" stop-color="#199ED9"/>
      <stop offset=".398" stop-color="#1C97D9"/>
      <stop offset=".7" stop-color="#2384D8"/>
      <stop offset="1" stop-color="#2C6BD7"/>
    </linearGradient>
  </defs>
</svg>