<svg xmlns="http://www.w3.org/2000/svg" viewBox="0 0 256 256">
 <path d="m137.21 154.55h46.622l-4.3334 6.4428c-2.1069 3.1328-4.6616 6.1532-8.0518 9.5047-11.508 11.396-25.761 17.177-42.366 17.177-16.456 0-30.811-5.7631-42.677-17.13-11.573-11.84-17.399-26.061-17.399-42.363 0-16.444 5.8374-30.559 17.351-41.955 11.746-11.633 26.125-17.538 42.724-17.538 16.181 0 26.895 3.511 36.947 12.33l51.17-46.241c-24.973-23.395-53.844-34.78-88.117-34.78-35.222 0-65.925 12.72-91.256 37.812-25.105 24.524-37.824 54.918-37.824 90.371 0 35.116 12.725 65.522 37.824 90.377 25.439 24.849 56.154 37.457 91.256 37.457 35.604 0 65.465-12.259 91.286-37.481 23.976-23.744 35.645-53.31 35.645-90.354v-13.944h-118.8v40.312zm41.793 91.914c14.904-6.2183 28.626-15.486 41.364-27.929 23.976-23.744 35.645-53.31 35.645-90.354v-13.944h-31.312l-46.365 132.23h0.6685z" fill="#f59037"/>
 <path d="m179 246.47c14.904-6.2183 28.626-15.486 41.364-27.929 23.976-23.744 35.645-53.31 35.645-90.354v-13.944h-31.312l-46.365 132.23h0.6685z" fill="#e45a38"/>
</svg>
