<svg enable-background="new 0 0 595.28 841.89" version="1.1" viewBox="0 0 398.44 454.04" xmlns="http://www.w3.org/2000/svg" xmlns:xlink="http://www.w3.org/1999/xlink"><g transform="translate(-98.94,-193.33)"><defs><rect id="SVGID_1_" y="-1.11" width="595.28" height="841.89"/></defs><clipPath id="SVGID_2_"><use width="100%" height="100%" overflow="visible" xlink:href="#SVGID_1_"/></clipPath><g clip-path="url(#SVGID_2_)"><defs><rect id="SVGID_3_" y="-1.11" width="595.28" height="841.89"/></defs><clipPath id="SVGID_4_"><use width="100%" height="100%" overflow="visible" xlink:href="#SVGID_3_"/></clipPath><g clip-rule="evenodd" fill-rule="evenodd"><path d="m278.58 193.33s50.33 19.73 0 57.39c-50.34 37.66 0 60.97 0 60.97s-25.57-24.51 15.18-54.99c40.75-30.491 2.4-62.77-15.18-63.37m-1.61 49.91s-68.8 30.26 0 82.1c68.79 51.84 0 83.93 0 83.93s34.94-33.73-20.75-75.7c-55.69-41.96-3.28-89.51 20.75-90.33m130.92 144.32c0-25.02-44.53-45.73-102.58-49.31 5.22 5.96 8.62 11.58 10.62 16.84 48.439 5.3 84.189 23.72 84.189 45.63 0 1.77-0.24 3.5-0.69 5.21 5.461-5.68 8.461-11.88 8.461-18.37m-160.6-47.3c-47.84 6.6-80.39 25.28-80.39 47.3 0 6.33 2.85 12.38 8.05 17.95-0.38-1.58-0.57-3.17-0.57-4.79 0-22.57 38.73-41.44 89.43-46.08-7.46-9.32-12.84-11.96-16.52-14.38m-105.8 66.449c0 40.111 64.92 72.63 145.01 72.63s145.01-32.52 145.01-72.63c0-1.42-0.08-2.84-0.25-4.25-14.17 32.8-73.26 57.41-144.01 57.41-72.71 0-133.11-25.99-145.1-60.16-0.44 2.311-0.66 4.641-0.66 7m290.47 196.23h7.641v12.891h-23.061v-79.52h-6.93v-12.9h45.69c9.19 0 13.721 4.639 13.721 14.049v38.25c0 9.121-4.67 13.76-14.141 13.76h-14.01v-12.889h8.49c3.109 0 4.67-1.6 4.67-4.93v-30.271c0-3.34-1.561-5.068-4.53-5.068h-17.54zm-29.12-13.47h-42.43c-9.2 0-13.86-4.639-13.86-13.908v-40.701h-6.79v-11.45h22.061v47.66c0 3.619 1.7 5.51 4.95 5.51h13.72v-53.17h15.28v53.17h7.069zm-73.18 0h-47.38v-42.729c0-15.5 8.2-23.33 24.75-23.33h22.77v22.17h-13.15v-9.27h-10.75c-5.66 0-8.49 3.18-8.49 9.408v30.861h32.25zm-58.99 0h-16.84c-7.49 0-11.17-4.059-11.17-12.02v-41.139h-8.49v-12.9h8.49v-20.281h15.13v20.281h12.73v12.9h-12.73v35.629c0 3.33 1.84 4.93 5.38 4.779h4.1c1.27 0 2.4 0 3.4-0.139zm-45.01-25.35h-34.09v8.551c0 2.6 1.27 3.91 3.68 3.91h28.71v12.889h-34.65c-8.49 0-12.73-4.199-12.73-12.75v-38.969c0-9.561 4.95-14.34 14.71-14.34h20.65c9.05 0 13.58 4.49 13.72 13.619zm-34.09-12.75h19.24v-10.859c0-2.76-1.28-4.199-3.82-4.199h-11.32c-2.69 0-4.1 1.59-4.1 4.779zm-49.91 38.1v-49.399c0-2.461-1.42-3.76-4.25-3.76h-16.12v53.158h-15.28v-53.158h-7.07v-12.9h45.4c8.35 0 12.59 4.35 12.59 13.189v39.98h7.07v12.889h-22.34z" clip-path="url(#SVGID_4_)" fill="#006479"/><g fill="#2391a9"><path d="m120.07 636.4c-0.8 0.469-1.77 0.73-2.87 0.73-5.14 0-4.8-5.73-3.55-12.801 1.24-7.061 2.93-12.791 8.07-12.791s4.8 5.73 3.55 12.791c-0.68 3.9-1.51 7.359-2.84 9.68l-2.33-2.57-2.47 2.311zm4.64 4.709 2.45-2.189-2.54-2.789c2.52-3.051 3.78-7.58 4.55-11.941 1.35-7.609 1.34-15.469-6.95-15.469-8.3 0-11.08 7.859-12.42 15.469-1.39 7.85-1.39 15.75 6.91 15.75 2.14 0 3.96-0.5 5.43-1.4z" clip-path="url(#SVGID_4_)"/><path d="m149.57 616.69h-3.54l-2.79 15.82c-0.59 3.34-3.38 4.619-5.28 4.619-3.2 0-2.82-2.859-2.51-4.619l2.79-15.82h-3.54l-2.86 16.25c-0.48 2.689-1.24 7 4.7 7 2.19 0 4.74-1.09 6.01-3.02h0.08l-0.44 2.5h3.37z" clip-path="url(#SVGID_4_)"/><path d="m161.49 633.11c-0.36 2.041-2.94 4.02-5.26 4.02-2.4 0-2.91-1.6-2.51-3.879 0.35-1.98 1.09-2.861 2.36-3.58 1.77-0.971 4.94-1.26 6.49-2.65zm-5.68-9.548 0.03-0.211c0.14-0.789 0.78-4.391 4.65-4.391 2.36 0 3.41 1.221 3.04 3.311-0.33 1.881-0.46 2.6-3.17 3.4l-5.01 1.43c-3.06 0.891-4.8 3.08-5.35 6.24-0.72 4.049 0.77 6.6 4.98 6.6 2.11 0 4.51-1.23 6.01-3.27h0.09c-0.4 3.199 1.28 3.199 2.63 3.199 0.89 0 1.84-0.16 2.1-0.199l0.43-2.43c-0.19 0.129-0.42 0.219-0.88 0.219-1.1 0-0.94-0.91-0.77-1.869l2.29-12.951c0.41-2.34 1.14-6.488-5.72-6.488-5.39 0-7.99 2.299-8.89 7.41z" clip-path="url(#SVGID_4_)"/><polygon points="177.92 609.27 174.38 609.27 169.06 639.4 172.6 639.4" clip-path="url(#SVGID_4_)"/><path d="m182.11 613.21h3.53l0.69-3.9h-3.54zm-4.63 26.189h3.54l4.01-22.709h-3.54z" clip-path="url(#SVGID_4_)"/><path d="m190.76 616.64h-3.28l-0.5 2.818h3.29l-2.86 16.182c-0.51 2.898 0.13 4.299 3.79 4.299 1.48 0 2.43-0.15 2.91-0.23l0.48-2.709c-0.39 0.039-0.83 0.129-1.59 0.129-1.85 0-2.18-0.738-1.85-2.619l2.66-15.051h3.91l0.5-2.818h-3.92l1.16-6.561h-3.54z" clip-path="url(#SVGID_4_)"/><path d="m201.27 639.87-1.02 1.99c-0.64 1.221-1.53 2.201-3.17 2.201-0.88 0-1.55-0.041-2.04-0.131l-0.5 2.82c0.58 0.039 1.16 0.119 2.55 0.119 4.25 0 5.68-2.809 7.07-5.949l10.81-24.23h-3.88l-7.17 18.221h-0.09l-1.25-18.221h-3.87z" clip-path="url(#SVGID_4_)"/><polygon points="239.51 614.99 239.6 614.99 239.42 639.39 243.93 639.39 255.45 609.21 251.74 609.21 242.77 634 242.69 634 242.81 609.21 238.35 609.21 229.72 634 229.63 634 229.42 609.21 225.71 609.21 226.37 639.39 230.87 639.39" clip-path="url(#SVGID_4_)"/><path d="m268.85 628.46 0.25-1.449c0.85-4.83 1.29-10.861-5.62-10.861-6.95 0-9.2 6.531-10.2 12.191-1.36 7.74 0.27 11.6 5.79 11.6 6.15 0 8.58-5.631 9-8.029h-3.54c-0.3 1.689-1.38 5.219-4.75 5.219-4.34 0-3.42-5.219-2.81-8.67h11.88zm-11.26-2.811 0.15-0.84c0.23-1.33 1.45-5.85 5.16-5.85 3.12 0 3.39 2.971 2.95 5.48l-0.21 1.209h-8.05z" clip-path="url(#SVGID_4_)"/><path d="m270.92 639.42h3.37l0.46-2.641h0.08c0.19 1.6 1.89 3.16 4.33 3.16 5.22 0 8.32-5.359 9.47-11.891 0.86-4.85 1.34-11.898-4.76-11.898-2.28 0-4.63 1.129-5.75 2.939h-0.08l1.73-9.82h-3.53zm5.33-11.371c0.79-4.5 2.36-9.09 6.15-9.09 3.29 0 3.5 3.551 2.53 9.09-0.94 5.271-2.45 9.08-5.73 9.08-3.8 0-3.79-4.33-2.95-9.08" clip-path="url(#SVGID_4_)"/><path d="m290.24 639.4h3.54l2.79-15.818c0.59-3.33 3.39-4.621 5.28-4.621 3.199 0 2.819 2.871 2.51 4.621l-2.79 15.818h3.54l2.87-16.25c0.47-2.689 1.229-7-4.58-7-2.021 0-4.72 1.211-5.95 2.941h-0.09l1.74-9.82h-3.541z" clip-path="url(#SVGID_4_)"/><path d="m316.92 637.13c-3.63 0-3.6-4.209-2.739-9.08 0.859-4.879 2.359-9.09 5.939-9.09 3.79 0 3.771 4.211 2.91 9.09-0.86 4.871-2.37 9.08-6.11 9.08m-6.449-9.08c-1.12 6.352-0.49 11.891 6.029 11.891 6.49 0 9.11-5.539 10.23-11.891 1.12-6.35 0.5-11.898-6.03-11.898-6.479-1e-3 -9.11 5.548-10.229 11.898" clip-path="url(#SVGID_4_)"/><path d="m344.45 623.38c0.42-2.65 0.979-7.23-5.59-7.23-3.92 0-7.57 2.049-8.311 6.26-0.819 4.67 1.86 5.471 4.431 6.391 2.58 0.93 5.239 1.559 4.71 4.59-0.561 3.189-3.271 3.74-4.41 3.74-3.45 0-3.771-2.48-3.29-5.211h-3.54c-0.41 2.311-1.33 8.02 6.33 8.02 4.22 0 7.71-2.34 8.54-7.1 0.79-4.459-1.82-5.42-4.391-6.35-2.619-0.92-5.31-1.43-4.84-4.08 0.551-3.15 3.13-3.451 4.271-3.451 2.569 0 3.05 1.561 2.55 4.422h3.54z" clip-path="url(#SVGID_4_)"/><path d="m350.8 616.64h-3.28l-0.5 2.818h3.29l-2.859 16.182c-0.511 2.898 0.13 4.299 3.79 4.299 1.479 0 2.43-0.15 2.909-0.23l0.48-2.709c-0.39 0.039-0.83 0.129-1.59 0.129-1.851 0-2.181-0.738-1.851-2.619l2.66-15.051h3.91l0.5-2.818h-3.92l1.16-6.561h-3.54z" clip-path="url(#SVGID_4_)"/><path d="m361.47 613.21h3.54l0.681-3.9h-3.53zm-4.62 26.189h3.54l4-22.709h-3.54z" clip-path="url(#SVGID_4_)"/><path d="m365.06 639.4h3.539l2.79-15.818c0.591-3.33 3.381-4.621 5.28-4.621 3.2 0 2.82 2.871 2.51 4.621l-2.79 15.818h3.54l2.86-16.25c0.48-2.689 1.24-7-4.7-7-2.189 0-4.74 1.092-6.01 3.031h-0.08l0.44-2.5h-3.37z" clip-path="url(#SVGID_4_)"/><path d="m403.26 616.68h-3.37l-0.479 2.721h-0.08c-0.17-1.691-1.87-3.25-4.32-3.25-5.72 0-8.359 5.639-9.479 11.949-0.54 3.09-1.58 11.35 4.989 11.35 2.24 0 4.53-1.061 5.601-2.82h0.08l-0.48 2.74c-0.279 1.59-0.75 5.18-5.3 5.18-1.85 0-3.3-0.818-3.1-2.939h-3.54c-0.42 5.76 5.01 5.76 6.399 5.76 4.551 0 8.101-2.469 9.301-9.25zm-8.28 2.279c3.789 0 3.739 4.621 2.939 9.141-0.85 4.789-2.27 8.529-6.1 8.529-3.54 0-3.25-4.74-2.58-8.529 0.981-5.571 2.461-9.141 5.741-9.141" clip-path="url(#SVGID_4_)"/></g><path d="m485.48 517.16c-5.14 0-9.439-3.971-9.439-8.951 0-5.209 4.3-9.5 9.439-9.5 5.141 0 10.08 4.291 10.08 9.5 1e-3 4.98-4.939 8.951-10.08 8.951m-11.259-8.951c0 5.92 4.98 10.771 11.26 10.771 6.45 0 11.9-4.852 11.9-10.771 0-6.209-5.45-11.309-11.9-11.309-6.28 0-11.26 5.1-11.26 11.309m8.61-0.699v-4h2.899c1.49 0 3.04 0.211 3.04 1.939 0 1.971-1.71 2.061-3.649 2.061zm-1.82 7.019h1.82v-5.199h2.29l3.84 5.199h1.88l-3.72-5.35c2.06-0.209 3.47-1.301 3.47-3.641 0-2.6-1.44-3.85-4.47-3.85h-5.11z" clip-path="url(#SVGID_4_)" fill="#006479"/></g></g></g></svg>
