<svg xmlns="http://www.w3.org/2000/svg" xmlns:xlink="http://www.w3.org/1999/xlink" enable-background="new 0 0 595.28 841.89" version="1.1" viewBox="0 0 398.44 422.04"><g transform="translate(-98.94,-193.33)"><defs><rect id="SVGID_1_" y="-1.11" width="595.28" height="841.89"/></defs><clipPath id="SVGID_2_"><use width="100%" height="100%" overflow="visible" xlink:href="#SVGID_1_"/></clipPath><g clip-path="url(#SVGID_2_)"><defs><rect id="SVGID_3_" y="-1.11" width="595.28" height="841.89"/></defs><clipPath id="SVGID_4_"><use width="100%" height="100%" overflow="visible" xlink:href="#SVGID_3_"/></clipPath><g clip-rule="evenodd" fill-rule="evenodd"><path d="m278.58 193.33s50.33 19.73 0 57.39c-50.34 37.66 0 60.97 0 60.97s-25.57-24.51 15.18-54.99c40.75-30.491 2.4-62.77-15.18-63.37m-1.61 49.91s-68.8 30.26 0 82.1c68.79 51.84 0 83.93 0 83.93s34.94-33.73-20.75-75.7c-55.69-41.96-3.28-89.51 20.75-90.33m130.92 144.32c0-25.02-44.53-45.73-102.58-49.31 5.22 5.96 8.62 11.58 10.62 16.84 48.439 5.3 84.189 23.72 84.189 45.63 0 1.77-0.24 3.5-0.69 5.21 5.461-5.68 8.461-11.88 8.461-18.37m-160.6-47.3c-47.84 6.6-80.39 25.28-80.39 47.3 0 6.33 2.85 12.38 8.05 17.95-0.38-1.58-0.57-3.17-0.57-4.79 0-22.57 38.73-41.44 89.43-46.08-7.46-9.32-12.84-11.96-16.52-14.38m-105.8 66.449c0 40.111 64.92 72.63 145.01 72.63s145.01-32.52 145.01-72.63c0-1.42-0.08-2.84-0.25-4.25-14.17 32.8-73.26 57.41-144.01 57.41-72.71 0-133.11-25.99-145.1-60.16-0.44 2.311-0.66 4.641-0.66 7m290.47 196.23h7.641v12.891h-23.061v-79.52h-6.93v-12.9h45.69c9.19 0 13.721 4.639 13.721 14.049v38.25c0 9.121-4.67 13.76-14.141 13.76h-14.01v-12.889h8.49c3.109 0 4.67-1.6 4.67-4.93v-30.271c0-3.34-1.561-5.068-4.53-5.068h-17.54zm-29.12-13.47h-42.43c-9.2 0-13.86-4.639-13.86-13.908v-40.701h-6.79v-11.45h22.061v47.66c0 3.619 1.7 5.51 4.95 5.51h13.72v-53.17h15.28v53.17h7.069zm-73.18 0h-47.38v-42.729c0-15.5 8.2-23.33 24.75-23.33h22.77v22.17h-13.15v-9.27h-10.75c-5.66 0-8.49 3.18-8.49 9.408v30.861h32.25zm-58.99 0h-16.84c-7.49 0-11.17-4.059-11.17-12.02v-41.139h-8.49v-12.9h8.49v-20.281h15.13v20.281h12.73v12.9h-12.73v35.629c0 3.33 1.84 4.93 5.38 4.779h4.1c1.27 0 2.4 0 3.4-0.139zm-45.01-25.35h-34.09v8.551c0 2.6 1.27 3.91 3.68 3.91h28.71v12.889h-34.65c-8.49 0-12.73-4.199-12.73-12.75v-38.969c0-9.561 4.95-14.34 14.71-14.34h20.65c9.05 0 13.58 4.49 13.72 13.619zm-34.09-12.75h19.24v-10.859c0-2.76-1.28-4.199-3.82-4.199h-11.32c-2.69 0-4.1 1.59-4.1 4.779zm-49.91 38.1v-49.399c0-2.461-1.42-3.76-4.25-3.76h-16.12v53.158h-15.28v-53.158h-7.07v-12.9h45.4c8.35 0 12.59 4.35 12.59 13.189v39.98h7.07v12.889h-22.34z" clip-path="url(#SVGID_4_)" fill="#006479"/></g></g></g></svg>
