<svg version="1.1" id="Слой_1" xmlns="http://www.w3.org/2000/svg" xmlns:xlink="http://www.w3.org/1999/xlink" x="0px" y="0px"
	 viewBox="0 0 457.9 157.3" style="enable-background:new 0 0 457.9 157.3;" xml:space="preserve">
<style type="text/css">
	.st0{fill:#231F20;}
	.st1{fill:#6CA30F;}
	.st2{fill:#FFFFFF;}
</style>
<g>
	<path class="st0" d="M407.1,126h5.5v30.6h-5l-20.1-24.3v24.3H382V126h7.1l18,21.7V126z"/>
	<path class="st0" d="M266.5,157.3c-5,0-9.2-1.6-12.6-4.7c-3.3-3.1-5-6.9-5-11.3c0-4.4,1.7-8.2,5-11.3c3.3-3.1,7.5-4.7,12.6-4.7
		c3.4,0,6.5,0.7,9.1,2.2c2.7,1.5,4.8,3.4,6.4,5.9l-5.1,2.8c-2.3-3.5-5.8-5.3-10.4-5.3c-3.4,0-6.2,1-8.4,3c-2.2,2-3.3,4.4-3.3,7.4
		c0,3,1.1,5.5,3.3,7.4c2.2,2,5,3,8.4,3c4.6,0,8.1-1.8,10.4-5.3l5.1,2.8c-1.6,2.5-3.7,4.4-6.4,5.9C273,156.6,269.9,157.3,266.5,157.3
		z"/>
	<path class="st0" d="M311.5,150.2h-17.3l-2.7,6.4H285l13.7-30.6h8.3l13.7,30.6h-6.4L311.5,150.2z M296.4,145.1h12.9l-6.4-15.1
		L296.4,145.1z"/>
	<path class="st0" d="M339.8,152.1c2.8,0,5-0.5,6.4-1.4c0.5-0.3,0.9-0.7,1.2-1.3c0.3-0.5,0.5-1,0.5-1.5c0-1-0.4-1.9-1.2-2.5
		c-0.8-0.6-1.8-1.1-3.1-1.3c-1.3-0.2-2.7-0.4-4.2-0.6c-1.5-0.2-3.1-0.4-4.6-0.7c-1.5-0.3-2.9-0.7-4.2-1.2c-1.3-0.5-2.3-1.4-3.1-2.5
		c-0.8-1.2-1.2-2.6-1.2-4.4c0-3.2,1.5-5.6,4.4-7.4c2.3-1.4,5.2-2.1,8.6-2.1c3.2,0,5.9,0.5,8,1.5c2.2,1,4.1,2.4,5.8,4.2l-5,2.7
		c-1.3-1.2-2.6-2-3.9-2.5c-1.3-0.5-3-0.7-5-0.7c-2.3,0-4.1,0.4-5.4,1.1c-1.2,0.7-1.8,1.6-1.8,2.7c0,0.9,0.4,1.7,1.2,2.2
		c0.8,0.5,1.8,0.9,3.1,1.1c1.3,0.2,2.7,0.3,4.2,0.5c1.5,0.1,3.1,0.4,4.6,0.7c1.5,0.3,2.9,0.7,4.2,1.3c1.3,0.6,2.3,1.5,3.1,2.7
		c0.8,1.3,1.2,2.8,1.2,4.7c0,1.5-0.4,2.9-1.3,4.3c-0.9,1.4-2.1,2.6-3.6,3.4c-2.5,1.4-5.5,2.1-8.9,2.1c-6.5,0-11.6-2.1-15.3-6.4
		l5-2.8c1.4,1.4,2.8,2.4,4.3,3.1C335.4,151.8,337.4,152.1,339.8,152.1z"/>
	<path class="st0" d="M370.2,126v30.6h-5.6V126H370.2z"/>
	<path class="st0" d="M452.8,152.7c-3.3,3.1-7.5,4.6-12.5,4.6c-5,0-9.2-1.6-12.6-4.7c-3.3-3.1-5-6.9-5-11.3c0-4.4,1.7-8.2,5-11.3
		c3.3-3.1,7.5-4.7,12.6-4.7c5,0,9.2,1.6,12.6,4.7c3.4,3.1,5,6.9,5,11.3C457.9,145.8,456.2,149.5,452.8,152.7z M431.9,148.8
		c2.2,2,5,2.9,8.4,2.9c3.4,0,6.2-1,8.4-3c2.2-2,3.3-4.4,3.3-7.4c0-3-1.1-5.4-3.3-7.4c-2.2-2-5-3-8.4-3c-3.4,0-6.2,1-8.4,3
		c-2.2,2-3.3,4.4-3.3,7.4C428.6,144.3,429.7,146.8,431.9,148.8z"/>
	<path class="st1" d="M134,67c0,37-30,67-67,67c-37,0-67-30-67-67C0,30,30,0,67,0C104,0,134,30,134,67z"/>
	<polygon class="st2" points="103.6,44.6 103.6,30.1 47.2,30.1 47.2,104 61.9,104 61.9,75.4 97.4,75.4 97.4,60.9 61.9,60.9 
		61.9,44.6 	"/>
	<path class="st0" d="M195,76.6c5.7-1.2,10.2-3.7,13.6-7.3c3.7-4,5.6-9.1,5.6-15c0-4.1-0.9-8-2.7-11.5c-1.8-3.6-4.4-6.4-7.9-8.5
		c-4.6-2.8-11-4.1-19.2-4.1h-36.9V104h14.7V78.5h16.2l20,25.5h18.3L195,76.6z M162.2,44.6h22.2c5.1,0,8.7,0.6,10.7,1.8
		c2.8,1.7,4.1,4.3,4.1,7.9c0,3.6-1.4,6.2-4.1,7.9c-2,1.2-5.6,1.8-10.7,1.8h-22.2V44.6z"/>
	<polygon class="st0" points="248.2,89.7 248.2,73.1 284.8,73.1 284.8,58.8 248.2,58.8 248.2,44.4 290.9,44.4 290.9,30.1 
		233.5,30.1 233.5,104 292,104 292,89.7 	"/>
	<path class="st0" d="M369.1,69.9c-1.8-3.1-4.3-5.4-7.3-6.8c-2.9-1.4-6.1-2.4-9.6-3.2c-3.4-0.7-6.9-1.3-10.3-1.6
		c-3.4-0.3-6.5-0.7-9.3-1.1c-2.7-0.4-4.9-1.2-6.5-2.3c-1.5-1-2.2-2.5-2.2-4.3c0-2.2,1.2-4,3.5-5.5c2.9-1.6,6.7-2.4,11.5-2.4
		c4.3,0,7.9,0.5,10.7,1.6c2.8,1,5.6,2.9,8.3,5.6l0.5,0.5l12.8-7.4l-0.8-0.9c-3.9-4.3-8.4-7.6-13.2-10c-4.9-2.4-11.1-3.6-18.3-3.6
		c-7.6,0-14.2,1.7-19.5,5c-6.8,4.3-10.2,10.4-10.2,18.1c0,4.3,0.9,7.9,2.8,10.8c1.8,2.9,4.3,5,7.3,6.3c2.9,1.3,6.1,2.2,9.6,2.9
		c3.4,0.7,6.8,1.2,10.2,1.6c3.4,0.4,6.5,0.8,9.3,1.4c2.7,0.5,4.8,1.5,6.4,2.8c1.5,1.3,2.3,3,2.3,5.2c0,1-0.3,2-1,3.1
		c-0.7,1.1-1.5,2-2.4,2.7c-3.1,2.1-7.7,3.2-13.7,3.2c-5.2,0-9.5-0.7-12.7-2.2c-3.2-1.4-6.4-3.8-9.3-7l-0.5-0.6l-12.9,7.7l0.7,0.9
		c8.2,10.1,19.9,15.3,34.7,15.3c7.8,0,14.7-1.7,20.3-5.1c3.5-2.1,6.4-5,8.4-8.4c2-3.5,3.1-7,3.1-10.6
		C371.9,76.9,370.9,73,369.1,69.9z"/>
	<polygon class="st0" points="442.8,30.1 442.8,58 404.2,58 404.2,30.1 389.1,30.1 389.1,104 404.2,104 404.2,73.1 442.8,73.1 
		442.8,104 457.9,104 457.9,30.1 	"/>
</g>
</svg>
