<svg fill="none" xmlns="http://www.w3.org/2000/svg" xmlns:xlink="http://www.w3.org/1999/xlink" viewBox="10.00 10.00 28.00 28.00">
    <linearGradient id="a" gradientUnits="userSpaceOnUse" x1="22.6233" x2="25.546" y1="9.61719" y2="37.3249">
        <stop offset="0" stop-color="#fcf84a"></stop>
        <stop offset="1" stop-color="#07c3f2"></stop>
    </linearGradient>
    <linearGradient id="b" gradientUnits="userSpaceOnUse" x1="11.9056" x2="38.1177" y1="10.0414" y2="22.477">
        <stop offset=".0006" stop-color="#3bea62"></stop>
        <stop offset=".99766" stop-color="#087cfa"></stop>
    </linearGradient>
    <linearGradient id="c" gradientUnits="userSpaceOnUse" x1="16.9999" x2="40.6918" y1="37.5626" y2="18.64">
        <stop offset="0" stop-color="#009ae5"></stop>
        <stop offset="1" stop-color="#293896"></stop>
    </linearGradient>
    <g clip-rule="evenodd" fill-rule="evenodd">
        <path d="m15.0701 38c9.9672-.8716 18.7088-7.0005 22.9298-16.0711-5.2733-7.5244-13.8495-11.9289-22.9289-11.9289-.8139 0-1.6317.0354-2.4517.1071-4.22108 9.0707-3.29517 19.6939 2.4508 27.8929z" fill="url(#a)"></path>
        <path d="m12.6465 10.1073s8.8778 3.1326 14.7328 11.8219h10.6206c-5.2483-7.5245-13.8225-11.929-22.9017-11.929-.8139 0-1.6317.0354-2.4517.1071z" fill="url(#b)"></path>
        <path d="m27.3805 21.9293c-1.28 8.4658-12.3104 16.0708-12.3104 16.0708 10.0279-.9518 18.8275-6.9633 22.9297-16.0738z" fill="url(#c)"></path>
    </g>
</svg>