<svg version="1.2" xmlns="http://www.w3.org/2000/svg" viewBox="0 0 1540 1540">
	<title>TRP_SymbolBrightBlue_R 1-svg</title>
	<style>
		.s0 { fill: #ffffff } 
		.s1 { fill: #05c3de } 
	</style>
	<path id="Layer" class="s0" d="m443.9 1540c-4.6-33.9-16.5-66.3-35-95-136.4-178.4-74.5-216.2-74.5-216.2l-297.9 35.1v-1214.6h1417.7v1013.4l-205.9 112.3c194 64.8 260.4 174.4 251.7 344.8v20.2"/>
	<path id="Layer" class="s1" d="m1540 0v1540h-40v-20.2c0-148.6-68.4-251-258.6-328.9-27.6-11.7-54-26-78.9-42.6 0 0 57.4 103.2-45.1 155.6 23.2-104.7 18.2-200.6-145.2-315.2 28.8 209.3 18.7 301.6-9.9 376.4-45 4-55.8 12.1-98.6 53.9-11.2 8-24 13.7-37.6 16.8 45.6-61 112.2-225.1 112.2-404.5 1.5-109.6-28.5-217.4-86.5-310.4 3.3-18.9 4.6-38.1 3.9-57.3-3.2-10.1-18.3-45.3-18.3-45.3 0 0 14-8.9 27.6-15.7 7-3.7 14.4-6.5 22-8.3 0 0 3.5 22.6 8.1 45.3 14.3 71.1 55 112.3 108 112.3 53.1 0 114.9-19.4 114.9-115.4 0-15.2-5.7-38.5-30-38.5-11.7 0-17.1 14.4-19.9 32.7-0.4 8.3-3.8 16.2-9.7 22.1-5.8 5.9-13.7 9.5-22 9.9-34.7-0.2-39.6-34.9-30.3-178.8 5.5-85.9-21.1-184.3-109.9-196.2-20.2-2.6-40.8-1.6-60.6 3 13.9 1.3 27.5 5.1 40.1 11.3 20.8 10.4 39 25.5 53.1 44.2-5.6 2.2-10.7 5.2-15.4 9-4.5 2.4-9.6 3.3-14.7 2.5-5.1-0.8-9.7-3.2-13.2-6.9-8.1-8.5-17.6-15.7-28-21.2-12.8-9.4-28-15.1-43.9-16.6-15.9-1.5-31.8 1.4-46.2 8.3q-6.9 5.1-13.1 10.9c22.1-0.2 43.9 5.5 63.1 16.5 21.1 11.1 39.9 26.2 55.4 44.3 0 0-7.2 8.3-11.9 12.9-6.2 6.1-16.6 8.5-30.4-3-9.2-8.1-19.2-15.3-29.9-21.5-20.3-14.4-44.7-22.2-69.7-22.2-8.9 11.6-16.6 20-27.6 20-10.1 0-13.9-8.9-24.4-19.1-33.4 1.7-65.8 12.3-93.6 30.8-13.4 9.3-26 19.7-37.7 31.1-4.8 5-11.1 8.3-18 9.4-6.8 1-13.8-0.3-19.9-3.8-5.2-4.1-14.6-11.6-14.6-11.6 20.3-22.1 43.5-41.4 68.9-57.3 24.9-13.8 52.3-22.7 80.6-26.2-3.2-2.4-6.5-4.7-9.8-6.8-20.2-10.8-43.2-15.2-66-12.7-22.7 2.6-44.2 12-61.6 26.9-11.4 8.6-22.3 18-32.4 28.2-4.7 4.8-10.7 8.1-17.3 9.5-6.6 1.5-13.4 1-19.7-1.4-5.9-3.4-15.7-8.8-15.7-8.8 16.4-18.6 34.7-35.5 54.6-50.4 22.1-15.8 47.8-25.8 74.8-29.1-9.6-2.6-19.4-4.7-29.5-6.4-17.5-3.3-35.5-2.8-52.8 1.3-17.3 4-33.6 11.7-47.8 22.4-10.3 8.8-20.1 18.4-29.2 28.5-4.4 4.6-9.8 8.1-15.8 10.1-6 2-12.4 2.5-18.6 1.4q-12.1-2-24.3-2.7c15.2-18.9 32.6-35.8 52-50.4 11-8.1 23.7-13.8 37.1-16.6-79.1 3-154.1 35.9-209.8 92.1-55.7 56.3-88 131.6-90.2 210.8 0 173.8 92.4 225.7 162.5 225.7 16.6 1.2 33.3-1.3 48.9-7.3 15.6-5.9 29.7-15.2 41.3-27.2 11.6-12 20.5-26.3 26-42.1 5.5-15.7 7.5-32.5 5.8-49.1 0-51.2-17.2-54.9-26-54.9-3.8-0.4-7.7 0-11.4 1.3-3.6 1.2-6.9 3.3-9.7 6-2.8 2.7-4.9 6-6.2 9.6-1.4 3.6-1.9 7.4-1.6 11.3 0 23.6-9.7 40.6-36.3 40.6-11.8-0.5-23-5.7-31-14.3-8.1-8.7-12.5-20.1-12.2-31.9-2.3-17.4-0.8-35 4.4-51.7 5.3-16.7 14.1-32 26-44.9 11.8-12.8 26.3-22.9 42.5-29.6 16.2-6.6 33.6-9.6 51.1-8.7 0 38.1 44 67.4 78.3 74.2 14.9 3 6.2 119.7 6.2 119.7 0 0-107.3 108.3-107.3 397.6 6.3 70 26.6 138 59.7 200-26.2-5.7-49.4-20.8-65.1-42.6-15.7-18-33 100.8 40.4 184.9 18.5 28.7 30.4 61.1 35 95h-443.9v-1540z"/>
	<path id="Layer" class="s1" d="m828.4 722.6c0.1 8.7-1.3 17.3-4 25.5-14.7-1.7-29.6-2.6-44.4-2.8-26.6-0.4-53.1 1.9-79.2 6.8 0 0 2.6 12 6.1 28.3 3.5 16.3 48.3 16.1 60 16.2 2.5 0 2.8 4.4 1 5.8-26.1 10.7-53 19.2-80.6 25.4-32.8 10.4-93.2-34.4-93.2-91.4 0-54.1 1.9-36.8 55.1-90 21.4-21.4 8.7-29.5-6.4-56.5-17.8-31.9-22.1-7.8-61.7-7.8-41 0-55-14.5-58.1-30.6-3.5-18.1 12.4-37 38.4-41.4 17.2-2.1 34.6-0.8 51.3 3.8 19.6 4.6 30.6 8.5 29.5-17.3-1.4-32.5 35.8-56.8 59.3-68.1 4.3-2.1 7.4 0.3 3.1 6.1-6.6 7.6-11.4 16.5-14 26.1-2.7 9.7-3.1 19.8-1.3 29.6 0 0 23.8 72.6 29.9 91 4.5 13.6 4.5 13.6-4.3 23.5-15 16.7-28.7 34.6-41.1 53.4-7.2 11 6.5 66 6.5 66 14.6-0.3 28.5-1.6 52.8-3.7 47.1-4.1 42.3 0.5 42.3-28.7 0-17.5-15.5-12-52.9-7.1 0-13-9.6-45.9 9.2-45.9 9.9 0 38.8 10 53.6 10 12.6 0 20-7.5 29.6-7.5 12.8 0 7.5 31.2 5.7 41.9-15.9-4.6-24.9-4.3-24.9 12.6 0.1 21.6 0.3 22 9 23q12 1.2 23.7 3.8z"/>
	<path id="Layer" class="s1" d="m776.5 492c-2.1-5-1.4-7 0.2-7.6 1.7-0.6 4.9 1.9 8.2 5 7.5 7.2 14.4 14.1 25.1 24 15.3 14.3 23.4 1.2 48.5 5.6 32.3 5.5 28.9 39.4-0.5 49.4-7.5 3.1-15.6 4.4-23.6 4-8.1-0.4-16-2.6-23.1-6.4-14.2-23.3-25.9-48.1-34.8-74z"/>
	<path id="Layer" class="s0" d="m1292.5 942.5c14.5 0.1 28.7 4.5 40.7 12.7 12 8.1 21.3 19.6 26.7 33.1 5.5 13.4 6.8 28.2 3.9 42.4-2.9 14.2-10 27.2-20.3 37.4-10.3 10.2-23.4 17.1-37.7 19.8-14.2 2.8-28.9 1.2-42.3-4.4-13.4-5.6-24.8-15.1-32.8-27.2-8-12.1-12.2-26.3-12.1-40.8 0-9.6 1.9-19.2 5.6-28.1 3.7-9 9.2-17.1 16.1-23.9 6.9-6.8 15-12.1 24-15.7 9-3.6 18.6-5.4 28.2-5.3z"/>
	<path id="Layer" fill-rule="evenodd" class="s1" d="m1317.7 958.1c7.4 3.2 14.1 7.8 19.7 13.6 5.6 5.8 10 12.7 12.9 20.2 3 7.5 4.3 15.6 4.1 23.6 0.1 12.5-3.6 24.8-10.5 35.2-7 10.4-16.9 18.4-28.4 23.2-11.6 4.7-24.3 5.8-36.6 3.3-12.2-2.6-23.4-8.8-32.1-17.8-8.7-8.9-14.5-20.3-16.7-32.6-2.1-12.3-0.6-25 4.5-36.4 5.1-11.5 13.5-21.1 24.1-27.7 10.6-6.6 23-9.9 35.5-9.4 8.1 0 16 1.7 23.5 4.8zm13 100.5l-24.6-37.8c3.1 0.1 6.1-0.5 8.9-1.7 2.9-1.1 5.4-2.8 7.5-5 2.2-2.2 3.8-4.8 4.9-7.7 1-2.9 1.5-5.9 1.3-9 0-16.4-9.6-24.5-30-24.5h-33.2v85.7h13.4v-36.8h14.1l23.4 36.8z"/>
	<path id="Layer" class="s1" d="m1292.8 1011h-13.9v-27.3h17.6c9.1 0 18.9 1.8 18.9 13.2 0 13.5-10.8 14.1-22.6 14.1z"/>
</svg>
