<svg viewBox="0 0 400 400" version="1.1" xmlns="http://www.w3.org/2000/svg" xmlns:xlink="http://www.w3.org/1999/xlink" xml:space="preserve" xmlns:serif="http://www.serif.com/" style="fill-rule:evenodd;clip-rule:evenodd;stroke-linejoin:round;stroke-miterlimit:2;">
    <g id="snapshooter">
        <path id="path0" d="M30,0.59C30,1.232 28.48,2.124 26.624,2.57C25.978,2.726 24.96,3.201 24.363,3.627C23.765,4.052 23.076,4.4 22.83,4.4C22.437,4.4 18.208,8.529 16.307,10.769C15.105,12.186 13.215,16.817 12.803,19.356C12.258,22.71 12.26,194.9 12.804,198.255C13.992,205.571 18.925,211.546 26.8,215.206L29.8,216.6L182.132,216.8C332.343,216.997 334.472,217.011 335.032,217.776C335.886,218.944 335.886,350.256 335.032,351.424C334.358,352.346 67.375,352.888 65.141,351.971C63.665,351.366 63.7,351.814 63.164,326.8C62.791,309.395 62.574,304.476 62.156,304.026C61.581,303.406 61.516,303.406 30.72,303.944C21.613,304.103 15.884,304.355 15.631,304.608C15.354,304.885 15.345,311.773 15.602,326.008C15.81,337.554 16.086,353.39 16.215,361.2C16.532,380.413 16.94,383.385 19.927,388.244C21.565,390.908 25.05,394.473 27,395.478C27.66,395.818 28.47,396.325 28.8,396.605C29.13,396.885 30.463,397.445 31.762,397.849C33.273,398.32 34.19,398.84 34.308,399.292C34.561,400.258 364.8,400.414 364.8,399.449C364.8,398.893 365.664,398.466 368.6,397.571C369.48,397.303 370.29,396.954 370.4,396.796C370.51,396.637 371.32,396.141 372.2,395.692C375.787,393.865 379.218,389.516 381.71,383.641L383,380.6L383,284.8C383,192.632 382.972,188.939 382.264,187.4C381.859,186.52 381.305,185.08 381.033,184.2C379.932,180.643 374.707,174.581 371.658,173.322C370.856,172.991 369.93,172.484 369.6,172.196C369.27,171.908 367.148,171.206 364.884,170.636L360.768,169.6L60.818,169.6L60.204,168.662C59.327,167.324 59.469,49.721 60.349,48.661C61.197,47.64 338.403,47.64 339.251,48.661C339.696,49.197 339.84,53.628 340.013,72.161C340.13,84.722 340.265,95.045 340.313,95.1C340.361,95.155 350.832,95.2 363.582,95.2L386.764,95.2L387.001,93.9C387.131,93.185 387.178,76.04 387.106,55.8L386.974,19L385.908,16.341C383.889,11.3 379.87,6.196 376.6,4.519C375.94,4.18 375.13,3.689 374.8,3.428C374.47,3.166 373.144,2.632 371.853,2.241C370.248,1.754 369.444,1.288 369.307,0.765C369.032,-0.285 30,-0.46 30,0.59" style="fill:rgb(36,44,68);"/>
        <path id="path1" d="M0,200L0,400L15.6,400C31.842,400 34.16,399.733 29.42,398.406C28.441,398.132 27.333,397.568 26.958,397.154C26.583,396.739 26.038,396.4 25.747,396.4C25.456,396.4 24.924,395.95 24.563,395.4C24.203,394.85 23.665,394.4 23.368,394.4C23.071,394.4 22.651,394.069 22.434,393.664C22.217,393.259 21.464,392.314 20.759,391.564C19.274,389.983 18.004,388.019 18.001,387.3C18.001,387.025 17.653,386.453 17.229,386.029C16.805,385.605 16.331,384.39 16.177,383.329C16.022,382.268 15.609,380.86 15.257,380.2C14.693,379.141 14.577,374.678 14.263,342.095C13.892,303.585 13.901,303.287 15.537,302.564C16.729,302.037 61.586,301.744 62.799,302.256C64.564,302.999 64.587,303.284 64.798,326.8C64.909,339.23 65.146,349.625 65.324,349.9C65.883,350.764 332.094,350.619 333.414,349.754L334.4,349.108L334.4,284.397C334.4,223.164 334.362,219.667 333.7,219.343C333.315,219.154 265.32,218.91 182.6,218.8C68.176,218.648 32.009,218.487 31.4,218.129C30.96,217.869 29.531,217.463 28.224,217.227C26.899,216.987 25.471,216.443 24.998,215.998C24.531,215.559 23.914,215.2 23.628,215.2C21.844,215.2 14,207.398 14,205.624C14,205.239 13.653,204.61 13.229,204.226C12.805,203.843 12.335,202.78 12.185,201.864C12.035,200.949 11.57,199.201 11.152,197.98C10.191,195.168 10.138,20.679 11.099,19.522C11.373,19.191 11.78,17.949 12.004,16.76C12.227,15.572 12.759,14.123 13.187,13.54C13.615,12.957 14.083,12.007 14.228,11.43C14.373,10.852 14.831,10.197 15.246,9.975C15.661,9.753 16,9.371 16,9.126C16,8.509 21.112,3.6 21.754,3.6C22.041,3.6 22.577,3.268 22.944,2.861C23.312,2.455 24.33,1.908 25.206,1.645C26.119,1.372 26.8,0.918 26.8,0.584C26.8,0.084 24.881,0 13.4,0L0,0L0,200M372.8,0.561C372.8,0.869 373.3,1.296 373.911,1.509C376.34,2.356 382,6.583 382,7.55C382,7.768 382.36,8.06 382.8,8.2C383.24,8.34 383.6,8.667 383.601,8.927C383.601,9.187 384.141,10.03 384.8,10.8C385.459,11.57 385.999,12.581 385.999,13.046C386,13.511 386.378,14.373 386.841,14.961C388.258,16.763 388.373,19.986 388.387,58.238C388.399,93.427 388.367,95.106 387.669,95.738C386.639,96.67 340.646,96.76 339.376,95.832C338.627,95.284 338.596,94.506 338.481,73.036C338.367,51.638 338.334,50.793 337.599,50.399C336.784,49.963 61.667,49.8 61.231,50.236C61.104,50.363 61,76.957 61,109.333L61,168.2L213.018,168.4C354.409,168.586 365.107,168.647 366.059,169.271C366.622,169.64 367.729,170.063 368.518,170.211C369.308,170.359 370.539,170.912 371.254,171.44C371.97,171.968 372.753,172.4 372.994,172.4C373.919,172.4 379.409,177.775 380.041,179.3C380.292,179.905 380.641,180.4 380.818,180.4C380.994,180.4 381.354,181.075 381.617,181.9C381.881,182.725 382.446,183.978 382.872,184.684C383.358,185.491 383.784,187.276 384.016,189.484C384.513,194.211 384.515,375.966 384.018,380.2C383.555,384.147 381.157,389.232 378.424,392.061C377.861,392.644 377.176,393.364 376.903,393.661C375.218,395.488 371.17,398.196 369.5,398.612C368.895,398.763 368.4,399.137 368.4,399.443C368.4,399.909 370.969,400 384.2,400L400,400L400,0L386.4,0C374.999,0 372.8,0.091 372.8,0.561M226.426,95.614C227.652,96.27 227.628,124.772 226.4,126C225.607,126.793 225.067,126.8 167.236,126.8L108.871,126.8L107.836,125.569L106.8,124.339L106.8,110.695C106.8,97.237 106.812,97.039 107.67,96.126L108.539,95.2L167.096,95.2C206.696,95.2 225.903,95.334 226.426,95.614M289.686,96.277C290.706,97.201 290.791,125.264 289.777,126.711L289.155,127.6L275.066,127.6C262.963,127.6 260.853,127.512 260.089,126.977L259.2,126.355L259.2,111.639C259.2,95.96 259.179,96.139 261.098,95.552C262.872,95.009 289.017,95.673 289.686,96.277M228.184,274.005C229.501,275.322 229.674,302.647 228.372,303.825C227.282,304.812 111.52,305.26 109.6,304.285L108.6,303.777L108.495,289.426C108.381,273.925 108.443,273.42 110.49,273.129C115.402,272.432 227.444,273.266 228.184,274.005M289.6,274C290.662,275.062 290.87,304.712 289.822,305.582C289.075,306.201 261.623,306.276 260.524,305.662C259.296,304.975 259.192,275.827 260.411,274.277L261.258,273.2L275.029,273.2C288.267,273.2 288.831,273.231 289.6,274" style="fill:rgb(251,251,251);"/>
        <path id="path2" d="M108.48,96.48C107.666,97.294 107.806,124.149 108.629,124.971C109.378,125.721 223.418,125.954 225.374,125.21L226.4,124.82L226.4,96.493L225.5,96.252C223.621,95.749 108.988,95.972 108.48,96.48M110.07,274.926C109.212,275.839 109.2,276.036 109.2,289.536L109.2,303.22L110.226,303.61C111.685,304.164 226.189,304.141 227.226,303.586C227.968,303.189 228,302.607 228,289.456L228,275.739L227.074,274.87L226.148,274L110.939,274L110.07,274.926" style="fill:rgb(9,133,252);"/>
        <path id="path3" d="M260.489,96.223L259.6,96.845L259.6,111.574C259.6,123.93 259.693,126.379 260.178,126.782C261.008,127.47 288.59,127.472 289.419,126.784C290.413,125.959 290.271,97.17 289.269,96.262C288.195,95.291 261.871,95.255 260.489,96.223M260.623,274.489C260.087,275.254 260,277.394 260,289.8C260,302.206 260.087,304.346 260.623,305.111L261.245,306L274.994,306C289.618,306 289.97,305.955 290.016,304.071C290.332,291.108 289.982,275.043 289.368,274.365C288.712,273.64 287.96,273.6 274.961,273.6L261.245,273.6L260.623,274.489" style="fill:rgb(241,148,35);"/>
        <path id="path4" d="M26.8,0.584C26.8,0.918 26.119,1.372 25.206,1.645C24.33,1.908 23.312,2.455 22.944,2.861C22.577,3.268 22.041,3.6 21.754,3.6C21.112,3.6 16,8.509 16,9.126C16,9.371 15.661,9.753 15.246,9.975C14.831,10.197 14.373,10.852 14.228,11.43C14.083,12.007 13.615,12.957 13.187,13.54C12.759,14.123 12.227,15.572 12.004,16.76C11.78,17.949 11.373,19.191 11.099,19.522C10.138,20.679 10.191,195.168 11.152,197.98C11.57,199.201 12.035,200.949 12.185,201.864C12.335,202.78 12.805,203.843 13.229,204.226C13.653,204.61 14,205.239 14,205.624C14,207.398 21.844,215.2 23.628,215.2C23.914,215.2 24.531,215.559 24.998,215.998C25.471,216.443 26.899,216.987 28.224,217.227C29.531,217.463 30.96,217.869 31.4,218.129C32.009,218.487 68.176,218.648 182.6,218.8C265.32,218.91 333.315,219.154 333.7,219.343C334.362,219.667 334.4,223.164 334.4,284.397L334.4,349.108L333.414,349.754C332.094,350.619 65.883,350.764 65.324,349.9C65.146,349.625 64.909,339.23 64.798,326.8C64.587,303.284 64.564,302.999 62.799,302.256C61.586,301.744 16.729,302.037 15.537,302.564C13.901,303.287 13.892,303.585 14.263,342.095C14.577,374.678 14.693,379.141 15.257,380.2C15.609,380.86 16.022,382.268 16.177,383.329C16.331,384.39 16.805,385.605 17.229,386.029C17.653,386.453 18.001,387.025 18.001,387.3C18.004,388.019 19.274,389.983 20.759,391.564C21.464,392.314 22.217,393.259 22.434,393.664C22.651,394.069 23.071,394.4 23.368,394.4C23.665,394.4 24.203,394.85 24.563,395.4C24.924,395.95 25.456,396.4 25.747,396.4C26.038,396.4 26.583,396.739 26.958,397.154C27.333,397.568 28.441,398.132 29.42,398.406C30.418,398.685 31.2,399.145 31.2,399.452C31.2,399.826 31.716,400 32.829,400C35.345,400 34.779,398.865 31.75,397.834C30.402,397.375 29.052,396.797 28.75,396.55C28.447,396.302 27.66,395.821 27,395.48C25.048,394.471 21.563,390.906 19.927,388.244C16.94,383.385 16.532,380.413 16.215,361.2C16.086,353.39 15.81,337.554 15.602,326.008C15.345,311.773 15.354,304.885 15.631,304.608C15.884,304.355 21.613,304.103 30.72,303.944C61.516,303.406 61.581,303.406 62.156,304.026C62.574,304.476 62.791,309.395 63.164,326.8C63.7,351.814 63.665,351.366 65.141,351.971C67.375,352.888 334.358,352.346 335.032,351.424C335.886,350.256 335.886,218.944 335.032,217.776C334.472,217.011 332.343,216.997 182.132,216.8L29.8,216.6L26.8,215.206C18.925,211.546 13.992,205.571 12.804,198.255C12.26,194.9 12.258,22.71 12.803,19.356C13.215,16.817 15.105,12.186 16.307,10.769C18.208,8.529 22.437,4.4 22.83,4.4C23.076,4.4 23.765,4.052 24.363,3.627C24.96,3.201 25.978,2.726 26.624,2.57C30.034,1.751 31.243,0 28.4,0C27.264,0 26.8,0.169 26.8,0.584M369.271,0.7C369.355,1.158 370.253,1.686 371.873,2.229C373.233,2.684 374.583,3.247 374.873,3.479C375.163,3.71 375.94,4.178 376.6,4.517C379.874,6.201 383.889,11.302 385.908,16.341L386.974,19L387.106,55.8C387.178,76.04 387.131,93.185 387.001,93.9L386.764,95.2L363.582,95.2C350.832,95.2 340.361,95.155 340.313,95.1C340.265,95.045 340.13,84.722 340.013,72.161C339.84,53.628 339.696,49.197 339.251,48.661C338.403,47.64 61.197,47.64 60.349,48.661C59.469,49.721 59.327,167.324 60.204,168.662L60.818,169.6L360.768,169.6L364.884,170.636C367.148,171.206 369.27,171.908 369.6,172.196C369.93,172.484 370.856,172.991 371.658,173.322C374.707,174.581 379.932,180.643 381.033,184.2C381.305,185.08 381.859,186.52 382.264,187.4C382.972,188.939 383,192.632 383,284.8L383,380.6L381.71,383.641C379.218,389.516 375.787,393.865 372.2,395.692C371.32,396.141 370.51,396.637 370.4,396.796C370.29,396.954 369.48,397.303 368.6,397.571C364.245,398.898 363.338,400 366.6,400C367.871,400 368.4,399.836 368.4,399.443C368.4,399.137 368.895,398.763 369.5,398.612C371.17,398.196 375.218,395.488 376.903,393.661C377.176,393.364 377.861,392.644 378.424,392.061C381.157,389.232 383.555,384.147 384.018,380.2C384.515,375.966 384.513,194.211 384.016,189.484C383.784,187.276 383.358,185.491 382.872,184.684C382.446,183.978 381.881,182.725 381.617,181.9C381.354,181.075 380.994,180.4 380.818,180.4C380.641,180.4 380.292,179.905 380.041,179.3C379.409,177.775 373.919,172.4 372.994,172.4C372.753,172.4 371.97,171.968 371.254,171.44C370.539,170.912 369.308,170.359 368.518,170.211C367.729,170.063 366.622,169.64 366.059,169.271C365.107,168.647 354.409,168.586 213.018,168.4L61,168.2L61,109.333C61,76.957 61.104,50.363 61.231,50.236C61.667,49.8 336.784,49.963 337.599,50.399C338.334,50.793 338.367,51.638 338.481,73.036C338.596,94.506 338.627,95.284 339.376,95.832C340.727,96.82 386.838,96.663 387.738,95.669C388.344,94.999 388.399,91.832 388.387,58.169C388.373,19.986 388.258,16.763 386.841,14.961C386.378,14.373 386,13.511 385.999,13.046C385.999,12.581 385.459,11.57 384.8,10.8C384.141,10.03 383.601,9.187 383.601,8.927C383.6,8.667 383.24,8.34 382.8,8.2C382.36,8.06 382,7.768 382,7.55C382,6.583 376.34,2.356 373.911,1.509C373.3,1.296 372.8,0.869 372.8,0.561C372.8,0.161 372.273,0 370.971,0C369.446,0 369.163,0.117 369.271,0.7M107.67,96.126C106.812,97.039 106.8,97.237 106.8,110.695L106.8,124.339L107.836,125.569L108.871,126.8L167.236,126.8C225.067,126.8 225.607,126.793 226.4,126C227.628,124.772 227.652,96.27 226.426,95.614C225.903,95.334 206.696,95.2 167.096,95.2L108.539,95.2L107.67,96.126M259.862,96.331C258.822,97.481 258.857,126.043 259.9,126.832C260.496,127.282 260.525,127.278 260.1,126.801C259.719,126.374 259.6,122.735 259.6,111.543L259.6,96.845L260.489,96.223C260.978,95.88 261.186,95.6 260.951,95.6C260.716,95.6 260.226,95.929 259.862,96.331M289.295,96.226C289.922,96.972 290.001,98.469 290.1,111.626L290.21,126.2L290.4,96.924L289.5,96.162C288.602,95.402 288.602,95.402 289.295,96.226M225.5,96.252L226.4,96.493L226.4,124.82L225.374,125.21C223.418,125.954 109.378,125.721 108.629,124.971C107.806,124.149 107.666,97.294 108.48,96.48C108.988,95.972 223.621,95.749 225.5,96.252M269.125,127.499C272.493,127.566 277.893,127.566 281.125,127.499C284.356,127.432 281.6,127.377 275,127.377C268.4,127.377 265.756,127.432 269.125,127.499M110.49,273.129C108.443,273.42 108.381,273.925 108.495,289.426L108.6,303.777L109.6,304.285C111.52,305.26 227.282,304.812 228.372,303.825C229.674,302.647 229.501,275.322 228.184,274.005C227.444,273.266 115.402,272.432 110.49,273.129M260.429,274.254C259.621,275.281 259.602,275.675 259.69,289.754L259.781,304.2L259.99,289.561C260.156,277.98 260.315,274.784 260.749,274.261C261.24,273.67 262.749,273.6 275.02,273.6L288.742,273.6L289.571,274.654C290.027,275.234 290.4,275.504 290.4,275.254C290.4,273.298 289.669,273.2 275.029,273.2L261.258,273.2L260.429,274.254M227.074,274.87L228,275.739L228,289.456C228,302.607 227.968,303.189 227.226,303.586C226.189,304.141 111.685,304.164 110.226,303.61L109.2,303.22L109.2,289.536C109.2,276.036 109.212,275.839 110.07,274.926L110.939,274L226.148,274L227.074,274.87M290.178,289.6C290.178,296.31 290.232,299.055 290.299,295.7C290.366,292.345 290.366,286.855 290.299,283.5C290.232,280.145 290.178,282.89 290.178,289.6M290.04,304C289.946,305.081 289.325,305.675 287.952,305.999C286.752,306.282 286.719,306.323 287.656,306.359C289.066,306.414 290.548,305.189 290.291,304.18C290.169,303.7 290.073,303.631 290.04,304M260,304.843C260,305.634 261.661,306.539 262.647,306.286C263.185,306.148 263.092,306.08 262.323,306.046C261.701,306.02 260.982,305.624 260.623,305.111C260.174,304.471 260,304.396 260,304.843" style="fill:rgb(36,44,68);"/>
    </g>
</svg>
