<svg viewBox="0 0 1080 1080" version="1.1" xmlns="http://www.w3.org/2000/svg" xmlns:xlink="http://www.w3.org/1999/xlink">
    <g transform="matrix(2.34225,0,0,2.21651,5.917,0.50394)">
        <path d="M458.568,22.956C458.568,10.161 448.737,-0.227 436.629,-0.227L19.413,-0.227C7.304,-0.227 -2.526,10.161 -2.526,22.956L-2.526,463.842C-2.526,476.637 7.304,487.026 19.413,487.026L436.629,487.026C448.737,487.026 458.568,476.637 458.568,463.842L458.568,22.956Z" style="fill:rgb(17,24,34);"/>
    </g>
    <g transform="matrix(0.694164,0,0,0.694487,185.915,160.779)">
        <path d="M106.726,11.837L520.209,11.837C574.535,11.837 626.095,17.119 674.888,27.682C723.681,38.246 766.437,55.851 803.158,80.499C839.878,105.147 869.054,138.347 890.683,180.097C912.313,221.848 923.128,273.911 923.128,336.285C923.128,411.738 903.51,475.873 864.275,528.691C825.039,581.508 767.695,614.959 692.242,629.043L963.873,1080.25L681.678,1080.25L458.337,653.188L342.14,653.188L342.14,1080.25L106.726,1080.25L106.726,11.837ZM342.14,453.992L480.973,453.992C502.1,453.992 524.485,453.238 548.127,451.728C571.768,450.219 593.147,445.692 612.262,438.147C631.376,430.602 647.222,418.781 659.797,402.684C672.373,386.587 678.66,363.951 678.66,334.776C678.66,307.613 673.127,285.983 662.061,269.887C650.994,253.79 636.91,241.466 619.807,232.915C602.704,224.363 583.086,218.579 560.954,215.56C538.821,212.542 517.191,211.033 496.064,211.033L342.14,211.033L342.14,453.992Z" style="fill:rgb(235,86,90);fill-rule:nonzero;"/>
    </g>
    <g transform="matrix(0.97369,0,0,1.00111,38.3449,-10.9915)">
        <path d="M228.671,179.791L164.996,179.791L228.671,235.759L228.671,179.791Z" style="fill:rgb(235,86,90);"/>
    </g>
</svg>
