<svg version="1.1" id="Layer_1" xmlns="http://www.w3.org/2000/svg" xmlns:xlink="http://www.w3.org/1999/xlink" x="0px" y="0px" style="enable-background:new 0 0 612 792;" xml:space="preserve" viewBox="200.61 340.65 211.29 109.28">
<style type="text/css">
	.st0{fill:#010101;}
	.st1{fill:#FBFBFB;}
	.st2{fill:#FCFDFD;}
	.st3{fill:#FDFCFC;}
	.st4{fill:#FDFDFD;}
	.st5{fill:#020202;}
	.st6{fill:#030303;}
</style>
<path class="st0" d="M0,792C0,528,0,264,0,0c204,0,408,0,612,0c0,264,0,528,0,792C408,792,204,792,0,792z M294.27,391.89
	c0.08-0.92,0.35-1.06,0.54-1.38c2.08-3.42,3.27-8.28,3.83-14.19c0.36-3.85,0.4-7.77,0.27-11.69c-0.34-9.66-2.26-16.55-5.94-20.31
	c-2.33-2.38-4.78-3.44-7.28-3.5c-7.06-0.16-14.11-0.13-21.17-0.16c-0.41,0-0.82,0.03-1.22,0.17c-1.51,0.52-2.24,2.31-2.45,6.02
	c-0.07,1.29-0.08,2.6-0.08,3.91c0,24.62,0,49.24,0,73.87c0,5.53-0.02,11.06,0.01,16.58c0.02,4.8,0.51,6,2.47,6.23
	c0.08,0.01,0.16,0.01,0.24,0.01c7.91,0,15.83,0.08,23.74-0.06c2.74-0.05,5.44-1.04,7.97-3.96c2.87-3.32,4.73-8.69,5.47-16.34
	c0.56-5.78,0.55-11.54,0-17.31C299.85,401.02,297.86,394.78,294.27,391.89z M402.1,405.09c0.33-0.23,0.52-0.35,0.71-0.5
	c0.19-0.15,0.39-0.32,0.58-0.49c3.67-3.17,6-9.35,6.92-18.69c0.69-7.05,0.7-14.15,0.13-21.22c-0.81-10.11-3.27-16.84-7.2-20.29
	c-2.32-2.03-4.74-3.05-7.19-3.09c-7.05-0.14-14.11-0.12-21.16-0.15c-0.45,0-0.9,0.03-1.34,0.2c-1.6,0.6-2.37,2.58-2.56,6.51
	c-0.05,1.09-0.05,2.21-0.05,3.31c0,30.85,0,61.69,0,92.54c0,0.9-0.02,1.82,0.03,2.71c0.1,2.23,0.32,2.73,1.25,2.75
	c2.2,0.04,4.4-0.04,6.61,0.04c0.63,0.02,0.84-0.45,0.84-2.04c-0.03-6.83-0.01-13.66-0.01-20.5c0-3.32-0.02-6.63,0.01-9.95
	c0.04-4.25,0.81-6.65,2.45-7.95c0.43-0.34,0.87-0.54,1.31-0.65c2.89-0.73,5.79-0.1,8.68-0.4c0.82-0.08,1.22,0.67,1.6,2.39
	c2.62,11.79,5.29,23.52,7.95,35.26c0.18,0.79,0.35,1.58,0.56,2.34c0.26,0.98,0.63,1.48,1.13,1.47c2.61-0.02,5.22,0.02,7.83-0.03
	c0.67-0.01,0.87-0.85,0.64-2.36c-0.12-0.74-0.3-1.42-0.47-2.11c-1.78-7.55-3.57-15.09-5.35-22.63
	C404.72,416.21,403.46,410.83,402.1,405.09z M355.25,431.16c-9.48,0-18.77,0-28.17,0c0-3.55,0-6.85,0-10.15
	c0-3.42-0.04-6.84,0.03-10.25c0.08-4.54,0.89-6.8,2.62-7.88c0.84-0.53,1.69-0.59,2.55-0.59c2.98-0.01,5.96,0,8.93,0
	c1.02,0,2.04-0.02,3.06,0c0.58,0.01,1.06-0.41,1.29-1.8c0.78-4.7,1.55-9.42,2.33-14.19c-0.52-0.64-0.97-0.38-1.41-0.38
	c-6.12-0.02-12.24-0.02-18.36-0.01c-1.14,0-1.05,0.03-1.05-2.65c0-6.33,0-12.67,0-19c0-1.41,0.04-2.82-0.01-4.22
	c-0.05-1.53,0.22-1.98,0.78-1.83c0.24,0.06,0.49,0.01,0.73,0.01c5.51,0,11.02,0,16.52,0c2.12,0,4.24-0.06,6.36,0.03
	c0.76,0.03,1.23-0.64,1.48-2.43c0.25-1.8,0.56-3.55,0.85-5.32c0.44-2.77,0.98-5.44,1.32-8.55c-0.49,0-0.89,0-1.3,0
	c-10.32,0-20.64,0-30.97,0c-0.61,0-1.22-0.01-1.84,0.05c-2.45,0.25-3.2,2.15-3.21,8.13c0,30.06,0,60.12,0,90.17
	c0,1.21,0.02,2.4,0.12,3.6c0.18,2.19,0.72,3.57,1.56,4.22c0.5,0.39,1.03,0.58,1.57,0.58c10-0.02,19.99-0.03,29.99,0.02
	c0.9,0,1.45-0.77,1.78-2.83C353.59,441.13,354.39,436.41,355.25,431.16z M242.79,341.92c-0.33,0-0.69,0-1.05,0
	c-2.08,0-4.16,0-6.24,0c-1.69,0-1.69,0.01-1.69,4.13c0,19.19,0,38.39,0,57.58c0,2.92-0.07,5.81-0.26,8.7
	c-0.65,9.95-2.89,16.12-6.87,18.43c-3.26,1.89-6.55,1.82-9.82-0.01c-3.96-2.21-6.12-8.56-6.82-18.22c-0.22-2.98-0.27-5.98-0.27-9
	c0-19.6,0-39.19,0-58.79c0-2.83,0.17-2.83-1.09-2.82c-2.12,0.01-4.24,0-6.36,0c-1.69,0-1.69,0.01-1.69,4.09
	c0,18.99-0.01,37.99,0,56.98c0,4.12,0.05,8.23,0.32,12.32c1.03,15.63,4.53,26.07,10.65,31.09c2.41,1.98,4.91,2.92,7.43,3.3
	c4.13,0.62,8.23,0.12,12.23-2.76c5.68-4.09,9.48-12.84,10.98-27.21c0.54-5.2,0.68-10.49,0.68-15.83c0-19.6,0-39.19-0.01-58.79
	C242.92,344.12,243,343.1,242.79,341.92z"></path>
<path class="st1" d="M294.27,391.89c3.59,2.9,5.59,9.13,6.41,17.9c0.54,5.77,0.56,11.53,0,17.31c-0.75,7.65-2.6,13.02-5.47,16.34
	c-2.53,2.92-5.23,3.91-7.97,3.96c-7.91,0.14-15.82,0.06-23.74,0.06c-0.08,0-0.16,0-0.24-0.01c-1.96-0.23-2.45-1.43-2.47-6.23
	c-0.02-5.53-0.01-11.06-0.01-16.58c0-24.62,0-49.24,0-73.87c0-1.3,0.01-2.62,0.08-3.91c0.2-3.7,0.94-5.49,2.45-6.02
	c0.4-0.14,0.81-0.17,1.22-0.17c7.06,0.03,14.11,0,21.17,0.16c2.5,0.06,4.94,1.12,7.28,3.5c3.68,3.76,5.6,10.65,5.94,20.31
	c0.14,3.92,0.1,7.84-0.27,11.69c-0.56,5.9-1.75,10.77-3.83,14.19C294.62,390.83,294.35,390.97,294.27,391.89z M278.59,430.87
	c0,0,0-0.01,0-0.01c2.28,0,4.56,0.01,6.85-0.01c1.06-0.01,2.12-0.11,3.15-0.8c1.73-1.16,2.83-3.82,3.19-8.2
	c0.29-3.58,0.3-7.19,0-10.77c-0.32-3.83-1.21-6.46-2.75-7.74c-1.06-0.87-2.15-1.11-3.25-1.11c-3.75-0.01-7.5-0.01-11.25,0
	c-0.69,0-1.38,0.03-2.07,0.38c-2.22,1.16-2.99,3.34-3.02,8.87c-0.03,5.72-0.01,11.45,0,17.17c0,2.18,0.02,2.2,0.96,2.21
	C273.13,430.88,275.86,430.87,278.59,430.87z M277.7,385.69c1.92,0,3.83,0.02,5.75-0.01c0.73-0.01,1.47-0.06,2.2-0.27
	c2.7-0.75,4.07-4.4,4.2-11.11c0.03-1.7,0.03-3.42-0.01-5.12c-0.17-5.95-1.31-9.13-3.66-10.44c-0.52-0.29-1.04-0.47-1.57-0.47
	c-4.81-0.03-9.63,0-14.44-0.08c-0.63-0.01-0.74,0.57-0.73,1.93c0.02,7.84,0,15.68,0.01,23.52c0,2,0.02,2.03,0.92,2.04
	C272.81,385.7,275.26,385.69,277.7,385.69z"></path>
<path class="st2" d="M402.1,405.09c1.35,5.74,2.62,11.11,3.88,16.48c1.78,7.55,3.57,15.09,5.35,22.63c0.16,0.69,0.35,1.37,0.47,2.11
	c0.23,1.5,0.03,2.34-0.64,2.36c-2.61,0.05-5.22,0.01-7.83,0.03c-0.5,0-0.87-0.49-1.13-1.47c-0.2-0.75-0.38-1.55-0.56-2.34
	c-2.66-11.74-5.33-23.47-7.95-35.26c-0.38-1.72-0.78-2.47-1.6-2.39c-2.89,0.3-5.79-0.33-8.68,0.4c-0.45,0.11-0.88,0.31-1.31,0.65
	c-1.64,1.3-2.41,3.7-2.45,7.95c-0.03,3.31-0.01,6.63-0.01,9.95c0,6.83-0.02,13.67,0.01,20.5c0.01,1.59-0.2,2.06-0.84,2.04
	c-2.2-0.08-4.4,0-6.61-0.04c-0.94-0.02-1.15-0.52-1.25-2.75c-0.04-0.89-0.03-1.81-0.03-2.71c0-30.85,0-61.69,0-92.54
	c0-1.1,0-2.22,0.05-3.31c0.19-3.93,0.97-5.91,2.56-6.51c0.44-0.17,0.89-0.2,1.34-0.2c7.05,0.03,14.11,0.01,21.16,0.15
	c2.45,0.05,4.87,1.06,7.19,3.09c3.93,3.44,6.38,10.18,7.2,20.29c0.57,7.07,0.56,14.17-0.13,21.22c-0.92,9.34-3.25,15.52-6.92,18.69
	c-0.19,0.17-0.38,0.34-0.58,0.49C402.63,404.74,402.44,404.86,402.1,405.09z M388.21,358.35c-2.57,0-5.14-0.01-7.71,0.01
	c-0.84,0.01-0.86,0.04-0.86,2.16c-0.01,9.34,0,18.69,0,28.03c0,2.32,0,2.27,0.96,2.26c4.81-0.02,9.62,0.02,14.43-0.04
	c0.85-0.01,1.71-0.22,2.55-0.58c2.31-0.99,3.51-3.93,3.95-9.6c0.32-4.18,0.3-8.39-0.03-12.57c-0.36-4.59-1.46-7.48-3.3-8.69
	c-0.99-0.65-1.99-0.97-3.02-0.97C392.86,358.35,390.53,358.35,388.21,358.35z"></path>
<path class="st3" d="M355.25,431.16c-0.86,5.25-1.66,9.97-2.42,14.73c-0.33,2.07-0.88,2.84-1.78,2.83
	c-10-0.05-19.99-0.04-29.99-0.02c-0.54,0-1.06-0.19-1.57-0.58c-0.84-0.66-1.38-2.03-1.56-4.22c-0.1-1.19-0.12-2.39-0.12-3.6
	c0-30.06,0-60.12,0-90.17c0-5.98,0.76-7.88,3.21-8.13c0.61-0.06,1.22-0.05,1.84-0.05c10.32,0,20.64,0,30.97,0c0.4,0,0.81,0,1.3,0
	c-0.34,3.11-0.88,5.79-1.32,8.55c-0.28,1.77-0.6,3.52-0.85,5.32c-0.25,1.79-0.71,2.46-1.48,2.43c-2.12-0.08-4.24-0.03-6.36-0.03
	c-5.51,0-11.02,0-16.52,0c-0.24,0-0.49,0.05-0.73-0.01c-0.56-0.14-0.83,0.3-0.78,1.83c0.05,1.4,0.01,2.81,0.01,4.22
	c0,6.33,0,12.67,0,19c0,2.68-0.09,2.65,1.05,2.65c6.12-0.01,12.24-0.01,18.36,0.01c0.43,0,0.89-0.26,1.41,0.38
	c-0.78,4.77-1.55,9.49-2.33,14.19c-0.23,1.39-0.72,1.81-1.29,1.8c-1.02-0.02-2.04,0-3.06,0c-2.98,0-5.96,0-8.93,0
	c-0.86,0-1.71,0.07-2.55,0.59c-1.74,1.09-2.54,3.34-2.62,7.88c-0.06,3.41-0.02,6.83-0.03,10.25c0,3.3,0,6.6,0,10.15
	C336.48,431.16,345.77,431.16,355.25,431.16z"></path>
<path class="st4" d="M242.79,341.92c0.21,1.17,0.13,2.19,0.13,3.18c0.01,19.6,0,39.19,0.01,58.79c0,5.34-0.14,10.64-0.68,15.83
	c-1.5,14.37-5.3,23.12-10.98,27.21c-4,2.88-8.1,3.39-12.23,2.76c-2.53-0.38-5.02-1.32-7.43-3.3c-6.12-5.02-9.62-15.46-10.65-31.09
	c-0.27-4.09-0.32-8.2-0.32-12.32c-0.01-18.99,0-37.99,0-56.98c0-4.09,0-4.09,1.69-4.09c2.12,0,4.24,0.01,6.36,0
	c1.26-0.01,1.09-0.01,1.09,2.82c0,19.6,0,39.19,0,58.79c0,3.02,0.05,6.02,0.27,9c0.7,9.66,2.86,16.01,6.82,18.22
	c3.27,1.83,6.56,1.9,9.82,0.01c3.99-2.31,6.23-8.47,6.87-18.43c0.19-2.89,0.26-5.78,0.26-8.7c0-19.19,0-38.39,0-57.58
	c0-4.12,0-4.13,1.69-4.13c2.08,0,4.16,0,6.24,0C242.1,341.92,242.46,341.92,242.79,341.92z"></path>
<path class="st5" d="M278.59,430.87c-2.73,0-5.46,0.01-8.19,0c-0.95,0-0.96-0.03-0.96-2.21c-0.01-5.72-0.03-11.45,0-17.17
	c0.03-5.52,0.8-7.71,3.02-8.87c0.68-0.36,1.38-0.38,2.07-0.38c3.75-0.02,7.5-0.01,11.25,0c1.1,0,2.19,0.24,3.25,1.11
	c1.54,1.27,2.43,3.9,2.75,7.74c0.3,3.58,0.29,7.19,0,10.77c-0.36,4.38-1.46,7.04-3.19,8.2c-1.03,0.69-2.09,0.79-3.15,0.8
	c-2.28,0.02-4.56,0.01-6.85,0.01C278.59,430.86,278.59,430.86,278.59,430.87z"></path>
<path class="st5" d="M277.7,385.69c-2.45,0-4.9,0.01-7.34-0.01c-0.9-0.01-0.92-0.04-0.92-2.04c-0.01-7.84,0.01-15.68-0.01-23.52
	c0-1.37,0.11-1.94,0.73-1.93c4.81,0.08,9.63,0.05,14.44,0.08c0.53,0,1.05,0.18,1.57,0.47c2.35,1.31,3.49,4.49,3.66,10.44
	c0.05,1.7,0.04,3.42,0.01,5.12c-0.12,6.71-1.5,10.36-4.2,11.11c-0.73,0.2-1.47,0.25-2.2,0.27
	C281.54,385.71,279.62,385.69,277.7,385.69z"></path>
<path class="st6" d="M388.21,358.35c2.32,0,4.65,0,6.97,0c1.02,0,2.03,0.32,3.02,0.97c1.84,1.21,2.93,4.1,3.3,8.69
	c0.33,4.19,0.36,8.39,0.03,12.57c-0.44,5.67-1.64,8.6-3.95,9.6c-0.84,0.36-1.7,0.57-2.55,0.58c-4.81,0.06-9.62,0.02-14.43,0.04
	c-0.95,0-0.96,0.05-0.96-2.26c0.01-9.34,0-18.69,0-28.03c0-2.12,0.02-2.15,0.86-2.16C383.07,358.34,385.64,358.35,388.21,358.35z"></path>
</svg>
