<svg viewBox="0 0 192 192" fill="none" xmlns="http://www.w3.org/2000/svg">
    <rect width="192" height="191.965" fill="#2E4153" />
    <rect x="31" y="25" width="134" height="167" fill="white" />
    <path fill-rule="evenodd" clip-rule="evenodd"
        d="M7.761 2.02667C5.476 3.23367 3.24 5.53367 2.011 7.94267C0.0439999 11.7997 0 13.7047 0 95.9647C0 178.259 0.043 180.129 2.013 183.991C5.289 190.412 9.563 191.965 23.96 191.965H36V117.925C36 45.1017 36.034 43.8187 38.063 39.8407C41.217 33.6597 46.764 31.5757 58.436 32.1857C64.02 32.4777 68.725 33.2887 70.667 34.2927C74.552 36.3017 78 40.5377 78 43.3027C78 45.1177 78.458 44.9287 81.75 41.7527C86.948 36.7387 92.268 34.2487 100.754 32.8587C116.643 30.2557 130.941 35.7587 145.13 49.9377C152.382 57.1847 154.487 60.0717 158.315 68.0137C163.945 79.6917 165.427 87.0097 164.74 99.7297C163.825 116.671 158.126 129.481 146 141.853C133.376 154.733 122.29 159.965 107.621 159.965C97.408 159.965 88.398 157.423 82.873 152.983L79 149.871V170.918V191.965H129.54C178.219 191.965 180.225 191.891 184.026 189.952C186.567 188.656 188.691 186.532 189.987 183.991C191.957 180.129 192 178.259 192 95.9647C192 13.6707 191.957 11.8007 189.987 7.93867C188.691 5.39767 186.567 3.27367 184.026 1.97767C180.161 0.00666559 178.339 -0.0343344 95.79 0.00866561C13.844 0.0516656 11.396 0.107666 7.761 2.02667ZM93.637 76.4297C76.752 82.4487 75.404 107.229 91.5 115.727C95.498 117.838 105.556 117.805 109.644 115.667C113.962 113.409 119.012 108.18 120.643 104.277C125.289 93.1567 118.167 79.0067 106.436 76.0527C100.896 74.6577 98.401 74.7317 93.637 76.4297Z"
        fill="#2E4153" />
    <rect x="79" y="175" width="98" height="17" fill="#2E4153" />
</svg>