<svg xmlns="http://www.w3.org/2000/svg" viewBox="0 0 192.756 192.756">
  <g fill-rule="evenodd" clip-rule="evenodd">
    <path fill="#fff" fill-opacity="0" d="M0 0h192.756v192.756H0V0z"/>
    <path d="M96.203 131.732c51.643 0 93.514-15.808 93.514-35.355 0-19.547-41.871-35.415-93.514-35.415-51.703 0-93.574 15.868-93.574 35.415 0 19.548 41.871 35.355 93.574 35.355z" fill="#425e99"/>
    <path d="M96.203 128.112c-49.592 0-89.893-14.118-89.893-31.735 0-17.556 40.301-31.855 89.893-31.855 49.713 0 89.953 14.299 89.953 31.855 0 17.617-40.24 31.735-89.953 31.735z" fill="#fff"/>
    <path d="M96.203 125.639c48.084 0 87.117-13.092 87.117-29.262 0-16.108-39.033-29.2-87.117-29.2-48.144 0-87.058 13.092-87.058 29.2.001 16.17 38.914 29.262 87.058 29.262z" fill="#425e99"/>
    <path d="M119.01 102.229c4.102-3.861 6.393-7.903 12.307-7.843 3.559.06 4.463 2.896 5.066 4.103l7.783-13.152h4.766l-12.91 22.866c-.242.482-.846 1.387-.785 2.111.123 1.146 1.57.845 1.027.845 2.594-.121 7.359-5.068 8.506-6.274.24-.303.664-.845.904-.845.242 0 .725.241.725.603 0 .242-.543 1.146-.965 1.689-2.414 3.017-6.395 7.662-10.92 7.783-2.232 0-3.078-.905-3.379-2.654-1.025.904-4.525 2.473-8.084 2.473-2.957-.06-4.164-1.81-4.766-3.197-.543-1.146-.785-2.835-.363-4.524-1.629.845-3.137.965-5.309.905-2.535-.061-4.104-1.207-4.887-4.164-2.896 5.31-3.018 5.49-5.973 11.041h-5.128l6.576-11.161c.846-1.509 1.268-2.715 1.568-3.981.182-.725-.361-1.389-1.146-1.448-.844 0-2.23.845-3.559 2.111 0 0-3.378 3.62-5.852 7.3-2.354 3.5-6.395 7.481-10.799 7.481-3.198 0-6.094-1.749-6.697-5.128 0 0-.302.784-3.138 2.413-.241.12-.844.482-1.024.362-.544-.482-.845-1.086-.906-1.509.181.061.543-.241 1.689-1.146 2.232-1.689 2.715-3.018 2.715-3.018.542-1.146 1.509-2.956 2.172-4.223 1.811-3.62 4.947-7.3 10.075-7.481.845 0 1.086.362 1.267.664.482.362.302 1.086.302 1.086-3.62.543-6.093 2.654-7.602 4.706-.904 1.327-1.87 3.499-2.051 5.067-.362 2.715.905 4.524 2.775 4.947 3.499.543 6.395-1.991 8.688-5.912.604-1.026 1.026-3.681 1.026-5.129s-.785-2.956-1.388-3.56c0-1.025.663-1.689 1.447-1.689.241 0 .483 0 .724.241 1.207 1.207 1.871 3.5 1.871 5.249 0 .604 0 1.207-.121 1.811 2.534-3.077 5.731-7.059 8.206-7.843.482-.241.965-.241 1.447-.241 4.525-.121 3.922 3.982 3.922 3.982 2.412-2.775 4.102-3.801 6.334-3.681 2.414.121 3.258 1.811 3.258 3.138-.061 1.568-1.205 3.378-3.195 3.438-1.752 0-2.777-.845-3.32-2.413-1.146.423-1.688 1.207-1.93 2.775-.363 1.991 1.146 3.56 3.076 3.56 3.319.001 4.768-1.448 5.975-2.534zM122.629 76.227c0 1.931-6.758 5.611-12.49 5.611-8.928 0-18.219-4.284-22.501-5.249-4.646-1.086-8.869-1.991-12.188-1.991-11.644 0-16.833 5.008-16.591 9.593.121 1.87 1.628 3.077 3.861 2.654 2.414-.422 5.792-2.715 6.637-4.706.181-.422.664-.483.845-.362.362.302.241.724.241.724-.302 2.353-3.922 8.869-10.196 8.869-3.499 0-5.852-3.258-5.792-6.456.06-5.973 6.154-12.006 21.176-12.006 2.835 0 6.033.241 9.533.845 4.041.724 14.116 2.413 22.321 2.534 3.018 0 6.879.121 10.016-.362 3.318-.543 2.594-.664 3.922-.664 1.206 0 1.206.483 1.206.966z" fill="#fff"/>
    <path d="M131.559 97.222c-2.113-.241-4.768 1.569-6.939 4.224-1.086 1.327-2.232 3.861-2.414 5.369-.24 1.509.182 3.017.725 3.439.543.422 2.957 1.689 6.697-2.111 2.111-2.112 4.162-5.551 4.162-5.551l-.664-.182c1.267-2.352 1.024-4.887-1.567-5.188z" fill="#425e99"/>
    <path d="M87.456 90.103c0 .664.904 1.207 1.689 1.268-.181.663-.121.965-.422.905-1.81 0-2.534-1.75-2.534-1.75-2.412.422-4.765.724-9.532 1.207-12.006 19.427-15.746 22.625-23.107 22.625-5.249 0-9.894-3.439-10.015-9.593-.061-3.74 2.956-8.326 8.567-9.714.664 0 .905.242.905.604 0 .242-.241.543-.785.784-1.629.604-4.464 3.801-4.464 6.758 0 2.232 1.388 4.706 3.74 5.248.664.182 1.268.121 1.871.121 5.852 0 12.428-6.576 19.547-16.591-1.146.06-6.033.604-7.24 1.991-.542.422-.904.181-1.025-.302 0-.121.181-.543.363-.785 1.93-2.172 7.722-2.654 9.109-2.835 5.43-8.326 12.428-13.515 13.876-13.454.241 0 .785.362.543.965-.061.121-.664.784-.904.965-1.207 1.086-5.31 3.741-9.774 11.282 3.62-.181 7.843-.905 7.843-.905s-.241-.784-.241-1.448c.181-2.594 1.689-4.163 3.62-3.861 1.087.181 1.81 1.086 1.81 2.051 0 1.026-.784 2.534-1.569 3.258-.544.421-1.148.844-1.871 1.206z" fill="#fff"/>
    <path d="M87.153 88.775s.604.061 1.508-.965c.362-.362.966-1.448.845-2.172-.061-.362-.241-.784-.663-.724-.906.182-1.449.604-1.69 1.509-.301.965-.18 1.629 0 2.352z" fill="#425e99"/>
  </g>
</svg>
