<svg xmlns="http://www.w3.org/2000/svg" version="1.1" viewBox="0 0.3 31.26 31.71">

 <!-- <path d="m134.4 18.2v-8.2h-2.3v-2.7h2.4v-5.1h3.3v5.1h4.3v2.7h-4.3v7.8c0 0.7 0.1 1.3 0.3 1.8s0.4 0.9 0.7 1.2 0.6 0.5 0.9 0.7c0.4 0.2 0.7 0.3 1 0.3s0.6 0.1 0.9 0.1l0.8-0.1v3c-0.3 0-0.7 0.1-1.2 0.1-0.6 0-1.1 0-1.6-0.1s-1.1-0.2-1.7-0.5c-0.7-0.3-1.2-0.6-1.7-1.1s-0.9-1.1-1.2-1.9c-0.4-1-0.6-1.9-0.6-3.1zm-14.1 6.5v-17.7h3.3v3.1l-0.1 1.3h0.1c0.4-1.3 1.1-2.5 2.1-3.3 1-0.9 2.1-1.3 3.5-1.3l0.9 0.1v3.3c-0.3-0.1-0.6-0.1-1-0.1-1.1 0-2.1 0.4-3 1.1s-1.6 1.8-2 3c-0.3 0.9-0.4 2-0.4 3.2v7.2l-3.4 0.1zm-18.9-8.8c0-2.8 0.8-5 2.5-6.7s3.8-2.5 6.3-2.5c2.4 0 4.3 0.8 5.6 2.3 1.3 1.6 2 3.5 2 5.9l-0.1 1.5h-12.9c0.1 1.9 0.7 3.3 1.9 4.3s2.6 1.5 4.2 1.5c0.9 0 1.8-0.2 2.7-0.5s1.5-0.7 1.9-1l0.6-0.5 1.4 2.5c-0.2 0.2-0.5 0.4-0.8 0.7-0.4 0.3-1.2 0.7-2.3 1.1-1.2 0.5-2.4 0.7-3.7 0.7-2.7 0-5-0.9-6.7-2.6-1.7-1.9-2.6-4.1-2.6-6.7zm3.6-2.1h9.4c0-1.5-0.5-2.6-1.3-3.3-0.8-0.8-1.8-1.2-3-1.2-1.3 0-2.5 0.4-3.4 1.2s-1.4 1.9-1.7 3.3zm-20.5 2.1c0-2.6 0.9-4.8 2.7-6.6s4-2.7 6.8-2.7c1.3 0 2.5 0.2 3.6 0.6s1.9 0.9 2.4 1.3l0.7 0.6-1.6 2.4-0.6-0.6c-0.3-0.2-0.8-0.5-1.7-0.9-0.8-0.4-1.7-0.6-2.6-0.6-1.8 0-3.2 0.6-4.4 1.8s-1.7 2.7-1.7 4.5 0.6 3.3 1.8 4.5 2.7 1.8 4.5 1.8c1 0 1.9-0.2 2.8-0.6s1.6-0.8 2-1.2l0.6-0.6 1.4 2.5-0.3 0.3c-0.1 0.1-0.4 0.4-0.9 0.7-0.4 0.3-0.9 0.6-1.4 0.9-0.5 0.2-1.2 0.5-2 0.7s-1.6 0.3-2.5 0.3c-2.8 0-5-0.9-6.8-2.6-1.9-1.7-2.8-3.9-2.8-6.5zm-5.9-12.4v-3.5h3.4v3.5h-3.4zm0.1 21.2v-17.7h3.4v17.7h-3.4zm-16.7 3.2c1.5 0.8 3.1 1.2 4.8 1.2s3-0.4 4-1.2 1.5-2.1 1.5-3.8v-1.3-1.1h-0.1c-1.1 1.8-2.8 2.8-5.2 2.8s-4.3-0.9-5.7-2.6-2.1-3.9-2.1-6.5 0.7-4.7 2.1-6.4c1.4-1.6 3.3-2.5 5.7-2.5 0.8 0 1.5 0.1 2.2 0.3s1.2 0.4 1.6 0.7 0.7 0.5 1 0.8 0.5 0.5 0.6 0.7l0.2 0.2h0.1v-0.6-1.6h3.2v16.9c0 1.4-0.3 2.6-0.7 3.7-0.5 1.1-1.2 1.9-2 2.5-1 0.7-2 1.2-3 1.5s-2.1 0.5-3.3 0.5c-2.1 0-4.1-0.5-6-1.5l1.1-2.7zm5.8-6.4c1.4 0 2.5-0.5 3.4-1.4 0.9-1 1.3-2.5 1.3-4.6 0-4-1.7-5.9-5-5.9-1.5 0-2.7 0.5-3.5 1.6-0.8 1-1.3 2.5-1.3 4.3 0 1.9 0.5 3.4 1.4 4.5 0.9 1 2.2 1.5 3.7 1.5zm-14.4-18v-3.5h3.4v3.5h-3.4zm0.1 21.2v-17.7h3.4v17.7h-3.4zm-19.7-8.8c0-2.8 0.7-5 2.2-6.7s3.4-2.5 5.8-2.5c0.8 0 1.5 0.1 2.1 0.3 0.7 0.2 1.2 0.4 1.6 0.7s0.7 0.6 1 0.8c0.3 0.3 0.5 0.5 0.6 0.7l0.1 0.3h0.1c0-0.3-0.1-0.7-0.1-1.2v-8.2h3.4v24.6h-3.2v-1.7-1.2h-0.1c0 0.1-0.1 0.2-0.2 0.3s-0.3 0.4-0.6 0.8-0.7 0.7-1.1 1-1 0.6-1.7 0.8-1.5 0.3-2.3 0.3c-2.4 0-4.3-0.8-5.7-2.5-1.2-1.6-1.9-3.9-1.9-6.6zm3.4 0c0 1.9 0.5 3.4 1.4 4.6s2.1 1.7 3.6 1.7c1.4 0 2.7-0.5 3.6-1.6 1-1.1 1.5-2.6 1.5-4.8 0-1.7-0.4-3.2-1.3-4.4s-2.1-1.9-3.7-1.9c-1.4 0-2.7 0.6-3.6 1.7-1 1.2-1.5 2.7-1.5 4.7z" style="fill:#1974bb"/> -->
 <path class="st0" d="m31.21 18.4c-0.5-5.8-4.5-9.7-7.6-13.9 1.3-1.9 4.2-1.3 6.3-0.9-2.7-1.9-5.9-3-9.3-3.3-6.5-0.1-11.7 3.7-16.5 7.9-2.9-0.9-0.9-4-0.9-6.2-2.5 3.4-3.3 7.2-3.2 11.1 0.1 3.5 1.6 6.9 3.6 10l4.2 4.8c-1.4 2.3-4.2 1.3-6.3 0.9 3.4 2.5 7.2 3.3 11.1 3.2 3.5-0.1 6.9-1.6 9.9-3.6l4.8-4.2c1.4 1.6 1.7 4.3 0.9 6.3 2.4-3.4 3.3-7.6 3-12.1zm-4.6 0.2c-1.2 1.5-2.7 3.3-2.7 3.3-1.5 1.7-2.8 2.5-3.4 3-2 1.5-4.5 2.4-7 2.5h-0.6l-2.9-2.9c-0.9-1.1-1.7-1.6-2.9-3.3-1.5-2.1-2.4-4.5-2.5-7v-0.8-0.1l2.8-2.5c3.3-2.9 6.9-5.5 11.4-5.5h0.2l2.2 2.9c2.1 2.9 4.9 5.7 5.3 9.7 0 0 0.1 0.6 0.1 0.7z" style="fill:#1974bb"/>
 <!-- <path d="m144.9 5.4v-3.8h1.2c0.3 0 0.6 0 0.7 0.1 0.2 0.1 0.4 0.2 0.5 0.4s0.2 0.4 0.2 0.7c0 0.2-0.1 0.5-0.2 0.6-0.1 0.2-0.3 0.3-0.5 0.4 0 0 0.1 0.1 0.1 0.2l0.8 1.5h-0.6l-0.8-1.5h-0.8v1.5h-0.6v-0.1zm0.6-2h0.8c0.2 0 0.4-0.1 0.5-0.2s0.2-0.3 0.2-0.5c0-0.3-0.1-0.5-0.3-0.6-0.1-0.1-0.3-0.1-0.5-0.1h-0.6l-0.1 1.4zm0.6-3.4c-1.9 0-3.5 1.5-3.5 3.5 0 1.9 1.5 3.5 3.5 3.5 1.9 0 3.5-1.6 3.5-3.5s-1.6-3.5-3.5-3.5m0 6.3c-1.5 0-2.8-1.2-2.8-2.8 0-1.5 1.2-2.8 2.8-2.8 1.5 0 2.8 1.2 2.8 2.8 0 1.5-1.2 2.8-2.8 2.8" style="fill:#1974bb"/> -->
</svg>