<svg xmlns="http://www.w3.org/2000/svg" xmlns:xlink="http://www.w3.org/1999/xlink" id="svg" version="1.1" viewBox="0.18 0.18 399.77 399.77"><g id="svgg"><path id="path0" d="M243.945 94.539 C 237.010 95.319,223.186 98.580,219.596 100.283 C 215.977 102.001,180.859 137.323,180.859 139.246 C 180.859 139.978,180.278 140.020,185.842 138.887 C 199.027 136.201,219.050 132.952,231.719 131.443 C 241.327 130.297,240.869 129.300,241.136 151.953 C 241.387 173.359,242.404 188.864,243.540 188.598 C 243.824 188.531,246.280 185.427,248.998 181.699 C 256.669 171.180,267.090 158.145,275.746 148.242 C 278.351 145.262,278.652 144.503,279.317 139.258 C 281.217 124.260,278.114 106.699,272.458 100.439 C 268.330 95.870,255.581 93.232,243.945 94.539 M220.508 140.677 C 211.662 141.991,206.607 142.830,199.414 144.175 C 187.292 146.443,172.635 149.606,171.241 150.255 C 168.388 151.583,145.215 181.335,134.628 197.260 C 133.615 198.783,133.203 199.833,133.203 200.886 C 133.203 204.534,136.559 223.962,138.911 233.929 L 139.865 237.975 137.149 246.234 C 131.550 263.258,120.324 304.074,121.043 304.793 C 121.218 304.968,122.821 305.060,124.605 304.997 L 127.848 304.883 130.279 298.438 C 150.505 244.827,182.303 191.323,220.434 146.741 C 226.368 139.803,226.368 139.806,220.508 140.677 M230.796 147.724 C 217.892 161.536,196.067 190.978,181.765 213.867 C 169.331 233.765,153.421 263.672,155.268 263.672 C 155.372 263.672,158.053 262.637,161.225 261.373 C 173.837 256.345,194.776 249.105,206.481 245.726 C 209.837 244.757,209.730 244.873,213.493 238.086 C 218.409 229.221,229.710 210.175,235.553 200.909 C 236.010 200.184,235.961 198.508,235.219 189.386 C 233.855 172.620,233.222 162.930,232.944 154.574 C 232.663 146.113,232.572 145.823,230.796 147.724 M179.688 262.451 C 170.183 265.720,157.212 270.740,153.441 272.608 L 150.586 274.023 147.779 280.664 C 146.235 284.316,144.961 287.437,144.947 287.598 C 144.883 288.343,146.658 287.642,152.871 284.468 C 156.556 282.586,163.525 279.202,168.359 276.949 C 173.193 274.695,178.555 272.148,180.273 271.289 L 183.398 269.727 185.803 265.040 C 187.993 260.774,188.354 259.704,187.575 259.798 C 187.426 259.816,183.877 261.009,179.688 262.451 " stroke="none" fill="#fbfbfb" fill-rule="evenodd"/><path id="path1" d="M0.195 200.000 L 0.195 399.609 200.000 399.609 L 399.805 399.609 399.805 200.000 L 399.805 0.391 200.000 0.391 L 0.195 0.391 0.195 200.000 M259.416 94.320 C 274.465 96.589,280.101 106.135,280.064 129.297 C 280.044 141.794,279.345 144.958,275.709 149.023 C 268.162 157.461,256.827 171.732,246.930 185.254 C 244.254 188.910,243.359 189.619,242.721 188.587 C 241.806 187.106,239.893 145.570,240.420 138.623 C 240.961 131.502,239.930 130.904,229.469 132.262 C 216.158 133.991,199.198 136.695,189.920 138.569 C 180.756 140.420,180.127 140.452,180.084 139.062 C 180.040 137.610,215.711 101.767,218.781 100.179 C 227.416 95.714,248.498 92.674,259.416 94.320 M225.680 140.625 C 225.736 140.947,224.266 142.969,222.413 145.117 C 182.661 191.213,149.217 247.802,128.741 303.613 L 128.060 305.469 124.382 305.469 L 120.703 305.469 120.703 304.179 C 120.703 302.738,122.547 295.000,125.004 286.133 C 125.897 282.910,127.321 277.641,128.168 274.425 C 129.826 268.130,135.339 249.946,137.846 242.503 L 139.385 237.935 138.621 234.955 C 136.612 227.111,132.813 204.976,132.813 201.113 C 132.813 199.283,133.038 198.762,135.226 195.543 C 145.660 180.188,167.425 152.108,170.311 150.277 C 172.430 148.933,194.497 144.281,211.523 141.589 C 222.671 139.826,225.509 139.633,225.680 140.625 M233.316 152.539 C 233.650 159.328,234.731 175.937,235.810 190.860 L 236.491 200.275 233.148 205.704 C 225.376 218.326,216.195 233.951,212.375 241.057 C 209.955 245.558,211.221 244.948,192.969 250.403 C 187.633 251.998,171.720 257.747,163.229 261.147 C 152.527 265.433,152.721 265.827,159.197 252.958 C 176.829 217.924,199.075 184.452,225.778 152.779 C 233.085 144.112,232.901 144.117,233.316 152.539 M188.514 259.917 C 188.742 260.511,184.378 269.508,183.532 270.189 C 183.244 270.421,178.789 272.579,173.633 274.986 C 168.477 277.392,159.993 281.465,154.780 284.036 C 142.761 289.964,143.209 290.188,147.453 280.384 C 150.894 272.435,149.694 273.519,159.491 269.504 C 174.539 263.337,188.106 258.856,188.514 259.917 " stroke="none" fill="#23cc9c" fill-rule="evenodd"/><path id="path2" d="M210.730 107.520 L 208.398 109.961 210.840 107.629 C 212.183 106.347,213.281 105.248,213.281 105.188 C 213.281 104.899,212.896 105.252,210.730 107.520 M191.589 126.660 L 189.258 129.102 191.699 126.770 C 193.967 124.604,194.319 124.219,194.031 124.219 C 193.970 124.219,192.872 125.317,191.589 126.660 M185.526 133.105 L 184.180 134.570 185.645 133.224 C 187.008 131.971,187.289 131.641,186.991 131.641 C 186.925 131.641,186.266 132.300,185.526 133.105 M230.830 147.168 L 229.883 148.242 230.928 147.322 C 232.420 146.010,232.802 146.518,232.890 149.925 L 232.968 152.930 233.103 150.062 C 233.289 146.132,232.560 145.205,230.830 147.168 M168.921 151.660 L 167.773 152.930 169.043 151.782 C 169.741 151.151,170.313 150.580,170.313 150.513 C 170.313 150.211,169.990 150.477,168.921 151.660 M240.750 158.984 C 240.750 160.381,240.821 160.952,240.908 160.254 C 240.994 159.556,240.994 158.413,240.908 157.715 C 240.821 157.017,240.750 157.588,240.750 158.984 M233.320 159.766 C 233.320 160.947,233.393 161.431,233.483 160.840 C 233.572 160.249,233.572 159.282,233.483 158.691 C 233.393 158.101,233.320 158.584,233.320 159.766 M233.700 166.797 C 233.700 167.764,233.776 168.159,233.869 167.676 C 233.963 167.192,233.963 166.401,233.869 165.918 C 233.776 165.435,233.700 165.830,233.700 166.797 M241.106 168.359 C 241.106 169.111,241.187 169.419,241.285 169.043 C 241.383 168.667,241.383 168.052,241.285 167.676 C 241.187 167.300,241.106 167.607,241.106 168.359 M244.315 188.315 C 244.171 188.549,243.720 188.653,243.315 188.547 C 242.909 188.441,242.676 188.513,242.796 188.708 C 243.129 189.247,243.987 189.132,244.531 188.477 C 244.799 188.154,244.918 187.891,244.797 187.891 C 244.676 187.891,244.459 188.082,244.315 188.315 M120.959 305.176 C 121.058 305.337,122.613 305.469,124.414 305.469 C 126.215 305.469,127.770 305.337,127.869 305.176 C 127.969 305.015,126.414 304.883,124.414 304.883 C 122.414 304.883,120.859 305.015,120.959 305.176 " stroke="none" fill="#73e0be" fill-rule="evenodd"/><path id="path3" d="M99.902 0.293 C 154.956 0.348,245.044 0.348,300.098 0.293 C 355.151 0.238,310.107 0.194,200.000 0.194 C 89.893 0.194,44.849 0.238,99.902 0.293 M0.194 200.000 C 0.194 309.463,0.238 354.243,0.293 299.512 C 0.348 244.780,0.348 155.220,0.293 100.488 C 0.238 45.757,0.194 90.537,0.194 200.000 M399.803 200.000 C 399.803 309.463,399.848 354.243,399.902 299.512 C 399.957 244.780,399.957 155.220,399.902 100.488 C 399.848 45.757,399.803 90.537,399.803 200.000 M247.577 94.041 C 249.360 94.113,252.172 94.113,253.827 94.040 C 255.482 93.967,254.023 93.908,250.586 93.908 C 247.148 93.909,245.794 93.968,247.577 94.041 M241.504 94.410 C 241.880 94.508,242.495 94.508,242.871 94.410 C 243.247 94.312,242.939 94.231,242.188 94.231 C 241.436 94.231,241.128 94.312,241.504 94.410 M214.844 103.320 C 213.895 104.287,213.206 105.078,213.314 105.078 C 213.421 105.078,214.286 104.287,215.234 103.320 C 216.183 102.354,216.872 101.563,216.764 101.563 C 216.657 101.563,215.793 102.354,214.844 103.320 M201.168 116.699 L 192.773 125.195 201.270 116.800 C 209.164 109.000,209.942 108.203,209.665 108.203 C 209.609 108.203,205.786 112.026,201.168 116.699 M187.677 130.566 L 186.133 132.227 187.793 130.682 C 189.337 129.246,189.633 128.906,189.337 128.906 C 189.273 128.906,188.526 129.653,187.677 130.566 M182.983 135.645 L 181.836 136.914 183.105 135.767 C 183.804 135.136,184.375 134.564,184.375 134.497 C 184.375 134.195,184.053 134.461,182.983 135.645 M240.390 143.750 C 240.390 146.865,240.450 148.140,240.524 146.582 C 240.599 145.024,240.599 142.476,240.524 140.918 C 240.450 139.360,240.390 140.635,240.390 143.750 M233.328 155.469 C 233.328 156.865,233.399 157.437,233.486 156.738 C 233.572 156.040,233.572 154.897,233.486 154.199 C 233.399 153.501,233.328 154.072,233.328 155.469 M233.705 163.477 C 233.708 164.551,233.784 164.944,233.874 164.350 C 233.964 163.756,233.961 162.877,233.869 162.397 C 233.776 161.917,233.703 162.402,233.705 163.477 M234.105 170.117 C 234.108 171.406,234.181 171.887,234.267 171.184 C 234.354 170.482,234.353 169.428,234.263 168.841 C 234.174 168.254,234.103 168.828,234.105 170.117 M234.492 175.781 C 234.492 176.963,234.565 177.446,234.655 176.855 C 234.744 176.265,234.744 175.298,234.655 174.707 C 234.565 174.116,234.492 174.600,234.492 175.781 M234.883 181.250 C 234.883 182.432,234.956 182.915,235.045 182.324 C 235.135 181.733,235.135 180.767,235.045 180.176 C 234.956 179.585,234.883 180.068,234.883 181.250 M235.268 186.133 C 235.271 187.207,235.347 187.600,235.437 187.006 C 235.526 186.413,235.524 185.534,235.431 185.053 C 235.339 184.573,235.265 185.059,235.268 186.133 M235.653 191.016 C 235.653 191.982,235.729 192.378,235.823 191.895 C 235.916 191.411,235.916 190.620,235.823 190.137 C 235.729 189.653,235.653 190.049,235.653 191.016 M164.453 242.578 C 164.015 243.438,163.744 244.141,163.851 244.141 C 163.959 244.141,164.405 243.438,164.844 242.578 C 165.282 241.719,165.553 241.016,165.446 241.016 C 165.338 241.016,164.892 241.719,164.453 242.578 M149.093 255.682 C 148.176 257.607,148.305 257.934,149.264 256.115 C 149.700 255.290,149.987 254.545,149.903 254.460 C 149.818 254.376,149.454 254.926,149.093 255.682 M157.297 256.463 C 156.379 258.388,156.508 258.715,157.467 256.897 C 157.903 256.071,158.191 255.326,158.106 255.241 C 158.022 255.157,157.657 255.707,157.297 256.463 M155.664 263.672 C 154.583 263.947,154.568 263.973,155.469 264.010 C 156.006 264.032,156.709 263.880,157.031 263.672 C 157.696 263.242,157.353 263.242,155.664 263.672 M151.953 285.156 C 150.771 285.781,149.942 286.300,150.111 286.310 C 150.526 286.335,154.297 284.410,154.297 284.173 C 154.297 283.912,154.351 283.889,151.953 285.156 M99.902 399.902 C 154.956 399.957,245.044 399.957,300.098 399.902 C 355.151 399.848,310.107 399.803,200.000 399.803 C 89.893 399.803,44.849 399.848,99.902 399.902 " stroke="none" fill="#2dd49c" fill-rule="evenodd"/><path id="path4" d="M254.785 94.410 C 255.161 94.508,255.776 94.508,256.152 94.410 C 256.528 94.312,256.221 94.231,255.469 94.231 C 254.717 94.231,254.409 94.312,254.785 94.410 M214.453 104.102 C 213.504 105.068,212.816 105.859,212.923 105.859 C 213.031 105.859,213.895 105.068,214.844 104.102 C 215.793 103.135,216.481 102.344,216.374 102.344 C 216.266 102.344,215.402 103.135,214.453 104.102 M201.168 117.090 L 193.945 124.414 201.270 117.191 C 205.298 113.219,208.594 109.923,208.594 109.867 C 208.594 109.589,207.878 110.285,201.168 117.090 M279.794 125.781 C 279.794 126.748,279.870 127.144,279.963 126.660 C 280.056 126.177,280.056 125.386,279.963 124.902 C 279.870 124.419,279.794 124.814,279.794 125.781 M188.672 129.883 C 187.723 130.850,187.035 131.641,187.142 131.641 C 187.249 131.641,188.114 130.850,189.063 129.883 C 190.011 128.916,190.700 128.125,190.592 128.125 C 190.485 128.125,189.621 128.916,188.672 129.883 M235.645 131.129 C 236.021 131.227,236.636 131.227,237.012 131.129 C 237.388 131.030,237.080 130.950,236.328 130.950 C 235.576 130.950,235.269 131.030,235.645 131.129 M279.799 132.617 C 279.802 133.691,279.878 134.084,279.968 133.491 C 280.058 132.897,280.055 132.018,279.962 131.538 C 279.870 131.057,279.796 131.543,279.799 132.617 M183.374 135.645 L 182.227 136.914 183.496 135.767 C 184.194 135.136,184.766 134.564,184.766 134.497 C 184.766 134.195,184.443 134.461,183.374 135.645 M240.797 145.508 C 240.798 151.738,240.852 154.232,240.917 151.050 C 240.983 147.868,240.983 142.771,240.917 139.722 C 240.851 136.674,240.797 139.277,240.797 145.508 M232.938 155.078 C 232.938 156.475,233.008 157.046,233.095 156.348 C 233.182 155.649,233.182 154.507,233.095 153.809 C 233.008 153.110,232.938 153.682,232.938 155.078 M233.302 163.086 C 233.306 163.945,233.386 164.251,233.479 163.765 C 233.573 163.279,233.569 162.576,233.472 162.202 C 233.374 161.829,233.297 162.227,233.302 163.086 M241.137 165.039 C 241.139 166.328,241.212 166.808,241.299 166.106 C 241.386 165.404,241.384 164.350,241.295 163.763 C 241.206 163.176,241.134 163.750,241.137 165.039 M233.684 169.531 C 233.684 170.283,233.765 170.591,233.863 170.215 C 233.961 169.839,233.961 169.224,233.863 168.848 C 233.765 168.472,233.684 168.779,233.684 169.531 M241.497 172.656 C 241.497 173.408,241.577 173.716,241.676 173.340 C 241.774 172.964,241.774 172.349,241.676 171.973 C 241.577 171.597,241.497 171.904,241.497 172.656 M132.903 201.172 C 132.903 201.924,132.984 202.231,133.082 201.855 C 133.180 201.479,133.180 200.864,133.082 200.488 C 132.984 200.112,132.903 200.420,132.903 201.172 M161.328 249.219 C 160.890 250.078,160.619 250.781,160.726 250.781 C 160.834 250.781,161.280 250.078,161.719 249.219 C 162.157 248.359,162.428 247.656,162.321 247.656 C 162.213 247.656,161.767 248.359,161.328 249.219 " stroke="none" fill="#a7ecd7" fill-rule="evenodd"/></g></svg>
