<svg xmlns:dc="http://purl.org/dc/elements/1.1/" xmlns:cc="http://creativecommons.org/ns#" xmlns:rdf="http://www.w3.org/1999/02/22-rdf-syntax-ns#" xmlns:svg="http://www.w3.org/2000/svg" xmlns="http://www.w3.org/2000/svg" viewBox="0 0.005375949200242758 179.87867736816406 252.12796020507812" xml:space="preserve" id="svg2" version="1.1"><metadata id="metadata8"><rdf:rdf><cc:work rdf:about=""><dc:format>image/svg+xml</dc:format><dc:type rdf:resource="http://purl.org/dc/dcmitype/StillImage"></dc:type></cc:work></rdf:rdf></metadata><defs id="defs6"><clipPath id="clipPath20" clipPathUnits="userSpaceOnUse"><path id="path18" d="M 23.9453,1397.95 V 890.68 C 38.7656,741.18 83.8867,613.629 143.977,505.84 c 45.949,65.238 227.312,304.64 523.39,469.992 l 4.543,2.551 4.551,-2.551 C 979.27,806.711 1162.19,560 1202.87,501.539 c 61.32,108.313 107.4,236.891 122.28,387.91 v 508.411 c -26.28,23.42 -62,44.59 -105.09,62.91 -45.13,19.2 -98.22,35.34 -156.53,48.26 -116.62,25.86 -254.1,38.88 -391.362,38.87 -205.852,0.07 -411.5,-29.42 -545.172,-87.11 -42.5155,-18.3 -77.5468,-39.47 -103.0507,-62.84 z"></path></clipPath><linearGradient id="linearGradient28" spreadMethod="pad" gradientTransform="matrix(1301.2,0,0,-1301.2,23.946,1024.72)" gradientUnits="userSpaceOnUse" y2="0" x2="1" y1="0" x1="0"><stop id="stop22" offset="0" style="stop-opacity:1;stop-color:#eada84"></stop><stop id="stop24" offset="0.5" style="stop-opacity:1;stop-color:#faf1c0"></stop><stop id="stop26" offset="1" style="stop-opacity:1;stop-color:#eada84"></stop></linearGradient><clipPath id="clipPath38" clipPathUnits="userSpaceOnUse"><path id="path36" d="m 557.715,85.7383 c 58.93,-35.8594 103.047,-55.7266 116.379,-60.9688 0.871,0.3789 1.89,0.8321 3.062,1.3321 4.489,1.9804 11.028,4.9687 19.324,8.957 16.602,7.9727 40.239,20.0312 68.688,36.4297 56.957,32.8007 133.207,82.9527 211.148,152.4727 75.864,67.668 153.204,153.598 216.194,259.711 -1.36,2.027 -3.01,4.437 -5.22,7.609 -5.78,8.289 -14.41,20.348 -25.87,35.469 -22.9,30.199 -57.04,72.531 -101.84,120.789 C 970.793,743.219 840.023,862.238 671.91,956.938 370.059,787 189.02,538.52 154.227,487.941 180.805,442.488 209.934,400.57 240.551,362.27 346.328,229.98 469.023,139.66 557.715,85.7383 Z"></path></clipPath><linearGradient id="linearGradient48" spreadMethod="pad" gradientTransform="matrix(1038.29,0,0,-1038.29,154.229,490.85)" gradientUnits="userSpaceOnUse" y2="0" x2="1" y1="0" x1="0"><stop id="stop40" offset="0" style="stop-opacity:1;stop-color:#50ab37"></stop><stop id="stop42" offset="0.33" style="stop-opacity:1;stop-color:#80ca4b"></stop><stop id="stop44" offset="0.66" style="stop-opacity:1;stop-color:#68bc40"></stop><stop id="stop46" offset="1" style="stop-opacity:1;stop-color:#50ab37"></stop></linearGradient><clipPath id="clipPath86" clipPathUnits="userSpaceOnUse"><path id="path84" d="m 944.281,1387.05 c -3.246,-0.41 -1.761,12.39 -1.761,12.39 0,0 3.613,5.42 18.488,-1.81 14.859,-7.29 16.344,-12.08 16.344,-12.08 0,0 -22.747,3.04 -33.071,1.5 z m 217.229,-315.5 c -6.09,-12.05 1.31,-24.53 1.31,-24.53 20.77,30.72 34.67,26.48 34.67,26.48 -12.32,-45.85 16.25,-72.47 11.02,-87.793 -8.67,-20.715 -88.02,-19.773 -155.58,95.333 0,0 -26.05,42.68 -35.16,44.17 34.72,10.76 90.35,-31.02 125.04,-41.1 4.38,22.3 50.67,68.96 106.86,65.36 -19.47,28.56 -18.99,107.15 36.88,121.51 -73.1,33.29 -28.17,119.69 -3.55,139.73 -28.95,-2.08 -120.62,41.27 -217.79,-96.6 79.81,-78.26 3.14,-180.76 -56.06,-122.08 0.7,17.88 18.46,29.66 26.04,46.65 3.62,8 -9.14,79.67 -9.14,89.75 0,0.99 12.59,0.77 21.19,-8.49 2.58,-2.78 -5.03,24.32 -19.01,26.87 -3.61,0.6 17.51,2.92 31.91,-6.06 0,0 -16.42,28.09 -34.66,30.72 0,0 54.52,-1.31 35.21,64.77 0,0 -15.06,-38.93 -64.163,-36.12 0,0 -49.925,20.79 -64.343,20.79 -11.246,0 -11.379,-3.35 -17.243,-7.05 -5.98,-3.71 -32.621,13.5 -59.429,4.89 0,0 9.449,-5.28 18.078,-8.23 3.598,-3.23 5.574,-15.65 5.574,-28.67 22.891,17.9 38.254,-9.89 38.254,-9.89 0,0 -19.746,-9.36 -35.195,-12.39 -15.41,-2.99 -30.118,1.7 -30.907,12.61 -4.336,-9.34 6.36,-16.37 21.032,-19.23 13.738,-2.51 48.922,3.86 48.922,3.86 1.25,-3.86 -0.602,-6.31 -3.852,-7.77 -10.098,-5.44 -31.93,-1.56 -41.242,-4.6 1.48,-2.31 -0.16,-38.64 -0.485,-40.86 5.664,6.47 37.676,37.08 52.098,32.87 23.504,-6.77 50.531,4.11 50.531,4.11 0,0 -14.386,-7.35 -32.597,-14.85 -18.172,-7.6 -71.539,-44.16 -75.352,-114.78 0,-19.69 -58.574,-73.52 -101.137,-16.08 -18.812,6.45 -54.398,0.18 -52.785,-27.25 0,0 49.953,18.62 42.203,1 0,0 -32.183,-8.2 -39.418,-14.82 -7.23,-6.59 -7.808,-22.05 -5.113,-32.38 18.809,14.31 33.984,33.45 50.645,24.01 0,0 -12.246,-7.61 -18.348,-29.7 1.148,-13.2 2.398,-21.19 3.902,-22.54 9.453,24.94 23.797,45.02 48.922,40.22 22.34,-4.39 24.903,11.56 64.879,-9.42 -2.203,13.83 -33.473,23.73 -33.473,23.73 28.872,9.38 61.778,5.37 89.903,44.01 -10.817,-19.36 -20.121,-32.06 -49.246,-41.69 15.652,-71.29 83.476,-105.76 110.242,-137.25 -23.145,0 -65.801,23.66 -78.063,-7.19 -1.429,-27.932 7.926,-51.639 12.262,-77.346 -11.605,-5.75 -24.484,3.625 -36.816,5.012 -23.903,19.34 2.14,78.844 -49.907,65.977 l 6.547,-15.918 c 7.938,-9.942 18.77,-18.586 23.137,-30.719 -13.023,-0.719 -21.711,17.109 -29.684,27.227 -4.3,7.109 -6.418,22.167 -17.359,19.41 -7.152,-8.66 -23.09,2.757 -28.141,-10.828 17.336,-6.372 30.418,-20.758 43.29,-35.809 -12.293,-2.945 -20.911,14.281 -32.442,18.609 -12.324,-1.5 -26.73,2.934 -36.816,-3.558 1.41,-10.832 16.562,-12.926 24.492,-18.68 29.617,-24.375 64.48,-33.445 88.324,-63.527 9.5,-7.719 10.527,-13.16 13.988,-42.918 6.485,11.437 10.879,20.597 6.524,33.527 l -4.735,12.762 c 39.735,-8.59 112.5,-23.629 112.68,-56.77 18.462,1.309 -17.933,74.867 -12.289,98.266 0,0 35.411,-11.856 45.311,5.976 8.55,15.231 4.39,25.536 3.11,28.051 9.98,-14.933 -2.07,-27.308 -12.14,-64.789 18.82,-22.285 61.47,-23.504 59.32,-58.797 -6.52,-22.168 22.39,-36.347 -12.4,-41.527 -17.97,-7.742 -46.18,2.211 -55.6,-19.332 1.44,-9.949 -4.29,-23.68 5.06,-30.828 11,21.66 33.25,22.918 39.76,17.16 -6.51,-10.012 -20.37,-13.981 -23.2,-29.063 0.7,-15.07 5.88,-23.179 20.34,-29.636 -3.65,30.129 19.04,36.238 37.56,53.687 l 9.81,0.699 c -9.4,-16.558 -5.73,-32.988 -7.17,-50.078 0,0 37.79,-28.789 32.02,-21.519 -18.71,26.488 14.49,48.758 5.77,79.629 20.97,26.679 57.13,15.14 61.63,13.398 -3.93,19.352 -45.58,8.793 -58.74,22.274 -1.41,5.839 -7.96,-12.981 -7.96,-5.743 7.2,13.731 -17.85,16.442 1.14,56.161 4.95,10.449 1.4,8.199 29.78,11.468 -20.56,11.051 -39.54,8.543 -39.54,8.543 -5.69,33.434 -13.26,41.453 -13.26,41.453 59.06,-30.054 94.87,-20.754 131.11,-5.722 15.06,10 24.42,24.422 27.37,42.949 10.79,60.309 -49.05,73.299 -48.01,114.219 0,0 30.77,-7.15 40.77,-38.94 4.43,6.58 -0.78,34.32 -2.17,49.43 0,19.3 3.42,40.69 25.34,43.91 -6.53,12.14 -91.11,4.9 -120.04,-51.78 z"></path></clipPath><linearGradient id="linearGradient94" spreadMethod="pad" gradientTransform="matrix(1179.03,0,0,-1179.03,72.336,1062.68)" gradientUnits="userSpaceOnUse" y2="0" x2="1" y1="0" x1="0"><stop id="stop88" offset="0" style="stop-opacity:1;stop-color:#b02525"></stop><stop id="stop90" offset="0.5" style="stop-opacity:1;stop-color:#dc2f35"></stop><stop id="stop92" offset="1" style="stop-opacity:1;stop-color:#b02525"></stop></linearGradient><clipPath id="clipPath104" clipPathUnits="userSpaceOnUse"><path id="path102" d="m 777.434,1375.4 c 3.324,-6.69 -6.039,-41.4 -38.864,-26.42 0,0 11.672,-21.49 44.426,-5.05 l 10.027,-1.63 c 28.985,-69.25 73.926,-116.37 73.926,-116.37 1.746,19.8 4.356,24.18 11.391,35.98 -38.555,74.16 -48.945,84.4 -57.012,109.56 4.363,24.36 24.586,37.47 7.93,69.38 -10.735,21.58 -28.926,11.34 -28.926,11.34 19.883,-14 12.461,-31.01 12.461,-31.01 -8.027,9.41 -4.34,22.29 -24.82,29.74 -15.918,5 -25.004,12.66 -40.993,6.8 5.125,-9.23 23.426,-13.33 32.137,-21.17 l 1.641,-19.91 c -9.867,11.96 -23.883,21.55 -36.61,20.87 -15.554,0 -26.128,0.08 -27.82,-18.76 47.735,9 53.902,-17.43 61.106,-43.35 z"></path></clipPath><linearGradient id="linearGradient112" spreadMethod="pad" gradientTransform="matrix(1179.03,0,0,-1179.03,72.336,1342.88)" gradientUnits="userSpaceOnUse" y2="0" x2="1" y1="0" x1="0"><stop id="stop106" offset="0" style="stop-opacity:1;stop-color:#b02525"></stop><stop id="stop108" offset="0.5" style="stop-opacity:1;stop-color:#dc2f35"></stop><stop id="stop110" offset="1" style="stop-opacity:1;stop-color:#b02525"></stop></linearGradient><clipPath id="clipPath122" clipPathUnits="userSpaceOnUse"><path id="path120" d="m 471.23,1261.98 c 7.047,-11.72 9.645,-16.11 11.391,-35.93 0,0 44.957,47.13 73.945,116.36 l 9.997,1.59 c 32.777,-16.47 44.449,5.09 44.449,5.09 -32.821,-15.02 -42.219,19.75 -38.883,26.33 7.226,25.99 13.367,52.44 61.125,43.43 -1.691,18.87 -12.258,18.74 -27.832,18.74 -12.742,0.71 -26.715,-8.88 -36.629,-20.81 l 1.672,19.91 c 8.691,7.74 27.019,11.89 32.129,21.08 -15.969,5.89 -25.067,-1.74 -40.961,-6.77 -20.531,-7.39 -16.828,-20.35 -24.82,-29.72 0,0 -7.434,17.02 12.414,30.99 0,0 -18.188,10.27 -28.907,-11.33 -16.664,-31.87 3.559,-44.99 7.918,-69.37 -8.062,-25.14 -18.457,-35.39 -57.008,-109.59 z"></path></clipPath><linearGradient id="linearGradient130" spreadMethod="pad" gradientTransform="matrix(1179.03,0,0,-1179.03,72.336,1342.98)" gradientUnits="userSpaceOnUse" y2="0" x2="1" y1="0" x1="0"><stop id="stop124" offset="0" style="stop-opacity:1;stop-color:#b02525"></stop><stop id="stop126" offset="0.5" style="stop-opacity:1;stop-color:#dc2f35"></stop><stop id="stop128" offset="1" style="stop-opacity:1;stop-color:#b02525"></stop></linearGradient><clipPath id="clipPath140" clipPathUnits="userSpaceOnUse"><path id="path138" d="m 388.578,1397.72 c 14.863,7.2 18.496,1.84 18.496,1.84 0,0 1.457,-12.85 -1.797,-12.44 -10.343,1.56 -33.043,-1.49 -33.043,-1.49 0,0 1.457,4.83 16.344,12.09 z m 202.34,-229.01 c -7.754,17.63 42.191,-1.03 42.191,-1.03 1.641,27.46 -33.953,33.76 -52.761,27.27 -42.551,-57.42 -101.172,-3.61 -101.172,16.07 -3.781,70.64 -57.164,107.22 -75.352,114.78 -18.187,7.49 -32.59,14.84 -32.59,14.84 0,0 27.043,-10.86 50.543,-4.06 14.422,4.17 46.438,-26.44 52.141,-32.87 -0.371,2.16 -2,38.49 -0.504,40.84 -9.309,3.06 -31.109,-0.85 -41.269,4.59 -3.266,1.48 -5.09,3.93 -3.852,7.8 0,0 35.176,-6.38 48.93,-3.87 14.687,2.86 25.371,9.87 21.047,19.13 -0.786,-10.81 -15.504,-15.52 -30.934,-12.56 -15.441,3.02 -35.191,12.4 -35.191,12.4 0,0 15.418,27.8 38.242,9.89 0,12.98 2,25.49 5.566,28.66 8.633,2.95 18.102,8.26 18.102,8.26 -26.821,8.56 -53.442,-8.61 -59.407,-4.93 -5.886,3.75 -6.027,7.05 -17.25,7.05 -14.406,0 -64.332,-20.71 -64.332,-20.71 -49.14,-2.86 -64.214,36.08 -64.214,36.08 -19.266,-66.03 35.23,-64.77 35.23,-64.77 -18.219,-2.6 -34.617,-30.73 -34.617,-30.73 14.375,9.03 35.5,6.67 31.859,6.09 -13.98,-2.55 -21.594,-29.64 -18.988,-26.9 8.617,9.31 21.195,9.47 21.195,8.49 0,-10.07 -12.75,-81.76 -9.129,-89.7 7.575,-17.04 25.317,-28.78 26.024,-46.66 -59.192,-58.77 -135.875,43.77 -56.055,122.09 -97.183,137.84 -188.8632,94.49 -217.7733,96.54 24.5976,-20.02 69.5193,-106.44 -3.5938,-139.72 55.9101,-14.33 56.3441,-92.94 36.9336,-121.47 56.1525,3.62 102.4805,-43.07 106.8555,-65.4 34.691,10.07 90.301,51.88 125.023,41.12 -9.125,-1.48 -35.14,-44.16 -35.14,-44.16 C 229.063,965.992 149.707,965.125 141.09,985.727 c -5.238,15.433 23.305,42.003 10.984,87.903 0,0 13.938,4.17 34.668,-26.51 0,0 7.414,12.55 1.305,24.55 -28.883,56.65 -113.5118,63.88 -120.0314,51.76 21.9219,-3.23 25.3477,-24.62 25.3477,-43.91 -1.3906,-15.13 -6.6094,-42.87 -2.168,-49.43 9.9957,31.8 40.7537,38.96 40.7537,38.96 1.043,-40.93 -58.7771,-53.95 -47.9763,-114.202 2.9375,-18.575 12.3007,-33 27.3713,-42.961 36.211,-15.047 72.039,-24.356 131.101,5.664 0,0 -7.586,-8.047 -13.273,-41.512 0,0 -18.973,2.57 -39.516,-8.48 28.356,-3.207 24.797,-0.95 29.774,-11.399 18.972,-39.801 -6.078,-42.512 1.14,-56.191 0,-7.258 -6.547,11.531 -7.98,5.722 -13.16,-13.461 -54.793,-2.882 -58.738,-22.281 4.476,1.762 40.656,13.309 61.617,-13.398 -8.676,-30.832 24.496,-53.141 5.785,-79.653 -5.785,-7.23 32.004,21.539 32.004,21.539 -1.406,17.153 2.25,33.563 -7.149,50.102 l 9.786,-0.719 c 18.519,-17.41 41.214,-23.57 37.574,-53.722 14.469,6.461 19.64,14.601 20.355,29.703 -2.851,15.008 -16.715,19 -23.215,29.019 6.5,5.75 28.743,4.489 39.75,-17.121 9.36,7.102 3.625,20.852 5.063,30.852 -9.402,21.547 -37.578,11.539 -55.613,19.34 -34.743,5.078 -5.84,19.238 -12.364,41.519 -2.152,35.168 40.493,36.52 59.289,58.801 -10.039,37.391 -22.121,49.824 -12.093,64.785 -1.305,-2.578 -5.438,-12.891 3.086,-28.105 9.902,-17.832 45.304,-5.989 45.304,-5.989 5.684,-23.379 -30.758,-96.894 -12.285,-98.222 0.195,33.089 72.945,48.14 112.692,56.8 l -4.747,-12.812 c -4.378,-12.899 0.036,-22.051 6.524,-33.527 3.457,29.757 4.504,35.207 13.961,42.957 23.875,30.019 58.711,39.152 88.363,63.507 7.93,5.782 23.082,7.817 24.496,18.661 -10.097,6.464 -24.496,2.066 -36.824,3.57 -11.559,-4.332 -20.191,-21.567 -32.481,-18.59 12.95,15.02 25.981,29.398 43.356,35.836 -5.094,13.557 -21.012,2.094 -28.199,10.809 -10.891,2.748 -13.02,-12.301 -17.36,-19.485 -7.964,-10.074 -16.64,-27.847 -29.675,-27.16 4.386,12.129 15.222,20.703 23.156,30.707 l 6.519,15.938 c -52.027,12.818 -26.007,-46.645 -49.851,-65.981 -12.348,-1.375 -25.254,-10.828 -36.813,-5.019 4.313,25.675 13.7,49.39 12.25,77.378 -12.25,30.84 -54.937,7.09 -78.082,7.09 26.731,31.56 94.582,66.06 110.246,137.29 -29.136,9.59 -38.464,22.32 -49.257,41.68 28.144,-38.57 61.023,-34.62 89.875,-44 0,0 -31.25,-9.9 -33.434,-23.68 39.992,20.95 42.512,4.98 64.875,9.4 25.133,4.79 39.492,-15.29 48.887,-40.26 1.543,1.33 2.804,9.33 3.925,22.54 -6.105,22.1 -18.351,29.73 -18.351,29.73 16.707,9.41 31.848,-9.73 50.637,-24.02 2.711,10.35 2.156,25.83 -5.079,32.36 -7.218,6.63 -39.437,14.85 -39.437,14.85 z"></path></clipPath><linearGradient id="linearGradient148" spreadMethod="pad" gradientTransform="matrix(1179.03,0,0,-1179.03,72.336,1062.77)" gradientUnits="userSpaceOnUse" y2="0" x2="1" y1="0" x1="0"><stop id="stop142" offset="0" style="stop-opacity:1;stop-color:#b02525"></stop><stop id="stop144" offset="0.5" style="stop-opacity:1;stop-color:#dc2f35"></stop><stop id="stop146" offset="1" style="stop-opacity:1;stop-color:#b02525"></stop></linearGradient></defs><g transform="matrix(1.3333333,0,0,-1.3333333,0,252.13333)" id="g10"><g transform="scale(0.1)" id="g12"><g id="g14"><g clip-path="url(#clipPath20)" id="g16"><path id="path30" style="fill:url(#linearGradient28);fill-opacity:1;fill-rule:nonzero;stroke:none" d="M 23.9453,1397.95 V 890.68 C 38.7656,741.18 83.8867,613.629 143.977,505.84 c 45.949,65.238 227.312,304.64 523.39,469.992 l 4.543,2.551 4.551,-2.551 C 979.27,806.711 1162.19,560 1202.87,501.539 c 61.32,108.313 107.4,236.891 122.28,387.91 v 508.411 c -26.28,23.42 -62,44.59 -105.09,62.91 -45.13,19.2 -98.22,35.34 -156.53,48.26 -116.62,25.86 -254.1,38.88 -391.362,38.87 -205.852,0.07 -411.5,-29.42 -545.172,-87.11 -42.5155,-18.3 -77.5468,-39.47 -103.0507,-62.84"></path></g></g><g id="g32"><g clip-path="url(#clipPath38)" id="g34"><path id="path50" style="fill:url(#linearGradient48);fill-opacity:1;fill-rule:nonzero;stroke:none" d="m 557.715,85.7383 c 58.93,-35.8594 103.047,-55.7266 116.379,-60.9688 0.871,0.3789 1.89,0.8321 3.062,1.3321 4.489,1.9804 11.028,4.9687 19.324,8.957 16.602,7.9727 40.239,20.0312 68.688,36.4297 56.957,32.8007 133.207,82.9527 211.148,152.4727 75.864,67.668 153.204,153.598 216.194,259.711 -1.36,2.027 -3.01,4.437 -5.22,7.609 -5.78,8.289 -14.41,20.348 -25.87,35.469 -22.9,30.199 -57.04,72.531 -101.84,120.789 C 970.793,743.219 840.023,862.238 671.91,956.938 370.059,787 189.02,538.52 154.227,487.941 180.805,442.488 209.934,400.57 240.551,362.27 346.328,229.98 469.023,139.66 557.715,85.7383"></path></g></g><path id="path52" style="fill:#ffffff;fill-opacity:1;fill-rule:nonzero;stroke:none" d="m 711.957,344.02 c 32.887,38.179 133.566,9.902 251.285,4.468 15.879,-0.226 28.469,-0.429 36.113,-0.566 -6.132,3.156 -15.371,8.109 -25.363,14.129 -16.277,9.871 -34.082,22.078 -42.883,34.148 -1.043,0.231 -5.05,1.09 -11.746,2.36 -7.742,1.472 -18.793,3.429 -31.961,5.41 -26.339,3.91 -61.156,7.851 -94.941,7.851 -22.133,0 -43.828,-1.699 -62.332,-6.101 -18.512,-4.399 -33.727,-11.559 -43.176,-22.039 -6.152,-6.821 -9.961,-15.039 -10.969,-25.282 9.442,-3.859 35.262,-14.378 35.973,-14.378"></path><path id="path54" style="fill:#ffffff;fill-opacity:1;fill-rule:nonzero;stroke:none" d="m 678.461,383.488 c 1.141,1.59 2.262,3.184 3.59,4.633 7.222,7.988 16.976,13.957 28.336,18.418 22.758,8.891 52.101,11.883 82.074,11.891 57.922,-0.008 117.984,-11.282 135.355,-14.801 -0.558,2.191 -1.277,5.043 -2.187,8.742 -2.043,8.27 -4.883,20.051 -8.258,34.207 -6.758,28.313 -15.637,66.012 -24.48,103.731 -17.688,75.441 -35.215,150.871 -35.215,150.871 h 0.015 l -0.871,0.621 c -0.187,0.121 -1.113,0.64 -2.937,1.668 -2.024,1.109 -4.981,2.711 -8.711,4.66 -7.442,3.851 -17.942,9 -30.129,14.152 -24.313,10.289 -55.43,20.481 -81.66,20.449 -25.59,-0.031 -39.352,-7.64 -47.043,-15.05 -4.156,-4.02 -6.531,-8.059 -7.879,-11.032 v -333.16"></path><path id="path56" style="fill:#ffffff;fill-opacity:1;fill-rule:nonzero;stroke:none" d="m 934.066,405.891 c 0.539,-2.063 0.954,-3.563 1.11,-4.102 4.984,-7.949 16.726,-17.527 29.379,-25.937 12.304,-8.231 25.379,-15.5 34.273,-20.192 l -104.086,319.43 -28.957,20.398 c 1.625,-7.008 4.367,-18.738 7.852,-33.726 5.781,-24.793 13.593,-58.262 21.715,-92.953 16.234,-69.34 33.753,-143.59 38.714,-162.918"></path><path id="path58" style="fill:#ffffff;fill-opacity:1;fill-rule:nonzero;stroke:none" d="m 344.625,353.352 c 3.418,1.867 7.355,4.07 11.977,6.726 11.988,6.942 26.804,16.082 37.976,24.641 7.395,5.652 13.176,11.23 15.25,15.043 l 0.375,1.316 c 0.34,1.25 0.832,3.121 1.438,5.582 1.218,4.871 2.945,11.969 5.058,20.75 4.219,17.578 9.965,41.899 16.309,68.942 12.691,54.07 27.785,118.976 37.82,162.238 3.758,16.18 6.754,29.14 8.715,37.57 L 450.504,674.359 344.625,353.352"></path><path id="path60" style="fill:#ffffff;fill-opacity:1;fill-rule:nonzero;stroke:none" d="m 417.227,401.781 c 17.386,3.52 77.332,14.77 135.191,14.77 22.504,0 44.668,-1.692 63.949,-6.301 19.27,-4.59 35.758,-12.09 46.629,-24.078 0.817,-0.902 1.477,-1.922 2.231,-2.871 V 719.27 c -1.332,2.32 -3.172,4.992 -5.813,7.699 -7.559,7.621 -21.355,15.73 -47.758,15.761 -22.961,0.032 -49.808,-7.679 -72.554,-16.48 -22.762,-8.781 -41.481,-18.559 -48.606,-22.43 -1.574,-0.859 -2.371,-1.32 -2.742,-1.531 -6.066,-26.168 -52.578,-226.961 -67.32,-287.59 -1.391,-5.699 -2.442,-9.937 -3.207,-12.918"></path><path id="path62" style="fill:#ffffff;fill-opacity:1;fill-rule:nonzero;stroke:none" d="m 633.906,344.309 c 0.766,0 25.328,10.023 34.883,13.941 -1.285,9.379 -4.922,17.078 -10.691,23.48 -6.336,7 -15.188,12.54 -25.907,16.739 -21.445,8.429 -50.222,11.48 -79.773,11.472 -50.66,0.008 -103.563,-8.832 -126.773,-13.25 -6.282,-1.191 -10.219,-2.019 -11.547,-2.3 -3.383,-4.821 -8.817,-9.731 -15.496,-14.891 -7.735,-5.949 -16.961,-12.012 -25.844,-17.48 -8.711,-5.348 -17.078,-10.129 -23.367,-13.622 l 16.672,-0.418 c 124.843,3.219 233.523,36.129 267.843,-3.671"></path><path id="path64" style="fill:#979a98;fill-opacity:1;fill-rule:nonzero;stroke:none" d="m 541.973,441.25 c -38.649,-0.23 -56.078,-4.672 -100.258,-13.871 0.723,0.851 30.394,138.781 30.394,137.949 22.774,8.281 52.504,14.25 83.125,10.742 0,0 -14.078,-134.429 -13.261,-134.82"></path><path id="path66" style="fill:#979a98;fill-opacity:1;fill-rule:nonzero;stroke:none" d="m 644.574,499.52 c -15.363,9.089 -57.484,14.039 -81.933,5.992 0.125,0 18.214,216.136 18.214,215.316 13.301,2.563 50.723,8.262 68.016,-9.039 L 644.574,499.52"></path><path id="path68" style="fill:#979a98;fill-opacity:1;fill-rule:nonzero;stroke:none" d="m 556.293,583.512 c -37.082,3.707 -56.789,-2.891 -81.824,-9.383 0.851,0.73 23.59,119.043 23.59,118.23 20.769,11.262 43.214,19.43 70.921,26.25 0,0 -11.847,-135.097 -12.687,-135.097"></path><path id="path70" style="fill:#979a98;fill-opacity:1;fill-rule:nonzero;stroke:none" d="m 644.348,428.621 c -22.629,8.75 -51.852,13.598 -87.535,13.598 -0.02,0.14 5.484,56.222 5.484,56.5 23.719,9.89 70.926,2.152 82.101,-6.098 0,0 -0.144,-63.91 -0.05,-64"></path><path id="path72" style="fill:#979a98;fill-opacity:1;fill-rule:nonzero;stroke:none" d="m 789.836,536.52 c 18.785,3.23 68.93,-0.61 89.5,-11.551 -0.856,0.84 -35.25,164.672 -35.25,163.851 -23.703,13.391 -44.941,22.852 -72.621,29.789 0,0 17.515,-182.089 18.371,-182.089"></path><path id="path74" style="fill:#979a98;fill-opacity:1;fill-rule:nonzero;stroke:none" d="m 696.52,657.059 c 8.242,8.191 45.507,13.691 68.875,6.339 -0.086,0 -4.618,57.211 -4.79,57.43 -13.335,2.563 -48.648,7.602 -64.085,-7.867 0,0 0.214,-56.02 0,-55.902"></path><path id="path76" style="fill:#979a98;fill-opacity:1;fill-rule:nonzero;stroke:none" d="m 697.68,428.23 c 31.968,16.161 55.972,12.758 87.144,13.141 C 784.102,442.219 765,658.039 765,657.199 c -16.117,5.36 -48.379,7.629 -67.914,-6.008 0,0 1.41,-223.339 0.594,-222.961"></path><path id="path78" style="fill:#979a98;fill-opacity:1;fill-rule:nonzero;stroke:none" d="m 799.434,441.371 c 24.98,0 54.296,-3.121 99.507,-10.812 -0.816,0.851 -18.605,87.621 -18.605,86.839 -18.867,10.864 -78.68,15.293 -89.453,12.043 0,0 7.762,-88.07 8.551,-88.07"></path><g id="g80"><g clip-path="url(#clipPath86)" id="g82"><path id="path96" style="fill:url(#linearGradient94);fill-opacity:1;fill-rule:nonzero;stroke:none" d="m 944.281,1387.05 c -3.246,-0.41 -1.761,12.39 -1.761,12.39 0,0 3.613,5.42 18.488,-1.81 14.859,-7.29 16.344,-12.08 16.344,-12.08 0,0 -22.747,3.04 -33.071,1.5 z m 217.229,-315.5 c -6.09,-12.05 1.31,-24.53 1.31,-24.53 20.77,30.72 34.67,26.48 34.67,26.48 -12.32,-45.85 16.25,-72.47 11.02,-87.793 -8.67,-20.715 -88.02,-19.773 -155.58,95.333 0,0 -26.05,42.68 -35.16,44.17 34.72,10.76 90.35,-31.02 125.04,-41.1 4.38,22.3 50.67,68.96 106.86,65.36 -19.47,28.56 -18.99,107.15 36.88,121.51 -73.1,33.29 -28.17,119.69 -3.55,139.73 -28.95,-2.08 -120.62,41.27 -217.79,-96.6 79.81,-78.26 3.14,-180.76 -56.06,-122.08 0.7,17.88 18.46,29.66 26.04,46.65 3.62,8 -9.14,79.67 -9.14,89.75 0,0.99 12.59,0.77 21.19,-8.49 2.58,-2.78 -5.03,24.32 -19.01,26.87 -3.61,0.6 17.51,2.92 31.91,-6.06 0,0 -16.42,28.09 -34.66,30.72 0,0 54.52,-1.31 35.21,64.77 0,0 -15.06,-38.93 -64.163,-36.12 0,0 -49.925,20.79 -64.343,20.79 -11.246,0 -11.379,-3.35 -17.243,-7.05 -5.98,-3.71 -32.621,13.5 -59.429,4.89 0,0 9.449,-5.28 18.078,-8.23 3.598,-3.23 5.574,-15.65 5.574,-28.67 22.891,17.9 38.254,-9.89 38.254,-9.89 0,0 -19.746,-9.36 -35.195,-12.39 -15.41,-2.99 -30.118,1.7 -30.907,12.61 -4.336,-9.34 6.36,-16.37 21.032,-19.23 13.738,-2.51 48.922,3.86 48.922,3.86 1.25,-3.86 -0.602,-6.31 -3.852,-7.77 -10.098,-5.44 -31.93,-1.56 -41.242,-4.6 1.48,-2.31 -0.16,-38.64 -0.485,-40.86 5.664,6.47 37.676,37.08 52.098,32.87 23.504,-6.77 50.531,4.11 50.531,4.11 0,0 -14.386,-7.35 -32.597,-14.85 -18.172,-7.6 -71.539,-44.16 -75.352,-114.78 0,-19.69 -58.574,-73.52 -101.137,-16.08 -18.812,6.45 -54.398,0.18 -52.785,-27.25 0,0 49.953,18.62 42.203,1 0,0 -32.183,-8.2 -39.418,-14.82 -7.23,-6.59 -7.808,-22.05 -5.113,-32.38 18.809,14.31 33.984,33.45 50.645,24.01 0,0 -12.246,-7.61 -18.348,-29.7 1.148,-13.2 2.398,-21.19 3.902,-22.54 9.453,24.94 23.797,45.02 48.922,40.22 22.34,-4.39 24.903,11.56 64.879,-9.42 -2.203,13.83 -33.473,23.73 -33.473,23.73 28.872,9.38 61.778,5.37 89.903,44.01 -10.817,-19.36 -20.121,-32.06 -49.246,-41.69 15.652,-71.29 83.476,-105.76 110.242,-137.25 -23.145,0 -65.801,23.66 -78.063,-7.19 -1.429,-27.932 7.926,-51.639 12.262,-77.346 -11.605,-5.75 -24.484,3.625 -36.816,5.012 -23.903,19.34 2.14,78.844 -49.907,65.977 l 6.547,-15.918 c 7.938,-9.942 18.77,-18.586 23.137,-30.719 -13.023,-0.719 -21.711,17.109 -29.684,27.227 -4.3,7.109 -6.418,22.167 -17.359,19.41 -7.152,-8.66 -23.09,2.757 -28.141,-10.828 17.336,-6.372 30.418,-20.758 43.29,-35.809 -12.293,-2.945 -20.911,14.281 -32.442,18.609 -12.324,-1.5 -26.73,2.934 -36.816,-3.558 1.41,-10.832 16.562,-12.926 24.492,-18.68 29.617,-24.375 64.48,-33.445 88.324,-63.527 9.5,-7.719 10.527,-13.16 13.988,-42.918 6.485,11.437 10.879,20.597 6.524,33.527 l -4.735,12.762 c 39.735,-8.59 112.5,-23.629 112.68,-56.77 18.462,1.309 -17.933,74.867 -12.289,98.266 0,0 35.411,-11.856 45.311,5.976 8.55,15.231 4.39,25.536 3.11,28.051 9.98,-14.933 -2.07,-27.308 -12.14,-64.789 18.82,-22.285 61.47,-23.504 59.32,-58.797 -6.52,-22.168 22.39,-36.347 -12.4,-41.527 -17.97,-7.742 -46.18,2.211 -55.6,-19.332 1.44,-9.949 -4.29,-23.68 5.06,-30.828 11,21.66 33.25,22.918 39.76,17.16 -6.51,-10.012 -20.37,-13.981 -23.2,-29.063 0.7,-15.07 5.88,-23.179 20.34,-29.636 -3.65,30.129 19.04,36.238 37.56,53.687 l 9.81,0.699 c -9.4,-16.558 -5.73,-32.988 -7.17,-50.078 0,0 37.79,-28.789 32.02,-21.519 -18.71,26.488 14.49,48.758 5.77,79.629 20.97,26.679 57.13,15.14 61.63,13.398 -3.93,19.352 -45.58,8.793 -58.74,22.274 -1.41,5.839 -7.96,-12.981 -7.96,-5.743 7.2,13.731 -17.85,16.442 1.14,56.161 4.95,10.449 1.4,8.199 29.78,11.468 -20.56,11.051 -39.54,8.543 -39.54,8.543 -5.69,33.434 -13.26,41.453 -13.26,41.453 59.06,-30.054 94.87,-20.754 131.11,-5.722 15.06,10 24.42,24.422 27.37,42.949 10.79,60.309 -49.05,73.299 -48.01,114.219 0,0 30.77,-7.15 40.77,-38.94 4.43,6.58 -0.78,34.32 -2.17,49.43 0,19.3 3.42,40.69 25.34,43.91 -6.53,12.14 -91.11,4.9 -120.04,-51.78"></path></g></g><g id="g98"><g clip-path="url(#clipPath104)" id="g100"><path id="path114" style="fill:url(#linearGradient112);fill-opacity:1;fill-rule:nonzero;stroke:none" d="m 777.434,1375.4 c 3.324,-6.69 -6.039,-41.4 -38.864,-26.42 0,0 11.672,-21.49 44.426,-5.05 l 10.027,-1.63 c 28.985,-69.25 73.926,-116.37 73.926,-116.37 1.746,19.8 4.356,24.18 11.391,35.98 -38.555,74.16 -48.945,84.4 -57.012,109.56 4.363,24.36 24.586,37.47 7.93,69.38 -10.735,21.58 -28.926,11.34 -28.926,11.34 19.883,-14 12.461,-31.01 12.461,-31.01 -8.027,9.41 -4.34,22.29 -24.82,29.74 -15.918,5 -25.004,12.66 -40.993,6.8 5.125,-9.23 23.426,-13.33 32.137,-21.17 l 1.641,-19.91 c -9.867,11.96 -23.883,21.55 -36.61,20.87 -15.554,0 -26.128,0.08 -27.82,-18.76 47.735,9 53.902,-17.43 61.106,-43.35"></path></g></g><g id="g116"><g clip-path="url(#clipPath122)" id="g118"><path id="path132" style="fill:url(#linearGradient130);fill-opacity:1;fill-rule:nonzero;stroke:none" d="m 471.23,1261.98 c 7.047,-11.72 9.645,-16.11 11.391,-35.93 0,0 44.957,47.13 73.945,116.36 l 9.997,1.59 c 32.777,-16.47 44.449,5.09 44.449,5.09 -32.821,-15.02 -42.219,19.75 -38.883,26.33 7.226,25.99 13.367,52.44 61.125,43.43 -1.691,18.87 -12.258,18.74 -27.832,18.74 -12.742,0.71 -26.715,-8.88 -36.629,-20.81 l 1.672,19.91 c 8.691,7.74 27.019,11.89 32.129,21.08 -15.969,5.89 -25.067,-1.74 -40.961,-6.77 -20.531,-7.39 -16.828,-20.35 -24.82,-29.72 0,0 -7.434,17.02 12.414,30.99 0,0 -18.188,10.27 -28.907,-11.33 -16.664,-31.87 3.559,-44.99 7.918,-69.37 -8.062,-25.14 -18.457,-35.39 -57.008,-109.59"></path></g></g><g id="g134"><g clip-path="url(#clipPath140)" id="g136"><path id="path150" style="fill:url(#linearGradient148);fill-opacity:1;fill-rule:nonzero;stroke:none" d="m 388.578,1397.72 c 14.863,7.2 18.496,1.84 18.496,1.84 0,0 1.457,-12.85 -1.797,-12.44 -10.343,1.56 -33.043,-1.49 -33.043,-1.49 0,0 1.457,4.83 16.344,12.09 z m 202.34,-229.01 c -7.754,17.63 42.191,-1.03 42.191,-1.03 1.641,27.46 -33.953,33.76 -52.761,27.27 -42.551,-57.42 -101.172,-3.61 -101.172,16.07 -3.781,70.64 -57.164,107.22 -75.352,114.78 -18.187,7.49 -32.59,14.84 -32.59,14.84 0,0 27.043,-10.86 50.543,-4.06 14.422,4.17 46.438,-26.44 52.141,-32.87 -0.371,2.16 -2,38.49 -0.504,40.84 -9.309,3.06 -31.109,-0.85 -41.269,4.59 -3.266,1.48 -5.09,3.93 -3.852,7.8 0,0 35.176,-6.38 48.93,-3.87 14.687,2.86 25.371,9.87 21.047,19.13 -0.786,-10.81 -15.504,-15.52 -30.934,-12.56 -15.441,3.02 -35.191,12.4 -35.191,12.4 0,0 15.418,27.8 38.242,9.89 0,12.98 2,25.49 5.566,28.66 8.633,2.95 18.102,8.26 18.102,8.26 -26.821,8.56 -53.442,-8.61 -59.407,-4.93 -5.886,3.75 -6.027,7.05 -17.25,7.05 -14.406,0 -64.332,-20.71 -64.332,-20.71 -49.14,-2.86 -64.214,36.08 -64.214,36.08 -19.266,-66.03 35.23,-64.77 35.23,-64.77 -18.219,-2.6 -34.617,-30.73 -34.617,-30.73 14.375,9.03 35.5,6.67 31.859,6.09 -13.98,-2.55 -21.594,-29.64 -18.988,-26.9 8.617,9.31 21.195,9.47 21.195,8.49 0,-10.07 -12.75,-81.76 -9.129,-89.7 7.575,-17.04 25.317,-28.78 26.024,-46.66 -59.192,-58.77 -135.875,43.77 -56.055,122.09 -97.183,137.84 -188.8632,94.49 -217.7733,96.54 24.5976,-20.02 69.5193,-106.44 -3.5938,-139.72 55.9101,-14.33 56.3441,-92.94 36.9336,-121.47 56.1525,3.62 102.4805,-43.07 106.8555,-65.4 34.691,10.07 90.301,51.88 125.023,41.12 -9.125,-1.48 -35.14,-44.16 -35.14,-44.16 C 229.063,965.992 149.707,965.125 141.09,985.727 c -5.238,15.433 23.305,42.003 10.984,87.903 0,0 13.938,4.17 34.668,-26.51 0,0 7.414,12.55 1.305,24.55 -28.883,56.65 -113.5118,63.88 -120.0314,51.76 21.9219,-3.23 25.3477,-24.62 25.3477,-43.91 -1.3906,-15.13 -6.6094,-42.87 -2.168,-49.43 9.9957,31.8 40.7537,38.96 40.7537,38.96 1.043,-40.93 -58.7771,-53.95 -47.9763,-114.202 2.9375,-18.575 12.3007,-33 27.3713,-42.961 36.211,-15.047 72.039,-24.356 131.101,5.664 0,0 -7.586,-8.047 -13.273,-41.512 0,0 -18.973,2.57 -39.516,-8.48 28.356,-3.207 24.797,-0.95 29.774,-11.399 18.972,-39.801 -6.078,-42.512 1.14,-56.191 0,-7.258 -6.547,11.531 -7.98,5.722 -13.16,-13.461 -54.793,-2.882 -58.738,-22.281 4.476,1.762 40.656,13.309 61.617,-13.398 -8.676,-30.832 24.496,-53.141 5.785,-79.653 -5.785,-7.23 32.004,21.539 32.004,21.539 -1.406,17.153 2.25,33.563 -7.149,50.102 l 9.786,-0.719 c 18.519,-17.41 41.214,-23.57 37.574,-53.722 14.469,6.461 19.64,14.601 20.355,29.703 -2.851,15.008 -16.715,19 -23.215,29.019 6.5,5.75 28.743,4.489 39.75,-17.121 9.36,7.102 3.625,20.852 5.063,30.852 -9.402,21.547 -37.578,11.539 -55.613,19.34 -34.743,5.078 -5.84,19.238 -12.364,41.519 -2.152,35.168 40.493,36.52 59.289,58.801 -10.039,37.391 -22.121,49.824 -12.093,64.785 -1.305,-2.578 -5.438,-12.891 3.086,-28.105 9.902,-17.832 45.304,-5.989 45.304,-5.989 5.684,-23.379 -30.758,-96.894 -12.285,-98.222 0.195,33.089 72.945,48.14 112.692,56.8 l -4.747,-12.812 c -4.378,-12.899 0.036,-22.051 6.524,-33.527 3.457,29.757 4.504,35.207 13.961,42.957 23.875,30.019 58.711,39.152 88.363,63.507 7.93,5.782 23.082,7.817 24.496,18.661 -10.097,6.464 -24.496,2.066 -36.824,3.57 -11.559,-4.332 -20.191,-21.567 -32.481,-18.59 12.95,15.02 25.981,29.398 43.356,35.836 -5.094,13.557 -21.012,2.094 -28.199,10.809 -10.891,2.748 -13.02,-12.301 -17.36,-19.485 -7.964,-10.074 -16.64,-27.847 -29.675,-27.16 4.386,12.129 15.222,20.703 23.156,30.707 l 6.519,15.938 c -52.027,12.818 -26.007,-46.645 -49.851,-65.981 -12.348,-1.375 -25.254,-10.828 -36.813,-5.019 4.313,25.675 13.7,49.39 12.25,77.378 -12.25,30.84 -54.937,7.09 -78.082,7.09 26.731,31.56 94.582,66.06 110.246,137.29 -29.136,9.59 -38.464,22.32 -49.257,41.68 28.144,-38.57 61.023,-34.62 89.875,-44 0,0 -31.25,-9.9 -33.434,-23.68 39.992,20.95 42.512,4.98 64.875,9.4 25.133,4.79 39.492,-15.29 48.887,-40.26 1.543,1.33 2.804,9.33 3.925,22.54 -6.105,22.1 -18.351,29.73 -18.351,29.73 16.707,9.41 31.848,-9.73 50.637,-24.02 2.711,10.35 2.156,25.83 -5.079,32.36 -7.218,6.63 -39.437,14.85 -39.437,14.85"></path></g></g><path id="path152" style="fill:#181817;fill-opacity:1;fill-rule:nonzero;stroke:none" d="M 1325.15,889.449 C 1310.27,738.43 1264.18,609.852 1202.87,501.539 1162.19,560 979.27,806.711 676.461,975.832 l -4.551,2.551 -4.543,-2.551 C 371.289,810.48 189.926,571.078 143.977,505.84 83.8867,613.629 38.7656,741.18 23.9453,890.68 v 507.27 c 25.5039,23.37 60.5352,44.54 103.0507,62.84 133.672,57.69 339.32,87.18 545.172,87.11 137.262,0.01 274.742,-13.01 391.362,-38.87 58.31,-12.92 111.39,-29.06 156.53,-48.26 43.08,-18.32 78.81,-39.49 105.09,-62.91 z M 976.316,223.961 C 898.375,154.441 822.125,104.289 765.168,71.4883 736.719,55.0898 713.082,43.0313 696.48,35.0586 c -8.296,-3.9883 -14.835,-6.9766 -19.324,-8.957 -1.172,-0.5 -2.191,-0.9532 -3.062,-1.3321 C 660.762,30.0117 616.645,49.8789 557.715,85.7383 469.023,139.66 346.328,229.98 240.551,362.27 209.934,400.57 180.805,442.488 154.227,487.941 189.02,538.52 370.059,787 671.91,956.938 c 168.113,-94.7 298.883,-213.719 387.67,-309.399 44.8,-48.258 78.94,-90.59 101.84,-120.789 11.46,-15.121 20.09,-27.18 25.87,-35.469 2.21,-3.172 3.86,-5.582 5.22,-7.609 C 1129.52,377.559 1052.18,291.629 976.316,223.961 Z M 1345.27,1412.04 c -29.46,27.42 -68.93,50.8 -115.84,70.76 -140.66,59.73 -349.055,88.97 -557.262,89.05 -138.785,-0.01 -277.332,-13.1 -395.383,-39.44 C 217.758,1519.23 163.852,1502.74 117.52,1482.79 71.1914,1462.8 32.3906,1439.41 3.6875,1411.92 L 0,1408.39 v -5.12 -513.84 l 0.0585938,-0.61 C 31.4023,570.422 197.297,348.141 355.723,206.051 434.965,134.949 512.402,83.7813 570.609,50.2891 599.719,33.5391 624,21.2305 641.344,13.0703 c 8.676,-4.08983 15.597,-7.14842 20.582,-9.21092 2.5,-1.03125 4.5,-1.82032 6.078,-2.39844 l 2.199,-0.74219 1.238,-0.359375 C 672.047,0.28125 672.461,0.0585938 674.488,0 c 0.285,0.0703125 0.981,-0.179688 3.692,0.582031 l 0.097,0.019532 0.078,0.039062 0.754,0.269531 c 1.172,0.480474 4.254,1.738284 9.45,4.050784 C 727.285,22.25 877.41,94.6992 1025.62,236.961 c 148.15,142.148 294.46,354.648 323.41,650.66 l 0.06,0.598 v 520.261 l -3.82,3.56"></path><path id="path154" style="fill:#181817;fill-opacity:1;fill-rule:nonzero;stroke:none" d="m 450.504,674.359 29.039,21.801 c -1.961,-8.43 -4.957,-21.39 -8.715,-37.57 -10.035,-43.262 -25.129,-108.168 -37.82,-162.238 -6.344,-27.043 -12.09,-51.364 -16.309,-68.942 -2.113,-8.781 -3.84,-15.879 -5.058,-20.75 -0.606,-2.461 -1.098,-4.332 -1.438,-5.582 l -0.375,-1.316 c -2.074,-3.813 -7.855,-9.391 -15.25,-15.043 -11.172,-8.559 -25.988,-17.699 -37.976,-24.641 -4.622,-2.656 -8.559,-4.859 -11.977,-6.726 z m 88.598,51.891 c 22.746,8.801 49.593,16.512 72.554,16.48 26.403,-0.031 40.199,-8.14 47.758,-15.761 2.641,-2.707 4.481,-5.379 5.813,-7.699 V 383.301 c -0.754,0.949 -1.414,1.969 -2.231,2.871 -10.871,11.988 -27.359,19.488 -46.629,24.078 -19.281,4.609 -41.445,6.301 -63.949,6.301 -57.859,0 -117.805,-11.25 -135.191,-14.77 0.765,2.981 1.816,7.219 3.207,12.918 14.742,60.629 61.254,261.422 67.32,287.59 0.371,0.211 1.168,0.672 2.742,1.531 7.125,3.871 25.844,13.649 48.606,22.43 z m 147.238,1.43 c 7.691,7.41 21.453,15.019 47.043,15.05 26.23,0.032 57.347,-10.16 81.66,-20.449 12.187,-5.152 22.687,-10.301 30.129,-14.152 3.73,-1.949 6.687,-3.551 8.711,-4.66 1.824,-1.028 2.75,-1.547 2.937,-1.668 l 0.871,-0.621 h -0.015 c 0,0 17.527,-75.43 35.215,-150.871 8.843,-37.719 17.722,-75.418 24.48,-103.731 3.375,-14.156 6.215,-25.937 8.258,-34.207 0.91,-3.699 1.629,-6.551 2.187,-8.742 -17.371,3.519 -77.433,14.793 -135.355,14.801 -29.973,-0.008 -59.316,-3 -82.074,-11.891 -11.36,-4.461 -21.114,-10.43 -28.336,-18.418 -1.328,-1.449 -2.449,-3.043 -3.59,-4.633 v 333.16 c 1.348,2.973 3.723,7.012 7.879,11.032 z M 998.828,355.66 c -8.894,4.692 -21.969,11.961 -34.273,20.192 -12.653,8.41 -24.395,17.988 -29.379,25.937 -0.156,0.539 -0.571,2.039 -1.11,4.102 -4.961,19.328 -22.48,93.578 -38.714,162.918 -8.122,34.691 -15.934,68.16 -21.715,92.953 -3.485,14.988 -6.227,26.718 -7.852,33.726 L 894.742,675.09 Z M 711.957,344.02 c -0.711,0 -26.531,10.519 -35.973,14.378 1.008,10.243 4.817,18.461 10.969,25.282 9.449,10.48 24.664,17.64 43.176,22.039 18.504,4.402 40.199,6.101 62.332,6.101 33.785,0 68.602,-3.941 94.941,-7.851 13.168,-1.981 24.219,-3.938 31.961,-5.41 6.696,-1.27 10.703,-2.129 11.746,-2.36 8.801,-12.07 26.606,-24.277 42.883,-34.148 9.992,-6.02 19.231,-10.973 25.363,-14.129 -7.644,0.137 -20.234,0.34 -36.113,0.566 -117.719,5.434 -218.398,33.711 -251.285,-4.468 z m -362.566,4.378 c 6.289,3.493 14.656,8.274 23.367,13.622 8.883,5.468 18.109,11.531 25.844,17.48 6.679,5.16 12.113,10.07 15.496,14.891 1.328,0.281 5.265,1.109 11.547,2.3 23.21,4.418 76.113,13.258 126.773,13.25 29.551,0.008 58.328,-3.043 79.773,-11.472 10.719,-4.199 19.571,-9.739 25.907,-16.739 5.769,-6.402 9.406,-14.101 10.691,-23.48 -9.555,-3.918 -34.117,-13.941 -34.883,-13.941 -34.32,39.8 -143,6.89 -267.843,3.671 z m 663.759,-8.226 -110.955,340.449 -40.617,28.629 -0.172,0.09 c -0.105,0.07 -18.047,10.558 -42.914,21.051 -24.929,10.507 -56.707,21.121 -85.109,21.179 -28.207,0.02 -44.836,-8.992 -54.067,-18.429 -3.007,-3.071 -5.175,-6.121 -6.804,-8.879 -1.637,2.758 -3.801,5.808 -6.809,8.879 -9.223,9.437 -25.859,18.449 -54.047,18.429 -28.414,-0.058 -60.351,-10.582 -85.422,-20.961 -25.046,-10.429 -43.129,-20.808 -43.23,-20.859 l -0.234,-0.141 -39.782,-29.859 -112.047,-339.699 1.266,-0.039 c -1.195,-0.793 -2.051,-1.473 -2.051,-1.832 0.797,0 300.231,-7.379 301.172,-8.25 21.453,-19.071 63.09,-19.532 84.652,-0.34 0.907,0.711 298.94,8.351 299.83,8.351 0,0.43 -1.07,1.239 -2.66,2.231"></path><path id="path156" style="fill:#181817;fill-opacity:1;fill-rule:nonzero;stroke:none" d="m 940.785,1642.31 c -0.031,59.48 44.66,83.67 93.835,97.57 49.57,14.16 68.63,18.27 68.67,44.76 0,29.1 -29.24,43.77 -48.1,46.56 -36.73,5.48 -55.616,-11.87 -58.327,-42.29 -16.886,2.15 -33.781,4.15 -50.703,5.93 0,57.77 45.028,81.7 102.98,73.09 53.9,-7.86 104.45,-38.61 104.45,-96.8 0,-39.21 -32.47,-52.51 -68.4,-61.24 -36.03,-8.61 -75.13,-13.19 -87.651,-36.34 52.101,-6.63 104.051,-14.87 155.761,-24.74 0,-12.61 0,-25.24 0,-37.86 -70.48,13.44 -141.38,23.88 -212.515,31.36 z m -261.094,247.82 c 70.407,-0.14 140.797,-3.19 211.016,-9.13 0,-13.64 0,-27.29 0,-40.89 -45.379,-46.04 -99.707,-118.17 -110.184,-186.13 -19.668,0.82 -39.386,1.4 -59.097,1.79 6.504,64.63 74.398,150.35 118.453,189.12 -53.336,3.47 -106.766,5.24 -160.188,5.35 0,13.28 0,26.6 0,39.89 z m -115.757,-63.6 c 0,19.91 -16.969,30.17 -49.2,28.15 -32.566,-2.07 -49.468,-14.43 -49.48,-34.32 0.012,-18.97 16.941,-28.25 49.48,-26.17 32.231,1.99 49.2,13.4 49.2,32.34 z m -49.2,-144.93 c 39.325,2.41 57.664,18.78 57.664,41.84 0.028,23.95 -18.339,39.34 -57.664,36.92 -39.328,-2.5 -57.601,-20.21 -57.601,-44.15 0,-23.03 18.273,-37.14 57.601,-34.61 z m -61.343,92.45 c 0,0.22 0,0.47 0,0.69 -24.039,5.01 -38.895,19.29 -38.895,44 0,34.22 24.981,66.77 100.238,71.78 74.957,4.41 100.118,-25 100.114,-59.22 0,-24.71 -14.95,-40.87 -39.039,-48.88 0,-0.22 0,-0.47 0,-0.71 35.289,-7.47 49.558,-30.72 49.558,-59.05 0.008,-26.78 -18.371,-71.7 -110.633,-76.91 -92.55,-6.37 -110.382,36.29 -110.382,63.06 0,28.31 13.839,53.34 49.039,65.24 z m -187.664,11.49 c -23.422,-3.79 -46.817,-7.93 -70.145,-12.36 0,11.28 0,22.55 0,33.78 4.684,0.92 9.356,1.77 14.063,2.67 22.781,4.31 60.453,16.59 67.519,53.48 12.328,1.95 24.676,3.79 37.035,5.54 0,-79.33 0,-158.68 0,-238.02 -16.168,-2.3 -32.336,-4.73 -48.472,-7.37 0,54.12 0,108.21 0,162.28"></path></g></g></svg>