<svg viewBox="0 0 90 90" xmlns="http://www.w3.org/2000/svg"><defs><linearGradient x1="157.204%" y1="71.755%" x2="82.3%" y2="13.079%" id="a"><stop stop-color="#00CDFF" offset="0%"/><stop stop-color="#009FFF" offset="100%"/></linearGradient></defs><g fill="none" fill-rule="evenodd"><path d="M87.973 56.589c-1.916 2.184-12.198 9.587-28.638 16.654-4.582 1.97-10.9 2.767-14.308 2.757-3.41-.01-9.78-.783-14.362-2.753-16.44-7.067-26.722-15.606-28.638-17.79C-1.65 51.267-.33 8.35 6.016 1.83c6.344-6.52 31.596 6.521 31.596 6.521l7.415-.011 7.36.007S77.64-4.695 83.985 1.826c6.345 6.52 7.665 50.573 3.99 54.763Z" fill="url(#a)" transform="translate(0 7)"/><path d="M65.97 67.523c-.012-7-10.492-12.138-20.983-12.138s-20.994 5.139-20.982 12.138c.011 6.998 10.518 12.137 21.022 12.137 10.504 0 20.954-5.139 20.942-12.137Z" fill="#FFF"/><path d="M45.183 73.796c-3.64 0-9.186-5.665-7.262-7.696 1.924-2.03 12.77-1.89 14.553 0 1.783 1.89-3.651 7.696-7.291 7.696Z" fill="#009FFF"/><path d="M4.857 61.46c-1.844-3.107-1.466-8.23-.956-8.594 1.217-.871 15.298-8.687 22.807-12.855 2.308-1.281 3.996-2.218 4.497-2.502 2.13-1.206 5.382 1.534 6.408 3.717 1.025 2.183-.055 8.47-.055 8.47s-4.377-4.873-6.353-3.754c-1.977 1.12-19.199 10.925-21.042 12.029-1.843 1.104 0 7.055 0 7.055s-4.224-1.743-5.306-3.567Zm80.287-.005c1.843-3.106 1.465-8.229.955-8.594-1.216-.87-15.298-8.686-22.806-12.854-2.309-1.282-3.996-2.218-4.497-2.502-2.13-1.207-5.383 1.534-6.408 3.717-1.025 2.183.055 8.47.055 8.47s4.376-4.873 6.353-3.754c1.977 1.12 19.198 10.924 21.041 12.029 1.843 1.104 0 7.054 0 7.054s4.225-1.743 5.307-3.566Zm-3.497-27.874c1.323-.31-.089-16.325-4.52-18.945-4.432-2.62-17.07 4.294-16.652 5.854.419 1.56 19.85 13.402 21.172 13.091ZM12.874 14.64c-4.431 2.62-5.844 18.634-4.52 18.945 1.322.31 20.753-11.53 21.172-13.09.418-1.56-12.22-8.475-16.652-5.855Z" fill="#FFF"/></g></svg>