<svg xmlns="http://www.w3.org/2000/svg" xmlns:xlink="http://www.w3.org/1999/xlink" viewBox="0 250 116.397 119.8" xmlns:v="https://vecta.io/nano"><g transform="matrix(.9957 0 0 1 -29.672 -15.7)"><defs><path d="M38.8 284.1v-4.8c0-.4.1-1.1.1-1.1l.2-.5v-.2l.2-.4.1-.1.1-.2.1-.1v-.1l.2-.2v-.1l.7-.7.2-.1h.1l.3-.2h.3l.6-.3c.4-.1.7-.1 1.1-.1h94.6v9.2h9v-18.4H43.1c-7.3 0-13.3 6.1-13.3 13.6v4.8z" id="A"/></defs><clipPath id="B"><use xlink:href="#A"/></clipPath><path d="M30.2 264.7h117.1v12H30.2z" fill="#898b8d" clip-path="url(#B)"/><linearGradient id="C" x1="-2420" x2="-2400" y1="800.1" y2="800.1" gradientTransform="matrix(.1869 .3575 -.6751 .353 1133 856.1)" gradientUnits="userSpaceOnUse"><stop offset="0" stop-color="#737373"/><stop offset="1" stop-color="#333"/></linearGradient><path d="m150.7 277.1-13.2 7.1-3.7-7.2 13.2-7.1z" fill="url(#C)" clip-path="url(#B)"/><linearGradient id="D" x1="-2368" x2="-2347" y1="2163" y2="2163" gradientTransform="matrix(-.1861 .3579 -.5495 -.2858 785 1739)" gradientUnits="userSpaceOnUse"><stop offset="0" stop-color="#737373"/><stop offset="1" stop-color="#333"/></linearGradient><path d="m38.9 284.1-10.7-5.7 3.7-7.3 10.7 5.8z" fill="url(#D)" clip-path="url(#B)"/><path d="M47.8 284.1h80.9v9.2H47.8zm0 73.9h80.9v9.2H47.8z" fill="#403f41"/><defs><path d="M137.7 367.2v4.8c0 .4-.1 1.1-.1 1.1l-.2.5v.2l-.2.4-.1.1-.1.2-.1.1v.1l-.2.2v.1l-.5.5h-.1l-.1.1-.2.1-.1.1-.3.2h-.3l-.5.2c-.4.1-.7.1-1.1.1H38.8v-9.2h-9v18.4h103.6c7.3 0 13.3-6.1 13.3-13.6v-4.8h-9z" id="E"/></defs><clipPath id="F"><use xlink:href="#E"/></clipPath><path d="M29.2 374.6h117.1v12H29.2z" fill="#898b8d" clip-path="url(#F)"/><linearGradient id="G" x1="1480" x2="1501" y1="2101" y2="2101" gradientTransform="matrix(-.1869 -.3575 .6751 -.353 -1106 1649)" gradientUnits="userSpaceOnUse"><stop offset="0" stop-color="#737373"/><stop offset="1" stop-color="#333"/></linearGradient><path d="m25.8 374.2 13.2-7.1 3.7 7.3-13.2 7.1z" fill="url(#G)" clip-path="url(#F)"/><linearGradient id="H" x1="1880" x2="1900" y1="995.7" y2="995.7" gradientTransform="matrix(.1861 -.3579 .5495 .2858 -757.7 765.5)" gradientUnits="userSpaceOnUse"><stop offset="0" stop-color="#737373"/><stop offset="1" stop-color="#333"/></linearGradient><path d="m137.6 367.2 10.8 5.7-3.7 7.3-10.8-5.8z" fill="url(#H)" clip-path="url(#F)"/><defs><path d="M38.8 302.6h34.6v9.2H38.8z" id="I"/></defs><clipPath id="J"><use xlink:href="#I"/></clipPath><path d="M38.8 302.6h34.6v9.2H38.8z" fill="#58595b" clip-path="url(#J)"/><linearGradient id="K" x1="2724" x2="2762" y1="2480" y2="2480" gradientTransform="matrix(-1.521 -1.021 3.14 1.519 -3559 -659.4)" gradientUnits="userSpaceOnUse"><stop offset=".107" stop-color="#58595b"/><stop offset="1"/></linearGradient><path d="m42.1 295 31.4 16.8-3.8 7.4-31.3-16.8z" fill="url(#K)" clip-path="url(#J)"/><defs><path d="M103.1 302.6h34.6v9.2h-34.6z" id="L"/></defs><clipPath id="M"><use xlink:href="#L"/></clipPath><path d="M103.1 302.6h34.6v9.2h-34.6z" fill="#58595b" clip-path="url(#M)"/><linearGradient id="N" x1="2370" x2="2408" y1="2242" y2="2242" gradientTransform="matrix(1.521 -1.021 -3.14 1.519 3527 -659.4)" gradientUnits="userSpaceOnUse"><stop offset=".107" stop-color="#58595b"/><stop offset="1"/></linearGradient><path d="m134.4 295-31.3 16.8 3.7 7.4 31.4-16.8z" fill="url(#N)" clip-path="url(#M)"/><defs><path d="M103.1 339.5h34.6v9.2h-34.6z" id="O"/></defs><clipPath id="P"><use xlink:href="#O"/></clipPath><path d="M103.1 339.5h34.6v9.2h-34.6z" fill="#58595b" clip-path="url(#P)"/><linearGradient id="Q" x1="-2721" x2="-2683" y1="-204.9" y2="-204.9" gradientTransform="matrix(1.521 1.021 -3.14 -1.519 3587 2791)" gradientUnits="userSpaceOnUse"><stop offset=".107" stop-color="#58595b"/><stop offset="1"/></linearGradient><path d="m134.4 356.3-31.3-16.8 3.7-7.4 31.4 16.8z" fill="url(#Q)" clip-path="url(#P)"/><defs><path d="M38.8 339.5h34.6v9.2H38.8z" id="R"/></defs><clipPath id="S"><use xlink:href="#R"/></clipPath><path d="M38.8 339.5h34.6v9.2H38.8z" fill="#58595b" clip-path="url(#S)"/><linearGradient id="T" x1="-2569" x2="-2530" y1="-102.7" y2="-102.7" gradientTransform="matrix(-1.521 1.021 3.14 -1.519 -3500 2791)" gradientUnits="userSpaceOnUse"><stop offset=".107" stop-color="#58595b"/><stop offset="1"/></linearGradient><path d="m42.1 356.3 31.4-16.8-3.8-7.4-31.3 16.8z" fill="url(#T)" clip-path="url(#S)"/><linearGradient id="U" x1="29.84" x2="73.4" y1="295.5" y2="295.5" gradientUnits="userSpaceOnUse"><stop offset=".237" stop-color="#a6a8ab"/><stop offset="1" stop-color="#404040"/></linearGradient><path d="M29.8 288.5v-9.2l43.6 23.3v9.2z" fill="url(#U)"/><linearGradient id="V" x1="146.7" x2="103.1" y1="295.5" y2="295.5" gradientUnits="userSpaceOnUse"><stop offset=".237" stop-color="#a6a8ab"/><stop offset="1" stop-color="#404040"/></linearGradient><path d="M146.7 288.5v-9.2l-43.6 23.3v9.2z" fill="url(#V)"/><linearGradient id="W" x1="146.68" x2="103.12" y1="356" y2="356" gradientUnits="userSpaceOnUse"><stop offset=".237" stop-color="#a6a8ab"/><stop offset="1" stop-color="#404040"/></linearGradient><path d="M146.7 362.8v9.3l-43.6-23.3v-9.3z" fill="url(#W)"/><linearGradient id="X" x1="29.9" x2="73.43" y1="356" y2="356" gradientUnits="userSpaceOnUse"><stop offset=".237" stop-color="#a6a8ab"/><stop offset="1" stop-color="#404040"/></linearGradient><path d="M29.8 362.8v9.3l43.6-23.3v-9.3z" fill="url(#X)"/><path d="m103.1 330.3 25.6 13.7v-9.3l-8.3-4.4h26.3V321h-26.3l8.3-4.4v-9.2L103.1 321v9.3zm-29.7 0V321l-25.6-13.6v9.2l8.4 4.4H29.8v9.3h26.3l-8.3 4.4v9.3l25.6-13.7z" fill="#d94f00"/></g></svg>
