<svg viewBox="0 0 85.417 88.043" xmlns="http://www.w3.org/2000/svg"><path d="M13.438 13.98H71.94v4.049l-3.939 2.251H18.703l-5.265-2.692V13.98z" fill="#444343"/><path d="M21.231 27.089H6.7l10.61 6.581h14.444L21.23 27.09zm32.412 6.59h14.349l10.643-6.654H64.552l-10.908 6.654z" fill="#2c2c2c"/><path d="M0 16.755V9.32l.118-.714.168-.755.151-.486.174-.465.159-.42.196-.458.247-.491.275-.49.353-.547.415-.543.484-.549.587-.557.697-.587.725-.523.822-.509.985-.5.848-.353.669-.224c.2-.058.381-.1 13.265-.123l64.058-.02v16.733L53.642 33.674v-6.691l25.054-13.339V7.487H8.945c-.108.004-.215.009-.35.049s-.3.118-.445.21a2.62 2.62 0 0 0-.677.619 5.493 5.493 0 0 0-.465.736c-.062.121-.101.215-.14.325s-.077.235-.097.938-.02 1.986-.02 3.268l25.005 13.322v6.721L0 16.755z" fill="#979797"/><path d="M6.699 27.089v6.59h6.786l-.351-3.103L6.7 27.089" fill="#6d6d6d"/><path d="M6.699 60.829h13.174l11.872-6.7H16.259l-9.561 6.7z" fill="#353535"/><path d="M6.699 54.149v6.682l6.389-3.542.426-3.158-6.816.018z" fill="#6d6d6d"/><path d="M13.134 30.579v6.663l6.179 3.122H0v7.12h19.004l-5.915 3.14v6.663l18.71-9.82v-7.01L13.131 30.58z" fill="#d3702b"/><path d="M71.993 70.119v4.129h-58.54v-4.197l4.559-2.18h49.487l4.495 2.248z" fill="#444343"/><path d="M65.003 60.769h13.716l-10.752-6.596H53.635l11.367 6.596z" fill="#353535"/><path d="M31.746 54.129v6.736L6.754 74.173v6.755h68.969c.17-.006.341-.012.533-.052s.405-.113.578-.192.307-.164.45-.265.295-.216.417-.326.213-.213.301-.329a3.21 3.21 0 0 0 .243-.368 2.85 2.85 0 0 0 .183-.399l.164-.484c.046-.149.076-.265.091-.98l.015-3.344-25.065-13.35v-6.67l31.765 16.9v8.853l-.173.642-.2.618-.196.52-.27.636-.277.575-.332.596-.339.545-.35.472-.494.613-.436.464-.409.382-.494.395-.473.343-.535.325-.672.327-.779.309-.69.227c-.207.057-.389.094-13.432.112l-64.84.018V71.087L31.74 54.13z" fill="#979797"/><path d="m71.823 56.989 6.897 3.785v-6.609l-6.361.001-.535 2.823zm.5-26.47 6.307-3.496v6.663h-7.418l1.11-3.167z" fill="#6d6d6d"/><path d="M72.323 37.199v-6.681l-18.694 9.894.009 7.028 18.722 9.849v-6.663l-5.953-3.222H85.41v-7.001H65.978l6.344-3.204z" fill="#d3702b"/></svg>
