<svg xmlns="http://www.w3.org/2000/svg" viewBox="0 0 256 256"><path d="M127.997.002C57.304.002 0 57.306 0 128v127.936h29.713V127.999c0-54.277 44.006-98.286 98.286-98.286S226.285 73.72 226.285 128c0 52.75-41.57 95.785-93.733 98.163-16.574-.135-30.704-2.825-36.893-6.633v-42.242a58.508 58.508 0 0032.15 9.574c32.454 0 58.76-26.307 58.76-58.76 0-32.454-26.307-58.774-58.76-58.774S69.05 95.648 69.05 128.1v127.836c19.394-.018 39.996.027 58.954 0C198.696 255.937 256 198.69 256 128.002 255.995 57.304 198.687 0 127.998 0l-.001.002z" fill="#FF5900"/></svg>