<?xml version="1.0" encoding="UTF-8" standalone="no"?>
<svg
   xmlns:dc="http://purl.org/dc/elements/1.1/"
   xmlns:cc="http://creativecommons.org/ns#"
   xmlns:rdf="http://www.w3.org/1999/02/22-rdf-syntax-ns#"
   xmlns:svg="http://www.w3.org/2000/svg"
   xmlns="http://www.w3.org/2000/svg"
   xmlns:sodipodi="http://sodipodi.sourceforge.net/DTD/sodipodi-0.dtd"
   xmlns:inkscape="http://www.inkscape.org/namespaces/inkscape"
   version="1.1"
   viewBox="0 0 512 512"
   id="svg25"
   sodipodi:docname="realme.svg"
   inkscape:version="0.92.4 (5da689c313, 2019-01-14)">
  <metadata
     id="metadata29">
    <rdf:RDF>
      <cc:Work
         rdf:about="">
        <dc:format>image/svg+xml</dc:format>
        <dc:type
           rdf:resource="http://purl.org/dc/dcmitype/StillImage" />
      </cc:Work>
    </rdf:RDF>
  </metadata>
  <sodipodi:namedview
     pagecolor="#ffffff"
     bordercolor="#666666"
     borderopacity="1"
     objecttolerance="10"
     gridtolerance="10"
     guidetolerance="10"
     inkscape:pageopacity="0"
     inkscape:pageshadow="2"
     inkscape:window-width="971"
     inkscape:window-height="635"
     id="namedview27"
     showgrid="false"
     inkscape:zoom="0.4609375"
     inkscape:cx="256"
     inkscape:cy="256"
     inkscape:window-x="1294"
     inkscape:window-y="588"
     inkscape:window-maximized="0"
     inkscape:current-layer="svg25" />
  <defs
     id="defs5">
    <clipPath
       id="clipPath18">
      <path
         d="M 0,850.394 H 850.394 V 0 H 0 Z"
         id="path2" />
    </clipPath>
  </defs>
  <g
     transform="matrix(2.9124017,0,0,2.9124017,-316.68411,-517.10998)"
     id="g1096">
    <path
       inkscape:connector-curvature="0"
       d="m 275.42391,265.59448 c 0.68504,-0.68504 0.66702,-0.94453 -0.12027,-1.73182 -0.47547,-0.47547 -0.93613,-0.64943 -1.71979,-0.64943 h -1.07036 v 1.45521 1.45521 h 1.19063 c 0.83785,0 1.34741,-0.15679 1.71979,-0.52917 z m -5.55625,1.35754 v -5.25705 l 0.99219,-0.164 c 1.57388,-0.26015 4.72452,-0.19622 5.53902,0.11238 2.40149,0.9099 2.89978,3.83122 0.83558,4.89866 l -0.76077,0.39341 0.68173,0.58639 c 0.45772,0.39371 0.84782,1.19494 1.1872,2.43839 0.27801,1.01859 0.50894,1.94129 0.51318,2.05043 0.004,0.10914 -0.58302,0.19843 -1.30502,0.19843 h -1.31271 l -0.28904,-1.12448 c -0.54725,-2.12906 -0.7011,-2.44838 -1.33976,-2.78076 -0.35231,-0.18335 -0.99775,-0.30242 -1.43431,-0.26458 l -0.79375,0.0688 -0.0773,2.05052 -0.0773,2.05052 h -1.17949 -1.1795 z m 6.97647,7.47699 c 1.78442,-0.60801 3.6418,-2.50462 4.38624,-4.47889 0.48797,-1.29411 0.57467,-1.95778 0.48258,-3.69418 -0.17514,-3.30235 -1.61051,-5.57031 -4.38891,-6.93471 -2.00878,-0.98646 -4.84883,-1.04527 -6.68905,-0.13852 -1.65688,0.8164 -3.08404,2.28662 -3.91249,4.03052 -1.00748,2.12079 -0.98511,5.07683 0.0545,7.20173 0.85783,1.75334 2.64349,3.44282 4.23478,4.00667 1.48594,0.52653 4.29829,0.53009 5.83235,0.007 z m -6.22601,2.31661 c -0.82418,-0.27302 -1.89574,-0.74358 -2.38125,-1.0457 -1.50542,-0.93675 -3.33656,-3.02209 -4.1108,-4.68148 -0.66339,-1.42181 -0.7407,-1.87747 -0.7407,-4.36563 0,-2.46244 0.0808,-2.95057 0.71124,-4.29572 0.95391,-2.03536 2.96982,-3.99977 5.17818,-5.04589 1.67,-0.79108 1.96905,-0.84484 4.69947,-0.84484 2.75838,0 3.0109,0.0467 4.6722,0.86457 2.24499,1.10521 4.43255,3.40587 5.26995,5.54242 0.45872,1.17038 0.60408,2.09403 0.61775,3.92548 0.0168,2.24993 -0.042,2.51605 -0.97027,4.39435 -1.83864,3.72024 -4.98469,5.76482 -9.15232,5.94798 -1.74579,0.0767 -2.65353,-0.0179 -3.79345,-0.39554 z m -35.67546,13.06319 c 6.33015,-1.85584 11.5689,-3.43131 11.64167,-3.50105 0.29142,-0.27932 -2.64661,-2.64015 -4.24722,-3.41282 -2.46807,-1.19142 -4.14215,-1.51544 -7.04505,-1.3636 -2.25178,0.11778 -2.70617,0.23543 -4.66329,1.20745 -3.5034,1.73999 -6.35054,4.96635 -7.5705,8.57885 -0.66963,1.98288 -0.67721,2.15447 -0.088,1.99262 0.25466,-0.07 5.64224,-1.6456 11.9724,-3.50145 z m -2.24896,43.39655 c -2.93332,-0.53735 -5.38332,-1.35708 -8.21764,-2.74949 -5.78248,-2.84074 -10.36868,-7.27358 -13.84537,-13.38241 l -1.34526,-2.36374 -0.0698,8.71374 -0.0698,8.71373 h -9.78958 -9.78958 l -0.14683,-20.10833 c -0.12948,-17.7335 -0.19956,-20.30423 -0.59342,-21.76705 -0.90713,-3.36915 -2.41688,-5.47215 -4.68074,-6.52005 -1.00921,-0.46714 -1.70452,-0.55249 -4.50089,-0.55249 -3.0783,0 -3.41063,0.0508 -4.79994,0.73302 -2.49544,1.22548 -4.20595,3.44811 -5.18194,6.73339 -0.40597,1.36654 -0.46924,3.65688 -0.59405,21.50547 l -0.13969,19.97604 H 159.13959 149.35 l -0.13545,-20.24062 c -0.13217,-19.75143 -0.14902,-20.28037 -0.69691,-21.8848 -0.77528,-2.27031 -1.72839,-3.80806 -3.11892,-5.03206 -1.53523,-1.35136 -3.34355,-1.92273 -6.08525,-1.92273 -4.49899,0 -7.44255,1.66624 -9.2486,5.23529 -1.3669,2.70122 -1.32687,2.06125 -1.47643,23.6043 l -0.14052,20.24062 -9.85573,0.0694 -9.85573,0.0694 v -32.81162 -32.81156 h 9.26042 9.26041 v 3.18874 3.18874 l 1.33615,-1.60554 c 2.47654,-2.97587 5.65007,-4.98951 9.69923,-6.15429 1.76957,-0.50903 2.69845,-0.59365 6.55942,-0.59752 5.1862,-0.005 6.62108,0.27896 10.1542,2.01084 2.66096,1.30435 5.75703,4.11856 7.65813,6.96094 0.6885,1.0294 1.3677,1.8736 1.50933,1.876 0.14163,0.002 0.75902,-0.66279 1.37199,-1.47822 1.54365,-2.05351 4.68576,-4.98112 6.58313,-6.1337 4.14637,-2.51879 8.34383,-3.50772 13.99821,-3.29801 3.91849,0.14532 6.52529,0.71946 9.75822,2.14922 5.71908,2.52925 10.56989,8.08911 12.06234,13.82553 l 0.44171,1.69777 0.7483,-1.3991 c 1.94623,-3.63888 6.05214,-8.08635 9.53318,-10.32623 10.19733,-6.56147 22.80995,-7.40463 32.37671,-2.16441 6.90251,3.78088 12.73387,10.96564 15.76662,19.42591 0.701,1.95556 2.30483,7.98066 2.16232,8.12318 -0.0403,0.0402 -9.73472,2.90847 -21.54326,6.37381 -11.80854,3.46534 -21.54474,6.37529 -21.636,6.46656 -0.26419,0.26419 1.28051,2.32998 2.85212,3.81425 4.22996,3.99489 10.10634,4.60283 16.21524,1.67753 3.39657,-1.62647 5.3391,-3.61508 6.36966,-6.52079 l 0.48392,-1.36443 8.34717,-2.44632 c 4.59094,-1.34548 8.55553,-2.50155 8.81019,-2.56904 0.39461,-0.10458 0.46302,0.0686 0.46302,1.17185 0,5.13539 -1.77946,11.40605 -4.56571,16.08918 -1.67554,2.81625 -5.31587,6.75841 -8.26284,8.94794 -2.28459,1.69739 -7.05558,4.12995 -9.39645,4.7909 -4.22793,1.19378 -10.47498,1.5539 -14.41979,0.83126 z"
       style="fill:#e30613;fill-opacity:1;stroke-width:0.26458335"
       id="path1080" />
    <path
       inkscape:connector-curvature="0"
       d="m 230.97391,227.89136 v -30.55938 h 3.70417 3.70416 v 30.55938 30.55937 h -3.70416 -3.70417 z m -108.34688,5.69143 c 5.11686,-0.26499 7.82755,-0.78765 10.09495,-1.94644 4.01701,-2.05297 5.90316,-5.82797 5.90316,-11.81478 0,-7.47054 -2.71869,-11.23237 -9.38352,-12.98392 -1.63675,-0.43015 -3.24149,-0.58942 -7.07761,-0.70244 l -4.96093,-0.14616 v 13.92772 c 0,10.9698 0.0702,13.92612 0.33073,13.92018 0.1819,-0.004 2.47385,-0.11851 5.09322,-0.25416 z m -13.89062,-5.32053 v -30.18848 l 9.06198,0.12141 c 9.72084,0.13023 11.56488,0.32684 15.90769,1.69606 5.54018,1.74674 9.17323,4.6397 11.41362,9.08853 1.4728,2.92459 1.75402,4.3727 1.90594,9.81447 0.19349,6.93084 -0.52363,10.19855 -3.05675,13.92873 -2.08497,3.07026 -5.87904,5.71736 -10.12811,7.06632 l -1.75083,0.55584 5.287,8.72206 c 2.90785,4.79714 5.34665,8.8737 5.41956,9.05903 0.10497,0.26686 -0.84943,0.3219 -4.58742,0.26459 l -4.71998,-0.0724 -5.04514,-8.33437 -5.04514,-8.33438 -3.09788,-0.0745 -3.09787,-0.0745 v 8.47506 8.47506 h -4.23334 -4.23333 z M 210.89182,252.11 c 7.76675,-2.40167 10.76575,-14.38477 5.41809,-21.64905 -2.0139,-2.73569 -5.07644,-4.28266 -8.88392,-4.48749 -3.60105,-0.19373 -6.39482,0.97886 -8.95836,3.75998 -2.24644,2.43709 -3.66375,6.78664 -3.37637,10.36166 0.42798,5.32406 3.0734,9.70448 6.96767,11.53745 2.8172,1.32601 5.60195,1.47653 8.83289,0.47745 z m -8.09604,7.22748 c -3.87657,-0.80734 -6.54845,-2.23977 -9.2716,-4.9706 -1.79124,-1.7963 -2.34267,-2.57333 -3.48585,-4.91198 -1.9018,-3.8906 -2.29869,-5.65979 -2.28521,-10.18646 0.009,-2.95665 0.12739,-4.13131 0.58759,-5.82083 2.32973,-8.55294 8.41578,-13.8201 16.55117,-14.3242 4.37991,-0.27139 9.06514,1.32655 12.14641,4.14266 0.79316,0.7249 1.51471,1.318 1.60344,1.318 0.0887,0 0.16134,-1.01203 0.16134,-2.24896 v -2.24896 h 3.57188 3.57187 v 19.18229 19.18229 h -3.57187 -3.57188 v -2.11666 c 0,-1.16417 -0.0726,-2.11667 -0.16134,-2.11667 -0.0887,0 -0.78772,0.57248 -1.55329,1.27217 -1.7324,1.58331 -4.55807,3.08912 -6.77931,3.61271 -1.55272,0.36601 -6.18843,0.51112 -7.51335,0.2352 z M 176.04419,234.4398 c -0.32522,-1.38347 -1.81809,-3.866 -3.05983,-5.08831 -2.47898,-2.44019 -5.90449,-3.49099 -9.16444,-2.81127 -1.01395,0.21141 -2.35746,0.64657 -2.98558,0.96701 -1.742,0.88871 -4.09872,3.2901 -5.00109,5.09592 -1.40291,2.80747 -2.33185,2.56425 9.79362,2.56425 h 10.58837 z m -13.20049,25.35156 c -4.26004,-0.69906 -6.96197,-2.08861 -10.06667,-5.17708 -1.95558,-1.94537 -2.59437,-2.79292 -3.48973,-4.63021 -1.52368,-3.12662 -1.94139,-4.88522 -2.10532,-8.86354 -0.44221,-10.73196 4.75775,-18.78696 13.58555,-21.04474 2.75776,-0.70531 6.95581,-0.70404 9.72012,0.003 4.89524,1.252 8.85105,4.46857 11.0724,9.00325 1.64602,3.36021 2.06521,5.05561 2.24059,9.06198 l 0.14767,3.37343 h -14.71949 -14.71949 v 0.60587 c 0,0.33323 0.1776,1.28773 0.39467,2.12112 1.74052,6.68232 8.26981,10.38907 14.76573,8.38269 2.98056,-0.9206 4.9939,-2.73499 7.72605,-6.96257 0.22589,-0.34953 0.68944,-0.1627 3.16964,1.27753 1.59778,0.92782 2.94947,1.82019 3.00376,1.98306 0.11539,0.34616 -1.438,2.76785 -2.92126,4.55416 -2.09434,2.52224 -6.12404,4.9957 -9.60213,5.89387 -1.90551,0.49207 -6.36606,0.71952 -8.20209,0.41823 z"
       style="fill:#000000;fill-opacity:1;stroke-width:0.26458335"
       id="path1055" />
  </g>
</svg>
