<svg version="1.1" viewBox="0 0 512 512" xmlns="http://www.w3.org/2000/svg"><g transform="matrix(2.9124 0 0 2.9124 -316.68 -517.11)" stroke-width=".26458"><path d="m275.42 265.59c0.68504-0.68504 0.66702-0.94453-0.12027-1.7318-0.47547-0.47547-0.93613-0.64943-1.7198-0.64943h-1.0704v2.9104h1.1906c0.83785 0 1.3474-0.15679 1.7198-0.52917zm-5.5562 1.3575v-5.257l0.99219-0.164c1.5739-0.26015 4.7245-0.19622 5.539 0.11238 2.4015 0.9099 2.8998 3.8312 0.83558 4.8987l-0.76077 0.39341 0.68173 0.58639c0.45772 0.39371 0.84782 1.1949 1.1872 2.4384 0.27801 1.0186 0.50894 1.9413 0.51318 2.0504 4e-3 0.10914-0.58302 0.19843-1.305 0.19843h-1.3127l-0.28904-1.1245c-0.54725-2.1291-0.7011-2.4484-1.3398-2.7808-0.35231-0.18335-0.99775-0.30242-1.4343-0.26458l-0.79375 0.0688-0.1546 4.101h-2.359zm6.9765 7.477c1.7844-0.60801 3.6418-2.5046 4.3862-4.4789 0.48797-1.2941 0.57467-1.9578 0.48258-3.6942-0.17514-3.3024-1.6105-5.5703-4.3889-6.9347-2.0088-0.98646-4.8488-1.0453-6.689-0.13852-1.6569 0.8164-3.084 2.2866-3.9125 4.0305-1.0075 2.1208-0.98511 5.0768 0.0545 7.2017 0.85783 1.7533 2.6435 3.4428 4.2348 4.0067 1.4859 0.52653 4.2983 0.53009 5.8324 7e-3zm-6.226 2.3166c-0.82418-0.27302-1.8957-0.74358-2.3812-1.0457-1.5054-0.93675-3.3366-3.0221-4.1108-4.6815-0.66339-1.4218-0.7407-1.8775-0.7407-4.3656 0-2.4624 0.0808-2.9506 0.71124-4.2957 0.95391-2.0354 2.9698-3.9998 5.1782-5.0459 1.67-0.79108 1.969-0.84484 4.6995-0.84484 2.7584 0 3.0109 0.0467 4.6722 0.86457 2.245 1.1052 4.4326 3.4059 5.27 5.5424 0.45872 1.1704 0.60408 2.094 0.61775 3.9255 0.0168 2.2499-0.042 2.516-0.97027 4.3944-1.8386 3.7202-4.9847 5.7648-9.1523 5.948-1.7458 0.0767-2.6535-0.0179-3.7934-0.39554zm-35.675 13.063c6.3302-1.8558 11.569-3.4313 11.642-3.501 0.29142-0.27932-2.6466-2.6402-4.2472-3.4128-2.4681-1.1914-4.1422-1.5154-7.045-1.3636-2.2518 0.11778-2.7062 0.23543-4.6633 1.2074-3.5034 1.74-6.3505 4.9664-7.5705 8.5788-0.66963 1.9829-0.67721 2.1545-0.088 1.9926 0.25466-0.07 5.6422-1.6456 11.972-3.5014zm-2.249 43.397c-2.9333-0.53735-5.3833-1.3571-8.2176-2.7495-5.7825-2.8407-10.369-7.2736-13.845-13.382l-1.3453-2.3637-0.0698 8.7137-0.0698 8.7137h-19.579l-0.14683-20.108c-0.12948-17.734-0.19956-20.304-0.59342-21.767-0.90713-3.3692-2.4169-5.4722-4.6807-6.52-1.0092-0.46714-1.7045-0.55249-4.5009-0.55249-3.0783 0-3.4106 0.0508-4.7999 0.73302-2.4954 1.2255-4.206 3.4481-5.1819 6.7334-0.40597 1.3665-0.46924 3.6569-0.59405 21.505l-0.13969 19.976h-19.579l-0.13545-20.241c-0.13217-19.751-0.14902-20.28-0.69691-21.885-0.77528-2.2703-1.7284-3.8081-3.1189-5.0321-1.5352-1.3514-3.3436-1.9227-6.0852-1.9227-4.499 0-7.4426 1.6662-9.2486 5.2353-1.3669 2.7012-1.3269 2.0612-1.4764 23.604l-0.14052 20.241-19.711 0.1388v-65.623h18.521v6.3775l1.3362-1.6055c2.4765-2.9759 5.6501-4.9895 9.6992-6.1543 1.7696-0.50903 2.6984-0.59365 6.5594-0.59752 5.1862-5e-3 6.6211 0.27896 10.154 2.0108 2.661 1.3044 5.757 4.1186 7.6581 6.9609 0.6885 1.0294 1.3677 1.8736 1.5093 1.876 0.14163 2e-3 0.75902-0.66279 1.372-1.4782 1.5436-2.0535 4.6858-4.9811 6.5831-6.1337 4.1464-2.5188 8.3438-3.5077 13.998-3.298 3.9185 0.14532 6.5253 0.71946 9.7582 2.1492 5.7191 2.5292 10.57 8.0891 12.062 13.826l0.44171 1.6978 0.7483-1.3991c1.9462-3.6389 6.0521-8.0864 9.5332-10.326 10.197-6.5615 22.81-7.4046 32.377-2.1644 6.9025 3.7809 12.734 10.966 15.767 19.426 0.701 1.9556 2.3048 7.9807 2.1623 8.1232-0.0403 0.0402-9.7347 2.9085-21.543 6.3738s-21.545 6.3753-21.636 6.4666c-0.26419 0.26419 1.2805 2.33 2.8521 3.8142 4.23 3.9949 10.106 4.6028 16.215 1.6775 3.3966-1.6265 5.3391-3.6151 6.3697-6.5208l0.48392-1.3644 8.3472-2.4463c4.5909-1.3455 8.5555-2.5016 8.8102-2.569 0.39461-0.10458 0.46302 0.0686 0.46302 1.1718 0 5.1354-1.7795 11.406-4.5657 16.089-1.6755 2.8162-5.3159 6.7584-8.2628 8.9479-2.2846 1.6974-7.0556 4.13-9.3964 4.7909-4.2279 1.1938-10.475 1.5539-14.42 0.83126z" fill="#e30613"/><path d="m230.97 227.89v-30.559h7.4083v61.119h-7.4083zm-108.35 5.6914c5.1169-0.26499 7.8276-0.78765 10.095-1.9464 4.017-2.053 5.9032-5.828 5.9032-11.815 0-7.4705-2.7187-11.232-9.3835-12.984-1.6368-0.43015-3.2415-0.58942-7.0776-0.70244l-4.9609-0.14616v13.928c0 10.97 0.0702 13.926 0.33073 13.92 0.1819-4e-3 2.4738-0.11851 5.0932-0.25416zm-13.891-5.3205v-30.188l9.062 0.12141c9.7208 0.13023 11.565 0.32684 15.908 1.6961 5.5402 1.7467 9.1732 4.6397 11.414 9.0885 1.4728 2.9246 1.754 4.3727 1.9059 9.8145 0.19349 6.9308-0.52363 10.199-3.0568 13.929-2.085 3.0703-5.879 5.7174-10.128 7.0663l-1.7508 0.55584 5.287 8.7221c2.9078 4.7971 5.3466 8.8737 5.4196 9.059 0.10497 0.26686-0.84943 0.3219-4.5874 0.26459l-4.72-0.0724-10.09-16.669-6.1958-0.149v16.95h-8.4667zm102.16 23.848c7.7668-2.4017 10.766-14.385 5.4181-21.649-2.0139-2.7357-5.0764-4.2827-8.8839-4.4875-3.601-0.19373-6.3948 0.97886-8.9584 3.76-2.2464 2.4371-3.6638 6.7866-3.3764 10.362 0.42798 5.3241 3.0734 9.7045 6.9677 11.537 2.8172 1.326 5.602 1.4765 8.8329 0.47745zm-8.096 7.2275c-3.8766-0.80734-6.5484-2.2398-9.2716-4.9706-1.7912-1.7963-2.3427-2.5733-3.4858-4.912-1.9018-3.8906-2.2987-5.6598-2.2852-10.186 9e-3 -2.9566 0.12739-4.1313 0.58759-5.8208 2.3297-8.5529 8.4158-13.82 16.551-14.324 4.3799-0.27139 9.0651 1.3266 12.146 4.1427 0.79316 0.7249 1.5147 1.318 1.6034 1.318 0.0887 0 0.16134-1.012 0.16134-2.249v-2.249h7.1438v38.365h-7.1438v-2.1167c0-1.1642-0.0726-2.1167-0.16134-2.1167-0.0887 0-0.78772 0.57248-1.5533 1.2722-1.7324 1.5833-4.5581 3.0891-6.7793 3.6127-1.5527 0.36601-6.1884 0.51112-7.5134 0.2352zm-26.752-24.898c-0.32522-1.3835-1.8181-3.866-3.0598-5.0883-2.479-2.4402-5.9045-3.491-9.1644-2.8113-1.014 0.21141-2.3575 0.64657-2.9856 0.96701-1.742 0.88871-4.0987 3.2901-5.0011 5.0959-1.4029 2.8075-2.3318 2.5642 9.7936 2.5642h10.588zm-13.2 25.352c-4.26-0.69906-6.962-2.0886-10.067-5.1771-1.9556-1.9454-2.5944-2.7929-3.4897-4.6302-1.5237-3.1266-1.9414-4.8852-2.1053-8.8635-0.44221-10.732 4.7578-18.787 13.586-21.045 2.7578-0.70531 6.9558-0.70404 9.7201 3e-3 4.8952 1.252 8.851 4.4686 11.072 9.0032 1.646 3.3602 2.0652 5.0556 2.2406 9.062l0.14767 3.3734h-29.439v0.60587c0 0.33323 0.1776 1.2877 0.39467 2.1211 1.7405 6.6823 8.2698 10.389 14.766 8.3827 2.9806-0.9206 4.9939-2.735 7.726-6.9626 0.22589-0.34953 0.68944-0.1627 3.1696 1.2775 1.5978 0.92782 2.9495 1.8202 3.0038 1.9831 0.11539 0.34616-1.438 2.7678-2.9213 4.5542-2.0943 2.5222-6.124 4.9957-9.6021 5.8939-1.9055 0.49207-6.3661 0.71952-8.2021 0.41823z"/></g></svg>
