<svg version="1.1" xmlns="http://www.w3.org/2000/svg" xmlns:xlink="http://www.w3.org/1999/xlink" x="0px" y="0px" style="enable-background:new 0 0 400 400;" xml:space="preserve" viewBox="-431.65 -12.25 429.62 429.62">
<style type="text/css">
	.st0{fill:#FFFFFF;}
	.st1{fill:#FFD75F;}
	.st2{fill:#4FB5E1;}
	.st3{fill:#F05751;}
	.st4{fill:#0681B6;}
	.st5{fill:#CD4739;}
</style>
<g id="Mark_w_x2F__shadow__x28_wht_x29_">
	<g>
		<g>

				<image style="overflow:visible;opacity:0.75;" width="1790" height="1790" xlink:href="A3D90D64B6E34754.png" transform="matrix(0.24 0 0 0.24 -431.64 -12.24)">
			</image>
			<g>
				<circle class="st0" cx="-226.8" cy="197.5" r="184.7"></circle>
			</g>
		</g>
		<g>
			<path class="st1" d="M-260.9,239.7L-260.9,239.7c-10.9-11-17.7-26-17.7-42.7c0-16.7,6.8-31.7,17.7-42.7l0,0
				c9.3-9.3,9.3-24.3,0-33.5c-9.3-9.3-24.3-9.3-33.6,0c-19.5,19.5-31.6,46.4-31.6,76.2c0,29.8,12.1,56.7,31.6,76.2
				c9.3,9.3,24.3,9.3,33.6,0C-251.6,264-251.6,249-260.9,239.7C-260.9,239.7-260.9,239.7-260.9,239.7z"></path>
			<path class="st2" d="M-260.9,154.4L-260.9,154.4c11-10.9,26.1-17.7,42.7-17.7c16.7,0,31.8,6.8,42.7,17.7l0,0
				c9.3,9.3,24.3,9.3,33.6,0c9.3-9.3,9.3-24.3,0-33.5c-19.5-19.5-46.5-31.6-76.3-31.6c-29.8,0-56.8,12.1-76.3,31.6
				c-9.3,9.3-9.3,24.3,0,33.5C-285.2,163.7-270.1,163.7-260.9,154.4C-260.9,154.4-260.9,154.4-260.9,154.4z"></path>
			<path class="st3" d="M-175.4,239.7L-175.4,239.7c-11,10.9-26.1,17.7-42.7,17.7c-16.7,0-31.8-6.8-42.7-17.7l0,0
				c-9.3-9.3-24.3-9.3-33.6,0c-9.3,9.3-9.3,24.3,0,33.5c19.5,19.5,46.5,31.6,76.3,31.6c29.8,0,56.8-12.1,76.3-31.6
				c9.3-9.3,9.3-24.3,0-33.5C-151.1,230.5-166.1,230.5-175.4,239.7C-175.4,239.7-175.4,239.7-175.4,239.7z"></path>
			<path class="st4" d="M-260.9,154.4c-9.3,9.3-24.3,9.3-33.6,0c-9.3-9.3-9.3-24.3,0-33.5c9.3-9.3,24.3-9.3,33.6,0
				C-251.6,130.1-251.6,145.1-260.9,154.4z"></path>
			<path class="st5" d="M-260.9,273.3c-9.3,9.3-24.3,9.3-33.6,0c-9.3-9.2-9.3-24.3,0-33.5c9.3-9.3,24.3-9.3,33.6,0
				C-251.6,249-251.6,264-260.9,273.3z"></path>
		</g>
	</g>
</g>
<g id="Mark_w_x2F_o_shadow__x28_wht_x29_">
	<g>
		<circle class="st0" cx="193.2" cy="197.5" r="184.7"></circle>
		<g>
			<path class="st1" d="M159.1,239.7L159.1,239.7c-10.9-11-17.7-26-17.7-42.7c0-16.7,6.8-31.7,17.7-42.7l0,0
				c9.3-9.3,9.3-24.3,0-33.5c-9.3-9.3-24.3-9.3-33.6,0C106,140.4,94,167.3,94,197.1c0,29.8,12.1,56.7,31.6,76.2
				c9.3,9.3,24.3,9.3,33.6,0C168.4,264,168.4,249,159.1,239.7C159.1,239.7,159.1,239.7,159.1,239.7z"></path>
			<path class="st2" d="M159.1,154.4L159.1,154.4c11-10.9,26.1-17.7,42.7-17.7c16.7,0,31.8,6.8,42.7,17.7l0,0
				c9.3,9.3,24.3,9.3,33.6,0c9.3-9.3,9.3-24.3,0-33.5c-19.5-19.5-46.5-31.6-76.3-31.6c-29.8,0-56.8,12.1-76.3,31.6
				c-9.3,9.3-9.3,24.3,0,33.5C134.8,163.7,149.9,163.7,159.1,154.4C159.1,154.4,159.1,154.4,159.1,154.4z"></path>
			<path class="st3" d="M244.6,239.7L244.6,239.7c-11,10.9-26.1,17.7-42.7,17.7c-16.7,0-31.8-6.8-42.7-17.7l0,0
				c-9.3-9.3-24.3-9.3-33.6,0c-9.3,9.3-9.3,24.3,0,33.5c19.5,19.5,46.5,31.6,76.3,31.6c29.8,0,56.8-12.1,76.3-31.6
				c9.3-9.3,9.3-24.3,0-33.5C268.9,230.5,253.9,230.5,244.6,239.7C244.6,239.7,244.6,239.7,244.6,239.7z"></path>
			<path class="st4" d="M159.1,154.4c-9.3,9.3-24.3,9.3-33.6,0c-9.3-9.3-9.3-24.3,0-33.5c9.3-9.3,24.3-9.3,33.6,0
				C168.4,130.1,168.4,145.1,159.1,154.4z"></path>
			<path class="st5" d="M159.1,273.3c-9.3,9.3-24.3,9.3-33.6,0c-9.3-9.2-9.3-24.3,0-33.5c9.3-9.3,24.3-9.3,33.6,0
				C168.4,249,168.4,264,159.1,273.3z"></path>
		</g>
	</g>
</g>
</svg>
