<svg viewBox="0 0 63 64" xmlns="http://www.w3.org/2000/svg"><path d="m54.4739 52.6845c-26.4156 12.5716-42.8094 2.0533-53.30354-4.3353-.649372-.4026-1.753085.0942-.795714 1.1941 3.496384 4.2391 14.953954 14.4567 29.909454 14.4567 14.9655 0 23.869-8.166 24.9827-9.5905 1.1062-1.4125.3251-2.1916-.7929-1.725zm7.4187-4.0971c-.7094-.9237-4.3134-1.0959-6.5816-.8173-2.2717.2706-5.6815 1.659-5.385 2.4926.1521.3123.4626.1722 2.0232.0319 1.5648-.1561 5.9485-.7094 6.862.4847.9177 1.2024-1.3982 6.93-1.8212 7.8538-.4086.9237.1562 1.1619.9238.5467.757-.615 2.1276-2.2077 3.0473-4.4616.9134-2.2661 1.4704-5.4274.9313-6.1308z" fill="#f90"/><path clip-rule="evenodd" d="m36.7123 27.0323c0 3.2986.0833 6.0494-1.5839 8.9788-1.3457 2.3819-3.4773 3.8465-5.8589 3.8465-3.2512 0-5.1446-2.477-5.1446-6.1328 0-7.2166 6.4662-8.5264 12.5874-8.5264zm8.5383 20.6374c-.5598.5-1.3696.5359-2.0006.2023-2.8104-2.3339-3.3109-3.4175-4.8587-5.6445-4.6442 4.7396-7.931 6.1566-13.9566 6.1566-7.1213 0-12.6708-4.3943-12.6708-13.1946 0-6.871 3.7276-11.5512 9.0265-13.8374 4.5969-2.0247 11.0156-2.3819 15.9219-2.9414v-1.0957c0-2.0126.1546-4.3943-1.0241-6.1328-1.0362-1.56005-3.013-2.20315-4.7517-2.20315-3.2271 0-6.109 1.65515-6.8116 5.08485-.1431.7623-.7028 1.5126-1.4647 1.5482l-8.2169-.881c-.6906-.1552-1.4526-.7147-1.2621-1.7747 1.8934-9.95527 10.884-12.9564 18.934-12.9564 4.1204 0 9.5029 1.09568 12.7541 4.21579 4.1204 3.8463 3.7273 8.97881 3.7273 14.56391v13.1946c0 3.9655 1.6434 5.704 3.1914 7.8477.5477.7621.667 1.6793-.0238 2.2506-1.727 1.4408-4.7994 4.1204-6.49 5.621l-.0239-.0239" fill="#fff" fill-rule="evenodd"/></svg>