<svg xmlns="http://www.w3.org/2000/svg"
    xmlns:xlink="http://www.w3.org/1999/xlink" viewBox="-0.000080108642578125 0.4236011505126953 25.82078742980957 24.523157119750977" version="1.1">
    <defs>
        <polygon id="path-3" points="0 0.0533898305 25.8207083 0.0533898305 25.8207083 24.5762073 0 24.5762073"></polygon>
    </defs>
    <g id="automate-io" stroke="none" stroke-width="1" fill="none" fill-rule="evenodd" transform="translate(-25.000000, -28.000000)">
        <g transform="translate(25.000000, 28.000000)">
            <g id="Group-6" transform="translate(0.000000, 0.370551)">
                <mask id="mask-4" fill="white">
                    <use xlink:href="#path-3"></use>
                </mask>
                <g id="Clip-5"></g>
                <path d="M17.1973161,4.0509322 L23.7190314,15.5547458 C25.0649803,17.929322 24.2403526,21.0649153 21.9087613,22.4361017 C19.5771701,23.8068644 16.4979219,22.9666102 15.151973,20.5924576 L8.63067372,9.08822034 C7.28430876,6.71364407 8.10976861,3.57805085 10.4409438,2.20686441 C12.772119,0.836101695 15.8513672,1.67635593 17.1973161,4.0509322 Z M12.9102504,19.6047458 L13.8904839,21.3339831 C15.6354328,24.4119492 19.6146153,25.4979661 22.6368635,23.7208475 C25.6591117,21.9437288 26.7258854,17.8911864 24.9809365,14.8127966 L18.4592212,3.30940678 C18.3959803,3.1979661 18.329827,3.08864407 18.2607613,2.98186441 L18.2491117,2.96364407 L18.2424547,2.95135593 C17.8259803,2.20135593 17.1723526,1.62381356 16.4742066,1.15432203 L16.3685277,1.08398305 L16.2345569,0.992457627 L16.0007321,0.861949153 C15.0550314,0.334830508 13.9895058,0.0560169492 12.9119146,0.0530508475 C11.6957759,0.0560169492 10.4937832,0.410677966 9.46736715,1.07381356 L9.45363723,1.08313559 C8.59073212,1.64161017 7.87261533,2.40728814 7.36169562,3.30898305 L0.839980292,14.8127966 C-0.905384672,17.8907627 0.161389051,21.9433051 3.18363723,23.7204237 C6.20630146,25.4979661 10.1850679,24.4119492 11.9300168,21.3339831 L12.9102504,19.604322 L12.9102504,19.6047458 Z" id="Fill-4" fill="#5f84e0" mask="url(#mask-4)"></path>
            </g>
        </g>
    </g>
</svg>