<svg viewBox="0 0 381 381" xmlns="http://www.w3.org/2000/svg">
<rect x="0.822998" y="0.822998" width="380.177" height="380.177" rx="52.8348" fill="#0F0F0F"/>
<path d="M82.2893 191.152L65.0161 143.923V191.152H54V113.58H64.4363L81.5887 160.616V113.58H92.6048V191.152H82.2893" fill="#FFD744"/>
<path d="M100.046 191.152H111.062V113.58H100.046V191.152Z" fill="#FFD744"/>
<path d="M129.615 191.152V123.895H116.618V113.58H153.846V123.895H140.631V191.152H129.615Z" fill="#FFD744"/>
<path d="M159.185 191.152V113.58H178.56C183.657 113.58 187.957 115.368 191.436 118.919C194.915 122.494 196.654 126.819 196.654 131.94V139.139C196.654 146.266 193.634 151.726 187.619 155.543L199.312 191.152H187.643L177.159 157.862H170.201V191.152H159.185ZM183.754 145.686C184.454 144.841 184.937 143.85 185.203 142.763C185.469 141.676 185.614 140.468 185.614 139.139V131.916C185.614 129.5 184.962 127.567 183.633 126.094C182.328 124.62 180.468 123.871 178.077 123.871H170.201V148.126H177.98C180.275 148.126 182.208 147.329 183.754 145.686" fill="#FFD744"/>
<path d="M201.148 191.152L217.31 113.58H228.036L245.333 191.152H233.447L230.331 174.459H216.029L212.913 191.152H201.148V191.152ZM217.841 164.143H228.277L223.059 136.554L217.841 164.143Z" fill="#FFD744"/>
<path d="M266.206 113.58C271.158 113.58 275.434 115.343 279.01 118.87C282.609 122.398 284.397 126.649 284.397 131.602V171.97C284.397 177.551 282.682 182.141 279.227 185.765C275.797 189.364 271.327 191.176 265.843 191.176H248.691V113.604L266.206 113.58ZM273.381 171.994V131.602C273.381 129.428 272.608 127.616 271.038 126.19C269.467 124.765 267.583 124.04 265.384 124.04H259.683V180.836H265.046C270.627 180.836 273.381 177.889 273.381 171.994Z" fill="#FFD744"/>
<path d="M293.577 120.996C295.365 118.532 297.587 116.575 300.293 115.15C302.999 113.725 305.825 113 308.748 113C311.599 113 314.305 113.58 316.817 114.739C319.33 115.899 321.407 117.493 323.074 119.499C324.741 121.504 325.877 123.557 326.505 125.635C327.133 127.712 327.423 130.007 327.423 132.472V171.898C327.423 174.217 327.205 176.246 326.795 177.986C326.36 179.725 325.466 181.682 324.065 183.856C322.663 186.03 320.61 187.866 317.928 189.412C315.223 190.959 312.275 191.732 309.111 191.732C305.487 191.732 302.129 190.814 299.085 188.953C296.017 187.093 293.915 184.991 292.707 182.624C291.499 180.256 290.799 178.372 290.557 176.947C290.316 175.521 290.219 173.83 290.219 171.898V132.472C290.219 130.152 290.461 128.099 290.968 126.335C291.451 124.572 292.321 122.784 293.577 120.996V120.996ZM315.029 127.157C313.483 125.079 311.478 124.016 308.99 124.016C307.685 124.016 306.381 124.379 305.1 125.127C303.82 125.852 302.926 126.674 302.443 127.567C301.936 128.461 301.622 129.355 301.453 130.297C301.308 131.215 301.211 131.988 301.211 132.616V172.019C301.211 172.792 301.259 173.637 301.38 174.579C301.501 175.497 302.105 176.778 303.24 178.348C304.352 179.942 306.284 180.715 308.99 180.715C310.391 180.715 311.647 180.377 312.759 179.725C313.894 179.073 314.691 178.324 315.199 177.454C315.706 176.609 316.02 175.787 316.189 175.014C316.334 174.241 316.431 173.226 316.431 171.994V132.568C316.431 131.022 316.358 129.935 316.262 129.331C316.117 128.727 315.706 128.002 315.029 127.157Z" fill="#FFD744"/>
<path d="M125.073 212.677H255.528L190.301 269.304L125.073 212.677" fill="#FFD744"/>
</svg>
