<svg version="1.1" id="layer" x="0px" y="0px" viewBox="20.200000762939453 300.1000061035156 68.60000610351562 68.60000610351562" style="enable-background:new 0 0 652 652;" xml:space="preserve" sodipodi:docname="imedidata.svg" inkscape:version="1.1.2 (0a00cf5339, 2022-02-04)" xmlns:inkscape="http://www.inkscape.org/namespaces/inkscape" xmlns:sodipodi="http://sodipodi.sourceforge.net/DTD/sodipodi-0.dtd" xmlns="http://www.w3.org/2000/svg" xmlns:svg="http://www.w3.org/2000/svg"><defs id="defs33"></defs><sodipodi:namedview id="namedview31" pagecolor="#ffffff" bordercolor="#666666" borderopacity="1.0" inkscape:pageshadow="2" inkscape:pageopacity="0.0" inkscape:pagecheckerboard="0" showgrid="false" inkscape:zoom="2.1370093" inkscape:cx="105.75527" inkscape:cy="3.7435495" inkscape:window-width="1600" inkscape:window-height="831" inkscape:window-x="0" inkscape:window-y="32" inkscape:window-maximized="1" inkscape:current-layer="layer"></sodipodi:namedview>
<style type="text/css" id="style2">
	.st0{fill:#C6D700;}
	.st1{fill:#002856;}
</style>
<g id="g12">
	<path class="st0" d="M88.8,308.6c0,4.7-3.8,8.5-8.5,8.5c-4.7,0-8.5-3.8-8.5-8.5c0-4.7,3.8-8.5,8.5-8.5   C85,300.1,88.8,303.9,88.8,308.6" id="path4"></path>
	<path class="st1" d="M54.5,351.7c-4.7,0-8.5,3.8-8.5,8.5c0,4.7,3.8,8.5,8.5,8.5c4.7,0,8.5-3.8,8.5-8.5   C63,355.5,59.2,351.7,54.5,351.7 M28.7,351.7c-4.7,0-8.5,3.8-8.5,8.5c0,4.7,3.8,8.5,8.5,8.5c4.7,0,8.5-3.8,8.5-8.5   C37.2,355.5,33.4,351.7,28.7,351.7 M80.3,351.7c-4.7,0-8.5,3.8-8.5,8.5c0,4.7,3.8,8.5,8.5,8.5c4.7,0,8.5-3.8,8.5-8.5   C88.8,355.5,85,351.7,80.3,351.7 M54.5,325.9c-4.7,0-8.5,3.8-8.5,8.5c0,4.7,3.8,8.5,8.5,8.5c4.7,0,8.5-3.8,8.5-8.5   C63,329.7,59.2,325.9,54.5,325.9 M28.7,325.9c-4.7,0-8.5,3.8-8.5,8.5c0,4.7,3.8,8.5,8.5,8.5c4.7,0,8.5-3.8,8.5-8.5   C37.2,329.7,33.4,325.9,28.7,325.9 M80.3,342.9c4.7,0,8.5-3.8,8.5-8.5c0-4.7-3.8-8.5-8.5-8.5c-4.7,0-8.5,3.8-8.5,8.5   C71.8,339.1,75.6,342.9,80.3,342.9 M54.5,300.1c-4.7,0-8.5,3.8-8.5,8.5c0,4.7,3.8,8.5,8.5,8.5c4.7,0,8.5-3.8,8.5-8.5   C63,303.9,59.2,300.1,54.5,300.1 M28.7,300.1c-4.7,0-8.5,3.8-8.5,8.5c0,4.7,3.8,8.5,8.5,8.5c4.7,0,8.5-3.8,8.5-8.5   C37.2,303.9,33.4,300.1,28.7,300.1" id="path6"></path>


</g>

<g id="g28">






</g>
</svg>
