<svg version="1.1" id="layer" xmlns="http://www.w3.org/2000/svg" xmlns:xlink="http://www.w3.org/1999/xlink" x="0px" y="0px"
	 viewBox="0 0 652 652" style="enable-background:new 0 0 652 652;" xml:space="preserve">
<style type="text/css">
	.st0{fill:#C6D700;}
	.st1{fill:#002856;}
</style>
<g>
	<path class="st0" d="M88.8,308.6c0,4.7-3.8,8.5-8.5,8.5c-4.7,0-8.5-3.8-8.5-8.5c0-4.7,3.8-8.5,8.5-8.5
		C85,300.1,88.8,303.9,88.8,308.6"/>
	<path class="st1" d="M54.5,351.7c-4.7,0-8.5,3.8-8.5,8.5c0,4.7,3.8,8.5,8.5,8.5c4.7,0,8.5-3.8,8.5-8.5
		C63,355.5,59.2,351.7,54.5,351.7 M28.7,351.7c-4.7,0-8.5,3.8-8.5,8.5c0,4.7,3.8,8.5,8.5,8.5c4.7,0,8.5-3.8,8.5-8.5
		C37.2,355.5,33.4,351.7,28.7,351.7 M80.3,351.7c-4.7,0-8.5,3.8-8.5,8.5c0,4.7,3.8,8.5,8.5,8.5c4.7,0,8.5-3.8,8.5-8.5
		C88.8,355.5,85,351.7,80.3,351.7 M54.5,325.9c-4.7,0-8.5,3.8-8.5,8.5c0,4.7,3.8,8.5,8.5,8.5c4.7,0,8.5-3.8,8.5-8.5
		C63,329.7,59.2,325.9,54.5,325.9 M28.7,325.9c-4.7,0-8.5,3.8-8.5,8.5c0,4.7,3.8,8.5,8.5,8.5c4.7,0,8.5-3.8,8.5-8.5
		C37.2,329.7,33.4,325.9,28.7,325.9 M80.3,342.9c4.7,0,8.5-3.8,8.5-8.5c0-4.7-3.8-8.5-8.5-8.5c-4.7,0-8.5,3.8-8.5,8.5
		C71.8,339.1,75.6,342.9,80.3,342.9 M54.5,300.1c-4.7,0-8.5,3.8-8.5,8.5c0,4.7,3.8,8.5,8.5,8.5c4.7,0,8.5-3.8,8.5-8.5
		C63,303.9,59.2,300.1,54.5,300.1 M28.7,300.1c-4.7,0-8.5,3.8-8.5,8.5c0,4.7,3.8,8.5,8.5,8.5c4.7,0,8.5-3.8,8.5-8.5
		C37.2,303.9,33.4,300.1,28.7,300.1"/>
	<path class="st1" d="M329.1,345.7c0,6.8-4.5,12.7-14.6,12.7c-4.8,0-8.2-1.4-10.3-3.5c-3.3-3.3-4.4-8.2-4.4-19.9
		c0-11,1-15.8,4.2-19.1c2.3-2.3,5.7-3.7,10.6-3.7c10.2,0,14.6,5.9,14.6,12.9V345.7z M329.1,310.1l-2.8-2.8c-4-4-7.8-6.1-14.9-6.1
		c-7.6,0-13.2,2.3-17.7,6.7c-4.4,4.5-7.3,10.8-7.3,27.1c0,15.9,2.8,23.2,7.6,27.9c4.4,4.3,10.3,6.3,17.3,6.3
		c7.4,0,11.4-2.4,15.6-6.7l3-3v8.5h12.1v-92.9h-13V310.1z"/>
	<path class="st1" d="M184.8,301.3c-8.8,0-12.6,3.4-17.5,8.1l-2.3,2.1c-4.3-8.1-11.6-10.2-18.4-10.2c-7.1,0-11.4,2.3-14.9,5.8
		l-4.3,4.3v-8.7h-12.1V368h13v-43.8c0-6.9,5.8-12,14-12c9.2,0,11.6,6.6,11.6,12V368H167v-43.8c0-6.9,5.8-12,14-12
		c9.2,0,11.6,6.6,11.6,12V368h13.1v-41.8c0-10.9-2.5-15.3-5.8-18.8C195.7,302.9,190.9,301.3,184.8,301.3"/>
</g>
<rect x="361.4" y="302.7" class="st1" width="13" height="65.4"/>
<g>
	<path class="st1" d="M431.9,345.7c0,6.8-4.5,12.7-14.6,12.7c-4.8,0-8.2-1.4-10.3-3.5c-3.3-3.3-4.4-8.2-4.4-19.9
		c0-11,1-15.8,4.2-19.1c2.3-2.3,5.7-3.7,10.6-3.7c10.2,0,14.6,5.9,14.6,12.9V345.7z M431.9,310.1l-2.8-2.8c-4-4-7.8-6.1-14.9-6.1
		c-7.6,0-13.2,2.3-17.7,6.7c-4.4,4.5-7.3,10.8-7.3,27.1c0,15.9,2.8,23.2,7.6,27.9c4.4,4.3,10.3,6.3,17.3,6.3
		c7.4,0,11.4-2.4,15.6-6.7l3-3v8.5h12.1v-92.9h-13V310.1z"/>
	<path class="st1" d="M543.2,302.7l0-1.9v-18.4h-13v18.4l0,1.9l-1.9,0h-7.4v10h7.4l1.9,0l0,1.9v36.1c0,10.1,6.3,18.7,18.4,18.7h1.6
		c2.5,0,5.3-0.8,6.4-1.9V358H551c-5.4,0-7.8-3.9-7.8-8.6v-34.8l0-1.9l1.9,0h11.6v-10h-11.6L543.2,302.7z"/>
	<path class="st1" d="M367.9,278.8c-3.9,0-7.1,3.2-7.1,7.1c0,3.9,3.2,7.1,7.1,7.1c3.9,0,7.1-3.2,7.1-7.1
		C375,282,371.8,278.8,367.9,278.8"/>
	<path class="st1" d="M231.9,327.2v-1.8c0-6.4,3.5-13.6,15.1-13.6c10.1,0,14.5,7.2,14.5,13.6v1.8l0,1.9l-1.9,0h-25.9l-1.9,0
		L231.9,327.2z M274.6,355.4c0.1-0.2,0.2-0.4,0.2-0.7c0-0.5-0.3-0.8-0.6-1l-8.9-4.5c0,0-0.1,0.2-0.2,0.3c-0.9,1-2.9,3.2-2.9,3.2
		c-2.5,2.5-7.3,6.1-13.4,6.1H248c-11.7,0-16.1-6.2-16.1-17.2V340v-1.9h1.9h40.9v-6.1c0-10.9-2.7-17.9-7.8-23.2
		c-4.7-4.7-11.2-7.6-19.8-7.6c-9.3,0-16.1,3-20.7,7.8c-5,5.2-7.6,12.2-7.6,25.7c0,16,2.4,22.7,7.6,27.5c4.7,4.4,11.6,6.9,21.6,6.9
		h0.1c0,0,0.1,0,0.1,0c8,0,14.2-2.6,19.6-7c2.8-2.3,5.8-5.8,6.7-6.8C274.5,355.5,274.6,355.4,274.6,355.4"/>
	<path class="st1" d="M498.4,344.6c0,9.1-6.6,14.8-15.5,14.8c-8.5,0-12.5-3.9-12.5-10.3c0-5.7,3.9-8.6,8.8-9.5c0,0,10.9-2,13.8-2.6
		c2.6-0.5,5.3-1.7,5.3-1.7V344.6z M506.1,308.4c-4.4-4.8-11.7-7.1-20.6-7.1c-8,0-14.2,2.6-19.6,7c-2,1.6-3.9,3.6-5.2,5
		c-0.4,0.5-1.7,1.9-1.7,1.9c-0.1,0.2-0.2,0.4-0.2,0.7c0,0.5,0.3,0.8,0.6,1l2.2,1.1h0l6.7,3.4c0,0,0.1-0.2,0.2-0.3
		c0.9-1,2.9-3.2,2.9-3.2c2.5-2.5,7.3-6.1,13.4-6.1c10.1,0,13.5,4.5,13.5,10.6c0,3.4-2.1,5.2-9.2,6.2l-10.9,1.6
		c-11.6,1.8-20.8,7.9-20.8,19.7c0,12.9,9.6,19.3,20.8,19.3c9.8,0,14.5-2.9,18.3-6.6l2.4-2.3v7.5h12.4v-42.7
		C511.4,316.9,509.5,312.2,506.1,308.4"/>
	<path class="st1" d="M607.2,344.6c0,9.1-6.6,14.8-15.5,14.8c-8.5,0-12.5-3.9-12.5-10.3c0-5.7,3.9-8.6,8.8-9.5c0,0,10.9-2,13.8-2.6
		c2.6-0.5,5.3-1.7,5.3-1.7V344.6z M614.9,308.4c-4.4-4.8-11.7-7.1-20.6-7.1c-8,0-14.2,2.6-19.6,7c-2,1.6-3.9,3.6-5.2,5
		c-0.4,0.5-1.7,1.9-1.7,1.9c-0.1,0.2-0.2,0.4-0.2,0.7c0,0.5,0.3,0.8,0.6,1l2.2,1.1h0l6.7,3.4c0,0,0.1-0.2,0.2-0.3
		c0.9-1,2.9-3.2,2.9-3.2c2.5-2.5,7.3-6.1,13.4-6.1c10.1,0,13.5,4.5,13.5,10.6c0,3.4-2.1,5.2-9.2,6.2l-10.9,1.6
		c-11.6,1.8-20.8,7.9-20.8,19.7c0,12.9,9.6,19.3,20.8,19.3c9.8,0,14.5-2.9,18.3-6.6l2.4-2.3v7.5h12.4v-42.7
		C620.2,316.9,618.3,312.2,614.9,308.4"/>
</g>
</svg>
