<svg xmlns="http://www.w3.org/2000/svg" xmlns:xlink="http://www.w3.org/1999/xlink" viewBox="0 0 284.43 270.16"><defs><style>.cls-1{fill:url(#img);}.cls-2{fill:url(#img-2);}.cls-3{fill:url(#img-3);}.cls-4{fill:#fff;}.cls-5{fill:url(#img-4);}.cls-6{fill:url(#img-5);}.cls-7{fill:url(#img-6);}.cls-8{fill:url(#img-7);}.cls-9{fill:url(#img-8);}.cls-10{fill:url(#img-9);}.cls-11{fill:url(#img-10);}.cls-12{fill:url(#img-11);}.cls-13{fill:url(#img-12);}.cls-14{fill:url(#Dégradé_sans_nom_10);}.cls-15{fill:url(#Dégradé_sans_nom_10-2);}.cls-16{fill:url(#img-13);}.cls-17{fill:url(#img-14);}.cls-18{fill:url(#img-15);}.cls-19{fill:url(#img-16);}.cls-20{fill:url(#img-17);}</style><linearGradient id="img" x1="1.05" y1="201.73" x2="284.43" y2="201.73" gradientUnits="userSpaceOnUse"><stop offset="0" stop-color="#266bf4"/><stop offset="1" stop-color="#6c45c6"/></linearGradient><linearGradient id="img-2" x1="225.48" y1="124.35" x2="245.44" y2="124.35" xlink:href="#img"/><linearGradient id="img-3" x1="30.32" y1="121.51" x2="43.89" y2="121.51" xlink:href="#img"/><linearGradient id="img-4" x1="30.32" y1="141.46" x2="245.46" y2="141.46" xlink:href="#img"/><linearGradient id="img-5" x1="69.84" y1="61.71" x2="86.72" y2="61.71" xlink:href="#img"/><linearGradient id="img-6" x1="144.15" y1="70.15" x2="161.03" y2="70.15" xlink:href="#img"/><linearGradient id="img-7" x1="201.87" y1="206.79" x2="212.26" y2="206.79" xlink:href="#img"/><linearGradient id="img-8" x1="115.15" y1="209.26" x2="125.55" y2="209.26" xlink:href="#img"/><linearGradient id="img-9" x1="217.88" y1="222.57" x2="228.28" y2="222.57" xlink:href="#img"/><linearGradient id="img-10" x1="131.16" y1="225.04" x2="141.56" y2="225.04" xlink:href="#img"/><linearGradient id="img-11" x1="159.71" y1="207.99" x2="170.11" y2="207.99" xlink:href="#img"/><linearGradient id="img-12" x1="175.72" y1="223.77" x2="186.12" y2="223.77" xlink:href="#img"/><linearGradient id="Dégradé_sans_nom_10" x1="162.45" y1="14.58" x2="191.68" y2="14.58" gradientUnits="userSpaceOnUse"><stop offset="0" stop-color="#36f"/><stop offset="1" stop-color="#63c"/></linearGradient><linearGradient id="Dégradé_sans_nom_10-2" x1="162.45" y1="5.46" x2="191.68" y2="5.46" xlink:href="#Dégradé_sans_nom_10"/><linearGradient id="img-13" x1="74.47" y1="45.56" x2="94.38" y2="45.56" xlink:href="#img"/><linearGradient id="img-14" x1="144.15" y1="56.36" x2="165.32" y2="56.36" xlink:href="#img"/><linearGradient id="img-15" x1="45.5" y1="214.24" x2="73.88" y2="214.24" xlink:href="#img"/><linearGradient id="img-16" x1="41.48" y1="212.41" x2="56.87" y2="212.41" xlink:href="#img"/><linearGradient id="img-17" x1="46.89" y1="190.81" x2="65.69" y2="190.81" xlink:href="#img"/></defs><title>Fichier 20</title><g id="Calque_2" data-name="Calque 2"><g id="Calque_1-2" data-name="Calque 1"><path id="ombre_corps" data-name="ombre corps" class="cls-1" d="M60.38,268.33H64c-2.2-8.07.86-17,11.44-18.63,44-7,94.88-7.21,138.88-.56,10.89,1.64,13.78,10.93,11.21,19.17a59.62,59.62,0,0,0,58.94-59.54V194.7c0-32.76-26.71-59.57-59.34-59.57H60.38c-32.63,0-59.33,26.81-59.33,59.57v14.07C1.05,241.53,27.75,268.33,60.38,268.33Z"/><path id="ombre_col2" data-name="ombre col2" class="cls-2" d="M245.44,114.22a100,100,0,0,0-14.52-7.87c.83,9.39-1.76,19.15-5.44,28.69a113.2,113.2,0,0,1,14.83,7.31A81.66,81.66,0,0,0,244,122.26a14.08,14.08,0,0,1,1.3-5.43c0-.32.09-.64.14-1C245.39,115.32,245.41,114.77,245.44,114.22Z"/><path id="ombre_col_1" data-name="ombre col 1" class="cls-3" d="M43.89,105.16a90.54,90.54,0,0,0-12.72,7.45l0,0a8.83,8.83,0,0,1-.8.56,2.17,2.17,0,0,1-.07.24,14.8,14.8,0,0,1,3.19,8.9,47,47,0,0,1-.77,7.56,16.61,16.61,0,0,1,5.12,8c1.29-.71,2.78-1.36,4.16-2C41.09,125.38,42.67,115.42,43.89,105.16Z"/><circle id="tete" class="cls-4" cx="137.89" cy="107.23" r="98.84"/><path id="corps" class="cls-4" d="M216.57,141.89h-3.45c2.12,7.78-.84,16.33-11.06,18-42.52,6.71-91.72,6.94-134.25.54C57.29,158.79,54.49,149.85,57,141.91A57.53,57.53,0,0,0,0,199.25V212.8a57.53,57.53,0,0,0,57.36,57.36H216.57a57.53,57.53,0,0,0,57.36-57.36V199.25A57.53,57.53,0,0,0,216.57,141.89Z"/><path id="col" class="cls-5" d="M238.29,146.33c.24-.18.5-.34.75-.51a107.3,107.3,0,0,0,6.42-31.63c-18.43,16.42-59.34,27.87-107,27.87-48.63,0-90.35-11.92-108.18-28.9a106.93,106.93,0,0,0,7.33,34.38c20.78,13.32,57.46,22.21,99.38,22.21,43.23,0,80.89-9.44,101.28-23.46A.05.05,0,0,1,238.29,146.33Z"/><circle id="oeuil_d" data-name="oeuil d" class="cls-6" cx="78.28" cy="61.71" r="8.44"/><circle id="oueil_g" data-name="oueil g" class="cls-7" cx="152.59" cy="70.15" r="8.44"/><g id="points"><circle class="cls-8" cx="207.06" cy="206.79" r="5.2"/><circle class="cls-9" cx="120.35" cy="209.26" r="5.2"/><circle class="cls-10" cx="223.08" cy="222.57" r="5.2"/><circle class="cls-11" cx="136.36" cy="225.04" r="5.2"/><circle class="cls-12" cx="164.91" cy="207.99" r="5.2"/><circle class="cls-13" cx="180.92" cy="223.77" r="5.2"/></g><g id="antenne"><path class="cls-14" d="M164.37,26a1.92,1.92,0,0,1-1.79-2.62c.29-.75,7.42-18.37,27-20.18A1.93,1.93,0,0,1,189.93,7c-17.16,1.59-23.5,17.09-23.76,17.75A1.94,1.94,0,0,1,164.37,26Z"/><polygon class="cls-15" points="199.24 4.22 186.38 10.92 189.05 5.16 185.37 0 199.24 4.22"/></g><path id="sourcil_d" data-name="sourcil d" class="cls-16" d="M82.86,42C89.22,43,93.69,48,93.11,53.27a10.49,10.49,0,0,0,1.13-3,10.67,10.67,0,0,0-19.77-7.08A13.33,13.33,0,0,1,82.86,42Z"/><path id="soucil_g" data-name="soucil g" class="cls-17" d="M158.7,56.4c-6-2.28-12.42-.18-14.55,4.66a10.55,10.55,0,0,1,.51-3.12,10.67,10.67,0,0,1,20.66,3.77A13.34,13.34,0,0,0,158.7,56.4Z"/><path class="cls-18" d="M54.45,224c-1.49,0-3,0-4.56,0s-3,0-4.39,0v-5.14c1.46,0,3,0,4.46,0,7.23.1,15.43.21,18-2.34a2.64,2.64,0,0,0,.77-2.08,3.41,3.41,0,0,0-.88-2.66c-2.24-2.22-9.43-2.16-17.76-2.11l-4.6,0v-5.14l4.57,0c10.63-.08,17.65-.12,21.4,3.6a8.55,8.55,0,0,1,2.41,6.29,7.74,7.74,0,0,1-2.3,5.75C68.18,223.52,61.72,224,54.45,224Z"/><polygon class="cls-4" points="43.13 213.69 43.96 208.58 46.07 209.48 45.74 213.75 43.13 213.69"/><g id="antenne-2" data-name="antenne"><path class="cls-19" d="M48.49,236.88l-5-1.06,2.52.53-2.56-.2a26,26,0,0,0-.37-2.62c-1.52-9.26-5.55-33.85,10.83-45.59l3,4.17C43.09,202,46.74,224.3,48.12,232.7,48.51,235.14,48.66,236.06,48.49,236.88Z"/><polygon class="cls-20" points="65.69 182.63 55.41 198.99 54.6 190.58 46.89 187.11 65.69 182.63"/></g><polygon class="cls-4" points="54.67 193.99 51.74 189.61 48.2 190.25 52.58 196.48 54.67 193.99"/></g></g></svg>