<svg xmlns="http://www.w3.org/2000/svg" viewBox="0 0 357.55 244.95"><defs><style>.cls-1{fill:#fe8427;}</style></defs><g id="Calque_2" data-name="Calque 2"><g id="Calque_2-2" data-name="Calque 2"><path class="cls-1" d="M347.21,121.67h0A42,42,0,0,0,288.73,118l-10,8.63a37,37,0,1,1-55,32.35c1-26,21-37,37.49-37l-40.91-96.9c-8.76-20.75-33-30.6-54.14-22h0C161.77,5,149.77,10,143.11,25.22l-32,74.42L79.73,25.37c-8.76-20.75-33-30.6-54.14-22h0A40.39,40.39,0,0,0,3.17,56.5l69,163.34c8.76,20.75,33,30.6,54.14,22h0c6.5-2.85,16.5-7.85,23.1-22.11l32-74.42,31.36,74.27a41,41,0,0,0,24.47,22.77,42,42,0,0,0,41.82-7.6l64.45-55.69A40.14,40.14,0,0,0,347.21,121.67Z"/></g></g></svg>