<?xml version="1.0" encoding="utf-8"?>
<!-- Generator: Adobe Illustrator 16.0.0, SVG Export Plug-In . SVG Version: 6.00 Build 0)  -->
<svg version="1.2" baseProfile="tiny" id="Layer_1" xmlns="http://www.w3.org/2000/svg" xmlns:xlink="http://www.w3.org/1999/xlink"
	 x="0px" y="0px"   viewBox="0 0 305 100" xml:space="preserve">
<g>
	<g>
		<path d="M300.035,90.256c-2.734,0-4.1-1.365-4.1-4.1c0-2.737,1.365-4.102,4.1-4.102c2.729,0,4.113,1.363,4.113,4.102
			c-0.055,2.688-1.42,4.037-4.113,4.037V90.256z M300.035,81.389c-1.334,0-2.459,0.467-3.418,1.405
			c-0.934,0.946-1.414,2.084-1.414,3.425c0,1.33,0.48,2.475,1.414,3.411c0.959,0.949,2.084,1.418,3.418,1.418
			c1.346,0,2.49-0.469,3.428-1.418c0.939-0.938,1.418-2.081,1.418-3.411c0-1.341-0.479-2.479-1.418-3.425
			C302.525,81.854,301.381,81.389,300.035,81.389L300.035,81.389z M299.178,85.852v-1.595h0.855c0.494,0,1.109,0,1.109,0.802
			c0,0.793-0.668,0.793-1.213,0.793H299.178z M302.115,85.059c0-1.172-1.021-1.596-2.012-1.596h-1.896v5.443h0.971v-2.321h0.684
			l1.283,2.321h1.16l-1.469-2.379C301.672,86.387,302.098,85.893,302.115,85.059L302.115,85.059z"/>
		<path d="M239.818,47.729c-5.563,0.396-9.828,2.93-12.865,7.596v-6.428h-11.676V90.93h11.621V67.743
			c-0.225-2.591,0.514-4.884,2.186-6.871c1.674-1.991,3.807-3.106,6.387-3.345h0.422c5.633,0,7.102,5.015,7.102,10.082v23.197
			h11.643V64.746c0.305-2.15,0.148-4.268-0.461-6.35c-0.613-2.086-1.637-3.946-3.059-5.582c-1.432-1.637-3.139-2.895-5.115-3.78
			c-1.996-0.896-4.064-1.323-6.25-1.308h0.066V47.729z M167.76,47.729c-5.793,0.077-10.178,2.609-13.148,7.596
			c-2.903-5.062-7.274-7.589-13.101-7.596c-5.546,0.521-9.858,3.118-12.908,7.774v-6.118h-11.269v42.028h11.634v-23.67
			c0-5.076,2.697-10.215,8.317-10.215c2.01,0.031,3.715,0.759,5.122,2.181c1.399,1.435,2.109,3.151,2.109,5.157c0,0,0,0.426,0,0.676
			v25.266h11.621V67.745c-0.299-2.579,0.359-4.876,1.975-6.897c1.617-2.021,3.719-3.176,6.297-3.447h0.367
			c5.443,0,6.912,4.77,6.912,10.096v23.188h11.641V64.62c0.459-4.214-0.648-7.979-3.295-11.279
			c-2.645-3.314-6.094-5.199-10.295-5.667L167.76,47.729z M289.828,58.191v-9.294h-10.174v-11.75h-11.434v11.75h-7.1v9.294h7.1
			v18.357c0,6.486,1.586,15.174,14.063,15.174c2.527-0.019,4.965-0.402,7.359-1.16v-9.057c-1.656,0.555-3.35,0.846-5.088,0.854
			c-3.363,0-4.596-2.379-4.596-6.118V57.893L289.828,58.191z M194.334,90.93h11.623V48.898h-11.623V90.93z"/>
	</g>
	<g>
		<path d="M222.828,36.788c-0.895,0-1.338-0.444-1.338-1.34c0-0.894,0.443-1.341,1.338-1.341s1.338,0.447,1.338,1.341
			C224.166,36.343,223.723,36.788,222.828,36.788z M222.828,33.876c-0.434,0.006-0.801,0.164-1.105,0.474
			c-0.303,0.311-0.449,0.678-0.443,1.111c0,0.433,0.158,0.801,0.469,1.104c0.303,0.304,0.68,0.456,1.109,0.453
			c0.434,0,0.801-0.155,1.104-0.461c0.313-0.307,0.463-0.676,0.463-1.107c-0.012-0.436-0.164-0.808-0.479-1.113
			C223.641,34.028,223.266,33.876,222.828,33.876L222.828,33.876z M222.535,35.344v-0.502h0.293c0.17,0,0.355,0,0.355,0.251
			s-0.209,0.271-0.396,0.271L222.535,35.344z M223.5,35.092c0-0.377-0.34-0.523-0.672-0.523h-0.625v1.821h0.414v-0.755h0.211
			l0.42,0.755h0.398l-0.486-0.775c0.328-0.025,0.477-0.201,0.443-0.522H223.5L223.5,35.092z"/>
		<path d="M213.498,12.42c0.895,0,1.666-0.316,2.297-0.95c0.633-0.635,0.955-1.401,0.955-2.298c0-0.897-0.322-1.663-0.955-2.297
			c-0.631-0.634-1.402-0.95-2.297-0.95s-1.666,0.316-2.297,0.95c-0.633,0.634-0.953,1.399-0.947,2.297
			c0,0.889,0.314,1.652,0.947,2.283c0.625,0.631,1.385,0.953,2.279,0.965H213.498z M204.863,15.229v4.755h6.033v16.765h5.414V19.983
			h6.033v-4.755H204.863z M157.943,12.42c0.896,0,1.662-0.316,2.297-0.95c0.635-0.635,0.953-1.401,0.953-2.298
			c0-0.897-0.318-1.663-0.953-2.297s-1.398-0.95-2.297-0.95s-1.664,0.316-2.297,0.95c-0.635,0.634-0.953,1.399-0.953,2.297
			c-0.006,0.874,0.295,1.628,0.902,2.26c0.604,0.631,1.348,0.959,2.221,0.988H157.943L157.943,12.42z M149.221,19.964h6.039v16.763
			h5.365V19.964h6.039v-4.735h-17.443V19.964L149.221,19.964z M195.744,36.727h5.367V15.229h-5.367V36.727z M184.859,27.046
			c0.164,1.442-0.211,2.731-1.123,3.866c-0.912,1.132-2.08,1.776-3.531,1.938h-0.354c-3.455,0-4.027-3.186-4.027-5.744V15.228
			h-5.637v13.431c0,4.379,2.326,8.695,7.928,8.695c1.426,0.041,2.748-0.307,3.969-1.043c1.223-0.732,2.146-1.742,2.775-3.021v3.437
			h5.121V15.228h-5.365L184.859,27.046z M138.427,14.6c-1.412-0.025-2.722,0.33-3.927,1.064c-1.203,0.736-2.118,1.736-2.741,2.999
			v-3.435h-5.18v21.498h5.367V24.909c-0.152-1.449,0.231-2.741,1.146-3.875c0.917-1.132,2.101-1.774,3.55-1.93H137
			c3.458,0,4.025,3.187,4.025,5.741v11.881h5.367V23.296c0-4.381-2.434-8.696-8.05-8.696H138.427z M115.678,15.229h5.365v21.498
			h-5.365V15.229z"/>
	</g>
	<g id="Icon-5-2">
		<circle id="Circle-4-2" fill="#1A9EA1" cx="49.214" cy="50" r="49.096"/>
		<path id="Leaf-3" fill="#FFFFFF" d="M49.214,14.405c-3.068,3.069-25.161,26.39-25.161,44.187c0,12.887,9.818,16.569,25.161,27.002
			c15.342-10.433,25.16-14.729,25.16-27.002C74.375,40.795,52.283,17.475,49.214,14.405z M48.601,76.389l-2.455-1.842
			c-12.273-7.363-15.342-9.818-15.342-15.955c0-9.819,9.817-23.934,17.797-33.139V76.389z"/>
	</g>
</g>
</svg>
