<?xml version="1.0" standalone="yes"?>
<svg xmlns="http://www.w3.org/2000/svg" width="512" height="512">
<path style="fill:#ffffff; stroke:none;" d="M0 0L0 233C1.30702 229.886 1.09855 226.357 1.57948 223C2.58856 215.957 3.72796 208.962 5.21065 202C9.1692 183.412 15.3815 165.266 23.3086 148C52.2319 85.0008 108.295 34.9228 174 13C192.685 6.76575 213.165 1.01306 233 1C226.806 -1.59906 217.686 0 211 0L164 0L0 0z"/>
<path style="fill:#00a6a4; stroke:none;" d="M233 0.424377C189.28 6.16757 147.687 18.2032 111 43.7207C82.7863 63.3443 57.1263 88.494 39.2029 118C19.4438 150.528 5.88307 186.068 1.28549 224C-10.2782 319.405 32.8874 417.487 114 470.305C138.243 486.091 164.935 497.859 193 504.873C223.625 512.528 256.638 514.516 288 510.715C324.627 506.275 359.455 493.537 391 474.6C416.569 459.251 439.652 438.582 457.88 415C516.766 338.818 528.921 234.626 488.691 147C477.317 122.225 461.62 99.8951 443.09 80C429.184 65.0709 413.368 51.2645 396 40.4251C372.721 25.8968 347.69 14.3009 321 7.62656C299.386 2.2215 278.227 0 256 0C248.4 0 240.545 -0.566772 233 0.424377z"/>
<path style="fill:#ffffff; stroke:none;" d="M279 0C282.114 1.30701 285.643 1.09854 289 1.57947C296.043 2.58853 303.038 3.72797 310 5.21066C328.588 9.16925 346.734 15.3816 364 23.3087C426.999 52.2318 477.077 108.295 499 174C505.234 192.685 510.987 213.165 511 233C513.599 226.806 512 217.686 512 211L512 164L512 0L279 0z"/>
<path style="fill:#a0dedd; stroke:none;" d="M250 77C255.077 73.7529 256.923 73.7529 262 77C257.817 71.2757 254.183 71.2757 250 77z"/>
<path style="fill:#ffffff; stroke:none;" d="M255 73.3457C252.619 73.9393 250.671 76.3684 249 78.0046C244.723 82.1927 240.667 86.5102 236.715 91C222.057 107.649 207.452 124.234 194.127 142C165.963 179.548 139.064 220.86 127.87 267C121.6 292.847 121.326 322.305 134.873 346C144.571 362.965 159.581 376.215 175 387.87C194.233 402.409 214.923 415.014 235 428.333C240.305 431.852 251.372 442.175 258 440.228C263.179 438.707 268.442 433.839 273 430.947C284.424 423.697 295.737 416.162 307 408.667C329.952 393.394 354.86 377.68 371.255 355C410.113 301.244 375.633 229.761 345.05 181C326.169 150.895 303.968 122.156 279.914 96C274.331 89.9292 268.899 83.7806 263 78.0046C260.977 76.0243 258.238 72.5385 255 73.3457z"/>
<path style="fill:#90d8d7; stroke:none;" d="M249 77L250 78L249 77M262 77L263 78L262 77z"/>
<path style="fill:#60c8c6; stroke:none;" d="M248 78L249 79L248 78M263 78L264 79L263 78M247 79L248 80L247 79M264 79L265 80L264 79M246 80L247 81L246 80M265 80L266 81L265 80M245 81L246 82L245 81M266 81L267 82L266 81z"/>
<path style="fill:#50c2c1; stroke:none;" d="M244 82L245 83L244 82M267 82L268 83L267 82z"/>
<path style="fill:#a0dedd; stroke:none;" d="M237 90L238 91L237 90M274 90L275 91L274 90M236 91L237 92L236 91M275 91L276 92L275 91z"/>
<path style="fill:#90d8d7; stroke:none;" d="M235 92L236 93L235 92M276 92L277 93L276 92z"/>
<path style="fill:#60c8c6; stroke:none;" d="M234 93L235 94L234 93M277 93L278 94L277 93M233 94L234 95L233 94M278 94L279 95L278 94z"/>
<path style="fill:#a0dedd; stroke:none;" d="M228 100L229 101L228 100M283 100L284 101L283 100M227 101L228 102L227 101M284 101L285 102L284 101z"/>
<path style="fill:#60c8c6; stroke:none;" d="M226 102L227 103L226 102M285 102L286 103L285 102M225 103L226 104L225 103M286 103L287 104L286 103z"/>
<path style="fill:#a0dedd; stroke:none;" d="M221 108L222 109L221 108M290 108L291 109L290 108z"/>
<path style="fill:#80d3d2; stroke:none;" d="M220 109L221 110L220 109M291 109L292 110L291 109z"/>
<path style="fill:#60c8c6; stroke:none;" d="M219 110L220 111L219 110M292 110L293 111L292 110z"/>
<path style="fill:#a0dedd; stroke:none;" d="M215 115L216 116L215 115M296 115L297 116L296 115z"/>
<path style="fill:#60c8c6; stroke:none;" d="M214 116L215 117L214 116M297 116L298 117L297 116z"/>
<path style="fill:#b0e3e3; stroke:none;" d="M211 120L212 121L211 120M300 120L301 121L300 120z"/>
<path style="fill:#90d8d7; stroke:none;" d="M210 121L211 122L210 121M301 121L302 122L301 121z"/>
<path style="fill:#60c8c6; stroke:none;" d="M209 122L210 123L209 122M302 122L303 123L302 122z"/>
<path style="fill:#a0dedd; stroke:none;" d="M206 126L207 127L206 126M305 126L306 127L305 126z"/>
<path style="fill:#60c8c6; stroke:none;" d="M205 127L206 128L205 127M306 127L307 128L306 127z"/>
<path style="fill:#80d3d2; stroke:none;" d="M252 129L253 130L252 129z"/>
<path style="fill:#a0dedd; stroke:none;" d="M251 130L252 131L251 130z"/>
<path style="fill:#00a6a4; stroke:none;" d="M252 130C237.938 145.268 225.324 162.113 213.291 179C195.423 204.074 178.852 230.804 168.657 260C161.75 279.776 156.557 303.985 165.515 324C171.402 337.156 183.77 347.368 195 355.87C213.399 369.801 232.818 383.764 253 395L253 208L253 154C253 146.784 254.802 136.678 252 130z"/>
<path style="fill:#a0dedd; stroke:none;" d="M202 131L203 132L202 131M309 131L310 132L309 131z"/>
<path style="fill:#60c8c6; stroke:none;" d="M201 132L202 133L201 132M310 132L311 133L310 132M247 135L248 136L247 135z"/>
<path style="fill:#80d3d2; stroke:none;" d="M198 136L199 137L198 136M246 136L247 137L246 136M313 136L314 137L313 136z"/>
<path style="fill:#50c2c1; stroke:none;" d="M197 137L198 138L197 137z"/>
<path style="fill:#a0dedd; stroke:none;" d="M245 137L246 138L245 137z"/>
<path style="fill:#50c2c1; stroke:none;" d="M314 137L315 138L314 137z"/>
<path style="fill:#a0dedd; stroke:none;" d="M195 140L196 141L195 140M316 140L317 141L316 140z"/>
<path style="fill:#60c8c6; stroke:none;" d="M194 141L195 142L194 141M242 141L243 142L242 141M317 141L318 142L317 141z"/>
<path style="fill:#80d3d2; stroke:none;" d="M241 142L242 143L241 142z"/>
<path style="fill:#a0dedd; stroke:none;" d="M240 143L241 144L240 143M192 144L193 145L192 144M319 144L320 145L319 144z"/>
<path style="fill:#60c8c6; stroke:none;" d="M191 145L192 146L191 145M320 145L321 146L320 145M237 147L238 148L237 147z"/>
<path style="fill:#a0dedd; stroke:none;" d="M189 148L190 149L189 148M236 148L237 149L236 148M322 148L323 149L322 148z"/>
<path style="fill:#50c2c1; stroke:none;" d="M188 149L189 150L188 149M323 149L324 150L323 149z"/>
<path style="fill:#90d8d7; stroke:none;" d="M186 152L187 153L186 152z"/>
<path style="fill:#60c8c6; stroke:none;" d="M233 152L234 153L233 152z"/>
<path style="fill:#90d8d7; stroke:none;" d="M325 152L326 153L325 152M232 153L233 154L232 153z"/>
<path style="fill:#b0e3e3; stroke:none;" d="M184 155L185 156L184 155M327 155L328 156L327 155z"/>
<path style="fill:#70cdcc; stroke:none;" d="M183 156L184 157L183 156M328 156L329 157L328 156M229 157L230 158L229 157z"/>
<path style="fill:#a0dedd; stroke:none;" d="M228 158L229 159L228 158z"/>
<path style="fill:#90d8d7; stroke:none;" d="M181 159L182 160L181 159M330 159L331 160L330 159z"/>
<path style="fill:#50c2c1; stroke:none;" d="M226 161L227 162L226 161z"/>
<path style="fill:#b0e3e3; stroke:none;" d="M179 162L180 163L179 162z"/>
<path style="fill:#90d8d7; stroke:none;" d="M225 162L226 163L225 162z"/>
<path style="fill:#b0e3e3; stroke:none;" d="M332 162L333 163L332 162z"/>
<path style="fill:#50c2c1; stroke:none;" d="M178 163L179 164L178 163M333 163L334 164L333 163z"/>
<path style="fill:#70cdcc; stroke:none;" d="M176 166L177 167L176 166z"/>
<path style="fill:#80d3d2; stroke:none;" d="M222 166L223 167L222 166z"/>
<path style="fill:#70cdcc; stroke:none;" d="M335 166L336 167L335 166M174 169L175 170L174 169M337 169L338 170L337 169z"/>
<path style="fill:#90d8d7; stroke:none;" d="M219 170L220 171L219 170z"/>
<path style="fill:#70cdcc; stroke:none;" d="M172 172L173 173L172 172M339 172L340 173L339 172z"/>
<path style="fill:#50c2c1; stroke:none;" d="M217 173L218 174L217 173z"/>
<path style="fill:#a0dedd; stroke:none;" d="M216 174L217 175L216 174z"/>
<path style="fill:#70cdcc; stroke:none;" d="M170 175L171 176L170 175M341 175L342 176L341 175M214 177L215 178L214 177z"/>
<path style="fill:#60c8c6; stroke:none;" d="M168 178L169 179L168 178M343 178L344 179L343 178z"/>
<path style="fill:#b0e3e3; stroke:none;" d="M167 180L168 181L167 180z"/>
<path style="fill:#50c2c1; stroke:none;" d="M212 180L213 181L212 180z"/>
<path style="fill:#b0e3e3; stroke:none;" d="M344 180L345 181L344 180z"/>
<path style="fill:#90d8d7; stroke:none;" d="M211 181L212 182L211 181z"/>
<path style="fill:#80d3d2; stroke:none;" d="M165 183L166 184L165 183M346 183L347 184L346 183M209 184L210 185L209 184z"/>
<path style="fill:#70cdcc; stroke:none;" d="M163 186L164 187L163 186M348 186L349 187L348 186M207 187L208 188L207 187z"/>
<path style="fill:#a0dedd; stroke:none;" d="M162 188L163 189L162 188M349 188L350 189L349 188z"/>
<path style="fill:#70cdcc; stroke:none;" d="M205 190L206 191L205 190M160 191L161 192L160 191M351 191L352 192L351 191z"/>
<path style="fill:#a0dedd; stroke:none;" d="M159 193L160 194L159 193z"/>
<path style="fill:#70cdcc; stroke:none;" d="M203 193L204 194L203 193z"/>
<path style="fill:#a0dedd; stroke:none;" d="M352 193L353 194L352 193z"/>
<path style="fill:#60c8c6; stroke:none;" d="M157 196L158 197L157 196z"/>
<path style="fill:#70cdcc; stroke:none;" d="M201 196L202 197L201 196z"/>
<path style="fill:#60c8c6; stroke:none;" d="M354 196L355 197L354 196z"/>
<path style="fill:#80d3d2; stroke:none;" d="M156 198L157 199L156 198M355 198L356 199L355 198M199 199L200 200L199 199z"/>
<path style="fill:#b0e3e3; stroke:none;" d="M155 200L156 201L155 200M356 200L357 201L356 200z"/>
<path style="fill:#90d8d7; stroke:none;" d="M197 202L198 203L197 202z"/>
<path style="fill:#60c8c6; stroke:none;" d="M153 203L154 204L153 203M358 203L359 204L358 203z"/>
<path style="fill:#50c2c1; stroke:none;" d="M196 204L197 205L196 204z"/>
<path style="fill:#70cdcc; stroke:none;" d="M152 205L153 206L152 205z"/>
<path style="fill:#b0e3e3; stroke:none;" d="M195 205L196 206L195 205z"/>
<path style="fill:#70cdcc; stroke:none;" d="M359 205L360 206L359 205z"/>
<path style="fill:#80d3d2; stroke:none;" d="M151 207L152 208L151 207z"/>
<path style="fill:#70cdcc; stroke:none;" d="M194 207L195 208L194 207z"/>
<path style="fill:#80d3d2; stroke:none;" d="M360 207L361 208L360 207z"/>
<path style="fill:#a0dedd; stroke:none;" d="M150 209L151 210L150 209M361 209L362 210L361 209M192 210L193 211L192 210M149 211L150 212L149 211M362 211L363 212L362 211z"/>
<path style="fill:#70cdcc; stroke:none;" d="M191 212L192 213L191 212z"/>
<path style="fill:#a0dedd; stroke:none;" d="M148 213L149 214L148 213M363 213L364 214L363 213M147 215L148 216L147 215z"/>
<path style="fill:#b0e3e3; stroke:none;" d="M189 215L190 216L189 215z"/>
<path style="fill:#a0dedd; stroke:none;" d="M364 215L365 216L364 215M146 217L147 218L146 217z"/>
<path style="fill:#80d3d2; stroke:none;" d="M188 217L189 218L188 217z"/>
<path style="fill:#a0dedd; stroke:none;" d="M365 217L366 218L365 217M145 219L146 220L145 219z"/>
<path style="fill:#60c8c6; stroke:none;" d="M187 219L188 220L187 219z"/>
<path style="fill:#a0dedd; stroke:none;" d="M366 219L367 220L366 219M144 221L145 222L144 221M367 221L368 222L367 221M143 223L144 224L143 223M368 223L369 224L368 223M184 224L185 225L184 224z"/>
<path style="fill:#80d3d2; stroke:none;" d="M142 225L143 226L142 225M369 225L370 226L369 225M183 226L184 227L183 226z"/>
<path style="fill:#60c8c6; stroke:none;" d="M141 227L142 228L141 227M370 227L371 228L370 227z"/>
<path style="fill:#80d3d2; stroke:none;" d="M182 228L183 229L182 228z"/>
<path style="fill:#60c8c6; stroke:none;" d="M140 229L141 230L140 229M371 229L372 230L371 229z"/>
<path style="fill:#80d3d2; stroke:none;" d="M181 230L182 231L181 230z"/>
<path style="fill:#a0dedd; stroke:none;" d="M139 232L140 233L139 232z"/>
<path style="fill:#70cdcc; stroke:none;" d="M180 232L181 233L180 232z"/>
<path style="fill:#a0dedd; stroke:none;" d="M372 232L373 233L372 232z"/>
<path style="fill:#80d3d2; stroke:none;" d="M138 234L139 235L138 234z"/>
<path style="fill:#60c8c6; stroke:none;" d="M179 234L180 235L179 234z"/>
<path style="fill:#80d3d2; stroke:none;" d="M373 234L374 235L373 234z"/>
<path style="fill:#50c2c1; stroke:none;" d="M137 236L138 237L137 236z"/>
<path style="fill:#80d3d2; stroke:none;" d="M178 236L179 237L178 236z"/>
<path style="fill:#50c2c1; stroke:none;" d="M374 236L375 237L374 236z"/>
<path style="fill:#b0e3e3; stroke:none;" d="M137 237L138 238L137 237M374 237L375 238L374 237z"/>
<path style="fill:#80d3d2; stroke:none;" d="M177 238L178 239L177 238M136 239L137 240L136 239M375 239L376 240L375 239M176 240L177 241L176 240z"/>
<path style="fill:#50c2c1; stroke:none;" d="M135 241L136 242L135 241M376 241L377 242L376 241z"/>
<path style="fill:#b0e3e3; stroke:none;" d="M135 242L136 243L135 242z"/>
<path style="fill:#a0dedd; stroke:none;" d="M175 242L176 243L175 242z"/>
<path style="fill:#b0e3e3; stroke:none;" d="M376 242L377 243L376 242z"/>
<path style="fill:#70cdcc; stroke:none;" d="M134 244L135 245L134 244M377 244L378 245L377 244z"/>
<path style="fill:#90d8d7; stroke:none;" d="M133 247L134 248L133 247z"/>
<path style="fill:#60c8c6; stroke:none;" d="M173 247L174 248L173 247z"/>
<path style="fill:#90d8d7; stroke:none;" d="M378 247L379 248L378 247M172 249L173 250L172 249M132 250L133 251L132 250M379 250L380 251L379 250z"/>
<path style="fill:#60c8c6; stroke:none;" d="M171 252L172 253L171 252z"/>
<path style="fill:#90d8d7; stroke:none;" d="M131 253L132 254L131 253M380 253L381 254L380 253M170 254L171 255L170 254z"/>
<path style="fill:#80d3d2; stroke:none;" d="M130 256L131 257L130 256M381 256L382 257L381 256z"/>
<path style="fill:#60c8c6; stroke:none;" d="M169 257L170 258L169 257M129 259L130 260L129 259z"/>
<path style="fill:#b0e3e3; stroke:none;" d="M168 259L169 260L168 259z"/>
<path style="fill:#60c8c6; stroke:none;" d="M382 259L383 260L382 259z"/>
<path style="fill:#50c2c1; stroke:none;" d="M168 260L169 261L168 260z"/>
<path style="fill:#a0dedd; stroke:none;" d="M167 262L168 263L167 262z"/>
<path style="fill:#c0e9e9; stroke:none;" d="M128.333 263.667C128.278 263.722 128.222 264.778 128.667 264.333C128.722 264.278 128.778 263.222 128.333 263.667z"/>
<path style="fill:#50c2c1; stroke:none;" d="M167 263L168 264L167 263z"/>
<path style="fill:#c0e9e9; stroke:none;" d="M383.333 263.667C383.278 263.722 383.222 264.778 383.667 264.333C383.722 264.278 383.778 263.222 383.333 263.667z"/>
<path style="fill:#a0dedd; stroke:none;" d="M166 265L167 266L166 265z"/>
<path style="fill:#c0e9e9; stroke:none;" d="M127.333 267.667C127.278 267.722 127.222 268.778 127.667 268.333C127.722 268.278 127.778 267.222 127.333 267.667M384.333 267.667C384.278 267.722 384.222 268.778 384.667 268.333C384.722 268.278 384.778 267.222 384.333 267.667z"/>
<path style="fill:#70cdcc; stroke:none;" d="M165.333 268.667C165.278 268.722 165.222 269.778 165.667 269.333C165.722 269.278 165.778 268.222 165.333 268.667z"/>
<path style="fill:#a0dedd; stroke:none;" d="M126.333 271.667C126.278 271.722 126.222 272.778 126.667 272.333C126.722 272.278 126.778 271.222 126.333 271.667M385.333 271.667C385.278 271.722 385.222 272.778 385.667 272.333C385.722 272.278 385.778 271.222 385.333 271.667M164 272L165 273L164 272z"/>
<path style="fill:#70cdcc; stroke:none;" d="M125 275L125 278C125.696 276.446 125.696 276.554 125 275M386 275L386 278C386.696 276.446 386.696 276.554 386 275z"/>
<path style="fill:#60c8c6; stroke:none;" d="M163.333 276.667C163.278 276.722 163.222 277.778 163.667 277.333C163.722 277.278 163.778 276.222 163.333 276.667z"/>
<path style="fill:#ffffff; stroke:none;" d="M0 279L0 512L233 512C226.392 509.226 217.171 509.733 210 508.389C195.383 505.65 180.924 501.826 167 496.575C104.541 473.02 53.3312 426.085 24.2585 366C15.691 348.294 9.30518 329.227 5.21065 310C3.72795 303.038 2.58857 296.043 1.57948 289C1.09855 285.643 1.30702 282.114 0 279M511 279C510.984 303.575 502.908 329.41 493.799 352C466.156 420.556 408.204 475.576 338 499C319.315 505.234 298.835 510.987 279 511C285.194 513.599 294.314 512 301 512L348 512L512 512L512 348L512 301C512 294.314 513.599 285.194 511 279z"/>
<path style="fill:#60c8c6; stroke:none;" d="M124.333 281.667C124.278 281.722 124.222 282.778 124.667 282.333C124.722 282.278 124.778 281.222 124.333 281.667z"/>
<path style="fill:#50c2c1; stroke:none;" d="M162 281L162 284C162.696 282.446 162.696 282.554 162 281z"/>
<path style="fill:#60c8c6; stroke:none;" d="M387.333 281.667C387.278 281.722 387.222 282.778 387.667 282.333C387.722 282.278 387.778 281.222 387.333 281.667z"/>
<path style="fill:#a0dedd; stroke:none;" d="M124.333 283.667C124.278 283.722 124.222 284.778 124.667 284.333C124.722 284.278 124.778 283.222 124.333 283.667M387.333 283.667C387.278 283.722 387.222 284.778 387.667 284.333C387.722 284.278 387.778 283.222 387.333 283.667z"/>
<path style="fill:#d0efee; stroke:none;" d="M124.333 285.667C124.278 285.722 124.222 286.778 124.667 286.333C124.722 286.278 124.778 285.222 124.333 285.667z"/>
<path style="fill:#b0e3e3; stroke:none;" d="M161.333 285.667C161.278 285.722 161.222 286.778 161.667 286.333C161.722 286.278 161.778 285.222 161.333 285.667z"/>
<path style="fill:#d0efee; stroke:none;" d="M387.333 285.667C387.278 285.722 387.222 286.778 387.667 286.333C387.722 286.278 387.778 285.222 387.333 285.667z"/>
<path style="fill:#60c8c6; stroke:none;" d="M161.333 287.667C161.278 287.722 161.222 288.778 161.667 288.333C161.722 288.278 161.778 287.222 161.333 287.667z"/>
<path style="fill:#40bcbb; stroke:none;" d="M123 289L123 293C123.71 291.241 123.71 290.759 123 289z"/>
<path style="fill:#30b7b5; stroke:none;" d="M161.333 289.667C161.278 289.722 161.222 290.778 161.667 290.333C161.722 290.278 161.778 289.222 161.333 289.667z"/>
<path style="fill:#40bcbb; stroke:none;" d="M388 289L388 293C388.71 291.24 388.71 290.76 388 289z"/>
<path style="fill:#80d3d2; stroke:none;" d="M123 293L123 307C124.667 303.028 124.667 296.972 123 293M388 293L388 307C389.667 303.028 389.667 296.972 388 293z"/>
<path style="fill:#c0e9e9; stroke:none;" d="M160 294L160 306C161.512 302.396 161.512 297.604 160 294z"/>
<path style="fill:#40bcbb; stroke:none;" d="M123 307L123 310C123.696 308.446 123.696 308.554 123 307M388 307L388 310C388.696 308.446 388.696 308.554 388 307z"/>
<path style="fill:#70cdcc; stroke:none;" d="M161 309L161 312C161.696 310.446 161.696 310.554 161 309z"/>
<path style="fill:#a0dedd; stroke:none;" d="M124 313L124 316C124.696 314.446 124.696 314.554 124 313M387 313L387 316C387.696 314.446 387.696 314.554 387 313z"/>
<path style="fill:#b0e3e3; stroke:none;" d="M162.333 315.667C162.278 315.722 162.222 316.778 162.667 316.333C162.722 316.278 162.778 315.222 162.333 315.667z"/>
<path style="fill:#30b7b5; stroke:none;" d="M124.333 316.667C124.278 316.722 124.222 317.778 124.667 317.333C124.722 317.278 124.778 316.222 124.333 316.667M387.333 316.667C387.278 316.722 387.222 317.778 387.667 317.333C387.722 317.278 387.778 316.222 387.333 316.667z"/>
<path style="fill:#50c2c1; stroke:none;" d="M163 318L164 319L163 318z"/>
<path style="fill:#a0dedd; stroke:none;" d="M163 319L164 320L163 319z"/>
<path style="fill:#70cdcc; stroke:none;" d="M125.333 320.667C125.278 320.722 125.222 321.778 125.667 321.333C125.722 321.278 125.778 320.222 125.333 320.667M386.333 320.667C386.278 320.722 386.222 321.778 386.667 321.333C386.722 321.278 386.778 320.222 386.333 320.667z"/>
<path style="fill:#60c8c6; stroke:none;" d="M164 321L165 322L164 321z"/>
<path style="fill:#30b7b5; stroke:none;" d="M126.333 325.667C126.278 325.722 126.222 326.778 126.667 326.333C126.722 326.278 126.778 325.222 126.333 325.667M385.333 325.667C385.278 325.722 385.222 326.778 385.667 326.333C385.722 326.278 385.778 325.222 385.333 325.667z"/>
<path style="fill:#50c2c1; stroke:none;" d="M167 327L168 328L167 327z"/>
<path style="fill:#a0dedd; stroke:none;" d="M127 328L128 329L127 328M384 328L385 329L384 328z"/>
<path style="fill:#50c2c1; stroke:none;" d="M127 329L128 330L127 329z"/>
<path style="fill:#80d3d2; stroke:none;" d="M168 329L169 330L168 329z"/>
<path style="fill:#50c2c1; stroke:none;" d="M384 329L385 330L384 329z"/>
<path style="fill:#a0dedd; stroke:none;" d="M128 331L129 332L128 331M383 331L384 332L383 331z"/>
<path style="fill:#50c2c1; stroke:none;" d="M128 332L129 333L128 332z"/>
<path style="fill:#90d8d7; stroke:none;" d="M170 332L171 333L170 332z"/>
<path style="fill:#50c2c1; stroke:none;" d="M383 332L384 333L383 332M171 333L172 334L171 333z"/>
<path style="fill:#90d8d7; stroke:none;" d="M129 334L130 335L129 334M382 334L383 335L382 334z"/>
<path style="fill:#60c8c6; stroke:none;" d="M130 337L131 338L130 337z"/>
<path style="fill:#a0dedd; stroke:none;" d="M174 337L175 338L174 337z"/>
<path style="fill:#60c8c6; stroke:none;" d="M381 337L382 338L381 337z"/>
<path style="fill:#80d3d2; stroke:none;" d="M175 338L176 339L175 338z"/>
<path style="fill:#70cdcc; stroke:none;" d="M131 339L132 340L131 339z"/>
<path style="fill:#60c8c6; stroke:none;" d="M176 339L177 340L176 339z"/>
<path style="fill:#70cdcc; stroke:none;" d="M380 339L381 340L380 339z"/>
<path style="fill:#60c8c6; stroke:none;" d="M177 340L178 341L177 340z"/>
<path style="fill:#80d3d2; stroke:none;" d="M132 341L133 342L132 341z"/>
<path style="fill:#60c8c6; stroke:none;" d="M178 341L179 342L178 341z"/>
<path style="fill:#80d3d2; stroke:none;" d="M379 341L380 342L379 341z"/>
<path style="fill:#60c8c6; stroke:none;" d="M179 342L180 343L179 342z"/>
<path style="fill:#80d3d2; stroke:none;" d="M133 343L134 344L133 343z"/>
<path style="fill:#60c8c6; stroke:none;" d="M180 343L181 344L180 343z"/>
<path style="fill:#80d3d2; stroke:none;" d="M378 343L379 344L378 343z"/>
<path style="fill:#60c8c6; stroke:none;" d="M181 344L182 345L181 344M134 345L135 346L134 345z"/>
<path style="fill:#a0dedd; stroke:none;" d="M182 345L183 346L182 345z"/>
<path style="fill:#60c8c6; stroke:none;" d="M377 345L378 346L377 345z"/>
<path style="fill:#a0dedd; stroke:none;" d="M183 346L184 347L183 346z"/>
<path style="fill:#90d8d7; stroke:none;" d="M136 348L137 349L136 348M375 348L376 349L375 348z"/>
<path style="fill:#50c2c1; stroke:none;" d="M137 350L138 351L137 350z"/>
<path style="fill:#60c8c6; stroke:none;" d="M188 350L189 351L188 350z"/>
<path style="fill:#50c2c1; stroke:none;" d="M374 350L375 351L374 350z"/>
<path style="fill:#b0e3e3; stroke:none;" d="M138 351L139 352L138 351z"/>
<path style="fill:#80d3d2; stroke:none;" d="M189 351L190 352L189 351z"/>
<path style="fill:#b0e3e3; stroke:none;" d="M373 351L374 352L373 351M190 352L191 353L190 352z"/>
<path style="fill:#50c2c1; stroke:none;" d="M139 353L140 354L139 353M372 353L373 354L372 353z"/>
<path style="fill:#90d8d7; stroke:none;" d="M140 354L141 355L140 354z"/>
<path style="fill:#60c8c6; stroke:none;" d="M193 354L194 355L193 354z"/>
<path style="fill:#90d8d7; stroke:none;" d="M371 354L372 355L371 354M194 355L195 356L194 355z"/>
<path style="fill:#50c2c1; stroke:none;" d="M142 357L143 358L142 357M197 357L198 358L197 357M369 357L370 358L369 357z"/>
<path style="fill:#90d8d7; stroke:none;" d="M143 358L144 359L143 358M198 358L199 359L198 358M368 358L369 359L368 358z"/>
<path style="fill:#b0e3e3; stroke:none;" d="M144 359L145 360L144 359M367 359L368 360L367 359z"/>
<path style="fill:#50c2c1; stroke:none;" d="M201 360L202 361L201 360z"/>
<path style="fill:#90d8d7; stroke:none;" d="M202 361L203 362L202 361z"/>
<path style="fill:#50c2c1; stroke:none;" d="M147 363L148 364L147 363z"/>
<path style="fill:#70cdcc; stroke:none;" d="M205 363L206 364L205 363z"/>
<path style="fill:#50c2c1; stroke:none;" d="M364 363L365 364L364 363z"/>
<path style="fill:#60c8c6; stroke:none;" d="M148 364L149 365L148 364M363 364L364 365L363 364M149 365L150 366L149 365z"/>
<path style="fill:#50c2c1; stroke:none;" d="M208 365L209 366L208 365z"/>
<path style="fill:#60c8c6; stroke:none;" d="M362 365L363 366L362 365M150 366L151 367L150 366z"/>
<path style="fill:#a0dedd; stroke:none;" d="M209 366L210 367L209 366z"/>
<path style="fill:#60c8c6; stroke:none;" d="M361 366L362 367L361 366z"/>
<path style="fill:#a0dedd; stroke:none;" d="M151 367L152 368L151 367M360 367L361 368L360 367M152 368L153 369L152 368z"/>
<path style="fill:#90d8d7; stroke:none;" d="M212 368L213 369L212 368z"/>
<path style="fill:#a0dedd; stroke:none;" d="M359 368L360 369L359 368M153 369L154 370L153 369M358 369L359 370L358 369z"/>
<path style="fill:#60c8c6; stroke:none;" d="M154 370L155 371L154 370z"/>
<path style="fill:#80d3d2; stroke:none;" d="M215 370L216 371L215 370z"/>
<path style="fill:#70cdcc; stroke:none;" d="M357 370L358 371L357 370z"/>
<path style="fill:#60c8c6; stroke:none;" d="M155 371L156 372L155 371M356 371L357 372L356 371M156 372L157 373L156 372z"/>
<path style="fill:#70cdcc; stroke:none;" d="M218 372L219 373L218 372z"/>
<path style="fill:#60c8c6; stroke:none;" d="M355 372L356 373L355 372M157 373L158 374L157 373M354 373L355 374L354 373z"/>
<path style="fill:#70cdcc; stroke:none;" d="M221 374L222 375L221 374M224 376L225 377L224 376z"/>
<path style="fill:#b0e3e3; stroke:none;" d="M162 377L163 378L162 377M349 377L350 378L349 377z"/>
<path style="fill:#a0dedd; stroke:none;" d="M163 378L164 379L163 378z"/>
<path style="fill:#70cdcc; stroke:none;" d="M227 378L228 379L227 378z"/>
<path style="fill:#a0dedd; stroke:none;" d="M348 378L349 379L348 378z"/>
<path style="fill:#60c8c6; stroke:none;" d="M164 379L165 380L164 379M347 379L348 380L347 379z"/>
<path style="fill:#70cdcc; stroke:none;" d="M230 380L231 381L230 380z"/>
<path style="fill:#a0dedd; stroke:none;" d="M168 382L169 383L168 382z"/>
<path style="fill:#80d3d2; stroke:none;" d="M233 382L234 383L233 382z"/>
<path style="fill:#a0dedd; stroke:none;" d="M343 382L344 383L343 382z"/>
<path style="fill:#70cdcc; stroke:none;" d="M169 383L170 384L169 383M342 383L343 384L342 383z"/>
<path style="fill:#80d3d2; stroke:none;" d="M236 384L237 385L236 384z"/>
<path style="fill:#90d8d7; stroke:none;" d="M173 386L174 387L173 386M239 386L240 387L239 386M338 386L339 387L338 386z"/>
<path style="fill:#50c2c1; stroke:none;" d="M174 387L175 388L174 387M337 387L338 388L337 387z"/>
<path style="fill:#90d8d7; stroke:none;" d="M242 388L243 389L242 388M177 389L178 390L177 389z"/>
<path style="fill:#50c2c1; stroke:none;" d="M244 389L245 390L244 389z"/>
<path style="fill:#90d8d7; stroke:none;" d="M334 389L335 390L334 389z"/>
<path style="fill:#b0e3e3; stroke:none;" d="M245 390L246 391L245 390z"/>
<path style="fill:#50c2c1; stroke:none;" d="M247 391L248 392L247 391z"/>
<path style="fill:#70cdcc; stroke:none;" d="M181 392L182 393L181 392z"/>
<path style="fill:#b0e3e3; stroke:none;" d="M248 392L249 393L248 392z"/>
<path style="fill:#70cdcc; stroke:none;" d="M330 392L331 393L330 392z"/>
<path style="fill:#60c8c6; stroke:none;" d="M250 393L251 394L250 393z"/>
<path style="fill:#90d8d7; stroke:none;" d="M184 394L185 395L184 394M327 394L328 395L327 394z"/>
<path style="fill:#50c2c1; stroke:none;" d="M185 395L186 396L185 395M326 395L327 396L326 395z"/>
<path style="fill:#b0e3e3; stroke:none;" d="M187 396L188 397L187 396M324 396L325 397L324 396z"/>
<path style="fill:#60c8c6; stroke:none;" d="M188 397L189 398L188 397M323 397L324 398L323 397z"/>
<path style="fill:#70cdcc; stroke:none;" d="M191 399L192 400L191 399M320 399L321 400L320 399z"/>
<path style="fill:#80d3d2; stroke:none;" d="M194 401L195 402L194 401M317 401L318 402L317 401M197 403L198 404L197 403M314 403L315 404L314 403M200 405L201 406L200 405M311 405L312 406L311 405M203 407L204 408L203 407M308 407L309 408L308 407M206 409L207 410L206 409M305 409L306 410L305 409z"/>
<path style="fill:#70cdcc; stroke:none;" d="M209 411L210 412L209 411M302 411L303 412L302 411M212 413L213 414L212 413M299 413L300 414L299 413z"/>
<path style="fill:#b0e3e3; stroke:none;" d="M214 414L215 415L214 414M297 414L298 415L297 414z"/>
<path style="fill:#50c2c1; stroke:none;" d="M215 415L216 416L215 415M296 415L297 416L296 415z"/>
<path style="fill:#b0e3e3; stroke:none;" d="M217 416L218 417L217 416M294 416L295 417L294 416z"/>
<path style="fill:#50c2c1; stroke:none;" d="M218 417L219 418L218 417M293 417L294 418L293 417z"/>
<path style="fill:#90d8d7; stroke:none;" d="M220 418L221 419L220 418M291 418L292 419L291 418M223 420L224 421L223 420M288 420L289 421L288 420z"/>
<path style="fill:#80d3d2; stroke:none;" d="M226 422L227 423L226 422M285 422L286 423L285 422M229 424L230 425L229 424M282 424L283 425L282 424z"/>
<path style="fill:#70cdcc; stroke:none;" d="M232 426L233 427L232 426M279 426L280 427L279 426M235 428L236 429L235 428M276 428L277 429L276 428M238 430L239 431L238 430M273 430L274 431L273 430z"/>
<path style="fill:#50c2c1; stroke:none;" d="M241 432L242 433L241 432M270 432L271 433L270 432z"/>
<path style="fill:#b0e3e3; stroke:none;" d="M243 433L244 434L243 433M268 433L269 434L268 433z"/>
<path style="fill:#50c2c1; stroke:none;" d="M244 434L245 435L244 434M267 434L268 435L267 434z"/>
<path style="fill:#b0e3e3; stroke:none;" d="M246 435L247 436L246 435M265 435L266 436L265 435z"/>
<path style="fill:#50c2c1; stroke:none;" d="M247 436L248 437L247 436M264 436L265 437L264 436z"/>
<path style="fill:#b0e3e3; stroke:none;" d="M249 437L250 438L249 437M262 437L263 438L262 437z"/>
<path style="fill:#70cdcc; stroke:none;" d="M250 438L251 439L250 438M261 438L262 439L261 438M253 440L254 441L253 440M258 440L259 441L258 440z"/>
<path style="fill:#c0e9e9; stroke:none;" d="M255.667 441.333C255.222 441.778 256.278 441.722 256.333 441.667C256.778 441.222 255.722 441.278 255.667 441.333z"/>
</svg>
