<?xml version="1.0" standalone="no"?>
<!DOCTYPE svg PUBLIC "-//W3C//DTD SVG 20010904//EN"
 "http://www.w3.org/TR/2001/REC-SVG-20010904/DTD/svg10.dtd">
<svg version="1.0" xmlns="http://www.w3.org/2000/svg"
 width="510.957810pt" height="510.965840pt" viewBox="0 0 510.957810 510.965840"
 preserveAspectRatio="xMidYMid meet">
<metadata>
Created by potrace 1.12, written by Peter Selinger 2001-2015
</metadata>
<g transform="translate(-0.521095,511.625555) scale(0.100000,-0.100000)"
fill="#000000" stroke="none">
<path d="M2351 5109 c-434 -38 -831 -175 -1186 -406 -562 -368 -960 -943
-1104 -1599 -74 -335 -74 -753 0 -1088 46 -209 107 -382 204 -581 316 -645
883 -1123 1575 -1329 237 -71 446 -99 720 -99 418 0 755 77 1125 258 700 342
1206 988 1374 1751 74 335 74 753 0 1088 -83 377 -261 752 -499 1051 -360 451
-887 779 -1456 904 -215 48 -541 69 -753 50z m332 -821 c562 -601 956 -1195
1121 -1689 62 -187 80 -293 80 -479 -1 -137 -5 -179 -23 -245 -46 -172 -127
-303 -275 -450 -129 -128 -244 -214 -591 -442 -154 -101 -313 -207 -352 -234
-40 -27 -77 -49 -83 -49 -6 0 -43 22 -83 49 -39 27 -198 133 -352 234 -347
228 -462 314 -591 442 -148 147 -229 278 -275 450 -32 117 -32 367 0 515 89
416 354 905 779 1437 183 230 500 583 522 583 5 0 60 -55 123 -122z"/>
<path d="M2423 3698 c-589 -712 -878 -1333 -798 -1711 42 -198 181 -335 673
-662 122 -82 224 -146 227 -143 3 2 4 598 3 1322 l-3 1318 -102 -124z"/>
</g>
</svg>
