<!DOCTYPE svg PUBLIC "-//W3C//DTD SVG 20010904//EN" "http://www.w3.org/TR/2001/REC-SVG-20010904/DTD/svg10.dtd">
<svg version="1.0" xmlns="http://www.w3.org/2000/svg" width="512px" height="512px" viewBox="0 0 5120 5120" preserveAspectRatio="xMidYMid meet">
<g id="layer101" fill="#00a6a4" stroke="none">
 <path d="M2255 5108 c-105 -12 -298 -51 -409 -83 -994 -288 -1724 -1155 -1835 -2177 -14 -125 -14 -451 0 -576 128 -1181 1080 -2133 2261 -2261 125 -14 451 -14 576 0 1181 128 2133 1080 2261 2261 14 125 14 451 0 576 -128 1181 -1080 2133 -2261 2261 -115 13 -479 12 -593 -1z"/>
 </g>
<g id="layer102" fill="#ffffff" stroke="none">
 <path d="M2305 4254 c-137 -91 -311 -206 -385 -257 -515 -352 -682 -597 -683 -997 -2 -580 425 -1334 1258 -2225 l65 -70 65 70 c323 345 550 625 747 918 349 521 512 937 512 1307 -1 381 -157 624 -606 943 -95 68 -717 478 -721 476 -1 0 -114 -75 -252 -165z m223 -2291 l-3 -668 -104 125 c-408 489 -692 972 -783 1338 -30 117 -32 350 -5 429 60 173 209 309 661 610 l231 153 3 -659 c1 -363 1 -960 0 -1328z"/>
 </g>

</svg>