<svg version="1.1" xmlns="http://www.w3.org/2000/svg" xmlns:xlink="http://www.w3.org/1999/xlink" x="0px" y="0px" style="enable-background:new 0 0 640 640;" xml:space="preserve" viewBox="104.00 48.77 432.10 542.43">
<path fill="#000000" d="M529.2,465.1L269.1,590c-1.6,0.8-3.4,1.2-5.2,1.2c-2.2,0-4.4-0.6-6.4-1.8c-3.5-2.2-5.6-6-5.6-10.2V455.5 l-140.5-58.8c-4.5-1.9-7.4-6.2-7.4-11.1V60.8c0-4.1,2.1-8,5.6-10.2c3.5-2.2,7.9-2.4,11.6-0.7l270.4,129.8l127.3-61.1 c3.7-1.8,8.1-1.5,11.6,0.7c3.5,2.2,5.6,6,5.6,10.2v324.8C536,458.9,533.4,463.1,529.2,465.1z M128,79.9v297.7l123.9,51.9v-59.8 l-77.9-31.4c-6.1-2.5-9.1-9.5-6.7-15.6c2.5-6.2,9.5-9.1,15.6-6.7l69,27.8v-49.1l-77.9-31.4c-6.1-2.5-9.1-9.5-6.7-15.6 c2.5-6.2,9.5-9.1,15.6-6.7l69,27.8v-14.3c0-4.6,2.6-8.8,6.8-10.8l17.8-8.6l-103.1-46.9c-6-2.7-8.7-9.9-6-15.9c2.7-6,9.9-8.7,15.9-6 l121.3,55.3l59.1-28.4L128,79.9z M512,148.6L275.9,262v24.3c0,0,0,0,0,0.1v74.9c0,0,0,0,0,0.1v198.8L512,446.7V148.6z M321,303.8 l135.3-65.4c6-2.9,13.1-0.4,16,5.6c2.9,6,0.4,13.2-5.6,16l-135.3,65.4c-1.7,0.8-3.5,1.2-5.2,1.2c-4.5,0-8.7-2.5-10.8-6.8 C312.6,313.9,315.1,306.7,321,303.8z M321,378.8l135.3-65.4c6-2.9,13.1-0.4,16,5.6c2.9,6,0.4,13.2-5.6,16l-135.3,65.4 c-1.7,0.8-3.5,1.2-5.2,1.2c-4.5,0-8.7-2.5-10.8-6.8C312.6,388.8,315.1,381.7,321,378.8z M321,453.7l135.3-65.4 c6-2.9,13.1-0.4,16,5.6c2.9,6,0.4,13.2-5.6,16l-135.3,65.4c-1.7,0.8-3.5,1.2-5.2,1.2c-4.5,0-8.7-2.5-10.8-6.8 C312.6,463.8,315.1,456.6,321,453.7z"></path>
</svg>
