<svg xmlns="http://www.w3.org/2000/svg" xmlns:svg="http://www.w3.org/2000/svg" version="1.1" viewBox="0 0 226.20769 300" style="color:#5700ff" fill="none">
  <path fill="currentColor" id="remote-r" d="m 223.07879,231.38492 h 2.97864 v 68.61509 h -11.38266 c -73.61492,0 -116.166923,-41.59456 -116.166923,-109.57137 v -35.10538 l 23.935503,-5.85091 c 14.25206,-3.60303 25.2222,-14.98559 28.29706,-29.36087 3.03802,-14.33914 -2.4227,-29.149282 -14.04214,-38.084026 C 111.40839,62.560818 74.749238,80.32736 74.359603,112.23936 V 262.12873 H 0 V 109.57988 C 0,105.00554 0.31914,100.4312 0.85104,95.856858 8.90296,40.311257 56.85356,-0.67876454 112.97553,0.00851546 c 50.52004,-0.49776 95.20522,32.66838254 109.3586,81.16789954 6.80832,24.467405 4.57434,50.636865 -6.17004,73.614925 -9.14166,19.53936 -23.78096,35.9901 -42.12646,47.3391 6.17004,24.78653 19.1484,29.36086 48.19012,29.36086" />
</svg>
