<svg clip-rule="evenodd" fill-rule="evenodd" stroke-linejoin="round" stroke-miterlimit="2" version="1.1" viewBox="166.94 .00056945 690.13 1024" xml:space="preserve" xmlns="http://www.w3.org/2000/svg">
    <g transform="matrix(1.5822 0 0 1.5822 -933.06 -212.98)">
        <path d="m862.27 134.6s24.705 83.679-22.73 132.4c-47.436 48.718-42.308 102.56-23.077 128.2s17.948 44.871 2.563 58.974c-15.384 14.103-28.205 24.359-37.179 1.282s-19.23-23.077-23.077-34.615-11.539-32.051-11.539-32.051-24.359 38.462-39.744 61.539-15.384 58.975-5.128 78.205 6.41 42.307-1.282 74.358 2.564 80.769 38.461 100 79.488 34.615 98.718 52.564 64.103 34.615 121.8 21.795c57.689-12.82 130.77-71.794 143.59-111.54 0 0 33.33-37.179 26.92-85.897s-29.48-47.437-39.74-84.616 22.19-28.012-5.13-91.845c0 0-12.18-30.382-58.45-52.27-29.726-14.063-9.5-77.68-62.06-141.78-52.564-64.102-102.91-74.705-102.91-74.705z" fill="url(#a)" fill-rule="nonzero"/>
        <path d="m843.7 452.44 2.249 53.018s-40.103 29.566-45.538 68l-16.001 1.231s-11.539 2.564-11.539 14.103v37.18s3.846 11.538 12.82 11.538l16.487-0.319s8 30.5 36.5 50.5v25.5s-2 8.5 15.5 11 40.75 2.25 44.5-1.5 3.75-4.5 3.75-9c0 0 21.25 5 60.25 0v5s3.5 7 29 7c25.501 0 33.001-3 37.501-12v-25s37.01-36.264 35.75-91.75c-1.08-47.75-15.9-64.299-35.81-82.96-22.67-21.254-69.941-31.165-117.94-25.353 1e-3 -1e-3 -24.341-43.938-67.478-36.188z" fill="#fff" fill-rule="nonzero"/>
        <circle cx="838.68" cy="588.19" r="9.5" fill="#03394d"/>
        <path d="m1063.3 564.31s-18.22-8.742-40.66 3.996c0 0-26.711-8.987-40.99 2.593-14.828 12.025-16.299 26.115-15.525 42.785 0 0 12.837-43.915 45.255-32.571 0 0-22.95 40.43 12.76 47.508 0 0 8.43-0.05 15.4-4.256 6.64-4.011 11.84-11.433 9.71-24.814 0 0-4.35-13.336-15.57-21.42 0 0 11.04-7.806 31.99-2.209l-2.37-11.612z" fill="#cd5029" fill-rule="nonzero"/>
        <path d="m1023.4 586.82s-16.69 31.461 5.61 29.767c0 0 11.84-5.656 4.88-17.127-7.14-11.796-10.49-12.64-10.49-12.64z" fill="#fff" fill-rule="nonzero"/>
    </g>
    <defs>
        <linearGradient id="a" x2="1" gradientTransform="matrix(3.9628e-14 647.18 -647.18 3.9628e-14 695.21 134.6)" gradientUnits="userSpaceOnUse"><stop stop-color="#ffa284" offset="0"/><stop stop-color="#cd5029" offset=".5"/><stop stop-color="#cd5029" offset="1"/></linearGradient>
    </defs>
</svg>
