<svg version="1.0" xmlns="http://www.w3.org/2000/svg" viewBox="0 0 256 256">
  <g transform="translate(0.000000,256.000000) scale(0.100000,-0.100000)" fill="#1a3a8b" stroke="none">
    <path d="M170 2540 c-37 -12 -68 -33 -97 -63 -77 -82 -73 -19 -73 -1197 0 -1188 -5 -1118 79 -1201 83 -84 13 -79 1201 -79 1188 0 1118 -5 1201 79 84 83 79 13 79 1201 0 1188 5 1118 -79 1201 -83 84 -12 79 -1205 79 -1005 -1 -1053 -1 -1106 -20z m1220 -544 c0 -5 -100 -426 -106 -448 -5 -16 -3 -16 33 -1 50 22 163 21 230 -1 214 -71 289 -383 156 -655 -28 -57 -57 -96 -117 -157 -87 -87 -162 -131 -271 -159 -87 -22 -254 -20 -373 6 -115 25 -155 43 -148 67 3 9 73 305 157 657 83 352 155 644 159 648 12 13 280 54 280 43z" />
    <path d="M1311 1329 c-82 -16 -84 -19 -131 -216 -23 -98 -50 -211 -60 -250 l-18 -73 74 0 c92 0 145 23 207 89 77 82 109 165 108 281 0 139 -57 192 -180 169z" />
  </g>
</svg>
