<svg viewBox="0 0 512 512" xmlns="http://www.w3.org/2000/svg">
    <g clip-path="url(#clip0_10_48)">
        <path d="M256 512C397.385 512 512 397.385 512 256C512 114.615 397.385 0 256 0C114.615 0 0 114.615 0 256C0 397.385 114.615 512 256 512Z" fill="#4353FF"/>
        <path d="M331.2 225.6L308 298.72C308 293.12 292 171.84 292 171.84C255.2 171.84 235.68 197.92 225.44 225.6L197.12 298.88C197.12 293.6 193.12 226.24 193.12 226.24C191.754 211.658 185.088 198.083 174.384 188.087C163.68 178.091 149.681 172.367 135.04 172L165.12 355.68C203.52 355.68 224.32 329.6 235.04 301.92L259.04 239.52C259.04 242.08 275.04 355.68 275.04 355.68C290.742 355.66 306.03 350.64 318.688 341.348C331.346 332.056 340.716 318.975 345.44 304L399.84 171.84C361.44 171.84 341.28 197.92 331.04 225.6H331.2Z" fill="white"/>
    </g>
    <defs>
        <clipPath id="clip0_10_48">
            <rect width="512" height="512" fill="white"/>
        </clipPath>
    </defs>
</svg>
