<svg xmlns="http://www.w3.org/2000/svg" viewBox="0.02 0.02 400.62 400.62"><path d="M178.77 178.77a90.69 90.69 0 0043.14 0 90.81 90.81 0 0166.52-66.52 90.69 90.69 0 10-176.19 0 90.81 90.81 0 0166.53 66.52z" fill="#7abdf7"/><path d="M221.91 221.89a90.69 90.69 0 00-43.14 0 90.84 90.84 0 01-66.52 66.52 90.69 90.69 0 10176.19 0 90.81 90.81 0 01-66.53-66.52z" fill="#0d74f5"/><path d="M309.99 109.64a90.59 90.59 0 00-21.56 2.6 90.79 90.79 0 01-66.51 66.51 90.69 90.69 0 000 43.14 90.81 90.81 0 0166.51 66.52 90.69 90.69 0 1021.56-178.79z" fill="#4494f7"/><path d="M178.77 221.89a90.69 90.69 0 000-43.14 90.81 90.81 0 01-66.52-66.51 90.69 90.69 0 100 176.19 90.82 90.82 0 0166.52-66.54z" fill="#005cf4"/><path d="M221.91 178.77a90.84 90.84 0 0066.52-66.52 90.81 90.81 0 00-66.52 66.52z" fill="#186ef9"/><path d="M221.91 221.89a90.81 90.81 0 0066.52 66.52 90.84 90.84 0 00-66.52-66.52z" fill="#0246f2"/><path d="M178.77 178.77a90.84 90.84 0 00-66.52-66.52 90.84 90.84 0 0066.52 66.52z" fill="#0046f8"/><path d="M178.77 221.89a90.84 90.84 0 00-66.52 66.52 90.84 90.84 0 0066.52-66.52z" fill="#0729f1"/><path d="M178.77 178.77a90.69 90.69 0 0043.14 0 90.81 90.81 0 0166.52-66.52 90.69 90.69 0 10-176.19 0 90.81 90.81 0 0166.53 66.52z" fill="#7abdf7"/><path d="M221.91 221.89a90.69 90.69 0 00-43.14 0 90.84 90.84 0 01-66.52 66.52 90.69 90.69 0 10176.19 0 90.81 90.81 0 01-66.53-66.52z" fill="#0d74f5"/><path d="M309.99 109.64a90.59 90.59 0 00-21.56 2.6 90.79 90.79 0 01-66.51 66.51 90.69 90.69 0 000 43.14 90.81 90.81 0 0166.51 66.52 90.69 90.69 0 1021.56-178.79z" fill="#4494f7"/><path d="M178.77 221.89a90.69 90.69 0 000-43.14 90.81 90.81 0 01-66.52-66.51 90.69 90.69 0 100 176.19 90.82 90.82 0 0166.52-66.54z" fill="#005cf4"/><path d="M221.91 178.77a90.84 90.84 0 0066.52-66.52 90.81 90.81 0 00-66.52 66.52z" fill="#186ef9"/><path d="M221.91 221.89a90.81 90.81 0 0066.52 66.52 90.84 90.84 0 00-66.52-66.52z" fill="#0246f2"/><path d="M178.77 178.77a90.84 90.84 0 00-66.52-66.52 90.84 90.84 0 0066.52 66.52z" fill="#0046f8"/><path d="M178.77 221.89a90.84 90.84 0 00-66.52 66.52 90.84 90.84 0 0066.52-66.52z" fill="#0729f1"/></svg>