<svg version="1.0" id="Layer_1" xmlns="http://www.w3.org/2000/svg" xmlns:xlink="http://www.w3.org/1999/xlink" 
	 viewBox="0 0 800 800" enable-background="new 0 0 800 800" xml:space="preserve">
<g>
	<path fill="#FFB300" d="M383.083,509.154c-59.607,0-108.017-48.443-108.017-107.991c0-59.574,48.409-108.001,108.017-108.001
		c29.662,0,56.753,12.11,76.309,31.683l56.062-56.053c-33.917-33.983-80.745-54.981-132.37-54.981
		c-103.317,0-187.377,84.075-187.377,187.353c0,103.342,84.06,187.318,187.377,187.318c51.625,0,98.453-21.007,132.37-54.891
		l-56.062-56.062C439.836,497.085,412.745,509.154,383.083,509.154"/>
	<path fill="#FFB300" d="M540.532,353.815c-26.101,0-47.256,21.237-47.256,47.348c0,26.109,21.155,47.347,47.256,47.347
		c26.184,0,47.339-21.237,47.339-47.347C587.871,375.053,566.716,353.815,540.532,353.815"/>
	<path fill="#FFB300" d="M46.468,753.532h707.064V46.468H46.468V753.532z M125.629,674.453V125.638h548.906v254.478v39.819v254.519
		H125.629z"/>
</g>
</svg>
