<svg clip-rule="evenodd" fill-rule="evenodd" stroke-linejoin="round" stroke-miterlimit="2" version="1.1" viewBox="0 127.72 500 244.57" xml:space="preserve" xmlns="http://www.w3.org/2000/svg">
    <g transform="matrix(5.4348 0 0 5.4348 0 127.72)">
        <path d="m0 45h45.974l44.992-45h-90.966v45" fill="url(#a)"/>
    </g>
    <g transform="matrix(5.4348 0 0 5.4348 0 127.72)">
        <path d="m53.984 9h-8.984l0.03 21.13-7.823-21.137h-7.757l-6.678 17.653c-0.71-4.492-5.354-6.042-9.008-7.203-2.413-0.775-4.974-1.915-4.948-3.175 0.02-1.034 1.37-1.993 4.053-1.85 1.8 0.097 3.39 0.242 6.553 1.77l3.11-5.42c-2.884-1.468-6.872-2.395-10.142-2.398h-0.02c-3.813 0-6.988 1.235-8.956 3.27-1.372 1.42-2.112 3.226-2.142 5.223-0.05 2.748 0.957 4.696 3.073 6.253 1.788 1.31 4.075 2.16 6.09 2.784 2.485 0.77 4.515 1.44 4.49 2.866-0.02 0.52-0.216 1.006-0.59 1.398-0.62 0.64-1.57 0.88-2.885 0.906-2.537 0.054-4.417-0.345-7.413-2.116l-2.767 5.49c2.993 1.702 6.17 2.556 9.78 2.556l0.812-6e-3c3.142-0.057 5.692-0.81 7.718-2.44 0.116-0.093 0.22-0.187 0.328-0.282l-0.34 1.752 7.58-0.024 1.36-3.482c1.43 0.488 3.056 0.758 4.782 0.758 1.682 0 3.264-0.256 4.667-0.716l0.948 3.44 13.6 0.013 0.033-7.938h2.894c6.995 0 11.13-3.56 11.13-9.53-2e-3 -6.649-4.022-9.545-12.578-9.545zm-20.694 18.062c-1.045 0-2.025-0.182-2.868-0.502l2.836-8.955h0.055l2.79 8.98c-0.84 0.3-1.797 0.477-2.814 0.477h1e-3zm21.22-5.145h-1.974v-7.217h1.975c2.63 0 4.73 0.876 4.73 3.562-2e-3 2.78-2.1 3.655-4.73 3.655" fill="#fff"/>
    </g>
    <g transform="matrix(5.4348 0 0 5.4348 0 127.72)">
        <rect width="92" height="45" fill="none"/>
    </g>
    <defs>
        <linearGradient id="a" x2="1" gradientTransform="matrix(2.7555e-15 45.001 -45.001 2.7555e-15 45.483 0)" gradientUnits="userSpaceOnUse"><stop stop-color="#00aeef" offset="0"/><stop stop-color="#0097dc" offset=".21"/><stop stop-color="#007cc5" offset=".52"/><stop stop-color="#006cb8" offset=".79"/><stop stop-color="#0066b3" offset="1"/></linearGradient>
    </defs>
</svg>
