<svg xmlns="http://www.w3.org/2000/svg" viewBox="0 0 24 24"><path fill-rule="evenodd" clip-rule="evenodd" d="M13.432 10.618c-.418-.066-.848-.043-1.27-.046-.627 0-1.253.008-1.877-.004a257.3 257.3 0 000 3.402c.753-.008 1.502-.003 2.253-.003.399 0 .807.015 1.188-.128a1.617 1.617 0 001.034-1.173c.089-.45.043-.94-.215-1.328-.244-.387-.671-.631-1.113-.72z" fill="#149F49"/><path fill-rule="evenodd" clip-rule="evenodd" d="M12 0C5.373 0 0 5.373 0 12s5.373 12 12 12 12-5.373 12-12S18.627 0 12 0zM7 14.102c.639.011 1.25-.395 1.513-.972.123-.27.176-.567.155-.863.027-.573-.251-1.157-.739-1.47-.269-.194-.6-.27-.925-.291-.004-.453 0-.902-.004-1.351.468.02.925-.197 1.237-.542.301-.34.456-.784.43-1.237-.054-.55-.377-1.08-.875-1.331-.24-.14-.515-.19-.79-.201-.008-.496 0-.988-.004-1.48 2.133-.003 4.266-.007 6.402 0 .848.054 1.708.353 2.339.938.424.397.71.921.813 1.494.093.685.03 1.432-.384 2.009-.263.41-.665.708-1.095.933.666.255 1.262.723 1.595 1.362.457.875.445 1.982-.046 2.838-.338.6-.903 1.052-1.533 1.316-.63.263-1.332.356-2.013.348H7c-.002-.502.002-1-.002-1.5H7zm10 5.531c-1.359.016-2.721.005-4.086.008-1.97-.003-3.94.008-5.91-.008a36.532 36.532 0 010-1.61c2.058-.015 4.118 0 6.182-.004 1.27.004 2.544-.011 3.813.004.01.538.01 1.076-.002 1.61H17z" fill="#149F49"/><path fill-rule="evenodd" clip-rule="evenodd" d="M12.322 9.097c.336-.008.677.03 1.002-.074.534-.151 1.014-.596 1.1-1.161.077-.465-.012-.98-.337-1.336-.345-.383-.88-.569-1.386-.55h-2.424c.004 1.042.004 2.08 0 3.12h2.045z" fill="#149F49"/><path d="M13.076 15.6c.681.008 1.382-.077 2.013-.348.631-.271 1.196-.716 1.533-1.317.491-.855.503-1.962.046-2.837-.332-.639-.929-1.107-1.594-1.363.43-.224.832-.522 1.095-.932.414-.577.476-1.324.383-2.01A2.706 2.706 0 0015.74 5.3c-.632-.584-1.492-.882-2.338-.937-2.136-.007-4.27-.003-6.402 0 .004.492-.004.984.004 1.48.274.01.55.061.79.2.498.252.82.783.874 1.332.026.453-.128.898-.43 1.237-.314.344-.77.561-1.236.542.003.449 0 .898.003 1.35.326.024.658.098.926.291.487.313.766.898.739 1.471.02.296-.033.593-.155.863-.263.577-.875.983-1.513.972.003.499 0 .998 0 1.498l6.075.002zm1.684-2.934a1.618 1.618 0 01-1.034 1.173c-.379.143-.79.128-1.188.128-.752 0-1.502-.005-2.253.003a257.285 257.285 0 010-3.402c.624.012 1.25.004 1.877.004.422.003.852-.02 1.27.046.442.089.867.333 1.111.72.26.387.306.879.217 1.328zm-4.483-6.69h2.424c.506-.018 1.04.167 1.385.55.326.357.415.871.337 1.336-.085.565-.565 1.01-1.1 1.161-.322.105-.665.066-1.002.074h-2.043a499.17 499.17 0 000-3.12z" fill="#fff"/><path d="M13.184 18.02c-2.062.003-4.122-.012-6.182.003a36.532 36.532 0 000 1.61c1.97.016 3.94.005 5.91.008 1.363-.003 2.726.008 4.086-.008.012-.534.012-1.072 0-1.61-1.27-.015-2.544 0-3.814-.004z" fill="#73C692"/></svg>