<svg xmlns="http://www.w3.org/2000/svg" xmlns:xlink="http://www.w3.org/1999/xlink" version="1.1" viewBox="0 0 128 128" xml:space="preserve">
    <desc>Created with Fabric.js 3.6.3</desc>
    <defs>
    </defs>
    <g transform="matrix(1 0 0 1 64.18 63.68)">
        <g style="">
            <g transform="matrix(5.56 0 0 5.56 -16.92 -20.44)">
                <path style="stroke: none; stroke-width: 1; stroke-dasharray: none; stroke-linecap: butt; stroke-dashoffset: 0; stroke-linejoin: miter; stroke-miterlimit: 4; fill: rgb(211,0,53); fill-rule: nonzero; opacity: 1;" transform=" translate(-4.2, -7.79)" d="M 4.555 -0.027 s 3.422 2.992 2.957 5.644 c -0.207 1.18 -1.774 3.13 -0.93 4.98 c 0.914 1.997 1.387 5.844 -2.723 4.848 C -0.195 14.465 0.121 9.5 3.133 6.88 C 6.187 4.223 5.156 1.3 4.555 -0.027" stroke-linecap="round" />
            </g>
            <g transform="matrix(5.56 0 0 5.56 20.24 4.71)">
                <path style="stroke: none; stroke-width: 1; stroke-dasharray: none; stroke-linecap: butt; stroke-dashoffset: 0; stroke-linejoin: miter; stroke-miterlimit: 4; fill: rgb(211,0,53); fill-rule: nonzero; opacity: 1;" transform=" translate(-10.88, -12.31)" d="M 7.68 8.945 c -0.227 2.02 2.007 4.032 0.234 6.766 c -1.23 1.894 0.656 4.555 3.078 4.07 c 2.656 -0.531 3.313 -2.21 3.242 -4.16 c -0.093 -2.476 -1.078 -3.164 -3.27 -5.023 c -2.37 -2.012 -0.538 -5.809 -0.538 -5.809 S 7.934 6.723 7.68 8.945" stroke-linecap="round" />
            </g>
            <g transform="matrix(5.56 0 0 5.56 -4.39 41.32)">
                <path style="stroke: none; stroke-width: 1; stroke-dasharray: none; stroke-linecap: butt; stroke-dashoffset: 0; stroke-linejoin: miter; stroke-miterlimit: 4; fill: rgb(211,0,53); fill-rule: nonzero; opacity: 1;" transform=" translate(-6.45, -18.9)" d="M 0.465 14.855 c 0.75 0.922 2.2 2.008 4.976 2.07 c 0.84 0.016 0.184 1.583 1.864 2.993 c 1.453 1.223 3.41 1.25 4.457 0.855 c 0.61 -0.226 1.183 -0.445 0.742 0.122 c -1.973 2.527 -5.399 2.367 -7.844 1.453 c -2.906 -1.086 -3.637 -3.223 -4.113 -4.555 c -0.512 -1.445 -0.25 -3.145 -0.082 -2.938" stroke-linecap="round" />
            </g>
        </g>
    </g>
</svg>
