<svg viewBox="0 0 244 256" fill="none" xmlns="http://www.w3.org/2000/svg">
    <rect width="243.478" height="255.561" fill="#5F09FF" />
    <path fill-rule="evenodd" clip-rule="evenodd"
        d="M170.863 50.6946C159.921 52.9519 149.886 60.5828 145.003 70.3593C141.483 77.4097 140.334 83.0774 140.708 91.5464C141.17 101.984 142.455 103.647 150.94 104.786C159.779 105.973 170.07 103.948 177.668 99.527C181.799 97.1226 187.594 91.4365 190.064 87.362C194.733 79.6627 196.825 69.8496 195.702 60.9197C194.553 51.775 192.85 50.4254 181.98 50.0481C177.506 49.8925 173.668 50.1159 170.863 50.6946ZM107.89 58.6587C82.657 63.3999 61.7247 80.6455 52.1983 104.542C41.5629 131.219 47.5406 161.904 67.4405 182.79C90.4688 206.961 125.719 212.901 155.024 197.55C175.028 187.071 189.192 168.066 193.603 145.784C195.606 135.667 194.761 119.101 191.81 110.598L191.043 108.388L188.226 110.386C178.012 117.63 162.417 121.213 148.926 119.418C141.693 118.454 137.603 116.829 133.776 113.398C127.641 107.895 125.512 100.465 126.053 86.4427C126.421 76.8914 127.646 71.842 131.511 63.9517C132.876 61.1657 133.814 58.7088 133.598 58.4921C132.721 57.6174 112.743 57.7468 107.89 58.6587ZM182.174 65.8037C182.155 69.3594 180.441 75.9978 178.736 79.1225C174.793 86.3499 165.813 91.2888 156.617 91.2888H154.471L154.812 86.323C155.709 73.2728 165.654 64.0268 178.971 63.8601L182.184 63.8199L182.174 65.8037ZM100.703 152.258C108.636 158.436 113.274 160.266 120.997 160.266C128.483 160.266 136.216 157.259 140.543 152.665C145.236 147.683 152.81 150.44 152.81 157.132C152.81 159.78 152.593 160.146 148.95 163.621C137.359 174.683 117.886 177.531 102.925 170.353C98.4035 168.184 91.5893 163.207 89.9559 160.88C88.6647 159.042 88.8036 154.939 90.2203 153.032C91.6229 151.144 94.9367 149.844 97.1208 150.324C97.9623 150.509 99.5742 151.379 100.703 152.258Z"
        fill="white" />
</svg>