<svg clip-rule="evenodd" fill-rule="evenodd" stroke-linejoin="round" stroke-miterlimit="2" version="1.1" viewBox="0 0 500 500" xml:space="preserve" xmlns="http://www.w3.org/2000/svg">
    <g transform="translate(2.8422e-14 145.12)">
        <g transform="matrix(.92707 0 0 .92707 -120.83 -364.81)">
            <path d="m271.09 441.05v36.897c0 1.836-1.58 4.865-3.416 6.696l-37.581 37.58c-0.918 0.918-1.858 1.367-2.46 1.367-0.601 0-0.956-0.449-0.956-1.367v4.1c0 1.836 1.58 3.416 3.416 3.416h81.857c1.837 0 3.416-1.58 3.416-3.416v-81.994c0-1.836-1.579-3.279-3.416-3.279h-40.86zm-52.066 85.273c0 1.836-1.585 3.416-3.416 3.416h-40.86v44.55c0 0.918 0.36 1.367 0.956 1.367s1.405-0.449 2.323-1.367l37.581-37.58c1.831-1.837 3.416-4.86 3.416-6.696v-3.69z" fill="#7d8990" fill-rule="nonzero"/>
        </g>
        <g transform="matrix(.92707 0 0 .92707 -120.83 -364.81)">
            <path d="m270.13 394.59c-0.604 0-1.541 0.448-2.459 1.366l-37.581 37.717c-1.831 1.831-3.416 4.723-3.416 6.56v81.993c0 1.837 1.585 1.837 3.416 0l37.581-37.58c1.836-1.837 3.416-4.86 3.416-6.696v-81.994c0-0.918-0.353-1.366-0.957-1.366zm-136.38 46.463c-1.837 0-3.416 1.443-3.416 3.279v81.994c0 1.836 1.579 3.416 3.416 3.416h81.857c1.836 0 3.416-1.58 3.416-3.416v-81.994c0-1.836-1.58-3.279-3.416-3.279h-81.857z" fill="#e2001a" fill-rule="nonzero"/>
        </g>
        <g transform="matrix(.92707 0 0 .92707 -120.83 -364.81)">
            <path d="m230.09 441.05c-1.836 0-3.416 1.579-3.416 3.416v77.757c0 0.918 0.355 1.367 0.956 1.367 0.602 0 1.542-0.449 2.46-1.367l37.581-37.58c1.836-1.837 3.416-4.865 3.416-6.696v-36.897h-40.997zm-12.026 5.603c-0.606 0-1.541 0.453-2.459 1.366l-37.581 37.717c-1.831 1.87-3.279 4.728-3.279 6.56v37.443h40.86c1.836 0 3.416-1.58 3.416-3.416v-78.304c0-0.913-0.355-1.366-0.957-1.366z" fill="#8e1016" fill-rule="nonzero"/>
        </g>
        <g transform="matrix(.92707 0 0 .92707 -120.83 -364.81)">
            <path d="m523.08 441.19c-0.629 0-1.203 0.148-1.64 0.547-0.448 0.404-0.683 0.88-0.683 1.503v84.18c0 0.618 0.235 1.192 0.683 1.64 0.437 0.426 1.011 0.683 1.64 0.683h20.225c4.149 0 8.172-0.628 11.889-1.776 3.717-1.165 6.915-2.766 9.703-4.92 2.793-2.181 4.968-4.87 6.559-8.063 1.591-3.186 2.46-6.816 2.46-10.795 0-2.75-0.476-5.357-1.503-7.79-1.017-2.438-2.378-4.57-4.1-6.423-1.733-1.864-3.755-3.312-6.013-4.509-2.252-1.197-4.641-2.017-7.106-2.46 1.771-0.53 3.553-1.399 5.466-2.596 1.908-1.192 3.734-2.646 5.33-4.373 1.596-1.728 2.902-3.712 3.963-5.877 1.066-2.17 1.64-4.449 1.64-6.832 0-3.81-0.716-7.063-2.187-9.84-1.47-2.793-3.427-5.154-5.876-6.969-2.438-1.809-5.242-3.214-8.473-4.1-3.236-0.88-6.646-1.23-10.112-1.23h-21.865zm61.358 0c-0.617 0-1.098 0.153-1.503 0.547-0.388 0.399-0.453 0.885-0.273 1.503l16.945 84.18c0.18 0.607 0.607 1.192 1.093 1.64 0.487 0.432 1.028 0.683 1.64 0.683h6.696c0.624 0 1.154-0.251 1.64-0.683 0.476-0.448 0.777-1.033 0.957-1.64l14.485-74.204 14.623 74.204c0.175 0.607 0.47 1.192 0.956 1.64 0.487 0.432 1.028 0.683 1.64 0.683h6.696c0.629 0 1.192-0.251 1.64-0.683 0.448-0.448 0.776-1.033 0.957-1.64l16.945-84.18c0.186-0.618 0.076-1.104-0.273-1.503-0.367-0.394-0.755-0.547-1.367-0.547h-5.329c-1.329 0-2.247 0.634-2.597 2.05l-13.119 74.341-14.622-74.341c-0.356-1.416-1.115-2.05-2.46-2.05h-6.696c-1.41 0-2.252 0.634-2.596 2.05l-14.486 74.341-13.256-74.341c-0.36-1.416-1.322-2.05-2.733-2.05h-5.603zm-53.979 7.79h14.486c4.974 0 9.047 1.312 12.162 3.963 3.1 2.651 4.647 6.28 4.647 10.796 0 2.301-0.536 4.345-1.504 6.286-0.984 1.946-2.224 3.651-3.826 5.056-1.591 1.421-3.433 2.482-5.466 3.28-2.045 0.803-4.215 1.23-6.423 1.23h-14.076v-30.611zm0 38.263h14.486c5.592 0 10.151 1.542 13.666 4.51 3.492 2.963 5.192 6.887 5.192 12.026 0 2.662-0.382 5.16-1.366 7.379-0.979 2.208-2.367 4.149-4.1 5.74-1.727 1.596-3.706 2.804-6.013 3.689-2.306 0.897-4.81 1.367-7.379 1.367h-14.486v-34.711zm-117.52 62.725v20.225c0 0.541 0.03 1.143 0.136 1.64 0.098 0.498 0.29 0.853 0.547 1.23 0.256 0.366 0.666 0.738 1.093 0.957 0.426 0.224 0.967 0.273 1.64 0.273 0.339 0 0.688-0.022 1.093-0.136 0.404-0.11 0.661-0.301 0.82-0.41l-0.683-1.913-0.547 0.409-0.547 0.137c-0.426 0-0.781-0.263-0.956-0.683-0.18-0.432-0.274-0.941-0.274-1.64v-20.089h-2.323 1e-3zm87.869 0v23.915h2.323v-12.162l0.41-0.82 0.82-1.094c0.366-0.344 0.886-0.705 1.367-0.956 0.481-0.262 0.967-0.41 1.503-0.41 0.541 0 0.951 0.164 1.366 0.41 0.416 0.246 0.826 0.563 1.094 0.956 0.273 0.389 0.399 0.886 0.546 1.367 0.148 0.487 0.273 0.913 0.273 1.367v11.342h2.324v-11.616c0-0.694-0.05-1.366-0.274-2.05-0.224-0.688-0.656-1.366-1.093-1.913-0.432-0.535-0.967-0.907-1.64-1.23-0.672-0.328-1.426-0.546-2.323-0.546-0.585 0-1.137 0.175-1.64 0.409-0.503 0.241-0.978 0.503-1.366 0.82-0.394 0.312-0.722 0.656-0.957 0.957l-0.41 0.683v-9.429h-2.323zm46.736 0v23.915h2.324v-12.162l0.409-0.82 0.82-1.094c0.372-0.344 0.744-0.705 1.23-0.956 0.481-0.262 1.104-0.41 1.64-0.41 0.541 0 0.946 0.164 1.367 0.41 0.415 0.246 0.825 0.563 1.093 0.956 0.267 0.389 0.399 0.886 0.546 1.367 0.143 0.487 0.274 0.913 0.274 1.367v11.342h2.323v-11.616c0-0.694-0.18-1.366-0.41-2.05-0.219-0.688-0.514-1.366-0.956-1.913-0.438-0.535-0.968-0.907-1.64-1.23-0.673-0.328-1.416-0.546-2.323-0.546-0.58 0-1.137 0.175-1.64 0.409-0.503 0.241-0.979 0.503-1.367 0.82-0.393 0.312-0.721 0.656-0.956 0.957l-0.41 0.683v-9.429h-2.323-1e-3zm35.258 0v20.225c0 0.541 0.026 1.143 0.136 1.64 0.093 0.498 0.284 0.853 0.547 1.23 0.256 0.366 0.53 0.738 0.956 0.957 0.427 0.224 0.968 0.273 1.64 0.273 0.334 0 0.82-0.022 1.23-0.136 0.399-0.11 0.667-0.301 0.82-0.41l-0.683-1.913-0.547 0.409-0.683 0.137c-0.421 0-0.645-0.263-0.82-0.683-0.186-0.432-0.273-0.941-0.273-1.64v-20.089h-2.323zm-223.16 1.503v22.412h5.329c1.394 0 2.635-0.345 3.827-0.957 1.191-0.601 2.279-1.41 3.143-2.459 0.863-1.055 1.552-2.258 2.05-3.69 0.492-1.427 0.683-3.006 0.683-4.646 0-1.684-0.306-3.182-0.82-4.51-0.519-1.328-1.132-2.356-2.05-3.28-0.918-0.918-2.033-1.694-3.28-2.186-1.246-0.492-2.662-0.684-4.099-0.684h-4.783zm88.826 0v22.412h2.46v-10.659h9.156v10.659h2.46v-22.412h-2.46v9.703h-9.156v-9.703h-2.46zm-86.366 1.914h2.733c0.967 0 1.842 0.278 2.733 0.683 0.885 0.404 1.651 0.88 2.323 1.64 0.672 0.749 1.235 1.651 1.64 2.733 0.404 1.082 0.683 2.318 0.683 3.69s-0.175 2.645-0.547 3.826c-0.366 1.181-0.989 2.268-1.639 3.143-0.651 0.88-1.433 1.542-2.324 2.05-0.885 0.503-1.721 0.82-2.733 0.82h-2.869v-18.585zm39.356 3.143c-0.59 0-1.202 0.142-1.776 0.273-0.574 0.136-1.164 0.235-1.64 0.41-0.47 0.186-0.754 0.388-1.093 0.546l-0.683 0.274 0.683 1.913 0.683-0.41c0.323-0.17 0.689-0.24 1.093-0.41 0.405-0.164 0.782-0.409 1.23-0.546 0.454-0.131 0.875-0.137 1.23-0.137 1.214 0 2.137 0.339 2.733 1.094 0.591 0.748 0.82 1.634 0.82 2.733v1.093l-3.28 0.82c-0.656 0.125-1.295 0.366-2.049 0.683-0.749 0.312-1.542 0.634-2.187 1.093-0.639 0.443-1.093 1.034-1.503 1.64-0.421 0.607-0.683 1.197-0.683 1.913 0 1.509 0.552 2.717 1.503 3.554 0.956 0.83 2.208 1.229 3.69 1.229 0.628 0 1.087-0.039 1.639-0.273 0.552-0.235 1.077-0.645 1.504-0.956 0.426-0.318 0.836-0.509 1.093-0.82l0.41-0.684v2.323h2.186v-11.615c0-1.837-0.481-3.285-1.503-4.237-1.022-0.956-2.394-1.503-4.1-1.503zm25.965 0c-1.033 0-1.957 0.399-2.733 0.956-0.776 0.569-1.383 1.208-1.913 2.05-0.525 0.842-0.962 1.749-1.23 2.733-0.273 0.99-0.41 1.908-0.41 2.733 0 1.055 0.071 2.187 0.273 3.28 0.202 1.088 0.591 2.094 1.094 3.007 0.508 0.907 1.197 1.618 2.049 2.186 0.853 0.579 1.952 0.82 3.28 0.82 0.629 0 1.203-0.035 1.777-0.136 0.574-0.099 1.18-0.279 1.64-0.41 0.459-0.137 0.77-0.274 1.093-0.41l0.683-0.273-0.683-1.913-0.684 0.409c-0.295 0.148-0.705 0.274-1.093 0.41-0.393 0.131-0.765 0.175-1.23 0.273-0.459 0.104-0.896 0.274-1.366 0.274-0.787 0-1.487-0.247-2.05-0.684s-1.006-0.978-1.367-1.639c-0.361-0.667-0.65-1.422-0.82-2.187-0.169-0.76-0.273-1.514-0.273-2.186h10.113v-0.82c0-0.891-0.061-1.881-0.274-2.87-0.218-0.99-0.612-1.897-1.093-2.733-0.487-0.826-1.132-1.509-1.913-2.05-0.793-0.536-1.722-0.82-2.87-0.82zm47.146 0c-1.186 0-2.159 0.361-3.006 0.956-0.842 0.596-1.514 1.323-2.05 2.187-0.541 0.869-0.989 1.765-1.23 2.733-0.251 0.967-0.41 1.837-0.41 2.596 0 0.946 0.197 1.914 0.41 3.007 0.213 1.088 0.59 2.088 1.093 3.006 0.509 0.919 1.187 1.706 2.05 2.323 0.869 0.613 1.864 0.957 3.143 0.957 1.236 0 2.291-0.345 3.143-0.957 0.853-0.617 1.531-1.388 2.05-2.323 0.519-0.934 0.858-1.913 1.093-3.006 0.235-1.088 0.41-2.083 0.41-3.007 0-0.781-0.049-1.623-0.273-2.596-0.23-0.979-0.705-1.88-1.23-2.733-0.514-0.858-1.197-1.607-2.05-2.187-0.853-0.585-1.886-0.956-3.143-0.956zm17.356 0c-1.028 0-1.914 0.289-2.734 0.82-0.82 0.524-1.481 1.235-2.049 2.05-0.58 0.803-1.05 1.738-1.367 2.733-0.317 1-0.547 1.924-0.547 2.869 0 1.148 0.175 2.307 0.41 3.417 0.235 1.115 0.58 2.132 1.093 3.006 0.52 0.875 1.208 1.509 2.05 2.05 0.842 0.536 1.924 0.82 3.143 0.82 0.558 0 1.121-0.026 1.64-0.136 0.519-0.099 0.951-0.274 1.367-0.41 0.415-0.137 0.678-0.274 0.956-0.41l0.684-0.273-0.82-1.913-0.547 0.409-0.957 0.41c-0.349 0.131-0.71 0.186-1.093 0.273-0.382 0.093-0.732 0.137-1.093 0.137-0.76 0-1.503-0.241-2.05-0.683-0.552-0.438-1.017-0.941-1.366-1.64-0.35-0.689-0.525-1.575-0.684-2.46-0.158-0.886-0.273-1.722-0.273-2.597 0-0.716 0.076-1.426 0.273-2.186 0.186-0.765 0.459-1.547 0.82-2.187 0.361-0.639 0.842-1.098 1.367-1.503 0.53-0.399 1.104-0.683 1.776-0.683l1.094 0.136 0.956 0.41 0.957 0.41 0.409 0.273 0.82-1.913-0.546-0.41-0.957-0.273c-0.377-0.12-0.754-0.317-1.23-0.41-0.47-0.087-1.005-0.136-1.503-0.136h1e-3zm31.294 0c-0.744 0-1.4 0.164-2.05 0.409-0.656 0.252-1.274 0.646-1.777 1.094-0.508 0.448-0.94 1.011-1.23 1.64-0.295 0.628-0.409 1.306-0.409 2.049 0 0.695 0.158 1.258 0.546 1.777 0.394 0.519 0.908 0.94 1.503 1.367 0.596 0.426 1.219 0.863 1.914 1.229 0.699 0.377 1.317 0.722 1.913 1.094 0.596 0.371 1.109 0.836 1.503 1.23 0.394 0.393 0.683 0.738 0.683 1.229 0 0.881-0.317 1.558-0.956 2.05-0.64 0.498-1.465 0.82-2.323 0.82-0.405 0-0.875-0.022-1.367-0.136-0.497-0.109-0.929-0.284-1.367-0.41-0.437-0.142-0.759-0.262-1.093-0.41l-0.683-0.409-0.82 1.913 0.82 0.409c0.328 0.137 0.645 0.274 1.093 0.41 0.443 0.137 1.06 0.18 1.64 0.274 0.568 0.087 1.104 0.136 1.776 0.136 0.766 0 1.498-0.164 2.187-0.41s1.274-0.508 1.776-0.956c0.509-0.454 0.941-1.023 1.23-1.64 0.29-0.618 0.41-1.329 0.41-2.05 0-0.629-0.142-1.137-0.547-1.64-0.404-0.508-0.907-0.94-1.503-1.366-0.59-0.427-1.202-0.859-1.913-1.23-0.711-0.367-1.454-0.706-2.05-1.094-0.59-0.377-1.104-0.803-1.503-1.23-0.405-0.426-0.547-0.869-0.547-1.366 0-0.88 0.345-1.656 0.957-2.187 0.601-0.53 1.328-0.82 2.186-0.82l0.957 0.137 1.093 0.41 0.82 0.409 0.547 0.274 0.683-1.777-0.547-0.41c-0.267-0.12-0.573-0.164-0.956-0.273s-0.771-0.323-1.23-0.41c-0.459-0.093-0.913-0.136-1.367-0.136h1e-3zm15.442 0c-1.033 0-1.913 0.289-2.733 0.82-0.82 0.524-1.613 1.235-2.187 2.05-0.574 0.803-0.913 1.738-1.23 2.733-0.317 1-0.546 1.924-0.546 2.869 0 1.148 0.175 2.307 0.409 3.417 0.235 1.115 0.574 2.132 1.094 3.006 0.513 0.875 1.208 1.509 2.049 2.05 0.842 0.536 1.793 0.82 3.007 0.82 0.557 0 1.12-0.026 1.64-0.136 0.519-0.099 1.088-0.274 1.503-0.41 0.415-0.137 0.672-0.274 0.957-0.41l0.546-0.273-0.683-1.913-0.683 0.409-0.82 0.41c-0.35 0.131-0.711 0.186-1.093 0.273-0.383 0.093-0.864 0.137-1.23 0.137-0.76 0-1.361-0.241-1.913-0.683-0.553-0.438-1.017-0.941-1.367-1.64-0.35-0.689-0.53-1.575-0.683-2.46-0.159-0.886-0.274-1.722-0.274-2.597 0-0.716 0.083-1.426 0.274-2.186 0.191-0.765 0.459-1.547 0.82-2.187 0.36-0.639 0.841-1.098 1.366-1.503 0.525-0.399 1.099-0.683 1.777-0.683l0.956 0.136 1.094 0.41 0.956 0.41 0.41 0.273 0.683-1.913-0.41-0.41-0.956-0.273c-0.367-0.12-0.754-0.317-1.23-0.41-0.47-0.087-1.011-0.136-1.503-0.136zm58.352 0c-1.033 0-1.963 0.399-2.733 0.956-0.782 0.569-1.383 1.208-1.914 2.05-0.524 0.842-0.962 1.749-1.229 2.733-0.268 0.99-0.41 1.908-0.41 2.733 0 1.055 0.202 2.187 0.41 3.28 0.191 1.088 0.453 2.094 0.956 3.007 0.509 0.907 1.197 1.618 2.05 2.186 0.853 0.579 1.951 0.82 3.28 0.82 0.634 0 1.208-0.035 1.776-0.136 0.574-0.099 1.181-0.279 1.64-0.41 0.465-0.137 0.765-0.274 1.093-0.41l0.684-0.273-0.684-1.913-0.683 0.409c-0.29 0.148-0.563 0.274-0.957 0.41-0.393 0.131-0.907 0.175-1.366 0.273-0.465 0.104-0.891 0.274-1.367 0.274-0.787 0-1.486-0.247-2.049-0.684s-1.006-0.978-1.367-1.639c-0.361-0.667-0.65-1.422-0.82-2.187-0.164-0.76-0.273-1.514-0.273-2.186h10.112v-0.82c0-0.891-0.06-1.881-0.273-2.87-0.208-0.99-0.607-1.897-1.093-2.733-0.481-0.826-1.126-1.509-1.913-2.05-0.788-0.536-1.722-0.82-2.87-0.82zm-218.38 0.409v11.616c0 0.744 0.208 1.493 0.41 2.187 0.202 0.699 0.53 1.251 0.956 1.776 0.427 0.53 0.979 1.044 1.64 1.367 0.662 0.328 1.399 0.41 2.323 0.41 0.607 0 1.132-0.164 1.64-0.41 0.503-0.252 0.984-0.509 1.367-0.82 0.382-0.317 0.721-0.645 0.956-0.957l0.41-0.546v2.323h2.187v-16.946h-2.324v12.3l-0.409 0.683-0.82 1.093c-0.361 0.361-0.76 0.672-1.23 0.957-0.476 0.284-0.962 0.409-1.503 0.409-0.585 0-1.099-0.175-1.504-0.409-0.404-0.236-0.71-0.449-0.956-0.82-0.246-0.372-0.421-0.886-0.547-1.367-0.12-0.486-0.273-0.984-0.273-1.503v-11.343h-2.323zm186.54 0v11.616c0 0.744 0.071 1.493 0.273 2.187 0.202 0.699 0.525 1.251 0.957 1.776 0.421 0.53 0.973 1.044 1.64 1.367 0.661 0.328 1.405 0.41 2.323 0.41 0.607 0 1.268-0.164 1.776-0.41 0.503-0.252 0.853-0.509 1.23-0.82 0.383-0.317 0.722-0.645 0.957-0.957l0.547-0.546v2.323h2.186v-16.946h-2.323v12.3l-0.41 0.683-0.82 1.093c-0.361 0.361-0.754 0.672-1.23 0.957-0.47 0.284-1.093 0.409-1.64 0.409-0.579 0-0.967-0.175-1.366-0.409-0.41-0.236-0.842-0.449-1.093-0.82-0.246-0.372-0.427-0.886-0.547-1.367-0.126-0.486-0.136-0.984-0.136-1.503v-11.343h-2.324zm-137.75 1.504c0.7 0 1.279 0.131 1.777 0.546 0.497 0.421 0.929 0.919 1.229 1.504 0.301 0.584 0.536 1.24 0.684 1.913 0.147 0.672 0.273 1.279 0.273 1.776h-7.789c0-0.563 0.104-1.252 0.273-1.913 0.164-0.667 0.366-1.192 0.683-1.776 0.317-0.591 0.733-1.11 1.23-1.504 0.492-0.388 0.99-0.546 1.64-0.546zm47.146 0c0.809 0 1.514 0.35 2.05 0.82 0.541 0.47 1.028 0.962 1.367 1.64 0.328 0.672 0.546 1.443 0.683 2.186 0.131 0.743 0.136 1.35 0.136 1.913 0 0.673-0.017 1.465-0.136 2.323-0.12 0.853-0.356 1.564-0.683 2.323-0.323 0.749-0.815 1.405-1.367 1.914-0.552 0.524-1.219 0.82-2.05 0.82-0.852 0-1.498-0.296-2.05-0.82-0.552-0.509-1.055-1.165-1.366-1.914-0.317-0.759-0.421-1.47-0.547-2.323-0.126-0.858-0.273-1.65-0.273-2.323 0-0.601 0.126-1.301 0.273-2.05 0.148-0.754 0.345-1.383 0.683-2.049 0.334-0.656 0.826-1.329 1.367-1.777s1.126-0.683 1.913-0.683zm122.58 0c0.689 0 1.28 0.131 1.777 0.546 0.486 0.421 0.782 0.919 1.093 1.504 0.301 0.584 0.536 1.24 0.683 1.913 0.143 0.672 0.274 1.279 0.274 1.776h-7.79c0-0.563 0.104-1.252 0.274-1.913 0.169-0.667 0.371-1.192 0.683-1.776 0.317-0.591 0.732-1.11 1.23-1.504 0.497-0.388 1.126-0.546 1.776-0.546zm-192.41 6.696v4.1l-0.546 1.093c-0.268 0.371-0.563 0.77-0.957 1.093-0.394 0.328-0.886 0.465-1.367 0.683-0.486 0.208-0.984 0.41-1.503 0.41-0.825 0-1.476-0.279-2.05-0.82s-0.82-1.241-0.82-2.186c0-0.47 0.121-0.957 0.41-1.367 0.295-0.404 0.651-0.776 1.093-1.093 0.438-0.312 0.962-0.596 1.504-0.82 0.535-0.23 1.033-0.432 1.503-0.547l2.733-0.546zm-1.503 21.865v9.292l-0.547-0.683-0.82-0.957c-0.355-0.3-0.77-0.459-1.23-0.683-0.459-0.224-0.983-0.41-1.503-0.41-0.967 0-1.798 0.328-2.596 0.82s-1.487 1.099-2.05 1.914c-0.558 0.803-1.06 1.738-1.367 2.733-0.306 1-0.409 1.995-0.409 3.006 0 1.093 0.169 2.165 0.409 3.28 0.235 1.109 0.574 2.115 1.094 3.006 0.519 0.886 1.104 1.635 1.913 2.187 0.803 0.552 1.837 0.82 3.006 0.82 0.498 0 1.022-0.175 1.503-0.41 0.487-0.235 0.837-0.503 1.23-0.82 0.394-0.312 0.711-0.64 0.957-0.957l0.547-0.683v2.46h2.186v-23.915h-2.323zm175.6 0v23.505c0.207 0.048 0.481 0.185 0.956 0.273 0.47 0.093 0.962 0.186 1.503 0.273 0.542 0.093 1.11 0.077 1.64 0.137 0.525 0.054 1.033 0.136 1.367 0.136 1.213 0 2.219-0.257 3.143-0.82 0.918-0.557 1.7-1.295 2.323-2.186 0.634-0.886 1.055-1.903 1.367-3.007 0.311-1.099 0.546-2.181 0.546-3.28 0-0.94-0.175-2.006-0.41-3.006-0.234-0.995-0.579-1.782-1.093-2.596-0.519-0.804-1.235-1.526-2.05-2.05-0.803-0.531-1.722-0.82-2.869-0.82-0.514 0-1.039 0.175-1.504 0.41-0.475 0.24-0.858 0.508-1.23 0.819l-0.956 0.957-0.41 0.547v-9.293h-2.323v1e-3zm-92.106 0.82c-0.449 0-0.804 0.245-1.094 0.546-0.295 0.301-0.409 0.662-0.409 1.094 0 0.42 0.115 0.787 0.409 1.093 0.29 0.306 0.645 0.41 1.094 0.41 0.448 0 0.787-0.105 1.093-0.41 0.301-0.306 0.546-0.673 0.546-1.093 0-0.432-0.245-0.793-0.546-1.094-0.306-0.301-0.645-0.546-1.093-0.546zm5.739 0c-0.448 0-0.803 0.245-1.093 0.546s-0.41 0.662-0.41 1.094c0 0.42 0.12 0.787 0.41 1.093s0.645 0.41 1.093 0.41c0.454 0 0.929-0.105 1.23-0.41 0.301-0.306 0.41-0.673 0.41-1.093 0-0.432-0.109-0.793-0.41-1.094s-0.776-0.546-1.23-0.546zm-132.83 0.546v22.548h5.739c1.055 0 1.93-0.115 2.87-0.409 0.946-0.29 1.891-0.809 2.597-1.367 0.71-0.546 1.235-1.104 1.639-1.913 0.405-0.809 0.547-1.722 0.547-2.733 0-0.7-0.153-1.432-0.41-2.05-0.262-0.618-0.519-1.164-0.956-1.64-0.443-0.47-0.93-0.792-1.504-1.093-0.568-0.312-1.279-0.569-1.913-0.683 0.454-0.137 1.023-0.383 1.504-0.684 0.486-0.3 0.825-0.65 1.229-1.093 0.405-0.437 0.82-0.956 1.094-1.503 0.267-0.552 0.409-1.033 0.409-1.64 0-0.967-0.174-1.886-0.546-2.596-0.372-0.706-0.886-1.318-1.503-1.777-0.618-0.459-1.367-0.727-2.187-0.957-0.82-0.224-1.585-0.409-2.46-0.409h-6.149v-1e-3zm94.839 0 5.193 22.548h2.733l4.783-19.405 4.919 19.405h2.734l5.192-22.548h-2.459l-4.1 19.405-4.783-19.405h-2.733l-4.783 19.405-4.1-19.405h-2.596zm59.582 1.094v4.509h-2.733v1.913h2.733v11.753c0 0.475 0.147 0.918 0.273 1.366 0.12 0.454 0.268 0.886 0.547 1.23 0.284 0.35 0.628 0.618 1.093 0.82 0.459 0.202 1.104 0.273 1.776 0.273l0.684-0.136 0.82-0.136 0.683-0.137 0.41-0.136-0.684-1.913c-0.136 0.087-0.437 0.153-0.82 0.273-0.382 0.125-0.639 0.273-0.956 0.273-0.519 0-0.875-0.246-1.093-0.683-0.208-0.437-0.41-0.897-0.41-1.367v-11.479h3.416v-1.913h-3.416v-4.51h-2.323zm11.615 0v4.509h-2.869v1.913h2.869v11.753c0 0.475 9e-3 0.918 0.137 1.366 0.126 0.454 0.273 0.886 0.547 1.23 0.284 0.35 0.634 0.618 1.093 0.82 0.464 0.202 1.104 0.273 1.776 0.273l0.684-0.136 0.82-0.136 0.683-0.137 0.41-0.136-0.683-1.913c-0.137 0.087-0.301 0.153-0.684 0.273-0.382 0.125-0.776 0.273-1.093 0.273-0.514 0-0.88-0.246-1.093-0.683s-0.273-0.897-0.273-1.367v-11.479h3.279v-1.913h-3.279v-4.51h-2.324zm-163.58 0.956h3.689c1.258 0 2.22 0.279 3.007 0.957 0.781 0.667 1.23 1.59 1.23 2.733 0 0.585-0.164 1.142-0.41 1.64-0.246 0.492-0.552 1.011-0.957 1.366-0.404 0.361-0.852 0.618-1.366 0.82s-1.077 0.274-1.64 0.274h-3.553v-7.79zm20.361 3.143c-0.585 0-1.202 0.137-1.776 0.274-0.574 0.136-1.033 0.234-1.503 0.409-0.471 0.18-0.891 0.389-1.23 0.547l-0.684 0.273 0.684 1.913 0.683-0.409c0.323-0.175 0.689-0.378 1.093-0.547 0.405-0.17 0.782-0.273 1.23-0.41 0.454-0.136 0.875-0.273 1.23-0.273 1.213 0 2.143 0.47 2.733 1.23 0.596 0.749 0.82 1.634 0.82 2.733v1.093l-3.28 0.82c-0.656 0.137-1.295 0.372-2.05 0.683-0.748 0.317-1.41 0.645-2.049 1.094-0.64 0.448-1.23 1.033-1.64 1.64-0.421 0.606-0.684 1.191-0.684 1.913 0 1.503 0.553 2.722 1.504 3.553 0.956 0.831 2.208 1.23 3.689 1.23 0.629 0 1.225-0.175 1.777-0.41s0.94-0.503 1.366-0.82c0.427-0.306 0.837-0.64 1.094-0.957l0.409-0.683v2.46h2.187v-11.752c0-1.843-0.481-3.144-1.503-4.1-1.022-0.951-2.389-1.503-4.1-1.503v-1e-3zm33.618 0c-1.034 0-1.963 0.263-2.734 0.82-0.776 0.563-1.525 1.345-2.049 2.187-0.525 0.841-0.826 1.738-1.094 2.733-0.267 0.989-0.409 1.902-0.409 2.733 0 1.055 0.071 2.05 0.273 3.143 0.202 1.088 0.59 2.099 1.093 3.006 0.503 0.913 1.197 1.75 2.05 2.324 0.853 0.568 1.951 0.819 3.28 0.819 0.628 0 1.202-0.039 1.776-0.136 0.574-0.104 1.044-0.273 1.504-0.41 0.459-0.131 0.901-0.279 1.229-0.409l0.684-0.274-0.684-1.913-0.82 0.41c-0.295 0.153-0.563 0.278-0.956 0.41-0.394 0.142-0.771 0.164-1.23 0.273-0.459 0.098-1.028 0.136-1.503 0.136-0.787 0-1.356-0.109-1.913-0.546-0.563-0.438-1.148-1.11-1.504-1.777-0.36-0.656-0.513-1.284-0.683-2.05-0.169-0.76-0.273-1.514-0.273-2.186h10.112v-0.82c0-0.902-0.196-1.881-0.409-2.87s-0.471-1.897-0.957-2.733c-0.481-0.831-1.126-1.509-1.913-2.05-0.787-0.536-1.728-0.82-2.87-0.82zm17.765 0c-0.585 0-1.126 0.159-1.64 0.41-0.514 0.246-1.099 0.514-1.503 0.82-0.399 0.317-0.705 0.65-0.957 0.956l-0.41 0.547v-2.323h-2.186v16.945h2.323v-12.162l0.41-0.957 0.82-0.956c0.371-0.35 0.88-0.711 1.366-0.957 0.481-0.24 0.984-0.41 1.504-0.41 0.541 0 0.951 0.17 1.366 0.41 0.416 0.246 0.825 0.563 1.093 0.957 0.274 0.393 0.4 0.885 0.547 1.366 0.147 0.487 0.273 0.919 0.273 1.367v11.342h2.323v-11.615c0-0.7-0.191-1.367-0.409-2.05-0.224-0.689-0.514-1.378-0.957-1.913-0.432-0.542-0.968-0.902-1.64-1.23-0.678-0.323-1.432-0.547-2.323-0.547zm73.384 0c-0.585 0-1.181 0.153-1.64 0.41-0.459 0.24-0.891 0.497-1.23 0.82l-0.683 0.956-0.41 0.547v-2.323h-2.186v16.945h2.323v-12.162l0.273-0.683 0.82-1.094c0.312-0.339 0.694-0.557 1.093-0.82 0.41-0.251 0.782-0.409 1.23-0.409l0.683 0.136 0.684 0.273 0.683-2.049-0.683-0.41-0.957-0.137zm34.027 0c-1.027 0-1.957 0.263-2.733 0.82-0.776 0.563-1.383 1.345-1.913 2.187-0.525 0.841-0.962 1.738-1.23 2.733-0.273 0.989-0.41 1.902-0.41 2.733 0 1.055 0.208 2.05 0.41 3.143 0.208 1.088 0.454 2.099 0.957 3.006 0.503 0.913 1.197 1.75 2.049 2.324 0.853 0.568 1.952 0.819 3.28 0.819 0.629 0 1.203-0.039 1.777-0.136 0.574-0.104 1.175-0.273 1.64-0.41 0.453-0.131 0.77-0.279 1.093-0.409l0.683-0.274-0.683-1.913-0.683 0.41c-0.296 0.153-0.7 0.278-1.094 0.41-0.388 0.142-0.77 0.164-1.23 0.273-0.459 0.098-0.891 0.136-1.366 0.136-0.782 0-1.487-0.109-2.05-0.546-0.563-0.438-1-1.11-1.367-1.777-0.36-0.656-0.65-1.284-0.819-2.05-0.17-0.76-0.274-1.514-0.274-2.186h10.113v-0.82c0-0.902-0.066-1.881-0.274-2.87-0.218-0.989-0.606-1.897-1.093-2.733-0.481-0.831-1.126-1.509-1.913-2.05-0.787-0.536-1.722-0.82-2.87-0.82zm17.355 0c-0.628 0-1.136 0.159-1.639 0.41-0.509 0.246-1.017 0.497-1.367 0.82l-0.82 0.956-0.41 0.547v-2.323h-2.186v16.945h2.323v-12.162l0.41-0.957 0.683-0.956c0.345-0.35 0.776-0.711 1.23-0.957 0.459-0.24 0.962-0.41 1.503-0.41 0.607 0 1.11 0.175 1.503 0.41 0.394 0.235 0.716 0.574 0.957 0.957 0.235 0.382 0.448 0.743 0.547 1.23 0.098 0.481 0.136 1.005 0.136 1.503v11.342h2.323v-12.435l0.274-0.957 0.819-0.957c0.328-0.3 0.766-0.47 1.23-0.683 0.46-0.213 0.919-0.41 1.504-0.41 0.563 0 1.098 0.175 1.503 0.41 0.404 0.235 0.716 0.574 0.956 0.957 0.23 0.382 0.427 0.743 0.547 1.23 0.104 0.481 0.136 1.005 0.136 1.503v11.342h2.324v-11.615c0-0.7-0.105-1.367-0.274-2.05-0.164-0.689-0.42-1.378-0.82-1.913-0.404-0.542-0.978-0.902-1.64-1.23-0.661-0.323-1.492-0.547-2.459-0.547-0.673 0-1.23 0.158-1.777 0.41-0.552 0.246-1.104 0.514-1.503 0.82-0.394 0.317-0.585 0.65-0.82 0.956l-0.547 0.547-0.409-0.683-0.82-0.957c-0.356-0.301-0.815-0.459-1.367-0.683-0.552-0.225-1.219-0.41-2.05-0.41zm42.774 0c-1.033 0-1.963 0.263-2.733 0.82-0.777 0.563-1.383 1.345-1.914 2.187-0.524 0.841-0.967 1.738-1.229 2.733-0.279 0.989-0.41 1.902-0.41 2.733 0 1.055 0.202 2.05 0.41 3.143 0.202 1.088 0.453 2.099 0.956 3.006 0.508 0.913 1.197 1.75 2.05 2.324 0.853 0.568 1.946 0.819 3.28 0.819 0.623 0 1.197-0.039 1.776-0.136 0.569-0.104 1.181-0.273 1.64-0.41 0.465-0.131 0.765-0.279 1.093-0.409l0.684-0.274-0.684-1.913-0.683 0.41c-0.295 0.153-0.568 0.278-0.957 0.41-0.393 0.142-0.907 0.164-1.366 0.273-0.454 0.098-0.897 0.136-1.367 0.136-0.781 0-1.492-0.109-2.049-0.546-0.569-0.438-1.001-1.11-1.367-1.777-0.356-0.656-0.651-1.284-0.82-2.05-0.169-0.76-0.273-1.514-0.273-2.186h10.112v-0.82c0-0.902-0.054-1.881-0.273-2.87-0.213-0.989-0.612-1.897-1.093-2.733-0.481-0.831-0.99-1.509-1.777-2.05-0.782-0.536-1.864-0.82-3.006-0.82zm17.082 0c-0.585 0-1.181 0.153-1.64 0.41-0.465 0.24-0.76 0.497-1.093 0.82l-0.82 0.956-0.41 0.547v-2.323h-2.187v16.945h2.324v-12.162l0.409-0.683 0.684-1.094c0.311-0.339 0.688-0.557 1.093-0.82 0.404-0.251 0.782-0.409 1.23-0.409l0.82 0.136 0.546 0.273 0.684-2.049-0.684-0.41-0.956-0.137zm10.112 0c-0.803 0-1.481 0.213-2.186 0.547-0.705 0.339-1.383 0.814-1.913 1.366-0.525 0.558-0.924 1.083-1.23 1.777-0.306 0.7-0.41 1.465-0.41 2.186 0 0.968 0.026 1.777 0.273 2.46 0.246 0.689 0.591 1.312 0.957 1.777 0.372 0.459 0.825 0.699 1.23 0.956 0.404 0.257 0.776 0.569 1.093 0.684l-0.683 0.136-0.82 0.547-0.547 0.683-0.273 0.82c0 0.404 0.087 0.798 0.273 1.093l0.683 0.683 0.684 0.41 0.683 0.137c-0.312 0.021-0.738 0.218-1.23 0.409-0.497 0.186-0.896 0.35-1.367 0.684-0.47 0.339-0.885 0.858-1.229 1.366-0.35 0.503-0.547 0.99-0.547 1.64 0 0.672 0.076 1.345 0.41 1.913 0.339 0.574 0.929 1.083 1.503 1.503 0.59 0.416 1.23 0.717 2.05 0.957 0.825 0.246 1.656 0.41 2.596 0.41 1.061 0 2.001-0.11 2.87-0.41 0.858-0.301 1.7-0.738 2.323-1.23 0.618-0.492 1.022-1.055 1.367-1.64 0.333-0.585 0.546-1.191 0.546-1.776 0-0.766-0.164-1.46-0.546-2.05-0.383-0.596-0.99-1.088-1.64-1.503-0.656-0.416-1.334-0.738-2.187-0.957-0.852-0.208-1.809-0.273-2.733-0.273-0.716 0-1.312-0.23-1.776-0.547-0.454-0.317-0.684-0.601-0.684-1.093l0.274-0.683 0.683-0.41 0.82-0.41 0.683-0.136c0.831 0 1.607-0.088 2.323-0.41 0.716-0.328 1.405-0.804 1.914-1.367 0.524-0.563 0.94-1.295 1.229-2.049 0.29-0.755 0.41-1.465 0.41-2.324 0-0.47-0.022-0.951-0.136-1.366-0.11-0.421-0.263-0.765-0.41-1.093l-0.41-0.82-0.409-0.547h2.733v-1.64h-4.783c-0.202-0.071-0.498-0.175-0.957-0.273-0.465-0.109-0.984-0.137-1.503-0.137h-1e-3zm-144.86 0.41v11.616c0 0.743 0.071 1.492 0.273 2.186 0.203 0.7 0.531 1.252 0.957 1.777 0.426 0.53 0.984 0.902 1.64 1.23 0.667 0.328 1.394 0.546 2.323 0.546 0.601 0 1.137-0.164 1.64-0.41s0.984-0.502 1.367-0.819c0.382-0.312 0.716-0.64 0.956-0.957l0.41-0.683v2.459h2.186v-16.945h-2.323v12.163l-0.273 0.819-0.957 1.094c-0.355 0.361-0.759 0.678-1.229 0.956-0.47 0.285-0.968 0.41-1.504 0.41-0.584 0-1.098-0.175-1.503-0.41-0.404-0.235-0.705-0.448-0.956-0.82-0.246-0.371-0.427-0.885-0.547-1.366-0.126-0.487-0.136-0.99-0.136-1.503v-11.343h-2.324zm-67.644 1.367c0.694 0 1.279 0.262 1.776 0.683 0.492 0.415 0.924 0.924 1.23 1.503 0.301 0.585 0.536 1.241 0.683 1.913 0.142 0.673 0.137 1.285 0.137 1.777h-7.79c0-0.558 0.104-1.247 0.274-1.913 0.169-0.656 0.366-1.192 0.683-1.777 0.312-0.59 0.732-1.11 1.23-1.503 0.492-0.394 1.126-0.683 1.776-0.683h1e-3zm125.18 0c0.694 0 1.285 0.262 1.777 0.683 0.497 0.415 0.924 0.924 1.23 1.503 0.301 0.585 0.535 1.241 0.683 1.913 0.142 0.673 0.273 1.285 0.273 1.777h-7.789c0-0.558 0.109-1.247 0.273-1.913 0.169-0.656 0.372-1.192 0.683-1.777 0.317-0.59 0.733-1.11 1.23-1.503 0.492-0.394 0.984-0.683 1.64-0.683zm60.265 0c0.7 0 1.279 0.262 1.777 0.683 0.497 0.415 0.787 0.924 1.093 1.503 0.301 0.585 0.536 1.241 0.683 1.913 0.148 0.673 0.274 1.285 0.274 1.777h-7.79c0-0.558 0.11-1.247 0.274-1.913 0.169-0.656 0.371-1.192 0.683-1.777 0.317-0.59 0.732-1.11 1.23-1.503 0.492-0.394 1.126-0.683 1.776-0.683zm27.058 0c1.083 0 1.984 0.344 2.597 1.093 0.623 0.754 0.956 1.771 0.956 3.006 0 0.514-0.153 0.973-0.273 1.503-0.126 0.525-0.273 1.072-0.547 1.504-0.284 0.42-0.656 0.82-1.093 1.093-0.437 0.284-1.011 0.41-1.64 0.41-0.645 0-1.197-0.175-1.64-0.41-0.437-0.235-0.683-0.552-0.956-0.957-0.268-0.404-0.563-0.814-0.684-1.366-0.125-0.547-0.136-1.17-0.136-1.777 0-0.541 0.115-1.011 0.273-1.503 0.153-0.497 0.389-0.984 0.684-1.367 0.295-0.382 0.661-0.732 1.093-0.956 0.437-0.224 0.831-0.273 1.366-0.273zm-229.17 0.136c0.541 0 1.049 0.125 1.503 0.41 0.448 0.295 0.76 0.71 1.093 1.093 0.339 0.383 0.618 0.716 0.82 1.093l0.41 0.82v7.243l-0.41 0.82-0.82 1.093c-0.339 0.361-0.765 0.689-1.23 0.957-0.459 0.273-0.869 0.409-1.366 0.409-0.788 0-1.509-0.213-2.05-0.683-0.536-0.47-0.891-1.055-1.23-1.776-0.334-0.716-0.678-1.586-0.82-2.46-0.147-0.875-0.137-1.673-0.137-2.46 0-0.902 0.072-1.809 0.274-2.596 0.202-0.793 0.453-1.46 0.82-2.05 0.371-0.602 0.847-1.033 1.366-1.367 0.514-0.344 1.126-0.546 1.777-0.546zm185.58 0c0.738 0 1.388 0.295 1.913 0.683 0.525 0.394 1.022 0.869 1.367 1.503 0.35 0.624 0.514 1.274 0.683 2.05 0.169 0.771 0.273 1.586 0.273 2.323 0 0.788-0.049 1.586-0.273 2.46-0.219 0.875-0.667 1.749-1.093 2.46-0.427 0.727-0.891 1.306-1.503 1.777-0.624 0.475-1.258 0.683-2.05 0.683l-0.82-0.137h-0.957l-0.82-0.136-0.546-0.136v-10.25l0.409-0.82 0.82-1.093c0.361-0.344 0.798-0.683 1.23-0.956 0.443-0.268 0.919-0.41 1.367-0.41v-1e-3zm-140.76 4.1v2.186h7.106v-2.186h-7.106zm-82.13 0.546h3.689c1.416 0 2.526 0.339 3.417 1.094 0.885 0.748 1.366 1.842 1.366 3.143 0 0.672-0.164 1.213-0.41 1.776-0.245 0.563-0.65 1.104-1.093 1.503-0.437 0.405-0.918 0.733-1.503 0.957s-1.126 0.273-1.776 0.273h-3.69v-8.746zm23.641 2.05v4.1l-0.547 1.093c-0.267 0.377-0.563 0.629-0.956 0.957-0.394 0.322-0.886 0.606-1.367 0.82-0.486 0.212-0.984 0.409-1.503 0.409-0.831 0-1.476-0.279-2.05-0.82-0.574-0.535-0.82-1.377-0.82-2.323 0-0.475 0.121-0.831 0.41-1.23 0.295-0.404 0.656-0.781 1.093-1.093 0.443-0.317 0.962-0.59 1.503-0.82 0.536-0.219 1.034-0.431 1.504-0.546l2.733-0.547zm242.84 8.473c1.35 0 2.531 0.251 3.417 0.82 0.891 0.574 1.366 1.306 1.366 2.186 0 0.399-0.175 0.842-0.41 1.23-0.24 0.394-0.535 0.793-0.956 1.093-0.432 0.306-0.94 0.487-1.503 0.684-0.558 0.185-1.236 0.273-1.914 0.273-0.645 0-1.229-0.093-1.776-0.273-0.536-0.175-0.984-0.383-1.367-0.684-0.377-0.306-0.606-0.699-0.82-1.093-0.207-0.388-0.409-0.809-0.409-1.23 0-0.431 0.164-0.863 0.409-1.23 0.246-0.371 0.553-0.688 0.957-0.956 0.399-0.268 0.842-0.389 1.367-0.547 0.53-0.158 1.082-0.273 1.639-0.273z" fill="#5d6971" fill-rule="nonzero"/>
        </g>
        <g transform="matrix(.92707 0 0 .92707 -120.83 -364.81)">
            <path d="m362.65 441.19c-0.973 0-1.744 0.191-2.323 0.82-0.574 0.612-0.82 1.482-0.82 2.46v81.993c0 0.973 0.246 1.7 0.82 2.324 0.569 0.612 1.35 0.956 2.323 0.956h22.275c6.111 0 11.572-1.109 16.535-3.416 4.975-2.296 9.26-5.587 12.709-9.703 3.455-4.121 6.155-8.953 8.063-14.622 1.902-5.663 2.733-11.807 2.733-18.448 0-6.369-0.913-12.185-2.87-17.356-1.946-5.182-4.695-9.669-8.199-13.392-3.493-3.722-7.74-6.576-12.709-8.609-4.958-2.039-10.375-3.007-16.399-3.007h-22.138zm80.627 0c-0.967 0-1.744 0.191-2.323 0.82-0.569 0.612-0.957 1.482-0.957 2.46v81.993c0 0.973 0.389 1.7 0.957 2.324 0.579 0.612 1.356 0.956 2.323 0.956h9.156c0.968 0 1.716-0.339 2.323-0.956 0.618-0.618 0.957-1.351 0.957-2.324v-36.487h30.611v36.487c0 0.973 0.388 1.706 0.956 2.324 0.569 0.617 1.214 0.956 2.187 0.956h9.156c0.978 0 1.842-0.344 2.459-0.956 0.618-0.624 0.957-1.351 0.957-2.324v-81.993c0-0.978-0.339-1.848-0.957-2.46-0.617-0.628-1.481-0.82-2.459-0.82h-9.156c-0.973 0-1.618 0.191-2.187 0.82-0.568 0.612-0.956 1.482-0.956 2.46v32.524h-30.611v-32.524c0-0.978-0.339-1.848-0.957-2.46-0.607-0.628-1.355-0.82-2.323-0.82h-9.156zm-68.191 12.299h9.976c3.728 0 7.046 0.777 9.976 2.323 2.924 1.558 5.439 3.63 7.516 6.287 2.082 2.656 3.711 5.887 4.783 9.566 1.06 3.678 1.503 7.636 1.503 11.889 0 4.963-0.481 9.396-1.64 13.529-1.153 4.11-2.886 7.778-5.056 10.795-2.176 3.012-4.772 5.286-7.79 6.97-3.022 1.683-6.395 2.596-10.112 2.596h-9.156v-63.955z" fill="#e2001a" fill-rule="nonzero"/>
        </g>
    </g>
</svg>
