<svg width="100%" height="100%" viewBox="0 0 500 500" version="1.1" xmlns="http://www.w3.org/2000/svg" xmlns:xlink="http://www.w3.org/1999/xlink" xml:space="preserve" xmlns:serif="http://www.serif.com/" style="fill-rule:evenodd;clip-rule:evenodd;stroke-linejoin:round;stroke-miterlimit:2;">
    <g transform="matrix(1,0,0,1,2.84217e-14,145.115)">
        <g id="path84" transform="matrix(0.927071,0,0,0.927071,-120.828,-364.814)">
            <path d="M271.089,441.054L271.089,477.951C271.089,479.787 269.509,482.816 267.673,484.647L230.092,522.227C229.174,523.145 228.234,523.594 227.632,523.594C227.031,523.594 226.676,523.145 226.676,522.227L226.676,526.327C226.676,528.163 228.256,529.743 230.092,529.743L311.949,529.743C313.786,529.743 315.365,528.163 315.365,526.327L315.365,444.333C315.365,442.497 313.786,441.054 311.949,441.054L271.089,441.054ZM219.023,526.327C219.023,528.163 217.438,529.743 215.607,529.743L174.747,529.743L174.747,574.293C174.747,575.211 175.107,575.66 175.703,575.66C176.299,575.66 177.108,575.211 178.026,574.293L215.607,536.713C217.438,534.876 219.023,531.853 219.023,530.017L219.023,526.327Z" style="fill:rgb(125,137,144);fill-rule:nonzero;"/>
        </g>
        <g id="path88" transform="matrix(0.927071,0,0,0.927071,-120.828,-364.814)">
            <path d="M270.132,394.591C269.528,394.591 268.591,395.039 267.673,395.957L230.092,433.674C228.261,435.505 226.676,438.397 226.676,440.234L226.676,522.227C226.676,524.064 228.261,524.064 230.092,522.227L267.673,484.647C269.509,482.81 271.089,479.787 271.089,477.951L271.089,395.957C271.089,395.039 270.736,394.591 270.132,394.591ZM133.75,441.054C131.913,441.054 130.334,442.497 130.334,444.333L130.334,526.327C130.334,528.163 131.913,529.743 133.75,529.743L215.607,529.743C217.443,529.743 219.023,528.163 219.023,526.327L219.023,444.333C219.023,442.497 217.443,441.054 215.607,441.054L133.75,441.054Z" style="fill:rgb(226,0,26);fill-rule:nonzero;"/>
        </g>
        <g id="path100" transform="matrix(0.927071,0,0,0.927071,-120.828,-364.814)">
            <path d="M230.092,441.054C228.256,441.054 226.676,442.633 226.676,444.47L226.676,522.227C226.676,523.145 227.031,523.594 227.632,523.594C228.234,523.594 229.174,523.145 230.092,522.227L267.673,484.647C269.509,482.81 271.089,479.782 271.089,477.951L271.089,441.054L230.092,441.054ZM218.066,446.657C217.46,446.657 216.525,447.11 215.607,448.023L178.026,485.74C176.195,487.61 174.747,490.468 174.747,492.3L174.747,529.743L215.607,529.743C217.443,529.743 219.023,528.163 219.023,526.327L219.023,448.023C219.023,447.11 218.668,446.657 218.066,446.657Z" style="fill:rgb(142,16,22);fill-rule:nonzero;"/>
        </g>
        <g id="path238" transform="matrix(0.927071,0,0,0.927071,-120.828,-364.814)">
            <path d="M523.082,441.19C522.453,441.19 521.879,441.338 521.442,441.737C520.994,442.141 520.759,442.617 520.759,443.24L520.759,527.42C520.759,528.038 520.994,528.612 521.442,529.06C521.879,529.486 522.453,529.743 523.082,529.743L543.307,529.743C547.456,529.743 551.479,529.115 555.196,527.967C558.913,526.802 562.111,525.201 564.899,523.047C567.692,520.866 569.867,518.177 571.458,514.984C573.049,511.798 573.918,508.168 573.918,504.189C573.918,501.439 573.442,498.832 572.415,496.399C571.398,493.961 570.037,491.829 568.315,489.976C566.582,488.112 564.56,486.664 562.302,485.467C560.05,484.27 557.661,483.45 555.196,483.007C556.967,482.477 558.749,481.608 560.662,480.411C562.57,479.219 564.396,477.765 565.992,476.038C567.588,474.31 568.894,472.326 569.955,470.161C571.021,467.991 571.595,465.712 571.595,463.329C571.595,459.519 570.879,456.266 569.408,453.489C567.938,450.696 565.981,448.335 563.532,446.52C561.094,444.711 558.29,443.306 555.059,442.42C551.823,441.54 548.413,441.19 544.947,441.19L523.082,441.19ZM584.44,441.19C583.823,441.19 583.342,441.343 582.937,441.737C582.549,442.136 582.484,442.622 582.664,443.24L599.609,527.42C599.789,528.027 600.216,528.612 600.702,529.06C601.189,529.492 601.73,529.743 602.342,529.743L609.038,529.743C609.662,529.743 610.192,529.492 610.678,529.06C611.154,528.612 611.455,528.027 611.635,527.42L626.12,453.216L640.743,527.42C640.918,528.027 641.213,528.612 641.699,529.06C642.186,529.492 642.727,529.743 643.339,529.743L650.035,529.743C650.664,529.743 651.227,529.492 651.675,529.06C652.123,528.612 652.451,528.027 652.632,527.42L669.577,443.24C669.763,442.622 669.653,442.136 669.304,441.737C668.937,441.343 668.549,441.19 667.937,441.19L662.608,441.19C661.279,441.19 660.361,441.824 660.011,443.24L646.892,517.581L632.27,443.24C631.914,441.824 631.155,441.19 629.81,441.19L623.114,441.19C621.704,441.19 620.862,441.824 620.518,443.24L606.032,517.581L592.776,443.24C592.416,441.824 591.454,441.19 590.043,441.19L584.44,441.19ZM530.461,448.98L544.947,448.98C549.921,448.98 553.994,450.292 557.109,452.943C560.209,455.594 561.756,459.223 561.756,463.739C561.756,466.04 561.22,468.084 560.252,470.025C559.268,471.971 558.028,473.676 556.426,475.081C554.835,476.502 552.993,477.563 550.96,478.361C548.915,479.164 546.745,479.591 544.537,479.591L530.461,479.591L530.461,448.98ZM530.461,487.243L544.947,487.243C550.539,487.243 555.098,488.785 558.613,491.753C562.105,494.716 563.805,498.64 563.805,503.779C563.805,506.441 563.423,508.939 562.439,511.158C561.46,513.366 560.072,515.307 558.339,516.898C556.612,518.494 554.633,519.702 552.326,520.587C550.02,521.484 547.516,521.954 544.947,521.954L530.461,521.954L530.461,487.243ZM412.938,549.968L412.938,570.193C412.938,570.734 412.968,571.336 413.074,571.833C413.172,572.331 413.364,572.686 413.621,573.063C413.877,573.429 414.287,573.801 414.714,574.02C415.14,574.244 415.681,574.293 416.354,574.293C416.693,574.293 417.042,574.271 417.447,574.157C417.851,574.047 418.108,573.856 418.267,573.747L417.584,571.834L417.037,572.243L416.49,572.38C416.064,572.38 415.709,572.117 415.534,571.697C415.354,571.265 415.26,570.756 415.26,570.057L415.26,549.968L412.937,549.968L412.938,549.968ZM500.807,549.968L500.807,573.883L503.13,573.883L503.13,561.721L503.54,560.901L504.36,559.807C504.726,559.463 505.246,559.102 505.727,558.851C506.208,558.589 506.694,558.441 507.23,558.441C507.771,558.441 508.181,558.605 508.596,558.851C509.012,559.097 509.422,559.414 509.69,559.807C509.963,560.196 510.089,560.693 510.236,561.174C510.384,561.661 510.509,562.087 510.509,562.541L510.509,573.883L512.833,573.883L512.833,562.267C512.833,561.573 512.783,560.901 512.559,560.217C512.335,559.529 511.903,558.851 511.466,558.304C511.034,557.769 510.499,557.397 509.826,557.074C509.154,556.746 508.4,556.528 507.503,556.528C506.918,556.528 506.366,556.703 505.863,556.937C505.36,557.178 504.885,557.44 504.497,557.757C504.103,558.069 503.775,558.413 503.54,558.714L503.13,559.397L503.13,549.968L500.807,549.968ZM547.543,549.968L547.543,573.883L549.867,573.883L549.867,561.721L550.276,560.901L551.096,559.807C551.468,559.463 551.84,559.102 552.326,558.851C552.807,558.589 553.43,558.441 553.966,558.441C554.507,558.441 554.912,558.605 555.333,558.851C555.748,559.097 556.158,559.414 556.426,559.807C556.693,560.196 556.825,560.693 556.972,561.174C557.115,561.661 557.246,562.087 557.246,562.541L557.246,573.883L559.569,573.883L559.569,562.267C559.569,561.573 559.389,560.901 559.159,560.217C558.94,559.529 558.645,558.851 558.203,558.304C557.765,557.769 557.235,557.397 556.563,557.074C555.89,556.746 555.147,556.528 554.24,556.528C553.66,556.528 553.103,556.703 552.6,556.937C552.097,557.178 551.621,557.44 551.233,557.757C550.84,558.069 550.512,558.413 550.277,558.714L549.867,559.397L549.867,549.968L547.544,549.968L547.543,549.968ZM582.801,549.968L582.801,570.193C582.801,570.734 582.827,571.336 582.937,571.833C583.03,572.331 583.221,572.686 583.484,573.063C583.74,573.429 584.014,573.801 584.44,574.02C584.867,574.244 585.408,574.293 586.08,574.293C586.414,574.293 586.9,574.271 587.31,574.157C587.709,574.047 587.977,573.856 588.13,573.747L587.447,571.834L586.9,572.243L586.217,572.38C585.796,572.38 585.572,572.117 585.397,571.697C585.211,571.265 585.124,570.756 585.124,570.057L585.124,549.968L582.801,549.968ZM359.642,551.471L359.642,573.883L364.971,573.883C366.365,573.883 367.606,573.538 368.798,572.926C369.989,572.325 371.077,571.516 371.941,570.467C372.804,569.412 373.493,568.209 373.991,566.777C374.483,565.35 374.674,563.771 374.674,562.131C374.674,560.447 374.368,558.949 373.854,557.621C373.335,556.293 372.722,555.265 371.804,554.341C370.886,553.423 369.771,552.647 368.524,552.155C367.278,551.663 365.862,551.471 364.425,551.471L359.642,551.471ZM448.468,551.471L448.468,573.883L450.928,573.883L450.928,563.224L460.084,563.224L460.084,573.883L462.544,573.883L462.544,551.471L460.084,551.471L460.084,561.174L450.928,561.174L450.928,551.471L448.468,551.471ZM362.102,553.385L364.835,553.385C365.802,553.385 366.677,553.663 367.568,554.068C368.453,554.472 369.219,554.948 369.891,555.708C370.563,556.457 371.126,557.359 371.531,558.441C371.935,559.523 372.214,560.759 372.214,562.131C372.214,563.503 372.039,564.776 371.667,565.957C371.301,567.138 370.678,568.225 370.028,569.1C369.377,569.98 368.595,570.642 367.704,571.15C366.819,571.653 365.983,571.97 364.971,571.97L362.102,571.97L362.102,553.385ZM401.458,556.528C400.868,556.528 400.256,556.67 399.682,556.801C399.108,556.937 398.518,557.036 398.042,557.211C397.572,557.397 397.288,557.599 396.949,557.757L396.266,558.031L396.949,559.944L397.632,559.534C397.955,559.364 398.321,559.294 398.725,559.124C399.13,558.96 399.507,558.715 399.955,558.578C400.409,558.447 400.83,558.441 401.185,558.441C402.399,558.441 403.322,558.78 403.918,559.535C404.509,560.283 404.738,561.169 404.738,562.268L404.738,563.361L401.458,564.181C400.802,564.306 400.163,564.547 399.409,564.864C398.66,565.176 397.867,565.498 397.222,565.957C396.583,566.4 396.129,566.991 395.719,567.597C395.298,568.204 395.036,568.794 395.036,569.51C395.036,571.019 395.588,572.227 396.539,573.064C397.495,573.894 398.747,574.293 400.229,574.293C400.857,574.293 401.316,574.254 401.868,574.02C402.42,573.785 402.945,573.375 403.372,573.064C403.798,572.746 404.208,572.555 404.465,572.244L404.875,571.56L404.875,573.883L407.061,573.883L407.061,562.268C407.061,560.431 406.58,558.983 405.558,558.031C404.536,557.075 403.164,556.528 401.458,556.528L401.458,556.528ZM427.423,556.528C426.39,556.528 425.466,556.927 424.69,557.484C423.914,558.053 423.307,558.692 422.777,559.534C422.252,560.376 421.815,561.283 421.547,562.267C421.274,563.257 421.137,564.175 421.137,565C421.137,566.055 421.208,567.187 421.41,568.28C421.612,569.368 422.001,570.374 422.504,571.287C423.012,572.194 423.701,572.905 424.553,573.473C425.406,574.052 426.505,574.293 427.833,574.293C428.462,574.293 429.036,574.258 429.61,574.157C430.184,574.058 430.79,573.878 431.25,573.747C431.709,573.61 432.02,573.473 432.343,573.337L433.026,573.064L432.343,571.151L431.659,571.56C431.364,571.708 430.954,571.834 430.566,571.97C430.173,572.101 429.801,572.145 429.336,572.243C428.877,572.347 428.44,572.517 427.97,572.517C427.183,572.517 426.483,572.27 425.92,571.833C425.357,571.396 424.914,570.855 424.553,570.194C424.192,569.527 423.903,568.772 423.733,568.007C423.564,567.247 423.46,566.493 423.46,565.821L433.573,565.821L433.573,565.001C433.573,564.11 433.512,563.12 433.299,562.131C433.081,561.141 432.687,560.234 432.206,559.398C431.719,558.572 431.074,557.889 430.293,557.348C429.5,556.812 428.571,556.528 427.423,556.528L427.423,556.528ZM474.569,556.528C473.383,556.528 472.41,556.889 471.563,557.484C470.721,558.08 470.049,558.807 469.513,559.671C468.972,560.54 468.524,561.436 468.283,562.404C468.032,563.371 467.873,564.241 467.873,565C467.873,565.946 468.07,566.914 468.283,568.007C468.496,569.095 468.873,570.095 469.376,571.013C469.885,571.932 470.563,572.719 471.426,573.336C472.295,573.949 473.29,574.293 474.569,574.293C475.805,574.293 476.86,573.948 477.712,573.336C478.565,572.719 479.243,571.948 479.762,571.013C480.281,570.079 480.62,569.1 480.855,568.007C481.09,566.919 481.265,565.924 481.265,565C481.265,564.219 481.216,563.377 480.992,562.404C480.762,561.425 480.287,560.524 479.762,559.671C479.248,558.813 478.565,558.064 477.712,557.484C476.859,556.899 475.826,556.528 474.569,556.528L474.569,556.528ZM491.925,556.528C490.897,556.528 490.011,556.817 489.191,557.348C488.371,557.872 487.71,558.583 487.142,559.398C486.562,560.201 486.092,561.136 485.775,562.131C485.458,563.131 485.228,564.055 485.228,565C485.228,566.148 485.403,567.307 485.638,568.417C485.873,569.532 486.218,570.549 486.731,571.423C487.251,572.298 487.939,572.932 488.781,573.473C489.623,574.009 490.705,574.293 491.924,574.293C492.482,574.293 493.045,574.267 493.564,574.157C494.083,574.058 494.515,573.883 494.931,573.747C495.346,573.61 495.609,573.473 495.887,573.337L496.571,573.064L495.751,571.151L495.204,571.56L494.247,571.97C493.898,572.101 493.537,572.156 493.154,572.243C492.772,572.336 492.422,572.38 492.061,572.38C491.301,572.38 490.558,572.139 490.011,571.697C489.459,571.259 488.994,570.756 488.645,570.057C488.295,569.368 488.12,568.482 487.961,567.597C487.803,566.711 487.688,565.875 487.688,565C487.688,564.284 487.764,563.574 487.961,562.814C488.147,562.049 488.42,561.267 488.781,560.627C489.142,559.988 489.623,559.529 490.148,559.124C490.678,558.725 491.252,558.441 491.924,558.441L493.018,558.577L493.974,558.987L494.931,559.397L495.34,559.67L496.16,557.757L495.614,557.347L494.657,557.074C494.28,556.954 493.903,556.757 493.427,556.664C492.957,556.577 492.422,556.528 491.924,556.528L491.925,556.528ZM523.219,556.528C522.475,556.528 521.819,556.692 521.169,556.937C520.513,557.189 519.895,557.583 519.392,558.031C518.884,558.479 518.452,559.042 518.162,559.671C517.867,560.299 517.753,560.977 517.753,561.72C517.753,562.415 517.911,562.978 518.299,563.497C518.693,564.016 519.207,564.437 519.802,564.864C520.398,565.29 521.021,565.727 521.716,566.093C522.415,566.47 523.033,566.815 523.629,567.187C524.225,567.558 524.738,568.023 525.132,568.417C525.526,568.81 525.815,569.155 525.815,569.646C525.815,570.527 525.498,571.204 524.859,571.696C524.219,572.194 523.394,572.516 522.536,572.516C522.131,572.516 521.661,572.494 521.169,572.38C520.672,572.271 520.24,572.096 519.802,571.97C519.365,571.828 519.043,571.708 518.709,571.56L518.026,571.151L517.206,573.064L518.026,573.473C518.354,573.61 518.671,573.747 519.119,573.883C519.562,574.02 520.179,574.063 520.759,574.157C521.327,574.244 521.863,574.293 522.535,574.293C523.301,574.293 524.033,574.129 524.722,573.883C525.411,573.637 525.996,573.375 526.498,572.927C527.007,572.473 527.439,571.904 527.728,571.287C528.018,570.669 528.138,569.958 528.138,569.237C528.138,568.608 527.996,568.1 527.591,567.597C527.187,567.089 526.684,566.657 526.088,566.231C525.498,565.804 524.886,565.372 524.175,565.001C523.464,564.634 522.721,564.295 522.125,563.907C521.535,563.53 521.021,563.104 520.622,562.677C520.217,562.251 520.075,561.808 520.075,561.311C520.075,560.431 520.42,559.655 521.032,559.124C521.633,558.594 522.36,558.304 523.218,558.304L524.175,558.441L525.268,558.851L526.088,559.26L526.635,559.534L527.318,557.757L526.771,557.347C526.504,557.227 526.198,557.183 525.815,557.074C525.432,556.965 525.044,556.751 524.585,556.664C524.126,556.571 523.672,556.528 523.218,556.528L523.219,556.528ZM538.661,556.528C537.628,556.528 536.748,556.817 535.928,557.348C535.108,557.872 534.315,558.583 533.741,559.398C533.167,560.201 532.828,561.136 532.511,562.131C532.194,563.131 531.965,564.055 531.965,565C531.965,566.148 532.14,567.307 532.374,568.417C532.609,569.532 532.948,570.549 533.468,571.423C533.981,572.298 534.676,572.932 535.517,573.473C536.359,574.009 537.31,574.293 538.524,574.293C539.081,574.293 539.644,574.267 540.164,574.157C540.683,574.058 541.252,573.883 541.667,573.747C542.082,573.61 542.339,573.473 542.624,573.337L543.17,573.064L542.487,571.151L541.804,571.56L540.984,571.97C540.634,572.101 540.273,572.156 539.891,572.243C539.508,572.336 539.027,572.38 538.661,572.38C537.901,572.38 537.3,572.139 536.748,571.697C536.195,571.259 535.731,570.756 535.381,570.057C535.031,569.368 534.851,568.482 534.698,567.597C534.539,566.711 534.424,565.875 534.424,565C534.424,564.284 534.507,563.574 534.698,562.814C534.889,562.049 535.157,561.267 535.518,560.627C535.878,559.988 536.359,559.529 536.884,559.124C537.409,558.725 537.983,558.441 538.661,558.441L539.617,558.577L540.711,558.987L541.667,559.397L542.077,559.67L542.76,557.757L542.35,557.347L541.394,557.074C541.027,556.954 540.64,556.757 540.164,556.664C539.694,556.577 539.153,556.528 538.661,556.528ZM597.013,556.528C595.98,556.528 595.05,556.927 594.28,557.484C593.498,558.053 592.897,558.692 592.366,559.534C591.842,560.376 591.404,561.283 591.137,562.267C590.869,563.257 590.727,564.175 590.727,565C590.727,566.055 590.929,567.187 591.137,568.28C591.328,569.368 591.59,570.374 592.093,571.287C592.602,572.194 593.29,572.905 594.143,573.473C594.996,574.052 596.094,574.293 597.423,574.293C598.057,574.293 598.631,574.258 599.199,574.157C599.773,574.058 600.38,573.878 600.839,573.747C601.304,573.61 601.604,573.473 601.932,573.337L602.616,573.064L601.932,571.151L601.249,571.56C600.959,571.708 600.686,571.834 600.292,571.97C599.899,572.101 599.385,572.145 598.926,572.243C598.461,572.347 598.035,572.517 597.559,572.517C596.772,572.517 596.073,572.27 595.51,571.833C594.947,571.396 594.504,570.855 594.143,570.194C593.782,569.527 593.493,568.772 593.323,568.007C593.159,567.247 593.05,566.493 593.05,565.821L603.162,565.821L603.162,565.001C603.162,564.11 603.102,563.12 602.889,562.131C602.681,561.141 602.282,560.234 601.796,559.398C601.315,558.572 600.67,557.889 599.883,557.348C599.095,556.812 598.161,556.528 597.013,556.528L597.013,556.528ZM378.637,556.937L378.637,568.553C378.637,569.297 378.845,570.046 379.047,570.74C379.249,571.439 379.577,571.991 380.003,572.516C380.43,573.046 380.982,573.56 381.643,573.883C382.305,574.211 383.042,574.293 383.966,574.293C384.573,574.293 385.098,574.129 385.606,573.883C386.109,573.631 386.59,573.374 386.973,573.063C387.355,572.746 387.694,572.418 387.929,572.106L388.339,571.56L388.339,573.883L390.526,573.883L390.526,556.937L388.202,556.937L388.202,569.237L387.793,569.92L386.973,571.013C386.612,571.374 386.213,571.685 385.743,571.97C385.267,572.254 384.781,572.379 384.24,572.379C383.655,572.379 383.141,572.204 382.736,571.97C382.332,571.734 382.026,571.521 381.78,571.15C381.534,570.778 381.359,570.264 381.233,569.783C381.113,569.297 380.96,568.799 380.96,568.28L380.96,556.937L378.637,556.937ZM565.172,556.937L565.172,568.553C565.172,569.297 565.243,570.046 565.445,570.74C565.647,571.439 565.97,571.991 566.402,572.516C566.823,573.046 567.375,573.56 568.042,573.883C568.703,574.211 569.447,574.293 570.365,574.293C570.972,574.293 571.633,574.129 572.141,573.883C572.644,573.631 572.994,573.374 573.371,573.063C573.754,572.746 574.093,572.418 574.328,572.106L574.875,571.56L574.875,573.883L577.061,573.883L577.061,556.937L574.738,556.937L574.738,569.237L574.328,569.92L573.508,571.013C573.147,571.374 572.754,571.685 572.278,571.97C571.808,572.254 571.185,572.379 570.638,572.379C570.059,572.379 569.671,572.204 569.272,571.97C568.862,571.734 568.43,571.521 568.179,571.15C567.933,570.778 567.752,570.264 567.632,569.783C567.506,569.297 567.496,568.799 567.496,568.28L567.496,556.937L565.172,556.937ZM427.423,558.441C428.123,558.441 428.702,558.572 429.2,558.987C429.697,559.408 430.129,559.906 430.429,560.491C430.73,561.075 430.965,561.731 431.113,562.404C431.26,563.076 431.386,563.683 431.386,564.18L423.597,564.18C423.597,563.617 423.701,562.928 423.87,562.267C424.034,561.6 424.236,561.075 424.553,560.491C424.87,559.9 425.286,559.381 425.783,558.987C426.275,558.599 426.773,558.441 427.423,558.441ZM474.569,558.441C475.378,558.441 476.083,558.791 476.619,559.261C477.16,559.731 477.647,560.223 477.986,560.901C478.314,561.573 478.532,562.344 478.669,563.087C478.8,563.83 478.805,564.437 478.805,565C478.805,565.673 478.788,566.465 478.669,567.323C478.549,568.176 478.313,568.887 477.986,569.646C477.663,570.395 477.171,571.051 476.619,571.56C476.067,572.084 475.4,572.38 474.569,572.38C473.717,572.38 473.071,572.084 472.519,571.56C471.967,571.051 471.464,570.395 471.153,569.646C470.836,568.887 470.732,568.176 470.606,567.323C470.48,566.465 470.333,565.673 470.333,565C470.333,564.399 470.459,563.699 470.606,562.95C470.754,562.196 470.951,561.567 471.289,560.901C471.623,560.245 472.115,559.572 472.656,559.124C473.197,558.676 473.782,558.441 474.569,558.441ZM597.149,558.441C597.838,558.441 598.429,558.572 598.926,558.987C599.412,559.408 599.708,559.906 600.019,560.491C600.32,561.075 600.555,561.731 600.702,562.404C600.845,563.076 600.976,563.683 600.976,564.18L593.186,564.18C593.186,563.617 593.29,562.928 593.46,562.267C593.629,561.6 593.831,561.075 594.143,560.491C594.46,559.9 594.875,559.381 595.373,558.987C595.87,558.599 596.499,558.441 597.149,558.441ZM404.738,565.137L404.738,569.237L404.192,570.33C403.924,570.701 403.629,571.1 403.235,571.423C402.841,571.751 402.349,571.888 401.868,572.106C401.382,572.314 400.884,572.516 400.365,572.516C399.54,572.516 398.889,572.237 398.315,571.696C397.741,571.155 397.495,570.455 397.495,569.51C397.495,569.04 397.616,568.553 397.905,568.143C398.2,567.739 398.556,567.367 398.998,567.05C399.436,566.738 399.96,566.454 400.502,566.23C401.037,566 401.535,565.798 402.005,565.683L404.738,565.137L404.738,565.137ZM403.235,587.002L403.235,596.294L402.688,595.611L401.868,594.654C401.513,594.354 401.098,594.195 400.638,593.971C400.179,593.747 399.655,593.561 399.135,593.561C398.168,593.561 397.337,593.889 396.539,594.381C395.741,594.873 395.052,595.48 394.489,596.295C393.931,597.098 393.429,598.033 393.122,599.028C392.816,600.028 392.713,601.023 392.713,602.034C392.713,603.127 392.882,604.199 393.122,605.314C393.357,606.423 393.696,607.429 394.216,608.32C394.735,609.206 395.32,609.955 396.129,610.507C396.932,611.059 397.966,611.327 399.135,611.327C399.633,611.327 400.157,611.152 400.638,610.917C401.125,610.682 401.475,610.414 401.868,610.097C402.262,609.785 402.579,609.457 402.825,609.14L403.372,608.457L403.372,610.917L405.558,610.917L405.558,587.002L403.235,587.002L403.235,587.002ZM578.838,587.002L578.838,610.507C579.045,610.555 579.319,610.692 579.794,610.78C580.264,610.873 580.756,610.966 581.297,611.053C581.839,611.146 582.407,611.13 582.937,611.19C583.462,611.244 583.97,611.326 584.304,611.326C585.517,611.326 586.523,611.069 587.447,610.506C588.365,609.949 589.147,609.211 589.77,608.32C590.404,607.434 590.825,606.417 591.137,605.313C591.448,604.214 591.683,603.132 591.683,602.033C591.683,601.093 591.508,600.027 591.273,599.027C591.039,598.032 590.694,597.245 590.18,596.431C589.661,595.627 588.945,594.905 588.13,594.381C587.327,593.85 586.408,593.561 585.261,593.561C584.747,593.561 584.222,593.736 583.757,593.971C583.282,594.211 582.899,594.479 582.527,594.79L581.571,595.747L581.161,596.294L581.161,587.001L578.838,587.001L578.838,587.002ZM486.732,587.822C486.283,587.822 485.928,588.067 485.638,588.368C485.343,588.669 485.229,589.03 485.229,589.462C485.229,589.882 485.344,590.249 485.638,590.555C485.928,590.861 486.283,590.965 486.732,590.965C487.18,590.965 487.519,590.86 487.825,590.555C488.126,590.249 488.371,589.882 488.371,589.462C488.371,589.03 488.126,588.669 487.825,588.368C487.519,588.067 487.18,587.822 486.732,587.822ZM492.471,587.822C492.023,587.822 491.668,588.067 491.378,588.368C491.088,588.669 490.968,589.03 490.968,589.462C490.968,589.882 491.088,590.249 491.378,590.555C491.668,590.861 492.023,590.965 492.471,590.965C492.925,590.965 493.4,590.86 493.701,590.555C494.002,590.249 494.111,589.882 494.111,589.462C494.111,589.03 494.002,588.669 493.701,588.368C493.4,588.067 492.925,587.822 492.471,587.822ZM359.642,588.368L359.642,610.916L365.381,610.916C366.436,610.916 367.311,610.801 368.251,610.507C369.197,610.217 370.142,609.698 370.848,609.14C371.558,608.594 372.083,608.036 372.487,607.227C372.892,606.418 373.034,605.505 373.034,604.494C373.034,603.794 372.881,603.062 372.624,602.444C372.362,601.826 372.105,601.28 371.668,600.804C371.225,600.334 370.738,600.012 370.164,599.711C369.596,599.399 368.885,599.142 368.251,599.028C368.705,598.891 369.274,598.645 369.755,598.344C370.241,598.044 370.58,597.694 370.984,597.251C371.389,596.814 371.804,596.295 372.078,595.748C372.345,595.196 372.487,594.715 372.487,594.108C372.487,593.141 372.313,592.222 371.941,591.512C371.569,590.806 371.055,590.194 370.438,589.735C369.82,589.276 369.071,589.008 368.251,588.778C367.431,588.554 366.666,588.369 365.791,588.369L359.642,588.369L359.642,588.368ZM454.481,588.368L459.674,610.916L462.407,610.916L467.19,591.511L472.109,610.916L474.843,610.916L480.035,588.368L477.576,588.368L473.476,607.773L468.693,588.368L465.96,588.368L461.177,607.773L457.077,588.368L454.481,588.368ZM514.063,589.462L514.063,593.971L511.33,593.971L511.33,595.884L514.063,595.884L514.063,607.637C514.063,608.112 514.21,608.555 514.336,609.003C514.456,609.457 514.604,609.889 514.883,610.233C515.167,610.583 515.511,610.851 515.976,611.053C516.435,611.255 517.08,611.326 517.752,611.326L518.436,611.19L519.256,611.054L519.939,610.917L520.349,610.781L519.665,608.868C519.529,608.955 519.228,609.021 518.845,609.141C518.463,609.266 518.206,609.414 517.889,609.414C517.37,609.414 517.014,609.168 516.796,608.731C516.588,608.294 516.386,607.834 516.386,607.364L516.386,595.885L519.802,595.885L519.802,593.972L516.386,593.972L516.386,589.462L514.063,589.462L514.063,589.462ZM525.678,589.462L525.678,593.971L522.809,593.971L522.809,595.884L525.678,595.884L525.678,607.637C525.678,608.112 525.687,608.555 525.815,609.003C525.941,609.457 526.088,609.889 526.362,610.233C526.646,610.583 526.996,610.851 527.455,611.053C527.919,611.255 528.559,611.326 529.231,611.326L529.915,611.19L530.735,611.054L531.418,610.917L531.828,610.781L531.145,608.868C531.008,608.955 530.844,609.021 530.461,609.141C530.079,609.266 529.685,609.414 529.368,609.414C528.854,609.414 528.488,609.168 528.275,608.731C528.062,608.294 528.002,607.834 528.002,607.364L528.002,595.885L531.281,595.885L531.281,593.972L528.002,593.972L528.002,589.462L525.678,589.462L525.678,589.462ZM362.102,590.418L365.791,590.418C367.049,590.418 368.011,590.697 368.798,591.375C369.579,592.042 370.028,592.965 370.028,594.108C370.028,594.693 369.864,595.25 369.618,595.748C369.372,596.24 369.066,596.759 368.661,597.114C368.257,597.475 367.809,597.732 367.295,597.934C366.781,598.136 366.218,598.208 365.655,598.208L362.102,598.208L362.102,590.418L362.102,590.418ZM382.463,593.561C381.878,593.561 381.261,593.698 380.687,593.835C380.113,593.971 379.654,594.069 379.184,594.244C378.713,594.424 378.293,594.633 377.954,594.791L377.27,595.064L377.954,596.977L378.637,596.568C378.96,596.393 379.326,596.19 379.73,596.021C380.135,595.851 380.512,595.748 380.96,595.611C381.414,595.475 381.835,595.338 382.19,595.338C383.403,595.338 384.333,595.808 384.923,596.568C385.519,597.317 385.743,598.202 385.743,599.301L385.743,600.394L382.463,601.214C381.807,601.351 381.168,601.586 380.413,601.897C379.665,602.214 379.003,602.542 378.364,602.991C377.724,603.439 377.134,604.024 376.724,604.631C376.303,605.237 376.04,605.822 376.04,606.544C376.04,608.047 376.593,609.266 377.544,610.097C378.5,610.928 379.752,611.327 381.233,611.327C381.862,611.327 382.458,611.152 383.01,610.917C383.562,610.682 383.95,610.414 384.376,610.097C384.803,609.791 385.213,609.457 385.47,609.14L385.879,608.457L385.879,610.917L388.066,610.917L388.066,599.165C388.066,597.322 387.585,596.021 386.563,595.065C385.541,594.114 384.174,593.562 382.463,593.562L382.463,593.561ZM416.081,593.561C415.047,593.561 414.118,593.824 413.347,594.381C412.571,594.944 411.822,595.726 411.298,596.568C410.773,597.409 410.472,598.306 410.204,599.301C409.937,600.29 409.795,601.203 409.795,602.034C409.795,603.089 409.866,604.084 410.068,605.177C410.27,606.265 410.658,607.276 411.161,608.183C411.664,609.096 412.358,609.933 413.211,610.507C414.064,611.075 415.162,611.326 416.491,611.326C417.119,611.326 417.693,611.287 418.267,611.19C418.841,611.086 419.311,610.917 419.771,610.78C420.23,610.649 420.672,610.501 421,610.371L421.684,610.097L421,608.184L420.18,608.594C419.885,608.747 419.617,608.872 419.224,609.004C418.83,609.146 418.453,609.168 417.994,609.277C417.535,609.375 416.966,609.413 416.491,609.413C415.704,609.413 415.135,609.304 414.578,608.867C414.015,608.429 413.43,607.757 413.074,607.09C412.714,606.434 412.561,605.806 412.391,605.04C412.222,604.28 412.118,603.526 412.118,602.854L422.23,602.854L422.23,602.034C422.23,601.132 422.034,600.153 421.821,599.164C421.608,598.175 421.35,597.267 420.864,596.431C420.383,595.6 419.738,594.922 418.951,594.381C418.164,593.845 417.223,593.561 416.081,593.561L416.081,593.561ZM433.846,593.561C433.261,593.561 432.72,593.72 432.206,593.971C431.692,594.217 431.107,594.485 430.703,594.791C430.304,595.108 429.998,595.441 429.746,595.747L429.336,596.294L429.336,593.971L427.15,593.971L427.15,610.916L429.473,610.916L429.473,598.754L429.883,597.797L430.703,596.841C431.074,596.491 431.583,596.13 432.069,595.884C432.55,595.644 433.053,595.474 433.573,595.474C434.114,595.474 434.524,595.644 434.939,595.884C435.355,596.13 435.764,596.447 436.032,596.841C436.306,597.234 436.432,597.726 436.579,598.207C436.726,598.694 436.852,599.126 436.852,599.574L436.852,610.916L439.175,610.916L439.175,599.301C439.175,598.601 438.984,597.934 438.766,597.251C438.542,596.562 438.252,595.873 437.809,595.338C437.377,594.796 436.841,594.436 436.169,594.108C435.491,593.785 434.737,593.561 433.846,593.561L433.846,593.561ZM507.23,593.561C506.645,593.561 506.049,593.714 505.59,593.971C505.131,594.211 504.699,594.468 504.36,594.791L503.677,595.747L503.267,596.294L503.267,593.971L501.081,593.971L501.081,610.916L503.404,610.916L503.404,598.754L503.677,598.071L504.497,596.977C504.809,596.638 505.191,596.42 505.59,596.157C506,595.906 506.372,595.748 506.82,595.748L507.503,595.884L508.187,596.157L508.87,594.108L508.187,593.698L507.23,593.561L507.23,593.561ZM541.257,593.561C540.23,593.561 539.3,593.824 538.524,594.381C537.748,594.944 537.141,595.726 536.611,596.568C536.086,597.409 535.649,598.306 535.381,599.301C535.108,600.29 534.971,601.203 534.971,602.034C534.971,603.089 535.179,604.084 535.381,605.177C535.589,606.265 535.835,607.276 536.338,608.183C536.841,609.096 537.535,609.933 538.387,610.507C539.24,611.075 540.339,611.326 541.667,611.326C542.296,611.326 542.87,611.287 543.444,611.19C544.018,611.086 544.619,610.917 545.084,610.78C545.537,610.649 545.854,610.501 546.177,610.371L546.86,610.097L546.177,608.184L545.494,608.594C545.198,608.747 544.794,608.872 544.4,609.004C544.012,609.146 543.63,609.168 543.17,609.277C542.711,609.375 542.279,609.413 541.804,609.413C541.022,609.413 540.317,609.304 539.754,608.867C539.191,608.429 538.754,607.757 538.387,607.09C538.027,606.434 537.737,605.806 537.568,605.04C537.398,604.28 537.294,603.526 537.294,602.854L547.407,602.854L547.407,602.034C547.407,601.132 547.341,600.153 547.133,599.164C546.915,598.175 546.527,597.267 546.04,596.431C545.559,595.6 544.914,594.922 544.127,594.381C543.34,593.845 542.405,593.561 541.257,593.561ZM558.612,593.561C557.984,593.561 557.476,593.72 556.973,593.971C556.464,594.217 555.956,594.468 555.606,594.791L554.786,595.747L554.376,596.294L554.376,593.971L552.19,593.971L552.19,610.916L554.513,610.916L554.513,598.754L554.923,597.797L555.606,596.841C555.951,596.491 556.382,596.13 556.836,595.884C557.295,595.644 557.798,595.474 558.339,595.474C558.946,595.474 559.449,595.649 559.842,595.884C560.236,596.119 560.558,596.458 560.799,596.841C561.034,597.223 561.247,597.584 561.346,598.071C561.444,598.552 561.482,599.076 561.482,599.574L561.482,610.916L563.805,610.916L563.805,598.481L564.079,597.524L564.898,596.567C565.226,596.267 565.664,596.097 566.128,595.884C566.588,595.671 567.047,595.474 567.632,595.474C568.195,595.474 568.73,595.649 569.135,595.884C569.539,596.119 569.851,596.458 570.091,596.841C570.321,597.223 570.518,597.584 570.638,598.071C570.742,598.552 570.774,599.076 570.774,599.574L570.774,610.916L573.098,610.916L573.098,599.301C573.098,598.601 572.993,597.934 572.824,597.251C572.66,596.562 572.404,595.873 572.004,595.338C571.6,594.796 571.026,594.436 570.364,594.108C569.703,593.785 568.872,593.561 567.905,593.561C567.232,593.561 566.675,593.719 566.128,593.971C565.576,594.217 565.024,594.485 564.625,594.791C564.231,595.108 564.04,595.441 563.805,595.747L563.258,596.294L562.849,595.611L562.029,594.654C561.673,594.353 561.214,594.195 560.662,593.971C560.11,593.746 559.443,593.561 558.612,593.561L558.612,593.561ZM601.386,593.561C600.353,593.561 599.423,593.824 598.653,594.381C597.876,594.944 597.27,595.726 596.739,596.568C596.215,597.409 595.772,598.306 595.51,599.301C595.231,600.29 595.1,601.203 595.1,602.034C595.1,603.089 595.302,604.084 595.51,605.177C595.712,606.265 595.963,607.276 596.466,608.183C596.974,609.096 597.663,609.933 598.516,610.507C599.369,611.075 600.462,611.326 601.796,611.326C602.419,611.326 602.993,611.287 603.572,611.19C604.141,611.086 604.753,610.917 605.212,610.78C605.677,610.649 605.977,610.501 606.305,610.371L606.989,610.097L606.305,608.184L605.622,608.594C605.327,608.747 605.054,608.872 604.665,609.004C604.272,609.146 603.758,609.168 603.299,609.277C602.845,609.375 602.402,609.413 601.932,609.413C601.151,609.413 600.44,609.304 599.883,608.867C599.314,608.429 598.882,607.757 598.516,607.09C598.16,606.434 597.865,605.806 597.696,605.04C597.527,604.28 597.423,603.526 597.423,602.854L607.535,602.854L607.535,602.034C607.535,601.132 607.481,600.153 607.262,599.164C607.049,598.175 606.65,597.267 606.169,596.431C605.688,595.6 605.179,594.922 604.392,594.381C603.61,593.845 602.528,593.561 601.386,593.561ZM618.468,593.561C617.883,593.561 617.287,593.714 616.828,593.971C616.363,594.211 616.068,594.468 615.735,594.791L614.915,595.747L614.505,596.294L614.505,593.971L612.318,593.971L612.318,610.916L614.642,610.916L614.642,598.754L615.051,598.071L615.735,596.977C616.046,596.638 616.423,596.42 616.828,596.157C617.232,595.906 617.61,595.748 618.058,595.748L618.878,595.884L619.424,596.157L620.108,594.108L619.424,593.698L618.468,593.561L618.468,593.561ZM628.58,593.561C627.777,593.561 627.099,593.774 626.394,594.108C625.689,594.447 625.011,594.922 624.481,595.474C623.956,596.032 623.557,596.557 623.251,597.251C622.945,597.951 622.841,598.716 622.841,599.437C622.841,600.405 622.867,601.214 623.114,601.897C623.36,602.586 623.705,603.209 624.071,603.674C624.443,604.133 624.896,604.373 625.301,604.63C625.705,604.887 626.077,605.199 626.394,605.314L625.711,605.45L624.891,605.997L624.344,606.68L624.071,607.5C624.071,607.904 624.158,608.298 624.344,608.593L625.027,609.276L625.711,609.686L626.394,609.823C626.082,609.844 625.656,610.041 625.164,610.232C624.667,610.418 624.268,610.582 623.797,610.916C623.327,611.255 622.912,611.774 622.568,612.282C622.218,612.785 622.021,613.272 622.021,613.922C622.021,614.594 622.097,615.267 622.431,615.835C622.77,616.409 623.36,616.918 623.934,617.338C624.524,617.754 625.164,618.055 625.984,618.295C626.809,618.541 627.64,618.705 628.58,618.705C629.641,618.705 630.581,618.595 631.45,618.295C632.308,617.994 633.15,617.557 633.773,617.065C634.391,616.573 634.795,616.01 635.14,615.425C635.473,614.84 635.686,614.234 635.686,613.649C635.686,612.883 635.522,612.189 635.14,611.599C634.757,611.003 634.15,610.511 633.5,610.096C632.844,609.68 632.166,609.358 631.313,609.139C630.461,608.931 629.504,608.866 628.58,608.866C627.864,608.866 627.268,608.636 626.804,608.319C626.35,608.002 626.12,607.718 626.12,607.226L626.394,606.543L627.077,606.133L627.897,605.723L628.58,605.587C629.411,605.587 630.187,605.499 630.903,605.177C631.619,604.849 632.308,604.373 632.817,603.81C633.341,603.247 633.757,602.515 634.046,601.761C634.336,601.006 634.456,600.296 634.456,599.437C634.456,598.967 634.434,598.486 634.32,598.071C634.21,597.65 634.057,597.306 633.91,596.978L633.5,596.158L633.091,595.611L635.824,595.611L635.824,593.971L631.041,593.971C630.839,593.9 630.543,593.796 630.084,593.698C629.619,593.589 629.1,593.561 628.581,593.561L628.58,593.561ZM483.725,593.971L483.725,605.587C483.725,606.33 483.796,607.079 483.998,607.773C484.201,608.473 484.529,609.025 484.955,609.55C485.381,610.08 485.939,610.452 486.595,610.78C487.262,611.108 487.989,611.326 488.918,611.326C489.519,611.326 490.055,611.162 490.558,610.916C491.061,610.67 491.542,610.414 491.925,610.097C492.307,609.785 492.641,609.457 492.881,609.14L493.291,608.457L493.291,610.916L495.477,610.916L495.477,593.971L493.154,593.971L493.154,606.134L492.881,606.953L491.924,608.047C491.569,608.408 491.165,608.725 490.695,609.003C490.225,609.288 489.727,609.413 489.191,609.413C488.607,609.413 488.093,609.238 487.688,609.003C487.284,608.768 486.983,608.555 486.732,608.183C486.486,607.812 486.305,607.298 486.185,606.817C486.059,606.33 486.049,605.827 486.049,605.314L486.049,593.971L483.725,593.971L483.725,593.971ZM416.081,595.338C416.775,595.338 417.36,595.6 417.857,596.021C418.349,596.436 418.781,596.945 419.087,597.524C419.388,598.109 419.623,598.765 419.77,599.437C419.912,600.11 419.907,600.722 419.907,601.214L412.117,601.214C412.117,600.656 412.221,599.967 412.391,599.301C412.56,598.645 412.757,598.109 413.074,597.524C413.386,596.934 413.806,596.414 414.304,596.021C414.796,595.627 415.43,595.338 416.08,595.338L416.081,595.338ZM541.257,595.338C541.951,595.338 542.542,595.6 543.034,596.021C543.531,596.436 543.958,596.945 544.264,597.524C544.565,598.109 544.799,598.765 544.947,599.437C545.089,600.11 545.22,600.722 545.22,601.214L537.431,601.214C537.431,600.656 537.54,599.967 537.704,599.301C537.873,598.645 538.076,598.109 538.387,597.524C538.704,596.934 539.12,596.414 539.617,596.021C540.109,595.627 540.601,595.338 541.257,595.338ZM601.522,595.338C602.222,595.338 602.801,595.6 603.299,596.021C603.796,596.436 604.086,596.945 604.392,597.524C604.693,598.109 604.928,598.765 605.075,599.437C605.223,600.11 605.349,600.722 605.349,601.214L597.559,601.214C597.559,600.656 597.669,599.967 597.833,599.301C598.002,598.645 598.204,598.109 598.516,597.524C598.833,596.934 599.248,596.414 599.746,596.021C600.238,595.627 600.872,595.338 601.522,595.338ZM628.58,595.338C629.663,595.338 630.564,595.682 631.177,596.431C631.8,597.185 632.133,598.202 632.133,599.437C632.133,599.951 631.98,600.41 631.86,600.94C631.734,601.465 631.587,602.012 631.313,602.444C631.029,602.864 630.657,603.264 630.22,603.537C629.783,603.821 629.209,603.947 628.58,603.947C627.935,603.947 627.383,603.772 626.94,603.537C626.503,603.302 626.257,602.985 625.984,602.58C625.716,602.176 625.421,601.766 625.3,601.214C625.175,600.667 625.164,600.044 625.164,599.437C625.164,598.896 625.279,598.426 625.437,597.934C625.59,597.437 625.826,596.95 626.121,596.567C626.416,596.185 626.782,595.835 627.214,595.611C627.651,595.387 628.045,595.338 628.58,595.338L628.58,595.338ZM399.409,595.474C399.95,595.474 400.458,595.599 400.912,595.884C401.36,596.179 401.672,596.594 402.005,596.977C402.344,597.36 402.623,597.693 402.825,598.07L403.235,598.89L403.235,606.133L402.825,606.953L402.005,608.046C401.666,608.407 401.24,608.735 400.775,609.003C400.316,609.276 399.906,609.412 399.409,609.412C398.621,609.412 397.9,609.199 397.359,608.729C396.823,608.259 396.468,607.674 396.129,606.953C395.795,606.237 395.451,605.367 395.309,604.493C395.162,603.618 395.172,602.82 395.172,602.033C395.172,601.131 395.244,600.224 395.446,599.437C395.648,598.644 395.899,597.977 396.266,597.387C396.637,596.785 397.113,596.354 397.632,596.02C398.146,595.676 398.758,595.474 399.409,595.474L399.409,595.474ZM584.987,595.474C585.725,595.474 586.375,595.769 586.9,596.157C587.425,596.551 587.922,597.026 588.267,597.66C588.617,598.284 588.781,598.934 588.95,599.71C589.119,600.481 589.223,601.296 589.223,602.033C589.223,602.821 589.174,603.619 588.95,604.493C588.731,605.368 588.283,606.242 587.857,606.953C587.43,607.68 586.966,608.259 586.354,608.73C585.73,609.205 585.096,609.413 584.304,609.413L583.484,609.276L582.527,609.276L581.707,609.14L581.161,609.004L581.161,598.754L581.57,597.934L582.39,596.841C582.751,596.497 583.188,596.158 583.62,595.885C584.063,595.617 584.539,595.475 584.987,595.475L584.987,595.474ZM444.232,599.574L444.232,601.76L451.338,601.76L451.338,599.574L444.232,599.574ZM362.102,600.12L365.791,600.12C367.207,600.12 368.317,600.459 369.208,601.214C370.093,601.962 370.574,603.056 370.574,604.357C370.574,605.029 370.41,605.57 370.164,606.133C369.919,606.696 369.514,607.237 369.071,607.636C368.634,608.041 368.153,608.369 367.568,608.593C366.983,608.817 366.442,608.866 365.792,608.866L362.102,608.866L362.102,600.12L362.102,600.12ZM385.743,602.17L385.743,606.27L385.196,607.363C384.929,607.74 384.633,607.992 384.24,608.32C383.846,608.642 383.354,608.926 382.873,609.14C382.387,609.352 381.889,609.549 381.37,609.549C380.539,609.549 379.894,609.27 379.32,608.729C378.746,608.194 378.5,607.352 378.5,606.406C378.5,605.931 378.621,605.575 378.91,605.176C379.205,604.772 379.566,604.395 380.003,604.083C380.446,603.766 380.965,603.493 381.506,603.263C382.042,603.044 382.54,602.832 383.01,602.717L385.743,602.17L385.743,602.17ZM628.58,610.643C629.93,610.643 631.111,610.894 631.997,611.463C632.888,612.037 633.363,612.769 633.363,613.649C633.363,614.048 633.188,614.491 632.953,614.879C632.713,615.273 632.418,615.672 631.997,615.972C631.565,616.278 631.057,616.459 630.494,616.656C629.936,616.841 629.258,616.929 628.58,616.929C627.935,616.929 627.351,616.836 626.804,616.656C626.268,616.481 625.82,616.273 625.437,615.972C625.06,615.666 624.831,615.273 624.617,614.879C624.41,614.491 624.208,614.07 624.208,613.649C624.208,613.218 624.372,612.786 624.617,612.419C624.863,612.048 625.17,611.731 625.574,611.463C625.973,611.195 626.416,611.074 626.941,610.916C627.471,610.758 628.023,610.643 628.58,610.643L628.58,610.643Z" style="fill:rgb(93,105,113);fill-rule:nonzero;"/>
        </g>
        <g id="path242" transform="matrix(0.927071,0,0,0.927071,-120.828,-364.814)">
            <path d="M362.648,441.19C361.675,441.19 360.904,441.381 360.325,442.01C359.751,442.622 359.505,443.492 359.505,444.47L359.505,526.463C359.505,527.436 359.751,528.163 360.325,528.787C360.894,529.399 361.675,529.743 362.648,529.743L384.923,529.743C391.034,529.743 396.495,528.634 401.458,526.327C406.433,524.031 410.718,520.74 414.167,516.624C417.622,512.503 420.322,507.671 422.23,502.002C424.132,496.339 424.963,490.195 424.963,483.554C424.963,477.185 424.05,471.369 422.093,466.198C420.147,461.016 417.398,456.529 413.894,452.806C410.401,449.084 406.154,446.23 401.185,444.197C396.227,442.158 390.81,441.19 384.786,441.19L362.648,441.19ZM443.275,441.19C442.308,441.19 441.531,441.381 440.952,442.01C440.383,442.622 439.995,443.492 439.995,444.47L439.995,526.463C439.995,527.436 440.384,528.163 440.952,528.787C441.531,529.399 442.308,529.743 443.275,529.743L452.431,529.743C453.399,529.743 454.147,529.404 454.754,528.787C455.372,528.169 455.711,527.436 455.711,526.463L455.711,489.976L486.322,489.976L486.322,526.463C486.322,527.436 486.71,528.169 487.278,528.787C487.847,529.404 488.492,529.743 489.465,529.743L498.621,529.743C499.599,529.743 500.463,529.399 501.08,528.787C501.698,528.163 502.037,527.436 502.037,526.463L502.037,444.47C502.037,443.492 501.698,442.622 501.08,442.01C500.463,441.382 499.599,441.19 498.621,441.19L489.465,441.19C488.492,441.19 487.847,441.381 487.278,442.01C486.71,442.622 486.322,443.492 486.322,444.47L486.322,476.994L455.711,476.994L455.711,444.47C455.711,443.492 455.372,442.622 454.754,442.01C454.147,441.382 453.399,441.19 452.431,441.19L443.275,441.19ZM375.084,453.489L385.06,453.489C388.788,453.489 392.106,454.266 395.036,455.812C397.96,457.37 400.475,459.442 402.552,462.099C404.634,464.755 406.263,467.986 407.335,471.665C408.395,475.343 408.838,479.301 408.838,483.554C408.838,488.517 408.357,492.95 407.198,497.083C406.045,501.193 404.312,504.861 402.142,507.878C399.966,510.89 397.37,513.164 394.352,514.848C391.33,516.531 387.957,517.444 384.24,517.444L375.084,517.444L375.084,453.489Z" style="fill:rgb(226,0,26);fill-rule:nonzero;"/>
        </g>
    </g>
</svg>
