<svg xmlns="http://www.w3.org/2000/svg" xml:space="preserve" viewBox="166.67 95.1 1000 1143.14">
  <defs>
    <linearGradient id="a" x1="0" x2="1" y1="0" y2="0" gradientTransform="rotate(-90 672.478 255.957) scale(592.49207)" gradientUnits="userSpaceOnUse" spreadMethod="pad">
      <stop offset="0" stop-color="#fff"/>
      <stop offset="1" stop-color="#b2b4b6"/>
    </linearGradient>
    <linearGradient id="b" x1="0" x2="1" y1="0" y2="0" gradientTransform="matrix(0 -552.57483 -552.57483 0 670.462 623.897)" gradientUnits="userSpaceOnUse" spreadMethod="pad">
      <stop offset="0" stop-color="#fff"/>
      <stop offset="1" stop-color="#b2b4b6"/>
    </linearGradient>
  </defs>
  <path fill="url(#a)" d="m229.859 774.726-.14-323.497L350.45 336.186l161.634 93.45 98.161-82.027 98.398 56.633-108.372 90.111.563 334.733-111.672 99.592-104.367-59.418 88.073-87.441.105-316.895-59.943-33.629-68.896 67.552-.216 323.848-114.199 105.983L125 865.889Z" transform="matrix(1.33333 0 0 -1.33333 0 1333.333)"/>
  <path fill="url(#b)" d="M628.576 606.726c-54.15-34.976-122.628-87.23-122.628-87.23l.518-303.831-40.541-26.97L592.646 88.472s15.008-9.053 25.558-11.449c24.119-5.478 69.943-11.76 110.666 6.111C790.569 110.21 875 214.422 875 214.422l-29.191 23.155-70.966-71.359s-8.258-7.076-13.683-9.441c-15.209-6.626-48.216-16.495-79.276 4.316-42.141 28.234-67.847 45.611-67.847 45.611l.842 329.874s.253 1.122.741 1.774c2.18 2.91 9.095 10.853 19.593 10.853 12.854 0 26.021-12.01 26.021-12.01l98.609-105.14 103.875 60.05L751.327 608.62s-6.33 4.98-10.965 6.588c-9.794 3.399-28.563 8.689-50.497 8.689-19.297 0-41.043-4.094-61.289-17.171" transform="matrix(1.33333 0 0 -1.33333 0 1333.333)"/>
</svg>
