<svg xmlns="http://www.w3.org/2000/svg">
<path d="m45.1 19.1-6.7-11.5-.2-.3c-.7-1.2-1.6-2.9-3.4-3.5-2-.7-4.8-.1-6.2 2.2l-1.1 1.7-1.6 3c-1.3-2.3-2.3-4.2-2.6-4.7-1.4-2.3-4.2-2.8-6.2-2.2-1.8.6-2.7 2.2-3.4 3.5l-6.9 11.8c-2.2 3.8-.9 8.8 2.9 11l.5.3c3.8 2.2 8.8.9 11-3l4.6-8.5c1.8 3.3 3.6 6.6 4.7 8.5 1.5 2.6 4.2 4 7 4 1.4 0 2.8-.3 4-1.1l.5-.3c4-2.1 5.3-7 3.1-10.9zm-27.3 6.4c-1.1 1.9-3.6 2.6-5.5 1.5l-.5-.3c-1.9-1.1-2.6-3.6-1.5-5.5l6.7-11.6.2-.4c.3-.5.8-1.5 1.1-1.6.1 0 .3-.1.4-.1.4 0 .9.1 1.1.5.4.6 1.9 3.4 3.8 6.8zm22.3 1.2-.5.3c-1.9 1.1-4.5.4-5.6-1.4-.2-.4-3.1-5.7-5.9-10.7l2.9-5.2 1-1.7c.4-.6 1.2-.6 1.6-.5.3.1.9 1.1 1.2 1.6l6.9 11.9c1 2.1.3 4.6-1.6 5.7z" fill="#fd354e"/>
</svg>
