<?xml version="1.0" encoding="utf-8"?><svg version="1.1" id="Layer_1" xmlns="http://www.w3.org/2000/svg" xmlns:xlink="http://www.w3.org/1999/xlink" x="0px" y="0px" viewBox="0 0 924.52 269.3" style="enable-background:new 0 0 924.52 269.3;" xml:space="preserve"><style type="text/css">.st0{fill:none;}.st1{fill:#1D1C39;}.st2{fill:#FF22B1;}</style><rect id="guide_plate_4_" class="st0" width="924.52" height="269.3"/><g id="logo"><path class="st1" d="M117.31,121.73c5.83,0,9.17-3.18,9.17-8.72c0-5.22-3.6-8.72-8.95-8.72h-13.23V94.5c0-7.06-5.07-10.76-10.08-10.76c-5.01,0-10.08,3.7-10.08,10.76v67.56c0,16.24,6.47,23.48,20.98,23.48c7.86,0,12.36-2.02,15.7-3.99c2.56-1.42,3.47-4.43,3.47-6.78c0-4.34-2.91-9.18-7.07-9.18c-0.58,0-1.16,0.1-1.79,0.31c-0.22,0.09-0.46,0.2-0.74,0.33c-1.1,0.5-2.6,1.19-4.8,1.19c-2.6,0-5.58-0.92-5.58-8.08v-37.6H117.31z"/><path class="st1" d="M204.28,156.5c-1.99,0-3.97,0.73-5.71,2.11l-0.28,0.25c-3.52,3.14-7.57,5.52-12.37,7.26c-3.59,1.3-7.1,1.97-10.44,1.97c-8.71,0-16.04-4.66-19.79-12.51l46.35-16.87c7.3-2.66,8.28-8.06,6.76-12.22c-5.66-15.54-18.99-25.2-34.79-25.2c-5.15,0-10.51,1-15.92,2.97c-11.88,4.33-20.35,12.12-24.48,22.56c-3.74,9.45-3.65,20.57,0.25,31.3c6.32,17.37,19.76,27.32,36.88,27.32c3.24,0,6.63-0.36,10.09-1.08c3.13-0.65,6.03-1.47,8.88-2.5c7.75-2.82,14.82-6.89,20.42-11.78l0.05-0.04l0.04-0.05c1.86-2.11,2.6-4.62,2.09-7.07C211.55,159.26,208.1,156.5,204.28,156.5z M163.93,119c2.55-0.93,5.09-1.4,7.54-1.4c8.39,0,14.25,5.42,17.16,10.82l-37.57,13.67C149.35,133.97,151.71,123.45,163.93,119z"/><path class="st1" d="M292.6,101.79c-5.97,0-10.31,4.24-10.31,10.08v0.32c-5.94-6.73-14.74-10.4-25.11-10.4c-23.41,0-39.14,16.83-39.14,41.87s15.46,41.87,38.46,41.87c11.28,0,20.47-4.09,26.25-11.61v1.53c0,7.43,5.09,10.08,9.85,10.08c5.94,0,9.63-3.86,9.63-10.08v-63.57C302.23,105.75,298.45,101.79,292.6,101.79z M282.07,143.66c0,11.82-6.71,23.75-21.71,23.75c-12.85,0-21.48-9.45-21.48-23.52c0-14.34,8.72-23.97,21.71-23.97C271.28,119.91,282.07,127.26,282.07,143.66z"/><path class="st1" d="M408.47,101.79c-11.84,0-21,5.24-25.47,14.47c-4.9-9.48-13.71-14.47-25.62-14.47c-8.86,0-16.79,3.51-21.48,9.34c-0.14-5.43-4.34-9.34-10.08-9.34c-5.13,0-10.31,3.26-10.31,10.54v63.12c0,6.5,3.58,10.08,10.08,10.08c6.46,0,10.31-3.77,10.31-10.08v-37.69c0-12.44,5.54-18.75,16.48-18.75c10.74,0,15.12,5.96,15.12,20.57v35.64c0,6.65,3.58,10.31,10.08,10.31c6.55,0,10.31-3.76,10.31-10.31v-35.19c0-14.15,5.47-21.02,16.71-21.02c10.6,0,15.12,6.29,15.12,21.02v35.19c0,6.65,3.58,10.31,10.08,10.31c6.55,0,10.31-3.76,10.31-10.31v-35.19C440.12,114.66,429.47,101.79,408.47,101.79z"/><path class="st1" d="M563.17,101.79c-4.48,0-8.23,3.23-10.02,8.61l-17.22,48.64l-17-48.41c-1.84-5.31-4.18-8.84-9.57-8.84c-5.76,0-7.89,3.11-9.8,8.84l-17,48.41l-17.21-48.62c-1.8-5.4-5.55-8.63-10.03-8.63c-4.29,0-8.72,3.52-8.72,9.4c0,1.88,0.43,3.76,1.43,6.27l23.16,59.04c2.21,5.42,5,9.02,11.37,9.02c6.97,0,9.63-4.84,11.16-9.06l15.62-42.59l15.18,42.56c2.01,6.03,5.84,9.09,11.39,9.09c5.3,0,9.2-3.04,11.61-9.04l22.91-59.21c0.99-2.23,1.45-4.16,1.45-6.08C571.89,105.83,568.14,101.79,563.17,101.79z"/><path class="st1" d="M615.01,102.02c-13.22,0-24.18,4.34-31.67,12.56c-6.72,7.36-10.42,17.69-10.42,29.08c0,11.41,3.7,21.78,10.42,29.19c7.51,8.29,18.46,12.67,31.68,12.67c31.07,0,42.09-22.55,42.09-41.87C657.11,124.45,646.08,102.02,615.01,102.02z M615.01,169.45c-13.39,0-21.71-9.88-21.71-25.79c0-15.39,8.52-25.34,21.71-25.34s21.71,9.95,21.71,25.34C636.72,159.33,628.2,169.45,615.01,169.45z"/><path class="st1" d="M706.36,101.79c-7.95,0-15.23,3.34-20.37,9.27c-0.42-5.18-4.76-9.27-10.05-9.27c-5.65,0-10.08,4.43-10.08,10.08v63.57c0,6.62,5.07,10.08,10.08,10.08c5.01,0,10.08-3.46,10.08-10.08v-30.2c0-18.24,5-26.02,16.71-26.02c1.87,0,2.95,0.25,4,0.49c0.92,0.21,1.8,0.42,3.04,0.42c4.81,0,8.04-3.6,8.04-8.95C717.8,105.48,713.31,101.79,706.36,101.79z"/><path class="st1" d="M764.29,143.87l22.03-22.91c3.06-3.07,5.96-5.96,5.96-10c0-5.23-3.94-9.17-9.17-9.17c-4.1,0-7,3.14-9.81,6.19l-26.65,27.54v-41.7c0-5.56-4.52-10.08-10.08-10.08c-5.56,0-10.08,4.52-10.08,10.08v81.64c0,5.56,4.52,10.08,10.08,10.08c5.56,0,10.08-4.52,10.08-10.08v-24.76l26.67,27.74c0.47,0.47,0.93,0.95,1.39,1.43c2.67,2.79,5.44,5.68,9.54,5.68c4.85,0,8.95-4.1,8.95-8.95c0-3.52-2.39-6.21-4.83-8.65L764.29,143.87z"/><path class="st2" d="M822.57,150.19c-9.75,0-17.68,7.93-17.68,17.69s7.93,17.69,17.68,17.69c9.75,0,17.69-7.93,17.69-17.69S832.32,150.19,822.57,150.19z"/></g></svg>