<svg version="1.0" xmlns="http://www.w3.org/2000/svg" preserveAspectRatio="xMidYMid meet" viewBox="5.22 3.50 1187.75 1108.45">
    <g transform="translate(0,1120) scale(0.1,-0.1)" fill="#4840bb" stroke="none">
      <path d="M9630 11160 c-892 -55 -2436 -277 -3440 -496 -504 -110 -568 -140
          -586 -282 -12 -89 -8 -1061 5 -1322 24 -489 52 -820 102 -1230 254 -2064 922
          -3785 1984 -5110 909 -1132 2101 -1970 3436 -2414 296 -98 644 -186 740 -186
          95 0 80 31 -84 173 -412 358 -757 778 -1031 1256 -551 958 -855 2181 -926
          3721 -13 277 -13 1038 0 1340 52 1231 208 2537 495 4160 19 107 35 224 35 261
          0 58 -3 70 -25 92 -14 13 -38 28 -53 31 -48 11 -502 15 -652 6z"></path>
      <path d="M4499 7996 c-664 -148 -1244 -333 -2034 -651 -468 -189 -671 -277
          -710 -308 -18 -14 -46 -52 -62 -84 -38 -79 -36 -143 16 -366 186 -811 507
          -1641 914 -2367 1173 -2089 3047 -3440 5462 -3940 510 -105 1113 -184 1515
          -197 147 -5 181 -3 213 10 33 14 37 19 28 36 -15 28 -208 153 -436 281 -597
          337 -902 533 -1215 779 -1306 1026 -2243 2598 -2886 4838 -156 545 -321 1257
          -420 1811 -17 95 -39 140 -84 173 -45 33 -94 31 -301 -15z"></path>
      <path d="M1760 4141 c-43 -14 -441 -268 -804 -515 -485 -328 -853 -613 -892
          -689 -22 -42 -14 -107 31 -242 172 -518 632 -1060 1250 -1472 806 -537 1871
          -875 3110 -987 308 -28 475 -36 860 -42 426 -7 659 3 700 30 32 21 32 28 -5
          69 -31 36 -40 40 -330 163 -196 83 -548 253 -733 356 -850 468 -1509 1014
          -2074 1718 -340 424 -696 977 -933 1449 -51 103 -77 139 -112 157 -30 15 -32
          16 -68 5z"></path>
    </g>
</svg>