<svg id="Layer_2" data-name="Layer 2" xmlns="http://www.w3.org/2000/svg" viewBox="0 0 244.9 77.42">
  <defs>
    <style>
      .cls-1 {
        fill: #005cb9;
      }

      .cls-2 {
        stroke-width: .23px;
      }

      .cls-2, .cls-3 {
        stroke: #fff;
        stroke-miterlimit: 10;
      }

      .cls-2, .cls-3, .cls-4 {
        fill: #231f20;
      }

      .cls-3 {
        stroke-width: .39px;
      }
    </style>
  </defs>
  <g id="Layer_2-2" data-name="Layer 2">
    <g>
      <path class="cls-4" d="m208.17,37.12c-10.23,0-18.56-8.33-18.56-18.56S197.94,0,208.17,0s18.56,8.32,18.56,18.56-8.33,18.56-18.56,18.56Zm0-35.58c-9.38,0-17.02,7.63-17.02,17.02s7.63,17.02,17.02,17.02,17.02-7.63,17.02-17.02-7.63-17.02-17.02-17.02Z"/>
      <path class="cls-4" d="m225.96,19.33h-35.58c-.42,0-.77-.34-.77-.77s.34-.77.77-.77h35.58c.42,0,.77.34.77.77s-.34.77-.77.77Z"/>
      <path class="cls-4" d="m208.17,37.12c-.42,0-.77-.34-.77-.77V.77c0-.42.34-.77.77-.77s.77.34.77.77v35.58c0,.42-.34.77-.77.77Z"/>
      <path class="cls-4" d="m211.33,36.83c-.17,0-.33-.05-.47-.16-.33-.26-.39-.75-.13-1.08,2.54-3.25,5.58-8.84,5.58-17.03s-3.03-13.79-5.58-17.04c-.26-.33-.2-.82.13-1.08.34-.26.82-.2,1.08.13,2.69,3.44,5.91,9.36,5.91,17.99s-3.21,14.54-5.9,17.98c-.15.19-.38.3-.61.3Z"/>
      <path class="cls-4" d="m205.02,36.83c-.23,0-.46-.1-.61-.3-2.69-3.44-5.9-9.35-5.9-17.98s3.21-14.54,5.91-17.99c.26-.33.75-.39,1.08-.13.33.26.39.75.13,1.08-2.54,3.25-5.58,8.85-5.58,17.04s3.03,13.78,5.58,17.03c.26.33.2.82-.13,1.08-.14.11-.31.16-.47.16Z"/>
      <path class="cls-4" d="m194.92,31.2c-.28,0-.54-.15-.68-.41-.2-.38-.06-.84.32-1.04,3.84-2.03,8.42-3.06,13.61-3.06s9.77,1.03,13.61,3.06c.38.2.52.66.32,1.04-.2.38-.67.52-1.04.32-3.62-1.91-7.96-2.88-12.89-2.88s-9.27.97-12.89,2.88c-.12.06-.24.09-.36.09Z"/>
      <path class="cls-4" d="m208.17,10.43c-5.19,0-9.77-1.03-13.61-3.06-.38-.2-.52-.66-.32-1.04.2-.38.66-.52,1.04-.32,3.62,1.91,7.95,2.88,12.89,2.88s9.28-.97,12.89-2.88c.38-.2.84-.06,1.04.32.2.38.06.84-.32,1.04-3.84,2.03-8.42,3.06-13.61,3.06Z"/>
    </g>
    <g>
      <path class="cls-1" d="m11.83,26.28h-5.61L15.31.77h6.15l8.99,25.51h-5.79l-1.63-5.26h-9.41l-1.78,5.26Zm3.2-9.66h6.5l-3.16-10.09h-.07l-3.27,10.09Z"/>
      <path class="cls-1" d="m60.49,26.28h-4.97v-11.47c0-2.81-1.24-3.73-2.7-3.73-2.49,0-3.37,1.63-3.37,3.87v11.33h-4.97v-11.37c0-1.6,0-3.84-2.98-3.84-2.34,0-3.09,1.63-3.09,3.69v11.51h-4.97V7.38h4.76v2.77h.07c.64-1.24,2.03-3.27,5.36-3.27,2.74,0,3.98.99,5.26,3.02.64-.92,2.02-3.02,5.04-3.02,3.69,0,6.57,2.17,6.57,6.32v13.07Z"/>
      <path class="cls-1" d="m69.69,10.11h.07c.92-1.49,2.31-3.23,5.65-3.23,4.16,0,7.85,3.2,7.85,9.73,0,5.19-2.34,10.16-7.96,10.16-3.48,0-4.73-1.88-5.33-2.91h-.07v9.77h-4.97V7.38h4.76v2.74Zm4.37,12.58c3.2,0,4.09-3.48,4.09-5.72,0-2.98-1.07-5.79-4.23-5.79-3.41,0-4.23,3.06-4.23,6.07,0,2.81,1.21,5.44,4.37,5.44Z"/>
      <path class="cls-1" d="m103.83,26.28h-4.97v-11.47c0-1.39-.07-3.73-3.23-3.73-2.2,0-3.91,1.49-3.91,4.37v10.83h-4.97V.77h4.97v9.06h.07c.64-1.56,2.77-2.95,5.47-2.95,3.7,0,6.57,2.17,6.57,6.32v13.07Z"/>
      <path class="cls-1" d="m124.68,20.73c-1.31,4.55-5.08,6.04-8.31,6.04-5.33,0-9.41-2.56-9.41-10.34,0-2.27.78-9.56,9.06-9.56,3.73,0,8.88,1.78,8.88,10.41v.89h-12.97c.14,1.42.43,4.62,4.44,4.62,1.39,0,2.81-.71,3.2-2.06h5.12Zm-4.9-5.79c-.28-3.06-2.24-3.98-3.84-3.98-2.34,0-3.59,1.49-3.87,3.98h7.71Z"/>
      <path class="cls-1" d="m145.28,26.28h-4.97v-11.47c0-1.39-.07-3.73-3.23-3.73-2.2,0-3.91,1.49-3.91,4.37v10.83h-4.97V7.38h4.76v2.77h.07c.67-1.14,2.1-3.27,5.68-3.27s6.57,2.17,6.57,6.32v13.07Z"/>
      <path class="cls-1" d="m158.46,26.77c-5.08,0-9.66-3.13-9.66-9.95s4.58-9.95,9.66-9.95,9.66,3.13,9.66,9.95-4.58,9.95-9.66,9.95Zm0-15.7c-3.84,0-4.55,3.34-4.55,5.75s.71,5.75,4.55,5.75,4.55-3.34,4.55-5.75-.71-5.75-4.55-5.75Z"/>
      <path class="cls-1" d="m176.71,26.28h-4.97V.77h4.97v25.51Z"/>
    </g>
    <circle class="cls-4" cx="158.63" cy="52.28" r="1.93"/>
    <g>
      <path class="cls-4" d="m190.23,38.02l-.26-.33,3.11-2.38-6.71-8.75-3.11,2.38-.26-.33c-.42-.54-1.2-.65-1.75-.23l-2.63,2.02c-.54.42-.65,1.2-.23,1.75l1.47,1.91c-.1.04-.21.08-.3.15l-.32.25c-.54.42-.65,1.2-.23,1.75l2.85,3.72c.42.54,1.2.65,1.75.23l.32-.25c.09-.07.15-.16.22-.25l1.47,1.91c.42.54,1.2.65,1.75.23l2.63-2.02c.54-.42.65-1.2.23-1.75Z"/>
      <rect class="cls-3" x="179.44" y="31.92" width="14.36" height="2.77" rx=".73" ry=".73" transform="translate(99.52 -135.07) rotate(52.53)"/>
      <g>
        <rect class="cls-2" x="187.21" y="25.75" width="1.3" height="3.77" transform="translate(95.5 -138.27) rotate(52.53)"/>
        <rect class="cls-2" x="188.75" y="27.77" width="1.3" height="3.77" transform="translate(97.71 -138.71) rotate(52.53)"/>
        <rect class="cls-2" x="190.34" y="29.84" width="1.3" height="3.77" transform="translate(99.98 -139.16) rotate(52.53)"/>
        <rect class="cls-2" x="191.77" y="31.71" width="1.3" height="3.77" transform="translate(102.02 -139.56) rotate(52.53)"/>
      </g>
    </g>
    <g>
      <path class="cls-3" d="m236.34,30.15l-2.85-1.68c-.55-.32-1.23-.16-1.61.33l-4.79-2.82-6.18,10.48,4.79,2.82c-.25.57-.06,1.24.49,1.56l2.85,1.68c.59.35,1.36.15,1.71-.44l1.22-2.08c.08.08.15.17.25.23l.35.21c.59.35,1.36.15,1.71-.44l2.38-4.04c.35-.59.15-1.36-.44-1.71l-.35-.21c-.1-.06-.21-.08-.32-.11l1.22-2.08c.35-.59.15-1.36-.44-1.71Z"/>
      <rect class="cls-3" x="221.58" y="32.64" width="14.36" height="2.77" rx=".73" ry=".73" transform="translate(83.23 213.77) rotate(-59.46)"/>
    </g>
    <g>
      <path class="cls-4" d="m80.02,48.78v-.42h3.91s0-11.03,0-11.03h-3.91v-.42c0-.69-.56-1.25-1.25-1.25h-3.31c-.69,0-1.25.56-1.25,1.25v2.41c-.11-.03-.21-.07-.33-.07h-.41c-.69,0-1.25.56-1.25,1.25v4.69c0,.69.56,1.25,1.25,1.25h.41c.12,0,.22-.04.33-.07v2.41c0,.69.56,1.25,1.25,1.25h3.31c.69,0,1.25-.56,1.25-1.25Z"/>
      <rect class="cls-3" x="72.84" y="41.46" width="14.36" height="2.77" rx=".73" ry=".73" transform="translate(122.87 -37.18) rotate(90)"/>
      <g>
        <rect class="cls-2" x="83.8" y="37.21" width="1.3" height="3.77" transform="translate(123.55 -45.36) rotate(90)"/>
        <rect class="cls-2" x="83.8" y="39.75" width="1.3" height="3.77" transform="translate(126.09 -42.82) rotate(90)"/>
        <rect class="cls-2" x="83.8" y="42.36" width="1.3" height="3.77" transform="translate(128.7 -40.21) rotate(90)"/>
        <rect class="cls-2" x="83.8" y="44.71" width="1.3" height="3.77" transform="translate(131.05 -37.86) rotate(90)"/>
      </g>
    </g>
    <g>
      <path class="cls-3" d="m98.92,35.63l-3.31.04c-.63,0-1.13.5-1.2,1.11l-5.56.06.14,12.17,5.56-.06c.08.61.6,1.09,1.23,1.08l3.31-.04c.69,0,1.24-.58,1.23-1.26l-.03-2.41c.11.03.21.06.33.06h.41c.69-.01,1.24-.58,1.23-1.27l-.05-4.69c0-.69-.58-1.24-1.26-1.23h-.41c-.12,0-.22.04-.33.08l-.03-2.41c0-.69-.58-1.24-1.26-1.23Z"/>
      <rect class="cls-3" x="87.25" y="41.48" width="14.36" height="2.77" rx=".73" ry=".73" transform="translate(52.63 137.78) rotate(-90.64)"/>
    </g>
    <path class="cls-4" d="m236.56,36.44c-.73-.54-1.77-.38-2.3.36-.54.74-.38,1.77.36,2.31,4.71,3.43,11.35,13.28,2.82,26.01-3.45,5.14-11.51,8-16.75,6.3.14-.58.22-1.2.22-1.84,0-4.29-3.25-7.92-4.34-11.31,1.27-2.17,1.93-3.63,1.93-4.48,0-1.18-.85-2.03-2.45-2.03-1.75,0-3.77,2.17-3.77,5.28v.66c-1.79,3.96-3.35,7.02-5.28,9.95-.7,1.06-1.22,1.87-1.55,2.54-1.67,2.16-3.41,3.77-4.86,3.77-.75,0-1.27-.61-1.27-1.7,0-3.82,4.34-7.82,4.34-11.69,0-2.4-1.79-4.01-4.38-4.01-2.45,0-5.51,2.31-8.06,5.09l.66-1.6c.38-.71.61-1.22.61-1.6,0-.94-.71-1.65-1.89-1.65s-2.07.66-2.64,2.03c-1.09,2.61-2.33,5.73-3.52,8.91-1.82,2.75-3.72,3.91-5.63,3.91-.42,0-.75-.05-1.09-.09,1.98-2.5,3.3-5.51,3.3-8.44,0-4.15-2.73-6.55-7.35-6.55-5.32,0-11.42,4.99-12.63,11.15-2.11,3.27-4.63,6.25-6.6,6.25-.9,0-1.6-.66-1.6-2.36,0-2.31,1.04-5.14,2.64-8.48,1.79-2.88,2.4-4.19,2.4-4.95,0-.94-.71-1.6-1.79-1.6-1.22,0-2.4.94-4.01,4.01-1.12,2.14-2.3,4.83-2.99,7.32-2.09,3.2-4.55,6.07-6.48,6.07-1.04,0-1.79-.61-1.79-2.17,0-2.88,8.5-21.65,10.71-26.41l.12-.24c1.45.03,2.89.06,4.32.09,1.53.03,3.07.07,4.63.07,2.82,0,5.68-.12,8.52-.56,4.87-.76,8.86-2.46,12.2-5.21.7-.58.81-1.62.23-2.32-.58-.7-1.62-.81-2.32-.23-2.88,2.36-6.35,3.83-10.62,4.5-4.11.64-8.41.54-12.56.45-.92-.02-1.85-.04-2.78-.06l1.29-2.57c1.18-1.89,1.84-3.11,1.84-3.82,0-.99-.75-1.65-1.93-1.65-.99,0-2.31.99-3.87,4.01l-2.03,3.94c-6.75-.13-13.93-.23-22.08-.33-8.07-.09-16.13-.17-24.2-.24-.91-.03-1.66.72-1.67,1.63,0,.91.72,1.66,1.64,1.67,8.06.07,16.13.15,24.19.24,7.55.08,14.26.18,20.57.3l-.15.33c-1.63,3.64-7.16,15.02-9.43,21.82-.1.14-.19.29-.29.45-2.45,3.82-6.17,5.94-10.6,5.94-2.64,0-4.34-1.18-4.34-3.63,0-5.51,5.09-10.46,8.3-10.46.47,0,.9.09,1.13.24-1.04,1.6-1.51,2.69-1.51,3.35,0,1.18.85,2.03,2.31,2.03,1.6,0,3.87-2.03,3.87-4.71,0-2.12-2.12-3.82-5.61-3.82-5.13,0-11.88,4.89-13.19,11.19-2.45,3.74-6.14,5.83-10.52,5.83-2.5,0-4.38-1.27-4.38-3.63,0-.38,0-.75.05-1.08,7.78-1.13,13.67-4.62,13.67-8.25,0-2.59-2.07-4.05-5.66-4.05-4.91,0-11.5,4.73-12.7,11.39-2.08,3.17-4.52,6-6.44,6-.75,0-1.27-.61-1.27-1.7,0-3.82,4.34-7.82,4.34-11.69,0-2.4-1.79-4.01-4.38-4.01-2.45,0-5.51,2.31-8.06,5.09l.66-1.6c.38-.71.61-1.22.61-1.6,0-.94-.71-1.65-1.88-1.65s-2.07.66-2.64,2.03c-1.11,2.66-2.39,5.85-3.59,9.1-2.08,3.18-4.54,6.03-6.46,6.03-.75,0-1.27-.61-1.27-1.7,0-3.82,4.34-7.82,4.34-11.69,0-2.4-1.79-4.01-4.38-4.01-2.45,0-5.51,2.31-8.06,5.09l.66-1.6c.38-.71.61-1.22.61-1.6,0-.94-.71-1.65-1.88-1.65s-2.07.66-2.64,2.03c-1.09,2.61-2.34,5.73-3.52,8.92-1.82,2.75-3.72,3.9-5.63,3.9-.42,0-.75-.05-1.08-.09,1.98-2.5,3.3-5.51,3.3-8.44,0-4.15-2.73-6.55-7.35-6.55-5.29,0-11.34,4.93-12.61,11.04-3.54,4.04-9.45,6-14.15,6-6.19,0-10.19-3.76-10.19-9.9,0-11.81,11.38-22.38,20.66-22.42-1.62,2.05-2.67,4.38-2.67,6.86,0,3.76,2.62,6.05,6.52,6.05s7.38-3.19,7.38-7.81c0-2.62-1.1-4.9-3.19-6.52.84-.64.65-.52,2.55-1.4,2.98-1.38,8.96-.51,13.81,2.67,4.54,2.98,8.72,3.42,10.8,3.42.59,0,1.01-.04,1.21-.06h10.2v-3.3h-10.3l-.23.02s-4.67.58-9.87-2.83c-6.06-3.98-11.02-5.2-17.84-2.92-2.72,1.09-3.52,1.53-4.8,2.46-1.09-.24-2.29-.38-3.57-.38C14.04,37.52,0,49.71,0,63.71c0,8.71,6.28,13.71,14.81,13.71,5.42,0,10.52-1.97,14.53-5.29.87,3.04,3.6,4.62,7.15,4.62,2.45,0,4.9-1.04,6.98-2.69.9.24,1.98.38,3.11.38,1.43,0,2.78-.28,4.06-.85-.03.09-.06.19-.09.28-.14.47-.19.71-.19,1.13,0,1.23.9,1.74,1.79,1.74,1.41,0,1.93-.94,2.22-1.84,1.08-3.39,3.2-7.35,5.09-9.57,2.12-2.55,5.18-5.66,7.21-5.66.57,0,.9.23.9.71,0,3.06-4.29,7.68-4.29,11.55,0,3.02,1.93,4.81,5,4.81,1.64,0,3.25-.65,4.77-1.71.02,1.2.9,1.71,1.79,1.71,1.41,0,1.93-.94,2.22-1.84,1.08-3.39,3.2-7.35,5.09-9.57,2.12-2.55,5.18-5.66,7.21-5.66.57,0,.9.23.9.71,0,3.06-4.29,7.68-4.29,11.55,0,3.02,1.93,4.81,5,4.81,2.6,0,5.1-1.61,7.32-3.93,1.11,2.56,3.95,3.93,8.19,3.93,4.52,0,8.28-1.59,11.24-4.26,1.04,2.8,3.92,4.26,8.33,4.26s7.76-1.39,10.61-3.72c.57,2.45,2.54,3.72,5.42,3.72,2.37,0,4.66-1.35,6.73-3.35.65,2.22,2.51,3.35,5.1,3.35s5.18-1.67,7.42-4.05c1.04,2.66,3.63,4.05,6.95,4.05,2.45,0,4.9-1.04,6.98-2.69.9.24,1.98.38,3.11.38,1.43,0,2.78-.28,4.06-.85-.03.09-.06.19-.09.28-.14.47-.19.71-.19,1.13,0,1.23.89,1.74,1.79,1.74,1.41,0,1.93-.94,2.22-1.84,1.08-3.39,3.21-7.35,5.09-9.57,2.12-2.55,5.19-5.66,7.21-5.66.57,0,.9.23.9.71,0,3.06-4.29,7.68-4.29,11.55,0,3.02,1.93,4.81,5,4.81,2.06,0,4.05-1.01,5.89-2.58,1.16,1.51,3.44,2.58,6.79,2.58,2.89,0,5.04-.91,6.41-2.37,1.5.57,3.13.83,4.81.83,6.23,0,13.12-3.58,16.25-8.25,9.93-14.81,1.98-26.43-3.61-30.51Zm-126.16,23.01c.8,0,1.37.33,1.37.94,0,2.26-3.35,4.43-8.39,5.47,1.51-3.82,4.76-6.41,7.02-6.41ZM30.23,42.38c1.43.9,2.19,2.29,2.19,4.09,0,2-1.24,4.05-2.9,4.05-1.24,0-2.05-.81-2.05-2.38,0-2.19,1.19-4.19,2.76-5.76Zm12.43,27.02c-1.37.09-2.4.94-2.4,2.12,0,.19.05.42.19.66-1.09.9-2.26,1.46-3.44,1.46-1.7,0-3.06-1.18-3.06-3.58,0-5.23,4.62-10.37,7.87-10.37,1.6,0,2.69,1.04,2.69,3.35,0,2.17-.71,4.48-1.84,6.36Zm131.76,0c-1.37.09-2.4.94-2.4,2.12,0,.19.05.42.19.66-1.08.9-2.26,1.46-3.44,1.46-1.7,0-3.06-1.18-3.06-3.58,0-5.23,4.62-10.37,7.87-10.37,1.6,0,2.69,1.04,2.69,3.35,0,2.17-.71,4.48-1.84,6.36Zm38.24,4.43c-2.31,0-3.25-1.74-3.25-2.54,0-.37.06-.77.28-1.29.37-.52.74-1.04,1.09-1.58.15-.23.23-.49.26-.76,1.16-1.81,2.19-3.59,3.1-5.37,1.13,2.4,2.36,4.57,2.36,7.49,0,2.22-1.46,4.05-3.82,4.05Z"/>
  </g>
</svg>
