<svg width="100%" height="100%" viewBox="0 0 210 40" version="1.1" xmlns="http://www.w3.org/2000/svg" xmlns:xlink="http://www.w3.org/1999/xlink" xml:space="preserve" xmlns:serif="http://www.serif.com/" style="fill-rule:evenodd;clip-rule:evenodd;stroke-linejoin:round;stroke-miterlimit:2;">
    <g transform="matrix(1,0,0,1,0,-0.0352113)">
        <path d="M6.877,31.092L0,31.092L11.092,0.035L18.56,0.035L29.577,31.092L22.479,31.092L20.482,24.658L9.021,24.658L6.877,31.092ZM10.722,19.335L18.634,19.335L14.863,7.06L14.789,7.06L10.722,19.335Z" style="fill:rgb(0,92,185);fill-rule:nonzero;"/>
    </g>
    <g transform="matrix(1,0,0,1,0,-0.0352113)">
        <path d="M66.549,31.092L60.412,31.092L60.412,17.116C60.412,13.715 58.859,12.606 57.085,12.606C54.053,12.606 52.944,14.602 52.944,17.338L52.944,31.092L46.806,31.092L46.806,17.19C46.806,15.268 46.806,12.532 43.109,12.532C40.225,12.532 39.338,14.528 39.338,17.042L39.338,31.092L33.275,31.092L33.275,8.021L39.116,8.021L39.116,11.423L39.19,11.423C40.004,9.944 41.704,7.43 45.771,7.43C49.099,7.43 50.651,8.613 52.204,11.127C53.018,10.018 54.718,7.43 58.415,7.43C63,7.43 66.549,10.092 66.549,15.12L66.549,31.092Z" style="fill:rgb(0,92,185);fill-rule:nonzero;"/>
    </g>
    <g transform="matrix(1,0,0,1,0,-0.0352113)">
        <path d="M78.232,11.349L78.306,11.349C79.415,9.5 81.116,7.43 85.109,7.43C90.137,7.43 94.574,11.349 94.574,19.261C94.574,25.546 91.764,31.609 84.961,31.609C80.746,31.609 79.268,29.317 78.528,28.06L78.454,28.06L78.454,39.965L72.465,39.965L72.465,8.021L78.232,8.021L78.232,11.349ZM83.482,26.655C87.327,26.655 88.437,22.44 88.437,19.704C88.437,16.081 87.18,12.68 83.335,12.68C79.194,12.68 78.232,16.377 78.232,20.074C78.232,23.475 79.711,26.655 83.482,26.655Z" style="fill:rgb(0,92,185);fill-rule:nonzero;"/>
    </g>
    <g transform="matrix(1,0,0,1,0,-0.0352113)">
        <path d="M119.789,31.092L113.725,31.092L113.725,17.116C113.725,15.415 113.651,12.606 109.806,12.606C107.144,12.606 105.074,14.454 105.074,17.93L105.074,31.092L99.085,31.092L99.085,0.035L105.074,0.035L105.074,11.053L105.148,11.053C105.887,9.13 108.475,7.43 111.803,7.43C116.313,7.43 119.789,10.092 119.789,15.12L119.789,31.092Z" style="fill:rgb(0,92,185);fill-rule:nonzero;"/>
    </g>
    <g transform="matrix(1,0,0,1,0,-0.0352113)">
        <path d="M145.373,23.919C143.746,29.317 139.088,31.092 135.095,31.092C128.514,31.092 123.486,28.06 123.486,18.817C123.486,16.081 124.447,7.43 134.651,7.43C139.236,7.43 145.669,9.574 145.669,19.778L145.669,20.813L129.623,20.813C129.771,22.514 130.141,26.285 135.095,26.285C136.796,26.285 138.57,25.472 139.014,23.845L145.373,23.845L145.373,23.919ZM139.31,17.042C138.94,13.419 136.574,12.31 134.577,12.31C131.694,12.31 130.141,14.085 129.771,17.042L139.31,17.042Z" style="fill:rgb(0,92,185);fill-rule:nonzero;"/>
    </g>
    <g transform="matrix(1,0,0,1,0,-0.0352113)">
        <path d="M171.549,31.092L165.56,31.092L165.56,17.116C165.56,15.415 165.486,12.606 161.641,12.606C158.979,12.606 156.908,14.454 156.908,17.93L156.908,31.092L150.845,31.092L150.845,8.021L156.613,8.021L156.613,11.423L156.687,11.423C157.5,10.018 159.201,7.43 163.563,7.43C168.074,7.43 171.549,10.092 171.549,15.12L171.549,31.092Z" style="fill:rgb(0,92,185);fill-rule:nonzero;"/>
    </g>
    <g transform="matrix(1,0,0,1,0,-0.0352113)">
        <path d="M187.817,31.092C181.606,31.092 175.986,27.394 175.986,19.261C175.986,11.127 181.606,7.43 187.817,7.43C194.028,7.43 199.648,11.127 199.648,19.261C199.648,27.394 194.028,31.092 187.817,31.092ZM187.817,12.384C183.158,12.384 182.271,16.377 182.271,19.261C182.271,22.144 183.158,26.137 187.817,26.137C192.549,26.137 193.363,22.144 193.363,19.261C193.363,16.377 192.549,12.384 187.817,12.384Z" style="fill:rgb(0,92,185);fill-rule:nonzero;"/>
    </g>
    <g transform="matrix(1,0,0,1,0,-0.0352113)">
        <rect x="204.085" y="0.035" width="5.915" height="31.056" style="fill:rgb(0,92,185);fill-rule:nonzero;"/>
    </g>
</svg>
