<svg width="210" height="40" enable-background="new 0 0 284 54" version="1.1" viewBox="0 -511.3 1126.7 565.3" xml:space="preserve" xmlns="http://www.w3.org/2000/svg">

	<rect x="719.1" y="-511.3" width="407.6" height="105.1" fill="#888D8F" opacity="0"/>


	<g fill="#005CB9">
		<path d="M9.3,42H0L15,0h10.1L40,42h-9.6l-2.7-8.7H12.2L9.3,42z M14.5,26.1h10.7L20.1,9.5h-0.1L14.5,26.1z"/>
		<path d="m90 42h-8.3v-18.9c0-4.6-2.1-6.1-4.5-6.1-4.1 0-5.6 2.7-5.6 6.4v18.6h-8.3v-18.8c0-2.6 0-6.3-5-6.3-3.9 0-5.1 2.7-5.1 6.1v19h-8.2v-31.2h7.9v4.6h0.1c1.1-2 3.4-5.4 8.9-5.4 4.5 0 6.6 1.6 8.7 5 1.1-1.5 3.4-5 8.4-5 6.2 0 11 3.6 11 10.4v21.6z"/>
		<path d="m105.8 15.3h0.1c1.5-2.5 3.8-5.3 9.2-5.3 6.8 0 12.8 5.3 12.8 16 0 8.5-3.8 16.7-13 16.7-5.7 0-7.7-3.1-8.7-4.8h-0.1v16.1h-8.1v-43.2h7.8v4.5zm7.1 20.7c5.2 0 6.7-5.7 6.7-9.4 0-4.9-1.7-9.5-6.9-9.5-5.6 0-6.9 5-6.9 10 0 4.6 2 8.9 7.1 8.9z"/>
		<path d="M162,42h-8.2V23.1c0-2.3-0.1-6.1-5.3-6.1c-3.6,0-6.4,2.5-6.4,7.2V42H134V0h8.1v14.9h0.1    c1-2.6,4.5-4.9,9-4.9c6.1,0,10.8,3.6,10.8,10.4V42z"/>
		<path d="m196.6 32.3c-2.2 7.3-8.5 9.7-13.9 9.7-8.9 0-15.7-4.1-15.7-16.6 0-3.7 1.3-15.4 15.1-15.4 6.2 0 14.9 2.9 14.9 16.7v1.4h-21.7c0.2 2.3 0.7 7.4 7.4 7.4 2.3 0 4.7-1.1 5.3-3.3h8.6zm-8.2-9.3c-0.5-4.9-3.7-6.4-6.4-6.4-3.9 0-6 2.4-6.5 6.4h12.9z"/>
		<path d="M232,42h-8.1V23.1c0-2.3-0.1-6.1-5.3-6.1c-3.6,0-6.4,2.5-6.4,7.2V42H204V10.8h7.8v4.6h0.1    c1.1-1.9,3.4-5.4,9.3-5.4c6.1,0,10.8,3.6,10.8,10.4V42z"/>
		<path d="m254 42c-8.4 0-16-5-16-16s7.6-16 16-16 16 5 16 16-7.6 16-16 16zm0-25.3c-6.3 0-7.5 5.4-7.5 9.3s1.2 9.3 7.5 9.3c6.4 0 7.5-5.4 7.5-9.3s-1.1-9.3-7.5-9.3z"/>
		<path d="M284,42h-8V0h8V42z"/>
	</g>

<g display="none">
	<g display="inline">
		
			<path d="m295.5 13c-3.4 0-6.5-2.4-6.5-6.5s3.1-6.5 6.5-6.5 6.5 2.4 6.5 6.5-3.1 6.5-6.5 6.5zm0-11.5c-2.6 0-4.6 2-4.6 5s2.1 5 4.6 5 4.6-2 4.6-5-2.1-5-4.6-5zm-1.1 8.5h-1.5v-7h2.6c1.8 0 2.9 0.5 2.9 2.1 0 1.3-0.8 1.8-1.7 1.8l1.8 3.1h-1.8l-1.6-2.9h-0.7v2.9zm1.3-4.1c0.7 0 1.1-0.1 1.1-0.9 0-0.7-0.8-0.8-1.3-0.8h-1v1.7h1.2z" fill="#005CB9"/>
		
	</g>
</g>
</svg>
