<svg clip-rule="evenodd" fill-rule="evenodd" stroke-linejoin="round" stroke-miterlimit="2" version="1.1" viewBox="0 -.0002113 210 39.93" xml:space="preserve" xmlns="http://www.w3.org/2000/svg">
    <g transform="translate(0 -.035211)">
        <path d="m6.877 31.092h-6.877l11.092-31.057h7.468l11.017 31.057h-7.098l-1.997-6.434h-11.461l-2.144 6.434zm3.845-11.757h7.912l-3.771-12.275h-0.074l-4.067 12.275z" fill="#005cb9" fill-rule="nonzero"/>
    </g>
    <g transform="translate(0 -.035211)">
        <path d="m66.549 31.092h-6.137v-13.976c0-3.401-1.553-4.51-3.327-4.51-3.032 0-4.141 1.996-4.141 4.732v13.754h-6.138v-13.902c0-1.922 0-4.658-3.697-4.658-2.884 0-3.771 1.996-3.771 4.51v14.05h-6.063v-23.071h5.841v3.402h0.074c0.814-1.479 2.514-3.993 6.581-3.993 3.328 0 4.88 1.183 6.433 3.697 0.814-1.109 2.514-3.697 6.211-3.697 4.585 0 8.134 2.662 8.134 7.69v15.972z" fill="#005cb9" fill-rule="nonzero"/>
    </g>
    <g transform="translate(0 -.035211)">
        <path d="m78.232 11.349h0.074c1.109-1.849 2.81-3.919 6.803-3.919 5.028 0 9.465 3.919 9.465 11.831 0 6.285-2.81 12.348-9.613 12.348-4.215 0-5.693-2.292-6.433-3.549h-0.074v11.905h-5.989v-31.944h5.767v3.328zm5.25 15.306c3.845 0 4.955-4.215 4.955-6.951 0-3.623-1.257-7.024-5.102-7.024-4.141 0-5.103 3.697-5.103 7.394 0 3.401 1.479 6.581 5.25 6.581z" fill="#005cb9" fill-rule="nonzero"/>
    </g>
    <g transform="translate(0 -.035211)">
        <path d="m119.79 31.092h-6.064v-13.976c0-1.701-0.074-4.51-3.919-4.51-2.662 0-4.732 1.848-4.732 5.324v13.162h-5.989v-31.057h5.989v11.018h0.074c0.739-1.923 3.327-3.623 6.655-3.623 4.51 0 7.986 2.662 7.986 7.69v15.972z" fill="#005cb9" fill-rule="nonzero"/>
    </g>
    <g transform="translate(0 -.035211)">
        <path d="m145.37 23.919c-1.627 5.398-6.285 7.173-10.278 7.173-6.581 0-11.609-3.032-11.609-12.275 0-2.736 0.961-11.387 11.165-11.387 4.585 0 11.018 2.144 11.018 12.348v1.035h-16.046c0.148 1.701 0.518 5.472 5.472 5.472 1.701 0 3.475-0.813 3.919-2.44h6.359v0.074zm-6.063-6.877c-0.37-3.623-2.736-4.732-4.733-4.732-2.883 0-4.436 1.775-4.806 4.732h9.539z" fill="#005cb9" fill-rule="nonzero"/>
    </g>
    <g transform="translate(0 -.035211)">
        <path d="m171.55 31.092h-5.989v-13.976c0-1.701-0.074-4.51-3.919-4.51-2.662 0-4.733 1.848-4.733 5.324v13.162h-6.063v-23.071h5.768v3.402h0.074c0.813-1.405 2.514-3.993 6.876-3.993 4.511 0 7.986 2.662 7.986 7.69v15.972z" fill="#005cb9" fill-rule="nonzero"/>
    </g>
    <g transform="translate(0 -.035211)">
        <path d="m187.82 31.092c-6.211 0-11.831-3.698-11.831-11.831 0-8.134 5.62-11.831 11.831-11.831s11.831 3.697 11.831 11.831c0 8.133-5.62 11.831-11.831 11.831zm0-18.708c-4.659 0-5.546 3.993-5.546 6.877 0 2.883 0.887 6.876 5.546 6.876 4.732 0 5.546-3.993 5.546-6.876 0-2.884-0.814-6.877-5.546-6.877z" fill="#005cb9" fill-rule="nonzero"/>
    </g>
    <g transform="translate(0 -.035211)">
        <rect x="204.08" y=".035" width="5.915" height="31.056" fill="#005cb9" fill-rule="nonzero"/>
    </g>
</svg>
