<svg xmlns="http://www.w3.org/2000/svg" width="400.81" height="400.81"><path fill="#08c" d="M400.808 200.404c0 110.68-89.724 200.404-200.404 200.404C89.724 400.808 0 311.084 0 200.404 0 89.724 89.724 0 200.404 0c110.68 0 200.404 89.724 200.404 200.404z"/><path fill="#fff" d="M-76.635 336.712c.025-15.91 4.28-25.426 9.497-44.699.302-1.115 4.394-6.264 4.753-6.735 13.306-14.057 28.573-26.125 43.569-38.309 23.175-17.97 45.981-36.398 68.977-54.595 25.232-20.181 52.55-37.438 80.078-54.257 24.029-14.6 48.482-28.488 73.791-40.747 7.3-3.459 14.765-6.545 22.196-9.705 2.138-.909 6.595-2.947 9.133-3.364 1.113-.182 2.256.014 3.384.02.97.474 2.102.707 2.912 1.422 5.232 4.617 4.147 19.286 4.173 25.478-.043 17.133-1.19 34.327 2.093 51.273.858 4.424 2.128 8.757 3.192 13.136 8.178 26.974 23.055 51.094 41.132 72.551 4.683 5.559 9.724 10.805 14.585 16.207 22.156 22.811 47 42.89 73.542 60.374 15.7 10.342 21.173 13.04 37.275 22.057 25.946 14.254 53.607 24.795 81.612 34.158 9.449 3.161 19.06 5.801 28.714 8.251l-8.962 35.082c-9.44-3.494-18.916-6.896-28.255-10.657-27.906-10.838-55.263-23.146-81.042-38.457-6.026-3.638-12.131-7.148-18.08-10.913-33.27-21.056-65.218-44.554-93.468-72.054-11.618-11.91-17.59-17.353-27.712-30.25-13.115-16.712-23.695-35.489-30.602-55.584-1.24-4.24-2.712-8.42-3.72-12.72-1.333-5.679-2.855-16.924-3.185-22.878-.49-8.825.305-17.733-.139-26.566-.127-5.613-.148-11.256-.7-16.851-.11-1.102-.282-2.198-.437-3.294-.105-.74-.077-1.515-.344-2.212-.174-.455-.621-.75-.932-1.125-4.087-.525-6.74.716-10.662 2.034-7.297 2.454-14.535 5.094-21.665 8.002-25.157 11.09-49.651 23.603-72.961 38.232-27.386 17.1-54.718 34.407-79.8 54.826-12.104 9.552-23.988 19.348-35.967 29.053-7.46 6.043-15.049 11.924-22.502 17.975-3.574 2.902-7.082 5.883-10.623 8.825-9.035 7.643-17.987 15.32-26.532 23.515-3.957 3.795-8.897 8.606-12.46 12.895-1.435 1.729-2.674 3.611-4.012 5.416-.799 1.418-1.71 2.777-2.397 4.252-.522 1.122-1.49 4.716-1.213 3.51 13.906-60.852 7.423-40.886 7.812-28.055l-14.048 35.483z"/></svg>