<svg viewBox="0 0 223 186" version="1.1" xmlns="http://www.w3.org/2000/svg" xmlns:xlink="http://www.w3.org/1999/xlink" xml:space="preserve" xmlns:serif="http://www.serif.com/" style="fill-rule:evenodd;clip-rule:evenodd;stroke-linejoin:round;stroke-miterlimit:2;">
    <g transform="matrix(1.33333,0,0,-1.33333,-60.8933,220.38)">
        <g id="g384">
            <g id="g386">
                <g id="g392" transform="matrix(1,0,0,1,451.5,123.192)">
                    <path id="path394" d="M-337.884,1.734L-354.497,17.857L-398.372,-27.338L-353.846,-71.854L-338.774,-56.802L-367.098,-28.448L-367.06,-28.41L-367.098,-28.382L-337.884,1.734ZM-258.983,-55.806L-238.788,-75.999L-258.983,-96.212L-279.187,-75.999L-279.168,-75.991L-327.37,-27.778L-327.312,-27.73L-327.351,-27.692L-299.486,1.015L-315.803,16.833L-359.648,-28.382L-315.133,-72.907L-298.63,-56.396L-278.444,-76.598L-298.74,-96.884L-318.608,-77.006L-337.453,-95.859L-357.637,-75.665L-357.608,-75.646L-405.83,-27.434L-405.773,-27.376L-405.792,-27.357L-358.317,21.563L-358.346,21.602L-338.458,42.093L-318.005,22.234L-299.745,41.059L-279.627,21.535L-259.998,41.758L-239.507,21.851L-259.395,1.359L-276.046,17.522L-319.919,-27.692L-275.396,-72.208L-258.983,-55.806Z" style="fill:rgb(0,84,166);fill-rule:nonzero;"/>
                </g>
            </g>
        </g>
    </g>
</svg>
