<svg version="1.1" id="layer" xmlns="http://www.w3.org/2000/svg" xmlns:xlink="http://www.w3.org/1999/xlink" x="0px" y="0px"
	 viewBox="-153 -46 652 652" style="enable-background:new -153 -46 652 652;" xml:space="preserve">
<style type="text/css">
	.st0{fill:#002F87;}
	.st1{fill:#FFFFFF;}
</style>
<rect x="-77" y="29.4" class="st0" width="500" height="500"/>
<g>
	<path class="st1" d="M194.8,232.2v-2c10-1.5,10.5-3.1,10.6-13.7v-57.3c0-5.7,0.1-7.4-6.7-12.4v-1.3l13.3-6l1.5,0.5v76.4
		c0,11.2,0.5,12.2,10.6,13.7v2H194.8z"/>
	<path class="st1" d="M113.7,188.4c0-10.5-4-13.1-10.3-13.1c-14,0-8.2,15.6-17.1,15.6c-2.6,0-4.4-1.4-4.4-4.1
		c0-5.6,13.7-15.2,25.3-15.2c10.2,0,15.1,7.2,15.1,20.3v33.2c0,3.5,4.1,2.4,5.8,2.4c2.3,0,3.8-0.9,5.3-2.3l1.5,1.7
		c-2.1,3.3-7.3,5.8-11.8,5.8c-4.7,0-9.1-3.3-9.4-9c-7.1,6.5-14.1,9-19.9,9c-8.6,0-11.6-5.2-11.6-11.8c0-10.5,5.6-13.5,23.4-18.1
		l8.2-2.1V188.4z M113.7,203.1l-6.1,1.5c-11.4,2.9-17.3,6.3-17.3,12.7c0,5.6,3.2,10.2,10,10.2c4.8,0,9.3-3,13.4-6.2V203.1z"/>
	<path class="st1" d="M42.7,183.4c12.4,2.8,24.9,9.2,24.9,25.2c0,25.1-29.5,23.9-36.2,23.8l-31.3-0.3v-2
		c16.3-2.2,14.1-6.3,14.5-20.2v-47.1c-0.4-14,1.7-18-13.7-20.1v-2l21.6-1.1c15.2-0.5,39.1,1.6,39.1,23c0,13.3-8,17.8-18.8,20.5
		V183.4z M22.7,208.7c0,10.6-0.7,20.6,13.1,20.6c11.8,0,22.4-7.8,22.4-19.7c0-8.3-10-24.7-30.3-23.7l-5.3,0.3V208.7z M22.7,183.3
		c12.6-0.2,30.5-3.5,30.5-19.3c0-16.3-16.7-21.3-30.5-21.3V183.3z"/>
	<path class="st1" d="M142.5,182.8c-2.5-6.1-3-7.5-9.8-8.6v-2.1h25.2v2.1c-10.3,0.5-7.6,6.8-4.9,13.7l13.3,34.5l8.4-24.4
		c6.1-17.6,7.2-22.4-2.9-23.8v-2.1h23.8v2.1c-6,0.7-7.9,3.1-10.4,8.3l-5.7,13.2l-17.5,43c-5,12.6-8.5,16.8-14,16.8
		c-3.7,0-6.7-3-6.7-6.8c0-2.9,1.6-5.5,4.4-6.4c1.3,0.8,5.5,3.8,7.2,3.8c3,0,5.4-7.3,6.4-9.4l1.1-3.2L142.5,182.8z"/>
	<path class="st1" d="M260.6,233.5c-18.6,0-29.9-11.8-29.9-31.1c0-18.7,11.8-31.6,30-31.6c18.4,0,31.1,12,31.1,31.1
		C291.9,220.4,278.6,233.5,260.6,233.5 M260.5,173.8c-14.7,0-20.6,15.2-20.6,27.7c0,12.6,7.1,29,21.7,29c13.7,0,19.8-15.6,19.8-27.3
		C281.4,190.8,275.3,173.8,260.5,173.8"/>
	<path class="st1" d="M319.7,216.4c0.1,8.3-1.1,12.5,9.6,13.7v2h-28v-2c9.3-1.5,9.8-3.1,9.9-13.7v-25.9c0-5.7,0.1-7.5-6.7-12.3v-1.4
		l14.1-6l1.5,0.5l-0.6,16h0.3c3-7.2,10.6-16.6,19.2-16.6c3.8,0,6.9,2.4,6.9,6.3c0,3.6-3.9,7.1-7.1,8.5c-2.3-1.7-5.7-4.7-8.7-4.5
		c-11.5,1.1-10.6,19.6-10.6,21.6V216.4z"/>
	<path class="st1" d="M54.9,284.9h-1.2c-1.5-8.8-6.6-15.1-16-15.1c-14.3,0-22.3,11.7-22.3,25.1c0,15.4,11.8,26.1,23.1,26.1
		c10.2,0,14.3-7.5,17.8-15.9l1.1,0.5c-0.9,4.8-2.4,9.4-4.3,13.9c-5,2.4-10.4,3.4-15.9,3.4c-16.3,0-30.8-9.4-30.8-27
		c0-13.9,10.8-27.9,31.5-27.9c5.9,0,11.9,1.2,17.1,4.2V284.9z"/>
	<path class="st1" d="M82.5,322.7c-10.7,0-19.2-6.8-19.2-17.9c0-10.8,8.8-18.2,19.3-18.2c10.6,0,19.1,6.9,19.1,17.9
		C101.7,315.1,92.8,322.7,82.5,322.7 M82.4,288.4c-8.4,0-11.8,8.7-11.8,15.9c0,7.3,4,16.7,12.5,16.7c7.9,0,11.4-9,11.4-15.7
		C94.5,298.1,90.9,288.4,82.4,288.4"/>
	<path class="st1" d="M104.3,321.9v-1.2c5.8-0.9,6-1.8,6.1-7.9v-34.3c0-3.3,0.1-4.3-3.8-7.1v-0.8l9-3.4l0.8,0.3v45.3
		c0,6.4,0.3,7,6.1,7.9v1.2H104.3z"/>
	<path class="st1" d="M125.4,321.9v-1.2c5.8-0.9,6-1.8,6.1-7.9v-34.3c0-3.3,0.1-4.3-3.8-7.1v-0.8l9-3.4l0.9,0.3v45.3
		c0,6.4,0.3,7,6.1,7.9v1.2H125.4z"/>
	<path class="st1" d="M151.9,302c-0.6,8.1,4.9,15.7,13.7,15.7c4,0,6.9-1.8,9.2-4.9l1.2,0.9c-3,5.1-8.3,9-14.4,9
		c-9.7,0-16.4-7.9-16.4-17.3c0-10.1,7-18.7,17.5-18.7c7,0,11.7,4.5,12,11.5h-22.7L151.9,302z M167.5,296c-0.7-3.6-2.9-7.6-7-7.6
		c-4.4,0-7.1,4.4-8,8.3L167.5,296z"/>
	<path class="st1" d="M205.2,316c8.4-0.3,13,3.2,13,8.4c0,7.6-10.4,16.4-24.3,16.4c-9.3,0-13.1-4.7-13.1-8c0-5.9,6-8.6,10.5-10.9
		c-3-0.4-8-2.4-8-5.9c0-2.4,4.1-5.5,5.9-6.9c-3.7-2.1-6.4-5.6-6.4-10c0-8,7.3-12.5,14.7-12.5c3.8,0,6.8,0.9,10.2,2.5h11.2v3.3
		l-9.5-0.2c1.1,2,1.6,3.7,1.6,6.1c0,8-7.2,12.5-14.5,12.5c-2,0-4-0.3-5.8-1c-2.6,2.4-2.5,7,4.7,6.6L205.2,316z M193.8,321.9
		c-2.8,1.2-7.3,4.4-7.3,7.8c0,5.7,8.3,7.3,12.7,7.3c5.6,0,14.4-2.4,14.4-9.4c0-7.3-10.1-6.2-12.1-6.2L193.8,321.9z M204.3,299.4
		c0-5.1-2.3-11-8.1-11c-5.1,0-6.7,5.2-6.7,9.4c0,7.7,4.7,11.2,8.2,11.2C202.9,309,204.3,303.7,204.3,299.4"/>
	<path class="st1" d="M230,302c-0.6,8.1,4.9,15.7,13.7,15.7c4.1,0,6.9-1.8,9.2-4.9l1.2,0.9c-3,5.1-8.3,9-14.4,9
		c-9.7,0-16.4-7.9-16.4-17.3c0-10.1,7-18.7,17.6-18.7c7,0,11.7,4.5,12,11.5h-22.6L230,302z M245.5,296c-0.7-3.6-2.9-7.6-7-7.6
		c-4.4,0-7.1,4.4-8,8.3L245.5,296z"/>
	<path class="st1" d="M290.2,322.7c-10.7,0-19.2-6.8-19.2-17.9c0-10.8,8.8-18.2,19.3-18.2c10.6,0,19.1,6.9,19.1,17.9
		C309.4,315.1,300.5,322.7,290.2,322.7 M290.1,288.4c-8.4,0-11.8,8.7-11.8,15.9c0,7.3,4,16.7,12.5,16.7c7.9,0,11.4-9,11.4-15.7
		C302.1,298.1,298.6,288.4,290.1,288.4"/>
	<path class="st1" d="M312,290.7l6.3-3.6c0.1-4.6,0.6-8.8,3.1-12.8c3-4.7,7.8-8.4,13.5-8.4c3,0,9,1.3,9,5.3c0,2.5-2.2,3.4-4.3,3.3
		c-1.9-2.7-5.1-6.2-8.6-6.2c-6.3,0-6.8,10.8-6.8,15.2v4.7h10.2v3.3h-10.2v21.4c0,6.4,0.3,7,7.5,7.9v1.2H312v-1.2
		c5.9-0.9,6.1-1.8,6.2-7.9v-21.4H312V290.7z"/>
	<path class="st1" d="M89.3,394.7c-0.7,9.4,5.7,18.1,15.9,18.1c4.7,0,7.9-2.1,10.6-5.6l1.4,1c-3.4,5.8-9.6,10.5-16.6,10.5
		c-11.2,0-18.9-9.2-18.9-20.1c0-11.6,8.1-21.6,20.3-21.6c8.1,0,13.5,5.1,13.9,13.3H89.6L89.3,394.7z M107.2,387.7
		c-0.8-4.2-3.3-8.8-8.1-8.8c-5.1,0-8.2,5-9.2,9.5L107.2,387.7z"/>
	<path class="st1" d="M186.4,364c0,2.5-2.1,4.6-4.6,4.6c-2.5,0-4.6-2.1-4.6-4.6c0-2.5,2.1-4.6,4.6-4.6
		C184.3,359.4,186.4,361.5,186.4,364"/>
	<path class="st1" d="M252.3,364c0,2.5-2.1,4.6-4.6,4.6c-2.5,0-4.6-2.1-4.6-4.6c0-2.5,2.1-4.6,4.6-4.6
		C250.2,359.4,252.3,361.5,252.3,364"/>
	<path class="st1" d="M154.4,419.3v-8.6c-4.1,4-8.8,7.9-14.9,7.9c-9.7,0-17-9.6-17-18.8c0-13.7,11.1-22.9,24.3-22.9
		c2.6,0,5.1,0.3,7.5,0.9V366c0-3.8,0.1-1.9-4.4-5.1v-0.9l10.4-4l1,0.4v49.8c0,8.3,0,9.4,7.6,8.3l0.4,1.5L154.4,419.3z M154.4,392.4
		c0-10.5-7.9-12.7-12.2-12.7c-8.4,0-12,8.6-12,15.8c0,13,7.8,18.6,14.4,18.6c3.6,0,7.8-3.2,9.7-6.2V392.4z"/>
	<path class="st1" d="M171.9,417.7v-1.3c6.7-1,7-2.1,7-9.1V390c0-3.8,0.1-5-5.5-8.2v-0.9l11.5-4l1,0.4v29.9c0,7.4,0.4,8.1,7,9.1v1.3
		H171.9z"/>
	<path class="st1" d="M231.9,411.1c-4.1,4.6-9.7,7.5-15.9,7.5c-11,0-18.5-9.2-18.5-19.8c0-12.6,11-21.9,23.2-21.9
		c2.9,0,9.8,0.4,9.8,4.5c0,2-2.2,4.2-4.2,4.2c-3.2,0-6.4-5.8-10.9-5.8c-7.2,0-10.6,8.4-10.6,14.5c0,11.7,7.9,19,16.9,19
		c3.7,0,6.3-1.3,9.3-3.5L231.9,411.1z"/>
	<path class="st1" d="M236.6,417.7v-1.3c6.7-1,7-2.1,7-9.1V390c0-3.8,0.1-5-5.5-8.2v-0.9l11.4-4l1,0.4v29.9c0,7.4,0.3,8.1,7,9.1v1.3
		H236.6z"/>
	<path class="st1" d="M267.5,390c0-3.8,0.1-5-4.4-8.2v-0.9l10.7-4l1,0.4l-0.7,6.6c5.1-3.8,10.1-7,15.9-7c10.9,0,11.4,9,11.4,14.2
		v16.1c0,7.4,0.4,8.1,7,9.1v1.3h-21v-1.3c6.7-1,7-2.1,7.1-9.1v-10.4c0-6.3,0.3-15.2-10.7-15.2c-3.7,0-6.2,1.2-9.2,3.9v21.7
		c0,7.4,0.3,8.1,7,9.1v1.3h-21v-1.3c6.7-1,6.9-2.1,7-9.1V390z"/>
	<path class="st1" d="M318.1,394.7c-0.7,9.4,5.7,18.1,15.9,18.1c4.7,0,7.9-2.1,10.6-5.6l1.3,1c-3.4,5.8-9.5,10.5-16.6,10.5
		c-11.2,0-18.9-9.2-18.9-20.1c0-11.6,8.1-21.6,20.3-21.6c8.1,0,13.5,5.1,13.9,13.3h-26.1L318.1,394.7z M336.1,387.7
		c-0.8-4.2-3.4-8.8-8.1-8.8c-5.1,0-8.2,5-9.2,9.5L336.1,387.7z"/>
	<path class="st1" d="M54.6,415.7c7-0.4,8.6-1.6,8.5-5.6c-0.4-14.5-0.4-29.4-1-43.6H62c-7.8,16.7-16.5,34.1-22.9,50.2h-1.4
		c-1.7-3.8-4.3-11.2-7.4-17.4c-3.2-6.4-9.6-20.6-15.3-33.9h-0.2c-0.1,15.7-0.8,30.6-0.8,39.4c0,7.8,1.7,11,8.8,11v1.9H2.7v-1.9
		c5.5-1,7.6-2.3,8.1-10.2c1-12.4,1.4-31.2,1.4-36.3c0-9.9-1.3-10.6-8.7-11v-1.9h16l17.2,39.1c1.4,3.1,2.8,5.7,4.1,9.4l23.3-48.5H79
		v1.9c-7.6,0.5-9.3,2.3-9.3,9.8c0,3.8,0.7,25,1,42.5c0.1,3.9,2.3,4.7,8.3,5.1v1.9H54.6V415.7z"/>
</g>
</svg>
