<svg id="Layer_1" data-name="Layer 1" xmlns="http://www.w3.org/2000/svg" viewBox="0 0 19.72 19.42"><title>sportsbet-logo</title><path fill="currentColor" fill-rule="evenodd" d="M9.99985 19.4074c5.35925 0 9.70375-4.3445 9.70375-9.70369C19.7036 4.3445 15.3591 0 9.99985 0 4.64064 0 .29615 4.3445.29615 9.70371c0 5.35919 4.34449 9.70369 9.7037 9.70369zm.00009-1.9882c4.26116 0 7.71546-3.4543 7.71546-7.71547 0-4.26114-3.4543-7.71548-7.71546-7.71548-4.26114 0-7.71547 3.45434-7.71547 7.71548 0 4.26117 3.45433 7.71547 7.71547 7.71547z" clip-rule="evenodd"/><path fill="#0CD664" d="M4.69136 9.38315c2.59097 0 4.69136-2.10039 4.69136-4.69136 0-2.59097-2.10039-4.69136-4.69136-4.69136C2.10039.00043 0 2.10082 0 4.69179c0 2.59097 2.10039 4.69136 4.69136 4.69136z"/></svg>
