<svg viewBox="0 0 461 512" version="1.1" xmlns="http://www.w3.org/2000/svg" xmlns:xlink="http://www.w3.org/1999/xlink" xml:space="preserve" style="fill-rule:evenodd;clip-rule:evenodd;stroke-linejoin:round;stroke-miterlimit:2;">
    <g transform="matrix(1,0,0,1,-2437.85,-112.163)">
        <g transform="matrix(1,0,0,1,1912.28,-334.083)">
            <path d="M986.492,855.805C939.721,917.988 865.322,958.287 781.58,958.246C765.104,958.262 748.991,956.705 733.452,953.746C702.312,947.827 673.205,936.307 647.216,920.199C588.1,883.689 544.959,823.769 530.69,753.456C530.121,750.825 529.671,748.208 529.215,745.561C526.839,731.517 525.564,717.023 525.564,702.287C525.564,684.751 527.29,667.609 530.69,651.046C554.359,534.192 657.747,446.246 781.549,446.246L782.087,446.246C814.844,446.287 846.184,452.534 875.004,463.839L832.938,548.119L832.483,548.984C816.462,543.649 799.387,540.802 781.554,540.772C710.294,540.772 649.796,586.964 628.364,651.041C623.039,667.149 620.1,684.347 620.1,702.282C620.1,717.258 622.138,731.824 625.988,745.556C626.725,748.229 627.575,750.835 628.364,753.451C639.52,786.859 661.316,815.439 689.742,835.074C714.969,852.569 745.489,863.06 778.329,863.68C779.486,863.68 780.51,863.721 781.585,863.705C852.871,863.721 913.399,817.533 934.775,753.451C934.888,753.226 934.913,752.955 935.026,752.714L935.395,753.451L986.492,855.805ZM931.457,745.561L734.358,745.561L781.549,651.046L884.318,651.072L884.405,651.256L931.457,745.561Z" style="fill:rgb(255,255,255);fill-rule:nonzero;"/>
        </g>
    </g>
</svg>