<svg version="1.1" xmlns="http://www.w3.org/2000/svg" xmlns:xlink="http://www.w3.org/1999/xlink" xml:space="preserve" xmlns:serif="http://www.serif.com/" style="fill-rule:evenodd;clip-rule:evenodd;stroke-linejoin:round;stroke-miterlimit:2;" viewBox="-0.03 -0.04 2133.40 2133.40"><g id="name.com-svg-square" serif:id="name.com svg square"><path d="M2133.37,533.315c-0,-294.364 -238.987,-533.351 -533.352,-533.351l-1066.7,-0c-294.364,-0 -533.351,238.987 -533.351,533.351l-0,1066.7c-0,294.365 238.987,533.352 533.351,533.352l1066.7,-0c294.365,-0 533.352,-238.987 533.352,-533.352l-0,-1066.7Z" style="fill:#6eda78;"></path><circle cx="1694.99" cy="1489.61" r="116.622" style="fill:#4e4e4e;"></circle><path d="M1381.96,1610.81l-660.535,-694.727l0,439.837c0,113.456 52.843,170.963 158.527,170.963l0,65.276l-386.994,0l0,-65.276c85.482,-0 130.553,-57.507 130.553,-170.963l-0,-674.522c-0,-32.638 -52.844,-51.289 -152.312,-51.289l-0,-68.385l293.743,-0l582.825,624.787l0,-399.426c0,-105.687 -54.395,-156.976 -156.973,-156.976l0,-68.385l385.44,-0l-0,68.385c-93.251,0 -141.431,51.289 -141.431,156.976l-0,809.737l-52.843,13.988Z" style="fill:#fff;fill-rule:nonzero;"></path></g></svg>
