<svg clip-rule="evenodd" fill-rule="evenodd" stroke-linejoin="round" stroke-miterlimit="2" version="1.1" viewBox="0 40.857 500 418.28" xml:space="preserve" xmlns="http://www.w3.org/2000/svg">
    <g transform="matrix(11.776 0 0 11.776 0 40.863)">
        <path d="m18.96 0.448-15.83 6.55c-0.881 0.365-0.872 1.615 0.014 1.966l15.897 6.304c1.396 0.554 2.952 0.554 4.348 0l15.897-6.304c0.886-0.351 0.895-1.601 0.014-1.965l-15.829-6.551c-1.444-0.598-3.068-0.598-4.511 0" fill="#fcb400" fill-rule="nonzero"/>
    </g>
    <g transform="matrix(11.776 0 0 11.776 0 40.863)">
        <path d="m22.626 18.71v15.748c0 0.749 0.755 1.262 1.451 0.986l17.713-6.875c0.404-0.16 0.67-0.552 0.67-0.986v-15.748c0-0.749-0.755-1.262-1.451-0.986l-17.714 6.876c-0.403 0.16-0.669 0.552-0.669 0.986" fill="#18bfff" fill-rule="nonzero"/>
    </g>
    <g transform="matrix(11.776 0 0 11.776 0 40.863)">
        <path d="m18.489 19.523-5.257 2.538-0.534 0.258-11.097 5.317c-0.703 0.34-1.601-0.173-1.601-0.954v-14.781c0-0.283 0.145-0.527 0.339-0.71 0.08-0.08 0.171-0.148 0.269-0.202 0.265-0.159 0.643-0.201 0.965-0.074l16.828 6.667c0.855 0.34 0.922 1.538 0.088 1.941" fill="#f82b60" fill-rule="nonzero"/>
    </g>
    <g transform="matrix(11.776 0 0 11.776 0 40.863)">
        <path d="m18.489 19.523-5.257 2.538-12.893-10.871c0.08-0.079 0.171-0.147 0.269-0.201 0.265-0.159 0.643-0.201 0.965-0.074l16.828 6.667c0.855 0.34 0.922 1.538 0.088 1.941" fill-opacity=".25" fill-rule="nonzero"/>
    </g>
</svg>
