<svg version="1.1" id="Layer_1" xmlns="http://www.w3.org/2000/svg" x="0" y="0" xml:space="preserve" viewBox="206 296 200.01 200"><style>.st2{fill:#00c0ca}</style><path d="M206.09 396.23c0-32.14.06-64.28-.09-96.42-.01-3.18.79-3.8 3.86-3.8 64.11.1 128.22.1 192.34-.01 3.18-.01 3.8.79 3.8 3.85-.1 64.11-.1 128.23.01 192.34.01 3.18-.79 3.8-3.85 3.8-64.11-.1-128.22-.1-192.34.01-3.18.01-3.81-.79-3.8-3.85.11-31.98.07-63.95.07-95.92zm121.95 16.54c-.26-.41-.51-.82-1.03-.28l-2.02.51c-8.64-.09-17.29-.12-25.93-.27-8.23-.14-14.49-4.46-16.93-11.56-3.88-11.25 3.95-22.3 16.44-22.8 9.13-.36 18.28-.25 27.43-.35.7-.06 2.24.81 1.24-1.12a96.612 96.612 0 00-10.7-10.9c-.53-.36-1.06-.71-1.59-1.07-6.63-.74-13.28-.68-19.89-.06-15.73 1.46-27.59 14.9-27.48 30.84.11 15.81 11.82 29.06 27.32 30.46 5.94.54 11.96.21 17.94.31 1.62.03 2.87-.59 3.95-1.74 3.07-3.25 6.17-6.48 9.26-9.72.95-.49 1.72-1.15 1.99-2.25zm5.02-44.97c2.75 2.87 5.42 5.82 8.29 8.57 2.59 2.48 11.26 2.44 11.4.07.23-3.83 1.18-7.82-.71-11.56-6.04-.1-12.08-.23-18.11-.27-1.03-.01-2.63-.64-2.96.76-.27 1.14 1.22 1.73 2.09 2.43zm5.94 34.32c.3-.11.6-.23.9-.34 1.6-1.44 3.23-2.84 4.79-4.33.68-.65 1.85-1.57.83-2.44-2.54-2.19-3.97-5.99-8.11-5.99-12.99 0-25.98-.07-38.96.06-4.05.04-6.67 2.34-6.78 6.49-.12 4.16 2.39 6.74 6.44 6.78 13.63.12 27.27.58 40.89-.23zm11.89-61.25c-18.47-.68-36.96-.91-55.4-.05-30.14 1.41-52.29 26.49-51.4 57.17.85 29.4 25.2 52.91 54.89 52.95 15.15.02 30.3 0 45.46 0 8.6 0 8.35-.01 8.64-8.79.14-4.29-1.3-5.24-5.35-5.18-16.31.22-32.63.17-48.95.07-28.26-.18-47.73-27.25-39.02-54.16 5.62-17.36 20.62-28.26 39.76-28.49 16.32-.2 32.63-.02 48.95-.11 1.57-.01 4.29 1.05 4.35-1.76.08-3.85 1.18-7.85-.79-11.59-.4-.03-.77-.05-1.14-.06zm-20.84 84.61c.33.5.66 1 .98 1.5 6.26 0 12.53-.07 18.79.03 2.34.04 3.29-.81 3.17-3.17-.13-2.47 0-4.96-.04-7.44-.02-1.11.24-2.66-1.35-2.73-3.23-.13-6.8-1.41-9.59.86-4.17 3.43-7.99 7.28-11.96 10.95z" fill="#1a2433"/><path d="M352 340.91c1.97 3.73.88 7.74.79 11.59-.06 2.82-2.78 1.76-4.35 1.76-16.32.09-32.64-.09-48.95.11-19.14.23-34.14 11.13-39.76 28.49-8.71 26.91 10.76 53.99 39.02 54.16 16.32.1 32.64.15 48.95-.07 4.05-.05 5.49.9 5.35 5.18-.29 8.78-.04 8.79-8.64 8.79-15.15 0-30.3.03-45.46 0-29.69-.04-54.04-23.55-54.89-52.95-.88-30.68 21.26-55.75 51.4-57.17 18.43-.86 36.93-.64 55.4.05.4.03.77.05 1.14.06z" fill="#00bfc9"/><path class="st2" d="M326.04 415.01c-3.09 3.24-6.18 6.47-9.26 9.72-1.09 1.15-2.33 1.77-3.95 1.74-5.98-.11-12 .22-17.94-.31-15.5-1.4-27.21-14.65-27.32-30.46-.11-15.94 11.75-29.37 27.48-30.84 6.61-.62 13.26-.67 19.89.06.53.36 1.06.71 1.59 1.07 3.86 3.34 7.41 6.99 10.7 10.9l-1.24 1.12c-9.14.1-18.29-.02-27.43.35-12.49.5-20.32 11.55-16.44 22.8 2.45 7.1 8.7 11.42 16.93 11.56 8.64.15 17.29.18 25.93.27.36.68.71 1.35 1.06 2.02z"/><path class="st2" d="M339 402.12c-13.63.81-27.27.35-40.9.23-4.04-.04-6.55-2.62-6.44-6.78.12-4.15 2.73-6.45 6.78-6.49 12.99-.13 25.98-.06 38.96-.06 4.15 0 5.57 3.8 8.11 5.99 1.02.88-.15 1.8-.83 2.44-1.56 1.48-3.19 2.89-4.79 4.33-.32 0-.63.11-.89.34z"/><path d="M330.05 425.48c3.97-3.67 7.79-7.52 11.97-10.94 2.78-2.27 6.36-.99 9.59-.86 1.59.06 1.33 1.62 1.35 2.73.04 2.48-.08 4.96.04 7.44.12 2.35-.84 3.2-3.17 3.17-6.26-.1-12.53-.03-18.79-.03-.33-.51-.66-1.01-.99-1.51z" fill="#01bcc7"/><path d="M352.04 364.87c1.89 3.74.94 7.73.71 11.56-.14 2.38-8.81 2.41-11.4-.07-2.87-2.75-5.54-5.7-8.29-8.57 1.91-2.1 4.48-1.6 6.9-1.78 4.04-.28 8.22.95 12.08-1.14z" fill="#01bcc6"/><path d="M352.04 364.87c-3.86 2.09-8.05.86-12.08 1.15-2.42.18-4.99-.33-6.9 1.78-.87-.7-2.36-1.29-2.09-2.44.33-1.41 1.93-.77 2.96-.76 6.04.04 12.07.17 18.11.27zm-26 50.14c-.35-.67-.7-1.34-1.06-2.02l2.02-.51c.34.09.69.19 1.03.28-.26 1.11-1.03 1.77-1.99 2.25z" fill="#00c8d2"/><path d="M325.99 378.01l1.24-1.12c.99 1.93-.55 1.06-1.24 1.12z" fill="#00cad4"/><path d="M328.04 412.77c-.34-.09-.69-.19-1.03-.28.51-.54.77-.13 1.03.28z" fill="#1c1b2a"/><path d="M352 340.91c-.37-.02-.74-.03-1.11-.05.37.02.74.04 1.11.05zm-35.47 25.08c-.53-.36-1.06-.71-1.59-1.07.53.36 1.06.72 1.59 1.07zM339 402.12c.26-.22.56-.34.9-.34-.29.11-.59.22-.9.34z" fill="#00ccd6"/></svg>