<svg version="1.1" id="Layer_1" xmlns="http://www.w3.org/2000/svg" xmlns:xlink="http://www.w3.org/1999/xlink" x="0px" y="0px"
	 viewBox="0 0 612 792" style="enable-background:new 0 0 612 792;" xml:space="preserve">
<style type="text/css">
	.st0{fill:#1A2433;}
	.st1{fill:#00BFC9;}
	.st2{fill:#00C0CA;}
	.st3{fill:#01BCC7;}
	.st4{fill:#01BCC6;}
	.st5{fill:#00C8D2;}
	.st6{fill:#00CAD4;}
	.st7{fill:#1C1B2A;}
	.st8{fill:#00CCD6;}
</style>
<path class="st0" d="M206.09,396.23c0-32.14,0.06-64.28-0.09-96.42c-0.01-3.18,0.79-3.8,3.86-3.8c64.11,0.1,128.22,0.1,192.34-0.01
	c3.18-0.01,3.8,0.79,3.8,3.85c-0.1,64.11-0.1,128.23,0.01,192.34c0.01,3.18-0.79,3.8-3.85,3.8c-64.11-0.1-128.22-0.1-192.34,0.01
	c-3.18,0.01-3.81-0.79-3.8-3.85C206.13,460.17,206.09,428.2,206.09,396.23z M328.04,412.77c-0.26-0.41-0.51-0.82-1.03-0.28
	c-0.67,0.17-1.35,0.34-2.02,0.51c-8.64-0.09-17.29-0.12-25.93-0.27c-8.23-0.14-14.49-4.46-16.93-11.56
	c-3.88-11.25,3.95-22.3,16.44-22.8c9.13-0.36,18.28-0.25,27.43-0.35c0.7-0.06,2.24,0.81,1.24-1.12c-3.28-3.91-6.84-7.55-10.7-10.9
	c-0.53-0.36-1.06-0.71-1.59-1.07c-6.63-0.74-13.28-0.68-19.89-0.06c-15.73,1.46-27.59,14.9-27.48,30.84
	c0.11,15.81,11.82,29.06,27.32,30.46c5.94,0.54,11.96,0.21,17.94,0.31c1.62,0.03,2.87-0.59,3.95-1.74c3.07-3.25,6.17-6.48,9.26-9.72
	C327,414.53,327.77,413.87,328.04,412.77z M333.06,367.8c2.75,2.87,5.42,5.82,8.29,8.57c2.59,2.48,11.26,2.44,11.4,0.07
	c0.23-3.83,1.18-7.82-0.71-11.56c-6.04-0.1-12.08-0.23-18.11-0.27c-1.03-0.01-2.63-0.64-2.96,0.76
	C330.7,366.51,332.19,367.1,333.06,367.8z M339,402.12c0.3-0.11,0.6-0.23,0.9-0.34c1.6-1.44,3.23-2.84,4.79-4.33
	c0.68-0.65,1.85-1.57,0.83-2.44c-2.54-2.19-3.97-5.99-8.11-5.99c-12.99,0-25.98-0.07-38.96,0.06c-4.05,0.04-6.67,2.34-6.78,6.49
	c-0.12,4.16,2.39,6.74,6.44,6.78C311.74,402.47,325.38,402.93,339,402.12z M350.89,340.87c-18.47-0.68-36.96-0.91-55.4-0.05
	c-30.14,1.41-52.29,26.49-51.4,57.17c0.85,29.4,25.2,52.91,54.89,52.95c15.15,0.02,30.3,0,45.46,0c8.6,0,8.35-0.01,8.64-8.79
	c0.14-4.29-1.3-5.24-5.35-5.18c-16.31,0.22-32.63,0.17-48.95,0.07c-28.26-0.18-47.73-27.25-39.02-54.16
	c5.62-17.36,20.62-28.26,39.76-28.49c16.32-0.2,32.63-0.02,48.95-0.11c1.57-0.01,4.29,1.05,4.35-1.76
	c0.08-3.85,1.18-7.85-0.79-11.59C351.63,340.9,351.26,340.88,350.89,340.87z M330.05,425.48c0.33,0.5,0.66,1,0.98,1.5
	c6.26,0,12.53-0.07,18.79,0.03c2.34,0.04,3.29-0.81,3.17-3.17c-0.13-2.47,0-4.96-0.04-7.44c-0.02-1.11,0.24-2.66-1.35-2.73
	c-3.23-0.13-6.8-1.41-9.59,0.86C337.84,417.96,334.02,421.81,330.05,425.48z"/>
<path class="st1" d="M352,340.91c1.97,3.73,0.88,7.74,0.79,11.59c-0.06,2.82-2.78,1.76-4.35,1.76c-16.32,0.09-32.64-0.09-48.95,0.11
	c-19.14,0.23-34.14,11.13-39.76,28.49c-8.71,26.91,10.76,53.99,39.02,54.16c16.32,0.1,32.64,0.15,48.95-0.07
	c4.05-0.05,5.49,0.9,5.35,5.18c-0.29,8.78-0.04,8.79-8.64,8.79c-15.15,0-30.3,0.03-45.46,0c-29.69-0.04-54.04-23.55-54.89-52.95
	c-0.88-30.68,21.26-55.75,51.4-57.17c18.43-0.86,36.93-0.64,55.4,0.05C351.26,340.88,351.63,340.9,352,340.91z"/>
<path class="st2" d="M326.04,415.01c-3.09,3.24-6.18,6.47-9.26,9.72c-1.09,1.15-2.33,1.77-3.95,1.74c-5.98-0.11-12,0.22-17.94-0.31
	c-15.5-1.4-27.21-14.65-27.32-30.46c-0.11-15.94,11.75-29.37,27.48-30.84c6.61-0.62,13.26-0.67,19.89,0.06
	c0.53,0.36,1.06,0.71,1.59,1.07c3.86,3.34,7.41,6.99,10.7,10.9c-0.41,0.37-0.83,0.75-1.24,1.12c-9.14,0.1-18.29-0.02-27.43,0.35
	c-12.49,0.5-20.32,11.55-16.44,22.8c2.45,7.1,8.7,11.42,16.93,11.56c8.64,0.15,17.29,0.18,25.93,0.27
	C325.34,413.67,325.69,414.34,326.04,415.01z"/>
<path class="st2" d="M339,402.12c-13.63,0.81-27.27,0.35-40.9,0.23c-4.04-0.04-6.55-2.62-6.44-6.78c0.12-4.15,2.73-6.45,6.78-6.49
	c12.99-0.13,25.98-0.06,38.96-0.06c4.15,0,5.57,3.8,8.11,5.99c1.02,0.88-0.15,1.8-0.83,2.44c-1.56,1.48-3.19,2.89-4.79,4.33
	C339.57,401.78,339.26,401.89,339,402.12z"/>
<path class="st3" d="M330.05,425.48c3.97-3.67,7.79-7.52,11.97-10.94c2.78-2.27,6.36-0.99,9.59-0.86c1.59,0.06,1.33,1.62,1.35,2.73
	c0.04,2.48-0.08,4.96,0.04,7.44c0.12,2.35-0.84,3.2-3.17,3.17c-6.26-0.1-12.53-0.03-18.79-0.03
	C330.71,426.48,330.38,425.98,330.05,425.48z"/>
<path class="st4" d="M352.04,364.87c1.89,3.74,0.94,7.73,0.71,11.56c-0.14,2.38-8.81,2.41-11.4-0.07c-2.87-2.75-5.54-5.7-8.29-8.57
	c1.91-2.1,4.48-1.6,6.9-1.78C344,365.73,348.18,366.96,352.04,364.87z"/>
<path class="st5" d="M352.04,364.87c-3.86,2.09-8.05,0.86-12.08,1.15c-2.42,0.18-4.99-0.33-6.9,1.78c-0.87-0.7-2.36-1.29-2.09-2.44
	c0.33-1.41,1.93-0.77,2.96-0.76C339.97,364.64,346,364.77,352.04,364.87z"/>
<path class="st5" d="M326.04,415.01c-0.35-0.67-0.7-1.34-1.06-2.02c0.67-0.17,1.35-0.34,2.02-0.51c0.34,0.09,0.69,0.19,1.03,0.28
	C327.77,413.87,327,414.53,326.04,415.01z"/>
<path class="st6" d="M325.99,378.01c0.41-0.37,0.83-0.75,1.24-1.12C328.22,378.82,326.68,377.95,325.99,378.01z"/>
<path class="st7" d="M328.04,412.77c-0.34-0.09-0.69-0.19-1.03-0.28C327.52,411.95,327.78,412.36,328.04,412.77z"/>
<path class="st8" d="M352,340.91c-0.37-0.02-0.74-0.03-1.11-0.05C351.26,340.88,351.63,340.9,352,340.91z"/>
<path class="st8" d="M316.53,365.99c-0.53-0.36-1.06-0.71-1.59-1.07C315.47,365.28,316,365.64,316.53,365.99z"/>
<path class="st8" d="M339,402.12c0.26-0.22,0.56-0.34,0.9-0.34C339.61,401.89,339.31,402,339,402.12z"/>
</svg>
