<svg viewBox="0 0 24 24" version="1.1" xmlns="http://www.w3.org/2000/svg" xmlns:xlink="http://www.w3.org/1999/xlink" xml:space="preserve" xmlns:serif="http://www.serif.com/" style="fill-rule:evenodd;clip-rule:evenodd;stroke-linejoin:round;stroke-miterlimit:2;">
    <g>
        <g transform="matrix(0.232904,0,0,0.232904,-1.33375,-4.94387)">
            <path d="M96.05,33C96.484,33.067 96.9,33.133 97.3,33.2C97.734,33.233 98.167,33.266 98.6,33.3C98.8,33.334 99,33.35 99.2,33.35L100.45,33.35C100.65,33.35 100.85,33.333 101.05,33.3C101.417,33.267 101.8,33.217 102.2,33.15C102.567,33.084 102.95,33.017 103.35,32.95C103.717,32.85 104.083,32.733 104.45,32.6L104.55,32.6C104.917,32.467 105.25,32.333 105.55,32.2C105.917,32 106.283,31.8 106.65,31.6C106.983,31.4 107.317,31.166 107.65,30.9L107.7,30.9C107.266,31.5 106.817,32.067 106.35,32.6L106.3,32.6C105.8,33.1 105.283,33.567 104.75,34C104.183,34.367 103.617,34.717 103.05,35.05C102.417,35.35 101.783,35.6 101.15,35.8C100.917,35.867 100.683,35.95 100.45,36.05C100.35,36.084 100.25,36.117 100.15,36.15C99.817,36.217 99.467,36.283 99.1,36.35C98.767,36.45 98.416,36.533 98.05,36.6C97.717,36.633 97.367,36.683 97,36.75C96.767,36.75 96.517,36.783 96.25,36.85C96.017,36.85 95.783,36.867 95.55,36.9C95.283,36.9 95.033,36.917 94.8,36.95C94.533,36.983 94.267,37 94,37L93.25,37C92.983,37 92.733,37.017 92.5,37.05L80.35,36.8L79.55,36.8C79.283,36.834 79.017,36.85 78.75,36.85L77.9,36.85C77.633,36.883 77.383,36.916 77.15,36.95C76.85,36.95 76.567,36.967 76.3,37C76.067,37.033 75.817,37.067 75.55,37.1C75.15,37.133 74.767,37.183 74.4,37.25C74,37.283 73.6,37.333 73.2,37.4C72.833,37.5 72.45,37.6 72.05,37.7C71.683,37.8 71.317,37.9 70.95,38C70.617,38.1 70.266,38.217 69.9,38.35C69.534,38.483 69.167,38.633 68.8,38.8C68.467,38.933 68.117,39.084 67.75,39.25C67.417,39.45 67.083,39.65 66.75,39.85C66.45,40.017 66.117,40.217 65.75,40.45C65.45,40.683 65.15,40.916 64.85,41.15C64.217,41.65 63.633,42.217 63.1,42.85C62.8,43.15 62.517,43.467 62.25,43.8C61.95,44.167 61.683,44.533 61.45,44.9C61.183,45.267 60.933,45.667 60.7,46.1C60.467,46.5 60.233,46.916 60,47.35C59.767,47.817 59.55,48.283 59.35,48.75C59.15,49.25 58.967,49.75 58.8,50.25L58.75,50.3C58.083,49.734 57.45,49.183 56.85,48.65C56.25,48.117 55.7,47.6 55.2,47.1C54.666,46.567 54.2,46.033 53.8,45.5C53.367,45 52.984,44.5 52.65,44C52.283,43.467 51.967,42.95 51.7,42.45C51.433,41.95 51.217,41.467 51.05,41C50.817,40.5 50.65,40.017 50.55,39.55C50.417,39.084 50.334,38.617 50.3,38.15C50.234,37.717 50.2,37.267 50.2,36.8C50.2,36.367 50.233,35.933 50.3,35.5C50.367,35.067 50.467,34.667 50.6,34.3C50.733,33.9 50.883,33.5 51.05,33.1C51.25,32.7 51.45,32.317 51.65,31.95C51.883,31.617 52.133,31.266 52.4,30.9C52.967,30.233 53.6,29.617 54.3,29.05C54.633,28.783 55,28.517 55.4,28.25C55.767,27.983 56.167,27.733 56.6,27.5C57,27.267 57.433,27.05 57.9,26.85C58.334,26.65 58.783,26.467 59.25,26.3C59.75,26.167 60.25,26.033 60.75,25.9C61.217,25.767 61.7,25.633 62.2,25.5C62.7,25.4 63.217,25.317 63.75,25.25C64.283,25.217 64.8,25.183 65.3,25.15L67.55,25.15C67.783,25.15 67.984,25.167 68.15,25.2C68.617,25.233 69.1,25.283 69.6,25.35C70.067,25.383 70.55,25.45 71.05,25.55C71.484,25.617 71.95,25.7 72.45,25.8C72.95,25.9 73.433,26 73.9,26.1C74.233,26.166 74.55,26.25 74.85,26.35C75.183,26.45 75.5,26.55 75.8,26.65C76.133,26.717 76.45,26.8 76.75,26.9C77.083,27 77.4,27.084 77.7,27.15C78.033,27.283 78.367,27.4 78.7,27.5C79.033,27.6 79.333,27.7 79.6,27.8L88.05,30.8C88.383,30.9 88.7,31 89,31.1C89.3,31.2 89.6,31.3 89.9,31.4C90.2,31.5 90.5,31.584 90.8,31.65C91.1,31.783 91.4,31.883 91.7,31.95C92,32.05 92.3,32.133 92.6,32.2C92.9,32.266 93.183,32.35 93.45,32.45C93.883,32.55 94.317,32.65 94.75,32.75C95.183,32.85 95.617,32.933 96.05,33Z" style="fill:rgb(0,125,68);"/>
        </g>
        <g transform="matrix(0.232904,0,0,0.232904,-1.33375,-4.94387)">
            <path d="M85.45,102.35C85.117,102.317 84.783,102.284 84.45,102.25C84.117,102.217 83.8,102.167 83.5,102.1C82.9,101.967 82.35,101.8 81.85,101.6C81.717,101.567 81.6,101.534 81.5,101.5L81.45,101.5C81.083,101.3 80.733,101.1 80.4,100.9L80.35,100.9C79.95,100.633 79.567,100.349 79.2,100.049C78.867,99.716 78.567,99.383 78.3,99.049C78,98.683 77.75,98.316 77.55,97.949C77.35,97.515 77.167,97.098 77,96.699C76.9,96.499 76.833,96.299 76.8,96.098C76.734,95.899 76.667,95.682 76.6,95.449C76.533,95.249 76.483,95.049 76.45,94.848C76.416,94.615 76.383,94.399 76.35,94.199C76.317,93.966 76.3,93.749 76.3,93.549C76.267,93.349 76.25,93.15 76.25,92.949C76.217,92.716 76.2,92.499 76.2,92.299L76.2,91.65C76.2,91.483 76.217,91.299 76.25,91.099C76.283,90.9 76.3,90.7 76.3,90.499C76.334,90.199 76.367,89.883 76.4,89.549C76.467,89.216 76.533,88.9 76.6,88.599C76.666,88.233 76.733,87.9 76.8,87.599C76.9,87.266 76.984,86.933 77.05,86.599C77.117,86.366 77.183,86.133 77.25,85.9C77.35,85.7 77.433,85.5 77.5,85.299C77.567,85.066 77.65,84.832 77.75,84.599C77.85,84.366 77.933,84.15 78,83.95C78.067,83.717 78.167,83.483 78.3,83.25C78.4,83.05 78.484,82.833 78.55,82.6C78.65,82.367 78.75,82.134 78.85,81.901C78.95,81.668 79.067,81.451 79.2,81.251C79.3,81.018 79.4,80.801 79.5,80.601L84.8,70.301C84.9,70.068 85.017,69.835 85.15,69.601C85.25,69.401 85.35,69.184 85.45,68.951C85.55,68.718 85.65,68.468 85.75,68.201C85.85,68.001 85.95,67.784 86.05,67.551C86.15,67.318 86.25,67.085 86.35,66.851C86.45,66.617 86.55,66.401 86.65,66.201C86.717,65.968 86.783,65.734 86.85,65.501C86.95,65.268 87.033,65.034 87.1,64.801C87.2,64.601 87.283,64.384 87.35,64.151C87.416,63.918 87.483,63.684 87.55,63.451C87.617,63.218 87.667,63.001 87.7,62.801C87.766,62.534 87.833,62.284 87.9,62.051C87.967,61.718 88.033,61.384 88.1,61.051C88.166,60.718 88.217,60.384 88.25,60.051C88.283,59.718 88.317,59.384 88.35,59.051L88.35,56.801C88.35,56.368 88.317,55.968 88.25,55.601C88.25,55.201 88.217,54.801 88.15,54.401C88.084,54.034 88.017,53.668 87.95,53.301C87.883,52.901 87.8,52.518 87.7,52.151C87.633,51.784 87.533,51.434 87.4,51.101C87.334,50.734 87.217,50.384 87.05,50.051C86.95,49.718 86.834,49.384 86.7,49.051C86.433,48.418 86.133,47.818 85.8,47.251C85.433,46.684 85.05,46.151 84.65,45.651C84.25,45.151 83.817,44.718 83.35,44.351C82.916,43.917 82.416,43.551 81.85,43.251C81.35,42.918 80.8,42.668 80.2,42.501C79.633,42.301 79.033,42.151 78.4,42.051C77.933,41.985 77.467,41.951 77,41.951L76.4,42C76.033,42 75.683,42.033 75.35,42.1C74.983,42.133 74.6,42.2 74.2,42.3C73.666,42.4 73.15,42.55 72.65,42.75C72.183,42.917 71.733,43.133 71.3,43.4C70.867,43.6 70.467,43.834 70.1,44.1C69.733,44.4 69.4,44.7 69.1,45C68.767,45.267 68.483,45.583 68.25,45.95C68.017,46.25 67.8,46.567 67.6,46.9C67.433,47.267 67.283,47.617 67.15,47.95C67.017,48.317 66.933,48.666 66.9,49C66.834,49.367 66.8,49.717 66.8,50.05C66.834,50.383 66.9,50.717 67,51.05C67.067,51.383 67.183,51.7 67.35,52C67.483,52.3 67.666,52.583 67.9,52.85C68.467,53.517 68.917,54.133 69.25,54.7C69.617,55.333 69.867,55.916 70,56.45C70.133,56.983 70.183,57.483 70.15,57.95C70.117,58.416 70,58.85 69.8,59.25C69.633,59.617 69.383,59.933 69.05,60.2C68.717,60.5 68.35,60.75 67.95,60.95C67.817,60.983 67.717,61.033 67.65,61.1C67.517,61.1 67.4,61.117 67.3,61.15C67.2,61.183 67.084,61.2 66.95,61.2C66.85,61.233 66.733,61.25 66.6,61.25L66.2,61.25C66.1,61.25 66.016,61.233 65.95,61.2L65.6,61.2C65.467,61.166 65.35,61.133 65.25,61.1C65.15,61.067 65.033,61.017 64.9,60.95C64.8,60.916 64.683,60.883 64.55,60.85C64.45,60.783 64.35,60.717 64.25,60.65C64.117,60.584 64,60.517 63.9,60.45C63.767,60.383 63.667,60.3 63.6,60.2C63.467,60.133 63.367,60.067 63.3,60C63.167,59.9 63.05,59.8 62.95,59.7C62.883,59.6 62.8,59.483 62.7,59.35C62.6,59.25 62.516,59.15 62.45,59.05C62.35,58.917 62.266,58.8 62.2,58.7C62.1,58.567 62.016,58.433 61.95,58.3C61.883,58.167 61.817,58.033 61.75,57.9C61.683,57.733 61.633,57.584 61.6,57.45C61.533,57.283 61.467,57.117 61.4,56.95C61.367,56.783 61.317,56.617 61.25,56.45L61.25,56.35C61.239,56.188 61.206,56.038 61.15,55.9C61.117,55.5 61.084,55.1 61.05,54.7C61.017,54.266 61.017,53.867 61.05,53.5C61.05,53.067 61.084,52.667 61.15,52.3C61.15,51.9 61.2,51.517 61.3,51.15C61.367,50.817 61.467,50.467 61.6,50.1C61.666,49.733 61.767,49.383 61.9,49.05C62.033,48.683 62.183,48.35 62.35,48.05C62.55,47.717 62.733,47.4 62.9,47.1C63.267,46.467 63.683,45.867 64.15,45.3C64.65,44.734 65.183,44.2 65.75,43.7C66.317,43.2 66.917,42.75 67.55,42.35C67.85,42.117 68.167,41.916 68.5,41.75C68.833,41.55 69.167,41.367 69.5,41.2C69.867,41.033 70.233,40.867 70.6,40.7C70.967,40.567 71.333,40.433 71.7,40.3C72.067,40.133 72.45,40 72.85,39.9C73.217,39.8 73.6,39.7 74,39.6C74.4,39.5 74.817,39.416 75.25,39.35C75.65,39.283 76.05,39.233 76.45,39.2C76.85,39.133 77.266,39.1 77.7,39.1C78.1,39.067 78.516,39.05 78.95,39.05C79.583,39.05 80.217,39.067 80.85,39.1C81.45,39.166 82.067,39.25 82.7,39.35C83.3,39.483 83.9,39.617 84.5,39.75C85.067,39.917 85.633,40.1 86.2,40.3C86.766,40.5 87.317,40.75 87.85,41.05C88.383,41.283 88.9,41.55 89.4,41.85C89.9,42.15 90.4,42.483 90.9,42.85C91.334,43.183 91.783,43.55 92.25,43.95C92.683,44.35 93.083,44.766 93.45,45.2C93.85,45.633 94.233,46.083 94.6,46.55C94.933,47.017 95.25,47.517 95.55,48.05C95.85,48.55 96.117,49.084 96.35,49.65C96.617,50.217 96.833,50.8 97,51.4C97.2,52 97.367,52.617 97.5,53.25C97.633,53.883 97.733,54.533 97.8,55.2C97.867,55.867 97.9,56.55 97.9,57.25C97.9,57.75 97.883,58.267 97.85,58.8C97.85,59.3 97.817,59.783 97.75,60.25C97.65,60.717 97.567,61.183 97.5,61.65C97.4,62.117 97.3,62.584 97.2,63.05C97.067,63.484 96.933,63.917 96.8,64.35C96.667,64.783 96.517,65.2 96.35,65.6C96.183,66.033 96,66.45 95.8,66.85C95.633,67.25 95.45,67.633 95.25,68C95.05,68.4 94.85,68.8 94.65,69.2C94.417,69.533 94.183,69.883 93.95,70.25C93.717,70.617 93.483,70.967 93.25,71.3C92.983,71.667 92.733,72.033 92.5,72.401C92.333,72.6 92.15,72.817 91.95,73.05C91.817,73.283 91.65,73.5 91.45,73.7C91.283,73.933 91.1,74.167 90.9,74.4C90.733,74.599 90.55,74.816 90.35,75.049C90.183,75.249 90.017,75.449 89.85,75.65C89.65,75.883 89.467,76.099 89.3,76.299L84.4,81.699C84.2,81.899 84.017,82.098 83.85,82.299C83.717,82.499 83.567,82.699 83.4,82.9C83.233,83.099 83.067,83.283 82.9,83.45C82.433,84.083 82.017,84.7 81.65,85.3C81.217,85.901 80.85,86.517 80.55,87.151C80.35,87.451 80.183,87.767 80.05,88.1C79.917,88.434 79.8,88.767 79.7,89.1C79.567,89.401 79.467,89.717 79.4,90.05C79.3,90.417 79.217,90.767 79.15,91.1C79.117,91.234 79.084,91.384 79.05,91.55C79.05,91.717 79.033,91.866 79,92C79,92.134 78.983,92.283 78.95,92.45L78.95,93.95C78.95,94.116 78.967,94.283 79,94.45C79.033,94.65 79.05,94.833 79.05,95C79.117,95.167 79.167,95.333 79.2,95.5C79.233,95.667 79.266,95.85 79.3,96.05C79.367,96.184 79.433,96.35 79.5,96.55C79.533,96.717 79.6,96.884 79.7,97.05C79.766,97.217 79.833,97.384 79.9,97.55C80,97.717 80.084,97.884 80.15,98.05C80.35,98.384 80.584,98.717 80.85,99.05C81.083,99.384 81.367,99.7 81.7,100C82,100.267 82.35,100.55 82.75,100.85C83.15,101.117 83.567,101.384 84,101.651C84.467,101.884 84.95,102.116 85.45,102.35ZM57.55,53.85C56.55,53.683 55.584,53.567 54.65,53.5C54.117,53.467 53.584,53.45 53.05,53.45C52.683,53.416 52.3,53.4 51.9,53.4L51.8,53.4C50.933,53.4 50.117,53.433 49.35,53.5C48.55,53.567 47.767,53.65 47,53.75C46.267,53.883 45.55,54.033 44.85,54.2C44.15,54.367 43.467,54.567 42.8,54.8C42.167,55 41.55,55.234 40.95,55.5C40.35,55.767 39.783,56.067 39.25,56.4C38.717,56.7 38.2,57.017 37.7,57.35C37.2,57.717 36.733,58.1 36.3,58.5C35.9,58.9 35.5,59.333 35.1,59.8C34.7,60.234 34.317,60.683 33.95,61.15C33.617,61.584 33.3,62.067 33,62.6C32.733,63.1 32.45,63.617 32.15,64.15C31.917,64.683 31.7,65.233 31.5,65.8C31.267,66.367 31.067,66.95 30.9,67.55C30.733,68.15 30.584,68.75 30.45,69.35C30.316,69.95 30.2,70.567 30.1,71.2C29.967,71.833 29.867,72.467 29.8,73.099C29.767,73.766 29.734,74.416 29.7,75.049C29.666,75.749 29.666,76.416 29.7,77.049L29.7,79.099C29.766,79.799 29.833,80.499 29.9,81.2C29.967,81.866 30.05,82.55 30.15,83.25C30.217,83.95 30.317,84.65 30.45,85.35C30.583,86.05 30.717,86.734 30.85,87.401C31.017,88.134 31.183,88.834 31.35,89.501C31.517,90.201 31.683,90.885 31.85,91.551C32.05,92.251 32.267,92.935 32.5,93.601C32.7,94.301 32.917,94.968 33.15,95.601C33.383,96.268 33.633,96.935 33.9,97.601C34.167,98.235 34.433,98.868 34.7,99.501C34.933,100.135 35.2,100.768 35.5,101.401C35.767,102.001 36.067,102.6 36.4,103.201C36.7,103.767 37,104.334 37.3,104.901C37.6,105.467 37.917,106.017 38.25,106.55C38.55,107.083 38.867,107.6 39.2,108.1C39.533,108.634 39.867,109.134 40.2,109.6C40.533,110.067 40.867,110.517 41.2,110.951C41.567,111.385 41.916,111.817 42.25,112.251C42.583,112.617 42.933,112.984 43.3,113.351C43.633,113.718 43.967,114.068 44.3,114.402C44.667,114.702 45.033,114.985 45.4,115.252C45.733,115.519 46.084,115.769 46.45,116.002C46.783,116.202 47.133,116.402 47.5,116.602C47.833,116.769 48.167,116.903 48.5,117.002C48.833,117.101 49.183,117.186 49.55,117.252C49.883,117.318 50.2,117.352 50.5,117.352L51.8,117.352C52,117.319 52.2,117.286 52.4,117.252C52.6,117.252 52.8,117.235 53,117.202C53.167,117.169 53.367,117.152 53.6,117.152C53.767,117.118 53.933,117.085 54.1,117.051C54.267,117.018 54.45,116.985 54.65,116.951C54.817,116.885 54.983,116.834 55.15,116.801C55.317,116.768 55.467,116.718 55.6,116.652C55.867,116.585 56.117,116.518 56.35,116.452C56.583,116.351 56.8,116.268 57,116.202C57.2,116.101 57.417,116.002 57.65,115.902C57.85,115.801 58.033,115.718 58.2,115.652C58.4,115.518 58.583,115.402 58.75,115.301C58.95,115.201 59.133,115.101 59.3,115.001C59.467,114.867 59.617,114.751 59.75,114.651C59.917,114.55 60.083,114.434 60.25,114.3C60.417,114.2 60.567,114.083 60.7,113.95C60.833,113.816 60.967,113.7 61.1,113.599C61.233,113.466 61.367,113.349 61.5,113.249C61.633,113.149 61.767,113.032 61.9,112.899L63.5,111.298L64.05,110.748C64.183,110.682 64.283,110.614 64.35,110.548C64.45,110.482 64.55,110.415 64.65,110.348C64.75,110.282 64.834,110.215 64.9,110.149C64.967,110.115 65.067,110.065 65.2,109.999C65.266,109.966 65.333,109.933 65.4,109.899C65.5,109.899 65.617,109.882 65.75,109.848L66.25,109.848C66.317,109.882 66.383,109.899 66.45,109.899C66.516,109.932 66.583,109.965 66.65,109.999C66.717,110.032 66.783,110.065 66.85,110.099C66.916,110.166 66.983,110.216 67.05,110.249C67.117,110.315 67.183,110.383 67.25,110.449C67.317,110.515 67.367,110.582 67.4,110.649C67.467,110.715 67.533,110.782 67.6,110.848C67.633,110.949 67.683,111.032 67.75,111.098C67.85,111.199 67.917,111.298 67.95,111.399L69.45,113.949C69.55,114.049 69.633,114.166 69.7,114.299C69.766,114.4 69.85,114.499 69.95,114.599C70.016,114.733 70.1,114.849 70.2,114.95C70.3,115.083 70.383,115.2 70.45,115.3C70.55,115.401 70.65,115.5 70.75,115.6C70.817,115.701 70.9,115.817 71,115.951C71.133,116.051 71.25,116.135 71.35,116.201C71.45,116.334 71.55,116.434 71.65,116.501C71.75,116.601 71.883,116.701 72.05,116.801L72.05,116.851C72.15,116.885 72.25,116.952 72.35,117.051C72.483,117.117 72.633,117.185 72.8,117.251C72.933,117.317 73.067,117.385 73.2,117.451C73.333,117.517 73.483,117.584 73.65,117.651C73.783,117.684 73.933,117.734 74.1,117.8C74.2,117.833 74.333,117.866 74.5,117.901C74.633,117.934 74.767,117.967 74.9,118.001C75.033,118.001 75.183,118.018 75.35,118.051C75.483,118.084 75.633,118.101 75.8,118.101C75.967,118.135 76.133,118.168 76.3,118.202L77.4,118.202C77.567,118.169 77.733,118.136 77.9,118.101C78.1,118.101 78.283,118.084 78.45,118.051C78.65,118.018 78.85,117.968 79.05,117.902C79.417,117.801 79.817,117.652 80.25,117.452C80.617,117.285 81,117.068 81.4,116.802C81.467,116.769 81.533,116.719 81.6,116.653C81.836,116.468 82.061,116.286 82.275,116.102C82.335,116.052 82.394,116.001 82.45,115.953C82.383,116.019 82.333,116.086 82.3,116.153C82.288,116.177 82.271,116.203 82.25,116.227L82.225,116.252C82.202,116.273 82.177,116.289 82.15,116.302C82.05,116.469 81.933,116.636 81.8,116.802C81.7,116.969 81.567,117.118 81.4,117.252C81.295,117.384 81.187,117.517 81.075,117.652C81.053,117.683 81.028,117.716 81,117.752C80.867,117.886 80.717,118.035 80.55,118.202C80.417,118.335 80.283,118.485 80.15,118.652C79.817,118.919 79.467,119.169 79.1,119.402C78.767,119.669 78.4,119.902 78,120.101C77.567,120.301 77.133,120.468 76.7,120.601C76.233,120.768 75.75,120.885 75.25,120.952C74.717,121.052 74.15,121.101 73.55,121.101C73.417,121.101 73.267,121.084 73.1,121.051C72.967,121.051 72.833,121.034 72.7,121.001C72.567,121.001 72.433,120.984 72.3,120.951C72.167,120.918 72.033,120.885 71.9,120.85C71.767,120.817 71.633,120.767 71.5,120.701C71.367,120.668 71.25,120.617 71.15,120.551C71.017,120.518 70.883,120.468 70.75,120.402C70.617,120.368 70.5,120.318 70.4,120.252C70.267,120.186 70.15,120.118 70.05,120.052C69.95,119.986 69.834,119.903 69.7,119.802C69.6,119.736 69.483,119.669 69.35,119.602C69.25,119.536 69.15,119.469 69.05,119.403C68.917,119.302 68.8,119.219 68.7,119.153C68.567,119.052 68.467,118.953 68.4,118.852L66.5,117.403C66.4,117.302 66.3,117.219 66.2,117.153C66.1,117.086 66,117.019 65.9,116.953C65.8,116.887 65.7,116.819 65.6,116.753C65.467,116.653 65.367,116.569 65.3,116.503C65.167,116.437 65.067,116.387 65,116.353C64.867,116.287 64.767,116.237 64.7,116.204C64.567,116.138 64.45,116.087 64.35,116.054C64.25,116.021 64.15,115.971 64.05,115.905C63.95,115.871 63.834,115.838 63.7,115.804C63.6,115.771 63.5,115.754 63.4,115.754C63.267,115.721 63.167,115.704 63.1,115.704C62.967,115.671 62.85,115.654 62.75,115.654C62.617,115.654 62.5,115.671 62.4,115.704C62.3,115.704 62.183,115.721 62.05,115.754C61.95,115.754 61.834,115.771 61.7,115.804C61.6,115.837 61.5,115.87 61.4,115.905C61.3,115.938 61.183,115.971 61.05,116.005C60.95,116.071 60.85,116.121 60.75,116.155C60.65,116.188 60.533,116.238 60.4,116.304C60.3,116.37 60.2,116.421 60.1,116.454C59.967,116.52 59.85,116.587 59.75,116.654C59.65,116.72 59.55,116.787 59.45,116.853L56.55,118.654C56.417,118.72 56.283,118.803 56.15,118.904C56.017,118.97 55.867,119.037 55.7,119.103C55.567,119.204 55.433,119.287 55.3,119.353C55.167,119.42 55.017,119.487 54.85,119.553C54.717,119.619 54.567,119.687 54.4,119.753C54.233,119.786 54.067,119.853 53.9,119.953C53.767,120.019 53.6,120.069 53.4,120.102C53.233,120.136 53.084,120.186 52.95,120.252C52.75,120.318 52.567,120.368 52.4,120.402C52.2,120.435 52.017,120.468 51.85,120.502C51.65,120.535 51.467,120.552 51.3,120.552C51.1,120.618 50.9,120.653 50.7,120.653C50.5,120.653 50.283,120.67 50.05,120.703L49.45,120.703C48.35,120.703 47.25,120.653 46.15,120.553C45.084,120.453 44.033,120.32 43,120.154C41.967,119.921 40.95,119.671 39.95,119.404C38.916,119.137 37.916,118.82 36.95,118.454C36.016,118.087 35.1,117.687 34.2,117.254C33.266,116.82 32.367,116.337 31.5,115.804C30.6,115.271 29.75,114.721 28.95,114.155C28.117,113.588 27.3,112.971 26.5,112.304C25.7,111.671 24.933,111.004 24.2,110.304C23.467,109.604 22.75,108.87 22.05,108.104C21.317,107.337 20.633,106.554 20,105.754C19.333,104.954 18.7,104.138 18.1,103.304C17.5,102.438 16.916,101.571 16.35,100.704C15.783,99.804 15.25,98.904 14.75,98.004C14.217,97.104 13.717,96.171 13.25,95.204C12.783,94.27 12.333,93.32 11.9,92.353C11.5,91.42 11.117,90.454 10.75,89.454C10.383,88.454 10.05,87.454 9.75,86.454C9.417,85.487 9.117,84.504 8.85,83.504C8.583,82.471 8.333,81.471 8.1,80.504C7.9,79.504 7.717,78.504 7.55,77.504C7.383,76.504 7.234,75.504 7.1,74.504C7,73.504 6.933,72.521 6.9,71.554C6.834,70.588 6.8,69.621 6.8,68.654C6.8,67.721 6.817,66.787 6.85,65.854C6.883,64.917 6.967,64 7.1,63.1C7.166,62.2 7.283,61.317 7.45,60.45C7.617,59.583 7.817,58.733 8.05,57.9C8.25,57.067 8.484,56.267 8.75,55.5C9.017,54.7 9.317,53.933 9.65,53.2C9.983,52.467 10.35,51.75 10.75,51.05C11.15,50.383 11.567,49.75 12,49.15C12.433,48.517 12.917,47.917 13.45,47.35C13.95,46.817 14.483,46.3 15.05,45.8C15.617,45.334 16.217,44.883 16.85,44.45C17.45,44.05 18.117,43.7 18.85,43.4C19.517,43.033 20.217,42.733 20.95,42.5C21.717,42.267 22.5,42.067 23.3,41.9C23.967,41.767 24.65,41.683 25.35,41.65C26.017,41.584 26.7,41.55 27.4,41.55L28.6,41.55C29.533,41.617 30.5,41.717 31.5,41.85C32.533,42.017 33.583,42.217 34.65,42.45C35.717,42.717 36.817,43.033 37.95,43.4C39.083,43.8 40.25,44.25 41.45,44.75C42.65,45.217 43.883,45.767 45.15,46.4C46.45,47 47.767,47.7 49.1,48.5C50.067,49.033 51.067,49.617 52.1,50.25C52.166,50.283 52.25,50.333 52.35,50.4C52.617,50.567 52.9,50.75 53.2,50.95C53.9,51.35 54.583,51.783 55.25,52.25L55.55,52.45C55.65,52.516 55.767,52.583 55.9,52.65L56.65,53.175C56.952,53.381 57.252,53.606 57.55,53.85ZM78.45,103.15C78.85,103.216 79.233,103.333 79.6,103.5C79.967,103.634 80.317,103.816 80.65,104.05C80.983,104.283 81.3,104.533 81.6,104.8C81.867,105.1 82.117,105.417 82.35,105.75C82.583,106.083 82.767,106.434 82.9,106.8C83.067,107.167 83.183,107.55 83.25,107.95C83.35,108.349 83.4,108.766 83.4,109.2C83.4,109.766 83.334,110.316 83.2,110.849C83.033,111.383 82.817,111.883 82.55,112.349C82.283,112.783 81.967,113.2 81.6,113.599C81.2,113.966 80.783,114.283 80.35,114.549C79.883,114.816 79.383,115.032 78.85,115.199C78.317,115.332 77.767,115.399 77.2,115.399C76.633,115.399 76.083,115.332 75.55,115.199C75.017,115.032 74.517,114.815 74.05,114.549C73.617,114.282 73.2,113.966 72.8,113.599C72.433,113.2 72.117,112.783 71.85,112.349C71.583,111.883 71.367,111.383 71.2,110.849C71.067,110.316 71,109.766 71,109.2C71,108.634 71.067,108.083 71.2,107.55C71.367,107.017 71.583,106.517 71.85,106.05C72.117,105.616 72.433,105.2 72.8,104.8C73.2,104.434 73.617,104.116 74.05,103.85C74.517,103.583 75.017,103.367 75.55,103.201C76.084,103.067 76.633,103.001 77.2,103.001C77.633,103 78.05,103.05 78.45,103.15Z" style="fill:rgb(192,29,32);"/>
        </g>
        <g transform="matrix(0.232904,0,0,0.232904,-1.33375,-4.94387)">
            <path d="M43.1,24.6L43.2,24.75L43.3,25.05C43.334,25.117 43.383,25.217 43.45,25.35C43.516,25.416 43.583,25.533 43.65,25.7C43.717,25.8 43.783,25.9 43.85,26C43.95,26.133 44.033,26.283 44.1,26.45C44.166,26.583 44.267,26.717 44.4,26.85C44.5,26.983 44.6,27.133 44.7,27.3C44.8,27.433 44.916,27.567 45.05,27.7C45.15,27.833 45.267,27.967 45.4,28.1C45.633,28.367 45.9,28.617 46.2,28.85C46.5,29.083 46.8,29.267 47.1,29.4C46.933,29.7 46.767,30.067 46.6,30.5C46.467,30.9 46.35,31.333 46.25,31.8C46.183,32.3 46.15,32.817 46.15,33.35C46.117,33.916 46.133,34.517 46.2,35.15C46.233,35.75 46.333,36.383 46.5,37.05C46.567,37.383 46.65,37.717 46.75,38.05C46.817,38.417 46.917,38.767 47.05,39.1C47.15,39.433 47.283,39.783 47.45,40.15C47.583,40.483 47.733,40.834 47.9,41.2C48.067,41.567 48.25,41.916 48.45,42.25C48.65,42.617 48.867,42.983 49.1,43.35C49.333,43.717 49.567,44.067 49.8,44.4C50.067,44.767 50.334,45.133 50.6,45.5C50.9,45.833 51.217,46.183 51.55,46.55C51.85,46.883 52.167,47.217 52.5,47.55C52.867,47.883 53.233,48.234 53.6,48.6C54,48.933 54.4,49.267 54.8,49.6C55.234,49.933 55.683,50.25 56.15,50.55C56.584,50.883 57.05,51.2 57.55,51.5C56.55,51 55.584,50.467 54.65,49.9C53.717,49.367 52.867,48.8 52.1,48.2C51.267,47.567 50.483,46.916 49.75,46.25C49.05,45.617 48.4,44.95 47.8,44.25C47.167,43.517 46.6,42.8 46.1,42.1C45.6,41.333 45.15,40.567 44.75,39.8C44.317,39.033 43.95,38.234 43.65,37.4C43.317,36.6 43.067,35.783 42.9,34.95C42.7,34.117 42.55,33.266 42.45,32.4C42.35,31.533 42.3,30.667 42.3,29.8C42.3,28.9 42.367,28 42.5,27.1C42.633,26.233 42.817,25.333 43.05,24.4L43.1,24.6Z" style="fill:rgb(20,23,84);"/>
        </g>
        <g transform="matrix(0.232904,0,0,0.232904,-1.33375,-4.94387)">
            <path d="M58.2,78.7C58.266,78.7 58.333,78.717 58.4,78.75L58.7,78.75C58.833,78.783 58.95,78.816 59.05,78.85C59.183,78.884 59.3,78.917 59.4,78.951C59.5,78.985 59.617,79.034 59.75,79.1C59.85,79.1 59.933,79.134 60,79.201C60.1,79.234 60.183,79.267 60.25,79.301C60.317,79.367 60.4,79.435 60.5,79.501C60.567,79.534 60.633,79.584 60.7,79.651C60.733,79.717 60.783,79.784 60.85,79.85C60.916,79.917 60.983,79.984 61.05,80.05C61.084,80.083 61.133,80.134 61.2,80.2C61.233,80.266 61.283,80.333 61.35,80.4C61.35,80.466 61.383,80.533 61.45,80.599C61.483,80.633 61.516,80.683 61.55,80.749L61.65,80.899L61.7,81L61.75,81.15L61.8,81.25L61.8,81.3L61.55,81.45L60.85,81.599C60.783,81.633 60.717,81.65 60.65,81.65C60.55,81.65 60.467,81.667 60.4,81.7L59.6,81.7C59.5,81.667 59.416,81.65 59.35,81.65C59.25,81.65 59.15,81.633 59.05,81.599C58.95,81.566 58.867,81.533 58.8,81.499C58.667,81.466 58.55,81.416 58.45,81.349C58.35,81.283 58.25,81.233 58.15,81.2C58.017,81.134 57.917,81.066 57.85,81C57.75,80.934 57.65,80.866 57.55,80.8C57.484,80.734 57.4,80.684 57.3,80.651C57.234,80.584 57.167,80.517 57.1,80.451C57.033,80.385 56.983,80.317 56.95,80.251C56.916,80.185 56.867,80.117 56.8,80.051C56.8,79.985 56.783,79.918 56.75,79.851C56.717,79.785 56.7,79.718 56.7,79.652C56.666,79.518 56.666,79.402 56.7,79.301C56.766,79.168 56.85,79.068 56.95,79.001C56.983,78.935 57.033,78.901 57.1,78.901C57.166,78.867 57.233,78.834 57.3,78.8C57.4,78.767 57.484,78.75 57.55,78.75C57.617,78.717 57.7,78.7 57.8,78.7L58.2,78.7ZM59.4,83.25C59.433,83.25 59.5,83.233 59.6,83.2C59.666,83.167 59.733,83.15 59.8,83.15C59.867,83.15 59.95,83.133 60.05,83.099C60.117,83.099 60.2,83.082 60.3,83.049L60.75,83.049C60.817,83.049 60.883,83.066 60.95,83.099C60.983,83.099 61.033,83.116 61.1,83.15L61.25,83.15C61.317,83.183 61.383,83.216 61.45,83.25C61.483,83.25 61.533,83.267 61.6,83.3L61.75,83.401C61.783,83.434 61.833,83.451 61.9,83.451L62.1,83.651C62.166,83.684 62.233,83.734 62.3,83.8C62.334,83.8 62.367,83.817 62.4,83.85L62.45,83.901L62.3,84.051C62.267,84.084 62.2,84.135 62.1,84.201L62,84.3L61.9,84.35C61.834,84.384 61.783,84.417 61.75,84.451C61.717,84.485 61.667,84.517 61.6,84.551C61.567,84.584 61.533,84.617 61.5,84.652C61.433,84.652 61.367,84.669 61.3,84.702C61.267,84.735 61.217,84.752 61.15,84.752C61.084,84.752 61.017,84.769 60.95,84.802C60.883,84.835 60.817,84.852 60.75,84.852L60.1,84.852C60,84.852 59.916,84.835 59.85,84.802C59.783,84.769 59.717,84.752 59.65,84.752C59.584,84.752 59.517,84.735 59.45,84.702C59.383,84.669 59.317,84.652 59.25,84.652C59.183,84.618 59.133,84.585 59.1,84.551C59.067,84.517 59.017,84.485 58.95,84.451C58.916,84.418 58.867,84.385 58.8,84.35C58.8,84.317 58.783,84.284 58.75,84.25C58.717,84.216 58.7,84.167 58.7,84.1L58.7,83.9C58.7,83.833 58.717,83.799 58.75,83.799C58.783,83.733 58.8,83.683 58.8,83.65C58.834,83.616 58.867,83.583 58.9,83.549C58.967,83.516 59.017,83.483 59.05,83.449C59.117,83.416 59.183,83.383 59.25,83.348C59.283,83.316 59.333,83.283 59.4,83.25ZM60.65,88.15C60.683,88.083 60.717,88.033 60.75,88L60.75,87.85C60.817,87.784 60.85,87.734 60.85,87.701C60.916,87.635 60.95,87.567 60.95,87.501C61.016,87.468 61.067,87.418 61.1,87.351C61.133,87.318 61.183,87.268 61.25,87.202C61.283,87.136 61.333,87.085 61.4,87.052C61.467,87.019 61.517,86.986 61.55,86.952C61.584,86.919 61.617,86.886 61.65,86.851C61.683,86.818 61.733,86.785 61.8,86.751C61.867,86.751 61.917,86.734 61.95,86.701C61.983,86.668 62.033,86.651 62.1,86.651C62.133,86.651 62.183,86.634 62.25,86.6L62.5,86.55L62.65,86.55L62.75,86.5L63.1,86.5L63.1,87L62.95,87.4C62.95,87.433 62.933,87.466 62.9,87.5C62.867,87.566 62.85,87.616 62.85,87.65C62.817,87.716 62.783,87.766 62.75,87.799C62.75,87.832 62.717,87.883 62.65,87.949C62.65,87.982 62.617,88.015 62.55,88.049C62.55,88.115 62.517,88.15 62.45,88.15C62.383,88.216 62.333,88.283 62.3,88.349C62.267,88.383 62.2,88.433 62.1,88.499C62.067,88.499 62.017,88.532 61.95,88.599C61.916,88.599 61.867,88.633 61.8,88.7C61.734,88.7 61.667,88.717 61.6,88.75C61.567,88.783 61.533,88.8 61.5,88.8C61.4,88.8 61.333,88.817 61.3,88.85C61.267,88.85 61.217,88.867 61.15,88.901L61.1,88.901C61.067,88.901 61.033,88.884 61,88.85L60.95,88.85L60.85,88.8C60.783,88.8 60.75,88.783 60.75,88.75C60.683,88.684 60.65,88.616 60.65,88.55L60.65,88.15ZM67.4,77.3C67.5,77.366 67.6,77.434 67.7,77.5C67.766,77.6 67.817,77.7 67.85,77.8L67.85,78.25C67.817,78.316 67.783,78.4 67.75,78.5C67.75,78.566 67.717,78.65 67.65,78.75C67.617,78.816 67.584,78.9 67.55,79C67.484,79.066 67.417,79.15 67.35,79.25C67.317,79.35 67.267,79.434 67.2,79.5C67.133,79.6 67.05,79.684 66.95,79.75C66.883,79.85 66.8,79.95 66.7,80.05C66.633,80.116 66.55,80.184 66.45,80.25C66.35,80.316 66.266,80.384 66.2,80.45C66.133,80.483 66.05,80.533 65.95,80.599C65.883,80.633 65.817,80.666 65.75,80.7C65.65,80.733 65.567,80.766 65.5,80.8C65.4,80.833 65.3,80.866 65.2,80.901C65.133,80.901 65.067,80.918 65,80.951C64.9,80.951 64.817,80.968 64.75,81.001L64.5,81.001L64.3,81.051L63.5,81.051L63.5,80.751L63.6,80.251L63.7,80.051C63.7,79.951 63.717,79.867 63.75,79.801C63.783,79.735 63.8,79.652 63.8,79.551C63.867,79.485 63.917,79.418 63.95,79.351C63.983,79.251 64.016,79.168 64.05,79.101C64.117,79.035 64.167,78.968 64.2,78.902C64.233,78.801 64.283,78.718 64.35,78.652C64.416,78.585 64.483,78.518 64.55,78.452C64.617,78.386 64.683,78.318 64.75,78.252C64.85,78.186 64.95,78.118 65.05,78.052C65.15,77.952 65.234,77.868 65.3,77.802C65.433,77.769 65.55,77.719 65.65,77.653C65.717,77.619 65.817,77.569 65.95,77.503C66.016,77.47 66.1,77.437 66.2,77.403C66.3,77.369 66.4,77.336 66.5,77.302L66.75,77.302C66.817,77.269 66.9,77.252 67,77.252L67.2,77.252C67.267,77.283 67.333,77.3 67.4,77.3ZM64.35,82.9C64.416,82.833 64.467,82.783 64.5,82.75C64.533,82.717 64.583,82.684 64.65,82.65C64.683,82.616 64.733,82.583 64.8,82.549C64.834,82.516 64.883,82.483 64.95,82.449C64.983,82.416 65.033,82.383 65.1,82.348C65.166,82.315 65.233,82.298 65.3,82.298C65.433,82.265 65.55,82.232 65.65,82.198C65.783,82.198 65.9,82.181 66,82.148L66.5,82.148C66.533,82.148 66.583,82.165 66.65,82.198C66.817,82.198 66.967,82.231 67.1,82.298C67.233,82.365 67.317,82.465 67.35,82.598L67.35,82.848C67.35,82.915 67.333,82.965 67.3,82.998C67.267,83.031 67.25,83.081 67.25,83.148C67.217,83.148 67.183,83.181 67.15,83.248C67.084,83.281 67.033,83.314 67,83.348C66.933,83.415 66.883,83.465 66.85,83.498C66.817,83.531 66.767,83.564 66.7,83.598C66.633,83.665 66.567,83.715 66.5,83.748C66.433,83.781 66.367,83.814 66.3,83.848C66.2,83.882 66.117,83.915 66.05,83.949C65.983,83.983 65.9,84 65.8,84C65.767,84.033 65.717,84.05 65.65,84.05C65.584,84.083 65.5,84.1 65.4,84.1L64.9,84.1C64.834,84.067 64.767,84.05 64.7,84.05L64.4,84L64.25,83.9L64.15,83.9C64.084,83.833 64.017,83.799 63.95,83.799L63.8,83.749L63.75,83.699L63.85,83.499C63.883,83.466 63.916,83.416 63.95,83.349L64.05,83.249L64.15,83.099C64.183,83.066 64.217,83.033 64.25,82.999C64.283,82.965 64.317,82.934 64.35,82.9ZM63.9,86.35L64.05,86.35C64.117,86.317 64.183,86.284 64.25,86.25L64.5,86.25L64.65,86.2L65.1,86.2C65.133,86.2 65.166,86.217 65.2,86.25L65.4,86.25C65.433,86.25 65.483,86.267 65.55,86.3C65.617,86.333 65.667,86.35 65.7,86.35C65.8,86.417 65.9,86.467 66,86.5C66.1,86.533 66.183,86.583 66.25,86.65C66.35,86.716 66.433,86.783 66.5,86.849C66.567,86.916 66.617,86.983 66.65,87.049C66.75,87.15 66.817,87.266 66.85,87.4C66.883,87.533 66.883,87.65 66.85,87.75C66.817,87.816 66.767,87.866 66.7,87.9C66.7,87.933 66.666,87.95 66.6,87.95C66.567,87.983 66.533,88 66.5,88C66.433,88.033 66.383,88.05 66.35,88.05L65.85,88.05C65.783,88.017 65.717,87.984 65.65,87.95L65.45,87.95C65.383,87.917 65.317,87.884 65.25,87.849C65.183,87.849 65.117,87.816 65.05,87.749C65.017,87.749 64.967,87.732 64.9,87.699C64.867,87.666 64.834,87.633 64.8,87.598C64.734,87.565 64.683,87.532 64.65,87.498C64.584,87.465 64.533,87.432 64.5,87.398C64.467,87.364 64.433,87.331 64.4,87.297C64.367,87.231 64.35,87.181 64.35,87.148L64.15,86.948L64.1,86.8L64.05,86.75C64.017,86.684 63.984,86.616 63.95,86.55L63.9,86.45L63.9,86.35Z" style="fill:rgb(127,128,128);"/>
        </g>
        <g transform="matrix(0.232904,0,0,0.232904,-1.33375,-4.94387)">
            <path d="M82.45,115.95C82.393,115.999 82.335,116.05 82.275,116.099C82.062,116.283 81.837,116.465 81.6,116.65C81.533,116.716 81.467,116.766 81.4,116.799C81,117.066 80.617,117.282 80.25,117.449C79.817,117.649 79.417,117.799 79.05,117.899C78.85,117.965 78.65,118.015 78.45,118.048C78.283,118.081 78.1,118.098 77.9,118.098C77.733,118.132 77.567,118.165 77.4,118.199L76.3,118.199C76.133,118.166 75.967,118.133 75.8,118.098C75.633,118.098 75.484,118.081 75.35,118.048C75.183,118.015 75.033,117.998 74.9,117.998C74.767,117.965 74.633,117.932 74.5,117.898C74.333,117.864 74.2,117.831 74.1,117.797C73.933,117.731 73.783,117.681 73.65,117.648C73.483,117.581 73.334,117.514 73.2,117.448C73.066,117.382 72.933,117.314 72.8,117.248C72.633,117.182 72.484,117.114 72.35,117.048C72.25,116.948 72.15,116.882 72.05,116.848L72.05,116.798C71.883,116.698 71.75,116.598 71.65,116.498C71.55,116.432 71.45,116.331 71.35,116.198C71.25,116.132 71.133,116.048 71,115.948C70.9,115.814 70.817,115.698 70.75,115.597C70.65,115.497 70.55,115.398 70.45,115.297C70.383,115.197 70.3,115.08 70.2,114.947C70.1,114.846 70.016,114.73 69.95,114.596C69.85,114.496 69.766,114.397 69.7,114.296C69.633,114.163 69.55,114.046 69.45,113.946L67.95,111.396C67.916,111.295 67.85,111.196 67.75,111.095C67.683,111.029 67.633,110.946 67.6,110.845C67.533,110.779 67.467,110.712 67.4,110.646C67.367,110.579 67.317,110.512 67.25,110.446C67.183,110.38 67.117,110.312 67.05,110.246C66.984,110.213 66.917,110.163 66.85,110.096C66.783,110.063 66.717,110.03 66.65,109.996C66.584,109.963 66.517,109.93 66.45,109.896C66.383,109.896 66.317,109.879 66.25,109.845L65.75,109.845C65.617,109.879 65.5,109.896 65.4,109.896C65.334,109.929 65.267,109.962 65.2,109.996C65.067,110.062 64.967,110.112 64.9,110.146C64.834,110.212 64.75,110.279 64.65,110.345C64.55,110.412 64.45,110.479 64.35,110.545C64.283,110.611 64.183,110.679 64.05,110.745L63.5,111.295L61.9,112.896C61.767,113.029 61.633,113.146 61.5,113.246C61.367,113.346 61.233,113.463 61.1,113.596C60.967,113.697 60.833,113.813 60.7,113.947C60.567,114.08 60.416,114.197 60.25,114.297C60.083,114.431 59.917,114.547 59.75,114.648C59.617,114.748 59.467,114.864 59.3,114.998C59.133,115.098 58.95,115.198 58.75,115.298C58.583,115.399 58.4,115.515 58.2,115.649C58.033,115.715 57.85,115.798 57.65,115.899C57.417,115.999 57.2,116.098 57,116.199C56.8,116.265 56.583,116.348 56.35,116.449C56.117,116.515 55.867,116.582 55.6,116.649C55.467,116.715 55.317,116.765 55.15,116.798C54.983,116.831 54.817,116.882 54.65,116.948C54.45,116.981 54.267,117.014 54.1,117.048C53.933,117.081 53.767,117.114 53.6,117.149C53.367,117.149 53.166,117.166 53,117.199C52.8,117.232 52.6,117.249 52.4,117.249C52.2,117.282 52,117.315 51.8,117.349L50.5,117.349C50.2,117.349 49.883,117.316 49.55,117.249C49.183,117.183 48.834,117.099 48.5,116.999C48.166,116.899 47.833,116.766 47.5,116.599C47.133,116.4 46.783,116.2 46.45,115.999C46.083,115.766 45.733,115.516 45.4,115.249C45.033,114.982 44.667,114.699 44.3,114.399C43.967,114.065 43.633,113.715 43.3,113.348C42.933,112.982 42.584,112.615 42.25,112.248C41.917,111.814 41.567,111.382 41.2,110.948C40.867,110.514 40.533,110.064 40.2,109.597C39.867,109.131 39.533,108.631 39.2,108.097C38.867,107.597 38.55,107.08 38.25,106.547C37.917,106.014 37.6,105.464 37.3,104.898C37,104.331 36.7,103.764 36.4,103.198C36.067,102.597 35.767,101.998 35.5,101.398C35.2,100.764 34.933,100.131 34.7,99.498C34.433,98.864 34.166,98.231 33.9,97.598C33.633,96.932 33.383,96.265 33.15,95.598C32.917,94.965 32.7,94.298 32.5,93.598C32.267,92.932 32.05,92.248 31.85,91.548C31.683,90.882 31.517,90.198 31.35,89.498C31.183,88.831 31.017,88.132 30.85,87.398C30.717,86.731 30.583,86.047 30.45,85.347C30.317,84.648 30.217,83.948 30.15,83.247C30.05,82.547 29.967,81.863 29.9,81.197C29.834,80.497 29.767,79.797 29.7,79.096L29.7,77.046C29.666,76.413 29.666,75.746 29.7,75.046C29.733,74.413 29.766,73.763 29.8,73.096C29.867,72.463 29.967,71.829 30.1,71.197C30.2,70.564 30.317,69.947 30.45,69.347C30.583,68.747 30.733,68.147 30.9,67.547C31.067,66.947 31.267,66.364 31.5,65.797C31.7,65.231 31.917,64.68 32.15,64.147C32.45,63.614 32.733,63.097 33,62.597C33.3,62.064 33.617,61.58 33.95,61.147C34.317,60.68 34.7,60.23 35.1,59.797C35.5,59.331 35.9,58.897 36.3,58.497C36.734,58.097 37.2,57.714 37.7,57.347C38.2,57.014 38.717,56.697 39.25,56.397C39.783,56.064 40.35,55.764 40.95,55.497C41.55,55.23 42.166,54.997 42.8,54.797C43.467,54.564 44.15,54.364 44.85,54.197C45.55,54.03 46.267,53.88 47,53.747C47.767,53.647 48.55,53.564 49.35,53.497C50.117,53.43 50.933,53.397 51.8,53.397L51.9,53.397C52.3,53.397 52.683,53.414 53.05,53.447C53.584,53.447 54.117,53.464 54.65,53.497C55.584,53.564 56.55,53.68 57.55,53.847L61.25,56.347L61.25,56.447C61.317,56.614 61.367,56.78 61.4,56.947C61.467,57.114 61.533,57.28 61.6,57.447C61.633,57.58 61.683,57.73 61.75,57.897C61.817,58.03 61.883,58.164 61.95,58.297C62.016,58.43 62.1,58.564 62.2,58.697C62.266,58.797 62.35,58.913 62.45,59.047C62.516,59.147 62.6,59.247 62.7,59.347C62.8,59.48 62.883,59.597 62.95,59.697C63.05,59.797 63.166,59.897 63.3,59.997C63.367,60.064 63.467,60.13 63.6,60.197C63.666,60.297 63.767,60.38 63.9,60.447C64,60.513 64.117,60.58 64.25,60.647C64.35,60.714 64.45,60.78 64.55,60.847C64.683,60.88 64.8,60.913 64.9,60.947C65.033,61.013 65.15,61.064 65.25,61.097C65.35,61.13 65.467,61.163 65.6,61.197L65.95,61.197C66.016,61.23 66.1,61.247 66.2,61.247L66.6,61.247C66.733,61.247 66.85,61.23 66.95,61.197C67.083,61.197 67.2,61.18 67.3,61.147C67.4,61.114 67.517,61.097 67.65,61.097C67.717,61.03 67.817,60.98 67.95,60.947C68.35,60.747 68.717,60.497 69.05,60.197C69.383,59.93 69.633,59.614 69.8,59.247C70,58.847 70.117,58.414 70.15,57.947C70.183,57.48 70.133,56.98 70,56.447C69.867,55.913 69.617,55.33 69.25,54.697C68.917,54.13 68.467,53.513 67.9,52.847C67.667,52.58 67.483,52.297 67.35,51.997C67.183,51.697 67.067,51.38 67,51.047C66.9,50.714 66.833,50.38 66.8,50.047C66.8,49.714 66.834,49.364 66.9,48.997C66.933,48.664 67.017,48.314 67.15,47.947C67.283,47.614 67.433,47.263 67.6,46.897C67.8,46.564 68.017,46.247 68.25,45.947C68.483,45.58 68.767,45.263 69.1,44.997C69.4,44.697 69.733,44.397 70.1,44.097C70.467,43.83 70.867,43.597 71.3,43.397C71.734,43.13 72.183,42.914 72.65,42.747C73.15,42.547 73.667,42.397 74.2,42.297C74.6,42.197 74.983,42.13 75.35,42.097C75.683,42.03 76.033,41.997 76.4,41.997L77,41.947C77.467,41.947 77.933,41.98 78.4,42.047C79.033,42.147 79.633,42.297 80.2,42.497C80.8,42.664 81.35,42.914 81.85,43.247C82.416,43.547 82.916,43.914 83.35,44.347C83.817,44.714 84.25,45.147 84.65,45.647C85.05,46.147 85.433,46.68 85.8,47.247C86.133,47.814 86.433,48.414 86.7,49.047C86.833,49.38 86.95,49.714 87.05,50.047C87.217,50.38 87.334,50.731 87.4,51.097C87.533,51.43 87.633,51.78 87.7,52.147C87.8,52.514 87.883,52.897 87.95,53.297C88.016,53.664 88.083,54.03 88.15,54.397C88.217,54.797 88.25,55.197 88.25,55.597C88.317,55.964 88.35,56.364 88.35,56.797L88.35,59.047C88.317,59.38 88.283,59.714 88.25,60.047C88.217,60.38 88.167,60.714 88.1,61.047C88.033,61.38 87.967,61.714 87.9,62.047C87.834,62.28 87.767,62.53 87.7,62.797C87.666,62.997 87.617,63.214 87.55,63.447C87.484,63.68 87.417,63.913 87.35,64.147C87.283,64.38 87.2,64.597 87.1,64.797C87.033,65.03 86.95,65.264 86.85,65.497C86.783,65.73 86.717,65.964 86.65,66.197C86.55,66.397 86.45,66.614 86.35,66.847C86.25,67.08 86.15,67.314 86.05,67.547C85.95,67.78 85.85,67.997 85.75,68.197C85.65,68.464 85.55,68.714 85.45,68.947C85.35,69.18 85.25,69.397 85.15,69.597C85.017,69.83 84.9,70.064 84.8,70.297L79.5,80.597C79.4,80.797 79.3,81.014 79.2,81.247C79.067,81.447 78.95,81.664 78.85,81.897C78.75,82.13 78.65,82.363 78.55,82.596C78.484,82.829 78.4,83.046 78.3,83.246C78.167,83.479 78.067,83.713 78,83.946C77.933,84.146 77.85,84.362 77.75,84.595C77.65,84.828 77.567,85.062 77.5,85.295C77.433,85.495 77.35,85.695 77.25,85.896C77.183,86.129 77.117,86.362 77.05,86.595C76.984,86.929 76.9,87.262 76.8,87.595C76.734,87.896 76.667,88.229 76.6,88.595C76.533,88.896 76.467,89.212 76.4,89.545C76.367,89.879 76.334,90.195 76.3,90.495C76.3,90.695 76.283,90.895 76.25,91.095C76.217,91.295 76.2,91.479 76.2,91.646L76.2,92.295C76.2,92.495 76.217,92.712 76.25,92.945C76.25,93.145 76.267,93.344 76.3,93.545C76.3,93.745 76.317,93.962 76.35,94.195C76.383,94.395 76.416,94.611 76.45,94.844C76.483,95.044 76.533,95.244 76.6,95.445C76.666,95.678 76.733,95.895 76.8,96.094C76.834,96.294 76.9,96.494 77,96.695C77.167,97.094 77.35,97.511 77.55,97.945C77.75,98.311 78,98.678 78.3,99.045C78.567,99.379 78.867,99.712 79.2,100.045C79.567,100.345 79.95,100.629 80.35,100.896L80.4,100.896C80.733,101.095 81.084,101.295 81.45,101.496L81.5,101.496C81.6,101.529 81.717,101.562 81.85,101.596C82.35,101.796 82.9,101.963 83.5,102.096C83.8,102.163 84.117,102.213 84.45,102.246C84.783,102.279 85.117,102.312 85.45,102.346C86.605,106.534 85.605,111.067 82.45,115.95ZM63.9,86.35L63.9,86.451L63.95,86.551C63.983,86.617 64.016,86.685 64.05,86.751L64.1,86.801L64.15,86.951L64.35,87.151C64.35,87.184 64.367,87.234 64.4,87.3C64.433,87.333 64.467,87.366 64.5,87.401C64.533,87.434 64.583,87.467 64.65,87.501C64.683,87.534 64.733,87.567 64.8,87.601C64.834,87.635 64.867,87.668 64.9,87.702C64.967,87.735 65.017,87.752 65.05,87.752C65.117,87.818 65.183,87.852 65.25,87.852C65.317,87.886 65.383,87.919 65.45,87.953L65.65,87.953C65.717,87.986 65.783,88.019 65.85,88.053L66.35,88.053C66.383,88.053 66.433,88.036 66.5,88.003C66.533,88.003 66.567,87.986 66.6,87.953C66.666,87.953 66.7,87.936 66.7,87.903C66.766,87.869 66.817,87.819 66.85,87.753C66.883,87.653 66.883,87.536 66.85,87.403C66.817,87.269 66.75,87.153 66.65,87.052C66.617,86.986 66.567,86.919 66.5,86.852C66.433,86.786 66.35,86.719 66.25,86.653C66.183,86.586 66.1,86.536 66,86.503C65.9,86.47 65.8,86.42 65.7,86.353C65.666,86.353 65.617,86.336 65.55,86.303C65.484,86.27 65.433,86.253 65.4,86.253L65.2,86.253C65.166,86.22 65.133,86.203 65.1,86.203L64.65,86.203L64.5,86.253L64.25,86.253C64.183,86.286 64.117,86.319 64.05,86.353L63.9,86.353L63.9,86.35ZM64.35,82.9C64.317,82.933 64.283,82.966 64.25,83C64.217,83.034 64.183,83.066 64.15,83.1L64.05,83.25L63.95,83.35C63.916,83.417 63.883,83.467 63.85,83.5L63.75,83.7L63.8,83.75L63.95,83.8C64.016,83.8 64.083,83.833 64.15,83.901L64.25,83.901L64.4,84L64.7,84.05C64.766,84.05 64.833,84.067 64.9,84.1L65.4,84.1C65.5,84.1 65.584,84.083 65.65,84.05C65.717,84.05 65.767,84.033 65.8,84C65.9,84 65.984,83.983 66.05,83.95C66.117,83.917 66.2,83.884 66.3,83.849C66.367,83.816 66.433,83.783 66.5,83.749C66.567,83.715 66.633,83.666 66.7,83.599C66.766,83.566 66.817,83.533 66.85,83.499C66.883,83.465 66.933,83.416 67,83.349C67.033,83.316 67.083,83.283 67.15,83.249C67.183,83.183 67.217,83.149 67.25,83.149C67.25,83.082 67.267,83.032 67.3,82.999C67.334,82.966 67.35,82.916 67.35,82.849L67.35,82.599C67.317,82.466 67.233,82.366 67.1,82.299C66.967,82.232 66.817,82.199 66.65,82.199C66.584,82.166 66.533,82.149 66.5,82.149L66,82.149C65.9,82.182 65.783,82.199 65.65,82.199C65.55,82.232 65.433,82.265 65.3,82.299C65.234,82.299 65.167,82.316 65.1,82.349C65.033,82.383 64.983,82.416 64.95,82.45C64.883,82.483 64.833,82.516 64.8,82.55C64.734,82.583 64.683,82.616 64.65,82.651C64.584,82.684 64.533,82.717 64.5,82.751C64.467,82.785 64.417,82.833 64.35,82.9ZM67.4,77.3C67.334,77.3 67.267,77.283 67.2,77.25L67,77.25C66.9,77.25 66.817,77.267 66.75,77.3L66.5,77.3C66.4,77.333 66.3,77.366 66.2,77.401C66.1,77.434 66.016,77.467 65.95,77.501C65.817,77.567 65.717,77.617 65.65,77.651C65.55,77.717 65.433,77.767 65.3,77.8C65.234,77.866 65.15,77.95 65.05,78.05C64.95,78.116 64.85,78.184 64.75,78.25C64.683,78.316 64.617,78.384 64.55,78.45C64.484,78.516 64.417,78.583 64.35,78.65C64.283,78.716 64.233,78.799 64.2,78.9C64.166,78.966 64.117,79.033 64.05,79.099C64.017,79.166 63.984,79.249 63.95,79.349C63.916,79.416 63.867,79.483 63.8,79.549C63.8,79.65 63.783,79.733 63.75,79.799C63.717,79.865 63.7,79.949 63.7,80.049L63.6,80.249L63.5,80.749L63.5,81.049L64.3,81.049L64.5,81L64.75,81C64.817,80.967 64.9,80.95 65,80.95C65.067,80.917 65.133,80.9 65.2,80.9C65.3,80.866 65.4,80.833 65.5,80.799C65.567,80.766 65.65,80.733 65.75,80.699C65.817,80.666 65.883,80.633 65.95,80.598C66.05,80.532 66.133,80.482 66.2,80.449C66.266,80.383 66.35,80.315 66.45,80.249C66.55,80.183 66.633,80.115 66.7,80.049C66.8,79.949 66.883,79.849 66.95,79.749C67.05,79.683 67.133,79.599 67.2,79.499C67.266,79.433 67.317,79.349 67.35,79.249C67.416,79.149 67.483,79.065 67.55,78.999C67.584,78.899 67.617,78.815 67.65,78.749C67.717,78.649 67.75,78.565 67.75,78.499C67.783,78.399 67.817,78.315 67.85,78.249L67.85,77.799C67.817,77.699 67.767,77.599 67.7,77.499C67.6,77.434 67.5,77.366 67.4,77.3ZM60.65,88.15L60.65,88.549C60.65,88.615 60.683,88.683 60.75,88.749C60.75,88.782 60.783,88.799 60.85,88.799L60.95,88.849L61,88.849C61.033,88.883 61.067,88.9 61.1,88.9L61.15,88.9C61.217,88.866 61.267,88.849 61.3,88.849C61.334,88.816 61.4,88.799 61.5,88.799C61.533,88.799 61.567,88.782 61.6,88.749C61.666,88.716 61.733,88.699 61.8,88.699C61.867,88.633 61.917,88.598 61.95,88.598C62.016,88.532 62.067,88.498 62.1,88.498C62.2,88.432 62.267,88.382 62.3,88.348C62.334,88.282 62.383,88.215 62.45,88.149C62.516,88.149 62.55,88.115 62.55,88.048C62.617,88.015 62.65,87.982 62.65,87.948C62.717,87.882 62.75,87.831 62.75,87.798C62.783,87.765 62.817,87.715 62.85,87.649C62.85,87.615 62.867,87.565 62.9,87.499C62.933,87.466 62.95,87.433 62.95,87.399L63.1,87L63.1,86.5L62.75,86.5L62.65,86.55L62.5,86.55L62.25,86.6C62.183,86.634 62.133,86.651 62.1,86.651C62.033,86.651 61.983,86.668 61.95,86.701C61.916,86.734 61.867,86.751 61.8,86.751C61.734,86.784 61.683,86.817 61.65,86.851C61.617,86.885 61.584,86.918 61.55,86.952C61.517,86.985 61.467,87.018 61.4,87.052C61.334,87.085 61.283,87.136 61.25,87.202C61.183,87.268 61.133,87.318 61.1,87.351C61.067,87.418 61.017,87.468 60.95,87.501C60.95,87.567 60.916,87.635 60.85,87.701C60.85,87.734 60.817,87.784 60.75,87.85L60.75,88C60.717,88.033 60.683,88.083 60.65,88.15ZM59.4,83.25C59.334,83.283 59.283,83.316 59.25,83.35C59.183,83.384 59.117,83.417 59.05,83.451C59.017,83.484 58.967,83.517 58.9,83.551C58.867,83.584 58.834,83.617 58.8,83.652C58.8,83.685 58.783,83.735 58.75,83.801C58.717,83.801 58.7,83.834 58.7,83.902L58.7,84.102C58.7,84.169 58.717,84.219 58.75,84.252C58.783,84.285 58.8,84.318 58.8,84.352C58.867,84.386 58.917,84.419 58.95,84.453C59.016,84.486 59.067,84.519 59.1,84.553C59.133,84.587 59.183,84.619 59.25,84.654C59.317,84.654 59.383,84.671 59.45,84.704C59.516,84.737 59.583,84.754 59.65,84.754C59.717,84.754 59.783,84.771 59.85,84.804C59.916,84.837 60,84.854 60.1,84.854L60.75,84.854C60.817,84.854 60.883,84.837 60.95,84.804C61.016,84.771 61.083,84.754 61.15,84.754C61.217,84.754 61.267,84.737 61.3,84.704C61.367,84.671 61.433,84.654 61.5,84.654C61.533,84.62 61.567,84.587 61.6,84.553C61.666,84.52 61.717,84.487 61.75,84.453C61.783,84.419 61.833,84.387 61.9,84.352L62,84.3L62.1,84.2C62.2,84.134 62.267,84.083 62.3,84.05C62.334,84.017 62.367,83.984 62.4,83.95L62.45,83.9L62.4,83.85C62.367,83.817 62.334,83.8 62.3,83.8C62.234,83.734 62.167,83.684 62.1,83.651L61.9,83.451C61.834,83.451 61.783,83.434 61.75,83.401L61.6,83.3C61.533,83.267 61.483,83.25 61.45,83.25C61.383,83.217 61.317,83.184 61.25,83.15L61.1,83.15C61.033,83.116 60.983,83.099 60.95,83.099C60.883,83.066 60.817,83.049 60.75,83.049L60.3,83.049C60.2,83.082 60.117,83.099 60.05,83.099C59.95,83.133 59.867,83.15 59.8,83.15C59.734,83.15 59.667,83.167 59.6,83.2C59.5,83.233 59.433,83.25 59.4,83.25ZM58.2,78.7L57.8,78.7C57.7,78.7 57.617,78.717 57.55,78.75C57.484,78.75 57.4,78.767 57.3,78.8C57.234,78.833 57.167,78.866 57.1,78.901C57.033,78.901 56.983,78.934 56.95,79.001C56.85,79.067 56.766,79.168 56.7,79.301C56.666,79.402 56.666,79.518 56.7,79.652C56.7,79.718 56.717,79.785 56.75,79.851C56.783,79.918 56.8,79.985 56.8,80.051C56.867,80.117 56.917,80.185 56.95,80.251C56.983,80.317 57.033,80.385 57.1,80.451C57.166,80.517 57.233,80.584 57.3,80.651C57.4,80.684 57.484,80.734 57.55,80.8C57.65,80.866 57.75,80.934 57.85,81C57.916,81.066 58.017,81.134 58.15,81.2C58.25,81.233 58.35,81.283 58.45,81.349C58.55,81.416 58.666,81.466 58.8,81.499C58.867,81.532 58.95,81.565 59.05,81.599C59.15,81.633 59.25,81.65 59.35,81.65C59.416,81.65 59.5,81.667 59.6,81.7L60.4,81.7C60.467,81.667 60.55,81.65 60.65,81.65C60.717,81.65 60.783,81.633 60.85,81.599L61.55,81.45L61.8,81.3L61.8,81.25L61.75,81.15L61.7,81L61.65,80.9L61.55,80.75C61.517,80.684 61.484,80.634 61.45,80.6C61.383,80.534 61.35,80.467 61.35,80.401C61.283,80.334 61.233,80.267 61.2,80.201C61.133,80.135 61.083,80.084 61.05,80.051C60.984,79.985 60.917,79.918 60.85,79.851C60.783,79.785 60.733,79.718 60.7,79.652C60.633,79.585 60.567,79.535 60.5,79.502C60.4,79.436 60.317,79.368 60.25,79.302C60.183,79.269 60.1,79.236 60,79.202C59.933,79.136 59.85,79.101 59.75,79.101C59.617,79.035 59.5,78.985 59.4,78.952C59.3,78.919 59.183,78.886 59.05,78.851C58.95,78.818 58.834,78.785 58.7,78.751L58.4,78.751C58.333,78.717 58.267,78.7 58.2,78.7ZM78.45,103.15C78.05,103.049 77.633,103 77.2,103C76.633,103 76.083,103.066 75.55,103.2C75.017,103.366 74.517,103.583 74.05,103.849C73.617,104.116 73.2,104.433 72.8,104.799C72.433,105.199 72.117,105.615 71.85,106.049C71.583,106.516 71.367,107.016 71.2,107.549C71.067,108.082 71,108.633 71,109.199C71,109.765 71.067,110.315 71.2,110.848C71.367,111.382 71.583,111.882 71.85,112.348C72.117,112.782 72.433,113.199 72.8,113.598C73.2,113.965 73.617,114.282 74.05,114.548C74.517,114.815 75.017,115.031 75.55,115.198C76.084,115.331 76.633,115.398 77.2,115.398C77.766,115.398 78.317,115.331 78.85,115.198C79.383,115.031 79.883,114.814 80.35,114.548C80.783,114.281 81.2,113.965 81.6,113.598C81.967,113.199 82.283,112.782 82.55,112.348C82.817,111.882 83.033,111.382 83.2,110.848C83.333,110.315 83.4,109.765 83.4,109.199C83.4,108.765 83.35,108.348 83.25,107.949C83.183,107.549 83.067,107.166 82.9,106.799C82.767,106.433 82.584,106.082 82.35,105.749C82.116,105.416 81.867,105.099 81.6,104.799C81.3,104.532 80.983,104.282 80.65,104.049C80.317,103.816 79.967,103.633 79.6,103.499C79.233,103.333 78.85,103.217 78.45,103.15Z" style="fill:white;"/>
        </g>
    </g>
</svg>
