<svg version="1" viewBox="0 0 55.999 55.999" xmlns="http://www.w3.org/2000/svg"><path d="m27.999 0c-15.512 0-27.999 12.488-27.999 27.999 0 15.512 12.488 27.999 27.999 27.999s27.999-12.488 27.999-27.999c0-15.512-12.488-27.999-27.999-27.999z" fill="#fea238"/><path d="m22.084 17.012c-0.79556 0.04108-1.5782 0.19279-2.0391 0.44141-1.5496 0.83598-2.6926 1.9338-3.0156 3.7188-0.08484 0.46871-0.20641 0.90702-0.26953 0.97266-0.0631 0.06564-0.37235 0.0456-0.6875-0.04492-0.7309-0.2099-1.7773 0.03358-2.6699 0.62305-0.70744 0.46719-1.3646 2.0613-1.5332 3.0488-0.09518 0.55749-0.12875 0.18555-0.68359 0.18555-0.45019 0-0.65222 0.09234-0.89258 0.41016-0.40807 0.53957-0.39096 0.82147 0.05859 1.2891 0.36419 0.37857 0.39563 0.38326 3.1094 0.38086 1.0089-8.69e-4 1.7709-0.02796 2.2949-0.0625 0.29939-0.63768 0.69075-1.244 1.2129-1.7871 2.2247-2.314 5.6548-2.6599 8.3496-1.1738 0.67275-1.1781 1.5076-2.1916 2.502-2.959-0.0039-0.12312-0.13399-0.64257-0.29687-1.1797-0.52699-1.7381-1.6705-2.9862-3.3301-3.6367-0.50679-0.19865-1.3138-0.26765-2.1094-0.22656zm11.861 4.998c-1.5887-0.02893-3.2289 0.44108-4.6777 1.4414-1.385 0.95618-2.3666 2.04-2.8926 3.7754-0.14088 0.46493-0.31932 0.8457-0.39648 0.8457-0.07714 0-0.36924-0.5108-0.65039-0.76758-1.996-1.8229-5.0196-1.705-6.918 0.26953-1.4126 1.4694-1.6723 4.0368-0.95312 5.9863 0.07574 0.20526-0.60068 0.3678-1.2988 0.73438-1.0452 0.54871-1.7234 1.3302-1.9805 2.2852-0.46259 1.718 0.86803 3.5448 2.6836 4.2188 0.75958 0.28237 2.2272 0.26168 3.1016-0.04297 0.64799-0.2258 1.2843-0.81896 5.1738-4.8301 5.1241-5.2844 5.3166-5.926 7.4121-5.9336 1.0611-0.0039 1.8198 0.05747 2.7031 0.50976 1.2016 0.61539 2.0827 2.0905 2.5117 3.2832 0.39939 1.109 0.40282 2.4584 0.0098 3.1289-0.34425 0.58725-1.5927 1.1367-2.2637 1.1367-0.66648 0-1.7867-0.58374-2.0586-1.1797-0.43917-1.019-0.5037-1.9807 0.54879-2.873-2.0869 0.05366-2.3359 0.83068-3 3.2168 0 1.6496 0.83638 3.2351 2.2129 3.6582 0.33619 0.10324 2.2129 0.14474 5.1055 0.11328 4.3577-0.04738 4.6004-0.06656 5.1719-0.38867 0.83778-0.47225 1.801-1.551 2.1777-2.4395 0.37453-0.88338 0.44127-2.5736 0.14844-3.5039-0.55384-1.625-3.1066-3.3773-4.7227-2.2773-0.28247 0.32072-0.55348 0.04028-0.60352-0.01172-0.04998-0.05198 0.22186-0.29701 0.35938-0.78906 0.18364-0.65757 0.23401-1.3126 0.19141-2.4727-0.05422-1.4754-0.09787-1.6658-0.68359-2.9199-1.256-2.6893-3.7642-4.1256-6.4121-4.1738z" opacity=".2"/><path d="m22.084 16.012c-0.79556 0.04108-1.5782 0.19279-2.0391 0.44141-1.5496 0.83598-2.6926 1.9338-3.0156 3.7188-0.08484 0.46871-0.20641 0.90702-0.26953 0.97266-0.0631 0.06564-0.37235 0.0456-0.6875-0.04492-0.7309-0.2099-1.7773 0.03358-2.6699 0.62305-0.70744 0.46719-1.3646 2.0613-1.5332 3.0488-0.09518 0.55749-0.12875 0.18555-0.68359 0.18555-0.45019 0-0.65222 0.09234-0.89258 0.41016-0.40807 0.53957-0.39096 0.82147 0.05859 1.2891 0.36419 0.37857 0.39563 0.38326 3.1094 0.38086 1.0089-8.69e-4 1.7709-0.02796 2.2949-0.0625 0.29939-0.63768 0.69075-1.244 1.2129-1.7871 2.2247-2.314 5.6548-2.6599 8.3496-1.1738 0.67275-1.1781 1.5076-2.1916 2.502-2.959-0.0039-0.12312-0.13399-0.64257-0.29687-1.1797-0.52699-1.7381-1.6705-2.9862-3.3301-3.6367-0.50679-0.19865-1.3138-0.26764-2.1094-0.22656zm11.861 4.998c-1.5887-0.02893-3.2289 0.44108-4.6777 1.4414-1.385 0.95618-2.3666 2.04-2.8926 3.7754-0.14088 0.46493-0.31932 0.8457-0.39648 0.8457-0.07714 0-0.36924-0.5108-0.65039-0.76758-1.996-1.8229-5.0196-1.705-6.918 0.26953-1.4126 1.4694-1.6723 4.0368-0.95312 5.9863 0.07574 0.20526-0.60068 0.3678-1.2988 0.73438-1.0452 0.54871-1.7234 1.3302-1.9805 2.2852-0.46259 1.718 0.86803 3.5448 2.6836 4.2188 0.75958 0.28237 2.2272 0.26168 3.1016-0.04297 0.64799-0.2258 1.2843-0.81896 5.1738-4.8301 5.1241-5.2844 5.3166-5.926 7.4121-5.9336 1.0611-0.0039 1.8198 0.05747 2.7031 0.50976 1.2016 0.61539 2.0827 2.0905 2.5117 3.2832 0.39939 1.109 0.40282 2.4584 0.0098 3.1289-0.34425 0.58725-1.5927 1.1367-2.2637 1.1367-0.66648 0-1.7867-0.58374-2.0586-1.1797-0.43917-1.019-0.5037-1.9807 0.54879-2.873-2.0869 0.05366-2.3359 0.83068-3 3.2168 0 1.6496 0.83638 3.2351 2.2129 3.6582 0.33619 0.10324 2.2129 0.14474 5.1055 0.11328 4.3577-0.04738 4.6004-0.06656 5.1719-0.38867 0.83778-0.47225 1.801-1.551 2.1777-2.4395 0.37453-0.88338 0.44127-2.5736 0.14844-3.5039-0.55384-1.625-3.1066-3.3773-4.7227-2.2773-0.28247 0.32072-0.55348 0.04028-0.60352-0.01172-0.04998-0.05198 0.22186-0.29701 0.35938-0.78906 0.18364-0.65757 0.23401-1.3126 0.19141-2.4727-0.05422-1.4754-0.09787-1.6658-0.68359-2.9199-1.256-2.6893-3.7642-4.1256-6.4121-4.1738z" fill="#fff"/></svg>
