<svg xmlns="http://www.w3.org/2000/svg" viewBox="0.002848982810974121 0.0033077895641326904 38.892303466796875 44.1705436706543">
  <path d="M20.129.286.156,25.833a.729.729,0,0,0,.582,1.176H15.556a.734.734,0,0,0,.722-.586L21.432.876A.736.736,0,0,0,20.129.286Z" transform="translate(0 0)" fill="#b522c1"></path>
  <path d="M21.706,46.775,41.679,21.228a.729.729,0,0,0-.582-1.176H26.278a.734.734,0,0,0-.722.586L20.4,46.185A.736.736,0,0,0,21.706,46.775Z" transform="translate(-2.937 -2.889)" fill="#b522c1"></path>
</svg>