<?xml version="1.0" encoding="UTF-8" standalone="no"?>
<!-- Created with Inkscape (http://www.inkscape.org/) -->

<svg
   version="1.1"
   id="svg2"
   width="175"
   height="175"
   viewBox="0 0 175 175"
   sodipodi:docname="logi.svg"
   xml:space="preserve"
   inkscape:version="1.2.1 (9c6d41e410, 2022-07-14)"
   xmlns:inkscape="http://www.inkscape.org/namespaces/inkscape"
   xmlns:sodipodi="http://sodipodi.sourceforge.net/DTD/sodipodi-0.dtd"
   xmlns="http://www.w3.org/2000/svg"
   xmlns:svg="http://www.w3.org/2000/svg"><defs
     id="defs6" /><sodipodi:namedview
     id="namedview4"
     pagecolor="#ffffff"
     bordercolor="#000000"
     borderopacity="0.25"
     inkscape:showpageshadow="2"
     inkscape:pageopacity="0.0"
     inkscape:pagecheckerboard="0"
     inkscape:deskcolor="#d1d1d1"
     showgrid="false"
     inkscape:zoom="4.9384946"
     inkscape:cx="117.24221"
     inkscape:cy="8.8083523"
     inkscape:window-width="3840"
     inkscape:window-height="2071"
     inkscape:window-x="-9"
     inkscape:window-y="-9"
     inkscape:window-maximized="1"
     inkscape:current-layer="g8" /><g
     inkscape:groupmode="layer"
     id="layer1"
     inkscape:label="background"
     style="fill:#28e9cf;fill-opacity:1"><rect
       style="opacity:1;fill:#28e9cf;fill-opacity:1;stroke:#28e9cf;stroke-width:10;stroke-dasharray:none;stroke-opacity:1"
       id="rect5054"
       width="165.23254"
       height="164.82756"
       x="4.8597808"
       y="4.8597803" /></g><g
     inkscape:groupmode="layer"
     inkscape:label="Image"
     id="g8"
     style="display:inline"><path
       style="opacity:1;mix-blend-mode:normal;fill:#000000;fill-opacity:1;stroke:none;stroke-width:1.33333"
       d="m 157.3155,32.30713 c -6.476,4.40318 0.908,14.374719 7.076,9.708719 6.12934,-4.63715 -0.73066,-14.023469 -7.076,-9.708719 M 11.668825,30.28758 v 74.66666 H 25.002157 V 30.28758 H 11.668825 m 41.349332,21.489599 c -35.700918,6.635731 -24.35253,60.948261 10.63947,53.961461 35.04453,-6.997196 24.1164,-60.421461 -10.63947,-53.961461 m 62.657083,0.0465 c -35.712153,5.675597 -26.085883,59.976661 9.31706,53.937461 4.12747,-0.70413 8.114,-2.28466 11.5536,-4.68146 23.3136,-16.246267 6.3616,-53.583861 -20.87066,-49.256001 m 38.66026,1.13054 v 51.999991 h 13.33334 V 52.954219 H 154.3355 M 54.623887,65.947147 c 16.3216,-5.035333 23.64627,20.937067 7.4104,25.879467 -16.46413,5.01187 -23.82093,-20.816801 -7.4104,-25.879467 M 117.24657,65.72768 c 17.00187,-4.030666 23.20227,22.230004 6.17787,26.389604 -17.0232,4.1592 -23.22748,-22.347604 -6.17787,-26.389604 m -25.577743,43.22653 c 1.17547,6.51414 2.82173,12.64267 7.1972,17.8192 17.879473,21.15228 45.712143,5.08855 50.136143,-17.8192 h -13.33333 c -8.37494,15.6644 -22.382,15.91546 -30.66667,0 z"
       id="path2112" /><rect
       style="opacity:1;fill:none;stroke:#000000;stroke-width:10;stroke-dasharray:none"
       id="rect2499"
       width="13.315988"
       height="1.288644"
       x="128.05618"
       y="57.803093" /><ellipse
       style="opacity:1;fill:none;fill-opacity:1;stroke:#000000;stroke-width:10.5538;stroke-dasharray:none;stroke-opacity:1"
       id="path8193"
       cx="121.71925"
       cy="74.23217"
       rx="22.100283"
       ry="22.09659"
       transform="matrix(0.99920297,0.03991781,-0.02217888,0.99975402,0,0)" /></g></svg>
