<svg viewBox="0 0 56 56" xmlns="http://www.w3.org/2000/svg"><path fill="#fc0" d="M0 0h56v56H0z"/><path d="m26.675 36.704-4.912 4.96h-4.865l4.913-4.96h4.864Zm-6.562 0-4.91 4.96h-4.865l4.913-4.96h4.862Zm12.556 0 4.913 4.96h-4.864l-4.914-4.96h4.866Zm6.563 0 4.91 4.96h-4.864l-4.911-4.96h4.864ZM25.77 12.755c5.747-.004 10.502 4.183 10.479 10.19.843-2.293 1.43-5.783 1.55-8.227l8.63 2.143c-.69 10.106-8.288 18.956-19.559 18.951C14.12 35.81 9.192 24.75 9.857 16.372l3.744-1.19c-.608 4.77.87 8.208 1.89 9.784-1.213-6.746 3.89-12.207 10.28-12.21Zm.018 3.512c-3.814 0-6.905 3.085-6.905 6.89 0 3.805 3.09 6.89 6.905 6.89 3.816 0 6.906-3.085 6.906-6.89 0-3.805-3.09-6.89-6.907-6.89Z" fill="#000"/></svg>
