<svg xmlns="http://www.w3.org/2000/svg" id="Layer_1" data-name="Layer 1" viewBox="0 0 618.5257 623.4045"><defs><style>      .cls-1 {        fill: #e42314;      }    </style></defs><g id="top"><path class="cls-1" d="M639.58,444.44c-55.58,31.93-121,61-192.7,84.32-101.63,33-199.74,49.18-281.55,49.43,80.23,77.12,199.24,108.68,312.47,71.89C588.74,614,665.57,521.64,687.05,414.88q-21.87,14.79-46.49,29Z" transform="translate(-74.67 -42.0045)"></path><path class="cls-1" d="M503.69,480a930.8237,930.8237,0,0,0,94.81-36.55V297.1H540.33V262.82H679.49c-.55-1.8-1-3.61-1.61-5.41a310.45,310.45,0,0,0-71-119.07c-60.93,4.14-129.92,17.5-201,40.59-70,22.75-132.93,52-184.26,83.89h105v33.76H231v39.47h84.39v32.71H231v42.07h99v33.76H189.23V284.42C111.46,340.14,69.64,401.23,85.33,449.5,112.34,532.64,299.65,546.3,503.69,480Zm-144-174.72a89.49,89.49,0,0,1,35.7-33.5q22.84-12.07,51.42-12.07,23.88,0,43.36,8.05a85.7189,85.7189,0,0,1,32.71,23.37l-27,24.92q-19.47-20.51-47-20.51-17.4,0-30.9,7.27a52.16,52.16,0,0,0-21,20.51q-7.53,13.24-7.53,30.38,0,16.89,7.53,30.12a53.3407,53.3407,0,0,0,20.9,20.65q13.38,7.39,30.51,7.4a68.2308,68.2308,0,0,0,32.72-7.79V350.85h38.43v73.74a109.67,109.67,0,0,1-34.27,17.14,133.1938,133.1938,0,0,1-39.21,6q-28.32,0-50.9-12.07a89.9,89.9,0,0,1-35.44-33.5q-12.86-21.42-12.86-48.43t12.86-48.45Z" transform="translate(-74.67 -42.0045)"></path><path class="cls-1" d="M687.89,297.1H640.56v126q26.51-13.82,50-28.59A309.77,309.77,0,0,0,687.89,297.1Z" transform="translate(-74.67 -42.0045)"></path><path class="cls-1" d="M592.73,124.61C512.6,50.88,396.14,21.28,285.21,57.33,172,94.12,94.24,189.61,74.67,299.16c66.33-47.89,155.19-92.48,256.82-125.5C424.85,143.32,515.22,127.22,592.73,124.61Z" transform="translate(-74.67 -42.0045)"></path></g></svg>