<svg version="1.0" xmlns="http://www.w3.org/2000/svg" viewBox="3.3500001430511475 3.3407671451568604 293.1499938964844 293.15924072265625" preserveAspectRatio="xMidYMid meet">
<g transform="translate(0.000000,300.000000) scale(0.100000,-0.100000)" fill="#b23655" stroke="none">
<path d="M1260 2956 c-613 -110 -1077 -559 -1207 -1166 -26 -121 -26 -459 0
-580 112 -524 483 -942 982 -1109 168 -56 240 -66 465 -66 160 0 223 4 290 18
505 108 912 455 1090 929 69 184 85 283 85 518 0 160 -4 224 -18 290 -123 574
-549 1012 -1117 1147 -89 21 -135 26 -300 29 -133 2 -219 -1 -270 -10z m610
-285 c450 -103 815 -453 925 -885 93 -366 29 -722 -188 -1046 -64 -96 -251
-283 -347 -347 -225 -151 -440 -221 -706 -230 -190 -7 -311 9 -471 62 -212 71
-366 166 -529 329 -163 163 -258 316 -330 533 -38 113 -41 154 -4 51 146 -406
494 -712 925 -810 120 -28 362 -30 480 -4 226 49 408 143 564 291 176 166 286
370 327 607 21 119 14 310 -15 420 -88 337 -325 588 -651 690 -66 20 -94 23
-245 23 -166 0 -172 -1 -264 -33 -136 -47 -222 -101 -323 -202 -74 -75 -93
-102 -137 -191 -63 -132 -86 -236 -78 -364 25 -403 388 -685 743 -577 133 41
235 127 291 248 25 52 28 71 28 159 0 81 -4 109 -21 146 -50 108 -139 169
-246 169 -72 0 -99 -14 -124 -62 -21 -41 -13 -102 19 -137 35 -38 47 -65 47
-109 0 -66 -63 -122 -138 -122 -50 0 -119 30 -167 72 -188 166 -123 492 123
621 127 67 242 81 376 47 113 -29 190 -73 276 -160 201 -200 248 -506 120
-775 -195 -409 -696 -569 -1127 -360 -196 96 -346 250 -444 459 -69 148 -84
225 -83 431 0 166 2 187 27 270 15 50 45 127 67 173 131 275 383 494 675 585
70 22 105 30 225 51 60 11 318 -4 400 -23z"></path>
</g>
</svg>