<svg version="1.1" id="Layer_2" xmlns="http://www.w3.org/2000/svg" xmlns:xlink="http://www.w3.org/1999/xlink" x="0px" y="0px"
	 width="22px" height="44px" viewBox="0 0 22 44" enable-background="new 0 0 22 44" xml:space="preserve">
<g>
	<circle cx="11.001" cy="22" r="10.195" fill="#FFFFFF"/>
	<path fill="#CC2954" d="M13.035,11.191c-5.969-1.123-11.719,2.805-12.843,8.771c-1.123,5.973,2.805,11.721,8.773,12.846
		c5.97,1.123,11.72-2.807,12.843-8.773C22.933,18.064,19.005,12.316,13.035,11.191z M20.826,23.85
		c-1.021,5.426-6.248,8.998-11.675,7.979c-4.195-0.791-7.281-4.096-7.993-8.061c0.054,0.205,0.113,0.41,0.181,0.613
		c0.103,0.311,0.221,0.615,0.354,0.914c0.133,0.297,0.279,0.586,0.439,0.867c0.16,0.279,0.333,0.551,0.519,0.811
		s0.383,0.51,0.59,0.748c0.416,0.478,0.874,0.906,1.366,1.285c0.491,0.379,1.016,0.707,1.563,0.979
		c0.274,0.137,0.555,0.26,0.84,0.365c0.283,0.107,0.573,0.201,0.864,0.279c0.293,0.078,0.588,0.143,0.884,0.189
		c0.296,0.049,0.593,0.082,0.89,0.102s0.592,0.023,0.887,0.012c0.293-0.01,0.58-0.035,0.865-0.074s0.569-0.09,0.851-0.154
		c0.278-0.064,0.558-0.146,0.828-0.24c0.271-0.092,0.536-0.197,0.796-0.314c0.258-0.119,0.511-0.25,0.753-0.395
		c0.244-0.145,0.479-0.297,0.704-0.459c0.227-0.166,0.439-0.34,0.646-0.521c0.41-0.367,0.78-0.771,1.105-1.201
		c0.324-0.432,0.604-0.891,0.834-1.369c0.115-0.238,0.218-0.482,0.309-0.73c0.09-0.248,0.168-0.5,0.232-0.752
		c0.064-0.254,0.116-0.51,0.154-0.766c0.039-0.258,0.063-0.514,0.078-0.77c0.014-0.256,0.013-0.514,0-0.766
		c-0.014-0.252-0.037-0.521-0.074-0.768c-0.037-0.242-0.09-0.506-0.149-0.745c-0.062-0.237-0.134-0.476-0.219-0.706
		c-0.084-0.229-0.179-0.457-0.285-0.68c-0.104-0.219-0.222-0.432-0.349-0.639c-0.125-0.205-0.26-0.402-0.403-0.594
		c-0.144-0.189-0.296-0.371-0.457-0.543c-0.319-0.344-0.669-0.654-1.043-0.922c-0.372-0.27-0.767-0.498-1.178-0.686
		c-0.204-0.094-0.413-0.176-0.624-0.246c-0.211-0.072-0.426-0.135-0.641-0.186c-0.216-0.049-0.433-0.088-0.647-0.117
		c-0.218-0.025-0.435-0.045-0.647-0.049c-0.217-0.006-0.431-0.002-0.643,0.016c-0.212,0.016-0.421,0.041-0.626,0.074
		c-0.206,0.035-0.409,0.082-0.608,0.139c-0.199,0.055-0.396,0.119-0.589,0.191c-0.19,0.074-0.378,0.158-0.559,0.25
		c-0.182,0.094-0.357,0.189-0.526,0.3c-0.169,0.108-0.331,0.226-0.486,0.349c-0.154,0.123-0.303,0.252-0.442,0.389
		c-0.279,0.271-0.528,0.566-0.743,0.879s-0.396,0.643-0.541,0.982c-0.145,0.339-0.254,0.688-0.326,1.043
		c-0.036,0.176-0.063,0.354-0.081,0.531c-0.019,0.176-0.027,0.354-0.027,0.525c0,0.177,0.008,0.352,0.025,0.521
		c0.018,0.172,0.043,0.342,0.077,0.506c0.033,0.166,0.074,0.33,0.124,0.488c0.049,0.158,0.105,0.314,0.17,0.469
		c0.063,0.151,0.135,0.301,0.213,0.442c0.078,0.142,0.162,0.278,0.253,0.411c0.181,0.266,0.386,0.505,0.608,0.721
		c0.222,0.215,0.464,0.402,0.716,0.562c0.253,0.16,0.518,0.293,0.788,0.396c0.27,0.104,0.547,0.178,0.822,0.224
		c0.275,0.045,0.552,0.062,0.82,0.049c0.135-0.006,0.269-0.019,0.397-0.037s0.259-0.045,0.386-0.075
		c0.251-0.063,0.492-0.15,0.719-0.261c0.225-0.106,0.434-0.235,0.623-0.383c0.188-0.146,0.359-0.31,0.51-0.481
		c0.149-0.177,0.279-0.361,0.386-0.556c0.104-0.19,0.188-0.392,0.251-0.593c0.062-0.2,0.102-0.403,0.118-0.604
		c0.017-0.198,0.013-0.395-0.011-0.582c-0.023-0.188-0.067-0.377-0.127-0.549c-0.062-0.172-0.139-0.338-0.228-0.481
		c-0.09-0.146-0.19-0.274-0.306-0.392c-0.109-0.114-0.23-0.215-0.357-0.299s-0.259-0.151-0.393-0.203
		c-0.135-0.051-0.27-0.086-0.398-0.104c-0.132-0.021-0.26-0.021-0.382-0.012c-0.022,0.002-0.047,0.006-0.069,0.008
		c-0.229,0.021-0.447,0.127-0.607,0.313c-0.33,0.386-0.286,0.962,0.096,1.29c0.01,0.01,0.021,0.018,0.029,0.025h-0.004
		c0.356,0.332,0.392,0.889,0.07,1.264c-0.15,0.176-0.354,0.279-0.568,0.309c-0.035,0.006-0.07,0.01-0.107,0.014
		c-0.122,0.014-0.25,0.01-0.381-0.012c-0.132-0.018-0.268-0.053-0.398-0.104c-0.135-0.053-0.267-0.119-0.393-0.203
		c-0.126-0.082-0.247-0.186-0.358-0.299c-0.112-0.115-0.214-0.246-0.303-0.393c-0.089-0.146-0.166-0.307-0.225-0.479
		c-0.06-0.172-0.104-0.354-0.128-0.541c-0.023-0.189-0.028-0.385-0.012-0.584c0.018-0.199,0.056-0.4,0.116-0.602
		c0.062-0.201,0.145-0.4,0.251-0.595c0.104-0.192,0.232-0.382,0.383-0.556c0.148-0.176,0.318-0.338,0.508-0.483
		c0.188-0.146,0.397-0.274,0.623-0.386c0.225-0.107,0.465-0.195,0.717-0.26c0.125-0.033,0.255-0.061,0.386-0.078
		s0.265-0.03,0.397-0.037c0.27-0.016,0.545,0.002,0.819,0.047c0.276,0.044,0.554,0.117,0.823,0.223
		c0.271,0.102,0.535,0.232,0.789,0.395c0.252,0.158,0.492,0.348,0.717,0.562c0.225,0.213,0.43,0.453,0.609,0.717
		c0.092,0.133,0.177,0.271,0.255,0.412c0.077,0.144,0.147,0.291,0.214,0.441c0.062,0.152,0.122,0.309,0.172,0.467
		c0.049,0.16,0.094,0.336,0.126,0.502c0.033,0.164,0.06,0.346,0.075,0.52c0.018,0.172,0.023,0.346,0.023,0.521
		s-0.011,0.352-0.027,0.527c-0.02,0.177-0.047,0.354-0.082,0.531c-0.074,0.353-0.186,0.699-0.329,1.04
		c-0.146,0.341-0.328,0.671-0.543,0.981c-0.218,0.312-0.466,0.607-0.745,0.877c-0.143,0.135-0.289,0.264-0.443,0.387
		s-0.316,0.238-0.486,0.348c-0.17,0.105-0.346,0.207-0.526,0.299c-0.181,0.094-0.368,0.176-0.56,0.248s-0.389,0.139-0.588,0.189
		c-0.201,0.057-0.403,0.102-0.609,0.137c-0.205,0.034-0.415,0.062-0.626,0.074c-0.212,0.018-0.427,0.021-0.642,0.014
		c-0.218-0.006-0.435-0.021-0.649-0.051c-0.216-0.029-0.433-0.068-0.647-0.119c-0.43-0.102-0.854-0.246-1.264-0.436
		c-0.41-0.188-0.804-0.416-1.176-0.686c-0.372-0.27-0.722-0.58-1.04-0.926c-0.16-0.172-0.313-0.354-0.456-0.545
		c-0.143-0.189-0.278-0.389-0.403-0.594c-0.125-0.207-0.241-0.42-0.346-0.643c-0.105-0.221-0.2-0.443-0.284-0.678
		c-0.083-0.229-0.155-0.469-0.217-0.707c-0.061-0.24-0.109-0.483-0.146-0.729c-0.037-0.244-0.063-0.494-0.075-0.746
		c-0.014-0.252-0.014-0.506-0.002-0.764c0.013-0.258,0.038-0.514,0.075-0.771c0.039-0.256,0.09-0.512,0.154-0.766
		s0.141-0.506,0.23-0.754s0.191-0.492,0.307-0.73c0.229-0.479,0.507-0.938,0.831-1.369c0.323-0.434,0.692-0.838,1.104-1.205
		c0.205-0.186,0.42-0.356,0.646-0.521c0.225-0.164,0.46-0.318,0.702-0.462c0.243-0.146,0.495-0.274,0.753-0.396
		c0.259-0.119,0.524-0.227,0.796-0.318c0.271-0.093,0.548-0.176,0.826-0.24c0.281-0.066,0.563-0.119,0.85-0.158
		s0.574-0.066,0.867-0.076c0.293-0.012,0.588-0.01,0.885,0.01c0.297,0.018,0.594,0.051,0.891,0.098
		c0.295,0.049,0.59,0.111,0.883,0.189c0.291,0.078,0.582,0.17,0.865,0.275c0.285,0.105,0.565,0.229,0.84,0.363
		c0.551,0.271,1.076,0.596,1.568,0.975C21.421,18.104,21.063,22.59,20.826,23.85z"/>
</g>
</svg>
