<svg version="1.1" id="Layer_1" xmlns="http://www.w3.org/2000/svg" xmlns:xlink="http://www.w3.org/1999/xlink" x="0px" y="0px" style="enable-background:new 0 0 612 792;" xml:space="preserve" viewBox="153.30 317.58 304.99 158.03">
<style type="text/css">
	.st0{fill:#C8FEC5;}
	.st1{fill:#064033;}
</style>
<path class="st0" d="M611.92,396.34c0,84.63-0.02,169.27,0.08,253.9c0,2.57-0.69,3.15-3.75,3.15c-201.5-0.07-403-0.07-604.5,0
	c-3.06,0-3.75-0.58-3.75-3.15c0.08-169.5,0.08-339,0-508.5c0-2.57,0.69-3.15,3.75-3.15c201.5,0.07,403,0.07,604.5,0
	c3.06,0,3.75,0.58,3.75,3.15C611.91,226.62,611.92,311.48,611.92,396.34z M260.3,426.32c-0.68-2.99-1.27-6-2.05-8.98
	c-8.6-32.9-20.82-64.98-31.02-97.52c-0.59-1.89-1.68-2.21-3.7-2.2c-11.83,0.06-23.65,0.08-35.48-0.01
	c-2.51-0.02-2.88,0.47-2.18,2.51c3.5,10.32,6.64,20.72,10.25,31.01c1.08,3.07-0.02,3.41-3.21,3.38c-12.1-0.11-24.2,0.01-36.3-0.09
	c-2.46-0.02-3.27,0.51-3.22,2.67c0.16,6.97,0.21,13.95-0.02,20.92c-0.08,2.52,0.94,2.96,3.67,2.94c15.09-0.11,30.18-0.01,45.27-0.1
	c2.55-0.02,3.79,0.43,4.45,2.74c1.92,6.65,4.01,13.28,6.51,19.79c1.24,3.24-0.03,3.54-3.36,3.52c-17.4-0.1-34.8,0.02-52.2-0.11
	c-3.18-0.02-4.51,0.36-4.36,3.43c0.32,6.62,0.28,13.27,0.01,19.89c-0.11,2.82,1.02,3.35,4.1,3.34c20.53-0.11,41.06,0.01,61.58-0.13
	c3.22-0.02,4.42,0.89,5.21,3.39c3.77,12.03,7.83,23.99,11.61,36.01c0.68,2.17,1.77,2.83,4.42,2.8c13.86-0.12,27.73-0.16,41.6,0.02
	c3.36,0.05,4.61-0.79,5.4-3.52c11.47-39.33,24.05-78.43,34.9-117.66c0.49,2.29,0.85,4.91,1.61,7.44
	c11.11,37.19,22.29,74.36,33.34,111.55c0.6,2.01,1.81,2.13,3.73,2.13c14.41-0.04,28.82-0.07,43.23,0.03c2.38,0.02,3.3-0.65,3.88-2.5
	c2.54-8.05,5.24-16.06,7.87-24.09c13.99-42.67,27.94-85.36,42.04-128c0.96-2.9,0.22-3.4-3.09-3.36c-11.42,0.14-22.84,0.1-34.26,0.01
	c-2.29-0.02-3.27,0.51-3.88,2.47c-2.9,9.27-6.16,18.45-9.08,27.72c-7.34,23.27-16.22,46.19-21.96,69.81c-0.67,2.74-0.73,5.63-2.55,8
	c-1.03-4.39-1.85-8.91-3.18-13.32c-9.33-30.85-18.8-61.68-28.09-92.54c-0.69-2.3-2.27-2.11-4.19-2.11
	c-16.99,0.01-33.99,0.08-50.98-0.06c-3.08-0.03-4.1,0.84-4.82,3.26c-6.05,20.25-12.35,40.45-18.45,60.69
	C268.87,396.35,263.63,411.02,260.3,426.32z"></path>
<path class="st1" d="M260.3,426.32c3.33-15.3,8.57-29.96,13.04-44.78c6.11-20.24,12.4-40.44,18.45-60.69
	c0.72-2.42,1.74-3.29,4.82-3.26c16.99,0.14,33.99,0.07,50.98,0.06c1.92,0,3.5-0.19,4.19,2.11c9.29,30.86,18.76,61.69,28.09,92.54
	c1.33,4.41,2.14,8.93,3.18,13.32c1.82-2.37,1.88-5.26,2.55-8c5.74-23.62,14.62-46.55,21.96-69.81c2.92-9.26,6.18-18.45,9.08-27.72
	c0.61-1.96,1.59-2.49,3.88-2.47c11.42,0.09,22.84,0.13,34.26-0.01c3.31-0.04,4.05,0.45,3.09,3.36c-14.1,42.65-28.05,85.33-42.04,128
	c-2.63,8.03-5.33,16.04-7.87,24.09c-0.58,1.84-1.5,2.51-3.88,2.5c-14.41-0.11-28.82-0.07-43.23-0.03c-1.92,0-3.13-0.12-3.73-2.13
	c-11.05-37.2-22.23-74.37-33.34-111.55c-0.76-2.53-1.12-5.14-1.61-7.44c-10.85,39.23-23.42,78.33-34.9,117.66
	c-0.8,2.73-2.04,3.56-5.4,3.52c-13.86-0.19-27.73-0.14-41.6-0.02c-2.65,0.02-3.74-0.63-4.42-2.8c-3.78-12.02-7.84-23.99-11.61-36.01
	c-0.79-2.51-1.98-3.42-5.21-3.39c-20.53,0.14-41.06,0.02-61.58,0.13c-3.08,0.02-4.22-0.52-4.1-3.34c0.27-6.62,0.31-13.27-0.01-19.89
	c-0.15-3.07,1.18-3.46,4.36-3.43c17.4,0.13,34.8,0.01,52.2,0.11c3.33,0.02,4.6-0.28,3.36-3.52c-2.5-6.51-4.59-13.14-6.51-19.79
	c-0.67-2.31-1.91-2.76-4.45-2.74c-15.09,0.09-30.18-0.01-45.27,0.1c-2.73,0.02-3.75-0.42-3.67-2.94c0.22-6.97,0.18-13.95,0.02-20.92
	c-0.05-2.16,0.76-2.69,3.22-2.67c12.1,0.1,24.2-0.02,36.3,0.09c3.19,0.03,4.29-0.31,3.21-3.38c-3.61-10.29-6.74-20.69-10.25-31.01
	c-0.69-2.05-0.33-2.53,2.18-2.51c11.83,0.08,23.65,0.07,35.48,0.01c2.02-0.01,3.11,0.31,3.7,2.2
	c10.19,32.54,22.42,64.62,31.02,97.52C259.02,420.32,259.62,423.32,260.3,426.32z"></path>
</svg>
