<svg xmlns="http://www.w3.org/2000/svg" viewBox="368.00 368.00 1240.00 736.00"><defs><style>.cls-1{fill:#053f33;fill-rule:evenodd;}</style></defs><title>Dark Green_1</title><g id="Mark_Dark_Green" data-name="Mark Dark Green"><path class="cls-1" d="M1440.84,368,1336.09,732.66A1275.3,1275.3,0,0,0,1303.28,878v.61h-3.16c-2.82-27.32-10.24-54.44-14.82-77.71L1170,368H934L819.42,800.45c-4.58,23.28-12,50.59-14.82,77.71h-3.16v-.61a1269.66,1269.66,0,0,0-32.81-145.09L664.25,368H497.09l49,171.4H368V662.24H581l34.9,122H368v123H650.84L706.93,1104H906.54L1041.6,588.17c4.24-19,8.13-39.86,9.18-54.43h3.16c1.08,14.16,5,35.41,9.18,54.43L1198.19,1104h199.62L1608,368Z"></path></g></svg>
