<svg xmlns="http://www.w3.org/2000/svg" viewBox="0 0 256 256"><path fill="#3a7f3d" d="M188.756 9.932s-99.102-.128-121.512-.015c-8.243.041-12.944 1.298-12.944 1.298C24.955 17.189 2.999 43.113 2.999 74.38v34.14c0 35.211 27.848 63.634 62.707 64.444l59.235 73.165v-74.83l63.721 1.684c35.688 0 64.339-28.746 64.339-64.463V74.396c0-35.726-28.668-64.464-64.245-64.464zM67.222 24.159l.037.015h121.497c27.704 0 50.003 22.402 50.003 50.222v34.124c0 27.77-22.218 50.153-49.876 50.221-.043 0-78.183-2.065-78.183-2.065v49.229l-36.047-44.523s-1.086-2.641-5.561-2.641h-1.443c-.14 0-.275.004-.405.013v-.013c-27.704 0-50.003-22.401-50.003-50.221V74.38c0-27.804 22.272-50.208 49.981-50.221z"/></svg>