<svg xmlns="http://www.w3.org/2000/svg" version="1.0" viewBox="5.43 0 446.02 510.72"><path d="M416.877 185.439h-20.8v-18.56C396.077 74.719 320.877 0 228.158 0 135.44 0 60.24 74.72 60.24 166.879v18.56h-20.8c-21.76 0-39.44 17.6-39.44 39.28v153.198c.08 10.24.64 17.6 4.64 23.04 4.16 5.44 11.12 7.36 21.52 7.28h33.36l5.12 80.72v.88c0 2.16.24 7.04 2.96 11.76 2.64 4.8 8.24 9.04 17.36 8.96h84.799l44.08-46.72h32.96l42.639 48.16h76.08c6.56 0 12.56.16 17.76-3.2 5.2-3.36 8.32-9.76 9.84-20.96 2.16-16.24 2.72-60.8 3.68-79.52h33.359c10.32-.08 16.96-1.04 21.36-5.68 4.16-4.8 4.72-11.6 4.8-21.76V224.718c0-21.68-17.68-39.28-39.44-39.28z" fill="#349334"/><path d="M451.437 381.197c.08 10-.96 15.6-3.44 18.24-2.32 2.64-7.36 4-17.44 3.92h-38.4l-.08 2.48c-.96 17.76-1.6 65.12-3.76 81.68-1.52 10.72-4.24 15.2-7.52 17.28-3.2 2.24-8.24 2.4-14.88 2.32h-73.76l-42.639-48.16h-37.6l-44.08 46.72H85.12c-7.52-.08-10.72-2.96-12.72-6.32-2-3.36-2.32-7.52-2.32-9.12v-.72l.08-.24-5.52-85.92H26.32c-9.92 0-14.72-1.84-17.28-5.2-2.639-3.44-3.599-9.92-3.599-19.92V224.958c0-18.8 15.36-33.92 34.24-34h26.08v-23.76C65.92 77.84 138.559 5.6 228.478 5.44c89.84.16 162.56 72.4 162.72 161.759v23.76h26.079c18.88.08 34.16 15.2 34.16 34v156.238z" fill="#4bb749"/><path d="M70.24 398.797h315.837v10.48H70.24z" fill="#118011"/><path d="M65.36 402.477V204.558h5.36v197.919zm321.357 0V204.558h5.36v197.919z" fill="#118011"/><path d="M338.877 246.958c0 11.36-50.64 20.56-113.119 20.56-62.56 0-113.199-9.2-113.199-20.56 0-11.44 50.64-20.64 113.2-20.64 62.479 0 113.118 9.2 113.118 20.64z" fill="#62b565" fill-rule="evenodd"/><path d="M331.038 194.239v-30.16c0-56.88-46.16-102.96-103.2-102.96-56.96 0-103.199 46.08-103.199 102.96v30.16z" fill="#fff"/><path d="M184.559 162.799h91.999v10.96h-92z" fill="#7f7f7f" fill-rule="evenodd"/><path d="M213.038 117.12c0 10.48-8.56 19.039-19.04 19.039-10.56 0-19.12-8.56-19.12-19.04 0-10.56 8.56-19.04 19.12-19.04 10.48 0 19.04 8.48 19.04 19.04zm67.76 0c0 10.48-8.56 19.039-19.04 19.039-10.56 0-19.04-8.56-19.04-19.04 0-10.56 8.48-19.04 19.04-19.04 10.48 0 19.04 8.48 19.04 19.04z"/><path d="M191.279 309.278h68.96v51.44h-68.96zm10.639-5.44c3.12-10.88 12.72-18.8 24.16-18.8 11.36 0 21.04 7.92 24.16 18.8h8.16c-3.28-15.2-16.4-26.64-32.4-26.64-15.92 0-29.04 11.44-32.32 26.64z" fill="#fff"/><path d="M435.357 413.197c1.84 0 3.6 0 5.2-.08v-5.84c-2.96.48-6.4.64-10.48.64h-33.44c-.56 9.36-.96 25.12-1.44 40.56h5.44c.48-13.68.8-26.96 1.28-35.28z" fill="#118011"/><path d="M440.557 416.237v-2.88c-1.6.08-3.28.16-5.2.16h-33.44c-.48 8.16-.8 21.36-1.28 34.96h7.76c17.76 0 32.16-14.48 32.16-32.24z" fill="#1dcc24" fill-rule="evenodd"/><path d="M59.76 408.317H26.32c-5.12 0-9.44-.48-13.04-1.6v6.64c2.16.24 4.4.4 6.96.4l33.44-.08 2.24 34.8h6.4z" fill="#118011"/><path d="M20.24 413.677c-2.56 0-4.8-.08-6.96-.32v2.88c0 17.76 14.32 32.24 31.92 32.24h10.48l-2.16-34.8z" fill="#1dcc24" fill-rule="evenodd"/></svg>