<svg enable-background="new -115 0 326.5 97.8" viewBox="-115 0 326.5 97.8" xmlns="http://www.w3.org/2000/svg" xmlns:xlink="http://www.w3.org/1999/xlink"><linearGradient id="a" gradientUnits="userSpaceOnUse" x1="-106.4246" x2="-106.4246" y1="84.4739" y2="13.2899"><stop offset="0" stop-color="#ff9400"/><stop offset="1" stop-color="#ff6500"/></linearGradient><linearGradient id="b" gradientUnits="userSpaceOnUse" x1="-34.5828" x2="-34.5828" y1="84.4738" y2="13.2899"><stop offset="0" stop-color="#ffbd01"/><stop offset="1" stop-color="#ffe201"/></linearGradient><g fill="#fff"><path d="m21.9 26.8h9.4v41.8h-9.4v-17.7h-15.8v17.7h-9.4v-41.8h9.4v16h15.8z"/><path d="m50.7 27.7c0 1.6-.5 2.9-1.6 3.9-1.1.9-2.3 1.4-3.8 1.4s-2.7-.5-3.8-1.4-1.6-2.2-1.6-3.9c0-1.6.5-2.9 1.6-3.9 1.1-.9 2.3-1.4 3.8-1.4s2.7.5 3.8 1.4c1.1 1 1.6 2.3 1.6 3.9zm-.8 40.9h-9v-31.7h9z"/><path d="m68 68.6c-2.1-4-4.1-8.7-6.3-14.1-2.1-5.4-4.1-11.3-6-17.6h9.5c.4 1.6.9 3.3 1.4 5.1s1.1 3.7 1.7 5.5c.6 1.9 1.2 3.7 1.8 5.5s1.2 3.4 1.7 4.8c.5-1.4 1.1-3.1 1.7-4.8.6-1.8 1.2-3.6 1.8-5.5s1.2-3.7 1.7-5.5 1-3.5 1.4-5.1h9.3c-1.9 6.4-3.9 12.2-6 17.6s-4.2 10.1-6.3 14.1z"/><path d="m90.2 53c0-2.8.4-5.3 1.3-7.4s2-3.9 3.4-5.3 3-2.5 4.9-3.2c1.8-.7 3.7-1.1 5.6-1.1 4.5 0 8.1 1.4 10.7 4.1 2.6 2.8 3.9 6.8 3.9 12.2 0 .5 0 1.1-.1 1.7 0 .6-.1 1.2-.1 1.7h-20.4c.2 1.8 1.1 3.3 2.6 4.4s3.6 1.6 6.2 1.6c1.6 0 3.3-.2 4.9-.5s2.9-.7 3.9-1.1l1.2 7.3c-.5.2-1.1.5-1.9.7s-1.7.5-2.7.6c-1 .2-2 .3-3.2.5-1.1.1-2.3.2-3.4.2-2.9 0-5.3-.4-7.4-1.3-2.1-.8-3.9-2-5.2-3.5-1.4-1.5-2.4-3.2-3.1-5.2-.8-1.9-1.1-4.1-1.1-6.4zm21.1-3.5c0-.8-.2-1.5-.4-2.2s-.6-1.4-1-1.9c-.5-.6-1-1-1.7-1.4s-1.6-.5-2.6-.5-1.9.2-2.6.5-1.3.8-1.8 1.4-.9 1.2-1.1 2c-.3.7-.5 1.5-.6 2.3h11.8z"/><path d="m179.2 47.7c0 3.6-.5 6.7-1.6 9.4s-2.5 5-4.4 6.8c-1.8 1.8-4.1 3.2-6.6 4.1-2.6.9-5.3 1.4-8.2 1.4s-5.5-.5-8.1-1.4c-2.5-.9-4.7-2.3-6.6-4.1s-3.4-4.1-4.5-6.8-1.6-5.9-1.6-9.4.6-6.7 1.7-9.4 2.6-5 4.6-6.8c1.9-1.8 4.1-3.2 6.6-4.2 2.5-.9 5.2-1.4 7.9-1.4 2.9 0 5.5.5 8.1 1.4 2.5.9 4.7 2.3 6.6 4.2 1.9 1.8 3.4 4.1 4.5 6.8 1.1 2.6 1.6 5.8 1.6 9.4zm-31.9 0c0 2 .3 3.9.8 5.5s1.2 3.1 2.2 4.3c.9 1.2 2.1 2.1 3.5 2.7s2.9 1 4.7 1c1.7 0 3.3-.3 4.7-1 1.4-.6 2.6-1.6 3.5-2.7.9-1.2 1.7-2.6 2.2-4.3s.8-3.5.8-5.5c0-2.1-.3-3.9-.8-5.6s-1.2-3.1-2.2-4.3c-.9-1.2-2.1-2.1-3.5-2.7s-2.9-1-4.7-1-3.3.3-4.7 1-2.5 1.6-3.5 2.8c-.9 1.2-1.7 2.6-2.2 4.3-.5 1.6-.8 3.5-.8 5.5z"/><path d="m195 61.4c1.3 0 2.4-.1 3.3-.3s1.6-.5 2.1-.9.9-.8 1.1-1.4c.2-.5.3-1.1.3-1.7 0-1.4-.6-2.5-1.9-3.4s-3.5-1.9-6.6-2.9c-1.4-.5-2.7-1-4.1-1.7-1.4-.6-2.6-1.4-3.7-2.4-1.1-.9-2-2.1-2.7-3.4s-1-3-1-4.9.4-3.7 1.1-5.2 1.7-2.9 3.1-4c1.3-1.1 2.9-1.9 4.8-2.5s4-.9 6.4-.9c2.8 0 5.2.3 7.3.9 2 .6 3.7 1.3 5.1 2l-2.7 7.4c-1.2-.6-2.5-1.1-3.9-1.6s-3.1-.7-5.2-.7c-2.3 0-3.9.3-4.9.9s-1.5 1.6-1.5 2.9c0 .8.2 1.4.5 1.9.4.5.9 1 1.5 1.4.7.4 1.4.8 2.3 1.1s1.8.7 2.9 1.1c2.2.8 4.1 1.6 5.7 2.4s2.9 1.7 4 2.7 1.9 2.3 2.4 3.7.8 3.1.8 5.1c0 3.9-1.4 6.9-4.1 9.1s-6.9 3.2-12.4 3.2c-1.8 0-3.5-.1-5-.3s-2.8-.5-4-.8-2.1-.7-3-1c-.8-.4-1.5-.7-2.1-1l2.7-7.5c1.2.7 2.8 1.3 4.6 1.8 1.9.7 4.2.9 6.8.9z"/></g><path d="m-97.8 13.3-9.8 5.7c-4.1 2.3-7.4 8.1-7.4 12.8v34.4c0 4.7 3.3 10.4 7.4 12.8l9.8 5.7z" fill="url(#a)"/><path d="m-33.4 18.9-9.8-5.7v71.2l9.8-5.7c4.1-2.3 7.4-8.1 7.4-12.8v-34.2c0-4.7-3.3-10.4-7.4-12.8z" fill="url(#b)"/><path d="m-79.2 95.3 1.3.8c4.1 2.3 10.7 2.3 14.7 0l1.3-.8v-37s-2.5-4.3-8.7-4.3-8.7 4.3-8.7 4.3v37z" fill="#ffa801"/><path d="m-63.1 1.8c-4.1-2.3-10.7-2.3-14.7 0l-1.3.8v36.4s2.5 4.3 8.7 4.3 8.7-4.3 8.7-4.3v-36.5z" fill="#ff5400"/></svg>