<svg version="1.1" id="Layer_1" xmlns="http://www.w3.org/2000/svg" xmlns:xlink="http://www.w3.org/1999/xlink" x="0px" y="0px" style="enable-background:new 0 0 612 792;" xml:space="preserve" viewBox="13.44 152.07 565.33 459.22">
<style type="text/css">
	.st0{fill:#282827;}
	.st1{fill:#339FFE;}
	.st2{fill:#6FBCFE;}
	.st3{fill:#BBDFFE;}
	.st4{fill:#C5E4FE;}
	.st5{fill:#ACACAC;}
	.st6{fill:#5BB3FE;}
	.st7{fill:#54AFFE;}
	.st8{fill:#DAEDFE;}
	.st9{fill:#BDBDBD;}
	.st10{fill:#A0D2FE;}
	.st11{fill:#A1A1A1;}
	.st12{fill:#FE6E21;}
	.st13{fill:#FE6F21;}
	.st14{fill:#3DCB8D;}
	.st15{fill:#C95D23;}
	.st16{fill:#307FC5;}
	.st17{fill:#2E70AA;}
	.st18{fill:#2B5171;}
	.st19{fill:#2E628F;}
	.st20{fill:#814625;}
	.st21{fill:#282828;}
</style>
<path class="st0" d="M500,610.5c-0.4,0.7-1.1,0.6-1.7,0.6c-10.9,0-21.8,0-32.7,0c-0.1,0-0.3-0.1-0.6-0.2c1.6-1.8,2.6-3.9,3.9-5.9
	c3.2-4.9,5.8-10.1,8.3-15.3c2.8-6,5.2-12.1,7.4-18.4c1.9-5.4,3-11,4.5-16.5c2.3-7.9,3-16,3.9-24c0.7-0.8,0.1-1.9,0.8-2.7
	c1-13.1,1.5-26.2,0-39.4c-0.5-0.5-0.3-1.3-0.7-1.9c-0.2-3.1-0.7-6.2-1.4-9.3c-2.7,2.7-4.7,5.7-7.3,8.3c-6.8,6.6-14.5,11.7-23.3,15.3
	c-20.4,8.4-41.3,9-62.5,4.4c-11.6-2.5-23.1-5.6-34.7-7.7c-13.4-2.4-27-4.2-40.6-5.1c-14-1-28-1-42.1,0c-14.1,1-28,3.1-41.7,6.3
	c-14.5,3.4-28.6,8-42.3,13.8c-6,2.5-11.9,5.4-17.7,8.4c-9.9,5.2-19.4,11-28.7,17.2c-6.6,4.4-13.2,8.6-19.9,12.9
	c-2.7,1.8-5.5,3.5-8.2,5.3c-0.5,0.3-1,0.6-1.4,0.3c-0.6-0.4-0.1-0.9,0.1-1.4c2.9-7.3,5.3-14.8,8-22.1c1.4-3.6,2.4-7.4,3.9-11
	c2.9-7.2,5.4-14.4,7.8-21.7c0.1-0.3,0.2-0.7,0.2-1.1c-0.2-0.4-0.4-0.1-0.5,0c-6.5,6.1-12.9,12.1-19.4,18.2c-2.8,2.7-5.7,5.4-8.5,8.1
	c-3.8,3.6-7.5,7.4-11.5,10.8c-1.6,1.4-0.5,3.3,0,4.7c1.5,4,2,8.3,3.4,12.3c2.6,7.4,5.3,14.8,8.7,21.9c2.2,4.6,4.7,9.1,7.4,13.4
	c4.1,6.5,8.2,13,13.3,18.8c0.8,0.9,1.4,2,2.1,3c-0.5,0.7-1.1,0.4-1.6,0.4c-10.9,0-21.8,0-32.7,0c-1.3,0-2-0.4-2.8-1.5
	c-3.1-4.8-6.2-9.7-8.9-14.8c-2.7-4.9-5.2-9.9-7.5-15c-2.7-6-4.9-12.2-7.3-18.6c-9.2,8.7-18.3,17.3-28,26.4c0-10.6,0-20.7,0-30.7
	c-0.5-2-0.5-4-0.5-6.1c0-8.1-0.2-16.2,0.1-24.3c0.4-10,0.5-20,1.9-29.9c0.4-0.9,0.9-1.8,0.7-2.8c0.8-7,1.5-14.1,3.2-21
	c0.3-0.6,0.8-1.1,0.7-1.8c0.9-6.3,2.9-12.3,4.7-18.4c2.7-8.7,6.2-17,10-25.2c2.4-5.3,5.2-10.4,8.3-15.4c5.3-8.4,10.9-16.5,17.3-24.1
	c5.6-6.6,11.5-12.8,17.5-18.9c5.3-5.3,11-10.2,16.9-14.9c13.4-10.7,27.8-20.1,43.2-27.8c7.4-3.7,14.9-7.1,22.6-10.1
	c1.5-0.6,2.1-1.3,1.2-2.9c-3.4-6.1-4.8-12.9-6.6-19.6c-0.7-2.8-0.9-5.8-1-8.7c0-3.6-0.3-7.1,0-10.7c0.1-1.8-0.7-2.3-2.4-2.4
	c-8.1-0.6-16.2-0.4-24.2-1.7c-7.8-1.3-14.9-4.6-20.7-9.9c-5.6-5.1-9.6-11.3-11-19c-0.5-2.6-1.4-5-0.5-7.7c1.3-9.4,1.6-19,2.3-28.5
	c0.6-8.7,4.5-15.8,10.8-21.7c9.7-9.2,21.3-12.2,34.3-11.3c8.8,0.6,17.6,1,26.5,1.5c9.7,0.5,18.6,3.3,26.1,9.7
	c1.4,1.2,2.1,1.1,3.4-0.5c4.5-5.7,8.9-11.5,13.7-16.9c1.7-1.9,3.1-4.2,4.8-6.1c2-2.2,3.8-4.7,5.6-7.1c0.6-0.8,1.2-0.9,2-0.4
	c5.6,3,11.2,5.9,16.7,8.8c2.2,1.1,4.4,2.3,6.6,3.3c1.4,0.6,1.6,1.4,0.9,2.7c-2.9,5-5.2,10.4-7.2,15.9c-0.4,1-0.6,2-0.8,2.9
	c0.4,1.1-0.1,2.1-0.5,3.2c-1,2.9-1.4,5.8-1.4,8.8c0,1.8,0.8,2.4,2.5,2.4c14.2,0,27.8,3.3,41.1,8.1c10.5,3.8,20,9.4,28.4,16.9
	c7.3,6.5,13.3,13.9,17.8,22.5c3.6,6.8,6.5,13.9,7.1,21.7c-0.1,0.8,0.5,1.3,0.7,1.9c0.7,4.2,1.3,8.5,0.8,12.8
	c-0.3,2.7,0.1,5.6-0.8,8.3c-0.3,0.7-0.9,1.4-0.7,2.3c-0.8,4.8-1.8,9.6-4,14.1c-1.1,2.3-1,2.6,1.5,3.4c16.2,5,31.6,11.7,46.4,19.9
	c9.5,5.3,18.4,11.3,27.1,17.7c7.6,5.7,14.7,12,21.7,18.4c4.7,4.3,9,9,13.2,13.7c6.7,7.6,12.8,15.7,18.4,24.2
	c2.1,3.1,4.1,6.4,5.9,9.7c3.8,6.7,7.2,13.5,10.5,20.4c1.6,3.4,2.9,7,4.2,10.6c2.6,7.2,4.8,14.5,6.5,22c1.4,6.2,2.4,12.4,3.2,18.7
	c0.3,2.2,0.4,4.4,0.5,6.5c0.7,9.9,0.3,19.8-0.3,29.7c-0.4,7.4-0.9,14.7-2.3,22c-1.3,6.4-2.2,13-3.9,19.3c-2.1,7.7-4.4,15.3-7.3,22.7
	c-2.4,6.2-5.2,12.2-8.1,18.2C502.3,607.5,501,608.9,500,610.5z"></path>
<path class="st1" d="M369.4,269.5c-0.7-7.7-3.6-14.7-7.1-21.4c-3.2-6.2-7.2-11.9-12-16.9c-6.3-6.6-13.3-12.2-21.4-16.5
	c-16.1-8.7-33.5-12.8-51.7-13.9c-0.1,0-0.3,0-0.4,0c-4.6-0.1-4.6-0.1-4.5-4.6c0.1-3.6,1.2-7,2.4-10.3c7.4-0.2,14.9-0.7,22.3-0.6
	c20,0.1,39.9,2,59.6,5.8c17,3.3,33.6,8,49.8,14.1c11.7,4.4,23.1,9.6,34.2,15.5c9.7,5.2,19.1,10.8,28.1,17.1
	c6.9,4.8,13.5,9.8,20,15.1c5.5,4.6,10.8,9.4,16,14.4c5.6,5.4,11,11.1,16,17.1c4.1,4.8,8,9.6,11.8,14.7c4.4,6,8.5,12,12.3,18.4
	c2.8,4.7,5.5,9.5,8.1,14.4c2.8,5.5,5.4,11,7.8,16.7c3.1,7.3,5.6,14.7,8.1,22.2c1.9,5.7,2.8,11.6,4.4,17.3c2.3,8,2.8,16.1,4,24.3
	c0.3,0.5,0.4,1,0.3,1.6c0.1,0.8-0.2,1.7,0.4,2.4c1.3,14.3,1,28.6,0,42.8c-0.7,0.8-0.1,1.9-0.8,2.7c-0.8,7.5-1.9,14.9-3.2,22.3
	c-0.4,0.4-0.4,1-0.8,1.4c-1.1,4.9-1.9,9.9-3.4,14.7c-2.4,7.6-5,15.1-7.9,22.5c-2.3,5.9-5.1,11.6-7.9,17.3c-2.4,4.8-5,9.6-7.8,14.2
	c-3.9,6.4-8,12.7-12.4,18.8c-3.7,5.2-7.7,10.1-11.8,15c-5,5.8-10.1,11.5-15.6,16.8c-2.1,2-3.9,4.4-6.5,6c2-3.9,4-7.8,6-11.7
	c0.1-0.3,0.3-0.5,0.4-0.8c2-5.7,4.6-11.1,6.6-16.8c1.6-4.6,2.6-9.3,4.2-13.9c2-5.6,2.5-11.5,3.8-17.2c3.4-15.5,3.8-31.2,3.9-46.9
	c0-10-0.8-20-3-29.8c-1.2-5.2-2-10.6-3.9-15.6c-1.4-3.7-2.2-7.7-3.7-11.3c-2.5-6.1-5.1-12.3-7.9-18.3c-2.5-5.1-5.2-10.2-8.2-15
	c-3.8-6.1-7.8-12-12-17.8c-3.5-4.8-7.3-9.3-11.2-13.7c-5.7-6.3-11.5-12.3-17.9-17.9c-4.3-3.7-8.5-7.4-13-10.9
	c-6.1-4.7-12.3-9.2-18.8-13.3c-4.3-2.7-8.6-5.3-13.1-7.8c-9.9-5.5-20.2-10.2-30.8-14.2c-5.3-2-10.6-3.9-16.1-5.4
	c-1.1-0.3-1.1-0.9-0.7-1.8c2.5-5,3.8-10.3,4.8-15.8c0.5-0.5,0.3-1.3,0.8-1.8c0.9-7.3,1-14.6,0-21.8
	C369.8,270.5,369.7,269.9,369.4,269.5z"></path>
<path class="st1" d="M129.3,233.6c-0.2,3.6,0.8,7,1.8,10.4c2.5,8.6,8,14.9,15.4,19.7c7.4,4.8,15.6,6.6,24.3,6.8
	c5.3,0.2,10.6,0.6,16,0.8c1.5,0.1,2,0.5,1.9,2c-0.4,6.1-0.5,12.3,0.7,18.3c1.5,7.6,3.4,15.1,7.2,22c0.8,1.5,0.5,2.2-1.1,2.8
	c-10.4,3.8-20.4,8.6-30.1,13.8c-6.1,3.3-11.9,6.9-17.7,10.7c-6.3,4.2-12.4,8.6-18.3,13.3c-5.1,4.1-10,8.4-14.7,12.9
	c-5.2,5-10.2,10.2-15.1,15.5c-5,5.4-9.4,11.3-13.9,17.2c-1.5,1.9-2.8,4.1-4.1,6.1c-2,3.3-4.1,6.5-6,9.8c-3.3,5.9-6.4,12-9.1,18.2
	c-2.9,6.5-5.3,13.1-7.5,19.8c-1.9,5.7-3.3,11.4-4.4,17.3c-0.4,0.4-0.4,1-0.8,1.4c-1.3,7.1-2.4,14.2-3.2,21.4
	c-0.6,0.6-0.2,1.6-0.8,2.3c-1.9,20-2,40-1.9,60c0,0.2-0.1,0.4-0.1,0.6c-3.6-5.6-6.5-11.6-9.8-17.3c-0.1-0.3-0.3-0.5-0.4-0.8
	c-2-5.4-4.8-10.4-6.9-15.7c-3.1-7.6-5.7-15.3-8.1-23.1c-1.7-5.4-2.5-11-4-16.5c-2.5-8.9-3.1-18-3.9-27.1c-0.7-0.9,0-2.2-0.7-3.2
	c-0.7-10.8-0.8-21.6,0-32.4c0.6-0.8,0.3-1.7,0.4-2.5c0-0.8-0.1-1.6,0.4-2.3c0.7-8,1.4-16,3.2-23.8c1.3-5.4,2-11,3.9-16.3
	c1.5-4.1,2.3-8.4,3.8-12.5c2.5-6.6,5-13.3,7.8-19.8c2.5-5.6,5.2-11.2,8.2-16.5c3.7-6.7,7.7-13.2,12-19.6c3.6-5.5,7.6-10.8,11.7-15.9
	c5.2-6.5,10.6-12.8,16.4-18.8c4.9-5.1,10.1-10,15.4-14.6c7-6.1,14.2-12,21.8-17.3C122.2,238.4,125.8,236,129.3,233.6z"></path>
<path class="st0" d="M359.8,579c-7.2-0.3-13.1-2.9-17.7-9c-3.4-4.6-3.4-13.3-0.9-17.4c5.3-8.4,14.8-11.6,23.8-9.5
	c7.7,1.7,14.4,8.2,15.1,15.6c0.8,8.2-3.6,14.3-10.2,17.8C366.8,578.3,363.4,579.2,359.8,579z"></path>
<path class="st0" d="M232,579.1c-7.5-0.5-13.7-3.2-17.8-10.1c-2.9-4.8-3.1-9.8-1-14.5c3.9-8.5,12.4-12.8,22.2-11.6
	c6.4,0.8,11.5,3.9,15.1,9.2c3.3,4.9,2.7,14.1-0.7,18.5C245.1,576.4,239.2,578.8,232,579.1z"></path>
<path class="st2" d="M13.7,453.2c1.4,0.8,0.7,2.1,0.7,3.2C13.1,455.5,13.8,454.2,13.7,453.2z"></path>
<path class="st3" d="M14.5,415.9c0,0.9,0,1.7,0,2.6c-0.2,0.3-0.5,0.3-0.8,0.1C13.8,417.7,13,416.5,14.5,415.9z"></path>
<path class="st4" d="M577.2,461.5c0.1-1-0.6-2.1,0.8-2.7C577.9,459.7,578.7,460.9,577.2,461.5z"></path>
<path class="st5" d="M493.8,528.1c0,1,0.5,2.1-0.8,2.7C493.1,529.8,492.4,528.7,493.8,528.1z"></path>
<path class="st6" d="M578,416c-1.3-0.4-0.7-1.5-0.8-2.3c0.3-0.2,0.6-0.2,0.8,0.2C578,414.5,578,415.2,578,416z"></path>
<path class="st7" d="M13.7,418.6c0.3,0,0.5-0.1,0.8-0.1c-0.1,0.8,0.6,1.9-0.8,2.3C13.7,420.1,13.7,419.3,13.7,418.6z"></path>
<path class="st8" d="M578,413.8c-0.3-0.1-0.5-0.1-0.8-0.2c0-0.6,0-1.1,0-1.7C578.4,412.2,578,413.1,578,413.8z"></path>
<path class="st9" d="M493.1,486.8c1.1,0.3,0.7,1.2,0.7,1.9C492.7,488.4,492.9,487.6,493.1,486.8z"></path>
<path class="st10" d="M573.3,485.2c-0.1-0.7-0.1-1.2,0.8-1.4C574.2,484.5,574.1,485,573.3,485.2z"></path>
<path class="st11" d="M140.8,499.6c0.2-0.5,0.5-0.9,1.1-0.8c0.1,0,0.2,0.4,0.2,0.5c-0.1,0.4-0.4,0.3-0.7,0.2
	C141.2,499.6,141,499.6,140.8,499.6z"></path>
<path class="st12" d="M265.4,369.6c0.8,7,2.8,13.5,8,18.6c0.4,0.4,0.8,0.6,0.5,1.3c-2.6,6-2.4,11.9,0.2,18
	c2.7,6.4,7.9,10.6,12.3,15.6c1.5,1.7,2.9,3.4,4.6,4.9c6.8,6,14.7,8.3,23.6,7.8c8.2-0.4,14.9-4.1,21.1-9.1c1.2-1,2.2-1.2,3.7-0.7
	c8.5,2.7,16.8,2.1,24.9-1.6c6-2.7,10.7-7,13.8-12.7c3.2-5.9,3.5-12.4,2-18.9c-1.1-4.6-3.6-8.3-6.9-11.6c-1.7-1.7-3.2-3.5-4.8-5.3
	c-4.7-5.4-9.7-10.5-14.4-16c-4.6-5.3-9.5-10.3-14.3-15.4c-1.1-1.2-1.1-2,0.3-3c2.3-1.7,4.4-3.5,6.5-5.4c0.6-0.6,1.1-0.6,1.9-0.4
	c9.1,2.5,18,5.7,26.8,9.2c9.3,3.7,18.2,8.4,26.9,13.4c4.7,2.7,9.1,5.9,13.7,9c6.5,4.3,12.4,9.3,18.3,14.4c3.5,3,6.7,6.4,10,9.7
	c4.9,4.8,9.3,10.1,13.7,15.3c1.7,2.1,3.3,4.3,4.6,6.6c2.7,4.7,5.1,9.4,6.9,14.5c3.1,8.5,3.7,17,1.2,25.5c-2.3,7.7-7,14-13.7,18.7
	c-12.5,8.8-26.5,10.3-41.1,9.1c-9.4-0.8-18.4-3.8-27.6-5.8c-11.8-2.6-23.7-4.9-35.7-6.6c-20.7-3-41.6-4.1-62.5-3.4
	c-14.5,0.5-29,2-43.3,4.6c-15.4,2.7-30.5,6.7-45.2,11.9c-7.6,2.7-15.2,5.6-22.5,9.1c-0.8,0.4-1.6,0.7-2.5,1
	c-0.1-2.2,1.4-3.6,1.9-5.5c1.9-6.9,4.7-13.6,7-20.4c2.5-7.2,5.1-14.3,7.7-21.4c2.7-7.5,5.3-15,8.1-22.5c2.6-7.2,5.3-14.4,7.7-21.6
	c0.6-1.8,1.9-3.4,2-5.5c-2.7,1-4,3.4-5.9,5.1c-4.9,4.3-9.5,9-14.2,13.5c-5.9,5.6-11.9,11-17.8,16.6c-3.1,2.9-6.1,5.8-9.1,8.7
	c-6.1,5.7-12.3,11.4-18.4,17.2c-3.1,3-6.3,6-9.5,9c-6.2,5.8-12.4,11.6-18.6,17.4c-3.1,2.9-6.1,6-9.3,8.9c-4.9,4.6-9.9,9.1-14.7,13.8
	c-2.9,2.9-6,5.7-9,8.5c-1.9,1.8-3.8,3.6-5.8,5.5c0.3-11.2,1.4-22,2.9-32.7c0.3-0.4,0.4-1,0.7-1.4c0.8-5.1,1.5-10.3,3.1-15.2
	c1.4-4.3,2.2-8.7,3.9-12.9c2.5-6.3,4.9-12.5,7.8-18.6c2.3-4.9,5-9.6,7.8-14.2c2.6-4.2,5.3-8.3,8.3-12.2c4.9-6.5,10.2-12.8,15.9-18.6
	c6.3-6.4,12.9-12.5,19.9-18.1c8-6.4,16.4-12.2,25.2-17.5c7.2-4.2,14.5-8.1,22-11.5c6.2-2.8,12.5-5.3,18.9-7.4
	c1.7-0.6,2.6,0.8,3.5,1.6c14,10.7,30,16.7,47.2,19.8c1.7,0.3,1.9,0.7,1.3,2.2c-0.5,1.4-0.7,3-1.1,4.5
	C265.4,367.3,266.2,368.6,265.4,369.6z"></path>
<path class="st13" d="M218.9,279.2c0.1-6.4,0.7-12.8,2.5-19c2-6.9,4.6-13.6,7.8-20c2.4-4.7,5-9.3,7.8-13.8c2.5-4,5.4-7.7,7.8-11.7
	c0.7-1.2,1.2-1.4,2.1,0c5.2,8.1,13.1,12.4,22.4,12.7c11.2,0.3,22.1,1.9,32.7,5.4c7,2.3,13.4,5.7,19.2,10.5
	c6,4.9,10.7,10.7,14.2,17.6c5.5,11,6.4,22.5,3,34.2c-2,6.9-5.5,13.2-10.3,18.6c-2.5,2.8-5.2,5.2-8.1,7.6c-0.7,0.6-1,0.5-1.6-0.2
	c-2.1-2.4-4.5-4.5-6.5-7c-10.1-12.5-28-15.3-41.2-8.6c-9,4.5-15,11.3-16,21.7c-0.1,1.2-0.5,1.3-1.6,0.9c-5-2.3-9.8-5-14.3-8.3
	c-5.5-4-9.6-9.1-13.4-14.6c-0.2-0.3-0.3-0.6-0.5-1C220.8,296.3,218.8,288,218.9,279.2z"></path>
<path class="st14" d="M349,405.5c-1.8-0.1-3.8-0.8-5.2-2.9c-1.4-2-3.5-3.3-4.8-5.4c-0.6-0.9-1.3-0.7-2-0.1
	c-6.1,4.5-12.2,9.1-18.4,13.6c-2.4,1.7-4.7,4.1-8.3,2.7c-0.8-0.3-1.4-0.6-2-1.2c-3.6-3.9-7.2-7.8-10.7-11.7
	c-1.1-1.2-0.8-3.9,0.5-5.1c2.2-2.1,4.9-3.7,7.3-5.5c3.5-2.7,7.2-5.2,10.7-7.8c1.4-1,2.8-2.1,4.2-3.1c0.8-0.5,0.8-1,0.2-1.7
	c-2.3-2.9-4.9-5.5-7.4-8.2c-0.9-0.9-1.3-0.7-2.1-0.1c-3.2,2.4-6.4,4.7-9.7,6.9c-2.7,1.8-4.2,1.7-7-0.3c-1.3-0.9-2.2-2.1-3-3.4
	c-1.2-2.3-0.5-4.6,1.9-6.2c3.1-2.2,6.1-4.4,9.2-6.5c1.1-0.8,0.9-1.4,0.1-2.2c-3.9-4.2-7.7-8.4-11.6-12.6c-3.2-3.5-6.5-7-9.8-10.4
	c-1.8-1.9-2.3-5-1-7.3c1.3-2.2,4.9-3.6,7.5-2.7c1.6,0.5,3,1.4,4.2,2.7c6.2,6.8,12.4,13.5,18.6,20.3c3.5,3.8,6.8,7.7,10.3,11.5
	c4.5,5,9.2,9.8,13.7,14.8c3.1,3.3,6,6.7,9.1,10c3.5,3.8,7,7.7,10.6,11.4c1.9,2,2.6,4.7,1.7,7C354.7,404.3,352.7,405.5,349,405.5z"></path>
<path class="st14" d="M174.5,199c9.3,0.6,19.1,1,29,1.8c4.5,0.3,7.5,3.4,8.2,7.5c0.4,2.3-0.2,4.4-1.5,6.2c-2.3,3-4,6.4-5.8,9.6
	c-3.4,6.3-6.7,12.7-9,19.5c-0.3,1-1,1.1-1.8,1.1c-7.4-0.4-14.9-0.8-22.3-1.2c-3.3-0.2-6.4-0.6-9-3.2c-2-2-2.6-4.2-2.4-6.7
	c0.5-8.1,1.1-16.1,1.5-24.2c0.3-6.7,4.9-10.8,11.1-10.4C172.9,199,173.5,199,174.5,199z"></path>
<path class="st15" d="M265.4,369.6c0.1-1.1-0.7-2.4,0.8-3.2C266.1,367.5,266.7,368.8,265.4,369.6z"></path>
<path class="st16" d="M49.7,496.2c0-0.8-0.5-1.9,0.8-2.3C50.4,494.7,50.8,495.7,49.7,496.2z"></path>
<path class="st17" d="M370.1,292.8c0.1,0.7,0.3,1.6-0.8,1.8C369.3,293.9,369.1,293.1,370.1,292.8z"></path>
<path class="st18" d="M369.4,269.5c0.9,0.2,0.8,0.8,0.7,1.4C369.3,270.8,369.2,270.2,369.4,269.5z"></path>
<path class="st19" d="M53.6,472.5c-0.1-0.7,0-1.2,0.8-1.4C54.5,471.8,54.4,472.3,53.6,472.5z"></path>
<path class="st20" d="M82.4,484.7c0.1,0.7,0.1,1.3-0.7,1.4C81.6,485.4,81.6,484.9,82.4,484.7z"></path>
<path class="st21" d="M195.3,217.2c-0.3,4.4-0.6,8.2-0.8,11.9c-0.1,1-0.4,1.4-1.5,1.3c-4.9-0.3-9.8-0.6-14.6-0.8
	c-1.7-0.1-2.1-0.6-2-2.2c0.4-4.2,0.6-8.4,0.8-12.6c0.1-1.1,0.5-1.3,1.5-1.3c5.2,0.3,10.3,0.6,15.5,0.9c0.9,0,1.2,0.4,1.1,1.2
	C195.2,216.4,195.3,217.1,195.3,217.2z"></path>
</svg>
