<svg xmlns="http://www.w3.org/2000/svg" xml:space="preserve" viewBox="0 0 784.8 194.6"><path fill="#FFA801" d="M124.9 57h-.9c-7.6 0-13.6 3.8-16.8 10.9l-28.3 72.3-28.3-72.4-.2-.4c-1.3-2.8-3.9-6.5-8.7-8.6-.5-.2-1-.4-1.6-.6-.3-.1-.5-.2-.8-.2-1.8-.6-3.5-.8-5.3-.8h-.9c-1.5 0-18.5 3.4-18.5 3.4-4.8.9-8.8 3.6-11.6 7.7C.3 72.4-.6 77 .4 82.1s3.8 9.2 8 11.8c4 2.5 8.6 3.3 13.3 2.4l1.2-.2 35.3 84.7c1.7 3.3 4.2 6.3 7.4 8.7 3.6 2.7 7.8 4.1 12.3 4.1h2.3c4.8 0 9-1.4 12.6-4.2 3.1-2.4 5.5-5.3 7.3-9.1l40.7-96.9c1.1-2.8 1.7-6 1.7-9.4 0-4-1.8-7.8-5.4-11.4-3.7-3.7-7.9-5.6-12.2-5.6m57.2-57h-1.4c-5.3 0-9.9 1.9-13.7 5.7s-5.7 8.5-5.7 14v.9c0 5.5 1.8 10.1 5.4 13.9 3.7 3.8 8.4 5.8 13.9 5.8h1.4c5.5 0 10.2-1.9 14-5.7s5.7-8.5 5.7-14v-.9c0-5.5-1.9-10.2-5.7-14-3.7-3.8-8.4-5.7-13.9-5.7m-.8 57.1c-.6 0-1.4.1-2.1.2l-.6.1c-.3 0-.6.1-.8.1l-16.1 3.1c-4.8.9-8.8 3.6-11.6 7.7-2.8 4.2-3.8 8.9-2.8 13.9 1 5.1 3.8 9.2 8 11.8 2.3 1.4 4.8 2.3 7.5 2.6v78.8c0 4.9 1.9 9.3 5.4 12.8 3.6 3.6 8 5.4 13.1 5.4 5.2 0 9.7-2 13.1-5.6 3.2-3.5 4.8-7.8 4.8-12.6V75.5c0-5.2-1.7-9.7-5-13.1-3.1-3.5-7.5-5.3-12.9-5.3m279.3 50.8c.5-1.6 1.1-3.1 1.8-4.4 4.9-9.7 12.3-14.2 23.2-14.2 6.8 0 12.4 2 17.2 6.1 4 3.4 6.7 7.5 8.2 12.5h-50.4zm83 27.2c3.4-3.5 5.1-7.8 5.1-12.7 0-18.3-5.4-33.8-16.1-46.2-11.5-13.5-27.3-20.3-47-20.3-20.6 0-36.8 7.4-48.4 22-9.9 12.7-15 28.6-15 47.3 0 21.7 6 38.9 18 51 12 12.2 28.8 18.3 49.9 18.3 9.9 0 18.9-1.1 26.6-3.1l.3-.1c3.7-1.1 12.3-3.8 18.9-8.7 3.3-2.4 8.7-6.3 8.7-15.4 0-2.9-.9-7.3-5.1-11.3-3.2-3-6.8-4.5-10.9-4.5h-.6c-3.2.1-6.5 1.1-9.9 2.8-7.3 3.3-16.4 5-27.1 5-9.8 0-17.4-2.4-22.6-7.2-3.4-3.1-5.9-6.9-7.6-11.4h69.5c5.3 0 9.9-1.9 13.3-5.5m-125.4 22.3c-2.4-1.7-5.1-2.7-8.1-3.1v-46.2c0-13.6-3.7-25.3-10.9-34.7-8.7-11.7-20.7-17.6-35.7-17.6-12.8 0-24.3 3.7-34 10.9-2.7 1.7-5.2 3.9-7.8 6.7-2.6-3.4-5.7-6.4-9.2-8.8-8.3-5.8-17.5-8.8-27.5-8.8-13 .1-24.3 4-33.5 11.4-2.2-8.5-13.1-12.9-20.1-11.4l-14 3.1c-4.3 1-8 3.5-10.4 7.3-2.4 3.7-3.1 8.1-2.2 12.5 1.4 6.1 6.1 10.9 12.1 12.4v84.1c0 4.9 1.9 9.3 5.4 12.8s8 5.4 12.8 5.4c4.9 0 9.3-1.8 12.8-5.4 3.5-3.5 5.4-8 5.4-12.8v-58.1s-1.8-26.2 26.1-26.2c6.1 0 10.1 1.4 12.1 4.1 2.5 3.4 3.8 9.5 3.8 17.5v62.8c0 4.9 1.9 9.3 5.4 12.8s8 5.4 12.8 5.4c5.1 0 9.7-1.9 13.1-5.5 3.4-3.5 5.1-7.8 5.1-12.7v-55.5S330.6 91 357.8 91c6.1 0 10.1 1.4 12.1 4.1 2.5 3.4 3.8 9.5 3.8 17.5v62.8c0 2.5.5 4.9 1.4 7 1.4 3.8 3.9 6.8 7.2 8.8 3 1.8 6.2 3.2 9.5 2.7 2-.3 14.7-2.4 19.2-3.4s9.2-3.5 11.9-7.4c2.8-4 3.8-8.7 2.8-13.8-1-5.1-3.5-9-7.5-11.9m248.9-11-23.6-23.6 23.6-23.6 23.6 23.6-23.6 23.6zm75.8-23.7 36.5-36.5c3.5-3.5 5.4-8.1 5.4-13s-1.9-9.5-5.4-13-8.1-5.4-13-5.4-9.5 1.9-13 5.4l-36.5 36.5-36.5-36.5c-3.5-3.5-8.1-5.4-13-5.4h-.3c-4.9 0-9.5 1.9-13 5.4l-36.5 36.5-36.5-36.5c-3.5-3.5-8.1-5.4-13-5.4s-9.5 1.9-13 5.4-5.4 8.1-5.4 13 1.9 9.5 5.4 13l36.5 36.5-36.5 36.5c-3.5 3.5-5.4 8.1-5.4 13s1.9 9.5 5.4 13 8.1 5.4 13 5.4 9.5-1.9 13-5.4l36.5-36.5 36.5 36.5c3.5 3.5 8.1 5.4 13 5.4h.2c4.9 0 9.5-1.9 13-5.4l36.5-36.5 36.5 36.5c3.5 3.5 8.1 5.4 13 5.4s9.6-1.9 13-5.4c3.5-3.5 5.4-8.1 5.4-13s-1.9-9.5-5.4-13l-36.4-36.5z"/></svg>