<svg viewBox="0 0 421 360" xmlns="http://www.w3.org/2000/svg">
<path d="M0 1.55925H115.073L0 120.998V1.55925Z" fill="#E10026"/>
<path d="M321.831 1.55926L275.053 146.57C266.01 131.913 253.847 120.375 239.19 113.202C224.533 106.03 206.134 102.287 186.487 102.287C177.756 102.287 172.766 102.599 165.281 103.535C158.109 104.47 146.882 107.277 137.839 110.707C108.836 122.558 82.017 145.947 64.2415 178.067C46.4659 210.5 40.5407 245.739 45.8422 276.613C51.4556 307.174 67.6719 333.993 93.8674 348.027C120.063 362.684 151.248 362.684 179.939 350.833C195.531 344.284 210.5 334.929 224.221 321.831V322.143L213.619 353.328H309.357C313.099 337.736 318.089 319.96 324.014 299.69C324.326 297.819 324.95 295.947 325.261 295.012L421 0H321.207C321.831 0.623704 321.831 1.55926 321.831 1.55926ZM243.244 249.481C228.276 288.775 193.66 312.164 167.153 302.184C140.645 291.581 131.29 251.664 146.57 212.371C161.539 173.078 196.155 149.689 222.662 159.668C249.481 170.271 258.837 210.5 243.244 249.481Z" fill="#005696"/>
</svg>
