<svg viewBox="0 0 256 256" fill="none" xmlns="http://www.w3.org/2000/svg">
    <rect width="256" height="256" fill="#FE946F" />
    <path
        d="M176 84.5C167.661 84.5 159.404 86.1425 151.7 89.3336C143.995 92.5248 136.995 97.2022 131.099 103.099C125.202 108.995 120.525 115.995 117.334 123.7C114.142 131.404 112.5 139.661 112.5 148C112.5 156.339 114.142 164.596 117.334 172.3C120.525 180.005 125.202 187.005 131.099 192.901C136.995 198.798 143.995 203.475 151.7 206.666C159.404 209.858 167.661 211.5 176 211.5V184.962C171.146 184.962 166.34 184.005 161.855 182.148C157.371 180.29 153.296 177.568 149.864 174.136C146.432 170.704 143.71 166.629 141.852 162.145C139.995 157.66 139.038 152.854 139.038 148C139.038 143.146 139.995 138.34 141.852 133.855C143.71 129.371 146.432 125.296 149.864 121.864C153.296 118.432 157.371 115.71 161.855 113.852C166.34 111.995 171.146 111.038 176 111.038V84.5Z"
        fill="white" />
    <path
        d="M81 116.5C89.3389 116.5 97.5962 114.858 105.3 111.666C113.005 108.475 120.005 103.798 125.901 97.9013C131.798 92.0048 136.475 85.0046 139.666 77.3004C142.858 69.5962 144.5 61.3389 144.5 53L117.962 53C117.962 57.8539 117.005 62.6602 115.148 67.1446C113.291 71.6289 110.568 75.7036 107.136 79.1357C103.704 82.5679 99.6289 85.2905 95.1446 87.148C90.6602 89.0055 85.8539 89.9615 81 89.9615L81 116.5Z"
        fill="white" />
</svg>