<svg clip-rule="evenodd" fill-rule="evenodd" stroke-linejoin="round" stroke-miterlimit="2" version="1.1" viewBox="0 0 44 44" xml:space="preserve" xmlns="http://www.w3.org/2000/svg">
    <path d="M44,9.733C44,4.361 39.639,0 34.267,0L9.733,0C4.361,0 0,4.361 0,9.733L0,34.267C0,39.639 4.361,44 9.733,44L34.267,44C39.639,44 44,39.639 44,34.267L44,9.733Z" fill="url(#a)"/>
    <path d="m10.108 41.653h19.421c4.498 0 7.407 0.171 10.096-2.542 2.31-2.31 2.115-6.197 2.261-9.277-2.603 3.911-7.382 3.777-11.073 3.777h-23.723c-6.453 0.012-3.972 8.042 3.019 8.042h-1e-3z" fill="#fef5eb"/>
    <path d="m8.079 34.638h6.893v5.17l-3.446-1.723-3.447 1.723v-5.17z" fill="#ff3d4d" fill-rule="nonzero"/>
    <path d="m18.845 15.028c0.464 0.281 1.002 0.416 1.613 0.416 0.587 0 1.125-0.147 1.589-0.453 0.477-0.305 0.831-0.733 1.088-1.271 0.269-0.55 0.391-1.173 0.391-1.858 0-0.708-0.122-1.332-0.379-1.857-0.256-0.526-0.611-0.929-1.075-1.21-0.465-0.281-1.003-0.416-1.602-0.416-0.586 0-1.124 0.147-1.601 0.452-0.464 0.306-0.831 0.734-1.087 1.271-0.257 0.55-0.379 1.174-0.379 1.858 0 0.709 0.122 1.332 0.379 1.858 0.244 0.526 0.598 0.929 1.063 1.21zm-0.257-3.104c0-0.624 0.074-1.174 0.233-1.65 0.158-0.477 0.378-0.844 0.66-1.088 0.281-0.257 0.598-0.379 0.953-0.379 0.354 0 0.66 0.122 0.953 0.367 0.293 0.244 0.526 0.598 0.697 1.075 0.183 0.465 0.269 1.015 0.269 1.65 0 0.623-0.086 1.173-0.245 1.65s-0.379 0.843-0.66 1.1c-0.269 0.245-0.586 0.379-0.953 0.379-0.355 0-0.66-0.122-0.953-0.367-0.294-0.244-0.526-0.599-0.709-1.075-0.159-0.489-0.245-1.039-0.245-1.662z" fill="#fef5eb" fill-rule="nonzero"/>
    <path d="m35.1 24.463c-0.049-0.44-0.061-0.831-0.061-1.173 0-0.281 0.012-0.489 0.024-0.648l0.013-0.147h-0.477l-0.012 0.122c-0.037 0.44-0.11 0.758-0.196 0.966-0.086 0.195-0.208 0.33-0.379 0.428-0.171 0.085-0.44 0.134-0.807 0.134h-0.672c-0.22 0-0.366-0.012-0.452-0.036-0.061-0.025-0.098-0.062-0.122-0.135-0.025-0.085-0.049-0.232-0.049-0.464v-2.09h0.477c0.22 0 0.379 0.061 0.489 0.158 0.11 0.098 0.183 0.269 0.22 0.502 0.036 0.256 0.048 0.403 0.061 0.452l0.012 0.11h0.452l-0.012-0.135c-0.037-0.562-0.061-1.002-0.061-1.307v-0.44c0-0.318 0.012-0.612 0.024-0.868l0.012-0.135h-0.464l-0.012 0.11-0.025 0.184c-0.024 0.207-0.061 0.379-0.097 0.501-0.025 0.11-0.086 0.208-0.196 0.293-0.086 0.073-0.22 0.122-0.416 0.122h-0.476v-2.053c0-0.232 0.024-0.379 0.049-0.464 0.024-0.074 0.061-0.11 0.122-0.123 0.085-0.024 0.232-0.049 0.452-0.049h0.77c0.318 0 0.538 0.049 0.672 0.123 0.123 0.073 0.22 0.183 0.281 0.354 0.062 0.171 0.123 0.465 0.159 0.856l0.013 0.122h0.476l-0.024-0.147c-0.012-0.134-0.025-0.317-0.025-0.562 0-0.318 0.025-0.672 0.061-1.076l0.013-0.146h-4.901v0.44l0.122 0.012c0.22 0.012 0.366 0.037 0.44 0.061 0.073 0.025 0.11 0.061 0.134 0.135 0.025 0.085 0.049 0.232 0.049 0.464v4.571c0 0.232-0.024 0.379-0.049 0.465-0.024 0.073-0.061 0.11-0.134 0.134-0.074 0.025-0.22 0.049-0.44 0.061l-0.122 0.012v0.44h5.084v-0.134z" fill="#fef5eb" fill-rule="nonzero"/>
    <path d="m29.392 15.321-0.012-0.147c-0.049-0.44-0.061-0.831-0.061-1.173 0-0.318 0.012-0.562 0.024-0.746l0.012-0.146h-0.476l-0.013 0.122c-0.048 0.452-0.109 0.782-0.195 1.014-0.086 0.22-0.208 0.367-0.391 0.465-0.171 0.085-0.44 0.147-0.807 0.147h-0.672c-0.22 0-0.367-0.013-0.452-0.037-0.061-0.025-0.098-0.061-0.123-0.135-0.024-0.085-0.048-0.232-0.048-0.464v-4.62c0-0.232 0.024-0.379 0.048-0.464 0.025-0.074 0.062-0.11 0.123-0.135 0.085-0.024 0.232-0.049 0.452-0.061l0.122-0.012v-0.44h-2.628v0.452l0.123 0.012c0.22 0.012 0.366 0.037 0.44 0.061 0.073 0.025 0.11 0.061 0.134 0.135 0.024 0.085 0.049 0.232 0.049 0.464v4.584c0 0.232-0.025 0.378-0.049 0.464-0.024 0.073-0.061 0.11-0.134 0.134-0.074 0.025-0.22 0.049-0.44 0.062l-0.123 0.012v0.44l5.097 0.012z" fill="#fef5eb" fill-rule="nonzero"/>
    <path d="m13.919 21.506c-0.244-0.257-0.623-0.44-1.1-0.55 0.306-0.134 0.55-0.318 0.721-0.538 0.245-0.305 0.367-0.66 0.367-1.039 0-0.476-0.183-0.867-0.562-1.161-0.367-0.293-0.88-0.428-1.528-0.428-0.147 0-2.665-0.024-2.665-0.024v0.452l0.123 0.013c0.22 0.012 0.366 0.036 0.44 0.061 0.073 0.024 0.11 0.061 0.134 0.134 0.024 0.086 0.049 0.232 0.049 0.465v4.595c0 0.232-0.025 0.379-0.049 0.465-0.024 0.073-0.061 0.11-0.134 0.134-0.074 0.024-0.22 0.049-0.44 0.061l-0.123 0.012v0.453s2.702-0.013 2.873-0.013c0.476 0 0.88-0.073 1.234-0.232 0.355-0.159 0.623-0.391 0.819-0.684 0.196-0.294 0.293-0.636 0.293-1.003 0.025-0.464-0.134-0.855-0.452-1.173zm-2.884-2.615c0-0.22 0.024-0.367 0.049-0.465 0.024-0.085 0.073-0.122 0.122-0.159 0.073-0.036 0.195-0.049 0.379-0.049 0.44 0 0.721 0.11 0.892 0.294 0.171 0.195 0.269 0.501 0.269 0.953 0 0.44-0.098 0.77-0.281 1.027-0.159 0.22-0.465 0.354-0.954 0.354h-0.489v-1.956h0.013zm1.772 4.864c-0.257 0.244-0.648 0.367-1.21 0.367-0.183 0-0.318-0.013-0.391-0.049-0.061-0.025-0.098-0.074-0.122-0.147-0.025-0.085-0.049-0.232-0.049-0.452v-2.212h0.647c0.563 0 0.942 0.122 1.162 0.342 0.232 0.22 0.354 0.55 0.354 1.014 0 0.538-0.134 0.905-0.391 1.137z" fill="#fef5eb" fill-rule="nonzero"/>
    <path d="m23.208 21.506s-0.012 0 0 0c-0.012 0-0.012 0 0 0-0.244-0.257-0.623-0.44-1.1-0.55 0.306-0.134 0.55-0.318 0.721-0.538 0.245-0.305 0.367-0.66 0.367-1.039 0-0.476-0.183-0.867-0.562-1.161-0.367-0.293-0.88-0.428-1.528-0.428-0.147 0-2.665-0.024-2.665-0.024v0.452l0.123 0.013c0.22 0.012 0.366 0.036 0.44 0.061 0.073 0.024 0.11 0.061 0.134 0.134 0.024 0.086 0.049 0.232 0.049 0.465v4.595c0 0.232-0.025 0.379-0.049 0.465-0.024 0.073-0.061 0.11-0.134 0.134-0.074 0.024-0.22 0.049-0.44 0.061l-0.123 0.012v0.453s2.701-0.013 2.873-0.013c0.476 0 0.88-0.073 1.234-0.232 0.355-0.159 0.623-0.391 0.819-0.684 0.195-0.294 0.293-0.636 0.293-1.003 0.012-0.464-0.146-0.855-0.452-1.173zm-0.648-3.19c-0.012 0-0.012 0 0 0zm-2.236 0.575c0-0.22 0.024-0.367 0.049-0.465 0.024-0.085 0.073-0.122 0.122-0.159 0.073-0.036 0.195-0.049 0.379-0.049 0.44 0 0.721 0.11 0.892 0.294 0.171 0.195 0.269 0.501 0.269 0.953 0 0.44-0.098 0.77-0.281 1.027-0.159 0.22-0.465 0.354-0.954 0.354h-0.489v-1.956h0.013zm1.772 4.864c-0.257 0.244-0.648 0.367-1.21 0.367-0.196 0-0.318-0.013-0.391-0.049-0.061-0.025-0.098-0.074-0.122-0.147-0.025-0.085-0.049-0.232-0.049-0.452v-2.212h0.647c0.563 0 0.941 0.122 1.162 0.342 0.232 0.22 0.354 0.55 0.354 1.014 0 0.538-0.134 0.905-0.391 1.137z" fill="#fef5eb" fill-rule="nonzero"/>
    <path d="m15.092 17.766v0.452l0.122 0.013c0.22 0.012 0.367 0.036 0.44 0.061 0.073 0.024 0.11 0.061 0.135 0.134 0.024 0.086 0.048 0.232 0.048 0.465v4.595c0 0.232-0.024 0.379-0.048 0.465-0.025 0.073-0.062 0.11-0.135 0.134s-0.22 0.049-0.44 0.061l-0.122 0.012v0.453h2.628v-0.44l-0.122-0.013c-0.22-0.012-0.367-0.036-0.453-0.061-0.061-0.024-0.097-0.061-0.122-0.134-0.024-0.086-0.049-0.232-0.049-0.465v-4.595c0-0.232 0.025-0.379 0.049-0.465 0.025-0.073 0.061-0.11 0.122-0.134 0.086-0.025 0.232-0.049 0.453-0.061l0.122-0.012v-0.441l-2.628-0.024z" fill="#fef5eb" fill-rule="nonzero"/>
    <path d="m12.758 15.321v-0.44l-0.122-0.012c-0.22-0.012-0.367-0.037-0.452-0.061-0.062-0.025-0.098-0.061-0.123-0.135-0.024-0.085-0.049-0.232-0.049-0.464v-2.102h2.75v2.09c0 0.232-0.024 0.379-0.048 0.464-0.025 0.073-0.062 0.11-0.135 0.135-0.073 0.024-0.22 0.048-0.44 0.061l-0.122 0.012v0.44h2.628v-0.452l-0.123-0.013c-0.22-0.012-0.366-0.036-0.452-0.061-0.061-0.024-0.098-0.061-0.122-0.134-0.024-0.086-0.049-0.232-0.049-0.465v-4.583c0-0.232 0.025-0.379 0.049-0.464 0.024-0.074 0.061-0.11 0.122-0.135 0.086-0.024 0.232-0.049 0.452-0.061l0.123-0.012v-0.452h-2.628v0.44l0.122 0.012c0.22 0.012 0.367 0.036 0.44 0.061 0.073 0.024 0.11 0.061 0.135 0.134 0.024 0.086 0.048 0.233 0.048 0.465v2.053h-2.75v-2.041c0-0.232 0.025-0.379 0.049-0.464 0.025-0.074 0.061-0.11 0.123-0.135 0.085-0.024 0.232-0.049 0.452-0.061l0.122-0.012v-0.44h-2.628v0.452l0.122 0.012c0.22 0.012 0.367 0.037 0.44 0.061 0.074 0.025 0.11 0.061 0.135 0.135 0.024 0.085 0.049 0.232 0.049 0.464v4.584c0 0.232-0.025 0.379-0.049 0.464-0.025 0.073-0.061 0.11-0.135 0.135-0.073 0.024-0.22 0.048-0.44 0.061l-0.122 0.012v0.452h2.628z" fill="#fef5eb" fill-rule="nonzero"/>
    <path d="m29.185 9.027c0.073 0.061 0.159 0.171 0.269 0.378l1.87 3.447v1.345c0 0.232-0.025 0.378-0.049 0.464-0.024 0.073-0.061 0.11-0.134 0.134-0.074 0.025-0.22 0.049-0.441 0.062l-0.122 0.012v0.452l2.481-0.012 0.135 0.012v-0.44l-0.122-0.012c-0.22-0.012-0.367-0.037-0.453-0.061-0.061-0.025-0.097-0.061-0.122-0.135-0.024-0.085-0.049-0.232-0.049-0.464v-1.65l1.442-2.86c0.135-0.257 0.257-0.44 0.355-0.55 0.11-0.122 0.208-0.184 0.293-0.208l0.098-0.024v-0.428h-1.882l-0.135-0.012v0.44h0.123c0.269 0 0.44 0.048 0.55 0.11 0.085 0.048 0.134 0.122 0.134 0.256 0 0.171-0.073 0.416-0.232 0.734l-1.076 2.126-1.418-2.713c-0.061-0.11-0.073-0.196-0.073-0.269 0-0.037 0.012-0.061 0.025-0.086 0.012-0.024 0.036-0.048 0.073-0.061 0.073-0.049 0.22-0.073 0.428-0.073h0.134v-0.464h-2.371v0.476h0.135c0.012 0 0.061 0.012 0.134 0.074z" fill="#fef5eb" fill-rule="nonzero"/>
    <path d="m29.38 23.29c0-0.318 0.012-0.562 0.024-0.745l0.013-0.147h-0.477l-0.012 0.122c-0.049 0.452-0.11 0.782-0.196 1.015-0.085 0.22-0.207 0.366-0.379 0.464-0.171 0.086-0.44 0.147-0.806 0.147h-0.673c-0.219 0-0.366-0.013-0.452-0.037-0.061-0.024-0.098-0.061-0.122-0.134-0.024-0.086-0.049-0.233-0.049-0.465v-4.595c0-0.233 0.025-0.379 0.049-0.465 0.024-0.073 0.061-0.11 0.122-0.134 0.086-0.025 0.232-0.049 0.452-0.061l0.123-0.013v-0.44h-2.628v0.453l0.122 0.012c0.22 0.012 0.367 0.036 0.44 0.061 0.073 0.024 0.11 0.061 0.135 0.134 0.024 0.086 0.048 0.232 0.048 0.465v4.559c0 0.232-0.024 0.379-0.048 0.464-0.025 0.073-0.062 0.11-0.135 0.135-0.073 0.024-0.22 0.048-0.44 0.061l-0.122 0.012v0.44h5.084l-0.012-0.147c-0.037-0.428-0.061-0.819-0.061-1.161z" fill="#fef5eb" fill-rule="nonzero"/>
    <defs>
        <linearGradient id="a" x2="1" gradientTransform="matrix(2.6942e-15 44 -44 2.6942e-15 22 -6.7385e-6)" gradientUnits="userSpaceOnUse"><stop stop-color="#c93d34" offset="0"/><stop stop-color="#7a2629" offset="1"/></linearGradient>
    </defs>
</svg>
