<svg xmlns="http://www.w3.org/2000/svg" viewBox="0 -6.690621603411273e-7 46.220001220703125 55.32999801635742"><g id="Laag_2" data-name="Laag 2"><g id="Laag_1-2" data-name="Laag 1"><path d="M27,3.4A22.45,22.45,0,0,0,26,0c1.35.21,2.58.44,3.81.71a19.7,19.7,0,0,1,1.39,3.63C29.81,4,28.45,3.69,27,3.4Z" style="fill:#ac1724"></path><path d="M27.39,7.74a18.5,18.5,0,0,0-.2-3.24c1.47.32,2.85.65,4.27,1A14.42,14.42,0,0,1,31.71,9c-1.45-.45-2.84-.85-4.32-1.25Z" style="fill:#ac1724"></path><path d="M21.44,6.29a26.12,26.12,0,0,0-.25-2.93c1.58.26,3,.53,4.54.84a20.79,20.79,0,0,1,.19,3.16C24.43,7,23,6.63,21.44,6.29Z" style="fill:#ac1724"></path><path d="M15.19,5.05c-.12-.87-.27-1.7-.45-2.6,1.7.21,3.28.42,4.88.67.14,1,.23,1.9.28,2.84-1.56-.33-3.08-.62-4.71-.91Z" style="fill:#ac1724"></path><path d="M8.57,4C8.3,3.24,8,2.51,7.72,1.71c1.86.17,3.58.34,5.32.53.21.88.38,1.69.53,2.53C11.92,4.49,10.31,4.23,8.57,4Z" style="fill:#ac1724"></path><path d="M1.48,3.06C1,2.43.53,1.81,0,1.12c2.06.13,4,.27,5.86.43.35.77.67,1.47,1,2.19-1.76-.24-3.5-.46-5.36-.68Z" style="fill:#ac1724"></path><path d="M26.78,12a18.81,18.81,0,0,0,.54-3.16c1.47.42,2.85.85,4.29,1.32a16.81,16.81,0,0,1-.82,3.43C29.45,13,28.15,12.49,26.78,12Z" style="fill:#ac1724"></path><path d="M21.28,10.08a26.86,26.86,0,0,0,.17-2.83C23,7.61,24.4,8,25.88,8.39a21.53,21.53,0,0,1-.46,3.09c-1.38-.5-2.72-1-4.14-1.4Z" style="fill:#ac1724"></path><path d="M15.56,8.38c-.06-.83-.14-1.63-.25-2.49,1.6.32,3.09.65,4.63,1,0,.94,0,1.83-.06,2.75C18.44,9.2,17.05,8.79,15.56,8.38Z" style="fill:#ac1724"></path><path d="M9.57,6.84c-.25-.71-.48-1.4-.74-2.13,1.69.28,3.27.56,4.89.87.14.83.26,1.6.37,2.4C12.59,7.58,11.13,7.21,9.57,6.84Z" style="fill:#ac1724"></path><path d="M25.27,16.22A27.94,27.94,0,0,0,26.49,13c1.32.54,2.57,1.08,3.86,1.68a25.82,25.82,0,0,1-1.82,3.5C27.46,17.5,26.4,16.86,25.27,16.22Z" style="fill:#ac1724"></path><path d="M20.66,13.83c.21-1,.38-1.87.51-2.82,1.37.49,2.67,1,4,1.49a26.18,26.18,0,0,1-1,3.1C23,15,21.86,14.4,20.66,13.83Z" style="fill:#ac1724"></path><path d="M15.74,11.65c0-.83-.06-1.62-.12-2.45,1.44.44,2.79.88,4.18,1.35-.08.92-.2,1.8-.34,2.72-1.23-.57-2.43-1.09-3.72-1.62Z" style="fill:#ac1724"></path><path d="M22.93,20.59c.69-1.14,1.28-2.2,1.83-3.3,1,.68,2,1.36,3,2.11-.81,1.22-1.69,2.41-2.72,3.7a25.35,25.35,0,0,0-2.12-2.51Z" style="fill:#ac1724"></path><path d="M19.63,17.63c.3-1,.57-1.9.8-2.86,1.14.61,2.2,1.21,3.27,1.87-.46,1.06-1,2.08-1.55,3.17A30.76,30.76,0,0,0,19.63,17.63Z" style="fill:#ac1724"></path><path d="M19.86,25.21c.86-1.21,1.63-2.34,2.37-3.49A21.55,21.55,0,0,1,24,24.38c-1.1,1.31-2.26,2.6-3.56,4a17.12,17.12,0,0,0-.58-3.18Z" style="fill:#ac1724"></path><path d="M27,3.4A22.45,22.45,0,0,0,26,0c1.35.21,2.58.44,3.81.71a19.7,19.7,0,0,1,1.39,3.63C29.81,4,28.45,3.69,27,3.4Z" style="fill:#ac1724"></path><path d="M27.39,7.74a18.5,18.5,0,0,0-.2-3.24c1.47.32,2.85.65,4.27,1A14.42,14.42,0,0,1,31.71,9c-1.45-.45-2.84-.85-4.32-1.25Z" style="fill:#ac1724"></path><path d="M21.44,6.29a26.12,26.12,0,0,0-.25-2.93c1.58.26,3,.53,4.54.84a20.79,20.79,0,0,1,.19,3.16C24.43,7,23,6.63,21.44,6.29Z" style="fill:#ac1724"></path><path d="M15.19,5.05c-.12-.87-.27-1.7-.45-2.6,1.7.21,3.28.42,4.88.67.14,1,.23,1.9.28,2.84-1.56-.33-3.08-.62-4.71-.91Z" style="fill:#ac1724"></path><path d="M8.57,4C8.3,3.24,8,2.51,7.72,1.71c1.86.17,3.58.34,5.32.53.21.88.38,1.69.53,2.53C11.92,4.49,10.31,4.23,8.57,4Z" style="fill:#ac1724"></path><path d="M1.48,3.06C1,2.43.53,1.81,0,1.12c2.06.13,4,.27,5.86.43.35.77.67,1.47,1,2.19-1.76-.24-3.5-.46-5.36-.68Z" style="fill:#ac1724"></path><path d="M26.78,12a18.81,18.81,0,0,0,.54-3.16c1.47.42,2.85.85,4.29,1.32a16.81,16.81,0,0,1-.82,3.43C29.45,13,28.15,12.49,26.78,12Z" style="fill:#ac1724"></path><path d="M21.28,10.08a26.86,26.86,0,0,0,.17-2.83C23,7.61,24.4,8,25.88,8.39a21.53,21.53,0,0,1-.46,3.09c-1.38-.5-2.72-1-4.14-1.4Z" style="fill:#ac1724"></path><path d="M15.56,8.38c-.06-.83-.14-1.63-.25-2.49,1.6.32,3.09.65,4.63,1,0,.94,0,1.83-.06,2.75C18.44,9.2,17.05,8.79,15.56,8.38Z" style="fill:#ac1724"></path><path d="M9.57,6.84c-.25-.71-.48-1.4-.74-2.13,1.69.28,3.27.56,4.89.87.14.83.26,1.6.37,2.4C12.59,7.58,11.13,7.21,9.57,6.84Z" style="fill:#ac1724"></path><path d="M25.27,16.22A27.94,27.94,0,0,0,26.49,13c1.32.54,2.57,1.08,3.86,1.68a25.82,25.82,0,0,1-1.82,3.5C27.46,17.5,26.4,16.86,25.27,16.22Z" style="fill:#ac1724"></path><path d="M20.66,13.83c.21-1,.38-1.87.51-2.82,1.37.49,2.67,1,4,1.49a26.18,26.18,0,0,1-1,3.1C23,15,21.86,14.4,20.66,13.83Z" style="fill:#ac1724"></path><path d="M15.74,11.65c0-.83-.06-1.62-.12-2.45,1.44.44,2.79.88,4.18,1.35-.08.92-.2,1.8-.34,2.72-1.23-.57-2.43-1.09-3.72-1.62Z" style="fill:#ac1724"></path><path d="M22.93,20.59c.69-1.14,1.28-2.2,1.83-3.3,1,.68,2,1.36,3,2.11-.81,1.22-1.69,2.41-2.72,3.7a25.35,25.35,0,0,0-2.12-2.51Z" style="fill:#ac1724"></path><path d="M19.63,17.63c.3-1,.57-1.9.8-2.86,1.14.61,2.2,1.21,3.27,1.87-.46,1.06-1,2.08-1.55,3.17A30.76,30.76,0,0,0,19.63,17.63Z" style="fill:#ac1724"></path><path d="M19.86,25.21c.86-1.21,1.63-2.34,2.37-3.49A21.55,21.55,0,0,1,24,24.38c-1.1,1.31-2.26,2.6-3.56,4a17.12,17.12,0,0,0-.58-3.18Z" style="fill:#ac1724"></path><path d="M19.23,51.93a22.12,22.12,0,0,0,1,3.4c-1.35-.21-2.58-.44-3.82-.71A19.66,19.66,0,0,1,15,51C16.42,51.33,17.77,51.64,19.23,51.93Z" style="fill:#e99800"></path><path d="M19.23,51.93a22.12,22.12,0,0,0,1,3.4c-1.35-.21-2.58-.44-3.82-.71A19.66,19.66,0,0,1,15,51C16.42,51.33,17.77,51.64,19.23,51.93Z" style="fill:#e99800"></path><path d="M18.84,47.59A18.49,18.49,0,0,0,19,50.83c-1.47-.32-2.85-.65-4.27-1a15,15,0,0,1-.25-3.47c1.45.45,2.85.85,4.33,1.25Z" style="fill:#e99800"></path><path d="M18.84,47.59A18.49,18.49,0,0,0,19,50.83c-1.47-.32-2.85-.65-4.27-1a15,15,0,0,1-.25-3.47c1.45.45,2.85.85,4.33,1.25Z" style="fill:#e99800"></path><path d="M24.79,49A28.69,28.69,0,0,0,25,52c-1.57-.26-3-.53-4.53-.83A19.73,19.73,0,0,1,20.3,48C21.8,48.36,23.24,48.7,24.79,49Z" style="fill:#e99800"></path><path d="M31,50.28c.13.87.27,1.7.45,2.6-1.7-.21-3.28-.42-4.88-.67-.14-1-.23-1.9-.28-2.84,1.56.33,3.08.62,4.71.91Z" style="fill:#e99800"></path><path d="M37.66,51.35c.26.75.54,1.48.85,2.27-1.87-.17-3.59-.34-5.33-.53-.21-.88-.38-1.69-.53-2.52,1.65.28,3.27.53,5,.78Z" style="fill:#e99800"></path><path d="M44.75,52.28l1.47,1.93c-2-.13-3.94-.27-5.85-.43-.36-.77-.68-1.47-1-2.19C41.15,51.84,42.88,52.06,44.75,52.28Z" style="fill:#e99800"></path><path d="M19.44,43.36a18.92,18.92,0,0,0-.54,3.17c-1.47-.43-2.85-.86-4.29-1.33a16.81,16.81,0,0,1,.82-3.43c1.35.57,2.64,1.08,4,1.59Z" style="fill:#e99800"></path><path d="M19.44,43.36a18.92,18.92,0,0,0-.54,3.17c-1.47-.43-2.85-.86-4.29-1.33a16.81,16.81,0,0,1,.82-3.43c1.35.57,2.64,1.08,4,1.59Z" style="fill:#e99800"></path><path d="M24.94,45.25a26.84,26.84,0,0,0-.16,2.83c-1.52-.36-3-.73-4.43-1.14a20.19,20.19,0,0,1,.45-3.09c1.38.5,2.72.95,4.14,1.4Z" style="fill:#e99800"></path><path d="M30.66,47c.07.83.15,1.64.26,2.49-1.6-.32-3.1-.64-4.64-1,0-.94,0-1.83.07-2.75,1.44.45,2.83.85,4.31,1.26Z" style="fill:#e99800"></path><path d="M36.66,48.49c.24.71.47,1.4.73,2.13-1.69-.28-3.27-.56-4.89-.87-.14-.83-.26-1.6-.37-2.4C33.64,47.75,35.1,48.11,36.66,48.49Z" style="fill:#e99800"></path><path d="M21,39.11a26.19,26.19,0,0,0-1.22,3.19c-1.33-.54-2.57-1.08-3.86-1.68a25.76,25.76,0,0,1,1.81-3.5c1.08.71,2.13,1.35,3.27,2Z" style="fill:#e99800"></path><path d="M25.57,41.51c-.21,1-.38,1.86-.51,2.81-1.38-.49-2.67-1-4-1.49a28,28,0,0,1,1-3.09C23.23,40.36,24.36,40.93,25.57,41.51Z" style="fill:#e99800"></path><path d="M30.48,43.68c0,.83.07,1.62.12,2.45-1.44-.44-2.79-.87-4.18-1.34.08-.92.2-1.8.35-2.72,1.22.56,2.42,1.08,3.71,1.61Z" style="fill:#e99800"></path><path d="M23.29,34.74c-.69,1.14-1.28,2.2-1.83,3.3-1.05-.68-2-1.36-3-2.11.81-1.22,1.69-2.41,2.72-3.7a25.35,25.35,0,0,0,2.12,2.51Z" style="fill:#e99800"></path><path d="M26.59,37.7c-.3,1-.57,1.9-.8,2.86-1.14-.6-2.2-1.21-3.27-1.86.46-1.06,1-2.09,1.55-3.18a30.76,30.76,0,0,0,2.52,2.18Z" style="fill:#e99800"></path><path d="M26.36,30.12c-.86,1.21-1.63,2.34-2.37,3.5A22.75,22.75,0,0,1,22.22,31c1.1-1.31,2.26-2.6,3.57-4a17.14,17.14,0,0,0,.57,3.17Z" style="fill:#e99800"></path></g></g></svg>
