<svg xmlns="http://www.w3.org/2000/svg" viewBox="-2.00 0 60 60">
  <defs
     id="defs13618">
    <linearGradient
       x1="0"
       y1="0"
       x2="1"
       y2="0"
       id="linearGradient13528"
       gradientUnits="userSpaceOnUse"
       gradientTransform="matrix(38.303947,-38.303947,38.303947,38.303947,-0.5572311,53.991774)"
       spreadMethod="pad">
      <stop
         id="stop13530"
         style="stop-color:#fcd056;stop-opacity:1"
         offset="0" />
      <stop
         id="stop13532"
         style="stop-color:#f36917;stop-opacity:1"
         offset="1" />
    </linearGradient>
  </defs>
  <path
     d="m 26.731929,6.357704 c -4.49375,0 -8.1375,-3.64375 -8.1375,-8.1375 h 28.48125 c 4.49375,0 8.1375,3.6425 8.1375,8.1375 l -10e-4,28.48125 c -4.49375,0 -8.1375,-3.6425 -8.1375,-8.13625 l 10e-4,-16.27625 c 0,-2.2475 -1.8225,-4.06875 -4.06875,-4.06875 z"
     id="path13514"
     style="fill:#f36917;fill-opacity:1;fill-rule:nonzero;stroke:none" />
  <path
     d="m 2.3195589,14.494824 c -2.2475,0 -4.06875,1.8225 -4.06875,4.07 v 0 32.55 c 0,2.2475 1.82125,4.06875 4.06875,4.06875 v 0 H 34.868309 c 2.24875,0 4.07,-1.82125 4.07,-4.06875 v 0 -32.55 c 0,-2.2475 -1.82125,-4.07 -4.07,-4.07 v 0 z"
     id="path13534"
     style="fill:url(#linearGradient13528);stroke:none" />
</svg>
