<svg viewBox="63 45 233.78573608398438 270" version="1.1" xmlns="http://www.w3.org/2000/svg" xmlns:xlink="http://www.w3.org/1999/xlink">
    <title>Artboard</title>
    <defs>
        <linearGradient x1="46.0989231%" y1="4.35685723%" x2="58.3500783%" y2="98.7556033%" id="linearGradient-1">
            <stop stop-color="#42691A" offset="0%"></stop>
            <stop stop-color="#8CC53F" offset="100%"></stop>
        </linearGradient>
    </defs>
    <g id="Artboard" stroke="none" stroke-width="1" fill="none" fill-rule="evenodd">
        <path d="M148.575493,314.121669 C137.054123,313.320182 121.425135,310.414793 112.007668,307.509404 C106.697819,305.806245 105.996518,305.305316 106.19689,303.101228 C106.297076,301.798812 107.599491,291.579858 109.002093,280.359046 C110.404694,269.138234 111.506739,258.618723 111.506739,256.915564 C111.506739,254.410918 111.807296,254.010175 113.310083,254.711476 C136.052265,264.730058 172.319533,267.034332 194.059857,259.921138 C203.57751,256.815378 209.588659,253.308874 215.900366,247.297725 C232.731585,231.267993 234.134186,206.321723 219.507056,184.481214 C211.792747,172.859658 200.171192,163.342005 179.232355,151.620264 L168.3121,145.508928 L194.260228,141.501495 C208.486615,139.297407 220.308542,137.494062 220.408728,137.393877 C220.709286,137.193505 215.699995,104.432741 215.299251,104.132183 C214.998694,103.831626 196.664688,106.536643 170.115445,110.844634 C163.002252,111.946678 145.670104,114.751881 131.644089,116.855783 C117.618074,119.059871 106.096704,120.963402 105.996518,121.163773 C105.896332,121.263959 106.697819,126.874365 107.900049,133.586815 L110.003951,145.809486 L130.241487,158.633271 C168.3121,182.677869 179.332541,191.594407 184.742575,202.614848 C187.447592,208.024882 187.848336,209.828227 187.447592,214.336589 C186.54592,225.857958 178.330683,231.167807 160.297234,231.869108 C140.660813,232.670594 124.530896,227.861675 106.998376,216.039748 C87.0613977,202.414476 72.734825,182.978426 65.8220032,160.436616 C63.4175434,152.622122 63.0168001,149.616547 63.0168001,137.894806 C62.9166143,126.373436 63.2171718,123.267676 65.2208882,116.855783 C72.4342675,93.9132294 87.9630701,76.7814537 109.503022,68.1654729 C122.727551,62.7554384 129.94093,61.4530227 147.072706,61.3528369 C164.204482,61.2526511 169.213773,62.1543235 182.538487,67.3639863 C188.95038,69.8686319 201.774165,77.5829402 203.076581,79.6868425 C203.477324,80.2879575 204.479182,80.7888866 205.280669,80.7888866 C206.382713,80.7888866 206.683271,78.4846127 206.683271,68.3658445 L206.683271,55.9428024 L209.488474,55.3416875 C210.991261,55.04113 225.518205,52.7368561 241.748309,50.2322105 C257.978412,47.727565 272.204799,45.423291 273.407029,45.1227335 C275.410745,44.6218044 275.510931,45.0225477 276.112046,58.9483771 C276.813347,74.9781088 278.616692,87.8018942 288.835645,152.42175 C296.65014,201.212246 297.952555,215.839376 295.948839,230.165949 C294.045308,243.390478 292.141778,249.80237 286.831929,260.722625 C271.603684,292.281159 236.238088,310.514979 183.139602,314.221855 C168.412286,315.323899 163.503181,315.223713 148.575493,314.121669 Z" id="Shape" fill="url(#linearGradient-1)" fill-rule="nonzero" transform="translate(179.8929, 180) scale(-1, 1) rotate(-180) translate(-179.8929, -180)"></path>
    </g>
</svg>
