<svg version="1.1" id="Layer_1" xmlns="http://www.w3.org/2000/svg" xmlns:xlink="http://www.w3.org/1999/xlink" x="0px" y="0px"
	 viewBox="0 0 612 792" style="enable-background:new 0 0 612 792;" xml:space="preserve">
<style type="text/css">
	.st0{fill:#0098FE;}
	.st1{fill:#ED4930;}
	.st2{fill:#333333;}
	.st3{fill:#555266;}
</style>
<path class="st0" d="M56.1,459c0-102.7,0-205.5-0.1-308.2c0-3.5,0.4-4.8,4.4-4.7c163.7,0.1,327.4,0.1,491.1,0c4.1,0,4.4,1.3,4.4,4.7
	c-0.1,102.4-0.1,204.8-0.1,307.2c-60.4,0-120.8,0-181.2,0c-2.1,0-4.3-0.6-6.3,0.7l-0.2-0.2c-102.7,0-205.5,0-308.2,0
	C58.7,458.5,57.4,458.8,56.1,459z"/>
<path class="st1" d="M56.1,459c1.3-0.2,2.6-0.5,3.9-0.5c102.7,0,205.5,0,308.2,0c-0.1,2.2-0.2,4.3-0.2,6.5c0,60.3,0,120.6,0,180.9
	c-102.6,0-205.3,0-307.9,0.1c-3.4,0-4.1-0.7-4.1-4.1C56.1,580.9,56.1,520,56.1,459z"/>
<path class="st2" d="M368,645.9c0-60.3,0-120.6,0-180.9c0-2.2,0.1-4.3,0.2-6.5c0,0,0.2,0.2,0.2,0.2c2.7,0.1,5.3,0.3,8,0.3
	c59.8,0,119.7,0,179.5,0c0,61,0,121.9,0.1,182.9c0,3.4-0.7,4.1-4.1,4.1C490.6,645.9,429.3,645.9,368,645.9z"/>
<path class="st3" d="M555.9,459c-59.8,0-119.7,0-179.5,0c-2.7,0-5.3-0.2-8-0.3c2-1.3,4.2-0.7,6.3-0.7c60.4,0,120.8,0,181.2,0
	C555.9,458.3,555.9,458.6,555.9,459z"/>
</svg>
