<svg xmlns="http://www.w3.org/2000/svg" viewBox="0 0 512 136" preserveAspectRatio="xMidYMid"><path d="M60.936.04h43.33v135.374h-43.33V.04zM.06.04h43.27v135.374H.06V.04zM203.121.04h43.331v135.374h-43.331V.04zM319.577.04h43.331v135.374h-43.331V.04zM437.365.04h43.331v135.374h-43.331V.04z" fill="#3CF"/><path d="M104.132.04h55.658v43.295h-55.658V.04zM104.132 55.522h38.05v43.331h-38.05V55.522zM171.975.04h31.822v43.295h-31.822V.04zM245.911.04h31.822v43.295h-31.822V.04zM288.431.04h31.822v43.295h-31.822V.04zM362.368.04h31.822v43.295h-31.822V.04zM406.241.04h31.822v43.295h-31.822V.04zM480.178.04H512v43.295h-31.822V.04z" fill="#F40"/><path d="M203.121.04h43.331v43.295h-43.331V.04zM319.577.04h43.331v43.295h-43.331V.04zM437.387.04h43.331v43.295h-43.331V.04zM60.936.04h43.33v43.295h-43.33V.04zM60.936 55.522h43.33v43.334h-43.33V55.522z"/></svg>
