<svg version="1.1" id="Layer_1" xmlns="http://www.w3.org/2000/svg" xmlns:xlink="http://www.w3.org/1999/xlink" x="0px" y="0px"
	 viewBox="0 0 612 792" style="enable-background:new 0 0 612 792;" xml:space="preserve">
<style type="text/css">
	.st0{fill:#34CBFE;}
	.st1{fill:#33CBFE;}
	.st2{fill:#FE4502;}
	.st3{fill:#010101;}
	.st4{fill:#000001;}
	.st5{fill:#35CCFE;}
	.st6{fill:#FD4603;}
	.st7{fill:#FD4502;}
	.st8{fill:#FE4401;}
	.st9{fill:#FE4400;}
	.st10{fill:#38C2F0;}
</style>
<path class="st0" d="M77.2,414.4c0-30.7,0-61.3,0-92c0-2.1,0-2.1,2-2.1c11.6,0,23.3,0,34.9,0c1.4,0,1.7,0.4,1.7,1.7
	c0,61.6,0,123.1,0,184.7c0,1.4-0.4,1.8-1.8,1.8c-11.7-0.1-23.4-0.1-35,0c-1.5,0-1.8-0.5-1.8-1.9C77.2,475.9,77.2,445.1,77.2,414.4z"
	/>
<path class="st0" d="M507.3,380.4c0,0.7,0,1.3,0,2c0,41.3,0,82.6,0,123.9c0,2.7,0.1,2.2-2.2,2.2c-11.5,0-22.9,0-34.4,0
	c-2.1,0-2.1,0-2.1-2.1c0-41.9,0-83.8,0-125.7c0-0.1,0-0.2,0-0.3c0.1-0.1,0.1-0.1,0.2-0.2c0.4,0,0.7,0.1,1.1,0.1c12,0,24.1,0,36.1,0
	c0.4,0,0.7-0.1,1.1-0.1C507.1,380.2,507.2,380.3,507.3,380.4z"/>
<path class="st1" d="M297.7,380.4c0,0.6,0.1,1.1,0.1,1.7c0,41.4,0,82.9,0,124.3c0,2.5,0.1,2.1-2.2,2.1c-11.4,0-22.7,0-34.1,0
	c-2.5,0-2.3,0.5-2.3-2.2c0-41.3,0-82.7,0-124c0-0.6,0.1-1.2,0.1-1.8c0.3,0,0.6-0.1,0.9-0.1c12.2,0,24.4,0,36.6,0
	C297.1,380.3,297.4,380.3,297.7,380.4z"/>
<path class="st1" d="M402.3,380.4c0,0.6,0.1,1.1,0.1,1.7c0,41.4,0,82.9,0,124.3c0,2.6,0,2.1-2,2.1c-11.6,0-23.3,0-34.9,0
	c-1.3,0-1.7-0.3-1.7-1.7c0-41.7,0-83.4,0-125.1c0-0.5,0.1-0.9,0.1-1.4c0.4,0,0.7-0.1,1.1-0.1c12,0,24,0,36.1,0
	C401.5,380.3,401.9,380.3,402.3,380.4z"/>
<path class="st2" d="M170.8,320.3c15.9,0,31.8,0,47.7,0c2.1,0,2.1,0,2.1,2c0,18.7,0,37.5,0,56.2c0,1.4-0.3,1.8-1.7,1.8
	c-15.3-0.1-30.7,0-46,0c-0.6,0-1.2,0-1.8,0.1c-0.5-0.6-0.3-1.4-0.3-2.1c0-18.3,0-36.5,0-54.8C170.7,322.4,170.8,321.4,170.8,320.3z"
	/>
<path class="st3" d="M297.7,380.4c-0.3,0-0.6-0.1-0.9-0.1c-12.2,0-24.4,0-36.6,0c-0.3,0-0.6,0.1-0.9,0.1c0-0.1-0.1-0.1-0.1-0.1
	c0-7.9,0-15.9,0-23.8c0-12,0-24,0-36c12.8,0,25.7,0,38.5,0c0,5.6,0,11.2,0,16.8c0,14.3,0,28.7,0,43
	C297.7,380.3,297.7,380.3,297.7,380.4z"/>
<path class="st3" d="M402.3,380.4c-0.4,0-0.8-0.1-1.2-0.1c-12,0-24,0-36.1,0c-0.4,0-0.7,0.1-1.1,0.1c0-0.1-0.1-0.1-0.1-0.2
	c0-0.2,0.1-0.3,0.1-0.5c0-19.8,0-39.5,0-59.3c0.1,0,0.3-0.1,0.4-0.1c12.7,0,25.4,0,38,0c0,1.7,0,3.5,0,5.2c0,12.4,0,24.8,0,37.2
	c0,5.8,0,11.6,0,17.4C402.4,380.3,402.3,380.3,402.3,380.4z"/>
<path class="st3" d="M507.1,380.2c-0.4,0-0.7,0.1-1.1,0.1c-12,0-24.1,0-36.1,0c-0.4,0-0.7-0.1-1.1-0.1c0-0.7-0.1-1.3-0.1-2
	c0-19.2,0-38.5,0-57.7c0.4-0.3,0.8-0.1,1.2-0.1c12,0,24,0,36.1,0c0.4,0,0.8-0.1,1.2,0.2c0,0-0.1,0.1-0.1,0.1c0,19.2,0,38.5,0,57.7
	C507.1,378.9,507.1,379.6,507.1,380.2z"/>
<path class="st3" d="M132.4,380.2c0-0.4-0.1-0.8-0.1-1.2c0-19,0-38,0-57c0-0.5,0.1-0.9,0.1-1.4c0.2,0,0.3,0,0.5,0
	c12.3,0,24.6,0,36.8,0c1.2,0,1.3,0.7,1.3,1.6c0,18.9,0,37.8,0,56.6c0,1.1-0.2,1.5-1.4,1.5C157.2,380.2,144.8,380.2,132.4,380.2z"/>
<path class="st4" d="M132.4,457c0-0.4-0.1-0.8-0.1-1.2c0-19.1,0-38.2,0-57.3c0-0.4,0.1-0.7,0.1-1.1c12.2,0,24.4,0,36.5,0
	c2.1,0,2-0.4,2,2.1c0,18.7,0,37.5,0,56.2c-0.1,0.4-0.1,0.8-0.2,1.2c-0.6,0-1.2,0.1-1.8,0.1c-11.4,0-22.9,0-34.3,0
	c-0.6,0-1.1,0.1-1.7,0.1C132.8,457.1,132.6,457.1,132.4,457z"/>
<path class="st5" d="M132.4,457c0.2,0,0.4,0.1,0.5,0.1c1.2,0,2.4,0.1,3.7,0.1c11.4,0,22.8,0,34.2-0.1l0.1-0.1l0.1,0.1
	c0,16.4,0,32.8,0,49.1c0,2.7,0.1,2.2-2.2,2.2c-11.7,0-23.3,0-35,0c-0.9,0-1.5-0.1-1.5-1.3c0-16.5,0-33.1,0-49.6
	C132.3,457.4,132.4,457.2,132.4,457z"/>
<path class="st6" d="M171,457.1C171,457.1,170.9,457.1,171,457.1c-0.1-0.1-0.2,0-0.2,0c0-0.1,0-0.2-0.1-0.2c0.1-0.4,0.1-0.8,0.2-1.2
	c-0.1,0-0.1,0.1-0.2,0.1c0,0,0-0.1,0-0.1c0-0.3,0-0.5,0-0.8c0-18.7,0-37.4,0-56.1c0-0.6,0.2-1.2,0.3-1.8c10.3,0,20.7,0,31,0.1
	c2,0,2,0,2,2c0,18.7,0,37.5,0,56.2c0,1.5-0.4,1.8-1.9,1.8c-9.8-0.1-19.7,0-29.5,0C172.1,457.1,171.6,457.1,171,457.1z"/>
<path class="st6" d="M468.7,320.5c0,19.2,0,38.5,0,57.7c0,0.7,0,1.3,0.1,2c-0.1,0.1-0.1,0.1-0.2,0.2c-8.4,0-16.7,0-25.1-0.1
	c-2.5,0-2.5,0-2.5-2.5c0-18.5,0-36.9,0-55.4c0-2.1,0-2.1,2-2.1c8,0,16,0,24,0C467.6,320.4,468.2,320.2,468.7,320.5z"/>
<path class="st7" d="M507.1,380.2c0-0.6,0.1-1.2,0.1-1.8c0-19.2,0-38.5,0-57.7c0,0,0-0.1,0.1-0.1c0.4-0.3,0.9-0.2,1.3-0.2
	c8.3,0,16.5,0,24.8,0c1.3,0,1.6,0.4,1.6,1.6c0,19,0,37.9,0,56.9c0,1.3-0.5,1.5-1.6,1.5c-8.1,0-16.2,0-24.3,0c-0.6,0-1.1,0-1.7,0.1
	C507.2,380.3,507.1,380.2,507.1,380.2z"/>
<path class="st8" d="M297.8,380.2c0-14.3,0-28.7,0-43c0-5.6,0-11.2,0-16.8c7.7,0,15.4-0.1,23.1-0.1c1.4,0,3.3-0.5,4.1,0.2
	c1,0.8,0.3,2.8,0.3,4.2c0,18,0,35.9,0,53.9c0,1.3-0.3,1.6-1.6,1.6c-8.2-0.1-16.4,0-24.6,0C298.7,380.3,298.2,380.2,297.8,380.2z"/>
<path class="st8" d="M363.9,320.4c0,19.8,0,39.5,0,59.3c0,0.2,0,0.3-0.1,0.5c-1.9,0-3.9,0.1-5.8,0.1c-6.8,0-13.6,0-20.3,0
	c-1.2,0-1.4-0.3-1.4-1.4c0-19,0-38,0-57c0-1.3,0.3-1.6,1.6-1.6c8.2,0.1,16.4,0,24.6,0C363,320.4,363.4,320.4,363.9,320.4z"/>
<path class="st9" d="M258.9,380.2c-8.8,0-17.5,0-26.3,0.1c-1.2,0-1-0.7-1-1.4c0-8.1,0-16.3,0-24.4c0-10.6,0-21.3,0-31.9
	c0-0.6,0-1.1,0.1-1.7c8.6,0,17.1,0,25.7,0c1.3,0,1.6,0.4,1.6,1.7C258.9,341.8,258.9,361,258.9,380.2z"/>
<path class="st9" d="M429.9,320.9c0,0.5,0.1,1,0.1,1.5c0,18.7,0,37.4,0,56.1c0,1.4-0.3,1.8-1.7,1.8c-8.6-0.1-17.1-0.1-25.7-0.1
	c0-19.2,0-38.5,0-57.7c0-1.3,0.3-1.6,1.6-1.6C412.8,320.9,421.4,320.9,429.9,320.9z"/>
<path class="st10" d="M171,397c-0.2,0.6-0.3,1.1-0.3,1.8c0,18.7,0,37.4,0,56.1c0,0.3,0,0.5,0,0.8c0,0,0,0.1,0,0.1
	c0.1,0,0.1,0,0.2-0.1c0-18.7,0-37.5,0-56.2c0-2.4,0.1-2.1-2-2.1c-12.2,0-24.4,0-36.5,0c-0.3-4.8-0.1-9.6-0.1-14.4
	c0-1-0.2-1.9,0.1-2.9c12.4,0,24.8,0,37.1,0c1.2,0,1.4-0.4,1.4-1.5c0-18.9,0-37.8,0-56.6c0-0.9,0-1.6-1.3-1.6c-12.3,0-24.6,0-36.8,0
	c-0.2,0-0.3,0-0.5,0c0-0.7,0.6-0.4,0.9-0.4c12.5,0,25,0,37.5,0c0,1.1-0.1,2.1-0.1,3.2c0,18.3,0,36.5,0,54.8c0,0.7-0.2,1.4,0.3,2.1
	C171,385.9,171,391.5,171,397z"/>
<path class="st10" d="M170.8,456.9c0,0.1,0.1,0.1,0.1,0.2c-11.4,0-22.8,0-34.2,0.1c-1.2,0-2.4,0-3.7-0.1c0.6,0,1.1-0.1,1.7-0.1
	c11.4,0,22.9,0,34.3,0C169.5,457,170.1,457,170.8,456.9z"/>
</svg>
