<svg version="1.1" viewBox="0 0 256 256" xmlns="http://www.w3.org/2000/svg">
 <path d="m219.38 105.27-21.78-21.78h-0.94697v0.94697 155.3 0.94697h0.94697l21.78-21.78c0.94697-0.94697 1.894-2.8409 1.894-3.7879v-106.06c0-0.94697-0.94698-2.8409-1.894-3.7879" fill="#f50" stroke-width="9.4697"/>
 <path d="m179.61 70.235h-78.598s-0.94697 0-0.94697-0.94697v-65.341-0.94697h-0.94697l-21.78 22.727c-0.94697 0-1.8939 1.8939-1.8939 2.8409v65.341s0 0.94697 0.94697 0.94697h78.598c0.94697 0 0.94697 0.94697 0.94697 0.94697v11.364c0 1.8939-1.8939 2.8409-2.8409 2.8409h-76.705v0.94697 83.333c0 9.4697 7.5758 17.045 17.045 17.045h59.659c1.8939 0 2.8409 0.94696 2.8409 2.8409v11.364c0 0.94698-0.94697 0.94698-0.94697 0.94698h-62.5c-17.992 0-33.144-15.152-33.144-33.144v-148.67-0.94697h-0.94697l-21.78 22.727c-0.94697 0-1.8939 1.8939-1.8939 2.8409v132.58c0 28.409 22.727 51.136 51.136 51.136h94.697s0.94697 0 0.94697-0.94697l-1.894-181.82c0.947 0 0.947 0 0 0zm-23.674 114.58c0 1.8939-1.8939 2.8409-2.8409 2.8409h-50.189c-1.8939 0-2.8409-0.94698-2.8409-2.8409v-45.455c0-1.8939 1.8939-2.8409 2.8409-2.8409h49.242c1.894 0 2.8409 0.94696 2.8409 2.8409v45.455z" fill="#f50" stroke-width="9.4697"/>
</svg>
