<svg width="74" height="74" viewBox="0 0 74 74" fill="none" xmlns="http://www.w3.org/2000/svg">
<path fill-rule="evenodd" clip-rule="evenodd" d="M36.9999 74C57.4345 74 74 57.4345 74 36.9999C74 16.5654 57.4345 0 36.9999 0C16.5654 0 0 16.5654 0 36.9999C0 57.4345 16.5654 74 36.9999 74ZM35.8346 55.5143C35.8346 45.955 28.0851 38.2057 18.5259 38.2057H9.2947C9.2947 47.765 17.044 55.5143 26.6033 55.5143H35.8346ZM47.3735 55.5143C56.9329 55.5143 64.6821 47.765 64.6821 38.2057H55.451C45.8917 38.2057 38.1424 45.955 38.1424 55.5143H47.3735ZM18.5259 35.8979C28.0851 35.8979 35.8346 28.1487 35.8346 18.5894H26.6033C17.044 18.5894 9.2947 26.3386 9.2947 35.8979H18.5259ZM64.6821 35.8979C64.6821 26.3386 56.9329 18.5894 47.3735 18.5894H38.1424C38.1424 28.1487 45.8917 35.8979 55.451 35.8979H64.6821Z" fill="#5FD800"/>
</svg>
