<svg xmlns="http://www.w3.org/2000/svg" viewBox="0 0 24 24"><path d="M12,24C5.383,24,0,18.617,0,12S5.383,0,12,0s12,5.383,12,12S18.617,24,12,24z M12,1C5.935,1,1,5.935,1,12s4.935,11,11,11s11-4.935,11-11S18.065,1,12,1z"/><path d="M9.5,18c-0.088,0-0.176-0.023-0.254-0.069C9.093,17.841,9,17.677,9,17.5v-11c0-0.177,0.093-0.341,0.246-0.431C9.397,5.98,9.586,5.977,9.741,6.062l10,5.5C19.901,11.649,20,11.817,20,12s-0.099,0.351-0.259,0.438l-10,5.5C9.666,17.979,9.583,18,9.5,18z M10,7.346v9.309L18.462,12L10,7.346z"/><path d="M6.5,17c-0.083,0-0.165-0.021-0.24-0.062C6.1,16.852,6,16.683,6,16.5v-9c0-0.183,0.1-0.352,0.26-0.438c0.16-0.088,0.356-0.082,0.51,0.018l7,4.5C13.914,11.672,14,11.83,14,12s-0.086,0.328-0.229,0.421l-7,4.5C6.688,16.974,6.594,17,6.5,17z M7,8.416v7.168L12.575,12L7,8.416z"/></svg>