<svg version="1.1" id="Layer_1" xmlns="http://www.w3.org/2000/svg" xmlns:xlink="http://www.w3.org/1999/xlink" x="0px" y="0px"
	 viewBox="0 0 612 792" style="enable-background:new 0 0 612 792;" xml:space="preserve">
<style type="text/css">
	.st0{fill:#F28020;}
	.st1{fill:#F9AE40;}
</style>
<path class="st0" d="M0.45,528.16c0-5.23,0-10.47,0-15.7c1.05-21.43,6.32-41.74,16.4-60.72c4.99-9.39,11.18-18.01,18.67-25.55
	c5.87-5.91,12.33-11.15,19.72-15.23c5.87-3.23,11.92-5.77,18.34-7.68c4.83-1.44,9.71-1.92,14.65-2.15c1.67-0.08,1.74-0.73,1.52-2.09
	c-2.32-13.8-2.23-27.56,0.61-41.29c2.52-12.17,7.2-23.46,14.12-33.77c4.06-6.04,8.97-11.42,14.67-15.94
	c3.48-2.75,7.27-5.1,11.31-7.08c7.93-3.89,16.25-5.7,25.01-5.25c6.95,0.36,13.56,2.11,19.9,5.16c6.2,2.98,11.69,6.85,16.83,11.59
	c2.16-8.1,4.67-15.98,7.67-23.69c5-12.83,11.17-25.06,18.66-36.64c5.16-7.97,10.89-15.5,17.27-22.49
	c4.98-5.45,10.38-10.5,16.11-15.22c5.65-4.65,11.71-8.65,17.83-12.58c2.82-1.81,5.95-3.13,8.95-4.65
	c5.48-2.78,11.34-4.65,17.03-6.93c1.09-0.44,2.31-0.56,3.48-0.79c4.41-0.88,8.8-1.87,13.22-2.7c10.3-1.93,20.61-1.58,30.87-0.56
	c6.26,0.62,12.52,2.01,18.57,3.9c6.47,2.02,12.85,4.44,18.91,7.51c9.12,4.62,17.64,10.14,25.58,16.65
	c11.83,9.69,21.87,20.92,30.59,33.44c9.6,13.78,17.07,28.63,22.9,44.33c4.69,12.63,7.99,25.63,10.46,38.87
	c0.75,4.01-0.59,7.51-1.63,11.09c-3.76,12.96-7.6,25.91-11.57,38.81c-3.5,11.39-8.93,21.8-16.09,31.36
	c-5.22,6.97-11.26,13.08-18.08,18.39c-3.55,2.77-7.54,4.97-11.56,7.11c-4.47,2.38-9.29,3.52-14.05,4.89
	c-1.96,0.57-4.14,0.53-6.22,0.56c-15.5,0.21-31.02,0.07-46.51,0.61c-37.45,1.31-74.91,1.16-112.36,1.81
	c-6.78,0.12-13.56,0.28-20.35,0.28c-13.69,0-27.34,1.28-41.03,0.98c-2.61-0.06-4.85,1.75-5.67,4.45c-0.77,2.55-0.45,5.04,1.42,7.08
	c0.73,0.8,1.86,0.87,2.92,0.88c2.24,0.02,4.47-0.02,6.71,0.05c39.61,1.27,79.23,1.41,118.85,1.94c11.25,0.15,22.53-0.07,33.76,0.52
	c19.86,1.04,39.74,0.57,59.59,1.22c11.92,0.39,21.13,5.94,27.21,16.31c5.61,9.57,7.01,20.03,6.38,30.92
	c-0.54,9.19-3.11,18.01-4.83,26.98c-0.63,3.3-3.44,5.72-7.25,5.71c-134.18-0.07-268.37-0.07-402.55,0c-3.97,0-6.14-2.57-6.37-5.81
	C0.81,534.11,0.64,531.13,0.45,528.16z"/>
<path class="st1" d="M517.92,542.84c-27.36,0-54.71-0.07-82.07,0.08c-3.35,0.02-4.98-2.57-4.16-5.31
	c3.12-10.37,6.05-20.81,11.32-30.37c4.68-8.48,10.28-16.26,17.12-23.19c4.71-4.77,9.83-9.02,15.47-12.54
	c3.07-1.92,6.43-3.49,9.83-4.91c8.33-3.47,17.16-3.41,25.91-4.23c11.32-1.06,22.66-1.53,33.99-2.39c3.34-0.25,7.11-0.56,8.6-4.85
	c1.38-3.98-0.49-7.73-4.57-8.14c-8.19-0.82-16.38-1.62-24.6-2c-3.42-0.16-6.91,0-10.25-0.62c-4.77-0.89-9.62-0.61-14.35-1.39
	c-10.23-1.68-18.09-7.02-23.32-16.01c-5.33-9.16-6.81-19.17-6.39-29.62c0.46-11.32,3.9-22.06,6.09-33.04
	c1.31-6.56,2.87-13.08,4.34-19.6c0.63-2.77,1.77-3.74,4.63-3.86c5.37-0.22,10.8-0.39,16.06,0.56c5.92,1.07,11.95,1.74,17.69,3.81
	c6.36,2.29,12.61,4.84,18.48,8.14c4.37,2.46,8.58,5.23,12.6,8.33c4.19,3.23,8.22,6.59,12.03,10.25c6.16,5.94,11.63,12.44,16.6,19.42
	c7.5,10.55,13.5,21.86,18.33,33.83c4.88,12.09,8.33,24.59,10.55,37.43c2.41,13.91,3.24,27.94,2.69,42.04
	c-0.43,11.09-1.92,22.06-4.09,32.95c-0.6,3.01-2.71,5.34-6.68,5.32C572.48,542.78,545.2,542.84,517.92,542.84z"/>
</svg>
