<svg version="1.1" id="Layer_1" xmlns="http://www.w3.org/2000/svg" xmlns:xlink="http://www.w3.org/1999/xlink" x="0px" y="0px" viewBox="0.45000001788139343 185.38232421875 610.252685546875 357.54779052734375" style="enable-background:new 0 0 612 792;" xml:space="preserve">
<style type="text/css">
	.st0{fill:#F28020;}
	.st1{fill:#F9AE40;}
</style>
<path class="st0" d="M0.45,528.16c0-5.23,0-10.47,0-15.7c1.05-21.43,6.32-41.74,16.4-60.72c4.99-9.39,11.18-18.01,18.67-25.55
	c5.87-5.91,12.33-11.15,19.72-15.23c5.87-3.23,11.92-5.77,18.34-7.68c4.83-1.44,9.71-1.92,14.65-2.15c1.67-0.08,1.74-0.73,1.52-2.09
	c-2.32-13.8-2.23-27.56,0.61-41.29c2.52-12.17,7.2-23.46,14.12-33.77c4.06-6.04,8.97-11.42,14.67-15.94
	c3.48-2.75,7.27-5.1,11.31-7.08c7.93-3.89,16.25-5.7,25.01-5.25c6.95,0.36,13.56,2.11,19.9,5.16c6.2,2.98,11.69,6.85,16.83,11.59
	c2.16-8.1,4.67-15.98,7.67-23.69c5-12.83,11.17-25.06,18.66-36.64c5.16-7.97,10.89-15.5,17.27-22.49
	c4.98-5.45,10.38-10.5,16.11-15.22c5.65-4.65,11.71-8.65,17.83-12.58c2.82-1....84c-27.36,0-54.71-0.07-82.07,0.08c-3.35,0.02-4.98-2.57-4.16-5.31
	c3.12-10.37,6.05-20.81,11.32-30.37c4.68-8.48,10.28-16.26,17.12-23.19c4.71-4.77,9.83-9.02,15.47-12.54
	c3.07-1.92,6.43-3.49,9.83-4.91c8.33-3.47,17.16-3.41,25.91-4.23c11.32-1.06,22.66-1.53,33.99-2.39c3.34-0.25,7.11-0.56,8.6-4.85
	c1.38-3.98-0.49-7.73-4.57-8.14c-8.19-0.82-16.38-1.62-24.6-2c-3.42-0.16-6.91,0-10.25-0.62c-4.77-0.89-9.62-0.61-14.35-1.39
	c-10.23-1.68-18.09-7.02-23.32-16.01c-5.33-9.16-6.81-19.17-6.39-29.62c0.46-11.32,3.9-22.06,6.09-33.04
	c1.31-6.56,2.87-13.08,4.34-19.6c0.63-2.77,1.77-3.74,4.63-3.86c5.37-0.22,10.8-0.39,16.06,0.56c5.92,1.07,11.95,1.74,17.69,3.81
	c6.36,2.29,12.61,4.84,18.48,8.14c4.37,2.46,8.58,5.23,12.6,8.33c4.19,3.23,8.22,6.59,12.03,10.25c6.16,5.94,11.63,12.44,16.6,19.42
	c7.5,10.55,13.5,21.86,18.33,33.83c4.88,12.09,8.33,24.59,10.55,37.43c2.41,13.91,3.24,27.94,2.69,42.04
	c-0.43,11.09-1.92,22.06-4.09,32.95c-0.6,3.01-2.71,5.34-6.68,5.32C572.48,542.78,545.2,542.84,517.92,542.84z"></path>
</svg>
