<svg xmlns="http://www.w3.org/2000/svg" fill="none" viewBox="0.00 -0.00 24.00 24.01"><path d="M10.803 23.964c-1.848-.177-3.72-.841-5.328-1.89-1.347-.88-1.651-1.24-1.651-1.962 0-1.448 1.592-3.985 4.317-6.878 1.548-1.643 3.704-3.568 3.937-3.516.453.102 4.077 3.636 5.433 5.3 2.145 2.63 3.131 4.785 2.63 5.745-.38.73-2.744 2.157-4.48 2.706-1.43.452-3.31.643-4.858.495zm-8.8-5.358C.885 16.888.32 15.197.046 12.752c-.09-.808-.057-1.27.205-2.927.328-2.066 1.504-4.456 2.918-5.927.602-.627.656-.642 1.39-.395.89.3 1.843.958 3.319 2.293l.861.778-.47.578C6.085 9.834 3.78 13.636 2.91 15.988c-.472 1.279-.662 2.562-.46 3.096.138.361.012.227-.447-.478zm19.653.292c.11-.54-.029-1.531-.357-2.531-.71-2.166-3.083-6.196-5.263-8.936l-.686-.862.743-.681c.969-.89 1.642-1.423 2.368-1.876.573-.357 1.391-.673 1.743-.673.217 0 .98.793 1.598 1.658.954 1.34 1.657 2.964 2.013 4.655.23 1.092.25 3.43.037 4.52a14.248 14.248 0 01-.9 2.841c-.269.59-.937 1.735-1.23 2.107-.15.192-.15.192-.066-.222zM11.001 2.93c-1.005-.51-2.557-1.059-3.413-1.206-.3-.052-.813-.08-1.14-.064-.706.036-.675-.001.46-.537C7.85.677 8.637.415 9.705.19c1.2-.252 3.459-.255 4.64-.006 1.277.269 2.78.828 3.628 1.35l.252.155-.578-.03c-1.148-.057-2.82.406-4.617 1.28-.542.264-1.013.475-1.047.468A18.362 18.362 0 0111 2.93z" fill="#107C10"></path></svg>
