<svg fill="none" version="1.1" viewBox="0 0 28 30.003" xmlns="http://www.w3.org/2000/svg">
 <path d="m11.504 0.55908c0.0196-0.01402 0.0392-0.02794 0.059-0.04175-0.1412 0.06278-0.2805 0.13127-0.4176 0.20547l-8 4.3281c-1.9376 1.0483-3.145 3.0742-3.145 5.2772v9.3482c0 2.2032 1.2075 4.2292 3.1454 5.2774l1.9388 1.0487h1.9158l8.0011-4.4451-2.8953-1.5943c-1.9158-1.055-3.1058-3.0688-3.1058-5.2558v-2.8414c0.3135-0.6123 0.9524-1.842 1-1.8634 0.0476-0.021401 2.6865-0.6756 4-1v-8.4434z" fill="url(#m365f)"/>
 <path d="m11.504 0.55908c0.0196-0.01402 0.0392-0.02794 0.059-0.04175-0.1412 0.06278-0.2805 0.13127-0.4176 0.20547l-8 4.3281c-1.9376 1.0483-3.145 3.0742-3.145 5.2772v9.3482c0 2.2032 1.2075 4.2292 3.1454 5.2774l1.9388 1.0487h1.9158l8.0011-4.4451-2.8953-1.5943c-1.9158-1.055-3.1058-3.0688-3.1058-5.2558v-2.8414c0.3135-0.6123 0.9524-1.842 1-1.8634 0.0476-0.021401 2.6865-0.6756 4-1v-8.4434z" fill="url(#m365e)"/>
 <path d="m19 10.717v4.0935c0 2.2032-1.2075 4.2292-3.1454 5.2774l-8 4.3272c-1.6106 0.8712-3.5204 0.9546-5.1882 0.2501 0.15421 0.1031 0.31402 0.1995 0.47913 0.2888l8 4.3271c1.7811 0.9634 3.928 0.9634 5.7091 0l8-4.3271c1.9379-1.0482 3.1454-3.0742 3.1454-5.2775v-2.531l-6-5.1428z" fill="url(#m365d)"/>
 <path d="m19 10.717v4.0935c0 2.2032-1.2075 4.2292-3.1454 5.2774l-8 4.3272c-1.6106 0.8712-3.5204 0.9546-5.1882 0.2501 0.15421 0.1031 0.31402 0.1995 0.47913 0.2888l8 4.3271c1.7811 0.9634 3.928 0.9634 5.7091 0l8-4.3271c1.9379-1.0482 3.1454-3.0742 3.1454-5.2775v-2.531l-6-5.1428z" fill="url(#m365c)"/>
 <path d="m24.855 5.0509-8-4.3281c-1.6442-0.88955-3.6002-0.95804-5.2924-0.20547-1.5949 1.1144-2.5626 2.9457-2.5626 4.9179v6.2695l2.294-1.1592c1.7016-0.8598 3.7104-0.8598 5.412 0l8 4.0424c1.9804 1.0007 3.2436 3.0106 3.2925 5.2217 1e-3 -0.0443 0.0015-0.0888 0.0015-0.1333v-9.3482c0-2.2031-1.2073-4.2289-3.145-5.2772z" fill="url(#m365b)"/>
 <path d="m24.855 5.0509-8-4.3281c-1.6442-0.88955-3.6002-0.95804-5.2924-0.20547-1.5949 1.1144-2.5626 2.9457-2.5626 4.9179v6.2695l2.294-1.1592c1.7016-0.8598 3.7104-0.8598 5.412 0l8 4.0424c1.9804 1.0007 3.2436 3.0106 3.2925 5.2217 1e-3 -0.0443 0.0015-0.0888 0.0015-0.1333v-9.3482c0-2.2031-1.2073-4.2289-3.145-5.2772z" fill="url(#m365a)"/>
 <defs>
  <radialGradient id="m365f" cx="0" cy="0" r="1" gradientTransform="matrix(-11.385 27.101 -33.942 -14.259 12.316 6.4254)" gradientUnits="userSpaceOnUse">
   <stop stop-color="#AE7FE2" offset=".059849"/>
   <stop stop-color="#0078D4" offset="1"/>
  </radialGradient>
  <linearGradient id="m365e" x1="13.292" x2="11.096" y1="24.579" y2="19.338" gradientTransform="translate(-2 -.99756)" gradientUnits="userSpaceOnUse">
   <stop stop-color="#114A8B" offset="0"/>
   <stop stop-color="#0078D4" stop-opacity="0" offset="1"/>
  </linearGradient>
  <radialGradient id="m365d" cx="0" cy="0" r="1" gradientTransform="matrix(19.224 -6.5155 5.0069 14.773 6.5793 24.042)" gradientUnits="userSpaceOnUse">
   <stop stop-color="#D59DFF" offset=".11065"/>
   <stop stop-color="#5E438F" offset="1"/>
  </radialGradient>
  <linearGradient id="m365c" x1="27.426" x2="23.768" y1="16.269" y2="21.456" gradientTransform="translate(-2 -.99756)" gradientUnits="userSpaceOnUse">
   <stop stop-color="#493474" offset="0"/>
   <stop stop-color="#8C66BA" stop-opacity="0" offset="1"/>
  </linearGradient>
  <radialGradient id="m365b" cx="0" cy="0" r="1" gradientTransform="matrix(-23.026 -8.1291 8.0653 -22.845 28.588 15.392)" gradientUnits="userSpaceOnUse">
   <stop stop-color="#50E6FF" offset=".096006"/>
   <stop stop-color="#436DCD" offset="1"/>
  </radialGradient>
  <linearGradient id="m365a" x1="11" x2="15.924" y1="1.718" y2="1.718" gradientTransform="translate(-2 -.99756)" gradientUnits="userSpaceOnUse">
   <stop stop-color="#2D3F80" offset="0"/>
   <stop stop-color="#436DCD" stop-opacity="0" offset="1"/>
  </linearGradient>
 </defs>
</svg>
