<svg xmlns:dc="http://purl.org/dc/elements/1.1/" xmlns:cc="http://creativecommons.org/ns#" xmlns:rdf="http://www.w3.org/1999/02/22-rdf-syntax-ns#" xmlns:svg="http://www.w3.org/2000/svg" xmlns="http://www.w3.org/2000/svg" viewBox="0 0 146.72 146.72" id="svg2" version="1.1">
  <defs id="defs6">
    <clipPath id="clipPath20" clipPathUnits="userSpaceOnUse">
      <path id="path18" d="M 0,0 H 3518 V 1100 H 0 Z" />
    </clipPath>
    <clipPath id="clipPath26" clipPathUnits="userSpaceOnUse">
      <path id="path24" d="M 0,1100.38 H 522.199 V 0 H 0 Z" />
    </clipPath>
    <clipPath id="clipPath36" clipPathUnits="userSpaceOnUse">
      <path id="path34" d="M 0,0 H 3518 V 1100 H 0 Z" />
    </clipPath>
    <clipPath id="clipPath42" clipPathUnits="userSpaceOnUse">
      <path id="path40" d="M 517.949,1100.38 H 1040.15 V 0 H 517.949 Z" />
    </clipPath>
    <clipPath id="clipPath52" clipPathUnits="userSpaceOnUse">
      <path id="path50" d="M 342.938,883.563 H 679.5 V 672.418 H 342.938 Z" />
    </clipPath>
  </defs>
  <g transform="matrix(1.3333333,0,0,-1.3333333,0,146.72)" id="g10">
    <g transform="scale(0.1)" id="g12">
      <g id="g14">
        <g clip-path="url(#clipPath20)" id="g16">
          <g clip-path="url(#clipPath26)" id="g22">
            <path id="path28" style="fill:#36b56b;fill-opacity:1;fill-rule:nonzero;stroke:none" d="m 142.422,916.863 c 0,0 175.715,134.627 374.109,134.627 198.395,0 381.91,-138.166 381.91,-138.166 0,0 -4.961,-333.015 0,-471.187 C 904.109,294.051 600.848,43.2305 516.531,45.3516 447.094,47.4805 170.051,247.285 143.836,442.137 c -3.547,55.976 -1.414,474.726 -1.414,474.726" />
          </g>
        </g>
      </g>
      <g id="g30">
        <g clip-path="url(#clipPath36)" id="g32">
          <g clip-path="url(#clipPath42)" id="g38">
            <path id="path44" style="fill:#2c955c;fill-opacity:1;fill-rule:nonzero;stroke:none" d="m 897.734,916.863 c 0,0 -175.722,134.627 -374.117,134.627 -198.394,0 -381.906,-138.166 -381.906,-138.166 0,0 4.957,-333.015 0,-471.187 -5.668,-148.086 297.59,-398.9065 381.906,-396.7854 69.438,2.1289 346.481,201.9334 372.699,396.7854 2.832,55.976 1.418,474.726 1.418,474.726" />
          </g>
        </g>
      </g>
      <g id="g46">
        <g clip-path="url(#clipPath52)" id="g48">
          <path id="path54" style="fill:none;stroke:#ffffff;stroke-width:67.5196991;stroke-linecap:butt;stroke-linejoin:miter;stroke-miterlimit:10;stroke-dasharray:none;stroke-opacity:1" d="M 580.301,445.68 H 450.637 c -16.297,0 -29.758,13.465 -29.758,29.758 v 324.519 c 0,16.293 13.461,29.762 29.758,29.762 h 129.664 c 16.301,0 29.762,-13.469 29.762,-29.762 V 476.148 c 0,-17.003 -13.461,-30.468 -29.762,-30.468 z" />
        </g>
      </g>
      <path id="path56" style="fill:#ffffff;fill-opacity:1;fill-rule:nonzero;stroke:none" d="m 443.555,532.125 -29.762,-28.34 84.316,-82.191 123.289,127.539 -34.011,31.883 -91.403,-99.2 z M 711.387,339.398 H 331.602 c -6.379,0 -11.34,4.961 -11.34,11.34 v 280.586 c 0,6.375 4.961,11.332 11.34,11.332 h 379.785 c 6.375,0 11.332,-4.957 11.332,-11.332 V 350.738 c 0,-6.379 -4.957,-11.34 -11.332,-11.34" />
      <path id="path104" style="fill:#ffffff;fill-opacity:1;fill-rule:nonzero;stroke:none" d="m 384.031,600.145 h 273.5 V 383.328 h -273.5 v 216.817" />
      <path id="path106" style="fill:#36b56e;fill-opacity:1;fill-rule:nonzero;stroke:none" d="m 559.754,550.547 c 5.668,0 11.34,2.832 14.879,8.5 l 10.629,15.59 c 2.832,4.25 0,9.211 -4.254,9.211 h -41.801 -18.422 -13.461 c -15.594,0 -27.636,-4.254 -36.847,-12.754 -9.215,-8.5 -14.168,-19.84 -15.59,-35.426 v 0 l -4.25,-41.098 v 0 c -1.414,-15.586 2.125,-26.925 9.918,-35.425 7.797,-8.504 19.133,-12.754 34.722,-12.754 h 17 c 3.547,0 4.961,2.832 5.672,6.379 l 1.418,19.835 c 0,3.543 -2.129,6.379 -5.668,6.379 h -9.215 c -6.375,0 -10.625,1.414 -12.754,4.246 -2.121,2.84 -3.539,7.086 -2.832,13.465 l 2.832,36.137 c 0.711,6.379 2.129,10.629 4.961,13.461 2.832,2.84 7.086,4.254 13.465,4.254 h 49.598" />
      <path id="path108" style="fill:#36b56e;fill-opacity:1;fill-rule:nonzero;stroke:none" d="m 517.949,528.578 c -3.543,0 -4.957,-2.832 -5.672,-6.375 l -1.414,-19.84 c 0,-3.539 2.129,-6.379 5.668,-6.379 h 9.215 c 6.375,0 10.625,-1.414 12.754,-4.246 2.125,-2.836 3.539,-7.086 2.832,-13.461 l -2.832,-36.14 c -0.715,-6.375 -2.129,-10.629 -4.961,-13.461 -2.84,-2.836 -7.086,-4.25 -13.465,-4.25 h -7.797 -12.039 -31.175 c -5.672,0 -11.34,-2.832 -14.883,-8.504 l -10.625,-14.168 c -2.84,-4.254 0,-9.215 4.246,-9.215 h 42.515 18.422 13.461 c 15.586,0 27.633,4.254 36.848,12.754 9.207,8.5 14.168,19.84 15.586,35.43 v 0 l 3.543,40.386 v 0 c 1.418,15.586 -2.129,26.922 -9.922,35.43 -7.793,8.5 -19.129,12.754 -34.715,12.754 l -15.59,-0.715 v 0" />

    </g>
  </g>
</svg>
