<svg xmlns="http://www.w3.org/2000/svg"
    viewBox="93.13106536865234 144.0314483642578 634.8417358398438 504.2972412109375" version="1.1">
    <path
        d="M 94.676 294.250 C 93.080 295.419, 92.987 304.247, 93.235 431.021 L 93.500 566.543 96.855 573.358 C 100.751 581.271, 104.719 584.707, 122.236 595.334 C 135.341 603.284, 163.326 617.169, 177 622.506 C 210.192 635.459, 243.499 643.463, 279.500 647.137 C 296.974 648.920, 335.362 648.661, 353.805 646.636 C 454.325 635.597, 544.061 586.444, 607.219 507.829 C 618.134 494.242, 640.466 461, 638.678 461 C 638.396 461, 635.226 464.766, 631.632 469.368 C 614.953 490.727, 590.996 507.542, 564.695 516.348 C 537.431 525.476, 505.943 525.988, 475 517.807 C 418.918 502.979, 348.717 474.865, 297.500 446.724 C 266.393 429.632, 232.562 407.854, 205.091 387.238 C 173.662 363.653, 151.456 344.402, 120.933 314.282 C 109.072 302.577, 98.695 293, 97.875 293 C 97.054 293, 95.614 293.563, 94.676 294.250 M 723.050 314.447 L 718.600 319.500 723.502 314.785 C 726.198 312.192, 728.200 309.918, 727.952 309.732 C 727.703 309.547, 725.497 311.668, 723.050 314.447 M 484 348.500 C 479.903 352.625, 476.775 356, 477.050 356 C 477.325 356, 480.903 352.625, 485 348.500 C 489.097 344.375, 492.225 341, 491.950 341 C 491.675 341, 488.097 344.375, 484 348.500 M 438.500 393 C 426.960 404.550, 417.743 414, 418.018 414 C 418.293 414, 427.960 404.550, 439.500 393 C 451.040 381.450, 460.257 372, 459.982 372 C 459.707 372, 450.040 381.450, 438.500 393"
        stroke="none" fill="#3370ff" fill-rule="evenodd"></path>
    <path
        d="M 620 288.655 C 578.384 292.644, 545.843 303.561, 515.854 323.598 C 499.145 334.761, 493.068 340.187, 451.984 380.624 C 404.241 427.615, 385.184 443.209, 352.239 462.246 L 340.978 468.753 357.239 475.825 C 399.966 494.405, 438.647 508.195, 475 517.807 C 505.943 525.988, 537.431 525.476, 564.695 516.348 C 591.107 507.505, 614.694 490.922, 631.767 469.193 C 641.307 457.050, 642.874 454.241, 669.221 402 C 698.196 344.547, 702.068 338.126, 719.626 318.391 C 723.682 313.832, 727 309.910, 727 309.675 C 727 308.752, 706.876 300.968, 695.863 297.630 C 671.620 290.283, 640.916 286.651, 620 288.655"
        stroke="none" fill="#153c9a" fill-rule="evenodd"></path>
    <path
        d="M 196.200 145.200 C 195.540 145.860, 195 147.425, 195 148.677 C 195 151.079, 194.759 150.868, 216.756 167.784 C 269.800 208.573, 323.525 263.757, 365.957 321.036 C 383.127 344.213, 407.907 382.354, 419.051 402.756 L 422.468 409.012 440.984 390.719 C 482.039 350.158, 494.962 338.005, 504.881 330.630 C 522.418 317.591, 542.832 306.521, 560.712 300.355 L 568.667 297.611 567.242 292.556 C 553.082 242.323, 530.812 197.682, 501.365 160.500 C 494.336 151.624, 490.361 148.510, 482.679 145.855 C 477.801 144.169, 469.364 144.063, 337.450 144.033 C 229.819 144.008, 197.122 144.278, 196.200 145.200"
        stroke="none" fill="#00d6b9" fill-rule="evenodd"></path>
</svg>