<svg xmlns="http://www.w3.org/2000/svg" xmlns:xlink="http://www.w3.org/1999/xlink" version="1.1" id="Ebene_1" x="0px" y="0px" viewBox=" 0 0 182.5 92" >
<style type="text/css">
	.st0{fill:#FFFFFF;}
	.st1{fill:#BED600;}
</style>
<g>
	<path class="st0" d="M18.9,92c-0.7,0-1.3-0.1-1.8-0.3c-0.6-0.2-1-0.5-1.4-0.9c-0.4-0.4-0.7-0.9-1-1.4c-0.2-0.6-0.3-1.2-0.3-1.8   v-2.1c0-0.7,0.1-1.3,0.3-1.8c0.2-0.6,0.6-1,1-1.4c0.4-0.4,0.9-0.7,1.4-0.9c0.6-0.2,1.2-0.3,1.8-0.3h2.7c0.7,0,1.3,0.1,1.8,0.3   c0.6,0.2,1,0.5,1.4,0.9c0.4,0.4,0.7,0.9,0.9,1.4c0.2,0.6,0.3,1.2,0.3,1.8v2.1c0,0.7-0.1,1.3-0.3,1.8c-0.2,0.6-0.5,1-0.9,1.4   c-0.4,0.4-0.9,0.7-1.4,0.9c-0.6,0.2-1.2,0.3-1.8,0.3H18.9z M18.9,82.6c-0.4,0-0.8,0.1-1.1,0.2c-0.3,0.1-0.6,0.3-0.9,0.6   c-0.2,0.2-0.4,0.5-0.6,0.9c-0.1,0.3-0.2,0.7-0.2,1.1v2.1c0,0.4,0.1,0.8,0.2,1.1c0.1,0.3,0.3,0.6,0.6,0.9c0.2,0.2,0.5,0.4,0.9,0.6   c0.3,0.1,0.7,0.2,1.1,0.2h2.7c0.4,0,0.8-0.1,1.1-0.2c0.3-0.1,0.6-0.3,0.9-0.6c0.2-0.2,0.4-0.5,0.6-0.9c0.1-0.3,0.2-0.7,0.2-1.1   v-2.1c0-0.4-0.1-0.8-0.2-1.1c-0.1-0.3-0.3-0.6-0.6-0.9c-0.2-0.2-0.5-0.4-0.9-0.6c-0.3-0.1-0.7-0.2-1.1-0.2H18.9z"/>
	<path class="st0" d="M37.9,91.8l-4.1-3.6l-1.4,0v-1.8h4.5c0.5-0.1,1-0.2,1.3-0.5c0.3-0.3,0.5-0.7,0.5-1.3v-1.3c0-0.1,0-0.4-0.2-0.5   c-0.1,0-0.2-0.1-0.3-0.1h-6.7v9.1h-1.8v-10c0-0.3,0.1-0.5,0.3-0.7c0.2-0.2,0.4-0.3,0.7-0.3h7.6c0.4,0,0.8,0.1,1.1,0.2   c0.3,0.2,0.5,0.4,0.7,0.6c0.2,0.2,0.3,0.5,0.4,0.8c0.1,0.3,0.1,0.5,0.1,0.8v1.3c0,0.7-0.1,1.2-0.4,1.7c-0.2,0.5-0.5,0.8-0.9,1.1   c-0.4,0.3-0.8,0.5-1.2,0.6c-0.4,0.1-0.8,0.2-1.2,0.2h-0.3l4.2,3.6H37.9z"/>
	<path class="st0" d="M53.9,92c-0.1,0-0.2,0-0.3-0.1c-0.1,0-0.2-0.1-0.3-0.2l-7.5-7.9v8h-1.8V81.7c0-0.3,0.1-0.5,0.3-0.6   c0.2-0.2,0.4-0.3,0.7-0.3c0.3,0,0.5,0.1,0.6,0.3l7.5,7.8v-8h1.8v10.2c0,0.3-0.1,0.5-0.3,0.7C54.3,91.9,54.1,92,53.9,92z"/>
	<path class="st0" d="M61.2,91.8c-0.3,0-0.6,0-0.9-0.1c-0.3-0.1-0.6-0.3-0.9-0.5c-0.3-0.2-0.5-0.5-0.7-0.8c-0.2-0.3-0.3-0.8-0.3-1.3   v-7.3c0-0.3,0.1-0.5,0.3-0.7c0.2-0.2,0.4-0.3,0.7-0.3h9v1.8h-8.1v6.4c0,0.6,0.3,0.9,0.9,0.9h7.2v1.8H61.2z M61.3,87.3v-1.8h6.2v1.8   H61.3z"/>
	<polygon class="st0" points="75.6,91.8 75.6,82.8 71.1,82.8 71.1,80.9 81.9,80.9 81.9,82.8 77.4,82.8 77.4,91.8  "/>
	<path class="st0" d="M84.6,91.8V90h7.7c0.4,0,0.7-0.1,1-0.4c0.2-0.2,0.4-0.6,0.4-1c0-0.4-0.1-0.7-0.4-1c-0.2-0.3-0.6-0.4-1-0.4   h-4.6c-0.3,0-0.7-0.1-1-0.2c-0.4-0.1-0.7-0.3-1-0.5c-0.3-0.2-0.6-0.6-0.8-1c-0.2-0.4-0.3-0.9-0.3-1.5c0-0.6,0.1-1.1,0.3-1.5   c0.2-0.4,0.5-0.7,0.8-1c0.3-0.3,0.7-0.4,1-0.5c0.4-0.1,0.7-0.2,1-0.2h6.8v1.8h-6.8c-0.4,0-0.7,0.1-1,0.4c-0.2,0.3-0.3,0.6-0.3,1   c0,0.4,0.1,0.7,0.4,1c0.2,0.2,0.6,0.4,1,0.4h4.6c0.4,0,0.8,0.1,1.2,0.2c0.4,0.2,0.7,0.4,1,0.7c0.3,0.3,0.5,0.6,0.7,1   c0.2,0.4,0.3,0.8,0.3,1.3c0,0.6-0.1,1.1-0.3,1.5c-0.2,0.4-0.5,0.7-0.8,1c-0.3,0.2-0.7,0.4-1,0.5c-0.4,0.1-0.7,0.2-1,0.2H84.6z"/>
	<path class="st0" d="M101.2,91.8c-0.3,0-0.6,0-0.9-0.1c-0.3-0.1-0.6-0.3-0.9-0.5c-0.3-0.2-0.5-0.5-0.7-0.8   c-0.2-0.3-0.3-0.8-0.3-1.3v-7.3c0-0.3,0.1-0.5,0.3-0.7c0.2-0.2,0.4-0.3,0.7-0.3h9v1.8h-8.1v6.4c0,0.6,0.3,0.9,0.9,0.9h7.2v1.8   H101.2z M101.3,87.3v-1.8h6.2v1.8H101.3z"/>
	<path class="st0" d="M114.2,91.8c-0.3,0-0.6,0-0.9-0.1c-0.3-0.1-0.6-0.3-0.9-0.5c-0.3-0.2-0.5-0.5-0.7-0.8   c-0.2-0.3-0.3-0.8-0.3-1.3v-5.5c0-0.3,0.1-0.6,0.1-0.9c0.1-0.3,0.3-0.6,0.5-0.9c0.2-0.3,0.5-0.5,0.8-0.7c0.3-0.2,0.8-0.3,1.3-0.3   h7.2v1.8h-7.2c-0.6,0-0.9,0.3-0.9,0.9v5.4c0,0.3,0.1,0.5,0.2,0.7c0.2,0.2,0.4,0.2,0.7,0.2h7.2v1.8H114.2z"/>
	<path class="st0" d="M129.9,91.8c-0.6,0-1.3-0.1-1.9-0.3c-0.6-0.2-1.2-0.5-1.8-1c-0.5-0.4-1-1-1.3-1.7c-0.3-0.7-0.5-1.5-0.5-2.5   v-5.5h1.8v5.5c0,0.6,0.1,1.1,0.2,1.5c0.2,0.4,0.4,0.7,0.6,1c0.3,0.3,0.5,0.5,0.8,0.6c0.3,0.1,0.6,0.3,0.8,0.3   c0.3,0.1,0.5,0.1,0.7,0.1c0.2,0,0.3,0,0.4,0h3.6v-9.1h1.8v10c0,0.3-0.1,0.5-0.3,0.7c-0.2,0.2-0.4,0.3-0.7,0.3H129.9z"/>
	<path class="st0" d="M147.4,91.8l-4.1-3.6l-1.4,0v-1.8h4.5c0.5-0.1,1-0.2,1.3-0.5c0.3-0.3,0.5-0.7,0.5-1.3v-1.3   c0-0.1,0-0.4-0.2-0.5c-0.1,0-0.2-0.1-0.3-0.1h-6.7v9.1h-1.8v-10c0-0.3,0.1-0.5,0.3-0.7c0.2-0.2,0.4-0.3,0.7-0.3h7.6   c0.4,0,0.8,0.1,1.1,0.2c0.3,0.2,0.5,0.4,0.7,0.6c0.2,0.2,0.3,0.5,0.4,0.8c0.1,0.3,0.1,0.5,0.1,0.8v1.3c0,0.7-0.1,1.2-0.4,1.7   c-0.2,0.5-0.5,0.8-0.9,1.1c-0.4,0.3-0.8,0.5-1.2,0.6c-0.4,0.1-0.8,0.2-1.2,0.2h-0.3l4.2,3.6H147.4z"/>
	<rect x="153.4" y="80.9" class="st0" width="1.8" height="10.9"/>
	<polygon class="st0" points="162.6,91.8 162.6,82.8 158.2,82.8 158.2,80.9 168.9,80.9 168.9,82.8 164.5,82.8 164.5,91.8  "/>
	<path class="st0" d="M176.1,91.8v-3.6h-0.9c-0.4,0-0.8-0.1-1.2-0.2c-0.4-0.1-0.8-0.3-1.2-0.6c-0.4-0.3-0.7-0.7-0.9-1.1   c-0.2-0.5-0.4-1-0.4-1.7v-3.6h1.8v3.6c0,0.6,0.2,1,0.5,1.3c0.3,0.3,0.8,0.5,1.3,0.5h3.6c0.2,0,0.4-0.1,0.6-0.1   c0.2-0.1,0.4-0.1,0.6-0.3c0.2-0.1,0.3-0.3,0.4-0.5c0.1-0.2,0.2-0.5,0.2-0.9v-3.6h1.8v3.6c0,0.7-0.1,1.2-0.4,1.7   c-0.2,0.5-0.5,0.8-0.9,1.1c-0.4,0.3-0.8,0.5-1.2,0.6c-0.4,0.1-0.8,0.2-1.2,0.2H178v3.6H176.1z"/>
	<g>
		<rect y="80.9" class="st0" width="1.8" height="10.9"/>
		<polygon class="st0" points="9.1,91.8 9.1,87.3 2.8,87.3 2.8,85.5 9.1,85.5 9.1,80.9 10.9,80.9 10.9,91.8   "/>
	</g>
</g>
<g>
	<path class="st1" d="M152.4,41c-1.9-0.4-5.1-2.1-7.8-4.6c-5-4.6-3.6-6.6-5.4-7.1c-0.5-0.1-1.6,0.3-1.7,1.3   c-0.1,1.3,2.2,5.3,5.8,7.7c4.6,3.1,7.3,3.5,8.8,3.3C152.8,41.7,153.3,41.2,152.4,41"/>
	<path class="st1" d="M163.2,45.5c-4-12.8-16.8-20.8-21.9-22.5c-4.4-1.5-8.1-0.7-10,0.5c-0.2,0.1-0.4,0.3-0.6,0.4   c-1.3-2-4.8-7.1-5.8-8.5C117.6,6.5,112.4,0,99.4,0H35.5C33,0,36,2.8,37.8,2.8h61.6c11,0,15.7,5,21.9,12.7c1.7,2,5.7,8.6,7,10.1   c-1.7,1.8-2.2,3.7-2.3,6.3c0,0.5,0,0.9,0.1,1.4l-0.7,0.3c-2.6-2.4-5.8-3.9-9.7-4.3c-9-1.1-15.3,3.7-17.2,11.7   c-2.5-2.5-6-4.8-10.6-6c-38.6-10.1-52,16.3-69.6,32.6c0,0,14-9.4,38.1-10.2C62,57.4,70,58.3,75,59.2c14.7,2.4,22.9-0.9,26.8-3.6   c2.3,2.3,6.3,3.8,10.2,4.4c2.2,0.3,14.1,1.8,19.5-10.5c0.2-0.5,0.5-1.8,1.2-2.2c0.8-0.5,1.7-0.1,1.8,0c3.4,3.3,9.2,7.6,19.3,12.4   c1.6,0.7,3.8,1.7,3.8,1.7l0.6,2.6C158.4,64.1,167.2,58.6,163.2,45.5z M156.1,42.4c-2.4,2.8-8.7,1.8-14.2-2.2c-5.5-4-8-9.6-5.7-12.4   c2.4-2.8,7.5-2.2,13.1,2.3C155,34.6,158.5,39.6,156.1,42.4z"/>
	<path class="st1" d="M54.4,25.7c10.4,6.6,31.2,5.5,43.5,0.7c17.4-6.9,25.4-0.7,25.4-0.7C114.2,16.4,113,6.4,91.6,6.4H30.5   c-0.7,0-1.7,0.7-1.1,1.8C30.1,9.8,44.1,19.1,54.4,25.7z"/>
</g>
</svg>