<svg version="1.1" id="My Nintendo" xmlns="http://www.w3.org/2000/svg" xmlns:xlink="http://www.w3.org/1999/xlink" x="0px" y="0px"
	 viewBox="0 0 1000 1000" style="enable-background:new 0 0 1000 1000;" xml:space="preserve">
<style type="text/css">
	.logo{fill:#EC1C24;}
</style>
<path class="logo" d="M870.9,0H129C57.8,0,0,57.8,0,129V871c0,71.3,57.8,129,129,129h741.9c71.3,0,129-57.8,129-129V129
	C1000,57.8,942.2,0,870.9,0 M212.5,840.6h-22v-55.3h-0.4c0,0-17.4,39.7-20.5,46.5c-3.6,8.1-7.5,9.4-11.4,9.4
	c-3.9,0-7.8-1.3-11.4-9.4c-3-6.9-20.5-46.5-20.5-46.5H126v55.3h-22v-83.9c0-11.3,6.6-16,13.7-16c4.9,0,11,2.1,15.6,12.5
	c3.1,7.2,24.7,56.1,24.7,56.1h0.4c0,0,21.6-48.8,24.7-56c4.6-10.5,10.4-12.5,15.6-12.5c7.7,0,13.7,4.8,13.7,16.1V840.6z
	 M264.7,854.7c-4.9,11.9-13,14.7-28.6,14.7h-3.9v-17.6h3c8.2,0,14-3.6,16-12.7L220.6,770h22.9l17.2,43.7L276,770h23.1
	C299.1,770,265.8,851.8,264.7,854.7 M412.1,829.8c0,6.8-4.1,11.5-12,11.5c-3.3,0-7.4-1.7-11.7-7.4L347,779.2v61.3h-22v-88.3
	c0-6.8,4.1-11.5,11.9-11.5c3.3,0,7.4,1.7,11.7,7.4l41.5,54.6l0-61.3h22V829.8z M447,840.6h-20.5v-70.5H447V840.6z M436.7,760.9
	c-6.6,0-12-5.4-12-12c0-6.6,5.3-12,12-12c6.6,0,12,5.4,12,12C448.7,755.5,443.3,760.9,436.7,760.9 M531.9,840.5h-20.5v-36.3
	c0-13.9-8.9-17.6-14.8-17.6c-8.4,0-15.9,5.9-15.9,19.6v34.3h-20.5v-70.5h20.5v6h0.2c4.2-5.1,11-8.2,18.7-8.2
	c15.9,0,32.2,11.1,32.2,34.8V840.5z M583.5,786.7h-13.8v53.8h-20.5v-53.8h-13.7v-16.6h13.7v-19.4h20.5v19.4h13.8V786.7z M646,811.8
	h-41.5c2,9,10.4,13.7,17.5,13.7c7.1,0,12.4-2.5,16.8-7.9l16.7,5.9c-5.4,10.7-18,19.3-33.3,19.3c-21.1,0-37-18.4-37-37.6
	c0-18.6,15.6-37.3,36.8-37.3c24.4,0,37.2,20.8,37.5,35.4C659.5,810,654.9,811.8,646,811.8 M738.1,840.5h-20.5v-36.3
	c0-13.9-8.9-17.6-14.8-17.6c-8.4,0-15.9,5.9-15.9,19.6v34.3h-20.5v-70.5H687v6h0.2c4.2-5.1,11-8.2,18.7-8.2
	c15.9,0,32.3,11.1,32.3,34.8V840.5z M821.9,840.6h-20.5v-5.2h-0.4c-1.6,2.4-9.2,7.4-18.9,7.4c-20.2,0-37.2-16.9-37.2-37.4
	c0-20.6,17-37.4,37.2-37.4c9.7,0,17.2,4.9,18.9,7.3h0.4v-33.9h20.5V840.6z M698.5,627.5c-27.5,0-57.6-7.8-81.6-20.7
	c-39.9,27.5-109.6,62.9-204.2,62.9c-162.1,0-256.4-106.2-266.6-118.3c-9.8-11.7-8.4-29.1,3.3-39c11.7-9.8,29.1-8.4,39,3.3
	c30.9,36.6,113,98.7,224.3,98.7c95.6,0,161.9-43.9,186-62.8c9.9-7.8,23.9-7.9,34-0.1c13,10,39.2,20.8,65.9,20.8
	c67.6,0,120.5-52.8,120.5-120.3c0-55.7-47.9-117.7-116.7-117.7c-0.6,0-1.3,0-2.2-0.1c-0.5,0-1.5-0.1-4.1,0.1
	c-11.3,0.7-21.9-5.5-26.8-15.7C629.5,235.6,552.3,186,462.8,186c-97.2,0-197.6,62.1-197.6,166c0,35.8,18,59.6,33.4,73.4L356.7,317
	c4.9-9.1,14.4-14.7,24.7-14.6c10.3,0.1,19.7,5.9,24.3,15.1l33.8,66.3l33.8-66.3c4.7-9.2,14.1-15,24.5-15.1
	c10.1,0,19.8,5.6,24.7,14.8l71.5,135.5c7.1,13.5,2,30.2-11.5,37.4c-13.5,7.1-30.2,2-37.4-11.6l-46.6-88.3l-34.2,67.2
	c-4.7,9.3-14.3,15.1-24.7,15.1c-10.4,0-19.9-5.8-24.6-15.1l-34.5-67.6l-47.7,88.9c-6.9,12.9-22.7,18.2-36,12
	c-3.6-1.6-86.9-41.4-86.9-138.7c0-138.5,128.6-221.3,253-221.3c105.6,0,197.2,55.1,248.3,148.4c98.1,4.9,163.3,91.6,163.3,172.8
	C874.3,550.3,797.1,627.5,698.5,627.5 M866.4,842.8c-20.8,0-37.6-16.8-37.6-37.4c0-20.6,16.8-37.4,37.6-37.4
	c20.8,0,37.6,16.8,37.6,37.4C904,826,887.2,842.8,866.4,842.8 M919.9,827.5h-3.3v13h-4.3v-13h-3.3v-3.8h10.8V827.5z M939.8,840.5
	h-3.9L936,828l-3.6,12.5h-2.8l-3.6-12.5l0.1,12.5h-3.9v-16.7h5.7l3.1,10.8l3.1-10.8h5.7V840.5z M622.3,785.3
	c-7.2,0-14.4,3.6-17.6,12.5h35.5C638.2,791.7,632.5,785.3,622.3,785.3 M866.4,786.4c-10.2,0-18.5,8.5-18.5,18.9
	c0,10.4,8.3,18.9,18.5,18.9c10.2,0,18.5-8.5,18.5-18.9C884.9,794.9,876.6,786.4,866.4,786.4 M782.9,786.3
	c-10.7,0-18.9,8.6-18.9,19.1c0,10.5,8.2,19.1,18.9,19.1c10.7,0,18.6-8.4,18.6-19.1C801.5,794.7,793.6,786.3,782.9,786.3"/>
</svg>