<?xml version="1.0" encoding="utf-8"?>
<!-- Generator: Adobe Illustrator 16.0.0, SVG Export Plug-In . SVG Version: 6.00 Build 0)  -->
<!DOCTYPE svg PUBLIC "-//W3C//DTD SVG 1.1//EN" "http://www.w3.org/Graphics/SVG/1.1/DTD/svg11.dtd">
<svg version="1.1" id="Layer_1" xmlns="http://www.w3.org/2000/svg" xmlns:xlink="http://www.w3.org/1999/xlink" x="0px" y="0px"
	 width="4447.965px" height="4447.941px" viewBox="217.595 0 4447.965 4447.941"
	 enable-background="new 217.595 0 4447.965 4447.941" xml:space="preserve">
<g>
	<path fill="#E60012" d="M4665.561,3933.777c0,283.984-230.203,514.164-514.164,514.164H731.76
		c-283.96,0-514.165-230.18-514.165-514.164V514.166C217.595,230.223,447.8,0,731.76,0h3419.636
		c283.961,0,514.164,230.223,514.164,514.166V3933.777z"/>
	<path fill="#FFFFFF" d="M902.659,3723.61c17.283,0,34.878-5.893,50.646-41.342c13.456-30.135,91.114-204.59,91.114-204.59h1.952
		v243.057h97.787v-368.348c0-49.424-26.909-70.533-61.184-70.533c-23.202,0-49.009,8.965-69.393,55.053
		c-14.025,31.598-110.01,246.4-110.01,246.4h-1.853c0,0-95.931-214.906-110.005-246.5c-20.439-45.988-47.577-54.953-69.421-54.953
		c-31.674,0-61.131,20.698-61.131,70.07v368.816h97.785v-243.062h1.954c0,0,77.655,174.455,91.107,204.59
		C867.781,3717.718,885.375,3723.61,902.659,3723.61"/>
	<path fill="#FFFFFF" d="M2565.924,3720.687v-166.159c0-104.165-72.855-153.022-143.504-153.022
		c-34.146,0-64.675,13.717-83.263,35.924h-0.963v-26.336h-91.111v309.751h91.111v-150.83c0-60.163,33.132-86.128,70.722-86.128
		c26.122,0,65.846,16.314,65.846,77.263v159.538H2565.924L2565.924,3720.687z"/>
	<path fill="#FFFFFF" d="M4089.988,2011.954c0-356.663-290.297-737.811-726.734-759.426
		c-227.158-409.947-634.971-652.283-1105.115-652.283c-553.434,0-1125.921,363.889-1125.921,972.77
		c0,427.523,371.084,602.395,386.88,609.636c59.174,27.06,129.479,3.915,160.294-52.841l212.175-390.658l153.354,296.918
		c21.014,40.693,63.399,66.344,109.673,66.344c46.297,0,88.632-25.65,109.666-66.344l152.504-295.197l207.451,388.21
		c31.75,59.408,106.203,82.115,166.422,50.779c60.111-31.361,83.105-104.899,51.404-164.287l-318.242-595.479
		c-21.479-40.168-64.703-64.958-109.772-64.853c-45.958,0.335-87.928,25.908-108.81,66.367l-150.622,291.604l-150.597-291.604
		c-20.831-40.302-62.591-65.875-108.417-66.367c-45.754-0.314-88.136,24.245-109.777,64.152l-258.755,476.453
		c-68.636-60.844-148.592-165.458-148.592-322.834c0-456.667,447.284-729.574,879.683-729.574
		c398.613,0,741.982,217.803,918.523,582.579c21.686,44.911,69.08,72.07,119.285,68.896c11.885-0.809,16.16-0.601,18.51-0.469
		c4.012,0.206,7.141,0.312,9.646,0.312c306.248,0,519.648,272.57,519.648,517.198c0,296.506-235.559,528.829-536.229,528.829
		c-118.77,0-235.242-47.451-293.115-91.557c-44.627-33.893-106.881-33.629-151.146,0.623
		c-107.24,83.106-402.518,276.322-827.928,276.322c-495.691,0-860.882-272.619-998.497-433.726
		c-43.825-51.327-121.535-57.819-173.514-14.546c-51.931,43.328-58.525,120.068-14.652,171.423
		c45.441,53.182,465.139,520.011,1186.663,520.011c420.979,0,731.217-155.469,908.952-276.528
		c106.723,56.722,240.611,91.128,363.238,91.128C3746.303,2783.942,4089.988,2444.849,4089.988,2011.954"/>
	<path fill="#FFFFFF" d="M4054.691,3649.313c-45.516,0-82.529-37.327-82.529-83.212c0-45.88,37.014-83.21,82.529-83.21
		s82.531,37.33,82.531,83.21C4137.229,3611.986,4100.211,3649.313,4054.691,3649.313 M4221.998,3566.001
		c0-90.723-74.867-164.55-167.25-164.55c-92.488,0-167.359,73.83-167.359,164.55c0,90.66,74.871,164.437,167.359,164.437
		C4147.131,3730.435,4221.998,3656.661,4221.998,3566.001"/>
	<path fill="#FFFFFF" d="M3683.008,3649.73c-47.598,0-84.045-37.641-84.045-83.841c0-46.194,36.447-83.832,84.045-83.832
		c47.76,0,83.004,37.015,83.004,83.832C3766.012,3612.716,3730.768,3649.73,3683.008,3649.73L3683.008,3649.73z M3856.68,3720.952
		v-436.129h-91.191v148.951h-1.561c-7.197-10.525-40.879-32.323-83.994-32.323c-89.881,0-165.533,74.036-165.533,164.444
		c0,90.457,75.652,164.542,165.533,164.542c43.115,0,76.797-21.79,83.994-32.378h1.561v22.888h91.191V3720.952z"/>
	<path fill="#FFFFFF" d="M3483.742,3720.687v-166.159c0-104.165-72.836-153.022-143.48-153.022
		c-34.098,0-64.648,13.717-83.262,35.924h-0.988v-26.336h-91.082v309.751h91.082v-150.83c0-60.163,33.154-86.128,70.695-86.128
		c26.174,0,65.902,16.314,65.902,77.263v159.538H3483.742L3483.742,3720.687z"/>
	<path fill="#FFFFFF" d="M2890.061,3532.421c14.129-39.15,46.037-54.842,78.152-54.842c45.254,0,70.908,28.359,80.086,54.842
		H2890.061L2890.061,3532.421z M3133.592,3557.239c-1.301-64.34-58.027-155.788-166.836-155.788
		c-94.369,0-163.818,82.378-163.818,164.024c0,84.25,71.066,165.013,164.758,165.013c68.193,0,124.189-37.798,148.379-84.979
		l-74.447-25.919c-19.398,23.99-43.174,34.936-74.766,34.936c-31.855,0-69.133-20.75-78.105-60.209h184.988
		C3113.469,3594.31,3133.592,3586.594,3133.592,3557.239L3133.592,3557.239z"/>
	<path fill="#FFFFFF" d="M2733.91,3720.79v-236.753h61.625v-72.993h-61.625v-85.398h-90.924v85.398h-60.898v72.993h60.891v236.753
		H2733.91z"/>
	<path fill="#FFFFFF" d="M2142.186,3265.274c-29.408,0-53.204,23.559-53.204,52.609c0,29.037,23.796,52.602,53.204,52.602
		c29.433,0,53.23-23.559,53.23-52.602C2195.416,3288.833,2171.619,3265.274,2142.186,3265.274"/>
	<path fill="#FFFFFF" d="M2096.644,3720.952h91.135v-310.008h-91.135V3720.952z"/>
	<path fill="#FFFFFF" d="M1979.415,3723.713c34.881,0,53.181-20.7,53.181-50.521v-388.369h-97.839l0.056,269.596l-184.854-240.145
		c-19.028-24.759-37.249-32.371-51.981-32.371c-34.825,0-53.124,20.7-53.124,50.523v388.314h97.808l-0.023-269.547l184.824,240.139
		C1946.491,3716.052,1964.685,3723.713,1979.415,3723.713"/>
	<path fill="#FFFFFF" d="M1244.908,3770.316l-13.371,0.057v77.323h17.333c69.633,0,105.683-12.352,127.396-64.758
		c5.318-12.822,153.204-372.309,153.204-372.309h-102.656l-68.637,192.232l-76.303-192.232h-101.9l136.178,303.907
		C1307.395,3754.628,1281.299,3770.316,1244.908,3770.316"/>
	<path fill="#FFFFFF" d="M4278.518,3720.532v-57.039h14.594v-16.528h-48.273v16.528h14.703v57.039H4278.518z"/>
	<path fill="#FFFFFF" d="M4342.123,3694.362l-13.973-47.341h-25.445v73.517h17.518l-0.619-55.064l16.107,55.064h12.562
		l16.111-55.064l-0.625,55.064h17.52v-73.517h-25.547L4342.123,3694.362z"/>
</g>
</svg>
