<svg viewBox="0 0 31.1 38.6" version="1.1" xmlns="http://www.w3.org/2000/svg" xmlns:xlink="http://www.w3.org/1999/xlink" xml:space="preserve" style="fill-rule:evenodd;clip-rule:evenodd;stroke-linejoin:round;stroke-miterlimit:2;">
    <g transform="matrix(1,0,0,1,-3.36724,-5.55936)">
        <g>
            <path d="M22.455,24.573L22.455,8.629C22.455,5.745 18.832,4.459 17.013,6.697L4.059,22.641C2.432,24.643 3.857,27.636 6.437,27.636L19.391,27.636C21.083,27.636 22.455,26.265 22.455,24.573Z" style="fill:url(#_Linear1);fill-rule:nonzero;"/>
            <path d="M31.192,22.455L18.788,22.455C16.998,22.455 15.547,23.906 15.547,25.696L15.547,40.961C15.547,44.013 19.38,45.374 21.304,43.005L33.707,27.74C35.428,25.622 33.921,22.455 31.192,22.455Z" style="fill:white;fill-rule:nonzero;"/>
        </g>
    </g>
    <defs>
        <linearGradient id="_Linear1" x1="0" y1="0" x2="1" y2="0" gradientUnits="userSpaceOnUse" gradientTransform="matrix(14.6818,27.6364,-27.6364,14.6818,10.3637,6.04547)"><stop offset="0" style="stop-color:rgb(188,190,205);stop-opacity:1"/><stop offset="1" style="stop-color:rgb(188,190,205);stop-opacity:0"/></linearGradient>
    </defs>
</svg>
