<svg version="1.1" viewBox="0 0 512 512" xmlns="http://www.w3.org/2000/svg"><g><path d="m257.61 0.019481a68.662 68.662 0 0 0-35.939 9.1783l-162.24 93.677a68.662 68.662 0 0 0-34.335 59.46v187.33a68.662 68.662 0 0 0 34.335 59.46l162.24 93.677a68.662 68.662 0 0 0 68.649 0l162.24-93.677a68.662 68.662 0 0 0 34.335-59.46v-187.33a68.662 68.662 0 0 0-34.335-59.46l-162.24-93.677a68.662 68.662 0 0 0-32.711-9.1783z" fill="#fff"/><path d="m28.734 140.48a68.662 68.662 0 0 0-3.635 21.855v187.33a68.662 68.662 0 0 0 34.336 59.459l162.24 93.677a68.662 68.662 0 0 0 21.012 7.8237v-203.55c-2e-3 -24.53-13.091-47.196-34.336-59.459z" fill="#ec8b00"/><path d="m482.32 137.9-183.93 109.71c-21.245 12.264-34.334 34.929-34.336 59.459v204.37a68.662 68.662 0 0 0 26.272-8.6378l162.24-93.677a68.662 68.662 0 0 0 34.336-59.459v-187.33a68.662 68.662 0 0 0-4.5836-24.432z" fill="#ffc100"/><path d="m257.61 0.018877a68.662 68.662 0 0 0-35.939 9.1792l-162.24 93.677a68.662 68.662 0 0 0-20.443 18.057l187.5 111.84c12.271 7.0837 22.41 16.868 29.899 28.34 7.4885-11.472 17.635-21.256 29.907-28.34l186.88-111.47a68.662 68.662 0 0 0-20.614-18.424l-162.24-93.677a68.662 68.662 0 0 0-32.711-9.1792z" fill="#439879"/><path d="m257.61 0.018877a68.662 68.662 0 0 0-35.939 9.1792l-162.24 93.677a68.662 68.662 0 0 0-20.443 18.057l48.648 29.015a53.489 53.489 0 0 1 15.232-13.238l126.39-72.974a53.489 53.489 0 0 1 27.998-7.1521 53.489 53.489 0 0 1 25.482 7.1521l126.39 72.974a53.489 53.489 0 0 1 15.464 13.571l48.587-28.983a68.662 68.662 0 0 0-20.614-18.424l-162.24-93.677a68.662 68.662 0 0 0-32.711-9.1792z" fill="#28cdfb"/><path d="m482.32 137.9-48.892 29.162a53.489 53.489 0 0 1 2.4505 15.969v145.94a53.489 53.489 0 0 1-26.748 46.319l-126.39 72.978a53.489 53.489 0 0 1-18.688 6.5048v56.671a68.662 68.662 0 0 0 26.272-8.6378l162.24-93.677a68.662 68.662 0 0 0 34.336-59.459v-187.33a68.662 68.662 0 0 0-4.5836-24.432z" fill="#f6eb61"/><path d="m28.734 140.48a68.662 68.662 0 0 0-3.635 21.855v187.33a68.662 68.662 0 0 0 34.336 59.459l162.24 93.677a68.662 68.662 0 0 0 21.012 7.8237v-56.94a53.489 53.489 0 0 1-13.425-5.422l-126.39-72.978a53.489 53.489 0 0 1-26.748-46.319v-145.94a53.489 53.489 0 0 1 1.6852-13.282z" fill="#fdd757"/></g></svg>
