<svg viewBox="0 0 800 800" version="1.1" xmlns="http://www.w3.org/2000/svg" xmlns:xlink="http://www.w3.org/1999/xlink" xml:space="preserve" xmlns:serif="http://www.serif.com/" style="fill-rule:evenodd;clip-rule:evenodd;">
    <g id="Plan-de-travail1" serif:id="Plan de travail1" transform="matrix(1.11,0,0,1.34786,42.6471,53.7893)">
        <rect x="-38.421" y="-39.907" width="720.721" height="593.535" style="fill:none;"/>
        <g transform="matrix(1.94286,0,0,2.28691,-254.475,-347.802)">
            <path d="M477.527,201.139C477.527,166.224 437.01,137.878 387.105,137.878L206.263,137.878C156.358,137.878 115.842,166.224 115.842,201.139L115.842,327.663C115.842,362.578 156.358,390.925 206.263,390.925L387.105,390.925C437.01,390.925 477.527,362.578 477.527,327.663L477.527,201.139Z" style="fill:rgb(0,106,222);"/>
        </g>
        <g transform="matrix(1.12381,0,0,1.12381,8.6695,72.4208)">
            <g transform="matrix(0.900901,0,0,0.741918,-3.28564,-10.2305)">
                <path d="M444.343,3.402L444.343,3.044L430.222,3.044C429.693,3.044 429.217,2.999 428.696,2.999L428.696,3.044L145.458,3.044C48.447,3.044 0,42.167 0,120.394L0,335.835C0,413.565 48.459,452.457 145.458,452.457L429.066,452.457L429.066,452.319C525.72,452.201 574.093,413.374 574.093,335.827L574.093,120.386C574.085,46.42 530.819,7.459 444.343,3.402ZM413.301,343.115L178.075,343.115L178.075,109.923L413.301,109.923L413.301,343.115Z" style="fill:white;fill-rule:nonzero;"/>
            </g>
            <g transform="matrix(0.900901,0,0,0.741918,-3.28564,-10.2305)">
                <path d="M271.273,283.001C271.273,283.001 449.914,385.616 487.125,467.001L626.137,467.001C614.613,439.675 548.358,318.116 271.273,283.001Z" style="fill:white;fill-rule:nonzero;stroke:rgb(0,106,222);stroke-width:5.83px;"/>
            </g>
        </g>
    </g>
</svg>