<svg xmlns="http://www.w3.org/2000/svg" xmlns:xlink="http://www.w3.org/1999/xlink" fill="#fff" fill-rule="evenodd" stroke="#000" stroke-linecap="round" stroke-linejoin="round" viewBox="0.50 0.50 64.02 62.18">
    <use xlink:href="#A" x=".5" y=".5"></use>
    <symbol id="A" overflow="visible">
      <g stroke="none" fill-rule="nonzero">
        <path d="M32.012 42.565c-5.47-.026-9.82 4.27-9.9 9.69-.052 5.34 4.403 9.845 9.767 9.9 5.366.026 9.873-4.403 9.9-9.74.052-5.392-4.35-9.82-9.767-9.845zM10.079 21.259c-5.548-.08-9.953 4.09-10.03 9.507-.08 5.445 4.195 9.925 9.587 10.055 5.444.13 10.08-4.403 10.08-9.82-.05-5.32-4.32-9.636-9.637-9.74zm-.31 21.332c-5.47.026-9.845 4.457-9.713 9.845.104 5.47 4.507 9.793 9.9 9.74 5.366-.052 9.845-4.61 9.767-9.9-.104-5.444-4.48-9.713-9.953-9.69zm44.463-1.773c5.396-.052 9.713-4.457 9.663-9.925-.052-5.444-4.397-9.663-9.9-9.637-5.47.026-9.69 4.35-9.663 9.845.059 5.412 4.486 9.757 9.899 9.713zM31.856 19.591c5.522.052 9.845-4.193 9.873-9.637.027-5.495-4.192-9.873-9.637-9.953-5.366-.08-9.873 4.297-9.925 9.69-.026 5.47 4.245 9.873 9.69 9.9zm22.27.024c5.47 0 9.767-4.323 9.767-9.793 0-5.444-4.397-9.82-9.793-9.82s-9.767 4.397-9.767 9.82c.026 5.47 4.323 9.793 9.793 9.793zM9.742.006C4.374.034.029 4.379 0 9.747c-.026 5.522 4.27 9.793 9.82 9.793 5.522 0 9.925-4.323 9.925-9.767 0-5.396-4.506-9.792-10.003-9.767zm.104 16.748c-3.957 0-7.035-3.074-7.007-7.007.026-3.83 3.098-6.93 6.955-6.955 3.907-.026 7.135 3.098 7.135 6.98 0 3.907-3.126 6.98-7.085 6.98zm44.17 25.862c-5.368.028-9.713 4.373-9.74 9.74-.026 5.522 4.27 9.793 9.82 9.793 5.522 0 9.925-4.323 9.925-9.767-.026-5.396-4.507-9.793-10.003-9.767zm.104 16.748c-3.957 0-7.035-3.074-7.007-7.007.026-3.83 3.098-6.93 6.955-6.955 3.907-.026 7.135 3.098 7.135 6.98s-3.152 6.98-7.085 6.98z" fill="#2ac5f4"></path>
        <path d="M41.364 28.107c-.7-2.136-2.087-3.973-3.96-5.2-.26-.18-.548-.34-.833-.496a2.16 2.16 0 0 0-.444-.208l-.885-.364a11.27 11.27 0 0 0-1.901-.47c-.496-.08-.99-.104-1.51-.104-.833 0-1.667.104-2.448.312-.626.156-1.225.4-1.8.652-1.563.755-2.892 1.9-3.857 3.334l-.26.4c-.885 1.46-1.407 3.204-1.433 5.053-.026 5.522 4.27 9.793 9.82 9.793 5.522 0 9.925-4.323 9.925-9.767a7.79 7.79 0 0 0-.42-2.918zm-9.43 9.767c-3.88 0-6.903-2.998-6.875-6.85.026-3.797 3.048-6.8 6.825-6.825 3.857-.026 6.98 3.048 7.007 6.85 0 3.803-3.098 6.825-6.955 6.825z" fill="#a3a5a8"></path>
      </g>
    </symbol>
</svg>