<svg version="1.1" id="Layer_1" xmlns="http://www.w3.org/2000/svg" xmlns:xlink="http://www.w3.org/1999/xlink" x="0px" y="0px"
	 viewBox="0 0 148.6 148.6" style="enable-background:new 0 0 148.6 148.6;" xml:space="preserve">
<style type="text/css">
	.st0{fill-rule:evenodd;clip-rule:evenodd;fill:#0873F6;}
	.st1{fill:#FFFFFF;}
</style>
<g>
	<path class="st0" d="M74.3,0C33.3,0,0,33.3,0,74.3c0,37.1,27.2,67.8,62.7,73.4V94.1H44.2V72.5h18.5v-1.6c0-4.3-0.1-8.7,0-13
		c0.1-2.8,0.2-5.6,0.7-8.3c1.2-6.6,4.2-12.2,9.7-16.2c4.8-3.5,10.4-4.9,16.2-5c3.8-0.1,7.7,0.1,11.5,0.3c2.1,0.1,4.2,0.4,6.2,0.6
		v19.4c-0.6,0-1.1,0-1.5,0c-3.7,0-7.5-0.1-11.2,0c-5.1,0.2-8.9,2.1-9.1,8.5C85.1,61.7,85,72.5,85,72.5s12,0,17.2,0
		c1.3,0,2.7,0,4.1,0c-1,7.4-1.9,14.6-2.8,21.8H85.2v53.5c35.8-5.3,63.3-36.2,63.3-73.5C148.6,33.3,115.3,0,74.3,0z"/>
	<path class="st1" d="M85.2,94.2h18.4c0.9-7.2,1.9-14.3,2.8-21.8c-1.5,0-2.8,0-4.1,0c-5.2,0-17.2,0-17.2,0s0.1-10.7,0.2-15.4
		c0.2-6.4,4-8.3,9.1-8.5c3.7-0.1,7.5,0,11.2,0c0.5,0,0.9,0,1.5,0V29.1c-2-0.2-4.1-0.5-6.2-0.6c-3.8-0.2-7.6-0.4-11.5-0.3
		c-5.8,0.1-11.4,1.5-16.2,5c-5.5,4-8.6,9.6-9.7,16.2c-0.5,2.7-0.6,5.5-0.7,8.3c-0.1,4.4,0,8.7,0,13.1v1.6H44.2v21.7h18.4v53.5
		c0,0,5.6,0.9,11.6,0.9c3.7,0,7.4-0.3,10.9-0.8V94.2z"/>
</g>
</svg>
