<svg width="2500" height="2490" viewBox="0 0 257 256" xmlns="http://www.w3.org/2000/svg" preserveAspectRatio="xMidYMid"><defs><linearGradient x1="5.175%" y1="30.083%" x2="135.025%" y2="114.013%" id="a"><stop offset="0%"/><stop stop-color="#E6E7E8" offset="100%"/></linearGradient><linearGradient x1="9.889%" y1="8.205%" x2="104.104%" y2="64.487%" id="b"><stop stop-color="#939598" offset="0%"/><stop offset="100%"/></linearGradient><linearGradient x1="42.136%" y1="42.363%" x2="85.222%" y2="82.248%" id="c"><stop stop-color="#FEFAD8" offset="0%"/><stop stop-color="#FCEE21" offset="100%"/></linearGradient></defs><path d="M89.6 219.7c16-.7 31.1-4.3 45-10.3-53.7-15.2-93-64.6-93-123.1 0-16.3 3.1-31.9 8.6-46.2C37.9 44 26.9 50.4 19.3 60.2 7.1 79.8 0 103 0 127.8c0 24.7 7 47.7 19.1 67.3 10.8 14.8 47.6 25.6 70.5 24.6z" fill="url(#a)"/><path d="M210.3 137.8c7.3-15.3 11.4-32.2 11.4-50.1 0-24.7-10.5-55.4-26.7-68.6C175.5 7 152.5 0 127.8 0c-46 0-87 24.3-108.8 60.7 19.6-12.1 42.6-19.2 67.3-19.2 59.7 0 109.9 41 124 96.3z" fill="url(#b)"/><path d="M195 19c13 18.7 19.5 42.3 19.5 67 0 70.7-57.3 128.1-128.1 128.1-24.7 0-47.8-6.9-67.3-19.1C41.5 231.6 82 255.7 128 255.7c70.7 0 128.1-57.3 128.1-128.1-.1-46-24.7-88-61.1-108.6z" fill="url(#c)"/></svg>