<?xml version="1.0" encoding="UTF-8"?>
<svg id="Layer_1" data-name="Layer 1" xmlns="http://www.w3.org/2000/svg" width="36.57" height="42.26" viewBox="0 0 36.57 42.26">
  <defs>
    <style>
      .cls-1 {
        fill: #fff;
      }
    </style>
  </defs>
  <polygon class="cls-1" points="18.28 35.56 18.28 42.26 16.34 41.11 14.9 40.32 9.14 36.93 9.14 30.24 18.28 35.56"/>
  <path class="cls-1" d="M36.57,10.58V31.68c-6.12,3.52-12.24,7.05-18.29,10.58l1.37-2.45,.51-2.59-1.88-1.66,12.46-7.27V13.89l2.45-1.36,3.38-1.95Z"/>
  <polygon class="cls-1" points="20.16 37.22 19.65 39.81 18.28 42.26 18.28 35.56 20.16 37.22"/>
  <polygon class="cls-1" points="5.76 17.78 18.28 10.58 18.28 17.28 11.59 21.09 18.28 24.98 18.28 31.68 5.76 24.48 5.76 34.99 0 31.68 0 10.58 5.76 7.2 5.76 17.78"/>
  <path class="cls-1" d="M36.57,10.58l-3.81-.14-.87,1.22-1.15,2.23-12.46-7.2-9.14,5.26V5.25L18.28,0c6.05,3.53,12.17,7.05,18.29,10.58Z"/>
  <polygon class="cls-1" points="36.57 10.58 33.19 12.53 30.74 13.89 31.89 11.66 32.76 10.44 36.57 10.58"/>
</svg>