<svg clip-rule="evenodd" fill-rule="evenodd" stroke-linejoin="round" stroke-miterlimit="2" version="1.1" viewBox="5.6843e-14 173.42 500 153.16" xml:space="preserve" xmlns="http://www.w3.org/2000/svg">
    <g transform="matrix(2.1766 0 0 2.1766 5.6843e-14 173.42)" fill="#f60" fill-rule="nonzero">
        <path d="m171.04 67.905 19.181-21.552-19.181-21.555h20.238l9.5 10.47 9.148-10.47h19.532l-19.09 21.466 19.352 21.641h-20.321l-9.414-10.556-9.325 10.556h-19.62z"/>
        <path d="m171.04 15.135h-21.724v9.663h21.724v14.563h-21.724v13.367h21.724v15.177h-37.691v-67.905h37.691v15.135z"/>
    </g>
    <g transform="matrix(2.1766 0 0 2.1766 5.6843e-14 173.42)">
        <path d="m117.45 0v27.79h-0.175c-3.52-4.046-7.918-5.452-13.021-5.452-10.453 0-18.327 7.106-21.091 16.501-3.152-10.352-11.281-16.695-23.335-16.695-9.789 0-17.519 4.394-21.553 11.554v-8.899h-20.234v-9.662h22.081v-15.137h-40.118v67.906h18.037v-28.545h17.978c-0.536 2.097-0.822 4.342-0.822 6.711 0 14.165 10.821 24.104 24.631 24.104 11.613 0 19.266-5.452 23.314-15.392h-15.457c-2.091 2.986-3.677 3.873-7.857 3.873-4.847 0-9.026-4.229-9.026-9.242h31.474c1.365 11.251 10.129 20.954 22.156 20.954 5.188 0 9.938-2.552 12.843-6.861h0.175v4.396h15.9v-67.904h-15.9zm-66.146 39.564c1.003-4.313 4.348-7.132 8.524-7.132 4.597 0 7.772 2.732 8.607 7.132h-17.131zm56.497 18.002c-5.861 0-9.503-5.461-9.503-11.163 0-6.095 3.168-11.956 9.503-11.956 6.569 0 9.186 5.861 9.186 11.956-1e-3 5.78-2.774 11.163-9.186 11.163z" fill="#652c8f" fill-rule="nonzero"/>
    </g>
</svg>
