<svg viewBox="0 0 566 89" version="1.1" xmlns="http://www.w3.org/2000/svg" xmlns:xlink="http://www.w3.org/1999/xlink" xml:space="preserve" xmlns:serif="http://www.serif.com/" style="fill-rule:evenodd;clip-rule:evenodd;stroke-linejoin:round;stroke-miterlimit:2;">
    <path d="M61.069,31.55L53.069,38.45C48.575,33.222 41.96,30.283 35.069,30.45C34.882,30.445 34.696,30.443 34.51,30.443C22.013,30.443 11.73,40.726 11.73,53.223C11.73,53.435 11.733,53.648 11.739,53.86C11.731,54.099 11.727,54.339 11.727,54.579C11.727,66.998 21.947,77.219 34.367,77.219C34.574,77.219 34.781,77.216 34.989,77.21C42.004,77.43 48.742,74.397 53.229,69L61.169,75.9C54.639,83.556 45.051,87.951 34.989,87.9C25.757,88.099 16.813,84.631 10.129,78.26C3.477,71.915 -0.199,63.05 0.009,53.86C-0.202,44.672 3.476,35.81 10.129,29.47C16.777,23.033 25.737,19.526 34.989,19.74C45.01,19.548 54.602,23.891 61.069,31.55Z" style="fill:rgb(69,43,91);fill-rule:nonzero;"/>
    <rect x="66.549" y="20.87" width="11.34" height="65.88" style="fill:rgb(69,43,91);fill-rule:nonzero;"/>
    <path d="M86.879,39.11L98.319,39.11L98.319,66.9C98.319,74.09 102.379,77.58 108.709,77.58C115.039,77.58 119.109,73.99 119.109,66.81L119.109,39.11L130.549,39.11L130.549,67.56C130.549,74.18 128.469,79.29 124.309,82.78C120.149,86.27 114.949,87.98 108.619,87.98C102.289,87.98 97.089,86.28 93.019,82.78C88.949,79.28 86.879,74.37 86.879,67.85L86.879,39.11Z" style="fill:rgb(69,43,91);fill-rule:nonzero;"/>
    <path d="M139.539,86.75L139.539,20.87L150.879,20.87L150.879,46C152.489,41.37 158.259,38.06 166.099,38.06C172.506,37.914 178.676,40.535 183.019,45.25C187.649,49.97 189.919,55.83 189.919,62.92C190.108,69.529 187.618,75.941 183.019,80.69C178.641,85.343 172.485,87.923 166.099,87.78C158.259,87.78 152.489,84.47 150.879,79.84L150.879,86.74L139.539,86.75ZM174.609,73.33C177.333,70.57 178.803,66.806 178.669,62.93C178.802,59.057 177.332,55.296 174.609,52.54C172.017,49.8 168.379,48.286 164.609,48.38C160.726,48.314 156.975,49.814 154.209,52.54C148.696,58.326 148.696,67.544 154.209,73.33C156.978,76.051 160.727,77.55 164.609,77.49C168.378,77.578 172.014,76.066 174.609,73.33Z" style="fill:rgb(69,43,91);fill-rule:nonzero;"/>
    <path d="M196.929,86.75L196.929,20.87L208.179,20.87L208.179,45.73C210.349,41.19 215.549,38.17 222.069,38.17C233.069,38.17 239.459,45.45 239.459,57.26L239.459,86.75L228.219,86.75L228.219,58.87C228.219,52.35 224.719,48.28 218.669,48.28C212.619,48.28 208.179,52.82 208.179,59.34L208.179,86.75L196.929,86.75Z" style="fill:rgb(69,43,91);fill-rule:nonzero;"/>
    <path d="M245.999,62.93C245.86,56.134 248.609,49.589 253.559,44.93C263.877,35.293 280.101,35.293 290.419,44.93C295.377,49.584 298.13,56.132 297.989,62.93C298.13,69.728 295.377,76.276 290.419,80.93C280.101,90.567 263.877,90.567 253.559,80.93C248.609,76.271 245.86,69.726 245.999,62.93ZM282.489,73.61C285.296,70.776 286.831,66.918 286.739,62.93C286.847,58.969 285.307,55.135 282.489,52.35C276.698,46.586 267.199,46.586 261.409,52.35C258.651,55.169 257.149,58.988 257.249,62.93C257.167,66.899 258.664,70.742 261.409,73.61C267.252,79.255 276.645,79.255 282.489,73.61Z" style="fill:rgb(69,43,91);fill-rule:nonzero;"/>
    <path d="M304.409,39.11L315.849,39.11L315.849,66.9C315.849,74.09 319.909,77.58 326.239,77.58C332.569,77.58 336.639,74 336.639,66.81L336.639,39.11L348.079,39.11L348.079,67.56C348.079,74.18 345.999,79.29 341.839,82.78C337.679,86.27 332.479,87.98 326.149,87.98C319.819,87.98 314.619,86.28 310.549,82.78C306.479,79.28 304.409,74.37 304.409,67.85L304.409,39.11Z" style="fill:rgb(69,43,91);fill-rule:nonzero;"/>
    <path d="M359.639,72.2C361.809,75.6 366.439,78.2 372.209,78.2C378.159,78.2 380.709,75.93 380.709,73C380.576,71.329 379.516,69.866 377.969,69.22C376.552,68.477 375.064,67.877 373.529,67.43C372.109,66.95 369.279,66.1 367.669,65.43C360.009,62.69 355.949,58.81 355.949,52.01C355.757,47.962 357.546,44.065 360.739,41.57C364.181,38.952 368.416,37.587 372.739,37.7C379.449,37.7 384.559,40.06 388.149,44.7L381.819,51.41C379.739,48.76 376.619,47.41 372.549,47.41C369.059,47.41 366.789,49.11 366.789,51.66C366.789,53.27 367.639,54.12 368.959,54.97C370.21,55.627 371.507,56.195 372.839,56.67C374.259,57.05 376.899,58 378.789,58.67C387.579,61.79 391.549,66.04 391.549,72.85C391.549,81.64 384.939,87.97 371.989,87.97C362.439,87.97 355.349,84.29 352.329,78.33L359.639,72.2Z" style="fill:rgb(69,43,91);fill-rule:nonzero;"/>
    <path d="M395.119,62.93C395.119,55.37 397.479,49.32 402.119,44.69C406.759,40.06 412.799,37.79 420.119,37.79C427.019,37.79 432.689,40.06 437.039,44.69C441.449,49.272 443.833,55.443 443.649,61.8C443.649,63.22 443.559,64.54 443.459,65.8L406.359,65.8C406.739,73.36 412.359,78.28 420.729,78.28C425.586,78.312 430.244,76.322 433.579,72.79L440.389,79.41C435.253,84.981 427.963,88.083 420.389,87.92C412.919,87.92 406.779,85.65 402.149,81.21C397.519,76.77 395.149,70.81 395.149,63.34L395.119,62.93ZM432.069,57.83C432.054,54.983 430.729,52.295 428.479,50.55C426.174,48.48 423.166,47.363 420.069,47.43C416.761,47.364 413.527,48.422 410.899,50.43C408.49,52.161 406.941,54.848 406.649,57.8L432.069,57.83Z" style="fill:rgb(69,43,91);fill-rule:nonzero;"/>
    <path d="M460.879,71.57C460.875,71.57 460.872,71.57 460.869,71.57C456.365,71.57 452.659,75.276 452.659,79.78C452.659,84.284 456.365,87.99 460.869,87.99C465.372,87.99 469.079,84.284 469.079,79.78C469.079,79.777 469.079,79.773 469.079,79.77C469.073,75.274 465.375,71.575 460.879,71.57Z" style="fill:rgb(69,43,91);fill-rule:nonzero;"/>
    <path d="M561.829,0L510.189,16.42L510.189,0.13L454.509,17.9L454.509,65.12L502.509,49.79L502.509,66L565.649,45.82L548.539,29.12L561.829,0ZM502.519,41.71L462.179,54.58L462.179,23.58L502.519,10.73L502.519,41.71ZM551.369,42.34L510.189,55.48L510.189,24.48L548.119,12.35L539.429,30.7L551.369,42.34Z" style="fill:rgb(69,43,91);fill-rule:nonzero;"/>
</svg>
