<svg version="1.1" xmlns="http://www.w3.org/2000/svg" xmlns:cc="http://creativecommons.org/ns#" xmlns:dc="http://purl.org/dc/elements/1.1/" xmlns:rdf="http://www.w3.org/1999/02/22-rdf-syntax-ns#" viewBox="159.00 0.96 1250.09 1940.16"><g transform="translate(159 -.0022198)"><path d="m235.91 1333.6c53.54 32.86 786.2 484.26 786.2 484.26s76.62 60 153.83 22.79 74.06-112.61 74.06-122.49v-997s2.85-59.82-22.79-113.94c-28.91-61-68.27-93.36-111.09-119.64s-743.48-458.62-743.48-458.62-62.29-49.27-136.73-17.09-76.91 103.69-76.91 122.49v1078.1c0.52 16.25 2.43 37.81 8.55 49.89 10.68 21.09 14.82 38.35 68.36 71.21zm251.09-846.19 436 267.87v607l-436-265z" fill="#26abff"></path><path d="m0 1299.4c0.52 16.25 2.43 39.2 8.55 51.27 10.68 21.1 14.82 38.36 68.36 71.22s786.2 484.25 786.2 484.25 76.62 60.06 153.83 22.79 74.06-112.61 74.06-122.49v-997s2.85-59.82-22.79-113.95c-28.91-61-68.27-93.36-111.09-119.64s-743.48-458.6-743.48-458.6-62.29-49.22-136.73-17.1-76.91 103.7-76.91 122.49zm327-723.71 436 267.87v607l-436-265z" fill="#f50049"></path></g></svg>