<svg data-v-48bbd2e6="" id="Layer_2" data-name="Layer 2" xmlns="http://www.w3.org/2000/svg" viewBox="0 0 383.39 169.27" class="v-icon__component theme--dark" style="font-size: 36px; height: 36px; width: 36px;"><title data-v-48bbd2e6="">logo</title><path data-v-48bbd2e6="" d="M383.39,161c-2.83,6.42-7.81,8.33-14.68,8.32q-155.86-.21-311.74-.1c-27.27,0-49.44-17.67-55.6-44.24C-5.79,94.08,15.88,62.26,47.24,57.65a74.42,74.42,0,0,1,8.17-.71c6.93-.25,12-4.95,12.08-11.22S62.28,34.47,55.13,34.45c-14.22-.05-28.44,0-42.66,0C5.12,34.42.19,30,.15,23.31S5,12,12.28,12C27,12,41.72,12,56.44,12c18.28.08,33.32,14.85,33.5,32.81.19,19-14.17,34.06-32.93,34.51-18.36.45-31.76,12.1-34.12,30.26a33,33,0,0,0,30.59,36.8c12.12,1,24.39.18,36.78.18,4.92-46.53,26.36-83.33,65-109.73,22.36-15.3,47.34-23.26,74.23-24.66-1.2,5.44-2.7,10.59-3.41,15.84-4,30.06,18.3,58.48,48.51,61.94a38.2,38.2,0,0,0,8.18.46A11.31,11.31,0,0,0,292.79,78.9c-.33-6.06-5.17-10.52-11.73-10.78-13.69-.54-23.72-7-29.84-19.13C245,36.65,247.44,21.68,257,11.07a33.11,33.11,0,0,1,35.48-9.23A35.2,35.2,0,0,1,315.33,32.4a6.1,6.1,0,0,0,2.4,4c33.18,22.94,54.39,53.9,62.8,93.44,1.19,5.58,1.92,11.25,2.86,16.88ZM326.48,101.8A11.22,11.22,0,1,0,315.29,113,11.54,11.54,0,0,0,326.48,101.8Z" style="fill: #4daf4e;"></path></svg>