<svg version="1.1" id="Layer_1" xmlns="http://www.w3.org/2000/svg" xmlns:xlink="http://www.w3.org/1999/xlink" x="0px" y="0px" viewBox="79.14647674560547 263.4553527832031 824.1056518554688 363.4902038574219" enable-background="new 0 0 980 980" xml:space="preserve">
<path fill="#43A047" opacity="1.000000" stroke="none" d="
M160.153992,392.084778 
	C172.129517,389.983582 183.672119,387.547852 195.338531,386.133484 
	C205.490250,384.902740 214.884735,382.696991 220.608246,373.409851 
	C228.967392,359.846069 221.989517,339.104218 199.813339,337.326569 
	C193.518524,336.822021 187.153961,337.162415 180.821365,337.159088 
	C156.655853,337.146362 132.490265,337.183624 108.324959,337.112366 
	C105.016380,337.102631 101.625763,336.958771 98.415794,336.239990 
	C83.426262,332.883270 78.707329,321.320679 79.251884,311.754913 
	C80.005966,298.508484 90.112602,289.311768 103.414474,289.094116 
	C122.741875,288.777832 142.077744,288.972839 161.409988,288.962006 
	C174.576035,288.954620 187.742813,288.879974 200.907990,288.989349 
	C235.886978,289.279907 266.532379,314.752502 271.444153,349.402618 
	C277.685883,393.434662 248.634369,426.180145 213.531677,432.178619 
	C203.737534,433.852295 193.611801,433.855865 183.961227,436.047821 
	C156.570801,442.269135 139.042099,459.375244 130.913864,486.261505 
	C117.738235,529.843384 148.386520,575.738281 196.343719,577.773376 
	C215.643433,578.592407 234.976044,578.745667 254.296158,578.908264 
	C260.229431,578.958252 266.170898,578.033936 272.990601,577.484619 
	C284.947327,469.143005 337.696350,386.445038 431.511078,330.550446 
	C474.302856,305.055176 520.957581,292.003021 571.927612,289.722168 
	C570.349426,296.725189 569.094910,302.666382 567.667114,308.565643 
	C560.335815,338.856598 563.390442,367.967346 578.852722,395.125824 
	C598.728455,430.036163 628.593628,450.940887 668.736511,456.187042 
	C675.686646,457.095337 683.046814,457.790466 689.819153,456.497375 
	C702.062988,454.159576 709.401672,442.539551 707.859009,430.333405 
	C706.402832,418.811279 695.898010,410.446075 683.737366,409.901337 
	C647.609314,408.282867 620.526428,386.208954 612.549377,349.201508 
	C605.527832,316.627136 628.827759,276.814728 662.349609,266.758545 
	C700.706665,255.251846 737.655579,274.706635 751.658997,311.142700 
	C754.008057,317.254883 754.838928,323.999023 755.953430,330.522583 
	C756.921997,336.191742 759.864258,340.115356 764.494812,343.355103 
	C791.141968,361.998932 814.908813,383.766510 835.166992,409.270599 
	C868.638184,451.409393 888.993958,499.420410 898.609497,552.119690 
	C901.588196,568.444763 903.859985,584.872375 903.106567,601.623779 
	C902.559814,613.779846 895.434265,623.257568 883.435303,625.601501 
	C879.058044,626.456604 874.533203,626.942993 870.075623,626.943726 
	C762.580811,626.960632 655.086060,626.853821 547.591248,626.842590 
	C433.429993,626.830688 319.268738,626.886353 205.107483,626.930481 
	C174.983704,626.942078 147.398941,619.176086 123.881691,599.744751 
	C98.126335,578.464111 83.919441,550.873047 79.907593,517.770569 
	C73.507301,464.960632 108.096268,409.860657 160.153992,392.084778 
M770.476318,501.068390 
	C777.704712,495.579834 780.711365,488.327942 780.045898,479.282196 
	C779.378235,470.205597 774.644409,463.975128 766.768677,460.235840 
	C757.889160,456.019836 749.106995,456.946167 741.441772,463.147949 
	C734.560852,468.715179 730.546265,476.386047 732.362915,485.152283 
	C736.410217,504.683136 755.991577,511.266998 770.476318,501.068390 
z"></path>
</svg>