<svg fill="none" xmlns="http://www.w3.org/2000/svg" viewBox="-0.0005058118840679526 0.00010407387162558734 100.00061798095703 104.9999008178711"><path d="M38.65 97.993c12.848 0 23.377-20.732 25.97-46.15 1.456-.02 2.848-.638 3.881-1.72a6.093 6.093 0 0 0 1.659-4.084h.196c.778.05 1.55-.172 2.195-.632a3.717 3.717 0 0 0 1.376-1.913 3.928 3.928 0 0 0-.013-2.401 3.71 3.71 0 0 0-1.397-1.896 5.743 5.743 0 0 0 2.62-2.53 6.208 6.208 0 0 0 .658-3.684 6.06 6.06 0 0 0-1.567-3.364 5.52 5.52 0 0 0-3.164-1.7 3.845 3.845 0 0 0 .745-1.904 3.914 3.914 0 0 0-.325-2.031 3.672 3.672 0 0 0-1.297-1.54 3.402 3.402 0 0 0-1.874-.579c.983-.456 1.808-1.244 2.358-2.073 1.296-2.198 1.492-12.024-3.183-18.41-1.964-2.612-3.85-1.036-3.929.747-.392 5.473-.432 9.536-1.768 14.222a3.82 3.82 0 0 0-.878-1.927 3.507 3.507 0 0 0-1.736-1.101 3.36 3.36 0 0 0-2.024.084 3.547 3.547 0 0 0-1.648 1.244 6.04 6.04 0 0 0-1.848-3.734 5.453 5.453 0 0 0-3.73-1.496 5.453 5.453 0 0 0-3.731 1.496 6.041 6.041 0 0 0-1.849 3.734 3.547 3.547 0 0 0-1.647-1.244 3.36 3.36 0 0 0-2.025-.085 3.508 3.508 0 0 0-1.735 1.102 3.821 3.821 0 0 0-.879 1.927c-1.336-4.644-1.375-8.75-1.728-14.222-.118-1.783-2.043-3.318-3.93-.747-4.714 6.344-4.517 16.171-3.181 18.369.51.912 1.335 1.658 2.278 2.114a3.401 3.401 0 0 0-1.873.579c-.561.375-1.01.908-1.297 1.54a3.914 3.914 0 0 0-.326 2.031c.075.696.333 1.356.746 1.904a5.523 5.523 0 0 0-3.153 1.714A6.064 6.064 0 0 0 24.045 33c-.159 1.27.075 2.559.669 3.676a5.742 5.742 0 0 0 2.622 2.521 3.71 3.71 0 0 0-1.397 1.896 3.927 3.927 0 0 0-.013 2.4c.246.781.73 1.453 1.375 1.914a3.4 3.4 0 0 0 2.196.632h.196a6.171 6.171 0 0 0 1.708 4.089c1.046 1.08 2.446 1.695 3.91 1.716-1.571 7.131-3.929 27.49-5.893 46.107.118-1.036.393-2.073.471-3.151 2.75 2.073 5.658 3.193 8.762 3.193" fill="#4E4A99"></path><path d="M50.005 103.176c7.19 0 14.144.124 20.783.331l-.55-5.224-2.121-21.271C66.86 65.9 65.603 56.28 64.62 51.843c-2.593 25.418-13.122 46.15-25.93 46.15-3.143 0-6.011-1.12-8.8-3.193l-.472 3.151-.51 5.598c6.757-.249 13.829-.373 21.097-.373" fill="#3E3A78"></path><path d="M28.278 47.614a5.05 5.05 0 0 1-2.75-1.658c-.707.165-1.414.414-2.121.663a6.129 6.129 0 0 1-4.597 0 16.294 16.294 0 0 0-5.579-1.078c-2.593 0-5.186.207-7.74 1.037v2.612c0 .207.197.415.315.58.235.456.589.912.746 1.41.393 1.12.629 2.322 1.021 3.442.393 1.243 1.297 2.073 2.554 2.239 1.443.23 2.902.341 4.361.331.943-.041 1.768-.248 2.475-.663.393-1.866.943-3.649 1.768-5.39 1.14-2.405 2.947-2.488 4.204 0 .786 1.617 1.257 3.275 1.69 4.975.392.332.942.622 1.493.747 2.217.563 4.536.491 6.718-.208l.59-3.4a7.127 7.127 0 0 1-3.294-2.074 7.726 7.726 0 0 1-1.814-3.565" fill="#4E4A99"></path><path d="M21.52 60.55c.04 1.12 0 2.281-.078 3.4-.118 1.37-.157 2.696-.393 3.981-.118.913-.353.954-.471 0-.236-1.243-.275-2.612-.393-3.98-.079-1.12-.118-2.28-.079-3.4-1.414-.415-2.514-1.907-2.868-3.815a6.841 6.841 0 0 0 3.576.995c1.335 0 2.593-.414 3.575-.995-.314 1.908-1.454 3.4-2.829 3.815h-.04Zm5.108 6.179a31.187 31.187 0 0 0-.785-4.976c-.472-1.907-.786-3.814-1.218-5.68-.393-1.659-.904-3.317-1.69-4.934-1.257-2.488-3.064-2.405-4.204 0a26.16 26.16 0 0 0-1.768 5.39l-1.178 5.224c-.393 1.659-.629 3.317-.786 4.976-.157 2.612 1.454 4.81 3.457 4.81h4.715c2.043 0 3.654-2.198 3.457-4.81Z" fill="#fff"></path><path d="M17.239 56.736c.353 1.908 1.453 3.4 2.868 3.815 0 1.12 0 2.28.078 3.4.118 1.368.158 2.736.393 3.98.118.954.393.913.511 0 .197-1.243.236-2.612.393-3.98l.079-3.4c1.375-.415 2.514-1.907 2.828-3.815a6.712 6.712 0 0 1-3.536.995c-1.375 0-2.593-.414-3.614-.995Z" fill="#F3921A"></path><path d="M71.574 47.614a7.765 7.765 0 0 1-1.811 3.528 7.17 7.17 0 0 1-3.257 2.07l.51 3.068c.393.29.904.54 1.454.58 1.456.234 2.928.345 4.4.332.944-.041 1.768-.248 2.436-.663.433-1.825.943-3.649 1.768-5.39 1.18-2.405 2.986-2.488 4.204 0 .786 1.617 1.297 3.275 1.69 4.975.432.332.943.622 1.571.747 1.886.539 3.811.539 5.776.083 1.414-.332 2.357-1.12 2.789-2.53l.904-3.151c.157-.622.196-1.244.864-1.534.118-.042.197-.373.197-.54v-2.736c-1.572-.29-3.144-.622-4.676-.788-2.907-.29-5.814-.165-8.643.954a6.128 6.128 0 0 1-4.558 0 21.506 21.506 0 0 0-2.79-.788 5.065 5.065 0 0 1-2.828 1.783" fill="#4E4A99"></path><path d="M79.903 60.55c0 1.12 0 2.281-.078 3.4-.118 1.37-.157 2.696-.393 3.981-.118.913-.354.954-.51 0-.197-1.243-.237-2.612-.355-3.98a49.188 49.188 0 0 1-.117-3.4c-1.375-.415-2.515-1.907-2.83-3.815.983.622 2.24.995 3.537.995 1.375 0 2.593-.414 3.614-.995-.314 1.908-1.453 3.4-2.868 3.815Zm5.108 6.179c-.157-1.659-.393-3.317-.786-4.976-.471-1.907-.786-3.814-1.257-5.68-.393-1.659-.904-3.317-1.69-4.934-1.218-2.488-3.064-2.405-4.203 0a26.16 26.16 0 0 0-1.768 5.39c-.393 1.7-.708 3.483-1.14 5.224-.393 1.659-.628 3.317-.785 4.976-.197 2.612 1.414 4.81 3.457 4.81h4.714c2.043 0 3.615-2.198 3.419-4.81" fill="#fff"></path><path d="M75.621 56.736c.314 1.908 1.454 3.4 2.829 3.815 0 1.12 0 2.28.118 3.4.118 1.368.157 2.736.393 3.98.118.954.353.913.51 0 .197-1.243.236-2.612.354-3.98.078-1.12.118-2.28.078-3.4 1.415-.415 2.554-1.907 2.869-3.815a6.711 6.711 0 0 1-3.576.995c-1.335 0-2.593-.414-3.575-.995Z" fill="#F3921A"></path><path d="M30.832 30.738a28.759 28.759 0 0 1 9.626-1.243c2.397 0 4.715.414 6.994 1.326 1.846.705 3.81.747 5.657 0 3.536-1.41 7.15-1.575 10.804-1.244 1.965.208 3.85.664 5.815.996v3.4c0 .248-.118.622-.275.705-.786.373-.864 1.12-1.06 1.865-.355 1.327-.708 2.654-1.14 3.94a4.595 4.595 0 0 1-1.294 2.12 4.228 4.228 0 0 1-2.164 1.072 15.137 15.137 0 0 1-7.229-.083c-1.335-.373-2.357-1.12-2.986-2.488-.746-1.575-1.453-3.234-2.278-4.81-.197-.414-.708-.829-1.061-.87-.314 0-.786.456-.982.83-.59 1.16-1.179 2.321-1.572 3.565a6.037 6.037 0 0 1-2.157 3.056 5.524 5.524 0 0 1-3.461 1.09c-1.847.042-3.693-.124-5.5-.414-1.572-.166-2.633-1.244-3.144-2.778-.51-1.41-.785-2.903-1.296-4.313-.196-.621-.629-1.16-.943-1.741-.157-.249-.314-.498-.354-.746v-3.235" fill="#F8AB14"></path><path d="M56.173 49.646c-1.06-4.52-1.572-9.04-3.614-13.227-1.572-3.11-3.811-2.985-5.265 0-1.965 4.23-2.554 8.707-3.615 13.268a36.737 36.737 0 0 0-.982 6.178c-.236 3.235 1.768 6.013 4.282 6.013h5.894c2.514 0 4.518-2.778 4.282-6.013a37.914 37.914 0 0 0-.982-6.22Z" fill="#fff"></path><path d="M54.366 43.385c-1.218.788-2.75 1.244-4.44 1.244-1.689 0-3.221-.456-4.44-1.244.394 2.405 1.769 4.27 3.537 4.768 0 1.41 0 2.82.118 4.23.157 1.658.196 3.4.471 4.975.197 1.203.471 1.12.629 0 .275-1.575.314-3.317.471-4.975.118-1.41.118-2.82.118-4.23 1.768-.497 3.143-2.363 3.536-4.768Z" fill="#4E4A99"></path><path d="M11.777 100.522c7.858 0 14.655-9.703 18.348-23.344.864-7.464 1.847-15.051 2.75-20.525l-.943.29c-1.964.415-3.85.415-5.775-.082-.59-.125-1.1-.415-1.572-.788.472 1.866.786 3.773 1.258 5.68.392 1.659.668 3.317.785 4.976.197 2.612-1.414 4.81-3.418 4.81h-4.754c-2.003 0-3.614-2.198-3.418-4.81.118-1.659.393-3.317.786-4.976.393-1.741.707-3.524 1.14-5.224-.708.414-1.533.622-2.476.663-1.46.01-2.918-.1-4.36-.331a2.947 2.947 0 0 1-1.595-.717 3.209 3.209 0 0 1-.96-1.523c-.392-1.119-.628-2.321-1.02-3.44-.158-.498-.512-.955-.787-1.41-.078-.208-.235-.415-.235-.581v-2.612c2.514-.83 5.107-1.079 7.7-1.037 1.925.042 3.772.415 5.579 1.078 1.532.58 3.104.622 4.597 0 .707-.29 1.414-.498 2.16-.663a5.531 5.531 0 0 1-1.327-3.103 5.634 5.634 0 0 1 .699-3.324 7.686 7.686 0 0 1-2.374-4.287 7.963 7.963 0 0 1 .645-4.918 4.314 4.314 0 0 0-4.274-.261 4.577 4.577 0 0 0-1.713 1.469 4.913 4.913 0 0 0-.849 2.15 2.843 2.843 0 0 0-1.333-1.028 2.688 2.688 0 0 0-1.65-.067 2.81 2.81 0 0 0-1.405.917c-.371.446-.608 1-.68 1.588-1.06-3.732-1.1-7.049-1.375-11.402-.118-1.452-1.65-2.696-3.182-.622-3.772 5.1-3.615 13.02-2.554 14.76.432.706 1.1 1.286 1.846 1.66a2.721 2.721 0 0 0-1.503.461c-.45.3-.81.728-1.04 1.235a3.132 3.132 0 0 0-.259 1.63c.06.557.27 1.086.602 1.525a4.44 4.44 0 0 0-2.547 1.374 4.876 4.876 0 0 0-1.255 2.714 4.992 4.992 0 0 0 .542 2.965c.48.9 1.224 1.612 2.12 2.027-.524.363-.92.9-1.123 1.527a3.142 3.142 0 0 0-.003 1.933 2.97 2.97 0 0 0 1.121 1.53 2.716 2.716 0 0 0 1.774.483h.118c0 .25 0 .456.078.705.354 2.24 2.2 3.94 4.44 3.94-1.257 5.721-3.143 22.058-4.715 37.026.079-.829.275-1.7.393-2.57 2.2 1.658 4.518 2.57 6.993 2.57" fill="#F8AB14"></path><path d="M27.886 97.785c.471-4.81 1.296-12.646 2.239-20.607-3.693 13.683-10.45 23.344-18.348 23.344-2.475 0-4.793-.912-7.032-2.57-.079.828-.275 1.7-.393 2.57L3.959 105c7.111-.622 14.969-1.078 23.377-1.41.157-1.907.314-3.856.55-5.805" fill="#F3921A"></path><path d="M90.983 63.495a4.404 4.404 0 0 0 3.103-1.381 4.898 4.898 0 0 0 1.336-3.263h.157a2.72 2.72 0 0 0 1.756-.506 2.973 2.973 0 0 0 1.1-1.53c.198-.624.194-1.3-.01-1.92a2.968 2.968 0 0 0-1.117-1.517 4.616 4.616 0 0 0 2.118-2.037 4.994 4.994 0 0 0 .532-2.972 4.873 4.873 0 0 0-1.27-2.712 4.436 4.436 0 0 0-2.559-1.36c.32-.436.518-.957.574-1.505a3.133 3.133 0 0 0-.256-1.6 2.943 2.943 0 0 0-1.011-1.221 2.726 2.726 0 0 0-1.468-.484 4.718 4.718 0 0 0 1.847-1.7c1.06-1.741 1.218-9.66-2.554-14.76-1.571-2.074-3.064-.83-3.143.621-.314 4.354-.353 7.671-1.414 11.403a3.056 3.056 0 0 0-.7-1.544 2.807 2.807 0 0 0-1.389-.885 2.688 2.688 0 0 0-1.62.066 2.838 2.838 0 0 0-1.32.994 4.911 4.911 0 0 0-.87-2.198 4.568 4.568 0 0 0-1.77-1.479 4.309 4.309 0 0 0-4.353.402 8.01 8.01 0 0 1 .587 4.878 7.727 7.727 0 0 1-2.355 4.244c.555.973.804 2.107.712 3.238a5.548 5.548 0 0 1-1.223 3.064c.943.208 1.886.415 2.79.83 1.532.539 3.064.58 4.557 0 2.829-1.161 5.736-1.244 8.643-.996 1.572.166 3.104.498 4.715.788l-.04 2.737c0 .166-.078.497-.196.539-.668.29-.707.912-.864 1.492a54.879 54.879 0 0 1-.904 3.193 3.673 3.673 0 0 1-1.033 1.679 3.38 3.38 0 0 1-1.717.85c-1.965.415-3.929.415-5.854-.082-.59-.125-1.1-.415-1.532-.788.471 1.866.785 3.773 1.257 5.68.393 1.659.629 3.317.786 4.976.157 2.612-1.415 4.81-3.458 4.81H76.84c-2.043 0-3.654-2.198-3.458-4.81.157-1.659.393-3.317.786-4.976.393-1.741.747-3.524 1.179-5.224-.708.414-1.572.622-2.475.663a26.457 26.457 0 0 1-4.4-.331c-.55-.042-1.022-.29-1.454-.58 1.218 7.628 2.79 21.229 4.91 41.836l.236 2.198c9.39-1.99 16.894-17.747 18.859-36.82" fill="#F8AB14"></path><path d="m95.5 100.771-1.728-17.083a264.768 264.768 0 0 0-2.75-20.193c-1.965 19.073-9.469 34.83-18.858 36.82l.314 3.275c7.828.277 15.648.747 23.455 1.41l-.432-4.229Z" fill="#F3921A"></path><path d="M70.788 103.507h.118c-.894-8.85-1.824-17.695-2.79-26.537l2.122 21.313.55 5.224" fill="#4E4A99"></path><path d="M64.62 51.843c.982 4.437 2.24 14.057 3.497 25.169a248.782 248.782 0 0 0-3.497-25.169ZM29.418 97.951l-.55 5.598.55-5.598Z" fill="#3E3A78"></path></svg>