<svg version="1.1" xmlns="http://www.w3.org/2000/svg" xmlns:xlink="http://www.w3.org/1999/xlink" xml:space="preserve" xmlns:serif="http://www.serif.com/" style="fill-rule:evenodd;clip-rule:evenodd;stroke-linejoin:round;stroke-miterlimit:2;" viewBox="0.14 -0.03 214.93 233.99"><g id="Layer_2"><g id="Layer_1-2"><path d="M181.292,65.292c-9.81,2.668 -18.712,7.955 -25.75,15.291c-8.084,-28.791 -25.709,-72.25 -42.834,-79.458c-3.701,-1.714 -8.016,-1.511 -11.541,0.542c-10.75,6.083 -17.834,26.375 -11.625,64.541c-23.709,-43.333 -31.959,-43.291 -35.792,-43.291c-3.67,0.119 -6.942,2.394 -8.333,5.791c-2.584,5.709 -7.5,23.5 4.791,61.667c-15.041,-20.583 -19.666,-23.208 -25,-23c-3.467,0.19 -6.563,2.274 -8.041,5.417c-4.584,8.333 -4.167,29.958 10.041,61.875c-4.768,-4.272 -10.857,-6.786 -17.25,-7.125c-3.494,0.229 -6.639,2.227 -8.333,5.291c-5.792,10.459 6.292,39.834 20.833,59.667c11.917,16.333 35.959,41.458 70.834,41.458c4.854,0.007 9.697,-0.468 14.458,-1.416c2.983,-0.577 5.157,-3.212 5.157,-6.25c0,-3.492 -2.873,-6.366 -6.365,-6.366c-0.406,-0 -0.81,0.039 -1.209,0.116c-28.916,5.583 -50.708,-10.292 -63.916,-24.584c-19.792,-21.291 -28.417,-46.916 -28.917,-54.708c4.167,1.625 16,8.667 39.208,38.375c1.206,1.566 3.074,2.485 5.051,2.485c3.497,-0 6.375,-2.878 6.375,-6.375c-0,-1.272 -0.381,-2.515 -1.092,-3.568c-32.584,-49.375 -35.75,-79.167 -34.667,-89.334c9.542,9.75 33.333,45.584 51.458,72.584c1.196,1.671 3.129,2.665 5.185,2.665c3.497,-0 6.375,-2.878 6.375,-6.375c-0,-0.998 -0.235,-1.983 -0.685,-2.874c-37.5,-68.833 -36.208,-100.291 -34,-110.583c5.584,5.667 20.584,25.542 52.042,94c1.09,2.124 3.285,3.465 5.672,3.465c3.497,-0 6.375,-2.878 6.375,-6.375c0,-0.653 -0.1,-1.301 -0.297,-1.923c-30.5,-83.334 -17.25,-111.25 -12.208,-114.167c6.583,0 25.208,31.667 36.541,73.125c0.709,2.583 1.375,5.083 2,7.542c-1.605,2.839 -2.864,5.861 -3.75,9c-6.333,22.958 -12.25,75.333 -0.416,89.25c2.465,3.013 6.295,4.583 10.166,4.166c4.9,-0.534 9.303,-3.264 11.959,-7.416c11.208,-16.292 4.666,-57.292 -4.167,-93.167c6.015,-8.551 14.712,-14.857 24.708,-17.917c4.391,-1.47 9.256,-0.303 12.5,3c5.125,5.709 14.084,27.25 -13.041,103.167c-0.204,0.629 -0.308,1.287 -0.308,1.948c0,3.475 2.859,6.334 6.334,6.334c2.636,-0 5.009,-1.646 5.932,-4.115c21.667,-60.542 25,-99.542 10.583,-115.959c-6.463,-6.673 -16.165,-9.159 -25.041,-6.416Zm-27.959,116.25c-0.477,0.868 -1.267,1.523 -2.208,1.833c-4.625,-5.542 -4.667,-38.542 0.458,-65.542c9.709,46.625 4.042,60.334 1.75,63.709Z" style="fill:url(#_Linear1);fill-rule:nonzero;"></path></g></g><defs><linearGradient id="_Linear1" x1="0" y1="0" x2="1" y2="0" gradientUnits="userSpaceOnUse" gradientTransform="matrix(26834.3,0,0,26834.3,-418.975,6570.37)"><stop offset="0" style="stop-color:#0074e4;stop-opacity:1"></stop><stop offset="1" style="stop-color:#5522fa;stop-opacity:1"></stop></linearGradient></defs></svg>
