<svg xmlns="http://www.w3.org/2000/svg" xmlns:xlink="http://www.w3.org/1999/xlink" viewBox="0.03 -0.01 122.56 56.16">
  <defs>
    <style>
      .cls-1 {
        fill: url(#linear-gradient);
      }

      .cls-2 {
        fill: url(#linear-gradient-2);
      }

    </style>
    <linearGradient id="linear-gradient" x1="-1.95" y1="27.76" x2="122.9" y2="27.76" gradientUnits="userSpaceOnUse">
      <stop offset="0" stop-color="#0074e4"></stop>
      <stop offset="1" stop-color="#5522fa"></stop>
    </linearGradient>
    <linearGradient id="linear-gradient-2" x1="-1.95" y1="28.08" x2="122.9" y2="28.08" xlink:href="#linear-gradient"></linearGradient>
  </defs>
  <g id="Layer_2" data-name="Layer 2">
    <g id="Layer_1-2" data-name="Layer 1">
      <path class="cls-1" d="M121.41,9.41H114.8a2.68,2.68,0,0,0-2.37,1.68l-1.53,4.32-1.2,3.35L108,23.6a8,8,0,0,1-.71,1.68,8.56,8.56,0,0,1-.69-1.68L105,18.77c-.32-.92-.84-2.44-1.17-3.36l-1.53-4.32a2.68,2.68,0,0,0-2.37-1.68H74.5a1.78,1.78,0,0,0-1.78,1.78V21.3A1.78,1.78,0,0,1,71,23.08h-7.4a1.78,1.78,0,0,1-1.78-1.78V11.19A1.78,1.78,0,0,0,60,9.41H53.83a1.78,1.78,0,0,0-1.78,1.78v4.66c3.27,4.18,3.28,11.78,0,23.1v5.39a1.78,1.78,0,0,0,1.78,1.78H60a1.78,1.78,0,0,0,1.78-1.78v-11a1.78,1.78,0,0,1,1.78-1.78H71a1.78,1.78,0,0,1,1.77,1.78v11a1.78,1.78,0,0,0,1.78,1.78H95.27A1.78,1.78,0,0,0,97,44.34V39.77A1.78,1.78,0,0,0,95.27,38h-11a1.78,1.78,0,0,1-1.78-1.78v-3a1.78,1.78,0,0,1,1.78-1.77h6.64a1.79,1.79,0,0,0,1.78-1.78V25.08a1.78,1.78,0,0,0-1.78-1.78H84.25a1.78,1.78,0,0,1-1.78-1.78v-2.2a1.78,1.78,0,0,1,1.78-1.78h9a3,3,0,0,1,2.53,1.62l5.84,12.69a9.69,9.69,0,0,1,.74,3.4v9.09a1.78,1.78,0,0,0,1.78,1.78h6.16a1.78,1.78,0,0,0,1.77-1.78V35.25a9.71,9.71,0,0,1,.75-3.4L122.44,11A1.05,1.05,0,0,0,121.41,9.41Z"></path>
      <path class="cls-2" d="M43.51,15.67a13.46,13.46,0,0,0-6.18,3.67C35.39,12.43,31.16,2,27.05.27A3,3,0,0,0,24.28.4C21.7,1.86,20,6.73,21.49,15.89,15.8,5.49,13.82,5.5,12.9,5.5a2.24,2.24,0,0,0-2,1.39c-.62,1.37-1.8,5.64,1.15,14.8-3.61-4.94-4.72-5.57-6-5.52a2.27,2.27,0,0,0-1.93,1.3c-1.1,2-1,7.19,2.41,14.85a6.74,6.74,0,0,0-4.14-1.71,2.47,2.47,0,0,0-2,1.27C-1,34.39,1.9,41.44,5.39,46.2c2.86,3.92,8.63,9.95,17,9.95a17.64,17.64,0,0,0,3.47-.34,1.52,1.52,0,1,0-.58-3c-6.94,1.34-12.17-2.47-15.34-5.9C5.19,41.8,3.12,35.65,3,33.78c1,.39,3.84,2.08,9.41,9.21a1.53,1.53,0,0,0,2.48-1.79c-7.82-11.85-8.58-19-8.32-21.44,2.29,2.34,8,10.94,12.35,17.42a1.53,1.53,0,0,0,2.61-1.58c-9-16.52-8.69-24.07-8.16-26.54,1.34,1.36,4.94,6.13,12.49,22.56a1.53,1.53,0,0,0,2.82-1.16c-7.32-20-4.14-26.7-2.93-27.4,1.58,0,6.05,7.6,8.77,17.55.17.62.33,1.22.48,1.81a9.8,9.8,0,0,0-.9,2.16C32.58,30.09,31.16,42.66,34,46a2.77,2.77,0,0,0,2.44,1,3.91,3.91,0,0,0,2.87-1.78c2.69-3.91,1.12-13.75-1-22.36a11.29,11.29,0,0,1,5.93-4.3,2.91,2.91,0,0,1,3,.72c1.23,1.37,3.38,6.54-3.13,24.76a1.52,1.52,0,0,0,2.87,1c5.2-14.53,6-23.89,2.54-27.83A5.93,5.93,0,0,0,43.51,15.67ZM36.8,43.57a.94.94,0,0,1-.53.44c-1.11-1.33-1.12-9.25.11-15.73C38.71,39.47,37.35,42.76,36.8,43.57Z"></path>
    </g>
  </g>
</svg>
