
<svg xmlns="http://www.w3.org/2000/svg" xmlns:xlink="http://www.w3.org/1999/xlink" viewBox=".03 -.01 51.58 56.16">
  <defs/>
  <defs>
    <linearGradient id="linear-gradient" x1="-1.95" x2="122.9" y1="27.76" y2="27.76" gradientUnits="userSpaceOnUse">
      <stop offset="0" stop-color="#0074e4"/>
      <stop offset="1" stop-color="#5522fa"/>
    </linearGradient>
    <linearGradient xmlns:xlink="http://www.w3.org/1999/xlink" id="linear-gradient-2" x1="-1.95" x2="122.9" y1="28.08" y2="28.08" xlink:href="#linear-gradient"/>
  </defs>
  <g id="Layer_2" data-name="Layer 2">
    <path id="Layer_1-2" fill="url(#linear-gradient-2)" d="M43.51 15.67a13.46 13.46 0 00-6.18 3.67C35.39 12.43 31.16 2 27.05.27a3 3 0 00-2.77.13C21.7 1.86 20 6.73 21.49 15.89 15.8 5.49 13.82 5.5 12.9 5.5a2.24 2.24 0 00-2 1.39c-.62 1.37-1.8 5.64 1.15 14.8-3.61-4.94-4.72-5.57-6-5.52a2.27 2.27 0 00-1.93 1.3c-1.1 2-1 7.19 2.41 14.85a6.74 6.74 0 00-4.14-1.71 2.47 2.47 0 00-2 1.27c-1.39 2.51 1.51 9.56 5 14.32 2.86 3.92 8.63 9.95 17 9.95a17.64 17.64 0 003.47-.34 1.52 1.52 0 10-.58-3c-6.94 1.34-12.17-2.47-15.34-5.9C5.19 41.8 3.12 35.65 3 33.78c1 .39 3.84 2.08 9.41 9.21a1.53 1.53 0 002.48-1.79c-7.82-11.85-8.58-19-8.32-21.44 2.29 2.34 8 10.94 12.35 17.42a1.53 1.53 0 002.61-1.58c-9-16.52-8.69-24.07-8.16-26.54 1.34 1.36 4.94 6.13 12.49 22.56a1.53 1.53 0 002.82-1.16c-7.32-20-4.14-26.7-2.93-27.4 1.58 0 6.05 7.6 8.77 17.55.17.62.33 1.22.48 1.81a9.8 9.8 0 00-.9 2.16C32.58 30.09 31.16 42.66 34 46a2.77 2.77 0 002.44 1 3.91 3.91 0 002.87-1.78c2.69-3.91 1.12-13.75-1-22.36a11.29 11.29 0 015.93-4.3 2.91 2.91 0 013 .72c1.23 1.37 3.38 6.54-3.13 24.76a1.52 1.52 0 002.87 1c5.2-14.53 6-23.89 2.54-27.83a5.93 5.93 0 00-6.01-1.54zm-6.71 27.9a.94.94 0 01-.53.44c-1.11-1.33-1.12-9.25.11-15.73 2.33 11.19.97 14.48.42 15.29z" data-name="Layer 1"/>
  </g>
</svg>
