<svg xmlns="http://www.w3.org/2000/svg" viewBox="0.05 0.05 26.57 25.94"><path d="M12.097 25.965c-3.014-.244-5.659-1.4-7.97-3.483C1.92 20.49.46 17.61.108 14.546c-.093-.807-.07-2.5.045-3.232.452-2.891 1.795-5.458 3.93-7.512C6.668 1.317 9.883.045 13.579.045c2.167 0 4 .445 5.96 1.448.388.198.737.396.775.438.065.072.046.096-.257.324-.506.382-3.269 2.24-3.433 2.308-.214.09-.392.075-.857-.072-.895-.282-1.73-.405-2.749-.405-1.109 0-1.9.127-2.976.48-.765.25-1.777.75-2.366 1.168-.548.388-1.466 1.306-1.854 1.854-.683.963-1.278 2.394-1.563 3.763-.18.868-.228 2.12-.111 2.926.212 1.47.785 2.78 1.792 4.107 1.691 2.226 4.419 3.521 7.424 3.525 1.33.001 2.45-.216 3.73-.723.462-.183.632-.174.829.043.086.095.244.302.35.46.108.158.525.748.928 1.31.44.617.731 1.064.731 1.127 0 .142-.084.207-.606.467a13.857 13.857 0 01-4.492 1.334c-.523.061-2.169.084-2.736.038z" fill="#dc0d1f"></path><path d="M14.33 13.21a168.096 168.096 0 01-1.956-2.785c-.288-.422-.318-.58-.154-.812.064-.09 1.328-.976 3.379-2.37 6.36-4.32 6.138-4.175 6.33-4.127.244.061 1.538 1.37 2.193 2.217.375.487.703.994.703 1.09 0 .05-.131.172-.348.322-.191.132-.65.454-1.021.714-1.084.763-3.586 2.472-3.66 2.5-.036.014-.723.472-1.526 1.019-3.073 2.092-3.547 2.401-3.68 2.401-.095 0-.163-.044-.26-.168zm3.715 5.118c-.258-.25-2.232-3.033-2.292-3.234-.064-.214.004-.37.258-.59.094-.083 1.03-.731 2.08-1.442 1.049-.71 3.107-2.107 4.573-3.103 1.466-.996 2.722-1.839 2.793-1.874.101-.05.14-.052.194-.007.079.065.424 1.09.584 1.732.206.83.385 2.046.385 2.626 0 .351-.083.512-.365.705-.896.613-3.89 2.64-5.314 3.598-.963.647-1.904 1.285-2.09 1.416a3.025 3.025 0 01-.486.29c-.137.047-.156.04-.32-.117zm3.43 4.804c-.053-.034-.809-1.09-1.67-2.33-.333-.48-.502-.765-.502-.844 0-.142.117-.258.583-.581 1.726-1.196 6.216-4.235 6.503-4.402.077-.045.04.216-.131.925-.514 2.115-1.554 4.13-2.918 5.652-.369.41-1.49 1.456-1.67 1.556-.119.066-.13.067-.195.024z" fill="#dc0d1f"></path></svg>
