<svg version="1.1" id="Layer_1" xmlns="http://www.w3.org/2000/svg" x="0" y="0" xml:space="preserve" viewBox="156 246 300 300"><style>.st0{fill:#255fab}</style><path class="st0" d="M455.92 396c0 48.81-.03 97.61.08 146.42.01 2.98-.6 3.58-3.58 3.58-97.61-.1-195.23-.1-292.84 0-2.98 0-3.58-.6-3.58-3.58.1-97.61.1-195.23 0-292.84 0-2.98.6-3.58 3.58-3.58 97.61.1 195.23.1 292.84 0 2.98 0 3.59.6 3.58 3.58-.12 48.81-.08 97.61-.08 146.42z"/><path d="M237.92 406.04c-13.93-.25-27.08-3.15-38.53-11.61-14.56-10.75-22.16-25.26-23.62-43.22-.28-3.47.9-4.29 4.11-4.22 7.66.18 15.32.19 22.98-.01 3.12-.08 4.16.88 4.68 4.05 2.35 14.31 13.57 23.72 27.65 23.99 3.6.07 5.04-.71 4.85-4.63-.33-6.64-.07-13.32-.07-19.98 0-1.74-.04-3.39 2.48-3.37 9.16.07 18.31.06 27.47.15.55.01 1.1.64 1.65.99.29 7.6-.79 15.24.87 22.82.59 2.69 1.77 3.55 4.36 3.54 19.46-.06 38.92-.07 58.39.02 2.69.01 3.41-.99 3.35-3.5-.13-5.99-.1-11.98-.01-17.96.02-1.59-.65-3.33.66-4.77 1.2-1.6 2.95-1.26 4.57-1.27 7.65-.02 15.31.17 22.95-.1 3.68-.13 4.49 1.35 4.38 4.65-.2 6.15.2 12.32-.16 18.45-.24 4.07 1.21 5.4 5.06 4.9 2.29-.29 4.67.16 6.86-.91 4.21-1.67 7.76-4.7 12.21-5.89 5.78-4.12 8.81-10.04 9.62-16.79.47-3.88 2-4.5 5.36-4.4 7.32.21 14.66.32 21.97-.02 4.25-.2 4.91 1.43 4.65 5.21-2.14 30.45-26.27 52.88-57.86 53.62-7.75.18-7.75.18-7.76 8.05-.01 9.49.07 18.98-.07 28.47-.38 26.81-17.22 51.06-41.8 60.32-25.93 9.77-54.19 2.98-72.55-17.42-5.95-6.61-10-14.35-13.53-22.42-2.51-4.92-3.92-10.18-4-15.65-.16-11.8-.02-23.6-.07-35.4-.01-1.94.51-4.04-1.1-5.69z" fill="#fefefe"/><path d="M339.17 348.33c.09 7.79.12 15.58.32 23.37.07 2.73-1.2 3.3-3.63 3.29-20.41-.06-40.82-.07-61.23.02-2.62.01-3.5-.9-3.43-3.47.21-7.78.25-15.57.36-23.36.97 4.1.6 8.28.38 12.39-.22 3.98 1.29 7.44 2.17 11.1.52 2.13 2.17 2.28 3.87 2.28 18.58.01 37.15-.03 55.73.04 3.31.01 4.34-1.54 4.28-4.59-.1-5.31-.05-10.62 0-15.92.01-1.8-.38-3.71 1.18-5.15z" fill="#375b85"/><path d="M237.92 406.04c3.3-.02 1.93 2.55 1.95 3.96.14 8.77.29 17.55.03 26.31-.27 9.02.92 17.8 3.18 26.48-4.62-3.83-4.72-9.46-4.89-14.53-.47-14.07-.23-28.15-.27-42.22z" fill="#355a94"/><path d="M395.05 368.17c-3.38 3.39-7.34 5.57-12.21 5.89 3.51-3.12 6.8-6.71 12.21-5.89z" fill="#3b6799"/><path class="st0" d="M275.82 458c-3.3-4.86-4.42-10.38-4.49-16.09-.14-10.65-.05-21.31-.09-31.96-.01-2.27-.17-4.22 3.22-4.19 21.13.18 42.27.21 63.41.29 1.09 1.31.62 2.87.6 4.3-.23 13.38.58 26.78-.42 40.15-3.83 19.72-28.35 30.97-47.38 21.78-4.13-2-7.68-4.7-10.7-8.13-.89-2.39-2.15-4.52-4.15-6.15z"/><path d="M338.03 450.49l-.18-44.45c1.4 0 1.55 1.03 1.55 2.03-.04 12.73-.07 25.46-.22 38.18-.01 1.42-.75 2.83-1.15 4.24z" fill="#395c82"/><path d="M275.82 458c3.02.94 4.37 3.01 4.14 6.14-1.84-1.74-3.46-3.62-4.14-6.14z" fill="#456c9a"/></svg>