<svg viewBox="0 0 144 144" version="1.1" id="svg5" xmlns="http://www.w3.org/2000/svg" xmlns:svg="http://www.w3.org/2000/svg">
  <defs id="defs2"></defs>
  <g id="layer1" transform="translate(-45.499397,-63.770805)">
    <rect style="fill:#000000;fill-opacity:1;stroke-width:0.281767" id="rect111" width="144" height="144" x="45.499397" y="63.770805"></rect>
    <rect style="fill:#ffffff;fill-opacity:1;stroke-width:0.258232" id="rect3865" width="18" height="18" x="54.499397" y="72.770805"></rect>
    <rect style="fill:#ffffff;fill-opacity:1;stroke-width:0.258232" id="rect3865-3" width="18" height="18" x="81.499397" y="72.770805"></rect>
    <rect style="fill:#ffffff;fill-opacity:1;stroke-width:0.258232" id="rect3865-1" width="18" height="18" x="135.49939" y="72.770805"></rect>
    <rect style="fill:#ffffff;fill-opacity:1;stroke-width:0.258232" id="rect3865-1-9" width="18" height="18" x="162.49939" y="72.770805"></rect>
    <rect style="fill:#ffffff;fill-opacity:1;stroke-width:0.258232" id="rect3865-36" width="18" height="18" x="108.4994" y="72.770805"></rect>
    <rect style="fill:#ffffff;fill-opacity:1;stroke-width:0.258232" id="rect3865-5" width="18" height="18" x="54.49939" y="180.7708"></rect>
    <rect style="fill:#ffffff;fill-opacity:1;stroke-width:0.258232" id="rect3865-3-8" width="18" height="18" x="81.49939" y="180.7708"></rect>
    <rect style="fill:#ffffff;fill-opacity:1;stroke-width:0.258232" id="rect3865-1-8" width="18" height="18" x="135.49939" y="180.7708"></rect>
    <rect style="fill:#ffffff;fill-opacity:1;stroke-width:0.258232" id="rect3865-1-9-2" width="18" height="18" x="162.49939" y="180.7708"></rect>
    <rect style="fill:#ffffff;fill-opacity:1;stroke-width:0.258232" id="rect3865-36-6" width="18" height="18" x="108.4994" y="180.7708"></rect>
    <rect style="fill:#ff7c66;fill-opacity:1;stroke-width:0.300649" id="rect23655" width="9" height="72" x="54.499397" y="99.770805"></rect>
    <rect style="fill:#ffb466;fill-opacity:1;stroke-width:0.300649" id="rect23655-1" width="9" height="72" x="63.399399" y="99.770805"></rect>
    <rect style="fill:#ffeb66;fill-opacity:1;stroke-width:0.300649" id="rect23655-7" width="9" height="72" x="72.2994" y="99.770805"></rect>
    <rect style="fill:#f3fd68;fill-opacity:1;stroke-width:0.300649" id="rect23655-3" width="9" height="72" x="81.199394" y="99.770805"></rect>
    <rect style="fill:#8ddf77;fill-opacity:1;stroke-width:0.300649" id="rect23655-2" width="9" height="72" x="99.499397" y="99.770805"></rect>
    <rect style="fill:#67d288;fill-opacity:1;stroke-width:0.300649" id="rect23655-1-6" width="9" height="72" x="108.39941" y="99.770805"></rect>
    <rect style="fill:#66daa9;fill-opacity:1;stroke-width:0.300649" id="rect23655-7-8" width="9" height="72" x="117.2994" y="99.770805"></rect>
    <rect style="fill:#66edd6;fill-opacity:1;stroke-width:0.300649" id="rect23655-3-3" width="9" height="72" x="126.19939" y="99.770805"></rect>
    <rect style="fill:#66b4e6;fill-opacity:1;stroke-width:0.300649" id="rect23655-70" width="9" height="72" x="144.49939" y="99.770805"></rect>
    <rect style="fill:#6686cb;fill-opacity:1;stroke-width:0.300649" id="rect23655-1-0" width="9" height="72" x="153.39941" y="99.770805"></rect>
    <rect style="fill:#6668bc;fill-opacity:1;stroke-width:0.300649" id="rect23655-7-4" width="9" height="72" x="162.29941" y="99.770805"></rect>
    <rect style="fill:#9166c1;fill-opacity:1;stroke-width:0.300649" id="rect23655-3-0" width="9" height="72" x="171.1994" y="99.770805"></rect>
  </g>
</svg>