<svg xmlns="http://www.w3.org/2000/svg" viewbox='0 0 350 350'>
<path style="fill:#ffffff; stroke:none;" d="M0 0L0 350L350 350L350 0L0 0z"/>
<path style="fill:#ff8901; stroke:none;" d="M263 91L263 145C240.905 125.168 201.162 132.423 183.68 155C160.533 184.892 168.4 239.494 206 253.935C214.829 257.326 224.548 259.288 234 258.282C246.329 256.969 255.707 254.867 265 246L265 257L306 257L306 91L263 91M164 224L132 208C129.2 212.465 126.452 216.896 121.985 219.891C118.729 222.074 114.905 223.446 111 223.823C69.1983 227.854 86.0729 148.495 121 171.703C125.65 174.793 128.904 179.468 132 184L164 168C159.906 145.045 132.721 134.008 112 134C76.9734 133.987 44.9412 155.178 44.0147 193C43.1302 229.1 68.3561 255.533 104 258.089C127.083 259.744 159.23 250.759 164 224z"/>
<path style="fill:#ffffff; stroke:none;" d="M235 168.468C203.386 174.42 210.645 229.518 244 223.671C274.936 218.249 267.73 162.305 235 168.468z"/>
<path transform="translate(0.000000,350.000000) scale(0.100000,-0.100000)"
fill="#000000" stroke="none" d="M521 3023 c-59 -29 -71 -62 -71 -195 l0 -118 1300 0 1300 0 0 118 c0
134 -12 167 -73 195 -32 16 -134 17 -1229 17 -1092 0 -1196 -2 -1227 -17z"/>
<path transform="translate(0.000000,350.000000) scale(0.100000,-0.100000)"
fill="#000000" stroke="none" d="M450 673 c0 -135 12 -168 73 -196 32 -16 134 -17 1227 -17 1093 0
1195 1 1227 17 61 28 73 61 73 196 l0 117 -1300 0 -1300 0 0 -117z"/>
</svg>
