<svg id="svg" version="1.1" xmlns="http://www.w3.org/2000/svg" xmlns:xlink="http://www.w3.org/1999/xlink" viewBox="1.637987494468689 1.5789999961853027 396.8157653808594 390.9125061035156"><g id="svgg">
<path id="path0" d="M47.201 2.264 C 19.798 2.721,15.606 3.146,11.363 5.892 C 4.448 10.369,3.361 14.699,3.359 37.780 L 3.358 51.493 200.040 51.493 L 396.721 51.493 396.531 35.914 C 396.165 5.959,394.314 3.681,369.432 2.554 C 358.675 2.067,74.304 1.811,47.201 2.264 M3.449 358.116 C 3.687 381.283,4.777 384.823,12.937 388.930 C 19.049 392.007,15.884 391.956,201.119 391.968 C 386.914 391.979,381.036 392.083,387.456 388.684 C 395.251 384.557,396.259 381.160,396.532 358.116 L 396.716 342.537 200.003 342.537 L 3.289 342.537 3.449 358.116 " stroke="none" fill="#040404" fill-rule="evenodd"></path>
<path id="path1" d="M333.209 110.655 L 333.209 151.533 329.985 149.016 C 303.185 128.088,258.862 129.679,227.690 152.686 C 199.764 173.298,187.012 215.705,196.800 255.410 C 205.460 290.535,228.389 313.632,261.940 321.026 C 289.034 326.996,321.501 320.070,335.075 305.422 L 336.007 304.416 336.194 312.749 L 336.381 321.082 367.257 321.178 L 398.134 321.273 398.134 195.525 L 398.134 69.776 365.672 69.776 L 333.209 69.776 333.209 110.655 M95.709 135.301 C 31.401 140.372,-7.413 187.187,3.553 246.455 C 13.690 301.237,67.109 333.088,127.052 320.092 C 157.190 313.558,179.008 295.065,182.992 272.676 L 183.240 271.285 159.064 259.210 L 134.888 247.134 132.162 251.333 C 121.237 268.160,105.067 274.893,88.060 269.696 C 68.656 263.768,60.315 238.362,69.288 212.523 C 81.337 177.828,112.468 176.460,134.339 209.664 L 134.910 210.530 159.067 198.455 L 183.225 186.381 182.986 185.261 C 176.328 154.122,137.670 131.993,95.709 135.301 M305.784 187.167 C 336.497 194.884,345.114 245.212,319.030 264.534 C 308.562 272.288,292.070 273.561,281.030 267.468 C 258.075 254.796,252.772 216.974,271.240 197.644 C 279.874 188.607,294.209 184.259,305.784 187.167 " stroke="none" fill="#fc8c04" fill-rule="evenodd"></path>
<path id="path3" d="M54.772 2.142 C 56.063 2.215,58.078 2.215,59.250 2.141 C 60.422 2.067,59.366 2.007,56.903 2.008 C 54.440 2.009,53.481 2.069,54.772 2.142 M345.056 2.136 C 345.723 2.218,346.814 2.218,347.481 2.136 C 348.148 2.053,347.603 1.985,346.269 1.985 C 344.935 1.985,344.389 2.053,345.056 2.136 M101.586 51.772 C 155.714 51.824,244.286 51.824,298.414 51.772 C 352.542 51.720,308.256 51.678,200.000 51.678 C 91.744 51.678,47.458 51.720,101.586 51.772 M101.586 342.444 C 155.714 342.496,244.286 342.496,298.414 342.444 C 352.542 342.392,308.256 342.349,200.000 342.349 C 91.744 342.349,47.458 342.392,101.586 342.444 M31.069 391.686 C 31.636 391.771,32.475 391.769,32.934 391.681 C 33.393 391.592,32.929 391.522,31.903 391.525 C 30.877 391.527,30.501 391.600,31.069 391.686 M368.195 391.682 C 368.659 391.771,369.330 391.768,369.687 391.674 C 370.044 391.581,369.664 391.508,368.843 391.512 C 368.022 391.516,367.731 391.593,368.195 391.682 M55.504 392.066 C 56.581 392.142,58.344 392.142,59.422 392.066 C 60.499 391.991,59.618 391.929,57.463 391.929 C 55.308 391.929,54.426 391.991,55.504 392.066 M348.794 392.061 C 349.465 392.145,350.472 392.143,351.033 392.058 C 351.593 391.973,351.045 391.905,349.813 391.907 C 348.582 391.909,348.123 391.978,348.794 392.061 " stroke="none" fill="#7c7c7c" fill-rule="evenodd"></path>
<path id="path4" d="M398.319 195.522 C 398.319 264.785,398.362 293.120,398.414 258.489 C 398.467 223.857,398.467 167.187,398.414 132.556 C 398.362 97.924,398.319 126.259,398.319 195.522 M281.623 134.231 C 282.906 134.304,285.005 134.304,286.287 134.231 C 287.570 134.159,286.521 134.099,283.955 134.099 C 281.390 134.099,280.340 134.159,281.623 134.231 M94.875 135.342 C 95.442 135.428,96.281 135.426,96.740 135.337 C 97.199 135.249,96.735 135.179,95.709 135.181 C 94.683 135.184,94.307 135.257,94.875 135.342 M110.732 135.339 C 111.196 135.428,111.868 135.424,112.224 135.331 C 112.581 135.238,112.201 135.165,111.381 135.169 C 110.560 135.173,110.268 135.249,110.732 135.339 M219.030 159.888 C 217.501 161.427,216.334 162.687,216.437 162.687 C 216.539 162.687,217.874 161.427,219.403 159.888 C 220.932 158.349,222.099 157.090,221.996 157.090 C 221.894 157.090,220.559 158.349,219.030 159.888 M98.051 185.721 C 98.929 185.800,100.272 185.799,101.036 185.719 C 101.800 185.639,101.082 185.574,99.440 185.576 C 97.799 185.577,97.173 185.643,98.051 185.721 M296.922 186.464 C 297.589 186.547,298.680 186.547,299.347 186.464 C 300.014 186.381,299.468 186.313,298.134 186.313 C 296.800 186.313,296.255 186.381,296.922 186.464 M321.253 195.989 C 322.168 196.964,322.966 197.761,323.025 197.761 C 323.306 197.761,323.009 197.426,321.362 195.880 L 319.590 194.216 321.253 195.989 M1.952 217.910 C 1.952 218.629,2.029 218.923,2.123 218.563 C 2.217 218.204,2.217 217.617,2.123 217.257 C 2.029 216.898,1.952 217.192,1.952 217.910 M193.743 218.657 C 193.743 219.375,193.820 219.669,193.914 219.310 C 194.008 218.951,194.008 218.363,193.914 218.004 C 193.820 217.645,193.743 217.938,193.743 218.657 M1.638 227.052 C 1.638 229.720,1.698 230.763,1.770 229.369 C 1.842 227.975,1.841 225.792,1.768 224.518 C 1.696 223.244,1.637 224.384,1.638 227.052 M193.434 228.358 C 193.434 231.539,193.491 232.840,193.561 231.250 C 193.631 229.660,193.631 227.057,193.561 225.466 C 193.491 223.876,193.434 225.177,193.434 228.358 M260.214 227.799 C 260.215 230.056,260.277 230.931,260.351 229.744 C 260.425 228.556,260.424 226.709,260.349 225.639 C 260.274 224.569,260.213 225.541,260.214 227.799 M334.042 225.746 C 334.042 226.465,334.119 226.758,334.212 226.399 C 334.306 226.040,334.306 225.452,334.212 225.093 C 334.119 224.734,334.042 225.028,334.042 225.746 M65.810 233.209 C 65.810 235.364,65.871 236.245,65.947 235.168 C 66.022 234.090,66.022 232.327,65.947 231.250 C 65.871 230.173,65.810 231.054,65.810 233.209 M334.042 234.701 C 334.042 235.420,334.119 235.714,334.212 235.354 C 334.306 234.995,334.306 234.408,334.212 234.049 C 334.119 233.689,334.042 233.983,334.042 234.701 M1.960 236.007 C 1.964 236.828,2.040 237.120,2.130 236.656 C 2.219 236.192,2.215 235.520,2.122 235.164 C 2.029 234.807,1.956 235.187,1.960 236.007 M193.743 238.060 C 193.743 238.778,193.820 239.072,193.914 238.713 C 194.008 238.354,194.008 237.766,193.914 237.407 C 193.820 237.048,193.743 237.341,193.743 238.060 M322.563 261.287 L 320.336 263.619 322.668 261.392 C 323.951 260.167,325.000 259.118,325.000 259.060 C 325.000 258.784,324.632 259.121,322.563 261.287 M272.761 261.381 C 273.457 262.099,274.111 262.687,274.214 262.687 C 274.316 262.687,273.831 262.099,273.134 261.381 C 272.438 260.662,271.785 260.075,271.682 260.075 C 271.579 260.075,272.065 260.662,272.761 261.381 M97.119 271.170 C 98.100 271.247,99.612 271.246,100.478 271.168 C 101.344 271.090,100.541 271.027,98.694 271.028 C 96.847 271.029,96.138 271.093,97.119 271.170 M220.149 299.067 C 221.885 300.812,223.388 302.239,223.491 302.239 C 223.594 302.239,222.258 300.812,220.522 299.067 C 218.787 297.323,217.283 295.896,217.181 295.896 C 217.078 295.896,218.414 297.323,220.149 299.067 M89.272 322.645 C 89.632 322.739,90.219 322.739,90.578 322.645 C 90.938 322.551,90.644 322.475,89.925 322.475 C 89.207 322.475,88.913 322.551,89.272 322.645 M111.660 322.645 C 112.020 322.739,112.607 322.739,112.966 322.645 C 113.326 322.551,113.032 322.475,112.313 322.475 C 111.595 322.475,111.301 322.551,111.660 322.645 M95.243 323.028 C 95.807 323.114,96.730 323.114,97.295 323.028 C 97.859 322.943,97.397 322.873,96.269 322.873 C 95.140 322.873,94.678 322.943,95.243 323.028 M105.510 323.032 C 106.181 323.115,107.189 323.113,107.749 323.028 C 108.310 322.943,107.761 322.875,106.530 322.877 C 105.299 322.879,104.840 322.949,105.510 323.032 M276.591 323.402 C 277.158 323.488,277.998 323.486,278.457 323.397 C 278.916 323.308,278.451 323.238,277.425 323.241 C 276.399 323.244,276.024 323.316,276.591 323.402 M286.287 323.392 C 286.646 323.485,287.234 323.485,287.593 323.392 C 287.952 323.298,287.659 323.221,286.940 323.221 C 286.222 323.221,285.928 323.298,286.287 323.392 " stroke="none" fill="#fccd94" fill-rule="evenodd"></path>
<path id="path5" d="M3.150 40.672 C 3.150 46.726,3.201 49.202,3.264 46.175 C 3.327 43.148,3.327 38.195,3.264 35.168 C 3.201 32.141,3.150 34.618,3.150 40.672 M396.807 40.672 C 396.807 46.726,396.858 49.202,396.921 46.175 C 396.984 43.148,396.984 38.195,396.921 35.168 C 396.858 32.141,396.807 34.618,396.807 40.672 M3.150 353.545 C 3.150 359.701,3.201 362.273,3.264 359.258 C 3.327 356.244,3.327 351.206,3.264 348.064 C 3.202 344.922,3.151 347.388,3.150 353.545 M396.807 353.358 C 396.807 359.412,396.858 361.889,396.921 358.862 C 396.984 355.835,396.984 350.882,396.921 347.854 C 396.858 344.827,396.807 347.304,396.807 353.358 " stroke="none" fill="#979797" fill-rule="evenodd"></path>
<path id="path6" d="M148.974 1.772 C 174.576 1.825,216.469 1.825,242.071 1.772 C 267.673 1.719,246.726 1.676,195.522 1.676 C 144.319 1.676,123.372 1.719,148.974 1.772 M47.305 2.139 C 48.182 2.218,49.526 2.217,50.290 2.137 C 51.054 2.057,50.336 1.992,48.694 1.994 C 47.052 1.995,46.427 2.061,47.305 2.139 M351.399 2.136 C 352.066 2.218,353.158 2.218,353.825 2.136 C 354.492 2.053,353.946 1.985,352.612 1.985 C 351.278 1.985,350.732 2.053,351.399 2.136 M30.690 2.496 C 31.049 2.590,31.637 2.590,31.996 2.496 C 32.355 2.402,32.062 2.325,31.343 2.325 C 30.625 2.325,30.331 2.402,30.690 2.496 M369.687 2.503 C 370.151 2.592,370.823 2.589,371.180 2.495 C 371.536 2.402,371.157 2.329,370.336 2.333 C 369.515 2.337,369.223 2.413,369.687 2.503 M3.072 28.731 C 3.072 29.450,3.148 29.743,3.242 29.384 C 3.336 29.025,3.336 28.438,3.242 28.078 C 3.148 27.719,3.072 28.013,3.072 28.731 M396.728 28.731 C 396.728 29.450,396.805 29.743,396.899 29.384 C 396.993 29.025,396.993 28.438,396.899 28.078 C 396.805 27.719,396.728 28.013,396.728 28.731 M46.362 392.065 C 47.337 392.142,48.932 392.142,49.907 392.065 C 50.882 391.988,50.084 391.926,48.134 391.926 C 46.185 391.926,45.387 391.988,46.362 392.065 M354.764 392.061 C 355.435 392.145,356.442 392.143,357.003 392.058 C 357.564 391.973,357.015 391.905,355.784 391.907 C 354.552 391.909,354.093 391.978,354.764 392.061 M136.474 392.444 C 166.283 392.497,215.061 392.497,244.869 392.444 C 274.678 392.391,250.289 392.348,190.672 392.348 C 131.054 392.348,106.665 392.391,136.474 392.444 " stroke="none" fill="#bcbcbc" fill-rule="evenodd"></path>
<path id="path7" d="M61.851 2.130 C 62.316 2.219,62.987 2.215,63.344 2.122 C 63.701 2.029,63.321 1.956,62.500 1.960 C 61.679 1.964,61.387 2.040,61.851 2.130 M68.361 2.142 C 69.737 2.214,72.088 2.214,73.584 2.143 C 75.081 2.072,73.955 2.013,71.082 2.013 C 68.209 2.012,66.984 2.070,68.361 2.142 M334.813 2.144 C 336.619 2.212,339.473 2.212,341.156 2.143 C 342.839 2.074,341.362 2.018,337.873 2.018 C 334.384 2.019,333.007 2.075,334.813 2.144 M35.919 2.507 C 36.486 2.592,37.326 2.590,37.785 2.501 C 38.244 2.413,37.780 2.343,36.754 2.346 C 35.728 2.348,35.352 2.421,35.919 2.507 M364.086 2.509 C 364.753 2.592,365.844 2.592,366.511 2.509 C 367.178 2.426,366.632 2.358,365.299 2.358 C 363.965 2.358,363.419 2.426,364.086 2.509 M34.235 391.681 C 34.697 391.770,35.452 391.770,35.914 391.681 C 36.376 391.592,35.998 391.520,35.075 391.520 C 34.151 391.520,33.773 391.592,34.235 391.681 M365.765 391.675 C 366.124 391.769,366.712 391.769,367.071 391.675 C 367.430 391.581,367.136 391.504,366.418 391.504 C 365.700 391.504,365.406 391.581,365.765 391.675 M62.034 392.058 C 62.598 392.144,63.521 392.144,64.086 392.058 C 64.650 391.973,64.188 391.903,63.060 391.903 C 61.931 391.903,61.469 391.973,62.034 392.058 M69.683 392.067 C 70.965 392.140,73.064 392.140,74.347 392.067 C 75.630 391.994,74.580 391.935,72.015 391.935 C 69.450 391.935,68.400 391.994,69.683 392.067 M339.104 392.069 C 340.806 392.138,343.493 392.138,345.074 392.068 C 346.654 391.998,345.261 391.942,341.978 391.942 C 338.694 391.943,337.401 392.000,339.104 392.069 " stroke="none" fill="#747474" fill-rule="evenodd"></path>
<path id="path8" d="M100.840 1.750 C 101.199 1.844,101.786 1.844,102.146 1.750 C 102.505 1.656,102.211 1.579,101.493 1.579 C 100.774 1.579,100.480 1.656,100.840 1.750 M289.090 1.756 C 289.554 1.846,290.226 1.842,290.583 1.749 C 290.939 1.656,290.560 1.582,289.739 1.587 C 288.918 1.591,288.626 1.667,289.090 1.756 M3.079 26.306 C 3.083 27.127,3.160 27.419,3.249 26.955 C 3.338 26.490,3.335 25.819,3.241 25.462 C 3.148 25.105,3.075 25.485,3.079 26.306 M299.347 392.421 C 299.706 392.515,300.294 392.515,300.653 392.421 C 301.012 392.328,300.718 392.251,300.000 392.251 C 299.282 392.251,298.988 392.328,299.347 392.421 " stroke="none" fill="#cdcdcd" fill-rule="evenodd"></path></g></svg>