<svg version="1.1" viewBox="0 0 403.52 108.65" xml:space="preserve" xmlns="http://www.w3.org/2000/svg">
<g transform="matrix(1.3333 0 0 -1.3333 0 108.65)">
<g transform="scale(.1)">
<g fill="#185d81">
<path d="m32.762 120.8v0.476c0 44.672 32.379 85.575 81.789 85.575 26.949 0 43.972-8.039 60.515-21.75l-8.035-9.223c-13 11.352-28.129 19.855-53.183 19.855-40.196 0-68.325-34.035-68.325-73.992v-0.465c0-42.792 26.711-74.707 70.922-74.707 21.035 0 40.66 8.75 52.719 18.914v47.52h-55.316v11.344h67.136v-63.828c-14.902-13.234-38.066-24.816-65.015-24.816-52.246 0-83.207 38.531-83.207 85.098"/>
<path d="m325.14 98.336v0.4766c0 29.078-21.75 52.242-49.649 52.242-28.605 0-49.172-23.403-49.172-51.77v-0.4727c0-29.082 21.746-52.246 49.649-52.246 28.601 0 49.172 23.402 49.172 51.77zm-111.34 0v0.4766c0 33.804 26.234 63.122 62.172 63.122 35.695 0 61.695-28.84 61.695-62.649v-0.4727c0-33.805-26.238-63.113-62.172-63.113-35.699 0-61.695 28.84-61.695 62.637"/>
<path d="m475.68 98.336v0.4766c0 29.078-21.746 52.242-49.645 52.242-28.605 0-49.172-23.403-49.172-51.77v-0.4727c0-29.082 21.746-52.246 49.645-52.246 28.605 0 49.172 23.402 49.172 51.77zm-111.34 0v0.4766c0 33.804 26.238 63.122 62.172 63.122 35.699 0 61.699-28.84 61.699-62.649v-0.4727c0-33.805-26.238-63.113-62.172-63.113-35.699 0-61.699 28.84-61.699 62.637"/>
<path d="m624.34 98.574v0.4766c0 30.969-24.117 51.765-49.172 51.765-26.238 0-47.281-19.14-47.281-51.531v-0.4727c0-31.676 21.984-52.008 47.281-52.008 25.055 0 49.172 21.043 49.172 51.77zm-108.98-0.2383v0.4766c0 39.242 29.543 63.122 58.625 63.122 24.106 0 39.711-13.711 49.637-28.84v78.004h11.586v-172.57h-11.586v26.949c-10.402-15.84-25.77-29.781-49.637-29.781-29.082 0-58.625 23.402-58.625 62.637"/>
<path d="m751.22 204.01h12.297v-154.13h97.156v-11.348h-109.45v165.48"/>
<path d="m895.86 159.09h11.582v-120.56h-11.582zm-1.418 47.281h14.418v-15.836h-14.418v15.836"/>
<path d="m959.44 148.46h-17.5v10.629h17.5v11.82c0 13.715 3.774 24.59 10.629 31.445 6.153 6.145 14.664 9.454 25.297 9.454 7.333 0 12.533-0.95 17.973-2.832v-10.879c-6.86 2.129-11.82 3.07-17.973 3.07-16.547 0-24.344-9.926-24.344-30.496v-11.582h42.077v-10.629h-42.077v-109.93h-11.582v109.93"/>
<path d="m1126.6 104.49c-1.66 24.344-15.6 46.805-43.26 46.805-23.88 0-42.31-20.094-44.44-46.805zm-99.99-5.9138v0.4766c0 34.984 24.58 62.883 57.21 62.883 33.8 0 55.31-27.426 55.31-63.122 0-2.1328 0-2.8359-0.24-4.7266h-99.99c2.13-30.023 23.64-47.52 47.28-47.52 18.67 0 31.44 8.2734 41.37 18.914l8.04-7.0938c-12.3-13.238-26.72-22.688-49.88-22.688-31.68 0-59.1 25.293-59.1 62.875"/>
<path d="m1167.2 58.625h15.6v-20.094h-15.6v20.094"/>
<path d="m1288.9 120.8v0.476c0 44.672 32.38 85.575 81.79 85.575 26.95 0 43.97-8.039 60.52-21.75l-8.04-9.223c-13 11.352-28.13 19.855-53.18 19.855-40.2 0-68.33-34.035-68.33-73.992v-0.465c0-42.792 26.71-74.707 70.92-74.707 21.04 0 40.66 8.75 52.72 18.914v47.52h-55.31v11.344h67.13v-63.828c-14.9-13.234-38.06-24.816-65.01-24.816-52.25 0-83.21 38.531-83.21 85.098"/>
<path d="m1478.2 159.09h11.58v-34.27c9.45 21.508 29.54 37.114 53.42 36.164v-12.761h-1.18c-27.89 0-52.24-21.043-52.24-60.282v-49.41h-11.58v120.56"/>
<path d="m1657.8 104.49c-1.65 24.344-15.6 46.805-43.26 46.805-23.88 0-42.31-20.094-44.44-46.805zm-99.99-5.9138v0.4766c0 34.984 24.58 62.883 57.21 62.883 33.8 0 55.31-27.426 55.31-63.122 0-2.1328 0-2.8359-0.23-4.7266h-100c2.13-30.023 23.64-47.52 47.28-47.52 18.67 0 31.44 8.2734 41.37 18.914l8.04-7.0938c-12.3-13.238-26.72-22.688-49.88-22.688-31.68 0-59.1 25.293-59.1 62.875"/>
<path d="m1786.4 83.684v13.711c-10.17 2.5977-23.64 5.4375-40.9 5.4375-25.53 0-39.71-11.352-39.71-28.137v-0.4648c0-17.496 16.54-27.664 34.98-27.664 24.58 0 45.63 15.129 45.63 37.117zm-92.91-10.168v0.4766c0 25.059 21.51 39.242 52.71 39.242 16.79 0 28.38-2.129 39.96-5.199v5.199c0 24.348-14.89 36.879-39.72 36.879-14.65 0-26.71-4.023-37.82-9.699l-4.26 10.168c13.24 6.148 26.25 10.402 42.79 10.402 16.31 0 29.31-4.492 38.06-13.238 8.04-8.035 12.3-19.152 12.3-34.043v-75.172h-11.35v20.094c-8.27-11.582-23.17-22.926-46.1-22.926-22.46 0-46.57 12.762-46.57 37.816"/>
<path d="m1843.6 69.504v78.957h-17.48v10.629h17.48v38.531h11.59v-38.531h42.31v-10.629h-42.31v-77.777c0-17.258 10.16-23.402 24.11-23.402 5.91 0 10.87 1.1796 17.73 4.25v-10.871c-6.15-2.8399-12.05-4.2579-19.62-4.2579-18.68 0-33.81 10.164-33.81 33.102"/>
<path d="m1959.6 67.137 10.16 6.3789c10.17-17.258 21.28-26.234 40.67-26.234 20.32 0 35.92 15.367 35.92 44.199v112.53h12.3v-111.58c0-19.152-5.92-33.805-15.13-43.02-8.75-8.75-20.57-13.246-33.81-13.246-24.58 0-39.95 12.77-50.11 30.973"/>
<path d="m2205 98.336v0.4766c0 29.078-21.75 52.242-49.65 52.242-28.6 0-49.17-23.403-49.17-51.77v-0.4727c0-29.082 21.75-52.246 49.65-52.246 28.6 0 49.17 23.402 49.17 51.77zm-111.34 0v0.4766c0 33.804 26.23 63.122 62.17 63.122 35.7 0 61.7-28.84 61.7-62.649v-0.4727c0-33.805-26.24-63.113-62.18-63.113-35.69 0-61.69 28.84-61.69 62.637"/>
<path d="m2250.1 85.336v73.754h11.58v-71.625c0-24.816 13.95-41.137 38.3-41.137 23.64 0 41.85 17.973 41.85 43.031v69.731h11.58v-120.56h-11.58v22.461c-8.04-14.188-21.51-25.293-43.5-25.293-30.5 0-48.23 20.797-48.23 49.637"/>
<path d="m2396.6 159.09h11.58v-34.27c9.46 21.508 29.55 37.114 53.43 36.164v-12.761h-1.18c-27.89 0-52.25-21.043-52.25-60.282v-49.41h-11.58v120.56"/>
<path d="m2490.4 159.09h11.59v-22.449c8.03 14.175 21.51 25.293 43.49 25.293 30.5 0 48.22-20.805 48.22-49.649v-73.754h-11.58v71.625c0 24.828-13.94 41.137-38.29 41.137-23.64 0-41.84-17.965-41.84-43.02v-69.742h-11.59v120.56"/>
<path d="m2726.3 104.49c-1.66 24.344-15.6 46.805-43.26 46.805-23.88 0-42.32-20.094-44.44-46.805zm-99.99-5.9138v0.4766c0 34.984 24.58 62.883 57.2 62.883 33.81 0 55.32-27.426 55.32-63.122 0-2.1328 0-2.8359-0.24-4.7266h-99.99c2.12-30.023 23.63-47.52 47.27-47.52 18.68 0 31.45 8.2734 41.38 18.914l8.03-7.0938c-12.29-13.238-26.71-22.688-49.87-22.688-31.68 0-59.1 25.293-59.1 62.875"/>
<path d="m2860.3 159.09h12.76l-52.24-124.81c-10.63-25.297-22.93-34.281-40.19-34.281-9.21 0-15.83 1.6562-23.87 5.2031l4.02 10.164c6.38-3.0703 11.58-4.4961 20.57-4.4961 12.52 0 20.79 7.3281 29.78 28.375l-57.91 119.84h13.46l50.13-107.8 43.49 107.8"/>
<path d="m2881.6 58.625h15.61v-20.094h-15.61v20.094"/>
</g>
<path d="m3025.3 526.28c-157.97 88.621-525.53 124.91-1035.1 102.14-549.95-24.559-1237.5-114.93-1988.4-261.39-1.1719-0.226-1.9258-1.34-1.7383-2.508 0.19141-1.058 1.1133-1.793 2.1523-1.793 0.11328 0 0.20703 0 0.32031 0.02 227.91 34.492 921.45 139.46 1577.9 196.89 742.28 64.933 1227.8 52.39 1443-37.247 1.04-0.453 2.28 0.02 2.79 1.055 0.49 1.02 0.12 2.281-0.9 2.828" fill="#fbc42b"/>
<g fill="#185d81">
<path d="m1569.3 599.23 67.18 158.16 61.76-147.28c13.75 1.082 27.41 2.106 41.03 3.117l-84.81 199.11h-35.03l-92.47-217.08c14.15 1.343 28.31 2.695 42.34 3.968"/>
<path d="m1509 553.22-40.62-95.363h40.81l42.13 99.195c-14.1-1.262-28.2-2.527-42.32-3.832"/>
<path d="m1714.7 570.77 47.35-112.91h43.37l-49.42 116.03c-13.73-1.028-27.38-2.035-41.3-3.117"/>
<path d="m2624.5 620.51 58.14 136.88 63.47-151.36c15.6-2.32 30.85-4.746 45.52-7.34l-91 213.65h-35.03l-80.28-188.47c13.29-1.047 26.35-2.168 39.18-3.363"/>
<path d="m2573.6 596.32-58.98-138.46h40.81l57.95 136.42c-13.03 0.75-26.28 1.437-39.78 2.046"/>
<path d="m2756.1 582.29 52.18-124.44h43.38l-50.58 118.73c-14.54 2.031-29.54 3.93-44.98 5.703"/>
<path d="m1848.3 509.14 24.65 29.16c36.7-33.18 71.89-49.782 120.67-49.782 47.27 0 78.44 25.145 78.44 59.836v1.012c0 32.684-17.59 51.285-91.51 66.875-80.96 17.602-118.17 43.738-118.17 101.57v1.011c0 55.305 48.77 96.039 115.65 96.039 51.29 0 88-14.586 123.7-43.246l-23.13-30.672c-32.68 26.649-65.37 38.219-101.57 38.219-45.76 0-74.92-25.148-74.92-56.82v-1.008c0-33.191 18.1-51.793 95.54-68.387 78.43-17.097 114.63-45.758 114.63-99.554v-1.012c0-60.336-50.27-99.555-120.17-99.555-55.81 0-101.57 18.602-143.81 56.317"/>
<path d="m37.805 809.83h37.203l221.75-282.09v282.09h38.726v-351.98h-31.683l-227.28 288.63v-288.63h-38.715v351.98"/>
<path d="m915.28 652.95h-104.09v121.18h107.1c50.293 0 77.941-22.625 77.941-57.316v-1.012c0-41.227-33.183-62.852-80.953-62.852zm65.371-13.078c27.648 12.067 55.808 35.703 55.808 81.465v1.008c0 22.625-8.04 41.23-22.63 56.316-20.107 19.606-51.787 31.172-92.014 31.172h-149.84v-308.88c13.121 1.989 26.152 3.91 39.214 5.86v110.95h111.12c61.348 0 93.534-22.133 93.534-60.34v-1.012c0-32.961-23.659-54.703-62.78-60.871-0.058-0.043-0.293-0.285-0.32-0.289-1.355-0.164-2.656-0.363-4.012-0.527-0.215-0.028-0.422-0.063-0.64-0.086-60.356-7.313-119.07-16.246-176.12-23.606v-13.175h156.38c76.931 0 127.71 35.703 127.71 96.043v1c0 48.273-33.69 72.41-75.418 84.976"/>
<path d="m2352.6 634.46-17.08 21.504 150.84 153.87h-51.29l-202.14-210.19v210.19h-39.72v-351.98h39.72v94.531l74.93 75.933 5.67 6.164c13.96-0.152 25.48 0.227 39.07-0.023"/>
<path d="m2379.7 600.43c-16.93 0.043-37.84 0.113-49.67 0.031l113.16-142.61h49.78l-113.27 142.58"/>
<path d="m1365 539.22c-14.98-1.512-29.91-3.09-44.87-4.637l57.26-76.73h48.77l-61.16 81.367"/>
<path d="m1174.8 773.13h108.61c56.82 0 90-26.149 90-69.395v-1.004c0-45.257-37.71-72.406-90.51-72.406h-108.1zm118.57-202.64c14.88 1.707 29.65 3.356 44.41 4.996l-19.68 26.18c55.31 10.051 95.53 44.25 95.53 102.57v1.012c0 27.656-10.05 52.293-27.14 69.391-22.13 22.117-56.83 35.195-100.07 35.195h-151.35v-351.98h39.73v136.77h100.56l18.01-24.133"/>
<path d="m684.96 487.62v6.43h-217.22v123.2h192.08v36.199h-192.08v120.18h214.7v36.203h-254.43v-351.98h74.347c61.395 10.3 122.42 20.328 182.6 29.773"/>
</g>
</g>
</g>
</svg>
