<svg xmlns="http://www.w3.org/2000/svg" viewBox="0 0 7000 7000">
   <path d="M6839.76,2865.71c-55.78-294.36-148.79-575.69-275.38-838.08c-133.89-277.56-305.1-533.65-505.93-763.18  c-228.61-261.32-495.85-487.97-793.72-669.59C4749.97,281.01,4145.74,100,3500,100c-469.08,0-916.26,95.51-1323.17,268.06  c-322.64,136.8-619.34,322.72-882.13,547.26C564.34,1539.42,100,2466.24,100,3500s464.34,1960.58,1194.7,2584.66  c129.95,111.04,268.11,212.58,413.82,303.32C2229.12,6712.07,2842.91,6900,3500,6900c469.1,0,916.28-95.51,1323.19-268.08  c322.61-136.82,619.34-322.72,882.1-547.26C6435.66,5460.58,6900,4533.76,6900,3500C6900,3283.19,6878.74,3071.34,6839.76,2865.71z   M1294.7,5659.92C749.25,5103.12,412.56,4341.04,412.56,3500s336.7-1603.12,882.15-2159.94V5659.92z M4823.19,3520.87v2769.05  c-401.09,190.57-849.61,297.52-1323.19,297.52c-499.73,0-971.31-119.46-1388.92-330.26l2491.56-809.59v-927.5L2176.83,5308.3V710.06  c401.07-190.55,849.59-297.5,1323.17-297.5c487.39,0,948.16,113.32,1358.06,314.45l-2460.67,799.54v927.5l661.55-215v2550.74  l882.13-286.69V1952.44l1764.23-573.21l28.51-9.26c212.41,222.69,391.9,476.86,530.59,755.17l-2102.78,683.13v927.53  L4823.19,3520.87z M5705.3,5659.92V3234.26l834.66-271.16c30.6,174.47,47.49,353.67,47.49,536.9  C6587.44,4341.04,6250.75,5103.12,5705.3,5659.92z" fill="#FF4D01"/>
</svg>
