<svg xmlns="http://www.w3.org/2000/svg" viewBox="25.0000057220459 25.106597900390625 250.00003051757812 249.78677368164062">
  <path id="path32-7-0" d="M150.71494,274.89338A122.02611,122.02611,0,1,0,28.7,152.85607,122.02071,122.02071,0,0,0,150.71494,274.89338" fill="#fff"></path>
  <path id="path36-9-0" d="M131.95922,173.20013h44.91046l13.1194,8.50746H129.97789l-26.93285,83.25c-29.75372-11.541-57.291-38.27239-68.84327-68.31716-12.31344-29.11567-12.31344-65.69776.26867-94.93657,11.79851-30.056,40.13059-57.2015,70.28731-68.35074,23.73134-9.82836,55.4888-10.86939,80.653-3.13432,28.8806,8.27239,56.14924,28.97013,72,55.99253,17.73138,29.63059,22.71271,67.28731,11.93287,101.10447a122.04632,122.04632,0,0,1-40.14185,59.306l-33.14553-55.23134L242.198,217.1255c.25741,0,.39182-.291.25741-.5597l-60.43653-52.17537,78.1679,11.92164c.2687,0,.38062-.12313.38062-.25746l-.51482-.39178-73.70152-25.847,76.58956-18.49254c.25741,0,.25741-.24627.12312-.38059l-78.571,5.11566L246.01519,89.48c.1343-.25746-.40291-.3806-.52612-.11194l-69.11188,35.03732,38.14925-67.30969c0-.10044,0-.38063-.23506-.24633l-49.847,58.5,9.57089-76.8582c0-.1455-.27982-.2799-.53732-.1455l-22.92543,74.6306L130.4816,36.1069c-.13428-.12311-.40294-.25751-.54848,0L135.463,115.842,88.12341,54.23c-.14545-.1455-.26866,0-.403.12312l35.8097,68.18281L55.83986,85.55089c-.12311,0-.39177.1455-.39177.2687l60.20146,49.43279-76.847-8.11567c-.26867.14552-.26867.3806,0,.50373L113.31,149.43522,39.20551,171.2076a.34526.34526,0,0,0,0,.50373l76.444-8.91045L55.58237,213.82327c-.13428,0-.25749.25746,0,.403l.806-.25747,48.10075-25.18656,11.29477-17.96642h12.83957l-8.89926-6.29105,29.75374-47.76493-17.55224,56.40672.03348.03357" fill="#2e761e"></path>
</svg>
