<svg id="brex" data-name="brex" xmlns="http://www.w3.org/2000/svg" viewBox="Infinity Infinity -Infinity -Infinity"><defs><style>.brex{fill:#fff;}</style></defs><path class="brex" d="M116.84,0A24.12,24.12,0,0,0,97.6,9.66h0c-5.87,7.85-7.29,10.47-13,10.47H0V120.78H33.21a24.82,24.82,0,0,0,19.44-9.67c6.07-8,6.88-10.46,12.75-10.46h84.85V0Zm7.08,74.68H88.49a23.75,23.75,0,0,0-19.44,9.46c-6.08,8-7.29,10.47-13,10.47h-30V46.3H61.56A24.51,24.51,0,0,0,81,36.64c6.07-7.85,7.69-10.27,13.16-10.27h29.76Z"></path></svg>
