<svg xmlns="http://www.w3.org/2000/svg" xmlns:xlink="http://www.w3.org/1999/xlink" version="1.1" id="brex" x="0px" y="0px" viewBox="0 18 200 164" style="enable-background:new 0 0 200 200;" xml:space="preserve">
<style type="text/css">
	.brex{fill:#444444;}
</style>
<path class="brex" d="M155.5,19.6c-10.1,0-19.6,4.8-25.6,12.9l0,0c-7.9,10.5-9.7,14-17.3,14H0v134h44.2c10.1-0.1,19.7-4.8,25.8-12.9  c8.1-10.7,9.2-14,17-14H200v-134H155.5z M165,119h-47.1c-10.1-0.3-19.8,4.4-26,12.5c-8.1,10.7-9.7,14-17.3,14H34.6V81.2h47.3  c10.1,0,19.7-4.8,25.8-12.9c8.1-10.5,10.3-13.7,17.6-13.7H165V119z"/>
</svg>
