<svg version="1.1" viewBox="0 0 1024 1024" overflow="visible" enable-background="new 0 0 1024 1024" xml:space="preserve">
    <path id="Background" fill="#3C8DBC" d="M1024,864c0,88.364-71.635,160-160,160H160C71.635,1024,0,952.364,0,864V160
        C0,71.636,71.635,0,160,0h704c88.365,0,160,71.636,160,160V864z"/>
    <path id="Shield" fill="#FFFFFF" d="M741.416,549.845v-327.11H512.449v581.13c40.542-21.465,76.831-44.807,108.864-70.021
        C701.383,671.145,741.416,609.813,741.416,549.845z M839.549,157.313v392.531c0,29.3-5.7,58.348-17.118,87.145
        c-11.413,28.793-25.558,54.35-42.421,76.667c-16.866,22.312-36.967,44.036-60.313,65.167
        c-23.332,21.123-44.896,38.672-64.654,52.646c-19.763,13.968-40.376,27.167-61.845,39.609
        c-21.462,12.438-36.713,20.868-45.738,25.296c-9.035,4.427-16.272,7.84-21.727,10.227c-4.087,2.041-8.52,3.066-13.284,3.066
        c-4.771,0-9.199-1.025-13.292-3.066c-5.453-2.387-12.693-5.8-21.724-10.227c-9.026-4.428-24.276-12.857-45.745-25.296
        c-21.465-12.442-42.081-25.642-61.842-39.609c-19.762-13.974-41.321-31.522-64.655-52.646
        c-23.342-21.131-43.444-42.855-60.314-65.167c-16.865-22.317-31.007-47.874-42.42-76.667
        c-11.417-28.797-17.123-57.845-17.123-87.145V157.313c0-8.86,3.239-16.527,9.71-23c6.478-6.475,14.144-9.715,23-9.715h588.8
    c8.857,0,16.527,3.24,23,9.715C836.318,140.786,839.549,148.453,839.549,157.313z"/>
</svg>