<svg xmlns="http://www.w3.org/2000/svg" viewBox="0 0 76.89 96">
  <defs>
    <linearGradient id="a" x1="9.374%" x2="89.156%" y1=".799%" y2="92.122%">
      <stop offset="0%" stop-color="#01bbef"/>
      <stop offset="100%" stop-color="#0074bc"/>
    </linearGradient>
  </defs>
  <path fill="#f48250" d="M33.308 3.386a3.847 3.847 0 0 1 1.892.284c-4.13 5.676-4.875 16.326-5 20.368h2.85c.157-5.271 1.191-14.365 4.452-18.703 3.783 3.973 6.255 12.669 7.024 18.703h2.882c-.775-6.551-3.43-15.96-7.769-20.62a4.484 4.484 0 0 1 2.062-.523c1.33 0 2.567.63 3.784 1.954 4.193 4.597 6.047 15.236 6.45 19.19h2.858c-.347-4.415-2.22-14.504-6.275-20.016C46.544 1.337 44.255-.013 41.708 0a7.215 7.215 0 0 0-4.383 1.488 6.88 6.88 0 0 0-4.282-.983c-7.567.775-9.648 12.662-9.925 23.533h2.863c.296-12.719 2.932-20.204 7.327-20.652Z"/>
  <path fill="url(#a)" d="M73.692 23.912a.706.706 0 0 0-.745-.63l-7.598-1.098a.8.8 0 0 0-.215 0c-2.95 0-13.658-.037-30.376-.037-16.717 0-27.512.208-30.432.27a.839.839 0 0 0-.851.751c-.17 2.895-.84 14.245-1.779 31.694C.706 73.313.14 83.378 0 86.045a.776.776 0 0 0 .687.776l30.269 4.61 29.897 4.558a.959.959 0 0 0 .674-.15l14.775-9.535c.383-.251.606-.685.587-1.142l-3.197-61.25Z"/>
  <path fill="#fff" d="M35.68 42.742c-.997-.315-1.621.63-1.621 2.005v29.6l-7.99-2.522V36.512a97.572 97.572 0 0 1 11.004 3.014c6.76 2.327 9.055 5.221 9.055 11.71 0 6.356-3.916 8.765-8.891 6.356V45.77c0-1.375-.253-2.661-1.558-3.027Zm17.416 18.571a25.533 25.533 0 0 0-11.073-1.312c-2.023.21-4.018.634-5.953 1.262l-.492.157v4.812l8.564-3.02a8.69 8.69 0 0 1 4.792-.247c1.18.385.952 1.116-.498 1.652L35.597 69.19v4.622L53.04 67.55s2.346-.877 3.317-2.075c.972-1.198.511-2.964-3.26-4.162ZM8.671 64.025c-1.76 1.311-1.116 3.588 2.75 4.666A25.653 25.653 0 0 0 23.722 69.7l.8-.126v-4.162l-3.96 1.425a8.418 8.418 0 0 1-4.78.252c-1.172-.384-.951-1.122.505-1.646l8.236-2.95V57.85l-11.452 4.08a18.817 18.817 0 0 0-4.401 2.094Z"/>
</svg>
