<svg xmlns:dc="http://purl.org/dc/elements/1.1/" xmlns:cc="http://creativecommons.org/ns#" xmlns:rdf="http://www.w3.org/1999/02/22-rdf-syntax-ns#" xmlns:svg="http://www.w3.org/2000/svg" xmlns="http://www.w3.org/2000/svg" xmlns:sodipodi="http://sodipodi.sourceforge.net/DTD/sodipodi-0.dtd" xmlns:inkscape="http://www.inkscape.org/namespaces/inkscape" version="1.1" id="svg2" xml:space="preserve" viewBox="-0.00028322660364210606 -0.00002560787834227085 691.6555786132812 800.7642211914062" sodipodi:docname="WEDOS-RGB.svg" inkscape:version="0.92.3 (2405546, 2018-03-11)"><metadata id="metadata8"><rdf:rdf><cc:work rdf:about=""><dc:format>image/svg+xml</dc:format><dc:type rdf:resource="http://purl.org/dc/dcmitype/StillImage"></dc:type><dc:title></dc:title></cc:work></rdf:rdf></metadata><defs id="defs6"><clipPath clipPathUnits="userSpaceOnUse" id="clipPath18"><path d="M 0,14400 H 14400 V 0 H 0 Z" id="path16" inkscape:connector-curvature="0"></path></clipPath></defs><sodipodi:namedview pagecolor="#ffffff" bordercolor="#666666" borderopacity="1" objecttolerance="10" gridtolerance="10" guidetolerance="10" inkscape:pageopacity="0" inkscape:pageshadow="2" inkscape:window-width="1920" inkscape:window-height="1017" id="namedview4" showgrid="false" inkscape:zoom="0.22124998" inkscape:cx="2118.2461" inkscape:cy="-92.939145" inkscape:window-x="-8" inkscape:window-y="-8" inkscape:window-maximized="1" inkscape:current-layer="g10"></sodipodi:namedview><g id="g10" inkscape:groupmode="layer" inkscape:label="WEDOS-RGB" transform="matrix(1.3333333,0,0,-1.3333333,-7482.4206,10493.037)"><g id="g12" transform="translate(-1328.8137,369.49156)"><g id="g14" clip-path="url(#clipPath18)"><g id="g20" transform="translate(7390.6855,7293.2065)"><path d="m 0,0 c -4.615,44.771 -25.019,85.056 -55.6,115.293 -34.921,34.564 -83.121,55.987 -136.198,55.99 h -0.008 -0.038 c -53.073,-0.003 -101.273,-21.426 -136.212,-55.985 -34.921,-34.558 -56.613,-82.247 -56.613,-134.757 v -0.014 -0.03 c 0,-52.511 21.692,-100.178 56.613,-134.747 34.939,-34.583 83.139,-55.998 136.223,-55.998 h 0.027 c 47.785,0 91.627,17.334 125.37,45.973 10.093,0.721 22.227,16.254 64.472,18.361 l -0.018,-0.027 -0.055,-0.07 c -5.782,-8.455 -12.107,-16.502 -18.935,-24.065 -6.746,-7.484 -14.091,-14.607 -22.004,-21.314 -40.096,-34.049 -92.13,-54.651 -148.83,-54.651 h -0.027 c -63.073,0 -120.326,25.444 -161.803,66.475 -41.509,41.045 -67.228,97.684 -67.235,160.063 v 0.03 0.014 c 0.007,62.399 25.726,119.038 67.25,160.065 41.47,41.028 98.715,66.467 161.777,66.474 h 0.038 0.008 c 63.06,-0.003 120.325,-25.446 161.781,-66.474 31.77,-31.415 53.268,-71.916 61.758,-117.27 3.056,-20.183 -6.324,-56.495 -46.444,-81.795 -22.949,-12.729 -35.814,-17.163 -52.055,-17.163 -12.856,0 -20.134,2.766 -34.123,12.734 -13.982,-11.628 -21.836,-18.265 -35.818,-30.445 -29.664,-26.016 -47.005,-36.637 -61.54,-36.637 -10.086,0 -21.277,7.744 -26.881,18.92 -3.358,6.08 -4.479,12.73 -4.479,23.803 0,5.539 1.121,19.375 2.247,31.003 L -268.2,-96.107 c -20.15,-18.268 -32.466,-25.478 -45.342,-25.478 -13.424,0 -31.896,10.535 -41.981,24.378 -8.391,10.511 -11.184,19.921 -13.437,39.301 v 7.193 c 0,3.325 0.573,9.416 1.127,16.61 3.919,23.257 11.756,39.314 26.307,56.478 40.295,46.503 68.28,68.651 86.755,68.651 7.265,0 19.014,-2.768 25.74,-5.534 5.046,-2.773 7.276,-6.098 7.276,-11.075 0,-19.936 -25.751,-48.167 -95.139,-104.638 l -2.247,-8.856 c -3.911,-12.189 -4.464,-16.057 -4.464,-21.042 0,-6.095 3.337,-11.069 7.838,-11.069 2.225,0 5.585,1.657 9.496,4.422 l 15.124,9.966 c 24.059,14.946 82.27,69.758 109.121,102.425 18.463,22.701 26.861,30.452 33.019,30.452 2.232,0 9.505,-2.214 14.556,-3.873 7.257,-2.776 10.623,-5.541 10.623,-9.966 0,-2.216 -3.366,-7.757 -13.443,-24.917 -27.966,-45.397 -49.219,-89.692 -49.219,-102.421 0,-6.651 4.464,-12.186 10.05,-12.186 8.391,0 18.46,8.311 53.165,42.08 -1.108,4.985 -1.666,9.409 -1.666,12.179 0,27.686 52.032,93.008 73.861,93.008 10.083,0 17.927,-11.071 17.927,-26.571 0,-22.145 -4.499,-31.555 -37.518,-77.513 7.838,-8.299 15.328,-13.504 24.628,-11.628 C -21.633,-40.79 -0.218,-14.917 0,0" style="fill:#224099;fill-opacity:1;fill-rule:nonzero;stroke:none" id="path22" inkscape:connector-curvature="0"></path></g><g id="g24" transform="translate(7034.4473,7009.3672)"><path d="m 0,0 v -67.912 c 0,-7.43 -1.949,-10.514 -6.793,-10.514 -2.271,0 -4.201,0.979 -5.335,2.746 -1.14,1.457 -1.308,2.59 -1.308,7.285 V 0 h -33.328 v -68.395 c 0,-3.556 -0.176,-5.019 -0.965,-6.298 -1.301,-2.276 -3.575,-3.733 -5.982,-3.733 -4.703,0 -6.807,3.084 -6.807,10.031 V 0 h -33.3 v -71.787 c 0,-11.326 2.427,-19.082 8.243,-25.557 7.108,-8.076 17.293,-12.31 29.907,-12.31 11.164,0 19.413,3.42 25.065,10.216 6.955,-7.107 15.062,-10.216 26.556,-10.216 11.325,0 21.673,4.066 28.128,11.021 6.637,7.276 9.212,15.358 9.212,28.944 V 0 Z m 118.039,-79.24 h -12.295 c -12.614,0 -20.37,4.375 -22.469,12.627 h 34.764 v 25.211 H 83.275 c 2.246,8.256 11.159,12.791 25.044,12.791 h 9.72 V 0 H 98.479 C 84.239,0 72.599,-4.52 63.066,-13.584 51.903,-24.092 45.597,-38.811 45.597,-54.162 c 0,-12.77 4.365,-24.568 12.776,-34.928 10.832,-13.105 23.12,-18.443 43.014,-18.443 h 16.652 z m 48.022,-28.293 v 77.455 h 2.42 c 12.76,0 20.841,-9.379 20.841,-24.084 0,-5.654 -1.295,-10.84 -3.54,-14.875 -2.605,-4.539 -8.257,-8.25 -12.441,-8.25 h -1.934 v -30.246 h 4.829 c 26.197,0 47.527,23.785 47.527,53.047 0,15.527 -5.975,30.068 -16.486,40.416 C 197.579,-4.52 184.634,0 166.861,0 H 132.757 V -107.533 Z M 287.639,2.105 c -31.857,0 -56.91,-24.74 -56.91,-56.119 0,-30.718 25.215,-55.64 56.438,-55.64 30.713,0 55.937,25.084 55.937,55.8 0,30.573 -25.224,55.959 -55.465,55.959 m -0.963,-32.835 c 12.287,0 21.982,-10.026 21.982,-22.948 0,-12.613 -9.695,-23.123 -21.491,-23.123 -12.14,0 -22.017,10.51 -22.017,23.285 0,12.608 9.707,22.786 21.526,22.786 m 65.312,-76.803 h 34.28 c 23.6,0 38.656,11.652 38.656,29.926 0,10.337 -4.378,17.791 -15.844,26.994 l -13.112,10.359 c -4.212,3.236 -5.492,4.68 -5.492,6.461 0,2.752 2.266,3.715 9.862,3.715 h 19.736 V 0 h -31.21 c -22.806,0 -36.876,-11.156 -36.876,-29.1 0,-9.556 3.73,-16.017 14.72,-25.062 l 13.731,-11.318 c 5.997,-4.844 5.997,-5.02 5.997,-6.793 0,-2.42 -1.942,-4.366 -5.018,-4.864 -1.463,-0.31 -2.431,-0.31 -6.131,-0.31 h -23.299" style="fill:#224099;fill-opacity:1;fill-rule:nonzero;stroke:none" id="path26" inkscape:connector-curvature="0"></path></g></g></g></g></svg>