<svg viewBox="0 0 334 341" version="1.1" xmlns="http://www.w3.org/2000/svg" xmlns:xlink="http://www.w3.org/1999/xlink" xml:space="preserve" style="fill-rule:evenodd;clip-rule:evenodd;stroke-linejoin:round;stroke-miterlimit:2;">
    <g transform="matrix(1,0,0,1,-0.02,-0.02)">
        <g transform="matrix(1,0,0,1,-140.07,-224.89)">
            <path d="M140.09,319.04L140.09,232.59C140.09,225.91 140.94,224.95 147.47,224.94C175.45,224.9 203.44,224.9 231.42,224.94C238.33,224.95 239.03,225.74 239.03,232.86C239.03,288 238.9,343.13 239.09,398.27C239.18,425.17 251,445.96 274.61,458.76C298.2,471.55 321.93,469.91 344.68,455.59C346.07,454.72 347.34,453.18 349.12,454.16C350.7,455.03 350.11,456.84 350.12,458.24C350.15,490.06 350.11,521.87 350.18,553.69C350.19,558.48 348.2,560.88 343.45,561.91C251.36,581.8 162.93,524.51 143.53,432.23C141.343,421.795 140.244,411.162 140.25,400.5C140.24,373.35 140.25,346.2 140.25,319.05C140.19,319.04 140.14,319.04 140.09,319.04Z" style="fill:rgb(37,44,54);fill-rule:nonzero;"/>
        </g>
        <g transform="matrix(1,0,0,1,-140.07,-224.89)">
            <path d="M374.86,471.15C374.86,447.67 374.87,424.19 374.86,400.71C374.84,368.78 354.97,342.29 324.31,333.81C305.34,328.56 287.46,331.8 270.71,341.89C268.93,342.96 267.18,345.13 264.93,343.68C262.99,342.43 263.96,339.99 263.96,338.09C263.91,307.28 263.92,276.48 263.93,245.67C263.93,238.94 264.57,237.88 271.19,236.58C322.16,226.58 368.74,236.41 409.87,268.54C442.49,294.03 462.77,327.53 470.42,368.19C476.62,401.15 473.51,433.45 460.13,464.43C444.31,501.08 418.55,528.61 383.29,547.29C382.7,547.6 382.11,547.9 381.51,548.19C375.34,551.2 374.87,550.92 374.87,544.08C374.86,519.77 374.86,495.46 374.86,471.15Z" style="fill:rgb(37,44,54);fill-rule:nonzero;"/>
        </g>
    </g>
</svg>