<?xml version="1.0" encoding="utf-8"?>
<!-- Generator: Adobe Illustrator 22.0.1, SVG Export Plug-In . SVG Version: 6.00 Build 0)  -->
<svg version="1.1" id="Layer_1" xmlns="http://www.w3.org/2000/svg" xmlns:xlink="http://www.w3.org/1999/xlink" x="0px" y="0px"
	 viewBox="0 0 473.8 473.9" style="enable-background:new 0 0 473.8 473.9;" xml:space="preserve">
<style type="text/css">
	.st0{fill:#FFFFFF;}
	.st1{fill:#C4D201;}
	.st2{fill:#050605;}
</style>
<g>
	<path class="st0" d="M155.5,153.6h165.1v146.2H155.5V153.6z"/>
	<path class="st1" d="M220.8,473.7c-51-4.6-92.1-20.5-130.9-50.6c-9.7-7.5-30.2-27.9-38.3-38.1C23.9,350.2,6.7,309,1.3,264.5
		c-1.7-14-1.7-41.7,0-55.1C8,155.5,31,108,68.7,70.1C81.3,57.4,90.1,50,103.5,40.9c32.8-22.3,67.5-35.1,108.4-40
		c9.9-1.2,43.2-1.2,52.6,0c58.1,7.3,111,34.6,148.6,76.8c33.4,37.4,52.4,79.1,59.4,129.9c1.6,11.6,1.8,44,0.4,55.5
		c-4.8,38.8-17,72.7-37.5,103.9c-38.7,58.8-99.4,96.6-169.5,105.5C257.4,473.5,227.9,474.4,220.8,473.7L220.8,473.7z M263.3,294.8
		c0.2-0.6,0.4-20.1,0.4-43.3v-42.2l25.9-0.2l26-0.2l0.2-25.2l0.2-25.2l-78.2,0.2l-78.2,0.2l-0.2,24.4c-0.2,19.8,0,24.6,0.8,25.2
		c0.7,0.6,9,0.9,26.7,1l25.7,0.2l0.2,42.2c0.1,23.2,0.3,42.6,0.5,43.1c0.3,0.7,5.9,0.9,25,0.9C260.1,296,262.9,295.8,263.3,294.8
		L263.3,294.8z"/>
	<path class="st2" d="M162.9,345.2c-5.9-1.9-11.5-7.3-15-14.5c-1.3-2.7-10.7-31.9-20.9-64.8s-19.6-62.9-20.8-66.7
		c-1.8-5.5-2.2-7.9-2.2-12.9c0-6.2,1.7-12.7,4.3-17.1c0.7-1.1,30.1-39.7,65.3-85.6L237.7,0l12.2,0.4c24.7,0.9,49.8,6.2,74.4,16
		c54.5,21.6,98.5,62,125,114.9c4.8,9.7,10.6,23.6,10.6,25.6c0,1.4-125.1,171-131.4,178.1c-4.9,5.5-8.7,8.2-14.5,10.2
		c-4.3,1.5-5.5,1.5-75.5,1.4C169.2,346.7,167.4,346.7,162.9,345.2L162.9,345.2z M262.6,296.2c1-0.4,1.1-4.9,1.1-43.3
		c0-23.6,0.1-42.9,0.2-43s11.9-0.3,26.3-0.5l26.1-0.4v-50.8H159.6l-0.2,25.6l-0.2,25.6l26.3,0.2l26.3,0.2l0.2,42.6
		c0.2,39,0.3,42.7,1.4,43.5c0.9,0.7,7,0.9,24.6,0.9C251,296.7,262,296.5,262.6,296.2L262.6,296.2z"/>
</g>
</svg>
