<svg viewBox="0 0 148 32" fill="none" xmlns="http://www.w3.org/2000/svg">
  <path d="M16.0936 0C7.23193 0 0 7.18987 0 16C0 24.8101 7.23193 32 16.0936 32C25.0571 32 32.1872 24.8101 32.1872 16C32.1872 7.18987 25.0571 0 16.0936 0ZM16.0936 24.6076C11.3063 24.6076 7.43565 20.7595 7.43565 16C7.43565 11.2405 11.3063 7.39241 16.0936 7.39241C20.8809 7.39241 24.7515 11.2405 24.7515 16C24.7515 20.7595 20.8809 24.6076 16.0936 24.6076ZM90.3482 0C77.8197 0 67.7357 7.18987 67.7357 16C67.7357 24.8101 77.8197 32 90.3482 32C102.877 32 112.961 24.8101 112.961 16C112.961 7.18987 102.775 0 90.3482 0ZM90.3482 24.6076C81.6903 24.6076 75.2732 20.0506 75.2732 16.1013C75.2732 12.1519 81.6903 7.59494 90.3482 7.59494C99.0062 7.59494 105.423 12.1519 105.423 16.1013C105.423 20.0506 98.9043 24.6076 90.3482 24.6076ZM144.231 0.708861C142.194 0.708861 140.462 2.43038 140.462 4.4557V17.0127L120.091 0.911392C119.378 0.303797 118.359 0.810127 118.359 1.72152V27.5443C118.359 29.5696 120.091 31.2911 122.128 31.2911C124.165 31.2911 125.897 29.5696 125.897 27.5443V15.0886L146.268 31.1899C146.981 31.7975 148 31.2911 148 30.3797V4.4557C148 2.43038 146.268 0.708861 144.231 0.708861ZM61.8279 23.8987H48.9938L65.2911 2.43038C65.8004 1.72152 65.2911 0.708861 64.4763 0.708861H40.8451C38.808 0.708861 37.0764 2.43038 37.0764 4.4557C37.0764 6.48101 38.808 8.20253 40.8451 8.20253H51.5403L35.1411 29.6709C34.6318 30.3797 35.1411 31.3924 36.0578 31.3924H61.8279C63.8651 31.3924 65.5967 29.6709 65.5967 27.6456C65.5967 25.6203 63.8651 23.8987 61.8279 23.8987Z" fill="#005BFF"/>
</svg>
