<?xml version="1.0" encoding="UTF-8" standalone="no"?>
<!-- Generator: Adobe Illustrator 20.1.0, SVG Export Plug-In . SVG Version: 6.00 Build 0)  -->

<svg
   xmlns:dc="http://purl.org/dc/elements/1.1/"
   xmlns:cc="http://creativecommons.org/ns#"
   xmlns:rdf="http://www.w3.org/1999/02/22-rdf-syntax-ns#"
   xmlns:svg="http://www.w3.org/2000/svg"
   xmlns="http://www.w3.org/2000/svg"
   xmlns:sodipodi="http://sodipodi.sourceforge.net/DTD/sodipodi-0.dtd"
   xmlns:inkscape="http://www.inkscape.org/namespaces/inkscape"
   version="1.1"
   id="VNC_Automotive_Logo"
   x="0px"
   y="0px"
   viewBox="0 0 255.8 41"
   xml:space="preserve"
   inkscape:version="0.48.4 r9939"
   width="100%"
   height="100%"
   sodipodi:docname="RealVNC Coloured Logo (300x43).svg"><metadata
     id="metadata25"><rdf:RDF><cc:Work
         rdf:about=""><dc:format>image/svg+xml</dc:format><dc:type
           rdf:resource="http://purl.org/dc/dcmitype/StillImage" /></cc:Work></rdf:RDF></metadata><defs
     id="defs23" /><sodipodi:namedview
     pagecolor="#ffffff"
     bordercolor="#666666"
     borderopacity="1"
     objecttolerance="10"
     gridtolerance="10"
     guidetolerance="10"
     inkscape:pageopacity="0"
     inkscape:pageshadow="2"
     inkscape:window-width="640"
     inkscape:window-height="480"
     id="namedview21"
     showgrid="false"
     fit-margin-top="0"
     fit-margin-left="0"
     fit-margin-right="0"
     fit-margin-bottom="0"
     inkscape:zoom="0.97333333"
     inkscape:cx="128"
     inkscape:cy="20.5"
     inkscape:window-x="75"
     inkscape:window-y="34"
     inkscape:window-maximized="0"
     inkscape:current-layer="VNC_Automotive_Logo" /><style
     type="text/css"
     id="style3">
	.st0{fill:#94A1B5;}
	.st1{fill:#288CF4;}
</style><g
     id="g5"
     transform="translate(-22,-1)"><path
       class="st0"
       d="M 207.3,2.1 H 200 l -12.1,31.8 -12,-31.8 h -7.3 l 13.1,34.7 h 0 c 1,2.4 3.4,4.1 6.2,4.1 3.1,0 5.6,-2.1 6.4,-4.9 l 13,-33.9 z"
       id="path7"
       inkscape:connector-curvature="0"
       style="fill:#fff" /><path
       class="st0"
       d="m 277.8,33.6 h -13.7 v 0 c -6.7,0 -12.1,-5.4 -12.1,-12.1 0,-6.7 5.4,-12.1 12.1,-12.1 v 0 h 13.7 V 2.1 h -13.7 v 0 c -10.7,0 -19.4,8.7 -19.4,19.4 0,10.7 8.7,19.4 19.4,19.4 l 0,0 v 0 h 13.7 v -7.3 z"
       id="path9"
       inkscape:connector-curvature="0"
       style="fill:#fff" /><path
       class="st0"
       d="M 223.4,2.1 C 213.8,2.1 206,9.9 206,19.5 h 0 v 0 0 21.3 h 7.3 V 19.6 h 0 c 0,0 0,-0.1 0,-0.1 0,-5.6 4.6,-10.2 10.2,-10.2 5.6,0 10.2,4.5 10.2,10.2 0,0 0,0.1 0,0.1 h 0 V 41 H 241 V 19.5 h 0 C 240.8,9.9 233,2.1 223.4,2.1 z"
       id="path11"
       inkscape:connector-curvature="0"
       style="fill:#fff" /></g><path
     class="st1"
     d="M 33.1,16.1 C 33.1,7.8 26.3,1.1 18.1,1 V 1 L 0,1 v 38.8 h 7.3 v -8.7 h 8.9 l 6.9,8.7 9.4,0 -8,-10.1 c 5.1,-2.4 8.6,-7.6 8.6,-13.6 z m -15,7.8 0,0 -10.8,0 V 8.3 h 10.8 v 0 c 4.3,0 7.8,3.4 7.8,7.7 0,4.3 -3.6,7.9 -7.8,7.9 z"
     id="path13"
     inkscape:connector-curvature="0"
     style="fill:#fff" /><path
     class="st1"
     d="m 148,32.6 h -8.7 v 0 c -6.7,0 -12.1,-5.3 -12.1,-12 0,0 0,-0.1 0,-0.1 h 0 V 1 h -7.3 v 19.4 h 0 c 0,10.7 8.7,19.4 19.4,19.4 h 0 v 0 h 8.7 c 0,0 0,-7.2 0,-7.2 z"
     id="path15"
     inkscape:connector-curvature="0"
     style="fill:#fff" /><path
     class="st1"
     d="M 98.6,1 C 89,1 81.2,8.8 81.2,18.4 h 0 v 0 0 21.3 h 7.3 v -7.4 h 20.4 v 7.4 h 7.3 V 18.5 h 0 C 116.1,8.8 108.3,1 98.6,1 z M 88.4,25.2 v -6.7 h 0 c 0,0 0,-0.1 0,-0.1 0,-5.6 4.6,-10.2 10.2,-10.2 5.6,0 10.2,4.5 10.2,10.2 0,0 0,0.1 0,0.1 h 0 v 6.7 H 88.4 z"
     id="path17"
     inkscape:connector-curvature="0"
     style="fill:#fff" /><path
     class="st1"
     d="M 77.4,16 C 75.3,6.8 67.1,0 57.4,0 46.1,0 36.9,9.2 36.9,20.5 36.9,31.8 46.1,41 57.4,41 66.8,41 74.7,34.7 77.1,26.1 h -7.7 c -2.1,4.5 -6.7,7.6 -12,7.6 -5.1,0 -9.5,-2.9 -11.7,-7.1 L 77.4,16 l 0,0 z m -20,-8.9 c 4,0 7.5,1.7 9.9,4.5 L 44.1,19.4 C 44.7,12.5 50.4,7.1 57.4,7.1 z"
     id="path19"
     inkscape:connector-curvature="0"
     style="fill:#fff" /></svg>
