<svg width="424" height="141" viewBox="0 0 424 141" xmlns="http://www.w3.org/2000/svg" xmlns:xlink="http://www.w3.org/1999/xlink" version="1.1" baseProfile="full"><path d="M 74.781100 1.564200 L 78.336000 1.834500 L 81.839200 2.279700 L 85.286400 2.895300 L 88.673000 3.676900 L 91.994800 4.620200 L 95.247300 5.720700 L 98.426100 6.974100 L 101.526800 8.375900 L 103.470800 9.371600 L 103.106500 9.351900 L 101.770700 9.334100 L 100.988000 9.340000 L 99.436600 9.387100 L 97.903900 9.481400 L 96.389900 9.622800 L 94.894700 9.811300 L 93.418200 10.046900 L 91.960400 10.329700 L 90.521300 10.659600 L 89.101000 11.036700 L 87.699300 11.460800 L 86.316400 11.932100 L 84.952300 12.450600 L 83.606800 13.016100 L 82.280100 13.628800 L 80.972100 14.288600 L 79.682800 14.995600 L 79.045100 15.366700 L 78.414100 15.748100 L 77.177100 16.537000 L 75.973600 17.360800 L 74.803800 18.219500 L 73.667500 19.113000 L 72.564800 20.041400 L 71.495700 21.004700 L 70.460100 22.002800 L 69.458100 23.035800 L 68.489700 24.103600 L 67.554900 25.206300 L 66.653600 26.343900 L 65.785900 27.516300 L 64.951700 28.723600 L 64.151200 29.965800 L 63.384200 31.242800 L 63.013300 31.894400 L 62.652300 32.552700 L 61.964700 33.883300 L 61.323000 35.232600 L 60.727100 36.600700 L 60.177000 37.987400 L 59.672800 39.392900 L 59.214400 40.817200 L 58.801900 42.260100 L 58.435200 43.721800 L 58.114300 45.202200 L 57.839300 46.701300 L 57.610100 48.219100 L 57.426700 49.755700 L 57.289200 51.311000 L 57.197500 52.885000 L 57.151700 54.477700 L 57.146000 55.281100 L 57.151900 56.084500 L 57.199000 57.677900 L 57.293200 59.253200 L 57.434600 60.810400 L 57.623200 62.349600 L 57.858800 63.870600 L 58.141600 65.373600 L 58.471500 66.858500 L 58.848500 68.325300 L 59.272700 69.774100 L 59.744000 71.204800 L 60.262400 72.617400 L 60.828000 74.011900 L 61.440700 75.388400 L 62.100500 76.746700 L 62.807400 78.087000 L 63.178600 78.750400 L 63.560000 79.407000 L 64.348900 80.693800 L 65.172700 81.945000 L 66.031400 83.160600 L 66.924900 84.340800 L 67.853300 85.485500 L 68.816500 86.594700 L 69.814700 87.668300 L 70.847600 88.706500 L 71.915500 89.709100 L 73.018200 90.676200 L 74.155800 91.607800 L 75.328200 92.503900 L 76.535500 93.364500 L 77.777700 94.189600 L 79.054700 94.979200 L 79.706300 95.360700 L 80.364500 95.731800 L 81.695100 96.438800 L 83.044500 97.098600 L 84.412500 97.711300 L 85.799300 98.276900 L 87.204800 98.795300 L 88.629000 99.266600 L 90.072000 99.690700 L 91.533600 100.067800 L 93.014000 100.397700 L 94.513100 100.680500 L 96.031000 100.916100 L 97.567500 101.104600 L 99.122800 101.246000 L 100.696800 101.340300 L 102.289500 101.387400 L 103.092900 101.393300 L 103.896300 101.387400 L 105.489000 101.340300 L 107.063000 101.246000 L 108.618300 101.104600 L 110.154900 100.916100 L 111.672700 100.680500 L 113.171800 100.397700 L 114.652200 100.067800 L 116.113900 99.690700 L 117.556800 99.266600 L 118.981100 98.795300 L 120.386600 98.276900 L 121.773300 97.711300 L 123.141400 97.098600 L 124.490700 96.438800 L 125.821300 95.731800 L 126.479600 95.360700 L 127.131200 94.979200 L 128.408200 94.189600 L 129.650400 93.364500 L 130.857700 92.503900 L 132.030100 91.607800 L 133.167700 90.676200 L 134.270400 89.709100 L 135.338200 88.706500 L 136.371200 87.668300 L 137.369300 86.594700 L 138.332600 85.485500 L 139.261000 84.340800 L 140.154500 83.160600 L 140.200600 83.095300 L 139.756800 85.580600 L 138.975100 88.967200 L 138.031900 92.289000 L 136.931400 95.541500 L 135.678000 98.720300 L 134.276200 101.821000 L 132.730300 104.839300 L 131.044800 107.770700 L 129.224000 110.610800 L 127.272400 113.355300 L 125.194300 115.999600 L 122.994200 118.539600 L 120.676400 120.970600 L 118.245400 123.288400 L 115.705400 125.488500 L 113.061000 127.566600 L 110.316600 129.518200 L 107.476500 131.339000 L 104.545100 133.024500 L 101.526800 134.570400 L 98.426100 135.972200 L 95.247300 137.225600 L 91.994800 138.326100 L 88.673000 139.269400 L 85.286400 140.051000 L 81.839200 140.666600 L 78.336000 141.111700 L 74.781100 141.382100 L 71.178900 141.473100 L 67.576700 141.382100 L 64.021800 141.111700 L 60.518600 140.666600 L 57.071500 140.051000 L 53.684800 139.269400 L 50.363100 138.326100 L 47.110600 137.225600 L 43.931800 135.972200 L 40.831000 134.570400 L 37.812800 133.024500 L 34.881400 131.339000 L 32.041300 129.518200 L 29.296800 127.566600 L 26.652400 125.488500 L 24.112500 123.288400 L 21.681500 120.970600 L 19.363700 118.539600 L 17.163500 115.999600 L 15.085500 113.355300 L 13.133800 110.610800 L 11.313100 107.770700 L 9.627600 104.839300 L 8.081700 101.821000 L 6.679900 98.720300 L 5.426500 95.541500 L 4.326000 92.289000 L 3.382700 88.967200 L 2.601100 85.580600 L 1.985500 82.133500 L 1.540300 78.630200 L 1.270000 75.075300 L 1.178900 71.473100 L 1.270000 67.870900 L 1.540300 64.316000 L 1.985500 60.812800 L 2.601100 57.365700 L 3.382700 53.979000 L 4.326000 50.657300 L 5.426500 47.404800 L 6.679900 44.226000 L 8.081700 41.125200 L 9.627600 38.107000 L 11.313100 35.175600 L 13.133800 32.335500 L 15.085500 29.591000 L 17.163500 26.946600 L 19.363700 24.406700 L 21.681500 21.975700 L 24.112500 19.657900 L 26.652400 17.457700 L 29.296800 15.379700 L 32.041300 13.428000 L 34.881400 11.607300 L 37.812800 9.921800 L 40.831000 8.375900 L 43.931800 6.974100 L 47.110600 5.720700 L 50.363100 4.620200 L 53.684800 3.676900 L 57.071500 2.895300 L 60.518600 2.279700 L 64.021800 1.834500 L 67.576700 1.564200 L 71.178900 1.473100 Z M 104.263400 20.920900 L 106.561800 21.060400 L 108.803400 21.339300 L 110.988100 21.757600 L 113.116100 22.315400 L 115.187200 23.012700 L 117.201500 23.849400 L 119.159000 24.825600 L 120.116400 25.366000 L 121.054200 25.937000 L 122.854200 27.158500 L 124.553400 28.485900 L 126.152000 29.919100 L 127.649800 31.458300 L 129.046900 33.103300 L 130.343300 34.854200 L 131.538900 36.711000 L 132.099000 37.679100 L 132.629400 38.667800 L 133.587500 40.689900 L 134.408700 42.771400 L 135.093000 44.912200 L 135.640500 47.112500 L 136.051100 49.372100 L 136.324900 51.691100 L 136.461700 54.069600 L 136.478900 55.281100 L 136.461700 56.492600 L 136.324900 58.871000 L 136.051100 61.190000 L 135.640500 63.449700 L 135.093000 65.649900 L 134.408700 67.790800 L 133.587500 69.872200 L 132.629400 71.894300 L 132.099000 72.883100 L 131.538900 73.851500 L 130.343300 75.710800 L 129.046900 77.466900 L 127.649800 79.119700 L 126.152000 80.669100 L 124.553400 82.115300 L 122.854200 83.458200 L 121.054200 84.697800 L 120.116400 85.278800 L 119.159000 85.829200 L 117.201500 86.823400 L 115.187200 87.675700 L 113.116100 88.385800 L 110.988100 88.954000 L 108.803400 89.380100 L 106.561800 89.664100 L 104.263400 89.806200 L 103.092900 89.823900 L 101.922100 89.806200 L 99.621100 89.664100 L 97.374400 89.380100 L 95.181900 88.954000 L 93.043600 88.385800 L 90.959600 87.675700 L 88.929800 86.823400 L 86.954200 85.829200 L 85.986800 85.278800 L 85.039000 84.697800 L 83.221000 83.458200 L 81.506200 82.115300 L 79.894800 80.669100 L 78.386600 79.119700 L 76.981800 77.466900 L 75.680200 75.710800 L 74.482000 73.851500 L 73.921600 72.883100 L 73.391200 71.894300 L 72.433100 69.872200 L 71.611900 67.790800 L 70.927500 65.649900 L 70.380100 63.449700 L 69.969400 61.190000 L 69.695700 58.871000 L 69.558800 56.492600 L 69.541700 55.281100 L 69.558800 54.069600 L 69.695700 51.691100 L 69.969400 49.372100 L 70.380100 47.112500 L 70.927500 44.912200 L 71.611900 42.771400 L 72.433100 40.689900 L 73.391200 38.667800 L 73.921600 37.679100 L 74.482000 36.711000 L 75.680200 34.854200 L 76.981800 33.103300 L 78.386600 31.458300 L 79.894800 29.919100 L 81.506200 28.485900 L 83.221000 27.158500 L 85.039000 25.937000 L 85.986800 25.366000 L 86.954200 24.825600 L 88.929800 23.849400 L 90.959600 23.012700 L 93.043600 22.315400 L 95.181900 21.757600 L 97.374400 21.339300 L 99.621100 21.060400 L 101.922100 20.920900 L 103.092900 20.903500 Z" transform="scale(1.000000,1.000000) translate(-1.000000,-1.000000)" fill="#0f44fd" opacity="0.900000"/></svg>
