<svg viewBox="0 0 200 226" version="1.1" xmlns="http://www.w3.org/2000/svg"><title>keepsolid-vpn</title><g id="VPN" stroke="none" stroke-width="1" fill="none" fill-rule="evenodd"><g id="keepsolid-vpn"><g id="vpn_logo" transform="translate(36)" fill-rule="nonzero"><path d="M62.5,152 C62.5,152 125,128.101677 125,80.0010323 L125,15.2784516 C109.58,15.2784516 62.5,0 62.5,0 C62.5,0 15.4,15.2784516 0,15.2784516 L0,80.0010323 C0,127.729032 62.5,152 62.5,152 Z" id="Shape" fill="#0AF"/><g id="b-link" transform="translate(25 29.42)" fill="#FFF"><path d="M64.41,67.032 C73.415,66.6152258 80.42,55.068129 79.98,40.9860645 C79.58,28.0954839 72.96,17.4211613 64.94,15.5677419 L64.94,15.5530323 C64.905,15.5432258 64.87,15.548129 64.84,15.5432258 L64.7,15.504 L64.7,15.5236129 C59.295,14.4988387 54.39,17.6123871 51.685,21.9860645 C45.165,32.528 48.545,51.2190968 40.68,61.4619355 C37.11,66.1101935 32.185,68.3166452 27.305,67.3605161 C19.255,65.3747097 12.84,54.7445161 12.44,41.844129 C11.99,27.4580645 19.37,15.7050323 28.625,15.5873548 L28.615,15.5383226 C37.785,15.4451613 45.575,26.9628387 46.015,41.2704516 C46.035,41.8588387 46.04,42.4472258 46.035,43.0209032 C46.99,35.9112258 47.64,28.6544516 50.47,23.2020645 C45.745,9.37006452 36.355,-0.107870968 25.815,-3.48391021e-14 C11.005,0.186322581 -0.685,18.9852903 0.03,42.0010323 C0.68,62.8054194 11.12,79.8980645 24.04,82.8596129 L24.04,82.8792258 C24.11,82.8988387 24.185,82.9037419 24.26,82.9184516 L24.38,82.9527742 L24.38,82.9380645 C32.97,84.6247742 38.89,80.9179355 42.61,76.4167742 C57.9,57.9512258 51.265,40.5643871 56.895,30.2529032 C58.715,26.9187097 61.81,24.3445161 65.78,25.1339355 C70.75,26.340129 74.965,33.028129 75.215,41.0449032 C75.495,49.9687742 70.955,57.2500645 65.215,57.3236129 L65.19,57.5344516 C59.915,57.3775484 55.38,51.3416774 54.48,43.5602581 C54.05,48.4732903 53.71,53.9747097 52.08,59.8340645 C55.28,64.4381935 59.775,67.2771613 64.385,67.2232258 L64.41,67.032 Z" id="b"/></g></g><g id="Group" transform="translate(0 176)" fill="#0AF"><path d="M10.6131493,49.5303327 L7.4203356,49.5303327 L0,28.5714286 L3.01543518,28.5714286 L9.04630555,46.741683 L9.10543173,46.741683 L15.1954283,28.5714286 L18.1221742,28.5714286 L10.6131493,49.5303327 Z M23.9165399,38.6105675 L29.4152746,38.6105675 C31.0116895,38.6301371 32.1794198,38.307244 32.9185008,37.6418787 C33.6575817,36.9765133 34.0271167,36.0176188 34.0271167,34.7651663 C34.0271167,33.5127139 33.6575817,32.5587117 32.9185008,31.9031311 C32.1794198,31.2475505 31.0116895,30.9197652 29.4152746,30.9197652 L23.9165399,30.9197652 L23.9165399,38.6105675 Z M21.1080463,28.5714286 L30.3612935,28.5714286 C32.4898466,28.5714286 34.1010189,29.114476 35.1948587,30.2005871 C36.2886985,31.2866982 36.8356102,32.8082094 36.8356102,34.7651663 C36.8356102,36.7221233 36.2886985,38.2485268 35.1948587,39.3444227 C34.1010189,40.4403186 32.4898466,40.9784737 30.3612935,40.9589041 L23.9165399,40.9589041 L23.9165399,49.5303327 L21.1080463,49.5303327 L21.1080463,28.5714286 Z M40.9744429,28.5714286 L43.9603149,28.5714286 L55.0760368,45.5675147 L55.135163,45.5675147 L55.135163,28.5714286 L57.7958411,28.5714286 L57.7958411,49.5303327 L54.7212797,49.5303327 L43.6942471,32.7103718 L43.635121,32.7103718 L43.635121,49.5303327 L40.9744429,49.5303327 L40.9744429,28.5714286 Z M88.8962119,41.9569472 C88.8962119,44.6379782 88.1768505,46.6487213 86.7381063,47.9892368 C85.299362,49.3297523 83.249675,50 80.5889836,50 C77.8691657,50 75.7455716,49.3591062 74.2181377,48.0772994 C72.6907037,46.7954926 71.9269982,44.7553956 71.9269982,41.9569472 L71.9269982,28.5714286 L74.7354917,28.5714286 L74.7354917,41.9569472 C74.7354917,43.8356258 75.2380592,45.2592907 76.2432093,46.2279843 C77.2483594,47.196678 78.6969363,47.6810176 80.5889836,47.6810176 C82.3824867,47.6810176 83.7473023,47.196678 84.6834715,46.2279843 C85.6196407,45.2592907 86.0877183,43.8356258 86.0877183,41.9569472 L86.0877183,28.5714286 L88.8962119,28.5714286 L88.8962119,41.9569472 Z M93.7149956,34.3542074 L96.0800428,34.3542074 L96.0800428,36.7612524 L96.1391689,36.7612524 C97.1837367,34.9217129 98.8392532,34.0019569 101.105768,34.0019569 C102.110918,34.0019569 102.948531,34.1389419 103.618631,34.4129159 C104.288731,34.6868898 104.830715,35.0684907 105.244601,35.5577299 C105.658486,36.0469692 105.949187,36.6291551 106.116712,37.3043053 C106.284237,37.9794554 106.367998,38.7279802 106.367998,39.5499022 L106.367998,49.5303327 L103.855135,49.5303327 L103.855135,39.2563601 C103.855135,38.3170207 103.579216,37.5733883 103.027369,37.0254403 C102.475522,36.4774924 101.716743,36.2035225 100.751011,36.2035225 C99.9823668,36.2035225 99.3172039,36.3209382 98.7555024,36.555773 C98.1938009,36.7906078 97.7257233,37.1232855 97.3512556,37.553816 C96.976788,37.9843466 96.6959414,38.4882554 96.5087076,39.0655577 C96.3214737,39.64286 96.2278582,40.2739692 96.2278582,40.9589041 L96.2278582,49.5303327 L93.7149956,49.5303327 L93.7149956,34.3542074 Z M111.038966,28.5714286 L113.551829,28.5714286 L113.551829,49.5303327 L111.038966,49.5303327 L111.038966,28.5714286 Z M120.853912,31.6242661 L118.34105,31.6242661 L118.34105,28.5714286 L120.853912,28.5714286 L120.853912,31.6242661 Z M118.34105,34.3542074 L120.853912,34.3542074 L120.853912,49.5303327 L118.34105,49.5303327 L118.34105,34.3542074 Z M125.495317,34.3542074 L127.860365,34.3542074 L127.860365,36.5851272 L127.919491,36.5851272 C129.062603,34.8630051 130.708265,34.0019569 132.856527,34.0019569 C133.80255,34.0019569 134.659872,34.1976497 135.428516,34.5890411 C136.19716,34.9804325 136.739144,35.6457879 137.054486,36.5851272 C137.566915,35.7632053 138.241932,35.1272038 139.079557,34.6771037 C139.917182,34.2270036 140.838556,34.0019569 141.843706,34.0019569 C142.61235,34.0019569 143.307076,34.0851264 143.927904,34.2514677 C144.548732,34.4178091 145.080862,34.677102 145.524311,35.0293542 C145.96776,35.3816065 146.312659,35.8365921 146.559019,36.3943249 C146.805379,36.9520576 146.928558,37.6223053 146.928558,38.4050881 L146.928558,49.5303327 L144.415695,49.5303327 L144.415695,39.5792564 C144.415695,39.1095867 144.376278,38.669278 144.297443,38.258317 C144.218607,37.8473561 144.070793,37.4902168 143.853996,37.1868885 C143.637199,36.8835601 143.336644,36.6438365 142.952322,36.4677104 C142.568,36.2915842 142.07036,36.2035225 141.459386,36.2035225 C140.21773,36.2035225 139.242158,36.5557695 138.53264,37.260274 C137.823122,37.9647785 137.468369,38.9041037 137.468369,40.0782779 L137.468369,49.5303327 L134.955506,49.5303327 L134.955506,39.5792564 C134.955506,39.0900171 134.911162,38.6399238 134.822472,38.2289628 C134.733783,37.8180019 134.581042,37.4608626 134.364244,37.1575342 C134.147447,36.8542059 133.856747,36.6193746 133.492133,36.4530333 C133.12752,36.2866919 132.659442,36.2035225 132.087887,36.2035225 C131.35866,36.2035225 130.732914,36.3502921 130.21063,36.6438356 C129.688346,36.9373792 129.264613,37.2896261 128.939417,37.7005871 C128.614222,38.111548 128.377719,38.5371798 128.229903,38.9774951 C128.082087,39.4178104 128.00818,39.7847343 128.00818,40.0782779 L128.00818,49.5303327 L125.495317,49.5303327 L125.495317,34.3542074 Z M154.112389,31.6242661 L151.599526,31.6242661 L151.599526,28.5714286 L154.112389,28.5714286 L154.112389,31.6242661 Z M151.599526,34.3542074 L154.112389,34.3542074 L154.112389,49.5303327 L151.599526,49.5303327 L151.599526,34.3542074 Z M162.242238,34.3542074 L165.287237,34.3542074 L165.287237,36.555773 L162.242238,36.555773 L162.242238,45.9784736 C162.242238,46.2720171 162.266874,46.5068484 162.316146,46.6829746 C162.365418,46.8591007 162.459034,46.9960856 162.596996,47.0939335 C162.734957,47.1917813 162.927115,47.2553815 163.173476,47.2847358 C163.419836,47.3140902 163.7401,47.3287671 164.134276,47.3287671 L165.287237,47.3287671 L165.287237,49.5303327 L163.365636,49.5303327 C162.715245,49.5303327 162.158479,49.4863018 161.695321,49.3982387 C161.232164,49.3101757 160.857702,49.1487292 160.571924,48.9138943 C160.286146,48.6790595 160.074279,48.3463818 159.936317,47.9158513 C159.798356,47.4853207 159.729376,46.9178117 159.729376,46.2133072 L159.729376,36.555773 L157.127824,36.555773 L157.127824,34.3542074 L159.729376,34.3542074 L159.729376,29.8043053 L162.242238,29.8043053 L162.242238,34.3542074 Z M179.418394,40.4892368 C179.378976,39.9021497 179.245944,39.3444253 179.019292,38.816047 C178.792641,38.2876686 178.487158,37.8326829 178.102836,37.4510763 C177.718514,37.0694697 177.265218,36.7661459 176.742934,36.5410959 C176.22065,36.3160458 175.644176,36.2035225 175.013493,36.2035225 C174.363102,36.2035225 173.776773,36.3160458 173.254489,36.5410959 C172.732206,36.7661459 172.283837,37.074362 171.909369,37.4657534 C171.534901,37.8571448 171.239273,38.3121305 171.022476,38.8307241 C170.805679,39.3493177 170.677574,39.9021497 170.638156,40.4892368 L179.418394,40.4892368 Z M181.842567,44.7162427 C181.507517,46.4187952 180.768447,47.7005828 179.625335,48.5616438 C178.482224,49.4227049 177.043501,49.853229 175.309124,49.853229 C174.087177,49.853229 173.027844,49.6575362 172.131092,49.2661448 C171.234341,48.8747534 170.480489,48.3268137 169.869516,47.6223092 C169.258542,46.9178047 168.800319,46.0763258 168.494832,45.0978474 C168.189345,44.1193689 168.016896,43.0528433 167.977478,41.8982387 C167.977478,40.7436341 168.154855,39.6868932 168.509614,38.7279843 C168.864372,37.7690754 169.362013,36.9373812 170.00255,36.2328767 C170.643086,35.5283722 171.401865,34.9804325 172.278908,34.5890411 C173.15595,34.1976497 174.116741,34.0019569 175.161309,34.0019569 C176.521218,34.0019569 177.649531,34.2808191 178.546283,34.8385519 C179.443034,35.3962846 180.162395,36.1056708 180.704388,36.9667319 C181.246381,37.827793 181.620843,38.7671182 181.827786,39.7847358 C182.034728,40.8023534 182.11849,41.7710326 182.079072,42.6908023 L170.638156,42.6908023 C170.618447,43.3561677 170.697281,43.9872769 170.874661,44.5841487 C171.05204,45.1810206 171.337814,45.709391 171.73199,46.1692759 C172.126167,46.6291608 172.628734,46.9960847 173.239708,47.2700587 C173.850682,47.5440327 174.570043,47.6810176 175.397814,47.6810176 C176.46209,47.6810176 177.334193,47.4364017 178.014147,46.9471624 C178.694101,46.4579232 179.142471,45.7142907 179.359268,44.7162427 L181.842567,44.7162427 Z M187.252613,42.074364 C187.252613,42.7788685 187.346228,43.4686855 187.533462,44.1438356 C187.720696,44.8189858 188.00647,45.420741 188.390792,45.9491194 C188.775114,46.4774977 189.267827,46.8982372 189.868946,47.2113503 C190.470065,47.5244634 191.174645,47.6810176 191.982707,47.6810176 C192.830187,47.6810176 193.549548,47.5146788 194.140813,47.1819961 C194.732077,46.8493134 195.214936,46.413897 195.589404,45.8757339 C195.963872,45.3375707 196.234864,44.7260308 196.402389,44.0410959 C196.569914,43.356161 196.653675,42.6614517 196.653675,41.9569472 C196.653675,41.2133035 196.564987,40.4941326 196.387607,39.7994129 C196.210228,39.1046932 195.929381,38.4931533 195.545059,37.964775 C195.160737,37.4363966 194.663097,37.0107648 194.052123,36.6878669 C193.44115,36.364969 192.70208,36.2035225 191.834892,36.2035225 C190.987412,36.2035225 190.268051,36.3698614 189.676786,36.702544 C189.085521,37.0352267 188.612517,37.4755354 188.257758,38.0234834 C187.902999,38.5714313 187.646788,39.1976481 187.489117,39.9021526 C187.331447,40.6066571 187.252613,41.3307204 187.252613,42.074364 Z M199.077849,49.5303327 L196.564986,49.5303327 L196.564986,47.4755382 L196.50586,47.4755382 C196.091975,48.3170296 195.441593,48.9236772 194.554696,49.295499 C193.667799,49.6673208 192.692227,49.853229 191.62795,49.853229 C190.44542,49.853229 189.41565,49.6379669 188.538607,49.2074364 C187.661564,48.7769059 186.932349,48.1996122 186.350938,47.4755382 C185.769528,46.7514641 185.331013,45.9099852 185.035381,44.9510763 C184.739749,43.9921674 184.591935,42.9745651 184.591935,41.8982387 C184.591935,40.8219124 184.734821,39.8043101 185.020599,38.8454012 C185.306377,37.8864923 185.739965,37.0499057 186.321375,36.3356164 C186.902786,35.6213272 187.632001,35.0538182 188.509044,34.6330724 C189.386087,34.2123267 190.406003,34.0019569 191.568824,34.0019569 C191.963,34.0019569 192.386734,34.0410955 192.840037,34.1193738 C193.29334,34.1976521 193.746636,34.3297447 194.199939,34.5156556 C194.653242,34.7015665 195.081902,34.9461824 195.485933,35.2495108 C195.889964,35.5528391 196.229936,35.9295477 196.50586,36.3796477 L196.564986,36.3796477 L196.564986,28.5714286 L199.077849,28.5714286 L199.077849,49.5303327 Z" id="VPN-Unlimited"/><path d="M55.8558559,0.327124384 L57.6603712,0.327124384 L57.6603712,7.17749384 L64.5365245,0.327124384 L66.872897,0.327124384 L61.1554326,5.86899631 L67.1008358,14.0663485 L64.821448,14.0663485 L59.9207641,7.11976601 L57.6603712,9.25569581 L57.6603712,14.0663485 L55.8558559,14.0663485 L55.8558559,0.327124384 Z M75.5535656,8.13962438 C75.528239,7.75477024 75.4427628,7.38916429 75.2971345,7.04279557 C75.1515062,6.69642684 74.9552276,6.39816935 74.7082927,6.14801416 C74.4613577,5.89785897 74.1701055,5.69902065 73.8345273,5.55149323 C73.4989491,5.40396581 73.1285523,5.3302032 72.7233258,5.3302032 C72.3054359,5.3302032 71.9287075,5.40396581 71.5931293,5.55149323 C71.2575511,5.69902065 70.9694647,5.90106604 70.7288614,6.15763547 C70.4882581,6.4142049 70.2983111,6.71246238 70.1590144,7.05241687 C70.0197178,7.39237136 69.9374074,7.75477024 69.9120808,8.13962438 L75.5535656,8.13962438 Z M77.1111473,10.9105603 C76.8958707,12.0266374 76.421003,12.8668896 75.6865299,13.4313424 C74.9520568,13.9957951 74.0276477,14.2780172 72.9132747,14.2780172 C72.1281483,14.2780172 71.4475046,14.1497345 70.8713231,13.893165 C70.2951417,13.6365956 69.8107766,13.2774038 69.4182134,12.8155788 C69.0256502,12.3537538 68.7312322,11.8021379 68.5349506,11.1607143 C68.338669,10.5192907 68.2278666,9.82014952 68.2025399,9.0632697 C68.2025399,8.30638989 68.3165081,7.61366283 68.5444481,6.98506773 C68.772388,6.35647264 69.0921323,5.81127078 69.5036904,5.34944581 C69.9152486,4.88762084 70.4027795,4.52842903 70.9662976,4.27185961 C71.5298158,4.01529018 72.1471438,3.88700739 72.8183002,3.88700739 C73.6920699,3.88700739 74.4170347,4.06981036 74.9932161,4.4354218 C75.5693976,4.80103323 76.0316022,5.26605834 76.3798437,5.83051108 C76.7280853,6.39496382 76.9686849,7.01072121 77.1016499,7.67780172 C77.2346148,8.34488224 77.2884332,8.97988204 77.2631065,9.5828202 L69.9120808,9.5828202 C69.8994174,10.0189882 69.95007,10.4327002 70.06404,10.8239686 C70.1780099,11.215237 70.3616254,11.5616005 70.614892,11.8630696 C70.8681586,12.1645387 71.1910686,12.4050689 71.5836318,12.5846675 C71.976195,12.7642661 72.4383996,12.854064 72.9702594,12.854064 C73.6540792,12.854064 74.2144231,12.6937106 74.651308,12.3729988 C75.0881928,12.052287 75.3762792,11.5648124 75.5155758,10.9105603 L77.1111473,10.9105603 Z M86.2286986,8.13962438 C86.2033719,7.75477024 86.1178958,7.38916429 85.9722675,7.04279557 C85.8266392,6.69642684 85.6303605,6.39816935 85.3834256,6.14801416 C85.1364907,5.89785897 84.8452385,5.69902065 84.5096603,5.55149323 C84.1740821,5.40396581 83.8036852,5.3302032 83.3984587,5.3302032 C82.9805689,5.3302032 82.6038405,5.40396581 82.2682622,5.55149323 C81.932684,5.69902065 81.6445976,5.90106604 81.4039944,6.15763547 C81.1633911,6.4142049 80.973444,6.71246238 80.8341474,7.05241687 C80.6948508,7.39237136 80.6125404,7.75477024 80.5872137,8.13962438 L86.2286986,8.13962438 Z M87.7862803,10.9105603 C87.5710037,12.0266374 87.096136,12.8668896 86.3616629,13.4313424 C85.6271898,13.9957951 84.7027807,14.2780172 83.5884077,14.2780172 C82.8032813,14.2780172 82.1226376,14.1497345 81.5464561,13.893165 C80.9702746,13.6365956 80.4859096,13.2774038 80.0933464,12.8155788 C79.7007832,12.3537538 79.4063652,11.8021379 79.2100836,11.1607143 C79.013802,10.5192907 78.9029995,9.82014952 78.8776729,9.0632697 C78.8776729,8.30638989 78.9916411,7.61366283 79.219581,6.98506773 C79.447521,6.35647264 79.7672652,5.81127078 80.1788234,5.34944581 C80.5903816,4.88762084 81.0779125,4.52842903 81.6414306,4.27185961 C82.2049487,4.01529018 82.8222768,3.88700739 83.4934332,3.88700739 C84.3672029,3.88700739 85.0921676,4.06981036 85.6683491,4.4354218 C86.2445306,4.80103323 86.7067351,5.26605834 87.0549767,5.83051108 C87.4032182,6.39496382 87.6438179,7.01072121 87.7767828,7.67780172 C87.9097478,8.34488224 87.9635661,8.97988204 87.9382395,9.5828202 L80.5872137,9.5828202 C80.5745504,10.0189882 80.625203,10.4327002 80.7391729,10.8239686 C80.8531429,11.215237 81.0367584,11.5616005 81.290025,11.8630696 C81.5432916,12.1645387 81.8662016,12.4050689 82.2587648,12.5846675 C82.651328,12.7642661 83.1135326,12.854064 83.6453924,12.854064 C84.3292122,12.854064 84.8895561,12.6937106 85.3264409,12.3729988 C85.7633258,12.052287 86.0514122,11.5648124 86.1907088,10.9105603 L87.7862803,10.9105603 Z M90.1416477,4.11791872 L91.7562141,4.11791872 L91.7562141,5.46490148 L91.7942038,5.46490148 C92.0601338,4.91327721 92.4780173,4.51239349 93.0478672,4.2622383 C93.617717,4.01208311 94.2445423,3.88700739 94.9283621,3.88700739 C95.6881619,3.88700739 96.3498109,4.02811846 96.913329,4.31034483 C97.4768472,4.5925712 97.9453833,4.9742125 98.3189515,5.45528017 C98.6925197,5.93634785 98.9742746,6.49117091 99.1642245,7.11976601 C99.3541744,7.74836111 99.449148,8.41543161 99.449148,9.12099754 C99.449148,9.82656346 99.3573402,10.493634 99.1737219,11.1222291 C98.9901037,11.7508242 98.7115146,12.2992331 98.3379464,12.7674723 C97.9643782,13.2357115 97.4958421,13.6045245 96.9323239,13.8739224 C96.3688058,14.1433203 95.7134883,14.2780172 94.9663519,14.2780172 C94.7257487,14.2780172 94.456657,14.2523607 94.1590687,14.2010468 C93.8614805,14.1497329 93.5670625,14.0663491 93.2758059,13.9508929 C92.9845494,13.8354366 92.7091261,13.6782902 92.4495279,13.4794489 C92.1899296,13.2806076 91.9714905,13.0336632 91.7942038,12.7386084 L91.7562141,12.7386084 L91.7562141,17.8571429 L90.1416477,17.8571429 L90.1416477,4.11791872 Z M97.7396071,9.00554187 C97.7396071,8.5437169 97.6794572,8.09152007 97.5591556,7.64893781 C97.4388539,7.20635555 97.2552384,6.81188597 97.0083035,6.46551724 C96.7613686,6.11914851 96.4447901,5.84334052 96.0585586,5.63808498 C95.672327,5.43282943 95.2196198,5.3302032 94.7004233,5.3302032 C94.1559002,5.3302032 93.6936956,5.43924357 93.3137957,5.65732759 C92.9338959,5.8754116 92.623649,6.16084081 92.3830457,6.51362377 C92.1424425,6.86640673 91.9683243,7.26729045 91.860686,7.71628695 C91.7530477,8.16528344 91.6992294,8.62068735 91.6992294,9.08251232 C91.6992294,9.56999423 91.7562135,10.0414335 91.8701834,10.4968442 C91.9841534,10.9522549 92.1646031,11.3531387 92.4115381,11.6995074 C92.658473,12.0458761 92.9782172,12.3248912 93.3707804,12.536561 C93.7633436,12.7482307 94.2382113,12.854064 94.7953978,12.854064 C95.3525843,12.854064 95.8179547,12.7450237 96.1915229,12.5269397 C96.5650911,12.3088556 96.8658406,12.0202194 97.0937805,11.6610222 C97.3217205,11.301825 97.4863413,10.89132 97.5876479,10.4294951 C97.6889545,9.9676701 97.7396071,9.49302378 97.7396071,9.00554187 Z M109.934332,4.34883005 C109.833025,3.36103775 109.481623,2.6458612 108.880115,2.20327894 C108.278607,1.76069668 107.509321,1.53940887 106.572235,1.53940887 C106.192335,1.53940887 105.818772,1.5778937 105.451536,1.65486453 C105.084299,1.73183536 104.758224,1.86011815 104.473299,2.03971675 C104.188374,2.21931535 103.960437,2.45984558 103.789482,2.76131466 C103.618527,3.06278373 103.533051,3.43801089 103.533051,3.88700739 C103.533051,4.31034694 103.656517,4.65350341 103.903452,4.91648707 C104.150387,5.17947073 104.479628,5.3943444 104.891186,5.56111453 C105.302745,5.72788466 105.768115,5.86578866 106.287311,5.97483067 C106.806508,6.08387267 107.335194,6.20253425 107.873385,6.33081897 C108.411577,6.45910368 108.940263,6.60983596 109.459459,6.78302032 C109.978656,6.95620468 110.444026,7.19032077 110.855585,7.48537562 C111.267143,7.78043046 111.596384,8.15245055 111.843319,8.60144704 C112.090254,9.05044354 112.21372,9.61488782 112.21372,10.2947968 C112.21372,11.0260197 112.052265,11.6513983 111.72935,12.1709514 C111.406435,12.6905044 110.991717,13.1138377 110.485184,13.4409637 C109.978651,13.7680897 109.411975,14.0054129 108.785141,14.1529403 C108.158306,14.3004677 107.534646,14.3742303 106.914143,14.3742303 C106.154343,14.3742303 105.43571,14.2780182 104.758222,14.0855911 C104.080734,13.8931641 103.485566,13.6013207 102.972702,13.2100523 C102.459837,12.818784 102.054616,12.3184811 101.757028,11.7091287 C101.45944,11.0997763 101.310648,10.3781856 101.310648,9.54433498 L103.020189,9.54433498 C103.020189,10.1216162 103.130991,10.618712 103.3526,11.0356373 C103.574208,11.4525626 103.86546,11.7957191 104.226365,12.065117 C104.58727,12.3345149 105.008319,12.5333532 105.489526,12.6616379 C105.970732,12.7899226 106.464595,12.854064 106.971128,12.854064 C107.376354,12.854064 107.784741,12.8155792 108.196299,12.7386084 C108.607857,12.6616375 108.978254,12.5301477 109.3075,12.3441349 C109.636747,12.158122 109.902673,11.9047635 110.105286,11.5840517 C110.307899,11.2633399 110.409204,10.852835 110.409204,10.3525246 C110.409204,9.87787119 110.285739,9.49302282 110.038804,9.19796798 C109.791869,8.90291314 109.462627,8.66238291 109.051069,8.47637007 C108.639511,8.29035724 108.174141,8.13962496 107.654944,8.02416872 C107.135748,7.90871248 106.607062,7.7900509 106.06887,7.66818042 C105.530679,7.54630994 105.001993,7.40519887 104.482796,7.24484298 C103.9636,7.08448709 103.498229,6.87282049 103.086671,6.60983682 C102.675113,6.34685316 102.345871,6.00690377 102.098936,5.58997845 C101.852001,5.17305313 101.728536,4.65030076 101.728536,4.02170567 C101.728536,3.32896821 101.86783,2.72924617 102.146424,2.22252155 C102.425017,1.71579693 102.795414,1.29887787 103.257625,0.971751847 C103.719837,0.644625827 104.245357,0.400888528 104.834202,0.240532635 C105.423046,0.0801767434 106.027711,0 106.648214,0 C107.344698,0 107.990518,0.0833838131 108.585694,0.250153941 C109.180871,0.416924069 109.703225,0.679903787 110.152773,1.03910099 C110.602321,1.39829818 110.956889,1.85049502 111.216488,2.39570505 C111.476086,2.94091508 111.618546,3.59195024 111.643873,4.34883005 L109.934332,4.34883005 Z M115.784761,9.10175493 C115.784761,9.70469308 115.863905,10.2402737 116.022197,10.7085129 C116.180489,11.1767521 116.398928,11.5680146 116.677521,11.8823122 C116.956114,12.1966097 117.28219,12.43714 117.655758,12.6039101 C118.029326,12.7706802 118.425049,12.854064 118.842939,12.854064 C119.260829,12.854064 119.656552,12.7706802 120.030121,12.6039101 C120.403689,12.43714 120.729765,12.1966097 121.008358,11.8823122 C121.286951,11.5680146 121.50539,11.1767521 121.663682,10.7085129 C121.821973,10.2402737 121.901118,9.70469308 121.901118,9.10175493 C121.901118,8.49881677 121.821973,7.96323613 121.663682,7.49499692 C121.50539,7.02675772 121.286951,6.63228814 121.008358,6.31157635 C120.729765,5.99086457 120.403689,5.74712727 120.030121,5.58035714 C119.656552,5.41358702 119.260829,5.3302032 118.842939,5.3302032 C118.425049,5.3302032 118.029326,5.41358702 117.655758,5.58035714 C117.28219,5.74712727 116.956114,5.99086457 116.677521,6.31157635 C116.398928,6.63228814 116.180489,7.02675772 116.022197,7.49499692 C115.863905,7.96323613 115.784761,8.49881677 115.784761,9.10175493 Z M114.07522,9.10175493 C114.07522,8.37053206 114.176525,7.6874262 114.379138,7.05241687 C114.581751,6.41740754 114.885667,5.86579154 115.290893,5.39755234 C115.69612,4.92931314 116.196314,4.56050012 116.79149,4.29110222 C117.386667,4.02170432 118.070476,3.88700739 118.842939,3.88700739 C119.628066,3.88700739 120.315041,4.02170432 120.903886,4.29110222 C121.492731,4.56050012 121.989759,4.92931314 122.394985,5.39755234 C122.800212,5.86579154 123.104127,6.41740754 123.306741,7.05241687 C123.509354,7.6874262 123.610659,8.37053206 123.610659,9.10175493 C123.610659,9.83297779 123.509354,10.5128766 123.306741,11.1414717 C123.104127,11.7700668 122.800212,12.3184757 122.394985,12.7867149 C121.989759,13.2549541 121.492731,13.6205601 120.903886,13.8835437 C120.315041,14.1465274 119.628066,14.2780172 118.842939,14.2780172 C118.070476,14.2780172 117.386667,14.1465274 116.79149,13.8835437 C116.196314,13.6205601 115.69612,13.2549541 115.290893,12.7867149 C114.885667,12.3184757 114.581751,11.7700668 114.379138,11.1414717 C114.176525,10.5128766 114.07522,9.83297779 114.07522,9.10175493 Z M126.079996,0.327124384 L127.694562,0.327124384 L127.694562,14.0663485 L126.079996,14.0663485 L126.079996,0.327124384 Z M132.386302,2.32835591 L130.771736,2.32835591 L130.771736,0.327124384 L132.386302,0.327124384 L132.386302,2.32835591 Z M130.771736,4.11791872 L132.386302,4.11791872 L132.386302,14.0663485 L130.771736,14.0663485 L130.771736,4.11791872 Z M136.546185,9.17872537 C136.546185,9.64055034 136.606335,10.0927472 136.726636,10.5353294 C136.846938,10.9779117 137.030553,11.3723813 137.277488,11.71875 C137.524423,12.0651187 137.841002,12.3409267 138.227233,12.5461823 C138.613465,12.7514378 139.066172,12.854064 139.585368,12.854064 C140.129892,12.854064 140.592096,12.7450237 140.971996,12.5269397 C141.351896,12.3088556 141.662143,12.0234264 141.902746,11.6706435 C142.143349,11.3178605 142.317468,10.9169768 142.425106,10.4679803 C142.532744,10.0189838 142.586562,9.5635799 142.586562,9.10175493 C142.586562,8.61427301 142.529578,8.14283376 142.415608,7.68742303 C142.301638,7.2320123 142.121189,6.83112858 141.874254,6.48475985 C141.627319,6.13839113 141.307575,5.85937606 140.915011,5.64770628 C140.522448,5.4360365 140.04758,5.3302032 139.490394,5.3302032 C138.945871,5.3302032 138.483666,5.43924357 138.103766,5.65732759 C137.723867,5.8754116 137.419951,6.16404788 137.192011,6.52324507 C136.964071,6.88244227 136.799451,7.2929472 136.698144,7.75477217 C136.596837,8.21659714 136.546185,8.69124346 136.546185,9.17872537 Z M144.144144,14.0663485 L142.529578,14.0663485 L142.529578,12.7193658 L142.491588,12.7193658 C142.225658,13.27099 141.807774,13.6686667 141.237925,13.9124076 C140.668075,14.1561486 140.041249,14.2780172 139.35743,14.2780172 C138.59763,14.2780172 137.935981,14.1369062 137.372463,13.8546798 C136.808945,13.5724534 136.340409,13.1940192 135.96684,12.7193658 C135.593272,12.2447123 135.311517,11.6930963 135.121567,11.0645012 C134.931617,10.4359061 134.836644,9.76883563 134.836644,9.0632697 C134.836644,8.35770378 134.928452,7.69063327 135.11207,7.06203818 C135.295688,6.43344308 135.574277,5.88503416 135.947845,5.41679495 C136.321414,4.94855575 136.78995,4.57653566 137.353468,4.30072352 C137.916986,4.02491139 138.572303,3.88700739 139.31944,3.88700739 C139.572706,3.88700739 139.844964,3.91266395 140.136221,3.96397783 C140.427477,4.01529172 140.718729,4.1018826 141.009986,4.22375308 C141.301242,4.34562356 141.576666,4.50597704 141.836264,4.70481835 C142.095862,4.90365966 142.314301,5.15060403 142.491588,5.44565887 L142.529578,5.44565887 L142.529578,0.327124384 L144.144144,0.327124384 L144.144144,14.0663485 Z" id="KeepSolid" opacity=".8"/></g></g></g></svg>