<svg version="1.1" xmlns="http://www.w3.org/2000/svg" viewBox="32.00 20.00 116.00 141.00"><g id="VPN" stroke="none" stroke-width="1" fill="none" fill-rule="evenodd"><g id="vpn_logo_3_color"><rect id="Rectangle" x="0" y="0" width="180" height="180" rx="40"></rect><g id="vpn_logo" transform="translate(32 20)" fill-rule="nonzero"><path d="M58,141 C58,141 116,118.831161 116,74.2114839 L116,14.1727742 C101.69024,14.1727742 58,0 58,0 C58,0 14.2912,14.1727742 0,14.1727742 L0,74.2114839 C0,118.485484 58,141 58,141 Z" id="Shape" fill="#0AF"></path><g id="b-link" transform="translate(23.2 27.29)" fill="#FFF"><path d="M59.77248,62.181 C68.12912,61.7943871 74.62976,51.0829355 74.22144,38.0199677 C73.85024,26.0622581 67.70688,16.1604194 60.26432,14.441129 L60.26432,14.4274839 C60.23184,14.4183871 60.19936,14.4229355 60.17152,14.4183871 L60.0416,14.382 L60.0416,14.4001935 C55.02576,13.4495806 50.47392,16.3378065 47.96368,20.3949677 C41.91312,30.174 45.04976,47.5124516 37.75104,57.0140323 C34.43808,61.3259032 29.86768,63.3726774 25.33904,62.4857419 C17.86864,60.6436452 11.91552,50.7827419 11.54432,38.8159355 C11.12672,25.4709677 17.97536,14.5684839 26.564,14.4593226 L26.55472,14.4138387 C35.06448,14.3274194 42.2936,25.0115806 42.70192,38.2837742 C42.72048,38.8295806 42.72512,39.3753871 42.72048,39.9075484 C43.60672,33.3123871 44.20992,26.5807742 46.83616,21.5229677 C42.45136,8.69196774 33.73744,-0.100064516 23.95632,-3.23177899e-14 C10.21264,0.17283871 -0.63568,17.6113548 0.02784,38.9614839 C0.63104,58.2602903 10.31936,74.1159677 22.30912,76.8631935 L22.30912,76.8813871 C22.37408,76.8995806 22.44368,76.904129 22.51328,76.9177742 L22.62464,76.9496129 L22.62464,76.9359677 C30.59616,78.5006129 36.08992,75.0620323 39.54208,70.8866129 C53.7312,53.7573871 47.57392,37.6288065 52.79856,28.0635484 C54.48752,24.9706452 57.35968,22.5827419 61.04384,23.3150323 C65.656,24.4339355 69.56752,30.6379355 69.79952,38.0745484 C70.05936,46.3526129 65.84624,53.1069677 60.51952,53.1751935 L60.49632,53.3707742 C55.60112,53.2252258 51.39264,47.6261613 50.55744,40.407871 C50.1584,44.9653548 49.84288,50.0686452 48.33024,55.5039677 C51.29984,59.7749032 55.4712,62.4084194 59.74928,62.3583871 L59.77248,62.181 Z" id="b"></path></g></g></g></g></svg>
