<svg viewBox="-0.1 0 102.5 24" fill="none" xmlns="http://www.w3.org/2000/svg"><path d="M29.513 23.9999H26.5545C26.0842 23.9999 25.686 23.9889 25.3619 23.9655C25.0365 23.9437 24.7561 23.8822 24.5208 23.7809C24.2856 23.6809 24.079 23.5292 23.8998 23.3267C23.7192 23.1257 23.54 22.8453 23.3609 22.4868L21.9495 19.7309H7.49655L5.34511 23.9997H0L12.337 0.235185H17.1761L29.513 23.9999ZM19.6981 15.294L14.7223 5.4107L9.74779 15.294H19.6981Z" fill="#0000FF"/><path d="M54.7914 23.9997H50.658C49.8729 23.9997 49.2342 23.8984 48.7419 23.6975C48.2481 23.4951 47.8336 23.1818 47.4973 22.7565L42.3094 16.4362H36.2462V23.9997H31.2718V0.470512C31.8995 0.448556 32.5848 0.430822 33.3247 0.419843C34.066 0.408865 34.8279 0.392541 35.6144 0.369177C36.3994 0.347361 37.1845 0.330893 37.9709 0.318648C38.7559 0.30767 39.496 0.30218 40.1921 0.30218C43.0643 0.30218 45.4374 0.510063 47.3112 0.92456C49.1864 1.33906 50.7278 2.09529 51.941 3.19226C53.2868 4.44785 53.9612 6.15074 53.9612 8.30218C53.9612 9.3772 53.8148 10.325 53.5236 11.1429C53.231 11.961 52.8165 12.6721 52.2774 13.2766C51.7386 13.8826 51.0875 14.3913 50.3243 14.8058C49.5626 15.2215 48.7091 15.5621 47.7666 15.8315L54.7914 23.9997ZM40.2127 12.1005C40.9526 12.1005 41.6966 12.095 42.4474 12.084C43.1985 12.0732 43.9096 12.0224 44.5826 11.9323C45.2541 11.8419 45.8709 11.7011 46.4304 11.5096C46.9911 11.3181 47.4507 11.0418 47.809 10.6821C48.1223 10.3443 48.3644 9.9955 48.5312 9.63575C48.6994 9.27614 48.7842 8.81379 48.7842 8.25025C48.7842 7.86868 48.7104 7.49669 48.5652 7.13695C48.419 6.77579 48.2234 6.4722 47.9771 6.22463C47.6407 5.88684 47.2263 5.62294 46.7339 5.43139C46.2401 5.23983 45.6753 5.09894 45.0365 5.00873C44.3978 4.91851 43.6743 4.86784 42.8673 4.857C42.0616 4.84602 41.1754 4.84054 40.2125 4.84054H38.2963C37.5344 4.84054 36.8507 4.85151 36.246 4.87333V12.0677C36.8505 12.0895 37.5344 12.1005 38.2963 12.1005H40.2127Z" fill="#0000FF"/><path d="M66.4932 4.30148C65.172 4.30148 63.9614 4.65573 62.8632 5.36143C61.765 6.06728 60.8581 6.90162 60.1415 7.86587L56.2421 5.27671C57.5195 3.73118 59.0484 2.4646 60.8294 1.47853C62.6115 0.492328 64.5661 0 66.6956 0C68.1292 0 69.4408 0.184657 70.6279 0.553975C71.8165 0.924559 72.8355 1.4456 73.6876 2.11724C74.5382 2.79015 75.2001 3.60802 75.6707 4.57101C76.1412 5.53526 76.3765 6.61028 76.3765 7.79747C76.3765 8.91907 76.1686 9.90514 75.7541 10.7558C75.3396 11.6082 74.7913 12.3862 74.1074 13.0922C73.4236 13.7979 72.6452 14.4531 71.7713 15.059C70.8973 15.6635 70.0002 16.2694 69.0825 16.8739L64.9477 19.5972H76.2752V24H56.9477V19.664L65.1827 14.2179C65.9897 13.6804 66.7627 13.1714 67.5025 12.6887C68.241 12.2073 68.8907 11.7136 69.4515 11.2101C70.0123 10.7056 70.4595 10.1735 70.7961 9.61267C71.1326 9.05334 71.3008 8.43645 71.3008 7.76481C71.3008 7.27248 71.1709 6.81295 70.9137 6.38621C70.6566 5.96087 70.3092 5.59156 69.8715 5.27699C69.4352 4.96383 68.925 4.72301 68.3424 4.55482C67.7598 4.38635 67.1429 4.30148 66.4932 4.30148Z" fill="#0000FF"/><path d="M93.2594 23.9997V19.1251H78.8066V14.1507L92.8901 0.470512H98.0998V14.9576H102.302V19.1251H98.0998V23.9997H93.2594ZM83.9495 14.9576H93.2594V5.78142L83.9495 14.9576Z" fill="#0000FF"/></svg>