<svg viewBox="0 0 682 682" xmlns="http://www.w3.org/2000/svg"><g id="Group"><path id="Path" fill="#f5bf1c" stroke="none" d="M 195.066666 82.93335 C 115.333336 128.666687 48.666668 167.06665 46.933334 168.133362 L 44 170 L 44 341.733337 L 44.133335 513.333313 L 192.133331 597.466675 L 340.133331 681.599976 L 385.733337 655.866638 C 410.799988 641.599976 478.133331 603.466675 535.333313 571.06665 L 639.333313 512 L 639.733337 340.666656 L 640 169.200012 L 522.400024 102.666687 C 457.600006 66 390.133331 27.866638 372.399994 17.866638 L 340.266663 -0.400024 L 195.066666 82.93335 Z M 481.733337 87.466675 C 559.599976 131.599976 625.599976 169.06665 628.400024 170.799988 L 633.333313 174 L 633.06665 340.933319 L 632.666687 507.866669 L 486.399994 590.799988 L 340.266663 673.866638 L 195.066666 591.466675 L 50 509.06665 L 50 341.333344 L 50 173.600006 L 194.666672 90.666687 C 274.266663 44.93335 339.466675 7.466675 339.733337 7.466675 C 339.866669 7.333313 403.866669 43.333313 481.733337 87.466675 Z"/><path id="path1" fill="#f5bf1c" stroke="none" d="M 308.399994 265.600006 C 205.46666 308.533325 121.599998 344 121.866669 344.533325 C 122.133331 344.933319 146.666672 353.733337 176.266663 364 L 230.266663 382.533325 L 243.333328 430.399994 C 255.600006 474.399994 256.799988 478 258.666656 475.733337 C 282.933319 446.133331 303.333344 422 304 422 C 304.533325 422 329.733337 436 360.133331 453.200012 C 396.399994 473.733337 415.600006 483.866669 416.133331 482.93335 C 417.066681 481.333313 498.666656 189.600006 498.666656 188.133331 C 498.666656 187.733337 497.866669 187.333344 497.066681 187.466675 C 496.133331 187.600006 411.200012 222.799988 308.399994 265.600006 Z"/></g></svg>
