<svg viewBox="0 0 24 20" version="1.1" xmlns="http://www.w3.org/2000/svg" xmlns:xlink="http://www.w3.org/1999/xlink" xml:space="preserve" xmlns:serif="http://www.serif.com/" style="fill-rule:evenodd;clip-rule:evenodd;stroke-linejoin:round;stroke-miterlimit:2;">
    <g transform="matrix(1,0,0,1,4.44089e-16,-2)">
        <path d="M12.902,2C9.501,2 6.72,3.497 4.738,6.027C5.045,5.832 4.678,5.977 5.517,5.56C5.816,5.449 6.119,5.414 6.417,5.473C7.857,5.759 8.607,8.057 8.092,10.607C7.108,15.478 3.124,16.253 2.739,11.743L2.739,11.738C2.724,13.278 2.968,14.81 3.771,16.422L3.745,16.364C3.969,16.829 2.793,16.962 3.102,17.914L3.1,17.908C3.125,17.975 3.128,17.995 3.167,18.07L3.164,18.065L3.214,18.026L3.444,17.854C3.72,17.644 4.029,18.063 3.76,18.266L3.478,18.478C4.523,19.632 4.66,20.242 5.359,20.242C5.576,20.242 5.776,20.167 5.932,20.041L5.93,20.044C6.034,19.999 6.286,19.62 6.563,19.836L6.562,19.836C8.412,21.303 10.749,22.07 13.104,21.996L13.09,21.996C15.185,21.943 17.11,21.263 18.693,20.138L18.663,20.159C18.779,20.075 18.94,20.086 19.043,20.184C19.144,20.258 19.357,20.584 19.83,20.584C20.04,20.584 20.233,20.514 20.387,20.395L20.385,20.397L20.381,20.393L20.171,20.198C19.937,19.961 20.281,19.607 20.529,19.821L20.754,20.029L22.014,18.715C22.361,18.351 22.338,17.784 21.981,17.446C21.809,17.263 21.511,17.107 21.665,16.84L21.664,16.841C22.826,14.804 23.177,12.396 22.758,10.171L22.768,10.232C23.069,9.957 23.621,9.416 23.837,8.952C24.068,8.455 24.127,7.942 23.514,8.167C23.038,8.342 22.672,8.455 22.228,8.355C20.75,4.644 17.104,2.026 12.906,2.001L12.903,2.001L12.902,2ZM2.264,6.3C1.356,6.318 0.791,7.269 1.185,8.054L1.182,8.048C0.523,8.073 -0,8.609 -0,9.265C-0,10.262 1.139,10.823 1.94,10.26L1.936,10.263C2.113,10.14 2.242,9.977 2.331,9.797C2.517,10.136 2.791,10.418 3.109,10.612C3.104,10.804 3.108,10.998 3.127,11.227L3.126,11.206C3.419,14.704 6.508,14.083 7.265,10.33C7.843,7.479 6.362,5.363 4.672,6.79C4.222,7.169 3.818,7.769 3.532,8.504C3.386,8.474 3.281,8.365 3.19,8.346C3.912,7.575 3.363,6.3 2.287,6.3L2.263,6.3L2.264,6.3ZM5.126,7.532C6.118,7.532 6.35,9.045 6.13,10.13C5.648,12.521 3.679,12.993 3.442,10.776C4.051,11.009 4.723,10.943 5.142,10.389C5.488,9.928 5.226,8.652 4.768,8.487C4.412,8.358 4.201,8.514 3.884,8.537C4.141,8.063 4.591,7.538 5.126,7.532Z" style="fill:rgb(247,85,75);fill-rule:nonzero;"/>
    </g>
</svg>