<svg xmlns:xlink="http://www.w3.org/1999/xlink" xmlns="http://www.w3.org/2000/svg" id="Layer_1" data-name="Layer 1" viewBox="0 0 421.5 275.6" ><defs><style>.cls-1{fill:#fff;}</style></defs><path class="cls-1" d="M459.92,241.29l-.63-.34-.21-.69a79.55,79.55,0,0,0-75.76-56.45,77.83,77.83,0,0,0-34.39,7.91l-1.25.6-.87-1.08a109.59,109.59,0,0,0-179.07,11.5l-.46.74-.86.08a98.93,98.93,0,1,0,27.91,195.7l.74-.13.6.44A136.26,136.26,0,0,0,359,397.64l.72-.55.87.28a74.52,74.52,0,0,0,74.6-17.43l.39-.38.55-.08a74,74,0,0,0,23.79-138.19ZM428.8,355.63l-4.86.4-3.27,3.63a50.39,50.39,0,0,1-37.35,16.72,49.71,49.71,0,0,1-20.73-4.53l-7.2-3.28-6,5.19a111.69,111.69,0,0,1-73.37,27.48,110.56,110.56,0,0,1-70.33-24.9l-4.81-3.9-6,1.55a74.41,74.41,0,0,1-93.12-72c0-40.32,32.8-73.67,73.12-74.34l7.35-.12,3.36-6.54a85,85,0,0,1,148.11-5.72l6.95,11.27,10.71-7.77a54,54,0,0,1,31.92-10.4A54.65,54.65,0,0,1,436.73,252l1.29,6.35,6,2.52a49.41,49.41,0,0,1-15.19,94.78Z" transform="translate(-77.25 -150.2)"/><path class="cls-1" d="M200.05,269c-6.66,0-12.05,3.1-16.07,7.69l-.34-4.71a1.7,1.7,0,0,0-1.73-1.72h-12.5a1.62,1.62,0,0,0-1.72,1.72v74.59a1.62,1.62,0,0,0,1.72,1.72h13.77a1.63,1.63,0,0,0,1.72-1.72v-24.9A20.87,20.87,0,0,0,200.05,328c15.6,0,27.08-13.08,27.08-29.49S215.65,269,200.05,269Zm-2.19,43.26c-7.22,0-12.62-6.43-12.62-13.89s5.4-13.77,12.62-13.77,12.74,6,12.74,13.77S205.21,312.23,197.86,312.23Z" transform="translate(-77.25 -150.2)"/><path class="cls-1" d="M289.11,270.23h-12.5a1.68,1.68,0,0,0-1.72,1.72l-.35,4.71c-4-4.59-9.41-7.69-16.06-7.69-15.61,0-27.09,13.08-27.09,29.49S242.87,328,258.48,328a20.92,20.92,0,0,0,16.06-7.34l.35,4.13a1.68,1.68,0,0,0,1.72,1.72h12.5a1.63,1.63,0,0,0,1.73-1.72V272A1.63,1.63,0,0,0,289.11,270.23Zm-28.45,42c-7.35,0-12.74-6-12.74-13.89s5.39-13.77,12.74-13.77,12.62,6.32,12.62,13.77S267.89,312.23,260.66,312.23Z" transform="translate(-77.25 -150.2)"/><path class="cls-1" d="M334.21,297.66l17.56-25.36c.8-1.15.23-2.07-1.15-2.07H335a2.3,2.3,0,0,0-2.07,1.15l-8.6,13.31-8.73-13.31a2.28,2.28,0,0,0-2.06-1.15H298c-1.37,0-1.95.92-1.14,2.07l17.55,25.36-18.47,26.73c-.81,1.15-.23,2.07,1.14,2.07h15.61a2.32,2.32,0,0,0,2.07-1.15l9.64-14.8,9.52,14.8a2.31,2.31,0,0,0,2.07,1.15h15.6c1.38,0,1.95-.92,1.15-2.07Z" transform="translate(-77.25 -150.2)"/><path class="cls-1" d="M395.38,280.79c4.48-3.44,7.8-8.84,7.8-14.8,0-11.25-8.95-20.78-22.95-20.78s-23,9.53-23,20.78c0,6,3.33,11.36,7.69,14.8a22.73,22.73,0,0,0-13,21c0,16.29,14.58,26.16,28.23,26.16s28.12-9.87,28.12-26.16A22.73,22.73,0,0,0,395.38,280.79ZM380.23,259a7.71,7.71,0,0,1,7.81,7.68c-.12,4.25-3.1,7.92-7.81,7.92a7.8,7.8,0,1,1,0-15.6Zm0,53a10.62,10.62,0,0,1,0-21.23,10.62,10.62,0,0,1,0,21.23Z" transform="translate(-77.25 -150.2)"/></svg>