<svg version="1.0" xmlns="http://www.w3.org/2000/svg" viewBox="297 68.14999389648438 905.9193115234375 1364.0498046875">
  <path d="M762 69.5c-5.2.7-13.8 2.3-19 3.4-9.2 2-425.7 132.7-427.3 134.1-.4.4 26.1 20.4 59 44.4l59.7 43.8 216.5-68.3C770 189.4 873.1 157.2 880 155.4c25.5-6.5 46.3-8.9 72.7-8.2 17.3.5 18.1.4 16-1.2-13.9-10.7-57.2-41.7-64.2-45.9-25.1-15.2-58.2-26.6-88.8-30.6-14.2-1.8-40.4-1.8-53.7 0zm158.3 108.1c-12.6 1.5-30.9 5.4-42.3 8.9-44.8 14-430.6 135.8-431.2 136.1-1 .7-1 791.4 0 791.4.4 0 27.5-8.5 60.2-18.8l59.5-18.8.5-97.4.5-97.5 194.1-61.2c106.8-33.6 197.7-61.9 202-62.8 10.4-2.2 29.4-2.2 39.9 0 39.1 8.1 70.9 41.6 78 82 2.1 12.4 2.2 100.1 0 115.2-3.2 22.8-9.9 42.8-22.4 67.8-17.3 34.3-40.9 64.2-70.1 88.7-18.9 16-46.5 32.5-68.5 41.1-4.9 1.9-142.9 45.7-306.5 97.2-163.6 51.6-297.9 94.1-298.3 94.5-.4.3 26.1 20.4 58.9 44.4l59.7 43.8 268.6-84.7c147.7-46.6 274.2-86.7 281.1-89.2 46.2-16.8 90.3-44.6 124-78.3 51.8-51.8 81.7-116.3 92.6-200 2.5-19 3.2-140.8 1-157.1-8.2-59-44.8-113.4-100.1-148.8-5.5-3.5-10.2-6.6-10.4-6.7-.2-.2 2.1-3.2 5.1-6.6 31.1-35.6 53.9-86.5 63.8-141.8 4.6-26.2 5.2-34.7 5.7-85.9.6-55.4.1-63.7-5.2-84.6-18.6-74-77.9-139.1-147.7-162-29.8-9.7-61-12.7-92.5-8.9zm47 123.3c29.2 7.8 54.2 28 68 54.9 9.9 19.3 11.2 28.9 10.4 80.7-.6 39.3-1.4 49-5.7 69-6.5 29.7-20.2 58.1-39.7 82.2-17.6 21.8-43.8 41.2-71.3 52.7-5.8 2.5-86.3 28.4-179 57.6s-171.8 54.2-175.7 55.5l-7.3 2.4V410.5l173.8-54.8c95.5-30.1 176.9-55.4 180.7-56.2 10.4-2.1 35.6-1.4 45.8 1.4z"></path>
  <path d="M927 328.6c-3.6.8-11.9 3.1-18.5 5.2l-12 3.9-.6 49.9c-.5 46.4-.7 50.5-2.7 57.9-7.9 30.4-27.3 54-54.6 66.5-4.4 2-60.9 20.3-125.3 40.6L596 589.5v125.7l2.5-.6c4.3-1.1 300.6-94.5 308.5-97.3 60.1-21 99-71 107.5-137.8 1.3-10.6 1.6-20.5 1.3-54l-.3-41-2.8-7.3c-4.4-11.4-9.4-19-18.2-27.7-8.4-8.4-15.4-13.1-25.5-17.2-13-5.2-28.7-6.6-42-3.7z"></path>
  <path d="M297 775c0 298.6.3 543 .7 543 1.5 0 601.6-189.5 610.3-192.7 56.4-20.9 109.1-73.1 132.5-131.3 6.1-15.2 11.1-34.8 12.4-49 1.4-14.6 1.4-84.9.1-95.6-2.2-17.1-9.5-32.1-21.5-43.9-12.5-12.2-27.6-19.1-44.5-20.2-10.6-.7-19.1.9-39 7.4l-14.5 4.8-.5 63-.6 63-2.6 9.6c-8.1 29.7-24.8 53.6-49 70-14.5 9.9-18.3 11.2-242.3 81.7-118.8 37.4-217.2 68.4-218.7 68.7l-2.8.7v-835l-59.4-43.6c-32.7-24-59.7-43.6-60-43.6s-.6 244.3-.6 543z"></path>
</svg>
