<svg version="1.1" xmlns="http://www.w3.org/2000/svg" xmlns:xlink="http://www.w3.org/1999/xlink" viewBox="0 0 256 252">
    <defs>
        <linearGradient id="linearGradient-1" x1="0.0407161537%" x2="100.078192%" y1="50.0909506%" y2="50.0909506%">
            <stop offset="0%" stop-color="#4284F0" />
            <stop offset="100%" stop-color="#4487F4" />
        </linearGradient>
        <linearGradient id="linearGradient-2" x1="28.4480596%" x2="55.4742329%" y1="81.5611444%" y2="42.2373747%">
            <stop offset="0%" stop-color="#F5B406" />
            <stop offset="100%" stop-color="#F4B913" />
        </linearGradient>
    </defs>
	<g>
		<g transform="translate(102.000000, 126.000000)">
			<path d="M152.2,28.4 L107.4,126 L0.3,126 L58.9,0 L133.9,0 C148.5,0 158.2,15.1 152.2,28.4 L152.2,28.4 L152.2,28.4 Z" fill="#437DE6" />
			<path d="M133.9,1.8 C140.2,1.8 145.9,4.9 149.3,10.2 C152.7,15.5 153.1,22 150.5,27.7 L106.3,124.3 L5.2,124.3 L62.1,1.8 L133.9,1.8 L133.9,1.8 Z M133.9,0 L61,0 L2.4,126 L107.4,126 L152.1,28.4 C158.2,15.1 148.5,0 133.9,0 L133.9,0 L133.9,0 Z" fill="#196CEA" />
			<path d="M62.1,1.8 C62.1,1.8 118.3,62.8 131.5,69.1 L149.8,29 C156.2,16.3 148,1.5 132.7,1.7 L62.1,1.8 L62.1,1.8 Z" fill="url(#linearGradient-1)" />
		</g>
		<g>
			<path d="M112.9,10.9 L0,252 L104.4,252 L165,121.7 L221.6,0 L130,0 C122.7,0 116,4.2 112.9,10.9 L112.9,10.9 L112.9,10.9 Z" fill="url(#linearGradient-2)" />
			<path d="M218.8,1.8 L163.4,121 L103.3,250.3 L2.8,250.3 L114.5,11.6 C117.3,5.6 123.4,1.7 130,1.7 L218.8,1.7 L218.8,1.8 L218.8,1.8 Z M221.6,0 L130,0 C122.7,0 116,4.2 112.9,10.9 L0,252 L104.4,252 L165,121.7 L221.6,0 L221.6,0 Z" fill="#F3AA00" />
		</g>
	</g>
</svg>