<svg version="1.1" xmlns="http://www.w3.org/2000/svg" xmlns:xlink="http://www.w3.org/1999/xlink" viewBox="0 0 256 256">
    <defs>
        <path d="M235.789474,0 L80.8421053,0 C69.7263158,0 60.6315789,9.09473684 60.6315789,20.2105263 L60.6315789,80.8421053 L20.2105263,80.8421053 C9.09473684,80.8421053 0,89.9368421 0,101.052632 L0,235.789474 C0,246.905263 9.09473684,256 20.2105263,256 L154.947368,256 C166.063158,256 175.157895,246.905263 175.157895,235.789474 L175.157895,197.052632 L235.789474,197.052632 C246.905263,197.052632 256,187.957895 256,176.842105 L256,20.2105263 C256,9.09473684 246.905263,0 235.789474,0 Z" id="path-1" />
        <linearGradient id="linearGradient-3" x1="-12.2835825%" x2="60.1095519%" y1="39.1402895%" y2="103.140579%">
            <stop offset="0%" stop-color="#37474F" stop-opacity="0.2" />
            <stop offset="100%" stop-color="#37474F" stop-opacity="0.02" />
        </linearGradient>
        <path d="M175.157895,80.8421053 L64,80.8421053 L20.2105263,80.8421053 C9.09473684,80.8421053 0,89.9368421 0,101.052632 L0,235.789474 C0,246.905263 9.09473684,256 20.2105263,256 L154.947368,256 C166.063158,256 175.157895,246.905263 175.157895,235.789474 L175.157895,192 L175.157895,80.8421053 Z" id="path-4" />
        <filter filterUnits="objectBoundingBox" height="123.4%" id="filter-5" width="123.4%" x="-11.7%" y="-8.8%">
            <feOffset dx="0" dy="5" in="SourceAlpha" result="shadowOffsetOuter1" />
            <feGaussianBlur in="shadowOffsetOuter1" result="shadowBlurOuter1" stdDeviation="6" />
            <feColorMatrix in="shadowBlurOuter1" type="matrix" values="0 0 0 0 0   0 0 0 0 0   0 0 0 0 0  0 0 0 0.2 0" />
        </filter>
        <linearGradient id="linearGradient-6" x1="0%" x2="100%" y1="49.9999342%" y2="49.9999342%">
            <stop offset="0%" stop-color="#FFFFFF" stop-opacity="0.1" />
            <stop offset="100%" stop-color="#FFFFFF" stop-opacity="0" />
        </linearGradient>
    </defs>
		<g>
				<g>
						<mask fill="white" id="mask-2">
								<use ns1:href="#path-1" />
						</mask>
						<path d="M60.6315789,20.2105263 L60.6315789,80.8421053 L175.157895,197.052632 L235.789474,197.052632 C246.905263,197.052632 256,187.957895 256,176.842105 L256,20.2105263 C256,9.09473684 246.905263,0 235.789474,0 L80.8421053,0 C69.7263158,0 60.6315789,9.09473684 60.6315789,20.2105263 Z" fill="#DB4437" fill-rule="nonzero" mask="url(#mask-2)" />
						<polygon fill="url(#linearGradient-3)" fill-rule="nonzero" mask="url(#mask-2)" points="175.157895 80.8421053 175.157895 197.052632 288 197.052632" />
						<path d="M80.8421053,197.052632 L235.789474,197.052632 C246.905263,197.052632 256,187.957895 256,176.842105 L256,175.157895 C256,186.273684 246.905263,195.368421 235.789474,195.368421 L80.8421053,195.368421 C69.7263158,195.368421 60.6315789,186.273684 60.6315789,175.157895 L60.6315789,176.842105 C60.6315789,187.957895 69.7263158,197.052632 80.8421053,197.052632 Z" fill="#A52714" fill-rule="nonzero" mask="url(#mask-2)" opacity="0.2" />
						<g fill-rule="nonzero" mask="url(#mask-2)">
								<use fill="black" fill-opacity="1" filter="url(#filter-5)" ns1:href="#path-4" />
								<use fill="#FF8A80" fill-rule="evenodd" ns1:href="#path-4" />
						</g>
						<path d="M235.789474,0 L80.8421053,0 C69.7263158,0 60.6315789,9.09473684 60.6315789,20.2105263 L60.6315789,21.8947368 C60.6315789,10.7789474 69.7263158,1.68421053 80.8421053,1.68421053 L235.789474,1.68421053 C246.905263,1.68421053 256,10.7789474 256,21.8947368 L256,20.2105263 C256,9.09473684 246.905263,0 235.789474,0 Z" fill="#FFFFFF" fill-rule="nonzero" mask="url(#mask-2)" opacity="0.2" />
						<path d="M20.2105263,256 L154.947368,256 C166.063158,256 175.157895,246.905263 175.157895,235.789474 L175.157895,234.105263 C175.157895,245.221053 166.063158,254.315789 154.947368,254.315789 L20.2105263,254.315789 C9.09473684,254.315789 0,245.221053 0,234.105263 L0,235.789474 C0,246.905263 9.09473684,256 20.2105263,256 Z" fill="#C53929" fill-rule="nonzero" mask="url(#mask-2)" opacity="0.2" />
						<path d="M175.157895,82.5263158 L20.2105263,82.5263158 C9.09473684,82.5263158 0,91.6210526 0,102.736842 L0,101.052632 C0,89.9368421 9.09473684,80.8421053 20.2105263,80.8421053 L175.157895,80.8421053 L175.157895,82.5263158 Z" fill="#FFFFFF" fill-rule="nonzero" mask="url(#mask-2)" opacity="0.2" />
				</g>
				<path d="M235.789474,0 L80.8421053,0 C69.7263158,0 60.6315789,9.09473684 60.6315789,20.2105263 L60.6315789,80.8421053 L20.2105263,80.8421053 C9.09473684,80.8421053 0,89.9368421 0,101.052632 L0,235.789474 C0,246.905263 9.09473684,256 20.2105263,256 L154.947368,256 C166.063158,256 175.157895,246.905263 175.157895,235.789474 L175.157895,197.052632 L235.789474,197.052632 C246.905263,197.052632 256,187.957895 256,176.842105 L256,20.2105263 C256,9.09473684 246.905263,0 235.789474,0 Z" fill="url(#linearGradient-6)" fill-rule="nonzero" />
		</g>
</svg>