<svg version="1.1" xmlns="http://www.w3.org/2000/svg" xmlns:xlink="http://www.w3.org/1999/xlink" viewBox="0 0 256 297">
    <defs>
        <linearGradient id="linearGradient-1" x1="26.0700788%" x2="74.9491057%" y1="68.0422365%" y2="19.2791755%">
            <stop offset="0%" stop-color="#058B7E" />
            <stop offset="0%" stop-color="#058D80" />
            <stop offset="100%" stop-color="#058D7F" />
        </linearGradient>
        <path d="M127.682686,0 C57.1657481,0 0,55.7909333 0,124.612267 C0,193.433916 57.1657481,249.224533 127.682686,249.224533 L127.954173,296.138272 C193.56002,258.867516 255.954173,209.119447 255.954173,124.612267 C255.954173,55.7909333 198.199941,0 127.682686,0 Z" id="path-2" />
        <filter filterUnits="objectBoundingBox" height="100.7%" id="filter-3" width="100.8%" x="-0.4%" y="-0.3%">
            <feOffset dx="0" dy="2" in="SourceAlpha" result="shadowOffsetInner1" />
            <feComposite in="shadowOffsetInner1" in2="SourceAlpha" k2="-1" k3="1" operator="arithmetic" result="shadowInnerInner1" />
            <feColorMatrix in="shadowInnerInner1" type="matrix" values="0 0 0 0 1   0 0 0 0 1   0 0 0 0 1  0 0 0 0.2 0" />
        </filter>
        <path d="M127.682686,0 C57.1657481,0 0,55.7909333 0,124.612267 C0,193.433916 57.1657481,249.224533 127.682686,249.224533 L127.954173,296.138272 C193.56002,258.867516 255.954173,209.119447 255.954173,124.612267 C255.954173,55.7909333 198.199941,0 127.682686,0 Z" id="path-4" />
        <filter filterUnits="objectBoundingBox" height="100.7%" id="filter-5" width="100.8%" x="-0.4%" y="-0.3%">
            <feOffset dx="0" dy="-2" in="SourceAlpha" result="shadowOffsetInner1" />
            <feComposite in="shadowOffsetInner1" in2="SourceAlpha" k2="-1" k3="1" operator="arithmetic" result="shadowInnerInner1" />
            <feColorMatrix in="shadowInnerInner1" type="matrix" values="0 0 0 0 0   0 0 0 0 0   0 0 0 0 0  0 0 0 0.1 0" />
        </filter>
        <path d="M127.682686,0 C57.1657481,0 0,55.7909333 0,124.612267 C0,193.433916 57.1657481,249.224533 127.682686,249.224533 L127.954173,296.138272 C193.56002,258.867516 255.954173,209.119447 255.954173,124.612267 C255.954173,55.7909333 198.199941,0 127.682686,0 Z" id="path-6" />
        <linearGradient id="linearGradient-8" x1="30.0482935%" x2="81.9404293%" y1="27.302306%" y2="84.6402399%">
            <stop offset="0%" stop-color="#000000" />
            <stop offset="100%" stop-color="#D8D8D8" stop-opacity="0" />
        </linearGradient>
        <path d="M55.5801916,128.105402 L55.5801916,162.34398 C55.5801916,171.382993 62.9757472,178.778548 72.0147595,178.778548 L157.030779,178.778548 C166.069792,178.778548 173.465347,171.382993 173.465347,162.34398 L173.465347,140.721146 L207.124606,174.380405 L207.124606,128.105402 L55.5801916,128.105402 Z" id="path-9" />
        <filter filterUnits="objectBoundingBox" height="111.8%" id="filter-10" width="102.6%" x="-1.0%" y="-3.0%">
            <feOffset dx="1" dy="3" in="SourceAlpha" result="shadowOffsetOuter1" />
            <feColorMatrix in="shadowOffsetOuter1" type="matrix" values="0 0 0 0 0   0 0 0 0 0   0 0 0 0 0  0 0 0 0.1 0" />
        </filter>
    </defs>
		<g>
				<path d="M127.682686,0 C57.1657481,0 0,55.7909333 0,124.612267 C0,193.433916 57.1657481,249.224533 127.682686,249.224533 L127.954173,296.138272 C193.56002,258.867516 255.954173,209.119447 255.954173,124.612267 C255.954173,55.7909333 198.199941,0 127.682686,0 Z" fill="url(#linearGradient-1)" />
				<g fill="black" fill-opacity="1">
						<use filter="url(#filter-3)" ns1:href="#path-2" />
				</g>
				<g fill="black" fill-opacity="1">
						<use filter="url(#filter-5)" ns1:href="#path-4" />
				</g>
				<g>
						<mask fill="white" id="mask-7">
								<use ns1:href="#path-6" />
						</mask>
						<g />
						<polygon fill="url(#linearGradient-8)" fill-opacity="0.21" mask="url(#mask-7)" points="58.3180642 168.559565 167.355101 281.283951 311.894914 175.618212 207.440593 81.6987654 185.106647 119.970765" />
				</g>
				<g>
						<use fill="black" fill-opacity="1" filter="url(#filter-10)" ns1:href="#path-9" />
						<use fill="#F6F6F6" fill-rule="evenodd" ns1:href="#path-9" />
				</g>
				<path d="M207.124638,128.105402 L207.124638,81.6989235 L173.465379,115.28644 L173.465379,93.8668247 C173.465379,84.8274963 166.069823,77.4322568 157.030811,77.4322568 L72.0147911,77.4322568 C62.9757788,77.4322568 55.5802232,84.8274963 55.5802232,93.8668247 L55.5802232,128.105402 L207.124638,128.105402 Z" fill="#E2E2E2" />
		</g>
</svg>