<svg version="1.1" xmlns="http://www.w3.org/2000/svg" xmlns:xlink="http://www.w3.org/1999/xlink" viewBox="0 0 256 256">
    <defs>
        <linearGradient id="linearGradient-1" x1="0%" x2="99.9342538%" y1="50%" y2="50%">
            <stop offset="0%" stop-color="#FFFFFF" stop-opacity="0.1" />
            <stop offset="100%" stop-color="#FFFFFF" stop-opacity="0" />
        </linearGradient>
        <path d="M234.831034,0 L188.637519,0 C177.383099,0 168.144396,9.23870306 168.144396,20.4931232 L168.144396,80.6286813 L100.953828,80.6286813 C89.8673843,80.6286813 80.7966577,89.6994079 80.7966577,100.785852 L80.7966577,167.976419 L20.1571703,167.976419 C9.07072664,167.976419 0,177.047146 0,188.13359 L0,235.166987 C0,246.253431 9.07072664,255.324157 20.1571703,255.324157 L234.831034,255.324157 C246.085454,255.324157 255.324157,246.085454 255.324157,234.831034 L255.324157,20.4931232 C255.324157,9.23870306 246.085454,0 234.831034,0 Z" id="path-2" />
        <path d="M80.6286813,20.1571703 L80.6286813,87.347738 L20.1571703,87.347738 C9.07072664,87.347738 0,96.4184647 0,107.504908 L0,154.538306 C0,165.624749 9.07072664,174.695476 20.1571703,174.695476 L167.976419,174.695476 L167.976419,0 L100.785852,0 C89.6994079,0 80.6286813,9.07072664 80.6286813,20.1571703 Z" id="path-4" />
        <filter filterUnits="objectBoundingBox" height="121.8%" id="filter-5" width="122.6%" x="-11.3%" y="-9.7%">
            <feOffset dx="0" dy="2" in="SourceAlpha" result="shadowOffsetOuter1" />
            <feGaussianBlur in="shadowOffsetOuter1" result="shadowBlurOuter1" stdDeviation="6" />
            <feColorMatrix in="shadowBlurOuter1" type="matrix" values="0 0 0 0 0   0 0 0 0 0   0 0 0 0 0  0 0 0 0.2 0" />
        </filter>
        <linearGradient id="linearGradient-6" x1="-49.6146435%" x2="93.1793834%" y1="25.2403846%" y2="96.5000962%">
            <stop offset="0%" stop-color="#BF360C" stop-opacity="0.2" />
            <stop offset="100%" stop-color="#BF360C" stop-opacity="0.02" />
        </linearGradient>
        <linearGradient id="linearGradient-7" x1="33.5296711%" x2="98.2178289%" y1="33.5755921%" y2="98.26375%">
            <stop offset="0%" stop-color="#FFFFFF" stop-opacity="0.1" />
            <stop offset="100%" stop-color="#FFFFFF" stop-opacity="0" />
        </linearGradient>
    </defs>
		<g>
				<path d="M234.831034,0 L188.301566,0 C177.047146,0 167.808443,9.23870306 167.808443,20.4931232 L167.808443,80.6286813 L100.449899,80.6286813 C89.5314315,80.6286813 80.6286813,89.5314315 80.6286813,100.617875 L80.6286813,167.976419 L19.9891939,167.976419 C8.90275022,167.976419 0,176.87917 0,187.965613 L0,234.999011 C0,246.085454 8.90275022,254.988205 19.9891939,255.324157 L167.976419,255.324157 L188.469542,255.324157 L234.999011,255.324157 C246.253431,255.324157 255.492134,246.085454 255.492134,234.831034 L255.492134,20.4931232 C255.324157,9.23870306 246.085454,0 234.831034,0 Z" fill="url(#linearGradient-1)" fill-rule="nonzero" />
				<path d="M234.831034,0 L188.301566,0 C177.047146,0 167.808443,9.23870306 167.808443,20.4931232 L167.808443,80.6286813 L100.449899,80.6286813 C89.5314315,80.6286813 80.6286813,89.5314315 80.6286813,100.617875 L80.6286813,167.976419 L19.9891939,167.976419 C8.90275022,167.976419 0,176.87917 0,187.965613 L0,234.999011 C0,246.085454 8.90275022,254.988205 19.9891939,255.324157 L167.976419,255.324157 L188.469542,255.324157 L234.999011,255.324157 C246.253431,255.324157 255.492134,246.085454 255.492134,234.831034 L255.492134,20.4931232 C255.324157,9.23870306 246.085454,0 234.831034,0 Z" fill="url(#linearGradient-1)" fill-rule="nonzero" />
				<g>
						<mask fill="white" id="mask-3">
								<use ns1:href="#path-2" />
						</mask>
						<g />
						<g fill-rule="nonzero" mask="url(#mask-3)">
								<path d="M234.831034,0 L188.637519,0 C177.383099,0 168.144396,9.23870306 168.144396,20.4931232 L168.144396,80.6286813 L168.144396,255.324157 L188.637519,255.324157 C188.637519,255.324157 188.637519,255.324157 188.637519,255.324157 L234.831034,255.324157 C246.085454,255.324157 255.324157,246.085454 255.324157,234.831034 L255.324157,20.4931232 C255.324157,9.23870306 246.085454,0 234.831034,0 Z" fill="#F57C00" />
								<g transform="translate(0.000000, 80.628681)">
										<g>
												<use fill="black" fill-opacity="1" filter="url(#filter-5)" ns1:href="#path-4" />
												<use fill="#FFC107" fill-rule="evenodd" ns1:href="#path-4" />
										</g>
								</g>
						</g>
						<path d="M167.976419,80.6286813 L167.976419,255.324157 L188.469542,255.324157 C188.469542,255.324157 188.469542,255.324157 188.469542,255.324157 L234.663058,255.324157 C245.917478,255.324157 255.156181,246.085454 255.156181,234.831034 L255.156181,167.976419 L167.976419,80.6286813 Z" fill="url(#linearGradient-6)" fill-rule="nonzero" mask="url(#mask-3)" />
						<path d="M100.785852,82.3084455 L167.976419,82.3084455 L167.976419,80.6286813 L100.785852,80.6286813 C89.6994079,80.6286813 80.6286813,89.6994079 80.6286813,100.785852 L80.6286813,102.465616 C80.6286813,91.3791721 89.6994079,82.3084455 100.785852,82.3084455 Z" fill="#FFFFFF" fill-rule="nonzero" mask="url(#mask-3)" opacity="0.2" />
						<path d="M20.1571703,169.656184 L80.6286813,169.656184 L80.6286813,167.976419 L20.1571703,167.976419 C9.07072664,167.976419 0,177.047146 0,188.13359 L0,189.813354 C0,178.72691 9.07072664,169.656184 20.1571703,169.656184 Z" fill="#FFFFFF" fill-rule="nonzero" mask="url(#mask-3)" opacity="0.2" />
						<path d="M234.831034,0 L188.637519,0 C177.383099,0 168.144396,9.23870306 168.144396,20.4931232 L168.144396,22.1728874 C168.144396,10.9184673 177.383099,1.67976419 188.637519,1.67976419 L234.831034,1.67976419 C246.085454,1.67976419 255.324157,10.9184673 255.324157,22.1728874 L255.324157,20.4931232 C255.324157,9.23870306 246.085454,0 234.831034,0 Z" fill="#FFFFFF" fill-rule="nonzero" mask="url(#mask-3)" opacity="0.2" />
						<path d="M234.831034,253.644393 L188.637519,253.644393 C188.637519,253.644393 188.637519,253.644393 188.637519,253.644393 L167.976419,253.644393 L20.1571703,253.644393 C9.07072664,253.644393 0,244.573667 0,233.487223 L0,235.166987 C0,246.253431 9.07072664,255.324157 20.1571703,255.324157 L167.976419,255.324157 L188.469542,255.324157 C188.469542,255.324157 188.469542,255.324157 188.469542,255.324157 L234.663058,255.324157 C245.917478,255.324157 255.156181,246.085454 255.156181,234.831034 L255.158436,233.15127 C255.324157,244.40569 246.085454,253.644393 234.831034,253.644393 Z" fill="#BF360C" fill-rule="nonzero" mask="url(#mask-3)" opacity="0.2" />
				</g>
				<path d="M234.831034,0 L188.637519,0 C177.383099,0 168.144396,9.23870306 168.144396,20.4931232 L168.144396,80.6286813 L100.953828,80.6286813 C89.8673843,80.6286813 80.7966577,89.6994079 80.7966577,100.785852 L80.7966577,167.976419 L20.1571703,167.976419 C9.07072664,167.976419 0,177.047146 0,188.13359 L0,235.166987 C0,246.253431 9.07072664,255.324157 20.1571703,255.324157 L234.831034,255.324157 C246.085454,255.324157 255.324157,246.085454 255.324157,234.831034 L255.324157,20.4931232 C255.324157,9.23870306 246.085454,0 234.831034,0 Z" fill="url(#linearGradient-7)" fill-rule="nonzero" />
		</g>
</svg>