<svg version="1.1" xmlns="http://www.w3.org/2000/svg" xmlns:xlink="http://www.w3.org/1999/xlink" viewBox="0 0 256 240">
    <defs>
        <path d="M0.0220781666,91.4663879 C0.00805862653,87.982602 3.29338858,83.5318776 10.0591368,78.6803234 L116.0116,2.70437809 C120.946117,-0.834044988 128.957886,-0.834409887 133.899175,2.7087341 L239.516538,78.4415072 C246.430406,83.3990858 249.709304,87.9422311 249.548215,91.4663879 L249.651811,91.4663879 L249.651811,102.96502 L0,102.96502 L0,91.4663879 L0.0220781666,91.4663879 L0.0220781666,91.4663879 Z" id="path-1" />
        <filter filterUnits="objectBoundingBox" height="102.9%" id="filter-2" width="101.2%" x="-0.6%" y="-1.5%">
            <feOffset dx="0" dy="3" in="SourceAlpha" result="shadowOffsetInner1" />
            <feComposite in="shadowOffsetInner1" in2="SourceAlpha" k2="-1" k3="1" operator="arithmetic" result="shadowInnerInner1" />
            <feColorMatrix in="shadowInnerInner1" type="matrix" values="0 0 0 0 1   0 0 0 0 1   0 0 0 0 1  0 0 0 0.282269022 0" />
        </filter>
        <path d="M0,97.7383688 L219.295825,238.857939 L13.0561451,238.857939 C5.84442109,238.857939 0,233.013128 0,225.803189 L0,97.7383688 Z" id="path-3" />
        <filter filterUnits="objectBoundingBox" height="108.5%" id="filter-4" width="105.5%" x="-1.4%" y="-5.7%">
            <feOffset dx="3" dy="-2" in="SourceAlpha" result="shadowOffsetOuter1" />
            <feGaussianBlur in="shadowOffsetOuter1" result="shadowBlurOuter1" stdDeviation="1.5" />
            <feColorMatrix in="shadowBlurOuter1" type="matrix" values="0 0 0 0 0.181283504   0 0 0 0 0.347530335   0 0 0 0 0.727242827  0 0 0 0.4 0" />
        </filter>
        <path d="M249.651811,97.7383688 L249.651811,225.803189 C249.651811,233.013128 243.804046,238.857939 236.595953,238.857939 L13.0844764,238.857939 L249.651811,97.7383688 Z" id="path-5" />
        <filter filterUnits="objectBoundingBox" height="108.5%" id="filter-6" width="105.1%" x="-1.3%" y="-6.4%">
            <feOffset dx="3" dy="-3" in="SourceAlpha" result="shadowOffsetOuter1" />
            <feGaussianBlur in="shadowOffsetOuter1" result="shadowBlurOuter1" stdDeviation="1.5" />
            <feColorMatrix in="shadowBlurOuter1" type="matrix" values="0 0 0 0 0.181283504   0 0 0 0 0.347530335   0 0 0 0 0.727242827  0 0 0 0.1 0" />
        </filter>
        <filter filterUnits="objectBoundingBox" height="106.4%" id="filter-7" width="103.8%" x="-0.6%" y="-5.3%">
            <feOffset dx="0" dy="3" in="SourceAlpha" result="shadowOffsetInner1" />
            <feComposite in="shadowOffsetInner1" in2="SourceAlpha" k2="-1" k3="1" operator="arithmetic" result="shadowInnerInner1" />
            <feColorMatrix in="shadowInnerInner1" type="matrix" values="0 0 0 0 1   0 0 0 0 1   0 0 0 0 1  0 0 0 0.129840353 0" />
        </filter>
        <filter filterUnits="objectBoundingBox" height="182.7%" id="filter-8" width="720.0%" x="-310.0%" y="-41.3%">
            <feGaussianBlur in="SourceGraphic" stdDeviation="15" />
        </filter>
        <linearGradient id="linearGradient-9" x1="33.9688642%" x2="97.7397776%" y1="100%" y2="11.9152677%">
            <stop offset="0%" stop-color="#335FCF" />
            <stop offset="0%" stop-color="#3558B1" />
            <stop offset="40.8985544%" stop-color="#3A4768" />
            <stop offset="83.9913199%" stop-color="#3A4768" />
            <stop offset="84.0114578%" stop-color="#687EB7" />
            <stop offset="84.0242347%" stop-color="#CBCBCB" />
            <stop offset="84.0780453%" stop-color="#CBCBCB" />
            <stop offset="84.2718045%" stop-color="#CBCBCB" />
            <stop offset="100%" stop-color="#CBCBCB" />
        </linearGradient>
        <polygon id="path-10" points="123.967869 128.70735 76.6485017 81.375215 92.5448517 65.4745758 123.915767 96.9037615 200.818425 19.9803535 216.714775 35.8809927 139.230277 113.386397 137.332457 115.284729" />
        <filter filterUnits="objectBoundingBox" height="104.6%" id="filter-11" width="103.6%" x="-1.8%" y="-2.3%">
            <feOffset dx="0" dy="5" in="SourceAlpha" result="shadowOffsetInner1" />
            <feComposite in="shadowOffsetInner1" in2="SourceAlpha" k2="-1" k3="1" operator="arithmetic" result="shadowInnerInner1" />
            <feColorMatrix in="shadowInnerInner1" type="matrix" values="0 0 0 0 1   0 0 0 0 1   0 0 0 0 1  0 0 0 0.5 0" />
        </filter>
    </defs>
		<g>
				<g>
						<use fill="#3760C9" fill-rule="evenodd" ns1:href="#path-1" />
						<use fill="black" fill-opacity="1" filter="url(#filter-2)" ns1:href="#path-1" />
				</g>
				<path d="M0,97.7383688 L249.651811,97.7383688 L249.651811,165.795878 L249.651811,213.528672 C249.651811,219.259406 243.794895,223.904872 236.570024,223.904872 L13.0817864,223.904872 C5.85655066,223.904872 0,219.259289 0,213.528672 L0,165.795878 L0,97.7383688 Z" fill="#3F72DB" />
				<g>
						<use fill="black" fill-opacity="1" filter="url(#filter-4)" ns1:href="#path-3" />
						<use fill="#36BBF7" fill-rule="evenodd" ns1:href="#path-3" />
				</g>
				<g>
						<use fill="black" fill-opacity="1" filter="url(#filter-6)" ns1:href="#path-5" />
						<use fill="#96DDFC" fill-rule="evenodd" ns1:href="#path-5" />
						<use fill="black" fill-opacity="1" filter="url(#filter-7)" ns1:href="#path-5" />
				</g>
				<polygon fill="#203364" filter="url(#filter-8)" points="156.145991 41.2886836 153.615976 137.514341 168.133021 137.514337 167.379792 28.6832236" transform="translate(160.874498, 83.098782) rotate(45.000000) translate(-160.874498, -83.098782) " />
				<path d="M124.104507,130.02941 L151.389808,156.615527 L249.616582,98.2474883 C249.616582,98.2474883 249.997739,91.241481 248.538286,88.1033084 C247.197505,85.2203079 241.215882,80.183969 241.215882,80.183969 L201.216315,51.4737465 L124.104507,130.02941 Z" fill="#CBCBCB" style="mix-blend-mode: multiply;" />
				<polygon fill="url(#linearGradient-9)" points="123.967869 130.252782 76.6485017 82.9206469 92.5448517 67.0200078 123.915767 98.4491934 200.818425 21.5257855 217.139561 36.525464 202.064778 51.6964279 139.230277 114.931829 137.332457 116.830161" />
				<g>
						<use fill="#E5E5E5" fill-rule="evenodd" ns1:href="#path-10" />
						<use fill="black" fill-opacity="1" filter="url(#filter-11)" ns1:href="#path-10" />
				</g>
		</g>
</svg>