<svg version="1.0" xmlns="http://www.w3.org/2000/svg" viewBox="42 154 720 204" style="enable-background:new 42 154 720 204" xml:space="preserve">
  <path d="M254.4 306.5c-7.6 0-13.7-2.4-18.1-7.1v5.8h-13.7v-86.4l13.7-4.3v34.3c4.5-4.7 10.5-7 18.1-7 9 0 16.5 3.2 22.3 9.5 11.7 13 11.7 32.7 0 45.8-5.8 6.2-13.3 9.3-22.3 9.4m-1.5-12.5c5.1.1 9.9-2 13.3-5.8 7-8.1 7-20.1 0-28.2-3.4-3.8-8.2-5.9-13.3-5.8-6.7-.2-13 3-16.7 8.6v22.5c3.9 5.8 9.5 8.7 16.7 8.7m52.2-62c-2.4 0-4.7-.9-6.4-2.7-1.8-1.7-2.7-4.1-2.7-6.5 0-5 4.1-9 9.1-9.1 2.5 0 4.8.9 6.5 2.7 1.7 1.7 2.7 4 2.7 6.4 0 5-4 9.2-9 9.2h-.2zm-6.8 73.2H312V243h-13.7v62.2zm60.3.7c-6.4 0-11.6-1.8-15.6-5.3s-6-8.6-6-15.4v-30h-15.4V243H337v-13.7l13.6-4.4v18h19v12.2h-19V283c0 7 3.2 10.6 9.7 10.6 3.1.1 6.1-.7 8.8-2.2l4.1 11.4c-4.5 2.1-9.6 3.2-14.6 3.1m23.7 27.8v-90.6H396v5.7c4.5-4.7 10.5-7 18.1-7 9 0 16.5 3.1 22.3 9.5 11.7 13 11.7 32.7 0 45.8-5.9 6.3-13.3 9.5-22.3 9.5-7.6 0-13.7-2.4-18.2-7.1v30l-13.6 4.2zm30.4-39.7c5.1.1 9.9-2 13.3-5.8 7-8.1 7-20.1 0-28.2-3.4-3.8-8.2-5.9-13.3-5.8-6.7-.2-13 3-16.7 8.6v22.5c3.9 5.8 9.4 8.7 16.7 8.7zm72 12.4c-9 0-16.5-3.1-22.3-9.5-11.6-13-11.6-32.7 0-45.8 5.8-6.3 13.2-9.4 22.3-9.5 7.6 0 13.7 2.3 18.1 7v-5.7h13.7v62.2h-13.7v-5.9c-4.5 4.9-10.5 7.3-18.1 7.2m1.5-12.4c6.7.2 13-3.1 16.5-8.7v-22.5c-3.6-5.5-9.9-8.8-16.5-8.6-5.1-.1-9.9 2-13.2 5.8-7 8.1-7 20.1 0 28.2 3.4 3.8 8.2 5.9 13.2 5.8m45.1 11.2v-62.1H545v6.6c4.2-5.2 10.3-7.8 18.3-7.8 7.4 0 13.3 2.4 17.7 7.1s6.6 11.1 6.6 19v37.2h-13.7v-34.9c0-5.1-1.2-9-3.5-11.8-2.4-2.8-5.7-4.2-10.1-4.2-7.3 0-12.4 3.3-15.3 9.8v41.1h-13.7zm99.2 1.2c-9 0-16.5-3.1-22.2-9.5-11.6-13-11.6-32.7 0-45.8 5.8-6.3 13.2-9.4 22.2-9.5 7.6 0 13.7 2.3 18.2 7v-30l13.7-4.3v90.8h-13.7v-5.9c-4.6 4.9-10.6 7.3-18.2 7.2m1.6-12.4c6.7.2 13-3.1 16.5-8.7v-22.5c-3.6-5.5-9.9-8.8-16.5-8.6-5.1-.1-9.9 2-13.3 5.8-7 8.1-7 20.1 0 28.2 3.3 3.8 8.2 5.9 13.3 5.8m74.1 12.4c-9 0-16.4-3.1-22.2-9.5-11.6-13-11.6-32.7 0-45.8 5.8-6.3 13.2-9.4 22.2-9.5 7.6 0 13.7 2.3 18.2 7v-5.7H738v62.2h-13.7v-5.9c-4.4 4.9-10.5 7.3-18.1 7.2m1.6-12.4c6.7.2 13-3.1 16.5-8.7v-22.5c-3.6-5.5-9.9-8.8-16.5-8.6-5.1-.1-9.9 2-13.3 5.8-7 8.1-7 20.1 0 28.2 3.3 3.8 8.2 5.9 13.3 5.8m-567.5-88.1-2.7.9v10.1c0 5.1-3.3 9.6-8.1 11.2l-27.7 8.7v15l36.3-11.5c8.6-2.7 13.8-10.1 13.8-19.9v-6.7c0-4.5-5.3-9.8-11.6-7.8m-57.9-4.2 51.4-16.2c4.1-1.4 8.5-1.8 12.8-1.4l-6.4-4.7c-6.8-4.7-15.3-6.1-23.2-3.6l-48.8 15.4 14.2 10.5z"/>
  <path d="M160.7 246.1s9.1-8.2 9.1-25.9v-7.5c0-11.7-13.4-30.6-34.9-23.8l-51 16.1v94.5l14.3-4.5v-23.3l46-14.5c6.3-2.1 13.1 1.4 15.1 7.7.4 1.2.6 2.5.6 3.8v9.2c0 9.4-8.3 22.7-21.3 26.8L68.1 327l14.3 10.5 63.5-20c13.4-4.3 28.3-15.8 28.3-40.2v-9.4c0-14.8-13.5-21.7-13.5-21.8m-21.5-2.2-41 12.9v-41.3l41-12.9c8.6-2.7 16.3 4.2 16.3 11.2v6.7c0 11.7-6.4 20.2-16.3 23.4"/>
  <path d="M156.4 278v-9.2c0-4.7-3.8-8.5-8.5-8.5-.9 0-1.8.1-2.6.4l-3.2 1v12.7c0 6.3-4 11.8-10 13.6l-51.7 16.3v-99.8L66 194v129.8l71.6-22.6c11.2-3.4 18.8-14.8 18.8-23.2"/>
  <path style="fill:none" d="M42 154h720v204H42z"/>
</svg>
