<svg xmlns="http://www.w3.org/2000/svg" xml:space="preserve" viewBox="0 0 450 450"><path fill-rule="evenodd" clip-rule="evenodd" d="M319.5 234.1h-.05c-3.566-4.233-8.167-7.566-13.8-10a50.344 50.344 0 0 0-6.65-2.3l-46.9-4.6a53.368 53.368 0 0 1 5.45 10.75l.601 1.8c.6 1.8 1.1 3.65 1.5 5.55 0 .101.017.184.05.25v.5l-.05.2c-.101.366-.284.7-.551 1l-9.699 9.35.1 4.601 75.85 6.95c.932-9.934-1.018-17.951-5.851-24.051zm-1.05-18.95a6.509 6.509 0 0 0-.8-.05H316.799c.167.066.351.15.55.25.301.1.584.217.851.35 5.033 2.233 9.2 5.033 12.5 8.4 4.833 4.9 7.816 10.966 8.95 18.2l47.199 4.5a87.295 87.295 0 0 0-5.85-10.7c-3.267-5.133-6.917-9.133-10.95-12-2.566-1.833-5.283-3.2-8.149-4.1-10.7-2.433-25.183-4.05-43.45-4.85zm-10.75-6.3 7.149.2-.199-4.9L195.5 189.7l-.1 5.1c1.733.1 3.3.2 4.7.3 1.667.1 3.083.2 4.25.3h.2c2.934.233 5.717.517 8.35.85h.05c1.667.167 3.283.383 4.85.65 6.7 1.033 12.066 2.417 16.101 4.15.1 0 .183.034.25.1a44.42 44.42 0 0 1 5.949 3.35 37.583 37.583 0 0 1 3 2.15 30.125 30.125 0 0 1 3.45 3.05l.2.2c.134.133.267.283.4.45.033 0 .066.017.1.05l52.15 5.35 3.8-4.65c1.166-1.567 2.666-2.317 4.5-2.25zM327.2 140v-.05a19.797 19.797 0 0 1-2.05-4.9 19.78 19.78 0 0 1-.7-4.5 23.502 23.502 0 0 1 0-3.05l-63.601 44.1c-.033 0-.05.017-.05.05-.666.4-1.25.9-1.75 1.5a7.936 7.936 0 0 0-1.899 3.9c-.034.2-.067.417-.101.65-.033.466-.033.966 0 1.5.066.9.25 1.767.55 2.6.034.133.084.284.15.45L327.2 140zm-48.75 13.15c-.5-.333-.983-.667-1.45-1l-85.95-12.35c-1.867-.133-2.983.417-3.35 1.65-.1.367-.133.8-.1 1.3 2.333 5.7 4.433 12.2 6.3 19.5.167.667.333 1.35.5 2.05.4 1.867.783 3.784 1.15 5.75.167 1.1.35 2.2.55 3.3.2 1.433.383 2.883.55 4.35 0 .2.017.4.05.6.2 1.9.367 3.817.5 5.75h.25l20.6 2.6h.05v-.5c.033-2.8 0-5.183-.1-7.15a95.534 95.534 0 0 0-.3-3.65 161.49 161.49 0 0 0-.65-5.3c-.466-3.4-1.433-7.566-2.9-12.5 1-1.3 2.184-2.233 3.55-2.8a9.206 9.206 0 0 1 2.9-.65l47.25 6.5 10.6-7.45zm-52.6 6.9a1.566 1.566 0 0 0-.649.25c3.133 4.233 4.833 8.417 5.1 12.55.267 5.033-.649 9.65-2.75 13.85-.2.333-.383.683-.55 1.05l20.4 2.4c3.666-12.167 6-18.9 7-20.2l7.35-5.05-35.901-4.85zM401.7 110.8c.133-4.867-1.066-9.25-3.601-13.15-.8-1.167-1.699-2.3-2.699-3.4-4.367-4.7-9.75-7.183-16.15-7.45-5.134-.267-9.8.917-14 3.55l-5.1 3.8a603.068 603.068 0 0 0-21.4 17.6l-6.3 5.4c-.134.133-.25.267-.351.4-1.166 1.3-2.1 2.684-2.8 4.15-.399.8-.717 1.65-.95 2.55v.1h-.05v.05l-.05.05a11.248 11.248 0 0 0-.5 2.65 14.99 14.99 0 0 0-.05 3.25v.05c.033 1.1.184 2.184.45 3.25l25.35-17.4c-.2-2.8.5-5.717 2.1-8.75-.033.333-.017 1.283.051 2.85.033 1.5.233 3.1.6 4.8a21.11 21.11 0 0 0 2.8 6.35 24.677 24.677 0 0 0 2.75 3.6c.967 1.033 2 1.983 3.101 2.85.166.066.333.183.5.35.267.2.533.383.8.55.033 0 .083.017.149.05 3.367 2.233 7.233 3.467 11.601 3.7 2.967.133 5.75-.217 8.35-1.05.033-.033.066-.05.101-.05 0-.033.017-.05.05-.05h.05c2.866-1 5.533-2.617 8-4.85 4.598-4.267 6.998-9.533 7.198-15.8zm-14.7-19c2.2 1 3.917 2.217 5.15 3.65a6.921 6.921 0 0 0-.7-.35c-2.033-.833-3.566-1.167-4.601-1l-20.899 19.3c.566 2.067 1.6 3.934 3.1 5.6l28.3-16.3c1 1.133 1.517 2.966 1.551 5.5 0 .533-.017.716-.051.55L371.8 121.5a13.589 13.589 0 0 0 3.45 1.8l21.85-6.45c-.366 1.7-1.767 3.667-4.199 5.9-3.767 3.467-8.233 5.083-13.4 4.85-2.934-.133-5.6-.833-8-2.1-1.566-.833-3-1.9-4.3-3.2h-.05l-.75-.75v-.05c-.767-.833-1.45-1.7-2.051-2.6l-.1-.1-.05-.05a17.885 17.885 0 0 1-2.3-5.25v-.05a18.612 18.612 0 0 1-.551-5.3c.167-5.133 2.134-9.433 5.9-12.9s8.233-5.083 13.4-4.85c1.8.067 3.517.367 5.149.9.402.133.802.3 1.202.5zm12.55-1.6.101.1c.033 0 .05.017.05.05a29.63 29.63 0 0 1 3 3.75c.066.066.133.167.2.3a.596.596 0 0 1 .1.15c3.167 4.833 4.667 10.3 4.5 16.4-.167 5.566-1.733 10.55-4.7 14.95-.033 0-.05.017-.05.05l-.051.05c-1.2 1.7-2.634 3.333-4.3 4.9-3.034 2.733-6.301 4.733-9.801 6h-.149l-33.4 14.3-.05.05c-.033.033-.066.05-.1.05-.233.067-.434.15-.601.25-.033.034-.066.05-.1.05-2.434.933-5.017 1.467-7.75 1.6-1.167.033-2.283 0-3.351-.1h-.05c-.1 0-.166-.017-.2-.05a2462.58 2462.58 0 0 0-18.6 9.95c-5.4 2.867-10.783 5.75-16.15 8.65-1.666.833-3.333 1.7-5 2.6h-.05c.566 1.3 1.467 4 2.7 8.1a76.163 76.163 0 0 1 2.25 9.65c.233 1.567.434 3.167.6 4.8l8.75 1.1-.05-.05h.05c.967.1 1.784.517 2.45 1.25l.05.05h.051c.133.167.283.35.449.55l.301.7c.133.367.233.75.3 1.15v.15l.45 7.7c6.033.2 11.683.533 16.949 1 9.834.9 18.15 2.133 24.95 3.7.101 0 .217.017.351.05l.1.05c4.2 1.3 8.116 3.433 11.75 6.4 1.3 1.033 2.583 2.2 3.85 3.5 2.4 2.5 4.65 5.417 6.75 8.75.434.7.884 1.417 1.351 2.15a307.304 307.304 0 0 0 1.75 3.15 62.62 62.62 0 0 1 1.649 3.35l.051.05c.3.733.616 1.483.949 2.25.334.8.684 1.617 1.051 2.45h.05c.5 1.1.899 2.25 1.2 3.45v.1c.033.3.05.65.05 1.05v.051c-.134 1.1-.684 2-1.65 2.699l-10.7 7.65c.101 2.033.167 4.066.2 6.1a160.987 160.987 0 0 1-2.7 31.45c-.866 4.533-1.949 9-3.25 13.4a126.613 126.613 0 0 1-9.35 22.7c-6.233 11.767-14.684 21.633-25.35 29.6v.05a62.602 62.602 0 0 1-6.65 4.3c-.3.134-.6.2-.9.2H72.7c-1.967.033-3.45.05-4.45.05h-.85l-2.55-.199c-5.934-.967-11.05-4.834-15.35-11.601v-.1c-4.633-7.233-6.95-15.851-6.95-25.851 0-10.066 2.317-18.566 6.95-25.5a.323.323 0 0 1 .15-.149c1-1.533 2.033-2.967 3.1-4.3-.3-6.5.233-12.467 1.6-17.9 4.566-5.134 9.7-10.517 15.4-16.15 8.467-8.466 18.183-17.533 29.15-27.199.033-3.567.1-7.034.2-10.4.133-4.767.3-9.35.5-13.75.233-4.767.55-9.417.95-13.95a376.15 376.15 0 0 1 1.9-18.5c.133-1.1.617-1.966 1.45-2.6 1.367-1.1 2.733-2.184 4.1-3.25 1.9-1.467 3.783-2.917 5.65-4.35 4.1-3.133 8.217-6.15 12.35-9.05 1.7-1.233 3.417-2.433 5.15-3.6 3.2-2.233 6.4-4.383 9.6-6.45v-.05l.05.05c.034-.067.083-.1.15-.1-1.8-2.2-3.017-4.566-3.65-7.1a17.703 17.703 0 0 1-.55-5.15c.7-4.2 1.217-7.7 1.55-10.5.133-.633.3-1.25.5-1.85.534-1.833 1.067-3.65 1.6-5.45l3.4-8.75.1-.05a19.74 19.74 0 0 1 3.75-1.55 678.72 678.72 0 0 1 4.05-1.1c1.867-.5 3.733-1.017 5.6-1.55h.1a4.056 4.056 0 0 1-.6-1.95 5.646 5.646 0 0 1-3.05-1.8c-.033 0-.067-.017-.1-.05l-.3-.6c-.167-.967-.267-2.25-.3-3.85-.066-1.434.05-3.434.35-6V96.8c.667-.966 1.6-1.667 2.8-2.1.066-.034.167-.067.3-.1-.033-.033-.033-.05 0-.05.3-3.233 1.75-6 4.35-8.3 2.933-2.7 6.5-4.05 10.7-4.05 4.267 0 7.883 1.35 10.85 4.05 1.867 1.7 3.133 3.5 3.8 5.4 1.033.467 1.9.934 2.6 1.4-.033 2-.216 3.967-.55 5.9l1.1 1.6a55.829 55.829 0 0 1-.9 6.8l-.6 2.6-3.8 1.5-.85 2.5.15.1h.05V114c.167.033.333.083.5.15.833.3 1.617.7 2.35 1.2.033 0 .067.033.1.1a70.669 70.669 0 0 1 4.55 2.7l1.6 1 1.45 1c1.867 3.167 3.25 5.767 4.15 7.8a70.845 70.845 0 0 1 2.5 6.6l.05.05c0 .033.017.066.05.1l77.6 11.55h.05a3.625 3.625 0 0 1 1.601.6c1.133.767 2.3 1.6 3.5 2.5.033-.033.066-.05.1-.05l39.7-27.95c0-.067.017-.134.05-.2.2-.667.467-1.316.8-1.95a16.823 16.823 0 0 1 2.101-3.55 22.638 22.638 0 0 1 4.5-4.6c.467-.4.899-.75 1.3-1.05l.05-.05a.533.533 0 0 1 .2-.1c1.6-1.367 3.25-2.7 4.95-4l16.8-13.5c0-.1.066-.167.2-.2a124.977 124.977 0 0 1 4.75-3.85.328.328 0 0 1 .149-.15c.167-.167.351-.316.551-.45a24.778 24.778 0 0 1 4.35-3.05.627.627 0 0 1 .25-.15c4.533-2.6 9.65-3.767 15.35-3.5 7.865.333 14.514 3.4 19.948 9.2zm-80.5 159.35c.566.533.867 1.2.9 2-.033.8-.316 1.483-.851 2.05l-.05.051c-.533.533-1.2.816-2 .85a2.977 2.977 0 0 1-2.05-.9v.051c-.6-.567-.9-1.267-.9-2.101 0-.8.301-1.467.9-2 .566-.6 1.25-.899 2.05-.899s1.483.3 2.05.899h-.049zm-75.45-33.6a44.746 44.746 0 0 0-3.25-3.4 36.951 36.951 0 0 0-4.149-3.4 29.451 29.451 0 0 0-3-2 31.294 31.294 0 0 0-3.25-1.25c-3.533-1.233-7.617-2.2-12.25-2.9-3.367-.567-7.017-.983-10.95-1.25a53.53 53.53 0 0 0-2.25-.15c-.2 0-.4-.017-.6-.05-3.4-.233-6.833-.45-10.3-.65-2.367-.2-4.733-.367-7.1-.5-2.133-.167-4.283-.333-6.45-.5a102.911 102.911 0 0 0-7.3 2.3c-4.767 1.633-9.617 3.566-14.55 5.8-12.1 5.467-24.684 12.717-37.75 21.75a199.13 199.13 0 0 0-7.3 5.25 490.499 490.499 0 0 1 9.6-5.25c19.133-10.267 34.583-17.367 46.35-21.3 2.767-.934 5.35-1.684 7.75-2.25 1.9.767 3.7 1.767 5.4 3 5.367 4.033 9.4 10.633 12.1 19.8l58.75 5.1c-.533-1.767-1.017-3.216-1.449-4.35a86.753 86.753 0 0 0-1.051-2.6c-1.3-2.8-2.85-5.484-4.649-8.05v-.05a42.307 42.307 0 0 0-2.352-3.1zm25.65-23.45-.05.5 15.1 1.95v-.1c.066-.267.134-.467.2-.6l.1-.4c0-.067.017-.133.051-.2.166-.6.3-1.017.399-1.25v.05c.134-.733.267-1.45.4-2.15v-.1c.166-1.233.267-2.483.3-3.75a119.955 119.955 0 0 0-.15-3.25l-16.1 8.45c-.1.3-.184.583-.25.85zm28.7-14.8c-.134-.3-.25-.583-.351-.85l-6.85 3.6c.333 1.966.517 3.867.55 5.7a28.15 28.15 0 0 1-.2 4.15c0 .1-.017.2-.05.3-.1.867-.25 1.717-.45 2.55-.133.434-.25.85-.35 1.25l-.4 1.25 12.65 1.6c-.066-.8-.134-1.517-.2-2.15-.267-2.1-.483-3.583-.649-4.45a61.9 61.9 0 0 0-.301-1.75c-.199-1-.433-1.967-.699-2.9a63.514 63.514 0 0 0-2.7-8.3zm36.8 89.65c-.033.134-.05.284-.05.45-.367 10.7-1.8 21.267-4.3 31.7-.233.866-.45 1.733-.65 2.6a131.581 131.581 0 0 1-8.9 24.95c-.399.8-.783 1.584-1.149 2.351a101.75 101.75 0 0 1-13.95 21.449l-6.15 6.65-6.1 5.5h39.7a80.366 80.366 0 0 0 12.05-9.55l-13.35-.2c-.267 0-.5-.083-.7-.25-.233-.2-.351-.434-.351-.7 0-.3.101-.566.301-.8l1.1-1.2.05-.05c0-.033.017-.066.05-.1a112.06 112.06 0 0 0 2.601-3.2.626.626 0 0 1 .35-.25c.167-.066.334-.101.5-.101l14.75.2c.233 0 .45.101.65.3 2.5-3.066 4.8-6.316 6.899-9.75a196.267 196.267 0 0 0 3.301-5.75l.75-1.449-14.4-.7a1.214 1.214 0 0 1-.6-.25h-.052c-.166-.167-.283-.367-.35-.601s-.033-.466.1-.699c.434-.934.9-1.867 1.4-2.801a1.1 1.1 0 0 1 .15-.35c.033-.167.1-.3.199-.4v-.05c.134-.3.267-.583.4-.85a.96.96 0 0 1 .4-.5c.166-.101.366-.15.6-.15l15 .75c.1 0 .2.017.3.05 2.634-6 4.783-12.199 6.45-18.6l-14.5-.85a.932.932 0 0 1-.6-.2 1.061 1.061 0 0 1-.351-.5h.05c-.1-.2-.116-.384-.05-.55.3-1.2.601-2.384.9-3.551 0-.033.017-.05.05-.05.066-.366.15-.717.25-1.05a.953.953 0 0 1 .4-.55.801.801 0 0 1 .649-.2l14.55.8c.067 0 .134.017.2.05a134.523 134.523 0 0 0 2.4-20.649l-13.45-.9c-.3-.033-.533-.149-.7-.35-.2-.233-.3-.483-.3-.75.1-1.434.217-2.834.35-4.2v-.05c0-.167.017-.316.051-.45 0-.267.116-.5.35-.7a.883.883 0 0 1 .7-.2l13.1.851c0-.867-.017-1.717-.05-2.55 0-.367-.017-.717-.05-1.051a93.2 93.2 0 0 0-.45-6.899l-40.7-3.7c.202 3.533.268 7.066.202 10.6zm-75.2-24.6c.834 0 1.533.3 2.101.9.566.566.85 1.25.85 2.05-.033.8-.316 1.467-.85 2v.05c-.567.533-1.267.8-2.101.8-.767 0-1.434-.283-2-.85v.05c-.566-.566-.85-1.25-.85-2.05s.283-1.483.85-2.05c.566-.6 1.233-.9 2-.9zm-28.7 25.7c-.333-.033-.6-.167-.8-.4s-.3-.467-.3-.7v-.149l.3-4.65c0-.333.134-.6.4-.8.233-.2.517-.3.85-.3l14 .95v-14.65l-49.1-3.15a458.312 458.312 0 0 1-.35 15.101l-.4 6.5c-.034.366-.05.75-.05 1.149a171.26 171.26 0 0 1-5.75 33.2 727.581 727.581 0 0 0-1.3 4.351c-3.9 12.6-9.583 24.466-17.05 35.6-6.133 9.066-13.4 16.566-21.8 22.5h49.9a64.385 64.385 0 0 0 9.95-5.95 64.59 64.59 0 0 0 6.3-5.45l-13.4-.149c-.333-.033-.6-.15-.8-.351-.233-.233-.35-.483-.35-.75-.033-.3.066-.566.3-.8l3.65-4.55a.81.81 0 0 1 .4-.35.684.684 0 0 1 .5-.101l14.9.25c.267-.033.5.033.7.2a79.375 79.375 0 0 0 6.15-9.35c1.7-3.067 3.283-6.167 4.75-9.301.1-.267.233-.517.399-.75l-14.149-.75c-.267 0-.5-.066-.7-.199a.973.973 0 0 1-.35-.65.974.974 0 0 1 0-.75l2-4.5c.1-.233.25-.417.45-.55.2-.134.433-.2.7-.2l14.45.75a.42.42 0 0 1 .35.05 117.507 117.507 0 0 0 5.2-17.649c.267-1.2.533-2.384.8-3.551l-13.8-.8a1.205 1.205 0 0 1-.6-.25c-.2-.166-.334-.35-.4-.55-.1-.2-.116-.4-.05-.6l.9-4.601a.948.948 0 0 1 .399-.7c.233-.166.5-.233.8-.199l13.851.8h.149a176.116 176.116 0 0 0 2.2-21.351l-14.199-.9zm50.55-22.75c.566.533.866 1.2.899 2-.033.8-.316 1.483-.85 2.05l-.05.05c-.534.533-1.2.8-2 .8a2.795 2.795 0 0 1-2.051-.85v.05c-.6-.566-.899-1.267-.899-2.1 0-.8.3-1.467.899-2 .567-.601 1.25-.9 2.051-.9.8 0 1.483.3 2.05.9h-.049zm15.75 1.95c.566-.601 1.25-.884 2.05-.851.8-.033 1.483.25 2.05.851.566.566.85 1.25.85 2.05s-.283 1.483-.85 2.05c-.566.533-1.25.816-2.05.85-.8 0-1.483-.283-2.05-.85-.567-.566-.851-1.25-.851-2.05s.284-1.483.851-2.05zm-136.8-129.5a6.18 6.18 0 0 1-.55-.75l-6 .9c1.1 3.133 1.767 5.65 2 7.55.233 1.867.467 3.667.7 5.4s.25 4.433.05 8.1l-4.8-2.95c2.4 3.833 4.167 6.7 5.3 8.6 1.3-.733 2.117-1.167 2.45-1.3 1.967-1 3.933-1.983 5.9-2.95a622.55 622.55 0 0 1 6.7-3.25c1.2-.6 2.433-1.167 3.7-1.7 4.833-2.066 9.833-2.917 15-2.55h.1l-.8-4.05c-.267-2.867-.333-5.3-.2-7.3a20.718 20.718 0 0 0-4.55-1.65l-1.6 3.1c-2.033 1.667-4.417 2.517-7.15 2.55-2.567 0-5.05-.467-7.45-1.4a22.359 22.359 0 0 1-4.8-2.65c-.7-.5-1.35-1.017-1.95-1.55a15.527 15.527 0 0 1-2.05-2.15zm26.1-23.2c-.067-.2-.217-.5-.45-.9-6.133-1.833-12.633-2.417-19.5-1.75-.1 0-.2.034-.3.1a.616.616 0 0 0-.25.15c-.2.1-.367.2-.5.3-.2 1.6-.25 3.066-.15 4.4v.05c.167 2.034.45 3.15.85 3.35 2.067.5 4.333.667 6.8.5.833 0 1.5-.183 2-.55l.45-.55a.588.588 0 0 1 .1-.15l.85-1.05c.367-.633.85-.917 1.45-.85.934.033 1.867.117 2.8.25h.05c.5 0 .883.3 1.15.9v.05l.3.8c0 .033.017.067.05.1l.5 1.4c.033.1.05.167.05.2.966.167 1.816.2 2.55.1.267-.333.433-.65.5-.95v-.05c.733-2.233.967-4.183.7-5.85zm-6.2 6.6a.953.953 0 0 1-.05-.3c-.6-.167-1.2-.233-1.8-.2a.451.451 0 0 0-.2.05c-.067.033-.1.066-.1.1-.1.133-.2.283-.3.45l-.4.6c-.167.2-.3.4-.4.6a1.335 1.335 0 0 0-.3.45c-.067.034-.1.067-.1.1-.567.233-1.184.4-1.85.5s-1.283.2-1.85.3c-.467.033-.85.066-1.15.1h-.3c-.633.1-.983.25-1.05.45-.1.2-.183.4-.25.6-.033.133-.05.283-.05.45 0 .034.017.067.05.1v.1c-.033.033-.033.067 0 .1 0 .1.017.217.05.35.066.3.15.6.25.9l.2.7c.133.534.317 1.067.55 1.6a4.4 4.4 0 0 0 1.3 1.05l1.5.8 1.55.45c.167 0 .35.017.55.05h1.4c.167-.033.35-.05.55-.05a9.866 9.866 0 0 0 1.95-.5c.6-.267 1.033-.5 1.3-.7.233-.2.4-.383.5-.55l.3-.75c.167-.534.367-1.083.6-1.65.033-.167.066-.316.1-.45.133-.367.217-.65.25-.85.034-.3.117-.733.25-1.3 0-.167-.083-.3-.25-.4-.2-.1-.316-.15-.35-.15a2.588 2.588 0 0 0-.25-.15 3.82 3.82 0 0 0-.7-.2c-.233-.066-.45-.133-.65-.2l-.1-.1a9.577 9.577 0 0 1-.1-.45c-.133-.3-.2-.5-.2-.6a9.56 9.56 0 0 0-.2-.7 5.931 5.931 0 0 1-.25-.7zm22.1 44.7c.533.567.816 1.25.85 2.05v.25c-.034.7-.267 1.3-.7 1.8-.333.367-.683.617-1.05.75-.267.1-.534.15-.8.15-.7 0-1.3-.267-1.8-.8-.533-.534-.817-1.217-.85-2.05-.033-.8.2-1.483.7-2.05.5-.6 1.117-.9 1.85-.9.7-.033 1.3.233 1.8.8zm-.15 17.1c0-.767.25-1.434.75-2 .066-.1.15-.2.25-.3.433-.433.95-.65 1.55-.65s1.133.2 1.6.6l.25.25c.5.567.767 1.233.8 2 .033.833-.2 1.533-.7 2.1-.4.467-.883.75-1.45.85h-.35a2.285 2.285 0 0 1-1.85-.75 2.845 2.845 0 0 1-.85-1.95v-.15zM49.9 324.45v.05a40.479 40.479 0 0 0-.85 6.85 53.232 53.232 0 0 0-.05 3.95c0 .767.033 1.533.1 2.3.467 5.334 1.95 10.067 4.45 14.2.267.467.55.917.85 1.351 3.3 4.733 7.4 7.1 12.3 7.1h.1c5.233-.033 9.867-2.85 13.9-8.45.233-.3.45-.616.65-.95l1-1.6c.9-1.533 1.7-3.15 2.4-4.85 1.533-3.934 2.433-8.284 2.7-13.051.4-8-1.117-14.816-4.55-20.449-.9-1.434-1.833-2.684-2.8-3.75a.785.785 0 0 1-.15-.2 18.215 18.215 0 0 0-2.35-2l-4.35 3.1c2.4 1.066 4.517 3.101 6.35 6.101 2.767 4.699 3.983 10.366 3.65 17-.367 6.633-2.2 12.283-5.5 16.949-1.4 1.967-2.883 3.534-4.45 4.7l-.9.601c-.4.233-.783.449-1.15.649-4.2 1.566-7.867 1.2-11-1.1 2.033 1 4.75 1.133 8.15.399-2.6-1.033-4.85-3.133-6.75-6.3a18.689 18.689 0 0 1-1.45-2.95l-6.55-.199c-.3-.767-.55-1.551-.75-2.351l6.4.2a26.608 26.608 0 0 1-1.05-4.4l-6.15-.199c-.1-.733-.15-1.467-.15-2.2a35.94 35.94 0 0 1 0-3.8c.167-3.367.716-6.467 1.65-9.301l-3.7 2.6zm156.9-147.6c.733-.033 1.367.233 1.9.8.5.567.75 1.25.75 2.05.033.8-.184 1.483-.65 2.05-.5.567-1.117.867-1.85.9-.467 0-.883-.117-1.25-.35a1.325 1.325 0 0 1-.35-.25.555.555 0 0 1-.2-.2 2.879 2.879 0 0 1-.55-.75c-.2-.4-.3-.833-.3-1.3-.033-.8.2-1.483.7-2.05.2-.233.417-.417.65-.55.333-.233.717-.35 1.15-.35zm-28.95 57.6-6.15 4.35c.5.7 1 1.45 1.5 2.25 3.2 5.4 5.066 11.617 5.6 18.65.1 1.333.15 2.7.15 4.1 0 1.101-.034 2.217-.1 3.351v.05c-.033.033-.033.083 0 .149-.6 10.067-3.417 18.684-8.45 25.851-2.167 3.033-4.45 5.434-6.85 7.2a.606.606 0 0 0-.1.149l-1.3.8c-.6.367-1.183.7-1.75 1h-.05c-6.4 2.434-12.017 1.884-16.85-1.649 3.133 1.533 7.3 1.733 12.5.6a24.329 24.329 0 0 1-1.65-.75c-3.3-1.767-6.2-4.733-8.7-8.899a38.725 38.725 0 0 1-2.3-4.551l-10.05-.25a38.962 38.962 0 0 1-1.1-3.699l9.8.3a46.486 46.486 0 0 1-1.55-6.75l-9.45-.3a27.903 27.903 0 0 1-.3-3.4c-.1-1.767-.1-3.566 0-5.4l-4.7 3.351a31.578 31.578 0 0 0 0 2.5c.067 1.2.15 2.383.25 3.55.7 8.3 2.983 15.634 6.85 22 .333.533.667 1.05 1 1.55.133.167.267.351.4.55 5.1 7.367 11.417 11.067 18.95 11.101h.2c7.633-.101 14.434-3.983 20.4-11.65.367-.5.75-1.017 1.15-1.55.333-.467.667-.95 1-1.45.533-.8 1.066-1.616 1.6-2.45a55.507 55.507 0 0 0 3.65-7.5c2.4-6.1 3.8-12.85 4.2-20.25.033-1.133.05-2.233.05-3.3.033-1.5.017-2.95-.05-4.35-.5-9.134-2.85-17.134-7.05-24a69.813 69.813 0 0 1-.75-1.254zM114.7 309.2l-.75-.9c-.467-.6-.867-1.233-1.2-1.899l-.15.1c-.033-.033-.05-.066-.05-.1l-8.15 5 .75 4.6 11.1-5.45a10.068 10.068 0 0 1-1.55-1.351zm4.7-19.45c-1.066-2.9-1.65-7.217-1.75-12.95l-33.2 23.351c2.133 1.233 4.15 3.05 6.05 5.449a41 41 0 0 1 1.8 2.5c4.067-2.8 7.767-5.316 11.1-7.55 6.9-4.7 12.233-8.3 16-10.8zm-21 46.4c1.833-2.467 3.9-3.7 6.2-3.7.167 0 .35.017.55.05.333 0 .65.05.95.15 1.566.433 2.9 1.6 4 3.5 1.233 2.199 1.8 4.8 1.7 7.8-.033.366-.05.75-.05 1.149-.333 3.5-1.417 6.483-3.25 8.95-.767 1.033-1.567 1.867-2.4 2.5-.033 0-.05.017-.05.05-.167.067-.316.15-.45.25l-.6.301c-2.233.833-4.15.649-5.75-.551.933.467 2.167.584 3.7.351.167-.066.35-.117.55-.15l-.5-.2c-1.133-.633-2.117-1.666-2.95-3.1-.3-.5-.55-1.017-.75-1.55l-3.4-.101a5.332 5.332 0 0 1-.35-1.25l3.35.101c-.2-.733-.333-1.5-.4-2.3l-3.3-.101c-.034-.399-.05-.783-.05-1.149 0-.667.033-1.351.1-2.051 0-.399.033-.783.1-1.149.233-1.867.717-3.566 1.45-5.101.433-.965.967-1.866 1.6-2.699zm40.25-16.45c-.967.233-1.85.45-2.65.649-2.5.9-4.817 2.75-6.95 5.551-2.3 2.899-3.933 6.25-4.9 10.05-.3 1.1-.533 2.267-.7 3.5-.1.5-.167 1.017-.2 1.55a30.09 30.09 0 0 0-.25 2.9c0 .6.017 1.183.05 1.75.1 3.933 1 7.416 2.7 10.449.133.267.267.517.4.75.067.101.133.184.2.25 2.233 3.5 5.15 5.267 8.75 5.301h.1c3.633-.034 6.966-1.884 10-5.551.2-.233.4-.483.6-.75.167-.233.35-.449.55-.649l.8-1.2a26.733 26.733 0 0 0 1.95-3.6c1.3-2.9 2.15-6.117 2.55-9.65.033-.533.067-1.05.1-1.55.333-5.233-.55-9.75-2.65-13.55-.6-1.067-1.233-2-1.9-2.801a.547.547 0 0 1-.15-.1c-2-2.233-4.433-3.35-7.3-3.35a12.65 12.65 0 0 0-1.1.051zM97 332.85c-1.8 2.4-3.083 5.134-3.85 8.2-.2.934-.367 1.884-.5 2.851-.066.433-.117.866-.15 1.3-.067.8-.1 1.6-.1 2.399 0 .434.017.884.05 1.351.167 3.233.95 6.083 2.35 8.55.1.2.217.417.35.65a.765.765 0 0 1 .15.199c1.9 2.867 4.333 4.301 7.3 4.301h.05c2.967-.034 5.65-1.534 8.05-4.5.167-.233.333-.45.5-.65a7.94 7.94 0 0 0 .4-.55c.233-.334.45-.65.65-.95a27.187 27.187 0 0 0 1.5-2.95c1-2.366 1.633-4.983 1.9-7.85l.1-1.3c.167-4.267-.633-7.95-2.4-11.051a13.453 13.453 0 0 0-1.6-2.25.547.547 0 0 1-.15-.1c-1.667-1.833-3.667-2.733-6-2.7-.3 0-.583.017-.85.05l-2.15.45c-2.033.733-3.9 2.25-5.6 4.55zm42.05-7.4c.4 0 .8.066 1.2.2 1.9.533 3.483 1.966 4.75 4.3 1.467 2.666 2.1 5.85 1.9 9.55 0 .467-.017.934-.05 1.4-.5 4.267-1.9 7.916-4.2 10.949-1 1.267-2.017 2.284-3.05 3.051-.033 0-.05.017-.05.05-.2.1-.383.2-.55.3a9.768 9.768 0 0 0-.8.45c-2.733 1-5.083.767-7.05-.7 1.167.566 2.7.684 4.6.35.2-.033.417-.083.65-.149-.2-.066-.4-.15-.6-.25-1.4-.733-2.583-1.983-3.55-3.75a14.404 14.404 0 0 1-.85-1.95l-4.2-.1c-.167-.5-.284-1-.35-1.5l4.1.1c-.233-.9-.4-1.85-.5-2.85l-4-.101c-.034-.467-.034-.95 0-1.45 0-.8.05-1.616.15-2.449.033-.467.083-.934.15-1.4.367-2.3 1.017-4.384 1.95-6.25.533-1.2 1.2-2.3 2-3.3 2.3-3.066 4.85-4.601 7.65-4.601.233 0 .467.034.7.1z"/></svg>
