<svg xmlns:xlink="http://www.w3.org/1999/xlink" xmlns="http://www.w3.org/2000/svg" viewBox="0 0 318 318"><g><use height="318" width="318" xlink:href="#a"/><use height="314.6" transform="translate(20.39 36.8) scale(.6972)" width="398.4" xlink:href="#b"/><use height="41.25" transform="translate(13.2 263.9)" width="291.5" xlink:href="#c"/></g><defs><g id="a" fill-rule="evenodd"><path d="M92.15 28.7q2.6-1.6 2.5-5.8L70.35 24l-2.55 1.15q-9.75 4.65-16.65 12.6l-2.55 16q.55 3.5 3.85 4.6l1.15-.25q22.6-9 32.1-32.95l5.1 4.6 1.35-1.05M0 0h318v318H0V0"/><path d="m90.8 29.75-5.1-4.6Q76.2 49.1 53.6 58.1l-1.15.25q-3.3-1.1-3.85-4.6l2.55-16q6.9-7.95 16.65-12.6L70.35 24l24.3-1.1q.1 4.2-2.5 5.8l-1.35 1.05"/><path d="M256.85 10H308v38.05l-97.55 223.9h-25.4L256.85 10M308 151.25v73.15l-50.6 47.55-22.45.05L308 151.25M198.45 10l-32.5 262H153.1L120.6 10h77.85M72.15 46.2l61.9 225.75h-25.4L10 45.55V10h52.2l4.35 15.8q-8.95 4.5-15.4 11.95l-2.55 16q.55 3.5 3.85 4.6l1.15-.25q10.75-4.3 18.55-11.9M10 149.45 84.15 272l-22.5-.05L10 223.4v-73.95" fill="#ffb50e"/><path d="m256.85 10-71.8 261.95-19.1.05 32.5-262h58.4m-46.4 261.95L308 48.05v103.2L234.95 272l-24.5-.05M308 224.4v47.55h-50.6L308 224.4M72.15 46.2q8.55-8.5 13.55-21.05l5.1 4.6 1.35-1.05q2.6-1.6 2.5-5.8L70.35 24l-2.55 1.15-1.25.65L62.2 10h58.4l32.5 262-19.05-.05L72.15 46.2M10 45.55l98.65 226.4-24.5.05L10 149.45V45.55m0 177.85 51.65 48.55H10V223.4" fill="#fff17a"/><path d="m66.55 25.8 1.25-.65L70.35 24l24.3-1.1q.1 4.2-2.5 5.8l-1.35 1.05-5.1-4.6q-5 12.55-13.55 21.05l-5.6-20.4" fill="#fff17a"/><path d="M72.15 46.2q-7.8 7.6-18.55 11.9l-1.15.25q-3.3-1.1-3.85-4.6l2.55-16q6.45-7.45 15.4-11.95l5.6 20.4" fill="#ffb50e"/><path d="m17.95 216.85.35 13.9 5.25-.2-1.7-8.25 8.5-1.35 3.15 17.85 2.65-.4 213.1-1.3v-29h21.95l.25 6.3 5.15 1.5 3.2-10.95-.2.7 8.6 2.7v18.35l6-.25-.7-9.95 8.7-3.75.55.2.95 7.9 5.3-.4V297H9v-78.55l8.95-1.6"/></g><g id="b" fill-rule="evenodd"><path d="M-74.4-299.75q.5-5.3 4.7-9.1 4.85-4.4 11.7-4.4 7 0 11.85 4.4 3.1 2.85 4.15 5.9 1.7.8 2.85 1.6-.05 3.25-.6 6.4l1.2 1.75q-.3 3.85-1 7.45l-.65 2.8-4.15 1.65-.95 2.7.2.15v-.05l.6.15q1.35.5 2.55 1.35l.1.05 5 2.95 1.75 1.1 1.6 1.1q3 5.15 4.5 8.5 1.5 3.5 2.7 7.2l.1.05.1.2v.15l-.05.05.2.6.05.1-.15.2-.05.05-.5-.15q-.65.75-1.8 1l-.6.2-8.15 3.6q-4 1.75-7.75 3.9l-7.8 4.5q-3.85 2.25-7.9 4.25l-8.25 3.8q-2.4 1.05-4.9 1.7-6.15 1.55-12.45.85l-.95-.2q-.95-.3-1.6-.8l-.45-.35q-4.75-4.45-6.15-10.05-.7-2.7-.6-5.65 1.1-6.85 1.65-11.4l.55-2.05 1.75-5.95 3.7-9.5.15-.1q1.9-1.05 4.1-1.65l4.4-1.2 6.1-1.7h.1q-.6-1-.65-2.15-1.95-.4-3.35-1.95l-.05-.1-.35-.65-.35-4.2q-.1-2.35.4-6.55 1.1-1.65 3.05-2.3l.35-.15v-.05m10.25-2.2-.5.35-.15 4.8v.05q.3 3.35.95 3.65 3.35.85 7.4.55 1.35 0 2.15-.6l.5-.65.15-.1.9-1.15q.6-1 1.55-.95l3.1.3h.05q.8 0 1.25 1l.3.9.1.1.55 1.55v.2l2.8.1q.45-.55.6-1.05 1.15-3.65.7-6.4l-.5-1q-10-3-21.25-1.95l-.3.15-.35.15m26.2 32.05q-2.4-1.2-5-1.8l-1.7 3.4q-3.35 2.7-7.8 2.75-4.25.05-8.15-1.5-2.85-1.15-5.3-2.9l-2.1-1.7-2.25-2.35-.6-.8-6.5.95q1.8 5.15 2.2 8.25l.75 5.9q.35 2.85.05 8.85l-5.25-3.25 6.9 11.35.75.3 5.4.25q5.7-1.15 10.9-3.75 7.1-3.55 14.5-6.45 2.6-1.05 4.8-2.75l.2-.35h-.15l-.35-.3.1-.3-1.2-5.85q-.4-4.65-.2-7.95m-10.6-22.55-1.95-.2h-.25l-.1.15-.35.5-.4.65-.45.65-.35.5-.05.1-2.05.55-2 .3-1.3.15h-.25q-1.05.15-1.2.5l-.25.65-.05.45v.25l.05.1.05.35.25 1.05.25.75.6 1.7q.55.75 1.4 1.2l1.65.85 1.7.5.6.05h1.55l.6-.05 2.1-.55q.95-.4 1.4-.75l.55-.6.35-.85.6-1.8.15-.45.3-.95.25-1.45-.3-.4-.4-.2-.25-.15-.75-.2-.75-.25-.05-.1-.15-.45-.2-.7-.2-.75-.3-.75-.05-.35" transform="translate(198.8 314.6)"/><path d="m-64.15-301.95.35-.15.3-.15q11.25-1.05 21.25 1.95l.5 1q.45 2.75-.7 6.4-.15.5-.6 1.05l-2.8-.1v-.2l-.55-1.55-.1-.1-.3-.9q-.45-1-1.25-1h-.05l-3.1-.3q-.95-.05-1.55.95l-.9 1.15-.15.1-.5.65q-.8.6-2.15.6-4.05.3-7.4-.55-.65-.3-.95-3.65v-.05l.15-4.8.5-.35m15.6 9.5.05.35.3.75.2.75.2.7.15.45.05.1.75.25.75.2.25.15.4.2.3.4-.25 1.45-.3.95-.15.45-.6 1.8-.35.85-.55.6q-.45.35-1.4.75l-2.1.55-.6.05H-53l-.6-.05-1.7-.5-1.65-.85q-.85-.45-1.4-1.2l-.6-1.7-.25-.75-.25-1.05-.05-.35-.05-.1v-.25l.05-.45.25-.65q.15-.35 1.2-.5h.25l1.3-.15 2-.3 2.05-.55.05-.1.35-.5.45-.65.4-.65.35-.5.1-.15h.25l1.95.2m10.6 22.55q-.2 3.3.2 7.95l1.2 5.85-.1.3.35.3h.15l-.2.35q-2.2 1.7-4.8 2.75-7.4 2.9-14.5 6.45-5.2 2.6-10.9 3.75l-5.4-.25-.75-.3-6.9-11.35 5.25 3.25q.3-6-.05-8.85l-.75-5.9q-.4-3.1-2.2-8.25l6.5-.95.6.8 2.25 2.35 2.1 1.7q2.45 1.75 5.3 2.9 3.9 1.55 8.15 1.5 4.45-.05 7.8-2.75l1.7-3.4q2.6.6 5 1.8" fill="#fff" transform="translate(198.8 314.6)"/><path d="m170.25-304.3 5.65 1 1.3.5q3.6 1.65 5.65 4l-.8-.35q-3.35-1.4-5-1.1L154.2-279.2q.95 3.4 3.45 6.15l30.85-17.85q1.65 1.9 1.7 6.05l-.05.6-29.55 13.9q1.8 1.25 3.8 2l23.8-7.05q-.6 2.75-4.55 6.45-6.15 5.65-14.65 5.3-4.8-.25-8.75-2.3v-.05q-2.5-1.35-4.7-3.45l-.8-.85q-1.3-1.4-2.3-2.9l-.05-.1-.1-.05q-1.7-2.7-2.5-5.75-.7-2.8-.6-5.8.25-8.4 6.4-14.1 6.2-5.7 14.65-5.3m20.65-.2.05.05.05.05.1.05 3.2 4.1.25.3.15.2h-.05q5.2 7.95 4.95 17.9-.3 9.15-5.15 16.3l-.05.1h-.05q-1.95 2.8-4.65 5.4-5 4.45-10.75 6.55h-.15l-36.5 15.6v.05l-.15.05-.65.3-.1.05q-3.95 1.5-8.45 1.7l-3.7-.1-.25-.05-20.3 10.9-17.6 9.4-5.45 2.85h-.05l2.95 8.85q1.55 5.2 2.4 10.5l.65 5.25 9.6 1.2-.05-.05h.05q1.55.2 2.65 1.4l.05.05h.05l.45.6.4.7.3 1.3v.2l.5 8.35 18.45 1.15q16.1 1.45 27.3 4.05l.35.05.1.05q6.9 2.1 12.85 6.95l4.2 3.8q3.9 4.1 7.4 9.55l1.45 2.35 1.9 3.45 1.8 3.65.05.05 1.05 2.5v-.05l1.15 2.65.05.05q.85 1.8 1.3 3.8v.05l.05 1.15v.1q-.2 1.75-1.75 2.9v.05l-11.75 8.35.25 6.6q.25 17.3-2.95 34.4-1.4 7.4-3.55 14.55-3.9 12.85-10.2 24.8-10.25 19.3-27.7 32.35-3.55 2.7-7.25 4.7l-1 .25H-165.9l-4.9.1H-171.1l-.4-.05H-171.65l-2.85-.2q-9.7-1.6-16.7-12.65l-.05-.1q-7.55-11.85-7.55-28.25 0-16.5 7.6-27.85l.1-.15 3.4-4.7q-.45-10.65 1.75-19.55 7.5-8.4 16.8-17.65 13.9-13.85 31.85-29.7l.2-11.3.6-15 1-15.25q.8-10.4 2.1-20.2.2-1.8 1.55-2.8h.05l4.45-3.6 6.15-4.7q6.7-5.15 13.45-9.9l5.65-3.95 10.5-7.05h-.05.05q18.75-10.7 20.45-11.5l6.45-3.2 7.3-3.55 4.05-1.9q7.9-3.35 16.4-2.75l95.5 14.2h.05q.9.1 1.75.65l3.85 2.7.05-.05 43.35-30.5.1-.3-.05.1.9-2.15q.9-2.05 2.3-3.9 2.05-2.85 4.85-5l1.5-1.15v-.05l.2-.1 5.45-4.4 18.35-14.7.2-.25 5.2-4.15.15-.2.6-.5q2.2-1.9 4.75-3.3l.25-.15q7.45-4.25 16.75-3.85 12.9.55 21.8 10.05M88.4-158.35q-3.45-1.45-7.25-2.5l-51.2-5q3.6 5.45 5.9 11.7l.7 2 1.65 6.05v.8l-.05.25-.6 1.1L27-133.75l.1 5 82.8 7.55q1.55-16.25-6.4-26.25v.05q-5.85-6.95-15.1-10.95m10.05-16.4-.25-5.35-130.05-15.75-.1 5.55 5.1.3 4.65.35h.25l9.1.9h.05l5.3.7q10.95 1.7 17.6 4.55l.25.1 6.5 3.7 3.25 2.3 3.8 3.35.2.2.45.5.1.1 56.95 5.85 4.15-5.1q1.9-2.55 4.9-2.5l7.8.25m60.3 16.4q-4.2-3-8.9-4.5-17.55-3.95-47.5-5.25l-.8-.05h-1l.65.25.9.4q8.25 3.65 13.65 9.15 7.95 8.05 9.75 19.9l51.5 4.9q-2.75-6.05-6.35-11.7-5.3-8.4-11.9-13.1m-92.1-41.1L66.5-203l-17.55 9.25-.3.95v.5l16.4 2.15.05-.15.2-.6.1-.45.1-.2.45-1.4-.05.05.45-2.35v-.1l.3-4.1m5.5-6.55q.55 3.25.6 6.25l-.25 4.55-.05.3-.5 2.8-.35 1.35-.45 1.35L85-187.65l-.25-2.35-.7-4.85-.35-1.9-.75-3.2Q81.75-204.7 80-209l-.4-.9-7.45 3.9m-25-21.65 11.55-8.15-1.6-1.1-93.75-13.5q-4.05-.25-3.85 3.25 3.85 9.35 6.9 21.3l.55 2.25 1.25 6.25.6 3.65.6 4.7.1.7.5 6.25h.25l22.5 2.85h.05l.05-.6-.1-7.8-.35-3.95-.7-5.8q-.8-5.55-3.2-13.65 1.65-2.1 3.9-3.05l3.15-.7 51.6 7.1m-11.2 23.15.2.5 75.75-46.1v-.05q-1.45-2.55-2.2-5.4-.65-2.35-.8-4.9-.1-1.75.05-3.35L39.5-215.65l-.1.05q-1.05.65-1.9 1.65-1.65 1.85-2.05 4.25l-.1.7v1.65q.1 1.5.6 2.85M1.3-228.25l-.75.3q5.15 6.9 5.55 13.65.5 8.25-2.95 15.15l-.6 1.15 22.25 2.6q6-19.9 7.65-22.05l8-5.5-39.15-5.3m185.1-71.8q-7.2-7.7-17.65-8.2-8.45-.4-15.3 3.9l-5.55 4.15q-12.25 9.6-23.35 19.25l-6.85 5.85-.45.45q-1.9 2.1-3 4.5l-1.05 2.8-.05.05V-267.15l-.05.05q-.45 1.4-.6 2.9-.2 1.7-.05 3.55.1 1.85.5 3.6l27.7-19.05q-.35-4.55 2.25-9.55l.05 3.1q.1 2.5.7 5.25v.05q.9 3.65 3 6.95 1.3 2 3.05 3.9 1.6 1.7 3.4 3.1l.55.4.85.6.15.05q5.55 3.65 12.7 4 4.85.25 9.1-1.15h.1l.05-.05h.05q4.7-1.65 8.7-5.3 7.6-7 7.9-17.25.25-8-3.95-14.4l.05.05-2.95-3.7m-83.35 169.5q.9.9.95 2.2-.05 1.3-.95 2.25-.9.9-2.2.95-1.35-.05-2.25-.95-.95-.95-.95-2.25t.95-2.2q.9-.95 2.25-.95 1.3 0 2.2.95m-18.55.15q0 1.3-.9 2.25h-.05q-.9.9-2.2.9-1.3 0-2.25-.9-.95-.95-.9-2.25-.05-1.3.9-2.25.95-.95 2.25-.9 1.3-.05 2.25.9h-.05q.95.95.95 2.25M9.3-176.85l-3.5-1.35q-5.8-2-13.4-3.2l-11.95-1.35-2.45-.15-.7-.05-11.2-.75-7.75-.55-7.05-.5-8 2.5q-7.8 2.7-15.85 6.35-19.85 8.95-41.2 23.75l-8 5.7 10.45-5.7q31.35-16.8 50.6-23.25l8.5-2.45q3.15 1.2 5.9 3.25 8.8 6.6 13.2 21.6l64.15 5.6-1.6-4.75L28.3-155q-2.15-4.6-5.05-8.8v-.05l-2.6-3.4-3.5-3.7-4.55-3.75-3.3-2.15m110.65 54.15q.35 5.75.2 11.55l-.05.55q-.6 17.5-4.7 34.6l-.7 2.85q-3.5 14.1-9.75 27.2l-1.2 2.6Q97.6-30.7 88.55-20l-6.75 7.3-6.65 6h43.35q7.1-4.65 13.15-10.4l-14.6-.25q-.45 0-.75-.3-.35-.35-.35-.75-.05-.5.25-.85l1.25-1.35.1-.15 2.8-3.45.4-.3.55-.1 16.15.25.7.25q4.05-4.95 7.5-10.6l3.6-6.3.8-1.6-15.7-.7q-.4-.05-.65-.3h-.05q-.3-.25-.35-.65l.05-.75 1.55-3.05v-.05l.15-.35h.05l.15-.45.45-1 .45-.5.65-.15 16.4.75.35.1q4.3-9.8 7-20.3l-15.85-.9q-.35-.05-.6-.25l-.4-.55v-.65l1-3.85v-.05l.3-1.15.45-.6.7-.2 15.9.9h.15q2.25-11.2 2.7-22.55l-14.7-.95q-.5 0-.8-.35-.3-.4-.3-.85l.35-4.6v-.05l.05-.45q.05-.5.4-.75.35-.3.8-.25l14.3.9-.05-2.75v-.05l-.05-1.15-.55-7.5-44.4-4.05M38.1-137.95q1.3 0 2.25.95.9.9.95 2.2-.05 1.3-.95 2.25-.95.9-2.25.95-1.3-.05-2.2-.95-.95-.9-.95-2.25 0-1.3.95-2.2.9-.95 2.2-.95m-32.25 27.6q-.3-.35-.3-.8v-.15l.35-5.05q0-.55.4-.85.4-.4.9-.35l15.3 1v-16l-53.6-3.4q0 8.25-.4 16.5l-.4 7.05-.05 1.25q-1.4 18.55-6.3 36.25l-1.4 4.8Q-46-49.5-58.25-31.3-68.3-16.4-82.05-6.7h54.45q5.7-2.75 10.85-6.5 3.65-2.7 6.9-5.9l-14.65-.2q-.5-.05-.85-.4l-.4-.8.3-.9 4.05-5 .45-.35.55-.1 16.25.25.75.25q3.7-4.85 6.7-10.2 2.8-5 5.2-10.15l.4-.85-15.4-.75-.75-.3-.45-.65.05-.8 2.2-5 .45-.55.75-.2 15.8.75.4.05q3.6-9.4 5.65-19.2l.85-3.9-15.05-.85-.65-.3-.45-.55-.05-.7 1-5 .45-.75q.4-.3.9-.25l15.1.9h.15q1.9-11.6 2.4-23.35l-15.55-1q-.5-.05-.85-.4m56.1-20v.05q-.9.9-2.2.9-1.3 0-2.25-.95v.05q-.95-.95-.95-2.25t.95-2.25q.95-.95 2.25-.9 1.3-.05 2.2.9.9.95.95 2.25-.05 1.3-.95 2.2m-80.8-94.4q.05 1.35-.75 2.3h-.05q-.65.75-1.55.9l-.4.05q-1.15 0-2-.9-.85-.85-.9-2.1v-.15q-.05-1.3.8-2.2l.25-.3q.7-.7 1.7-.7t1.75.65l.25.25q.85.9.9 2.2m-7.5-19.45q1.15 0 2 .9.85.9.9 2.25v.25q-.05 1.15-.75 2-.5.55-1.15.8l-.85.15q-1.2 0-2-.9-.9-.9-.9-2.2-.05-1.3.75-2.25.8-1 2-1m5.55 34.65 1.3-.35q1.2-.05 2.05.85.85.95.85 2.25.05 1.3-.75 2.25-.8.9-2 .95-.75 0-1.35-.35l-.4-.25-.25-.3-.55-.75q-.35-.65-.35-1.45-.05-1.3.8-2.25l.65-.6M-180.55-29.9l-1.1-4.8-6.75-.2-.15-2.45v-4.15q.25-5.5 1.8-10.15l-4 2.85-.05.1q-.75 3.55-.9 7.45l-.05 4.3.1 2.5q.75 8.8 4.85 15.55l.95 1.45q5.4 7.75 13.4 7.75h.1q8.6-.05 15.2-9.2l.7-1.05 1.1-1.75q1.5-2.55 2.6-5.3 2.5-6.45 2.95-14.25.7-13.05-4.95-22.3-1.45-2.35-3.1-4.1l-.15-.25-2.55-2.15-4.8 3.35q4 1.75 6.95 6.7 4.6 7.65 4 18.5v.05q-.55 10.8-5.95 18.5-2.3 3.2-4.9 5.1l-1 .65q-.6.4-1.25.7-6.85 2.6-12-1.15 3.35 1.6 8.9.4-4.25-1.7-7.35-6.85l-1.6-3.2-7.15-.2-.8-2.6 6.95.2M-56.2-139.8q5.25 8.8 6.1 20.35l.2 4.45-.15 3.7v.15q-.9 16.55-9.2 28.25-3.5 5-7.45 7.9l-.15.1-1.4.9-1.95 1.1q-10.5 4-18.4-1.8 5.15 2.5 13.65.65l-1.8-.85q-5.4-2.85-9.5-9.7-1.45-2.4-2.5-4.95l-10.95-.3-1.25-4 10.7.3q-1.1-3.5-1.65-7.35l-10.4-.3-.3-3.75.05-5.85-5.15 3.6v2.75l.25 3.9q1.15 13.55 7.5 24l1.05 1.65.45.65q8.35 12.05 20.7 12.05h.2q12.5-.15 22.3-12.7l1.25-1.65 1.05-1.6 1.75-2.7q2.3-3.9 4-8.2 3.9-10 4.6-22.05v-.05l.1-3.6-.1-4.7q-.85-14.95-7.7-26.25l-.85-1.35-6.7 4.75 1.65 2.5m-73.75 94.65-1 .05-2.35.55q-3.3 1.2-6.1 4.95-2.95 3.9-4.15 8.95l-.55 3.1-.15 1.4-.15 2.6.05 1.55q.25 5.25 2.6 9.3l.4.7.15.2q3.1 4.7 7.9 4.7h.1q4.85-.05 8.8-4.9l.5-.7.45-.6.75-1.05 1.65-3.2q1.65-3.9 2.05-8.6l.1-1.4q.3-7-2.65-12.05-.8-1.4-1.75-2.45l-.1-.15q-2.75-2.95-6.55-2.95m-16.5-24.2 1.95 2.7 12.1-8.25 17.5-11.75q-1.75-4.75-1.95-14.15l-36.25 25.5q3.5 2 6.65 5.95m52.55 15.4-2.9.65q-4.05 1.5-7.6 6.1-3.7 4.75-5.35 10.95l-.75 3.8-.2 1.75-.25 3.15v1.9q.2 6.45 2.95 11.45l.45.8.2.25q3.7 5.75 9.6 5.8h.05q5.95-.1 10.95-6.05l.65-.8.6-.75.9-1.3q1.2-1.9 2.1-3.95 2.15-4.75 2.75-10.5l.15-1.75q.55-8.55-2.9-14.75l-2.1-3.05-.15-.15q-3.3-3.65-7.95-3.6l-1.2.05M-118.35-64l-1.7-1.4-.85-1-1.3-2.1-.15.1-.05-.1-8.9 5.45.8 5.05 12.15-6m-11.05 24.15q2.55.75 4.3 3.85 2.05 3.6 1.9 8.5l-.1 1.25q-.5 5.7-3.5 9.75-1.25 1.7-2.65 2.75l-.05.05-.5.25-.65.4q-3.65 1.35-6.3-.6l4.1.3.6-.1-.6-.25q-1.85-1-3.2-3.35l-.8-1.7-3.75-.1-.35-1.4 3.65.15-.45-2.55-3.6-.1-.05-1.3.1-2.2.15-1.25q.4-3.05 1.6-5.55l1.7-2.95q3-4.05 6.75-4.05l.65.05 1.05.15m44.5 7.5-.1 1.5q-.75 7-4.55 11.95-1.6 2.1-3.3 3.35l-.1.05-.6.35-.85.45q-4.5 1.7-7.65-.75 1.85.95 5 .4l.7-.15-.7-.3q-2.25-1.2-3.8-4.1l-.95-2.1-4.6-.1-.4-1.7 4.45.15-.5-3.1-4.4-.15v-1.55l.2-2.7.15-1.5q.6-3.75 2.15-6.85.9-1.95 2.15-3.6 3.8-4.95 8.4-5l.75.1 1.3.2q3.15.9 5.2 4.7 2.4 4.4 2.05 10.45" transform="translate(198.8 314.6)"/><path d="M170.25-304.3q-8.45-.4-14.65 5.3-6.15 5.7-6.4 14.1-.1 3 .6 5.8.8 3.05 2.5 5.75l.1.05.05.1q1 1.5 2.3 2.9l.8.85q2.2 2.1 4.7 3.45v.05q3.95 2.05 8.75 2.3 8.5.35 14.65-5.3 3.95-3.7 4.55-6.45l-23.8 7.05q-2-.75-3.8-2l29.55-13.9.05-.6q-.05-4.15-1.7-6.05l-30.85 17.85q-2.5-2.75-3.45-6.15l22.85-21.05q1.65-.3 5 1.1l.8.35q-2.05-2.35-5.65-4l-1.3-.5-5.65-1m16.15 4.25 2.95 3.7-.05-.05q4.2 6.4 3.95 14.4-.3 10.25-7.9 17.25-4 3.65-8.7 5.3h-.05l-.05.05h-.1q-4.25 1.4-9.1 1.15-7.15-.35-12.7-4l-.15-.05-.85-.6-.55-.4q-1.8-1.4-3.4-3.1-1.75-1.9-3.05-3.9-2.1-3.3-3-6.95v-.05q-.6-2.75-.7-5.25l-.05-3.1q-2.6 5-2.25 9.55l-27.7 19.05q-.4-1.75-.5-3.6-.15-1.85.05-3.55.15-1.5.6-2.9l.05-.05V-267.3l.05-.05 1.05-2.8q1.1-2.4 3-4.5l.45-.45 6.85-5.85q11.1-9.65 23.35-19.25l5.55-4.15q6.85-4.3 15.3-3.9 10.45.5 17.65 8.2M1.3-228.25l39.15 5.3-8 5.5q-1.65 2.15-7.65 22.05L2.55-198l.6-1.15q3.45-6.9 2.95-15.15-.4-6.75-5.55-13.65l.75-.3m34.65 23.75q-.5-1.35-.6-2.85V-209l.1-.7q.4-2.4 2.05-4.25.85-1 1.9-1.65l.1-.05 69.45-48.15q-.15 1.6-.05 3.35.15 2.55.8 4.9.75 2.85 2.2 5.4v.05L36.15-204l-.2-.5m11.2-23.15-51.6-7.1-3.15.7q-2.25.95-3.9 3.05 2.4 8.1 3.2 13.65l.7 5.8.35 3.95.1 7.8-.05.6h-.05l-22.5-2.85H-30l-.5-6.25-.1-.7-.6-4.7-.6-3.65-1.25-6.25-.55-2.25q-3.05-11.95-6.9-21.3-.2-3.5 3.85-3.25l93.75 13.5 1.6 1.1-11.55 8.15m25 21.65 7.45-3.9.4.9q1.75 4.3 2.95 9.05l.75 3.2.35 1.9.7 4.85.25 2.35-13.85-1.75.45-1.35.35-1.35.5-2.8.05-.3.25-4.55q-.05-3-.6-6.25m-5.5 6.55-.3 4.1v.1l-.45 2.35.05-.05-.45 1.4-.1.2-.1.45-.2.6-.05.15-16.4-2.15v-.5l.3-.95L66.5-203l.15 3.55m92.1 41.1q6.6 4.7 11.9 13.1 3.6 5.65 6.35 11.7l-51.5-4.9q-1.8-11.85-9.75-19.9-5.4-5.5-13.65-9.15l-.9-.4-.65-.25h1l.8.05q29.95 1.3 47.5 5.25 4.7 1.5 8.9 4.5m-60.3-16.4-7.8-.25q-3-.05-4.9 2.5l-4.15 5.1-56.95-5.85-.1-.1-.45-.5-.2-.2-3.8-3.35-3.25-2.3-6.5-3.7-.25-.1q-6.65-2.85-17.6-4.55l-5.3-.7h-.05l-9.1-.9h-.25l-4.65-.35-5.1-.3.1-5.55L98.2-180.1l.25 5.35m-10.05 16.4q9.25 4 15.1 10.95v-.05q7.95 10 6.4 26.25l-82.8-7.55-.1-5 10.55-10.2.6-1.1.05-.25v-.8l-1.65-6.05-.7-2q-2.3-6.25-5.9-11.7l51.2 5q3.8 1.05 7.25 2.5m-3.9 27.95q0-1.3-.95-2.25h.05q-.95-.95-2.25-.9-1.3-.05-2.25.9-.95.95-.9 2.25-.05 1.3.9 2.25.95.9 2.25.9t2.2-.9h.05q.9-.95.9-2.25m18.55-.15q-.9-.95-2.2-.95-1.35 0-2.25.95-.95.9-.95 2.2 0 1.3.95 2.25.9.9 2.25.95 1.3-.05 2.2-.95.9-.95.95-2.25-.05-1.3-.95-2.2m16.9 7.85 44.4 4.05.55 7.5.05 1.15v.05l.05 2.75-14.3-.9q-.45-.05-.8.25-.35.25-.4.75l-.05.45v.05l-.35 4.6q0 .45.3.85.3.35.8.35l14.7.95q-.45 11.35-2.7 22.55h-.15l-15.9-.9-.7.2-.45.6-.3 1.15v.05l-1 3.85v.65l.4.55q.25.2.6.25l15.85.9q-2.7 10.5-7 20.3l-.35-.1-16.4-.75-.65.15-.45.5-.45 1-.15.45h-.05l-.15.35v.05L133.35-45l-.05.75q.05.4.35.65h.05q.25.25.65.3l15.7.7-.8 1.6-3.6 6.3q-3.45 5.65-7.5 10.6l-.7-.25-16.15-.25-.55.1-.4.3-2.8 3.45-.1.15-1.25 1.35q-.3.35-.25.85 0 .4.35.75.3.3.75.3l14.6.25q-6.05 5.75-13.15 10.4H75.15l6.65-6 6.75-7.3q9.05-10.7 15.2-23.35l1.2-2.6q6.25-13.1 9.75-27.2l.7-2.85q4.1-17.1 4.7-34.6l.05-.55q.15-5.8-.2-11.55M9.3-176.85l3.3 2.15 4.55 3.75 3.5 3.7 2.6 3.4v.05q2.9 4.2 5.05 8.8l1.15 2.85 1.6 4.75-64.15-5.6q-4.4-15-13.2-21.6-2.75-2.05-5.9-3.25l-8.5 2.45q-19.25 6.45-50.6 23.25l-10.45 5.7 8-5.7q21.35-14.8 41.2-23.75 8.05-3.65 15.85-6.35l8-2.5 7.05.5 7.75.55 11.2.75.7.05 2.45.15 11.95 1.35q7.6 1.2 13.4 3.2l3.5 1.35m-30.1-32.7-.65.6q-.85.95-.8 2.25 0 .8.35 1.45l.55.75.25.3.4.25q.6.35 1.35.35 1.2-.05 2-.95.8-.95.75-2.25 0-1.3-.85-2.25-.85-.9-2.05-.85l-1.3.35m-5.55-34.65q-1.2 0-2 1-.8.95-.75 2.25 0 1.3.9 2.2.8.9 2 .9l.85-.15q.65-.25 1.15-.8.7-.85.75-2v-.25q-.05-1.35-.9-2.25-.85-.9-2-.9m7.5 19.45q-.05-1.3-.9-2.2l-.25-.25q-.75-.65-1.75-.65t-1.7.7l-.25.3q-.85.9-.8 2.2v.15q.05 1.25.9 2.1.85.9 2 .9l.4-.05q.9-.15 1.55-.9h.05q.8-.95.75-2.3m80.8 94.4q.9-.9.95-2.2-.05-1.3-.95-2.25-.9-.95-2.2-.9-1.3-.05-2.25.9-.95.95-.95 2.25t.95 2.25v-.05q.95.95 2.25.95t2.2-.9v-.05m-56.1 20q.35.35.85.4l15.55 1q-.5 11.75-2.4 23.35h-.15l-15.1-.9q-.5-.05-.9.25l-.45.75-1 5 .05.7.45.55.65.3 15.05.85-.85 3.9q-2.05 9.8-5.65 19.2l-.4-.05-15.8-.75-.75.2-.45.55-2.2 5-.05.8.45.65.75.3 15.4.75-.4.85q-2.4 5.15-5.2 10.15-3 5.35-6.7 10.2l-.75-.25-16.25-.25-.55.1-.45.35-4.05 5-.3.9.4.8q.35.35.85.4l14.65.2q-3.25 3.2-6.9 5.9-5.15 3.75-10.85 6.5h-54.45q13.75-9.7 23.8-24.6Q-46-49.5-39.65-70.1l1.4-4.8q4.9-17.7 6.3-36.25l.05-1.25.4-7.05q.4-8.25.4-16.5l53.6 3.4v16l-15.3-1q-.5-.05-.9.35-.4.3-.4.85l-.35 5.05v.15q0 .45.3.8m32.25-27.6q-1.3 0-2.2.95-.95.9-.95 2.2 0 1.35.95 2.25.9.9 2.2.95 1.3-.05 2.25-.95.9-.95.95-2.25-.05-1.3-.95-2.2-.95-.95-2.25-.95M-180.55-29.9l-6.95-.2.8 2.6 7.15.2 1.6 3.2q3.1 5.15 7.35 6.85-5.55 1.2-8.9-.4 5.15 3.75 12 1.15.65-.3 1.25-.7l1-.65q2.6-1.9 4.9-5.1 5.4-7.7 5.95-18.5v-.05q.6-10.85-4-18.5-2.95-4.95-6.95-6.7l4.8-3.35 2.55 2.15.15.25q1.65 1.75 3.1 4.1 5.65 9.25 4.95 22.3-.45 7.8-2.95 14.25-1.1 2.75-2.6 5.3l-1.1 1.75-.7 1.05q-6.6 9.15-15.2 9.2h-.1q-8 0-13.4-7.75l-.95-1.45q-4.1-6.75-4.85-15.55l-.1-2.5.05-4.3q.15-3.9.9-7.45l.05-.1 4-2.85q-1.55 4.65-1.8 10.15v4.15l.15 2.45 6.75.2 1.1 4.8M-56.2-139.8l-1.65-2.5 6.7-4.75.85 1.35q6.85 11.3 7.7 26.25l.1 4.7-.1 3.6v.05q-.7 12.05-4.6 22.05-1.7 4.3-4 8.2l-1.75 2.7-1.05 1.6-1.25 1.65q-9.8 12.55-22.3 12.7h-.2q-12.35 0-20.7-12.05l-.45-.65-1.05-1.65q-6.35-10.45-7.5-24l-.25-3.9v-2.75l5.15-3.6-.05 5.85.3 3.75 10.4.3q.55 3.85 1.65 7.35l-10.7-.3 1.25 4 10.95.3q1.05 2.55 2.5 4.95 4.1 6.85 9.5 9.7l1.8.85q-8.5 1.85-13.65-.65 7.9 5.8 18.4 1.8l1.95-1.1 1.4-.9.15-.1q3.95-2.9 7.45-7.9 8.3-11.7 9.2-28.25v-.15l.15-3.7-.2-4.45q-.85-11.55-6.1-20.35M-118.35-64l-12.15 6-.8-5.05 8.9-5.45.05.1.15-.1 1.3 2.1.85 1 1.7 1.4m24.45 10.05 1.2-.05q4.65-.05 7.95 3.6l.15.15 2.1 3.05q3.45 6.2 2.9 14.75l-.15 1.75q-.6 5.75-2.75 10.5-.9 2.05-2.1 3.95l-.9 1.3-.6.75-.65.8q-5 5.95-10.95 6.05h-.05q-5.9-.05-9.6-5.8l-.2-.25-.45-.8q-2.75-5-2.95-11.45v-1.9l.25-3.15.2-1.75.75-3.8q1.65-6.2 5.35-10.95 3.55-4.6 7.6-6.1l2.9-.65m-52.55-15.4q-3.15-3.95-6.65-5.95l36.25-25.5q.2 9.4 1.95 14.15l-17.5 11.75-12.1 8.25-1.95-2.7m16.5 24.2q3.8 0 6.55 2.95l.1.15q.95 1.05 1.75 2.45 2.95 5.05 2.65 12.05l-.1 1.4q-.4 4.7-2.05 8.6l-1.65 3.2-.75 1.05-.45.6-.5.7q-3.95 4.85-8.8 4.9h-.1q-4.8 0-7.9-4.7l-.15-.2-.4-.7q-2.35-4.05-2.6-9.3l-.05-1.55.15-2.6.15-1.4.55-3.1q1.2-5.05 4.15-8.95 2.8-3.75 6.1-4.95l2.35-.55 1-.05m45.05 12.8q.35-6.05-2.05-10.45-2.05-3.8-5.2-4.7l-1.3-.2-.75-.1q-4.6.05-8.4 5-1.25 1.65-2.15 3.6-1.55 3.1-2.15 6.85l-.15 1.5-.2 2.7v1.55l4.4.15.5 3.1-4.45-.15.4 1.7 4.6.1.95 2.1q1.55 2.9 3.8 4.1l.7.3-.7.15q-3.15.55-5-.4 3.15 2.45 7.65.75l.85-.45.6-.35.1-.05q1.7-1.25 3.3-3.35 3.8-4.95 4.55-11.95l.1-1.5m-44.5-7.5-1.05-.15-.65-.05q-3.75 0-6.75 4.05l-1.7 2.95q-1.2 2.5-1.6 5.55l-.15 1.25-.1 2.2.05 1.3 3.6.1.45 2.55-3.65-.15.35 1.4 3.75.1.8 1.7q1.35 2.35 3.2 3.35l.6.25-.6.1-4.1-.3q2.65 1.95 6.3.6l.65-.4.5-.25.05-.05q1.4-1.05 2.65-2.75 3-4.05 3.5-9.75l.1-1.25q.15-4.9-1.9-8.5-1.75-3.1-4.3-3.85" fill="#fff" transform="translate(198.8 314.6)"/></g><path d="M121.4 263.95h4.65q3.45 0 5.9 2.35t2.5 5.7v4.9q-.05.8-.8.8h-5.55q-.8 0-.8-.8v-4.85q0-1.25-1.25-1.25h-4.65q-1.3 0-1.3 1.25v25q0 1.25 1.3 1.25h4.65q1.25 0 1.25-1.25v-4.75q-.05-.85-.8-.85h-1.9q-.85 0-.85-.8v-5.25q0-.8.85-.8h9.05q.75 0 .8.8v11.65q-.05 3.35-2.5 5.75-2.45 2.35-5.9 2.35h-4.65q-3.45 0-5.95-2.35-2.55-2.4-2.5-5.75V272q-.05-3.35 2.5-5.7 2.5-2.35 5.95-2.35m-15.4.8v32.3q0 3.35-2.5 5.75-2.5 2.35-5.95 2.35h-4.7q-2.2 0-4.1-1.1-.75-.4-1.45 0-2 1.1-4.1 1.1h-4.7q-3.45 0-5.9-2.35-2.55-2.4-2.55-5.75v-32.3q0-.85.85-.85h5.55q.85 0 .85.85v32.3q0 1.25 1.2 1.25h4.7q1.25 0 1.25-1.2v-32.35q0-.85.8-.85h5.6q.8 0 .8.85v32.35q0 1.2 1.2 1.2h4.7q1.25 0 1.25-1.25v-32.3q0-.85.85-.85h5.55q.8 0 .8.85m48.45-.8q3.45 0 5.95 2.35 2.45 2.35 2.45 5.7v7.95q0 2.55-1.5 4.65-1.6 2.1-4.1 2.9-.35.2-.3.55-.1.3.2.45l.9.6q4.8 3.4 4.8 8.9v6.35q0 .8-.8.8h-5.5q-.85 0-.85-.8V298q0-2.05-1.8-3.3l-4.45-3-.65-.05q-.3.15-.3.55v12.1q0 .8-.8.85h-5.55q-.85-.05-.85-.85v-39.55q0-.8.85-.8h12.3m-5.1 6.8q-.85 0-.85.85v8.75q0 .75.85.75h5.1q1.25 0 1.25-1.15V272q0-1.25-1.25-1.25h-5.1M15.7 266.3q2.45-2.35 5.95-2.35h4.65q3.5 0 6 2.35 2.4 2.3 2.4 5.7v32.35q0 .8-.75.8H28.4q-.85 0-.85-.8v-32.3q0-1.25-1.25-1.25h-4.65q-1.3 0-1.3 1.25v32.3q0 .8-.75.8h-5.55q-.85 0-.85-.8V272q0-3.4 2.5-5.7m46.6 4.45H50.05q-1.35 0-1.35 1.25v8.35q0 .75.85.75H62.3q.75 0 .75.8v5.3q0 .75-.75.8H49.55q-.85-.05-.85.75v8.3q0 1.25 1.35 1.25H62.3q.75 0 .75.8v5.25q0 .8-.75.8H50.05q-3.55 0-6-2.35-2.5-2.35-2.5-5.75V272q0-3.4 2.5-5.7 2.45-2.35 6-2.35H62.3q.75 0 .75.8v5.2q0 .8-.75.8m205.6.05h-5.15q-.8 0-.8.85v25.85q0 .8.8.8h5.15q1.25 0 1.25-1.25v-25q0-1.25-1.25-1.25m5.9-4.5q2.45 2.35 2.5 5.7v25.05q-.05 3.35-2.5 5.75-2.45 2.35-5.9 2.35h-12.3q-.8 0-.8-.8v-39.6q0-.8.8-.8h12.3q3.45 0 5.9 2.35m-25.9 5.7v32.35q0 .8-.75.8h-5.55q-.8 0-.8-.8v-32.3q-.05-1.25-1.3-1.25h-4.6q-1.35 0-1.35 1.25v32.3q0 .8-.75.8h-5.55q-.8 0-.8-.8V272q0-3.4 2.45-5.7 2.45-2.35 6-2.35h4.6q3.5 0 6 2.35 2.4 2.3 2.4 5.7m35.2 0q0-3.35 2.55-5.7 2.45-2.35 5.95-2.35h12.35q.75 0 .75.8v5.3q0 .75-.75.75H291.6q-1.35 0-1.35 1.2v8q0 1.15 1.35 1.15h4.7q3.5 0 6 2.4 2.4 2.35 2.4 5.75v7.75q0 3.35-2.45 5.75-2.5 2.35-5.95 2.35H284q-.9 0-.9-.8v-5.25q0-.8.9-.8h12.3q1.2 0 1.2-1.25v-7.75q0-1.25-1.2-1.2h-4.7q-3.5-.05-5.95-2.45-2.55-2.35-2.55-5.65v-8m-84.2-8.05h5.55q.75 0 .75.8v32.3q0 1.25 1.3 1.25h4.65q1.25 0 1.25-1.25v-32.3q0-.8.85-.8h5.55q.75 0 .75.8v32.3q0 3.35-2.45 5.75-2.5 2.35-5.95 2.35h-4.65q-3.45 0-5.9-2.35-2.55-2.4-2.55-5.75v-32.3q0-.8.85-.8m-16.15 6.85h-4.6q-1.3 0-1.3 1.2v25.05q0 1.25 1.3 1.25h4.6q1.25 0 1.3-1.25V272q-.05-1.2-1.3-1.2m5.95-4.5q2.45 2.35 2.5 5.7v25.05q-.05 3.35-2.5 5.75-2.5 2.35-5.95 2.35h-4.6q-3.45 0-5.95-2.35-2.55-2.4-2.5-5.75V272q-.05-3.35 2.5-5.7 2.5-2.35 5.95-2.35h4.6q3.45 0 5.95 2.35" fill="#fff" fill-rule="evenodd" transform="translate(-13.2 -263.9)" id="c"/></defs></svg>
