<svg viewBox="0 0 1165.0001220703125 804.5774536132812" version="1.1" xmlns="http://www.w3.org/2000/svg" xmlns:xlink="http://www.w3.org/1999/xlink" xml:space="preserve" xmlns:serif="http://www.serif.com/" style="fill-rule:evenodd;clip-rule:evenodd;stroke-linejoin:round;stroke-miterlimit:2;">
    <g id="Artboard1" transform="matrix(1,0,0,1,-108.299,-219.737)">
        <rect x="108.299" y="219.737" width="1164.7" height="803.836" style="fill:none;"></rect>
        <clipPath id="_clip1">
            <rect x="108.299" y="219.737" width="1164.7" height="803.836"></rect>
        </clipPath>
        <g clip-path="url(#_clip1)">
            <g transform="matrix(1,0,0,1,0.298997,0.737238)">
                <path d="M872.353,911.995C782.489,986.125 696.227,1026.43 614.578,1023.42C536.986,1018.04 482.505,992.492 467.211,932.751C465.002,923.095 464.717,905.478 465.824,880.839C258.406,1016.17 128.858,927.771 114.728,858.694C109.609,833.666 116.482,788.437 125.02,734.888C142.758,623.644 169.818,482.695 175.199,447.981C175.687,444.829 175.476,440.55 173.387,437.532C171.35,434.586 167.561,432.878 164.951,432.83L108.299,432.476L133.225,313.41L403.685,314.342C434.736,315.007 457.657,346.853 453.527,373.705C436.625,487.321 416.557,593.659 403.461,707.498C402.133,722.644 446.016,706.991 497.77,684.304L556.158,347.584C556.663,342.079 551.374,336.687 543.926,336.793L490.589,337.276L512.025,220.397L910.456,219.737L884.535,339.101L834.636,338.794C827.098,339.167 821.377,344.387 818.76,358.036L751.653,778.353C749.202,798.975 803.234,771.586 850.099,750.288L912.12,372.926C917.862,341.984 949.946,313.588 982.995,314.381L1261.24,312.958L1238.05,432.43L1188.48,432.417C1175.39,432.184 1168.26,438.753 1165.42,453.065L1129.06,704.847C1124.95,734.654 1215.31,679.997 1273,643.425C1262.31,697.245 1252.52,760.663 1245.08,779.1C1205.16,866.824 1143.58,924.847 1025.87,946.53C1004.01,950.017 978.174,951.999 948.129,947.793C906.942,940.269 886.324,925.947 872.353,911.995Z" style="fill:white;"></path>
                <g>
                    <path d="M893.175,894.274C963.201,832.868 1035.34,751.611 1109.12,654.916C1105.85,686.542 1102.69,714.241 1106.43,724.16C1110.59,733.717 1117.54,735.304 1119.31,735.657C1148.12,739.921 1188.85,725.996 1235.03,697.637C1232.65,725.908 1225.64,768.006 1218.93,779.707C1166.44,869.26 1093.37,921.374 986.04,924.333C939.381,925.676 908.07,913.321 893.175,894.274Z" style="fill:url(#_Linear2);"></path>
                    <path d="M488.443,865.401C567.209,809.294 656.443,721.387 754.245,589.383C741.994,655.63 732.67,711.448 726.444,778.923C723.733,808.305 746.966,815.348 776.362,806.83C836.468,797.681 915.709,731.814 994.076,668.538L877.234,734.457L938.444,373.298C941.974,353.708 960.881,340.777 976.259,339.716L1231.86,339.067L1218.26,407.339L1179.72,408.032C1161.33,409.317 1145.13,430.373 1142.86,444.067L1115.53,606.32C984.4,786.503 868.235,889.68 763.14,951.854C643.495,1022.64 536.644,993.982 507.712,959.651C486.737,934.762 486.988,916.451 488.443,865.401Z" style="fill:url(#_Linear3);"></path>
                    <path d="M152.664,338.675L402.861,338.704C419.816,339.464 429.775,355.699 427.236,369.447C396.863,555.945 376.272,689.407 378.889,716.849C379.086,718.145 379.885,730.146 389.628,734.506C401.788,739.946 425.077,737.214 434.099,734.328C493.285,714.851 549.284,677.787 609.089,626.948L521.12,671.157L577.919,340.188C579.913,324.76 568.337,312.759 550.641,312.691L513.424,312.672L528.632,241.392L878.487,241.172L863.483,313.929L821.171,314.116C807.579,315.003 798.951,321.405 796.507,333.757L766.115,531.783C612.628,730.138 461.822,887.617 319.234,919.768C283.475,927.706 249.294,927.534 216.836,918.51C159.2,901.926 129.674,871.823 140.349,799.456C149.124,743.819 172.006,604.014 199.287,445.4C199.421,444.617 203.19,429.342 196.026,419.322C189.998,410.891 173.597,407.398 166.933,407.302L139.338,407.178L152.664,338.675Z" style="fill:url(#_Linear4);"></path>
                </g>
                <path d="M488.443,865.401C576.557,797.877 668.37,704.202 754.245,589.383C749.017,617.539 744.055,646.286 739.332,675.566C629.886,788.552 535.31,850.761 488.443,865.401Z" style="fill:rgb(6,26,54);"></path>
                <path d="M893.175,894.274C963.123,828.835 1035.2,748.948 1109.12,654.916C1107.22,673.873 1105.6,693.009 1104.78,712.642C1027.88,803.21 957.389,853.721 893.175,894.274Z" style="fill:rgb(6,26,54);"></path>
            </g>
        </g>
    </g>
    <defs>
        <linearGradient id="_Linear2" x1="0" y1="0" x2="1" y2="0" gradientUnits="userSpaceOnUse" gradientTransform="matrix(306.992,-208.054,208.054,306.992,926.02,908.616)"><stop offset="0" style="stop-color:rgb(13,41,71);stop-opacity:1"></stop><stop offset="0.52" style="stop-color:rgb(20,56,90);stop-opacity:1"></stop><stop offset="1" style="stop-color:rgb(23,61,97);stop-opacity:1"></stop></linearGradient>
        <linearGradient id="_Linear3" x1="0" y1="0" x2="1" y2="0" gradientUnits="userSpaceOnUse" gradientTransform="matrix(712.488,-606.212,606.212,712.488,509.678,955.204)"><stop offset="0" style="stop-color:rgb(11,37,65);stop-opacity:1"></stop><stop offset="0.2" style="stop-color:rgb(16,48,83);stop-opacity:1"></stop><stop offset="0.41" style="stop-color:rgb(22,60,101);stop-opacity:1"></stop><stop offset="1" style="stop-color:rgb(25,65,109);stop-opacity:1"></stop></linearGradient>
        <linearGradient id="_Linear4" x1="0" y1="0" x2="1" y2="0" gradientUnits="userSpaceOnUse" gradientTransform="matrix(716.912,-631.043,631.043,716.912,155.944,877.056)"><stop offset="0" style="stop-color:rgb(14,43,73);stop-opacity:1"></stop><stop offset="0.47" style="stop-color:rgb(24,64,105);stop-opacity:1"></stop><stop offset="1" style="stop-color:rgb(52,120,188);stop-opacity:1"></stop></linearGradient>
    </defs>
</svg>