<svg xmlns="http://www.w3.org/2000/svg" viewBox="0 0 14.81 16"><defs><style>.cls-1{fill:#044a75;fill-rule:evenodd;}</style></defs><g id="Calque_2" data-name="Calque 2"><g id="Calque_1-2" data-name="Calque 1"><path class="cls-1" d="M14.23,4a4.31,4.31,0,0,0-2.62-2,4.1,4.1,0,0,0-.7-.12A4.25,4.25,0,0,0,5,.74,4.19,4.19,0,0,0,3.9,1.85,4.29,4.29,0,0,0,.57,4,4.38,4.38,0,0,0,.4,8a4.42,4.42,0,0,0,.17,4,4.21,4.21,0,0,0,2.62,2,3.39,3.39,0,0,0,.72.13,4.23,4.23,0,0,0,5.88,1.12,4.15,4.15,0,0,0,1.13-1.12A4.29,4.29,0,0,0,14.24,12a4.38,4.38,0,0,0,.17-4A4.44,4.44,0,0,0,14.23,4Zm-1.06.64a3,3,0,0,1,.36,2,4.32,4.32,0,0,0-4-1,4.44,4.44,0,0,0-1.81,1,3,3,0,0,1,1.45-3,2.91,2.91,0,0,1,4,1,.25.25,0,0,1,0,.07Zm-4-2.57a2.92,2.92,0,0,0-1.81-.66h0a2.93,2.93,0,0,0-1,5.64,4.26,4.26,0,0,1,2.85-5ZM1.66,4.71A2.92,2.92,0,0,1,3.15,3.45,4.13,4.13,0,0,0,3,4.37a4.26,4.26,0,0,0,3,4.07,3,3,0,0,1-3.33.27,2.91,2.91,0,0,1-1.11-4Zm-.38,4.7a3.07,3.07,0,0,0,.36,1.95h0a2.9,2.9,0,0,0,1.84,1.4,2.92,2.92,0,0,0,2.22-.31,3,3,0,0,0,1.45-3,4.25,4.25,0,0,1-1.82,1A4.35,4.35,0,0,1,2,10,4.58,4.58,0,0,1,1.28,9.41Zm6.14,5.17a2.8,2.8,0,0,1-1.81-.66,4.38,4.38,0,0,0,.86-.37,4.3,4.3,0,0,0,2-4.61,2.93,2.93,0,0,1-1,5.65Zm4-2a2.81,2.81,0,0,0,1.44-1.26h0a3,3,0,0,0-1.06-4A2.81,2.81,0,0,0,9.65,7a2.75,2.75,0,0,0-1.07.56A4.27,4.27,0,0,1,11.43,12.55Z"/></g></g></svg>