<svg viewBox="0 0 90 90" xmlns="http://www.w3.org/2000/svg"><g fill="#00BFFF"><path d="M34.278 40.433s-1.81-10.102-2.112-12.478c-.302-2.377-3.018-14.261-3.32-16.34-.302-2.08-1.207-5.051-3.923-5.349-2.717-.297-3.924.298-4.83 2.674-.904 2.377 4.528 24.065 5.433 26.442.906 2.377 2.716 9.21 3.32 10.101.604.892 1.81 2.377 3.923 1.783 2.113-.594 2.415-2.377 1.51-6.833ZM41.521.027c2.717-.267 4.226 1.486 4.527 2.674.302 1.189 1.811 20.797 1.811 26.145 0 5.348.604 13.072-.302 14.558-.905 1.485-1.207 1.782-3.018 1.782-1.81 0-2.716-1.782-3.018-3.862-.353-2.424-.905-4.754-1.509-10.101-.105-.933-2.414-24.66-2.414-26.74 0-2.079.905-4.159 3.923-4.456Zm19.315 5.348c3.32-.217 3.924 2.674 3.924 4.457 0 1.188-1.208 10.398-1.51 12.478-.301 2.08-2.142 12.115-2.414 14.26-.302 2.377-1.255 6.926-1.81 8.022-.302.594-1.208 1.783-2.717 1.486-1.509-.297-2.414-.297-2.414-2.971s1.207-16.34 1.207-17.826c0-1.486 1.207-10.993 1.51-12.181.3-1.189-.303-7.428 4.224-7.725Zm15.09 11.29c2.414.199 3.32 2.08 3.018 3.268-.302 1.188-1.81 7.13-2.414 9.21-.604 2.08-4.226 13.964-4.527 14.558-.302.594-1.51 4.16-1.811 4.753-.269.532-1.51.892-2.414.595-.906-.297-2.113-.595-1.51-3.566.604-2.97 1.811-8.913 2.113-10.1.302-1.19 2.415-10.994 3.32-13.073.905-2.08.603-5.942 4.225-5.645Z"/><path d="M12.003 38.772a.623.623 0 0 1 .183-.504.642.642 0 0 1 .51-.185c2.868.27 5.756 1.236 7.395 5.618 2.112 5.645-.106 22.401 3.169 27.184 4.98 7.28 10.713 11.439 22.785 11.439 15.392 0 22.182-5.497 22.182-15.598S57.664 56.328 55.552 56.625c-2.113.297-4.12 1.188-3.924 4.753.19 3.453 5.385 2.918 5.735.892.26-1.486-.906-2.08.301-2.674 1.208-.595 3.622.594 3.622 3.565 0 2.97-.604 12.18-12.072 12.478-11.468.297-11.984-9.507-12.072-10.993-.15-2.525 1.811-6.833.906-7.13-.906-.297-2.24-.737-5.734 2.377-3.17 2.822-5.282 3.713-6.338 2.674-1.207-1.189-1.81-2.674-.604-3.863 1.207-1.188 8.149-8.616 18.41-9.804 10.26-1.188 21.539 1.076 27.765 7.725 7.092 7.576 4.11 26.715-11.166 31.195-22.786 6.685-44.515-2.525-46.477-20.5-1.041-9.566-.89-16.388-1.901-28.548Z"/></g></svg>