<svg viewBox="0 0 357 256" version="1.1" xmlns="http://www.w3.org/2000/svg" xmlns:xlink="http://www.w3.org/1999/xlink" xml:space="preserve" xmlns:serif="http://www.serif.com/" style="fill-rule:evenodd;clip-rule:evenodd;stroke-linejoin:round;stroke-miterlimit:2;">
    <g transform="matrix(1,0,0,1,-114.206,-142.917)">
        <g id="Capa-1" serif:id="Capa 1" transform="matrix(1,0,0,1,8.90015,113.936)">
            <g transform="matrix(1,0,0,1,401.587,259.298)">
                <path d="M0,-202.346C7.754,-199.776 9.413,-196.459 6.449,-189.238C5.547,-187.04 7.212,-186.934 8.111,-186.34C19.406,-178.871 29.646,-170.213 38.354,-159.806C50.532,-145.257 58.343,-128.728 59.674,-109.681C62.188,-73.697 49.587,-43.75 22.534,-19.956C1.01,-1.026 -24.348,10.494 -51.99,16.907C-104.011,28.974 -155.644,27.886 -206.344,10.115C-231.66,1.241 -254.159,-12.394 -271.545,-33.257C-295.052,-61.464 -301.763,-93.696 -291.856,-128.82C-285.903,-149.929 -271.524,-165.599 -254.572,-178.937C-251.5,-181.354 -248.277,-183.588 -245.051,-185.799C-243.877,-186.603 -243.83,-186.969 -244.717,-188.217C-248.845,-194.027 -247.205,-199.195 -240.54,-201.723C-239.428,-202.145 -238.884,-202.292 -239.569,-203.648C-241.578,-207.626 -240.26,-211.233 -237.371,-214.005C-230.906,-220.21 -223.36,-225.02 -215.487,-229.195C-211.616,-231.248 -207.663,-230.429 -204.383,-227.178C-199.777,-222.613 -195.005,-218.213 -190.475,-213.575C-188.825,-211.887 -187.436,-211.434 -185.05,-212.047C-141.183,-223.318 -97.24,-223.556 -53.278,-212.577C-51.152,-212.046 -49.731,-212.297 -48.145,-213.94C-43.896,-218.339 -39.362,-222.46 -35.054,-226.804C-31.24,-230.65 -26.812,-231.32 -22.352,-228.717C-15.4,-224.661 -8.532,-220.375 -2.516,-214.972C1.264,-211.577 2.883,-207.419 0,-202.346" style="fill:rgb(42,51,118);fill-rule:nonzero;"/>
            </g>
            <g transform="matrix(1,0,0,1,334.117,67.5982)">
                <path d="M0,110.366C20.45,101.03 40.963,94.286 62.199,89.829C80.48,85.992 98.901,83.903 117.601,86.361C119.416,86.599 120.479,86.859 120.325,89.15C119.059,108.143 112.055,124.707 99.531,138.984C99.145,139.425 98.68,139.798 98.125,140.322C94.541,134.028 88.992,133.258 82.794,134.666C49.637,142.201 16.152,143.089 -17.551,139.74C-23.146,139.183 -28.801,138.963 -34.325,137.998C-44.689,136.187 -48.81,130.009 -47.203,119.574C-45.753,110.156 -41.963,101.54 -38.119,92.949C-28.443,71.318 -19.702,49.284 -9.624,27.821C-2.844,13.382 5.468,0.175 16.996,-10.938C23.516,-17.221 29.937,-23.61 36.287,-30.064C38.442,-32.254 40.619,-32.723 43.11,-31.032C48.769,-27.192 54.405,-23.32 59.975,-19.354C62.693,-17.418 63.242,-15.132 60.926,-12.261C58.595,-9.372 55.965,-6.859 53,-4.681C51.569,-3.631 43.555,-4.459 42.5,-5.696C41.54,-6.821 42.617,-7.768 42.977,-8.697C43.514,-10.084 44.621,-10.905 46.179,-10.363C47.309,-9.97 48.352,-9.324 49.922,-8.55C49.006,-10.815 50.924,-11.152 52.252,-12.263C46.821,-12.63 49.695,-16.932 48.174,-19.424C46.731,-17.419 47.098,-13.444 44.258,-13.583C42.287,-13.679 40.437,-16.231 38.328,-17.842C38.218,-17.204 38.015,-16.812 38.132,-16.587C41.336,-10.44 41.366,-9.956 36.619,-4.817C33.551,-1.495 30.206,1.571 27.018,4.783C26.558,5.247 25.607,5.604 26.033,6.486C26.396,7.239 27.273,7.175 27.994,7.181C31.13,7.207 33.41,5.384 35.052,3.118C38.382,-1.478 42.244,-2.764 47.32,0.053C49.589,1.311 51.777,0.815 53.923,-0.451C57.687,-2.671 61.802,-3.729 66.15,-3.885C67.222,-3.924 68.565,-4.169 68.943,-2.783C69.31,-1.44 68.492,-0.369 67.335,0.211C66.259,0.75 65.077,1.209 63.895,1.382C54.65,2.73 45.804,5.296 37.312,9.258C33.189,11.181 28.786,11.937 24.091,11.022C19.696,10.166 17.329,11.417 15.531,15.517C9.545,29.165 5.123,43.162 5.91,58.394C6.605,71.849 6.552,85.301 3.974,98.623C3.229,102.469 1.497,105.966 0,110.366" style="fill:white;fill-rule:nonzero;"/>
            </g>
            <g transform="matrix(1,0,0,1,204.087,171.403)">
                <path d="M0,-97.079C-3.175,-100.505 -6.316,-103.594 -9.107,-106.973C-14.194,-113.131 -16.304,-112.178 -11.835,-121.98C-13.608,-120.661 -14.728,-119.886 -15.784,-119.032C-18.859,-116.546 -19.836,-116.843 -21.151,-120.739C-21.415,-121.521 -21.386,-122.426 -22.149,-123.024C-23.82,-120.97 -20.854,-116.454 -25.854,-116.201C-25.767,-114.58 -22.106,-115.174 -24.446,-112.217C-18.721,-114.915 -17.429,-114.667 -16.468,-111.278C-16.271,-110.582 -15.887,-109.982 -16.687,-109.347C-18.602,-107.824 -25.817,-107.542 -27.787,-109.069C-30.694,-111.322 -33.327,-113.829 -35.47,-116.879C-36.983,-119.032 -36.659,-120.685 -34.858,-122.323C-34.315,-122.816 -33.837,-123.398 -33.242,-123.814C-28.131,-127.375 -23.021,-130.938 -17.869,-134.438C-15.127,-136.3 -12.749,-136.301 -10.09,-133.72C-1.133,-125.022 7.76,-116.265 16.206,-107.072C23.042,-99.632 28.255,-91.071 32.663,-82.022C45.829,-54.994 56.903,-27.045 68.879,0.507C71.172,5.782 72.688,11.338 73.361,17.091C74.443,26.338 70.34,32.369 61.182,34.063C50.943,35.957 40.505,36.143 30.146,36.944C0.674,39.222 -28.5,37.195 -57.366,30.73C-61.921,29.71 -66.451,29.943 -70,33.63C-71.095,34.768 -71.629,34.117 -72.278,33.294C-83.101,19.561 -90.875,4.618 -91.03,-13.415C-91.049,-15.66 -90.438,-16.511 -88.061,-16.836C-70.235,-19.276 -52.656,-17.499 -35.195,-13.906C-15.132,-9.776 4.239,-3.487 22.805,5.221C23.638,5.611 24.412,6.365 25.74,6.069C18.522,-11.179 19.607,-29.269 20.156,-47.299C20.598,-61.855 16.121,-75.245 10.476,-88.348C8.953,-91.882 6.133,-93.731 2.219,-92.85C-3.788,-91.498 -9.152,-93.366 -14.401,-95.829C-20.871,-98.866 -27.668,-100.689 -34.696,-101.799C-37.097,-102.178 -39.581,-102.377 -41.684,-103.798C-42.659,-104.458 -43.265,-105.42 -42.939,-106.621C-42.603,-107.862 -41.46,-107.721 -40.501,-107.7C-36.278,-107.608 -32.186,-106.765 -28.571,-104.572C-25.772,-102.874 -23.203,-102.88 -20.235,-104.032C-14.382,-106.303 -14.249,-106.126 -9.838,-101.455C-7.191,-98.653 -4.616,-95.481 0,-97.079" style="fill:white;fill-rule:nonzero;"/>
            </g>
            <g transform="matrix(1,0,0,1,282.123,270.048)">
                <path d="M0,-69.397C4.884,-60.574 12.751,-58.175 21.295,-57.474C43.112,-55.683 64.924,-53.451 86.87,-54.889C102.867,-55.937 118.769,-57.724 134.439,-61.256C136.445,-61.708 138.449,-62.367 140.582,-62.007C142.921,-61.611 144.112,-60.045 144.951,-58.015C145.787,-55.989 143.883,-55.451 142.965,-54.592C125.314,-38.094 104.563,-26.76 81.724,-19.509C20.273,0 -40.39,-1.741 -99.771,-27.845C-115.665,-34.831 -129.981,-44.419 -142.378,-56.692C-143.158,-57.464 -144.698,-57.993 -144.158,-59.537C-143.619,-61.082 -142.229,-61.619 -140.74,-61.978C-139.367,-62.31 -138.067,-61.993 -136.756,-61.704C-105.945,-54.911 -74.828,-52.904 -43.4,-55.692C-35.361,-56.406 -27.305,-56.945 -19.279,-57.782C-11.306,-58.613 -4.388,-61.495 0,-69.397" style="fill:rgb(247,207,4);fill-rule:nonzero;"/>
            </g>
            <g transform="matrix(1,0,0,1,345.209,168.61)">
                <path d="M0,-115.385C-0.072,-115.162 -0.078,-114.866 -0.228,-114.723C-14.564,-101.078 -22.962,-83.721 -30.957,-66.047C-40.931,-44.001 -50.008,-21.573 -59.691,0.595C-60.944,3.465 -61.821,6.498 -63.169,10.293C-67.625,-4.593 -74.727,-17.524 -80.145,-31.174C-86.683,-47.645 -94.143,-63.723 -101.681,-79.759C-107.764,-92.701 -115.5,-104.501 -125.89,-114.498C-106.972,-125.165 -24.527,-125.678 0,-115.385" style="fill:rgb(247,207,4);fill-rule:nonzero;"/>
            </g>
            <g transform="matrix(1,0,0,1,344.609,75.0318)">
                <path d="M0,91.304C1.844,79.772 2.949,68.385 1.924,57.077C0.521,41.606 3.809,27.223 9.592,13.12C10.6,10.663 11.534,9.452 14.605,9.981C21.272,11.128 27.375,8.749 33.305,5.956C40.119,2.745 47.419,1.332 54.788,0.155C55.761,0 56.458,0.325 57.177,0.771C77.868,13.614 95.098,29.629 104.606,52.684C106.901,58.248 108.331,64.057 109.233,70.001C109.469,71.555 109.682,72.837 107.224,72.582C70.708,68.801 36.377,77.889 2.642,90.441C1.875,90.726 1.086,90.951 0,91.304" style="fill:rgb(247,207,4);fill-rule:nonzero;"/>
            </g>
            <g transform="matrix(1,0,0,1,218.997,74.4783)">
                <path d="M0,91.609C-8.761,88.212 -17.675,84.907 -26.801,82.222C-48.756,75.762 -71.037,71.682 -94.051,72.947C-97.101,73.115 -100.164,73.338 -103.175,73.818C-105.57,74.201 -106.134,73.497 -105.844,71.16C-104.527,60.55 -100.893,50.746 -95.491,41.613C-85.472,24.674 -71.119,12.117 -54.573,1.88C-51.535,0 -48.338,1.621 -45.376,2.345C-39.813,3.704 -34.381,5.503 -29.164,8.015C-24.019,10.493 -18.453,11.504 -12.729,10.435C-11.012,10.114 -10.24,10.718 -9.667,12.151C-4.368,25.389 -0.027,38.718 -1.217,53.397C-2.197,65.478 -1.541,77.608 0.239,89.636C0.326,90.217 0.664,90.803 0,91.609" style="fill:rgb(247,207,4);fill-rule:nonzero;"/>
            </g>
        </g>
    </g>
</svg>