<svg viewBox="0 0 512 512" version="1.1" xmlns="http://www.w3.org/2000/svg" xmlns:xlink="http://www.w3.org/1999/xlink">
    <title>hue</title>
    <defs>
        <linearGradient x1="100%" y1="56.5026221%" x2="0%" y2="56.5026221%" id="linearGradient-1">
            <stop stop-color="#00B1F3" offset="0%"></stop>
            <stop stop-color="#40D6AC" offset="27.384575%"></stop>
            <stop stop-color="#9FD045" offset="39.1009025%"></stop>
            <stop stop-color="#FFC500" offset="61.0713061%"></stop>
            <stop stop-color="#FFA200" offset="74.9240902%"></stop>
            <stop stop-color="#FE3503" offset="100%"></stop>
        </linearGradient>
    </defs>
    <g id="hue" stroke="none" stroke-width="1" fill="none" fill-rule="evenodd">
        <rect id="Rectangle" fill="#FFFFFF" x="0" y="0" width="512" height="512" rx="60"></rect>
        <path d="M166,257.092 L166,312.058903 C166,317.348003 162.314924,321 157.182139,321 C152.27027,321 148.627917,317.477267 148.499399,312.34067 L148.495887,312.058903 L148.495,257.092 L166,257.092 Z M71.504,257.092 L71.5041128,312.058903 C71.5041128,317.348003 67.8190364,321 62.6862515,321 C57.7743831,321 54.1320295,317.477267 54.0035118,312.34067 L54,312.058903 L54,257.092 L71.504,257.092 Z M225.575,256.83 L225.575,269.841713 C225.575,292.908529 238.267295,305.798366 260.831087,306.053856 L261.517857,306.057728 C285.196536,306.057728 301.233935,290.295822 301.552315,266.021245 L301.557143,265.283054 L301.557,256.83 L319,256.83 L319,312.515829 C319,317.327747 315.828571,321 310.807143,321 C305.877013,321 302.602841,317.460069 302.48541,312.777151 L302.482143,312.515829 L302.482143,294.407821 L302.085714,294.407821 C294.817857,310.616387 278.3,321 256.496429,321 C226.930786,321 208.373766,302.755904 208.005582,273.639816 L208,272.75419 L208,256.83 L225.575,256.83 Z M416.495126,185 C451.669118,185 476,210.325885 476,246.921788 C476,253.147734 472.292002,256.924809 466.007583,257.048982 L465.685822,257.052142 L372.990452,257.052142 C372.990452,287.949721 390.312982,306.310987 417.685224,306.310987 C436.859016,306.310987 449.817856,298.586592 458.809703,282.124767 C460.528733,279.592179 462.512229,278.452514 465.421356,278.452514 C470.049513,278.452514 473.223106,281.238361 473.223106,285.79702 C473.223106,287.189944 472.694174,289.089385 471.900775,290.988827 C464.099025,309.729981 444.131834,321 418.478622,321 C379.948163,321 356.236332,297.188555 355.053217,256.831829 L341.225352,256.830986 C337.787185,256.830986 335,254.043801 335,250.605634 C335,247.167467 337.787185,244.380282 341.225352,244.380282 L355.422448,244.37909 C358.775119,207.923929 382.158658,185 416.495126,185 Z M62.6862515,135 C67.9858989,135 71.3812741,138.40126 71.5008476,143.533518 L71.5041128,143.815166 L71.5041128,212.069736 L71.8989424,212.069736 C78.8742656,195.950575 95.1938895,185.750169 117.041128,185.750169 C146.748108,185.750169 165.619858,204.510756 165.994322,233.356393 L166,234.233582 L166,244.692 L148.495,244.692 L148.495887,237.004062 C148.495887,214.563169 135.467813,200.885444 112.731888,200.614133 L112.039953,200.61002 C87.6750176,200.61002 71.8234773,216.778684 71.508883,241.051428 L71.5041128,241.789438 L71.504,244.692 L54,244.692 L54,143.815166 C54,138.620515 57.4276901,135.126493 62.4128029,135.003363 L62.6862515,135 Z M216.853571,185 C221.785332,185 225.442436,188.542272 225.571474,193.707359 L225.575,193.990689 L225.575,244.38 L208,244.38 L208,193.990689 C208,188.767225 211.569037,185.131677 216.578891,185.003501 L216.853571,185 Z M310.278571,185 C315.340115,185 318.872071,188.542272 318.996598,193.707359 L319,193.990689 L319,244.38 L301.557,244.38 L301.557143,193.990689 C301.557143,188.767225 304.998714,185.131677 310.004015,185.003501 L310.278571,185 Z M416.295813,200.323944 C391.975984,200.323944 374.905034,217.446895 373.156399,243.585453 L373.108108,244.380282 L457.898649,244.380282 C457.502431,217.921159 440.729225,200.323944 416.295813,200.323944 Z" id="Combined-Shape" fill="url(#linearGradient-1)" fill-rule="nonzero"></path>
        <path d="M142.872246,440 L142.872246,424.59375 L149.895684,424.59375 C155.068861,424.59375 158.915703,423.413737 161.436211,421.053711 C163.956719,418.693685 165.216973,415.417969 165.216973,411.226562 C165.216973,407.148438 164.06056,404.004883 161.747734,401.795898 C159.434909,399.586914 155.95623,398.482422 151.311699,398.482422 L151.311699,398.482422 L129.986504,398.482422 L129.986504,440 L142.872246,440 Z M146.015801,416.182617 L142.872246,416.182617 L142.872246,406.921875 L146.525566,406.921875 C148.923353,406.921875 150.556491,407.375 151.42498,408.28125 C152.29347,409.1875 152.727715,410.291992 152.727715,411.594727 C152.727715,412.935221 152.227389,414.034993 151.226738,414.894043 C150.226087,415.753092 148.489108,416.182617 146.015801,416.182617 L146.015801,416.182617 Z M185.187486,440 L185.187486,423.206055 L199.206041,423.206055 L199.206041,440 L212.091783,440 L212.091783,398.482422 L199.206041,398.482422 L199.206041,413.010742 L185.187486,413.010742 L185.187486,398.482422 L172.358384,398.482422 L172.358384,440 L185.187486,440 Z M234.356242,440 L234.356242,398.482422 L221.49882,398.482422 L221.49882,440 L234.356242,440 Z M276.784763,440 L276.784763,429.776367 L256.762302,429.776367 L256.762302,398.482422 L243.9332,398.482422 L243.9332,440 L276.784763,440 Z M296.358792,440 L296.358792,398.482422 L283.50137,398.482422 L283.50137,440 L296.358792,440 Z M318.764852,440 L318.764852,424.59375 L325.78829,424.59375 C330.961467,424.59375 334.808309,423.413737 337.328817,421.053711 C339.849325,418.693685 341.109579,415.417969 341.109579,411.226562 C341.109579,407.148438 339.953166,404.004883 337.64034,401.795898 C335.327515,399.586914 331.848836,398.482422 327.204305,398.482422 L327.204305,398.482422 L305.87911,398.482422 L305.87911,440 L318.764852,440 Z M321.908407,416.182617 L318.764852,416.182617 L318.764852,406.921875 L322.418172,406.921875 C324.815959,406.921875 326.449097,407.375 327.317586,408.28125 C328.186076,409.1875 328.620321,410.291992 328.620321,411.594727 C328.620321,412.935221 328.119995,414.034993 327.119344,414.894043 C326.118693,415.753092 324.381714,416.182617 321.908407,416.182617 L321.908407,416.182617 Z M365.243178,440.708008 C369.264662,440.708008 372.597019,440.127441 375.240248,438.966309 C377.883477,437.805176 379.94142,436.101237 381.414076,433.854492 C382.886733,431.607747 383.623061,429.15332 383.623061,426.491211 C383.623061,424.225586 383.070815,422.177083 381.966323,420.345703 C380.86183,418.514323 379.096531,416.980306 376.670424,415.743652 C374.244317,414.506999 370.227553,413.284505 364.620131,412.076172 C362.354506,411.604167 360.91961,411.094401 360.315444,410.546875 C359.692397,410.018229 359.380873,409.423503 359.380873,408.762695 C359.380873,407.856445 359.758477,407.087077 360.513686,406.45459 C361.268894,405.822103 362.392267,405.505859 363.883803,405.505859 C365.696303,405.505859 367.117039,405.930664 368.14601,406.780273 C369.174981,407.629883 369.849949,408.989258 370.170912,410.858398 L370.170912,410.858398 L382.263686,410.150391 C381.73504,405.845703 380.078302,402.706868 377.293471,400.733887 C374.50864,398.760905 370.463556,397.774414 365.158217,397.774414 C360.834649,397.774414 357.431492,398.31722 354.948744,399.402832 C352.465997,400.488444 350.606297,401.97998 349.369643,403.877441 C348.132989,405.774902 347.514662,407.790365 347.514662,409.923828 C347.514662,413.171224 348.722996,415.842773 351.139662,417.938477 C353.537449,420.03418 357.549493,421.714518 363.175795,422.979492 C366.611993,423.734701 368.802097,424.537109 369.746108,425.386719 C370.690118,426.236328 371.162123,427.199219 371.162123,428.275391 C371.162123,429.408203 370.666518,430.404134 369.675307,431.263184 C368.684096,432.122233 367.2728,432.551758 365.44142,432.551758 C362.986993,432.551758 361.098972,431.711589 359.777358,430.03125 C358.965509,428.992839 358.427423,427.482422 358.1631,425.5 L358.1631,425.5 L345.957045,426.264648 C346.315769,430.456055 347.854506,433.911133 350.573256,436.629883 C353.292006,439.348633 358.18198,440.708008 365.243178,440.708008 Z" id="PHILIPS" fill="#0181E2" fill-rule="nonzero"></path>
    </g>
</svg>
