<svg version="1.2" xmlns="http://www.w3.org/2000/svg" viewBox="270.9543762207031 203.20001220703125 68.54562377929688 53.20001220703125">
	<style>
		.s0 { fill: #000000 } 
		.s1 { fill: #f24d00 } 
	</style>
	<g id="Layer">
		<g id="Layer">
			<g id="path4">
				<path id="Layer" class="s0" d="m291.9 256.4h7.8c1.8 0 2.3-0.3 3.3-2.4l17.3-48.4c0.4-1.1 0.1-2.3-1.5-2.3h-8.6c-2.2 0-2.7 0.6-3.4 2.6l-10.9 33.4-11-33.5c-0.6-1.9-1.2-2.6-3.3-2.6h-9c-1.5 0-1.9 1.3-1.5 2.3l17.5 48.5c0.9 2.1 1.5 2.4 3.3 2.4z"></path>
			</g>
			<g id="path18">
				<path id="Layer" class="s1" d="m328.6 233h8.6c1.5 0 2.3-0.5 2.3-2.3v-4.1-6-0.6c0-1.9-0.9-2.3-2.3-2.3h-8.6c-1.5 0-2.3 0.5-2.3 2.3v10.7c0 1.8 0.9 2.3 2.3 2.3z"></path>
			</g>
			<g id="path20">
				<path id="Layer" class="s0" d="m326.3 254c0 1.9 0.9 2.3 2.3 2.3h8.6c1.5 0 2.3-0.5 2.3-2.3v-4.1-6-0.6c0-1.9-0.9-2.3-2.3-2.3h-8.6c-1.5 0-2.3 0.5-2.3 2.3z"></path>
			</g>
		</g>
	</g>
</svg>