<svg xmlns="http://www.w3.org/2000/svg" xmlns:xlink="http://www.w3.org/1999/xlink" version="1.1" viewBox="270.94439697265625 203.20001220703125 93.15560913085938 229.199951171875" xml:space="preserve">
<defs>
</defs>
<g transform="matrix(1 0 0 1 355.05 415.8)" id="path2">
<path style="stroke: none; stroke-width: 1; stroke-dasharray: none; stroke-linecap: butt; stroke-dashoffset: 0; stroke-linejoin: miter; stroke-miterlimit: 4; fill: none; fill-rule: nonzero; opacity: 1;" transform=" translate(-321.05, -27.8)" d="M 321 11.2 c -5.3 0 -9 3 -9 8.2 v 16.8 c 0 5.2 3.7 8.2 9 8.2 c 5.3 0 9.1 -3 9.1 -8.2 V 19.4 C 330.1 14.2 326.4 11.2 321 11.2 Z" stroke-linecap="round"></path>
</g>
<g transform="matrix(1 0 0 1 305.22 229.8)">
<g style="">
		<g transform="matrix(1 0 0 1 -9.52 0)" id="path4">
<path style="stroke: none; stroke-width: 1; stroke-dasharray: none; stroke-linecap: butt; stroke-dashoffset: 0; stroke-linejoin: miter; stroke-miterlimit: 4; fill: rgb(0,0,0); fill-rule: nonzero; opacity: 1;" transform=" translate(-24.71, -26.8)" d="M 20.9 53.4 h 7.8 c 1.8 0 2.3 -0.3 3.3 -2.4 L 49.3 2.6 c 0.4 -1.1 0.1 -2.3 -1.5 -2.3 h -8.6 c -2.2 0 -2.7 0.6 -3.4 2.6 L 24.9 36.3 L 13.9 2.8 c -0.6 -1.9 -1.2 -2.6 -3.3 -2.6 H 1.6 c -1.5 0 -1.9 1.3 -1.5 2.3 L 17.6 51 C 18.5 53.1 19.1 53.4 20.9 53.4 Z" stroke-linecap="round"></path>
</g>
		<g transform="matrix(1 0 0 1 27.67 -4.45)" id="path18">
<path style="stroke: none; stroke-width: 1; stroke-dasharray: none; stroke-linecap: butt; stroke-dashoffset: 0; stroke-linejoin: miter; stroke-miterlimit: 4; fill: rgb(242,77,0); fill-rule: nonzero; opacity: 1;" transform=" translate(-61.9, -22.35)" d="M 57.6 30 h 8.6 c 1.5 0 2.3 -0.5 2.3 -2.3 v -4.1 v -6 v -0.6 c 0 -1.9 -0.9 -2.3 -2.3 -2.3 h -8.6 c -1.5 0 -2.3 0.5 -2.3 2.3 v 10.7 C 55.3 29.5 56.2 30 57.6 30 Z" stroke-linecap="round"></path>
</g>
		<g transform="matrix(1 0 0 1 27.67 18.85)" id="path20">
<path style="stroke: none; stroke-width: 1; stroke-dasharray: none; stroke-linecap: butt; stroke-dashoffset: 0; stroke-linejoin: miter; stroke-miterlimit: 4; fill: rgb(0,0,0); fill-rule: nonzero; opacity: 1;" transform=" translate(-61.9, -45.65)" d="M 55.3 51 c 0 1.9 0.9 2.3 2.3 2.3 h 8.6 c 1.5 0 2.3 -0.5 2.3 -2.3 v -4.1 v -6 v -0.6 c 0 -1.9 -0.9 -2.3 -2.3 -2.3 h -8.6 c -1.5 0 -2.3 0.5 -2.3 2.3 V 51 Z" stroke-linecap="round"></path>
</g>
</g>
</g>
</svg>