<svg xmlns="http://www.w3.org/2000/svg" xmlns:xlink="http://www.w3.org/1999/xlink" viewBox="0 -7.152557373046875e-7 364.40179443359375 208.57000732421875">
	<path fill="rgb(24,24,24)" stroke="none" transform="matrix(2 0 0 2 0 58)" d="M7.255 75.283C3.248 75.283 0 72.033 0 68.025L0 7.257C0 3.25 3.248 0 7.255 0L26.265 0C34.314 0 41.218 2.693 46.236 7.791C50.99 12.619 53.609 19.297 53.609 26.59C53.609 41.381 41.74 52.967 26.589 52.967L14.513 52.967L14.513 68.025C14.513 72.033 11.263 75.283 7.255 75.283ZM25.945 39.742C33.568 39.742 39.099 34.211 39.099 26.59C39.099 20.129 35.531 13.222 25.517 13.222L14.513 13.222L14.513 39.742L25.945 39.742Z" fill-rule="evenodd"></path>
	<path fill="rgb(24,24,24)" stroke="none" transform="matrix(2 0 0 2 110 58)" d="M20.717 68.027C20.717 72.035 23.965 75.285 27.973 75.285C31.981 75.285 35.231 72.035 35.231 68.027L35.227 13.869L49.012 13.869C52.84 13.869 55.946 10.763 55.946 6.933C55.946 3.105 52.84 0 49.012 0L6.934 0C3.104 0 0 3.105 0 6.935C0 10.763 3.104 13.869 6.934 13.869L20.715 13.869L20.717 68.027"></path>
	<path fill="rgb(217,43,38)" stroke="none" transform="matrix(2 0 0 2 208 0)" d="M72.9099 43.8166C76.0229 42.4646 78.2009 39.3636 78.2009 35.7536C78.2009 32.1386 76.0209 29.0346 72.9059 27.6856L10.1349 0.595589C6.45491 -0.992411 2.18391 0.704589 0.595912 4.38459C-0.992088 8.06459 0.702912 12.3336 4.38291 13.9216L54.9489 35.7496L4.38291 57.5796C0.702912 59.1676 -0.992088 63.4376 0.595912 67.1166C2.18391 70.7966 6.45491 72.4946 10.1349 70.9066L72.9099 43.8166"></path>
</svg>