<svg version="1.1" id="Layer_1" xmlns="http://www.w3.org/2000/svg" x="0" y="0" xml:space="preserve" viewBox="0 0 64 64"><style>.st0{fill:#0c9cd8}</style><path class="st0" d="M46.1 15.9l4.2-8.2-10.2 5.8c.5-3.2 1.1-7.6 2-13.5C19.8 11.9 12 24.2 9.3 32.1c-.1.3-.2.5-.3.8-1.4 4.6-1 7.6-1 7.6.3 13 10.9 23.5 24 23.5 13.3 0 24.1-10.8 24.1-24V15.9h-10zm-2 24c0 6.6-5.4 12-12 12s-12-5.4-12-12 5.4-12 12-12h12v12z"/><path class="st0" d="M26.3 39.9c0 3.1 2.6 5.7 5.7 5.7s5.7-2.5 5.7-5.7c0-3.1-2.5-5.7-5.7-5.7-3.1 0-5.7 2.6-5.7 5.7z"/></svg>