<!DOCTYPE svg PUBLIC "-//W3C//DTD SVG 1.1//EN" "http://www.w3.org/Graphics/SVG/1.1/DTD/svg11.dtd">
<svg viewBox="0 0 101.3 103.5" version="1.1" xmlns="http://www.w3.org/2000/svg" xmlns:xlink="http://www.w3.org/1999/xlink" xml:space="preserve" style="fill-rule:evenodd;clip-rule:evenodd;stroke-linejoin:round;stroke-miterlimit:2;">
    <g transform="matrix(1,0,0,1,-0.000189682,0.00165024)">
        <path d="M98.28,15.77C91.06,1.31 72.85,-4.12 58.51,3.33L16.06,25.41L25.57,43.68L15.98,48.66C1.78,56.04 -4.25,73.93 3.23,88.08C8.4,97.85 18.44,103.45 28.8,103.45C33.28,103.45 37.83,102.4 42.08,100.2L85.11,77.81L75.63,59.56L85.76,54.29C99.74,47.02 105.29,29.82 98.28,15.78L98.28,15.77ZM37.14,90.67C26.81,96.04 13.63,90.48 10.94,78.18C10.61,76.71 10.5,75.19 10.59,73.69C11.02,66.99 14.72,61.38 20.39,58.45L30.52,53.18L34.71,61.24C39.14,69.75 49.64,73.07 58.16,68.65L66.12,64.51L70.67,73.26L37.15,90.68L37.14,90.67ZM52.21,43.47C55.48,44.09 58.11,46.72 58.74,49.98C59.85,55.83 54.82,60.86 48.97,59.76C45.7,59.14 43.07,56.5 42.44,53.23C41.33,47.38 46.37,42.36 52.21,43.46L52.21,43.47ZM80.38,44.99L70.68,50.04L66.49,41.99C62.05,33.47 51.55,30.15 43.04,34.58L35.07,38.72L30.52,29.97L64.04,12.55C72.84,7.98 83.69,11.33 88.39,20.01C93.22,28.94 89.38,40.31 80.37,45L80.38,44.99Z" style="fill:rgb(18,22,66);fill-rule:nonzero;"/>
    </g>
</svg>
