<svg xmlns="http://www.w3.org/2000/svg" fill="none" viewBox="20.65 9.6 73 95.13">
<path d="M153.973 34.7283C155.925 35.2723 157.461 36.2643 158.581 37.7043C159.701 39.1123 160.261 40.9043 160.261 43.0803C160.261 45.9923 159.157 48.2323 156.949 49.8003C154.773 51.3683 151.589 52.1523 147.397 52.1523H131.365V18.5523H146.437C150.277 18.5523 153.237 19.3203 155.317 20.8563C157.429 22.3923 158.485 24.5203 158.485 27.2403C158.485 29.0003 158.069 30.5203 157.237 31.8003C156.437 33.0803 155.349 34.0563 153.973 34.7283ZM136.165 22.4403V33.1923H146.005C148.469 33.1923 150.357 32.7443 151.669 31.8483C153.013 30.9203 153.685 29.5763 153.685 27.8163C153.685 26.0563 153.013 24.7283 151.669 23.8323C150.357 22.9043 148.469 22.4403 146.005 22.4403H136.165ZM147.205 48.2643C149.925 48.2643 151.973 47.8163 153.349 46.9203C154.725 46.0243 155.413 44.6163 155.413 42.6963C155.413 38.9523 152.677 37.0803 147.205 37.0803H136.165V48.2643H147.205ZM165.101 16.5363H169.709V52.1523H165.101V16.5363ZM187.483 52.4403C184.955 52.4403 182.683 51.8803 180.667 50.7603C178.651 49.6403 177.067 48.1043 175.915 46.1523C174.795 44.1683 174.235 41.9283 174.235 39.4323C174.235 36.9363 174.795 34.7123 175.915 32.7603C177.067 30.7763 178.651 29.2403 180.667 28.1523C182.683 27.0323 184.955 26.4723 187.483 26.4723C190.011 26.4723 192.267 27.0323 194.251 28.1523C196.267 29.2403 197.835 30.7763 198.955 32.7603C200.107 34.7123 200.683 36.9363 200.683 39.4323C200.683 41.9283 200.107 44.1683 198.955 46.1523C197.835 48.1043 196.267 49.6403 194.251 50.7603C192.267 51.8803 190.011 52.4403 187.483 52.4403ZM187.483 48.4083C189.115 48.4083 190.571 48.0403 191.851 47.3043C193.163 46.5363 194.187 45.4803 194.923 44.1363C195.659 42.7603 196.027 41.1923 196.027 39.4323C196.027 37.6723 195.659 36.1203 194.923 34.7763C194.187 33.4003 193.163 32.3443 191.851 31.6083C190.571 30.8723 189.115 30.5043 187.483 30.5043C185.851 30.5043 184.379 30.8723 183.067 31.6083C181.787 32.3443 180.763 33.4003 179.995 34.7763C179.259 36.1203 178.891 37.6723 178.891 39.4323C178.891 41.1923 179.259 42.7603 179.995 44.1363C180.763 45.4803 181.787 46.5363 183.067 47.3043C184.379 48.0403 185.851 48.4083 187.483 48.4083ZM216.032 52.4403C213.504 52.4403 211.232 51.8803 209.216 50.7603C207.2 49.6403 205.616 48.1043 204.464 46.1523C203.344 44.1683 202.784 41.9283 202.784 39.4323C202.784 36.9363 203.344 34.7123 204.464 32.7603C205.616 30.7763 207.2 29.2403 209.216 28.1523C211.232 27.0323 213.504 26.4723 216.032 26.4723C218.56 26.4723 220.816 27.0323 222.8 28.1523C224.816 29.2403 226.384 30.7763 227.504 32.7603C228.656 34.7123 229.232 36.9363 229.232 39.4323C229.232 41.9283 228.656 44.1683 227.504 46.1523C226.384 48.1043 224.816 49.6403 222.8 50.7603C220.816 51.8803 218.56 52.4403 216.032 52.4403ZM216.032 48.4083C217.664 48.4083 219.12 48.0403 220.4 47.3043C221.712 46.5363 222.736 45.4803 223.472 44.1363C224.208 42.7603 224.576 41.1923 224.576 39.4323C224.576 37.6723 224.208 36.1203 223.472 34.7763C222.736 33.4003 221.712 32.3443 220.4 31.6083C219.12 30.8723 217.664 30.5043 216.032 30.5043C214.4 30.5043 212.928 30.8723 211.616 31.6083C210.336 32.3443 209.312 33.4003 208.544 34.7763C207.808 36.1203 207.44 37.6723 207.44 39.4323C207.44 41.1923 207.808 42.7603 208.544 44.1363C209.312 45.4803 210.336 46.5363 211.616 47.3043C212.928 48.0403 214.4 48.4083 216.032 48.4083ZM265.509 26.4723C268.709 26.4723 271.237 27.4003 273.093 29.2563C274.981 31.1123 275.925 33.8643 275.925 37.5123V52.1523H271.317V38.0403C271.317 35.5763 270.741 33.7203 269.589 32.4723C268.469 31.2243 266.853 30.6003 264.741 30.6003C262.405 30.6003 260.549 31.3363 259.173 32.8083C257.797 34.2483 257.109 36.3283 257.109 39.0483V52.1523H252.501V38.0403C252.501 35.5763 251.925 33.7203 250.773 32.4723C249.653 31.2243 248.037 30.6003 245.925 30.6003C243.589 30.6003 241.733 31.3363 240.357 32.8083C238.981 34.2483 238.293 36.3283 238.293 39.0483V52.1523H233.685V26.7123H238.101V30.5043C239.029 29.1923 240.245 28.2003 241.749 27.5283C243.253 26.8243 244.965 26.4723 246.885 26.4723C248.869 26.4723 250.629 26.8723 252.165 27.6723C253.701 28.4723 254.885 29.6403 255.717 31.1763C256.677 29.7043 258.005 28.5523 259.701 27.7203C261.429 26.8883 263.365 26.4723 265.509 26.4723ZM160.261 62.5523V96.1523H155.461V81.1763H136.165V96.1523H131.365V62.5523H136.165V77.0003H155.461V62.5523H160.261ZM178.622 96.4403C176.094 96.4403 173.822 95.8803 171.806 94.7603C169.79 93.6403 168.206 92.1043 167.054 90.1523C165.934 88.1683 165.374 85.9283 165.374 83.4323C165.374 80.9363 165.934 78.7123 167.054 76.7603C168.206 74.7763 169.79 73.2403 171.806 72.1523C173.822 71.0323 176.094 70.4723 178.622 70.4723C181.15 70.4723 183.406 71.0323 185.39 72.1523C187.406 73.2403 188.974 74.7763 190.094 76.7603C191.246 78.7123 191.822 80.9363 191.822 83.4323C191.822 85.9283 191.246 88.1683 190.094 90.1523C188.974 92.1043 187.406 93.6403 185.39 94.7603C183.406 95.8803 181.15 96.4403 178.622 96.4403ZM178.622 92.4083C180.254 92.4083 181.71 92.0403 182.99 91.3043C184.302 90.5363 185.326 89.4803 186.062 88.1363C186.798 86.7603 187.166 85.1923 187.166 83.4323C187.166 81.6723 186.798 80.1203 186.062 78.7763C185.326 77.4003 184.302 76.3443 182.99 75.6083C181.71 74.8723 180.254 74.5043 178.622 74.5043C176.99 74.5043 175.518 74.8723 174.206 75.6083C172.926 76.3443 171.902 77.4003 171.134 78.7763C170.398 80.1203 170.03 81.6723 170.03 83.4323C170.03 85.1923 170.398 86.7603 171.134 88.1363C171.902 89.4803 172.926 90.5363 174.206 91.3043C175.518 92.0403 176.99 92.4083 178.622 92.4083ZM203.571 96.4403C201.491 96.4403 199.491 96.1683 197.571 95.6243C195.651 95.0483 194.147 94.3283 193.059 93.4643L194.979 89.8163C196.099 90.6163 197.459 91.2563 199.059 91.7363C200.659 92.2163 202.275 92.4563 203.907 92.4563C207.939 92.4563 209.955 91.3043 209.955 89.0003C209.955 88.2323 209.683 87.6243 209.139 87.1763C208.595 86.7283 207.907 86.4083 207.075 86.2163C206.275 85.9923 205.123 85.7523 203.619 85.4963C201.571 85.1763 199.891 84.8083 198.579 84.3923C197.299 83.9763 196.195 83.2723 195.267 82.2803C194.339 81.2883 193.875 79.8963 193.875 78.1043C193.875 75.8003 194.835 73.9603 196.755 72.5843C198.675 71.1763 201.251 70.4723 204.483 70.4723C206.179 70.4723 207.875 70.6803 209.571 71.0963C211.267 71.5123 212.659 72.0723 213.747 72.7763L211.779 76.4243C209.699 75.0803 207.251 74.4083 204.435 74.4083C202.483 74.4083 200.995 74.7283 199.971 75.3683C198.947 76.0083 198.435 76.8563 198.435 77.9123C198.435 78.7443 198.723 79.4003 199.299 79.8803C199.875 80.3603 200.579 80.7123 201.411 80.9363C202.275 81.1603 203.475 81.4163 205.011 81.7043C207.059 82.0563 208.707 82.4403 209.955 82.8563C211.235 83.2403 212.323 83.9123 213.219 84.8723C214.115 85.8323 214.563 87.1763 214.563 88.9043C214.563 91.2083 213.571 93.0483 211.587 94.4243C209.635 95.7683 206.963 96.4403 203.571 96.4403ZM232.706 94.6643C232.034 95.2403 231.202 95.6883 230.21 96.0083C229.218 96.2963 228.194 96.4403 227.138 96.4403C224.578 96.4403 222.594 95.7523 221.186 94.3763C219.778 93.0003 219.074 91.0323 219.074 88.4723V74.5043H214.754V70.7123H219.074V65.1443H223.682V70.7123H230.978V74.5043H223.682V88.2803C223.682 89.6563 224.018 90.7123 224.69 91.4483C225.394 92.1843 226.386 92.5523 227.666 92.5523C229.074 92.5523 230.274 92.1523 231.266 91.3523L232.706 94.6643Z"/>
<path fill-rule="evenodd" clip-rule="evenodd" d="M34.3485 15.0779C34.3485 15.42 34.9695 18.3802 35.4055 20.1165C37.2641 27.5174 40.6458 35.3961 44.908 42.2549C45.2369 42.7842 45.5263 43.1957 45.5512 43.1694C45.5761 43.1428 45.7047 42.7742 45.837 42.3498C46.8408 39.1279 48.6949 34.8149 50.3823 31.7767C50.957 30.7416 50.9601 30.9485 50.3506 29.6906C47.9665 24.7701 42.5607 19.5944 35.795 15.7546C34.5008 15.0202 34.3485 14.9488 34.3485 15.0779ZM79.6417 15.3771C72.003 19.5364 66.0609 25.3996 63.8431 30.9665L63.6105 31.5503L63.8945 32.1161C65.1144 34.5468 66.9376 39.0313 68.2375 42.7979L68.6781 44.0747L69.252 43.198C74.4419 35.2712 78.6358 24.9032 80.2712 15.9569C80.4715 14.8605 80.5158 14.901 79.6417 15.3771ZM56.6227 26.6472C52.8121 31.1848 49.6936 38.7578 47.9445 47.7221L47.7607 48.6651L48.3177 49.6653C48.6243 50.2154 49.1807 51.2827 49.5544 52.0371C49.9282 52.7915 50.2348 53.3573 50.2354 53.2945C50.2471 52.3895 51.4773 49.0669 52.7212 46.5825C53.2773 45.4718 53.3268 45.4078 53.0882 46.1076C51.7256 50.1051 51.7917 56.659 53.2405 61.2555C54.1369 64.0994 54.7936 66.6424 55.4348 69.7543L55.7646 71.3546L55.8 70.9259C55.8195 70.6902 55.8626 69.7386 55.8958 68.8113C55.9658 66.8536 56.2895 59.2043 56.4933 54.6947C56.5704 52.9816 56.7522 48.9309 56.8968 45.6932C57.1665 39.6505 57.1934 39.2379 57.2754 39.8923C57.8118 44.1635 58.6145 61.2198 58.7011 70.183L58.7068 70.7831L58.8142 70.2687C59.4049 67.4422 60.035 64.9195 60.7011 62.7134C60.952 61.8827 61.0477 61.2295 61.2938 58.6668C61.8367 53.0141 61.8573 48.622 61.3544 45.783C61.2141 44.992 61.2335 45.022 61.8679 46.5791C62.6614 48.5277 63.4279 51.0495 63.7899 52.9044L63.9817 53.8863L64.7055 52.4186C65.1033 51.6116 65.6799 50.5012 65.9868 49.9511L66.5444 48.9509L66.4135 48.2937C64.8432 40.4164 61.1526 31.288 57.592 26.4758C57.1651 25.8991 57.266 25.8811 56.6227 26.6472ZM35.8508 46.5505C35.8513 46.7077 35.8625 46.7651 35.8756 46.6782C35.8885 46.5914 35.8882 46.4628 35.8748 46.3925C35.861 46.3222 35.8505 46.3933 35.8508 46.5505ZM78.4292 46.8363C78.4297 46.9934 78.4409 47.0509 78.454 46.964C78.4669 46.8771 78.4666 46.7485 78.4532 46.6782C78.4395 46.6079 78.4289 46.6791 78.4292 46.8363ZM40.5004 47.124C40.4229 48.1493 40.3932 54.2975 40.4581 55.8949C41.0948 71.6172 44.6816 82.8765 50.9015 88.6774C52.9041 90.5452 54.9493 93.2788 55.7292 95.1299L55.9458 95.6443L55.9203 95.1299C54.8459 73.2237 49.5044 55.862 41.2299 47.3812L40.5347 46.6685L40.5004 47.124ZM73.1486 47.5921C66.4829 54.3624 61.653 66.9942 59.4403 83.4423C58.9123 87.3681 58.3959 93.3225 58.4142 95.2728L58.4187 95.7586L58.5396 95.4728C59.3246 93.6151 61.4147 90.8175 63.403 88.9632C69.6229 83.1619 73.2089 71.9058 73.8467 56.1807C73.9141 54.5172 73.8773 48.2408 73.7953 47.3921L73.755 46.976L73.1486 47.5921ZM35.8499 51.6656C35.8499 51.8071 35.861 51.8651 35.8748 51.7942C35.8885 51.7236 35.8885 51.6076 35.8748 51.537C35.861 51.4665 35.8499 51.5242 35.8499 51.6656ZM78.4283 51.9514C78.4283 52.0928 78.4395 52.1509 78.4532 52.08C78.4669 52.0094 78.4669 51.8934 78.4532 51.8228C78.4395 51.7522 78.4283 51.8099 78.4283 51.9514Z" fill="#F96605"/>
<path fill-rule="evenodd" clip-rule="evenodd" d="M32.4356 19.5746C32.2807 21.4661 32.5879 25.4059 33.1486 28.719C33.4407 30.4439 34.2219 34.1508 34.3051 34.2045C35.3281 34.866 36.8558 35.9959 37.8688 36.8403C38.2654 37.171 38.6029 37.4284 38.6186 37.4127C38.6344 37.397 38.4418 37.0289 38.1906 36.5952C35.8619 32.5708 33.8059 26.4303 32.6928 20.1747C32.5948 19.6247 32.5074 19.136 32.4985 19.0889C32.4896 19.0417 32.4614 19.2603 32.4356 19.5746ZM82.2492 19.1283C82.2361 19.3566 81.8486 21.3864 81.6131 22.4608C80.3463 28.2395 78.5138 33.3498 76.5009 36.7172C76.2951 37.0612 76.1268 37.3513 76.1268 37.3619C76.1268 37.3721 76.3648 37.1838 76.6555 36.9429C77.6053 36.1562 80.1592 34.3102 80.4189 34.2225C80.6113 34.1576 81.6631 28.7802 81.982 26.2329C82.2821 23.8376 82.449 20.3451 82.3098 19.3746C82.2807 19.1703 82.2532 19.0594 82.2492 19.1283ZM24.9524 36.4488C24.843 41.9263 25.2742 50.3623 25.9517 56.0092C27.6157 69.876 33.3564 80.9061 42.407 87.6261C43.8652 88.7086 45.9296 89.9419 47.1078 90.4337C47.439 90.572 47.3658 90.4977 46.8323 90.1534C35.4367 82.8019 28.6679 67.2253 27.4005 45.436C27.2954 43.6263 27.2342 38.224 27.3025 36.7775C27.3442 35.8942 27.3391 35.7407 27.2662 35.6916C27.111 35.587 25.0621 34.4628 25.0267 34.4628C25.0076 34.4628 24.9741 35.3567 24.9524 36.4488ZM88.2251 35.3055L87.2069 35.8622L87.2455 37.4627C87.2875 39.1982 87.2058 42.711 87.0697 45.0074C85.8312 65.9557 79.341 81.8023 68.8699 89.4441C67.9875 90.0879 67.1888 90.7006 67.2319 90.7006C67.5665 90.7006 70.5159 88.9377 71.8975 87.9119C79.9877 81.9052 85.4706 72.4076 87.6964 60.5445C88.5831 55.8192 89.1538 49.1195 89.3315 41.3497C89.3881 38.8801 89.3544 34.7483 89.2778 34.7489C89.2589 34.7489 88.7852 34.9995 88.2251 35.3055Z" fill="#F9C511"/>
<path fill-rule="evenodd" clip-rule="evenodd" d="M29.6626 10.2445C29.6626 10.598 29.6906 11.8519 29.7243 13.0307C29.7583 14.2095 29.7926 17.2057 29.8009 19.6889C29.8155 24.1445 29.8309 24.5997 30.0381 26.6901C30.2133 28.4558 30.5527 30.545 30.8851 31.9029L30.9651 32.2293L30.4136 31.9527C28.9022 31.1954 26.9133 30.3821 25.0898 29.7757C23.4416 29.2276 20.7411 28.5052 20.6565 28.5898C20.6365 28.6098 20.6868 29.1613 20.7686 29.8155C21.038 31.9772 21.2312 34.2136 21.3852 36.9489C21.4695 38.4466 21.4833 44.7788 21.4101 48.2936C21.1358 61.4441 25.3207 74.9883 32.3679 83.7566C36.2314 88.564 41.6 92.6312 46.2933 94.3075C52.6952 96.5936 56.6102 100.079 57.04 103.874C57.1477 104.827 57.2514 105.022 57.2626 104.294C57.3163 100.737 61.5778 96.8905 68.0112 94.5932C72.7045 92.9169 78.0731 88.8497 81.9366 84.0424C88.9838 75.2741 93.1688 61.7298 92.8944 48.5794C92.8213 45.0645 92.835 38.7323 92.9193 37.2347C93.0733 34.4994 93.2665 32.263 93.536 30.1012C93.6177 29.4471 93.668 28.8956 93.648 28.8756C93.6283 28.8556 93.3105 28.9116 92.9421 29.0002C89.8851 29.7349 87.1832 30.6802 84.4305 31.9787L83.7849 32.2833L83.8198 32.1298C83.8389 32.0455 83.9018 31.7838 83.9592 31.548C84.2361 30.4155 84.5559 28.3826 84.7237 26.6901C84.9308 24.5989 84.9463 24.1445 84.9608 19.6889C84.9691 17.2057 85.0034 14.2095 85.0374 13.0307C85.0711 11.8519 85.0991 10.598 85.0991 10.2445L85.0997 9.60156H84.9174C84.5059 9.60156 81.9901 10.4603 80.4467 11.1275C73.2278 14.2486 66.5604 20.1802 62.1234 27.4279C61.8587 27.8606 61.7459 28.0012 61.7107 27.9423C60.4337 25.8168 59.2692 24.2125 58.043 22.8903C57.2091 21.9913 57.2729 22.0116 56.8111 22.496C55.9404 23.4093 54.2852 25.5262 53.2979 26.9901C52.7827 27.7543 52.8127 27.7331 52.6507 27.4445C49.7982 22.3697 43.7669 16.3652 38.2803 13.1387C35.679 11.6087 30.8917 9.60156 29.8443 9.60156H29.662L29.6626 10.2445ZM35.6059 15.6206C42.4701 19.4903 47.963 24.7232 50.3749 29.6906C50.9261 30.8259 50.9232 30.8139 50.7318 31.1671C48.4963 35.2932 47.1335 38.4194 45.9133 42.2203C45.7295 42.7933 45.5621 43.2628 45.5415 43.2634C45.4846 43.2648 44.223 41.2102 43.4543 39.8637C39.4139 32.7868 36.472 25.289 34.8935 18.0461C34.6903 17.1142 34.2914 15.0539 34.2914 14.9364C34.2914 14.9027 34.8246 15.1799 35.6059 15.6206ZM80.2738 16.0406C78.8361 23.8833 75.6962 32.2027 71.2357 39.9851C70.0384 42.0743 68.6919 44.1938 68.6482 44.0581C67.6186 40.851 65.5962 35.7464 64.1243 32.6388L63.5988 31.5292L63.8134 30.9814C65.6365 26.3306 69.9315 21.6201 76.0982 17.5083C77.6033 16.5047 80.3812 14.8656 80.4538 14.9382C80.4641 14.9484 80.3832 15.4445 80.2738 16.0406ZM32.9228 21.2606C34.0745 27.0633 36.0388 32.8499 38.0057 36.2345C38.4643 37.0241 38.7404 37.5504 38.6747 37.511C38.6372 37.4884 38.2549 37.1815 37.8251 36.8292C36.8446 36.025 36.1385 35.4907 35.1201 34.782C34.1762 34.125 34.2928 34.2925 34.0407 33.234C33.0003 28.8653 32.4805 25.0712 32.4228 21.4238C32.3839 18.9734 32.4225 18.5062 32.5839 19.4603C32.6425 19.8061 32.7951 20.6162 32.9228 21.2606ZM82.3381 21.3463C82.2841 25.0598 81.7729 28.8179 80.721 33.234C80.4681 34.295 80.5858 34.1299 79.6285 34.7688C78.6258 35.4381 77.6991 36.1233 76.7269 36.9138C76.248 37.3033 76.0236 37.4573 76.0957 37.3475C78.5323 33.6358 81.1008 26.086 82.1667 19.5038C82.3313 18.4879 82.3733 18.9397 82.3381 21.3463ZM57.7506 26.6572C61.1835 31.3683 64.4155 39.3113 66.2938 47.6538L66.581 48.9286L66.0337 49.9113C65.7325 50.4517 65.1421 51.5884 64.7215 52.4372C64.3009 53.2859 63.956 53.9654 63.9551 53.9474C63.8891 52.576 62.3825 47.5887 61.4292 45.5875L61.3164 45.3503L61.3495 45.5789C61.3678 45.7046 61.4207 46.0647 61.4673 46.379C61.9256 49.4681 61.7467 55.6894 61.0412 61.21C60.968 61.783 60.862 62.2771 60.6977 62.8103C60.1473 64.5957 59.4292 67.4453 58.9563 69.7209L58.7117 70.8973L58.6745 69.7257C58.6539 69.0813 58.6114 67.4996 58.5796 66.2109C58.3045 54.9447 57.7889 44.5067 57.3034 40.378L57.2297 39.7494L57.1897 40.178C57.1677 40.4138 56.9705 44.6059 56.7516 49.4938C56.5327 54.3818 56.327 58.9597 56.2947 59.6669C56.1855 62.0496 55.8978 69.1153 55.8586 70.3693C55.8372 71.0534 55.8115 71.6043 55.8009 71.594C55.7906 71.5837 55.652 70.9339 55.4931 70.1504C54.8436 66.9475 54.1821 64.3434 53.3236 61.6101C51.7914 56.7304 51.6571 50.2474 53.0067 46.2976C53.1873 45.7686 53.1868 45.7446 53.001 46.0647C52.1294 47.5667 50.7644 51.0295 50.3734 52.7309L50.214 53.4248L49.5159 52.0165C49.1318 51.2421 48.58 50.1839 48.2897 49.6653C47.6736 48.5645 47.695 48.8269 48.0702 46.994C49.8679 38.2105 53.0382 30.7347 56.8036 26.3989C57.2454 25.8902 57.1783 25.8717 57.7506 26.6572ZM27.1759 35.6081C31.7358 38.2037 34.826 40.4852 35.9191 42.0623L36.0691 42.2789L36.0056 43.3531C35.7845 47.1037 35.8448 52.9735 36.1514 57.4951C37.1627 72.4227 40.9142 83.8635 46.7723 89.8862C47.4952 90.6294 47.4872 90.6411 46.5591 90.1965C36.9358 85.588 29.2974 74.2636 26.6638 60.6999C25.4916 54.6627 24.5706 40.7824 24.9558 34.9632L24.9927 34.4059L25.5985 34.7305C25.9317 34.9089 26.6415 35.3038 27.1759 35.6081ZM89.3781 38.1777C89.4056 48.842 88.4651 58.3941 86.7557 64.8092C83.6266 76.5514 76.3694 86.3524 67.7454 90.4823C66.8173 90.9269 66.8093 90.9152 67.5323 90.1719C73.3904 84.1492 77.1418 72.7085 78.1531 57.7809C78.4598 53.2593 78.5201 47.3895 78.2989 43.6389L78.2354 42.5647L78.3855 42.3481C79.5762 40.6298 83.1785 38.0488 88.3288 35.2235L89.3004 34.6905L89.3358 35.1055C89.3553 35.3335 89.3744 36.716 89.3781 38.1777ZM42.5187 48.7794C48.4994 55.8877 52.7821 67.704 54.8342 82.7564C55.3834 86.7851 55.9584 93.3027 55.9509 95.4156L55.9498 95.7014L55.7055 95.1299C54.8907 93.2239 53.4762 91.3221 51.0078 88.8146C49.5419 87.3255 49.1901 86.9343 48.5111 86.0364C44.0181 80.0966 41.3231 70.7053 40.5504 58.2953C40.3372 54.8736 40.3104 48.2588 40.5041 46.8657L40.5395 46.6096L41.1925 47.2943C41.5517 47.6712 42.1487 48.3394 42.5187 48.7794ZM73.9039 49.8422C74.2339 61.3206 72.5331 72.6056 69.3506 80.0511C67.704 83.9029 66.2 86.1513 63.2967 89.1003C60.8117 91.6247 59.3358 93.6205 58.5516 95.5162C58.3356 96.0389 58.3359 96.0415 58.4082 94.4926C58.9077 83.77 60.8895 72.5447 63.7614 64.1705C66.2335 56.9622 69.314 51.533 73.2686 47.4155L73.755 46.9091L73.7936 47.1297C73.815 47.2512 73.8647 48.4719 73.9039 49.8422Z" fill="#14192C"/>
<path fill-rule="evenodd" clip-rule="evenodd" d="M27.3313 35.8773C27.2582 36.055 27.2851 43.4848 27.3636 44.8359C28.6641 67.1959 35.3652 82.829 46.7711 90.1128L47.1792 90.3734L46.6934 89.8653C40.779 83.682 37.0855 72.2539 36.0931 57.0665C35.7967 52.532 35.7573 46.6891 35.9971 42.8973L36.0368 42.2735L35.8685 42.04C34.8051 40.5655 32.1161 38.5246 28.2592 36.2645C27.3253 35.7173 27.3865 35.7427 27.3313 35.8773ZM86.8714 36.0582C86.73 36.1453 86.1256 36.5071 85.5283 36.8623C81.9806 38.9718 79.447 40.9236 78.436 42.3258L78.2677 42.5593L78.3074 43.1831C78.5472 46.9748 78.5077 52.8178 78.2114 57.3523C77.2133 72.6268 73.5164 84.0052 67.5259 90.2385C66.863 90.9286 66.873 90.9266 67.8969 90.1677C69.3891 89.0612 69.5306 88.9523 70.2681 88.3388C79.9726 80.2669 85.8761 65.0429 87.0706 45.0074C87.2583 41.8589 87.3203 35.8787 87.1652 35.8956C87.1449 35.8979 87.0129 35.9707 86.8714 36.0582Z" fill="#F9C511"/>
<path fill-rule="evenodd" clip-rule="evenodd" d="M57.188 39.6374C57.1683 39.6882 57.1554 39.8374 57.1588 39.9683C57.1657 40.2043 57.166 40.2037 57.2168 39.8977C57.2683 39.5879 57.2546 39.4636 57.188 39.6374ZM57.1114 41.121C57.112 41.2782 57.1231 41.3356 57.1363 41.2488C57.1491 41.1619 57.1488 41.0333 57.1354 40.963C57.1217 40.8927 57.1111 40.9639 57.1114 41.121ZM24.9315 41.0925C24.9315 41.2025 24.9435 41.2476 24.9578 41.1925C24.9721 41.1376 24.9721 41.0476 24.9578 40.9924C24.9435 40.9376 24.9315 40.9824 24.9315 41.0925ZM89.3421 41.3782C89.3421 41.4882 89.3541 41.5334 89.3684 41.4782C89.3827 41.4234 89.3827 41.3334 89.3684 41.2782C89.3541 41.2233 89.3421 41.2682 89.3421 41.3782ZM57.0543 42.3784C57.0548 42.5355 57.066 42.593 57.0791 42.5061C57.092 42.4192 57.0917 42.2907 57.0783 42.2204C57.0645 42.1501 57.054 42.2212 57.0543 42.3784ZM36.0191 42.6356C36.0191 42.7456 36.0311 42.7907 36.0454 42.7356C36.0597 42.6807 36.0597 42.5904 36.0454 42.5356C36.0311 42.4804 36.0191 42.5255 36.0191 42.6356ZM78.2546 42.9213C78.2546 43.0313 78.2666 43.0765 78.2809 43.0213C78.2952 42.9665 78.2952 42.8762 78.2809 42.8213C78.2666 42.7662 78.2546 42.8113 78.2546 42.9213ZM56.9971 43.5786C56.9977 43.7357 57.0088 43.7932 57.022 43.7063C57.0348 43.6194 57.0345 43.4909 57.0211 43.4206C57.0074 43.3503 56.9968 43.4214 56.9971 43.5786ZM35.9642 43.6643C35.9642 43.8058 35.9754 43.8638 35.9891 43.7929C36.0028 43.7223 36.0028 43.6063 35.9891 43.5357C35.9754 43.4651 35.9642 43.5229 35.9642 43.6643ZM78.314 43.9501C78.314 44.0915 78.3252 44.1495 78.3389 44.0787C78.3526 44.0081 78.3526 43.8921 78.3389 43.8215C78.3252 43.7509 78.314 43.8086 78.314 43.9501ZM56.9399 44.8359C56.9405 44.9931 56.9517 45.0505 56.9648 44.9637C56.9777 44.8768 56.9774 44.7482 56.964 44.6779C56.9502 44.6076 56.9397 44.6788 56.9399 44.8359ZM57.6798 44.7502C57.6798 44.8602 57.6918 44.9054 57.7061 44.8502C57.7204 44.7953 57.7204 44.705 57.7061 44.6502C57.6918 44.5953 57.6798 44.6402 57.6798 44.7502ZM35.9088 45.036C35.9088 45.2088 35.9194 45.2797 35.9325 45.1931C35.9456 45.1065 35.9456 44.9654 35.9325 44.8788C35.9194 44.7925 35.9088 44.8631 35.9088 45.036ZM78.3729 45.3217C78.3729 45.4946 78.3835 45.5655 78.3966 45.4789C78.4098 45.3923 78.4098 45.2511 78.3966 45.1646C78.3835 45.0783 78.3729 45.1488 78.3729 45.3217ZM57.7369 45.6075C57.7369 45.7175 57.7489 45.7627 57.7632 45.7075C57.7775 45.6526 57.7775 45.5623 57.7632 45.5075C57.7489 45.4526 57.7369 45.4975 57.7369 45.6075ZM56.8828 46.0933C56.8834 46.2504 56.8945 46.3079 56.9077 46.221C56.9205 46.1341 56.9202 46.0055 56.9068 45.9352C56.8931 45.865 56.8825 45.9361 56.8828 46.0933ZM57.7952 46.4933C57.7961 46.6191 57.8078 46.6637 57.8212 46.5928C57.835 46.5216 57.8344 46.4188 57.8201 46.3642C57.8058 46.3093 57.7947 46.3676 57.7952 46.4933ZM40.9496 47.0934C41.1996 47.3449 41.4171 47.5507 41.4328 47.5507C41.4485 47.5507 41.2568 47.3449 41.0068 47.0934C40.7567 46.842 40.5393 46.6362 40.5235 46.6362C40.5078 46.6362 40.6996 46.842 40.9496 47.0934ZM35.8571 47.5792C35.8571 48.0193 35.8662 48.1919 35.8771 47.9624C35.8879 47.7333 35.8876 47.3732 35.8768 47.1623C35.8659 46.9517 35.8571 47.1392 35.8571 47.5792ZM73.2963 47.3935L72.8406 47.865L73.3121 47.4092C73.7498 46.9857 73.8096 46.922 73.7678 46.922C73.7593 46.922 73.5472 47.134 73.2963 47.3935ZM40.477 47.1506C40.477 47.2606 40.489 47.3058 40.5033 47.2506C40.5175 47.1957 40.5175 47.1057 40.5033 47.0506C40.489 46.9957 40.477 47.0406 40.477 47.1506ZM56.8256 47.3506C56.8262 47.5078 56.8374 47.5652 56.8505 47.4784C56.8634 47.3915 56.8631 47.2629 56.8496 47.1926C56.8359 47.1223 56.8254 47.1935 56.8256 47.3506ZM78.4355 47.865C78.4355 48.3051 78.4446 48.4777 78.4555 48.2482C78.4663 48.019 78.4661 47.659 78.4552 47.4481C78.4443 47.2375 78.4355 47.4249 78.4355 47.865ZM57.8512 47.4364C57.8512 47.5464 57.8632 47.5915 57.8775 47.5364C57.8918 47.4815 57.8918 47.3915 57.8775 47.3363C57.8632 47.2815 57.8512 47.3263 57.8512 47.4364ZM73.7967 47.4364C73.7967 47.5464 73.8087 47.5915 73.823 47.5364C73.8373 47.4815 73.8373 47.3915 73.823 47.3363C73.8087 47.2815 73.7967 47.3263 73.7967 47.4364ZM40.4221 48.4079C40.4221 48.5494 40.4332 48.6071 40.447 48.5365C40.4607 48.466 40.4607 48.3499 40.447 48.2793C40.4332 48.2088 40.4221 48.2665 40.4221 48.4079ZM57.9095 48.4365C57.9104 48.5623 57.9221 48.6068 57.9355 48.536C57.9493 48.4648 57.9487 48.3619 57.9344 48.3074C57.9201 48.2525 57.909 48.3108 57.9095 48.4365ZM56.7685 48.608C56.7691 48.7651 56.7802 48.8226 56.7934 48.7357C56.8062 48.6488 56.8059 48.5202 56.7925 48.4499C56.7788 48.3797 56.7682 48.4508 56.7685 48.608ZM73.8562 48.6937C73.8562 48.8352 73.8673 48.8929 73.881 48.8223C73.8947 48.7517 73.8947 48.6357 73.881 48.5651C73.8673 48.4945 73.8562 48.5523 73.8562 48.6937ZM61.6836 49.1795C61.6842 49.3367 61.6953 49.3941 61.7084 49.3072C61.7213 49.2204 61.721 49.0918 61.7076 49.0215C61.6939 48.9512 61.6833 49.0223 61.6836 49.1795ZM57.9678 49.4938C57.9678 49.6353 57.979 49.6933 57.9927 49.6224C58.0064 49.5518 58.0064 49.4361 57.9927 49.3652C57.979 49.2947 57.9678 49.3524 57.9678 49.4938ZM35.8576 50.5226C35.8576 51.0412 35.8665 51.2536 35.8771 50.9941C35.8876 50.7349 35.8876 50.3105 35.8771 50.0511C35.8665 49.7919 35.8576 50.0039 35.8576 50.5226ZM56.7113 49.8653C56.7119 50.0225 56.7231 50.0799 56.7362 49.9931C56.7491 49.9062 56.7488 49.7776 56.7353 49.7073C56.7216 49.637 56.7111 49.7082 56.7113 49.8653ZM78.436 50.8083C78.436 51.327 78.4449 51.5393 78.4555 51.2798C78.4661 51.0207 78.4661 50.5963 78.4555 50.3368C78.4449 50.0776 78.436 50.2897 78.436 50.8083ZM40.3718 50.9226C40.3718 51.347 40.3809 51.5207 40.3918 51.3084C40.4029 51.0964 40.4029 50.7492 40.3918 50.5369C40.3809 50.3248 40.3718 50.4983 40.3718 50.9226ZM58.025 50.6369C58.025 50.7783 58.0361 50.8363 58.0498 50.7655C58.0636 50.6949 58.0636 50.5792 58.0498 50.5083C58.0361 50.4377 58.025 50.4954 58.025 50.6369ZM73.9202 51.2084C73.9202 51.6328 73.9293 51.8065 73.9402 51.5942C73.9513 51.3821 73.9513 51.0349 73.9402 50.8226C73.9293 50.6106 73.9202 50.784 73.9202 51.2084ZM56.6542 51.1227C56.6548 51.2798 56.6659 51.3373 56.679 51.2504C56.6919 51.1635 56.6916 51.0349 56.6782 50.9646C56.6645 50.8944 56.6539 50.9655 56.6542 51.1227ZM58.083 51.8085C58.0836 51.9657 58.0947 52.0231 58.1079 51.9362C58.1207 51.8494 58.1204 51.7208 58.107 51.6505C58.0933 51.5802 58.0827 51.6513 58.083 51.8085ZM52.0846 52.0371C52.0849 52.2571 52.0951 52.34 52.1074 52.2217C52.1197 52.1031 52.1197 51.9231 52.1069 51.8216C52.0943 51.7199 52.0843 51.8171 52.0846 52.0371ZM56.597 52.38C56.5976 52.5372 56.6087 52.5946 56.6219 52.5078C56.6348 52.4209 56.6345 52.2923 56.621 52.222C56.6073 52.1517 56.5967 52.2229 56.597 52.38ZM40.3724 53.0658C40.3724 53.5374 40.3812 53.7225 40.3921 53.4776C40.4027 53.2325 40.4027 52.8467 40.3918 52.6204C40.3809 52.3937 40.3724 52.5943 40.3724 53.0658ZM61.6862 52.8944C61.6864 53.1144 61.6967 53.1973 61.709 53.079C61.7213 52.9604 61.7213 52.7804 61.7084 52.6789C61.6959 52.5772 61.6859 52.6744 61.6862 52.8944ZM73.9207 53.3516C73.9207 53.8231 73.9296 54.0083 73.9405 53.7634C73.951 53.5182 73.951 53.1324 73.9402 52.9061C73.9293 52.6795 73.9207 52.8801 73.9207 53.3516ZM58.141 53.0944C58.141 53.2673 58.1516 53.3382 58.1647 53.2516C58.1779 53.1653 58.1779 53.0238 58.1647 52.9373C58.1516 52.8507 58.141 52.9215 58.141 53.0944ZM35.9099 53.2087C35.9099 53.413 35.9202 53.4968 35.9331 53.3945C35.9456 53.2925 35.9456 53.1253 35.9331 53.023C35.9202 52.9207 35.9099 53.0044 35.9099 53.2087ZM52.086 53.5802C52.0857 53.8631 52.0954 53.986 52.1074 53.8534C52.1194 53.7208 52.1197 53.4894 52.1077 53.339C52.096 53.1887 52.0863 53.2973 52.086 53.5802ZM78.374 53.4945C78.374 53.6988 78.3843 53.7825 78.3972 53.6802C78.4098 53.5782 78.4098 53.4111 78.3972 53.3087C78.3843 53.2064 78.374 53.2902 78.374 53.4945ZM56.5399 53.6374C56.5405 53.7945 56.5516 53.852 56.5647 53.7651C56.5776 53.6782 56.5773 53.5496 56.5639 53.4793C56.5502 53.4091 56.5396 53.4802 56.5399 53.6374ZM61.6256 54.2946C61.6256 54.4361 61.6367 54.4938 61.6504 54.4232C61.6642 54.3526 61.6642 54.2369 61.6504 54.166C61.6367 54.0954 61.6256 54.1532 61.6256 54.2946ZM58.1973 54.4375C58.1979 54.5947 58.209 54.6521 58.2222 54.5652C58.235 54.4784 58.2347 54.3498 58.2213 54.2795C58.2076 54.2092 58.197 54.2803 58.1973 54.4375ZM35.9651 54.6661C35.9656 54.8233 35.9768 54.8807 35.9899 54.7938C36.0028 54.707 36.0025 54.5784 35.9891 54.5081C35.9754 54.4378 35.9648 54.5089 35.9651 54.6661ZM56.4827 54.8947C56.4833 55.0519 56.4944 55.1093 56.5076 55.0225C56.5205 54.9356 56.5202 54.807 56.5067 54.7367C56.493 54.6664 56.4824 54.7376 56.4827 54.8947ZM78.3149 54.9519C78.3155 55.109 78.3266 55.1665 78.3398 55.0796C78.3526 54.9927 78.3523 54.8641 78.3389 54.7938C78.3252 54.7235 78.3146 54.7947 78.3149 54.9519ZM52.136 54.9233C52.136 55.0333 52.148 55.0785 52.1623 55.0233C52.1766 54.9684 52.1766 54.8784 52.1623 54.8233C52.148 54.7684 52.136 54.8133 52.136 54.9233ZM61.5661 55.2662C61.5661 55.3762 61.5781 55.4211 61.5924 55.3662C61.6067 55.3114 61.6067 55.2213 61.5924 55.1662C61.5781 55.1113 61.5661 55.1562 61.5661 55.2662ZM40.4229 55.6949C40.4235 55.852 40.4347 55.9095 40.4478 55.8226C40.4607 55.7357 40.4604 55.6071 40.447 55.5368C40.4332 55.4665 40.4227 55.5377 40.4229 55.6949ZM36.0202 55.8092C36.0211 55.9349 36.0328 55.9795 36.0462 55.9086C36.0599 55.8374 36.0594 55.7346 36.0451 55.68C36.0308 55.6251 36.0197 55.6834 36.0202 55.8092ZM58.2553 55.8949C58.2553 56.0678 58.2659 56.1386 58.279 56.0521C58.2922 55.9655 58.2922 55.8243 58.279 55.7377C58.2659 55.6514 58.2553 55.722 58.2553 55.8949ZM73.857 55.9806C73.8576 56.1378 73.8687 56.1952 73.8819 56.1084C73.8947 56.0215 73.8944 55.8929 73.881 55.8226C73.8673 55.7523 73.8567 55.8234 73.857 55.9806ZM78.2557 56.0949C78.2566 56.2207 78.2683 56.2652 78.2817 56.1944C78.2955 56.1232 78.2949 56.0203 78.2806 55.9658C78.2663 55.9109 78.2552 55.9692 78.2557 56.0949ZM56.4256 56.2092C56.4261 56.3664 56.4373 56.4238 56.4504 56.337C56.4633 56.2501 56.463 56.1215 56.4496 56.0512C56.4359 55.9809 56.4253 56.0521 56.4256 56.2092ZM61.509 56.1235C61.509 56.2335 61.521 56.2784 61.5353 56.2235C61.5496 56.1686 61.5496 56.0786 61.5353 56.0235C61.521 55.9686 61.509 56.0135 61.509 56.1235ZM36.0762 56.8093C36.0762 56.9193 36.0882 56.9645 36.1025 56.9093C36.1168 56.8545 36.1168 56.7645 36.1025 56.7093C36.0882 56.6544 36.0762 56.6993 36.0762 56.8093ZM40.477 57.0951C40.477 57.2051 40.489 57.2503 40.5033 57.1951C40.5175 57.1402 40.5175 57.0502 40.5033 56.9951C40.489 56.9402 40.477 56.9851 40.477 57.0951ZM78.1974 57.0951C78.1974 57.2051 78.2094 57.2503 78.2237 57.1951C78.238 57.1402 78.238 57.0502 78.2237 56.9951C78.2094 56.9402 78.1974 56.9851 78.1974 57.0951ZM58.313 57.4094C58.3133 57.598 58.3239 57.6683 58.3367 57.5654C58.3493 57.4629 58.3493 57.3085 58.3362 57.2225C58.323 57.1368 58.3127 57.2208 58.313 57.4094ZM73.7967 57.3808C73.7967 57.4909 73.8087 57.536 73.823 57.4809C73.8373 57.426 73.8373 57.336 73.823 57.2808C73.8087 57.226 73.7967 57.2708 73.7967 57.3808ZM56.3676 57.4951C56.3676 57.6366 56.3787 57.6946 56.3924 57.6237C56.4061 57.5532 56.4061 57.4374 56.3924 57.3666C56.3787 57.296 56.3676 57.3537 56.3676 57.4951ZM56.3121 58.7525C56.3121 58.9254 56.3227 58.9963 56.3358 58.9097C56.349 58.8231 56.349 58.6819 56.3358 58.5953C56.3227 58.509 56.3121 58.5796 56.3121 58.7525ZM58.3708 58.9811C58.3708 59.1854 58.381 59.2689 58.3939 59.1669C58.4065 59.0648 58.4065 58.8974 58.3939 58.7954C58.381 58.6933 58.3708 58.7768 58.3708 58.9811ZM56.2541 60.0384C56.2547 60.1956 56.2658 60.253 56.279 60.1662C56.2918 60.0793 56.2916 59.9507 56.2781 59.8804C56.2644 59.8101 56.2538 59.8813 56.2541 60.0384ZM58.4288 60.6957C58.4288 60.9314 58.4391 61.028 58.4513 60.91C58.4636 60.7923 58.4636 60.5994 58.4513 60.4814C58.4391 60.3636 58.4288 60.4599 58.4288 60.6957ZM56.1978 61.3815C56.1978 61.5544 56.2084 61.6253 56.2215 61.5387C56.2347 61.4524 56.2347 61.3109 56.2215 61.2243C56.2084 61.1377 56.1978 61.2086 56.1978 61.3815ZM58.4859 62.5817C58.4859 62.8175 58.4962 62.914 58.5085 62.796C58.5208 62.6783 58.5208 62.4854 58.5085 62.3674C58.4962 62.2496 58.4859 62.3459 58.4859 62.5817ZM56.1407 62.7532C56.1407 62.926 56.1512 62.9969 56.1644 62.9103C56.1775 62.8237 56.1775 62.6826 56.1644 62.596C56.1512 62.5097 56.1407 62.5803 56.1407 62.7532ZM56.0827 64.0962C56.0832 64.2534 56.0944 64.3108 56.1075 64.224C56.1204 64.1371 56.1201 64.0085 56.1067 63.9382C56.093 63.8679 56.0824 63.9391 56.0827 64.0962ZM58.5436 64.6106C58.5436 64.8621 58.5536 64.9578 58.5659 64.8235C58.5779 64.6889 58.5776 64.4832 58.5654 64.3663C58.5531 64.2491 58.5434 64.3591 58.5436 64.6106ZM56.0264 65.4393C56.0264 65.6122 56.0369 65.6831 56.0501 65.5965C56.0632 65.5102 56.0632 65.3687 56.0501 65.2821C56.0369 65.1958 56.0264 65.2664 56.0264 65.4393ZM58.6014 66.7824C58.6011 67.0653 58.6108 67.1882 58.6228 67.0556C58.6348 66.923 58.6351 66.6915 58.6231 66.5412C58.6114 66.3909 58.6016 66.4995 58.6014 66.7824ZM55.9698 66.8395C55.9701 67.0281 55.9806 67.0984 55.9935 66.9956C56.0061 66.893 56.0061 66.7387 55.9929 66.6527C55.9798 66.5669 55.9695 66.6509 55.9698 66.8395ZM55.9121 68.2398C55.9121 68.4127 55.9226 68.4835 55.9358 68.3969C55.9489 68.3106 55.9489 68.1692 55.9358 68.0826C55.9226 67.996 55.9121 68.0669 55.9121 68.2398ZM58.6588 69.2114C58.6588 69.51 58.6685 69.6323 58.6802 69.4828C58.6919 69.3337 58.6919 69.0893 58.6802 68.9399C58.6685 68.7907 58.6588 68.9127 58.6588 69.2114ZM55.8555 69.7543C55.8558 69.9429 55.8663 70.0132 55.8792 69.9103C55.8918 69.8077 55.8918 69.6534 55.8786 69.5674C55.8655 69.4817 55.8552 69.5657 55.8555 69.7543ZM55.7675 71.1688C55.7535 71.3026 55.762 71.4632 55.7863 71.526C55.8149 71.6003 55.8318 71.5149 55.834 71.2831C55.8383 70.8722 55.8043 70.8139 55.7675 71.1688ZM50.9798 88.7731C50.9798 88.7817 51.179 88.9812 51.4228 89.2161L51.8657 89.6433L51.4385 89.2004C51.0416 88.7889 50.9798 88.7314 50.9798 88.7731ZM62.8675 89.4718C62.6335 89.7076 62.4546 89.9005 62.4703 89.9005C62.486 89.9005 62.6906 89.7076 62.9246 89.4718C63.1587 89.2361 63.3376 89.0432 63.3219 89.0432C63.3061 89.0432 63.1015 89.2361 62.8675 89.4718ZM46.522 89.6876C46.522 89.6962 46.7214 89.8956 46.9649 90.1305L47.4078 90.5577L46.9806 90.1148C46.5837 89.7033 46.522 89.6459 46.522 89.6876ZM67.3348 90.3768C67.0968 90.6166 66.9567 90.7958 67.0076 90.7958C67.0568 90.7958 67.083 90.7823 67.0665 90.7658C67.0499 90.7489 67.2099 90.5603 67.4222 90.3465C67.6346 90.1325 67.7952 89.9576 67.7797 89.9576C67.764 89.9576 67.5637 90.1462 67.3348 90.3768ZM55.7366 91.8436C55.7366 91.9537 55.7486 91.9988 55.7629 91.9437C55.7772 91.8888 55.7772 91.7988 55.7629 91.7436C55.7486 91.6888 55.7366 91.7336 55.7366 91.8436ZM58.5371 92.1294C58.5371 92.2394 58.5491 92.2846 58.5634 92.2294C58.5776 92.1746 58.5776 92.0845 58.5634 92.0294C58.5491 91.9745 58.5371 92.0194 58.5371 92.1294ZM55.7949 92.7295C55.7958 92.8552 55.8075 92.8998 55.8209 92.829C55.8346 92.7578 55.8341 92.6549 55.8198 92.6003C55.8055 92.5455 55.7943 92.6038 55.7949 92.7295ZM58.4811 93.0153C58.4819 93.141 58.4936 93.1856 58.5071 93.1147C58.5208 93.0436 58.5202 92.9407 58.5059 92.8861C58.4916 92.8312 58.4805 92.8895 58.4811 93.0153ZM58.4259 94.1012C58.4265 94.2583 58.4376 94.3158 58.4508 94.2289C58.4636 94.142 58.4633 94.0134 58.4499 93.9431C58.4362 93.8728 58.4256 93.944 58.4259 94.1012ZM55.9104 94.9299C55.9104 95.0713 55.9215 95.1293 55.9352 95.0585C55.9489 94.9879 55.9489 94.8721 55.9352 94.8013C55.9215 94.7307 55.9104 94.7884 55.9104 94.9299ZM58.3525 95.53C58.3525 95.7449 58.3696 95.9032 58.3908 95.882C58.4316 95.8415 58.4199 95.2068 58.3776 95.1645C58.3639 95.1508 58.3525 95.3151 58.3525 95.53Z" fill="#14192C"/>
<path fill-rule="evenodd" clip-rule="evenodd" d="M32.4196 19.346C32.4205 19.4718 32.4322 19.5164 32.4456 19.4455C32.4593 19.3743 32.4588 19.2715 32.4445 19.2169C32.4302 19.162 32.419 19.2203 32.4196 19.346ZM82.3135 19.346C82.3144 19.4718 82.3261 19.5164 82.3395 19.4455C82.3532 19.3743 82.3527 19.2715 82.3384 19.2169C82.3241 19.162 82.3129 19.2203 82.3135 19.346ZM32.4196 22.4323C32.4205 22.558 32.4322 22.6026 32.4456 22.5317C32.4593 22.4606 32.4588 22.3577 32.4445 22.3031C32.4302 22.2482 32.419 22.3065 32.4196 22.4323ZM82.3135 22.4323C82.3144 22.558 82.3261 22.6026 82.3395 22.5317C82.3532 22.4606 82.3527 22.3577 82.3384 22.3031C82.3241 22.2482 82.3129 22.3065 82.3135 22.4323ZM24.9401 36.0631C24.9401 36.4246 24.9492 36.5726 24.9607 36.3917C24.9718 36.2111 24.9718 35.9153 24.9607 35.7345C24.9492 35.5539 24.9401 35.7016 24.9401 36.0631ZM89.3507 36.3488C89.3507 36.7103 89.3598 36.8584 89.3712 36.6775C89.3824 36.4969 89.3824 36.2011 89.3712 36.0202C89.3598 35.8396 89.3507 35.9874 89.3507 36.3488ZM24.9401 40.2638C24.9404 40.641 24.9495 40.7879 24.9607 40.5901C24.9718 40.3924 24.9718 40.0837 24.9607 39.9043C24.9492 39.7248 24.9401 39.8866 24.9401 40.2638ZM89.3507 40.5495C89.351 40.9267 89.3601 41.0736 89.3712 40.8759C89.3824 40.6781 89.3824 40.3695 89.3712 40.19C89.3598 40.0106 89.3507 40.1723 89.3507 40.5495ZM24.9932 42.8356C24.9935 43.0242 25.0041 43.0945 25.017 42.9916C25.0295 42.8891 25.0295 42.7347 25.0164 42.6487C25.0032 42.563 24.993 42.647 24.9932 42.8356ZM89.2895 43.1214C89.2898 43.31 89.3004 43.3803 89.3132 43.2774C89.3258 43.1748 89.3258 43.0205 89.3127 42.9345C89.2995 42.8488 89.2892 42.9328 89.2895 43.1214ZM25.0481 44.4645C25.0481 44.6059 25.0593 44.6639 25.073 44.5931C25.0867 44.5225 25.0867 44.4067 25.073 44.3359C25.0593 44.2653 25.0481 44.323 25.0481 44.4645ZM89.2301 44.7502C89.2301 44.8917 89.2412 44.9497 89.2549 44.8788C89.2687 44.8082 89.2687 44.6925 89.2549 44.6216C89.2412 44.551 89.2301 44.6088 89.2301 44.7502ZM25.1041 45.7504C25.105 45.8761 25.1167 45.9207 25.1301 45.8498C25.1438 45.7787 25.1433 45.6758 25.129 45.6212C25.1147 45.5664 25.1035 45.6246 25.1041 45.7504ZM89.1718 46.0361C89.1726 46.1619 89.1844 46.2065 89.1978 46.1356C89.2115 46.0644 89.2109 45.9616 89.1966 45.907C89.1824 45.8521 89.1712 45.9104 89.1718 46.0361ZM25.1601 46.8649C25.1601 46.9749 25.1721 47.02 25.1864 46.9649C25.2007 46.91 25.2007 46.82 25.1864 46.7648C25.1721 46.71 25.1601 46.7548 25.1601 46.8649ZM89.1135 47.1506C89.1135 47.2606 89.1255 47.3058 89.1398 47.2506C89.1541 47.1958 89.1541 47.1057 89.1398 47.0506C89.1255 46.9957 89.1135 47.0406 89.1135 47.1506ZM40.3666 51.9514C40.3666 52.1243 40.3772 52.1952 40.3903 52.1086C40.4035 52.0223 40.4035 51.8808 40.3903 51.7942C40.3772 51.7076 40.3666 51.7785 40.3666 51.9514ZM73.915 52.2372C73.915 52.41 73.9256 52.4809 73.9387 52.3943C73.9519 52.308 73.9519 52.1666 73.9387 52.08C73.9256 51.9934 73.915 52.0643 73.915 52.2372ZM38.4635 84.271C38.7292 84.5382 38.9595 84.7568 38.9753 84.7568C38.991 84.7568 38.7864 84.5382 38.5206 84.271C38.2549 84.0038 38.0245 83.7852 38.0088 83.7852C37.9931 83.7852 38.1977 84.0038 38.4635 84.271ZM75.7827 84.571L75.2981 85.0711L75.7982 84.5865C76.2625 84.1367 76.3243 84.071 76.2828 84.071C76.2742 84.071 76.0491 84.2961 75.7827 84.571Z" fill="#14192C"/>
</svg>