<svg xmlns:dc="http://purl.org/dc/elements/1.1/" xmlns:cc="http://creativecommons.org/ns#" xmlns:rdf="http://www.w3.org/1999/02/22-rdf-syntax-ns#" xmlns:svg="http://www.w3.org/2000/svg" xmlns="http://www.w3.org/2000/svg" xmlns:sodipodi="http://sodipodi.sourceforge.net/DTD/sodipodi-0.dtd" xmlns:inkscape="http://www.inkscape.org/namespaces/inkscape" version="1.1" id="svg37" sodipodi:docname="norton.svg" inkscape:version="1.0.2 (e86c8708, 2021-01-15)" viewBox="79.78 79.33 58.88 62.75">
  <metadata id="metadata43">
    <rdf:rdf>
      <cc:work rdf:about="">
        <dc:format>image/svg+xml</dc:format>
        <dc:type rdf:resource="http://purl.org/dc/dcmitype/StillImage"></dc:type>
      </cc:work>
    </rdf:rdf>
  </metadata>
  <defs id="defs41"></defs>
  <sodipodi:namedview pagecolor="#ffffff" bordercolor="#666666" borderopacity="1" objecttolerance="10" gridtolerance="10" guidetolerance="10" inkscape:pageopacity="0" inkscape:pageshadow="2" inkscape:window-width="1358" inkscape:window-height="782" id="namedview39" showgrid="false" inkscape:zoom="1.4272949" inkscape:cx="110.78627" inkscape:cy="150.27893" inkscape:window-x="0" inkscape:window-y="23" inkscape:window-maximized="0" inkscape:current-layer="#231f20ff"></sodipodi:namedview>
  <g id="#ffffffff" transform="matrix(0.27876733,0,0,0.27876733,77.765259,79.345901)">
    <path fill="#ffffff" opacity="1" d="M 54.36,84.53 C 66.49,70.58 84.48,61.6 103.02,61.01 c 13.63,-0.66 27.13,3.71 38.61,10.91 0,0.52 0,1.56 0.01,2.08 -1.49,0 -2.97,0 -4.46,0 0.01,2.45 0.01,4.91 0.01,7.37 -1.96,0 -3.92,0 -5.87,-0.01 -9.57,14.96 -17.48,30.94 -24.72,47.13 -7.02,-9.52 -14.62,-18.76 -23.83,-26.26 -4.43,-3.45 -9.27,-6.66 -14.75,-8.09 -3.12,-1.02 -6.86,1.46 -6.71,4.84 -0.02,3.84 2.99,6.65 5.42,9.25 13.95,14.6 24.05,32.59 30.3,51.75 1.77,7.2 11.03,11.17 17.51,7.77 3.29,-1.64 4.06,-5.53 5.37,-8.61 6.18,-15.45 13.28,-30.69 22.9,-44.33 2.49,-2.9 1.32,-6.93 1.55,-10.41 1.93,0.01 3.87,0.01 5.8,0.03 0,-2.43 0,-4.85 0,-7.27 1.95,0 3.9,0 5.86,0 0,-2.39 -0.01,-4.77 -0.01,-7.16 1.4,0.01 2.8,0.02 4.2,0.03 3.31,5.42 6.42,11.02 8.38,17.08 5.73,16.76 4.25,35.84 -4.08,51.48 -12.41,24.06 -40.55,39.04 -67.45,35.48 C 79.1,192.05 62.19,182.12 51.72,167.39 43.96,156.83 39.2,144.05 38.46,130.94 37.56,114.2 43.36,97.2 54.36,84.53 Z" id="path10"></path>
  </g>
  <g id="#ffc10eff" transform="matrix(0.27876733,0,0,0.27876733,77.765259,79.345901)">
    <path fill="#ffc10e" opacity="1" d="m 211.28,0 h 7.08 c 0,2.38 0.01,4.77 0.02,7.15 -2.38,0.02 -4.75,0.04 -7.12,0.08 0.01,-2.41 0.02,-4.82 0.02,-7.23 z" id="path13"></path>
    <path fill="#ffc10e" opacity="1" d="m 211.3,14.51 c 2.35,0.04 4.71,0.06 7.07,0.06 0,2.4 0.01,4.81 0.03,7.21 -2.38,0 -4.76,0 -7.14,0.01 0.02,-2.43 0.02,-4.85 0.04,-7.28 z" id="path15"></path>
    <path fill="#ffc10e" opacity="1" d="m 190.16,23.22 c 2.39,0 4.78,0 7.17,0 -0.02,2.44 -0.03,4.88 -0.02,7.32 -0.33,-0.01 -0.98,-0.02 -1.31,-0.03 -1.94,-0.05 -3.87,-0.07 -5.81,-0.08 -0.02,-2.4 -0.03,-4.81 -0.03,-7.21 z" id="path17"></path>
    <path fill="#ffc10e" opacity="1" d="m 47.98,48.96 c 16.23,-11.62 36.06,-18.25 56.04,-18.34 20.33,-0.38 40.73,5.93 57.3,17.71 0.65,0.51 1.3,1.03 1.95,1.56 -2.41,0.08 -4.82,0.12 -7.23,0.15 -0.06,1.87 0.42,3.87 -0.36,5.66 -1.8,1.78 -4.55,0.85 -6.81,0.97 0.01,3.65 0.01,7.31 0,10.96 -2.43,-0.01 -4.85,-0.02 -7.26,-0.03 0,1.44 0.01,2.88 0.02,4.32 -11.48,-7.2 -24.98,-11.57 -38.61,-10.91 -18.54,0.59 -36.53,9.57 -48.66,23.52 -11,12.67 -16.8,29.67 -15.9,46.41 0.74,13.11 5.5,25.89 13.26,36.45 10.47,14.73 27.38,24.66 45.34,26.68 26.9,3.56 55.04,-11.42 67.45,-35.48 8.33,-15.64 9.81,-34.72 4.08,-51.48 -1.96,-6.06 -5.07,-11.66 -8.38,-17.08 0.76,0 2.27,-0.01 3.02,-0.01 -0.01,-2.46 -0.04,-4.92 -0.09,-7.38 2.34,-0.87 4.87,-0.67 7.33,-0.69 -0.01,-2.42 -0.01,-4.83 -0.01,-7.25 1.94,0.01 3.88,0.02 5.82,0.03 -0.01,-3.16 -0.01,-6.32 -0.01,-9.48 1.27,-0.01 2.53,-0.01 3.8,-0.02 15.83,19.06 24.42,44.08 22.79,68.86 -2,23.64 -12.79,46.41 -29.87,62.88 -17.22,17.13 -41.02,27.21 -65.27,28.03 h -3.45 C 94.61,224.62 84.92,223.45 75.72,220.38 50.86,212.7 29.54,194.5 17.84,171.29 8.75,153.43 5.4,132.69 8.29,112.86 c 3.76,-25.55 18.68,-49 39.69,-63.9 z" id="path19"></path>
    <path fill="#ffc10e" opacity="1" d="m 156.27,57.24 c 2.08,-1.42 4.74,-0.52 7.08,-0.68 0,2.45 -0.01,4.91 -0.03,7.37 -2.43,0 -4.86,0 -7.3,0 0.07,-2.22 -0.33,-4.51 0.25,-6.69 z" id="path21"></path>
    <path fill="#ffc10e" opacity="1" d="m 156,74.71 c 2.43,0 4.85,0 7.28,0.01 0.06,2.08 0.14,4.16 0.3,6.23 -1.98,2.05 -5.07,0.77 -7.55,0.99 C 156.01,79.53 156,77.12 156,74.71 Z" id="path23"></path>
  </g>
  <g id="#231f20ff">
    <path fill="#231f20" opacity="1" d="m 134.62822,81.366964 c 0.6551,0.0084 1.31299,0.0056 1.9681,0 0.0251,0.663467 0.0306,1.329721 0.0279,1.995974 -0.66347,0 -1.32694,0 -1.9904,-0.0028 -0.006,-0.663466 -0.006,-1.326932 -0.006,-1.993186 z" id="path26" style="stroke-width:0.278767"></path>
    <path fill="#231f20" opacity="1" d="m 130.75893,83.404753 c 1.29348,0 2.58418,0 3.87765,0 -0.008,0.671829 -0.008,1.343659 -0.008,2.015488 -1.28233,0.0056 -2.56466,0.0056 -3.84699,0.0028 -0.003,-0.674618 -0.008,-1.346447 -0.0223,-2.018276 z" id="path28" style="stroke-width:0.278767"></path>
    <path fill="#231f20" opacity="1" d="m 128.55388,85.813303 c 0.59935,-0.0028 1.19592,-0.0056 1.79527,-0.01115 0,1.357596 -0.008,2.712405 0.0112,4.067215 -0.61329,-0.0056 -1.22379,-0.01115 -1.83429,-0.01394 -0.003,0.607712 -0.003,1.212638 -0.003,1.82035 -0.65789,-0.0028 -1.31578,-0.0028 -1.97646,-0.0056 -0.003,-0.671829 -0.003,-1.34087 -0.003,-2.009912 -0.60492,0.0028 -1.20985,0.0056 -1.81478,0.0056 -0.003,-0.596562 -0.003,-1.193124 -0.003,-1.789686 0.66626,-0.0028 1.3353,-0.0028 2.00434,-0.0056 -0.006,0.596562 -0.0112,1.193124 -0.0251,1.789686 0.61608,-0.0028 1.23215,-0.0056 1.85101,-0.0028 -0.003,-1.28233 0,-2.56466 -0.003,-3.844202 z" id="path30" style="stroke-width:0.278767"></path>
    <path fill="#231f20" opacity="1" d="m 132.40366,87.851092 c 0.092,0.0028 0.27319,0.0056 0.36518,0.0084 0.62166,0.01673 1.24331,0.01951 1.86774,0.02509 -0.008,0.660679 -0.0112,1.321357 -0.0112,1.982036 -0.62165,-0.0056 -1.24051,-0.0056 -1.86216,-0.0084 0.003,0.607713 0.006,1.212638 0.014,1.817563 -0.67462,-0.0028 -1.34644,-0.0028 -2.01827,-0.0056 0.014,-0.67183 0.0195,-1.343659 0.0223,-2.015488 0.53802,0 1.07883,0 1.61964,0.0028 0,-0.602138 0,-1.204275 0.003,-1.806413 z" id="path32" style="stroke-width:0.278767"></path>
    <path fill="#231f20" opacity="1" d="m 123.11792,91.695294 c 1.14015,0.01673 2.28031,0.01394 3.41769,0 0.006,0.68298 0.006,1.363172 0.014,2.046152 0.66625,0 1.33808,0 2.00712,0 -0.003,-0.68298 -0.006,-1.363172 -0.0112,-2.043364 0.60214,0.0056 1.20706,0.0084 1.81198,0.01115 -0.0139,1.338083 -0.0139,2.676167 0,4.01425 -0.53523,-0.0056 -1.07325,-0.0084 -1.61127,-0.01115 0.006,0.604926 0.0112,1.209851 0.0195,1.814776 -0.20072,0 -0.60214,0.0028 -0.80285,0.0028 -0.35404,0.0028 -0.70528,0.0028 -1.05932,0.0056 0,0.880905 0,1.76181 0.003,2.642712 -0.54081,-0.003 -1.08162,-0.006 -1.62242,-0.008 0,0.67462 0,1.34645 0.003,2.02106 -0.68577,0.006 -1.39105,-0.0502 -2.04336,0.19235 0.014,0.68577 0.0223,1.37154 0.0251,2.05731 -0.20908,0 -0.63002,0.003 -0.84188,0.003 -0.39027,-0.003 -0.78055,-0.006 -1.17082,-0.008 0,0.66625 0.003,1.32972 0.003,1.99597 -0.54638,0 -1.08998,0 -1.63358,0 0,0.67462 0,1.34923 0,2.02664 -0.53802,-0.006 -1.07883,-0.006 -1.61685,-0.008 -0.0641,0.97011 0.26204,2.09354 -0.43209,2.90197 -2.68174,3.80238 -4.66099,8.0508 -6.38377,12.35775 -0.36519,0.85861 -0.57984,1.94301 -1.49698,2.40019 -1.80667,0.94786 -4.38806,-0.15885 -4.88148,-2.16597 -1.74229,-5.34118 -4.55784,-10.35621 -8.446647,-14.42621 -0.677405,-0.7248 -1.516494,-1.50813 -1.510919,-2.5786 -0.04181,-0.94223 1.000775,-1.63358 1.870529,-1.34923 1.527644,0.39863 2.876879,1.29348 4.111817,2.25522 2.56745,2.09076 4.68608,4.66657 6.64303,7.32043 2.01827,-4.51324 4.22332,-8.96794 6.89113,-13.1383 0.54359,0.003 1.08998,0.003 1.63636,0.003 0,-0.68577 0,-1.37154 -0.003,-2.054515 0.41536,0 0.82794,0 1.2433,0 -0.003,-0.144959 -0.003,-0.434878 -0.003,-0.579836 -0.003,-0.401426 -0.006,-0.802851 -0.006,-1.204276 0.67183,0.0028 1.34645,0.0056 2.02385,0.0084 0.003,-1.0175 0.003,-2.037789 0,-3.05529 0.63002,-0.03345 1.39663,0.225802 1.89841,-0.270404 0.21744,-0.498993 0.0836,-1.056528 0.10036,-1.577823 0.67183,-0.0084 1.34365,-0.01952 2.01548,-0.04181 -0.1812,-0.147747 -0.3624,-0.292706 -0.5436,-0.434877 l 0.38192,0.273192 c 0,-0.465541 0,-0.931083 0,-1.396624 m -1.78964,3.607271 c -0.16168,0.607712 -0.0502,1.24609 -0.0697,1.864953 0.68019,0 1.3576,0 2.035,0 0.006,-0.685767 0.008,-1.371535 0.008,-2.054515 -0.65231,0.0446 -1.39384,-0.206288 -1.97367,0.189562 m -0.0753,4.870062 c 0,0.67183 0.003,1.34366 0.008,2.01549 0.69134,-0.0613 1.55273,0.29549 2.10469,-0.27598 -0.0446,-0.57705 -0.0669,-1.15688 -0.0836,-1.73672 -0.6774,-0.003 -1.35202,-0.003 -2.02942,-0.003 z" id="path34" style="stroke-width:0.278767"></path>
  </g>
</svg>