<svg xmlns="http://www.w3.org/2000/svg" enable-background="new 0 0 24 24" viewBox="0 0 24 24"><path fill="#AD080F" d="M10.17 13.46l-.01 5.06c0 4.81-.01 5.08-.06 5.08-.18 0-1.7.1-2.21.15-.33.03-1 .1-1.48.16-.49.06-.89.1-.9.09 0-.01-.01-5.41-.01-12.01V0L10.17 13.46zM18.49.01h-4.63l-.01 5.31v5.329l4.63 13.341c.02-.01.02-5.42.02-12.01L18.49.01z"/><path fill="#DF0D12" d="M18.48,23.99h-0.04c-0.08,0-0.24-0.01-0.43-0.03c-1.07-0.13-2.48-0.26-3.62-0.31c-0.37-0.02-0.68-0.04-0.69-0.04c0,0-0.29-0.84-0.84-2.41c-0.53-1.53-1.31-3.77-2.32-6.68l-0.37-1.06L5.5,0h4.65l0.2,0.57l0.88,2.53L18.48,23.99z"/></svg>