<svg version="1.1" id="Layer_1" xmlns="http://www.w3.org/2000/svg" xmlns:xlink="http://www.w3.org/1999/xlink" x="0px" y="0px" style="enable-background:new 0 0 612 792;" xml:space="preserve" viewBox="209.85 283.04 193.34 224.10">
<style type="text/css">
	.st0{fill:#DE5B5B;}
	.st1{fill:#E05D5D;}
	.st2{fill:#E05E5E;}
	.st3{fill:#E05C5C;}
	.st4{fill:#E16060;}
	.st5{fill:#E15F5F;}
	.st6{fill:#E36363;}
</style>
<path class="st0" d="M306.13,283.07c3.96,3.95,7.8,8.03,11.94,11.79c2.62,2.39,2.72,3.94,0.08,6.55
	c-17.71,17.47-35.2,35.17-52.92,52.64c-2.68,2.65-2.76,4.11-0.03,6.78c12.64,12.34,25.11,24.86,37.51,37.43
	c2.09,2.12,3.34,2.04,5.37-0.03c9.94-10.11,20.03-20.08,30.05-30.12c1.62-1.62,2.96-3.43,5.51-1.01c1.34,1.27,2.66,0.37,2.68-1.47
	c0.07-5.85,0.04-11.7,0.02-17.55c0-1.58-0.98-2.16-2.44-2.16c-5.6,0-11.19-0.05-16.79,0.02c-2.41,0.03-3.51,1.26-1.54,3.17
	c2.21,2.14,1.35,3.46-0.42,5.18c-5.61,5.47-11.11,11.05-16.65,16.6c-1.22,1.22-2.52,2.24-1.67,4.45c0.69,1.81-0.81,2.34-2.36,2.35
	c-5.47,0.01-10.94,0-16.42,0c-1.95,0-2.94-0.76-2.91-2.91c0.09-5.47,0.02-10.95,0.03-16.43c0-2.28,0.9-3.79,3.02-1.8
	c2.31,2.15,3.43,0.61,4.86-0.83c13.1-13.11,26.22-26.21,39.33-39.31c3.56-3.56,3.57-3.56,7.22,0.09
	c12.94,12.93,25.82,25.91,38.85,38.74c2.44,2.4,2.92,3.86,0.19,6.57c-23.43,23.19-46.74,46.5-69.98,69.89
	c-2.41,2.42-3.76,2.54-6.23,0.06c-23.16-23.29-46.44-46.45-69.69-69.65c-3.46-3.45-3.45-3.47-0.01-6.91
	c23.15-23.13,46.3-46.25,69.43-69.38c0.86-0.86,1.61-1.84,2.42-2.76C305.14,283.07,305.64,283.07,306.13,283.07z"></path>
<path class="st1" d="M403.18,478.8c-1.19,0.56-1.09,1.84-1.54,2.81c-3.25,7.05-8.65,11-16.46,11.5c-8.26,0.53-14.55-2.77-18.4-10.11
	c-5.09-9.73-0.77-21.66,9.19-25.99c10.36-4.5,22.19,0.55,26,11.03c0.31,0.86,0.01,2.08,1.19,2.54
	C403.18,473.32,403.18,476.06,403.18,478.8z M394.34,474.41c0.01-7-4.02-11.38-10.47-11.39c-6.38-0.01-10.62,4.53-10.6,11.33
	c0.03,7,4.04,11.32,10.54,11.33C390.39,485.7,394.33,481.48,394.34,474.41z"></path>
<path class="st2" d="M237.59,484.89c-12.2,5.35-19.29,4.29-24.49-3.49c-5.16-7.73-4-19.88,2.41-26.24
	c4.34-4.3,13.62-6.99,21.95-0.16c0.68-1.76,1.48-3.18,3.8-3.21c4.55-0.04,6.71,2.58,4.56,6.58c-4.15,7.68-3.88,15.01,0,22.73
	c2.7,5.36-0.56,17.74-5.08,21.83c-5.24,4.73-14.71,5.59-21.34,1.95c-2.93-1.61-5.16-3.91-6.45-6.98c-0.74-1.76-2.02-3.76,0.32-5.31
	c1.99-1.32,6.07-0.33,7.12,1.83c1.73,3.55,4.57,5.11,8.34,5.19c4.85,0.11,8.02-2.54,8.78-7.34
	C237.88,489.85,237.95,487.41,237.59,484.89z M238.2,469.72c-0.01-6.85-4.01-11.36-10.04-11.32c-5.95,0.04-9.91,4.71-9.8,11.56
	c0.11,6.72,4.02,11.14,9.85,11.14C234.25,481.12,238.22,476.59,238.2,469.72z"></path>
<path class="st3" d="M273.77,454.97c0.76-3.89,3.77-3.4,6.39-2.98c3.01,0.48,2.23,3.15,2.24,5.14c0.05,9.69,0.06,19.39-0.02,29.08
	c-0.01,1.59,1.04,4.07-2.25,3.93c-2.64-0.11-5.81,0.73-6.03-3.53c-0.03-0.57-0.15-1.14-0.23-1.78c-11.01,5.43-18.42,4.5-23.97-2.89
	c-5.49-7.31-4.93-19.22,1.2-25.93C256.86,449.7,264.55,449.31,273.77,454.97z M274.71,469.76c-0.01-6.75-4.12-11.34-10.14-11.32
	c-5.79,0.02-9.91,4.66-9.91,11.16c0,6.86,4.02,11.53,9.93,11.52C270.6,481.1,274.72,476.49,274.71,469.76z"></path>
<path class="st1" d="M327.34,474.33c-3.35,0-6.71,0.07-10.06-0.02c-1.91-0.05-2.34,0.57-1.85,2.42c1.14,4.33,4.4,7.01,9.26,7.14
	c4.47,0.12,8.94,0.11,13.41,0.11c1.76,0,3.11,0.18,1.87,2.46c-0.22,0.41-0.41,1.04-0.25,1.43c1.62,4.2-1.06,3.83-3.73,3.66
	c-5.32-0.34-10.68,0.32-15.97-0.68c-5.68-1.07-9.62-4.35-11.96-9.59c-5.17-11.58,0.39-24.84,11.47-27.38
	c11.6-2.65,21.22,5.19,21.11,17.11c-0.02,2.36-0.8,3.44-3.24,3.37C334.05,474.26,330.69,474.33,327.34,474.33z M323.57,467.55
	c1.99,0,3.98-0.07,5.96,0.02c2.41,0.1,2.44-0.96,1.52-2.71c-2.67-5.09-10.79-5.25-14.12-0.25c-0.46,0.7-1.21,1.46-0.87,2.35
	c0.41,1.09,1.5,0.54,2.29,0.57C320.09,467.61,321.84,467.56,323.57,467.55z"></path>
<path class="st1" d="M312.95,451.85c-2.23,2.13-4.45,3.88-5.96,6.35c-1.38,2.25-3.62,1.3-5.44,1.22c-2.83-0.13-3.92,0.58-3.81,3.67
	c0.24,7.21,0.1,14.43,0.07,21.64c-0.02,4.74-2.32,6.4-7.02,5.4c-1.91-0.41-1.48-1.72-1.49-2.86c-0.03-8.09-0.02-16.17-0.02-24.26
	c0-1.73,0.25-3.14-2.33-3.77c-2.19-0.54-0.75-3.21-1-4.9c-0.15-0.98-0.44-2.47,1.33-2.47c2.07,0,2.01-1.36,2-2.78
	c-0.02-1.87,0.08-3.74-0.02-5.6c-0.19-3.31,1.12-4.64,4.58-4.6c3.58,0.05,4,1.91,4,4.77c-0.01,8.17,0.05,8.17,8.05,8.17
	C308.25,451.85,310.6,451.85,312.95,451.85z"></path>
<path class="st4" d="M361.22,473.6c0,4.35,0.02,8.71-0.01,13.06c-0.02,4.25-3.9,6.69-7.63,4.85c-0.51-0.25-0.72-0.53-0.72-1.11
	c-0.04-10.1-0.06-20.19-0.19-30.29c-0.04-3.23,1.46-4.38,4.56-4.39c3.18,0,4.08,1.56,4.01,4.44
	C361.14,464.64,361.22,469.12,361.22,473.6z"></path>
<path class="st5" d="M362.29,444.22c0.02,3.13-2.27,5.47-5.35,5.46c-3.08-0.01-5.39-2.38-5.35-5.48c0.04-2.87,2.32-5.21,5.19-5.3
	C359.8,438.8,362.26,441.18,362.29,444.22z"></path>
<path class="st6" d="M346.22,491.67c-2.62-0.26-4.03-1.91-3.91-4.44c0.12-2.39,1.77-3.87,4.2-3.85c2.66,0.02,4.21,1.69,4.17,4.25
	C350.64,490.24,348.93,491.6,346.22,491.67z"></path>
</svg>
