<svg xmlns="http://www.w3.org/2000/svg" viewBox="0 0 51.92 31.05"><g fill="#fff"><path d="M20.1 19.85q2.43 5.84 2.43 7.82a1.75 1.75 0 0 1-1.64 1.89q-.93.18-.93.7a.54.54 0 0 0 .62.6q.44 0 1.92-.07l2.31-.1 3.7.11a21.83 21.83 0 0 1 2.63.14l.66.05a.55.55 0 0 0 .62-.62c0-.38-.3-.63-.89-.75a3.84 3.84 0 0 1-2.45-1.63 29.07 29.07 0 0 1-2.42-5.35c-.81-2.2-3.14-7.7-3.14-7.7l-4.82 1.49Zm-6.05-12.2q.28-.64.53-.62.26.02.6.81l1.77 4.24 4.92-.91-3.65-8.18-.55-1.34-.5-1.12a.75.75 0 0 0-.68-.53q-.63 0-1.06.99-.15.37-1.34 2.82-.15.28-1.98 4.35l-3.19 7.11 2.22-1.15ZM7.18 23.46a11.16 11.16 0 0 0-.56 2.97 2.88 2.88 0 0 0 .95 2.24 5.1 5.1 0 0 0 2.74 1.13c.52.05.77.26.77.6 0 .35-.18.53-.55.53l-1.23-.04-2.31-.12a48.59 48.59 0 0 0-2.23-.08 19.73 19.73 0 0 0-3.48.27 6.11 6.11 0 0 1-.88.09q-.4 0-.4-.58 0-.53.67-.67a3.33 3.33 0 0 0 2.1-1.31 8 8 0 0 0 .52-.82 3.08 3.08 0 0 0 .25-.62Z"/><path d="M50.91 15.16S20.9 3.56 5.23 17.76l-3.55 8.56a45.16 45.16 0 0 1 9.09-7.61C28.4 7.4 50.9 15.16 50.9 15.16Z"/><path d="M3.64 26.03a1.18 1.18 0 0 0-.14 1.64 33.48 33.48 0 0 1 10.65-8.84c17.6-9.15 37.77-3.34 37.77-3.34S21.45 5.34 3.64 26.03"/></g></svg>