<svg xmlns="http://www.w3.org/2000/svg" viewBox="-0.025963542982935905 -0.000026706678909249604 700.9915161132812 581.9061279296875"><path fill="#313863" d="M244.21,76.12h1.88V76C245.42,76.06,244.81,76.12,244.21,76.12Zm378.7,57.64a130.27,130.27,0,0,0-123-87.18c-2.12,0-4.14,0-6.14.09A130.27,130.27,0,0,0,393.78,0c-4.44,0-144.6.92-144.6.92a37.6,37.6,0,1,0,0,75.2h-3.09v0H377.32a13.51,13.51,0,1,1,0,27s-21.61.51-22.26.51H309.32a37.6,37.6,0,1,0,0,75.2H438.93c.65,0,1.26-.06,1.88-.08l7.74.14a13.5,13.5,0,1,1,0,27s-9,.54-9.62.54h-278a37.6,37.6,0,0,0,0,75.2H323.46l9.62,0a13.51,13.51,0,1,1,0,27l-7.74.61c-.61,0-1.23-.1-1.88-.1H113.39a37.59,37.59,0,1,0,0,75.19H400.82c.65,0,1.26-.05,1.88-.08l7.74.14a13.5,13.5,0,1,1,0,27l-55.39.54H328a37.6,37.6,0,1,0,0,75.21h50.8c1,0,2-.09,3.05-.17,51.19,36,102.7,72.34,102.7,72.34s39.15,29.7,58.67,21c0,0,27-8.81,18.82-43.17-.32-1.51-8.22-35.13-14-64.17-1.25-6.3-1.16-17.54,12.2-20.54a130.36,130.36,0,0,0,97.43-102.42,130.26,130.26,0,0,0-34.76-216.32ZM96,244.08a37.6,37.6,0,0,0-37.6-37.6H37.6a37.6,37.6,0,1,0,0,75.2H58.44A37.59,37.59,0,0,0,96,244.08Zm24.42-65.19h93.13a37.6,37.6,0,1,0,0-75.2H120.46a37.6,37.6,0,0,0,0,75.2ZM224.18,412H208.47a37.6,37.6,0,1,0,0,75.21h15.71a37.6,37.6,0,1,0,0-75.21Z"></path></svg>