<svg xmlns="http://www.w3.org/2000/svg" viewBox="0 0 512 512"><path d="M0 256v256h512V0H0v256zM268 60.1c18.6 8.2 23.1 32.9 8.6 47.4-11.6 11.6-29.6 11.6-41.2 0C219 91.1 227 63.7 249.7 58c5-1.2 12.8-.3 18.3 2.1zm-120 93.1c3.6 1.9 14.5 13.8 55.8 61.3 28.2 32.4 51.7 59 52.2 59s24-26.6 52.2-59c56-64.4 55.6-64 65-63.2 12.5 1.1 20.4 14.5 15.4 26-.8 1.8-25.3 30.6-54.5 64.2-29.2 33.5-53 61.3-52.9 61.7.2.4 23.5 27.3 51.8 59.9 28.3 32.6 52.6 60.7 53.9 62.6 3.6 5 4.1 13.8 1.1 19.1-5.2 9.2-15.8 12.4-25.2 7.6-1.5-.8-25.9-28.2-54.4-60.9S256.4 332 256 332c-.4 0-23.9 26.8-52.4 59.5s-52.9 60.1-54.4 60.9c-4.5 2.3-8.8 2.8-13.3 1.6-5.5-1.5-9.1-4.3-11.9-9.2-3-5.3-2.5-14.1 1.1-19.1 1.3-1.9 25.6-30 53.9-62.6 28.3-32.6 51.6-59.5 51.8-59.9.1-.4-23.7-28.2-52.9-61.7-29.2-33.6-53.7-62.4-54.5-64.2-3.2-7.4-.6-17.9 5.5-22.2 6.5-4.7 12.4-5.2 19.1-1.9z"/></svg>
