<svg xmlns="http://www.w3.org/2000/svg" viewBox="216.015 .002 1000 257.771"><path d="m560.226 70.751h39.905v152.205h-39.905zm583.828 87.314v64.31l-40.146-.144v-156.177l72.302 62.23v-57.53h39.805v157.82zm-784.504-11.622c0-43.198 35.061-78.257 78.256-78.257 19.467 0 37.288 7.166 50.994 18.933l-25.86 29.346c-6.779-5.715-15.546-9.153-25.134-9.153-21.598 0-39.128 17.53-39.128 39.128s17.53 39.128 39.128 39.128c9.733 0 18.645-3.583 25.521-9.492l25.812 29.395c-13.707 11.96-31.67 19.177-51.333 19.177-43.198.003-78.257-35.01-78.257-78.205"/><path d="m676.112 257.773-75.498-200.583h-63.1v166.346h-41.309v-166.346h-91.428l21.21-39.952h204.118l46.005 120.192 46.055-120.193h197.629l21.79 39.952h-189.928z"/><path d="m803.668 222.376v-33.609h27.41c4.455 0 12.93-.338 15.06-7.408 4.407-14.721-40.727-38.596-40.727-75.205 0-27.7 20.048-35.98 33.657-35.98h41.548v33.026h-25.666s-7.36 0-9.395 2.954c-11.139 15.933 41.26 39.225 41.26 82.033 0 22.373-19.177 34.189-38.306 34.189zm-51.43-152.205h39.953v152.205h-39.953zm141.066 0h39.953v152.205h-39.953zm-564.07 152.785-10.607-28.328h-49.539l-10.604 28.328h-42.469l77.87-222.954 77.87 222.954zm-48.04-69.009h23.585l-11.816-38.935zm659.326-7.553c0-43.245 35.11-78.353 78.401-78.353 43.246 0 78.353 35.108 78.353 78.353 0 43.294-35.11 78.402-78.353 78.402-43.291 0-78.401-35.11-78.401-78.402m39.466 0c0 21.5 17.435 38.935 38.935 38.935 21.452 0 38.887-17.434 38.887-38.935 0-21.452-17.435-38.886-38.887-38.886-21.5 0-38.935 17.431-38.935 38.886"/></svg>