<svg version="1.0" xmlns="http://www.w3.org/2000/svg" preserveAspectRatio="xMidYMid meet" viewBox="38.80 38.20 324.40 325.00">

<g transform="translate(0.000000,400.000000) scale(0.100000,-0.100000)" stroke="none">
<path d="M1430 3381 l-575 -237 -233 -565 c-128 -310 -233 -571 -234 -580 -1
-8 104 -272 233 -586 l234 -570 576 -238 576 -237 575 237 576 237 237 576
237 575 -238 576 -237 576 -535 220 c-294 121 -553 227 -576 236 l-41 17 -575
-237z m796 -76 c268 -110 262 -108 267 -104 2 2 10 -1 18 -7 14 -12 202 -90
229 -96 8 -2 17 -5 20 -8 3 -3 59 -28 124 -55 l119 -50 122 -300 c67 -165 158
-388 202 -496 l81 -196 -94 -228 c-52 -125 -95 -235 -96 -244 -2 -9 -6 -18 -9
-21 -3 -3 -49 -113 -103 -245 -54 -132 -102 -245 -107 -251 -5 -6 -31 -20 -57
-29 -26 -10 -72 -30 -102 -44 -30 -13 -57 -25 -60 -26 -18 -4 -61 -21 -100
-38 -25 -11 -47 -21 -50 -22 -25 -6 -80 -30 -80 -35 0 -3 -8 -6 -17 -7 -10 -1
-128 -47 -263 -103 -135 -56 -252 -102 -260 -102 -8 -1 -125 44 -260 99 -135
56 -342 140 -460 188 -118 47 -229 93 -246 100 -34 16 -36 19 -106 195 -27 68
-55 133 -61 145 -6 11 -12 25 -13 30 -1 10 -93 237 -203 504 -55 134 -57 144
-38 181 19 36 78 186 81 203 1 8 7 21 12 28 11 15 51 114 56 139 2 8 6 17 9
20 10 8 90 212 92 232 1 10 5 18 10 18 5 0 6 7 3 16 -3 8 -2 13 2 10 4 -2 34
61 66 141 36 87 66 147 75 150 9 2 30 10 46 18 17 7 40 16 53 20 12 3 22 11
22 16 0 6 4 8 9 5 8 -5 179 61 191 74 3 3 14 7 25 8 11 2 22 7 25 10 3 4 12 8
20 10 24 5 314 123 320 131 3 3 13 7 23 9 10 2 39 13 65 24 26 12 49 22 52 23
31 7 80 28 80 34 0 24 78 2 266 -74z"></path>
<path d="M1200 2488 c0 -95 -3 -398 -7 -673 l-6 -500 184 5 c245 7 234 1 461
228 l178 176 187 -185 c227 -224 215 -218 456 -220 87 0 161 2 164 5 3 3 2
304 -2 671 l-8 665 -143 0 -144 0 0 -495 c0 -433 -2 -495 -15 -495 -8 0 -15 6
-15 13 0 14 -280 297 -295 297 -5 0 -49 39 -97 87 l-88 88 -88 -88 c-48 -48
-91 -87 -95 -87 -15 0 -46 -34 -40 -44 3 -6 2 -7 -2 -3 -5 4 -69 -52 -142
-125 l-133 -133 0 493 0 492 -155 0 -155 0 0 -172z"></path>
</g>
</svg>
