<svg xmlns="http://www.w3.org/2000/svg" fill="none" viewBox="0.00 0.00 35.46 35.46">
<path d="M33.3002 12.5277C36.1759 15.4034 36.1759 20.0535 33.3002 22.8987L22.9293 33.3002C20.0535 36.1759 15.4034 36.1759 12.5583 33.3002L2.15679 22.9293C-0.718929 20.0535 -0.718929 15.4034 2.15679 12.5583L12.5277 2.15679C15.4034 -0.718929 20.0535 -0.718929 22.9293 2.15679L33.3002 12.5277ZM25.5296 20.3289C26.9675 18.891 26.9675 16.566 25.5296 15.1281L20.3289 9.92734C18.891 8.48948 16.566 8.48948 15.1281 9.92734L9.92734 15.1281C8.48948 16.566 8.48948 18.891 9.92734 20.3289L15.1281 25.5296C16.566 26.9675 18.891 26.9675 20.3289 25.5296L25.5296 20.3289Z" fill="#004BEF"></path>
</svg>
