<?xml version="1.0" encoding="utf-8"?>
<!-- Generator: Adobe Illustrator 25.4.1, SVG Export Plug-In . SVG Version: 6.00 Build 0)  -->
<svg version="1.1" id="svg" xmlns="http://www.w3.org/2000/svg" xmlns:xlink="http://www.w3.org/1999/xlink" x="0px" y="0px"
	 viewBox="0 0 382.6 389" style="enable-background:new 0 0 382.6 389;" xml:space="preserve">
<style type="text/css">
	.st0{fill-rule:evenodd;clip-rule:evenodd;fill:#064DEC;}
</style>
<g id="svgg">
	<path id="path0" class="st0" d="M180.3,0.7c-1.8,0.5-5.2,1.2-12.1,2.5c-1.1,0.2-2.8,0.8-3.6,1.4c-0.8,0.5-2.8,1.4-4.5,1.9
		c-1.6,0.5-3.4,1.3-4,1.8c-0.6,0.5-2.1,1.2-3.2,1.7c-1.2,0.4-2.4,1.1-2.7,1.6c-0.3,0.5-1.3,1.2-2.2,1.6c-0.9,0.4-1.8,1-2,1.2
		c-0.2,0.3-1.3,1.2-2.6,2c-3.5,2.3-51.2,49.5-53.1,52.6c-0.5,0.8-16.2,16.8-34.9,35.5c-18.9,19-34.4,34.7-34.9,35.6
		c-0.5,0.9-1.2,1.7-1.6,1.8c-0.4,0.1-1.2,1.1-1.9,2.2c-0.7,1.1-1.4,2-1.6,2s-0.9,0.9-1.5,2.1c-0.6,1.2-1.5,2.6-2,3.1
		c-0.5,0.6-1.2,1.8-1.6,2.8s-1,2.4-1.6,3.2c-1.2,1.8-2,3.7-2.6,6c-0.3,1-0.9,2.6-1.4,3.6c-0.5,1-1.3,3.7-1.8,6.1s-1.1,4.9-1.5,5.8
		c-2.1,5-1.8,27.5,0.5,32c0.3,0.6,0.8,2.9,1.2,5.1c0.4,2.2,1,4.7,1.5,5.6c0.5,0.9,1.4,3,2,4.8c0.6,1.7,1.7,4,2.3,5
		c0.6,1,1.4,2.5,1.8,3.3c0.3,0.8,0.8,1.5,1,1.5c0.2,0,0.9,1.1,1.6,2.5s1.9,3.2,2.7,4.2c0.8,0.9,2.3,2.6,3.1,3.8
		c0.9,1.2,2,2.5,2.5,2.9c1,0.9,2,1.9,2.7,2.7c0.3,0.3,1.1,1.1,1.8,1.8c0.7,0.7,1.7,1.7,2.2,2.2c0.5,0.5,1.2,1.3,1.5,1.6
		c0.4,0.4,1,1,1.3,1.4c0.4,0.4,2,2,3.6,3.6c1.6,1.6,3.4,3.3,3.8,3.8c0.5,0.5,1.2,1.2,1.6,1.6c1,0.9,6.5,6.4,7.3,7.2
		c0.4,0.4,1.1,1.1,1.6,1.6c0.5,0.5,2.2,2.2,3.8,3.8c1.6,1.6,3.2,3.2,3.6,3.6c1.3,1.2,2.1,2,2.6,2.5c0.3,0.3,1.1,1.1,1.8,1.8
		c0.7,0.7,2,2.1,2.8,3c2.9,3.4,4.9,5.6,6.3,6.9c0.7,0.7,1.6,1.5,1.8,1.8c0.4,0.5,1,1.1,3,3c1.5,1.4,6.6,6.5,7.1,7.1
		c0.8,0.9,2.4,2.5,3.3,3.2c0.4,0.3,1.9,1.8,3.3,3.3c1.5,1.5,3.1,3.1,3.6,3.6c0.5,0.5,1.2,1.2,1.6,1.6c0.4,0.4,1,1,1.4,1.3
		c0.4,0.3,1.3,1.2,2,2c0.7,0.8,1.6,1.7,2,2c0.4,0.4,1.1,1.1,1.6,1.6c0.5,0.5,1.2,1.2,1.6,1.6c0.4,0.4,2.1,2,3.7,3.6
		c3.5,3.6,3.5,3.6,7.4,7.4c1.7,1.7,3.3,3.4,3.6,3.6c0.4,0.5,1.4,1.5,2.9,2.9c1,1,6.5,6.4,7.1,7.1c1.1,1.2,2.5,2.6,3,3.1
		c0.3,0.2,1.8,1.8,3.4,3.4c4.3,4.4,9.6,9.3,10.8,9.8c0.5,0.2,1.5,0.9,2.1,1.5c0.6,0.6,1.7,1.3,2.4,1.7c0.7,0.4,2.1,1.3,3.1,2
		c1,0.8,2,1.4,2.3,1.4c0.3,0,1.3,0.4,2.3,1c2.9,1.6,4,2.1,7.7,3.2c1.9,0.6,3.5,1.2,3.5,1.4c0,0.5,3.3,1.2,7.8,1.6
		c4.9,0.5,7,1.2,7,2.4c0,1.3,17.5,1.2,17.7-0.1c0.2-1.1,1.1-1.4,8-2.3c3-0.4,6-1,6.6-1.3c2.2-1.2,3.5-1.7,5.4-2.2
		c1-0.3,2.7-1,3.8-1.7c1-0.7,2.9-1.6,4.1-2c1.2-0.5,2.8-1.3,3.5-2c0.7-0.6,1.7-1.3,2.2-1.4c0.5-0.2,1.4-0.7,1.9-1.2
		c0.6-0.5,1.7-1.3,2.4-1.9c4-2.6,9-7.1,16.5-14.7c3.1-3.2,6.2-6.3,6.9-7c0.7-0.7,1.8-2,2.4-2.8c0.9-1.2,18-18.7,22.9-23.5
		c0.3-0.3,2.6-2.6,5.1-5.1c2.5-2.5,4.8-4.8,5-5c3.8-3.6,15.5-15.5,17.2-17.5c1.8-2.1,4.8-5.3,7.1-7.6c0.7-0.6,2.3-2.4,3-3.1
		c0.5-0.5,5.6-5.6,7.2-7.2c2.1-2,2.7-2.7,3-3c0.2-0.2,1.8-1.8,3.5-3.5c1.8-1.7,3.4-3.4,3.6-3.6c0.6-0.6,6.7-6.8,7.3-7.3
		c0.3-0.2,1.9-1.9,3.6-3.6c1.7-1.8,3.4-3.4,3.6-3.6s0.9-0.8,1.4-1.3c1.3-1.4,2-2,3.1-3.1c0.5-0.5,1.8-1.9,2.7-3.2
		c1-1.3,2.4-3,3.2-3.8c0.8-0.8,1.7-2.1,2-2.9c0.3-0.7,1.2-2.2,2-3.2c0.8-1,1.6-2.2,1.8-2.8c0.2-0.6,0.8-1.7,1.5-2.5s1.4-2.4,1.7-3.5
		c0.3-1.1,1-2.8,1.6-3.6c0.6-0.9,1.3-2.7,1.6-4.1c0.3-1.4,1.1-4.2,1.8-6.2c2.4-7,2.9-28.3,0.8-33.6c-0.5-1.2-1.4-4.8-2-8
		c-0.8-3.8-1.5-6.2-2-6.9c-0.5-0.6-1.1-2.2-1.4-3.6c-0.3-1.4-1.2-3.4-2-4.5c-0.8-1.1-1.4-2.2-1.4-2.4c0-0.6-2-4.3-2.8-5.2
		c-0.4-0.4-1-1.5-1.4-2.3c-0.3-0.8-0.9-1.6-1.2-1.7c-0.3-0.1-1.2-1.1-1.9-2.1c-0.7-1-6.4-7-12.6-13.2c-6.2-6.2-11.6-11.9-11.9-12.5
		c-0.3-0.7-20-20.6-43.8-44.4s-43.2-43.4-43.2-43.6c0-0.5-7.9-8.5-9.6-9.7c-0.6-0.5-2.8-2.1-4.9-3.7c-2.1-1.6-4-2.9-4.2-2.9
		s-1.2-0.7-2.2-1.5c-1-0.9-2.5-1.7-3.6-2c-1-0.2-2.3-0.9-2.9-1.4c-1.1-0.9-3.6-1.9-5.9-2.5c-0.6-0.1-1.8-0.7-2.6-1.2
		c-1.4-1-2.4-1.2-9.3-2.4c-2.1-0.4-4.8-1-6.1-1.4C199.4-0.2,183.6-0.3,180.3,0.7 M198.5,98.5c1.2,0.4,3.7,1.2,5.4,1.6
		c1.8,0.4,3.6,1.1,4,1.6c0.4,0.4,1.6,1.1,2.6,1.6c1.6,0.7,6,4.2,7.6,6c0.3,0.4,1.9,1.9,3.6,3.3c3.8,3.2,21.6,21,21.6,21.6
		c0,0.2,6.9,7.3,15.3,15.8c15.6,15.7,18,18.2,19.6,20.9c0.5,0.8,1.3,1.9,1.8,2.3c0.5,0.4,0.9,1,0.9,1.3c0,0.3,0.9,2.2,1.9,4.3
		c3.7,7.3,3.9,25.1,0.3,29.5c-0.3,0.3-1,1.9-1.6,3.5c-0.6,1.6-1.4,3.1-1.8,3.4c-0.4,0.3-1.1,1.2-1.5,2.1c-0.5,1-10.4,11.2-25.9,26.6
		c-13.8,13.7-25.6,25.7-26.2,26.7c-0.6,0.9-1.7,2.2-2.3,2.8c-0.6,0.6-1.7,1.8-2.4,2.5s-2.4,2.3-3.8,3.4c-1.4,1.1-2.6,2.1-2.7,2.3
		c-0.1,0.2-0.3,0.3-0.6,0.3c-0.3,0-1.1,0.6-1.9,1.3c-0.8,0.7-2.3,1.6-3.3,2c-1,0.4-2.1,0.9-2.4,1.2c-1,1-2.2,1.4-6.3,2
		c-2.3,0.3-4.8,0.8-5.6,1c-2,0.6-5.9,0.5-8.2-0.2c-1.1-0.3-3-0.7-4.2-0.8c-3.6-0.4-5.9-1-6.8-1.8c-0.5-0.4-1.7-1.1-2.7-1.5
		c-1-0.4-2.5-1.3-3.2-1.9c-3.4-3-61.3-60.9-61.8-61.8c-0.3-0.6-1.2-1.8-2.1-2.6c-3.2-3.4-4.6-5.4-5.4-7.8c-0.5-1.4-1.2-2.9-1.6-3.4
		c-3.1-3.9-2.9-20.8,0.2-27.5c0.7-1.5,1.5-3.2,1.6-3.8c0.2-0.6,0.8-1.5,1.3-2.1s1.4-1.7,1.9-2.5c0.5-0.8,2.2-2.8,3.9-4.6
		c3.3-3.4,6.6-7.3,7.6-8.6c0.3-0.5,1.8-2,3.3-3.5c1.5-1.4,2.9-2.8,3.2-3.1c0.3-0.3,0.9-0.9,1.4-1.4c0.5-0.5,1.3-1.3,1.8-1.8
		c0.5-0.5,2.1-2.2,3.7-3.7c1.5-1.5,3.1-3,3.4-3.3c0.7-0.7,9.2-9.2,9.9-9.9c0.3-0.3,1.8-1.8,3.3-3.4c1.5-1.5,3.1-3.2,3.7-3.7
		c0.5-0.5,1.3-1.3,1.8-1.8s1.1-1.2,1.4-1.4c0.3-0.3,2-1.9,3.7-3.7c1.8-1.8,3.3-3.3,3.5-3.5c0.2-0.2,1.6-1.6,3.2-3.3
		c3.4-3.5,7.3-6.7,9.4-7.7c0.8-0.4,1.8-1.1,2.3-1.5c0.4-0.4,2.1-1,3.7-1.4c1.6-0.3,3.7-1,4.7-1.4C186.5,97.1,194.2,96.9,198.5,98.5"
		/>
</g>
</svg>
