<svg id="svg" version="1.1" xmlns="http://www.w3.org/2000/svg" xmlns:xlink="http://www.w3.org/1999/xlink" viewBox="10.71 11.16 382.57 388.99"><g id="svgg"><path id="path0" d="M191.000 11.841 C 189.232 12.359,185.750 13.085,178.938 14.357 C 177.804 14.569,176.184 15.177,175.338 15.709 C 174.492 16.241,172.489 17.082,170.886 17.576 C 169.283 18.071,167.483 18.879,166.886 19.372 C 166.289 19.866,164.830 20.614,163.644 21.034 C 162.459 21.454,161.240 22.178,160.936 22.642 C 160.631 23.107,159.621 23.822,158.691 24.232 C 157.761 24.642,156.859 25.201,156.687 25.476 C 156.515 25.750,155.345 26.650,154.087 27.477 C 150.620 29.755,102.912 76.972,100.971 80.046 C 100.450 80.871,84.739 96.843,66.057 115.538 C 47.114 134.495,31.685 150.251,31.174 151.160 C 30.670 152.057,29.954 152.888,29.582 153.006 C 29.211 153.123,28.351 154.115,27.670 155.210 C 26.990 156.304,26.274 157.200,26.080 157.200 C 25.886 157.200,25.223 158.145,24.608 159.300 C 23.992 160.455,23.070 161.853,22.560 162.406 C 22.049 162.959,21.347 164.219,21.000 165.206 C 20.653 166.193,19.955 167.630,19.448 168.400 C 18.294 170.155,17.442 172.087,16.807 174.389 C 16.536 175.373,15.897 176.993,15.388 177.989 C 14.878 178.985,14.088 181.710,13.633 184.045 C 13.178 186.380,12.507 188.990,12.143 189.845 C 10.008 194.864,10.329 217.307,12.603 221.893 C 12.905 222.502,13.439 224.800,13.790 227.000 C 14.142 229.200,14.806 231.720,15.267 232.600 C 15.728 233.480,16.622 235.626,17.255 237.369 C 17.888 239.113,18.928 241.363,19.567 242.369 C 20.206 243.376,21.005 244.875,21.344 245.700 C 21.682 246.525,22.135 247.200,22.351 247.200 C 22.566 247.200,23.276 248.325,23.928 249.700 C 24.580 251.075,25.808 252.946,26.657 253.859 C 27.506 254.771,28.920 256.463,29.800 257.619 C 30.680 258.775,31.824 260.099,32.342 260.560 C 33.380 261.485,34.356 262.460,35.057 263.271 C 35.308 263.562,36.118 264.352,36.857 265.028 C 37.596 265.703,38.605 266.693,39.099 267.228 C 39.594 267.762,40.291 268.493,40.649 268.850 C 41.007 269.207,41.614 269.838,41.997 270.250 C 42.381 270.663,44.024 272.291,45.647 273.868 C 47.271 275.446,48.998 277.156,49.484 277.668 C 49.971 278.181,50.691 278.900,51.084 279.267 C 52.098 280.212,57.550 285.658,58.340 286.516 C 58.703 286.909,59.419 287.629,59.932 288.116 C 60.444 288.602,62.154 290.329,63.732 291.953 C 65.309 293.576,66.915 295.196,67.300 295.553 C 68.609 296.764,69.399 297.542,69.857 298.071 C 70.108 298.362,70.918 299.177,71.657 299.882 C 72.396 300.587,73.662 301.937,74.472 302.882 C 77.357 306.251,79.420 308.500,80.760 309.741 C 81.508 310.433,82.318 311.242,82.560 311.538 C 82.958 312.025,83.581 312.651,85.545 314.538 C 87.005 315.940,92.129 321.044,92.690 321.655 C 93.484 322.519,95.128 324.161,95.945 324.905 C 96.305 325.233,97.801 326.739,99.268 328.251 C 100.736 329.763,102.356 331.398,102.868 331.884 C 103.381 332.371,104.088 333.091,104.440 333.484 C 104.792 333.878,105.422 334.485,105.840 334.833 C 106.258 335.180,107.162 336.080,107.848 336.833 C 108.535 337.585,109.435 338.497,109.848 338.860 C 110.262 339.222,110.972 339.942,111.427 340.460 C 111.881 340.977,112.601 341.694,113.027 342.052 C 113.452 342.411,115.110 344.031,116.712 345.652 C 120.260 349.245,120.250 349.235,124.142 353.089 C 125.871 354.800,127.491 356.442,127.742 356.738 C 128.181 357.254,129.174 358.241,130.691 359.667 C 131.708 360.624,137.178 366.088,137.831 366.800 C 138.900 367.965,140.330 369.405,140.862 369.852 C 141.158 370.101,142.686 371.631,144.257 373.252 C 148.539 377.670,153.907 382.546,155.007 383.016 C 155.543 383.245,156.481 383.900,157.091 384.471 C 157.701 385.042,158.799 385.811,159.531 386.181 C 160.263 386.550,161.672 387.471,162.662 388.226 C 163.651 388.982,164.689 389.600,164.968 389.600 C 165.246 389.600,166.267 390.042,167.237 390.582 C 170.105 392.178,171.216 392.645,174.900 393.798 C 176.825 394.401,178.400 395.032,178.400 395.200 C 178.400 395.693,181.703 396.384,186.237 396.840 C 191.124 397.332,193.200 398.037,193.200 399.205 C 193.200 400.516,210.680 400.439,210.872 399.127 C 211.036 398.006,212.013 397.722,218.878 396.801 C 221.891 396.396,224.861 395.793,225.478 395.460 C 227.669 394.279,229.024 393.729,230.892 393.264 C 231.933 393.005,233.634 392.254,234.672 391.595 C 235.711 390.936,237.547 390.028,238.752 389.578 C 239.956 389.127,241.528 388.243,242.245 387.614 C 242.961 386.985,243.964 386.344,244.474 386.190 C 244.983 386.036,245.850 385.502,246.400 385.004 C 246.950 384.505,248.051 383.671,248.848 383.149 C 252.841 380.531,257.859 376.054,265.340 368.435 C 268.453 365.264,271.554 362.114,272.231 361.435 C 272.908 360.756,273.986 359.480,274.626 358.600 C 275.486 357.417,292.589 339.873,297.526 335.108 C 297.816 334.829,300.107 332.530,302.618 330.000 C 305.130 327.470,307.374 325.220,307.606 325.000 C 311.453 321.350,323.139 309.466,324.765 307.550 C 326.554 305.442,329.519 302.283,331.865 299.984 C 332.516 299.346,334.204 297.621,334.855 296.929 C 335.350 296.401,340.475 291.290,342.055 289.748 C 344.123 287.729,344.763 287.090,345.065 286.746 C 345.249 286.536,346.840 284.947,348.600 283.215 C 350.360 281.483,352.002 279.848,352.248 279.581 C 352.831 278.950,358.950 272.831,359.581 272.248 C 359.848 272.002,361.483 270.360,363.215 268.600 C 364.947 266.840,366.565 265.220,366.811 265.000 C 367.057 264.780,367.675 264.175,368.184 263.655 C 369.516 262.293,370.185 261.628,371.255 260.601 C 371.775 260.102,373.010 258.667,374.000 257.413 C 374.990 256.158,376.443 254.452,377.229 253.621 C 378.014 252.790,378.902 251.501,379.201 250.755 C 379.500 250.010,380.408 248.590,381.218 247.600 C 382.029 246.610,382.830 245.350,383.000 244.800 C 383.169 244.250,383.840 243.123,384.491 242.295 C 385.142 241.467,385.917 239.873,386.213 238.753 C 386.508 237.632,387.224 235.999,387.803 235.124 C 388.382 234.249,389.093 232.423,389.384 231.066 C 389.674 229.710,390.483 226.900,391.180 224.821 C 393.531 217.817,394.048 196.563,391.996 191.252 C 391.540 190.070,390.642 186.480,390.002 183.275 C 389.240 179.462,388.552 177.060,388.012 176.331 C 387.558 175.717,386.907 174.087,386.564 172.708 C 386.222 171.328,385.325 169.287,384.571 168.171 C 383.817 167.055,383.200 165.973,383.200 165.768 C 383.200 165.176,381.181 161.483,380.372 160.595 C 379.968 160.152,379.354 159.109,379.006 158.277 C 378.659 157.446,378.104 156.661,377.773 156.534 C 377.443 156.408,376.599 155.470,375.899 154.452 C 375.199 153.433,369.530 147.496,363.302 141.258 C 357.073 135.020,351.698 129.377,351.357 128.718 C 351.017 128.059,331.312 108.089,307.569 84.341 C 283.826 60.593,264.400 40.981,264.400 40.758 C 264.400 40.291,256.452 32.257,254.771 31.026 C 254.151 30.572,251.923 28.895,249.821 27.300 C 247.718 25.705,245.829 24.400,245.623 24.400 C 245.417 24.400,244.447 23.706,243.467 22.858 C 242.434 21.964,240.926 21.125,239.877 20.861 C 238.882 20.611,237.558 19.988,236.934 19.478 C 235.824 18.569,233.344 17.533,231.049 17.017 C 230.415 16.875,229.256 16.323,228.473 15.791 C 227.036 14.815,226.105 14.571,219.200 13.364 C 217.110 12.999,214.371 12.363,213.113 11.950 C 210.101 10.962,194.261 10.884,191.000 11.841 M209.173 109.647 C 210.398 110.091,212.840 110.817,214.600 111.260 C 216.360 111.703,218.162 112.402,218.605 112.813 C 219.048 113.225,220.236 113.926,221.247 114.373 C 222.896 115.103,227.247 118.573,228.800 120.399 C 229.130 120.786,230.749 122.250,232.398 123.652 C 236.153 126.844,254.000 144.664,254.000 145.221 C 254.000 145.448,260.885 152.536,269.300 160.972 C 284.945 176.657,287.320 179.191,288.884 181.868 C 289.377 182.711,290.189 183.728,290.690 184.129 C 291.190 184.530,291.600 185.103,291.600 185.402 C 291.600 185.702,292.460 187.624,293.511 189.673 C 297.259 196.981,297.458 214.795,293.840 219.200 C 293.569 219.530,292.848 221.106,292.237 222.703 C 291.627 224.299,290.809 225.829,290.421 226.103 C 290.033 226.376,289.345 227.320,288.892 228.200 C 288.385 229.185,278.444 239.403,263.013 254.800 C 249.233 268.550,237.430 280.548,236.785 281.463 C 236.140 282.378,235.115 283.643,234.506 284.276 C 233.898 284.908,232.835 286.050,232.145 286.813 C 231.455 287.576,229.745 289.100,228.345 290.200 C 226.945 291.300,225.740 292.335,225.667 292.500 C 225.593 292.665,225.323 292.802,225.067 292.803 C 224.810 292.805,223.970 293.398,223.200 294.120 C 222.430 294.842,220.942 295.756,219.893 296.152 C 218.844 296.548,217.760 297.097,217.484 297.373 C 216.482 298.375,215.279 298.756,211.179 299.368 C 208.880 299.711,206.371 300.173,205.603 300.396 C 203.609 300.973,199.676 300.895,197.373 300.233 C 196.288 299.922,194.410 299.553,193.200 299.415 C 189.631 299.007,187.300 298.380,186.380 297.582 C 185.906 297.171,184.681 296.517,183.659 296.128 C 182.636 295.739,181.180 294.876,180.422 294.210 C 177.023 291.224,119.116 233.290,118.617 232.376 C 118.310 231.813,117.370 230.625,116.529 229.735 C 113.310 226.330,111.936 224.338,111.145 221.927 C 110.694 220.555,109.993 219.009,109.586 218.491 C 106.530 214.606,106.647 197.643,109.776 191.000 C 110.501 189.460,111.229 187.750,111.392 187.200 C 111.556 186.650,112.142 185.717,112.694 185.127 C 113.246 184.537,114.081 183.421,114.549 182.648 C 115.017 181.874,116.750 179.823,118.400 178.089 C 121.659 174.665,125.048 170.815,126.000 169.456 C 126.330 168.985,127.814 167.430,129.299 166.000 C 130.783 164.570,132.223 163.159,132.499 162.865 C 132.774 162.571,133.423 161.941,133.940 161.465 C 134.457 160.989,135.267 160.172,135.740 159.648 C 136.213 159.124,137.860 157.471,139.400 155.974 C 140.940 154.477,142.453 152.998,142.761 152.687 C 143.492 151.952,151.952 143.492,152.687 142.761 C 152.998 142.453,154.477 140.940,155.974 139.400 C 157.471 137.860,159.124 136.213,159.648 135.740 C 160.172 135.267,160.989 134.457,161.465 133.940 C 161.941 133.423,162.571 132.774,162.865 132.497 C 163.159 132.221,164.840 130.555,166.600 128.796 C 168.360 127.038,169.942 125.464,170.116 125.299 C 170.290 125.135,171.750 123.650,173.362 122.000 C 176.780 118.501,180.635 115.312,182.726 114.254 C 183.537 113.843,184.565 113.174,185.012 112.767 C 185.458 112.359,187.132 111.751,188.730 111.415 C 190.329 111.078,192.444 110.435,193.432 109.986 C 197.233 108.254,204.878 108.090,209.173 109.647 " stroke="none" fill="#064dec" fill-rule="evenodd"></path><path id="path1" d="M0.000 200.000 L 0.000 400.000 96.600 400.000 C 192.716 400.000,193.200 399.996,193.200 399.205 C 193.200 398.037,191.124 397.332,186.237 396.840 C 181.703 396.384,178.400 395.693,178.400 395.200 C 178.400 395.032,176.825 394.401,174.900 393.798 C 171.216 392.645,170.105 392.178,167.237 390.582 C 166.267 390.042,165.246 389.600,164.968 389.600 C 164.689 389.600,163.651 388.982,162.662 388.226 C 161.672 387.471,160.263 386.550,159.531 386.181 C 158.799 385.811,157.701 385.042,157.091 384.471 C 156.481 383.900,155.543 383.245,155.007 383.016 C 153.907 382.546,148.539 377.670,144.257 373.252 C 142.686 371.631,141.158 370.101,140.862 369.852 C 140.332 369.407,139.071 368.136,137.886 366.855 C 137.169 366.078,131.709 360.624,130.691 359.667 C 129.174 358.241,128.181 357.254,127.742 356.738 C 127.491 356.442,125.871 354.800,124.142 353.089 C 120.250 349.235,120.260 349.245,116.712 345.652 C 115.110 344.031,113.452 342.411,113.027 342.052 C 112.601 341.694,111.881 340.977,111.427 340.460 C 110.972 339.942,110.262 339.222,109.848 338.860 C 109.435 338.497,108.535 337.585,107.848 336.833 C 107.162 336.080,106.258 335.180,105.840 334.833 C 105.422 334.485,104.792 333.878,104.440 333.484 C 104.088 333.091,103.381 332.371,102.868 331.884 C 102.356 331.398,100.736 329.763,99.268 328.251 C 97.801 326.739,96.305 325.233,95.945 324.905 C 95.128 324.161,93.484 322.519,92.690 321.655 C 92.129 321.045,87.082 316.017,85.491 314.483 C 83.367 312.436,82.962 312.030,82.560 311.538 C 82.318 311.242,81.508 310.433,80.760 309.741 C 79.420 308.500,77.357 306.251,74.472 302.882 C 73.662 301.937,72.396 300.587,71.657 299.882 C 70.918 299.177,70.108 298.362,69.857 298.071 C 69.399 297.542,68.609 296.764,67.300 295.553 C 66.915 295.196,65.309 293.576,63.732 291.953 C 62.154 290.329,60.444 288.602,59.932 288.116 C 59.419 287.629,58.703 286.909,58.340 286.516 C 57.550 285.658,52.098 280.212,51.084 279.267 C 50.691 278.900,49.971 278.181,49.484 277.668 C 48.998 277.156,47.271 275.446,45.647 273.868 C 44.024 272.291,42.381 270.663,41.997 270.250 C 41.614 269.838,41.007 269.207,40.649 268.850 C 40.291 268.493,39.594 267.762,39.099 267.228 C 38.605 266.693,37.596 265.703,36.857 265.028 C 36.118 264.352,35.308 263.556,35.057 263.257 C 34.806 262.958,34.176 262.328,33.658 261.857 C 31.956 260.309,31.419 259.717,29.800 257.605 C 28.920 256.457,27.506 254.771,26.657 253.859 C 25.808 252.946,24.580 251.075,23.928 249.700 C 23.276 248.325,22.566 247.200,22.351 247.200 C 22.135 247.200,21.682 246.525,21.344 245.700 C 21.005 244.875,20.206 243.376,19.567 242.369 C 18.928 241.363,17.888 239.113,17.255 237.369 C 16.622 235.626,15.728 233.480,15.267 232.600 C 14.806 231.720,14.142 229.200,13.790 227.000 C 13.439 224.800,12.905 222.502,12.603 221.893 C 10.329 217.307,10.008 194.864,12.143 189.845 C 12.507 188.990,13.178 186.380,13.633 184.045 C 14.088 181.710,14.878 178.985,15.388 177.989 C 15.897 176.993,16.536 175.373,16.807 174.389 C 17.442 172.087,18.294 170.155,19.448 168.400 C 19.955 167.630,20.653 166.193,21.000 165.206 C 21.347 164.219,22.049 162.959,22.560 162.406 C 23.070 161.853,23.992 160.455,24.608 159.300 C 25.223 158.145,25.886 157.200,26.080 157.200 C 26.274 157.200,26.990 156.304,27.670 155.210 C 28.351 154.115,29.211 153.123,29.582 153.006 C 29.954 152.888,30.670 152.057,31.174 151.160 C 31.685 150.251,47.114 134.495,66.057 115.538 C 84.739 96.843,100.450 80.871,100.971 80.046 C 102.912 76.972,150.620 29.755,154.087 27.477 C 155.345 26.650,156.515 25.750,156.687 25.476 C 156.859 25.201,157.761 24.642,158.691 24.232 C 159.621 23.822,160.631 23.107,160.936 22.642 C 161.240 22.178,162.459 21.454,163.644 21.034 C 164.830 20.614,166.289 19.866,166.886 19.372 C 167.483 18.879,169.283 18.071,170.886 17.576 C 172.489 17.082,174.492 16.241,175.338 15.709 C 176.184 15.177,177.804 14.569,178.938 14.357 C 185.800 13.076,189.254 12.360,191.187 11.816 C 194.645 10.842,210.022 10.937,213.113 11.950 C 214.371 12.363,217.110 12.999,219.200 13.364 C 226.105 14.571,227.036 14.815,228.473 15.791 C 229.256 16.323,230.415 16.875,231.049 17.017 C 233.344 17.533,235.824 18.569,236.934 19.478 C 237.558 19.988,238.882 20.611,239.877 20.861 C 240.926 21.125,242.434 21.964,243.467 22.858 C 244.447 23.706,245.417 24.400,245.623 24.400 C 245.829 24.400,247.718 25.705,249.821 27.300 C 251.923 28.895,254.151 30.572,254.771 31.026 C 256.452 32.257,264.400 40.291,264.400 40.758 C 264.400 40.981,283.826 60.593,307.569 84.341 C 331.312 108.089,351.017 128.059,351.357 128.718 C 351.698 129.377,357.073 135.020,363.302 141.258 C 369.530 147.496,375.199 153.433,375.899 154.452 C 376.599 155.470,377.443 156.408,377.773 156.534 C 378.104 156.661,378.659 157.446,379.006 158.277 C 379.354 159.109,379.968 160.152,380.372 160.595 C 381.181 161.483,383.200 165.176,383.200 165.768 C 383.200 165.973,383.817 167.055,384.571 168.171 C 385.325 169.287,386.222 171.328,386.564 172.708 C 386.907 174.087,387.558 175.717,388.012 176.331 C 388.552 177.060,389.240 179.462,390.002 183.275 C 390.642 186.480,391.540 190.070,391.996 191.252 C 394.048 196.563,393.531 217.817,391.180 224.821 C 390.483 226.900,389.674 229.710,389.384 231.066 C 389.093 232.423,388.382 234.249,387.803 235.124 C 387.224 235.999,386.508 237.632,386.213 238.753 C 385.917 239.873,385.142 241.467,384.491 242.295 C 383.840 243.123,383.169 244.250,383.000 244.800 C 382.830 245.350,382.029 246.610,381.218 247.600 C 380.408 248.590,379.500 250.010,379.201 250.755 C 378.902 251.501,378.014 252.790,377.229 253.621 C 376.443 254.452,374.990 256.158,374.000 257.413 C 373.010 258.667,371.775 260.102,371.255 260.601 C 370.184 261.630,369.537 262.272,368.119 263.719 C 367.575 264.275,366.957 264.880,366.746 265.065 C 366.536 265.249,364.947 266.840,363.215 268.600 C 361.483 270.360,359.870 271.980,359.629 272.200 C 359.060 272.720,352.941 278.839,352.296 279.533 C 352.023 279.827,350.360 281.483,348.600 283.215 C 346.840 284.947,345.249 286.536,345.065 286.746 C 344.880 286.957,344.299 287.550,343.774 288.065 C 343.248 288.579,342.499 289.312,342.109 289.694 C 340.388 291.377,335.355 296.397,334.909 296.874 C 334.340 297.483,332.542 299.320,331.865 299.984 C 329.519 302.283,326.554 305.442,324.765 307.550 C 323.139 309.466,311.453 321.350,307.606 325.000 C 307.374 325.220,305.130 327.470,302.618 330.000 C 300.107 332.530,297.816 334.829,297.526 335.108 C 292.589 339.873,275.486 357.417,274.626 358.600 C 273.986 359.480,272.908 360.756,272.231 361.435 C 271.554 362.114,268.453 365.264,265.340 368.435 C 257.859 376.054,252.841 380.531,248.848 383.149 C 248.051 383.671,246.950 384.505,246.400 385.004 C 245.850 385.502,244.983 386.036,244.474 386.190 C 243.964 386.344,242.961 386.985,242.245 387.614 C 241.528 388.243,239.956 389.127,238.752 389.578 C 237.547 390.028,235.711 390.936,234.672 391.595 C 233.634 392.254,231.933 393.005,230.892 393.264 C 229.024 393.729,227.669 394.279,225.478 395.460 C 224.861 395.793,221.891 396.396,218.878 396.801 C 212.013 397.722,211.036 398.006,210.872 399.127 L 210.744 400.000 305.372 400.000 L 400.000 400.000 400.000 200.000 L 400.000 0.000 200.000 0.000 L 0.000 0.000 0.000 200.000 M197.513 108.808 C 196.256 109.006,194.419 109.536,193.432 109.986 C 192.444 110.435,190.329 111.078,188.730 111.415 C 187.132 111.751,185.458 112.359,185.012 112.767 C 184.565 113.174,183.537 113.843,182.726 114.254 C 180.635 115.312,176.780 118.501,173.362 122.000 C 171.750 123.650,170.290 125.135,170.116 125.299 C 169.942 125.464,168.360 127.038,166.600 128.796 C 164.840 130.555,163.159 132.221,162.865 132.497 C 162.571 132.774,161.941 133.423,161.465 133.940 C 160.989 134.457,160.172 135.267,159.648 135.740 C 159.124 136.213,157.471 137.860,155.974 139.400 C 154.477 140.940,152.998 142.453,152.687 142.761 C 151.952 143.492,143.492 151.952,142.761 152.687 C 142.453 152.998,140.940 154.477,139.400 155.974 C 137.860 157.471,136.213 159.124,135.740 159.648 C 135.267 160.172,134.457 160.989,133.940 161.465 C 133.423 161.941,132.774 162.571,132.499 162.865 C 132.223 163.159,130.783 164.570,129.299 166.000 C 127.814 167.430,126.330 168.985,126.000 169.456 C 125.048 170.815,121.659 174.665,118.400 178.089 C 116.750 179.823,115.017 181.874,114.549 182.648 C 114.081 183.421,113.246 184.537,112.694 185.127 C 112.142 185.717,111.556 186.650,111.392 187.200 C 111.229 187.750,110.501 189.460,109.776 191.000 C 106.647 197.643,106.530 214.606,109.586 218.491 C 109.993 219.009,110.694 220.555,111.145 221.927 C 111.936 224.338,113.310 226.330,116.529 229.735 C 117.370 230.625,118.310 231.813,118.617 232.376 C 119.116 233.290,177.023 291.224,180.422 294.210 C 181.180 294.876,182.636 295.739,183.659 296.128 C 184.681 296.517,185.906 297.171,186.380 297.582 C 187.300 298.380,189.631 299.007,193.200 299.415 C 194.410 299.553,196.288 299.922,197.373 300.233 C 199.676 300.895,203.609 300.973,205.603 300.396 C 206.371 300.173,208.880 299.711,211.179 299.368 C 215.279 298.756,216.482 298.375,217.484 297.373 C 217.760 297.097,218.844 296.548,219.893 296.152 C 220.942 295.756,222.430 294.842,223.200 294.120 C 223.970 293.398,224.810 292.805,225.067 292.803 C 225.323 292.802,225.593 292.665,225.667 292.500 C 225.740 292.335,226.945 291.300,228.345 290.200 C 229.745 289.100,231.455 287.576,232.145 286.813 C 232.835 286.050,233.898 284.908,234.506 284.276 C 235.115 283.643,236.140 282.378,236.785 281.463 C 237.430 280.548,249.233 268.550,263.013 254.800 C 278.444 239.403,288.385 229.185,288.892 228.200 C 289.345 227.320,290.033 226.376,290.421 226.103 C 290.809 225.829,291.627 224.299,292.237 222.703 C 292.848 221.106,293.569 219.530,293.840 219.200 C 297.458 214.795,297.259 196.981,293.511 189.673 C 292.460 187.624,291.600 185.702,291.600 185.402 C 291.600 185.103,291.190 184.530,290.690 184.129 C 290.189 183.728,289.377 182.711,288.884 181.868 C 287.320 179.191,284.945 176.657,269.300 160.972 C 260.885 152.536,254.000 145.448,254.000 145.221 C 254.000 144.664,236.153 126.844,232.398 123.652 C 230.749 122.250,229.130 120.786,228.800 120.399 C 227.247 118.573,222.896 115.103,221.247 114.373 C 220.236 113.926,219.048 113.225,218.605 112.813 C 218.162 112.402,216.360 111.703,214.600 111.260 C 212.840 110.817,210.398 110.091,209.173 109.647 C 206.551 108.697,200.834 108.285,197.513 108.808 " stroke="none" fill="#fcfcfc" fill-rule="evenodd"></path></g></svg>