<svg xmlns="http://www.w3.org/2000/svg" width="48" height="48" fill="none" viewBox="0 0 48 48">
  <path fill="#3CA9E5" d="M13.899 6.235l20.592 11.76v11.994L3 11.997l10.092-5.762a.856.856 0 01.807 0z"/>
  <path fill="#2853C3" d="M34.491 6l-10.5 5.997 10.5 5.997V6z"/>
  <path fill="#1A4199" d="M34.492 6l10.1 5.762a.844.844 0 01.408.697v23.519l-10.508-5.99V6z"/>
  <path fill="#2853C3" d="M44.992 35.986l-10.093 5.762a.855.855 0 01-.849 0l-20.584-11.76v-12.01l31.526 18.008z"/>
  <path fill="#60BEFF" d="M3 11.997v23.519a.833.833 0 00.407.722L13.5 42V17.978L3 11.998z"/>
  <path fill="#3CA9E5" d="M13.5 41.983l10.492-5.997L13.5 29.99v11.994z"/>
</svg>
