<svg clip-rule="evenodd" fill-rule="evenodd" stroke-linejoin="round" stroke-miterlimit="2" version="1.1" viewBox="71.341 -5.6843e-14 357.32 500" xml:space="preserve" xmlns="http://www.w3.org/2000/svg">
    <g transform="matrix(.2 0 0 .2 71.2 -5.6843e-14)" fill="#13bef9">
        <path d="m596.55 549.62h-38.125v197.5h38.125v-197.5zm163.97 0h-38.125v197.5h38.125v-197.5zm224.03-376.91-39.063-67.75-652.09 376.91 39.062 67.75 652.09-376.91z" fill-rule="nonzero"/>
        <path d="m980.73 172.72 39.096-67.75 652.09 376.91-39.09 67.75-652.1-376.91z" fill-rule="nonzero"/>
        <rect x=".703" y="472.34" width="1786.6" height="78.219" fill-rule="nonzero"/>
        <path d="m1079.9 1655.5v-1159.3h78.19v1215.7c-20.97-23.87-47.69-41.03-78.19-56.31zm-133.47-20.03v-1635.5h78.188v1645c-21.94-10.5-75.313-9.53-78.188-9.53zm-740.75 163.16c-95.344-70.6-158.25-183.19-158.25-311.07 0-67.75 18.094-134.53 51.469-192.75h667.34c34.313 58.22 51.5 125 51.5 192.75 0 59.16-7.625 114.5-31.468 164.13-50.532-48.66-124.91-69.66-200.22-69.66-133.47 0-247.88 83-277.41 207.06-10.5-0.96-17.157-1.9-27.657-1.9-25.75 0.94-50.531 4.78-75.312 11.44z"/>
        <path d="m533.61 834.94h-202.09v203.22h202.09v-203.22zm-227.84 0h-202.09v203.22h202.09v-203.22zm0 226.12h-202.09v203.25h202.09v-203.25zm227.84 0h-202.09v203.25h202.09v-203.25zm226.91 0h-202.09v203.25h202.09v-203.25zm0-334.9h-202.09v203.22h202.09v-203.22z" fill-rule="nonzero"/>
        <path d="m341.98 1829.2c27.657-117.35 133.47-205.16 259.31-205.16 81.062 0 153.5 36.28 203.09 93.53 42.875-29.59 94.375-46.75 150.62-46.75 146.81 0 265.96 119.25 265.96 266.22 0 30.53-4.75 59.16-14.28 86.81 32.41 43.91 52.44 99.25 52.44 158.41 0 146.94-119.19 266.22-266 266.22-64.844 0-123.94-22.91-169.69-61.06-48.625 67.75-127.75 112.59-217.38 112.59-102.97 0-192.59-59.16-237.38-145.03-18.125 3.81-36.25 5.72-55.312 5.72-146.81 0-266.94-119.28-266.94-266.22s119.19-266.22 266.94-266.22c9.531-0.97 19.062-0.97 28.593 0.94z"/>
    </g>
</svg>
