<svg xmlns="http://www.w3.org/2000/svg" fill="none" viewBox="-0.00 27.98 84.00 28.03">
<path fill-rule="evenodd" clip-rule="evenodd" d="M6.74582+27.9833L12.7788+27.9833C12.8537+27.9833+12.9251+28.0167+12.9736+28.0747C13.0225+28.1324+13.0435+28.2089+13.0309+28.2839L8.58979+55.4178C8.57026+55.5372+8.47118+55.6267+8.35186+55.6335L1.71847+56.0162C1.71365+56.0164+1.70907+56.0167+1.70401+56.0167C1.63169+56.0167+1.56226+55.9857+1.51381+55.9309C1.46174+55.8723+1.43884+55.793+1.45186+55.7156L5.19922+33.0344C5.12066+29.6551+0.99204+28.8381+0.488229+28.7116C-0.0554207+28.5748+0.00172434+27.9833+0.00172434+27.9833L6.74582+27.9833ZM39.0672+28.1057C39.0216+28.0298+38.9404+27.9833+38.8528+27.9833L32.3447+27.9833C32.2512+27.9833+32.166+28.036+32.1225+28.1196L23.1414+45.5141L20.0843+28.1928C20.0628+28.0714+19.9591+27.9833+19.8378+27.9833L13.285+27.9833C13.2106+27.9833+13.1396+28.0171+13.0921+28.0755C13.0447+28.1335+13.0251+28.2103+13.0388+28.2847L17.8906+54.3345C17.913+54.4549+18.0166+54.5412+18.1366+54.5412C18.1411+54.5412+18.146+54.541+18.1508+54.5407L25.715+54.1027C25.8031+54.0976+25.8824+54.0459+25.923+53.9665L39.075+28.3549C39.1156+28.2759+39.1125+28.1816+39.0672+28.1057ZM59.3375+33.6023C59.2535+32.8154+59.075+32.1164+58.8067+31.5238C58.5374+30.9312+58.1986+30.4234+57.8+30.0147C57.4061+29.6128+56.9927+29.2778+56.5659+29.0157C55.5321+28.4163+54.3033+28.0693+52.8984+27.9833L40.4656+27.9833C40.3463+27.9833+40.244+28.0716+40.2244+28.1919L36.2103+52.7748C36.1979+52.8497+36.22+52.9262+36.2695+52.9829C36.3158+53.036+36.3821+53.0659+36.4514+53.0659C36.4563+53.0659+36.4604+53.0655+36.4653+53.0654L42.7158+52.7007C42.83+52.694+42.9244+52.6072+42.9431+52.4918L43.6902+47.8595L49.7747+47.8591C51.1588+47.7741+52.4654+47.4292+53.658+46.8343C54.6896+46.321+55.6958+45.4945+56.6495+44.3782C57.6118+43.2514+58.2827+41.6479+58.642+39.611L59.2134+36.3164C59.379+35.2976+59.4211+34.3844+59.3375+33.6023ZM52.1289+39.4767C52.0545+39.8559+51.918+40.1876+51.7204+40.4657C51.549+40.7155+51.3173+40.9389+51.0324+41.129C50.7618+41.3095+50.3884+41.4008+49.923+41.4008L44.7068+41.4008L45.81+34.4002L51.105+34.4002C51.5571+34.4002+51.8864+34.4913+52.0836+34.67C52.2989+34.8659+52.4555+35.0869+52.5467+35.3188C52.6425+35.5901+52.6789+35.9206+52.6573+36.2757L52.1289+39.4767ZM83.752+27.9833L77.4274+27.9833C77.3064+27.9833+77.2027+28.0764+77.1829+28.2031L74.9296+42.5398L70.0446+28.157C70.0088+28.0531+69.9159+27.9833+69.8113+27.9833L63.4866+27.9833C63.3657+27.9833+63.262+28.0764+63.2421+28.2031L59.3828+52.7592C59.3702+52.838+59.3924+52.9187+59.4428+52.9784C59.4897+53.0344+59.557+53.0659+59.6271+53.0659C59.632+53.0659+66.0626+52.6758+66.0626+52.6758C66.1785+52.669+66.2742+52.5776+66.2931+52.456L67.9065+42.0938L71.3139+52.1685C71.351+52.2788+71.4507+52.3455+71.5612+52.3425L80.1363+51.8222C80.2519+51.8154+80.3476+51.7243+80.3666+51.6025L83.9966+28.2895C84.0087+28.213+83.9884+28.1352+83.941+28.0764C83.894+28.0173+83.8247+27.9833+83.752+27.9833Z" fill="#FF3344"></path>
</svg>
