<svg xmlns="http://www.w3.org/2000/svg" viewBox="0 0 40 41">
	<path fill="white" fill-rule="evenodd" clip-rule="evenodd" d="M10.039 0.078486C7.0769 0.559521 4.98602 2.33811 3.37177 5.75C2.49825 7.59625 1.95571 9.56187 1.65145 11.9822C1.50884 13.117 1.45619 15.7278 1.55038 16.9944C1.74043 19.5485 2.29565 22.2141 3.11873 24.5234C3.415 25.3548 4.30009 27.223 4.46232 27.3596C4.61338 27.4867 7.66397 27.4631 9.25897 27.3224C12.5774 27.0298 13.5123 26.8854 15.9158 26.294C16.9377 26.0425 18.1979 25.7465 18.7163 25.6362C19.2347 25.526 19.7246 25.4205 19.805 25.4016C20.1448 25.3222 19.9472 24.3573 19.1367 22.1374C18.3253 19.9153 18.3162 19.867 18.0357 16.2689C17.7901 13.1193 17.7891 10.3454 18.0333 8.91557C18.089 8.58912 18.2502 7.9659 18.3915 7.53063C18.5327 7.09537 18.6961 6.5315 18.7544 6.27759C18.8918 5.6791 18.8912 4.74744 18.7529 4.20019C18.5851 3.53588 18.0426 2.47192 17.6882 2.1119C16.8689 1.27942 15.2385 0.529712 13.476 0.174838C12.5537 -0.0108094 10.8782 -0.0578313 10.039 0.078486ZM28.0436 0.222915C26.4571 0.365893 24.9935 0.882079 23.3413 1.88121C21.0065 3.29312 19.4803 5.04929 19.0329 6.83909C18.9 7.37057 18.8949 7.49832 18.9314 9.37721C19.0249 14.1946 19.6649 19.1584 20.6402 22.6305C20.8595 23.4112 21.3688 24.5901 21.6218 24.9026L21.7506 25.0618L22.8224 24.9446C24.0909 24.8059 24.1671 24.826 24.5246 25.393C24.6463 25.5859 24.8271 25.8087 24.9266 25.8881L25.1075 26.0324L25.4242 25.424C25.5985 25.0893 25.7472 24.8115 25.7548 24.8067C25.7624 24.8019 26.6461 24.8937 27.7186 25.0106C29.1639 25.1681 29.921 25.2838 30.6436 25.4576C31.1798 25.5865 31.6917 25.7054 31.781 25.7218C31.9493 25.7527 32.6497 25.9455 32.821 26.0081C32.8746 26.0278 33.6054 26.2814 34.4449 26.5719L35.9712 27.1L36.2255 26.812C36.7664 26.1992 37.0641 25.5948 37.4877 24.2488C37.905 22.9233 38.0918 21.8886 38.3093 19.6983C38.5694 17.0798 38.6027 13.5982 38.3835 11.9492C38.2127 10.6643 37.3909 6.28927 37.25 5.91487C36.7931 4.70035 34.7781 2.34358 33.4397 1.45848C32.0115 0.513818 29.9788 0.0484131 28.0436 0.222915ZM31.2501 9.12146C32.3238 9.49401 33.5931 10.2547 33.9213 10.7224L34.0497 10.9054L33.6791 11.0587C33.0733 11.3091 31.9238 11.906 31.2285 12.3312C30.295 12.902 29.673 13.3807 29.1161 13.9566C28.6703 14.4177 28.2048 15.1336 28.207 15.3549C28.2075 15.4061 29.0923 15.8962 30.2707 16.498C32.6267 17.7011 32.8588 17.8722 33.0526 18.5487C33.2499 19.2373 33.0496 20.0278 32.5297 20.6116C32.1857 20.998 31.992 21.1022 30.7296 21.5809C28.4185 22.4571 27.9842 22.4851 26.7111 21.8399C26.2665 21.6146 25.6148 21.1449 25.3542 20.8619L25.1997 20.6943L25.3867 20.6534C26.4508 20.4211 27.731 19.6926 28.7911 18.7162C29.0766 18.4533 29.0805 18.4443 28.9536 18.3439C28.8821 18.2873 28.6335 18.1342 28.4011 18.0038C27.5826 17.5442 26.4788 16.7589 26.0558 16.3349C25.6636 15.942 25.6201 15.8704 25.5358 15.4775C25.414 14.9104 25.4291 13.9662 25.5685 13.4388C26.0268 11.7042 27.6444 10.1677 30.0586 9.1735C30.3446 9.05578 30.6175 8.95699 30.6651 8.95395C30.7128 8.95098 30.976 9.02636 31.2501 9.12146ZM10.8189 9.94458C12.1185 10.1054 13.6136 10.6473 14.0472 11.1148C14.4329 11.5306 14.6415 12.2779 14.6483 13.2682C14.6545 14.1621 14.5881 14.4601 14.2792 14.9239C14.1222 15.1597 13.9534 15.3029 13.6139 15.4883C12.9949 15.8263 11.7434 16.2346 10.9164 16.3683C10.5411 16.429 10.1358 16.4984 10.0159 16.5224C9.80743 16.5642 9.91806 16.6423 12.5378 18.3033L15.2777 20.0404L14.9983 20.3486C14.8446 20.5182 14.552 20.8421 14.3481 21.0684L13.9773 21.48L13.4885 21.2829C12.343 20.8212 10.6321 19.8566 9.2422 18.8886C8.87548 18.6333 8.55373 18.4464 8.52721 18.4733C8.4238 18.5783 8.47872 20.5751 8.60404 21.2662C8.72481 21.9323 8.72481 21.9455 8.60294 22.039C8.09432 22.4297 7.31629 22.5569 6.57062 22.3715C6.13617 22.2635 6.10796 22.2451 6.07481 22.0493C5.96919 21.4258 4.80994 11.409 4.83555 11.3413C4.88475 11.211 6.14377 10.6301 6.93273 10.3734C8.28945 9.93231 9.57376 9.79052 10.8189 9.94458ZM8.29159 13.598C8.31506 14.1783 8.34392 14.6645 8.35575 14.6784C8.38825 14.7168 9.65995 14.263 10.7539 13.8227C12.2813 13.208 12.7862 12.8833 12.4308 12.7445C12.2306 12.6662 10.8754 12.5805 9.53391 12.5612L8.24889 12.5428L8.29159 13.598ZM23.1687 25.6781C21.1853 25.9287 19.3253 26.2908 16.6363 26.9498C14.3864 27.5011 14.0336 27.5744 12.9964 27.706C10.119 28.0712 7.58558 28.2381 5.68404 28.188C4.51751 28.1572 4.26765 28.1322 3.9656 28.0156C3.77119 27.9406 3.30781 27.827 2.93596 27.7632L2.25977 27.6471L2.12458 27.844C2.05022 27.9523 1.81102 28.2211 1.59308 28.4414C1.2911 28.7465 1.12535 28.8601 0.896816 28.9185C0.510788 29.0171 0.230773 29.3349 0.0867362 29.8377C-0.0117369 30.1812 -0.0173918 30.6009 0.0252474 34.4044C0.0509869 36.708 0.095771 38.6177 0.124695 38.6482C0.233503 38.7627 1.19743 39.0071 1.27888 38.9408C1.32275 38.9051 1.44645 38.7232 1.55369 38.5365C1.68675 38.305 1.74921 38.2401 1.75018 38.3323C1.75096 38.4067 1.77904 38.4957 1.81252 38.5301C1.84599 38.5646 1.88259 38.7263 1.89377 38.8896L1.91411 39.1863L2.5316 39.399C3.43242 39.7092 3.62767 39.6879 3.72634 39.2688C3.76307 39.1127 3.80161 39.0874 4.00174 39.0874C4.34227 39.0874 4.67168 39.2704 4.792 39.5264C4.85589 39.6623 4.94715 39.7509 5.02983 39.7572C5.28573 39.7767 5.47318 39.7389 5.62697 39.6366C5.77185 39.5403 5.78154 39.5421 5.78154 39.6651C5.78154 39.8521 5.9883 39.8789 7.43088 39.8785C9.38 39.8779 11.4826 39.6593 14.3939 39.1544C16.913 38.7176 18.0086 38.4685 18.3144 38.2632C18.5277 38.12 18.6271 38.0918 18.796 38.1265C18.913 38.1507 19.0965 38.186 19.2038 38.2051C19.3179 38.2254 20.0191 38.1023 20.8937 37.9083C22.9363 37.4555 23.8232 37.3006 24.662 37.2505L25.3753 37.2078L25.4821 36.914C25.5409 36.7523 25.6186 36.6101 25.655 36.5978C25.6914 36.5855 25.8342 36.7073 25.9724 36.8684L26.2236 37.1614L26.6786 37.0955C27.282 37.0083 29.4043 37.0713 30.0586 37.196C30.3446 37.2505 30.81 37.3552 31.0928 37.4288C31.553 37.5485 31.6346 37.553 31.8685 37.4712L32.13 37.3798L32.5135 37.6723C32.9687 38.0195 32.9476 38.0252 33.6294 37.3681L34.1027 36.9119L34.3068 37.0153C34.4191 37.0721 34.5107 37.1238 34.5103 37.1302C34.5099 37.1366 34.466 37.2876 34.4128 37.4656C34.3595 37.6437 34.316 37.9305 34.316 38.1028V38.4162L34.7872 38.598C35.7247 38.9595 36.6596 39.3508 36.9955 39.5222C37.5146 39.7871 38.338 40.3482 38.713 40.6926L39.0476 41L39.1181 40.5878C39.6014 37.7654 39.9408 34.4714 39.9829 32.1957L40 31.2724L39.7224 30.6927C39.0478 29.2843 37.6641 28.3949 34.4226 27.2861C33.4624 26.9577 32.6412 26.6889 32.5978 26.6889C32.5544 26.6889 32.4726 26.8299 32.4161 27.0022L32.3134 27.3154L32.3073 26.949L32.301 26.5825L31.8298 26.4652C31.029 26.2657 29.3497 25.8998 29.23 25.8986C29.1676 25.898 29.0031 26.0014 28.8647 26.1284C28.7262 26.2553 28.5906 26.3592 28.5634 26.3592C28.5362 26.3592 28.5295 26.2419 28.5485 26.0984L28.5829 25.8377L28.3133 25.8005C27.7418 25.7216 26.863 25.6348 26.6307 25.6343C26.395 25.6337 26.3809 25.6475 26.1594 26.0939C26.0337 26.347 25.86 26.6012 25.7734 26.6589C25.6868 26.7164 25.5859 26.8506 25.5494 26.9571C25.4682 27.1933 25.3937 27.201 25.2558 26.9875C25.198 26.8979 24.9945 26.7076 24.8037 26.5646C24.613 26.4216 24.3615 26.1537 24.2448 25.9692C24.0327 25.6339 24.0325 25.6337 23.6982 25.6436C23.5142 25.649 23.276 25.6646 23.1687 25.6781ZM28.3761 29.4457C28.7815 29.6558 29.0054 29.8738 29.2128 30.2604C29.3649 30.544 29.4063 30.7143 29.4288 31.1485C29.4647 31.8437 29.3387 32.2418 28.9401 32.6916C28.4944 33.1946 28.2238 33.3164 27.5561 33.315C27.0688 33.3139 26.9628 33.291 26.6576 33.1208C26.0721 32.7943 25.7343 32.2508 25.6853 31.5564C25.613 30.5303 26.1197 29.6914 27.0168 29.352C27.3581 29.2229 28.0363 29.2697 28.3761 29.4457ZM24.926 29.573C24.7291 29.867 24.7267 29.9749 24.8812 31.5483C24.99 32.6564 24.9971 32.6874 25.2049 32.9497C25.3217 33.0972 25.4086 33.2199 25.398 33.2223C25.2864 33.248 23.7481 33.3922 23.7317 33.3785C23.7196 33.3684 23.78 33.2317 23.8658 33.0747C24.0144 32.803 24.019 32.7596 23.9616 32.1708L23.9012 31.5524L23.4063 31.5979C23.1341 31.6229 22.9027 31.6521 22.8921 31.663C22.8815 31.6737 22.9035 31.9572 22.941 32.293C22.9994 32.8161 23.0366 32.9373 23.2009 33.1394C23.3063 33.2692 23.3811 33.3872 23.3669 33.4015C23.3322 33.4367 21.7062 33.595 21.7062 33.5632C21.7062 33.5494 21.7768 33.4142 21.8631 33.2626L22.02 32.9871L21.8976 31.7341C21.8302 31.0449 21.7743 30.4143 21.7732 30.3328C21.7721 30.2513 21.6689 30.0696 21.5437 29.9291L21.3162 29.6737L21.625 29.6346C21.7948 29.613 22.1927 29.5752 22.5093 29.5505L23.0848 29.5055L22.9103 29.786C22.7438 30.0536 22.7378 30.0926 22.7818 30.6282L22.8279 31.1898L23.1608 31.1493C23.3439 31.1269 23.5748 31.1084 23.6739 31.1081L23.8542 31.1075L23.8102 30.5634C23.7707 30.0756 23.7434 29.991 23.5456 29.745L23.3251 29.4706L23.8319 29.4269C24.1106 29.4028 24.3679 29.3728 24.4037 29.3602C24.4394 29.3476 24.6087 29.3349 24.7798 29.3321L25.0908 29.3269L24.926 29.573ZM32.7394 29.9224C33.4021 30.2584 33.7272 30.8255 33.7296 31.6491C33.7314 32.3066 33.553 32.8084 33.1846 33.1822C32.7769 33.5959 32.4196 33.7456 31.8417 33.7448C31.0759 33.7439 30.491 33.3939 30.1343 32.7233C30.0187 32.5059 29.9939 32.3492 29.9938 31.833C29.9936 31.238 30.0053 31.1849 30.2262 30.7778C30.4709 30.3268 30.9055 29.9266 31.2852 29.8025C31.397 29.766 31.6813 29.733 31.9169 29.7293C32.2719 29.7237 32.4128 29.7568 32.7394 29.9224ZM26.6444 30.1916C26.3863 31.2834 26.9536 32.4377 27.8868 32.7189C28.3392 32.8552 28.328 32.8579 28.44 32.5859C28.5758 32.2562 28.5669 31.5032 28.4222 31.0855C28.1985 30.4394 27.4699 29.8545 26.8888 29.8545C26.7444 29.8545 26.7143 29.896 26.6444 30.1916ZM20.5038 30.1474C21.0447 30.4132 21.0405 30.4031 20.7303 30.688C20.2464 31.1321 20.267 31.1261 19.8603 30.9372C19.6603 30.8443 19.3377 30.7517 19.1435 30.7313L18.7904 30.6944L18.7428 30.9504C18.6795 31.2906 18.8582 31.9833 19.0981 32.3276C19.4857 32.8839 20.2714 33.2487 20.9922 33.2071L21.3764 33.1849L21.1351 33.4402C19.999 34.6415 18.1177 33.8312 18.016 32.0968C18.0001 31.8247 18.0199 31.4786 18.0601 31.3276C18.3428 30.2664 19.5547 29.6811 20.5038 30.1474ZM31.1115 30.4975C30.9982 30.747 30.9694 30.9316 30.9702 31.4043C30.9713 32.0962 31.106 32.4514 31.5301 32.8818C31.7702 33.1255 32.3183 33.3875 32.4349 33.3144C32.4639 33.2962 32.5503 33.1113 32.6269 32.9036C32.9075 32.1425 32.7749 31.3068 32.2838 30.7406C32.0217 30.4384 31.6109 30.1887 31.3712 30.1857C31.2937 30.1847 31.2053 30.2909 31.1115 30.4975ZM35.5675 30.7188C35.9696 30.8677 36.3216 31.0114 36.3498 31.038C36.3781 31.0647 36.283 31.1658 36.1386 31.2628C35.9941 31.3598 35.876 31.4489 35.876 31.4608C35.876 31.4726 35.6566 32.0853 35.3885 32.8222C35.1203 33.5591 34.901 34.1907 34.901 34.2255C34.901 34.265 35.1585 34.2711 35.585 34.2416L36.2689 34.1942L36.1294 34.5799C36.0527 34.7921 35.9712 34.9867 35.9485 35.0125C35.9096 35.0564 33.5923 34.2203 33.5035 34.1302C33.4809 34.1073 33.5797 34.0217 33.7229 33.9401C33.8661 33.8583 34.0135 33.7144 34.0503 33.6201C34.0871 33.5258 34.3085 32.9188 34.5421 32.2711L34.9669 31.0934L34.8724 30.7707C34.8205 30.5933 34.7912 30.448 34.8073 30.448C34.8234 30.448 35.1655 30.5699 35.5675 30.7188ZM17.001 30.8011C17.136 30.8486 17.2556 30.9153 17.2669 30.9494C17.2781 30.9835 17.1146 31.1656 16.9036 31.3541L16.52 31.6967L16.022 31.5268C15.7481 31.4333 15.5083 31.3727 15.4892 31.3921C15.4189 31.4634 15.544 31.7011 15.7139 31.8191C15.8101 31.8859 16.1621 32.0552 16.4961 32.1952C17.5191 32.624 17.8063 32.9302 17.8063 33.5918C17.8063 34.0007 17.5945 34.3319 17.1718 34.5841C16.8886 34.7529 16.8116 34.7674 16.2138 34.7636C15.8563 34.7615 15.4789 34.7233 15.375 34.679L15.1863 34.5984L15.375 34.3966C15.4789 34.2857 15.6698 34.1091 15.7993 34.0044L16.0347 33.8138L16.5901 34.035C17.0894 34.2339 17.1485 34.2447 17.1749 34.1421C17.1911 34.0793 17.1673 33.9387 17.1221 33.8295C17.0553 33.6684 16.8888 33.5535 16.2368 33.2185C15.1141 32.6416 14.9464 32.4608 14.9464 31.8276C14.9464 30.9144 15.9277 30.4242 17.001 30.8011ZM12.5102 31.7906C12.9174 31.9829 13.4049 32.5225 13.5429 32.9333C13.6846 33.3552 13.6757 34.1026 13.525 34.438C13.2094 35.1404 12.7439 35.4215 11.5997 35.6004C11.1703 35.6675 10.7502 35.7228 10.6663 35.7233L10.5136 35.724L10.65 35.4894C10.8224 35.193 10.8217 35.1552 10.6145 33.6466L10.4424 32.3935L10.1859 32.121L9.92924 31.8483L10.5041 31.7699C10.8202 31.7268 11.1082 31.6812 11.1439 31.6686C11.1797 31.6559 11.4283 31.6435 11.6964 31.641C12.0776 31.6374 12.2551 31.67 12.5102 31.7906ZM6.01618 32.0343C6.42197 32.2337 6.8418 32.7353 6.98245 33.1891C7.13871 33.6931 7.08684 34.3568 6.85337 34.8409C6.16659 36.2652 4.17659 36.2722 3.47954 34.853C3.34337 34.5757 3.31165 34.4168 3.31197 34.0129C3.31217 33.7388 3.3422 33.4055 3.37873 33.2722C3.53336 32.7071 4.14123 32.0763 4.70028 31.9007C5.00331 31.8055 5.69288 31.8755 6.01618 32.0343ZM8.8656 32.2075L8.68737 32.516L8.77232 33.9907C8.81899 34.8018 8.8758 35.4771 8.89855 35.4913C8.9213 35.5056 9.19891 35.3704 9.51558 35.191C9.83219 35.0115 10.0973 34.8726 10.1047 34.8821C10.1122 34.8918 10.1359 35.1 10.1574 35.3448C10.1918 35.7355 10.183 35.7905 10.0852 35.7941C10.0241 35.7964 9.43284 35.8365 8.77148 35.8833C8.11012 35.9301 7.55951 35.9606 7.54788 35.9511C7.53624 35.9417 7.60527 35.8136 7.70121 35.6665L7.87567 35.399L7.79338 33.9952L7.71109 32.5914L7.4912 32.3176L7.27137 32.0439L7.97271 32.0011C8.35841 31.9775 8.73248 31.9489 8.80398 31.9376C8.87548 31.9262 8.95868 31.9128 8.9889 31.9079C9.01912 31.9029 8.96362 32.0377 8.8656 32.2075ZM11.4364 32.4241C11.4364 32.6659 11.7012 34.4403 11.7577 34.5769C11.8328 34.7586 12.6605 34.9912 12.7441 34.8541C12.8459 34.687 12.878 34.0869 12.8045 33.7275C12.6732 33.0861 12.2695 32.5987 11.7007 32.3951C11.4525 32.3062 11.4364 32.308 11.4364 32.4241ZM4.36859 32.6024C4.19485 32.9987 4.21546 33.883 4.40863 34.3202C4.67045 34.9127 5.3647 35.4465 5.79044 35.3825C6.10003 35.3359 6.23562 34.2928 6.01761 33.6353C5.82034 33.0404 5.26538 32.5218 4.69177 32.3961C4.49222 32.3524 4.47279 32.3649 4.36859 32.6024Z"></path>
</svg>