<svg xmlns="http://www.w3.org/2000/svg" viewBox="0 0 36 47">
	<path fill="white" fill-rule="evenodd" clip-rule="evenodd" d="M3.87118 40.7982L7.11804 46.2471L10.4548 40.7631C10.4548 40.7631 9.81363 38.1949 9.81363 34.9933C9.81363 30.8957 9.76091 26.7982 9.70819 22.7006C9.66954 19.6965 9.63089 16.6923 9.61301 13.6881C9.61082 13.193 9.71539 12.7032 9.9196 12.2522C10.2657 11.5085 10.5001 11.5094 11.2067 11.5119C11.3254 11.5123 11.4574 11.5128 11.6055 11.5098C11.9318 11.5033 12.5021 12.2545 12.7366 12.5849C12.7502 12.6039 12.7675 12.6197 12.7876 12.6314C12.8077 12.6431 12.8301 12.6504 12.8532 12.6528C12.8763 12.6552 12.8997 12.6527 12.9218 12.6454C12.9439 12.6381 12.9642 12.6263 12.9813 12.6105L13.9588 11.7075C13.9748 11.6926 13.9877 11.6748 13.9967 11.6549C14.0057 11.6351 14.0107 11.6136 14.0113 11.5919C14.0119 11.5701 14.0082 11.5484 14.0003 11.528C13.9924 11.5077 13.9805 11.4892 13.9654 11.4735L12.611 10.0727C12.611 10.0727 10.253 10.0793 9.28321 10.0793C8.82362 10.0793 8.61896 10.1273 8.52913 10.0469C8.43977 9.967 8.46405 9.76003 8.46405 9.25237C8.46405 8.14897 8.39853 6.99491 8.33363 5.85182C8.29138 5.10771 8.2494 4.36825 8.22592 3.65044C8.21818 3.351 8.3182 3.15633 8.46405 2.89082C8.85517 2.1812 8.75635 1.4055 8.15151 0.903652C7.49785 0.360723 6.48284 0.366081 5.86014 0.916154C5.31363 1.39896 5.24993 2.13358 5.6607 2.85272C5.77977 3.06644 5.90776 3.32659 5.89883 3.56055C5.86965 4.31501 5.82295 5.06904 5.77625 5.82307C5.70002 7.05387 5.62379 8.28466 5.62379 9.51728C5.62379 9.57444 5.62455 9.62593 5.62524 9.67231C5.63139 10.0878 5.63148 10.0935 5.02312 10.0935C3.98131 10.0935 1.606 10.1162 1.606 10.1162L0.0938956 11.3169C0.0681551 11.3374 0.0467273 11.3627 0.0308576 11.3915C0.0149878 11.4203 0.00499208 11.4519 0.00144779 11.4846C-0.00209651 11.5173 0.000882427 11.5503 0.0102119 11.5818C0.0195413 11.6133 0.0350344 11.6427 0.0557944 11.6682L0.89519 12.7022C0.918512 12.7312 0.948026 12.7545 0.981559 12.7706C1.01509 12.7866 1.05179 12.7949 1.08897 12.7949C1.12614 12.7949 1.16284 12.7866 1.19638 12.7706C1.22991 12.7545 1.25942 12.7312 1.28274 12.7022C1.63993 12.2528 2.13226 11.6521 2.42516 11.6574C2.59586 11.6607 2.74509 11.6591 2.87729 11.6578C3.6238 11.65 3.82725 11.6479 4.2885 12.5421C4.47721 12.9082 4.50281 13.3678 4.50698 13.7845C4.53198 16.6718 4.53615 24.0835 4.53615 24.0835L3.53602 25.1318L4.5677 26.2201C4.5677 26.2201 4.51234 32.8376 4.51234 35.1552C4.51234 38.8979 3.87118 40.7982 3.87118 40.7982ZM18.5004 23.6168C17.5003 25.851 15.7381 27.1643 13.1622 27.5459C14.582 32.715 17.5307 36.7233 21.7509 39.788C25.9949 42.8693 30.73 44.6898 35.9962 44.9875C32.1689 43.3271 28.7905 41.081 26.0044 37.9342C23.3386 34.923 21.1651 31.0904 19.6649 27.3661C19.6402 27.3049 19.8395 27.1242 20.1705 26.8243C21.4268 25.6857 24.5798 22.8281 24.5798 18.2577C24.5798 10.6258 16.2007 10.0096 13.6016 10.0971C13.5777 10.0977 14.563 11.1157 14.8517 11.4134C14.8735 11.4351 14.886 11.4644 14.8867 11.4951C14.8874 11.5258 14.8761 11.5556 14.8553 11.5783C14.7889 11.6515 14.702 11.755 14.6034 11.8723C14.4431 12.0631 14.252 12.2907 14.0677 12.4849C14.2137 12.5745 14.407 12.6522 14.6009 12.7303C14.7953 12.8085 14.9903 12.887 15.1393 12.9779C18.6874 15.1329 20.1983 19.8264 18.5004 23.6168Z"></path>
</svg>