<svg xmlns="http://www.w3.org/2000/svg" viewBox="1.5 29.999996185302734 295.5 240">
    <g transform="translate(0.000000,270.000000) scale(0.100000,-0.100000)" fill="#327cbc" stroke="none">
        <path d="M755 1660 l-740 -740 297 0 298 0 2 -450 3 -450 735 735 c404 404 739 735 745 735 12 0 345 -331 345 -343 0 -4 -61 -7 -135 -7 l-135 0 0 -460 0 -460 -510 0 -510 0 0 -110 0 -110 615 0 615 0 0 460 0 460 295 0 c162 0 295 3 295 7 0 4 -159 166 -352 360 -194 194 -355 358 -357 364 -4 14 310 330 321 323 4 -3 8 -81 8 -175 l0 -169 105 0 105 0 0 365 0 365 -365 0 -365 0 0 -110 0 -110 175 0 c96 0 175 -3 175 -7 -1 -5 -72 -80 -160 -168 l-160 -160 -297 298 c-164 163 -300 297 -303 297 -3 0 -338 -333 -745 -740z m970 210 l220 -220 -549 -549 c-303 -303 -553 -548 -558 -545 -4 3 -8 135 -8 295 l0 289 -135 0 c-74 0 -135 3 -135 7 0 9 932 943 940 943 3 0 104 -99 225 -220z"></path>
    </g>
</svg>
