<svg version="1.2" baseProfile="tiny-ps" xmlns="http://www.w3.org/2000/svg" viewBox="0 0 1515 1308" width="1515" height="1308">
	<title>sony logo-svg</title>
	<style>
		tspan { white-space:pre }
		.shp0 { fill: #000000 } 
	</style>
	<g id="Layer">
		<path id="Layer" class="shp0" d="M685.1 2.87C540.61 2.87 376.41 29.96 236.97 92.35C108.25 149.91 2.85 242.95 2.85 397.22C2.78 536.15 90.94 617.5 88.53 615.29C126.04 649.86 186.4 708.74 344.19 743.36C414.74 758.79 565.52 782.49 715.7 798.27C864.71 814 1011.43 828.94 1071.13 844.12C1118.6 856.22 1198.41 872.72 1198.41 962.3C1198.41 1051.57 1114.4 1078.82 1099.78 1084.67C1085.18 1090.52 984.39 1136.8 803.26 1136.8C669.51 1136.8 508.74 1096.49 450.11 1075.52C382.58 1051.42 311.69 1019.55 245.59 938.69C229.14 918.58 203.22 863.47 203.22 808.85L39.24 808.85L39.24 1269.07L221.51 1269.07C221.51 1269.07 221.51 1218.59 221.51 1206.86C221.51 1199.79 230.31 1170.64 260.91 1184.54C298.99 1201.87 410.71 1246.43 527.53 1270.88C623.32 1290.9 685.1 1305.28 804.17 1305.28C998.46 1305.28 1102.85 1273.63 1175.01 1252.96C1243 1233.5 1326.97 1198.46 1395.25 1143.94C1432.16 1114.48 1513.2 1038.9 1513.2 901.74C1513.2 770.15 1442.7 688.44 1417.88 663.58C1384.1 629.73 1342.79 603.42 1299.77 583.19C1262.32 565.54 1203.15 544.33 1154.77 532.45C1060.83 509.34 848.45 480.86 746.84 470.22C640.37 459.06 455.58 443.72 381.8 420.83C359.42 413.88 313.87 392.11 313.87 339.12C313.87 301.38 334.69 269.39 375.91 243.53C441.34 202.49 573.5 176.91 711.3 176.91C874.16 176.34 1012.12 213.67 1099.87 252.93C1129.75 266.27 1164.61 285.48 1192.37 308.16C1223.63 333.73 1267.64 386.81 1283.48 460.9L1430.68 460.9L1430.68 60.3L1266.33 60.3L1266.33 106.83C1266.33 121.9 1250.85 141.43 1221.57 125.25C1148 86.64 940.01 3.23 685.1 2.87Z" />
	</g>
</svg>