<svg viewBox="0 0 39 29" version="1.1" xmlns="http://www.w3.org/2000/svg" xmlns:xlink="http://www.w3.org/1999/xlink" xml:space="preserve" xmlns:serif="http://www.serif.com/" style="fill-rule:evenodd;clip-rule:evenodd;stroke-linejoin:round;stroke-miterlimit:2;">
    <g transform="matrix(1,0,0,1,0,-5.15995e-05)">
        <g transform="matrix(1,0,0,1,-1,-11)">
            <path d="M34.116,20.902C32.988,20.763 31.879,20.693 30.815,20.696C27.362,20.704 21.461,21.798 21.461,26.388L22.563,26.602C22.549,26.801 22.549,27.001 22.563,27.199L22.563,28.241L21.461,28.163C21.754,32.306 24.182,33.451 26.469,33.512C27.563,33.512 28.593,33.395 29.602,32.93C29.636,32.914 29.664,32.886 29.681,32.851C29.698,32.816 29.702,32.776 29.693,32.737C29.684,32.7 29.663,32.666 29.633,32.642C29.603,32.619 29.566,32.607 29.528,32.608C27.419,32.915 25.261,31.203 25.261,27.571C25.261,22.975 28.919,21.208 34.161,21.208C34.279,21.224 34.294,20.933 34.116,20.902ZM22.631,29.051L24.385,29.051C24.528,30.284 25.022,31.718 25.904,32.562C25.082,32.458 24.319,32.067 23.741,31.454C23.163,30.841 22.709,29.902 22.631,29.051ZM24.583,25.177C24.583,25.33 24.464,25.606 24.405,25.882L23.707,25.882C23.334,25.864 22.962,25.823 22.593,25.759C22.598,25.724 22.598,25.687 22.593,25.652C23.053,23.185 25.414,22.158 27.701,21.729C26.965,22.028 26.303,22.492 25.764,23.089C25.224,23.685 24.821,24.398 24.583,25.177Z" style="fill:rgb(46,51,64);fill-rule:nonzero;"/>
        </g>
        <g transform="matrix(1,0,0,1,-1,-11)">
            <path d="M36.499,17.229C31.874,15.887 12.4,14.259 12.4,25.504C13.056,25.6 13.511,25.748 13.862,25.796C13.815,26.652 13.862,27.59 13.862,28.459L12.108,28.163C12.108,34.673 16.688,36.725 20.301,36.725C20.898,36.722 21.494,36.679 22.085,36.597C23.574,36.426 25.017,35.959 26.339,35.22C26.368,35.198 26.39,35.168 26.401,35.133C26.413,35.098 26.413,35.06 26.403,35.025C26.393,34.99 26.373,34.958 26.345,34.936C26.317,34.913 26.283,34.901 26.247,34.9C23.198,35.54 19.021,34.675 19.021,27.119C19.021,17.065 32.596,17.726 36.545,17.566C36.579,17.55 36.606,17.524 36.624,17.49C36.642,17.456 36.649,17.417 36.644,17.379C36.639,17.341 36.622,17.306 36.596,17.279C36.57,17.252 36.536,17.234 36.499,17.229ZM20.317,35.876C18.563,35.993 16.834,35.391 15.495,34.196C14.156,33.002 13.31,31.308 13.136,29.472C14.294,29.632 15.773,29.761 17.008,29.825C17.07,31.089 17.447,32.314 18.103,33.376C18.759,34.439 19.669,35.301 20.744,35.876L20.317,35.876ZM17.481,23.725C17.389,24.077 17.252,24.702 17.13,25.246L15.301,25.054L13.456,24.814C13.456,18.935 22.631,16.918 26.139,16.918C21.382,18.087 18.258,20.491 17.481,23.677L17.481,23.725Z" style="fill:rgb(46,51,64);fill-rule:nonzero;"/>
        </g>
        <g transform="matrix(1,0,0,1,-1,-11)">
            <path d="M38.879,13.904C33.244,11.907 26.851,10.925 20.877,11.005C12.241,11.005 1.292,13.668 1,22.841L3.338,23.433C3.046,24.617 3.046,26.984 3.046,26.984C3.046,26.984 1.713,26.575 1,26.392C1,37.243 7.131,40 13.032,40C15.415,40.007 17.779,39.578 20.009,38.733C20.044,38.717 20.073,38.689 20.09,38.654C20.107,38.619 20.111,38.58 20.102,38.542C20.093,38.504 20.072,38.47 20.041,38.447C20.01,38.423 19.972,38.411 19.933,38.413C18.098,38.413 16.642,39.023 13.729,36.887C8.071,32.782 8.769,22.099 15.246,17.445C21.92,12.531 36.346,14.057 38.818,14.209C38.838,14.213 38.858,14.213 38.878,14.209C38.898,14.205 38.917,14.197 38.934,14.186C38.951,14.175 38.966,14.16 38.977,14.143C38.988,14.126 38.996,14.107 39,14.087C39.004,14.067 39.004,14.046 39,14.026C38.996,14.006 38.988,13.987 38.977,13.97C38.966,13.953 38.951,13.939 38.934,13.927C38.917,13.916 38.899,13.908 38.879,13.904ZM13.092,39.084C6.084,39.084 2.503,35.145 2.169,27.576C4.072,28.073 5.867,28.568 7.814,28.844C7.696,31.811 8.711,34.71 10.65,36.948C11.642,37.945 12.86,38.684 14.2,39.1L13.092,39.084ZM28.974,12.729C20.433,12.729 10.539,13.801 8.6,23.433C8.6,23.433 3.338,22.545 2.169,22.249C3.631,10.117 23.8,11.032 31.985,12.729L28.974,12.729Z" style="fill:rgb(46,51,64);fill-rule:nonzero;"/>
        </g>
    </g>
</svg>