<svg xmlns:xlink="http://www.w3.org/1999/xlink"
  xmlns="http://www.w3.org/2000/svg" viewBox="-0.00000286102294921875 2.0000009536743164 32.000003814697266 32">
  <g fill="none" fill-rule="evenodd" transform="translate(0 2)">
    <path fill="#F7578C" d="M19.9978604,1.05457478 C31.5962188,4.16759596 33.6583755,9.76840829 30.9202182,20.0046146 C28.182061,30.2408209 23.6004979,34.0584464 12.0021396,30.9454252 C0.403781249,27.832404 -1.65837547,22.2315917 1.07978177,11.9953854 C3.817939,1.75917906 8.3995021,-2.05844639 19.9978604,1.05457478 Z"></path>
    <path fill="#FFF" d="M3.01357681,11.1746032 C1.54183651,8.09304546 1.47500454,5.07092644 3.27296549,3.27296549 C5.07092644,1.47500454 8.09304546,1.54183651 11.1746032,3.01357681 C14.2561609,1.54183651 17.2782799,1.47500454 19.0762409,3.27296549 C20.8742018,5.07092644 20.8073698,8.09304546 19.3356295,11.1746032 C20.8073698,14.2561609 20.8742018,17.2782799 19.0762409,19.0762409 C17.2782799,20.8742018 14.2561609,20.8073698 11.1746032,19.3356295 C8.09304546,20.8073698 5.07092644,20.8742018 3.27296549,19.0762409 C1.47500454,17.2782799 1.54183651,14.2561609 3.01357681,11.1746032 Z M4.45796849,8.75207162 C5.03061803,7.95515432 5.69195143,7.1752897 6.43362057,6.43362057 C7.1752897,5.69195143 7.95515432,5.03061803 8.75207162,4.45796849 C7.07868768,3.95072223 5.64489185,4.06169421 4.85329303,4.85329303 C4.06169421,5.64489185 3.95072223,7.07868768 4.45796849,8.75207162 Z M17.8912379,13.5971347 C17.3185883,14.394052 16.6572549,15.1739167 15.9155858,15.9155858 C15.1739167,16.6572549 14.394052,17.3185883 13.5971347,17.8912379 C15.2705187,18.3984841 16.7043145,18.2875121 17.4959133,17.4959133 C18.2875121,16.7043145 18.3984841,15.2705187 17.8912379,13.5971347 Z M4.45796849,13.5971347 C3.95072223,15.2705187 4.06169421,16.7043145 4.85329303,17.4959133 C5.64489185,18.2875121 7.07868768,18.3984841 8.75207162,17.8912379 C7.95515432,17.3185883 7.1752897,16.6572549 6.43362057,15.9155858 C5.69195143,15.1739167 5.03061803,14.394052 4.45796849,13.5971347 Z M5.54454992,11.1746032 C6.16864691,12.236581 6.99599105,13.3173012 8.0139481,14.3352582 C9.03190516,15.3532153 10.1126254,16.1805594 11.1746032,16.8046564 C12.236581,16.1805594 13.3173012,15.3532153 14.3352582,14.3352582 C15.3532153,13.3173012 16.1805594,12.236581 16.8046564,11.1746032 C16.1805594,10.1126254 15.3532153,9.03190516 14.3352582,8.0139481 C13.3173012,6.99599105 12.236581,6.16864691 11.1746032,5.54454992 C10.1126254,6.16864691 9.03190516,6.99599105 8.0139481,8.0139481 C6.99599105,9.03190516 6.16864691,10.1126254 5.54454992,11.1746032 Z M13.5971347,4.45796849 C14.394052,5.03061803 15.1739167,5.69195143 15.9155858,6.43362057 C16.6572549,7.1752897 17.3185883,7.95515432 17.8912379,8.75207162 C18.3984841,7.07868768 18.2875121,5.64489185 17.4959133,4.85329303 C16.7043145,4.06169421 15.2705187,3.95072223 13.5971347,4.45796849 Z" transform="translate(5 5)"></path>
  </g>
</svg>