<svg viewBox="0 0 24 24" xmlns="http://www.w3.org/2000/svg">
    <!--
    Developed by Vivaldi Technologies
    https://creativecommons.org/licenses/by/4.0/
    Removed width/height attributes, words, and whitespace with https://jsfiddle.net/u9x423ph/2/
    -->
    <path fill-rule="evenodd" clip-rule="evenodd"
          d="M12 24C17.2584 24 20.1818 24 22.0907 22.0907C24 20.1814 24 17.258 24 12C24 6.74161 24 3.8182 22.0907 1.90928C20.1818 0 17.2584 0 12 0C6.74161 0 3.81856 0 1.90928 1.90928C0 3.8182 0 6.74161 0 12C0 17.258 0 20.1814 1.90928 22.0907C3.81856 24 6.74161 24 12 24Z"
          fill="#4C70F0"></path>
    <path fill-rule="evenodd" clip-rule="evenodd"
          d="M17.6601 9.70673C16.1922 12.2611 14.7228 14.8137 13.257 17.3692C12.9848 17.8438 12.589 18.1311 12.0459 18.1705C11.4373 18.2145 10.9595 17.9577 10.6529 17.4297C9.72403 15.8289 8.80558 14.2216 7.88319 12.6172C7.32224 11.6407 6.75913 10.6657 6.20069 9.6881C5.63722 8.70195 6.27269 7.50339 7.40319 7.44536C8.00033 7.41455 8.46063 7.69001 8.76367 8.20942C9.17776 8.91974 9.58433 9.63437 9.99412 10.3468C10.2896 10.8602 10.5791 11.3771 10.8832 11.885C11.3231 12.6222 11.97 13.0381 12.8308 13.0897C14.0494 13.1624 15.181 12.2787 15.3268 10.9805C15.3379 10.8831 15.345 10.7864 15.3493 10.7366C15.3429 10.3164 15.2644 9.96249 15.0979 9.62864C14.643 8.71556 15.1276 7.69252 16.117 7.47294C16.9226 7.29455 17.7561 7.88774 17.8629 8.70697C17.9095 9.06697 17.8385 9.39688 17.6601 9.70673ZM18.1932 5.60882C14.7175 2.13025 9.08248 2.13025 5.60678 5.60882C2.13107 9.08739 2.13107 14.7274 5.60678 18.2056C9.08248 21.6842 14.7175 21.6842 18.1932 18.2056C21.6689 14.7274 21.6689 9.08739 18.1932 5.60882Z"
          fill="white"></path>
</svg>