<?xml version="1.0" encoding="utf-8"?>
<!-- Generator: Adobe Illustrator 21.1.0, SVG Export Plug-In . SVG Version: 6.00 Build 0)  -->
<!DOCTYPE svg PUBLIC "-//W3C//DTD SVG 1.1//EN" "http://www.w3.org/Graphics/SVG/1.1/DTD/svg11.dtd">
<svg version="1.1" id="Layer_1" xmlns="http://www.w3.org/2000/svg" xmlns:xlink="http://www.w3.org/1999/xlink" x="0px" y="0px"
	 viewBox="0 0 512 512" style="enable-background:new 0 0 512 512;" xml:space="preserve">
<style type="text/css">
	.st0{fill:#EF3939;}
	.st1{fill:url(#SVGID_1_);}
	.st2{fill:#FFFFFF;}
</style>
<path class="st0" d="M256,483.3c99.7,0,155.1,0,191.4-36.1c36.2-36.1,36.2-91.3,36.2-190.7s0-154.6-36.2-190.7
	C411.1,29.8,355.7,29.8,256,29.8s-155.1,0-191.4,36.1c-36.2,36.1-36.2,91.3-36.2,190.7s0,154.6,36.2,190.7
	C100.9,483.3,156.3,483.3,256,483.3z"/>
<g>
	<linearGradient id="SVGID_1_" gradientUnits="userSpaceOnUse" x1="170.6994" y1="109.3894" x2="387.5957" y2="485.0648">
		<stop  offset="0" style="stop-color:#000000;stop-opacity:0.2"/>
		<stop  offset="0.7908" style="stop-color:#000000;stop-opacity:5.000000e-02"/>
	</linearGradient>
	<path class="st1" d="M404,172.7c-21.8-38.1-58.3-67.8-104.2-80.1c-91.1-24.3-184.7,29.5-209.1,120.2
		c-12.3,45.6-4.7,91.9,17.5,129.7c0.3,0.5,0.6,1.1,1,1.6l80.2,138.5c13.3,0.4,27.7,0.5,43.2,0.5c0,0,0.1,0,0.1,0c1.4,0,2.8,0,4.2,0
		c0,0,0.1,0,0.1,0c2.8,0,5.7,0,8.7,0c0.3,0,0.5,0,0.8,0c2.9,0,5.7,0,8.7,0c44.3,0,79.9,0,109-3.2c36.3-4,62.3-12.9,82.4-32.9
		c29.3-29.2,34.9-71,36-138.7C435.8,227.5,404.1,172.8,404,172.7z"/>
</g>
<path class="st2" d="M375.8,136.6c-66.5-66.4-174.4-66.4-241,0c-66.5,66.4-66.5,174,0,240.3c66.5,66.4,174.4,66.4,241,0
	C442.4,310.5,442.4,202.9,375.8,136.6z M365.6,214.7c-28.1,48.7-56.2,97.4-84.3,146.2c-5.2,9.1-12.8,14.5-23.2,15.3
	c-11.6,0.8-20.8-4.1-26.7-14.1c-17.8-30.5-35.4-61.2-53-91.8c-10.7-18.6-21.5-37.2-32.2-55.9c-10.8-18.8,1.4-41.7,23-42.8
	c11.4-0.6,20.2,4.7,26,14.6c7.9,13.5,15.7,27.2,23.6,40.8c5.7,9.8,11.2,19.7,17,29.3c8.4,14.1,20.8,22,37.3,23
	c23.3,1.4,45-15.5,47.8-40.2c0.2-1.8,0.3-3.7,0.4-4.6c-0.1-8-1.6-14.8-4.8-21.1c-8.7-17.4,0.6-36.9,19.5-41.1
	c15.4-3.4,31.4,7.9,33.4,23.5C370.4,202.5,369,208.8,365.6,214.7z"/>
</svg>
