<?xml version="1.0" encoding="utf-8"?>
<!-- Created by UniConvertor 2.0rc5 (https://sk1project.net/) -->
<svg xmlns="http://www.w3.org/2000/svg" height="512.0px" width="512.0px" version="1.1" xmlns:xlink="http://www.w3.org/1999/xlink" id="bd9c5da4-ea8d-11ed-ae71-0242ac120007">
<defs id="defs1">
	<linearGradient y2="485.0648" spreadMethod="pad" gradientUnits="userSpaceOnUse" x2="387.5957" y1="109.3894" x1="170.6994" id="grad1">
		<stop style="stop-color:#000000;stop-opacity:0.2;" offset="0.0" />
		<stop style="stop-color:#000000;stop-opacity:0.05;" offset="0.7908" />
	</linearGradient>
</defs>
<g>
	<path style="fill:#ef3939;" d="M 256.0,483.3 C 355.7,483.3 411.1,483.3 447.4,447.2 483.6,411.1 483.6,355.9 483.6,256.5 483.6,157.1 483.6,101.9 447.4,65.8 411.1,29.8 355.7,29.8 256.0,29.8 156.3,29.8 100.9,29.8 64.6,65.9 28.4,102.0 28.4,157.2 28.4,256.6 28.4,356.0 28.4,411.2 64.6,447.3 100.9,483.3 156.3,483.3 256.0,483.3 Z" />
	<path style="fill:url(#grad1);" d="M 404.0,172.7 C 382.2,134.6 345.7,104.9 299.8,92.6 208.7,68.3 115.1,122.1 90.7,212.8 78.4,258.4 86.0,304.7 108.2,342.5 108.5,343.0 108.8,343.6 109.2,344.1 L 189.4,482.6 C 202.7,483.0 217.1,483.1 232.6,483.1 232.6,483.1 232.7,483.1 232.7,483.1 234.1,483.1 235.5,483.1 236.9,483.1 236.9,483.1 237.0,483.1 237.0,483.1 239.8,483.1 242.7,483.1 245.7,483.1 246.0,483.1 246.2,483.1 246.5,483.1 249.4,483.1 252.2,483.1 255.2,483.1 299.5,483.1 335.1,483.1 364.2,479.9 400.5,475.9 426.5,467.0 446.6,447.0 475.9,417.8 481.5,376.0 482.6,308.3 435.8,227.5 404.1,172.8 404.0,172.7 Z" />
	<path style="fill:#ffffff;" d="M 375.8,136.6 C 309.3,70.2 201.4,70.2 134.8,136.6 68.3,203.0 68.3,310.6 134.8,376.9 201.3,443.3 309.2,443.3 375.8,376.9 442.4,310.5 442.4,202.9 375.8,136.6 Z M 365.6,214.7 C 337.5,263.4 309.4,312.1 281.3,360.9 276.1,370.0 268.5,375.4 258.1,376.2 246.5,377.0 237.3,372.1 231.4,362.1 213.6,331.6 196.0,300.9 178.4,270.3 167.7,251.7 156.9,233.1 146.2,214.4 135.4,195.6 147.6,172.7 169.2,171.6 180.6,171.0 189.4,176.3 195.2,186.2 203.1,199.7 210.9,213.4 218.8,227.0 224.5,236.8 230.0,246.7 235.8,256.3 244.2,270.4 256.6,278.3 273.1,279.3 296.4,280.7 318.1,263.8 320.9,239.1 321.1,237.3 321.2,235.4 321.3,234.5 321.2,226.5 319.7,219.7 316.5,213.4 307.8,196.0 317.1,176.5 336.0,172.3 351.4,168.9 367.4,180.2 369.4,195.8 370.4,202.5 369.0,208.8 365.6,214.7 Z" />
</g>
</svg>