<svg xmlns="http://www.w3.org/2000/svg" version="1.0" viewBox=".53 .42 510.95 511.06">
  <g fill="#2895b0">
    <path d="M231.5 1.1C171.6 7.3 117 33.1 75 75c-40.2 40.3-64.8 90.4-73.2 149.5-1.7 11.8-1.7 51.2 0 63 8.4 59.1 33 109.2 73.2 149.5 40.3 40.2 90.4 64.8 149.5 73.2 11.8 1.7 51.2 1.7 63 0 59.1-8.4 109.1-32.9 149.5-73.2 40.3-40.4 64.8-90.4 73.2-149.5 1.7-11.8 1.7-51.2 0-63-8.4-59.1-33-109.2-73.2-149.5-39.4-39.3-88.3-63.8-145-72.5-12.6-1.9-47.7-2.8-60.5-1.4zm50 23.9c68.5 7.7 130.1 45.3 168.3 102.9 20.6 31.2 33.4 66.8 37.3 104.2 1.6 15.6.6 49.1-2 62.9-5.8 31.5-16.7 59.9-32.6 84.9-38.4 60.5-101.6 99.8-172.6 107.2-15.6 1.6-49.1.6-62.9-2-49.5-9.1-90.4-30.4-125.1-65-35.2-35.3-56.3-76.4-65.5-127.6-2.6-14.4-2.6-58.6 0-73 9.2-51.4 30.3-92.3 65.5-127.6 30.7-30.6 66.5-51 108.1-61.4 8.8-2.2 24.8-5 33-5.8 8.1-.8 40.2-.6 48.5.3z"/>
    <path d="M375.6 180.6C348.2 209.9 325.4 234 325 234c-.5 0-11.8-19.1-25.2-42.5-13.3-23.3-24.6-42.5-25-42.5s-16.8 19.5-36.4 43.2c-19.7 23.8-37 44.8-38.6 46.6l-2.8 3.3-19.7-30.1c-10.9-16.5-20.1-29.9-20.5-29.7-.6.1-89.1 128.2-98.5 142.4-1.3 1.9-1.1 2.8 1.3 8.5 28.7 68.6 88 116.2 160.4 128.8 49.7 8.6 102.3-1.4 145.5-27.8 35.5-21.6 64.4-53.9 82.2-92 18.7-39.8 24.1-88.9 14.8-132.8-5.6-26.9-18.4-56.1-33.7-77.6l-3.4-4.7-49.8 53.5z"/>
  </g>
</svg>