<svg xmlns="http://www.w3.org/2000/svg" width="80" height="81" viewBox="0 0 80 81"><g fill="none" fill-rule="evenodd"><path fill="#FFF" d="M71.864 16.021l.11.068.112.072.09.091.084.112.063.111.047.132.028.12.008.139-.008.131-.241 1.65-.21 1.319-.036.183-.202 1.124-.261 1.31-.277 1.307-.302 1.291-.324 1.3-.353 1.29-.356 1.28-.396 1.27-.404 1.271-.432 1.263-.444 1.251-.482 1.244-.488 1.235-.515 1.235-.526 1.223-.55 1.207-.583 1.208-.59 1.183-.61 1.191L63.183 45l-10.345-8.738-2.867-2.423 20.927-17.678.201-.128.12-.048.126-.027.13-.012h.131l.127.031zM59.27 51.387l-1.505 2.14-.793 1.067-.811 1.052-.828 1.048-.84 1.016-.867 1.024-.875.992-.895.984-.911.965-.92.956-.95.936-.958.92-.97.909-.982.889-1.006.872-1.01.857-1.038.833-1.042.816-1.057.81-1.07.776h-.007l-2.091-1.558-1.041-.813-1.035-.836-1.01-.857-1.005-.873-.987-.888-.978-.9-.958-.929-.939-.936-.93-.949-.915-.964-.891-.984-.876-1-.867-1.012-.84-1.032-.827-1.036-.812-1.06-.792-1.068-.772-1.075-.757-1.092 12.159-10.284 2.867-2.422 1.928 1.633.223.168.23.155.237.143.25.112.257.1.269.075.265.056.278.048.368.016.27-.016.276-.032.274-.044.261-.076.266-.091.249-.112.237-.131.242-.148.293-.223 1.93-1.633 2.866 2.422zM8.984 16.16l20.923 17.68-2.867 2.422L16.695 45l-.792-1.466-.61-1.188-.578-1.195-.574-1.207-.543-1.22-.534-1.21-.507-1.236-.487-1.243-.46-1.243-.443-1.263-.432-1.263-.396-1.267-.388-1.271-.36-1.283-.341-1.287-.313-1.303-.305-1.3-.265-1.298-.258-1.307-.138-.8-.092-.519-.213-1.319-.187-1.315v-.243l.032-.131.036-.128.063-.111.071-.112.096-.091.11-.084.111-.064.12-.048.126-.027.13-.012h.14l.13.031.119.044.118.068zM63.919 12.364l-23.976 20.26-23.984-20.26 1.318-.49 1.153-.399 1.152-.383 1.169-.358 1.172-.335 1.168-.323 1.18-.29 1.189-.275 1.188-.255 1.196-.231 1.2-.212 1.196-.187 1.208-.167 1.208-.14 1.208-.12 1.216-.103 1.215-.075 1.216-.052 1.208-.04 1.224-.008 1.402.02 1.216.036 1.216.055 1.215.084 1.208.104 1.209.12 1.207.147 1.208.167 1.204.195 1.196.215 1.192.228 1.188.255 1.188.274 1.18.311 1.169.315 1.172.343 1.16.358 1.153.383 1.152.406z"/><path fill="#E74C3C" d="M27.04 36.262l2.867-2.423L8.984 16.161l-.103-.072-.118-.068-.119-.044-.13-.032h-.14l-.13.012-.127.028-.119.048-.11.064-.112.084-.095.091-.07.112-.064.111-.036.128-.032.131v.243l.187 1.315.213 1.32.092.517.138.8.258 1.308.265 1.299.305 1.299.313 1.302.34 1.287.361 1.283.388 1.271.396 1.267.432 1.264.443 1.263.46 1.243.487 1.243.507 1.235.535 1.211.542 1.22.574 1.207.578 1.195.61 1.187.792 1.467 10.345-8.738zm30.725 17.264l1.505-2.14-12.163-10.283-2.867-2.423-1.929 1.634-.293.223-.242.148-.237.131-.25.112-.265.091-.261.076-.274.044-.277.032-.27.016-.368-.016-.277-.048-.265-.056-.269-.076-.258-.1-.25-.11-.237-.144-.23-.156-.221-.167-1.93-1.634-2.866 2.423-12.159 10.284.757 1.091.772 1.076.792 1.068.812 1.06.828 1.036.84 1.032.866 1.012.876 1 .89.984.916.964.93.949.939.936.958.928.979.9.986.89 1.006.872 1.01.856 1.033.837 1.042.813 2.091 1.558h.008l1.07-.777 1.057-.809 1.041-.817 1.038-.832 1.01-.857 1.006-.873.982-.888.97-.909.959-.92.95-.936.919-.957.91-.964.896-.984.875-.992.867-1.024.84-1.016.828-1.048.811-1.052.793-1.068zM39.943 32.624l23.976-20.26-1.14-.427-1.153-.406-1.153-.383-1.16-.358-1.172-.343-1.169-.315-1.18-.31-1.187-.275-1.189-.255-1.192-.228-1.196-.215-1.204-.195-1.208-.167-1.207-.148-1.209-.12-1.208-.103-1.215-.084-1.216-.055-1.216-.036-1.402-.02-1.224.008-1.208.04-1.216.052-1.215.075-1.216.104-1.208.12-1.208.139-1.208.167-1.196.187-1.2.212-1.196.23-1.188.256-1.188.275-1.18.29-1.169.323-1.172.335-1.169.358-1.152.383-1.152.398-1.319.49 23.984 20.261zm32.464-15.758l-.009-.14-.028-.12-.047-.13-.063-.112-.083-.112-.092-.091-.11-.072-.111-.068-.13-.044-.128-.032h-.13l-.131.012-.127.028-.119.048-.202.128L49.97 33.839l2.868 2.423L63.183 45l.633-1.168.61-1.191.59-1.183.582-1.208.55-1.207.527-1.223.515-1.235.487-1.235.484-1.244.443-1.25.432-1.264.404-1.27.396-1.272.356-1.279.353-1.29.325-1.3.3-1.29.278-1.308.261-1.31.202-1.124.036-.183.21-1.32.241-1.649.009-.131zm7.373-.148v.427l-.031.426-.044.418-.332 2.272-.238 1.378-.25 1.37-.277 1.371-.305 1.367-.313 1.363-.34 1.354-.369 1.347-.388 1.343-.404 1.339-.423 1.326-.452 1.327-.46 1.32-.498 1.306-.507 1.299-.535 1.29-.554 1.28-.57 1.279-.59 1.263-.619 1.251-.625 1.247-.654 1.231-.673 1.228-.69 1.215-.712 1.195-.729 1.191-.744 1.176-.765 1.171-.792 1.148-.803 1.14-.82 1.123-.84 1.115-.856 1.104-.875 1.084-.89 1.068-.908 1.06-.93 1.047-.94 1.02-.958 1.013-.974 1.004-.986.972-1.006.964-1.022.956-1.033.929-1.05.92-1.07.889-1.08.88-1.086.865-1.104.844-1.125.825-1.133.809-1.14.797-1.164.773-1.161.749-1.913-1.255-1.153-.777-1.144-.797-1.125-.825-1.108-.836-1.093-.865-1.09-.869-1.065-.892-1.054-.909-1.041-.92-1.03-.948-1.006-.957-.994-.972-.986-.992-.958-1.012-.951-1.02-.93-1.032-.912-1.056-.902-1.068-.876-1.075-.867-1.096L16.9 58.9l-.831-1.123-.8-1.132-.796-1.151-.773-1.16-.756-1.167-.736-1.192-.718-1.195-.7-1.207-.674-1.223-.665-1.228-.634-1.243-.617-1.25-.61-1.264-.571-1.27-.562-1.28-.543-1.283-.518-1.299-.495-1.307-.48-1.307-.452-1.326-.435-1.327-.412-1.335-.396-1.339-.368-1.342-.353-1.36-.32-1.354-.314-1.362-.277-1.375-.265-1.37-.242-1.375-.221-1.383-.195-1.383-.063-.796-.011-.419.02-.43.035-.414.055-.419.088-.414.09-.423.115-.386.004-.012.147-.398.158-.39.182-.391.195-.37.221-.363.23-.34.258-.346.269-.323.285-.306.305-.3.313-.278.333-.267.34-.24.349-.234.372-.211 2.23-1.164L7.84 7.79l1.153-.537 1.168-.518 1.172-.514 1.188-.47 1.188-.467 1.2-.442 1.204-.418 1.22-.399 1.212-.378 1.227-.355 1.237-.335 1.235-.314 1.243-.3 1.244-.266 1.251-.251 1.256-.235 1.26-.2 1.263-.187 1.263-.167 1.272-.14 1.27-.12 1.272-.103 1.275-.075 1.28-.052 1.271-.04 1.279-.008 2.515.048 1.271.052 1.275.075 1.271.092 1.272.123 1.271.14 1.264.167 1.263.184 1.26.207 1.255.227 1.251.255 1.256.267 1.231.299 1.244.314 1.228.335 1.223.35 1.228.383 1.204.399 1.208.414 1.2.446 1.196.454 1.18.487 1.18.502 1.16.514 1.161.55 1.141.557 1.144.582 1.125.598.681.414.34.243.333.26.313.278.306.299.284.303.278.326.25.331.237.355.222.362.202.37.182.383.159.387.15.402.02.064v.004l.095.33.106.415.08.41.067.419.036.426.02.418z"/><path fill="#000" d="M78.33 14.342l-.227-.177-.241-.167-.25-.147-.258-.131-.267-.111-.277-.092-.276-.065-.286-.056-.284-.027-.296-.01-.286.01-.283.036-.287.047-.286.075-.277.092-.257.11-.267.141-.24.148-.404.298-2.184 1.847L49.97 33.838l-5.732 4.842-1.926 1.634-.294.223-.24.147-.24.131-.248.111-.267.092-.26.076-.274.045-.277.03-.27.016-.368-.016-.276-.046-.267-.056-.267-.075-.257-.101-.251-.112-.237-.14-.231-.158-.222-.167-1.926-1.634-5.732-4.842L8.984 16.163 6.8 14.316l-.232-.177-.24-.167-.248-.15-.257-.119-.277-.11-.276-.086-.277-.065-.286-.056-.287-.017-.293-.01-.286.017-.287.03-.286.065-.283.072-.27.095-.267.121-.257.128-.248.157-.23.167-.378.334 6.623 5.596.01.006L27.04 36.261l5.731 4.842 2.425 2.05.306.242.312.233.323.203.341.196.342.174.358.15.361.138.368.121.378.092.377.075.378.066.387.036.514.019.38-.02.385-.025.387-.047.378-.075.38-.091.368-.112.359-.13.36-.148.349-.167.332-.187.332-.196.322-.223.407-.324 2.424-2.05 5.732-4.842 19.076-16.114.006-.006 6.623-5.596z" opacity=".12"/><path fill="#FFF" d="M71.864 16.021l.11.068.112.072.09.091.084.112.063.111.047.132.028.12.008.139-.008.131-.241 1.65-.21 1.319-.036.183-.202 1.124-.261 1.31-.277 1.307-.302 1.291-.324 1.3-.353 1.29-.356 1.28-.396 1.27-.404 1.271-.432 1.263-.444 1.251-.482 1.244-.488 1.235-.515 1.235-.526 1.223-.55 1.207-.583 1.208-.59 1.183-.61 1.191L63.183 45l-10.345-8.738-2.867-2.423 20.927-17.678.201-.128.12-.048.126-.027.13-.012h.131l.127.031zM59.27 51.387l-1.505 2.14-.793 1.067-.811 1.052-.828 1.048-.84 1.016-.867 1.024-.875.992-.895.984-.911.965-.92.956-.95.936-.958.92-.97.909-.982.889-1.006.872-1.01.857-1.038.833-1.042.816-1.057.81-1.07.776h-.007l-2.091-1.558-1.041-.813-1.035-.836-1.01-.857-1.005-.873-.987-.888-.978-.9-.958-.929-.939-.936-.93-.949-.915-.964-.891-.984-.876-1-.867-1.012-.84-1.032-.827-1.036-.812-1.06-.792-1.068-.772-1.075-.757-1.092 12.159-10.284 2.867-2.422 1.928 1.633.223.168.23.155.237.143.25.112.257.1.269.075.265.056.278.048.368.016.27-.016.276-.032.274-.044.261-.076.266-.091.249-.112.237-.131.242-.148.293-.223 1.93-1.633 2.866 2.422zM8.984 16.16l20.923 17.68-2.867 2.422L16.695 45l-.792-1.466-.61-1.188-.578-1.195-.574-1.207-.543-1.22-.534-1.21-.507-1.236-.487-1.243-.46-1.243-.443-1.263-.432-1.263-.396-1.267-.388-1.271-.36-1.283-.341-1.287-.313-1.303-.305-1.3-.265-1.298-.258-1.307-.138-.8-.092-.519-.213-1.319-.187-1.315v-.243l.032-.131.036-.128.063-.111.071-.112.096-.091.11-.084.111-.064.12-.048.126-.027.13-.012h.14l.13.031.119.044.118.068zM63.919 12.364l-23.976 20.26-23.984-20.26 1.318-.49 1.153-.399 1.152-.383 1.169-.358 1.172-.335 1.168-.323 1.18-.29 1.189-.275 1.188-.255 1.196-.231 1.2-.212 1.196-.187 1.208-.167 1.208-.14 1.208-.12 1.216-.103 1.215-.075 1.216-.052 1.208-.04 1.224-.008 1.402.02 1.216.036 1.216.055 1.215.084 1.208.104 1.209.12 1.207.147 1.208.167 1.204.195 1.196.215 1.192.228 1.188.255 1.188.274 1.18.311 1.169.315 1.172.343 1.16.358 1.153.383 1.152.406z"/><path fill="#000" d="M78.33 14.342l-.227-.177-.241-.167-.25-.147-.258-.131-.267-.111-.277-.092-.276-.065-.286-.056-.284-.027-.296-.01-.286.01-.283.036-.287.047-.286.075-.277.092-.257.11-.267.141-.24.148-.404.298-2.184 1.847L49.97 33.838l-5.732 4.842-1.926 1.634-.294.223-.24.147-.24.131-.248.111-.267.092-.26.076-.274.045-.277.03-.27.016-.368-.016-.276-.046-.267-.056-.267-.075-.257-.101-.251-.112-.237-.14-.231-.158-.222-.167-1.926-1.634-5.732-4.842L8.984 16.163 6.8 14.316l-.232-.177-.24-.167-.248-.15-.257-.119-.277-.11-.276-.086-.277-.065-.286-.056-.287-.017-.293-.01-.286.017-.287.03-.286.065-.283.072-.27.095-.267.121-.257.128-.248.157-.23.167-.378.334 6.623 5.596.01.006L27.04 36.261l5.731 4.842 2.425 2.05.306.242.312.233.323.203.341.196.342.174.358.15.361.138.368.121.378.092.377.075.378.066.387.036.514.019.38-.02.385-.025.387-.047.378-.075.38-.091.368-.112.359-.13.36-.148.349-.167.332-.187.332-.196.322-.223.407-.324 2.424-2.05 5.732-4.842 19.076-16.114.006-.006 6.623-5.596z" opacity=".12"/><path fill="#FFF" d="M71.864 16.021l.11.068.112.072.09.091.084.112.063.111.047.132.028.12.008.139-.008.131-.241 1.65-.21 1.319-.036.183-.202 1.124-.261 1.31-.277 1.307-.302 1.291-.324 1.3-.353 1.29-.356 1.28-.396 1.27-.404 1.271-.432 1.263-.444 1.251-.482 1.244-.488 1.235-.515 1.235-.526 1.223-.55 1.207-.583 1.208-.59 1.183-.61 1.191L63.183 45l-10.345-8.738-2.867-2.423 20.927-17.678.201-.128.12-.048.126-.027.13-.012h.131l.127.031zM59.27 51.387l-1.505 2.14-.793 1.067-.811 1.052-.828 1.048-.84 1.016-.867 1.024-.875.992-.895.984-.911.965-.92.956-.95.936-.958.92-.97.909-.982.889-1.006.872-1.01.857-1.038.833-1.042.816-1.057.81-1.07.776h-.007l-2.091-1.558-1.041-.813-1.035-.836-1.01-.857-1.005-.873-.987-.888-.978-.9-.958-.929-.939-.936-.93-.949-.915-.964-.891-.984-.876-1-.867-1.012-.84-1.032-.827-1.036-.812-1.06-.792-1.068-.772-1.075-.757-1.092 12.159-10.284 2.867-2.422 1.928 1.633.223.168.23.155.237.143.25.112.257.1.269.075.265.056.278.048.368.016.27-.016.276-.032.274-.044.261-.076.266-.091.249-.112.237-.131.242-.148.293-.223 1.93-1.633 2.866 2.422zM8.984 16.16l20.923 17.68-2.867 2.422L16.695 45l-.792-1.466-.61-1.188-.578-1.195-.574-1.207-.543-1.22-.534-1.21-.507-1.236-.487-1.243-.46-1.243-.443-1.263-.432-1.263-.396-1.267-.388-1.271-.36-1.283-.341-1.287-.313-1.303-.305-1.3-.265-1.298-.258-1.307-.138-.8-.092-.519-.213-1.319-.187-1.315v-.243l.032-.131.036-.128.063-.111.071-.112.096-.091.11-.084.111-.064.12-.048.126-.027.13-.012h.14l.13.031.119.044.118.068zM63.919 12.364l-23.976 20.26-23.984-20.26 1.318-.49 1.153-.399 1.152-.383 1.169-.358 1.172-.335 1.168-.323 1.18-.29 1.189-.275 1.188-.255 1.196-.231 1.2-.212 1.196-.187 1.208-.167 1.208-.14 1.208-.12 1.216-.103 1.215-.075 1.216-.052 1.208-.04 1.224-.008 1.402.02 1.216.036 1.216.055 1.215.084 1.208.104 1.209.12 1.207.147 1.208.167 1.204.195 1.196.215 1.192.228 1.188.255 1.188.274 1.18.311 1.169.315 1.172.343 1.16.358 1.153.383 1.152.406z"/><path fill="#000" d="M78.33 14.342l-.227-.177-.241-.167-.25-.147-.258-.131-.267-.111-.277-.092-.276-.065-.286-.056-.284-.027-.296-.01-.286.01-.283.036-.287.047-.286.075-.277.092-.257.11-.267.141-.24.148-.404.298-2.184 1.847L49.97 33.838l-5.732 4.842-1.926 1.634-.294.223-.24.147-.24.131-.248.111-.267.092-.26.076-.274.045-.277.03-.27.016-.368-.016-.276-.046-.267-.056-.267-.075-.257-.101-.251-.112-.237-.14-.231-.158-.222-.167-1.926-1.634-5.732-4.842L8.984 16.163 6.8 14.316l-.232-.177-.24-.167-.248-.15-.257-.119-.277-.11-.276-.086-.277-.065-.286-.056-.287-.017-.293-.01-.286.017-.287.03-.286.065-.283.072-.27.095-.267.121-.257.128-.248.157-.23.167-.378.334 6.623 5.596.01.006L27.04 36.261l5.731 4.842 2.425 2.05.306.242.312.233.323.203.341.196.342.174.358.15.361.138.368.121.378.092.377.075.378.066.387.036.514.019.38-.02.385-.025.387-.047.378-.075.38-.091.368-.112.359-.13.36-.148.349-.167.332-.187.332-.196.322-.223.407-.324 2.424-2.05 5.732-4.842 19.076-16.114.006-.006 6.623-5.596z" opacity=".12"/><path fill="#FFF" d="M71.864 16.021l.11.068.112.072.09.091.084.112.063.111.047.132.028.12.008.139-.008.131-.241 1.65-.21 1.319-.036.183-.202 1.124-.261 1.31-.277 1.307-.302 1.291-.324 1.3-.353 1.29-.356 1.28-.396 1.27-.404 1.271-.432 1.263-.444 1.251-.482 1.244-.488 1.235-.515 1.235-.526 1.223-.55 1.207-.583 1.208-.59 1.183-.61 1.191L63.183 45l-10.345-8.738-2.867-2.423 20.927-17.678.201-.128.12-.048.126-.027.13-.012h.131l.127.031zM59.27 51.387l-1.505 2.14-.793 1.067-.811 1.052-.828 1.048-.84 1.016-.867 1.024-.875.992-.895.984-.911.965-.92.956-.95.936-.958.92-.97.909-.982.889-1.006.872-1.01.857-1.038.833-1.042.816-1.057.81-1.07.776h-.007l-2.091-1.558-1.041-.813-1.035-.836-1.01-.857-1.005-.873-.987-.888-.978-.9-.958-.929-.939-.936-.93-.949-.915-.964-.891-.984-.876-1-.867-1.012-.84-1.032-.827-1.036-.812-1.06-.792-1.068-.772-1.075-.757-1.092 12.159-10.284 2.867-2.422 1.928 1.633.223.168.23.155.237.143.25.112.257.1.269.075.265.056.278.048.368.016.27-.016.276-.032.274-.044.261-.076.266-.091.249-.112.237-.131.242-.148.293-.223 1.93-1.633 2.866 2.422zM8.984 16.16l20.923 17.68-2.867 2.422L16.695 45l-.792-1.466-.61-1.188-.578-1.195-.574-1.207-.543-1.22-.534-1.21-.507-1.236-.487-1.243-.46-1.243-.443-1.263-.432-1.263-.396-1.267-.388-1.271-.36-1.283-.341-1.287-.313-1.303-.305-1.3-.265-1.298-.258-1.307-.138-.8-.092-.519-.213-1.319-.187-1.315v-.243l.032-.131.036-.128.063-.111.071-.112.096-.091.11-.084.111-.064.12-.048.126-.027.13-.012h.14l.13.031.119.044.118.068zM63.919 12.364l-23.976 20.26-23.984-20.26 1.318-.49 1.153-.399 1.152-.383 1.169-.358 1.172-.335 1.168-.323 1.18-.29 1.189-.275 1.188-.255 1.196-.231 1.2-.212 1.196-.187 1.208-.167 1.208-.14 1.208-.12 1.216-.103 1.215-.075 1.216-.052 1.208-.04 1.224-.008 1.402.02 1.216.036 1.216.055 1.215.084 1.208.104 1.209.12 1.207.147 1.208.167 1.204.195 1.196.215 1.192.228 1.188.255 1.188.274 1.18.311 1.169.315 1.172.343 1.16.358 1.153.383 1.152.406z"/><path fill="#000" d="M78.33 14.342l-.227-.177-.241-.167-.25-.147-.258-.131-.267-.111-.277-.092-.276-.065-.286-.056-.284-.027-.296-.01-.286.01-.283.036-.287.047-.286.075-.277.092-.257.11-.267.141-.24.148-.404.298-2.184 1.847L49.97 33.838l-5.732 4.842-1.926 1.634-.294.223-.24.147-.24.131-.248.111-.267.092-.26.076-.274.045-.277.03-.27.016-.368-.016-.276-.046-.267-.056-.267-.075-.257-.101-.251-.112-.237-.14-.231-.158-.222-.167-1.926-1.634-5.732-4.842L8.984 16.163 6.8 14.316l-.232-.177-.24-.167-.248-.15-.257-.119-.277-.11-.276-.086-.277-.065-.286-.056-.287-.017-.293-.01-.286.017-.287.03-.286.065-.283.072-.27.095-.267.121-.257.128-.248.157-.23.167-.378.334 6.623 5.596.01.006L27.04 36.261l5.731 4.842 2.425 2.05.306.242.312.233.323.203.341.196.342.174.358.15.361.138.368.121.378.092.377.075.378.066.387.036.514.019.38-.02.385-.025.387-.047.378-.075.38-.091.368-.112.359-.13.36-.148.349-.167.332-.187.332-.196.322-.223.407-.324 2.424-2.05 5.732-4.842 19.076-16.114.006-.006 6.623-5.596z" opacity=".12"/><g><path fill="#FFF" d="M71.864 16.021l.11.068.112.072.09.091.084.112.063.111.047.132.028.12.008.139-.008.131-.241 1.65-.21 1.319-.036.183-.202 1.124-.261 1.31-.277 1.307-.302 1.291-.324 1.3-.353 1.29-.356 1.28-.396 1.27-.404 1.271-.432 1.263-.444 1.251-.482 1.244-.488 1.235-.515 1.235-.526 1.223-.55 1.207-.583 1.208-.59 1.183-.61 1.191L63.183 45l-10.345-8.738-2.867-2.423 20.927-17.678.201-.128.12-.048.126-.027.13-.012h.131l.127.031zM59.27 51.387l-1.505 2.14-.793 1.067-.811 1.052-.828 1.048-.84 1.016-.867 1.024-.875.992-.895.984-.911.965-.92.956-.95.936-.958.92-.97.909-.982.889-1.006.872-1.01.857-1.038.833-1.042.816-1.057.81-1.07.776h-.007l-2.091-1.558-1.041-.813-1.035-.836-1.01-.857-1.005-.873-.987-.888-.978-.9-.958-.929-.939-.936-.93-.949-.915-.964-.891-.984-.876-1-.867-1.012-.84-1.032-.827-1.036-.812-1.06-.792-1.068-.772-1.075-.757-1.092 12.159-10.284 2.867-2.422 1.928 1.633.223.168.23.155.237.143.25.112.257.1.269.075.265.056.278.048.368.016.27-.016.276-.032.274-.044.261-.076.266-.091.249-.112.237-.131.242-.148.293-.223 1.93-1.633 2.866 2.422zM8.984 16.16l20.923 17.68-2.867 2.422L16.695 45l-.792-1.466-.61-1.188-.578-1.195-.574-1.207-.543-1.22-.534-1.21-.507-1.236-.487-1.243-.46-1.243-.443-1.263-.432-1.263-.396-1.267-.388-1.271-.36-1.283-.341-1.287-.313-1.303-.305-1.3-.265-1.298-.258-1.307-.138-.8-.092-.519-.213-1.319-.187-1.315v-.243l.032-.131.036-.128.063-.111.071-.112.096-.091.11-.084.111-.064.12-.048.126-.027.13-.012h.14l.13.031.119.044.118.068zM63.919 12.364l-23.976 20.26-23.984-20.26 1.318-.49 1.153-.399 1.152-.383 1.169-.358 1.172-.335 1.168-.323 1.18-.29 1.189-.275 1.188-.255 1.196-.231 1.2-.212 1.196-.187 1.208-.167 1.208-.14 1.208-.12 1.216-.103 1.215-.075 1.216-.052 1.208-.04 1.224-.008 1.402.02 1.216.036 1.216.055 1.215.084 1.208.104 1.209.12 1.207.147 1.208.167 1.204.195 1.196.215 1.192.228 1.188.255 1.188.274 1.18.311 1.169.315 1.172.343 1.16.358 1.153.383 1.152.406z"/><path fill="#E74C3C" d="M27.04 36.262l2.867-2.423L8.984 16.161l-.103-.072-.118-.068-.119-.044-.13-.032h-.14l-.13.012-.127.028-.119.048-.11.064-.112.084-.095.091-.07.112-.064.111-.036.128-.032.131v.243l.187 1.315.213 1.32.092.517.138.8.258 1.308.265 1.299.305 1.299.313 1.302.34 1.287.361 1.283.388 1.271.396 1.267.432 1.264.443 1.263.46 1.243.487 1.243.507 1.235.535 1.211.542 1.22.574 1.207.578 1.195.61 1.187.792 1.467 10.345-8.738zm30.725 17.264l1.505-2.14-12.163-10.283-2.867-2.423-1.929 1.634-.293.223-.242.148-.237.131-.25.112-.265.091-.261.076-.274.044-.277.032-.27.016-.368-.016-.277-.048-.265-.056-.269-.076-.258-.1-.25-.11-.237-.144-.23-.156-.221-.167-1.93-1.634-2.866 2.423-12.159 10.284.757 1.091.772 1.076.792 1.068.812 1.06.828 1.036.84 1.032.866 1.012.876 1 .89.984.916.964.93.949.939.936.958.928.979.9.986.89 1.006.872 1.01.856 1.033.837 1.042.813 2.091 1.558h.008l1.07-.777 1.057-.809 1.041-.817 1.038-.832 1.01-.857 1.006-.873.982-.888.97-.909.959-.92.95-.936.919-.957.91-.964.896-.984.875-.992.867-1.024.84-1.016.828-1.048.811-1.052.793-1.068zM39.943 32.624l23.976-20.26-1.14-.427-1.153-.406-1.153-.383-1.16-.358-1.172-.343-1.169-.315-1.18-.31-1.187-.275-1.189-.255-1.192-.228-1.196-.215-1.204-.195-1.208-.167-1.207-.148-1.209-.12-1.208-.103-1.215-.084-1.216-.055-1.216-.036-1.402-.02-1.224.008-1.208.04-1.216.052-1.215.075-1.216.104-1.208.12-1.208.139-1.208.167-1.196.187-1.2.212-1.196.23-1.188.256-1.188.275-1.18.29-1.169.323-1.172.335-1.169.358-1.152.383-1.152.398-1.319.49 23.984 20.261zm32.464-15.758l-.009-.14-.028-.12-.047-.13-.063-.112-.083-.112-.092-.091-.11-.072-.111-.068-.13-.044-.128-.032h-.13l-.131.012-.127.028-.119.048-.202.128L49.97 33.839l2.868 2.423L63.183 45l.633-1.168.61-1.191.59-1.183.582-1.208.55-1.207.527-1.223.515-1.235.487-1.235.484-1.244.443-1.25.432-1.264.404-1.27.396-1.272.356-1.279.353-1.29.325-1.3.3-1.29.278-1.308.261-1.31.202-1.124.036-.183.21-1.32.241-1.649.009-.131zm7.373-.148v.427l-.031.426-.044.418-.332 2.272-.238 1.378-.25 1.37-.277 1.371-.305 1.367-.313 1.363-.34 1.354-.369 1.347-.388 1.343-.404 1.339-.423 1.326-.452 1.327-.46 1.32-.498 1.306-.507 1.299-.535 1.29-.554 1.28-.57 1.279-.59 1.263-.619 1.251-.625 1.247-.654 1.231-.673 1.228-.69 1.215-.712 1.195-.729 1.191-.744 1.176-.765 1.171-.792 1.148-.803 1.14-.82 1.123-.84 1.115-.856 1.104-.875 1.084-.89 1.068-.908 1.06-.93 1.047-.94 1.02-.958 1.013-.974 1.004-.986.972-1.006.964-1.022.956-1.033.929-1.05.92-1.07.889-1.08.88-1.086.865-1.104.844-1.125.825-1.133.809-1.14.797-1.164.773-1.161.749-1.913-1.255-1.153-.777-1.144-.797-1.125-.825-1.108-.836-1.093-.865-1.09-.869-1.065-.892-1.054-.909-1.041-.92-1.03-.948-1.006-.957-.994-.972-.986-.992-.958-1.012-.951-1.02-.93-1.032-.912-1.056-.902-1.068-.876-1.075-.867-1.096L16.9 58.9l-.831-1.123-.8-1.132-.796-1.151-.773-1.16-.756-1.167-.736-1.192-.718-1.195-.7-1.207-.674-1.223-.665-1.228-.634-1.243-.617-1.25-.61-1.264-.571-1.27-.562-1.28-.543-1.283-.518-1.299-.495-1.307-.48-1.307-.452-1.326-.435-1.327-.412-1.335-.396-1.339-.368-1.342-.353-1.36-.32-1.354-.314-1.362-.277-1.375-.265-1.37-.242-1.375-.221-1.383-.195-1.383-.063-.796-.011-.419.02-.43.035-.414.055-.419.088-.414.09-.423.115-.386.004-.012.147-.398.158-.39.182-.391.195-.37.221-.363.23-.34.258-.346.269-.323.285-.306.305-.3.313-.278.333-.267.34-.24.349-.234.372-.211 2.23-1.164L7.84 7.79l1.153-.537 1.168-.518 1.172-.514 1.188-.47 1.188-.467 1.2-.442 1.204-.418 1.22-.399 1.212-.378 1.227-.355 1.237-.335 1.235-.314 1.243-.3 1.244-.266 1.251-.251 1.256-.235 1.26-.2 1.263-.187 1.263-.167 1.272-.14 1.27-.12 1.272-.103 1.275-.075 1.28-.052 1.271-.04 1.279-.008 2.515.048 1.271.052 1.275.075 1.271.092 1.272.123 1.271.14 1.264.167 1.263.184 1.26.207 1.255.227 1.251.255 1.256.267 1.231.299 1.244.314 1.228.335 1.223.35 1.228.383 1.204.399 1.208.414 1.2.446 1.196.454 1.18.487 1.18.502 1.16.514 1.161.55 1.141.557 1.144.582 1.125.598.681.414.34.243.333.26.313.278.306.299.284.303.278.326.25.331.237.355.222.362.202.37.182.383.159.387.15.402.02.064v.004l.095.33.106.415.08.41.067.419.036.426.02.418z"/><path fill="#000" d="M78.33 14.342l-.227-.177-.241-.167-.25-.147-.258-.131-.267-.111-.277-.092-.276-.065-.286-.056-.284-.027-.296-.01-.286.01-.283.036-.287.047-.286.075-.277.092-.257.11-.267.141-.24.148-.404.298-2.184 1.847L49.97 33.838l-5.732 4.842-1.926 1.634-.294.223-.24.147-.24.131-.248.111-.267.092-.26.076-.274.045-.277.03-.27.016-.368-.016-.276-.046-.267-.056-.267-.075-.257-.101-.251-.112-.237-.14-.231-.158-.222-.167-1.926-1.634-5.732-4.842L8.984 16.163 6.8 14.316l-.232-.177-.24-.167-.248-.15-.257-.119-.277-.11-.276-.086-.277-.065-.286-.056-.287-.017-.293-.01-.286.017-.287.03-.286.065-.283.072-.27.095-.267.121-.257.128-.248.157-.23.167-.378.334 6.623 5.596.01.006L27.04 36.261l5.731 4.842 2.425 2.05.306.242.312.233.323.203.341.196.342.174.358.15.361.138.368.121.378.092.377.075.378.066.387.036.514.019.38-.02.385-.025.387-.047.378-.075.38-.091.368-.112.359-.13.36-.148.349-.167.332-.187.332-.196.322-.223.407-.324 2.424-2.05 5.732-4.842 19.076-16.114.006-.006 6.623-5.596z" opacity=".12"/><path fill="#FFF" d="M71.864 16.021l.11.068.112.072.09.091.084.112.063.111.047.132.028.12.008.139-.008.131-.241 1.65-.21 1.319-.036.183-.202 1.124-.261 1.31-.277 1.307-.302 1.291-.324 1.3-.353 1.29-.356 1.28-.396 1.27-.404 1.271-.432 1.263-.444 1.251-.482 1.244-.488 1.235-.515 1.235-.526 1.223-.55 1.207-.583 1.208-.59 1.183-.61 1.191L63.183 45l-10.345-8.738-2.867-2.423 20.927-17.678.201-.128.12-.048.126-.027.13-.012h.131l.127.031zM59.27 51.387l-1.505 2.14-.793 1.067-.811 1.052-.828 1.048-.84 1.016-.867 1.024-.875.992-.895.984-.911.965-.92.956-.95.936-.958.92-.97.909-.982.889-1.006.872-1.01.857-1.038.833-1.042.816-1.057.81-1.07.776h-.007l-2.091-1.558-1.041-.813-1.035-.836-1.01-.857-1.005-.873-.987-.888-.978-.9-.958-.929-.939-.936-.93-.949-.915-.964-.891-.984-.876-1-.867-1.012-.84-1.032-.827-1.036-.812-1.06-.792-1.068-.772-1.075-.757-1.092 12.159-10.284 2.867-2.422 1.928 1.633.223.168.23.155.237.143.25.112.257.1.269.075.265.056.278.048.368.016.27-.016.276-.032.274-.044.261-.076.266-.091.249-.112.237-.131.242-.148.293-.223 1.93-1.633 2.866 2.422zM8.984 16.16l20.923 17.68-2.867 2.422L16.695 45l-.792-1.466-.61-1.188-.578-1.195-.574-1.207-.543-1.22-.534-1.21-.507-1.236-.487-1.243-.46-1.243-.443-1.263-.432-1.263-.396-1.267-.388-1.271-.36-1.283-.341-1.287-.313-1.303-.305-1.3-.265-1.298-.258-1.307-.138-.8-.092-.519-.213-1.319-.187-1.315v-.243l.032-.131.036-.128.063-.111.071-.112.096-.091.11-.084.111-.064.12-.048.126-.027.13-.012h.14l.13.031.119.044.118.068zM63.919 12.364l-23.976 20.26-23.984-20.26 1.318-.49 1.153-.399 1.152-.383 1.169-.358 1.172-.335 1.168-.323 1.18-.29 1.189-.275 1.188-.255 1.196-.231 1.2-.212 1.196-.187 1.208-.167 1.208-.14 1.208-.12 1.216-.103 1.215-.075 1.216-.052 1.208-.04 1.224-.008 1.402.02 1.216.036 1.216.055 1.215.084 1.208.104 1.209.12 1.207.147 1.208.167 1.204.195 1.196.215 1.192.228 1.188.255 1.188.274 1.18.311 1.169.315 1.172.343 1.16.358 1.153.383 1.152.406z"/><path fill="#000" d="M78.33 14.342l-.227-.177-.241-.167-.25-.147-.258-.131-.267-.111-.277-.092-.276-.065-.286-.056-.284-.027-.296-.01-.286.01-.283.036-.287.047-.286.075-.277.092-.257.11-.267.141-.24.148-.404.298-2.184 1.847L49.97 33.838l-5.732 4.842-1.926 1.634-.294.223-.24.147-.24.131-.248.111-.267.092-.26.076-.274.045-.277.03-.27.016-.368-.016-.276-.046-.267-.056-.267-.075-.257-.101-.251-.112-.237-.14-.231-.158-.222-.167-1.926-1.634-5.732-4.842L8.984 16.163 6.8 14.316l-.232-.177-.24-.167-.248-.15-.257-.119-.277-.11-.276-.086-.277-.065-.286-.056-.287-.017-.293-.01-.286.017-.287.03-.286.065-.283.072-.27.095-.267.121-.257.128-.248.157-.23.167-.378.334 6.623 5.596.01.006L27.04 36.261l5.731 4.842 2.425 2.05.306.242.312.233.323.203.341.196.342.174.358.15.361.138.368.121.378.092.377.075.378.066.387.036.514.019.38-.02.385-.025.387-.047.378-.075.38-.091.368-.112.359-.13.36-.148.349-.167.332-.187.332-.196.322-.223.407-.324 2.424-2.05 5.732-4.842 19.076-16.114.006-.006 6.623-5.596z" opacity=".12"/><path fill="#FFF" d="M71.864 16.021l.11.068.112.072.09.091.084.112.063.111.047.132.028.12.008.139-.008.131-.241 1.65-.21 1.319-.036.183-.202 1.124-.261 1.31-.277 1.307-.302 1.291-.324 1.3-.353 1.29-.356 1.28-.396 1.27-.404 1.271-.432 1.263-.444 1.251-.482 1.244-.488 1.235-.515 1.235-.526 1.223-.55 1.207-.583 1.208-.59 1.183-.61 1.191L63.183 45l-10.345-8.738-2.867-2.423 20.927-17.678.201-.128.12-.048.126-.027.13-.012h.131l.127.031zM59.27 51.387l-1.505 2.14-.793 1.067-.811 1.052-.828 1.048-.84 1.016-.867 1.024-.875.992-.895.984-.911.965-.92.956-.95.936-.958.92-.97.909-.982.889-1.006.872-1.01.857-1.038.833-1.042.816-1.057.81-1.07.776h-.007l-2.091-1.558-1.041-.813-1.035-.836-1.01-.857-1.005-.873-.987-.888-.978-.9-.958-.929-.939-.936-.93-.949-.915-.964-.891-.984-.876-1-.867-1.012-.84-1.032-.827-1.036-.812-1.06-.792-1.068-.772-1.075-.757-1.092 12.159-10.284 2.867-2.422 1.928 1.633.223.168.23.155.237.143.25.112.257.1.269.075.265.056.278.048.368.016.27-.016.276-.032.274-.044.261-.076.266-.091.249-.112.237-.131.242-.148.293-.223 1.93-1.633 2.866 2.422zM8.984 16.16l20.923 17.68-2.867 2.422L16.695 45l-.792-1.466-.61-1.188-.578-1.195-.574-1.207-.543-1.22-.534-1.21-.507-1.236-.487-1.243-.46-1.243-.443-1.263-.432-1.263-.396-1.267-.388-1.271-.36-1.283-.341-1.287-.313-1.303-.305-1.3-.265-1.298-.258-1.307-.138-.8-.092-.519-.213-1.319-.187-1.315v-.243l.032-.131.036-.128.063-.111.071-.112.096-.091.11-.084.111-.064.12-.048.126-.027.13-.012h.14l.13.031.119.044.118.068zM63.919 12.364l-23.976 20.26-23.984-20.26 1.318-.49 1.153-.399 1.152-.383 1.169-.358 1.172-.335 1.168-.323 1.18-.29 1.189-.275 1.188-.255 1.196-.231 1.2-.212 1.196-.187 1.208-.167 1.208-.14 1.208-.12 1.216-.103 1.215-.075 1.216-.052 1.208-.04 1.224-.008 1.402.02 1.216.036 1.216.055 1.215.084 1.208.104 1.209.12 1.207.147 1.208.167 1.204.195 1.196.215 1.192.228 1.188.255 1.188.274 1.18.311 1.169.315 1.172.343 1.16.358 1.153.383 1.152.406z"/><path fill="#000" d="M78.33 14.342l-.227-.177-.241-.167-.25-.147-.258-.131-.267-.111-.277-.092-.276-.065-.286-.056-.284-.027-.296-.01-.286.01-.283.036-.287.047-.286.075-.277.092-.257.11-.267.141-.24.148-.404.298-2.184 1.847L49.97 33.838l-5.732 4.842-1.926 1.634-.294.223-.24.147-.24.131-.248.111-.267.092-.26.076-.274.045-.277.03-.27.016-.368-.016-.276-.046-.267-.056-.267-.075-.257-.101-.251-.112-.237-.14-.231-.158-.222-.167-1.926-1.634-5.732-4.842L8.984 16.163 6.8 14.316l-.232-.177-.24-.167-.248-.15-.257-.119-.277-.11-.276-.086-.277-.065-.286-.056-.287-.017-.293-.01-.286.017-.287.03-.286.065-.283.072-.27.095-.267.121-.257.128-.248.157-.23.167-.378.334 6.623 5.596.01.006L27.04 36.261l5.731 4.842 2.425 2.05.306.242.312.233.323.203.341.196.342.174.358.15.361.138.368.121.378.092.377.075.378.066.387.036.514.019.38-.02.385-.025.387-.047.378-.075.38-.091.368-.112.359-.13.36-.148.349-.167.332-.187.332-.196.322-.223.407-.324 2.424-2.05 5.732-4.842 19.076-16.114.006-.006 6.623-5.596z" opacity=".12"/><path fill="#FFF" d="M71.864 16.021l.11.068.112.072.09.091.084.112.063.111.047.132.028.12.008.139-.008.131-.241 1.65-.21 1.319-.036.183-.202 1.124-.261 1.31-.277 1.307-.302 1.291-.324 1.3-.353 1.29-.356 1.28-.396 1.27-.404 1.271-.432 1.263-.444 1.251-.482 1.244-.488 1.235-.515 1.235-.526 1.223-.55 1.207-.583 1.208-.59 1.183-.61 1.191L63.183 45l-10.345-8.738-2.867-2.423 20.927-17.678.201-.128.12-.048.126-.027.13-.012h.131l.127.031zM59.27 51.387l-1.505 2.14-.793 1.067-.811 1.052-.828 1.048-.84 1.016-.867 1.024-.875.992-.895.984-.911.965-.92.956-.95.936-.958.92-.97.909-.982.889-1.006.872-1.01.857-1.038.833-1.042.816-1.057.81-1.07.776h-.007l-2.091-1.558-1.041-.813-1.035-.836-1.01-.857-1.005-.873-.987-.888-.978-.9-.958-.929-.939-.936-.93-.949-.915-.964-.891-.984-.876-1-.867-1.012-.84-1.032-.827-1.036-.812-1.06-.792-1.068-.772-1.075-.757-1.092 12.159-10.284 2.867-2.422 1.928 1.633.223.168.23.155.237.143.25.112.257.1.269.075.265.056.278.048.368.016.27-.016.276-.032.274-.044.261-.076.266-.091.249-.112.237-.131.242-.148.293-.223 1.93-1.633 2.866 2.422zM8.984 16.16l20.923 17.68-2.867 2.422L16.695 45l-.792-1.466-.61-1.188-.578-1.195-.574-1.207-.543-1.22-.534-1.21-.507-1.236-.487-1.243-.46-1.243-.443-1.263-.432-1.263-.396-1.267-.388-1.271-.36-1.283-.341-1.287-.313-1.303-.305-1.3-.265-1.298-.258-1.307-.138-.8-.092-.519-.213-1.319-.187-1.315v-.243l.032-.131.036-.128.063-.111.071-.112.096-.091.11-.084.111-.064.12-.048.126-.027.13-.012h.14l.13.031.119.044.118.068zM63.919 12.364l-23.976 20.26-23.984-20.26 1.318-.49 1.153-.399 1.152-.383 1.169-.358 1.172-.335 1.168-.323 1.18-.29 1.189-.275 1.188-.255 1.196-.231 1.2-.212 1.196-.187 1.208-.167 1.208-.14 1.208-.12 1.216-.103 1.215-.075 1.216-.052 1.208-.04 1.224-.008 1.402.02 1.216.036 1.216.055 1.215.084 1.208.104 1.209.12 1.207.147 1.208.167 1.204.195 1.196.215 1.192.228 1.188.255 1.188.274 1.18.311 1.169.315 1.172.343 1.16.358 1.153.383 1.152.406z"/><path fill="#000" d="M78.33 14.342l-.227-.177-.241-.167-.25-.147-.258-.131-.267-.111-.277-.092-.276-.065-.286-.056-.284-.027-.296-.01-.286.01-.283.036-.287.047-.286.075-.277.092-.257.11-.267.141-.24.148-.404.298-2.184 1.847L49.97 33.838l-5.732 4.842-1.926 1.634-.294.223-.24.147-.24.131-.248.111-.267.092-.26.076-.274.045-.277.03-.27.016-.368-.016-.276-.046-.267-.056-.267-.075-.257-.101-.251-.112-.237-.14-.231-.158-.222-.167-1.926-1.634-5.732-4.842L8.984 16.163 6.8 14.316l-.232-.177-.24-.167-.248-.15-.257-.119-.277-.11-.276-.086-.277-.065-.286-.056-.287-.017-.293-.01-.286.017-.287.03-.286.065-.283.072-.27.095-.267.121-.257.128-.248.157-.23.167-.378.334 6.623 5.596.01.006L27.04 36.261l5.731 4.842 2.425 2.05.306.242.312.233.323.203.341.196.342.174.358.15.361.138.368.121.378.092.377.075.378.066.387.036.514.019.38-.02.385-.025.387-.047.378-.075.38-.091.368-.112.359-.13.36-.148.349-.167.332-.187.332-.196.322-.223.407-.324 2.424-2.05 5.732-4.842 19.076-16.114.006-.006 6.623-5.596z" opacity=".12"/></g></g></svg>