<svg xmlns="http://www.w3.org/2000/svg" width="80" height="80" viewBox="0 0 80 80"><g fill="none" fill-rule="evenodd"><path fill="#E74C3C" d="M27.04 35.845l2.867-2.407L8.984 15.865l-.103-.071-.118-.067-.119-.044-.13-.032h-.14l-.13.012-.127.028-.119.048-.11.063-.112.083-.095.091-.07.111-.064.11-.036.128-.032.13v.242l.187 1.307.213 1.31.092.516.138.796.258 1.299.265 1.29.305 1.292.313 1.295.34 1.28.361 1.274.388 1.264.396 1.26.432 1.255.443 1.255.46 1.236.487 1.235.507 1.228.535 1.204.542 1.212.574 1.2.578 1.188.61 1.18.792 1.458 10.345-8.686zm30.725 17.16l1.505-2.126-12.163-10.222-2.867-2.408-1.929 1.624-.293.222-.242.147-.237.13-.25.111-.265.091-.261.075-.274.044-.277.032-.27.016-.368-.016-.277-.048-.265-.055-.269-.076-.258-.099-.25-.11-.237-.143-.23-.154-.221-.167-1.93-1.624-2.866 2.408L20.612 50.88l.757 1.085.772 1.07.792 1.061.812 1.053.828 1.03.84 1.026.866 1.006.876.994.89.978.916.959.93.942.939.93.958.924.979.895.986.883 1.006.867 1.01.852 1.033.831 1.042.808 2.091 1.549h.008l1.07-.773 1.057-.804 1.041-.811 1.038-.828 1.01-.852 1.006-.867.982-.883.97-.903.959-.915.95-.93.919-.951.91-.959.896-.978.875-.986.867-1.018.84-1.01.828-1.041.811-1.046.793-1.061zM39.943 32.23L63.919 12.09l-1.14-.424-1.153-.404-1.153-.38-1.16-.356-1.172-.34-1.169-.314-1.18-.309-1.187-.273-1.189-.253-1.192-.226-1.196-.214-1.204-.194-1.208-.166-1.207-.147-1.209-.119-1.208-.103-1.215-.083-1.216-.055-1.216-.036-1.402-.02-1.224.008-1.208.04-1.216.051-1.215.075-1.216.103-1.208.12-1.208.138-1.208.166-1.196.186-1.2.21-1.196.23-1.188.253-1.188.274-1.18.289-1.169.32-1.172.333-1.169.357-1.152.38-1.152.396-1.319.487L39.943 32.23zm32.464-15.664l-.009-.138-.028-.12-.047-.13-.063-.11-.083-.112-.092-.09-.11-.072-.111-.067-.13-.044-.128-.032h-.13l-.131.012-.127.028-.119.048-.202.126L49.97 33.438l2.868 2.407 10.345 8.686.633-1.16.61-1.185.59-1.176.582-1.2.55-1.2.527-1.216.515-1.228.487-1.227.484-1.236.443-1.244.432-1.255.404-1.263.396-1.264.356-1.271.353-1.283.325-1.291.3-1.284.278-1.299.261-1.303.202-1.116.036-.183.21-1.31.241-1.64.009-.13zm7.373-.146v.423l-.031.424-.044.416-.332 2.258-.238 1.37-.25 1.362-.277 1.363-.305 1.358-.313 1.354-.34 1.347-.369 1.339-.388 1.334-.404 1.33-.423 1.32-.452 1.319-.46 1.31-.498 1.3-.507 1.29-.535 1.284-.554 1.271-.57 1.271-.59 1.256-.619 1.243-.625 1.24-.654 1.224-.673 1.22-.69 1.207-.712 1.189-.729 1.184-.744 1.168-.765 1.164-.792 1.14-.803 1.134-.82 1.116-.84 1.11-.856 1.096-.875 1.078-.89 1.061-.908 1.053-.93 1.042-.94 1.014-.958 1.006-.974.998-.986.966-1.006.959-1.022.95-1.033.923-1.05.915-1.07.883-1.08.875-1.086.86-1.104.84-1.125.819-1.133.804-1.14.792-1.164.768-1.161.745-1.913-1.248-1.153-.772-1.144-.792-1.125-.82-1.108-.831-1.093-.86-1.09-.863-1.065-.887-1.054-.903-1.041-.915-1.03-.943-1.006-.95-.994-.967-.986-.986-.958-1.006-.951-1.014-.93-1.025-.912-1.05-.902-1.061-.876-1.07-.867-1.089-.844-1.105-.831-1.116-.8-1.125-.796-1.145-.773-1.152-.756-1.16-.736-1.185-.718-1.188-.7-1.2-.674-1.216-.665-1.22-.634-1.235-.617-1.244-.61-1.255-.571-1.264-.562-1.27-.543-1.276-.518-1.291-.495-1.3-.48-1.298-.452-1.319-.435-1.319-.412-1.327-.396-1.33-.368-1.335-.353-1.35-.32-1.347-.314-1.354-.277-1.367-.265-1.362-.242-1.366-.221-1.375-.195-1.374-.063-.792-.011-.416.02-.428.035-.411.055-.416.088-.412.09-.42.115-.384.004-.012.147-.396.158-.388.182-.388.195-.369.221-.36.23-.337.258-.344.269-.321.285-.305.305-.297.313-.277.333-.266.34-.237.349-.234.372-.21 2.23-1.156 1.148-.563 1.153-.534 1.168-.515 1.172-.51 1.188-.468 1.188-.464 1.2-.44 1.204-.415 1.22-.396 1.212-.376 1.227-.353 1.237-.332 1.235-.313 1.243-.297 1.244-.266 1.251-.25 1.256-.233 1.26-.198L29.76.998l1.263-.166 1.272-.139 1.27-.119 1.272-.103 1.275-.075 1.28-.052 1.271-.04 1.279-.007 2.515.047 1.271.052 1.275.075 1.271.091 1.272.123 1.271.139 1.264.166 1.263.182 1.26.206 1.255.226 1.251.253 1.256.266 1.231.297 1.244.313 1.228.332 1.223.349 1.228.38 1.204.396 1.208.412 1.2.443 1.196.452 1.18.483 1.18.5 1.16.51 1.161.547 1.141.554 1.144.578 1.125.594.681.412.34.242.333.257.313.277.306.297.284.301.278.325.25.329.237.352.222.36.202.37.182.38.159.383.15.4.02.064v.004l.095.328.106.412.08.408.067.416.036.424.02.416z"/><path fill="#000" d="M78.33 14.058l-.227-.176-.241-.166-.25-.147-.258-.13-.267-.11-.277-.092-.276-.064-.286-.056-.284-.026-.296-.01-.286.01-.283.036-.287.046-.286.074-.277.091-.257.111-.267.14-.24.147-.404.296-2.184 1.835L49.97 33.436l-5.732 4.813-1.926 1.625-.294.22-.24.147-.24.13-.248.11-.267.092-.26.075-.274.045-.277.03-.27.016-.368-.016-.276-.046-.267-.055-.267-.075-.257-.1-.251-.111-.237-.14-.231-.157-.222-.165-1.926-1.625-5.732-4.813L8.984 15.867 6.8 14.032l-.232-.176-.24-.166-.248-.15-.257-.117-.277-.11-.276-.085-.277-.065-.286-.056-.287-.016-.293-.01-.286.017-.287.029-.286.065-.283.072-.27.094-.267.12-.257.127-.248.156-.23.166-.378.332 6.623 5.563.01.006L27.04 35.844l5.731 4.814 2.425 2.037.306.24.312.232.323.202.341.195.342.172.358.15.361.137.368.12.378.092.377.075.378.064.387.037.514.019.38-.02.385-.026.387-.046.378-.074.38-.091.368-.111.359-.13.36-.146.349-.166.332-.186.332-.195.322-.222.407-.322 2.424-2.037 5.732-4.814 19.076-16.016.006-.006 6.623-5.563z" opacity=".12"/></g></svg>