<svg id="a" xmlns="http://www.w3.org/2000/svg" viewBox="0 0 1359.99 1119.15"><g id="b"><path d="m676.42,1118.66c-201.08,0-402.15-.51-603.23.43C32.87,1119.28-.12,1083.37,0,1047c.75-219.94.54-439.89.1-659.83-.03-13.8,5.53-14.8,16.62-14.78,154.49.28,308.99-.26,463.48.46,49.08.23,91.13-15.18,123.43-51.63,27.92-31.51,61.34-42.63,102.55-42.45,211.69.91,423.38.56,635.07.1,14.02-.03,18.78,2.29,18.74,17.8-.54,247.66-.66,495.32-.02,742.98.12,47.84-38.62,79.71-78.55,79.51-201.66-1.02-403.33-.47-605-.49Zm272.23-454.73c3.68-64.01-35.43-118.8-85.96-135.37-23.36-7.66-46.99-9.57-70.77-7.59-41.59,3.47-77.52,19.12-100.87,55.81-5.67,8.91-7.58,9.4-13.61.36-38.74-58.05-123.46-69.9-179.82-44.7-78.44,35.06-100.38,133.36-59.19,207.49,19.06,34.3,44.47,64.31,71.38,92.22,53,54.96,106.42,109.66,164.86,159.13,7.76,6.56,11.07,5.56,18.28-.04,41.82-32.52,77.56-71.59,115.81-107.85,33.06-31.33,64.32-64.93,92.34-101.06,27.34-35.24,51.43-72.21,47.55-118.42Z" style="fill:#dc3848;"/><path d="m1017.11,210.06c-104.37,0-208.73-.13-313.1.07-37.6.07-74.39,4.64-105.97,27.55-17.57,12.75-29.83,31.44-47.99,43.86-19.72,13.49-40.78,21.87-64.88,21.87-156.84-.01-313.69-.14-470.53.26-11.96.03-14.57-3.77-14.5-14.98.48-71.34.97-142.7.03-214.03C-.32,36.89,24.91.7,72.64.49,214.74-.11,356.85-.27,498.94.65c30.86.2,53.45,19.26,62.9,47.46,13.37,39.9,41.37,58.91,79.76,67.67,10.03,2.29,19.93.63,29.87.64,201.06.13,402.13.15,603.19.2,41.86,0,76.08,32.16,82.04,73.43,2.7,18.7-3.01,20.52-19.42,20.4-106.72-.76-213.44-.39-320.17-.39Z" style="fill:#dc3848;"/></g></svg>