<svg xmlns="http://www.w3.org/2000/svg" viewBox="0 0 40 41"><g fill="#F05A3F" fill-rule="nonzero"><path d="M25.678 2.055c1.748-.033 3.483.319 5.081 1.03a19.258 19.258 0 0 0-3.807-1.86A20.148 20.148 0 0 0 7.315 4.521c-.17.126-.623.541-.8.69a7.768 7.768 0 0 0-.741.74c-.156.193-.504.526-.74.74-.238.216-.527.616-.682.808l-.534.697c-.14.192-.466.674-.6.866-.133.193-.222.363-.281.452-.06.089-.193.311-.23.37-.037.06-.385.697-.474.845-.089.148-.355.74-.46.948l-.347.807c0 .09-.267.741-.311.823-.045.081-.156.474-.215.666-.126.37-.237.8-.34 1.178-.06.23-.179.8-.23 1.03v.178a20.104 20.104 0 0 0 2.392 13.725c.245.4.578.949.86 1.326.103.156.288.423.407.57l.43.564.68.8.742.74c.14.126.363.363.51.482l.267.23.067.051.067.052.133.111c.17.141.385.29.563.415l.14.097.149.096c.155.103.43.274.6.363.17.089.222.133.304.17l.466.23c.148.074.341.155.482.215.348.14.74.266 1.066.385.193.044.4.11.593.163l.511.11.519.09a12.24 12.24 0 0 0 1.8.133 11.926 11.926 0 0 0 4.274-.926 11.674 11.674 0 0 0 6.296-6.518l.126-.326c0-.111.126-.4.163-.504.067-.267.163-.585.215-.852 0-.096.059-.244.074-.34.085-.513.142-1.03.17-1.549v-.607c-.385 0-.74-.052-1.14-.096a11.896 11.896 0 0 1 1.436-23.704h-.014ZM8.959 32.218c-.457-.383-.89-.794-1.296-1.23A18.244 18.244 0 0 1 9.567 4.24c.148-.126.385-.289.533-.4a18.04 18.04 0 0 1 1.852-1.207A17.837 17.837 0 0 1 18.618.492l.867-.074h1.741l-.867.066-.86.112-.851.14A18.104 18.104 0 0 0 4.855 24.633a17.851 17.851 0 0 0 3.156 5.466l.133.163.067.082.074.074c.368.423.761.824 1.178 1.2a10.37 10.37 0 0 0 11.11 1.615A10.37 10.37 0 0 1 8.96 32.218Zm2.496-3.393-.133-.14-.074-.067-.496-.504a16.17 16.17 0 0 1 1.03-23.207 16.007 16.007 0 0 1 1.592-1.23c.311-.207.696-.46 1.022-.637.326-.178.74-.393 1.067-.563.126-.067.244-.104.363-.163.118-.06.444-.2.555-.237 1.3-.516 2.663-.854 4.052-1.007.208 0 .578-.06.785-.067h.593c.594-.009 1.187.016 1.778.074-.916.011-1.83.093-2.734.244a16.2 16.2 0 0 0-12.051 9.141 15.904 15.904 0 0 0 1.592 15.89c.126.155.334.45.467.607.222.274.504.607.74.866a8.955 8.955 0 0 0 10.83 2.015c-3.31 2.333-8.066 1.682-10.978-1.015Zm2.008-5.333c.627.905 1.375 1.72 2.222 2.422a8.223 8.223 0 0 0 7.54 1.482 7.917 7.917 0 0 1-6.718-.193 9.33 9.33 0 0 1-2.807-2.119A14.073 14.073 0 0 1 15.922 4.01c.163-.118.415-.274.593-.385.326-.215.74-.422 1.059-.607.318-.185.548-.267.793-.37 1.496-.636 3.094-1 4.718-1.075h1.378l.51.045c.282 0 .564.074.845.11h-1.525c-1.291.083-2.566.332-3.793.742a13.793 13.793 0 0 0-7.037 21.03v-.008Z"/><path d="m14.737 14.225-.415-.037v.037c.32 0 .64.022.955.067l-.54-.067Z"/><path d="M32.389 35.477c.163-.126.622-.54.8-.689l.74-.74.741-.741c.17-.2.526-.608.682-.808l.533-.696c.14-.193.467-.674.6-.867l.281-.452c.045-.059.193-.31.23-.37.037-.06.385-.689.467-.844.081-.156.363-.741.466-.948.104-.208.245-.57.349-.808 0-.081.266-.74.303-.822.037-.082.163-.474.222-.667.126-.37.238-.8.341-1.178.06-.23.17-.8.23-1.03v-.17A20.089 20.089 0 0 0 36.98 9.921a19.45 19.45 0 0 0-.859-1.333 9.975 9.975 0 0 0-.407-.57l-.43-.556c-.148-.17-.54-.644-.689-.807a9.92 9.92 0 0 0-.74-.74c-.134-.127-.364-.364-.504-.482l-.267-.223-.067-.059-.066-.052-.141-.11c-.163-.142-.378-.29-.556-.416l-.148-.096-.14-.096c-.164-.104-.43-.274-.6-.363-.171-.09-.223-.134-.304-.17l-.467-.23-.481-.215c-.349-.14-.741-.267-1.067-.385l-.593-.156-.51-.118-.52-.09a12.242 12.242 0 0 0-1.8-.133c-1.469.043-2.918.357-4.273.926a11.674 11.674 0 0 0-6.297 6.519l-.126.333c-.037.104-.126.393-.163.497-.074.266-.163.585-.214.851 0 .097-.06.245-.074.341a12.44 12.44 0 0 0-.186 1.57v.645a11.799 11.799 0 0 1 11.66 12.156A12.148 12.148 0 0 1 8.915 36.95a19.715 19.715 0 0 0 3.807 1.867 20.17 20.17 0 0 0 19.667-3.341Zm-1.63-27.718c.46.384.898.795 1.311 1.23a18.274 18.274 0 0 1-.74 25.762c-.178.163-.467.445-.66.593l-.34.281-.178.148-.082.067-.444.333a18.18 18.18 0 0 1-1.867 1.2l-.785.415a17.489 17.489 0 0 1-8.504 1.793 18.57 18.57 0 0 0 12.511-5.793 17.978 17.978 0 0 0 1.215-23.2c-.155-.222-.363-.452-.533-.66l-.134-.162-.066-.082-.067-.081A10.37 10.37 0 0 0 19.1 6.766a10.37 10.37 0 0 1 11.659.993Zm-2.963 2.963c.237.185.474.407.696.607A16.132 16.132 0 0 1 23.9 37.684l-.37.156-.09.037-.096.037-.185.074c-.193.067-.548.208-.74.267a15.32 15.32 0 0 1-6.275.667 18.167 18.167 0 0 0 3.111-.326 16.207 16.207 0 0 0 11.615-9.112 15.881 15.881 0 0 0-1.815-16.148c-.133-.185-.333-.414-.474-.592-.14-.178-.437-.49-.637-.741a8.956 8.956 0 0 0-10.696-1.837c3.133-2.222 7.63-1.778 10.555.585l-.007-.03ZM19.87 37.247l.615-.259.6-.289c.23-.11.504-.274.74-.4l.704-.437c.2-.14.482-.333.674-.481a13.748 13.748 0 0 0 3.37-18.334l-.362-.548-.393-.526-.415-.518a10.193 10.193 0 0 0-1.392-1.378 8.236 8.236 0 0 0-7.526-1.481 8.09 8.09 0 0 1 7.978.896 11.116 11.116 0 0 1 2.066 1.926 14.015 14.015 0 0 1-6.437 22.437c-1.991.615-4.1.755-6.155.407 2.026.075 4.047-.26 5.94-.985l-.007-.03Z"/></g></svg>
