<svg version="1.0" id="Layer_1" xmlns="http://www.w3.org/2000/svg" xmlns:xlink="http://www.w3.org/1999/xlink" x="0px" y="0px" viewBox="114 132 774 450" style="enable-background:new 0 0 1002 714;" xml:space="preserve">
<style type="text/css">
	.st0{fill:#212F63;}
	.st1{fill:#BF2032;}
	.st2{fill:none;}
</style>
<path class="st0" d="M482.1,373.7l47.2,174.6h-34.9l-9-39.6h-48.9l-9.5,39.6h-33.8l48.4-174.6L482.1,373.7L482.1,373.7z
	 M461.1,404.2L443,480.3h35.7L461.1,404.2z M228.4,373.7h34.5v112c0,21.7-5.1,38.3-15.2,49.8c-10.1,11.5-24.7,17.2-43.8,17.2
	c-19.1,0-33.7-5.7-43.8-17.2C150,524,145,507.4,145,485.7v-112h34.5v114.5c0,11.4,2,19.9,6,25.4c4,5.5,10.1,8.3,18.5,8.3
	s14.5-2.8,18.5-8.3s6-14,6-25.4L228.4,373.7L228.4,373.7z M318.4,471.3c-13.9-4.1-24-10.2-30.6-18.5c-6.5-8.2-9.8-19-9.8-32.4
	c0-15.5,5.1-27.9,15.2-37.2s23.5-13.9,40.1-14c15.8,0,28.1,4,36.9,12c8.8,8,14.4,20.3,16.6,36.9l-32.8,4.4
	c-1.6-9.1-4.1-15.6-7.3-19.5c-3.3-3.8-8.1-5.8-14.4-5.8c-6.4,0-11.3,1.8-14.7,5.5c-3.4,3.7-5.2,9.1-5.2,16.3c0,6,1.3,10.7,3.9,14.1
	c2.6,3.3,7.1,6,13.5,8l18.6,5.9c9.9,3.1,17.9,7,24,11.6c5.8,4.4,10.4,10.3,13.2,17c2.8,6.7,4.2,14.7,4.2,24c0,16.3-5,29.2-15,38.8
	s-23.6,14.2-40.9,14.2c-36.4,0-55.7-18.9-58.2-56.7h34.2c0.7,10,3.1,17.2,7,21.8c3.9,4.6,9.6,6.8,17.5,6.8c6.7,0,11.9-2,15.6-6
	s5.5-9.7,5.5-17.2c0-6.7-1.5-12-4.5-15.9s-7.8-6.8-14.3-8.8l-18.1-5.4L318.4,471.3z"></path>
<path class="st1" d="M526.9,377.7l6.8,31.4h276.7v-31.4H526.9z M542.1,447.5l6.9,31.4h261.5v-31.4L542.1,447.5z M557.9,519.9
	l6.8,31.4h245.9v-31.4L557.9,519.9z"></path>
<path class="st0" d="M849.5,391.1h2.7c2.9,0,4.4-1,4.4-3c0-0.8-0.3-1.6-0.9-2.1c-1-0.6-2.1-0.9-3.2-0.8h-2.8L849.5,391.1
	L849.5,391.1z M845.4,399.9v-17.7h7.7c1.9-0.1,3.9,0.4,5.6,1.3c1.6,0.9,2.5,2.6,2.3,4.4c0,1.1-0.4,2.1-1,2.9
	c-0.7,0.9-1.7,1.6-2.8,1.9l4.7,7.2h-4.7l-3.6-6.1h-4.2v6.1L845.4,399.9L845.4,399.9z M852.7,405.2c2,0,4.1-0.3,6-1
	c1.8-0.6,3.4-1.6,4.8-2.8c1.4-1.2,2.5-2.7,3.2-4.4c1.6-3.6,1.6-7.7,0-11.3c-0.8-1.7-1.9-3.2-3.2-4.4c-1.4-1.3-3-2.3-4.8-2.9
	c-1.9-0.7-4-1.1-6-1c-2,0-4.1,0.3-6,1c-3.5,1.3-6.4,3.9-7.9,7.4c-0.8,1.8-1.2,3.7-1.2,5.6c0,2,0.4,3.9,1.2,5.7
	c1.5,3.4,4.4,6,7.9,7.2C848.6,404.9,850.6,405.3,852.7,405.2L852.7,405.2z M852.7,408.5c-2.5,0-5.1-0.4-7.4-1.3
	c-2.2-0.8-4.2-2-6-3.5c-1.7-1.5-3.1-3.3-4.1-5.4c-2-4.4-2-9.5,0-13.9c1-2,2.4-3.9,4.1-5.4c1.8-1.5,3.8-2.7,6-3.5
	c2.4-0.9,4.9-1.3,7.4-1.3c2.6,0,5.1,0.4,7.5,1.3c2.2,0.8,4.3,2,6.1,3.5c1.7,1.5,3.1,3.3,4.1,5.4c1.1,2.2,1.6,4.6,1.6,7
	c0.1,2.4-0.5,4.8-1.6,7c-1,2-2.4,3.9-4.1,5.4c-1.8,1.5-3.9,2.7-6.1,3.5C857.7,408.1,855.2,408.5,852.7,408.5L852.7,408.5z"></path>
<path class="st0" d="M649.4,211.2c15.1,0,26.1,3.9,33.3,11.6c7.1,7.8,10.7,19.9,10.7,36.5v83.9h-29.4v-14.2
	c-3.5,5.3-8.2,9.7-13.6,12.9c-5.3,3-11.2,4.6-17.3,4.5c-10.5,0-18.7-3.4-24.5-10.1c-5.9-6.7-8.8-16.3-8.8-28.2
	c0-12.9,4.3-23.1,12.9-30.5c8.6-7.4,20.9-11.8,36.9-13.1l13.3-1V256c0-7.7-1.1-13.3-3.4-16.9c-2.3-3.6-6-5.4-11-5.4
	c-4.6,0-8.1,1.4-10.5,4.2c-2.5,2.8-4.2,7.2-5.2,13.3l-29-2.5c2-12.8,6.7-22.2,14.2-28.4C625.1,214.2,635.8,211.1,649.4,211.2
	L649.4,211.2z M662.7,284.1l-9.8,1c-7.4,0.6-13.1,2.8-17.1,6.4s-6,8.4-6,14.5c0,5.4,1.1,9.5,3.5,12.4s5.6,4.3,10.1,4.3
	c5.6,0.2,10.9-2.5,14.1-7c3.5-4.7,5.3-11,5.3-19L662.7,284.1L662.7,284.1z M474.4,211.2c15.4,0,27,5.3,34.7,16
	c7.8,10.7,11.7,26.4,11.6,47.1v12.5H455c0.3,24.9,6.7,37.3,18.9,37.3c4.9,0,8.6-1.5,11-4.5s4.1-8.1,4.9-15.4h30.4
	c-1.3,14.1-6,24.7-13.9,32c-7.9,7.3-18.9,10.9-33,10.9c-17,0-29.6-5.5-37.8-16.4c-8.2-11-12.3-27.7-12.3-50.4
	c0-22.6,4.3-39.8,13-51.5C445.1,217,457.8,211.2,474.4,211.2L474.4,211.2z M473.4,233.8c-6,0-10.2,2.6-13,7.7s-4.5,13.7-5.2,25.6
	h34.9c0-11.6-1.4-20.1-4-25.3C483.3,236.6,479.1,233.9,473.4,233.8L473.4,233.8z M367,211.2c15.4,0,27,5.3,34.7,16
	c7.8,10.7,11.7,26.4,11.6,47.1v12.5h-65.8c0.3,24.9,6.7,37.3,18.9,37.3c4.9,0,8.6-1.5,11-4.5s4.1-8.1,4.9-15.4h30.4
	c-1.3,14.1-6,24.7-13.9,32c-7.9,7.3-18.9,10.9-33,10.9c-17,0-29.6-5.5-37.8-16.4c-8.2-11-12.3-27.7-12.3-50.4
	c0-22.6,4.3-39.8,13-51.5C337.6,217,350.3,211.1,367,211.2L367,211.2z M366,233.8c-6,0-10.2,2.6-13,7.7s-4.5,13.7-5.2,25.6h34.9
	c0-11.6-1.3-20.1-4-25.3C375.9,236.6,371.7,233.9,366,233.8L366,233.8z M146.6,168.2v175.2h34.6v-71.2h54.4v-30.9h-54.4v-42.2h58.4
	v-30.9H146.6z M248.7,343.2V215h31.4v17.2c3.4-6.2,7.5-11,12.3-14.4c4.3-3.2,9.5-4.9,14.9-5c3,0,5.9,0.5,8.8,1.2l-3.7,29.5
	c-3.1-0.7-6.4-1.1-9.6-1c-5.9-0.1-11.6,2.3-15.6,6.6c-4.2,4.4-6.4,10.3-6.2,16.4v77.5h-32.3V343.2z M545.4,343.2V198.9h-39.8v-30.9
	h114.1v30.9H580v144.3L545.4,343.2z M774.9,343.2L753.8,301l-20.1,42.2h-31.9l36.1-65l-33.9-63.1h34.3l18.4,38.8l18.9-38.8h31.9
	l-34.8,61.4l36.6,66.8L774.9,343.2z"></path>
<rect x="114" y="132" class="st2" width="774" height="450"></rect>
</svg>
