<svg viewBox="66.143 66.143 4134.4 4134.4" version="1.1" xmlns="http://www.w3.org/2000/svg" xmlns:xlink="http://www.w3.org/1999/xlink" xml:space="preserve" xmlns:serif="http://www.serif.com/" style="fill-rule:evenodd;clip-rule:evenodd;stroke-linejoin:round;stroke-miterlimit:2;">
    <g transform="matrix(4.16667,0,0,4.16667,0,0)">
        <path d="M839.201,296.487C880.014,358.324 903.835,432.365 903.835,512C903.835,728.405 728.404,903.835 512,903.835C376.792,903.835 257.583,835.352 187.157,731.183L100.38,789.036C189.506,921.201 340.598,1008.13 512,1008.13C786.002,1008.13 1008.13,786.002 1008.13,512C1008.13,410.962 977.846,317.031 925.976,238.638L839.201,296.487Z" style="fill:rgb(88,183,231);fill-rule:nonzero;"/>
        <path d="M120.164,512C120.164,295.596 295.594,120.165 512,120.165C648.769,120.165 769.108,190.284 839.201,296.487L925.976,238.638C837.18,104.438 684.963,15.875 512,15.875C237.998,15.875 15.874,237.998 15.874,512C15.874,614.601 47.028,709.921 100.38,789.036L187.157,731.183C144.864,668.625 120.164,593.198 120.164,512Z" style="fill:rgb(0,111,185);fill-rule:nonzero;"/>
        <path d="M276.147,669.236L731.268,669.236C740.428,669.236 747.854,661.81 747.854,652.648L747.853,354.765L276.147,669.236Z" style="fill:rgb(27,43,57);fill-rule:nonzero;"/>
        <path d="M511.999,511.999L276.147,354.764L276.147,669.233C278.558,667.627 280.39,666.404 276.147,669.233L276.147,669.235L511.999,511.999Z" style="fill:rgb(253,184,18);fill-rule:nonzero;"/>
    </g>
</svg>
