<svg version="1.1" id="Vrstva_1" xmlns="http://www.w3.org/2000/svg" xmlns:xlink="http://www.w3.org/1999/xlink" viewBox="0 0 45 22" xml:space="preserve">
  <path fill="#FF3D00" class="st0" d="M35.7,14.8c4.5,1.3,8.4-1.7,9-2.7c0,2.4-3.6,7-7.7,6.9c-3.9,0-5.1-0.7-7.1-0.8   c-1.3-0.1-2.8,0.2-4.3,1c1.2-2,2.6-3.2,4.5-3.2c0.4,0,0.8,0.1,0.9-0.1c-2.6-1-5.3-0.9-8.3,0.2c-5.6,2.2-5.6,5.3-10.8,4.7   c-5.5-0.7-5.5-6.3-9.5-6.3c-1.1,0-1.6,0.1-2.4,0.3c0.9-1.2,2.1-1.9,3.6-1.9c2.3,0,4.7,3.2,7.2,3.2c2.5,0,3.3-2.1,3.2-3.2   c0-0.6-0.7-2.2-2.5-2.2c-0.5,0-1.2,0.1-1.9,0.2c2.1-3.8,5.2-5.6,9.2-5.6C25.6,5.4,31.2,13.4,35.7,14.8z" />
</svg>
