<svg viewBox="0 0 630 630" version="1.1" xmlns="http://www.w3.org/2000/svg" xmlns:xlink="http://www.w3.org/1999/xlink" xml:space="preserve" xmlns:serif="http://www.serif.com/" style="fill-rule:evenodd;clip-rule:evenodd;">
    <g id="Plan-de-travail1" serif:id="Plan de travail1" transform="matrix(0.853724,0,0,0.974434,31.6697,53.0878)">
        <rect x="-37.096" y="-54.481" width="737.944" height="646.529" style="fill:none;"/>
        <clipPath id="_clip1">
            <rect x="-37.096" y="-54.481" width="737.944" height="646.529"/>
        </clipPath>
        <g clip-path="url(#_clip1)">
            <g transform="matrix(1.17134,0,0,1.02624,-34.8337,27.6182)">
                <path d="M444.343,3.402L444.343,3.044L430.222,3.044C429.693,3.044 429.217,2.999 428.696,2.999L428.696,3.044L145.458,3.044C48.447,3.044 0,42.167 0,120.394L0,335.835C0,413.565 48.459,452.457 145.458,452.457L429.066,452.457L429.066,452.319C525.72,452.201 574.093,413.374 574.093,335.827L574.093,120.386C574.085,46.42 530.819,7.459 444.343,3.402ZM413.301,343.115L178.075,343.115L178.075,109.923L413.301,109.923L413.301,343.115Z" style="fill:rgb(39,56,125);fill-rule:nonzero;"/>
                <path d="M271.273,283.001C271.273,283.001 449.914,385.616 487.125,467.001L626.137,467.001C614.613,439.675 548.358,318.116 271.273,283.001Z" style="fill:rgb(236,39,39);fill-rule:nonzero;stroke:white;stroke-width:5.83px;"/>
            </g>
        </g>
    </g>
</svg>
