<svg viewBox="0 0 512 354" version="1.1" xmlns="http://www.w3.org/2000/svg" xmlns:xlink="http://www.w3.org/1999/xlink" xml:space="preserve" style="fill-rule:evenodd;clip-rule:evenodd;stroke-linejoin:round;stroke-miterlimit:2;">
    <g transform="matrix(1,0,0,1,-785.428,-170.202)">
        <g>
            <path d="M1231.56,170.203L1221.16,170.203C1218.05,170.219 1215.24,172.104 1214.04,174.974L1073.38,512.913C1072.99,513.86 1072.78,514.877 1072.78,515.904C1072.78,520.147 1076.26,523.644 1080.5,523.667L1138.98,523.667C1165.52,523.674 1189.58,507.64 1199.8,483.143L1292.38,261.364C1295.71,253.351 1297.43,244.758 1297.43,236.081C1297.43,199.946 1267.7,170.209 1231.56,170.203ZM1181.71,170.203L1084.14,170.203C1081.03,170.219 1078.21,172.104 1077.01,174.974L936.283,512.913C935.888,513.86 935.684,514.877 935.684,515.904C935.684,520.147 939.162,523.644 943.405,523.667L1040.9,523.667C1044.02,523.65 1046.83,521.766 1048.03,518.895L1188.83,180.814C1189.19,179.907 1189.37,178.94 1189.37,177.965C1189.37,173.744 1185.93,170.256 1181.71,170.203Z" style="fill:rgb(47,159,160);fill-rule:nonzero;"/>
            <path d="M897.896,174.903C896.706,172.035 893.878,170.169 890.774,170.203L793.131,170.203C793.104,170.202 793.076,170.202 793.048,170.202C788.868,170.202 785.428,173.642 785.428,177.823C785.428,178.825 785.625,179.817 786.009,180.743L912.923,485.493C914.046,488.442 916.889,490.402 920.045,490.402C923.201,490.402 926.045,488.442 927.167,485.493L975.882,368.051C976.657,366.183 976.657,364.08 975.882,362.211L897.896,174.903ZM1044.39,197.551L1034.99,174.903C1033.81,172.035 1030.98,170.169 1027.87,170.203L930.158,170.203C930.131,170.202 930.103,170.202 930.075,170.202C925.895,170.202 922.455,173.642 922.455,177.823C922.455,178.825 922.652,179.817 923.036,180.743L981.366,320.833C982.488,323.782 985.332,325.742 988.488,325.742C991.643,325.742 994.487,323.782 995.61,320.833L1044.47,203.391C1045.22,201.513 1045.19,199.41 1044.39,197.551Z" style="fill:rgb(76,159,90);fill-rule:nonzero;"/>
        </g>
    </g>
</svg>