<svg xmlns="http://www.w3.org/2000/svg" viewBox="56.84 5.48 47.92 40.33"><path fill="#57bae5" d="M74.53 9.56l-2.3 8.99-15.39 2.05L74.53 9.56z"/><path fill="#005472" d="M82.54 29.49l-4.98-2.11 1.14 18.43 3.84-16.32z"/><path fill="#34afe4" d="M72.23 18.55l-4.05 8.51-11.34-6.46 15.39-2.05z"/><path fill="#0076a7" d="M77.56 27.38l-9.38-.32L78.7 45.81l-1.14-18.43z"/><path fill="#009de2" d="M72.23 18.55l5.33 8.83-9.38-.32 4.05-8.51z"/><path fill="#7acdf2" d="M74.53 9.56L87.3 11.2l-15.07 7.35 2.3-8.99zm26.75-4.08l-8.04 9.56.57-8.85 7.47-.71z"/><path fill="#7acdf2" d="M101.28 5.48L105.74 0l-.98 5.91-3.48-.43z"/><path fill="#00abe7" d="M96.95 10.45l7.81-4.54-3.48-.43-4.33 4.97z"/><path fill="#0076a7" d="M82.54 29.49l.38-10.97-5.36 8.86 4.98 2.11z"/><path fill="#008dbe" d="M82.92 18.52l-5.36 8.86-5.33-8.83 10.69-.03z"/><path fill="#57bae5" d="M87.3 11.2l-4.38 7.32-10.69.03L87.3 11.2z"/><path fill="#00698d" d="M82.92 18.52l-.38 10.97 9.8 10.27-9.42-21.24"/><path fill="#09a1cb" d="M97.47 34.02l-5.18-13.16.05 18.9 5.13-5.74zm-4.23-18.98l-.95 5.82-9.37-2.34 10.32-3.48z"/><path fill="#8bdaff" d="M97.99 22.95l-5.7-2.09.95-5.82 4.75 7.91z"/><path fill="#7acdf2" d="M100.03 33.65l-6.21-10.18h3.54l2.67 10.18z"/><path fill="#57bae5" d="M88.47 9.04l4.77 6 .57-8.85-5.34 2.85z"/><path fill="#008dbe" d="M92.29 20.86l-9.37-2.34 9.42 21.24-.05-18.9z"/><path fill="#0076a7" d="M97.47 34.02l2.07 1.18-7.17 4.56 5.1-5.74z"/><path fill="#57bae5" d="M100.03 33.54l-7.74-12.68 5.18 13.16 2.56-.48z"/><path fill="#7acdf2" d="M88.47 9.04l-5.55 9.48 10.32-3.48-4.77-6z"/></svg>