<svg viewBox="0 0 90 90" xmlns="http://www.w3.org/2000/svg" xmlns:xlink="http://www.w3.org/1999/xlink"><defs><linearGradient x1="23.858%" y1="76.012%" x2="85.386%" y2="14.656%" id="c"><stop stop-color="#1255BA" offset="0%"/><stop stop-color="#06D2D1" offset="100%"/></linearGradient><linearGradient x1=".056%" y1="49.955%" x2="100%" y2="49.955%" id="d"><stop stop-color="#FFF" offset="0%"/><stop stop-color="#9DD8F2" offset="100%"/></linearGradient><linearGradient x1="-10.714%" y1="48.431%" x2="123.214%" y2="48.431%" id="e"><stop stop-color="#FFF" offset="0%"/><stop stop-color="#9DD8F2" offset="100%"/></linearGradient><circle id="a" cx="45" cy="45" r="44"/></defs><g fill="none" fill-rule="evenodd"><mask id="b" fill="#fff"><use xlink:href="#a"/></mask><use fill="#FFF" fill-rule="nonzero" xlink:href="#a"/><g mask="url(#b)" fill-rule="nonzero"><g transform="translate(1 .915)"><path d="m15.47 27.995-3.59 2.48c-1.934 1.378-5.525 4.96-7.183 7.163A45.716 45.716 0 0 0 .553 44.25l-.552 1.378v-1.653a44.022 44.022 0 0 1 12.983-31.408C26.201-.253 46.4-3.665 63.07 4.188s26.31 25.32 24.777 43.644c-.388 3.97-1.012 7.844-2.384 11.561-2.75 7.453-7.681 14.182-13.97 19.143a44.454 44.454 0 0 1-12.537 6.954c-5.383 1.939-11.434 2.502-17.242 2.291 0 0 2.21-30.306 12.707-30.306 12.707-.276 12.431-.276 15.194-1.378 2.762-1.102 6.077-3.857 8.287-6.612.829-1.377.829-2.204.276-3.581-.829-1.929-4.972-4.96-10.773-7.715l-3.592-1.653c-1.105-.55-.828 0-2.762-4.683-1.381-2.48-1.934-3.307-3.867-4.409a40.425 40.425 0 0 0-31.216-4.132l-1.381.55c-1.105 0-8.564 3.858-9.116 4.133Z" fill="url(#c)"/><path d="M60.222 57.2h-5.525l-13.812.55a26.562 26.562 0 0 0-10.221 3.858c-2.21 1.653-5.525 4.959-7.182 7.163a30.285 30.285 0 0 0-2.21 3.857C14.366 92.189 41.724 87.809 42 88.085h7.735c3.215-.469 6.195-1.416 9.221-2.595-5.765-2.161-9.721-7.822-9.784-13.964.02-6.715 4.547-12.586 11.05-14.327Z" fill="url(#d)"/><path d="M14.918 29.373V28.27l-2.762 2.204a28.167 28.167 0 0 0-2.487 1.929 10.24 10.24 0 0 0 15.47 2.48 6.645 6.645 0 0 1-6.744.258 6.61 6.61 0 0 1-3.477-5.77Z" fill="url(#e)"/><path d="M47.239 33.506c-1.658.826-2.763 2.204-1.934 2.755l3.591.55 3.868-.275c1.105-.55 1.657-1.102 1.38-1.653 0-.55-.275-.55-2.21-1.102-2.21-.55-3.867-.826-4.695-.275Z" fill="#2296E2"/><ellipse fill="#FFF" cx="21.548" cy="29.373" rx="6.63" ry="6.612"/></g></g></g></svg>