<svg viewBox="0 0 48 48" xmlns="http://www.w3.org/2000/svg">
  <g fill="none" stroke="#000" stroke-linecap="round" stroke-linejoin="round">
    <path d="m40.5 5.5h-33c-1.1046 0-2 .8954-2 2v33c0 1.1046.8954 2 2 2h33c1.1046 0 2-.8954 2-2v-33c0-1.1046-.8954-2-2-2z"/>
    <path d="m33.5129 42.5c-8.3112-2.9306-9.2609-9.0319-2.727-13.1114l3.1327-.1352c1.7335-.0748 3.3912-1.2065 4.3497-3.0651 1.3435-2.605-3.6516-4.2228-5.0709-5.1836-.5425-.3838-1.4649-1.3522-1.4649-1.3522-1.5091-1.393-2.1496-3.4985-4.6878-4.1469-3.298-.8424-7.3552-1.4059-11.2743-.0465m-2.838 1.3953c-2.5004 1.132-6.2242 5.462-7.4324 8.3423"/>
    <path d="m30.7859 29.3886c-7.4647-.6152-17.4554.9128-13.3195 13.1114"/>
    <path d="m16.5196 19.3378c-.6808.7207-1.7169.8823-2.5594.3992s-1.2968-1.4993-1.122-2.5102.9381-1.7828 1.8856-1.9068 1.8601.4286 2.2544 1.365"/>
    <path d="m26.3461 19.3144 1.6452.3831c1.3341.3107.6048 1.3131-.0451 1.3072l-2.4566-.0225c-.7747-.0071-.5551-1.9965.8564-1.6678z"/>
  </g>
</svg>
