<svg id="Layer_1" data-name="Layer 1" xmlns="http://www.w3.org/2000/svg" viewBox="0 0 100 100"><defs><style>.cls-1{fill:#0a3d6b;}.cls-2{fill:#658d1b;}.cls-3{fill:#ea7600;}</style></defs><g id="Group_6" data-name="Group 6"><g id="Ellipse_1" data-name="Ellipse 1"><path class="cls-1" d="M50,100a50,50,0,1,1,50-50A50.06,50.06,0,0,1,50,100ZM50,4A46,46,0,1,0,96,50,46.06,46.06,0,0,0,50,4Z"></path></g><g id="Group_7" data-name="Group 7"><path id="Path_20" data-name="Path 20" class="cls-2" d="M52.47,98.92a4.44,4.44,0,0,1-4.4-1.31C41,91.3,36.25,83.5,32.91,74.81A73.2,73.2,0,0,1,28,48.15c0-9.83,1.9-19.26,6.7-28l.38-.69a4,4,0,0,1,.32-.4c-.3,10.75,1.25,21.21,3,31.67A181,181,0,0,1,70.4,26a43.19,43.19,0,0,1,5.7-2.73,3.41,3.41,0,0,1,1.9,0,68.19,68.19,0,0,0-25.4,33.9C47.84,71,47.28,85,52.47,98.92"></path><path id="Path_21" data-name="Path 21" class="cls-3" d="M48.73,33.8a8.4,8.4,0,1,1,0-16.8h0a8.4,8.4,0,0,1,0,16.8"></path></g></g></svg>
