<svg version="1.1" xmlns="http://www.w3.org/2000/svg" xmlns:xlink="http://www.w3.org/1999/xlink" viewBox="0 0 24 24"><title>Binance icon</title><path d="M7.34161 10.0845L12.0029 5.42516L16.666 10.0883L19.3767 7.37572L12.0029 0L4.62903 7.37383L7.34161 10.0845Z" fill="#F3BA2F"/>
<path d="M0 12.0009L2.71069 9.28833L5.42327 12.0009L2.71069 14.7116L0 12.0009Z" fill="#F3BA2F"/>
<path d="M7.34161 13.9155L12.0029 18.5767L16.666 13.9136L19.3786 16.6224L12.0047 23.9981L4.62903 16.6281L7.34161 13.9155Z" fill="#F3BA2F"/>
<path d="M18.5768 12.0009L21.2875 9.28833L24.0001 11.999L21.2875 14.7135L18.5768 12.0009Z" fill="#F3BA2F"/>
<path d="M14.7533 11.9991L12.0028 9.2467L9.96885 11.2807L9.7338 11.5138L9.25232 11.9953L12.0028 14.7439L14.7533 12.001V11.9991Z" fill="#F3BA2F"/>
</svg>
