<svg clip-rule="evenodd" fill-rule="evenodd" stroke-linejoin="round" stroke-miterlimit="2" version="1.1" viewBox="1.4932 3.3253e-8 497.01 500" xml:space="preserve" xmlns="http://www.w3.org/2000/svg">
    <g transform="matrix(17.857 0 0 17.857 1.8393 -7.9585e-12)">
        <path d="m13 0.3c0.5-0.4 1.2-0.4 1.8 0 1.4 0.9 2.7 1.8 3.9 2.8 0 0 0.3 0.2 0.4-0.2 0 0-0.1-1.2 0.1-1.6 0.1-0.3 0.4-0.5 0.7-0.5 0 0 1.5 0.1 2.5 0.2 0.4 0.1 0.8 0.4 0.8 0.9 0 0 0.6 4.2 0.8 5.7 0 0 0.1 0.8 1.2 2.1 0 0 2.3 3.2 2.5 3.8 0 0 0.5 1.1-0.6 1.2 0 0-2.1 0.2-2.3 0.2-0.3 0-0.5 0.3-0.5 0.6 0 0-0.1 7.3-0.6 10.9 0 0-0.1 1.4-0.9 1.4 0 0-2.1-0.1-2.6-0.1 0 0-0.2 0-0.2-0.3 0 0 1.1-11.5 0.3-17.2 0 0 0-0.7-0.6-0.9 0 0-0.5-0.2-1 0.5 0 0-3.4 4.3-3.4 10.3 0 0-0.1 1.8 0.2 2.3 0 0 0.2 0.3 1.1 0.4l1.1 0.2s0.2 0 0.2 0.3c0 0-0.2 3.4-0.3 4 0 0.1 0 0.3-0.1 0.4 0 0 0 0.1-0.4 0.1h-5.5s-0.2 0-0.3-0.1-0.3-4.3-0.3-4.9c0-0.1 0.1-0.2 0.2-0.3 0.8-0.5 1.3-1.3 1.4-2.2 0 0 0.1-0.3 0-1.9 0 0 0.2-6.4 0.2-7.5 0 0 0-0.3-0.4-0.4-0.2 0-0.4 0.1-0.5 0.3 0 0-0.3 4.2-0.2 5.9 0 0 0.1 1.1-0.7 1.1 0 0-0.7 0.1-0.8-0.8 0 0 0.1-4.1 0.2-6.2 0-0.2-0.2-0.4-0.5-0.4-0.2 0-0.5 0.1-0.5 0.4 0 0-0.3 4-0.2 6 0 0 0.1 1-0.7 1 0 0-0.7 0.1-0.7-0.8 0 0 0.2-5.7 0.2-6.1 0-0.3-0.2-0.5-0.4-0.5s-0.5 0.1-0.5 0.4c0 0-0.3 6.8-0.2 8.8 0 0 0 2 1.5 2.9 0 0 0.2 0.1 0.2 0.3 0 0 0.2 3.6 0.3 4.7 0 0 0.1 0.3-0.2 0.3l-3.7 0.2s-0.6 0-0.8-0.7c-0.1-0.7-0.8-6.7-0.7-11.5 0-0.3-0.2-0.6-0.5-0.6 0 0-1.9-0.2-2.4-0.3-0.4-0.1-0.7-0.6-0.6-1 0-0.1 0-0.1 0.1-0.2 0 0 4.2-8 12.9-13.4z" fill="#f96600" fill-rule="nonzero"/>
    </g>
</svg>
