<svg viewBox="0 0 499 512" version="1.1" xmlns="http://www.w3.org/2000/svg" xmlns:xlink="http://www.w3.org/1999/xlink" xml:space="preserve" style="fill-rule:evenodd;clip-rule:evenodd;stroke-linejoin:round;stroke-miterlimit:2;">
    <g transform="matrix(1,0,0,1,-2224.04,-824)">
        <path d="M2543.7,1279.33C2525.17,1298.11 2499.87,1308.68 2473.5,1308.68C2447.13,1308.68 2421.83,1298.11 2403.3,1279.33C2383.97,1260.15 2358.91,1247.77 2331.92,1244.1L2331.92,1271.52C2350.81,1275.16 2369.16,1284.24 2383.87,1298.77C2407.53,1322.63 2439.8,1336.05 2473.41,1336C2507.19,1336 2538.98,1322.74 2562.95,1298.77C2576.4,1285.39 2593.43,1276.18 2611.99,1272.25L2611.99,1244.46C2586.93,1248.64 2562.95,1260.08 2543.52,1279.33L2543.7,1279.33ZM2543.7,1209.95C2525.17,1228.72 2499.87,1239.3 2473.5,1239.3C2447.13,1239.3 2421.83,1228.72 2403.3,1209.95C2354.09,1160.89 2273.26,1160.89 2224.04,1209.95L2243.47,1229.39C2282,1190.92 2345.34,1190.92 2383.87,1229.39C2407.53,1253.25 2439.8,1266.67 2473.41,1266.62C2507.19,1266.62 2538.98,1253.36 2562.95,1229.39C2601.48,1190.92 2664.82,1190.92 2703.35,1229.39L2722.78,1209.95C2673.56,1160.89 2592.74,1160.89 2543.52,1209.95L2543.7,1209.95ZM2603.64,1046.67L2603.09,896.468L2539.52,896.468L2539.34,824L2408.57,824.363L2408.57,897.013L2345,897.013L2345.36,1047.22L2286.34,1079.18L2305.95,1150.02C2315.84,1149.31 2325.78,1149.8 2335.56,1151.47L2319.57,1093.35L2460.15,1017.43L2460.51,1199.78L2488.85,1199.78L2488.3,1017.43L2629.43,1092.62L2614.17,1149.29C2623.77,1148.78 2633.4,1149.38 2642.87,1151.11L2662.84,1078.28L2603.45,1046.67L2603.64,1046.67ZM2474.32,977.654L2373.7,1032.14L2373.33,925.347L2408.75,925.347L2539.52,924.802L2574.94,924.802L2575.12,1031.41L2474.32,977.654ZM2511.01,852.333L2511.19,896.65L2436.9,896.831L2436.9,852.515L2511.01,852.515L2511.01,852.333Z" style="fill:rgb(47,190,255);"/>
    </g>
</svg>