<svg clip-rule="evenodd" fill-rule="evenodd" stroke-linejoin="round" stroke-miterlimit="2" version="1.1" viewBox=".0020341 .00053688 499.94 500" xml:space="preserve" xmlns="http://www.w3.org/2000/svg">
    <g transform="matrix(6.2484 0 0 6.2484 -1003.1 -182.08)">
        <path d="m200.54 109.16c-22.1 0-40.01-17.91-40.01-40.01 0-22.09 17.91-40.01 40.01-40.01 22.09 0 40 17.92 40 40.01 0 22.1-17.91 40.01-40 40.01zm23-60.57c-5.34-5.98-12.68-9.54-20.69-10.01-8.01-0.46-15.72 2.22-21.71 7.55-5.33 4.75-8.72 11.08-9.72 18.05l-5.44-0.19 7.87 13.89 9.85-13.26-6.1-0.21c0.92-5.29 3.55-10.08 7.63-13.71 4.76-4.24 10.9-6.37 17.26-6.01 6.38 0.37 12.21 3.2 16.46 7.97s6.38 10.89 6 17.26c-0.37 6.37-3.2 12.21-7.95 16.45l4.07 4.6c5.99-5.33 9.55-12.68 10.01-20.68 0.48-7.98-2.2-15.71-7.54-21.7z" fill="#f16823" fill-rule="nonzero"/>
    </g>
</svg>
