<svg xmlns="http://www.w3.org/2000/svg" xml:space="preserve" viewBox="0 0 290.68 290.64">
  <path fill="#0055a5" d="M0 290.64h290.681V0H.001z"/>
  <path fill="#fff" d="M26.615 159.277v60.597h9.99V202.28c1.954 1.696 4.105 2.714 6.409 2.714 3.301 0 6.015-1.737 8.145-5.212 2.391-3.868 3.583-9.577 3.583-17.049 0-5.212-.956-9.903-2.822-13.9l-.326-.653-.327-.542-.219-.542-.327-.435-.326-.542-.435-.542-.326-.434-.327-.435-.434-.434-.327-.434-.434-.435-.435-.326-.434-.435-.435-.326-.434-.327-.434-.327-.542-.215-.435-.327-.434-.215-.542-.216-.542-.219-.542-.218-.543-.216-.542-.108-.542-.107-.542-.108-.65-.216h-.542l-.65-.107h-.542l-.653-.108H26.615zm9.449 8.58h.976c2.52 0 4.476 1.456 5.863 4.236 1.39 2.78 2.064 7.078 2.064 13.031 0 3.215-.393 5.755-1.303 7.492-.87 1.738-1.999 2.607-3.256 2.607-1.217 0-2.218-.824-3.041-2.391-.824-1.519-1.303-3.712-1.303-6.624v-18.351zm225.604-11.527-.823.824s-20.892 21.806-22.456 23.456v-21.37h-9.771v60.726h9.771V195.03c.26-.302 12.813-13.597 14.248-15.116.087 2.214 1.432 40.05 1.432 40.05h9.99l-2.39-63.635zm-47.652.827-.046.087-.087.042-.086.132-.132.129-.174.173-.174.174-.219.219-.215.219-.26.26-.262.306-.305.303-.303.302-.305.347-.348.348-.39.39-.781.826-.824.869-.868.914-.91.955-.956.998-1.001.997-.998 1.043-1 1.087-2.04 2.127-.998 1.043-.997 1-.956.998-.91 1-.91.914-.827.87-.782.823-.39.389-.347.393-.348.347-.305.348-.303.305-.26.306-.26.26-.262.261-.215.22-.174.173-.174.174-.132.174-.132.087-.086.132v-21.372h-9.82v60.726h9.816v-24.933c.26-.302 12.816-13.598 14.248-15.116.086 2.213 1.435 40.05 1.435 40.05h9.945l-2.39-63.646-.782.827zm-56.817 47.737-.608-.737-.521-.737-.521-.827-.435-.824-.434-.868-.393-.869-.393-.91-.302-.914-.26-.998-.261-.955-.22-1.043-.173-1.042-.132-1.088-.087-1.088-.045-1.13-.045-1.128c0-6.384 1.564-11.468 4.604-15.204 3.347-4.083 8.212-6.123 14.554-6.123h.476v-10.598h-.476c-9.904 0-17.508 3.04-22.675 9.163-4.691 5.519-7.078 13.205-7.078 22.848 0 9.296 2.606 16.983 7.686 22.762 5.387 6.081 12.816 9.208 22.199 9.208h.476v-10.64h-.476c-6.162-.003-11.027-2.088-14.46-6.258zm-78.566-47.136c-5.255 0-9.449 2.975-12.49 8.796-2.953 5.733-4.451 13.358-4.451 22.695 0 9.643 1.41 17.441 4.236 23.13 2.867 5.82 7.145 8.795 12.705 8.795 5.692 0 10.185-3.148 13.358-9.23 2.953-5.692 4.451-13.378 4.451-22.806 0-9.296-1.522-16.9-4.563-22.588l-.326-.542-.327-.542-.219-.542-.434-.434-.22-.435-.434-.434-.326-.435-.327-.434-.326-.434-.435-.435-.327-.326-.434-.327-.327-.327-.434-.326-.327-.327-.434-.327-.434-.219-.435-.215-.434-.215-.434-.216-.435-.219-.434-.219-.435-.107-.542-.22-.434-.107-.542-.108-.435-.108h-.434l-.542-.107-.542-.108h-1.077zm0 9.772c2.78 0 4.823 1.977 6.08 5.974 1.217 3.603 1.738 8.861 1.738 15.637 0 6.558-.608 12.01-1.953 16.18l-.218.434-.108.327-.108.327-.108.326-.107.327-.216.327-.108.326-.218.22-.108.326-.22.219-.107.326-.108.22-.215.215-.219.215-.108.216-.215.107-.108.216-.219.215-.215.108-.22.215-.218.108-.219.108-.108.108-.219.107h-.219l-.219.108-.215.108h-.219l-.219.108h-.764c-2.388 0-4.191-2.04-5.54-6.082-1.39-4.215-2.064-9.622-2.064-15.964 0-6.47.675-11.815 2.065-15.853 1.268-3.86 3.113-5.859 5.546-5.859zm40.907 37.364-.26-.348-.306-.39-.566-.736-.476-.827-.48-.824-.434-.868-.39-.869-.347-.91-.348-.914-.26-.998-.26-.955-.175-1.043-.173-1.042-.129-1.088-.087-1.088-.087-1.13v-1.128c0-6.384 1.519-11.468 4.605-15.204 3.301-4.083 8.166-6.123 14.508-6.123h.521v-10.598h-.521c-9.862 0-17.507 3.04-22.63 9.163-4.736 5.519-7.078 13.205-7.078 22.848 0 9.296 2.561 16.983 7.687 22.762 5.34 6.081 12.812 9.208 22.198 9.208h.476v-10.64h-.476c-6.217-.003-11.082-2.088-14.512-6.258zM26.713 70.195v61.028h11.252V80.314h13.9v50.91h11.207v-61.03zM97.526 68.6c-5.952 0-10.73 2.996-14.115 8.907-3.347 5.779-4.997 13.424-4.997 22.803 0 9.684 1.563 17.614 4.778 23.348 3.256 5.866 8.08 8.795 14.334 8.795 6.384 0 11.423-3.061 14.985-9.23 3.346-5.733 5.104-13.486 5.104-22.913 0-9.383-1.824-17.073-5.212-22.803l-.327-.543-.327-.542-.326-.542-.435-.434-.326-.542-.435-.435-.326-.434-.435-.434-.434-.435-.327-.326-.434-.435-.434-.326-.435-.327-.434-.327-.542-.326-.435-.22-.434-.326-.434-.219-.542-.219-.435-.215-.542-.22-.542-.218-.434-.108-.543-.219-.542-.107-.542-.108-.542-.108-.542-.108h-1.195l-.542-.107h-.654zm.111 10.317c3.041 0 5.192 1.957 6.624 5.866 1.303 3.562 1.953 8.754 1.953 15.53 0 6.47-.761 11.881-2.28 15.964-1.477 3.997-3.517 5.863-6.297 5.863h-.98l-.218-.108-.22-.108h-.218l-.22-.108-.215-.107-.219-.108-.218-.108-.22-.107-.218-.22-.216-.107-.219-.216-.219-.107-.107-.22-.22-.215-.218-.219-.108-.219-.219-.218-.219-.327-.108-.219-.218-.219-.108-.327-.216-.326-.107-.22-.108-.434-.219-.326-.108-.327-.107-.326-.22-.327c-1.518-4.215-2.279-9.556-2.279-15.857 0-6.47.761-11.749 2.28-15.745 1.452-3.857 3.471-5.748 6.21-5.748zm81.152-8.722v10.12h9.338v50.908h11.252V80.314h9.47V70.195zm-24.63 21.24h-6.123c-2.52 0-4.431-.564-5.606-1.693-.868-.782-1.261-1.87-1.261-3.26v-16.29H129.92v17.42c0 3.996 1.606 7.426 4.733 10.12 3.083 2.65 6.909 3.995 11.294 3.995h8.208v29.493h11.252V70.192h-11.252v21.242zm69.336-21.205-2.064 61.032h11.186s1.043-28.516 1.084-29.865h14.008c.132 1.262 3.256 29.865 3.256 29.865h11.294l-5.212-44.634v-1.626l-.108-.542v-.542l-.108-.434v-.542l-.108-.435-.107-.542-.108-.434-.108-.435-.107-.434-.108-.434-.22-.435-.107-.434-.108-.435-.219-.434-.218-.327-.22-.434-.107-.327-.219-.434-.219-.327-.327-.326-.219-.435-.218-.219-.327-.434-.219-.219-.327-.327-.326-.326-.327-.22-.219-.326-.434-.326c-2.822-2.218-6.648-3.26-11.51-3.26h-16.6zm10.752 10.098h4.017c2.909 0 4.865.935 6.081 2.714 1.001 1.477 1.672 4.299 2.065 8.253h-12.49v-1.734l.108-.326V84.89l.108-.434v-3.152l.108-.22v-.757z"/>
</svg>
