<svg xmlns="http://www.w3.org/2000/svg" xml:space="preserve" viewBox="309.36 .04 290.64 290.64">
  <path fill="#0055a5" d="M591.311.044H309.363v290.64h290.636V.045z"/>
  <path fill="#fff" d="M326.78 273.264h255.757V17.462H326.78z"/>
  <path fill="#0055a5" d="m397.41 93.954.388.91.48.869.476.91.566.956.303.434.347.477.306.48.348.479.389.476.389.48.39.475.434.48.476.521.48.48.479.521.521.521.566.521.563.522.608.521.654.563.65.521.695.563.695.563.736.608.827.567.782.608.869.563.869.608c2.126 1.477 4.562 4.563 2.738 8.861-1.824 4.344-5.212 10.425-3.173 12.816 2.044 2.387 9.25 3.604 15.162 1.258 0 0 1.261 3.736 3.433 6.123 0 0-1.042 2.04-4.43.997 0 0 1.261 3.086-.48 6.387 0 0-3.951-.695-5.692-4.343 0 0-1.564 2.866-4.733 3.864 0 0-2.606-1.345-2.04-6.558 0 0-1.911 4.65-7.819 5.432 0 0-3.388-4.299 1.043-10.078 0 0-3.215 2.822-8.948 1.477 0 0-.956-2.954 4.302-7.037 0 0-5.908-.26-8.167-5.212 0 0 2.475-3.083 8.601-2.391 0 0-5.688-1.261-6.95-8.038 0 0 4.083-2.606 10.599 1.564 0 0-1.13-2.172-3.864-4.344-2.742-2.074-6.043-8.114-4.869-16.975zm23.716 68.416-.174-.216-.128-.215-.174-.219-.129-.219-.132-.215-.132-.216-.128-.174-.129-.215-.132-.219-.128-.219-.087-.215-.132-.216-.087-.174-.132-.215-.087-.219-.087-.219c1.043 8.253 1.39 13.813 5.82 19.158 0 0 2.739-3.562.956-12.25a9.035 9.035 0 0 1-2.39-1.129s1.042 3.52.392 7.079c0-.004-1.609-1.178-2.78-9.473zm-7.732-.869-.041-.042-.042-.087-.042-.086-.087-.042-.041-.087-.087-.087-.045-.087-.087-.087-.046-.086-.086-.129-.132-.174-.129-.219-.174-.219-.128-.215-.132-.216-.174-.215-.129-.219-.128-.174-.132-.215-.042-.129-.045-.087-.087-.086-.042-.087c-.389 4.778-1.65 17.375 2.606 21.33 0 0 2.867-2.13 3.91-20.503-.608 1.042-1.696 2.126-2.217 2.735 0 0 .695 5.82-1.39 9.945-.007-.007-2.092-1.616-.83-10.432zm-10.036 9.643.306-.392.303-.477.305-.52.306-.564.26-.566.261-.608.22-.65.26-.653.219-.695.215-.695.174-.695.174-.737.347-1.435.129-.695.174-.695.132-.695.087-.65.132-.65.087-.653.086-.608.087-.563.087-.522.042-.48.045-.475.045-.393.042-.174v-.173l.042-.174v-.26l.045-.088v-.344c.476-.305.997-.695 1.477-1.087.219-.174.392-.306.608-.522 0 .476 0 .956.041 1.436-.52 7.645-1.129 15.55-3.516 19.501-2.346 3.868-6.648 5.866-6.648 5.866-4.038-7.21.824-16.854 4.907-23.585a11.956 11.956 0 0 0 1.564-.653c-1.48 5.164-4.174 11.287-3.045 16.023zm-10.032-22.111v.608l.045.128v.261l.042.042v.215l.042.087v.129l.045.045v.128l.045.046v.128l.042.045c.041.087.087.303.173.522-3.388 3.26-5.907 6.47-10.9 13.42-5.04 6.992-12.99 7.252-12.99 7.252.782-5.646 2.304-10.122 6.557-14.9 4.215-4.82 9.688-9.21 13.685-12.118 1.042.48 2.387.782 4.083.567.087 0 .26-.046.392-.046-.52.695-.868 1.39-1.042 2.044-3.04 1.737-11.815 6.21-15.377 13.379-.003.01 5.557-1.731 15.158-11.982zm-6.3-6.992.347-.65a3.5 3.5 0 0 1 .348-.521c-3.301 1.261-14.943 5.647-18.723 7.6-3.736 1.956-9.21 6.387-12.163 15.422 0 0 7.864.695 14.38-4.691 6.47-5.341 14.028-12.858 17.246-15.245a4.167 4.167 0 0 1-.74-.824s-8.775 7.777-18.07 11.12c0 0 1.998-3.562 5.647-6.21 4.476-3.18 7.818-4.222 11.728-6.001zm-6.644-5.345.041-.086.046-.129.045-.129.041-.086.042-.129.045-.132.045-.045v-.045l.042-.046.042-.086c-3.864.823-13.466 1.952-17.764 3.26-4.302 1.302-12.034 4.471-16.639 13.25 0 0 6.777 2.084 19.505-3.91 12.771-5.994 16.767-7.256 19.2-7.906a8.861 8.861 0 0 1-4.042-1.216c-5.08 2.259-11.856 4.952-18.633 5.126 0 0 3.343-2.346 6.818-3.823 3.823-1.609 7.993-3.04 11.166-3.868zm.305-6.341.216.128.215.087.216.087.26.132.216.042.215.086.216.087.219.046.219.086.26.046.22.045.26.045.128.045h.129l.132.045h.26l.174.045h.129l.132.046c-.869.566-1.696 1.303-2.478 2.258-4.517 1.304-12.162 2.694-24.8 3.607-12.643.956-19.374-1.39-19.374-1.39 4.385-2.693 11.422-5.431 16.159-6.341 4.778-.914 17.246-.782 22.674-1.564.087.087.782.608 1.87 1.261-4.65.435-14.421.869-19.505 3.388.003-.014 9.344 1.244 21.638-2.317zm-.959-7.253.129-.087.132-.045.129-.087.128-.041.132-.087.132-.045.129-.087.174-.087.128-.045.132-.087.174-.045.174-.087.128-.087.174-.042.174-.087.174-.045c-6.388-1.911-15.162-5.039-28.364-5.907-9.688-.65-16.725-.087-20.328.868 0 0 8.816 6.214 18.938 8.427 10.078 2.172 18.286.782 24.239.824.434-.608.868-1.216 1.563-1.911-6.991.041-18.678-1.738-22.848-3.128.004.007 10.168-2.165 24.457 1.918zm0-7.516v.09l.046.042v.087l.041.087v.128l.042.132.045.132.087.174.042.132.087.219.086.174.087.173.087.22.132.218.129.22.128.218.174.216.132.26.174.22.215.218.216.26.219.22.215.26.26.22.261.215.303.219.306.26.347.174.302.219.39.215.392.174c-8.993-3.91-26.716-6.168-36.185-10.164-12.858-5.3-15.203-11.99-15.203-11.99 11.12-.305 20.11 2.433 27.018 4.564 8.166 2.474 20.503 7.078 24.801 9.035-1.609.045-3.388.48-4.865 1.522-6.036-2.3-8.861-3.302-14.376-4.865-4.302-1.217-7.516-1.436-10.21-1.696 0 0 3.823 2.52 10.078 4.517 6.224 1.978 8.917 2.325 13.997 3.28zm-.695-9.817.046.045.041.087.042.087.045.045.045.087.042.087.042.087.087.086.041.087.042.087.087.129.042.087.132.219.173.173.129.216.132.174.042.132.087.086.041.087.087.087.045.087.087.087.045.087.046.087.041.045.042.087.045.045.045.087c-14.206-2.391-29.843-13.118-34.663-19.808-4.82-6.644-3.433-16.593-3.433-16.593 4.691.956 14.855 9.73 17.462 12.378 2.648 2.606 10.64 10.383 16.158 14.727l1.693 4.952c-4.691-3.777-10.293-7.992-13.813-10.64-2.694-2.04-6.731-4.865-10.686-6.255 0 0 3.649 4.778 6.648 7.123 3.433 2.739 6.904 5.084 9.771 6.648 2.572 1.38 3.875 2.207 9.042 4.68z"/>
  <path fill="#0055a5" d="m419.083 145.558.087-.087.087-.087.041-.045.087-.087.087-.087.087-.042.045-.087.087-.045.045-.087.087-.086.042-.046.087-.087.045-.045.087-.087.045-.045.087-.087c.653.87 2.821 3.607 3.91 6.342.823 2.304 1.695 5.473 2.13 7.253.434 1.87 1.695 5.601 2.519 6.904 0 0-3.475.48-6.04-2.56-2.52-2.91-3.346-5.863-3.78-8.904-.307-2.38-.174-5.681.128-7.898zm-5.473.438.087.086.041.087.087.045.042.087.042.087.086.042.042.042.042.087.087.041.041.042.042.045.045.087.087.042.042.045h.042l.045.045.045.042.042.041.041.046h.045v.045h.046l.041.041h.042v.042h.045v.042h.045v.045l.522.219.476-.132c.434-.174.827-.348 1.174-.476.522 1.348.695 2.043.869 3.26.129 1.563.476 4.04-.129 6.08-.736 2.478-2.217 3.955-3.04 4.953 0 0-2.259-2.52-2.909-4.56a11.641 11.641 0 0 1-.087-7.21c.487-1.39 1.224-2.652 1.832-3.388zm-7.774.215.216-.045h.215l.174-.045.215-.042.39-.087.392-.087.393-.128.389-.087.347-.132.348-.129.302-.174.306-.128.348-.174.26-.132.303-.174.26-.173.26-.174.261-.174c.306.782.74 1.911.435 3.43-.39 1.564-1.435 3.346-3 4.563-2.345 1.87-5.43 3.603-8.902 3.04.007 0-.775-2.564 6.088-8.948zm-2.606-4.302.045.219v.219l.045.174.042.218.042.174.045.174.045.219.042.174.087.173.045.132.041.174.087.174.045.132.087.132.042.129.045.132.087.128.042.132.045.087.087.087.042.129.045.087.045.045.042.087.041.086.045.042.046.045.041.045.042.046v.045h.045v.045c-.823.956-3.735 5.95-9.817 5.126 0 0-1.65-3.434 2.391-6.127 2.731-1.883 4.076-2.23 5.946-2.884zm.521-4.299-.302.087-.303.087-.347.045-.348.045-.347.046-.348.045h-.389l-.389.042h-.393l-.434-.042h-.39l-.215-.045h-.215l-.26-.046h-.216l-.216-.045-.219-.045-.215-.045-.26-.045-.216-.045-.26-.087-.696-.129-.219-.695c-3.082 2.565-6.818 2.996-8.08 5.3 0 0 1.565 2.866 5.603 2.345 4.041-.48 7.082-2.345 9.254-5.08.027-.39.201-1.13.42-1.693zm-6.995-3.562.087-.173.132-.174.087-.174.087-.219.128-.173.087-.216.129-.219.086-.219.133-.219.128-.26.087-.129.087-.087.045-.132.087-.132.087-.128.087-.087.087-.132.086-.129.132-.129.087-.128.132-.132.087-.087c-2.693-.48-5.08-.566-8.211.087-3.736.695-7.558 1.564-9.47 7.21 0 0 2.388 2.086 6.777 1.175 3.648-.737 6.863-2.346 8.729-4.994zm-1.606-6.168-.173-.173-.174-.129-.174-.174-.174-.173-.132-.174-.173-.22-.174-.173-.129-.174-.173-.219-.129-.219-.174-.218-.132-.22-.132-.26-.128-.219-.129-.26-.132-.261-.302-.695c-3.215-1.303-6.603-1.998-9.904-.782-3.301 1.258-4.17 2.693-4.997 3.91 0 0 3.649 3.082 7.864 3.214 4.211.094 8.076-1.123 9.771-2.38zm.998-6.647.087-.046.128-.041.087-.045h.129l.087-.042.132-.045.086-.045.133-.046h.132l.128-.045.129-.045h.087l.128-.045.132-.045h.132l.129-.046c-1.39-1.257-2.822-3.169-3.52-6.08-1.477.347-5.04.347-6.558-.22-1.563-.608-4.604-.653-6.995.956 0 0 .782 4.128 6.168 5.56 5.088 1.362 6.954 1.015 9.039.32zm-1.953-8.121.695-.48c.087-.042 1.303-.782 3.388-.914-1.738-1.345-5.908-4.82-8.82-6.429-3.169-1.779-8.468-4.211-11.207-4.562 0 0 2.565 6.644 5.474 9.34 3.085 2.784 5.212 3.826 10.47 3.045zm5.428-3.086-.216-.306-.215-.348-.26-.347-.22-.348-.173-.392-.216-.39-.215-.392-.174-.434-.174-.435-.215-.434-.174-.435-.132-.48-.174-.475-.174-.48-.128-.521-.129-.48c-.653-2.258-2.043-7.732-2.867-9.208-.823-1.436-3.822-6.384-9.643-7.951 0 0-1.522 6.47 1.39 11.683 2.513 4.44 7.68 9.132 14.109 12.173zm32.363 30.32.173.131.129.129.132.132.128.087.133.132.128.087.132.132.129.087.132.086.174.133.086.045.087.045.087.045.087.087.087.045.087.045.132.042.087.087.087.045.128.045.129.087.087.045s1.87 3.562-.39 7.819a106.499 106.499 0 0 0-5.038 11.12s-1.217-.174-2.561-6.905c-.91-4.517-2.04-5.692-3.257-7.21 1.304.65 2.346.823 2.478.823l.869.22.434-.87a9.127 9.127 0 0 0 .998-4.215c0-.434 0-.823-.046-1.174 2.085.086 3.215-.998 3.65-1.519.04-.087.086-.087.086-.129l.216.24z"/>
  <path fill="#0055a5" d="M382.467 88.915v2.05l.128 1.606c-3.475-4.39-7.6-9.685-11.509-14.595-2.693-3.343-4.952-5.341-7.516-6.995 2.171 6.21 5.994 11.165 8.687 13.597 2.693 2.474 6.603 6.644 10.425 9.209l.348 1.216a15.404 15.404 0 0 0 1.344 3.475 29.708 29.708 0 0 0 3.475 4.605 48.598 48.598 0 0 0-3.648-1.693l-1.217-.52c-10.47-5.516-20.895-17.07-25.061-25.063-4.212-8.037-2.478-17.33-1.39-22.327 4.778 4.042 11.686 11.99 14.64 16.291 3.694 5.3 8.385 12.858 11.294 18.984v.16zm147.121 34.187-.128-.087-.087-.045-.129-.087-.132-.041-.128-.087-.174-.045-.132-.087-.129-.087-.132-.045-.174-.087-.128-.045-.174-.087-.174-.087-.174-.042-.173-.087-.174-.045c6.429-1.911 15.203-5.039 28.453-5.907 9.685-.65 16.635-.087 20.284.868 0 0-8.861 6.214-18.939 8.427-10.077 2.172-18.289.782-24.283.824a10.682 10.682 0 0 0-1.519-1.911c6.992.041 18.633-1.738 22.848-3.128-.003.007-10.167-2.165-24.502 1.918zm.045-7.516v.09l-.045.042v.087l-.042.087-.045.128v.132l-.087.132-.041.174-.045.132-.087.219-.087.174-.087.173-.132.22-.087.218-.129.22-.132.218-.173.216-.174.26-.174.22-.174.218-.219.26-.215.22-.26.26-.261.22-.26.215-.262.219-.347.26-.302.174-.348.219-.347.215-.39.174c8.99-3.91 26.671-6.168 36.227-10.164 12.816-5.3 15.162-11.99 15.162-11.99-11.12-.305-20.155 2.433-27.06 4.564-8.125 2.474-20.457 7.078-24.801 9.035 1.65.045 3.433.48 4.907 1.522 6.04-2.3 8.86-3.302 14.334-4.865 4.344-1.217 7.513-1.436 10.21-1.696 0 0-3.781 2.52-10.036 4.517-6.262 1.978-8.955 2.325-13.99 3.28zm.695-9.817v.045l-.045.087-.045.087-.042.045-.087.087-.041.087-.045.087-.042.086-.087.087-.045.087-.129.22-.132.218-.174.174-.128.215-.132.174-.042.132-.087.087-.041.087-.087.087-.046.087-.086.086-.042.087-.045.087-.042.045-.045.087-.087.045-.042.087c14.203-2.39 29.84-13.118 34.663-19.807 4.865-6.644 3.475-16.593 3.475-16.593-4.69.955-14.855 9.73-17.503 12.378-2.606 2.606-10.599 10.383-16.114 14.727l-1.696 4.952c4.692-3.778 10.297-7.993 13.768-10.641 2.735-2.04 6.69-4.865 10.731-6.255 0 0-3.694 4.778-6.647 7.124-3.434 2.738-6.95 5.084-9.817 6.647-2.523 1.377-3.868 2.204-8.994 4.678zm-3.433-16.854v2.047l-.132 1.605c3.433-4.389 7.558-9.685 11.468-14.595 2.734-3.343 4.993-5.34 7.512-6.995-2.13 6.21-5.952 11.165-8.645 13.598-2.693 2.474-6.603 6.644-10.425 9.209L526.325 95c-.347 1.174-.782 2.345-1.39 3.475-.91 1.564-2.085 3.086-3.433 4.604a41.949 41.949 0 0 1 3.649-1.692l1.174-.521c10.47-5.515 20.895-17.07 25.062-25.062 4.302-8.038 2.52-17.33 1.39-22.327-4.778 4.041-11.641 11.989-14.595 16.29-3.69 5.3-8.382 12.858-11.294 18.985v.163zm-131.008 63.332-.434.434-.435.435-.48.48-.475.52-.521.522-.522.563-.521.608-.521.608-.563.653-.563.65-.521.695-.563.695-.522.737-.563.782-.52.782-.522.782-.476.827-.476.823-.48.827-.434.869-.435.869-.347.914-.348.868-.347.956-.26.91-.261.914-.174.956-.174.956-.087.955-.041.998-.042.955.087 1.001s8.427-2.651 11.943-8.861c3.475-6.168 5.606-10.123 7.083-11.513a9.8 9.8 0 0 1-2.78 0l-.782-.128c-2.172 3.909-6.43 10.338-10.252 12.555 0 0-.955-5.213 10.297-15.725a10.634 10.634 0 0 1 .695-1.435c-1.043.39-2.172.563-3.52.521m115.922-58.251-.434.91-.48.869-.476.91-.562.956-.303.434-.306.477-.347.48-.348.479-.347.476-.393.48-.434.475-.435.48-.434.521-.476.48-.48.521-.52.521-.567.521-.563.522-.608.521-.65.563-.65.521-.695.563-.695.563-.737.608-.782.567-.823.608-.869.563-.869.608c-2.171 1.477-4.562 4.563-2.738 8.861 1.824 4.344 5.213 10.425 3.17 12.816-2.04 2.387-9.296 3.604-15.204 1.258 0 0-1.258 3.736-3.388 6.123 0 0 1.042 2.04 4.43.997 0 0-1.26 3.086.477 6.387 0 0 3.954-.695 5.647-4.343 0 0 1.563 2.866 4.733 3.864 0 0 2.648-1.345 2.043-6.558 0 0 1.911 4.65 7.86 5.432 0 0 3.388-4.299-1.042-10.078 0 0 3.169 2.822 8.948 1.477 0 0 .91-2.954-4.302-7.037 0 0 5.907-.26 8.166-5.212 0 0-2.52-3.083-8.642-2.391 0 0 5.692-1.261 6.95-8.038 0 0-4.083-2.606-10.557 1.564 0 0 1.13-2.172 3.867-4.344 2.694-2.074 5.995-8.114 4.865-16.975zm-23.716 68.416.173-.216.132-.215.129-.219.174-.219.132-.215.128-.216.129-.174.132-.215.128-.219.087-.219.132-.215.087-.216.129-.174.087-.215.087-.219.086-.219c-.997 8.253-1.348 13.813-5.82 19.158 0 0-2.693-3.562-.956-12.25a7.935 7.935 0 0 0 2.391-1.129s-.997 3.52-.393 7.079c.004-.004 1.61-1.178 2.826-9.473zm7.69-.869.087-.042.045-.087.041-.086.046-.042.087-.087.041-.087.087-.087.045-.087.087-.086.042-.129.174-.174.128-.219.132-.219.174-.215.129-.216.132-.215.128-.219.132-.174.129-.215.087-.129.041-.087.046-.086.045-.087c.389 4.778 1.65 17.375-2.565 21.33 0 0-2.908-2.13-3.91-20.503.609 1.042 1.697 2.126 2.173 2.735 0 0-.695 5.82 1.39 9.945 0-.007 2.13-1.616.827-10.432zm10.077 9.643-.347-.392-.303-.477-.305-.52-.261-.564-.302-.566-.216-.608-.26-.65-.22-.653-.215-.695-.219-.695-.173-.695-.22-.737-.302-1.435-.173-.695-.132-.695-.13-.695-.086-.65-.129-.65-.086-.653-.087-.608-.087-.563-.087-.522-.045-.48-.042-.475-.045-.393-.042-.174v-.173l-.045-.174v-.26l-.042-.088v-.344c-.52-.305-.997-.695-1.477-1.087-.218-.174-.434-.306-.608-.522 0 .476 0 .956-.087 1.436.563 7.645 1.175 15.55 3.562 19.501 2.346 3.868 6.648 5.866 6.648 5.866 4.038-7.21-.824-16.854-4.952-23.585a11.666 11.666 0 0 1-1.522-.653c1.428 5.164 4.121 11.287 3.037 16.023zm10.033-22.111v.608l-.046.128v.261l-.041.042v.17l-.045.045v.17l-.042.046v.128l-.045.045v.174l-.042.045c-.045.087-.087.303-.174.522 3.388 3.26 5.908 6.47 10.901 13.42 4.994 6.992 12.99 7.252 12.99 7.252-.782-5.646-2.346-10.122-6.603-14.9-4.215-4.82-9.684-9.21-13.639-12.118-1.043.48-2.387.782-4.083.567-.174 0-.26-.046-.39-.046.522.695.87 1.39 1.043 2.044 2.996 1.737 11.815 6.21 15.377 13.379 0 .01-5.56-1.731-15.161-11.982zm6.3-6.992-.348-.65a3.484 3.484 0 0 0-.347-.521c3.26 1.261 14.897 5.647 18.678 7.6 3.78 1.956 9.209 6.387 12.163 15.422 0 0-7.864.695-14.335-4.691-6.474-5.341-14.029-12.858-17.288-15.245a3.412 3.412 0 0 0 .782-.824s8.774 7.777 18.07 11.12c0 0-1.998-3.562-5.692-6.21-4.43-3.18-7.777-4.222-11.683-6.001zm6.644-5.345-.045-.086-.042-.129-.045-.129-.087-.086-.042-.129-.045-.132-.041-.087-.046-.129c3.823.824 13.466 1.953 17.765 3.26 4.256 1.303 12.034 4.472 16.638 13.25 0 0-6.776 2.085-19.547-3.91-12.725-5.994-16.722-7.255-19.154-7.905a8.847 8.847 0 0 0 4.038-1.216c5.084 2.259 11.856 4.952 18.636 5.126 0 0-3.346-2.346-6.863-3.823a84.53 84.53 0 0 0-11.12-3.875zm-.302-6.341-.216.128-.219.087-.26.087-.22.132-.215.042-.219.086-.215.087-.216.046-.218.086-.261.046-.216.045-.26.045-.26.045-.13.045h-.305l-.129.045h-.132l-.174.046a11.019 11.019 0 0 1 2.52 2.258c4.476 1.304 12.12 2.694 24.76 3.607 12.638.956 19.372-1.39 19.372-1.39-4.388-2.693-11.422-5.431-16.158-6.341-4.733-.914-17.202-.782-22.675-1.564-.087.087-.695.608-1.824 1.261 4.604.435 14.421.869 19.46 3.388-.004-.014-9.3 1.244-21.59-2.317z"/>
  <path fill="#0055a5" d="m490.234 145.558-.132-.174-.087-.045-.087-.087-.087-.087-.042-.042-.087-.087-.045-.045-.087-.087-.041-.086-.087-.046-.045-.087-.087-.045-.045-.087-.087-.045-.042-.087c-.695.87-2.867 3.607-3.955 6.342a81.413 81.413 0 0 0-2.085 7.253c-.476 1.87-1.737 5.601-2.519 6.904 0 0 3.433.48 5.994-2.56 2.52-2.91 3.434-5.863 3.781-8.904a31.831 31.831 0 0 0-.128-7.898zm5.473.438-.042.086-.087.087-.045.045-.042.087-.087.087-.045.042-.041.042-.087.087-.045.041-.042.042-.045.045-.087.087-.042.042-.045.045h-.042l-.045.045-.042.042-.041.041-.046.046h-.045l-.041.045h-.042l-.045.041-.042.042h-.045v.042h-.087v.045l-.434.219-.522-.132c-.392-.174-.782-.348-1.174-.476-.48 1.348-.695 2.043-.827 3.26-.174 1.563-.476 4.04.132 6.08.736 2.478 2.172 3.955 2.995 4.953 0 0 2.3-2.52 2.909-4.56.695-2.126.955-4.646.087-7.21a9.775 9.775 0 0 0-1.821-3.388zm7.819.215-.216-.045h-.215l-.22-.045-.215-.042-.392-.087-.39-.087-.389-.128-.347-.087-.348-.132-.347-.129-.348-.174-.302-.128-.302-.174-.306-.132-.26-.174-.307-.173-.26-.174-.216-.174c-.302.782-.782 1.911-.434 3.43.347 1.564 1.435 3.346 2.995 4.563 2.304 1.87 5.428 3.603 8.862 3.04-.004 0 .82-2.564-6.043-8.948zm2.606-4.302-.042.219-.045.219-.042.174v.218l-.045.174-.042.174-.086.219-.046.174-.041.173-.046.132-.086.174-.042.174-.045.132-.087.132-.045.129-.087.132-.042.128-.045.132-.087.087-.042.087-.045.129-.042.087-.086.045-.046.087-.041.086-.045.042v.045l-.042.045-.045.046v.045h-.042v.045c.782.956 3.736 5.95 9.817 5.126 0 0 1.609-3.434-2.433-6.127-2.734-1.883-4.038-2.23-5.907-2.884zm-.563-4.299.302.087.348.087.347.045.348.045.347.046.348.045h.389l.39.042h.388l.435-.042h.392l.435-.045.219-.046h.26l.216-.045.215-.045.22-.045.26-.045.215-.045.22-.087.694-.129.26-.695c3.083 2.565 6.819 2.996 8.08 5.3 0 0-1.564 2.866-5.605 2.345-4.038-.48-7.079-2.345-9.25-5.08a12.712 12.712 0 0 0-.473-1.693zm7.037-3.562-.045-.086-.042-.087-.132-.174-.087-.174-.087-.219-.128-.173-.087-.216-.129-.219-.132-.219-.087-.219-.128-.26-.087-.129-.087-.087-.045-.132-.087-.132-.087-.128-.087-.087-.087-.132-.087-.129-.132-.129-.087-.128-.128-.132-.087-.087a20.086 20.086 0 0 1 8.208.087c3.736.695 7.558 1.564 9.47 7.21 0 0-2.433 2.086-6.777 1.175-3.649-.737-6.905-2.346-8.73-4.994zm1.564-6.168.173-.173.174-.129.174-.174.174-.173.173-.174.174-.22.132-.173.174-.174.128-.219.174-.219.132-.218.129-.22.132-.26.128-.219.129-.26.132-.261.302-.695c3.256-1.303 6.603-1.998 9.904-.782 3.301 1.258 4.17 2.693 4.994 3.91 0 0-3.649 3.082-7.819 3.214-4.212.094-8.121-1.123-9.813-2.38zm-.96-6.647-.215-.087-.129-.045h-.086l-.133-.042-.086-.045-.129-.045-.132-.046h-.129l-.086-.045-.129-.045h-.132l-.129-.045-.132-.045h-.128l-.132-.046c1.477-1.257 2.821-3.169 3.52-6.08 1.564.347 5.039.347 6.602-.22 1.564-.608 4.605-.653 6.992.956 0 0-.782 4.128-6.21 5.56-5.042 1.362-6.953 1.015-8.997.32zm1.915-8.121-.695-.48c-.087-.042-1.303-.782-3.346-.914 1.737-1.345 5.866-4.82 8.774-6.429 3.215-1.779 8.514-4.211 11.207-4.562 0 0-2.52 6.644-5.473 9.34-3.04 2.784-5.167 3.826-10.467 3.045zm-5.431-3.086.26-.306.22-.348.215-.347.219-.348.215-.392.216-.39.218-.392.174-.434.174-.435.215-.434.174-.435.174-.48.129-.475.173-.48.132-.521.174-.48c.563-2.258 1.998-7.732 2.822-9.208.823-1.436 3.822-6.384 9.643-7.951 0 0 1.522 6.47-1.39 11.683-2.558 4.44-7.729 9.132-14.157 12.173zm-32.318 30.32-.174.131-.132.129-.128.132-.132.087-.129.132-.132.087-.128.132-.13.087-.173.086-.174.133-.045.045-.087.045-.087.045-.086.087-.129.045-.087.045-.087.042-.087.087-.128.045-.087.045-.132.087-.129.045s-1.824 3.562.39 7.819c2.258 4.299 4.17 8.688 5.08 11.12 0 0 1.216-.174 2.565-6.905.91-4.517 2.085-5.692 3.26-7.21a8.757 8.757 0 0 1-2.479.823l-.868.22-.435-.87a8.73 8.73 0 0 1-.955-5.39c-2.085.087-3.256-.997-3.65-1.518-.044-.087-.044-.087-.131-.129l-.174.24z"/>
  <path fill="#0055a5" d="m513.475 152.247.434.434.434.435.476.48.476.52.522.522.476.563.566.608.521.608.567.653.521.65.567.695.562.695.522.737.521.782.566.782.477.782.52.827.477.823.476.827.434.869.39.869.392.914.348.868.302.956.302.91.22.914.215.956.173.956.087.955.042.998v.955l-.042 1.001s-8.472-2.651-11.943-8.861c-3.475-6.168-5.605-10.123-7.079-11.513.91.132 1.866.132 2.78 0l.782-.128c2.172 3.909 6.387 10.338 10.21 12.555 0 0 .997-5.213-10.252-15.725a7.85 7.85 0 0 0-.736-1.435c1.042.39 2.213.563 3.561.521M448.057 68.33v-.087l.042-.087.045-.045.042-.087.087-.045.087-.087.087-.045.128-.087.132-.045.129-.087.174-.045.173-.045.174-.087.216-.045.218-.042.216-.045.219-.045.215-.042.261-.045.26-.045.261-.046.303-.041.26-.045h.302l.306-.046.303-.045h.65l.302-.045h1c3.65 0 6.603.65 6.603 1.435 0 .737-2.954 1.39-6.602 1.39-3.639.018-6.593-.632-6.593-1.369zm-22.459 7.6v-.045l.042-.045v-.042l.042-.045.045-.042.087-.045h.042l.087-.045.086-.046.087-.045h.087l.132-.045.129-.045.087-.045h.173l.132-.045h.129l.174-.042.174-.045h.128l.174-.045h.389l.174-.046h.392l.216-.045h1.084c2.3 0 4.257.348 4.257.782s-1.956.737-4.257.737c-2.38.02-4.292-.282-4.292-.716zm30.365-4.56v.307l-.042.045v.087l-.045.045v.087l-.045.045v.045l-.042.045-.041.087-.046.045-.041.045-.045.046-.042.045-.045.045-.042.045-.045.045-.042.045-.045.042h-.042l-.087.042-.045.045h-.041l-.087.045h-.132l-.042.042h-.219a1.317 1.317 0 0 1-1.303-1.345c0-.653.608-1.261 1.303-1.261a1.265 1.265 0 0 1 1.303 1.237zm-8.385-4.43-.216-.521-.173-.476-.216-.435-.173-.476-.174-.434-.174-.476-.219-.435-.128-.392-.174-.435-.174-.392-.129-.393-.173-.39-.132-.392-.129-.347-.129-.348-.132-.347-.128-.348-.087-.302-.087-.306-.132-.306-.087-.26-.087-.261-.041-.26-.087-.261-.045-.22-.042-.215-.045-.219-.042-.173-.042-.174v-.434c.042-.782.956-1.349 1.825-1.61.91-.26 1.65-.347 2.258.088 1.13.91 2.214 7.947 2.562 10.904a10.12 10.12 0 0 0-3.048 1.046zm4.041-1.133.087-.045h.303l.218-.045h.65l.435-.045c-.393-2.822-1.349-7.472-1.912-9.338-.566-1.87-1.303-3.169-2.519-3.52 0 0 .956 2.565 1.477 5.213.521 2.658.869 5.26 1.261 7.78zm-6.995 9.383.26-.045.216-.087.216-.087.219-.087.215-.087.26-.132.216-.087.22-.132.215-.132.173-.129.22-.132.215-.132.173-.128.216-.132.174-.129.173-.174.174-.132.132-.128.174-.132.132-.087.129-.129.132-.128.128-.087.132-.129.087-.087.087-.045.042-.087.087-.087.041-.041h.045v-.045c-3.902.57-4.903 3.176-4.903 3.176z"/>
  <path fill="#0055a5" d="m448.273 74.973-.348.174-.302.132-.306.174-.347.132-.306.132-.302.129-.348.086-.302.129-.306.087-.302.045-.303.087-.305.087-.261.045-.302.042-.261.045-.26.045h-.261l-.216.045h-.215l-.22.045h-1.39c.738-1.348 1.436-2.606 3.521-4.083 2.127-1.522 5.56-1.911 6.905-1.737-.31 1.032-1.7 3.204-3.263 4.16zm-.747 1.773c-2.52 1.174-10.338 1.303-14.554 1.522h-2.714l-.326-.108h-.435l-.326-.108h-.327l-.327-.108-.326-.107h-.327l-.326-.108h-.327l-.327-.108h-.215l-.327-.107-.215-.108h-.212l-.22-.108-.215-.108h-.326l-.108-.107h-.108l-.219-.108h-.107c.48 9.209 6.734 9.775 6.734 9.775-.087-.737 0-1.956 0-1.956 1.953 1.824 5.974 3.148 5.974 3.148a6.686 6.686 0 0 0-.435-2.064c1.696.997 2.714.976 2.714.976-.173-1.303-.976-2.821-.976-2.821 1.174 1.518 2.606 1.63 2.606 1.63.26-.737-.219-2.607-.219-2.607.608.737 1.738 2.693 5.213 3.475 3.562.737 5.104-1.303 5.104-1.303-3.388.219-6.623-3.04-6.623-3.04 1.824-.696 2.499-1.954 2.499-1.954a4.08 4.08 0 0 0-2.172-.976c1.994-.928 2.495-2.512 2.495-2.512zm-11.947 3.475v.326s-5.428.021-5.647 2.714c-.869-.566-1.303-1.605-1.522-2.821.003 0 3.87.215 7.169-.22zm-11.933-2.641.041.392.045.348.042.392.045.348.042.39.087.347.087.347.087.348.086.347.087.348.087.302.132.306.087.306.132.305.129.261.132.26s-2.474-1.824-3.083-3.43c-.611-1.612-.785-2.658 1.735-1.917zm-7.288 1.772c-1.073.118-2.064.563-2.714 1.518-1.261 1.87-.802 5.432 1.846 6.95 0 0 3.975-3.454 8.795-.107 0 0 1.063-.63 3.583-1.196v-.107h-.108v-.108l-.108-.108-.108-.108h-.107v-.107l-.108-.108-.108-.108-.107-.108-.108-.107-.108-.108h-.115l-.107-.219h-.108l-.108-.219h-.107l-.108-.108-.216-.107-.107-.108-.108-.108-.216-.107-.107-.108-.108-.108-.219-.108h-.118l-.215-.107-.108-.108c-1.477-.65-4.518-1.564-5.428-4.344a8.73 8.73 0 0 0-2.937-.23zm2.284 3.69c.566 0 1.087.522 1.087 1.088v.215h-.108v.216h-.107v.215h-.108v.108h-.108v.108h-.215v.107h-.226l-.108.108h-.107c-.563 0-.977-.521-.977-1.087-.003-.556.41-1.078.977-1.078zm9.782 4.094.041.045.046.042v.045h.041l.045.087.042.045.087.087.045.132.087.087.087.087.087.128.087.132.132.087.087.132.128.129.087.174.132.128.26.26.216.261.26.306.13.132.131.129.129.132.132.128.129.087.128.132.132.087.129.129s-6.516-.087-8.121 5.56c0 0-2.217-3.475-.608-5.692 1.737-2.395 3.388-2.739 5.692-3.218z"/>
  <path fill="#0055a5" d="m435.547 88.48.046.046h.086l.042.045h.132l.087.045.087.045h.087l.128.042.087.045h.132l.087.045.132.046.216.041.219.087.26.042.087.045.129.045.087.045h.128l.087.046.087.045h.087l.087.045h.087l.086.045s0-1.216-.041-1.78c.65.13 1.39.348 2.085.435 0 0 2.085 4.605 3.735 6.47 0 0 .087 1.088-.823 2.607 0 0-1.216-2.693-3.301-4.952-1.178-1.234-1.96-1.887-4.435-3.624zm-5.518-.955h.045l.087.045h.129l.087.045.132.042.128.045.174.045.132.042.174.087.174.042.173.045.22.087.173.045.215.087.174.087.216.087.434.173.434.174.435.174.389.174.215.132.22.087.173.086.216.129.173.087.174.087.174.128.128.087c2.044 1.477 3.434 3.128 3.215 6.036 0 0-1.61-2.3-3.434-3.343-1.424-.785-4.03-3.044-5.379-5.042zm.045-21.11h.132l.046.045h.215l.087.045h.132l.087.045h.087l.041.045h.087l.087.045.087.045.042.042.087.045.045.045.087.046.041.045.087.045.045.045.042.045.045.087.042.045.045.087.042.042v.09l.045.042v.136l.042.045v.135c0 .998-1.564 3.388-1.998 4.43-.435-1.042-1.953-3.429-1.953-4.43 0-1 1.17-1.303 1.779-1.303h.347zm-1.348 7.776-.042-.173-.045-.129v-.174l-.042-.173-.045-.174-.041-.174-.046-.219v-.174l-.041-.218-.046-.216-.086-.434-.129-.435-.087-.48-.087-.434-.087-.215-.045-.219-.041-.174-.087-.219-.042-.173-.087-.174-.045-.174-.087-.174-.087-.173-.042-.129-.086-.132-.087-.132-.087-.087-.045-.087c-.87-.74-2.085-.827-2.648-.782-.608.045-1.262.654-.998 1.477s2.954 4.865 3.302 5.341c.604-.08.472-.08 2.036-.167zm2.346 0 .041-.173.045-.129v-.174l.042-.173.045-.174.042-.174.045-.219.042-.174.045-.218.042-.216.087-.434.087-.435.086-.48.132-.434.042-.215.045-.219.087-.174.042-.219.087-.173.042-.174.086-.174.046-.174.086-.173.042-.129.087-.132.087-.132.087-.087.045-.087c.869-.74 2.04-.827 2.648-.782s1.216.654.997 1.477c-.26.824-2.954 4.865-3.301 5.341-.601-.08-.514-.08-2.036-.167zm1.737-12.638h-2.085v-2.304h-1.692v2.304h-2.085v1.477h2.085v2.69h1.692v-2.69h2.085zM407.487 76.45v-.65l.041-.173v-.306l.042-.087v-.087c.132-1.13.174-2.127.045-2.909-1.522.567-2.564.956-4.604 4.3 0 0 3.301-2.044 4.476-.088zm2.867 5.341v-.087l.045-.132v-.305l.041-.129v-.129l.042-.173.045-.129v-.174l.046-.132.041-.173v-.174l.042-.174.045-.219.045-.174.087-.347.087-.393.129-.393.086-.389.133-.392.128-.393.132-.39.042-.173.087-.174c.868-2.259.302-5.56-.695-7.513-.956-1.953-1.522-3.78-1.349-5.779 0 0-1.953.654-3.082 1.349-.174 2.345 1.175 4.65 1.824 5.952.74 1.564.609 3.562.435 4.82-.26 2.134.174 4.393 1.564 6.52zm.215-17.764v-.132h-.045v-.709l.045-.045v-.222l.042-.042v-.09l.041-.042s3.083-2.996 5.647-3.52c1.651-.348 2.648.392 3.17.781 0 0-.956-.086-2.304 1.043-1.39 1.088-3.083 2.478-4.431 2.825-1.251.327-1.557.24-2.165.153zm9.122-3.736.215.22.22.218.218.216.174.219.215.219.174.218.042.087.087.129.087.087.087.128.045.132.087.087.045.132.087.087.041.087.046.132.041.087.045.129.042.086.045.13.042.086v.132l.045.087v.306c-.045 1.087-1.303 3.864-1.998 4.906-.653 1.043-1.609 2.433-1.522 4.084.045.868.65 1.737 1.348 2.432 0 0-3.78-.91-4.211-3.214-.435-2.085.434-3.562 1.042-4.733.563-1.088 2.346-3.607 2.735-4.65.434-.962.608-1.744.476-2.266zm22.066 26.237.132.476.174.521.174.476.174.48.173.476.22.48.215.479.215.434.22.435.215.476.218.434.216.393.26.434.216.393.219.389.26.347c1.13 1.78 1.825 4.737 1.738 5.734 0 0 1.692-3.78.824-6.429-.65-2.085-2.516-5.125-5.863-6.428zm4.215.868h.348l.087.046h.48l.128.045h.26l.174.045h.129l.174.045h.132l.173.045.174.042.129.045.174.045h.128l.174.087.132.045.174.042.128.045.132.087.129.045.128.087.132.045c1.564 1.043 3.041 3.26 3.608 5.953 0 0-2.652-.434-3.91-1.737-1.303-1.28-2.867-3.232-3.517-5.057zm-13.378 4.692h-.261l-.087.041h-.128l-.087.046h-.174l-.087.045-.174.041-.173.046h-.174l-.174.045-.174.045-.173.045-.087.045h-.087l-.087.046h-.087l-.042.045h-.173l-.042.045s2.214.65 3.301 1.522c.91.782 1.738 1.998 2.127 3.996.566 2.822 2.217 5.863 2.693 6.776l.219-.041c-.348-1.957.869-5.953 1.216-6.516 0 0-1.782-1.13-2.56-2.259-.616-.844-1.617-2.234-4.525-4.013zm11.467 6.036.087.132.045.132.087.174.087.173.087.132.042.174.086.22.133.173.086.174.087.219.174.392.174.393.045.215.087.22.087.26.041.219.087.219.045.215.042.26.045.22.042.26.045.261v.737l-.045.26v.22l-.042.26-.045.26-.087.261c-.782 2.735-2.52 3.91-3.648 6.21 0 0-.87-4.17-.696-7.384.216-3.27 1.387-4.487 2.822-5.661zm4.994.087v.045l.041.045v.045l.046.045v.042l.041.045.046.042v.087l.041.087.087.128.087.174.087.219.128.219.087.215.132.261.129.219.132.26.087.303.128.26.133.261.173.306.26.608.22.566.128.303.132.26.129.261.087.306.087.26.087.22.087.26.086.219.042.219.087.174c.434 1.956 0 3.214-.869 4.385-.869 1.175-2.345 2.478-3.735 4.91 0 0-1.564-2.085-1.78-3.169-.173-1.13.129-3.736.476-4.823s1.7-4.66 2.87-8.267zm1.303 15.943-.042.045h-.045v.042l-.042.045-.045.045-.042.087-.132.087-.086.129-.129.132-.132.173-.129.132-.128.174-.132.174-.174.219-.174.174-.128.215-.174.174-.348.434-.302.39-.174.218-.132.22-.173.218-.13.174-.128.215-.132.174-.128.174-.132.174-.129.173-.087.174-.087.129-.045.128-.042.087-.045.045v.046l-.041.045c-.39 1.087-1.088 3.04-.174 4.43.997 1.39 3.082 3.607 4.952 4.563 0 0-1.998-3.17-1.825-5.779.129-1.692 1.432-3.17 1.693-4.17.212-1.008.038-2.745-.657-4.309zm-5.908-1.998.042.045.045.087.042.045.045.087.087.087.042.087.045.087.042.087.045.132.087.086.041.132.046.087.041.132.042.087.132.26.087.262.087.26.087.26.086.261.087.261v.174l.042.132.045.128v.306l.042.132c.087 1.477-.129 2.693-.956 4.907-.997 2.735-2.606 5.82-3.346 7.21 0 0-1.435-2.04-2.217-3.822 0 0 2.217-3.04 3.127-5.167 1.137-2.533 1.571-4.88 2.005-6.832zm-.997-1.216v.041l-.045.046v.264l-.042.173-.045.174-.042.26-.045.261-.087.306-.041.303-.087.347-.087.393-.129.389-.087.393-.132.434-.128.476-.174.434-.132.476-.174.522-.215.476-.174.521-.215.521-.22.522-.26.52-.26.522-.306.521-.261.522-.348.563-.305.52-.348.477-.347.521-.39.521c-2.821 3.562-5.125 4.824-6.644 4.824-2.304 0-4.604-1.957-5.386-4.129-.782-2.172-.521-5.601.956-6.776 0 0 1.39 4.257 4.298 4.43 3.343.178 7.6-3.558 11.902-10.768z"/>
  <path fill="#0055a5" d="m440.02 107.986.041.132v.129l.046.132v.128l.087.26.041.307v.302l.045.306.042.306v1l-.042.348-.045.347v.348l-.087.347-.041.348-.087.347c-.348 1.39-1.216 3.215-2.822 4.257-1.435.869-4.736 1.088-6.04-2.085 0-.007 6.082.473 8.862-7.26zm9.949 28.669.087.173.086.22.13.218.086.216.132.219.129.219.173.219.129.218.306.435.302.434.348.435.302.434.306.434.173.174.129.216.129.219.132.218.128.174.132.216.087.173.087.22.087.173.087.174.045.174.045.173v.174l.042.132c-.087 4.43-2.044 7.124-2.474 8.6 0 0-3.52-2.82-4.129-6.035-.344-1.665.004-6.617 2.784-9.05zm-3.955 3.127.045-.128.042-.132.045-.129.087-.132.045-.174.087-.128.042-.174.087-.174.087-.174.086-.215.087-.174.087-.174.174-.392.219-.39.215-.434.216-.392.132-.174.087-.174.128-.174.132-.173.129-.174.128-.174.133-.174.128-.132.132-.132.129-.128.132-.132.128-.132s1.957-5.647-4.211-9.122c0 0-2.565 3.346-3.215 6.56-.695 3.173 2.693 5.084 4.257 7.951zm-7.732-14.334-.219.26-.215.22-.174.26-.215.26-.22.216-.215.26-.26.261-.22.22-.215.218-.215.26-.132.088-.129.087-.087.132-.132.086-.087.087-.128.087-.087.087-.129.045-.086.087-.133.087-.086.042-.129.045s-.393 2.52-.132 4.212c.306 2.477 1.911 5.038 2.606 6.95 0 0 2.693-3.562 2.996-5.647.305-2.085.26-3.778.347-4.778 0-.007-1.477-2.44-2.304-4.132zm-7.165 12.162-.087-.128-.087-.132-.087-.174-.087-.132-.132-.219-.087-.174-.128-.219-.132-.215-.129-.26-.132-.22-.128-.26-.129-.306-.132-.26-.129-.307-.173-.26-.132-.302-.261-.609-.26-.65-.22-.653-.087-.302-.128-.306-.087-.347-.087-.306-.045-.302-.087-.348-.045-.306-.045-.302v-.306l-.042-.306s3.082 1.65 5.647.435c0 0 .306 4.083-.174 5.431-.389 1.136-.91 1.79-2.168 2.745zm.695.87.087-.046.045-.042.042-.087.086-.045.046-.045.086-.045.046-.087.087-.045.086-.087.042-.045.174-.174.132-.132.174-.174.173-.132.129-.174.174-.132.087-.087.041-.041.087-.087.087-.087.045-.045.042-.087.087-.045.045-.087.042-.045.045-.087s2.04 3.736 2.387 4.823c0 0-.997.22-2.127-.563a14.213 14.213 0 0 1-2.477-2.07zm9.424-2.218-.042.045v.045l-.045.087v.045l-.042.087-.045.046-.041.086-.046.087-.086.174-.087.174-.132.215-.129.174-.132.219-.129.26-.173.22-.132.26-.174.219-.174.26-.347.48-.348.521-.174.22-.173.26-.129.215-.174.22-.173.218-.133.22-.128.173-.174.174-.087.173-.128.129-.045.045-.042.087-.045.045-.042.045-.045.046-.042.045-.045.045-.042.042s.26 1.65 1.477 3.996a17.097 17.097 0 0 0 3.823 4.865s1.998-3.52 2.606-5.039c.695-1.779.608-3.562.302-4.215-.695-1.543-3.04-3.757-4.083-5.713zm4.91 11.905.042.174.087.129.087.174.087.132.128.173.087.174.132.132.087.174.128.174.133.219.26.347.22.39.26.347.26.389.261.39.219.388.087.22.128.173.087.215.087.174.087.174.087.219.045.174.042.215.087.174v.174a6.886 6.886 0 0 1-.348 3.735c-.434.998-1.737 2.996-2.606 4.518 0 0-2.996-2.822-3.649-4.82-.476-1.522-.302-3.649.434-5.039.695-1.348 2.26-2.78 2.954-4.212zm-8.472-.392.087.174.087.173.087.129.087.174.087.173.086.132.216.303.219.347.215.306.26.306.216.302.22.302.215.306.215.303.087.128.087.174.087.132.087.174.086.128.087.129.046.174.086.132.042.132.045.173c.476 1.696.65 2.822-.173 4.866-.782 1.779-1.651 2.821-1.957 3.909 0 0-2.432-3.128-2.867-4.43-.389-1.35-.521-3.476-.041-4.82.524-1.39 1.393-3.173 2.001-4.431zm11.947 11.989v.041h-.045v.042l-.042.045-.045.045-.042.042-.041.042-.045.087-.042.045-.087.087-.045.087-.087.086-.129.174-.132.22-.173.218-.174.215-.174.261-.174.26-.219.261-.173.306-.216.302-.174.303-.215.306-.174.302-.173.347-.174.303-.174.306-.174.347-.128.302-.132.303-.129.347-.087.306-.132.302-.042.26-.045.303-.041.129v.393c.128 3.346 2.345 5.518 2.648 7.603 0 0 2.217-2.474 3.04-4.125.91-1.911 1.65-3.475 1.39-5.602-.264-2.126-.827-3.475-2.999-5.601zm-7.69-.522.042.087.087.132.086.132.087.129.087.128.087.174.087.174.087.174.132.173.087.174.087.216.128.173.087.216.087.219.174.434.087.26.086.22.087.219.087.215.042.26.087.216.045.22.042.215.045.26.042.22v.82l-.042.218-.045.174c-.522 1.956-2.607 4.691-3.302 5.907 0 0-1.65-3.388-1.998-4.952-.344-1.56-.038-4.08 3.305-7.207zm41.787-83.313v-.045l-.045-.045v-.042l-.042-.045-.045-.042-.042-.045h-.087l-.086-.045-.087-.046-.087-.045h-.087l-.132-.045-.087-.045-.129-.045h-.128l-.174-.045h-.132l-.174-.042-.128-.045h-.174l-.174-.045h-.347l-.216-.046h-.392l-.174-.045h-1.084c-2.346 0-4.257.348-4.257.782s1.911.737 4.257.737c2.342.02 4.253-.282 4.253-.716zm-29.016-13.073.041-.174.046-.219.045-.219.041-.219.087-.215.087-.219.087-.26.087-.261.087-.26.087-.261.215-.522.216-.563.219-.566.215-.521.219-.567.087-.26.128-.261.087-.26.045-.261.087-.22.087-.26.042-.219.042-.219.045-.219.041-.215v-.348a2.523 2.523 0 0 0-5.038 0c0 1.78 2.213 5.863 2.474 7.774h.094zm7.037 4.083.215-.521.219-.476.174-.435.219-.476.173-.434.174-.476.174-.435.174-.392.173-.435.132-.392.174-.393.129-.39.174-.392.132-.347.128-.348.132-.347.087-.348.132-.302.087-.306.087-.306.087-.26.087-.261.086-.26.042-.261.087-.22.045-.215.042-.219v-.173l.045-.174v-.434c0-.782-.956-1.349-1.783-1.61-.955-.26-1.695-.347-2.303.088-1.13.91-2.172 7.947-2.607 10.904 1.13.219 1.825.393 3.083 1.046zm-3.997-1.133-.132-.045h-.302l-.219-.045h-.65l-.215-.045h-.174c.347-2.822 1.303-7.472 1.87-9.338.608-1.87 1.303-3.169 2.519-3.52 0 0-.91 2.565-1.432 5.213a135.703 135.703 0 0 0-1.265 7.78zm2.044 6.214h.045v.045h.042v.041h.045l.041.087.087.087.087.045.087.087.129.129.086.087.133.128.128.129.174.087.132.132.174.128.173.132.174.174.174.129.219.132.174.128.215.132.174.132.215.129.22.132.215.132.219.087.215.132.215.087.261.087.219.087.215.087.216.045c.003-.007-.994-2.613-4.903-3.176z"/>
  <path fill="#0055a5" d="M457.787 70.803h.261l.174-.045h.521l.174.045h.43l.22.045h.215l.22.046.215.045h.26l.216.045.26.042.22.087.26.045.26.045.22.087.26.087.26.045.22.087.26.087.26.086.216.13.216.086.26.132.22.129.215.086.173.174.216.129c2.13 1.477 2.825 2.735 3.562 4.083 0 0-3.823.302-7.166-1.65-1.605-.963-2.995-3.135-3.298-4.178zm4.073 5.943s.435 1.584 2.388 2.498c0 0-1.064.066-2.065.977 0 0 .65 1.258 2.388 1.953 0 0-3.194 3.26-6.624 3.04 0 0 1.585 2.043 5.105 1.303 3.52-.782 4.563-2.738 5.213-3.475 0 0-.435 1.866-.22 2.607 0 0 1.498-.108 2.715-1.63 0 0-.91 1.518-1.088 2.821 0 0 .977.021 2.714-.976 0 0-.39.935-.434 2.064 0 0 4.083-1.324 6.08-3.148v1.404l-.107.107v.431s6.255-.566 6.731-9.775c0 0-4.104 1.519-8.36 1.303-4.164-.201-11.962-.333-14.436-1.504zm11.836 3.475c3.301.434 7.277.219 7.277.219v.215h-.108v.219l-.108.219v.219l-.107.107v.216l-.108.108v.215h-.108v.108l-.108.108v.107l-.107.108-.108.108v.107h-.108l-.107.108v.108h-.119l-.107.108v.107h-.108l-.108.108-.108.108c-.215-2.693-5.646-2.714-5.646-2.714v-.316zm12.02-2.641-.045.392-.042.348-.045.392-.042.348-.086.39-.046.347-.087.347-.086.348-.087.347-.087.348-.129.302-.087.306-.128.306-.087.305-.132.261-.129.26s2.475-1.824 3.083-3.43c.608-1.612.74-2.658-1.738-1.917zm5.247 1.772-.219.108h-.215l-.219.107h-.215c-.91 2.78-4.017 3.694-5.54 4.344-1.608.782-3.148 2.606-3.148 2.606 2.52.567 3.694 1.196 3.694 1.196 4.82-3.343 8.795.107 8.795.107 2.607-1.522 3.149-5.084 1.846-6.95l-.216-.219-.108-.215-.107-.108-.22-.107-.107-.108-.215-.108-.108-.108-.216-.107-.215-.108-.108-.108h-.215l-.216-.107h-.219l-.107-.108h-2.402zm-.326 3.69h.323v.108h.215v.108h.108l.108.107v.108h.108v.108h.107v.43l.108.109c0 .566-.521 1.087-1.088 1.087-.563 0-.976-.521-.976-1.087.01-.556.424-1.078.987-1.078zm-9.699 4.094h-.045v.045h-.042v.042l-.045.045-.042.087-.087.045-.041.087-.087.132-.087.087-.045.087-.129.128-.087.132-.087.087-.132.132-.086.129-.13.174-.086.128-.26.26-.261.261-.216.306-.132.132-.128.129-.132.132-.129.128-.128.087-.133.132-.128.087-.132.129s6.474-.087 8.124 5.56c0 0 2.217-3.475.609-5.692-1.741-2.395-3.392-2.739-5.696-3.218z"/>
  <path fill="#0055a5" d="M473.814 88.48h-.041v.046h-.133v.045h-.173l-.042.045-.087.045h-.132l-.087.042-.087.045h-.132l-.087.045-.128.046-.22.041-.26.087-.215.042-.129.045-.087.045-.132.045h-.087l-.128.046-.087.045h-.087l-.087.045h-.087l-.045.045s-.041-1.216.045-1.78c-.65.13-1.435.348-2.13.435 0 0-2.04 4.605-3.69 6.47 0 0-.087 1.088.823 2.607 0 0 1.175-2.693 3.302-4.952 1.174-1.234 1.956-1.887 4.43-3.624zm5.519-.955h-.087l-.087.045h-.087l-.129.045-.132.042-.128.045-.132.045-.174.042-.174.087-.174.042-.173.045-.174.087-.219.045-.174.087-.219.087-.215.087-.434.173-.435.174-.39.174-.433.174-.216.132-.174.087-.219.086-.173.129-.174.087-.174.087-.174.128-.132.087c-2.04 1.477-3.433 3.128-3.256 6.036 0 0 1.65-2.3 3.475-3.343 1.432-.785 4.038-3.044 5.387-5.042zm-.046-21.11h-.132l-.041.045h-.22l-.086.045h-.129l-.087.045h-.086l-.042.045h-.087l-.087.045-.087.045-.045.042-.087.045-.042.045-.086.046-.046.045-.086.045-.042.045-.045.045-.042.087-.045.045-.042.087-.045.042v.09l-.042.042v.136l-.045.045v.135c0 .998 1.564 3.388 1.998 4.43.435-1.042 1.953-3.429 1.953-4.43 0-1-1.174-1.303-1.824-1.303h-.303zm1.349 7.776.041-.173v-.129l.042-.174.045-.173v-.174l.042-.174.045-.219.042-.174.045-.218.042-.216.087-.434.086-.435.087-.48.132-.434.042-.215.087-.219.045-.174.042-.219.087-.173.045-.174.087-.174.087-.174.045-.173.087-.129.087-.132.041-.132.087-.087.087-.087c.824-.74 2.043-.827 2.651-.782.609.045 1.217.654.998 1.477-.26.824-2.954 4.865-3.301 5.341-.609-.08-.522-.08-2.04-.167zm-2.391 0v-.173l-.042-.129-.045-.174-.042-.173v-.174l-.045-.174-.042-.219-.045-.174-.041-.218-.046-.216-.086-.434-.087-.435-.129-.48-.087-.434-.087-.215-.041-.219-.046-.174-.086-.219-.042-.173-.087-.174-.045-.174-.087-.174-.087-.173-.042-.129-.087-.132-.086-.132-.046-.087-.086-.087c-.824-.74-1.999-.827-2.648-.782a1.13 1.13 0 0 0-.956 1.477c.215.824 2.909 4.865 3.301 5.341.605-.08.476-.08 1.995-.167zm-1.692-12.638h2.04v-2.304h1.737v2.304h2.085v1.477h-2.085v2.69h-1.738v-2.69h-2.04zM451.4 47.868h2.13v-2.3h1.651v2.3h2.127v1.477h-2.127v2.693h-1.65v-2.693h-2.13zm50.475 28.582v-.302l-.042-.174v-.521l-.045-.045v-.26c-.174-1.13-.215-2.128-.087-2.91 1.522.567 2.565.956 4.605 4.3 0 0-3.302-2.044-4.431-.088z"/>
  <path fill="#0055a5" d="m499.008 81.791-.042-.087V81.4l-.041-.132v-.129l-.046-.129v-.173l-.041-.129v-.174l-.045-.132-.042-.173-.045-.174-.042-.174-.045-.219-.042-.174-.087-.347-.087-.393-.086-.393-.133-.389-.086-.392-.129-.393-.129-.39-.045-.173-.087-.174c-.823-2.259-.347-5.56.65-7.513.998-1.953 1.564-3.78 1.349-5.779 0 0 1.998.654 3.082 1.349.174 2.345-1.175 4.65-1.78 5.952-.781 1.564-.653 3.562-.434 4.82a9.633 9.633 0 0 1-1.567 6.52zm-.215-17.764v-.886l-.042-.045v-.22l-.045-.044v-.087s-3.128-2.996-5.692-3.52a3.395 3.395 0 0 0-3.083.781s.87-.086 2.26 1.043c1.39 1.088 3.081 2.478 4.388 2.825 1.3.327 1.56.24 2.214.153zm-9.167-3.736-.22.22-.215.218-.174.216-.215.219-.174.219-.174.218-.086.087-.087.129-.087.087-.045.128-.087.132-.087.087-.045.132-.042.087-.087.087-.045.132-.042.087-.045.129-.042.086v.13l-.045.086-.041.132v.393c0 1.087 1.303 3.864 1.952 4.906.654 1.043 1.696 2.433 1.564 4.084-.087.868-.65 1.737-1.348 2.432 0 0 3.78-.91 4.212-3.214.434-2.085-.476-3.562-1.088-4.733-.563-1.088-2.3-3.607-2.735-4.65-.386-.962-.601-1.744-.472-2.266zm-22.022 26.237-.173.476-.174.521-.132.476-.216.48-.173.476-.174.48-.216.479-.218.434-.216.435-.219.476-.215.434-.26.393-.216.434-.22.393-.26.389-.215.347c-1.175 1.78-1.912 4.737-1.738 5.734 0 0-1.737-3.78-.869-6.429.692-2.085 2.516-5.125 5.904-6.428zm-4.256.868h-.306l-.087.046h-.476l-.132.045h-.303l-.128.045h-.174l-.132.045h-.174l-.128.045-.174.042-.174.045-.128.045h-.174l-.174.087-.132.045-.129.042-.173.045-.129.087-.132.045-.128.087-.133.045c-1.522 1.043-3.04 3.26-3.561 5.953 0 0 2.606-.434 3.909-1.737 1.254-1.28 2.863-3.232 3.472-5.057zm13.42 4.692h.302l.046.041h.128l.087.046h.174l.087.045h.086l.087.041.174.046h.174l.174.045.173.045.174.045.087.045h.087l.087.046h.087l.045.045h.128l.087.045s-2.213.65-3.346 1.522c-.91.782-1.738 1.998-2.085 3.996-.563 2.822-2.214 5.863-2.735 6.776l-.174-.041c.303-1.957-.91-5.953-1.216-6.516 0 0 1.737-1.13 2.561-2.259.57-.844 1.612-2.234 4.521-4.013zM465.3 98.124l-.086.132-.042.132-.087.174-.087.173-.087.132-.087.174-.086.22-.087.173-.087.174-.087.219-.174.392-.174.393-.086.215-.087.22-.087.26-.042.219-.087.219-.045.215-.042.26-.045.22-.042.26-.045.261v1.216l.045.26.087.262.042.26c.824 2.735 2.606 3.91 3.736 6.21 0 0 .868-4.17.65-7.384-.174-3.27-1.345-4.487-2.78-5.661zm-10.598 7.603v-.132l.041-.174.087-.173.042-.22.129-.173.086-.219.132-.219.129-.219.132-.26.129-.216.173-.26.174-.261.174-.26.128-.261.348-.522.347-.52.174-.262.174-.305.129-.261.173-.26.132-.261.129-.26.129-.261.086-.216.087-.26.087-.22.045-.26.042-.216v-.392c-.215-2.085-2.954-3.562-3.649-3.868h-.041c-.695.306-3.475 1.783-3.65 3.868s3.521 5.949 3.608 7.513h.094zm5.605-7.516-.042.045v.09l-.045.045-.045.042v.045l-.042.042-.042.087-.045.087-.041.128-.087.174-.132.219-.087.219-.129.215-.087.261-.132.219-.128.26-.132.303-.129.26-.129.261-.132.306-.26.608-.26.566-.13.303-.086.26-.129.261-.087.306-.132.26-.087.22-.087.26-.041.219-.087.219-.045.174c-.435 1.956-.042 3.214.827 4.385.91 1.175 2.387 2.478 3.735 4.91 0 0 1.606-2.085 1.78-3.169.173-1.13-.087-3.736-.476-4.823-.31-1.098-1.658-4.66-2.83-8.267zm-5.605 19.331.215-.219.22-.219.215-.215.173-.219.22-.219.173-.219.215-.219.174-.26.129-.216.173-.219.046-.128.087-.087.086-.132.042-.087.042-.129.087-.087.041-.087.042-.132.045-.086.042-.087.045-.087.042-.087c.306-.914.392-2.217-.39-3.214-.91-1.175-2.084-2.52-2.171-3.604h-.087c-.042 1.088-1.216 2.432-2.172 3.604-.782.997-.695 2.3-.348 3.214.348.869 1.39 2.39 2.565 3.43h.049zm4.302-3.388.041.045.042.042.045.045.046.045.041.087.087.087.087.129.129.132.132.173.128.132.132.174.174.174.129.219.173.174.174.215.129.174.347.434.306.39.174.218.173.22.132.218.129.174.174.215.132.174.128.174.087.174.129.173.087.174.087.129.086.128.046.087v.045l.041.046v.045c.435 1.087 1.088 3.04.174 4.43-.91 1.39-3.082 3.607-4.952 4.563 0 0 2.044-3.17 1.825-5.779-.132-1.692-1.39-3.17-1.651-4.17-.257-1.008-.083-2.745.657-4.309zm5.862-1.998-.042.045-.045.087-.041.045-.046.087-.041.087-.087.087-.045.087-.042.087-.042.132-.045.086-.087.132-.042.087-.045.132-.041.087-.132.26-.087.262-.087.26-.087.26-.087.261-.087.261-.042.174v.132l-.045.128v.132l-.041.174v.132c-.087 1.477.173 2.693.997 4.907.997 2.735 2.561 5.82 3.346 7.21 0 0 1.39-2.04 2.172-3.822 0 0-2.217-3.04-3.169-5.167-1.091-2.533-1.526-4.88-1.96-6.832zm1.043-1.216v.087l.041.132v.132l.045.173.042.174.045.26.042.261.045.306.087.303.087.347.087.393.087.389.128.393.129.434.132.476.128.434.174.476.174.522.174.476.215.521.22.521.215.522.26.52.26.522.261.521.303.522.306.563.347.52.348.477.347.521.39.521c2.824 3.562 5.125 4.824 6.647 4.824 2.3 0 4.604-1.957 5.386-4.129.74-2.172.521-5.601-.955-6.776 0 0-1.39 4.257-4.344 4.43-3.294.178-7.597-3.558-11.853-10.768z"/>
  <path fill="#0055a5" d="m469.342 107.986-.045.132-.042.129v.132l-.045.128-.042.132v.132l-.045.306-.042.302-.045.306v1.654l.045.348.042.347.045.348.087.347.087.348c.347 1.39 1.174 3.214 2.822 4.257 1.39.868 4.733 1.087 5.994-2.085 0-.01-6.081.469-8.816-7.263zm-14.682 21.11.174-.086.128-.087.174-.045.129-.087.173-.087.132-.087.087-.045.087-.087.087-.045.045-.045.087-.087.087-.045.087-.087.087-.045.087-.087.086-.087.042-.087.087-.087.087-.087.087-.128.087-.087.087-.132.086-.087.087-.129.087-.132.129-.174c.736-1.17 1.477-3.343 1.084-4.906-.521-1.912-1.605-2.693-2.214-3.91-.476.476-.781.824-1.435 1.217h-.041c-.609-.39-.956-.737-1.477-1.217-.65 1.217-1.651 1.998-2.172 3.91-.39 1.563.306 3.735 1.087 4.906.956 1.575 1.696 1.835 2.565 2.27zm0 11.944.042-.174.087-.173.086-.22.087-.218.129-.22.132-.218.129-.215.173-.22.174-.26.174-.26.174-.22.173-.26.348-.521.389-.522.347-.52.174-.262.174-.26.174-.26.128-.22.132-.26.129-.261.128-.215.087-.261.087-.219.087-.219.045-.215v-.567c-.563-2.995-2.477-2.39-3.954-3.607h-.042c-1.477 1.216-3.433.608-3.955 3.607-.382 1.925 3.528 5.574 3.962 7.44zm4.691-4.385-.041.173-.129.22-.087.218-.128.216-.13.219-.131.219-.129.219-.132.218-.302.435-.348.434-.302.435-.347.434-.303.434-.132.174-.174.216-.128.219-.132.218-.129.174-.087.216-.128.173-.087.22-.087.173-.045.174-.042.174-.045.173-.042.174v.132c.087 4.43 1.998 7.124 2.433 8.6 0 0 3.562-2.82 4.17-6.035.333-1.665-.056-6.617-2.836-9.05zm3.997 3.127-.046-.128-.041-.132-.046-.129-.086-.132-.042-.174-.087-.128-.045-.174-.087-.174-.087-.174-.087-.215-.087-.174-.087-.174-.173-.392-.216-.39-.215-.434-.22-.392-.128-.174-.132-.174-.128-.174-.129-.173-.132-.174-.129-.174-.132-.174-.128-.132-.132-.132-.129-.128-.128-.132-.174-.132s-1.911-5.647 4.257-9.122c0 0 2.56 3.346 3.26 6.56.687 3.173-2.7 5.084-4.264 7.951zm7.731-14.334.174.26.216.22.219.26.215.26.215.216.22.26.215.261.219.22.26.218.216.26.087.088.128.087.132.132.087.086.129.087.087.087.132.087.087.045.128.087.087.087.129.042.086.045s.393 2.52.174 4.212c-.302 2.477-1.953 5.038-2.606 6.95 0 0-2.735-3.562-2.995-5.647-.348-2.085-.303-3.778-.39-4.778.004-.007 1.522-2.44 2.35-4.132zm7.124 12.162.087-.128.087-.132.087-.174.128-.132.087-.219.129-.174.132-.219.087-.215.128-.26.132-.22.129-.26.174-.306.128-.26.132-.307.129-.26.132-.302.26-.609.261-.65.216-.653.128-.302.087-.306.087-.347.087-.306.087-.302.045-.348.042-.306.045-.302v-.612s-3.04 1.65-5.56.435c0 0-.348 4.083.132 5.431.393 1.136.959 1.79 2.175 2.745zm-.695.87-.045-.046-.042-.042-.087-.087-.041-.045-.087-.045-.045-.045-.087-.087-.042-.045-.087-.087-.087-.045-.045-.087-.087-.087-.173-.132-.174-.174-.129-.132-.174-.174-.128-.132-.087-.087-.087-.041-.045-.087-.087-.087-.087-.045-.041-.087-.046-.045-.087-.087-.041-.045-.045-.087s-1.999 3.736-2.346 4.823c0 0 .997.22 2.085-.563 1.126-.768 1.387-.987 2.474-2.07zm-9.382-2.218.045.045v.045l.042.087v.045l.045.087.041.046v.086l.046.087.086.174.129.174.087.215.132.174.129.219.173.26.129.22.174.26.173.219.132.26.348.48.347.521.174.22.174.26.174.215.128.22.174.218.132.22.174.173.128.174.132.173.087.129.042.045.087.087.045.045.042.045.041.046v.045l.046.045.041.042s-.26 1.65-1.431 3.996a18 18 0 0 1-3.823 4.865s-1.998-3.52-2.606-5.039c-.695-1.779-.653-3.562-.306-4.215.653-1.543 2.999-3.757 4.087-5.713zm-13.424 26.977.041-.132.046-.13.045-.128.041-.132.087-.087.042-.128.087-.132.087-.132.087-.129.087-.132.132-.174.086-.132.216-.26.215-.306.22-.302.26-.303.215-.347.216-.348.132-.173.087-.174.128-.174.087-.174.087-.173.087-.216.087-.174.087-.215c.434-1.258.434-2.78-.087-3.823-.563-1.174-2.693-4.128-2.954-4.952-.26.828-2.346 3.781-2.954 4.952-.521 1.043-.521 2.561-.045 3.823.782 2.172 2.652 3.649 2.954 4.907h.094zm8.472-15.072-.045.174-.087.129-.087.174-.087.132-.087.173-.128.174-.087.132-.132.174-.129.174-.129.219-.218.347-.261.39-.26.347-.261.389-.22.39-.215.388-.132.22-.087.173-.087.215-.128.174-.042.174-.087.219-.087.174-.045.215-.041.174-.046.174c-.26 1.476 0 2.693.348 3.735.434.998 1.737 2.996 2.606 4.518 0 0 2.996-2.822 3.649-4.82.476-1.522.347-3.649-.39-5.039-.74-1.348-2.303-2.78-2.998-4.212zm8.514-.392-.087.174-.087.173-.087.129-.087.174-.087.173-.087.132-.215.303-.22.347-.26.306-.215.306-.26.302-.216.302-.22.306-.215.303-.086.128-.087.174-.087.132-.087.174-.087.128-.087.129-.042.174-.045.132-.087.132-.041.173c-.48 1.696-.608 2.822.215 4.866.737 1.779 1.65 2.821 1.957 3.909 0 0 2.432-3.128 2.821-4.43.435-1.35.563-3.476.042-4.82-.48-1.39-1.348-3.173-1.956-4.431zm-17.028 39.57.042-.174.041-.174.046-.174.086-.215.087-.215.087-.22.087-.26.129-.302.132-.26.128-.307.132-.302.129-.348.174-.347.128-.348.174-.347.132-.39.174-.347.174-.389.128-.434.132-.39.174-.434.132-.434.129-.435.132-.434.128-.434.087-.435.087-.48.087-.434.087-.48.045-.475.042-.435v-.476c.128-2.52-2.172-6.515-3.434-7.992h-.087c-1.261 1.477-3.475 5.473-3.433 7.992.18 4.987 3.35 9.765 3.482 11.329zm5.08-27.581v.041h.042v.042l.045.045.042.045.045.042.042.042.045.087.042.045.087.087.041.087.046.086.173.174.129.22.174.218.173.215.174.261.174.26.215.261.174.306.174.302.219.303.173.306.216.302.174.347.173.303.174.306.129.347.174.302.132.303.128.347.087.306.087.302.087.26.041.303v.522c-.086 3.346-2.3 5.518-2.647 7.603 0 0-2.172-2.474-2.996-4.125-.956-1.911-1.696-3.475-1.39-5.602.222-2.126.789-3.475 3.002-5.601zm7.69-.522-.086.087-.045.132-.087.132-.087.129-.087.128-.087.174-.087.174-.128.174-.087.173-.087.174-.087.216-.129.173-.086.216-.087.219-.22.434-.086.26-.087.22-.087.219-.042.215-.086.26-.042.216-.087.22-.045.215-.042.26v.22l-.045.215v.389l.045.215v.22l.087.173c.476 1.956 2.561 4.691 3.256 5.907 0 0 1.65-3.388 2.04-4.952.347-1.56.042-4.08-3.301-7.207z"/>
  <path fill="#0055a5" d="m457.527 195.424.045-.347.042-.348.045-.347.042-.348.086-.347.046-.306.087-.303.086-.305.132-.306.087-.302.087-.261.129-.302.132-.261.087-.26.26-.522.216-.48.26-.476.216-.434.219-.434.087-.22.087-.218.086-.216.087-.215.087-.174.042-.215.042-.174.045-.174c.434-2.258.302-4.389-1.477-6.995a66.396 66.396 0 0 1-4.128 10.773c-.046.086-.087.128-.129.215 0-.087-.045-.132-.087-.215-1.216-2.433-2.78-5.953-4.17-10.773-1.737 2.606-1.911 4.733-1.477 6.995.393 1.998 2.606 4.386 2.867 8.295.26 3.955-4.17 5.432-4.17 5.432 1.522.52 3.214.781 5.908-1.78.476-.48.868-.955 1.129-1.522.302.563.695 1.043 1.13 1.522 2.734 2.561 4.43 2.3 5.907 1.78 0 0-4.39-1.477-4.17-5.432zm-13.945-26.104.045.128.087.174.041.132.046.174.086.174.087.173.042.174.087.174.128.347.174.348.174.393.132.347.174.393.087.174.041.173.087.129.087.174.042.173.045.132.087.174.042.132.045.129.041.087.046.128.041.087v.132l.045.042c.348 1.564-.132 3.475-2.953 5.473 0 0-1.825-1.303-2.561-2.995-.695-1.564-.261-2.694.434-3.475.695-.873 2.39-2.742 3.04-4zm5.994 5.82v.306l-.042.174v.306l-.045.215v.174l-.042.215-.041.22-.045.26-.042.26-.045.261-.042.26-.045.262-.042.26-.132.563-.128.563-.174.608-.087.26-.045.261-.129.303-.087.26-.087.261-.086.26-.13.261-.086.216-.132.219-.087.215c-1.78 3.086-4.385 5.432-6.69 5.432-2.084 0-2.519-1.258-3.603-1.78 0 0 .521-2.693 2.909-3.388 2.908-.91 7.38-4.385 9.205-7.687z"/>
  <path fill="#0055a5" d="m441.976 180.787-.087-.087-.087-.041-.173-.132-.087-.087-.087-.045-.132-.087-.087-.042-.087-.087-.087-.087-.041-.041-.046-.046-.041-.045-.045-.041-.087-.042-.046-.045-.041-.045-.045-.042-.042-.087-.087-.045-.045-.042-.042-.087s-2.217.824-4.128 2.085c-1.825 1.262-3.649 3.388-4.605 4.476 0 0 2.735.695 4.518-.087 0 0 .65-2.648 2.606-3.822.48-.264 1.828-.699 3.131-1.349zm-2.345-2.258-.046-.042-.041-.087-.045-.045-.042-.087-.045-.087-.042-.087-.045-.087-.042-.087-.045-.086-.087-.087-.042-.132-.045-.087-.042-.087-.045-.129-.041-.128-.046-.087-.086-.129-.042-.132v-.132l-.045-.128-.042-.129-.042-.132-.045-.174v-.128l-.042-.129v-.347l-.045-.132v-.348l.045-.174v-.173s-3.909 2.477-5.084 3.388c-1.174.955-3.603 3.475-4.17 4.302 0 0 2.954-.654 5.255-1.39 2.477-.83 4.17-1.96 5.084-2.481zm-6.603 4.211-.174.087-.219.042-.26.087-.216.087-.26.045-.261.087-.302.041-.26.087-.303.087-.306.045-.608.129-.608.174-.65.132-.608.128-.65.129-.608.132-.26.042-.303.086-.26.042-.303.087-.26.045-.22.042-.26.087-.216.045-.215.045-.174.087c-1.998.608-3.433 1.564-5.3 3.649 0 0 2.868.782 4.431 1.303 0 0 2.475-1.696 5.168-2.693 1.772-.692 2.595-2.561 4.465-4.386zm-4.389 13.946.087-.087.087-.087.087-.129.087-.087.045-.045.041-.087.042-.045.045-.045v-.087l.042-.045.045-.087.042-.042v-.087l.045-.041v-.174l.042-.042v-.521l-.042-.087v-.087l-.045-.132v-.087l-.042-.132c-.306-.823-2.043-1.782-3.082-2.258-1.696-.824-6.384-2.085-7.906-2.562 0 0-.782.91-1.17 1.87-.22.39.04.737.694.824 1.348.26 4.476-.348 5.254.173.824.522.522 1.258.522 1.957 0 0 1.435-.869 2.345-.65 1.258.257 2.04.865 2.735 2.909zm-4.17-6.516h.087l.042.045h.045l.087.042h.087l.086.041.087.046h.087l.087.045.129.042.087.041.132.045.128.046.132.041.129.087.128.045.132.042.174.087.129.045.174.087.128.087.174.045.174.087.132.087.173.087.174.086.174.087.128.087.174.129.174.087.174.087s.782-.303 1.174-1.043c.39-.695 1.998-3.086 3.475-3.388 0 0-1.261-.087-1.998-.348 0 0-1.477.39-2.606.87-1.08.388-2.43 1.083-3.993 2.126zm12.12-2.999h-.044l-.087.042-.045.045h-.087l-.042.045h-.087l-.045.042h-.087l-.041.041h-.133l-.041.046h-.132l-.042.045h-.219l-.087.041h-.26l-.087.042h-.306s-4.125 2.867-4.604 5.692c-.435 2.474.868 3.649 1.476 3.955.65.347 3.52 1.477 5.387-2.346 0 0-3.17 1.043-4.083-.476-.824-1.564.562-3.822 1.435-4.43 1.174-.87 3.214-1.477 4.472-1.217a11.468 11.468 0 0 0-2.21-1.567z"/>
  <path fill="#0055a5" d="m409.527 219.968.173-.782.216-.782.219-.823.087-.39.128-.389.129-.392.132-.435.132-.389.128-.39.174-.388.129-.393.173-.393.174-.389c1.866-3.954 6.474-14.508 16.027-16.332.869-.216-1.043-2.433-1.911-2.304-.869.087-2.561 1.216-3.302 1.695 0 0 0-2.258-.045-2.647 0-.39-.347-.563-.736-.563-.348.041-2.694 0-3.389.868-2.217 2.52-5.865 9.296-7.95 14.335-2.085 5.039-3.52 6.602-5.734 5.82-2.172-.781-3.475-3.3-7.34-2.519-1.303.26-2.78 1.175-3.954 2.478.348.608.737 1.39 2.52 1.39 1.779 0 5.254.736 7.123 2.043 1.922 1.33 3.917 1.81 6.697 2.071zm38.138-32.665.045.302.042.303.087.305.086.303.087.302.132.306.087.26.129.306.128.306.132.302.129.306.174.26.132.303.174.306.128.302.174.303s-2.867 13.42-13.42 14.421c0 0 .215-2.78 3.3-4.865 3.128-2.13 7.82-5.431 7.472-10.425 0 0-.869.174-2.346 2.043-1.477 1.87-4.778 7.298-9.817 7.34 0 0 .737-2.562 2.996-3.997 2.217-1.477 5.084-3.343 6.387-5.602 1.303-2.213 2.651-3.256 3.562-3.69zm-4.994 48.91 6.429 8.99 4.865-8.642-1.738-3.127c-1.26 2.3-2.651 4.736-3.388 6.126-.563-.869-2.172-3.127-4.298-6.126l-1.87 2.78z"/>
  <path fill="#0055a5" d="m441.062 228.61-1.17-1.65-1.217-1.693-1.216-1.695-1.217-1.693-1.216-1.695-1.174-1.651-.563-.782-.567-.782-.563-.782-.521-.736-.521-.74-.48-.696-.476-.695-.48-.65-.434-.608-.434-.566-.39-.563-.347-.48-.347-.476-.306-.434-.26-.393-.216-.347-.22-.26-.173-.261-.128-.174-.087-.129 2.432-1.737-7.645-2.912.129 8.298 2.606-1.87 15.377 21.632zm-52.646-49.039.174-.174.215-.173.174-.129.219-.129.215-.086.216-.087.215-.045.219-.046.219-.041h.26l.22.041h.26l.26.087.261.042.261.087.26.087.261.132.306.128.26.132.306.132.261.174.306.174.302.215.26.174.307.216.302.215.302.26.306.216.302.26.261.261.302.261.303.26c3.214 2.954 5.254 5.995 3.388 8.08-1.738 1.87-5.126.26-8.298-2.693-3.253-2.95-5.251-5.991-3.385-8.03z"/>
  <path fill="#0055a5" d="m393.628 216.059-.041-.042-.042-.045-.045-.042h-.045v-.042h-.042v-.045h-.042v-.045h-.045c-1.696-1.518-2.693-3.822-2.693-6.342 0-4.865 3.951-8.816 8.774-8.816a8.827 8.827 0 0 1 8.82 8.816c0 .654-.132 1.696-.132 1.696a138.375 138.375 0 0 0 2.13-4.691 11.21 11.21 0 0 0-10.818-8.212c-4.43 0-8.208 2.565-10.077 6.3.695-4.43 2.908-8.426 4.472-9.903 1.87-1.78 5.08-2.346 5.08-2.346-2.126.306-4.82-.956-7.95-3.777-2.909-2.693-4.386-5.039-4.518-6.992.174 2.78.129 4.299-.65 6.603-1.087 3.04-3.996 8.687-2.953 15.074.563 3.52 3.082 8.733 7.384 12.986.869.956 1.216 2.391 1.348 3.128 0 0 6.255 0 7.777.128 0 0 1.477-.128 1.39-1.087 0-.914-.823-1.13-1.518-1.13-.785-.003-3.913.042-5.564-1.174zm34.664 2.126-.737.261-.782.26-.737.22-.736.219-.782.215-.74.215-.737.174-.737.174-.782.174-.736.132-.737.128-.737.129-1.435.26-1.477.22a37.17 37.17 0 0 1-7.21.434 2.155 2.155 0 0 1-.174 1.258s.434.521.434 1.174c2.39.045 4.865-.045 7.34-.476 4.17-.653 8.558-1.477 12.944-3.127l-1.442-2.044zm6.602-.302.997-.566.998-.608.997-.65.997-.695.956-.737.997-.782.956-.823.997-.87.956-.91.91-.997.956-.997.91-1.088.956-1.175.91-1.174.87-1.262.475-.65.435-.694.823-1.39c-1.261.563-2.908.173-2.908.173-.087.129-.303.476-.435.609-4.343 6.473-9.208 10.598-14.205 13.291l1.452 1.995zm-35.271 2.259h-.435l-.132-.042h-1.431l-.303.042h-.347l-.306.045h-.347l-.303.045h-.302l-.174.042h-.132l-.132.042h-.129c-1.563.215-3.3.563-3.52 1.39-.128.823.39 1.692 1.175 2.908.521.737 1.65.348 2.259.087.653-.26 4.302-2.172 4.865-2.822.563-.608.781-1.522-.306-1.737zm3.694 2.432-.045-.041-.046-.046h-.041l-.042-.041h-.045l-.045-.042-.042-.045h-.087l-.045-.045h-.087l-.045-.042h-.087l-.042-.042h-.174l-.041-.045h-.174l-.087-.045h-.608l-.087.045h-.087l-.087.045h-.086l-.087.042h-.087c-.998.39-4.56 2.52-4.82 3.475-.219 1 .26 1.522.824 1.738.562.215 1.216.434 1.737.476.869.045 1.738-.476 2.217-1.043.434-.563 2.085-2.561 2.346-3.04.215-.393.389-1.088 0-1.304zm.434 2.172-.042.045-.041.087-.087.045-.042.087-.087.087-.087.087-.041.087-.087.087-.087.087-.087.128-.087.087-.087.087-.128.215-.174.22-.087.086-.087.132-.087.087-.087.087-.045.087-.087.087-.086.087-.046.087-.087.086-.045.087-.045.046-.042.086-.041.046v.045h-.045v.041l-.046.042c-.173.26.087.737.522.653.48-.045 2.908-.305 4.343-1.257 1.39-.956 2.346-2.78 1.39-3.476-1-.705-2.477-.357-4.128 1.425zm.782-5.344h-.087l-.087-.042h-.132l-.087-.045h-.087l-.086-.042h-.174l-.129-.045h-.087l-.087-.042h-.347l-.087-.041h-.605l-.086.041h-.087l-.087.042h-.087v.045h-.087l-.045.042-.042.045h-.042v.042h-.045v.041c-.52.782-.173 1.564 1.303 2.26 1.436.694 4.125 1.26 4.647.52.517-.736-.178-1.994-3.26-2.821zm61.202-50.082-.045.128-.087.174-.042.132-.042.174-.086.174-.046.173-.087.174-.086.174-.129.347-.174.348-.132.393-.174.347-.173.393-.087.174-.045.173-.087.129-.087.174-.042.173-.087.132-.045.174-.042.132-.045.129-.041.087-.046.128-.041.087-.045.132v.042c-.303 1.564.132 3.475 2.953 5.473 0 0 1.87-1.303 2.561-2.995.695-1.564.261-2.694-.389-3.475-.737-.873-2.387-2.742-3.082-4zm-5.995 5.82.042.087v.525l.045.174v.215l.042.174.045.215v.22l.042.26.045.26.042.261.045.26.087.262.045.26.129.563.132.563.128.608.087.26.087.261.087.303.087.26.132.261.087.26.087.261.132.216.128.219.087.215c1.783 3.086 4.344 5.432 6.69 5.432 2.084 0 2.564-1.258 3.561-1.78 0 0-.521-2.693-2.912-3.388-2.908-.91-7.384-4.385-9.209-7.687z"/>
  <path fill="#0055a5" d="m467.344 180.787.128-.087.087-.041.174-.132.087-.087.087-.045.087-.087.086-.042.087-.087.087-.087.042-.041.045-.046.042-.045.087-.041.045-.042.042-.045.045-.045.041-.042.046-.087.086-.045.042-.042.042-.087s2.259.824 4.128 2.085c1.825 1.262 3.649 3.388 4.646 4.476 0 0-2.78.695-4.559-.087 0 0-.65-2.648-2.606-3.822-.431-.264-1.821-.699-3.124-1.349zm2.345-2.258.042-.042.045-.087.042-.045.045-.087.042-.087.042-.087.045-.087.087-.087.041-.086.045-.087.042-.132.045-.087.087-.087.042-.129.045-.128.042-.087.045-.129.042-.132.045-.132.042-.128.045-.129.041-.132v-.174l.046-.128v-.129l.041-.174v-.305l.045-.174v-.174l-.045-.174v-.173s3.91 2.477 5.08 3.388c1.13.955 3.608 3.475 4.13 4.302 0 0-2.955-.654-5.213-1.39-2.475-.83-4.212-1.96-5.123-2.481zm6.603 4.211.215.087.216.042.219.087.26.087.261.045.26.087.261.041.306.087.26.087.306.045.609.129.65.174.608.132.653.128.608.129.608.132.302.042.306.086.26.042.261.087.261.045.26.042.22.087.215.045.216.045.219.087c1.952.608 3.388 1.564 5.299 3.649 0 0-2.912.782-4.43 1.303 0 0-2.475-1.696-5.213-2.693-1.783-.692-2.61-2.561-4.476-4.386zm4.385 13.946-.086-.087-.087-.087-.087-.129-.087-.087-.042-.045-.045-.087-.042-.045-.045-.045v-.087l-.042-.045-.045-.087-.041-.042v-.087l-.046-.041v-.174l-.041-.042v-.521l.041-.087v-.087l.046-.132.041-.087v-.132c.348-.823 2.044-1.782 3.083-2.258 1.737-.824 6.428-2.085 7.95-2.562 0 0 .737.91 1.175 1.87.132.39-.087.737-.737.824-1.303.26-4.476-.348-5.212.173-.824.522-.563 1.258-.563 1.957 0 0-1.435-.869-2.346-.65-1.265.257-2.001.865-2.742 2.909zm4.216-6.516h-.084l-.045.045h-.087l-.042.042h-.086l-.087.041-.087.046h-.087l-.132.045-.087.042-.129.041-.086.045-.129.046-.132.041-.129.087-.173.045-.132.042-.129.087-.174.045-.128.087-.174.087-.132.045-.174.087-.174.087-.173.087-.129.086-.174.087-.173.087-.174.129-.174.087-.174.087s-.782-.303-1.174-1.043c-.39-.695-1.998-3.086-3.43-3.388 0 0 1.216-.087 1.953-.348 0 0 1.522.39 2.606.87 1.08.388 2.426 1.083 4.035 2.126zm-12.121-2.999h.041l.046.042h.041l.045.045h.042l.045.045h.087l.042.042h.087l.042.041h.132l.041.046h.132l.087.045h.174l.087.041h.26l.087.042h.306s4.17 2.867 4.646 5.692c.39 2.474-.869 3.649-1.522 3.955-.608.347-3.475 1.477-5.386-2.346 0 0 3.17 1.043 4.083-.476.869-1.564-.521-3.822-1.435-4.43-1.13-.87-3.215-1.477-4.43-1.217.006-.003 1.003-.959 2.22-1.567z"/>
  <path fill="#0055a5" d="m499.835 219.968-.219-.782-.174-.782-.215-.823-.129-.39-.132-.389-.087-.392-.128-.435-.132-.389-.174-.39-.128-.388-.174-.393-.174-.393-.174-.389c-1.824-3.954-6.428-14.508-15.985-16.332-.91-.216 1.001-2.433 1.87-2.304.869.087 2.56 1.216 3.346 1.695v-2.647c.042-.39.39-.563.737-.563.39.041 2.693 0 3.433.868 2.172 2.52 5.866 9.296 7.906 14.335 2.127 5.039 3.562 6.602 5.734 5.82 2.172-.781 3.475-3.3 7.339-2.519 1.348.26 2.822 1.175 3.954 2.478-.305.608-.695 1.39-2.519 1.39-1.783 0-5.212.736-7.124 2.043-1.918 1.33-3.916 1.81-6.65 2.071zm-38.138-32.665-.087.302-.042.303-.087.305-.086.303-.087.302-.087.306-.129.26-.132.306-.087.306-.173.302-.129.306-.132.26-.174.303-.132.306-.347.608s2.908 13.42 13.465 14.421c0 0-.215-2.78-3.346-4.865-3.128-2.13-7.777-5.431-7.426-10.425 0 0 .782.174 2.3 2.044 1.477 1.87 4.778 7.297 9.862 7.339 0 0-.736-2.561-2.995-3.996-2.259-1.477-5.08-3.343-6.384-5.602-1.306-2.217-2.696-3.26-3.565-3.694zm-6.995 13.031.041.174.087.216.087.215.132.215.129.261.174.26.132.306.215.303.174.302.174.306.215.302.219.348.215.347.261.348.476.653.48.695.476.65.26.347.26.306.216.306.261.302.215.306.22.26.215.261.219.261.215.219.216.174.173.219.174.128c1.696 1.606 5.953 5.866 8.253 7.993 0 0-6.47-1.606-10.119-4.907 0 0-2.564 1.477-4.43 1.477h-.13c-1.869 0-4.471-1.477-4.471-1.477-3.608 3.301-10.078 4.907-10.078 4.907 2.259-2.127 6.516-6.387 8.253-7.993 1.738-1.564 5.734-7.21 6.342-8.99h.049z"/>
  <path fill="#0055a5" d="M454.702 215.232h.26l.129-.042h.393l.26-.045.26-.045.22-.087.26-.045.216-.087.26-.042.216-.087.174-.087.219-.041.086-.046.087-.045.087-.042.087-.041.087-.045h.087l.087-.046.087-.041c-.782 1.563-2.214 4.128-3.562 5.125h-.042c-1.39-.997-2.825-3.562-3.607-5.125.782.347 2.127.914 3.562.914h.087z"/>
  <path fill="#0055a5" d="m460.22 245.204 25.28-35.445 2.565 1.866.174-8.299-7.645 2.912 2.387 1.738c-1.216 1.783-20.11 28.234-22.5 31.577l-11.423-20.763-1.435 2.127-10.164 15.422-2.565-1.696v8.166l7.732-3.04-2.606-1.78c1.435-2.084 6.905-10.425 8.774-13.205l11.426 20.42z"/>
  <path fill="#0055a5" d="m464.866 231.262-.65-.956-.347-.476-.303-.48-.302-.434-.306-.48-.302-.434-.26-.434-.303-.434-.26-.39-.133-.173-.128-.22-.087-.173-.129-.174-.132-.174-.087-.173-.128-.174-.087-.132-.087-.174-.132-.132-.087-.128-.087-.13a294.994 294.994 0 0 1-3.346 6.082l-1.825-3.214 4.952-8.861 1.39 2.126 5.08 7.645-1.914 2.697zm5.213 2.3 1.782 2.78 2.561-1.695.042 8.166-7.732-3.04 2.561-1.78c-.26-.39-.65-1-1.174-1.783l1.96-2.648zm50.867-53.99-.174-.175-.215-.173-.174-.129-.22-.129-.215-.086-.218-.087-.216-.045-.215-.046-.22-.041h-.26l-.215.041h-.261l-.26.087-.261.042-.26.087-.261.087-.306.132-.26.128-.262.132-.302.132-.26.174-.303.174-.306.215-.302.174-.26.216-.303.215-.306.26-.302.216-.302.26-.306.261-.302.261-.303.26c-3.26 2.954-5.254 5.995-3.346 8.08 1.737 1.87 5.039.26 8.295-2.693 3.207-2.95 5.247-5.991 3.38-8.03z"/>
  <path fill="#0055a5" d="m515.688 216.059.042-.042h.045v-.045h.042v-.042h.045v-.042h.042l.045-.045h.041v-.045h.046c1.692-1.518 2.648-3.822 2.648-6.342a8.797 8.797 0 1 0-17.594 0c0 .654.128 1.696.128 1.696-.347-.737-1.824-4.083-2.127-4.691a11.196 11.196 0 0 1 10.773-8.212 11.22 11.22 0 0 1 10.123 6.3c-.695-4.43-2.909-8.426-4.473-9.903-1.87-1.78-5.038-2.346-5.038-2.346 2.085.306 4.82-.956 7.905-3.777 2.909-2.693 4.43-5.039 4.518-6.992-.174 2.78-.087 4.299.695 6.603 1.087 3.04 3.954 8.687 2.954 15.074-.563 3.52-3.128 8.733-7.385 12.986-.91.956-1.261 2.391-1.348 3.128 0 0-6.297 0-7.732.128 0 0-1.522-.128-1.477-1.087 0-.914.869-1.13 1.564-1.13.782-.003 3.867.042 5.518-1.174zm-41.266 1.824-.997-.566-.997-.608-.998-.65-.955-.695-.998-.737-.997-.782-.956-.823-.955-.87-.956-.91-.955-.997-.956-.997-.91-1.088-.91-1.175-.911-1.174-.91-1.262-.435-.65-.476-.694-.824-1.39c1.303.563 2.909.173 2.909.173.132.129.302.476.389.609 4.43 6.473 9.296 10.598 14.247 13.25l-1.449 2.036zm6.603.302.737.261.781.26.737.22.782.219.74.215.737.215.782.174.737.174.74.174.736.132.737.128.737.129 1.477.26 1.431.22a37.6 37.6 0 0 0 7.211.434c0 .389 0 .869.174 1.258 0 0-.39.521-.39 1.174-2.39.045-4.864-.045-7.384-.476-4.17-.653-8.559-1.477-12.986-3.127l1.484-2.044zm28.669 1.957h.48l.128-.042h1.393l.348.042h.306l.347.045h.302l.348.045h.302l.132.042h.174l.129.042h.128c1.522.215 3.26.563 3.475 1.39.174.823-.389 1.692-1.174 2.908-.476.737-1.61.348-2.26.087-.649-.26-4.256-2.172-4.864-2.822-.563-.608-.778-1.522.306-1.737zm-3.649 2.432.045-.041v-.046h.042l.087-.041h.045l.042-.042.045-.045h.041l.087-.045h.046l.086-.042h.046l.086-.042h.129l.087-.045h.132l.087-.045h.608l.087.045h.087l.087.045h.086l.087.042h.087c.998.39 4.563 2.52 4.82 3.475.219 1-.26 1.522-.782 1.738-.608.215-1.261.434-1.783.476a2.752 2.752 0 0 1-2.171-1.043c-.476-.563-2.127-2.561-2.346-3.04-.26-.393-.39-1.088 0-1.304zm-.476 2.172.042.045.086.087.046.045.041.087.087.087.087.087.045.087.087.087.087.087.087.128.087.087.087.087.173.215.174.22.174.218.045.087.087.087.087.087.087.087.041.087.087.087.045.086.087.087.042.046.045.086.042.046.042.045v.041l.045.042c.128.26-.129.737-.563.653-.48-.045-2.909-.305-4.302-1.257-1.435-.956-2.346-2.78-1.39-3.476.955-.705 2.474-.357 4.083 1.425zm-.782-5.344h.132l.042-.042h.132l.087-.045h.087l.086-.042h.174l.132-.045h.087l.129-.042h.305l.087-.041h.605l.087.041h.087l.087.042h.087l.045.045h.087v.042h.041l.045.045.042.042.045.041c.476.782.129 1.564-1.303 2.26-1.435.694-4.17 1.26-4.691.52-.525-.736.215-1.994 3.256-2.821z"/>
</svg>
