<svg version="1.1" id="Layer_1" xmlns="http://www.w3.org/2000/svg" xmlns:xlink="http://www.w3.org/1999/xlink" x="0px" y="0px" style="enable-background:new 0 0 612 792;" xml:space="preserve" viewBox="231.20 316.06 150.35 158.94">
<style type="text/css">
	.st0{fill:#42474C;}
	.st1{fill:#FDFDFD;}
</style>
<path class="st0" d="M231.93,316.97c1.57-1.45,3.49-0.7,5.23-0.7c32.79-0.05,65.58-0.05,98.37-0.02
	c20.32,0.02,37.32,14.15,40.22,33.31c3.08,20.4-8.76,38.57-29.05,44.6c-0.75,0.22-1.7,0.19-1.98,1.45
	c15.91,1.93,27.69,9.86,33.84,24.79c10.56,25.65-8.24,54.14-36.12,54.41c-35.78,0.34-71.57,0.04-107.36,0.16
	c-3.18,0.01-3.87-1.01-3.86-3.98c0.08-50.44,0.06-100.87,0.07-151.31c0-0.95-0.33-2.02,0.68-2.74c0.95,1.17,0.55,2.56,0.55,3.85
	c0.02,49.12,0.02,98.23,0.01,147.35c0,0.98,0.22,1.98-0.19,2.93c-0.06,0.15-0.2,0.27-0.3,0.4c0.14,0.01,0.27,0.02,0.52,0.04
	c0-49.96,0.05-99.92-0.09-149.87c-0.01-3.97,1.76-4.13,4.81-4.12c33.02,0.07,66.03,0.04,97.99,0.04c1.72-0.28,0.79-1.21,1.17-0.66
	c0.12,0.17-0.06,0.19-0.35,0.35c-0.94,0.54-1.94,0.25-2.9,0.26c-32.63,0.02-65.26,0.02-97.9,0.01
	C234.15,317.53,232.94,317.84,231.93,316.97z"></path>
<path class="st1" d="M312.66,366.61c-15.59,0-30.2-0.16-44.8,0.1c-3.99,0.07-4.99-1.08-4.93-4.96c0.18-10.96,0.01-10.96,10.81-10.96
	c21.3,0,42.6,0.08,63.9-0.08c3.47-0.03,4.17,0.96,4.49,4.39c0.74,8.01-1.84,14-7.31,19.98c-14.6,15.94-28.5,32.52-42.67,48.85
	c-0.64,0.74-1.21,1.54-1.81,2.31c0.99,1.63,2.46,0.88,3.63,0.89c15.48,0.06,30.95,0.12,46.43-0.03c3.18-0.03,4.59,0.72,4.29,4.11
	c-0.41,4.61,1.88,10.52-0.82,13.52c-2.79,3.09-8.8,0.95-13.38,0.97c-21.63,0.12-43.27-0.09-64.9,0.18
	c-4.56,0.06-5.31-1.37-5.48-5.61c-0.29-7.03,1.56-12.45,6.34-17.93c14.97-17.16,29.28-34.91,43.84-52.44
	C310.9,369.15,311.42,368.34,312.66,366.61z"></path>
</svg>
