<svg xmlns="http://www.w3.org/2000/svg" viewBox="231.2 316.06 150.35 158.94"><path d="M231.93 316.97c1.57-1.45 3.49-.7 5.23-.7 32.79-.05 65.58-.05 98.37-.02 20.32.02 37.32 14.15 40.22 33.31 3.08 20.4-8.76 38.57-29.05 44.6-.75.22-1.7.19-1.98 1.45 15.91 1.93 27.69 9.86 33.84 24.79 10.56 25.65-8.24 54.14-36.12 54.41-35.78.34-71.57.04-107.36.16-3.18.01-3.87-1.01-3.86-3.98.08-50.44.06-100.87.07-151.31 0-.95-.33-2.02.68-2.74.95 1.17.55 2.56.55 3.85.02 49.12.02 98.23.01 147.35 0 .98.22 1.98-.19 2.93-.06.15-.2.27-.3.4l.52.04c0-49.96.05-99.92-.09-149.87-.01-3.97 1.76-4.13 4.81-4.12 33.02.07 66.03.04 97.99.04 1.72-.28.79-1.21 1.17-.66.12.17-.06.19-.35.35-.94.54-1.94.25-2.9.26-32.63.02-65.26.02-97.9.01-1.14.01-2.35.32-3.36-.55z" fill="#42474c"/><path d="M312.66 366.61c-15.59 0-30.2-.16-44.8.1-3.99.07-4.99-1.08-4.93-4.96.18-10.96.01-10.96 10.81-10.96 21.3 0 42.6.08 63.9-.08 3.47-.03 4.17.96 4.49 4.39.74 8.01-1.84 14-7.31 19.98-14.6 15.94-28.5 32.52-42.67 48.85-.64.74-1.21 1.54-1.81 2.31.99 1.63 2.46.88 3.63.89 15.48.06 30.95.12 46.43-.03 3.18-.03 4.59.72 4.29 4.11-.41 4.61 1.88 10.52-.82 13.52-2.79 3.09-8.8.95-13.38.97-21.63.12-43.27-.09-64.9.18-4.56.06-5.31-1.37-5.48-5.61-.29-7.03 1.56-12.45 6.34-17.93 14.97-17.16 29.28-34.91 43.84-52.44.61-.75 1.13-1.56 2.37-3.29z" fill="#fdfdfd"/></svg>