<svg viewBox="0 0 118 118" fill="none" xmlns="http://www.w3.org/2000/svg"><path d="M54.426 43.004c16.457-6.476 22.688 4.823 24.291 14.075l4.478-.075c-.77-5.013-2.81-11.203-7.341-15.488-2.532-2.394-5.788-4.13-9.798-4.676-3.082-.419-6.443-.112-10.082.95-3.474-3.825-9.777-8.415-18.3-8.415-12.183 0-20.7 9.726-22.61 19.346-2.62.533-5.548 1.66-8.153 3.715C2.86 55.63 0 60.752 0 68.087c0 7.574 3.047 12.795 7.232 16.003 3.977 3.05 8.647 4.036 11.858 4.036h60.282l.21-.02c2.5-.238 5.714-1.516 8.31-4.319 1.594-1.72 2.87-3.919 3.644-6.623h-4.67c-1.824 4.674-5.555 6.326-7.705 6.53H19.09c-4.886 0-14.659-3.12-14.659-15.607 0-12.11 9.194-15.237 14.206-15.329.155-.002.306-.002.453 0 0-.171.002-.343.008-.515l.003-.07c.326-8.64 7.823-18.367 18.573-18.367 8.795 0 14.832 6.132 16.752 9.198Z" fill="#0075FF"/><path d="M23.588 74.805c-1.933 0-3.492-.381-4.68-1.143-.567-.337-.85-.816-.85-1.436 0-.355.097-.638.292-.851a.906.906 0 0 1 .717-.346c.302 0 .718.142 1.25.426.567.266 1.081.47 1.542.611.479.142 1.082.213 1.808.213.745 0 1.32-.124 1.729-.372.425-.248.638-.594.638-1.037 0-.302-.089-.54-.266-.718-.16-.177-.461-.337-.904-.479-.426-.16-1.081-.337-1.968-.532-1.577-.319-2.712-.77-3.403-1.355-.674-.586-1.01-1.392-1.01-2.42 0-.78.23-1.48.69-2.1.462-.639 1.091-1.126 1.889-1.463.815-.354 1.737-.532 2.765-.532.744 0 1.462.098 2.154.293a6.284 6.284 0 0 1 1.86.797c.568.355.852.825.852 1.41 0 .354-.098.655-.293.904a.906.906 0 0 1-.718.345 1.7 1.7 0 0 1-.585-.106 16.913 16.913 0 0 1-.691-.372 9.585 9.585 0 0 0-1.33-.585c-.372-.142-.832-.213-1.382-.213-.656 0-1.179.133-1.569.399a1.27 1.27 0 0 0-.558 1.09c0 .443.195.78.585 1.01.39.23 1.143.461 2.26.692 1.188.248 2.118.531 2.792.85.673.32 1.152.718 1.436 1.197.3.479.451 1.09.451 1.835 0 1.205-.505 2.171-1.515 2.898-.993.726-2.322 1.09-3.988 1.09Zm19.764-2.792c.355.337.532.718.532 1.143 0 .408-.15.772-.452 1.09-.284.32-.62.48-1.01.48s-.754-.16-1.09-.48L35.11 68.61v4.546c0 .514-.16.904-.479 1.17-.319.266-.718.4-1.196.4-.479 0-.878-.134-1.197-.4-.301-.266-.452-.656-.452-1.17V57.283c0-.514.15-.904.452-1.17.32-.266.718-.399 1.197-.399.478 0 .877.133 1.196.399.32.266.479.656.479 1.17v9.997l5.69-5.45c.319-.32.682-.479 1.09-.479.408 0 .762.15 1.063.452.302.301.453.656.453 1.064 0 .407-.169.78-.506 1.116l-4.174 3.882 4.626 4.148Zm11.497-9.731c.141-.32.327-.55.558-.692.248-.16.514-.239.798-.239a1.6 1.6 0 0 1 1.09.425c.337.266.505.603.505 1.01 0 .196-.053.4-.16.612l-7.258 15.21c-.302.602-.771.903-1.41.903-.407 0-.77-.133-1.09-.399a1.184 1.184 0 0 1-.452-.957c0-.195.053-.416.16-.665l1.808-3.802-4.946-10.29a1.349 1.349 0 0 1-.133-.611c0-.408.169-.754.505-1.037a1.866 1.866 0 0 1 1.197-.426c.301 0 .576.08.824.24.248.142.443.372.585.691l3.723 8.216 3.696-8.19Zm12.48-1.01c1.56 0 2.72.442 3.483 1.329.762.886 1.143 2.224 1.143 4.014v6.541c0 .497-.15.887-.452 1.17-.284.284-.683.426-1.197.426s-.921-.142-1.223-.426c-.301-.283-.452-.673-.452-1.17v-6.354c0-1.01-.195-1.746-.585-2.207-.372-.461-.966-.691-1.781-.691-.957 0-1.728.3-2.313.903-.568.603-.851 1.41-.851 2.42v5.93c0 .496-.15.886-.452 1.17-.302.283-.71.425-1.223.425-.514 0-.922-.142-1.223-.426-.284-.283-.426-.673-.426-1.17v-10.29c0-.46.15-.833.452-1.116.302-.284.71-.426 1.223-.426.461 0 .833.142 1.117.426.301.266.452.62.452 1.063v.718a4.497 4.497 0 0 1 1.781-1.675c.745-.39 1.587-.585 2.526-.585Zm13.93 13.533c-1.329 0-2.499-.275-3.509-.824a5.725 5.725 0 0 1-2.313-2.367c-.55-1.028-.824-2.224-.824-3.59 0-1.364.274-2.552.824-3.562a5.725 5.725 0 0 1 2.313-2.367c1.01-.55 2.18-.824 3.51-.824 1.33 0 2.49.275 3.483.824a5.52 5.52 0 0 1 2.313 2.367c.55 1.01.825 2.198.825 3.563 0 1.365-.275 2.561-.825 3.59a5.52 5.52 0 0 1-2.313 2.366c-.993.55-2.154.824-3.483.824Zm-.026-2.58c1.082 0 1.906-.354 2.473-1.063s.85-1.755.85-3.137c0-1.365-.283-2.402-.85-3.111-.567-.727-1.383-1.09-2.446-1.09-1.064 0-1.888.363-2.473 1.09-.567.709-.85 1.746-.85 3.11 0 1.383.283 2.43.85 3.138.567.71 1.383 1.064 2.446 1.064Zm20.24-16.51c.496 0 .904.14 1.223.425.319.283.478.655.478 1.116v15.9c0 .479-.15.86-.452 1.144-.301.283-.7.425-1.196.425s-.895-.142-1.197-.425c-.301-.284-.452-.665-.452-1.144v-.664a4.143 4.143 0 0 1-1.701 1.701c-.727.408-1.56.612-2.5.612-1.116 0-2.118-.284-3.004-.85-.869-.568-1.551-1.366-2.047-2.394-.48-1.046-.718-2.242-.718-3.59 0-1.347.239-2.525.718-3.536.496-1.01 1.178-1.79 2.047-2.34.868-.55 1.87-.824 3.004-.824.94 0 1.773.195 2.5.585.726.39 1.285.94 1.675 1.649v-6.302c0-.443.142-.798.425-1.063.302-.284.7-.426 1.197-.426Zm-4.92 16.51c1.064 0 1.88-.363 2.447-1.09.585-.726.877-1.763.877-3.11S99.585 65.65 99 64.94c-.567-.726-1.374-1.09-2.42-1.09-1.063 0-1.887.355-2.472 1.064-.585.709-.878 1.728-.878 3.058 0 1.347.293 2.393.878 3.137.585.744 1.4 1.117 2.446 1.117Zm20.33-1.196c.301 0 .541.115.718.346.195.23.292.54.292.93 0 .55-.327 1.01-.983 1.383a9.312 9.312 0 0 1-2.048.824 8.798 8.798 0 0 1-2.18.293c-2.092 0-3.749-.603-4.972-1.808-1.223-1.206-1.835-2.854-1.835-4.946 0-1.33.266-2.508.798-3.536s1.276-1.826 2.233-2.393c.975-.567 2.074-.85 3.297-.85 1.17 0 2.19.256 3.058.77.869.514 1.542 1.241 2.021 2.18.479.94.718 2.048.718 3.324 0 .762-.337 1.144-1.011 1.144h-7.843c.106 1.223.452 2.127 1.037 2.712.585.567 1.436.85 2.552.85.567 0 1.064-.07 1.489-.212.443-.142.94-.337 1.489-.585.532-.284.922-.426 1.17-.426Zm-4.6-7.418c-.904 0-1.631.284-2.18.85-.532.568-.851 1.383-.957 2.447h6.009c-.036-1.081-.301-1.897-.798-2.446-.496-.567-1.187-.851-2.074-.851Z" fill="#fff"/></svg>
