<svg clip-rule="evenodd" fill-rule="evenodd" stroke-linejoin="round" stroke-miterlimit="2" version="1.1" viewBox="5e-4 167.8 500 164.41" xml:space="preserve" xmlns="http://www.w3.org/2000/svg">
    <g transform="translate(-5e-4 167.07)">
        <g transform="matrix(2.5005 0 0 2.5005 -.0015005 -1.0848)">
            <path d="m79.198 41.305c-9.727 8.678-20.892 14.06-37.524 14.06-15.415 0-27.08-4.998-37.133-14.06l-4.54 5.305c9.84 10.382 23.216 19.862 42.176 19.862 18.37 0 31.95-9.693 41.578-19.862l-4.557-5.305z" fill="#00b7ff"/>
        </g>
        <g transform="matrix(2.5005 0 0 2.5005 -.0015005 -1.0848)">
            <path d="m74.815 9.817c-0.038-1.435-0.582-2.482-1.62-3.14-1.039-0.661-2.406-0.994-4.081-0.994-0.63 0-1.22 0.053-1.787 0.166-0.543 0.099-1.063 0.294-1.537 0.576-0.451 0.272-0.828 0.651-1.097 1.104-0.267 0.462-0.41 1.036-0.41 1.736 0 0.659 0.25 1.19 0.74 1.594 0.493 0.408 1.144 0.764 1.948 1.076 0.803 0.313 1.702 0.607 2.69 0.88 0.984 0.278 1.971 0.597 2.96 0.966 0.842 0.333 1.664 0.7 2.47 1.103 0.802 0.406 1.502 0.9 2.107 1.489 0.61 0.601 1.104 1.308 1.457 2.088 0.363 0.812 0.541 1.783 0.541 2.922 0 1.65-0.365 3.068-1.09 4.243-0.727 1.171-1.702 2.168-2.857 2.92-1.167 0.77-2.513 1.335-4.026 1.679-1.518 0.349-3.05 0.523-4.578 0.523-1.647 0-3.183-0.155-4.606-0.466-1.43-0.312-2.674-0.849-3.732-1.602-1.058-0.75-1.901-1.76-2.525-3.028-0.62-1.265-0.95-2.871-0.983-4.818h5.919c-0.07 1.794 0.499 3.073 1.703 3.828 1.207 0.753 2.725 1.129 4.55 1.129 0.656 0 1.332-0.066 2.028-0.194 0.666-0.119 1.312-0.332 1.919-0.632 0.58-0.287 1.08-0.713 1.455-1.24 0.38-0.533 0.575-1.203 0.575-2.011 0-0.733-0.265-1.34-0.792-1.821-0.533-0.471-1.206-0.886-2.03-1.237-0.912-0.379-1.847-0.701-2.799-0.964-1.027-0.29-2.042-0.621-3.043-0.992-0.822-0.284-1.62-0.634-2.385-1.047-0.734-0.388-1.408-0.879-2.003-1.458-0.586-0.573-1.052-1.257-1.372-2.012-0.326-0.775-0.492-1.687-0.492-2.757 0-1.541 0.34-2.861 1.016-3.961 0.665-1.095 1.576-2.02 2.66-2.702 1.096-0.698 2.341-1.21 3.729-1.545 1.401-0.331 2.836-0.497 4.275-0.494 1.538 0 2.98 0.138 4.33 0.416 1.354 0.276 2.533 0.758 3.54 1.458 1.002 0.695 1.792 1.634 2.362 2.806 0.559 1.178 0.829 2.649 0.788 4.413h-5.917zm10.285 26.173c3.63-3.732 5.658-6.448 5.658-6.448l-5.086-28.049h6.582l2.855 22.321s6.84-11.496 10.913-22.32c5.516-0.04 2.813-0.04 6.689 0-8.775 20.325-19.249 34.835-23.388 39.333m45.101-29.909c0.07-1.765-0.402-3.077-1.429-3.942-1.02-0.861-2.412-1.293-4.165-1.293-1.568 0-2.94 0.402-4.115 1.211-1.171 0.815-2.16 1.866-2.902 3.085-0.78 1.274-1.363 2.659-1.729 4.107-0.38 1.488-0.573 2.909-0.573 4.267 0 1.069 0.108 2.048 0.325 2.947 0.217 0.898 0.575 1.68 1.07 2.345 0.492 0.661 1.143 1.182 1.947 1.566 0.804 0.388 1.794 0.58 2.961 0.58 1.868 0 3.391-0.498 4.578-1.485 1.187-0.994 2.04-2.369 2.552-4.135h6.252c-1.027 3.674-2.744 6.357-5.155 8.045-2.41 1.688-5.504 2.532-9.267 2.532-1.863 0-3.51-0.294-4.938-0.88-1.422-0.59-2.624-1.422-3.59-2.508-0.97-1.079-1.71-2.368-2.221-3.855-0.517-1.49-0.772-3.13-0.772-4.932 0-2.385 0.37-4.665 1.098-6.83 0.734-2.17 1.792-4.065 3.182-5.7 1.391-1.638 3.08-2.931 5.072-3.884 1.996-0.955 4.253-1.433 6.773-1.433 1.57 0 3.055 0.216 4.437 0.659 1.393 0.44 2.598 1.082 3.626 1.929 1.021 0.847 1.822 1.912 2.41 3.194 0.588 1.283 0.863 2.755 0.824 4.41h-6.251zm22.809 19.83c-3.948 0-6.997-1.073-9.152-3.224-2.162-2.144-3.242-5.223-3.242-9.221 0-2.355 0.39-4.587 1.155-6.697 0.766-2.112 1.857-3.978 3.265-5.593 1.405-1.618 3.107-2.9 5.098-3.855 1.99-0.955 4.215-1.434 6.666-1.434 3.949 0 6.998 1.039 9.153 3.115 2.162 2.073 3.24 5.115 3.24 9.117 0 2.498-0.37 4.83-1.096 6.996-0.735 2.165-1.806 4.048-3.21 5.646-1.417 1.603-3.156 2.89-5.103 3.776-1.99 0.914-4.247 1.374-6.774 1.374m3.399-25.065c-1.605 0-3.005 0.402-4.189 1.21-1.192 0.81-2.209 1.85-2.992 3.06-0.816 1.259-1.417 2.646-1.778 4.103-0.376 1.438-0.569 2.918-0.577 4.404 0 2.098 0.519 3.841 1.564 5.239 1.04 1.398 2.693 2.09 4.963 2.09 1.608 0 3.003-0.393 4.19-1.181 1.193-0.795 2.211-1.826 2.991-3.03 0.804-1.231 1.397-2.608 1.781-4.133 0.383-1.524 0.579-3.003 0.579-4.434 0-2.093-0.522-3.841-1.561-5.235-1.048-1.397-2.698-2.093-4.971-2.093m22.378-4.189h5.924l-1.154 5.565 0.11 0.11c0.44-0.77 0.975-1.542 1.62-2.316 0.637-0.77 1.34-1.455 2.111-2.064 0.762-0.605 1.601-1.105 2.496-1.487 0.892-0.386 1.853-0.583 2.825-0.579 0.508 0 1.014 0.01 1.504 0.029 0.498 0.023 0.995 0.063 1.513 0.136l-1.322 6.006c-0.364-0.071-0.729-0.13-1.095-0.165-0.366-0.034-0.733-0.053-1.1-0.055-1.606 0-3.004 0.285-4.19 0.854-1.166 0.549-2.196 1.349-3.017 2.342-0.845 1.025-1.521 2.178-2.003 3.416-0.521 1.32-0.923 2.683-1.204 4.073l-2.633 12.62h-6.254l5.87-28.485h-1e-3z" fill="#878787"/>
        </g>
    </g>
</svg>
