<svg xmlns="http://www.w3.org/2000/svg" viewBox="0 0 826 768">
<path style="fill:#de6a2c; stroke:none;" d="M328 10C332.09 16.6867 342.773 21.1282 349 26.0146C361.083 35.4971 372.559 47.8244 380.55 61.0008C414.662 117.244 414.268 190.38 374.37 244C364.114 257.784 350.806 273.481 335 281C341.903 270.562 349.717 261.109 355.691 250C370.158 223.092 376.998 190.448 374.91 160C373.633 141.357 369.225 122.055 361.543 105C354.938 90.3348 346.85 75.9433 335.925 64.0038C321.509 48.2496 304.683 35.1677 285 26.635C232.011 3.6637 164.989 17.1686 118 48.3557C66.3478 82.6381 44.2045 140.725 32.5509 199C26.6532 228.492 24.9572 258.112 22.9105 288C19.7339 334.387 19.7339 381.613 22.9105 428C23.2976 433.653 22.7024 439.347 23.0895 445C27.347 507.171 35.8279 572.525 64 629C92.5342 686.201 145.21 725.079 206 742.552C216.942 745.697 227.883 748.455 239 750.883C243.723 751.915 250.142 754.154 254.941 753.758C261.564 753.213 259 738.638 259 734L259 683C259 677.999 260.945 667.742 257.972 663.51C256.146 660.91 251.831 660.388 249 659.579C242.266 657.654 235.561 655.602 229 653.15C210.877 646.377 193.546 636.524 181.514 621C164.559 599.124 163 568.511 163 542C163 495.217 163.511 440.098 208 412.229C215.128 407.764 222.887 404.49 231 402.282C260.675 394.209 295.901 396.72 326 401.41C332.614 402.44 339.342 402.605 346 403.572C348.632 403.954 352.364 403.569 354.397 405.603C357.785 408.994 356 418.582 356 423L356 473L356 672L356 735L356 751C356.005 753.236 355.532 756.508 357.028 758.397C358.583 760.361 361.791 759.984 364 759.999C370.666 760.045 377.334 760 384 760L466 760L488 760C490.704 759.994 494.95 760.622 496.397 757.682C497.591 755.255 497 751.62 497 749L497 730L497 663L497 424C511.943 424.041 527.269 427.196 542 429.562C580.872 435.805 629.398 441.084 654.957 475C675.831 502.699 674 541.208 674 574L674 760L815 760C815 677.686 814.025 595.307 815.004 513C815.166 499.371 816.652 485.627 816.985 472C818.006 430.347 817.109 388.391 813.17 347C806.181 273.568 793.538 195.613 744.565 137.001C686.758 67.8169 591.54 42.9158 506 29.7037C483.017 26.1538 460.141 22.1804 437 19.8295C408.297 16.9135 379.808 13.8834 351 11.9105C343.301 11.3832 335.74 10.0051 328 10M149 302.329C172.57 298.303 179.593 336.103 156 339.786C152.148 340.388 147.583 340.237 144.015 338.583C127.311 330.841 130.914 305.419 149 302.329z"/>
</svg>
