<svg version="1.1" id="Layer_1" xmlns="http://www.w3.org/2000/svg" x="0" y="0" viewBox="0 0 43.6 79.6" xml:space="preserve"><style>.st0{fill:#f60}.st6{opacity:.5;enable-background:new}</style><path class="st0" d="M42.2 23.2l-19-23c-.4-.4-1.1-.2-1.1.4l1.6 22.3L9.9 11.1c-.4-.4-1.1 0-1 .6l5.5 22-13.3-7.8c-.5-.3-1.1.2-.9.8l23.3 52.6c.2.5 1 .4 1.1-.1l5.1-27 13-22c1.3-2.2 1.1-5-.5-7z"/><path d="M23.6 22.9L9.7 11.1c-.4-.4-1.1 0-1 .6l5.5 22 10.5 6.2-1.1-17z" fill="#e74030"/><path d="M23.8 67.6c-.2.6-1 .5-1.1-.1l-8.4-33.8L.9 25.8c-.5-.3-1.1.2-.9.8l23.3 52.6c.2.5 1 .4 1.1-.1l5.1-27-.1.1-5.6 15.4z" fill="#fab418"/><path d="M23.8 67.6l5.8-15.4-2.6 4.3c-.3.5-1.1.3-1.1-.3l-1.1-16.3-10.5-6.2 8.4 33.8c.1.6.9.7 1.1.1" fill="#de0732"/><path class="st0" d="M42 23.2L23 .2c-.3-.4-1-.1-1 .4l1.6 22.3 9.6 8.3c1.9 1.6 2.6 4.3 1.7 6.7l-5.3 14v.2l13-22c1.3-2.1 1-4.9-.6-6.9"/><path d="M27.5 41.6c2.2 1.3 3.3 3.8 2.9 6.3l-.8 4.1 5.3-14c.9-2.4.2-5-1.7-6.7L23.6 23l1.2 17 2.7 1.6z" fill="#de0733"/><path d="M29.5 52.3l.1-.2v-.2"/><path d="M29.5 52.3l.1-.2v-.2"/><path d="M27.5 41.6l-2.8-1.7 1.1 16.3c0 .6.8.8 1.1.3l2.5-4.3.1-.3.8-4.1c.6-2.4-.6-4.9-2.8-6.2" fill="#cc1d46"/><g><path class="st6" d="M39 52.4l.1-.2V52z"/><path class="st6" d="M39 52.4l.1-.2V52z"/></g></svg>