<svg viewBox="0 0 141 142" version="1.1" xmlns="http://www.w3.org/2000/svg" xmlns:xlink="http://www.w3.org/1999/xlink">
    <defs>
        <polygon id="path-1" points="70.0770012 140.594059 0 140.594059 0 0.210891089 70.0770012 0.210891089 140.154002 0.210891089 140.154002 140.594059 70.0770012 140.594059"></polygon>
    </defs>
    <g id="Page-1" stroke="none" stroke-width="1" fill="none" fill-rule="evenodd">
        <g id="Nulab-logos-" transform="translate(-798.000000, -2619.000000)">
            <g id="Group-4" transform="translate(798.000000, 2619.000000)">
                <g id="Group-11" transform="translate(0.000000, 0.682351)">
                    <mask id="mask-2" fill="white">
                        <use xlink:href="#path-1"></use>
                    </mask>
                    <g id="Clip-10"></g>
                    <path d="M111.563033,140.594059 L28.5918118,140.594059 C12.8667083,140.594059 -0.000561460446,127.707208 -0.000561460446,111.956455 L-0.000561460446,28.848495 C-0.000561460446,13.0977426 12.8667083,0.210891089 28.5918118,0.210891089 L111.563033,0.210891089 C127.288136,0.210891089 140.154002,13.0977426 140.154002,28.848495 L140.154002,111.956455 C140.154002,127.707208 127.288136,140.594059 111.563033,140.594059" id="Fill-9" fill="#74758B" mask="url(#mask-2)"></path>
                </g>
                <path d="M67.9326434,93.1091665 L57.6144041,93.1091665 L57.6144041,69.9406715 C57.6144041,62.9826715 51.9633047,57.3223546 45.0166353,57.3223546 C38.0713696,57.3223546 32.4202702,62.9826715 32.4202702,69.9406715 L32.4202702,93.1091665 L22.1020308,93.1091665 L22.1020308,69.9406715 C22.1020308,57.2843942 32.3823716,46.9872853 45.0166353,46.9872853 C57.6523026,46.9872853 67.9326434,57.2843942 67.9326434,69.9406715 L67.9326434,93.1091665 Z" id="Fill-12" fill="#FFFFFF"></path>
                <path d="M95.1375075,94.6594972 C82.5018402,94.6594972 72.2214994,84.3623883 72.2214994,71.7061111 L72.2214994,48.537616 L82.5397387,48.537616 L82.5397387,71.7061111 C82.5397387,78.6641111 88.1908381,84.3244279 95.1375075,84.3244279 C102.082773,84.3244279 107.733873,78.6641111 107.733873,71.7061111 L107.733873,48.537616 L118.053516,48.537616 L118.053516,71.7061111 C118.053516,84.3623883 107.773175,94.6594972 95.1375075,94.6594972" id="Fill-14" fill="#FFFFFF"></path>
            </g>
        </g>
    </g>
</svg>