<svg xmlns="http://www.w3.org/2000/svg" viewBox="0 0 1999.97 1601.88">
    <path d="M1345.77,901.24c7.94,4,17.87,13.5,29.78,28.78a275.38,275.38,0,0,1,31.75,52.6q31.86,75.33,31.76,210.4,0,206.34-140.93,307.66T889.24,1601.91q-291.78,0-446.6-113.14-164.65-123-164.75-430.72,0-234.33,140.93-373.17,47.64-47.64,85.35-75.42c25.21-18.46,58.16-38.31,99.24-59.55,51.61-25.21,96.87-45.26,136-60.54s60.54-23.42,64.51-24.81q262-101.24,337.44-236.21c17.26-30.37,25.8-61.93,25.8-94.28s-8.54-57-25.8-73.44-19.85-26.2-7.94-28.78q35.73,6,62.52,47.63c17.87,27.79,26.8,53,26.8,75.43s-.6,41.29-2,56.57-4.36,33.74-8.93,55.58a347.23,347.23,0,0,1-20.84,65.5c-9.33,21.83-21.24,46.05-35.73,72.45q-43.77,79.5-148.87,192.54Q907.2,702.64,881.3,740.46l-55.58,75.43L786,883.37l-23.82,65.51-11.91,65.5,9.92,55.58q17.87,55.66,103.22,91.3c-14.49-11.91-27.79-32.35-39.7-61.53s-17.86-63.52-17.86-103.22,27.39-90.9,82.37-153.83,96.27-100.24,124.06-111.15,1,0,0,0ZM903.14,135.06q0,87.24,81.38,166.73l-97.26,53.6q-39.6-89.33-39.7-194.52c0-34.34,6.55-59.55,19.85-75.43,19.85-25.21,37.31-41.29,52.6-48.63s22.82-7.54,22.82-1-4,13.89-11.91,21.83C913.66,74.92,904.53,100.72,903.14,135.06ZM833.66,387.15,649.07,458.6,33.74,137.05C11.31,122.56,0,104.89,0,84.45S3.57,46.73,10.92,32.84,29.38,9.42,44.66,4.06,78-1.3,99.25,4.06Zm307.67,160.77L1975,978.65q41.68,39.6,13.89,95.28c-6.55,14.49-16.47,25.2-29.77,31.75s-29.77,9.33-49.62,7.94L1046.05,665Z" transform="translate(0 -0.04)" style="fill:#cc2929" />
</svg>