<svg inkscape:version="1.1 (c4e8f9e, 2021-05-24)" sodipodi:docname="tmobile-logo-2.svg" version="1.1" id="svg140" xmlns:inkscape="http://www.inkscape.org/namespaces/inkscape" xmlns:sodipodi="http://sodipodi.sourceforge.net/DTD/sodipodi-0.dtd" xmlns="http://www.w3.org/2000/svg" xmlns:svg="http://www.w3.org/2000/svg" xmlns:rdf="http://www.w3.org/1999/02/22-rdf-syntax-ns#" xmlns:cc="http://creativecommons.org/ns#" xmlns:dc="http://purl.org/dc/elements/1.1/" viewBox="44.00 334.00 65.40 80.45">
  <metadata id="metadata27">
    <rdf:rdf>
      <cc:work rdf:about="">
        <dc:format>image/svg+xml</dc:format>
        <dc:type rdf:resource="http://purl.org/dc/dcmitype/StillImage"></dc:type>
      </cc:work>
    </rdf:rdf>
  </metadata>
  <defs id="defs25"></defs>

  <sodipodi:namedview units="mm" inkscape:cy="43.436559" borderopacity="1.0" pagecolor="#ffffff" inkscape:zoom="1.979899" inkscape:cx="267.43788" id="base" inkscape:window-x="0" inkscape:window-y="0" inkscape:window-width="1680" inkscape:window-height="1050" inkscape:pageshadow="2" inkscape:pageopacity="0.0" bordercolor="#666666" width="186.67mm" height="27.6mm" inkscape:document-units="px" showgrid="false" fit-margin-top="0" fit-margin-left="0" fit-margin-right="0" fit-margin-bottom="0" inkscape:window-maximized="0" inkscape:pagecheckerboard="false">
  </sodipodi:namedview>

  <path style="fill:#999b9e" inkscape:connector-curvature="0" d="m 44,370.704 h 16.107 v 16.437 H 44 Z" id="path18"></path>
  <path style="fill:#ed008c" inkscape:connector-curvature="0" d="m 82.683,337.895 h 1.911 c 12.343,0 18.096,6.603 20.5,24.212 l 3.822,-0.169 L 108.406,334 H 45.598 l -0.619,27.938 3.678,0.169 c 0.637,-6.603 1.401,-10.159 3.059,-13.715 2.931,-6.604 9.048,-10.497 16.566,-10.497 h 2.676 v 60.784 c 0,6.434 -0.382,8.466 -1.91,9.99 -1.275,1.185 -3.824,1.693 -6.756,1.693 h -2.931 v 4.063 H 94.28 v -4.063 h -2.949 c -2.913,0 -5.48,-0.509 -6.736,-1.693 -1.529,-1.524 -1.911,-3.557 -1.911,-9.99 v -60.784" id="path20"></path>
  <path style="fill:#999b9e" inkscape:connector-curvature="0" d="m 93.274,370.704 h 16.107 v 16.437 H 93.274 Z" id="path22"></path>
</svg>