<svg viewBox="0 0 106.798 106.798" xmlns="http://www.w3.org/2000/svg"><path d="M53.399 106.798c29.491 0 53.4-23.907 53.4-53.399C106.798 23.908 82.89 0 53.398 0S0 23.908 0 53.399c0 29.492 23.908 53.399 53.399 53.399z" fill="#ffe01b"/><path d="M69.347 52.079a6.038 6.038 0 0 1 1.556 0c.28-.64.329-1.747.078-2.949-.375-1.789-.88-2.871-1.923-2.701-1.043.17-1.082 1.464-.711 3.253.208 1.004.583 1.866 1 2.397zm-8.963 1.414c.746.329 1.206.545 1.386.357.117-.12.081-.343-.099-.636-.368-.601-1.128-1.213-1.934-1.556-1.647-.707-3.61-.474-5.123.615-.498.368-.976.874-.905 1.181.021.099.096.173.272.198.414.046 1.853-.682 3.511-.781 1.17-.071 2.143.293 2.889.622zm-1.505.856c-.973.152-1.51.474-1.857.774-.293.258-.477.541-.473.743 0 .095.042.148.074.176.046.039.095.06.159.06.22 0 .71-.198.71-.198 1.355-.484 2.25-.427 3.133-.325.488.057.721.085.827-.081.032-.05.071-.152-.028-.311-.23-.372-1.213-.994-2.552-.835zm7.44 3.15c.66.325 1.389.198 1.626-.287.237-.48-.106-1.134-.767-1.46-.661-.325-1.39-.198-1.627.287-.237.481.106 1.135.768 1.46zm4.253-3.712c-.538-.011-.983.58-.994 1.315-.014.735.414 1.34.951 1.351.538.01.983-.58.994-1.316.014-.735-.414-1.34-.951-1.35zM34.506 67.063c-.135-.166-.354-.117-.566-.067a1.973 1.973 0 0 1-.502.07c-.396-.007-.728-.177-.916-.463-.244-.375-.23-.937.04-1.577.035-.085.077-.184.127-.286.43-.965 1.152-2.585.342-4.123-.608-1.159-1.601-1.88-2.796-2.032-1.146-.145-2.326.279-3.08 1.11-1.187 1.311-1.371 3.093-1.145 3.723.085.229.216.293.311.307.202.028.502-.12.69-.622.014-.035.031-.092.053-.163.084-.265.24-.763.49-1.159a2.11 2.11 0 0 1 1.348-.93 2.143 2.143 0 0 1 1.644.307c.83.545 1.153 1.563.795 2.539-.183.502-.48 1.464-.417 2.256.135 1.601 1.118 2.241 2.001 2.312.86.032 1.46-.449 1.613-.803.088-.208.014-.336-.036-.389z"/><path d="M84.119 64.139a65.863 65.863 0 0 0-.538-1.835c-.293-.941-.597-1.602-.597-1.602 1.174-1.757 1.195-3.33 1.04-4.221-.167-1.103-.626-2.047-1.553-3.02-.926-.972-2.821-1.969-5.483-2.715-.304-.085-1.308-.361-1.397-.389-.007-.056-.074-3.295-.134-4.684-.043-1.004-.131-2.574-.615-4.119-.58-2.09-1.591-3.921-2.85-5.091 3.479-3.607 5.653-7.581 5.646-10.992-.01-6.555-8.06-8.539-17.985-4.43-.01.003-2.086.884-2.104.891-.01-.011-3.8-3.73-3.857-3.78-11.317-9.86-46.686 29.455-35.376 39.004l2.471 2.093c-.64 1.662-.894 3.564-.686 5.611.266 2.627 1.62 5.147 3.819 7.092 2.086 1.849 4.83 3.016 7.488 3.016C35.81 85.108 45.865 91.33 57.652 91.68c12.647.375 23.264-5.558 27.711-16.217.29-.75 1.528-4.119 1.528-7.096 0-2.977-1.69-4.228-2.769-4.228zm-51.742 7.983a5.872 5.872 0 0 1-1.17.081c-3.819-.102-7.945-3.543-8.355-7.619-.452-4.508 1.85-7.976 5.929-8.8a7.004 7.004 0 0 1 1.711-.124c2.284.124 5.654 1.881 6.42 6.856.683 4.409-.399 8.895-4.532 9.602zM28.109 53.09c-2.538.495-4.776 1.934-6.144 3.921-.817-.682-2.34-2.001-2.61-2.517-2.185-4.147 2.383-12.212 5.576-16.766 7.888-11.26 20.24-19.777 25.958-18.232.93.261 4.009 3.832 4.009 3.832S49.18 26.5 43.88 30.919c-7.14 5.498-12.536 13.491-15.767 22.164zm40.093 17.349a.227.227 0 0 0 .13-.223.207.207 0 0 0-.23-.187s-5.981.887-11.634-1.185c.615-2.001 2.252-1.28 4.727-1.078 4.461.265 8.457-.385 11.412-1.234 2.56-.735 5.922-2.185 8.535-4.243.88 1.934 1.191 4.066 1.191 4.066s.683-.123 1.252.23c.537.332.933 1.022.665 2.8-.548 3.327-1.963 6.028-4.342 8.51a17.886 17.886 0 0 1-5.211 3.896 21.839 21.839 0 0 1-3.405 1.439c-8.959 2.928-18.13-.29-21.09-7.198a11.217 11.217 0 0 1-.593-1.633c-1.259-4.554-.191-10.016 3.153-13.453.205-.219.418-.477.418-.803 0-.272-.174-.558-.322-.76-1.17-1.697-5.222-4.589-4.409-10.182.583-4.02 4.098-6.852 7.379-6.682.275.014.555.032.83.046 1.422.085 2.66.265 3.83.315 1.955.084 3.715-.202 5.801-1.938.704-.587 1.266-1.092 2.22-1.255.1-.018.35-.106.849-.081.51.028.994.166 1.428.456 1.673 1.11 1.91 3.804 1.994 5.773.05 1.125.184 3.847.234 4.625.106 1.785.576 2.036 1.524 2.351.533.177 1.028.307 1.76.512 2.214.623 3.525 1.252 4.349 2.062.491.505.721 1.043.792 1.555.262 1.902-1.478 4.253-6.078 6.389-5.027 2.333-11.13 2.924-15.347 2.457-.322-.035-1.475-.166-1.478-.166-3.373-.453-5.296 3.903-3.27 6.891 1.304 1.923 4.857 3.175 8.41 3.178 8.15 0 14.415-3.479 16.745-6.484.07-.088.077-.099.187-.265.113-.173.021-.269-.124-.17-1.902 1.301-10.359 6.474-19.403 4.918 0 0-1.1-.18-2.103-.573-.8-.311-2.464-1.078-2.67-2.789 7.301 2.259 11.898.123 11.898.123zm-25.523-32.76c2.804-3.239 6.254-6.056 9.348-7.637.106-.053.22.06.163.166-.244.446-.718 1.397-.87 2.118a.125.125 0 0 0 .194.131c1.924-1.312 5.268-2.715 8.206-2.896.128-.007.188.156.089.23a7.112 7.112 0 0 0-1.29 1.294.124.124 0 0 0 .098.198c2.061.014 4.968.735 6.86 1.8.126.07.034.321-.107.286-2.864-.658-7.555-1.156-12.427.032-4.349 1.061-7.669 2.697-10.09 4.462-.124.088-.27-.075-.17-.188z"/></svg>