<svg xmlns="http://www.w3.org/2000/svg" viewBox="0 0 100 100"><path d="M97.233 36.737h-.307L60.649 31.51c-1.845-.308-3.382-2.152-3.382-3.997v-14.45c0-1.536.922-2.459 2.152-2.459h.922l36.277 11.683c1.537.615 2.767 2.46 2.767 4.304v7.378c.308 1.537-.922 2.767-2.152 2.767M60.341 60.1c-1.537 0-2.766-1.23-2.766-3.074V42.578c0-1.845 1.23-3.382 3.074-3.382h.307l35.97 3.075c1.537 0 2.767 1.844 2.767 3.689v7.378c0 1.845-1.23 3.382-2.767 3.69l-36.584 3.074M59.727 89c-1.23 0-2.152-.922-2.152-2.46V72.092c0-2.152 1.537-3.996 3.381-3.996l36.277-5.227h.308c1.23 0 2.459 1.23 2.459 2.767v7.379c0 1.844-1.23 3.689-2.767 4.304L60.956 89h-1.23" fill-rule="evenodd" clip-rule="evenodd" fill="#f08821"/><path d="M3.16 41.656c-1.538 0-2.46-1.23-2.46-2.767v-1.23c0-2.152 1.537-4.304 3.074-5.226l45.5-21.828c.307-.307.615-.307.922-.307.923 0 1.845.922 1.845 2.46v14.449c0 2.151-1.537 3.996-3.074 4.303L3.774 41.657H3.16m46.115 18.446h-.307L3.774 54.26C1.93 53.953.7 52.108.7 50.264v-1.23c0-1.844 1.537-3.69 3.074-3.996l45.193-5.842h.307c1.537 0 2.767 1.23 2.767 3.075v14.756c0 .922-.307 1.537-.922 2.152-.308.615-.923.922-1.845.922M50.504 89c-.308 0-.615 0-.923-.307L3.774 66.865C2.237 65.943.7 63.791.7 61.639v-1.23c0-1.537.922-2.767 2.46-2.767h.614l45.193 10.145c1.844.308 3.074 2.46 3.074 4.304v14.45c0 .614-.307 1.23-.615 1.844 0 .308-.615.615-.922.615" fill-rule="evenodd" clip-rule="evenodd" fill="#2b388a"/></svg>