<svg aria-label="Orcid" role="img" version="1.1" viewBox="0 0 512 512" xmlns="http://www.w3.org/2000/svg">
 <path d="m256.47 512.39c141.28 0 255.81-114.53 255.81-255.81s-114.53-255.81-255.81-255.81c-141.28 0-255.81 114.53-255.81 255.81s114.53 255.81 255.81 255.81z" fill="#f7931a" stroke-width="10.659"/>
 <path d="m362.89 216.78c5.0139-33.515-20.504-51.532-55.397-63.552l11.319-45.4-27.636-6.8875-11.019 44.204c-7.265-1.8099-14.727-3.5185-22.142-5.21l11.098-44.496-27.619-6.8873-11.327 45.385c-6.0137-1.3696-11.917-2.7244-17.647-4.1484l0.0319-0.14176-38.112-9.5162-7.3514 29.516s20.504 4.6995 20.072 4.9904c11.193 2.7947 13.215 10.202 12.877 16.072l-12.893 51.722c0.77169 0.19613 1.7704 0.47965 2.8726 0.92093l-0.93586-0.2345h-1e-3c-0.64059-0.16105-1.3046-0.32724-1.9826-0.49032l-18.073 72.454c-1.3686 3.4002-4.8402 8.5004-12.664 6.5648 0.27501 0.40077-20.088-5.0139-20.088-5.0139l-13.719 31.633 35.963 8.9651c4.0162 1.0072 7.9845 2.0412 11.911 3.0655l4e-3 2e-3c2.6125 0.68111 5.2068 1.3569 7.7852 2.0177l-11.437 45.92 27.604 6.8866 11.326-45.432c7.5411 2.0465 14.861 3.9363 22.023 5.7142l-11.287 45.22 27.635 6.8877 11.437-45.834c47.125 8.9182 82.56 5.3209 97.476-37.302 12.019-34.318-0.59795-54.114-25.392-67.022 18.057-4.1633 31.658-16.042 35.287-40.575zm-63.143 88.542c-7.8353 31.485-57.118 18.468-79.667 12.512h-2e-3c-2.0273-0.53614-3.8393-1.0147-5.3848-1.3984l15.176-60.835c1.8824 0.46897 4.1825 0.98593 6.7886 1.57h1e-3c23.322 5.2335 71.119 15.958 63.089 48.151zm-58.404-76.383c18.8 5.0171 59.809 15.962 66.952-12.655 7.2949-29.27-32.563-38.093-52.029-42.403-2.1893-0.48391-4.1207-0.9124-5.6982-1.3046l-13.758 55.176c1.2993 0.32403 2.8246 0.73122 4.5332 1.1863z" clip-rule="evenodd" fill="#fff" fill-rule="evenodd" stroke-width="10.659"/>
</svg>
