<svg xmlns="http://www.w3.org/2000/svg" viewBox="0 0 256 273"><path d="M99.62 122.295c-15.506-21.358-37.01-40.082-61.44-53.102-3.657-2.048-7.899-3.072-12.141-3.072-9.509 0-18.14 5.12-22.674 13.605-6.73 12.434-1.902 28.087 10.532 34.67 37.596 20.187 61.879 58.514 64.805 102.985v-.147c-.44-4.973.439-9.8 2.633-14.336.292-.585.731-1.316 1.17-2.048a124.171 124.171 0 0017.993-64.365c0-4.828-.439-9.509-.877-14.19" fill="#1476C6"/><path d="M248.54 74.02a277.44 277.44 0 00-20.042-57.636c-4.68-9.801-14.775-16.238-25.6-16.238-4.242 0-8.338.878-12.141 2.78-14.19 6.729-20.188 23.698-13.459 37.741 14.336 30.428 21.504 62.464 21.504 95.818 0 33.353-7.168 65.39-21.211 95.232-.146.438-2.633 5.705-2.633 11.849 0 1.755.146 4.242.731 6.583 1.902 8.045 7.022 15.36 15.506 19.31 3.804 1.755 7.9 2.779 12.142 2.779 10.386 0 19.895-5.705 24.869-14.775 5.705-10.679 11.41-24.576 16.384-42.57a212.614 212.614 0 004.096-15.944c4.535-20.334 7.021-41.107 7.021-62.464-.146-21.066-2.633-42.277-7.168-62.464" fill="#47AE33"/><path d="M128.731 44.325c-.438-.878-1.024-1.61-1.609-2.341-1.901-2.487-4.096-4.535-6.729-6.144-4.242-2.78-9.362-4.389-14.628-4.389-4.389 0-6.583.586-9.655 1.756-3.219 1.316-6.583 3.072-9.655 6.29-3.072 3.218-4.828 6.437-6.144 9.948-2.633 6.875-2.194 15.798 2.194 23.113 9.362 15.067 14.921 32.329 16.97 50.03.584 4.68.877 9.508.877 14.19 0 22.82-6.144 45.055-17.993 64.365-.439.731-.732 1.316-1.17 2.048-2.341 4.535-3.072 9.655-2.634 14.482.732 8.192 5.267 15.945 12.874 20.626 1.901 1.17 4.096 2.048 6.144 2.78 2.486.731 5.12 1.17 7.753 1.17 9.508 0 18.14-4.827 23.113-13.02 14.921-24.429 23.552-52.223 25.454-80.749.292-3.803.438-7.753.438-11.557.147-33.06-8.777-64.95-25.6-92.598" fill="#ED114C"/><path d="M177.445 231.717c14.19-29.843 21.357-61.88 21.357-95.232 0-11.41-.731-19.749-1.316-25.162-18.579-29.696-45.495-56.32-77.093-75.63 0 0 .732.44.732.586 2.194 1.609 3.95 3.218 5.997 5.705.44.585 1.17 1.463 1.61 2.34 16.822 27.795 25.6 59.539 25.6 92.16 0 3.95-.147 7.754-.44 11.557 13.459 25.6 20.773 54.711 20.773 85.285v9.216a29.875 29.875 0 012.048-9.509c.439-.439.585-.878.732-1.316" fill="#FBBF16"/></svg>