<svg viewBox="0 0 512 512" ><g><path d="m510.69 478.85c0 17.561-14.275 31.836-31.836 31.836h-445.71c-17.56 0-31.836-14.275-31.836-31.836v-445.71c0-17.56 14.276-31.836 31.836-31.836h445.71c17.561 0 31.836 14.276 31.836 31.836z" fill="#213c75"/><path d="m413.23 286.48c-0.018 36.703-0.404 73.406 0.182 110.1 0.217 13.629-4.506 16.84-17.367 13.588-87.803-22.189-175.72-43.939-263.58-65.924-21.723-5.432-33.359-19.758-33.51-41.961-0.406-61.416 0.041-122.83-0.398-184.25-0.088-12.346 3.807-17.379 16.668-17.309 73.396 0.393 146.82-0.686 220.19 0.557 45.082 0.764 76.883 34.494 77.707 79.594 0.639 35.191 0.125 70.406 0.105 105.6zm-273.38-61.816c0 19.5 0.832 39.047-0.266 58.482-0.859 15.143 3.393 20.988 19.711 20.988 15.811 6e-3 18.92-6.258 18.418-20.016-0.799-21.725-0.615-43.502-0.035-65.238 0.568-21.352 12.668-33.725 31.582-32.615 20.631 1.211 28.334 14.135 28.322 33.301-0.016 21.75 0.799 43.535-0.244 65.232-0.715 14.766 4.43 19.045 19.088 19.256 15.891 0.23 18.701-6.594 18.209-20.135-0.762-20.971-0.574-42-0.053-62.988 0.551-21.959 11.543-34.189 30.047-34.787 18.943-0.604 29.748 10.711 30.451 33.539 0.668 21.727 0.963 43.523-6e-3 65.23-0.672 14.955 5.068 19.125 19.461 19.021 13.77-0.092 18.373-4.486 17.787-18.188-0.961-22.455-0.217-44.988-0.318-67.482-0.117-25.672-8.066-47.734-32.234-59.934-24.48-12.359-49.092-11.793-72.559 3.812-4.611 3.064-8.809 10.02-15.418 4.266-29.162-25.395-64.424-13.295-97.238-16.318-12.561-1.16-15.152 5.145-14.84 16.08 0.562 19.482 0.158 38.994 0.135 58.494z" clip-rule="evenodd" fill="#fff" fill-rule="evenodd"/><path d="m139.87 224.66c8e-3 -19.5 0.412-39.012-0.15-58.492-0.312-10.936 2.279-17.24 14.84-16.08 32.814 3.023 68.076-9.076 97.238 16.318 6.609 5.754 10.807-1.201 15.418-4.266 23.467-15.605 48.078-16.172 72.559-3.812 24.168 12.199 32.117 34.262 32.234 59.934 0.102 22.494-0.643 45.027 0.318 67.482 0.586 13.701-4.018 18.096-17.787 18.188-14.393 0.104-20.133-4.066-19.461-19.021 0.969-21.707 0.674-43.504 6e-3 -65.23-0.703-22.828-11.508-34.143-30.451-33.539-18.504 0.598-29.496 12.828-30.047 34.787-0.521 20.988-0.709 42.018 0.053 62.988 0.492 13.541-2.318 20.365-18.209 20.135-14.658-0.211-19.803-4.49-19.088-19.256 1.043-21.697 0.229-43.482 0.244-65.232 0.012-19.166-7.691-32.09-28.322-33.301-18.914-1.109-31.014 11.264-31.582 32.615-0.58 21.736-0.764 43.514 0.035 65.238 0.502 13.758-2.607 20.021-18.418 20.016-16.318 0-20.57-5.846-19.711-20.988 1.098-19.437 0.266-38.984 0.281-58.484z" clip-rule="evenodd" fill="none" fill-rule="evenodd"/></g></svg>
