<svg fill="none" xmlns="http://www.w3.org/2000/svg" viewBox="0.47 0.98 36.79 31.73"><script xmlns=""></script><script xmlns=""></script>
<path fill-rule="evenodd" clip-rule="evenodd" d="M0.474121 18.9327C10.7821 19.5425 19.617 11.9464 20.2347 1.94386C20.2524 1.64778 20.2702 1.35152 20.2702 1.05526C8.67032 0.111708 0.715441 8.63739 0.483873 18.0425L0.475185 18.4409L0.474121 18.9327Z" fill="#62B9F9"></path>
<mask id="mask0" mask-type="alpha" maskUnits="userSpaceOnUse" x="0" y="0" width="38" height="33">
<path fill-rule="evenodd" clip-rule="evenodd" d="M0.474121 32.7163H37.2661V0.983643H0.474121V32.7163Z" fill="white"></path>
</mask>
<g mask="url(#mask0)">
<path fill-rule="evenodd" clip-rule="evenodd" d="M0.474121 32.7163H12.0022V21.2305H0.474121V32.7163Z" fill="#415AFF"></path>
<path fill-rule="evenodd" clip-rule="evenodd" d="M22.878 1.31946C22.878 1.58321 22.8603 1.84715 22.8428 2.09341C22.6309 5.57612 21.5188 8.95318 19.6299 11.8905V11.9785C23.0016 11.9785 25.7381 14.7049 25.7381 18.0645V32.6988H37.2661V18.5743C37.2661 10.1317 31.2108 2.88486 22.878 1.31946" fill="#415AFF"></path>
<path fill-rule="evenodd" clip-rule="evenodd" d="M25.7383 32.7163H37.2663V21.2305H25.7383V32.7163Z" fill="#415AFF"></path>
<path fill-rule="evenodd" clip-rule="evenodd" d="M0.933105 14.5551C2.03367 14.363 5.81678 13.1441 5.81678 13.1441C5.81678 13.1441 9.16654 11.3331 10.6572 7.98998C11.7466 5.54693 10.8779 3.54323 10.4288 2.76062C5.50365 5.10492 2.10478 9.52693 0.933105 14.5551" fill="#62B9F9"></path>
<path fill-rule="evenodd" clip-rule="evenodd" d="M9.05615 10.8371C5.48369 10.9552 1.96832 12.4374 1.4926 12.6448C0.876972 14.366 0.529442 16.1869 0.483696 18.0425L0.475008 18.4409L0.474121 18.9327C7.26797 19.3348 13.4214 16.1713 17.0046 11.1043C15.3679 11.3453 12.8343 10.7122 9.05615 10.8371" fill="#62B9F9"></path>
</g>
</svg>
