<svg xmlns="http://www.w3.org/2000/svg" xmlns:xlink="http://www.w3.org/1999/xlink" viewBox="260.1 278 130.8 96">
    <g id="Group">
        <g id="g1">
            <path id="Path" fill="#0067b1" stroke="none" d="M 372.199982 293.700012 C 360 283.200012 344.699982 278 328.600006 278 C 328.199982 278 327.899994 278 327.399994 278 C 327 278 326.699982 278 326.199982 278 C 310.100006 278 294.600006 283.200012 282.600006 293.700012 C 281.899994 294.399994 280.600006 295.799988 280.799988 296.700012 C 281.200012 297.799988 282.799988 298.100006 283.799988 298.299988 C 297.700012 301.200012 311.100006 306.5 322 312.899994 C 323.399994 313.799988 324.699982 314.700012 325.699982 315.200012 C 326.199982 315.600006 326.600006 315.600006 327.100006 315.600006 L 327.100006 315.600006 L 327.100006 315.600006 C 327.600006 315.600006 328.199982 315.399994 328.5 315.200012 C 329.600006 314.5 330.799988 313.799988 332.199982 312.899994 C 343.100006 306.700012 356.5 301.100006 370.399994 298.299988 C 371.5 298.100006 373.100006 297.600006 373.399994 296.700012 C 374.100006 295.700012 372.899994 294.399994 372.199982 293.700012 Z"/>
            <g id="g2">
                <g id="g3">
                    <path id="path1" fill="#0067b1" stroke="none" d="M 267.200012 357.100006 C 265.600006 357.100006 264 356.899994 262.600006 356.200012 C 261.5 355.799988 260.799988 355 260.799988 353.899994 C 260.299988 350.700012 260.100006 347.299988 260.100006 344.100006 C 260.100006 333.200012 262.600006 322.299988 267.399994 312.700012 C 267.899994 311.799988 268.799988 311.100006 269.899994 311.100006 C 270.399994 311.100006 270.799988 311.299988 271.100006 311.5 C 273.200012 312.600006 275.200012 313.600006 277.299988 315.100006 C 278 315.600006 278.5 316.299988 278.5 317.200012 C 278.700012 318.100006 278.299988 319 277.600006 319.5 C 272.600006 324.5 269.700012 331.299988 269.700012 338.200012 C 269.700012 343 271.100006 347.700012 273.600006 351.799988 C 274 352.5 274.100006 353.399994 274 354.100006 C 273.799988 354.799988 273.100006 355.5 272.399994 355.899994 C 270.899994 356.700012 269.200012 357.100006 267.200012 357.100006 L 267.200012 357.100006 Z"/>
                </g>
            </g>
            <path id="path2" fill="#0067b1" stroke="none" d="M 390.899994 302.299988 C 390.700012 301.600006 390.200012 300.299988 387.5 300.200012 L 387.300018 300.200012 L 387.300018 300.200012 L 387.300018 300.200012 C 374.800018 300.200012 369.100006 302.299988 357.5 306.600006 C 343.399994 311.799988 333 318.200012 328.899994 321.100006 C 328.399994 321.5 327.800018 321.600006 327.300018 321.600006 C 326.600006 321.600006 325.700012 321.100006 325.200012 320.700012 C 320.700012 317.700012 310.700012 311.600006 297.200012 306.799988 C 285.600006 302.5 279.899994 300.399994 267.399994 300.399994 L 267.399994 300.399994 L 267.399994 300.399994 L 267.200012 300.399994 C 264.5 300.600006 264 301.799988 263.799988 302.5 C 263.799988 302.700012 263.799988 302.700012 263.799988 302.899994 L 263.799988 302.899994 C 263.799988 303.100006 263.799988 303.100006 263.799988 303.299988 L 263.799988 303.299988 L 263.799988 303.299988 C 263.799988 303.5 264 303.700012 264 303.799988 C 264.399994 304.5 265.100006 305 266.700012 305.600006 L 266.899994 305.600006 C 267.100006 305.600006 267.299988 305.799988 267.399994 305.799988 C 282 311.200012 291.299988 318.799988 299.899994 327 C 311.100006 338.200012 318.5 354.799988 322.899994 371.5 C 323.600006 373.299988 325.200012 374 326.800018 374 L 327 374 L 327.200012 374 L 327.200012 374 L 327.200012 374 L 327.200012 374 L 327.200012 374 L 327.399994 374 L 327.600006 374 C 329 374 330.800018 373.299988 331.5 371.5 C 336 354.899994 343.300018 338.299988 354.5 327 C 363.100006 319 372.5 311.299988 387.200012 305.899994 C 387.399994 305.899994 387.600006 305.700012 387.700012 305.700012 L 387.899994 305.700012 C 389.5 305.200012 390.200012 304.5 390.600006 303.899994 C 390.800018 303.700012 390.800018 303.5 390.800018 303.399994 L 390.800018 303.399994 L 390.800018 303.399994 C 390.800018 303.200012 390.800018 303.200012 390.800018 303 L 390.800018 303 C 390.899994 302.5 390.899994 302.5 390.899994 302.299988 Z"/>
        </g>
        <path id="path3" fill="#0067b1" stroke="none" d="M 304.100006 340 C 302.899994 343.700012 299.299988 346.200012 295.200012 346.200012 C 290 346.200012 285.700012 341.899994 285.700012 336.700012 C 285.700012 332.100006 288.899994 328.299988 293.200012 327.399994 C 290.299988 324.5 287.100006 321.899994 283.899994 319.399994 C 278.200012 323.299988 274.399994 329.799988 274.399994 337.299988 C 274.399994 349.299988 284 358.899994 296 358.899994 C 301.899994 358.899994 307.800018 355.899994 311.700012 352.100006 C 309.700012 347.799988 307 343.899994 304.100006 340 Z"/>
    </g>
</svg>