<svg xmlns="http://www.w3.org/2000/svg" viewBox="0.02 0.02 400.62 400.62"><g transform="translate(-.01 -.01)"><path d="m178.78 178.78a90.69 90.69 0 0 0 43.14 0 90.81 90.81 0 0 1 66.52-66.52 90.69 90.69 0 1 0 -176.19 0 90.81 90.81 0 0 1 66.53 66.52z" fill="#7abdf7"></path><path d="m221.92 221.9a90.69 90.69 0 0 0 -43.14 0 90.84 90.84 0 0 1 -66.52 66.52 90.69 90.69 0 1 0 176.19 0 90.81 90.81 0 0 1 -66.53-66.52z" fill="#0d74f5"></path><path d="m310 109.65a90.59 90.59 0 0 0 -21.56 2.6 90.79 90.79 0 0 1 -66.51 66.51 90.69 90.69 0 0 0 0 43.14 90.81 90.81 0 0 1 66.51 66.52 90.69 90.69 0 1 0 21.56-178.79z" fill="#4494f7"></path><path d="m178.78 221.9a90.69 90.69 0 0 0 0-43.14 90.81 90.81 0 0 1 -66.52-66.51 90.69 90.69 0 1 0 0 176.19 90.82 90.82 0 0 1 66.52-66.54z" fill="#005cf4"></path><path d="m221.92 178.78a90.84 90.84 0 0 0 66.52-66.52 90.81 90.81 0 0 0 -66.52 66.52z" fill="#186ef9"></path><path d="m221.92 221.9a90.81 90.81 0 0 0 66.52 66.52 90.84 90.84 0 0 0 -66.52-66.52z" fill="#0246f2"></path><path d="m178.78 178.78a90.84 90.84 0 0 0 -66.52-66.52 90.84 90.84 0 0 0 66.52 66.52z" fill="#0046f8"></path><path d="m178.78 221.9a90.84 90.84 0 0 0 -66.52 66.52 90.84 90.84 0 0 0 66.52-66.52z" fill="#0729f1"></path><path d="m178.78 178.78a90.69 90.69 0 0 0 43.14 0 90.81 90.81 0 0 1 66.52-66.52 90.69 90.69 0 1 0 -176.19 0 90.81 90.81 0 0 1 66.53 66.52z" fill="#7abdf7"></path><path d="m221.92 221.9a90.69 90.69 0 0 0 -43.14 0 90.84 90.84 0 0 1 -66.52 66.52 90.69 90.69 0 1 0 176.19 0 90.81 90.81 0 0 1 -66.53-66.52z" fill="#0d74f5"></path><path d="m310 109.65a90.59 90.59 0 0 0 -21.56 2.6 90.79 90.79 0 0 1 -66.51 66.51 90.69 90.69 0 0 0 0 43.14 90.81 90.81 0 0 1 66.51 66.52 90.69 90.69 0 1 0 21.56-178.79z" fill="#4494f7"></path><path d="m178.78 221.9a90.69 90.69 0 0 0 0-43.14 90.81 90.81 0 0 1 -66.52-66.51 90.69 90.69 0 1 0 0 176.19 90.82 90.82 0 0 1 66.52-66.54z" fill="#005cf4"></path><path d="m221.92 178.78a90.84 90.84 0 0 0 66.52-66.52 90.81 90.81 0 0 0 -66.52 66.52z" fill="#186ef9"></path><path d="m221.92 221.9a90.81 90.81 0 0 0 66.52 66.52 90.84 90.84 0 0 0 -66.52-66.52z" fill="#0246f2"></path><path d="m178.78 178.78a90.84 90.84 0 0 0 -66.52-66.52 90.84 90.84 0 0 0 66.52 66.52z" fill="#0046f8"></path><path d="m178.78 221.9a90.84 90.84 0 0 0 -66.52 66.52 90.84 90.84 0 0 0 66.52-66.52z" fill="#0729f1"></path></g></svg>
