<svg version="1.1" id="Layer_1" xmlns="http://www.w3.org/2000/svg" xmlns:xlink="http://www.w3.org/1999/xlink" x="0px" y="0px" style="enable-background:new 0 0 612 792;" xml:space="preserve" viewBox="140.04 230.55 331.61 331.48">
<style type="text/css">
	.st0{fill:#88BCF4;}
	.st1{fill:#5894F2;}
	.st2{fill:#3274EC;}
	.st3{fill:#205FEB;}
	.st4{fill:#4A78D6;}
	.st5{fill:#608EDC;}
	.st6{fill:#154BEE;}
	.st7{fill:#3371EE;}
	.st8{fill:#174BE9;}
	.st9{fill:#0B33E7;}
</style>
<path class="st0" d="M227.97,322.14c4.25,0.41,4.94-0.75,4.07-5.32c-2.61-13.67-1.03-27.21,4.62-39.99
	c11.86-26.81,32.47-42.36,61.57-45.77c38.98-4.57,74.3,22.77,81.56,61.17c1.95,10.3,0.97,20.51-0.72,30.71
	c-0.74,0.31-1.47,0.62-2.21,0.92c-8.74,1.91-16.54,5.9-23.73,11.09c-14.92,10.77-25.23,24.71-29.07,43.01
	c-0.32,0.35-0.64,0.69-0.95,1.04c-10.6,0.98-21.2,2.11-31.82,0.05c-1.01-0.2-1.95,0.17-2.58,1.08c-1.5-1.08-0.1-3.21-1.57-4.3
	c-1.02-2.92-1.37-6-2.69-8.9c-9.94-21.85-25.98-36.59-49.37-42.93c-0.31-0.14-0.63-0.29-0.94-0.43c-0.67,0.03-1.35,0.05-2.02,0.08
	C230.61,323.55,228.55,324.9,227.97,322.14z"></path>
<path class="st1" d="M323.12,379c0.32-0.35,0.64-0.69,0.95-1.04c2.14,0.26,3.78-1.09,5.66-1.71c24.06-8.04,39.69-24.33,47.42-48.38
	c0.45-1.41,1.43-2.78-0.28-4.01c0.74-0.31,1.47-0.62,2.21-0.92c10.03-1.96,20.15-2.82,30.2-0.74c20.74,4.3,37.59,14.33,49.41,32.64
	c15.66,24.25,17.01,49.27,4.67,74.78c-14.32,29.59-48.11,47.28-81.31,39.6c-0.95-0.22-1.99-0.06-2.98-0.08
	c-0.34-0.75-0.69-1.49-1.03-2.24c-8.22-27.56-26.02-45.32-53.94-52.73c-0.47-0.13-0.95-0.27-1.42-0.4
	C321.98,402.17,320.87,390.56,323.12,379z"></path>
<path class="st2" d="M378.05,466.9c0.34,0.75,0.69,1.49,1.03,2.24c1.6,9.69,2.43,19.38,0.87,29.2
	c-4.47,28.03-25.68,55.08-58.95,61.58c-10.29-0.02-20.57-0.04-30.86-0.06c-39.11-8.38-64.44-45.28-58.28-84.85
	c0.3-1.94,0.89-3.92,0.12-5.9c0.35-0.38,0.71-0.75,1.06-1.13c2.18,0.65,4.16-0.22,6.12-0.92c25.57-9.12,41.81-26.84,48.8-53.07
	c10.28-2.66,20.64-3.02,31.06-0.91c0.91,1.17,2.12,0.87,3.3,0.68l0.36,0.01c0.47,0.13,0.95,0.27,1.42,0.4
	c4.6,25.59,28.28,48,51.89,53.94C377.28,468.43,377.88,468.19,378.05,466.9z"></path>
<path class="st3" d="M233.04,467.98c-0.35,0.38-0.71,0.75-1.06,1.13c-6.94,1.49-13.94,2.05-21.04,1.82
	c-32.83-1.06-63.94-28.05-68.87-59.85c0-10.02,0.01-20.05,0.01-30.07c6.23-28.66,23.71-47.37,51.2-56.53
	c11.15-3.71,22.93-4.53,34.69-2.33c0.58,2.75,2.64,1.41,4.17,1.51c3.44,4.73,4.23,10.6,6.92,15.72c9.43,17.97,23.48,30.36,42.63,37
	c1.9,0.66,3.81,1.36,5.47-0.54c1.46,1.09,0.07,3.22,1.57,4.3c1.83,11.33,2.61,22.62-1.42,33.7c-13.62,4.23-26.01,10.52-35.84,21.2
	C242.7,444.56,236.7,455.6,233.04,467.98z"></path>
<path class="st4" d="M142.08,381c0,10.02-0.01,20.05-0.01,30.07C139.39,401.05,139.33,391.03,142.08,381z"></path>
<path class="st5" d="M290.14,559.86c10.29,0.02,20.57,0.04,30.86,0.06C310.71,562.85,300.42,562.6,290.14,559.86z"></path>
<path class="st6" d="M287.16,375.83c-1.65,1.9-3.57,1.2-5.47,0.54c-19.15-6.64-33.2-19.03-42.63-37
	c-2.69-5.12-3.48-10.99-6.92-15.72c0.67-0.02,1.35-0.05,2.02-0.08c0.31,0.14,0.63,0.29,0.94,0.44
	c23.38,6.34,39.42,21.08,49.37,42.93C285.79,369.83,286.14,372.91,287.16,375.83z"></path>
<path class="st7" d="M376.87,323.87c1.71,1.23,0.73,2.6,0.28,4.01c-7.74,24.05-23.36,40.34-47.42,48.38
	c-1.87,0.63-3.52,1.97-5.66,1.71c3.84-18.29,14.15-32.24,29.07-43.01C360.33,329.77,368.13,325.78,376.87,323.87z"></path>
<path class="st3" d="M235.11,324c-0.32-0.15-0.63-0.29-0.94-0.44C234.48,323.72,234.79,323.86,235.11,324z"></path>
<path class="st8" d="M378.05,466.9c-0.17,1.29-0.77,1.52-2.05,1.2c-23.61-5.93-47.29-28.35-51.89-53.94
	C352.02,421.58,369.83,439.34,378.05,466.9z"></path>
<path class="st9" d="M287.31,413.84c0.24-0.06,0.46,0,0.65,0.16c-6.99,26.22-23.23,43.94-48.8,53.07c-1.96,0.7-3.94,1.57-6.12,0.92
	c3.66-12.37,9.67-23.42,18.44-32.94C261.3,424.36,273.69,418.07,287.31,413.84z"></path>
<path class="st1" d="M319.03,413.08c1.18-0.17,2.37-0.38,3.3,0.68C321.14,413.95,319.93,414.25,319.03,413.08z"></path>
</svg>
