<svg xmlns="http://www.w3.org/2000/svg">
  <style>
    .st0 {
      fill: #68BC71;
    }

    .st1 {
      fill: #67B279;
    }

    .st2 {
      fill: #FFFFFF;
    }

  </style>
  <g>
    <g>
      <path class="st0" d="M32,0C22.1,0,10.2,2.3,0.4,7.3C0.4,18.3,0.2,45.4,32,64C63.8,45.4,63.6,18.3,63.6,7.3
			C53.8,2.3,41.9,0,32,0L32,0z" />
      <path class="st1" d="M32,64C0.2,45.4,0.4,18.3,0.4,7.3C10.2,2.3,22.1,0,32,0V64L32,64z" />
    </g>
    <path class="st2" d="M30.8,42.7L50,17.3c-1.4-1.1-2.6-0.3-3.3,0.3l0,0L30.7,33.9l-6-7.1c-2.9-3.3-6.8-0.8-7.7-0.1
		L30.8,42.7L30.8,42.7z" />
  </g>
</svg>
