<svg viewBox="0 0 926.66 958.56" xmlns="http://www.w3.org/2000/svg">
<g transform="translate(2426 -55.8)">
<path d="m-1552.1 1007.7 4.1189-358.26h-199.91c-15.742 43.404-59.94 72.719-113.25 72.719-28.093 0-58.13-6.6256-82.469-21.25-31.718-19.058-55.418-41.692-74.938-81.906-15.357-37.214-27.109-82.78-28.469-123.09 4.6791-79.729 28.902-108.15 73.25-141.03 9.8313-7.2897 37.3-13.119 45.219-13.156 17.422-0.0822 31.943 10.486 39.812 26.062 11.447 22.657-5.3079 50.101-21.875 69.625l161.62 111.34 249.62-261.19c-87.086-138.8-246.22-231.72-428.09-231.72-275.35 0-498.56 212.99-498.56 475.72s216.07 461.42 498.56 482.84l376.59-1.6875c0.2227-314.92-12.757-290.91-1.2435-5.0239z" fill="#0c4da2"/>
<path d="m-1927.8 145.18c-226.98 1.4286-412.37 166.77-412.37 383.05s204.65 402.07 452.37 396.48l240.71 0.6783v-189.51h-45.463c-14.284 35.731-80.997 70.681-129.37 70.681-25.49 0-89.661-3.4651-113.4-11.779-41.911-14.679-101.71-35.75-153.71-123.14-13.934-30.635-53.169-105.29-44.402-214.19 4.2456-65.635 45.937-147.57 120.75-184.67 32.621-16.179 65.461-18.833 123.12-13.601 41.396 3.7565 82.528 32.863 96.889 67.797 11.107 27.018 7.9153 59.942-5.16 78.695-0.9328 1.338-0.9528 2.5229-0.7595 3.8002 0.1471 0.97218 1.408 2.592 1.408 2.592l22.784 17.799s6.4866 4.507 14.064 4.3052c4.4004-0.11719 12.267-4.891 12.267-4.891l130.12-136.55c-80.445-108.55-223.41-147.54-309.86-147.54z" fill="#ffcb08"/>
</g>
</svg>
