<svg xmlns="http://www.w3.org/2000/svg" viewBox="0 0 200 100">
  <path id="S" fill="#B5111B" d="M104.128,53.896c-1.338-0.378-2.987-0.696-4.067-0.696c-3.943,0-6.55,2.415-6.55,6.101 c0,1.906,0.891,3.625,2.481,4.897c1.398,1.077,2.289,1.523,8.261,4.51c4.259,2.1,6.103,3.497,7.31,5.403  c0.952,1.463,1.464,3.495,1.464,5.532c0,2.73-0.893,5.273-2.736,7.753c-2.73,3.561-6.989,5.401-12.711,5.401  c-1.334,0-2.671-0.128-4.259-0.378c-3.11-0.446-4.324-0.827-7.311-2.29c1.148-2.478,1.399-3.369,1.908-6.358  c2.036,1.719,2.922,2.355,4.384,3.055c2.1,1.079,4.392,1.585,6.614,1.585c5.082,0,8.579-2.921,8.579-7.245  c0-2.097-1.077-3.878-3.307-5.401c-1.457-1.014-2.415-1.46-5.718-2.985c-3.242-1.464-4.447-2.1-5.977-3.183  c-2.984-2.097-4.382-4.827-4.382-8.58c0-3.242,1.272-6.293,3.431-8.455c2.414-2.412,5.466-3.494,9.981-3.494  c2.094,0,4.068,0.252,6.103,0.698c1.457,0.318,2.225,0.571,4.128,1.272c-0.636,1.143-0.762,1.464-1.142,2.54  c-0.446,1.339-0.571,1.781-0.893,3.18C107.305,55.105,106.223,54.595,104.128,53.896" />
  <path id="F" fill="#B5111B" d="M140.93,55.299c-2.289-0.256-5.02-0.383-6.738-0.383h-6.8l-0.065,2.542v10.106h7.501  c2.927,0,4.134-0.065,7.566-0.571c-0.256,1.651-0.321,2.415-0.321,3.242c0,0.698,0.065,1.713,0.19,3.049  c-4.003-0.506-5.657-0.637-8.322-0.637h-6.679v5.404c0,7.631,0,8.58,0.445,14.114c-1.778-0.193-3.111-0.259-4.003-0.259  c-0.762,0-1.844,0.065-3.307,0.19c0.255-2.603,0.38-4.64,0.511-5.912c0.065-1.46,0.125-4.446,0.125-9.023V59.745  c-0.125-3.176-0.19-5.213-0.445-10.236l4.323,0.128l7.501,0.065h6.483c1.464,0,2.35,0,4.83-0.318  c-0.255,1.591-0.315,2.29-0.315,3.177c0,0.701,0.061,1.719,0.19,3.054C142.394,55.422,141.501,55.358,140.93,55.299" />
  <path id="U" fill="#B5111B" d="M160.381,55.105c0,0.384-0.065,1.398-0.065,2.986c-0.06,1.591-0.125,2.796-0.125,3.498v12.967 c0.065,6.608,0.125,7.37,1.397,9.279c1.589,2.35,5.782,4.003,10.297,4.003c3.177,0,5.531-0.508,7.691-1.844 c1.147-0.699,2.034-1.458,2.545-2.159c1.333-1.972,1.523-3.495,1.523-10.489v-9.916c0-3.369-0.065-6.418-0.256-8.958  c-0.06-1.912-0.19-2.799-0.44-5.026c1.397,0.131,2.475,0.256,3.177,0.256c0.695,0,1.778-0.125,3.241-0.256  c-0.065,0.89-0.125,1.528-0.19,1.972c-0.065,1.018-0.131,2.927-0.131,5.595c-0.06,3.497-0.125,5.653-0.125,6.483l0.065,9.98  c0,10.294-0.957,13.09-5.406,16.206c-3.046,2.16-6.483,2.986-12.01,2.986c-5.912,0-9.154-0.762-12.141-2.86  c-1.588-1.077-2.861-2.413-3.753-3.876c-1.463-2.415-1.653-3.685-1.653-9.726l-0.06-15.126V54.66  c-0.065-1.972-0.131-2.858-0.381-5.276c1.647,0.193,2.855,0.318,3.682,0.318c0.827,0,2.035-0.065,3.623-0.256  C160.571,51.924,160.506,52.879,160.381,55.105" /></svg>
