<svg xmlns:dc="http://purl.org/dc/elements/1.1/" xmlns:cc="http://creativecommons.org/ns#" xmlns:rdf="http://www.w3.org/1999/02/22-rdf-syntax-ns#" xmlns:svg="http://www.w3.org/2000/svg" xmlns="http://www.w3.org/2000/svg" xmlns:sodipodi="http://sodipodi.sourceforge.net/DTD/sodipodi-0.dtd" xmlns:inkscape="http://www.inkscape.org/namespaces/inkscape" version="1.1" id="svg18" sodipodi:docname="surfshark.svg" inkscape:version="1.0.2 (e86c8708, 2021-01-15)" viewBox="207.50 203.43 97.00 97.00">
  <metadata id="metadata24">
    <rdf:rdf>
      <cc:work rdf:about="">
        <dc:format>image/svg+xml</dc:format>
        <dc:type rdf:resource="http://purl.org/dc/dcmitype/StillImage"></dc:type>
      </cc:work>
    </rdf:rdf>
  </metadata>
  <defs id="defs22"></defs>
  <sodipodi:namedview pagecolor="#ffffff" bordercolor="#666666" borderopacity="1" objecttolerance="10" gridtolerance="10" guidetolerance="10" inkscape:pageopacity="0" inkscape:pageshadow="2" inkscape:window-width="705" inkscape:window-height="480" id="namedview20" showgrid="false" inkscape:zoom="0.18432828" inkscape:cx="-201.98544" inkscape:cy="315.77014" inkscape:window-x="0" inkscape:window-y="23" inkscape:window-maximized="0" inkscape:current-layer="svg18"></sodipodi:namedview>
  <g id="#178a9eff" transform="matrix(0.18941327,0,0,0.18941327,207.5102,203.44137)">
    <path fill="#178a9e" opacity="1" d="m 249.6,0 h 12.73 c 42.24,1.16 84.28,12.57 120.86,33.84 49.79,28.39 89.48,74.03 110.64,127.3 11.6,28.95 17.66,60.04 18.17,91.21 v 10.58 c -1.19,36.83 -10,73.46 -26.45,106.48 -17.13,34.46 -42.03,65.06 -72.45,88.65 -43.69,34.34 -98.89,53.52 -154.45,53.94 h -8.9 C 208.69,510.89 167.91,499.98 132,479.99 90.91,457.17 56.24,422.9 33.15,381.95 12.35,345.69 1.18,304.16 0,262.43 V 251.37 C 0.47,230.31 3.34,209.28 8.87,188.94 18.58,152.88 36.46,119.1 60.63,90.65 81.21,66.2 106.54,45.82 134.61,30.58 169.81,11.46 209.59,1.13 249.6,0 m -5.47,128.22 c -12.95,1 -25.9,4.7 -36.73,12.02 -9.82,6.71 -18.07,16.38 -21.29,27.99 -16.55,52.05 -25.11,106.15 -33.95,159.92 -1.27,8.24 -1.94,16.57 -2.93,24.85 -0.87,8.33 1.45,17.21 7.61,23.14 7.24,7.36 18.42,8.79 28.21,7.26 12.68,-1.6 24,-7.81 35.57,-12.76 27.7,-12.38 55.17,-25.25 82.33,-38.77 13.32,-7.77 25.19,-18.06 34.8,-30.11 9.87,-12.51 17.18,-27.63 18.04,-43.73 -0.12,-33.4 -1.81,-66.77 -4.07,-100.09 -0.49,-5.14 -1.93,-10.33 -5.01,-14.54 -5.93,-8.4 -15.87,-13.37 -25.91,-14.7 -13.25,-1.17 -26.58,-0.54 -39.87,-0.7 -12.26,0.13 -24.54,-0.28 -36.8,0.22 z" id="path10"></path>
    <path fill="#178a9e" opacity="1" d="m 289.16,176.19 c 4.17,-0.47 8.58,-1.55 12.69,-0.36 3.62,1.6 3.03,6 3.01,9.22 -0.16,4.55 0.29,9.13 -0.23,13.66 -0.79,3.4 -4.57,4.27 -7.59,4.14 -15.4,0.69 -28.93,13.86 -30.23,29.19 -0.54,9.07 0.06,18.17 -0.33,27.25 -0.91,16.16 -8.66,31.76 -20.88,42.33 -10.86,9.49 -25.17,14.97 -39.6,15.01 -2.74,0.26 -5.49,-1.88 -5.67,-4.66 -0.22,-4.65 0,-9.31 -0.1,-13.96 0.06,-2.44 -0.37,-5.36 1.65,-7.19 2.16,-2.19 5.5,-1.39 8.24,-1.92 14.23,-1.64 26.33,-13.76 28.04,-27.97 1.27,-13.45 -1.3,-27.28 2.44,-40.48 5.89,-22.48 25.61,-40.5 48.56,-44.26 z" id="path12"></path>
  </g>
  <g id="#ffffffff" transform="matrix(0.18941327,0,0,0.18941327,207.5102,203.44137)">
    <path fill="#ffffff" opacity="1" d="m 244.13,128.22 c 12.26,-0.5 24.54,-0.09 36.8,-0.22 13.29,0.16 26.62,-0.47 39.87,0.7 10.04,1.33 19.98,6.3 25.91,14.7 3.08,4.21 4.52,9.4 5.01,14.54 2.26,33.32 3.95,66.69 4.07,100.09 -0.86,16.1 -8.17,31.22 -18.04,43.73 -9.61,12.05 -21.48,22.34 -34.8,30.11 -27.16,13.52 -54.63,26.39 -82.33,38.77 -11.57,4.95 -22.89,11.16 -35.57,12.76 -9.79,1.53 -20.97,0.1 -28.21,-7.26 -6.16,-5.93 -8.48,-14.81 -7.61,-23.14 0.99,-8.28 1.66,-16.61 2.93,-24.85 8.84,-53.77 17.4,-107.87 33.95,-159.92 3.22,-11.61 11.47,-21.28 21.29,-27.99 10.83,-7.32 23.78,-11.02 36.73,-12.02 m 45.03,47.97 c -22.95,3.76 -42.67,21.78 -48.56,44.26 -3.74,13.2 -1.17,27.03 -2.44,40.48 -1.71,14.21 -13.81,26.33 -28.04,27.97 -2.74,0.53 -6.08,-0.27 -8.24,1.92 -2.02,1.83 -1.59,4.75 -1.65,7.19 0.1,4.65 -0.12,9.31 0.1,13.96 0.18,2.78 2.93,4.92 5.67,4.66 14.43,-0.04 28.74,-5.52 39.6,-15.01 12.22,-10.57 19.97,-26.17 20.88,-42.33 0.39,-9.08 -0.21,-18.18 0.33,-27.25 1.3,-15.33 14.83,-28.5 30.23,-29.19 3.02,0.13 6.8,-0.74 7.59,-4.14 0.52,-4.53 0.07,-9.11 0.23,-13.66 0.02,-3.22 0.61,-7.62 -3.01,-9.22 -4.11,-1.19 -8.52,-0.11 -12.69,0.36 z" id="path15"></path>
  </g>
</svg>