<svg viewBox="0 0 24 24" version="1.1" xmlns="http://www.w3.org/2000/svg" xmlns:xlink="http://www.w3.org/1999/xlink" xml:space="preserve" xmlns:serif="http://www.serif.com/" style="fill-rule:evenodd;clip-rule:evenodd;stroke-linejoin:round;stroke-miterlimit:2;">
    <g transform="matrix(0.300904,0,0,0.300904,-0.100703,6.5467)">
        <path d="M53.934,4.185L50.995,4.185L53.073,2.112C52.91,1.883 52.727,1.669 52.529,1.471C52.33,1.273 52.115,1.091 51.886,0.928L49.808,3.001L49.808,0.07C49.536,0.024 49.256,0 48.972,-0L48.966,-0C48.681,0 48.402,0.024 48.13,0.07L48.13,3.001L46.052,0.928C45.823,1.091 45.608,1.273 45.41,1.471L45.408,1.472C45.21,1.669 45.028,1.883 44.865,2.112L46.943,4.185L44.005,4.185C44.005,4.185 43.935,4.735 43.935,5.02L43.935,5.023C43.935,5.307 43.959,5.587 44.005,5.859L46.943,5.859L44.865,7.931C45.192,8.388 45.593,8.789 46.052,9.114L48.13,7.042L48.13,9.973C48.402,10.018 48.681,10.042 48.965,10.043L48.972,10.043C49.257,10.042 49.537,10.018 49.808,9.973L49.808,7.042L51.887,9.114C52.115,8.952 52.33,8.77 52.529,8.572C52.727,8.374 52.91,8.159 53.073,7.931L50.994,5.859L53.934,5.859C53.979,5.587 54.003,5.309 54.003,5.025L54.003,5.018C54.003,4.734 53.979,4.456 53.934,4.185ZM58.85,25.53C58.011,24.744 57.571,23.504 57.53,21.81L68.115,21.81C68.135,21.588 68.155,21.322 68.175,21.008C68.196,20.696 68.206,20.398 68.206,20.116C68.206,19.087 68.064,18.135 67.781,17.257C67.498,16.38 67.083,15.624 66.538,14.989C65.992,14.354 65.314,13.855 64.506,13.492C63.697,13.129 62.757,12.947 61.686,12.947C60.432,12.947 59.345,13.164 58.425,13.597C57.505,14.031 56.742,14.616 56.135,15.352C55.529,16.088 55.079,16.955 54.786,17.953C54.493,18.952 54.346,20.025 54.346,21.174C54.346,22.345 54.498,23.418 54.801,24.396C55.104,25.374 55.585,26.222 56.242,26.937C56.899,27.653 57.733,28.207 58.744,28.601C59.754,28.994 60.967,29.191 62.383,29.191C63.353,29.191 64.238,29.12 65.037,28.979C65.835,28.837 66.568,28.626 67.235,28.344C67.215,27.92 67.155,27.492 67.054,27.058C66.952,26.624 66.821,26.257 66.659,25.954C65.365,26.458 64.001,26.711 62.565,26.711C60.927,26.711 59.689,26.317 58.85,25.53ZM30.509,13.31C30.711,13.27 30.918,13.24 31.131,13.219C31.343,13.199 31.56,13.189 31.783,13.189C31.984,13.189 32.197,13.199 32.42,13.219C32.642,13.24 32.854,13.27 33.057,13.31C33.076,13.351 33.102,13.476 33.132,13.688C33.162,13.9 33.193,14.127 33.223,14.369C33.254,14.611 33.284,14.843 33.314,15.065C33.345,15.287 33.359,15.428 33.359,15.488C33.562,15.165 33.804,14.853 34.087,14.55C34.37,14.248 34.71,13.975 35.103,13.734C35.498,13.491 35.942,13.3 36.438,13.159C36.933,13.018 37.484,12.947 38.091,12.947C39,12.947 39.844,13.099 40.624,13.401C41.401,13.704 42.068,14.172 42.624,14.807C43.18,15.443 43.615,16.249 43.929,17.227C44.242,18.206 44.399,19.36 44.399,20.691C44.399,23.353 43.676,25.435 42.231,26.937C40.784,28.44 38.738,29.191 36.089,29.191C35.644,29.191 35.19,29.161 34.724,29.1C34.259,29.04 33.855,28.959 33.511,28.858L33.511,35.967C33.269,36.006 33.011,36.037 32.738,36.057C32.465,36.077 32.217,36.087 31.995,36.087C31.772,36.087 31.525,36.077 31.252,36.057C30.979,36.037 30.731,36.006 30.509,35.967L30.509,13.31ZM24.292,18.604C24.292,17.414 23.988,16.587 23.382,16.123C22.775,15.66 21.896,15.428 20.744,15.428C20.035,15.428 19.374,15.483 18.757,15.594C18.14,15.705 17.538,15.851 16.953,16.032C16.568,15.367 16.377,14.571 16.377,13.642C17.063,13.421 17.821,13.25 18.651,13.128C19.48,13.007 20.278,12.947 21.047,12.947C23.068,12.947 24.605,13.406 25.656,14.323C26.708,15.241 27.234,16.708 27.234,18.724L27.234,28.435C26.526,28.596 25.667,28.762 24.656,28.933C23.644,29.104 22.613,29.191 21.562,29.191C20.571,29.191 19.677,29.1 18.878,28.918C18.079,28.737 17.402,28.445 16.846,28.041C16.29,27.638 15.861,27.123 15.557,26.498C15.254,25.874 15.103,25.118 15.103,24.229C15.103,23.363 15.279,22.601 15.633,21.946C15.987,21.291 16.467,20.746 17.074,20.313C17.68,19.879 18.378,19.556 19.166,19.345C19.955,19.133 20.784,19.027 21.653,19.027C22.3,19.027 22.831,19.043 23.245,19.072C23.66,19.103 24.008,19.138 24.292,19.178L24.292,18.604ZM0.667,28.404L8.855,15.7L1.637,15.7C1.577,15.336 1.546,14.934 1.546,14.49C1.546,14.066 1.577,13.673 1.637,13.309L13.314,13.309L13.465,13.703L5.216,26.438L12.95,26.438C13.01,26.842 13.041,27.255 13.041,27.678C13.041,28.082 13.01,28.465 12.95,28.828L0.819,28.828L0.667,28.404ZM23.139,21.417C23.605,21.458 23.988,21.497 24.292,21.538L24.292,26.469C23.907,26.569 23.468,26.645 22.972,26.695C22.477,26.746 21.997,26.771 21.532,26.771C21.168,26.771 20.784,26.751 20.38,26.71C19.975,26.67 19.606,26.559 19.273,26.378C18.939,26.196 18.661,25.934 18.439,25.591C18.216,25.249 18.105,24.774 18.105,24.169C18.105,23.222 18.433,22.516 19.091,22.052C19.747,21.588 20.703,21.356 21.957,21.356C22.28,21.356 22.674,21.377 23.139,21.417ZM34.694,26.589C34.289,26.529 33.895,26.428 33.511,26.287L33.511,19.995C33.511,19.228 33.622,18.569 33.845,18.014C34.068,17.459 34.36,17 34.724,16.637C35.088,16.274 35.502,16.002 35.968,15.821C36.432,15.639 36.918,15.548 37.423,15.548C38.778,15.548 39.753,16.023 40.35,16.97C40.946,17.918 41.245,19.199 41.245,20.812C41.245,21.82 41.118,22.692 40.865,23.428C40.612,24.165 40.269,24.774 39.834,25.258C39.4,25.742 38.879,26.101 38.273,26.332C37.666,26.564 36.999,26.68 36.271,26.68C35.624,26.68 35.098,26.649 34.694,26.589ZM48.129,15.669L46.157,15.669C46.117,15.508 46.087,15.321 46.067,15.11C46.046,14.898 46.036,14.691 46.036,14.49C46.036,14.289 46.046,14.081 46.067,13.87C46.087,13.658 46.117,13.471 46.157,13.309L51.071,13.309L51.071,28.828C50.848,28.868 50.601,28.898 50.328,28.918C50.055,28.938 49.807,28.948 49.585,28.948C49.383,28.948 49.145,28.938 48.872,28.918C48.599,28.898 48.351,28.868 48.129,28.828L48.129,15.669ZM65.234,19.572C65.234,19.007 65.158,18.468 65.007,17.953C64.855,17.439 64.632,16.99 64.339,16.607C64.045,16.224 63.672,15.916 63.217,15.685C62.762,15.453 62.221,15.336 61.594,15.336C60.361,15.336 59.416,15.71 58.759,16.456C58.102,17.202 57.703,18.241 57.561,19.572L65.234,19.572ZM72.15,13.219C71.948,13.24 71.735,13.27 71.513,13.31L71.513,28.828C71.756,28.868 72.013,28.898 72.287,28.918C72.56,28.938 72.807,28.949 73.03,28.949C73.251,28.949 73.5,28.938 73.772,28.918C74.045,28.898 74.293,28.868 74.515,28.828L74.515,21.114C74.515,20.066 74.632,19.209 74.864,18.544C75.096,17.878 75.41,17.353 75.804,16.97C76.198,16.587 76.643,16.32 77.139,16.169C77.634,16.017 78.155,15.942 78.701,15.942L79.11,15.942C79.282,15.942 79.448,15.962 79.611,16.002C79.651,15.76 79.687,15.508 79.717,15.246C79.747,14.984 79.762,14.732 79.762,14.49C79.762,14.268 79.752,14.056 79.732,13.855C79.712,13.653 79.681,13.461 79.641,13.279C79.52,13.26 79.372,13.245 79.201,13.234C79.029,13.224 78.862,13.219 78.701,13.219C77.609,13.219 76.714,13.472 76.017,13.975C75.32,14.479 74.758,15.075 74.334,15.76C74.334,15.417 74.303,14.999 74.243,14.505C74.182,14.011 74.121,13.612 74.061,13.31C73.879,13.27 73.676,13.24 73.454,13.219C73.231,13.199 73.009,13.189 72.787,13.189C72.564,13.189 72.352,13.199 72.15,13.219ZM50.034,6.084C50.159,5.754 50.228,5.397 50.228,5.024L50.228,5.019C50.228,4.646 50.159,4.289 50.034,3.959C49.704,3.835 49.346,3.766 48.972,3.766L48.967,3.766C48.593,3.766 48.234,3.835 47.903,3.959C47.779,4.289 47.711,4.646 47.71,5.019L47.71,5.024C47.711,5.397 47.779,5.754 47.904,6.084C48.234,6.208 48.593,6.277 48.967,6.277L48.972,6.277C49.346,6.277 49.704,6.208 50.034,6.084Z" style="fill:rgb(253,118,34);"/>
    </g>
</svg>
