<svg xmlns="http://www.w3.org/2000/svg" version="1.1" viewBox="54.25 21.03 408.50 474.97">
<path d="M 263.11 21.89 C 266.54 23.50 269.55 26.18 272.72 28.27 C 285.92 37.17 299.43 45.61 313.36 53.33 C 308.51 56.77 303.98 60.65 299.17 64.15 C 296.57 66.01 294.45 68.15 292.50 70.67 C 281.00 63.91 269.61 56.82 258.59 49.30 C 231.43 67.88 202.71 84.07 172.79 97.77 C 142.88 111.06 111.68 122.46 79.68 129.52 C 79.06 150.26 80.04 171.02 82.67 191.60 C 75.06 197.46 67.63 203.56 59.86 209.23 C 55.10 181.48 53.46 153.13 54.63 125.01 C 54.77 122.09 54.73 119.04 55.31 116.17 C 56.45 111.50 60.40 108.06 65.02 107.00 C 73.30 104.95 81.71 103.13 89.95 100.83 C 110.58 95.55 130.51 88.22 150.14 80.04 C 185.60 64.72 219.97 45.89 251.33 23.30 C 254.74 21.05 259.29 20.34 263.11 21.89 Z" fill="#009eff"/>
<path d="M 258.59 49.30 C 269.61 56.82 281.00 63.91 292.50 70.67 C 304.18 77.49 316.05 84.06 328.23 89.93 C 340.19 95.82 352.17 101.36 364.48 106.46 C 377.26 111.52 390.21 116.46 403.36 120.47 C 414.61 123.81 425.78 127.26 437.30 129.52 C 437.42 134.42 437.54 139.31 437.48 144.21 C 437.33 174.86 433.43 205.44 425.78 235.12 C 421.03 253.20 415.00 270.91 407.49 288.03 C 395.31 316.31 379.63 342.83 361.47 367.66 C 354.36 377.12 347.09 386.41 339.34 395.36 C 315.25 422.77 288.47 447.55 258.40 468.30 C 252.97 464.72 247.84 460.68 242.62 456.80 C 232.74 449.31 223.29 441.19 214.14 432.82 C 202.17 422.03 191.05 410.23 180.19 398.33 C 171.28 388.11 162.84 377.55 154.76 366.66 C 146.65 355.69 139.02 344.40 132.18 332.59 C 126.16 322.44 120.52 312.04 115.46 301.37 C 110.10 290.30 105.37 278.96 101.11 267.42 C 92.26 242.88 86.19 217.43 82.67 191.60 C 80.04 171.02 79.06 150.26 79.68 129.52 C 111.68 122.46 142.88 111.06 172.79 97.77 C 202.71 84.07 231.43 67.88 258.59 49.30 Z" fill="#ffffff"/>
<path d="M 313.36 53.33 C 325.30 60.30 337.80 66.09 350.12 72.34 C 344.55 75.96 339.72 80.48 334.36 84.38 C 332.13 86.02 330.14 87.92 328.23 89.93 C 316.05 84.06 304.18 77.49 292.50 70.67 C 294.45 68.15 296.57 66.01 299.17 64.15 C 303.98 60.65 308.51 56.77 313.36 53.33 Z" fill="#0093ff"/>
<path d="M 350.12 72.34 C 362.70 77.88 375.14 83.64 388.06 88.35 C 383.02 91.13 378.88 94.91 374.32 98.35 C 370.95 100.94 367.71 103.69 364.48 106.46 C 352.17 101.36 340.19 95.82 328.23 89.93 C 330.14 87.92 332.13 86.02 334.36 84.38 C 339.72 80.48 344.55 75.96 350.12 72.34 Z" fill="#008bff"/>
<path d="M 258.61 81.55 C 265.55 86.76 272.75 91.35 280.16 95.83 C 287.50 100.51 294.95 104.84 302.65 108.90 C 297.83 113.43 292.44 117.18 287.27 121.28 C 237.00 160.73 186.71 200.02 136.42 239.46 C 130.88 244.18 124.99 247.59 120.15 252.95 C 109.96 219.30 106.28 184.08 108.16 149.01 C 129.36 144.37 150.02 138.29 170.16 130.17 C 201.36 117.21 231.17 101.31 258.61 81.55 Z" fill="#0095ff"/>
<path d="M 388.06 88.35 C 401.23 93.23 414.59 97.54 428.10 101.38 C 422.82 104.05 419.11 107.95 414.40 111.43 C 410.57 114.27 406.84 117.20 403.36 120.47 C 390.21 116.46 377.26 111.52 364.48 106.46 C 367.71 103.69 370.95 100.94 374.32 98.35 C 378.88 94.91 383.02 91.13 388.06 88.35 Z" fill="#0085ff"/>
<path d="M 428.10 101.38 C 435.75 103.48 443.44 105.32 451.23 106.84 C 455.66 107.61 459.55 110.55 461.17 114.79 C 462.37 118.10 462.18 122.06 462.38 125.55 C 459.70 127.08 457.12 128.75 454.75 130.74 C 449.15 135.43 443.33 139.83 437.48 144.21 C 437.54 139.31 437.42 134.42 437.30 129.52 C 425.78 127.26 414.61 123.81 403.36 120.47 C 406.84 117.20 410.57 114.27 414.40 111.43 C 419.11 107.95 422.82 104.05 428.10 101.38 Z" fill="#007fff"/>
<path d="M 302.65 108.90 C 318.39 117.60 334.56 125.09 351.27 131.77 C 285.67 197.40 220.04 263.00 154.43 328.62 C 139.80 305.07 128.02 279.55 120.15 252.95 C 124.99 247.59 130.88 244.18 136.42 239.46 C 186.71 200.02 237.00 160.73 287.27 121.28 C 292.44 117.18 297.83 113.43 302.65 108.90 Z" fill="#0089ff"/>
<path d="M 462.38 125.55 C 463.56 154.43 461.69 183.42 456.58 211.87 C 445.83 218.92 436.44 227.90 425.78 235.12 C 433.43 205.44 437.33 174.86 437.48 144.21 C 443.33 139.83 449.15 135.43 454.75 130.74 C 457.12 128.75 459.70 127.08 462.38 125.55 Z" fill="#0075ff"/>
<path d="M 381.79 142.31 C 390.73 144.95 399.75 147.04 408.85 149.02 C 409.33 160.54 409.47 171.98 408.89 183.51 C 407.57 183.65 406.43 183.44 405.34 184.32 C 333.18 240.81 260.99 297.43 188.83 353.86 C 185.25 356.57 181.74 359.33 178.35 362.28 C 175.91 359.15 173.53 355.98 171.13 352.83 C 239.25 284.71 307.37 216.60 375.48 148.48 C 377.56 146.41 379.61 144.25 381.79 142.31 Z" fill="#007cff"/>
<path d="M 408.89 183.51 C 406.98 217.73 399.25 251.90 385.77 283.43 C 381.77 284.69 379.18 287.45 376.00 290.00 C 327.20 328.16 278.45 366.43 229.62 404.59 C 227.62 406.13 225.94 407.96 224.32 409.89 C 207.64 395.46 192.22 379.43 178.35 362.28 C 181.74 359.33 185.25 356.57 188.83 353.86 C 260.99 297.43 333.18 240.81 405.34 184.32 C 406.43 183.44 407.57 183.65 408.89 183.51 Z" fill="#0073ff"/>
<path d="M 82.67 191.60 C 86.19 217.43 92.26 242.88 101.11 267.42 C 94.10 272.68 86.73 277.78 80.43 283.89 C 71.09 259.77 64.20 234.73 59.86 209.23 C 67.63 203.56 75.06 197.46 82.67 191.60 Z" fill="#0095ff"/>
<path d="M 456.58 211.87 C 453.63 228.41 449.55 244.77 444.49 260.80 C 442.39 261.86 440.35 262.97 438.54 264.48 C 430.50 271.19 421.94 277.25 413.91 283.96 C 411.94 285.59 409.74 286.84 407.49 288.03 C 415.00 270.91 421.03 253.20 425.78 235.12 C 436.44 227.90 445.83 218.92 456.58 211.87 Z" fill="#006dff"/>
<path d="M 444.49 260.80 C 433.89 294.13 419.12 325.79 400.45 355.36 C 394.37 355.39 388.13 353.55 382.12 354.20 C 374.25 356.47 369.04 365.23 361.47 367.66 C 379.63 342.83 395.31 316.31 407.49 288.03 C 409.74 286.84 411.94 285.59 413.91 283.96 C 421.94 277.25 430.50 271.19 438.54 264.48 C 440.35 262.97 442.39 261.86 444.49 260.80 Z" fill="#0066ff"/>
<path d="M 101.11 267.42 C 105.37 278.96 110.10 290.30 115.46 301.37 C 110.30 304.84 105.75 309.06 100.68 312.64 C 98.60 314.10 96.92 315.91 95.35 317.89 C 89.84 306.80 84.89 295.45 80.43 283.89 C 86.73 277.78 94.10 272.68 101.11 267.42 Z" fill="#008cff"/>
<path d="M 385.77 283.43 C 379.88 297.74 372.73 311.47 364.75 324.72 C 344.09 358.59 317.71 388.86 287.23 414.23 C 278.15 422.14 268.37 429.09 258.30 435.66 C 246.22 428.00 235.05 419.33 224.32 409.89 C 225.94 407.96 227.62 406.13 229.62 404.59 C 278.45 366.43 327.20 328.16 376.00 290.00 C 379.18 287.45 381.77 284.69 385.77 283.43 Z" fill="#006aff"/>
<path d="M 115.46 301.37 C 120.52 312.04 126.16 322.44 132.18 332.59 C 127.26 335.82 123.04 339.85 118.23 343.23 C 115.94 344.82 114.11 346.66 112.41 348.85 C 106.23 338.81 100.68 328.41 95.35 317.89 C 96.92 315.91 98.60 314.10 100.68 312.64 C 105.75 309.06 110.30 304.84 115.46 301.37 Z" fill="#0086ff"/>
<path d="M 132.18 332.59 C 139.02 344.40 146.65 355.69 154.76 366.66 C 147.36 370.65 141.02 376.67 134.55 382.01 C 126.62 371.34 119.24 360.26 112.41 348.85 C 114.11 346.66 115.94 344.82 118.23 343.23 C 123.04 339.85 127.26 335.82 132.18 332.59 Z" fill="#007fff"/>
<path d="M 382.12 354.20 C 388.13 353.55 394.37 355.39 400.45 355.36 C 393.99 365.74 387.04 375.87 379.60 385.57 C 368.96 399.81 357.58 413.45 345.26 426.26 C 324.05 448.82 300.67 469.45 275.40 487.36 C 271.86 489.88 268.20 492.30 264.38 494.36 C 260.38 496.47 255.75 496.68 251.87 494.16 C 241.96 488.10 232.57 481.05 223.47 473.83 C 225.20 471.40 227.09 469.22 229.55 467.51 C 234.14 464.20 238.62 460.81 242.62 456.80 C 247.84 460.68 252.97 464.72 258.40 468.30 C 288.47 447.55 315.25 422.77 339.34 395.36 C 347.09 386.41 354.36 377.12 361.47 367.66 C 369.04 365.23 374.25 356.47 382.12 354.20 Z" fill="#0061ff"/>
<path d="M 154.76 366.66 C 162.84 377.55 171.28 388.11 180.19 398.33 C 173.14 402.82 166.22 408.08 160.32 414.02 C 151.15 403.88 142.62 393.04 134.55 382.01 C 141.02 376.67 147.36 370.65 154.76 366.66 Z" fill="#0077ff"/>
<path d="M 180.19 398.33 C 191.05 410.23 202.17 422.03 214.14 432.82 C 207.33 437.74 200.15 442.75 194.36 448.86 C 191.87 446.57 189.39 444.38 187.00 442.00 C 177.96 432.80 168.82 423.73 160.32 414.02 C 166.22 408.08 173.14 402.82 180.19 398.33 Z" fill="#006fff"/>
<path d="M 214.14 432.82 C 223.29 441.19 232.74 449.31 242.62 456.80 C 238.62 460.81 234.14 464.20 229.55 467.51 C 227.09 469.22 225.20 471.40 223.47 473.83 C 213.41 465.91 203.63 457.71 194.36 448.86 C 200.15 442.75 207.33 437.74 214.14 432.82 Z" fill="#0068ff"/>
</svg>
