<svg viewBox="0 0 483 494" fill="none" xmlns="http://www.w3.org/2000/svg">
<path d="M336.323 150.198C336.323 150.198 371.454 138.702 399.695 111.109L399.758 134.096C384.555 146.783 364.172 153.554 364.172 153.554L336.323 150.198Z" fill="#0D0D0D"/>
<path d="M465.741 0L465.679 14.2774C468.127 101.437 467.957 189.166 465.11 276.326C465.11 275.7 465.11 275.074 465.11 274.448L464.996 315.411L482.931 303.122V17.7478L465.741 0Z" fill="#0D0D0D"/>
<path d="M465.741 14.1663L465.742 0L409.772 8.07877C404.818 22.814 398.157 55.186 336.323 86.4201V150.198C336.323 150.198 371.453 138.705 399.694 111.112V310.35L465.001 315.414L465.115 274.451C462.667 187.86 462.894 100.7 465.741 14.1663Z" fill="#414141"/>
<path d="M465.742 14.1587C468.247 101.375 468.019 189.161 465.115 276.321C462.61 189.104 462.838 101.318 465.742 14.1587Z" fill="#ACACAC"/>
<path d="M306.721 464.643L284.516 387.383L255.697 388.671L274.381 453.265L306.721 464.643Z" fill="#820000"/>
<path d="M237.486 315.698L209.871 216.136L225.586 164.477L268.744 315.698H237.486Z" fill="#820000"/>
<path d="M268.745 71.9694L178.214 54.8446L151.795 130.853C120.65 226.604 87.7405 322.639 53.4642 417.707C116.152 398.875 157.774 360.131 189.659 315.698H179.638L225.586 164.477L240.162 215.567C269.599 134.324 268.745 71.9694 268.745 71.9125V71.9694Z" fill="#FF3F36"/>
<path d="M270.168 72.1969L268.745 71.9694C268.745 71.9694 269.6 134.264 240.163 215.564L268.745 315.698H189.659C157.774 360.131 116.152 398.875 53.4642 417.707C44.2404 443.195 35.0165 468.683 25.6218 494L134.429 482.622L159.994 392.958L284.516 387.383L306.722 464.643L384.612 456.166L270.168 72.1969Z" fill="#EB140A"/>
<path d="M154.466 122.676C153.896 124.496 153.27 126.26 152.701 128.08L178.207 54.8617L139.32 74.8288L-0.00549316 472.794L25.6238 494.005C65.8785 369.808 109.087 245.109 154.409 122.676H154.466Z" fill="#B80000"/>
<path d="M154.471 122.661C114.216 246.858 70.944 371.567 25.6218 494C65.8766 369.803 109.149 245.094 154.471 122.661V122.661Z" fill="#FDC9C4"/>
</svg>
