<svg clip-rule="evenodd" fill-rule="evenodd" stroke-linejoin="round" stroke-miterlimit="2" version="1.1" viewBox="5.6309 -.00015819 488.74 500" xml:space="preserve" xmlns="http://www.w3.org/2000/svg">
    <g transform="matrix(1.1063 0 0 1.1063 -168.22 -24.14)">
        <path d="m344.8 44.556c4.414-1.365 8.829 0 11.545 3.05l85.957 92.083c4.07 4.414 15.958 11.891 26.828 7.809l107.02-39.069c-72.358-89.365-204.51-113.82-307.1-53.346-110.41 65.237-145.06 204.54-77.117 310.89 67.601 106.35 211.98 139.65 322.05 74.411 37.365-22.086 65.903-52.325 84.925-87.323l-93.421-25.137c-9.847-2.717-20.042 2.374-23.778 9.507l-51.984 103.97c-2.719 5.435-9.172 7.809-14.607 5.435-3.049-1.697-5.435-4.415-6.11-7.477l-24.457-128.43c-2.716-13.589-15.294-20.389-22.427-22.086l-126.04-34.31c-3.394-1.021-6.443-3.739-7.464-7.145-2.041-5.768 1.359-11.891 7.131-13.921l110.4-40.778c8.163-2.717 13.598-12.568 11.9-22.086l-20.729-113.48c-1.024-5.436 2.041-10.871 7.476-12.568z" fill="#030a09" fill-rule="nonzero"/>
    </g>
</svg>
