<svg version="1.1" id="Layer_1" xmlns="http://www.w3.org/2000/svg" xmlns:xlink="http://www.w3.org/1999/xlink" x="0px" y="0px" viewBox="138.636474609375 275.31390380859375 332.7088317871094 132.77651977539062" style="enable-background:new 0 0 612 792;" xml:space="preserve">
<style type="text/css">
	.st0{fill:#7E07FE;}
	.st1{fill:#7F09FE;}
</style>
<path class="st0" d="M354.45,408.01c-30.31,0-60.62-0.06-90.93,0.08c-3.57,0.02-4.82-0.66-4.78-4.57
	c0.22-19.64,0.19-39.29,0.02-58.94c-0.03-3.54,0.61-4.95,4.57-4.82c8.26,0.26,8.27,0.02,8.27,8.11c0,14.32,0.12,28.64-0.08,42.95
	c-0.05,3.58,1.11,4.4,4.52,4.39c56.13-0.1,112.25-0.06,168.38-0.08c8.71,0,14.71-5.6,14.65-13.51c-0.05-7.64-6.39-13.55-14.89-13.57
	c-27.15-0.06-54.29-0.02-81.44-0.02c-25.15,0-50.3-0.07-75.44,0.09c-3.53,0.02-4.47-0.92-4.39-4.41c0.19-8.26,0.01-8.26,8.04-8.26
	c51.13,0,102.26-0.02,153.39,0.01c13.1,0.01,24.02,8.64,26.46,20.72c2.56,12.7-4.07,24.95-16.17,29.91
	c-3.77,1.54-7.69,1.94-11.73,1.94C413.41,407.99,383.93,408.01,354.45,408.01z"></path>
<path class="st1" d="M246.63,328.07c-25.98,0-51.95,0-77.93-0.01c-2.84,0-5.66,0.02-8.37,1.01c-5.55,2.03-9.44,7.91-8.99,13.62
	c0.49,6.21,5.05,11.34,11.19,12.36c2.12,0.35,4.31,0.37,6.47,0.37c24.14,0.02,48.29,0.12,72.43-0.08c4.28-0.04,6.31,0.87,5.49,5.43
	c-0.17,0.97-0.16,2.01,0,2.99c0.57,3.6-1.04,4.38-4.44,4.36c-25.98-0.13-51.95-0.07-77.93-0.08c-6.64,0-12.36-2.42-17.2-6.85
	c-8.16-7.48-10.84-18.72-6.97-28.74c4.04-10.46,13.74-16.94,25.82-16.96c35.97-0.05,71.94-0.02,107.9-0.02
	c16.82,0,33.64,0.05,50.45-0.03c6.51-0.03,11.04-3.29,13.47-9.28c2.18-5.36,0.79-10.14-3.07-14.22c-2.5-2.65-5.66-4-9.37-4
	c-16.82,0.01-33.64,0.07-50.45-0.06c-2.97-0.02-3.8,1.08-3.56,3.79c0.16,1.82,0.05,3.66,0.03,5.49c-0.08,7.19,0.9,6.51-6.3,6.47
	c-7.56-0.03-6.43,0.99-6.51-6.69c-0.06-5.99,0.02-11.99-0.03-17.98c-0.02-1.99,0-3.55,2.78-3.51c21.97,0.3,43.97-0.78,65.91,0.53
	c14.1,0.84,24.37,13.18,23.73,27.14c-0.63,13.93-12.08,24.9-26.13,24.92C298.92,328.1,272.77,328.07,246.63,328.07z"></path>
</svg>
