<svg xmlns="http://www.w3.org/2000/svg" fill="none" viewBox="0 0 498 632"><path fill="url(#a)" d="M.193 466.389v163.874H115.08V473.48a57.55 57.55 0 0 1 16.824-40.668 57.41 57.41 0 0 1 40.619-16.846h117.798c54.953-.016 107.65-21.884 146.504-60.793 38.853-38.91 60.681-91.676 60.686-146.696 0-55.028-21.832-107.803-60.692-146.717C397.958 22.846 345.251.98 290.29.972H.193v204.842H115.08v-96.575h167.467a98 98 0 0 1 69.329 28.746 98.24 98.24 0 0 1 28.733 69.405 98.242 98.242 0 0 1-28.721 69.425 98.004 98.004 0 0 1-69.341 28.757H160.798a160.372 160.372 0 0 0-61.477 12.221 160.515 160.515 0 0 0-52.116 34.859 160.737 160.737 0 0 0-34.812 52.184 160.892 160.892 0 0 0-12.2 61.553Z"/><path fill="url(#b)" d="M172.491 415.966a172.21 172.21 0 0 0-121.828 50.532C18.35 498.848.197 542.724.193 588.475v41.788H115.08V473.48a57.548 57.548 0 0 1 16.813-40.657 57.411 57.411 0 0 1 40.598-16.857Z"/><defs><radialGradient id="a" cx="0" cy="0" r="1" gradientTransform="matrix(632.616 0 0 633.388 499.32 -86.401)" gradientUnits="userSpaceOnUse"><stop stop-color="#A995FF"/><stop offset="1" stop-color="#6652F5"/></radialGradient><linearGradient id="b" x1="86.342" x2="86.342" y1="599.269" y2="358.469" gradientUnits="userSpaceOnUse"><stop stop-color="#6D4BFD"/><stop offset="1" stop-color="#1C0554"/></linearGradient></defs></svg>
