<!-- Generator: Adobe Illustrator 19.1.0, SVG Export Plug-In . SVG Version: 6.00 Build 0)  -->
<svg version="1.1" id="Layer_1" xmlns="http://www.w3.org/2000/svg" xmlns:xlink="http://www.w3.org/1999/xlink"
	 viewBox="0 0 167.2 59.8" style="enable-background:new 0 0 167.2 59.8;" xml:space="preserve">
<style type="text/css">
	.st0{fill:#2D3E51;}
	.st1{fill:#2FC877;}
</style>
<path class="st0" d="M8.4,0H5.5C1.8,0,0,1.1,0,3.2v53c0,2.1,1.8,3.2,5.5,3.2h2.9c3.6,0,5.5-1.1,5.5-3.2v-53C13.9,1.1,12,0,8.4,0z"/>
<path class="st0" d="M59.7,53c0-6.3,4.1-11.7,9.8-13.5c0.7-2.9,1-6.2,1-9.7C70.5,10.5,60.8,0,43.3,0H24.6c-2.6,0-3.8,1.2-3.8,3.8
	v51.7c0,2.6,1.2,3.8,3.8,3.8h18.7c6.7,0,12.2-1.5,16.5-4.5C59.7,54.3,59.7,53.6,59.7,53z M43.3,47.5h-8.6V11.9h8.6
	c10.8,0,13,9.7,13,17.8C56.3,37.8,54.1,47.5,43.3,47.5z"/>
<circle class="st1" cx="73.9" cy="53" r="6.5"/>
<path class="st0" d="M166.1,43.8c-0.2-0.1-0.4-0.1-0.6-0.1c-0.9,0-1.5,0.3-2,1.2c-0.3,0.5-0.6,1-0.9,1.6c-1.2,2-2.4,4.1-4.2,5.6
	c-2.4,2-5.9,3-8.9,2.4c-1.8-0.3-3-1.6-3.8-2.6c-1.4-1.9-2-4.4-1.9-7.3c4.4-0.4,17.6-2.3,18.7-12.3c0.2-1.9-0.3-3.7-1.6-5.1
	c-1.6-1.8-4.1-2.7-7.1-2.7c-8.8,0-17.5,9.2-18.6,19.7c-0.3,2.9,0.1,5.5,1.1,7.9c-0.8,0.7-1.5,1.2-2.2,1.5c-0.7,0.4-1.4,0.4-1.8,0.2
	c-0.6-0.3-0.8-0.9-0.9-1.5c-0.3-1.9,0.1-4.1,0.6-6.4c0.3-1.3,0.7-2.7,1-4c1.1-3.8,2.2-7.7,1.8-11.7c-0.3-3.6-2.9-5.9-6.7-5.9
	c-5.3,0-8.8,3.8-11,7c0-2.4-0.6-4.2-1.7-5.3c-1.1-1.1-2.6-1.7-4.7-1.7c-5.2,0-8.6,3.6-10.9,6.8c0-0.3,0.1-0.6,0.1-0.9
	c0.1-1.4,0.2-3.3-0.9-4.5c-0.6-0.7-1.6-1.1-2.9-1.1c-1.1,0-1.4,0-2.6,0.2c0,0-1.2,0.2-1.6,0.6c-0.8,0.7-0.5,1.7-0.4,2.3
	c0,0.1,0,0.1,0,0.2c0.1,0.5,0.1,1.2,0.1,1.9c-0.2,3.8-0.9,7.6-1.5,10.9c-0.4,1.7-0.8,3.5-1.2,5.3c-0.9,3.9-1.8,7.9-2.3,11.9
	c-0.1,0.4,0.1,0.8,0.3,1.1c0.3,0.3,0.7,0.5,1.1,0.5l0.3,0c2.9,0,5.7-0.1,6.3-1.7c0.7-1.8,1.1-4,1.5-5.9l0.2-0.9
	c0.8-4.4,1.6-7.6,3.1-11.7c0.8-2.1,2.2-4,3.3-5.4c1.4-1.7,2.9-3.4,4.5-3.4c0.7,0,1.1,0.2,1.5,0.6c1.6,2.2-0.4,9.2-1.3,12.1
	c-0.2,0.6-0.3,1.2-0.4,1.6l-0.6,2.3c-0.9,3.4-1.8,6.8-2.2,10.4c0,0.4-0.1,0.7-0.1,1.1l0,0.5l0.4,0.3c0.7,0.6,6-0.2,6-0.2
	c1.9-0.7,2.4-2.5,2.5-3.1c0.4-1.6,0.7-3.1,1-4.7l0-0.1c0.6-2.9,1.2-5.9,2.1-8.7c1.7-5.6,4.1-9.4,6.9-11.4c1.2-0.8,2.5-0.9,3-0.2
	c1,1.2,0.4,4.5,0.1,5.9c-0.4,1.9-0.8,3.9-1.3,5.8l0,0.1c-0.3,1.2-0.6,2.4-0.9,3.7c-0.8,3.8-1.5,8.5,0.6,11.2c1.1,1.4,2.8,2.1,5,2.1
	c2.4,0,4.6-0.8,7-2.5c0.7-0.5,1.3-1,2.1-1.7c2.7,3.1,5.8,4.4,10.2,4.4c10,0,14.7-6.7,17.4-11.7c0.3-0.6,0.7-1.4,0.9-2
	C167.4,45.2,167,44.2,166.1,43.8z M153.8,31.2c0,0.2,0,0.3,0,0.5c0,0.2,0,0.5,0,0.7c-0.1,0.8-0.2,1.6-0.5,2.3
	c-1.4,4.6-5.5,5.5-8.9,5.6c0.5-2,1.2-4,2-5.7c1.7-3.5,3.8-5.6,5.6-5.6c0.2,0,0.3,0,0.5,0.1c0.1,0,0.1,0.1,0.2,0.1l0.1,0
	c0,0,0.1,0,0.1,0c0.1,0,0.1,0.1,0.2,0.2l0.1,0.1c0,0,0,0,0.1,0.1c0,0.1,0.1,0.1,0.1,0.2l0.1,0.1c0,0.1,0.1,0.1,0.1,0.2
	c0,0,0,0.1,0.1,0.2c0,0.1,0.1,0.2,0.1,0.4l0,0.1c0,0.1,0.1,0.3,0.1,0.5L153.8,31.2z"/>
</svg>
