<svg viewBox="0 0 128 128" fill="none" xmlns="http://www.w3.org/2000/svg">
<path fill-rule="evenodd" clip-rule="evenodd" d="M82.9539 9.84616C84.4499 9.84616 85.6616 11.0579 85.6616 12.5539V82.9539C85.6616 84.4499 84.4499 85.6615 82.9539 85.6615H77.5385C76.0425 85.6615 74.8308 84.4499 74.8308 82.9539V22.0308C74.8308 21.2828 74.225 20.6769 73.477 20.6769H22.0308C21.2828 20.6769 20.677 21.2828 20.677 22.0308V105.969C20.677 106.717 21.2828 107.323 22.0308 107.323H28.8C30.296 107.323 31.5077 108.535 31.5077 110.031V115.446C31.5077 116.942 30.296 118.154 28.8 118.154H12.5539C11.0579 118.154 9.84619 116.942 9.84619 115.446V12.5539C9.84619 11.0579 11.0579 9.84616 12.5539 9.84616H82.9539ZM115.446 9.84616C116.942 9.84616 118.154 11.0579 118.154 12.5539V115.446C118.154 116.942 116.942 118.154 115.446 118.154H45.0462C43.5502 118.154 42.3385 116.942 42.3385 115.446V45.0462C42.3385 43.5502 43.5502 42.3385 45.0462 42.3385H50.4616C51.9576 42.3385 53.1693 43.5502 53.1693 45.0462V105.969C53.1693 106.717 53.7751 107.323 54.5231 107.323H105.969C106.717 107.323 107.323 106.717 107.323 105.969V22.0308C107.323 21.2828 106.717 20.6769 105.969 20.6769H99.2C97.704 20.6769 96.4923 19.4652 96.4923 17.9692V12.5539C96.4923 11.0579 97.704 9.84616 99.2 9.84616H115.446Z" fill="#2FE1B9"/>
</svg>
