<svg xmlns="http://www.w3.org/2000/svg" viewBox="0 0 50.22800064086914 55.23200225830078"><path fill="#192E7B" d="M37.508 17.964C37.508 9.407 23.877 0 15.542 0 6.902 0 
4.679 8.958 4.679 16.151c0 3.345.606 6.208 1.784 8.56C2.517 26.847 0 29.953 0 33.18c0 5.629 9.642 15.536 25.33 15.536.55 0 1.068-.018 1.56-.052 3.025 4.892 7.719 6.568 
9.774 6.568 5.619 0 6.936-7.243 8.289-11.336 1.146-3.46 2.42-6.932 3.849-10.286.817-1.919 1.426-3.88 1.426-5.986 0-4.906-4.139-9.66-12.72-9.66z"></path><path 
fill="#FFF" d="M25.707 23.011v-3.202c-.768-.219-1.684-.328-2.605-.328-3.737 0-5.576 2.525-5.576 5.079 0 2.431.895 4.745 4.266 9.968a39.104 39.104 0 0 1 
4.069-.332c-2.937-5.448-3.653-7.36-3.653-8.756 0-1.622.934-2.448 2.834-2.448.256-.001.463.004.665.019zM15.521 27.736c-.274-.73-.477-1.906-.555-2.759-2.976-.099-5.214 
1.597-5.214 4.007 0 1.935.987 3.651 5.092 7.132a38.557 38.557 0 0 1 3.625-1c-4.017-3.743-4.639-4.739-4.639-5.858.001-.823.572-1.359 1.691-1.522zM28.455 
23.011v-3.202c.768-.219 1.684-.328 2.605-.328 3.737 0 5.576 2.525 5.576 5.079 0 2.431-.895 4.745-4.266 9.968a39.108 39.108 0 0 0-4.068-.332c2.937-5.448 3.653-7.36 
3.653-8.756 0-1.622-.934-2.448-2.835-2.448a8.386 8.386 0 0 0-.665.019zM38.641 27.736c.274-.73.477-1.906.555-2.759 2.976-.099 5.214 1.597 5.214 4.007 0 1.935-.987 
3.651-5.093 7.132a38.473 38.473 0 0 0-3.625-1c4.018-3.743 4.639-4.739 4.639-5.858.001-.823-.571-1.359-1.69-1.522zM27.081 41.009c3.009 0 6.075.394 9.267 
1.344l1.09-3.581a36.147 36.147 0 0 0-10.356-1.505c-3.286 0-6.774.437-10.357 1.505l1.09 3.581a32.121 32.121 0 0 1 9.266-1.344zM27.08 17.72l-3.315-3.316 3.316-3.316 3.316 
3.318z"></path></svg>
