<svg version="1.1" id="Layer_1" xmlns="http://www.w3.org/2000/svg" xmlns:xlink="http://www.w3.org/1999/xlink" x="0px" y="0px" style="enable-background:new 0 0 612 792;" xml:space="preserve" viewBox="194.06 283.16 223.88 224.84">
<style type="text/css">
	.st0{fill:#0A6166;}
	.st1{fill:#29343A;}
	.st2{fill:#2A343A;}
</style>
<path class="st0" d="M264.04,283.21c0.59,3.04,2.84,5.13,4.48,7.53c23.02,33.7,46.08,67.37,69.25,100.96
	c2.01,2.91,1.94,4.79-0.14,7.66c-25.12,34.67-50.09,69.45-75.07,104.23c-0.94,1.31-2.33,2.4-2.53,4.17
	c-20.66,0-41.32,0.03-61.98-0.06c-1.29-0.01-3.07,1.11-3.96-0.94c1.72-0.33,2.07-1.98,2.87-3.12c7.38-10.45,14.69-20.94,22.02-31.42
	c17.03-24.37,34.02-48.77,51.14-73.08c1.8-2.55,2.07-4.38,0.06-6.92c-2.56-3.25-4.66-6.86-6.96-10.32
	c-21.56-32.52-43.11-65.04-64.66-97.56c19.27-0.04,38.53-0.06,57.8-0.16c1.9-0.01,4.02,0.76,5.66-0.96
	C262.7,283.21,263.37,283.21,264.04,283.21z"></path>
<path class="st1" d="M414.91,283.21c-4.66,8.96-10.79,16.98-16.3,25.4c-13.43,20.52-27.13,40.87-40.53,61.41
	c-2.15,3.3-3.4,3.23-5.45,0.21c-9.79-14.39-19.58-28.79-29.54-43.07c-1.66-2.38-0.76-3.75,0.55-5.65
	c7.73-11.18,15.39-22.4,22.97-33.69c0.94-1.4,2.75-2.49,2.36-4.62C370.95,283.21,392.93,283.21,414.91,283.21z"></path>
<path class="st2" d="M417.94,506.75c-21.66,0-43.31,0-64.97,0c-9.92-13.71-19.8-27.43-29.78-41.1c-1.26-1.73-1.42-2.95-0.09-4.79
	c9.84-13.57,19.56-27.22,29.31-40.85c1.89-2.65,2.91-3.11,5.24,0.27c18.67,27.06,37.65,53.9,56.53,80.82
	C415.49,502.95,416.7,504.87,417.94,506.75z"></path>
</svg>
