<svg version="1.1" id="Layer_1" xmlns="http://www.w3.org/2000/svg" xmlns:xlink="http://www.w3.org/1999/xlink" x="0px" y="0px"
	 viewBox="0 0 612 792" style="enable-background:new 0 0 612 792;" xml:space="preserve">
<style type="text/css">
	.st0{fill:#096E76;}
	.st1{fill:#048790;}
	.st2{fill:#0A6B72;}
	.st3{fill:#087178;}
	.st4{fill:#048993;}
	.st5{fill:#05848D;}
	.st6{fill:#038C95;}
	.st7{fill:#0A6970;}
	.st8{fill:#077A83;}
	.st9{fill:#077B83;}
	.st10{fill:#07777F;}
	.st11{fill:#067F87;}
	.st12{fill:#067D86;}
	.st13{fill:#05828B;}
	.st14{fill:#08767D;}
	.st15{fill:#077981;}
	.st16{fill:#08737B;}
	.st17{fill:#068088;}
	.st18{fill:#07787F;}
	.st19{fill:#FEFEFE;}
	.st20{fill:#08767E;}
</style>
<path class="st0" d="M436.97,553.99c0,8.35,0,16.69,0,25.04c-0.34,0.55-0.82,0.67-1.36,0.67c-0.64,0-1.26,0.04-1.86,0.44
	c-0.47,0.32-1.05,0.31-1.46-0.09c-0.7-0.7-1.35-0.59-2.12-0.19c-0.81,0.41-1.68-0.02-2.53,0.03c-1.14,0.08-2.31-0.73-3.42,0.21
	c-1.24-1.12-2.59-0.18-3.88-0.31c-1.02-0.1-2.03-0.25-2.99,0.38c-0.26,0.17-0.64,0.31-0.86,0.12c-1.7-1.44-3.51,0.08-5.25-0.34
	c-0.37-0.09-0.78-0.01-1.13-0.2c-0.55-0.3-1.04-0.33-1.56,0.11c-0.28,0.24-0.7,0.41-0.97,0.2c-1.64-1.22-3.37,0.2-5.04-0.32
	c-0.48-0.15-1.01,0.04-1.47,0.38c-0.3,0.22-0.74,0.39-0.98,0.16c-1.52-1.47-3.18,0.04-4.76-0.37c-0.63-0.16-1.34-0.01-1.99-0.32
	c-0.25-0.12-0.49-0.19-0.73,0c-0.8,0.63-1.58,0.72-2.35-0.07c-0.17-0.17-0.42-0.25-0.61-0.12c-1.01,0.7-2.08,0.28-3.13,0.3
	c-0.51,0.01-1.05-0.09-1.51,0.23c-0.8,0.56-1.55,0.49-2.26-0.17c-0.39-0.35-0.74-0.33-1.18-0.14c-1.4,0.6-2.85,0.05-4.26,0.15
	c-1.61,0.11-3.19-0.31-4.78-0.05c-0.42,0.07-0.84,0.18-1.26,0.06c-0.68-0.19-1.41-0.25-2.03-0.01c-1.14,0.45-2.19,0.84-3.21-0.28
	c-0.12-0.14-0.33-0.1-0.49-0.02c-1.66,0.77-3.32,0.54-4.99,0.05c-0.32-0.09-0.58-0.03-0.84,0.16c-0.68,0.5-1.36,0.56-2.02-0.07
	c-0.21-0.2-0.47-0.38-0.71-0.24c-1.75,1-3.76-0.38-5.48,0.89c-0.13,0.1-0.37,0.11-0.5,0c-1.64-1.46-3.42,0.06-5.12-0.34
	c-0.45-0.11-0.93-0.05-1.38-0.25c-0.2-0.09-0.44-0.3-0.6-0.2c-1.05,0.66-2.08,0.83-3.08-0.11c-1.7,1.03-3.65-0.33-5.35,0.81
	c-0.26,0.18-0.65,0.29-0.86,0.09c-1.56-1.48-3.26,0.08-4.88-0.35c-0.55-0.15-1.18-0.03-1.75-0.29c-0.28-0.13-0.56-0.26-0.85-0.03
	c-0.8,0.64-1.58,0.69-2.35-0.08c-0.13-0.13-0.34-0.22-0.48-0.13c-1.74,1.05-3.76-0.38-5.48,0.89c-0.17,0.13-0.47,0.14-0.62-0.01
	c-1.6-1.47-3.34,0.11-5-0.33c-0.4-0.11-0.84-0.05-1.26-0.17c-1.38-0.4-2.85,0.77-4.18-0.36c-0.88,0.61-1.81,0.36-2.74,0.3
	c-0.76-0.05-1.53-0.07-2.24,0.44c-0.38,0.27-0.89,0.33-1.23,0.01c-0.85-0.79-1.67-0.61-2.6-0.26c-0.81,0.3-1.69,0.02-2.53-0.03
	c-1.03-0.06-2.05-0.59-3.04,0.2c-0.06,0.05-0.19,0.06-0.25,0.01c-1.35-1.27-2.85,0.02-4.27-0.36c-0.8-0.21-1.7-0.14-2.48,0.44
	c-0.26,0.19-0.64,0.3-0.86,0.11c-1.65-1.45-3.43,0.07-5.12-0.34c-0.41-0.1-0.86,0.01-1.25-0.21c-0.55-0.3-1.04-0.31-1.56,0.12
	c-0.28,0.24-0.7,0.41-0.97,0.2c-1.55-1.24-3.2,0.19-4.79-0.32c-0.55-0.18-1.18-0.02-1.72,0.39c-0.3,0.22-0.74,0.38-0.98,0.15
	c-1.56-1.49-3.26,0.08-4.87-0.35c-0.55-0.15-1.18-0.03-1.74-0.29c-0.28-0.13-0.56-0.27-0.85-0.04c-0.8,0.63-1.58,0.72-2.35-0.06
	c-0.16-0.17-0.42-0.24-0.61-0.12c-0.97,0.66-1.99,0.32-3,0.3c-0.68-0.01-1.35-0.01-1.99,0.42c-0.57,0.38-1.19,0.26-1.69-0.21
	c-0.55-0.52-1.01-0.4-1.64-0.18c-1.32,0.46-2.69-0.03-4.03,0.05c-1.6,0.1-3.19-0.31-4.78-0.05c-0.43,0.07-0.84,0.17-1.27,0.05
	c-0.68-0.19-1.41-0.25-2.03,0c-1.14,0.45-2.19,0.83-3.21-0.28c-0.12-0.13-0.33-0.1-0.49-0.02c-1.66,0.78-3.32,0.55-4.99,0.06
	c-0.26-0.08-0.5-0.11-0.73,0.07c-0.76,0.59-1.5,0.68-2.24-0.06c-0.17-0.17-0.41-0.28-0.6-0.17c-1.75,1.01-3.76-0.38-5.48,0.89
	c-0.14,0.1-0.38,0.11-0.5,0c-1.64-1.47-3.42,0.06-5.12-0.34c-0.41-0.1-0.86,0.01-1.25-0.21c-0.55-0.3-1.04-0.3-1.56,0.12
	c-0.37,0.3-0.8,0.3-1.23,0.15c-2.09-0.73-4.17-0.36-6.25,0.14c-0.33,0.08-0.74,0.35-0.99,0.12c-1.57-1.48-3.26,0.08-4.88-0.34
	c-0.55-0.14-1.18-0.03-1.74-0.29c-0.28-0.13-0.56-0.29-0.85-0.05c-0.79,0.63-1.57,0.74-2.35-0.06c-0.13-0.13-0.34-0.23-0.48-0.14
	c-1.74,1.06-3.76-0.4-5.47,0.89c-0.17,0.13-0.47,0.15-0.62,0c-1.55-1.52-3.25,0.1-4.87-0.35c-0.51-0.14-1.09-0.01-1.62-0.24
	c-0.32-0.14-0.63-0.35-0.97-0.08c-0.8,0.64-1.57,0.69-2.35-0.08c-0.3-0.29-0.64-0.11-0.97,0.04c-0.5,0.23-0.99,0.35-1.41-0.22
	c0-8.24,0-16.49,0-24.73c0.91-0.99,1.92-1.19,3.17-1.08c1.37,0.12,2.77-0.24,4.15,0.1c0.88,0.22,1.75,0.36,2.57-0.33
	c0.27-0.23,0.74-0.28,0.99-0.05c1.34,1.28,2.77,0.22,4.15,0.31c1.55,0.09,3.12,0.12,4.63-0.01c1.85-0.16,3.62,0.05,5.43,0.3
	c0.31,0.04,0.56-0.21,0.82-0.39c0.47-0.32,1.07-0.53,1.46-0.16c0.94,0.86,1.88,0.49,2.88,0.37c1.96-0.24,3.96,0.08,5.9-0.1
	c1.77-0.17,3.46,0.05,5.18,0.29c0.36,0.05,0.65-0.18,0.95-0.39c0.47-0.33,1.07-0.53,1.46-0.16c0.94,0.87,1.88,0.49,2.88,0.37
	c1.96-0.24,3.96,0.08,5.9-0.1c1.77-0.17,3.46,0.05,5.18,0.29c0.36,0.05,0.65-0.18,0.95-0.39c0.47-0.33,1.07-0.53,1.46-0.17
	c0.94,0.88,1.88,0.49,2.88,0.37c1.96-0.23,3.96,0.08,5.9-0.1c1.77-0.16,3.46,0.05,5.18,0.29c0.36,0.05,0.65-0.19,0.95-0.39
	c0.47-0.33,1.07-0.53,1.46-0.16c0.94,0.88,1.88,0.49,2.88,0.37c1.96-0.24,3.96,0.08,5.9-0.1c1.77-0.16,3.46,0.05,5.17,0.29
	c0.36,0.05,0.65-0.19,0.95-0.4c0.47-0.32,1.07-0.53,1.46-0.16c0.94,0.87,1.88,0.49,2.88,0.37c1.96-0.24,3.96,0.08,5.9-0.1
	c1.77-0.16,3.46,0.05,5.17,0.28c0.36,0.05,0.65-0.19,0.95-0.4c0.47-0.32,1.07-0.53,1.46-0.16c0.94,0.87,1.88,0.49,2.88,0.37
	c1.96-0.24,3.96,0.07,5.9-0.1c1.77-0.16,3.46,0.05,5.17,0.29c0.36,0.05,0.65-0.18,0.95-0.39c0.47-0.33,1.07-0.53,1.46-0.16
	c0.94,0.87,1.88,0.5,2.88,0.37c1.96-0.24,3.96,0.07,5.9-0.1c1.77-0.16,3.46,0.04,5.17,0.29c0.36,0.05,0.66-0.17,0.95-0.39
	c0.42-0.31,0.99-0.54,1.34-0.22c1.36,1.26,2.77,0.23,4.15,0.3c1.54,0.08,3.12,0.14,4.63,0c1.85-0.17,3.62,0.04,5.43,0.3
	c0.31,0.04,0.57-0.19,0.82-0.38c0.42-0.31,0.98-0.54,1.34-0.22c1.4,1.26,2.86,0.16,4.27,0.31c1.51,0.16,3.03,0.09,4.51-0.02
	c1.84-0.13,3.62,0.04,5.43,0.31c0.31,0.05,0.57-0.19,0.82-0.38c0.42-0.31,0.98-0.55,1.34-0.23c1.44,1.27,2.94,0.13,4.4,0.29
	c1.46,0.16,2.95,0.09,4.38,0c1.84-0.12,3.62,0.03,5.42,0.32c0.31,0.05,0.57-0.18,0.82-0.37c0.42-0.31,0.97-0.56,1.34-0.24
	c1.49,1.28,3.03,0.07,4.52,0.29c1.43,0.21,2.87,0.08,4.26,0c1.84-0.1,3.62,0.03,5.42,0.33c0.31,0.05,0.57-0.18,0.82-0.37
	c0.42-0.31,0.97-0.56,1.34-0.25c1.49,1.28,3.03,0.07,4.52,0.29c1.43,0.21,2.86,0.07,4.26,0c1.84-0.09,3.62,0.02,5.42,0.33
	c0.31,0.05,0.57-0.17,0.83-0.36c0.42-0.31,0.97-0.57,1.33-0.26c1.49,1.29,3.03,0.07,4.52,0.3c1.43,0.22,2.87,0.08,4.26,0
	c1.88-0.11,3.71,0.08,5.55,0.31c0.3,0.04,0.55-0.25,0.81-0.42c0.43-0.28,1-0.49,1.35-0.15c1.01,0.98,2.06,0.48,3.13,0.38
	c1.92-0.17,3.88,0.1,5.77-0.07c1.73-0.16,3.37,0.04,5.05,0.28c0.31,0.04,0.59-0.07,0.85-0.27c0.77-0.59,1.53-0.61,2.26,0.07
	c0.47,0.44,0.91,0.28,1.43,0.19C434.76,553.67,435.9,553.08,436.97,553.99z"/>
<path class="st1" d="M436.97,332.35c0,8.24,0,16.49,0,24.73c-0.49,0.97-1.15,1.26-2.07,0.88c-0.96-0.4-1.94,0.07-2.91,0.06
	c-1.29-0.01-2.58-0.7-3.73-0.48c-1.24,0.23-2.43,0.22-3.64,0.22c-0.72,0-1.45,0.01-2.12-0.43c-0.57-0.37-1.12-0.05-1.59,0.22
	c-0.89,0.51-1.72,0.54-2.7,0.38c-1.11-0.19-2.28,0.1-3.42,0.05c-0.21-0.01-0.45,0.11-0.63,0.02c-2.14-0.97-4.33,0.09-6.49-0.21
	c-0.87-0.12-1.68-1.04-2.58-0.45c-1.89,1.23-3.9,0.33-5.84,0.61c-1.29,0.19-2.58-0.64-3.73-0.43c-1.19,0.22-2.34,0.23-3.51,0.22
	c-0.76-0.01-1.53,0.01-2.25-0.44c-0.61-0.38-1.21-0.01-1.71,0.29c-0.81,0.47-1.56,0.49-2.45,0.33c-1.16-0.2-2.36,0.1-3.55,0.04
	c-0.21-0.01-0.45,0.11-0.63,0.02c-2.1-1-4.25,0.23-6.36-0.24c-0.5-0.11-1.02-0.06-1.49-0.35c-0.27-0.17-0.57-0.35-0.85-0.18
	c-2.37,1.43-4.91,0.42-7.35,0.78c-0.08,0.01-0.18,0.04-0.25,0c-2.14-0.94-4.34,0.26-6.48-0.29c-1.52-0.39-2.89-0.27-4.43,0.26
	c-1.15,0.39-2.58,0-3.88,0c-1.18,0-2.39,0.2-3.5-0.53c-0.15-0.1-0.34-0.08-0.5-0.02c-1.97,0.79-3.92,0.5-5.85-0.2
	c-0.17-0.06-0.35-0.09-0.5,0c-2.37,1.45-4.91,0.43-7.35,0.79c-0.08,0.01-0.18,0.04-0.25,0c-2.14-0.94-4.35,0.26-6.48-0.29
	c-1.52-0.39-2.89-0.26-4.43,0.26c-1.15,0.39-2.58,0.01-3.88,0c-1.18,0-2.39,0.2-3.5-0.54c-0.14-0.1-0.34-0.08-0.5-0.01
	c-1.97,0.78-3.92,0.51-5.85-0.21c-0.17-0.06-0.35-0.09-0.5,0c-2.37,1.44-4.91,0.43-7.35,0.79c-0.08,0.01-0.18,0.04-0.25,0
	c-2.14-0.94-4.35,0.26-6.48-0.3c-1.53-0.4-2.89-0.24-4.42,0.26c-1.15,0.37-2.58,0.02-3.89,0.01c-1.18-0.01-2.39,0.2-3.5-0.54
	c-0.14-0.09-0.34-0.07-0.5-0.01c-1.97,0.77-3.91,0.47-5.86-0.19c-0.63-0.22-1.25,0.19-1.83,0.53c-0.61,0.35-1.18,0.43-1.85,0.23
	c-1.25-0.37-2.53,0.19-3.8-0.02c-0.2-0.03-0.44,0.11-0.63,0.03c-2.14-0.93-4.35,0.28-6.48-0.29c-1.53-0.41-2.9-0.22-4.42,0.26
	c-1.16,0.36-2.58,0.03-3.89,0.01c-1.18-0.02-2.39,0.2-3.49-0.54c-0.14-0.1-0.34-0.07-0.5-0.01c-1.97,0.78-3.91,0.46-5.86-0.19
	c-0.63-0.21-1.26,0.19-1.83,0.53c-0.61,0.35-1.18,0.42-1.85,0.23c-1.25-0.37-2.53,0.19-3.8-0.02c-0.2-0.03-0.44,0.11-0.63,0.03
	c-2.14-0.94-4.35,0.28-6.48-0.29c-1.53-0.41-2.9-0.21-4.42,0.26c-1.16,0.36-2.58,0.03-3.89,0c-1.18-0.02-2.39,0.19-3.49-0.54
	c-0.14-0.1-0.34-0.07-0.5,0c-1.93,0.82-3.83,0.44-5.73-0.16c-0.71-0.23-1.34,0.16-1.95,0.5c-0.61,0.34-1.18,0.41-1.85,0.22
	c-1.25-0.36-2.53,0.18-3.8-0.01c-0.2-0.03-0.45,0.11-0.63,0.03c-2.1-0.95-4.25,0.22-6.35-0.26c-1.54-0.35-2.97-0.34-4.56,0.23
	c-1.12,0.4-2.57,0.03-3.88,0.01c-1.18-0.02-2.39,0.18-3.49-0.55c-0.15-0.1-0.34-0.07-0.5,0c-1.97,0.8-3.91,0.48-5.85-0.22
	c-0.55-0.2-1.21,0.25-1.67-0.45c0-8.14,0-16.28,0-24.42c1.06-1.67,1.3-1.73,2.96-0.75c0.15,0.09-0.03,0.1,0.11,0.06
	c1.36-0.37,2.69,0.26,4.03,0.12c0.59-0.06,1.15-0.24,1.76-0.13c0.87,0.16,1.73,0.41,2.61-0.1c0.38-0.22,0.83-0.02,1.25,0.12
	c1.44,0.51,2.87,0.46,4.23-0.35c0.81-0.48,1.54-0.55,2.26,0.16c0.1,0.1,0.23,0.26,0.32,0.22c1.32-0.55,2.62,0.26,3.91,0.08
	c0.63-0.09,1.24-0.24,1.88-0.13c0.83,0.14,1.65,0.41,2.48-0.1c0.37-0.23,0.83-0.05,1.25,0.1c1.49,0.54,2.95,0.46,4.35-0.38
	c0.77-0.46,1.46-0.48,2.14,0.18c0.1,0.1,0.23,0.27,0.32,0.23c1.36-0.54,2.69,0.3,4.03,0.08c0.5-0.08,0.98-0.25,1.51-0.16
	c0.95,0.17,1.92,0.51,2.86-0.09c0.11-0.07,0.26-0.07,0.38-0.03c2,0.72,3.94,0.67,5.82-0.52c0.05-0.03,0.1-0.04,0.12-0.02
	c1.4,1,3,0.34,4.46,0.79c0.16,0.05,0.34,0.31,0.46,0.24c1.54-0.91,3.18,0.23,4.72-0.35c0.55-0.2,1.08-0.15,1.63,0.05
	c1.44,0.51,2.86,0.42,4.24-0.36c0.31-0.18,0.69-0.55,0.95-0.36c1.4,1.07,3.03,0.19,4.46,0.82c0.2,0.09,0.41,0.34,0.59,0.22
	c1.6-1.12,3.36,0.42,4.98-0.48c0.34-0.19,0.75,0.01,1.12,0.14c1.49,0.53,2.95,0.44,4.35-0.39c0.27-0.16,0.61-0.47,0.83-0.31
	c1.41,0.99,3.01,0.3,4.46,0.8c0.12,0.04,0.25,0.24,0.34,0.19c1.51-0.73,3.09,0.09,4.6-0.26c0.65-0.15,1.23-0.23,1.87,0
	c1.44,0.5,2.87,0.43,4.23-0.4c0.76-0.47,1.46-0.5,2.15,0.14c0.1,0.09,0.22,0.27,0.32,0.24c1.36-0.46,2.69,0.27,4.02,0.1
	c0.54-0.07,1.07-0.25,1.63-0.15c0.91,0.15,1.84,0.54,2.73-0.11c0.04-0.03,0.09-0.03,0.13-0.02c2.16,0.67,4.28,0.66,6.33-0.56
	c1.25,0.87,2.64,0.47,3.97,0.68c0.71,0.11,1.34,0.45,2.05,0.04c0.4-0.23,0.84-0.06,1.26-0.01c0.87,0.12,1.73,0.43,2.61-0.09
	c0.37-0.22,0.83-0.04,1.25,0.11c1.49,0.52,2.95,0.48,4.35-0.39c0.77-0.47,1.46-0.46,2.14,0.19c0.1,0.1,0.23,0.27,0.32,0.23
	c1.35-0.56,2.69,0.29,4.02,0.07c0.5-0.08,0.98-0.24,1.51-0.15c0.95,0.16,1.92,0.51,2.86-0.1c0.11-0.07,0.26-0.08,0.38-0.03
	c2,0.72,3.94,0.68,5.82-0.52c0.05-0.03,0.1-0.04,0.12-0.02c1.37,0.89,2.89,0.5,4.34,0.73c0.2,0.03,0.43,0.38,0.57,0.3
	c1.58-0.99,3.27,0.33,4.86-0.38c0.49-0.22,1-0.1,1.5,0.08c1.44,0.51,2.86,0.43,4.23-0.35c0.31-0.18,0.7-0.55,0.94-0.36
	c1.4,1.07,3.02,0.2,4.46,0.83c0.2,0.09,0.41,0.34,0.59,0.22c1.6-1.1,3.37,0.44,4.98-0.48c0.34-0.19,0.75,0,1.12,0.14
	c1.49,0.53,2.95,0.44,4.35-0.39c0.31-0.18,0.73-0.52,0.95-0.31c1.39,1.35,3.15-0.08,4.57,0.94c0.14,0.1-0.02,0.11,0.11,0.05
	c1.52-0.69,3.09,0.09,4.61-0.26c0.65-0.15,1.23-0.23,1.87,0c1.44,0.5,2.88,0.43,4.23-0.4c0.76-0.47,1.46-0.49,2.15,0.14
	c0.1,0.09,0.22,0.28,0.31,0.25c1.36-0.45,2.69,0.26,4.02,0.1c0.55-0.07,1.07-0.23,1.63-0.14c0.91,0.15,1.84,0.52,2.73-0.11
	c0.05-0.03,0.1-0.03,0.12-0.02c2.16,0.69,4.28,0.64,6.33-0.57c1.25,0.88,2.64,0.47,3.96,0.69c0.71,0.12,1.34,0.43,2.05,0.03
	c0.4-0.22,0.84-0.05,1.26,0c0.87,0.11,1.74,0.42,2.61-0.1c0.37-0.22,0.83-0.03,1.25,0.12c1.44,0.52,2.87,0.47,4.23-0.34
	c0.81-0.48,1.53-0.57,2.26,0.14c0.1,0.1,0.23,0.27,0.32,0.24c1.32-0.5,2.61,0.22,3.91,0.09c0.63-0.06,1.24-0.24,1.88-0.14
	c0.83,0.13,1.65,0.42,2.49-0.09c0.37-0.23,0.83-0.06,1.25,0.09c1.48,0.53,2.95,0.48,4.35-0.37c0.76-0.47,1.46-0.49,2.15,0.16
	c0.1,0.1,0.22,0.28,0.31,0.25c1.32-0.4,2.61,0.13,3.91,0.12c0.57,0,1.14-0.28,1.75-0.18c0.91,0.15,1.85-0.01,2.73,0.01
	C433.71,331.69,435.39,331.73,436.97,332.35z"/>
<path class="st2" d="M175.03,579.34c0.44,0,0.85-0.15,1.2-0.46c0.66-0.59,1.23-0.55,1.78,0.24c0.44,0.63,0.92,0.8,1.26-0.15
	c0.23-0.64,0.64-0.6,1.06-0.38c1.73,0.92,3.45,1.03,5.18,0.01c0.37-0.22,0.76-0.24,1,0.28c0.5,1.1,0.99,0.92,1.84,0.37
	c0.82-0.52,1.9-0.4,2.87-0.16c0.34,0.08,0.68,0.28,0.98,0.03c0.88-0.75,1.65-0.95,2.41,0.27c0.25,0.4,0.77,0.33,0.94-0.21
	c0.34-1.04,0.82-0.69,1.42-0.41c1.48,0.7,3.01,0.79,4.49,0.05c0.65-0.33,1.15-0.6,1.59,0.39c0.22,0.5,0.69,0.87,1.18,0.4
	c1.02-0.98,2.18-0.55,3.29-0.52c0.32,0.01,0.68,0.32,0.98,0.07c0.92-0.77,1.73-0.95,2.53,0.29c0.24,0.38,0.75,0.24,0.91-0.34
	c0.22-0.74,0.63-0.77,1.12-0.5c1.68,0.92,3.37,1.03,5.07,0.05c0.47-0.27,0.88-0.3,1.19,0.36c0.26,0.57,0.7,1.09,1.24,0.62
	c1.13-0.98,2.33-0.62,3.53-0.5c0.25,0.03,0.57,0.16,0.73,0.02c0.97-0.8,1.81-0.92,2.65,0.31c0.25,0.37,0.73,0.12,0.88-0.45
	c0.15-0.57,0.61-0.79,0.9-0.49c1.08,1.15,2.39,0.32,3.54,0.75c0.23,0.09,0.57,0.1,0.75-0.05c0.99-0.8,1.87-1.09,2.64,0.38
	c0.12,0.24,0.48,0.29,0.71,0.07c1.13-1.09,2.38-0.72,3.63-0.53c0.24,0.04,0.57,0.11,0.74-0.03c0.93-0.78,1.73-0.91,2.53,0.31
	c0.25,0.37,0.75,0.22,0.91-0.36c0.18-0.65,0.57-0.78,1.01-0.54c1.77,0.98,3.53,1.08,5.3,0.04c0.44-0.26,0.8-0.13,1.06,0.44
	c0.27,0.56,0.74,1.11,1.23,0.59c0.64-0.69,1.34-0.51,2.04-0.6c1.13-0.15,2.23,0.1,3.43-0.34c0.82-0.3,2.08,1.14,3.13-0.2
	c0.91,0.85,1.96,0.65,3.02,0.72c0.79,0.05,1.49,0.13,2.18-0.43c0.5-0.41,0.99-0.48,1.38,0.34c0.34,0.7,0.77,0.89,1.47,0.33
	c0.92-0.75,2.04-0.47,3.08-0.34c0.33,0.04,0.68,0.31,0.98,0.05c0.93-0.81,1.73-0.89,2.53,0.31c0.24,0.37,0.74,0.2,0.9-0.38
	c0.18-0.65,0.57-0.77,1.01-0.52c1.77,0.98,3.53,1.1,5.3,0.03c0.45-0.27,0.78-0.1,1.06,0.45c0.39,0.77,0.82,0.93,1.56,0.34
	c0.87-0.7,1.96-0.39,2.97-0.33c0.29,0.02,0.66,0.28,0.85,0.14c1-0.72,1.9-1.08,2.77,0.3c0.2,0.31,0.67,0.13,0.82-0.35
	c0.34-1.06,0.84-0.6,1.43-0.35c1.48,0.62,3.01,0.83,4.5,0.01c0.67-0.37,1.16-0.52,1.58,0.44c0.2,0.45,0.67,0.81,1.09,0.43
	c1.15-1.03,2.39-0.74,3.64-0.48c0.31,0.06,0.61,0.1,0.86-0.12c0.85-0.76,1.57-0.81,2.3,0.3c0.3,0.45,0.8,0.35,1-0.31
	c0.17-0.56,0.59-0.84,0.88-0.53c1.08,1.13,2.39,0.35,3.54,0.76c0.2,0.07,0.46,0.1,0.63-0.01c1.05-0.7,2.05-1.25,2.89,0.38
	c0.06,0.12,0.46,0.15,0.58,0.03c1.18-1.08,2.47-0.75,3.76-0.5c0.16,0.03,0.38,0.1,0.5,0c0.99-0.78,1.9-1.06,2.76,0.3
	c0.17,0.27,0.64,0.15,0.76-0.24c0.39-1.24,0.93-0.66,1.61-0.4c1.4,0.53,2.87,0.74,4.27,0c0.69-0.37,1.22-0.69,1.69,0.38
	c0.19,0.45,0.66,0.79,1.09,0.41c1.15-1.03,2.39-0.72,3.64-0.48c0.17,0.03,0.38,0.12,0.5,0.04c1.03-0.77,1.99-1.05,2.88,0.31
	c0.14,0.21,0.57,0.1,0.66-0.21c0.41-1.31,0.98-0.66,1.71-0.43c1.4,0.45,2.87,0.74,4.27-0.06c0.64-0.36,1.15-0.64,1.59,0.36
	c0.22,0.5,0.68,0.88,1.18,0.42c1.07-0.97,2.25-0.63,3.41-0.49c0.29,0.03,0.6,0.25,0.86,0.03c0.92-0.76,1.74-1,2.52,0.28
	c0.21,0.34,0.71,0.27,0.86-0.18c0.41-1.25,0.95-0.62,1.62-0.38c1.4,0.51,2.87,0.74,4.27-0.01c0.7-0.38,1.23-0.65,1.68,0.4
	c0.19,0.45,0.67,0.79,1.09,0.39c1.11-1.02,2.32-0.63,3.52-0.51c0.17,0.02,0.38,0.17,0.49,0.1c1.06-0.7,2.06-1.13,3.01,0.3
	c0.16,0.25,0.6,0.05,0.72-0.35c0.31-1.05,0.81-0.7,1.42-0.41c1.48,0.7,3.01,0.79,4.49,0.05c0.65-0.33,1.15-0.6,1.59,0.39
	c0.22,0.5,0.69,0.87,1.18,0.4c1.02-0.98,2.18-0.55,3.29-0.52c0.32,0.01,0.68,0.32,0.98,0.07c0.92-0.77,1.73-0.95,2.53,0.29
	c0.24,0.38,0.75,0.24,0.91-0.33c0.22-0.74,0.63-0.77,1.12-0.5c1.68,0.92,3.37,1.03,5.07,0.06c0.47-0.27,0.88-0.31,1.19,0.36
	c0.26,0.57,0.7,1.09,1.24,0.62c1.13-0.98,2.33-0.62,3.53-0.5c0.25,0.03,0.57,0.16,0.73,0.02c0.97-0.8,1.82-0.94,2.64,0.32
	c0.21,0.31,0.69,0.17,0.83-0.31c0.33-1.05,0.82-0.67,1.42-0.39c1.48,0.68,3.01,0.8,4.49,0.03c0.66-0.34,1.16-0.58,1.58,0.41
	c0.2,0.46,0.67,0.84,1.08,0.46c1.15-1.05,2.39-0.71,3.64-0.51c0.24,0.04,0.57,0.11,0.74-0.03c0.93-0.78,1.73-0.91,2.53,0.31
	c0.25,0.38,0.75,0.22,0.91-0.36c0.18-0.65,0.57-0.79,1.01-0.54c1.77,0.98,3.53,1.08,5.3,0.04c0.44-0.26,0.81-0.13,1.06,0.44
	c0.23,0.53,0.71,1.07,1.12,0.66c1.16-1.14,2.46-0.46,3.68-0.66c0,7.52,0,15.04,0,22.57c-0.75,0.93-1.61,1.02-2.67,0.95
	c-1.53-0.1-3.07-0.33-4.62-0.23c-1,0.06-2-0.13-3.01,0.05c-0.54,0.09-1.09,0.01-1.59,0.36c-0.15,0.1-0.38,0.21-0.49,0.12
	c-1.4-1.23-2.91-0.03-4.37-0.23c-1.21-0.17-2.49-0.33-3.76-0.15c-1.32,0.18-2.65-0.29-4-0.21c-1.21,0.07-2.42,0.04-3.6,0.41
	c-0.25,0.08-0.51,0.29-0.74,0.19c-2.33-1.08-4.74-0.05-7.13-0.37c-2.45-0.33-5-0.56-7.5-0.1c-1.12,0.2-2.15,0.7-3.28-0.15
	c-0.41-0.31-1.05,0.67-1.67,0.52c-2.28-0.58-4.6-0.19-6.9-0.48c-1.8-0.23-3.77-0.37-5.6,0.43c-0.16,0.07-0.38,0.23-0.48,0.14
	c-1.41-1.25-2.91-0.01-4.38-0.21c-1.22-0.16-2.5-0.36-3.76-0.15c-1.34,0.22-2.64-0.38-4.01-0.22c-1.24,0.14-2.5,0.02-3.72,0.44
	c-0.2,0.07-0.47,0.28-0.61,0.16c-1.41-1.22-2.91-0.04-4.38-0.23c-1.21-0.16-2.49-0.39-3.77-0.14c-1.28,0.26-2.55-0.37-3.88-0.22
	c-1.28,0.14-2.58,0-3.84,0.49c-0.16,0.06-0.38,0.21-0.49,0.11c-1.4-1.24-2.91-0.01-4.37-0.23c-1.2-0.18-2.49-0.38-3.76-0.14
	c-1.28,0.24-2.55-0.35-3.88-0.22c-1.28,0.12-2.58,0.01-3.84,0.47c-0.21,0.08-0.43,0.21-0.62,0.12c-2.33-1.08-4.74-0.06-7.13-0.37
	c-2.45-0.33-4.99-0.47-7.5-0.15c-0.53,0.07-1.05,0.67-1.44,0.47c-1.35-0.68-2.67-0.12-4.01-0.14c-1.46-0.02-2.92-0.26-4.39-0.16
	c-1.29,0.08-2.55-0.37-3.88-0.24c-1.24,0.12-2.5-0.04-3.72,0.44c-0.16,0.06-0.38,0.23-0.48,0.14c-1.41-1.15-2.91-0.08-4.37-0.22
	c-1.23-0.12-2.5-0.39-3.76-0.15c-0.42,0.08-0.85,0.06-1.27-0.01c-2.25-0.38-4.48-0.44-6.69,0.32c-0.12,0.04-0.29,0.13-0.37,0.06
	c-1.43-1.31-2.99-0.02-4.5-0.24c-1.18-0.17-2.48-0.37-3.77-0.15c-1.22,0.21-2.47-0.25-3.75-0.19c-1.3,0.06-2.58,0-3.84,0.46
	c-0.21,0.08-0.43,0.21-0.62,0.12c-2.33-1.06-4.74-0.05-7.14-0.38c-2.45-0.33-5-0.49-7.51-0.14c-0.34,0.05-0.67,0.12-0.98,0.31
	c-0.54,0.34-1.09,0.29-1.58-0.12c-0.48-0.41-0.9-0.47-1.4-0.07c-0.32,0.26-0.72,0.33-1.11,0.28c-1.76-0.25-3.53-0.12-5.28-0.28
	c-1.92-0.17-3.83-0.2-5.75-0.1c-0.43,0.02-0.85,0.01-1.23,0.28c-0.19,0.13-0.45,0.31-0.6,0.2c-1.41-1.1-2.92-0.09-4.37-0.22
	c-1.23-0.11-2.51-0.41-3.77-0.14c-0.38,0.08-0.77,0.07-1.15,0.01c-2.29-0.42-4.57-0.46-6.82,0.31c-0.08,0.03-0.19,0.09-0.25,0.05
	c-1.4-1.19-2.91-0.07-4.36-0.22c-1.23-0.13-2.5-0.39-3.76-0.15c-0.42,0.08-0.85,0.06-1.27-0.01c-2.25-0.36-4.48-0.45-6.69,0.32
	c-0.12,0.04-0.29,0.14-0.37,0.06c-1.43-1.3-2.99-0.04-4.49-0.24c-1.19-0.16-2.48-0.38-3.77-0.15c-1.22,0.22-2.47-0.27-3.75-0.19
	c-1.29,0.08-2.56,0.17-3.85,0.41c-1.3,0.24-2.62-0.65-3.98-0.14c-0.22,0.08-0.34-0.41-0.5-0.64
	C175.03,594.38,175.03,586.86,175.03,579.34z"/>
<path class="st3" d="M436.97,553.99c-1.15,0.57-2.53-0.18-3.62,1.02c-0.4,0.44-0.95-0.23-1.3-0.66c-0.63-0.76-1.24-0.87-1.86-0.04
	c-0.37,0.49-0.78,0.4-1.28,0.31c-1.48-0.26-2.91-0.51-4.48-0.32c-1.17,0.14-2.55,0.4-3.87-0.04c-0.98-0.33-2.24-0.34-3.07,0.35
	c-0.81,0.68-1.24,0.41-1.74-0.18c-0.66-0.77-1.28-1.02-1.96-0.11c-0.38,0.5-0.79,0.37-1.28,0.29c-1.48-0.25-2.91-0.5-4.48-0.32
	c-1.16,0.13-2.55,0.41-3.87-0.04c-0.97-0.33-2.24-0.35-3.06,0.37c-0.82,0.71-1.25,0.37-1.74-0.21c-0.67-0.78-1.28-0.98-1.96-0.08
	c-0.33,0.44-0.7,0.4-1.16,0.31c-1.52-0.31-3-0.5-4.6-0.35c-1.17,0.11-2.54,0.38-3.87-0.03c-1-0.3-2.28-0.39-3.26,0.54
	c-0.7,0.67-1.13,0.05-1.53-0.41c-0.68-0.79-1.3-0.93-1.97-0.04c-0.33,0.45-0.71,0.38-1.17,0.28c-1.52-0.32-3.01-0.45-4.6-0.34
	c-1.18,0.08-2.55,0.37-3.88-0.03c-0.98-0.3-2.27-0.4-3.25,0.55c-0.69,0.67-1.12,0.01-1.53-0.44c-0.63-0.71-1.22-0.96-1.87-0.11
	c-0.41,0.55-0.86,0.41-1.39,0.33c-1.44-0.22-2.87-1.1-4.34-0.12c-0.27,0.18-0.58,0.05-0.86-0.12c-0.23-0.13-0.53-0.38-0.7-0.29
	c-1.59,0.83-3.24-0.25-4.83,0.24c-0.2,0.06-0.49,0.05-0.59,0.21c-0.68,1.06-1.27,0.49-1.81-0.14c-0.63-0.73-1.23-0.93-1.86-0.08
	c-0.42,0.56-0.87,0.39-1.4,0.3c-1.44-0.24-2.87-1.05-4.35-0.11c-0.53,0.33-1.01-0.56-1.43-0.39c-1.69,0.71-3.51-0.49-5.05,0.32
	c-1.22,0.64-1.97,0.57-2.82-0.51c-0.13-0.17-0.61-0.23-0.7-0.1c-1.2,1.69-2.63,0.41-3.93,0.41c-0.8,0-1.58-0.37-2.34,0.23
	c-0.31,0.24-0.65,0.1-0.97-0.1c-0.22-0.13-0.54-0.36-0.7-0.27c-1.55,0.85-3.15-0.25-4.7,0.23c-0.2,0.06-0.5,0.01-0.61,0.16
	c-0.78,1.13-1.4,0.5-2.01-0.22c-0.56-0.65-1.12-0.72-1.67-0.02c-0.4,0.51-0.81,0.51-1.38,0.41c-1.47-0.28-2.91-0.51-4.48-0.33
	c-1.16,0.14-2.55,0.41-3.87-0.04c-0.97-0.33-2.24-0.34-3.06,0.36c-0.81,0.7-1.24,0.39-1.74-0.19c-0.66-0.78-1.28-1-1.96-0.09
	c-0.33,0.44-0.7,0.41-1.16,0.32c-1.52-0.31-2.99-0.52-4.6-0.35c-1.16,0.12-2.55,0.42-3.87-0.04c-0.91-0.31-2.2-0.27-2.95,0.31
	c-0.92,0.71-1.37,0.43-1.95-0.26c-0.59-0.7-1.17-0.82-1.77-0.06c-0.36,0.46-0.74,0.52-1.26,0.4c-1.52-0.34-3.01-0.47-4.6-0.35
	c-1.18,0.09-2.54,0.39-3.88-0.03c-0.98-0.31-2.28-0.4-3.25,0.55c-0.63,0.62-1.06,0.1-1.44-0.33c-0.69-0.8-1.33-1.12-2.06-0.13
	c-0.38,0.52-0.82,0.3-1.29,0.23c-1.44-0.2-2.87-1.1-4.35-0.12c-0.27,0.18-0.58,0.06-0.86-0.11c-0.23-0.13-0.53-0.38-0.7-0.3
	c-1.59,0.83-3.24-0.24-4.83,0.24c-0.2,0.06-0.49,0.05-0.59,0.2c-0.67,1.05-1.26,0.51-1.81-0.13c-0.62-0.73-1.22-0.95-1.86-0.1
	c-0.42,0.55-0.86,0.4-1.39,0.31c-1.44-0.23-2.87-1.07-4.34-0.11c-0.27,0.18-0.58,0.04-0.86-0.13c-0.23-0.13-0.53-0.38-0.7-0.29
	c-1.55,0.83-3.15-0.22-4.7,0.23c-0.24,0.07-0.6,0.04-0.72,0.23c-0.62,0.97-1.2,0.56-1.71-0.06c-0.7-0.85-1.35-1.03-2.06-0.07
	c-0.39,0.53-0.83,0.25-1.3,0.18c-1.44-0.21-2.84-0.45-4.36-0.28c-1.17,0.13-2.55,0.34-3.87-0.03c-1.02-0.29-2.27-0.38-3.17,0.41
	c-0.7,0.62-1.11,0.36-1.54-0.14c-0.72-0.85-1.39-1.2-2.16-0.13c-0.34,0.47-0.75,0.27-1.18,0.2c-1.48-0.24-2.91-0.5-4.48-0.32
	c-1.17,0.14-2.55,0.4-3.87-0.04c-0.98-0.33-2.24-0.34-3.07,0.36c-0.81,0.69-1.24,0.4-1.74-0.18c-0.66-0.77-1.28-1.02-1.96-0.1
	c-0.38,0.5-0.79,0.37-1.28,0.29c-1.48-0.25-2.91-0.49-4.48-0.32c-1.16,0.13-2.55,0.4-3.87-0.04c-0.92-0.3-2.19-0.27-2.95,0.3
	c-0.91,0.69-1.37,0.45-1.95-0.25c-0.65-0.78-1.25-0.78-1.86,0.03c-0.33,0.44-0.7,0.4-1.16,0.31c-1.52-0.32-2.99-0.54-4.6-0.33
	c-1.19,0.15-2.52,0.25-3.78,0.29c0-7.52,0-15.04,0-22.57c0.46-0.92,1.13-1.33,2.02-1.29c0.6,0.03,1.17-0.13,1.74-0.42
	c0.48-0.24,1.11-0.39,1.47,0.05c0.82,1,1.56,0.63,2.49,0.26c0.95-0.37,2.03-0.09,3.01,0.14c0.67,0.16,1.32,0.15,1.97,0.25
	c1.84,0.28,3.63-0.35,5.45-0.27c0.68,0.03,1.35-0.08,1.99-0.44c0.43-0.24,1.04-0.39,1.35,0c0.9,1.13,1.75,0.72,2.73,0.26
	c0.72-0.33,1.58-0.09,2.26,0.11c1.2,0.36,2.43,0.13,3.6,0.56c0.16,0.06,0.35,0.19,0.49,0.08c1.29-1.04,2.75-0.12,4.1-0.55
	c0.56-0.18,1.17-0.12,1.74-0.41c0.7-0.36,1.41-0.33,2.02,0.36c0.27,0.31,0.57,0.71,1,0.42c1.59-1.07,3.17-0.33,4.8-0.18
	c1.14,0.1,2.37,0.7,3.56-0.05c0.79-0.5,1.64,0.23,2.51-0.04c0.93-0.29,1.93-0.17,2.87-0.63c0.57-0.28,1.18-0.08,1.64,0.49
	c0.41,0.5,0.83,0.61,1.36,0.18c0.55-0.45,1.18-0.45,1.84-0.35c1.66,0.24,3.33,0.37,4.97,0.75c0.28,0.06,0.5-0.05,0.72-0.2
	c1.09-0.75,2.16,0.02,3.23,0.12c0.45,0.04,0.64,0.63,0.59,1.21c-0.42,1.57-0.39,1.65,0.97,1.65c11.1,0.01,22.2,0,33.29,0.02
	c1.19,0,2.04-0.47,2.66-1.69c0.33-0.65,0.65-1.34,1.26-1.69c1.38-0.25,2.7-0.22,4.13,0.16c1.04,0.28,2.34,0.58,3.57-0.15
	c0.93-0.55,2.06,0.18,3.13-0.23c0.67-0.26,1.43-0.23,2.13-0.47c0.38-0.13,0.85-0.24,1.11,0.06c0.9,1.02,1.76,0.72,2.76,0.25
	c0.66-0.31,1.49-0.09,2.14,0.17c1.19,0.47,2.41,0.34,3.6,0.6c0.17,0.04,0.34,0.16,0.5,0.08c2.03-1.01,4.28-0.3,6.34-1.16
	c0.6-0.25,1.19-0.04,1.66,0.49c0.3,0.33,0.6,0.68,1,0.34c1.15-0.99,2.41-0.53,3.59-0.31c0.82,0.15,1.59,0.42,2.46,0.41
	c2.47-0.03,4.9-0.34,7.33-0.85c0.42-0.09,0.93-0.36,1.24-0.05c0.96,0.96,1.94,0.93,3.02,0.44c0.15-0.07,0.33,0.06,0.49,0.14
	c0.58,0.54,1.11,1.13,1.49,1.89c0.56,1.13,1.36,1.57,2.45,1.57c11.08-0.01,22.17-0.01,33.25-0.01c1.32,0,1.33-0.04,0.97-1.7
	c0.3-1.47,0.83-2.07,1.91-1.86c1.42,0.27,2.79-0.09,4.15-0.4c0.89-0.2,1.68-0.31,2.33,0.63c0.2,0.28,0.41,0.5,0.75,0.15
	c1.32-1.35,2.77-0.47,4.16-0.24c1.35,0.23,2.7,0.68,4.04-0.01c0.85-0.44,1.66,0.23,2.52-0.04c1.06-0.34,2.2-0.22,3.27-0.65
	c0.08-0.03,0.2-0.06,0.25-0.01c1.53,1.56,3.24-0.03,4.85,0.4c1.39,0.37,2.8,0.63,4.23,0.71c0.12,0.01,0.26,0.1,0.38,0.04
	c2.08-1.01,4.37-0.23,6.47-1.1c0.33-0.14,0.77-0.2,0.99,0.06c0.9,1.03,1.8,0.69,2.75,0.18c0.27-0.14,0.59-0.07,0.89-0.01
	c1.61,0.34,3.23,0.7,4.87,0.82c0.12,0.01,0.26,0.12,0.37,0.06c2.08-1.03,4.38-0.22,6.47-1.1c0.37-0.16,0.89-0.23,1.11,0.09
	c0.85,1.21,1.68,0.7,2.57,0.16c0.3-0.18,0.67-0.11,1.01-0.03c1.61,0.36,3.23,0.64,4.86,0.85c0.43,0.06,0.73-0.15,1.08-0.33
	c0.6-0.31,1.16-0.32,1.62,0.34C436.97,538.74,436.97,546.37,436.97,553.99z"/>
<path class="st4" d="M436.97,332.35c-1.3,0.47-2.59,0.48-3.88-0.02c-0.28-0.11-0.71-0.33-0.84-0.19c-1.06,1.18-2.14,0.22-3.21,0.14
	c-0.25-0.02-0.59-0.16-0.74-0.01c-0.81,0.82-1.53,1.18-2.3-0.11c-0.22-0.37-0.68-0.14-1.05,0.12c-0.72,0.51-1.44,0.66-2-0.37
	c-0.34-0.62-0.77-0.47-1.23-0.15c-1.65,1.18-3.39,1.18-5.17,0.49c-0.24-0.09-0.61-0.24-0.73-0.1c-0.92,1.05-1.88,0.42-2.83,0.18
	c-0.65-0.17-1.24-0.2-1.76,0.47c-0.4,0.51-0.81,0.42-1.16-0.18c-0.41-0.69-0.9-0.78-1.54-0.3c-0.65,0.49-1.37,0.64-1.9-0.33
	c-0.38-0.68-0.82-0.55-1.32-0.2c-1.61,1.15-3.31,1.12-5.05,0.5c-0.28-0.1-0.72-0.28-0.84-0.13c-0.88,1.07-1.8,0.4-2.71,0.18
	c-0.69-0.17-1.32-0.23-1.88,0.5c-0.34,0.44-0.76,0.41-1.07-0.15c-0.5-0.87-1.05-0.79-1.75-0.28c-0.52,0.38-1.2,0.5-1.61-0.23
	c-0.49-0.87-0.95-0.73-1.61-0.29c-1.54,1.04-3.17,1-4.82,0.43c-0.28-0.1-0.71-0.32-0.84-0.18c-1.06,1.2-2.15,0.22-3.21,0.12
	c-0.3-0.03-0.64-0.2-0.86,0.06c-0.74,0.86-1.36,1.06-2.07-0.1c-0.26-0.43-0.74-0.23-1.16,0.07c-0.72,0.52-1.44,0.63-1.99-0.4
	c-0.29-0.54-0.7-0.5-1.12-0.2c-1.73,1.26-3.54,1.28-5.4,0.5c-0.19-0.08-0.51-0.16-0.61-0.05c-0.91,1.1-1.88,0.37-2.83,0.19
	c-0.13-0.02-0.27,0-0.38-0.08c-0.94-0.67-1.54,1.7-2.34,0.54c-0.85-1.24-1.53-0.52-2.34-0.2c-0.41,0.16-0.89,0.13-1.15-0.38
	c-0.44-0.87-0.92-0.82-1.6-0.34c-1.53,1.07-3.17,1.02-4.82,0.45c-0.33-0.11-0.75-0.43-0.97-0.16c-0.84,1.02-1.7,0.43-2.58,0.2
	c-0.71-0.19-1.41-0.32-2,0.49c-0.33,0.46-0.75,0.38-1.07-0.17c-0.45-0.77-0.96-0.83-1.64-0.33c-0.67,0.49-1.37,0.54-1.89-0.42
	c-0.33-0.62-0.77-0.5-1.22-0.17c-1.65,1.2-3.39,1.18-5.17,0.5c-0.24-0.09-0.61-0.24-0.73-0.11c-1.01,1.14-2.14,0.52-3.06,0.09
	c-1.09-0.51-1.71,1.67-2.49,0.59c-0.86-1.2-1.51-0.59-2.33-0.24c-0.45,0.19-0.95,0.13-1.25-0.46c-0.42-0.84-0.9-0.69-1.51-0.27
	c-1.58,1.08-3.24,1.06-4.94,0.44c-0.28-0.1-0.72-0.29-0.84-0.14c-0.88,1.03-1.79,0.43-2.71,0.19c-0.68-0.18-1.32-0.26-1.88,0.48
	c-0.33,0.44-0.75,0.45-1.08-0.12c-0.49-0.87-1.04-0.82-1.75-0.3c-0.56,0.41-1.25,0.5-1.7-0.32c-0.41-0.74-0.85-0.67-1.41-0.27
	c-1.61,1.14-3.32,1.11-5.05,0.46c-0.24-0.09-0.61-0.26-0.73-0.13c-1.05,1.18-2.14,0.22-3.21,0.14c-0.25-0.02-0.59-0.16-0.74-0.01
	c-0.82,0.82-1.53,1.18-2.3-0.11c-0.22-0.37-0.68-0.13-1.05,0.13c-0.72,0.51-1.44,0.65-2-0.37c-0.34-0.62-0.78-0.47-1.23-0.15
	c-1.65,1.18-3.39,1.18-5.17,0.49c-0.24-0.09-0.62-0.23-0.73-0.1c-0.96,1.14-1.97,0.26-2.96,0.17c-0.08-0.01-0.18-0.01-0.25-0.06
	c-0.95-0.69-1.55,1.68-2.34,0.55c-0.85-1.23-1.52-0.55-2.34-0.22c-0.45,0.18-0.95,0.11-1.24-0.48c-0.43-0.85-0.91-0.66-1.51-0.24
	c-1.53,1.07-3.17,1.01-4.82,0.46c-0.33-0.11-0.75-0.44-0.97-0.17c-0.89,1.07-1.8,0.38-2.7,0.19c-0.25-0.05-0.56-0.24-0.75-0.13
	c-1.05,0.62-2.04,1.18-3.04-0.18c-0.19-0.26-0.53,0.17-0.79,0.32c-0.71,0.4-1.38,0.55-1.9-0.41c-0.38-0.7-0.84-0.46-1.33-0.12
	c-1.58,1.11-3.24,1.08-4.94,0.5c-0.28-0.1-0.71-0.32-0.84-0.18c-1.06,1.2-2.15,0.21-3.21,0.12c-0.3-0.03-0.64-0.2-0.86,0.06
	c-0.74,0.86-1.36,1.06-2.07-0.1c-0.26-0.43-0.74-0.23-1.16,0.07c-0.72,0.52-1.44,0.63-1.99-0.4c-0.29-0.54-0.7-0.5-1.12-0.2
	c-1.73,1.26-3.54,1.28-5.4,0.5c-0.19-0.08-0.51-0.16-0.61-0.05c-0.91,1.1-1.88,0.37-2.83,0.19c-0.13-0.02-0.27,0-0.38-0.08
	c-0.94-0.67-1.54,1.7-2.34,0.54c-0.85-1.24-1.53-0.52-2.34-0.2c-0.41,0.16-0.89,0.13-1.15-0.38c-0.44-0.88-0.92-0.81-1.6-0.34
	c-1.53,1.07-3.17,1-4.82,0.46c-0.28-0.09-0.71-0.34-0.84-0.2c-1.11,1.2-2.23,0.19-3.34,0.11c-0.13-0.01-0.29-0.11-0.37-0.05
	c-0.96,0.78-1.87,1.14-2.78-0.14c-0.16-0.22-0.47-0.03-0.71,0.14c-0.82,0.61-1.56,0.75-2.2-0.39c-0.3-0.54-0.74-0.34-1.14-0.06
	c-1.65,1.19-3.39,1.18-5.17,0.5c-0.24-0.09-0.61-0.24-0.73-0.11c-1.01,1.16-2.14,0.51-3.06,0.09c-1.09-0.5-1.7,1.68-2.49,0.59
	c-0.86-1.2-1.51-0.59-2.33-0.23c-0.45,0.19-0.95,0.12-1.24-0.46c-0.42-0.84-0.9-0.68-1.51-0.27c-1.58,1.08-3.24,1.06-4.94,0.44
	c-0.28-0.1-0.72-0.29-0.84-0.14c-0.88,1.04-1.8,0.42-2.71,0.19c-0.68-0.18-1.32-0.26-1.88,0.48c-0.33,0.44-0.75,0.44-1.07-0.12
	c-0.49-0.87-1.05-0.84-1.75-0.29c-0.44,0.35-1.14,0.51-1.42-0.01c-0.74-1.35-1.45-0.83-2.25-0.22c-0.14,0.1-0.32,0.12-0.49,0.17
	c0-7.21,0-14.43,0-21.64c1.69-1.11,3.49-0.85,5.27-0.58c0.81,0.12,1.64-0.06,2.39,0.07c1.36,0.24,2.57-0.33,3.8-0.45
	c1.53-0.15,3.12,0.3,4.76,0.08c0.82-0.11,1.74,0.49,2.66-0.04c0.49-0.28,1,0.13,1.49,0.26c1.77,0.46,3.63-0.3,5.38,0.56
	c0.34,0.17,0.74-0.17,1.05-0.47c0.75-0.73,1.54-0.79,2.38-0.25c0.72,0.46,1.44,0.62,2.17,0.02c0.21-0.17,0.5-0.33,0.73-0.23
	c1.99,0.89,4.08-0.19,6.08,0.46c0.71,0.23,1.47-0.05,2.14,0.08c1.45,0.29,2.77,0.26,4.05-0.65c0.23-0.17,0.61-0.04,0.87,0.14
	c0.91,0.63,1.82,0.88,2.76,0.08c0.13-0.11,0.34-0.18,0.49-0.12c2.03,0.87,4.17-0.18,6.21,0.5c0.63,0.21,1.28-0.01,1.9,0.06
	c1.45,0.18,2.85,0.32,4.17-0.67c0.22-0.17,0.6-0.03,0.86,0.15c0.91,0.64,1.82,0.86,2.76,0.07c0.14-0.11,0.35-0.18,0.49-0.11
	c1.99,0.85,4.08-0.15,6.08,0.47c0.72,0.22,1.46-0.05,2.14,0.07c1.39,0.25,2.63-0.28,3.93-0.48c1.45-0.23,3.04,0.17,4.62,0.09
	c2.63-0.14,5.31,0.13,7.95,0.39c1.38,0.13,2.57-0.4,3.8-0.49c1.5-0.11,3.07,0.72,4.63-0.02c1.25,1.26,2.59-0.16,3.93,0.2
	c1.28,0.35,2.69,0.27,4.03,0.35c1.37,0.07,2.55-0.41,3.8-0.54c1.45-0.14,2.98,0.8,4.5-0.04c1.59,1.14,3.31-0.35,4.94,0.37
	c1.53,0.68,3.21-0.42,4.74,0.56c0.3,0.19,0.69-0.07,0.95-0.33c0.86-0.87,1.74-0.94,2.72-0.29c0.63,0.41,1.29,0.5,1.94-0.04
	c0.25-0.2,0.58-0.39,0.85-0.27c1.99,0.9,4.08-0.15,6.08,0.48c0.67,0.21,1.37-0.03,2.02,0.08c1.47,0.23,2.79-0.33,4.18-0.53
	c1.33-0.19,2.8,0.87,4.24-0.04c1.55,1.14,3.22-0.3,4.81,0.37c1.61,0.67,3.37-0.32,4.99,0.57c0.38,0.21,0.81-0.19,1.16-0.51
	c0.72-0.69,1.48-0.72,2.27-0.22c0.77,0.49,1.52,0.65,2.29,0c0.21-0.17,0.51-0.3,0.73-0.2c1.99,0.92,4.08-0.15,6.08,0.48
	c0.67,0.21,1.37-0.02,2.02,0.07c1.41,0.18,2.7-0.23,4.05-0.49c1.39-0.26,2.92,0.34,4.5,0.08c0.92-0.15,1.97,0.35,3.04-0.02
	c0.64-0.22,1.45,0.1,2.11,0.33c1.49,0.5,3.05-0.51,4.5,0.48c0.35,0.24,0.8-0.2,1.15-0.52c0.72-0.67,1.48-0.72,2.27-0.21
	c0.77,0.5,1.52,0.63,2.29,0c0.21-0.17,0.51-0.31,0.73-0.2c1.99,0.95,4.08-0.24,6.08,0.48c0.67,0.24,1.38-0.04,2.01,0.08
	c1.48,0.28,2.8-0.37,4.18-0.53c1.35-0.15,2.8,0.86,4.24-0.04c1.5,1.15,3.13-0.29,4.68,0.36c1.65,0.68,3.45-0.33,5.12,0.58
	c0.34,0.19,0.75-0.15,1.05-0.44c0.8-0.78,1.61-0.78,2.5-0.21c0.67,0.43,1.36,0.55,2.05-0.02c0.25-0.2,0.58-0.37,0.85-0.26
	c2.11,0.86,4.34-0.16,6.46,0.58c0.49,0.17,1.03-0.06,1.52-0.01c1.44,0.15,2.86,0.42,4.16-0.68c0.12-0.1,0.35-0.07,0.5,0.02
	c1.15,0.71,2.3,0.95,3.5,0.11c0.21-0.15,0.53-0.09,0.75,0.06c0.81,0.53,1.55,0.43,2.44,0.1c0.96-0.35,2,0.23,3.01,0.31
	c0.72,0.06,1.46-0.06,2.14,0.06c1.43,0.26,2.76,0.32,4.05-0.65c0.26-0.2,0.68-0.02,0.98,0.19c0.83,0.56,1.63,0.78,2.53,0.12
	c0.5-0.37,0.99-0.16,1.28,0.51C436.97,317.72,436.97,325.04,436.97,332.35z"/>
<path class="st5" d="M175.03,356.78c1.91-1.02,3.68,0.89,5.57,0.37c1.52-0.42,2.99-0.33,4.55,0.12c1.55,0.44,3.21-0.41,4.86,0.21
	c0.76,0.28,1.43-0.74,2.23-0.95c0.59-0.16,1.11-0.57,1.58,0.24c0.19,0.32,0.53,0.36,0.82,0.31c1.38-0.27,2.87,0.78,4.17-0.49
	c0.1-0.1,0.36-0.1,0.49-0.02c1.88,1.21,3.9,0.33,5.81,0.65c1.42,0.23,2.51-0.26,3.71-0.77c0.32-0.14,0.64-0.35,0.98-0.12
	c1.7,1.19,3.45,1.16,5.24,0.32c0.19-0.09,0.46-0.18,0.61-0.08c1.88,1.18,3.91,0.33,5.81,0.65c1.48,0.25,2.6-0.3,3.83-0.82
	c0.29-0.12,0.57-0.28,0.86-0.08c1.75,1.2,3.53,1.24,5.35,0.28c0.15-0.08,0.37-0.12,0.5-0.04c1.92,1.19,4,0.31,5.94,0.67
	c1.41,0.26,2.43-0.3,3.59-0.77c0.52-0.21,0.96-0.4,1.36,0.26c0.26,0.43,0.69,0.42,1.06,0.36c1.34-0.23,2.79,0.76,4.04-0.51
	c0.1-0.1,0.36-0.08,0.49,0.01c1.8,1.16,3.73,0.34,5.56,0.63c1.53,0.24,2.77-0.21,4.08-0.83c0.22-0.1,0.61-0.19,0.72-0.05
	c1.25,1.49,2.89,0.34,4.25,0.98c1.9-1.6,3.77,0.61,5.67,0.05c1.79-0.52,3.76,0.57,5.48-0.85c0.43-0.36,0.95-0.5,1.36,0.17
	c0.23,0.38,0.58,0.46,0.92,0.39c1.38-0.27,2.87,0.79,4.17-0.5c0.1-0.1,0.36-0.09,0.49-0.01c1.84,1.18,3.82,0.35,5.68,0.64
	c1.51,0.24,2.68-0.26,3.96-0.82c0.23-0.1,0.61-0.22,0.72-0.09c1.2,1.49,2.96,1.14,4.08,0.79c1.49-0.46,2.64,0.06,3.96,0.23
	c1.69,0.22,3.39-0.38,5.13,0.13c0.67,0.2,1.56-0.63,2.34-1c0.32-0.15,0.64-0.35,0.98-0.12c1.7,1.19,3.45,1.16,5.24,0.32
	c0.19-0.09,0.46-0.18,0.61-0.08c1.88,1.18,3.91,0.33,5.81,0.65c1.48,0.25,2.6-0.3,3.83-0.82c0.29-0.12,0.57-0.27,0.86-0.08
	c1.75,1.2,3.53,1.24,5.35,0.28c0.15-0.08,0.37-0.12,0.5-0.04c1.92,1.19,4,0.31,5.94,0.67c1.4,0.26,2.43-0.3,3.59-0.77
	c0.52-0.21,0.96-0.4,1.36,0.26c0.26,0.43,0.69,0.42,1.06,0.36c1.34-0.23,2.79,0.76,4.04-0.51c0.1-0.1,0.36-0.08,0.49,0.01
	c1.8,1.16,3.73,0.35,5.56,0.63c1.53,0.23,2.77-0.2,4.08-0.83c0.22-0.11,0.61-0.19,0.72-0.05c1.25,1.49,2.89,0.34,4.25,0.98
	c1.9-1.6,3.77,0.61,5.67,0.05c1.79-0.52,3.76,0.57,5.48-0.85c0.44-0.36,0.95-0.5,1.36,0.18c0.23,0.38,0.58,0.46,0.92,0.39
	c1.38-0.27,2.87,0.79,4.17-0.5c0.1-0.1,0.36-0.09,0.49-0.01c1.84,1.18,3.82,0.34,5.68,0.64c1.51,0.24,2.68-0.26,3.96-0.82
	c0.23-0.1,0.61-0.22,0.72-0.09c1.2,1.49,2.88,1.02,4.1,0.81c1.36-0.23,2.51-0.07,3.81,0.18c1.71,0.32,3.47-0.34,5.25,0.16
	c0.68,0.19,1.56-0.63,2.34-1.01c0.32-0.15,0.64-0.35,0.98-0.12c1.7,1.19,3.45,1.16,5.24,0.32c0.19-0.09,0.46-0.18,0.61-0.08
	c1.88,1.18,3.9,0.34,5.81,0.65c1.47,0.24,2.6-0.29,3.83-0.82c0.28-0.12,0.57-0.27,0.86-0.08c1.75,1.2,3.53,1.24,5.35,0.27
	c0.15-0.08,0.37-0.12,0.5-0.04c1.92,1.19,3.95,0.57,5.95,0.59c0.85,0.01,1.7,0.55,2.55-0.06c0,6.9,0,13.81,0,20.71
	c-1,0.9-1.92,2.19-3.34,0.95c-1.17,0.6-2.53-0.78-3.65,0.49c-0.04,0.05-0.1,0.06-0.12,0.05c-1.22-0.7-2.38,0.01-3.56,0.23
	c-0.32,0.06-0.71-0.12-0.95-0.39c-0.79-0.89-1.56-0.8-2.41-0.12c-0.74,0.59-1.51,0.63-2.27-0.02c-0.21-0.18-0.51-0.42-0.7-0.31
	c-1.76,0.99-3.49-0.02-5.23-0.08c-0.22-0.01-0.42,0.08-0.59,0.25c-0.2,0.2-0.49,0.51-0.66,0.41c-1.69-1.04-3.68,1.41-5.3-0.7
	c-0.41-0.53-0.98,0.04-1.4,0.34c-0.88,0.61-1.74,0.82-2.62,0.02c-0.17-0.16-0.43-0.32-0.59-0.23c-1.76,0.96-3.49,0.01-5.23-0.08
	c-0.22-0.01-0.41,0.09-0.58,0.26c-0.2,0.2-0.49,0.51-0.66,0.4c-1.69-1.01-3.68,1.39-5.29-0.72c-0.37-0.48-0.9,0.01-1.29,0.28
	c-0.91,0.64-1.8,0.94-2.73,0.07c-0.17-0.16-0.43-0.32-0.6-0.22c-1.76,1.01-3.49-0.01-5.23-0.08c-0.22-0.01-0.41,0.11-0.58,0.27
	c-0.17,0.16-0.41,0.44-0.55,0.35c-1.7-1.02-3.66,1.43-5.29-0.62c-0.44-0.56-0.97-0.08-1.4,0.23c-0.91,0.64-1.8,0.92-2.73,0.06
	c-0.27-0.25-0.62-0.31-0.98-0.17c-1.61,0.62-1.61,0.61-2.61-1.04c-0.52-0.48-1.13-0.41-1.72-0.41c-11.03-0.01-22.06,0-33.1-0.02
	c-1.21,0-2.18,0.31-2.8,1.66c-0.16,0.36-0.42,0.65-0.72,0.85c-0.83,0.23-1.51-0.14-2.03-0.87c-0.64-0.9-1.36-0.97-2.16-0.46
	c-0.96,0.61-1.87,0.74-2.91,0.11c-1.24-0.75-2.57-0.14-3.85-0.03c-0.51,0.04-1.01,0.19-1.51-0.01c-0.38-0.15-0.74-0.26-1.09,0.06
	c-0.66,0.61-1.3,0.72-1.93-0.07c-0.34-0.43-0.61-0.11-0.86,0.18c-0.76,0.88-1.48,0.84-2.22-0.07c-0.6-0.75-1.32-0.6-2-0.19
	c-0.97,0.6-1.89,0.76-2.91,0.11c-1.2-0.76-2.49-0.1-3.74-0.07c-0.58,0.02-1.16,0.24-1.75-0.01c-0.34-0.15-0.67-0.18-0.97,0.09
	c-0.66,0.6-1.29,0.75-1.92-0.07c-0.34-0.44-0.6-0.14-0.85,0.17c-0.74,0.9-1.48,0.89-2.23,0.01c-0.65-0.77-1.38-0.65-2.11-0.19
	c-0.92,0.59-1.8,0.69-2.79,0.08c-1.24-0.76-2.57-0.09-3.86-0.07c-0.2,0-0.43,0.2-0.62,0.13c-1.09-0.4-2.13-0.06-3.17,0.3
	c-1.44-1.87-3.32-1.67-5.19-1.66c-10.23,0.03-20.45,0.01-30.68,0.02c-0.75,0-1.56-0.21-2.13,0.67c-1.08,1.24-2.22,2.14-3.71,0.87
	c-0.14-0.12-0.35-0.23-0.48-0.15c-1.71,1.02-3.4,0.03-5.1-0.07c-0.27-0.02-0.5,0.06-0.71,0.27c-0.2,0.2-0.5,0.51-0.66,0.4
	c-1.67-1.17-3.68,1.43-5.27-0.72c-0.32-0.44-0.82-0.06-1.18,0.21c-0.98,0.73-1.95,1.03-2.96,0.08c-0.13-0.12-0.35-0.24-0.48-0.16
	c-1.76,0.99-3.48-0.01-5.22-0.08c-0.27-0.01-0.48,0.15-0.69,0.35c-0.2,0.19-0.49,0.46-0.68,0.35c-1.16-0.71-2.21-0.11-3.3,0.23
	c-0.4,0.12-0.89-0.12-1.19-0.46c-0.78-0.91-1.51-0.64-2.3-0.04c-0.75,0.57-1.51,0.64-2.27-0.01c-0.21-0.18-0.53-0.44-0.69-0.31
	c-1.07,0.79-2.14,0.29-3.23,0.15c-0.49-0.06-1.02,0.1-1.5-0.12c-0.49-0.22-0.9-0.14-1.29,0.28c-0.19,0.21-0.5,0.43-0.7,0.3
	c-1.07-0.69-2.03-0.2-3.05,0.21c-0.48,0.19-1.05-0.11-1.42-0.52c-0.71-0.78-1.36-0.62-2.07-0.07c-0.82,0.64-1.66,0.77-2.49,0.01
	c-0.17-0.16-0.45-0.35-0.58-0.25c-1.1,0.83-2.22,0.24-3.34,0.17c-0.46-0.03-0.93,0.05-1.38-0.12c-0.28-0.11-0.62-0.34-0.86-0.1
	c-0.8,0.8-1.58,0.87-2.44,0.13c-0.23-0.2-0.47,0.06-0.68,0.26c-0.83,0.81-1.74,0.69-2.47-0.02c-0.8-0.78-1.42-0.54-2.19-0.05
	c-1.35,0.86-1.67,0.71-2.43-0.86C175.03,370.99,175.03,363.88,175.03,356.78z"/>
<path class="st6" d="M436.97,310.41c-0.36-0.19-0.77-0.45-1.05,0.01c-0.88,1.41-1.84,0.6-2.71,0.11c-0.7-0.39-1.24-0.6-1.82,0.19
	c-0.38,0.52-0.96,0.64-1.49,0.82c-0.2,0.07-0.59,0.1-0.61,0.05c-0.38-1.61-1.3-0.52-1.94-0.52c-0.9-0.01-1.85-0.09-2.64-0.37
	c-1.53-0.53-3.16,1.17-4.56-0.46c-0.14-0.16-0.45-0.07-0.58,0.15c-0.85,1.38-1.84,0.7-2.71,0.16c-0.75-0.46-1.31-0.58-1.92,0.23
	c-0.38,0.5-0.98,0.6-1.51,0.78c-0.16,0.05-0.47,0.08-0.49,0.03c-0.44-1.56-1.38-0.51-2.06-0.53c-0.93-0.03-2.01-0.01-2.74-0.34
	c-1.47-0.66-3.03,1.26-4.33-0.46c-0.13-0.18-0.45-0.11-0.58,0.1c-0.9,1.45-1.9,0.7-2.82,0.14c-0.71-0.44-1.24-0.49-1.81,0.26
	c-0.39,0.51-0.97,0.62-1.5,0.8c-0.2,0.07-0.6,0.08-0.61,0.03c-0.35-1.79-1.31-0.33-1.95-0.52c-0.81-0.23-1.68-0.18-2.52-0.3
	c-0.98-0.14-1.93-0.32-2.9,0.22c-0.37,0.21-0.84-0.11-1.19-0.41c-0.53-0.47-0.91-0.44-1.42,0.19c-0.73,0.89-1.62,0.31-2.33-0.16
	c-0.79-0.52-1.37-0.63-2.03,0.23c-0.38,0.5-0.98,0.59-1.52,0.75c-0.16,0.05-0.36,0.07-0.5,0.01c-0.76-0.34-3.63-0.79-4.45-0.84
	c-0.98-0.06-1.93-0.35-2.9,0.23c-0.4,0.24-0.9-0.14-1.3-0.46c-0.33-0.26-0.73-0.56-1.03-0.1c-0.88,1.36-1.85,0.67-2.72,0.13
	c-0.76-0.47-1.31-0.54-1.92,0.26c-0.38,0.5-0.98,0.6-1.51,0.77c-0.16,0.05-0.48,0.07-0.49,0.03c-0.34-1.46-1.18-0.5-1.81-0.57
	c-0.84-0.09-1.74-0.01-2.52-0.32c-1.59-0.64-3.29,1.11-4.8-0.45c-0.15-0.16-0.45-0.09-0.59,0.12c-0.9,1.43-1.9,0.67-2.82,0.12
	c-0.65-0.38-1.17-0.55-1.71,0.18c-0.42,0.56-1.03,0.69-1.61,0.89c-0.16,0.06-0.47,0.09-0.49,0.04c-0.45-1.51-1.38-0.54-2.06-0.54
	c-0.94,0-1.87-0.2-2.77-0.33c-0.91-0.13-1.68-0.12-2.53,0.25c-0.49,0.21-1-0.15-1.43-0.5c-0.29-0.24-0.68-0.5-0.93-0.12
	c-0.97,1.48-1.97,0.68-2.94,0.09c-0.6-0.37-1.1-0.47-1.6,0.2c-0.42,0.56-1.03,0.71-1.6,0.91c-0.2,0.07-0.44,0.11-0.63,0.03
	c-0.65-0.29-3.43-0.63-4.19-0.89c-1.63-0.55-3.38,1.11-4.93-0.45c-0.15-0.15-0.44-0.04-0.58,0.18c-0.8,1.36-1.77,0.68-2.6,0.19
	c-0.78-0.47-1.37-0.68-2.03,0.21c-0.38,0.5-0.98,0.61-1.52,0.76c-0.2,0.06-0.6,0.02-0.6-0.02c-0.19-1.65-1.05-0.4-1.57-0.51
	c-1.34-0.29-2.8-0.59-4.04-0.48c-1.33,0.12-2.54,0.37-3.78-0.33c-1.17,1.66-2.32,0.7-3.5,0c-0.42-0.25-0.83-0.09-1.15,0.35
	c-0.42,0.58-1.01,0.74-1.58,0.95c-0.2,0.07-0.59,0.13-0.6,0.07c-0.45-1.55-1.38-0.52-2.07-0.53c-0.93-0.02-2.01-0.01-2.74-0.34
	c-1.47-0.67-3.03,1.27-4.33-0.46c-0.13-0.18-0.45-0.11-0.58,0.1c-0.89,1.46-1.9,0.7-2.82,0.14c-0.71-0.43-1.24-0.5-1.81,0.25
	c-0.39,0.51-0.97,0.62-1.5,0.8c-0.2,0.07-0.45,0.11-0.63,0.02c-0.71-0.35-3.48-0.79-4.45-0.83c-0.98-0.04-1.93-0.31-2.9,0.24
	c-0.37,0.21-0.84-0.11-1.19-0.41c-0.53-0.46-0.91-0.45-1.42,0.18c-0.73,0.89-1.62,0.31-2.33-0.15c-0.78-0.51-1.37-0.64-2.03,0.22
	c-0.38,0.5-0.98,0.59-1.52,0.76c-0.16,0.05-0.35,0.07-0.5,0.01c-0.77-0.34-3.65-0.79-4.45-0.84c-0.98-0.06-1.93-0.35-2.9,0.24
	c-0.4,0.24-0.9-0.14-1.3-0.46c-0.33-0.26-0.73-0.57-1.03-0.11c-0.88,1.36-1.85,0.68-2.72,0.14c-0.76-0.47-1.31-0.55-1.92,0.25
	c-0.38,0.5-0.98,0.6-1.51,0.77c-0.16,0.05-0.48,0.07-0.49,0.03c-0.34-1.45-1.19-0.49-1.81-0.57c-0.84-0.1-1.74-0.01-2.52-0.32
	c-1.59-0.64-3.29,1.12-4.8-0.45c-0.16-0.16-0.45-0.1-0.59,0.12c-0.9,1.43-1.9,0.67-2.82,0.12c-0.65-0.38-1.16-0.56-1.71,0.17
	c-0.42,0.56-1.03,0.69-1.6,0.89c-0.16,0.06-0.44,0.13-0.49,0.04c-1.1-1.82-2.65-0.19-3.99-0.71c-0.87-0.34-2.14-0.91-3.26,0.07
	c-0.41,0.36-1.07-0.08-1.54-0.47c-0.29-0.24-0.68-0.51-0.93-0.13c-0.97,1.49-1.97,0.68-2.94,0.09c-0.6-0.36-1.1-0.47-1.6,0.19
	c-0.42,0.56-1.03,0.71-1.6,0.91c-0.2,0.07-0.6,0.08-0.61,0.04c-0.32-1.58-1.21-0.42-1.81-0.54c-0.79-0.16-1.64-0.05-2.4-0.33
	c-1.62-0.61-3.38,1.1-4.92-0.47c-0.15-0.15-0.45-0.05-0.58,0.18c-0.8,1.36-1.77,0.68-2.6,0.19c-0.78-0.47-1.37-0.69-2.03,0.2
	c-0.38,0.5-0.98,0.61-1.52,0.76c-0.2,0.06-0.6,0.03-0.6-0.02c-0.19-1.65-1.04-0.41-1.56-0.51c-1.34-0.28-2.79-0.58-4.04-0.48
	c-1.33,0.11-2.54,0.38-3.78-0.33c-1.17,1.65-2.32,0.71-3.5,0c-0.42-0.25-0.83-0.09-1.15,0.35c-0.42,0.58-1.01,0.75-1.58,0.95
	c-0.2,0.07-0.59,0.13-0.6,0.07c-0.45-1.54-1.38-0.52-2.07-0.53c-0.94-0.01-2.02-0.01-2.74-0.34c-1.41-0.66-2.65,0.99-3.92,0
	c0-4.17,0.01-8.34-0.02-12.51c0-0.65,0.09-0.92,0.65-0.78c0.16,0.04,0.34,0.01,0.51,0.01c86.55,0,173.1,0,259.65-0.03
	c0.97,0,1.19,0.28,1.17,1.43C436.93,302.68,436.97,306.55,436.97,310.41z"/>
<path class="st7" d="M175.03,601.9c0.29,0.09,0.66,0.36,0.84,0.23c0.99-0.7,1.92-1.55,2.83,0.16c0.13,0.25,0.48-0.03,0.67-0.24
	c0.46-0.5,1-0.53,1.56-0.38c0.39,0.1,0.76,0.23,1.02-0.28c0.04-0.08,0.16-0.22,0.17-0.21c1.09,0.85,2.3-0.15,3.41,0.33
	c0.32,0.14,0.65,0.5,0.95,0.35c1.35-0.68,2.74,0.5,4.09-0.19c0.24-0.12,0.64,0.17,0.96,0.3c0.33,0.14,0.71,0.35,0.98,0.07
	c0.9-0.95,1.71-1.26,2.46,0.2c0.03,0.07,0.19,0.12,0.23,0.09c0.87-0.81,2-0.35,2.84-0.76c0.7-0.34,1.08-0.52,1.63,0.06
	c0.09,0.09,0.3,0.21,0.34,0.16c1.34-1.49,2.71,0.33,4.17,0c1.13-0.26,2.61-0.42,3.88,0.24c0.49,0.26,0.91,0.07,1.29-0.34
	c0.58-0.62,1.14-0.92,1.65,0.15c0.24,0.5,0.63,0.72,1.06,0.25c0.5-0.54,1.07-0.58,1.68-0.41c0.34,0.1,0.67,0.2,0.92-0.23
	c0.07-0.12,0.23-0.33,0.26-0.31c1.01,0.73,2.12-0.01,3.06,0.25c0.84,0.23,1.64,0.18,2.43,0.31c1.35,0.23,2.73-0.31,4.04,0.33
	c0.5,0.25,0.91,0.03,1.28-0.38c0.6-0.65,1.17-0.84,1.65,0.2c0.09,0.2,0.44,0.47,0.47,0.44c0.94-0.97,2.18-0.33,3.18-0.89
	c0.11-0.06,0.24-0.3,0.28-0.28c0.98,0.65,2.09-0.08,2.94,0.21c1.78,0.62,3.5,0.32,5.25,0.32c0.25,0,0.54-0.03,0.74,0.11
	c0.77,0.51,1.43,0.44,2.09-0.31c0.42-0.48,0.91-0.56,1.28,0.19c0.34,0.69,0.76,0.94,1.34,0.31c0.42-0.46,0.94-0.43,1.46-0.3
	c0.38,0.1,0.75,0.24,1.03-0.27c0.07-0.12,0.27-0.28,0.28-0.27c1.04,1.28,2.34-0.45,3.42,0.43c0.23,0.19,0.62,0.4,0.83,0.29
	c1.35-0.68,2.74,0.53,4.09-0.18c0.21-0.11,0.56,0.15,0.85,0.24c0.29,0.08,0.67,0.34,0.84,0.21c1-0.78,1.93-1.45,2.84,0.18
	c0.13,0.24,0.47-0.06,0.67-0.26c0.43-0.45,0.93-0.52,1.44-0.38c0.48,0.14,0.93,0.24,1.22-0.4c0.02-0.04,0.08-0.1,0.1-0.09
	c1.06,0.83,2.22-0.04,3.3,0.29c0.35,0.11,0.71,0.58,1.06,0.4c1.35-0.68,2.74,0.52,4.09-0.18c0.24-0.12,0.64,0.17,0.96,0.31
	c0.37,0.17,0.78,0.32,1.09-0.02c0.83-0.92,1.57-1.22,2.23,0.21c0.03,0.07,0.19,0.16,0.21,0.14c0.95-0.88,2.15-0.41,3.18-0.86
	c0.11-0.05,0.25-0.31,0.26-0.3c1.05,0.96,2.26-0.22,3.29,0.33c0.63,0.33,1.19,0.32,1.84,0.29c1.43-0.08,2.87-0.12,4.28,0.25
	c0.56,0.15,0.99,0.12,1.41-0.34c0.6-0.65,1.16-0.86,1.65,0.19c0.09,0.2,0.44,0.48,0.47,0.44c0.95-0.95,2.17-0.34,3.18-0.88
	c0.11-0.06,0.25-0.3,0.27-0.28c1,0.8,2.11-0.02,3.06,0.26c0.8,0.24,1.53,0.24,2.31,0.33c1.35,0.15,2.73-0.27,4.04,0.29
	c0.62,0.27,1.06,0.01,1.51-0.46c0.53-0.55,1.04-0.68,1.47,0.21c0.12,0.24,0.52,0.58,0.55,0.54c0.93-1.02,2.19-0.29,3.18-0.91
	c0.11-0.07,0.27-0.28,0.28-0.27c1.04,1.27,2.34-0.47,3.42,0.42c0.23,0.19,0.62,0.4,0.83,0.29c1.35-0.69,2.74,0.54,4.09-0.18
	c0.21-0.11,0.56,0.15,0.85,0.23c0.29,0.08,0.67,0.35,0.84,0.21c1-0.75,1.93-1.48,2.84,0.18c0.13,0.24,0.47-0.05,0.67-0.25
	c0.47-0.5,1.01-0.51,1.57-0.36c0.39,0.11,0.76,0.21,1.02-0.3c0.04-0.08,0.16-0.22,0.17-0.21c1.07,0.79,2.22-0.02,3.3,0.28
	c0.35,0.1,0.71,0.58,1.06,0.4c1.35-0.67,2.74,0.51,4.09-0.18c0.24-0.12,0.64,0.17,0.96,0.31c0.37,0.17,0.78,0.33,1.09-0.01
	c0.83-0.9,1.57-1.24,2.23,0.2c0.03,0.07,0.18,0.16,0.21,0.14c0.96-0.86,2.15-0.42,3.18-0.85c0.11-0.04,0.25-0.32,0.26-0.3
	c1.06,0.93,2.26-0.2,3.29,0.32c0.63,0.32,1.19,0.34,1.84,0.29c1.43-0.1,2.87-0.11,4.28,0.24c0.56,0.14,0.99,0.13,1.41-0.33
	c0.59-0.64,1.16-0.89,1.65,0.18c0.12,0.26,0.47,0.63,0.59,0.45c0.89-1.26,2.34,0.01,3.24-1.1c0.21-0.26,0.51-0.18,0.7,0.02
	c0.6,0.62,1.17,0.81,1.75-0.03c0.04-0.06,0.19-0.11,0.23-0.07c1.25,1.18,2.71,0.57,4.04,0.55c1.52-0.02,3.14,1.08,4.6-0.37
	c0.4-0.4,0.8-0.22,1.06,0.33c0.39,0.81,0.86,0.88,1.44,0.24c0.34-0.37,0.8-0.34,1.22-0.25c0.46,0.11,0.93,0.32,1.24-0.35
	c0.04-0.08,0.19-0.18,0.2-0.16c1.04,1.25,2.33-0.45,3.41,0.42c0.23,0.19,0.62,0.4,0.82,0.3c1.35-0.7,2.74,0.56,4.09-0.18
	c0.21-0.12,0.56,0.14,0.85,0.23c0.29,0.08,0.66,0.35,0.84,0.22c1-0.73,1.93-1.51,2.84,0.17c0.13,0.24,0.48-0.04,0.67-0.25
	c0.46-0.5,1.01-0.52,1.57-0.37c0.39,0.11,0.76,0.22,1.02-0.29c0.04-0.08,0.15-0.22,0.17-0.21c1.07,0.76,2.22,0,3.3,0.27
	c0.35,0.09,0.71,0.58,1.06,0.41c1.35-0.67,2.74,0.51,4.09-0.19c0.21-0.11,0.57,0.13,0.84,0.25c0.32,0.15,0.7,0.41,0.98,0.17
	c0.92-0.79,1.78-1.49,2.58,0.16c0.03,0.06,0.2,0.12,0.23,0.08c0.88-1.23,2.32-0.05,3.23-1.09c0.03-0.04,0.09-0.1,0.1-0.09
	c1.05,0.91,2.23-0.11,3.3,0.31c0.4,0.16,0.76,0.47,1.2,0.41c1.77-0.21,3.53-0.24,5.28,0.24c0.19,0.05,0.48,0.05,0.61-0.09
	c0.84-0.85,1.63-1.41,2.35,0.16c0.03,0.07,0.19,0.16,0.22,0.13c0.94-0.93,2.16-0.38,3.18-0.88c0.11-0.05,0.24-0.31,0.27-0.29
	c1.01,0.76,2.12-0.03,3.06,0.26c0.85,0.26,1.6,0.27,2.44,0.29c1.24,0.04,2.47,0.17,3.71-0.11c0,3.86-0.02,7.73,0.02,11.59
	c0.01,0.66-0.11,0.91-0.66,0.78c-0.16-0.04-0.34-0.01-0.51-0.01c-86.55,0-173.1,0-259.64,0.03c-0.96,0-1.2-0.26-1.18-1.42
	C175.07,609.02,175.03,605.46,175.03,601.9z"/>
<path class="st8" d="M175.03,470.22c0-8.86,0-17.72,0-26.58c1.39-0.75,2.75-1.7,4.35-0.76c0.22,0.13,0.51,0.09,0.76,0.05
	c1.44-0.21,2.88-0.88,4.32,0.14c0.26,0.18,0.66-0.11,0.99-0.21c1.04-0.31,2.08-0.05,3.11-0.05c1.53,0.01,3.11,0.29,4.63-0.12
	c0.64-0.17,1.23-0.32,1.87-0.05c1,0.43,2,0.44,2.99-0.04c0.45-0.22,0.99-0.37,1.37-0.08c1.07,0.81,2.12,0.46,3.19,0.14
	c0.76-0.22,1.51-0.2,2.24,0.24c0.35,0.21,0.76,0.31,1.11,0.08c0.78-0.52,1.53-0.56,2.3-0.02c0.15,0.1,0.37,0.18,0.49,0.08
	c1.31-0.97,2.63-0.3,3.96-0.12c0.59,0.08,1.18,0,1.75-0.32c0.52-0.29,1.13-0.33,1.61,0.02c0.78,0.55,1.5,0.47,2.32,0.19
	c0.94-0.32,1.91-0.03,2.86,0.01c1.53,0.06,3.1,0.23,4.63-0.11c0.68-0.15,1.3-0.32,1.99-0.03c0.95,0.41,1.92,0.4,2.87-0.05
	c0.54-0.26,1.13-0.38,1.61-0.05c0.86,0.6,1.67,0.48,2.57,0.18c0.85-0.29,1.76-0.46,2.61,0.12c0.07,0.05,0.17,0.13,0.24,0.1
	c1.52-0.66,3.12,0.32,4.64-0.32c0.59-0.25,1.15-0.28,1.74-0.02c0.99,0.43,2,0.44,2.99-0.03c0.5-0.24,1.06-0.38,1.49-0.06
	c0.94,0.69,1.85,0.49,2.82,0.17c0.82-0.27,1.68-0.36,2.49,0.17c0.3,0.2,0.68,0.33,0.99,0.13c0.86-0.55,1.69-0.63,2.55-0.03
	c0.11,0.08,0.27,0.12,0.37,0.05c1.3-0.97,2.63-0.31,3.95-0.13c0.59,0.08,1.19,0.01,1.75-0.31c0.44-0.25,0.98-0.37,1.36-0.08
	c1.07,0.82,2.12,0.44,3.19,0.14c0.72-0.2,1.43-0.24,2.12,0.19c0.15,0.09,0.33,0.23,0.48,0.18c1.23-0.36,2.52,0.02,3.66-0.17
	c1.25-0.2,2.38-0.27,3.59,0.05c0.45,0.12,0.91,0.26,1.38,0.27c0.69,0.05,1.02,0.68,1.36,1.27c1.85,3.2,3.52,6.54,5.31,9.79
	c0.58,1.06,0.6,2.12,0,3.16c-2.29,4.02-4.59,8.03-6.92,12.01c-0.3,0.5-0.61,1-1.14,1.17c-0.72,0.15-1.43,0.25-2.1-0.27
	c-0.14-0.11-0.37-0.23-0.48-0.15c-1.5,1.04-3.19-0.27-4.71,0.55c-0.28,0.15-0.62,0.24-0.88,0.12c-1.49-0.73-3.07-0.14-4.6-0.51
	c-1.19-0.28-2.5,0.3-3.77,0.21c-0.04,0-0.08,0.06-0.12,0.05c-1.67-0.44-3.36,0.14-5.03-0.16c-0.43-0.08-0.85-0.11-1.26,0.05
	c-1.08,0.43-2.14,0.55-3.23-0.05c-0.57-0.32-1.19,0.36-1.75,0.18c-1.9-0.61-3.76-0.01-5.63,0.1c-0.35,0.02-0.68-0.05-0.99-0.25
	c-0.23-0.14-0.53-0.4-0.71-0.28c-1.48,0.96-3.1-0.18-4.59,0.46c-0.28,0.12-0.59,0.29-0.87,0.19c-1.54-0.57-3.15-0.23-4.73-0.5
	c-1.26-0.21-2.59,0.25-3.9,0.23c-0.04,0-0.09,0.05-0.12,0.04c-1.63-0.57-3.28,0.11-4.91-0.16c-0.13-0.02-0.27-0.12-0.37-0.08
	c-1.81,0.82-3.66,0.04-5.49,0.2c-0.17,0.02-0.35,0.12-0.51,0.06c-1.84-0.69-3.67,0-5.5,0.07c-0.35,0.01-0.69-0.01-0.99-0.22
	c-0.61-0.41-1.21-0.48-1.81,0c-0.11,0.08-0.26,0.18-0.36,0.14c-1.94-0.86-3.93,0.94-5.86-0.2c-0.28-0.17-0.58-0.07-0.88,0.02
	c-0.33,0.1-0.68,0.29-1,0.17c-1.85-0.69-3.67,0.01-5.5,0.09c-0.35,0.01-0.68-0.03-0.99-0.24c-0.61-0.41-1.21-0.43-1.81,0.03
	c-0.14,0.11-0.35,0.23-0.48,0.16c-1.89-0.94-3.84,0.91-5.74-0.25c-0.55-0.34-1.18,0.38-1.74,0.19c-1.9-0.62-3.76,0-5.63,0.1
	c-0.26,0.01-0.53,0.01-0.75-0.14c-0.68-0.44-1.34-0.58-2.06-0.09C175.72,470.73,175.33,470.6,175.03,470.22z"/>
<path class="st9" d="M436.97,443.02c0,7.52,0,15.04,0,22.57c-0.19,0.21-0.4,0.46-0.66,0.41c-1.67-0.29-3.38,0.64-5.05-0.25
	c-0.53-0.29-1.17-0.15-1.77-0.13c-1.24,0.04-2.48,0.89-3.74,0.05c-0.25-0.17-0.57,0.13-0.84,0.27c-0.32,0.16-0.67,0.37-0.99,0.26
	c-2.45-0.89-4.9,0.13-7.34-0.02c-1.34-0.08-2.63-0.82-4.02-0.51c-1.02,0.23-2.06,0.72-3.1,0c-0.21-0.15-0.49,0.06-0.73,0.17
	c-0.28,0.14-0.57,0.4-0.84,0.32c-2.71-0.82-5.42,0.21-8.1-0.05c-1.12-0.11-2.22-0.64-3.39-0.46c-1.11,0.17-2.22,0.78-3.36,0.02
	c-0.25-0.17-0.57,0.12-0.85,0.26c-0.36,0.18-0.8,0.46-1.1,0.25c-1.55-1.06-3.14-0.19-4.68-0.12c-1.88,0.09-3.7-0.22-5.55-0.46
	c-1.41-0.18-2.81,0.98-4.25,0.06c-0.21-0.13-0.49,0.11-0.73,0.23c-0.36,0.18-0.75,0.43-1.11,0.29c-2.46-0.94-4.9,0.13-7.35-0.01
	c-1.25-0.07-2.45-0.8-3.77-0.54c-1.1,0.22-2.22,0.81-3.35,0.03c-0.25-0.17-0.58,0.11-0.85,0.25c-0.36,0.18-0.8,0.46-1.1,0.26
	c-1.51-1.01-3.06-0.22-4.56-0.13c-1.92,0.11-3.79-0.16-5.67-0.45c-1.4-0.21-2.81,0.97-4.24,0.06c-0.21-0.13-0.49,0.11-0.73,0.22
	c-0.36,0.18-0.75,0.43-1.11,0.3c-2.46-0.95-4.91,0.15-7.35-0.01c-1.3-0.08-2.54-0.82-3.9-0.52c-1.06,0.23-2.13,0.76-3.23,0.02
	c-0.25-0.17-0.57,0.21-0.85,0.23c-1.97,0.14-3.93-0.11-5.9-0.09c-0.24,0-0.45-0.28-0.6-0.54c-0.41-0.95,0.02-1.67,0.44-2.39
	c1.17-2.01,2.35-4.02,3.55-6c0.54-0.89,0.52-1.61,0.01-2.49c-1.62-2.76-3.19-5.56-4.72-8.39c-0.33-0.61-0.69-1.19-0.51-1.98
	c0.96-1.21,2.12-1.77,3.5-1.45c0.29,0.07,0.59,0.44,0.84,0.28c1.98-1.24,4.16,0.47,6.14-0.67c0.11-0.06,0.28-0.08,0.38-0.01
	c1.42,1,2.88,0.24,4.32,0.19c0.59-0.02,1.2-0.02,1.74,0.38c0.07,0.05,0.17,0.13,0.24,0.1c1.41-0.67,2.88,0.13,4.3-0.28
	c0.64-0.19,1.27-0.28,1.9-0.16c1.15,0.23,2.28,0.37,3.39-0.2c0.15-0.08,0.37-0.13,0.5-0.03c1.42,1.01,2.88,0.23,4.32,0.19
	c0.59-0.02,1.2-0.02,1.74,0.38c0.07,0.05,0.17,0.14,0.23,0.1c1.41-0.68,2.88,0.14,4.29-0.28c0.64-0.19,1.27-0.28,1.9-0.16
	c1.15,0.23,2.28,0.37,3.39-0.2c0.15-0.08,0.37-0.13,0.5-0.03c1.42,1.02,2.88,0.22,4.32,0.19c0.59-0.01,1.2-0.02,1.74,0.38
	c0.07,0.05,0.17,0.13,0.23,0.1c1.41-0.68,2.88,0.14,4.29-0.28c0.55-0.16,1.1-0.27,1.64-0.18c1.27,0.21,2.53,0.44,3.77-0.21
	c0.11-0.06,0.28-0.08,0.38-0.01c1.41,1.03,2.88,0.23,4.32,0.19c0.59-0.02,1.2-0.02,1.74,0.38c0.07,0.05,0.17,0.13,0.23,0.1
	c1.41-0.68,2.88,0.14,4.29-0.27c0.55-0.16,1.1-0.27,1.64-0.18c1.27,0.21,2.53,0.44,3.77-0.2c0.11-0.06,0.28-0.08,0.38-0.01
	c1.41,1.03,2.88,0.23,4.32,0.19c0.59-0.02,1.2-0.02,1.74,0.38c0.07,0.05,0.17,0.14,0.23,0.11c1.41-0.68,2.88,0.13,4.29-0.27
	c0.55-0.16,1.1-0.27,1.64-0.18c1.27,0.21,2.53,0.44,3.77-0.2c0.11-0.06,0.28-0.09,0.38-0.01c1.46,1.06,2.96,0.18,4.45,0.19
	c0.51,0,1.03-0.01,1.49,0.31c0.11,0.08,0.26,0.22,0.35,0.17c1.41-0.67,2.89,0.13,4.3-0.27c0.55-0.16,1.1-0.27,1.64-0.18
	c1.27,0.21,2.53,0.44,3.77-0.2c0.11-0.06,0.28-0.09,0.38-0.02c1.46,1.06,2.96,0.18,4.45,0.19c0.47,0,0.95-0.04,1.38,0.25
	c0.53,0.37,1.03,0.35,1.58,0.04C436.01,442.34,436.54,442.45,436.97,443.02z"/>
<path class="st10" d="M175.03,470.22c0.46,0.02,0.82-0.23,1.15-0.58c0.27-0.29,0.64-0.45,0.95-0.3c1.99,0.97,3.97,0.54,5.96-0.01
	c1.2,1.52,2.88-0.75,4.12,0.76c0.17,0.21,0.67,0.15,0.99,0.05c1.15-0.36,2.27-0.94,3.45-0.07c0.28,0.2,0.56-0.12,0.79-0.35
	c0.31-0.32,0.73-0.6,1.05-0.38c1.01,0.7,2.03,0.47,3.11,0.43c0.8-0.03,1.59,0.05,2.37-0.28c0.49-0.21,0.99-0.37,1.39,0.26
	c0.07,0.11,0.26,0.27,0.29,0.24c1.64-1.31,3.38,0.95,5.03-0.2c0.3-0.21,0.78-0.28,1.12-0.16c0.9,0.31,1.76,0.66,2.57-0.26
	c0.09-0.11,0.35-0.11,0.49-0.04c1.99,0.98,3.97,0.56,5.96,0c1.2,1.49,2.88-0.73,4.12,0.76c0.17,0.21,0.67,0.15,0.99,0.05
	c1.15-0.36,2.27-0.93,3.45-0.07c0.28,0.2,0.56-0.12,0.79-0.35c0.31-0.32,0.73-0.6,1.05-0.37c1.01,0.7,2.03,0.46,3.11,0.43
	c0.81-0.03,1.59,0.04,2.37-0.28c0.49-0.21,0.99-0.37,1.39,0.27c0.07,0.11,0.26,0.27,0.3,0.24c1.64-1.31,3.38,0.95,5.03-0.2
	c0.3-0.21,0.78-0.28,1.12-0.16c0.91,0.32,1.76,0.64,2.58-0.26c0.12-0.13,0.44-0.11,0.62-0.01c1.91,1.02,3.93-0.19,5.67,0.23
	c1.44,0.35,3-0.98,4.29,0.51c0.18,0.21,0.67,0.14,0.99,0.04c1.15-0.37,2.27-0.93,3.45-0.07c0.27,0.2,0.56-0.12,0.79-0.36
	c0.31-0.32,0.73-0.6,1.05-0.37c1.01,0.71,2.03,0.46,3.11,0.42c0.81-0.02,1.59,0.04,2.37-0.29c0.49-0.21,1-0.37,1.39,0.27
	c0.07,0.11,0.26,0.27,0.3,0.24c1.64-1.31,3.37,0.95,5.04-0.2c0.33-0.23,0.88-0.3,1.24-0.14c0.83,0.35,1.57,0.6,2.33-0.23
	c0.28-0.3,0.79-0.2,1.09,0.09c0.6,0.59,1.33,0.51,2.01,0.71c0.43,0.86-0.06,1.5-0.41,2.1c-3.63,6.27-7.24,12.56-10.83,18.86
	c-0.39,0.68-0.76,1.38-1.51,1.55c-1.02-0.39-1.99-0.23-3.06-0.06c-1.75,0.28-3.57,0.79-5.35,0.03c-0.16-0.07-0.36-0.1-0.5,0
	c-1.27,0.88-2.5,0.7-3.78-0.01c-0.54-0.3-1.27-0.13-1.74,0.19c-1,0.67-1.83,0.23-2.66-0.27c-0.59-0.36-1.07-0.37-1.69-0.08
	c-0.83,0.39-1.73,0.57-2.63,0.33c-0.47-0.12-0.93,0.07-1.38,0.07c-1.57,0-3.11,0.04-4.67,0.32c-0.89,0.16-1.8-1-2.82-0.48
	c-1.28,0.65-2.47,0.48-3.61-0.41c-0.14-0.11-0.36-0.19-0.49-0.1c-1.58,1.02-3.37,0.82-4.98,0.68c-1.69-0.14-3.31,0.69-4.92,0.2
	c-0.88-0.27-1.74-0.76-2.59-0.33c-1.18,0.6-2.21,0.4-3.25-0.37c-0.35-0.26-0.72-0.25-1.1-0.05c-1,0.52-2.1,0.3-3.1,0.54
	c-1.66,0.4-3.32-0.74-4.93,0.31c-0.53,0.35-1.2,0.15-1.73-0.21c-0.86-0.59-1.83-0.57-2.59-0.13c-0.97,0.55-1.72,0.19-2.55-0.22
	c-0.35-0.18-0.72-0.64-1.06-0.41c-1.62,1.1-3.47,0.77-5.11,0.68c-1.56-0.08-3.05,0.53-4.55,0.27c-0.86-0.15-1.67-0.91-2.58-0.45
	c-1.28,0.64-2.46,0.48-3.61-0.42c-0.14-0.11-0.35-0.19-0.49-0.1c-1.58,1.03-3.35,0.3-4.98,0.82c-0.78,0.25-1.19-0.27-1.58-0.92
	C175.03,484.85,175.03,477.54,175.03,470.22z"/>
<path class="st11" d="M175.03,424.78c0-7.62,0-15.25,0-22.87c1.24-0.68,2.55-1.16,3.9-0.88c0.98,0.21,1.94,0.19,2.92,0.17
	c0.43-0.01,0.89-0.12,1.25,0.17c0.73,0.58,1.48,0.43,2.2,0.14c2.23-0.89,4.47-0.73,6.73-0.23c0.51,0.12,0.99,0.15,1.49-0.13
	c0.56-0.31,1.2-0.32,1.76-0.13c1.02,0.33,2.03,0.21,3.04,0.18c0.34-0.01,0.72-0.1,1,0.11c1.13,0.85,2.23,0.3,3.31-0.12
	c1.54-0.6,3.09-0.23,4.62-0.15c1,0.05,1.97,0.12,2.98,0.08c2-0.08,4.07-0.24,6.03,0.5c0.91,0.34,1.69-0.06,2.47-0.33
	c1.75-0.61,3.49-0.41,5.23-0.16c0.84,0.12,1.62,0.4,2.5-0.02c0.8-0.39,1.67,0.02,2.51,0.13c1.37,0.19,2.8-0.37,4.12,0.56
	c0.25,0.18,0.6-0.05,0.86-0.18c1.69-0.85,3.49-0.52,5.23-0.77c0.39-0.06,0.75,0.17,1.12,0.26c0.83,0.19,1.64,0.49,2.49,0
	c0.49-0.29,1.12-0.25,1.64-0.07c0.97,0.35,1.94,0.19,2.92,0.17c0.39-0.01,0.81-0.13,1.13,0.14c0.81,0.67,1.7,0.54,2.44,0.11
	c1.51-0.87,3.1-0.19,4.62-0.61c0.48-0.13,0.88,0.33,1.3,0.56c1.41,1.47,2.18,3.52,3.2,5.33c2.89,5.13,5.72,10.3,8.49,15.53
	c0.41,0.77,0.95,1.51,0.42,2.52c-0.48,0.65-1.12,0.75-1.76,0.6c-2.39-0.56-4.83-0.45-7.24-0.73c-1.21-0.14-2.37,0.7-3.59,0.94
	c-0.87,0.17-1.69,0.23-2.43-0.45c-0.4-0.36-0.86-0.52-1.32-0.21c-0.84,0.55-1.7,0.48-2.6,0.29c-2.14-0.45-4.32-0.33-6.48-0.57
	c-1.16-0.13-2.29,0.68-3.47,0.93c-0.92,0.19-1.77,0.26-2.55-0.46c-0.32-0.29-0.73-0.5-1.08-0.25c-1.35,0.98-2.76,0.37-4.12,0.22
	c-2.92-0.31-5.82-0.66-8.68,0.49c-0.84,0.34-1.68,0.27-2.43-0.41c-0.36-0.32-0.79-0.56-1.19-0.28c-1.36,0.96-2.77,0.33-4.13,0.19
	c-2.88-0.3-5.73-0.66-8.55,0.47c-0.89,0.36-1.76,0.3-2.55-0.43c-0.32-0.29-0.73-0.51-1.08-0.26c-1.26,0.91-2.61,0.47-3.87,0.23
	c-1.78-0.34-3.56-0.13-5.34-0.43c-1.16-0.2-2.29,0.65-3.47,0.9c-0.97,0.2-1.85,0.29-2.67-0.48c-0.32-0.3-0.73-0.46-1.08-0.2
	c-1.31,0.95-2.69,0.42-4,0.19c-1.74-0.31-3.49,0.01-5.21-0.45c-0.53-0.14-1.07,0.25-1.61,0.4
	C175.96,425.17,175.45,425.31,175.03,424.78z"/>
<path class="st12" d="M436.97,443.02c-1.47,0.57-2.91,0.77-4.41,0.04c-0.56-0.27-1.26-0.04-1.86,0.33
	c-0.39,0.24-0.88,0.42-1.24,0.17c-2.02-1.4-4.21,0.45-6.25-0.52c-0.26-0.13-0.58,0.07-0.83,0.31c-0.13,0.13-0.33,0.37-0.41,0.33
	c-1.42-0.78-2.94,0.27-4.29-0.22c-1.13-0.41-2.13-0.6-3.21-0.13c-0.77,0.34-1.48,0.48-2.15-0.24c-0.36-0.38-0.78-0.46-1.18-0.16
	c-0.79,0.59-1.67,0.47-2.49,0.34c-1.1-0.17-2.12,0.14-3.16,0.29c-1.2,0.17-2.67,0.29-3.79,0.01c-1.47-0.36-2.76-0.7-4.17-0.03
	c-0.22,0.11-0.57,0.16-0.75,0.03c-2.01-1.48-4.21,0.46-6.25-0.53c-0.3-0.15-0.67,0.07-0.94,0.36c-0.53,0.56-1.04,0.58-1.59-0.01
	c-0.47-0.5-1.05-0.53-1.52-0.04c-0.6,0.63-1.11,0.51-1.73,0.07c-0.99-0.69-2.05-0.55-3.08-0.07c-0.72,0.33-1.4,0.44-2.04-0.22
	c-0.4-0.41-0.84-0.51-1.29-0.17c-0.71,0.53-1.5,0.41-2.25,0.32c-1.17-0.14-2.26,0.03-3.43,0.28c-1.1,0.23-2.58,0.29-3.66,0.02
	c-1.51-0.38-2.84-0.72-4.29-0.02c-0.19,0.09-0.48,0.13-0.62,0.02c-1.96-1.51-4.13,0.48-6.12-0.55c-0.29-0.15-0.7-0.06-0.97,0.23
	c-0.65,0.72-1.26,0.71-1.91-0.02c-0.23-0.25-0.64-0.37-0.84-0.17c-1.04,1.08-1.99,0.5-3.03,0c-0.47-0.23-1.14-0.18-1.64,0.02
	c-1.09,0.45-2.11,0.88-3.09-0.25c-0.08-0.09-0.27-0.13-0.36-0.08c-1.56,0.97-3.16,0.38-4.75,0.25c-0.3-0.02-0.59,0.08-0.84,0.31
	c-0.17,0.15-0.46,0.45-0.52,0.39c-1.44-1.28-3.06,0.55-4.53-0.4c-0.87-0.56-1.84-0.46-2.73-0.06c-0.86,0.38-1.63,0.57-2.38-0.24
	c-0.31-0.34-0.71-0.36-1.08-0.11c-0.92,0.64-1.91,0.48-2.87,0.3c-0.95-0.18-1.84-0.41-2.66,0.44c-0.28,0.29-0.65,0.3-0.95,0
	c-1.39-1.4-2.39,0.22-3.54,0.65c-0.88,0.2-1.17-0.67-1.53-1.32c-3.42-6.15-6.94-12.22-10.33-18.39c-0.4-0.73-0.86-1.4-1.25-2.14
	c-0.3-0.58-0.58-1.15-0.39-1.88c0.17-0.47,0.49-0.72,0.89-0.79c1.66-0.28,3.32-0.55,4.99-0.14c0.21,0.05,0.43,0.23,0.62,0.14
	c1.53-0.73,3.09,0,4.63-0.2c0.43-0.05,0.85-0.02,1.26,0.16c0.32,0.14,0.68,0.34,0.99,0.2c1.31-0.57,2.61-0.42,3.98-0.37
	c1.09,0.04,2.05,0.23,3.02,0.71c0.79,0.1,1.12,0.87,1.51,1.53c2.46,4.26,4.86,8.56,7.25,12.86c0.79,1.41,0.79,1.42,1.58,0.01
	c0.85-1.54,1.6-3.16,2.5-4.66c0.35-0.59,0.66-1.21,1.3-1.39c0.6-0.1,1.18-0.11,1.72,0.32c0.83,0.66,1.74,0.01,2.61,0.13
	c0.71,0.1,1.43-0.02,2.13,0.3c0.77,0.35,1.52-0.03,2.23-0.34c0.97-0.41,1.88-0.33,2.86,0.05c1.46,0.56,2.95,0.67,4.39-0.19
	c0.47-0.28,1.02-0.56,1.47-0.25c1.21,0.83,2.48,0.37,3.72,0.42c0.38,0.02,0.79-0.09,1.14,0.1c0.98,0.55,1.91,0.26,2.85-0.15
	c0.97-0.42,1.88-0.26,2.86,0.09c1.41,0.5,2.88,0.67,4.28-0.18c0.51-0.31,1.1-0.62,1.59-0.26c0.84,0.62,1.7,0.43,2.58,0.43
	c1.01,0,2.02-0.13,3.03,0.33c0.65,0.29,1.35-0.09,1.98-0.39c0.75-0.36,1.57-0.53,2.24-0.15c1.03,0.58,2.04,0.48,3.1,0.52
	c0.75,0.03,1.41,0,2.04-0.55c0.39-0.33,0.95-0.49,1.34-0.19c0.91,0.7,1.86,0.47,2.82,0.44c0.98-0.03,1.93-0.03,2.9,0.34
	c0.65,0.26,1.34-0.13,1.98-0.43c0.75-0.35,1.6-0.55,2.24-0.11c1.27,0.87,2.6,0.25,3.87,0.55c0.37,0.09,0.64-0.2,0.93-0.42
	c0.52-0.4,1.16-0.73,1.69-0.36c0.85,0.6,1.7,0.42,2.58,0.42c1.01,0,2.02-0.12,3.03,0.33c0.69,0.31,1.42-0.14,2.1-0.43
	c0.92-0.39,1.81-0.27,2.74,0.08c1.46,0.55,2.95,0.67,4.39-0.17c0.47-0.28,1.01-0.56,1.47-0.26c1.25,0.84,2.57,0.45,3.85,0.39
	c0.99-0.04,1.87,0.8,2.88,0.33c1.48-0.69,2.95-0.98,4.42,0.07c0.3,0.21,0.67-0.01,1.01-0.05c0.61-0.07,1.2-0.03,1.62,0.62
	C436.97,434.36,436.97,438.69,436.97,443.02z"/>
<path class="st13" d="M256.61,401.91c-0.46-0.42-0.91-0.76-1.5-0.26c-0.19,0.16-0.53,0.3-0.72,0.21c-1.64-0.88-3.03,0.39-4.52,0.73
	c-0.29,0.07-0.65,0.32-0.84,0.02c-0.84-1.3-1.96-0.62-2.97-0.63c-0.51-0.01-1.04-0.21-1.48-0.15c-2.01,0.26-4.01-0.03-6.02-0.06
	c-0.21,0-0.46,0.18-0.62,0.09c-1.6-0.93-2.94,0.42-4.39,0.7c-0.33,0.07-0.72,0.38-0.95,0c-0.61-1.01-1.44-0.64-2.21-0.66
	c-0.79-0.01-1.69-0.22-2.35-0.09c-2,0.38-3.94-0.22-5.9-0.02c-0.17,0.02-0.37,0.14-0.5,0.07c-1.63-0.9-3.02,0.37-4.51,0.72
	c-0.29,0.07-0.66,0.32-0.84,0.02c-0.71-1.18-1.7-0.71-2.58-0.67c-0.72,0.03-1.52-0.31-2.09-0.17c-1.99,0.5-3.94-0.25-5.9,0.05
	c-0.17,0.03-0.37,0.12-0.5,0.04c-1.59-0.93-2.94,0.41-4.39,0.7c-0.33,0.07-0.72,0.38-0.95,0.01c-0.61-1.01-1.44-0.65-2.21-0.66
	c-0.79-0.01-1.68-0.22-2.35-0.09c-2,0.37-3.94-0.21-5.9-0.02c-0.17,0.02-0.37,0.15-0.5,0.07c-1.63-0.9-3.02,0.37-4.51,0.72
	c-0.29,0.07-0.66,0.33-0.84,0.03c-0.63-1.07-1.51-0.73-2.33-0.7c-0.84,0.04-1.67,0.19-2.5-0.24c-0.32-0.16-0.84-0.17-1.12,0.04
	c-0.86,0.66-1.72,0.37-2.59,0.19c0-7.93,0-15.87,0-23.8c0.85,1.09,1.69,0.81,2.54,0c0.8-0.76,1.47-0.7,2.24,0.2
	c0.63,0.74,1.44,1.11,2.18-0.07c0.44-0.71,0.97-1.51,1.42,0.1c0.18,0.65,0.69,0.76,1.07,0.08c0.45-0.79,0.99-0.89,1.65-0.41
	c0.47,0.34,0.94,0.44,1.43,0.02c0.89-0.76,1.31,1.03,1.8,0.68c0.57-0.41,0.94-1.15,1.73-0.76c0.2,0.1,0.46,0.13,0.58,0.31
	c0.66,1.02,1.31,0.63,1.98,0.04c0.93-0.82,1.73-1.04,2.68,0.15c0.58,0.73,1.42,0.85,2.08-0.24c0.37-0.62,0.89-1.53,1.34,0.07
	c0.21,0.73,0.71,0.86,1.15,0.1c0.41-0.72,0.93-0.84,1.55-0.4c0.51,0.37,1.01,0.48,1.55,0.02c0.88-0.75,1.29,1.15,1.79,0.68
	c0.58-0.53,1.13-1.28,1.72-0.68c1.28,1.31,2.27,0.64,3.36-0.27c0.54-0.45,1.05-0.14,1.49,0.36c0.86,0.99,1.69,1.33,2.55-0.06
	c0.39-0.63,0.83-1.14,1.19,0.15c0.23,0.82,0.73,0.97,1.21,0.13c0.09-0.17,0.25-0.42,0.36-0.41c1.29,0.11,2.59,0.21,3.87,0.46
	c0.29,0.06,0.48,0.79,0.86,0.1c0.65-1.16,1.5-0.71,2.1-0.11c0.63,0.63,1.06,0.65,1.67,0.11c0.99-0.88,1.92-1.34,3,0.05
	c0.6,0.77,1.45,0.63,2.06-0.41c0.39-0.67,0.88-1.27,1.26,0.14c0.19,0.72,0.7,0.92,1.14,0.14c0.46-0.8,1.01-0.82,1.66-0.36
	c0.42,0.3,0.87,0.45,1.32,0.05c0.03-0.03,0.08-0.04,0.11-0.08c0.83-1.18,1.19,1.7,2.17,0.3c0.76-1.08,1.61-0.35,2.32,0.38
	c0.36,0.37,0.7,0.27,1.04-0.02c0.43-0.36,0.91-0.57,1.43-0.6c0.69-0.16,1.01,0.47,1.31,1c3.9,6.96,7.62,14.07,11.51,21.04
	C256.78,400.62,257.14,401.25,256.61,401.91z"/>
<path class="st14" d="M175.03,492.17c0.63,0.32,1.22,0.63,1.89,0.04c0.35-0.31,0.81-0.28,1.23-0.07c0.76,0.38,1.66,0.3,2.23-0.14
	c1.07-0.83,1.88-0.45,2.81,0.18c0.46,0.3,0.82,0.66,1.54-0.09c0.43-0.45,2.01-0.59,3,0.18c0.79,0.61,1.58,0.68,2.37-0.05
	c0.19-0.18,0.58-0.39,0.7-0.29c1.24,1.06,2.57-0.1,3.82,0.27c0.75,0.23,1.58,0.22,2.11-0.18c1.06-0.81,1.87-0.51,2.81,0.15
	c0.44,0.31,0.86,0.84,1.54-0.1c0.28-0.39,1.85-0.54,2.76,0.07c0.98,0.66,1.9,0.86,2.84-0.05c0.12-0.12,0.38-0.24,0.47-0.17
	c1.24,0.97,2.57-0.02,3.81,0.28c0.75,0.18,1.6,0.23,2.11-0.17c1.11-0.88,1.97-0.44,2.93,0.2c0.46,0.31,0.76,0.55,1.42-0.12
	c0.44-0.44,1.86-0.57,2.77,0.02c0.98,0.64,1.89,0.9,2.84-0.03c0.12-0.12,0.37-0.25,0.47-0.18c1.24,0.88,2.56,0.03,3.81,0.27
	c0.79,0.15,1.65,0.23,2.23-0.21c1.02-0.76,1.78-0.44,2.7,0.14c0.38,0.25,1.07,1.32,1.43-0.15c0.99,0.28,2.04-0.45,2.98,0.19
	c0.94,0.64,1.82,0.81,2.72-0.06c0.15-0.15,0.49-0.29,0.59-0.2c1.27,1.17,2.64-0.17,3.95,0.3c0.75,0.27,1.58,0.14,2.22-0.32
	c0.77-0.55,1.34-0.47,2.11,0.02c0.51,0.32,1.27,1.52,1.89,0.02c0.98,0.38,2.03-0.42,2.99,0.28c0.83,0.61,1.65,0.78,2.49-0.01
	c0.19-0.18,0.58-0.38,0.7-0.28c1.27,1.16,2.65-0.18,3.95,0.29c0.72,0.26,1.56,0.19,2.1-0.25c1.12-0.91,1.9-0.43,2.71,0.46
	c0.21,0.66-0.03,1.22-0.32,1.73c-3.14,5.49-6.07,11.16-9.36,16.52c-0.36,0.58-0.68,1.2-1.38,1.21c-1.82,0.43-3.58-0.14-5.36-0.49
	c-0.36-0.07-0.67,0.09-0.99,0.24c-0.68,0.32-1.34,0.31-1.96-0.17c-0.57-0.44-1.17-0.4-1.71-0.07c-1.31,0.81-2.68,0.34-4.01,0.32
	c-0.71-0.01-1.48-0.22-2.14,0.02c-1.85,0.68-3.6-0.04-5.38-0.31c-0.35-0.05-0.67-0.04-1,0.12c-0.75,0.39-1.48,0.44-2.19-0.13
	c-0.26-0.21-0.58-0.37-0.85-0.24c-2.09,1.03-4.28,0.23-6.38,0.54c-2.05,0.3-4.03,0.18-6.02-0.31c-0.41-0.1-0.76,0.05-1.11,0.22
	c-0.54,0.26-1.13,0.39-1.61,0.02c-0.87-0.66-1.68-0.5-2.55-0.06c-1.15,0.58-2.35,0.12-3.53,0.13c-0.57,0.01-1.19-0.22-1.76-0.04
	c-1.95,0.63-3.85,0.15-5.76-0.26c-0.35-0.08-0.67-0.04-1,0.12c-0.75,0.39-1.49,0.42-2.19-0.15c-0.26-0.21-0.58-0.36-0.85-0.23
	c-2.05,1-4.19,0.26-6.26,0.54c-2.09,0.28-4.11,0.22-6.14-0.31c-0.41-0.11-0.76,0.06-1.11,0.23c-0.54,0.25-1.13,0.38-1.61,0.01
	c-0.87-0.68-1.68-0.46-2.55-0.06c-1.06,0.49-2.08,0.36-2.97-0.58C175.03,504.74,175.03,498.45,175.03,492.17z"/>
<path class="st15" d="M320.22,464.92c0.97,0.45,1.92,0.76,2.9-0.05c0.44-0.36,1-0.3,1.43,0.15c0.7,0.74,1.4,0.66,2.1,0.08
	c0.56-0.47,1.08-0.56,1.61,0.04c0.36,0.41,0.71,0.33,1.17,0.14c1.04-0.44,2.2-0.8,3.23-0.32c1.88,0.87,3.8-0.03,5.66,0.46
	c0.37,0.1,0.63-0.26,0.93-0.44c0.57-0.35,1.15-0.49,1.67,0.05c0.7,0.73,1.41,0.65,2.1,0.07c0.57-0.47,1.09-0.55,1.61,0.05
	c0.36,0.41,0.72,0.31,1.17,0.13c1.04-0.43,2.2-0.79,3.23-0.32c1.88,0.86,3.79-0.02,5.66,0.46c0.37,0.1,0.63-0.26,0.93-0.44
	c0.57-0.35,1.15-0.48,1.67,0.06c0.7,0.73,1.41,0.64,2.1,0.06c0.57-0.47,1.09-0.54,1.61,0.06c0.36,0.41,0.72,0.33,1.17,0.11
	c0.91-0.45,2.02-0.77,2.85-0.38c1.97,0.91,3.97,0.06,5.91,0.52c0.38,0.09,0.65-0.16,0.94-0.36c0.64-0.45,1.27-0.55,1.89,0.08
	c0.16,0.16,0.39,0.4,0.54,0.36c1.37-0.36,2.71-0.34,4.12-0.31c1.52,0.04,3.08-0.66,4.58,0.15c0.79,0.43,1.51-0.05,2.26-0.07
	c1.2-0.02,2.44,0.45,3.58-0.49c0.34-0.28,0.84-0.09,1.19,0.28c0.7,0.75,1.4,0.6,2.11,0.05c0.29-0.22,0.68-0.6,0.93-0.34
	c1.33,1.36,2.65-0.08,3.97,0.06c0.17,0.02,0.37-0.11,0.5-0.04c1.87,0.99,3.85,0.33,5.77,0.57c0.49,0.06,0.9,0.03,1.33-0.3
	c0.63-0.48,1.27-0.54,1.89,0.09c0.16,0.16,0.39,0.39,0.55,0.35c1.33-0.33,2.64-0.3,4-0.28c1.6,0.02,3.17-0.25,4.84,0.05
	c1.67,0.3,3.51,0.47,5.21-0.31c0.6-0.28,1.13-0.4,1.68,0.1c0.2,0.18,0.47,0.48,0.65,0.43c1.33-0.34,2.59-0.61,4.02-0.25
	c0.65,0.16,1.85-0.62,2.56-0.38c2.29,0.77,4.64,0.09,6.91,0.73c0,4.02,0,8.04,0,12.06c-0.17,0.23-0.37,0.41-0.47,0.72
	c-0.47,1.47-0.99,1.76-2.07,0.92c-0.59-0.46-1.05-0.51-1.63-0.09c-0.29,0.21-0.67,0.28-1,0.16c-2.34-0.91-4.65-0.05-6.98,0.07
	c-1.35,0.07-2.77,0.26-4.12-0.29c-0.2-0.08-0.4-0.27-0.59-0.05c-0.82,0.95-1.61,0.69-2.4-0.06c-0.14-0.13-0.33-0.28-0.47-0.2
	c-1.78,1-3.54-0.06-5.3-0.05c-0.61,0-1.23,0.34-1.85,0.49c-1.56,0.36-3.12,0.11-4.67,0.12c-0.93,0.01-1.89,0.25-2.7,0.16
	c-1.24-0.15-2.52-0.09-3.69-0.32c-2.31-0.45-4.49-0.04-6.74,0.19c-1.41,0.14-2.85-0.16-4.26-0.14c-1.28,0.02-2.53,0.48-3.73-0.41
	c-1.52,1.09-3.04-0.09-4.56,0c-1.22,0.07-2.4,0.5-3.62,0.52c-1.51,0.03-3.01,0.17-4.5-0.23c-0.2-0.05-0.4-0.28-0.59-0.06
	c-0.89,0.98-1.71,0.61-2.53-0.13c-0.1-0.09-0.25-0.18-0.36-0.12c-1.74,1.01-3.46-0.06-5.18-0.09c-0.36-0.01-0.64,0.28-0.97,0.34
	c-2.26,0.39-4.51,0.28-6.78,0.18c-1.22-0.05-2.44,0.37-3.61-0.41c-1.56,1.1-3.12-0.13-4.68-0.03c-1.06,0.07-2.07,0.38-3.11,0.53
	c-1.61,0.23-3.19-0.13-4.78-0.03c-0.91-0.2-1.24-1.15-1.68-1.93c-1.64-2.87-1.64-2.87-3.31-0.11c-0.35,0.58-0.69,1.17-1.3,1.39
	c-2.11,0.32-4.23,0.58-6.34,0.77c-1.24,0.11-2.59-0.14-3.86-0.17c-1.26-0.03-2.51,0.46-3.69-0.42c-1.31,1.22-2.68-0.13-4.04,0.1
	c-0.87,0.14-1.43-0.94-1.87-1.84c-0.18-0.73,0.13-1.29,0.45-1.85c1.83-3.21,3.73-6.36,5.61-9.52
	C319.28,465.23,319.62,464.77,320.22,464.92z"/>
<path class="st14" d="M436.97,491.55c0,6.39,0,12.78,0,19.17c-0.27,0.41-0.65,0.38-1.04,0.43c-2.34,0.26-4.67-0.13-7-0.03
	c-2.17,0.09-4.28-0.36-6.42-0.37c-1.03-0.01-2.03,0.46-3.11,0.48c-2.3,0.05-4.59-0.19-6.88-0.12c-2.16,0.07-4.28-0.3-6.42-0.36
	c-0.97-0.03-1.93,0.49-2.98,0.48c-2.21-0.02-4.42,0.12-6.63-0.16c-0.59-0.07-1.19-0.12-1.75,0.25c-0.15,0.1-0.38,0.17-0.49,0.07
	c-1.31-1.18-2.84,0.03-4.19-0.6c-0.25-0.12-0.5-0.13-0.75,0c-1.55,0.83-3.23,0.02-4.75,0.42c-2.15,0.57-4.26-0.93-6.35,0.15
	c-0.27,0.14-0.62,0.1-0.87-0.09c-0.7-0.57-1.45-0.26-2.17-0.35c-2.36-0.3-4.68,0.3-7.02,0.38c-2.11,0.07-4.26-1-6.35,0.09
	c-0.11,0.06-0.29,0.09-0.37,0.02c-1.3-1.14-2.94,0.09-4.25-0.91c-0.09-0.07-0.25,0.01-0.38-0.01c-0.65-0.16-0.98-0.79-1.31-1.38
	c-2.69-4.74-5.42-9.45-8.14-14.16c-0.36-0.63-0.72-1.3-0.46-2.15c0.14-1.46,0.85-2,2.02-1.93c0.89,0.05,1.78-0.03,2.63,0.45
	c0.51,0.29,1.05,0.24,1.62,0.07c1.28-0.39,2.56-0.59,3.91-0.31c1.16,0.23,2.38,0.27,3.52-0.34c0.12-0.06,0.25-0.12,0.37-0.1
	c2.31,0.37,4.67-0.14,6.94,0.69c0.54,0.2,1.05,0.23,1.62,0.06c1.28-0.38,2.56-0.58,3.91-0.31c1.16,0.23,2.38,0.27,3.52-0.34
	c0.12-0.06,0.25-0.11,0.37-0.1c2.31,0.36,4.67-0.14,6.94,0.69c0.54,0.2,1.05,0.22,1.62,0.05c1.28-0.38,2.56-0.58,3.91-0.31
	c1.16,0.23,2.38,0.27,3.52-0.34c0.12-0.06,0.25-0.11,0.37-0.09c2.3,0.37,4.67-0.14,6.94,0.69c0.54,0.2,1.05,0.22,1.62,0.05
	c1.28-0.38,2.56-0.58,3.91-0.31c1.16,0.24,2.38,0.27,3.52-0.34c0.12-0.06,0.25-0.12,0.37-0.09c2.3,0.38,4.67-0.15,6.94,0.69
	c0.54,0.2,1.05,0.22,1.62,0.05c1.28-0.38,2.56-0.59,3.91-0.31c1.16,0.24,2.38,0.26,3.52-0.34c0.12-0.06,0.25-0.12,0.37-0.1
	c2.3,0.38,4.67-0.15,6.94,0.69c0.54,0.2,1.06,0.27,1.62,0.05C435.66,491.11,436.35,491.06,436.97,491.55z"/>
<path class="st16" d="M356.89,510.14c1.37,0.52,2.91-0.93,4.21,0.51c0.2,0.22,0.49,0.34,0.69,0.09c0.53-0.65,1.15-0.37,1.77-0.42
	c0.97-0.08,1.89-0.24,2.73,0.5c0.06,0.06,0.19,0.11,0.24,0.08c2.02-1.58,4.44,0.75,6.45-0.98c0.29-0.25,0.66-0.03,0.96,0.2
	c0.39,0.29,0.83,0.41,1.22,0.16c0.87-0.56,1.62-0.45,2.32,0.38c0.11,0.13,0.41,0.24,0.45,0.18c0.86-1.23,2.08-0.03,3.01-0.65
	c0.37-0.25,0.62-0.02,0.93,0.19c0.61,0.43,1.27,1.02,1.84-0.13c0.07-0.13,0.39-0.26,0.44-0.2c0.92,1.11,2.05,0.12,3.05,0.46
	c0.08,0.03,0.19,0.1,0.25,0.07c1.51-0.94,3.18,0.02,4.72-0.58c0.12-0.05,0.29-0.16,0.36-0.1c1.71,1.22,3.45,0.4,5.18,0.19
	c0.24-0.03,0.5,0.36,0.77,0.49c0.53,0.25,1.1,0.75,1.53-0.22c0.11-0.24,0.41-0.44,0.53-0.29c0.97,1.13,2.15,0.05,3.17,0.5
	c0.04,0.02,0.09,0.05,0.12,0.03c1.5-0.97,3.18,0.05,4.71-0.6c0.16-0.07,0.39-0.18,0.49-0.09c1.62,1.27,3.28,0.35,4.93,0.17
	c0.36-0.04,0.52,0.31,0.78,0.44c0.56,0.28,1.15,0.87,1.64-0.17c0.11-0.23,0.41-0.43,0.54-0.27c0.96,1.16,2.15,0.03,3.17,0.49
	c0.48,0.22,0.95,0.01,1.35-0.27c0.6-0.42,1.15-0.6,1.78-0.08c0.19,0.16,0.53,0.24,0.73,0.15c1.01-0.49,1.95-0.68,2.8,0.42
	c0.08,0.1,0.34,0.08,0.48,0.01c1.46-0.74,2.9-0.87,4.37-0.03c0.19,0.11,0.42,0.2,0.61,0.15c2-0.48,3.52-0.55,4.76-0.19
	c0,6.8,0,13.6,0,20.4c-0.68,0-1.39-0.13-1.79,0.81c-0.07,0.15-0.38,0.33-0.39,0.3c-0.97-1.4-2.35,0.09-3.48-0.82
	c-1.46-1.16-3.39-0.62-4.24,0.93c-1.32-2.99-3.34-1-5.08-1.02c-0.56-0.01-1.11,0.33-1.7-0.02c-0.24-0.14-0.75-0.21-0.84-0.05
	c-0.71,1.25-1.65,0.2-2.28,0.4c-1.64,0.51-2.88-0.84-4.36-0.75c-0.58,0.04-1.26,0.03-1.52,0.55c-0.63,1.24-1.11,0.35-1.41-0.12
	c-0.49-0.76-0.96-0.67-1.65-0.55c-1.51,0.28-3,1.13-4.58,0.42c-0.04-0.02-0.11-0.04-0.12-0.02c-1.04,1.58-2.47,0.06-3.62,0.67
	c-0.42,0.22-0.7-0.06-1.05-0.24c-1.18-0.59-2.53-1.22-3.63-0.32c-0.96,0.79-1.43,0.67-2-0.33c-0.2-0.34-0.5-0.49-0.78-0.32
	c-1.14,0.69-2.46,0.24-3.61,0.86c-0.39,0.21-0.74,0.06-1.11-0.1c-0.27-0.12-0.73-0.31-0.84-0.17c-0.81,1-1.63,1.19-2.56,0.29
	c-1.46,1.04-2.68-0.61-4.08-0.57c-1,0.03-1.73,0.22-2.27,1.44c-1.32-3-3.35-1.02-5.08-1.04c-0.56-0.01-1.1,0.31-1.7-0.02
	c-0.72-0.39-1.33-0.09-1.73,0.75c-0.7,0.22-0.98-0.41-1.29-0.95c-2.91-4.99-5.79-10.02-8.66-15.04c-0.75-1.31-1.56-2.56-2.24-3.93
	C356.95,511.53,356.51,510.93,356.89,510.14z"/>
<path class="st16" d="M175.03,511.02c1.29-0.03,2.62,0.43,3.82-0.53c0.03-0.03,0.09-0.04,0.12-0.03c1.57,0.75,3.22,0.21,4.83,0.43
	c1.81,0.25,3.64,0.73,5.42,0.04c0.88-0.34,1.56,0.31,2.35,0.2c1.24-0.16,2.52-0.43,3.69-0.48c1.56-0.07,3.21,0.25,4.82,0.17
	c1.44-0.07,2.75,0.99,4.31,0.34c0.89-0.38,2.01-0.28,3.1-0.12c1.15,0.17,2.44,0.35,3.72-0.33c1.55-0.83,3.21,0.57,4.96,0.08
	c1.45-0.41,2.97,0.95,4.64,0.35c0.93-0.34,2.03-0.25,3.1-0.09c1.15,0.16,2.54,0.61,3.69-0.42c0.13-0.11,0.35-0.21,0.48-0.15
	c1.58,0.73,3.23,0.19,4.83,0.41c1.81,0.25,3.64,0.73,5.42,0.04c0.88-0.34,1.56,0.31,2.35,0.2c1.24-0.16,2.52-0.43,3.69-0.48
	c1.56-0.07,3.21,0.27,4.82,0.16c1.37-0.09,2.63,1.18,4.04,0.34c0.35-0.21,0.64,0.13,0.83,0.51c0.43,0.86-0.06,1.49-0.41,2.1
	c-3.3,5.72-6.58,11.46-9.9,17.17c-0.34,0.59-0.62,1.44-1.47,1.08c-1.18,0.19-2.42-1.45-3.56,0.15c-0.07,0.1-0.3,0.19-0.34,0.14
	c-0.99-1.12-2.25-0.3-3.37-0.64c-1.29-0.38-2.92-1.5-4.07,0.63c-0.29,0.53-0.59,0.12-0.81-0.2c-0.72-1.06-1.38-1.42-2.68-0.91
	c-1.12,0.44-2.51,1.01-3.81,0.27c-0.04-0.02-0.1-0.07-0.12-0.05c-1.05,0.86-2.14,0.56-3.3,0.39c-0.53-0.08-1.1,0.16-1.63-0.29
	c-0.7-0.59-1.49,0.11-2.24-0.25c-0.81-0.39-1.36,0.09-1.76,0.99c-0.25,0.56-0.57,0.22-0.8-0.12c-0.76-1.11-1.46-1.45-2.79-0.92
	c-1.11,0.44-2.51,0.43-3.82,0.39c-1.06-0.03-2.22,0.42-3.41,0.21c-0.39-0.07-0.84,0.03-1.31-0.07c-1.45-0.31-3.04-1.59-4.3,0.59
	c-0.3,0.52-0.6,0.04-0.8-0.28c-0.73-1.15-1.44-1.29-2.69-0.85c-1.14,0.4-2.52,1.02-3.82,0.23c-0.04-0.02-0.1-0.06-0.12-0.04
	c-1.02,0.87-2.03,0.7-3.2,0.37c-0.49-0.13-1.19-0.22-1.72-0.19c-1.32,0.07-2.92-1.49-3.98,0.73c-0.21,0.43-0.54,0.24-0.73-0.09
	c-0.79-1.39-1.67-1.54-3.01-0.91c-0.92,0.43-2.09,0.22-3.08,0.75C175.03,525.04,175.03,518.03,175.03,511.02z"/>
<path class="st13" d="M368.33,377.76c0.53,0.61,0.91,1.69,1.79,0.26c0.37-0.6,1.29-0.2,1.74,0.34c0.6,0.73,1.08,0.61,1.66,0.08
	c1.01-0.91,1.93-1.26,3.01,0.08c0.56,0.7,1.45,0.77,2.05-0.39c0.37-0.71,0.84-1.31,1.24,0.1c0.2,0.7,0.69,0.95,1.14,0.17
	c0.46-0.8,1-0.84,1.66-0.38c0.37,0.26,0.77,0.47,1.2,0.14c0.6-0.46,1.11-0.44,1.54,0.32c0.19,0.33,0.44,0.56,0.7,0.08
	c0.66-1.27,1.55-0.82,2.18-0.17c0.65,0.66,1.09,0.58,1.67,0.05c1.02-0.92,1.93-1.24,3.01,0.09c0.57,0.7,1.46,0.76,2.05-0.4
	c0.38-0.74,0.85-1.27,1.24,0.11c0.2,0.71,0.7,0.93,1.14,0.15c0.46-0.8,1.01-0.83,1.66-0.37c0.37,0.26,0.77,0.47,1.2,0.14
	c0.6-0.46,1.11-0.42,1.54,0.33c0.19,0.33,0.44,0.54,0.7,0.06c0.67-1.26,1.53-0.79,2.19-0.16c0.58,0.55,0.98,0.64,1.56,0.13
	c1.02-0.9,1.98-1.42,3.11,0.02c0.56,0.71,1.46,0.74,2.05-0.41c0.39-0.76,0.86-1.24,1.24,0.13c0.2,0.72,0.68,0.89,1.15,0.14
	c0.15-0.24,0.47-0.62,0.55-0.57c1.22,0.79,2.68-0.45,3.83,0.69c0.26,0.26,0.46,0.5,0.71,0.03c0.67-1.25,1.53-0.78,2.19-0.15
	c0.58,0.56,0.98,0.63,1.56,0.12c1.03-0.91,1.99-1.4,3.12,0.03c0.56,0.71,1.46,0.73,2.04-0.43c0.4-0.79,0.86-1.18,1.24,0.15
	c0.21,0.72,0.69,0.87,1.15,0.13c0.15-0.24,0.47-0.62,0.55-0.57c1.21,0.82,2.68-0.48,3.83,0.7c0.26,0.27,0.49,0.5,0.7,0.01
	c0.41-0.97,1.15-0.67,1.8-0.73c0,6.49,0,12.98,0,19.47c-0.56,0.63-1.43,0.62-1.95,1.36c-0.16,0.22-0.51,0.2-0.73,0.02
	c-0.49-0.39-0.94-0.32-1.44-0.03c-0.4,0.23-0.83,0.14-1.23-0.11c-1.25-0.76-2.52-1.14-3.87-0.32c-0.23,0.14-0.52,0.29-0.74,0.17
	c-1.01-0.53-2.04-0.23-3.07-0.23c-0.8,0-1.64,0.35-2.27,0.26c-1.4-0.2-2.75,0.22-4.12,0.07c-0.08-0.01-0.18-0.14-0.23-0.1
	c-1.27,0.95-2.34-0.24-3.5-0.46c-0.85-0.16-1.66-0.3-2.45,0.29c-0.25,0.19-0.61,0.32-0.86,0.16c-0.93-0.56-1.87-0.22-2.82-0.21
	c-0.83,0.01-1.71,0.31-2.4,0.24c-1.4-0.16-2.75,0.28-4.12,0.06c-0.08-0.01-0.18-0.14-0.23-0.1c-1.16,0.8-2.17-0.09-3.25-0.37
	c-0.88-0.23-1.83-0.53-2.7,0.22c-0.24,0.2-0.61,0.32-0.86,0.15c-0.93-0.6-1.87-0.18-2.82-0.21c-0.84-0.02-1.62-0.22-2.42,0.36
	c-0.77,0.56-1.45-0.76-2.15-0.47c-0.66,0.28-1.17,1.08-1.95,0.41c-0.07-0.06-0.17-0.14-0.24-0.1c-1.12,0.77-2.09-0.05-3.13-0.36
	c-0.92-0.27-1.91-0.54-2.83,0.21c-0.28,0.23-0.69,0.31-0.99,0.12c-0.76-0.47-1.5-0.3-2.31-0.21c-1.02,0.11-2.06-0.28-3.04,0.46
	c-0.27,0.2-0.69,0.03-0.97-0.23c-0.52-0.48-1-0.51-1.46,0.09c-0.09,0.11-0.26,0.26-0.32,0.21c-1.16-0.83-2.4,0.57-3.65-0.3
	c-0.99-0.69-2.22-1-3.4-0.23c-0.22,0.14-0.52,0.33-0.73,0.22c-1.28-0.69-2.54-0.12-3.81-0.01c-0.21,0.02-0.41-0.14-0.57-0.32
	c-0.41-0.75-0.08-1.39,0.24-1.98c3.16-5.69,6.18-11.5,9.37-17.16C367.28,378.3,367.58,377.61,368.33,377.76z"/>
<path class="st17" d="M357.36,397.86c0.92-0.16,1.86-0.19,2.64-0.97c0.26-0.27,0.76-0.38,0.86,0.14c0.3,1.57,1.04,0.62,1.53,0.37
	c0.81-0.42,3.25-0.41,3.85,0.34c0.49,0.61,0.78,0.61,1.24,0.02c0.52-0.67,1.03-0.63,1.45,0.2c0.28,0.55,0.65,0.44,0.68-0.11
	c0.1-1.89,1-0.81,1.42-0.48c0.74,0.58,1.33,1.17,1.98-0.09c0.17-0.32,0.55-0.38,0.82-0.19c0.91,0.64,1.75,0.66,2.58-0.22
	c0.26-0.27,0.76-0.32,0.85,0.2c0.26,1.49,1.07,0.68,1.41,0.38c1.39-1.24,2.66-0.15,3.87,0.29c0.54,0.19,0.82,0.69,1.33,0
	c0.46-0.61,0.98-0.61,1.37,0.14c0.32,0.62,0.71,0.59,0.73-0.07c0.07-1.87,0.97-0.75,1.34-0.48c0.77,0.55,1.37,1.24,2.1-0.07
	c0.27-0.49,0.77-0.23,1.17,0.03c0.52,0.35,1.07,0.42,1.59,0.06c0.64-0.44,1.22-1.36,1.67,0.32c0.13,0.5,0.84-0.04,1.26-0.22
	c0.38-0.16,0.62-0.97,1.07-0.63c0.9,0.69,2.11-0.03,2.87,0.99c0.44,0.59,0.75,0.51,1.14,0c0.51-0.66,1.02-0.73,1.45,0.11
	c0.26,0.5,0.66,0.57,0.69-0.01c0.07-1.81,0.94-0.96,1.4-0.57c0.79,0.66,1.43,1.15,2.08-0.13c0.02-0.04,0.08-0.09,0.1-0.08
	c1.3,0.35,2.59,0.58,3.8-0.4c0.81,1.95,1.64,0.25,2.51,0.19c0.98-0.07,2.24-0.02,3.12,0.82c0.52,0.5,0.78,0.62,1.24,0.03
	c0.52-0.67,1.02-0.65,1.45,0.18c0.27,0.54,0.65,0.47,0.68-0.09c0.09-1.87,0.98-0.83,1.42-0.5c0.74,0.56,1.33,1.21,1.98-0.08
	c0.16-0.32,0.55-0.4,0.82-0.2c0.97,0.72,1.83,0.57,2.7-0.27c0.23-0.23,0.67-0.2,0.74,0.24c0.23,1.5,1.03,0.69,1.41,0.4
	c1.48-1.12,2.78-0.27,4.04,0.46c0.48,0.28,0.72,0.37,1.07-0.07c0.56-0.72,1.08-0.78,1.53,0.15c0.23,0.46,0.63,0.39,0.63-0.02
	c0-1.68,0.8-0.92,1.42-0.77c0.17,0.04,0.34,0.05,0.51,0.07c0,5.46,0,10.92,0,16.38c-0.85,1.35-1.87,1.72-3.26,1.15
	c-0.9-0.37-1.99-0.18-2.89-0.01c-1.49,0.28-2.93-0.21-4.4,0.09c-0.87,0.18-1.79,0.2-2.64-0.28c-0.16-0.09-0.35-0.23-0.49-0.14
	c-1.12,0.68-2.36,0.16-3.43,0.42c-1.61,0.39-3.09-0.39-4.66-0.11c-1.64,0.29-3.33,0.08-5,0.13c-0.93,0.03-1.88,0.2-2.77-0.28
	c-0.16-0.08-0.34-0.24-0.48-0.16c-1.12,0.63-2.36,0.17-3.42,0.43c-1.57,0.39-3-0.37-4.53-0.1c-1.76,0.3-3.58,0-5.38,0.12
	c-0.89,0.06-1.79,0.18-2.64-0.33c-0.15-0.09-0.35-0.21-0.49-0.12c-1.08,0.67-2.24,0.22-3.3,0.41c-1.72,0.3-3.35-0.42-5.02-0.11
	c-1.49,0.28-3,0.03-4.5,0.12c-1.02,0.06-2.04,0.25-3.02-0.28c-0.2-0.11-0.43-0.24-0.61-0.12c-1.04,0.7-2.21,0.14-3.17,0.4
	c-1.58,0.43-3-0.35-4.54-0.09c-1.8,0.3-3.67,0.05-5.51,0.13c-0.85,0.04-1.71,0.15-2.52-0.31c-0.16-0.09-0.35-0.23-0.48-0.14
	c-1.15,0.74-2.41,0.2-3.56,0.45c-1.56,0.33-3.01-0.49-4.53-0.19c-0.45,0.09-0.86-0.39-1.14-0.88c-0.32-0.84,0.07-1.51,0.42-2.14
	c2.34-4.17,4.57-8.43,6.88-12.62C356.24,398.47,356.54,397.67,357.36,397.86z"/>
<path class="st12" d="M279.46,443.61c-1.05-0.01-2.13,0.26-3.11-0.48c-0.1-0.07-0.28-0.11-0.37-0.05c-1.12,0.7-2.23,1.16-3.39,0.06
	c-0.08-0.08-0.45,0.21-0.65,0.39c-0.5,0.47-1.06,0.56-1.55,0.18c-1.03-0.78-2.04-0.51-3.06-0.1c-0.76,0.3-1.46,0.5-2.15-0.26
	c-0.38-0.42-0.86-0.4-1.32-0.15c-1.23,0.65-2.46,0.66-3.69,0c-0.44-0.23-0.83-0.12-1.22,0.13c-0.3,0.19-0.76,0.62-0.88,0.51
	c-1.52-1.41-3.25,0.72-4.83-0.5c-0.74-0.57-1.66,0.04-2.46,0.34c-0.69,0.26-1.31,0.36-1.91-0.28c-0.42-0.46-0.92-0.44-1.43-0.17
	c-1.19,0.62-2.42,0.05-3.57,0.15c-1.62,0.15-3.28-0.23-4.87,0.34c-0.48,0.17-0.94,0.31-1.35,0c-1.07-0.83-2.12-0.49-3.18-0.06
	c-0.73,0.3-1.39,0.4-2.02-0.3c-0.38-0.42-0.86-0.41-1.32-0.16c-1.23,0.65-2.46,0.66-3.69,0.01c-0.44-0.23-0.83-0.13-1.22,0.12
	c-0.3,0.19-0.77,0.62-0.88,0.51c-1.52-1.41-3.26,0.73-4.83-0.49c-0.74-0.58-1.66,0.03-2.46,0.33c-0.69,0.25-1.31,0.38-1.91-0.27
	c-0.42-0.46-0.92-0.45-1.43-0.18c-1.19,0.63-2.41,0.06-3.57,0.16c-1.62,0.13-3.28-0.21-4.86,0.33c-0.48,0.16-0.94,0.32-1.35,0.01
	c-1.07-0.83-2.12-0.5-3.18-0.07c-0.73,0.3-1.39,0.42-2.02-0.28c-0.38-0.42-0.86-0.42-1.32-0.17c-1.23,0.65-2.46,0.67-3.69,0.02
	c-0.49-0.26-0.91-0.09-1.34,0.18c-0.3,0.19-0.78,0.59-0.89,0.47c-1.51-1.48-3.26,0.81-4.83-0.55c-0.62-0.54-1.57,0.07-2.33,0.36
	c-0.68,0.26-1.31,0.39-1.91-0.26c-0.42-0.46-0.92-0.47-1.43-0.19c-1.19,0.63-2.39,0.64-3.57,0.02c-0.54-0.28-1.01-0.17-1.44,0.2
	c-0.62,0.54-1.24,0.62-1.91,0.19c0-4.22,0-8.45,0-12.67c0.29-0.31,0.49-0.71,0.71-1.08c0.36-0.59,0.94-0.99,1.45-0.71
	c1.92,1.04,3.98,0.56,5.93,0.62c1.96,0.06,3.93-0.22,5.92,0.04c0.8,0.1,1.79,0.16,2.47-0.07c1.31-0.43,2.44-0.12,3.68-0.06
	c1.36,0.07,2.81,0.4,4.14,0.13c2.29-0.46,4.54,0.04,6.8-0.14c0.47-0.04,0.94-0.16,1.39,0.05c0.44,0.21,0.81,0.17,1.18-0.2
	c0.38-0.36,0.88-0.63,1.32-0.38c1.99,1.13,4.23,0.84,6.16,0.57c2.31-0.32,4.54,0.39,6.82-0.06c0.9-0.18,1.89,0.28,2.75-0.49
	c0.12-0.11,0.35-0.14,0.5-0.05c1.89,1.14,4,0.72,5.9,0.61c2.32-0.14,4.63,0.25,6.93-0.09c0.34-0.05,0.69-0.12,1.01,0.03
	c0.57,0.28,1.05,0.24,1.53-0.25c0.3-0.3,0.74-0.49,1.09-0.29c1.94,1.16,4.06,0.06,6.04,0.76c0.36,0.13,0.77,0.01,1.13-0.15
	c0.95-0.42,1.92-0.5,2.88-0.11c1.45,0.59,2.95-0.44,4.4,0.24c0.3,0.14,0.53-0.26,0.79-0.43c0.42-0.29,0.88-0.48,1.34-0.26
	c2.09,1,4.36,0.78,6.4,0.54c2.25-0.27,4.38,0.32,6.56,0.23c0.48,0.2,0.77,0.66,1,1.14c1.79,3.67,4.01,6.98,5.92,10.56
	C279.47,442.24,279.9,442.84,279.46,443.61z"/>
<path class="st18" d="M436.97,491.55c-1.49,0.46-2.96,1.35-4.5,0.14c-0.16-0.13-0.41-0.11-0.62-0.13c-1.5-0.1-2.99,0.08-4.52-0.23
	c-1.32-0.26-2.69,0.77-4.13,0.53c-1.69-0.28-3.37-0.44-4.98,0.51c-0.4,0.23-0.85-0.06-1.22-0.28c-0.83-0.5-1.71-0.57-2.61-0.55
	c-1.04,0.02-2.08,0.34-3.11-0.24c-0.37-0.2-0.96-0.08-1.37,0.12c-1.37,0.69-2.78,0.56-4.15,0.31c-1.19-0.22-2.3-0.05-3.36,0.43
	c-0.63,0.28-1.17,0.28-1.71-0.04c-0.92-0.55-1.87-0.6-2.86-0.57c-0.95,0.03-1.94,0.45-2.85-0.27c-0.06-0.05-0.18-0.05-0.25-0.02
	c-2.96,1.37-6.18-0.44-9.12,1.1c-0.43,0.22-0.86,0.01-1.23-0.21c-1.29-0.78-2.64-0.68-4-0.48c-0.44,0.07-0.82,0.07-1.22-0.18
	c-0.6-0.37-1.27-0.38-1.87-0.1c-1.58,0.73-3.17,0.56-4.77,0.26c-0.95-0.18-1.89,0.08-2.75,0.47c-0.66,0.3-1.23,0.38-1.83,0.02
	c-0.91-0.56-1.87-0.61-2.86-0.57c-0.96,0.04-1.94,0.43-2.85-0.27c-0.06-0.05-0.18-0.05-0.25-0.02c-2.96,1.37-6.18-0.44-9.12,1.1
	c-0.51,0.26-1.02-0.06-1.47-0.32c-0.72-0.41-1.47-0.42-2.23-0.51c-1.11-0.13-1.81,0.27-2,1.66c-0.7,0.19-1.01-0.45-1.32-0.97
	c-2.23-3.81-4.46-7.62-6.6-11.51c-0.3-0.54-0.72-1.08-0.29-1.8c1.92-0.57,3.87-0.11,5.81-0.23c0.9-0.06,1.25-1.62,1.87-0.98
	c0.72,0.75,1.25,0.88,2.01,0.39c0.1-0.06,0.3-0.07,0.37,0c0.9,0.91,1.65,0.93,2.51-0.21c0.37-0.5,0.75,0.39,1.14,0.63
	c0.48,0.29,1.16,1.9,1.45-0.28c0.11-0.83,0.79-0.67,1.15-0.06c0.28,0.46,0.55,0.84,1.03,0.66c1.54-0.57,3.11,0.27,4.66-0.22
	c0.52-0.16,1.12,0.08,1.42-0.72c0.12-0.31,0.47-0.55,0.61-0.28c0.59,1.08,1.29,0.88,2.1,0.47c0.35-0.18,0.63,0.21,0.9,0.45
	c0.48,0.44,1.01,0.46,1.36-0.12c0.61-0.99,1.06-0.61,1.65,0.04c0.52,0.57,1.19,1.68,1.5-0.32c0.11-0.69,0.81-0.61,1.09-0.03
	c0.44,0.91,0.98,0.77,1.64,0.55c1.2-0.41,2.39,0.33,3.67,0.02c0.89-0.22,1.65-1.01,2.31-0.99c0.65,0.02,1.29,1.16,2.2,0.4
	c0.1-0.09,0.38-0.04,0.48,0.07c0.83,0.9,1.49,0.83,2.28-0.21c0.48-0.63,0.84,0.32,1.25,0.58c0.5,0.32,1.21,1.85,1.43-0.32
	c0.08-0.72,0.7-0.63,1.1-0.15c0.23,0.28,0.33,0.85,0.72,0.77c1.93-0.39,3.88,0.13,5.8-0.28c0.34-0.07,0.49-0.36,0.65-0.68
	c0.12-0.24,0.43-0.47,0.5-0.31c0.81,1.88,2.56-0.35,3.48,1.19c0.2,0.34,0.76,0.06,1-0.34c0.53-0.89,0.96-0.66,1.56-0.05
	c0.48,0.49,1.22,2.09,1.58-0.24c0.11-0.69,0.77-0.55,1.1,0.01c0.27,0.45,0.56,0.94,1.01,0.69c1.37-0.76,2.75,0.31,4.17-0.16
	c0.83-0.28,1.63-0.25,2.39-1c0.21-0.21,1.29,1.3,2.25,0.43c0.09-0.09,0.38-0.03,0.48,0.08c0.84,0.94,1.51,0.78,2.27-0.23
	c0.43-0.57,0.78,0.26,1.16,0.5c0.51,0.33,1.21,2.09,1.51-0.25c0.09-0.71,0.72-0.61,1.11-0.11c0.23,0.29,0.33,0.84,0.73,0.75
	c1.93-0.43,3.88,0.13,5.8-0.29c0.28-0.06,0.44-0.28,0.57-0.56c0.24-0.51,0.59-0.68,0.89-0.14c0.44,0.8,0.94,0.72,1.54,0.36
	c0.18-0.11,0.49-0.21,0.6-0.1c0.91,0.86,1.68,1,2.5-0.22c0.29-0.43,0.68,0.13,0.96,0.42c1.03,1.06,1.04,1.06,1.64-0.2
	c0.24-0.5,0.65-0.42,1.02-0.44C436.97,482.28,436.97,486.91,436.97,491.55z"/>
<path class="st11" d="M348.69,413.64c1.43,0.97,3.14-0.15,4.56,0.87c0.9-0.93,1.81-0.63,2.72-0.02c0.03,0.02,0.1,0.02,0.12-0.01
	c1.23-1.48,2.56-0.33,3.85-0.22c0.63,0.05,1.28,0.08,1.86-0.35c0.49-0.37,0.99-0.83,1.2,0.34c0.06,0.35,0.33,0.23,0.54,0.17
	c1.96-0.6,3.91-0.65,5.85,0.06c0.26,0.09,0.54,0.07,0.71-0.19c0.5-0.74,0.99-0.59,1.55-0.1c0.63,0.55,1.22,0.29,1.74-0.27
	c0.4-0.44,0.77-0.53,1.26-0.2c1.25,0.86,2.51,0.78,3.76,0c0.23-0.14,0.59-0.4,0.68-0.11c0.43,1.46,1.19,0.4,1.82,0.46
	c1.5,0.12,3-0.12,4.53,0.17c1.17,0.22,2.55,0.22,3.67-0.03c0.98-0.22,1.73-0.63,2.76-0.05c0.65,0.36,1.51,0.21,2.26-0.03
	c0.62-0.2,1.32-1.36,1.73,0.29c0.01,0.05,0.26,0.08,0.35,0.01c1.24-0.87,2.6-0.09,3.88-0.43c0.46-0.12,0.93-0.06,1.38,0.17
	c1.29,0.66,2.68-0.92,3.94,0.25c0.94-1.09,1.88-0.69,2.98-0.25c0.83,0.34,1.86,0.3,2.71-0.4c0.17-0.14,0.55-0.27,0.56-0.26
	c0.58,1.6,1.52,0.52,2.31,0.45c0.89-0.07,1.76,0.36,2.66,0.03c0.33-0.12,0.75,0.07,1.13,0.14c0.12,0.02,0.26,0.08,0.35,0.18
	c0.89,0.91,1.46-1.14,2.29-0.38c0.82,0.75,1.56,0.67,2.28-0.17c0.33-0.39,0.69-0.3,1.05-0.05c1.25,0.86,2.51,0.79,3.77,0.03
	c0.27-0.16,0.68-0.45,0.77-0.06c0.31,1.3,0.93,0.5,1.48,0.47c1.59-0.08,3.19-0.44,4.76,0.18c0.49,0.19,0.9,0.27,1.27-0.25
	c0.31-0.44,0.75-0.44,1.18-0.44c0,3.19,0,6.39,0,9.58c-0.21,0.25-0.4,0.53-0.56,0.83c-0.73,1.35-1.31,1.48-2.43,0.68
	c-1.09-0.78-2.25-1.1-3.46-0.36c-0.39,0.24-0.83,0.44-1.23,0.25c-1.79-0.8-3.73,0.5-5.5-0.6c-0.3-0.19-0.65,0.13-0.97,0.28
	c-0.43,0.21-0.91,0.45-1.36,0.3c-0.82-0.26-1.52-0.29-2.22,0.46c-0.36,0.38-0.93,0.22-1.33-0.11c-1.28-1.06-2.6-1.34-4.03-0.44
	c-0.23,0.14-0.52,0.25-0.75,0.14c-1.83-0.81-3.81,0.46-5.62-0.62c-0.31-0.18-0.66,0.05-0.98,0.23c-0.47,0.26-0.98,0.49-1.48,0.35
	c-0.77-0.22-1.42-0.34-2.1,0.41c-0.43,0.48-1.06,0.24-1.55-0.16c-1.21-0.97-2.47-1.2-3.8-0.39c-0.27,0.16-0.6,0.3-0.87,0.18
	c-1.83-0.86-3.81,0.5-5.62-0.62c-0.3-0.19-0.66,0.07-0.97,0.24c-0.55,0.3-1.15,0.53-1.74,0.29c-0.62-0.25-1.1-0.24-1.62,0.33
	c-0.49,0.53-1.14,0.46-1.67,0.01c-1.25-1.05-2.53-1.26-3.91-0.43c-0.27,0.16-0.6,0.29-0.87,0.17c-1.83-0.85-3.81,0.49-5.62-0.62
	c-0.3-0.19-0.65,0.1-0.97,0.27c-0.39,0.21-0.82,0.43-1.23,0.33c-0.89-0.23-1.7-0.35-2.47,0.48c-0.31,0.33-0.85,0.17-1.21-0.13
	c-1.32-1.12-2.68-1.37-4.14-0.44c-0.26,0.17-0.6,0.22-0.88,0.1c-1.79-0.81-3.73,0.49-5.5-0.61c-0.3-0.19-0.65,0.13-0.97,0.28
	c-0.43,0.22-0.91,0.46-1.36,0.3c-0.82-0.28-1.52-0.26-2.22,0.45c-0.37,0.37-0.93,0.23-1.33-0.11c-1.28-1.07-2.55-0.82-4.05-0.58
	c-1.56,0.26-3.34,0.49-4.92-0.47c-0.07-0.04-0.13-0.14-0.18-0.22c-0.28-0.63-0.1-1.19,0.19-1.73c1.34-2.49,2.6-5.04,4.01-7.47
	C347.76,414.01,348.06,413.46,348.69,413.64z"/>
<path class="st12" d="M343.34,423.54c0.95,0.03,1.91,0.6,2.84-0.17c0.21-0.18,0.49,0.07,0.69,0.28c0.69,0.72,1.33,0.61,1.88-0.21
	c0.35-0.53,0.67-0.76,1.15-0.22c0.23,0.26,0.54,0.38,0.83,0.25c0.72-0.33,1.21,0.05,1.68,0.65c0.56,0.71,1.1,0.98,1.58-0.16
	c0.27-0.63,0.76-0.91,1.26-0.35c0.64,0.73,1.27,0.46,1.87,0.04c0.7-0.48,1.35-0.52,2.05-0.05c0.67,0.44,1.44,0.37,2.13,0.21
	c0.9-0.2,1.76-0.69,2.58,0.26c0.1,0.12,0.5,0.08,0.6-0.06c0.75-1.11,1.58-0.83,2.6-0.62c0.69,0.14,1.26,0.18,1.77,0.81
	c0.54,0.68,1.06,0.83,1.5-0.2c0.26-0.62,0.75-0.97,1.25-0.41c0.64,0.71,1.26,0.51,1.87,0.09c0.69-0.48,1.35-0.58,2.05-0.09
	c0.55,0.39,1.16,0.28,1.75,0.27c1.03-0.03,2.1-0.96,3.08,0.24c0.07,0.09,0.39,0.05,0.48-0.07c0.76-0.99,1.53-0.95,2.6-0.65
	c0.71,0.2,1.33,0.24,1.86,0.9c0.52,0.63,1.01,0.7,1.41-0.24c0.26-0.61,0.72-1.03,1.24-0.47c0.69,0.75,1.33,0.51,1.98,0.06
	c0.65-0.45,1.28-0.51,1.93-0.06c0.64,0.44,1.34,0.35,2,0.27c0.96-0.12,1.93-0.77,2.82,0.25c0.08,0.09,0.43,0.06,0.48-0.04
	c0.82-1.65,2.06-0.44,3.08-0.68c0.69-0.16,0.98,0.47,1.39,0.89c0.53,0.55,1,0.79,1.42-0.18c0.29-0.68,0.77-1.08,1.33-0.45
	c0.6,0.66,1.19,0.48,1.76,0.09c0.73-0.5,1.42-0.64,2.17-0.1c0.42,0.31,0.91,0.21,1.37,0.25c1.15,0.09,2.35-1.02,3.46,0.24
	c0.08,0.09,0.39,0.03,0.48-0.09c0.71-0.98,1.44-0.89,2.48-0.63c0.75,0.19,1.41,0.23,1.98,0.93c0.46,0.56,0.95,0.67,1.33-0.2
	c0.29-0.66,0.74-1.14,1.32-0.51c0.65,0.7,1.27,0.48,1.87,0.07c0.69-0.48,1.35-0.55,2.05-0.08c0.67,0.45,1.44,0.36,2.13,0.23
	c0.89-0.17,1.76-0.74,2.58,0.25c0.1,0.12,0.5,0.09,0.6-0.05c0.76-1.04,1.55-0.92,2.61-0.63c0.65,0.18,1.26,0.15,1.77,0.8
	c0.52,0.66,1.06,0.9,1.49-0.16c0.23-0.57,0.66-0.78,1.16-0.77c0,2.27,0,4.53,0,6.8c-1.4-0.02-2.87,0.65-4.18-0.54
	c-0.11-0.11-0.36-0.13-0.5-0.06c-2.28,1.17-4.63,0.42-6.95,0.36c-0.27-0.01-0.57,0.2-0.82,0.37c-0.34,0.23-0.63,0.35-0.83-0.2
	c-0.49-1.33-1.26-0.91-1.85-0.27c-0.62,0.68-1.14,0.89-1.9,0.41c-0.37-0.24-0.84-0.03-1.25,0.11c-0.43,0.14-0.85,0.16-1.23-0.16
	c-0.98-0.83-1.96-0.75-3.02-0.22c-0.91,0.45-1.81,0.46-2.84,0.14c-1.08-0.33-2.33-0.48-3.45,0.2c-0.35,0.21-0.63,0.35-0.83-0.2
	c-0.49-1.33-1.26-0.91-1.85-0.27c-0.62,0.68-1.14,0.89-1.91,0.41c-0.37-0.23-0.84-0.03-1.25,0.11c-0.43,0.14-0.85,0.16-1.23-0.16
	c-0.98-0.83-1.96-0.75-3.02-0.22c-0.91,0.45-1.81,0.45-2.84,0.14c-1.08-0.33-2.33-0.48-3.45,0.2c-0.35,0.21-0.63,0.34-0.83-0.2
	c-0.49-1.33-1.26-0.91-1.85-0.27c-0.62,0.68-1.14,0.89-1.91,0.41c-0.37-0.23-0.84-0.03-1.25,0.11c-0.43,0.14-0.85,0.16-1.23-0.16
	c-0.98-0.83-1.96-0.75-3.02-0.22c-0.91,0.45-1.81,0.45-2.84,0.13c-1.08-0.33-2.33-0.48-3.45,0.2c-0.35,0.21-0.63,0.34-0.83-0.2
	c-0.49-1.33-1.26-0.91-1.85-0.26c-0.62,0.69-1.14,0.89-1.91,0.41c-0.37-0.23-0.84-0.03-1.25,0.11c-0.43,0.14-0.85,0.16-1.23-0.16
	c-0.98-0.83-1.96-0.75-3.03-0.22c-0.91,0.45-1.81,0.45-2.84,0.13c-1.08-0.33-2.33-0.48-3.45,0.2c-0.35,0.21-0.63,0.34-0.83-0.2
	c-0.49-1.33-1.26-0.91-1.85-0.26c-0.62,0.69-1.14,0.88-1.91,0.4c-0.37-0.23-0.84-0.03-1.25,0.11c-0.43,0.14-0.85,0.16-1.23-0.16
	c-0.98-0.83-1.96-0.75-3.02-0.22c-0.91,0.45-1.81,0.45-2.84,0.13c-1.08-0.33-2.33-0.48-3.45,0.2c-0.35,0.22-0.66,0.35-0.82-0.21
	c-0.28-0.99-0.97-0.83-1.6-0.87c-0.14-0.27-0.22-0.59-0.11-0.87c0.66-1.65,1.47-3.17,2.5-4.52
	C342.81,423.48,343.07,423.39,343.34,423.54z"/>
<path class="st12" d="M272.18,430.35c-0.96,0.3-1.92,0.33-2.89,0.02c-1.04-0.33-2.08-0.34-3.12,0.16c-1.04,0.5-2.09-0.21-3.16-0.14
	c-0.84,0.06-1.68-0.51-2.43,0.54c-0.3,0.42-0.67-0.19-0.87-0.58c-0.51-0.98-1.06-0.91-1.63-0.12c-0.5,0.68-0.99,0.99-1.59,0.19
	c-0.23-0.31-0.54-0.28-0.83-0.13c-0.87,0.45-1.74,0.34-2.63,0.09c-1.09-0.3-2.16-0.39-3.25,0.14c-0.44,0.21-1.01,0.06-1.51,0.07
	c-1.35,0.02-2.76-1.1-4.06,0.37c-0.3,0.34-0.63-0.14-0.8-0.5c-0.5-1.03-1.07-1.1-1.71-0.2c-0.5,0.7-1,0.94-1.6,0.15
	c-0.19-0.25-0.47-0.29-0.71-0.15c-1,0.56-2,0.35-3,0.07c-0.98-0.27-1.9-0.22-2.87,0.16c-1.29,0.5-2.6-0.23-3.91-0.18
	c-0.12,0-0.27-0.16-0.36-0.11c-1.08,0.54-2.15,1.02-2.96-0.56c-0.01-0.02-0.1-0.02-0.12,0.01c-0.98,1.39-2.2,0.79-3.41,0.76
	c-0.74-0.01-1.48,0.21-2.25,0.01c-1.16-0.31-2.3-0.38-3.51,0.1c-1.22,0.48-2.51-0.22-3.78-0.21c-0.08,0-0.18-0.1-0.24-0.08
	c-1.11,0.44-2.24,1.03-3.09-0.58c-0.02-0.04-0.2-0.02-0.24,0.04c-0.88,1.26-1.89,0.82-3.05,0.7c-0.91-0.09-1.91,0.22-2.87-0.05
	c-1.02-0.29-1.98-0.19-3,0.15c-1.32,0.45-2.68-0.13-4.03-0.25c-0.34-0.03-0.7-0.28-0.96,0.09c-0.66,0.97-1.12,0.82-1.65-0.2
	c-0.45-0.87-1.01-0.56-1.47,0.06c-0.49,0.66-0.96,1.05-1.59,0.25c-0.24-0.3-0.53-0.33-0.82-0.17c-0.91,0.49-1.83,0.34-2.75,0.08
	c-1.05-0.29-2.06-0.28-3.13,0.15c-1.24,0.5-2.51-0.29-3.78-0.17c-0.04,0-0.08-0.04-0.12-0.04c-1.14-0.01-2.42,1.21-3.36-0.63
	c-0.09-0.17-0.62,0.19-0.83,0.54c-0.29,0.49-0.68,0.76-1.2,0.74c0-2.06,0-4.12,0-6.18c0.81-0.31,1.62-0.62,2.43-0.93
	c0.2-0.07,0.43-0.25,0.6-0.18c2.38,0.96,4.89,0.65,7.31,0.84c1.52,0.12,3.05-0.63,4.55,0.51c0.34,0.25,1.07-0.15,1.58-0.36
	c3.41-1.45,6.82-0.04,10.22-0.1c1.57-0.03,3.06-0.7,4.56,0.47c0.33,0.26,1.06-0.15,1.58-0.36c3.41-1.44,6.82-0.05,10.22-0.1
	c1.56-0.02,3.06-0.73,4.56,0.46c0.32,0.26,1.06-0.15,1.58-0.36c3.41-1.43,6.82-0.06,10.22-0.1c1.56-0.02,3.06-0.76,4.56,0.46
	c0.32,0.26,1.06-0.15,1.58-0.36c3.41-1.42,6.82-0.04,10.22-0.11c1.61-0.04,3.15-0.61,4.68,0.49c0.29,0.2,0.89-0.19,1.33-0.36
	c3.49-1.38,6.98-0.35,10.47,0.04c0.58,0.06,1.09-0.11,1.63-0.23c0.43-0.05,0.74,0.21,0.97,0.6c0.74,1.25,1.48,2.49,2.21,3.74
	C272.37,429.27,272.58,429.8,272.18,430.35z"/>
<path class="st19" d="M272.18,430.35c-1.09-1.96-2.18-3.92-3.26-5.87c0.03-0.58-0.34-0.92-0.56-1.34
	c-3.52-6.47-7.06-12.94-10.6-19.4c-0.35-0.64-0.76-1.22-1.15-1.83c0.06-0.35-0.15-0.57-0.29-0.82c-4.1-7.53-8.21-15.05-12.32-22.57
	c-0.09-0.17-0.22-0.3-0.33-0.46c-0.19-0.44-0.38-0.88-0.65-1.51c0.59,0,1.04,0,1.49,0c11.24,0,22.49,0.04,33.73-0.04
	c1.8-0.01,3.34,0.11,4.17,2.34c0.82,0.03,1.12,0.85,1.49,1.51c3.16,5.81,6.55,11.43,9.65,17.29c3.02,5.15,5.9,10.42,8.85,15.63
	c1.01,1.78,2.05,3.53,3.03,5.33c0.36,0.66,0.62,1.33,0.57,2.13c3.64,6.52,7.28,13.03,10.93,19.54c0.76,1.36,1.56,2.68,2.35,4.02
	c1.86,3.35,3.68,6.74,5.6,10.04c0.59,1.01,0.6,1.67-0.02,2.67c-1.61,2.58-3.1,5.26-4.64,7.91c-2.45,3.96-4.85,7.96-7.13,12.07
	c0.15,0.73-0.13,1.27-0.47,1.83c-2.41,4.03-4.68,8.17-7.24,12.07c-0.13,0.2-0.21,0.44-0.29,0.69c-3.52,5.84-6.91,11.8-10.51,17.59
	c-2.6,4.7-5.41,9.22-8.1,13.85c-1.15,1.98-2.34,3.92-3.48,5.9c-0.51,0.89-1.04,1.76-1.92,2.16c-0.18,0.22-0.44,0.4-0.52,0.66
	c-0.93,2.89-2.77,3.18-5.08,3.15c-11.5-0.13-23.01-0.06-34.7-0.06c0.55-1.02,1.03-1.92,1.51-2.82c0.07-0.04,0.18-0.05,0.22-0.11
	c3.86-6.74,7.71-13.49,11.56-20.24c3.16-5.18,6.13-10.52,9.08-15.88c0.62-1.13,1.28-2.24,1.92-3.36c0.95-1.11,1.57-2.52,2.31-3.82
	c3.51-6.11,6.99-12.25,10.48-18.37c2.66-4.58,5.31-9.17,7.98-13.74c0.3-0.52,0.26-0.88-0.01-1.37c-2.14-3.83-4.25-7.67-6.38-11.51
	c-1.56-3.37-3.57-6.38-5.31-9.6C273.49,432.79,272.84,431.57,272.18,430.35z"/>
<path class="st19" d="M338.95,478.9c0.89,1.96,2.02,3.72,3.08,5.54c1.7,2.92,3.42,5.83,5.13,8.75c1.11,2.4,2.51,4.55,3.81,6.79
	c1.97,3.39,3.95,6.78,5.93,10.17c3.23,5.67,6.45,11.34,9.68,17c0.94,1.65,1.91,3.26,2.87,4.89c0.44,0.85,0.88,1.7,1.33,2.57
	c-0.28,0.4-0.64,0.2-0.94,0.2c-11.91,0.01-23.82,0-35.74,0.03c-0.76,0-1.25-0.25-1.67-1.02c-0.58-1.05-1.26-2.01-1.9-3.02
	c-0.63-0.16-1.02-0.7-1.36-1.29c-3.78-6.55-7.73-12.94-11.46-19.53c-2.46-3.84-2.47-3.73-0.11-7.62c2.25-3.72,4.27-7.64,6.75-11.15
	c2.09-3.6,4.35-7.05,6.26-10.81c0.48-0.95,1.07-1.81,2-2.19c0.78-0.8,1.24-1.9,1.83-2.88c1.23-2.03,1.21-2.04,2.44,0.09
	C337.55,476.6,338.26,477.74,338.95,478.9z"/>
<path class="st16" d="M318.12,509.74c4.2,6.97,8.44,13.9,12.4,21.07c-0.3,0.2-0.73,0.3-0.87,0.61c-0.75,1.66-1.26,0.52-1.75-0.21
	c-0.29-0.43-0.56-0.84-1.05-0.58c-0.92,0.48-1.92,0.38-2.87,0.65c-0.7,0.2-1.37,0.62-2.06-0.03c-0.06-0.06-0.22-0.09-0.24-0.06
	c-1,1.74-2.42,0.01-3.54,0.63c-0.28,0.16-0.62,0.28-0.85,0.01c-0.87-1.06-2.03-0.53-3.03-0.87c-0.56-0.19-1.02,0.28-1.26,0.82
	c-0.41,0.97-0.71,0.6-1.05-0.02c-0.59-1.08-1.29-1.11-2.36-0.9c-1.35,0.27-2.74,1.3-4.18,0.35c-0.03-0.02-0.11-0.04-0.12-0.02
	c-1.01,1.63-2.39,0.15-3.54,0.64c-0.29,0.13-0.62,0.26-0.85-0.02c-0.87-1.06-2.04-0.51-3.03-0.87c-0.51-0.18-0.98,0.24-1.18,0.72
	c-0.49,1.2-0.85,0.6-1.21-0.04c-0.56-1-1.2-0.97-2.16-0.79c-1.4,0.27-2.82,1.29-4.3,0.37c-1.03,1.31-2.28,0.41-3.42,0.56
	c-0.52,0.07-0.93,0.22-1.41-0.2c-0.94-0.83-2.07-0.25-3.1-0.47c4.31-7.47,8.67-14.89,13.15-22.21c1.05-0.25,2.1-0.45,3.1,0.26
	c0.3,0.21,0.7,0.35,0.99,0.15c1.12-0.78,2.47,0.27,3.56-0.7c0.16-0.14,0.44-0.08,0.62,0.04c1.61,1.08,3.24,0.76,4.88,0.12
	c0.2-0.08,0.45-0.17,0.63-0.07c1.08,0.6,2.16,0.18,3.24,0.07c0.9-0.1,1.78-0.15,2.6,0.45c0.22,0.16,0.52,0.25,0.74,0.12
	C315.85,508.57,316.99,509.11,318.12,509.74z"/>
<path class="st19" d="M343.34,423.54c-1.03,1.85-2.06,3.7-3.09,5.56c-1.49,2.68-2.99,5.36-4.54,8.13
	c-3.17-5.56-6.29-11.03-9.42-16.5c-0.69-0.45-1.22-1.07-1.67-1.86c-2.76-4.94-5.58-9.84-8.33-14.8c-0.83-1.5-0.81-1.96,0.08-3.45
	c0.5-0.83,0.97-1.69,1.58-2.4c3.03-5.61,6.24-11.07,9.31-16.65c0.23-0.43,0.47-0.85,0.71-1.27c0.25-0.44,0.52-0.81,1.02-0.75
	c0.04-0.02,0.1-0.03,0.11-0.07c0.96-2.8,2.82-2.99,5.05-2.97c11.03,0.12,22.06,0.05,33.1,0.05c0.46,0,0.92,0,1.36,0
	c0.17,0.57-0.29,0.79-0.3,1.2c-3.74,6.63-7.42,13.32-10.97,20.11c-2.89,5.26-5.78,10.52-8.67,15.78
	C346.77,416.83,345.05,420.18,343.34,423.54z"/>
<path class="st13" d="M329.01,379.54c-1.69,3.06-3.36,6.14-5.07,9.19c-1.86,3.3-3.75,6.57-5.63,9.85c-1.01,0.28-1.76-0.62-2.64-0.91
	c-0.73-0.23-1.39-0.44-2.08,0.06c-0.26,0.19-0.63,0.4-0.85,0.24c-1.4-1.01-2.92-0.19-4.3-0.15c-1.39,0.04-2.72,0.33-4.09-0.27
	c-0.34-0.15-0.85,0.18-1.2,0.39c-1.36,0.83-2.61,0.41-3.88-0.26c-0.7-0.37-1.39-0.44-2.08,0.06c-0.26,0.19-0.61,0.37-0.85,0.23
	c-1.06-0.62-2.1-0.29-3.15-0.01c-3.69-6.28-7.28-12.66-10.77-19.11c0.29-1.27,0.92-1.63,1.93-1.1c1.14,0.6,2.28-0.16,3.4-0.24
	c0.91-0.06,1.71-0.01,2.39,0.5c0.72,0.55,1.37,0.42,1.87-0.08c0.7-0.68,1.4-0.56,2.15-0.47c0.39,0.05,0.73-0.12,0.81,0.73
	c0.07,0.68,0.76,0.88,1.29,0.23c0.3-0.36,0.54-0.82,0.89-1.07c0.33-0.23,0.86-0.51,0.95,0.37c0.15,1.45,0.59,0.92,1.06,0.25
	c0.2-0.29,0.53-0.62,0.75-0.45c1.17,0.93,2.39,0.19,3.52,0.07c1.36-0.14,2.54-0.1,3.72,0.77c0.37,0.27,0.9-0.1,1.17-0.4
	c0.7-0.78,1.48-0.6,2.27-0.51c0.36,0.04,0.61-0.08,0.73,0.65c0.13,0.8,0.8,1,1.34,0.24c0.28-0.39,0.5-0.86,0.91-1.04
	c0.39-0.17,0.83-0.38,0.91,0.5c0.12,1.26,0.58,0.86,1,0.23c0.34-0.51,0.82-0.75,1.24-0.45c1.28,0.93,2.52-0.12,3.78-0.09
	c0.81,0.02,1.62-0.05,2.26,0.44c0.84,0.64,1.53,0.41,2.21-0.16c0.41-0.34,0.78-0.57,1.29-0.39c0.58,0.21,1.4-0.3,1.55,1.06
	C327.87,378.89,328.6,379.19,329.01,379.54z"/>
<path class="st17" d="M293.18,397.96c0.82-0.74,1.47-2.52,2.73-0.66c0.15,0.22,0.42,0.25,0.58,0.08c1.17-1.21,2.49-0.89,3.56-0.08
	c1.26,0.95,2.34,0.24,3.32-0.23c1-0.48,1.71-0.29,2.49,0.31c0.57,0.44,1.06,0.71,1.44-0.27c0.23-0.6,0.6-0.64,1.05-0.31
	c0.79,0.6,1.58,0.65,2.38-0.03c0.48-0.41,0.97-0.43,1.33,0.22c0.26,0.47,0.56,0.65,0.95,0.33c1.69-1.4,3.11-0.27,4.55,0.68
	c0.26,0.17,0.5,0.39,0.74,0.59c-0.7,1.18-1.37,2.4-2.11,3.54c-0.35,0.54,0.02,0.62,0.2,0.93c3.31,5.88,6.6,11.78,9.9,17.67
	c-1.51-0.95-3.23,0.25-4.75-0.7c-0.35-0.22-0.76,0.05-1.1,0.25c-0.85,0.5-1.69,0.22-2.56,0.22c-1.55,0-3.09-0.75-4.66-0.1
	c-0.64,0.26-1.4,0.62-2.02-0.22c-0.1-0.14-0.37-0.28-0.45-0.22c-1.49,1.15-3.28-0.39-4.76,0.8c-1.97-3.45-3.95-6.91-5.92-10.37
	c-2.22-3.91-4.44-7.83-6.65-11.75C293.32,398.43,293.26,398.19,293.18,397.96z"/>
<path class="st18" d="M332.6,478.22c-2.55,4.51-5.08,9.04-7.84,13.36c-0.84,0.49-1.71-0.09-2.61,0.16c-0.94,0.26-2-0.07-2.92,0.58
	c-0.1,0.07-0.29,0.09-0.37,0.01c-1.2-1.12-2.72-0.28-4-0.96c-0.29-0.15-0.57-0.16-0.86-0.03c-0.87,0.37-1.75,0.26-2.64,0.14
	c-0.12-0.02-0.29-0.15-0.36-0.1c-1.61,1.23-3.33,0.24-5,0.39c-0.51,0.05-1.03,0.12-1.33-0.56c2.74-4.81,5.52-9.57,8.43-14.23
	c0.43,0.24,0.78,0.82,1.12,0.93c1.23,0.38,2.83,1.17,3.7,0.56c1.14-0.79,1.54-0.51,2.3,0.33c0.34,0.38,1.01,1.07,1.11-0.47
	c0.06-0.96,0.76-0.85,1.18-0.17c0.29,0.46,0.56,0.82,1.04,0.64c1.51-0.55,3.04,0.08,4.57-0.14c0.91-0.12,1.66-1.48,2.1-0.98
	c0.77,0.88,1.38,0.69,2.15,0.41C332.43,478.09,332.52,478.18,332.6,478.22z"/>
<path class="st20" d="M304.66,491.22c0.6,0.06,1.18-0.01,1.74-0.35c0.41-0.25,0.81-0.25,1.19,0.13c0.78,0.79,1.57,0.64,2.33-0.03
	c0.56-0.5,1.1-0.75,1.74-0.17c0.12,0.11,0.35,0.18,0.49,0.11c1.58-0.75,3.2,0.34,4.78-0.16c0.15-0.05,0.37-0.06,0.49,0.04
	c0.97,0.8,1.91,1.61,2.89-0.01c0.13-0.21,0.48,0.04,0.7,0.2c0.3,0.22,0.69,0.41,0.97,0.2c1.04-0.75,1.91-0.31,2.77,0.42
	c-2.7,4.53-5.42,9.05-8.11,13.6c-0.37,0.63-0.53,1.29,0.03,2.03c0.56,0.75,0.97,1.67,1.44,2.52c-0.49,0.25-0.97,0.75-1.49,0.02
	c-0.12-0.16-0.47-0.31-0.57-0.23c-1.65,1.42-3.23-0.64-4.87-0.13c-0.39,0.12-0.83,0.05-1.22,0.3c-0.15,0.1-0.4,0.27-0.46,0.21
	c-1.4-1.48-2.79,0.41-4.17-0.01c-0.39-0.12-0.75,0.01-1.12,0.14c-0.24,0.09-0.62,0.28-0.72,0.15c-0.83-0.94-1.61-1.67-2.42-0.01
	c-0.02,0.03-0.1,0.06-0.12,0.04c-1.3-1.69-3.09,0.86-4.49-0.8c-0.49-0.58-1.59,0.37-2.23-0.57
	C297.62,502.9,301.11,497.03,304.66,491.22z"/>
</svg>
