<svg version="1.1" id="Calque_1" xmlns="http://www.w3.org/2000/svg" xmlns:xlink="http://www.w3.org/1999/xlink" viewBox="0 0 378.603 55.835" enable-background="new 0 0 378.603 55.835"
	 xml:space="preserve">
<g>
	<defs>
		<rect id="SVGID_1_" width="378.603" height="55.835"/>
	</defs>
	<clipPath id="SVGID_2_">
		<use xlink:href="#SVGID_1_"  overflow="visible"/>
	</clipPath>
	<path clip-path="url(#SVGID_2_)" fill="#E1382D" d="M30.287,41.899c0.897,1.766,1.656,2.648,2.275,2.648
		c0.62,0,1.378-0.883,2.277-2.648L55.742,0.187h9.29L41.807,46.546c-1.642,3.251-2.943,5.418-3.902,6.502
		c-1.425,1.61-3.222,2.54-5.389,2.788c-2.136-0.248-3.933-1.193-5.388-2.833c-0.991-1.147-2.292-3.299-3.902-6.457L0,0.187h9.197
		L30.287,41.899z"/>
	<path clip-path="url(#SVGID_2_)" fill="#E1382D" d="M96.516,0c21.802,0,32.702,9.291,32.702,27.871
		c0,18.581-10.823,27.887-32.47,27.918c-21.646,0.03-32.469-9.244-32.469-27.825C64.279,9.384,75.025,0.062,96.516,0
		 M119.928,27.871c0-12.387-7.727-18.564-23.18-18.534c-15.514-0.03-23.272,6.147-23.272,18.534
		c0,12.388,7.742,18.581,23.226,18.581S119.928,40.259,119.928,27.871"/>
	<path clip-path="url(#SVGID_2_)" fill="#E1382D" d="M202.55,9.291h-43.293l0.093-9.197h32.517h16.258
		c10.839,0,16.258,4.644,16.258,13.935l-0.093,4.738c0,9.167-5.388,13.75-16.165,13.75h-39.577v23.226h-9.29V32.517v-9.29h34.746
		h6.132h8.732c4.088,0,6.147-2.307,6.178-6.922c-0.03-4.676-2.09-7.014-6.178-7.014H202.55z"/>
	<polygon clip-path="url(#SVGID_2_)" fill="#444444" points="224.382,46.452 224.382,55.649 215.185,55.742 215.092,46.452 	"/>
	<path clip-path="url(#SVGID_2_)" fill="#444444" d="M246.536,14.029v4.645l-0.047,37.068h-9.197V27.871V13.935V6.968V0h32.702
		c21.49,0.062,32.237,9.384,32.237,27.964v27.871h-9.29V27.871c0.062-12.387-7.664-18.565-23.18-18.534l-23.272-0.046
		L246.536,14.029z M265.256,55.742h9.197l-0.094-32.555l-9.104,0.093V55.742z"/>
	<rect x="138.557" y="0.094" clip-path="url(#SVGID_2_)" fill="#E1382D" width="9.291" height="9.225"/>
	<rect x="138.557" y="23.226" clip-path="url(#SVGID_2_)" fill="#E1382D" width="9.291" height="32.516"/>
	<path clip-path="url(#SVGID_2_)" fill="#444444" d="M328.774,32.49v0.021h0.717c0.083,0,0.16,0.006,0.244,0.006v-0.006h10.087
		l0.099-9.292h-11.037c-4.011-0.043-6.04-2.342-6.069-6.914c0.03-4.675,2.091-7.013,6.178-7.013h6.317h43.293l-0.093-9.197h-32.516
		h-16.259c-10.839,0-16.258,4.644-16.258,13.935l0.093,4.737C313.57,27.652,318.649,32.217,328.774,32.49"/>
	<path clip-path="url(#SVGID_2_)" fill="#444444" d="M378.51,37.069c0-8.949-5.15-13.517-15.422-13.73h-0.011
		c-0.246-0.005-0.48-0.02-0.732-0.02v0.02H352.04v9.27h10.305h0.743c4.088,0,6.147,2.308,6.178,6.922
		c-0.03,4.676-2.09,7.014-6.178,7.014h-6.317h-43.293l0.093,9.197h32.517h16.258c10.839,0,16.258-4.645,16.258-13.936L378.51,37.069
		z"/>
</g>
</svg>
