<svg
   xmlns:dc="http://purl.org/dc/elements/1.1/"
   xmlns:cc="http://web.resource.org/cc/"
   xmlns:rdf="http://www.w3.org/1999/02/22-rdf-syntax-ns#"
   xmlns:svg="http://www.w3.org/2000/svg"
   xmlns="http://www.w3.org/2000/svg"
   xmlns:sodipodi="http://inkscape.sourceforge.net/DTD/sodipodi-0.dtd"
   xmlns:inkscape="http://www.inkscape.org/namespaces/inkscape"
   viewBox="0 0 750.96851 282.47244"
   id="svg2988"
   sodipodi:version="0.32"
   inkscape:version="0.44.1"
   version="1.0"
   sodipodi:docbase="I:\Logos"
   sodipodi:docname="AOL.svg">
  <defs
     id="defs2990"><clipPath
   id="clp5"
   clip-rule="nonzero">
<path
   d="M 428.72,36.001 L 566.18,36.001 L 566.18,86.888 L 428.72,86.888 L 428.72,36.001 z "
   id="path2965" />

</clipPath>
<clipPath
   id="clp4"
   clip-rule="nonzero">
<path
   d="M 414,91.634 L 414,31.259 C 414,31.259 579.49,31.993 580.46,32.417 C 581.45,32.846 580.46,91.634 580.46,91.634 L 414,91.634"
   id="path2959" />

</clipPath>
<clipPath
   id="clp3"
   clip-rule="nonzero">
<path
   d="M 0.354,0.25 L 594.65,0.25 L 594.65,840.75 L 0.354,840.75 L 0.354,0.25 z "
   id="path2953" />

</clipPath>
<clipPath
   id="clp2"
   clip-rule="nonzero">
<path
   d="M 0.361,840.76 L 594.65,840.76 L 594.65,0.26 L 0.361,0.26 L 0.361,840.76 z "
   id="path2947" />

</clipPath>
<clipPath
   id="clp1"
   clip-rule="nonzero">
<rect
   x="428.70001"
   y="36"
   width="137.5"
   height="50.889999"
   id="rect2941" />

</clipPath>




<clipPath
   id="clipPath3008"
   clip-rule="nonzero">
<path
   d="M 0.361,840.76 L 594.65,840.76 L 594.65,0.26 L 0.361,0.26 L 0.361,840.76 z "
   id="path3010" />

</clipPath>


</defs>
  <sodipodi:namedview
     id="base"
     pagecolor="#ffffff"
     bordercolor="#666666"
     borderopacity="1.0"
     inkscape:pageopacity="0.0"
     inkscape:pageshadow="2"
     inkscape:zoom="0.35824168"
     inkscape:cx="372.04724"
     inkscape:cy="526.18109"
     inkscape:document-units="px"
     inkscape:current-layer="layer1"
     height="79.72mm"
     width="211.94mm"
     inkscape:window-width="925"
     inkscape:window-height="573"
     inkscape:window-x="140"
     inkscape:window-y="104" />
  <metadata
     id="metadata2993">
    <rdf:RDF>
      <cc:Work
         rdf:about="">
        <dc:format>image/svg+xml</dc:format>
        <dc:type
           rdf:resource="http://purl.org/dc/dcmitype/StillImage" />
      </cc:Work>
    </rdf:RDF>
  </metadata>
  <g
     inkscape:label="Ebene 1"
     inkscape:groupmode="layer"
     id="layer1"
     transform="translate(20.50956,-271.8204)">
    <g
       clip-path="url(#clp2)"
       id="g2949"
       transform="matrix(5.411596,0,0,-5.411596,-2337.024,745.5694)">
<g
   id="q2"
   class="ps00"
   style="fill:none;stroke:none">
<clipPath
   id="clipPath3014"
   clip-rule="nonzero">
<path
   d="M 0.354,0.25 L 594.65,0.25 L 594.65,840.75 L 0.354,840.75 L 0.354,0.25 z "
   id="path3016" />

</clipPath>

<g
   clip-path="url(#clp3)"
   id="g2955">
<g
   id="q3"
   class="ps00"
   style="fill:none;stroke:none">
<clipPath
   id="clipPath3020"
   clip-rule="nonzero">
<path
   d="M 414,91.634 L 414,31.259 C 414,31.259 579.49,31.993 580.46,32.417 C 581.45,32.846 580.46,91.634 580.46,91.634 L 414,91.634"
   id="path3022" />

</clipPath>

<g
   clip-path="url(#clp4)"
   id="g2961">
<g
   id="q4"
   class="ps00"
   style="fill:none;stroke:none">
<clipPath
   id="clipPath3026"
   clip-rule="nonzero">
<path
   d="M 428.72,36.001 L 566.18,36.001 L 566.18,86.888 L 428.72,86.888 L 428.72,36.001 z "
   id="path3028" />

</clipPath>

<g
   clip-path="url(#clp5)"
   id="g2967">
<path
   d="M 563.27,42.801 C 561.57,42.801 560.26,41.496 560.26,39.789 C 560.26,38.081 561.66,36.774 563.27,36.774 C 564.78,36.774 566.18,38.081 566.18,39.789 C 566.18,41.394 564.98,42.801 563.27,42.801 z M 563.27,37.228 C 561.77,37.228 560.71,38.281 560.71,39.789 C 560.71,41.293 561.77,42.348 563.27,42.348 C 564.68,42.348 565.73,41.293 565.73,39.789 C 565.73,38.281 564.68,37.228 563.27,37.228 z M 563.27,39.586 L 564.23,37.98 L 564.78,37.98 L 563.72,39.586 C 564.23,39.586 564.68,39.887 564.68,40.542 C 564.68,41.094 564.38,41.496 563.37,41.496 L 562.12,41.496 L 562.12,37.98 L 562.52,37.98 L 562.52,39.586 L 563.27,39.586 z M 562.52,39.988 L 562.52,41.094 L 563.37,41.094 C 563.82,41.094 564.23,41.094 564.23,40.542 C 564.23,39.988 563.82,39.988 563.37,39.988 L 562.52,39.988"
   class="ps01"
   id="path2969"
   style="fill:#007bc2;fill-rule:nonzero;stroke:none" />

<path
   d="M 538.86,81.733 L 524.81,81.733 L 524.81,66.567 L 524.71,66.567 C 522.44,77.663 513.21,83.691 501.21,83.691 C 484.58,83.691 476.69,72.29 476.9,60.143 L 476.8,60.143 L 469.37,81.733 L 448.12,81.733 L 433.26,40.252 L 449.79,40.252 L 451.2,45.427 L 465.64,45.427 L 467.05,40.252 L 484.28,40.252 L 481.32,48.137 L 481.41,48.237 C 485.38,42.964 492.31,39.197 501.21,39.197 C 513.21,39.197 522.44,45.226 524.71,56.271 L 524.81,56.271 L 524.81,40.252 L 555.54,40.252 L 555.54,52.156 L 538.86,52.156 L 538.86,81.733 z M 454.22,56.573 L 458.41,71.077 L 462.62,56.573 L 454.22,56.573 z M 501.21,52.604 C 495.83,52.604 492.77,56.423 492.77,61.445 C 492.77,66.466 495.83,70.283 501.21,70.283 C 506.58,70.283 509.64,66.466 509.64,61.445 C 509.64,56.423 506.58,52.604 501.21,52.604 z M 542.06,55.352 C 542.06,60.438 542.06,84.928 542.06,84.928 L 521.61,84.928 C 521.61,84.928 521.61,79.909 521.61,79.209 C 520.65,80.191 519.6,81.092 518.45,81.902 C 513.84,85.164 507.88,86.888 501.21,86.888 C 492.88,86.888 485.87,84.23 480.92,79.202 C 478.9,77.14 477.27,74.728 476.07,72.067 C 474.23,77.419 471.65,84.928 471.65,84.928 L 445.87,84.928 L 428.72,37.056 L 452.23,37.056 C 452.23,37.056 453.26,40.834 453.64,42.23 L 463.19,42.23 C 463.58,40.834 464.6,37.056 464.6,37.056 L 488.9,37.056 C 488.9,37.056 488.56,37.953 488.25,38.776 C 492.1,36.972 496.5,36.001 501.21,36.001 C 509.69,36.001 516.79,38.787 521.61,43.701 C 521.61,42.537 521.61,37.056 521.61,37.056 L 558.73,37.056 L 558.73,55.352 C 558.73,55.352 546.24,55.352 542.06,55.352 z M 557.13,38.655 L 523.2,38.655 C 523.2,38.655 523.2,44.246 523.2,48.241 C 521.73,45.914 519.82,43.907 517.53,42.286 C 513.19,39.22 507.53,37.599 501.21,37.599 C 495.12,37.599 489.56,39.303 485.18,42.402 C 485.37,41.894 486.59,38.655 486.59,38.655 L 465.82,38.655 C 465.82,38.655 464.8,42.424 464.42,43.828 L 452.42,43.828 C 452.04,42.424 451.01,38.655 451.01,38.655 L 430.99,38.655 L 447,83.329 L 470.51,83.329 C 470.51,83.329 473.89,73.497 476.08,67.148 C 477.11,71.353 479.14,75.106 482.07,78.081 C 486.7,82.797 493.32,85.289 501.21,85.289 C 507.54,85.289 513.19,83.666 517.53,80.596 C 519.82,78.973 521.73,76.959 523.2,74.626 C 523.2,78.164 523.2,83.329 523.2,83.329 L 540.46,83.329 C 540.46,83.329 540.46,56.614 540.46,53.753 C 543.08,53.753 557.13,53.753 557.13,53.753 L 557.13,38.655 z M 501.21,68.684 C 496.16,68.684 494.36,64.947 494.36,61.445 C 494.36,57.945 496.16,54.202 501.21,54.202 C 506.25,54.202 508.04,57.945 508.04,61.445 C 508.04,64.947 506.25,68.684 501.21,68.684 z M 501.21,55.803 C 496.47,55.803 495.96,59.747 495.96,61.445 C 495.96,63.142 496.47,67.087 501.21,67.087 C 505.93,67.087 506.44,63.142 506.44,61.445 C 506.44,59.747 505.93,55.803 501.21,55.803 z M 456.67,58.344 L 458.41,65.72 L 460.16,58.344 L 456.67,58.344"
   class="ps01"
   id="path2971"
   style="fill:#007bc2;fill-rule:nonzero;stroke:none" />

</g>

</g>

</g>

</g>

</g>

</g>

</g>
    <g
       transform="matrix(3219.9,0,0,-4556.564,-2380.569,759.1661)"
       id="xfrm5">
<g
   id="frm6">
<text
   id="text2975"
   transform="matrix(1,0,0,-1,0,44.2693)">
  <tspan
     style="font-size:11.46100044px;letter-spacing:0;word-spacing:0;fill:none;stroke:#7f7fff;stroke-width:0.000001;font-family:Arial"
     id="tspan2977"
     class="ps02 ps10 ps20"
     y="0"
     x="0 3.1861999 6.3724999 14.017 22.292 29.295 35.667999 43.312 50.957001 59.874001 63.060001 71.334999 77.708 87.254997 93.626999 96.814003">DF2SVG Demo</tspan>
  <tspan
     style="font-size:11.46100044px;letter-spacing:0;word-spacing:0;fill:none;stroke:#7f7fff;stroke-width:0.000001;font-family:Arial"
     id="tspan2979"
     class="ps02 ps10 ps20"
     y="11.461"
     x="0 8.2750998 16.549999 24.825001 28.011 34.383999 40.756001 43.943001 47.129002 50.945 57.318001 63.689999 66.876999 72.607002 78.980003">www.pdftron.com</tspan>
</text>

</g>

</g>
  </g>
</svg>
