<svg clip-rule="evenodd" fill-rule="evenodd" stroke-linejoin="round" stroke-miterlimit="2" version="1.1" viewBox="-.00075354 5.3574 500 489.28" xml:space="preserve" xmlns="http://www.w3.org/2000/svg">
    <g transform="matrix(2.9148 0 0 2.9148 5.4422e-14 428.36)">
        
            <g transform="matrix(.92707 0 0 .92707 -120.83 -510.93)">
                <path d="m271.09 441.05v36.897c0 1.836-1.58 4.865-3.416 6.696l-37.581 37.58c-0.918 0.918-1.858 1.367-2.46 1.367-0.601 0-0.956-0.449-0.956-1.367v4.1c0 1.836 1.58 3.416 3.416 3.416h81.857c1.837 0 3.416-1.58 3.416-3.416v-81.994c0-1.836-1.579-3.279-3.416-3.279h-40.86zm-52.066 85.273c0 1.836-1.585 3.416-3.416 3.416h-40.86v44.55c0 0.918 0.36 1.367 0.956 1.367s1.405-0.449 2.323-1.367l37.581-37.58c1.831-1.837 3.416-4.86 3.416-6.696v-3.69z" fill="#7d8990" fill-rule="nonzero"/>
            </g>
            <g transform="matrix(.92707 0 0 .92707 -120.83 -510.93)">
                <path d="m270.13 394.59c-0.604 0-1.541 0.448-2.459 1.366l-37.581 37.717c-1.831 1.831-3.416 4.723-3.416 6.56v81.993c0 1.837 1.585 1.837 3.416 0l37.581-37.58c1.836-1.837 3.416-4.86 3.416-6.696v-81.994c0-0.918-0.353-1.366-0.957-1.366zm-136.38 46.463c-1.837 0-3.416 1.443-3.416 3.279v81.994c0 1.836 1.579 3.416 3.416 3.416h81.857c1.836 0 3.416-1.58 3.416-3.416v-81.994c0-1.836-1.58-3.279-3.416-3.279h-81.857z" fill="#e2001a" fill-rule="nonzero"/>
            </g>
            <g transform="matrix(.92707 0 0 .92707 -120.83 -510.93)">
                <path d="m230.09 441.05c-1.836 0-3.416 1.579-3.416 3.416v77.757c0 0.918 0.355 1.367 0.956 1.367 0.602 0 1.542-0.449 2.46-1.367l37.581-37.58c1.836-1.837 3.416-4.865 3.416-6.696v-36.897h-40.997zm-12.026 5.603c-0.606 0-1.541 0.453-2.459 1.366l-37.581 37.717c-1.831 1.87-3.279 4.728-3.279 6.56v37.443h40.86c1.836 0 3.416-1.58 3.416-3.416v-78.304c0-0.913-0.355-1.366-0.957-1.366z" fill="#8e1016" fill-rule="nonzero"/>
            </g>
        
    </g>
</svg>
