<svg viewBox="0 0 24 24" fill="none" xmlns="http://www.w3.org/2000/svg">
    <path d="M11.2028 19.0025C11.1404 18.851 11.0535 18.7011 10.9313 18.5594C10.3797 17.919 9.25861 17.6172 8.61541 18.1133C8.34545 18.3209 8.09291 19.5981 8.03486 19.8057C7.81135 18.8549 6.53182 17.6119 6.21079 17.4886C6.36104 15.7504 6.21041 13.9993 5.7655 12.3126C5.15677 10.0329 4.02863 7.92575 2.46973 6.15659C2.53706 6.20174 4.17316 6.60492 4.10609 6.64425C3.54575 6.97278 4.54084 7.82869 5.27959 8.78823C6.47491 10.3573 7.26985 12.195 7.59539 14.1417C7.62209 14.3289 7.74923 15.0634 8.39713 15.5694C8.88884 15.952 9.41131 15.9981 9.64351 16.0155C10.1046 16.0484 10.5659 15.956 10.9788 15.7481C11.0201 15.509 11.1356 14.6651 10.6224 13.8741C10.4366 13.5897 10.194 13.3467 9.91006 13.1605C10.6067 8.7735 11.3034 4.38666 12 0C12.6966 4.38666 13.3934 8.7735 14.09 13.1605C13.806 13.3467 13.5635 13.5897 13.3776 13.8741C12.8645 14.6651 12.98 15.509 13.0212 15.7481C13.4342 15.956 13.8954 16.0484 14.3565 16.0155C14.5887 15.9981 15.1112 15.952 15.6029 15.5694C16.2507 15.0634 16.3779 14.3289 16.4046 14.1417C16.7301 12.195 17.5251 10.3573 18.7205 8.78823C19.4592 7.82869 20.4543 6.97278 19.8939 6.64425C19.8269 6.60492 21.4629 6.20174 21.5303 6.15659C19.9713 7.92575 18.8432 10.0329 18.2345 12.3126C17.7896 13.9993 17.639 15.7504 17.7893 17.4886C17.4681 17.6119 16.1886 18.8549 15.9651 19.8057C15.9071 19.5981 15.6546 18.3209 15.3846 18.1133C14.7414 17.6172 13.6203 17.919 13.0688 18.5594C12.9465 18.7011 12.8597 18.851 12.7971 19.0025H11.2028ZM11.3292 20.8038H12.6708C12.8126 21.6061 13.1873 22.2314 13.4253 22.5723C13.2695 22.6487 13.1205 22.7384 12.98 22.8404C12.5658 23.1434 12.23 23.5408 12 24C11.7701 23.5408 11.4341 23.1434 11.0201 22.8404C10.8795 22.7384 10.7306 22.6487 10.5747 22.5723C10.8128 22.2314 11.1875 21.6061 11.3292 20.8038ZM10.6635 20.3389H13.3365V20.6295H10.6635V20.3389ZM10.0823 19.7578H13.9176V20.0484H10.0823V19.7578ZM9.50116 19.1768H14.4989V19.4673H9.50116V19.1768Z" fill="#e8e0f5"/>
</svg>
