<svg viewBox="0 0 280 280" fill="none" xmlns="http://www.w3.org/2000/svg">
    <rect width="280" height="280" fill="white" />
    <ellipse cx="140" cy="160.832" rx="114" ry="113.5" fill="#FFCD58" />
    <path d="M140 236.832C181.974 236.832 216 203.029 216 161.332H64C64 203.029 98.0264 236.832 140 236.832Z"
        fill="white" />
    <path d="M140 195.332C158.778 195.332 174 180.109 174 161.332H106C106 180.109 121.222 195.332 140 195.332Z"
        fill="#494F4B" />
    <path d="M71 32.8317C93.5 12.3317 152.4 -16.3683 208 32.8317C183.833 28.1651 122.6 21.6317 71 32.8317Z"
        fill="#494F4B" />
    <path d="M57 131.332C85.8333 121.165 159.5 106.932 223.5 131.332C190.333 134.498 110.6 138.932 57 131.332Z"
        fill="white" />
</svg>