<svg xmlns="http://www.w3.org/2000/svg" viewBox="0 0 456.38 258.44"><defs><style>.cls-1{fill:#35bfc0;}.cls-2{fill:#3152a0;}.cls-3{fill:#f38334;}.cls-4{fill:#95c748;}</style></defs><g id="Calque_2" data-name="Calque 2"><g id="Calque_1-2" data-name="Calque 1"><circle class="cls-1" cx="66.02" cy="192.14" r="66.02"/><path class="cls-2" d="M312.05,186.88l35.93-56c-2,1.09-4,2.19-6.09,3.12a1.32,1.32,0,0,1-.39.16c-1.95.86-3.91,1.64-5.94,2.34-.39.16-.7.24-1.09.4-.55.15-1.17.39-1.72.54-.78.24-1.64.47-2.5.71-.47.15-.94.23-1.41.39L327,139l-1.17.24c-.94.23-2,.39-3,.55-.31.07-.7.07-1,.15-.93.16-1.79.24-2.73.31-.16,0-.39.08-.55.08l-3.28.24a3.14,3.14,0,0,0-.86.08c-1.17.07-2.26.07-3.44.07s-2.5,0-3.75-.07c-.39,0-.86-.08-1.25-.08-.78-.08-1.64-.08-2.42-.16-.47-.08-1-.08-1.48-.16a18,18,0,0,1-2.19-.31l-1.56-.23a20.18,20.18,0,0,1-2-.39c-.55-.08-1.1-.24-1.57-.32s-1.25-.31-1.95-.46a10.83,10.83,0,0,0-1.64-.39,19,19,0,0,1-1.88-.55l-1.64-.47a10.79,10.79,0,0,1-1.71-.63,13.84,13.84,0,0,1-1.65-.62,14.94,14.94,0,0,0-1.64-.63l-1.64-.7c-.54-.23-1-.47-1.56-.7s-1.09-.55-1.64-.78a9.15,9.15,0,0,0-1.25-.63l-.08-.15c-.54-.32-1.09-.55-1.64-.86-.39-.24-.86-.47-1.25-.71-.62-.31-1.17-.7-1.8-1-.31-.16-.54-.39-.85-.55-1.65-1-3.21-2.11-4.69-3.2-1.64-1.25-3.28-2.58-4.85-3.91-.15-.15-.31-.23-.46-.39-.71-.62-1.33-1.25-2-1.87a2.85,2.85,0,0,0-.54-.47l-1.88-1.88a3.53,3.53,0,0,0-.55-.54c-.62-.63-1.17-1.33-1.79-2-.16-.15-.32-.39-.47-.54-.55-.71-1.17-1.41-1.72-2.11a1.45,1.45,0,0,1-.39-.55c-.55-.7-1.1-1.49-1.64-2.19-.08-.15-.24-.31-.31-.47-.55-.78-1.1-1.56-1.65-2.42-.07-.08-.15-.23-.23-.31l-1.64-2.58-.08-.08a74.57,74.57,0,0,1-9.69-28.83,1.06,1.06,0,0,0-.07-.46l-30.39-43h-.08A65.87,65.87,0,0,0,149.63,0h-.32A65.72,65.72,0,0,0,93.22,31.41h-.08L32.05,126.8a74,74,0,0,1,36.25-9.38,75,75,0,0,1,74.37,65.86L177,231.41h.08a65.74,65.74,0,0,0,53,26.87h.32a65.66,65.66,0,0,0,53-26.87h.08l.55-.86c1.33-1.88,2.58-3.83,3.83-5.94L312.05,187l.07.16-.07-.16v-.07Z"/><circle class="cls-3" cx="309.02" cy="66.14" r="66.02"/><path class="cls-4" d="M313.65,195.23l56.17-87.5-.23-.15.23.15A74.39,74.39,0,0,0,382.48,66c0-2.11-.08-4.14-.24-6.18l62.66,95.47c.23.32.31.55.55.86l1.17,1.8-.08.08a66.61,66.61,0,0,1,9.84,34.45,65.9,65.9,0,0,1-119.84,37.89l-.08.08-.39-.63a15.74,15.74,0,0,0-1-1.48"/></g></g></svg>