<svg version="1.1" id="Layer_1" xmlns="http://www.w3.org/2000/svg" xmlns:xlink="http://www.w3.org/1999/xlink" x="0px" y="0px"
	 viewBox="0 0 612 792" style="enable-background:new 0 0 612 792;" xml:space="preserve">
<style type="text/css">
	.st0{fill:#5C4B51;}
	.st1{fill:#A5C78F;}
</style>
<path class="st0" d="M140.09,319.04c0-28.82,0-57.63,0-86.45c0-6.68,0.85-7.64,7.38-7.65c27.98-0.04,55.97-0.04,83.95,0
	c6.91,0.01,7.61,0.8,7.61,7.92c0,55.14-0.13,110.27,0.06,165.41c0.09,26.9,11.91,47.69,35.52,60.49
	c23.59,12.79,47.32,11.15,70.07-3.17c1.39-0.87,2.66-2.41,4.44-1.43c1.58,0.87,0.99,2.68,1,4.08c0.03,31.82-0.01,63.63,0.06,95.45
	c0.01,4.79-1.98,7.19-6.73,8.22c-92.09,19.89-180.52-37.4-199.92-129.68c-2.19-10.44-3.28-21.04-3.28-31.73
	c-0.01-27.15,0-54.3,0-81.45C140.19,319.04,140.14,319.04,140.09,319.04z"/>
<path class="st1" d="M374.86,471.15c0-23.48,0.01-46.96,0-70.44c-0.02-31.93-19.89-58.42-50.55-66.9
	c-18.97-5.25-36.85-2.01-53.6,8.08c-1.78,1.07-3.53,3.24-5.78,1.79c-1.94-1.25-0.97-3.69-0.97-5.59
	c-0.05-30.81-0.04-61.61-0.03-92.42c0-6.73,0.64-7.79,7.26-9.09c50.97-10,97.55-0.17,138.68,31.96
	c32.62,25.49,52.9,58.99,60.55,99.65c6.2,32.96,3.09,65.26-10.29,96.24c-15.82,36.65-41.58,64.18-76.84,82.86
	c-0.59,0.31-1.18,0.61-1.78,0.9c-6.17,3.01-6.64,2.73-6.64-4.11C374.86,519.77,374.86,495.46,374.86,471.15z"/>
</svg>
