<svg viewBox="0 0 512 512" version="1.1" xmlns="http://www.w3.org/2000/svg" xmlns:xlink="http://www.w3.org/1999/xlink" xml:space="preserve" style="fill-rule:evenodd;clip-rule:evenodd;stroke-linejoin:round;stroke-miterlimit:2;">
    <g transform="matrix(1,0,0,1,-1462.53,-234.849)">
        <g transform="matrix(3.2,0,0,3.2,1462.53,234.849)">
            <path d="M0,31C0,13.879 13.879,0 31,0L129,0C146.121,0 160,13.879 160,31L160,129C160,146.121 146.121,160 129,160L31,160C13.879,160 0,146.121 0,129L0,31Z" style="fill:rgb(255,255,255);"/>
        </g>
        <g transform="matrix(1,0,0,1,-117.878,-691.217)">
            <path d="M1932.41,1268.47C1932.41,1279.01 1887.99,1287.56 1833.21,1287.56C1778.42,1287.56 1734.01,1279.01 1734.01,1268.47L1734.01,1322.98C1734.01,1333.52 1778.42,1342.07 1833.21,1342.07C1887.99,1342.07 1932.41,1333.52 1932.41,1322.98L1932.41,1268.47ZM1833.21,1217.27C1887.95,1217.27 1932.35,1208.68 1932.41,1198.09L1932.41,1252.58C1932.41,1263.12 1887.99,1271.67 1833.21,1271.67C1778.42,1271.67 1734.01,1263.12 1734.01,1252.58L1734.01,1198.07C1734.01,1208.67 1778.42,1217.27 1833.21,1217.27ZM1932.41,1127.69C1932.35,1138.28 1887.95,1146.87 1833.21,1146.87C1778.42,1146.87 1734.01,1138.27 1734.01,1127.67L1734.01,1181.81C1734.01,1192.56 1778.42,1201.27 1833.21,1201.27C1887.99,1201.27 1932.41,1192.56 1932.41,1181.81L1932.41,1127.69ZM1932.41,1079.67L1833.21,1015.67L1734.01,1079.67L1734.01,1114.87C1734.01,1123.7 1778.42,1130.87 1833.21,1130.87C1887.99,1130.87 1932.41,1123.7 1932.41,1114.87L1932.41,1079.67Z" style="fill:rgb(3,27,78);"/>
        </g>
    </g>
</svg>
