<svg viewBox="0 0 456 456" fill="none" xmlns="http://www.w3.org/2000/svg">
<path d="M154.245 164.335H255.802L251.003 159.519C243.577 152.093 243.577 140.044 251.003 132.617C258.43 125.191 270.478 125.191 277.905 132.617L315.197 169.91C320.648 175.343 322.271 183.528 319.325 190.637C316.379 197.746 309.447 202.386 301.755 202.386H154.262C143.749 202.386 135.228 193.865 135.228 183.352C135.228 172.838 143.749 164.318 154.262 164.318L154.245 164.335Z" fill="white"/>
<path d="M154.245 253.614H301.738C312.251 253.614 320.772 262.135 320.772 272.648C320.772 283.162 312.251 291.682 301.738 291.682H200.181L204.979 296.498C212.406 303.925 212.406 315.974 204.979 323.4C201.275 327.122 196.388 328.975 191.519 328.975C186.65 328.975 181.782 327.122 178.06 323.4L140.767 286.108C135.316 280.675 133.693 272.49 136.639 265.38C139.585 258.271 146.518 253.632 154.209 253.632L154.245 253.614Z" fill="white"/>
<path d="M11.903 437.993C5.78167 443.638 10.3153 453.852 18.6064 453.058C52.9526 449.813 85.4289 440.146 114.853 425.292C148.212 444.503 186.827 455.546 228 455.546C353.477 455.546 455.546 353.477 455.546 228C455.546 102.54 353.477 0.454254 228 0.454254C102.523 0.454254 0.454224 102.54 0.454224 228C0.454224 284.714 21.3583 336.595 55.7927 376.481C50.9415 398.461 28.6615 422.523 11.903 437.993ZM228 398.461C134.011 398.461 57.5391 321.989 57.5391 228C57.5391 134.011 134.011 57.5391 228 57.5391C321.989 57.5391 398.461 134.011 398.461 228C398.461 321.989 321.989 398.461 228 398.461Z" fill="white"/>
</svg>
