<svg xmlns="http://www.w3.org/2000/svg" viewBox="0 0 2744.833 2553.333"><path fill="#CA64EA" d="M2106.5 2553.333H755.212c-64.55 0-116.879-52.328-116.879-116.879V116.879C638.333 52.328 690.662 0 755.212 0h1872.742c64.551 0 116.879 52.328 116.879 116.879v521.454l-638.333 1915z"/><path fill="#AE4BD5" d="M2744.833 1276.667l-319.167 191.5-319.167-191.5V638.333h638.333v638.334z"/><path fill="#9332BF" d="M2744.833 1915l-319.167 191.5L2106.5 1915v-638.333h638.333V1915z"/><path fill="#7719AA" d="M2106.5 1915h638.333v518.646c0 66.102-53.586 119.688-119.688 119.688H2106.5V1915z"/><path opacity=".2" d="M1414.994 510.667h-776.66V2106.5h776.66c64.534-.21 116.796-52.473 117.006-117.006V627.673c-.21-64.533-52.473-116.796-117.006-117.006z"/><path opacity=".2" d="M1351.16 574.5H638.333v1595.833h712.827c64.534-.21 116.796-52.473 117.006-117.006V691.507c-.209-64.534-52.472-116.797-117.006-117.007z"/><path opacity=".5" d="M1351.16 574.5H638.333v1468.167h712.827c64.534-.21 116.796-52.473 117.006-117.006V691.507c-.209-64.534-52.472-116.797-117.006-117.007z"/><path opacity=".5" d="M1287.327 574.5H638.333v1468.167h648.993c64.534-.21 116.796-52.473 117.007-117.006V691.507c-.21-64.534-52.473-116.797-117.006-117.007z"/><linearGradient id="a" gradientUnits="userSpaceOnUse" x1="243.961" y1="2072.26" x2="1160.372" y2="485.074" gradientTransform="matrix(1 0 0 -1 0 2555.333)"><stop offset="0" stop-color="#8324b3"/><stop offset=".5" stop-color="#7a1bac"/><stop offset="1" stop-color="#621197"/></linearGradient><path fill="url(#a)" d="M117.007 574.5h1170.32c64.621 0 117.007 52.386 117.007 117.007v1170.32c0 64.621-52.386 117.007-117.007 117.007H117.007C52.386 1978.833 0 1926.448 0 1861.827V691.507C0 626.886 52.386 574.5 117.007 574.5z"/><path fill="#FFF" d="M384.66 896.348h158.626l311.698 504.283c14.171 22.597 24.81 40.789 31.917 54.577h2.043a768.03 768.03 0 01-4.596-103.41v-455.45h135.327v760.638H871.197l-323.38-518.263a403.067 403.067 0 01-28.853-53.556h-2.553c3.26 37.74 4.602 75.62 4.021 113.496v458.323H384.66V896.348z"/></svg>