<svg viewBox="0 0 66.7 54.8" version="1.1" xmlns="http://www.w3.org/2000/svg" xmlns:xlink="http://www.w3.org/1999/xlink" xml:space="preserve" style="fill-rule:evenodd;clip-rule:evenodd;stroke-linejoin:round;stroke-miterlimit:2;">
    <g id="instawp" transform="matrix(1,0,0,1,-0.970703,0)">
        <path d="M57.134,21.023L66.781,21.023C66.944,21.022 67.105,21.065 67.247,21.146C67.389,21.227 67.507,21.344 67.59,21.485C67.673,21.627 67.717,21.787 67.717,21.951C67.718,22.114 67.676,22.275 67.596,22.418L50.236,53.219C49.972,53.688 49.588,54.078 49.123,54.35C48.658,54.622 48.13,54.766 47.591,54.766L40.206,54.766C39.591,54.766 38.99,54.579 38.484,54.23C37.977,53.88 37.589,53.385 37.371,52.809L35.563,48.059L35.69,48.144C36.268,48.518 36.916,48.77 37.595,48.883C38.275,48.996 38.97,48.968 39.638,48.801C40.306,48.634 40.932,48.332 41.479,47.913C42.025,47.494 42.48,46.968 42.814,46.366L53.231,27.712L44.92,27.712C44.742,27.715 44.567,27.668 44.415,27.575C44.263,27.482 44.141,27.348 44.062,27.188C43.984,27.028 43.953,26.85 43.973,26.673C43.993,26.496 44.064,26.328 44.176,26.19L65.062,0.214C65.168,0.1 65.31,0.027 65.464,0.006C65.619,-0.015 65.775,0.019 65.907,0.101C66.039,0.184 66.139,0.309 66.188,0.457C66.238,0.605 66.234,0.765 66.178,0.91L57.134,21.023Z" style="fill:rgb(255,125,75);fill-rule:nonzero;"/>
        <path d="M23.215,52.902C23.215,53.147 23.167,53.389 23.074,53.614C22.98,53.84 22.843,54.045 22.67,54.218C22.498,54.391 22.292,54.528 22.067,54.621C21.841,54.715 21.599,54.763 21.355,54.763L13.434,54.763C13.05,54.763 12.676,54.644 12.362,54.423C12.049,54.202 11.811,53.889 11.682,53.527L10.741,50.853L1.079,23.534C0.978,23.25 0.947,22.946 0.988,22.647C1.03,22.349 1.142,22.065 1.316,21.819C1.49,21.573 1.72,21.372 1.988,21.233C2.255,21.095 2.552,21.022 2.853,21.023L10.09,21.023C10.564,21.022 11.027,21.168 11.416,21.44C11.805,21.713 12.1,22.098 12.262,22.544L22.586,50.819L23.115,52.263C23.185,52.468 23.219,52.685 23.215,52.902Z" style="fill:rgb(31,151,165);fill-rule:nonzero;"/>
        <path d="M31.247,36.749L25.295,53.572C25.17,53.923 24.939,54.227 24.635,54.442C24.331,54.657 23.967,54.773 23.595,54.774L13.434,54.774C13.049,54.773 12.674,54.653 12.36,54.429C12.046,54.206 11.809,53.891 11.682,53.527L10.737,50.853C10.923,51.158 12.474,53.539 14.405,50.819L24.331,23.631C24.331,23.631 25.522,22.909 26.251,23.631L31.247,36.749Z" style="fill:rgb(77,190,214);fill-rule:nonzero;"/>
        <path d="M44.67,43.058L40.18,51.083C39.996,51.411 39.723,51.681 39.392,51.859C39.06,52.037 38.685,52.117 38.31,52.089C37.935,52.061 37.575,51.927 37.274,51.702C36.972,51.477 36.742,51.171 36.608,50.819L31.247,36.749L26.433,24.099C26.329,23.834 26.135,23.613 25.884,23.477C25.634,23.341 25.343,23.298 25.064,23.355C24.803,23.41 24.552,23.505 24.32,23.638C24.566,22.95 25.002,22.345 25.577,21.893C26.279,21.33 27.152,21.023 28.051,21.023L34.689,21.023C35.378,21.021 36.05,21.232 36.615,21.627C37.179,22.022 37.609,22.581 37.844,23.229L44.737,42.106C44.796,42.26 44.82,42.425 44.809,42.589C44.797,42.754 44.75,42.914 44.67,43.058Z" style="fill:rgb(31,151,165);fill-rule:nonzero;"/>
    </g>
</svg>