<svg xmlns="http://www.w3.org/2000/svg" enable-background="new 0 0 100 100" viewBox="0 0 100 100"><path fill="#4477e8" d="M18.958 85.616l10.998-2.571c17.717 10.752 41.393 5.459 52.673-12.444C106.114 31.09 55.856-8.752 22.596 22.834 10.127 34.912 7.702 55.261 16.848 69.97c0 0-2.578 10.972-2.578 10.972C13.546 83.64 16.244 86.351 18.958 85.616zM37.641 91.259c-2.192-.661-4.327-1.496-6.385-2.498-2.254-1.234-9.826-2.314-9.162 1.924.279 1.194 1.473 1.937 2.667 1.659.93-.176 2.367-.771 3.256-.2 2.653 1.387 5.433 2.516 8.299 3.372C39.107 96.315 40.407 92.163 37.641 91.259z"/><path fill="#4477e8" d="M12.025 76.22c0 0 .784-3.37.784-3.37.127-.544.036-1.111-.24-1.596-1.602-2.819-2.879-5.813-3.803-8.917-.893-2.768-5.051-1.484-4.251 1.316.859 2.867 1.99 5.647 3.373 8.3.569.881-.026 2.333-.2 3.251C7.095 78.073 11.284 79.067 12.025 76.22zM15.429 89.922c0 0-3.502.819-3.502.819-1.604.375-3.044-1.064-2.67-2.668l.826-3.546c.595-2.869-3.601-3.852-4.337-1.01 0 0-1.637 7.026-1.637 7.026-.564 2.396.928 4.793 3.316 5.349.665.155 1.361.155 2.033 0l7.018-1.613C19.35 93.531 18.318 89.316 15.429 89.922zM45.619 7.173c2.916-.296 5.853-.296 8.769 0 2.911.201 3.296-4.081.397-4.432-3.18-.32-6.386-.321-9.566 0-1.272.128-2.182 1.292-1.989 2.556C43.407 6.454 44.453 7.291 45.619 7.173zM91.243 37.628c.338 1.131 1.51 1.791 2.656 1.505 1.24-.306 1.965-1.591 1.598-2.814-.919-3.063-2.145-6.024-3.66-8.839-1.417-2.549-5.266-.528-3.932 2.078C89.288 32.128 90.406 34.833 91.243 37.628zM13.59 23.153c.99.738 2.379.589 3.194-.339 1.599-1.821 4.206-4.686 6.028-6.173 2.223-1.918-.541-5.256-2.854-3.448-2.473 2.019-4.737 4.283-6.756 6.756C12.397 20.935 12.57 22.393 13.59 23.153zM83.358 22.803c.754.926 2.112 1.076 3.059.35 1.02-.76 1.193-2.219.389-3.204-2.019-2.473-4.283-4.737-6.756-6.756-2.312-1.825-5.072 1.568-2.83 3.467C79.467 18.497 81.524 20.555 83.358 22.803zM86.409 76.836c-.958-.712-2.306-.551-3.061.373-1.841 2.252-3.905 4.311-6.159 6.149-.917.747-1.076 2.088-.368 3.036.757 1.027 2.22 1.206 3.209.4 2.475-2.017 4.743-4.279 6.768-6.748C87.605 79.06 87.432 77.597 86.409 76.836zM54.38 92.82c-2.913.295-5.847.295-8.76-.001-2.912-.202-3.299 4.089-.398 4.44 3.18.32 6.387.321 9.567 0 1.272-.128 2.182-1.292 1.989-2.555C56.601 93.542 55.551 92.702 54.38 92.82zM93.887 60.85c-1.145-.283-2.314.377-2.651 1.507-.837 2.803-1.957 5.511-3.342 8.087-.56 1.04-.195 2.336.819 2.942 1.093.658 2.513.262 3.118-.861 1.519-2.821 2.745-5.791 3.661-8.856C95.857 62.444 95.129 61.157 93.887 60.85zM97.252 45.215c-.128-1.27-1.29-2.18-2.552-1.989-1.166.176-1.995 1.233-1.875 2.406.297 2.901.296 5.831 0 8.733-.215 2.925 4.07 3.327 4.428.417C97.572 51.601 97.572 48.395 97.252 45.215zM70.441 87.897c-2.57 1.384-5.274 2.502-8.07 3.338-2.785.92-1.518 5.035 1.308 4.254 3.063-.919 6.024-2.145 8.839-3.66 1.123-.604 1.52-2.023.863-3.117C72.775 87.7 71.481 87.337 70.441 87.897zM7.181 54.367c-.294-2.903-.294-5.834 0-8.737.211-2.925-4.075-3.323-4.433-.414-.32 3.18-.32 6.386 0 9.566C3.104 57.687 7.391 57.295 7.181 54.367zM8.764 37.635c.836-2.801 1.955-5.507 3.339-8.082.559-1.04.195-2.335-.819-2.942-1.059-.634-2.433-.235-2.979.872-1.177 2.385-3.039 6.326-3.794 8.844C3.731 39.151 7.843 40.424 8.764 37.635zM62.357 8.757c2.803.837 5.511 1.957 8.087 3.342 1.04.559 2.335.195 2.941-.818.659-1.093.262-2.514-.862-3.118-2.818-1.515-5.787-2.74-8.856-3.659C60.846 3.723 59.565 7.832 62.357 8.757zM29.558 12.097c2.575-1.385 5.283-2.504 8.084-3.341 2.788-.921 1.516-5.034-1.311-4.252-3.063.92-6.026 2.146-8.849 3.661-1.124.603-1.521 2.022-.865 3.116C27.226 12.293 28.519 12.656 29.558 12.097z"/></svg>