<svg xmlns="http://www.w3.org/2000/svg" enable-background="new 0 0 100 100" viewBox="0 0 100 100"><path d="M37.642 91.259c-4.63-1.22-8.882-4.729-13.889-3.254-1.196.278-1.94 1.474-1.66 2.67.274 1.199 1.471 1.947 2.669 1.669.93-.176 2.367-.771 3.256-.2 2.653 1.387 5.433 2.516 8.299 3.372C39.123 96.295 40.41 92.189 37.642 91.259zM12.025 76.22c0 0 .784-3.37.784-3.37.127-.544.036-1.111-.24-1.596-1.602-2.819-2.879-5.813-3.803-8.917-.895-2.769-5.051-1.482-4.251 1.316.859 2.867 1.991 5.647 3.374 8.3.569.881-.026 2.333-.2 3.251C7.073 78.058 11.311 79.063 12.025 76.22zM15.429 89.922l-3.502.819c-1.604.375-3.044-1.064-2.67-2.668l.826-3.546c.596-2.869-3.6-3.852-4.337-1.01 0 0-1.637 7.026-1.637 7.026-.565 2.396.928 4.793 3.316 5.35.665.155 1.361.155 2.033 0l7.018-1.613C19.346 93.557 18.303 89.294 15.429 89.922zM45.619 7.173c2.916-.296 5.853-.296 8.769 0 2.911.201 3.297-4.081.397-4.432-3.18-.32-6.386-.321-9.566 0-1.272.128-2.182 1.292-1.989 2.556C43.407 6.454 44.453 7.291 45.619 7.173zM91.243 37.628c.338 1.131 1.51 1.791 2.656 1.505 1.24-.306 1.965-1.591 1.598-2.814-.919-3.063-2.145-6.024-3.66-8.839-1.416-2.549-5.266-.528-3.932 2.078C89.288 32.128 90.406 34.833 91.243 37.628zM13.59 23.153c.99.738 2.379.589 3.194-.339 1.599-1.821 4.206-4.686 6.028-6.173.926-.754 1.076-2.112.35-3.059-.76-1.02-2.219-1.193-3.204-.389-2.473 2.019-4.737 4.283-6.756 6.756C12.397 20.935 12.57 22.393 13.59 23.153zM77.22 16.661c2.247 1.836 4.304 3.895 6.138 6.143 1.894 2.23 5.269-.564 3.448-2.854-2.019-2.473-4.283-4.737-6.756-6.756-.985-.804-2.443-.631-3.204.389C76.129 14.544 76.291 15.901 77.22 16.661zM86.409 76.836c-.958-.712-2.306-.551-3.061.373-1.84 2.252-3.905 4.311-6.159 6.149-.917.747-1.076 2.088-.368 3.036.757 1.027 2.22 1.206 3.209.4 2.475-2.017 4.743-4.279 6.768-6.748C87.605 79.06 87.432 77.597 86.409 76.836zM54.381 92.82c-2.913.295-5.848.295-8.76-.001-2.911-.202-3.299 4.089-.398 4.44 3.18.32 6.387.321 9.567 0 1.272-.128 2.182-1.292 1.989-2.555C56.601 93.542 55.551 92.702 54.381 92.82zM93.887 60.85c-1.145-.282-2.314.377-2.651 1.507-.837 2.802-1.957 5.511-3.342 8.087-.56 1.04-.195 2.336.819 2.942 1.093.658 2.513.262 3.118-.861 1.519-2.821 2.745-5.791 3.661-8.856C95.857 62.444 95.129 61.157 93.887 60.85zM97.252 45.215c-.357-2.906-4.641-2.513-4.427.417.296 2.901.297 5.831 0 8.733-.238 2.914 4.095 3.319 4.428.417C97.572 51.601 97.572 48.395 97.252 45.215zM70.441 87.897c-2.57 1.384-5.274 2.502-8.07 3.338-2.785.92-1.518 5.035 1.308 4.254 3.063-.919 6.024-2.145 8.839-3.66 1.123-.604 1.52-2.023.863-3.117C72.775 87.7 71.481 87.337 70.441 87.897zM5.304 56.77c3.143-.654 1.332-4.556 1.657-6.774-.324-2.218 1.484-6.12-1.66-6.771-1.263-.191-2.424.719-2.552 1.99-.32 3.18-.32 6.386 0 9.566C2.876 56.053 4.04 56.963 5.304 56.77zM6.109 39.141c1.145.285 2.317-.375 2.655-1.506.836-2.801 1.955-5.507 3.339-8.082 1.322-2.521-2.435-4.648-3.798-2.069-1.177 2.385-3.039 6.326-3.795 8.844C4.144 37.55 4.87 38.835 6.109 39.141zM62.357 8.757c2.802.837 5.511 1.957 8.087 3.342 2.601 1.332 4.633-2.519 2.08-3.936-2.818-1.515-5.787-2.74-8.855-3.659-1.225-.367-2.512.36-2.819 1.602C60.568 7.25 61.227 8.419 62.357 8.757zM29.558 12.097c2.575-1.385 5.283-2.504 8.084-3.341 2.786-.895 1.5-5.055-1.311-4.252-3.063.92-6.026 2.146-8.848 3.661-1.124.604-1.521 2.022-.865 3.116C27.226 12.293 28.519 12.656 29.558 12.097z"/><path d="M17.777,86.991l11.442-2.675c18.433,11.186,43.066,5.679,54.802-12.947c24.434-41.108-27.855-82.56-62.459-49.698
			C8.589,34.238,6.066,55.409,15.582,70.712c0,0-2.682,11.415-2.682,11.415C12.146,84.935,14.954,87.756,17.777,86.991z"/></svg>