<svg version="1.1" viewBox="0 0 600 600" xmlns="http://www.w3.org/2000/svg" xmlns:cc="http://creativecommons.org/ns#" xmlns:dc="http://purl.org/dc/elements/1.1/" xmlns:rdf="http://www.w3.org/1999/02/22-rdf-syntax-ns#">
    <title>kinsta-logo2</title>
    <rect width="100%" height="100%" ry="43.349" fill="#5333ed" stroke-width=".86602"></rect>
    <path d="m185.29 74.671h-78.816c-10.132-0.029066-18.36 8.1792-18.36 18.311v413.7c-4.8e-5 10.148 8.212 18.381 18.36 18.408h78.67c10.14-0.0291 18.338-8.2683 18.311-18.408v-413.7c5e-5 -10.094-8.1687-18.284-18.263-18.311zm322.14 31.197c10.176-11.897 1.8004-30.259-13.854-30.373h-88.359c-5.3407 0.0048-10.408 2.363-13.854 6.4428l-177.54 206.41c-6.124 6.9124-6.124 17.309 0 24.221l177.54 206.36c3.4557 4.0617 8.5216 6.3999 13.854 6.3944h88.262c15.704-0.079 24.104-18.523 13.854-30.422l-157.68-182.39c-6.081-6.9287-6.081-17.292 0-24.221z" fill="#fff" stroke-width="4.8442"></path>
    <metadata>
        <rdf:rdf>
            <cc:work rdf:about="">
                <dc:title>kinsta-logo2</dc:title>
            </cc:work>
        </rdf:rdf>
    </metadata>
</svg>
