<svg clip-rule="evenodd" fill-rule="evenodd" stroke-linejoin="round" stroke-miterlimit="2" version="1.1" viewBox=".00014342 134.58 500 230.61" xml:space="preserve" xmlns="http://www.w3.org/2000/svg">
    <g transform="matrix(1.3702 0 0 1.3702 -92.765 -92.61)">
        <path d="m363.7 334.1c26.8 0 47.1-8.3 58-19.7 5.7-6.4 12.4-16.2 7.6-23.9-4.1-6.7-11.1-8-19.4-3.8-8.3 4.1-17.5 6.4-28 6.4-10.2 0-21-3.8-26.8-9.6-7-7-10.8-15.9-10.8-26.4 0-2.5 1.6-2.9 4.5-0.6 7.3 5.7 18.2 8.6 32.8 8.6 27.1 0 51-18.2 51-46.2 0-29.6-28-51.6-70.4-51.6-47.5 0-84.1 30.6-84.1 82.2-0.1 48 31.8 84.6 85.6 84.6z" fill-rule="nonzero"/>
    </g>
    <g transform="matrix(1.3702 0 0 1.3702 -92.765 -92.61)">
        <path d="m167.8 283.7c5.1 0 8 2.9 11.5 8.3l15.3 23.9c5.7 9.2 10.5 15.6 21.7 15.6 11.1 0 16.2-4.5 21.7-16.9 6.7-15.3 13.7-33.8 20.1-58.6 7-27.7 10.2-44.9 10.2-58.9s-4.5-22.3-19.7-25.2c-21-3.8-49.4-6.1-80.6-6.1s-59.6 2.2-80.6 6.1c-15.3 2.9-19.7 11.1-19.7 25.2s3.2 31.2 10.2 58.9c6.4 24.8 13.4 43.3 20.1 58.6 5.4 12.4 10.5 16.9 21.7 16.9s15.9-6.4 21.7-15.6l15.3-23.9c3.2-5.4 6-8.3 11.1-8.3z" fill-rule="nonzero"/>
    </g>
</svg>
