<svg stroke-miterlimit="10" style="fill-rule:nonzero;clip-rule:evenodd;stroke-linecap:round;stroke-linejoin:round;" version="1.1" viewBox="0 0 200 166.41" xml:space="preserve" xmlns="http://www.w3.org/2000/svg" xmlns:vectornator="http://vectornator.io" xmlns:xlink="http://www.w3.org/1999/xlink">
<defs/>
<clipPath id="ArtboardFrame">
<rect height="166.41" width="200" x="0" y="0"/>
</clipPath>
<g clip-path="url(#ArtboardFrame)" id="layer" vectornator:layerName="layer">
<path d="M166.334 0.0213376C155.291-0.34792 143.606 4.11239 134.769 10.5326C126.739 16.366 116.771 23.0427 98.574 25.4235C90.5521 22.3814 81.8847 20.6371 72.7965 20.6371C61.8922 20.6371 51.5812 23.098 42.2951 27.3943C37.6268 20.418 35.6318 10.3761 35.6318 10.3761C31.353 16.8006 29.7818 24.4849 29.7818 24.485C27.4074 19.1837 25.9026 11.8777 25.9026 11.8777C21.2237 18.4546 20.2716 25.7363 20.2716 25.7363C17.7001 21.4041 15.9545 13.1604 15.9545 13.1604C15.9545 13.1604 3.62742 31.949 12.0441 53.3282C4.43311 64.8309-3.34455e-15 78.6083-3.34455e-15 93.4335C-3.34455e-15 133.639 32.5901 166.23 72.7965 166.23C99.9004 166.23 123.488 151.411 136.02 129.441C149.365 130.593 161.32 126.797 169.587 118.867C177.393 111.379 178.691 104.852 178.691 104.852C168.625 108.792 156.523 110.882 144.31 106.917C145.13 102.543 145.593 98.0454 145.593 93.4335C145.593 92.8503 145.513 92.2929 145.499 91.713C151.655 90.2398 158.802 91.6749 163.706 92.8392C163.706 92.8392 162.072 89.3765 155.072 85.0183C150.747 82.3257 144.107 81.1142 144.107 81.1142C144.107 81.1142 144.569 81.5844 144.561 81.6084C143.817 77.0707 142.661 72.6836 141.119 68.4694C158.662 40.9315 189.92 62.3364 194.802 63.4953C194.802 63.4953 211.609 27.9287 184.76 6.497C179.361 2.18783 172.959 0.242892 166.334 0.0213376Z" fill="#2563eb" fill-rule="nonzero" opacity="1" stroke="none"/>
</g>
</svg>
