<svg viewBox="0 0 407 480" fill="none" xmlns="http://www.w3.org/2000/svg">
<path fill-rule="evenodd" clip-rule="evenodd" d="M230.346 480C247.08 478.033 264.799 474.098 281.533 469.18L282.518 309.836C281.533 308.852 280.549 307.869 280.549 306.885C274.643 300.984 268.736 296.066 261.846 292.131C255.939 299.016 250.033 305.902 244.127 310.82C240.189 313.77 236.252 315.738 232.314 318.689L230.346 480ZM125.017 468.197C141.751 474.098 158.486 477.049 175.22 479.016L176.204 316.721C172.267 314.754 168.329 311.803 164.392 308.852C157.501 303.934 151.595 297.049 146.673 290.164C139.782 294.098 133.876 299.016 127.97 304.918L125.017 307.869V468.197Z" fill="#E44C38"/>
<path fill-rule="evenodd" clip-rule="evenodd" d="M204.752 0C163.407 0 128.954 67.8688 128.954 151.475C128.954 159.344 128.954 167.213 129.938 175.082C97.4538 198.689 75.7974 236.066 75.7974 279.344C75.7974 298.033 79.735 314.754 86.6256 330.492C99.4226 300.984 124.032 276.393 154.548 263.607C167.345 288.197 185.064 302.951 204.752 302.951C224.439 302.951 242.158 288.197 255.939 263.607C285.471 276.393 310.081 300.984 322.877 330.492C329.768 314.754 333.706 297.049 333.706 279.344C333.706 236.066 313.034 197.705 280.549 175.082C281.533 167.213 281.533 159.344 281.533 151.475C279.565 68.8524 246.096 0 204.752 0ZM203.767 98.3606C222.47 98.3606 237.236 113.115 237.236 131.803C237.236 150.492 222.47 165.246 203.767 165.246C185.064 165.246 170.298 150.492 170.298 131.803C171.283 113.115 186.048 98.3606 203.767 98.3606Z" fill="#E44C38"/>
<path fill-rule="evenodd" clip-rule="evenodd" d="M100.407 399.344C74.8131 376.721 57.0942 346.23 50.2035 310.82C31.5002 308.852 14.7657 306.885 0 304.918C6.89068 370.82 45.2816 426.885 100.407 459.344V399.344ZM51.1879 247.869C54.1411 234.098 60.0473 220.328 65.9536 207.541C67.9224 203.607 68.9068 199.672 70.8756 196.721C79.9159 178.831 92.6679 163.071 108.282 150.492V148.525V135.738C108.282 122.951 109.266 111.148 110.251 99.3443C52.1723 129.836 9.84383 186.885 0.984383 253.771C15.7501 251.803 32.4846 249.836 51.1879 247.869ZM306.143 458.361C360.284 426.885 398.675 369.836 406.55 303.934C391.784 305.902 375.05 308.852 356.347 309.836C349.456 345.246 331.737 375.738 306.143 398.361V458.361ZM405.566 253.771C396.706 186.885 355.362 130.82 297.284 100.328C298.268 112.131 299.252 123.934 299.252 136.721V151.475C314.018 164.262 326.815 180 335.675 197.705C337.643 201.639 339.612 204.59 340.596 208.525C347.487 220.328 352.409 234.098 355.362 247.869C374.065 249.836 390.8 251.803 405.566 253.771Z" fill="#E44C38"/>
</svg>
