<svg version="1.1" xmlns="http://www.w3.org/2000/svg" xmlns:xlink="http://www.w3.org/1999/xlink" x="0px" y="0px" viewBox="0 0 145.3 109.9" style="enable-background:new 0 0 145.3 109.9;" xml:space="preserve">
 <style type="text/css">
  .st0{fill:#502D3C;}
	.st1{display:none;}
	.st2{display:inline;fill:none;stroke:#2DAAE1;stroke-width:0.25;stroke-miterlimit:10;}
	.st3{display:inline;}
	.st4{fill:none;stroke:#2DAAE1;stroke-width:0.25;stroke-miterlimit:10;}
 </style>
 <g id="Layer_1">
  <path class="st0" d="M17.5,30.5C17.5,18.4,11.4,8.4,0,0h26.5c9.3,7.2,15,18.2,15,30.5c0,12.3-5.7,23.3-15,30.5
		c8.6,3.6,13.5,12.4,13.5,25v24H16v-24c0-12-5.7-20.4-16-25C11.4,52.5,17.5,42.6,17.5,30.5 M69.4,30.5c0-12.1-6.1-22.1-17.5-30.5
		h26.5c9.3,7.2,15,18.2,15,30.5c0,12.3-5.7,23.3-15,30.5c8.6,3.6,13.5,12.4,13.5,25v24h-24v-24c0-12-5.7-20.4-16-25
		C63.3,52.5,69.4,42.6,69.4,30.5 M121.4,30.5c0-12.1-6.1-22.1-17.5-30.5h26.5c9.3,7.2,15,18.2,15,30.5c0,12.3-5.7,23.3-15,30.5
		c8.6,3.6,13.5,12.4,13.5,25v24h-24v-24c0-12-5.7-20.4-16-25C115.3,52.5,121.4,42.6,121.4,30.5">
  </path>
 </g>
 <g id="grid_for_exports" class="st1">
  <line class="st2" x1="215.7" y1="181.8" x2="-71.9" y2="181.8">
  </line>
  <line class="st2" x1="215.7" y1="0" x2="-71.9" y2="0">
  </line>
  <line class="st2" x1="215.7" y1="109.8" x2="-71.9" y2="109.8">
  </line>
  <line class="st2" x1="143.7" y1="181.6" x2="143.7" y2="-72">
  </line>
  <line class="st2" x1="0" y1="-71.2" x2="0" y2="181.6">
  </line>
  <rect x="15.7" y="85.8" class="st2" width="24" height="24">
  </rect>
  <rect x="-24" y="-24" class="st2" width="24" height="24">
  </rect>
  <rect x="-48" y="-48" class="st2" width="24" height="24">
  </rect>
  <rect x="-72" y="-72" class="st2" width="24" height="24">
  </rect>
  <g class="st3">
   <rect x="-72" y="157.8" transform="matrix(-1 -1.224647e-16 1.224647e-16 -1 -120 339.6799)" class="st4" width="24" height="24">
   </rect>
   <rect x="-48" y="133.8" transform="matrix(-1 -1.224647e-16 1.224647e-16 -1 -72 291.6799)" class="st4" width="24" height="24">
   </rect>
   <rect x="-24" y="109.8" transform="matrix(-1 -1.224647e-16 1.224647e-16 -1 -24 243.6799)" class="st4" width="24" height="24">
   </rect>
  </g>
  <g class="st3">
   <rect x="191.7" y="157.8" class="st4" width="24" height="24">
   </rect>
   <rect x="167.7" y="133.8" class="st4" width="24" height="24">
   </rect>
   <rect x="143.7" y="109.8" class="st4" width="24" height="24">
   </rect>
  </g>
  <g class="st3">
   <rect x="143.7" y="-24" transform="matrix(-1 -1.224647e-16 1.224647e-16 -1 311.4358 -24)" class="st4" width="24" height="24">
   </rect>
   <rect x="167.7" y="-48" transform="matrix(-1 -1.224647e-16 1.224647e-16 -1 359.4358 -72)" class="st4" width="24" height="24">
   </rect>
   <rect x="191.7" y="-72" transform="matrix(-1 -1.224647e-16 1.224647e-16 -1 407.4358 -120)" class="st4" width="24" height="24">
   </rect>
  </g>
  <rect x="-72" y="-72" class="st2" width="287.7" height="253.8">
  </rect>
 </g>
</svg>
