<svg xmlns:dc="http://purl.org/dc/elements/1.1/" xmlns:cc="http://creativecommons.org/ns#" xmlns:rdf="http://www.w3.org/1999/02/22-rdf-syntax-ns#" xmlns:svg="http://www.w3.org/2000/svg" xmlns="http://www.w3.org/2000/svg" xmlns:sodipodi="http://sodipodi.sourceforge.net/DTD/sodipodi-0.dtd" xmlns:inkscape="http://www.inkscape.org/namespaces/inkscape" version="1.1" id="svg2" xml:space="preserve" sodipodi:docname="FM-Icon-CMYK.eps" viewBox="21.15 21.15 1323.03 1323.03"><metadata id="metadata8"><rdf:rdf><cc:work rdf:about=""><dc:format>image/svg+xml</dc:format><dc:type rdf:resource="http://purl.org/dc/dcmitype/StillImage"></dc:type></cc:work></rdf:rdf></metadata><defs id="defs6"></defs><sodipodi:namedview pagecolor="#ffffff" bordercolor="#666666" borderopacity="1" objecttolerance="10" gridtolerance="10" guidetolerance="10" inkscape:pageopacity="0" inkscape:pageshadow="2" inkscape:window-width="640" inkscape:window-height="480" id="namedview4"></sodipodi:namedview><g id="g10" inkscape:groupmode="layer" inkscape:label="ink_ext_XXXXXX" transform="matrix(1.3333333,0,0,-1.3333333,0,1365.3333)"><g id="g12" transform="scale(0.1)"><path d="M 8392.01,7275.13 C 8800.14,6656.76 9038.35,5916.35 9038.35,5120 9038.35,2955.95 7284.04,1201.65 5120,1201.65 c -1352.08,0 -2544.17,684.83 -3248.43,1726.52 L 1003.8,2349.64 C 1895.06,1027.99 3405.98,158.699 5120,158.699 c 2740.02,0 4961.3,2221.281 4961.3,4961.301 0,1010.38 -302.84,1949.69 -821.54,2733.62 l -867.75,-578.49" style="fill:#6bbbea;fill-opacity:1;fill-rule:nonzero;stroke:none" id="path14"></path><path d="m 1201.64,5120 c 0,2164.04 1754.3,3918.35 3918.36,3918.35 1367.69,0 2571.08,-701.19 3272.01,-1763.22 l 867.75,578.49 C 8371.8,9195.62 6849.63,10081.3 5120,10081.3 2379.98,10081.3 158.746,7860.02 158.746,5120 c 0,-1026.01 311.539,-1979.21 845.054,-2770.36 l 867.77,578.53 C 1448.64,3553.75 1201.64,4308.02 1201.64,5120" style="fill:#246cbe;fill-opacity:1;fill-rule:nonzero;stroke:none" id="path16"></path><path d="m 2761.47,3547.64 h 4551.21 c 91.6,0 165.86,74.26 165.86,165.88 l -0.01,2978.83 -4717.06,-3144.71" style="fill:#1f262f;fill-opacity:1;fill-rule:nonzero;stroke:none" id="path18"></path><path d="M 5119.99,5120.01 2761.47,6692.36 V 3547.67 c 24.11,16.06 42.43,28.29 0,0 v -0.02 l 2358.52,1572.36" style="fill:#fab20b;fill-opacity:1;fill-rule:nonzero;stroke:none" id="path20"></path></g></g></svg>
