<svg version="1.1" id="Layer_1" xmlns="http://www.w3.org/2000/svg" xmlns:xlink="http://www.w3.org/1999/xlink" x="0px" y="0px" viewBox="19.160011291503906 322.7400207519531 553.3900146484375 143.96514892578125" style="enable-background:new 0 0 612 792;" xml:space="preserve">
<style type="text/css">
    .st0{fill:#2E8CFE;}
    .st1{fill:#2D8CFE;}
</style>
<path class="st0" d="M398.38,322.75c0.93,0,1.85,0,2.78,0c2.46,0.52,4.88,1.08,7.26,1.99c4.32,1.67,8.38,3.63,11.39,7.29
    c0.47,0.57,0.94,0.45,1.29,0.01c1.21-1.52,3.02-2.31,4.59-3.2c4.68-2.66,9.7-4.63,15.05-5.62c0.83-0.15,1.74,0.12,2.48-0.47
    c3.24,0,6.49,0,9.73,0c2.83,0.6,5.65,1.16,8.44,2c3.34,1.01,6.4,2.57,9.44,4.17c1.33,0.7,2.69,1.53,3.88,2.51
    c3.44,2.83,6.9,5.66,9.59,9.26c0.77,1.02,1.38,1.22,2.29,0.04c3.65-4.7,8.1-8.6,13.17-11.62c5.13-3.05,10.7-5.26,16.73-6.03
    c0.49-0.06,1.06,0.15,1.45-0.34c3.24,0,6.49,0,9.73,0c4.94,0.93,9.76,2.15,14.31,4.43c2.88,1.44,5.57,3.09,8.14,5.02
    c4.87,3.67,8.87,8.08,12.23,13.15c4.05,6.12,6.78,12.77,8.51,19.89c0....,1.24,28.81
    c-0.97,7.62-2.97,14.95-6.07,21.96c-3.12,7.03-7.18,13.47-12.39,19.18c-2.75,3.02-5.75,5.72-8.98,8.23
    c-4.88,3.79-10.22,6.75-16.02,8.72c-3.96,1.34-8.03,2.47-12.25,2.82c-0.13,0.01-0.24,0.2-0.36,0.3c-3.71,0-7.42,0-11.12,0
    c-1.9-0.75-3.95-0.93-5.92-1.38c-5.07-1.15-9.87-2.83-14.46-5.34c-5.27-2.88-10.01-6.36-14.28-10.57
    c-4.33-4.26-8.07-8.98-11.11-14.2c-5.24-9.02-8.6-18.72-9.93-29.1c-2.43-18.96,0.77-36.77,10.77-53.22
    c4.59-7.54,10.45-13.9,17.47-19.19c4.22-3.18,8.88-5.67,13.82-7.47c3.7-1.35,7.52-2.51,11.48-3.04
    C323.02,323.04,323.93,323.29,324.69,322.75z M367.29,392.46c-0.35-11.15-4.54-22.86-14.77-32.08c-4.98-4.49-10.74-7.23-17.19-8.42
    c-7.37-1.36-14.36,0.14-21,3.66c-4.29,2.28-7.92,5.32-10.99,8.96c-4.84,5.73-7.94,12.38-9.47,19.73
    c-2.21,10.58-1.15,20.85,3.35,30.68c2.48,5.43,6.01,10.11,10.53,14.11c5.01,4.42,10.82,7.08,17.25,8.3c4,0.76,8.05,0.59,12.13-0.52
    c4.27-1.16,8.17-2.8,11.87-5.23c3.82-2.52,6.96-5.67,9.57-9.31C364.46,414.12,367.25,404.85,367.29,392.46z"></path>
</svg>
