<svg xmlns="http://www.w3.org/2000/svg" viewBox="0 0 1299.08 291.93"><defs><style>.cls-1{fill:#2d8cff;fill-rule:evenodd;}</style></defs><title>Zoom_Blue</title><g id="Layer_2" data-name="Layer 2"><g id="Layer_1-2" data-name="Layer 1"><path class="cls-1" d="M485.22,84a87.58,87.58,0,1,1-123.85,0A87.56,87.56,0,0,1,485.22,84ZM423.39,0a146,146,0,1,1-.19,0ZM791.75,84a87.58,87.58,0,1,1-123.86,0A87.58,87.58,0,0,1,791.75,84ZM833,42.75A146,146,0,1,1,729.73,0,146,146,0,0,1,833,42.75ZM58.39,291.2l14.59.73h219l-.73-14.58c-1.95-24-19-41.57-43.06-43.08l-14.6-.73H102.18L277.33,58.39l-.73-14.58C275.45,19.58,257.72,2,233.54.73L219,0H0L.73,14.58c1.89,23.75,19.17,41.7,43,43.08l14.62.73H189.75L14.6,233.54l.73,14.59C16.77,272.19,34.14,289.6,58.39,291.2ZM1057.68,87.49c5,8.61,6.57,18.32,7.13,29.28l.73,14.6V233.54l.73,14.58c1.44,23.88,19,41.55,43.07,43.08l14.59.73V131.37l.73-14.6c.57-10.82,2.15-20.76,7.19-29.39a58.41,58.41,0,0,1,101,.19c5,8.59,6.51,18.51,7.09,29.2l.73,14.58V233.54l.73,14.58c1.51,24,19,41.68,43.07,43.08l14.58.73V116.77a116.77,116.77,0,0,0-204.35-77.24A116.79,116.79,0,0,0,941.76,20C930.4,7.38,905,0,890.38,0V291.93l14.6-.73c24.38-1.6,42.11-18.82,43.06-43l.73-14.61V131.37l.73-14.6c.61-11,2.14-20.71,7.16-29.33a58.41,58.41,0,0,1,101,0Z"/></g></g></svg>
