<svg xmlns:dc="http://purl.org/dc/elements/1.1/" xmlns:cc="http://creativecommons.org/ns#" xmlns:rdf="http://www.w3.org/1999/02/22-rdf-syntax-ns#" xmlns:svg="http://www.w3.org/2000/svg" xmlns="http://www.w3.org/2000/svg" viewBox="0 0 698.40002 698.40002" xml:space="preserve" id="svg2" version="1.1"><metadata id="metadata8"><rdf:RDF><cc:Work rdf:about=""><dc:format>image/svg+xml</dc:format><dc:type rdf:resource="http://purl.org/dc/dcmitype/StillImage"/></cc:Work></rdf:RDF></metadata><defs id="defs6"><clipPath id="clipPath20" clipPathUnits="userSpaceOnUse"><path id="path18" d="M 2619,5238 C 4065.43,5238 5238,4065.43 5238,2619 5238,1172.57 4065.43,0 2619,0 1172.57,0 0,1172.57 0,2619 0,4065.43 1172.57,5238 2619,5238 Z"/></clipPath><clipPath id="clipPath30" clipPathUnits="userSpaceOnUse"><path id="path28" d="M 2619,5187 C 4037.27,5187 5187,4037.27 5187,2619 5187,1200.73 4037.27,51 2619,51 1200.73,51 50.9961,1200.73 50.9961,2619 50.9961,4037.27 1200.73,5187 2619,5187 Z"/></clipPath><clipPath id="clipPath40" clipPathUnits="userSpaceOnUse"><path id="path38" d="M 2619,4981 C 3923.5,4981 4981,3923.5 4981,2619 4981,1314.5 3923.5,257 2619,257 1314.5,257 257,1314.5 257,2619 c 0,1304.5 1057.5,2362 2362,2362 z"/></clipPath><clipPath id="clipPath50" clipPathUnits="userSpaceOnUse"><path id="path48" d="M 1078,3359 V 2249 c 1,-251 206,-453 456,-452 h 1618 c 46,0 83,37 83,82 v 1110 c -1,251 -206,453 -456,452 H 1161 c -46,0 -83,-37 -83,-82 z m 2260,-433 668,488 c 58,48 103,36 103,-51 V 1875 c 0,-99 -55,-87 -103,-51 l -668,487 z"/></clipPath></defs><g transform="matrix(1.3333333,0,0,-1.3333333,0,698.4)" id="g10"><g transform="scale(0.1)" id="g12"><g id="g14"><g clip-path="url(#clipPath20)" id="g16"><path id="path22" style="fill:#e5e5e4;fill-opacity:1;fill-rule:nonzero;stroke:none" d="M -129.004,5367 H 5366 V -128 H -129.004 v 5495"/></g></g><g id="g24"><g clip-path="url(#clipPath30)" id="g26"><path id="path32" style="fill:#ffffff;fill-opacity:1;fill-rule:nonzero;stroke:none" d="M -77,5315 H 5316 V -78 H -77 v 5393"/></g></g><g id="g34"><g clip-path="url(#clipPath40)" id="g36"><path id="path42" style="fill:#4a8cff;fill-opacity:1;fill-rule:nonzero;stroke:none" d="M 128,5110 H 5110 V 128 H 128 v 4982"/></g></g><g id="g44"><g clip-path="url(#clipPath50)" id="g46"><path id="path52" style="fill:#ffffff;fill-opacity:1;fill-rule:nonzero;stroke:none" d="M 950.004,3569 H 4237 V 1669 H 950.004 v 1900"/></g></g></g></g></svg>
