<svg version="1.1" id="Layer_1" xmlns="http://www.w3.org/2000/svg" xmlns:xlink="http://www.w3.org/1999/xlink" x="0px" y="0px" viewBox="13.354557037353516 127.31206512451172 572.845458984375 556.2523193359375" style="enable-background:new 0 0 612 792;" xml:space="preserve">
<style type="text/css">
	.st0{fill:#4FAFFA;}
	.st1{fill:#52B4FA;}
	.st2{fill:#56BBFA;}
	.st3{fill:#50B2FA;}
	.st4{fill:#54B8FB;}
	.st5{fill:#50B2FB;}
	.st6{fill:#57BDFA;}
	.st7{fill:#53B5FA;}
	.st8{fill:#54B7FA;}
	.st9{fill:#4DACFA;}
	.st10{fill:#4DACFB;}
	.st11{fill:#277AFA;}
	.st12{fill:#2678FA;}
	.st13{fill:#2477FB;}
	.st14{fill:#2A7DFB;}
	.st15{fill:#4BAAFA;}
	.st16{fill:#49A7FB;}
	.st17{fill:#47A4FA;}
	.st18{fill:#2C80FB;}
	.st19{fill:#2F83FA;}
	.st20{fill:#2E82FA;}
	.st21{fill:#3085FB;}
	.st22{fill:#3185FA;}
	.st23{fill:#3388FA;}
	.st24{fill:#49A7FA;}
	.st25{fill:#348AFB;}
	.st26{fill:#3287FA;}
	.st27{fill:#378DFA;}
	.st28{fill:#3A92FB;}
	.st29{fill:#3990FA;}
	.st30{fill:#358BFA;}
	.st31{fill:#3B93FA;}
	.st32{....19
	c-0.12,3.45,0.34,6.91-0.27,10.35c-2.41,1.56-4.8,1.59-7.19-0.03C382.93,388.61,382.63,376.84,383.43,365.07z"></path>
<path class="st51" d="M390.32,400.32c0-9.71-0.02-19.42,0.04-29.13c0.01-1.45-0.61-3.08,0.77-4.33c0.01,26.53,0.03,53.06,0.04,79.59
	c-1.63-1.76-0.5-3.91-0.85-5.85c-1.37-1.48-1.36-3.31-1.37-5.12c-0.04-10.01-0.04-20.03,0-30.04
	C388.95,403.63,388.95,401.79,390.32,400.32z"></path>
<path class="st52" d="M383.43,365.07c0,11.75,0,23.5,0,35.25c2.15,5.88,2.22,11.75-0.01,17.63c-0.28,0-0.55,0-0.83,0.01
	c0-20.9,0-41.79,0-62.69c0.28-0.01,0.56-0.02,0.84-0.03C383.43,358.51,383.43,361.79,383.43,365.07z"></path>
<path class="st53" d="M383.42,417.95c0-5.88,0.01-11.75,0.01-17.63c2.3,0,4.59,0,6.88,0c0,13.43,0,26.85,0,40.28
	c-2.29-0.2-4.59-1.11-6.88,0C383.43,433.05,383.42,425.5,383.42,417.95z"></path>
<path class="st32" d="M421.43,466.52c-0.13,0.93,1.74,1.32,0.71,2.4c-0.14,0.15-1.12-0.13-1.4-0.46c-0.79-0.93-0.8-1.76,0.75-1.91
	C421.49,466.54,421.43,466.52,421.43,466.52z"></path>
</svg>
