<svg xmlns="http://www.w3.org/2000/svg" viewBox="0 0 599.9 200.9">
<style type="text/css">
	.st0{fill:#FF5A00;}
</style>
<path class="st0" d="M589.6,65.7c-18.6-23.9-53-28.3-76.9-9.7c-3.6,2.8-6.9,6.1-9.7,9.7c-6.9,9.8-10.5,21.5-10.3,33.5
	c-0.2,12,3.4,23.7,10.3,33.5c18.6,23.9,53,28.3,76.9,9.7c3.6-2.8,6.9-6.1,9.7-9.7c6.9-9.8,10.5-21.5,10.3-33.5
	C600.1,87.2,596.5,75.5,589.6,65.7z M572.4,111.7c-3.9,11.8-13.3,20.9-26.2,21.2c-12.9,0.3-22.3-9.5-26.2-21.2
	c-2.8-8.1-2.8-17,0-25.1c3.9-11.8,13.3-20.9,26.2-21.2c12.9-0.3,22.3,9.5,26.2,21.2C575.2,94.7,575.2,103.6,572.4,111.7L572.4,111.7
	z M178,151.1c0,1.7-1.4,3.1-3.1,3.1l0,0h-18c-1.7,0-3.1-1.4-3.1-3.1l0,0V3.1c0-1.7,1.4-3.1,3.1-3.1l0,0h18c1.7,0,3.1,1.4,3.1,3.1
	l0,0V151.1z M135.7,151.1c0,1.7-1.4,3.1-3.1,3.1l0,0h-18c-1.7,0-3.1-1.4-3.1-3.1l0,0V3.1c0-1.7,1.4-3.1,3.1-3.1h18
	c1.7,0,3.1,1.4,3.1,3.1l0,0V151.1L135.7,151.1z M488.6,50.6v12.6c0.2,1.8-1,3.4-2.8,3.7c-0.5,0.1-0.9,0-1.4-0.1
	c-20.3-4.2-32.9,4.9-32.9,23.6v60.7c0,1.7-1.4,3.1-3.1,3.1h-18c-1.7,0-3.1-1.4-3.1-3.1v-62c-0.2-11.9,4.6-23.2,13.3-31.3
	c8.8-8.6,20.6-13.4,32.9-13.3c4.2,0,8.4,0.4,12.6,1.2c2.1,0.7,2.5,2,2.5,5.2V50.6z M411.6,99.1c0.2-12-3.4-23.7-10.3-33.5
	c-18.6-23.9-53-28.3-76.9-9.7c-3.6,2.8-6.9,6.1-9.7,9.7c-13.9,20.1-13.9,46.8,0,67c10.2,13.6,26.3,21.5,43.3,21.2
	c11,0,21.7-3.2,30.8-9.3v13.2c0,18-15.7,21.2-25.7,21.8c-6.9,0.2-13.8-0.1-20.7-1.1c-2.8-0.4-4.7,0-4.7,3v15.9
	c0.1,1.5,1.3,2.7,2.8,2.6l0,0c23.3,2,39,1.6,50.8-5.1c8.3-4.9,14.4-12.7,17.2-21.9c2.1-7.1,3.1-14.5,3-21.8L411.6,99.1L411.6,99.1z
	 M358,132.9c-12.9,0-22.3-9.5-26.2-21.2c-2.8-8.1-2.8-17,0-25.1c3.9-11.8,13.3-21.2,26.2-21.2c28.9,0,29.9,29.5,29.9,33.8
	S386.9,132.9,358,132.9z M95.1,88.3c0-14.3-3.2-25.1-10-32.6c-6.9-7.5-20.7-11.2-33.5-11.2c-12.9-0.1-25.5,3.3-36.6,9.8
	c-0.7,0.4-1.1,1.2-1.1,2l1,15.7c0.3,1.5,1.7,2.5,3.2,2.3c0.5-0.1,1-0.3,1.4-0.6C35.2,64,54,62.2,63.6,67.1C69,70.2,72.2,76,72,82.2
	v2.3H45.7C34.4,84.5,0,88.7,0,120.4v0.3c-0.5,9.8,3.6,19.2,11.2,25.4c8.2,5.7,18,8.6,28,8h52.9c1.7,0,3.1-1.4,3.1-3.1l0,0V88.2
	L95.1,88.3z M71.8,134.7H40.6c-4-0.1-7.9-1.5-11.1-3.9c-3.3-2.3-5.3-6.2-5.2-10.3c0-5.6,3.8-16.9,22.8-16.9h24.7
	C71.8,103.6,71.8,134.7,71.8,134.7z M244.3,44.5c-32,0-46,21.5-50.5,39.6c-1.2,4.9-1.9,9.9-1.8,15c-0.2,12,3.4,23.7,10.3,33.5
	c10.4,13.4,26.4,21.2,43.3,21.2c17.3,0.6,28.8-2.3,37.7-7.3c1.8-1.1,2.6-3.3,2.1-5.3v-13.9c0-2.8-1.7-4.2-4.2-2.5
	c-10.3,6.6-22.6,9.6-34.8,8.4c-14.4-0.2-26.4-11.1-28-25.4h71.1c1.6,0,2.9-1.3,2.9-2.9C293.6,85.4,288,44.5,244.3,44.5z M218.7,88.5
	c0.6-13.3,11.9-23.7,25.3-23.1c0.1,0,0.2,0,0.4,0c11.9-0.7,22.1,8.3,22.8,20.2c0.1,1,0.1,1.9,0,2.9H218.7z"/>
</svg>