<svg xmlns="http://www.w3.org/2000/svg" viewBox="0 0 24 24"><path d="M3.048 2.027a2.04 2.04 0 012.04 2.04v15.852a2.04 2.04 0 01-2.04 2.04 2.041 2.041 0 01-2.04-2.04V4.067a2.044 2.044 0 012.04-2.04z" fill="#2296E3"/><path d="M16.22.794c.793.8.786 2.092-.014 2.881L4.936 14.828c-.8.793-2.092.786-2.882-.014a2.036 2.036 0 01.014-2.882L13.338.783c.8-.796 2.092-.79 2.882.01z" fill="#2296E3"/><path d="M16.22 23.179c.793-.8.786-2.092-.014-2.882L4.936 9.147a2.036 2.036 0 00-2.882.015c-.793.8-.786 2.091.014 2.881l11.27 11.15c.8.796 2.092.79 2.882-.014z" fill="#2296E3"/><path d="M22.368 14.62c.793.8.79 2.092-.007 2.885l-5.93 5.902c-.8.793-2.092.79-2.885-.007-.793-.8-.79-2.092.007-2.885l5.93-5.902a2.043 2.043 0 012.885.007zm0-5.24c.793-.8.79-2.092-.007-2.885L16.431.593A2.043 2.043 0 0013.546.6c-.793.8-.79 2.092.007 2.885l5.93 5.902a2.04 2.04 0 002.885-.007zm-7.364 4.68a2.057 2.057 0 100-4.116 2.057 2.057 0 000 4.115z" fill="#2296E3"/></svg>