<svg xmlns="http://www.w3.org/2000/svg" viewBox="0 0 90 90"><defs><linearGradient x1="50%" y1="0%" x2="50%" y2="100%" id="a"><stop stop-color="#004EFF" offset="0%"/><stop stop-color="#007FFF" offset="100%"/></linearGradient></defs><g fill="none" fill-rule="evenodd"><path fill="url(#a)" d="M0 0h90v90H0z"/><path d="m27 51.202 34.926 15.202v7.085A3.513 3.513 0 0 1 58.404 77c-.476 0-.952-.103-1.367-.268L31.288 65.516A6.938 6.938 0 0 1 27 59.402v-8.2Zm0-20.194a6.962 6.962 0 0 0 3.677 6.147l.093.049 3.543 1.59 14.293 6.217h.021v.021l11.29 4.916a3.458 3.458 0 0 1 2.008 3.076l.001.084V63.27L27 48.068v-17.06Zm35-4.38v10.161c0 1.315-.734 2.47-1.814 3.061l-.071.038-7.847 3.422-3.564-1.552v-.021h-.02l-10.701-4.654L62 26.627ZM58.472 13a3.514 3.514 0 0 1 3.52 3.435l.001.076v7.105L34.38 35.626l-3.538-1.588a6.972 6.972 0 0 1-3.597-4.646 6.983 6.983 0 0 1 4.009-4.844l.102-.043 25.936-11.299a3.228 3.228 0 0 1 1.18-.206Z" fill="#FFF"/></g></svg>
