<svg viewBox="0 0 277 277" xmlns="http://www.w3.org/2000/svg" xmlns:xlink="http://www.w3.org/1999/xlink">
    <path id="Path" fill="#6573ff" stroke="none" d="M 277.530212 48.8255 L 277.530212 26.22554 C 277.530212 11.741577 265.788635 0 251.304626 0 L 26.725555 0 C 12.241547 0 0.5 11.741577 0.5 26.22554 L 0.5 48.402451 C 10.923737 58.373016 106.399292 148.923752 139.483429 148.923752 C 174.50119 148.923752 266.713684 59.430511 277.530212 48.8255 Z"/>
    <path id="path1" fill="#202945" stroke="none" d="M 228.191101 131.399734 C 190.363434 165.480896 160.512207 182.763184 139.453186 182.763184 C 91.685211 182.763184 10.802887 110.401169 0.469757 101.004669 L 0.469757 250.774445 C 0.469757 265.258423 12.211365 277 26.695343 277 L 251.274414 277 C 265.758423 277 277.5 265.258423 277.5 250.774445 L 277.5 81.577225 C 261.953369 99.042267 245.49408 115.672958 228.191101 131.399734 Z"/>
</svg>
