<svg viewBox="0 0 369 241" version="1.1" xmlns="http://www.w3.org/2000/svg" xmlns:xlink="http://www.w3.org/1999/xlink" xml:space="preserve" xmlns:serif="http://www.serif.com/" style="fill-rule:evenodd;clip-rule:evenodd;stroke-linejoin:round;stroke-miterlimit:2;">
    <g id="svgg">
        <path id="path0" d="M22.428,24.67C10.715,25.206 2.069,36.319 4.428,47.804C4.568,48.485 6.778,55.827 11.097,69.956C11.897,72.575 13.31,77.203 14.236,80.241C15.162,83.279 17.135,89.751 18.62,94.622C20.105,99.494 22.091,106.008 23.033,109.099C23.975,112.189 25.036,115.66 25.39,116.813C25.744,117.965 26.399,120.135 26.846,121.635L27.658,124.362L30.334,118.968C32.833,113.933 35.43,108.65 42.821,93.575C44.465,90.222 47.32,84.402 49.167,80.641C51.013,76.88 52.523,73.709 52.523,73.594C52.523,73.479 51.101,68.713 49.362,63.004C47.623,57.294 45.223,49.408 44.028,45.479C41.489,37.13 41.145,36.17 39.973,34.17C36.361,28.003 29.6,24.342 22.428,24.67M56.568,153.051L44.154,178.337L46.446,185.86C49.24,195.034 51.466,202.334 54.114,211.003C55.218,214.618 56.812,219.846 57.658,222.622C60.083,230.588 61.639,233.241 65.654,236.256C77.812,245.384 94.899,237.885 96.534,222.705C96.978,218.58 98.466,223.987 82.329,171.099C75.279,147.992 73.657,142.669 71.562,135.765C70.275,131.522 69.168,127.987 69.102,127.908C69.035,127.83 63.395,139.144 56.568,153.051" style="fill:rgb(212,12,100);"/>
        <path id="path1" d="M96.714,0.515C92.137,1.482 87.314,4.763 84.806,8.617C84.183,9.574 55.761,67.169 53.434,72.191L52.662,73.854L60.826,100.615C65.315,115.334 69.045,127.314 69.114,127.237C69.593,126.703 118.668,26.249 119.059,24.999C123.442,11.004 111.097,-2.523 96.714,0.515M14.572,151.329C-0.793,182.655 0.143,180.454 0.143,185.264C0.143,200.806 17.048,209.778 30.093,201.158C33.714,198.765 34.844,197.106 40.032,186.552L44.122,178.231L38.504,159.808C35.414,149.675 31.766,137.699 30.397,133.194C29.028,128.689 27.846,124.936 27.77,124.853C27.694,124.77 21.755,136.685 14.572,151.329" style="fill:rgb(148,196,68);"/>
        <path id="path2" d="M98.954,0.09C99.191,0.136 99.534,0.134 99.716,0.087C99.898,0.039 99.704,0.002 99.285,0.004C98.866,0.006 98.717,0.045 98.954,0.09M102.095,0.087C102.278,0.135 102.578,0.135 102.762,0.087C102.945,0.039 102.795,0 102.428,0C102.062,0 101.912,0.039 102.095,0.087M114.333,5.67C114.955,6.299 115.507,6.813 115.559,6.813C115.612,6.813 115.145,6.299 114.523,5.67C113.901,5.041 113.35,4.527 113.297,4.527C113.245,4.527 113.711,5.041 114.333,5.67M120.017,19.289C120.018,20.127 120.052,20.446 120.092,19.998C120.132,19.55 120.131,18.865 120.091,18.474C120.05,18.084 120.017,18.451 120.017,19.289M114.078,35.678C113.759,36.379 113.82,36.528 114.165,35.891C114.326,35.594 114.422,35.315 114.379,35.271C114.335,35.228 114.2,35.411 114.078,35.678M249.606,97.222C249.535,97.294 249.476,100.768 249.476,104.941L249.476,112.53L248.285,111.317C245.151,108.122 239.791,107.38 235.391,109.531C226.224,114.014 225.186,132.465 233.737,138.937C238.617,142.63 245.901,141.977 249.362,137.535L250.047,136.655L250.047,140.725L254.19,140.674L258.333,140.622L258.333,97.194L254.035,97.143C251.671,97.115 249.678,97.15 249.606,97.222M265.713,118.86L265.762,140.622L270.094,140.674L274.426,140.725L274.475,123.463L274.523,106.202L279.643,122.841C282.458,131.992 284.876,139.76 285.015,140.102L285.269,140.724L294.681,140.622L299.841,123.648L305,106.674L305.19,140.622L313.952,140.622L313.952,97.194L299.982,97.094L299.714,98.001C295.624,111.851 290.32,129.479 290.244,129.477C290.188,129.475 288.218,123.111 285.866,115.334C283.514,107.557 281.304,100.272 280.954,99.146L280.318,97.099L265.665,97.099L265.713,118.86M105.095,98.705C98.275,100.142 94.596,104.469 93.953,111.813L93.824,113.289L102.809,113.289L102.812,112.575C102.83,108.022 106.198,104.851 110.146,105.671C112.784,106.218 114.143,108.031 114.143,111.003C114.143,114.523 113.186,115.688 106.772,119.984C97.989,125.867 95.557,128.696 94.331,134.456C94.003,135.995 93.757,139.532 93.929,140.219L94.055,140.72L108.765,140.671L123.476,140.622L123.528,136.956L123.579,133.289L114.242,133.289C106.899,133.289 104.904,133.238 104.905,133.051C104.906,131.363 106.646,129.632 111.799,126.19C120.911,120.103 123.563,116.573 123.565,110.527C123.567,104.882 120.366,100.835 114.516,99.086C112.415,98.458 107.259,98.249 105.095,98.705M138.739,98.716C131.749,100.166 127.399,105.073 127.383,111.527L127.381,112.527L136.468,112.527L136.581,111.324C136.937,107.514 138.836,105.765 142.619,105.765C146.376,105.765 148.337,107.63 148.328,111.194C148.319,114.579 145.904,116.14 140.666,116.145L139,116.146L139,123.33L141.143,123.463C146.808,123.813 148.72,125.175 148.71,128.854C148.7,132.406 146.697,134.146 142.619,134.146C138.369,134.146 136.172,132.207 135.985,128.292L135.905,126.622L126.752,126.622L126.871,128.289C127.249,133.589 129.739,137.582 133.971,139.673C138.642,141.981 146.322,142.045 151.192,139.816C160.342,135.629 160.084,122.268 150.804,119.763L149.952,119.533L151,119.145C159.533,115.981 159.602,104.217 151.111,100.077C148.097,98.608 142.324,97.972 138.739,98.716M172.714,108.357C166.712,109.273 162.725,112.886 161.965,118.099L161.833,119.003L166.417,119.003C170.969,119.003 171,119.001 171,118.597C171,116.342 172.861,114.668 175.576,114.481C179.222,114.232 180.958,115.681 181.375,119.322L181.51,120.499L180.683,120.605C180.229,120.664 179.043,120.802 178.047,120.911C165.527,122.291 160.714,125.305 160.714,131.765C160.714,141.384 176.382,145.168 182.103,136.931L182.714,136.051L182.817,138.192C182.873,139.369 183.008,140.421 183.116,140.529C183.409,140.822 190.537,140.695 190.48,140.398C189.912,137.437 189.793,135.21 189.758,126.813C189.711,115.605 189.504,114.607 186.64,111.75C183.793,108.912 178.128,107.532 172.714,108.357M210.285,108.625C208.459,109.022 206.701,109.985 205.244,111.386L203.952,112.627L203.952,109.099L195.571,109.099L195.571,140.718L204.333,140.718L204.339,131.813C204.346,120.845 204.517,119.243 205.903,117.17C207.531,114.734 212.079,114.4 213.752,116.593C214.879,118.071 214.884,118.119 214.994,129.86L215.095,140.622L219.428,140.674L223.762,140.725L223.758,129.245C223.755,116.487 223.731,116.187 222.525,113.737C220.525,109.671 215.374,107.52 210.285,108.625M332.047,108.619C324.279,110.065 319.7,115.988 319.675,124.622C319.644,135.444 325.978,141.62 336.714,141.237C343.391,140.998 348.103,137.978 350.323,132.514C351.073,130.67 351.422,130.813 346.171,130.813L341.534,130.813L341.196,131.563C338.751,136.984 329.403,134.765 328.768,128.613L328.661,127.575L339.715,127.575C348.385,127.575 350.787,127.523 350.854,127.337C351.515,125.497 350.444,119.189 348.973,116.257C345.96,110.254 339.332,107.263 332.047,108.619M360.226,108.515C355.031,109.759 353.174,116.746 357.07,120.39C359.952,123.086 364.039,123.062 366.827,120.334C371.876,115.394 367.113,106.867 360.226,108.515M363.699,109.955C366.858,110.893 368.534,115.093 366.915,118.016C363.906,123.447 355.977,121.105 356.375,114.904C356.609,111.25 360.105,108.888 363.699,109.955M358.853,115.313L358.904,119.289L359.838,119.348C360.972,119.42 361.039,119.329 360.995,117.76C360.937,115.721 362.74,116.056 363.1,118.151L363.296,119.289L365.19,119.289L365.133,118.241C365.059,116.9 364.806,116.26 364.225,115.949L363.76,115.7L364.307,115.435C365.687,114.767 365.558,112.601 364.092,111.828C363.642,111.591 362.846,111.481 361.139,111.421L358.801,111.338L358.853,115.313M362.94,113.401C363.5,114.167 362.857,115.003 361.71,115.003L360.991,115.003L360.991,112.868L361.841,112.964C362.351,113.022 362.791,113.196 362.94,113.401M338.364,115.581C340.183,116.469 341.441,118.221 341.743,120.289L341.861,121.099L328.558,121.099L328.809,120.147C330.003,115.619 334.269,113.581 338.364,115.581M245.651,116.161C251.047,118.544 251.035,130.767 245.635,133.465C240.991,135.785 236.883,131.836 236.831,125.003C236.779,118 240.766,114.004 245.651,116.161M181.373,127.432C180.764,132.7 178.988,134.79 174.968,134.966C171.905,135.1 170.072,133.917 169.908,131.704C169.72,129.144 171.522,128.057 177.723,126.991C181.866,126.278 181.512,126.236 181.373,127.432M15.221,149.583C14.902,150.283 14.963,150.433 15.308,149.796C15.469,149.499 15.565,149.22 15.522,149.176C15.478,149.133 15.343,149.316 15.221,149.583M0,186.908C0.002,187.327 0.041,187.476 0.087,187.239C0.132,187.002 0.131,186.659 0.083,186.477C0.035,186.295 -0.002,186.489 0,186.908M5.571,199.003C6.193,199.632 6.745,200.146 6.797,200.146C6.85,200.146 6.384,199.632 5.762,199.003C5.14,198.375 4.588,197.86 4.535,197.86C4.483,197.86 4.949,198.375 5.571,199.003M18.567,204.665C18.905,204.707 19.505,204.707 19.9,204.666C20.295,204.625 20.019,204.59 19.285,204.59C18.552,204.589 18.229,204.622 18.567,204.665" style="fill:rgb(156,156,163);"/>
        <path id="path3" d="M51.572,75.956C51.017,77.056 45.44,88.39 39.179,101.143L27.794,124.33L35.964,151.122C40.457,165.858 44.158,177.94 44.188,177.969C44.218,177.999 45.824,174.794 47.758,170.847C49.691,166.9 53.064,160.027 55.253,155.575C68.436,128.755 68.933,127.715 68.807,127.211C68.696,126.765 53.104,75.558 52.737,74.432C52.596,74.002 52.482,74.152 51.572,75.956" style="fill:rgb(60,164,20);"/>
        <path id="path4" d="M100.381,0.092C100.669,0.136 101.14,0.136 101.428,0.092C101.716,0.048 101.481,0.013 100.904,0.013C100.328,0.013 100.093,0.048 100.381,0.092M87.083,5.718L86.523,6.337L87.143,5.777C87.483,5.469 87.762,5.191 87.762,5.158C87.762,5.011 87.604,5.141 87.083,5.718M0.011,185.194C0.012,185.822 0.048,186.057 0.09,185.714C0.132,185.372 0.132,184.858 0.088,184.571C0.045,184.285 0.01,184.565 0.011,185.194" style="fill:rgb(116,172,52);"/>
    </g>
</svg>
