<svg xmlns="http://www.w3.org/2000/svg" xmlns:xlink="http://www.w3.org/1999/xlink" version="1.1" id="Layer_1" x="0px" y="0px" viewBox="0 0 49.8 71.1" xml:space="preserve">
<style type="text/css">
  .st0{fill:#E96443;}
  .st1{fill:#ACB5BF;}
  .st2{fill:#49515B;}
  .st3{fill:#2B3238;}
  .st4{fill:#A4ABB2;}
  .st5{fill:url(#SVGID_1_);}
  .st6{fill:url(#SVGID_2_);}
  .st7{fill:url(#SVGID_3_);}
  .st8{fill:url(#SVGID_4_);}
</style>
<ellipse class="st1" cx="23.4" cy="36" rx="23.3" ry="5.5"/>
<path id="Front" class="st2" d="M34.7,53.2l-21.9-3.8l8.3-47.5c0.2-1.1,1.2-1.8,2.2-1.6l20.2,2.5L34.7,53.2z"/>
<path id="Side" class="st3" d="M38.3,53.3l-4.9-0.2l10-50.3h0.1l6.1,8.9c0.1,0.2,0.2,0.5,0.2,0.7l-6.1,33.7l-1.9,3.8L38.3,53.3z"/>
<path class="st4" d="M26.1,8.1L36,9.6c0.8,0.1,1.5-0.4,1.7-1.1l0,0c0.2-0.8-0.4-1.7-1.2-1.8l-9.8-1.5c-0.8-0.1-1.5,0.4-1.7,1.2l0,0   C24.7,7.2,25.3,8,26.1,8.1z"/>
<path class="st4" d="M24.8,14.2l9.9,1.6c0.8,0.1,1.5-0.4,1.6-1.1v-0.1c0.2-0.8-0.4-1.6-1.2-1.7l-9.9-1.5c-0.7-0.1-1.5,0.4-1.6,1.1   l0,0C23.4,13.3,24,14.1,24.8,14.2z"/>
<path id="Front_1_" class="st2" d="M23.2,50.1L4.3,51.7L1.1,14.1c-0.1-1.1,0.6-2,1.7-2.2l17-2.7L23.2,50.1z"/>
<path id="Side_1_" class="st3" d="M23.2,50.1l6.7-0.6L27,15.6c0-0.6-0.3-1.1-0.8-1.4l-6.4-4.8L23.2,50.1z"/>
<path class="st4" d="M15.8,17.1l-9.4,1.8c-0.8,0.2-1.5-0.4-1.6-1.2l0,0c-0.1-0.7,0.4-1.3,1.1-1.4l9.4-1.8c0.8-0.2,1.6,0.4,1.6,1.3   l0,0C16.9,16.4,16.4,17,15.8,17.1z"/>
<path class="st4" d="M16.3,23L7,24.8c-0.8,0.2-1.6-0.4-1.6-1.2l0,0c-0.1-0.7,0.4-1.4,1.1-1.5l9.3-1.8c0.8-0.2,1.6,0.4,1.7,1.3l0,0   C17.5,22.3,17,22.9,16.3,23z"/>
<g>
  <radialGradient id="SVGID_1_" cx="23.5" cy="50.4649" r="22.114" gradientUnits="userSpaceOnUse">
    <stop offset="0.5903" style="stop-color:#FFFFFF"/>
    <stop offset="0.5906" style="stop-color:#FFFFFF"/>
    <stop offset="1" style="stop-color:#D5DAE0"/>
  </radialGradient>
  <path class="st5" d="M47,38c0-2.1-0.1-4.2-0.4-6.3c-0.3-2.6-0.8,1.3-2,1.4s-1.8-4.4-3.7-3c-2.1,1.6-4.2,5.3-5.2,7     c-0.8,1.4-3.1,3.3-4.4,3.9c-1.2,0.6-0.8,4.7-2.2,3.9c-4-2.3-6-2.9-8.6-2.9c-2.5,0-1.1,4.2-3,4.4c-3.9,0.4-5.7-4.7-7.9-6.4     c-2-1.5-3.6-0.4-4.5-0.5c-2.2-0.4-5-5-5.1-3.8c0,0.7,0,1.5,0,2.3c0,18.3,10.5,33.1,23.5,33.1S47,56.3,47,38z"/>
  <radialGradient id="SVGID_2_" cx="23.5" cy="50.4649" r="22.114" gradientUnits="userSpaceOnUse">
    <stop offset="0.5903" style="stop-color:#FFFFFF"/>
    <stop offset="0.5906" style="stop-color:#FFFFFF"/>
    <stop offset="1" style="stop-color:#D5DAE0"/>
  </radialGradient>
  <path class="st6" d="M47,38c0-2.1-0.1-4.2-0.4-6.3c-0.3-2.6-0.8,1.3-2,1.4s-1.8-4.4-3.7-3c-2.1,1.6-4.2,5.3-5.2,7     c-0.8,1.4-3.1,3.3-4.4,3.9c-1.2,0.6-0.8,4.7-2.2,3.9c-4-2.3-6-2.9-8.6-2.9c-2.5,0-1.1,4.2-3,4.4c-3.9,0.4-5.7-4.7-7.9-6.4     c-2-1.5-3.6-0.4-4.5-0.5c-2.2-0.4-5-5-5.1-3.8c0,0.7,0,1.5,0,2.3c0,18.3,10.5,33.1,23.5,33.1S47,56.3,47,38z"/>
</g>
<g>
  <linearGradient id="SVGID_3_" gradientUnits="userSpaceOnUse" x1="0" y1="50.465" x2="47" y2="50.465">
    <stop offset="0" style="stop-color:#A6B7CE"/>
    <stop offset="0.8655" style="stop-color:#FFFFFF"/>
  </linearGradient>
  <path class="st7" d="M47,37.9c0-2.1-0.1-4.2-0.4-6.3c-0.4-2.6-0.8,1.3-2,1.5c-1.2,0.1-1.8-4.4-3.7-3c-2.1,1.6-4.2,5.3-5.2,7     c-0.8,1.4-3.1,3.3-4.4,3.9c-1.2,0.6-0.8,4.7-2.2,3.9c-4-2.3-6-2.9-8.6-2.9c-2.5,0-1.1,4.2-3,4.4c-3.9,0.4-5.7-4.7-7.9-6.4     c-2-1.5-3.6-0.4-4.5-0.5c-2.2-0.4-5-5-5.1-3.8C0,36.4,0,37.1,0,37.9c0,18.3,10.5,33.2,23.5,33.2S47,56.3,47,37.9z"/>
  <linearGradient id="SVGID_4_" gradientUnits="userSpaceOnUse" x1="23.5" y1="71.1" x2="23.5" y2="29.83">
    <stop offset="0" style="stop-color:#7E8B9D"/>
    <stop offset="0.6241" style="stop-color:#FFFFFF;stop-opacity:0"/>
  </linearGradient>
  <path class="st8" d="M47,37.9c0-2.1-0.1-4.2-0.4-6.3c-0.4-2.6-0.8,1.3-2,1.5c-1.2,0.1-1.8-4.4-3.7-3c-2.1,1.6-4.2,5.3-5.2,7     c-0.8,1.4-3.1,3.3-4.4,3.9c-1.2,0.6-0.8,4.7-2.2,3.9c-4-2.3-6-2.9-8.6-2.9c-2.5,0-1.1,4.2-3,4.4c-3.9,0.4-5.7-4.7-7.9-6.4     c-2-1.5-3.6-0.4-4.5-0.5c-2.2-0.4-5-5-5.1-3.8C0,36.4,0,37.1,0,37.9c0,18.3,10.5,33.2,23.5,33.2S47,56.3,47,37.9z"/>
</g>
</svg>