<svg version="1.1" xmlns="http://www.w3.org/2000/svg" viewBox="0.00 30.28 512.01 451.44"><path d="m296.74 53.445a47.871 47.871 0 0 0-82.005 0l-67.449 115.53a330.17 330.17 0 0 1 181.95 273.28h-47.358a283.74 283.74 0 0 0-158.48-232.9l-62.427 107.94a163.19 163.19 0 0 1 94.614 124.75h-108.76a7.7905 7.7905 0 0 1-6.3554-11.378l30.137-51.253a110.09 110.09 0 0 0-34.442-19.476l-29.829 51.253a46.538 46.538 0 0 0 17.324 63.964 47.768 47.768 0 0 0 23.167 6.1504h148.94a198.86 198.86 0 0 0-82.005-177.44l23.679-41.003a244.68 244.68 0 0 1 105.58 218.44h126.19a367.79 367.79 0 0 0-168.21-325.97l47.871-82.005a7.893 7.893 0 0 1 10.763-2.7677c5.4328 2.9727 207.99 356.42 211.78 360.52a7.7905 7.7905 0 0 1-6.9705 11.583h-48.793q0.92256 19.579 0 39.055h48.998a47.051 47.051 0 0 0 47.358-47.256 46.026 46.026 0 0 0-6.3554-23.372z" fill="#362d59" stroke-width="10.251"></path></svg>
