<svg fill="none" viewBox="0 0 48 48" xmlns="http://www.w3.org/2000/svg">
<path d="M0 15C0 9.74951 0 7.12426 1.02181 5.11884C1.92063 3.35482 3.35482 1.92063 5.11884 1.02181C7.12426 0 9.74951 0 15 0H33C38.2505 0 40.8757 0 42.8812 1.02181C44.6452 1.92063 46.0794 3.35482 46.9782 5.11884C48 7.12426 48 9.74951 48 15V33C48 38.2505 48 40.8757 46.9782 42.8812C46.0794 44.6452 44.6452 46.0794 42.8812 46.9782C40.8757 48 38.2505 48 33 48H15C9.74951 48 7.12426 48 5.11884 46.9782C3.35482 46.0794 1.92063 44.6452 1.02181 42.8812C0 40.8757 0 38.2505 0 33V15Z" fill="url(#b)"></path>
<path d="m29.289 13.453c-0.7302 0.9532-1.0952 1.9844-1.0952 3.0938v12.703c0 0.3281-0.0159 0.6641-0.0477 1.0078-0.0317 0.3438-0.0793 0.6875-0.1428 1.0313 0.8095-0.1563 1.5516-0.3946 2.2262-0.7149s1.2817-0.7304 1.8214-1.2304c0.5397-0.5001 1.0079-1.0899 1.4048-1.7696 0.3968-0.6797 0.7301-1.4492 1-2.3086l0.5238-1.6875v-11.555c-3.0635 0-4.9603 0.4766-5.6905 1.4297zm-10.548-0.1172h-1.3572v1.3125h1.3572v-1.3125zm1.3571 1.9922h-1.3571v1.3125h1.3571v-1.3125zm-1.3571 1.6641h-1.3572v1.3125h1.3572v-1.3125zm-1.3572 1.9687h-1.3571v1.336h1.3571v-1.336zm-2.7143-6.9609h-1.3571v1.3359h1.3571v-1.3359zm6.0596 20.227c-0.4207-0.8438-0.631-1.836-0.631-2.9766v-9.6328h-1.3571v4.9219h-1.3572v-2.9297h-1.3571v1.3125h-1.3572v-7.2657h-1.3571v10.875c0 1.3438 0.246 2.5938 0.7381 3.75 0.4921 1.1563 1.2024 2.1602 2.1309 3.0118 0.9286 0.8515 2.0635 1.5156 3.4048 1.9922 1.3413 0.4765 2.8611 0.7148 4.5595 0.7148l-0.6309-0.4102c-0.4207-0.2734-0.8849-0.6914-1.3929-1.2539-0.5079-0.5625-0.9722-1.2656-1.3928-2.1093zm7.8214-0.5157c-1.0476 0.2344-2.1984 0.3282-3.4524 0.2813-0.9048-0.0469-1.7103-0.1758-2.4167-0.3867-0.7063-0.211-1.3293-0.4805-1.869-0.8086 0.3651 1.5625 1.0397 2.7304 2.0238 3.5039 0.9841 0.7734 1.5079 1.1836 1.5714 1.2304l0.8096 0.4219c1.5397-0.0937 2.9127-0.3984 4.119-0.914 1.2064-0.5157 2.2302-1.1914 3.0714-2.0274 0.8413-0.8359 1.4802-1.8047 1.9167-2.9062 0.4365-1.1016 0.6548-2.293 0.6548-3.5743v-1.125c-0.3651 1.1876-0.8492 2.2071-1.4524 3.0586-0.6032 0.8516-1.3214 1.5469-2.1548 2.086-0.8333 0.539-1.7738 0.9258-2.8214 1.1601zm-11.19-17.039h-1.3333v1.3125h1.3333v-1.3125zm18.352-2.6719c0.1268 0 0.2377 0.0453 0.3328 0.1359 0.0951 0.0905 0.1427 0.1992 0.1427 0.3261 0 0.1358-0.0476 0.2491-0.1427 0.3396-0.0951 0.0906-0.206 0.1359-0.3328 0.1359-0.1269 0-0.2356-0.0453-0.3261-0.1359-0.0906-0.0905-0.1359-0.2038-0.1359-0.3396 0-0.1269 0.0453-0.2356 0.1359-0.3261 0.0905-0.0906 0.1992-0.1359 0.3261-0.1359zm0 0.8696c0.1087 0 0.2015-0.0385 0.2785-0.1155s0.1155-0.1744 0.1155-0.2921c0-0.1087-0.0385-0.2016-0.1155-0.2786s-0.1698-0.1155-0.2785-0.1155-0.1993 0.0385-0.2718 0.1155c-0.0724 0.077-0.1087 0.1699-0.1087 0.2786 0 0.1177 0.0363 0.2151 0.1087 0.2921 0.0725 0.077 0.1631 0.1155 0.2718 0.1155zm0.1834-0.4144c0.0226-0.0227 0.0339-0.0566 0.0339-0.1019 0-0.0544-0.0135-0.0951-0.0407-0.1223s-0.077-0.0408-0.1495-0.0408h-0.2038v0.5435h0.0815v-0.231h0.0952l0.1494 0.231h0.0815l-0.1494-0.231c0.0453-9e-3 0.0792-0.0249 0.1019-0.0475zm-0.1834-0.0204c0.0362 0 0.0679-0.0045 0.0951-0.0136 0.0271-0.0091 0.0407-0.0317 0.0407-0.0679 0-0.0363-0.0113-0.0612-0.0339-0.0748-0.0227-0.0136-0.0521-0.0203-0.0884-0.0203h-0.1087v0.1766h0.0952z" clip-rule="evenodd" fill="url(#a)" fill-rule="evenodd"></path>
<mask x="13" y="12" width="24" height="24" style="mask-type:alpha" maskUnits="userSpaceOnUse">
<path d="m29.289 13.453c-0.7302 0.9532-1.0952 1.9844-1.0952 3.0938v12.703c0 0.3281-0.0159 0.6641-0.0477 1.0078-0.0317 0.3438-0.0793 0.6875-0.1428 1.0313 0.8095-0.1563 1.5516-0.3946 2.2262-0.7149s1.2817-0.7304 1.8214-1.2304c0.5397-0.5001 1.0079-1.0899 1.4048-1.7696 0.3968-0.6797 0.7301-1.4492 1-2.3086l0.5238-1.6875v-11.555c-3.0635 0-4.9603 0.4766-5.6905 1.4297zm-10.548-0.1172h-1.3572v1.3125h1.3572v-1.3125zm1.3571 1.9922h-1.3571v1.3125h1.3571v-1.3125zm-1.3571 1.6641h-1.3572v1.3125h1.3572v-1.3125zm-1.3572 1.9687h-1.3571v1.336h1.3571v-1.336zm-2.7143-6.9609h-1.3571v1.3359h1.3571v-1.3359zm6.0596 20.227c-0.4207-0.8438-0.631-1.836-0.631-2.9766v-9.6328h-1.3571v4.9219h-1.3572v-2.9297h-1.3571v1.3125h-1.3572v-7.2657h-1.3571v10.875c0 1.3438 0.246 2.5938 0.7381 3.75 0.4921 1.1563 1.2024 2.1602 2.1309 3.0118 0.9286 0.8515 2.0635 1.5156 3.4048 1.9922 1.3413 0.4765 2.8611 0.7148 4.5595 0.7148l-0.6309-0.4102c-0.4207-0.2734-0.8849-0.6914-1.3929-1.2539-0.5079-0.5625-0.9722-1.2656-1.3928-2.1093zm7.8214-0.5157c-1.0476 0.2344-2.1984 0.3282-3.4524 0.2813-0.9048-0.0469-1.7103-0.1758-2.4167-0.3867-0.7063-0.211-1.3293-0.4805-1.869-0.8086 0.3651 1.5625 1.0397 2.7304 2.0238 3.5039 0.9841 0.7734 1.5079 1.1836 1.5714 1.2304l0.8096 0.4219c1.5397-0.0937 2.9127-0.3984 4.119-0.914 1.2064-0.5157 2.2302-1.1914 3.0714-2.0274 0.8413-0.8359 1.4802-1.8047 1.9167-2.9062 0.4365-1.1016 0.6548-2.293 0.6548-3.5743v-1.125c-0.3651 1.1876-0.8492 2.2071-1.4524 3.0586-0.6032 0.8516-1.3214 1.5469-2.1548 2.086-0.8333 0.539-1.7738 0.9258-2.8214 1.1601zm-11.19-17.039h-1.3333v1.3125h1.3333v-1.3125zm18.352-2.6719c0.1268 0 0.2377 0.0453 0.3328 0.1359 0.0951 0.0905 0.1427 0.1992 0.1427 0.3261 0 0.1358-0.0476 0.2491-0.1427 0.3396-0.0951 0.0906-0.206 0.1359-0.3328 0.1359-0.1269 0-0.2356-0.0453-0.3261-0.1359-0.0906-0.0905-0.1359-0.2038-0.1359-0.3396 0-0.1269 0.0453-0.2356 0.1359-0.3261 0.0905-0.0906 0.1992-0.1359 0.3261-0.1359zm0 0.8696c0.1087 0 0.2015-0.0385 0.2785-0.1155s0.1155-0.1744 0.1155-0.2921c0-0.1087-0.0385-0.2016-0.1155-0.2786s-0.1698-0.1155-0.2785-0.1155-0.1993 0.0385-0.2718 0.1155c-0.0724 0.077-0.1087 0.1699-0.1087 0.2786 0 0.1177 0.0363 0.2151 0.1087 0.2921 0.0725 0.077 0.1631 0.1155 0.2718 0.1155zm0.1834-0.4144c0.0226-0.0227 0.0339-0.0566 0.0339-0.1019 0-0.0544-0.0135-0.0951-0.0407-0.1223s-0.077-0.0408-0.1495-0.0408h-0.2038v0.5435h0.0815v-0.231h0.0952l0.1494 0.231h0.0815l-0.1494-0.231c0.0453-9e-3 0.0792-0.0249 0.1019-0.0475zm-0.1834-0.0204c0.0362 0 0.0679-0.0045 0.0951-0.0136 0.0271-0.0091 0.0407-0.0317 0.0407-0.0679 0-0.0363-0.0113-0.0612-0.0339-0.0748-0.0227-0.0136-0.0521-0.0203-0.0884-0.0203h-0.1087v0.1766h0.0952z" clip-rule="evenodd" fill="#fff" fill-rule="evenodd"></path>
</mask>
<defs>
<radialGradient id="b" cx="0" cy="0" r="1" gradientTransform="translate(24) rotate(90) scale(48)" gradientUnits="userSpaceOnUse">
<stop stop-color="#006FFF" offset="0"></stop>
<stop stop-color="#003C9E" offset="1"></stop>
</radialGradient>
<linearGradient id="a" x1="20.869" x2="37.331" y1="48.896" y2="28.673" gradientUnits="userSpaceOnUse">
<stop stop-color="#C2C4CE" offset="0"></stop>
<stop stop-color="#D6D9E2" offset=".39697"></stop>
<stop stop-color="#fff" offset="1"></stop>
</linearGradient>
</defs>
</svg>
