<svg xmlns="http://www.w3.org/2000/svg" fill="none" viewBox="0 0 128 129"><path fill="rgb(0, 94, 217)" d="M123.998 0h-7.999v7.999h7.999V0ZM96.01 56.02V39.994l.004.005h15.993v15.997H128v5.07c0 5.862-.498 12.807-1.644 18.26-.642 3.049-1.615 6.078-2.756 8.987-1.169 2.976-2.516 5.827-3.982 8.382a62.776 62.776 0 0 1-6.695 9.547l-.136.158-.224.262c-.617.724-1.227 1.44-1.898 2.139a63.215 63.215 0 0 1-2.415 2.415c-10.237 9.859-23.575 16.017-37.521 17.431-1.678.172-5.047.35-6.729.35-1.687-.005-5.051-.178-6.729-.35-13.946-1.414-27.284-7.577-37.52-17.431a63.155 63.155 0 0 1-2.416-2.415c-.704-.729-1.339-1.477-1.98-2.233l-.003-.002-.275-.324a62.658 62.658 0 0 1-6.695-9.547c-1.466-2.56-2.813-5.406-3.982-8.382-1.141-2.91-2.114-5.938-2.756-8.986C.498 73.867 0 66.928 0 61.067V1.002h31.99V56.02s0 4.218.053 5.598l.012.322v.002c.068 1.785.133 3.534.319 5.274.527 4.94 1.62 9.628 3.872 13.592.652 1.145 1.313 2.257 2.104 3.311 4.812 6.417 12.135 11.234 21.27 12.576 1.087.158 3.283.297 4.38.297s3.292-.139 4.38-.297c9.135-1.342 16.458-6.159 21.27-12.576.795-1.054 1.452-2.166 2.104-3.311 2.252-3.964 3.345-8.651 3.872-13.592.186-1.743.252-3.495.319-5.284l.012-.314c.053-1.38.053-5.598.053-5.598ZM100.002 12h12v11.996H128v15.998h-15.998V24.001h-12v-12Z"/></svg>
