<svg xmlns="http://www.w3.org/2000/svg" xmlns:xlink="http://www.w3.org/1999/xlink" viewBox="366.27 254.1 165.53 165.53">
    <g id="Group">
        <path id="Path" fill="#da0e15" fill-rule="evenodd" stroke="none" d="M 388.5 254.100006 L 509.600006 254.100006 C 521.799988 254.100006 531.799988 264.100006 531.799988 276.299988 L 531.799988 397.399994 C 531.799988 409.600006 521.799988 419.600006 509.600006 419.600006 L 388.5 419.600006 C 376.299988 419.600006 366.299988 409.600006 366.299988 397.399994 L 366.299988 276.299988 C 366.200012 264.100006 376.200012 254.100006 388.5 254.100006 L 388.5 254.100006 Z"/>
        <path id="path1" fill="#ffffff" fill-rule="evenodd" stroke="none" d="M 452 370.299988 L 437.600006 370.299988 L 437.600006 343.5 L 452.700012 343.5 C 462.799988 343.5 473.399994 347.100006 473.399994 357.299988 C 473.399994 369.799988 461.200012 370.299988 452 370.299988 L 452 370.299988 Z M 437.600006 304.700012 L 450.299988 304.700012 C 459.200012 304.700012 463.100006 305 466.100006 307.799988 C 468.399994 309.899994 469.600006 312.799988 469.600006 316.200012 C 469.600006 319.399994 468.299988 322.200012 466 324.399994 C 463 327.200012 459.299988 327.600006 451.899994 327.600006 L 437.600006 327.600006 L 437.600006 304.700012 L 437.600006 304.700012 Z M 470.600006 335 L 470.600006 334.700012 C 481 331.700012 487.899994 324.200012 487.899994 313.200012 C 487.899994 295.399994 472 288.799988 456.899994 288.799988 L 420.200012 288.799988 L 420.200012 288.799988 L 405.600006 288.799988 L 405.600006 290.299988 L 410.700012 294.600006 C 416.899994 299.5 417.700012 300.5 417.700012 304.899994 L 417.700012 386.600006 L 453.899994 386.600006 C 473.600006 386.600006 491.899994 380 491.899994 358.700012 C 491.799988 346.100006 483.200012 336.399994 470.600006 335 L 470.600006 335 Z"/>
    </g>
</svg>