<svg xmlns="http://www.w3.org/2000/svg" xmlns:xlink="http://www.w3.org/1999/xlink" version="1.1" id="Layer_1" x="0px" y="0px" style="enable-background:new 0 0 1000 1000;" xml:space="preserve" viewBox="186.90 123.20 588.80 588.80">
<style type="text/css">
	.st0{fill:#0046B4;}
</style>
<g>
	
	
	<g>
		<path class="st0" d="M481.3,712c-78.7,0-152.6-30.6-208.2-86.2c-55.6-55.6-86.2-129.5-86.2-208.2c0-78.7,30.6-152.6,86.2-208.2    c55.6-55.6,129.5-86.2,208.2-86.2s152.6,30.6,208.2,86.2c55.6,55.6,86.2,129.5,86.2,208.2c0,78.7-30.6,152.6-86.2,208.2    C633.9,681.3,559.9,712,481.3,712z M481.3,142.5c-73.5,0-142.6,28.6-194.5,80.5c-51.9,51.9-80.5,121-80.5,194.5    s28.6,142.6,80.5,194.5c51.9,51.9,121,80.5,194.5,80.5S623.8,664,675.8,612s80.5-121,80.5-194.5c0-73.5-28.6-142.6-80.5-194.5    S554.8,142.5,481.3,142.5z"></path>
	</g>
	<g>
		<path class="st0" d="M427.1,326.1c-84.6,10-145,86.7-134.9,171.3c0,0,15.3,158.4,195.1,157.6c132.9-0.7,236.3-105.9,236.3-236.3    c0-76.6-37.3-145.3-93.7-188.4l0,0c-102.1-83-252.6-67.7-335.6,34.6c-57.4,70.7-67.7,164.4-34.7,243l-1.6-6.3    c-2.7-12.4-4.1-25.4-4.1-38.7c0-100,80.7-181,180.1-181c90.1,0,165.1,59.7,177.4,149c12.9,93.7-45.1,156-110.1,161.1    c-65.3,5.1-123.9-38.7-131.7-103.7c-7.7-65,38.7-123.9,103.7-131.7c37.9-4.4,73.7,9.4,98.6,34.7c-28.1-40.4-75-66.1-126.3-66.1    C439.4,325.1,433.3,325.4,427.1,326.1"></path>
	</g>
	<g>
		<path class="st0" d="M560.4,529.8c33-40.6,26.9-100.1-13.7-133.1s-100.1-26.9-133.1,13.7c-22.9,28-26.9,65.3-13.7,96.4    c-5-21.1-0.4-44.3,14.4-62.4c25.3-31.1,71.1-35.9,102.3-10.6c31.1,25.3,35.9,71.1,10.6,102.3c-14.7,18.1-36.4,27.3-58.1,26.9    C502.1,569.6,537.7,557.8,560.4,529.8"></path>
	</g>
	<g>
		<path class="st0" d="M411.4,488c-1.3,30.4,22.3,56.1,52.7,57.4c30.4,1.3,56.1-22.3,57.6-52.7c0.9-21-10.1-39.9-27.1-49.9    c9.7,8.1,15.6,20.6,15,34.1c-1,23.4-20.7,41.6-44.1,40.6s-41.6-20.7-40.6-44.1c0.6-13.7,7.6-25.4,17.9-32.9    C424.9,449.3,412.3,467,411.4,488"></path>
	</g>
</g>
</svg>
