<svg version="1.1" id="Layer_1" xmlns="http://www.w3.org/2000/svg" xmlns:xlink="http://www.w3.org/1999/xlink" x="0px" y="0px"
	 viewBox="0 0 612 792" style="enable-background:new 0 0 612 792;" xml:space="preserve">
<style type="text/css">
	.st0{fill:#3B384C;}
	.st1{fill:#3A3265;}
	.st2{fill:#352F63;}
	.st3{fill:#252525;}
	.st4{fill:#212121;}
	.st5{fill:#F6F6F8;}
	.st6{fill:#ECECEC;}
	.st7{fill:#363064;}
	.st8{fill:#50569D;}
	.st9{fill:#F2F4F7;}
</style>
<path class="st0" d="M357.98,347.16c0.03,39.96-33.56,71.99-75.52,72.01c-40.69,0.03-74.27-32.44-74.86-71.43
	c-0.6-40.46,33.97-73.55,75.37-73.53C323.86,274.23,358.95,307.11,357.98,347.16z M214.33,346.57
	c-0.86,35.44,29.65,65.36,67.54,66.26c37.3,0.88,68.72-28.38,69.52-64.75c0.81-36.69-29.06-66.65-67.32-67.47
	C246.66,279.82,214.04,309.27,214.33,346.57z"/>
<path class="st1" d="M318.2,470.26c-12.68-0.02-22.59-8.97-22.59-20.39c0-11.93,9.83-20.73,23.12-20.68
	c13.18,0.05,22.71,8.86,22.69,20.99C341.4,461.7,331.48,470.28,318.2,470.26z M333.06,449.88c0.14-7.19-6.3-13.22-14.34-13.42
	c-8.22-0.2-14.6,5.66-14.62,13.41c-0.02,7.21,6.15,12.86,14.2,13.01C326.36,463.03,332.91,457.26,333.06,449.88z"/>
<path class="st1" d="M223.62,468.96c-1.91-0.51-0.99-1.91-1-2.86c-0.08-11.01,0.01-22.01-0.14-33.02c-0.03-2.31,0.59-3.23,3.31-3.04
	c4.68,0.33,9.45-0.51,14.04,1.07c7.2,2.48,9.83,9.5,5.05,14.8c-1.78,1.98-0.67,2.31,0.76,3.31c4.49,3.16,5.87,7.4,4.11,12.13
	c-1.76,4.75-5.52,7.23-11.41,7.52C233.43,467.63,228.52,467.49,223.62,468.96z M231.08,456.71c0.14,5.31,0.18,5.36,3.3,5.32
	c5.04-0.07,7.48-1.53,7.48-4.48c0-3.51-2.75-5.27-8.19-5.25C229.16,452.32,231.76,455.36,231.08,456.71z M238.64,441.29
	c-0.13-3.06-2.46-4.18-5.41-4.15c-4.13,0.04-1.73,2.98-2.1,4.56c-0.36,1.55-0.87,3.82,2.52,3.62
	C236.53,445.16,238.72,444.34,238.64,441.29z"/>
<path class="st1" d="M190.93,430.21c1.77,0.08,3.66-0.84,5.27,0.51c-0.7,0.16-1.24,0.3-1.22,1.2c0.13,7.93,0.17,15.86,0.28,23.8
	c0.02,1.21-0.4,2.59,1.27,3.33c3.44,4.33,8.02,5.05,11.26,1.76c1.76-1.79,1.49-4.05,1.53-6.13c0.13-7.09,0.32-14.2-0.05-21.28
	c-0.2-3.74,2.16-3.27,4.81-3.37c2.74-0.11,4.14,0.3,4.03,3.24c-0.34,8.6-0.11,17.23-0.49,25.83c-0.26,5.82-5.96,10.66-12.44,11.19
	c-8.09,0.66-14.53-2.75-16.47-8.79c-1.8-5.59-1.04-11.34-0.97-17.01c0.06-4.71-1.06-9.48,0.64-14.13
	C189.32,432.07,190.18,432.02,190.93,430.21z"/>
<path class="st1" d="M279.47,470.28c-5.99,0.17-9.85-2.82-13-6.84c-0.72-0.92-0.89-1.76,0.26-2.65c3.17-2.46,5.6-2.48,8.62,0
	c1.04,0.85,2,1.81,3.53,2.07c2.39,0.41,4.44-0.23,5.58-2.01c1.1-1.72,0.37-3.4-1.3-4.75c-3.91-3.14-7.91-6.21-11.66-9.5
	c-4.56-4.01-5.08-9.89-1.49-13.73c3.71-3.97,11.3-5.01,16.45-2.25c0.86,0.46,1.71,0.94,2.5,1.48c3.86,2.69,3.25,5.8-1.39,7.56
	c-1.21,0.46-1.88-0.02-2.6-0.69c-1.09-1.02-2.33-1.84-3.84-2.38c-1.72-0.61-3.16-0.21-4.26,0.91c-1.31,1.34-0.6,2.71,0.64,3.7
	c3.39,2.72,6.91,5.32,10.36,7.98c8.86,6.82,7.16,17.39-3.28,20.62C282.88,470.33,281.18,470.24,279.47,470.28z"/>
<path class="st1" d="M393.58,430.4c1.28,1.34,0.35,2.91,0.58,4.36c0.35,2.3-0.74,3.34-3.4,2.96c-3.66-0.53-4.55,0.97-4.48,4.01
	c0.19,8.35,0.05,16.7,0,25.05c0,0.68,0.52,1.52-0.48,2.04c-0.53-0.54-0.41-1.87-1.9-1.27c-4.36,1.75-5.14-0.16-5.08-3.56
	c0.14-8.1,0.05-16.21,0.06-24.31c0-1,0.1-2.04-1.19-0.48c-0.52-1.63-2.01-1.69-3.44-1.47c-3.89,0.6-5.29-0.82-4.65-4.13
	c0.19-0.97-0.35-2.03,0.46-2.92c1.55,3.13,4.55,2.96,7.22,1.9c4.2-1.66,8.49-0.69,12.73-0.94c1.22-0.07,2.39,0.38,2.46,1.64
	c0.08,1.56-1.41,1.18-2.47,1.37c-1.37,0.25-3.88-0.8-3.78,1.2c0.09,1.84,2.56,0.83,3.98,1.04c2.68,0.38,3.63-0.79,3.39-3.04
	C393.47,432.69,393.58,431.54,393.58,430.4z"/>
<path class="st2" d="M262.5,449.86c0,5.44-0.32,10.91,0.11,16.32c0.29,3.69-2.17,3.05-4.52,3.04c-2.17,0-4.42,0.7-4.33-2.79
	c0.28-11.13,0.28-22.28,0.02-33.41c-0.08-3.68,2.41-2.83,4.69-2.97c2.58-0.16,4.3,0,4.13,3.1c-0.31,5.56-0.09,11.14-0.09,16.7
	C262.51,449.86,262.51,449.86,262.5,449.86z"/>
<path class="st1" d="M354.77,451.46l-0.22,0.08c0,0-0.14-0.18-0.14-0.17c-0.45,0.18-0.9,0.36-1.35,0.54c0,4.94-0.12,9.88,0.04,14.81
	c0.12,3.59-2.79,2.42-4.78,2.53c-1.87,0.11-4.16,0.65-3.97-2.38c0.26-4.16,0.18-8.34,0.24-12.52c2.09-0.38,1.51-1.87,1.52-3.02
	c0.06-3.51,0.18-7.02-0.02-10.52c-0.22-3.92-0.07-7.64,3.44-10.57c0.9,0,1.81,0,2.71,0c0.26,1.39,1.47,1.3,2.62,1.31
	c1.99,0.01,3.99,0.05,5.98,0c1.8-0.04,2.57,0.64,2.56,2.24c0,1.53-0.59,2.37-2.46,2.33c-1.85-0.04-3.83,0.37-5.53-0.08
	c-3.55-0.93-3.71,1.72-5.06,3.21c-1.78,1.95,0.07,3.26,1.32,4.09c2.89,1.92,3.48,4.35,3.14,7.23
	C354.81,450.87,354.79,451.17,354.77,451.46z"/>
<path class="st0" d="M354.82,450.57c0.34-2.87-0.26-5.31-3.14-7.23c-1.25-0.83-3.1-2.14-1.32-4.09c1.35-1.48,1.51-4.14,5.06-3.21
	c1.7,0.45,3.68,0.04,5.53,0.08c1.87,0.04,2.46-0.8,2.46-2.33c0-1.6-0.76-2.28-2.56-2.24c-1.99,0.05-3.99,0-5.98,0
	c-1.15,0-2.36,0.09-2.62-1.31c3.15-0.06,6.3-0.15,9.45-0.19c4.46-0.06,6.57,2.85,4.8,6.48c-0.69,1.41-2.08,1.13-3.3,1.2
	c-3.55,0.19-7.13-0.32-11.16,0.44c1.83,1.82-0.13,4.54,1.62,5.67c2.01,1.29,5.02,0.12,7.54,0.49c1.66,0.25,3.72-1.19,4.99,0.83
	c-1.2,0.48-1.02,1.47-1.11,2.35c-2.45-1.73-5.3-1.79-7.69-0.42c-1.76,1.01,1.33,2.14,0.83,3.5c0,0.27,0.01,0.54,0.01,0.81
	c-0.86,0.01-1.72,0.02-2.58,0.03C355.38,451.15,355.1,450.86,354.82,450.57z"/>
<path class="st2" d="M393.58,430.4c0,1.14-0.11,2.29,0.01,3.42c0.24,2.26-0.7,3.43-3.39,3.04c-1.42-0.2-3.89,0.8-3.98-1.04
	c-0.1-2,2.41-0.95,3.78-1.2c1.06-0.19,2.55,0.19,2.47-1.37c-0.07-1.25-1.24-1.71-2.46-1.64c-4.24,0.25-8.52-0.72-12.73,0.94
	c-2.68,1.06-5.67,1.23-7.22-1.9c0,0,0.01,0.02,0.02,0.02c0.35-0.16,0.71-0.32,1.06-0.49C378.62,430.09,386.11,429.7,393.58,430.4z"
	/>
<path class="st0" d="M349.54,430.24c-3.5,2.93-3.66,6.65-3.44,10.57c0.2,3.5,0.08,7.01,0.02,10.52c-0.02,1.15,0.57,2.64-1.52,3.02
	c-0.07-7.29-0.14-14.58-0.22-21.87C344.34,428.55,347.51,430.43,349.54,430.24z"/>
<path class="st3" d="M377.69,439.18c1.3-1.56,1.2-0.51,1.19,0.48c-0.01,8.1,0.09,16.21-0.06,24.31c-0.06,3.4,0.72,5.31,5.08,3.56
	c1.49-0.6,1.37,0.73,1.9,1.27c0,0,0,0,0,0c-1.2-0.03-2.49-0.52-3.47,0.53c-1.4,0.38-2.8,0.41-4.2,0.01
	c-0.15-6.51,0.68-13.03-0.42-19.52c-0.01-1.27-0.03-2.55-0.04-3.82c0.82-1.77,0.81-3.55,0.01-5.32
	C377.68,440.18,377.68,439.68,377.69,439.18z"/>
<path class="st2" d="M196.52,459.04c-1.67-0.74-1.25-2.12-1.27-3.33c-0.1-7.93-0.15-15.86-0.28-23.8c-0.01-0.89,0.52-1.03,1.22-1.2
	c0,0-0.02,0.01-0.02,0.01c0.01,0.42,0.02,0.84,0.03,1.26C196.32,441.01,196.42,450.02,196.52,459.04z"/>
<path class="st1" d="M377.71,449.83c1.11,6.49,0.27,13.01,0.42,19.52c-1.68-3.07-0.52-6.32-0.67-9.48
	C377.3,456.53,377.6,453.17,377.71,449.83z"/>
<path class="st3" d="M365.08,447.52c0.09-0.89-0.09-1.87,1.11-2.35c0.98,6.85,0.98,6.85-7.96,6.25c0-0.27-0.01-0.54-0.01-0.81
	C360.6,449.72,365.29,452.87,365.08,447.52z"/>
<path class="st4" d="M223.62,468.96c4.9-1.47,9.81-1.33,14.73-0.08C233.44,469.37,228.53,469.16,223.62,468.96z"/>
<path class="st1" d="M377.67,440.69c0.8,1.77,0.81,3.55-0.01,5.32C377.2,444.23,377.2,442.46,377.67,440.69z"/>
<path class="st2" d="M190.93,430.21c-0.76,1.81-1.61,1.86-2.57,0.11C189.2,429.92,190.06,429.93,190.93,430.21z"/>
<path class="st1" d="M382.33,469.34c0.99-1.04,2.28-0.56,3.47-0.53C384.77,469.62,383.46,469.02,382.33,469.34z"/>
<path class="st0" d="M353.06,451.91c0.45-0.18,0.9-0.36,1.35-0.54C353.96,451.55,353.51,451.73,353.06,451.91z"/>
<path class="st3" d="M354.82,450.57c0.28,0.29,0.56,0.57,0.83,0.86c-0.29,0.01-0.59,0.02-0.88,0.03
	C354.79,451.17,354.81,450.87,354.82,450.57z"/>
<path class="st1" d="M196.22,431.99c-0.01-0.42-0.02-0.84-0.03-1.26C196.72,431.14,196.63,431.56,196.22,431.99z"/>
<path class="st1" d="M371.14,430.18c-0.35,0.16-0.71,0.32-1.06,0.49C370.22,430.15,370.61,430.04,371.14,430.18z"/>
<path class="st5" d="M212.1,349.87c-0.33-39,36.82-69.8,79.44-68.96c43.58,0.85,77.61,32.19,76.68,70.55
	c-0.91,38.03-36.7,68.62-79.19,67.7C245.87,418.22,211.13,386.93,212.1,349.87z M244.3,305.91l0.05-0.07
	c-0.61,0.5-1.23,0.99-1.84,1.49l0.05-0.05c-1,0.21-1.58,0.77-1.83,1.63c-0.22,0.24-0.43,0.49-0.65,0.73
	c-1.52,0.99-3.09,1.95-3.73,3.65l0.11,0.29l-0.09-0.29c-1.2,0.68-2.22,1.5-2.97,2.6c-4.2,6.24-8.02,12.65-10.04,19.74
	c-3.18,11.16-3.09,22.14,2.58,32.97c0.89-1.28,0.32-2.39,0.18-3.43c-1.77-13.24,1.93-25.25,10.11-36.35
	c5.09-6.91,12.23-11.85,19.75-16.47l-0.11,0.03c0.63-0.04,1.16-0.2,1.37-0.8c0,0,0.06,0.1,0.06,0.1c3.88-1.36,7.75-2.73,11.63-4.09
	c3.69-0.41,7.37-0.96,11.07-1.21c15.96-1.08,29.73,3.09,40.49,13.78c10.62,10.56,14.43,22.89,12.14,36.89
	c-3.2,19.6-25.41,35.82-48.73,31.22c-23.14-4.57-39.14-27.83-23.87-48.08c10.48-13.89,34.58-16.58,48.26-5.13
	c2.72,2.27,4.77,5.05,7.48,7.35c0.17-4.27-2.62-7.34-5.35-10.07c-12.99-12.98-34.14-15.21-50.8-6.02
	c-16.1,8.87-24.8,27.86-19.92,44.6c5.49,18.85,19.08,29.98,40.31,34.09c16.98,3.29,32.74,0.04,47.41-7.77
	c27.51-14.65,37.24-40.33,26.14-66.58c-8.54-20.22-25.2-32.96-49.23-37.96c-22.04-4.59-41.68-0.31-59.12,12.27
	C244.91,305.27,244.61,305.59,244.3,305.91z M264.18,355.4c-0.04,11.4,10.09,20.52,23.24,20.24c12.94-0.28,22.3-8.24,22.43-20.06
	c0.13-11.93-10.08-20.45-23.15-20.43C274.54,335.17,263.6,344.16,264.18,355.4z"/>
<path class="st6" d="M333.06,449.88c-0.15,7.38-6.7,13.16-14.76,13c-8.05-0.16-14.21-5.81-14.2-13.01
	c0.02-7.75,6.4-13.61,14.62-13.41C326.77,436.65,333.21,442.68,333.06,449.88z M306.58,447.61c7.35-4.62,11.53-4.72,15.86-0.63
	c3.66,3.46,3.07,8.1-1.67,13.11c5.52-0.35,9.8-4.49,10.15-9.84c0.33-5.09-4.17-10.37-9.5-11.14
	C313.96,438.03,308.82,440.81,306.58,447.61z"/>
<path class="st6" d="M231.08,456.71c0.67-1.36-1.92-4.39,2.59-4.41c5.44-0.02,8.19,1.74,8.19,5.25c0,2.95-2.44,4.41-7.48,4.48
	C231.27,462.08,231.23,462.02,231.08,456.71z"/>
<path class="st6" d="M238.64,441.29c0.08,3.05-2.11,3.87-4.98,4.04c-3.4,0.2-2.89-2.07-2.52-3.62c0.37-1.58-2.04-4.52,2.1-4.56
	C236.18,437.12,238.52,438.23,238.64,441.29z"/>
<path class="st1" d="M365.08,447.52c0.21,5.35-4.48,2.2-6.85,3.08c0.5-1.36-2.59-2.48-0.83-3.5
	C359.78,445.72,362.63,445.79,365.08,447.52z"/>
<path class="st7" d="M248.38,304.95c17.44-12.58,37.08-16.86,59.12-12.27c24.02,5,40.69,17.74,49.23,37.96
	c11.09,26.25,1.37,51.94-26.14,66.58c-14.67,7.81-30.44,11.05-47.41,7.77c-21.23-4.11-34.82-15.24-40.31-34.09
	c-4.88-16.75,3.82-35.73,19.92-44.6c16.67-9.19,37.81-6.96,50.8,6.02c2.73,2.73,5.52,5.8,5.35,10.07c-2.71-2.29-4.77-5.07-7.48-7.35
	c-13.68-11.45-37.78-8.76-48.26,5.13c-15.27,20.26,0.72,43.52,23.87,48.08c23.32,4.6,45.53-11.61,48.73-31.22
	c2.28-14-1.53-26.33-12.14-36.89c-10.75-10.69-24.53-14.86-40.49-13.78c-3.7,0.25-7.38,0.8-11.07,1.21
	c-4.78-0.63-9.04-0.11-11.63,4.09c0,0-0.06-0.1-0.06-0.1c-0.74-0.11-1.22,0.13-1.36,0.8c0,0,0.11-0.03,0.11-0.03
	c-3.44,0.27-6.5,0.9-8.94,3.55c-1.51,1.64-3.3,3.34-6,4.09c-1.58,0.44-3.17,1.68-4.09,3.19c-0.53,0.87,0.11,2.69-1.96,2.33
	c-2.1-0.37-1.68-2.06-1.75-3.41c-0.08-1.46,0.19-2.94,1.58-3.75c2.3-1.36,2-3.14,1.56-5.05l0.09,0.29c0,0-0.11-0.29-0.11-0.29
	c3.08,0.24,3.76-1.42,3.73-3.65c0.22-0.24,0.43-0.49,0.65-0.73c1.31,0.07,1.99-0.42,1.83-1.63c0,0-0.05,0.05-0.05,0.05
	c1.29,0.16,1.9-0.35,1.84-1.49c0,0-0.05,0.07-0.05,0.07C247.77,305.59,248.07,305.27,248.38,304.95z"/>
<path class="st8" d="M267.34,355.4c-0.57-11.25,10.37-20.24,22.52-20.26c13.07-0.02,23.28,8.5,23.15,20.43
	c-0.13,11.83-9.49,19.78-22.43,20.06C277.43,375.93,267.3,366.8,267.34,355.4z M293.56,369.64c8.04-0.8,14.03-8.72,13.38-15.3
	c-0.66-6.69-6.86-12.53-14.18-13.26c-9.7-0.97-15.33,2.06-18.06,10.18c8.12-4.42,15.82-5.77,22.02,1.79
	C300.86,358.11,300,361.93,293.56,369.64z"/>
<path class="st1" d="M239.54,313.28c0.43,1.91,0.73,3.69-1.56,5.05c-1.39,0.82-1.66,2.3-1.58,3.75c0.08,1.35-0.35,3.05,1.75,3.41
	c2.07,0.36,1.43-1.46,1.96-2.33c0.92-1.52,2.51-2.76,4.09-3.19c2.7-0.75,4.49-2.45,6-4.09c2.45-2.65,5.5-3.28,8.94-3.55
	c-7.52,4.62-14.65,9.56-19.75,16.47c-8.18,11.1-11.88,23.12-10.11,36.35c0.14,1.04,0.71,2.15-0.18,3.43
	c-5.67-10.83-5.76-21.81-2.58-32.97c2.02-7.09,5.84-13.49,10.04-19.74C237.31,314.78,238.34,313.97,239.54,313.28z"/>
<path class="st1" d="M260.46,311.67c2.59-4.2,6.85-4.73,11.63-4.09C268.21,308.94,264.33,310.3,260.46,311.67z"/>
<path class="st1" d="M243.24,309.64c0.04,2.23-0.65,3.89-3.73,3.65C240.15,311.59,241.72,310.63,243.24,309.64z"/>
<path class="st1" d="M245.72,307.28c0.16,1.21-0.52,1.7-1.83,1.63C244.14,308.05,244.73,307.49,245.72,307.28z"/>
<path class="st1" d="M247.52,305.84c0.05,1.14-0.55,1.65-1.84,1.49C246.29,306.83,246.9,306.34,247.52,305.84z"/>
<path class="st1" d="M248.38,304.95c-0.3,0.32-0.61,0.64-0.91,0.96C247.77,305.59,248.07,305.27,248.38,304.95z"/>
<path class="st1" d="M259.03,312.37c0.14-0.67,0.62-0.91,1.36-0.8C260.19,312.16,259.66,312.33,259.03,312.37z"/>
<path class="st0" d="M306.58,447.61c2.24-6.8,7.38-9.58,14.84-8.5c5.33,0.77,9.83,6.05,9.5,11.14c-0.35,5.35-4.62,9.49-10.15,9.84
	c4.74-5.01,5.33-9.65,1.67-13.11C318.11,442.89,313.93,442.99,306.58,447.61z"/>
<path class="st9" d="M293.56,369.64c6.44-7.7,7.3-11.52,3.15-16.59c-6.2-7.56-13.9-6.21-22.02-1.79
	c2.74-8.12,8.36-11.15,18.06-10.18c7.32,0.73,13.52,6.57,14.18,13.26C307.59,360.92,301.6,368.84,293.56,369.64z"/>
</svg>
