<svg version="1.1" id="Layer_1" xmlns="http://www.w3.org/2000/svg" xmlns:xlink="http://www.w3.org/1999/xlink" x="0px" y="0px" style="enable-background:new 0 0 612 792;" xml:space="preserve" viewBox="191.73 259.78 242.45 319.94">
<style type="text/css">
	.st0{fill:#333047;}
	.st1{fill:#332A62;}
	.st2{fill:#342B64;}
	.st3{fill:#332964;}
	.st4{fill:#322862;}
	.st5{fill:#342A63;}
	.st6{fill:#362C67;}
	.st7{fill:#332A61;}
	.st8{fill:#FCFCFD;}
	.st9{fill:#F8F7FA;}
	.st10{fill:#F8F8F5;}
	.st11{fill:#E2E0E9;}
	.st12{fill:#312C62;}
	.st13{fill:#4E53A1;}
	.st14{fill:#363246;}
	.st15{fill:#F6F9FA;}
</style>
<path class="st0" d="M416.6,381.3c0.1,66.8-44.6,120.4-100.5,120.5c-54.3,0.1-99-54.1-99.8-119.3c-0.8-67.3,45-122.6,100-122.7
	C371.9,259.5,417.8,315.1,416.6,381.3z"></path>
<path class="st1" d="M345.3,513.8c15.5,0.1,26.5,14.3,26.4,33.8c-0.1,18.5-11.7,31.9-27.4,31.8c-14.6-0.1-26.2-14.8-26.1-33.1
	C318.4,527.5,329.9,513.7,345.3,513.8z"></path>
<path class="st2" d="M232.8,546.2c0-8.7,0.2-17.4-0.1-26.1c-0.1-4.2,1.1-5.3,4.3-5c5.3,0.5,10.7-0.7,15.9,1.7
	c8.4,3.9,11.4,15.1,5.9,23.7c-1.6,2.5-1.4,3.2,0.4,4.9c5.6,5.3,7.3,11.6,5.4,19.1c-1.9,7.6-6.6,12.3-13.6,13
	c-5,0.4-10.1,0.1-15.1,0.3c-2.9,0.2-3.3-1.5-3.3-4.4C232.9,564.4,232.8,555.3,232.8,546.2C232.8,546.2,232.8,546.2,232.8,546.2z"></path>
<path class="st3" d="M227,540.2c0,6.9,0.3,13.8-0.1,20.6c-0.5,10-7.1,17.9-15.1,18.5c-9.8,0.8-16.9-4.9-18.9-15.3
	c-0.6-3.1-0.9-6.4-1-9.6c-0.1-10.5-0.1-21.1-0.1-31.6c0-8.5-1.1-7.5,6.4-7.8c3.7-0.2,4,1.7,4,5.3c-0.1,12.1-0.1,24.3,0,36.4
	c0,7.1,2.4,10.4,7.3,10.6c4.5,0.2,7.3-2.9,7.5-9.7c0.4-12.3,0.5-24.7,0.2-37c-0.2-5.6,2-5.5,5.4-5.7c3.7-0.2,5.1,1,4.8,5.7
	c-0.4,6.4-0.1,12.9-0.1,19.4C227.2,540.2,227.1,540.2,227,540.2z"></path>
<path class="st4" d="M299.7,579.7c-7,0.1-11.6-4.5-15.4-10.8c-1.4-2.4-0.9-3.6,1.1-5.2c3.7-3,6.5-4.5,9.7,1.2
	c2.3,4.1,6.2,4.5,9.2,0.9c3.3-4,0.9-7.3-1.8-10.2c-4-4.3-8-8.5-11.8-13.1c-6-7.3-6.8-16.4-2.4-22.8c4.8-6.8,13.8-7.9,20.5-2.4
	c0.6,0.5,1.2,0.9,1.6,1.5c1.3,1.7,4.4,3.1,3.6,5.2c-1,2.7-3.5,4.7-5.6,6.7c-1.2,1.2-2.1-0.4-2.9-1.4c-1.4-1.8-3-3.2-5-3.9
	c-1.8-0.6-3.4,0.2-4.5,1.9c-1.2,1.9-0.7,3.9,0.6,5.4c4,4.3,8,8.5,12,12.8c4.9,5.2,8.1,11.4,6.8,19.7c-1.1,7-4.9,11.3-10.4,13.5
	C303.4,579.3,301.5,579.3,299.7,579.7z"></path>
<path class="st5" d="M375.3,546.1c0-8.7,0.1-17.4-0.1-26.1c-0.1-3.6,0.6-5.1,3.8-5c6.2,0.2,12.4,0.3,18.6-0.1
	c4.7-0.3,3.4,3.5,3.6,6.4c0.2,3.2,0.3,6.2-3.7,5.6c-2.2-0.3-4.4-0.1-6.5-0.1c-5.4,0-7,2.7-5.6,8.9c0.4,1.9,1.3,2.1,2.6,2
	c2.7,0,5.4,0,8.1,0c4.6,0,7.4,5.5,5.2,10.3c-0.3,0.6-1,1.1-1.6,1.3c-0.8,0.2-1.7,0.1-2.5,0.1c-11.7,0.3-11.7,0.3-11.7,14.2
	c0,2.4-0.3,4.9,0.1,7.3c0.9,6.1-1.7,7-5.9,6.8c-3.2-0.1-4.4-0.9-4.3-5.1C375.5,564,375.3,555,375.3,546.1
	C375.3,546.1,375.3,546.1,375.3,546.1z"></path>
<path class="st6" d="M419.3,515.1c2.9,0,5.7,0,8.6,0c5.2,0,7.6,4.8,5.5,10.5c-0.8,2-2.2,1.8-3.4,1.6c-5-1.1-5.7,2.1-5.6,7.2
	c0.2,12.7-0.2,25.5,0.1,38.2c0.2,5.2-1.7,5.5-4.9,5.2c-2.9-0.3-5.9,1.1-5.7-5.1c0.4-13.1,0-26.3,0.2-39.4c0.1-4.4-0.6-7.1-4.8-6.1
	c-5,1.1-4.1-3.1-4.4-6.8c-0.3-4.3,1-5.8,4.5-5.4C412.6,515.4,416,515.1,419.3,515.1z"></path>
<path class="st7" d="M279.5,546.7c0,9.1-0.1,18.2,0,27.3c0.1,6.5-4,3-6.1,3.6c-2.1,0.6-4.1,0.8-4.1-3.6c0.2-18.2,0.2-36.4,0-54.6
	c-0.1-5.7,3-4.1,5.4-4.2c2.4-0.1,5.1-1,4.9,4.2C279.3,528.5,279.5,537.6,279.5,546.7C279.5,546.7,279.5,546.7,279.5,546.7z"></path>
<path class="st8" d="M225.2,380.3c-0.2-63.4,44.5-112.1,94.2-109.9c50.6,2.3,90.2,53.2,88.7,112.9c-1.5,62.8-45.3,109.7-94.1,107.8
	C262.8,489.1,224.5,437.9,225.2,380.3z"></path>
<path class="st9" d="M344.9,567.6c-9.4-0.1-16.7-9.1-16.7-20.5c0-12.5,7.2-21.8,16.9-21.6c9.5,0.2,17,9.5,16.9,21.1
	C362,558.4,354.4,567.6,344.9,567.6z"></path>
<path class="st10" d="M242.4,558.5c1.3-2.7-1.9-7.6,3.3-7.8c6.2-0.2,9.5,2.7,9.6,8.2c0,4.8-3.2,7.2-9.1,7.3
	C240.6,566.3,243.8,561.1,242.4,558.5z"></path>
<path class="st11" d="M242.4,532.9c0.9-2.5-1.6-7,3.1-6.5c3.5,0.4,6.1,2,6.1,6.9c0,4.8-2.5,6.1-5.9,6.3
	C240.9,539.8,243.3,535.2,242.4,532.9z"></path>
<path class="st12" d="M347.7,373.3c-5.4-13.1-13-22.7-24.5-26.2c-22.2-6.8-41.4,7-47.8,33.6c-3.9,16.3,2,37.3,13.3,48.6
	c21,21,48.5,18,65.9-6.8c14.6-20.8,16.3-45.1,7.6-70c-7.3-21.1-20.4-34.6-39-39.9c-24.7-7-53.4,6.4-68,31.2
	c-11,18.8-15.9,39.4-13.5,62.3c0.1,1.3,0.6,2.7-0.3,4.4c-6.7-17.5-6.9-35.3-2.8-53.3c5.8-25.4,17.9-45.4,37.1-58.4
	c17.8-12,36.7-15.5,56.8-9.9c20.5,5.7,37.2,18.4,48.9,39.4c16.5,29.9,20.3,62.1,6,94.5c-10.7,24.3-28.8,38.8-50.7,45.1
	c-22.4,6.5-43.5,2-61.3-16.7c-18.8-19.7-25.4-55.5-13.6-82.9c7.5-17.4,18.9-28.6,34.6-33.2c21.5-6.2,44.7,8.6,50.9,32.2
	C347.8,369.2,348.2,370.9,347.7,373.3z"></path>
<path class="st13" d="M312.7,421.8c-15.2-0.3-26.8-14.7-26.6-33.1c0.1-17.6,12.2-31.9,26.7-31.7c15.3,0.2,27.3,15.1,27,33.5
	C339.4,407.8,327.1,422.1,312.7,421.8z"></path>
<path class="st14" d="M347.4,563.4c5.7-7.9,6.5-15.5,2.4-21c-5.1-6.8-10.3-6.7-18,0.4c0-7.1,5.3-13,11.9-13.3
	c8.8-0.4,15.2,6,15.9,15.9C360.2,554.3,355.1,562,347.4,563.4z"></path>
<path class="st15" d="M316.8,412.1c7.5-12.2,8.5-18.5,3.8-26.5c-7.3-12.1-16.3-10-25.8-2.8c3.4-12.1,11-18,20.5-16.6
	c8.9,1.3,16.3,10.5,17.2,21.3C333.3,397.8,326.4,410.6,316.8,412.1z"></path>
</svg>
