<svg version="1.1" id="Layer_1" xmlns="http://www.w3.org/2000/svg" xmlns:xlink="http://www.w3.org/1999/xlink" x="0px" y="0px" viewBox="187.4330596923828 274.21002197265625 206.84019470214844 196.1610107421875" style="enable-background:new 0 0 612 792;" xml:space="preserve">
<style type="text/css">
	.st0{fill:#3B384C;}
	.st1{fill:#3A3265;}
	.st2{fill:#352F63;}
	.st3{fill:#252525;}
	.st4{fill:#212121;}
	.st5{fill:#F6F6F8;}
	.st6{fill:#ECECEC;}
	.st7{fill:#363064;}
	.st8{fill:#50569D;}
	.st9{fill:#F2F4F7;}
</style>
<path class="st0" d="M357.98,347.16c0.03,39.96-33.56,71.99-75.52,72.01c-40.69,0.03-74.27-32.44-74.86-71.43
	c-0.6-40.46,33.97-73.55,75.37-73.53C323.86,274.23,358.95,307.11,357.98,347.16z M214.33,346.57
	c-0.86,35.44,29.65,65.36,67.54,66.26c37.3,0.88,68.72-28.38,69.52-64.75c0.81-36.69-29.06-66.65-67.32-67.47
	C246.66,279.82,214.04,309.27,214.33,346.57z"></path>
<path class="st1" d="M318.2,470.26c-12.68-0.02-22.59-8.97-22.59-20.39c0-11.93,9.83-20.73,23.12-20.68
	c13.18,0.05,22.7...43.24,309.64c0.04,2.23-0.65,3.89-3.73,3.65C240.15,311.59,241.72,310.63,243.24,309.64z"></path>
<path class="st1" d="M245.72,307.28c0.16,1.21-0.52,1.7-1.83,1.63C244.14,308.05,244.73,307.49,245.72,307.28z"></path>
<path class="st1" d="M247.52,305.84c0.05,1.14-0.55,1.65-1.84,1.49C246.29,306.83,246.9,306.34,247.52,305.84z"></path>
<path class="st1" d="M248.38,304.95c-0.3,0.32-0.61,0.64-0.91,0.96C247.77,305.59,248.07,305.27,248.38,304.95z"></path>
<path class="st1" d="M259.03,312.37c0.14-0.67,0.62-0.91,1.36-0.8C260.19,312.16,259.66,312.33,259.03,312.37z"></path>
<path class="st0" d="M306.58,447.61c2.24-6.8,7.38-9.58,14.84-8.5c5.33,0.77,9.83,6.05,9.5,11.14c-0.35,5.35-4.62,9.49-10.15,9.84
	c4.74-5.01,5.33-9.65,1.67-13.11C318.11,442.89,313.93,442.99,306.58,447.61z"></path>
<path class="st9" d="M293.56,369.64c6.44-7.7,7.3-11.52,3.15-16.59c-6.2-7.56-13.9-6.21-22.02-1.79
	c2.74-8.12,8.36-11.15,18.06-10.18c7.32,0.73,13.52,6.57,14.18,13.26C307.59,360.92,301.6,368.84,293.56,369.64z"></path>
</svg>
