<svg version="1.0" xmlns="http://www.w3.org/2000/svg" preserveAspectRatio="xMidYMid meet" viewBox="10.10 11.35 300.11 298.29">
    <g transform="translate(0.000000,320.000000) scale(0.100000,-0.100000)" fill="#000000" stroke="none">
      <path d="M1415 3084 c-187 -29 -338 -75 -490 -151 -116 -57 -145 -77 -145
  -100 0 -7 -8 -13 -18 -13 -11 0 -27 -10 -38 -21 -19 -21 -19 -22 4 -15 27 9
  30 -9 3 -24 -14 -7 -22 -7 -27 1 -5 8 -10 6 -16 -5 -6 -10 -17 -15 -27 -11
  -17 5 -61 -27 -61 -45 0 -6 -6 -10 -14 -10 -19 0 -140 -132 -211 -231 -185
  -257 -290 -615 -272 -927 8 -136 34 -284 51 -297 8 -6 12 -21 9 -35 -9 -51
  100 -301 188 -432 224 -333 564 -562 954 -644 127 -27 472 -27 594 -1 199 43
  379 119 541 228 l96 64 24 -29 c14 -16 28 -38 32 -48 4 -10 13 -18 19 -18 6 0
  26 -12 44 -28 28 -23 80 -58 109 -71 24 -10 -27 116 -131 327 -42 84 -73 155
  -69 159 3 3 23 -13 43 -37 21 -24 59 -67 84 -94 26 -28 68 -78 95 -112 47 -58
  155 -164 168 -164 17 0 2 56 -29 105 -21 32 -29 52 -20 49 11 -4 15 1 15 17
  l1 24 24 -28 c26 -30 141 -127 150 -127 31 0 -44 152 -126 255 -35 44 -76 99
  -92 122 l-27 43 34 53 c19 30 49 85 67 123 17 38 36 77 41 87 5 10 6 22 3 27
  -4 6 1 17 9 25 8 9 13 22 10 30 -4 9 0 15 7 15 9 1 8 4 -3 11 -24 14 -23 24 6
  37 42 19 75 204 76 430 0 131 0 133 -21 122 -11 -7 -23 -9 -27 -6 -3 3 0 6 6
  6 19 0 14 20 -5 21 -12 0 -13 2 -5 6 10 4 8 8 -5 18 -22 16 -16 24 20 27 18 2
  23 6 17 12 -7 7 -20 6 -41 -1 -35 -14 -89 0 -89 23 0 18 25 28 48 19 21 -8 27
  -5 27 15 0 10 10 15 28 15 15 -1 27 2 27 6 0 19 -61 215 -89 284 -131 326
  -416 628 -735 779 -100 48 -211 87 -296 106 -30 7 -71 17 -90 22 -37 10 -404
  19 -455 12z m450 -208 c110 -25 192 -54 303 -106 291 -139 538 -403 651 -700
  28 -71 67 -221 76 -285 10 -69 21 -88 51 -82 14 2 27 0 30 -5 4 -6 10 -5 14 3
  5 7 7 -5 6 -29 -1 -23 -5 -44 -9 -48 -4 -4 -7 -3 -7 3 0 6 -11 14 -25 17 -16
  4 -25 13 -25 27 0 11 -4 17 -10 14 -5 -3 -10 -43 -10 -88 0 -45 -7 -127 -16
  -182 -9 -55 -18 -111 -19 -125 -1 -14 -6 -34 -12 -45 -6 -11 -18 -45 -28 -75
  -29 -89 -93 -222 -105 -215 -5 3 -28 36 -50 73 -22 37 -47 77 -56 89 -18 26
  -8 29 31 11 35 -16 46 -2 35 47 -6 22 -12 53 -15 68 -3 16 -19 41 -35 57 -17
  16 -30 34 -30 40 0 6 -16 32 -35 57 -19 25 -35 50 -35 56 0 5 -13 7 -30 4 -16
  -4 -30 -5 -30 -3 0 3 -3 12 -7 22 -4 12 -3 15 5 10 8 -5 12 0 12 14 0 14 -8
  24 -21 27 -16 5 -18 8 -7 15 10 7 10 10 -4 18 -10 6 -26 31 -37 56 -11 25 -48
  73 -82 107 -78 79 -89 91 -89 104 0 6 -6 13 -14 16 -8 3 -30 36 -49 74 -19 37
  -40 67 -46 66 -6 -2 -10 0 -8 5 4 12 -86 123 -144 178 -117 110 -219 143 -446
  145 l-145 1 -38 -31 c-22 -17 -46 -31 -55 -31 -9 0 -24 -4 -33 -9 -10 -5 -42
  -12 -72 -14 -60 -6 -104 -20 -115 -36 -3 -6 -15 -11 -25 -11 -11 0 -27 -11
  -36 -25 -18 -28 -37 -34 -27 -9 10 27 -36 -3 -49 -32 -6 -13 -15 -24 -20 -24
  -13 0 -38 -26 -38 -39 0 -6 -6 -11 -14 -11 -14 0 -30 -31 -31 -57 0 -7 -5 -13
  -10 -14 -21 -2 -33 -21 -39 -64 -4 -25 -11 -47 -16 -50 -14 -9 -9 -145 6 -174
  8 -14 14 -31 14 -38 0 -17 52 -68 88 -87 16 -8 48 -18 70 -22 48 -7 86 -35
  118 -85 36 -58 160 -119 186 -93 3 3 -5 35 -19 72 -14 37 -29 85 -35 107 -9
  38 -7 41 23 66 26 21 38 25 59 19 67 -19 76 -31 71 -93 -2 -28 5 -41 80 -155
  16 -23 36 -57 44 -75 8 -17 33 -61 55 -97 21 -36 39 -75 39 -87 1 -14 6 -20
  14 -18 7 3 30 -17 51 -44 28 -35 44 -47 57 -44 11 3 19 9 19 14 0 5 6 9 14 9
  22 0 27 -28 8 -42 -9 -7 -23 -25 -31 -40 -8 -15 -37 -47 -65 -70 l-51 -43
  -103 3 c-99 2 -104 1 -126 -23 -22 -23 -30 -25 -118 -25 -80 0 -99 -3 -121
  -20 -29 -23 -41 -26 -34 -8 3 10 -49 12 -249 10 l-253 -3 -38 53 c-22 29 -55
  79 -75 110 -19 32 -39 54 -43 50 -5 -4 -5 -2 -1 5 4 7 2 20 -3 30 -18 31 -58
  135 -80 205 -51 169 -66 415 -35 592 69 394 316 737 674 934 112 62 286 119
  429 142 83 13 364 4 446 -14z m586 -129 c13 4 19 0 19 -11 0 -11 -8 -15 -25
  -14 -20 2 -25 8 -24 28 1 15 3 18 6 9 3 -11 11 -15 24 -12z m-1342 -612 c-8
  -8 -29 -19 -47 -24 -25 -8 -32 -7 -32 5 0 8 9 14 19 14 11 0 23 5 26 10 3 6
  16 10 28 10 19 0 20 -2 6 -15z m-99 -60 c0 -8 -4 -15 -9 -15 -5 0 -11 7 -15
  15 -3 9 0 15 9 15 8 0 15 -7 15 -15z m2033 -172 c-7 -2 -19 -2 -25 0 -7 3 -2
  5 12 5 14 0 19 -2 13 -5z m-43 -143 c0 -5 -5 -10 -11 -10 -5 0 -7 5 -4 10 3 6
  8 10 11 10 2 0 4 -4 4 -10z m-673 -116 c-3 -3 -12 -4 -19 -1 -8 3 -5 6 6 6 11
  1 17 -2 13 -5z m643 -55 c0 -11 -30 -39 -41 -39 -10 0 -12 12 -4 32 6 14 45
  20 45 7z m-33 -235 c-3 -3 -12 -4 -19 -1 -8 3 -5 6 6 6 11 1 17 -2 13 -5z m53
  -318 c0 -11 -19 -15 -25 -6 -3 5 1 10 9 10 9 0 16 -2 16 -4z m-938 -24 c10 -4
  30 -27 46 -52 16 -25 53 -74 83 -109 30 -35 65 -78 79 -96 14 -18 53 -67 88
  -108 l62 -76 -52 -39 c-52 -38 -140 -92 -150 -92 -2 0 -11 43 -18 95 -9 60
  -19 100 -29 109 -21 18 -77 36 -113 36 -18 0 -36 9 -50 25 -12 14 -32 25 -44
  25 -22 0 -54 23 -54 40 0 16 -67 50 -99 50 -17 0 -31 4 -31 8 0 9 88 95 139
  136 21 16 40 24 52 21 12 -4 21 1 29 15 11 20 31 24 62 12z m-46 -397 c-11 -8
  -24 -15 -30 -15 -5 0 -1 7 10 15 10 8 24 14 29 14 6 0 1 -6 -9 -14z"></path>
      <path d="M2940 1674 c0 -8 5 -12 10 -9 6 4 8 11 5 16 -9 14 -15 11 -15 -7z"></path>
    </g>
  </svg>