<svg viewBox="0 0 24 24" version="1.1" xmlns="http://www.w3.org/2000/svg" xmlns:xlink="http://www.w3.org/1999/xlink" xml:space="preserve" xmlns:serif="http://www.serif.com/" style="fill-rule:evenodd;clip-rule:evenodd;stroke-linejoin:round;stroke-miterlimit:2;">
    <g transform="matrix(0.0948205,0,0,0.0948205,0.1,4.31953)">
        <g id="Layer_1">
            <g>
                <path d="M219.2,66.1C216.4,64.9 213.5,64 210.6,63.4C209.9,54.4 207.5,45.9 203.6,38.2C201.2,44 197.9,49.5 194.2,54.7C184.5,67.8 172,78.5 158.8,87.7C132,106 101.7,118.7 70.2,127.2C49.9,132.6 29,136.3 7.6,137.5C16.6,152.2 32.8,162 51.3,162L59.6,162C88.9,161.9 118.2,161.8 147.5,161.8C163.1,161.8 178.8,162 194.4,161.9C204.4,161.8 212.8,162 221.8,157C230.3,152.3 237.3,145.2 242.8,137.3C248.2,129.5 251,120.3 251,110.8C251.1,90.3 238.3,72.6 219.2,66.1Z" style="fill:rgb(228,65,31);fill-rule:nonzero;"/>
                <path d="M66.6,111C97.1,105.6 127.2,96 154.3,80.6C167.8,72.9 180.6,63.6 190.9,52C195.3,46.9 199.1,41.4 202,35.3C190.4,14.3 167.8,0 142.1,0C117.6,0 95.6,12.8 83.3,33C78.2,30.3 72.5,28.9 66.5,28.9C47,28.9 31.1,44.4 30.4,63.7C12.3,71.9 0,90.2 0,110.6C0,112.2 0.1,113.8 0.2,115.4C22.2,116.6 44.6,114.9 66.6,111Z" style="fill:rgb(124,133,142);fill-rule:nonzero;"/>
            </g>
        </g>
    </g>
</svg>
