<svg version="1.0" xmlns="http://www.w3.org/2000/svg" preserveAspectRatio="xMidYMid meet" viewBox="0 8.26 214.41 217.8"> <g transform="translate(0.000000,231.000000) scale(0.100000,-0.100000)" fill="#000000" stroke="none"> <path d="M916 2220 c-329 -52 -618 -254 -783 -548 -81 -144 -133 -346 -133 -518 0 -305 101 -560 308 -776 290 -302 703 -404 1102 -272 323 107 578 365 683 689 43 132 51 192 51 360 1 133 -3 175 -21 246 -100 392 -399 697 -781 795 -109 29 -322 40 -426 24z m245 -76 c153 -44 252 -176 253 -335 0 -65 -5 -86 -30 -135 -18 -36 -35 -58 -44 -57 -8 1 -41 12 -73 26 -48 20 -55 26 -43 36 50 42 59 181 16 244 -41 60 -84 82 -171 86 -262 11 -549 -141 -705 -375 -50 -75 -61 -85 -117 -112 -35 -16 -79 -44 -100 -61 l-36 -33 18 54 c66 191 211 381 381 498 201 137 491 211 651 164z m325 -79 c192 -88 366 -250 469 -438 119 -216 160 -501 91 -637 -75 -150 -241 -229 -391 -186 -32 10 -70 25 -84 34 -14 9 -27 17 -29 17 -1 1 9 27 23 59 14 31 25 63 25 72 0 11 9 8 37 -13 33 -25 44 -28 114 -28 71 0 80 2 116 31 77 61 97 141 73 294 -39 249 -185 473 -396 607 -41 27 -54 43 -73 89 -13 31 -39 76 -58 101 -32 41 -32 44 -11 38 13 -4 55 -22 94 -40z m-342 -146 c33 -26 56 -70 56 -107 0 -41 -38 -94 -84 -116 -32 -16 -44 -17 -76 -7 -77 23 -117 107 -84 176 33 71 131 99 188 54z m-260 -36 c-20 -57 -17 -104 12 -161 36 -72 86 -100 196 -112 105 -11 182 -39 255 -95 83 -62 91 -78 59 -123 -13 -21 -30 -49 -37 -64 l-12 -28 -30 40 c-57 79 -133 117 -259 130 -115 12 -179 42 -247 115 -60 67 -91 142 -91 225 0 33 1 60 3 60 1 0 34 11 72 25 94 33 95 33 79 -12z m-176 -261 l29 -60 -39 -39 -39 -39 -58 29 c-32 15 -88 33 -124 40 -37 6 -67 14 -67 18 0 24 138 171 210 224 l34 25 12 -69 c7 -39 25 -97 42 -129z m875 130 c31 -27 82 -80 112 -118 l55 -68 -72 -13 c-40 -6 -98 -25 -129 -41 l-57 -29 -40 39 -39 40 29 58 c17 32 35 88 41 128 13 81 10 81 100 4z m-742 -287 c28 -19 56 -35 62 -35 5 0 -13 -22 -42 -50 -67 -64 -90 -118 -107 -247 -16 -126 -44 -182 -122 -254 -58 -53 -149 -89 -227 -89 -41 0 -43 1 -60 47 -10 26 -24 66 -31 90 l-13 43 31 -16 c22 -11 49 -15 94 -12 52 3 70 9 101 34 48 38 83 106 83 161 0 64 19 142 51 208 30 61 103 155 120 155 5 0 32 -16 60 -35z m-361 14 c68 -16 132 -50 126 -69 -18 -58 -55 -130 -61 -120 -14 22 -89 50 -136 50 -58 0 -126 -35 -157 -80 -38 -57 -45 -102 -32 -213 32 -275 168 -498 392 -644 38 -24 68 -51 68 -59 0 -24 47 -110 81 -149 l32 -36 -54 21 c-328 129 -552 382 -639 725 -30 116 -37 256 -16 327 33 115 131 212 246 242 67 18 92 19 150 5z m1319 -16 c7 -15 51 -141 51 -148 0 -2 -19 4 -42 12 -54 19 -127 11 -174 -18 -59 -36 -84 -84 -94 -186 -14 -135 -47 -214 -125 -301 l-47 -53 -32 24 c-17 13 -45 31 -62 40 l-31 16 57 59 c66 67 87 118 99 239 13 124 61 214 146 273 63 43 110 58 182 59 50 1 64 -3 72 -16z m-629 -90 c50 -20 105 -78 130 -136 72 -166 -44 -346 -223 -347 -71 0 -120 20 -170 68 -46 44 -63 74 -77 136 -35 155 111 320 265 299 22 -3 56 -12 75 -20z m607 -114 c125 -47 109 -220 -22 -245 -67 -12 -145 55 -145 126 0 39 33 92 71 112 39 21 57 22 96 7z m-1297 -16 c69 -40 79 -138 21 -197 -27 -27 -38 -31 -86 -31 -48 0 -59 4 -86 31 -58 58 -48 155 19 197 35 21 96 22 132 0z m414 -372 c50 -34 138 -61 203 -61 166 0 333 -184 321 -352 -3 -40 -6 -44 -48 -64 -25 -12 -60 -25 -79 -29 -32 -7 -34 -6 -27 16 27 88 15 157 -37 215 -43 50 -74 63 -179 74 -114 11 -212 56 -288 130 l-50 49 34 45 c19 25 37 55 41 66 6 19 9 17 35 -19 16 -21 49 -53 74 -70z m1120 -83 c-8 -22 -30 -73 -50 -112 -167 -328 -510 -547 -864 -550 -116 -1 -164 14 -240 74 -82 65 -139 202 -125 304 8 61 54 169 69 162 6 -2 36 -14 66 -27 30 -12 56 -23 58 -25 1 -1 -9 -23 -23 -50 -50 -92 -20 -212 64 -265 40 -26 54 -29 128 -29 211 0 404 79 567 231 42 40 100 107 127 149 44 68 57 79 104 99 29 12 70 35 91 51 22 16 40 30 41 30 1 0 -4 -19 -13 -42z m-1307 -127 c-15 -32 -34 -90 -40 -129 l-12 -71 -35 26 c-76 57 -210 201 -210 226 0 3 30 10 68 17 37 6 92 24 122 40 l55 28 41 -39 40 -40 -29 -58z m980 63 l62 -7 -31 -46 c-38 -55 -153 -169 -197 -194 l-31 -18 0 34 c0 43 -26 131 -53 179 l-20 37 39 43 39 43 65 -33 c42 -21 87 -34 127 -38z m-522 -167 c60 -60 53 -150 -17 -200 -33 -25 -98 -26 -133 -3 -112 74 -66 236 67 236 43 0 55 -5 83 -33z"></path> </g> </svg>
