<svg viewBox="0 0 148 64" xmlns="http://www.w3.org/2000/svg"><g fill="#fff"><path clip-rule="evenodd" d="m0 0h147.824v64h-147.824zm2.86567 2.86567v58.26863h142.09333v-58.26863z" fill-rule="evenodd"/><path d="m32.4774 45.2308c-1.5181.0058-3.0221-.2913-4.4241-.8739-1.4019-.5826-2.6735-1.439-3.7404-2.5191-1.0695-1.0806-1.9138-2.3628-2.4836-3.7724-.5699-1.4095-.8541-2.9182-.8361-4.4385 0-7.3638 6.1724-11.6893 11.7028-11.6893 3.9557 0 7.6556 1.4878 9.6342 4.9601l-3.6998 2.1613c-.6386-.9689-1.5093-1.7626-2.533-2.309-1.0237-.5463-2.1678-.8279-3.3281-.8192-3.2538 0-7.1273 2.5594-7.1273 7.6317 0 4.9586 3.6998 7.6706 7.4192 7.6706 1.2468-.0128 2.4667-.3648 3.5287-1.0182 1.0621-.6534 1.9263-1.5835 2.5-2.6906l3.7836 1.7661c-2.1313 3.872-5.9538 5.9404-10.3961 5.9404zm24.073-4.1952c4.2192 0 7.1213-3.173 7.1213-7.4386s-2.9036-7.4387-7.1213-7.4387c-4.2192 0-7.2216 3.1341-7.2216 7.3683 0 4.2911 2.9081 7.509 7.2216 7.509zm-.446 4.1952c-6.6813 0-11.4393-5.0738-11.4393-11.6488 0-6.7052 4.7146-11.6444 11.4393-11.6444 3.0862 0 6.0586 1.3052 7.4835 3.3078v-2.7315h4.5694v22.0973h-4.5694v-2.739c-1.4982 1.9906-4.4018 3.3586-7.4835 3.3586zm35.1396-.6286v-17.8197h-3.5173v-4.4153h3.5622v-6.5301h4.7086v6.5316h4.8805v4.4138h-4.8805v17.8167h-4.7535zm23.109-3.5666c4.218 0 7.126-3.173 7.126-7.4386s-2.908-7.4387-7.127-7.4387c-4.218 0-7.215 3.1341-7.215 7.3683 0 4.2911 2.904 7.509 7.216 7.509zm-.446 4.1952c-6.687 0-11.435-5.0738-11.435-11.6488 0-6.7052 4.709-11.6444 11.435-11.6444 3.086 0 6.059 1.3052 7.484 3.3078v-2.7315h4.574v22.0973h-4.574v-2.739c-1.499 1.9906-4.402 3.3586-7.484 3.3586zm-41.0425-.6555v-22.0973h4.3539v3.839c.8995-2.48 2.8033-4.1908 5.3267-4.1908.5478-.0104 1.0941.0509 1.627.1796v4.2731c-3.5517-.4116-6.5541 2.0789-6.5541 7.7664v10.23z"/></g></svg>