<svg version="1.1" id="layer" xmlns="http://www.w3.org/2000/svg" xmlns:xlink="http://www.w3.org/1999/xlink" x="0px" y="0px" viewBox="-131.9000244140625 126.4000015258789 599.91552734375 297.7000427246094" style="enable-background:new -153 -46 652 652;" xml:space="preserve">
<style type="text/css">
	.st0{fill:#C6EBF4;}
	.st1{fill:#25314C;}
	.st2{fill:#1B98ED;}
</style>
<path class="st0" d="M297.8,215.6h-5.4h-3.8h-0.5c-12.7,0-27.7,0.7-45.2,0h-2.8c-3.8,0-11.8-0.7-11.9-0.7l-5.6-0.5
	c-7.6-0.6-15.4-1.6-23.7-3l-6.1-1.1l-3.3-0.5c-2.1-0.4-11.1-2.4-13.1-2.9c-2-0.5-3.5-0.8-5.3-1.3c-3.2-0.8-6.4-1.7-9.7-2.7l-4.6-1.4
	c-3.1-0.9-6.2-1.9-9.4-3l-5.7-1.9c-2.8-0.9-5.5-2-8.4-3l62.5-45.5L297.8,215.6z"></path>
<path class="st1" d="M46.8,408.6c-10.1,0-17.5-3-22.1-9.1s-7-15.6-7.1-28.7v-19c0-13.4,2.4-23,7.1-29c4.7-6,12.2-9,22.5-9
	c6.5-0.4,12.9,1.4,18.3,5.1c4.2,2.8,6.9,7.4,7.4,12.5c0.1,0.4,0.5,0.7,0.9,0.8h15.8c0.5,0,0.9-0.4,0.9-0.9c-0.1-7.6-3-14.8-8.3-20.3
	c-7.4-8.3-19.4-12.5-36-12.5c-15.3,0-26.9,4.5-34.8,13.4s-11.8,22.3-11.8,40.1v22.5c0,16.4,3.9,28.8,11.8,37.1
	c7.9,8.3,19.5,12.5,34.9,12.5c18.5,0,31.3-5.2,38.3-15.7c2.1-3,3.7-6.2,4.9-9.7c0.9-3.5,1.3-7.1,1.3-10.7c0-0.5-0.4-0.9-0.9-0.9
	H73.9c-0.4,0-0.8,0.3-0.9,0.8C70.5,400.6,62,408.6,46.8,408.6z M360.8,314.7c0.5,0,0.9-0.4,0.9-0.9c0,0,0,0,0,0v-14.4
	c0-0.5-0.4-0.9-0.8-0.9c0,0-0.1,0-0.1,0h-26.6v-29.4c0-0.5-0.4-0.9-0.9-0.9l-16.2,4.9c-0.5,0-0.9,0.4-0.9,0.9v24.5h-17.6
	c-0.5,0-0.9,0.4-0.9,0.9v14.4c0,0.5,0.4,0.9,0.9,0.9h17.6v75.9c0,10.5,2.4,18.1,7.1,23c4.7,4.9,12.3,7.3,22.7,7.4h14.8
	c0.5,0,0.9-0.4,0.9-0.9l0,0v-14.1c0-0.5-0.4-0.9-0.9-0.9l0,0h-13.2c-3.8,0.4-7.5-1-10.1-3.8c-2.4-4-3.5-8.7-3.1-13.3v-73.2H360.8z
	 M198.9,331.2c-0.1-1.6-0.3-3.1-0.8-4.6c-1.6-5.4-4.2-10.4-7.9-14.7c-7.9-9-19.5-13.4-34.8-13.4c-16.5,0-28.5,4.2-36,12.5
	c-5,5.5-7.8,12.7-7.6,20.2c0,0.5,0.4,0.9,0.9,0.9h15.8c0.5,0,0.8-0.3,0.9-0.8c0.2-5,2.7-9.6,6.8-12.5c5.4-3.7,11.8-5.5,18.4-5.1
	c10.3,0,17.8,3,22.5,9l0,0c2.2,2.9,3.5,6.3,3.8,9.8c0,1.3,0,2.5,0,3.8v13.4c-4.7-0.6-9.4-1.1-14.1-1.4c-4.7-0.3-8.6-0.5-11.6-0.5
	c-16.6,0-28.7,3.1-36.4,9.3s-11.6,16.1-11.6,29.6c0,12.6,3.7,21.9,11,27.7c6.5,5,20.1,7.6,33.8,8.3c3.6,0.2,7.2,0,10.8-0.4
	c11.6-1,23-3.4,33.9-7.2c1.2-0.4,2-1.4,2.1-2.7V336C199.1,334.3,199,332.6,198.9,331.2z M136,404.5c-4-1.3-7.2-4.4-8.7-8.3
	c-1.1-3-1.6-6.2-1.5-9.4c0-8.5,2.2-14.6,6.7-18.2c4.5-3.6,12.6-5.5,24.3-5.5c2.5,0,17.7,1.3,23.3,1.9c0.6,0.1,1,0.6,1,1.1v35.7
	c0,0.5-0.3,1-0.8,1.1C166.1,408.3,150.5,408.9,136,404.5z M467.9,331.2c-0.1-1.5-0.4-3-0.9-4.4c-1.6-5.4-4.2-10.4-7.9-14.7
	c-7.9-9-19.5-13.4-34.8-13.4c-16.6,0-28.6,4.2-36,12.5c-5,5.5-7.8,12.7-7.6,20.2c0,0.5,0.4,0.9,0.9,0.9h15.8c0.5,0,0.8-0.3,0.9-0.8
	c0.2-5,2.7-9.6,6.8-12.5c5.4-3.7,11.8-5.5,18.4-5.1c10.3,0,17.8,3,22.5,9l0,0c2.2,2.8,3.5,6.3,3.8,9.8c0,1.3,0.2,2.5,0.2,3.8v13.4
	c-4.7-0.6-9.4-1.1-14.1-1.4c-4.7-0.3-8.6-0.5-11.6-0.5c-16.5,0-28.7,3.1-36.4,9.3c-7.7,6.2-11.6,16.1-11.6,29.6
	c0,12.6,3.7,21.9,11,27.7c6.5,5,20.1,7.6,33.8,8.3c3.6,0.2,7.2,0,10.8-0.4c11.6-1,23-3.4,33.9-7.2c1.2-0.4,2-1.4,2.1-2.7V336
	C468.1,334.3,468,332.6,467.9,331.2z M404.9,404.5c-4-1.3-7.2-4.4-8.7-8.3c-1.1-3-1.6-6.2-1.5-9.4c0-8.5,2.2-14.6,6.7-18.2
	c4.5-3.6,12.6-5.5,24.3-5.5c2.5,0,17.7,1.3,23.3,1.9c0.6,0.1,1,0.6,1,1.1v35.7c0,0.5-0.3,0.9-0.8,1.1
	C435.1,408.3,419.5,408.9,404.9,404.5z M282.4,316c0.5,0,0.8-0.4,0.8-0.9v-0.7l0,0v-15.1c0-3-20.8,1.6-22.8,2.2
	c-8.8,2-16.4,7.8-20.6,15.8V303c0-0.5-0.4-1-1-1l0,0h-15.7c-0.5,0-1,0.4-1,1l0,0v117c0,0.6,0.4,1,1,1h16.2c0.6,0,1-0.5,1-1v-65.6
	c-0.2-7.7,1.4-15.4,4.6-22.4c4.1-9.1,12.8-15.1,22.8-15.7c3.5-0.4,7-0.7,10.6-0.6L282.4,316z"></path>
<path class="st2" d="M288.8,222.8c-242,74.3-420.7,0-420.7,0L1.2,126.4c50.5,37.1,94.4,60,132.1,74.2c2.8,1.1,5.6,2.1,8.4,3l5.7,1.9
	c3.2,1.1,6.3,2.1,9.4,3l4.6,1.4c3.3,0.9,6.5,1.9,9.7,2.7c1.8,0.5,3.5,0.9,5.3,1.3c1.7,0.4,15.4,3.3,16.6,3.6l6.1,1.1
	c8.3,1.4,16.2,2.4,23.7,3l5.6,0.5c0,0,8.2,0.6,11.9,0.7h2.8c17.6,0.6,32.5,0,45.2,0L288.8,222.8z"></path>
</svg>
