<svg xmlns="http://www.w3.org/2000/svg" viewBox="0 0 1999.97 1601.88"><path d="M1345.77 901.2c7.94 4 17.87 13.5 29.78 28.78a275.38 275.38 0 0131.75 52.6q31.86 75.33 31.76 210.4 0 206.34-140.93 307.66t-408.89 101.23q-291.78 0-446.6-113.14-164.65-123-164.75-430.72 0-234.33 140.93-373.17 47.64-47.64 85.35-75.42c25.21-18.46 58.16-38.31 99.24-59.55 51.61-25.21 96.87-45.26 136-60.54s60.54-23.42 64.51-24.81q262-101.24 337.44-236.21c17.26-30.37 25.8-61.93 25.8-94.28s-8.54-57-25.8-73.44-19.85-26.2-7.94-28.78q35.73 6 62.52 47.63c17.87 27.79 26.8 53 26.8 75.43s-.6 41.29-2 56.57-4.36 33.74-8.93 55.58a347.23 347.23 0 01-20.84 65.5c-9.33 21.83-21.24 46.05-35.73 72.45q-43.77 79.5-148.87 192.54Q907.2 702.6 881.3 740.42l-55.58 75.43L786 883.33l-23.82 65.51-11.91 65.5 9.92 55.58q17.87 55.66 103.22 91.3c-14.49-11.91-27.79-32.35-39.7-61.53s-17.86-63.52-17.86-103.22 27.39-90.9 82.37-153.83 96.27-100.24 124.06-111.15 1 0 0 0zM903.14 135.02q0 87.24 81.38 166.73l-97.26 53.6q-39.6-89.33-39.7-194.52c0-34.34 6.55-59.55 19.85-75.43 19.85-25.21 37.31-41.29 52.6-48.63s22.82-7.54 22.82-1-4 13.89-11.91 21.83c-17.26 17.28-26.39 43.08-27.78 77.42zm-69.48 252.09l-184.59 71.45L33.74 137.01C11.31 122.52 0 104.85 0 84.41S3.57 46.69 10.92 32.8 29.38 9.38 44.66 4.02s33.34-5.36 54.59 0zm307.67 160.77L1975 978.61q41.68 39.6 13.89 95.28c-6.55 14.49-16.47 25.2-29.77 31.75s-29.77 9.33-49.62 7.94l-863.45-448.62z" fill="#cc2929"/></svg>