<svg xmlns="http://www.w3.org/2000/svg" viewBox="0 .59 200.18 197.85">
  <path fill="#cb272c" fill-rule="evenodd" d="M90.292 79.729h24.696c7.806-44.053 20.513-79.14 20.513-79.14h29.248s-43.31 160.081-15.187 160.081c28.124 0 37.123-41.148 37.123-41.148h13.499c0 21.42-14.061 50.166-32.06 65.949-17.998 15.783-57.933 28.747-59.058-40.02-.205-12.496.538-25.234 1.891-37.714H87.092c-7.42 49.312-22.409 90.698-22.409 90.698H35.435s43.31-160.08 15.187-160.08C22.5 38.355 13.5 79.502 13.5 79.502H0c0-21.419 14.062-50.166 32.06-65.948C50.058-2.23 89.993-15.194 91.118 53.574c.142 8.657-.17 17.431-.826 26.155Z" clip-rule="evenodd"/>
</svg>
