<svg viewBox="0 0 1549 2107" version="1.1" xmlns="http://www.w3.org/2000/svg" xmlns:xlink="http://www.w3.org/1999/xlink" xml:space="preserve" xmlns:serif="http://www.serif.com/" style="fill-rule:evenodd;clip-rule:evenodd;stroke-linecap:square;">
    <g transform="matrix(4.16667,0,0,4.16667,-3244.24,-342.024)">
        <g transform="matrix(0.7051,0.132846,-0.132846,0.7051,1490.66,-415.923)">
            <g id="CM">
                <g id="g6631">
                    <g id="g6633" transform="matrix(-5.02945,2.82498,2.82498,5.02945,-6637.99,46.5446)">
                        <path id="path6635" d="M-846.326,630.717C-853.863,637.997 -865.812,661.678 -847.683,682.332C-826.649,706.296 -798.029,663.62 -777.14,700.276C-777.14,700.276 -779.506,698.758 -786.255,698.758C-793.382,698.758 -807.159,723.641 -842.194,723.641C-870.044,723.641 -878.488,689.479 -875.564,667.452C-870.27,627.585 -846.326,630.717 -846.326,630.717Z" style="fill:rgb(141,229,242);"/>
                        <path id="path6637" d="M-861.143,655.622L-865.074,655.069L-867.521,658.196L-866.969,654.264L-870.095,651.818L-866.164,652.37L-863.717,649.244L-864.269,653.175L-861.143,655.622Z" style="fill:rgb(211,239,250);"/>
                        <g id="path6639" transform="matrix(1.28105,0.258147,-0.258147,1.28105,400.756,16.7624)">
                            <path d="M-839.725,696.938L-842.391,696.563L-844.05,698.683L-843.675,696.017L-845.794,694.358L-843.129,694.733L-841.47,692.614L-841.845,695.279L-839.725,696.938Z" style="fill:rgb(211,239,250);"/>
                        </g>
                        <g id="path6641" transform="matrix(1.22215,0.569021,-0.569021,1.22215,607.991,330.637)">
                            <path d="M-839.725,696.938L-842.391,696.563L-844.05,698.683L-843.675,696.017L-845.794,694.358L-843.129,694.733L-841.47,692.614L-841.845,695.279L-839.725,696.938Z" style="fill:rgb(211,239,250);"/>
                        </g>
                        <g id="path6643" transform="matrix(0.45717,0.874074,-0.874074,0.45717,199.169,1113.26)">
                            <path d="M-839.725,696.938L-842.391,696.563L-844.05,698.683L-843.675,696.017L-845.794,694.358L-843.129,694.733L-841.47,692.614L-841.845,695.279L-839.725,696.938Z" style="fill:rgb(211,239,250);"/>
                        </g>
                        <g id="path6645" transform="matrix(-0.484958,1.58165,-1.58165,-0.484958,-148.556,2382.31)">
                            <path d="M-839.725,696.938L-842.391,696.563L-844.05,698.683L-843.675,696.017L-845.794,694.358L-843.129,694.733L-841.47,692.614L-841.845,695.279L-839.725,696.938Z" style="fill:rgb(211,239,250);"/>
                        </g>
                    </g>
                    <g id="g6647" transform="matrix(-2.95684,0,0,2.95684,-1058.38,-1273.42)">
                        <path id="path6649" d="M-145.806,807.725L-145.806,933.106" style="fill:none;stroke:rgb(168,204,233);stroke-width:8.98px;"/>
                        <rect id="rect6651" x="-153.392" y="792.98" width="15.173" height="21.545" style="fill:rgb(115,167,202);"/>
                        <g id="g6653">
                            <path id="path6655" d="M-116.955,814.464L-145.666,794.303L-174.21,814.699L-163.909,781.163L-192.126,760.318L-157.049,759.753L-145.944,726.475L-134.567,759.661L-99.486,759.939L-127.532,781.014L-116.955,814.464Z" style="fill:rgb(188,230,250);"/>
                            <path id="path6657" d="M-137.294,786.574L-145.778,777.364L-154.186,786.643L-148.049,775.728L-159.472,770.599L-147.195,773.063L-145.847,760.614L-144.396,773.051L-132.14,770.487L-143.52,775.71L-137.294,786.574Z" style="fill:rgb(115,167,202);"/>
                        </g>
                    </g>
                </g>
            </g>
        </g>
    </g>
</svg>