<svg aria-label="Orcid" role="img" version="1.1" viewBox="0 0 512 512" xmlns="http://www.w3.org/2000/svg">
 <path d="m255.24 476c-3.1114-14.565-7.5682-35.322-9.904-46.128-2.3358-10.806-5.571-25.869-7.1893-33.473-1.6183-7.6042-3.2287-14.862-3.5787-16.129-0.44708-1.618 3.486-4.955 13.221-11.217l13.857-8.9144 13.852 8.8632c10.009 6.404 13.661 9.5164 13.162 11.217-0.37948 1.2948-3.3645 15.125-6.6333 30.734-3.2689 15.609-6.2526 29.689-6.6304 31.29-0.37788 1.6009-3.3676 15.354-6.6438 30.562-3.2762 15.208-6.384 28.107-6.9062 28.664-0.52222 0.55682-3.4952-10.904-6.6066-25.469zm-164.49-44.892c0.66541-1.0804 11.175-17.355 23.355-36.165s26.378-40.75 31.552-48.754c5.1735-8.0044 19.649-30.37 32.169-49.702l22.762-35.149-12.181-18.699c-26.486-40.659-95.104-147.14-97.708-151.62-0.61938-1.0659 1.4015-0.3239 4.4908 1.6489 5.924 3.7831 39.107 25.219 118.37 76.47l48.046 31.065 28.751-18.58c35.447-22.908 119.78-77.345 133.36-86.082l10.01-6.4415-3.3953 5.5678c-3.9982 6.5564-14.983 23.628-37.764 58.688-9.1017 14.008-28.548 44.057-43.214 66.776l-26.665 41.307 27.958 43.103c15.377 23.707 39.162 60.458 52.856 81.67 13.694 21.212 26.151 40.465 27.684 42.786l2.7856 4.219-3.4132-1.8267c-1.8773-1.0047-39.838-25.423-84.356-54.263-44.519-28.84-82.083-52.749-83.477-53.132-1.5294-0.42005-9.0306 3.5242-18.92 9.9483-9.012 5.8544-22.607 14.675-30.211 19.601-126.76 82.117-124.95 80.973-122.85 77.565zm29.704-147.4c-11.606-2.6343-39.24-8.6447-61.408-13.356-22.757-4.837-39.199-8.9761-37.764-9.5069 1.3978-0.51706 24.422-5.6352 51.165-11.374 50.322-10.798 65.964-14.25 70.031-15.454 1.733-0.51325 4.8085 3.0882 11.358 13.301l8.9817 14.005-8.5119 13.32c-4.6816 7.3258-9.4653 13.44-10.631 13.588-1.1652 0.14748-11.615-1.8872-23.221-4.5215zm253.67-1.0607c-2.3316-3.4725-6.354-9.6794-8.9387-13.793l-4.6994-7.4795 8.9962-14.06c6.3848-9.9786 9.6252-13.819 11.163-13.228 1.1919 0.45736 28.381 6.445 60.419 13.306 32.039 6.8609 59.416 12.905 60.838 13.431 1.4754 0.54582-23.471 6.531-58.088 13.936-33.371 7.1389-61.749 13.255-63.063 13.59-1.5675 0.40069-3.846-1.5598-6.6279-5.703zm-126.99-129.32c-10.151-6.6656-13.159-9.3654-12.567-11.279 0.42828-1.3837 4.7445-21.181 9.5917-43.993 14.538-68.42 16.511-77.134 17.465-77.134 0.50241 0 6.6884 27.015 13.747 60.033s13.136 60.835 13.507 61.815c0.58361 1.543-24.649 19.321-27.423 19.321-0.53584 0-6.9798-3.9434-14.32-8.7632z" fill="#00adef" stroke-width="1.4554"/>
</svg>
