<svg xmlns="http://www.w3.org/2000/svg" xmlns:xlink="http://www.w3.org/1999/xlink" viewBox="7.22 6.77 246.07 226.47">
    <path id="a" fill="#840010" stroke="none" d="M 29.131346 6.795319 C 17.029985 6.795319 7.231141 16.604706 7.231141 28.692657 L 7.231141 230.92131 C 7.231141 231.688187 7.27518 232.460785 7.348899 233.20755 C 15.48668 230.175507 24.126131 226.861038 33.250019 223.216278 C 96.759178 197.864685 148.681107 176.310104 148.728012 151.972382 C 148.728012 151.193085 148.674393 150.406097 148.563339 149.619141 C 145.279495 125.590652 87.858368 118.141235 87.937828 107.129379 C 87.944527 106.544418 88.110153 105.932648 88.462471 105.320877 C 95.360443 93.239624 122.68232 93.817886 132.744461 92.963898 C 142.815201 92.089798 166.45018 92.270752 167.592331 85.071213 C 167.625854 84.849091 167.646912 84.627945 167.646912 84.405823 C 167.673721 77.716568 151.393372 75.094284 151.393372 75.094284 C 151.393372 75.094284 171.149033 78.045914 171.095428 85.73085 C 171.095428 86.107101 171.049469 86.49675 170.944153 86.893112 C 168.816833 95.149612 151.433578 96.702499 139.938248 97.266388 C 129.066177 97.811142 112.511055 99.04808 112.454567 104.358704 C 112.447868 104.667938 112.50148 104.990585 112.612534 105.319916 C 115.207047 113.084328 175.886185 116.822914 214.708191 136.972061 C 237.048782 148.555481 248.159241 168.012421 253.255417 188.113708 L 253.255417 28.689789 C 253.255417 16.601837 243.448898 6.79245 231.360962 6.79245 L 29.131346 6.79245 Z"/>
</svg>