<svg xmlns="http://www.w3.org/2000/svg" xmlns:xlink="http://www.w3.org/1999/xlink" viewBox="0 0 122 122" style="&#10;    background: gray;&#10;">
    <defs>
        <path id="a" d="M44.278 24.612c0 4.046-.59 7.614-1.77 10.704-1.182 3.091-2.782 5.67-4.803 7.739a19.828 19.828 0 0 1-7.05 4.67c-2.68 1.045-5.519 1.568-8.516 1.568s-5.836-.523-8.515-1.568a19.829 19.829 0 0 1-7.05-4.67c-2.021-2.068-3.622-4.648-4.803-7.739C.591 32.226 0 28.658 0 24.612c0-4.045.59-7.602 1.771-10.67 1.18-3.068 2.782-5.636 4.803-7.704a19.829 19.829 0 0 1 7.05-4.67C16.304.523 19.142 0 22.14 0c2.997 0 5.836.523 8.515 1.568a19.828 19.828 0 0 1 7.05 4.67c2.022 2.068 3.622 4.636 4.803 7.705 1.18 3.067 1.771 6.624 1.771 10.67zm-4.904 0c0-3.181-.41-6.033-1.227-8.556-.817-2.523-1.975-4.67-3.474-6.443a14.862 14.862 0 0 0-5.415-4.056c-2.112-.932-4.485-1.398-7.119-1.398-2.634 0-5.007.466-7.118 1.398a14.863 14.863 0 0 0-5.416 4.056c-1.499 1.773-2.657 3.92-3.474 6.443-.818 2.523-1.226 5.375-1.226 8.556 0 3.182.408 6.034 1.226 8.557.817 2.522 1.975 4.67 3.474 6.443a15.21 15.21 0 0 0 5.416 4.09c2.111.955 4.484 1.432 7.118 1.432 2.634 0 5.007-.477 7.119-1.432a15.208 15.208 0 0 0 5.415-4.09c1.499-1.773 2.657-3.92 3.474-6.443.818-2.523 1.227-5.375 1.227-8.557zM62.305 45.27c3.679 0 6.54-.67 8.584-2.01 2.043-1.342 3.065-3.512 3.065-6.512 0-1.727-.33-3.17-.988-4.33a9.247 9.247 0 0 0-2.622-2.93c-1.09-.796-2.34-1.478-3.747-2.046a649.873 649.873 0 0 1-4.428-1.807c-1.953-.773-3.701-1.568-5.245-2.386-1.544-.818-2.861-1.739-3.951-2.761a10.447 10.447 0 0 1-2.487-3.512c-.567-1.318-.851-2.863-.851-4.636 0-4.045 1.34-7.113 4.02-9.204C56.332 1.046 60.056 0 64.824 0c1.272 0 2.521.09 3.747.273a28.66 28.66 0 0 1 3.44.716c1.068.295 2.044.625 2.93.988.885.364 1.623.75 2.214 1.16L75.52 7.021c-1.317-.909-2.918-1.636-4.803-2.181-1.884-.546-3.917-.818-6.096-.818-1.5 0-2.873.147-4.122.443-1.249.295-2.327.772-3.236 1.431a7.086 7.086 0 0 0-2.145 2.489c-.523 1-.784 2.204-.784 3.613 0 1.455.273 2.682.818 3.682.545 1 1.305 1.864 2.282 2.59.976.728 2.123 1.387 3.44 1.978 1.317.59 2.747 1.204 4.291 1.84 1.862.773 3.622 1.546 5.28 2.319 1.657.773 3.1 1.682 4.325 2.727a11.593 11.593 0 0 1 2.93 3.818c.726 1.5 1.09 3.34 1.09 5.522 0 4.273-1.488 7.477-4.462 9.614-2.975 2.136-7.005 3.204-12.092 3.204-1.816 0-3.474-.114-4.973-.34-1.498-.228-2.838-.512-4.019-.853-1.18-.341-2.18-.693-2.997-1.057-.817-.364-1.453-.682-1.907-.954l1.498-4.023c.454.273 1.068.59 1.84.955a23.7 23.7 0 0 0 2.724 1.056c1.045.341 2.226.625 3.543.853 1.317.227 2.77.34 4.36.34z"/>
        <path id="c" d="M1.599 7.256c.278-.216.725-.446 1.34-.688.615-.242 1.34-.363 2.177-.363.918 0 1.734.167 2.447.5.713.335 1.316.802 1.808 1.402.492.6.865 1.314 1.119 2.14.254.825.381 1.73.381 2.714 0 1.051-.152 1.994-.455 2.828-.303.834-.73 1.543-1.279 2.127a5.498 5.498 0 0 1-1.968 1.338c-.762.309-1.61.463-2.545.463-1.131 0-2.066-.075-2.804-.225A14.175 14.175 0 0 1 0 19.017V.3L1.599 0v7.256zm0 10.635c.246.083.61.162 1.094.237.484.075 1.12.113 1.906.113 1.378 0 2.484-.455 3.32-1.364.837-.909 1.255-2.214 1.255-3.916a9.09 9.09 0 0 0-.221-2.039 4.823 4.823 0 0 0-.714-1.676 3.586 3.586 0 0 0-1.29-1.139c-.534-.283-1.194-.425-1.98-.425a5.07 5.07 0 0 0-1.083.112c-.344.075-.664.171-.96.288a5.237 5.237 0 0 0-1.327.75v9.059zm11.083-4.955c0-1.134.16-2.122.48-2.965.32-.842.738-1.547 1.254-2.114a4.937 4.937 0 0 1 1.771-1.264 5.314 5.314 0 0 1 2.054-.413c1.557 0 2.8.518 3.726 1.552.926 1.034 1.39 2.627 1.39 4.779 0 .133-.005.267-.013.4-.008.134-.02.259-.037.376H14.38c.05 1.584.435 2.802 1.156 3.653.722.85 1.87 1.276 3.444 1.276.869 0 1.557-.084 2.066-.25.508-.167.877-.309 1.106-.426l.295 1.401c-.229.134-.66.292-1.29.476-.632.183-1.374.275-2.227.275-1.115 0-2.066-.167-2.853-.5-.787-.334-1.434-.801-1.943-1.402a5.57 5.57 0 0 1-1.106-2.139c-.23-.826-.345-1.73-.345-2.715zm9.027-1.026c-.033-1.35-.345-2.402-.935-3.152-.59-.751-1.427-1.126-2.509-1.126-.574 0-1.086.116-1.537.35a3.913 3.913 0 0 0-1.18.938 4.374 4.374 0 0 0-.788 1.364c-.188.517-.299 1.06-.332 1.626h7.28zm5.82-5.43h5.066v1.377H27.53v6.88c0 .735.061 1.331.184 1.79.123.459.3.813.529 1.063.23.25.508.417.836.5.328.084.689.126 1.082.126.673 0 1.214-.08 1.624-.238a7 7 0 0 0 .959-.438l.393 1.351c-.23.15-.63.322-1.205.513a5.863 5.863 0 0 1-1.869.288c-.787 0-1.447-.104-1.98-.313a2.866 2.866 0 0 1-1.279-.95c-.32-.426-.545-.955-.676-1.59-.131-.633-.197-1.384-.197-2.251V2.678l1.599-.301v4.104zM38.66 18.24c.623 0 1.169-.02 1.636-.062.467-.041.865-.096 1.193-.162v-4.554c-.18-.084-.467-.171-.86-.263-.395-.092-.936-.138-1.624-.138-.394 0-.804.03-1.23.088-.426.058-.82.184-1.18.375-.361.192-.656.455-.886.788-.23.334-.344.776-.344 1.327 0 .483.078.892.233 1.226.156.333.377.6.664.8.287.2.632.347 1.033.438.402.092.857.138 1.365.138zm-.147-12.06c.836 0 1.545.121 2.127.363.582.242 1.054.576 1.415 1.001.36.425.623.93.787 1.514a7.01 7.01 0 0 1 .246 1.902v8.157c-.164.05-.402.104-.714.162-.311.059-.672.121-1.082.188a18.49 18.49 0 0 1-2.902.225 7.227 7.227 0 0 1-1.857-.225 4.074 4.074 0 0 1-1.476-.713 3.356 3.356 0 0 1-.984-1.251c-.237-.509-.356-1.13-.356-1.864 0-.701.131-1.302.393-1.802.263-.5.632-.913 1.107-1.238.476-.326 1.041-.564 1.697-.714a9.579 9.579 0 0 1 2.14-.225c.23 0 .471.013.725.038a9.885 9.885 0 0 1 1.353.225c.172.042.291.08.357.112v-.8c0-.45-.033-.889-.099-1.314a2.906 2.906 0 0 0-.43-1.15 2.402 2.402 0 0 0-.935-.827c-.401-.208-.93-.312-1.586-.312-.935 0-1.631.066-2.09.2-.46.133-.796.242-1.009.325l-.221-1.426c.278-.134.709-.259 1.29-.375.583-.117 1.284-.176 2.104-.176z"/>
        <path id="e" d="M13.75 9.738H4.74C1.85 9.738.053 8.04.053 5.31.053 2.61 1.85.93 4.74.93h9.009v8.808z"/>
        <path id="g" d="M5.2 8.549c-2.952 0-4.644-1.496-4.644-4.1C.556 1.846 2.248.35 5.2.35h8.55v8.198H5.2z"/>
        <path id="i" d="M60.186 0h.548c33.214.15 60.186 27.457 60.186 61 0 33.636-27.12 61-60.46 61C27.121 122 0 94.635 0 61 0 27.456 26.974.15 60.187 0zM87.77 67.299c5.353-.704 8.603-4.394 8.603-9.997 0-3.38-1.506-6.194-4.096-7.767 1.934-1.305 3.592-3.77 3.592-7.07 0-5.185-3.107-8.775-8.1-9.64v-2.823c0-1.273-1.033-2.316-2.295-2.316-1.264 0-2.297 1.043-2.297 2.316v2.616h-3.61v-2.616c0-1.273-1.033-2.316-2.295-2.316-1.263 0-2.296 1.043-2.296 2.316v2.616h-2.2c-1.49 0-2.697 1.237-2.697 2.762v29.289c0 1.526 1.207 2.763 2.697 2.763h2.2v3.172c0 1.274 1.033 2.316 2.296 2.316 1.262 0 2.295-1.042 2.295-2.316v-3.172h3.61v3.172c0 1.274 1.033 2.316 2.297 2.316 1.262 0 2.296-1.042 2.296-2.316V67.3zm2.332 18.886c1.407-2.216.764-5.165-1.435-6.582a4.698 4.698 0 0 0-6.522 1.447c-.068.109-6.797 10.721-21.685 10.721-14.578 0-21.338-10.168-21.652-10.667a4.699 4.699 0 0 0-6.48-1.55c-2.224 1.376-2.922 4.31-1.559 6.553.376.621 9.63 15.195 29.691 15.195 20.003 0 29.252-14.5 29.642-15.117zM24.531 57.302c0 5.603 3.25 9.293 8.603 9.997v3.305c0 1.274 1.034 2.316 2.298 2.316 1.262 0 2.295-1.042 2.295-2.316v-3.172h3.61v3.172c0 1.274 1.033 2.316 2.297 2.316 1.262 0 2.296-1.042 2.296-2.316v-3.172h2.198c1.49 0 2.697-1.237 2.697-2.763v-29.29c0-1.524-1.207-2.761-2.697-2.761H45.93v-2.616c0-1.273-1.034-2.316-2.296-2.316-1.264 0-2.297 1.043-2.297 2.316v2.616h-3.61v-2.616c0-1.273-1.033-2.316-2.295-2.316-1.264 0-2.298 1.043-2.298 2.316v2.823c-4.99.865-8.1 4.455-8.1 9.64 0 3.3 1.66 5.765 3.593 7.07-2.588 1.573-4.096 4.387-4.096 7.767z"/>
        <path id="k" d="M13.243 4.45c0 2.604-1.693 4.1-4.644 4.1H.048V.35h8.55c2.952 0 4.645 1.494 4.645 4.098z"/>
        <path id="m" d="M9.056.93c2.893 0 4.69 1.68 4.69 4.38 0 2.73-1.797 4.428-4.69 4.428H.048V.93h9.008z"/>
        <path id="o" d="M21.801 50.043c-9.92 0-20.596-8.337-20.596-24.657C1.205 9.796 11.9.481 21.965.481c6.428 0 11.342 2.729 13.476 4.16.641.428.762 1.325.273 1.924l-1.676 2.042c-.42.51-1.149.634-1.704.276-1.684-1.087-5.506-3.14-10.37-3.14-6.242 0-15.529 5.892-15.529 19.643 0 13.651 8.278 19.398 15.366 19.398 5.517 0 9.74-1.981 11.564-3.013a1.294 1.294 0 0 1 1.691.39l1.525 2.148c.449.63.265 1.512-.4 1.898-2.26 1.31-7.511 3.836-14.38 3.836z"/>
        <path id="q" d="M6.003 22.305h30.652C35.328 9.073 27.752 6.193 21.413 6.193c-5.828 0-14.307 4.348-15.41 16.112zM21.25 49.592c-9.92 0-20.598-8.338-20.598-24.659 0-15.588 10.696-24 20.761-24 5.971 0 19.937 2.33 20.648 23.913a2.648 2.648 0 0 1-.734 1.917c-.493.512-1.171.8-1.88.8H5.993c.993 11.563 8.642 16.77 15.257 16.77 5.519 0 9.743-1.983 11.565-3.015a1.294 1.294 0 0 1 1.69.392l1.527 2.148a1.316 1.316 0 0 1-.401 1.899c-2.261 1.308-7.512 3.835-14.38 3.835z"/>
        <path id="s" d="M13.115.108c.72 0 1.306.592 1.306 1.315l.002 45.474c0 .725-.588 1.316-1.308 1.316h-2.617a1.315 1.315 0 0 1-1.306-1.316L9.19 5.387H2.122a.949.949 0 0 1-.942-.948V1.057c0-.522.425-.949.942-.949h10.993z"/>
        <path id="u" d="M25.392 41.582c.61-.037 1.121-.11 1.121-.11s.04-7.533.042-11.369a29.22 29.22 0 0 0-5.613-.336c-2.298.085-4.738.416-6.845 1.394-.978.454-1.885 1.127-2.446 2.055-.46.76-.665 1.662-.661 2.551.003 1.154.383 2.34 1.158 3.2.916 1.018 2.326 1.614 3.607 1.99 1.376.404 2.807.585 4.234.683 1.118.077 2.24.081 3.36.04.15-.005 1.195-.048 2.043-.098zm12.717-21.457s.033 25.78 0 29.613c-.004.386-.334.693-.687.784-.081.027-1.211.312-3.163.652-6.745 1.174-13.858 1.808-20.552.011-2.36-.65-4.921-1.647-7.343-3.567a14.848 14.848 0 0 1-1.495-1.372c-3.392-3.6-4.777-9.048-3.631-13.86.333-1.397.879-2.741 1.597-3.981 2.57-4.444 6.979-6.875 11.863-7.895 2.16-.451 4.153-.616 5.969-.657a39.145 39.145 0 0 1 5.848.317c-.007-2.855-.066-3.855-.762-4.838-3.463-4.897-13.596-2.553-18.354-1.107a1.597 1.597 0 0 1-1.977-1.037L2.756 5.156c-.284-.854.178-1.787 1.032-2.054C18.362-1.45 29.478.46 35.192 8.537c2.904 4.106 2.911 8.08 2.917 11.588z"/>
        <path id="w" d="M5.55 38.353a1.604 1.604 0 0 1 2.022-1.076c1.22.392 2.44.78 3.659 1.178l-.143-.041c3.767 1.037 9.809 3.275 13.015-.155.478-.51.858-1.143.927-1.84.198-1.959-2.165-2.647-3.582-3.186-3.092-1.172-6.232-2.222-9.32-3.41-2.456-.947-4.875-2.132-6.806-3.936C1.273 22.103.068 15.966 2.07 10.83 4.741 4.28 11.41.807 18.195.84c5.207.055 10.111 1.59 15.023 3.159a1.62 1.62 0 0 1 1.052 2.01l-2.087 6.98a1.602 1.602 0 0 1-1.99 1.086c-2.757-.823-5.507-1.727-8.356-2.16-2.604-.396-5.93-.668-8.138 1.062-1.067.837-1.983 2.377-1.442 3.76.456 1.164 1.738 1.625 2.805 2.035 1.312.506 2.643.952 3.98 1.388 2.661.867 5.349 1.686 7.914 2.828 2.58 1.15 5.044 2.63 6.848 4.86 2.578 3.183 3.49 7.608 2.604 11.62-1.761 7.976-9.421 12.555-17.129 12.652-.082.002-.165.002-.247.002-5.152.015-10.148-1.429-15.049-2.881A1.62 1.62 0 0 1 2.9 47.22l2.65-8.868z"/>
        <path id="y" d="M40.01.108a1.61 1.61 0 0 1 1.604 1.618v44.868c0 .895-.718 1.62-1.603 1.62h-8.82a1.612 1.612 0 0 1-1.605-1.62l.002-18.555H12.75l-.002 18.555a1.61 1.61 0 0 1-1.603 1.62h-8.82a1.611 1.611 0 0 1-1.603-1.62V1.726A1.61 1.61 0 0 1 2.326.108h8.82a1.61 1.61 0 0 1 1.603 1.618l.002 16.607h16.837V1.726A1.61 1.61 0 0 1 31.19.108h8.82z"/>
        <path id="A" d="M20.715 1.277c2.862 0 17.136.993 17.136 20.588v25.031c0 .723-.588 1.314-1.308 1.314h-2.615c-.72 0-1.308-.591-1.308-1.314V29.16v-7.295c0-13.836-8.325-15.33-11.905-15.33-3.406 0-14.52 1.106-14.52 15.33v25.03c0 .723-.59 1.314-1.308 1.314H2.271a1.316 1.316 0 0 1-1.308-1.314V1.429c0-.725.59-1.315 1.308-1.315h2.616c.719 0 1.309.59 1.309 1.315v5.61c3.918-4.09 9.453-5.762 14.52-5.762z"/>
        <path id="C" d="M40.253.108a1.61 1.61 0 0 1 1.604 1.618v44.868c0 .895-.719 1.62-1.604 1.62h-8.82a1.61 1.61 0 0 1-1.602-1.62V28.039H12.993v18.555c0 .895-.718 1.62-1.604 1.62h-8.82a1.611 1.611 0 0 1-1.603-1.62V1.726A1.61 1.61 0 0 1 2.569.108h8.82c.886 0 1.604.725 1.604 1.618v16.607h16.838V1.726A1.61 1.61 0 0 1 31.434.108h8.82z"/>
    </defs>
    <g fill="none" fill-rule="evenodd">
        
        <g transform="translate(30.778 51.758)">
            <mask id="f" fill="#fff">
                <use xlink:href="#e"/>
            </mask>
            <path fill="#F4BE49" d="M-6.103-5.232h26.008V15.9H-6.103z" mask="url(#f)"/>
        </g>
        <g transform="translate(30.778 38.202)">
            <mask id="h" fill="#fff">
                <use xlink:href="#g"/>
            </mask>
            <path fill="#F4BE49" d="M-5.6-5.81h25.506v20.52H-5.6z" mask="url(#h)"/>
        </g>
        <g>
            <mask id="j" fill="#fff">
                <use xlink:href="#i"/>
            </mask>
            <path fill="#F4BE49" d="M-6.155-6.162h133.23V128.16H-6.155z" mask="url(#j)"/>
        </g>
        <g transform="translate(76.328 38.202)">
            <mask id="l" fill="#fff">
                <use xlink:href="#k"/>
            </mask>
            <path fill="#F4BE49" d="M-6.107-5.81h25.505v20.52H-6.107z" mask="url(#l)"/>
        </g>
        <g transform="translate(76.328 51.758)">
            <mask id="n" fill="#fff">
                <use xlink:href="#m"/>
            </mask>
            <path fill="#F4BE49" d="M-6.108-5.232h26.01v21.131h-26.01z" mask="url(#n)"/>
        </g>
        
        
        
        
        
        
        
        
    </g>
</svg>
