<svg viewBox="0 0 130 130" fill="none" xmlns="http://www.w3.org/2000/svg">
    <rect width="130" height="130" fill="white" />
    <path
        d="M65 130C100.899 130 130 100.899 130 65C130 29.1015 100.899 0 65 0C29.1015 0 0 29.1015 0 65C0 100.899 29.1015 130 65 130Z"
        fill="url(#paint0_linear_1_2)" />
    <path fill-rule="evenodd" clip-rule="evenodd"
        d="M47.206 85.752C35.236 85.752 27 77.352 27 65.986V65.876C27 54.948 35.51 46 47.15 46C54.069 46 58.242 47.866 62.25 51.27L56.924 57.694C53.959 55.224 51.324 53.796 46.876 53.796C40.726 53.796 35.84 59.231 35.84 65.766V65.876C35.84 72.904 40.67 78.066 47.48 78.066C50.555 78.066 53.3 77.296 55.442 75.758V70.27H46.93V62.966H63.622V79.659C59.668 83.007 54.232 85.753 47.205 85.753L47.206 85.752ZM86.852 85.752C75.762 85.752 67.58 77.022 67.58 65.929C67.58 54.95 75.706 46 87.017 46C93.99 46 98.164 48.47 102.007 52.094L99.041 55.278C95.802 52.203 92.178 50.008 86.962 50.008C78.452 50.008 72.082 56.871 72.082 65.82C72.082 74.771 78.506 81.744 86.962 81.744C92.234 81.744 95.693 79.712 99.372 76.199L102.226 78.999C98.218 83.061 93.826 85.752 86.852 85.752"
        fill="white" />
    <defs>
        <linearGradient id="paint0_linear_1_2" x1="19.1438" y1="-7.25976e-07" x2="120.413" y2="127.028"
            gradientUnits="userSpaceOnUse">
            <stop stop-color="#0854B3" />
            <stop offset="1" stop-color="#0047A6" />
        </linearGradient>
    </defs>
</svg>