<svg clip-rule="evenodd" fill-rule="evenodd" stroke-linejoin="round" stroke-miterlimit="2" version="1.1" viewBox="64.53 0 370.94 500" xml:space="preserve" xmlns="http://www.w3.org/2000/svg">
    <g transform="matrix(14.884 0 0 14.884 64.53 0)">
        <path d="m11.796 27.246c1.68-1.087 2.984-2.682 3.527-4.864h-0.936c-0.587 1.586-1.742 2.578-3.203 3.113-0.382-1.335-0.574-2.717-0.57-4.105 0-3.062 0.92-5.908 2.504-8.289h-1.934c-1.554 2.128-2.566 4.603-2.95 7.21-1.076-0.663-1.925-1.509-2.423-2.889h-1.024c0.586 2.14 1.724 3.614 3.273 4.77 0 0.164-0.01 0.328-0.01 0.491 0 4.183 1.585 8.004 4.193 10.91h4.62c-2.23-1.62-3.981-3.814-5.067-6.347z" fill="#9b947a" fill-rule="nonzero"/>
    </g>
    <g transform="matrix(14.884 0 0 14.884 64.53 0)">
        <path d="m17.222 13.843h7.7v-7.59h-7.7v7.59zm5.89-1.785h-4.079v-4.02h4.078v4.02h1e-3zm-10.423 11.169h8.156v-8.039h-8.156v8.039zm6.345-1.794h-4.534v-4.468h4.533v4.468h1e-3z" fill="#bab7b1" fill-rule="nonzero"/>
    </g>
    <g transform="matrix(14.884 0 0 14.884 64.53 0)">
        <path d="m9.512 13.843h6.345v-6.253h-6.345v6.253zm4.989-1.337h-3.623v-3.57h3.622v3.57h1e-3z" fill="#9b947a" fill-rule="nonzero"/>
    </g>
    <g transform="matrix(14.884 0 0 14.884 64.53 0)">
        <path d="m3.168 8.935h4.988v-4.915h-4.988v4.916-1e-3zm3.632-1.345h-2.267v-2.234h2.267v2.234z" fill="#bab7b1" fill-rule="nonzero"/>
    </g>
    <g transform="matrix(14.884 0 0 14.884 64.53 0)">
        <path d="m9.512 6.253h6.345v-6.253h-6.345v6.253zm4.989-1.337h-3.623v-3.58h3.622v3.58h1e-3zm-14.501 13.394h8.156v-8.038h-8.156v8.039-1e-3zm6.344-1.785h-4.533v-4.467h4.533v4.467z" fill="#85b940" fill-rule="nonzero"/>
    </g>
</svg>
