<svg class="hp_logo hp_h-logo" xmlns="http://www.w3.org/2000/svg" viewBox="0 0 225 51">

	<title>Libero.it</title>

	<path d="M14.36 50.38C7.26 50.38 0 48.88 0 37.75V3a2 2 0 0 1 2-2h3.28a2 2 0 0 1 2 2v34.75c0 4.28.62 5.9 7.12 5.9h12.36a1.44 1.44 0 0 1 1.45 1.51v3A1.65 
	1.65 0 0 1 27 49.8a107.34 107.34 0 0 1-12.64.58zm25.21-.45h-3.52a2 2 0 0 1-1.89-2v-45a1.9 1.9 0 0 1 1.89-2h3.52a1.9 1.9 0 0 1 1.89 2v45a2 2 0 0 1-1.89 
	2zM76 24.69a11 11 0 0 0 5.76-10v-1C81.79 4.91 75.24.5 62.32.5a93.3 93.3 0 0 0-10.24.5 2.79 2.79 0 0 0-2.72 3.1v42.6a2.75 2.75 0 0 0 2.74 3.1 75.85 75.85 
	0 0 0 10.54.58c12.88 0 19.41-4.8 19.41-14.26V35A11.33 11.33 0 0 0 76 24.69zM56.73 7.07h.73C59 7 60.7 6.91 62.32 6.91c8.87 0 12.17 1.82 12.17 6.7v1c0 
	4.64-2.83 6.89-8.66 6.89h-9.1zm18 29.05c0 5.65-3.39 7.85-12.1 7.85-1.36 0-2.76-.07-4.11-.14l-1.8-.09v-16h9.1c5.91 0 8.91 2.47 8.91 7.34zm28.17 14.26c-9.8 
	0-14.36-4-14.36-12.63V13.13C88.54 4.51 93.1.5 102.9.5c3.51 0 9.71.12 12.53.39a1.65 1.65 0 0 1 1.32 1.63v3.2a1.44 1.44 0 0 1-1.45 1.51H103c-6.51 0-7.12 
	1.62-7.12 5.9v8.15h18.88a2 2 0 0 1 2 2v2.43a2 2 0 0 1-2 2H95.84v10c0 4.28.61 5.9 7.12 5.9h12.34a1.44 1.44 0 0 1 1.45 1.51v3.26a1.64 1.64 0 0 1-1.27 
	1.63c-2.97.35-11 .37-12.58.37zm55.03-2.98l-11.14-18.61c6.15-2 9.65-6.79 9.65-13.35V15c0-9.49-6.44-14.5-18.65-14.5-3.41 
	0-8.41.18-11.33.52-.94.1-2.2.43-2.2 2.14v44.75a2 2 0 0 0 1.9 2h3.45a2 2 0 0 0 1.89-2v-18c2.85.11 4.34.16 6.29.16H139l11.24 18.7a2.22 2.22 0 0 0 2.29 
	1.18h4.09a1.54 1.54 0 0 0 1.58-1.57 1.75 1.75 0 0 0-.27-.98zm-20.14-23.82c-1.34 0-3.8 0-6.29-.11V7.35c1.71-.12 4.63-.12 6.29-.12 8.21 0 11.41 2.18 
	11.41 7.77v.45c0 5.92-3.09 8.13-11.41 8.13zM179.2.5c-11.65 0-18.07 7.39-18.07 20.82v8.24c0 13.43 6.42 20.82 18.07 20.82s18-7.39 18-20.82v-8.24C197.21 
	7.89 190.81.5 179.2.5zm10.64 29.06c0 9.48-3.48 14.09-10.64 14.09S168.5 39 168.5 29.56v-8.24c0-9.48 3.5-14.09 10.7-14.09s10.64 4.48 10.64 14.09z" 
	class="hp_c1" fill="#004987">
	
	</path>
	
	<path d="M213.84 50.5A11.17 11.17 0 1 1 225 39.33a11.18 11.18 0 0 1-11.16 11.17z" class="hp_c2" fill="#83ae30">
	</path>
	
</svg>
