<svg viewBox="0 0 133.7 153" version="1.1" xmlns="http://www.w3.org/2000/svg" xmlns:xlink="http://www.w3.org/1999/xlink" xml:space="preserve" style="fill-rule:evenodd;clip-rule:evenodd;stroke-linejoin:round;stroke-miterlimit:2;">
    <g id="Layer-1" transform="matrix(1,0,0,1,-39.427,-59.3311)">
        <path id="path58" d="M40.805,72.235C39.871,94.987 37.72,116.346 41.972,139.017C44.637,153.227 48.972,168.372 57.535,179.996C66.747,192.501 88.127,212.741 104.654,212.313C141.491,211.363 163.644,166.193 169.663,134.463C172.419,119.942 174.114,103.704 172.442,88.93C171.998,85.01 172.236,78.027 169.078,75.29C162.595,69.671 146.16,71.497 138.029,70.057C127.16,68.131 115.467,58.799 104.654,59.355C82.572,60.491 64.257,74.155 40.805,72.235M162.698,82.859C163.08,102.206 163.954,119.778 160.08,139.017C157.615,151.258 153.619,163.657 146.673,173.925C142.672,179.84 137.806,184.602 132.225,188.862C125.371,194.094 114.857,201.783 106.105,202.281C73.271,204.146 53.186,157.006 49.513,129.91C48.34,121.255 43.141,90.479 50.387,84.418C55.605,80.054 69.044,80.461 75.632,78.831C85.235,76.454 96.196,69.492 106.105,69.803C113.515,70.035 120.76,75.557 127.871,77.563C139.219,80.766 151.099,81.326 162.698,82.859M140.931,149.641C135.99,152.241 132.68,156.802 127.85,159.633C114.598,167.4 83.912,170.716 78.534,151.159C98.519,162.173 140.653,163.626 140.931,131.428C135.99,134.028 132.68,138.589 127.85,141.42C114.666,149.147 83.87,152.353 78.534,132.946C94.156,140.616 140.804,147.461 140.804,117.768C140.804,106.016 130.26,99.493 120.616,96.761C101.51,91.347 68.729,96.283 68.382,122.321C68.183,137.205 64.16,158.46 77.105,168.404C96.093,182.989 140.666,180.335 140.931,149.641M97.398,106.125C105.699,104.599 116.276,105.079 123.433,110.171C135.491,118.751 122.14,127.236 113.36,128.971C104.788,130.665 93.205,130.17 86.126,124.06C76.355,115.626 89.834,107.515 97.398,106.125Z" style="fill:rgb(8,163,210);fill-rule:nonzero;"/>
    </g>
</svg>