<svg version="1.1" id="Layer_1" xmlns="http://www.w3.org/2000/svg" xmlns:xlink="http://www.w3.org/1999/xlink" x="0px" y="0px"
	 viewBox="0 0 406 442.7" enable-background="new 0 0 406 442.7" xml:space="preserve">
<g>
	<path fill="#13A2D4" d="M404.6,82.3c0.6,2.7,0.8,5.7,0.7,9c-0.2,3.3-0.1,6.9,0.2,10.8c0.3,3.9,0.4,8,0.2,12.4
		c-0.2,4.4-0.1,8.8,0.2,13.3c-0.3,11.1-0.9,23.5-1.8,37.1c-0.9,13.7-2.7,28-5.2,43c-2.6,15-6,30.4-10.3,46.3
		c-4.3,15.9-9.9,31.8-16.9,47.7c-3,7.8-6.8,15.3-11.2,22.5c-4.4,7.2-9,14.1-13.9,20.7c-4.9,6.6-10.3,12.9-16.2,18.9
		c-5.9,6-12.1,11.9-18.5,17.5c-6.7,5.7-13.7,11.1-21.2,16.2c-7.4,5.1-15.6,10.1-24.6,15.1c-9,4.9-18.4,9.7-28.3,14.2
		c-9.9,4.5-20.9,9-33,13.5h0.5c-1.2,0.3-2.1,0.6-2.7,0.9c-0.6,0.3-1.2,0.5-1.8,0.7c-0.6,0.1-1.1,0.3-1.4,0.4
		c-0.3,0.1-0.6,0.2-0.9,0.2c0.3,0,0.2-0.1-0.2-0.2c-0.5-0.2-0.8-0.3-1.1-0.4c-0.3-0.2-0.9-0.4-1.8-0.7c-0.9-0.3-1.5-0.6-1.8-0.9
		c-11.2-4.2-21.6-8.6-31-13.3c-9.4-4.6-18.4-9.4-26.9-14.2c-8.5-4.8-16.5-9.8-23.9-15.1c-7.4-5.2-14.5-10.7-21.2-16.4
		c-6.4-5.4-12.5-11.2-18.2-17.3c-5.8-6.1-10.9-12.5-15.5-19.1c-4.6-6.6-9-13.5-13.2-20.7c-4.3-7.2-7.9-14.7-10.9-22.5
		c-7-15.9-12.5-31.8-16.4-47.7c-4-15.9-7.2-31.3-9.8-46.3c-2.6-15-4.3-29.2-5-42.7c-0.8-13.5-1.3-25.8-1.6-36.9
		c0.3-8.7,0.6-16.7,0.9-24.1C1.2,96.8,1.7,90.4,2.5,85c0.8-5.4,1.3-9.8,1.6-13.3c0.3-3.4,0.6-5.8,0.9-7H4.6l4.1-23.8l23.2,1.3
		c0.6,0,0.9,0.1,0.9,0.2c0,0.2,0.5,0.2,1.4,0.2h0.9c3,0,8.8-0.4,17.3-1.1c8.5-0.7,19.3-2.4,32.4-4.9c13.1-2.5,28.7-6.4,46.9-11.5
		C149.9,20.1,170.3,13,192.7,4l10-4l9.1,3.6c3.6,1.5,6.9,2.9,9.8,4c2.9,1.2,5.8,2.3,8.7,3.4c2.9,1.1,5.5,2.1,7.7,3.1
		c2.3,1.1,4.6,2,7.1,2.9l3.2,1.8c2.4,0.9,4.6,1.7,6.4,2.5c1.8,0.8,3.8,1.5,5.9,2.2c2.1,0.8,4.2,1.5,6.2,2.2c2,0.8,4.2,1.4,6.6,2
		c4.6,1.5,10.1,2.9,16.6,4c6.5,1.2,14,2.4,22.3,3.6c8.4,1.2,18.1,2.4,29.2,3.6c11.1,1.2,23.3,2.2,36.7,3.1l21.4,1.8l2.7,20.7h0.5
		v0.9c0.3,0.3,0.4,0.6,0.2,0.9c-0.2,0.3-0.2,0.6,0,0.9c0.1,0.3,0.2,0.6,0.2,0.9c0,0.3,0.1,0.6,0.5,0.9c-0.3,0.9-0.3,1.8,0,2.7
		c0.3,0.9,0.5,1.9,0.5,2.9c0,1.1,0.1,2.2,0.2,3.4C404.6,79.5,404.6,80.8,404.6,82.3z M203.7,415.2c9.7-3.9,19.1-7.9,28-12.1
		c9-4.2,17.2-8.5,24.8-13c7.6-4.5,14.9-9.1,21.9-13.7c7-4.6,13.2-9.4,18.7-14.2c6.1-5.1,11.5-10.3,16.4-15.7
		c4.9-5.4,9.5-11,13.9-16.9c4.4-5.8,8.3-11.9,11.6-18.2c3.3-6.3,6.7-12.9,10-19.8c6.1-15,11.2-29.9,15.3-44.8
		c4.1-14.8,7.2-29.3,9.3-43.4c2.1-14.1,3.6-27.6,4.6-40.5c0.9-12.9,1.2-24.4,0.9-34.6c0.3-8.1,0.2-15.5-0.2-22.3
		c-0.5-6.7-0.8-12.7-1.1-17.8c-0.3-5.1-0.8-9.2-1.4-12.4c-0.6-3.1-0.8-5.3-0.5-6.5c-17-1.2-31.3-2.5-42.8-3.8
		c-11.5-1.3-21.7-2.6-30.5-3.8c-8.8-1.2-16-2.4-21.6-3.6c-5.6-1.2-10.9-2.5-15.7-4c-2.4-0.6-4.9-1.3-7.5-2.2
		c-2.6-0.9-4.9-1.8-6.8-2.7c-2-0.9-4.2-1.8-6.6-2.7c-2.4-0.9-4.6-1.8-6.4-2.7l-4.1-1.3c-1.8-0.9-4-1.9-6.4-2.9c-2.4-1-4.9-2-7.3-2.9
		c-2.4-0.9-5.2-1.9-8.2-3.1c-3-1.2-6.1-2.4-9.1-3.6c-24.3,9.6-46,17.1-64.9,22.5c-19,5.4-35.6,9.4-49.9,12.1
		c-14.3,2.7-25.8,4.4-34.6,5.2c-8.8,0.8-15.2,1.1-19.1,1.1c-0.9,0.3-1.4,0.5-1.4,0.7c0,0.2-0.2,0.2-0.7,0.2c-0.5,0-0.5,0-0.2,0h-0.5
		v-0.9c-0.6,1.2-1,3.4-1.1,6.5c-0.2,3.1-0.5,7.2-1.1,12.1c-0.6,4.9-1,10.6-1.1,17.1c-0.2,6.5-0.4,13.7-0.7,21.8
		c0.3,10.5,0.8,22.1,1.4,34.9c0.6,12.8,2.1,26.2,4.6,40.3c2.4,14.1,5.5,28.6,9.3,43.6c3.8,15,9,29.8,15.7,44.5
		c2.4,6.9,5.5,13.6,9.3,20c3.8,6.5,7.7,12.6,11.8,18.4c4.1,5.8,8.7,11.4,13.9,16.6c5.2,5.3,10.5,10.4,15.9,15.5
		c6.1,5.1,12.5,10,19.1,14.6c6.7,4.7,14,9.2,21.9,13.5c7.9,4.4,16.2,8.6,24.8,12.8C183.9,407.3,193.4,411.4,203.7,415.2z
		 M311.7,274.4c0.3,2.4,0.1,4.8-0.5,7.2c-0.6,2.4-1.3,4.7-2.1,7c-0.8,2.2-1.8,4.4-3.2,6.5c-1.4,2.1-2.7,4-3.9,5.8
		c-2.7,3-5.2,5.6-7.5,7.9s-4.9,4.4-8,6.3c-3,2-5.9,3.8-8.7,5.4c-2.7,1.7-5.8,3.1-9.1,4.3c-5.2,2.1-10.6,4-16.4,5.8
		c-5.8,1.8-11.3,3.2-16.6,4.3c-5.3,1.1-10.9,1.9-16.6,2.5c-5.8,0.6-11.2,0.9-16.4,0.9c-5.8,0-11.3-0.3-16.6-0.9
		c-5.3-0.6-10.9-1.4-16.6-2.5c-5.8-1-11.4-2.4-16.9-4c-5.5-1.6-11.1-3.7-16.9-6.1c-2.4-1.2-5.2-2.5-8.4-3.8
		c-3.2-1.3-6.1-2.9-8.7-4.7c-2.6-1.8-5.2-3.8-8-6.1c-2.7-2.2-5-4.6-6.8-7c-2.1-2.4-4-4.8-5.7-7.2c-1.7-2.4-3.3-4.9-4.8-7.4
		c-1.5-2.5-2.7-5.2-3.4-8.1c-0.8-2.8-1.3-5.8-1.6-8.8l0.5-0.4c-0.3-4.2-0.4-8.5-0.2-13c0.1-4.5,0.1-8.9,0-13.3
		c-0.2-4.3-0.2-8.8,0-13.3c0.1-4.5,0.1-8.8-0.2-13c0.3-3.9,0.4-7.8,0.2-11.7c-0.2-3.9-0.2-7.8,0-11.7c0.1-3.9,0.1-7.7,0-11.5
		c-0.2-3.7-0.1-7.6,0.2-11.5l-0.5-0.4c0.3-2.4,0.7-4.8,1.1-7.2c0.5-2.4,1.3-4.7,2.5-7c1.2-2.2,2.3-4.3,3.4-6.3
		c1.1-1.9,2.3-3.8,3.9-5.6c0.6-1.8,1.8-3.5,3.6-5.2c1.8-1.6,3.6-3.2,5.5-4.7c1.8-1.5,3.8-2.9,5.9-4.3c2.1-1.3,3.9-2.6,5.5-3.8
		c6.7-4.5,13.4-8.3,20-11.5c6.7-3.1,13.7-5.6,21-7.4c7.3-1.8,14.5-3.1,21.6-3.8c7.1-0.7,14.7-1.1,22.6-1.1h0.5
		c5.8,0,11.3,0.3,16.6,0.9c5.3,0.6,10.8,1.5,16.4,2.7c5.6,1.2,11,2.6,16.2,4.3c5.2,1.7,10.5,3.7,15.9,6.1c2.1,1.2,4.6,2.6,7.3,4
		c2.7,1.5,5.2,3.1,7.3,4.7c2.1,1.7,4.4,3.5,6.8,5.4c2.4,2,4.6,4.1,6.4,6.5c2.4,2.1,4.4,4.4,5.9,7c1.5,2.6,3,5.2,4.3,7.9
		c1.4,2.7,2.2,5.4,2.5,8.1c0.3,2.7,0.6,5.4,0.9,8.1c-0.3,2.7-0.6,5.4-0.9,8.1c-0.3,2.7-1.1,5.3-2.5,7.9c-1.4,2.6-2.8,5.1-4.3,7.6
		c-1.5,2.6-3.5,5-5.9,7.4c-2.7,3-5.8,5.8-9.1,8.3c-3.3,2.6-6.7,4.8-10,6.7c-3.3,2-6.9,3.8-10.7,5.4c-3.8,1.7-7.4,3.2-10.7,4.7
		c-4.6,1.5-9,2.8-13.2,3.8c-4.3,1.1-8.7,1.9-13.2,2.5c-4.6,0.6-9,1.2-13.2,1.8c-4.3,0.6-8.7,1.2-13.2,1.8l0.5,1.8h-0.9l-0.5-1.8
		l-0.9-1.3c-1.5-0.3-3.3-0.5-5.2-0.7c-2-0.1-3.8-0.3-5.5-0.4c-1.7-0.1-3.6-0.4-5.7-0.7c-2.1-0.3-4-0.6-5.5-0.9
		c-5.2-0.6-10.1-1.3-14.8-2.2c-4.7-0.9-9.5-2.1-14.4-3.6c-4.9-1.5-9.6-3.3-14.1-5.4c-4.6-2.1-9.1-4.5-13.7-7.2
		c-0.3-0.3-0.7-0.5-1.1-0.7c-0.5-0.1-0.8-0.3-0.9-0.4c-0.2-0.1-0.5-0.3-0.9-0.4c-0.5-0.1-0.5-0.2-0.2-0.2h-0.5
		c0,0.3-0.1,0.6-0.2,0.9c-0.2,0.3-0.2,0.6-0.2,0.9c0,0.3-0.1,0.7-0.2,1.1c-0.2,0.4-0.1,1,0.2,1.6c-0.3,0.3-0.4,0.6-0.2,0.9
		c0.1,0.3,0.1,0.6,0,0.9c-0.2,0.3-0.2,0.5,0,0.7c0.1,0.2,0.1,0.4-0.2,0.7c0.3,0.9,0.4,1.9,0.2,2.9c-0.2,1.1-0.1,2,0.2,2.7
		c0.3,0.8,0.5,1.6,0.7,2.5c0.1,0.9,0.5,1.7,1.1,2.2c0.3,0.6,0.8,1.2,1.4,1.8c0.6,0.6,1.1,1.2,1.6,1.8c0.5,0.6,1.1,1.2,2.1,1.8
		c0.9,0.6,1.7,1.1,2.3,1.3c6.7,3.3,13,6.1,18.9,8.3c5.9,2.2,12.1,4.2,18.5,5.8c6.4,1.7,12.5,2.9,18.5,3.6c5.9,0.8,12.2,1.1,18.9,1.1
		c5.8,0,11.8-0.4,18.2-1.1c6.4-0.7,12.6-1.9,18.7-3.6c6.1-1.6,12.3-3.7,18.7-6.3c6.4-2.5,12.6-5.5,18.7-8.8c2.1-1.2,4-2.5,5.7-3.8
		c1.7-1.3,3.4-2.8,5.2-4.5c1.8-1.6,3.3-3.4,4.6-5.4c1.2-1.9,2.6-4,4.1-6.1c-0.3,0-0.3-0.1,0-0.2c0.3-0.1,0.4-0.4,0.2-0.7
		c-0.2-0.3-0.1-0.6,0.2-0.9c0.3-0.3,0.3-0.6,0-0.9c0.6-0.3,0.9-0.5,0.9-0.7c0-0.1,0.1-0.4,0.5-0.7c0.3-0.3,0.5-0.6,0.5-0.9
		c0-0.3,0.3-0.6,0.9-0.9c0-0.3,0.2-0.5,0.7-0.7c0.5-0.1,0.8-0.3,0.9-0.4c0.1-0.1,0.7-0.2,1.6-0.2h0.9c0.9,0,1.4,0.1,1.4,0.2
		c0,0.2,0.2,0.2,0.5,0.2c0.3,0,0.7,0.1,1.1,0.2c0.5,0.2,0.7,0.4,0.7,0.7c0,0.3,0.2,0.5,0.7,0.7c0.5,0.2,0.5,0.4,0.2,0.7
		c0.6,0.3,0.9,0.6,0.9,0.9c0,0.3,0.1,0.6,0.2,0.9c0.1,0.3,0.2,0.5,0.2,0.7c0,0.2,0.1,0.4,0.5,0.7c-0.3,0.6-0.3,1.1,0,1.6
		c0.3,0.4,0.4,0.9,0.2,1.3c-0.2,0.4-0.2,0.9,0,1.3c0.1,0.4,0.1,0.8-0.2,1.1c0.3,0.3,0.4,0.5,0.2,0.7c-0.2,0.2-0.2,0.4,0,0.7
		c0.1,0.3,0.1,0.5,0,0.7c-0.2,0.2-0.1,0.4,0.2,0.7c-0.3,3.6-0.8,6.9-1.4,9.9c-0.6,3-1.8,5.9-3.4,8.8c-1.7,2.9-3.4,5.5-5.2,7.9
		c-1.8,2.4-4,4.7-6.4,6.7c-4.3,4.2-9,7.9-14.1,11c-5.2,3.1-10.3,5.8-15.3,7.9c-5,2.1-10.3,3.9-15.9,5.4c-5.6,1.5-11,2.7-16.2,3.6
		c-3,0.3-5.9,0.6-8.4,0.9c-2.6,0.3-5.3,0.6-8.2,0.9c-2.9,0.3-5.6,0.5-8.2,0.7c-2.6,0.2-5.2,0.2-8,0.2c-6.4,0-13-0.4-19.8-1.3
		c-6.8-0.9-13.4-2.2-19.6-3.8c-6.2-1.6-12.6-3.7-19.1-6.3c-6.5-2.5-12.8-5.6-18.9-9.2c-0.6-0.3-1-0.5-1.1-0.7
		c-0.2-0.1-0.7-0.4-1.6-0.7h-0.9c0.3,0,0.4,0.2,0.2,0.4c-0.2,0.3-0.2,0.6-0.2,0.9c0,0.3-0.1,0.7-0.2,1.1c-0.2,0.4-0.1,1,0.2,1.6
		c-0.3,0.3-0.4,0.6-0.2,0.9c0.1,0.3,0.1,0.6,0,0.9c-0.2,0.3-0.2,0.5,0,0.7c0.1,0.2,0.1,0.4-0.2,0.7c0.3,0.9,0.4,1.9,0.2,2.9
		c-0.2,1.1-0.1,2,0.2,2.7c0.3,0.8,0.5,1.5,0.7,2.2c0.1,0.8,0.5,1.4,1.1,2c0.3,0.9,0.8,1.7,1.4,2.2c0.6,0.6,1.1,1.2,1.6,1.8
		c0.5,0.6,1.1,1.1,2.1,1.6c0.9,0.4,1.7,1,2.3,1.6c6.4,3,12.6,5.7,18.7,8.1c6.1,2.4,12.2,4.4,18.5,6.1c6.2,1.7,12.4,2.9,18.5,3.6
		c6.1,0.8,12.3,1.1,18.7,1.1c5.8,0,11.8-0.4,18-1.1c6.2-0.7,12.3-1.9,18.2-3.4c5.9-1.5,12-3.4,18.2-5.8c6.2-2.4,12.4-5.2,18.5-8.5
		c2.4-0.9,4.6-2.1,6.6-3.6c2-1.5,3.9-3.1,5.9-4.9c2-1.8,3.6-3.8,5-6.1c1.4-2.2,2.8-4.6,4.3-7c-0.3,0-0.3-0.1,0-0.4
		c0.3-0.3,0.4-0.5,0.2-0.7c-0.2-0.1-0.1-0.4,0.2-0.7c0.3-0.3,0.3-0.6,0-0.9c0.6,0,0.9-0.1,0.9-0.4c0-0.3,0.1-0.6,0.5-0.9
		c0.3-0.3,0.5-0.6,0.5-0.9c0-0.3,0.3-0.6,0.9-0.9c0.9-0.3,1.4-0.5,1.4-0.7c0-0.1,0.5-0.2,1.4-0.2h0.9c0.6,0,0.9,0.1,0.9,0.2
		c0,0.2,0.3,0.2,0.9,0.2h-0.5c0.6,0,1,0.1,1.1,0.2c0.1,0.2,0.4,0.3,0.7,0.4c0.3,0.2,0.5,0.3,0.7,0.4c0.1,0.2,0.4,0.4,0.7,0.7
		c0,0.3,0.1,0.5,0.5,0.7c0.3,0.2,0.4,0.4,0.2,0.7c-0.2,0.3-0.1,0.6,0.2,0.9c0.3,0.3,0.3,0.4,0,0.4c0.6,0.6,0.8,1.1,0.7,1.6
		c-0.2,0.4-0.2,0.8,0,1.1c0.1,0.3,0.2,0.7,0.2,1.1s0.1,0.8,0.5,1.1c-0.3,0.3-0.4,0.7-0.2,1.1c0.1,0.4,0.1,0.8,0,1.1
		c-0.2,0.3-0.2,0.7,0,1.1C312.1,273.8,312,274.1,311.7,274.4z M134.4,158.8c-0.3,0.6-0.7,1.3-1.1,2.2c-0.5,0.9-0.8,1.7-0.9,2.5
		c-0.2,0.8-0.4,1.6-0.7,2.5c-0.3,0.9-0.3,1.8,0,2.7c-0.3,1.5-0.2,3.1,0.5,4.9c0.6,1.8,1.4,3.6,2.5,5.4c1.1,1.8,2.6,3.5,4.6,5.2
		c2,1.7,4,3.4,6.2,5.2c4.9,2.7,9.5,5,13.9,7c4.4,2,9.1,3.5,14.1,4.5c5,1.1,9.9,1.8,14.8,2.2c4.9,0.4,10,0.8,15.5,1.1
		c4.9-0.3,9.9-0.7,15-1.1c5.2-0.4,10.1-1.3,14.8-2.5c4.7-1.2,9.5-2.7,14.4-4.5c4.9-1.8,9.4-4,13.7-6.7c2.7-1.8,4.9-3.5,6.4-5.2
		c1.5-1.6,3-3.4,4.3-5.2c1.4-1.8,2.3-3.5,2.7-5.2c0.5-1.6,0.8-3.4,1.1-5.2c-0.3-1.5-0.7-3.1-1.1-4.7c-0.5-1.6-1.3-3.3-2.5-4.9
		c-1.2-1.6-2.7-3.2-4.3-4.7c-1.7-1.5-3.9-3-6.6-4.5c-4.3-2.7-8.9-5-13.9-7c-5-1.9-9.9-3.6-14.6-4.9c-4.7-1.3-9.6-2.4-14.6-3.1
		c-5-0.7-9.8-1.1-14.4-1.1c-5.2,0-10.1,0.4-14.8,1.1c-4.7,0.8-9.6,1.7-14.6,2.9c-5,1.2-9.8,2.8-14.4,4.7c-4.6,2-9.4,4.3-14.6,7
		c-0.9,0.6-2.1,1.3-3.4,2c-1.4,0.8-2.4,1.6-3.2,2.5c-0.8,0.9-1.6,1.7-2.5,2.5c-0.9,0.8-1.5,1.6-1.8,2.5H134.4z"/>
</g>
<g>
</g>
<g>
</g>
<g>
</g>
<g>
</g>
<g>
</g>
<g>
</g>
<g>
</g>
<g>
</g>
<g>
</g>
<g>
</g>
<g>
</g>
<g>
</g>
<g>
</g>
<g>
</g>
<g>
</g>
</svg>
