<svg
   xmlns:dc="http://purl.org/dc/elements/1.1/"
   xmlns:cc="http://creativecommons.org/ns#"
   xmlns:rdf="http://www.w3.org/1999/02/22-rdf-syntax-ns#"
   xmlns:svg="http://www.w3.org/2000/svg"
   xmlns="http://www.w3.org/2000/svg"
   xmlns:sodipodi="http://sodipodi.sourceforge.net/DTD/sodipodi-0.dtd"
   xmlns:inkscape="http://www.inkscape.org/namespaces/inkscape"
   viewBox="36 54 140 160"
   version="1.1"
   id="svg8"
   inkscape:version="1.0.2 (e86c870879, 2021-01-15)"
   sodipodi:docname="trustedcoin.svg">
  <defs
     id="defs2" />
  <sodipodi:namedview
     id="base"
     pagecolor="#ffffff"
     bordercolor="#666666"
     borderopacity="1.0"
     inkscape:pageopacity="0.0"
     inkscape:pageshadow="2"
     inkscape:zoom="0.35"
     inkscape:cx="400"
     inkscape:cy="560"
     inkscape:document-units="mm"
     inkscape:current-layer="layer1"
     inkscape:document-rotation="0"
     showgrid="false"
     inkscape:window-width="1458"
     inkscape:window-height="938"
     inkscape:window-x="50"
     inkscape:window-y="27"
     inkscape:window-maximized="0" />
  <metadata
     id="metadata5">
    <rdf:RDF>
      <cc:Work
         rdf:about="">
        <dc:format>image/svg+xml</dc:format>
        <dc:type
           rdf:resource="http://purl.org/dc/dcmitype/StillImage" />
        <dc:title></dc:title>
      </cc:Work>
    </rdf:RDF>
  </metadata>
  <g
     inkscape:label="Layer 1"
     inkscape:groupmode="layer"
     id="layer1">
    <path
       style="fill:#08a3d2;stroke:none;stroke-width:1.48406"
       d="m 40.805218,72.234915 c -0.93393,22.751654 -3.085479,44.110905 1.166686,66.781815 2.665385,14.2101 7.000262,29.35546 15.563507,40.97974 9.211597,12.50444 30.591268,32.74433 47.118309,32.31632 36.83682,-0.95012 58.99007,-46.11997 65.00939,-77.84937 2.75564,-14.52109 4.45053,-30.75909 2.77886,-45.533055 -0.44404,-3.92054 -0.20606,-10.90304 -3.36366,-13.64003 -6.48337,-5.61908 -22.91827,-3.79336 -31.04923,-5.23372 -10.86876,-1.92529 -22.56232,-11.25798 -33.37536,-10.70165 -22.081571,1.13608 -40.396223,14.79963 -63.848502,12.87995 m 121.892602,10.62438 c 0.38178,19.346545 1.25665,36.919115 -2.61779,56.157435 -2.46542,12.24156 -6.46132,24.64005 -13.40702,34.90867 -4.00084,5.91489 -8.8674,10.67659 -14.44834,14.93636 -6.85414,5.23174 -17.36737,12.92136 -26.11985,13.41874 -32.833365,1.86518 -52.918943,-45.27488 -56.591828,-72.37038 -1.173216,-8.65507 -6.37237,-39.430861 0.874434,-45.492075 5.217439,-4.36389 18.656968,-3.95713 25.244246,-5.58736 9.603686,-2.37698 20.564444,-9.33868 30.473148,-9.02814 7.4105,0.23222 14.65484,5.75401 21.76654,7.76095 11.34806,3.2025 23.22751,3.76255 34.82646,5.2958 M 140.93128,149.6411 c -4.94085,2.60024 -8.25096,7.16099 -13.08125,9.99193 -13.25219,7.76718 -43.938513,11.08305 -49.316153,-8.47416 19.985159,11.0146 62.118793,12.4671 62.397403,-19.73098 -4.94085,2.60024 -8.25096,7.16098 -13.08125,9.99192 -13.1837,7.72711 -43.979579,10.93339 -49.316153,-8.47415 15.621696,7.67003 62.269713,14.51502 62.269713,-15.17769 0,-11.75193 -10.54328,-18.274841 -20.18774,-21.007431 -19.10594,-5.41357 -51.886781,-0.47779 -52.23403,25.560741 -0.198656,14.88414 -4.221692,36.13866 8.723302,46.08232 18.988254,14.58561 63.560468,11.93179 63.826158,-18.7625 M 97.398206,106.12472 c 8.300314,-1.52566 18.877984,-1.04605 26.034814,4.04622 12.05765,8.57964 -1.29293,17.06457 -10.07268,18.79998 -8.57254,1.69444 -20.155529,1.19904 -27.233861,-4.91058 -9.771867,-8.43424 3.707567,-16.5452 11.271727,-17.93562 z"
       id="path58" />
  </g>
</svg>
