<svg xmlns="http://www.w3.org/2000/svg" viewBox="0 0 473.8 473.9"><path d="M155.5 153.6h165.1v146.2H155.5V153.6z" fill="#fff"/><path d="M220.8 473.7c-51-4.6-92.1-20.5-130.9-50.6-9.7-7.5-30.2-27.9-38.3-38.1-27.7-34.8-44.9-76-50.3-120.5-1.7-14-1.7-41.7 0-55.1C8 155.5 31 108 68.7 70.1 81.3 57.4 90.1 50 103.5 40.9 136.3 18.6 171 5.8 211.9.9c9.9-1.2 43.2-1.2 52.6 0 58.1 7.3 111 34.6 148.6 76.8 33.4 37.4 52.4 79.1 59.4 129.9 1.6 11.6 1.8 44 .4 55.5-4.8 38.8-17 72.7-37.5 103.9-38.7 58.8-99.4 96.6-169.5 105.5-8.5 1-38 1.9-45.1 1.2zm42.5-178.9c.2-.6.4-20.1.4-43.3v-42.2l25.9-.2 26-.2.2-25.2.2-25.2-78.2.2-78.2.2-.2 24.4c-.2 19.8 0 24.6.8 25.2.7.6 9 .9 26.7 1l25.7.2.2 42.2c.1 23.2.3 42.6.5 43.1.3.7 5.9.9 25 .9 21.8.1 24.6-.1 25-1.1z" fill="#c4d201"/><path d="M162.9 345.2c-5.9-1.9-11.5-7.3-15-14.5-1.3-2.7-10.7-31.9-20.9-64.8s-19.6-62.9-20.8-66.7c-1.8-5.5-2.2-7.9-2.2-12.9 0-6.2 1.7-12.7 4.3-17.1.7-1.1 30.1-39.7 65.3-85.6L237.7 0l12.2.4c24.7.9 49.8 6.2 74.4 16 54.5 21.6 98.5 62 125 114.9 4.8 9.7 10.6 23.6 10.6 25.6 0 1.4-125.1 171-131.4 178.1-4.9 5.5-8.7 8.2-14.5 10.2-4.3 1.5-5.5 1.5-75.5 1.4-69.3.1-71.1.1-75.6-1.4zm99.7-49c1-.4 1.1-4.9 1.1-43.3 0-23.6.1-42.9.2-43s11.9-.3 26.3-.5l26.1-.4v-50.8H159.6l-.2 25.6-.2 25.6 26.3.2 26.3.2.2 42.6c.2 39 .3 42.7 1.4 43.5.9.7 7 .9 24.6.9 13-.1 24-.3 24.6-.6z" fill="#050605"/></svg>