<svg xmlns="http://www.w3.org/2000/svg">
<path fill-rule="evenodd" clip-rule="evenodd" d="M368.768 400C399.728 400 417.278 364.16 398.448 339.52L389.838 328.64C383.966 321.007 376.425 314.819 367.794 310.548C359.162 306.278 349.669 304.038 340.038 304H263.148C231.228 304 201.228 289.6 181.118 263.68C169.88 248.942 162.723 231.503 160.368 213.12C156.538 180.48 167.398 149.12 190.058 126.4C199.678 116.734 211.117 109.071 223.716 103.853C236.314 98.6348 249.822 95.9657 263.458 95.9997H327.288C332.172 96.023 336.993 94.9071 341.369 92.7407C345.745 90.5742 349.556 87.4169 352.498 83.5197L355.698 79.3597C360.478 73.2797 356.018 63.9997 348.038 63.9997H263.448C225.468 63.9997 189.728 79.6797 163.548 108.16C141.848 131.52 129.088 162.56 127.808 194.56C126.98 213.34 130.072 232.086 136.886 249.606C143.701 267.126 154.089 283.035 167.388 296.32C193.238 322.24 227.068 336.32 263.448 336.32H340.048C349.948 336.32 359.198 340.8 365.258 348.8L368.458 352.96C369.547 354.38 370.215 356.078 370.386 357.86C370.557 359.641 370.223 361.435 369.423 363.037C368.624 364.638 367.39 365.982 365.864 366.916C364.337 367.851 362.578 368.337 360.788 368.32H263.448C218.768 368.32 176.648 350.72 145.048 319.04C79.6185 253.44 79.6185 146.88 145.048 81.2797C176.648 49.5997 218.768 31.9997 263.448 31.9997H376.108C380.993 32.0246 385.817 30.9094 390.195 28.7429C394.573 26.5764 398.385 23.4183 401.328 19.5197L404.518 15.3597C409.298 9.2797 404.838 -0.000305176 396.848 -0.000305176H263.128C209.828 -0.000305176 159.728 20.7997 122.068 58.5597C44.1885 136.64 44.1885 263.36 122.068 341.44C140.53 360.057 162.507 374.821 186.723 384.874C210.938 394.927 236.909 400.068 263.128 400H368.768V400ZM93.3485 42.2397C97.1785 38.3997 93.9885 31.6797 88.5685 31.6797L72.6085 31.3597C64.6285 31.3597 56.9685 35.1997 52.1785 41.5997C18.2727 87.1976 0.0213137 142.538 0.148487 199.36C0.148487 257.6 18.6585 312.64 52.4885 357.76C57.2785 364.16 64.9385 367.68 72.9185 367.68H88.8685C94.6185 367.68 97.4885 361.28 93.6685 357.12C54.0885 314.88 32.0685 259.2 32.0685 199.68C32.0685 140.48 53.7685 85.1197 93.3385 42.2397H93.3485Z" fill="#FF7E62"/>
</svg>
