<svg width="92" height="82" xmlns="http://www.w3.org/2000/svg" xmlns:xlink="http://www.w3.org/1999/xlink"><defs><path id="a" d="M0 0h92v82H0z"/></defs><g fill="none" fill-rule="evenodd"><mask id="b" fill="#fff"><use xlink:href="#a"/></mask><path d="M82.435 40.18c-1.23 4.686-3.225 9.257-5.927 13.585a50.75 50.75 0 01-5.8 7.613c2.434-9.933.786-22.102-5.186-33.513a1.504 1.504 0 00-2.158-.588L44.766 38.91a1.524 1.524 0 00-.484 2.098l2.727 4.368a1.52 1.52 0 002.095.485l12.054-7.54a46.561 46.561 0 011.075 3.5c1.16 4.415 1.592 8.723 1.284 12.806-.573 7.6-3.664 13.522-8.704 16.674-2.517 1.575-5.44 2.409-8.619 2.5-.069-.002-.14 0-.208 0-.06 0-.12-.002-.179 0-3.178-.091-6.103-.925-8.62-2.5-5.04-3.152-8.131-9.074-8.704-16.674-.307-4.083.125-8.391 1.284-12.807 1.231-4.686 3.225-9.256 5.927-13.585 2.702-4.328 5.931-8.126 9.6-11.287 3.455-2.98 7.134-5.257 10.935-6.77 7.075-2.816 13.746-2.63 18.786.522 5.04 3.152 8.13 9.074 8.704 16.674.308 4.083-.124 8.391-1.284 12.806M15.492 53.765c-2.702-4.328-4.696-8.899-5.927-13.585-1.16-4.415-1.591-8.723-1.284-12.806.573-7.6 3.664-13.522 8.704-16.674 5.04-3.153 11.711-3.338 18.786-.522 1.065.424 2.12.917 3.163 1.462-3.771 3.42-7.236 7.531-10.183 12.253-7.805 12.503-10.178 26.39-7.457 37.487a50.771 50.771 0 01-5.802-7.615M79.353 3.75C69.792-2.231 57.205-.81 45.997 6.255 34.79-.808 22.207-2.23 12.647 3.75c-15.105 9.448-16.94 33.786-4.098 54.358 9.47 15.17 24.273 24.055 37.452 23.89 13.178.164 27.981-8.721 37.45-23.89 12.842-20.572 11.008-44.91-4.098-54.358" fill="#1BDBDB" mask="url(#b)"/></g></svg>