<svg xmlns="http://www.w3.org/2000/svg" viewBox="0 0 192.76 192.76"><g fill-rule="evenodd" clip-rule="evenodd"><path fill="#fff" d="M0 0h192.756v192.756H0V0z"/><path d="M39.7 82.799c-5.253-18.913-2.206-36.459-2.206-57.684 18.913-9.351 37.72-10.191 58.103-10.191 17.548 0 42.448 2.207 57.474 10.191 1.576 19.963 2.416 37.51-2.732 60.205-5.043 22.695-19.963 54.111-54.005 77.227-37.196-24.272-49.279-53.692-56.634-79.748z" fill="#cf4037"/><path d="M57.457 55.061L39.174 74.918c4.098 19.123 15.445 59.048 56.948 86.052 41.188-28.369 52.219-67.14 54.635-86.472l-17.756-19.543-19.648 19.963-18.176-19.752-18.072 19.542-19.648-19.647zM65.862 34.782c-.21 0-.734-.105 0-.316.525 0 1.261 0 2.207 1.367.525-.21 1.576-1.892 2.731-1.367-.104 1.682-3.677 8.09-4.098 8.722-1.575-.946-10.717-1.366-9.876-1.366.736 0-8.616.21-9.877 1.366-.42-.946-4.098-7.04-4.098-9.036 1.051-.42 2.312 1.155 2.731 1.471.946-1.471 1.787-1.471 2.102-1.471.841.314.42.525.105.63-4.413 3.782 2.102 7.774 3.363 3.782 5.883.526 4.413-4.098 2.941-4.833-1.051-.315-.315-.42 0-.42.525-.21 1.156-.21 1.156.105 0-2.417.316-4.203 1.577-4.833 1.365.841 1.681 2.417 1.365 4.833.316-.315.946-.105 1.366-.105.21.105 1.156.105.21.63-1.576.525-2.941 5.359 2.732 4.623 1.367 3.993 8.197-.524 3.363-3.782zm-3.782 4.833l1.471 1.997-3.047-.421 1.576-1.576zm-10.402 0l-1.366 1.997 3.152-.21-1.786-1.787zm5.149-2.206l2.311 3.782H54.83l1.997-3.782z" fill="#fff"/><path d="M49.367 47.706c-.631-1.051-1.366-2.837-1.787-3.573 1.577-1.156 7.565-1.261 9.562-1.366 3.257 0 7.671.525 9.246 1.366 0-.315-.945 2.837-1.365 3.783-2.416-.946-5.989-1.051-8.091-1.051-2.522-.21-5.569.105-7.565.841zm14.709-3.153c.63 0 1.051.421 1.051 1.051 0 .631-.421 1.051-1.051 1.051s-1.051-.42-1.051-1.051c0-.63.421-1.051 1.051-1.051zm-3.467-.735c.63 0 1.051.42 1.051 1.051s-.42 1.05-1.051 1.05-1.051-.419-1.051-1.05.42-1.051 1.051-1.051zm-3.257-.316c.524 0 1.156.63 1.156 1.156 0 .525-.631 1.051-1.156 1.051-.525 0-1.051-.525-1.051-1.051 0-.525.526-1.156 1.051-1.156zm-3.573.316c.63 0 1.156.42 1.156 1.051 0 .735-.525 1.05-1.156 1.05-.525 0-1.051-.315-1.051-1.05a1.054 1.054 0 0 1 1.051-1.051zm-3.467.735c.42 0 .841.315.841 1.051 0 .631-.42 1.051-.841 1.051-.631 0-1.155-.42-1.155-1.051 0-.735.524-1.051 1.155-1.051z" fill="#fff"/><path d="M57.141 47.706c4.308 0 7.671.42 7.671 1.051 0 .42-3.363.735-7.671.735-4.098 0-7.565-.314-7.565-.735 0-.631 3.467-1.051 7.565-1.051zM142.037 34.782c-.525 0-.945-.105 0-.316.42 0 1.367 0 1.996 1.367.422-.21 1.787-1.892 2.943-1.367-.211 1.682-3.572 8.09-4.098 8.722-1.576-.946-10.822-1.366-9.982-1.366.842 0-8.404.21-9.771 1.366-.42-.946-4.098-7.04-4.307-9.036 1.365-.42 2.521 1.155 2.941 1.471.945-1.471 1.785-1.471 1.996-1.471.736.314.525.525.211.63-4.729 3.782 2.1 7.774 3.256 3.782 5.99.526 4.414-4.098 2.943-4.833-1.051-.315-.211-.42.104-.42.211-.21 1.156-.21 1.156.105 0-2.417 0-4.203 1.471-4.833 1.262.841 1.682 2.417 1.471 4.833.211-.315.945-.105 1.367-.105.105.105.945.105 0 .63-1.576.525-2.732 5.359 2.941 4.623 1.052 3.993 8.091-.524 3.362-3.782zm-3.781 4.833l1.471 1.997-3.047-.421 1.576-1.576zm-5.36-2.206l2.102 3.782h-3.992l1.89-3.782zm-5.359 2.206l-1.365 1.997 3.469-.21-2.104-1.787z" fill="#fff"/><path d="M125.438 47.706c-.631-1.051-1.367-2.837-1.787-3.573 1.682-1.156 7.566-1.261 9.562-1.366 3.361 0 7.773.525 9.244 1.366 0-.315-.945 2.837-1.365 3.783-2.416-.946-5.883-1.051-8.09-1.051-2.522-.21-5.568.105-7.564.841zm14.708-3.153c.631 0 1.156.421 1.156 1.051 0 .631-.525 1.051-1.156 1.051-.525 0-1.051-.42-1.051-1.051a1.055 1.055 0 0 1 1.051-1.051zm-3.466-.735c.631 0 1.051.42 1.051 1.051s-.42 1.05-1.051 1.05-1.051-.419-1.051-1.05.42-1.051 1.051-1.051zm-3.153-.316c.42 0 1.051.63 1.051 1.156 0 .525-.631 1.051-1.051 1.051a1.053 1.053 0 0 1-1.051-1.051c.001-.525.42-1.156 1.051-1.156zm-3.677.316c.631 0 1.262.42 1.262 1.051 0 .735-.631 1.05-1.262 1.05-.42 0-1.051-.315-1.051-1.05 0-.631.631-1.051 1.051-1.051zm-3.467.735c.42 0 .945.315.945 1.051 0 .631-.525 1.051-.945 1.051-.631 0-1.051-.42-1.051-1.051 0-.735.42-1.051 1.051-1.051z" fill="#fff"/><path d="M133.318 47.706c4.201 0 7.564.42 7.564 1.051 0 .42-3.363.735-7.564.735-4.1 0-7.672-.314-7.672-.735 0-.631 3.573-1.051 7.672-1.051zM82.673 23.014s2.627 1.051 5.043.21c2.837-1.366 5.254-1.891 7.25-.945V46.13c-1.681-.63-3.572-.42-6.304.21-2.417.735-3.993.735-5.989.315V23.014zm7.776 17.547c0-.841.525-1.051.945-1.051.315 0 .841.21.841 1.051 0 .945-.525 1.155-.841 1.155-.42 0-.945-.21-.945-1.155zm-.63 0c0 1.576 1.155 1.786 1.575 1.786.421 0 1.472-.21 1.472-1.786 0-1.471-1.051-1.576-1.472-1.576-.42 0-1.575.105-1.575 1.576zm-1.262.84l-1.261-2.312h-.735v3.257h.631v-2.312l1.261 2.312h.735V39.09h-.631v2.311zm-3.362 1.156h.631v-3.152h-.631v3.152zm8.196-10.507h-.946l-.525 2.522-.63-2.522h-.945v3.153h.63v-2.627l.63 2.627h.525l.631-2.627v2.627h.631V32.05h-.001zm-5.989 1.891c0-.841.525-1.156.945-1.156.21 0 .841.315.841 1.156 0 .946-.631 1.156-.841 1.156-.42 0-.945-.21-.945-1.156zm-.631 0c0 1.471 1.051 1.681 1.576 1.681.315 0 1.472-.21 1.472-1.681s-1.156-1.681-1.472-1.681c-.525.001-1.576.21-1.576 1.681zm-2.417-.735h.63c.315 0 .736.105.736 1.051 0 .526-.21 1.051-.736 1.051h-.63v-2.102zm-.735 2.627h1.366c1.155 0 1.366-.946 1.366-1.577 0-.63-.211-1.576-1.261-1.576h-1.471v3.153zm6.094-7.67l-1.26-2.207h-.736v3.153h.631v-2.207l1.261 2.207h.736v-3.153h-.631v2.207h-.001zm-3.467 1.05h.525v-3.152h-.525v3.152zM81.623 23.224l-1.997 1.786v23.851l1.997-2.101V23.224zM80.362 49.281l2.207-1.785c1.681.42 5.148-.21 6.725-.526 2.732-.315 3.888-.84 5.884 0-1.156.526-1.786 1.471-1.786 2.311h-13.03zM110.727 49.281l-2.205-1.785c-1.893.42-5.045-.21-6.725-.526-2.943-.315-3.889-.84-5.674 0 .946.526 1.471 1.471 1.366 2.311h13.238zM109.15 22.909l2.102 2.101v23.641l-2.102-1.996V22.909zM108.311 23.014s-2.732 1.051-5.148.21c-2.941-1.366-5.254-1.891-6.934-.945V46.13c1.471-.63 3.256-.42 5.883.21 2.627.735 4.098.735 6.199.315V23.014zm-9.666 19.228h1.471c1.051 0 1.26-1.051 1.26-1.681 0-.631-.209-1.576-1.26-1.576h-1.471v3.257zm.734-2.627h.631c.316 0 .631 0 .631.946 0 .524-.105 1.155-.631 1.155h-.631v-2.101zm2.838 1.47c0 1.471 1.154 1.682 1.576 1.682.42 0 1.576-.21 1.576-1.682 0-1.471-1.156-1.681-1.576-1.681-.422.001-1.576.211-1.576 1.681zm.736 0c0-.84.418-1.155.84-1.155.314 0 .84.315.84 1.155 0 .946-.525 1.157-.84 1.157-.422 0-.84-.21-.84-1.157zm-2.523-6.513h1.473v-.63h-1.473v-.63h1.682v-.525H99.8v3.152h.631v-1.367h-.001zm2.418 1.47h.734v-3.257h-.734v3.257zm-2.944-8.93c-.105-.525-.42-1.156-1.365-1.156-.84 0-1.471.631-1.471 1.681 0 1.157.631 1.681 1.471 1.681.736 0 1.26-.42 1.365-1.155h-.734c0 .42-.316.631-.631.631-.631 0-.84-.525-.84-1.157 0-.84.525-1.05.84-1.05.525 0 .631.315.631.525h.734zm.526.946c0 1.47 1.156 1.681 1.576 1.681s1.576-.211 1.576-1.681c0-1.471-1.156-1.681-1.576-1.681s-1.576.209-1.576 1.681zm.736 0c0-.946.42-1.156.84-1.156.316 0 .842.21.842 1.156 0 .84-.525 1.156-.842 1.156-.42-.001-.84-.316-.84-1.156zm4.832.63l-1.26-2.207h-.736v3.152h.631v-2.206l1.365 2.206h.631v-3.152h-.631v2.207zM95.597 47.496c-.84.945-1.26.945-1.05 1.785h1.89c.316-.841 0-1.365-.84-1.785z" fill="#fff"/><path d="M55.041 91.729c.315-.63.945-2.417 1.155-3.046-.21-.631-.84-1.156-1.471-1.156.315-.631 1.365-1.576 1.261-1.996-.315-.631-.841-.42-1.892-1.051.315-.735 1.261-1.261 1.682-1.261.63-.106.63-1.051 1.681-1.471 1.051-.63 2.102-.63 3.362-.63 1.787.105 6.304 1.365 5.149 6.934 2.732 5.674 12.398-1.891 15.76-1.891-.63 1.366-1.366 2.522-2.102 3.783.945.63 2.102 0 3.152 0-1.051 3.047-2.837 4.413-4.413 5.568 1.576 5.044 7.355 3.046 12.503 2.417-.63 1.68-2.731 1.996-3.677 3.256 1.681 1.787 3.677 4.203 4.938 6.83-2.311-1.576-7.04-3.258-8.721-3.783-3.047-1.26-9.352-1.26-12.397 0 .525 1.156 1.786 1.787 2.731 2.523-1.577 3.047-4.729 1.26-6.62.629-1.576 1.262-4.517 1.262-5.253.631 0 0 0-.734.945-1.576.525-.734-1.891-1.051-2.626-2.207 0-1.051 1.365 0 1.996-1.26-1.575-3.046-8.09-3.783-7.143-11.243zm4.412-8.825c.315 0 .631.315.631.63s-.315.63-.631.63c-.315 0-.63-.315-.63-.63s.315-.63.63-.63zM99.17 92.675c.209-.63.734-2.417 1.26-3.047-.525-.63-1.051-1.366-1.576-1.366.316-.63 1.367-1.366 1.051-1.891-.105-.525-.525-.42-1.576-1.051.211-.735 1.051-1.156 1.576-1.366.631 0 .631-.841 1.576-1.472 1.051-.419 2.312-.419 3.469-.63 1.68.315 6.408 1.576 5.146 7.145C112.828 94.46 122.6 87 125.963 87c-.631 1.261-1.576 2.627-2.207 3.783.945.631 2.207 0 3.258 0-1.051 3.047-2.943 4.413-4.414 5.674 1.471 4.833 7.25 3.046 12.398 2.417-.525 1.682-2.73 1.785-3.781 3.152 1.891 1.891 3.781 4.307 5.043 6.828-2.312-1.471-7.145-3.15-8.617-3.781-3.256-1.156-9.455-1.156-12.607 0 .525 1.26 1.891 1.891 2.838 2.416-1.682 3.258-4.729 1.365-6.516.84-1.68 1.156-4.623 1.156-5.359.525 0 0 0-.84.947-1.471.629-.945-1.787-1.051-2.627-2.311 0-1.156 1.26 0 1.996-1.156-1.682-3.256-7.987-3.885-7.145-11.241zm4.307-8.825c.422 0 .525.105.525.63 0 .315-.104.525-.525.525-.314 0-.629-.21-.629-.525 0-.525.314-.63.629-.63zM77.946 123.986c.314-.631.945-2.416 1.365-3.047-.42-.631-1.051-1.365-1.576-1.365.21-.631 1.261-1.367 1.156-1.787-.315-.631-.631-.525-1.892-1.156.525-.734 1.261-1.156 1.892-1.365.525 0 .525-.84 1.471-1.471 1.051-.42 2.312-.42 3.468-.631 1.681.211 6.198 1.576 5.043 7.145 2.731 5.463 12.608-1.996 15.971-1.996-.631 1.262-1.576 2.627-2.207 3.887.945.527 2.207 0 3.047 0-.84 2.943-2.73 4.203-4.203 5.568 1.473 4.834 7.25 3.049 12.398 2.418-.525 1.682-2.73 1.785-3.783 3.047 1.893 1.996 3.783 4.412 5.045 6.934-2.312-1.471-7.145-3.15-8.617-3.781-3.256-1.156-9.455-1.156-12.607 0 .525 1.26 1.786 1.891 2.837 2.416-1.681 3.258-4.728 1.365-6.725.631-1.471 1.367-4.307 1.367-5.253.734 0 0 0-.84 1.051-1.471.63-.945-1.786-1.051-2.627-2.311 0-1.156 1.261 0 1.996-1.156-1.682-3.258-8.196-3.782-7.25-11.243zm4.517-8.826c.21 0 .526.105.526.631 0 .105-.316.42-.526.42-.42 0-.735-.314-.735-.42 0-.525.315-.631.735-.631z" fill="#cf4037"/><path d="M32.345 115.055c.315-1.365 1.366-2.416 2.626-2.627 2.312-.525 4.203-3.256 6.41-3.572 3.677-.42 6.304 3.047 5.778 4.939-.945 1.785-5.464 3.887-4.203 5.779 2.522 3.676 4.413 5.672 4.728 9.035.21 1.891-3.362 2.312-3.362 4.309 2.627 4.201 23.115 28.367 40.032 34.988.315-1.682.105-3.047 4.098-3.469 3.677-.209 10.192-.209 13.973-.42 4.623-.211 4.098 4.098 5.779 3.467 17.127-6.408 36.145-28.578 39.822-35.197 0-1.156-1.787-2.102-2.521-2.941-.945-.947-.316-3.574.105-4.52 1.365-2.73 2.836-4.201 4.412-7.459-1.365-2.418-2.836-2.207-4.098-3.889-1.051-2.836 3.781-6.934 6.725-5.148 2.207.947 3.467 2.207 5.777 3.469 2.838 1.576 2.312 4.307 1.473 6.725-1.156 3.152-3.363 6.094-4.729 9.771-.947 2.627 1.156 2.416 1.471 3.361 1.365.945 1.576 2.627-.211 5.359-8.93 14.498-27.002 32.57-44.443 39.926-1.576.631-2.627 1.262-5.885.631-2.416-.525-1.785-3.678-2.941-4.729-.42-1.051-15.13-.42-15.97.736-.526 2.1-1.786 4.832-4.308 4.098-17.652-4.52-45.181-35.83-47.913-41.188-.945-2.102.525-4.939 2.522-6.516.21-.734-1.051-2.73-1.156-3.572-1.364-3.255-4.937-7.563-3.991-11.346z" fill="#cf4037"/><path d="M149.812 109.383c-1.051.209-3.572 2.311-2.311 3.467 2.73.42 1.26-2.627 2.521-2.943 1.891 0 1.365 1.996 2.941 1.262.738-1.263-2.309-1.997-3.151-1.786zm2.208 4.096l-1.262-1.365c-.525.525-1.471 1.365-1.891 1.891.42.945 1.156 1.682 1.996 2.207.631-.001.946-2.103 1.157-2.733zm7.039 1.576c.525-1.154-3.361-3.887-4.938-3.781 0 1.365-.525 2.311-1.576 4.518-1.576 3.678-4.518 6.514-5.674 10.086-.211.631-.631 1.367 0 1.996 2.311-1.574 4.623-1.785 6.619.631.525-.42.734-1.682 1.051-2.416 1.365-2.943 4.518-6.937 4.518-11.034zm-9.666 13.029c-.314 0-1.365.736-1.576.945 0 .525.631.945 1.051 1.367.736-.421.944-1.576.525-2.312zm6.724 6.514c.314-1.996-1.051-2.521-2.102-3.467-.945-.945-1.996-1.576-2.836-2.521-.422 1.787 0 1.787-1.473 3.467-8.93 13.66-25.846 29.631-38.77 35.619-2.941 1.576-4.729 1.891-7.145 1.682 0 .525.631 1.576.734 2.102.631 1.785-.314 6.408 5.779 4.938 0 0 12.084-4.518 25.742-17.127 16.393-15.236 20.071-24.693 20.071-24.693zm-50.748 32.572c-.316-.209-.842.314-1.156.525.211.211.945.525 1.785.314 0-.628-.629-.628-.629-.839zm-3.152.84c-.211-1.365 1.785-1.365 2.311-1.996 1.051-1.68-15.234-.84-17.231-.209-.21.629 2.102 1.26 1.786 3.152-.21.945-1.051 1.785-.84 2.941 6.199-1.051 10.086-1.051 14.814-.42.314-.736-1.26-2.312-.84-3.468zm-14.501-.315c-.42 0-1.155-.525-1.576-.525-.209.211-.419.42-.419.84.419.422 2.206.631 1.995-.315zm-47.07-38.875c-1.891 1.576-5.989 4.098-3.993 8.51 4.308 7.145 31.941 36.25 45.391 38.98 1.786.631 3.467-.631 3.887-3.256.42-2.627 1.261-1.893 1.366-3.469-11.873.526-44.34-32.675-46.651-40.765zm4.308 1.366c-.631-.631-1.681-2.312-2.732-2.102 0 1.156.42 2.627 1.366 3.678.42-.42.945-1.051 1.366-1.576zm-6.305-18.493c-.946.42-1.997 1.785-3.153 1.996-5.148.945.211 7.775 3.153 15.131 1.891-2.102 3.152-1.787 4.728-1.576.735.314 2.312 1.996 3.152 1.68.315-.734-1.787-4.412-2.417-5.357-1.68-2.417-4.201-6.514-5.463-11.874zm4.099.735c-.421.422-1.577 1.473-1.892 1.998.315 1.049.526 1.68 1.156 2.836l2.732-2.207c-.631-.735-1.367-1.366-1.996-2.627zm-.316-2.522c-1.156.105-2.417 1.051-1.787 2.732 1.05-.631 1.996-2.102 2.942-1.785.42.629-.21 1.154 1.576 3.047.42 0 .735-.211.945-.422-.209-1.996-2.836-3.361-3.676-3.572z" fill="#fff"/><path d="M40.225 137.541c.315-.211.42-.211.63-.105l.21.105.105-.105c-.105-.316-.42-.525-.63-.842-.104-.314-.42-.629-.63-1.049-.211-.105-.315.104-.315.104l.21.316c.105.314.105.42-.21.629l-.421.316c-.42.209-.525.209-.735-.105-.21-.314-.42-.525-.42-1.051 0-.631.315-1.26 1.155-1.891 1.051-.84 2.207-.945 2.942.104.42.527.42 1.156 0 1.893 0 0 .105.211.105.105.315-.316.84-.631.946-.736-.105-.209-.21-.734-.631-1.365-.525-.631-.945-1.051-1.471-1.156-.946-.631-1.996-.42-2.732.211-.945.631-1.261 1.576-1.051 2.627.21.525.315.945.63 1.365.315.42.736.84 1.051 1.156.21 0 .315.209.42.209.105.105.21 0 .21-.105-.105-.104 0-.104.315-.42l.317-.21zm.841 1.68c-.63.525-.63.525-.946.316l-.209-.211-.211.211c.211.314.525.525.736.84.314.316.524.631.735.945.21 0 .315-.105.315-.211l-.105-.104c-.21-.314-.21-.42.314-.945l.841-.525c0-.211 0-.211.315 0 0 .209.105.314 0 .525l-.63 1.26c-.105.631-.105 1.156.315 1.787.315.105.42.314.525.42.105 0 .21-.209.21-.209-.105-.105-.21-.211-.21-.527 0-.525.315-1.154.735-2.205.105-.105.105-.211.21-.211.315.316.84.422 1.366 0 .421-.314.525-.84.421-1.26 0-.422-.315-.842-.736-1.367-.42-.631-.946-1.051-1.261-1.471-.105 0-.315.105-.315.211l.105.104c.21.316.21.316-.42.842l-2.1 1.785zm3.257-1.26c.21-.211.315-.211.525 0 .42.42.21 1.156-.315 1.576-.314.314-.63.314-.735.314-.315 0-.42-.105-.63-.314-.315-.316-.315-.42-.105-.631l1.26-.945zm1.471 5.988c.21.211.21.316.104.42l-.315.525c-.104.316-.21.525-.315.525h-.209l-.21-.314c-.105 0-.21.105-.21.314.21.211.42.422.735.736.21.314.421.631.735.945 0 0 .21-.105.21-.211l-.21-.209c-.104-.314 0-.525.21-.945L48 143.004c.315-.525.42-.842.525-1.051.104-.105.104-.105 0-.211 0 0-.525 0-.736-.209-.21.105-.525.209-.945.42l-1.891.736c-.631.209-.946.42-1.366.42-.21.105-.42 0-.525-.105l-.21-.211c-.104 0-.315.211-.21.316l.526.525c.21.314.42.525.63.84.105 0 .21-.209.21-.209l-.105-.316c-.105-.105-.105-.209-.105-.209.105-.105.105-.105.21-.105l.946-.42c.105-.105.105-.105.314.105l.526.629zm-.211-.84c0-.105-.104-.105.105-.211l.63-.209c.316-.211.735-.316.735-.422 0 .211-.105.525-.315.842l-.42.525c0 .209-.105.105-.21 0l-.525-.525zm6.41 5.569c.421-.42.946-.736 1.156-.84.106-.105.211 0 .42.104l.105.105c.21 0 .21-.209.21-.209-.21-.316-.315-.42-.63-.631-.211-.211-.421-.525-.631-.736-.21 0-.21.105-.21.211v.105c.21.209.315.314.21.42-.105.314-.525.734-.946 1.26l-.735.736c-.105.105-.21.105-.316.209.105-.314.105-.629.105-1.154l.105-1.051c.105-1.051.105-1.787.315-2.102-.105-.105-.315-.316-.42-.525-.315-.314-.526-.525-.735-.736-.105-.104-.21.105-.316.105l.211.211c.105.209.105.42.105.525 0 .209-.105.209-.421.42l-1.366 1.471c-.525.525-.945.842-1.156.945-.105 0-.315 0-.525-.104l-.105-.105-.21.209c.21.316.525.42.735.631.105.211.315.42.63.736l.21-.211-.105-.211c-.105-.104-.209-.314-.209-.42.104-.209.525-.629.945-1.156l1.05-1.049c.315-.211.421-.316.421-.316.105.211 0 .631-.105 1.365l-.315 2.732c0 .631-.104 1.156-.104 1.156.104.105.314.211.42.211.21-.211.525-.527.946-.947l1.261-1.364zm.105 2.836c-.525.527-.63.527-.945.422l-.21-.211-.105.211c.315.314.63.525.945.84.105.211.315.525.631.736.525.629 1.155.945 1.786 1.154.841.316 1.786 0 2.627-.734.63-.736.945-1.682.314-2.838-.21-.42-.63-.84-1.051-1.365-.63-.631-1.05-1.051-1.576-1.365-.105-.105-.21.104-.21.104l.105.105c.21.316.105.42-.315.945l-1.996 1.996zm2.943-1.471c.209-.104.315-.209.42-.314.105 0 .21.105.315.211 1.051 1.051 1.051 2.102 0 3.256-.735.736-1.892 1.262-2.837.316-.21-.211-.315-.42-.315-.631 0-.316.105-.42.525-.736l1.892-2.102zm4.517 4.098c.21-.209.21-.209.315-.104l.525.523c.315.211.315.422.315.736 0 .105 0 .316-.105.525.105.211.105.316.21.316.315-.525.735-.947.735-1.051 0-.105-.315-.316-.84-.736l-1.156-1.051c-.315-.314-.631-.525-.946-.84 0 0-.104.104-.104.314l.104.105c.21.314.21.314-.315.84l-1.891 2.207c-.42.525-.63.525-.84.314l-.21-.104c-.21 0-.315.104-.315.209.42.422.735.525 1.05.84l.736.736c.525.314.945.945 1.365 1.156.211-.105.735-.42 1.051-.736 0-.105 0-.211-.105-.211-.946.422-1.156.211-1.681-.209-.42-.314-.525-.525-.42-.736 0-.104.105-.418.42-.734l.525-.631c.21-.105.21-.105.315 0l.42.316c.315.314.315.42.21.734l-.104.211c-.105.104.104.314.104.209.316-.209.421-.42.631-.629.21-.211.42-.525.525-.631 0-.105-.105-.211-.315-.211v.105c-.315.211-.525.211-.735-.105l-.42-.209c-.209-.211-.104-.316 0-.422l.946-1.046zm3.152 7.041c.525-.631.42-1.367.104-1.787l-.104-.525c-.21-.525-.21-.945 0-1.26.21-.211.63-.422.945 0 .525.314.315.945.315 1.365 0 .105.21.211.21.211.315-.316.525-.842.631-.947 0-.105-.105-.105-.211-.314-.105-.209-.42-.42-.63-.525-.841-.734-1.787-.734-2.312 0-.42.525-.315 1.262-.105 1.891.211.422.42 1.051 0 1.576-.21.316-.63.42-1.156 0-.42-.314-.42-1.26-.209-1.785 0 0-.105-.211-.211-.105-.42.42-.735.84-.735 1.156.105.209.315.734.84 1.051.947.837 1.998.837 2.628-.002zm5.359-.317c-.736-.525-1.366-.84-2.207-.734-.734 0-1.366.209-1.996 1.051-.526.734-.63 1.576-.42 2.207.21.734.735 1.365 1.261 1.891.421.42 1.155.525 1.471.631.21-.105.631-.422 1.051-.842 0-.105-.105-.209-.209-.314-.421.42-1.261.734-1.997.105-.735-.525-1.051-1.787-.105-3.049.945-1.154 2.207-1.26 2.942-.734.63.42.735 1.051.42 1.785 0 .105.21.211.315.105.21-.314.525-.84.63-.945-.211-.211-.525-.737-1.156-1.157zm.42 4.309c-.63.736-.736 1.365-.63 1.787.21.629.63 1.049 1.05 1.365.525.314 1.156.42 1.681.314.525-.209 1.051-.631 1.472-1.26l.525-.736c.315-.525.63-.945.84-1.156.21-.104.315-.104.525 0l.104.105c.105-.105.21-.209.105-.209-.21-.211-.42-.316-.63-.631-.315 0-.526-.316-.946-.525l-.105.209.105.211c.21.105.315.314.315.42 0 .316-.42.736-.84 1.262l-.421.84c-.63.84-1.366 1.471-2.207.84-.945-.629-.525-1.576 0-2.311l1.051-1.471c.315-.631.42-.631.736-.525l.21.104c.105 0 .21-.209.105-.209-.21-.316-.525-.42-.946-.631-.315-.314-.63-.525-.945-.631l-.105.105.105.211c.315.209.315.314-.105.945l-1.049 1.577zm9.666 4.937c.42-.525.631-1.154.946-1.26 0-.105.21-.105.315 0l.21.105c.104-.105.104-.211.104-.316-.314-.105-.525-.314-.735-.42-.21-.211-.525-.314-.946-.42-.104 0-.104.105-.104.209h.104c.21.211.315.316.315.525 0 .211-.315.736-.525 1.262l-.526.945c-.209.211-.209.314-.209.314 0-.209-.21-.629-.315-1.154l-.21-.945c-.105-1.051-.314-1.787-.21-2.207-.21 0-.315-.211-.525-.316-.315-.209-.735-.314-.946-.523-.21 0-.21.104-.21.314h.21c.105.209.21.314.21.525 0 .105-.105.211-.21.631l-1.051 1.785c-.314.525-.63.945-.84 1.156-.104.105-.21 0-.42 0h-.105c-.105 0-.21.105-.21.209.315.211.631.211.84.422.21.104.526.314.841.525.104-.105.104-.211.104-.316l-.104-.105c-.21-.104-.315-.314-.315-.42.105-.209.315-.84.63-1.365l.736-1.262c.105-.209.21-.42.315-.42 0 .211.105.525.21 1.262l.525 2.836c.105.525.105 1.156.105 1.156h.525c.105-.314.421-.631.63-1.156l.841-1.576zm2.207 3.153c-.315.736-.42.736-.841.736l-.315-.211c-.105 0-.105.211-.105.211.525.314.946.42 1.261.629.315.105.631.316 1.156.525v-.314l-.209-.105c-.315-.209-.315-.209 0-.945l1.471-3.152c.105-.209.105-.209.21-.105l.525.211c.525.314.525.631.42 1.156 0 0 .21.105.21 0 .21-.314.526-.842.631-1.051v-.105h-.106c-.21 0-.21 0-.736-.314l-2.626-1.156c-.526-.314-.526-.314-.526-.42-.105 0 0 0-.105-.105h-.105c-.21.211-.42.736-.841 1.051 0 .105.105.314.316.314.42-.42.63-.629 1.156-.42l.525.211c.105.105.105.105.105.209l-1.471 3.15zM111.252 172.738c.211-.105.316-.105.422 0l.523.525c.211.316.422.42.422.525 0 0 0 .105-.211.211l-.211.209c-.104 0 0 .105.211.211.314-.211.631-.316.945-.525.42-.105.842-.314 1.156-.42v-.316l-.42.105c-.316 0-.42-.105-.842-.525l-2.311-2.416c-.525-.525-.631-.736-.842-.945-.104-.105-.104-.105-.209-.105 0 0-.209.42-.42.736 0 .314 0 .629.105 1.154l.105 2.102v1.471c0 .316 0 .42-.211.631l-.316.105c0 .105.105.209.211.314.316-.105.525-.314.84-.42.422-.211.631-.314.947-.314 0-.105-.105-.316-.105-.316h-.63s-.105-.105-.105-.314v-.945c-.105-.211-.105-.211.105-.316l.841-.422zm-.84-.105c-.211.105-.211.105-.316-.104l-.104-.631v-1.051c.209.105.314.42.631.631l.525.629c.104.105.104.211-.105.316l-.631.21zm3.258-1.471c.42.945.84 1.367 1.365 1.471.631.105 1.26 0 1.785-.209.527-.316.947-.945 1.156-1.471.105-.631-.104-1.262-.525-1.996l-.42-.736c-.211-.736-.525-1.365-.525-1.471 0-.211.105-.316.314-.525l.105-.105-.105-.209c-.314.104-.525.314-.84.42-.314.104-.631.314-1.051.42 0 .105 0 .314.105.314h.314c.211-.104.316-.209.525 0 .105.105.42.631.736 1.262l.525.945c.525 1.051.631 1.891-.316 2.416-1.154.631-1.785-.314-2.1-1.156l-.947-1.68c-.42-.736-.314-.842 0-1.051l.105-.211c.105 0 0-.105 0-.209-.42.209-.84.525-1.156.629a3.791 3.791 0 0 1-1.154.525s0 .316.209.316l.211-.105c.314-.105.42-.105.734.631l.95 1.785zm5.777-7.355c-.734.527-1.365 1.156-1.574 1.998-.211.629-.211 1.471.314 2.311.525.945 1.365 1.262 1.996 1.262.84.105 1.682-.105 2.311-.525.631-.316.947-.945 1.262-1.262 0-.209-.105-.734-.42-1.26-.105 0-.211.104-.316.104.105.631.105 1.473-.84 1.998-.734.629-2.102.314-2.941-1.156-.842-1.365-.525-2.521.314-3.047.736-.422 1.471-.422 1.996.209.105 0 .316-.104.211-.314-.314-.316-.736-.945-.736-1.051-.21.104-.946.315-1.577.733zm6.094 1.156c.525.631.525.736.211 1.051l-.314.211c0 .105 0 .209.314.209.314-.314.736-.629.945-.84.316-.209.736-.42 1.156-.734 0-.211-.105-.211-.211-.211l-.314.105c-.314.209-.42.209-.84-.42l-2.207-2.943c-.211-.209-.105-.314 0-.42l.42-.209c.525-.525.736-.211 1.365.104 0 .105.105-.104.105-.104-.314-.422-.631-1.051-.734-1.262 0 0-.105 0-.105.105h-.105c0 .209 0 .314-.42.631l-2.521 1.891c-.525.314-.631.314-.631.209-.105 0-.105 0-.105.105-.104 0-.104 0-.104.105.104.314.42.631.629 1.26.105.105.211-.104.316-.104-.211-.631-.211-1.051.104-1.471l.525-.316c.105-.105.211 0 .316.105l2.205 2.943zm3.783-3.678c.211-.209.316-.209.316-.209l.629.525c.316.105.525.209.525.314l-.104.211-.105.209c-.105.105 0 .211.209.316.211-.316.422-.525.736-.842.42-.209.84-.42 1.051-.734 0-.105 0-.314-.105-.211l-.314.105c-.316.105-.422.105-.945-.209l-2.943-1.893a4.096 4.096 0 0 1-.945-.736h-.314s.104.527-.211.842c.211.211.211.631.42 1.051l.631 2.102c.314.631.314 1.051.42 1.365s0 .525-.105.631l-.209.211c0 .104.105.209.209.314.316-.314.42-.525.631-.736.316-.105.631-.314.842-.42 0-.211 0-.314-.105-.314h-.211l-.314.211c-.105-.107-.211-.211-.211-.316l-.314-.945c-.105-.211-.105-.211 0-.316l.836-.526zm-.84.106c-.211 0-.316.105-.316-.105l-.314-.523c-.105-.525-.211-.842-.316-1.051.211.104.527.314.842.525l.631.42c.105.105.105.105 0 .209l-.527.525zm4.098-6.2c-.525-.525-.525-.631-.314-.945l.104-.105c0-.209 0-.314-.104-.314-.316.42-.527.734-.842.945-.314.316-.631.525-1.051.842 0 .104.211.209.211.104h.209c.316-.314.422-.314.945.316l2.207 2.311c.42.42.525.525.314.842l-.209.314c0 .105.105.105.314.211.316-.422.525-.736.842-1.051l.734-.736c.525-.42 1.156-1.051 1.471-1.26-.104-.316-.42-.947-.734-1.262-.105 0-.211.105-.211.105.316 1.156.105 1.262-.42 1.785-.42.525-.525.525-.736.525-.209 0-.42-.209-.629-.525l-2.101-2.102zm5.779-2.416c.209-.211.209-.211.314-.211l.84.316.42.211c.105.104.105.209 0 .314l-.209.209c0 .105.105.211.314.316.211-.42.422-.631.736-.945.314-.316.631-.631.84-.945 0-.105-.105-.211-.209-.211l-.211.211c-.314.104-.525.104-.945-.105l-3.258-1.367c-.525-.209-.84-.314-1.051-.525-.104 0-.209 0-.314.105 0 0 .105.525 0 .842.105.209.314.523.525.945l.945 1.996c.314.525.631.945.736 1.156.104.42.104.629-.105.629l-.105.316c0 .105.105.209.211.314.314-.42.42-.631.629-.84.211-.211.422-.42.736-.631 0-.105-.211-.316-.314-.316l-.211.211c-.105.105-.211.211-.211.105-.104 0-.209 0-.209-.211l-.525-.84c-.105-.211-.105-.211 0-.314l.631-.735zm-.841.317c-.105.104-.105.104-.314-.105l-.316-.525c-.104-.316-.42-.736-.42-.947.105 0 .525.316.842.422l.629.314c.211 0 .211.105 0 .211l-.421.63zm3.992-2.524c.631.422.631.525.525.842l-.209.209c0 .105.105.211.314.211.314-.316.525-.631.736-.945a4.46 4.46 0 0 1 .734-.631c.316-.42.631-.842.842-1.471.209-.525.105-1.051-.422-1.682-.734-.42-1.26-.314-1.891.105h-.105s0-.105.105-.105c0-.314.211-.84-.314-1.365-.316-.42-.736-.42-1.156-.316-.42.211-.84.525-1.471 1.051-.42.631-.736 1.156-1.262 1.682 0 .105.211.211.316.211l.105-.105c.209-.316.314-.211 1.051.314l2.102 1.995zm-1.785-3.15c-.314-.316-.314-.316-.105-.631.42-.42.945-.525 1.471-.105.42.42.525.84.211 1.365-.316.42-.316.42-.631.211l-.946-.84zm1.681 1.471c-.211-.316-.211-.316.104-.631.422-.525 1.156-.525 1.682 0 .525.314.736.945.314 1.365-.42.525-.84.316-1.365-.105l-.735-.629zm1.68-6.516c-1.051 1.367-.734 3.047.525 4.098 1.471.947 3.047.631 4.098-.629 1.051-1.473.842-3.152-.629-4.203-1.367-1.051-3.049-.737-3.994.734zm3.363.42c1.051.736 1.682 1.682 1.051 2.523-.842 1.154-2.418.525-3.258 0-1.051-.842-1.471-1.893-.945-2.732.631-.842 1.89-.631 3.152.209zm2.836-1.051c.631.42.631.525.525.842l-.105.209c0 .105.211.105.316.211.209-.42.42-.631.631-1.051.209-.314.42-.631.734-.945 0-.105-.209-.209-.314-.209l-.105.209c-.314.104-.314.104-1.051-.209l-.84-.527c-.105-.209-.105-.209.104-.42.105-.209.211-.209.422-.209.525.104 1.051.104 1.471.209.631.105 1.26-.209 1.68-.734.211-.316.316-.422.316-.736h-.211c-.105.105-.314.211-.525.314-.42.105-1.26 0-2.416-.209-.105 0-.105 0-.105-.105 0-.42.105-1.051-.525-1.365-.525-.316-.945-.316-1.471-.211-.314.211-.84.631-1.156 1.156-.523.734-.84 1.26-1.154 1.785 0 .105.209.211.209.211l.211-.211c.211-.314.314-.209.945.316l2.414 1.679zm-2.205-2.941c-.316-.314-.316-.314-.105-.631.314-.525 1.051-.629 1.682-.104.314.314.42.525.523.734.105.316-.104.42-.209.631-.314.42-.314.42-.525.211l-1.366-.841zm3.047-4.834c-.211-.104-.316-.104-.211-.314l.42-.629c.105-.316.42-.527.631-.527h.736s.209-.209.104-.209c-.42-.316-1.051-.525-1.154-.631 0 .211-.316.525-.525 1.051l-.842 1.471c-.314.42-.525.736-.734 1.051 0 0 .105.211.209.211l.211-.211c.209-.314.314-.314.945 0l2.627 1.682c.631.42.631.42.631.734l-.211.422c-.105.104.211.209.314.104.316-.42.422-.84.631-1.154l.525-.945c.422-.525.842-1.262 1.051-1.682-.105-.211-.629-.631-.84-.945-.211 0-.316.105-.316.209.631.945.422 1.156.105 1.787-.42.525-.42.631-.734.631-.105 0-.316-.105-.631-.316l-.84-.525c-.211-.105-.211-.105-.211-.314l.314-.525c.211-.422.316-.422.736-.211l.209.105c.105 0 .211-.316.211-.316-.314-.104-.631-.209-.84-.418-.316-.211-.525-.422-.736-.422 0-.104-.209.105-.209.211l.209.105c.316.314.316.42.105.734l-.314.525c-.105.211-.105.211-.316.105l-1.26-.844z" fill="#cf4037"/></g></svg>
