<svg version="1.1" id="Layer_1" xmlns="http://www.w3.org/2000/svg" xmlns:xlink="http://www.w3.org/1999/xlink" x="0px" y="0px" style="enable-background:new 0 0 1000 1000;" xml:space="preserve" viewBox="100.08 277.27 799.83 409.85">
<style type="text/css">
	.st0{fill:#00A0DF;}
	.st1{fill:#FFFFFF;}
</style>
<g id="XMLID_50_">
	<path id="XMLID_22_" class="st0" d="M0,0h1000v1000H0V0z"></path>
	<g id="XMLID_51_">
		<g id="XMLID_101_">
			<path id="XMLID_21_" class="st1" d="M869.4,452.6c0-14.3-8.9-25-16.1-35.8c-7.2-7.2-12.5-14.3-12.5-23.3     c0-10.7,7.2-17.9,16.1-17.9c5.4,0,8.9,1.8,12.5,3.6s8.9,3.6,12.5,3.6c7.2,0,12.5-7.2,12.5-12.5c0-7.2-7.2-14.3-19.7-14.3     c-28.6,0-53.7,32.2-53.7,57.2c0,14.3,8.9,25,16.1,34c5.4,7.2,10.7,14.3,10.7,21.5c0,10.7-10.7,17.9-19.7,17.9     c-10.7,0-16.1-5.4-23.3-10.7c-3.6-3.6-7.2-7.2-10.7-7.2c-5.4,0-7.2,10.7-7.2,16.1c0,7.2,12.5,17.9,28.6,17.9     C840.8,499.1,869.4,477.6,869.4,452.6"></path>
		</g>
		<g id="XMLID_98_">
			<path id="XMLID_99_" class="st1" d="M259.4,277.3C257.6,277.3,257.6,277.3,259.4,277.3l-1.8,7.2v1.8h8.9c7.2,1.8,8.9,1.8,8.9,5.4     c0,5.4-7.2,23.3-16.1,48.3l-7.2,23.3c-7.2,19.7-17.9,48.3-26.8,71.6c-10.7,28.6-19.7,51.9-19.7,55.5s1.8,5.4,10.7,5.4     s12.5-1.8,14.3-5.4c16.1-51.9,59-110.9,80.5-110.9c7.2,0,8.9,1.8,8.9,8.9c0,10.7-8.9,32.2-19.7,53.7     c-8.9,17.9-16.1,35.8-16.1,44.7c0,7.2,3.6,10.7,10.7,10.7c21.5,0,39.4-19.7,51.9-35.8l1.8-1.8l-5.4-5.4h-1.8     c-7.2,7.2-19.7,19.7-23.3,19.7h-1.8v-3.6c0-1.8,1.8-7.2,5.4-14.3c8.9-19.7,23.3-53.7,23.3-73.3c0-16.1-7.2-25-21.5-25     c-26.8,0-48.3,30.4-59,46.5c-1.8,3.6-5.4,7.2-5.4,7.2s1.8-3.6,3.6-10.7c3.6-7.2,7.2-17.9,12.5-32.2     c19.7-53.7,28.6-80.5,28.6-84.1s-3.6-3.6-5.4-3.6h-39.4L259.4,277.3z"></path>
		</g>
		<g id="XMLID_95_">
			<path id="XMLID_96_" class="st1" d="M198.6,466.9C200.4,465.1,200.4,465.1,198.6,466.9c0-1.8-5.4-5.4-5.4-5.4     c-8.9,7.2-25,21.5-39.4,21.5c-5.4,0-10.7-1.8-14.3-5.4c-5.4-3.6-7.2-10.7-7.2-19.7c-1.8-21.5,17.9-55.5,35.8-75.1     c10.7-10.7,19.7-16.1,25-16.1c7.2,0,12.5,5.4,17.9,10.7c3.6,5.4,7.2,8.9,12.5,8.9c1.8,0,5.4-1.8,5.4-3.6c1.8-1.8,3.6-5.4,3.6-7.2     c0-8.9-8.9-21.5-28.6-23.3c-21.5,0-50.1,12.5-71.6,34c-19.7,19.7-30.4,44.7-28.6,68c0,19.7,10.7,41.1,39.4,41.1     C171.7,499.1,195,474.1,198.6,466.9z"></path>
		</g>
		<g id="XMLID_92_">
			<path id="XMLID_93_" class="st1" d="M559.9,416.8c0,1.8-1.8,3.6-1.8,3.6v-1.8c0-1.8,1.8-7.2,3.6-14.3c3.6-14.3,7.2-32.2,7.2-37.6     c0-7.2-3.6-10.7-10.7-10.7c-14.3,0-37.6,25-44.7,37.6l3.6,5.4l1.8-1.8l1.8-1.8c5.4-7.2,16.1-19.7,21.5-19.7     c3.6,0,5.4,3.6,5.4,8.9c0,12.5-14.3,51.9-23.3,78.7c-5.4,14.3-8.9,25-8.9,26.8c0,3.6,1.8,3.6,3.6,3.6h12.5c1.8,0,3.6-1.8,5.4-5.4     c0,0,5.4-14.3,8.9-21.5c25-50.1,37.6-75.1,48.3-85.9c7.2-7.2,12.5-8.9,16.1-8.9c3.6,0,3.6,1.8,5.4,3.6s3.6,5.4,7.2,5.4     c1.8,0,5.4,0,7.2-1.8c3.6-3.6,5.4-7.2,5.4-12.5c0-8.9-7.2-12.5-12.5-12.5C597.5,356,581.4,372.1,559.9,416.8z"></path>
		</g>
		<path id="XMLID_87_" class="st1" d="M483,352.4c-1.8,0-3.6,1.8-3.6,3.6c-1.8,1.8-1.8,3.6-5.4,3.6c-1.8,0-3.6,0-7.2-1.8    c-3.6,0-7.2-1.8-12.5-1.8c-62.6,0-94.8,84.1-94.8,112.7c0,19.7,10.7,28.6,21.5,28.6c12.5,0,30.4-3.6,53.7-39.4l5.4-8.9v1.8    l-1.8,3.6c-3.6,5.4-8.9,17.9-8.9,28.6c0,5.4,1.8,8.9,3.6,10.7c1.8,1.8,5.4,3.6,8.9,3.6c21.5,0,39.4-28.6,46.5-39.4l-5.4-5.4h-1.8    l-5.4,5.4c-7.2,7.2-14.3,17.9-19.7,17.9h-1.8v-3.6c0-7.2,14.3-41.1,23.3-68c7.2-19.7,14.3-37.6,14.3-41.1c0,0,0-3.6-1.8-3.6    l-8.9-5.4C484.8,352.4,483,352.4,483,352.4z M384.6,463.3c0-41.1,32.2-96.6,64.4-96.6c10.7,0,16.1,5.4,16.1,16.1    c0,16.1-42.9,93-71.6,93C388.2,477.6,384.6,475.8,384.6,463.3z"></path>
		<path id="XMLID_82_" class="st1" d="M683.4,459.7c0,23.3,14.3,39.4,35.8,39.4c25,0,51.9-25,59-32.2v-1.8l-3.6-5.4h-1.8l-3.6,1.8    c-8.9,7.2-23.3,17.9-35.8,17.9c-14.3,0-23.3-8.9-23.3-23.3c0-17.9,8.9-30.4,14.3-41.1v-1.8h14.3c23.3,0,66.2-10.7,66.2-37.6    c0-10.7-10.7-23.3-28.6-23.3C740.6,356,683.4,409.7,683.4,459.7z M774.6,364.9c7.2,0,12.5,5.4,12.5,12.5    c0,17.9-19.7,26.8-53.7,26.8C738.8,391.8,758.5,364.9,774.6,364.9z"></path>
		<g id="XMLID_78_">
			<path id="XMLID_79_" class="st1" d="M672.6,461.5C672.6,461.5,672.6,459.7,672.6,461.5c0-1.8-5.4-7.2-5.4-7.2l-1.8,1.8     c-12.5,12.5-17.9,21.5-25,21.5h-1.8c0,0-1.8-1.8-1.8-3.6c0-7.2,12.5-42.9,37.6-107.3l17.9-46.5c8.9-23.3,14.3-35.8,14.3-37.6     v-1.8c0-1.8-1.8-1.8-5.4-1.8h-41.1c0,0-1.8,0-1.8,1.8v8.9h8.9c5.4,1.8,8.9,3.6,8.9,7.2c0,5.4-26.8,71.6-26.8,71.6     c-14.3,35.8-39.4,98.4-39.4,112.7c0,7.2,1.8,12.5,3.6,14.3c3.6,3.6,7.2,5.4,12.5,5.4c16.1,0,34-21.5,44.7-35.8     C670.8,465.1,672.6,461.5,672.6,461.5z"></path>
		</g>
		<g id="XMLID_75_">
			<path id="XMLID_76_" class="st1" d="M105.5,586.8c0,19.7,16.1,30.4,30.4,37.6l7.2,3.6c14.3,7.2,21.5,16.1,21.5,26.8     c0,12.5-8.9,23.3-21.5,23.3c-19.7,0-30.4-19.7-35.8-32.2l-7.2,1.8c1.8,12.5,5.4,26.8,5.4,32.2h3.6l8.9,3.6     c5.4,1.8,12.5,3.6,19.7,3.6c26.8,0,46.5-16.1,46.5-41.1c0-23.3-17.9-34-30.4-39.4l-5.4-1.8c-16.1-8.9-23.3-16.1-23.3-26.8     s7.2-21.5,19.7-21.5c16.1,0,23.3,12.5,26.8,25l7.2-1.8c-1.8-10.7-3.6-19.7-3.6-26.8l-5.4-1.8l-3.6-1.8     c-5.4-1.8-12.5-3.6-17.9-3.6C123.4,547.4,105.5,563.5,105.5,586.8z"></path>
		</g>
		<g id="XMLID_72_">
			<path id="XMLID_73_" class="st1" d="M200.4,619c0,34,23.3,66.2,75.1,66.2c12.5,0,30.4-3.6,37.6-5.4c3.6-8.9,8.9-25,10.7-34     l-7.2-1.8c-10.7,21.5-19.7,32.2-42.9,32.2c-28.6,0-48.3-25-48.3-62.6c0-26.8,12.5-57.2,48.3-57.2c21.5,0,32.2,8.9,37.6,30.4h7.2     l-1.8-8.9l-3.6-23.3h-3.6c-7.2-1.8-17.9-3.6-32.2-3.6C232.6,547.4,200.4,576,200.4,619z"></path>
		</g>
		<g id="XMLID_69_">
			<path id="XMLID_70_" class="st1" d="M474.1,551h-57.2v7.2c14.3,1.8,16.1,1.8,16.1,25V610h-60.8v-26.8c0-21.5,1.8-23.3,16.1-25     V551h-59v7.2c17.9,1.8,17.9,3.6,17.9,25v71.6c0,21.5-1.8,23.3-17.9,25v7.2h59v-7.2c-14.3-1.8-17.9-1.8-17.9-25v-34h60.8v34     c0,21.5-1.8,23.3-17.9,25v7.2h59v-7.2c-16.1-1.8-17.9-1.8-17.9-25v-71.6c0-21.5,1.8-23.3,17.9-25     C472.3,558.1,474.1,551,474.1,551z"></path>
		</g>
		<g id="XMLID_64_">
			<path id="XMLID_65_" class="st1" d="M676.2,551h-46.5v7.2h7.2c3.6,0,5.4,1.8,7.2,1.8c0,1.8,1.8,1.8,1.8,3.6c0,1.8,0,5.4-1.8,8.9     c0,1.8-10.7,46.5-19.7,75.1c-1.8-3.6-35.8-94.8-35.8-94.8h-8.9c0,0-30.4,94.8-30.4,96.6c-1.8-3.6-23.3-78.7-23.3-78.7     c0-3.6-1.8-5.4-1.8-7.2v-3.6c1.8-1.8,3.6-1.8,7.2-1.8h7.2v-5.4H483v7.2c10.7,1.8,14.3,1.8,19.7,19.7l34,107.3h8.9     c0,0,30.4-93,32.2-94.8c1.8,3.6,34,94.8,34,94.8h8.9c17.9-62.6,34-105.5,34-107.3c7.2-17.9,8.9-19.7,21.5-19.7     C676.2,559.9,676.2,551,676.2,551z"></path>
		</g>
		<path id="XMLID_59_" class="st1" d="M712,583.2c0,0,14.3,42.9,16.1,42.9h-30.4C695.9,626.1,712,583.2,712,583.2z M737,586.8    l-14.3-37.6l-8.9,1.8l-41.1,105.5c-7.2,17.9-8.9,19.7-21.5,19.7v7.2h46.5v-7.2h-5.4c-3.6,0-7.2-1.8-7.2-3.6v-3.6    c0-1.8,0-3.6,1.8-7.2l1.8-3.6c1.8-7.2,5.4-17.9,7.2-21.5h37.6c3.6,10.7,8.9,23.3,10.7,28.6c0,1.8,1.8,3.6,1.8,5.4v1.8    c0,1.8-1.8,1.8-5.4,1.8l-5.4,1.8v5.4h53.7v-7.2c-10.7-1.8-14.3-1.8-21.5-19.7L737,586.8L737,586.8z"></path>
		<path id="XMLID_52_" class="st1" d="M831.8,568.9c0-5.4,0-8.9,1.8-8.9h8.9c5.4,0,25,1.8,25,25c0,16.1-10.7,25-28.6,25h-7.2    C831.8,610,831.8,568.9,831.8,568.9z M794.3,551v7.2c14.3,1.8,16.1,1.8,16.1,25v71.6c0,21.5-1.8,23.3-17.9,25v7.2h50.1    c16.1,0,30.4-3.6,39.4-8.9c12.5-7.2,17.9-17.9,17.9-30.4c0-17.9-12.5-30.4-35.8-34c10.7-1.8,28.6-10.7,28.6-28.6    c0-10.7-3.6-17.9-10.7-23.3c-7.2-5.4-16.1-7.2-32.2-7.2h-55.5L794.3,551z M839,615.4c23.3,0,35.8,10.7,35.8,30.4    s-14.3,28.6-26.8,28.6c-5.4,0-8.9,0-10.7-1.8c-3.6-3.6-3.6-8.9-3.6-19.7v-35.8C833.6,615.4,839,615.4,839,615.4z"></path>
	</g>
</g>
</svg>
