<svg version="1.1" id="Layer_1" xmlns="http://www.w3.org/2000/svg" xmlns:xlink="http://www.w3.org/1999/xlink" viewBox="0 0 360 91.33" enable-background="new 0 0 360 91.33" xml:space="preserve">
	<g>
		<path fill="#010101" d="M219.019,49.354c-1.946-1.688-4.261-3.102-6.94-4.24c-2.679-1.138-5.25-1.798-7.709-1.983   c2.753-0.403,5.314-1.551,7.683-3.441s4.084-4.213,5.149-6.967c1.063-2.754,1.597-5.855,1.597-9.307   c0-7.525-2.598-13.08-7.792-16.659c-5.196-3.58-12.107-5.369-20.735-5.369h-66.746v88.554h70.16c7.05,0,12.942-0.954,17.679-2.863   c4.736-1.907,8.196-4.727,10.381-8.454c2.185-3.725,3.276-8.195,3.276-13.409c0-3.341-0.514-6.396-1.542-9.17   C222.45,53.273,220.963,51.043,219.019,49.354z M144.397,18.073h39.1c3.12,0,5.562,0.331,7.324,0.992   c1.764,0.661,3.167,1.763,4.213,3.304c1.048,1.543,1.569,3.269,1.569,5.177c0,3.305-0.889,5.755-2.67,7.353   c-1.782,1.597-4.765,2.396-8.95,2.396h-40.586V18.073z M201.065,69.318c-1.176,1.34-2.801,2.312-4.873,2.918   c-2.076,0.605-4.803,0.908-8.18,0.908h-43.616V53.76h44.057c4.883,0,8.498,0.78,10.849,2.341c2.349,1.561,3.523,4.013,3.523,7.354   C202.826,66.022,202.239,67.978,201.065,69.318z"/>
		<polygon fill="#010101" points="332.96,1.388 301.846,68.85 271.392,1.388 243.855,1.388 243.855,89.941 264.12,89.941    264.12,30.851 290.995,89.941 311.978,89.941 339.623,30.851 339.623,89.941 360,89.941 360,1.388  "/>
		<path fill="#010101" d="M100.289,38.313H82.453H48.958V55.03h33.126c-0.56,2.72-1.395,5.065-2.506,7.034   c-2.238,3.966-5.8,6.967-10.684,9.004c-4.376,1.827-9.9,2.828-16.549,3.017v-0.069c-6.402-0.113-11.908-1.09-16.494-2.952   c-4.883-1.982-8.454-4.946-10.711-8.894c-2.258-3.945-3.387-9.426-3.387-16.439c0-7.011,1.12-12.5,3.36-16.466   c2.239-3.965,5.801-6.966,10.684-9.004c4.376-1.826,9.9-2.827,16.549-3.017v0.07c6.401,0.112,11.908,1.089,16.495,2.952   c3.355,1.361,6.076,3.199,8.192,5.489h24.419c-0.604-1.653-1.285-3.245-2.074-4.747c-3.542-6.737-9.279-11.922-17.21-15.558   C74.236,1.816,65.021,0,54.521,0c-0.738,0-1.457,0.016-2.176,0.032V0C41.9,0.165,32.801,1.849,25.084,5.089   c-8.132,3.415-14.346,8.417-18.641,15.007S0,35.231,0,45.73c0,9.657,1.771,17.853,5.314,24.59   c3.542,6.739,9.279,11.923,17.21,15.558c7.93,3.635,17.145,5.452,27.646,5.452c0.736,0,1.456-0.017,2.175-0.033v0.033   c10.445-0.166,19.544-1.849,27.261-5.09c8.131-3.414,14.346-8.416,18.641-15.007c4.295-6.59,6.443-15.135,6.443-25.635   c0-2.53-0.129-4.955-0.372-7.285H100.289z"/>
	</g>
</svg>