<svg fill="none" xmlns="http://www.w3.org/2000/svg" viewBox="0 0 96 24"><path d="M91.696 19.083h.243c0 .498.199.943.523 1.268.325.324.77.523 1.268.523a1.789 1.789 0 001.792-1.791h.238a2.03 2.03 0 01-2.03 2.034v-.121.12c-1.12 0-2.03-.908-2.034-2.033zm3.826 0c0-.493-.2-.943-.524-1.263a1.792 1.792 0 00-1.268-.529v-.238c1.12 0 2.03.91 2.03 2.03h-.238zm-1.792-1.908v-.122.122zm-2.034 1.908a2.036 2.036 0 012.034-2.03v.238c-.498 0-.943.204-1.268.529-.324.32-.523.77-.523 1.263h-.243zM31.35 6.69h3.565v13.6H31.35V6.69zm52.168 7.802v5.746l-3.587-.013V6.27l6.46 5.56V6.69h3.557v14.102l-6.43-6.3zm-70.1-1.039a6.995 6.995 0 016.993-6.992c1.74 0 3.332.64 4.556 1.692l-2.31 2.622a3.498 3.498 0 00-5.742 2.678 3.498 3.498 0 003.496 3.497c.87 0 1.666-.32 2.28-.848l2.306 2.626a6.95 6.95 0 01-4.586 1.714 6.992 6.992 0 01-6.993-6.989" fill="#161614"/><path d="M41.705 23.401L34.959 5.479H29.32v14.864h-3.69V5.478h-8.17l1.895-3.57h18.239l4.11 10.74 4.116-10.74h17.659l1.947 3.57h-16.97l-6.751 17.924z" fill="#161614"/><path d="M53.102 20.238v-3.003h2.45c.398 0 1.155-.03 1.345-.662.394-1.315-3.639-3.449-3.639-6.72 0-2.475 1.792-3.215 3.008-3.215h3.712V9.59h-2.293s-.658 0-.84.264c-.995 1.424 3.687 3.505 3.687 7.33 0 2-1.713 3.055-3.423 3.055h-4.007zm-4.595-13.6h3.57v13.6h-3.57v-13.6zm12.605 0h3.57v13.6h-3.57v-13.6zm33.146 13.484c-.06-.143-.052-.36-.078-.541-.035-.238-.125-.342-.376-.342h-.498v.883h-.493v-2.26h1.216c.406 0 .662.282.662.624 0 .268-.109.467-.36.567v.008c.247.06.316.299.33.528.012.143.008.407.095.533h-.498zm-.952-1.234h.545c.22 0 .342-.095.342-.324 0-.217-.121-.312-.342-.312h-.545v.636zM10.709 20.29l-.947-2.531H5.335l-.948 2.531H.592L7.55.368l6.958 19.922H10.71zm-4.292-6.166h2.107l-1.056-3.479-1.051 3.479zm58.914-.675a7.005 7.005 0 117.006 7.006 7.007 7.007 0 01-7.006-7.006zm3.527 0a3.48 3.48 0 003.479 3.479 3.477 3.477 0 10-3.479-3.479" fill="#161614"/></svg>