<svg clip-rule="evenodd" fill-rule="evenodd" stroke-linejoin="round" stroke-miterlimit="2" version="1.1" viewBox="35.453 -3.5962e-9 429.09 500" xml:space="preserve" xmlns="http://www.w3.org/2000/svg">
    <g transform="matrix(3.9489 0 0 3.9489 20.321 .0039685)">
        <path d="m79.319 56.508c-0.512 0.299-1.313 0.275-1.813-0.034l-2.94-1.748c-0.239-0.148-0.459-0.386-0.625-0.671-9e-3 -0.017-0.02-0.033-0.029-0.05-0.188-0.306-0.295-0.63-0.306-0.926l-0.075-3.428c-0.022-0.578 0.359-1.282 0.872-1.581l35.343-20.59-49.595-27.03c-0.546-0.304-1.267-0.449-1.987-0.451-0.721-1e-3 -1.443 0.149-1.99 0.451l-49.596 27.031 55.56 32.344c0.515 0.282 0.906 0.951 0.906 1.553v47.185c0 0.593-0.423 1.273-0.942 1.55l-2.99 1.66c-0.249 0.132-0.564 0.202-0.895 0.202h-0.057c-0.359 8e-3 -0.693-0.063-0.954-0.202l-3-1.661c-0.51-0.271-0.926-0.955-0.926-1.549v-42.063c-0.027-0.308-0.252-0.684-0.499-0.825l-48.949-28.495v55.812c-1e-3 1.249 0.88 2.789 1.959 3.421l50.414 29.732c0.539 0.315 1.249 0.473 1.958 0.471 0.71-2e-3 1.419-0.151 1.958-0.471l50.42-29.732c1.075-0.639 1.954-2.17 1.952-3.421v-55.812l-33.174 19.328z" fill="url(#a)" fill-rule="nonzero"/>
    </g>
    <defs>
        <linearGradient id="a" x2="1" gradientTransform="matrix(55.021 -46.168 46.168 55.021 47.341 489.68)" gradientUnits="userSpaceOnUse"><stop stop-color="#a90034" offset="0"/><stop stop-color="#b03" offset=".27"/><stop stop-color="#d30032" offset=".72"/><stop stop-color="#dc0032" offset="1"/></linearGradient>
    </defs>
</svg>
