<svg version="1.1" xmlns="http://www.w3.org/2000/svg" xmlns:xlink="http://www.w3.org/1999/xlink" viewBox="0 0 461.46 187.37"><title>ArenaNet</title><path d="M4.94 69.27V43.83q22.59-9.43 46.13-17v9.85q18.51-6 37.57-10.82v-9.6q20-4.92 40.6-8.42v9.48q18.58-3.22 37.57-5.21V2.73Q186.9.67 207.4 0v9.33Q216.74 9 226.18 9t18.82.33V0q20.49.66 40.6 2.73v9.38q19 2 37.57 5.21V7.85q20.56 3.49 40.6 8.43v9.63q19.05 4.77 37.57 10.82v-9.86q23.52 7.52 46.13 17v25.4a554 554 0 0 0-442.5 0zm221.25-34A538.31 538.31 0 0 0 4.94 82.46v39.84h46.13v-23a18.79 18.79 0 0 1 37.57 0v23h40.6V90.41a18.78 18.78 0 1 1 37.57 0v31.9h40.6V85.54a18.78 18.78 0 1 1 37.56 0v36.77h40.6v-31.9a18.79 18.79 0 0 1 37.57 0v31.89h40.6v-23a18.78 18.78 0 1 1 37.56 0v23h46.13V82.46a538.25 538.25 0 0 0-221.25-47.24z" fill="#fe0000"/><path d="M275.74 182.1h10L265 142.19h-9.88l-20.4 39.91h9.83l3.48-7.6h24.12l3.59 7.6zm-24.65-14.25l8.83-19.27 9.1 19.28h-17.93z" fill="#000"/><path d="M94.54 167.6h6.77a5.73 5.73 0 0 0 6.09-5.74v-12.32s0-5.59-6.71-5.59H68.76v38.15h8.13v-14.64h7.89l14.65 14.65H111l-16.48-14.5zM97 150.51c2.75 0 2.75 3.36 2.75 3.36v4.27a2.86 2.86 0 0 1-3 3.06H76.9v-10.69H97zm30 31.58h37.7v-6.82h-29.32v-10h17.12v-6.26h-17.12v-8.48h29V144h-37.47M360 182.11h37.48v-6.47H368.2v-10.17h17.13v-6.25H368.2v-8.6h29v-6.44h-37.42M181.71 182.1V144h6.05l27.53 25.42V144h6.48v38.1h-5.4l-28.23-26v26m108.47 4.77l6.91.1v-35.05L337.94 187l6-.1v-48.21h-6.5v34.81l-33.94-34.81h-6.86m110.76 5.42h41.2v6.36h-16.53v31.63h-8.59v-31.63H407.4m50.9-2.7a1.33 1.33 0 0 0 .93-1.32 1.36 1.36 0 0 0-.47-1.07 2.16 2.16 0 0 0-1.44-.41H455v5.1h1V148h1.36l.85 2.11h1l-1-2.27h.06zm-1.14-.52h-1.21v-1.59h1.3a.78.78 0 0 1 1 .78.84.84 0 0 1-1 .81z" fill="#000"/><path d="M460.16 144.36A4.26 4.26 0 0 0 457 143a4.47 4.47 0 0 0 0 8.95 4.27 4.27 0 0 0 3.14-1.32 4.47 4.47 0 0 0 0-6.31zm-.49 5.9a3.7 3.7 0 0 1-5.33 0 3.93 3.93 0 0 1 0-5.48 3.63 3.63 0 0 1 2.69-1.14 3.58 3.58 0 0 1 2.65 1.14 3.94 3.94 0 0 1 0 5.47zM47.76 187.37h9.87L33 138h-8.6L0 187.37h10.13l4.78-10.24h27.91l4.94 10.24zm-29.82-16.74l10.69-22.93 11.06 22.93H17.94z" fill="#000"/></svg>