<svg viewBox="0 0 256 142" xmlns="http://www.w3.org/2000/svg" preserveAspectRatio="xMidYMid"><defs><linearGradient x1="13.322%" y1="94.945%" x2="82.62%" y2="1.132%" id="a"><stop stop-color="#D4202C" offset="0%"/><stop stop-color="#D82D2B" stop-opacity=".958" offset="4.166%"/><stop stop-color="#E25226" stop-opacity=".824" offset="17.6%"/><stop stop-color="#EB7123" stop-opacity=".683" offset="31.67%"/><stop stop-color="#F28920" stop-opacity=".536" offset="46.35%"/><stop stop-color="#F69A1E" stop-opacity=".381" offset="61.88%"/><stop stop-color="#F9A41D" stop-opacity=".211" offset="78.86%"/><stop stop-color="#FAA71D" stop-opacity="0" offset="100%"/></linearGradient><linearGradient x1="86.624%" y1="5.04%" x2="17.326%" y2="98.855%" id="b"><stop stop-color="#D4202C" offset="0%"/><stop stop-color="#D82D2B" stop-opacity=".958" offset="4.166%"/><stop stop-color="#E25226" stop-opacity=".824" offset="17.6%"/><stop stop-color="#EB7123" stop-opacity=".683" offset="31.67%"/><stop stop-color="#F28920" stop-opacity=".536" offset="46.35%"/><stop stop-color="#F69A1E" stop-opacity=".381" offset="61.88%"/><stop stop-color="#F9A41D" stop-opacity=".211" offset="78.86%"/><stop stop-color="#FAA71D" stop-opacity="0" offset="100%"/></linearGradient></defs><path d="M232 0c-9 0-16.8 5-20.9 12.3l-.5 1-18.8 37L168 97.2l15.6 30.7.9 1.7c2.4 4.2 6 7.7 10.4 9.8 4.4-2.2 8-5.6 10.4-9.8l.9-1.7 46.7-92 1.1-2.2c1.3-3 2-6.2 2-9.7 0-13.3-10.7-24-24-24zM87.9 44.6L72.4 14l-.9-1.7c-2.4-4.2-6-7.7-10.4-9.8-4.4 2.2-8 5.6-10.4 9.8l-.8 1.7-46.7 92-1.1 2.2c-1.3 3-2 6.2-2 9.7 0 13.2 10.7 24 24 24 9 0 16.8-5 20.9-12.3l.5-1 18.8-37L88 44.7l-.1-.1z" fill="#FF5000"/><path d="M232 0c-9 0-16.9 5-20.9 12.3l-.5 1-18.8 37L168 97.2l15.6 30.7.9 1.7c2.4 4.2 6 7.7 10.4 9.8 4.4-2.2 8-5.6 10.4-9.8l.9-1.7 46.7-92 1.1-2.2c1.3-3 2-6.2 2-9.7 0-13.3-10.8-24-24-24z" fill="url(#a)"/><path d="M24 141.9c9 0 16.9-5 20.9-12.3l.5-1 18.8-37L88 44.7 72.4 14l-.9-1.7c-2.4-4.2-6-7.7-10.4-9.8-4.4 2.2-8 5.6-10.4 9.8l-.8 1.7-46.7 92-1.2 2.3c-1.3 3-2 6.2-2 9.7 0 13.2 10.7 23.9 24 23.9z" fill="url(#b)"/><path d="M87.9 44.6L72.4 14l-.9-1.7c-2.4-4.2-6-7.7-10.4-9.8 1.4-.7 3-1.3 4.5-1.7 1.9-.5 4-.8 6-.8h32.8c9 .1 16.8 5 20.9 12.3l.7 1.7 42.1 83.3 15.5 30.6.9 1.7c2.4 4.2 6 7.7 10.4 9.8-1.4.7-3 1.3-4.5 1.7-1.9.5-4 .8-6.1.8h-32.6c-9-.1-16.8-5-20.9-12.3l-.9-1.7-42-83.3z" fill="#FF8C44"/></svg>