<svg version="1.1" xmlns="http://www.w3.org/2000/svg" viewBox="0 0 819 75.97" preserveAspectRatio="xMinYMin meet">
	<title>Symbol of the Government of Canada - Symbole du Gouvernement du Canada</title>
	<style>.fip_text {fill:#000;}.fip_flag {fill:#F00;}</style>
	<path d="M0,0 36.84,0 36.84,75.01 0,75.01z M118.54,0 155.38,0 155.38,75.01 118.54,75.01z M72.58,15.61,77.84,4.9l5.22,10.32c.65,1.09,1.18,1,2.22.48l4.49-2.22L86.85,27.89c-.61,2.83,1,3.66,2.75,1.74L96,22.79l1.7,3.87c.57,1.17,1.43,1,2.57.79l6.61-1.39-2.22,8.35,0,.18c-.26,1.09-.78,2,.44,2.53l2.35,1.17L93.77,49.82c-1.39,1.43-.91,1.87-.39,3.48l1.26,3.87-12.71-2.3c-1.57-.39-2.66-.39-2.7.87l.52,14.58H75.93l.52-14.54c0-1.43-1.09-1.39-3.66-.86L61,57.18l1.52-3.87c.52-1.48.66-2.48-.52-3.48L48.11,38.46l2.57-1.57c.74-.57.78-1.17.39-2.44L48.46,26l6.7,1.43c1.87.44,2.39,0,2.87-1l1.87-3.83L66.52,30c1.17,1.39,2.83.48,2.31-1.52L65.65,12.86l4.92,2.83c.78.48,1.61.61,2.09-.3" class="fip_flag" />
	</svg>
