<svg version="1.1" xmlns="http://www.w3.org/2000/svg" xmlns:cc="http://creativecommons.org/ns#" xmlns:dc="http://purl.org/dc/elements/1.1/" xmlns:rdf="http://www.w3.org/1999/02/22-rdf-syntax-ns#" viewBox="0.00 -0.01 697.98 697.97"><path d="m349 0c192.42 0 348.98 156.56 348.98 348.98 0 192.44-156.56 348.98-348.98 348.98-97.17 0-185.14-39.959-248.45-104.24-12.672-12.891-8.0048-29.184 9.03-35.138l38.257-13.392c11.342-3.9697 27.613-0.3708 36.949 7.2196 44.932 36.382 102.01 58.302 164.22 58.302 144.33 0 261.74-117.39 261.74-261.74 0-144.33-117.41-261.74-261.74-261.74-62.206 0-119.27 21.921-164.22 58.324-9.3353 7.5686-25.585 11.189-36.949 7.1978l-38.236-13.37c-17.057-5.9545-21.724-22.27-9.0518-35.138 63.319-64.322 151.28-104.26 248.45-104.26zm-277.02 213.46 269.61 94.357a43.612 43.612 0 0 1 29.206 41.18 43.645 43.645 0 0 1-29.227 41.18l-269.61 94.335c-4.6677 1.6359-9.5316 2.4429-14.396 2.4429a43.487 43.487 0 0 1-19.783-4.7549 43.541 43.541 0 0 1-21.986-26.283 369.59 369.59 0 0 1-15.792-106.92c0-36.229 5.3002-72.218 15.792-106.96a43.601 43.601 0 0 1 21.986-26.283 43.609 43.609 0 0 1 34.2-2.2902z" fill="#5b10ff" fill-rule="evenodd" stroke-width="2.7264"></path></svg>