<svg version="1.1" xmlns="http://www.w3.org/2000/svg" xmlns:cc="http://creativecommons.org/ns#" xmlns:dc="http://purl.org/dc/elements/1.1/" xmlns:rdf="http://www.w3.org/1999/02/22-rdf-syntax-ns#" viewBox="21.15 21.15 702.58 697.71"><g transform="matrix(9.7582 0 0 9.7582 21.15 21.15)" fill-rule="evenodd"><path d="m36 0c13.233 0 24 10.767 24 24s-10.767 24-24 24c-6.682 0-12.73-2.748-17.086-7.169-0.87-0.886-0.55-2.007 0.622-2.417l2.63-0.921c0.781-0.273 1.898-0.025 2.542 0.496a17.88 17.88 0 0 0 11.292 4.011c9.926 0 18-8.074 18-18s-8.074-18-18-18a17.887 17.887 0 0 0-11.292 4.01c-0.644 0.521-1.76 0.769-2.542 0.496l-2.63-0.92c-1.173-0.411-1.493-1.532-0.62-2.417 4.352-4.422 10.402-7.169 17.084-7.169zm-19.05 14.678 18.542 6.49a3.001 3.001 0 0 1-2e-3 5.664l-18.542 6.488a2.989 2.989 0 0 1-2.35-0.158 3 3 0 0 1-1.512-1.808 25.427 25.427 0 0 1 0-14.709 3 3 0 0 1 3.864-1.966z" fill="#5b10ff"></path><path d="m56.102 61.234c0.2 0 0.362 0.162 0.362 0.362v0.724c0 0.2-0.162 0.362-0.362 0.362h-5.33v2.837h3.882c0.199 0 0.36 0.162 0.36 0.362v0.725a0.361 0.361 0 0 1-0.36 0.361h-3.882v2.983h5.33c0.2 0 0.362 0.162 0.362 0.362v0.724c0 0.2-0.162 0.363-0.362 0.363h-6.054a0.725 0.725 0 0 1-0.724-0.725v-8.717c0-0.399 0.324-0.723 0.724-0.723zm-13.176-0.145c1.556 0.03 4.04 0.767 4.04 5.154 0 4.485-2.595 5.155-4.142 5.155h-2.776a0.724 0.724 0 0 1-0.724-0.724v-8.863c0-0.399 0.324-0.723 0.724-0.723zm22.576 0.145c0.2 0 0.361 0.162 0.361 0.362v0.724c0 0.2-0.162 0.362-0.36 0.362h-5.17v2.837h3.721c0.2 0 0.361 0.162 0.361 0.362v0.725a0.361 0.361 0 0 1-0.36 0.36h-3.723v4.434h-1.448v-9.441c0-0.4 0.324-0.724 0.725-0.724zm6.136 0c0.2 0 0.361 0.161 0.361 0.362v0.607c0 0.2-0.161 0.362-0.36 0.362h-1.117v7.5h1.116c0.2 0 0.361 0.162 0.361 0.363v0.608c0 0.2-0.161 0.362-0.36 0.362h-3.679a0.362 0.362 0 0 1-0.362-0.362v-0.608c0-0.2 0.161-0.363 0.361-0.363h1.115v-7.5h-1.114a0.362 0.362 0 0 1-0.361-0.362v-0.607c0-0.2 0.161-0.363 0.361-0.363zm-28.814 1.302h-2.052v7.414h2.052c0.667 0 2.694 0 2.694-3.707s-2.027-3.707-2.694-3.707z"></path><path d="m4.12 61c1.705 0 2.952 0.827 3.605 2.391l0.14 0.334a0.361 0.361 0 0 1-0.196 0.473l-0.668 0.28a0.361 0.361 0 0 1-0.473-0.195l-0.14-0.334c-0.428-1.024-1.148-1.501-2.268-1.501-2.326 0-2.672 2.14-2.672 3.416 0 0.441 0.043 1.391 0.088 1.586 5e-3 0.023 0.01 0.055 0.013 0.078 0.15 1.151 0.717 2.524 2.571 2.524 1.107 0 1.895-0.533 2.343-1.586l0.142-0.333a0.362 0.362 0 0 1 0.476-0.191l0.666 0.284a0.362 0.362 0 0 1 0.191 0.474l-0.143 0.334c-0.676 1.59-1.982 2.466-3.675 2.466-2.192 0-3.686-1.402-4.002-3.754-0.093-0.448-0.114-1.543-0.117-1.818l-1e-3 -0.064c0-3.001 1.579-4.864 4.12-4.864zm32.25 0.168c0.201 0 0.363 0.162 0.363 0.361v0.725c0 0.2-0.162 0.362-0.363 0.362h-5.329v2.837h3.881c0.2 0 0.362 0.162 0.362 0.362v0.724c0 0.2-0.162 0.362-0.362 0.362h-3.88v2.983h5.328c0.201 0 0.363 0.162 0.363 0.362v0.725a0.362 0.362 0 0 1-0.363 0.361h-6.053a0.724 0.724 0 0 1-0.724-0.724v-8.717c0-0.399 0.324-0.723 0.724-0.723zm-15.262 0c0.2 0 0.362 0.162 0.362 0.361v4.731l4.12-4.818a0.897 0.897 0 0 1 0.596-0.274h1.183c0.201 0 0.257 0.123 0.127 0.275l-3.462 4.06 3.672 5.514c0.111 0.167 0.038 0.301-0.16 0.301h-1.016a0.754 0.754 0 0 1-0.564-0.3l-2.912-4.375-1.584 1.832v2.481c0 0.2-0.162 0.362-0.362 0.362h-0.725a0.362 0.362 0 0 1-0.362-0.362v-9.426c0-0.199 0.162-0.36 0.362-0.36zm-6.845 0.03c0.311 0 0.59 0.199 0.686 0.496l3.083 9.28c0.063 0.19-0.048 0.345-0.248 0.345h-0.8a0.535 0.535 0 0 1-0.478-0.344l-0.789-2.375h-3.97l-0.063 0.19-0.722 2.185a0.533 0.533 0 0 1-0.476 0.344h-0.8c-0.2 0-0.312-0.154-0.249-0.344l3.067-9.281a0.724 0.724 0 0 1 0.688-0.496zm-0.523 1.448h-0.025l-1.489 4.506h3.01z" fill="#5b10ff"></path></g></svg>