<svg clip-rule="evenodd" fill-rule="evenodd" stroke-linejoin="round" stroke-miterlimit="2" version="1.1" viewBox="8.8573e-5 95.675 500 308.65" xml:space="preserve" xmlns="http://www.w3.org/2000/svg">
    <g transform="translate(2.8422e-14 95.674)">
        <g transform="matrix(1.7219 0 0 1.7219 -45.941 -46.824)">
            <path d="m270.17 79.905 13.47-52.712h-256.96l44.423 52.712h199.06z" fill="url(#i)"/>
        </g>
        <g transform="matrix(1.7219 0 0 1.7219 -45.941 -46.824)">
            <path d="m26.68 40.791 40.926 39.114h3.497l-44.423-52.712v13.598z" fill="url(#h)"/>
        </g>
        <g transform="matrix(1.7219 0 0 1.7219 -45.941 -46.824)">
            <path d="m134.95 141.68-43.517-51.547h175.62l-12.951 51.547h-119.15z" fill="url(#g)"/>
        </g>
        <g transform="matrix(1.7219 0 0 1.7219 -45.941 -46.824)">
            <path d="m131.84 141.68-40.408-38.595v-12.952l43.517 51.547h-3.109z" fill="url(#f)"/>
        </g>
        <g transform="matrix(1.7219 0 0 1.7219 -45.941 -46.824)">
            <path d="m207.22 206.44-44.035-51.806h87.551l-13.469 51.806h-30.047z" fill="url(#e)"/>
        </g>
        <g transform="matrix(1.7219 0 0 1.7219 -45.941 -46.824)">
            <path d="m163.19 167.59 41.444 38.854h2.591l-44.035-51.806v12.952z" fill="url(#d)"/>
        </g>
        <g transform="matrix(1.7219 0 0 1.7219 -45.941 -46.824)">
            <path d="m246.17 206.44h24.91l13.187-51.684h-24.91l-13.187 51.684z" fill="url(#c)"/>
        </g>
        <g transform="matrix(1.7219 0 0 1.7219 -45.941 -46.824)">
            <path d="m263.02 141.2h24.543l13.188-50.827h-24.91l-12.821 50.827z" fill="url(#b)"/>
        </g>
        <g transform="matrix(1.7219 0 0 1.7219 -45.941 -46.824)">
            <path d="m279.14 79.661h25.093l12.821-52.201h-25.093l-12.821 52.201z" fill="url(#a)"/>
        </g>
    </g>
    <defs>
        <linearGradient id="i" x2="1" gradientTransform="matrix(229.98 -25.903 25.903 229.98 54.155 58.211)" gradientUnits="userSpaceOnUse"><stop stop-color="#eef7fe" offset="0"/><stop stop-color="#1e97d0" offset="1"/></linearGradient>
        <linearGradient id="h" x2="1" gradientTransform="matrix(45.423 44.47 -44.47 45.423 26.18 35.935)" gradientUnits="userSpaceOnUse"><stop stop-color="#d6e9f7" offset="0"/><stop stop-color="#48a2d7" offset="1"/></linearGradient>
        <linearGradient id="g" x2="1" gradientTransform="matrix(147.61 -31.601 31.601 147.61 119.95 124.59)" gradientUnits="userSpaceOnUse"><stop stop-color="#d4eaf7" offset="0"/><stop stop-color="#1493c5" offset="1"/></linearGradient>
        <linearGradient id="f" x2="1" gradientTransform="matrix(44.517 52.047 -52.047 44.517 90.937 90.136)" gradientUnits="userSpaceOnUse"><stop stop-color="#d9ebf7" offset="0"/><stop stop-color="#318abb" offset="1"/></linearGradient>
        <linearGradient id="e" x2="1" gradientTransform="matrix(61.909 -29.932 29.932 61.909 188.83 184.57)" gradientUnits="userSpaceOnUse"><stop stop-color="#9dc4df" offset="0"/><stop stop-color="#137eab" offset="1"/></linearGradient>
        <linearGradient id="d" x2="1" gradientTransform="matrix(45.035 52.806 -52.806 45.035 162.69 154.13)" gradientUnits="userSpaceOnUse"><stop stop-color="#deeef8" offset="0"/><stop stop-color="#3586b3" offset="1"/></linearGradient>
        <linearGradient id="c" x2="1" gradientTransform="matrix(3.2259e-15 -52.684 52.684 3.2259e-15 265.22 206.94)" gradientUnits="userSpaceOnUse"><stop stop-color="#646368" offset="0"/><stop stop-color="#646368" offset="1"/></linearGradient>
        <linearGradient id="b" x2="1" gradientTransform="matrix(3.143e-15 -51.328 51.328 3.143e-15 282.07 141.7)" gradientUnits="userSpaceOnUse"><stop stop-color="#636267" offset="0"/><stop stop-color="#646368" offset="1"/></linearGradient>
        <linearGradient id="a" x2="1" gradientTransform="matrix(3.1966e-15 -52.204 52.204 3.1966e-15 300.57 79.663)" gradientUnits="userSpaceOnUse"><stop stop-color="#6b6a6f" offset="0"/><stop stop-color="#eaebed" offset="1"/></linearGradient>
    </defs>
</svg>
