<svg viewBox="0 0 480 389" fill="none" xmlns="http://www.w3.org/2000/svg">
<path fill-rule="evenodd" clip-rule="evenodd" d="M65.1155 0H474.181C479.287 0 481.165 4.12365 479.287 10.1929L436.435 80.7477C435.294 86.0338 430.396 89.9616 425.29 89.9616H264.646C262.07 90.1456 259.624 91.163 257.681 92.8592C255.738 94.5555 254.404 96.8378 253.881 99.3592L238.783 157.372C237.838 162.658 240.673 166.781 245.767 166.781H352.425C357.519 166.781 360.539 170.893 359.409 175.995L343.55 240.273C342.605 245.363 337.511 249.683 332.601 249.683H225.759C223.176 249.813 220.707 250.783 218.729 252.445C216.752 254.107 215.375 256.369 214.81 258.884L184.797 379.021C183.852 384.319 178.942 388.431 173.848 388.431H7.16534C2.05892 388.431 -0.764336 384.319 0.180842 379.021L10.185 341.786C11.1179 337.674 14.3338 333.563 18.1023 332.376C20.7169 331.691 23.8226 331.042 27.2718 330.333C49.0968 325.854 84.8292 318.524 96.0731 275.55L99.0928 262.029L134.015 126.414L136.851 112.685C147.665 72.121 92.1085 63.2986 62.7712 58.6488C56.2654 57.6087 51.036 56.7767 48.1268 55.8589C45.1071 53.7053 43.2168 50.7564 44.162 46.4492L54.1662 9.21397C54.7274 6.69493 56.1028 4.42918 58.0808 2.76466C60.0588 1.10013 62.5301 0.128865 65.1155 0Z" fill="#19B69B"/>
</svg>
