<svg xmlns="http://www.w3.org/2000/svg" viewBox="0 0 96 70"><path d="M18.17 22.02c2.545 1.095 5.6-.145 6.617-2.697 1.091-2.625-.145-5.688-2.835-6.708-2.618-1.021-5.527.218-6.617 2.843-1.018 2.552.218 5.47 2.835 6.563ZM6.536 28.803c2.618 1.094 5.672-.146 6.69-2.698 1.09-2.625-.146-5.687-2.836-6.635-2.618-1.094-5.526.146-6.617 2.77-1.018 2.553.218 5.47 2.763 6.563ZM3.191 41.708c2.545 1.094 5.6-.145 6.617-2.77 1.091-2.626-.145-5.615-2.835-6.636-2.545-1.094-5.527.219-6.617 2.77-1.018 2.553.218 5.543 2.835 6.636Zm27.85-15.604c2.545 1.094 5.599-.146 6.617-2.77 1.09-2.626-.146-5.615-2.836-6.636-2.618-1.094-5.526.219-6.617 2.77-.945 2.626.29 5.615 2.836 6.636Zm46.827-4.083c-2.617 1.094-5.671-.146-6.617-2.698-1.09-2.625.146-5.688 2.764-6.708a5.197 5.197 0 0 1 6.69 2.843c.945 2.552-.292 5.47-2.837 6.563Zm11.562 6.781c-2.618 1.094-5.6-.146-6.617-2.698-1.09-2.625.145-5.687 2.69-6.635a5.101 5.101 0 0 1 6.69 2.77c1.09 2.553-.218 5.47-2.763 6.563Zm3.417 12.906c-2.617 1.094-5.671-.145-6.69-2.77-1.09-2.626.146-5.615 2.837-6.636 2.617-1.094 5.599.219 6.69 2.77.945 2.553-.292 5.543-2.837 6.636ZM64.925 26.104c-2.617 1.094-5.671-.146-6.69-2.77-1.017-2.626.146-5.615 2.837-6.636 2.617-1.094 5.598.219 6.69 2.77 1.017 2.626-.219 5.615-2.837 6.636ZM50.673 12.906l6.472 3.427V6.781l-6.472 2.042c-.145-.219-.363-.438-.654-.656L52.637 0h-9.308l2.545 8.167c-.218.218-.436.364-.654.656L38.82 6.78v9.552l6.399-3.427c.218.219.436.51.654.656l-3.635 11.23v.073c-.146.583-.291 1.166-.291 1.75 0 2.99 2.254 5.468 5.09 5.906h.145c.218 0 .51.073.727.073.291 0 .51 0 .727-.073h.146c2.908-.438 5.163-2.99 5.163-5.906 0-.584-.073-1.24-.291-1.75v-.073l-3.709-11.23c.291-.145.51-.437.727-.656Zm-2.69 54.76c12.289 0 23.85.803 34.248 2.334 2.909-12.323 6.472-19.469 10.18-24.427l-6.98-2.48c.727 3.574.8 5.25 0 7.438-1.091-1.02-2.182-3.135-3.054-6.343l-3.418 11.229c2.036-1.459 3.636-2.334 5.454-2.407-3.2 6.855-7.272 8.678-9.89 8.167-3.126-.583-4.58-3.354-4.071-5.76.727-3.427 4.144-4.302 5.817-.365 3.126-6.344-2.182-8.312-5.527-6.417 5.163-5.25 5.745-9.843 1.527-15.385-5.817 4.448-5.89 8.969-3.272 15.167-3.417-3.938-8.798-1.823-6.907 4.52 2.472-3.791 5.744-1.458 5.235 2.26-.436 3.136-4.654 5.688-9.816 5.25-7.49-.655-7.926-5.832-8.144-10.062 1.817-.364 5.162 1.313 7.998 5.323l.945-11.958c-2.98 3.208-5.817 3.865-8.943 3.938 1.018-3.209 5.817-8.459 5.817-8.459H40.348s4.654 5.25 5.745 8.459c-3.054-.073-5.818-.73-8.944-3.938l1.018 11.958c2.836-4.01 6.18-5.614 7.926-5.323-.219 4.23-.655 9.334-8.072 10.063-5.235.437-9.38-2.115-9.816-5.25-.51-3.646 2.763-6.052 5.163-2.26 1.963-6.344-3.345-8.459-6.835-4.521 2.69-6.198 2.617-10.72-3.345-15.167-4.218 5.542-3.636 10.135 1.6 15.385-3.418-1.895-8.654.073-5.6 6.417 1.673-4.01 5.163-3.062 5.89.365.51 2.406-.945 5.177-4.144 5.76-2.545.51-6.545-1.312-9.817-8.167 1.818.073 3.418.948 5.454 2.407l-3.418-11.23c-.872 3.209-1.963 5.25-3.127 6.344-.8-2.187-.654-3.864 0-7.437L3.12 45.573C6.754 50.604 10.317 57.75 13.299 70c10.761-1.531 22.395-2.333 34.684-2.333Z" fill="#FFF" fill-rule="evenodd"/></svg>