<svg viewBox="0 0 14.8224 14.82353" xmlns="http://www.w3.org/2000/svg"><path d="m208.09274 128.39697c-79.0477 0-156.422432-56.88088-156.422432-185.281108 0-128.818472 77.374732-184.862862 156.422432-184.862862 38.89648 0 69.42813 10.0378 91.1767 24.25802l-23.83978 52.28022c-14.63846-10.45604-36.38703-17.14791-58.1356-17.14791-47.67957 0-91.17671 37.64176-91.17671 124.636052 0 86.994288 44.75187 125.472532 91.17671 125.472532 21.74857 0 43.49714-6.691868 58.1356-17.147913l23.83978 53.534949c-22.58506 15.0567-52.28022 24.25802-91.1767 24.25802" fill="#0081c9" stroke-width="4.182418" transform="matrix(.04004801 0 0 .04004801 .383981 9.681487)"/></svg>