<svg version="1.1" id="svg2" xml:space="preserve" viewBox="5.363617674447596e-7 0.000030517578125 136.1650390625 54.55677795410156" sodipodi:docname="tue.svg" width="136.16504" height="54.556782" inkscape:version="1.1.1 (3bf5ae0d25, 2021-09-20, custom)" xmlns:inkscape="http://www.inkscape.org/namespaces/inkscape" xmlns:sodipodi="http://sodipodi.sourceforge.net/DTD/sodipodi-0.dtd" xmlns="http://www.w3.org/2000/svg" xmlns:svg="http://www.w3.org/2000/svg"><sodipodi:namedview id="namedview420" pagecolor="#ffffff" bordercolor="#666666" borderopacity="1.0" inkscape:pageshadow="2" inkscape:pageopacity="0.0" inkscape:pagecheckerboard="0" showgrid="false" inkscape:zoom="11.767938" inkscape:cx="70.870532" inkscape:cy="18.779841" inkscape:window-width="1916" inkscape:window-height="917" inkscape:window-x="1920" inkscape:window-y="1239" inkscape:window-maximized="1" inkscape:current-layer="g10"></sodipodi:namedview>
    <defs id="defs6">
      <clipPath clipPathUnits="userSpaceOnUse" id="clipPath18">
        <path d="M 0,153.071 H 153.071 V 0 H 0 Z" id="path16"></path>
      </clipPath>
      <clipPath clipPathUnits="userSpaceOnUse" id="clipPath26">
        <path d="M 0,153.071 H 153.071 V 0 H 0 Z" id="path24"></path>
      </clipPath>
      <clipPath clipPathUnits="userSpaceOnUse" id="clipPath44">
        <path d="M 0,153.071 H 153.071 V 0 H 0 Z" id="path42"></path>
      </clipPath>
    </defs>
    <g id="g10" inkscape:groupmode="layer" inkscape:label="TUe-logo-square-scarlet-rgb" transform="matrix(1.3333333,0,0,-1.3333333,-33.668008,129.23629)">
      <g id="g12" transform="matrix(0.66716612,0,0,0.26731117,25.251007,56.009619)">
        <g id="g14" clip-path="url(#clipPath18)">
          <g id="g20">
            <g id="g22"></g>
            <g id="g32">
              <g clip-path="url(#clipPath26)" opacity="0" id="g30">
                <path d="M 153.071,0 H 0 v 153.071 h 153.071 z" style="fill:#ffffff;fill-opacity:1;fill-rule:nonzero;stroke:none" id="path28"></path>
              </g>
            </g>
          </g>
        </g>
      </g>
      <g id="g34" transform="translate(43.1012,87.5177)">
        <path d="M 0,0 V -26.324 H -8.22 V 0 h -9.613 V 6.839 H 9.613 V 0 Z" style="fill:#c81919;fill-opacity:1;fill-rule:nonzero;stroke:none" id="path36"></path>
      </g>
      <g id="g38">
        <g id="g40" clip-path="url(#clipPath44)">
          <g id="g46" transform="translate(84.026,68.2433)">
            <path d="m 0,0 c -0.689,-1.639 -1.675,-3.044 -2.956,-4.215 -1.282,-1.171 -2.829,-2.085 -4.639,-2.741 -1.811,-0.655 -3.821,-0.983 -6.032,-0.983 -2.244,0 -4.262,0.328 -6.057,0.983 -1.795,0.656 -3.316,1.57 -4.566,2.741 -1.25,1.171 -2.211,2.576 -2.884,4.215 -0.673,1.64 -1.01,3.458 -1.01,5.457 v 20.656 h 8.172 v -20 c 0,-0.906 0.12,-1.765 0.361,-2.576 0.24,-0.813 0.608,-1.539 1.105,-2.179 0.496,-0.64 1.154,-1.147 1.971,-1.522 0.817,-0.375 1.802,-0.562 2.956,-0.562 1.154,0 2.139,0.187 2.956,0.562 0.817,0.375 1.482,0.882 1.995,1.522 0.512,0.64 0.881,1.366 1.105,2.179 0.224,0.811 0.337,1.67 0.337,2.576 v 20 H 1.033 V 5.457 C 1.033,3.458 0.689,1.64 0,0" style="fill:#c81919;fill-opacity:1;fill-rule:nonzero;stroke:none" id="path48"></path>
          </g>
          <g id="g50" transform="translate(90.1454,56.0886)">
            <path d="M 0,0 16.665,40.819 H 10.712 L -5.952,0 Z" style="fill:#c81919;fill-opacity:1;fill-rule:nonzero;stroke:none" id="path52"></path>
          </g>
          <g id="g54" transform="translate(114.9034,79.765)">
            <path d="M 0,0 C 2.943,0 5.464,-1.806 6.516,-4.37 H -6.516 C -5.464,-1.806 -2.943,0 0,0 m 0,5.373 c -6.857,0 -12.415,-5.559 -12.415,-12.415 0,-6.857 5.558,-12.416 12.415,-12.416 4.4,0 8.896,1.926 11.323,5.395 l -5.631,2.296 C 4.193,-13.429 2.139,-14.085 0,-14.085 c -3.156,0 -5.827,2.076 -6.722,4.937 h 18.956 c 0.117,0.685 0.181,1.388 0.181,2.106 C 12.415,-0.186 6.857,5.373 0,5.373" style="fill:#c81919;fill-opacity:1;fill-rule:nonzero;stroke:none" id="path56"></path>
          </g>
        </g>
      </g>
    </g>
  </svg>
