<svg viewBox="0 0 838 717" version="1.1" xmlns="http://www.w3.org/2000/svg" xmlns:xlink="http://www.w3.org/1999/xlink" xml:space="preserve" xmlns:serif="http://www.serif.com/" style="fill-rule:evenodd;clip-rule:evenodd;stroke-linejoin:round;stroke-miterlimit:2;">
    <path d="M418.743,581.733C470.172,581.733 511.863,540.037 511.863,488.608L325.618,488.608C325.618,540.037 367.309,581.733 418.743,581.733Z" style="fill:rgb(111,48,159);fill-rule:nonzero;"/>
    <path d="M210.601,373.606C178.843,373.606 153.097,399.352 153.097,431.106L268.101,431.106C268.101,399.352 242.355,373.606 210.601,373.606Z" style="fill:rgb(111,48,159);fill-rule:nonzero;"/>
    <path d="M627.294,373.618C595.535,373.618 569.794,399.364 569.794,431.118L684.79,431.118C684.79,399.364 659.048,373.618 627.294,373.618Z" style="fill:rgb(111,48,159);fill-rule:nonzero;"/>
    <path d="M418.743,86.045C442.503,86.045 461.766,66.783 461.766,43.027C461.766,19.261 442.503,0 418.743,0C394.982,0 375.72,19.261 375.72,43.027C375.72,66.783 394.982,86.045 418.743,86.045Z" style="fill:rgb(111,48,159);fill-rule:nonzero;"/>
    <path d="M763.634,629.803C752.013,642.812 736.005,650.424 718.559,651.245C646.676,654.608 536.318,658.616 418.743,658.616C301.168,658.616 190.809,654.608 118.926,651.245C101.48,650.424 85.472,642.812 73.847,629.799C62.255,616.82 56.501,600.104 57.643,582.737C61.434,525.237 66.564,474.328 72.88,431.429C82.255,367.77 96.351,303.137 106.53,260.124C113.093,232.362 136.634,212.516 165.109,210.745C217.234,207.495 303.547,203.62 418.743,203.62C533.93,203.62 620.251,207.495 672.38,210.745C700.851,212.516 724.389,232.362 730.955,260.124C741.138,303.158 755.238,367.808 764.605,431.429C770.918,474.328 776.047,525.237 779.839,582.737C780.98,600.108 775.226,616.824 763.634,629.803ZM821.488,423.054C811.826,357.408 797.351,291.02 786.914,246.887C774.472,194.303 729.884,156.716 675.955,153.358C623.014,150.058 535.414,146.12 418.743,146.12C302.068,146.12 214.468,150.058 161.534,153.358C107.601,156.716 63.005,194.303 50.572,246.887C40.134,290.995 25.668,357.362 15.993,423.054C9.451,467.466 4.159,519.92 0.272,578.953C-1.903,611.853 9.001,643.512 30.964,668.108C52.955,692.728 83.243,707.137 116.243,708.683C188.734,712.074 300.051,716.12 418.743,716.12C537.426,716.12 648.751,712.074 721.243,708.683C754.243,707.137 784.526,692.728 806.518,668.108C828.484,643.516 839.384,611.858 837.209,578.953C833.318,519.92 828.03,467.466 821.488,423.054Z" style="fill:rgb(111,48,159);fill-rule:nonzero;"/>
</svg>
