<svg xmlns="http://www.w3.org/2000/svg" xmlns:xlink="http://www.w3.org/1999/xlink" viewBox="63.36700439453125 2.5596923828125 125.560546875 98.62560272216797" version="1.1">
    
    <g id="Designs" stroke="none" stroke-width="1" fill="none" fill-rule="evenodd">
        <g id="Style-Guide" transform="translate(-205.000000, -840.000000)">
            <g id="TopRow" transform="translate(205.000000, 840.000000)">
                
                <g id="Logo1" transform="translate(0.000000, 2.000000)">
                    <path d="M182.731458,79.7860891 C180.027557,79.5167164 175.229999,78.8481891 169.22627,81.8791982 C163.226308,84.9102073 160.863691,85.0407436 157.918707,84.7268527 C158.784347,86.3129073 160.538982,88.4897709 166.056024,88.8783618 C171.571559,89.2677073 174.209161,89.4382345 171.30712,96.3227073 C171.373418,94.24318 170.888991,90.2229618 165.411879,90.9284618 C159.938533,91.6347164 158.658532,96.5709527 164.531925,99.0345436 C162.622093,99.4186073 158.574152,99.6479891 155.681906,92.0715982 C153.678654,92.9430982 150.590526,94.69138 144.991366,90.3595345 C146.941127,91.0680527 149.354974,91.1118164 149.354974,91.1118164 C144.383383,88.7357527 139.637055,84.31638 136.594131,80.1399709 C139.005718,81.9388073 141.667429,83.7308527 144.357768,84.0666255 C141.178482,80.1814709 133.823933,72.4111618 124.825496,64.4273164 C130.611497,68.2098527 137.592367,74.1926436 149.016704,72.8480436 C160.443302,71.5026891 168.12256,68.8806436 182.731458,79.7860891" id="Fill-13" fill="#EB462A"></path>
                    <path d="M133.829508,77.0880609 C126.663305,73.9785791 125.129412,73.35457 115.918521,71.0094427 C106.706123,68.66507 97.6444029,63.7876882 91.5871836,56.1743245 C95.8596327,59.3079518 104.580823,65.6129336 113.537823,64.93007 C112.175702,62.9335427 109.665422,61.3784245 106.663181,59.8097245 C110.057182,60.6238791 120.303225,63.2481882 133.829508,77.0880609" id="Fill-15" fill="#EB462A"></path>
                    <path d="M118.231565,50.5302491 C116.383511,45.2227764 113.05204,38.4265855 97.2460127,28.3300127 C89.5479198,23.2421127 78.2471376,16.8526218 63.367021,0.559721818 C64.4308013,4.95117636 69.13268,16.3719764 92.8228865,31.1987945 C100.606112,36.5168309 110.650247,39.7991036 118.231565,50.5302491" id="Fill-17" fill="#EB462A"></path>
                    <path d="M119.208405,58.2237455 C117.263164,53.7311818 113.356106,47.9679636 98.0442999,39.7396455 C90.985078,35.7782818 78.9218696,29.6845727 68.0738721,18.0977727 C69.0585469,22.2809727 74.0941755,31.4698273 95.7615419,42.9457091 C101.762257,46.2574091 111.906593,49.3623636 119.208405,58.2237455" id="Fill-19" fill="#EB462A"></path>
                    <path d="M134.058687,35.0031373 C104.212568,26.4503645 92.3437333,15.6558373 83.1622245,4.35425545 C87.3540613,17.3618645 97.3552536,22.0159009 108.036753,30.7482555 C118.719759,39.4821191 119.327741,44.1746373 122.473879,49.3342191 C129.484131,60.82821 130.599141,62.7274009 137.556656,67.7458827 C145.75575,73.1937009 155.673317,69.5069918 166.552203,71.2152827 C177.429583,72.9228191 186.421239,81.2273464 188.377027,84.4228464 C190.657525,80.3483009 185.209795,74.4771827 183.738433,73.0035555 C184.523461,67.6659009 171.922335,65.3207736 167.150391,63.4940191 C166.213933,63.13561 163.894259,62.5976191 165.905799,57.8077645 C168.617986,51.1971918 171.443182,45.4452918 134.058687,35.0031373 M177.132749,70.0736555 C182.792181,70.9300645 182.506648,72.1320555 182.567672,74.2040373 C180.159852,71.5699191 177.132749,70.0736555 177.132749,70.0736555" id="Fill-21" fill="#EB462A"></path>
                    
                    
                </g>
            </g>
        </g>
    </g>
</svg>
