<svg clip-rule="evenodd" fill-rule="evenodd" stroke-linejoin="round" stroke-miterlimit="2" version="1.1" viewBox="5.9887e-6 165.02 500 169.96" xml:space="preserve" xmlns="http://www.w3.org/2000/svg">
    <g transform="matrix(.60183 0 0 .60183 -4.3332 160.87)">
        <path d="m837.7 243v-2.9c0.1-0.1 0.1 0 0.2 0v2.9c0 0.1-0.1 0.1-0.2 0z" fill="#fddb3f" fill-rule="nonzero"/>
    </g>
    <g transform="matrix(.60183 0 0 .60183 -4.3332 160.87)">
        <rect x="837.7" y="238" width=".2" height="2.1" fill="#fdeb94" fill-rule="nonzero"/>
    </g>
    <g transform="matrix(.60183 0 0 .60183 -4.3332 160.87)">
        <path d="m837.7 243h0.2v1.7c-0.4-0.5-0.1-1.1-0.2-1.7z" fill="#fee679" fill-rule="nonzero"/>
    </g>
    <g transform="matrix(.60183 0 0 .60183 -4.3332 160.87)">
        <path d="m179.2 7.3c14 0.7 27.7 2.6 41.5 5.2 7.4 1.4 14.8 3 22 5.4 1.1 0.4 2.2 0.9 3.3 1.2 1 0.3 1.3 0.8 1.3 1.9v71.3c-4.2-1.2-8.3-2.4-12.4-3.6-13.1-3.7-26.5-6.7-40-8.5-12.4-1.7-24.9-2.2-37.4-0.5-10.8 1.4-21.1 4.3-30.4 10.1-11.7 7.3-19.2 17.8-23.6 30.7-2.8 8.4-4.1 17.1-4.4 26-0.3 7.9 0 15.8 1.2 23.7 1.5 9.3 4.2 18.2 9.5 26.1 7 10.3 16.9 16.2 28.8 18.9 6.5 1.5 13.1 2.3 19.7 1.6 12.4-1.2 23.3-5.8 31.5-15.7 0.4-0.4 0.7-0.9 1-1.4 0.1-0.1 0.1-0.2 0.1-0.3-0.4-0.2-0.9-0.1-1.3-0.1h-47.5c-1.1 0-1.5-0.2-1.5-1.4v-58.1c0-1.1 0.3-1.4 1.4-1.4h132.8c1.1 0 1.4 0.3 1.4 1.4v143.5c0 1-0.2 1.3-1.3 1.3h-53.8c-1.2 0-1.4-0.4-1.4-1.5l0.3-37.8c0-0.4 0-0.9-0.2-1.4-0.4 0.7-0.7 1.4-1.1 2.1-5.6 10.4-13.8 18.4-23.4 24.9-13 8.7-27.3 14-42.7 16.6-4.5 0.7-8.9 1.2-13.5 1.4-0.5 0.2-1 0-1.5 0.1h-10.3c-12.2 0-24.1-2-35.8-5.4-6.6-1.9-13-4.4-19.2-7.5-8.4-4.2-16.2-9.5-23.3-15.8-7.7-6.9-14.7-14.6-20.4-23.3-6.6-10-11.5-20.8-15-32.3-2.1-7.1-3.8-14.4-4.8-21.8-0.8-5.4-1.5-10.8-1.5-16.3 0-1.6-0.1-3.2-0.1-4.8v-14.6c0-14 2.3-27.7 6.3-41.1 2.3-7.6 5.2-15 8.8-22.1 4.7-9.3 10.6-18 17.5-25.9 8.1-9.4 17.4-17.5 27.7-24.4 9.9-6.7 20.6-11.9 31.8-16 12.5-4.6 25.4-7.5 38.6-9.2 6.6-0.9 13.3-1.5 19.9-1.5h3.2c0.7-0.1 1.5 0.1 2.2-0.1h10.8c0.7 0.3 1.5 0.1 2.2 0.1h1.4c0.6 0.3 1.1 0.1 1.6 0.3z" fill="#061ab1" fill-rule="nonzero"/>
    </g>
    <g transform="matrix(.60183 0 0 .60183 -4.3332 160.87)">
        <path d="m595.1 289.1c-7.6-0.2-15.2-0.6-22.7-1.2-10.2-0.8-20.3-2-30.4-3.7-8.8-1.5-17.5-3.3-26-5.9-1-0.3-1.3-0.7-1.3-1.8v-71.7c0-1.5 0-1.5 1.4-1.1 11.5 3.6 23.3 6.3 35.2 8.6 9.1 1.8 18.3 3.3 27.5 4.5 7.3 0.9 14.7 1.5 22.1 1.7 6.6 0.2 13.2-0.1 19.7-1.3 3.7-0.7 7.3-1.8 10.5-3.9 4.4-2.8 6.3-7 5.4-11.8-0.4-2.3-1.8-3.9-3.7-5.1-3.1-2-6.5-3.1-10-3.9-10.9-2.5-21.8-5-32.7-7.4-12-2.6-23.7-6-34.9-11.3-12-5.7-22.6-13.3-30.5-24.1-6.5-8.9-10.4-18.9-12.4-29.7-1.1-5.9-1.5-11.8-1.5-17.8 0-16.2 2.9-31.7 10.8-46 8.3-15.2 20.4-26.5 35.7-34.6 11.2-5.9 23.1-9.6 35.5-11.8 7.2-1.3 14.5-2 21.8-2.4 0.5-0.2 1 0 1.4-0.1h1.6c0.7-0.1 1.3 0.1 2-0.1h10.1c0.7 0.3 1.5 0.1 2.2 0.1h3c6.4 0 12.8 0.5 19.1 1.2 11 1.1 22 2.5 32.9 4.4 6.9 1.2 13.8 2.5 20.7 4.2 2 0.5 2 0.6 2 2.6v67.9c0 1.7-0.2 1.8-1.9 1.4-8-2-16-3.8-24.1-5.3-9.1-1.7-18.2-3.3-27.3-4.5-6.3-0.8-12.6-1.5-19-2-5.5-0.4-11.1-0.4-16.7-0.2-5.8 0.2-11.5 1.1-16.7 3.9-3.3 1.8-5.9 4.3-6.7 8.1-0.9 4.1 0.7 7.5 4.4 9.9 2.7 1.8 5.7 2.9 8.8 3.7 9 2.3 18 4.3 27.1 6.5 8.3 2 16.7 3.8 24.8 6.5 11.6 3.9 22.7 8.9 32.5 16.5 10.5 8.1 18.4 18.3 23 30.8 2.7 7.4 4.3 15.1 5 23 0.5 6 0.6 12 0.2 18-1.2 16.1-5.9 31-15.5 44.1-5.8 8-12.9 14.6-20.9 20.3-11.1 7.7-23.4 12.8-36.4 16.2-7.4 1.9-14.9 3.2-22.4 4-5.2 0.6-10.4 0.8-15.5 0.8h-14.4c-1-0.2-1.9 0-2.8-0.2z" fill="#061ab1" fill-rule="nonzero"/>
    </g>
    <g transform="matrix(.60183 0 0 .60183 -4.3332 160.87)">
        <path d="m837.9 245.4c-0.6 1.6-0.6 3.4-0.9 5.1-1.8 8.8-5.6 16.4-11.8 22.9-7.4 7.9-16.5 12.7-27.2 14.1-14.8 2-27.8-2.2-38.7-12.5-7.4-7-12-15.7-13.6-25.8-2.2-14.2 1.3-27 10.6-37.9 7.2-8.4 16.3-13.8 27.3-15.4 17.8-2.7 32.7 2.9 44.2 16.8 6 7.3 9.2 15.8 10 25.2 0.2 0.7 0 1.4 0.1 2.2v2.8c0.1 0.6-0.1 1.2 0.1 1.8-0.1 0.2-0.1 0.5-0.1 0.7z" fill="#ffd101" fill-rule="nonzero"/>
    </g>
    <g transform="matrix(.60183 0 0 .60183 -4.3332 160.87)">
        <path d="m303.9 148.1v-135.1c0-1.2 0.3-1.4 1.4-1.4h84.7c1.1 0 1.3 0.3 1.3 1.4v198.9c0 1.6 0 1.6 1.6 1.6h92.5c1.2 0 1.4 0.3 1.4 1.4v68.4c0 1.2-0.4 1.4-1.5 1.4h-180c-1.3 0-1.5-0.3-1.5-1.6 0.1-45 0.1-90 0.1-135z" fill="#061ab1" fill-rule="nonzero"/>
    </g>
</svg>
