<svg clip-rule="evenodd" fill-rule="evenodd" stroke-linejoin="round" stroke-miterlimit="2" version="1.1" viewBox="31.25 2.8422e-14 437.5 500" xml:space="preserve" xmlns="http://www.w3.org/2000/svg">
    <g transform="matrix(15.625 0 0 15.625 3.1974e-14 2.8422e-14)" fill-rule="nonzero">
        <path d="m30 14.004c0 3.162-1.071 6.231-3.038 8.707s-4.715 4.214-7.795 4.93l-3.167 4.359-3.167-4.359c-3.08-0.716-5.828-2.454-7.795-4.93s-3.038-5.545-3.038-8.707c0-0.404 0.017-0.803 0.051-1.199 0.298-3.493 1.897-6.747 4.48-9.118s5.962-3.687 9.469-3.687 6.886 1.316 9.469 3.687 4.182 5.625 4.48 9.118c0.034 0.395 0.051 0.795 0.051 1.199z" fill="#ffa300"/>
        <path d="m21.951 9.41-5.284 3.052c-0.203 0.117-0.433 0.178-0.667 0.178s-0.464-0.061-0.667-0.178l-5.284-3.052c-0.05-0.029-0.092-0.071-0.121-0.122-0.03-0.051-0.045-0.108-0.045-0.166 0-0.059 0.015-0.116 0.045-0.167 0.029-0.05 0.071-0.092 0.121-0.122l5.284-3.05c0.203-0.118 0.433-0.179 0.667-0.179s0.464 0.061 0.667 0.179l5.284 3.05c0.05 0.03 0.092 0.072 0.121 0.122 0.03 0.051 0.045 0.108 0.045 0.167 0 0.058-0.015 0.115-0.045 0.166-0.029 0.051-0.071 0.093-0.121 0.122z" fill="#fff"/>
        <path d="m15 15.349v5.829c0 0.059-0.015 0.116-0.044 0.167-0.03 0.051-0.072 0.093-0.122 0.122-0.051 0.03-0.109 0.045-0.167 0.045-0.059 0-0.116-0.015-0.167-0.045l-5.167-2.983c-0.202-0.117-0.37-0.284-0.487-0.486s-0.179-0.431-0.179-0.665v-5.833c0-0.059 0.015-0.116 0.044-0.167s0.071-0.093 0.122-0.122 0.108-0.045 0.167-0.045c0.058 0 0.116 0.016 0.167 0.045l5.166 2.983c0.203 0.117 0.371 0.286 0.488 0.488 0.118 0.203 0.179 0.433 0.179 0.667z" fill="#fff"/>
        <path d="m23.333 11.5v5.833c0 0.234-0.061 0.464-0.178 0.667s-0.286 0.371-0.488 0.488l-5.167 2.984c-0.051 0.029-0.108 0.044-0.167 0.044-0.058 0-0.116-0.015-0.166-0.044-0.051-0.03-0.093-0.072-0.122-0.123-0.03-0.05-0.045-0.108-0.045-0.167v-5.833c0-0.234 0.062-0.464 0.179-0.667 0.117-0.202 0.285-0.371 0.488-0.488l5.166-2.983c0.051-0.029 0.109-0.045 0.167-0.045 0.059 0 0.116 0.016 0.167 0.045s0.093 0.071 0.122 0.122 0.044 0.108 0.044 0.167z" fill="#fff"/>
    </g>
</svg>
