<svg viewBox="0 0 480 341" fill="none" xmlns="http://www.w3.org/2000/svg">
<g clip-path="url(#clip0_1_24)">
<path fill-rule="evenodd" clip-rule="evenodd" d="M4.93162 6.76911C6.20142 4.73625 7.96821 3.0607 10.0651 1.9007C12.1621 0.7407 14.52 0.134522 16.9161 0.13941H165.654C168.312 0.145891 170.913 0.904157 173.159 2.32667C175.404 3.74918 177.201 5.77793 178.343 8.1787L240.093 136.807L301.695 8.03929C302.839 5.63615 304.638 3.60581 306.887 2.18313C309.135 0.760454 311.74 0.0035606 314.4 0L463.123 0C465.5 0.00530757 467.838 0.612057 469.918 1.76381C471.998 2.91557 473.753 4.57492 475.02 6.58753C476.287 8.60013 477.025 10.9006 477.165 13.275C477.305 15.6494 476.842 18.0205 475.819 20.1679L327.081 330.587C325.939 332.987 324.141 335.015 321.896 336.438C319.651 337.86 317.05 338.619 314.392 338.626H165.654C162.995 338.621 160.392 337.864 158.145 336.441C155.898 335.018 154.1 332.989 152.957 330.587L4.23485 20.3073C3.20494 18.1738 2.7289 15.8151 2.85068 13.449C2.97246 11.0829 3.68813 8.78554 4.93162 6.76911ZM314.385 46.6868L366.55 155.279H262.219L314.09 46.6868H314.377H314.385ZM39.4684 28.3466L91.3548 136.947L143.52 28.3466H39.1897H39.4839H39.4684ZM165.654 46.6868L217.812 155.279H113.628L165.507 46.6868H165.654ZM336.945 28.3466L388.823 136.947L440.988 28.3466H336.658H336.945ZM314.385 292.087L262.506 183.486H366.403L314.245 292.087H314.385ZM292.111 310.419L239.946 201.834L188.067 310.419H292.111ZM165.794 292.087L113.628 183.486H217.68L165.507 292.087H165.794Z" fill="#25C4F2"/>
</g>
<defs>
<clipPath id="clip0_1_24">
<rect width="480" height="340.779" fill="white"/>
</clipPath>
</defs>
</svg>
