<svg viewBox="-0.000011829928553197533 -2.3640336621610913e-7 99.98711395263672 76.32435607910156" version="1.1"
     id="svg5" xml:space="preserve" inkscape:export-filename="logo.svg" inkscape:export-xdpi="63.5"
     inkscape:export-ydpi="63.5" xmlns:inkscape="http://www.inkscape.org/namespaces/inkscape"
     xmlns:sodipodi="http://sodipodi.sourceforge.net/DTD/sodipodi-0.dtd" xmlns="http://www.w3.org/2000/svg"
     xmlns:svg="http://www.w3.org/2000/svg"><sodipodi:namedview id="namedview7" pagecolor="#505050" bordercolor="#eeeeee" borderopacity="1" inkscape:showpageshadow="false" inkscape:pageopacity="0" inkscape:pagecheckerboard="false" inkscape:deskcolor="#505050" inkscape:document-units="pt" showgrid="false" showguides="true" shape-rendering="auto"></sodipodi:namedview>
    <defs id="defs2"><linearGradient id="gradient" x1="124.883" y1="17.983" x2="117.483" y2="2.1129999" gradientUnits="userSpaceOnUse"><stop offset="0.006" stop-color="#bfbfbd" id="stop99"></stop><stop
            offset="0.046" stop-color="#c7c7c5" id="stop101"></stop><stop offset="0.276" stop-color="#efefef"
                                                                          id="stop103"></stop><stop offset="0.393"
                                                                                                    stop-color="#fff"
                                                                                                    id="stop105"></stop></linearGradient>
        <linearGradient id="linear-gradient" x1="116.71" y1="31.343" x2="102.594" y2="14.521"
                        gradientUnits="userSpaceOnUse"><stop offset="0" stop-color="#df8200" id="stop108"></stop>
            <stop offset="0.392" stop-color="#f0a800" id="stop110"></stop>
            <stop offset="0.713" stop-color="#ffcb00" id="stop112"></stop>
            <stop offset="1" stop-color="#ffcb00" id="stop114"></stop></linearGradient>
        <linearGradient id="linear-gradient-2" x1="106.335" y1="23.516001" x2="140.192" y2="23.516001"
                        gradientUnits="userSpaceOnUse"><stop offset="0" stop-color="#fcc200" id="stop117"></stop>
            <stop offset="1" stop-color="#ffcb00" id="stop119"></stop></linearGradient></defs>
    <g id="mojeid_full" transform="matrix(2.2564483,0,0,2.2564483,-238.46823,-1.5456671)" inkscape:label="MojeID"
       style="display:inline" inkscape:groupmode="layer"><path d="m 133.293,1.094 h -13.627 v 19.322 a 42.906,42.906 0 0 1 6.919,-4.057 V 8.011 h 6.708 v 0.013 a 9.7775,9.7775 0 0 1 0,19.555 v 0.006 h -6.708 v -6.037 c 0,-0.173 -0.157,-0.171 -0.236,-0.113 a 31.892,31.892 0 0 0 -6.683,6.25 v 6.825 h 13.627 a 16.7075,16.7075 0 0 0 0,-33.415 z" style="fill:#ffffff" id="path126"></path>
        <polygon points="119.666,1.094 126.585,8.011 126.585,16.359 119.666,20.416 " style="fill:url(#gradient)"
                 id="polygon128"></polygon>
        <rect x="106.335" y="11.382" width="6.6339998" height="23.101" style="fill:url(#linear-gradient)"
              id="rect130"></rect>
        <path d="m 140.191,13.257 a 0.789,0.789 0 0 0 -0.2,-0.505 0.935,0.935 0 0 0 -0.82,-0.191 42.336,42.336 0 0 0 -32.84,21.922 h 6.634 c 7.037,-12.392 17.369,-17.99 26.691,-20.609 0.416,-0.138 0.544,-0.391 0.535,-0.617 z"
              style="fill:url(#linear-gradient-2);image-rendering:auto" id="path132"></path>
        <path d="m 109.652,0.685 a 3.969,3.969 0 1 1 -3.969,3.968 3.971,3.971 0 0 1 3.969,-3.968 z" style="fill:#ffcb00"
              id="path142"></path></g></svg>