<svg id="ilu" xmlns="http://www.w3.org/2000/svg" xmlns:xlink="http://www.w3.org/1999/xlink"
     viewBox="0 0.6849998831748962 149.99472045898438 42.62900161743164">
    <defs>
        <linearGradient id="Nepojmenovaný_přechod_15" x1="124.883" y1="17.983" x2="117.483" y2="2.113"
                        gradientUnits="userSpaceOnUse">
            <stop offset="0.006" stop-color="#bfbfbd"></stop>
            <stop offset="0.046" stop-color="#c7c7c5"></stop>
            <stop offset="0.276" stop-color="#efefef"></stop>
            <stop offset="0.393" stop-color="#fff"></stop>
        </linearGradient>
        <linearGradient id="linear-gradient" x1="116.71" y1="31.343" x2="102.594" y2="14.521"
                        gradientUnits="userSpaceOnUse">
            <stop offset="0" stop-color="#df8200"></stop>
            <stop offset="0.392" stop-color="#f0a800"></stop>
            <stop offset="0.713" stop-color="#ffcb00"></stop>
            <stop offset="1" stop-color="#ffcb00"></stop>
        </linearGradient>
        <linearGradient id="linear-gradient-2" x1="106.335" y1="23.516" x2="140.192" y2="23.516"
                        gradientUnits="userSpaceOnUse">
            <stop offset="0" stop-color="#fcc200"></stop>
            <stop offset="1" stop-color="#ffcb00"></stop>
        </linearGradient>
    </defs>
    <title>mojeid-logo</title>
    <path d="M133.293,1.094H119.666V20.416a42.906,42.906,0,0,1,6.919-4.057V8.011h6.708v.013a9.777,9.777,0,0,1,0,19.555v.006h-6.708V21.548c0-.173-.157-.171-.236-.113a31.892,31.892,0,0,0-6.683,6.25v6.825h13.627a16.707,16.707,0,0,0,0-33.415Z"
          style="fill:#fff"></path>
    <polygon points="126.585 16.359 119.666 20.416 119.666 1.094 126.585 8.011 126.585 16.359"
             style="fill:url(#Nepojmenovaný_přechod_15)"></polygon>
    <rect x="106.335" y="11.382" width="6.634" height="23.101" style="fill:url(#linear-gradient)"></rect>
    <path d="M140.191,13.257a.789.789,0,0,0-.2-.505.935.935,0,0,0-.82-.191,42.336,42.336,0,0,0-32.84,21.922h6.634c7.037-12.392,17.369-17.99,26.691-20.609C140.072,13.736,140.2,13.483,140.191,13.257Z"
          style="fill:url(#linear-gradient-2)"></path>
    <path d="M6.362,11.314V14.22a6.654,6.654,0,0,1,6.362-3.707,6.411,6.411,0,0,1,6.313,3.858,7.37,7.37,0,0,1,7.013-3.858,7.432,7.432,0,0,1,5.611,2.154c1.4,1.5,1.854,3.107,1.854,6.664V34.509H27.152V20.532c0-3.157-1.152-4.659-3.558-4.659-2.353,0-3.706,1.7-3.706,4.659V34.509H13.526V20.733c0-3.207-1.2-4.86-3.507-4.86-2.4,0-3.657,1.7-3.657,4.86V34.509H0v-23.2Z"
          style="fill:#fff"></path>
    <path d="M62.4,23.137c0,6.813-5.562,12.174-12.676,12.174-7.313,0-12.573-5.16-12.573-12.375,0-7.313,5.209-12.423,12.674-12.423A12.171,12.171,0,0,1,62.4,23.137Zm-18.837-.2c0,4.008,2.5,6.714,6.212,6.714,3.657,0,6.211-2.756,6.211-6.613,0-4.158-2.4-6.813-6.162-6.813S43.566,18.929,43.566,22.936Z"
          style="fill:#fff"></path>
    <path d="M72.943,33.4c0,3.507-.7,5.862-2.205,7.414-1.553,1.653-4.129,2.5-7.085,2.5-.351,0-1,0-1.7-.049V37.455H62.9c2.155,0,3.407-1.5,3.407-4.058V11.314h6.635Z"
          style="fill:#fff"></path>
    <path d="M95.522,26.677l-.121-.033a6.191,6.191,0,0,1-11.422-2.205h18.135c.05-.45.05-1.1.05-1.251,0-7.464-5.16-12.674-12.524-12.674-7.215,0-12.27,5.111-12.27,12.374,0,7.214,5.256,12.424,12.621,12.424a12.147,12.147,0,0,0,10.4-5.574Zm-5.831-10.8a5.654,5.654,0,0,1,5.91,4.909H83.979C84.581,17.626,86.636,15.873,89.691,15.873Z"
          style="fill:#fff"></path>
    <path d="M109.652.685a3.969,3.969,0,1,1-3.969,3.968A3.971,3.971,0,0,1,109.652.685Z" style="fill:#ffcb00"></path>
    <path d="M69.625.685a3.969,3.969,0,1,1-3.968,3.968A3.972,3.972,0,0,1,69.625.685Z" style="fill:#fff"></path>
</svg>