<svg xmlns="http://www.w3.org/2000/svg" viewBox="40 40 82.78 82.78">
  <path fill="#f4b400" fill-rule="evenodd" d="m56.457 66.966-8.803 8.802L40 83.422c13.585 9.463 25.827 10.21 31.78 4.256l10.52-10.52 18.099-18.098s-9.404 2.001-20.38 2.001c-9.813 0-19.515 1.858-23.562 5.905Zm45.258 15.792c0-10.977 2.001-20.38 2.001-20.38L85.618 80.477l-10.52 10.52c-5.954 5.952-5.208 18.195 4.256 31.779l7.655-7.654 8.802-8.802c4.046-4.047 5.904-13.75 5.904-23.562Z" clip-rule="evenodd"/>
  <path fill="#003580" fill-rule="evenodd" d="M92.997 42.598c-12.74 0-25.338 2.412-30.593 7.667L41.037 71.631a75.752 75.752 0 0 0 6.617 4.137l8.803-8.802c4.046-4.047 13.749-5.905 23.561-5.905 10.977 0 20.381-2.001 20.381-2.001L119.459 40s-12.21 2.598-26.462 2.598Zm10.719 19.78s-2.001 9.403-2.001 20.38c0 9.812-1.857 19.515-5.904 23.562l-8.803 8.802a75.807 75.807 0 0 0 4.137 6.618c7.196-7.198 17.779-17.78 21.367-21.367 5.254-5.255 7.667-17.853 7.667-30.594 0-14.251 2.598-26.461 2.598-26.461s-9.373 9.374-19.061 19.06Z" clip-rule="evenodd"/>
</svg>