<?xml version="1.0" encoding="utf-8"?>
<!-- Generator: Adobe Illustrator 21.0.0, SVG Export Plug-In . SVG Version: 6.00 Build 0)  -->
<svg version="1.1" id="Layer_1" xmlns="http://www.w3.org/2000/svg" xmlns:xlink="http://www.w3.org/1999/xlink" x="0px" y="0px"
	 viewBox="0 0 90.8 102.1" style="enable-background:new 0 0 90.8 102.1;" xml:space="preserve">
<style type="text/css">
	.st0{fill:#0682B4;}
	.st1{fill:#31B7E9;}
	.st2{fill:none;}
</style>
<g>
	<g>
		<g>
			<g>
				<polygon class="st0" points="90.8,51.9 90.8,51.9 40.6,3 26.5,17.4 62.5,52.3 27.6,88.1 41.9,102.1 				"/>
			</g>
			<g>
				<polygon class="st1" points="87.8,48.9 87.8,48.9 37.5,0 23.5,14.4 59.5,49.3 24.6,85.2 38.9,99.2 				"/>
			</g>
		</g>
		<line class="st2" x1="43.8" y1="103.7" x2="92.9" y2="53.4"/>
	</g>
	<g>
		<g>
			
				<rect x="9.8" y="60.2" transform="matrix(0.6974 -0.7167 0.7167 0.6974 -35.6797 40.2187)" class="st0" width="39.9" height="4.2"/>
			
				<rect x="1.1" y="43.9" transform="matrix(0.6974 -0.7167 0.7167 0.6974 -32.2499 31.433)" class="st1" width="39.9" height="20"/>
		</g>
		
			<rect x="5.7" y="26.1" transform="matrix(0.6974 -0.7167 0.7167 0.6974 -20.2533 21.8695)" class="st1" width="20.1" height="17.5"/>
	</g>
</g>
</svg>
