<svg viewBox="0.7997069954872131 15.077762603759766 87.93679809570312 94.56170654296875" fill="none" xmlns="http://www.w3.org/2000/svg"><path d="M44.2854 15.2019L2.42071 38.2652C1.72491 38.6485 1.73232 39.651 2.43371 40.024L24.8084 51.9225C25.1122 52.084 25.4778 52.0781 25.7761 51.9067L44.2705 41.282C44.579 41.1048 44.9585 41.1048 45.267 41.2822L63.7519 51.9082C64.0502 52.0797 64.4158 52.0858 64.7197 51.9242L87.1057 40.0231C87.8072 39.6502 87.8146 38.6475 87.1187 38.2642L45.2504 15.2018C44.95 15.0364 44.5858 15.0364 44.2854 15.2019Z" fill="#2D87C3"></path><path d="M24.7672 58.0161L2.27077 46.0564C1.60472 45.7023 0.801385 46.185 0.801354 46.9393L0.799707 86.9876C0.799692 87.3521 0.997991 87.6877 1.31726 87.8636L40.6252 109.514C41.2917 109.881 42.1077 109.399 42.1077 108.638V84.7886C42.1077 84.4306 41.9163 84.0999 41.606 83.9216L25.7995 74.8379C25.4891 74.6595 25.2977 74.3288 25.2977 73.9709V58.899C25.2977 58.5292 25.0937 58.1896 24.7672 58.0161Z" fill="#2D87C3"></path><path d="M64.7691 58.0161L87.2655 46.0564C87.9315 45.7023 88.7349 46.185 88.7349 46.9393L88.7365 86.9876C88.7366 87.3521 88.5383 87.6877 88.219 87.8636L48.911 109.514C48.2445 109.881 47.4286 109.399 47.4286 108.638V84.7886C47.4286 84.4306 47.6199 84.0999 47.9303 83.9216L63.7368 74.8379C64.0472 74.6595 64.2385 74.3288 64.2385 73.9709V58.899C64.2385 58.5292 64.4426 58.1896 64.7691 58.0161Z" fill="#2D87C3"></path></svg>
