<svg viewBox="0 0 198 294" fill="none" xmlns="http://www.w3.org/2000/svg">
<path d="M39.4524 151.035C38.3881 144.965 37.1109 139.107 34.1309 134.368C30.0865 127.978 22.9557 123.612 8.9069 123.505L8.69404 131.493C13.6963 131.333 18.4856 131.812 22.5832 134.421C26.0422 136.605 28.969 140.226 31.204 146.243C18.9646 142.089 12.0466 143.314 7.09758 146.509C4.54326 148.16 2.52108 150.343 0.552124 152.58L6.0865 157.692C6.40579 157.212 6.77829 156.786 7.09758 156.414C13.0577 149.331 19.9756 149.544 27.3193 153.432C11.4612 161.046 8.9069 174.465 9.75834 184.104C10.5034 184.21 17.5277 184.104 17.5277 184.104C16.8359 174.678 23.5411 162.058 37.4834 158.277L39.5588 154.017L39.4524 151.035Z" fill="#8000DB"/>
<path d="M143.754 68.1252C167.222 35.5362 178.823 19.4015 169.51 11.5737C163.39 6.4085 155.089 10.0827 141.679 20.0937C141.2 30.797 138.592 46.0265 135.186 66.2082L143.754 68.1252Z" fill="#008298"/>
<path d="M158.601 263.446H149.98C149.767 275.747 150.087 288.42 136.942 292.467C137.368 292.521 137.847 292.574 138.326 292.627C139.71 292.787 141.093 292.68 142.424 292.361C158.761 288.207 158.388 275.64 158.601 263.446Z" fill="#580098"/>
<path d="M167.914 263.446L158.814 241.933H167.275L160.144 221.645H148.384L153.865 241.933H147.373L154.397 263.446H158.601H167.914Z" fill="#98005E"/>
<path d="M136.942 292.468C150.087 288.421 149.767 275.8 149.98 263.446H118.743C118.636 281.764 125.235 290.71 136.942 292.468Z" fill="#8000DB"/>
<path d="M147.373 241.933H153.865L148.384 221.645L116.667 221.485L109.271 242.572L117.306 243.211L109.271 263.446H154.397L147.373 241.933Z" fill="#FF009E"/>
<path d="M81.5455 242.679L73.1375 221.325L61.3237 221.272L67.1242 242.199H60.4723L67.6563 263.925L82.5566 264.085L72.1796 242.572L81.5455 242.679Z" fill="#98005E"/>
<path d="M60.4723 242.199H67.1242L61.3238 221.272L29.1287 221.112L21.3593 242.838L29.5544 243.477L21.3593 263.819L67.6564 263.925L60.4723 242.199Z" fill="#FF009E"/>
<path d="M133.962 0.870451C121.35 -2.21805 113.953 18.017 95.6475 57.422L135.239 66.2082C138.645 46.0265 141.253 30.797 141.732 20.0937C142.211 8.64495 140.188 2.4147 133.962 0.870451Z" fill="#00BEDD"/>
<path d="M158.175 200.824L168.605 201.516L157.483 179.311H166.636L158.388 159.129H151.31H145.191L152.641 179.311H144.392L154.397 201.516L144.978 200.824L154.982 221.645L169.244 221.698L158.175 200.824Z" fill="#FF9900"/>
<path d="M168.605 138.255L160.942 116.742H146.095L152.428 138.255H143.275L151.31 159.129H167.275L157.483 138.255H168.605Z" fill="#008298"/>
<path d="M95.6475 57.422C95.5943 57.5285 95.5943 57.422 95.6475 57.422L78.0333 92.4072L87.7716 92.6202L76.0643 116.742H160.73L149.767 112.11C148.118 111.417 147.106 110.086 147.532 109.181C147.585 109.074 147.639 109.021 147.692 108.968C148.224 108.222 149.714 108.116 151.204 108.755L151.683 108.968L159.346 112.216L165.998 115.038V73.0775L95.6475 57.422Z" fill="#FFE001"/>
<path d="M138.273 97.3594C143.594 97.3594 147.958 93.0461 147.958 87.6679C147.958 82.3429 143.648 77.9764 138.273 77.9764C132.951 77.9764 128.588 82.2897 128.588 87.6679C128.588 93.0461 132.951 97.3594 138.273 97.3594ZM138.273 82.8222C140.934 82.8222 143.115 85.0054 143.115 87.6679C143.115 90.3304 140.934 92.5136 138.273 92.5136C135.612 92.5136 133.43 90.3304 133.43 87.6679C133.43 85.0054 135.612 82.8222 138.273 82.8222Z" fill="white"/>
<path d="M138.577 92.5074C141.246 92.3411 143.276 90.0409 143.109 87.3697C142.943 84.6986 140.645 82.668 137.975 82.8343C135.306 83.0006 133.276 85.3008 133.443 87.9719C133.609 90.6431 135.908 92.6736 138.577 92.5074Z" fill="black"/>
<path d="M165.998 116.742V115.038L151.683 108.915L151.204 108.702C149.714 108.063 148.224 108.169 147.692 108.915C147.639 108.968 147.585 109.074 147.532 109.128C147.16 110.033 148.171 111.364 149.767 112.056L160.729 116.689H160.942L165.998 116.742Z" fill="black"/>
<path d="M143.275 138.255H152.375L146.095 116.742H86.388L77.3414 138.255H86.4412L77.8736 159.076H77.98V159.129C78.1929 159.129 78.4057 159.129 78.6186 159.129H145.137H151.31L143.275 138.255Z" fill="#00BEDD"/>
<path d="M77.8204 159.076L39.612 153.911L27.9047 177.714H35.6208C34.8758 178.725 34.0776 179.79 33.3326 180.909L44.082 190.973L58.0244 177.767L71.5942 191.292L85.5366 178.086L99.4789 191.292L113.049 177.767L113.474 178.193L126.938 190.92L140.88 177.714L146.202 182.985L144.552 179.258H152.8L145.35 159.023H113.368H78.0333H77.9268" fill="#FFE001"/>
<path d="M144.978 200.824L154.397 201.463L152.481 197.256L140.721 185.541L126.831 199.44L112.889 185.541L99 199.493L85.3769 185.861L71.4346 199.067L57.9712 185.648L44.0821 199.546L30.1929 185.701C29.2883 187.192 23.8603 196.671 21.9978 200.238L32.5876 200.877L23.1685 221.112L154.982 221.698L144.978 200.824Z" fill="#FFE001"/>
<path d="M146.095 183.039L140.774 177.767L126.832 190.973L112.889 177.767L99.3194 191.292L85.377 178.086L71.4347 191.292L57.8648 177.767L43.9225 190.973L33.173 180.909C32.1619 182.4 31.0976 183.997 30.0865 185.701L43.9757 199.546L57.8648 185.648L71.3282 199.067L85.2706 185.861L98.8936 199.493L112.836 185.595L126.778 199.493L140.667 185.595L152.428 197.31L146.095 183.039Z" fill="black"/>
<path d="M63.3459 263.872C63.1331 276.279 63.5056 289.006 50.3082 293.106C51.1065 293.213 51.9047 293.319 52.7561 293.373C53.4479 293.426 54.1929 293.373 54.8847 293.213C55.5233 293.053 56.1087 292.893 56.694 292.734C57.5455 292.467 58.3969 292.201 59.1419 291.935C59.6741 291.722 60.153 291.509 60.6319 291.296C60.9512 291.136 61.2705 290.976 61.5366 290.817C61.8027 290.657 62.122 290.497 62.388 290.337C62.8138 290.071 63.2395 289.805 63.612 289.539C63.8781 289.379 64.0909 289.166 64.357 289.006C64.8892 288.58 65.4213 288.154 65.847 287.728C66.326 287.249 66.8049 286.716 67.2306 286.237C67.3903 286.024 67.5499 285.864 67.7095 285.651C67.9224 285.385 68.0821 285.119 68.2417 284.853C68.561 284.32 68.8803 283.788 69.1464 283.255C69.306 282.989 69.4124 282.669 69.5721 282.403C69.6253 282.243 69.7317 282.084 69.7849 281.924C69.8914 281.711 69.9446 281.445 70.051 281.232C70.1042 281.125 70.1574 281.019 70.1574 280.859C70.3171 280.38 70.4767 279.9 70.5832 279.421C70.5832 279.315 70.6364 279.208 70.6364 279.155C70.7428 278.835 70.796 278.516 70.8492 278.196C70.8492 278.143 70.9025 278.037 70.9025 277.983C70.9557 277.611 71.0621 277.238 71.1153 276.865C71.1685 276.652 71.1685 276.439 71.2217 276.226C71.275 276.013 71.275 275.747 71.3282 275.534C71.4878 274.469 71.5943 273.457 71.6475 272.339C71.7539 271.008 71.8071 269.676 71.8071 268.345C71.8603 266.907 71.8603 265.47 71.9135 264.032L63.3459 263.872Z" fill="#580098"/>
<path d="M32.1087 263.819C32.0555 267.387 32.2683 270.635 32.7473 273.51C32.9069 274.629 33.1198 275.694 33.3859 276.705C33.5455 277.398 33.7584 278.037 33.918 278.676C36.632 287.302 42.2196 291.828 50.255 293.053C63.4524 288.953 63.0799 276.226 63.2927 263.819H32.1087Z" fill="#8000DB"/>
<path d="M197.501 95.4425C194.308 103.43 183.825 109.926 165.945 111.524V114.985V116.689C167.169 116.636 168.286 116.529 169.457 116.476C170.84 116.37 172.171 116.21 173.448 115.997C174.619 115.837 175.736 115.624 176.8 115.411C181.643 114.399 185.634 112.908 188.827 111.045C189.519 110.619 190.211 110.193 190.796 109.767C191.115 109.554 191.381 109.341 191.701 109.074C192.552 108.382 193.35 107.637 194.042 106.891C194.521 106.412 194.894 105.879 195.266 105.347C196.171 104.016 196.863 102.631 197.288 101.247C197.82 99.4362 197.874 97.466 197.501 95.4425Z" fill="#98005E"/>
<path d="M169.829 74.036C168.605 73.7165 167.328 73.3437 165.998 73.0775V83.9937V94.91V111.577C183.878 109.98 194.361 103.43 197.554 95.4957C195.958 87.2952 186.698 78.7752 169.829 74.036Z" fill="#FF009E"/>
</svg>
