<svg xmlns="http://www.w3.org/2000/svg" viewBox="0 0 24.09 41.02"><defs><style>.cls-1{fill:#a90533;}.cls-2{fill:#6d6e71;}</style></defs><g id="Layer_2" data-name="Layer 2"><g id="Lag_1" data-name="Lag 1"><path class="cls-1" d="M20.57,7a7,7,0,1,1-7-7A7,7,0,0,1,20.57,7Z"/><path class="cls-1" d="M8.31,17.3A3.34,3.34,0,1,1,5,14,3.34,3.34,0,0,1,8.31,17.3Z"/><path class="cls-1" d="M15.29,24.44a1.75,1.75,0,1,1-1.74-1.74A1.74,1.74,0,0,1,15.29,24.44Z"/><path class="cls-2" d="M1.57,33c0-1.62-.1-1.67-1.11-1.88L.11,31C0,30.9,0,30.5.16,30.43c.82.05,1.55.07,2.3.07s1.47,0,2.34-.07a.35.35,0,0,1,0,.59l-.47.07c-.92.14-1,.26-1,1.88v1.31c0,.47,0,.75.12.82s.46,0,.63-.14A28.65,28.65,0,0,0,6.94,32.1c.49-.56.54-.89.19-1L6.61,31c-.21-.09-.19-.54,0-.59.65.05,1.34.07,2.09.07s1.19,0,2-.07a.35.35,0,0,1,0,.59,7.06,7.06,0,0,0-1.59.45A9.67,9.67,0,0,0,7,33.23l-1.08,1c-.47.47-.45.54-.1,1l2.94,3.52c.84,1,1.19,1.34,2.23,1.41l.32,0a.38.38,0,0,1,0,.59c-.73,0-1.27-.07-2.3-.07-.78,0-1.53,0-2.3.07a.37.37,0,0,1-.1-.59l.33,0c.54-.07.64-.21.28-.64L5.06,36.94c-.19-.24-.87-1.25-1.31-1.25s-.4.24-.4.89v1.65c0,1.62.09,1.71,1.1,1.87l.45.07c.16.12.14.52-.05.59-.89,0-1.67-.07-2.39-.07s-1.48,0-2.23.07C0,40.69,0,40.29.18,40.17l.28-.07c1-.23,1.11-.25,1.11-1.87Z"/><path class="cls-2" d="M13.76,33c0-1.62-.11-1.67-1.1-1.88L12.33,31c-.16-.12-.14-.52.05-.59.8.05,1.53.07,2.28.07s1.47,0,2.39-.07c.19.07.21.47.05.59l-.45.07c-1,.17-1.1.26-1.1,1.88v3.31c0,2.35.77,3.94,3.05,3.94,2.11,0,3-1.59,3-3.92V34.12c0-2.35-.14-2.89-1.15-3L20,31a.4.4,0,0,1,.05-.59c.75.05,1.29.07,2,.07s1.2,0,1.95-.07A.39.39,0,0,1,24,31l-.7.07c-.61.07-.8.71-.8,3v2.32c0,3-1.38,4.58-4.36,4.58a4.7,4.7,0,0,1-3.34-1,4.48,4.48,0,0,1-1-3.31Z"/></g></g></svg>
