<svg xmlns="http://www.w3.org/2000/svg" viewBox="0 0 50.27 41.26"><defs><style>.cls-1{fill:#a90533;}.cls-2{fill:#6d6e71;}</style></defs><g id="Layer_2" data-name="Layer 2"><g id="Lag_1" data-name="Lag 1"><path class="cls-1" d="M33.87,7a7,7,0,1,1-7-7A7,7,0,0,1,33.87,7Z"/><path class="cls-1" d="M21.61,17.3A3.34,3.34,0,1,1,18.28,14,3.34,3.34,0,0,1,21.61,17.3Z"/><path class="cls-1" d="M28.59,24.44a1.75,1.75,0,1,1-1.74-1.74A1.74,1.74,0,0,1,28.59,24.44Z"/><path class="cls-2" d="M1.58,33c0-1.66-.12-1.71-1.13-1.92L.11,31a.4.4,0,0,1,.05-.6c.82.05,1.56.08,2.33.08s1.51,0,2.45-.08A.41.41,0,0,1,5,31l-.46.08c-1,.17-1.13.26-1.13,1.92v3.38c0,2.4.79,4,3.12,4,2.16,0,3.1-1.63,3.1-4V34.2c0-2.4-.15-3-1.18-3.09L7.94,31a.4.4,0,0,1,0-.6c.76.05,1.32.08,2,.08s1.23,0,2-.08a.39.39,0,0,1,0,.6l-.72.08c-.63.07-.82.72-.82,3.09v2.38c0,3.07-1.41,4.68-4.46,4.68a4.77,4.77,0,0,1-3.41-1,4.57,4.57,0,0,1-1-3.38Z"/><path class="cls-2" d="M23.85,30.63a20.67,20.67,0,0,0,.22,2.64.42.42,0,0,1-.63,0,3,3,0,0,0-3.34-2.45c-2.06,0-4.1,1.39-4.1,4.65s2.06,5,4.32,5a3.76,3.76,0,0,0,3.46-2.42.37.37,0,0,1,.62,0,7.08,7.08,0,0,1-.79,2.6,13,13,0,0,1-3.24.5,7.37,7.37,0,0,1-4.23-1.1,5.13,5.13,0,0,1-2.28-4.28,5.28,5.28,0,0,1,2-4.32,7.65,7.65,0,0,1,4.68-1.39A17.61,17.61,0,0,1,23.85,30.63Z"/><path class="cls-2" d="M28,33.32c0-1.57,0-1.93-.58-2l-.72-.12c-.22-.07-.19-.53,0-.6,1.35-.1,2.57-.15,3.84-.15a8.3,8.3,0,0,1,2.88.41,2.89,2.89,0,0,1,1.95,2.81,2.79,2.79,0,0,1-2,2.74,5.87,5.87,0,0,1-2.19.36.32.32,0,0,1,0-.43,2.52,2.52,0,0,0,2.23-2.74,2.31,2.31,0,0,0-2.62-2.45c-1,0-1,.15-1,.82V38.4c0,1.66.1,1.78,1.13,1.92l.55.08a.4.4,0,0,1-.05.6c-1,0-1.8-.08-2.54-.08s-1.51,0-2.35.08a.39.39,0,0,1-.05-.6l.36-.08c1-.21,1.13-.26,1.13-1.92Z"/><path class="cls-2" d="M45.79,35.12c.76,0,.86,0,.86-.63V33c0-1.66-.1-1.75-1.13-1.92L45.07,31a.4.4,0,0,1,0-.6c.94.05,1.68.08,2.45.08s1.51,0,2.45-.08a.4.4,0,0,1,.05.6l-.46.08c-1,.17-1.13.26-1.13,1.92V38.4c0,1.66.1,1.78,1.13,1.92l.55.08a.4.4,0,0,1,0,.6c-1,0-1.8-.08-2.55-.08s-1.51,0-2.45.08a.4.4,0,0,1,0-.6l.45-.08c1-.16,1.13-.26,1.13-1.92V36.51c0-.6,0-.63-.86-.63H41.56c-.81,0-.86,0-.86.63V38.4c0,1.66.09,1.8,1.13,1.92l.64.08a.39.39,0,0,1,0,.6c-1.1,0-1.89-.08-2.63-.08s-1.52,0-2.26.08a.4.4,0,0,1-.05-.6l.27-.08c1-.26,1.12-.26,1.12-1.92V33c0-1.66-.09-1.78-1.12-1.92L37.19,31a.4.4,0,0,1,.05-.6c1,.05,1.78.08,2.55.08s1.51,0,2.35-.08a.4.4,0,0,1,0,.6l-.35.08c-1,.19-1.13.26-1.13,1.92v1.46c0,.63.09.63.86.63Z"/></g></g></svg>
