<svg xmlns="http://www.w3.org/2000/svg" viewBox="0 0 109 148">
  <g>
    <path fill="#901a1e" d="M107 39.8c0 21.9-17.8 39.8-39.7 39.8-22 0-39.7-17.8-39.7-39.8C27.6 17.8 45.3 0 67.3 0 89.2 0 107 17.8 107 39.8M37.7 97.8c0 10.4-8.4 18.8-18.8 18.8S0 108.2 0 97.8 8.5 79 18.9 79c10.4-.1 18.8 8.4 18.8 18.8M77.1 138.2c0 5.4-4.4 9.8-9.8 9.8s-9.8-4.4-9.8-9.8 4.4-9.8 9.8-9.8c5.4-.1 9.8 4.3 9.8 9.8" />
    <path fill="#fff" d="M61.3 75.2zM61.3 75.2zM93 38.1v-.2c0-.3.1-.4.5-.5h.6c0 .1.1.8.1.9h.3c0-.1-.1-.8-.1-.9.1 0 .9-.1 1-.1.1 0 .2 0 .2.2v.7c0 .5-.5.6-.7.6-.1.1 0 .2.1.3.3 0 .7-.1 1-.1 0-1.2-.1-1.9-.2-2.9h-.3v.1c0 .3-.2.4-.6.4-.3 0-.8.1-1.3.1-.6.1-.6 0-.7-.3v-.1h-.3c.1.5.1 1.1.2 1.6 0 .3.1.3.2.2M48.4 57l.1.1c.2.2.2.4-.1.7-.1.1-.4.3-.5.4-.1-.1-.5-.6-.6-.7-.1 0-.2.1-.3.2.1.1.5.6.6.7l-.7.7c-.1.1-.1.1-.2 0l-.5-.5c-.3-.4 0-.8.2-.9 0-.1-.1-.2-.2-.2l-.7.7c.8.9 1.2 1.4 1.9 2.1.1 0 .2-.1.2-.2l-.1-.1c-.2-.3 0-.4.2-.7l.9-.9c.4-.4.5-.4.7-.2l.1.1c.1 0 .2-.1.2-.2-.4-.4-.7-.8-1.1-1.2 0-.1-.1 0-.1.1M93.2 42.1c1-.3 1.2-.3 2-.5.3-.1.4-.1.4.2v.1c.1.1.2.1.3 0 0-.5.1-1 .1-1.6-.1-.1-.2-.1-.3 0v.2c-.1.2-.1.3-.5.4-.2.1-2.5.6-2.6.6-.1 0 0 0 0 .1 0 0 .1.4.1.6.8.4 1.8.9 2.3 1.2.4.2.5.4.5.5v.2c.1.1.2.1.3 0 .1-.3.1-1 .2-1.3-.1-.1-.2-.1-.3 0v.2c0 .2-.1.2-.4.1-.8-.4-1.5-.7-2.1-1M86.8 23.3c0-.1.1-.2.2-.2l.2.2c.2.2.3.2.7-.1.3-.2.8-.7 1-.8.2-.2.5-.4.3-.6 0-.1-.1-.1-.1-.2s.1-.2.2-.2c.4.4.8 1 1 1.3 0 .1-.1.2-.2.2 0-.1-.1-.1-.1-.1-.2-.2-.5-.1-.7.1-.4.3-.8.7-1.1.8-.4.3-.5.4-.3.7l.1.2c0 .1-.1.2-.2.1-.3-.5-.7-1-1-1.4M43.3 31.4c-.1 0-.2 0-.3-.1 0-.1 0-.2.1-.2 0-.3 0-.4-.5-.6-.3-.1-1-.4-1.2-.5-.3-.1-.6-.3-.7.1 0 .1-.1.1-.1.2-.1 0-.2 0-.3-.1.2-.6.4-1.2.6-1.5.1 0 .2 0 .2.1s0 .1-.1.2c-.1.3.2.4.5.6.5.2 1 .4 1.3.5.4.2.6.2.7-.1l.1-.2c.1 0 .2 0 .2.1-.1.3-.4 1.1-.5 1.5M89 26.4c0-.1.1-.2.2-.2l.1.1c0 .1.1.2.3.1.2-.1.3-.2.4-.2-.1-.2-.5-.8-.8-1.3 0-.1.1-.2.1-.3.1 0 3 .4 3.2.4.1.1 0 .3 0 .4-.1 0-2.6-.4-2.8-.4.2.3.5.8.6.9.1-.1.5-.3.7-.4h.1l.4.4v.1c-.2.1-.7.4-.8.4.1.1.2.4.2.4 0 .1-.2.2-.3.2 0 0-.2-.3-.2-.4-.1 0-.3.2-.4.2-.2.1 0 .3 0 .3 0 .1.1.1.1.2s-.2.1-.2.1c-.3-.1-.6-.5-.9-1M90.2 29.4c-.1-.1-.1-.3 0-.4.1 0 3 .1 3.2.1-.1-.3-.3-.9-.4-1.1-.1-.2-.3-.2-.4-.3h-.2c-.1 0-.1-.2 0-.3.2 0 .8-.1.9-.1 0 .1.1.2.1.3 0 .1.5 1.1.5 1.3.1.2.2.4.2.5 0 .1-.1.1-.1.2-.2-.1-.4-.1-.5-.1-.1 0-3-.1-3.3-.1M47.9 23.9c0 .1-.2.2-.4.2-.1-.1-1.3-2.6-1.4-2.9-.2.3-.6.7-.8.9-.1.2-.1.3 0 .5 0 .1 0 .1.1.1 0 .1-.1.2-.2.2-.1-.1-.5-.7-.6-.8.1-.1.2-.2.2-.3.1-.1.8-.9.9-1.1.1-.1.3-.3.3-.4h.2c0 .2.1.4.2.5.1.1 1.4 2.8 1.5 3.1M91.2 32c0-.1.2-.2.3-.1.2.3.4.7.9 1 .5.3.9.3 1.5.2.6-.1 1.1-.5.9-1-.2-.5-.6-.3-.8-.3-.6.2-.6.6-.4.9 0 .1-.1.2-.2.1s-.3-.2-.3-.6c-.1-.6.4-1 .6-1.1.8-.2 1.3.2 1.4.7.2.7 0 1.5-1.1 1.7-1.2.4-2.4-.4-2.8-1.5M93.4 51s-.1.1-.1.2c-.1.1-.2.2-.6 0l-1.4-.6c-.4-.2-.4-.2-.4-.5V50c0-.1-.2-.1-.3-.1l-.3.7-.3.6c-.4.7-.6 1.7.5 2.4.9.6 1.8.3 2.5-1.1.3-.5.4-.9.6-1.3 0-.2-.2-.2-.2-.2m-.6 1.1c0 .1 0 .1-.1.2-.4.8-1 1.1-1.8.7-.6-.3-.8-.7-.8-1 0-.2 0-.5.1-.7.1-.2.2-.3.3-.3.1 0 .3 0 .5.1 0 0 1.6.8 1.7.8.1.1.1.1.1.2M87.3 59c.1.1.1.2.1.3 0 .1 0 .4-.2.5l-.3.3s-1.1-1.1-1.3-1.4c-.4-.4-.4-.5-.2-.7l.1-.1c0-.1-.1-.2-.2-.2-.3.3-.8.8-1.1 1 0 .1.1.2.2.2l.1-.1c.2-.2.4-.1.7.3.2.2 1.3 1.4 1.3 1.4l-.4.4c-.2.2-.4.1-.5 0-.1 0-.1-.1-.2-.2-.1 0-.2.1-.2.2.1.1.5.5.6.7.9-.8 1.4-1.3 2.2-2.1l-.4-.7c-.2 0-.3.1-.3.2M87.8 54.8c0 .1.2.2.2.2l.1-.1c.2-.2.2-.1.4.2.1.2.2.3.2.3-.1.1-.6.8-.7.9-.1 0-.1-.1-.4-.1-.2-.1-.4-.1-.3-.3 0-.1.1-.1.1-.1 0-.1-.1-.2-.2-.2-.1.2-.5.5-.9 1 0 .1.1.2.2.2l.1-.1c.2-.2.5-.1.7 0 .2.1 2.5.8 2.6.8h.1s.1-.3.1-.4c-.1-.1-1.1-1.8-1.3-2.2-.3-.5-.2-.6-.2-.7 0-.1.1-.1.1-.1 0-.1-.1-.2-.2-.1-.2 0-.7.7-.7.8m1.7 2l-1.3-.4.6-.8.7 1.2zM39.6 40.4c-.1 0-.2-.1-.3-.1-.2-.1-.3-.3-.3-.6v-.4h1.9c.5 0 .6.1.7.3v.1h.3v-1.5c-.1-.1-.2-.1-.3 0v.2c-.1.3-.2.3-.7.3H39v-.6c0-.3.3-.4.3-.4h.3c.1-.1 0-.2 0-.3h-.9c-.1 1.2-.1 1.9-.1 3.1.1 0 .8.2.8.2.2-.1.2-.2.2-.3M42.1 43c-.1-.1-.2 0-.3 0v.1c0 .2-.1.2-.4.1-.2-.1-.3-.1-.4-.1 0-.2-.1-1-.1-1.2.1-.1.1-.1.4-.2.2-.1.4-.2.4.1v.1c.1.1.2 0 .3 0 0-.2-.1-.7-.1-1.4-.1-.1-.2 0-.3 0v.2c0 .3-.3.4-.5.5-.2.1-2.4 1.1-2.4 1.2-.1 0-.1 0 0 .1 0 0 .2.3.2.4.2 0 2 .6 2.5.7.5.2.5.3.6.4v.1c.1.1.2 0 .3-.1 0-.1-.2-.9-.2-1m-2.6-.3l1.2-.6.1 1-1.3-.4zM46.6 54.1c-.3-.4-.7-.7-1.2-.8-.4-.1-.9 0-1.3.3s-.7.7-.8 1.1c-.1.5 0 .9.3 1.4.6.9 1.7 1.1 2.5.6.4-.3.6-.6.7-1.1.3-.5.1-1-.2-1.5m-.9 2c-.4.3-.7.4-1.1.3-.2 0-.5-.2-.6-.4-.2-.2-.2-.5-.2-.7.1-.4.4-.8.8-1 .7-.5 1.3-.4 1.7.1.5.6 0 1.3-.6 1.7M52.5 60.3c0 .1-.1.2-.2.2 0 0-.1 0-.1-.1-.2-.1-.4-.1-.7.3-.3.4-.6.8-.8 1-.2.3-.4.5-.1.7l.1.1c0 .1-.1.2-.2.2-.5-.4-1.3-1-2.2-1.7.1-.2.4-.5.5-.7.1 0 .2.1.3.2 0 .1-.1.2-.1.3 0 .1-.1.3.1.5s.5.4.6.5c.1.1.2 0 .2 0 .1-.1.5-.7.6-.8-.1-.1-.7-.5-.7-.6 0-.1.1-.2.2-.2.1.1.6.5.7.6 0 0 .4-.4.4-.5.3-.4.2-.5 0-.7-.1-.1-.2-.2-.3-.2-.2-.2-.4-.2-.7 0-.1.1-.1.1-.2.1s-.2-.1-.2-.2c.1-.1.6-.5.7-.6.6.5 1.3 1.1 2.1 1.6M42.9 47.7c0-.1.2-.1.3-.1.2.5.3.8.4 1.2 0 .1-.1.2-.3.1 0-.1 0-.1-.1-.1-.1-.2-.1-.3-.7-.2-.3.1-1.3.2-1.5.3-.3.1-.6.2-.5.5v.1c0 .1-.2.1-.3.1-.2-.4-.3-.8-.4-1.2.2 0 .3-.1.5-.3.3-.3 1.1-.9 1.4-1.2-.3-.1-1.7-.3-1.8-.3-.2 0-.5-.1-.7 0-.1-.2-.2-.8-.3-1.2 0-.1.2-.1.3 0v.1c.1.2.1.3.5.2.4-.1 1.1-.4 1.5-.5.4-.2.6-.3.6-.5v-.2c0-.1.2-.1.3-.1.1.7.2 1.1.3 1.5 0 .1-.2.1-.3.1v-.1c-.1-.2-.1-.3-.6-.2-.4.2-1.4.5-1.7.6.4.1 1.4.2 1.9.3.6.1.7.1.9.1.1 0 .1.1.1.2-.1 0-.4.3-.7.6-.4.3-1.2 1.1-1.4 1.2.4-.1 1.3-.3 1.6-.3.4-.1.7-.2.6-.4M92.2 44.8c.1-.1.2 0 .3 0v.2c0 .2.1.4.6.5.4.1.9.2 1.3.3.4.1.6.2.7-.1v-.2h.3c0 .2-.2.7-.2 1v.2c-.1 0-.1 0-.3.1-.1 0-2.2 1.1-2.5 1.2.2.1 1.1.4 1.3.5.4.1.6.2.7-.1 0 0 0-.1.1-.2.1 0 .2 0 .3.1-.1.4-.3.9-.4 1.3-.1 0-.2 0-.3-.1v-.1c.1-.2 0-.3-.5-.5-.4-.1-2-.7-2.2-.8 0 0-.1-.1 0-.2.5-.2 3.1-1.6 3.3-1.6-.2-.1-1.3-.3-1.6-.3-.5-.1-.6-.1-.7.2 0 .1 0 .1-.1.2-.1 0-.2 0-.3-.1 0-.6.2-1.3.2-1.5M39 35.7c.1 0 .4.1.7.2l1.8 1.2c.3.2.3.3.3.4v.2c.1.1.2.1.3 0 0-.1.1-.7.1-1.1 0-.1-.2-.1-.3 0v.2c0 .1-.1.1-.3 0-.1-.1-.5-.3-.7-.4 0-.1.1-.9.1-1h.6c.3.1.3.3.3.3v.2c0 .1.2.1.3 0 .1-.9.3-1.5.5-2.5-.4-.3-.7-.4-.8-.4-.1 0-.2.2-.1.3.1 0 .1.1.2.1.3.2.3.4.3.6 0 .2 0 .2-.1.4-.1.3-.2.3-.5.3H41l.1-.9c-.1 0-.2-.1-.3 0l-.1.9c-.1 0-.9-.1-1.1-.1-.1 0-.1-.1-.1-.1 0-.1 0-.3.1-.6.1-.4.3-.4.4-.4h.3c.1-.1.1-.3 0-.3h-.8c-.2.8-.3 1.2-.4 1.8-.1.3-.1.4-.1.7-.1 0-.1 0 0 0m.3-.4l.1-.1c.2 0 1.1.1 1.2.1 0 .2-.1.7-.1.9-.3-.2-1.1-.7-1.2-.8v-.1M83.8 63.1c-.1-.1-.2-.3-.3-.7 0-.1-.3-1.8-.4-2.1 0-.3 0-.4.1-.5l.1-.1c0-.1-.1-.2-.2-.2-.1.1-.5.4-.9.7-.1.1.1.2.2.2s.1-.1.2-.1.2 0 .2.2c0 .1.1.6.1.7-.1.1-.8.5-.8.6 0 0-.3-.3-.4-.5-.2-.3 0-.4.1-.5l.1-.1c0-.1-.1-.2-.2-.2-.7.5-1.3.8-2.2 1.4.1.4.3.7.3.9.1.1.3 0 .3-.1v-.2c-.1-.3.1-.5.3-.6.1-.1.2-.1.4-.2.2-.2.4 0 .6.2.1.2.4.4.4.5-.1.1-.6.4-.7.5 0 .1.1.2.2.2.1-.1.6-.4.8-.5.1.1.6.7.7.9.1.1 0 .1-.1.1s-.3.2-.5.3c-.3.2-.5.1-.6 0-.1 0-.2-.1-.2-.2-.2 0-.2.1-.2.2.1.2.4.5.5.6.7-.4 1.1-.6 1.6-1 .1-.1.2-.2.5-.4 0 .1 0 0 0 0m-.6 0s-.1 0-.1-.1c-.1-.1-.7-.8-.8-1 .2-.1.6-.4.7-.5.1.3.2 1.3.3 1.4l-.1.2M42.1 52.6c.6-.3 1.5-.8 1.7-.9.4-.2.5-.3.4-.6 0 0 0-.1-.1-.2 0-.1.2-.1.3-.1.2.4.5 1 .7 1.3 0 .1-.2.2-.3.2l-.1-.1c-.2-.2-.3-.2-.7 0-.3.2-1 .5-1.2.6-.5.3-.5.3-.4.6 0 .1 0 .1.1.1 0 .1-.2.1-.2.1-.3-.5-.7-1.2-.7-1.3-.1-.1-.1-.3-.2-.4-.2-.4-.2-1 .4-1.2.4-.2.8 0 1 .3.2-.3.4-.6.5-1 .1-.3.2-.4.1-.7v-.1c0-.1.2-.1.2-.1 0 .1.2.5.3.8-.1.3-.7 1.5-.8 1.7H43c-.1-.2-.2-.4-.5-.4-.2 0-.4.1-.5.1-.1.1-.3.2-.3.4-.1.2 0 .4 0 .5 0 .1.1.2.2.3.2 0 .2.1.2.1M53.5 64.4c.3-.6.8-1.5.9-1.7.2-.4.3-.6 0-.7l-.1-.1c0-.1.1-.2.1-.2.4.2 1 .5 1.3.7 0 .1-.1.2-.1.3-.1 0-.1 0-.1-.1-.3-.1-.3 0-.6.4-.2.3-.5 1-.6 1.2-.3.5-.3.6 0 .7 0 0 .1 0 .1.1s-.1.2-.1.2c-.5-.3-1.2-.6-1.3-.7-.1-.1-.3-.2-.4-.2-.3-.2-.7-.7-.3-1.3.3-.4.6-.4 1-.3 0-.3 0-.7-.1-1.1-.2-.5-.2-.6-.4-.7l-.1-.1c0-.1.1-.2.2-.2s.4.3.7.5c.1.4.2 1.7.3 1.9 0 0-.1 0-.1.1-.2-.1-.4-.2-.6-.1-.2.1-.3.2-.3.4-.1.1-.1.3-.1.5s.2.3.3.4c.1.1.2.1.3.2 0-.1 0-.1.1-.1M44.2 29.1c0-.1.5-1-.2-1.6-.6-.5-1.2.1-1.5.9-.2-.2-1-.9-1.1-1.1 0-.1.5-1.5.5-1.6.2.1.3.2.4.4-.1.2-.4 1.2-.4 1.3l.3.3c.1-.3.5-.9 1.2-1 1.1 0 1.7 1.1 1.1 2.5 0 .1-.2.1-.3-.1M43.1 25c0-.1-.2-.6.1-1.1.1-.2.4-.4.6-.5.2 0 .8.2.7.9.2-.3.5-.4.7-.3.1 0 .8.1 1 1.2.1.7-.3 1.4-.6 1.5-.3.1-.6-.3-.3-.5.1-.1.3 0 .5-.1.1-.2.2-.8-.2-1.1-.2-.2-.7-.4-1 0-.1.1-.1.3-.1.6-.1.2-.4.1-.4 0 0-.2.2-.7.1-1.1-.1-.3-.4-.5-.7-.2-.2.2-.1.6-.1.8 0-.1-.2-.1-.3-.1M80.6 11.1c0-.1.1-.3.2-.4.1 0 .2.1.3.1.4.1.6.1 1-.7.3-.5.8-1.5 1-1.9.2-.4.5-.9 0-1.2-.1 0-.1-.1-.2-.1-.1-.1.1-.4.2-.4.9.4 1.7.8 2.2 1.1-.1.2-.2.4-.3.5-.1-.1-.2-.1-.2-.1-.5-.2-.7.2-1 .7-.4.7-.8 1.5-1 1.9-.4.7-.4.9 0 1.2.1.1.2.1.2.2s-.1.3-.2.4c-.5-.4-1.6-1-2.2-1.3M89.7 17.5c0-.1.2-.3.3-.3l.2.2c.4.3.5.3 1.2-.3.4-.4 1.2-1.2 1.6-1.5.3-.3.8-.6.4-1.1-.1-.1-.1-.1-.1-.2s.2-.3.3-.3c.7.7 1.3 1.4 1.7 1.8 0 .1-.2.3-.3.3l-.1-.1c-.4-.4-.7-.1-1.1.3-.6.5-1.3 1.1-1.6 1.4-.6.5-.7.7-.4 1.1 0 .1.1.2.2.2 0 .1-.2.3-.3.3-.7-.4-1.5-1.3-2-1.8M92.2 58.9c.1 0 .3.2.4.3-.1.1-.1.2-.1.2-.2.4-.2.5.5 1.1.5.4 1.3 1.1 1.6 1.4.3.3.7.7 1.1.3l.2-.2c.1 0 .3.1.3.3-.6.8-1.2 1.5-1.6 1.9-.1 0-.3-.2-.3-.3.1-.1.1-.1.1-.2.3-.5 0-.7-.5-1.1-.6-.5-1.3-1.1-1.6-1.4-.6-.5-.8-.6-1.1-.3-.1 0-.1.1-.2.2-.1 0-.3-.2-.3-.3.3-.5 1.1-1.4 1.5-1.9M67.7 71.1c.1.1.1.3 0 .4h-.3c-.4.1-.6.1-.6 1.1v2.1c0 .4-.1 1 .5 1.1h.2c.1.1.1.3 0 .4-1 0-1.9 0-2.5-.1-.1-.1-.1-.3 0-.4h.2c.5 0 .5-.5.6-1 0-.8.1-1.7.1-2.1 0-.8 0-1-.5-1.1h-.3c-.1-.1 0-.3 0-.4.7 0 1.9.1 2.6 0M47.6 64.2c0 .1-.2.3-.3.3-.1-.1-.2-.1-.2-.2-.4-.2-.5-.2-1.1.5-.4.5-1.1 1.3-1.4 1.6-.3.3-.7.7-.3 1.1l.2.2c0 .1-.2.3-.3.3-.7-.6-1.4-1.2-1.9-1.6 0-.1.2-.3.3-.3.1.1.1.1.2.1.4.3.7 0 1.1-.4.5-.6 1.1-1.3 1.4-1.6.5-.6.6-.8.3-1.1l-.2-.2c0-.1.2-.3.3-.3.5.4 1.4 1.1 1.9 1.6M37.5 29.7c-.1 0-.3 0-.4-.1 0-.1 0-.2.1-.3.1-.5 0-.6-.8-.9-.6-.2-1.6-.6-2-.7-.4-.1-.9-.4-1.1.1 0 .1-.1.1-.1.2-.1.1-.4 0-.4-.1.3-.9.6-1.8.9-2.3.1-.1.3 0 .4.2 0 .1-.1.2-.1.2-.1.5.3.7.8.9.7.3 1.6.6 2 .8.7.3.9.3 1.2-.1 0-.1.1-.2.1-.3.1 0 .3.1.4.2-.4.4-.8 1.6-1 2.2M94.7 24.2c-.8-1.4-1.8-2.9-2.3-3.4 0-.1.2-.3.3-.3l.2.2c.3.3.5.3 1.2-.2.5-.3 1.4-1 1.8-1.2.4-.3.9-.5.6-1 0-.1-.1-.1-.1-.2s.2-.3.3-.3c.6.8 1.1 1.5 1.4 2 0 .1-.2.3-.3.3-.1-.1-.1-.1-.1-.2-.3-.4-.8-.1-1.2.2l-1.8 1.2c-.6.4-.8.5-.6.9 0 .1.1.3.3.5.1.2.3.5.5.6.2.1.6.1.7.1.1 0 .3-.1.4-.1.1 0 .2.2.2.4-.3.1-.8.3-1.5.5M97.1 29.4c-.5-1.5-1.3-3.2-1.6-3.8.1-.1.3-.2.4-.2 0 .1.1.2.1.2.2.4.4.4 1.2 0 .5-.2 1.6-.7 1.9-.9.4-.2.9-.3.7-.9 0-.1 0-.1-.1-.2 0-.1.3-.2.4-.2.4.9.8 1.7 1 2.3 0 .1-.2.2-.4.2-.1-.1-.1-.1-.1-.2-.2-.5-.7-.2-1.2 0-.7.3-1.4.6-1.9.9-.7.3-.8.4-.7.8 0 .1.1.3.2.5s.2.5.4.7c.2.2.6.2.7.2h.4c.1.1.2.2.1.4-.3 0-.9.1-1.5.2M75.9 9.1c0-.5.1-1 .2-1.3.1 0 .4 0 .5.1 0 .5-.1 1.2.8 1.6.6.2 1 0 1.1-.4.2-.5 0-.9-.6-1.4-.9-.8-1-1.3-.9-1.7.1-.6.6-1.6 2.2-1.1.8.3 1.1.5 1.3.7 0 .1-.2.9-.3 1.2-.1.1-.3 0-.4-.1 0-.1.2-.9-.6-1.2-.8-.3-1.1.1-1.2.4-.1.4.1.6.7 1.2.5.5 1.2 1.1.8 2-.3.8-1.3 1.2-2.3.9-.9-.4-1.3-.9-1.3-.9M72.8 70.9c.2.4.3.9.4 1.3-.1.1-.3.2-.5.1-.2-.4-.4-1.2-1.4-1-.6.1-.8.5-.8.8 0 .5.4.8 1.2 1 1.1.3 1.5.7 1.6 1.1.2.6.2 1.8-1.5 2-.8.1-1.2 0-1.5 0-.1-.2-.3-.9-.3-1.2.1-.1.3-.2.4-.1 0 .1.2.9 1.1.8.8-.1.9-.6.9-.9-.1-.4-.3-.5-1.2-.8-.7-.3-1.5-.5-1.7-1.4-.1-.9.6-1.7 1.6-1.8 1.2-.2 1.7.1 1.7.1M44.2 61.2c-.2.4-.6.8-.8 1-.1 0-.3-.2-.4-.3.3-.4.7-1 .1-1.8-.4-.5-.9-.4-1.2-.2-.4.3-.4.8-.1 1.6.4 1.1.2 1.6 0 1.9-.4.5-1.4 1.1-2.5-.2-.5-.6-.7-1-.8-1.2.1-.1.6-.7.8-.9.2 0 .3.1.3.3-.1.1-.6.7-.1 1.4s1 .4 1.2.2c.3-.3.2-.5 0-1.4-.2-.7-.5-1.5.3-2.2.7-.6 1.7-.5 2.4.4.7.8.8 1.4.8 1.4M51.6 12.4c-.1-.1-.2-.3-.2-.4.1 0 .2-.1.2-.2.4-.3.4-.4 0-1.2-.3-.5-.8-1.5-1-1.9-.2-.4-.4-.9-.9-.7-.1 0-.1.1-.2.1s-.2-.3-.2-.4c.8-.5 1.6-.9 2.2-1.2.1 0 .2.3.2.4-.1.1-.1.1-.2.1-.5.3-.2.7 0 1.2.4.7.8 1.5 1 1.9.4.7.5.8.9.7.1 0 .2-.1.3-.1.1 0 .2.3.2.4-.6.4-1.6.9-2.3 1.3M55.6 10.2c-.3-.4-.5-.8-.6-1.1 0-.1.2-.3.4-.3.3.4.6 1.1 1.6.8.6-.2.7-.6.6-1-.1-.6-.6-.7-1.4-.7-1.2-.1-1.6-.4-1.8-.7-.3-.5-.5-1.7 1-2.2.8-.3 1.2-.3 1.5-.3.1.1.4.8.5 1.1-.1.1-.2.2-.4.2 0-.3-.3-1-1.2-.7-.8.2-.8.8-.7 1 .2.4.4.4 1.4.5.7.1 1.6.1 1.9 1 .3.8-.2 1.7-1.2 2.1-1 .5-1.6.3-1.6.3M47.3 15.1c-.4-.3-.7-.7-.9-.9 0-.1.2-.3.4-.3.4.3.9.8 1.8.2.5-.4.5-.8.3-1.1-.3-.5-.7-.5-1.5-.3-1.1.2-1.6.1-1.9-.2-.4-.4-1-1.5.4-2.4.7-.5 1.1-.6 1.3-.7.1.1.6.6.8.9 0 .2-.1.3-.3.3-.1-.1-.6-.7-1.4-.2-.7.5-.5 1-.3 1.2.3.3.5.3 1.4.1.7-.1 1.6-.3 2.1.5.5.7.3 1.7-.6 2.4-1 .4-1.6.5-1.6.5M96.1 52.4c.2-.1.3 0 .4.2l-.1.2c-.1.4 0 .6.8.9.6.3 1.4.7 1.9.9.5.2.9.5 1.1.1 0-.1.1-.1.1-.2.1 0 .3 0 .4.2-.1.3-.5 1-.7 1.4 0 .1-.1.1-.1.2-.1 0-.2 0-.5.1-.1 0-3.9.9-4.4 1l1.8 1.2c.6.4.9.5 1.2.1 0-.1.1-.1.2-.2.1 0 .3.1.4.2-.4.6-.8 1.3-1.1 1.8-.1.1-.3-.1-.4-.2 0-.1.1-.1.1-.2.2-.3.1-.5-.6-1-.5-.3-2.8-1.9-3.1-2 0-.1-.1-.2 0-.4.8-.2 5.4-1.3 5.7-1.3-.3-.2-1.9-.9-2.4-1.1-.8-.3-1-.3-1.2 0-.1.1-.1.2-.1.2-.1 0-.3 0-.4-.2.4-.6.9-1.6 1-1.9M36 37c-.1.1-.3.1-.4 0v-.3c0-.4-.2-.5-1-.6-.7-.1-1.5-.2-2.1-.2-.6-.1-1-.2-1.1.3v.2c-.1.1-.3.1-.4 0 0-.3.1-1.1.2-1.5v-.2c.1 0 .2-.1.5-.2.1-.1 3.4-2.1 3.8-2.4-.4-.1-1.8-.5-2.1-.5-.7-.2-1-.2-1.1.3 0 .1-.1.2-.1.3-.1.1-.3 0-.4-.1.2-.7.4-1.5.5-2 .1-.1.4 0 .4.1v.2c-.1.4.1.5.9.7.6.2 3.3.9 3.5.9.1.1.1.2.1.3-.7.4-4.7 3-4.9 3.1.4 0 2.1.2 2.6.3.8.1 1 0 1.1-.4 0-.1 0-.2.1-.3.1-.1.3-.1.4.1-.4.4-.5 1.6-.5 1.9M42.2 20.7c-.2 0-.3-.1-.4-.2 0 0 .1-.2.2-.2.2-.3.1-.6-.5-1.1-.6-.4-1.2-1-1.7-1.3-.4-.4-.7-.7-1.1-.3l-.2.2c-.1 0-.3-.1-.3-.3.2-.2.7-.9 1-1.2 0-.1.1-.1.1-.2.1.1.2.1.5.1h4.5c-.3-.3-1.2-1.3-1.5-1.6-.5-.5-.7-.7-1.1-.4-.1 0-.1.1-.2.2-.1 0-.3-.2-.3-.3l1.5-1.5c.1 0 .3.2.3.3l-.2.2c-.3.3-.2.5.4 1.1.4.4 2.3 2.5 2.5 2.6 0 .1 0 .2-.1.3h-5.8c.3.2 1.6 1.3 2.1 1.6.7.5.9.5 1.2.3l.2-.2c.2 0 .3.1.3.3-.4.4-1.2 1.4-1.4 1.6M39 53.3c-.1 0-.4.1-.4.2s.1.2.1.3c.1.4 0 .6-.7.9-.2.1-.5.2-.8.4L36 52.6c.3-.1.6-.3.8-.3.8-.3.9-.3 1.2.1 0 .1.1.1.1.2.1 0 .3-.1.4-.2-.3-.7-.7-1.6-.9-2.2-.1 0-.4 0-.4.1s0 .2.1.3c.1.4-.1.6-.8.9-.4.2-1.3.5-2 .8-.5.2-.9.4-1.1-.1 0 0 0-.1-.1-.2-.1 0-.4 0-.4.2.2.6.5 1.4.9 2.2.1 0 .4 0 .4-.2 0-.1 0-.1-.1-.2-.1-.5.2-.6.8-.9.1-.1.4-.2.7-.3l1.2 2.5c-.2.1-.5.2-.7.4-.4.2-.9.5-1.1 0 0 0-.1-.1-.1-.2-.2 0-.4.1-.4.2.3.6.7 1.3 1.1 2.1.1 0 .3-.1.4-.2 0-.1 0-.1-.1-.2-.2-.5.1-.7.7-1 .3-.2 1.4-.7 1.9-1 .8-.4.9-.4 1.2-.1 0 0 .1.1.1.2.1 0 .3-.1.4-.2-.5-.5-1-1.5-1.2-2M88.7 15.5c-.2.2-.3.3-.4.6-.4-.2-1-.5-1.8-1.1-.6-.5-1.3-1.2-1.3-2.5.1-1.1.8-2 1.7-2.4 1.1-.5 2.2 0 3 .6.9.7 1.2 1.2 1.4 1.3-.3.4-.5.7-.8 1.2-.1 0-.4-.1-.4-.2.1-.2.3-.5.2-.9 0-.4-.2-.7-.7-1.1-.5-.4-2-.9-3 .7s-.1 2.5.2 2.8c.2.2.3.2.4.3.3.2.5.2.7-.1l.3-.3c.2-.3.3-.3 0-.7l-.3-.3c0-.1.1-.3.3-.3.6.6 1.3 1.1 1.8 1.4 0 .1-.1.4-.3.4-.1 0-.1-.1-.2-.1-.2-.1-.3-.2-.6.2-.1.3-.1.4-.2.5M39.1 25.8c-.1 0-.3-.1-.4-.2 0-.1 0-.1.1-.2.2-.4.1-.6-.7-1.1-.6-.3-1.4-.7-1.8-1-.5-.3-.9-.5-1.2 0-.1.1-.1.1-.1.2-.1 0-.3-.1-.4-.2.4-.9 1.3-2.4 2.2-3.9.3.2.9.5 1.2.6 0 .2 0 .4-.2.5-.1 0-.3-.1-.4-.1-.2 0-.5-.1-.8.3-.3.3-.5.8-.6 1-.1.2 0 .3.1.4.1.1 1.2.7 1.3.8.7-1.3.7-1.3.8-1.3.2 0 .3.1.4.3l-.7 1.3s.8.5.9.5c.7.4.8.3 1.1-.2.1-.2.2-.3.3-.5.2-.4.2-.7-.1-1.1-.1-.1-.2-.2-.2-.3 0-.2.1-.3.3-.4.1.1.9.8 1.1 1-.8 1-1.6 2.3-2.2 3.6M84.6 65.9c.1 0 .2.2.2.4l-.1.1c-.4.3-.4.5.1 1.3.4.6.8 1.3 1.1 1.8.3.5.5.9 1 .6.1 0 .1-.1.2-.1s.2.2.2.4c-.8.6-2.3 1.4-3.9 2.2-.2-.3-.5-.8-.7-1.1.1-.2.2-.3.4-.3l.3.3c.1.1.4.3.8.1.4-.2.9-.5 1.1-.6.2-.1.2-.2.1-.3-.1-.1-.7-1.2-.8-1.4l-1.3.8c-.2-.1-.3-.3-.3-.4l1.3-.8s-.4-.8-.5-.9c-.4-.7-.5-.6-1.1-.4-.2.1-.3.2-.5.3-.4.3-.5.5-.4 1v.3c-.1.1-.3.3-.5.1-.1-.2-.3-1.1-.4-1.4 1.1-.4 2.4-1.1 3.7-2M98.9 32.6c1.5-.9 1.6-1 2.8-1.8.4-.2.6-.3.7 0 0 .1.1.2.1.2.1.1.4 0 .4-.1-.2-.8-.4-1.5-.7-2.4-.1-.1-.4 0-.4.1s0 .2.1.3c0 .4-.1.6-.6.9-.3.2-3.5 2.2-3.6 2.3-.1.1-.1.1 0 .2 0 0 .3.5.4.7 1.3.2 3.3.5 4 .7.8.1.9.3 1 .5v.3c.1.1.4.1.4 0-.1-.6-.2-1.5-.3-2-.1-.1-.4-.1-.4.1v.2c0 .3 0 .5-.6.4-1-.3-2.3-.5-3.3-.6M98.2 49.3c1.7-.1 1.9-.1 3.3-.1.5 0 .7 0 .6.4v.2c.1.1.3.2.4.1.2-.8.4-1.5.6-2.4-.1-.2-.3-.1-.4-.1 0 .1-.1.2-.1.3-.2.4-.3.4-1 .5-.3 0-4.2.2-4.2.2-.1 0-.1.1-.1.1v.8c1.1.8 2.6 2.1 3.2 2.6.6.5.6.7.6.9 0 .1-.1.2-.1.3.1.1.3.2.4.2.2-.5.5-1.4.7-1.9 0-.1-.3-.2-.4-.2 0 .1-.1.2-.1.2-.1.3-.2.4-.7 0-.9-.7-1.9-1.5-2.7-2.1M88.2 64.4c1.5.9 1.7 1 2.8 1.7.4.2.6.4.3.7l-.2.2c0 .2.2.3.3.3.6-.5 1.2-1.1 1.8-1.7 0-.2-.2-.3-.3-.3l-.2.2c-.4.2-.5.2-1.1-.1-.3-.2-3.6-2.1-3.7-2.1h-.2s-.3.5-.4.7c.5 1.3 1.1 3.1 1.3 3.9.2.8.2 1 0 1.1-.1.1-.2.1-.2.2s.1.4.2.3c.5-.3 1.2-.9 1.6-1.2 0-.2-.1-.4-.2-.4-.1.1-.1.1-.2.1-.2.1-.4.2-.6-.4-.3-1-.7-2.2-1-3.2M79.3 73.8c-.4-.9-.9-2.6-1.1-3-.3-.7-.4-.9-.8-.8-.1 0-.2 0-.3.1-.1-.1-.2-.3-.1-.5.7-.3 1.6-.6 2.3-.9.1.1.2.3.2.4-.1 0-.2.1-.2.1-.4.3-.4.4-.1 1.2.2.5.6 1.6.7 2 .3.8.4.9.8.8.1 0 .1 0 .2-.1.1 0 .2.3.2.4-1.3.5-2 .7-2.3.8-.2.1-.5.2-.7.2-.6.1-1.6.2-1.9-1-.2-.7.1-1.2.6-1.5-.4-.3-.9-.7-1.4-1-.5-.3-.7-.4-1.1-.3H74c-.1-.1-.1-.3-.1-.4.1 0 .8-.2 1.4-.3.3.2 2.1 1.4 2.5 1.6v.4c-.3.1-.6.3-.7.6-.1.4 0 .6.1.8.1.2.2.5.5.6.3.1.6.1.8 0 .2-.1.4-.1.5-.2h.3M57 69.4c-.2.1-.2.3-.2.4.1 0 .1 0 .2.1.3.2.3.3-.1.7l-.4.4c-.2-.1-1.4-.6-1.7-.6v-.6c0-.4 0-.7.4-.6.1 0 .1 0 .2.1.1-.1.2-.3.2-.4-.3-.1-1-.4-2-.9-.2.1-.2.3-.2.4.1 0 .2.1.2.1.5.3.3.7.3 1.1 0 .4-.1 4.2-.1 4.3 0 .1 0 .1.1.1h.7c.2-.2 2.2-2.5 2.8-3.1.6-.6.7-.6 1-.6h.2c.1-.1.2-.3.1-.4-.6-.1-1.5-.5-1.7-.5M54.7 73l.1-2.2 1.4.5-1.5 1.7zM36.8 47.3c-.2-.1-.4 0-.4.1v.2c0 .4-.1.4-.6.3-.3 0-.4-.1-.5-.1-.1-.3-.3-1.5-.4-1.7.2-.1.2-.1.5-.3.3-.2.6-.4.7 0v.2c.1.1.4 0 .4-.1-.1-.3-.2-1.1-.4-2.2-.1-.1-.4 0-.4 0v.3c0 .5-.4.7-.7.9-.3.2-3.6 2.2-3.7 2.2-.1.1-.1.1 0 .1 0 0 .3.5.4.6.3 0 3.3.5 4.1.6.8.1.9.3 1 .5.1.1.1.2.1.2.1.1.4 0 .4-.1-.1-.2-.4-1.5-.5-1.7m-4.2.1l1.9-1.1.3 1.5-2.2-.4zM99.2 38.2c-.1.1-.3.1-.4 0-.1-.9-.1-1.3-.2-2 .1-.1.3-.2.4-.1v.2c.1.3.1.5.9.6.5.1 2 .1 2.3.1.5 0 1.1 0 1-.6v-.2c.1-.1.3-.1.4 0 .1.7.1 1.2.1 2-.3 0-.5.1-1 .3-.5.3-2.1 1-2.7 1.3.4.2 2.5 1.2 2.6 1.3.3.1.7.3 1.1.4 0 .5-.1 1.3-.1 2-.1.1-.3.1-.4-.1v-.2c0-.3-.1-.5-.7-.5H100c-.7.1-1.1.1-1.1.4v.3c-.1.1-.3.1-.4-.1.1-1.2.2-1.6.2-2.3.1-.1.3-.1.4 0v.2c0 .3 0 .4.9.4.7 0 2.4 0 2.8-.1-.5-.3-2-.9-2.8-1.3-.8-.4-1.1-.5-1.4-.6-.1-.1-.1-.2 0-.3.1 0 .7-.2 1.4-.6.7-.3 2.4-1.1 2.8-1.2-.6 0-2.2-.1-2.6-.1-.6 0-1.1 0-1 .4M62.8 74.6c0 .1-.2.3-.3.5-.2.2-.5.3-.9.2-.1 0-.4-.1-.7-.1l.6-3c.2-.9.3-1 .7-1h.2c.1-.1.1-.3.1-.4-.7-.1-1.8-.3-2.4-.5-.1.1-.1.3-.1.4.1 0 .2.1.3.1.4.2.4.4.3 1.1-.1.4-.6 3-.6 3-.4-.1-.7-.1-.9-.2-.4-.1-.5-.5-.5-.7v-.4c-.1-.1-.3-.1-.4-.1 0 .2-.2 1.1-.3 1.4 1.9.5 3 .7 4.8.9 0-.1.5-1.1.6-1.3-.1.1-.4 0-.5.1M50.9 70.8c-.1.1-.3.3-.5.4-.2.1-.6.1-.9-.1-.1-.1-.3-.2-.6-.4 0 0 1.3-2.2 1.6-2.7.5-.7.6-.8 1-.7.1 0 .1.1.2.1.1-.1.2-.3.2-.4-.6-.3-1.6-.9-2.1-1.3-.1 0-.3.2-.3.3.1.1.2.1.2.2.3.3.3.5-.1 1.2-.2.4-1.6 2.7-1.6 2.7-.3-.2-.6-.4-.8-.5-.4-.3-.3-.7-.2-.8 0-.1.1-.3.2-.4-.1-.2-.3-.2-.4-.2-.1.2-.6 1-.8 1.2 1.6 1.1 2.5 1.7 4.2 2.6l1-1c0-.1-.1-.2-.3-.2M35.4 39.9v.3c-.1.4-.1.7-.8.7h-.9v-1.4c-.2-.1-.4-.1-.5 0V41c-.2 0-1.5.1-1.6.1-.1 0-.2 0-.3-.3v-1.1c.1-.8 1.1-1 1.4-1 .1-.2.1-.3-.1-.5-.4 0-1.4.2-1.8.2-.1 1.9 0 3.1.1 4.5.1.1.3.1.4 0v-.2c0-.5.4-.5 1-.6.4 0 1.3 0 2.1-.1 1-.1 1 .1 1.1.5v.2c.1.1.4 0 .4 0-.1-.8-.1-1.8-.1-2.6 0-.3-.3-.3-.4-.2M52.6 16.2c-.4.1-.6.8-.6 1.1-.1.3-.1.8-.1.8 0 .1-.1.1-.3 0-.2 0-.4-.4-.5-.6 0-.2 0-.4-.1-.5.1 0 .2.1.3 0 .2-.1.2-.3.2-.7 0-.2-.1-.3-.2-.4h-.2v-.3c0-.1-.1-.2-.2-.2s-.3-.1-.4 0c-.2 0-.3.1-.4.1-.1.2-.1.3-.1.3 0 .1.1.2.1.2-.1 0-.2 0-.2.1-.1.1-.1.3-.1.4.1.3.2.5.4.6.1 0 .2 0 .2-.1 0 .1.1.3.1.5s0 .7-.2.8c-.1 0-.2.1-.2 0l-.4-.7c-.3-.5-.6-.9-.9-.9-.1 0-.3.1-.4.2-.1.2-.1.6.1.8.2.2.5.3.6.2l.6 1.2c.1.3.3.8.4 1.1.1.3.4.5.8.6 0 0 .2 2.8 1 8.4.1.2.6.3.8.2.3-.1.7-.2.6-.6-.9-5.6-1.5-8.3-1.5-8.2.3-.2.6-.4.6-.8v-1.3c0-.5 0-.8.1-1.3.2 0 .4-.1.5-.3.1-.3.1-.6 0-.8-.1.1-.2 0-.4.1M51.9 35.8c.2.3.8.6 1.7.5.8-.1 1.2-.5 1.4-1 .2.2.7 2.3-1.1 2.5-1.8.2-2.1-1.5-2-2M55.5 32.3c-.1-.1-.2-.2-.4-.2.1-.2.2-.2.2-.4.1-.2.1-.4 0-.8-.1-.2-.3-.2-.5-.3 0-.1.1-.1.1-.3.1-.3 0-.4-.1-.6-.2-.3-.9-.3-1-.1-.2.4-.7.6-1.1.6-.5.1-.9 0-1.3-.2-.3-.2-.5-.2-.7 0-.2.2-.4.5-.4.9s.3.6.3.8c.1.3-.2.5-.1.8.1.3.3.4.4.6.1.2 0 .4 0 .7 0 .3.3.5.4.6.1.2 0 .5.1.6.2.2.3.2.6.3.5.1 1.2.1 2-.2.4-.2.9-.4 1.1-.9.1-.2 0-.5-.1-.7.2-.1.3-.2.3-.4.4-.4.3-.7.2-.8m-1.7 1.3c-.1.1-.3.1-.4.1 0 .1.1.3.1.3s-.4.1-.4 0c-.1 0-.1-.1-.2-.2-.1 0-.2.1-.4 0-.1 0-.2-.4-.2-.5.1-.1.2 0 .4-.1-.1-.1-.1-.3-.1-.3s.4-.1.4 0c.1.1.1.2.1.3.1 0 .3-.1.4 0 .3 0 .4.3.3.4M62 18.1c.1-.9.4-1.6.6-2.1 0-.1-.2-.3-.2-.3-.1 0-4.4 1.1-8 3.3-.7.4-.2 2 .3 3.1 1.6 3.8 3.4 3.3 4.1 6.2.2 1 1.1 4.6 1.2 5.1.3 1 1.2 1.6 2.3 1.5-.3-4.7-.8-12.4-.3-16.8m-4.6 3.1c-.1.5-.6 1.5-.8 1.5-.3-.1-.6-1.2-.6-1.7 0-.3.1-.4.2-.5.1 0 .3.4.3.9h.3c.1-.6.4-.9.5-.8.2 0 .2.3.1.6M59 18c.1-.3.1-.4.2-.4s.2.4.1.9h.3c.2-.5.5-.7.6-.7.1.1.1.3 0 .5-.2.4-.7 1.3-1 1.2-.2.1-.3-1-.2-1.5m1.5 5.6c-.2.5-.8 1.6-1.1 1.5-.4-.1-.5-1.4-.4-1.9 0-.3.1-.5.3-.5.1 0 .2.4.2 1.1h.3c.2-.7.5-.9.6-.8.2.1.2.3.1.6M80.8 19.1c-3.9-2.4-8.2-3.4-8.3-3.4-.1 0-.3.2-.2.3.2.4.5 1.1.6 2 .5 4.4 0 12.1-.3 16.9 1.1.1 1.9-.5 2.3-1.5.2-.5.9-4.1 1.2-5.1.6-2.4 3.6-3.4 4.4-6 .4-1.2 1-2.8.3-3.2m-6.2-1.2c.1 0 .4.1.6.7h.3c-.1-.5 0-.9.1-.9s.2.1.2.4c.1.4 0 1.5-.3 1.6-.2.1-.8-.8-1-1.2 0-.3 0-.5.1-.6m1 8c-.3.1-.9-1-1.1-1.5-.1-.3-.1-.6 0-.7.1-.1.4.2.6.8h.3c0-.6.1-1.1.2-1.1s.2.2.3.5c.2.6 0 1.9-.3 2m2.9-3.1c-.3 0-.7-1-.8-1.5-.1-.3 0-.5.1-.6.1 0 .4.2.5.8h.3c0-.6.2-1 .3-1 .1 0 .2.2.2.5 0 .6-.3 1.7-.6 1.8M70.6 10.5s0-.8-.7-1v-.2s.7-.1 1.1.2v.3c.5 1.2-.3 1.7-.3 2.6-1-.6-1.8-.6-1.8-.6l-.5-1.3s.2-.1.7-.1c.5 0 1.1-.1 1.5.1M67.3 6.4c-1.4 0-2.9.1-3.8.6-.2-.4-.5-2.2-1.1-2.8-.1-.1-.3-.4-.4-.4-.1-.1-.1-.2 0-.2s.2-.1.4 0c.2 0 .3.1.4.4h.1v-.4c0-.1.2-.2.4.1.1.1.2.2.2.3 0 .1.1.3 0 .4-.1.1-.2 0-.3 0v.1c.2.2.6.5 1 .4.5-.1.7-.4.6-.8 0 0-.1.1-.2.1s-.3 0-.4-.3c-.1-.2-.1-.4 0-.4 0-.1.2-.1.4 0v-.1c-.3-.1-.3-.3-.3-.4 0-.1.1-.3.4-.3.4-.1.5.1.5.2s0 .3-.2.4l.1.1c.1 0 .1-.1.1-.1s.1-.1.2-.1.2 0 .3.3c.1.4-.1.5-.2.5s-.2 0-.3-.1c.2.4.5.7 1.1.6.5 0 .8-.3.8-.9 0 0-.1.1-.3.1-.2 0-.3-.1-.3-.4-.1-.3 0-.4.2-.5.1-.1.3 0 .3.1v-.1c-.1-.1-.2-.2-.2-.4 0-.1.2-.2.5-.2s.5.1.5.2-.1.2-.2.4v.1s.2-.1.3-.1c.1 0 .2.2.2.5-.1.2-.2.4-.3.4-.2 0-.2-.1-.3-.1 0 .6.4.9.8.9.5 0 .9-.2 1-.6 0 .1-.1.1-.2.1s-.3-.1-.2-.5c.1-.3.2-.3.3-.3 0 0 .1 0 .2.1l.1.1.1-.1c-.2-.1-.2-.4-.2-.4 0-.1.2-.3.5-.2.3.1.4.2.4.3 0 .1-.1.3-.3.4v.1c.2-.1.4 0 .4 0 0 .1.1.2 0 .4-.1.3-.3.3-.4.3-.1 0-.1-.1-.2-.1 0 .4.1.7.6.8.4.1.9-.2 1-.4v-.1c-.1.1-.2.1-.3 0-.1-.1-.1-.2 0-.4 0-.1.1-.2.2-.3.2-.2.4-.1.4-.1.1.1.1.2 0 .4h.1c.1-.2.2-.3.4-.4h.4c.1 0 .1.1 0 .2-.1 0-.3.3-.4.4-.6.7-.9 2.4-1.1 2.8-.9-.4-2.3-.6-3.8-.6" />
    <path fill="#fff" d="M66.5 14c.4 0 .7-.5.7-.5h.3s.2.5.6.5c1.4.2 2.5.4 2.9.6.3-.5.2-1-.6-1.5-.3-.2-1.1-.5-2.3-.5-.7.8-1.5-.2-2.4.1.3-.3.7-.7 1.1-.7l.4.2c.2.1.7-.1.8-.2.1-.1-.4-2.8-.4-2.8s1.2-.7 2.2-.7c.9 0 1.2.6 1.2.6.4-1.9-2-1.8-3.7-1.8-4.7 0-3.5.9-3.3 2.5 0 .4-.7.8 0 2.4.1.2.2.5.2.9-.6.4-.8 1-.5 1.5.6-.3 1.8-.5 2.8-.6m.5-4.8c-.2.7-.3 1.4-.3 1.4s-.3-.1-.9-.1h-1.5c.1-.3.2-.9.9-.9v-.2l-.9-.2c.7-1.5 2.4-.2 2.7 0M70.6 15.1c-2.3-.4-4.4-.4-6.7.1-.4 1.6-.9 5-.1 6 .2.2 1.5.8 2.7.5.3-.2.3-1.7.4-2.4.1-1 .1-1.1.2-1.1h.4c.2.1.1 3.2.5 3.4 1.1.4 2.7-.1 3-.5.7-.8 0-5-.4-6m-3.3 1.4c-1.1 0-1.4-.3-1.4-.9 0 0 .3.2 1.4.2 1.1 0 1.4-.2 1.4-.2 0 .6-.4.9-1.4.9M67.3 45.2c-3.5 0-7.6.4-9.2.7-.4-.9-1.4-3.3-2.8-4.9-.2-.2-.8-.8-.9-1-.1-.1-.2-.4 0-.4.3-.1.6-.1.9-.1.5.1.8.3.9.9l.2.1c-.1-.3-.1-.6.1-.8.1-.1.5-.3 1.1.2.3.3.4.5.5.8.1.3.2.6-.1.8-.2.1-.5.1-.8 0v.2c.4.5 1.4 1.1 2.5 1 1.3-.2 1.6-.9 1.5-1.7 0 0-.1 0-.1-.1-.1.1-.2.2-.4.3-.2 0-.6 0-1-.6-.2-.5-.2-.8-.1-.9.1-.1.4-.2 1-.1v-.1c-.7-.2-.8-.6-.8-.9 0-.2.2-.6 1-.7.9-.2 1.2.2 1.3.4.1.2 0 .7-.4 1l.1.1c.1-.1.2-.2.3-.2.1-.1.3-.1.4-.1.3 0 .5.1.7.8.2.9-.4 1-.5 1-.2 0-.5-.1-.6-.1l-.1.1c.5.9 1.3 1.5 2.6 1.4 1.2-.1 2-.7 2-2 0 0-.1 0-.1-.1 0 0-.2.3-.6.3-.4 0-.7-.3-.8-.8-.2-.6.1-.9.4-1 .4-.1.7.1.8.2l.1-.1c-.2-.2-.4-.5-.4-.8.1-.3.5-.6 1.2-.6s1.1.2 1.2.6c.1.2-.1.5-.4.8l.1.1c.1-.1.5-.3.8-.2.3.1.5.4.4 1-.1.5-.4.8-.8.8s-.6-.3-.6-.3-.1 0-.1.1c0 1.3.9 2 2 2 1.3.1 2.1-.4 2.6-1.4 0 0 0-.1-.1-.1-.2.1-.5.1-.6.1-.2 0-.7-.2-.5-1 .2-.7.4-.8.7-.8.1 0 .3.1.4.1.1.1.2.1.3.2l.1-.1c-.4-.3-.5-.8-.4-1 .1-.2.4-.6 1.3-.4.8.1 1 .5 1 .7 0 .2-.1.7-.8.9v.1c.6-.2.9-.1 1 .1.1.1.1.5-.1.9-.3.6-.8.6-1 .6-.2 0-.3-.2-.4-.3 0 0-.1 0-.1.1-.1.8.2 1.5 1.5 1.7 1.1.2 2.1-.4 2.5-1v-.2c-.3.1-.6.2-.8 0-.3-.2-.2-.5-.1-.8.1-.3.2-.5.5-.8.5-.5.9-.3 1.1-.2.1.2.2.5.1.8l.2-.1c.1-.6.4-.8.9-.9.4-.1.7 0 .9.1.2.1.1.3 0 .4-.1.1-.7.7-.9 1-1.4 1.5-2.4 4-2.8 4.9-1.3-.3-5.5-.7-9-.7zM64.6 61.4c.2 0 .3-.1.5-.3h-.7c0 .2 0 .3.2.3M64.7 54.8H64c0 .2.1.3.2.3.3 0 .4-.1.5-.3M71.3 56.9h.2c.5 0 .9-.3.9-.9 0-.6-.5-.8-.9-.8-1 0-1 1.1-2.1 1.3h.6c.7.1 1.1.1 1.3.4" />
    <path fill="#fff" d="M67.3 46.5c-4.9 0-7.9.5-9 .7 0 .8.3 7.7.5 13 .3 6.4 3.7 8.4 8.5 8.4 4.5 0 8.2-1 8.5-8.4.3-5.3.5-12.2.5-13-1-.2-4-.7-9-.7m.9 1.5c.3 0 .4.2.4.3h.3c0-.1.1-.3.4-.3.4 0 .5.3.5.3 0 .5-.7.6-.9.8h-.1c-.2-.2-.9-.3-.9-.8-.2 0-.2-.3.3-.3m-4.7.5h.3l-.2-1h.1c.3.2.4.5.4.5h.1c0-.2.2-.5.2-.5h.2c.1.2.2.5.2.5h.1s.1-.3.4-.5h.1l-.2.8c.3 0 1 1.1 1 2.1.3-.1 1.8-.1 1.9-.1-1-.1-1.7-.6-1.7-2h.3c.5.1.8.5.8.7 0 .2-.1.3-.2.4 0 .2.4.5 1.1.5 1.5 0 1.4-1.7 3.3-1.7.7 0 1.7.3 1.7 1.4 0 1.2-1.4 1.3-1.7 1.3.2.2-.1.7.6.7.6 0 1.4-.2 1.7-.2.5 0 .2.6.6 1 .3.3.3.4.3.5 0 .1-.1.3-.2.3V53h-.1s-.1 0-.2-.2c-.2 0-.2.1-.2.2v.2c0 .2-.2.2-.2.2v.2c-.1 0-.2-.1-.2-.3v-.2c0-.1 0-.1-.1-.1h-.1s0 .3-.2.3h-.2l-.1.1v.1c-.1.3-.1.2-.1.1 0-.3.2-.2.2-.3 0-.1-.1-.1-.1-.1H72.8c-.1.1-.1.1-.1.2 0-.1-.1-.2-.1-.2 0-.2.2-.3.5-.3h.3c.2 0 .4-.2.4-.3-.4 0-1.8.5-3 .5-1.7 0-.4-2.1-1.7-2.1-1.3 0-1.6 1.4-3 1.4-.5 0-.9-.1-1-.1 0 .4 0 .6-.4.6-.3 0-1.4.1-3.1.1-.1.6-.3.7-.5.7-.1 0-.2-.1-.3-.1.1 0 .3 0 .3-.1l-.1-.1s0-.1.1-.2H61c-.2 0-.4.4-.7.4-.1 0-.2-.1-.2-.2-.1 0-.2.1-.2.2 0-.2.1-.4.3-.4.2 0 .2 0 .2-.1V53h-.2c-.2 0-.3-.1-.3-.2 0 0-.1 0-.2.1 0-.2.2-.4.3-.4.2 0 .2 0 .4.1v-.1c0-.1-.1-.1-.3-.2-.1 0-.1-.2-.2-.2s-.2.1-.2.1c.1-.2.2-.4.5-.4.5 0 .5.5 1.1.5.8 0 2.1-.1 2.3-.2-.2-.2-.3-.3-.3-.6s.3-.7.4-.9h-.2c-.1 0-.3 0-.3-.2s.1-.3.2-.4h.2c0 .1.1.2.5.2s.5-.2.5-.4c0-.5-.2-.6-.6-.6-.3 0-.3 0-.3.2h-.2c-.1-.2-.2-.4-.2-.6-.4-.2-.3-.3.2-.3m3.7 5.2h-.1c-.3 0-.3.6-.8.3-.1 0-.1.1 0 .2-.1-.1-.2-.2-.1-.3.1-.1.3-.2.3-.3 0 0 0-.1-.1-.1-.2 0-.3.3-.5.1v-.1s-.1 0-.2.1c0-.2.1-.2.2-.3.2-.1.4-.1.4-.1v-.1c-.1-.1-.3.1-.3-.1-.1 0-.2 0-.2.1 0-.2.2-.3.4-.4.2 0 .6.2.9.3h.7c.2 0 .2-.1.1-.4-.1-.5 0-.9.4-1.2.3-.2.6-.2.9-.2.1.1.2.2.2.4s0 .3.1.6c-.2 0-.5.1-.7.3-.1.2.1.5.1.7 0 .2-.1.2-.3.3h-.8v.1c0 .1-.1.3-.3.3-.2.1-.3.2-.5.1.1 0 .2-.1.2-.1-.2-.1 0-.2 0-.2m1 .7c.3 0 .4.2.4.3h.3c0-.1.1-.3.4-.3.4 0 .5.3.5.3 0 .5-.7.6-.9.8h-.1c-.2-.2-.9-.3-.9-.8-.2-.1-.2-.3.3-.3m-5.4 3.7c-.2-.1-.3-.2-.4-.3-.4-.4-.5-1-.8-1.3-.3-.4-.5-.6-.5-.7h-.4c-.1 0-.4 0-.6-.4.1 0 .2.1.2.1 0-.1.1-.1.1-.1.1 0 .1.1.2.1h.1v-.1c0-.2-.2-.2-.3-.2-.3 0-.3-.3-.3-.3s0-.1-.1-.1h-.1c.1-.1.3-.2.5-.2s.4.3.5.3c.1 0 .1-.1.1-.1 0-.1-.1-.1-.2-.2l-.1-.1v-.1c-.1-.1-.1-.1-.3-.1.2-.1.3-.1.4-.1.3 0 .5.3.5.5.1 0 .1 0 .1-.1v-.1c0-.1 0-.2.1-.2 0-.1-.1-.1-.2-.1h.2c.1 0 .4.1.4.4 0 .3-.2.5-.2.6 0 .2.9 1.6 1.3 1.9-.2.1-.5.7-.2 1M62 55h.2c.5 0 .5.7 1.1.7.3 0 .3-.1.5-.1.1 0 .2 0 .2.2s-.1.2-.5.2c-1.2.1-.9-.6-1.5-1m.1-6.3c.5 0 .5.7 1.1.7.3 0 .3-.1.5-.1.1 0 .2 0 .2.2s-.1.2-.5.2c-1.2 0-.9-.7-1.6-1 .2.1.3 0 .3 0m-1.8-.4c.2 0 .4.3.5.3.1 0 .1-.1.1-.1 0-.1-.1-.1-.2-.2l-.1-.1v-.1c0-.1-.1-.1-.2-.1.2-.1.3-.1.4-.1.3 0 .5.3.5.5.1 0 .1 0 .1-.1v-.1c0-.1 0-.2.1-.2 0-.1-.1-.1-.2-.1h.2c.1 0 .4.1.4.4 0 .3-.2.4-.2.6 0 .2.9 1.6 1.3 1.9-.2.3-.5.8-.1 1.1-.2-.1-.3-.2-.4-.3-.4-.4-.5-1-.8-1.3-.3-.4-.5-.6-.5-.7h-.4c-.1 0-.4 0-.6-.4.1 0 .2.1.2.1 0-.1.1-.1.1-.1.1 0 .1.1.2.1h.1v-.1c0-.2-.2-.2-.3-.2-.3 0-.3-.3-.3-.3s0-.1-.1-.1H60c0-.2.1-.3.3-.3m-.5 1.8c.3 0 .4.2.4.3h.3c0-.1.1-.3.4-.3.4 0 .5.3.5.3 0 .5-.7.6-.9.8h-.1c-.2-.2-.9-.3-.9-.8-.2-.1-.2-.3.3-.3m-.5 6.6c0-.1 0-.3.5-.3.3 0 .4.2.4.3h.3c0-.1.1-.3.4-.3.4 0 .5.3.5.3 0 .5-.7.6-.9.8h-.1c-.4-.2-1.1-.3-1.1-.8m.8 2.6c.2 0 .2 0 .2-.1v-.1h-.2c-.2 0-.3-.1-.3-.2 0 0-.1 0-.2.1 0-.2.2-.4.3-.4.2 0 .2 0 .4.1v-.1c0-.1-.1-.1-.3-.2-.1 0-.1-.2-.2-.2s-.2.1-.2.1c.1-.2.2-.4.5-.4.5 0 .5.5 1.1.5.8 0 1.9-.1 2.1-.2-.1-.1-.3-.2-.3-.5s.3-.7.4-.9h-.2c-.1 0-.3 0-.3-.2s.1-.3.2-.4h.2c0 .2.1.2.5.2s.5-.2.5-.4c0-.5-.2-.5-.6-.5-.3 0-.3 0-.3.2h-.2c-.1-.2-.2-.4-.2-.6 0-.2.1-.3.6-.3h.3l-.2-1h.1c.3.2.4.5.4.5h.1c0-.2.2-.5.2-.5h.2c.1.2.2.5.2.5h.1s.1-.3.4-.5h.1l-.2.8c.3 0 1 1.1 1 2.1.3-.1 1.8-.1 1.9-.1-1-.1-1.7-.6-1.7-2h.3c.5.1.8.5.8.7 0 .2-.1.3-.2.4 0 .2.4.5 1.1.5 1.5 0 1.2-1.7 3.2-1.7.7 0 1.7.3 1.7 1.4 0 1.2-1.2 1.3-1.5 1.3.2.2-.2 1 .5.9.6-.1 1.4-.4 1.6-.4.5-.1.3.6.8 1 .3.3.4.3.4.4 0 .1 0 .3-.2.4v-.2h-.1s-.1 0-.2-.2c-.2.1-.2.1-.2.2s0 .1.1.2c0 .2-.1.2-.2.3v.2c-.1 0-.2-.1-.3-.2v-.2c0-.1-.1-.1-.1-.1h-.1s0 .3-.2.3h-.2s-.1.1 0 .1v.1l-.2-.2c0-.3.2-.2.2-.3 0-.1-.1-.1-.1-.1-.1 0-.1.1-.2.1h-.1c0 .1-.1.1-.1.2-.1-.1-.1-.1-.1-.2 0-.2.2-.3.4-.4h.3c.2 0 .3-.2.3-.4-.4.1-1.8.6-2.9.6-1.7 0-.4-2.2-1.7-2.2-1.3 0-1.6 1.4-3 1.4-.5 0-.9-.1-1-.1 0 .4 0 .6-.4.6-.3 0-1.1.1-2.9.1-.1.6-.3.7-.5.7-.1 0-.2-.1-.3-.1.1 0 .3 0 .3-.1l-.1-.1s0-.1.1-.2h-.1c-.2 0-.4.4-.7.4-.1 0-.2-.1-.2-.2-.1 0-.2.1-.2.2-.6-.2-.5-.4-.2-.4m7.1.6h-.1c-.3 0-.3.6-.8.3-.1 0-.1.1 0 .2-.1-.1-.2-.2-.1-.3.1-.1.3-.2.3-.3 0 0 0-.1-.1-.1-.2 0-.3.3-.5.1v-.1s-.1 0-.2.1c0-.1.1-.2.2-.3.2-.1.4-.1.4-.1v-.1c-.1-.1-.3.1-.3-.1-.1 0-.2 0-.2.1 0-.2.2-.3.4-.4.2 0 .6.2.9.3h.7c.2 0 .2-.1.1-.4-.1-.5 0-.9.4-1.2.3-.2.6-.2.9-.2.1.1.2.2.2.4s0 .3.1.6c-.2 0-.5.1-.7.3-.1.2.1.5.1.7 0 .2-.1.2-.3.3h-.8v.1c0 .1-.1.3-.3.3-.2.1-.3.1-.5.1.1 0 .2-.1.2-.1-.2-.1 0-.2 0-.2m1 .8c.3 0 .4.2.4.3h.3c0-.1.1-.3.4-.3.4 0 .5.3.5.3 0 .5-.7.6-.9.8h-.1c-.2-.2-.9-.3-.9-.8-.2-.1-.2-.3.3-.3m-4.9 3.7l-.4-.2c-.4-.4-.5-1-.8-1.3-.3-.3-.5-.6-.5-.6h-.4c-.1 0-.4.1-.5-.4.1 0 .1.1.2.1 0-.1.1-.1.1-.1h.1s.1 0 .1-.1-.1-.2-.2-.2c-.2 0-.3-.2-.3-.3 0 0 0-.1-.1 0h-.1c.1-.2.3-.2.4-.2.2 0 .3 0 .4.2l.1-.1c0-.1-.1-.1-.2-.1l-.1-.1v-.1c-.1-.1-.1-.1-.2-.1.2-.1.2-.2.3-.2.4 0 .5.3.5.5.1 0 .1-.1.1-.1v-.1c0-.1 0-.2.1-.2 0-.1-.1-.1-.2-.1.1 0 .1-.1.2-.1s.3.1.4.3c0 .3-.1.5-.1.6 0 .2.9 1.5 1.3 1.8-.2.3-.5.9-.2 1.2m-.9-3h.2c.5 0 .5.7 1.1.7.3 0 .3-.1.5-.1.1 0 .2 0 .2.2s-.1.2-.4.2c-1.2 0-.9-.7-1.6-1m-2.6 1.7c0-.1 0-.3.5-.3.3 0 .4.2.4.3h.3c0-.1.1-.3.4-.3.4 0 .5.3.5.3 0 .5-.7.6-.9.8h-.1c-.4-.1-1.1-.3-1.1-.8m8.9 2.1c-.1.2.1.6.1.8 0 .2-.1.3-.2.3s-.3.1-.7.2c0 0 .1.1.1.3 0 .2-.4.3-.5.3.1-.1.1-.2.1-.2-.2-.1 0-.2 0-.2h-.1c-.3.1-.1.7-.6.5-.1.1 0 .1 0 .2-.1 0-.2-.2-.2-.3l.3-.3s0-.1-.1 0c-.2 0-.2.3-.4.2v-.1s-.1 0-.2.1c0-.1 0-.2.2-.3.1-.1.3-.1.3-.2-.1-.1-.3.1-.4 0-.1 0-.1.1-.2.2 0-.2.1-.4.3-.5.2-.1.6.1.9 0 .1 0 .3-.1.3-.1.1 0 .1 0 .2-.1.2 0 .1-.1 0-.4-.2-.4.1-1.3.4-1.5.2-.2.5-.2.8-.2.1.1.1.2.1.4s0 .3.1.6c-.2 0-.5 0-.6.3m5.3.5v-.2h-.1c-.1 0-.1 0-.2-.1-.1.1-.2.2-.1.2 0 .1 0 .1.1.2 0 .2-.1.3-.1.3v.2c-.1 0-.2 0-.3-.2v-.2c0-.1 0 0-.1 0h-.1c0 .1 0 .3-.1.3h-.2v.2c-.1 0-.1-.1-.2-.2-.1-.2.1-.3.1-.4h-.1c-.1.1-.1.1-.2.1h-.1v.2c-.1-.1-.1-.1-.1-.2 0-.2.1-.4.3-.4h.2c.1 0 .3-.3.2-.4-.4.1-1.5.9-2.5.9-1.4 0-.3-2.4-1.5-2.4-1.1 0-1.5 1.4-2.7 1.4-.4 0-.8-.1-.9-.1 0 .4 0 .6-.4.6-.3 0-.7.1-2.3.1-.1.6-.2.7-.4.7-.1 0-.2-.1-.2-.1.1 0 .2 0 .2-.1l-.1-.1s0-.1.1-.1h-.1c-.2 0-.4.3-.7.3-.1 0-.2-.1-.2-.2-.1 0-.2.1-.2.2 0-.2.1-.4.3-.4.2 0 .2 0 .2-.1v-.1h-.2c-.1 0-.3-.1-.3-.2 0 0-.1 0-.2.1 0-.2.2-.4.3-.4.2 0 .2 0 .4.1v-.1c0-.1-.1-.1-.3-.2-.1 0-.1-.2-.2-.2s-.2.1-.2.1c0-.2.2-.4.5-.4.4 0 .4.5 1 .5.7 0 1.3-.1 1.5-.2-.1-.2-.3-.3-.3-.6s.2-.7.3-.9h-.2c-.1 0-.3 0-.3-.2s.1-.3.2-.4h.2c0 .2.1.2.5.2s.5-.2.5-.4c0-.5-.2-.6-.6-.6-.3 0-.3 0-.3.2h-.2c-.1-.2-.2-.4-.2-.6 0-.2.1-.3.6-.3h.3l-.1-1h.1c.2.2.4.5.4.5h.1c0-.2.2-.5.2-.5h.1c.1.2.1.5.1.5h.1s.1-.3.3-.5h.1l-.1.8c.3 0 .9 1.1.9 2.1.3-.1 1.6-.1 1.7-.1-.9-.1-1.6-.6-1.6-2h.3c.5.1.7.5.7.7 0 .2-.1.3-.2.4 0 .2.3.5 1 .5 1.3 0 1.4-1.5 3-1.5.6 0 1.4.2 1.4 1.3s-1.2 1.3-1.4 1.3c.2.2-.4 1.1.2 1 .6-.2 1.2-.6 1.4-.6.5-.1.3.5.8.8.3.2.4.3.4.4-.1.2-.1.4-.2.5m.1-1.8H74c-.2-.2-.9-.3-.9-.8 0-.1 0-.3.5-.3.3 0 .4.2.4.3h.3c0-.1.1-.3.4-.3.4 0 .5.3.5.3-.2.5-.9.7-1.1.8m.4-6.4h-.1c-.2-.2-.9-.3-.9-.8 0-.1 0-.3.5-.3.3 0 .4.2.4.3h.3c0-.1.1-.3.4-.3.4 0 .5.3.5.3-.2.5-.9.6-1.1.8m0-6.3h-.1c-.2-.2-.9-.3-.9-.8 0-.1 0-.3.5-.3.3 0 .4.2.4.3h.3c0-.1.1-.3.4-.3.4 0 .5.3.5.3-.1.5-.8.6-1.1.8" />
    <path fill="#fff" d="M72 62.4c0-.5-.4-.7-.7-.7-.8 0-1.1 1-2.1 1.2h.5c.7 0 1 .1 1.2.3h.1c.5 0 1-.3 1-.8M71.3 50.6h.2c.5 0 1-.3 1-.9 0-.6-.5-.8-.8-.8-1 0-1.1 1.2-2.3 1.3h.6c.7.1 1.1.2 1.3.4M64.2 48.9c.3 0 .4-.1.5-.3H64c0 .1.1.3.2.3M87.5 30.4c.4 0 .7.2.7.7 0 .7-.3 1-.6 1s-1-.2-1-.9.7-.8.9-.8M83.7 30.6c.3 0 .6.3.7.5.1-.3.4-.4.6-.4.4 0 .6.3.8.8.2.4.5.9 1.1 1 0 .8-.2 1.3-.9 1.3-.3 0-.5-.1-.6-.1-.2.2-.3.4-.8.4-.3 0-.7-.2-.8-.4-.3.2-.4.4-.8.4-.3 0-.6-.3-.8-.5-.2.1-.3.1-.5.1-.5 0-.9-1.1-.9-1.5 0-.3.2-.6.6-.6.1 0 .3.1.4.1 0-.2.1-.7.6-.7.2 0 .5.1.6.2.1-.3.2-.6.7-.6" />
    <path fill="#fff" d="M83.5 26c-.9 0-3.2 1.1-3.2 3.3 0 .5 0 1.1.1 1.4.1-.1.2-.1.3-.1.1 0 .4.1.5.3 0-.3.1-.7.7-.7.3 0 .4.1.6.2.1-.5.5-.6.8-.6.3 0 .7.2.9.6 0-.4.3-.5.6-.5.6 0 .8.4 1.1.9 0-.6.9-.9 1.5-.9h.2c0-1.8-.8-3.2-2.7-3.7.4-3 .2-3.2.1-3.3-.1-.1-.2-.2-.4-.2v-.4c.3-.1.5-.3.5-.6 0-.2-.2-1.6-.2-1.6 0-.2.1-.3.2-.3s1.4.5 1.5.6c.3 0 .6-.3.6-.6 0-.4-.2-.7-.5-.7-.2 0-1.3.3-1.6.3-.1 0-.3-.2-.2-.3 0 0 .4-1.4.5-1.6 0-.3-.3-.6-.6-.6-.4-.1-.7.1-.7.5 0 .2.2 1.6.2 1.6 0 .1-.1.3-.3.3-.3-.1-1.4-.5-1.5-.5-.3 0-.6.3-.6.6 0 .4.2.7.5.7.2 0 1.5-.3 1.6-.3.2 0 .2.1.2.3 0 0-.4 1.4-.4 1.6 0 .3.1.5.4.6v.4c-.1 0-.3 0-.4.1 0 0-.2.2-.3 3.2" />
  </g>
</svg>
