<svg version="1.1" id="Layer_1" xmlns="http://www.w3.org/2000/svg" xmlns:xlink="http://www.w3.org/1999/xlink" viewBox="0 0 90 96" xml:space="preserve">
  <path fill="#0047BA" d="M50.368,46.612c0,0.727,0,1.908,0,2.63V95.2c0,0.726,0.514,1.024,1.127,0.658l17.903-10.335    c0.625-0.363,1.142-1.243,1.142-1.961v-34.32c0-0.722,0-1.903,0-2.63V12.298c0-0.719-0.517-1.602-1.142-1.966L51.495,0    c-0.613-0.369-1.127-0.064-1.127,0.654V46.612z" />
  <path fill="#0047BA" d="M81.643,17.397c-0.618-0.355-1.134-0.068-1.134,0.653v28.562c0,0.727,0,1.908,0,2.63v28.561    c0,0.724,0.516,1.014,1.134,0.659l6.909-3.994c0.617-0.357,1.129-1.246,1.129-1.956v-23.27c0-0.722,0-1.903,0-2.63V23.35    c0-0.719-0.512-1.6-1.129-1.964L81.643,17.397z" />
  <path fill="#0047BA" d="M0,33.716c0,0.725,0.57,1.151,1.262,0.942L38.06,24.047c0.686-0.2,1.259-0.961,1.259-1.68V0.654    c0-0.719-0.518-1.023-1.136-0.654L1.14,21.385C0.508,21.75,0,22.631,0,23.35V33.716z" />
  <path fill="#0047BA" d="M0,46.612c0,0.727,0,1.908,0,2.63v3.842c0,0.722,0.587,1.4,1.3,1.499l36.718,5.283    c0.719,0.104,1.301-0.398,1.301-1.121v-9.503c0-0.722,0-1.903,0-2.63v-9.498c0-0.725-0.582-1.225-1.301-1.123L1.3,41.278    C0.587,41.375,0,42.051,0,42.775V46.612z" />
  <path fill="#0047BA" d="M0,72.512c0,0.71,0.508,1.599,1.14,1.956l37.043,21.391c0.618,0.366,1.136,0.067,1.136-0.658V73.488    c0-0.716-0.573-1.477-1.259-1.673L1.262,61.191C0.57,60.99,0,61.419,0,62.144V72.512z" />
</svg>
