<svg viewBox="0 0 32 32" version="1.1" xmlns="http://www.w3.org/2000/svg"><path clip-rule="evenodd" fill="rgb(228, 67, 50)" fill-rule="evenodd" d="M 4 0 h 24 c 2.2 0 4 1.8 4 4 v 24 c 0 2.2 -1.8 4 -4 4 H 4 c -2.2 0 -4 -1.8 -4 -4 v -5.374 l 0.057 0.033 c 1.365 0.795 4.592 2.674 5.382 3.12 c 0.478 0.27 0.936 0.264 1.397 -0.002 c 0.276 -0.16 3.302 -1.9 6.36 -3.66 l 0.015 -0.01 l 0.06 -0.034 l 6.515 -3.75 c 0.277 -0.16 0.291 -0.65 -0.019 -0.827 l -0.218 -0.124 l -0.001 -0.001 c -0.317 -0.18 -0.726 -0.413 -0.9 -0.516 a 1.02 1.02 0 0 0 -0.998 0.012 a 23821 23821 0 0 1 -10.847 6.235 a 1.349 1.349 0 0 1 -1.338 0 L 0 19.927 v -2.693 l 0.057 0.033 c 1.365 0.795 4.592 2.674 5.382 3.12 c 0.478 0.27 0.936 0.264 1.397 -0.002 c 0.276 -0.16 3.307 -1.903 6.367 -3.664 l 0.024 -0.014 l 0.019 -0.011 l 0.01 -0.006 l 6.53 -3.758 c 0.277 -0.16 0.291 -0.651 -0.019 -0.828 l -0.218 -0.124 c -0.316 -0.18 -0.726 -0.414 -0.901 -0.517 a 1.02 1.02 0 0 0 -0.998 0.012 A 23821 23821 0 0 1 6.803 17.71 a 1.349 1.349 0 0 1 -1.338 0 L 0 14.536 v -2.693 l 0.056 0.032 c 1.365 0.795 4.592 2.674 5.383 3.12 c 0.478 0.27 0.936 0.264 1.397 -0.002 l 6.374 -3.668 l 0.008 -0.005 c 3.2 -1.84 6.426 -3.698 6.568 -3.78 c 0.277 -0.16 0.291 -0.65 -0.019 -0.828 l -0.218 -0.124 c -0.317 -0.18 -0.727 -0.414 -0.901 -0.516 a 1.02 1.02 0 0 0 -0.998 0.012 c -0.154 0.089 -10.5 6.038 -10.847 6.235 a 1.349 1.349 0 0 1 -1.338 0 L 0 9.143 V 4 c 0 -2.2 1.8 -4 4 -4 Z"/></svg>