<svg xmlns="http://www.w3.org/2000/svg" width="100%" height="100%" viewBox="0 0 483 232" fill-rule="nonzero" stroke-linejoin="round" stroke-miterlimit="2" xmlns:v="https://vecta.io/nano"><path d="M-.004 231.163l56.926-125.011s5.204-13.359 20.815-13.359h77.322c-15.594 0-24.534 21.531-24.534 21.531L77.248 231.163H-.004" fill="#e3d8b9"/><path d="M482.473 0c-10.442 24.412-81.059 175.966-97.491 214.33-3.58 8.347-8.993 16.432-21.321 16.432h-77.148c6.81 0 18.196-7.037 30.402-36.042L405.64.035 482.473 0" fill="#eb6f19"/><path d="M196.235 230.901h-76.903c5.745 0 9.884-1.851 13.149-4.593 3.929-3.126 6.688-7.369 8.609-11.839l62.567-137.619 7.771-16.938s5.221-13.359 20.815-13.359h76.205c-15.611 0-23.452 20.955-23.452 20.955l-67.02 146.961c-1.921 4.47-4.68 8.714-8.609 11.839-3.248 2.742-7.386 4.593-13.131 4.593" fill="#fab511"/><path d="M333.12 138.649c-2.2-15.611-6.094-92.095-24.656-92.095-15.611 0-19.924 14.773-50.553 101.175 0 0 5.186 83.015 28.62 83.015 23.417.017 46.589-92.095 46.589-92.095M155.077 92.794c-13.481-.035-19.907 15.821-19.907 15.821l-24.831 66.705c.524 2.532-6.758 55.582 8.993 55.582 16.31 0 21.705-18.51 23.941-23.975 6.531-15.838 22.893-61.117 22.893-61.117-1.118-22.666.856-51.513-11.088-53.015" fill="#004258"/></svg>
