<svg version="1.1" xml:space="preserve" xmlns="http://www.w3.org/2000/svg" xmlns:cc="http://creativecommons.org/ns#" xmlns:dc="http://purl.org/dc/elements/1.1/" xmlns:rdf="http://www.w3.org/1999/02/22-rdf-syntax-ns#" viewBox="0.00 0.00 112.60 112.60"><metadata><rdf:rdf><cc:work rdf:about=""><dc:format>image/svg+xml</dc:format><dc:type rdf:resource="http://purl.org/dc/dcmitype/StillImage"></dc:type><dc:title></dc:title></cc:work></rdf:rdf></metadata><style type="text/css">.st0{fill:#F27777;}.st1{fill:#FFFFFF;}</style><g transform="translate(-15.7 -15.7)"><circle class="st0" cx="72" cy="72" r="56.3"></circle><path class="st1" d="m43.1 43.2c5 1.1 9.8 2.9 14.1 5.3-5.1 2.6-9.4 6.5-12.5 11.3-2-2.7-3.1-6.1-3.1-9.7 0-2.5 0.5-4.8 1.5-6.9z"></path><path class="st1" d="m102.4 95.2c0 3.1-2.5 5.6-5.6 5.6s-5.6-2.5-5.6-5.6v-4.5h-38.5v4.5c0 3.1-2.5 5.6-5.6 5.6s-5.6-2.5-5.6-5.6v-17.1c0-16.5 12.8-30.5 29.3-31.1 17.3-0.6 31.5 13.2 31.5 30.4z"></path><path class="st1" d="m99.3 59.8c-3.1-4.8-7.4-8.7-12.5-11.3 4.4-2.4 9.1-4.2 14.1-5.3 1 2.1 1.5 4.4 1.5 6.9 0 3.6-1.2 6.9-3.1 9.7z"></path><path class="st0" d="m85.3 71.4c-0.4-0.2-0.8-0.1-1 0.2-0.4 0.6-0.9 1-1.6 1.4v-0.5c0-1.4-0.5-2.7-1.3-3.7-0.6-0.9-1.6-1.4-2.8-1.4-1.9 0-3.5 1.6-3.5 3.5 0 0.8 0.3 1.6 0.8 2.2 0.6 0.7 1.3 1.3 2.2 1.7-0.6 0.3-1.2 0.5-1.9 0.5-0.8 0-1.4 0.7-1.4 1.4 0 0.8 0.6 1.4 1.4 1.4h0.7c2.2 0 4.2-1.3 5.1-3.1 1.5-0.4 2.7-1.4 3.5-2.7 0.3-0.2 0.2-0.7-0.2-0.9zm-5.7 1.9c-0.9-0.3-1.7-0.8-2.2-1.6-0.2-0.2-0.3-0.5-0.3-0.8 0-0.8 0.6-1.4 1.4-1.4 0.7 0 1.4 0.6 1.4 1.3 0 0.2 0.1 0.4 0.1 0.7 0.1 0.6-0.1 1.3-0.4 1.8z"></path></g></svg>