<svg version="1.1" id="Layer_1" xmlns="http://www.w3.org/2000/svg" xmlns:xlink="http://www.w3.org/1999/xlink" x="0px" y="0px"
	 viewBox="0 0 54 54" style="enable-background:new 0 0 54 54;" xml:space="preserve">
<style type="text/css">
	.st0{fill:#102147;}
	.st1{fill:#007BFC;}
	.st2{fill:#51B9FF;}
	.st3{fill:#FFFFFF;}
</style>
<g id="bg">
	<rect class="st0" width="54" height="54"/>
</g>
<g id="sygnet__on-white">
	<path class="st1" d="M20.6,9.8c-0.4-0.6-1-1-1.8-1H8.1C6.9,8.8,6,9.7,6,10.9l0,0c0,0.4,0.1,0.8,0.3,1.1l2.2,3.5l14.3-2.2L20.6,9.8z
		"/>
	<path class="st2" d="M22.8,13.3c-0.4-0.6-1.1-1-1.8-1H10.3c-1.2,0-2.1,0.9-2.1,2.1l0,0c0,0.4,0.1,0.8,0.3,1.1l3.1,4.9l14.3-2.2
		L22.8,13.3z"/>
	<path class="st3" d="M11.6,20.4c-0.2-0.3-0.3-0.7-0.3-1.1c0-1.2,0.9-2.1,2.1-2.1l0,0h10.8c0.7,0,1.4,0.4,1.8,1l9.6,15.3
		c0.2,0.3,0.3,0.7,0.3,1.1c0,0.4-0.1,0.8-0.3,1.1l-5.4,8.5c-0.6,1-1.9,1.3-2.9,0.6c-0.3-0.2-0.5-0.4-0.6-0.6L11.6,20.4z"/>
	<path class="st3" d="M38.7,25c0.6,1,1.9,1.3,2.9,0.6c0.3-0.2,0.5-0.4,0.6-0.6l1.8-2.9l3.5-5.6c0.2-0.3,0.3-0.7,0.3-1.1
		c0-0.4-0.1-0.8-0.3-1.1l-2.8-4.4c-0.4-0.6-1.1-1-1.8-1H32.3c-1.2,0-2.1,0.9-2.1,2.1l0,0c0,0.4,0.1,0.8,0.3,1.1L38.7,25z"/>
</g>
</svg>