<svg version="1.0" xmlns="http://www.w3.org/2000/svg" viewBox="0 0 200.000000 200.000000"
 preserveAspectRatio="xMidYMid meet">
<g transform="translate(0.000000,200.000000) scale(0.100000,-0.100000)"
fill="#555" stroke="none">
<path d="M833 1965 c-208 -38 -399 -140 -541 -289 -117 -123 -189 -248 -238
-411 -38 -128 -45 -328 -16 -467 75 -361 339 -644 700 -749 448 -130 945 98
1148 526 73 154 89 232 88 430 -1 154 -3 178 -27 258 -97 318 -327 560 -632
664 -150 51 -332 65 -482 38z m367 -125 c531 -127 817 -718 585 -1209 -112
-235 -318 -406 -575 -477 -91 -25 -328 -26 -420 0 -160 44 -291 120 -402 233
-309 312 -341 789 -75 1138 111 146 301 270 482 314 113 27 291 28 405 1z"/>
<path d="M920 1681 c0 -5 9 -11 20 -14 20 -5 48 -52 37 -63 -11 -12 -48 8 -59
32 -6 13 -15 21 -19 18 -10 -6 -12 -137 -3 -147 3 -3 17 7 31 24 27 31 53 38
53 14 0 -17 -35 -55 -50 -55 -5 0 -10 -4 -10 -10 0 -5 13 -10 29 -10 l29 0
-29 -29 c-16 -16 -29 -38 -29 -49 0 -24 37 -72 56 -72 8 0 14 -4 14 -10 0 -5
-5 -10 -11 -10 -21 0 -4 -45 19 -48 25 -4 41 23 23 41 -15 15 -14 27 3 27 19
0 56 48 56 72 0 11 -13 33 -29 49 l-29 29 29 0 c16 0 29 5 29 10 0 6 -4 10
-10 10 -15 0 -50 38 -50 55 0 24 26 17 53 -14 14 -17 28 -27 31 -24 3 4 6 37
6 74 0 68 -13 98 -25 59 -7 -20 -52 -46 -63 -35 -10 10 19 57 38 62 45 12 15
23 -60 23 -44 0 -80 -4 -80 -9z"/>
<path d="M590 1375 c-7 -8 -10 -24 -7 -34 3 -12 -1 -22 -10 -25 -9 -4 -17 1
-20 13 -6 22 -26 33 -47 25 -21 -8 -28 -32 -16 -55 14 -26 2 -46 -14 -24 -7
10 -22 15 -37 13 -33 -4 -38 -41 -8 -62 20 -14 21 -16 5 -22 -9 -4 -20 -4 -23
-1 -3 4 -14 2 -24 -4 -28 -14 -23 -46 8 -63 l28 -14 -27 -12 c-43 -20 -48 -70
-8 -70 26 0 33 -15 15 -30 -29 -24 -11 -70 26 -70 9 0 19 -7 23 -15 4 -13 56
-23 56 -11 0 2 -11 28 -25 58 -42 90 -30 181 33 247 68 72 145 74 315 9 l77
-29 0 -130 0 -129 25 0 25 0 0 135 c0 128 -1 137 -23 159 -14 14 -23 34 -23
52 1 24 -3 30 -27 32 -18 2 -29 -2 -33 -12 -10 -25 -25 -19 -19 7 8 29 -16 51
-45 42 -11 -3 -20 -15 -20 -26 0 -10 -6 -19 -13 -19 -7 0 -12 13 -12 33 0 27
-4 32 -27 35 -22 3 -29 -2 -34 -22 -7 -29 -34 -35 -34 -8 0 37 -38 54 -60 27z"/>
<path d="M1362 1378 c-7 -7 -12 -20 -12 -30 0 -25 -23 -22 -35 5 -7 14 -19 22
-35 22 -21 0 -26 -5 -28 -32 -3 -35 -22 -46 -22 -14 0 25 -36 37 -56 20 -9 -7
-14 -23 -11 -36 5 -26 -8 -31 -17 -7 -4 10 -15 14 -33 12 -24 -2 -28 -8 -27
-32 0 -18 -9 -38 -23 -52 -22 -22 -23 -31 -23 -159 l0 -135 25 0 25 0 0 129 0
129 52 22 c29 12 88 31 133 42 69 17 87 18 125 8 120 -32 174 -184 110 -310
-25 -50 -25 -50 6 -50 17 0 28 6 31 19 3 12 11 17 19 14 34 -13 59 43 29 67
-18 15 -11 30 15 30 40 0 35 50 -8 70 l-27 12 28 14 c31 17 36 49 8 63 -10 6
-21 8 -24 4 -3 -3 -14 -3 -23 1 -16 6 -15 8 5 22 31 22 25 58 -12 62 -18 2
-29 -2 -33 -13 -5 -12 -10 -13 -20 -4 -11 9 -11 13 1 26 19 18 19 28 -1 47 -8
9 -19 16 -24 16 -11 0 -40 -29 -40 -40 0 -5 -6 -7 -14 -4 -8 3 -12 13 -9 25
10 36 -29 63 -55 37z"/>
<path d="M685 996 c-19 -45 -19 -84 0 -129 21 -50 19 -61 -7 -43 -28 20 -33
20 -52 0 -20 -20 -20 -68 0 -88 23 -24 31 -19 26 15 -4 28 -2 30 19 27 32 -4
38 -49 11 -76 -26 -26 -115 -36 -153 -17 -25 13 -49 42 -49 59 0 18 42 2 70
-26 l32 -33 -7 66 c-4 37 -11 82 -15 100 -7 34 -10 32 -24 -15 -6 -18 -54 -51
-62 -43 -10 10 8 50 34 74 14 13 23 25 21 27 -2 2 -24 1 -49 -3 -40 -5 -45 -9
-48 -34 -2 -15 4 -71 12 -125 13 -83 19 -100 42 -118 l27 -22 -22 -30 c-11
-17 -21 -33 -21 -36 0 -3 239 -6 530 -6 292 0 530 3 530 6 0 3 -10 19 -21 36
l-22 30 27 22 c23 18 29 34 42 121 21 141 19 149 -36 156 -25 4 -47 5 -49 3
-2 -2 7 -14 21 -27 26 -24 44 -64 34 -74 -7 -8 -56 25 -61 40 -14 50 -18 52
-25 18 -4 -18 -11 -63 -15 -99 l-7 -66 32 32 c27 28 70 44 70 26 0 -17 -24
-46 -49 -59 -38 -19 -127 -9 -153 17 -26 26 -21 73 7 73 15 0 20 -7 20 -27 -1
-32 7 -35 29 -12 20 20 20 68 0 88 -19 20 -24 20 -52 0 -26 -18 -28 -7 -7 43
19 45 19 84 1 128 -19 43 -31 44 -57 3 -16 -26 -19 -44 -16 -88 3 -30 9 -64
13 -74 7 -19 7 -19 -24 -1 -30 18 -32 18 -52 0 -25 -22 -26 -67 -2 -91 16 -17
17 -16 20 15 2 23 8 31 19 29 25 -5 40 -35 27 -55 -20 -32 -56 -44 -118 -40
-49 3 -63 8 -83 31 -24 28 -31 56 -13 56 5 0 25 -13 43 -30 19 -16 37 -30 41
-30 8 0 8 155 -1 163 -3 4 -14 -6 -24 -22 -17 -28 -54 -49 -66 -37 -11 11 17
56 42 68 45 20 27 28 -65 28 -92 0 -110 -8 -65 -28 27 -12 53 -57 41 -69 -11
-11 -59 19 -72 45 -6 12 -14 19 -17 15 -9 -8 -9 -163 -1 -163 4 0 22 14 41 30
18 17 38 30 43 30 18 0 11 -28 -13 -56 -20 -23 -34 -28 -83 -31 -62 -4 -98 8
-118 40 -13 20 2 50 27 55 11 2 17 -6 19 -29 3 -31 4 -32 21 -15 23 24 22 69
-3 91 -20 18 -22 18 -52 0 -31 -18 -31 -18 -24 1 18 45 17 119 -1 153 -25 47
-41 49 -58 7z"/>
</g>
</svg>
