<svg version="1.1" id="layer" xmlns="http://www.w3.org/2000/svg" xmlns:xlink="http://www.w3.org/1999/xlink" x="0px" y="0px" viewBox="20.700000762939453 236.40000915527344 121.5582275390625 169.34693908691406" style="enable-background:new 0 0 652 652;" xml:space="preserve">
<style type="text/css">
	.st0{fill:#323E48;}
</style>
<g id="Page-1">
	<g id="Group">		
		<path id="Fill-7" class="st0" d="M103.7,246.5c1.3,0,2.4,1.1,2.4,2.4c0,1.3-1.1,2.4-2.4,2.4c-1.3,0-2.4-1.1-2.4-2.4
			C101.3,247.6,102.4,246.5,103.7,246.5"></path>
		<path id="Fill-8" class="st0" d="M108.6,247.9c1.3,0,2.4,1.1,2.4,2.4c0,1.3-1.1,2.4-2.4,2.4c-1.3,0-2.4-1.1-2.4-2.4
			C106.2,249,107.3,247.9,108.6,247.9"></path>
		<path id="Fill-9" class="st0" d="M112.2,251.7c1.3,0,2.4,1.1,2.4,2.4c0,1.3-1.1,2.4-2.4,2.4c-1.3,0-2.4-1.1-2.4-2.4
			C109.8,252.8,110.9,251.7,112.2,251.7"></path>
		<path id="Fill-10" class="st0" d="M113.4,257c1.3,0,2.4,1.1,2.4,2.4c0,1.3-1.1,2.4-2.4,2.4c-1.3,0-2.4-1.1-2.4-2.4
			C111,258.1,112,257,113.4,257"></path>
		<path id="Fill-11" class="st0" d="M112.6,262.2c1.3,0,2.4,1.1,2.4,2.4c0,1.3-1.1,2.4-2.4,2.4c-1.3,0-2.4-1.1-2.4-2.4
			C110.2,263.3,111.2,262.2,112.6,262.2"></path>
		<path id="Fill-12" class="st0" d="M98.4,246.8c1.3,0,2.4,1.1,2.4,2.4c0,1.3-1.1,2.4-2.4,2.4c-1.3,0-2.4-1.1-2.4-2.4
			C96,247.9,97,246.8,98.4,246.8"></path>
		<path id="Fill-13" class="st0" d="M93.3,248.2c1.3,0,2.4,1.1,2.4,2.4c0,1.3-1.1,2.4-2.4,2.4c-1.3,0-2.4-1.1-2.4-2.4
			C90.9,249.3,92,248.2,93.3,248.2"></path>
		<path id="Fill-14" class="st0" d="M88.5,250.1c1.3,0,2.4,1.1,2.4,2.4c0,1.3-1.1,2.4-2.4,2.4c-1.3,0-2.4-1.1-2.4-2.4
			C86.1,251.1,87.2,250.1,88.5,250.1"></path>
		<path id="Fill-15" class="st0" d="M110.6,267.1c1.3,0,2.4,1.1,2.4,2.4c0,1.3-1.1,2.4-2.4,2.4s-2.4-1.1-2.4-2.4
			C108.2,268.2,109.3,267.1,110.6,267.1"></path>
		<path id="Fill-16" class="st0" d="M85.2,256.7c5.3-1.8,11.9-5.1,17-5.1c7.2,0,11.6,5.8,5,18.6l1.7,0.8l-1.8,4
			c0.1,0.4,0.1,0.9,0,1.3c-0.2,0.5-0.6,0.9-1,1.1l-2.3,6.1c0.6,1.1-0.7,1.6-0.6,1.5l-1.4,4.2c0.8,1.6-0.8,1.9-0.8,1.9
			c-6.7-2.1-13-3.2-19.3-3.2c-6.3,0-12.6,1.1-19.3,3.2c0,0.1-1.6-0.3-0.8-1.9l-1.4-4.2c0.1,0-1.2-0.4-0.6-1.5l-2.3-6.1
			c-0.5-0.2-0.9-0.6-1-1.1c-0.2-0.4-0.1-0.9,0-1.3l-1.8-3.9c-0.4,0.5-1.1,0.8-1.8,0.8c-1.3,0-2.4-1.1-2.4-2.4c0-1.3,1.1-2.4,2.4-2.4
			c1.3,0,2.4,1.1,2.4,2.4c0,0.6-0.2,1.1-0.5,1.5l1.6-0.8c-6.7-12.8-2.2-18.6,5-18.6c5.1,0,11.6,3.3,17,5.1c-0.1-1.3-0.3-2.5-0.4-3.3
			c0.5-0.5,1.4-0.9,2.6-1.1c-1.7-0.6-2.9-2.2-2.9-4.1c0-1.3,0.6-2.5,1.5-3.3c0.7-1.1,1.6-2.1,2-3.3c-1.3,0.3-2.5,0.9-3.4,1.6V238
			c1.1,0.8,2.2,1.5,3.4,1.8c-0.3-1.3-1-2.6-1.7-3.4l2.6,0l2.6,0c-0.7,0.9-1.3,2.2-1.7,3.4c1.2-0.3,2.3-1,3.4-1.8v5.2
			c-0.9-0.7-2.1-1.3-3.4-1.6c0.4,1.2,1.3,2.2,2,3.3c0.9,0.8,1.5,2,1.5,3.3c0,1.9-1.2,3.5-2.9,4.1c1.2,0.2,2.2,0.6,2.6,1.1
			C85.5,254.2,85.3,255.4,85.2,256.7z M57.5,269.4c-6.3-12.2-2.3-16.6,4-16.2c4.7,0.3,11.3,3.3,16.4,5c0.2,2.5,0.3,5.3,0.1,7.4h0
			l0,1.2c1,0.8,1.7,1.7,2.3,2.8l-0.6,0.6c-1.1-0.9-2.1-1.9-2.6-3.1l-1.2,0.8v6.8l1.3,0.6c0.8-1.3,1.1-2.1,2.5-2.9
			c0.2,0.4,0.6,0.7,1,0.9c-2,5.5-6.1,5.5-9,3.2l-0.2-0.1l0.2,0c0.2-0.4,0.4-0.8,0-1.4l-0.5-0.2c0.2-1.3,0.3-3.8,1.4-4
			c1.3-0.3,0.2,3,0.6,2.8c1.1-1.1,2.6-3.9,1.7-5.4c-0.7-1.1-3.1-0.5-3.8,0.5c-0.4,0.7-0.7,1.4-0.8,2.2c0.4-2.9,1.2-3.7-2.5-6.7
			c-2,3.5-1.5,4.4-0.6,6.1c-0.2-0.3-0.5-0.6-0.8-0.8c-1-0.8-3.5-0.5-3.8,0.7c-0.5,1.7,1.9,3.9,3.3,4.6c0.5,0.1-1.6-2.7-0.3-2.8
			c1.1-0.1,2,2.4,2.6,3.5l-0.4,0.3c-0.2,0.6,0.2,1,0.5,1.3l0,0c-3.3,4-6.8,3.3-9.7,0.3c0.4-0.2,0.6-0.4,0.8-0.8
			c1.2,0.1,2.1,0.4,3,1.1l1.1-1l-2.3-6.4l-1.4-0.3c-0.1,1.3-0.7,2.6-1.4,3.8c-0.3-0.1-0.6-0.2-0.9-0.1c0.1-1.4,0.5-2.7,1.1-3.8
			l-0.3-1L57.5,269.4z M74.5,250.1c-1.3,0-2.4,1.1-2.4,2.4c0,1.3,1.1,2.4,2.4,2.4c1.3,0,2.4-1.1,2.4-2.4
			C76.9,251.1,75.8,250.1,74.5,250.1z M69.6,248.2c-1.3,0-2.4,1.1-2.4,2.4c0,1.3,1.1,2.4,2.4,2.4c1.3,0,2.4-1.1,2.4-2.4
			C72,249.3,71,248.2,69.6,248.2z M64.6,246.8c-1.3,0-2.4,1.1-2.4,2.4c0,1.3,1.1,2.4,2.4,2.4s2.4-1.1,2.4-2.4
			C67,247.9,65.9,246.8,64.6,246.8z M50.4,262.2c-1.3,0-2.4,1.1-2.4,2.4c0,1.3,1.1,2.4,2.4,2.4c1.3,0,2.4-1.1,2.4-2.4
			C52.8,263.3,51.7,262.2,50.4,262.2z M49.6,257c-1.3,0-2.4,1.1-2.4,2.4c0,1.3,1.1,2.4,2.4,2.4c1.3,0,2.4-1.1,2.4-2.4
			C52,258.1,50.9,257,49.6,257z M50.8,251.7c-1.3,0-2.4,1.1-2.4,2.4c0,1.3,1.1,2.4,2.4,2.4c1.3,0,2.4-1.1,2.4-2.4
			C53.2,252.8,52.1,251.7,50.8,251.7z M54.3,247.9c-1.3,0-2.4,1.1-2.4,2.4c0,1.3,1.1,2.4,2.4,2.4s2.4-1.1,2.4-2.4
			C56.7,249,55.6,247.9,54.3,247.9z M59.2,246.5c-1.3,0-2.4,1.1-2.4,2.4c0,1.3,1.1,2.4,2.4,2.4c1.3,0,2.4-1.1,2.4-2.4
			C61.6,247.6,60.6,246.5,59.2,246.5z M105.5,269.4c6.3-12.2,2.3-16.6-4-16.2c-4.7,0.3-11.3,3.3-16.4,5c-0.2,2.5-0.3,5.3-0.1,7.4h0
			l0,1.2c-1,0.8-1.7,1.7-2.3,2.8l0.6,0.6c1.1-0.9,2.1-1.9,2.6-3.1l1.2,0.8v6.8l-1.3,0.6c-0.8-1.3-1.1-2.1-2.5-2.9
			c-0.2,0.4-0.6,0.7-1,0.9c2,5.5,6.1,5.5,9,3.2l0.2-0.1l-0.2,0c-0.2-0.4-0.4-0.8,0-1.4l0.5-0.2c-0.2-1.3-0.3-3.8-1.4-4
			c-1.3-0.3-0.2,3-0.6,2.8c-1.1-1.1-2.6-3.9-1.7-5.4c0.7-1.1,3.1-0.5,3.8,0.5c0.4,0.7,0.7,1.4,0.8,2.2c-0.4-2.9-1.2-3.7,2.5-6.7
			c2,3.5,1.5,4.4,0.6,6.1c0.2-0.3,0.5-0.6,0.8-0.8c1-0.8,3.5-0.5,3.8,0.7c0.5,1.7-1.9,3.9-3.3,4.6c-0.5,0.1,1.6-2.7,0.3-2.8
			c-1.1-0.1-2,2.4-2.6,3.5l0.4,0.3c0.2,0.6-0.2,1-0.5,1.3l0,0c3.3,4,6.8,3.3,9.7,0.3c-0.4-0.2-0.6-0.4-0.8-0.8
			c-1.2,0.1-2.1,0.4-3,1.1l-1.1-1l2.3-6.4l1.4-0.3c0.1,1.3,0.7,2.6,1.4,3.8c0.3-0.1,0.6-0.2,0.9-0.1c-0.1-1.4-0.5-2.7-1.1-3.8l0.3-1
			L105.5,269.4z"></path>
		<polyline id="Fill-17" class="st0" points="40.5,378.4 40.9,378.8 40.5,379.2 40.1,378.8 40.5,378.4 		"></polyline>
		<polyline id="Fill-18" class="st0" points="40.5,378.4 40.9,378.8 40.5,379.2 40.1,378.8 40.5,378.4 		"></polyline>
		<path id="Fill-19" class="st0" d="M117.4,377c-10.6,4.3-12,9.6-11,16.2C114.8,387.6,116.1,384.6,117.4,377"></path>
		<path id="Fill-20" class="st0" d="M108.8,399.7c-9.2,7.9-14.9,6.6-20.6,2.4C97.7,396.9,101.1,397.2,108.8,399.7"></path>
		<path id="Fill-21" class="st0" d="M126.3,386.9c-7.6,9.6-13.5,9.4-19.9,6.3C114.7,386.3,118.2,385.9,126.3,386.9"></path>
		<path id="Fill-22" class="st0" d="M101.8,388.9c-11,2-13.3,6.8-13.6,13.3C97.3,398.5,99.1,395.9,101.8,388.9"></path>
		<path id="Fill-23" class="st0" d="M127.2,341.1c-2.4,11.9,1.4,16.2,7.8,19.2C134.9,349.5,133.1,346.6,127.2,341.1"></path>
		<path id="Fill-24" class="st0" d="M121.5,327.2c1.6,9.7,6.6,11.7,13.6,12C131.5,331.1,128.8,329.5,121.5,327.2"></path>
		<path id="Fill-25" class="st0" d="M113.2,315.1c5.2,10.3,9.8,10.9,15.2,8.8C122.3,316,119.6,315.2,113.2,315.1"></path>
		<path id="Fill-26" class="st0" d="M98.4,306.3c8.3,7,12.6,5.9,16.5,2.3C106.8,303.9,104.2,304.1,98.4,306.3"></path>
		<path id="Fill-27" class="st0" d="M86,300.6c9.6,5.1,13.5,3.3,16.6-0.9C93.7,296.8,91.2,297.5,86,300.6"></path>
		<path id="Fill-28" class="st0" d="M140.4,340.1c4.2,11.5,0.8,16.3-5.4,20.1C133.5,349.6,135.1,346.4,140.4,340.1"></path>
		<path id="Fill-29" class="st0" d="M133.9,319.1c7.1,9.4,5.6,14.8,1.2,20.1C130.6,329.7,131,326.4,133.9,319.1"></path>
		<path id="Fill-30" class="st0" d="M119.5,305.9c10.2,5.9,10.8,11.4,8.9,18C120.6,316.9,119.7,313.7,119.5,305.9"></path>
		<path id="Fill-31" class="st0" d="M87.7,290.6c10.2-0.4,13.3,3.4,14.9,9.1C93.7,298.2,91.5,296.2,87.7,290.6"></path>
		<path id="Fill-32" class="st0" d="M104.2,294.8c10,3.5,11.5,8.1,10.8,13.8C106.9,303.9,105.6,301.3,104.2,294.8"></path>
		<path id="Fill-33" class="st0" d="M127.4,361.7c-8.3,7.7-7.7,13.1-4.4,18.9C128.8,372.3,128.9,369.1,127.4,361.7"></path>
		<path id="Fill-34" class="st0" d="M140.2,364.7c-3.2,13.4-9.2,16-17.3,16C128.2,369.6,131.5,367.5,140.2,364.7"></path>
		<path id="Fill-35" class="st0" d="M105.9,391c-1.1,0-1.9,0.9-1.9,1.9c0,1.1,0.9,1.9,1.9,1.9s1.9-0.9,1.9-1.9
			C107.8,391.9,106.9,391,105.9,391z M105.4,392.7l-0.4-0.4l0.4-0.4l0.4,0.4L105.4,392.7z"></path>
		<path id="Fill-36" class="st0" d="M88.2,400.2c-1.1,0-1.9,0.9-1.9,1.9c0,1.1,0.9,1.9,1.9,1.9c1.1,0,1.9-0.9,1.9-1.9
			C90.1,401.1,89.3,400.2,88.2,400.2z M87.8,401.8l-0.4-0.4l0.4-0.4l0.4,0.4L87.8,401.8z"></path>
		<path id="Fill-37" class="st0" d="M121.7,378.7c-0.9,0.5-1.3,1.7-0.7,2.6c0.5,0.9,1.7,1.3,2.6,0.7c0.9-0.5,1.3-1.7,0.7-2.6
			C123.8,378.5,122.6,378.2,121.7,378.7z M122.1,380.3l-0.6-0.2l0.2-0.6l0.6,0.2L122.1,380.3z"></path>
		<path id="Fill-38" class="st0" d="M133.3,359c-0.9,0.5-1.3,1.7-0.8,2.6c0.5,0.9,1.7,1.3,2.6,0.8c0.9-0.5,1.3-1.7,0.8-2.6
			C135.4,358.8,134.3,358.5,133.3,359z M133.7,360.6l-0.6-0.2l0.2-0.6l0.6,0.2L133.7,360.6z"></path>
		<path id="Fill-39" class="st0" d="M133.8,338.6c-0.8,0.7-1,1.9-0.3,2.7c0.7,0.8,1.9,1,2.7,0.3s1-1.9,0.3-2.7
			C135.9,338.1,134.7,337.9,133.8,338.6z M134.5,340.1l-0.6-0.1l0.1-0.6l0.6,0.1L134.5,340.1z"></path>
		<path id="Fill-40" class="st0" d="M126.6,324.2c-0.3,1,0.2,2.1,1.2,2.5c1,0.3,2.1-0.2,2.5-1.2c0.3-1-0.2-2.1-1.2-2.5
			C128.1,322.6,127,323.2,126.6,324.2z M128,325.1l-0.6,0.3l-0.3-0.6l0.6-0.3L128,325.1z"></path>
		<path id="Fill-41" class="st0" d="M113.7,309.8c0.4,1,1.5,1.5,2.5,1.1c1-0.4,1.5-1.5,1.1-2.5c-0.4-1-1.5-1.5-2.5-1.1
			C113.8,307.7,113.3,308.8,113.7,309.8z M115.4,309.6l-0.2,0.6l-0.6-0.2l0.2-0.6L115.4,309.6z"></path>
		<path id="Fill-42" class="st0" d="M101.5,301.7c0.8,0.7,2,0.7,2.7,0c0.7-0.8,0.7-2,0-2.7c-0.8-0.7-2-0.7-2.7,0
			C100.7,299.7,100.8,300.9,101.5,301.7z M102.9,300.8l0,0.6l-0.6,0l0-0.6L102.9,300.8z"></path>
		<path id="Fill-43" class="st0" d="M96.6,297.8c-6.5-6-13.1-2.4-13.1-2.4l0,0C83.6,295.4,88.5,301.1,96.6,297.8L96.6,297.8"></path>
		<path id="Fill-44" class="st0" d="M45.6,377.4c10.6,4.3,12,9.6,11,16.2C48.2,387.9,46.9,384.9,45.6,377.4"></path>
		<path id="Fill-45" class="st0" d="M54.2,400c9.2,7.9,14.9,6.6,20.6,2.4C65.3,397.2,61.9,397.5,54.2,400"></path>
		<path id="Fill-46" class="st0" d="M36.7,387.2c7.6,9.6,13.5,9.4,19.9,6.3C48.2,386.6,44.8,386.2,36.7,387.2"></path>
		<path id="Fill-47" class="st0" d="M61.1,389.3c11,2,13.3,6.8,13.6,13.3C65.6,398.8,63.8,396.2,61.1,389.3"></path>
		<path id="Fill-48" class="st0" d="M35.8,341.4c2.4,11.9-1.4,16.2-7.9,19.2C28,349.8,29.9,346.9,35.8,341.4"></path>
		<path id="Fill-49" class="st0" d="M41.5,327.5c-1.6,9.7-6.6,11.7-13.6,12C31.4,331.4,34.1,329.8,41.5,327.5"></path>
		<path id="Fill-50" class="st0" d="M49.8,315.4c-5.2,10.3-9.8,10.9-15.2,8.8C40.6,316.4,43.3,315.5,49.8,315.4"></path>
		<path id="Fill-51" class="st0" d="M64.6,306.6c-8.3,7-12.6,5.9-16.5,2.3C56.1,304.3,58.8,304.4,64.6,306.6"></path>
		<path id="Fill-52" class="st0" d="M76.9,300.9c-9.6,5.1-13.5,3.3-16.6-0.9C69.2,297.2,71.8,297.8,76.9,300.9"></path>
		<path id="Fill-53" class="st0" d="M22.6,340.4c-1.3,3.6-1.9,6.5-1.9,9c0,5.4,3,8.5,7.3,11.2C29.5,349.9,27.9,346.7,22.6,340.4"></path>
		<path id="Fill-54" class="st0" d="M29.1,319.4c-7.1,9.4-5.6,14.8-1.2,20.1C32.4,330,31.9,326.7,29.1,319.4"></path>
		<path id="Fill-55" class="st0" d="M43.5,306.2c-10.2,5.9-10.8,11.4-8.9,18C42.4,317.2,43.3,314,43.5,306.2"></path>
		<path id="Fill-56" class="st0" d="M75.3,290.9C65,290.5,62,294.3,60.3,300C69.3,298.5,71.5,296.5,75.3,290.9"></path>
		<path id="Fill-57" class="st0" d="M58.8,295.1c-10,3.5-11.5,8.1-10.8,13.8C56.1,304.2,57.4,301.6,58.8,295.1"></path>
		<path id="Fill-58" class="st0" d="M35.6,362c8.3,7.7,7.7,13.1,4.4,18.9C34.2,372.7,34.1,369.4,35.6,362"></path>
		<path id="Fill-59" class="st0" d="M22.8,365c3.2,13.4,9.2,16,17.3,16C34.8,369.9,31.5,367.8,22.8,365"></path>
		<path id="Fill-60" class="st0" d="M55.2,393.3c0,1.1,0.9,1.9,1.9,1.9c1.1,0,1.9-0.9,1.9-1.9c0-1.1-0.9-1.9-1.9-1.9
			C56,391.4,55.2,392.2,55.2,393.3z M57.1,392.5l0.4-0.4l0.4,0.4l-0.4,0.4L57.1,392.5z"></path>
		<path id="Fill-61" class="st0" d="M72.8,402.5c0,1.1,0.9,1.9,1.9,1.9c1.1,0,1.9-0.9,1.9-1.9c0-1.1-0.9-1.9-1.9-1.9
			C73.7,400.5,72.8,401.4,72.8,402.5z M74.8,401.7l0.4-0.4l0.4,0.4l-0.4,0.4L74.8,401.7z"></path>
		<path id="Fill-62" class="st0" d="M38.6,379.8c-0.5,0.9-0.2,2.1,0.7,2.6c0.9,0.5,2.1,0.2,2.6-0.7c0.5-0.9,0.2-2.1-0.7-2.6
			C40.3,378.5,39.2,378.8,38.6,379.8z M40.7,380l0.6-0.2l0.2,0.6l-0.6,0.2L40.7,380z"></path>
		<path id="Fill-63" class="st0" d="M27,360.1c-0.5,0.9-0.1,2.1,0.8,2.6c0.9,0.5,2.1,0.1,2.6-0.8c0.5-0.9,0.1-2.1-0.8-2.6
			C28.7,358.8,27.5,359.1,27,360.1z M29.1,360.3l0.6-0.2l0.2,0.6l-0.6,0.2L29.1,360.3z"></path>
		<path id="Fill-64" class="st0" d="M26.4,339.2c-0.7,0.8-0.5,2.1,0.3,2.7c0.8,0.7,2.1,0.5,2.7-0.3c0.7-0.8,0.5-2.1-0.3-2.7
			C28.3,338.3,27.1,338.4,26.4,339.2z M28.4,339.8l0.6-0.1l0.1,0.6l-0.6,0.1L28.4,339.8z"></path>
		<path id="Fill-65" class="st0" d="M33.9,323.3c-1,0.3-1.5,1.4-1.2,2.5c0.3,1,1.4,1.5,2.4,1.2c1-0.3,1.5-1.4,1.2-2.5
			C36,323.5,34.9,323,33.9,323.3z M35.2,324.9l0.6,0.3l-0.3,0.6l-0.6-0.3L35.2,324.9z"></path>
		<path id="Fill-66" class="st0" d="M48.2,307.6c-1-0.4-2.1,0.1-2.5,1.1c-0.4,1,0.1,2.1,1.1,2.5c1,0.4,2.1-0.1,2.5-1.1
			C49.6,309.1,49.2,308,48.2,307.6z M48.2,309.7l0.2,0.6l-0.6,0.2l-0.2-0.6L48.2,309.7z"></path>
		<path id="Fill-67" class="st0" d="M61.5,299.2c-0.7-0.8-2-0.8-2.7,0c-0.8,0.7-0.8,2,0,2.7c0.7,0.8,2,0.8,2.7,0
			C62.2,301.2,62.2,300,61.5,299.2z M60.6,301.1l0,0.6l-0.6,0l0-0.6L60.6,301.1z"></path>
		<path id="Fill-68" class="st0" d="M66.3,298.1c6.5-6,13.1-2.4,13.1-2.4l0,0C79.4,295.7,74.5,301.4,66.3,298.1L66.3,298.1"></path>
		<polyline id="Fill-69" class="st0" points="82.1,399.6 85.4,399.6 80.5,405.7 77.3,405.7 82.1,399.6 		"></polyline>
		<polyline id="Fill-70" class="st0" points="80.8,399.6 77.5,399.6 82.4,405.7 85.6,405.7 80.8,399.6 		"></polyline>
		<polyline id="Fill-71" class="st0" points="115.4,366.3 111.1,369.7 123.5,371.6 121.3,375.9 106.8,371.5 110.5,368.9 97.9,368.8 
			99.6,367.2 115.4,366.3 		"></polyline>
		<polyline id="Fill-72" class="st0" points="45.7,366.3 49.9,369.7 37.5,371.6 39.7,375.9 54.2,371.5 50.5,368.9 64.5,368.5 
			62.1,366.8 45.7,366.3 		"></polyline>
		<polyline id="Fill-73" class="st0" points="74,301.4 80.8,304.2 78.5,290.5 84.6,290.5 83.6,310.1 79.1,306.4 84.6,319.9 
			82.9,320.9 74,301.4 		"></polyline>
		<polyline id="Fill-74" class="st0" points="97.3,347.7 97.3,347.7 97.3,347.7 97.3,347.7 		"></polyline>
		<path id="Fill-75" class="st0" d="M90.6,374c2.3-1.8,4.5-3.7,6.3-5.9c-1.3-0.5-2.7-1-4.2-1.4c-1.2,2.1-2.5,4.3-4.1,6.4
			C89.3,373.4,89.9,373.7,90.6,374"></path>
		<path id="Fill-76" class="st0" d="M87.4,365.8c-0.6,2.2-1.2,4.5-2,6.6c0.7,0.1,1.5,0.3,2.2,0.5c1.5-2.1,2.9-4.2,4.1-6.3
			C90.3,366.2,88.9,366,87.4,365.8"></path>
		<path id="Fill-77" class="st0" d="M82.2,356.8l0,7.6c1.5,0,3,0.2,4.4,0.3c0.6-2.5,1-5.1,1.4-7.7C86.1,356.9,84.2,356.8,82.2,356.8
			"></path>
		<path id="Fill-78" class="st0" d="M91.4,374.5l0.2,0.1c3.1-1.2,5.9-2.9,8.4-5.1c-0.7-0.4-1.4-0.7-2.2-1.1
			C95.9,370.7,93.8,372.7,91.4,374.5"></path>
		<path id="Fill-79" class="st0" d="M82.2,365.3l0,6.7c0.7,0,1.5,0.1,2.2,0.2c0.8-2.1,1.4-4.3,2-6.6
			C85.1,365.5,83.7,365.4,82.2,365.3"></path>
		<path id="Fill-80" class="st0" d="M88.1,356c0.3-2.7,0.4-5.4,0.4-8.1l-6.3-0.1l0,7.9C84.2,355.8,86.2,355.9,88.1,356"></path>
		<path id="Fill-81" class="st0" d="M97.5,367.4c2.1-2.6,3.8-5.4,5-8.4c-1.9-0.4-4-0.8-6.1-1.1c-0.8,2.7-1.9,5.4-3.3,8.1
			C94.6,366.3,96.1,366.8,97.5,367.4"></path>
		<path id="Fill-82" class="st0" d="M103.8,337.2c1.2-0.3,2.4-0.6,3.5-0.9c-1.5-3.3-3.6-6.3-6.3-8.8c-0.7,0.4-1.4,0.7-2.1,1.1
			C101,331.2,102.6,334.1,103.8,337.2"></path>
		<path id="Fill-83" class="st0" d="M89.8,320.8c-2.8-0.9-5.7-1.3-8.6-1.3c-2.7,0-5.3,0.4-7.9,1.1c2.2,1,5.2,1.7,8.3,1.7
			C84.6,322.3,87.6,321.7,89.8,320.8"></path>
		<path id="Fill-84" class="st0" d="M105.6,347.1l4.1,0c-0.1-3.5-0.8-6.8-2.1-10c-1.1,0.4-2.3,0.7-3.5,1
			C105,341,105.6,344,105.6,347.1"></path>
		<path id="Fill-85" class="st0" d="M102.8,358.1c1.2-3.3,1.8-6.6,1.9-10l-6.8-0.1c-0.1,3-0.5,6-1.3,8.9
			C98.8,357.2,100.8,357.6,102.8,358.1"></path>
		<path id="Fill-86" class="st0" d="M88.6,347c0-2.2-0.2-4.4-0.4-6.6c-1.9,0.1-3.9,0.2-5.9,0.2l0,6.4L88.6,347"></path>
		<path id="Fill-87" class="st0" d="M89.5,347L97,347c0-2.5-0.3-5-0.8-7.5c-2.3,0.3-4.6,0.5-7.1,0.7C89.3,342.5,89.5,344.8,89.5,347
			"></path>
		<path id="Fill-88" class="st0" d="M92.1,365.7c1.4-2.6,2.5-5.3,3.3-8c-2.1-0.3-4.2-0.5-6.4-0.7c-0.3,2.6-0.8,5.3-1.4,7.8
			C89.2,365.1,90.7,365.3,92.1,365.7"></path>
		<path id="Fill-89" class="st0" d="M96,338.6c-0.7-2.7-1.7-5.4-3-8.1c-1.7,0.4-3.4,0.8-5.2,1c0.5,2.6,0.9,5.2,1.2,7.8
			C91.4,339.2,93.7,338.9,96,338.6"></path>
		<path id="Fill-90" class="st0" d="M98.3,327.7c0.7-0.3,1.3-0.6,2-1c-2.5-2.2-5.3-4-8.3-5.2C94.3,323.4,96.5,325.5,98.3,327.7"></path>
		<path id="Fill-91" class="st0" d="M89.1,356.1c2.2,0.2,4.4,0.4,6.5,0.7c0.8-2.9,1.2-5.9,1.3-8.8l-7.4-0.1
			C89.5,350.7,89.4,353.4,89.1,356.1"></path>
		<path id="Fill-92" class="st0" d="M97.9,347l6.8,0.1c-0.1-3-0.6-5.9-1.5-8.8c-1.9,0.4-3.9,0.8-6,1.1
			C97.7,341.9,97.9,344.5,97.9,347"></path>
		<path id="Fill-93" class="st0" d="M97.4,328.1c-2-2.4-4.3-4.6-7-6.5c-0.5,0.2-1,0.4-1.6,0.6c1.8,2.4,3.4,4.8,4.7,7.3
			C94.8,329.1,96.2,328.6,97.4,328.1"></path>
		<path id="Fill-94" class="st0" d="M96.9,338.5c2.1-0.3,4-0.7,5.9-1.1c-1.1-3-2.7-5.9-4.8-8.5c-1.3,0.5-2.6,1-4.1,1.4
			C95.2,333,96.2,335.7,96.9,338.5"></path>
		<path id="Fill-95" class="st0" d="M86.6,330.8c-0.6-2.6-1.3-5.2-2.1-7.7c-0.8,0.1-1.6,0.1-2.4,0.1l0,7.9
			C83.7,331,85.2,330.9,86.6,330.8"></path>
		<path id="Fill-96" class="st0" d="M88.1,339.4c-0.3-2.6-0.7-5.1-1.2-7.7c-1.5,0.2-3.1,0.3-4.6,0.3l0,7.6
			C84.2,339.6,86.1,339.5,88.1,339.4"></path>
		<path id="Fill-97" class="st0" d="M92.5,329.7c-1.3-2.4-2.9-4.9-4.8-7.2c-0.7,0.2-1.5,0.3-2.2,0.5c0.8,2.5,1.5,5.1,2.1,7.7
			C89.3,330.4,91,330.1,92.5,329.7"></path>
		<path id="Fill-98" class="st0" d="M60,358.8c-1.6,0.4-3.2,0.8-4.7,1.2c1.5,3.2,3.5,6.1,6.1,8.6c1.1-0.6,2.3-1.1,3.5-1.6
			C62.8,364.4,61.2,361.7,60,358.8"></path>
		<path id="Fill-99" class="st0" d="M65.5,328.5c1.4,0.5,2.9,1,4.5,1.3c1.3-2.6,3-5.2,4.9-7.6c-0.7-0.2-1.4-0.5-2-0.8
			C70,323.6,67.5,325.9,65.5,328.5"></path>
		<path id="Fill-100" class="st0" d="M72,366.1c1.2,2.1,2.6,4.3,4.2,6.4c0.6-0.1,1.3-0.2,1.9-0.3c-0.8-2.1-1.4-4.4-2-6.6
			C74.6,365.7,73.3,365.8,72,366.1"></path>
		<path id="Fill-101" class="st0" d="M65.5,367.8c-1.2,0.4-2.3,0.9-3.4,1.5c2.6,2.3,5.5,4.1,8.6,5.3c0.4-0.2,0.7-0.5,1.1-0.7
			C69.5,372.1,67.3,370,65.5,367.8"></path>
		<path id="Fill-102" class="st0" d="M66.4,367.5c1.9,2.2,4,4.2,6.4,6c0.7-0.3,1.5-0.5,2.3-0.8c-1.6-2.1-3-4.3-4.1-6.5
			C69.4,366.6,67.9,367,66.4,367.5"></path>
		<path id="Fill-103" class="st0" d="M65.7,347.7l-7.1-0.1c0,3.4,0.7,6.8,1.9,10c2.1-0.4,4.2-0.8,6.5-1.1
			C66.2,353.7,65.8,350.7,65.7,347.7"></path>
		<path id="Fill-104" class="st0" d="M54.8,337.1c-1.3,3-2,6.2-2.1,9.5l5,0c0.1-2.9,0.5-5.7,1.4-8.5
			C57.6,337.9,56.2,337.5,54.8,337.1"></path>
		<path id="Fill-105" class="st0" d="M64.5,328.2c2-2.6,4.5-5,7.4-7.2c-3.7,1.3-7.1,3.3-10,5.9C62.7,327.4,63.6,327.8,64.5,328.2"></path>
		<path id="Fill-106" class="st0" d="M81.3,372.9c-3.1,0-6,0.5-8.3,1.5l-0.1,0.2l-0.1-0.1c-0.3,0.1-0.6,0.3-0.9,0.5
			c3,1,6.1,1.6,9.3,1.6c3.2,0,6.3-0.5,9.3-1.5c-0.7-0.4-1.6-0.8-2.5-1.1l-0.1,0.1l-0.2-0.2C85.7,373.3,83.5,373,81.3,372.9"></path>
		<path id="Fill-107" class="st0" d="M100.7,368.9c2.7-2.5,4.8-5.5,6.4-8.8c-1.2-0.4-2.4-0.7-3.7-1c-1.2,3-2.9,5.9-5,8.6
			C99.2,368.1,100,368.5,100.7,368.9"></path>
		<path id="Fill-108" class="st0" d="M107.5,359.3c1.5-3.5,2.3-7.3,2.3-11.2l-4.1,0c0,3.5-0.7,6.9-1.9,10.2
			C105,358.6,106.3,358.9,107.5,359.3"></path>
		<path id="Fill-109" class="st0" d="M57.7,347.7l-5.1,0l0,0.4c0,3.8,0.7,7.6,2.2,11.1c1.5-0.5,3.1-0.9,4.8-1.2
			C58.4,354.6,57.7,351.1,57.7,347.7"></path>
		<path id="Fill-110" class="st0" d="M80.5,339.6l0.8,0l0-7.6h-0.8c-1.4,0-2.7-0.1-4.1-0.2c-0.5,2.5-0.9,5.1-1.2,7.6
			C77,339.5,78.7,339.6,80.5,339.6"></path>
		<path id="Fill-111" class="st0" d="M81.1,365.3c-1.4,0-2.8,0-4.1,0.1c0.6,2.3,1.2,4.5,2,6.6c0.8-0.1,1.5-0.1,2.3-0.1l0-6.7
			L81.1,365.3"></path>
		<path id="Fill-112" class="st0" d="M67.4,339.7c-0.5,2.3-0.8,4.7-0.8,7.1l7.2,0.1c0-2.2,0.1-4.3,0.3-6.5
			C71.9,340.2,69.6,340,67.4,339.7"></path>
		<path id="Fill-113" class="st0" d="M60.1,338.4c-0.9,2.7-1.3,5.5-1.4,8.3l7.1,0.1c0-2.4,0.3-4.8,0.8-7.2
			C64.3,339.2,62.1,338.9,60.1,338.4"></path>
		<path id="Fill-114" class="st0" d="M70.5,330.9c-1.3,2.6-2.2,5.2-2.9,7.8c2.2,0.3,4.4,0.5,6.7,0.6c0.3-2.5,0.7-5.1,1.2-7.6
			C73.8,331.6,72.1,331.3,70.5,330.9"></path>
		<path id="Fill-115" class="st0" d="M75.7,330.8c0.6-2.7,1.3-5.3,2.1-7.9c-0.6-0.1-1.3-0.2-1.9-0.4c-2,2.5-3.6,5-5,7.6
			C72.5,330.4,74.1,330.6,75.7,330.8"></path>
		<path id="Fill-116" class="st0" d="M80.5,331.1h0.8l0-7.9c-0.8,0-1.7-0.1-2.5-0.2c-0.8,2.6-1.5,5.2-2.1,7.9
			C77.9,331,79.2,331.1,80.5,331.1"></path>
		<path id="Fill-117" class="st0" d="M61.2,327.7c-2.5,2.5-4.5,5.4-6,8.6c1.4,0.4,2.8,0.8,4.3,1.1c1-2.9,2.6-5.7,4.5-8.4
			C63,328.6,62.1,328.1,61.2,327.7"></path>
		<path id="Fill-118" class="st0" d="M64.9,329.3c-1.9,2.6-3.4,5.3-4.5,8.2c2,0.4,4.1,0.8,6.3,1.1c0.6-2.7,1.6-5.3,2.9-7.9
			C67.9,330.3,66.3,329.9,64.9,329.3"></path>
		<path id="Fill-119" class="st0" d="M74.8,347.8c0,2.7,0.2,5.5,0.4,8.1c2-0.1,4-0.1,6-0.1l0-7.9L74.8,347.8"></path>
		<path id="Fill-120" class="st0" d="M80.5,340.5c-1.8,0-3.5-0.1-5.3-0.2c-0.2,2.2-0.3,4.3-0.3,6.5l6.4,0.1l0-6.4L80.5,340.5"></path>
		<path id="Fill-121" class="st0" d="M73.9,347.8l-7.2-0.1c0.1,2.9,0.5,5.9,1.3,8.8c2.1-0.2,4.2-0.4,6.3-0.5
			C74,353.3,73.9,350.5,73.9,347.8"></path>
		<path id="Fill-122" class="st0" d="M75.4,356.9c0.3,2.6,0.8,5.1,1.4,7.6c1.4-0.1,2.9-0.2,4.3-0.1h0.2l0-7.6
			C79.3,356.7,77.3,356.8,75.4,356.9"></path>
		<path id="Fill-123" class="st0" d="M68.3,357.4c0.8,2.6,1.9,5.2,3.2,7.7c1.4-0.3,2.9-0.5,4.3-0.6c-0.6-2.5-1-5.1-1.4-7.7
			C72.3,357,70.3,357.2,68.3,357.4"></path>
		<path id="Fill-124" class="st0" d="M67.3,357.6c-2.2,0.3-4.3,0.6-6.4,1c1.2,2.8,2.8,5.6,4.8,8.1c1.5-0.5,3.1-0.9,4.7-1.3
			C69.2,362.8,68.1,360.2,67.3,357.6"></path>
	</g>
</g>
</svg>