<svg xmlns="http://www.w3.org/2000/svg" viewBox="0 0 1725 1725"><g fill="#231f20" fill-rule="nonzero"><path d="M1394.65 1306.51c0 48.737-39.502 88.221-88.221 88.221H418.37c-48.728 0-88.221-39.484-88.221-88.221V418.392c0-48.72 39.493-88.221 88.221-88.221h888.059c48.719 0 88.221 39.501 88.221 88.221v888.118zm24.596-1280.65h-1113.8c-154.423 0-279.602 125.18-279.602 279.594v1113.8c0 154.415 125.179 279.594 279.602 279.594h1113.8c154.423 0 279.603-125.179 279.603-279.594v-1113.8c0-154.414-125.18-279.594-279.603-279.594"/><path d="M684.836 1090.48c-28.01 0-50.621-22.771-50.621-50.866V685.082c0-28.087 22.611-50.875 50.621-50.875h355.031c28.018 0 50.621 22.788 50.621 50.875v354.532c0 28.095-22.603 50.866-50.621 50.866H684.836z"/></g></svg>