<svg xmlns="http://www.w3.org/2000/svg" viewBox="0 0 70.4 28.57"><path d="M7.379 2.272C6.494.333 4.306-.546 2.264.362.219 1.271-.534 3.537.39 5.479l8.576 18.642c1.35 2.921 2.77 4.452 5.438 4.452 2.85 0 4.092-1.667 5.44-4.452 0 0 7.48-16.288 7.555-16.458a1.083 1.083 0 011.077-.694 1.191 1.191 0 011.185 1.208v15.927c0 2.455 1.363 4.47 3.982 4.47 2.617 0 4.032-2.015 4.032-4.47V11.071c0-2.514 1.801-4.145 4.256-4.145s4.09 1.69 4.09 4.145v13.033c0 2.455 1.365 4.47 3.98 4.47 2.618 0 4.04-2.015 4.04-4.47V11.071c0-2.514 1.794-4.145 4.25-4.145 2.452 0 4.092 1.69 4.092 4.145v13.033c0 2.455 1.365 4.47 3.982 4.47 2.616 0 4.038-2.015 4.038-4.47V9.271c0-5.452-4.385-9.27-9.66-9.27-5.269 0-8.569 3.645-8.569 3.645C50.42 1.37 48.003.006 43.911.006c-4.317 0-8.096 3.64-8.096 3.64C34.06 1.37 31.073.006 28.6.006c-3.825 0-6.865 1.682-8.719 5.921l-5.475 12.909z" fill="#0091DA"/></svg>