<svg clip-rule="evenodd" fill-rule="evenodd" stroke-linejoin="round" stroke-miterlimit="2" version="1.1" viewBox="5.0212e-6 149.85 499.9 200.3" xml:space="preserve" xmlns="http://www.w3.org/2000/svg">
    <g transform="matrix(1.6674 0 0 1.6674 -.16674 149.68)">
        <path d="m38.866 26.308c-21.145 0-38.766 8.971-38.766 36.037 0 21.442 11.849 34.944 39.312 34.944 32.327 0 34.399-21.294 34.399-21.294h-15.664s-3.358 11.466-19.69 11.466c-13.302 0-22.869-8.986-22.869-21.581h59.861v-7.903c0-12.461-7.91-31.669-36.583-31.669zm-0.546 10.101c12.663 0 21.295 7.758 21.295 19.384h-43.681c0-12.343 11.267-19.384 22.386-19.384z" fill="#e53238" fill-rule="nonzero"/>
    </g>
    <g transform="matrix(1.6674 0 0 1.6674 -.16674 149.68)">
        <path d="m75.438 0.1v83.597c0 4.745-0.339 11.408-0.339 11.408h14.94s0.536-4.785 0.536-9.159c0 0 7.381 11.548 27.451 11.548 21.135 0 35.491-14.673 35.491-35.695 0-19.557-13.187-35.286-35.457-35.286-20.854 0-27.334 11.262-27.334 11.262v-37.675h-15.288zm38.766 36.753c14.352 0 23.478 10.652 23.478 24.946 0 15.328-10.54 25.355-23.375 25.355-15.318 0-23.581-11.96-23.581-25.219 0-12.354 7.414-25.082 23.478-25.082z" fill="#0064d2" fill-rule="nonzero"/>
    </g>
    <g transform="matrix(1.6674 0 0 1.6674 -.16674 149.68)">
        <path d="m190.64 26.308c-31.812 0-33.852 17.419-33.852 20.203h15.834s0.83-10.17 16.926-10.17c10.459 0 18.564 4.788 18.564 13.992v3.276h-18.564c-24.645 0-37.674 7.209-37.674 21.84 0 14.398 12.038 22.233 28.307 22.233 22.171 0 29.313-12.251 29.313-12.251 0 4.872 0.376 9.674 0.376 9.674h14.076s-0.546-5.952-0.546-9.76v-32.914c0-21.581-17.407-26.123-32.76-26.123zm17.472 37.129v4.368c0 5.697-3.515 19.861-24.212 19.861-11.333 0-16.192-5.656-16.192-12.217 0-11.935 16.364-12.012 40.404-12.012z" fill="#f5af02" fill-rule="nonzero"/>
    </g>
    <g transform="matrix(1.6674 0 0 1.6674 -.16674 149.68)">
        <path d="m214.88 29.041h17.813l25.565 51.218 25.507-51.218h16.136l-46.459 91.183h-16.926l13.406-25.418-35.042-65.765z" fill="#86b817" fill-rule="nonzero"/>
    </g>
</svg>
