<svg
   viewBox="0 0 155.26669 141.07097"
   version="1.1"
   id="svg162">
    <path
       class="st1"
       d="m 126.03309,79.151819 c 0,0 -0.0794,-0.37042 -0.23812,-1.00542 -1.56104,-7.14375 -3.09562,-23.1775 7.22312,-30.08312 10.23938,-6.82625 20.32,1.13771 21.82813,5.3975 2.2225,6.13833 -2.80459,8.94292 -11.61521,11.29771 -13.83771,3.65125 -16.95979,12.59416 -17.19792,14.39333 z"
       id="path33"
       style="fill:#236db6;stroke-width:0.264583" />
    <path
       class="st1"
       d="M 129.04934,90.237859 C 108.41185,80.183699 110.6608,63.567859 108.09435,55.207029 93.40997,3.8514043 64.147054,0.17369628 60.786845,0.06786328 52.664137,-0.17026172 38.403096,3.5339043 37.318304,19.885159 c -1.534583,23.28333 31.194375,21.74874 43.259374,31.19437 8.255,6.45583 13.996459,20.76979 -1.190625,17.64771 -18.388541,-6.87917 -39.899165,-4.89479 -48.789165,-1.16417 -15.08125,6.32354 -20.372917,14.52563 -21.8810417,16.21896 -1.508125,1.69333 -20.1347913,27.701871 2.5929167,49.080211 17.885833,16.80104 42.148124,4.92125 51.752499,-8.46667 5.767917,-8.01687 9.816041,-15.95437 14.340416,-22.93937 17.78,-21.801671 39.158332,-7.514171 44.741042,2.59291 8.62541,15.47813 14.65791,23.28334 22.38375,18.07104 7.72583,-5.18583 6.6675,-21.08729 -15.47813,-31.882291 z"
       id="path35"
       style="fill:#236db6;stroke-width:0.264583" />
</svg>