<svg xmlns="http://www.w3.org/2000/svg" viewBox="0 0 1000 700"><path d="M490.6 592.6c-199.1-15.3-263.8-124.5-281.9-200 0 0 38.9 10.5 89.8 17.5.1 0 13.8 1.9 14-1.7.5-7-114.7-40.9-170.5-136.5-43.6-74.6-46.2-146.2-46.2-146.2 116.9 22.5 188.7 50.8 556.3 41.6 113.9 0 164.6 23.5 164.6 163 .1 97.5-42.5 260.5-326.1 262.3M1000 325.2c0-18.3-19.3-30-43.3-37.5l.5-.5s-1.4-.1-3.7-.5c-3.8-1.1-7.8-2.2-11.8-3.1-5.4-2-11.2-5-15.5-9.7-5-5.4-8-12.3-9.8-18.1-15.2-101.1-72.6-193.7-264.2-193.7H319.3c-11.3-.3-41.9-2.1-114.3-10C134.7 44.4 71.8 22.3 71.2 22L9.5 0 1.8 65.5c-.9 8-20.9 192.7 97.5 286.5l-.1 1.1c-4.6 49.6 14.4 157.8 117.4 245.4 223.1 189.8 526.3 70.6 603.9-12.8 48.5-52.2 83.4-114 95.4-188 1.8-6.2 4.9-13.8 10.3-19.6 2.4-2.5 5.1-4.6 8.1-6.2 7.8-2 15.6-4.3 22.9-7 23.7-8.9 42.8-21.6 42.8-39.7m-291.8-94.6c-25.8 0-43.2 16-43.2 45.5 0 27.5 17.4 43 43.2 43 25.3 0 43.7-16.5 43.7-43.5.1-29.5-15.3-45-43.7-45" fill="#141e28"/></svg>
