<svg viewBox="0.19793701171875 0.10693359375 178.2794189453125 48.99988555908203" version="1.1" xmlns="http://www.w3.org/2000/svg" xmlns:xlink="http://www.w3.org/1999/xlink">
    <!-- Generator: Sketch 3.8.3 (29802) - http://www.bohemiancoding.com/sketch -->
    <title>Soverin Logo</title>
    <desc>Created with Sketch.</desc>
    <defs></defs>
    <g id="Features" stroke="none" stroke-width="1" fill="none" fill-rule="evenodd">
        <g id="Desktop" transform="translate(-629.000000, -5365.000000)" fill="#FF5757">
            <g id="Viewport-#7" transform="translate(0.000000, 4833.000000)">
                <g id="Footer" transform="translate(0.000000, 472.000000)">
                    <g id="Soverin-Logo" transform="translate(629.000000, 60.000000)">
                        <g id="Wordmark" transform="translate(51.662174, 14.038634)">
                            <path d="M9.4634434,10.9546271 C5.29677673,9.23770216 4.45698562,8.10478437 4.45698562,5.94816936 C4.45698562,3.57255166 5.95518868,2.2933513 8.65931042,2.2933513 C8.92800988,2.2933513 9.16975517,2.30008985 9.38903863,2.31440925 C10.1521788,2.44468778 11.1531334,2.81221923 12.1417341,3.74578841 C12.1978886,3.80783917 12.2551662,3.8712938 12.3149708,3.9381177 C13.3058176,5.04323899 13.8123315,5.91166891 14.7251235,7.84815813 L15.7123203,7.84815813 L14.9772574,1.98281671 C13.7345575,1.50746855 12.1672844,0.83192947 9.09759659,0.83192947 C3.90807502,0.83192947 0.473101977,3.9381177 0.473101977,8.17722372 C0.473101977,11.868823 2.26330863,14.0243149 7.16082659,16.0343666 C11.5097147,17.8256963 12.824854,19.1405548 12.824854,21.4793913 C12.824854,22.2447776 12.6810984,22.9492363 12.3916217,23.5503706 C11.7713949,24.7189465 10.6339847,25.3832547 8.61382525,25.3832547 C6.4257637,25.3832547 4.65521114,24.1009659 4.05295373,23.6059636 C3.88392857,23.4040881 3.71939578,23.1864892 3.55626685,22.9475517 C2.60641285,21.5582884 2.1330301,20.2647686 1.25561545,18.4012803 L0.195979335,18.4012803 L0.413016622,25.2131065 C1.87556155,25.8706761 4.67542677,27.1077606 7.89139712,27.1077606 C13.8842093,27.1077606 17.1369609,23.3796608 17.1369609,18.81177 C17.1372417,15.3767969 14.9817498,13.2569632 9.4634434,10.9546271 L9.4634434,10.9546271 Z" id="Shape"></path>
                            <path d="M28.1937893,7.512354 C23.4307615,7.512354 18.7755503,10.6873315 18.7755503,17.3638252 C18.7755503,23.8595013 23.0337489,27.1077606 28.1937893,27.1077606 C33.0300988,27.1077606 37.6490903,23.8232817 37.6490903,17.1476303 C37.6490903,10.652235 33.3546721,7.512354 28.1937893,7.512354 L28.1937893,7.512354 Z M28.3383872,25.8083446 C25.343385,25.8083446 23.93531,23.7873428 23.93531,16.7868374 C23.93531,10.7959906 25.4158243,8.81092767 28.0862534,8.81092767 C30.9728774,8.81092767 32.4884883,10.6519542 32.4884883,17.5808625 C32.4882075,24.0040993 30.9363769,25.8083446 28.3383872,25.8083446 L28.3383872,25.8083446 Z" id="Shape"></path>
                            <path d="M56.1250562,8.88336703 L56.1250562,8.05312219 L49.7742588,8.05312219 L49.7742588,8.88336703 L50.7482592,9.1355009 C51.469845,9.31631851 51.7955413,9.71333109 51.7955413,10.398978 C51.7955413,10.8322102 51.6506626,11.4813567 51.3260894,12.3840409 L48.0778302,21.4426101 L47.8978549,21.4426101 L44.5771563,12.3840409 C44.288522,11.553796 44.1088275,10.9408693 44.1088275,10.4714173 C44.1088275,9.71361186 44.3609614,9.35281896 45.1549865,9.13578167 L46.128987,8.8836478 L46.128987,8.05340296 L36.385894,8.05340296 L36.385894,8.8836478 L37.1436995,9.10068509 C38.1176999,9.42525831 38.4422731,9.92980683 39.2000786,11.7711141 L45.1187668,26.6388702 L47.6445979,26.6388702 L53.2387129,12.1681267 C54.0327381,10.0384659 54.3573113,9.38903863 55.2950921,9.10068509 L56.1250562,8.88336703 L56.1250562,8.88336703 Z" id="Shape"></path>
                            <path d="M63.74635,7.512354 C59.0186995,7.512354 54.6164645,11.1567835 54.6164645,17.2189465 C54.6164645,23.2462938 57.6476864,27.0715409 63.74635,27.0715409 C67.3194632,27.0715409 70.0651393,24.9376685 71.2199573,23.7828504 L71.1242138,22.4545148 C69.7534816,23.1036613 68.3305256,24.2073787 65.5868149,24.3648922 C61.9123428,24.5760332 59.5605907,22.4884883 59.4881514,16.5335804 L71.541442,16.5335804 C71.4690027,10.0019654 68.546159,7.512354 63.74635,7.512354 L63.74635,7.512354 Z M59.4878706,15.2712264 C59.6686882,10.6873315 61.3280548,8.774708 63.530155,8.774708 C63.6362871,8.774708 63.7345575,8.78256963 63.833951,8.78958895 C64.6625112,8.96563342 65.5890611,9.70013477 66.0357704,10.4972484 C66.3965633,11.4861298 66.525438,12.9278976 66.525438,14.9093104 L59.4878706,15.2712264 L59.4878706,15.2712264 Z" id="Shape"></path>
                            <path d="M95.4865791,23.5346473 L95.4865791,11.589735 C95.4865791,9.82170934 95.5949573,8.41363432 95.6314578,7.76448787 L95.3068845,7.5482929 L88.2695979,8.37741465 L88.2695979,8.99146451 L89.5319519,9.74926999 C90.470575,10.3262579 90.6513926,10.4346361 90.6513926,11.9502471 L90.6513926,23.5343666 C90.6513926,25.0137579 90.470575,25.2307951 89.4965746,25.5194295 L88.3417565,25.807783 L88.3417565,26.6380279 L97.7962152,26.6380279 L97.7962152,25.807783 L96.6413971,25.5194295 C95.6673967,25.2672956 95.4865791,25.0867588 95.4865791,23.5346473 L95.4865791,23.5346473 Z" id="Shape"></path>
                            <path d="M92.9245283,5.3464735 C94.4401393,5.3464735 95.6673967,4.19165544 95.6673967,2.71226415 C95.6673967,1.23287287 94.4401393,0.0780548068 92.9245283,0.0780548068 C91.3726977,0.0780548068 90.1454403,1.23287287 90.1454403,2.71226415 C90.145721,4.19193621 91.3726977,5.3464735 92.9245283,5.3464735 L92.9245283,5.3464735 Z" id="Shape"></path>
                            <path d="M117.429526,23.5346473 L117.429526,12.3475404 C117.429526,9.10012354 115.950135,7.5482929 112.665656,7.5482929 C110.176044,7.5482929 107.72181,8.70311096 105.881626,10.0016846 L105.700809,10.0016846 L105.773248,7.76448787 L105.448675,7.5482929 L98.6646451,8.37741465 L98.6646451,8.99146451 L99.9278414,9.74926999 C100.865622,10.3262579 101.04644,10.4346361 101.04644,11.9502471 L101.04644,23.5343666 C101.04644,25.0137579 100.865622,25.2307951 99.8916217,25.5194295 L98.7368037,25.807783 L98.7368037,26.6380279 L108.082884,26.6380279 L108.082884,25.807783 L106.964286,25.5194295 C106.026505,25.2670148 105.881907,25.1586366 105.881907,23.5343666 L105.881907,11.4091981 C106.023697,11.3418127 107.303459,10.7440476 108.555144,10.5289757 C108.983603,10.4716981 109.42217,10.4346361 109.851752,10.4346361 C111.764376,10.4346361 112.59462,11.1924416 112.59462,13.5020777 L112.59462,23.5343666 C112.59462,25.1586366 112.450022,25.2670148 111.511399,25.5194295 L110.392801,25.807783 L110.392801,26.6380279 L119.739724,26.6380279 L119.739724,25.807783 L118.584906,25.5194295 C117.64544,25.2672956 117.429526,25.0502583 117.429526,23.5346473 L117.429526,23.5346473 Z" id="Shape"></path>
                            <path d="M124.108827,21.5498652 C122.629436,21.5498652 121.438398,22.7046833 121.438398,24.2202942 C121.438398,25.6643082 122.629436,26.8545036 124.108827,26.8545036 C125.551999,26.8545036 126.815195,25.6643082 126.815195,24.2202942 C126.815195,22.7046833 125.551999,21.5498652 124.108827,21.5498652 L124.108827,21.5498652 Z" id="Shape"></path>
                            <path d="M84.5235288,7.53453504 C82.5746855,7.53453504 80.653358,8.95552561 79.49854,10.182783 L79.3177224,10.182783 L79.3901617,7.80070755 L79.0655885,7.54857367 L72.2815588,8.37769542 L72.2815588,8.99174528 L73.5450359,9.74955076 C74.4828167,10.3265386 74.6636343,10.4349169 74.6636343,11.9505279 L74.6636343,23.5346473 C74.6636343,25.0140386 74.4828167,25.2310759 73.5088163,25.5197102 L72.3539982,25.8080638 L72.3539982,26.6383086 L82.0246518,26.6383086 L82.0246518,25.8080638 L80.5811995,25.5197102 C79.6796384,25.3388926 79.4988208,25.1589173 79.4988208,23.5346473 L79.4988208,11.7458446 C79.7021002,11.5293688 79.9977538,11.24635 80.3209232,11.0001123 C80.6505503,10.8122754 81.1390948,10.5654762 81.7545485,10.3526505 C81.8519766,11.7421945 83.0373989,12.8029537 84.5240903,12.8029537 C86.0397013,12.8029537 87.2669587,11.6481357 87.2669587,10.1687444 C87.2661164,8.6893531 86.0391397,7.53453504 84.5235288,7.53453504 L84.5235288,7.53453504 Z" id="Shape"></path>
                        </g>
                        <g id="Logo">
                            <path d="M14.7610624,34.0681155 L14.2110288,33.8999326 C14.0669924,33.8558513 10.6449349,32.7891959 7.22624663,29.981469 C2.62831312,26.2050764 0.197944744,21.0750786 0.197944744,15.145721 L0.197944744,0.106974394 L29.334288,0.106974394 L29.334288,15.145721 C29.334288,21.1065252 26.9030773,26.2471923 22.3034591,30.0115117 C18.8816824,32.8116577 15.4556941,33.8595013 15.3116577,33.9027403 L14.7610624,34.0681155 L14.7610624,34.0681155 Z M3.99651842,3.9052673 L3.99651842,15.145721 C3.99651842,25.1923293 12.5151617,29.1874438 14.7767857,30.0707547 C17.0844564,29.1992363 25.5362758,25.3127808 25.5362758,15.145721 L25.5362758,3.9052673 L3.99651842,3.9052673 L3.99651842,3.9052673 Z" id="Shape"></path>
                            <path d="M27.4303684,49.1068621 L26.8806155,48.9386792 C26.7365791,48.8945979 23.3145216,47.8282233 19.8958333,45.0202156 C15.2978998,41.2435422 12.8675314,36.1138252 12.8675314,30.1844677 L12.8675314,15.145721 L42.0041554,15.145721 L42.0041554,30.1844677 C42.0041554,36.1452718 39.5729447,41.2856581 34.9733266,45.0502583 C31.5515499,47.8506851 28.1255615,48.8985288 27.9815252,48.941487 L27.4303684,49.1068621 L27.4303684,49.1068621 Z M16.6655436,18.9442947 L16.6655436,30.1847484 C16.6655436,40.2313567 25.1841869,44.2264712 27.4460916,45.1097821 C29.7537624,44.2382637 38.2055818,40.3518082 38.2055818,30.1847484 L38.2055818,18.9442947 L16.6655436,18.9442947 L16.6655436,18.9442947 Z" id="Shape"></path>
                            <ellipse id="Oval" cx="20.1162399" cy="10.4031896" rx="2.34445193" ry="2.34445193"></ellipse>
                            <ellipse id="Oval" cx="32.7768419" cy="26.1764376" rx="2.34445193" ry="2.34445193"></ellipse>
                            <path d="M14.7610624,34.0681155 L14.2110288,33.8999326 C14.0669924,33.8558513 10.6449349,32.7891959 7.22624663,29.981469 C2.62831312,26.2050764 0.197944744,21.0750786 0.197944744,15.145721 L0.197944744,0.106974394 L29.334288,0.106974394 L29.334288,15.145721 C29.334288,21.1065252 26.9030773,26.2471923 22.3034591,30.0115117 C18.8816824,32.8116577 15.4556941,33.8595013 15.3116577,33.9027403 L14.7610624,34.0681155 L14.7610624,34.0681155 Z M3.99651842,3.9052673 L3.99651842,15.145721 C3.99651842,25.1923293 12.5151617,29.1874438 14.7767857,30.0707547 C17.0844564,29.1992363 25.5362758,25.3127808 25.5362758,15.145721 L25.5362758,3.9052673 L3.99651842,3.9052673 L3.99651842,3.9052673 Z" id="Shape"></path>
                            <path d="M27.4303684,49.1068621 L26.8806155,48.9386792 C26.7365791,48.8945979 23.3145216,47.8282233 19.8958333,45.0202156 C15.2978998,41.2435422 12.8675314,36.1138252 12.8675314,30.1844677 L12.8675314,15.145721 L42.0041554,15.145721 L42.0041554,30.1844677 C42.0041554,36.1452718 39.5729447,41.2856581 34.9733266,45.0502583 C31.5515499,47.8506851 28.1255615,48.8985288 27.9815252,48.941487 L27.4303684,49.1068621 L27.4303684,49.1068621 Z M16.6655436,18.9442947 L16.6655436,30.1847484 C16.6655436,40.2313567 25.1841869,44.2264712 27.4460916,45.1097821 C29.7537624,44.2382637 38.2055818,40.3518082 38.2055818,30.1847484 L38.2055818,18.9442947 L16.6655436,18.9442947 L16.6655436,18.9442947 Z" id="Shape"></path>
                            <ellipse id="Oval" cx="20.1162399" cy="10.4031896" rx="2.34445193" ry="2.34445193"></ellipse>
                            <ellipse id="Oval" cx="32.7768419" cy="26.1764376" rx="2.34445193" ry="2.34445193"></ellipse>
                        </g>
                    </g>
                </g>
            </g>
        </g>
    </g>
</svg>