<svg fill="none" xmlns="http://www.w3.org/2000/svg" viewBox="0 0 536 163"><path d="M193.74 67.19c.077-.35.13-.703.16-1.06 0-.46-.08-.92-.13-1.46-2.21-.54-4.4-.2-6.56-.26-2.16-.06-4.36 0-6.67 0a11.679 11.679 0 01-.32-1.75V38.39a8.673 8.673 0 010-1.14 2.997 2.997 0 012.79-2.78c.38-.02.76-.02 1.14 0 11.8-.07 23.6-.19 35.4-.19 13.89 0 27.78.12 41.67.19 1.13 0 2.25.06 3.26.09a4.73 4.73 0 01.46 3v73.1c0 3.25-2 5.24-5.31 5.33h-6c-.57 0-1.13.07-1.68.1-.52 1.07.12 1.93.38 2.79 3.88 12.533 7.773 25.063 11.68 37.59.463.931.696 1.96.68 3-.1.12-.14.21-.21.25a.427.427 0 01-.26.11l-36 .07c-.47 0-.94-.06-1.52-.11-.26-.73-.56-1.42-.75-2.13-3.08-11.78-6.153-23.557-9.22-35.33-.19-.72-.44-1.42-.78-2.51a5.282 5.282 0 00-.4 2.68v2.85c0 .95-.08 1.71-.09 2.57-.01.86 0 1.71 0 2.57v2.57c0 .86-.15 1.89-.19 2.84-.04.95 0 1.72 0 2.57v2.57c0 .85-.06 1.71-.08 2.57-.02.86 0 1.9 0 2.85v2.57c0 .85 0 1.72-.05 2.57-.05.85 0 1.71 0 2.57 0 .86 0 1.9-.07 2.85-.07.95-.13 1.68-.21 2.68-2.856.25-5.725.317-8.59.2-2.85.05-5.71 0-8.56 0h-8.57c-2.86 0-5.67.09-8.33-.08a3.42 3.42 0 01-.36-.41.644.644 0 01-.06-.28c0-.66-.09-1.32-.09-2 0-29.5.02-59.007.06-88.52.051-.253.135-.499.25-.73a12.84 12.84 0 011.78-.23h8.56a5.37 5.37 0 002.79-.46zm21.94-7.94a13.2 13.2 0 00-.16 1.43v28.84c.055.559.162 1.111.32 1.65h14.39c.24 0 .48-.26.81-.45V60.48a6.37 6.37 0 00-.18-1.08 2.72 2.72 0 00-.85-.33h-13.13a6.707 6.707 0 00-1.2.18zM448.13 34.32c.05 1.12.12 2 .12 2.8v86.85a9.193 9.193 0 01-.73 3.87c-4.78 10.793-9.54 21.59-14.28 32.39-.3.69-.68 1.33-1.1 2.14-18.76-.42-37.473-.907-56.14-1.46-.36-.92-.7-1.7-1-2.49a7883.742 7883.742 0 01-9.93-27.67 11.32 11.32 0 01-.65-3.91V69.7a9.105 9.105 0 01.66-3.61c4.253-10 8.483-20 12.69-30 .26-.6.6-1.17.93-1.8l69.43.03zm-48.79 101.4c.283.144.582.255.89.33h12.56a3.491 3.491 0 001.09-.43V62.77v-2a13.283 13.283 0 00-.31-1.53 86.339 86.339 0 00-15.07.13c0 .58-.15 1.23-.14 1.87.18 12.36.39 24.73.54 37.09.12 9.9.15 19.79.24 29.69.01 2.55.13 5.11.2 7.7zM273.56 34.36c.58-.05 1.13-.14 1.68-.14h29.42c1.95 0 2.8.53 3.28 2.06.122.551.159 1.118.11 1.68 0 4.08-.12 8.17-.12 12.25 0 1.61.17 3.21.25 4.8.92.11 1-.6 1.19-1.05 2.88-5.68 5.753-11.37 8.62-17.07.42-.84.88-1.67 1.28-2.43 2.34-.31 33-.35 35.82-.07.39.92-.21 1.62-.55 2.36-4.28 9.333-8.563 18.667-12.85 28-1.43 3.11-2.8 6.25-4.31 9.32a6.53 6.53 0 00-.53 4.65c2.21 9.45 4.35 18.91 6.51 28.37l11.66 51.18c.17.74.28 1.49.45 2.42-.44.116-.888.199-1.34.25h-26.27a7.85 7.85 0 01-1-.17c-.29-.79-.63-1.65-.92-2.53-6.28-19.16-12.557-38.32-18.83-57.48-.27-.81-.55-1.62-.83-2.43-.09-.26-.19-.53-.28-.8l-.54.32v61.68c-.59.129-1.188.223-1.79.28h-28.6c-.47 0-.93-.06-1.56-.1-.1-.59-.24-1.12-.28-1.66-.04-.54 0-1.14 0-1.71V37.83a7.896 7.896 0 01.33-3.47zM517.36 160.72c-2.58.34-39.69.33-42.05 0a40.663 40.663 0 01-3.06-7.32 178.029 178.029 0 01-5.7-21.79 437.166 437.166 0 01-5.27-31c-1.09-8.11-2.24-16.21-3.19-24.34-.95-8.13-1.72-16.27-2.52-24.42-.44-4.45-.85-8.9-1.16-13.36a3.904 3.904 0 01.997-3.028 3.897 3.897 0 012.923-1.272h26.85a5 5 0 012.93.4c0 .76.14 1.6.13 2.43-.06 10-.13 20-.21 30 .005.093.005.187 0 .28a24.795 24.795 0 001.35 9.53c2.06 6.13 3.91 12.33 5.85 18.5.17.54.39 1.06.69 1.85.315-.325.584-.692.8-1.09 2.167-6.6 4.313-13.203 6.44-19.81a8.26 8.26 0 00.4-2.51c0-11.713-.037-23.423-.11-35.13 0-.76-.18-1.52-.18-2.27.025-.67.091-1.338.2-2a9.246 9.246 0 011.24-.18h25.13a13 13 0 013.89.72 2.532 2.532 0 011.81 2.91c-.45 2.76.13 5.49.09 8.24-.1 7.42.12 14.86-.24 22.27a306.763 306.763 0 01-4.2 37.13 383.536 383.536 0 01-12.61 52.1 10.231 10.231 0 01-1.22 3.16zM175 66.06l-1.76-.1-.55-2.66c-2.52 0-5 0-7.45-.05s-4.91.07-7.49-.07c-.13-1.32-.24-2.44-.37-3.74a13.205 13.205 0 00-1.83-.27h-6.33a9.295 9.295 0 00-1-2 6.666 6.666 0 00-1.61-1.17c-.627-.42-1.267-.83-1.92-1.23a3.143 3.143 0 01-1.64-1.87 3.782 3.782 0 00-2.85-2.56c-1.54-.48-3.12-.82-4.7-1.18a3.23 3.23 0 00-2.7.64 8.838 8.838 0 00-2.89 3.47 5.47 5.47 0 00-.37 1.93c.025.67.085 1.337.18 2a6.177 6.177 0 01-3.73 6.61c-.34-.15-.78-.29-1.18-.51a4.12 4.12 0 00-4.8.46 19.465 19.465 0 00-2.67 2.55c-.7.78-1.24 1.68-2 2.7l-2.37.65c-.13 2.91-.25 5.74-.38 8.69-1.79.79-2.49 2.39-3.25 4.08-1.84 4.13-1.4 8.37-1 12.64a1.792 1.792 0 001.07 1.56c.86.41 1.72.83 2.56 1.27.57.3 1.11.66 1.65 1v1.53c-.45 5.21-1 10.42-1.36 15.64-.18 2.46-.19 4.94-.23 7.42a7.807 7.807 0 00.85 4.38 3.773 3.773 0 01-.49 4.54c-1.89 2.05-2.64 4.54-3.32 7.14-1.45 5.62-3 11.2-4.55 16.8-.19.71-.27 1.44-.42 2.33a77.45 77.45 0 008.47.07c1.36-2.74 2.68-5.37 4-8 1-2.05 2-4.08 3-6.17a6.004 6.004 0 012.18-2.53 33.197 33.197 0 003.91-3.3 5.62 5.62 0 001.64-4.39 67.73 67.73 0 01.33-6.83c.169-1.204.399-2.399.69-3.58.457.209.889.467 1.29.77 2 1.93 3.9 3.92 5.89 5.83a3.407 3.407 0 011.14 2.78c-.12 2.28-.21 4.56-.23 6.85v17.13c.021.356.064.71.13 1.06 2.06.58 8.73.64 11.5.09 0-.88.12-1.8.13-2.73V140.3a13.42 13.42 0 01.56-4.21c.512-1.64.752-3.353.71-5.07a9.453 9.453 0 00-1.29-4.9 17.96 17.96 0 01-1.11-2.3c-2.467-5.78-4.917-11.56-7.35-17.34a13.102 13.102 0 01-.82-2.72c-.36-2 .37-3.57 2.3-4 2.18-.48 2.94-1.86 3.33-3.71.39-1.85.74-3.92 1.12-5.88a1.724 1.724 0 00-.89-1.93c-.8-.48-1.65-.88-2.45-1.3.73-2.09 1.51-2.47 3.08-1.45a18.43 18.43 0 006.89 2.68 7.68 7.68 0 002.71-2.45 47.506 47.506 0 007.47-12.75c.37-.87.71-1.75 1.12-2.79 3-.32 6.07.06 9-.22.8-1.9.8-1.9 2.43-1.74 0 .82.12 1.66.12 2.5.24 33.06.07 86.64-.3 88.95-.52.088-1.044.148-1.57.18-3.81.05-7.62.05-11.43.11l-25.68.45c-3.62.06-7.24.08-10.85.12l-17.13.21c-4.47.07-8.94.17-13.41.25h-3.25c-.13-.66-.29-1.19-.34-1.73-.05-.54 0-1.33 0-2V70.42a13.17 13.17 0 011.14-5.5c3.45-7.74 6.82-15.5 10.19-23.27.56-1.3 1-2.66 1.44-4a4.523 4.523 0 014.12-3.37c.66-.06 1.33 0 2 0h22.28c11.9 0 23.8-.033 35.7-.1.95 0 1.9-.14 2.85-.14a7.93 7.93 0 012.24.21 2.612 2.612 0 012 2.48v27.14c.05.58-.01 1.24-.1 2.19zM59.82 159.81H26.2a9.122 9.122 0 01-1.23-.19c-.34-3.77-.12-7.46-.16-11.15-.04-3.69 0-7.42 0-11.14v-77.5c-.85-.93-1.76-.64-2.57-.65H3.96c-.94 0-1.88 0-3-.09a11.879 11.879 0 01-.26-1.71V38.53c0-2.32.74-3.24 3-3.91a10.802 10.802 0 012-.36c.573-.03 1.147-.03 1.72 0H83.11A3 3 0 0186 36.61a12.42 12.42 0 01.46 3.09v15.71c.02.475-.01.951-.09 1.42a2.13 2.13 0 01-1.6 1.83c-1.197.288-2.42.452-3.65.49H63.41c-.93 0-1.87.06-3 .1-.09.63-.21 1.17-.24 1.7v95.13a12.678 12.678 0 01-.35 3.73zM482.17 29.08c-.486.09-.977.15-1.47.18h-14.26a2.643 2.643 0 01-.77-.28c-.33-2.12-.41-24.66-.09-28.07.399-.167.82-.278 1.25-.33h19c3.95 4.63 7.7 9.52 11.8 14.36a34.395 34.395 0 003.45-4.74c1.17-1.62 2.24-3.3 3.37-4.95 1.13-1.65 2.16-3.1 3.16-4.54 5.46-.36 20.55-.23 22.81.21.098.623.165 1.25.2 1.88.28 12.05.14 24.38-.28 26.77-2 .43-13.67.54-17.4.16-.9-1.55-.54-3.44-1.09-5.4-1.88 1.42-2.53 3.55-4.18 4.92h-20.23c-1.81-1.78-2.73-4.27-4.6-6.37-.84 2.02-.02 4.05-.67 6.2zM415.5 2c.281 5.56.261 11.132-.06 16.69-1.86.74-3.92-.06-6 .58a11.87 11.87 0 002.18 3.35c.72 1 1.51 2 2.24 3a13.735 13.735 0 012.28 3.43 9.398 9.398 0 01-1.45.25h-16.28a2.76 2.76 0 01-2.59-1.38c-1.2-1.83-2.49-3.6-3.76-5.38a14.784 14.784 0 00-1.06-1.17 5.523 5.523 0 00-.34 2.69v2.85c0 .95-.07 1.69-.11 2.59-2 .65-3.87.28-5.74.34s-3.81 0-5.71 0l-5.8-.07a7.837 7.837 0 01-.32-1.46V3.17c.032-.397.092-.791.18-1.18a5.86 5.86 0 013.06-.35h38.28c.346.08.682.2 1 .36zm-24.82 4.65a19.182 19.182 0 000 5.1c2.827.545 5.733.545 8.56 0 .321-1.655.287-3.36-.1-5-.92 0-1.76-.1-2.6-.1-1.83-.06-3.71-.03-5.86-.01v.01zM189.16 29.5c-2.09.45-14.11.5-16.84.06l-.5-2.23a45.112 45.112 0 00-7.8-.05l-.53 2.3c-1.72.51-3.53.21-5.3.26-1.77.05-3.81 0-5.72 0-1.838.08-3.68.026-5.51-.16-.108-.48-.181-.969-.22-1.46V10.51a3.246 3.246 0 011-2.55c1.78-1.72 3.54-3.46 5.25-5.26a3.46 3.46 0 012.8-1.07H186.35c.93 0 1.86.08 2.93.13.08.7.18 1.24.19 1.79.24 10.04.09 23.6-.31 25.95zm-17.24-10.3c.46-2.69.4-10.45-.16-12.58-1.26 0-2.58-.07-3.9 0-1.32.07-2.82-.27-4.14.3a73.656 73.656 0 00.07 12.31 22.44 22.44 0 008.13-.03zM419.26 29.7c-.07-.81-.13-1.28-.13-1.75V11.12a4.121 4.121 0 011.13-3.08c1.95-2.08 3.83-4.23 5.69-6.39A3.006 3.006 0 01428.4.49h31.67c.336.029.67.079 1 .15.158.402.265.822.32 1.25V21a3.21 3.21 0 01-.87 2.32c-1.43 1.53-2.87 3.05-4.19 4.67a3.506 3.506 0 01-3 1.27c-4.28 0-8.55.16-12.83.23-6.08.12-12.16.227-18.24.32-.91.04-1.84-.05-3-.11zm18.37-22.94c-.331 5.933-.311 11.88.06 17.81 2.663.265 5.349.215 8-.15.16-2.06.08-4 .09-6 .01-2 .05-3.79 0-5.69-.05-1.9.29-4-.32-6.09a61.75 61.75 0 00-7.83.12zM234.92.69c.144.287.245.594.3.91v16.27a4.16 4.16 0 01-.3 1c-2.69.23-5.44.08-8.18.11-2.74.03-5.33 0-8 0s-5.5-.06-8.41.07c-.15.658-.25 1.327-.3 2v8.34a4 4 0 01-1.12.4h-15.13a4.127 4.127 0 01-1-.25c-.39-2.2-.59-21.51-.3-27.46.049-.436.132-.867.25-1.29 2.71-.45 23.71-.6 40.32-.3.61.03 1.25.14 1.87.2zm-25.38 12.76c1.378.22 2.778.28 4.17.18 1.38 0 2.82.29 4.22-.37 0-2.22.33-4.37-.25-6.67h-4.07a13.36 13.36 0 00-4.08.27 49.8 49.8 0 00.01 6.59zM28.33 23.13c1.996.15 4 .19 6 .12h12.29l6.11.05c.53 2.18.22 4.21.2 6.38-1.1.06-1.94.15-2.78.15H19a12.91 12.91 0 01-5.29-1c-2.78-1.21-4.35-3.14-4.28-6.38.12-5.81 0-11.62 0-17.43a8.43 8.43 0 01.22-2.25A2.91 2.91 0 0112.53.45H50c.85 0 1.69.05 2.48.08.67 1.94.72 3.4.25 6.22a3.77 3.77 0 01-2.47.34h-21.8a12.29 12.29 0 00-.19 5.26c.644.13 1.295.22 1.95.27h6.57c.73 0 1.47.1 2.33.16a15.823 15.823 0 010 5c-3.65.33-7.16 0-10.8.24a13.4 13.4 0 00.01 5.11zM281 .54c.285 1.87.319 3.77.1 5.65-.86.74-1.75.48-2.57.48h-19.71c-.93 0-1.87.07-2.91.11-.49 1.6-.16 3.1-.27 4.73.661.135 1.328.232 2 .29h7.43c.73 0 1.47.09 2.33.15.263 1.57.297 3.17.1 4.75a8.877 8.877 0 01-1.62.31H255.7a13.897 13.897 0 00-.22 7.29c2.045.174 4.099.217 6.15.13h19.11A7.744 7.744 0 01281 29a13.42 13.42 0 01-1.93.28h-38.84c-.65 0-1.3-.14-2.06-.22a88.149 88.149 0 01-.18-9.45c-.047-3.14-.047-6.28 0-9.42a89.083 89.083 0 01.18-9.5c3.62-.36 7.12-.13 10.61-.17 3.49-.04 7.24 0 10.86 0h10.56c3.54-.01 7.05-.05 10.8.02zM74.25 13.44h21.56c.117.457.204.921.26 1.39v7.14a3.23 3.23 0 01-1.06 2.53 90.514 90.514 0 00-3.84 3.83 2.831 2.831 0 01-2.29.94H59.45c-.93 0-1.87-.08-2.91-.12a17.15 17.15 0 01-.17-4.87c.73-.79 1.64-.53 2.46-.53H77.4c.93 0 1.87-.06 2.83-.09.68-1.39.35-2.7.32-3.92-.77-.82-1.68-.54-2.5-.55H59.48c-.93 0-1.86-.07-3-.12a16.154 16.154 0 01-.21-1.75v-6.57a3.06 3.06 0 01.68-2.11c1.87-2.28 3.73-4.57 5.55-6.9A3.12 3.12 0 0165.2.51h27.71a5.18 5.18 0 011.42.1 2.06 2.06 0 011.64 1.77 14.39 14.39 0 01-.12 4.12c-.81.07-1.54.18-2.28.18H77.06c-.93 0-1.86.08-3 .13a23.57 23.57 0 00-.16 2.36 13.63 13.63 0 00.35 4.27zM102 28.87v-27c.043-.412.117-.82.22-1.22 3.56-.36 7.06-.13 10.55-.17 3.49-.04 7 0 10.57 0h10.56c3.56 0 7-.16 10.67.15a29.345 29.345 0 010 6c-.77.75-1.67.5-2.49.5h-19.42c-.93 0-1.86.07-2.74.11-.46 2.21-.56 11.9-.2 15.84.76.68 1.75.43 2.66.43h18c1 0 2 .08 3.23.13.06 1 .15 1.85.16 2.68.01.83-.07 1.68-.12 2.68-.87.08-1.6.2-2.34.21-17.37.36-36.72.19-39.31-.34zM369.55 6.54a51.399 51.399 0 01-6.3.14h-12.57c-2.1 0-4.14-.1-6.29.12a13.82 13.82 0 000 4.8c3.78.58 7.59-.11 11.28.38a9.59 9.59 0 010 5.52c-3.54.36-7.15-.07-10.92.26a11.85 11.85 0 00-.33 1.86v7.71c0 .73-.12 1.47-.18 2.24a7.576 7.576 0 01-1.24.24h-15.13a3.532 3.532 0 01-.94-.3c-.43-3-.15-6-.2-9-.05-3 0-6.28 0-9.42 0-3.14 0-6.05.05-9.2 3.77-.4 7.27-.15 10.76-.2 3.49-.05 7.23 0 10.85 0h10.56c3.56 0 7-.18 10.58.16a10.77 10.77 0 01.02 4.69z" fill="#161614"/><path d="M154.49 72.64c.32 2.254.34 4.54.06 6.8-.486.284-.995.528-1.52.73-1.45.42-2.44.13-3-.82a3.238 3.238 0 01.21-3.92 9.001 9.001 0 014.25-2.79zM144.7 63.12c0-1.47.06-2.63.08-3.77 1.69-.29 1.81-.32 2.13.87.21.79.8.92 1.29 1.3a.876.876 0 01.298.95.88.88 0 01-.778.62c-1.01.08-2.03.03-3.02.03zM145.3 72.48c-1.14-1.16-1.77-2.06-1.58-3.45h2.87c.2 1.32-.49 2.22-1.29 3.45z" fill="#161614"/></svg>