<svg xmlns:svg="http://www.w3.org/2000/svg" xmlns="http://www.w3.org/2000/svg" id="svg8107" version="1.1" viewBox="0 0 81.63299560546875 81.62100219726562">
  <defs id="defs8104"></defs>
  <path id="path7539" d="M 40.811,0 C 18.274,0 0,18.254 0,40.799 c 0,22.545 18.274,40.822 40.811,40.822 22.56,0 40.822,-18.28 40.822,-40.822 C 81.633,18.257 63.371,0 40.811,0"></path>
  <path id="path7541" d="m 69.723,22.225 c -1.245,0 -2.26,1.012 -2.26,2.26 0,1.248 1.015,2.26 2.26,2.26 1.245,0 2.26,-1.014 2.26,-2.26 a 2.26,2.26 0 0 0 -2.26,-2.26 z m 0,0.25 a 2.01,2.01 0 0 1 2.008,2.008 2.01,2.01 0 0 1 -2.008,2.008 2.01,2.01 0 0 1 -2.008,-2.008 2.01,2.01 0 0 1 2.008,-2.008 z m -0.287,0.582 c -0.25,0 -0.34,0.107 -0.34,0.289 v 2.191 c 0,0.103 0.065,0.125 0.139,0.125 0.083,0 0.139,-0.022 0.139,-0.125 v -0.854 c 0,-0.08 0.041,-0.119 0.209,-0.119 0.181,0 0.241,0.03 0.322,0.16 l 0.465,0.75 0.041,0.074 c 0.042,0.072 0.077,0.113 0.164,0.113 0.107,0 0.148,-0.065 0.148,-0.117 0,-0.027 -0.012,-0.053 -0.031,-0.088 l -0.549,-0.828 c -0.027,-0.041 -0.045,-0.076 -0.045,-0.117 0,-0.046 0.018,-0.064 0.092,-0.105 0.204,-0.109 0.385,-0.298 0.385,-0.67 0,-0.477 -0.317,-0.68 -0.822,-0.68 z m 0.258,0.223 h 0.047 c 0.332,0 0.543,0.104 0.543,0.494 0,0.464 -0.264,0.602 -0.67,0.602 -0.209,0 -0.24,-0.014 -0.24,-0.176 v -0.738 c 0,-0.18 0.05,-0.182 0.32,-0.182 z m -44.26,4.088 c -0.747,0 -1.494,0.165 -1.494,1.166 v 21.629 c 0,0.972 0.813,1.17 1.561,1.17 0.778,0 1.521,-0.198 1.521,-1.17 V 37.484 c 0,-0.617 0.064,-1.005 0.684,-1.23 0.517,-0.195 1.397,-0.328 2.594,-0.328 2.724,0 3.793,0.714 3.793,3.535 v 10.701 c 0,0.972 0.844,1.17 1.588,1.17 0.782,0 1.529,-0.198 1.529,-1.17 V 38.783 c 0,-3.631 -1.558,-5.191 -5.584,-5.191 l -3.633,0.133 c -0.713,0 -0.971,-0.389 -0.971,-1.299 V 28.6 c 0,-1.069 -0.807,-1.232 -1.588,-1.232 z m 30.963,0 c -3.179,0 -4.025,1.654 -4.025,4.539 v 1.135 c 0,0.649 -0.064,0.809 -0.875,0.809 h -1.361 c -0.716,0 -0.908,0.521 -0.908,1.166 0,0.716 0.193,1.238 0.908,1.238 h 1.395 c 0.779,0 0.842,0.227 0.842,0.875 v 13.033 c 0,0.974 0.846,1.168 1.59,1.168 0.781,0 1.525,-0.194 1.525,-1.168 v -13.07 c 0,-0.711 0.195,-0.838 0.875,-0.838 h 4.744 1.525 c 0.778,0 0.846,0.227 0.846,0.875 v 9.793 c 0,2.848 0.581,4.539 3.73,4.539 0.811,0 1.783,-0.195 2.107,-0.355 0.389,-0.167 0.516,-0.518 0.516,-1.004 0,-0.486 -0.128,-0.91 -0.773,-0.91 h -0.646 c -1.399,0 -1.889,-0.649 -1.889,-2.437 v -9.662 c 0,-0.711 0.2,-0.838 0.881,-0.838 h 1.979 c 0.708,0 0.875,-0.523 0.875,-1.238 0,-0.645 -0.167,-1.166 -0.875,-1.166 h -1.979 c -0.814,0 -0.881,-0.159 -0.881,-0.809 v -3.08 c 0,-1.003 -0.743,-1.168 -1.52,-1.168 -0.746,0 -1.525,0.165 -1.525,1.203 v 3.045 c 0,0.649 -0.068,0.809 -0.875,0.809 h -1.496 -4.744 c -0.81,0 -0.875,-0.159 -0.875,-0.809 v -1.004 c 0,-1.749 0.39,-2.396 1.816,-2.396 h 1.619 c 0.648,0 0.779,-0.457 0.779,-0.91 0,-0.486 -0.13,-0.845 -0.551,-1.037 -0.324,-0.163 -1.2,-0.326 -2.754,-0.326 z m -12.645,0.379 c -0.089,0 -0.178,0.06 -0.244,0.178 l -3.102,5.367 c -0.134,0.232 -0.022,0.426 0.248,0.426 h 1.52 v 6.768 c 0,1.079 0.81,1.299 1.555,1.299 0.779,0 1.563,-0.22 1.563,-1.299 v -6.768 h 1.557 c 0.274,0 0.385,-0.194 0.25,-0.426 L 43.995,27.925 C 43.929,27.808 43.841,27.747 43.753,27.747 Z M 16.01,33.334 c -3.046,0 -5.574,0.908 -5.574,4.346 0,1.783 1.004,3.08 3.695,4.988 2.66,1.921 3.311,2.954 3.311,4.121 0,1.846 -1.559,2.141 -3.244,2.141 -1.134,0 -1.947,-0.097 -2.855,-0.229 -0.809,-0.129 -1.197,0.454 -1.197,1.07 0,0.55 0.226,0.936 0.742,1.137 0.652,0.227 1.782,0.422 3.215,0.422 3.564,0 6.355,-1.042 6.355,-4.701 0,-2.176 -1.007,-3.629 -3.76,-5.512 -2.174,-1.527 -3.246,-2.528 -3.246,-3.537 0,-1.295 0.65,-1.852 2.754,-1.852 1.007,0 1.883,0.069 2.756,0.166 0.878,0.13 1.27,-0.391 1.27,-1.102 a 1,1 0 0 0 -0.58,-0.975 c -0.591,-0.292 -1.759,-0.484 -3.641,-0.484 z" style="fill:#ffffff"></path>
</svg>
