<svg xmlns="http://www.w3.org/2000/svg" viewBox="0 0 26.46 26.46"><g stroke-width=".265"><path fill="#f5eaf3" d="M9.762 26.065c-2.506-.712-4.233-1.744-6.032-3.603-2.605-2.69-3.7-5.44-3.702-9.292C.026 9.315 1.27 6.359 4.01 3.702 5.916 1.855 7.872.792 10.393.23c.923-.205 1.715-.252 3.374-.2 1.92.06 2.337.126 3.648.574 2.16.739 3.517 1.592 5.183 3.259 1.665 1.667 2.518 3.025 3.256 5.186.448 1.312.513 1.73.574 3.65.052 1.66.005 2.453-.2 3.376-.582 2.619-1.792 4.77-3.75 6.667-1.843 1.786-3.599 2.778-6.005 3.393-1.789.457-4.972.423-6.711-.07zm5.991-5.149c1.63-.568 3.478-1.89 3.395-2.43-.064-.418-1.15-1.042-1.444-.829-.12.087-.521.388-.891.668-1.152.872-2.244 1.188-3.89 1.128-1.232-.046-1.573-.124-2.478-.57-1.338-.66-2.65-2.04-3.156-3.319-.512-1.292-.512-3.39 0-4.683.507-1.28 1.818-2.659 3.157-3.318.985-.485 1.154-.518 2.719-.518 1.563 0 1.735.033 2.714.515.574.283 1.11.515 1.192.515.081 0 .393-.255.693-.566l.545-.566-.395-.329c-.564-.468-2.152-1.163-3.134-1.37-2.597-.55-5.405.295-7.315 2.2-.481.482-1.064 1.197-1.294 1.59-1.483 2.532-1.483 5.845 0 8.377 1.002 1.71 3.075 3.225 5.138 3.752 1.114.284 3.264.165 4.444-.246zm5.521-9.004c.883-.883.703-2.42-.348-2.964-.793-.41-1.516-.31-2.184.302-.531.488-.591.622-.591 1.334 0 .83.398 1.47 1.108 1.782.577.254 1.52.042 2.015-.454zm-1.778-.828c-.38-.381-.387-.462-.07-.915.3-.428.722-.452 1.075-.062.359.397.328.754-.09 1.047-.453.318-.533.311-.915-.07z"/><path fill="#f4d7e8" d="M10.644 26.286C5.827 25.276 1.985 21.744.477 16.94c-.324-1.034-.37-1.5-.37-3.716 0-2.217.046-2.683.37-3.717C2.297 3.71 7.278 0 13.244 0 20.67 0 26.46 5.794 26.46 13.223c0 5.934-3.676 10.912-9.416 12.753-.89.285-1.56.365-3.403.406-1.263.028-2.61-.015-2.996-.096zm4.493-5.148c1.23-.32 2.65-1.092 3.55-1.93l.73-.678-.475-.4c-.77-.648-1.06-.646-1.92.013-1.367 1.045-1.988 1.246-3.857 1.252-1.557.005-1.728-.027-2.705-.505-1.303-.638-2.373-1.756-3.039-3.176-.444-.948-.5-1.222-.5-2.49 0-1.265.057-1.545.493-2.475 1.55-3.306 5.154-4.674 8.358-3.173.588.275 1.15.498 1.249.496.099-.003.43-.213.734-.467.7-.586.58-.837-.738-1.544-3.218-1.724-6.96-1.183-9.563 1.381-2.793 2.752-3.248 6.943-1.114 10.248 1.844 2.854 5.53 4.3 8.796 3.448zm5.789-8.868c.55-.284.944-.978.944-1.66 0-1.462-1.524-2.349-2.854-1.66-.873.451-1.208 1.72-.688 2.6.531.9 1.651 1.21 2.598.72zm-1.483-1.132c-.23-.23-.098-.996.2-1.155.612-.328 1.287.335.961.944-.165.309-.925.447-1.16.211z"/><path fill="#e8d8e9" d="M10.644 26.286C5.827 25.276 1.985 21.744.477 16.94c-.324-1.034-.37-1.5-.37-3.716 0-2.217.046-2.683.37-3.717.675-2.148 1.665-3.845 3.183-5.449C5.226 2.402 6.942 1.344 9.366.538c1.248-.414 1.53-.446 3.878-.45 2.455-.004 2.58.011 4.037.514 4.129 1.424 7.154 4.45 8.577 8.583.502 1.458.518 1.583.514 4.039-.004 2.35-.037 2.632-.45 3.88-.805 2.426-1.863 4.144-3.518 5.71-1.577 1.494-3.267 2.491-5.36 3.162-.89.286-1.56.366-3.404.406-1.262.028-2.61-.015-2.995-.096zm4.493-5.148c1.23-.32 2.65-1.092 3.55-1.93l.73-.678-.475-.4c-.77-.648-1.06-.646-1.92.013-1.367 1.045-1.988 1.246-3.857 1.252-1.557.005-1.728-.027-2.705-.505-1.303-.638-2.373-1.756-3.039-3.176-.444-.948-.5-1.222-.5-2.49 0-1.265.057-1.545.493-2.475 1.58-3.37 5.173-4.685 8.49-3.11l1.184.564.571-.471c.314-.26.571-.59.57-.737 0-.315-1.001-.975-2.215-1.46-1.095-.438-3.395-.594-4.61-.313-1.451.337-2.824 1.108-3.951 2.22-2.791 2.756-3.246 6.945-1.113 10.248 1.844 2.854 5.53 4.3 8.797 3.448zm5.782-8.864c.679-.351.952-.843.952-1.715 0-.667-.074-.846-.539-1.311s-.643-.539-1.31-.539c-.872 0-1.363.273-1.714.952a1.92 1.92 0 002.611 2.613zm-1.409-1.251c-.108-.13-.173-.401-.145-.602.043-.302.148-.365.606-.365.528 0 .554.026.554.554 0 .478-.056.56-.41.602-.224.026-.497-.059-.605-.19z"/><path fill="#edc2dd" d="M10.078 26.118c-1.663-.405-3.872-1.511-5.19-2.6C.083 19.554-1.368 12.87 1.38 7.365 3.01 4.098 5.7 1.773 9.207.595c1.439-.482 1.614-.504 4.037-.508 2.453-.003 2.58.013 4.036.516 4.13 1.423 7.155 4.45 8.578 8.583.502 1.457.518 1.584.515 4.039-.003 2.424-.025 2.6-.508 4.039-.836 2.494-2.395 4.762-4.351 6.328-1.327 1.063-3.54 2.146-5.183 2.536-1.792.426-4.484.422-6.253-.01zm5.124-4.966c1.242-.331 2.504-1.016 3.415-1.852.76-.7.787-.75.534-1.03a3.78 3.78 0 00-.733-.568c-.463-.273-.47-.272-1.202.288-2.354 1.798-5.178 1.969-7.489.452-2.026-1.329-3.18-3.956-2.74-6.235.403-2.093 1.567-3.631 3.45-4.562 1.142-.565 1.29-.598 2.72-.598 1.413 0 1.59.038 2.722.578l1.21.579.57-.471c.314-.26.571-.59.57-.737 0-.315-1.001-.975-2.215-1.46-1.08-.432-3.335-.587-4.625-.32-3.112.647-5.75 3.444-6.304 6.686-.691 4.046 1.952 8.136 5.973 9.242 1.024.282 3.1.285 4.144.007zm5.717-8.877c.679-.351.951-.843.951-1.715 0-.667-.073-.846-.538-1.311s-.643-.539-1.31-.539c-.872 0-1.363.273-1.714.952a1.92 1.92 0 002.611 2.613zm-1.409-1.251c-.108-.13-.173-.401-.145-.602.043-.302.148-.365.606-.365.528 0 .554.026.554.554 0 .478-.056.561-.41.602-.224.026-.497-.059-.605-.19z"/><path fill="#d6cee4" d="M10.078 26.118c-1.663-.405-3.872-1.511-5.19-2.6C.083 19.554-1.368 12.87 1.38 7.365 3.768 2.58 8.549-.22 13.869.045c2.117.106 3.615.508 5.463 1.466 2.5 1.295 4.324 3.12 5.618 5.622.957 1.849 1.359 3.348 1.465 5.466.318 6.359-3.937 12.068-10.084 13.528-1.792.426-4.484.422-6.253-.01zm5.124-4.966c1.242-.331 2.504-1.016 3.415-1.852.76-.7.787-.75.534-1.03a3.78 3.78 0 00-.733-.568c-.463-.273-.47-.272-1.202.288-2.952 2.255-6.76 1.879-8.942-.883-2.39-3.025-1.502-7.532 1.832-9.305 1.923-1.023 3.957-1.055 5.88-.093.492.246.942.469 1 .495.19.086 1.244-.945 1.244-1.219 0-.353-1.466-1.231-2.696-1.614-.645-.201-1.439-.303-2.355-.303-2.306 0-3.928.644-5.626 2.233a8.332 8.332 0 00-2.468 4.601c-.692 4.047 1.951 8.136 5.973 9.242 1.024.282 3.1.286 4.143.008zm6.019-9.046c1.604-1.351.23-3.937-1.794-3.378-1.163.321-1.705 1.698-1.116 2.837.51.987 2.041 1.272 2.91.54zm-1.693-1.051c-.453-.453-.036-1.145.632-1.05.67.095.506 1.24-.177 1.24a.743.743 0 01-.455-.19z"/><path fill="#d1c1dd" d="M10.553 26.214c-4.465-.988-8.205-4.216-9.711-8.382-.683-1.887-.87-3.161-.778-5.306C.205 9.208 1.5 6.3 3.913 3.886 6.624 1.175 10.047-.146 13.869.046c2.116.106 3.615.508 5.463 1.465 2.5 1.295 4.324 3.12 5.618 5.622.957 1.85 1.358 3.349 1.465 5.467.328 6.555-4.104 12.254-10.591 13.62-1.34.282-3.986.28-5.271-.004zm4.507-5.004c1.117-.257 2.589-1.031 3.47-1.823.444-.4.808-.81.808-.911 0-.101-.32-.385-.71-.632l-.71-.448-.686.563c-.377.31-1.108.76-1.625 1-.817.382-1.133.44-2.442.44-1.365.002-1.603-.045-2.57-.503-3.955-1.875-4.92-6.983-1.893-10.012 1.974-1.975 4.78-2.428 7.284-1.176.492.247.942.47 1 .496.191.086 1.244-.946 1.244-1.219 0-.154-.366-.489-.861-.79-2.39-1.448-5.485-1.531-8.082-.217-1.08.547-2.909 2.432-3.446 3.554-1.634 3.407-.925 7.22 1.807 9.711 1.027.938 2.141 1.571 3.317 1.888 1.005.27 3.091.31 4.095.08zm6.16-9.105c1.605-1.35.232-3.937-1.793-3.378-1.163.322-1.705 1.698-1.116 2.838.51.987 2.041 1.271 2.91.54zm-1.692-1.051c-.453-.453-.036-1.144.632-1.05.67.095.506 1.24-.177 1.24a.743.743 0 01-.455-.19z"/><path fill="#eab1d3" d="M10.548 26.208C4.411 24.858.027 19.474.027 13.287.027 5.657 6.29-.334 13.869.046c2.116.106 3.615.508 5.463 1.465 2.5 1.295 4.324 3.12 5.618 5.622.957 1.85 1.358 3.348 1.464 5.466.33 6.565-4.116 12.272-10.592 13.6-1.45.298-3.941.302-5.274.01zm5.014-5.138c.553-.17 1.362-.534 1.797-.807.887-.556 1.979-1.552 1.978-1.804 0-.092-.32-.368-.71-.615l-.709-.448-.686.563c-.378.31-1.109.76-1.625 1.001-.817.381-1.134.438-2.443.44-1.366.001-1.601-.045-2.576-.507-5.502-2.608-4.531-10.552 1.44-11.786 1.24-.256 2.681-.037 3.958.601.492.247.942.47 1 .496.19.086 1.244-.946 1.244-1.219 0-.154-.366-.489-.862-.79-2.389-1.448-5.484-1.531-8.082-.217-1.074.545-2.928 2.437-3.45 3.524-1.574 3.278-1.055 6.725 1.405 9.334 1.652 1.753 3.432 2.522 5.867 2.536 1.012.006 1.75-.085 2.454-.302zm5.658-8.964c1.605-1.351.231-3.937-1.793-3.378-1.164.321-1.705 1.698-1.116 2.837.51.987 2.041 1.272 2.91.54zm-1.692-1.051c-.453-.453-.037-1.145.632-1.05.669.095.506 1.24-.177 1.24a.743.743 0 01-.455-.19z"/><path fill="#d5b8d8" d="M10.548 26.208C4.411 24.858.027 19.474.027 13.287c0-9.151 8.99-15.555 17.569-12.515 7.146 2.533 10.678 10.349 7.882 17.441-1.591 4.036-5.283 7.09-9.655 7.986-1.451.298-3.942.302-5.275.009zm5.014-5.138c.553-.17 1.362-.534 1.797-.807.887-.556 1.979-1.552 1.978-1.804 0-.092-.32-.368-.71-.615l-.709-.448-.686.563c-.378.31-1.109.76-1.625 1.001-.817.381-1.134.438-2.443.44-1.366.001-1.601-.045-2.576-.507C5.1 16.292 6.056 8.341 12.005 7.112c1.248-.258 2.708-.026 4.013.638 1.06.538 1.191.52 1.95-.278l.45-.474-.346-.347c-.595-.594-2.528-1.407-3.76-1.58-2.595-.364-4.982.467-6.912 2.408-2.602 2.617-3.183 6.115-1.57 9.447.535 1.105 2.185 2.847 3.24 3.422 1.967 1.071 4.465 1.35 6.492.722zm5.652-8.96c.924-.777.989-1.985.155-2.873-1.38-1.47-3.822-.044-3.281 1.915.358 1.297 2.093 1.829 3.126.959zm-1.712-1.095c-.42-.507.197-1.286.746-.94.548.345.353 1.17-.277 1.17a.7.7 0 01-.469-.23z"/><path fill="#c8b8d8" d="M10.548 26.214C5.161 24.974 1.126 20.77.181 15.411c-.267-1.513-.119-4.217.315-5.734a13.288 13.288 0 017.031-8.328C9.286.506 10.571.168 12.484.044c7.79-.506 14.433 6.141 13.927 13.935-.124 1.915-.462 3.201-1.304 4.96a13.304 13.304 0 01-8.323 7.04c-1.501.435-4.823.56-6.237.235zm4.843-5.092c.473-.14 1.208-.431 1.633-.647.843-.427 2.314-1.716 2.314-2.028 0-.107-.295-.39-.654-.628-.743-.492-.847-.467-2.008.47-1.585 1.28-4.122 1.514-6.142.569-3.87-1.812-4.798-6.98-1.795-9.985 1.962-1.962 4.778-2.399 7.28-1.127 1.058.539 1.19.52 1.949-.278l.45-.473-.347-.347c-.594-.595-2.527-1.407-3.76-1.58-3.039-.427-6.157.943-7.864 3.454-.914 1.346-1.359 2.625-1.467 4.224-.156 2.295.597 4.323 2.26 6.086 1.65 1.75 3.433 2.523 5.856 2.537.883.005 1.766-.09 2.295-.247zm5.823-9.015c.924-.778.989-1.986.155-2.874-1.38-1.47-3.822-.044-3.281 1.916.358 1.296 2.093 1.828 3.126.958zm-1.712-1.096c-.42-.507.197-1.286.746-.94.548.345.353 1.17-.277 1.17a.7.7 0 01-.469-.23z"/><path fill="#e998c5" d="M11.265 26.346c-4.4-.85-7.8-3.31-9.73-7.039C.41 17.132.108 15.844.112 13.22c.003-2.575.207-3.506 1.246-5.702 1.288-2.72 3.42-4.852 6.17-6.17C9.286.507 10.572.169 12.485.045c7.789-.506 14.432 6.141 13.926 13.935-.124 1.915-.462 3.201-1.304 4.96-1.648 3.446-4.818 6.085-8.54 7.11-.933.257-4.48.455-5.302.297zm4.109-5.233a10.666 10.666 0 001.643-.634c.849-.43 2.32-1.72 2.32-2.032 0-.197-1.135-1.03-1.403-1.03-.08 0-.49.287-.914.637-1.143.946-2.234 1.32-3.855 1.321-2.16.001-3.993-.945-5.118-2.64-.851-1.283-1.106-2.248-1.024-3.874.084-1.679.601-2.87 1.741-4.012 1.934-1.938 4.766-2.369 7.254-1.103 1.06.538 1.192.52 1.95-.278l.45-.474-.346-.346c-.19-.191-.857-.588-1.48-.883C11.237 3.23 4.934 7.26 4.934 13.22c0 4.083 3.165 7.661 7.2 8.138a7.873 7.873 0 003.24-.246zm5.84-9.007c.924-.777.989-1.985.155-2.874-1.38-1.47-3.822-.044-3.281 1.916.358 1.297 2.093 1.828 3.126.958zm-1.712-1.096c-.42-.507.197-1.285.746-.94.548.346.353 1.17-.277 1.17a.7.7 0 01-.469-.23z"/><path fill="#b4aad0" d="M11.265 26.346c-4.4-.85-7.8-3.31-9.73-7.039C.41 17.132.108 15.844.112 13.22c.003-2.575.207-3.506 1.246-5.702C5.178-.55 15.794-2.493 22.295 3.687c6.7 6.367 4.96 17.487-3.353 21.426-.784.37-1.852.792-2.374.936-.934.257-4.48.456-5.303.297zm4.109-5.233a10.666 10.666 0 001.643-.634c.849-.43 2.32-1.72 2.32-2.032 0-.197-1.135-1.03-1.403-1.03-.08 0-.49.287-.914.637-1.143.946-2.234 1.32-3.855 1.321-.993 0-1.563-.085-2.172-.328-1.8-.715-3.18-2.17-3.769-3.974-.42-1.284-.271-3.312.332-4.537 1.199-2.433 3.904-3.875 6.47-3.45.556.093 1.48.402 2.054.688l1.044.52.632-.618c.347-.34.632-.671.632-.736 0-.204-1.35-1.06-2.195-1.393-5.34-2.106-11.26 1.928-11.26 7.673 0 4.084 3.166 7.662 7.2 8.139a7.873 7.873 0 003.24-.247zm5.766-8.936c.5-.394.889-1.096.889-1.604 0-.59-.535-1.422-1.12-1.745-2.028-1.117-3.963 1.779-2.188 3.273.631.532 1.794.568 2.419.076zm-1.638-1.166c-.42-.507.197-1.286.746-.94.548.345.353 1.17-.277 1.17a.7.7 0 01-.469-.23z"/><path fill="#cf96c5" d="M10.79 26.22C6.033 25.211 2.385 22.055.8 17.577-1.364 11.47 1.265 4.686 6.99 1.605 12.013-1.097 18.138-.263 22.296 3.69c3.598 3.42 4.977 8.453 3.61 13.176-1.338 4.62-4.733 7.885-9.574 9.212-1.225.336-4.264.414-5.542.143zm4.602-5.075c.398-.114 1.102-.399 1.564-.633.898-.456 2.382-1.74 2.382-2.063 0-.197-1.136-1.03-1.404-1.03-.08 0-.491.287-.914.637-.423.35-1.133.773-1.578.94-3.13 1.173-6.431-.151-7.877-3.16-.452-.942-.495-1.165-.495-2.614 0-1.451.042-1.672.505-2.649.866-1.83 2.468-3.058 4.525-3.47 1.217-.243 2.617-.006 3.98.673l1.044.52.632-.618c.347-.34.632-.671.632-.736 0-.203-1.35-1.06-2.195-1.393-2.174-.857-4.463-.75-6.62.31-6.18 3.038-6.196 11.67-.026 14.715 1.924.95 3.863 1.14 5.845.571zm5.748-8.966c.5-.393.888-1.095.888-1.604 0-.589-.534-1.422-1.12-1.745-2.027-1.117-3.962 1.78-2.187 3.274.63.53 1.794.567 2.419.075zm-1.638-1.166c-.42-.507.197-1.286.746-.94.548.345.352 1.17-.277 1.17a.7.7 0 01-.469-.23z"/><path fill="#d585bb" d="M10.79 26.22C1.656 24.283-2.75 14.39 1.949 6.368c.792-1.354 3.296-3.78 4.726-4.58 5.204-2.913 11.339-2.169 15.613 1.894 4.46 4.24 5.414 10.69 2.383 16.113-.8 1.431-3.224 3.936-4.577 4.73a15.765 15.765 0 01-3.695 1.534c-1.285.351-4.304.438-5.61.161zm4.602-5.075c1.58-.453 3.946-2.011 3.946-2.6 0-.297-1.082-1.125-1.471-1.125-.116 0-.407.204-.646.454-.63.657-1.955 1.277-3.16 1.476-2.634.437-5.29-1-6.497-3.514-.451-.941-.494-1.166-.494-2.614 0-1.41.05-1.692.455-2.569a6.036 6.036 0 011.28-1.766c2.08-1.97 4.825-2.395 7.197-1.117.473.255.939.463 1.036.463.098 0 .46-.29.803-.645l.626-.645-.475-.388c-1.052-.858-3.357-1.642-4.828-1.642-.969 0-2.736.45-3.784.966-1.266.622-2.764 2.096-3.452 3.397-2.226 4.207-.626 9.204 3.619 11.299 1.924.95 3.863 1.139 5.845.57zm5.646-8.884c.49-.32.989-1.155.99-1.654 0-.618-.522-1.447-1.12-1.777-1.482-.817-3.37.716-2.844 2.31.431 1.31 1.864 1.85 2.974 1.121zm-1.536-1.248c-.42-.507.197-1.286.746-.94.548.345.352 1.17-.277 1.17a.7.7 0 01-.469-.23z"/><path fill="#ea75b1" d="M10.79 26.22C1.662 24.284-2.765 14.347 1.95 6.376c.724-1.226 2.656-3.233 3.92-4.072 5.224-3.472 11.91-2.908 16.426 1.385 5.53 5.256 5.497 13.856-.073 19.13-1.75 1.657-3.412 2.582-5.823 3.24-1.286.351-4.305.438-5.61.161zm4.602-5.075c1.58-.453 3.946-2.011 3.946-2.6 0-.297-1.082-1.125-1.471-1.125-.116 0-.407.204-.646.454-.63.657-1.955 1.277-3.16 1.476-2.634.437-5.29-1-6.497-3.514-.451-.941-.494-1.166-.494-2.614 0-1.41.05-1.692.455-2.569.558-1.208 1.793-2.425 3.067-3.022.808-.38 1.098-.427 2.576-.427 1.559 0 1.732.033 2.71.514.575.284 1.107.513 1.184.51.076-.004.417-.245.756-.536.748-.64.7-.866-.318-1.513-1.935-1.228-4.743-1.56-6.91-.819-7 2.395-7.656 11.951-1.043 15.215 1.924.95 3.863 1.139 5.845.57zm5.519-8.766c.58-.312 1.117-1.145 1.117-1.733 0-1.063-.975-2.094-1.98-2.096-1.05 0-2.136 1.045-2.134 2.056 0 .896 1.164 2.06 2.06 2.061.218 0 .64-.13.937-.288zm-1.333-1.393c-.308-.31-.262-.676.116-.914.548-.345 1.166.433.745.94-.249.3-.543.292-.86-.026z"/><path fill="#b094c5" d="M10.79 26.22C1.662 24.284-2.765 14.347 1.95 6.376c.724-1.226 2.656-3.233 3.92-4.072C8.21.749 10.454.079 13.242.103c2.315.02 3.812.375 5.857 1.39 3.41 1.69 5.915 4.796 6.905 8.562.479 1.82.49 4.614.024 6.335-.718 2.658-1.858 4.585-3.806 6.43-1.75 1.657-3.412 2.581-5.824 3.24-1.285.35-4.304.437-5.609.16zm4.602-5.075c1.58-.453 3.946-2.011 3.946-2.6 0-.297-1.082-1.125-1.471-1.125-.116 0-.407.204-.646.454-.63.657-1.955 1.277-3.16 1.476-2.634.437-5.29-1-6.497-3.514-.451-.941-.494-1.166-.494-2.614 0-1.41.05-1.692.455-2.569.558-1.208 1.793-2.425 3.067-3.022.808-.38 1.098-.427 2.576-.427 1.559 0 1.732.033 2.71.514.575.284 1.107.513 1.184.51.076-.004.417-.245.756-.536.748-.64.7-.866-.318-1.513-1.935-1.228-4.743-1.56-6.91-.819-7 2.395-7.656 11.951-1.043 15.215 1.924.95 3.863 1.139 5.845.57zm5.519-8.766c.62-.334 1.118-1.155 1.117-1.847-.001-1-.999-1.982-2.012-1.982-1.02 0-2.104 1.06-2.102 2.056 0 .896 1.164 2.06 2.06 2.061.218 0 .64-.13.937-.288zm-1.333-1.393c-.308-.31-.262-.676.116-.914.548-.345 1.166.433.745.94-.249.3-.543.292-.86-.026z"/><path fill="#9792c4" d="M10.79 26.208C3.624 24.76-1.058 17.948.275 10.916 1.26 5.717 4.895 1.828 10.078.427c1.72-.465 4.512-.455 6.33.024 3.758.989 6.884 3.512 8.56 6.91 1.013 2.05 1.366 3.546 1.387 5.86.018 2.079-.28 3.557-1.088 5.385-1.355 3.07-4.213 5.766-7.368 6.951-2.228.837-4.955 1.087-7.11.651zm3.983-4.901c1.344-.285 2.504-.84 3.654-1.75 1.099-.867 1.15-1.191.28-1.741-.796-.503-.875-.5-1.53.077-3.063 2.691-7.91 1.6-9.68-2.177-.374-.8-.427-1.106-.427-2.495 0-1.387.053-1.697.425-2.49a6.6 6.6 0 012.959-3.016c.975-.48 1.149-.513 2.71-.513 1.563 0 1.735.033 2.714.515.575.283 1.107.512 1.184.509.076-.004.417-.245.757-.536.747-.64.7-.866-.32-1.513-1.934-1.227-4.742-1.56-6.91-.819-3.435 1.176-5.655 4.295-5.655 7.947 0 3.8 2.753 7.17 6.529 7.991 1.292.281 2.026.284 3.31.011zm6.137-8.93c.622-.333 1.118-1.154 1.118-1.846-.002-1-.999-1.983-2.013-1.983-1.02 0-2.103 1.06-2.102 2.057.002.896 1.165 2.06 2.06 2.06.219.001.64-.129.937-.288zm-1.332-1.393c-.308-.309-.262-.675.115-.913.549-.346 1.167.433.746.94-.25.3-.543.291-.86-.027z"/><path fill="#cd70b0" d="M10.627 26.142C5.297 25.017 1.297 20.915.275 15.53c-.77-4.067.498-8.26 3.434-11.355C5.497 2.291 7.455 1.14 10.078.431c1.72-.466 4.512-.455 6.331.024 3.757.988 6.883 3.512 8.56 6.909 1.012 2.05 1.366 3.547 1.386 5.86.018 2.08-.28 3.558-1.087 5.386-2.459 5.568-8.71 8.784-14.641 7.532zm4.147-4.831c1.344-.285 2.504-.84 3.654-1.75 1.098-.867 1.15-1.191.28-1.741-.796-.503-.875-.5-1.531.077-3.063 2.691-7.91 1.6-9.68-2.177-.374-.8-.426-1.106-.426-2.495 0-1.387.053-1.697.424-2.49a6.6 6.6 0 012.96-3.016c.975-.48 1.148-.513 2.71-.513 1.563 0 1.735.033 2.714.515.574.283 1.107.512 1.183.508.077-.003.417-.244.757-.535.748-.64.7-.866-.319-1.513-1.935-1.227-4.743-1.56-6.91-.819-3.44 1.178-5.656 4.295-5.656 7.959 0 3.793 2.74 7.159 6.49 7.97 1.333.29 2.058.294 3.35.02zm6.137-8.93c.621-.333 1.118-1.154 1.117-1.846-.001-1-.998-1.983-2.012-1.983-1.02 0-2.103 1.06-2.102 2.057.001.895 1.165 2.06 2.06 2.06.219.001.64-.129.937-.288zm-1.332-1.393c-.309-.309-.262-.675.115-.913.549-.346 1.166.433.746.94-.25.3-.543.291-.861-.027z"/><path fill="#ac84bc" d="M10.627 26.142C7.91 25.57 5.62 24.29 3.709 22.275.773 19.18-.496 14.987.276 10.92 1.257 5.74 4.913 1.839 10.078.458c1.761-.471 4.558-.473 6.332-.005 1.658.438 3.867 1.545 5.112 2.56 2.095 1.71 3.773 4.344 4.485 7.043.468 1.775.466 4.574-.004 6.336-1.38 5.168-5.28 8.827-10.456 9.809-1.676.318-3.221.3-4.92-.06zm4.147-4.831c1.344-.285 2.504-.84 3.654-1.75 1.098-.867 1.15-1.191.28-1.741-.796-.503-.875-.5-1.531.077-3.063 2.691-7.91 1.6-9.68-2.177-.374-.8-.426-1.106-.426-2.495 0-1.387.053-1.697.424-2.49a6.6 6.6 0 012.96-3.016c.974-.48 1.149-.513 2.707-.513 1.565 0 1.726.03 2.68.515.558.283 1.093.514 1.19.514.264 0 1.356-.943 1.356-1.171 0-.337-.663-.845-1.792-1.373-5.433-2.543-11.662 1.532-11.662 7.63 0 3.793 2.74 7.158 6.49 7.97 1.333.29 2.058.294 3.35.02zm6.07-8.869c1.071-.448 1.5-1.866.875-2.892a2.043 2.043 0 00-3.495 0c-.592.971-.219 2.28.807 2.83.65.35 1.09.364 1.812.062zm-1.257-1.446c-.137-.137-.249-.31-.249-.385 0-.203.47-.634.692-.634.25 0 .574.325.574.575 0 .223-.43.693-.633.693-.074 0-.247-.112-.384-.25z"/><path fill="#e85aa2" d="M10.627 26.142C7.91 25.57 5.62 24.29 3.709 22.275.773 19.18-.496 14.987.276 10.92 1.255 5.755 4.928 1.834 10.078.458c1.761-.471 4.558-.473 6.332-.005 1.658.438 3.867 1.545 5.112 2.56 2.095 1.71 3.773 4.344 4.485 7.043.468 1.775.466 4.574-.004 6.336-1.855 6.945-8.551 11.191-15.376 9.75zm5.158-5.08c1.619-.557 3.553-1.939 3.553-2.538 0-.309-1.009-1.102-1.4-1.102-.121 0-.476.224-.788.499-3.002 2.638-7.914 1.515-9.654-2.207-.37-.792-.424-1.104-.424-2.49 0-1.385.053-1.697.424-2.489.59-1.264 1.702-2.397 2.958-3.016.975-.48 1.15-.513 2.707-.513 1.565 0 1.727.03 2.68.515.558.283 1.094.514 1.19.514.265 0 1.357-.943 1.357-1.171 0-.633-2.3-1.796-4.048-2.048-2.617-.378-5.138.489-7.032 2.415-1.64 1.669-2.369 3.455-2.372 5.817-.009 5.586 5.595 9.623 10.849 7.814zm5.058-8.62c1.072-.448 1.501-1.866.876-2.892a2.043 2.043 0 00-3.495 0c-.592.971-.219 2.28.807 2.83.65.35 1.09.365 1.812.062zm-1.256-1.446c-.137-.137-.249-.31-.249-.385 0-.203.47-.633.692-.633.25 0 .574.324.574.574 0 .223-.43.693-.633.693-.074 0-.247-.112-.384-.25z"/><path fill="#9784bc" d="M10.627 26.142C7.91 25.57 5.62 24.29 3.709 22.275.773 19.18-.496 14.987.276 10.92 1.377 5.109 5.836.945 11.809.15c3.591-.478 7.956 1.08 10.69 3.814 2.733 2.735 4.29 7.103 3.812 10.697-1.044 7.845-8.176 13.066-15.684 11.481zm5.158-5.08c1.619-.557 3.553-1.939 3.553-2.538 0-.309-1.009-1.102-1.4-1.102-.121 0-.476.224-.788.499-3.002 2.638-7.914 1.515-9.654-2.207-.37-.792-.424-1.104-.424-2.49 0-1.385.053-1.697.424-2.489.59-1.264 1.702-2.397 2.958-3.016.975-.48 1.15-.513 2.707-.513 1.565 0 1.727.03 2.68.515.558.283 1.094.514 1.19.514.265 0 1.357-.943 1.357-1.171 0-.633-2.3-1.796-4.048-2.048-2.617-.378-5.138.489-7.032 2.415-1.64 1.669-2.369 3.455-2.372 5.817-.009 5.586 5.595 9.623 10.849 7.814zm5.058-8.62c1.072-.448 1.501-1.866.876-2.892a2.043 2.043 0 00-3.495 0c-.592.971-.219 2.28.807 2.83.65.35 1.09.365 1.812.062zm-1.256-1.446c-.137-.137-.249-.31-.249-.385 0-.203.47-.633.692-.633.25 0 .574.324.574.574 0 .223-.43.693-.633.693-.074 0-.247-.112-.384-.25z"/><path fill="#aa72b2" d="M10.922 26.208C3.375 24.774-1.432 17.291.491 9.97 1.898 4.612 6.179.895 11.808.146c3.591-.479 7.956 1.079 10.69 3.814 2.733 2.735 4.29 7.103 3.812 10.697-.889 6.68-5.99 11.425-12.592 11.713-1.008.044-2.023-.015-2.796-.162zm4.842-5.14c1.645-.572 3.574-1.947 3.574-2.549 0-.308-1.009-1.102-1.401-1.102-.12 0-.475.225-.787.5-2.414 2.12-6.327 1.854-8.552-.583-1.131-1.239-1.516-2.3-1.522-4.197-.005-1.385.036-1.592.508-2.55.617-1.256 1.75-2.369 3.013-2.961.802-.376 1.096-.425 2.567-.425 1.562 0 1.724.031 2.677.515.558.283 1.094.515 1.19.515.265 0 1.357-.944 1.357-1.172 0-.633-2.3-1.796-4.048-2.048-4.099-.59-8.107 2.07-9.176 6.092-.264.992-.294 3.075-.058 4.097.423 1.838 1.865 3.86 3.513 4.926.841.545 2.27 1.115 3.28 1.31.8.155 2.947-.05 3.865-.369zm5.079-8.63c1.072-.449 1.5-1.866.875-2.893a2.043 2.043 0 00-3.495 0c-.592.972-.219 2.28.808 2.831.65.35 1.089.364 1.812.062zm-1.257-1.447c-.136-.137-.248-.31-.248-.384 0-.204.47-.634.692-.634.25 0 .574.324.574.575 0 .222-.43.692-.633.692-.075 0-.248-.112-.385-.249z"/><path fill="#e94a9a" d="M10.922 26.208c-4.49-.853-8.343-4.023-9.946-8.184C-1.782 10.87 2.076 2.914 9.4.653c1.892-.585 3.526-.72 5.387-.445 6.212.917 10.543 5.25 11.46 11.467.195 1.331.207 1.89.062 2.982-.745 5.596-4.483 9.91-9.82 11.327-1.583.421-4.015.519-5.568.224zm4.966-5.193c1.289-.468 2.484-1.219 3.151-1.98l.502-.572-.537-.45c-.832-.697-1.109-.701-1.983-.03-1.375 1.056-1.986 1.255-3.859 1.255-1.56 0-1.73-.032-2.718-.518-4.682-2.304-4.516-8.946.28-11.16.653-.3 1.047-.359 2.44-.359 1.562 0 1.724.031 2.677.515.558.283 1.094.515 1.19.515.265 0 1.357-.944 1.357-1.172 0-.633-2.3-1.796-4.048-2.048-4.146-.598-8.31 2.212-9.236 6.233-.21.913-.21 3.04.001 3.956.423 1.838 1.866 3.86 3.514 4.926.841.544 2.269 1.115 3.28 1.31.89.173 2.954-.045 3.989-.421zm4.955-8.577c1.072-.448 1.5-1.866.875-2.893a2.043 2.043 0 00-3.495 0c-.592.972-.219 2.28.808 2.831.65.35 1.089.364 1.812.062zm-1.257-1.447c-.136-.136-.248-.31-.248-.384 0-.204.47-.634.692-.634.25 0 .574.324.574.575 0 .222-.43.692-.633.692-.075 0-.248-.112-.385-.249z"/><path fill="#cb59a3" d="M10.922 26.208c-4.49-.853-8.343-4.023-9.946-8.184-2.756-7.15 1.1-15.11 8.415-17.368 2.55-.788 5.101-.767 7.723.06l1.179.373 7.068 7.062.375 1.188c.571 1.812.782 3.81.568 5.377-.762 5.564-4.5 9.856-9.813 11.268-1.583.421-4.016.519-5.569.224zm4.966-5.193c1.289-.468 2.484-1.219 3.151-1.98l.502-.572-.537-.45c-.832-.697-1.109-.701-1.983-.03-1.375 1.056-1.986 1.255-3.859 1.255-1.56 0-1.73-.032-2.718-.518-4.682-2.304-4.516-8.946.28-11.16.653-.3 1.047-.359 2.44-.359 1.562 0 1.724.031 2.677.515.558.283 1.094.515 1.19.515.265 0 1.357-.944 1.357-1.172 0-.633-2.3-1.796-4.048-2.048-4.146-.598-8.31 2.212-9.236 6.233-.21.913-.21 3.04.001 3.956.423 1.838 1.866 3.86 3.514 4.926.841.544 2.269 1.115 3.28 1.31.89.173 2.954-.045 3.989-.421zm4.955-8.577c1.072-.448 1.5-1.866.875-2.893a2.043 2.043 0 00-3.495 0c-.592.972-.219 2.28.808 2.831.65.35 1.089.364 1.812.062zm-1.257-1.447c-.136-.136-.248-.31-.248-.384 0-.204.47-.634.692-.634.25 0 .574.324.574.575 0 .222-.43.692-.633.692-.075 0-.248-.112-.385-.249z"/><path fill="#e34a9a" d="M10.922 26.208C7.38 25.535 4.178 23.41 2.23 20.44-2.124 13.804.398 4.776 7.545 1.41 9.97.266 12.472-.14 14.852.22c3.04.459 2.996.431 6.983 4.411l3.526 3.52.374 1.189c.62 1.969.776 3.677.5 5.495-.393 2.602-1.15 4.494-2.534 6.337-1.263 1.68-3.318 3.311-5.231 4.15-2.172.953-5.277 1.318-7.547.886zm4.966-5.193c1.289-.468 2.484-1.219 3.151-1.98l.502-.572-.537-.45c-.832-.697-1.109-.701-1.983-.03-1.375 1.056-1.986 1.255-3.859 1.255-1.56 0-1.73-.032-2.718-.518-4.682-2.304-4.516-8.946.28-11.16.645-.297 1.05-.359 2.365-.359 1.47 0 1.663.038 2.63.515.576.283 1.176.515 1.335.515.37 0 1.334-.927 1.334-1.282 0-.32-1.162-1.093-2.374-1.578-1.225-.49-3.564-.604-4.83-.235-3.042.885-5.429 3.283-6.08 6.108-.21.913-.21 3.04.001 3.955.423 1.838 1.866 3.861 3.514 4.927.841.544 2.269 1.114 3.28 1.31.89.172 2.954-.046 3.989-.421zm5.026-8.584c.764-.395 1.115-.981 1.115-1.864 0-.706-.066-.855-.615-1.405-.554-.554-.694-.614-1.427-.614-.697 0-.892.073-1.38.52-1.757 1.612.194 4.457 2.307 3.363zm-1.313-1.455c-.21-.21-.098-.679.2-.839a.465.465 0 01.639.639c-.16.299-.628.41-.839.2z"/><path fill="#db4a9a" d="M10.922 26.208c-2.592-.493-4.814-1.633-6.73-3.454-5.251-4.991-5.517-12.98-.613-18.439 2.659-2.96 7.083-4.624 11.005-4.14l1.499.184 10.013 10.01.185 1.505c.48 3.92-1.18 8.344-4.14 11.025-.985.89-2.584 1.946-3.671 2.423-2.173.953-5.278 1.317-7.547.886zm4.966-5.193c1.289-.468 2.484-1.219 3.151-1.98l.502-.572-.537-.45c-.832-.697-1.109-.701-1.983-.03-1.375 1.056-1.986 1.255-3.859 1.255-1.56 0-1.73-.032-2.718-.518-4.682-2.304-4.516-8.946.28-11.16.645-.297 1.05-.359 2.365-.359 1.47 0 1.663.038 2.63.515.576.283 1.176.515 1.335.515.37 0 1.334-.927 1.334-1.282 0-.32-1.162-1.093-2.374-1.578-1.225-.49-3.564-.604-4.83-.235-3.042.885-5.429 3.283-6.08 6.108-.21.913-.21 3.04.001 3.955.423 1.838 1.866 3.861 3.514 4.927.841.544 2.269 1.114 3.28 1.31.89.172 2.954-.046 3.989-.421zm5.026-8.584c.764-.395 1.115-.981 1.115-1.864 0-.706-.066-.855-.615-1.405-.554-.554-.694-.614-1.427-.614-.697 0-.892.073-1.38.52-1.757 1.612.194 4.457 2.307 3.363zm-1.313-1.455c-.21-.21-.098-.679.2-.839a.465.465 0 01.639.639c-.16.299-.628.41-.839.2z"/><path fill="#d34a9a" d="M10.922 26.208c-4.49-.853-8.343-4.023-9.946-8.184-2.57-6.667.615-14.173 7.167-16.894C9.52.558 11.435.144 12.885.104l1.067-.03 6.17 6.171c4.055 4.057 6.2 6.314 6.26 6.588.126.573-.309 3.334-.721 4.58-1.154 3.487-3.838 6.439-7.192 7.91-2.173.953-5.278 1.317-7.547.886zm4.966-5.193c1.289-.468 2.484-1.219 3.151-1.98l.502-.572-.537-.45c-.832-.697-1.109-.701-1.983-.03-1.375 1.056-1.986 1.255-3.859 1.255-1.56 0-1.73-.032-2.718-.518-4.682-2.304-4.516-8.946.28-11.16.645-.297 1.05-.359 2.365-.359 1.47 0 1.663.038 2.63.515.576.283 1.176.515 1.335.515.37 0 1.334-.927 1.334-1.282 0-.32-1.162-1.093-2.374-1.578-1.225-.49-3.564-.604-4.83-.235-3.042.885-5.429 3.283-6.08 6.108-.21.913-.21 3.04.001 3.955.423 1.838 1.866 3.861 3.514 4.927.841.544 2.269 1.114 3.28 1.31.89.172 2.954-.046 3.989-.421zm5.026-8.584c.764-.395 1.115-.981 1.115-1.864 0-.706-.066-.855-.615-1.405-.554-.554-.694-.614-1.427-.614-.697 0-.892.073-1.38.52-1.757 1.612.194 4.457 2.307 3.363zm-1.313-1.455c-.21-.21-.098-.679.2-.839a.465.465 0 01.639.639c-.16.299-.628.41-.839.2z"/><path fill="#9170b1" d="M10.922 26.208c-2.592-.493-4.814-1.633-6.73-3.454C.678 19.414-.713 14.556.51 9.898 1.782 5.05 5.743 1.345 10.69.372L12.075.1l8.463 8.448h-.681c-1.433 0-2.395 1.677-1.716 2.99.96 1.858 3.888 1.22 3.888-.847v-.664l4.31 4.354-.176 1.017c-.77 4.427-3.662 8.157-7.693 9.925-2.173.953-5.278 1.317-7.547.886zm4.966-5.193c1.289-.468 2.484-1.219 3.151-1.98l.502-.572-.537-.45c-.832-.697-1.109-.701-1.983-.03-1.375 1.056-1.986 1.255-3.859 1.255-1.56 0-1.73-.032-2.718-.518-4.682-2.304-4.516-8.946.28-11.16.645-.297 1.05-.359 2.365-.359 1.47 0 1.663.038 2.63.515.576.283 1.176.515 1.335.515.37 0 1.334-.927 1.334-1.282 0-.32-1.162-1.093-2.374-1.578-1.225-.49-3.564-.604-4.83-.235-3.042.885-5.429 3.283-6.08 6.108-.21.913-.21 3.04.001 3.955.423 1.838 1.866 3.861 3.514 4.927.841.544 2.269 1.114 3.28 1.31.89.172 2.954-.046 3.989-.421zm3.713-10.04c-.21-.21-.098-.678.2-.838a.465.465 0 01.639.639c-.16.299-.628.41-.839.2z"/><path fill="#cb499a" d="M10.922 26.208c-2.592-.492-4.814-1.633-6.73-3.454-4.198-3.99-5.285-9.986-2.762-15.236 1.812-3.77 5.137-6.335 9.26-7.146L12.075.1l8.463 8.448h-.681c-1.433 0-2.395 1.677-1.716 2.99.96 1.858 3.888 1.22 3.888-.846v-.665l4.31 4.354-.176 1.017c-.74 4.25-3.27 7.672-7.063 9.553-2.572 1.275-5.62 1.743-8.178 1.257zm4.104-4.911c1.392-.328 2.76-1.062 3.724-1.998l.825-.8-.554-.468c-.848-.716-1.121-.723-2-.048-1.377 1.057-1.987 1.256-3.857 1.256-1.463 0-1.765-.05-2.532-.414-1.348-.64-2.28-1.568-2.964-2.954-.559-1.13-.598-1.302-.598-2.65 0-1.35.04-1.521.598-2.652.684-1.385 1.616-2.314 2.964-2.954.758-.36 1.075-.414 2.457-.414 1.47 0 1.663.038 2.63.515.576.283 1.176.515 1.335.515.37 0 1.334-.927 1.334-1.282 0-.32-1.162-1.093-2.374-1.578-1.224-.49-3.564-.603-4.83-.235-3.82 1.111-6.31 4.3-6.31 8.084 0 5.304 5.01 9.29 10.152 8.077zm4.575-10.321c-.21-.21-.098-.679.2-.839a.465.465 0 01.639.639c-.16.299-.628.41-.839.2z"/><path fill="#ae57a2" d="M10.922 26.208c-2.592-.492-4.814-1.633-6.73-3.454-2.126-2.02-3.43-4.477-3.944-7.426-.773-4.44 1.117-9.376 4.718-12.32C6.15 2.04 8.43.885 9.777.573l.966-.223L13.2 2.795c1.351 1.345 2.341 2.397 2.2 2.338-.141-.059-.938-.143-1.77-.187-2.312-.123-4.275.572-6 2.122a8.245 8.245 0 000 12.304c3.193 2.87 8.119 2.839 11.12-.073l.825-.8-.554-.468c-.848-.716-1.121-.723-2-.048-1.377 1.057-1.987 1.256-3.856 1.256-1.464 0-1.766-.05-2.533-.413-1.348-.64-2.28-1.57-2.964-2.955-.559-1.13-.597-1.302-.597-2.65 0-1.35.038-1.521.597-2.652.684-1.385 1.616-2.314 2.964-2.954.759-.36 1.075-.413 2.457-.413 1.47 0 1.663.037 2.631.514 1.213.598 1.562.633 1.954.2.282-.312.29-.31.856.197l.57.512-.53.482c-.41.373-.548.643-.61 1.202-.241 2.136 2.343 3.204 3.699 1.529l.29-.36 4.165 4.276-.29 1.1c-1.414 5.349-6.407 9.249-12.185 9.516-.944.043-1.955-.017-2.717-.162zm8.635-15.353c-.156-.409.06-.724.498-.724.356 0 .405.06.362.436-.058.502-.696.716-.86.288z"/><path fill="#c3499a" d="M10.922 26.208c-2.592-.492-4.814-1.633-6.73-3.454-2.126-2.02-3.43-4.477-3.944-7.426-.745-4.28 1.004-9.12 4.309-11.926 1.308-1.11 2.928-2.07 4.286-2.536 1.9-.654 1.636-.77 4.376 1.95 1.343 1.334 2.326 2.377 2.183 2.318-.142-.06-.935-.143-1.762-.185-2.455-.127-4.341.525-5.987 2.07-3.704 3.478-3.715 9.036-.024 12.353 2.576 2.315 6.21 2.792 9.317 1.222 1.153-.582 2.612-1.892 2.48-2.226-.118-.294-1.106-.95-1.431-.95-.132 0-.675.32-1.208.714-1.266.932-2.345 1.243-4.004 1.156-2.335-.123-4.057-1.273-5.115-3.417-.558-1.13-.598-1.303-.597-2.642 0-1.28.055-1.548.503-2.495A6.255 6.255 0 0110.6 7.706c.959-.454 1.206-.502 2.567-.503 1.381-.001 1.594.042 2.552.513 1.213.598 1.563.634 1.955.2.282-.312.29-.31.855.197l.571.512-.53.482c-1.349 1.225-.43 3.558 1.4 3.558.598 0 1.467-.449 1.75-.905.156-.25.419-.037 2.26 1.824 2.337 2.362 2.248 2.137 1.607 4.031-.733 2.17-2.54 4.668-4.385 6.065-2.845 2.154-6.945 3.162-10.28 2.529zm8.635-15.353c-.156-.409.06-.724.498-.724.356 0 .405.06.362.436-.058.502-.696.716-.86.288z"/><path fill="#bb499a" d="M10.922 26.208c-2.592-.492-4.814-1.633-6.73-3.454-2.126-2.02-3.43-4.477-3.944-7.426-.737-4.229.976-9.044 4.214-11.851 1.19-1.032 3.222-2.26 4.184-2.53L9.384.74l4.203 4.165h-.782c-1.79 0-3.762.81-5.152 2.115-3.704 3.477-3.715 9.035-.024 12.352 2.576 2.315 6.21 2.791 9.317 1.222 1.153-.583 2.612-1.892 2.48-2.226-.118-.294-1.106-.95-1.431-.95-.132 0-.675.32-1.208.713-1.266.932-2.345 1.244-4.004 1.157-2.335-.124-4.057-1.273-5.115-3.417-.558-1.13-.598-1.303-.597-2.643 0-1.28.055-1.547.503-2.495A6.255 6.255 0 0110.6 7.705c.959-.453 1.206-.501 2.567-.502 1.388-.001 1.591.04 2.577.525 1.453.716 2.473 1.605 2.312 2.016-.668 1.71 1.058 3.457 2.753 2.787.222-.088.788.396 2.595 2.22l2.312 2.33-.207.74c-.27.963-1.497 2.996-2.528 4.187-2.82 3.256-7.834 5.003-12.059 4.2z"/><path fill="#776fb1" d="M10.922 26.208c-2.592-.492-4.814-1.633-6.73-3.454-2.126-2.02-3.43-4.477-3.944-7.426-.734-4.215.977-9.045 4.19-11.83.936-.812 3.114-2.236 3.42-2.236.175 0 3.724 3.494 3.724 3.667 0 .054-.232.142-.515.195-1.646.31-3.735 1.869-4.897 3.654-2.183 3.355-1.56 7.88 1.46 10.594 2.575 2.314 6.21 2.79 9.316 1.222 1.153-.583 2.612-1.893 2.48-2.227-.118-.293-1.106-.95-1.431-.95-.132 0-.675.321-1.208.714-1.266.932-2.345 1.244-4.004 1.156-2.335-.123-4.057-1.273-5.115-3.416-.558-1.13-.597-1.303-.597-2.643.001-1.28.055-1.547.503-2.495 1.16-2.456 3.805-3.927 6.341-3.53.414.066.656.154.537.196-.138.05.396.692 1.497 1.797 1.166 1.17 1.752 1.657 1.836 1.525.076-.12.124-.03.125.236.004.615.844 1.515 1.534 1.645.307.057.482.151.389.209-.097.06 1.016 1.29 2.596 2.868 1.52 1.52 2.765 2.84 2.765 2.931 0 .305-1.424 2.486-2.234 3.421-2.798 3.232-7.828 4.977-12.038 4.177z"/><path fill="#b5489a" d="M11.503 26.274C5.483 25.405.993 20.789.173 14.626c-.52-3.916 1.236-8.499 4.265-11.124.936-.812 3.114-2.236 3.42-2.236.175 0 3.724 3.495 3.724 3.667 0 .055-.232.143-.515.196-1.646.31-3.735 1.868-4.897 3.654-2.65 4.072-1.11 9.664 3.256 11.81 2.542 1.25 5.052 1.251 7.52.005 1.154-.583 2.612-1.892 2.48-2.226-.117-.294-1.106-.95-1.43-.95-.132 0-.676.32-1.209.713-1.265.932-2.345 1.244-4.003 1.157-2.336-.124-4.057-1.273-5.116-3.417-.558-1.13-.597-1.303-.596-2.643 0-1.28.054-1.547.502-2.495 1.16-2.456 3.805-3.927 6.341-3.529.415.065.656.153.538.196-.139.05.396.691 1.497 1.796 1.165 1.17 1.752 1.657 1.835 1.525.076-.12.124-.03.126.237.003.614.843 1.515 1.534 1.644.306.058.481.152.388.21-.097.06 1.016 1.289 2.596 2.868 1.521 1.52 2.765 2.839 2.765 2.93 0 .093-.323.693-.718 1.335-2.198 3.566-5.227 5.6-9.333 6.268-1.56.253-2.208.263-3.64.057z"/><path fill="#b1489a" d="M11.503 26.274C5.483 25.405.993 20.789.173 14.626c-.52-3.908 1.24-8.509 4.25-11.11 1.027-.886 2.608-1.933 2.92-1.933.213 0 3.606 3.318 3.606 3.527 0 .064-.09.116-.198.116-.503 0-2.273 1.023-3.076 1.777-1.844 1.731-2.803 3.864-2.798 6.221.005 3.178 1.74 5.987 4.549 7.369 2.542 1.25 5.052 1.252 7.52.005 1.154-.582 2.612-1.892 2.48-2.226-.117-.294-1.106-.95-1.43-.95-.132 0-.676.32-1.209.714-1.265.932-2.345 1.243-4.003 1.156-2.336-.123-4.057-1.273-5.116-3.417-.558-1.13-.597-1.303-.596-2.642 0-1.28.054-1.548.502-2.495.893-1.889 2.77-3.3 4.703-3.534l.809-.099 5.856 5.872c3.221 3.23 5.88 5.975 5.906 6.1.028.126-.213.642-.535 1.148-2.134 3.35-5.187 5.344-9.17 5.992-1.56.254-2.208.264-3.64.057z"/><path fill="#ad489a" d="M11.503 26.274C5.483 25.405.993 20.789.173 14.626c-.41-3.08.596-6.667 2.627-9.37.788-1.05 2.535-2.621 3.48-3.13l.554-.299 3.472 3.463-.982.524c-1.868 1-3.48 2.973-4.109 5.028-1.167 3.82.635 7.992 4.21 9.751 2.543 1.25 5.053 1.252 7.521.006 1.154-.583 2.613-1.893 2.48-2.227-.117-.293-1.106-.95-1.43-.95-.132 0-.676.321-1.209.714-1.265.932-2.345 1.244-4.003 1.156-2.336-.123-4.057-1.273-5.116-3.416-.558-1.13-.597-1.303-.596-2.643 0-1.28.054-1.547.502-2.495.277-.585.829-1.389 1.23-1.79.771-.772 2.43-1.662 3.095-1.663.311 0 1.728 1.333 6.567 6.175l6.17 6.176-.3.557c-.509.945-2.08 2.693-3.127 3.481-1.833 1.38-3.688 2.157-6.066 2.543-1.56.254-2.208.264-3.64.057z"/><path fill="#a9489a" d="M11.503 26.274C5.483 25.405.993 20.789.173 14.626c-.531-3.994 1.264-8.572 4.41-11.242 1.693-1.437 1.491-1.466 3.45.489L9.73 5.569l-.697.393c-1.63.919-3.235 2.97-3.819 4.88-1.167 3.82.635 7.992 4.21 9.751 2.543 1.25 5.053 1.252 7.521.006 1.154-.583 2.613-1.893 2.48-2.227-.117-.293-1.106-.95-1.43-.95-.132 0-.676.321-1.209.714-1.265.932-2.345 1.244-4.003 1.156-2.336-.123-4.057-1.273-5.116-3.416-.558-1.13-.597-1.303-.596-2.643 0-1.28.054-1.547.502-2.495.567-1.2 1.592-2.313 2.603-2.83.859-.438 1.563-.645 1.563-.459 0 .078 2.824 2.963 6.274 6.412 7.14 7.136 6.578 6.244 5.064 8.03-1.973 2.327-4.665 3.795-7.935 4.326-1.56.254-2.208.264-3.64.057z"/><path fill="#8f57a3" d="M11.503 26.274C5.483 25.405.993 20.789.173 14.626c-.52-3.91 1.249-8.53 4.25-11.103.499-.428 1.001-.833 1.117-.9.145-.086.75.406 1.92 1.56C9.064 5.766 9.15 5.88 8.836 6.048c-.635.34-2.055 1.797-2.666 2.736-2.65 4.073-1.11 9.664 3.256 11.81 2.542 1.25 5.052 1.252 7.52.005 1.154-.582 2.612-1.892 2.48-2.226-.117-.293-1.106-.95-1.43-.95-.132 0-.676.321-1.209.714-1.265.932-2.345 1.244-4.003 1.156-2.336-.123-4.057-1.273-5.116-3.417-.558-1.13-.597-1.302-.596-2.642 0-1.28.054-1.548.502-2.495.565-1.195 1.591-2.313 2.592-2.824l.672-.343 6.545 6.548c3.6 3.601 6.546 6.598 6.546 6.659 0 .278-1.834 2.23-2.726 2.9-1.827 1.375-3.684 2.153-6.06 2.539-1.56.254-2.208.264-3.64.057z"/><path fill="#a5489a" d="M11.503 26.274C5.439 25.399.926 20.716.163 14.509c-.328-2.666.407-5.704 1.995-8.254.737-1.183 2.337-2.952 3.155-3.489l.427-.28 3.422 3.375-.5.31c-.87.538-2.404 2.275-2.93 3.318-1.601 3.173-1.06 6.761 1.418 9.412 3.074 3.288 8.281 3.529 11.49.53.98-.916.996-1.099.142-1.653-.718-.467-.942-.45-1.664.12-2.14 1.697-5.08 1.87-7.336.432-1.929-1.229-3.06-3.814-2.647-6.05.356-1.927 1.51-3.59 3.03-4.366l.673-.343 13.143 13.15-.283.433c-.54.823-2.304 2.423-3.49 3.162a13.272 13.272 0 01-5.01 1.892c-1.615.262-2.256.273-3.696.066z"/><path fill="#a1489b" d="M11.503 26.274C5.439 25.399.926 20.716.163 14.509-.286 10.86 1.22 6.735 4.026 3.927l1.108-1.109 3.387 3.379-1.07 1.033c-3.391 3.277-3.52 8.229-.301 11.671 3.074 3.288 8.281 3.529 11.49.53.98-.916.995-1.099.142-1.653-.718-.467-.942-.45-1.664.121-2.713 2.15-6.655 1.778-8.71-.823-2.14-2.71-1.615-6.868 1.107-8.756l.663-.46 13.467 13.476-1.11 1.11a13.358 13.358 0 01-7.336 3.762c-1.616.262-2.257.273-3.697.065z"/><path fill="#9b499b" d="M11.503 26.274C5.439 25.399.926 20.716.163 14.509c-.311-2.533.352-5.493 1.766-7.879.723-1.221 2.092-2.908 2.48-3.057.197-.076.698.326 1.894 1.519L7.93 6.713l-.848.89c-2.063 2.163-2.79 5.371-1.842 8.128.473 1.375.911 2.102 1.91 3.17 3.114 3.332 8.398 3.53 11.58.434l.919-.895 1.67 1.678c1.232 1.236 1.645 1.748 1.57 1.946-.15.389-1.835 1.758-3.056 2.482-1.438.853-2.921 1.384-4.654 1.665-1.597.26-2.24.27-3.677.063zm-.252-7.243a7.694 7.694 0 01-1.62-.798C6.838 16.31 6.24 12.205 8.347 9.442c1.067-1.398.63-1.666 5.99 3.687 2.627 2.622 4.759 4.768 4.738 4.768-.02 0-.278-.143-.575-.318l-.538-.318-.742.567c-1.815 1.386-4.052 1.837-5.97 1.203z"/><path fill="#95499c" d="M11.503 26.274C5.439 25.399.926 20.716.163 14.509c-.326-2.656.412-5.724 1.976-8.212.704-1.12 1.587-2.18 1.816-2.18.136 0 3.194 3.053 3.194 3.188 0 .052-.22.372-.49.71-1.275 1.598-1.99 3.899-1.808 5.808.192 2.013.905 3.587 2.298 5.078 2.88 3.081 7.682 3.519 10.963 1 .414-.319.843-.579.953-.579.11 0 .907.712 1.773 1.581l1.574 1.581-.548.57c-1.366 1.416-4.188 2.752-6.666 3.154-1.616.262-2.256.274-3.696.066zm-.252-7.243c-1.771-.585-3.114-1.871-3.807-3.644-.73-1.868-.315-4.55.907-5.87l.526-.57 4.202 4.197c2.31 2.308 4.201 4.273 4.201 4.368 0 .302-.687.83-1.662 1.277-1.249.572-3.064.673-4.367.242z"/><path fill="#91499c" d="M11.503 26.274C5.439 25.399.926 20.716.163 14.509c-.326-2.651.407-5.705 1.973-8.218 1.217-1.954 1.048-1.951 2.945-.046l1.637 1.643-.318.45c-2.95 4.184-1.542 9.975 2.975 12.237 1.558.78 2.718 1.027 4.343.923 1.48-.095 2.827-.533 3.968-1.29l.814-.541 3.395 3.408-.5.42c-1.538 1.295-3.948 2.348-6.216 2.716-1.596.26-2.24.27-3.677.063zm-.252-7.252c-1.757-.563-3.112-1.857-3.807-3.636-.652-1.67-.362-4.263.618-5.526l.275-.355 8.576 8.566-.689.404a6.153 6.153 0 01-4.973.547z"/><path fill="#8d499c" d="M11.503 26.274C5.439 25.399.926 20.716.163 14.509c-.331-2.696.472-5.936 2.075-8.372l.704-1.068 3.343 3.245-.53 1.091C4.138 12.73 4.652 16.23 7.15 18.901c2.522 2.698 6.385 3.394 9.731 1.752l1.106-.542 3.414 3.416-1.071.707c-1.466.966-3.315 1.68-5.109 1.97-1.638.266-2.276.278-3.719.07zm-.252-7.243c-2.255-.745-3.81-2.647-4.18-5.11-.126-.846.107-2.259.533-3.222l.305-.689 4.16 4.173c2.287 2.295 4.217 4.137 4.29 4.093.07-.045.13-.037.13.016s-.41.285-.91.515c-1.208.554-3.044.649-4.328.224z"/><path fill="#89499c" d="M11.503 26.274C5.439 25.399.926 20.716.163 14.509c-.312-2.54.352-5.492 1.775-7.894l.63-1.065L4.21 7.198c.903.907 1.681 1.61 1.73 1.561.047-.048-.118.403-.368 1.001-1.386 3.315-.824 6.572 1.578 9.141 2.421 2.59 6.196 3.353 9.465 1.91l.838-.37 3.465 3.462-1.067.633c-1.455.863-2.933 1.393-4.671 1.675-1.597.26-2.24.27-3.677.063zm-.252-7.252c-3.29-1.053-5.04-4.728-3.8-7.976.165-.434.187-.415 4.206 3.595 2.222 2.218 4.04 4.068 4.04 4.113 0 .044-.369.19-.82.325-1.073.318-2.524.296-3.626-.057z"/><path fill="#7055a3" d="M11.503 26.28c-2.312-.358-4.779-1.425-6.496-2.81-2.09-1.685-3.82-4.392-4.523-7.082-.42-1.602-.465-4.257-.101-5.881.28-1.255 1.076-3.26 1.523-3.841l.29-.377 1.628 1.6c.895.88 1.675 1.572 1.733 1.536.058-.036-.07.447-.287 1.073-.308.894-.393 1.46-.396 2.643-.007 2.336.669 4.036 2.292 5.773 1.098 1.175 2.819 2.147 4.37 2.47 1.16.241 3.179.116 4.32-.268l.87-.293 3.447 3.45-.378.291c-.58.447-2.588 1.246-3.76 1.496-1.423.303-3.381.398-4.532.22zm-.252-7.263c-2.967-.95-4.715-4.058-4.05-7.203.126-.603.133-.607.37-.27.537.768 7.197 7.3 7.454 7.31.152.007.027.109-.278.226-.78.301-2.453.271-3.496-.063z"/><path fill="#83499c" d="M11.78 26.286C5.029 25.36.187 19.987.15 13.381c-.012-2.394.788-5.457 1.756-6.713l.29-.377 1.628 1.6c.895.881 1.675 1.572 1.733 1.536.058-.036-.06.426-.26 1.027-.562 1.674-.631 3.139-.225 4.746.186.735.569 1.722.851 2.195 1.174 1.962 3.35 3.554 5.459 3.992 1.171.244 3.345.114 4.473-.268l.87-.294 3.448 3.45-.378.292c-1.514 1.167-5.62 2.048-8.016 1.719zm-.277-7.188c-2.241-.71-3.704-2.254-4.284-4.517-.18-.702-.225-1.277-.15-1.883.105-.83.366-1.743.387-1.349.017.304 7.263 7.495 7.566 7.508.154.007.03.108-.275.226-.7.27-2.417.278-3.245.015z"/><path fill="#7b499c" d="M11.78 26.286c-5.593-.767-9.851-4.478-11.222-9.781-.71-2.747-.481-5.938.593-8.263l.471-1.02L3.325 8.92c.937.934 1.743 1.66 1.79 1.612.048-.047-.007.396-.12.985-.29 1.5-.268 2.334.1 3.775.742 2.9 3.07 5.255 5.94 6.002 1.038.271 2.984.314 3.95.087l.633-.149 1.78 1.772c1.964 1.956 1.949 1.893.595 2.454-1.643.681-4.502 1.062-6.213.827zm-.277-7.188c-2.349-.745-3.923-2.514-4.363-4.901-.319-1.732-.226-1.681 3.222 1.749 1.76 1.75 3.305 3.219 3.436 3.265.519.184-1.704.075-2.295-.113z"/><path fill="#73489c" d="M11.78 26.286c-5.593-.767-9.851-4.478-11.222-9.781-.619-2.393-.515-5.4.254-7.39l.18-.466 1.78 1.777c.98.978 1.832 1.728 1.893 1.667.06-.061.11.353.11.92 0 1.36.516 3.322 1.151 4.385.281.47.912 1.26 1.402 1.752 1.567 1.58 3.532 2.377 5.91 2.4.7.007 1.175.051 1.056.099-.142.056.423.726 1.653 1.96l1.868 1.874-.465.18c-1.381.534-4.047.832-5.57.623zm-.515-7.272c-.826-.253-1.728-.815-2.424-1.51-.757-.758-1.621-2.304-1.482-2.652.059-.146.086-.136.095.036.017.324 3.52 3.804 4.08 4.052.493.218.342.26-.269.074z"/><path fill="#6b489c" d="M11.78 26.28c-3.497-.455-6.623-2.163-8.735-4.773C.824 18.762-.26 14.919.247 11.589c.124-.813.27-1.522.325-1.577.054-.054.987.788 2.072 1.87 1.085 1.084 1.98 1.865 1.988 1.735.008-.129.108.228.223.795.316 1.57.792 2.67 1.647 3.8 1.306 1.73 3.043 2.814 5.193 3.242.59.118 1.004.22.918.229-.086.008.766.939 1.892 2.068s2.003 2.098 1.948 2.153c-.117.117-2.908.551-3.367.524-.174-.01-.762-.077-1.306-.148z"/><path fill="#5453a2" d="M11.78 26.286c-5.593-.767-9.851-4.478-11.222-9.781C.15 14.924-.03 12.037.252 11.58c.097-.157.76.413 2.486 2.138 1.295 1.293 2.354 2.292 2.354 2.219s.267.386.594 1.022c.72 1.403 2.14 2.875 3.446 3.577.666.357 1.657 1.226 3.43 3.006 1.37 1.378 2.44 2.553 2.378 2.612-.2.19-2.141.272-3.16.132z"/><path fill="#63489c" d="M11.421 26.214C5.485 25.257 1.168 20.883.254 14.9c-.208-1.36-.184-2.996.05-3.397.044-.075 1.14.922 2.434 2.216 1.295 1.293 2.354 2.292 2.354 2.219s.267.386.594 1.022c.72 1.403 2.139 2.875 3.446 3.577.666.357 1.657 1.226 3.429 3.006 1.371 1.378 2.442 2.553 2.38 2.612-.246.232-2.24.266-3.52.06z"/><path fill="#5d489d" d="M11.819 26.274c-5.087-.629-9.404-4.141-10.981-8.936-.454-1.38-.897-4.089-.716-4.381.084-.136 13.439 13.09 13.439 13.307 0 .157-.527.16-1.742.01z"/><path fill="#59489d" d="M10.843 26.118c-.45-.075-1.402-.35-2.118-.611a13.083 13.083 0 01-7.75-7.748c-.441-1.209-.88-3.315-.762-3.665.028-.087 2.83 2.623 6.224 6.02 6.721 6.727 6.44 6.344 4.407 6.005z"/><path fill="#53489d" d="M9.893 25.89c-4.115-1.109-7.477-4.165-8.902-8.092-.249-.686-.503-1.569-.564-1.96l-.112-.714 5.475 5.464c3.011 3.005 5.475 5.482 5.475 5.504 0 .094-.61.005-1.372-.201z"/><path fill="#4b489d" d="M8.073 25.268c-2.199-.914-4.448-2.808-5.777-4.864-.67-1.035-1.566-2.95-1.44-3.077.03-.03 1.94 1.831 4.242 4.136 2.302 2.306 4.116 4.189 4.03 4.185-.087-.004-.562-.175-1.055-.38z"/></g></svg>
