<svg xmlns="http://www.w3.org/2000/svg" viewBox="0.00 0.01 26.45 26.45"><path d="M9.762 26.065c-2.506-.711-4.233-1.743-6.032-3.602-2.605-2.691-3.7-5.44-3.702-9.293C.026 9.316 1.27 6.36 4.01 3.703 5.916 1.856 7.872.792 10.393.231c.923-.206 1.714-.253 3.374-.2 1.92.06 2.337.126 3.648.574 2.16.738 3.517 1.592 5.182 3.259 1.666 1.666 2.519 3.025 3.257 5.186.448 1.311.513 1.729.574 3.65.052 1.66.005 2.453-.2 3.376-.582 2.618-1.792 4.77-3.75 6.667-1.843 1.786-3.599 2.778-6.005 3.393-1.789.457-4.972.423-6.711-.07zm5.99-5.148c1.63-.568 3.478-1.891 3.396-2.43-.064-.419-1.15-1.042-1.444-.829-.12.087-.521.388-.892.668-1.151.872-2.244 1.188-3.889 1.127-1.232-.045-1.573-.124-2.478-.57-1.338-.66-2.65-2.038-3.156-3.318-.512-1.293-.512-3.391 0-4.683.507-1.28 1.818-2.659 3.156-3.318.985-.486 1.155-.518 2.72-.518 1.562 0 1.735.033 2.713.515.575.283 1.112.515 1.193.515.08 0 .392-.255.692-.566l.546-.566-.396-.33c-.564-.468-2.151-1.162-3.134-1.37-2.596-.55-5.405.295-7.314 2.201-.482.481-1.064 1.197-1.295 1.59-1.482 2.532-1.482 5.845 0 8.376 1.003 1.712 3.076 3.226 5.138 3.752 1.114.285 3.265.166 4.445-.246zm5.522-9.004c.883-.883.702-2.42-.348-2.964-.794-.41-1.516-.31-2.184.302-.532.488-.591.622-.591 1.334 0 .83.398 1.47 1.108 1.782.577.254 1.52.042 2.015-.454zm-1.778-.828c-.381-.381-.387-.462-.07-.915.3-.428.722-.452 1.074-.062.36.397.329.754-.09 1.047-.452.318-.533.311-.914-.07z" fill="#f5eaf3"></path><path d="M10.644 26.286c-4.817-1.01-8.66-4.542-10.167-9.346-.324-1.034-.37-1.5-.37-3.717 0-2.216.046-2.682.37-3.716C2.297 3.71 7.278 0 13.244 0c7.425 0 13.214 5.793 13.214 13.223 0 5.933-3.676 10.912-9.415 12.753-.89.285-1.56.365-3.403.406-1.263.028-2.61-.015-2.996-.096zm4.493-5.148c1.23-.321 2.65-1.092 3.55-1.93l.73-.678-.475-.4c-.77-.648-1.06-.646-1.92.013-1.367 1.045-1.988 1.246-3.857 1.252-1.557.005-1.729-.027-2.705-.505-1.303-.638-2.373-1.756-3.039-3.176-.444-.948-.5-1.222-.5-2.49 0-1.265.057-1.545.493-2.475 1.55-3.306 5.154-4.674 8.358-3.174.588.275 1.15.499 1.249.496.099-.002.43-.212.734-.467.701-.585.58-.836-.738-1.543-3.218-1.724-6.96-1.184-9.563 1.381-2.793 2.752-3.248 6.943-1.114 10.248 1.844 2.854 5.53 4.3 8.797 3.448zm5.789-8.868c.55-.284.944-.978.944-1.66 0-1.462-1.524-2.349-2.854-1.66-.873.451-1.208 1.72-.688 2.6.531.9 1.651 1.21 2.598.72zm-1.483-1.132c-.23-.23-.098-.996.2-1.156.612-.327 1.287.336.961.945-.165.308-.925.447-1.16.21z" fill="#f4d7e8"></path><path d="M10.644 26.286c-4.817-1.01-8.66-4.542-10.167-9.346-.324-1.034-.37-1.5-.37-3.717 0-2.216.046-2.682.37-3.716.674-2.148 1.665-3.845 3.182-5.45C5.225 2.403 6.941 1.344 9.366.539c1.247-.414 1.53-.447 3.878-.45 2.454-.005 2.579.01 4.036.513 4.13 1.424 7.155 4.451 8.578 8.583.502 1.459.518 1.583.513 4.04-.004 2.35-.036 2.631-.45 3.88-.805 2.426-1.863 4.143-3.518 5.71-1.577 1.494-3.267 2.49-5.36 3.162-.89.285-1.56.365-3.403.406-1.263.028-2.61-.015-2.996-.096zm4.493-5.148c1.23-.321 2.65-1.092 3.55-1.93l.73-.678-.475-.4c-.77-.648-1.06-.646-1.92.013-1.367 1.045-1.988 1.246-3.857 1.252-1.557.005-1.729-.027-2.705-.505-1.303-.638-2.373-1.756-3.039-3.176-.444-.948-.5-1.222-.5-2.49 0-1.265.057-1.545.493-2.475 1.58-3.37 5.173-4.686 8.489-3.11l1.185.563.57-.47c.315-.26.572-.59.572-.737 0-.315-1.003-.976-2.216-1.46-1.096-.439-3.395-.594-4.61-.313-1.452.336-2.825 1.108-3.952 2.22-2.79 2.756-3.245 6.945-1.112 10.248 1.844 2.854 5.53 4.3 8.797 3.448zm5.782-8.864c.679-.351.951-.843.951-1.715 0-.668-.073-.846-.538-1.311-.465-.466-.643-.539-1.31-.539-.872 0-1.363.273-1.714.952a1.92 1.92 0 002.61 2.613zm-1.409-1.251c-.108-.13-.173-.402-.145-.602.043-.302.148-.366.606-.366.528 0 .554.027.554.555 0 .478-.056.56-.41.602-.224.026-.497-.06-.605-.19z" fill="#e8d8e9"></path><path d="M10.078 26.117c-1.663-.405-3.872-1.512-5.19-2.6C.083 19.551-1.368 12.867 1.38 7.363 3.01 4.097 5.7 1.772 9.208.594 10.646.111 10.82.09 13.244.086c2.453-.003 2.58.013 4.036.515 4.13 1.424 7.155 4.451 8.578 8.583.501 1.458.518 1.584.514 4.04-.003 2.423-.025 2.599-.507 4.038-.836 2.494-2.395 4.762-4.351 6.329-1.327 1.062-3.54 2.145-5.184 2.536-1.79.425-4.483.421-6.252-.01zm5.124-4.967c1.242-.33 2.504-1.015 3.414-1.851.762-.7.788-.75.535-1.03a3.78 3.78 0 00-.733-.569c-.463-.273-.47-.271-1.203.288-2.353 1.799-5.177 1.97-7.488.453-2.026-1.33-3.18-3.956-2.74-6.236.403-2.092 1.567-3.63 3.45-4.561 1.142-.565 1.29-.598 2.72-.598 1.413 0 1.59.038 2.721.578l1.21.578.57-.47c.315-.26.572-.59.572-.737 0-.315-1.003-.976-2.216-1.46-1.08-.432-3.335-.588-4.625-.32-3.112.647-5.75 3.444-6.304 6.686-.691 4.046 1.951 8.135 5.973 9.242 1.024.281 3.1.285 4.144.007zm5.717-8.876c.679-.351.951-.843.951-1.715 0-.668-.073-.846-.538-1.311-.465-.466-.643-.539-1.31-.539-.872 0-1.363.273-1.714.952a1.92 1.92 0 002.61 2.613zm-1.409-1.251c-.108-.13-.173-.402-.145-.602.043-.302.148-.366.606-.366.528 0 .554.027.554.555 0 .478-.056.56-.41.602-.224.026-.497-.06-.605-.19z" fill="#edc2dd"></path><path d="M10.078 26.117c-1.663-.405-3.872-1.512-5.19-2.6C.083 19.551-1.368 12.867 1.38 7.363 3.768 2.579 8.549-.223 13.869.044c2.116.106 3.615.508 5.463 1.466 2.5 1.295 4.324 3.12 5.618 5.621.957 1.85 1.358 3.349 1.464 5.467.319 6.359-3.936 12.068-10.084 13.529-1.79.425-4.483.421-6.252-.01zm5.124-4.967c1.242-.33 2.504-1.015 3.414-1.851.762-.7.788-.75.535-1.03a3.78 3.78 0 00-.733-.569c-.463-.273-.47-.271-1.203.288-2.95 2.255-6.76 1.88-8.94-.882-2.39-3.025-1.503-7.533 1.831-9.306 1.923-1.023 3.957-1.055 5.88-.093.492.246.942.47 1 .496.191.086 1.244-.946 1.244-1.22 0-.353-1.466-1.23-2.696-1.614-.645-.2-1.438-.303-2.355-.303-2.305 0-3.927.644-5.626 2.234A8.332 8.332 0 005.085 11.9c-.691 4.046 1.951 8.135 5.973 9.242 1.024.281 3.1.285 4.144.007zm6.018-9.046c1.605-1.35.232-3.937-1.793-3.377-1.163.321-1.705 1.698-1.116 2.837.51.987 2.041 1.271 2.91.54zm-1.692-1.05c-.453-.454-.036-1.145.632-1.05.67.095.506 1.24-.177 1.24a.743.743 0 01-.455-.19z" fill="#d6cee4"></path><path d="M10.553 26.213c-4.465-.988-8.205-4.216-9.711-8.382-.683-1.887-.87-3.161-.778-5.306C.205 9.207 1.5 6.3 3.913 3.886c2.71-2.713 6.133-4.034 9.956-3.842 2.116.106 3.615.508 5.463 1.466 2.5 1.295 4.324 3.12 5.618 5.621.957 1.85 1.358 3.349 1.464 5.467.329 6.555-4.103 12.254-10.59 13.62-1.34.282-3.986.28-5.271-.004zm4.507-5.004c1.116-.257 2.589-1.031 3.47-1.823.444-.4.808-.81.808-.911 0-.1-.32-.385-.71-.632l-.71-.448-.686.563c-.377.31-1.109.76-1.625 1-.817.382-1.133.44-2.442.44-1.365.002-1.603-.044-2.571-.503C6.64 17.02 5.675 11.912 8.702 8.883c1.974-1.975 4.78-2.428 7.284-1.176.492.246.942.47 1 .496.191.086 1.244-.946 1.244-1.22 0-.153-.366-.488-.862-.788-2.389-1.45-5.484-1.532-8.081-.218-1.08.547-2.909 2.432-3.446 3.554-1.634 3.407-.925 7.22 1.807 9.711 1.027.937 2.141 1.571 3.317 1.888 1.005.27 3.091.31 4.095.08zm6.16-9.105c1.605-1.35.232-3.937-1.793-3.377-1.163.321-1.705 1.698-1.116 2.837.51.987 2.041 1.271 2.91.54zm-1.692-1.05c-.453-.454-.036-1.145.632-1.05.67.095.506 1.24-.177 1.24a.743.743 0 01-.455-.19z" fill="#d1c1dd"></path><path d="M10.549 26.207C4.41 24.857.027 19.473.027 13.285.027 5.655 6.29-.336 13.869.045c2.116.105 3.615.507 5.463 1.465 2.5 1.295 4.324 3.12 5.618 5.621.957 1.85 1.358 3.349 1.464 5.467.33 6.565-4.116 12.272-10.591 13.6-1.451.298-3.942.302-5.274.01zm5.013-5.138c.553-.171 1.362-.534 1.797-.807.888-.556 1.979-1.552 1.979-1.804 0-.092-.32-.368-.71-.615l-.71-.448-.686.563c-.377.31-1.109.76-1.625 1-.817.382-1.133.44-2.442.44-1.366.002-1.602-.044-2.576-.506-5.503-2.608-4.532-10.552 1.44-11.786 1.239-.257 2.68-.037 3.957.601.492.246.942.47 1 .496.191.086 1.244-.946 1.244-1.22 0-.153-.366-.488-.862-.788-2.389-1.45-5.484-1.532-8.081-.218-1.075.544-2.928 2.437-3.45 3.524-1.575 3.278-1.056 6.725 1.404 9.334 1.652 1.753 3.432 2.522 5.867 2.537 1.012.006 1.75-.085 2.454-.303zm5.658-8.965c1.605-1.35.232-3.937-1.793-3.377-1.163.321-1.705 1.698-1.116 2.837.51.987 2.041 1.271 2.91.54zm-1.692-1.05c-.453-.454-.036-1.145.632-1.05.67.095.506 1.24-.177 1.24a.743.743 0 01-.455-.19z" fill="#eab1d3"></path><path d="M10.549 26.207C4.41 24.857.027 19.473.027 13.285c0-9.15 8.99-15.555 17.569-12.514 7.146 2.533 10.678 10.349 7.882 17.441-1.591 4.036-5.283 7.09-9.655 7.986-1.451.298-3.942.302-5.274.01zm5.013-5.138c.553-.171 1.362-.534 1.797-.807.888-.556 1.979-1.552 1.979-1.804 0-.092-.32-.368-.71-.615l-.71-.448-.686.563c-.377.31-1.109.76-1.625 1-.817.382-1.133.44-2.442.44-1.366.002-1.602-.044-2.576-.506C5.1 16.291 6.056 8.34 12.005 7.11c1.248-.257 2.708-.025 4.013.639 1.06.538 1.192.52 1.95-.278l.45-.474-.346-.347c-.595-.594-2.528-1.407-3.76-1.58-2.595-.364-4.982.467-6.911 2.408-2.602 2.617-3.184 6.115-1.57 9.447.534 1.105 2.184 2.847 3.24 3.422 1.967 1.071 4.464 1.35 6.49.722zm5.653-8.96c.923-.777.988-1.985.154-2.874-1.38-1.47-3.822-.043-3.28 1.916.357 1.297 2.092 1.828 3.126.958zm-1.713-1.096c-.42-.507.198-1.285.746-.94.548.346.353 1.17-.277 1.17a.7.7 0 01-.469-.23z" fill="#d5b8d8"></path><path d="M10.549 26.217C5.16 24.977 1.126 20.772.18 15.414-.086 13.9.063 11.197.496 9.68a13.287 13.287 0 017.032-8.328C9.286.509 10.572.17 12.485.047c7.79-.506 14.432 6.141 13.927 13.936-.124 1.914-.462 3.2-1.304 4.96a13.304 13.304 0 01-8.323 7.04c-1.501.435-4.823.56-6.236.234zm4.843-5.092c.472-.14 1.207-.431 1.632-.647.843-.427 2.314-1.717 2.314-2.029 0-.107-.294-.39-.654-.627-.742-.492-.847-.468-2.008.47-1.585 1.28-4.122 1.514-6.142.568-3.869-1.811-4.798-6.979-1.794-9.984 1.961-1.963 4.777-2.4 7.278-1.127 1.06.538 1.192.52 1.95-.278l.45-.474-.346-.347c-.595-.594-2.528-1.407-3.76-1.58-3.04-.427-6.157.943-7.864 3.454-.915 1.346-1.36 2.626-1.468 4.224-.155 2.296.598 4.323 2.26 6.087 1.65 1.75 3.434 2.522 5.856 2.537.883.005 1.767-.09 2.296-.247zm5.823-9.016c.923-.777.988-1.985.154-2.874-1.38-1.47-3.822-.043-3.28 1.916.357 1.297 2.092 1.828 3.126.958zm-1.713-1.096c-.42-.507.198-1.285.746-.94.548.346.353 1.17-.277 1.17a.7.7 0 01-.469-.23z" fill="#c8b8d8"></path><path d="M11.265 26.349c-4.4-.85-7.8-3.31-9.73-7.039C.41 17.135.11 15.847.112 13.223.115 10.648.32 9.717 1.36 7.521c1.288-2.72 3.42-4.852 6.169-6.17C9.286.51 10.572.172 12.485.048c7.79-.506 14.432 6.141 13.927 13.936-.124 1.914-.462 3.2-1.304 4.96-1.649 3.445-4.819 6.084-8.54 7.11-.933.256-4.48.455-5.303.296zm4.109-5.233a10.663 10.663 0 001.643-.634c.849-.43 2.32-1.72 2.32-2.033 0-.196-1.135-1.028-1.403-1.028-.08 0-.49.286-.914.636-1.143.946-2.233 1.32-3.855 1.321-2.159.001-3.993-.945-5.117-2.64-.852-1.284-1.107-2.248-1.025-3.874.084-1.679.601-2.87 1.741-4.012 1.934-1.938 4.766-2.369 7.254-1.103 1.06.538 1.192.52 1.95-.278l.45-.474-.346-.347c-.19-.19-.856-.588-1.48-.883-5.355-2.535-11.658 1.497-11.658 7.456 0 4.084 3.166 7.662 7.2 8.139a7.873 7.873 0 003.24-.246zm5.84-9.007c.924-.777.989-1.985.155-2.874-1.38-1.47-3.822-.043-3.28 1.916.357 1.297 2.092 1.828 3.126.958zm-1.712-1.096c-.42-.507.198-1.285.746-.94.548.346.353 1.17-.277 1.17a.7.7 0 01-.469-.23z" fill="#e998c5"></path><path d="M11.265 26.349c-4.4-.85-7.8-3.31-9.73-7.039C.41 17.135.11 15.847.112 13.223.115 10.648.32 9.717 1.36 7.521 5.179-.548 15.794-2.49 22.296 3.69c6.699 6.368 4.959 17.488-3.354 21.427-.783.371-1.852.792-2.374.936-.933.257-4.48.456-5.303.297zm4.109-5.233a10.663 10.663 0 001.643-.634c.849-.43 2.32-1.72 2.32-2.033 0-.196-1.135-1.028-1.403-1.028-.08 0-.49.286-.914.636-1.143.946-2.233 1.32-3.855 1.321-.992 0-1.563-.085-2.172-.328-1.8-.715-3.18-2.17-3.769-3.974-.42-1.284-.271-3.312.332-4.537 1.2-2.433 3.904-3.875 6.47-3.45.556.092 1.48.402 2.055.687l1.043.52.632-.617c.348-.34.632-.671.632-.737 0-.203-1.35-1.059-2.195-1.392-5.34-2.106-11.26 1.928-11.26 7.673 0 4.084 3.167 7.662 7.201 8.139a7.873 7.873 0 003.24-.246zm5.766-8.936c.5-.394.889-1.096.889-1.604 0-.59-.535-1.422-1.12-1.745-2.028-1.118-3.963 1.779-2.188 3.273.631.531 1.794.568 2.419.076zm-1.638-1.167c-.42-.507.198-1.285.746-.94.548.346.353 1.17-.277 1.17a.7.7 0 01-.469-.23z" fill="#b4aad0"></path><path d="M10.79 26.221C6.033 25.212 2.385 22.056.8 17.578c-2.163-6.109.467-12.892 6.192-15.972 5.02-2.703 11.146-1.869 15.304 2.083 3.598 3.42 4.977 8.454 3.61 13.177-1.338 4.619-4.733 7.885-9.573 9.212-1.226.336-4.264.414-5.543.143zm4.602-5.075c.398-.114 1.102-.399 1.565-.633.897-.456 2.38-1.74 2.38-2.064 0-.196-1.135-1.028-1.403-1.028-.08 0-.49.286-.914.636-.423.35-1.133.773-1.578.94-3.13 1.173-6.431-.152-7.877-3.16-.452-.942-.494-1.165-.494-2.614 0-1.452.042-1.672.504-2.649.866-1.83 2.469-3.058 4.525-3.47 1.217-.243 2.617-.006 3.98.672l1.044.52.632-.617c.348-.34.632-.671.632-.737 0-.203-1.35-1.059-2.195-1.392-2.173-.858-4.462-.75-6.62.31-6.18 3.038-6.195 11.67-.026 14.716 1.924.95 3.864 1.139 5.845.57zm5.748-8.966c.5-.394.889-1.096.889-1.604 0-.59-.535-1.422-1.12-1.745-2.028-1.118-3.963 1.779-2.188 3.273.631.531 1.794.568 2.419.076zm-1.638-1.167c-.42-.507.198-1.285.746-.94.548.346.353 1.17-.277 1.17a.7.7 0 01-.469-.23z" fill="#cf96c5"></path><path d="M10.79 26.221C1.656 24.284-2.749 14.391 1.95 6.368c.793-1.353 3.296-3.78 4.726-4.58C11.88-1.124 18.015-.38 22.288 3.682c4.46 4.24 5.414 10.69 2.383 16.114-.8 1.431-3.224 3.936-4.577 4.73A15.765 15.765 0 0116.4 26.06c-1.286.351-4.305.438-5.61.161zm4.602-5.075c1.58-.453 3.946-2.012 3.946-2.6 0-.297-1.082-1.125-1.47-1.125-.117 0-.408.204-.647.454-.63.657-1.955 1.277-3.159 1.476-2.635.437-5.291-1-6.498-3.514-.45-.941-.493-1.166-.493-2.614 0-1.41.05-1.692.455-2.57a6.035 6.035 0 011.279-1.765c2.081-1.97 4.826-2.395 7.197-1.117.473.255.94.463 1.037.463.097 0 .458-.29.803-.645l.625-.646-.475-.387c-1.051-.858-3.357-1.643-4.827-1.643-.97 0-2.737.451-3.785.967-1.266.622-2.764 2.096-3.452 3.396-2.226 4.208-.625 9.205 3.619 11.3 1.924.95 3.864 1.139 5.845.57zm5.647-8.884c.49-.321.988-1.156.99-1.655 0-.617-.523-1.447-1.12-1.776-1.483-.817-3.37.716-2.845 2.31.432 1.31 1.864 1.85 2.975 1.121zm-1.537-1.249c-.42-.507.198-1.285.746-.94.548.346.353 1.17-.277 1.17a.7.7 0 01-.469-.23z" fill="#d585bb"></path><path d="M10.79 26.221C1.663 24.285-2.765 14.348 1.95 6.377c.724-1.226 2.657-3.233 3.92-4.073C11.094-1.167 17.78-.603 22.296 3.69c5.53 5.257 5.497 13.857-.073 19.13-1.75 1.658-3.412 2.583-5.823 3.241-1.286.351-4.305.438-5.61.161zm4.602-5.075c1.58-.453 3.946-2.012 3.946-2.6 0-.297-1.082-1.125-1.47-1.125-.117 0-.408.204-.647.454-.63.657-1.955 1.277-3.159 1.476-2.635.437-5.291-1-6.498-3.514-.45-.941-.493-1.166-.493-2.614 0-1.41.05-1.692.455-2.57.557-1.207 1.792-2.424 3.066-3.022.808-.378 1.098-.427 2.576-.427 1.559 0 1.732.033 2.71.515.575.283 1.108.512 1.184.509.076-.003.417-.244.757-.535.747-.64.7-.867-.32-1.513-1.934-1.228-4.742-1.56-6.909-.82-7 2.396-7.656 11.952-1.043 15.216 1.924.95 3.864 1.139 5.845.57zm5.519-8.767c.58-.311 1.118-1.144 1.118-1.732 0-1.063-.975-2.094-1.981-2.096-1.05-.001-2.136 1.045-2.134 2.056.001.896 1.164 2.06 2.06 2.061.218 0 .64-.13.937-.289zm-1.332-1.392c-.309-.31-.263-.676.115-.914.548-.345 1.166.433.746.94-.25.3-.543.292-.861-.026z" fill="#ea75b1"></path><path d="M10.79 26.221C1.663 24.285-2.765 14.348 1.95 6.377c.724-1.226 2.657-3.233 3.92-4.073C8.21.75 10.455.08 13.244.104c2.314.02 3.81.375 5.856 1.389 3.411 1.69 5.916 4.797 6.905 8.562.479 1.82.49 4.614.024 6.336-.717 2.658-1.858 4.584-3.806 6.429-1.75 1.657-3.412 2.582-5.823 3.24-1.286.351-4.305.438-5.61.161zm4.602-5.075c1.58-.453 3.946-2.012 3.946-2.6 0-.297-1.082-1.125-1.47-1.125-.117 0-.408.204-.647.454-.63.657-1.955 1.277-3.159 1.476-2.635.437-5.291-1-6.498-3.514-.45-.941-.493-1.166-.493-2.614 0-1.41.05-1.692.455-2.57.557-1.207 1.792-2.424 3.066-3.022.808-.378 1.098-.427 2.576-.427 1.559 0 1.732.033 2.71.515.575.283 1.108.512 1.184.509.076-.003.417-.244.757-.535.747-.64.7-.867-.32-1.513-1.934-1.228-4.742-1.56-6.909-.82-7 2.396-7.656 11.952-1.043 15.216 1.924.95 3.864 1.139 5.845.57zm5.519-8.767c.621-.333 1.118-1.154 1.117-1.846-.001-1-.998-1.982-2.012-1.982-1.02 0-2.104 1.06-2.102 2.056.001.896 1.164 2.06 2.06 2.061.218 0 .64-.13.937-.289zm-1.332-1.392c-.309-.31-.263-.676.115-.914.548-.345 1.166.433.746.94-.25.3-.543.292-.861-.026z" fill="#b094c5"></path><path d="M10.79 26.21C3.625 24.763-1.058 17.953.275 10.92c.986-5.2 4.62-9.088 9.803-10.49 1.72-.465 4.512-.454 6.332.024 3.756.989 6.882 3.513 8.559 6.91 1.012 2.05 1.366 3.547 1.386 5.86.018 2.08-.28 3.558-1.087 5.385-1.356 3.071-4.213 5.767-7.369 6.952-2.227.837-4.955 1.086-7.109.65zm3.983-4.9c1.345-.286 2.504-.84 3.655-1.75 1.098-.867 1.15-1.192.28-1.742-.797-.503-.875-.499-1.532.078-3.062 2.69-7.91 1.6-9.679-2.178-.374-.799-.426-1.106-.426-2.495 0-1.387.052-1.696.424-2.49a6.601 6.601 0 012.959-3.015c.975-.48 1.149-.514 2.71-.514 1.563 0 1.736.033 2.714.515.575.283 1.108.512 1.184.509.076-.003.417-.244.757-.535.747-.64.7-.867-.32-1.513-1.934-1.228-4.742-1.56-6.909-.82-3.436 1.176-5.656 4.296-5.656 7.947 0 3.8 2.754 7.17 6.53 7.991 1.291.281 2.025.284 3.31.011zm6.138-8.93c.621-.334 1.118-1.155 1.117-1.847-.001-1-.998-1.982-2.012-1.982-1.02 0-2.104 1.06-2.102 2.056.001.896 1.164 2.06 2.06 2.061.218 0 .64-.13.937-.289zm-1.332-1.393c-.309-.31-.263-.676.115-.914.548-.345 1.166.433.746.94-.25.3-.543.292-.861-.026z" fill="#9792c4"></path><path d="M10.627 26.141c-5.33-1.125-9.33-5.228-10.352-10.613-.77-4.067.498-8.262 3.434-11.355C5.497 2.29 7.455 1.14 10.079.43c1.72-.465 4.511-.454 6.33.024 3.757.989 6.883 3.513 8.56 6.91 1.012 2.05 1.366 3.547 1.386 5.86.018 2.08-.28 3.558-1.087 5.385-2.459 5.569-8.711 8.785-14.641 7.533zm4.146-4.832c1.345-.285 2.504-.84 3.655-1.749 1.098-.867 1.15-1.192.28-1.742-.797-.503-.875-.499-1.532.078-3.062 2.69-7.91 1.6-9.679-2.178-.374-.799-.426-1.106-.426-2.495 0-1.387.052-1.696.424-2.49a6.601 6.601 0 012.959-3.015c.975-.48 1.149-.514 2.71-.514 1.563 0 1.736.033 2.714.515.575.283 1.108.512 1.184.509.076-.003.417-.244.757-.535.747-.64.7-.867-.32-1.513-1.934-1.228-4.742-1.56-6.909-.82-3.44 1.178-5.656 4.295-5.656 7.959 0 3.793 2.74 7.159 6.49 7.972 1.333.288 2.057.293 3.35.018zm6.138-8.93c.621-.333 1.118-1.154 1.117-1.846-.001-1-.998-1.982-2.012-1.982-1.02 0-2.104 1.06-2.102 2.056.001.896 1.164 2.06 2.06 2.061.218 0 .64-.13.937-.289zm-1.332-1.392c-.309-.31-.263-.676.115-.914.548-.345 1.166.433.746.94-.25.3-.543.292-.861-.026z" fill="#cd70b0"></path><path d="M10.627 26.141c-2.716-.573-5.006-1.854-6.918-3.868C.773 19.18-.496 14.986.275 10.92c.982-5.18 4.638-9.082 9.803-10.463 1.76-.47 4.558-.472 6.332-.004 1.658.438 3.866 1.544 5.112 2.56 2.095 1.71 3.773 4.344 4.485 7.043.468 1.775.466 4.574-.004 6.336-1.38 5.168-5.28 8.827-10.456 9.81-1.677.317-3.222.299-4.92-.06zm4.146-4.832c1.345-.285 2.504-.84 3.655-1.749 1.098-.867 1.15-1.192.28-1.742-.797-.503-.875-.499-1.532.078-3.062 2.69-7.91 1.6-9.679-2.178-.374-.799-.426-1.106-.426-2.495 0-1.387.052-1.696.424-2.49a6.601 6.601 0 012.959-3.015c.975-.48 1.15-.514 2.707-.514 1.566 0 1.727.031 2.68.515.558.283 1.094.515 1.19.515.265 0 1.357-.944 1.357-1.172 0-.336-.663-.844-1.793-1.373-5.433-2.543-11.661 1.532-11.661 7.63 0 3.793 2.74 7.159 6.49 7.972 1.333.288 2.057.293 3.35.018zm6.07-8.868c1.072-.448 1.501-1.866.876-2.893a2.043 2.043 0 00-3.496 0c-.592.972-.218 2.28.808 2.831.65.35 1.089.364 1.812.062zm-1.256-1.447c-.137-.136-.25-.31-.25-.384 0-.204.47-.634.693-.634.25 0 .574.324.574.575 0 .222-.43.692-.633.692-.075 0-.248-.112-.384-.249z" fill="#ac84bc"></path><path d="M10.627 26.141c-2.716-.573-5.006-1.854-6.918-3.868C.773 19.18-.496 14.986.275 10.92c.98-5.165 4.653-9.086 9.803-10.463 1.76-.47 4.558-.472 6.332-.004 1.658.438 3.866 1.544 5.112 2.56 2.095 1.71 3.773 4.344 4.485 7.043.468 1.775.466 4.574-.004 6.336-1.855 6.945-8.551 11.191-15.376 9.75zm5.158-5.08c1.619-.558 3.553-1.94 3.553-2.538 0-.309-1.009-1.102-1.401-1.102-.12 0-.475.224-.787.498-3.003 2.638-7.914 1.516-9.654-2.206-.37-.793-.424-1.104-.424-2.49 0-1.386.053-1.697.424-2.49.59-1.263 1.702-2.397 2.958-3.015.975-.48 1.15-.514 2.707-.514 1.566 0 1.727.031 2.68.515.558.283 1.094.515 1.19.515.265 0 1.357-.944 1.357-1.172 0-.632-2.3-1.796-4.048-2.048-2.617-.377-5.138.489-7.032 2.416-1.64 1.669-2.369 3.455-2.372 5.816-.008 5.587 5.595 9.623 10.849 7.815zm5.058-8.62c1.072-.448 1.501-1.866.876-2.893a2.043 2.043 0 00-3.496 0c-.592.972-.218 2.28.808 2.831.65.35 1.089.364 1.812.062zm-1.256-1.447c-.137-.136-.25-.31-.25-.384 0-.204.47-.634.693-.634.25 0 .574.324.574.575 0 .222-.43.692-.633.692-.075 0-.248-.112-.384-.249z" fill="#e85aa2"></path><path d="M10.627 26.141c-2.716-.573-5.006-1.854-6.918-3.868C.773 19.18-.496 14.986.275 10.92 1.377 5.108 5.835.944 11.808.149c3.592-.479 7.957 1.079 10.69 3.814 2.733 2.735 4.29 7.103 3.812 10.697-1.043 7.845-8.176 13.066-15.683 11.481zm5.158-5.08c1.619-.558 3.553-1.94 3.553-2.538 0-.309-1.009-1.102-1.401-1.102-.12 0-.475.224-.787.498-3.003 2.638-7.914 1.516-9.654-2.206-.37-.793-.424-1.104-.424-2.49 0-1.386.053-1.697.424-2.49.59-1.263 1.702-2.397 2.958-3.015.975-.48 1.15-.514 2.707-.514 1.566 0 1.727.031 2.68.515.558.283 1.094.515 1.19.515.265 0 1.357-.944 1.357-1.172 0-.632-2.3-1.796-4.048-2.048-2.617-.377-5.138.489-7.032 2.416-1.64 1.669-2.369 3.455-2.372 5.816-.008 5.587 5.595 9.623 10.849 7.815zm5.058-8.62c1.072-.448 1.501-1.866.876-2.893a2.043 2.043 0 00-3.496 0c-.592.972-.218 2.28.808 2.831.65.35 1.089.364 1.812.062zm-1.256-1.447c-.137-.136-.25-.31-.25-.384 0-.204.47-.634.693-.634.25 0 .574.324.574.575 0 .222-.43.692-.633.692-.075 0-.248-.112-.384-.249z" fill="#9784bc"></path><path d="M10.922 26.211C3.375 24.777-1.432 17.294.491 9.973 1.898 4.615 6.18.898 11.808.149c3.592-.479 7.957 1.079 10.69 3.814 2.733 2.735 4.29 7.103 3.812 10.697-.888 6.68-5.99 11.426-12.591 11.713-1.009.044-2.023-.015-2.797-.162zm4.842-5.14c1.645-.572 3.574-1.947 3.574-2.548 0-.309-1.009-1.102-1.401-1.102-.12 0-.475.224-.787.498-2.414 2.121-6.326 1.855-8.552-.582-1.131-1.238-1.516-2.3-1.522-4.196-.005-1.386.036-1.593.508-2.551.618-1.256 1.75-2.368 3.014-2.961.801-.376 1.095-.425 2.567-.425 1.561 0 1.723.032 2.676.515.558.283 1.094.515 1.19.515.265 0 1.357-.944 1.357-1.172 0-.632-2.3-1.796-4.048-2.048-4.099-.59-8.106 2.07-9.176 6.092-.264.992-.294 3.075-.058 4.097.423 1.838 1.865 3.86 3.513 4.927.842.544 2.27 1.114 3.28 1.31.8.154 2.947-.05 3.865-.37zm5.08-8.63c1.07-.448 1.5-1.866.875-2.893a2.043 2.043 0 00-3.496 0c-.592.972-.218 2.28.808 2.831.65.35 1.089.364 1.812.062zm-1.257-1.447c-.137-.136-.25-.31-.25-.384 0-.204.47-.634.693-.634.25 0 .574.324.574.575 0 .222-.43.692-.633.692-.075 0-.248-.112-.384-.249z" fill="#aa72b2"></path><path d="M10.922 26.211c-4.49-.853-8.342-4.023-9.946-8.183-2.757-7.155 1.1-15.11 8.425-17.372 1.892-.584 3.526-.72 5.387-.445C21 1.128 25.33 5.462 26.248 11.678c.195 1.332.207 1.89.062 2.982-.744 5.597-4.483 9.91-9.819 11.328-1.583.42-4.016.519-5.569.223zm4.966-5.193c1.289-.468 2.484-1.219 3.152-1.98l.502-.572-.538-.45c-.832-.697-1.109-.701-1.983-.03-1.375 1.056-1.986 1.255-3.859 1.256-1.56 0-1.73-.032-2.718-.519-4.682-2.304-4.516-8.946.28-11.16.653-.3 1.047-.359 2.44-.359 1.562 0 1.724.032 2.677.515.558.283 1.094.515 1.19.515.265 0 1.357-.944 1.357-1.172 0-.632-2.3-1.796-4.048-2.048-4.146-.598-8.31 2.213-9.235 6.234-.21.912-.21 3.04 0 3.955.424 1.838 1.866 3.86 3.514 4.927.842.544 2.27 1.114 3.28 1.31.89.172 2.954-.046 3.99-.422zm4.955-8.577c1.072-.448 1.501-1.866.876-2.893a2.043 2.043 0 00-3.496 0c-.592.972-.218 2.28.808 2.831.65.35 1.089.364 1.812.062zm-1.256-1.447c-.137-.136-.25-.31-.25-.384 0-.204.47-.634.693-.634.25 0 .574.324.574.575 0 .222-.43.692-.633.692-.075 0-.248-.112-.384-.249z" fill="#e94a9a"></path><path d="M10.922 26.211c-4.49-.853-8.342-4.023-9.946-8.183C-1.78 10.878 2.077 2.918 9.391.659c2.55-.787 5.101-.767 7.723.061l1.179.373 3.534 3.53 3.534 3.532.375 1.188c.571 1.811.782 3.809.567 5.377-.76 5.564-4.498 9.856-9.812 11.268-1.583.42-4.016.519-5.569.223zm4.966-5.193c1.289-.468 2.484-1.219 3.152-1.98l.502-.572-.538-.45c-.832-.697-1.109-.701-1.983-.03-1.375 1.056-1.986 1.255-3.859 1.256-1.56 0-1.73-.032-2.718-.519-4.682-2.304-4.516-8.946.28-11.16.653-.3 1.047-.359 2.44-.359 1.562 0 1.724.032 2.677.515.558.283 1.094.515 1.19.515.265 0 1.357-.944 1.357-1.172 0-.632-2.3-1.796-4.048-2.048-4.146-.598-8.31 2.213-9.235 6.234-.21.912-.21 3.04 0 3.955.424 1.838 1.866 3.86 3.514 4.927.842.544 2.27 1.114 3.28 1.31.89.172 2.954-.046 3.99-.422zm4.955-8.577c1.072-.448 1.501-1.866.876-2.893a2.043 2.043 0 00-3.496 0c-.592.972-.218 2.28.808 2.831.65.35 1.089.364 1.812.062zm-1.256-1.447c-.137-.136-.25-.31-.25-.384 0-.204.47-.634.693-.634.25 0 .574.324.574.575 0 .222-.43.692-.633.692-.075 0-.248-.112-.384-.249z" fill="#cb59a3"></path><path d="M10.922 26.211c-3.541-.673-6.743-2.798-8.692-5.768C-2.123 13.807.398 4.779 7.546 1.413 9.969.27 12.472-.138 14.852.222c3.04.459 2.996.43 6.983 4.411l3.526 3.52.374 1.189c.62 1.969.775 3.677.5 5.495-.393 2.602-1.15 4.494-2.535 6.337-1.262 1.681-3.317 3.312-5.23 4.15-2.173.954-5.278 1.318-7.548.886zm4.966-5.193c1.289-.468 2.484-1.219 3.152-1.98l.502-.572-.538-.45c-.832-.697-1.109-.701-1.983-.03-1.375 1.056-1.986 1.255-3.859 1.256-1.56 0-1.73-.032-2.718-.519-4.682-2.304-4.516-8.946.28-11.16.645-.297 1.05-.359 2.365-.359 1.47 0 1.663.038 2.631.515.575.283 1.175.515 1.335.515.369 0 1.333-.927 1.333-1.282 0-.32-1.162-1.093-2.374-1.578-1.224-.49-3.563-.603-4.83-.235-3.042.885-5.429 3.283-6.08 6.109-.21.912-.209 3.04.002 3.955.423 1.838 1.865 3.86 3.513 4.927.842.544 2.27 1.114 3.28 1.31.89.172 2.954-.046 3.99-.422zm5.027-8.584c.764-.395 1.114-.98 1.114-1.864 0-.706-.065-.855-.615-1.404-.554-.555-.694-.615-1.427-.615-.697 0-.892.073-1.38.52-1.757 1.612.194 4.457 2.308 3.363zm-1.313-1.455c-.21-.21-.099-.679.2-.838a.465.465 0 01.638.638c-.16.299-.628.41-.838.2z" fill="#e34a9a"></path><path d="M10.922 26.211c-2.592-.492-4.814-1.633-6.73-3.454-5.251-4.991-5.517-12.981-.613-18.438C6.238 1.359 10.662-.305 14.584.178l1.499.184 5.006 5.005 5.007 5.005.185 1.505c.48 3.92-1.18 8.344-4.141 11.025-.984.891-2.583 1.947-3.67 2.424-2.173.953-5.278 1.317-7.548.885zm4.966-5.193c1.289-.468 2.484-1.219 3.152-1.98l.502-.572-.538-.45c-.832-.697-1.109-.701-1.983-.03-1.375 1.056-1.986 1.255-3.859 1.256-1.56 0-1.73-.032-2.718-.519-4.682-2.304-4.516-8.946.28-11.16.645-.297 1.05-.359 2.365-.359 1.47 0 1.663.038 2.631.515.575.283 1.175.515 1.335.515.369 0 1.333-.927 1.333-1.282 0-.32-1.162-1.093-2.374-1.578-1.224-.49-3.563-.603-4.83-.235-3.042.885-5.429 3.283-6.08 6.109-.21.912-.209 3.04.002 3.955.423 1.838 1.865 3.86 3.513 4.927.842.544 2.27 1.114 3.28 1.31.89.172 2.954-.046 3.99-.422zm5.027-8.584c.764-.395 1.114-.98 1.114-1.864 0-.706-.065-.855-.615-1.404-.554-.555-.694-.615-1.427-.615-.697 0-.892.073-1.38.52-1.757 1.612.194 4.457 2.308 3.363zm-1.313-1.455c-.21-.21-.099-.679.2-.838a.465.465 0 01.638.638c-.16.299-.628.41-.838.2z" fill="#db4a9a"></path><path d="M10.922 26.211c-4.49-.853-8.342-4.023-9.946-8.183-2.57-6.668.615-14.174 7.168-16.895C9.52.56 11.435.146 12.886.106l1.066-.029 6.17 6.171c4.056 4.057 6.201 6.314 6.261 6.588.126.573-.31 3.333-.721 4.58-1.155 3.487-3.838 6.439-7.192 7.91-2.173.953-5.278 1.317-7.548.885zm4.966-5.193c1.289-.468 2.484-1.219 3.152-1.98l.502-.572-.538-.45c-.832-.697-1.109-.701-1.983-.03-1.375 1.056-1.986 1.255-3.859 1.256-1.56 0-1.73-.032-2.718-.519-4.682-2.304-4.516-8.946.28-11.16.645-.297 1.05-.359 2.365-.359 1.47 0 1.663.038 2.631.515.575.283 1.175.515 1.335.515.369 0 1.333-.927 1.333-1.282 0-.32-1.162-1.093-2.374-1.578-1.224-.49-3.563-.603-4.83-.235-3.042.885-5.429 3.283-6.08 6.109-.21.912-.209 3.04.002 3.955.423 1.838 1.865 3.86 3.513 4.927.842.544 2.27 1.114 3.28 1.31.89.172 2.954-.046 3.99-.422zm5.027-8.584c.764-.395 1.114-.98 1.114-1.864 0-.706-.065-.855-.615-1.404-.554-.555-.694-.615-1.427-.615-.697 0-.892.073-1.38.52-1.757 1.612.194 4.457 2.308 3.363zm-1.313-1.455c-.21-.21-.099-.679.2-.838a.465.465 0 01.638.638c-.16.299-.628.41-.838.2z" fill="#d34a9a"></path><path d="M10.922 26.211c-2.592-.492-4.814-1.633-6.73-3.454C.678 19.417-.713 14.56.51 9.901 1.782 5.054 5.743 1.348 10.69.375l1.385-.272 4.232 4.224 4.231 4.224h-.681c-1.433 0-2.395 1.677-1.716 2.99.96 1.858 3.888 1.22 3.888-.846v-.665l2.155 2.177 2.156 2.177-.177 1.017c-.77 4.427-3.662 8.157-7.693 9.925-2.173.953-5.278 1.317-7.548.885zm4.966-5.193c1.289-.468 2.484-1.219 3.152-1.98l.502-.572-.538-.45c-.832-.697-1.109-.701-1.983-.03-1.375 1.056-1.986 1.255-3.859 1.256-1.56 0-1.73-.032-2.718-.519-4.682-2.304-4.516-8.946.28-11.16.645-.297 1.05-.359 2.365-.359 1.47 0 1.663.038 2.631.515.575.283 1.175.515 1.335.515.369 0 1.333-.927 1.333-1.282 0-.32-1.162-1.093-2.374-1.578-1.224-.49-3.563-.603-4.83-.235-3.042.885-5.429 3.283-6.08 6.109-.21.912-.209 3.04.002 3.955.423 1.838 1.865 3.86 3.513 4.927.842.544 2.27 1.114 3.28 1.31.89.172 2.954-.046 3.99-.422zm3.714-10.039c-.21-.21-.099-.679.2-.838a.465.465 0 01.638.638c-.16.299-.628.41-.838.2z" fill="#9170b1"></path><path d="M10.922 26.211c-2.592-.492-4.814-1.633-6.73-3.454-4.198-3.99-5.284-9.986-2.761-15.236C3.24 3.751 6.567 1.186 10.69.375l1.385-.272 4.232 4.224 4.231 4.224h-.681c-1.433 0-2.395 1.677-1.716 2.99.96 1.858 3.888 1.22 3.888-.846v-.665l2.155 2.177 2.156 2.177-.177 1.017c-.74 4.25-3.27 7.672-7.063 9.553-2.572 1.275-5.62 1.743-8.178 1.257zm4.104-4.91c1.392-.33 2.76-1.063 3.724-1.999l.825-.8-.554-.468c-.848-.716-1.121-.723-2-.048-1.377 1.057-1.987 1.256-3.856 1.256-1.464 0-1.766-.05-2.533-.413-1.348-.64-2.28-1.57-2.964-2.955-.559-1.13-.597-1.302-.597-2.65 0-1.35.038-1.521.597-2.652.684-1.385 1.616-2.314 2.964-2.954.759-.36 1.075-.414 2.457-.414 1.47 0 1.663.038 2.631.515.575.283 1.175.515 1.335.515.369 0 1.333-.927 1.333-1.282 0-.32-1.162-1.093-2.374-1.578-1.224-.49-3.563-.603-4.83-.235-3.82 1.112-6.31 4.3-6.31 8.084 0 5.304 5.01 9.29 10.152 8.077zm4.576-10.322c-.21-.21-.099-.679.2-.838a.465.465 0 01.638.638c-.16.299-.628.41-.838.2z" fill="#cb499a"></path><path d="M10.922 26.211c-2.592-.492-4.814-1.633-6.73-3.454-2.126-2.02-3.43-4.477-3.944-7.426-.773-4.44 1.117-9.376 4.718-12.32C6.15 2.043 8.43.889 9.777.577l.966-.223L13.2 2.798c1.351 1.345 2.341 2.397 2.2 2.338-.141-.059-.938-.143-1.77-.187-2.312-.123-4.275.572-6 2.122a8.245 8.245 0 000 12.304c3.193 2.87 8.119 2.839 11.12-.073l.825-.8-.554-.468c-.848-.716-1.121-.723-2-.048-1.377 1.057-1.987 1.256-3.856 1.256-1.464 0-1.766-.05-2.533-.413-1.348-.64-2.28-1.57-2.964-2.955-.559-1.13-.597-1.302-.597-2.65 0-1.35.038-1.521.597-2.652.684-1.385 1.616-2.314 2.964-2.954.759-.36 1.075-.414 2.457-.414 1.47 0 1.663.038 2.631.515 1.212.598 1.562.633 1.954.2.282-.312.29-.31.855.197l.571.512-.53.482c-.41.373-.548.643-.61 1.202-.242 2.136 2.342 3.204 3.699 1.528l.29-.359 2.083 2.138 2.082 2.138-.29 1.1c-1.414 5.35-6.408 9.249-12.184 9.516-.945.043-1.955-.017-2.718-.162zm8.636-15.352c-.157-.41.06-.724.498-.724.355 0 .404.059.36.435-.057.502-.694.716-.858.289z" fill="#ae57a2"></path><path d="M10.922 26.211c-2.592-.492-4.814-1.633-6.73-3.454-2.126-2.02-3.43-4.477-3.944-7.426-.745-4.28 1.004-9.12 4.309-11.926 1.308-1.11 2.928-2.07 4.286-2.536 1.9-.654 1.636-.771 4.376 1.95 1.343 1.334 2.326 2.377 2.183 2.318-.142-.06-.935-.143-1.762-.186-2.455-.126-4.341.526-5.987 2.072-3.704 3.477-3.715 9.035-.024 12.352 2.575 2.315 6.21 2.791 9.317 1.222 1.154-.583 2.612-1.892 2.48-2.226-.117-.294-1.106-.95-1.43-.95-.133 0-.676.32-1.21.713-1.264.932-2.344 1.244-4.003 1.157-2.335-.124-4.056-1.273-5.115-3.417-.558-1.13-.597-1.303-.597-2.643.001-1.28.055-1.547.503-2.495A6.255 6.255 0 0110.6 7.708c.959-.453 1.206-.501 2.567-.502 1.381-.001 1.594.041 2.552.513 1.214.598 1.563.633 1.955.2.282-.312.29-.31.855.197l.571.512-.53.482c-1.348 1.225-.43 3.558 1.401 3.558.597 0 1.466-.45 1.75-.905.155-.25.418-.037 2.26 1.824 2.336 2.362 2.247 2.137 1.607 4.03-.734 2.171-2.54 4.669-4.386 6.066-2.845 2.153-6.946 3.162-10.28 2.528zm8.636-15.352c-.157-.41.06-.724.498-.724.355 0 .404.059.36.435-.057.502-.694.716-.858.289z" fill="#c3499a"></path><path d="M10.922 26.211c-2.592-.492-4.814-1.633-6.73-3.454-2.126-2.02-3.43-4.477-3.944-7.426-.736-4.229.976-9.044 4.214-11.851C5.652 2.448 7.684 1.22 8.646.95l.738-.206 2.101 2.082 2.102 2.082h-.782c-1.79 0-3.762.81-5.152 2.115-3.704 3.477-3.715 9.035-.024 12.352 2.575 2.315 6.21 2.791 9.317 1.222 1.154-.583 2.612-1.892 2.48-2.226-.117-.294-1.106-.95-1.43-.95-.133 0-.676.32-1.21.713-1.264.932-2.344 1.244-4.003 1.157-2.335-.124-4.056-1.273-5.115-3.417-.558-1.13-.597-1.303-.597-2.643.001-1.28.055-1.547.503-2.495A6.255 6.255 0 0110.6 7.708c.959-.453 1.206-.501 2.567-.502 1.388-.001 1.591.04 2.577.525 1.453.716 2.473 1.605 2.312 2.016-.668 1.71 1.058 3.457 2.753 2.787.222-.087.788.396 2.596 2.22l2.31 2.33-.206.74c-.27.963-1.497 2.996-2.528 4.187-2.82 3.256-7.834 5.003-12.059 4.2z" fill="#bb499a"></path><path d="M10.922 26.211c-2.592-.492-4.814-1.633-6.73-3.454-2.126-2.02-3.43-4.477-3.944-7.426-.734-4.215.977-9.045 4.19-11.83.936-.812 3.114-2.236 3.42-2.236.175 0 3.724 3.495 3.724 3.667 0 .055-.232.143-.515.196-1.646.31-3.735 1.868-4.897 3.654-2.183 3.355-1.56 7.88 1.46 10.593 2.574 2.315 6.21 2.791 9.316 1.222 1.154-.583 2.612-1.892 2.48-2.226-.117-.294-1.106-.95-1.43-.95-.133 0-.676.32-1.21.713-1.264.932-2.344 1.244-4.003 1.157-2.335-.124-4.056-1.273-5.115-3.417-.558-1.13-.597-1.303-.597-2.643.001-1.28.055-1.547.503-2.495 1.16-2.456 3.805-3.927 6.342-3.529.414.065.655.153.537.196-.139.05.396.691 1.497 1.796 1.165 1.17 1.752 1.657 1.835 1.525.076-.12.124-.03.126.237.003.614.843 1.515 1.534 1.644.306.058.481.152.388.21-.097.06 1.016 1.289 2.596 2.868 1.521 1.52 2.765 2.839 2.765 2.931 0 .305-1.424 2.485-2.234 3.42-2.798 3.232-7.827 4.977-12.038 4.177z" fill="#776fb1"></path><path d="M11.503 26.273C5.483 25.404.993 20.788.173 14.625c-.52-3.916 1.237-8.5 4.265-11.124.936-.812 3.114-2.236 3.42-2.236.175 0 3.724 3.495 3.724 3.667 0 .055-.232.143-.515.196-1.646.31-3.735 1.868-4.897 3.654-2.65 4.072-1.109 9.663 3.256 11.81 2.542 1.25 5.052 1.252 7.52.005 1.154-.582 2.612-1.892 2.48-2.226-.117-.294-1.106-.95-1.43-.95-.133 0-.676.32-1.21.713-1.264.932-2.344 1.244-4.003 1.157-2.335-.124-4.056-1.273-5.115-3.417-.558-1.13-.597-1.303-.597-2.642.001-1.28.055-1.548.503-2.496 1.16-2.455 3.805-3.927 6.342-3.529.414.065.655.153.537.196-.139.05.396.691 1.497 1.796 1.165 1.17 1.752 1.658 1.835 1.526.076-.12.124-.03.126.236.003.614.843 1.515 1.534 1.644.306.058.481.152.388.21-.097.06 1.016 1.289 2.596 2.868 1.521 1.52 2.765 2.84 2.765 2.931 0 .092-.323.693-.718 1.334-2.198 3.566-5.227 5.6-9.333 6.268-1.56.254-2.208.264-3.64.057z" fill="#b5489a"></path><path d="M11.503 26.273C5.483 25.404.993 20.788.173 14.625c-.52-3.908 1.24-8.509 4.251-11.11C5.45 2.63 7.031 1.582 7.343 1.582c.213 0 3.606 3.317 3.606 3.526 0 .064-.09.117-.198.117-.503 0-2.273 1.022-3.076 1.777-1.843 1.73-2.802 3.863-2.798 6.221.005 3.178 1.74 5.987 4.549 7.369 2.542 1.25 5.052 1.252 7.52.005 1.154-.582 2.612-1.892 2.48-2.226-.117-.294-1.106-.95-1.43-.95-.133 0-.676.32-1.21.713-1.264.932-2.344 1.244-4.003 1.157-2.335-.124-4.056-1.273-5.115-3.417-.558-1.13-.597-1.303-.597-2.642.001-1.28.055-1.548.503-2.496.893-1.888 2.77-3.298 4.702-3.533l.81-.099 5.856 5.872c3.221 3.23 5.879 5.975 5.906 6.1.028.126-.213.643-.535 1.148-2.134 3.35-5.187 5.345-9.17 5.992-1.56.254-2.208.264-3.64.057z" fill="#b1489a"></path><path d="M11.503 26.273C5.483 25.404.993 20.788.173 14.625c-.41-3.08.596-6.667 2.627-9.37.788-1.05 2.536-2.622 3.48-3.13l.554-.3L8.57 3.558l1.736 1.732-.981.524c-1.869 1-3.482 2.972-4.11 5.028-1.167 3.82.635 7.992 4.21 9.75 2.543 1.25 5.053 1.253 7.521.006 1.154-.582 2.612-1.892 2.48-2.226-.117-.294-1.106-.95-1.43-.95-.133 0-.676.32-1.21.713-1.264.932-2.344 1.244-4.003 1.157-2.335-.124-4.056-1.273-5.115-3.417-.558-1.13-.597-1.303-.597-2.642.001-1.28.055-1.548.503-2.496.276-.585.829-1.388 1.23-1.79.771-.772 2.43-1.662 3.095-1.662.311 0 1.728 1.333 6.566 6.175l6.17 6.175-.3.557c-.508.945-2.079 2.694-3.126 3.482-1.833 1.379-3.688 2.157-6.066 2.543-1.56.254-2.208.264-3.64.057z" fill="#ad489a"></path><path d="M11.503 26.273C5.483 25.404.993 20.788.173 14.625c-.531-3.994 1.264-8.572 4.41-11.242 1.693-1.437 1.491-1.466 3.45.489L9.73 5.568l-.697.393c-1.63.918-3.235 2.97-3.819 4.88-1.167 3.82.635 7.992 4.21 9.75 2.543 1.25 5.053 1.253 7.521.006 1.154-.582 2.612-1.892 2.48-2.226-.117-.294-1.106-.95-1.43-.95-.133 0-.676.32-1.21.713-1.264.932-2.344 1.244-4.003 1.157-2.335-.124-4.056-1.273-5.115-3.417-.558-1.13-.597-1.303-.597-2.642.001-1.28.055-1.548.503-2.496.567-1.199 1.592-2.312 2.603-2.829.859-.438 1.563-.645 1.563-.46 0 .078 2.823 2.964 6.274 6.413 7.14 7.136 6.578 6.244 5.064 8.03-1.973 2.327-4.665 3.795-7.935 4.326-1.56.254-2.208.264-3.64.057z" fill="#a9489a"></path><path d="M11.503 26.273C5.483 25.404.993 20.788.173 14.625c-.52-3.91 1.249-8.53 4.251-11.104.498-.427 1-.832 1.117-.9.144-.085.748.406 1.92 1.561 1.603 1.582 1.688 1.696 1.376 1.864-.636.34-2.056 1.797-2.667 2.736-2.65 4.072-1.109 9.663 3.256 11.81 2.542 1.25 5.052 1.252 7.52.005 1.154-.582 2.612-1.892 2.48-2.226-.117-.294-1.106-.95-1.43-.95-.133 0-.676.32-1.21.713-1.264.932-2.344 1.244-4.003 1.157-2.335-.124-4.056-1.273-5.115-3.417-.558-1.13-.597-1.303-.597-2.642.001-1.28.055-1.548.503-2.496.565-1.194 1.591-2.312 2.592-2.823l.672-.343 6.545 6.548c3.6 3.602 6.545 6.598 6.545 6.659 0 .278-1.833 2.23-2.725 2.9-1.827 1.375-3.685 2.153-6.06 2.539-1.56.254-2.208.264-3.64.057z" fill="#8f57a3"></path><path d="M11.503 26.273C5.439 25.398.926 20.715.163 14.508-.164 11.842.57 8.804 2.16 6.254c.737-1.183 2.336-2.952 3.155-3.489l.426-.28 1.711 1.688L9.162 5.86l-.5.31c-.87.538-2.404 2.275-2.93 3.318C4.13 12.661 4.672 16.25 7.15 18.9c3.074 3.289 8.282 3.529 11.49.53.98-.915.996-1.098.143-1.653-.719-.467-.943-.45-1.664.121-2.14 1.696-5.08 1.869-7.337.431-1.928-1.228-3.06-3.814-2.647-6.05.356-1.927 1.51-3.59 3.031-4.366l.672-.343 6.572 6.575 6.571 6.576-.283.432c-.539.824-2.304 2.423-3.49 3.163a13.273 13.273 0 01-5.009 1.891c-1.616.262-2.256.274-3.696.066z" fill="#a5489a"></path><path d="M11.503 26.273C5.439 25.398.926 20.715.163 14.508c-.448-3.65 1.057-7.774 3.863-10.582l1.109-1.109 1.693 1.69 1.694 1.69-1.07 1.032C4.06 10.506 3.932 15.46 7.15 18.9c3.074 3.289 8.282 3.529 11.49.53.98-.915.996-1.098.143-1.653-.719-.467-.943-.45-1.664.121-2.713 2.15-6.656 1.778-8.71-.823-2.141-2.71-1.616-6.868 1.106-8.756l.663-.46 6.734 6.738 6.733 6.738-1.11 1.11a13.358 13.358 0 01-7.336 3.762c-1.616.262-2.256.274-3.696.066z" fill="#a1489b"></path><path d="M11.503 26.273C5.439 25.398.926 20.715.163 14.508c-.31-2.533.352-5.493 1.766-7.879.724-1.221 2.092-2.908 2.48-3.057.198-.076.699.326 1.895 1.519L7.93 6.712l-.847.89C5.02 9.765 4.293 12.973 5.24 15.73c.473 1.375.91 2.102 1.909 3.17 3.115 3.332 8.398 3.53 11.58.434l.92-.894 1.67 1.677c1.231 1.236 1.645 1.749 1.569 1.946-.15.389-1.835 1.758-3.055 2.482-1.439.853-2.922 1.384-4.654 1.665-1.597.26-2.24.27-3.677.063zm-.252-7.243a7.694 7.694 0 01-1.62-.798C6.838 16.309 6.24 12.204 8.348 9.44c1.066-1.397.63-1.665 5.99 3.688 2.626 2.622 4.758 4.768 4.738 4.768-.02 0-.28-.143-.575-.318l-.539-.318-.742.566c-1.815 1.387-4.051 1.838-5.97 1.204z" fill="#9b499b"></path><path d="M11.503 26.273C5.439 25.398.926 20.715.163 14.508c-.326-2.656.412-5.724 1.976-8.212.705-1.12 1.587-2.18 1.817-2.18.135 0 3.194 3.053 3.194 3.188 0 .052-.221.372-.491.71-1.274 1.598-1.99 3.899-1.808 5.808.193 2.013.905 3.587 2.299 5.078 2.88 3.081 7.681 3.519 10.962 1 .415-.319.843-.579.953-.579.11 0 .908.712 1.774 1.581l1.574 1.581-.548.57c-1.367 1.416-4.188 2.752-6.666 3.154-1.616.262-2.256.274-3.696.066zm-.252-7.243c-1.771-.585-3.114-1.871-3.807-3.644-.729-1.868-.315-4.55.907-5.87l.526-.57 4.202 4.197c2.31 2.308 4.201 4.273 4.201 4.368 0 .302-.686.83-1.662 1.277-1.249.572-3.064.673-4.367.242z" fill="#95499c"></path><path d="M11.503 26.273C5.439 25.398.926 20.715.163 14.508c-.325-2.651.408-5.705 1.974-8.219 1.216-1.953 1.048-1.95 2.945-.045l1.636 1.643-.318.45c-2.95 4.184-1.542 9.975 2.976 12.237 1.558.78 2.717 1.027 4.343.923 1.48-.095 2.827-.533 3.967-1.29l.814-.541 1.698 1.703 1.697 1.704-.5.421c-1.538 1.295-3.948 2.348-6.215 2.716-1.597.26-2.24.27-3.677.063zm-.252-7.252c-1.757-.563-3.112-1.856-3.807-3.635-.652-1.67-.362-4.264.618-5.527l.275-.354 4.288 4.283 4.288 4.282-.689.404a6.153 6.153 0 01-4.973.547z" fill="#91499c"></path><path d="M11.503 26.273C5.439 25.398.926 20.715.163 14.508c-.33-2.696.472-5.936 2.076-8.372l.703-1.068 1.672 1.623 1.672 1.622-.531 1.091C4.138 12.728 4.652 16.23 7.15 18.9c2.523 2.699 6.385 3.394 9.732 1.752l1.105-.542 1.708 1.708 1.707 1.708-1.072.707c-1.466.966-3.315 1.68-5.108 1.97-1.639.266-2.276.278-3.72.07zm-.252-7.243c-2.255-.745-3.81-2.647-4.18-5.11-.126-.846.108-2.259.534-3.222l.304-.689 4.16 4.173c2.287 2.295 4.217 4.137 4.29 4.092.071-.044.13-.036.13.017 0 .054-.41.285-.91.515-1.208.554-3.044.649-4.328.224z" fill="#8d499c"></path><path d="M11.503 26.273C5.439 25.398.926 20.715.163 14.508c-.312-2.54.352-5.492 1.775-7.894l.631-1.065 1.642 1.648c.903.907 1.68 1.61 1.729 1.562.048-.049-.118.402-.368 1-1.386 3.315-.824 6.572 1.578 9.141 2.422 2.59 6.196 3.353 9.465 1.91l.838-.369 1.733 1.73 1.733 1.73-1.068.634c-1.455.863-2.933 1.393-4.671 1.675-1.597.26-2.24.27-3.677.063zm-.252-7.252c-3.29-1.053-5.04-4.728-3.8-7.976.165-.434.187-.415 4.206 3.595 2.222 2.218 4.04 4.068 4.04 4.113 0 .044-.369.19-.82.324-1.073.32-2.524.297-3.626-.056z" fill="#89499c"></path><path d="M11.503 26.283c-2.312-.358-4.779-1.425-6.496-2.81-2.09-1.685-3.82-4.392-4.523-7.082-.42-1.602-.465-4.257-.102-5.881.281-1.255 1.077-3.26 1.524-3.841l.29-.377 1.628 1.6c.895.88 1.675 1.572 1.733 1.536.058-.036-.07.447-.287 1.073-.308.894-.393 1.46-.396 2.643-.007 2.336.669 4.037 2.292 5.773 1.098 1.175 2.819 2.148 4.37 2.47 1.16.242 3.179.116 4.32-.268l.87-.293 1.724 1.725 1.723 1.725-.378.291c-.58.447-2.588 1.246-3.76 1.496-1.423.303-3.381.399-4.532.22zm-.252-7.262c-2.967-.95-4.715-4.059-4.05-7.203.127-.603.133-.608.37-.27.537.767 7.197 7.299 7.454 7.31.152.007.027.108-.277.226-.782.3-2.454.27-3.497-.063z" fill="#7055a3"></path><path d="M11.78 26.287C5.03 25.36.188 19.987.15 13.382.138 10.988.94 7.925 1.906 6.669l.29-.377 1.628 1.6c.895.88 1.675 1.572 1.733 1.536.058-.036-.059.426-.26 1.026-.561 1.675-.63 3.14-.224 4.747.185.734.568 1.722.85 2.195 1.174 1.962 3.35 3.554 5.459 3.992 1.172.244 3.346.114 4.474-.268l.87-.294 1.724 1.725 1.723 1.725-.378.291c-1.514 1.168-5.619 2.048-8.015 1.72zm-.277-7.188c-2.24-.71-3.704-2.254-4.283-4.518-.18-.701-.226-1.276-.15-1.882.104-.831.365-1.743.386-1.35.017.305 7.263 7.496 7.566 7.51.154.006.03.107-.274.225-.7.27-2.418.278-3.245.015z" fill="#83499c"></path><path d="M11.78 26.287C6.187 25.52 1.93 21.808.558 16.506c-.71-2.747-.481-5.938.593-8.263l.471-1.021 1.703 1.7c.937.934 1.743 1.66 1.79 1.612.048-.048-.007.396-.12.985-.29 1.499-.268 2.333.1 3.775.741 2.9 3.07 5.254 5.94 6.002 1.038.27 2.984.313 3.95.086l.633-.148 1.78 1.772c1.964 1.956 1.948 1.892.594 2.454-1.642.68-4.502 1.061-6.212.827zm-.277-7.188c-2.348-.745-3.923-2.514-4.363-4.902-.319-1.73-.226-1.68 3.222 1.75 1.76 1.75 3.305 3.219 3.436 3.265.519.184-1.704.075-2.295-.113z" fill="#7b499c"></path><path d="M11.78 26.287C6.187 25.52 1.93 21.808.558 16.506c-.619-2.394-.515-5.4.254-7.39l.18-.466 1.78 1.777c.98.978 1.832 1.727 1.893 1.666.06-.06.11.353.11.92 0 1.36.515 3.323 1.151 4.386.281.47.912 1.259 1.402 1.752 1.567 1.579 3.532 2.377 5.91 2.4.7.007 1.175.051 1.056.099-.142.056.423.726 1.652 1.96l1.868 1.874-.465.18c-1.38.533-4.046.832-5.57.623zm-.515-7.272c-.826-.253-1.728-.815-2.423-1.51-.758-.759-1.622-2.304-1.483-2.652.06-.146.086-.136.095.036.017.324 3.52 3.804 4.08 4.051.493.22.342.261-.269.075z" fill="#73489c"></path><path d="M11.78 26.28c-3.496-.455-6.623-2.164-8.735-4.774C.824 18.762-.26 14.918.247 11.588c.124-.812.27-1.521.325-1.576.054-.055.987.787 2.072 1.87 1.085 1.084 1.98 1.864 1.988 1.735.008-.13.108.228.223.794.316 1.57.792 2.67 1.647 3.801 1.306 1.73 3.043 2.814 5.193 3.241.59.118 1.004.221.918.23-.086.007.765.938 1.892 2.068 1.126 1.13 2.003 2.098 1.948 2.153-.117.117-2.908.551-3.367.523-.175-.01-.762-.076-1.306-.147z" fill="#6b489c"></path><path d="M11.78 26.287C6.187 25.52 1.93 21.808.558 16.506.15 14.924-.03 12.037.252 11.58c.097-.157.76.413 2.486 2.138 1.295 1.293 2.354 2.291 2.354 2.218 0-.073.267.387.594 1.023.72 1.402 2.139 2.875 3.446 3.576.665.358 1.657 1.227 3.429 3.007 1.37 1.377 2.442 2.553 2.38 2.612-.202.19-2.142.272-3.161.132z" fill="#5453a2"></path><path d="M11.421 26.215C5.485 25.257 1.168 20.883.254 14.9c-.208-1.36-.184-2.996.05-3.397.044-.075 1.14.922 2.434 2.216 1.295 1.293 2.354 2.291 2.354 2.218 0-.073.267.387.594 1.023.72 1.402 2.139 2.875 3.446 3.576.665.358 1.657 1.227 3.429 3.007 1.37 1.377 2.442 2.553 2.38 2.612-.246.232-2.24.266-3.52.06z" fill="#63489c"></path><path d="M11.82 26.277C6.731 25.65 2.414 22.136.837 17.341c-.454-1.38-.897-4.089-.716-4.381.084-.136 13.438 13.09 13.438 13.307 0 .157-.526.16-1.74.01z" fill="#5d489d"></path><path d="M10.843 26.117c-.45-.076-1.402-.35-2.118-.612a13.083 13.083 0 01-7.75-7.748c-.441-1.209-.88-3.315-.762-3.665.028-.087 2.83 2.623 6.224 6.02 6.72 6.727 6.44 6.344 4.406 6.005z" fill="#59489d"></path><path d="M9.893 25.89c-4.115-1.11-7.477-4.166-8.901-8.092-.25-.687-.503-1.57-.565-1.961l-.111-.713 5.474 5.463c3.012 3.005 5.475 5.482 5.475 5.504 0 .094-.609.005-1.372-.2z" fill="#53489d"></path><path d="M8.074 25.27c-2.2-.914-4.449-2.807-5.778-4.863-.67-1.036-1.565-2.951-1.44-3.077.031-.03 1.94 1.83 4.242 4.135 2.303 2.306 4.116 4.189 4.03 4.185-.087-.004-.561-.174-1.054-.38z" fill="#4b489d"></path></svg>
