<svg width="167.334" height="167.195" viewBox="0 0 44.274 44.237" xmlns="http://www.w3.org/2000/svg"><path d="M16.564 43.708a22.38 22.38 0 01-16.01-16.1c-.706-2.765-.706-8.181 0-10.946A22.313 22.313 0 0116.668.55c2.818-.72 8.177-.708 11.053.027 7.596 1.94 14.037 8.382 15.978 15.978.734 2.875.748 8.234.027 11.052A22.313 22.313 0 0127.612 43.72c-2.715.694-8.377.688-11.048-.012zm8.307-8.35c.92-.216 2.313-.696 3.094-1.066 1.492-.706 4.099-2.861 4.093-3.384-.003-.321-1.653-1.497-2.1-1.497-.143 0-.65.341-1.128.759-1.306 1.14-3.395 2.099-5.205 2.39-4.567.736-9.067-1.671-11.19-5.985-.818-1.66-.879-1.966-.879-4.44 0-2.469.062-2.782.87-4.423 1.145-2.327 2.815-4.007 5.024-5.053 1.65-.781 1.983-.843 4.563-.843 2.606 0 2.895.055 4.53.86.961.473 1.846.86 1.967.86.269 0 1.964-1.62 1.964-1.877 0-.343-2.545-1.821-4.122-2.393-2.125-.77-6.222-.832-8.313-.126-4.519 1.525-7.778 4.893-9.103 9.405-.517 1.76-.544 5.227-.054 7.064 1.852 6.958 9.095 11.375 15.99 9.75zm10.124-15.017c.493-.332 1.05-.897 1.24-1.257.544-1.03.226-2.593-.72-3.539-.694-.695-1.016-.818-2.13-.818-1.115 0-1.437.123-2.132.818-1.581 1.582-1.133 4.132.88 5.007 1.21.526 1.838.48 2.862-.211zM32.5 18.608c-.578-.638-.553-1.182.08-1.755 1.192-1.079 2.8.529 1.72 1.72-.586.65-1.233.662-1.8.035z" fill="#faf5f9"/><path d="M16.848 43.723c-4.483-1.217-7.128-2.74-10.342-5.954C1.717 32.981-.118 28.25.102 21.261c.101-3.21.211-3.907.96-6.098 1.262-3.694 2.646-5.875 5.572-8.78 2.203-2.189 2.91-2.708 5.32-3.91C15.7.607 18.06.044 22.14.044c6.302 0 11.64 2.233 15.905 6.656 4.204 4.361 6.187 9.308 6.187 15.436 0 4.055-.559 6.41-2.417 10.179-1.196 2.425-1.681 3.087-3.906 5.319-2.921 2.932-5.104 4.317-8.797 5.583-2.282.782-2.782.854-6.443.929-3.255.066-4.302-.01-5.82-.422zm7.858-8.259c2.922-.618 7.356-3.31 7.356-4.467 0-.48-1.474-1.586-2.113-1.586-.182 0-.758.375-1.28.833-.522.458-1.61 1.143-2.416 1.521-1.29.605-1.805.689-4.251.689-2.61 0-2.894-.055-4.54-.865-2.247-1.106-4.434-3.407-5.268-5.542-.853-2.183-.857-5.692-.01-7.824.85-2.14 3.043-4.442 5.278-5.542 1.647-.811 1.93-.865 4.546-.865 2.612 0 2.9.055 4.535.86.961.473 1.852.856 1.98.852.127-.004.638-.377 1.134-.828 1.116-1.015.973-1.318-1.186-2.515C22.47 6.86 14.54 8.79 10.751 14.498c-3.067 4.62-3.106 10.643-.1 15.147 3.065 4.588 8.75 6.942 14.055 5.82zm10.105-14.92c1.022-.486 1.749-1.633 1.749-2.763 0-3.365-4.539-4.41-5.978-1.378-1.292 2.723 1.486 5.442 4.23 4.14zm-2.22-1.981c-.637-.637-.648-.772-.117-1.529.5-.714 1.207-.755 1.796-.104.6.663.548 1.26-.15 1.75-.757.53-.892.52-1.53-.117z" fill="#f5eaf3"/><path d="M16.716 43.68c-6.515-1.7-11.79-6.092-14.7-12.234C.588 28.436.046 25.872.046 22.135c0-3.742.542-6.3 1.975-9.325C5.802 4.833 13.346.046 22.14.046c12.411 0 22.089 9.678 22.089 22.089 0 10.298-6.78 19.012-16.774 21.56-2.855.727-7.924.72-10.74-.015zm8.442-8.327c2.16-.509 4.457-1.733 6.05-3.224l1.25-1.17-.793-.648c-1.292-1.053-1.853-1.07-2.964-.095-.54.473-1.641 1.17-2.448 1.55-1.289.604-1.806.688-4.246.688-2.464 0-2.95-.08-4.3-.714-3.125-1.464-5.45-4.493-6.09-7.931-.812-4.369 1.674-9.095 5.852-11.126 1.622-.789 1.969-.856 4.406-.861 2.442-.005 2.786.06 4.462.854.998.473 1.95.857 2.116.853.166-.004.718-.355 1.227-.78 1.172-.979.971-1.398-1.234-2.579-9.103-4.874-20.031 1.653-20.031 11.965 0 8.798 8.161 15.241 16.743 13.218zm9.823-14.81c.92-.476 1.579-1.634 1.579-2.774 0-2.442-2.548-3.923-4.772-2.773-1.458.754-2.019 2.872-1.15 4.344.888 1.502 2.76 2.021 4.343 1.203zm-2.478-1.892c-.386-.385-.165-1.663.333-1.93 1.023-.547 2.151.56 1.607 1.577-.276.516-1.546.747-1.94.353z" fill="#ece8f2"/><path d="M16.716 43.696C8.674 41.533 2.579 35.356.548 27.309c-.763-3.018-.62-8.68.29-11.524C3.906 6.195 12.228.045 22.14.045c12.411 0 22.089 9.679 22.089 22.09 0 9.911-6.14 18.222-15.74 21.303-2.733.878-8.962 1.014-11.773.258zm8.588-8.34c2.056-.536 4.43-1.824 5.935-3.223L32.459 31l-.794-.668c-1.287-1.082-1.773-1.08-3.211.02-2.285 1.747-3.322 2.083-6.452 2.093-2.613.008-2.89-.044-4.526-.849-2.177-1.072-3.96-2.937-5.068-5.301-.737-1.574-.834-2.053-.842-4.16-.008-2.131.078-2.566.82-4.134 2.621-5.53 8.625-7.807 13.98-5.3.983.459 1.922.832 2.087.828.166-.004.718-.355 1.227-.78 1.172-.979.971-1.398-1.234-2.579-5.378-2.88-11.633-1.977-15.984 2.308-4.668 4.597-5.43 11.598-1.862 17.118 3.082 4.768 9.243 7.182 14.704 5.76zm9.677-14.813c.92-.476 1.579-1.634 1.579-2.774 0-2.442-2.548-3.923-4.772-2.773-1.458.754-2.019 2.872-1.15 4.344.888 1.502 2.76 2.021 4.343 1.203zm-2.478-1.892c-.386-.385-.165-1.663.333-1.93 1.023-.547 2.151.56 1.607 1.577-.276.516-1.546.747-1.94.353z" fill="#e7e1ee"/><path d="M16.905 43.683c-13.77-3.385-20.85-18.561-14.62-31.338C7.503 1.645 20.595-2.99 31.442 2.021c11.286 5.214 16.033 18.666 10.553 29.903-2.837 5.817-8.385 10.258-14.696 11.763-2.975.71-7.496.708-10.394-.004zm8.356-8.316c2.151-.56 4.378-1.753 5.892-3.155l1.306-1.208-.74-.662c-1.251-1.12-1.804-1.101-3.395.111-5.15 3.926-12.74 2.173-15.675-3.621-3.644-7.19 1.95-15.608 10.028-15.09 1.4.09 2.375.343 3.69.958.982.46 1.92.833 2.086.829.166-.004.718-.355 1.227-.78 1.172-.979.971-1.398-1.234-2.579-8.396-4.496-18.621.701-19.978 10.154-.963 6.708 3.433 13.245 10.1 15.015 1.909.508 4.806.52 6.693.028zm9.72-14.824c.92-.476 1.579-1.634 1.579-2.774 0-2.442-2.548-3.923-4.772-2.773-1.458.754-2.019 2.872-1.15 4.344.888 1.502 2.76 2.021 4.343 1.203zm-2.478-1.892c-.386-.385-.165-1.663.333-1.93 1.023-.547 2.151.56 1.607 1.577-.276.516-1.546.747-1.94.353z" fill="#f4d7e8"/><path d="M16.905 43.683c-13.77-3.385-20.85-18.561-14.62-31.338C4.948 6.884 9.555 2.955 15.657.941 17.74.254 18.222.198 22.14.19c4.103-.007 4.31.02 6.747.86 6.902 2.378 11.959 7.435 14.337 14.337.84 2.436.866 2.644.86 6.747-.008 3.917-.063 4.401-.75 6.482-1.472 4.46-3.752 7.84-7.24 10.733-2.227 1.847-5.856 3.636-8.795 4.337-2.975.71-7.496.708-10.394-.004zm8.356-8.316c2.151-.56 4.378-1.753 5.892-3.155l1.306-1.208-.74-.662c-1.251-1.12-1.804-1.101-3.395.111-5.15 3.926-12.74 2.173-15.675-3.621-3.647-7.196 1.95-15.608 10.04-15.09 1.48.096 2.366.338 3.905 1.07l1.99.945.992-.857c1.17-1.012 1.108-1.424-.363-2.397-2.509-1.66-6.94-2.425-10.082-1.739-6.972 1.522-11.821 8.608-10.635 15.54.903 5.278 4.905 9.663 10.072 11.035 1.909.508 4.806.52 6.693.028zm9.72-14.824c.988-.511 1.579-1.652 1.579-3.052 0-.896-.166-1.263-.9-1.997-.777-.777-1.075-.9-2.19-.9-1.457 0-2.278.456-2.865 1.59-1.5 2.9 1.473 5.86 4.376 4.359zm-2.545-2.076c-.514-1.338.785-2.45 1.742-1.492.748.748.351 1.693-.758 1.803-.552.055-.884-.05-.984-.311z" fill="#e8d8e9"/><path d="M16.905 43.683C6.89 41.221.051 32.478.051 22.135.05 12.269 6.077 4.084 15.657.937 17.734.255 18.23.198 22.14.191c4.103-.007 4.31.02 6.747.86 6.902 2.378 11.959 7.435 14.337 14.337.84 2.436.866 2.644.86 6.747-.008 3.91-.064 4.405-.747 6.482-2.538 7.73-8.427 13.243-16.11 15.085-2.898.695-7.452.686-10.322-.019zm9.153-8.543c2.069-.657 4.305-1.988 5.586-3.325.716-.748.741-.842.348-1.275-.233-.257-.775-.674-1.203-.926-.775-.457-.786-.454-2.01.481-3.866 2.952-8.581 3.28-12.38.863-3.466-2.206-5.418-6.488-4.734-10.386.633-3.604 2.725-6.338 6.062-7.919 1.598-.757 2.007-.837 4.28-.837 2.35 0 2.647.064 4.546.97l2.032.97.99-.856c1.171-1.012 1.11-1.424-.362-2.397-2.51-1.661-6.943-2.425-10.082-1.738-5.393 1.18-9.696 5.713-10.635 11.2-1.15 6.718 3.287 13.556 9.99 15.399 2.12.582 5.333.487 7.572-.224zm8.923-14.597c.988-.511 1.579-1.652 1.579-3.052 0-.896-.166-1.263-.9-1.997-.777-.777-1.075-.9-2.19-.9-1.457 0-2.278.456-2.865 1.59-1.5 2.9 1.473 5.86 4.376 4.359zm-2.545-2.076c-.514-1.338.785-2.45 1.742-1.492.748.748.351 1.693-.758 1.803-.552.055-.884-.05-.984-.311z" fill="#e8cbe2"/><path d="M16.905 43.683C1.25 39.835-5.22 21.019 4.784 8.43c8.255-10.389 23.61-11.28 32.975-1.914 9.366 9.365 8.474 24.72-1.915 32.975-2.442 1.94-5.598 3.49-8.545 4.195-2.974.711-7.493.71-10.394-.003zm8.977-8.478c2.131-.653 4.362-1.942 5.626-3.251 1.016-1.053.943-1.302-.664-2.295l-.894-.553-1.145.94c-4.485 3.674-10.811 3.262-14.62-.953-1.98-2.193-3.02-5.678-2.527-8.476 1.277-7.25 8.99-11.07 15.306-7.581.762.42 1.443.764 1.513.764.365 0 1.997-1.705 1.997-2.088 0-.506-2.164-1.901-3.969-2.559-1.593-.58-5.564-.79-7.466-.395-5.202 1.08-9.61 5.752-10.537 11.168-1.156 6.76 3.262 13.59 9.984 15.438 2.02.555 5.297.484 7.396-.159zM34.97 20.55c1.135-.587 1.59-1.408 1.59-2.865 0-1.115-.122-1.413-.899-2.19-.787-.787-1.068-.9-2.245-.9-1.094 0-1.497.136-2.16.728-.972.869-1.304 2.507-.77 3.796.663 1.6 2.823 2.29 4.484 1.43zm-2.355-2.09c-.18-.218-.29-.67-.242-1.006.072-.504.247-.61 1.013-.61.882 0 .926.044.926.926 0 .8-.094.937-.685 1.006-.376.043-.831-.099-1.012-.316z" fill="#d9d4e7"/><path d="M17.642 43.846C9.403 41.913 3.559 36.583.942 28.617c-.683-2.081-.739-2.565-.74-6.482-.002-4.056.033-4.339.84-6.75 1.227-3.668 3.524-7.258 6.129-9.578 8.937-7.96 22.227-7.652 30.588.709 4.195 4.195 6.473 9.692 6.473 15.619 0 9.653-6.125 18.068-15.343 21.078-2.206.72-2.956.833-6.088.913-2.44.063-4.075-.026-5.16-.28zm7.77-8.47c2.148-.571 4.127-1.636 5.658-3.043 1.535-1.412 1.52-1.595-.226-2.674l-.894-.553-1.145.94c-.63.516-1.852 1.269-2.715 1.673-1.372.642-1.886.735-4.096.735-2.39 0-2.637-.055-4.547-.999-6.484-3.204-7.922-11.547-2.862-16.607 3.339-3.339 8.3-4.065 12.38-1.812.761.42 1.442.764 1.512.764.365 0 1.997-1.705 1.997-2.088 0-.506-2.164-1.901-3.969-2.559-1.593-.58-5.564-.79-7.466-.395-3.586.745-7.302 3.565-9.031 6.855-2.952 5.619-2.082 11.609 2.336 16.071 1.896 1.915 4.172 3.262 6.388 3.783 1.597.375 5.111.327 6.68-.09zM34.97 20.55c1.135-.587 1.59-1.408 1.59-2.865 0-1.115-.122-1.413-.899-2.19-.787-.787-1.068-.9-2.245-.9-1.094 0-1.497.136-2.16.728-.972.869-1.304 2.507-.77 3.796.663 1.6 2.823 2.29 4.484 1.43zm-2.355-2.09c-.18-.218-.29-.67-.242-1.006.072-.504.247-.61 1.013-.61.882 0 .926.044.926.926 0 .8-.094.937-.685 1.006-.376.043-.831-.099-1.012-.316z" fill="#edc2dd"/><path d="M17.642 43.846C9.403 41.913 3.559 36.583.942 28.617c-.683-2.081-.739-2.565-.74-6.482-.002-4.06.033-4.337.841-6.747C3.458 8.188 9.001 2.902 16.361.778c2.998-.865 8.57-.862 11.582.007 7.568 2.182 13.365 7.98 15.547 15.547.868 3.012.871 8.584.007 11.582-2.127 7.37-7.462 12.957-14.61 15.298-2.206.722-2.95.834-6.085.915-2.44.062-4.076-.027-5.16-.281zm7.77-8.47c2.148-.571 4.127-1.636 5.658-3.043 1.535-1.412 1.52-1.595-.226-2.674l-.894-.553-1.145.94c-.63.516-1.852 1.269-2.715 1.673-1.372.642-1.886.735-4.096.735-2.39 0-2.637-.055-4.547-.999-6.46-3.192-7.922-11.548-2.899-16.57 3.3-3.3 7.99-4.056 12.176-1.964.822.41 1.574.783 1.671.827.32.144 2.08-1.58 2.08-2.036 0-.59-2.451-2.057-4.507-2.697-2.053-.64-5.671-.677-7.683-.08-4.777 1.418-8.488 5.342-9.63 10.184-1.086 4.613.22 9.06 3.69 12.565 1.895 1.915 4.17 3.262 6.387 3.783 1.597.375 5.111.327 6.68-.09zm10.061-15.11c2.682-2.257.387-6.577-2.997-5.643-1.945.537-2.85 2.837-1.866 4.74.852 1.649 3.412 2.124 4.863.903zm-2.83-1.756c-.756-.757-.06-1.912 1.058-1.753 1.118.158.845 2.07-.296 2.07-.244 0-.587-.142-.761-.317z" fill="#d7cae2"/><path d="M17.642 43.834C10.194 42.187 3.926 36.79 1.42 29.865.38 26.99.047 25.106.047 22.104.047 9.479 10.564-.513 23.184.12c3.538.177 6.043.848 9.132 2.448 4.178 2.163 7.228 5.212 9.391 9.39 1.6 3.09 2.27 5.594 2.448 9.132.549 10.95-6.86 20.47-17.703 22.752-2.24.471-6.662.467-8.81-.007zm7.533-8.359c1.867-.43 4.328-1.722 5.8-3.046.743-.668 1.351-1.353 1.35-1.521 0-.169-.533-.644-1.185-1.056l-1.186-.749-1.147.94c-.632.518-1.854 1.27-2.717 1.673-1.366.637-1.895.732-4.083.735-2.28.002-2.678-.076-4.297-.842-6.644-3.148-8.215-11.67-3.095-16.791 3.23-3.23 7.96-3.971 12.109-1.897.822.41 1.574.783 1.671.827.32.144 2.08-1.58 2.08-2.036 0-.59-2.451-2.057-4.507-2.697-2.053-.64-5.671-.677-7.683-.08-4.27 1.267-7.568 4.37-9.25 8.702-.861 2.217-.877 6.662-.033 8.974 1.518 4.157 5.227 7.628 9.329 8.731 1.68.452 5.167.52 6.844.133zm10.298-15.21c2.682-2.256.387-6.576-2.997-5.642-1.945.537-2.85 2.837-1.866 4.74.852 1.649 3.412 2.124 4.863.903zm-2.83-1.755c-.756-.757-.06-1.912 1.058-1.753 1.118.158.845 2.07-.296 2.07-.244 0-.587-.142-.761-.317z" fill="#d1c1dd"/><path d="M17.635 43.824C7.375 41.57.047 32.575.047 22.239.047 9.493 10.516-.515 23.184.119c3.538.178 6.043.85 9.132 2.449 4.178 2.163 7.228 5.212 9.391 9.39 1.6 3.09 2.27 5.594 2.448 9.132.55 10.966-6.88 20.5-17.705 22.72-2.425.497-6.588.503-8.815.014zm8.38-8.583c.924-.286 2.276-.892 3.004-1.348 1.483-.93 3.307-2.592 3.307-3.014 0-.153-.534-.615-1.186-1.027l-1.186-.749-1.147.94c-.632.518-1.854 1.27-2.717 1.673-1.366.637-1.895.732-4.083.735-2.283.002-2.677-.075-4.306-.847-9.197-4.356-7.575-17.627 2.407-19.688 2.072-.428 4.481-.062 6.616 1.005.822.41 1.574.783 1.671.827.32.144 2.08-1.58 2.08-2.036 0-.256-.612-.816-1.44-1.318-3.994-2.42-9.168-2.56-13.51-.363-1.797.909-4.894 4.07-5.767 5.886-2.631 5.476-1.764 11.234 2.347 15.593 2.762 2.928 5.737 4.213 9.808 4.237 1.692.01 2.926-.142 4.102-.506zm9.458-14.975c2.682-2.257.387-6.577-2.997-5.643-1.945.537-2.85 2.837-1.866 4.74.852 1.649 3.412 2.124 4.863.903zm-2.83-1.756c-.756-.757-.06-1.912 1.058-1.753 1.118.158.845 2.07-.296 2.07-.244 0-.587-.142-.761-.317z" fill="#eab1d3"/><path d="M17.635 43.824C7.375 41.57.047 32.575.047 22.239c0-15.287 15.028-25.984 29.367-20.905C41.36 5.565 47.263 18.621 42.59 30.47 39.93 37.21 33.76 42.311 26.45 43.81c-2.425.498-6.588.504-8.815.015zm8.38-8.583c.924-.286 2.276-.892 3.004-1.348 1.483-.93 3.307-2.592 3.307-3.014 0-.153-.534-.615-1.186-1.027l-1.186-.749-1.147.94c-.632.518-1.854 1.27-2.717 1.673-1.366.637-1.895.732-4.083.735-2.283.002-2.677-.075-4.306-.847-9.174-4.345-7.576-17.626 2.368-19.68 2.086-.431 4.526-.043 6.709 1.066 1.77.9 1.99.868 3.258-.464l.753-.792-.579-.579c-.994-.993-4.225-2.35-6.284-2.64-4.338-.608-8.328.78-11.553 4.022C8.023 16.91 7.05 22.753 9.748 28.32c.894 1.846 3.651 4.755 5.416 5.716 3.288 1.79 7.462 2.253 10.85 1.206zm9.448-14.967c1.544-1.299 1.653-3.317.259-4.8-2.307-2.456-6.389-.074-5.485 3.2.598 2.165 3.499 3.054 5.226 1.6zm-2.862-1.83c-.702-.847.33-2.148 1.247-1.571.916.577.59 1.955-.463 1.955-.256 0-.608-.173-.784-.385z" fill="#d5b8d8"/><path d="M17.635 43.84C8.629 41.77 1.885 34.746.305 25.795c-.446-2.53-.198-7.045.527-9.58A22.199 22.199 0 0112.585 2.305C15.525.897 17.673.33 20.871.124c13.02-.845 24.124 10.259 23.28 23.28-.208 3.197-.773 5.346-2.18 8.285-2.74 5.723-7.784 9.987-13.912 11.76-2.51.727-8.061.935-10.424.391zm8.095-8.505a19.71 19.71 0 002.729-1.081c1.409-.714 3.867-2.868 3.867-3.389 0-.179-.492-.65-1.093-1.049-1.24-.821-1.415-.78-3.356.786-2.65 2.137-6.89 2.53-10.267.95-6.467-3.027-8.02-11.66-3-16.68 3.28-3.278 7.987-4.007 12.168-1.882 1.77.9 1.99.868 3.258-.464l.753-.792-.579-.579c-.994-.993-4.225-2.35-6.284-2.64-5.08-.713-10.293 1.575-13.146 5.77-1.529 2.249-2.272 4.386-2.453 7.056-.26 3.835.999 7.222 3.778 10.169 2.757 2.922 5.739 4.213 9.788 4.237 1.476.009 2.953-.15 3.837-.412zm9.733-15.06c1.544-1.3 1.653-3.318.259-4.802-2.307-2.455-6.389-.073-5.485 3.2.598 2.166 3.499 3.055 5.226 1.601zm-2.862-1.832c-.702-.846.33-2.147 1.247-1.57.916.577.59 1.955-.463 1.955-.256 0-.608-.173-.784-.385z" fill="#c8b8d8"/><path d="M18.832 44.06c-7.356-1.419-13.038-5.527-16.264-11.757C.687 28.67.184 26.518.19 22.135c.006-4.302.346-5.857 2.084-9.525C4.426 8.066 7.99 4.504 12.585 2.304 15.525.897 17.673.33 20.871.124c13.02-.845 24.124 10.259 23.28 23.28-.208 3.197-.773 5.346-2.18 8.285-2.755 5.756-8.054 10.164-14.275 11.876-1.56.43-7.489.761-8.864.496zM25.7 35.32a17.83 17.83 0 002.747-1.059c1.419-.719 3.88-2.872 3.88-3.395 0-.328-1.9-1.719-2.348-1.719-.132 0-.82.479-1.527 1.064-1.91 1.58-3.734 2.204-6.445 2.206-3.608.002-6.674-1.578-8.553-4.41-1.424-2.144-1.85-3.755-1.713-6.472.141-2.804 1.005-4.793 2.91-6.701 3.234-3.238 7.967-3.957 12.127-1.843 1.77.9 1.99.868 3.258-.464l.753-.792-.579-.579c-.319-.319-1.431-.982-2.473-1.475C18.786 5.446 8.25 12.18 8.25 22.135c0 6.821 5.292 12.798 12.036 13.595 1.95.23 3.522.111 5.415-.411zm9.763-15.045c1.544-1.299 1.653-3.317.259-4.8-2.307-2.456-6.389-.074-5.485 3.2.598 2.165 3.499 3.054 5.226 1.6zm-2.862-1.83c-.702-.847.33-2.148 1.247-1.571.916.577.59 1.955-.463 1.955-.256 0-.608-.173-.784-.385z" fill="#e998c5"/><path d="M18.832 44.06c-7.356-1.419-13.038-5.527-16.264-11.757C.687 28.67.184 26.518.19 22.135c.006-4.302.346-5.857 2.084-9.525C8.66-.87 26.403-4.114 37.27 6.209 48.47 16.846 45.56 35.422 31.665 42c-1.31.62-3.096 1.324-3.969 1.564-1.56.43-7.489.761-8.864.496zM25.7 35.32a17.83 17.83 0 002.747-1.059c1.419-.719 3.88-2.872 3.88-3.395 0-.328-1.9-1.719-2.348-1.719-.132 0-.82.479-1.527 1.064-1.91 1.58-3.734 2.204-6.445 2.206-1.658.001-2.611-.142-3.63-.547-3.007-1.196-5.314-3.627-6.3-6.639-.7-2.145-.453-5.533.556-7.579 2.004-4.065 6.525-6.474 10.814-5.763.93.154 2.475.67 3.435 1.148l1.744.868 1.056-1.031c.581-.568 1.057-1.121 1.057-1.23 0-.34-2.256-1.77-3.67-2.327-8.925-3.518-18.82 3.221-18.82 12.819 0 6.821 5.292 12.798 12.036 13.595 1.95.23 3.522.111 5.415-.411zm9.639-14.927c.835-.657 1.485-1.83 1.485-2.68 0-.984-.894-2.375-1.872-2.914-3.389-1.867-6.623 2.971-3.656 5.468 1.054.887 2.998.947 4.043.126zM32.6 18.443c-.702-.846.33-2.147 1.247-1.57.916.577.59 1.955-.463 1.955-.256 0-.608-.173-.784-.385z" fill="#b4aad0"/><path d="M18.039 43.847c-7.952-1.685-14.05-6.958-16.7-14.438-3.615-10.204.78-21.535 10.35-26.681 8.393-4.514 18.632-3.12 25.581 3.48 6.015 5.715 8.32 14.122 6.034 22.012-2.236 7.716-7.91 13.172-16.001 15.388-2.049.561-7.128.692-9.264.24zm7.692-8.477c.666-.19 1.842-.667 2.615-1.058 1.5-.761 3.98-2.908 3.98-3.447 0-.328-1.898-1.719-2.347-1.719-.132 0-.82.479-1.527 1.064-.707.585-1.894 1.291-2.638 1.57-5.23 1.96-10.75-.253-13.166-5.28-.756-1.573-.827-1.945-.827-4.365 0-2.425.07-2.794.843-4.425 1.448-3.057 4.127-5.11 7.565-5.797 2.033-.406 4.374-.011 6.653 1.123l1.744.868 1.056-1.031c.581-.568 1.057-1.121 1.057-1.23 0-.34-2.256-1.77-3.67-2.327-3.632-1.431-7.458-1.252-11.064.52-10.33 5.074-10.357 19.495-.045 24.58 3.217 1.587 6.459 1.903 9.771.954zm9.608-14.978c.835-.657 1.485-1.83 1.485-2.68 0-.984-.894-2.375-1.872-2.914-3.389-1.867-6.623 2.971-3.656 5.468 1.054.887 2.998.947 4.043.126zM32.6 18.443c-.702-.846.33-2.147 1.247-1.57.916.577.59 1.955-.463 1.955-.256 0-.608-.173-.784-.385z" fill="#cf96c5"/><path d="M18.039 43.847C2.77 40.611-4.593 24.087 3.259 10.684c1.326-2.261 5.51-6.314 7.9-7.65 8.7-4.866 18.955-3.623 26.099 3.163 7.455 7.082 9.05 17.858 3.983 26.918-1.337 2.39-5.39 6.575-7.65 7.9-1.8 1.054-4.017 1.975-6.176 2.564-2.149.586-7.195.73-9.376.268zm7.692-8.477c2.64-.757 6.595-3.36 6.595-4.343 0-.497-1.808-1.88-2.458-1.88-.194 0-.68.34-1.08.758-1.052 1.098-3.268 2.133-5.28 2.467-4.405.73-8.845-1.671-10.862-5.872-.754-1.572-.825-1.947-.825-4.365 0-2.356.083-2.826.76-4.292.48-1.039 1.27-2.128 2.139-2.95 3.478-3.29 8.067-4.001 12.03-1.866.79.425 1.57.773 1.733.773.163 0 .767-.485 1.342-1.077l1.046-1.078-.794-.648c-1.758-1.433-5.611-2.744-8.07-2.744-1.62 0-4.574.754-6.326 1.614-2.116 1.04-4.62 3.502-5.77 5.675-3.72 7.029-1.045 15.376 6.05 18.875 3.216 1.586 6.458 1.902 9.77.953zm9.438-14.84c.819-.537 1.653-1.931 1.654-2.765.002-1.031-.872-2.417-1.871-2.967-2.478-1.366-5.634 1.195-4.755 3.858.722 2.188 3.116 3.09 4.972 1.873zm-2.568-2.087c-.702-.846.33-2.147 1.247-1.57.916.577.59 1.955-.463 1.955-.256 0-.608-.173-.784-.385z" fill="#d585bb"/><path d="M18.039 43.847C2.77 40.611-4.593 24.087 3.259 10.684c1.326-2.261 5.51-6.314 7.9-7.65 6.939-3.88 15.023-3.88 21.961 0 2.698 1.508 6.613 5.423 8.121 8.12 3.88 6.939 3.88 15.023 0 21.961-1.337 2.39-5.39 6.575-7.65 7.9-1.8 1.054-4.017 1.975-6.176 2.564-2.149.586-7.195.73-9.376.268zm7.692-8.477c2.64-.757 6.595-3.36 6.595-4.343 0-.497-1.808-1.88-2.458-1.88-.194 0-.68.34-1.08.758-1.052 1.098-3.268 2.133-5.28 2.467-4.405.73-8.845-1.671-10.862-5.872-.754-1.572-.825-1.947-.825-4.365 0-2.356.083-2.826.76-4.292 2.416-5.229 8.813-7.437 14.06-4.854.907.446 1.754.81 1.881.81.43-.002 2.258-1.858 2.155-2.186-.183-.58-2.529-1.984-4.365-2.612-2.508-.857-6.101-.857-8.608 0C6.002 13.002 4.907 28.965 15.96 34.417c3.217 1.586 6.459 1.902 9.771.953zm9.225-14.645c2.476-1.328 2.361-4.98-.19-6.047-3.246-1.356-6.135 2.336-3.977 5.08.602.765 1.851 1.423 2.732 1.44.293.006.939-.207 1.435-.473zM32.729 18.4c-.516-.516-.439-1.129.193-1.526.916-.577 1.949.724 1.246 1.57-.417.502-.908.487-1.44-.044z" fill="#ea75b1"/><path d="M18.039 43.847C2.78 40.613-4.62 24.013 3.26 10.697c.488-.824 1.775-2.437 2.86-3.584 6.833-7.221 16.873-9 25.808-4.573 4.359 2.159 7.667 5.466 9.81 9.805 4.42 8.951 2.642 18.977-4.577 25.808-2.94 2.782-5.711 4.324-9.747 5.426-2.149.586-7.195.73-9.376.268zm7.692-8.477c2.64-.757 6.595-3.36 6.595-4.343 0-.497-1.808-1.88-2.458-1.88-.194 0-.68.34-1.08.758-1.052 1.098-3.268 2.133-5.28 2.467-4.405.73-8.845-1.671-10.862-5.872-.754-1.572-.825-1.947-.825-4.365 0-2.356.083-2.826.76-4.292 2.416-5.229 8.813-7.437 14.06-4.854.907.446 1.754.81 1.881.81.43-.002 2.258-1.858 2.155-2.186-.183-.58-2.529-1.984-4.365-2.612-2.508-.857-6.101-.857-8.608 0C6.002 13.002 4.907 28.965 15.96 34.417c3.217 1.586 6.459 1.902 9.771.953zm9.225-14.645c2.476-1.328 2.361-4.98-.19-6.047-3.246-1.356-6.135 2.336-3.977 5.08.602.765 1.851 1.423 2.732 1.44.293.006.939-.207 1.435-.473zM32.729 18.4c-.516-.516-.439-1.129.193-1.526.916-.577 1.949.724 1.246 1.57-.417.502-.908.487-1.44-.044z" fill="#b094c5"/><path d="M18.039 43.83C10.31 42.27 4.082 36.966 1.429 29.69-1.587 21.426.583 12.312 7.021 6.197 13.835-.275 23.41-1.681 31.929 2.54c4.359 2.159 7.667 5.466 9.81 9.805 4.215 8.535 2.81 18.096-3.661 24.908-5.158 5.43-12.993 8.001-20.04 6.577zm6.657-8.187c2.247-.477 4.186-1.404 6.109-2.922 1.836-1.45 1.923-1.992.468-2.91-1.331-.84-1.463-.834-2.56.13-5.119 4.494-13.221 2.672-16.179-3.638-.625-1.335-.713-1.847-.713-4.168 0-2.317.088-2.834.71-4.159 2.519-5.376 8.807-7.598 14.11-4.987.907.446 1.754.81 1.881.81.43-.002 2.258-1.858 2.155-2.186-.183-.58-2.529-1.984-4.365-2.612-2.508-.857-6.101-.857-8.608 0-5.744 1.964-9.455 7.174-9.455 13.274 0 6.348 4.603 11.978 10.914 13.35 2.16.468 3.387.473 5.533.018zm10.26-14.918c2.476-1.328 2.361-4.98-.19-6.047-3.246-1.356-6.135 2.336-3.977 5.08.602.765 1.851 1.423 2.732 1.44.293.006.939-.207 1.435-.473zM32.729 18.4c-.516-.516-.439-1.129.193-1.526.916-.577 1.949.724 1.246 1.57-.417.502-.908.487-1.44-.044z" fill="#d576b3"/><path d="M18.039 43.83C10.31 42.27 4.082 36.966 1.429 29.69c-2.88-7.892-1.06-16.532 4.773-22.673 4.36-4.59 9.64-6.82 16.07-6.786C30.63.274 38.062 4.9 41.74 12.345c1.68 3.404 2.285 5.938 2.305 9.658.033 6.43-2.196 11.71-6.786 16.07-5.144 4.886-12.55 7.105-19.22 5.757zm6.657-8.187c2.247-.477 4.186-1.404 6.109-2.922 1.836-1.45 1.923-1.992.468-2.91-1.331-.84-1.463-.834-2.56.13-5.119 4.494-13.221 2.672-16.179-3.638-.625-1.335-.713-1.847-.713-4.168 0-2.317.088-2.834.71-4.159 2.533-5.405 8.805-7.599 14.172-4.957 1.882.927 2.303.872 3.556-.461.764-.814.513-1.247-1.395-2.405-2.161-1.312-3.959-1.775-6.857-1.767-1.917.005-2.938.152-4.303.617-5.74 1.956-9.455 7.172-9.455 13.272 0 6.348 4.603 11.978 10.914 13.35 2.16.468 3.387.473 5.533.018zm10.201-14.876c3.237-1.536 2.044-6.44-1.565-6.436-1.945.002-3.62 1.977-3.27 3.851.209 1.107 1.08 2.202 2.11 2.65 1.087.474 1.615.462 2.725-.065zm-2.155-2.355c-.229-.229-.416-.518-.416-.643 0-.34.785-1.058 1.157-1.058.418 0 .96.541.96.96 0 .371-.719 1.157-1.058 1.157-.125 0-.414-.188-.643-.416z" fill="#c877b4"/><path d="M18.039 43.83C6.06 41.41-1.766 30.034.462 18.285 2.102 9.645 8.227 3.112 16.848.808 19.791.022 24.467.018 27.431.8 33.72 2.46 38.937 6.67 41.74 12.345c1.719 3.481 2.293 5.933 2.293 9.79 0 4.844-1.334 9.01-4.147 12.953-4.826 6.763-13.823 10.363-21.846 8.742zm6.657-8.187c2.247-.477 4.186-1.404 6.109-2.922 1.836-1.45 1.923-1.992.468-2.91-1.331-.84-1.463-.834-2.56.13-5.119 4.494-13.221 2.672-16.179-3.638-.625-1.335-.713-1.847-.713-4.168 0-2.317.088-2.834.71-4.159.99-2.112 2.847-4.005 4.945-5.038 1.63-.802 1.922-.857 4.526-.857 2.616 0 2.886.051 4.48.86.932.473 1.835.86 2.006.86.17 0 .777-.408 1.347-.906 1.263-1.103 1.135-1.465-.97-2.74-5.226-3.167-12.065-2.26-16.515 2.19-2.715 2.715-4.1 6.072-4.1 9.93 0 6.348 4.602 11.978 10.913 13.35 2.16.468 3.387.473 5.533.018zm10.146-14.815c2.497-1.043 2.593-4.828.155-6.089-2.276-1.176-5.052.523-5.052 3.092 0 .983.898 2.374 1.868 2.894 1.087.583 1.82.608 3.03.103zm-2.1-2.416c-.229-.229-.416-.518-.416-.643 0-.34.785-1.058 1.157-1.058.418 0 .96.541.96.96 0 .371-.719 1.157-1.058 1.157-.125 0-.414-.188-.643-.416z" fill="#9792c4"/><path d="M17.765 43.714c-4.54-.958-8.368-3.097-11.563-6.461C1.293 32.086-.827 25.079.462 18.285 2.102 9.645 8.227 3.112 16.848.808 19.791.022 24.467.018 27.431.8c2.772.731 6.464 2.58 8.546 4.277 3.503 2.856 6.306 7.256 7.497 11.765.782 2.965.78 7.64-.007 10.583-3.102 11.61-14.287 18.697-25.702 16.288zm6.931-8.071c2.247-.477 4.186-1.404 6.109-2.922 1.836-1.45 1.923-1.992.468-2.91-1.331-.84-1.463-.834-2.56.13-5.119 4.494-13.221 2.672-16.179-3.638-.625-1.335-.713-1.847-.713-4.168 0-2.317.088-2.834.71-4.159.99-2.112 2.847-4.005 4.945-5.038 1.63-.802 1.922-.857 4.526-.857 2.616 0 2.886.051 4.48.86.932.473 1.835.86 2.006.86.17 0 .777-.408 1.347-.906 1.263-1.103 1.135-1.465-.97-2.74-5.226-3.167-12.065-2.26-16.515 2.19C4.597 20.1 8.425 33.3 19.097 35.611c2.229.483 3.44.49 5.6.032zm10.146-14.815c2.497-1.043 2.593-4.828.155-6.089-2.276-1.176-5.052.523-5.052 3.092 0 .983.898 2.374 1.868 2.894 1.087.583 1.82.608 3.03.103zm-2.1-2.416c-.229-.229-.416-.518-.416-.643 0-.34.785-1.058 1.157-1.058.418 0 .96.541.96.96 0 .371-.719 1.157-1.058 1.157-.125 0-.414-.188-.643-.416z" fill="#ac84bc"/><path d="M17.765 43.714c-4.54-.958-8.368-3.097-11.563-6.461C1.293 32.086-.827 25.079.462 18.285 2.1 9.657 8.24 3.108 16.848.808 19.791.022 24.467.018 27.431.8c2.772.731 6.464 2.58 8.546 4.277 3.503 2.856 6.306 7.256 7.497 11.765.782 2.965.78 7.64-.007 10.583-3.1 11.602-14.294 18.695-25.702 16.288zm8.622-8.487c2.706-.931 5.94-3.239 5.94-4.24 0-.515-1.687-1.84-2.342-1.84-.202 0-.794.374-1.316.832-5.019 4.407-13.23 2.532-16.137-3.685-.62-1.324-.708-1.844-.708-4.16 0-2.314.088-2.834.708-4.158.987-2.111 2.845-4.004 4.944-5.038 1.63-.802 1.922-.857 4.526-.857 2.616 0 2.886.051 4.48.86.932.473 1.835.86 2.006.86.17 0 .777-.408 1.347-.906 1.263-1.103 1.135-1.465-.97-2.74-3.932-2.383-9.067-2.484-13.313-.261-2.037 1.066-4.825 3.854-5.797 5.797-2.824 5.645-1.646 12.343 2.915 16.574 3.639 3.376 9.09 4.554 13.717 2.962zm8.455-14.4c2.497-1.042 2.593-4.827.155-6.088-2.276-1.176-5.052.523-5.052 3.092 0 .983.898 2.374 1.868 2.894 1.087.583 1.82.608 3.03.103zm-2.1-2.415c-.229-.229-.416-.518-.416-.643 0-.34.785-1.058 1.157-1.058.418 0 .96.541.96.96 0 .371-.719 1.157-1.058 1.157-.125 0-.414-.188-.643-.416z" fill="#e85aa2"/><path d="M17.765 43.714c-4.54-.958-8.368-3.097-11.563-6.461C1.293 32.086-.827 25.079.462 18.285 2.304 8.578 9.757 1.623 19.74.295c6.003-.8 13.3 1.802 17.869 6.37 4.568 4.57 7.17 11.866 6.371 17.87-1.744 13.105-13.666 21.827-26.215 19.179zm8.622-8.487c2.706-.931 5.94-3.239 5.94-4.24 0-.515-1.687-1.84-2.342-1.84-.202 0-.794.374-1.316.832-5.019 4.407-13.23 2.532-16.137-3.685-.62-1.324-.708-1.844-.708-4.16 0-2.314.088-2.834.708-4.158.987-2.111 2.845-4.004 4.944-5.038 1.63-.802 1.922-.857 4.526-.857 2.616 0 2.886.051 4.48.86.932.473 1.835.86 2.006.86.17 0 .777-.408 1.347-.906 1.263-1.103 1.135-1.465-.97-2.74-3.932-2.383-9.067-2.484-13.313-.261-2.037 1.066-4.825 3.854-5.797 5.797-2.824 5.645-1.646 12.343 2.915 16.574 3.639 3.376 9.09 4.554 13.717 2.962zm8.455-14.4c2.497-1.042 2.593-4.827.155-6.088-2.276-1.176-5.052.523-5.052 3.092 0 .983.898 2.374 1.868 2.894 1.087.583 1.82.608 3.03.103zm-2.1-2.415c-.229-.229-.416-.518-.416-.643 0-.34.785-1.058 1.157-1.058.418 0 .96.541.96.96 0 .371-.719 1.157-1.058 1.157-.125 0-.414-.188-.643-.416z" fill="#9784bc"/><path d="M18.26 43.831C5.644 41.435-2.391 28.935.823 16.705 3.175 7.755 10.332 1.546 19.74.295c6.003-.8 13.3 1.802 17.869 6.37 4.568 4.57 7.17 11.866 6.371 17.87C42.496 35.693 33.967 43.62 22.934 44.1c-1.686.074-3.382-.024-4.674-.27zm8.092-8.587c2.75-.955 5.974-3.252 5.974-4.257 0-.515-1.686-1.84-2.341-1.84-.202 0-.794.374-1.316.832-4.035 3.543-10.575 3.099-14.295-.972-1.89-2.069-2.534-3.841-2.545-7.01-.008-2.315.062-2.66.85-4.261 1.032-2.098 2.925-3.956 5.037-4.946 1.34-.628 1.831-.71 4.291-.71 2.61 0 2.881.053 4.475.86.932.474 1.835.86 2.006.86.17 0 .777-.407 1.347-.905 1.263-1.103 1.135-1.465-.97-2.74-1.852-1.123-3.599-1.648-6.064-1.824-3.935-.28-7.63 1.165-10.583 4.141-2.731 2.753-3.965 5.765-3.96 9.663.005 2.599.318 4.02 1.344 6.105 1.915 3.892 5.769 6.746 10.289 7.62 1.337.259 4.927-.084 6.461-.616zm8.49-14.416c2.497-1.043 2.593-4.828.155-6.089-2.276-1.176-5.052.523-5.052 3.092 0 .983.898 2.374 1.868 2.894 1.087.583 1.82.608 3.03.103zm-2.1-2.416c-.229-.229-.416-.518-.416-.643 0-.34.785-1.058 1.157-1.058.418 0 .96.541.96.96 0 .371-.719 1.157-1.058 1.157-.125 0-.414-.188-.643-.416z" fill="#aa72b2"/><path d="M18.26 43.831c-7.507-1.426-13.946-6.72-16.627-13.67C-2.976 18.207 3.473 4.92 15.717 1.14 18.88.167 21.61-.058 24.72.4 35.105 1.93 42.344 9.17 43.876 19.554c.327 2.224.347 3.157.104 4.98-1.244 9.35-7.492 16.555-16.412 18.924-2.647.703-6.714.866-9.308.373zm8.3-8.675c2.154-.782 4.152-2.036 5.268-3.307l.839-.956-.898-.751c-1.392-1.165-1.854-1.172-3.315-.05-2.3 1.763-3.32 2.095-6.45 2.096-2.61.001-2.893-.053-4.544-.865-7.826-3.85-7.548-14.945.468-18.642 1.09-.503 1.75-.6 4.08-.6 2.61 0 2.88.052 4.474.86.932.473 1.835.86 2.006.86.17 0 .777-.408 1.347-.906 1.263-1.103 1.135-1.465-.97-2.74-5.277-3.198-12.13-2.255-16.667 2.292-2.756 2.762-3.936 5.666-3.936 9.688 0 2.595.312 4.018 1.34 6.106 1.915 3.891 5.769 6.745 10.289 7.62 1.49.287 4.94-.077 6.669-.705zm8.282-14.328c2.497-1.043 2.593-4.828.155-6.089-2.276-1.176-5.052.523-5.052 3.092 0 .983.898 2.374 1.868 2.894 1.087.583 1.82.608 3.03.103zm-2.1-2.416c-.229-.229-.416-.518-.416-.643 0-.34.785-1.058 1.157-1.058.418 0 .96.541.96.96 0 .371-.719 1.157-1.058 1.157-.125 0-.414-.188-.643-.416z" fill="#e94a9a"/><path d="M18.26 43.831c-7.507-1.426-13.946-6.72-16.627-13.67C-2.973 18.215 3.474 4.92 15.7 1.146c4.262-1.315 8.526-1.282 12.908.102l1.971.622 5.908 5.899 5.907 5.898.626 1.985c.956 3.026 1.308 6.363.95 8.982-1.273 9.294-7.52 16.464-16.402 18.823-2.647.703-6.714.866-9.308.373zm8.3-8.675c2.154-.782 4.152-2.036 5.268-3.307l.839-.956-.898-.751c-1.392-1.165-1.854-1.172-3.315-.05-2.3 1.763-3.32 2.095-6.45 2.096-2.61.001-2.893-.053-4.544-.865-7.826-3.85-7.548-14.945.468-18.642 1.09-.503 1.75-.6 4.08-.6 2.61 0 2.88.052 4.474.86.932.473 1.835.86 2.006.86.17 0 .777-.408 1.347-.906 1.263-1.103 1.135-1.465-.97-2.74-5.277-3.198-12.13-2.255-16.667 2.292-2.756 2.762-3.936 5.666-3.936 9.688 0 2.595.312 4.018 1.34 6.106 1.915 3.891 5.769 6.745 10.289 7.62 1.49.287 4.94-.077 6.669-.705zm8.282-14.328c2.497-1.043 2.593-4.828.155-6.089-2.276-1.176-5.052.523-5.052 3.092 0 .983.898 2.374 1.868 2.894 1.087.583 1.82.608 3.03.103zm-2.1-2.416c-.229-.229-.416-.518-.416-.643 0-.34.785-1.058 1.157-1.058.418 0 .96.541.96.96 0 .371-.719 1.157-1.058 1.157-.125 0-.414-.188-.643-.416z" fill="#cb59a3"/><path d="M18.26 43.831c-5.92-1.124-11.273-4.674-14.53-9.636C-3.549 23.111.667 8.03 12.614 2.405 16.666.497 20.85-.184 24.828.417c5.082.767 5.008.721 11.672 7.37l5.894 5.881.625 1.985c1.036 3.289 1.296 6.142.837 9.18-.658 4.346-1.923 7.506-4.237 10.585-2.111 2.808-5.546 5.532-8.744 6.934-3.631 1.591-8.821 2.2-12.615 1.48zm8.3-8.675c2.154-.782 4.152-2.036 5.268-3.307l.839-.956-.898-.751c-1.392-1.165-1.854-1.172-3.315-.05-2.3 1.763-3.32 2.095-6.45 2.096-2.61.001-2.893-.053-4.544-.865-7.826-3.85-7.548-14.945.468-18.642 1.078-.497 1.755-.6 3.953-.6 2.456 0 2.78.063 4.398.86.96.473 1.964.86 2.23.86.618 0 2.23-1.549 2.23-2.141 0-.536-1.943-1.827-3.969-2.637-2.046-.818-5.956-1.008-8.073-.392-5.085 1.478-9.075 5.484-10.162 10.204-.351 1.524-.35 5.08.002 6.607.707 3.07 3.118 6.45 5.873 8.23 1.406.909 3.793 1.862 5.481 2.188 1.49.288 4.94-.076 6.67-.704zm8.402-14.339c1.277-.66 1.862-1.639 1.862-3.115 0-1.178-.109-1.427-1.027-2.345-.926-.927-1.16-1.027-2.385-1.027-1.166 0-1.492.122-2.306.869-2.939 2.692.323 7.445 3.856 5.618zm-2.29-2.687c-.176-.46.168-1.194.635-1.349.154-.052.473.098.708.333.324.324.36.55.153.938-.333.623-1.267.672-1.495.078z" fill="#e34a9a"/><path d="M18.26 43.831c-5.92-1.124-11.273-4.674-14.53-9.636C-3.549 23.111.667 8.03 12.614 2.405 16.649.505 20.84-.181 24.804.409l2.584.384 8.047 8.047 8.046 8.047.385 2.584c.984 6.615-1.796 14.253-6.856 18.832-1.645 1.489-4.317 3.252-6.135 4.049-3.631 1.591-8.821 2.2-12.615 1.48zm8.3-8.675c2.154-.782 4.152-2.036 5.268-3.307l.839-.956-.898-.751c-1.392-1.165-1.854-1.172-3.315-.05-2.3 1.763-3.32 2.095-6.45 2.096-2.61.001-2.893-.053-4.544-.865-7.826-3.85-7.548-14.945.468-18.642 1.078-.497 1.755-.6 3.953-.6 2.456 0 2.78.063 4.398.86.96.473 1.964.86 2.23.86.618 0 2.23-1.549 2.23-2.141 0-.536-1.943-1.827-3.969-2.637-2.046-.818-5.956-1.008-8.073-.392-5.085 1.478-9.075 5.484-10.162 10.204-.351 1.524-.35 5.08.002 6.607.707 3.07 3.118 6.45 5.873 8.23 1.406.909 3.793 1.862 5.481 2.188 1.49.288 4.94-.076 6.67-.704zm8.402-14.339c1.277-.66 1.862-1.639 1.862-3.115 0-1.178-.109-1.427-1.027-2.345-.926-.927-1.16-1.027-2.385-1.027-1.166 0-1.492.122-2.306.869-2.939 2.692.323 7.445 3.856 5.618zm-2.29-2.687c-.176-.46.168-1.194.635-1.349.154-.052.473.098.708.333.324.324.36.55.153.938-.333.623-1.267.672-1.495.078z" fill="#dd4a9a"/><path d="M18.26 43.831c-7.507-1.426-13.946-6.72-16.627-13.67C-2.662 19.022 2.662 6.483 13.615 1.937c1.05-.436 2.863-.996 4.027-1.245C20.06.178 24.265.072 25.05.507c.291.161 4.653 4.439 9.693 9.505l9.164 9.212.164 1.588c.31 3.005-.807 8.187-2.48 11.502-2.099 4.157-6.32 8.111-10.716 10.038-3.631 1.591-8.821 2.2-12.615 1.48zm8.3-8.675c2.154-.782 4.152-2.036 5.268-3.307l.839-.956-.898-.751c-1.392-1.165-1.854-1.172-3.315-.05-2.3 1.763-3.32 2.095-6.45 2.096-2.61.001-2.893-.053-4.544-.865-7.826-3.85-7.548-14.945.468-18.642 1.078-.497 1.755-.6 3.953-.6 2.456 0 2.78.063 4.398.86.96.473 1.964.86 2.23.86.618 0 2.23-1.549 2.23-2.141 0-.536-1.943-1.827-3.969-2.637-2.046-.818-5.956-1.008-8.073-.392-5.085 1.478-9.075 5.484-10.162 10.204-.351 1.524-.35 5.08.002 6.607.707 3.07 3.118 6.45 5.873 8.23 1.406.909 3.793 1.862 5.481 2.188 1.49.288 4.94-.076 6.67-.704zm8.402-14.339c1.277-.66 1.862-1.639 1.862-3.115 0-1.178-.109-1.427-1.027-2.345-.926-.927-1.16-1.027-2.385-1.027-1.166 0-1.492.122-2.306.869-2.939 2.692.323 7.445 3.856 5.618zm-2.29-2.687c-.176-.46.168-1.194.635-1.349.154-.052.473.098.708.333.324.324.36.55.153.938-.333.623-1.267.672-1.495.078z" fill="#d94a9a"/><path d="M18.26 43.831c-7.507-1.426-13.946-6.72-16.627-13.67C-2.662 19.022 2.662 6.483 13.615 1.937 15.916.983 19.117.29 21.54.224l1.783-.05 10.313 10.31c6.78 6.776 10.366 10.546 10.466 11.004.21.956-.517 5.568-1.206 7.65-1.93 5.826-6.415 10.756-12.022 13.214-3.631 1.591-8.821 2.2-12.615 1.48zm8.3-8.675c2.154-.782 4.152-2.036 5.268-3.307l.839-.956-.898-.751c-1.392-1.165-1.854-1.172-3.315-.05-2.3 1.763-3.32 2.095-6.45 2.096-2.61.001-2.893-.053-4.544-.865-7.826-3.85-7.548-14.945.468-18.642 1.078-.497 1.755-.6 3.953-.6 2.456 0 2.78.063 4.398.86.96.473 1.964.86 2.23.86.618 0 2.23-1.549 2.23-2.141 0-.536-1.943-1.827-3.969-2.637-2.046-.818-5.956-1.008-8.073-.392-5.085 1.478-9.075 5.484-10.162 10.204-.351 1.524-.35 5.08.002 6.607.707 3.07 3.118 6.45 5.873 8.23 1.406.909 3.793 1.862 5.481 2.188 1.49.288 4.94-.076 6.67-.704zm8.402-14.339c1.277-.66 1.862-1.639 1.862-3.115 0-1.178-.109-1.427-1.027-2.345-.926-.927-1.16-1.027-2.385-1.027-1.166 0-1.492.122-2.306.869-2.939 2.692.323 7.445 3.856 5.618zm-2.29-2.687c-.176-.46.168-1.194.635-1.349.154-.052.473.098.708.333.324.324.36.55.153.938-.333.623-1.267.672-1.495.078z" fill="#d54a9a"/><path d="M18.26 43.831c-7.507-1.426-13.946-6.72-16.627-13.67C-2.662 19.022 2.662 6.483 13.615 1.937 15.68 1.08 18.998.307 20.608.307c.971 0 1.381.376 12.223 11.22l11.217 11.22-.17 1.81c-.84 8.928-7.404 16.535-16.31 18.901-2.647.703-6.714.866-9.308.373zm8.3-8.675c2.154-.782 4.152-2.036 5.268-3.307l.839-.956-.898-.751c-1.392-1.165-1.854-1.172-3.315-.05-2.3 1.763-3.32 2.095-6.45 2.096-2.61.001-2.893-.053-4.544-.865-7.826-3.85-7.548-14.945.468-18.642 1.078-.497 1.755-.6 3.953-.6 2.456 0 2.78.063 4.398.86.96.473 1.964.86 2.23.86.618 0 2.23-1.549 2.23-2.141 0-.536-1.943-1.827-3.969-2.637-2.046-.818-5.956-1.008-8.073-.392-5.085 1.478-9.075 5.484-10.162 10.204-.351 1.524-.35 5.08.002 6.607.707 3.07 3.118 6.45 5.873 8.23 1.406.909 3.793 1.862 5.481 2.188 1.49.288 4.94-.076 6.67-.704zm8.402-14.339c1.277-.66 1.862-1.639 1.862-3.115 0-1.178-.109-1.427-1.027-2.345-.926-.927-1.16-1.027-2.385-1.027-1.166 0-1.492.122-2.306.869-2.939 2.692.323 7.445 3.856 5.618zm-2.29-2.687c-.176-.46.168-1.194.635-1.349.154-.052.473.098.708.333.324.324.36.55.153.938-.333.623-1.267.672-1.495.078z" fill="#d1499a"/><path d="M18.26 43.831c-7.507-1.426-13.946-6.72-16.627-13.67C-3.497 16.857 5.197 2.17 19.23.435l1.323-.164 7.01 7.029 7.01 7.029h-1.26c-3.403 0-4.627 4.576-1.7 6.36 2.291 1.398 5.212-.22 5.212-2.887v-1.217l3.59 3.568 3.59 3.568-.162 1.323c-1.07 8.75-7.568 16.1-16.274 18.413-2.647.703-6.714.866-9.308.373zm8.3-8.675c2.154-.782 4.152-2.036 5.268-3.307l.839-.956-.898-.751c-1.392-1.165-1.854-1.172-3.315-.05-2.3 1.763-3.32 2.095-6.45 2.096-2.61.001-2.893-.053-4.544-.865-7.826-3.85-7.548-14.945.468-18.642 1.078-.497 1.755-.6 3.953-.6 2.456 0 2.78.063 4.398.86.96.473 1.964.86 2.23.86.618 0 2.23-1.549 2.23-2.141 0-.536-1.943-1.827-3.969-2.637-2.046-.818-5.956-1.008-8.073-.392-5.085 1.478-9.075 5.484-10.162 10.204-.351 1.524-.35 5.08.002 6.607.707 3.07 3.118 6.45 5.873 8.23 1.406.909 3.793 1.862 5.481 2.188 1.49.288 4.94-.076 6.67-.704zm6.113-17.026c-.177-.46.167-1.194.634-1.349.154-.052.473.098.708.333.324.324.36.55.153.938-.333.623-1.267.672-1.495.078z" fill="#9170b1"/><path d="M18.26 43.831c-4.334-.823-8.048-2.728-11.25-5.77-7.115-6.758-8.863-16.818-4.47-25.716C5.75 5.846 12.096 1.318 19.23.435l1.322-.163 7.01 7.029 7.01 7.029h-1.26c-3.403 0-4.627 4.576-1.7 6.36 2.291 1.398 5.212-.22 5.212-2.887v-1.217l3.59 3.568 3.59 3.568-.162 1.323c-.649 5.302-3.66 10.718-7.865 14.147-2.106 1.717-5.808 3.56-8.546 4.255-2.817.715-6.595.874-9.171.384zm6.898-8.213c2.246-.53 4.615-1.814 6.241-3.385l1.324-1.28-.926-.781c-1.418-1.197-1.874-1.208-3.343-.08-2.301 1.765-3.321 2.097-6.447 2.097-2.446 0-2.951-.082-4.233-.69-4.27-2.027-6.799-6.903-5.857-11.293.689-3.213 2.916-6.065 5.786-7.41 1.34-.628 1.85-.715 4.178-.715 2.456 0 2.78.063 4.398.86.96.473 1.964.86 2.23.86.618 0 2.23-1.549 2.23-2.142 0-.535-1.943-1.826-3.969-2.636-2.046-.818-5.956-1.008-8.073-.392C12.31 10.487 8.15 15.814 8.15 22.135c0 8.88 8.373 15.518 17.008 13.483zm7.515-17.488c-.177-.46.167-1.194.634-1.349.154-.052.473.098.708.333.324.324.36.55.153.938-.333.623-1.267.672-1.495.078z" fill="#cd499a"/><path d="M18.26 43.831c-7.507-1.425-13.946-6.72-16.627-13.67-4.086-10.596.609-22.688 10.717-27.606C14.74 1.393 17.366.571 18.693.571c.566 0 1.645.934 5.335 4.618l4.626 4.619-1.67-.687c-2.247-.923-6.027-1.147-8.287-.49-10.917 3.173-14.21 16.354-5.942 23.78 5.363 4.818 13.554 4.74 18.644-.178l1.324-1.28-.926-.781c-1.418-1.197-1.874-1.208-3.343-.08-2.301 1.765-3.321 2.097-6.447 2.097-2.446 0-2.951-.082-4.233-.69-4.27-2.027-6.799-6.903-5.857-11.293.689-3.213 2.916-6.065 5.786-7.41 1.34-.628 1.85-.715 4.178-.715 2.456 0 2.78.063 4.398.86.96.473 1.965.86 2.232.86.267 0 .91-.414 1.427-.92l.94-.918 1.133 1.183c.961 1.005 1.05 1.184.588 1.184-.3 0-.972.39-1.493.869-2.939 2.692.323 7.445 3.856 5.618.94-.486 1.862-1.629 1.862-2.31 0-.357 1.04.524 3.44 2.917 3.869 3.856 3.796 3.687 2.915 6.797-2.575 9.09-10.717 15.434-20.378 15.88-1.578.072-3.268-.028-4.541-.27zm14.413-25.7c-.177-.462.167-1.195.634-1.35.154-.052.473.098.708.333.324.324.36.55.153.938-.333.623-1.267.672-1.495.078z" fill="#c9499a"/><path d="M18.26 43.831c-7.507-1.425-13.946-6.72-16.627-13.67-4.488-11.639 1.664-24.828 13.42-28.773.906-.304 1.879-.552 2.163-.552.311 0 2.02 1.504 4.31 3.793l3.796 3.793-2.534-.122c-3.878-.187-7.16.977-10.033 3.558a13.767 13.767 0 000 20.554c5.363 4.817 13.554 4.738 18.644-.18l1.324-1.279-.926-.781c-1.418-1.197-1.874-1.208-3.343-.08-2.301 1.765-3.321 2.097-6.447 2.097-2.446 0-2.951-.082-4.233-.69-4.27-2.027-6.799-6.903-5.857-11.293.689-3.213 2.916-6.065 5.786-7.41 1.34-.628 1.85-.715 4.178-.715 2.456 0 2.78.063 4.398.86 1.978.974 2.496 1.043 3.18.424.452-.41.528-.381 1.264.462l.784.897-.679.709c-1.417 1.479-1.018 4.16.783 5.257 1.4.854 2.963.645 4.305-.573.543-.494.572-.473 4.035 2.946 1.942 1.917 3.488 3.657 3.488 3.926 0 .265-.25 1.246-.554 2.18-2.793 8.564-10.78 14.502-20.084 14.931-1.578.073-3.268-.027-4.541-.269zm14.434-25.646c-.264-.687.105-1.254.756-1.162.437.062.596.261.596.746s-.16.684-.596.746c-.358.051-.66-.081-.756-.33z" fill="#ae57a2"/><path d="M18.26 43.831c-4.334-.823-8.048-2.728-11.25-5.77C-.009 31.396-1.825 21.38 2.392 12.61c1.905-3.96 4.765-7.034 8.752-9.402C13.047 2.078 16.164.85 17.158.84c.39-.004 1.792 1.212 4.369 3.788l3.795 3.793-2.517-.117c-4.121-.192-7.269.9-10.01 3.472-6.192 5.809-6.21 15.093-.04 20.635 5.326 4.784 13.349 4.746 18.584-.089 1.452-1.34 1.46-1.672.06-2.581-1.224-.795-1.5-.76-2.973.37-2.272 1.744-3.301 2.077-6.418 2.077-2.447 0-2.952-.082-4.234-.69-2.215-1.052-3.815-2.627-4.89-4.817-2.618-5.33-.555-11.211 4.827-13.754 1.614-.763 2.022-.844 4.301-.845 2.308-.002 2.664.07 4.266.858 1.98.974 2.497 1.043 3.18.424.453-.41.53-.381 1.266.462l.783.897-.679.709c-1.417 1.479-1.018 4.16.784 5.257 1.4.854 2.962.645 4.304-.573.543-.494.572-.473 4.035 2.946 2.034 2.008 3.488 3.652 3.488 3.944 0 .969-1.292 4.306-2.37 6.12-2.37 3.99-5.442 6.85-9.404 8.754-4.137 1.99-9.268 2.736-13.405 1.95zm14.434-25.646c-.264-.687.105-1.254.756-1.162.437.062.596.261.596.746s-.16.684-.596.746c-.358.051-.66-.081-.756-.33z" fill="#c3499a"/><path d="M18.26 43.831c-4.334-.823-8.048-2.728-11.25-5.77-3.554-3.375-5.734-7.478-6.593-12.405-1.231-7.064 1.63-15.108 7.043-19.797 1.993-1.726 5.386-3.776 7-4.228l1.241-.347 3.352 3.318c1.843 1.825 3.53 3.382 3.748 3.46.219.077-.3.15-1.152.161-4.55.062-8.69 2.433-11.333 6.493-3.65 5.604-2.608 13.162 2.439 17.696 5.326 4.784 13.349 4.746 18.584-.089 1.452-1.34 1.46-1.672.06-2.581-1.224-.795-1.5-.76-2.973.37-2.272 1.744-3.301 2.077-6.418 2.077-2.447 0-2.952-.082-4.234-.69-2.215-1.052-3.815-2.627-4.89-4.817-2.619-5.33-.555-11.211 4.826-13.754 1.614-.763 2.023-.844 4.302-.845 2.32-.002 2.66.067 4.307.878 2.265 1.114 4.193 2.734 3.867 3.25-.409.645-.258 2.453.277 3.331.852 1.397 2.795 2.045 4.323 1.442.371-.147 1.316.66 4.338 3.707l3.863 3.894-.345 1.235c-.45 1.61-2.502 5.005-4.226 6.994-4.713 5.44-13.095 8.358-20.156 7.017zm14.452-25.55c-.271-.44-.028-.5.352-.088.188.203.225.37.082.37-.143 0-.338-.127-.434-.282z" fill="#bd489a"/><path d="M18.26 43.831c-4.334-.823-8.048-2.728-11.25-5.77C-.009 31.396-1.825 21.38 2.392 12.61 4.594 8.033 8.6 4.142 13.207 2.104l1.184-.524 3.345 3.293 3.345 3.293-1.72.314c-6.374 1.164-11.21 7.055-11.21 13.655 0 10.38 11.16 17.104 20.3 12.232 2.008-1.07 4.24-3.086 4.022-3.633-.195-.49-1.847-1.588-2.39-1.588-.219 0-.965.435-1.657.967-2.272 1.743-3.301 2.076-6.419 2.076-2.446 0-2.951-.082-4.233-.69-3.249-1.542-5.635-4.86-5.987-8.323-.576-5.66 3.64-10.664 9.39-11.146 2.971-.25 3.84.122 6.495 2.77 1.868 1.864 2.273 2.414 2.274 3.082.002 1.692 1.662 3.327 3.378 3.327.63 0 1.478.724 4.974 4.253 3.187 3.216 4.197 4.394 4.14 4.829-.121.938-2.181 4.321-3.805 6.25-4.757 5.652-13.163 8.66-20.373 7.29z" fill="#b9489a"/><path d="M18.26 43.831c-4.334-.823-8.048-2.728-11.25-5.77-3.554-3.375-5.734-7.478-6.593-12.405-1.227-7.04 1.632-15.11 7.003-19.763 1.565-1.355 5.206-3.734 5.716-3.734.292 0 6.226 5.837 6.226 6.124 0 .09-.55.302-1.223.471-4.149 1.044-8.057 4.946-9.42 9.401-2.31 7.556 2.398 15.638 10.177 17.472 4.387 1.034 9.1-.217 12.443-3.304 1.452-1.34 1.46-1.672.06-2.581-1.224-.795-1.5-.76-2.973.37-2.272 1.744-3.301 2.077-6.418 2.077-2.447 0-2.952-.082-4.234-.69-3.249-1.542-5.635-4.86-5.987-8.323-.58-5.705 3.683-10.716 9.481-11.145l1.93-.143 3.152 3.194c1.733 1.757 3.251 3.133 3.373 3.058.122-.076.222.104.222.398 0 .773 1.476 2.34 2.395 2.541.431.095.73.26.665.367-.066.107 1.957 2.269 4.495 4.804 2.539 2.536 4.616 4.736 4.616 4.89 0 .509-2.38 4.152-3.735 5.714-4.676 5.399-13.084 8.314-20.121 6.977z" fill="#776fb1"/><path d="M19.23 43.95C10.13 42.545 3.186 36.315.812 27.428c-.79-2.955-.79-7.625-.002-10.584 1.14-4.275 3.59-8.333 6.61-10.95 1.564-1.355 5.205-3.734 5.715-3.734.292 0 6.226 5.837 6.226 6.124 0 .09-.55.302-1.223.471-4.148 1.044-8.057 4.946-9.42 9.401-2.312 7.566 2.388 15.636 10.177 17.472 4.387 1.034 9.1-.217 12.443-3.304 1.452-1.34 1.46-1.672.06-2.581-1.224-.795-1.5-.76-2.973.37-2.272 1.744-3.301 2.077-6.418 2.077-2.447 0-2.952-.082-4.234-.69-3.249-1.542-5.635-4.86-5.987-8.323-.58-5.705 3.683-10.716 9.481-11.145l1.93-.143 3.152 3.194c1.733 1.757 3.251 3.133 3.373 3.058.122-.076.222.104.222.398 0 .773 1.476 2.34 2.395 2.541.431.095.73.26.665.367-.066.107 1.957 2.269 4.495 4.804 2.539 2.536 4.616 4.736 4.616 4.89 0 .509-2.38 4.152-3.735 5.714-4.444 5.13-12.518 8.122-19.152 7.097z" fill="#b5489a"/><path d="M19.23 43.95C10.13 42.545 3.186 36.315.812 27.428c-.79-2.955-.79-7.625-.002-10.584 1.137-4.265 3.595-8.342 6.586-10.925 1.715-1.48 4.357-3.23 4.879-3.23.357 0 6.027 5.542 6.027 5.891 0 .107-.148.194-.33.195-.841 0-3.8 1.708-5.142 2.968-3.078 2.888-4.68 6.448-4.68 10.393 0 10.386 11.153 17.107 20.3 12.232 2.008-1.07 4.24-3.086 4.022-3.633-.195-.49-1.847-1.588-2.39-1.588-.219 0-.965.435-1.657.967-2.272 1.743-3.301 2.076-6.419 2.076-2.446 0-2.951-.082-4.233-.69-4.27-2.027-6.799-6.903-5.857-11.293.913-4.26 4.479-7.627 8.606-8.128l1.352-.165 9.79 9.809c5.384 5.394 9.827 9.98 9.872 10.19.108.498-1.526 3.05-3.18 4.965-4.404 5.1-12.507 8.097-19.128 7.074z" fill="#b1489a"/><path d="M19.23 43.95C10.13 42.545 3.186 36.315.812 27.428c-.79-2.955-.79-7.625-.002-10.584.723-2.71 2.257-5.897 3.863-8.02 1.329-1.756 4.254-4.382 5.824-5.227l.928-.5 2.901 2.892L17.23 8.88l-1.64.877C11.106 12.15 8.15 17.072 8.15 22.135c0 10.386 11.154 17.107 20.3 12.232 2.009-1.07 4.24-3.086 4.023-3.633-.195-.49-1.847-1.588-2.39-1.588-.219 0-.965.435-1.657.967-2.272 1.743-3.301 2.076-6.419 2.076-2.446 0-2.951-.082-4.233-.69-2.215-1.052-3.815-2.627-4.89-4.817-2.003-4.077-1.325-8.529 1.77-11.635 1.323-1.327 4.107-2.833 5.238-2.834.52 0 2.889 2.226 10.976 10.316l10.313 10.315-.5.93c-.847 1.573-3.472 4.497-5.23 5.826-4.472 3.383-11.056 5.15-16.222 4.35z" fill="#9857a3"/><path d="M19.23 43.95C10.13 42.545 3.186 36.315.812 27.428c-.791-2.962-.79-7.629.002-10.584C1.865 12.922 3.849 9.47 6.67 6.648c1.518-1.519 4.094-3.43 4.622-3.43.15 0 1.548 1.28 3.107 2.843l2.836 2.845-1.694.877c-7.08 3.669-9.571 13.093-5.227 19.771 4.684 7.202 14.772 8.623 20.857 2.939 1.626-1.519 1.65-1.826.226-2.751-1.217-.791-1.786-.752-2.869.199-.497.437-1.603 1.121-2.456 1.521-1.368.641-1.865.727-4.198.727-2.304 0-2.834-.09-4.1-.69-2.213-1.05-3.815-2.628-4.895-4.817-2.034-4.125-1.274-8.565 2.032-11.871 1.148-1.149 3.926-2.597 4.98-2.598.52 0 2.876 2.214 10.914 10.254 5.638 5.64 10.251 10.374 10.251 10.52 0 .523-1.919 3.106-3.43 4.617-3.915 3.915-8.961 6.165-14.502 6.467-1.27.069-3.023.015-3.896-.12z" fill="#ad489a"/><path d="M19.23 43.95C11.648 42.78 5.51 38.265 2.306 31.505c-2.758-5.823-2.819-12.73-.16-18.412 1.595-3.41 5.19-7.692 7.501-8.937l.92-.495 2.849 2.842 2.849 2.842-1.308.747c-6.633 3.788-8.835 13.02-4.643 19.463 4.684 7.202 14.772 8.623 20.857 2.939 1.626-1.519 1.65-1.826.226-2.751-1.217-.791-1.786-.752-2.869.199-.497.437-1.603 1.121-2.456 1.521-1.368.641-1.865.727-4.198.727-2.304 0-2.834-.09-4.1-.69-4.443-2.109-6.931-7.169-5.743-11.68.74-2.813 2.713-5.407 4.996-6.572 1.422-.725 2.598-1.07 2.598-.76 0 .13 4.724 4.954 10.498 10.721l10.498 10.486-.499.926c-1.248 2.317-5.526 5.91-8.94 7.508-3.396 1.589-8.466 2.362-11.954 1.823z" fill="#a9489a"/><path d="M19.23 43.95C11.648 42.78 5.51 38.265 2.306 31.505c-2.758-5.823-2.819-12.73-.16-18.412C3.6 9.985 6.73 6.077 8.905 4.652l.692-.454L12.45 7.01l2.853 2.811-.982.65c-6.2 4.103-8.043 12.878-4.006 19.083 4.684 7.202 14.772 8.623 20.857 2.939 1.626-1.519 1.65-1.826.226-2.751-1.217-.791-1.786-.752-2.869.199-.497.437-1.603 1.121-2.456 1.521-1.368.641-1.865.727-4.198.727-2.304 0-2.834-.09-4.1-.69-4.443-2.109-6.931-7.169-5.743-11.68.738-2.804 2.713-5.407 4.977-6.562l1.11-.566 10.984 10.984L40.088 34.66l-.459.7c-1.431 2.184-5.334 5.311-8.446 6.768-3.396 1.589-8.466 2.362-11.954 1.823z" fill="#a5489a"/><path d="M19.23 43.95C10.13 42.545 3.186 36.315.812 27.428c-.791-2.962-.79-7.629.002-10.584 1.079-4.025 3.077-7.45 6.064-10.393l1.714-1.69 2.85 2.842 2.85 2.84-1.148.952c-6.463 5.355-6.686 15.205-.473 20.973 5.118 4.751 13.487 4.808 18.5.126 1.626-1.519 1.65-1.826.226-2.751-1.217-.791-1.786-.752-2.869.199-.497.437-1.603 1.121-2.456 1.521-1.368.641-1.865.727-4.198.727-2.304 0-2.834-.09-4.1-.69-2.248-1.067-3.812-2.622-4.947-4.918-.893-1.808-.99-2.21-.998-4.15-.004-1.182.145-2.653.332-3.27.477-1.578 2.362-4.213 3.705-5.181l1.135-.819L28.26 24.42l11.258 11.258-1.691 1.716c-4.032 4.092-9.049 6.37-14.702 6.678-1.27.069-3.023.015-3.896-.12z" fill="#a1489b"/><path d="M19.23 43.95C10.13 42.545 3.186 36.315.812 27.428c-.791-2.962-.79-7.629.002-10.584.934-3.486 2.375-6.196 4.9-9.218 1.809-2.165 1.704-2.185 4.794.895l2.72 2.711-1.26 1.282c-4.347 4.416-5.064 11.8-1.654 17.041 4.738 7.285 14.98 8.639 21.006 2.778l1.526-1.483 2.81 2.818c3.188 3.199 3.164 3.079.992 4.893-3.034 2.535-5.79 3.997-9.159 4.859-2.48.634-6.094.867-8.26.532zm-.583-12.121c-2.746-.95-4.66-2.731-5.996-5.58-.69-1.473-.813-2.05-.82-3.85-.005-1.164.142-2.611.325-3.216.416-1.373 2.29-4.212 3.154-4.778.648-.424.65-.422 8.644 7.555 4.397 4.39 7.968 7.98 7.934 7.98-.033 0-.466-.239-.96-.53l-.9-.532-.901.655-1.494 1.088c-.325.238-1.277.716-2.116 1.06-1.917.789-4.833.851-6.87.148z" fill="#8757a4"/><path d="M19.23 43.934C9.09 42.472 1.614 34.766.285 24.408c-.715-5.582 1.305-11.904 5.33-16.677 1.926-2.284 1.787-2.307 4.893.789l2.721 2.711-1.31 1.331c-1.815 1.844-3.328 4.987-3.717 7.72-.57 4.003.83 8.214 3.775 11.362 5.196 5.554 14.017 5.867 19.345.686l1.524-1.481 2.81 2.818c3.205 3.215 3.177 3.06.886 4.992-3.328 2.807-7.54 4.707-11.71 5.283-2.334.322-3.326.32-5.604-.008zm-.422-12.099c-3.65-1.206-6.153-4.109-6.848-7.942-.504-2.78.175-5.52 1.975-7.972 1.803-2.456 1.055-2.907 10.034 6.054 4.39 4.381 7.949 7.965 7.91 7.965-.038 0-.45-.231-.915-.514-.937-.57-1.406-.45-2.607.664-2.087 1.938-6.515 2.747-9.549 1.745z" fill="#9b499b"/><path d="M19.23 43.934C9.09 42.472 1.614 34.766.285 24.408c-.558-4.352.587-9.386 3.067-13.488 1.17-1.937 2.854-3.999 3.264-3.999.103 0 1.36 1.178 2.795 2.618 1.844 1.851 2.543 2.723 2.388 2.976-.121.198-.583.836-1.026 1.418-1.243 1.633-2.245 4.125-2.574 6.4-.569 3.941.846 8.176 3.778 11.31 4.795 5.127 12.823 5.848 18.3 1.645.692-.532 1.41-.967 1.592-.967.184 0 1.518 1.19 2.966 2.642l2.632 2.642-.989 1.013c-2.348 2.405-7.508 4.765-11.646 5.328-2.338.318-3.331.316-5.604-.012zm-.422-12.099c-5.924-1.957-8.686-8.575-5.932-14.213.36-.735.958-1.623 1.33-1.973l.676-.635 7.003 6.998c3.85 3.849 7.002 7.127 7.002 7.285 0 .505-1.148 1.386-2.78 2.133-2.086.956-5.12 1.125-7.299.405z" fill="#95499c"/><path d="M19.23 43.934c-8.58-1.237-15.553-7.173-18.09-15.396-1.373-4.453-1.3-8.932.22-13.367.766-2.238 2.852-5.992 3.848-6.929.549-.515.55-.515 3.286 2.232l2.738 2.747-.572.802c-1.14 1.602-2.154 4.195-2.455 6.28-.808 5.593 2.343 11.546 7.469 14.111 2.586 1.295 4.517 1.707 7.249 1.548 2.465-.143 4.694-.868 6.642-2.162l1.36-.904 2.826 2.834 2.825 2.834-.609.571c-1.167 1.097-4.908 3.152-6.978 3.834-3.44 1.133-6.498 1.435-9.76.965zm-.422-12.114c-5.951-1.905-8.732-8.68-5.864-14.286.4-.785.832-1.423.957-1.42.126.005 3.411 3.183 7.3 7.063l7.073 7.054-1.151.675a10.291 10.291 0 01-8.315.914z" fill="#91499c"/><path d="M19.23 43.95C10.13 42.545 3.186 36.315.812 27.428c-.787-2.947-.79-7.63-.007-10.552.64-2.387 1.977-5.29 3.265-7.092l.886-1.24 2.77 2.737 2.771 2.737-.992 2.075c-1.391 2.907-1.759 5.554-1.17 8.424 1.396 6.799 7.053 11.518 13.793 11.506 2.251-.004 4.241-.5 6.348-1.584l1.575-.81 2.848 2.839 2.848 2.839-1.248.892c-4.129 2.95-10.437 4.5-15.27 3.753zm-.422-12.115c-5.787-1.912-8.582-8.296-6.095-13.92l.51-1.15 6.952 6.972c3.824 3.834 7.05 6.91 7.17 6.836.12-.074.219-.062.219.028 0 .089-.685.476-1.522.86-2.018.924-5.087 1.083-7.234.374z" fill="#7957a4"/><path d="M19.23 43.934C9.09 42.472 1.614 34.766.285 24.408c-.554-4.323.887-10.203 3.46-14.112L4.92 8.512l2.789 2.71 2.79 2.71-.994 2.117c-2.682 5.72-1.565 11.818 2.946 16.073 4.507 4.253 10.562 5.127 16.028 2.315l1.577-.812 2.86 2.86 2.86 2.861-1.791 1.179c-2.312 1.521-5.72 2.793-8.84 3.299-2.706.439-3.53.454-5.916.11zm0-11.968c-4.01-1.33-6.593-4.259-7.3-8.278-.323-1.83-.041-3.908.783-5.772l.51-1.15 6.952 6.97c3.824 3.835 7.05 6.911 7.17 6.837.12-.074.219-.062.219.028 0 .089-.685.476-1.522.86-1.814.83-5.096 1.074-6.813.505z" fill="#8d499c"/><path d="M19.23 43.934C9.09 42.472 1.614 34.766.285 24.408c-.523-4.077.754-9.708 3.064-13.51l.956-1.574 2.74 2.75c1.506 1.512 2.804 2.683 2.885 2.603.08-.08-.21.701-.646 1.737-1.114 2.652-1.493 5.512-1.056 7.961.953 5.332 5.133 9.871 10.374 11.266 2.826.753 6.359.415 9.305-.888l1.268-.56 2.892 2.885 2.891 2.886-1.578.958c-2.158 1.311-5.353 2.434-8.273 2.908-2.669.433-3.498.447-5.879.104zm0-11.984c-5.84-1.851-8.891-7.912-6.774-13.454.277-.724.314-.693 7.032 6.006 3.714 3.704 6.753 6.795 6.753 6.87 0 .074-.617.318-1.371.542-1.634.485-4.174.502-5.64.036z" fill="#89499c"/><path d="M19.23 43.934C9.09 42.472 1.614 34.766.285 24.408.04 22.483.061 21.614.41 19.416c.466-2.943 1.655-6.494 2.706-8.083l.683-1.031 2.82 2.741 2.822 2.742-.598 1.774c-1.793 5.322-.44 10.743 3.64 14.592 4.217 3.98 9.835 4.981 15.2 2.712.575-.243.958-.355.851-.248-.106.106 1.085 1.475 2.647 3.042 1.562 1.567 2.786 2.895 2.72 2.951-1.318 1.134-5.613 2.706-8.807 3.224-2.654.43-3.485.445-5.864.102zm0-11.984c-4.835-1.532-8.01-6.206-7.386-10.873.34-2.546-.014-2.76 7.005 4.243l6.492 6.477-.94.26c-1.277.355-3.885.301-5.172-.107z" fill="#85499c"/><path d="M19.23 43.934C9.131 42.478 1.667 34.822.295 24.514c-.468-3.52.327-8.048 2.06-11.735l.667-1.418 2.825 2.816C7.4 15.726 8.775 16.9 8.9 16.786c.125-.114.139.03.03.322-.406 1.09-.936 4.01-.937 5.16-.003 6.083 4.903 12.065 11.071 13.496 1.757.408 5.811.211 7.36-.356.776-.285 1.074-.312.99-.092-.067.173 1.125 1.557 2.648 3.075 2.635 2.626 2.744 2.779 2.242 3.13-1.012.709-4.774 1.916-7.196 2.309-2.669.433-3.498.447-5.879.104zm0-11.984c-3.88-1.23-6.543-4.186-7.276-8.079-.248-1.32-.067-4.632.204-3.72.065.218 2.634 2.926 5.71 6.019 4.179 4.203 5.758 5.629 6.254 5.649l.664.026-.662.212c-1.018.326-3.716.267-4.895-.107z" fill="#81489c"/><path d="M19.23 43.934C9.131 42.478 1.667 34.822.295 24.514-.158 21.1.67 16.211 2.218 13.168l.524-1.03 2.833 2.825c1.558 1.553 2.89 2.767 2.96 2.697.07-.07-.05.935-.267 2.232-.325 1.95-.338 2.695-.073 4.286.904 5.427 5.102 10.051 10.408 11.463 1.615.43 4.875.492 6.447.123l1.058-.248 2.974 2.96c2.33 2.317 2.903 3.027 2.646 3.27-.593.563-4.164 1.686-6.635 2.086-2.654.43-3.485.445-5.864.102zm0-11.984c-3.926-1.244-6.558-4.2-7.293-8.188-.533-2.892-.378-2.808 5.386 2.922 2.94 2.923 5.525 5.378 5.743 5.455.868.307-2.849.125-3.837-.189z" fill="#6856a4"/><path d="M19.073 43.822c-5.724-.892-10.535-3.593-13.977-7.846C1.543 31.584-.308 25.374.341 20.026c.31-2.553 1.036-5.206 1.877-6.858l.524-1.03 2.833 2.825c1.558 1.553 2.898 2.759 2.978 2.679.08-.08-.024.72-.232 1.777-1.411 7.203 3.08 14.364 10.153 16.187 1.802.465 4.948.54 6.576.158l1.059-.248 2.966 2.952c2.118 2.108 2.891 3.042 2.705 3.266-.673.811-8.245 2.648-10.17 2.467-.145-.014-1.287-.184-2.537-.379zm.156-11.872c-3.925-1.244-6.557-4.2-7.292-8.188-.533-2.892-.378-2.808 5.386 2.922 2.94 2.923 5.525 5.378 5.743 5.455.868.307-2.849.125-3.837-.189z" fill="#7d489c"/><path d="M19.073 43.822c-5.724-.892-10.535-3.593-13.977-7.846C1.542 31.583-.307 25.377.341 20.018c.281-2.322 1.366-6.332 1.783-6.59.115-.07 1.507 1.173 3.093 2.764L8.1 19.085l.02 2.848c.025 3.29.6 5.342 2.164 7.725 2.881 4.387 7.21 6.555 12.586 6.304 1.421-.067 2.519-.056 2.439.024-.08.08 1.192 1.487 2.827 3.126l2.973 2.981-.913.38c-2.013.839-7.117 1.867-8.58 1.729-.149-.014-1.294-.185-2.544-.38zm.486-11.788c-3.7-.872-7.1-4.47-7.526-7.964l-.14-1.141 4.594 4.542c2.527 2.498 4.833 4.597 5.124 4.665.34.08.246.125-.265.128-.437.002-1.24-.101-1.787-.23z" fill="#79489c"/><path d="M19.073 43.829c-5.75-.914-10.54-3.605-13.977-7.853C1.546 31.588-.308 25.373.34 20.036c.29-2.383 1.037-5.31 1.357-5.31.095 0 1.531 1.341 3.192 2.98l3.02 2.98.143 2.047c.532 7.647 6.466 13.292 13.972 13.292 1.058 0 1.84.084 1.738.186-.102.102 1.21 1.585 2.916 3.295l3.102 3.11-.778.3c-2.573.994-6.907 1.393-9.93.913zm-1.862-12.7c-1.676-.872-3.49-2.754-4.349-4.508-.393-.803-.67-1.487-.613-1.518.056-.032 1.595 1.46 3.422 3.316 1.826 1.855 3.195 3.368 3.042 3.36-.152-.006-.828-.299-1.502-.65z" fill="#73489c"/><path d="M19.073 43.831c-5.757-.92-10.54-3.609-13.977-7.855C1.58 31.629-.312 25.354.327 20.15c.32-2.6.502-3.44.745-3.44.096 0 1.596 1.426 3.334 3.169 1.788 1.792 3.234 3.046 3.332 2.888.095-.153.255.339.355 1.094.78 5.878 5.493 10.845 11.4 12.013 1.02.202 1.736.378 1.592.391-.143.014 1.28 1.569 3.162 3.456 1.883 1.886 3.36 3.494 3.28 3.572-.194.195-2.666.609-4.593.77-.874.072-2.61-.032-3.861-.232z" fill="#6b489c"/><path d="M19.073 43.831c-8.503-1.36-15.052-6.779-17.69-14.638-1.1-3.28-1.547-8.661-.832-10.025.228-.437 8.174 7.496 8.656 8.642 1.182 2.811 4.094 5.674 7.26 7.139.937.433 1.586.793 1.443.8-.144.007 1.509 1.785 3.672 3.952 3.172 3.178 3.837 3.967 3.436 4.082-1.256.358-3.87.38-5.945.048z" fill="#5453a2"/><path d="M19.093 43.834C9.184 42.249 1.93 34.905.435 24.944c-.35-2.339-.298-4.987.116-5.776.228-.437 8.174 7.496 8.656 8.642 1.182 2.811 4.094 5.674 7.26 7.139.937.433 1.586.793 1.443.8-.144.007 1.509 1.785 3.672 3.952 3.172 3.178 3.837 3.967 3.436 4.082-1.253.358-3.868.38-5.925.05z" fill="#65489c"/><path d="M19.093 43.825c-8.098-1.263-14.733-6.638-17.478-14.16-.916-2.509-1.67-6.986-1.41-8.371l.176-.936 4.895 4.857c2.692 2.672 4.81 4.679 4.708 4.46-.103-.218.085-.04.416.397.331.437 3.492 3.711 7.023 7.276 5.684 5.738 6.354 6.502 5.834 6.655-.853.25-1.638.216-4.164-.178z" fill="#61489c"/><path d="M19.89 43.94c-8.499-.942-15.814-6.846-18.494-14.926-.736-2.22-1.44-6.59-1.146-7.108.072-.126 5.109 4.748 11.193 10.831 9.648 9.646 11.475 11.618 10.615 11.456-.1-.019-1.076-.133-2.167-.254z" fill="#5d489d"/><path d="M18.127 43.673c-.751-.126-2.344-.585-3.54-1.022-5.975-2.18-10.78-6.98-12.956-12.943C.894 27.69.162 24.171.357 23.586c.048-.144 4.73 4.381 10.405 10.057 11.233 11.237 10.764 10.597 7.365 10.03z" fill="#59489d"/><path d="M15.087 42.813C8.511 40.546 3.565 35.54 1.365 28.928c-1.57-4.72-1.695-4.8 8.603 5.505 10.352 10.36 10.216 10.137 5.119 8.38z" fill="#55489d"/><path d="M14.335 42.558A21.803 21.803 0 011.617 29.67c-.44-1.205-.765-2.354-.722-2.552.043-.2 3.828 3.39 8.41 7.977 5.63 5.633 8.162 8.336 7.806 8.33-.29-.005-1.54-.395-2.776-.867z" fill="#51489d"/><path d="M13.409 42.201c-2.338-1.003-4.915-2.755-6.747-4.588-1.536-1.536-3.68-4.523-4.208-5.863a124.67 124.67 0 00-.684-1.678c-.364-.875.755.134 6.459 5.82 3.795 3.782 6.9 6.907 6.9 6.945 0 .102-.014.097-1.72-.636z" fill="#4b489d"/></svg>
