<svg width="167.156" height="167.047" viewBox="0 0 44.227 44.198" xmlns="http://www.w3.org/2000/svg"><path d="M16.317 43.541c-4.188-1.189-7.074-2.911-10.082-6.017C1.88 33.029.05 28.437.047 22.001.043 15.56 2.122 10.622 6.703 6.186c3.186-3.086 6.455-4.863 10.67-5.8 1.541-.344 2.865-.422 5.639-.335 3.21.102 3.907.211 6.098.96 3.61 1.233 5.878 2.659 8.663 5.443 2.784 2.785 4.21 5.053 5.443 8.663.749 2.191.858 2.889.96 6.098.087 2.774.009 4.097-.334 5.639-.974 4.374-2.996 7.968-6.27 11.138-3.08 2.983-6.014 4.64-10.036 5.667-2.99.764-8.312.708-11.22-.118zm10.015-8.6c2.724-.949 5.812-3.159 5.674-4.06-.107-.698-1.923-1.74-2.413-1.384-.2.146-.871.648-1.49 1.116-1.925 1.456-3.751 1.985-6.501 1.883-2.06-.076-2.63-.207-4.143-.953-2.237-1.102-4.429-3.405-5.275-5.542-.856-2.16-.856-5.665 0-7.824.847-2.139 3.038-4.44 5.276-5.542 1.647-.81 1.93-.865 4.545-.865 2.613 0 2.9.055 4.536.86.961.473 1.858.86 1.993.86.136 0 .657-.425 1.159-.946l.911-.945-.661-.55c-.943-.782-3.596-1.942-5.239-2.29-4.34-.918-9.034.495-12.225 3.678-.806.803-1.78 1.999-2.165 2.656-2.478 4.229-2.478 9.763 0 13.992 1.675 2.859 5.141 5.388 8.588 6.268 1.863.475 5.457.276 7.43-.411zm9.228-15.04c1.476-1.476 1.175-4.043-.581-4.951-1.327-.686-2.534-.52-3.65.504-.89.814-.99 1.04-.99 2.228 0 1.387.666 2.456 1.853 2.977.965.424 2.541.07 3.368-.758zm-2.971-1.384c-.637-.637-.648-.772-.117-1.529.5-.714 1.207-.755 1.796-.104.6.663.548 1.26-.15 1.75-.757.53-.892.52-1.53-.117z" fill="#f5eaf3"/><path d="M17.792 43.91C9.739 42.222 3.318 36.323.798 28.297c-.543-1.727-.62-2.506-.62-6.208 0-3.702.077-4.481.62-6.208C3.838 6.197 12.166 0 22.138 0c12.411 0 22.089 9.678 22.089 22.089 0 9.911-6.145 18.228-15.74 21.303-1.487.476-2.605.61-5.688.678-2.11.047-4.363-.025-5.007-.16zm7.51-8.6c2.056-.536 4.43-1.824 5.935-3.222l1.22-1.134-.794-.668c-1.287-1.082-1.773-1.08-3.211.02-2.284 1.746-3.322 2.083-6.447 2.093-2.601.008-2.888-.045-4.521-.844-2.178-1.066-3.966-2.934-5.079-5.306-.743-1.583-.835-2.04-.835-4.16 0-2.112.093-2.58.823-4.134 2.591-5.522 8.615-7.807 13.971-5.3.983.459 1.922.832 2.087.828.166-.004.718-.355 1.227-.78 1.172-.978.971-1.398-1.234-2.579-5.378-2.88-11.633-1.976-15.984 2.308-4.668 4.597-5.43 11.598-1.862 17.118 3.082 4.769 9.243 7.182 14.704 5.76zm9.677-14.813c.92-.476 1.579-1.634 1.579-2.774 0-2.442-2.548-3.923-4.772-2.773-1.458.754-2.019 2.873-1.15 4.345.888 1.502 2.76 2.02 4.343 1.202zM32.5 18.605c-.386-.385-.165-1.663.333-1.93 1.023-.547 2.151.56 1.607 1.578-.276.516-1.546.746-1.94.352z" fill="#f4d7e8"/><path d="M17.792 43.91C9.739 42.222 3.318 36.323.798 28.297c-.543-1.727-.62-2.506-.62-6.208 0-3.702.077-4.481.62-6.208 1.126-3.589 2.783-6.423 5.319-9.103C8.735 4.012 11.603 2.244 15.655.9c2.086-.692 2.557-.747 6.483-.753 4.103-.007 4.31.02 6.747.858 6.902 2.379 11.959 7.436 14.337 14.338.84 2.436.866 2.644.86 6.747-.007 3.926-.062 4.397-.754 6.482-1.345 4.053-3.113 6.921-5.88 9.54-2.636 2.494-5.46 4.16-8.96 5.28-1.488.477-2.606.61-5.689.679-2.11.047-4.363-.025-5.007-.16zm7.51-8.6c2.056-.536 4.43-1.824 5.935-3.222l1.22-1.134-.794-.668c-1.287-1.082-1.773-1.08-3.211.02-2.284 1.746-3.322 2.083-6.447 2.093-2.601.008-2.888-.045-4.521-.844-2.178-1.066-3.966-2.934-5.079-5.306-.743-1.583-.835-2.04-.835-4.16 0-2.112.093-2.58.823-4.134 2.64-5.628 8.647-7.826 14.19-5.194l1.98.94.955-.786c.525-.432.954-.986.954-1.23 0-.527-1.676-1.63-3.704-2.44-1.831-.732-5.675-.992-7.706-.522-2.426.562-4.721 1.85-6.605 3.709-4.665 4.603-5.426 11.6-1.86 17.118 3.083 4.769 9.244 7.182 14.705 5.76zm9.665-14.807c1.135-.587 1.59-1.408 1.59-2.865 0-1.115-.122-1.413-.899-2.19-.777-.777-1.075-.9-2.19-.9-1.457 0-2.278.456-2.865 1.59a3.21 3.21 0 004.364 4.365zm-2.355-2.09c-.18-.218-.29-.67-.242-1.006.072-.504.247-.61 1.013-.61.882 0 .926.044.926.926 0 .8-.094.937-.684 1.006-.377.044-.832-.099-1.013-.316z" fill="#e8d8e9"/><path d="M16.846 43.628c-2.78-.678-6.472-2.526-8.675-4.343C.14 32.66-2.287 21.495 2.307 12.3 5.032 6.844 9.527 2.96 15.39.992 17.795.186 18.088.15 22.138.144c4.1-.005 4.312.022 6.747.86 6.902 2.379 11.959 7.436 14.337 14.338.84 2.435.866 2.646.861 6.747-.005 4.05-.042 4.343-.849 6.747-1.397 4.166-4.003 7.954-7.273 10.572-2.217 1.774-5.916 3.583-8.664 4.236-2.994.711-7.494.704-10.45-.016zm8.564-8.297c2.077-.553 4.187-1.696 5.708-3.093 1.273-1.168 1.317-1.253.893-1.72-.245-.27-.796-.698-1.224-.95-.775-.457-.786-.454-2.01.481-3.934 3.004-8.655 3.289-12.518.756-3.386-2.22-5.317-6.609-4.581-10.416.675-3.495 2.62-6.065 5.767-7.62 1.91-.944 2.157-.999 4.547-.999 2.362 0 2.659.063 4.55.966l2.022.966.954-.787c.525-.432.954-.986.954-1.23 0-.527-1.676-1.63-3.704-2.44-1.805-.721-5.574-.98-7.731-.533-5.202 1.08-9.61 5.753-10.537 11.168-1.156 6.76 3.262 13.59 9.984 15.438 1.712.47 5.182.477 6.926.013zm9.557-14.828c1.135-.587 1.59-1.408 1.59-2.865 0-1.115-.122-1.413-.899-2.19-.777-.777-1.075-.9-2.19-.9-1.457 0-2.278.456-2.865 1.59a3.21 3.21 0 004.364 4.365zm-2.355-2.09c-.18-.218-.29-.67-.242-1.006.072-.504.247-.61 1.013-.61.882 0 .926.044.926.926 0 .8-.094.937-.684 1.006-.377.044-.832-.099-1.013-.316z" fill="#edc2dd"/><path d="M16.846 43.628c-2.78-.678-6.472-2.526-8.675-4.343C.14 32.66-2.287 21.495 2.307 12.3 6.299 4.307 14.29-.372 23.182.074c3.538.177 6.043.848 9.132 2.448 4.178 2.163 7.228 5.212 9.391 9.39 1.6 3.09 2.27 5.594 2.448 9.132.533 10.623-6.58 20.16-16.856 22.6-2.994.711-7.494.704-10.45-.016zm8.564-8.297c2.077-.553 4.187-1.696 5.708-3.093 1.273-1.168 1.317-1.253.893-1.72-.245-.27-.796-.698-1.224-.95-.775-.457-.786-.454-2.01.481-4.934 3.767-11.3 3.139-14.946-1.474-3.994-5.053-2.51-12.583 3.062-15.545 3.215-1.708 6.614-1.762 9.829-.155.822.411 1.574.783 1.671.827.32.144 2.08-1.579 2.08-2.036 0-.59-2.451-2.057-4.507-2.697-1.079-.336-2.404-.506-3.936-.506-3.854 0-6.565 1.076-9.404 3.731-2.131 1.994-3.63 4.785-4.126 7.686-1.156 6.76 3.262 13.59 9.984 15.438 1.712.47 5.182.477 6.926.013zM35.471 20.22c2.682-2.257.387-6.577-2.997-5.643-1.945.537-2.85 2.837-1.866 4.74.852 1.65 3.412 2.124 4.863.903zm-2.83-1.756c-.756-.756-.06-1.912 1.058-1.753 1.118.158.845 2.07-.296 2.07-.244 0-.587-.142-.761-.317z" fill="#d6cee4"/><path d="M17.64 43.789c-7.463-1.65-13.715-7.044-16.233-14.003-1.141-3.153-1.453-5.28-1.3-8.864.236-5.543 2.4-10.398 6.433-14.43C11.072 1.96 16.793-.248 23.182.073c3.538.177 6.043.848 9.132 2.448 4.178 2.163 7.228 5.212 9.391 9.39 1.6 3.09 2.27 5.594 2.448 9.132.549 10.95-6.86 20.471-17.702 22.752-2.241.471-6.663.468-8.811-.007zm7.533-8.36c1.867-.43 4.328-1.722 5.8-3.045.743-.669 1.351-1.354 1.35-1.522 0-.169-.533-.643-1.185-1.055l-1.186-.75-1.147.94c-.632.518-1.854 1.27-2.717 1.673-1.366.637-1.895.733-4.083.735-2.28.002-2.678-.075-4.297-.842-6.609-3.13-8.222-11.664-3.162-16.724 3.3-3.3 7.99-4.056 12.176-1.964.822.411 1.574.783 1.671.827.32.144 2.08-1.579 2.08-2.036 0-.256-.612-.816-1.44-1.318-3.994-2.42-9.168-2.56-13.51-.363-1.806.914-4.861 4.062-5.76 5.936-2.73 5.692-1.545 12.06 3.02 16.222 1.718 1.566 3.58 2.625 5.546 3.153 1.68.452 5.167.52 6.844.133zm10.298-15.21c2.682-2.256.387-6.576-2.997-5.642-1.945.537-2.85 2.837-1.866 4.74.852 1.65 3.412 2.124 4.863.903zm-2.83-1.755c-.756-.756-.06-1.912 1.058-1.753 1.118.158.845 2.07-.296 2.07-.244 0-.587-.142-.761-.317z" fill="#d1c1dd"/><path d="M17.633 43.778C7.373 41.524.045 32.53.045 22.193.045 9.447 10.514-.561 23.182.073c3.538.178 6.043.85 9.132 2.449 4.178 2.163 7.228 5.212 9.391 9.39 1.6 3.09 2.27 5.594 2.448 9.132.55 10.967-6.88 20.5-17.705 22.72-2.425.497-6.588.504-8.815.014zm8.38-8.583c.924-.285 2.276-.892 3.004-1.348 1.483-.93 3.307-2.592 3.307-3.014 0-.153-.534-.614-1.186-1.026l-1.186-.75-1.147.94c-.632.518-1.854 1.27-2.717 1.673-1.366.637-1.895.733-4.083.735-2.283.002-2.677-.075-4.306-.846-9.197-4.357-7.575-17.628 2.407-19.69 2.072-.427 4.481-.061 6.616 1.006.822.411 1.574.783 1.671.827.32.144 2.08-1.579 2.08-2.036 0-.256-.612-.816-1.44-1.318-3.994-2.42-9.168-2.56-13.51-.363-1.796.909-4.894 4.071-5.767 5.886-2.631 5.476-1.764 11.234 2.347 15.593 2.762 2.928 5.737 4.213 9.808 4.237 1.692.01 2.926-.142 4.102-.506zM35.47 20.22c2.682-2.257.387-6.577-2.997-5.643-1.945.537-2.85 2.837-1.866 4.74.852 1.65 3.412 2.124 4.863.903zm-2.83-1.756c-.756-.756-.06-1.912 1.058-1.753 1.118.158.845 2.07-.296 2.07-.244 0-.587-.142-.761-.317z" fill="#eab1d3"/><path d="M17.633 43.778C7.373 41.524.045 32.53.045 22.193c0-15.287 15.028-25.984 29.367-20.905C41.357 5.52 47.261 18.576 42.587 30.423c-2.659 6.741-8.83 11.842-16.139 13.34-2.425.498-6.588.505-8.815.015zm8.38-8.583c.924-.285 2.276-.892 3.004-1.348 1.483-.93 3.307-2.592 3.307-3.014 0-.153-.534-.614-1.186-1.026l-1.186-.75-1.147.94c-.632.518-1.854 1.27-2.717 1.673-1.366.637-1.895.733-4.083.735-2.283.002-2.677-.075-4.306-.846-9.174-4.346-7.576-17.627 2.368-19.681 2.086-.431 4.526-.043 6.709 1.066 1.77.9 1.99.868 3.258-.464l.753-.791-.579-.58c-.994-.993-4.225-2.35-6.284-2.64-4.338-.608-8.328.781-11.553 4.023-4.35 4.37-5.322 10.215-2.625 15.781.894 1.846 3.651 4.756 5.416 5.716 3.288 1.79 7.462 2.254 10.85 1.206zm9.448-14.967c1.544-1.299 1.653-3.317.259-4.8-2.307-2.456-6.389-.074-5.485 3.2.598 2.165 3.499 3.054 5.226 1.6zm-2.862-1.83c-.702-.847.33-2.148 1.247-1.571.916.577.59 1.955-.463 1.955-.256 0-.608-.173-.784-.384z" fill="#d5b8d8"/><path d="M17.633 43.795C8.627 41.723 1.883 34.7.303 25.749c-.446-2.529-.198-7.045.527-9.58A22.199 22.199 0 0112.583 2.259C15.523.85 17.671.285 20.87.078c13.02-.845 24.124 10.26 23.28 23.28-.208 3.197-.773 5.346-2.18 8.286-2.74 5.722-7.784 9.986-13.912 11.76-2.51.726-8.061.934-10.424.39zm8.095-8.506a19.71 19.71 0 002.729-1.08c1.409-.714 3.867-2.869 3.867-3.39 0-.179-.492-.65-1.093-1.049-1.24-.82-1.415-.78-3.356.786-2.65 2.137-6.89 2.53-10.267.95-6.467-3.027-8.02-11.66-3-16.68 3.28-3.278 7.987-4.007 12.168-1.882 1.77.9 1.99.868 3.258-.464l.753-.791-.579-.58c-.994-.993-4.225-2.35-6.284-2.64-5.08-.712-10.293 1.575-13.146 5.77-1.529 2.249-2.272 4.387-2.453 7.056-.26 3.835.999 7.222 3.778 10.169 2.757 2.922 5.739 4.213 9.788 4.237 1.476.009 2.953-.15 3.837-.412zm9.733-15.06c1.544-1.3 1.653-3.318.259-4.802-2.307-2.455-6.389-.073-5.485 3.2.598 2.166 3.499 3.055 5.226 1.601zM32.6 18.397c-.702-.847.33-2.148 1.247-1.571.916.577.59 1.955-.463 1.955-.256 0-.608-.173-.784-.384z" fill="#c8b8d8"/><path d="M18.83 44.015c-7.356-1.42-13.038-5.528-16.264-11.758C.685 28.623.182 26.472.187 22.09c.006-4.302.346-5.857 2.084-9.525C4.424 8.02 7.988 4.458 12.583 2.258 15.523.85 17.671.285 20.87.078c13.02-.845 24.124 10.26 23.28 23.28-.208 3.197-.773 5.346-2.18 8.286-2.755 5.755-8.054 10.163-14.275 11.876-1.56.429-7.489.76-8.864.495zm6.868-8.742a17.83 17.83 0 002.747-1.059c1.419-.719 3.88-2.872 3.88-3.395 0-.328-1.9-1.719-2.348-1.719-.132 0-.82.479-1.527 1.064-1.91 1.58-3.734 2.205-6.445 2.206-3.608.002-6.674-1.578-8.553-4.41-1.424-2.144-1.85-3.755-1.713-6.471.141-2.804 1.005-4.794 2.91-6.702 3.234-3.237 7.967-3.957 12.127-1.843 1.77.9 1.99.868 3.258-.464l.753-.791-.579-.58c-.319-.318-1.431-.982-2.473-1.475C18.784 5.4 8.247 12.134 8.247 22.09c0 6.821 5.292 12.799 12.036 13.595 1.95.23 3.522.111 5.415-.411zm9.763-15.045c1.544-1.299 1.653-3.317.259-4.8-2.307-2.456-6.389-.074-5.485 3.2.598 2.165 3.499 3.054 5.226 1.6zm-2.862-1.83c-.702-.847.33-2.148 1.247-1.571.916.577.59 1.955-.463 1.955-.256 0-.608-.173-.784-.384z" fill="#e998c5"/><path d="M18.83 44.015c-7.356-1.42-13.038-5.528-16.264-11.758C.685 28.623.182 26.472.187 22.09c.006-4.302.346-5.857 2.084-9.525C8.657-.915 26.401-4.16 37.268 6.163c11.199 10.637 8.29 29.213-5.605 35.792-1.31.62-3.096 1.324-3.969 1.565-1.56.429-7.489.76-8.864.495zm6.868-8.742a17.83 17.83 0 002.747-1.059c1.419-.719 3.88-2.872 3.88-3.395 0-.328-1.9-1.719-2.348-1.719-.132 0-.82.479-1.527 1.064-1.91 1.58-3.734 2.205-6.445 2.206-1.658.001-2.611-.142-3.63-.547-3.007-1.195-5.314-3.626-6.3-6.638-.7-2.145-.453-5.534.556-7.58 2.004-4.064 6.525-6.474 10.814-5.763.93.154 2.475.67 3.435 1.148l1.744.868 1.056-1.031c.581-.568 1.057-1.121 1.057-1.23 0-.34-2.256-1.77-3.67-2.326-8.925-3.519-18.82 3.22-18.82 12.818 0 6.821 5.292 12.799 12.036 13.595 1.95.23 3.522.111 5.415-.411zm9.639-14.927c.835-.657 1.485-1.83 1.485-2.68 0-.984-.894-2.375-1.872-2.914-3.389-1.867-6.623 2.971-3.656 5.468 1.054.887 2.998.948 4.043.126zm-2.738-1.948c-.702-.847.33-2.148 1.247-1.571.916.577.59 1.955-.463 1.955-.256 0-.608-.173-.784-.384z" fill="#b4aad0"/><path d="M18.037 43.801c-7.952-1.685-14.05-6.958-16.7-14.437-3.615-10.205.78-21.535 10.35-26.682 8.393-4.514 18.632-3.12 25.581 3.481 6.015 5.714 8.32 14.121 6.034 22.011-2.236 7.716-7.91 13.172-16 15.388-2.05.561-7.129.692-9.265.24zm7.692-8.477c.666-.19 1.842-.667 2.615-1.058 1.5-.76 3.98-2.908 3.98-3.447 0-.328-1.898-1.719-2.347-1.719-.132 0-.82.479-1.527 1.064-.707.585-1.894 1.291-2.638 1.57-5.23 1.96-10.75-.253-13.166-5.28-.756-1.572-.827-1.945-.827-4.365 0-2.425.07-2.794.843-4.425 1.448-3.056 4.127-5.11 7.565-5.796 2.033-.407 4.374-.012 6.653 1.122l1.744.868 1.056-1.031c.581-.568 1.057-1.121 1.057-1.23 0-.34-2.256-1.77-3.67-2.326-3.632-1.432-7.458-1.253-11.064.518-10.33 5.075-10.357 19.496-.045 24.582 3.217 1.586 6.459 1.903 9.771.953zm9.608-14.978c.835-.657 1.485-1.83 1.485-2.68 0-.984-.894-2.375-1.872-2.914-3.389-1.867-6.623 2.971-3.656 5.468 1.054.887 2.998.948 4.043.126zm-2.738-1.948c-.702-.847.33-2.148 1.247-1.571.916.577.59 1.955-.463 1.955-.256 0-.608-.173-.784-.384z" fill="#cf96c5"/><path d="M18.037 43.801C2.769 40.565-4.595 24.041 3.257 10.638c1.326-2.261 5.51-6.314 7.9-7.65 8.7-4.866 18.955-3.623 26.099 3.163 7.455 7.082 9.05 17.858 3.983 26.918-1.337 2.39-5.39 6.575-7.65 7.9-1.8 1.054-4.017 1.975-6.176 2.564-2.149.586-7.195.73-9.376.268zm7.692-8.477c2.64-.756 6.595-3.36 6.595-4.342 0-.498-1.808-1.882-2.458-1.882-.194 0-.68.342-1.08.759-1.052 1.098-3.268 2.133-5.28 2.467-4.405.73-8.845-1.67-10.862-5.871-.754-1.572-.825-1.948-.825-4.366 0-2.356.083-2.826.76-4.292.48-1.039 1.27-2.128 2.139-2.95 3.478-3.29 8.067-4.001 12.03-1.866.79.426 1.57.774 1.733.774.163 0 .767-.485 1.342-1.078l1.046-1.078-.794-.648c-1.758-1.433-5.611-2.743-8.07-2.743-1.62 0-4.574.753-6.326 1.614-2.116 1.039-4.62 3.502-5.77 5.674-3.72 7.029-1.045 15.376 6.05 18.875 3.216 1.586 6.458 1.903 9.77.953zm9.438-14.84c.819-.537 1.653-1.931 1.654-2.765.002-1.031-.872-2.417-1.871-2.967-2.478-1.365-5.634 1.196-4.755 3.859.722 2.187 3.116 3.089 4.972 1.872zM32.6 18.397c-.702-.847.33-2.148 1.247-1.571.916.577.59 1.955-.463 1.955-.256 0-.608-.173-.784-.384z" fill="#d585bb"/><path d="M18.037 43.801C2.779 40.567-4.621 23.967 3.259 10.652 4.47 8.604 7.7 5.252 9.812 3.85c8.732-5.799 19.907-4.857 27.456 2.314 9.244 8.78 9.19 23.147-.12 31.956-2.927 2.77-5.705 4.314-9.735 5.414-2.149.586-7.195.73-9.376.268zm7.692-8.477c2.64-.756 6.595-3.36 6.595-4.342 0-.498-1.808-1.882-2.458-1.882-.194 0-.68.342-1.08.759-1.052 1.098-3.268 2.133-5.28 2.467-4.405.73-8.845-1.67-10.862-5.871-.754-1.572-.825-1.948-.825-4.366 0-2.356.083-2.826.76-4.292.932-2.017 2.997-4.051 5.126-5.049 1.351-.633 1.836-.713 4.306-.713 2.606 0 2.895.055 4.53.86.961.473 1.852.855 1.98.85.127-.006.696-.408 1.264-.894 1.25-1.07 1.17-1.448-.533-2.528-3.234-2.05-7.928-2.607-11.55-1.368C6 12.957 4.905 28.92 15.958 34.371c3.217 1.586 6.459 1.903 9.771.953zm9.225-14.645c.97-.52 1.868-1.91 1.868-2.894 0-1.775-1.63-3.498-3.311-3.5-1.755-.002-3.57 1.745-3.567 3.434.002 1.496 1.947 3.44 3.443 3.443.366 0 1.07-.217 1.567-.483zm-2.227-2.326c-.516-.516-.439-1.129.193-1.526.916-.577 1.949.724 1.246 1.57-.417.502-.908.487-1.44-.044z" fill="#ea75b1"/><path d="M18.037 43.801C2.779 40.567-4.621 23.967 3.259 10.652 4.47 8.604 7.7 5.252 9.812 3.85 13.724 1.251 17.476.132 22.138.173c3.869.034 6.37.627 9.79 2.32 5.7 2.825 9.887 8.013 11.541 14.304.8 3.041.818 7.708.04 10.584-1.2 4.44-3.106 7.658-6.362 10.738-2.926 2.77-5.704 4.314-9.734 5.414-2.149.586-7.195.73-9.376.268zm7.692-8.477c2.64-.756 6.595-3.36 6.595-4.342 0-.498-1.808-1.882-2.458-1.882-.194 0-.68.342-1.08.759-1.052 1.098-3.268 2.133-5.28 2.467-4.405.73-8.845-1.67-10.862-5.871-.754-1.572-.825-1.948-.825-4.366 0-2.356.083-2.826.76-4.292.932-2.017 2.997-4.051 5.126-5.049 1.351-.633 1.836-.713 4.306-.713 2.606 0 2.895.055 4.53.86.961.473 1.852.855 1.98.85.127-.006.696-.408 1.264-.894 1.25-1.07 1.17-1.448-.533-2.528-3.234-2.05-7.928-2.607-11.55-1.368C6 12.957 4.905 28.92 15.958 34.371c3.217 1.586 6.459 1.903 9.771.953zm9.225-14.645c1.038-.556 1.869-1.928 1.867-3.084-.002-1.67-1.669-3.311-3.363-3.311-1.705 0-3.516 1.77-3.514 3.435.002 1.496 1.947 3.44 3.443 3.443.366 0 1.07-.217 1.567-.483zm-2.227-2.326c-.516-.516-.439-1.129.193-1.526.916-.577 1.949.724 1.246 1.57-.417.502-.908.487-1.44-.044z" fill="#b094c5"/><path d="M18.037 43.784C6.059 41.364-1.768 29.988.46 18.24 2.108 9.554 8.182 3.06 16.846.717c2.876-.777 7.543-.76 10.583.04C33.71 2.41 38.935 6.624 41.737 12.3c1.692 3.426 2.283 5.926 2.317 9.79.03 3.473-.469 5.943-1.818 8.996-2.266 5.13-7.042 9.632-12.317 11.612-3.723 1.398-8.282 1.815-11.882 1.087zm6.657-8.187c2.247-.476 4.186-1.404 6.109-2.922 1.836-1.45 1.923-1.991.468-2.91-1.331-.84-1.463-.834-2.56.13-5.119 4.494-13.221 2.673-16.179-3.638-.625-1.335-.713-1.847-.713-4.168 0-2.317.088-2.834.71-4.159.99-2.112 2.847-4.005 4.945-5.038 1.63-.802 1.92-.857 4.531-.857 2.613 0 2.9.054 4.536.86.961.473 1.852.855 1.98.85.127-.006.696-.408 1.264-.894 1.25-1.07 1.17-1.448-.533-2.528-3.234-2.05-7.928-2.607-11.55-1.368-5.744 1.964-9.455 7.174-9.455 13.274 0 6.348 4.603 11.978 10.914 13.35 2.16.469 3.387.473 5.533.018zm10.26-14.918c1.038-.556 1.869-1.928 1.867-3.084-.002-1.67-1.669-3.311-3.363-3.311-1.705 0-3.516 1.77-3.514 3.435.002 1.496 1.947 3.44 3.443 3.443.366 0 1.07-.217 1.567-.483zm-2.227-2.326c-.516-.516-.439-1.129.193-1.526.916-.577 1.949.724 1.246 1.57-.417.502-.908.487-1.44-.044z" fill="#9792c4"/><path d="M17.763 43.668C8.855 41.788 2.167 34.935.46 25.938c-1.289-6.793.831-13.8 5.74-18.967C9.189 3.825 12.46 1.902 16.846.717c2.876-.777 7.543-.76 10.583.04C33.71 2.41 38.935 6.624 41.737 12.3c1.692 3.426 2.283 5.926 2.317 9.79.03 3.473-.469 5.943-1.818 8.996-4.11 9.302-14.56 14.675-24.473 12.583zm6.931-8.071c2.247-.476 4.186-1.404 6.109-2.922 1.836-1.45 1.923-1.991.468-2.91-1.331-.84-1.463-.834-2.56.13-5.119 4.494-13.221 2.673-16.179-3.638-.625-1.335-.713-1.847-.713-4.168 0-2.317.088-2.834.71-4.159.99-2.112 2.847-4.005 4.945-5.038 1.63-.802 1.92-.857 4.531-.857 2.613 0 2.9.054 4.536.86.961.473 1.852.855 1.98.85.127-.006.696-.408 1.264-.894 1.25-1.07 1.17-1.448-.533-2.528-3.234-2.05-7.928-2.607-11.55-1.368-5.752 1.967-9.455 7.174-9.455 13.294 0 6.337 4.58 11.959 10.848 13.316 2.229.483 3.44.49 5.6.032zm10.26-14.918c1.038-.556 1.869-1.928 1.867-3.084-.002-1.67-1.669-3.311-3.363-3.311-1.705 0-3.516 1.77-3.514 3.435.002 1.496 1.947 3.44 3.443 3.443.366 0 1.07-.217 1.567-.483zm-2.227-2.326c-.516-.516-.439-1.129.193-1.526.916-.577 1.949.724 1.246 1.57-.417.502-.908.487-1.44-.044z" fill="#cd70b0"/><path d="M17.763 43.668c-4.54-.958-8.368-3.097-11.563-6.461C1.29 32.04-.83 25.033.46 18.239 2.102 9.587 8.213 3.07 16.846.762c2.943-.786 7.619-.79 10.583-.007 2.772.732 6.464 2.58 8.546 4.277 3.503 2.856 6.306 7.256 7.497 11.765.782 2.965.78 7.64-.007 10.584-2.307 8.633-8.825 14.744-17.478 16.386-2.802.531-5.384.5-8.224-.1zm6.931-8.071c2.247-.476 4.186-1.404 6.109-2.922 1.836-1.45 1.923-1.991.468-2.91-1.331-.84-1.463-.834-2.56.13-5.119 4.494-13.221 2.673-16.179-3.638-.625-1.335-.713-1.847-.713-4.168 0-2.317.088-2.834.71-4.159.99-2.112 2.847-4.005 4.945-5.038 1.63-.802 1.922-.857 4.526-.857 2.616 0 2.886.052 4.48.86.932.473 1.828.86 1.99.86.441 0 2.267-1.577 2.267-1.958 0-.562-1.109-1.41-2.997-2.293-9.082-4.248-19.493 2.56-19.493 12.745 0 6.337 4.58 11.959 10.848 13.316 2.229.483 3.44.49 5.6.032zM34.84 20.782c1.792-.749 2.51-3.117 1.464-4.832-1.338-2.194-4.505-2.194-5.843 0-.99 1.623-.365 3.81 1.35 4.73 1.087.582 1.82.607 3.03.102zm-2.1-2.416c-.229-.229-.416-.518-.416-.643 0-.34.785-1.058 1.157-1.058.418 0 .96.542.96.96 0 .371-.719 1.157-1.058 1.157-.125 0-.414-.187-.643-.416z" fill="#ac84bc"/><path d="M17.763 43.668c-4.54-.958-8.368-3.097-11.563-6.461C1.29 32.04-.83 25.033.46 18.239 2.097 9.611 8.237 3.062 16.846.762c2.943-.786 7.619-.79 10.583-.007 2.772.732 6.464 2.58 8.546 4.277 3.503 2.856 6.306 7.256 7.497 11.765.782 2.965.78 7.64-.007 10.584-3.1 11.601-14.294 18.695-25.702 16.287zm8.622-8.487c2.706-.931 5.94-3.239 5.94-4.24 0-.515-1.687-1.84-2.342-1.84-.202 0-.794.374-1.316.833-5.019 4.406-13.23 2.53-16.137-3.686-.62-1.324-.708-1.844-.708-4.159 0-2.315.088-2.835.708-4.159.987-2.111 2.845-4.004 4.944-5.038 1.63-.802 1.922-.857 4.526-.857 2.616 0 2.886.052 4.48.86.932.473 1.828.86 1.99.86.441 0 2.267-1.577 2.267-1.958 0-1.057-3.844-3-6.767-3.421-4.374-.63-8.589.817-11.754 4.035-2.742 2.788-3.96 5.772-3.966 9.716-.013 9.333 9.354 16.075 18.135 13.054zm8.455-14.399c1.792-.749 2.51-3.117 1.464-4.832-1.338-2.194-4.505-2.194-5.843 0-.99 1.623-.365 3.81 1.35 4.73 1.087.582 1.82.607 3.03.102zm-2.1-2.416c-.229-.229-.416-.518-.416-.643 0-.34.785-1.058 1.157-1.058.418 0 .96.542.96.96 0 .371-.719 1.157-1.058 1.157-.125 0-.414-.187-.643-.416z" fill="#e85aa2"/><path d="M17.763 43.668c-4.54-.958-8.368-3.097-11.563-6.461C1.29 32.04-.83 25.033.46 18.239 2.302 8.532 9.755 1.577 19.738.25c6.003-.8 13.3 1.802 17.869 6.371 4.568 4.569 7.17 11.866 6.371 17.869-1.744 13.105-13.666 21.827-26.215 19.179zm8.622-8.487c2.706-.931 5.94-3.239 5.94-4.24 0-.515-1.687-1.84-2.342-1.84-.202 0-.794.374-1.316.833-5.019 4.406-13.23 2.53-16.137-3.686-.62-1.324-.708-1.844-.708-4.159 0-2.315.088-2.835.708-4.159.987-2.111 2.845-4.004 4.944-5.038 1.63-.802 1.922-.857 4.526-.857 2.616 0 2.886.052 4.48.86.932.473 1.828.86 1.99.86.441 0 2.267-1.577 2.267-1.958 0-1.057-3.844-3-6.767-3.421-4.374-.63-8.589.817-11.754 4.035-2.742 2.788-3.96 5.772-3.966 9.716-.013 9.333 9.354 16.075 18.135 13.054zm8.455-14.399c1.792-.749 2.51-3.117 1.464-4.832-1.338-2.194-4.505-2.194-5.843 0-.99 1.623-.365 3.81 1.35 4.73 1.087.582 1.82.607 3.03.102zm-2.1-2.416c-.229-.229-.416-.518-.416-.643 0-.34.785-1.058 1.157-1.058.418 0 .96.542.96.96 0 .371-.719 1.157-1.058 1.157-.125 0-.414-.187-.643-.416z" fill="#9784bc"/><path d="M18.258 43.785C5.642 41.39-2.393 28.89.82 16.66 3.173 7.71 10.33 1.5 19.738.25c6.003-.8 13.3 1.802 17.869 6.371 4.568 4.569 7.17 11.866 6.371 17.869-1.484 11.158-10.013 19.086-21.046 19.567-1.686.073-3.382-.025-4.674-.27zm8.092-8.587c2.75-.954 5.974-3.252 5.974-4.257 0-.515-1.686-1.84-2.341-1.84-.202 0-.794.374-1.316.833-4.035 3.543-10.575 3.098-14.295-.973-1.89-2.069-2.534-3.841-2.545-7.01-.007-2.315.062-2.66.85-4.261 1.032-2.098 2.925-3.956 5.037-4.946 1.34-.628 1.831-.71 4.291-.71 2.61 0 2.881.053 4.475.86.932.474 1.828.86 1.99.86.441 0 2.267-1.576 2.267-1.957 0-1.057-3.844-3-6.767-3.421-6.851-.987-13.55 3.457-15.339 10.176-.44 1.657-.49 5.137-.097 6.844.707 3.07 3.119 6.45 5.873 8.23 1.407.909 3.793 1.862 5.482 2.188 1.337.259 4.927-.084 6.461-.616zm8.49-14.416c1.792-.749 2.51-3.117 1.464-4.832-1.338-2.194-4.505-2.194-5.843 0-.99 1.623-.365 3.81 1.35 4.73 1.087.582 1.82.607 3.03.102zm-2.1-2.416c-.229-.229-.416-.518-.416-.643 0-.34.785-1.058 1.157-1.058.418 0 .96.542.96.96 0 .371-.719 1.157-1.058 1.157-.125 0-.414-.187-.643-.416z" fill="#aa72b2"/><path d="M18.258 43.785C10.75 42.36 4.312 37.065 1.63 30.115-2.978 18.163 3.471 4.874 15.715 1.096 18.878.12 21.608-.105 24.719.353c10.384 1.531 17.623 8.771 19.155 19.155.327 2.224.347 3.157.104 4.981-1.244 9.35-7.492 16.554-16.412 18.923-2.647.703-6.714.866-9.308.373zm8.3-8.675c2.154-.782 4.152-2.036 5.268-3.307l.839-.955-.898-.752c-1.392-1.165-1.854-1.172-3.315-.05-2.3 1.764-3.32 2.096-6.45 2.096-2.61.001-2.893-.053-4.544-.865-7.826-3.85-7.548-14.945.468-18.642 1.09-.503 1.75-.6 4.08-.6 2.61 0 2.88.052 4.474.86.932.473 1.828.86 1.99.86.441 0 2.267-1.577 2.267-1.958 0-1.057-3.844-3-6.767-3.421-6.93-.998-13.89 3.696-15.437 10.413-.351 1.524-.35 5.08.001 6.607.707 3.07 3.119 6.45 5.873 8.23 1.407.909 3.793 1.862 5.482 2.188 1.49.288 4.94-.076 6.669-.704zm8.282-14.328c1.792-.749 2.51-3.117 1.464-4.832-1.338-2.194-4.505-2.194-5.843 0-.99 1.623-.365 3.81 1.35 4.73 1.087.582 1.82.607 3.03.102zm-2.1-2.416c-.229-.229-.416-.518-.416-.643 0-.34.785-1.058 1.157-1.058.418 0 .96.542.96.96 0 .371-.719 1.157-1.058 1.157-.125 0-.414-.187-.643-.416z" fill="#e94a9a"/><path d="M18.258 43.785C10.75 42.36 4.312 37.065 1.63 30.115-2.975 18.17 3.472 4.874 15.698 1.1c4.262-1.315 8.526-1.281 12.908.102l1.971.623 5.908 5.898 5.907 5.898.626 1.985c.956 3.026 1.308 6.363.95 8.982-1.273 9.294-7.52 16.464-16.402 18.823-2.647.703-6.714.866-9.308.373zm8.3-8.675c2.154-.782 4.152-2.036 5.268-3.307l.839-.955-.898-.752c-1.392-1.165-1.854-1.172-3.315-.05-2.3 1.764-3.32 2.096-6.45 2.096-2.61.001-2.893-.053-4.544-.865-7.826-3.85-7.548-14.945.468-18.642 1.09-.503 1.75-.6 4.08-.6 2.61 0 2.88.052 4.474.86.932.473 1.828.86 1.99.86.441 0 2.267-1.577 2.267-1.958 0-1.057-3.844-3-6.767-3.421-6.93-.998-13.89 3.696-15.437 10.413-.351 1.524-.35 5.08.001 6.607.707 3.07 3.119 6.45 5.873 8.23 1.407.909 3.793 1.862 5.482 2.188 1.49.288 4.94-.076 6.669-.704zm8.282-14.328c1.792-.749 2.51-3.117 1.464-4.832-1.338-2.194-4.505-2.194-5.843 0-.99 1.623-.365 3.81 1.35 4.73 1.087.582 1.82.607 3.03.102zm-2.1-2.416c-.229-.229-.416-.518-.416-.643 0-.34.785-1.058 1.157-1.058.418 0 .96.542.96.96 0 .371-.719 1.157-1.058 1.157-.125 0-.414-.187-.643-.416z" fill="#cb59a3"/><path d="M18.258 43.785c-5.92-1.124-11.273-4.674-14.53-9.636C-3.55 23.065.665 7.984 12.612 2.36 16.664.45 20.848-.23 24.826.37c5.082.768 5.008.721 11.672 7.37l5.894 5.881.625 1.985c1.036 3.289 1.296 6.143.837 9.18-.658 4.346-1.923 7.507-4.237 10.586-2.111 2.808-5.546 5.531-8.744 6.933-3.631 1.592-8.821 2.2-12.615 1.48zm8.3-8.675c2.154-.782 4.152-2.036 5.268-3.307l.839-.955-.898-.752c-1.392-1.165-1.854-1.172-3.315-.05-2.3 1.764-3.32 2.096-6.45 2.096-2.61.001-2.893-.053-4.544-.865-7.826-3.85-7.548-14.945.468-18.642 1.078-.497 1.755-.6 3.953-.6 2.456 0 2.78.063 4.398.86.96.473 1.964.86 2.23.86.618 0 2.23-1.549 2.23-2.141 0-.536-1.943-1.827-3.969-2.637-2.046-.817-5.956-1.008-8.073-.392-5.085 1.478-9.075 5.484-10.162 10.204-.351 1.524-.35 5.08.001 6.607.707 3.07 3.119 6.45 5.873 8.23 1.407.909 3.793 1.862 5.482 2.188 1.49.288 4.94-.076 6.669-.704zm8.402-14.339c1.277-.66 1.862-1.639 1.862-3.114 0-1.18-.109-1.428-1.027-2.346-.926-.926-1.16-1.027-2.385-1.027-1.166 0-1.492.123-2.306.869-2.939 2.693.323 7.445 3.856 5.618zm-2.195-2.43c-.351-.352-.165-1.134.335-1.402.726-.388 1.455.341 1.066 1.067-.267.5-1.05.686-1.4.335z" fill="#e34a9a"/><path d="M18.258 43.785c-4.334-.823-8.048-2.728-11.25-5.77-8.778-8.338-9.223-21.684-1.026-30.801C10.427 2.27 17.822-.51 24.378.297l2.505.308 8.369 8.36 8.369 8.362.309 2.513c.804 6.55-1.973 13.939-6.922 18.417-1.645 1.489-4.317 3.252-6.135 4.049-3.631 1.592-8.821 2.2-12.615 1.48zm8.3-8.675c2.154-.782 4.152-2.036 5.268-3.307l.839-.955-.898-.752c-1.392-1.165-1.854-1.172-3.315-.05-2.3 1.764-3.32 2.096-6.45 2.096-2.61.001-2.893-.053-4.544-.865-7.826-3.85-7.548-14.945.468-18.642 1.078-.497 1.755-.6 3.953-.6 2.456 0 2.78.063 4.398.86.96.473 1.964.86 2.23.86.618 0 2.23-1.549 2.23-2.141 0-.536-1.943-1.827-3.969-2.637-2.046-.817-5.956-1.008-8.073-.392-5.085 1.478-9.075 5.484-10.162 10.204-.351 1.524-.35 5.08.001 6.607.707 3.07 3.119 6.45 5.873 8.23 1.407.909 3.793 1.862 5.482 2.188 1.49.288 4.94-.076 6.669-.704zm8.402-14.339c1.277-.66 1.862-1.639 1.862-3.114 0-1.18-.109-1.428-1.027-2.346-.926-.926-1.16-1.027-2.385-1.027-1.166 0-1.492.123-2.306.869-2.939 2.693.323 7.445 3.856 5.618zm-2.195-2.43c-.351-.352-.165-1.134.335-1.402.726-.388 1.455.341 1.066 1.067-.267.5-1.05.686-1.4.335z" fill="#db4a9a"/><path d="M18.258 43.785C10.75 42.36 4.312 37.065 1.63 30.115-2.664 18.977 2.66 6.438 13.613 1.892 15.914.937 19.115.245 21.539.178l1.783-.05 10.313 10.31c6.78 6.776 10.366 10.547 10.466 11.004.21.957-.517 5.568-1.206 7.65-1.93 5.826-6.415 10.757-12.022 13.214-3.631 1.592-8.821 2.2-12.615 1.48zm8.3-8.675c2.154-.782 4.152-2.036 5.268-3.307l.839-.955-.898-.752c-1.392-1.165-1.854-1.172-3.315-.05-2.3 1.764-3.32 2.096-6.45 2.096-2.61.001-2.893-.053-4.544-.865-7.826-3.85-7.548-14.945.468-18.642 1.078-.497 1.755-.6 3.953-.6 2.456 0 2.78.063 4.398.86.96.473 1.964.86 2.23.86.618 0 2.23-1.549 2.23-2.141 0-.536-1.943-1.827-3.969-2.637-2.046-.817-5.956-1.008-8.073-.392-5.085 1.478-9.075 5.484-10.162 10.204-.351 1.524-.35 5.08.001 6.607.707 3.07 3.119 6.45 5.873 8.23 1.407.909 3.793 1.862 5.482 2.188 1.49.288 4.94-.076 6.669-.704zm8.402-14.339c1.277-.66 1.862-1.639 1.862-3.114 0-1.18-.109-1.428-1.027-2.346-.926-.926-1.16-1.027-2.385-1.027-1.166 0-1.492.123-2.306.869-2.939 2.693.323 7.445 3.856 5.618zm-2.195-2.43c-.351-.352-.165-1.134.335-1.402.726-.388 1.455.341 1.066 1.067-.267.5-1.05.686-1.4.335z" fill="#d34a9a"/><path d="M18.258 43.785c-4.334-.823-8.048-2.728-11.25-5.77-5.874-5.579-8.2-13.695-6.156-21.476C2.98 8.443 9.6 2.252 17.868.627l2.316-.455 7.074 7.056 7.073 7.056h-1.14c-2.394 0-4.002 2.801-2.868 4.995 1.605 3.104 6.5 2.039 6.5-1.414v-1.11l3.602 3.636 3.603 3.636-.296 1.7c-1.287 7.395-6.12 13.625-12.86 16.579-3.63 1.592-8.82 2.2-12.614 1.48zm8.3-8.675c2.154-.782 4.152-2.036 5.268-3.307l.839-.955-.898-.752c-1.392-1.165-1.854-1.172-3.315-.05-2.3 1.764-3.32 2.096-6.45 2.096-2.61.001-2.893-.053-4.544-.865-7.826-3.85-7.548-14.945.468-18.642 1.078-.497 1.755-.6 3.953-.6 2.456 0 2.78.063 4.398.86.96.473 1.964.86 2.23.86.618 0 2.23-1.549 2.23-2.141 0-.536-1.943-1.827-3.969-2.637-2.046-.817-5.956-1.008-8.073-.392-5.085 1.478-9.075 5.484-10.162 10.204-.351 1.524-.35 5.08.001 6.607.707 3.07 3.119 6.45 5.873 8.23 1.407.909 3.793 1.862 5.482 2.188 1.49.288 4.94-.076 6.669-.704zm6.207-16.77c-.351-.35-.165-1.133.335-1.4.726-.39 1.455.34 1.066 1.066-.267.5-1.05.686-1.4.335z" fill="#9170b1"/><path d="M18.258 43.785c-4.334-.822-8.048-2.728-11.25-5.77C-.01 31.35-1.827 21.334 2.39 12.564 5.42 6.267 10.976 1.981 17.868.627l2.316-.455 7.074 7.056 7.073 7.056h-1.14c-2.394 0-4.002 2.801-2.868 4.995 1.605 3.104 6.5 2.039 6.5-1.414v-1.11l3.602 3.636 3.603 3.636-.296 1.7c-1.236 7.1-5.465 12.816-11.805 15.957-4.299 2.13-9.394 2.913-13.67 2.101zm6.86-8.204c2.325-.548 4.611-1.774 6.224-3.337l1.38-1.336-.927-.782c-1.418-1.197-1.874-1.208-3.343-.08-2.301 1.765-3.321 2.097-6.447 2.097-2.446 0-2.951-.082-4.233-.69-2.253-1.07-3.811-2.621-4.955-4.936-.933-1.888-.998-2.175-.998-4.428s.065-2.54.998-4.428c1.144-2.315 2.702-3.866 4.955-4.936 1.268-.601 1.797-.69 4.107-.69 2.456 0 2.78.063 4.398.86.96.473 1.964.86 2.23.86.618 0 2.23-1.549 2.23-2.141 0-.536-1.943-1.827-3.969-2.637-2.046-.817-5.956-1.008-8.073-.392-6.386 1.856-10.547 7.184-10.547 13.504 0 8.86 8.374 15.519 16.97 13.492zm7.647-17.24c-.351-.352-.165-1.134.335-1.402.726-.388 1.455.341 1.066 1.067-.267.5-1.05.686-1.4.335z" fill="#cb499a"/><path d="M18.258 43.785c-4.334-.822-8.048-2.728-11.25-5.77C3.453 34.64 1.273 30.537.414 25.61-.878 18.193 2.28 9.948 8.3 5.03c1.979-1.617 5.79-3.543 8.042-4.064L17.957.59l4.107 4.084c2.259 2.246 3.914 4.003 3.678 3.904-.236-.098-1.568-.239-2.96-.312-3.863-.205-7.145.955-10.029 3.545a13.767 13.767 0 000 20.554c5.338 4.795 13.572 4.741 18.59-.122l1.378-1.336-.926-.782c-1.418-1.197-1.874-1.208-3.343-.08-2.301 1.765-3.321 2.097-6.447 2.097-2.446 0-2.951-.082-4.233-.69-2.253-1.07-3.811-2.621-4.955-4.936-.933-1.888-.998-2.175-.998-4.428s.065-2.54.998-4.428c1.144-2.315 2.702-3.866 4.955-4.936 1.268-.601 1.797-.69 4.107-.69 2.456 0 2.78.063 4.398.86 2.027.997 2.611 1.057 3.266.334.472-.521.484-.519 1.43.329l.954.855-.886.804c-.686.624-.916 1.076-1.021 2.009-.403 3.569 3.917 5.352 6.183 2.553l.487-.6 3.48 3.571 3.482 3.572-.486 1.836c-2.364 8.937-10.71 15.451-20.367 15.897-1.578.072-3.268-.028-4.541-.27zM32.692 18.14c-.262-.683.1-1.21.832-1.21.594 0 .676.1.604.728-.097.84-1.162 1.196-1.436.482z" fill="#ae57a2"/><path d="M18.258 43.785c-4.334-.822-8.048-2.728-11.25-5.77C3.453 34.64 1.273 30.537.414 25.61-.831 18.462 2.093 10.374 7.617 5.688c2.186-1.855 4.895-3.457 7.164-4.237C17.956.36 17.517.164 22.097 4.71c2.245 2.229 3.887 3.971 3.649 3.872-.238-.1-1.564-.239-2.947-.31-4.103-.211-7.255.878-10.007 3.46-6.191 5.81-6.209 15.093-.039 20.635 4.304 3.866 10.38 4.662 15.573 2.04 1.928-.972 4.367-3.16 4.145-3.718-.196-.49-1.848-1.588-2.391-1.588-.22 0-1.129.537-2.02 1.193-2.115 1.557-3.92 2.078-6.692 1.931-3.904-.205-6.78-2.126-8.55-5.707-.934-1.887-.999-2.176-.998-4.414.002-2.139.091-2.585.84-4.168a10.453 10.453 0 015.06-5.058c1.601-.758 2.014-.838 4.29-.84 2.308-.002 2.664.07 4.266.858 2.028.997 2.612 1.057 3.267.334.472-.521.484-.519 1.43.329l.954.855-.886.804c-2.254 2.048-.72 5.944 2.342 5.944.998 0 2.45-.75 2.925-1.51.26-.418.699-.063 3.777 3.046 3.906 3.945 3.756 3.57 2.686 6.733-1.227 3.625-4.246 7.798-7.331 10.132-4.756 3.597-11.61 5.282-17.182 4.223zM32.692 18.14c-.262-.683.1-1.21.832-1.21.594 0 .676.1.604.728-.097.84-1.162 1.196-1.436.482z" fill="#c3499a"/><path d="M18.258 43.785c-4.334-.822-8.048-2.728-11.25-5.77C3.453 34.64 1.273 30.537.414 25.61c-1.231-7.064 1.63-15.108 7.043-19.797 1.99-1.724 5.385-3.775 6.994-4.226l1.234-.345 3.512 3.478 3.513 3.478h-1.307c-2.99 0-6.289 1.353-8.612 3.533-6.191 5.81-6.209 15.093-.039 20.635 4.304 3.866 10.38 4.662 15.573 2.04 1.928-.972 4.367-3.16 4.145-3.718-.196-.49-1.848-1.588-2.391-1.588-.22 0-1.129.537-2.02 1.193-2.115 1.557-3.92 2.078-6.692 1.931-3.904-.205-6.78-2.126-8.55-5.707-.934-1.887-.999-2.176-.998-4.414.002-2.139.091-2.585.84-4.168a10.453 10.453 0 015.06-5.058c1.601-.758 2.014-.838 4.29-.84 2.32-.002 2.66.067 4.307.878 2.429 1.195 4.134 2.68 3.865 3.367-1.117 2.855 1.768 5.775 4.602 4.656.371-.146 1.316.661 4.338 3.707l3.863 3.894-.345 1.235c-.45 1.61-2.502 5.005-4.226 6.995-4.713 5.44-13.095 8.357-20.156 7.016z" fill="#bb499a"/><path d="M18.258 43.785c-4.334-.822-8.048-2.728-11.25-5.77C3.453 34.64 1.273 30.537.414 25.61-.812 18.57 2.047 10.5 7.418 5.847c1.565-1.355 5.206-3.734 5.716-3.734.293 0 6.226 5.838 6.226 6.126 0 .09-.387.238-.86.327-2.752.517-6.244 3.121-8.186 6.104-3.65 5.604-2.608 13.163 2.439 17.696 4.304 3.866 10.38 4.662 15.573 2.04 1.928-.972 4.367-3.16 4.145-3.718-.196-.49-1.848-1.588-2.391-1.588-.22 0-1.129.537-2.02 1.193-2.115 1.557-3.92 2.078-6.692 1.931-3.904-.205-6.78-2.126-8.55-5.707-.934-1.887-.999-2.176-.998-4.414.002-2.139.091-2.585.84-4.168 1.94-4.103 6.36-6.56 10.6-5.896.693.109 1.097.256.899.327-.232.083.661 1.155 2.502 3.001 1.948 1.955 2.928 2.768 3.068 2.548.127-.2.207-.05.21.394.006 1.027 1.41 2.531 2.564 2.748.513.096.805.253.65.35-.163.1 1.697 2.153 4.339 4.79 2.542 2.54 4.622 4.743 4.622 4.897 0 .509-2.38 4.152-3.735 5.714-4.676 5.399-13.084 8.314-20.121 6.977z" fill="#776fb1"/><path d="M19.227 43.888C9.166 42.438 1.66 34.725.29 24.43c-.87-6.54 2.067-14.197 7.13-18.583 1.564-1.355 5.205-3.734 5.715-3.734.293 0 6.226 5.838 6.226 6.126 0 .09-.387.238-.86.327-2.752.517-6.244 3.121-8.186 6.104-4.43 6.803-1.854 16.143 5.442 19.728 4.25 2.088 8.445 2.091 12.57.009 1.928-.973 4.367-3.161 4.145-3.719-.196-.49-1.848-1.587-2.391-1.587-.22 0-1.129.536-2.02 1.192-2.115 1.557-3.92 2.078-6.692 1.932-3.904-.206-6.78-2.126-8.55-5.708-.934-1.887-.999-2.176-.998-4.414.002-2.139.091-2.585.84-4.168 1.94-4.103 6.36-6.56 10.6-5.896.693.109 1.097.256.899.327-.232.084.661 1.155 2.502 3.001 1.948 1.955 2.928 2.769 3.068 2.548.127-.2.207-.05.21.395.006 1.026 1.41 2.53 2.564 2.747.513.096.805.253.65.35-.163.1 1.697 2.153 4.339 4.791 2.542 2.54 4.622 4.743 4.622 4.896 0 .154-.54 1.157-1.202 2.229-3.673 5.957-8.736 9.355-15.6 10.47-2.607.424-3.691.44-6.085.095z" fill="#b5489a"/><path d="M19.227 43.888C9.166 42.438 1.66 34.725.29 24.43c-.868-6.528 2.074-14.213 7.106-18.558 1.715-1.48 4.357-3.23 4.879-3.23.357 0 6.027 5.542 6.027 5.891 0 .107-.149.195-.33.195-.841 0-3.8 1.708-5.142 2.969-3.081 2.89-4.684 6.453-4.677 10.392.01 5.309 2.908 10.001 7.604 12.309 4.25 2.088 8.445 2.091 12.57.009 1.928-.973 4.367-3.161 4.145-3.719-.196-.49-1.848-1.587-2.391-1.587-.22 0-1.129.536-2.02 1.192-2.115 1.557-3.92 2.078-6.692 1.932-3.904-.206-6.78-2.126-8.55-5.708-.934-1.887-.999-2.176-.998-4.414.002-2.139.091-2.585.84-4.168 1.492-3.154 4.63-5.51 7.86-5.903l1.353-.164 9.79 9.808c5.384 5.395 9.827 9.98 9.872 10.19.046.21-.357 1.073-.895 1.917-3.567 5.596-8.67 8.929-15.327 10.01-2.608.424-3.692.44-6.086.095z" fill="#b1489a"/><path d="M19.227 43.888C9.166 42.438 1.66 34.725.29 24.43c-.684-5.145.997-11.137 4.391-15.653C5.997 7.025 8.92 4.4 10.496 3.55l.928-.5 2.901 2.892 2.902 2.892-1.64.877c-3.124 1.668-5.82 4.965-6.87 8.398-1.95 6.382 1.061 13.351 7.039 16.289 4.25 2.088 8.445 2.091 12.57.009 1.928-.973 4.367-3.161 4.145-3.719-.196-.49-1.848-1.587-2.391-1.587-.22 0-1.129.536-2.02 1.192-2.115 1.557-3.92 2.078-6.692 1.932-3.904-.206-6.78-2.126-8.55-5.708-.934-1.887-.999-2.176-.998-4.414.002-2.139.091-2.585.84-4.168.462-.977 1.386-2.32 2.058-2.992 1.288-1.288 4.06-2.775 5.172-2.776.52 0 2.889 2.227 10.976 10.316l10.313 10.316-.5.93c-.851 1.578-3.476 4.5-5.228 5.816-3.063 2.304-6.164 3.603-10.138 4.248-2.608.424-3.692.44-6.086.095z" fill="#ad489a"/><path d="M19.227 43.888C9.166 42.438 1.66 34.725.29 24.43-.599 17.758 2.403 10.111 7.66 5.651c2.83-2.4 2.493-2.448 5.766.817l2.84 2.832-1.165.657c-2.724 1.535-5.408 4.962-6.383 8.152-1.951 6.382 1.06 13.351 7.038 16.289 4.25 2.088 8.445 2.091 12.57.009 1.928-.973 4.367-3.161 4.145-3.719-.196-.49-1.848-1.587-2.391-1.587-.22 0-1.129.536-2.02 1.192-2.115 1.557-3.92 2.078-6.692 1.932-3.904-.206-6.78-2.126-8.55-5.708-.934-1.887-.999-2.176-.998-4.414.002-2.139.091-2.585.84-4.168.948-2.003 2.66-3.864 4.352-4.726 1.435-.732 2.612-1.079 2.612-.768 0 .13 4.72 4.95 10.487 10.71 11.936 11.922 10.996 10.432 8.465 13.416-3.297 3.886-7.798 6.338-13.263 7.226-2.608.424-3.692.44-6.086.095z" fill="#a9489a"/><path d="M19.227 43.888C9.166 42.438 1.66 34.725.29 24.43-.58 17.9 2.377 10.182 7.395 5.882c.833-.714 1.672-1.39 1.866-1.504.242-.142 1.252.679 3.21 2.608 2.68 2.642 2.822 2.834 2.3 3.113-1.063.569-3.436 3.003-4.457 4.57-4.43 6.804-1.854 16.144 5.442 19.729 4.25 2.088 8.445 2.091 12.57.009 1.928-.973 4.367-3.161 4.145-3.719-.196-.49-1.848-1.587-2.391-1.587-.22 0-1.129.536-2.02 1.192-2.115 1.557-3.92 2.078-6.692 1.932-3.904-.206-6.78-2.126-8.55-5.708-.934-1.887-.999-2.176-.998-4.414.002-2.139.091-2.585.84-4.168.944-1.995 2.66-3.863 4.333-4.717l1.123-.573 10.94 10.939c6.018 6.016 10.941 11.021 10.941 11.123 0 .465-3.064 3.725-4.555 4.846-3.054 2.295-6.16 3.595-10.13 4.24-2.607.424-3.691.44-6.085.095z" fill="#8f57a3"/><path d="M19.227 43.888C9.092 42.427 1.547 34.604.273 24.236c-.547-4.454.68-9.529 3.335-13.788C4.84 8.47 7.514 5.516 8.882 4.619l.713-.467 2.86 2.819 2.86 2.818-.836.517c-1.454.899-4.019 3.801-4.898 5.544-2.676 5.3-1.772 11.293 2.37 15.722 5.14 5.493 13.844 5.895 19.207.886 1.638-1.53 1.665-1.836.238-2.762-1.2-.78-1.575-.753-2.781.202-3.577 2.834-8.49 3.122-12.264.72-3.223-2.052-5.114-6.37-4.424-10.105.595-3.22 2.524-5.998 5.066-7.295l1.124-.573L29.1 23.629l10.985 10.985-.473.722c-.901 1.376-3.852 4.047-5.834 5.283-2.64 1.646-5.355 2.67-8.373 3.16-2.7.437-3.772.456-6.179.11z" fill="#a5489a"/><path d="M19.227 43.888C9.092 42.427 1.547 34.604.273 24.236c-.75-6.099 1.766-12.987 6.457-17.677l1.853-1.853 2.83 2.822 2.831 2.822-1.787 1.726c-5.67 5.474-5.884 13.746-.505 19.496 5.138 5.493 13.843 5.895 19.206.886 1.638-1.53 1.665-1.836.238-2.762-1.2-.78-1.575-.753-2.781.202-4.535 3.592-11.126 2.97-14.56-1.374-3.578-4.527-2.7-11.474 1.85-14.627l1.109-.768 11.255 11.256L39.525 35.64l-1.855 1.855a22.334 22.334 0 01-12.264 6.283c-2.7.438-3.772.457-6.179.11z" fill="#a1489b"/><path d="M19.227 43.888C9.092 42.427 1.547 34.604.273 24.236c-.52-4.233.588-9.176 2.952-13.162 1.21-2.04 3.497-4.858 4.146-5.107.33-.127 1.167.545 3.166 2.537l2.718 2.709-1.416 1.485C8.39 16.313 7.176 21.671 8.76 26.276c.79 2.298 1.523 3.512 3.192 5.296 5.206 5.566 14.038 5.897 19.356.725l1.537-1.494 2.793 2.802c2.058 2.064 2.749 2.92 2.622 3.251-.25.65-3.067 2.936-5.107 4.146-2.404 1.425-4.883 2.312-7.78 2.782-2.668.432-3.743.45-6.146.104zm-.42-12.099c-.814-.269-2.032-.869-2.707-1.333-4.67-3.212-5.671-10.07-2.146-14.686 1.782-2.334 1.053-2.782 10.013 6.16 4.39 4.38 7.953 7.964 7.92 7.964-.034 0-.467-.239-.962-.531l-.9-.531-1.24.946c-3.034 2.317-6.773 3.07-9.979 2.011z" fill="#9b499b"/><path d="M19.227 43.888C9.092 42.427 1.547 34.604.273 24.236c-.545-4.437.689-9.563 3.303-13.719 1.177-1.872 2.653-3.642 3.036-3.642.227 0 5.34 5.1 5.34 5.327 0 .086-.37.62-.821 1.186-2.13 2.668-3.327 6.512-3.022 9.7.322 3.364 1.513 5.994 3.843 8.484 4.814 5.147 12.84 5.878 18.324 1.67.692-.532 1.41-.967 1.592-.967.184 0 1.518 1.189 2.965 2.642l2.631 2.64-.916.95c-2.284 2.368-7 4.6-11.142 5.271-2.7.438-3.772.457-6.179.11zm-.42-12.099c-2.96-.978-5.205-3.126-6.363-6.088-1.22-3.12-.527-7.6 1.515-9.805l.88-.95 7.023 7.009c3.862 3.855 7.023 7.138 7.023 7.296 0 .505-1.148 1.386-2.78 2.133-2.086.957-5.12 1.125-7.299.405z" fill="#95499c"/><path d="M19.227 43.888C9.092 42.427 1.547 34.604.273 24.236c-.544-4.43.681-9.53 3.299-13.73 2.033-3.262 1.751-3.258 4.922-.076l2.736 2.745-.532.753c-4.93 6.988-2.577 16.661 4.974 20.44 2.604 1.304 4.543 1.716 7.26 1.542 2.473-.158 4.725-.89 6.631-2.156l1.36-.903 2.839 2.846 2.837 2.846-.836.704c-2.57 2.163-6.599 3.922-10.39 4.537-2.668.432-3.743.45-6.146.104zm-.42-12.114c-2.937-.94-5.202-3.101-6.363-6.073-1.09-2.79-.606-7.122 1.032-9.231l.46-.593 7.167 7.155 7.168 7.154-1.151.675a10.291 10.291 0 01-8.314.913z" fill="#91499c"/><path d="M19.227 43.888C9.092 42.427 1.547 34.604.273 24.236c-.554-4.505.789-9.917 3.47-13.986l1.175-1.784 2.794 2.71 2.795 2.71-.887 1.824c-2.703 5.552-1.843 11.4 2.332 15.862 4.216 4.508 10.673 5.67 16.267 2.927l1.848-.906 2.853 2.854 2.854 2.853-1.791 1.18c-2.45 1.614-5.541 2.806-8.54 3.292-2.737.444-3.803.464-6.216.116zm-.42-12.099c-3.769-1.245-6.37-4.422-6.986-8.536-.212-1.414.178-3.773.89-5.383l.51-1.15 6.952 6.97c3.824 3.835 7.05 6.911 7.17 6.837.12-.074.219-.062.219.028s-.685.476-1.522.86c-2.018.924-5.087 1.083-7.234.374z" fill="#8d499c"/><path d="M19.227 43.888C9.092 42.427 1.547 34.604.273 24.236-.25 19.993.86 15.06 3.239 11.049l1.056-1.78 2.744 2.754c1.509 1.515 2.81 2.688 2.89 2.608.08-.08-.197.672-.615 1.672-2.317 5.537-1.377 10.977 2.638 15.27 4.048 4.327 10.357 5.6 15.82 3.19l1.401-.617 2.897 2.89 2.896 2.89-1.784 1.059c-2.432 1.442-4.902 2.327-7.808 2.799-2.67.432-3.744.45-6.147.104zm-.42-12.114c-5.5-1.76-8.426-7.898-6.353-13.324.277-.724.314-.693 7.032 6.006 3.714 3.704 6.753 6.795 6.753 6.87 0 .074-.617.318-1.371.542-1.794.533-4.22.495-6.062-.094z" fill="#89499c"/><path d="M19.227 43.905c-3.864-.598-7.987-2.38-10.858-4.694-3.494-2.815-6.384-7.337-7.56-11.83-.7-2.677-.777-7.111-.17-9.824.47-2.096 1.8-5.446 2.547-6.417l.485-.63 2.721 2.674c1.497 1.47 2.8 2.625 2.897 2.565.097-.06-.119.747-.48 1.793-.515 1.494-.657 2.44-.662 4.415-.011 3.902 1.118 6.743 3.831 9.644 1.836 1.962 4.712 3.587 7.304 4.126 1.94.403 5.314.194 7.221-.448l1.456-.49 2.88 2.882 2.882 2.881-.632.487c-.97.747-4.326 2.081-6.285 2.498-2.38.507-5.653.666-7.577.368zm-.42-12.131c-4.96-1.587-7.881-6.78-6.771-12.033.212-1.007.223-1.015.62-.45.897 1.282 12.03 12.192 12.46 12.21.253.012.045.181-.465.378-1.306.503-4.102.452-5.845-.105z" fill="#7055a3"/><path d="M19.69 43.911C8.407 42.365.314 33.39.253 22.354c-.022-4 1.316-9.115 2.933-11.214l.485-.63 2.721 2.674c1.497 1.47 2.8 2.625 2.897 2.565.097-.06-.099.712-.435 1.715-.938 2.796-1.054 5.244-.375 7.928.31 1.228.95 2.877 1.423 3.667 1.962 3.278 5.599 5.937 9.124 6.67 1.958.406 5.592.189 7.477-.448l1.456-.492 2.88 2.882 2.882 2.881-.632.487c-2.531 1.95-9.393 3.421-13.399 2.872zm-.463-12.007c-3.745-1.187-6.19-3.765-7.16-7.546-.3-1.172-.376-2.133-.25-3.146.174-1.387.611-2.911.647-2.252.027.508 12.14 12.52 12.647 12.542.256.01.05.18-.46.377-1.17.45-4.04.464-5.424.025z" fill="#83499c"/><path d="M19.69 43.911C10.342 42.63 3.225 36.431.933 27.572c-1.187-4.588-.805-9.919.99-13.803l.788-1.705 2.848 2.839c1.566 1.56 2.912 2.773 2.991 2.694.08-.08-.011.66-.202 1.644-.484 2.505-.447 3.899.169 6.307 1.239 4.845 5.133 8.778 9.928 10.026 1.735.453 4.989.524 6.603.145l1.059-.249 2.974 2.96c3.284 3.268 3.258 3.162.994 4.1-2.746 1.137-7.525 1.773-10.385 1.381zm-.463-12.007c-3.925-1.244-6.557-4.2-7.292-8.188-.533-2.891-.378-2.807 5.386 2.922 2.94 2.923 5.525 5.378 5.743 5.455.868.307-2.849.125-3.837-.189z" fill="#7b499c"/><path d="M19.69 43.911C10.342 42.63 3.225 36.431.933 27.572c-1.034-3.998-.862-9.02.424-12.346l.3-.777 2.978 2.97c1.637 1.632 3.06 2.885 3.162 2.783.102-.102.186.59.186 1.536 0 2.272.86 5.551 1.923 7.327.47.786 1.524 2.103 2.342 2.926 2.62 2.638 5.904 3.97 9.88 4.01 1.17.011 1.964.085 1.766.164-.238.094.706 1.213 2.761 3.274l3.123 3.13-.778.301c-2.307.892-6.763 1.39-9.31 1.041zm-.86-12.148c-1.38-.421-2.889-1.36-4.05-2.522-1.267-1.267-2.711-3.848-2.478-4.43.098-.244.143-.227.158.06.028.542 5.884 6.355 6.818 6.768.827.366.573.436-.448.124z" fill="#73489c"/><path d="M19.69 43.9c-5.844-.76-11.07-3.614-14.6-7.974C1.377 31.34-.435 24.92.413 19.357c.207-1.356.451-2.541.543-2.632.09-.092 1.65 1.314 3.464 3.124s3.31 3.114 3.323 2.897c.014-.216.18.381.372 1.327.529 2.624 1.325 4.46 2.754 6.35 2.182 2.888 5.086 4.7 8.68 5.414.987.197 1.678.369 1.534.382-.143.014 1.28 1.569 3.162 3.456 1.883 1.886 3.348 3.505 3.257 3.596-.196.196-4.86.921-5.629.875a49.904 49.904 0 01-2.183-.246z" fill="#6b489c"/><path d="M19.69 43.911C10.342 42.63 3.225 36.431.933 27.572c-.683-2.641-.984-7.464-.512-8.227.162-.262 1.27.69 4.156 3.571 2.164 2.161 3.935 3.829 3.935 3.707 0-.123.446.646.992 1.707 1.204 2.344 3.576 4.803 5.761 5.975 1.112.597 2.77 2.05 5.731 5.023 2.292 2.3 4.082 4.264 3.977 4.363-.336.319-3.58.454-5.283.22z" fill="#5453a2"/><path d="M19.09 43.79C9.17 42.192 1.954 34.886.426 24.89c-.347-2.273-.307-5.005.084-5.674.073-.126 1.903 1.54 4.068 3.7 2.164 2.161 3.935 3.829 3.935 3.707 0-.123.446.646.992 1.707 1.204 2.344 3.576 4.803 5.761 5.975 1.112.597 2.77 2.05 5.731 5.023 2.292 2.3 4.082 4.264 3.977 4.363-.409.388-3.744.444-5.882.1z" fill="#63489c"/><path d="M19.757 43.895c-8.504-1.05-15.72-6.918-18.357-14.927-.759-2.304-1.498-6.83-1.196-7.32.14-.225 22.463 21.867 22.463 22.23 0 .263-.88.268-2.91.017z" fill="#5d489d"/><path d="M18.125 43.627c-.751-.126-2.344-.585-3.54-1.021C8.61 40.425 3.805 35.625 1.63 29.662.892 27.643.16 24.125.355 23.54c.048-.144 4.73 4.382 10.405 10.057 11.233 11.237 10.764 10.598 7.365 10.03z" fill="#59489d"/><path d="M16.537 43.25C9.66 41.395 4.04 36.29 1.657 29.73c-.416-1.147-.84-2.62-.943-3.275l-.186-1.191 9.151 9.127c5.033 5.02 9.151 9.157 9.151 9.194 0 .157-1.018.008-2.293-.336z" fill="#53489d"/><path d="M13.495 42.214c-3.675-1.528-7.435-4.691-9.657-8.125-1.119-1.73-2.617-4.93-2.406-5.14.05-.051 3.241 3.058 7.09 6.908 3.849 3.851 6.88 6.997 6.735 6.99-.145-.005-.937-.29-1.762-.633z" fill="#4b489d"/></svg>
