<svg viewBox="0 0 480 480" fill="none" xmlns="http://www.w3.org/2000/svg">
<g clip-path="url(#clip0_1_3)">
<path d="M479.729 108.399C479.907 109.038 480 109.697 480 110.358V213.209C480 215.896 478.518 218.378 476.114 219.715L387.091 269.416V367.927C387.091 370.608 385.622 373.082 383.225 374.432L197.398 478.164C196.973 478.399 196.509 478.549 196.045 478.708C195.871 478.764 195.706 478.867 195.523 478.914C194.224 479.246 192.858 479.246 191.559 478.914C191.347 478.858 191.153 478.746 190.95 478.671C190.525 478.521 190.08 478.389 189.674 478.164L3.88609 374.432C1.48382 373.094 0 370.613 0 367.927V59.3734C0 58.6985 0.096669 58.0423 0.270673 57.4049C0.328674 57.1893 0.464011 56.9925 0.541346 56.7769C0.68635 56.3832 0.821686 55.9801 1.03436 55.6145C1.17936 55.3708 1.39203 55.1739 1.56604 54.9489C1.78838 54.649 1.99138 54.3396 2.25239 54.0772C2.47473 53.8616 2.76473 53.7022 3.01607 53.5147C3.29641 53.2897 3.54775 53.046 3.86676 52.8679H3.87643L96.7753 1.00181C99.1691 -0.333936 102.115 -0.333936 104.509 1.00181L197.408 52.8679H197.427C197.736 53.0554 197.997 53.2897 198.278 53.5053C198.529 53.6928 198.809 53.8616 199.032 54.0678C199.302 54.3396 199.496 54.649 199.728 54.9489C199.892 55.1739 200.114 55.3708 200.25 55.6145C200.472 55.9894 200.598 56.3832 200.752 56.7769C200.83 56.9925 200.965 57.1893 201.023 57.4143C201.201 58.0531 201.292 58.7117 201.294 59.3734V252.093L278.706 208.869V110.349C278.706 109.693 278.803 109.027 278.977 108.399C279.045 108.174 279.17 107.977 279.248 107.762C279.402 107.368 279.538 106.965 279.75 106.599C279.895 106.356 280.108 106.159 280.272 105.934C280.504 105.634 280.698 105.325 280.968 105.062C281.191 104.847 281.471 104.687 281.722 104.5C282.012 104.275 282.264 104.031 282.573 103.853H282.583L375.491 51.9868C377.885 50.6491 380.831 50.6491 383.225 51.9868L476.124 103.853C476.452 104.04 476.704 104.275 476.994 104.49C477.235 104.678 477.516 104.847 477.738 105.053C478.009 105.325 478.202 105.634 478.434 105.934C478.608 106.159 478.821 106.356 478.956 106.599C479.178 106.965 479.304 107.368 479.459 107.762C479.546 107.977 479.671 108.174 479.729 108.399ZM464.514 208.869V123.341L432.004 141.489L387.091 166.565V252.093L464.523 208.869H464.514ZM371.615 363.587V278.002L327.437 302.468L201.284 372.286V458.676L371.615 363.587ZM15.4864 72.3564V363.587L185.798 458.667V372.295L96.8236 323.466L96.7946 323.447L96.7559 323.428C96.4563 323.26 96.2049 323.016 95.9246 322.81C95.6829 322.622 95.4026 322.472 95.1899 322.266L95.1706 322.238C94.9192 322.004 94.7452 321.713 94.5326 321.451C94.3392 321.197 94.1072 320.982 93.9526 320.719L93.9429 320.691C93.7689 320.41 93.6625 320.073 93.5369 319.754C93.4112 319.473 93.2469 319.21 93.1695 318.91V318.901C93.0729 318.545 93.0535 318.17 93.0149 317.804C92.9762 317.523 92.8989 317.242 92.8989 316.96V316.942V115.58L47.9961 90.495L15.4864 72.3657V72.3564ZM100.652 16.1689L23.2489 59.3734L100.632 102.578L178.026 59.3641L100.632 16.1689H100.652ZM140.905 285.801L185.807 260.735V72.3564L153.298 90.5044L108.385 115.58V303.959L140.905 285.801ZM379.358 67.1538L301.965 110.358L379.358 153.563L456.741 110.349L379.358 67.1538ZM371.615 166.565L326.702 141.489L294.193 123.341V208.869L339.095 233.935L371.615 252.093V166.565ZM193.531 359.303L307.05 296.46L363.794 265.057L286.459 221.88L197.417 271.591L116.264 316.895L193.531 359.303Z" fill="#FF2D20"/>
</g>
<defs>
<clipPath id="clip0_1_3">
<rect width="480" height="480" fill="white"/>
</clipPath>
</defs>
</svg>
