<svg
   viewBox="0 0 124.156 133.529"
   xmlns="http://www.w3.org/2000/svg"
   xmlns:svg="http://www.w3.org/2000/svg">
  <path
     d="m 62.341852,39.22156 c 1.597,-0.981 10.207,-5.556 24.098,0.178 14.288998,5.897 23.153998,0.776 24.252998,0.079 -3.454,-5.678 -7.562,-10.62 -12.103998,-13.943 0.303,-0.083 0.612,-0.167 0.939,-0.263 6.022998,-1.742 7.552998,-6.842 7.874998,-11.21 0.364,-4.9540006 0.616,-5.0300006 1.692,-9.4870006 1.032,-4.28099994 -0.119,-5.13699994 -1.181,-4.27299994 -0.572,0.465 -5.552,1.61599994 -8.504998,3.91899994 -4.768,3.72 -7.707,10.7940006 -9.039,14.7060006 -0.025,0.06 -0.205,0.604 -0.265,0.792 -0.621,1.498 -1.857,1.494 -1.857,1.494 v 10e-4 c -0.6,-0.065 -1.202,-0.1 -1.809,-0.1 -0.54,0 -1.079,0.029 -1.616,0.081 -0.012,0.002 -0.019,0 -0.031,0.001 -1.581,0.233 -2.45,-1.697 -2.632,-2.157 -1.847,-5.304 -6.816,-15.7630006 -17.984,-18.57700054 0,0 -2.028,-1.55400006 -1.41,1.07399994 0.588,2.511 1.804,5.049 1.534,8.7410006 -0.124,1.704 -1.181,10.442 6.85,14.99 0.763,0.432 1.441,0.795 2.051,1.101 -4.042,3.235 -7.716,7.74 -10.859,12.853 z m 52.726998,79.915 c -9.842,-6.098 -13.153,-8.242 -12.946,-10.575 0,0 0.002,-0.379 0.099,-0.957 0.239,-1.236 0.995,-3.348 3.407,-4.552 0.079,-0.039 0.146,-0.084 0.208,-0.129 7.668,-4.45 13.27,-11.614 15.246,-20.56 -1.99,4.941 -16.735,8.78 -34.644998,8.78 -17.903,0 -32.651,-3.839 -34.641,-8.78 0.442,2.008 1.073,3.923 1.864,5.742 0.666,3.745 1.562,12.563 -2.673,20.282 -3.731,6.8 -22.15,16.069 -49.4849998,10.748 0,0 -1.09599994,-0.766 -1.42799994,-0.136 -0.491,0.932 1.51699994,1.685 3.58299994,2.229 19.0309998,5.04 47.7559998,2.989 56.7769998,-4.443 4.116,-3.388 5.704,-7.953 6.107,-12.865 l 0.003,0.008 c 0,0 0.11,-1.287 1.719,-0.32 0.461,0.277 2.125,1.36 2.39,2.585 0.232,1.743 0.248,3.883 -0.652,5.382 -1.287,2.144 -1.301,2.452 0.393,3.662 1.04,0.742 5.287,3.864 11.198,7.415 0.015,0.01 0.023,0.019 0.038,0.027 1.25,0.753 2.987,2.597 2.987,2.597 2.662,3.079 8.452,9.275 10.972,8.108 1.19,-0.551 -0.051,-3.032 -0.051,-3.032 0,0 1.98,2.571 3.043,1.694 0.809,-0.668 -0.473,-3.229 -0.473,-3.229 0,0 1.729,1.499 2.756998,0.944 1.258,-0.679 -0.187,-4.614 -10.078998,-10.627 -9.896,-6.018 -12.578,-6.94 -12.814,-9.626 0,0 -0.004,-0.135 0.004,-0.366 0.077,-0.593 0.414,-1.847 1.852,-1.712 2.141,0.346 4.348,0.531 6.608,0.531 2.587,0 5.107,-0.237 7.536,-0.69 l 10e-4,0.003 c 0,0 0.127,-0.025 0.164,-0.031 0.284,-0.036 0.838,-0.018 0.84,0.671 -0.09,0.873 -0.331,1.751 -0.845,2.519 -1.447,2.168 -0.972,2.466 0.54,3.859 0.933,0.859 5.211,4.622 11.069998,8.264 0.012,0.009 0.017,0.016 0.031,0.023 1.249,0.752 3.41,2.816 3.41,2.816 v -0.001 c 2.428,2.466 6.894,6.596 9.327,6.347 1.646,-0.168 0.306,-3.002 0.306,-3.002 0,0 2.078,2.006 3.099,1.416 1.142,-0.659 -0.474,-2.755 -0.474,-2.755 0,0 1.338,0.708 2.283,0.473 0.948,-0.236 1.185,-2.644 -8.656,-8.737 z"
     />
  <path
     d="m 104.07385,50.23556 c -1.181,0 -2.161,0.355 -2.912,1.057 -0.76,0.71 -1.144,1.531 -1.144,2.438 v 16.056 c 0,2.154 -0.381998,3.742 -1.134998,4.721 -0.728,0.946 -1.892,1.406 -3.556,1.406 -1.703,0 -2.863,-0.457 -3.549,-1.396 -0.716,-0.979 -1.078,-2.571 -1.078,-4.731 v -16.119 c 0,-1.098 -0.5,-1.996 -1.448,-2.596 -1.289,-0.812 -2.57,-1.105 -4.129,-0.587 -0.476,0.159 -0.924,0.366 -1.333,0.615 -0.435,0.265 -0.802,0.597 -1.093,0.985 -0.322,0.432 -0.486,0.901 -0.486,1.396 v 16.307 c 0,2.158 -0.363,3.75 -1.079,4.73 -0.688,0.939 -1.849,1.396 -3.548,1.396 -1.705,0 -2.877,-0.459 -3.584,-1.401 -0.734,-0.979 -1.107,-2.57 -1.107,-4.726 v -16.056 c 0,-0.908 -0.384,-1.728 -1.145,-2.438 -0.751,-0.702 -1.751,-1.057 -2.973,-1.057 -1.258,0 -2.296,0.352 -3.085,1.045 -0.811,0.71 -1.222,1.535 -1.222,2.45 v 15.806 c 0,1.988 0.194,3.869 0.575,5.588 0.393,1.758 1.077,3.3 2.035,4.586 0.968,1.299 2.282,2.323 3.906,3.05 1.607,0.716 3.617,1.079 5.975,1.079 2.457,0 4.515,-0.455 6.115,-1.354 1.342,-0.754 2.473,-1.744 3.371,-2.951 0.866,1.207 1.971,2.197 3.294,2.95 1.58,0.899 3.669,1.354 6.211,1.354 2.357,0 4.358998,-0.364 5.946998,-1.081 1.601,-0.726 2.902,-1.751 3.872,-3.048 0.96,-1.29 1.645,-2.833 2.034,-4.586 0.381,-1.719 0.575,-3.6 0.575,-5.588 v -15.805 c 0,-0.911 -0.398,-1.733 -1.184,-2.445 -0.767,-0.697 -1.818,-1.05 -3.12,-1.05 z"
     />
</svg>
