<svg xmlns:dc="http://purl.org/dc/elements/1.1/" xmlns:cc="http://creativecommons.org/ns#" xmlns:rdf="http://www.w3.org/1999/02/22-rdf-syntax-ns#" xmlns:svg="http://www.w3.org/2000/svg" xmlns="http://www.w3.org/2000/svg" xmlns:sodipodi="http://sodipodi.sourceforge.net/DTD/sodipodi-0.dtd" xmlns:inkscape="http://www.inkscape.org/namespaces/inkscape" version="1.1" id="Layer_1" x="0px" y="0px" viewBox="0 0 1000 421.84874" xml:space="preserve" sodipodi:docname="intel-footer-logo.svg" inkscape:version="0.92.3 (2405546, 2018-03-11)"><metadata id="metadata17"><rdf:RDF><cc:Work rdf:about=""><dc:format>image/svg+xml</dc:format><dc:type rdf:resource="http://purl.org/dc/dcmitype/StillImage"/></cc:Work></rdf:RDF></metadata><defs id="defs15"/><sodipodi:namedview pagecolor="#ffffff" bordercolor="#666666" borderopacity="1" objecttolerance="10" gridtolerance="10" guidetolerance="10" inkscape:pageopacity="0" inkscape:pageshadow="2" inkscape:window-width="1366" inkscape:window-height="705" id="namedview13" showgrid="false" inkscape:zoom="1" inkscape:cx="76.702479" inkscape:cy="191.50293" inkscape:window-x="-8" inkscape:window-y="-8" inkscape:window-maximized="1" inkscape:current-layer="Layer_1"/>
<style type="text/css" id="style2">
	.st0{fill:#0068B5;}
</style>
<rect x="0" y="5.8823466" class="st0" width="78.711487" height="78.711487" id="rect4" style="fill:#0068b5;fill-opacity:1;stroke-width:2.80112052"/>
<g id="g10" transform="matrix(2.8011204,0,0,2.8011204,-13.165266,-8.6834732)">
	<path d="M 32.1,151.6 V 50.4 H 5.5 v 101.2 z m 176.8,1 v -24.8 c -3.9,0 -7.2,-0.2 -9.6,-0.6 -2.8,-0.4 -4.9,-1.4 -6.3,-2.8 -1.4,-1.4 -2.3,-3.4 -2.8,-6 -0.4,-2.5 -0.6,-5.8 -0.6,-9.8 V 73.2 h 19.3 V 50.4 H 189.6 V 10.9 h -26.7 v 97.9 c 0,8.3 0.7,15.3 2.1,20.9 1.4,5.5 3.8,10 7.1,13.4 3.3,3.4 7.7,5.8 13,7.3 5.4,1.5 12.2,2.2 20.3,2.2 z m 152.8,-1 V 3.1 H 335 V 151.6 Z M 137.2,60.3 c -7.4,-8 -17.8,-12 -31,-12 -6.4,0 -12.2,1.3 -17.5,3.9 C 83.5,54.8 79,58.4 75.5,63 L 74,64.9 V 63.2 50.4 H 47.7 v 101.2 h 26.5 v -53.9 3.7 c 0,-0.6 0,-1.2 0,-1.8 0.3,-9.5 2.6,-16.5 7,-21 4.7,-4.8 10.4,-7.2 16.9,-7.2 7.7,0 13.6,2.4 17.5,7 3.8,4.6 5.8,11.1 5.8,19.4 v 0 0.2 0 0 53.5 h 26.9 V 94.1 c 0.1,-14.4 -3.7,-25.8 -11.1,-33.8 z m 184,40.5 c 0,-7.3 -1.3,-14.1 -3.8,-20.5 -2.6,-6.3 -6.2,-11.9 -10.7,-16.7 -4.6,-4.8 -10.1,-8.5 -16.5,-11.2 -6.4,-2.7 -13.5,-4 -21.2,-4 -7.3,0 -14.2,1.4 -20.6,4.1 -6.4,2.8 -12,6.5 -16.7,11.2 -4.7,4.7 -8.5,10.3 -11.2,16.7 -2.8,6.4 -4.1,13.3 -4.1,20.6 0,7.3 1.3,14.2 3.9,20.6 2.6,6.4 6.3,12 10.9,16.7 4.6,4.7 10.3,8.5 16.9,11.2 6.6,2.8 13.9,4.2 21.7,4.2 22.6,0 36.6,-10.3 45,-19.9 l -19.2,-14.6 c -4,4.8 -13.6,11.3 -25.6,11.3 -7.5,0 -13.7,-1.7 -18.4,-5.2 -4.7,-3.4 -7.9,-8.2 -9.6,-14.1 l -0.3,-0.9 h 79.5 z m -79.3,-9.3 c 0,-7.4 8.5,-20.3 26.8,-20.4 18.3,0 26.9,12.9 26.9,20.3 z" id="path6" inkscape:connector-curvature="0"/>
	
</g>
</svg>