<svg clip-rule="evenodd" fill-rule="evenodd" stroke-linejoin="round" stroke-miterlimit="2"
     viewBox="0.0006227493286132812 0.00014637304411735386 999.9776611328125 642.0003662109375"
     xmlns="http://www.w3.org/2000/svg">
    <g transform="matrix(1.62598 0 0 1.85297 -191.865 -189.983)">
        <path d="m118 102.529h615v346.471h-615z" fill="none"></path>
        <path d="m693.895 449c-21.438 0-37.895-18.635-37.895-40.875 0-26.6 12.985-43.88 36.687-43.88 8.155 0 17.062 5.711 20.232 12.775v-38.02h6.191c9.663 0 13.89 5.559 13.89 13.673v57.105c0 23.594-11.172 39.222-39.105 39.222zm-49.91 0c-15.622 0-24.183-8.93-24.183-25.428v-55.242h5.708c9.01 0 14.419 4.842 14.419 15.135v38.14c0 8.172 3.453 10.746 12.316 10.746h3.755v4.388c0 8.781-3.455 12.261-12.015 12.261zm-73.577-85c24.517 0 38.592 19.592 38.592 41.144 0 24.415-14.075 43.856-40.407 43.856-24.517 0-38.593-19.441-38.593-40.993 0-24.415 14.076-44.007 40.408-44.007zm-136.759 85c-19.922 0-35.649-13.231-35.649-36.838v-46.162h3.745c11.532 0 16.627 4.963 16.627 14.435v29.772c0 14.886 7.19 20.9 16.327 20.9 8.237 0 14.08-5.713 14.08-19.547v-45.56h3.594c11.683 0 16.627 4.963 16.627 14.435v30.374c0 25.259-11.833 38.191-35.351 38.191zm-87.799-95.404c2.7-3.175 6.3-5.596 9.451-5.596h4.649v18.446h28.05v8.317c0 4.234-3.75 9.677-11.999 9.677h-16.051v31.903c0 10.582 4.651 14.667 12.75 14.667 6.45 0 11.402-.909 14.55-2.873h.75v7.256c0 8.316-6 13.607-17.699 13.607-20.4 0-30.301-11.188-30.301-30.238v-48.988c0-8.014 1.5-11.038 5.85-16.178zm-67.411-1.18v48.546c7.873-10.252 15.593-20.654 24.979-29.549 4.846-4.522 9.69-5.277 16.201-5.277h11.658v.755c-5.754 4.823-24.679 26.23-33.156 36.935 6.509 7.989 12.869 16.282 20.133 23.669 7.421 7.388 10.751 8.895 15.746 10.555-2.118 6.481-5.45 9.95-13.776 9.95-4.541 0-9.841-2.111-13.322-5.58-10.446-10.703-19.531-22.764-28.463-34.675v39.651l-6.509.151c-9.388.152-13.93-4.824-13.93-14.322v-94.225h6.511c9.841 0 13.928 5.577 13.928 13.416zm-60.016 95.584h-4.048c-19.185 0-32.375-10.818-32.375-25.696 0-14.426 10.492-25.395 40.171-25.395h7.044v-1.053c0-11.419-5.395-14.877-17.386-14.877-14.54 0-22.634 5.562-25.631 9.318h-.749v-6.463c0-9.014 8.092-19.834 29.378-19.834 17.985 0 34.173 8.414 34.173 36.365v18.633c0 17.131-12.589 29.002-30.577 29.002zm309.822-62.537c-3.022-1.204-6.499-2.408-11.787-2.408-9.069 0-14.058 4.965-14.058 17.302v46.643h-5.589c-9.067 0-14.811-4.514-14.811-12.939v-37.314c0-16.251 8.615-31.747 30.076-31.747 12.542 0 16.924 7.07 16.924 13.24v7.223zm-358.916-24.321h-31.575v25.561h36.959v6.166c0 6.615-5.235 10.225-9.875 10.225h-26.338v43.906h-8.529c-7.481 0-11.971-3.91-11.971-12.028v-75.034c0-12.781 5.087-15.938 17.06-15.938h45.94v6.467c0 4.809-3.592 10.675-11.671 10.675zm523.509 20.084c-10.265 0-16.908 9.918-16.908 22.994 0 16.829 8.756 27.8 20.381 27.8 11.324 0 16.306-8.416 16.306-23.142 0-20.287-8.907-27.652-19.779-27.652zm-463.472 30.109h-7.195c-15.289 0-19.637 3.605-19.637 10.217 0 6.312 5.098 10.068 13.941 10.068 8.694 0 12.891-4.207 12.891-12.472zm339.227-29.25c-11.654 0-17.557 9.645-17.557 23.059 0 16.127 5.903 25.771 19.372 25.771 11.805 0 17.555-9.644 17.555-22.908 0-16.277-6.053-25.922-19.37-25.922zm61.123-21.323c-6.46 0-11.716-5.45-11.716-11.956 0-6.51 5.256-11.806 11.716-11.806 6.457 0 11.864 5.296 11.864 11.806 0 6.506-5.407 11.956-11.864 11.956zm-213.758-258.233c-60.633 0-109.795 39.083-109.795 87.296v39.089c0 48.213 49.162 87.302 109.795 87.302s109.783-39.089 109.783-87.302v-39.089c0-48.213-49.15-87.296-109.783-87.296zm76.64 137.138c0 21.368-15.739 36.172-38.231 36.172h-5.063c-23.99 0-40.485-13.492-40.485-32.047 0-17.992 13.12-31.673 50.233-31.673h8.807v-1.316c0-14.243-6.746-24.365-21.743-24.365-18.18 0-28.297 6.934-32.049 11.621h-.935v-8.058c0-11.246 10.123-24.738 36.735-24.738 22.492 0 42.731 16.306 42.731 51.163zm-112.28-7.808h-10.872v42.295h-10.116c-8.063 0-15.185-6.184-15.185-14.997v-66.806c0-20.621 9.562-46.443 38.285-52.838 29.073-6.474 37.204 7.773 37.204 7.773s-18.191-.249-32.444 10.895c-8.114 6.343-17.459 20.33-17.744 36.235v19.649c17.948 3.444 32.316-2.531 36.553-4.419l.727-.092s-1.287 22.305-26.408 22.305zm54.183 10.996c0 7.871 6.371 12.557 17.425 12.557 10.872 0 16.12-5.248 16.12-15.558v-9.743h-8.994c-19.121 0-24.551 4.494-24.551 12.744z"
              fill="#1a1919" transform="matrix(.820674 0 0 .720142 76.3033 77.1749)"></path>
    </g>
</svg>