<svg xmlns="http://www.w3.org/2000/svg" fill="none" viewBox="0 0 126.06099700927734 40">
  <path fill="#150A45" d="M12.306 10.588c-1.02-1.694-2.67-2.661-5.089-2.661C2.683 7.955 0 11.562 0 16.559s2.683 8.604 7.217 8.604a5.52 5.52 0 002.437-.422 5.61 5.61 0 002.021-1.448V25.7c0 1.637-.867 3.578-3.612 3.578-2.08 0-3.106-1.165-3.467-2.414l-3.68 1.779c.921 2.364 3.126 4.348 7.403 4.348 6.344 0 7.973-4.277 7.973-8.026V8.166H12.41l-.104 2.421zm-4.097 10.65c-2.268 0-3.606-1.842-3.606-4.714 0-2.873 1.338-4.715 3.606-4.715 2.267 0 3.577 1.842 3.577 4.715 0 2.872-1.31 4.715-3.577 4.715zm94.509-13.34a5.797 5.797 0 00-2.562.588A5.91 5.91 0 0098.1 10.15l-.298-1.984h-4.097v16.729h4.784V15.45c0-2.612.97-3.635 2.891-3.635 1.338 0 2.447.592 2.447 3.14v9.939h4.784V13.983c0-3.537-2.191-6.085-5.893-6.085zm-74.113 9.706c0 2.294-.97 3.635-2.884 3.635-1.338 0-2.454-.593-2.454-3.141V8.167h-4.784v10.89c0 3.53 2.19 6.092 5.893 6.092.888.002 1.765-.2 2.566-.591A5.918 5.918 0 0029 22.89l.298 1.99h4.09V8.168h-4.783v9.437zM40.69 8.166h-4.785v16.729h4.784V8.166zm13.275 1.229a5.84 5.84 0 00-4.16-1.412c-4.554 0-7.244 3.607-7.244 8.604 0 4.998 2.69 8.604 7.245 8.604a5.463 5.463 0 002.81-.573 5.58 5.58 0 002.154-1.925l.118 2.202h3.882V.402h-4.784l-.02 8.993zm-3.112 11.844c-2.267 0-3.605-1.843-3.605-4.715 0-2.873 1.338-4.715 3.605-4.715s3.605 1.842 3.605 4.715c0 2.872-1.338 4.715-3.605 4.715zM38.297 0a2.64 2.64 0 00-1.483.458 2.708 2.708 0 00-.983 1.22 2.764 2.764 0 00-.152 1.57c.103.527.357 1.011.73 1.391.374.38.85.639 1.367.744a2.625 2.625 0 001.543-.155 2.68 2.68 0 001.197-1 2.753 2.753 0 00-.331-3.432A2.646 2.646 0 0038.297 0zm52.877 8.166h-4.783v16.729h4.783V8.166zM88.782 0c-.528 0-1.043.16-1.483.458a2.708 2.708 0 00-.983 1.22 2.762 2.762 0 00-.151 1.57c.103.527.357 1.011.73 1.391.373.38.849.639 1.367.744a2.625 2.625 0 001.542-.155 2.68 2.68 0 001.198-1A2.753 2.753 0 0090.67.795 2.647 2.647 0 0088.782 0zm37.265 17.067v-.508c0-5.167-2.912-8.604-7.717-8.604-4.804 0-8.035 3.437-8.035 8.604s3.238 8.604 8.035 8.604c3.321 0 5.796-1.61 6.968-4.327l-3.467-1.672a3.464 3.464 0 01-1.291 1.787 3.369 3.369 0 01-2.092.627 3.43 3.43 0 01-2.404-.895 3.548 3.548 0 01-1.145-2.331h.034l11.114-1.285zm-11.266-1.687c0-2.428 1.421-4.016 3.536-4.016a3.386 3.386 0 012.359.906 3.505 3.505 0 011.107 2.306l-7.002.804zM68.49 7.955c-4.805 0-8.042 3.437-8.042 8.604s3.237 8.604 8.042 8.604c3.314 0 5.789-1.61 6.933-4.327l-3.467-1.672a3.463 3.463 0 01-1.265 1.77 3.362 3.362 0 01-2.056.644A3.43 3.43 0 0166.2 20.7a3.552 3.552 0 01-1.163-2.348l11.093-1.299v-.508c.07-5.153-2.843-8.59-7.64-8.59zm-3.57 7.425c0-2.428 1.386-4.016 3.542-4.016a3.383 3.383 0 012.36.906 3.504 3.504 0 011.107 2.306l-7.01.804zm17.692 4.475V.402H77.83V20.35c0 2.316.457 4.737 4.506 4.737.767.04 1.534-.09 2.246-.382v-3.733s-1.969.508-1.969-1.116z"></path>
  <path fill="#5532FA" d="M126.061 29.293H19.045v7.34H.139V40h22.206v-7.348H126.06v-3.36z"></path>
</svg>
