<svg fill="none" viewBox="0.8499994277954102 0 16.30000114440918 32" xmlns="http://www.w3.org/2000/svg">
  <path d="M13.15 2.7c-1-1.7-2.7-2.7-5.1-2.7-4.5 0-7.2 3.6-7.2 8.6s2.7 8.6 7.2 8.6c.8 0 1.7-.1 2.4-.4.8-.3 1.5-.8 2-1.4v2.4c0 1.6-.9 3.6-3.6 3.6-2.1 0-3.1-1.2-3.5-2.4l-3.7 1.8c1 2.2 3.2 4.2 7.5 4.2 6.3 0 8-4.3 8-8V.2h-3.9l-.1 2.5zm-4.1 10.6c-2.3 0-3.6-1.8-3.6-4.7 0-2.9 1.3-4.7 3.6-4.7s3.6 1.8 3.6 4.7c0 2.8-1.3 4.7-3.6 4.7z" fill="#150A45"></path>
  <path d="M17.15 26.3V32H.95v-3.4h12.9v-2.3h3.3z" fill="#5532FA"></path>
</svg>
