<svg version="1.0" xmlns="http://www.w3.org/2000/svg" viewBox="99 79.99999237060547 280.7536315917969 318.8374938964844">
<g transform="translate(0.000000,480.000000) scale(0.100000,-0.100000)" fill="#000000" stroke="none">
<path d="M3010 3923 c-18 -43 -50 -121 -70 -173 l-38 -95 -384 -3 -383 -2
-359 -888 c-197 -488 -387 -957 -422 -1042 -155 -382 -364 -900 -364 -905 0
-3 171 -4 381 -3 l381 3 70 173 71 172 381 0 382 0 64 158 c35 86 99 245 142
352 44 107 106 260 138 340 373 919 793 1959 797 1973 5 16 -18 17 -375 17
l-380 0 -32 -77z m251 -320 c-30 -77 -418 -1038 -690 -1708 l-149 -370 -193
-5 -192 -5 -72 -175 -72 -175 -191 -3 -192 -2 19 47 c31 79 508 1256 576 1423
35 85 75 184 89 220 13 36 58 148 100 250 l75 185 193 5 193 5 57 140 c31 77
64 157 72 178 l16 37 190 0 190 0 -19 -47z"></path>
</g>
</svg>
