<svg
   xmlns:dc="http://purl.org/dc/elements/1.1/"
   xmlns:cc="http://creativecommons.org/ns#"
   xmlns:rdf="http://www.w3.org/1999/02/22-rdf-syntax-ns#"
   xmlns:svg="http://www.w3.org/2000/svg"
   xmlns="http://www.w3.org/2000/svg"
   xmlns:sodipodi="http://sodipodi.sourceforge.net/DTD/sodipodi-0.dtd"
   xmlns:inkscape="http://www.inkscape.org/namespaces/inkscape"
   viewBox="0 0 407.66 240"
   version="1.1"
   id="svg10"
   sodipodi:docname="cp.svg"
   inkscape:version="0.92.4 (5da689c313, 2019-01-14)">
  <metadata
     id="metadata14">
    <rdf:RDF>
      <cc:Work
         rdf:about="">
        <dc:format>image/svg+xml</dc:format>
        <dc:type
           rdf:resource="http://purl.org/dc/dcmitype/StillImage" />
        <dc:title></dc:title>
      </cc:Work>
    </rdf:RDF>
  </metadata>
  <sodipodi:namedview
     pagecolor="#ffffff"
     bordercolor="#666666"
     borderopacity="1"
     objecttolerance="10"
     gridtolerance="10"
     guidetolerance="10"
     inkscape:pageopacity="0"
     inkscape:pageshadow="2"
     inkscape:window-width="1256"
     inkscape:window-height="755"
     id="namedview12"
     showgrid="false"
     inkscape:zoom="0.69665897"
     inkscape:cx="203.83"
     inkscape:cy="120"
     inkscape:window-x="0"
     inkscape:window-y="0"
     inkscape:window-maximized="0"
     inkscape:current-layer="svg10" />
  <defs
     id="defs4">
    <style
       id="style2">.cls-1{fill:#ff6c2c}</style>
  </defs>
  <g
     id="Layer_2"
     data-name="Layer 2">
    <g
       id="Layer_1-2"
       data-name="Layer 1">
      <path
         class="cls-1"
         d="M89.69 59.1h67.8L147 99.3a25.38 25.38 0 01-9 13.5 24.32 24.32 0 01-15.3 5.1H91.19a30.53 30.53 0 00-19 6.3 33 33 0 00-11.55 17.1 31.91 31.91 0 00-.45 15.3A33.1 33.1 0 0066 169.35a30.29 30.29 0 0010.8 8.85 31.74 31.74 0 0014.4 3.3h19.2a10.8 10.8 0 018.85 4.35 10.4 10.4 0 012 9.75l-12 44.4h-21a84.77 84.77 0 01-39.75-9.45 89.78 89.78 0 01-30.21-25.05A88.4 88.4 0 011.94 170 87.51 87.51 0 013 129l1.2-4.5a88.69 88.69 0 0131.64-47.25 89.91 89.91 0 0125-13.35 87 87 0 0128.85-4.8zM123.89 240L183 18.6a25.38 25.38 0 019-13.5A24.28 24.28 0 01207.29 0H270a84.8 84.8 0 0139.75 9.45 89.21 89.21 0 0146.65 60.6 83.8 83.8 0 01-1.2 41l-1.2 4.5a89.88 89.88 0 01-12 26.55 87.65 87.65 0 01-73.2 39.15h-54.3l10.8-40.5a25.38 25.38 0 019-13.2 24.32 24.32 0 0115.3-5.1H267a31.56 31.56 0 0030.6-23.7A29.5 29.5 0 00298 84a33.1 33.1 0 00-5.85-12.75 31.85 31.85 0 00-10.8-9A30.61 30.61 0 00267 58.8h-33.6l-43.8 162.9a25.38 25.38 0 01-9 13.2 23.88 23.88 0 01-15 5.1zM361.18 32.31h-3.71V3.71h-10.1V.42h23.91v3.29h-10.1zM390.19 32.31L379.37 4h-.17q.3 3.36.3 8v20.31h-3.42V.42h5.58l10.1 26.3h.18L402.12.42h5.54v31.89H404V11.76c0-2.36.11-4.91.31-7.68h-.17l-10.96 28.23z"
         id="path6" />
    </g>
  </g>
</svg>
