<svg xmlns:dc="http://purl.org/dc/elements/1.1/" xmlns:cc="http://creativecommons.org/ns#" xmlns:rdf="http://www.w3.org/1999/02/22-rdf-syntax-ns#" xmlns:svg="http://www.w3.org/2000/svg" xmlns="http://www.w3.org/2000/svg" xmlns:sodipodi="http://sodipodi.sourceforge.net/DTD/sodipodi-0.dtd" xmlns:inkscape="http://www.inkscape.org/namespaces/inkscape" version="1.1" id="svg10" sodipodi:docname="cpanel.svg" inkscape:version="0.92.4 (5da689c313, 2019-01-14)" viewBox="0.00 -0.00 407.66 240.01">
  <metadata id="metadata14">
    <rdf:rdf>
      <cc:work rdf:about="">
        <dc:format>image/svg+xml</dc:format>
        <dc:type rdf:resource="http://purl.org/dc/dcmitype/StillImage"></dc:type>
        <dc:title></dc:title>
      </cc:work>
    </rdf:rdf>
  </metadata>
  <sodipodi:namedview pagecolor="#ffffff" bordercolor="#666666" borderopacity="1" objecttolerance="10" gridtolerance="10" guidetolerance="10" inkscape:pageopacity="0" inkscape:pageshadow="2" inkscape:window-width="1256" inkscape:window-height="755" id="namedview12" showgrid="false" inkscape:zoom="0.69665897" inkscape:cx="-48.086658" inkscape:cy="120" inkscape:window-x="1920" inkscape:window-y="0" inkscape:window-maximized="0" inkscape:current-layer="svg10"></sodipodi:namedview>
  <defs id="defs4">
    <style id="style2">.cls-1{fill:#ff6c2c}</style>
  </defs>
  <g id="Layer_2" data-name="Layer 2">
    <g id="Layer_1-2" data-name="Layer 1">
      <path class="cls-1" d="m 89.69,59.1 h 67.8 L 147,99.3 a 25.38,25.38 0 0 1 -9,13.5 24.32,24.32 0 0 1 -15.3,5.1 H 91.19 a 30.53,30.53 0 0 0 -19,6.3 33,33 0 0 0 -11.55,17.1 31.91,31.91 0 0 0 -0.45,15.3 33.1,33.1 0 0 0 5.81,12.75 30.29,30.29 0 0 0 10.8,8.85 31.74,31.74 0 0 0 14.4,3.3 h 19.2 a 10.8,10.8 0 0 1 8.85,4.35 10.4,10.4 0 0 1 2,9.75 l -12,44.4 h -21 A 84.77,84.77 0 0 1 48.5,230.55 89.78,89.78 0 0 1 18.29,205.5 88.4,88.4 0 0 1 1.94,170 87.51,87.51 0 0 1 3,129 l 1.2,-4.5 A 88.69,88.69 0 0 1 35.84,77.25 89.91,89.91 0 0 1 60.84,63.9 87,87 0 0 1 89.69,59.1 Z M 123.89,240 183,18.6 A 25.38,25.38 0 0 1 192,5.1 24.28,24.28 0 0 1 207.29,0 H 270 a 84.8,84.8 0 0 1 39.75,9.45 89.21,89.21 0 0 1 46.65,60.6 83.8,83.8 0 0 1 -1.2,41 l -1.2,4.5 a 89.88,89.88 0 0 1 -12,26.55 87.65,87.65 0 0 1 -73.2,39.15 h -54.3 l 10.8,-40.5 a 25.38,25.38 0 0 1 9,-13.2 24.32,24.32 0 0 1 15.3,-5.1 H 267 A 31.56,31.56 0 0 0 297.6,98.75 29.5,29.5 0 0 0 298,84 33.1,33.1 0 0 0 292.15,71.25 31.85,31.85 0 0 0 281.35,62.25 30.61,30.61 0 0 0 267,58.8 h -33.6 l -43.8,162.9 a 25.38,25.38 0 0 1 -9,13.2 23.88,23.88 0 0 1 -15,5.1 z M 361.18,32.31 h -3.71 V 3.71 h -10.1 V 0.42 h 23.91 v 3.29 h -10.1 z m 29.01,0 L 379.37,4 h -0.17 q 0.3,3.36 0.3,8 v 20.31 h -3.42 V 0.42 h 5.58 l 10.1,26.3 h 0.18 l 10.18,-26.3 h 5.54 V 32.31 H 404 V 11.76 c 0,-2.36 0.11,-4.91 0.31,-7.68 h -0.17 l -10.96,28.23 z" id="path6" inkscape:connector-curvature="0" style="fill:#ff6c2c"></path>
    </g>
  </g>
</svg>
