<svg viewBox="0 0 885 613" version="1.1" xmlns="http://www.w3.org/2000/svg" xmlns:xlink="http://www.w3.org/1999/xlink" xml:space="preserve" style="fill-rule:evenodd;clip-rule:evenodd;stroke-linejoin:round;stroke-miterlimit:2;">
    <g transform="matrix(1,0,0,1,-212.706,-44.7065)">
        <g id="ml">
            <g transform="matrix(4.16667,0,0,4.16667,1097.03,367.548)">
                <path d="M0,-8.075C0,-46.313 -47.506,-77.482 -106.113,-77.482C-164.717,-77.482 -212.224,-46.313 -212.224,-8.075C-212.224,-7.089 -212.237,-4.359 -212.237,-4.012C-212.237,36.552 -170.713,69.407 -106.128,69.407C-41.142,69.407 0,36.561 0,-4.004L0,-8.075Z" style="fill:rgb(0,47,110);fill-rule:nonzero;"/>
            </g>
            <g transform="matrix(0,-4.16667,-4.16667,0,654.986,-91.3735)">
                <path d="M-102.032,-102.027C-138.08,-102.027 -167.303,-56.346 -167.303,0.004C-167.303,56.356 -138.08,102.032 -102.032,102.032C-65.98,102.032 -36.756,56.356 -36.756,0.004C-36.756,-56.346 -65.98,-102.027 -102.032,-102.027" style="fill:rgb(255,233,3);fill-rule:nonzero;"/>
            </g>
            <g transform="matrix(4.16667,0,0,4.16667,513.81,265.99)">
                <path d="M0,-4.329C-0.055,-4.226 -1.072,-3.173 -0.413,-2.327C1.199,-0.27 6.17,0.909 11.199,-0.218C14.194,-0.891 18.03,-3.945 21.75,-6.894C25.779,-10.096 29.778,-13.301 33.797,-14.576C38.052,-15.93 40.778,-15.35 42.579,-14.804C44.556,-14.215 46.878,-12.914 50.585,-10.133C57.566,-4.885 85.642,19.618 90.49,23.856C94.396,22.09 111.754,14.617 135.348,9.416C133.3,-3.162 125.646,-14.668 114.044,-24.091C97.875,-17.299 78.11,-13.755 58.783,-23.193C58.685,-23.234 48.224,-28.185 37.906,-27.941C22.574,-27.586 15.933,-20.949 8.9,-13.923L0,-4.329Z" style="fill:white;fill-rule:nonzero;"/>
            </g>
            <g transform="matrix(4.16667,0,0,4.16667,886.098,299.122)">
                <path d="M0,18.568C-0.328,18.275 -33.01,-10.319 -40.411,-15.884C-44.696,-19.097 -47.08,-19.917 -49.582,-20.235C-50.884,-20.404 -52.685,-20.162 -53.942,-19.818C-57.386,-18.881 -61.889,-15.87 -65.887,-12.7C-70.028,-9.403 -73.929,-6.298 -77.552,-5.487C-82.177,-4.45 -87.828,-5.674 -90.406,-7.417C-91.453,-8.119 -92.187,-8.931 -92.541,-9.756C-93.492,-11.965 -91.734,-13.73 -91.447,-14.026L-82.429,-23.78C-81.383,-24.826 -80.326,-25.873 -79.245,-26.904C-82.156,-26.525 -84.844,-25.782 -87.462,-25.053C-90.729,-24.134 -93.872,-23.261 -97.051,-23.262C-98.379,-23.262 -105.492,-24.428 -106.841,-24.795C-115.002,-27.029 -122.165,-29.204 -132.865,-34.198C-145.683,-24.655 -154.258,-12.722 -156.733,0.422C-154.893,0.91 -151.923,1.793 -150.678,2.07C-121.666,8.521 -112.628,15.167 -110.99,16.552C-109.215,14.58 -106.656,13.329 -103.798,13.329C-100.586,13.333 -97.694,14.946 -95.937,17.438C-94.274,16.127 -91.983,15.005 -89.021,15.006C-87.676,15.006 -86.279,15.255 -84.87,15.734C-81.599,16.857 -79.91,19.036 -79.032,21.007C-77.935,20.512 -76.584,20.147 -74.995,20.151C-73.433,20.151 -71.808,20.507 -70.17,21.216C-64.821,23.511 -63.987,28.766 -64.474,32.728C-64.092,32.682 -63.709,32.666 -63.32,32.666C-56.978,32.669 -51.821,37.824 -51.821,44.17C-51.821,46.133 -52.323,47.98 -53.195,49.599C-51.471,50.57 -47.071,52.766 -43.209,52.277C-40.124,51.885 -38.953,50.833 -38.532,50.239C-38.245,49.832 -37.941,49.356 -38.226,49.014L-46.411,39.92C-46.411,39.92 -47.759,38.645 -47.313,38.152C-46.851,37.646 -46.021,38.371 -45.43,38.866C-41.263,42.345 -36.177,47.597 -36.177,47.597C-36.092,47.652 -35.753,48.316 -33.873,48.653C-32.252,48.943 -29.388,48.776 -27.402,47.148C-26.902,46.735 -26.401,46.218 -25.983,45.691C-26.014,45.713 -26.043,45.751 -26.073,45.764C-23.98,43.084 -26.306,40.374 -26.306,40.374L-35.864,29.642C-35.864,29.642 -37.229,28.379 -36.766,27.87C-36.349,27.429 -35.47,28.094 -34.872,28.592C-31.844,31.123 -27.568,35.415 -23.473,39.427C-22.675,40.015 -19.07,42.239 -14.304,39.107C-11.407,37.212 -10.827,34.879 -10.909,33.12C-11.11,30.792 -12.928,29.131 -12.928,29.131L-25.983,16.007C-25.983,16.007 -27.361,14.828 -26.872,14.232C-26.477,13.732 -25.578,14.454 -24.993,14.946C-20.833,18.425 -9.574,28.746 -9.574,28.746C-9.417,28.86 -5.526,31.629 -0.719,28.569C1,27.47 2.098,25.813 2.191,23.89C2.356,20.55 0,18.568 0,18.568" style="fill:white;fill-rule:nonzero;"/>
            </g>
            <g transform="matrix(4.16667,0,0,4.16667,622.261,439.874)">
                <path d="M0,1.426C-2.024,1.402 -4.24,2.605 -4.53,2.43C-4.688,2.323 -4.405,1.511 -4.215,1.043C-4.021,0.575 -1.355,-7.446 -7.853,-10.231C-12.826,-12.368 -15.863,-9.965 -16.909,-8.88C-17.184,-8.594 -17.306,-8.618 -17.337,-8.981C-17.437,-10.424 -18.083,-14.332 -22.377,-15.639C-28.509,-17.52 -32.453,-13.237 -33.454,-11.693C-33.901,-15.188 -36.858,-17.902 -40.479,-17.906C-44.412,-17.91 -47.601,-14.723 -47.606,-10.79C-47.607,-6.858 -44.42,-3.67 -40.485,-3.67C-38.575,-3.664 -36.84,-4.429 -35.563,-5.656C-35.523,-5.621 -35.507,-5.553 -35.528,-5.417C-35.827,-3.656 -36.378,2.744 -29.678,5.348C-26.99,6.39 -24.705,5.616 -22.811,4.287C-22.244,3.888 -22.154,4.055 -22.234,4.588C-22.477,6.235 -22.17,9.757 -17.23,11.759C-13.471,13.285 -11.247,11.721 -9.79,10.375C-9.156,9.795 -8.982,9.891 -8.95,10.785C-8.771,15.55 -4.814,19.33 -0.01,19.333C4.939,19.336 8.949,15.334 8.954,10.389C8.958,5.439 4.948,1.481 0,1.426" style="fill:white;fill-rule:nonzero;"/>
            </g>
            <g transform="matrix(4.16667,0,0,4.16667,622.261,151.352)">
                <path d="M0,87.941C-4.486,87.936 -8.132,84.454 -8.296,80.012C-8.31,79.629 -8.348,78.617 -9.204,78.617C-9.557,78.617 -9.862,78.828 -10.215,79.145C-11.201,80.061 -12.458,80.989 -14.292,80.989C-15.126,80.989 -16.027,80.797 -16.98,80.406C-21.718,78.489 -21.782,75.234 -21.588,73.926C-21.537,73.576 -21.52,73.215 -21.759,72.93L-22.048,72.67L-22.345,72.67C-22.587,72.67 -22.833,72.769 -23.17,73.007C-24.542,73.967 -25.854,74.435 -27.191,74.435C-27.925,74.435 -28.679,74.288 -29.437,73.998C-35.672,71.569 -35.179,65.682 -34.875,63.91C-34.829,63.552 -34.919,63.273 -35.147,63.088L-35.588,62.725L-36,63.121C-37.215,64.293 -38.806,64.932 -40.477,64.932C-44.048,64.929 -46.955,62.025 -46.953,58.456C-46.95,54.88 -44.041,51.981 -40.467,51.985C-37.24,51.985 -34.491,54.413 -34.078,57.637L-33.858,59.376L-32.903,57.906C-32.795,57.732 -30.179,53.775 -25.366,53.78C-24.452,53.78 -23.506,53.927 -22.555,54.221C-18.72,55.392 -18.07,58.87 -17.969,60.318C-17.901,61.164 -17.3,61.202 -17.183,61.202C-16.852,61.202 -16.607,60.994 -16.435,60.81C-15.711,60.055 -14.134,58.8 -11.666,58.8C-10.539,58.802 -9.337,59.069 -8.096,59.604C-2,62.219 -4.765,69.965 -4.798,70.047C-5.323,71.331 -5.342,71.897 -4.85,72.225L-4.609,72.337L-4.434,72.337C-4.158,72.337 -3.816,72.219 -3.252,72.028C-2.422,71.741 -1.169,71.308 0.001,71.311L0.004,71.311C4.594,71.363 8.326,75.097 8.323,79.634C8.317,84.218 4.584,87.941 0,87.941M64.583,50.611C54.518,41.824 31.253,21.599 24.953,16.868C21.352,14.162 18.897,12.732 16.742,12.089C15.772,11.797 14.434,11.464 12.709,11.462C11.104,11.462 9.384,11.752 7.587,12.324C3.516,13.612 -0.541,16.837 -4.465,19.955L-4.667,20.115C-8.323,23.02 -12.101,26.026 -14.959,26.664C-16.206,26.945 -17.489,27.091 -18.771,27.091C-21.971,27.086 -24.848,26.164 -25.927,24.787C-26.105,24.56 -25.99,24.191 -25.574,23.662L-25.52,23.591L-16.665,14.048C-9.727,7.112 -3.176,0.564 11.903,0.216C12.154,0.21 12.408,0.206 12.658,0.206C22.043,0.212 31.427,4.414 32.479,4.901C41.282,9.192 50.366,11.374 59.5,11.382C69.017,11.385 78.836,9.029 89.162,4.274C88.009,3.303 86.807,2.361 85.573,1.434C76.503,5.367 67.861,7.355 59.526,7.351C51.01,7.344 42.499,5.299 34.239,1.269C33.804,1.061 23.442,-3.824 12.663,-3.83C12.381,-3.83 12.092,-3.824 11.811,-3.821C-0.856,-3.525 -7.992,0.975 -12.789,4.915C-17.456,5.027 -21.482,6.154 -25.064,7.154C-28.26,8.042 -31.021,8.814 -33.714,8.811C-34.822,8.811 -36.819,8.71 -36.999,8.704C-40.095,8.609 -55.691,4.783 -68.1,0.087C-69.367,0.983 -70.586,1.909 -71.773,2.852C-58.811,8.167 -43.036,12.277 -38.058,12.6C-36.674,12.69 -35.197,12.847 -33.72,12.85C-30.426,12.85 -27.142,11.925 -23.958,11.036C-22.08,10.507 -20.005,9.934 -17.827,9.516C-18.408,10.086 -18.988,10.666 -19.569,11.252L-28.569,20.984C-29.279,21.698 -30.813,23.607 -29.801,25.957C-29.398,26.905 -28.58,27.811 -27.437,28.583C-25.291,30.026 -21.452,31.002 -17.886,31.005C-16.534,31.005 -15.254,30.871 -14.076,30.606C-10.305,29.759 -6.349,26.609 -2.158,23.277C1.182,20.623 5.927,17.254 9.56,16.265C10.573,15.988 11.818,15.818 12.822,15.818C13.121,15.82 13.402,15.829 13.667,15.866C16.066,16.171 18.387,16.988 22.53,20.097C29.913,25.645 62.599,54.235 62.917,54.518C62.942,54.537 65.023,56.335 64.878,59.323C64.801,60.988 63.875,62.469 62.268,63.497C60.873,64.379 59.433,64.831 57.977,64.831C55.792,64.826 54.289,63.802 54.192,63.733C54.072,63.635 42.874,53.367 38.755,49.919C38.097,49.375 37.461,48.886 36.814,48.886C36.47,48.883 36.165,49.03 35.959,49.289C35.311,50.087 36.037,51.193 36.892,51.92L49.975,65.068C49.991,65.084 51.602,66.596 51.78,68.612C51.882,70.792 50.842,72.613 48.675,74.036C47.131,75.05 45.567,75.567 44.038,75.567C42.03,75.567 40.62,74.651 40.309,74.435L38.431,72.586C35.002,69.211 31.461,65.723 28.87,63.559C28.238,63.034 27.562,62.55 26.918,62.55C26.603,62.55 26.315,62.668 26.095,62.899C25.798,63.228 25.594,63.819 26.33,64.798C26.632,65.201 26.989,65.535 26.989,65.535L36.537,76.253C36.616,76.349 38.504,78.592 36.75,80.83L36.415,81.256C36.129,81.574 35.82,81.864 35.527,82.11C33.9,83.448 31.724,83.592 30.864,83.592C30.401,83.592 29.957,83.551 29.57,83.483C28.63,83.313 27.997,83.05 27.692,82.687L27.575,82.57C27.054,82.028 22.242,77.118 18.261,73.795C17.736,73.355 17.083,72.799 16.405,72.799C16.072,72.799 15.772,72.93 15.544,73.185C14.755,74.049 15.94,75.337 16.441,75.811L24.583,84.788C24.573,84.87 24.469,85.056 24.272,85.34C23.98,85.74 22.993,86.727 20.039,87.102C19.687,87.145 19.321,87.165 18.961,87.165C15.915,87.165 12.668,85.687 10.993,84.798C11.754,83.188 12.149,81.418 12.149,79.637C12.154,72.936 6.712,67.488 0.011,67.482C-0.131,67.482 -0.283,67.488 -0.428,67.493C-0.208,64.433 -0.64,58.641 -6.586,56.089C-8.296,55.348 -10.004,54.972 -11.663,54.972C-12.961,54.972 -14.209,55.194 -15.387,55.645C-16.617,53.252 -18.663,51.508 -21.332,50.597C-22.805,50.087 -24.272,49.83 -25.689,49.83C-28.163,49.83 -30.443,50.556 -32.477,52.003C-34.424,49.583 -37.368,48.146 -40.467,48.146C-43.177,48.146 -45.786,49.232 -47.718,51.145C-50.251,49.211 -60.304,42.825 -87.207,36.717C-88.51,36.422 -91.5,35.564 -93.333,35.028C-93.637,36.484 -93.868,37.957 -94.021,39.443C-94.021,39.443 -89.058,40.631 -88.082,40.849C-60.599,46.954 -51.518,53.302 -49.982,54.501C-50.501,55.749 -50.772,57.097 -50.775,58.456C-50.778,64.13 -46.161,68.756 -40.479,68.762C-39.841,68.762 -39.21,68.708 -38.588,68.592C-37.733,72.769 -35,75.937 -30.82,77.561C-29.601,78.032 -28.364,78.272 -27.152,78.272C-26.369,78.275 -25.578,78.176 -24.807,77.98C-24.036,79.941 -22.297,82.383 -18.416,83.959C-17.057,84.508 -15.695,84.795 -14.371,84.795C-13.291,84.795 -12.233,84.607 -11.226,84.232C-9.365,88.764 -4.94,91.768 -0.003,91.768C3.267,91.771 6.408,90.439 8.699,88.081C10.658,89.172 14.8,91.141 18.979,91.15C19.521,91.15 20.03,91.112 20.536,91.048C24.689,90.523 26.623,88.902 27.51,87.638C27.669,87.419 27.814,87.184 27.937,86.943C28.919,87.222 29.997,87.452 31.231,87.455C33.499,87.455 35.675,86.683 37.877,85.081C40.038,83.518 41.575,81.284 41.795,79.378C41.799,79.353 41.806,79.323 41.809,79.295C42.535,79.446 43.283,79.525 44.031,79.525C46.365,79.525 48.66,78.795 50.855,77.359C55.089,74.583 55.825,70.956 55.755,68.585C56.497,68.74 57.254,68.82 58.005,68.82C60.199,68.82 62.351,68.158 64.403,66.85C67.026,65.173 68.605,62.605 68.843,59.615C69.01,57.583 68.505,55.534 67.435,53.773C74.527,50.717 90.74,44.802 109.83,40.501C109.715,39.021 109.502,37.559 109.238,36.104C86.138,41.23 68.902,48.689 64.583,50.611" style="fill:rgb(0,47,110);fill-rule:nonzero;"/>
            </g>
        </g>
    </g>
</svg>
