<?xml version="1.0" encoding="UTF-8" standalone="no"?>
<svg
   id="Layer_1"
   data-name="Layer 1"
   viewBox="0 0 475.89288 364.47001"
   version="1.1"
   sodipodi:docname="68747470733a2f2f676f61757468656e74696b2e696f2f696d672f69636f6e5f746f705f6272616e645f636f6c6f75722e737667.svg"
   width="475.89288"
   height="364.47"
   inkscape:version="1.2.1 (9c6d41e4, 2022-07-14)"
   xmlns:inkscape="http://www.inkscape.org/namespaces/inkscape"
   xmlns:sodipodi="http://sodipodi.sourceforge.net/DTD/sodipodi-0.dtd"
   xmlns="http://www.w3.org/2000/svg"
   xmlns:svg="http://www.w3.org/2000/svg">
  <sodipodi:namedview
     id="namedview134"
     pagecolor="#ffffff"
     bordercolor="#000000"
     borderopacity="0.25"
     inkscape:showpageshadow="2"
     inkscape:pageopacity="0.0"
     inkscape:pagecheckerboard="0"
     inkscape:deskcolor="#d1d1d1"
     showgrid="false"
     inkscape:zoom="0.44825164"
     inkscape:cx="298.93923"
     inkscape:cy="264.36044"
     inkscape:window-width="1522"
     inkscape:window-height="873"
     inkscape:window-x="2720"
     inkscape:window-y="305"
     inkscape:window-maximized="0"
     inkscape:current-layer="Layer_1" />
  <defs
     id="defs87">
    <style
       id="style85">.cls-1{fill:#fd4b2d;}</style>
  </defs>
  <rect
     class="cls-1"
     x="260.15277"
     y="75.309998"
     width="16.65"
     height="47.580002"
     id="rect109" />
  <rect
     class="cls-1"
     x="303.46277"
     y="73.309998"
     width="16.65"
     height="37.209999"
     id="rect111" />
  <path
     class="cls-1"
     d="M 60.742759,127.65 A 60.71,60.71 0 0 0 7.3827587,159.48 H 35.652759 c 12.5,-10.78 30.66,-13.93 43.79,0 H 109.33276 C 97.652759,143.71 80.122759,127.65 60.742759,127.65 Z"
     id="path113" />
  <path
     class="cls-1"
     d="m 101.07276,188.19 c -38.940001,81.44 -107.2100013,12 -65.470001,-28.71 H 7.3827587 c -22.1599997,38.61 8.4600003,90.67 53.3600003,89.49 34.72,0 63.390001,-51.54 63.390001,-60.66 0,-4 -5.6,-16.34 -14.85,-28.83 H 79.392759 c 9.91,8.99 18.55,22.09 21.680001,28.71 z m 1,-2.37 z"
     id="path115" />
  <path
     class="cls-1"
     d="m 475.87276,74.73 v 215 a 74.83,74.83 0 0 1 -74.75,74.74 h -31.72 v -73.2 h -151.5 v 73.2 h -31.72 a 74.83,74.83 0 0 1 -74.75,-74.74 v -67.61 h 240.22 V 92.81 h -116 v 72.65 h -124.22 V 74.73 a 71.49,71.49 0 0 1 0.51,-8.58 73.9,73.9 0 0 1 1.84,-10.07 c 0.28,-1.06 0.59,-2.12 0.9,-3.15 a 6.08,6.08 0 0 1 0.25,-0.79 c 0.17,-0.53 0.33,-1 0.5,-1.53 0.17,-0.53 0.37,-1 0.56,-1.54 0.19,-0.54 0.42,-1.15 0.64,-1.71 0.22,-0.56 0.48,-1.11 0.7,-1.67 a 76.7,76.7 0 0 1 6.79,-12.61 l 0.09,-0.11 c 0.67,-1 1.37,-2 2.09,-2.94 0.62,-0.81 1.23,-1.59 1.85,-2.37 0.62,-0.78 1.48,-1.76 2.24,-2.6 0.76,-0.84 1.48,-1.65 2.26,-2.43 l 0.08,-0.09 c 0.39,-0.44 0.81,-0.84 1.26,-1.26 a 75.74,75.74 0 0 1 8.89,-7.43 c 0.84,-0.62 1.73,-1.2 2.63,-1.79 0.9,-0.59 2,-1.26 3,-1.87 2,-1.15 4,-2.21 6,-3.16 0.65,-0.31 1.32,-0.62 2,-0.89 a 69.57,69.57 0 0 1 8.75,-3.16 c 1.15,-0.34 2.29,-0.65 3.47,-0.93 0.55,-0.14 1.11,-0.28 1.7,-0.39 a 76.61,76.61 0 0 1 10.12,-1.48 l 1.48,-0.08 c 0.25,0 0.48,0 0.73,0 1.11,-0.06 2.26,-0.08 3.41,-0.08 h 214.95 c 1.15,0 2.3,0 3.41,0.08 0.25,0 0.48,0 0.73,0 l 1.48,0.08 a 76.61,76.61 0 0 1 10.12,1.48 c 0.59,0.11 1.15,0.25 1.7,0.39 1.18,0.28 2.32,0.59 3.47,0.93 a 69.57,69.57 0 0 1 8.75,3.16 c 0.64,0.27 1.31,0.58 2,0.89 2.06,0.95 4,2 6,3.16 1,0.61 2,1.23 3,1.87 1,0.64 1.79,1.17 2.63,1.79 a 74.72,74.72 0 0 1 10.24,8.78 c 0.78,0.78 1.54,1.59 2.26,2.43 0.72,0.84 1.51,1.73 2.24,2.6 0.73,0.87 1.23,1.56 1.85,2.37 0.72,1 1.42,2 2.09,2.94 l 0.09,0.11 a 76.7,76.7 0 0 1 6.79,12.61 c 0.22,0.56 0.47,1.11 0.7,1.67 0.23,0.56 0.42,1.12 0.64,1.71 0.22,0.59 0.39,1 0.56,1.54 0.17,0.54 0.33,1 0.5,1.53 a 6.08,6.08 0 0 1 0.25,0.79 c 0.31,1 0.62,2.09 0.9,3.15 a 73.9,73.9 0 0 1 1.84,10.07 71.49,71.49 0 0 1 0.51,8.58 z"
     id="path117" />
  <path
     class="cls-1"
     d="m 463.17276,33.08 h -339 a 74.73,74.73 0 0 1 62,-33.08 h 215 a 74.73,74.73 0 0 1 62,33.08 z"
     id="path119" />
  <path
     class="cls-1"
     d="m 475.39276,66.16 h -363.48 a 73.92,73.92 0 0 1 12.22,-33.08 h 339 a 73.92,73.92 0 0 1 12.26,33.08 z"
     id="path121" />
  <path
     class="cls-1"
     d="m 475.89276,74.73 v 24.51 h -124.24 v -6.43 h -116 v 6.43 h -124.24 V 74.73 a 71.5,71.5 0 0 1 0.5,-8.58 h 363.48 a 71.5,71.5 0 0 1 0.5,8.58 z"
     id="path123" />
  <rect
     class="cls-1"
     x="111.41277"
     y="99.239998"
     width="124.27"
     height="33.09"
     id="rect125" />
  <rect
     class="cls-1"
     x="351.62274"
     y="99.239998"
     width="124.27"
     height="33.09"
     id="rect127" />
  <rect
     class="cls-1"
     x="111.41277"
     y="132.34001"
     width="124.27"
     height="33.07"
     id="rect129" />
  <rect
     class="cls-1"
     x="351.62274"
     y="132.34001"
     width="124.27"
     height="33.07"
     id="rect131" />
</svg>
