<svg xmlns="http://www.w3.org/2000/svg" xmlns:xlink="http://www.w3.org/1999/xlink" viewBox="0 0 435.82 414.98">
    <defs>
        <linearGradient id="a" x1="-26871.8" y1="1645.49" x2="-26326.1" y2="1754.22" gradientTransform="matrix(0.09, 0, 0, -0.09, 2577.55, 507.91)" gradientUnits="userSpaceOnUse">
            <stop offset="0" stop-color="#2b7a77" />
            <stop offset="0.51" stop-color="#4ebaa9" />
            <stop offset="1" stop-color="#5cc2b1" />
        </linearGradient>
        <linearGradient id="b" x1="-25520.2" y1="5003.12" x2="-25791" y2="4367.16" gradientTransform="matrix(0.09, 0, 0, -0.09, 2577.55, 507.91)" gradientUnits="userSpaceOnUse">
            <stop offset="0" stop-color="#236736" />
            <stop offset="0.49" stop-color="#6ba443" />
            <stop offset="1" stop-color="#86c146" />
        </linearGradient>
        <linearGradient id="c" x1="-25247.15" y1="5284.24" x2="-24849.16" y2="4336.43" gradientTransform="matrix(0.09, 0, 0, -0.09, 2577.55, 507.91)" gradientUnits="userSpaceOnUse">
            <stop offset="0" stop-color="#29a5e3" />
            <stop offset="0.52" stop-color="#356eb9" />
            <stop offset="1" stop-color="#394da5" />
        </linearGradient>
    </defs>
    <path d="M81.42,415c-11.81,0-18-4.45-23.84-14.8L3.77,300.43C.06,293.28,0,290.9,0,285.75l84.57,3.73,19.36,19.35H273.57L132.72,396.09C125.85,400.15,99.74,415,81.42,415Z" style="fill:url(#a)" />
    <path d="M104,308.83H30.85C8.76,308.83,0,297.28,0,285.75c0-7.3,2.35-11.27,5.59-19.38L112.2,11.87l1.15-2.23,1.47-2.3,3.07-3L122.4,2,128.92.51,140.15.8l74.08,27.54-25,79Z" style="fill:url(#b)" />
    <path d="M318.81,415,150.53,16.61C147.63,9.82,143,1.07,131,1.07c-10.75,0-15.87,5.21-18.76,10.8,1.5-4,6-11.87,19.13-11.87H247.47c10.7,0,15.84,6.3,18.18,12.07L435.82,415Z" style="fill:url(#c)" />
</svg>