<svg xmlns="http://www.w3.org/2000/svg" viewBox="0 0.10000000149011612 84.30000305175781 61.400001525878906">
    <!--
    The logo of Namecheap Private Email
    Removed "Private Email" from svg and whitespace with https://jsfiddle.net/u9x423ph/2/
    -->
    <path d="M74.9 61.5H9.4c-5.2 0-9.4-4.2-9.4-9.4V9.5C0 4.3 4.2.1 9.4.1h65.5c5.2 0 9.4 4.2 9.4 9.4v42.6c-.1 5.2-4.3 9.4-9.4 9.4z"
          fill="#e6e7e8"></path>
    <path d="M47.4 36.7c-3.2 2.2-7.4 2.2-10.6 0l-7.7-5.3-3.3 3.8 10.3 9.5c3.3 3.4 8.7 3.4 12 0l10.3-9.5-3.3-3.8-7.7 5.3zM0 11.5l23.7 21.8 3.1-3.5zm57.5 18.3l3 3.5 23.7-21.8z"
          fill="#a6a8ab"></path>
    <path d="M60.5 33.3l-2.1 1.9L79.8 60c.8-.5 1.5-1.1 2.1-1.8L60.5 33.3zM2.2 58.2c.6.7 1.3 1.3 2.1 1.8l21.4-24.8-2.1-1.9L2.2 58.2z"
          fill="#d0d2d3"></path>
    <path d="M57.5 29.8l-2.4 1.6 3.3 3.8 2.1-1.9zm-33.8 3.5l2.1 1.9 3.3-3.8-2.3-1.6z"
          fill="#929497"></path>
    <path d="M81.5 2.9c-1.7-1.7-4-2.7-6.6-2.7H9.4c-2.6 0-4.9 1-6.6 2.7C1 4.6 0 6.9 0 9.5v1.9l26.8 18.3 2.3 1.6 7.7 5.3c3.2 2.2 7.4 2.2 10.6 0l7.7-5.3 2.3-1.6 26.8-18.3V9.5c0-2.6-1-4.9-2.7-6.6z"
          fill="#e6e7e8"></path>
</svg>