<svg xmlns="http://www.w3.org/2000/svg" viewBox="0 0.3899998664855957 84.20999908447266 60.91999816894531">
    <!--
    The logo of Namecheap Private Email
    Removed "Private Email" from svg and whitespace with https://jsfiddle.net/u9x423ph/2/
    -->
    <defs>
        <style>.c{fill:#e6e7e8;}.d{fill:#fff;}.e{fill:#929497;}.f{fill:#a6a8ab;}.g{fill:#d0d2d3;}.h{fill:#2e3191;}
        </style>
    </defs>
    <g>
        <rect class="c" x=".59" y=".39" width="83.62" height="60.92" rx="9.29" ry="9.29"></rect>
        <polygon class="h" points=".19 8.98 .2 8.99 .21 8.99 .19 8.98"></polygon>
        <polygon class="h" points="0 8.98 .02 8.99 .02 8.99 0 8.98"></polygon>
        <g>
            <path class="f"
                  d="M47.65,36.64c-3.16,2.17-7.33,2.17-10.5,0l-7.68-5.26-3.29,3.81,10.24,9.44c3.28,3.36,8.68,3.36,11.96,0l10.24-9.44-3.29-3.81-7.68,5.26Z"></path>
            <polygon class="f" points=".59 11.61 24.13 33.3 27.16 29.8 .59 11.61"></polygon>
            <polygon class="f" points="57.65 29.8 60.67 33.3 84.21 11.61 57.65 29.8"></polygon>
        </g>
        <g>
            <path class="g" d="M60.67,33.3l-2.05,1.89,21.29,24.67c.79-.5,1.5-1.12,2.1-1.83l-21.34-24.73Z"></path>
            <path class="g" d="M2.79,58.03c.6,.71,1.31,1.33,2.1,1.83l21.29-24.67-2.05-1.89L2.79,58.03Z"></path>
        </g>
        <g>
            <polygon class="e" points="57.65 29.8 55.34 31.38 58.62 35.19 60.67 33.3 57.65 29.8"></polygon>
            <polygon class="e" points="24.13 33.3 26.18 35.19 29.47 31.38 27.16 29.8 24.13 33.3"></polygon>
        </g>
        <path class="d"
              d="M81.49,3.11c-1.68-1.68-4-2.72-6.57-2.72H9.88C7.32,.39,5,1.43,3.32,3.11,1.63,4.79,.59,7.11,.59,9.68v1.93L27.16,29.8l2.31,1.58,7.68,5.26c3.16,2.17,7.33,2.17,10.5,0l7.68-5.26,2.31-1.58,26.56-18.19v-1.93c0-2.57-1.04-4.89-2.73-6.57Z"></path>
    </g>
</svg>