<svg viewBox="0 0 28 31" xmlns="http://www.w3.org/2000/svg">
    <path d="M16.81 8.99996L14.29 7.52996C14.0542 7.41125 13.794 7.34943 13.53 7.34943C13.2661 7.34943 13.0058 7.41125 12.77 7.52996L10.25 8.99996C9.71001 9.31996 9.70001 9.83996 10.25 10.15L12.77 11.64C13.0043 11.7634 13.2652 11.828 13.53 11.828C13.7949 11.828 14.0557 11.7634 14.29 11.64L16.81 10.15C16.9289 10.1079 17.0317 10.03 17.1045 9.927C17.1773 9.82403 17.2164 9.70104 17.2164 9.57496C17.2164 9.44887 17.1773 9.32588 17.1045 9.22291C17.0317 9.11994 16.9289 9.04205 16.81 8.99996V8.99996Z" fill="#4533CB"/>
    <path d="M26.64 7.17998L14.46 0.179981C14.2242 0.0612788 13.964 -0.000549316 13.7 -0.000549316C13.436 -0.000549316 13.1758 0.0612788 12.94 0.179981L0.76 7.17998C0.539933 7.32631 0.356779 7.52166 0.224914 7.75069C0.0930491 7.97972 0.0160633 8.23619 0 8.49998L0 22.5C0.0160633 22.7638 0.0930491 23.0202 0.224914 23.2493C0.356779 23.4783 0.539933 23.6736 0.76 23.82L12.94 30.82C13.1758 30.9387 13.436 31.0005 13.7 31.0005C13.964 31.0005 14.2242 30.9387 14.46 30.82L26.64 23.82C26.8601 23.6736 27.0432 23.4783 27.1751 23.2493C27.307 23.0202 27.3839 22.7638 27.4 22.5V8.49998C27.3839 8.23619 27.307 7.97972 27.1751 7.75069C27.0432 7.52166 26.8601 7.32631 26.64 7.17998V7.17998ZM21.22 10.43L14.29 14.51C14.0557 14.6335 13.7948 14.698 13.53 14.698C13.2652 14.698 13.0043 14.6335 12.77 14.51L8.37 11.93C7.83 11.6 7.37 11.86 7.37 12.49V20.3C7.38895 20.4236 7.37067 20.5501 7.3175 20.6633C7.26432 20.7765 7.17865 20.8713 7.07141 20.9357C6.96416 21 6.84018 21.031 6.71527 21.0246C6.59036 21.0183 6.47017 20.9749 6.37 20.9L5.62 20.51C5.39382 20.3733 5.2045 20.1834 5.06854 19.9569C4.93259 19.7303 4.85413 19.4739 4.84 19.21V10.73C4.85606 10.4662 4.93305 10.2097 5.06491 9.98069C5.19678 9.75166 5.37993 9.55631 5.6 9.40998L12.76 5.24998C12.9958 5.13128 13.256 5.06945 13.52 5.06945C13.784 5.06945 14.0442 5.13128 14.28 5.24998L21.21 9.24998C21.3407 9.2831 21.4567 9.35858 21.54 9.46462C21.6232 9.57067 21.669 9.70131 21.6701 9.83612C21.6713 9.97094 21.6277 10.1023 21.5463 10.2098C21.4649 10.3172 21.3501 10.3947 21.22 10.43V10.43Z" fill="#4533CB"/>
</svg>
