<svg xmlns="http://www.w3.org/2000/svg" viewBox="0 0 425.2 85.04"><defs><style>.cls-1 { fill: #00aaeb;} .cls-2 { fill: #ffb400;}
    </style></defs><path class="cls-1" d="M387.92,68h17c8.55,0,14.63,4.41,14.63,12.22a11.24,11.24,0,0,1-5.75,10.16v.13c5.21,1.54,7.68,6.35,7.68,11.16,0,9.48-7.61,13.76-16.36,13.76H387.92Zm17,19.37c3.74,0,5.88-2.67,5.88-6.08s-2-5.88-6-5.88h-8.21v12Zm.87,20.64c4.41,0,6.88-2.87,6.88-6.88s-2.54-6.81-6.88-6.81h-9.21V108Z" transform="translate(-48.3 -49.15)"></path><path class="cls-1" d="M373,115.44H382L365.21,67.91h-9l-16.73,47.53h8.9l3.11-9.87H370ZM353.66,98.6l7.07-22.46,7,22.46Z" transform="translate(-48.3 -49.15)"></path><path class="cls-1" d="M319.3,75.34H303.71V67.91h39.82v7.43H327.94v40.1H319.3Z" transform="translate(-48.3 -49.15)"></path><path class="cls-1" d="M257.92,67.91h8.63l21.62,33.22V67.91h8.56v47.53h-8.56L266.55,82.28v33.16h-8.63Z" transform="translate(-48.3 -49.15)"></path><path class="cls-1" d="M244,74.87a23.77,23.77,0,1,0,7,16.8A23.63,23.63,0,0,0,244,74.87Zm-5.6,28a15.85,15.85,0,1,1,4.64-11.21A15.77,15.77,0,0,1,238.41,102.88Z" transform="translate(-48.3 -49.15)"></path><path class="cls-1" d="M197.23,102.88a15.85,15.85,0,1,1,0-22.41l0,0,5.56-5.57,0,0h0a23.77,23.77,0,1,0,0,33.61Z" transform="translate(-48.3 -49.15)"></path><path class="cls-1" d="M139.94,84.43a29.05,29.05,0,0,0-20.58-8.54h0a29.07,29.07,0,0,0-20.59,8.54L92.13,91l6.21,6.21,6.6-6.61A20.36,20.36,0,0,1,139.69,105h0a20.37,20.37,0,0,1-20.35,20.37h0a20.27,20.27,0,0,1-11.81-3.81l-.19.19s-4.5,4.57-6,6.12a29,29,0,0,0,18,6.28h0a29.14,29.14,0,0,0,29.11-29.13v0A29,29,0,0,0,139.94,84.43Z" transform="translate(-48.3 -49.15)"></path><path class="cls-2" d="M91.83,119.44a20.28,20.28,0,0,1-14.4,6h0A20.37,20.37,0,0,1,57.08,105h0A20.35,20.35,0,0,1,77.43,84.68h0a20.26,20.26,0,0,1,11.76,3.77l.17-.18,6.11-6.11a29.08,29.08,0,0,0-18-6.27h0A29.14,29.14,0,0,0,48.3,105v0h0v0a29.12,29.12,0,0,0,29.11,29.12h0A29.07,29.07,0,0,0,98,125.65c.41-.4,6.51-6.6,6.51-6.6l-6.21-6.21Z" transform="translate(-48.3 -49.15)"></path><path class="cls-1" d="M76.25,72A20.26,20.26,0,0,1,95.58,57.94h0a20.25,20.25,0,0,1,14.39,6,20,20,0,0,1,5,8.39,31.85,31.85,0,0,1,3.65-.28H120a34.69,34.69,0,0,1,4.07.32A29,29,0,0,0,95.6,49.15h0a29,29,0,0,0-28.7,24.57A32.88,32.88,0,0,1,76.25,72Z" transform="translate(-48.3 -49.15)"></path><path class="cls-1" d="M466.53,74.87a23.77,23.77,0,1,0,7,16.8A23.62,23.62,0,0,0,466.53,74.87Zm-5.6,28a15.86,15.86,0,1,1,4.64-11.21A15.75,15.75,0,0,1,460.93,102.88Z" transform="translate(-48.3 -49.15)"></path></svg>