<svg id="Layer_1" data-name="Layer 1" xmlns="http://www.w3.org/2000/svg" xmlns:xlink="http://www.w3.org/1999/xlink" viewBox="-0.01535411924123764 -0.000015557758160866797 276.33587646484375 49.00052261352539"><defs><style>.cls-1{fill:none;}.cls-2{clip-path:url(#clip-path);}.cls-3{fill:#ef509c;}.cls-4{fill:#424242;}.cls-5{fill:#fff;}</style><clipPath id="clip-path"><rect class="cls-1" width="276.32" height="49"></rect></clipPath></defs><g id="Color"><g class="cls-2"><g class="cls-2"><path class="cls-3" d="M20.57,0a20.56,20.56,0,0,0-1.72,41.05c.57.05,1.14.08,1.72.08A20.57,20.57,0,0,0,20.57,0"></path><path class="cls-3" d="M48.51,1H60.56a12.28,12.28,0,0,1,6,1.52A11.47,11.47,0,0,1,71,6.69a11.23,11.23,0,0,1,1.6,5.9,11.64,11.64,0,0,1-1.31,5.51,11.89,11.89,0,0,1-3.41,4.06,10.55,10.55,0,0,1-4.4,2l8.27,14.19H66.05L58.32,24.63H53.74V38.34H48.51ZM60.56,19.94a6.23,6.23,0,0,0,4.88-2.13,7.58,7.58,0,0,0,1.89-5.22,6.83,6.83,0,0,0-1.86-5,6.55,6.55,0,0,0-4.91-1.92H53.74V19.94Z"></path><path class="cls-3" d="M98.35,11.68v14q0,6.51-3.2,9.78a11.36,11.36,0,0,1-8.53,3.28,11.35,11.35,0,0,1-8.53-3.28q-3.21-3.27-3.2-9.78v-14h5.22v14q0,4,1.68,6a6.82,6.82,0,0,0,9.65,0q1.68-2,1.68-6v-14Z"></path><path class="cls-3" d="M125.13,38.34H119.9v-14q0-4-1.68-6a6.82,6.82,0,0,0-9.65,0q-1.68,2-1.68,6v14h-5.22v-14q0-6.49,3.2-9.78a12.73,12.73,0,0,1,17.06,0q3.19,3.28,3.2,9.78Z"></path><path class="cls-4" d="M152.93,27.57a10.55,10.55,0,0,1-1.65,5.89,11,11,0,0,1-4.53,3.92,14.51,14.51,0,0,1-6.35,1.38,13.18,13.18,0,0,1-6.32-1.52A11.67,11.67,0,0,1,129.55,33a11.35,11.35,0,0,1-1.68-6.08h5.23a6.29,6.29,0,0,0,2.05,4.93,7.78,7.78,0,0,0,5.41,1.84,8.13,8.13,0,0,0,5.2-1.55,5.49,5.49,0,0,0,2-4.58,4.8,4.8,0,0,0-1.1-3.28A7.32,7.32,0,0,0,144,22.34q-1.57-.69-4.45-1.6a44.88,44.88,0,0,1-5.47-2,9.19,9.19,0,0,1-3.52-3,8.68,8.68,0,0,1-1.46-5.25,9.1,9.1,0,0,1,3.06-7.28A12,12,0,0,1,140.24.59a11.28,11.28,0,0,1,8.11,3,10.45,10.45,0,0,1,3.09,7.92h-5.23a5.6,5.6,0,0,0-1.6-4.35,6.19,6.19,0,0,0-4.37-1.47A6.57,6.57,0,0,0,135.9,7a4.45,4.45,0,0,0-1.63,3.6,4.21,4.21,0,0,0,1,2.93,6.82,6.82,0,0,0,2.51,1.74A39.24,39.24,0,0,0,142,16.64a40.41,40.41,0,0,1,5.7,1.94,9.35,9.35,0,0,1,3.74,3.15,9.84,9.84,0,0,1,1.54,5.84"></path><path class="cls-4" d="M156.73,7.07a3.09,3.09,0,0,1-.93-2.27,3.06,3.06,0,0,1,.93-2.29A3.12,3.12,0,0,1,159,1.6a3,3,0,0,1,2.24.94,3.12,3.12,0,0,1,.9,2.26,3.15,3.15,0,0,1-.9,2.27A3,3,0,0,1,159,8a3.09,3.09,0,0,1-2.27-.93m-.34,4.61h5.22V38.34h-5.22Z"></path><path class="cls-4" d="M170.71,46.73a13.42,13.42,0,0,1-5-6H172a7.67,7.67,0,0,0,6.29,3.19,9.52,9.52,0,0,0,4.21-.93,7.56,7.56,0,0,0,3.06-2.64,6.77,6.77,0,0,0,1.15-3.89V35.24a11.42,11.42,0,0,1-3.78,2.59,11.76,11.76,0,0,1-4.64.93A13.71,13.71,0,0,1,164.52,25a13.52,13.52,0,0,1,1.84-6.91,13.82,13.82,0,0,1,18.82-5A13.71,13.71,0,0,1,192,25V35.24A13.71,13.71,0,0,1,178.28,49a13.37,13.37,0,0,1-7.57-2.27m11.94-14.18a8.34,8.34,0,0,0,3-3.14,9.28,9.28,0,0,0,0-8.8,8.12,8.12,0,0,0-3-3.15,8.46,8.46,0,0,0-4.35-1.14A8.56,8.56,0,0,0,174,17.46a8.2,8.2,0,0,0-3.09,3.15,9.13,9.13,0,0,0,0,8.8,8.49,8.49,0,0,0,3.1,3.14,8.31,8.31,0,0,0,4.34,1.15,8.21,8.21,0,0,0,4.32-1.15"></path><path class="cls-4" d="M218.93,38.34H213.7v-14q0-4-1.68-6a6.82,6.82,0,0,0-9.65,0q-1.68,2-1.68,6v14h-5.22v-14q0-6.49,3.2-9.78a12.73,12.73,0,0,1,17.06,0q3.2,3.28,3.2,9.78Z"></path><path class="cls-4" d="M245.71,11.68v14q0,6.51-3.2,9.78a12.73,12.73,0,0,1-17.06,0q-3.21-3.27-3.2-9.78v-14h5.22v14q0,4,1.68,6a6.82,6.82,0,0,0,9.65,0q1.68-2,1.68-6v-14Z"></path><path class="cls-4" d="M250.7,18.1a13.7,13.7,0,0,1,5-5,13.76,13.76,0,0,1,13.75,0,13.83,13.83,0,0,1,5,5,13.68,13.68,0,0,1,0,13.81,13.68,13.68,0,0,1-5,5,13.36,13.36,0,0,1-6.88,1.84,10.74,10.74,0,0,1-8.42-3.84V49h-5.28V25a13.62,13.62,0,0,1,1.84-6.91m16.21,14.45A8.27,8.27,0,0,0,270,29.41a9.2,9.2,0,0,0,0-8.8,8.37,8.37,0,0,0-3.07-3.15,8.85,8.85,0,0,0-8.69,0,8.37,8.37,0,0,0-3.07,3.15,9.2,9.2,0,0,0,0,8.8,8.2,8.2,0,0,0,3.1,3.14,8.73,8.73,0,0,0,8.66,0"></path><path class="cls-5" d="M24.27,31.1a.93.93,0,0,1-.8-.46l-3.14-5.55a1.58,1.58,0,0,0-1.37-.8h-.32a1.58,1.58,0,0,0-1.58,1.58v4.32a.92.92,0,0,1-.92.91H13.25a.91.91,0,0,1-.91-.91V10.94a.91.91,0,0,1,.91-.91h7.56c7,0,8,4.46,8,7.11A6.55,6.55,0,0,1,26,23a1.6,1.6,0,0,0-.48,2.19l2.91,4.51a.89.89,0,0,1,0,.93.92.92,0,0,1-.81.48ZM18.64,14.35a1.58,1.58,0,0,0-1.58,1.58v2.46A1.58,1.58,0,0,0,18.64,20h2.24C23,20,24,19,24,17.14S23,14.35,20.88,14.35Z"></path></g></g></g></svg>