<svg id="Layer_1" data-name="Layer 1" xmlns="http://www.w3.org/2000/svg" xmlns:xlink="http://www.w3.org/1999/xlink" viewBox="-0.01535411924123764 -0.000015557758160866797 40.70187759399414 41.1300163269043"><defs><style>.cls-1{fill:none;}.cls-2{clip-path:url(#clip-path);}.cls-3{fill:#ef509c;}.cls-4{fill:#424242;}.cls-5{fill:#fff;}</style><clipPath id="clip-path"><rect class="cls-1" width="276.32" height="49"></rect></clipPath></defs><g id="Color"><g class="cls-2"><g class="cls-2"><path class="cls-3" d="M20.57,0a20.56,20.56,0,0,0-1.72,41.05c.57.05,1.14.08,1.72.08A20.57,20.57,0,0,0,20.57,0"></path><path class="cls-5" d="M24.27,31.1a.93.93,0,0,1-.8-.46l-3.14-5.55a1.58,1.58,0,0,0-1.37-.8h-.32a1.58,1.58,0,0,0-1.58,1.58v4.32a.92.92,0,0,1-.92.91H13.25a.91.91,0,0,1-.91-.91V10.94a.91.91,0,0,1,.91-.91h7.56c7,0,8,4.46,8,7.11A6.55,6.55,0,0,1,26,23a1.6,1.6,0,0,0-.48,2.19l2.91,4.51a.89.89,0,0,1,0,.93.92.92,0,0,1-.81.48ZM18.64,14.35a1.58,1.58,0,0,0-1.58,1.58v2.46A1.58,1.58,0,0,0,18.64,20h2.24C23,20,24,19,24,17.14S23,14.35,20.88,14.35Z"></path></g></g></g></svg>