<svg xmlns="http://www.w3.org/2000/svg" xmlns:xlink="http://www.w3.org/1999/xlink" version="1.1" id="Capa_1" x="0px" y="0px" viewBox="0 0 512 512" style="enable-background:new 0 0 512 512;" xml:space="preserve">
<path style="fill:#4F565B;" d="M451.929,195.929C451.929,87.72,364.209,0,256,0L105.992,195.929L256.001,512h85.457l-8.142-36.516  c-7.902-35.44-12.051-66.085-14.216-94.011C396.35,355.21,451.929,282.061,451.929,195.929z"/>
<path style="fill:#697176;" d="M60.071,195.929c0,81.903,50.261,152.055,121.617,181.329c-4.093,30.06-6.961,63.482-7.549,104.32  L173.701,512h82.298V0C147.791,0,60.071,87.72,60.071,195.929z"/>
<path style="fill:#EFF6F9;" d="M355.1,253.625l-21.205-21.205l-46.992,46.992c0.146-22.791,0.306-45.522-1.089-70.178l54.292-54.292  l-21.205-21.205l-36.579,36.579c-2.395-19.332-5.974-40.141-11.327-63.171h-14.995l-18.07,187.432l18.07,187.432h48.046  c-14.566-65.323-16.914-114.565-17.208-160.122L355.1,253.625z"/>
<path style="fill:#FFFFFF;" d="M241.005,107.146c-1.049,73.099-3.451,124.209-11.287,171.572l-38.559-38.559l-21.205,21.205  l52.977,52.977c-9.473,47.977-17.781,96.332-18.806,167.668H256V107.145L241.005,107.146L241.005,107.146z"/>



</svg>
