<svg xmlns="http://www.w3.org/2000/svg" viewBox="0 0 512 512"><path d="M451.929 195.929C451.929 87.72 364.209 0 256 0L105.992 195.929 256.001 512h85.457l-8.142-36.516c-7.902-35.44-12.051-66.085-14.216-94.011 77.25-26.263 132.829-99.412 132.829-185.544z" fill="#4f565b"/><path d="M60.071 195.929c0 81.903 50.261 152.055 121.617 181.329-4.093 30.06-6.961 63.482-7.549 104.32L173.701 512h82.298V0C147.791 0 60.071 87.72 60.071 195.929z" fill="#697176"/><path d="M355.1 253.625l-21.205-21.205-46.992 46.992c.146-22.791.306-45.522-1.089-70.178l54.292-54.292-21.205-21.205-36.579 36.579c-2.395-19.332-5.974-40.141-11.327-63.171H256l-18.07 187.432L256 482.009h48.046c-14.566-65.323-16.914-114.565-17.208-160.122l68.262-68.262z" fill="#eff6f9"/><path d="M241.005 107.146c-1.049 73.099-3.451 124.209-11.287 171.572l-38.559-38.559-21.205 21.205 52.977 52.977c-9.473 47.977-17.781 96.332-18.806 167.668H256V107.145l-14.995.001z" fill="#fff"/></svg>