<svg version="1.1" id="Layer_1" xmlns="http://www.w3.org/2000/svg" xmlns:xlink="http://www.w3.org/1999/xlink" x="0px" y="0px" style="enable-background:new 0 0 612 792;" xml:space="preserve" viewBox="249.00 311.02 113.00 169.11">
<style type="text/css">
	.st0{fill:#D34C27;}
	.st1{fill:#D14827;}
	.st2{fill:#E87D24;}
	.st3{fill:#DA5F26;}
	.st4{fill:#D85B26;}
	.st5{fill:#D75726;}
	.st6{fill:#D04627;}
	.st7{fill:#D44F27;}
	.st8{fill:#D65427;}
	.st9{fill:#D55127;}
	.st10{fill:#D75827;}
	.st11{fill:#D65527;}
	.st12{fill:#D55227;}
	.st13{fill:#CE4228;}
	.st14{fill:#DD6626;}
	.st15{fill:#DB6327;}
	.st16{fill:#D04427;}
	.st17{fill:#DE6A26;}
	.st18{fill:#DA6026;}
	.st19{fill:#DD6627;}
	.st20{fill:#E37227;}
	.st21{fill:#D95D26;}
	.st22{fill:#E67A26;}
	.st23{fill:#E27127;}
	.st24{fill:#E06D26;}
	.st25{fill:#E67A27;}
	.st26{fill:#E06E27;}
	.st27{fill:#E37529;}
	.st28{fill:#E5792B;}
	.st29{fill:#E57A2B;}
	.st30{fill:#FEFEFE;}
	.st31{fill:#DA6028;}
</style>
<path class="st0" d="M350.95,335.09c2.99,1.79,3.47,5.19,5.05,7.88c0.01,2.16-1.77,2.38-3.12,2.39
	c-16.06,0.09-32.14,1.14-48.18-0.53c-1.91-0.67-3.81-1.44-5.87-0.55c-1.99,1.01-4.12,1.29-6.3,1.31
	c-10.64,0.06-21.28,0.13-31.92-0.06c-2.05-0.04-4.9,0.81-5.61-2.55c1.08-3.05,2.64-5.81,4.91-8.15c2.62-0.66,5.29-0.37,7.93-0.37
	c24.24-0.01,48.48,0.01,72.73-0.02C344.05,334.43,347.52,334.5,350.95,335.09z"></path>
<path class="st1" d="M350.95,335.09c-1.33,1.48-3.1,0.93-4.7,0.94c-27.1,0.03-54.19,0.03-81.29,0c-1.74,0-3.72,0.64-5.06-1.2
	c1.59-3.32,4.25-5.72,6.97-8.06c21.56-0.68,43.13-0.11,64.7-0.29c4.14-0.03,8.28-0.15,12.37,0.65
	C347.54,328.68,349.09,332.02,350.95,335.09z"></path>
<path class="st2" d="M333.89,457.95c1.78,6.39,3.44,12.82,5.43,19.15c0.69,2.18,0.63,3-1.87,3c-21.31-0.04-42.63-0.05-63.94,0.01
	c-2.43,0.01-2.74-1.18-2.45-3.12c0.85-5.73,1.67-11.46,2.51-17.19c5.21-1.87,6.33-1.38,7.83,3.45c0.39,8.2,0.39,8.2,8.82,8.21
	c10.47,0,20.94,0.02,31.41-0.01c5.76-0.01,5.77-0.04,4.63-5.44c-0.38-1.79-0.77-3.58-0.55-5.44
	C327.65,456.22,329.07,455.76,333.89,457.95z"></path>
<path class="st3" d="M359.9,381.01c-0.71,3.9-2.11,7.53-4.08,10.96c-12.5,0.82-25,1.33-37.48-0.31c-3.03-3.91-4.17-8.14-2.12-12.89
	c12.02,1.32,24.08,0.39,36.11,0.69C354.94,379.53,357.67,379.06,359.9,381.01z"></path>
<path class="st4" d="M359.9,381.01c-12.7,0-25.4-0.01-38.1,0.01c-2.15,0-4.35,0.28-5.66-2.01c-3.1-2.25-4.08-4.95-1.77-8.35
	c11.57-0.43,23.14-0.06,34.72-0.15c4.29-0.03,8.58,0.13,12.68-1.46C361.8,373.14,360.95,377.1,359.9,381.01z"></path>
<path class="st4" d="M250.8,379.1c-0.94-3.28-1.69-6.59-1.57-10.04c4.43,1.64,9.05,1.41,13.66,1.4c10.07-0.01,20.14-0.03,30.21,0.01
	c2.29,0.01,4.65-0.21,6.76,1.05c2.58,3.62,1.6,7.11-0.39,10.56c-4.65,2.6-9.82,0.75-14.66,1.7c-3.42-0.13-5.5-3.9-9.18-3.34
	c-6.24,0.26-12.48,0.1-18.72,0.12C254.76,380.57,252.62,380.48,250.8,379.1z"></path>
<path class="st5" d="M300.02,372.02c-15.12,0-30.25-0.07-45.37,0.06c-2.6,0.02-4.46-0.47-5.42-3.02c-0.16-2.8-0.64-5.63,0.7-8.31
	c2.88,1.49,5.97,1.73,9.16,1.72c11.26-0.05,22.53-0.05,33.79,0c2.46,0.01,5-0.28,7.23,1.23
	C301.85,366.49,302.07,369.27,300.02,372.02z"></path>
<path class="st6" d="M343.96,327.12c-1.34,1.46-3.11,0.92-4.71,0.92c-22.45,0.03-44.89,0.03-67.34,0c-1.74,0-3.73,0.64-5.03-1.27
	c1.65-2.08,3.62-3.78,6.05-4.91c21.71-0.6,43.43-0.65,65.14,0C340.92,322.61,341.87,325.5,343.96,327.12z"></path>
<path class="st7" d="M303.86,343.09c1.44,0.32,2.87,0.91,4.31,0.91c14.9,0.07,29.8,0.04,44.7,0.04c1.17,0,2.34,0.03,3.13-1.07
	c0.96,1.48,1.96,2.95,2.06,4.81c0.82,4.81-2.84,4.64-5.67,4.71c-9.96,0.26-19.93,0.23-29.89,0.03c-4.62-0.09-9.31,0.78-13.84-0.84
	C305.69,349.6,303.24,347.2,303.86,343.09z"></path>
<path class="st8" d="M300.11,364.03c-15.15,0-30.29-0.01-45.44,0.01c-2.39,0-4.89,0.32-4.75-3.28c0.09-2.05-0.08-4.13,0.96-6.03
	c13.6,1.51,27.25,0.35,40.86,0.74c2.79,0.08,5.69-0.42,8.27,1.19C301.78,359.09,301.89,361.55,300.11,364.03z"></path>
<path class="st9" d="M299.95,357.03c-14.79,0-29.58,0.01-44.37-0.02c-1.87,0-4.21,0.68-4.7-2.28c-0.15-2.55,1.03-4.71,2.03-6.92
	c13.73,1.43,27.5,0.37,41.24,0.65c1.66,0.03,3.31-0.13,4.97,0.12C302.43,351.1,301.93,354,299.95,357.03z"></path>
<path class="st10" d="M361.77,369.06c-1,1.4-1.43,3.07-3.93,3.04c-13.48-0.17-26.97-0.06-40.45-0.13c-1.1-0.01-2.2-0.62-3.3-0.95
	c-2.67-3.76-0.04-7.44,5.83-8.16c11.99,1.4,24.03,0.39,36.04,0.6c2.23,0.04,3.48-1.67,5.11-2.7
	C362.41,363.43,361.93,366.26,361.77,369.06z"></path>
<path class="st11" d="M361.08,360.75c0.24,3.07-0.88,4.4-4.25,4.34c-11.27-0.19-22.55-0.07-33.83-0.07c-1.81,0-3.82,0.32-4.13-2.34
	c0.51-3.8,2.7-6.05,6.39-6.92c8.14-0.52,16.29-0.18,24.44-0.23c3.5-0.02,6.98-0.15,10.42-0.8
	C361.16,356.62,360.98,358.71,361.08,360.75z"></path>
<path class="st12" d="M360.11,354.73c-0.48,2.93-2.78,2.28-4.65,2.29c-10.55,0.02-21.1-0.02-31.66-0.04
	c-3.48-2.47-5.87,0.02-8.43,1.83c-5.05,3.58-5.73,3.37-6.71-2.52c-0.34-2.05-2.09-3.94-0.83-6.2c1.54,0.66,3.12,0.98,4.82,0.97
	c13.44-0.04,26.88-0.04,40.32-0.01c2.45,0,4.79,0.01,5.08-3.27C359.08,350,360.25,352.17,360.11,354.73z"></path>
<path class="st13" d="M281.03,317.15c16.3-8.23,32.62-8.02,48.96-0.11c-0.03,3.09-2.44,3.37-4.52,3.42
	c-13.26,0.33-26.53,0.3-39.79,0.02C283.59,320.44,281.19,320.19,281.03,317.15z"></path>
<path class="st14" d="M267.26,407.92c-3.53-2.67-6.22-6.08-8.52-9.82c1.31-2.11,3.49-2.48,5.65-2.52c6.96-0.13,13.92-0.46,20.87,0.2
	c6.28,2.91,8.6,7.17,6.44,11.81C283.57,409.06,275.42,408.97,267.26,407.92z"></path>
<path class="st15" d="M318.17,391c10.62,0,21.24,0,31.86,0c1.98,0,4-0.21,5.79,0.97c-0.97,2.19-1.88,4.41-3.68,6.1
	c-6.14,2.75-12.53,1.21-18.83,1.1c-3.83-2.25-6.78-1.04-9.44,2.19c-1.45,1.76-3.05,3.5-5.12,4.61c-1.52,0.82-3.82,0.46-3.12-1.25
	C317.49,400.25,315.57,395.21,318.17,391z"></path>
<path class="st7" d="M299.07,348.89c-1.21,1.66-3,1.12-4.59,1.13c-12.28,0.04-24.55,0.04-36.83,0c-1.84-0.01-4.21,0.78-4.73-2.21
	c0.1-1.87,1.11-3.34,2.07-4.84c1.26,1.58,3.03,1.05,4.62,1.05c11.26,0.04,22.52-0.04,33.78,0.07c2.28,0.02,4.2-0.39,5.86-1.94
	C300.68,344.44,300.79,346.69,299.07,348.89z"></path>
<path class="st16" d="M281.03,317.15c1.13,2.27,3.23,1.91,5.19,1.91c12.88,0.01,25.77,0,38.65,0c1.97,0,4.07,0.31,5.12-2.02
	c3.01,1.07,5.74,2.61,8.08,4.81c-1.17,1.7-2.96,1.19-4.54,1.19c-18.68,0.03-37.37,0.03-56.05,0c-1.58,0-3.37,0.51-4.54-1.19
	C275.52,320.1,277.77,317.75,281.03,317.15z"></path>
<path class="st17" d="M267.26,407.92c8.16-1.71,16.43-0.63,24.65-0.93c1.68,4.54-0.91,8.06-2.81,11.75
	c-2.94,1.5-5.91,3.35-8.18-0.94C276.13,414.83,271.02,412.31,267.26,407.92z"></path>
<path class="st18" d="M255.19,392c-1.35-2.54-2.88-5.01-3.04-8c1.69-1.74,3.91-1.45,5.99-1.47c5.71-0.06,11.43,0.05,17.13-0.47
	c4.28,1.43,6.31,4.33,5.79,8.9c-0.7,0.8-1.63,1.27-2.62,1.28C270.69,392.29,262.92,393.37,255.19,392z"></path>
<path class="st19" d="M332.08,398c6.69,0.02,13.37,0.05,20.06,0.07c-2.07,3.91-4.94,7.13-8.41,9.85c-5.65,0.98-11.27,1.3-16.77-0.82
	C326.07,402.61,328.54,400,332.08,398z"></path>
<path class="st15" d="M255.19,392c6.82-1.68,13.76-0.75,20.65-1.02c1.75-0.07,3.67,0.62,5.18-0.9c3.79,0.71,5.34,3.14,5.28,6.83
	c-6.43,0.03-12.87,0.15-19.3,0.05c-2.84-0.04-5.57,0.34-8.26,1.15C257.07,396.35,256.16,394.16,255.19,392z"></path>
<path class="st17" d="M326.91,405.77c1.16,1.72,2.96,1.2,4.54,1.19c4.13-0.01,8.25-0.06,12.29,0.96c-3.76,4.15-8.33,7.11-13.5,9.19
	c-3.06,0.82-6.04,0.46-8.98-0.56C319.56,412.14,321.63,408.2,326.91,405.77z"></path>
<path class="st20" d="M328.84,427.97c0.39,3.63,1.5,7.17,1.22,10.88c1.03,1.93-0.22,4.16,0.82,6.09c0,0.67-0.01,1.34-0.01,2.02
	c-2.31,1.72-4.76,2.09-7.39,0.8c-2.42-6.53-4.03-13.12-1.68-20.05C324.21,426.16,326.55,426.43,328.84,427.97z"></path>
<path class="st21" d="M276.45,382.87c-8.01,2.25-16.21,0.67-24.3,1.14c-1.18-1.43-1.46-3.12-1.35-4.91
	c8.74-0.03,17.48-0.06,26.22-0.09C277.75,380.44,277.26,381.67,276.45,382.87z"></path>
<path class="st22" d="M280.18,464.27c0.5-5.51-3.65-4.12-6.62-4.48c0.69-4.66,1.38-9.32,2.07-13.97c2.5-1.38,4.9-1.83,7.02,0.69
	C283.86,452.71,284.36,458.82,280.18,464.27z"></path>
<path class="st23" d="M276.9,438.73c-0.17-2.37,0.16-4.66,1.27-6.79c0.91-1.31-0.27-3.11,1.02-4.33c2.64-0.95,5.27-1.96,8.17-1.46
	c1.37,5.71-1.87,10.56-2.93,15.82c-2.54,1.5-5.08,2.58-7.65,0.05C276.47,440.9,276.41,439.81,276.9,438.73z"></path>
<path class="st24" d="M328.84,427.97c-2.43,0.05-4.85,0.09-7.28,0.14c-3.4-3.87-2.46-7.97-0.66-12.13c3.14,0.2,6.4-0.66,9.34,1.12
	C329.29,420.67,327.44,424.11,328.84,427.97z"></path>
<path class="st25" d="M324.15,447.95c2.07-1.46,4.45-0.88,6.72-1c2.21,3.33,1.88,7.37,3.02,11c-2.45,0.81-6.67-2.21-7,3.21
	C323.18,457.34,322.53,452.88,324.15,447.95z"></path>
<path class="st26" d="M286.9,425.97c-1.97,2.99-5.03,1.76-7.71,1.99c-0.38-0.17-0.54-0.38-0.48-0.65c0.06-0.28,0.15-0.43,0.25-0.43
	c-0.31-3.24,1.26-6.07,1.95-9.09c2.6,2.03,5.25,1.46,7.92,0.18C290.71,421.25,289.91,423.88,286.9,425.97z"></path>
<path class="st27" d="M277.08,441.95c2.27,1.03,4.54-0.5,6.81,0.01c0.73,2.18,1,4.2-1.83,5.12c-1.83-2.05-4.32-0.69-6.44-1.25
	c0.18-0.63,0.36-1.26,0.53-1.89C276.72,443.38,276.29,442.38,277.08,441.95z"></path>
<path class="st28" d="M330.88,444.94c-1.64-1.85-0.68-4.04-0.83-6.09C331.03,440.78,330.86,442.87,330.88,444.94z"></path>
<path class="st27" d="M278.96,426.89c0.07,0.36,0.15,0.71,0.22,1.07c-0.36,1.32,0.29,2.9-1.02,3.97
	C278.11,430.2,278.04,428.47,278.96,426.89z"></path>
<path class="st29" d="M277.08,441.95c-0.31,0.66-0.61,1.32-0.92,1.98c-0.03-1.77-0.22-3.57,0.73-5.2
	C276.96,439.8,277.02,440.87,277.08,441.95z"></path>
<path class="st30" d="M282.07,447.08c2.06-1.19,0.38-3.71,1.83-5.12c-0.03-5.52,3.06-10.46,3-15.99c1.3-2.51,1.71-5.23,1.93-7.99
	c1.02-3.66,2.05-7.33,3.07-10.99c1.08-5-3.63-6.78-5.61-10.08c-1.49-2.48-2.87-5.05-5.28-6.83c-1.08-2.68-2.7-5.03-4.57-7.21
	c-0.53-1.39-0.11-2.64,0.57-3.85c3.66-0.98,4.36,3.13,6.92,4.03c4.03,1.55,6.2,5.28,9.27,7.96c1.56,1.37,3.07,2.78,4.85,3.98
	c-1.69-4.62-0.76-8.82,0.98-12.97c0.24-3.34,1.75-6.55,0.97-9.99c0.44-2.66,0.56-5.32,0.09-7.99c0.38-2.34,0.26-4.67-0.16-7
	c0.13-2.76,0.47-5.54-0.89-8.14c0.18-2.24-0.62-4.51,0.19-6.74c1.72-0.61,3.24-0.21,4.61,0.94c1.32,2.33,2.65,4.67,3.97,7
	c1.01,3.41,3.11,6.6,1.62,11.39c3.62-2.53,6.38-4.57,9.25-6.44c2.46-1.6,4.58-1.81,5.1,1.94c-1.65,1.9-3.3,3.8-4.94,5.7
	c-1.51,1.42-2.99,2.85-4.52,4.24c-1.44,1.31-1.65,2.64-0.25,4.1c0.25,2.77,0.79,5.48,2.05,7.99c0.68,4,1.35,7.99,2.03,11.99
	c-0.06,4.88,1.19,9.92-2.02,14.55c4.31-1.77,6.91-5.19,10-7.98c2.29-2.07,4.17-2.72,5.94,0.43c-1.73,2.59-3.45,5.19-5.18,7.78
	c-2.25,3.26-6.27,5.47-6.01,10.21c-0.02,4.06-0.37,8.13,0.66,12.13c0.92,6.61,0.78,13.35,2.59,19.84c0.02,4.59,1.47,8.88,2.74,13.21
	c0.77,3.69,1.53,7.38,2.43,11.7c-6.3,0-12.48,0-18.65,0c-8.43,0-16.88-0.3-25.3,0.12c-4.76,0.24-6.17-1.34-5.22-5.76
	c0.2-0.94,0.04-1.97,0.04-2.96C281.32,458.6,282.73,452.95,282.07,447.08z"></path>
<path class="st31" d="M299.05,382.01c0.46,4.98-2.55,10.15,0.87,15.22c-6.28-3.85-11.33-8.78-15.97-14.18
	C288.86,380.97,294.02,382.47,299.05,382.01z"></path>
</svg>
