<svg version="1.1" id="Layer_1" xmlns="http://www.w3.org/2000/svg" xmlns:xlink="http://www.w3.org/1999/xlink" x="0px" y="0px" style="enable-background:new 0 0 612 792;" xml:space="preserve" viewBox="0.68 0.01 610.60 791.97">
<style type="text/css">
	.st0{fill:#273042;}
	.st1{fill:#FEFEFE;}
	.st2{fill:#283143;}
</style>
<path class="st0" d="M1.86,791.96c-0.38,0-0.76,0-1.15,0c0.05-1.23,0.13-2.46,0.13-3.69c0.01-261.14,0.01-522.29,0-783.43
	c0-1.6-0.09-3.21-0.13-4.81c203.52,0,407.04,0,610.56,0c0,262.11,0,524.21,0,786.32c0,1.61-0.05,3.21-0.08,4.82
	c-1.43,0.02-2.86,0.06-4.29,0.06c-199.54,0-399.08,0-598.62,0c-1.53,0-3.05,0-4.58,0C3.04,791.24,2.35,791.19,1.86,791.96z
	 M403.83,705c-0.29-1.34-0.52-2.53-0.79-3.7c-10.32-43.98-19.51-88.33-25.69-133.64c-2.48-18.15-4.03-36.44-4.46-54.89
	c-0.22-9.16,0.02-18.29,0.16-27.44c0.08-5.77,2.12-9.78,6.06-12.42c26.86-18.01,48.18-43.79,63.57-77.5
	c19.64-43.01,26.69-89.38,20.04-138.71c-5.91-43.8-21.33-81.46-46.17-112.26c-28.33-35.12-62.26-54.15-101.37-57.38
	c-16.68-1.38-33.14,1.05-49.33,6.48c-67.86,22.76-116.47,101.8-118.33,192.49c-0.32,15.39,0.93,30.61,3.28,45.68
	c4.62,29.63,13.56,56.79,27.63,81c12.73,21.91,28.32,39.7,46.34,53.99c3.42,2.71,6.79,5.52,10.23,8.18c1.15,0.89,1.66,1.89,1.18,3.6
	c-0.19,0.69-0.25,1.44-0.37,2.17c-4.69,28.14-8.67,56.45-12.18,84.87c-2.58,20.86-4.98,41.76-7.11,62.7
	c-2.45,24.13-4.92,48.26-7.37,72.4c-0.48,4.7-0.44,4.7,3.14,4.7c62.71,0,125.41,0,188.12-0.01
	C401.43,705.34,402.49,705.54,403.83,705z"></path>
<path class="st1" d="M403.83,705c-1.35,0.55-2.4,0.34-3.44,0.34c-62.71,0.01-125.41,0.01-188.12,0.01c-3.57,0-3.61-0.01-3.14-4.7
	c2.44-24.13,4.92-48.26,7.37-72.4c2.13-20.95,4.53-41.84,7.11-62.7c3.52-28.42,7.5-56.73,12.18-84.87c0.12-0.72,0.18-1.48,0.37-2.17
	c0.48-1.71-0.02-2.71-1.18-3.6c-3.44-2.66-6.81-5.47-10.23-8.18c-18.02-14.3-33.61-32.09-46.34-53.99
	c-14.07-24.21-23.02-51.37-27.63-81c-2.35-15.07-3.59-30.29-3.28-45.68c1.86-90.69,50.47-169.73,118.33-192.49
	c16.19-5.43,32.65-7.86,49.33-6.48c39.11,3.23,73.04,22.26,101.37,57.38c24.84,30.8,40.26,68.45,46.17,112.26
	c6.65,49.32-0.41,95.69-20.04,138.71c-15.39,33.71-36.7,59.49-63.57,77.5c-3.94,2.64-5.97,6.65-6.06,12.42
	c-0.13,9.15-0.37,18.28-0.16,27.44c0.43,18.45,1.99,36.74,4.46,54.89c6.18,45.31,15.37,89.66,25.69,133.64
	C403.32,702.47,403.55,703.66,403.83,705z M317.83,271.77c-0.43-0.69-0.25-1.3-0.18-1.88c0.54-4.39,1-8.8,1.66-13.16
	c0.45-2.94,0.11-5.58-0.87-8.26c-5.72-15.64-11.99-30.91-18.29-46.16c-0.18-0.44-0.35-0.88-0.57-1.29c-1.69-3.2-4.47-4.34-7.29-3
	c-3.97,1.88-5.58,5.68-5.01,11.41c1.1,11.03,2.31,22.05,3.13,33.12c1.37,18.35,1.79,36.76,1.46,55.21
	c-0.27,14.72-1.06,29.38-2.33,44.02c-0.85,9.83-2.18,19.57-3.24,29.35c-0.96,8.81-0.39,17.28,3.58,24.91
	c0.6,1.14,0.92,2.45,1.14,3.78c0.18,1.05,0.5,2.25-0.48,3c-0.86,0.65-1.44-0.27-2.05-0.76c-2.62-2.08-4.85-4.78-7.09-7.48
	c-11.68-14.06-23.58-27.8-34.86-42.4c-3.58-4.63-6.94-9.53-10.69-13.95c-1.63-1.92-3.52-2.94-5.66-3.19
	c-2.78-0.32-4.23,0.9-5.46,4.14c-1.51,3.95-1.28,7.61,0.82,11.08c0.59,0.97,1.16,1.97,1.72,2.97c13.18,23.51,26.25,47.12,39.7,70.38
	c2.17,3.76,2.45,7.87,1.49,12.31c-2.85,13.07-5.99,26.05-8.25,39.31c-4.34,25.45-7.73,51.15-11.42,76.77
	c-3.25,22.59-6.29,45.22-9.52,67.82c-2.55,17.87-4.93,35.77-5.89,53.92c-0.26,4.88-0.64,4.3,3.19,4.3
	c20.52,0.02,41.05,0.01,61.57,0.01c24.34,0,48.68,0.01,73.02-0.02c1.09,0,2.28,0.45,3.37-0.64c-0.27-1.21-0.52-2.39-0.8-3.55
	c-4.47-18.91-8.14-38.08-11.11-57.48c-2.51-16.37-4.55-32.83-6.37-49.34c-1.83-16.53-3.2-33.11-4.35-49.73
	c-0.93-13.54-1.77-27.1-2.76-40.64c-0.62-8.49,0.63-16.26,4.78-23.01c8.46-13.73,16.09-28.25,24.15-42.37
	c0.85-1.49,1.58-3.08,2.04-4.87c0.95-3.76,0.31-6.72-2.07-9.26c-2.43-2.6-4.67-2.88-7.4-0.93c-1.27,0.91-2.32,2.17-3.37,3.43
	c-7.78,9.32-15.57,18.63-23.34,27.95c-1.47,1.77-3.02,3.42-4.71,4.82c-0.67,0.56-1.34,1.62-2.29,0.72c-1.02-0.96-0.28-2-0.01-2.97
	c1.63-5.93,3.29-11.85,4.91-17.79c0.86-3.16,1.51-6.39,1.32-9.79c-0.57-10.24-1.24-20.46-2.32-30.63
	c-2.53-23.91-6.48-47.42-12.09-70.45c-0.96-3.95-0.37-7.11,1.89-10.11c7.99-10.63,15.88-21.39,23.8-32.11
	c1.13-1.52,2.19-3.12,2.89-5.05c1.18-3.27,0.72-6.21-1.4-9.14c-2.17-3-4.3-3.76-6.93-2.49c-1.73,0.83-3.14,2.31-4.56,3.78
	c-6.48,6.72-12.96,13.45-19.46,20.14C322.76,268.75,320.41,270.6,317.83,271.77z"></path>
<path class="st2" d="M317.83,271.77c2.58-1.17,4.93-3.01,7.09-5.24c6.5-6.69,12.98-13.42,19.46-20.14c1.42-1.47,2.83-2.94,4.56-3.78
	c2.63-1.27,4.76-0.51,6.93,2.49c2.12,2.93,2.58,5.87,1.4,9.14c-0.7,1.93-1.76,3.52-2.89,5.05c-7.92,10.72-15.81,21.48-23.8,32.11
	c-2.26,3.01-2.86,6.16-1.89,10.11c5.61,23.02,9.57,46.53,12.09,70.45c1.07,10.17,1.74,20.4,2.32,30.63c0.19,3.4-0.46,6.63-1.32,9.79
	c-1.62,5.94-3.28,11.85-4.91,17.79c-0.27,0.97-1.01,2.01,0.01,2.97c0.96,0.9,1.62-0.17,2.29-0.72c1.69-1.4,3.24-3.05,4.71-4.82
	c7.78-9.32,15.56-18.63,23.34-27.95c1.05-1.26,2.1-2.52,3.37-3.43c2.72-1.95,4.97-1.67,7.4,0.93c2.38,2.54,3.02,5.5,2.07,9.26
	c-0.45,1.79-1.18,3.37-2.04,4.87c-8.06,14.11-15.69,28.64-24.15,42.37c-4.16,6.74-5.4,14.52-4.78,23.01
	c0.99,13.54,1.83,27.09,2.76,40.64c1.15,16.62,2.52,33.21,4.35,49.73c1.83,16.51,3.87,32.97,6.37,49.34
	c2.97,19.4,6.64,38.57,11.11,57.48c0.28,1.17,0.53,2.35,0.8,3.55c-1.09,1.1-2.27,0.64-3.37,0.64c-24.34,0.03-48.68,0.02-73.02,0.02
	c-20.52,0-41.05,0.01-61.57-0.01c-3.83,0-3.44,0.58-3.19-4.3c0.96-18.16,3.34-36.05,5.89-53.92c3.22-22.59,6.27-45.23,9.52-67.82
	c3.69-25.62,7.08-51.32,11.42-76.77c2.26-13.27,5.4-26.24,8.25-39.31c0.97-4.44,0.69-8.54-1.49-12.31
	c-13.44-23.26-26.51-46.87-39.7-70.38c-0.56-1-1.13-1.99-1.72-2.97c-2.1-3.47-2.33-7.13-0.82-11.08c1.24-3.24,2.69-4.46,5.46-4.14
	c2.14,0.25,4.03,1.26,5.66,3.19c3.75,4.42,7.11,9.32,10.69,13.95c11.28,14.6,23.18,28.34,34.86,42.4c2.24,2.7,4.47,5.4,7.09,7.48
	c0.61,0.49,1.19,1.41,2.05,0.76c0.98-0.75,0.66-1.95,0.48-3c-0.22-1.32-0.55-2.63-1.14-3.78c-3.97-7.63-4.54-16.09-3.58-24.91
	c1.06-9.79,2.39-19.52,3.24-29.35c1.27-14.63,2.07-29.3,2.33-44.02c0.33-18.44-0.09-36.85-1.46-55.21
	c-0.82-11.07-2.03-22.09-3.13-33.12c-0.57-5.72,1.04-9.52,5.01-11.41c2.82-1.34,5.6-0.2,7.29,3c0.22,0.41,0.39,0.85,0.57,1.29
	c6.3,15.25,12.57,30.52,18.29,46.16c0.98,2.67,1.31,5.32,0.87,8.26c-0.66,4.36-1.12,8.77-1.66,13.16
	C317.57,270.47,317.4,271.08,317.83,271.77z"></path>
</svg>
