<svg clip-rule="evenodd" fill-rule="evenodd" stroke-linejoin="round" stroke-miterlimit="2" version="1.1" xml:space="preserve" xmlns="http://www.w3.org/2000/svg" viewBox="-0.00 193.50 500.00 113.02">
    <g transform="matrix(.49503 0 0 .49503 -3.4554 190.1)">
        <path d="m949.47 230.2v-79.254h-56.289v79.254h-67.549v-218.85h67.549v74.755h56.289v-74.755h67.549v218.85h-67.549zm-210.74-154v154h-67.558v-154h-45.929v-64.85h159.42v64.85h-45.929zm-222.01-64.846h67.557v218.85h-67.557v-218.85zm-102.67 109.43c0 28.817-22.956 52.236-51.782 52.236-28.818 0-52.237-23.419-52.237-52.236s23.419-51.782 52.237-51.782c28.826 0 51.782 22.965 51.782 51.782m62.159 0c0-63.042-50.891-113.92-113.94-113.92-63.042 0-114.38 50.882-114.38 113.92 0 63.041 51.336 114.38 114.38 114.38 63.05 0 113.94-51.337 113.94-114.38m-304.42-109.43-45.03 122.49-45.039-122.49h-74.746l94.121 218.85h50.882l94.567-218.85h-74.755z" fill="#2d4275" fill-rule="nonzero"></path>
    </g>
</svg>
