<svg viewBox="0 0 148 192" xmlns="http://www.w3.org/2000/svg"><path fill="#891113" d="M35.793 119v1c-3.037 2.274-4.498 4.498-9.935 9.422l-5.723 6.573L30.793 148l9.434-15.985L52.793 111c-16.97-6.385-36.11-28.885-25.366-48 6.17-9.108 17.724-20.357 18.431-20.252L67.793 37l2-37c-18.41 3.78-35.427 8.37-49.91 21.326C-2.152 41.036-7.496 76.42 12.118 100c6.536 7.858 14.993 13.75 23.674 19zm46-82 20 5 2.552 1.13c36.018 9.283 21.254 57.656-7.552 66.87l8.985 16 10.015 21c2.802-3.279 10.566-11.098 13.23-14.654-1.724-3.366-6.99-6.201-10.23-9.224l-5-7.121c37.636-16.45 47.254-69.872 14.96-96.482-10.16-8.373-22.922-15.03-35.96-17.094C90.11 2 83.586.905 80.835 1.648 79.99 5.712 81 8.472 80.917 12c.31 8.315.853 16.7.876 25z"/><path fill="#891113" d="M82.541 79.439c3.12 1.776 5.72 4.124 9.252 4.937 25.94 5.965 20.032-42.392-2.985-26.673-2.322 1.586-4.226 3.76-5.442 6.298-2.57 5.362-.993 11.24-.825 15.438zM80.793 178l18-14-3.014-17-8.986-39c-8.83.688-6.087 10.679-5.884 17.17.53 17.001 2.412 36.014-.116 52.83zm-21-67c-5.528 11.888-7.18 25.534-11.164 38-2.138 6.69-2.567 10.004-5.518 20.878L41.793 172v1l26 19-.332-31.487L68.793 147l-1-36z"/></svg>
