<svg clip-rule="evenodd" fill-rule="evenodd" stroke-linejoin="round" stroke-miterlimit="2" version="1.1" viewBox=".00010205 .00010205 500 500" xml:space="preserve" xmlns="http://www.w3.org/2000/svg">
    <g transform="matrix(.6901 0 0 .6901 -15 -15)">
        <path d="m746.26 384c0 200.07-162.19 362.26-362.26 362.26-200.07 0-362.26-162.19-362.26-362.26s162.19-362.26 362.26-362.26c200.07 0 362.26 162.19 362.26 362.26" fill="#173f57" fill-rule="nonzero"/>
    </g>
    <g transform="matrix(.6901 0 0 .6901 -15 -15)">
        <path d="m455.01 288.25-92.869 185.26h40.189l52.463-110.24 52.68 110.24h40.429l-92.892-185.26zm-153.62 5.79c-28.778 0-57.916 16.767-57.916 48.836 0 29.77 23.551 41.492 44.344 51.839 17.047 8.491 31.781 15.824 31.781 31.084 0 11.866-9.036 18.665-24.791 18.665-21.023 0-36.971-12.614-42.855-18.04l-1.609-1.489-19.002 26.183 1.105 1.177c9.926 10.409 35.061 25.079 59.862 25.079 32.49 0 65.388-17.882 65.388-52.031 0-36.704-27.372-49.489-49.365-59.766-14.726-6.884-27.433-12.817-27.433-24.046 0-10.926 10.693-14.822 20.707-14.822 10.401 0 22.458 5.592 31.468 14.606l1.706 1.681 17.776-27.289-1.056-1.129c-5.361-5.719-24.803-20.538-50.11-20.538zm-223.48 4.083v33.102h58.133c31.004 0 52.656 22.224 52.656 54.025 0 47.985-35.552 55.155-56.74 55.155h-17.992v-72.738h-36.057v105.84h48.62c61.993 0 100.51-33.558 100.51-87.584 0-53.348-37.33-87.8-95.079-87.8h-54.049zm558.1 0c-57.749 0-95.054 34.452-95.054 87.8 0 54.026 38.514 87.584 100.51 87.584h48.62v-105.84h-36.081v72.738h-17.992c-21.188 0-56.715-7.17-56.715-55.155 0-31.801 21.652-54.025 52.655-54.025h58.133v-33.102h-54.073z" fill="#fff" fill-rule="nonzero"/>
    </g>
</svg>
