<svg id="Layer_1" data-name="Layer 1" xmlns="http://www.w3.org/2000/svg" viewBox="0 0 368.08 268.89"><defs><style>.cls-1{fill:#92864f;}.cls-2{fill:#fecd27;}.cls-3{fill:#fff;}</style></defs><path class="cls-1" d="M348.82,3.8l-62.46.54-2.24,6.19L283,15.33c-3.49,10.06-3.49,10.06-21.52,14.09l-6.19,1.39-1.47,8.75c-5.65-16-39.71-33.28-39.71-33.28l.78.62a67.87,67.87,0,0,0-31-6.89A77.49,77.49,0,0,0,143.8,10.53a66.11,66.11,0,0,0-19.43,16.41L106.88,3.72l-62.46.62-2.24,6.19c-.62,1.71-1.16,3.18-1.63,4.65-3.48,10.06-3.48,10.06-21.43,14.08l-6.27,1.55-9,54.8h0l17.34,17.33L0,244.81H0l18.73,21.13h67.1l8.36-52.17a64.92,64.92,0,0,0,5.11,11.46,86.08,86.08,0,0,0,27.4,30A59.22,59.22,0,0,0,143.26,263a78.59,78.59,0,0,0,18,3.56,115,115,0,0,0,36.53-4.26,59.35,59.35,0,0,0,40.71-36.53,275.12,275.12,0,0,0,8.82-42.41l9.52-64.09,2.33-16.09,3.56,3.48L242,244.81h0L263.53,266h67.8L366.15,29.57Z"/><path class="cls-2" d="M53.79,17.5l-.7,1.94c-5,14.39-7.19,17.25-28.56,22.21L19.81,72.14H39.7L15.79,231.57H58.51L91.4,17.19Z"/><path class="cls-3" d="M65.09,239.16H6.66L30.57,79.65h-20L18.27,35.3l2.47-.54C41.87,30,42.1,29.26,46.36,17c.46-1.39.93-2.94,1.55-4.57l.93-2.47,51.77-.47Zm-49.61-7.74h43L91.4,17.19H53.79l-.7,1.94c-5,14.39-7.19,17.25-28.56,22.21l-4.72,30.8H39.7L15.79,231.57Z"/><path class="cls-3" d="M152.85,243.11a79,79,0,0,1-30.1-4.88,36.36,36.36,0,0,1-18.42-15.87,58.92,58.92,0,0,1-7.12-21.9,138.49,138.49,0,0,1,2.09-35.14l11.45-77.39a188.08,188.08,0,0,1,11.77-46.44,58.7,58.7,0,0,1,23.6-26.16,71.46,71.46,0,0,1,37.15-9.75,62,62,0,0,1,30,6.81,43.26,43.26,0,0,1,18.34,17,50.52,50.52,0,0,1,6,22.29,212.93,212.93,0,0,1-3.25,37.38L223.36,163a221.54,221.54,0,0,1-7.74,37.38,67.62,67.62,0,0,1-14.08,22.76,57.56,57.56,0,0,1-22.14,15.48,74.54,74.54,0,0,1-26.24,4.56ZM183.27,13.17a63.42,63.42,0,0,0-33.2,8.59,50.86,50.86,0,0,0-20.74,22.67A174.76,174.76,0,0,0,118.1,89.09l-11.45,77.4a138.5,138.5,0,0,0-1.7,33,51.33,51.33,0,0,0,6.34,19A29.31,29.31,0,0,0,126,231.26a72.18,72.18,0,0,0,27.24,4.26,66.41,66.41,0,0,0,23.22-4.1A50.89,50.89,0,0,0,195.73,218a60.25,60.25,0,0,0,12.46-20.2,205,205,0,0,0,7.74-35.91L226.84,88A211,211,0,0,0,230,52.1a44.9,44.9,0,0,0-5.11-19,36.33,36.33,0,0,0-15.48-14,54.06,54.06,0,0,0-26.24-5.88Z"/><path class="cls-2" d="M229.94,52.1a44.76,44.76,0,0,0-5.11-19,36.33,36.33,0,0,0-15.48-14,54,54,0,0,0-26.23-5.88,63.43,63.43,0,0,0-33.21,8.59,50.92,50.92,0,0,0-20.74,22.67A174.33,174.33,0,0,0,118,89.09l-11.45,77.4a138,138,0,0,0-1.55,33,51.33,51.33,0,0,0,6.34,19A29.31,29.31,0,0,0,126,231.26a72.18,72.18,0,0,0,27.24,4.26,66.41,66.41,0,0,0,23.22-4.1A50.89,50.89,0,0,0,195.73,218a60.25,60.25,0,0,0,12.46-20.2,205,205,0,0,0,7.74-35.91L226.84,88A210.91,210.91,0,0,0,229.94,52.1Zm-38.7-3.87a213.25,213.25,0,0,1-3.17,23.21L170.35,181.19A191.57,191.57,0,0,1,166,203.33c-3,10-9.13,11.45-12.54,11.45a10.84,10.84,0,0,1-7.74-3.33,13.44,13.44,0,0,1-3.79-10.37,194.94,194.94,0,0,1,3.33-24.77L162.92,68a195.21,195.21,0,0,1,4.56-23.22c3-10,9.14-11.45,12.54-11.45a11,11,0,0,1,7.74,3.4,14.71,14.71,0,0,1,3.71,11.54Z"/><path class="cls-3" d="M188,37.31a10.9,10.9,0,0,0-7.74-3.4c-3.4,0-9.52,1.47-12.54,11.45a195.21,195.21,0,0,0-4.56,23.22L145.5,176.93a194.94,194.94,0,0,0-3.33,24.77,13.4,13.4,0,0,0,3.64,10.22,10.87,10.87,0,0,0,7.74,3.32c3.41,0,9.52-1.47,12.54-11.45a191.54,191.54,0,0,0,4.33-22.14L188.3,71.52a208.3,208.3,0,0,0,3.17-23.22A14.68,14.68,0,0,0,188,37.31Zm-7.2,33L162.84,180c-1.78,10.91-3.17,18-4.1,21.21-.47,1.47-1.78,6-5.27,6a3.51,3.51,0,0,1-2.55-1.09,6.35,6.35,0,0,1-1.39-4.8c0-2.78,1.08-10.52,3.17-23.6l17.72-108.2a222.49,222.49,0,0,1,4.18-21.9c0-1.55,1.78-6.12,5.27-6.12a3.25,3.25,0,0,1,2.47,1.09,6.72,6.72,0,0,1,1.4,5.34A224.24,224.24,0,0,1,180.79,70.28Z"/><path class="cls-2" d="M295.8,17.5l-.69,1.94c-5,14.39-7.28,17.25-28.64,22.21l-5,30.49h19.81L257.49,231.57h43L333.34,17.19Z"/><path class="cls-3" d="M307.1,239.16H248.67L272.51,79.65h-20l7.2-44.27,2.47-.54c21.13-4.8,21.44-5.5,25.62-17.8.47-1.4,1-2.95,1.63-4.57L290.7,10l51.85-.46Zm-49.61-7.74h43L333.34,17.19H295.8l-.69,1.94c-5,14.39-7.28,17.25-28.64,22.21l-5,30.49h19.81L257.49,231.26Z"/></svg>