<svg width="100%" height="100%" viewBox="0 0 500 500" version="1.1" xmlns="http://www.w3.org/2000/svg" xmlns:xlink="http://www.w3.org/1999/xlink" xml:space="preserve" xmlns:serif="http://www.serif.com/" style="fill-rule:evenodd;clip-rule:evenodd;stroke-linejoin:round;stroke-miterlimit:2;">
    <g id="path22582" transform="matrix(0.49503,0,0,0.49503,-3.45518,190.101)">
        <path d="M949.471,230.195L949.471,150.941L893.182,150.941L893.182,230.195L825.633,230.195L825.633,11.345L893.182,11.345L893.182,86.1L949.471,86.1L949.471,11.345L1017.02,11.345L1017.02,230.195L949.471,230.195ZM738.734,76.191L738.734,230.192L671.176,230.192L671.176,76.191L625.247,76.191L625.247,11.341L784.663,11.341L784.663,76.191L738.734,76.191ZM516.727,11.345L584.284,11.345L584.284,230.195L516.727,230.195L516.727,11.345ZM414.054,120.773C414.054,149.59 391.098,173.009 362.272,173.009C333.454,173.009 310.035,149.59 310.035,120.773C310.035,91.956 333.454,68.991 362.272,68.991C391.098,68.991 414.054,91.956 414.054,120.773M476.213,120.773C476.213,57.731 425.322,6.849 362.272,6.849C299.23,6.849 247.894,57.731 247.894,120.773C247.894,183.814 299.23,235.151 362.272,235.151C425.322,235.151 476.213,183.814 476.213,120.773M171.795,11.345L126.765,133.838L81.726,11.345L6.98,11.345L101.101,230.195L151.983,230.195L246.55,11.345L171.795,11.345Z" style="fill:rgb(45,66,117);fill-rule:nonzero;"/>
    </g>
</svg>
