<?xml version="1.0" encoding="utf-8"?>
<!-- Generator: Adobe Illustrator 21.0.0, SVG Export Plug-In . SVG Version: 6.00 Build 0)  -->
<svg version="1.1" xmlns="http://www.w3.org/2000/svg" xmlns:xlink="http://www.w3.org/1999/xlink" x="0px" y="0px"
	 viewBox="0 0 989 281" style="enable-background:new 0 0 989 281;" xml:space="preserve">
<style type="text/css">
	.st0{enable-background:new    ;}
	.st1{fill-rule:evenodd;clip-rule:evenodd;fill:transparent;stroke:transparent;stroke-miterlimit:10;}
	.st2{fill-rule:evenodd;clip-rule:evenodd;fill:#fc702d;}
	.st3{fill:none;stroke:#fc702d;;stroke-miterlimit:10;}
</style>
<g id="Background_xA0_Image_1_">
</g>
<g id="Horizontal_1_" class="st0">
	<rect class="st1" width="989" height="281"/>
	<g id="Horizontal_3_">
		<g>
			<path class="st2" d="M376.6,85c-0.2-1.8-0.9-2.2-2.7-2.2h-21.7c-1.3,0-2.3,0.3-2.8,2.3c-2.7,9.8-13.3,47.8-13.3,47.8
				c-1.6,5.9-2.8,11.4-3.7,16.4c-0.2-1.3-0.4-2.5-0.7-3.6c-0.2-1.2-0.5-2.3-0.7-3.6c-0.2-1.2-0.5-2.5-0.9-3.9
				c-0.3-1.4-0.8-3-1.3-4.9c0,0-10.3-38.6-12.9-48.3c-0.7-2.2-1.9-2.2-3.3-2.2H291c-1.7,0-2.2,0.9-2.3,2.3
				c-1.3,13.7-7.9,82.8-9.2,96.3c-0.1,1.7,0.8,2.2,2.5,2.3h15.1c1.6,0,2.7-0.3,2.9-2.2c0.7-9.9,3.4-50.5,3.4-50.5
				c0.2-3.1,0.3-6.1,0.4-9.1c0.2-2.8,0.3-5.6,0.3-8.4c0.5,2.7,1.1,5.6,1.9,8.7c0.8,3.2,1.5,6,2.2,8.6c0,0,11.3,40.9,14.1,50.8
				c0.5,1.5,1.1,2.2,2.7,2.2H338c2.1-0.1,2.6-0.3,3.2-2.1c3-10.1,15.7-53.1,15.7-53.1c0.9-3.1,1.6-5.7,2.1-7.9
				c0.5-2.2,1.1-4.7,1.7-7.6c0,2.7,0.1,5.4,0.2,8.1c0.1,2.7,0.3,5.6,0.5,8.8c0,0,3.2,42.7,3.7,52.1c0.1,1.7,1,1.8,2.2,1.8h16.3
				c1,0,2-0.5,1.8-2.2C384,168.3,377.9,98.4,376.6,85z M456.2,109.4h-16.3c-1.8,0-2.1,0.3-2.6,1.9c-2.5,7.7-10.8,33.6-10.8,33.6
				c-0.6,1.7-1.2,3.6-1.7,5.5c-0.5,1.9-1,3.5-1.3,4.8c-0.2,0.9-0.4,2-0.7,3.3c-0.3,1.4-0.6,2.6-0.8,3.8c-0.2,1.2-0.4,2.3-0.6,3.2
				c-0.1,0.9-0.2,1.4-0.2,1.5l-4-15.4c0,0-9.9-32.6-12.5-41.3c-0.5-1.6-1.6-2-3-1.8c-3.9,0.4-11.7,1.3-15.6,1.8
				c-1.9,0.2-2.1,1.2-1.7,2.4c4.1,12.1,24.3,71,24.3,71h5c-0.5,1.1-0.9,2-1.2,2.8c-0.3,0.8-0.6,1.5-0.9,2.1c-0.3,0.6-0.6,1.2-1,1.8
				c-0.3,0.6-0.8,1.3-1.3,2c-1.7,2.6-3.6,4.6-5.6,6.1c-1.5,1.1-3.4,2-5.6,2.8c-1.5,0.5-2.9,1-4.3,1.4c-1.6,0.5-1.8,1.8-1.2,3
				c1.3,2.5,3.5,6.5,4.7,8.8c0.7,1.3,2,1.6,3.2,1.4c2.6-0.5,5.1-1.2,7.6-2c3.1-1.1,5.9-2.6,8.5-4.4c1.4-1,2.7-2.1,3.9-3.5
				c1.2-1.4,2.3-3,3.5-4.9c1.1-1.9,2.3-4.2,3.5-6.8c1.2-2.7,2.4-5.8,3.7-9.4c0,0,22.2-60.7,26.7-73.2
				C458.7,109.5,457.5,109.4,456.2,109.4z M532.2,82.8h-16.9c-2,0-2.3,0.6-2.3,2.3c0,8.4,0,36.9,0,36.9h-29.6c0,0,0-28.5,0-36.9
				c0-2.1-1-2.4-3-2.3h-15.1c-2.2,0-2.5,0.7-2.5,2.4v96.2c0,1.8,0.8,2.3,1.9,2.3h16.4c1.2,0,2.2-0.3,2.2-2.2c0-9.1,0-42.8,0-42.8
				h29.6c0,0,0,33.6,0,42.7c0,1.6,1,2.3,2.3,2.3h16.7c1.4,0,2-0.8,2-2.2V85.1C534.1,83.2,533.5,82.8,532.2,82.8z M652.7,107.9
				c-0.9-0.2-2.1-0.3-3.6-0.3c-3.8,0-7.1,1.1-10.1,3.2c-3,2.1-5.5,4.6-7.7,7.4c-0.3-4-1.3-7.5-3.1-10.6l-17.8,4.6
				c0.8,2.1,1.5,5,2,8.7c0.5,3.7,0.8,8,0.8,13.1c0,0,0,38.4,0,47.5c0,1,0.5,2.2,2.1,2.2h15.5c1.3,0,2.2-0.4,2.2-2.2
				c0-9.9,0-50.4,0-50.4c3.7-4.2,7.7-6.2,12.1-6.2c1,0,2,0,3,0.2c1.8,0.3,3,0.6,3.6-1.6c1-3.1,2.6-8.2,3.6-11.4
				C656.4,109.5,655,108.5,652.7,107.9z M670.2,76.9c-3.5,0-6.4,1.2-8.8,3.5c-2.4,2.3-3.6,5.2-3.6,8.6c0,3.4,1.2,6.2,3.6,8.6
				c2.4,2.3,5.2,3.5,8.6,3.5c3.5,0,6.4-1.2,8.7-3.5c2.4-2.3,3.6-5.2,3.6-8.6c0-3.4-1.2-6.2-3.5-8.6C676.4,78,673.6,76.9,670.2,76.9z
				 M678,107.9c-3.8,0.6-12.2,1.9-16.1,2.5c-1.8,0.3-1.9,0.9-1.9,2v69.2c0,1.6,1,2,2.1,2h16c1.4,0,1.7-0.4,1.7-1.9v-72.2
				C679.8,107.8,679.2,107.7,678,107.9z M731.1,172.1c-0.3-1.3-1.6-1.3-2.4-1.1c-0.9,0.2-1.6,0.4-2.2,0.5c-1,0.2-2,0.4-2.9,0.4
				c-3.5,0-5.8-0.8-6.9-2.4c-1.1-1.6-1.7-4.8-1.7-9.5v-37.3h12.7c0,0,2.6-6.8,4-10.7c0.7-2.1-0.5-2.6-1.6-2.6c-5,0-15.1,0-15.1,0
				c0-3.8,0.1-7.6,0.3-11.5c0.1-2.4,0.3-4.7,0.5-6.9c0.4-3.6-2.2-3.3-3.8-3c-5.9,1.4-16,3.9-16,3.9c-0.4,2.8-0.6,5.5-0.7,8.1
				c-0.1,2.6-0.1,5.8-0.1,9.4h-7.6v13.4h7.6v40.4c0,1.7,0,3.2,0.1,4.3c0,1.1,0.1,2.1,0.1,2.8c0,0.8,0.2,1.5,0.4,2.2
				c0.2,0.7,0.4,1.4,0.7,2.2c1.2,3.3,3.6,5.9,7.3,7.9c3.7,2,8.1,3,13.1,3c4.8,0,9.7-0.9,14.7-2.8c0.7-0.3,1.3-0.8,1.1-2
				C732.5,178.5,731.6,174.4,731.1,172.1z M798.7,172c-0.9-1.1-1.7-2.3-2.1-3.6c-0.5-1.3-0.8-2.6-0.9-4.1c-0.1-1.5-0.1-3.3-0.1-5.3
				l0.4-25V129c0-1.4-0.1-2.5-0.2-3.5c-0.1-1-0.3-1.8-0.4-2.5c-0.1-0.7-0.4-1.5-0.7-2.2c-1.5-4.2-4.3-7.4-8.5-9.6
				c-4.2-2.2-9.5-3.3-15.9-3.3c-3.5,0-6.8,0.3-10.1,1c-3.3,0.7-6.8,1.8-10.6,3.3c-2.7,1.1-4.9,2-6.7,2.9c-1,0.5-2.1,1.1-3.2,1.7
				c-1.8,1.1-1.6,2.5-1.1,3.7c1.5,2.5,4,6.6,5.6,9.3c1.2,1.8,2.5,1.6,4,0.9c3.2-1.9,6.3-3.5,9.2-4.6c3.7-1.5,7.1-2.2,10.2-2.2
				c3.7,0,6,0.8,7.2,2.4c1.1,1.6,1.7,4.5,1.7,8.6v3c-0.8-0.1-1.5-0.1-2.2-0.1H772c-12.1,0-21.3,2.1-27.3,6.2
				c-6.1,4.1-9.1,10.6-9.1,19.4c0,7.5,2.2,13.2,6.7,17.2c4.4,4,10.9,6,19.4,6c6.3,0,11.4-1.4,15.3-4.1c0.8-0.5,1.6-1.1,2.3-1.7
				c0.7-0.7,1.5-1.4,2.3-2.2c1,1.9,2.4,3.7,4.4,5.2c1.1,0.9,2.3,1.7,3.6,2.4c1.9,1.1,3.3,0.7,4.8-0.9c2-2.2,5.1-5.6,6.8-7.8
				c0.7-0.9,1.1-2.2-0.2-3.2C800,173.4,799.3,172.7,798.7,172z M775.8,167.2c-1.5,1.6-3.1,2.9-4.9,3.8c-1.8,0.9-3.6,1.3-5.5,1.3
				c-2.6,0-4.7-0.9-6.3-2.7c-1.6-1.8-2.4-4.1-2.4-7c0-4.5,1.4-7.5,4.1-9c2.7-1.5,7.5-2.3,14.4-2.3h0.9L775.8,167.2z M869.6,123
				c2.8,0,5.2-0.4,7.4-1.3c1.5-0.6,3.1-1.5,4.7-2.7c1.3-0.9,1.4-2.4,0.5-3.6c-1.4-2-3.4-5.1-5-7.4c-1.1-1.9-2.1-2.4-4.1-1.1
				c-1.7,1.2-3.4,2.2-5.3,3c-2.7,1.1-5.5,1.7-8.2,1.7c-1.3,0-2.6-0.1-4.1-0.4c-1.4-0.3-3.2-0.7-5.3-1.2c-2.8-0.7-5.2-1.2-7.3-1.5
				c-2.1-0.3-4.2-0.4-6.4-0.4c-4.8,0-9.2,0.6-13.2,1.8c-4,1.2-7.3,2.9-10.1,5.1c-2.8,2.2-4.9,4.8-6.4,7.9c-1.5,3.1-2.3,6.5-2.3,10.3
				c0,11,5.4,17.9,16.3,20.6c-3.2,0.8-5.7,1.6-7.5,2.6c-1.8,1-3.2,2-4.1,3c-0.9,1.1-1.6,2.2-1.9,3.3s-0.4,2.3-0.4,3.5
				c0,2.5,0.5,4.6,1.6,6.2c1,1.6,2.4,2.8,4.2,3.5c3.5,1.5,9.5,2.2,18.2,2.3l8.4,0.1c3.9,0.1,7.3,0.7,9.9,2c2.7,1.2,4,3.5,4,6.9
				c0,1.5-0.4,3-1.3,4.3c-0.9,1.3-2.1,2.4-3.6,3.3c-1.6,1-3.4,1.6-5.5,2c-2.1,0.3-4.4,0.5-7,0.5c-4.6,0-8.2-0.8-10.6-2.3
				c-2.4-1.5-3.6-3.8-3.6-6.8c0-1.1,0-1.9,0.1-2.5c0.1-0.6,0.3-2.5-1.5-2.3h-16.2c-0.4,0.8-0.8,1.7-1.2,2.8
				c-0.4,1.1-0.6,2.7-0.6,4.7c0,5,2.1,9.4,6.2,13.2c3.5,3.1,7.8,5.2,12.9,6.3c5.1,1.1,10.4,1.7,15.8,1.7c5.9,0,11.6-0.7,16.9-2.2
				c5.3-1.5,9.7-3.9,13-7.4c4-4.3,6.1-9.4,6.1-15.4c0-6.6-2.2-11.9-6.5-15.8c-2.7-2.4-5.7-4.1-9.2-5.1c-3.5-1-8-1.5-13.8-1.6
				l-10.7-0.1c-2.2,0-3.3-0.6-3.3-1.7c0-1.1,0.7-2.1,2-3c1.3-0.9,3.3-2,5.9-3.1c0.8,0.1,1.3,0.1,1.6,0.1h1.3c4,0,7.8-0.6,11.2-1.7
				c3.4-1.1,6.4-2.6,8.9-4.6c2.5-1.9,4.5-4.3,5.8-7c1.4-2.7,2.1-5.7,2.1-8.9c0-2.5-0.4-4.7-1.1-6.7c-0.7-1.9-1.9-3.8-3.3-5.5
				c0.6,0.1,1.4,0.2,2.3,0.3C867.6,123,868.6,123,869.6,123z M836.2,143.9c-3.5,0-6.3-0.8-8.4-2.5c-2.2-1.6-3.3-4.4-3.3-8.1
				c0-3.5,1-6.2,3.1-8.1c2.1-1.9,5-2.9,8.7-2.9c3.8,0,6.7,1,8.8,2.9c2.1,1.9,3.2,4.6,3.2,8.1C848.4,140.4,844.3,143.9,836.2,143.9z
				 M940,152.6c3.5,0,3-4.5,3-4.5c0-7.8-0.8-14.3-2.4-19.5c-1.6-5.2-4.2-9.5-7.6-13c-2.5-2.5-5.6-4.4-9.5-5.8c-3.9-1.4-8-2-12.4-2
				c-5,0-9.5,0.8-13.3,2.5c-3.9,1.6-7.4,4.2-10.5,7.5c-3.4,3.7-5.8,7.8-7.3,12.5c-1.5,4.6-2.2,10.3-2.2,17c0,5.8,0.8,11.1,2.5,15.8
				c1.7,4.7,4.1,8.8,7.2,12.1c3.1,3.3,6.9,5.9,11.3,7.8c4.4,1.8,9.4,2.8,14.8,2.8c9.8,0,18.7-3,26.9-9c1.2-0.8,1.4-2,0.5-3.1
				c-1.3-2-3.6-5.4-5-7.6c-1.2-2-2.5-1.5-3.5-0.7c-5.5,3.9-11.3,5.9-17.3,5.9c-5.1,0-9.1-1.5-11.8-4.6c-2.8-3.1-4.1-7.5-4.1-13.4
				v-0.6C899.2,152.6,930.1,152.6,940,152.6z M899.5,138.1c0-5.2,1-9.2,3.1-12c2.1-2.8,5-4.1,8.7-4.1c3.9,0,6.8,1.5,8.7,4.4
				c0.9,1.4,1.5,2.9,1.9,4.5c0.3,1.6,0.5,3.9,0.5,6.7v0.9h-23V138.1z M603.4,128.6c-1.6-5.2-4.2-9.5-7.6-13
				c-2.5-2.5-5.6-4.4-9.5-5.8c-3.9-1.4-8-2-12.4-2c-5,0-9.5,0.8-13.3,2.5c-3.9,1.6-7.4,4.2-10.5,7.5c-3.4,3.7-5.8,7.8-7.3,12.5
				c-1.5,4.6-2.2,10.3-2.2,17c0,5.8,0.8,11.1,2.5,15.8c1.7,4.7,4.1,8.8,7.2,12.1c3.1,3.3,6.9,5.9,11.3,7.8c4.4,1.8,9.4,2.8,14.8,2.8
				c9.8,0,18.7-3,26.9-9c1.2-0.8,1.4-2,0.5-3.1c-1.3-2-3.6-5.4-5-7.6c-1.2-2-2.5-1.5-3.5-0.7c-5.5,3.9-11.3,5.9-17.3,5.9
				c-5.1,0-9.1-1.5-11.8-4.6c-2.8-3.1-4.1-7.5-4.1-13.4v-0.6c0,0,30.9,0,40.8,0c3.5,0,3-4.5,3-4.5
				C605.9,140.3,605.1,133.8,603.4,128.6z M585.3,138.4h-23v-0.3c0-5.2,1-9.2,3.1-12c2.1-2.8,5-4.1,8.7-4.1c3.9,0,6.8,1.5,8.7,4.4
				c0.9,1.4,1.5,2.9,1.9,4.5c0.3,1.6,0.5,3.9,0.5,6.7V138.4z M175.2,60.2c36.9,2.2,66.1,34.8,66.1,72.2c0,37.4-29.2,70.1-66.1,72.2
				c53.4,4.7,86.4-32.6,86.4-72.2C261.6,92.9,228.7,55.6,175.2,60.2z M89.4,132.5c0-37.4,29.2-70.1,66.1-72.2
				c-52.8-4.9-86.4,32.6-86.4,72.2c0,39.6,34.4,77.8,86.4,72.2C118.6,202.5,89.4,169.9,89.4,132.5z M235.6,132.5
				c-0.4-38.8-31.5-70.3-70.3-70.3c-38.8,0-70.2,31.5-70.2,70.3c0,33.9,24,62.2,55.8,68.6c10.6,2.1,12.1-24.9,9.2-42.9
				c-0.1,0-3.2-0.2-4.3-0.2c-2.2-0.1-4.2,2.4-5.6,2.9c-2.3,0.8-2.7-1.4-4.3-1.4c-1.4,0-3.4,2.2-8.7,1.2c-5.4-1-7.1-5.9-7.1-5.9
				l-1.6-0.8c-5.5-1.4-5.8-7.3-5.8-7.7c-0.3-2.9,4.8-5.1,3.4-6c-6.2-3.9-4.2-7-4.1-7.2c0.8-2.1,3.8-6.6,2.7-7.3
				c-3-1.9,2-13.2,6.3-16.3c0.7-3.6,4.5-9.4,8.2-10.6c-0.2-4,5.5-6.3,5.5-6.3c4-1.3,1.2-4.5,8.8-4c1.8,0.1,1.7-1.9,6.1-2
				c1.3,0,2.7-1,6.6-1c6.8-0.3,6.5,4.3,8.8,3.5c2.9-1,12.5,3.7,13.5,13.5c4.3-0.3,15.7,12.2,15.4,21.4c7.5,8.4-2.7,16.3-3.1,17.9
				c0.3,0.9,1.8,4.7,1.2,7.6c-0.7,3.5-5.1,7.2-5.3,7.4c-3.1,2.2-5.3,4.7-9,4c-3.8-0.7-3.1-4.2-4.2-5c-2.4,2.2-6.1,4-10.7,3.6
				c-0.6-0.1-2.6-0.3-2.8-0.3c-2.2,13.2-1.9,42.7,7.4,42.7C205.5,197.4,236,170.2,235.6,132.5z"/>
		</g>
		<g>
			<path class="st3" d="M376.6,85c-0.2-1.8-0.9-2.2-2.7-2.2h-21.7c-1.3,0-2.3,0.3-2.8,2.3c-2.7,9.8-13.3,47.8-13.3,47.8
				c-1.6,5.9-2.8,11.4-3.7,16.4c-0.2-1.3-0.4-2.5-0.7-3.6c-0.2-1.2-0.5-2.3-0.7-3.6c-0.2-1.2-0.5-2.5-0.9-3.9
				c-0.3-1.4-0.8-3-1.3-4.9c0,0-10.3-38.6-12.9-48.3c-0.7-2.2-1.9-2.2-3.3-2.2H291c-1.7,0-2.2,0.9-2.3,2.3
				c-1.3,13.7-7.9,82.8-9.2,96.3c-0.1,1.7,0.8,2.2,2.5,2.3h15.1c1.6,0,2.7-0.3,2.9-2.2c0.7-9.9,3.4-50.5,3.4-50.5
				c0.2-3.1,0.3-6.1,0.4-9.1c0.2-2.8,0.3-5.6,0.3-8.4c0.5,2.7,1.1,5.6,1.9,8.7c0.8,3.2,1.5,6,2.2,8.6c0,0,11.3,40.9,14.1,50.8
				c0.5,1.5,1.1,2.2,2.7,2.2H338c2.1-0.1,2.6-0.3,3.2-2.1c3-10.1,15.7-53.1,15.7-53.1c0.9-3.1,1.6-5.7,2.1-7.9
				c0.5-2.2,1.1-4.7,1.7-7.6c0,2.7,0.1,5.4,0.2,8.1c0.1,2.7,0.3,5.6,0.5,8.8c0,0,3.2,42.7,3.7,52.1c0.1,1.7,1,1.8,2.2,1.8h16.3
				c1,0,2-0.5,1.8-2.2C384,168.3,377.9,98.4,376.6,85z M456.2,109.4h-16.3c-1.8,0-2.1,0.3-2.6,1.9c-2.5,7.7-10.8,33.6-10.8,33.6
				c-0.6,1.7-1.2,3.6-1.7,5.5c-0.5,1.9-1,3.5-1.3,4.8c-0.2,0.9-0.4,2-0.7,3.3c-0.3,1.4-0.6,2.6-0.8,3.8c-0.2,1.2-0.4,2.3-0.6,3.2
				c-0.1,0.9-0.2,1.4-0.2,1.5l-4-15.4c0,0-9.9-32.6-12.5-41.3c-0.5-1.6-1.6-2-3-1.8c-3.9,0.4-11.7,1.3-15.6,1.8
				c-1.9,0.2-2.1,1.2-1.7,2.4c4.1,12.1,24.3,71,24.3,71h5c-0.5,1.1-0.9,2-1.2,2.8c-0.3,0.8-0.6,1.5-0.9,2.1c-0.3,0.6-0.6,1.2-1,1.8
				c-0.3,0.6-0.8,1.3-1.3,2c-1.7,2.6-3.6,4.6-5.6,6.1c-1.5,1.1-3.4,2-5.6,2.8c-1.5,0.5-2.9,1-4.3,1.4c-1.6,0.5-1.8,1.8-1.2,3
				c1.3,2.5,3.5,6.5,4.7,8.8c0.7,1.3,2,1.6,3.2,1.4c2.6-0.5,5.1-1.2,7.6-2c3.1-1.1,5.9-2.6,8.5-4.4c1.4-1,2.7-2.1,3.9-3.5
				c1.2-1.4,2.3-3,3.5-4.9c1.1-1.9,2.3-4.2,3.5-6.8c1.2-2.7,2.4-5.8,3.7-9.4c0,0,22.2-60.7,26.7-73.2
				C458.7,109.5,457.5,109.4,456.2,109.4z M532.2,82.8h-16.9c-2,0-2.3,0.6-2.3,2.3c0,8.4,0,36.9,0,36.9h-29.6c0,0,0-28.5,0-36.9
				c0-2.1-1-2.4-3-2.3h-15.1c-2.2,0-2.5,0.7-2.5,2.4v96.2c0,1.8,0.8,2.3,1.9,2.3h16.4c1.2,0,2.2-0.3,2.2-2.2c0-9.1,0-42.8,0-42.8
				h29.6c0,0,0,33.6,0,42.7c0,1.6,1,2.3,2.3,2.3h16.7c1.4,0,2-0.8,2-2.2V85.1C534.1,83.2,533.5,82.8,532.2,82.8z M652.7,107.9
				c-0.9-0.2-2.1-0.3-3.6-0.3c-3.8,0-7.1,1.1-10.1,3.2c-3,2.1-5.5,4.6-7.7,7.4c-0.3-4-1.3-7.5-3.1-10.6l-17.8,4.6
				c0.8,2.1,1.5,5,2,8.7c0.5,3.7,0.8,8,0.8,13.1c0,0,0,38.4,0,47.5c0,1,0.5,2.2,2.1,2.2h15.5c1.3,0,2.2-0.4,2.2-2.2
				c0-9.9,0-50.4,0-50.4c3.7-4.2,7.7-6.2,12.1-6.2c1,0,2,0,3,0.2c1.8,0.3,3,0.6,3.6-1.6c1-3.1,2.6-8.2,3.6-11.4
				C656.4,109.5,655,108.5,652.7,107.9z M670.2,76.9c-3.5,0-6.4,1.2-8.8,3.5c-2.4,2.3-3.6,5.2-3.6,8.6c0,3.4,1.2,6.2,3.6,8.6
				c2.4,2.3,5.2,3.5,8.6,3.5c3.5,0,6.4-1.2,8.7-3.5c2.4-2.3,3.6-5.2,3.6-8.6c0-3.4-1.2-6.2-3.5-8.6C676.4,78,673.6,76.9,670.2,76.9z
				 M678,107.9c-3.8,0.6-12.2,1.9-16.1,2.5c-1.8,0.3-1.9,0.9-1.9,2v69.2c0,1.6,1,2,2.1,2h16c1.4,0,1.7-0.4,1.7-1.9v-72.2
				C679.8,107.8,679.2,107.7,678,107.9z M731.1,172.1c-0.3-1.3-1.6-1.3-2.4-1.1c-0.9,0.2-1.6,0.4-2.2,0.5c-1,0.2-2,0.4-2.9,0.4
				c-3.5,0-5.8-0.8-6.9-2.4c-1.1-1.6-1.7-4.8-1.7-9.5v-37.3h12.7c0,0,2.6-6.8,4-10.7c0.7-2.1-0.5-2.6-1.6-2.6c-5,0-15.1,0-15.1,0
				c0-3.8,0.1-7.6,0.3-11.5c0.1-2.4,0.3-4.7,0.5-6.9c0.4-3.6-2.2-3.3-3.8-3c-5.9,1.4-16,3.9-16,3.9c-0.4,2.8-0.6,5.5-0.7,8.1
				c-0.1,2.6-0.1,5.8-0.1,9.4h-7.6v13.4h7.6v40.4c0,1.7,0,3.2,0.1,4.3c0,1.1,0.1,2.1,0.1,2.8c0,0.8,0.2,1.5,0.4,2.2
				c0.2,0.7,0.4,1.4,0.7,2.2c1.2,3.3,3.6,5.9,7.3,7.9c3.7,2,8.1,3,13.1,3c4.8,0,9.7-0.9,14.7-2.8c0.7-0.3,1.3-0.8,1.1-2
				C732.5,178.5,731.6,174.4,731.1,172.1z M798.7,172c-0.9-1.1-1.7-2.3-2.1-3.6c-0.5-1.3-0.8-2.6-0.9-4.1c-0.1-1.5-0.1-3.3-0.1-5.3
				l0.4-25V129c0-1.4-0.1-2.5-0.2-3.5c-0.1-1-0.3-1.8-0.4-2.5c-0.1-0.7-0.4-1.5-0.7-2.2c-1.5-4.2-4.3-7.4-8.5-9.6
				c-4.2-2.2-9.5-3.3-15.9-3.3c-3.5,0-6.8,0.3-10.1,1c-3.3,0.7-6.8,1.8-10.6,3.3c-2.7,1.1-4.9,2-6.7,2.9c-1,0.5-2.1,1.1-3.2,1.7
				c-1.8,1.1-1.6,2.5-1.1,3.7c1.5,2.5,4,6.6,5.6,9.3c1.2,1.8,2.5,1.6,4,0.9c3.2-1.9,6.3-3.5,9.2-4.6c3.7-1.5,7.1-2.2,10.2-2.2
				c3.7,0,6,0.8,7.2,2.4c1.1,1.6,1.7,4.5,1.7,8.6v3c-0.8-0.1-1.5-0.1-2.2-0.1H772c-12.1,0-21.3,2.1-27.3,6.2
				c-6.1,4.1-9.1,10.6-9.1,19.4c0,7.5,2.2,13.2,6.7,17.2c4.4,4,10.9,6,19.4,6c6.3,0,11.4-1.4,15.3-4.1c0.8-0.5,1.6-1.1,2.3-1.7
				c0.7-0.7,1.5-1.4,2.3-2.2c1,1.9,2.4,3.7,4.4,5.2c1.1,0.9,2.3,1.7,3.6,2.4c1.9,1.1,3.3,0.7,4.8-0.9c2-2.2,5.1-5.6,6.8-7.8
				c0.7-0.9,1.1-2.2-0.2-3.2C800,173.4,799.3,172.7,798.7,172z M775.8,167.2c-1.5,1.6-3.1,2.9-4.9,3.8c-1.8,0.9-3.6,1.3-5.5,1.3
				c-2.6,0-4.7-0.9-6.3-2.7c-1.6-1.8-2.4-4.1-2.4-7c0-4.5,1.4-7.5,4.1-9c2.7-1.5,7.5-2.3,14.4-2.3h0.9L775.8,167.2z M869.6,123
				c2.8,0,5.2-0.4,7.4-1.3c1.5-0.6,3.1-1.5,4.7-2.7c1.3-0.9,1.4-2.4,0.5-3.6c-1.4-2-3.4-5.1-5-7.4c-1.1-1.9-2.1-2.4-4.1-1.1
				c-1.7,1.2-3.4,2.2-5.3,3c-2.7,1.1-5.5,1.7-8.2,1.7c-1.3,0-2.6-0.1-4.1-0.4c-1.4-0.3-3.2-0.7-5.3-1.2c-2.8-0.7-5.2-1.2-7.3-1.5
				c-2.1-0.3-4.2-0.4-6.4-0.4c-4.8,0-9.2,0.6-13.2,1.8c-4,1.2-7.3,2.9-10.1,5.1c-2.8,2.2-4.9,4.8-6.4,7.9c-1.5,3.1-2.3,6.5-2.3,10.3
				c0,11,5.4,17.9,16.3,20.6c-3.2,0.8-5.7,1.6-7.5,2.6c-1.8,1-3.2,2-4.1,3c-0.9,1.1-1.6,2.2-1.9,3.3s-0.4,2.3-0.4,3.5
				c0,2.5,0.5,4.6,1.6,6.2c1,1.6,2.4,2.8,4.2,3.5c3.5,1.5,9.5,2.2,18.2,2.3l8.4,0.1c3.9,0.1,7.3,0.7,9.9,2c2.7,1.2,4,3.5,4,6.9
				c0,1.5-0.4,3-1.3,4.3c-0.9,1.3-2.1,2.4-3.6,3.3c-1.6,1-3.4,1.6-5.5,2c-2.1,0.3-4.4,0.5-7,0.5c-4.6,0-8.2-0.8-10.6-2.3
				c-2.4-1.5-3.6-3.8-3.6-6.8c0-1.1,0-1.9,0.1-2.5c0.1-0.6,0.3-2.5-1.5-2.3h-16.2c-0.4,0.8-0.8,1.7-1.2,2.8
				c-0.4,1.1-0.6,2.7-0.6,4.7c0,5,2.1,9.4,6.2,13.2c3.5,3.1,7.8,5.2,12.9,6.3c5.1,1.1,10.4,1.7,15.8,1.7c5.9,0,11.6-0.7,16.9-2.2
				c5.3-1.5,9.7-3.9,13-7.4c4-4.3,6.1-9.4,6.1-15.4c0-6.6-2.2-11.9-6.5-15.8c-2.7-2.4-5.7-4.1-9.2-5.1c-3.5-1-8-1.5-13.8-1.6
				l-10.7-0.1c-2.2,0-3.3-0.6-3.3-1.7c0-1.1,0.7-2.1,2-3c1.3-0.9,3.3-2,5.9-3.1c0.8,0.1,1.3,0.1,1.6,0.1h1.3c4,0,7.8-0.6,11.2-1.7
				c3.4-1.1,6.4-2.6,8.9-4.6c2.5-1.9,4.5-4.3,5.8-7c1.4-2.7,2.1-5.7,2.1-8.9c0-2.5-0.4-4.7-1.1-6.7c-0.7-1.9-1.9-3.8-3.3-5.5
				c0.6,0.1,1.4,0.2,2.3,0.3C867.6,123,868.6,123,869.6,123z M836.2,143.9c-3.5,0-6.3-0.8-8.4-2.5c-2.2-1.6-3.3-4.4-3.3-8.1
				c0-3.5,1-6.2,3.1-8.1c2.1-1.9,5-2.9,8.7-2.9c3.8,0,6.7,1,8.8,2.9c2.1,1.9,3.2,4.6,3.2,8.1C848.4,140.4,844.3,143.9,836.2,143.9z
				 M940,152.6c3.5,0,3-4.5,3-4.5c0-7.8-0.8-14.3-2.4-19.5c-1.6-5.2-4.2-9.5-7.6-13c-2.5-2.5-5.6-4.4-9.5-5.8c-3.9-1.4-8-2-12.4-2
				c-5,0-9.5,0.8-13.3,2.5c-3.9,1.6-7.4,4.2-10.5,7.5c-3.4,3.7-5.8,7.8-7.3,12.5c-1.5,4.6-2.2,10.3-2.2,17c0,5.8,0.8,11.1,2.5,15.8
				c1.7,4.7,4.1,8.8,7.2,12.1c3.1,3.3,6.9,5.9,11.3,7.8c4.4,1.8,9.4,2.8,14.8,2.8c9.8,0,18.7-3,26.9-9c1.2-0.8,1.4-2,0.5-3.1
				c-1.3-2-3.6-5.4-5-7.6c-1.2-2-2.5-1.5-3.5-0.7c-5.5,3.9-11.3,5.9-17.3,5.9c-5.1,0-9.1-1.5-11.8-4.6c-2.8-3.1-4.1-7.5-4.1-13.4
				v-0.6C899.2,152.6,930.1,152.6,940,152.6z M899.5,138.1c0-5.2,1-9.2,3.1-12c2.1-2.8,5-4.1,8.7-4.1c3.9,0,6.8,1.5,8.7,4.4
				c0.9,1.4,1.5,2.9,1.9,4.5c0.3,1.6,0.5,3.9,0.5,6.7v0.9h-23V138.1z M603.4,128.6c-1.6-5.2-4.2-9.5-7.6-13
				c-2.5-2.5-5.6-4.4-9.5-5.8c-3.9-1.4-8-2-12.4-2c-5,0-9.5,0.8-13.3,2.5c-3.9,1.6-7.4,4.2-10.5,7.5c-3.4,3.7-5.8,7.8-7.3,12.5
				c-1.5,4.6-2.2,10.3-2.2,17c0,5.8,0.8,11.1,2.5,15.8c1.7,4.7,4.1,8.8,7.2,12.1c3.1,3.3,6.9,5.9,11.3,7.8c4.4,1.8,9.4,2.8,14.8,2.8
				c9.8,0,18.7-3,26.9-9c1.2-0.8,1.4-2,0.5-3.1c-1.3-2-3.6-5.4-5-7.6c-1.2-2-2.5-1.5-3.5-0.7c-5.5,3.9-11.3,5.9-17.3,5.9
				c-5.1,0-9.1-1.5-11.8-4.6c-2.8-3.1-4.1-7.5-4.1-13.4v-0.6c0,0,30.9,0,40.8,0c3.5,0,3-4.5,3-4.5
				C605.9,140.3,605.1,133.8,603.4,128.6z M585.3,138.4h-23v-0.3c0-5.2,1-9.2,3.1-12c2.1-2.8,5-4.1,8.7-4.1c3.9,0,6.8,1.5,8.7,4.4
				c0.9,1.4,1.5,2.9,1.9,4.5c0.3,1.6,0.5,3.9,0.5,6.7V138.4z M175.2,60.2c36.9,2.2,66.1,34.8,66.1,72.2c0,37.4-29.2,70.1-66.1,72.2
				c53.4,4.7,86.4-32.6,86.4-72.2C261.6,92.9,228.7,55.6,175.2,60.2z M89.4,132.5c0-37.4,29.2-70.1,66.1-72.2
				c-52.8-4.9-86.4,32.6-86.4,72.2c0,39.6,34.4,77.8,86.4,72.2C118.6,202.5,89.4,169.9,89.4,132.5z M235.6,132.5
				c-0.4-38.8-31.5-70.3-70.3-70.3c-38.8,0-70.2,31.5-70.2,70.3c0,33.9,24,62.2,55.8,68.6c10.6,2.1,12.1-24.9,9.2-42.9
				c-0.1,0-3.2-0.2-4.3-0.2c-2.2-0.1-4.2,2.4-5.6,2.9c-2.3,0.8-2.7-1.4-4.3-1.4c-1.4,0-3.4,2.2-8.7,1.2c-5.4-1-7.1-5.9-7.1-5.9
				l-1.6-0.8c-5.5-1.4-5.8-7.3-5.8-7.7c-0.3-2.9,4.8-5.1,3.4-6c-6.2-3.9-4.2-7-4.1-7.2c0.8-2.1,3.8-6.6,2.7-7.3
				c-3-1.9,2-13.2,6.3-16.3c0.7-3.6,4.5-9.4,8.2-10.6c-0.2-4,5.5-6.3,5.5-6.3c4-1.3,1.2-4.5,8.8-4c1.8,0.1,1.7-1.9,6.1-2
				c1.3,0,2.7-1,6.6-1c6.8-0.3,6.5,4.3,8.8,3.5c2.9-1,12.5,3.7,13.5,13.5c4.3-0.3,15.7,12.2,15.4,21.4c7.5,8.4-2.7,16.3-3.1,17.9
				c0.3,0.9,1.8,4.7,1.2,7.6c-0.7,3.5-5.1,7.2-5.3,7.4c-3.1,2.2-5.3,4.7-9,4c-3.8-0.7-3.1-4.2-4.2-5c-2.4,2.2-6.1,4-10.7,3.6
				c-0.6-0.1-2.6-0.3-2.8-0.3c-2.2,13.2-1.9,42.7,7.4,42.7C205.5,197.4,236,170.2,235.6,132.5z"/>
		</g>
	</g>
</g>
</svg>
