<svg xmlns:xlink="http://www.w3.org/1999/xlink"
    xmlns="http://www.w3.org/2000/svg" fill="none" class="Header__BlockchainLogo-ra9ecu-7 jPvoRr" viewBox="0.0004578160587698221 -0.0003824845771305263 24.000083923339844 23.751384735107422">
    <g fill="none">
        <path d="M2.054 8.722.959 9.817a3.12 3.12 0 0 0 0 4.5l8.821 8.909c.21.214.452.391.72.525V12.952l-8.446-4.23z" fill="#3D89F5"></path>
        <path d="m21.947 8.722 1.095 1.095a3.12 3.12 0 0 1 0 4.5l-8.822 8.909c-.21.214-.452.391-.72.525V12.952l8.447-4.23z" fill="#1656B9"></path>
        <path d="M19.828 6.487 14.308.952a3.134 3.134 0 0 0-4.5 0L4.273 6.487l7.755 3.87 7.8-3.87z" fill="#85B5F8"></path>
    </g>
</svg>