<svg clip-rule="evenodd" fill-rule="evenodd" stroke-linejoin="round" stroke-miterlimit="2" version="1.1" viewBox="4.0234e-5 178.47 500 143.05" xml:space="preserve" xmlns="http://www.w3.org/2000/svg">
    <g transform="matrix(.83326 0 0 .83326 -18.206 -17.134)">
        <path d="m147.9 265.2c0 4-3.2 7.2-7.2 7.1-1.9 0-3.7-0.8-5.1-2.1-27.9-28.1-73.3-28.2-101.4-0.2-2.8 2.8-7.3 2.9-10.1 0.1-1.4-1.4-2.2-3.3-2.2-5.2s0.8-3.8 2.2-5.1c33.7-33.5 88.1-33.4 121.6 0.3 1.4 1.3 2.2 3.1 2.2 5.1zm-2.5 106c-2.8-2.6-7.2-2.5-9.9 0.2-28 28-73.3 27.9-101.3 0l-0.1-0.1c-2.8-2.8-7.3-2.9-10.1-0.1s-2.9 7.3-0.1 10.1c33.6 33.5 87.9 33.5 121.5 0 2.7-2.9 2.7-7.4-0.2-10.1l-0.1-0.1 0.3 0.1z" fill="url(#a)" fill-rule="nonzero"/>
    </g>
    <g transform="matrix(.83326 0 0 .83326 -18.206 -17.134)">
        <path d="m582.5 306.4h39.4v-14.3h-39.4c-9.9 0.3-17.7 8.6-17.3 18.5 0.3 9.4 7.9 17 17.3 17.3h21.5c2 0 3.6 1.6 3.6 3.6s-1.6 3.6-3.6 3.6h-39.4v14.3h39.4c9.9 0 17.9-8 17.9-17.9s-8-17.9-17.9-17.9h-21.5c-2-0.1-3.5-1.9-3.3-3.9 0.1-1.7 1.5-3.1 3.3-3.3zm-294.1 14.4c0-15.8-12.8-28.7-28.7-28.7h-2.9c-15.8 0-28.7 12.8-28.7 28.7 0 15.8 12.8 28.7 28.7 28.7h2.9c15.9-0.1 28.7-12.9 28.7-28.7zm-28.6 14.3h-2.9c-7.9 0-14.3-6.4-14.3-14.3s6.4-14.3 14.3-14.3h2.9c7.9 0 14.3 6.4 14.3 14.3s-6.4 14.3-14.3 14.3zm-57.4 0h-28.7c-7.9 0-14.3-6.4-14.3-14.3s6.4-14.3 14.3-14.3h28.7v-14.3h-28.7c-15.8 0-28.7 12.8-28.7 28.7 0 15.8 12.8 28.7 28.7 28.7h28.7v-14.5zm-93.2 0h-28.6c-7.9 0-14.3-6.4-14.3-14.3s6.4-14.3 14.3-14.3h28.7l10-14.3h-38.7c-15.8 0-28.7 12.8-28.7 28.7 0 15.8 12.8 28.7 28.7 28.7h38.7l-10.1-14.5zm-2.8-21.4h-21.5c-4 0.2-7 3.6-6.8 7.5 0.2 3.7 3.1 6.6 6.8 6.8h21.5c4-0.2 7-3.6 6.8-7.5-0.2-3.7-3.2-6.7-6.8-6.8zm432.4 21.4h-28.7c-7.9 0-14.3-6.4-14.3-14.3s6.4-14.3 14.3-14.3h28.7v-14.3h-28.7c-15.8 0-28.7 12.8-28.7 28.7 0 15.8 12.8 28.7 28.7 28.7h28.7v-14.5zm-190.2-14.6-5.8 16-5.8-16-10.4-28.4h-15.3l17.1 47.1 0.2 0.6c3 7.7 11.7 11.6 19.5 8.6 3.8-1.5 6.9-4.5 8.5-8.3l0.5-1.2 17-46.8h-15.3l-10.2 28.4zm72.7 0.5 5.8-16 5.8 16 10.5 28.4h15.3l-17.2-47.1-0.2-0.6c-2.3-5.8-7.8-9.6-14-9.6-1.5 0-3 0.2-4.5 0.7-4.3 1.3-7.7 4.5-9.4 8.7l-0.4 1.2-17.1 46.8h15.3l10.1-28.5z" fill="#1c394f" fill-rule="nonzero"/>
    </g>
    <defs>
        <linearGradient id="a" x2="1" gradientTransform="matrix(121.59 -121.61 121.61 121.59 23.956 381.42)" gradientUnits="userSpaceOnUse"><stop stop-color="#197fc4" offset="0"/><stop stop-color="#08285a" offset="1"/></linearGradient>
    </defs>
</svg>
