<svg clip-rule="evenodd" fill-rule="evenodd" stroke-linejoin="round" stroke-miterlimit="2" version="1.1" viewBox="66.442 .0043319 367.12 500" xml:space="preserve" xmlns="http://www.w3.org/2000/svg">
    <g transform="matrix(2.9125 0 0 2.9125 2.8063 -683.7)">
        <path d="m147.9 265.2c0 4-3.2 7.2-7.2 7.1-1.9 0-3.7-0.8-5.1-2.1-27.9-28.1-73.3-28.2-101.4-0.2-2.8 2.8-7.3 2.9-10.1 0.1-1.4-1.4-2.2-3.3-2.2-5.2s0.8-3.8 2.2-5.1c33.7-33.5 88.1-33.4 121.6 0.3 1.4 1.3 2.2 3.1 2.2 5.1zm-2.5 106c-2.8-2.6-7.2-2.5-9.9 0.2-28 28-73.3 27.9-101.3 0l-0.1-0.1c-2.8-2.8-7.3-2.9-10.1-0.1s-2.9 7.3-0.1 10.1c33.6 33.5 87.9 33.5 121.5 0 2.7-2.9 2.7-7.4-0.2-10.1l-0.1-0.1 0.3 0.1z" fill="url(#a)" fill-rule="nonzero"/>
    </g>
    <g transform="matrix(2.9125 0 0 2.9125 2.8063 -683.7)">
        <path d="m109.2 335.1h-28.6c-7.9 0-14.3-6.4-14.3-14.3s6.4-14.3 14.3-14.3h28.7l10-14.3h-38.7c-15.8 0-28.7 12.8-28.7 28.7 0 15.8 12.8 28.7 28.7 28.7h38.7l-10.1-14.5zm-2.8-21.4h-21.5c-4 0.2-7 3.6-6.8 7.5 0.2 3.7 3.1 6.6 6.8 6.8h21.5c4-0.2 7-3.6 6.8-7.5-0.2-3.7-3.2-6.7-6.8-6.8z" fill="#1c394f" fill-rule="nonzero"/>
    </g>
    <defs>
        <linearGradient id="a" x2="1" gradientTransform="matrix(121.59 -121.61 121.61 121.59 28572 28925)" gradientUnits="userSpaceOnUse"><stop stop-color="#197fc4" offset="0"/><stop stop-color="#08285a" offset="1"/></linearGradient>
    </defs>
</svg>
