<svg version="1.1" id="svg2" xmlns="http://www.w3.org/2000/svg" x="0" y="0" viewBox="0 0 1000 211.2" style="enable-background:new 0 0 1000 211.2" xml:space="preserve"><style>.st0{fill:#ff1a24}.st0,.st1{fill-rule:evenodd;clip-rule:evenodd}</style><g id="g2585" transform="matrix(1.52429 0 0 1.52429 -39.83 -26.596)">
 <path id="path4" class="st0" d="M37.4 17.4c6.4 0 11.3 4.9 11.3 11.3v116c0 5.9-4.9 11.3-11.3 11.3s-11.3-5.4-11.3-11.3v-116c0-6.4 4.9-11.3 11.3-11.3z"/>
 <path id="path6" class="st0" d="M82.4 17.4c6.4 0 11.3 4.9 11.3 11.3v116c0 5.9-4.9 11.3-11.3 11.3-5.9 0-11.3-5.4-11.3-11.3v-116c.1-6.4 5.5-11.3 11.3-11.3z"/>
 <path id="path8" class="st1" d="M663.6 59.1v-8.8h4.4v-2h-10.8v2h3.9v8.8h2.5zm14.7-9.8-2.9 7.3c0 .5 0 .5-.5 0l-2.4-7.3s-.5 0-.5-.5c-.5-.5-1.5-1-2-.5-1 0-1.5.5-1.5 1.5v9.3h2v-8.3c0-.5.5 0 .5 0l2.4 7.3c.5 1 1 1.5 2 1.5s1-1 1.5-1.5l2.9-7.3s0-.5 0 0v8.3h2.4v-9.3c0-1-1-1.5-2-2-1 0-1.5.5-1.9 1.5z"/>
 <path id="path10" class="st1" d="M588.2 136.4h49c12.7 0 20.1-7.8 19.6-20.6 0-6.9-2-13.2-8.3-17.6-4.9-2.9-10.3-4.4-15.7-5.9l-15.7-4.4c-2.9-1-5.9-1.5-8.3-3.4-1.5-1.5-1.5-2.4-1.5-3.9 0-3.4 1.5-4.9 5.4-4.9h41.1V59.6h-43.6c-10.8 0-20.1 2.9-22.5 15.2-1 7.3-.5 15.2 4.9 20.6 4.4 4.4 9.8 6.4 15.7 8.3l14.2 3.4c3.4 1 6.9 2 10.3 3.4 1 .5 2.4 1 2.9 2 .5 1.5 1 4.4 0 5.9s-2.4 2-4.4 2h-43.1v16z"/>
 <path id="path12" class="st1" d="M517.7 75.7c7.3 0 15.7 1.5 16.2 10.3 0 1.5.5 2.9-1.5 2.9H501c0-3.4.5-6.9 2.9-9.3 3-3.4 8.4-3.9 13.8-3.9zm-5.4 44.6c-4.4-.5-8.3-1.5-10.3-5.9-.5-2.9-1-5.9-1-8.8h40.1c5.9 0 10.3-2.9 12.2-8.3 1.5-2.9 1.5-6.4 1.5-9.8-.5-8.3-2.4-16.2-8.8-21.5-8.3-6.4-18.6-6.9-28.4-6.9-10.8 0-21.5 1-29.9 8.8-7.3 8.3-7.8 19.1-7.8 29.4 0 5.4 0 10.3 1 15.2 1 5.9 2.4 11.3 5.9 15.7 4.4 4.9 9.3 6.9 15.2 7.8 2.9.5 5.4.5 7.8.5h42.6v-16.2h-40.1z"/>
 <path id="path14" class="st1" d="M271.9 103.6v15.2c0 1.5-1.5 1.5-2.9 1.5h-22.5c-4.4 0-5.4-4.4-5.4-8.3 0-3.9.5-7.8 5.9-8.3h24.9v-.1zm-46-44v16.6h38.2c2 0 3.9.5 5.9 2 1.5 2 2 3.9 2 5.9v3.4h-30c-4.4 0-7.8.5-11.8 2.4-7.8 4.9-9.8 12.7-9.8 21.5s1.5 18.6 9.8 23.5c3.9 1.5 7.3 2 11.8 2h34.8c9.8 0 15.2-4.4 15.2-14.2V84.5c0-5.4-1-10.3-3.4-15.2-4.4-6.9-11.3-9.3-19.1-9.8h-43.6v.1z"/><path id="path16" class="st1" d="M150 84V58.6c0-1 0-2.4.5-2.9 1-1 2-1 2.9-1h29.4c6.9 0 11.3 2 12.2 8.8 1 4.4 1 9.3 0 13.7-2 6.4-6.9 6.9-12.2 6.9H150V84zm0 52.9v-34.3h43.1c6.4 0 12.2-1.5 17.1-5.9 4.9-4.9 6.9-11.8 7.8-18.6.5-5.9.5-12.2 0-18.1-.5-4.4-1.5-8.8-3.9-13.2-5.4-8.3-13.7-10.3-23-10.8h-47c-4.9 0-9.8 1.5-13.2 5.4-2.9 3.4-2.9 6.9-2.9 11.3v84.2h22z"/><path id="path18" class="st1" d="M306.7 67.4c-5.9 6.4-7.3 13.7-7.3 21.5v47.5h20.1V93.3c.5-3.9.5-8.3 2.4-11.8 3.4-4.9 8.3-5.9 13.2-5.9h12.7v-16h-16.6c-9.4 0-17.7 1.4-24.5 7.8z"/><path id="polygon20" class="st1" d="M580.8 136.4h-20V35.6h20v100.8z"/><path id="polygon22" class="st1" d="M474.1 136.4h-20.6V36.1h20.6v100.3z"/><path id="polygon24" class="st1" d="M446.2 136.4h-20.1V36.1h20.1v100.3z"/><path id="path26" class="st1" d="M398.2 103.6v14.7c0 2-1 2-2.4 2h-22.5c-4.9-.5-5.4-4.4-5.4-8.3 0-4.4.5-8.3 5.9-8.3h24.4v-.1zm-46-44v16.2h38.2c2.4 0 4.4.5 5.9 2.4 2 1.5 2 3.4 2 5.9V87h-29.4c-4.4 0-8.3.5-11.8 2.9-8.3 4.9-9.8 12.2-10.3 21.1.5 8.8 1.5 18.6 10.3 23.5 3.4 2 7.3 2 11.8 2h34.8c9.8 0 15.2-4.4 15.2-14.2V84.5c-.5-5.4-1-10.8-3.9-15.7-3.9-6.9-11.3-9.3-18.6-9.3h-44.2v.1z"/>
 </g>
</svg>
