<svg version="1.1" id="Layer_1" xmlns="http://www.w3.org/2000/svg" xmlns:xlink="http://www.w3.org/1999/xlink" x="0px" y="0px" viewBox="141.50999450683594 180.49041748046875 328.969970703125 404.27960205078125" style="enable-background:new 0 0 612 792;" xml:space="preserve">
<style type="text/css">
	.st0{fill:#A67CC0;}
	.st1{fill:#6C2497;}
	.st2{fill:#FEFEFE;}
	.st3{fill:#E9DEEF;}
	.st4{fill:#B693CC;}
	.st5{fill:#7C3DA3;}
</style>
<path class="st0" d="M268.72,584.46c-0.01,0.1-0.01,0.21-0.01,0.31c-14.98,0-29.96,0-44.94,0c0.02-0.12,0.05-0.24,0.07-0.36
	C238.8,584.43,253.76,584.44,268.72,584.46z"></path>
<path class="st1" d="M268.72,584.46c-14.96-0.01-29.92-0.03-44.88-0.04c-0.02-9.5-0.04-19.01-0.05-28.51
	c-0.01-7.38-0.05-14.76,0.04-22.14c0.02-1.44-0.4-1.73-1.76-1.73c-26.19,0.04-52.37,0.02-78.56,0.07c-1.58,0-2-0.33-2-1.97
	c0.05-92.54,0.04-185.08,0.01-277.62c0-1.37,0.34-2.64,0.73-3.86c1.28-4.03,2.53-8.07,3.84-12.09c1.71-5.22,3.45-10.43,5.07-15.68
	c2.1-6.76,4.37-13.47,6.41-20.25c1.36-4.52...261.21,522.56z"></path>
<path class="st1" d="M276.08,338.69c0-17.04,0.01-34.08-0.03-51.12c0-1.28,0.25-1.71,1.62-1.7c8.92,0.06,17.84,0.06,26.76,0.01
	c1.22-0.01,1.59,0.27,1.59,1.55c-0.04,34.18-0.04,68.37,0,102.55c0,1.31-0.42,1.54-1.6,1.54c-8.87-0.04-17.74-0.05-26.61,0.01
	c-1.35,0.01-1.78-0.26-1.77-1.72C276.1,372.76,276.08,355.73,276.08,338.69z"></path>
<path class="st1" d="M358.32,391.08c-0.01-0.42-0.04-0.85-0.04-1.27c0-34.14,0-68.28,0-102.43c0-0.37,0.03-0.74,0.04-1.11
	c0.09-0.1,0.18-0.2,0.26-0.31c9.5-0.02,19-0.02,28.51-0.09c1.34-0.01,1.09,0.78,1.09,1.55c0,11.46,0,22.93,0,34.39
	c0,22.61-0.02,45.22,0.04,67.83c0,1.58-0.44,1.9-1.93,1.88c-8.71-0.07-17.42-0.04-26.12-0.04c-0.53,0-1.06-0.05-1.59-0.07
	C358.5,391.31,358.41,391.19,358.32,391.08z"></path>
<path class="st5" d="M358.59,285.97c-0.09,0.1-0.18,0.2-0.26,0.31C358.28,286.06,358.35,285.95,358.59,285.97z"></path>
<path class="st5" d="M358.32,391.08c0.09,0.11,0.17,0.23,0.26,0.34C358.34,391.43,358.28,391.3,358.32,391.08z"></path>
</svg>
