<svg version="1.1" id="Layer_1" xmlns="http://www.w3.org/2000/svg" xmlns:xlink="http://www.w3.org/1999/xlink" x="0px" y="0px"
	 viewBox="0 0 612 792" style="enable-background:new 0 0 612 792;" xml:space="preserve">
<style type="text/css">
	.st0{fill:#A67CC0;}
	.st1{fill:#6C2497;}
	.st2{fill:#FEFEFE;}
	.st3{fill:#E9DEEF;}
	.st4{fill:#B693CC;}
	.st5{fill:#7C3DA3;}
</style>
<path class="st0" d="M268.72,584.46c-0.01,0.1-0.01,0.21-0.01,0.31c-14.98,0-29.96,0-44.94,0c0.02-0.12,0.05-0.24,0.07-0.36
	C238.8,584.43,253.76,584.44,268.72,584.46z"/>
<path class="st1" d="M268.72,584.46c-14.96-0.01-29.92-0.03-44.88-0.04c-0.02-9.5-0.04-19.01-0.05-28.51
	c-0.01-7.38-0.05-14.76,0.04-22.14c0.02-1.44-0.4-1.73-1.76-1.73c-26.19,0.04-52.37,0.02-78.56,0.07c-1.58,0-2-0.33-2-1.97
	c0.05-92.54,0.04-185.08,0.01-277.62c0-1.37,0.34-2.64,0.73-3.86c1.28-4.03,2.53-8.07,3.84-12.09c1.71-5.22,3.45-10.43,5.07-15.68
	c2.1-6.76,4.37-13.47,6.41-20.25c1.36-4.52,2.88-9.02,4.38-13.5c0.64-1.89,1.29-3.78,1.83-5.7c0.2-0.7,0.46-1.01,1.18-0.94
	c0.37,0.03,0.74,0.01,1.11,0.01c100.76,0,201.52,0,302.29,0c2.09,0,2.09,0,2.09,2.09c0,80.7,0,161.4,0.03,242.1
	c0,1.46-0.55,2.44-1.45,3.48c-2.75,3.17-5.39,6.42-8.11,9.62c-2.07,2.45-4.2,4.84-6.28,7.28c-3.47,4.08-6.9,8.18-10.37,12.26
	c-2.66,3.12-5.36,6.2-8.02,9.32c-3.4,3.99-6.76,8.02-10.16,12.02c-2.66,3.12-5.36,6.2-8.02,9.32c-3.4,4-6.75,8.04-10.15,12.03
	c-2.65,3.12-5.36,6.2-8.02,9.32c-3.39,3.99-6.75,8-10.13,11.99c-2.92,3.44-5.87,6.86-8.8,10.31c-0.34,0.4-0.74,0.35-1.15,0.36
	c-0.9,0.02-1.81,0.04-2.71,0.04c-20.66,0-41.32,0.02-61.99-0.04c-1.67,0-2.54,0.8-3.45,1.96c-1.41,1.79-2.92,3.49-4.4,5.23
	c-2.68,3.14-5.39,6.27-8.06,9.42c-2.1,2.48-4.17,4.99-6.26,7.48c-2.73,3.25-5.45,6.51-8.19,9.75c-2.11,2.48-4.28,4.91-6.39,7.39
	c-2.78,3.27-5.52,6.58-8.3,9.86C269.67,583.61,269.17,584.01,268.72,584.46z M261.21,522.56c-0.01,0.15-0.01,0.3-0.02,0.45
	c0.05-0.13,0.1-0.27,0.16-0.4c1.82-1.38,2.98-3.35,4.5-5c2.13-2.32,4.15-4.74,6.19-7.14c3.39-3.99,6.76-8.01,10.15-12
	c2.04-2.4,4.12-4.77,6.15-7.17c2.82-3.31,5.61-6.64,8.42-9.97c2.12-2.52,4.29-5.01,6.34-7.59c1.65-2.07,3.27-3.39,6.35-3.37
	c25.55,0.18,51.09,0.1,76.64,0.1c0.42,0,0.85-0.01,1.27,0c0.62,0.02,1-0.2,1.43-0.73c2.09-2.57,4.27-5.05,6.42-7.56
	c2.05-2.39,4.14-4.76,6.17-7.17c3.25-3.85,6.45-7.73,9.71-11.57c2.76-3.24,5.66-6.36,8.33-9.68c3.65-4.52,7.57-8.82,11.17-13.38
	c2.76-3.49,5.85-6.72,8.8-10.07c0.79-0.9,1.09-1.91,1.09-3.15c-0.03-63.02-0.03-126.03-0.03-189.05c0-0.64-0.03-1.27-0.05-1.91
	c-0.23-1.36-1.29-0.61-1.88-0.61c-80.9-0.04-161.8-0.04-242.7-0.04c-0.48,0-0.96,0-1.43,0.02c-0.44,0.02-0.51,0.28-0.41,0.65
	c-0.03,0.53-0.08,1.06-0.08,1.58c0,83.6,0,167.2-0.04,250.8c0,1.54,0.38,1.91,1.91,1.91c21.08-0.05,42.16-0.04,63.25-0.03
	c2.49,0,2.16-0.28,2.17,2.24C261.2,489.33,261.2,505.95,261.21,522.56z"/>
<path class="st2" d="M440.41,216.2c0.02,0.64,0.05,1.27,0.05,1.91c0,63.02,0,126.03,0.03,189.05c0,1.24-0.3,2.25-1.09,3.15
	c-2.94,3.35-6.03,6.58-8.8,10.07c-3.61,4.56-7.52,8.86-11.17,13.38c-2.67,3.31-5.58,6.43-8.33,9.68c-3.26,3.84-6.46,7.73-9.71,11.57
	c-2.03,2.41-4.12,4.78-6.17,7.17c-2.15,2.51-4.34,5-6.42,7.56c-0.43,0.53-0.82,0.75-1.43,0.73c-0.42-0.01-0.85,0-1.27,0
	c-25.55,0-51.09,0.08-76.64-0.1c-3.08-0.02-4.7,1.3-6.35,3.37c-2.06,2.58-4.22,5.07-6.34,7.59c-2.8,3.33-5.6,6.65-8.42,9.97
	c-2.04,2.4-4.12,4.77-6.15,7.17c-3.39,3.99-6.75,8.01-10.15,12c-2.04,2.4-4.06,4.82-6.19,7.14c-1.52,1.65-2.68,3.62-4.5,5
	c0,0-0.05-0.07-0.05-0.07l-0.09,0.02c0-16.61,0-33.23-0.02-49.84c0-2.52,0.32-2.24-2.17-2.24c-21.08-0.01-42.16-0.02-63.25,0.03
	c-1.53,0-1.91-0.37-1.91-1.91c0.04-83.6,0.04-167.2,0.04-250.8c0-0.53,0.05-1.06,0.08-1.58c0.74-0.01,1.49-0.03,2.23-0.03
	c72.32,0,144.64,0,216.96,0C422.26,216.19,431.34,216.2,440.41,216.2z M358.59,285.97c-0.23-0.02-0.3,0.09-0.26,0.31
	c-0.01,0.37-0.04,0.74-0.04,1.11c0,34.14,0,68.28,0,102.43c0,0.42,0.03,0.85,0.04,1.27c-0.04,0.22,0.01,0.35,0.26,0.34
	c0.53,0.02,1.06,0.07,1.59,0.07c8.71,0,17.42-0.03,26.12,0.04c1.5,0.01,1.94-0.31,1.93-1.88c-0.06-22.61-0.04-45.22-0.04-67.83
	c0-11.46,0-22.93,0-34.39c0-0.77,0.24-1.56-1.09-1.55C377.59,285.95,368.09,285.95,358.59,285.97z M276.08,338.69
	c0,17.04,0.02,34.08-0.04,51.12c-0.01,1.46,0.42,1.73,1.77,1.72c8.87-0.06,17.74-0.05,26.61-0.01c1.19,0.01,1.61-0.23,1.6-1.54
	c-0.04-34.18-0.04-68.37,0-102.55c0-1.29-0.37-1.56-1.59-1.55c-8.92,0.05-17.84,0.06-26.76-0.01c-1.37-0.01-1.63,0.42-1.62,1.7
	C276.1,304.61,276.08,321.65,276.08,338.69z"/>
<path class="st3" d="M440.41,216.2c-9.08,0-18.16-0.01-27.24-0.01c-72.32,0-144.64,0-216.96,0c-0.74,0-1.49,0.02-2.23,0.03
	c-0.1-0.37-0.03-0.63,0.41-0.65c0.48-0.02,0.95-0.02,1.43-0.02c80.9,0,161.8,0,242.7,0.04C439.12,215.59,440.19,214.84,440.41,216.2
	z"/>
<path class="st4" d="M261.21,522.56l0.09-0.02c0,0,0.05,0.07,0.05,0.07c-0.05,0.13-0.1,0.27-0.16,0.4
	C261.2,522.86,261.2,522.71,261.21,522.56z"/>
<path class="st1" d="M276.08,338.69c0-17.04,0.01-34.08-0.03-51.12c0-1.28,0.25-1.71,1.62-1.7c8.92,0.06,17.84,0.06,26.76,0.01
	c1.22-0.01,1.59,0.27,1.59,1.55c-0.04,34.18-0.04,68.37,0,102.55c0,1.31-0.42,1.54-1.6,1.54c-8.87-0.04-17.74-0.05-26.61,0.01
	c-1.35,0.01-1.78-0.26-1.77-1.72C276.1,372.76,276.08,355.73,276.08,338.69z"/>
<path class="st1" d="M358.32,391.08c-0.01-0.42-0.04-0.85-0.04-1.27c0-34.14,0-68.28,0-102.43c0-0.37,0.03-0.74,0.04-1.11
	c0.09-0.1,0.18-0.2,0.26-0.31c9.5-0.02,19-0.02,28.51-0.09c1.34-0.01,1.09,0.78,1.09,1.55c0,11.46,0,22.93,0,34.39
	c0,22.61-0.02,45.22,0.04,67.83c0,1.58-0.44,1.9-1.93,1.88c-8.71-0.07-17.42-0.04-26.12-0.04c-0.53,0-1.06-0.05-1.59-0.07
	C358.5,391.31,358.41,391.19,358.32,391.08z"/>
<path class="st5" d="M358.59,285.97c-0.09,0.1-0.18,0.2-0.26,0.31C358.28,286.06,358.35,285.95,358.59,285.97z"/>
<path class="st5" d="M358.32,391.08c0.09,0.11,0.17,0.23,0.26,0.34C358.34,391.43,358.28,391.3,358.32,391.08z"/>
</svg>
