<svg version="1.1" viewBox="9.14 141.8 573.65 573.65" xmlns="http://www.w3.org/2000/svg">
 <style type="text/css">.st0{fill-rule:evenodd;clip-rule:evenodd;fill:#404F54;}
.st1{fill-rule:evenodd;clip-rule:evenodd;fill:#E5E5E5;}
.st2{fill-rule:evenodd;clip-rule:evenodd;fill:#CCCCCC;}
.st3{fill-rule:evenodd;clip-rule:evenodd;fill:#37BEFF;}</style>
 <polygon class="st3" points="582.79 549.77 295.96 384.1 295.96 207.27 582.79 372.95"/>
 <polygon class="st0" points="9.14 549.77 295.96 384.1 295.96 207.27 9.14 372.95"/>
 <path class="st2" d="m295.96 141.8c109.56 0 198.41 88.85 198.41 198.41s-88.85 198.41-198.41 198.41-198.41-88.85-198.41-198.41 88.85-198.41 198.41-198.41"/>
 <path class="st1" d="m295.96 141.8c109.6 0 198.48 88.85 198.48 198.41s-88.88 198.41-198.48 198.41c-62.91-42.34-88.94-127.64-88.94-198.3s26.03-156.1 88.94-198.52"/>
 <polygon class="st3" points="582.79 372.95 295.96 538.62 295.96 715.45 582.79 549.77"/>
 <polygon class="st0" points="9.14 372.95 295.96 538.62 295.96 715.45 9.14 549.77"/>
</svg>
