<svg version="1.1" id="Layer_1" xmlns="http://www.w3.org/2000/svg" xmlns:xlink="http://www.w3.org/1999/xlink" x="0px" y="0px" style="enable-background:new 0 0 60 60;" xml:space="preserve" viewBox="4.90 5.10 50.00 50.00">
<style type="text/css">
	.st0{fill:#991B1E;}
	.st1{fill:#FFFFFF;}
</style>
<g>
	<g>
		<g>
			<path class="st0" d="M21.2,21.2l12.3,5.3l12.3-14.3L21.2,21.2L21.2,21.2z"></path>
			<path class="st0" d="M16.8,35.6L6.7,39.3c0.4,1,0.8,1.9,1.3,2.9l8.8-3.2V35.6z"></path>
			<path class="st0" d="M16.8,20.5c0-0.6,0.5-1.3,1.1-1.5L44,9.5c-4-2.8-8.9-4.4-14.1-4.4C16.2,5.1,5,16.2,4.9,29.9l8.5-3.1
				c0.6-0.2,1.1,0.1,1.1,0.7v1.1c0,0.6-0.5,1.3-1.1,1.5l-8.3,3c0.1,1.1,0.3,2.1,0.6,3.1l11.1-4V20.5z"></path>
			<path class="st0" d="M50.3,15.7v19.4c0,0.6-0.5,1.3-1.1,1.5L17.9,48.1c-0.6,0.2-1.1-0.1-1.1-0.7v-5l-7,2.5
				c4.5,6.2,11.9,10.2,20.1,10.2c13.8,0,25-11.2,25-25C54.9,24.8,53.2,19.8,50.3,15.7z"></path>
			<path class="st0" d="M31.3,37.1l-11.2,4.1v1.7c0,0.6,0.5,0.9,1.1,0.7l24.6-9c0.6-0.2,1.1-0.9,1.1-1.5V15L34.4,29.3
				c-0.5,0.5-1.3,0.8-1.7,0.6l-12.5-5.1V31l2.2-0.8c0.6-0.2,1.1,0.1,1.1,0.7V32c0,0.6-0.5,1.3-1.1,1.5l-2.2,0.8v3.4l11.2-4.1
				c0.6-0.2,1.1,0.1,1.1,0.7v1.1C32.5,36.1,32,36.8,31.3,37.1z"></path>
		</g>
		<g>
			<path class="st1" d="M14.6,28.6v-1.1c0-0.6-0.5-0.9-1.1-0.7L5,29.9c0,0.1,0,0.2,0,0.2c0,1,0.1,2.1,0.2,3.1l8.3-3
				C14.1,29.9,14.6,29.2,14.6,28.6z"></path>
			<path class="st1" d="M44.1,9.5L17.9,19c-0.6,0.2-1.1,0.9-1.1,1.5v11.7l-11.1,4c0.3,1,0.6,2,1,3l10.1-3.7V39L8,42.2
				c0.5,0.9,1.1,1.8,1.8,2.7l7-2.5v5c0,0.6,0.5,0.9,1.1,0.7l31.3-11.4c0.6-0.2,1.1-0.9,1.1-1.5V15.7C48.6,13.3,46.5,11.2,44.1,9.5z
				 M21.3,21.1l24.6-8.9L33.5,26.5L21.3,21.1C21.2,21.2,21.2,21.2,21.3,21.1z M47,33c0,0.6-0.5,1.3-1.1,1.5l-24.6,9
				c-0.6,0.2-1.1-0.1-1.1-0.7v-1.7L31.4,37c0.6-0.2,1.1-0.9,1.1-1.5v-1.1c0-0.6-0.5-0.9-1.1-0.7l-11.2,4.1v-3.4l2.2-0.8
				c0.6-0.2,1.1-0.9,1.1-1.5V31c0-0.6-0.5-0.9-1.1-0.7l-2.2,0.8v-6.2L32.7,30c0.5,0.2,1.3-0.1,1.7-0.6L47,15V33z"></path>
		</g>
	</g>
</g>
</svg>
