<svg xmlns:dc="http://purl.org/dc/elements/1.1/" xmlns:cc="http://creativecommons.org/ns#" xmlns:rdf="http://www.w3.org/1999/02/22-rdf-syntax-ns#" xmlns:svg="http://www.w3.org/2000/svg" xmlns="http://www.w3.org/2000/svg" xmlns:xlink="http://www.w3.org/1999/xlink" version="1.1" id="svg2" viewBox="0 0 414.65349 204.77715">
  <defs id="defs4">
    <clipPath id="clipPath20" clipPathUnits="userSpaceOnUse">
      <path id="path18" d="M 84.7617,710.492 C -60.9023,479.84 -14.1758,188.852 189.203,60.4062 392.484,-67.9414 675.383,14.9297 821.039,245.648 966.637,476.273 990.941,879.887 787.621,1008.25 584.312,1136.64 230.348,941.117 84.7617,710.492"/>
    </clipPath>
    <radialGradient id="radialGradient30" spreadMethod="pad" gradientTransform="matrix(496.796,4.27244,4.27244,-496.796,467.759,524.077)" gradientUnits="userSpaceOnUse" r="1" cy="0" cx="0" fy="0" fx="0">
      <stop id="stop22" offset="0" style="stop-opacity:1;stop-color:#ffffff"/>
      <stop id="stop24" offset="0.270833" style="stop-opacity:1;stop-color:#ffffff"/>
      <stop id="stop26" offset="0.64902216" style="stop-opacity:1;stop-color:#ffffff"/>
      <stop id="stop28" offset="1" style="stop-opacity:1;stop-color:#d6d7dd"/>
    </radialGradient>
    <clipPath id="clipPath40" clipPathUnits="userSpaceOnUse">
      <path id="path38" d="m 0,0 2570,0 0,1055.6 -2570,0 z"/>
    </clipPath>
    <clipPath id="clipPath50" clipPathUnits="userSpaceOnUse">
      <path id="path48" d="m 1167.14,1011.51 c -51.41,32.46 -112.47,44.2 -177.359,39.9 C 798.09,1038.73 573.051,886.012 464.273,713.734 318.578,483.109 365.348,192.094 568.695,63.6289 628.297,26.0312 694.742,6.67188 762.535,3.82031 926.078,-3.23047 1097.57,85.8633 1200.53,248.883 c 145.63,230.664 169.93,634.285 -33.39,762.627"/>
    </clipPath>
    <radialGradient id="radialGradient58" spreadMethod="pad" gradientTransform="matrix(496.749,4.27204,4.27204,-496.749,847.266,527.407)" gradientUnits="userSpaceOnUse" r="1" cy="0" cx="0" fy="0" fx="0">
      <stop id="stop52" offset="0" style="stop-opacity:1;stop-color:#f7ed1a"/>
      <stop id="stop54" offset="0.19" style="stop-opacity:1;stop-color:#f7ed1a"/>
      <stop id="stop56" offset="1" style="stop-opacity:1;stop-color:#ef7c29"/>
    </radialGradient>
    <clipPath id="clipPath68" clipPathUnits="userSpaceOnUse">
      <path id="path66" d="m 0,0 0,1056 2570,0 0,-1056 z"/>
    </clipPath>
    <clipPath id="clipPath78" clipPathUnits="userSpaceOnUse">
      <path id="path76" d="m 1558.6,1014.82 c -51.38,32.49 -112.46,44.25 -177.28,39.92 C 1189.67,1042.07 964.613,889.379 855.781,717.074 710.121,486.422 756.875,195.387 960.227,67.0078 1019.83,29.3594 1086.27,10.0312 1154.1,7.10156 1317.59,0.128906 1489.05,89.2539 1592.02,252.25 c 145.61,230.598 169.92,634.277 -33.42,762.57"/>
    </clipPath>
    <radialGradient id="radialGradient88" spreadMethod="pad" gradientTransform="matrix(496.746,4.27201,4.27201,-496.746,1238.77,530.712)" gradientUnits="userSpaceOnUse" r="1" cy="0" cx="0" fy="0" fx="0">
      <stop id="stop80" offset="0" style="stop-opacity:1;stop-color:#ffffff"/>
      <stop id="stop82" offset="0.270833" style="stop-opacity:1;stop-color:#ffffff"/>
      <stop id="stop84" offset="0.64902216" style="stop-opacity:1;stop-color:#ffffff"/>
      <stop id="stop86" offset="1" style="stop-opacity:1;stop-color:#d6d7dd"/>
    </radialGradient>
    <clipPath id="clipPath98" clipPathUnits="userSpaceOnUse">
      <path id="path96" d="m 0,0 0,1056 2570,0 0,-1056 z"/>
    </clipPath>
    <radialGradient r="1" fy="0" fx="0" cy="0" cx="0" spreadMethod="pad" gradientTransform="matrix(708.93509,-6.0968397,6.0968397,708.93509,1240.1617,787.46646)" gradientUnits="userSpaceOnUse" id="radialGradient4600" xlink:href="#radialGradient58"/>
    <radialGradient r="1" fy="0" fx="0" cy="0" cx="0" spreadMethod="pad" gradientTransform="matrix(709.00216,-6.0974106,6.0974106,709.00216,702.58912,792.21887)" gradientUnits="userSpaceOnUse" id="radialGradient4611" xlink:href="#radialGradient30"/>
    <radialGradient r="1" fy="0" fx="0" cy="0" cx="0" spreadMethod="pad" gradientTransform="matrix(708.93081,-6.0967969,6.0967969,708.93081,1802.9371,782.74973)" gradientUnits="userSpaceOnUse" id="radialGradient4632" xlink:href="#radialGradient88"/>
    <radialGradient r="1" fy="0" fx="0" cy="0" cx="0" spreadMethod="pad" gradientTransform="matrix(496.796,4.27244,4.27244,-496.796,467.759,524.077)" gradientUnits="userSpaceOnUse" id="radialGradient4687" xlink:href="#radialGradient30"/>
    <radialGradient r="1" fy="0" fx="0" cy="0" cx="0" spreadMethod="pad" gradientTransform="matrix(496.749,4.27204,4.27204,-496.749,847.266,527.407)" gradientUnits="userSpaceOnUse" id="radialGradient4689" xlink:href="#radialGradient58"/>
    <radialGradient r="1" fy="0" fx="0" cy="0" cx="0" spreadMethod="pad" gradientTransform="matrix(496.746,4.27201,4.27201,-496.746,1238.77,530.712)" gradientUnits="userSpaceOnUse" id="radialGradient4691" xlink:href="#radialGradient88"/>
  </defs>
  <metadata id="metadata7">
    <rdf:RDF>
      <cc:Work rdf:about="">
        <dc:format>image/svg+xml</dc:format>
        <dc:type rdf:resource="http://purl.org/dc/dcmitype/StillImage"/>
        <dc:title/>
      </cc:Work>
    </rdf:RDF>
  </metadata>
  <g style="display:none" transform="translate(1215.1765,-1422.0469)" id="layer1">
    
  </g>
  <g transform="translate(-33.024334,-1337.6177)" style="display:none;opacity:1" id="layer4">
    <g id="g14" style="display:inline;opacity:1" transform="matrix(0.19020245,0,0,-0.19020245,35.024702,1540.396)">
      <g id="g16" clip-path="url(#clipPath20)">
        <path d="M 84.7617,710.492 C -60.9023,479.84 -14.1758,188.852 189.203,60.4062 392.484,-67.9414 675.383,14.9297 821.039,245.648 966.637,476.273 990.941,879.887 787.621,1008.25 584.312,1136.64 230.348,941.117 84.7617,710.492" style="fill:url(#radialGradient4687);fill-opacity:1;fill-rule:nonzero;stroke:none" id="path32"/>
      </g>
    </g>
    <g id="g44" style="display:inline;opacity:1" transform="matrix(0.19020245,0,0,-0.19020245,34.486193,1540.396)">
      <g id="g46" clip-path="url(#clipPath50)">
        <path d="m 1167.14,1011.51 c -51.41,32.46 -112.47,44.2 -177.359,39.9 C 798.09,1038.73 573.051,886.012 464.273,713.734 318.578,483.109 365.348,192.094 568.695,63.6289 628.297,26.0312 694.742,6.67188 762.535,3.82031 926.078,-3.23047 1097.57,85.8633 1200.53,248.883 c 145.63,230.664 169.93,634.285 -33.39,762.627" style="fill:url(#radialGradient4689);fill-opacity:1;fill-rule:nonzero;stroke:none" id="path60"/>
      </g>
    </g>
    <g transform="matrix(0.19020245,0,0,-0.19020245,35.024702,1540.396)" style="display:inline;opacity:1" id="g4385">
      <g clip-path="url(#clipPath78)" id="g4387">
        <path id="path4389" style="fill:url(#radialGradient4691);fill-opacity:1;fill-rule:nonzero;stroke:none" d="m 1558.6,1014.82 c -51.38,32.49 -112.46,44.25 -177.28,39.92 C 1189.67,1042.07 964.613,889.379 855.781,717.074 710.121,486.422 756.875,195.387 960.227,67.0078 1019.83,29.3594 1086.27,10.0312 1154.1,7.10156 1317.59,0.128906 1489.05,89.2539 1592.02,252.25 c 145.61,230.598 169.92,634.277 -33.42,762.57"/>
      </g>
    </g>
    <g transform="matrix(0.19020245,0,0,-0.19020245,35.563212,1540.396)" id="g34">
      <g clip-path="url(#clipPath40)" id="g36">
        <path id="path42" style="fill:#ffffff;fill-opacity:1;fill-rule:nonzero;stroke:none" d="M 464.273,713.734 C 573.051,886.012 798.09,1038.73 989.781,1051.41 789.867,1061.64 537.949,898.871 420.816,713.363 275.23,482.711 321.91,191.734 525.258,63.2773 597.582,17.6289 679.879,-1.19922 762.535,3.82031 694.742,6.67188 628.297,26.0312 568.695,63.6289 365.348,192.094 318.578,483.109 464.273,713.734"/>
      </g>
    </g>
    <g transform="matrix(0.19020245,0,0,-0.19020245,35.563212,1540.396)" id="g62">
      <g clip-path="url(#clipPath68)" id="g64">
        <path id="path70" style="fill:#ffffff;fill-opacity:1;fill-rule:nonzero;stroke:none" d="M 855.781,717.074 C 964.613,889.379 1189.67,1042.07 1381.32,1054.74 1181.4,1064.95 929.48,902.25 812.359,716.742 666.734,486.039 713.461,195.074 916.773,66.6367 989.059,20.9688 1071.42,2.19922 1154.1,7.10156 1086.27,10.0312 1019.83,29.3594 960.227,67.0078 756.875,195.387 710.121,486.422 855.781,717.074"/>
      </g>
    </g>
    <g id="g92" transform="matrix(1.4271495,0,0,-1.4271495,-39.724188,1536.9408)"/>
    <g transform="matrix(0.13327437,0,0,0.13327437,30.356488,1335.1328)" id="g4456">
      <g transform="matrix(1.4271495,0,0,-1.4271495,-1.3383912,1536.9408)" style="display:inline;opacity:1;fill:#002d6a;fill-opacity:1" clip-path="url(#clipPath98)" id="g94">
        <path id="path100" style="fill:#002d6a;fill-opacity:1;fill-rule:nonzero;stroke:none" d="m 2117.3484,500.367 35.26,0.281 0.27,-30.918 -35.33,-0.261 -0.2,30.898"/>
        <path id="path102" style="fill:#002d6a;fill-opacity:1;fill-rule:nonzero;stroke:none" d="m 2247.6552,486.637 31.45,-3.137 c -1.74,-6.102 -4.51,-11.348 -8.48,-15.906 -3.89,-4.453 -8.77,-8.008 -14.92,-10.508 -6.15,-2.52 -13.98,-3.801 -23.44,-3.898 -9.12,-0.086 -16.72,0.636 -22.79,2.179 -6.13,1.563 -11.35,4.024 -15.84,7.578 -4.36,3.477 -7.79,7.645 -10.3,12.403 -2.58,4.824 -3.91,11.132 -3.97,19.023 -0.08,8.309 1.39,15.156 4.41,20.691 2.12,4.075 5.17,7.708 9,10.95 3.77,3.222 7.71,5.644 11.76,7.254 6.33,2.539 14.59,3.828 24.63,3.937 14,0.125 24.76,-2.16 32.22,-6.777 7.33,-4.649 12.62,-11.43 15.65,-20.371 l -31.1,-4.102 c -0.99,3.426 -2.77,6.113 -5.35,7.871 -2.58,1.817 -5.95,2.625 -10.31,2.625 -5.33,-0.047 -9.77,-1.98 -13.07,-5.672 -3.3,-3.691 -4.96,-9.242 -4.96,-16.699 0.08,-6.64 1.92,-11.672 5.22,-15.098 3.43,-3.402 7.73,-5.117 12.81,-5.058 4.36,0.066 7.87,1.094 10.84,3.172 2.97,2.051 5.21,5.246 6.54,9.543"/>
        <path id="path104" style="fill:#002d6a;fill-opacity:1;fill-rule:nonzero;stroke:none" d="m 2314.7945,463.727 c 8.65,-6.465 19.69,-9.649 33.63,-9.512 15.51,0.097 27.68,4.187 36.33,12.09 8.71,8.023 13.07,18.183 12.93,30.507 -0.14,11.024 -3.69,20.254 -10.9,27.735 -8.85,9.187 -21.91,13.777 -39.16,13.641 -15.06,-0.126 -27.01,-4.2 -35.72,-12.247 -8.87,-8.035 -13.15,-18.171 -13.09,-30.379 0.14,-13.253 5.55,-23.82 15.98,-31.835 z m 21.74,47.91 c 3.1,3.496 6.99,5.293 11.81,5.351 4.5,0.039 8.34,-1.679 11.37,-5.078 3.11,-3.398 4.69,-8.488 4.75,-15.488 0.06,-7.5 -1.45,-12.922 -4.49,-16.289 -2.9,-3.36 -6.8,-5.117 -11.49,-5.207 -4.75,-0.047 -8.51,1.652 -11.7,5.07 -3.03,3.375 -4.69,8.633 -4.74,15.867 -0.14,7.024 1.44,12.278 4.49,15.774"/>
        <path id="path106" style="fill:#002d6a;fill-opacity:1;fill-rule:nonzero;stroke:none" d="m 2420.3343,536.91 30.92,0.293 0.06,-11.699 c 4.49,4.961 8.85,8.484 13.42,10.574 4.47,2.11 9.9,3.195 16.3,3.234 6.86,0.086 12.29,-1.015 16.37,-3.261 4.03,-2.266 7.35,-5.586 9.9,-10.039 5.16,5.273 9.85,8.836 14.01,10.828 4.3,1.914 9.59,2.93 15.92,2.988 9.18,0.078 16.38,-2.441 21.6,-7.488 5.27,-5.117 7.93,-13.012 7.99,-23.969 l 0.46,-50.359 -33.22,-0.301 -0.41,45.73 c 0,3.606 -0.72,6.282 -2.3,8.039 -2.17,2.657 -4.89,4.082 -8.26,4.059 -3.81,0 -6.94,-1.402 -9.24,-4.004 -2.37,-2.644 -3.5,-6.875 -3.44,-12.605 l 0.41,-41.453 -33.22,-0.215 -0.47,44.207 c 0,3.484 -0.2,5.879 -0.67,7.195 -0.72,2.055 -1.99,3.625 -3.69,4.895 -1.72,1.183 -3.83,1.769 -6.07,1.75 -3.77,0 -6.8,-1.387 -9.32,-4.082 -2.3,-2.657 -3.63,-7.122 -3.57,-13.196 l 0.41,-41.004 -33.17,-0.238 -0.72,80.121"/>
        <path id="path108" style="fill:#002d6a;fill-opacity:1;fill-rule:nonzero;stroke:none" d="m 905.52,636.52 -7.926,-24.27 c 8.351,9.68 17.332,17.012 26.875,21.906 9.547,4.852 19.824,7.352 30.843,7.422 13.637,0.098 23.969,-3 30.977,-9.406 7.066,-6.445 10.492,-14.59 10.406,-24.442 -0.097,-9.835 -3.144,-26.261 -9.117,-49.289 l -47.75,-184.765 -80.144,-0.672 47.254,182.684 c 4.75,18.124 6.992,29.191 6.933,33.156 -0.164,3.972 -2.836,5.945 -8.223,5.886 -5.437,-0.085 -9.503,-2.363 -12.187,-6.945 -2.637,-4.558 -6.531,-16.812 -11.688,-36.687 l -46.132,-178.282 -80.106,-0.695 68.219,263.715 81.766,0.684"/>
        <path id="path110" style="fill:#002d6a;fill-opacity:1;fill-rule:nonzero;stroke:none" d="m 1112.86,544.621 5.02,19.399 c 3.57,13.757 5.09,22.605 4.62,26.57 -0.45,4.004 -2.84,5.976 -7.19,5.906 -5.59,-0.027 -9.45,-1.734 -11.59,-5.144 -2.19,-3.438 -5.23,-12.618 -9.09,-27.469 l -5.02,-19.414 z m 69.05,-41.969 -103.33,-0.863 -14.77,-57.047 c -3.09,-11.957 -4.22,-19.648 -3.45,-23.066 0.79,-3.418 3.6,-5.098 8.44,-5.078 5.92,0.039 10.46,2.422 13.74,6.941 3.14,4.621 6.44,13.488 9.85,26.613 l 9.01,34.844 76.09,0.645 -5.02,-19.477 c -4.2,-16.305 -8.49,-28.785 -12.79,-37.574 -4.31,-8.75 -11.49,-18.137 -21.59,-28.145 -10.07,-9.933 -21.5,-17.5 -34.35,-22.578 -12.78,-5.051 -27.93,-7.637 -45.4,-7.765 -16.81,-0.196 -31.01,2.14 -42.73,6.906 -11.72,4.793 -20.044,11.426 -24.997,19.941 -4.961,8.457 -7.527,17.793 -7.687,28.028 -0.149,10.253 2.367,25.175 7.422,44.753 l 19.922,76.848 c 5.94,23.055 13.72,41.207 23.38,54.586 9.67,13.363 22.49,23.645 38.4,30.832 16.02,7.18 33.12,10.859 51.37,11.035 22.43,0.196 39.83,-3.965 52.22,-12.312 12.41,-8.43 19.68,-19.66 21.89,-33.684 2.21,-14.07 0.09,-33.847 -6.54,-59.441 l -9.08,-34.942"/>
        <path id="path112" style="fill:#002d6a;fill-opacity:1;fill-rule:nonzero;stroke:none" d="m 1501.73,641.605 -100.41,-263.945 -86.1,-0.769 c 3.62,32.214 9.15,74.804 16.47,127.879 -8.85,-23.516 -18.26,-47.059 -28.26,-70.633 l -23.08,-57.492 -86.06,-0.79 34.34,263.434 68.41,0.617 c -0.98,-6.836 -8.1,-57.304 -21.52,-151.484 3.84,10.051 23,60.664 57.5,151.769 l 65.27,0.575 -22.62,-151.485 c 14.2,44.59 33.4,95.157 57.52,151.77 l 68.54,0.554"/>
        <path id="path114" style="fill:#002d6a;fill-opacity:1;fill-rule:nonzero;stroke:none" d="m 1601.1584,549.34 5.02,19.394 c 3.5,13.743 5.08,22.618 4.61,26.582 -0.45,3.996 -2.85,5.977 -7.2,5.938 -5.61,-0.059 -9.44,-1.738 -11.63,-5.176 -2.16,-3.437 -5.15,-12.578 -8.96,-27.508 l -5.1,-19.386 z m 69.01,-41.961 -103.3,-0.891 -14.77,-57 c -3.05,-11.992 -4.24,-19.668 -3.44,-23.078 0.78,-3.437 3.56,-5.156 8.44,-5.086 5.88,0.039 10.51,2.332 13.73,6.934 3.18,4.629 6.47,13.515 9.86,26.621 l 9.03,34.832 76.09,0.625 -5.08,-19.453 c -4.18,-16.27 -8.39,-28.797 -12.75,-37.567 -4.36,-8.761 -11.56,-18.125 -21.6,-28.136 -10.1,-9.981 -21.53,-17.539 -34.34,-22.606 -12.81,-5.039 -27.93,-7.636 -45.45,-7.812 -16.83,-0.141 -30.95,2.187 -42.71,7 -11.7,4.785 -20.02,11.386 -24.96,19.883 -4.96,8.515 -7.54,17.824 -7.68,28.066 -0.14,10.242 2.33,25.129 7.4,44.758 l 19.87,76.824 c 5.95,23.027 13.83,41.23 23.45,54.59 9.59,13.379 22.46,23.605 38.38,30.84 15.92,7.207 33.09,10.898 51.37,11.035 22.4,0.195 39.77,-3.906 52.19,-12.324 12.42,-8.457 19.69,-19.61 21.93,-33.672 2.23,-14.102 0.06,-33.875 -6.54,-59.414 l -9.12,-34.969"/>
        <path id="path116" style="fill:#002d6a;fill-opacity:1;fill-rule:nonzero;stroke:none" d="m 1815.8684,575.074 c 3.11,12.047 4.36,19.754 3.75,23.055 -0.59,3.301 -3.22,4.91 -7.85,4.91 -4.71,-0.066 -8.46,-1.98 -11.31,-5.769 -2.95,-3.829 -5.8,-11.309 -8.69,-22.403 l -22.93,-88.758 c -3.11,-11.781 -4.36,-19.414 -3.83,-22.902 0.53,-3.547 3.11,-5.262 7.79,-5.195 5.22,0.027 9.18,2.14 11.96,6.398 2.71,4.293 6.01,13.953 9.9,28.906 z m 98.2,70.633 -52.57,-203.254 c -7.19,-27.476 -12.43,-45.269 -15.79,-53.219 -3.37,-8.046 -10.04,-16.504 -20.07,-25.605 -9.91,-8.977 -22.33,-15.918 -37.19,-20.703 -14.92,-4.848 -32.68,-7.383 -53.3,-7.571 -25.61,-0.183 -44.96,4.016 -58.13,12.532 -13.18,8.609 -16.77,25.652 -10.68,51.148 l 77.73,0.688 c -3.1,-11.907 -0.41,-17.825 8.27,-17.754 5.99,0.039 10.56,1.883 13.53,5.566 2.91,3.668 5.94,11.27 8.91,22.793 l 5.21,20.176 c -8.51,-6.309 -16.89,-11.094 -25.35,-14.367 -8.46,-3.231 -16.84,-4.864 -25.23,-4.981 -14.4,-0.105 -25.55,2.735 -33.36,8.449 -7.8,5.743 -12.21,13.282 -13.27,22.754 -1.11,9.375 0.59,22.852 5.16,40.352 l 24.77,95.633 c 6.52,25 15.64,42.988 27.54,54.094 11.81,11.015 26.95,16.628 45.23,16.804 9.98,0.07 18.57,-1.914 25.76,-5.937 7.27,-4.063 13.01,-10.184 17.5,-18.34 l 10.76,20.078 74.57,0.664"/>
        <path id="path118" style="fill:#002d6a;fill-opacity:1;fill-rule:nonzero;stroke:none" d="m 2026.4784,576.859 c 3.1,12.082 4.35,19.727 3.77,23.079 -0.53,3.339 -3.19,4.929 -7.8,4.89 -4.69,-0.039 -8.45,-1.941 -11.44,-5.781 -2.76,-3.809 -5.67,-11.262 -8.58,-22.363 l -22.99,-88.758 c -3.02,-11.762 -4.27,-19.375 -3.75,-22.949 0.45,-3.497 3.09,-5.207 7.78,-5.168 5.17,0.05 9.12,2.121 11.83,6.437 2.78,4.277 6.08,13.887 9.96,28.875 z m 98.2,70.625 -52.64,-203.25 c -7.07,-27.5 -12.34,-45.199 -15.72,-53.234 -3.36,-7.977 -9.96,-16.512 -20,-25.516 -9.98,-9.043 -22.4,-15.957 -37.25,-20.812 -14.86,-4.813 -32.63,-7.332 -53.3,-7.449 -25.56,-0.266 -44.9,3.925 -58.06,12.48 -13.27,8.613 -16.84,25.606 -10.75,51.152 l 77.72,0.625 c -3.03,-11.894 -0.39,-17.804 8.26,-17.734 6.07,0.066 10.63,1.914 13.54,5.574 2.96,3.684 5.87,11.282 8.92,22.785 l 5.22,20.215 c -8.4,-6.328 -16.92,-11.093 -25.36,-14.355 -8.39,-3.254 -16.77,-4.934 -25.17,-5 -14.47,-0.059 -25.55,2.676 -33.36,8.398 -7.85,5.742 -12.21,13.379 -13.26,22.782 -1.08,9.433 0.66,22.843 5.13,40.343 l 24.71,95.653 c 6.47,24.98 15.72,42.968 27.54,54.062 11.95,11.074 26.95,16.719 45.31,16.836 9.98,0.078 18.56,-1.902 25.76,-5.957 7.19,-4.031 13.01,-10.137 17.43,-18.301 l 10.84,20.078 74.49,0.625"/>
      </g>
      <g id="g4452">
        <path d="m 3717.6622,704.35776 13.0283,0 c 5.7342,0 10.5558,-3.39787 10.4036,-7.61938 -0.195,-5.40648 -3.9306,-9.29372 -8.4772,-9.29372 l -14.9547,0 z m -11.9252,33.6 0,-60.11264 26.544,0 c 5.3311,0 9.3408,0.55105 12.1184,1.62849 2.7551,1.08415 4.9727,2.99263 6.6304,5.72318 1.6351,2.73728 3.1177,6.4513 3.1177,9.77546 0,4.28735 -0.8615,8.00212 -3.5942,10.93425 -2.7327,2.92994 -6.9887,5.03719 -12.7008,5.82567 2.0833,1.01472 2.582,0.93823 3.6349,1.91039 2.3295,2.11679 4.5473,4.78687 6.5631,7.99681 l 10.3265,16.31839 -16.0785,0 c -4.5611,-6.82009 -7.8606,-14.41207 -12.7762,-20.7536 -2.0971,-2.65909 -3.6043,-2.94509 -6.6269,-2.98477 l -5.2332,0 0,23.73837 -11.9252,0" style="display:inline;opacity:1;fill:#002d6a;fill-opacity:1;fill-rule:nonzero;stroke:none" id="path120"/>
        <path d="m 3781.391,708.86078 c 0,28.13807 -22.789,50.89804 -50.9059,50.89804 -28.1434,0 -50.9325,-22.75997 -50.9325,-50.89804 0,-28.12751 22.7891,-50.91914 50.9325,-50.91914 28.1169,0 50.9059,22.79163 50.9059,50.91914 z" style="display:inline;opacity:1;fill:none;fill-opacity:1;stroke:#002d6a;stroke-width:9.89105034;stroke-linecap:butt;stroke-linejoin:miter;stroke-miterlimit:4;stroke-dasharray:none;stroke-opacity:1" id="path122"/>
      </g>
    </g>
  </g>
  <g transform="translate(-33.024334,-1337.6177)" style="display:inline;opacity:1" id="layer6">
    <g transform="matrix(0.13327437,0,0,0.13327437,30.356488,1335.1328)" id="g4668">
      <g id="g4663">
        <path d="M 2259.3823,91.855244 C 2186.0554,45.487157 2098.8851,28.703879 2006.3772,34.883436 1732.864,52.965421 1411.6741,270.8783 1256.3545,516.7833 c -207.8786,329.17489 -141.1536,744.5253 149.0601,927.7417 85.0624,53.7298 179.8822,81.3141 276.6857,85.4951 233.3247,9.951 478.0238,-117.2437 624.9773,-349.8635 207.8073,-329.09778 242.5013,-905.20806 -47.6953,-1088.301356" style="fill:url(#radialGradient4632);fill-opacity:1;fill-rule:nonzero;stroke:none" id="path4497"/>
        <path id="path4491" d="m 1478.0078,38.419922 c -11.3888,0.03869 -22.8793,0.449704 -34.4551,1.216797 C 1169.981,57.732974 848.81669,275.68432 693.57422,521.55078 485.64567,850.68713 552.39304,1266.0088 842.59961,1449.3477 c 85.06096,53.6575 179.88789,81.2858 276.63869,85.3554 97.0225,4.1829 194.8113,-12.7413 287.914,-53.7011 C 944.95995,1239.6393 1054.2036,721.16645 1195.9258,515.75781 1305.522,342.16827 1503.8246,179.07203 1700.1855,98.855469 c -1.1713,-0.759175 -2.3335,-1.529213 -3.5156,-2.275391 -64.1985,-40.534614 -138.9405,-58.43098 -218.6621,-58.160156 z" style="display:inline;opacity:1;fill:url(#radialGradient4600);fill-opacity:1;fill-rule:nonzero;stroke:none"/>
        <path id="path4485" d="M 943.16602,43.033203 C 662.15105,42.477816 318.31712,269.03995 155.99414,526.17773 -51.890165,855.35261 14.796873,1270.636 305.04883,1453.9473 c 166.98908,105.4336 371.62115,110.9835 554.88086,33.9199 -24.35675,-10.789 -48.15396,-23.4463 -71.24024,-38.0176 C 498.48146,1266.5227 431.86179,851.25497 639.63477,522.08008 751.58586,344.77886 949.80926,182.03232 1154.2363,98.25 1091.8669,60.269807 1019.8601,43.184778 943.16602,43.033203 Z" style="display:inline;opacity:1;fill:url(#radialGradient4611);fill-opacity:1;fill-rule:nonzero;stroke:none"/>
      </g>
    </g>
  </g>
  <g transform="translate(-33.433072,-1339.3989)" style="display:inline" id="layer8">
    <g transform="matrix(0.13327437,0,0,0.13327437,30.710751,1336.6766)" id="g4693" style="display:inline;opacity:1">
      <path id="path4703" style="fill:#002d6a;fill-opacity:1;fill-rule:nonzero;stroke:none" d="m 1290.974,628.5316 -11.3116,34.63692 c 11.9182,-13.81481 24.7354,-24.27867 38.3547,-31.26314 13.625,-6.92453 28.2918,-10.4924 44.0176,-10.5923 19.462,-0.13986 34.2073,4.28145 44.2088,13.42377 10.0842,9.19797 14.9736,20.82211 14.8509,34.88238 -0.1385,14.03602 -4.487,37.47838 -13.0113,70.34278 l -68.1464,263.68729 -114.3775,0.959 67.4385,-260.71735 c 6.779,-25.86566 9.9787,-41.65992 9.8944,-47.31857 -0.234,-5.66864 -4.0473,-8.4844 -11.7354,-8.4002 -7.7594,0.12131 -13.5622,3.37235 -17.3927,9.91155 -3.7634,6.50495 -9.3207,23.99324 -16.6805,52.35783 l -65.8373,254.43504 -114.3232,0.9919 97.3587,-376.36073 116.6923,-0.97617"/>
      <path id="path4705" style="fill:#002d6a;fill-opacity:1;fill-rule:nonzero;stroke:none" d="m 1586.8792,759.68521 7.1643,-27.68527 c 5.0949,-19.6333 7.2642,-32.26072 6.5934,-37.91936 -0.6422,-5.71431 -4.0531,-8.52865 -10.2612,-8.42875 -7.9777,0.0385 -13.4865,2.47468 -16.5406,7.34126 -3.1255,4.90654 -7.464,18.00777 -12.9728,39.20237 l -7.1643,27.70668 z m 98.5447,59.89604 -147.4674,1.23163 -21.079,81.4146 c -4.4099,17.06442 -6.0226,28.04063 -4.9236,32.91863 1.1274,4.87799 5.1377,7.27561 12.0451,7.24706 8.4487,-0.0557 14.928,-3.45655 19.609,-9.90584 4.4813,-6.59486 9.1909,-19.24939 14.0575,-37.98073 l 12.8586,-49.7276 108.5918,-0.92051 -7.1643,27.79659 c -5.994,23.26967 -12.1165,41.0805 -18.2533,53.62372 -6.151,12.48755 -16.3979,25.88421 -30.8121,40.16712 -14.3714,14.17587 -30.6837,24.97511 -49.0226,32.22218 -18.239,7.2085 -39.8603,10.8991 -64.7926,11.0818 -23.9904,0.2797 -44.2559,-3.0541 -60.9821,-9.85588 -16.7262,-6.84033 -28.6058,-16.30661 -35.6744,-28.45879 -7.0801,-12.0694 -10.7422,-25.39327 -10.9705,-40.00014 -0.2127,-14.63257 3.378,-35.92849 10.5923,-63.86922 l 28.4316,-109.67359 c 8.4773,-32.90293 19.5805,-58.80855 33.3668,-77.90238 13.8005,-19.071 32.0966,-33.74495 54.8025,-44.00188 22.863,-10.24693 47.2672,-15.49741 73.3127,-15.74859 32.011,-0.27972 56.8434,5.65865 74.5257,17.57106 17.711,12.03087 28.0863,28.05776 31.2403,48.07211 3.154,20.07999 0.1285,48.30473 -9.3335,84.83119 l -12.9585,49.86746"/>
      <path id="path4707" style="fill:#002d6a;fill-opacity:1;fill-rule:nonzero;stroke:none" d="m 2141.8548,621.27455 -143.3001,376.68897 -122.8775,1.09748 c 5.1663,-45.9742 13.0584,-106.75649 23.5051,-182.50245 -12.6302,33.56084 -26.0597,67.16023 -40.3312,100.80385 l -32.9386,82.04968 -122.8205,1.12742 49.0083,-375.95968 97.6313,-0.88055 c -1.3986,9.756 -11.5599,81.78138 -30.7123,216.19032 5.4803,-14.34428 32.8245,-86.5766 82.0611,-216.59706 l 93.1501,-0.82061 -32.2821,216.19175 c 20.2655,-63.6366 47.6668,-135.80327 82.0896,-216.59848 l 97.8168,-0.79064"/>
      <path id="path4709" style="fill:#002d6a;fill-opacity:1;fill-rule:nonzero;stroke:none" d="m 2283.754,752.95049 7.1643,-27.67813 c 4.995,-19.61332 7.2499,-32.27927 6.5792,-37.93649 -0.6422,-5.70289 -4.0674,-8.53007 -10.2755,-8.47442 -8.0063,0.0842 -13.4723,2.48039 -16.5978,7.38693 -3.0826,4.90511 -7.3498,17.95069 -12.7872,39.25803 l -7.2785,27.66672 z m 98.4876,59.88462 -147.4245,1.27159 -21.079,81.34753 c -4.3528,17.11437 -6.0511,28.06917 -4.9094,32.93575 1.1131,4.90511 5.0806,7.35838 12.0451,7.25848 8.3917,-0.0557 14.9994,-3.32811 19.5948,-9.89585 4.5383,-6.60628 9.2336,-19.28793 14.0717,-37.99215 l 12.8871,-49.71047 108.5918,-0.89197 -7.2499,27.76234 c -5.9655,23.21972 -11.9738,41.09763 -18.1961,53.61373 -6.2224,12.50325 -16.4979,25.86708 -30.8265,40.15428 -14.4142,14.24437 -30.7265,25.03077 -49.0083,32.26214 -18.2818,7.1914 -39.8603,10.89769 -64.8639,11.14889 -24.019,0.2012 -44.1703,-3.12118 -60.9536,-9.99005 -16.6976,-6.82891 -28.5715,-16.24952 -35.6216,-28.37601 -7.0787,-12.15218 -10.7607,-25.43751 -10.9605,-40.05438 -0.1998,-14.61686 3.3252,-35.86284 10.5609,-63.87636 l 28.3574,-109.63933 c 8.4916,-32.86297 19.7375,-58.84137 33.4667,-77.90809 13.6863,-19.09383 32.0538,-33.68786 54.774,-44.01329 22.7202,-10.28547 47.2244,-15.55308 73.3126,-15.7486 31.9682,-0.27829 56.7578,5.57445 74.483,17.58819 17.7252,12.06941 28.1006,27.98641 31.2974,48.05498 3.1825,20.12566 0.086,48.34469 -9.3336,84.79266 l -13.0156,49.90599"/>
      <path id="path4711" style="fill:#002d6a;fill-opacity:1;fill-rule:nonzero;stroke:none" d="m 2590.1773,716.22423 c 4.4384,-17.19287 6.2224,-28.19191 5.3518,-32.90293 -0.842,-4.71102 -4.5954,-7.00731 -11.2031,-7.00731 -6.7219,0.0942 -12.0737,2.82576 -16.1411,8.23323 -4.2101,5.46455 -8.2775,16.13963 -12.4019,31.97243 l -32.7246,126.67093 c -4.4384,16.81325 -6.2223,27.70668 -5.4659,32.68458 0.7564,5.0621 4.4384,7.50966 11.1175,7.41404 7.4497,-0.0385 13.1012,-3.0541 17.0687,-9.1309 3.8675,-6.12675 8.5771,-19.91302 14.1287,-41.25318 z m 140.1461,-100.80385 -75.0253,290.07384 c -10.2612,39.21236 -17.7394,64.60563 -22.5347,75.95147 -4.8095,11.48285 -14.3286,23.55371 -28.6429,36.54221 -14.143,12.8115 -31.8682,22.7173 -53.0757,29.5462 -21.293,6.9189 -46.6392,10.5367 -76.067,10.805 -36.5493,0.2611 -64.1647,-5.7315 -82.9602,-17.8851 -18.8099,-12.2863 -23.9333,-36.6092 -15.242,-72.9958 l 110.9324,-0.98188 c -4.4242,16.99307 -0.5852,25.43894 11.8025,25.33761 8.5486,-0.0557 15.0707,-2.68732 19.3093,-7.94351 4.153,-5.23479 8.4773,-16.08398 12.7159,-32.52902 l 7.4355,-28.79417 c -12.1451,9.00389 -24.1046,15.8328 -36.1783,20.50386 -12.0737,4.61112 -24.0332,6.94165 -36.007,7.10863 -20.5509,0.14985 -36.4636,-3.90325 -47.6097,-12.05799 -11.1317,-8.19612 -17.4255,-18.9554 -18.9382,-32.47336 -1.5842,-13.37952 0.842,-32.61322 7.3641,-57.58833 l 35.3504,-136.48259 c 9.3051,-35.67874 22.3207,-61.3503 39.3037,-77.20023 16.8547,-15.72005 38.4617,-23.73064 64.55,-23.98182 14.243,-0.0999 26.5022,2.73157 36.7634,8.47299 10.3754,5.79851 18.5672,14.53409 24.9751,26.17392 l 15.3561,-28.6543 106.4226,-0.94763"/>
      <path id="path4713" style="fill:#002d6a;fill-opacity:1;fill-rule:nonzero;stroke:none" d="m 2890.7492,713.67677 c 4.4242,-17.24282 6.2081,-28.15338 5.3804,-32.93719 -0.7564,-4.76525 -4.5526,-7.03442 -11.1318,-6.97876 -6.6933,0.0557 -12.0594,2.7701 -16.3266,8.25035 -3.9389,5.43602 -8.0919,16.07256 -12.2449,31.91535 l -32.8102,126.67093 c -4.31,16.78614 -6.0939,27.65102 -5.3518,32.75166 0.6422,4.99074 4.4099,7.43116 11.1032,7.37551 7.3784,-0.0714 13.0156,-3.02699 16.8832,-9.18657 3.9675,-6.10391 8.6771,-19.81882 14.2144,-41.20894 z m 140.1461,-100.79244 -75.1251,290.06814 c -10.09,39.24661 -17.611,64.50573 -22.4348,75.97288 -4.7952,11.38437 -14.2144,23.56505 -28.543,36.41515 -14.243,12.9057 -31.9682,22.773 -53.1613,29.7018 -21.2075,6.8689 -46.5679,10.4639 -76.0671,10.6309 -36.4779,0.3796 -64.079,-5.6016 -82.8603,-17.8109 -18.9383,-12.292 -24.0332,-36.5436 -15.3418,-73.00151 l 110.918,-0.89197 c -4.3243,16.97451 -0.5566,25.40897 11.7883,25.30907 8.6628,-0.0942 15.1706,-2.73157 19.3236,-7.95493 4.2243,-5.25762 8.3773,-16.1011 12.7301,-32.5176 l 7.4498,-28.84983 c -11.9881,9.031 -24.1474,15.83137 -36.1925,20.48673 -11.9738,4.64394 -23.9333,7.04155 -35.9214,7.13575 -20.6509,0.0842 -36.4637,-3.81906 -47.6097,-11.9852 -11.2031,-8.1947 -17.4255,-19.09384 -18.924,-32.51332 -1.5413,-13.46231 0.9419,-32.60038 7.3213,-57.5755 l 35.2648,-136.51113 c 9.2337,-35.65019 22.4348,-61.32176 39.3037,-77.15455 17.0545,-15.80426 38.4617,-23.86052 64.6642,-24.02749 14.2429,-0.11132 26.4879,2.71444 36.7633,8.50153 10.2612,5.75284 18.5673,14.46701 24.8753,26.11826 l 15.4703,-28.65431 106.3083,-0.89197"/>
      
      
    </g>
  </g>
  <g transform="translate(-33.433072,-1339.3989)" style="display:none" id="layer9">
    <g style="display:inline;opacity:1" id="g4649" transform="matrix(0.13327437,0,0,0.13327437,30.765225,1336.914)">
      <path d="m 3020.4343,822.84229 50.3213,-0.40103 0.3853,44.12461 -50.4212,0.37248 -0.2854,-44.09606" style="fill:#002d6a;fill-opacity:1;fill-rule:nonzero;stroke:none" id="path4517"/>
      <path d="m 3206.4016,842.43705 44.8839,4.47697 c -2.4833,8.70846 -6.4365,16.19529 -12.1023,22.70024 -5.5516,6.35509 -12.5161,11.42861 -21.293,14.99648 -8.777,3.59642 -19.9516,5.4246 -33.4524,5.56303 -13.0156,0.12274 -23.862,-0.90766 -32.5248,-3.10976 -8.7484,-2.23063 -16.1981,-5.74285 -22.606,-10.81494 -6.2224,-4.96219 -11.1175,-10.91055 -14.6997,-17.70093 -3.682,-6.88457 -5.5801,-15.88703 -5.6657,-27.14867 -0.1142,-11.85818 1.9837,-21.62987 6.2937,-29.52915 3.0256,-5.81563 7.3784,-11.00046 12.8443,-15.62728 5.3804,-4.59828 11.0034,-8.05483 16.7833,-10.35255 9.0339,-3.62353 20.8221,-5.46312 35.1507,-5.61868 19.9801,-0.1784 35.3362,3.08264 45.9828,9.67179 10.461,6.63482 18.0106,16.31232 22.3349,29.07246 l -44.3844,5.85417 c -1.4129,-4.88942 -3.9532,-8.72417 -7.6352,-11.23309 -3.6821,-2.59314 -8.4916,-3.74627 -14.714,-3.74627 -7.6067,0.0671 -13.9432,2.82575 -18.6528,8.09479 -4.7096,5.26761 -7.0787,13.18972 -7.0787,23.83197 0.1142,9.47627 2.7402,16.65769 7.4498,21.5471 4.8951,4.85517 11.0318,7.30273 18.2817,7.21852 6.2224,-0.0942 11.2317,-1.5613 15.4703,-4.52691 4.2387,-2.92709 7.4355,-7.48683 9.3336,-13.61929" style="fill:#002d6a;fill-opacity:1;fill-rule:nonzero;stroke:none" id="path4519"/>
      <path d="m 3302.2194,875.13304 c 12.3449,9.22653 28.1006,13.77057 47.9951,13.57505 22.135,-0.13843 39.5035,-5.97548 51.8483,-17.25424 12.4305,-11.45002 18.6528,-25.94986 18.453,-43.53805 -0.1998,-15.73289 -5.2661,-28.90548 -15.5559,-39.58199 -12.6303,-13.11122 -31.2688,-19.66184 -55.8872,-19.46775 -21.4928,0.17983 -38.5473,5.99403 -50.9777,17.4783 -12.6589,11.46715 -18.7671,25.93274 -18.6814,43.35538 0.1998,18.91401 7.9207,33.9947 22.8058,45.4333 z m 31.0263,-68.37473 c 4.4241,-4.98931 9.9757,-7.5539 16.8546,-7.63668 6.4222,-0.0557 11.9024,2.39619 16.2267,7.24707 4.4384,4.84945 6.6933,12.11364 6.7789,22.10369 0.086,10.70362 -2.0693,18.44163 -6.4079,23.24684 -4.1387,4.79522 -9.7046,7.30272 -16.3979,7.43117 -6.779,0.0671 -12.1451,-2.35765 -16.6977,-7.23565 -4.3242,-4.81663 -6.6933,-12.32058 -6.7646,-22.64458 -0.1998,-10.0243 2.055,-17.52254 6.4079,-22.51186" style="fill:#002d6a;fill-opacity:1;fill-rule:nonzero;stroke:none" id="path4521"/>
      <path d="m 3452.8405,770.68996 44.1275,-0.41815 0.086,16.69622 c 6.4079,-7.08009 12.6303,-12.10794 19.1523,-15.09068 6.3794,-3.01129 14.1288,-4.55974 23.2626,-4.6154 9.7902,-0.12274 17.5396,1.44856 23.3624,4.65393 5.7514,3.23392 10.4896,7.97206 14.1288,14.32716 7.3641,-7.52536 14.0574,-12.6103 19.9944,-15.45318 6.1367,-2.73156 13.6863,-4.18155 22.7202,-4.26432 13.1012,-0.11132 23.3767,3.48367 30.8264,10.6865 7.5211,7.30272 11.3173,18.57006 11.4029,34.20734 l 0.6565,71.86982 -47.4099,0.42958 -0.5851,-65.26355 c 0,-5.1463 -1.0276,-8.96535 -3.2825,-11.47286 -3.0969,-3.79193 -6.9787,-5.82562 -11.7882,-5.7928 -5.4375,0 -9.9044,2.00087 -13.1869,5.71431 -3.3823,3.77338 -4.995,9.81165 -4.9094,17.98922 l 0.5852,59.15963 -47.41,0.30684 -0.6707,-63.09 c 0,-4.97219 -0.2854,-8.39021 -0.9562,-10.26834 -1.0276,-2.9328 -2.84,-5.17342 -5.2662,-6.9859 -2.4547,-1.68832 -5.466,-2.52463 -8.6628,-2.49751 -5.3803,0 -9.7046,1.97945 -13.301,5.82562 -3.2825,3.79194 -5.1806,10.16416 -5.0949,18.83267 l 0.5851,58.51884 -47.3386,0.33966 -1.0275,-114.34465" style="fill:#002d6a;fill-opacity:1;fill-rule:nonzero;stroke:none" id="path4523"/>
      <path d="m 1290.974,628.5316 -11.3116,34.63692 c 11.9182,-13.81481 24.7354,-24.27867 38.3547,-31.26314 13.625,-6.92453 28.2918,-10.4924 44.0176,-10.5923 19.462,-0.13986 34.2073,4.28145 44.2088,13.42377 10.0842,9.19797 14.9736,20.82211 14.8509,34.88238 -0.1385,14.03602 -4.487,37.47838 -13.0113,70.34278 l -68.1464,263.68729 -114.3775,0.959 67.4385,-260.71735 c 6.779,-25.86566 9.9787,-41.65992 9.8944,-47.31857 -0.234,-5.66864 -4.0473,-8.4844 -11.7354,-8.4002 -7.7594,0.12131 -13.5622,3.37235 -17.3927,9.91155 -3.7634,6.50495 -9.3207,23.99324 -16.6805,52.35783 l -65.8373,254.43504 -114.3232,0.9919 97.3587,-376.36073 116.6923,-0.97617" style="fill:#002d6a;fill-opacity:1;fill-rule:nonzero;stroke:none" id="path4525"/>
      <path d="m 1586.8792,759.68521 7.1643,-27.68527 c 5.0949,-19.6333 7.2642,-32.26072 6.5934,-37.91936 -0.6422,-5.71431 -4.0531,-8.52865 -10.2612,-8.42875 -7.9777,0.0385 -13.4865,2.47468 -16.5406,7.34126 -3.1255,4.90654 -7.464,18.00777 -12.9728,39.20237 l -7.1643,27.70668 z m 98.5447,59.89604 -147.4674,1.23163 -21.079,81.4146 c -4.4099,17.06442 -6.0226,28.04063 -4.9236,32.91863 1.1274,4.87799 5.1377,7.27561 12.0451,7.24706 8.4487,-0.0557 14.928,-3.45655 19.609,-9.90584 4.4813,-6.59486 9.1909,-19.24939 14.0575,-37.98073 l 12.8586,-49.7276 108.5918,-0.92051 -7.1643,27.79659 c -5.994,23.26967 -12.1165,41.0805 -18.2533,53.62372 -6.151,12.48755 -16.3979,25.88421 -30.8121,40.16712 -14.3714,14.17587 -30.6837,24.97511 -49.0226,32.22218 -18.239,7.2085 -39.8603,10.8991 -64.7926,11.0818 -23.9904,0.2797 -44.2559,-3.0541 -60.9821,-9.85588 -16.7262,-6.84033 -28.6058,-16.30661 -35.6744,-28.45879 -7.0801,-12.0694 -10.7422,-25.39327 -10.9705,-40.00014 -0.2127,-14.63257 3.378,-35.92849 10.5923,-63.86922 l 28.4316,-109.67359 c 8.4773,-32.90293 19.5805,-58.80855 33.3668,-77.90238 13.8005,-19.071 32.0966,-33.74495 54.8025,-44.00188 22.863,-10.24693 47.2672,-15.49741 73.3127,-15.74859 32.011,-0.27972 56.8434,5.65865 74.5257,17.57106 17.711,12.03087 28.0863,28.05776 31.2403,48.07211 3.154,20.07999 0.1285,48.30473 -9.3335,84.83119 l -12.9585,49.86746" style="fill:#002d6a;fill-opacity:1;fill-rule:nonzero;stroke:none" id="path4527"/>
      <path d="m 2141.8548,621.27455 -143.3001,376.68897 -122.8775,1.09748 c 5.1663,-45.9742 13.0584,-106.75649 23.5051,-182.50245 -12.6302,33.56084 -26.0597,67.16023 -40.3312,100.80385 l -32.9386,82.04968 -122.8205,1.12742 49.0083,-375.95968 97.6313,-0.88055 c -1.3986,9.756 -11.5599,81.78138 -30.7123,216.19032 5.4803,-14.34428 32.8245,-86.5766 82.0611,-216.59706 l 93.1501,-0.82061 -32.2821,216.19175 c 20.2655,-63.6366 47.6668,-135.80327 82.0896,-216.59848 l 97.8168,-0.79064" style="fill:#002d6a;fill-opacity:1;fill-rule:nonzero;stroke:none" id="path4529"/>
      <path d="m 2283.754,752.95049 7.1643,-27.67813 c 4.995,-19.61332 7.2499,-32.27927 6.5792,-37.93649 -0.6422,-5.70289 -4.0674,-8.53007 -10.2755,-8.47442 -8.0063,0.0842 -13.4723,2.48039 -16.5978,7.38693 -3.0826,4.90511 -7.3498,17.95069 -12.7872,39.25803 l -7.2785,27.66672 z m 98.4876,59.88462 -147.4245,1.27159 -21.079,81.34753 c -4.3528,17.11437 -6.0511,28.06917 -4.9094,32.93575 1.1131,4.90511 5.0806,7.35838 12.0451,7.25848 8.3917,-0.0557 14.9994,-3.32811 19.5948,-9.89585 4.5383,-6.60628 9.2336,-19.28793 14.0717,-37.99215 l 12.8871,-49.71047 108.5918,-0.89197 -7.2499,27.76234 c -5.9655,23.21972 -11.9738,41.09763 -18.1961,53.61373 -6.2224,12.50325 -16.4979,25.86708 -30.8265,40.15428 -14.4142,14.24437 -30.7265,25.03077 -49.0083,32.26214 -18.2818,7.1914 -39.8603,10.89769 -64.8639,11.14889 -24.019,0.2012 -44.1703,-3.12118 -60.9536,-9.99005 -16.6976,-6.82891 -28.5715,-16.24952 -35.6216,-28.37601 -7.0787,-12.15218 -10.7607,-25.43751 -10.9605,-40.05438 -0.1998,-14.61686 3.3252,-35.86284 10.5609,-63.87636 l 28.3574,-109.63933 c 8.4916,-32.86297 19.7375,-58.84137 33.4667,-77.90809 13.6863,-19.09383 32.0538,-33.68786 54.774,-44.01329 22.7202,-10.28547 47.2244,-15.55308 73.3126,-15.7486 31.9682,-0.27829 56.7578,5.57445 74.483,17.58819 17.7252,12.06941 28.1006,27.98641 31.2974,48.05498 3.1825,20.12566 0.086,48.34469 -9.3336,84.79266 l -13.0156,49.90599" style="fill:#002d6a;fill-opacity:1;fill-rule:nonzero;stroke:none" id="path4531"/>
      <path d="m 2590.1773,716.22423 c 4.4384,-17.19287 6.2224,-28.19191 5.3518,-32.90293 -0.842,-4.71102 -4.5954,-7.00731 -11.2031,-7.00731 -6.7219,0.0942 -12.0737,2.82576 -16.1411,8.23323 -4.2101,5.46455 -8.2775,16.13963 -12.4019,31.97243 l -32.7246,126.67093 c -4.4384,16.81325 -6.2223,27.70668 -5.4659,32.68458 0.7564,5.0621 4.4384,7.50966 11.1175,7.41404 7.4497,-0.0385 13.1012,-3.0541 17.0687,-9.1309 3.8675,-6.12675 8.5771,-19.91302 14.1287,-41.25318 z m 140.1461,-100.80385 -75.0253,290.07384 c -10.2612,39.21236 -17.7394,64.60563 -22.5347,75.95147 -4.8095,11.48285 -14.3286,23.55371 -28.6429,36.54221 -14.143,12.8115 -31.8682,22.7173 -53.0757,29.5462 -21.293,6.9189 -46.6392,10.5367 -76.067,10.805 -36.5493,0.2611 -64.1647,-5.7315 -82.9602,-17.8851 -18.8099,-12.2863 -23.9333,-36.6092 -15.242,-72.9958 l 110.9324,-0.98188 c -4.4242,16.99307 -0.5852,25.43894 11.8025,25.33761 8.5486,-0.0557 15.0707,-2.68732 19.3093,-7.94351 4.153,-5.23479 8.4773,-16.08398 12.7159,-32.52902 l 7.4355,-28.79417 c -12.1451,9.00389 -24.1046,15.8328 -36.1783,20.50386 -12.0737,4.61112 -24.0332,6.94165 -36.007,7.10863 -20.5509,0.14985 -36.4636,-3.90325 -47.6097,-12.05799 -11.1317,-8.19612 -17.4255,-18.9554 -18.9382,-32.47336 -1.5842,-13.37952 0.842,-32.61322 7.3641,-57.58833 l 35.3504,-136.48259 c 9.3051,-35.67874 22.3207,-61.3503 39.3037,-77.20023 16.8547,-15.72005 38.4617,-23.73064 64.55,-23.98182 14.243,-0.0999 26.5022,2.73157 36.7634,8.47299 10.3754,5.79851 18.5672,14.53409 24.9751,26.17392 l 15.3561,-28.6543 106.4226,-0.94763" style="fill:#002d6a;fill-opacity:1;fill-rule:nonzero;stroke:none" id="path4533"/>
      <path d="m 2890.7492,713.67677 c 4.4242,-17.24282 6.2081,-28.15338 5.3804,-32.93719 -0.7564,-4.76525 -4.5526,-7.03442 -11.1318,-6.97876 -6.6933,0.0557 -12.0594,2.7701 -16.3266,8.25035 -3.9389,5.43602 -8.0919,16.07256 -12.2449,31.91535 l -32.8102,126.67093 c -4.31,16.78614 -6.0939,27.65102 -5.3518,32.75166 0.6422,4.99074 4.4099,7.43116 11.1032,7.37551 7.3784,-0.0714 13.0156,-3.02699 16.8832,-9.18657 3.9675,-6.10391 8.6771,-19.81882 14.2144,-41.20894 z m 140.1461,-100.79244 -75.1251,290.06814 c -10.09,39.24661 -17.611,64.50573 -22.4348,75.97288 -4.7952,11.38437 -14.2144,23.56505 -28.543,36.41515 -14.243,12.9057 -31.9682,22.773 -53.1613,29.7018 -21.2075,6.8689 -46.5679,10.4639 -76.0671,10.6309 -36.4779,0.3796 -64.079,-5.6016 -82.8603,-17.8109 -18.9383,-12.292 -24.0332,-36.5436 -15.3418,-73.00151 l 110.918,-0.89197 c -4.3243,16.97451 -0.5566,25.40897 11.7883,25.30907 8.6628,-0.0942 15.1706,-2.73157 19.3236,-7.95493 4.2243,-5.25762 8.3773,-16.1011 12.7301,-32.5176 l 7.4498,-28.84983 c -11.9881,9.031 -24.1474,15.83137 -36.1925,20.48673 -11.9738,4.64394 -23.9333,7.04155 -35.9214,7.13575 -20.6509,0.0842 -36.4637,-3.81906 -47.6097,-11.9852 -11.2031,-8.1947 -17.4255,-19.09384 -18.924,-32.51332 -1.5413,-13.46231 0.9419,-32.60038 7.3213,-57.5755 l 35.2648,-136.51113 c 9.2337,-35.65019 22.4348,-61.32176 39.3037,-77.15455 17.0545,-15.80426 38.4617,-23.86052 64.6642,-24.02749 14.2429,-0.11132 26.4879,2.71444 36.7633,8.50153 10.2612,5.75284 18.5673,14.46701 24.8753,26.11826 l 15.4703,-28.65431 106.3083,-0.89197" style="fill:#002d6a;fill-opacity:1;fill-rule:nonzero;stroke:none" id="path4535"/>
      <path id="path4539" style="display:inline;opacity:1;fill:#002d6a;fill-opacity:1;fill-rule:nonzero;stroke:none" d="m 3717.6622,704.35776 13.0283,0 c 5.7342,0 10.5558,-3.39787 10.4036,-7.61938 -0.195,-5.40648 -3.9306,-9.29372 -8.4772,-9.29372 l -14.9547,0 z m -11.9252,33.6 0,-60.11264 26.544,0 c 5.3311,0 9.3408,0.55105 12.1184,1.62849 2.7551,1.08415 4.9727,2.99263 6.6304,5.72318 1.6351,2.73728 3.1177,6.4513 3.1177,9.77546 0,4.28735 -0.8615,8.00212 -3.5942,10.93425 -2.7327,2.92994 -6.9887,5.03719 -12.7008,5.82567 2.0833,1.01472 2.582,0.93823 3.6349,1.91039 2.3295,2.11679 4.5473,4.78687 6.5631,7.99681 l 10.3265,16.31839 -16.0785,0 c -4.5611,-6.82009 -7.8606,-14.41207 -12.7762,-20.7536 -2.0971,-2.65909 -3.6043,-2.94509 -6.6269,-2.98477 l -5.2332,0 0,23.73837 -11.9252,0"/>
      <path id="path4541" style="display:inline;opacity:1;fill:none;fill-opacity:1;stroke:#002d6a;stroke-width:9.89105034;stroke-linecap:butt;stroke-linejoin:miter;stroke-miterlimit:4;stroke-dasharray:none;stroke-opacity:1" d="m 3781.391,708.86078 c 0,28.13807 -22.789,50.89804 -50.9059,50.89804 -28.1434,0 -50.9325,-22.75997 -50.9325,-50.89804 0,-28.12751 22.7891,-50.91914 50.9325,-50.91914 28.1169,0 50.9059,22.79163 50.9059,50.91914 z"/>
    </g>
  </g>
</svg>