<svg xmlns="http://www.w3.org/2000/svg" viewBox="0 0 39.64 64">
    <path d="M50,14.8a4,4,0,0,0-5.56.95,16.67,16.67,0,0,1-5.26,5l-.56.3-.52.26a15.73,15.73,0,0,1-6.25,1.37,15.77,15.77,0,0,1-6.25-1.37,16.08,16.08,0,0,1-6.34-5.53,4,4,0,0,0-6.51,4.61,24.17,24.17,0,0,0,9.49,8.16c.72.33,1.46.62,2.21.88-3.11,2.25-6.48,5.4-8.1,9.73a19.09,19.09,0,0,0,.06,13.68A18.14,18.14,0,0,0,25,62.34a17.19,17.19,0,0,0,14.72,0c5.13-2.31,8.48-6.54,9-11.32.5-5-1.91-9.51-6.15-11.42s-9.33-.56-12.6,3.6a4,4,0,1,0,6.26,4.94c1-1.23,2.09-1.68,3.07-1.24s1.66,1.45,1.48,3.34S38.86,54,36.4,55.09a9.29,9.29,0,0,1-7.81.16,10.13,10.13,0,0,1-4.78-5.35,10.91,10.91,0,0,1,0-8c.94-2.53,3.33-4.92,7.5-7.52l5.49-3.14,5.89-3.4a24.56,24.56,0,0,0,8.22-7.52A4,4,0,0,0,50,14.8ZM29.7,7.29a2.69,2.69,0,0,1,1.91-.79,2.7,2.7,0,0,1,2.71,2.71A2.71,2.71,0,1,1,29.7,7.29Zm1.91,11.12A9.21,9.21,0,0,0,38.12,2.69a9.21,9.21,0,1,0-6.51,15.73Z" transform="translate(-12)" style="fill:#231f20" />
</svg>