<svg clip-rule="evenodd" fill-rule="evenodd" stroke-linejoin="round" stroke-miterlimit="2" version="1.1" viewBox="0 0 500 500" xml:space="preserve" xmlns="http://www.w3.org/2000/svg">
    <g transform="matrix(.46296 0 0 .46296 -.00038434 .00035741)" fill-rule="nonzero">
        <path d="m703.99 513.51h-405.6c-82.83-1.57-93.82 40.94-94.05 94.71v162.03h64.9v-161.84c0.05-5.01 1.67-30.01 29.16-30.01h365.99l39.6-64.89z" fill="#2c6cb8"/>
        <path d="m768.54 411.32h-520.66c-90.22 0-114.74 33.36-131.26 64.9-15.37 29.35-12.66 79.83-12.66 81.08v213.3h64.9v-213.3c0-0.21 0.28-21.24 10.37-41.83 12.94-26.41 35.4-39.25 68.65-39.25h481.04l39.62-64.9z" fill="#1b1b19"/>
        <path d="m1040.4 375.34 39.6-64.87c-29.47-0.03-104.69-0.1-205.24-0.18l-26.15 42.84-0.26 0.05-139.2 225.09 0.96-0.02-0.1 0.16h205.34l39.62-64.9h-121.87l22.73-37.29h122.45l39.62-64.9h-122.52l22-36.09c52.23 0.04 94.6 0.08 123.02 0.11z" fill="#1b1b19"/>
        <path d="m829.15 310.26c-360.5-0.27-551.44-2.99-640.24 0.22-78.89 2.85-126.99 30.57-152.54 64.86-40.11 53.84-36.27 100.88-36.27 125.44v270.29h64.9v-270.51l-0.01-0.55c-0.01-0.54-0.71-54.2 34.63-90.7 21.45-22.16 51.63-33.58 89.69-33.94 86.57-0.81 236.87-0.52 600.24-0.24l39.6-64.87z" fill="#2c6cb8"/>
    </g>
</svg>
