<svg enable-background="new 0 0 1080 1080" version="1.1" viewBox="0 0 1080 1080" xml:space="preserve" xmlns="http://www.w3.org/2000/svg">
<style type="text/css">
	.st0{fill:#1B1B19;}
	.st1{fill:#2C6CB8;}
</style>

	
		<path class="st0" d="m192.29 560.61h11.13v43.78h0.25l31.25-43.78h12.4l-27.32 37.7 29.61 52.63h-12.4l-24.42-43.52-9.36 12.78v30.74h-11.13v-90.33z"/>
		<path class="st0" d="M268.2,560.61h46.69v9.87h-35.55v28.34h33.53v9.87h-33.53v32.39h37.07v9.87H268.2V560.61z"/>
		<path class="st0" d="m382.31 560.61h46.69v9.87h-35.55v28.34h33.53v9.87h-33.53v32.39h37.07v9.87h-48.21v-90.34z"/>
		<path class="st0" d="m453.53 560.61h11.13v80.47h36.69v9.87h-47.83v-90.34z"/>
		<path class="st0" d="m522.35 560.61h46.69v9.87h-35.55v28.34h33.53v9.87h-33.53v32.39h37.07v9.87h-48.21v-90.34z"/>
		<path class="st0" d="m593.45 560.61h11.13v43.78h0.25l31.25-43.78h12.4l-27.33 37.7 29.61 52.63h-12.4l-24.42-43.52-9.36 12.78v30.74h-11.13v-90.33z"/>
		<path class="st0" d="m696.68 650.94h-11.13v-80.47h-22.65v-9.87h56.55v9.87h-22.78v80.47z"/>
		<path class="st0" d="m740.32 560.61h29.23c14.17 0 23.15 8.35 23.15 22.65 0 9.87-3.42 20.24-13.92 22.77v0.25c7.84 0.89 12.27 7.34 12.78 15.06l0.76 15.44c0.51 10 2.15 12.53 4.81 14.17h-13.41c-1.9-1.9-2.78-8.6-3.04-13.03l-0.76-14.04c-0.88-12.4-7.72-13.16-13.41-13.16h-15.06v40.23h-11.13v-90.34zm11.14 40.99h11.01c6.58 0 18.6 0 18.6-17.46 0-8.86-5.95-14.42-16.32-14.42h-13.29v31.88z"/>
		<path class="st0" d="m875.56 605.77c0 22.78-4.18 46.94-29.1 46.94s-29.1-24.17-29.1-46.94 4.18-46.94 29.1-46.94c24.93 0.01 29.1 24.17 29.1 46.94zm-46.55 0c0 20.88 2.02 37.83 17.46 37.83s17.46-16.95 17.46-37.83-2.02-37.83-17.46-37.83c-15.44 0.01-17.46 16.96-17.46 37.83z"/>
		<path class="st0" d="m901.49 560.61h14.42l29.86 75.41h0.25v-75.41h11.13v90.34h-15.31l-28.97-73.13h-0.25v73.13h-11.13v-90.34z"/>
		<path class="st0" d="m984.36 560.61h11.13v90.34h-11.13v-90.34z"/>
		<path class="st0" d="m1022.7 560.61h11.13v43.78h0.25l31.25-43.78h12.4l-27.33 37.7 29.61 52.63h-12.4l-24.42-43.52-9.36 12.78v30.74h-11.13v-90.33z"/>
	
	
		<path class="st0" d="m195.55 705.57c0.52-8.71 8.32-11.33 15.92-11.33 6.75 0 14.87 1.51 14.87 9.63v17.62c0 3.08 0.33 6.16 1.18 7.53h-9.43c-0.33-1.05-0.59-2.16-0.65-3.27-2.95 3.08-7.27 4.19-11.4 4.19-6.42 0-11.53-3.21-11.53-10.15 0-7.66 5.76-9.5 11.53-10.28 5.7-0.85 11-0.65 11-4.45 0-3.99-2.75-4.58-6.03-4.58-3.54 0-5.83 1.44-6.16 5.11h-9.3zm21.48 6.88c-1.57 1.38-4.85 1.44-7.73 1.97-2.88 0.59-5.5 1.57-5.5 4.98 0 3.47 2.69 4.32 5.7 4.32 7.27 0 7.53-5.76 7.53-7.79v-3.48z"/>
		<path class="st0" d="m233.54 695.16h8.84v4.72h0.2c2.36-3.8 6.42-5.63 10.35-5.63 9.89 0 12.38 5.57 12.38 13.95v20.83h-9.3v-19.12c0-5.57-1.64-8.32-5.96-8.32-5.04 0-7.2 2.82-7.2 9.7v17.75h-9.3v-33.88z"/>
		<path class="st0" d="m301.13 682.25h10.55l17.49 46.77h-10.68l-3.54-10.41h-17.49l-3.67 10.41h-10.41l17.75-46.77zm-0.98 28.69h12.12l-5.89-17.16h-0.13l-6.1 17.16z"/>
		<path class="st0" d="m332.51 695.16h8.78v4.59h0.13c2.42-3.47 5.96-5.5 10.35-5.5 4.26 0 8.06 1.57 9.89 5.63 1.97-2.95 5.5-5.63 10.22-5.63 7.21 0 12.38 3.34 12.38 12.12v22.66h-9.3v-19.19c0-4.52-0.39-8.25-5.7-8.25-5.24 0-6.22 4.32-6.22 8.58v18.86h-9.3v-18.99c0-3.93 0.26-8.45-5.63-8.45-1.83 0-6.29 1.18-6.29 7.79v19.65h-9.3v-33.87z"/>
		<path class="st0" d="m391.59 695.16h8.84v4.32h0.13c2.23-3.6 5.89-5.24 10.09-5.24 10.61 0 15.39 8.58 15.39 18.21 0 9.04-4.98 17.49-14.87 17.49-4.06 0-7.93-1.77-10.15-5.11h-0.13v16.11h-9.3v-45.78zm25.15 17.02c0-5.37-2.16-10.94-8.12-10.94-6.09 0-8.06 5.43-8.06 10.94 0 5.5 2.1 10.74 8.12 10.74 6.09 0.01 8.06-5.23 8.06-10.74z"/>
		<path class="st0" d="m431.6 682.25h9.3v17.62h0.2c2.36-3.8 6.42-5.63 9.89-5.63 9.89 0 12.38 5.57 12.38 13.95v20.83h-9.3v-19.12c0-5.57-1.64-8.32-5.96-8.32-5.04 0-7.2 2.82-7.2 9.7v17.75h-9.3v-46.78z"/>
		<path class="st0" d="m478.11 714.35c0.26 5.9 3.14 8.58 8.32 8.58 3.73 0 6.75-2.29 7.34-4.39h8.19c-2.62 7.99-8.19 11.4-15.85 11.4-10.68 0-17.29-7.34-17.29-17.82 0-10.15 7.01-17.88 17.29-17.88 11.53 0 17.09 9.7 16.44 20.11h-24.44zm15.13-5.9c-0.85-4.71-2.88-7.2-7.4-7.2-5.89 0-7.6 4.58-7.73 7.2h15.13z"/>
		<path class="st0" d="m508.04 695.16h8.84v4.72h0.2c2.36-3.8 6.42-5.63 10.35-5.63 9.89 0 12.38 5.57 12.38 13.95v20.83h-9.3v-19.12c0-5.57-1.64-8.32-5.96-8.32-5.04 0-7.2 2.82-7.2 9.7v17.75h-9.3v-33.88z"/>
		<path class="st0" d="m563.32 694.24c10.68 0 17.55 7.07 17.55 17.88 0 10.74-6.88 17.82-17.55 17.82-10.61 0-17.49-7.07-17.49-17.82 0-10.81 6.88-17.88 17.49-17.88zm0 28.69c6.35 0 8.25-5.44 8.25-10.81 0-5.44-1.9-10.87-8.25-10.87-6.29 0-8.19 5.43-8.19 10.87 0 5.37 1.9 10.81 8.19 10.81z"/>
		<path class="st0" d="m587.16 682.25h9.3v46.77h-9.3v-46.77z"/>
		<path class="st0" d="m645.06 707.08c-0.59-3.8-3.01-5.83-6.88-5.83-5.96 0-7.93 6.02-7.93 11 0 4.85 1.9 10.68 7.73 10.68 4.32 0 6.81-2.75 7.4-6.88h8.97c-1.18 8.97-7.4 13.88-16.31 13.88-10.22 0-17.1-7.2-17.1-17.36 0-10.55 6.29-18.34 17.29-18.34 7.99 0 15.33 4.19 15.92 12.84h-9.09z"/>
		<path class="st0" d="m676.04 694.24c10.67 0 17.55 7.07 17.55 17.88 0 10.74-6.88 17.82-17.55 17.82-10.61 0-17.49-7.07-17.49-17.82 0-10.81 6.88-17.88 17.49-17.88zm0 28.69c6.35 0 8.25-5.44 8.25-10.81 0-5.44-1.9-10.87-8.25-10.87-6.29 0-8.19 5.43-8.19 10.87 0 5.37 1.9 10.81 8.19 10.81z"/>
		<path class="st0" d="m699.88 695.16h8.78v4.59h0.13c2.42-3.47 5.96-5.5 10.35-5.5 4.26 0 8.06 1.57 9.89 5.63 1.97-2.95 5.5-5.63 10.22-5.63 7.21 0 12.38 3.34 12.38 12.12v22.66h-9.3v-19.19c0-4.52-0.39-8.25-5.7-8.25-5.24 0-6.22 4.32-6.22 8.58v18.86h-9.3v-18.99c0-3.93 0.26-8.45-5.63-8.45-1.83 0-6.29 1.18-6.29 7.79v19.65h-9.3v-33.87z"/>
		<path class="st0" d="m758.96 695.16h8.84v4.32h0.13c2.23-3.6 5.9-5.24 10.09-5.24 10.61 0 15.39 8.58 15.39 18.21 0 9.04-4.98 17.49-14.87 17.49-4.06 0-7.93-1.77-10.15-5.11h-0.13v16.11h-9.3v-45.78zm25.15 17.02c0-5.37-2.16-10.94-8.12-10.94-6.09 0-8.06 5.43-8.06 10.94 0 5.5 2.1 10.74 8.12 10.74 6.1 0.01 8.06-5.23 8.06-10.74z"/>
		<path class="st0" d="m798.59 705.57c0.52-8.71 8.32-11.33 15.92-11.33 6.75 0 14.87 1.51 14.87 9.63v17.62c0 3.08 0.33 6.16 1.18 7.53h-9.43c-0.33-1.05-0.59-2.16-0.66-3.27-2.95 3.08-7.27 4.19-11.4 4.19-6.42 0-11.53-3.21-11.53-10.15 0-7.66 5.76-9.5 11.53-10.28 5.7-0.85 11-0.65 11-4.45 0-3.99-2.75-4.58-6.02-4.58-3.54 0-5.83 1.44-6.16 5.11h-9.3zm21.48 6.88c-1.57 1.38-4.85 1.44-7.73 1.97-2.88 0.59-5.5 1.57-5.5 4.98 0 3.47 2.69 4.32 5.7 4.32 7.27 0 7.53-5.76 7.53-7.79v-3.48z"/>
		<path class="st0" d="m836.58 695.16h8.84v4.72h0.2c2.36-3.8 6.42-5.63 10.35-5.63 9.89 0 12.38 5.57 12.38 13.95v20.83h-9.3v-19.12c0-5.57-1.64-8.32-5.96-8.32-5.04 0-7.21 2.82-7.21 9.7v17.75h-9.3v-33.88z"/>
		<path class="st0" d="m892.12 733.28c-2.03 5.43-5.24 7.66-11.66 7.66-1.9 0-3.8-0.13-5.7-0.33v-7.66c1.77 0.13 3.6 0.39 5.43 0.33 3.21-0.33 4.26-3.67 3.21-6.35l-11.92-31.77h9.95l7.66 23.19h0.13l7.4-23.19h9.63l-14.13 38.12z"/>
	
	<path class="st1" d="m340.2 437.92h-196c-40.03-0.76-45.34 19.78-45.45 45.77v78.3h31.36v-78.2c0.02-2.42 0.81-14.5 14.09-14.5h176.86l19.14-31.37z"/>
	<path class="st0" d="m371.39 388.54h-251.6c-43.6 0-55.45 16.12-63.43 31.36-7.43 14.19-6.12 38.58-6.12 39.18v103.08h31.36v-103.07c0-0.1 0.14-10.26 5.01-20.21 6.25-12.76 17.1-18.97 33.17-18.97h232.46l19.15-31.37z"/>
	
		<path class="st0" d="m502.77 371.16 19.14-31.35c-14.24-0.01-50.59-0.05-99.18-0.09l-12.64 20.7-0.13 0.03-67.26 108.77 0.46-0.01-0.05 0.08h99.23l19.14-31.36h-58.89l10.98-18.02h59.18l19.14-31.36h-59.2l10.63-17.44c25.24 0.01 45.72 0.03 59.45 0.05z"/>
		<path class="st1" d="m400.68 339.71c-174.21-0.13-266.48-1.44-309.39 0.11-38.12 1.38-61.37 14.77-73.71 31.34-19.38 26.02-17.53 48.75-17.53 60.62v130.62h31.36v-130.73-0.26c-0.01-0.26-0.34-26.19 16.73-43.83 10.37-10.71 24.95-16.23 43.34-16.4 41.83-0.39 114.47-0.25 290.06-0.12l19.14-31.35z"/>
	

</svg>
