<svg version="1.1" id="Ebene_1" xmlns="http://www.w3.org/2000/svg" xmlns:xlink="http://www.w3.org/1999/xlink" x="0px" y="0px"
	 viewBox="0 0 1080 1080" style="enable-background:new 0 0 1080 1080;" xml:space="preserve">
<style type="text/css">
	.st0{fill:#1B1B19;}
	.st1{fill:#2C6CB8;}
</style>
<g>
	<g>
		<path class="st0" d="M192.29,560.61h11.13v43.78h0.25l31.25-43.78h12.4L220,598.31l29.61,52.63h-12.4l-24.42-43.52l-9.36,12.78
			v30.74h-11.13V560.61z"/>
		<path class="st0" d="M268.2,560.61h46.69v9.87h-35.55v28.34h33.53v9.87h-33.53v32.39h37.07v9.87H268.2V560.61z"/>
		<path class="st0" d="M382.31,560.61h46.69v9.87h-35.55v28.34h33.53v9.87h-33.53v32.39h37.07v9.87h-48.21V560.61z"/>
		<path class="st0" d="M453.53,560.61h11.13v80.47h36.69v9.87h-47.83V560.61z"/>
		<path class="st0" d="M522.35,560.61h46.69v9.87h-35.55v28.34h33.53v9.87h-33.53v32.39h37.07v9.87h-48.21V560.61z"/>
		<path class="st0" d="M593.45,560.61h11.13v43.78h0.25l31.25-43.78h12.4l-27.33,37.7l29.61,52.63h-12.4l-24.42-43.52l-9.36,12.78
			v30.74h-11.13V560.61z"/>
		<path class="st0" d="M696.68,650.94h-11.13v-80.47H662.9v-9.87h56.55v9.87h-22.78V650.94z"/>
		<path class="st0" d="M740.32,560.61h29.23c14.17,0,23.15,8.35,23.15,22.65c0,9.87-3.42,20.24-13.92,22.77v0.25
			c7.84,0.89,12.27,7.34,12.78,15.06l0.76,15.44c0.51,10,2.15,12.53,4.81,14.17h-13.41c-1.9-1.9-2.78-8.6-3.04-13.03l-0.76-14.04
			c-0.88-12.4-7.72-13.16-13.41-13.16h-15.06v40.23h-11.13V560.61z M751.46,601.6h11.01c6.58,0,18.6,0,18.6-17.46
			c0-8.86-5.95-14.42-16.32-14.42h-13.29V601.6z"/>
		<path class="st0" d="M875.56,605.77c0,22.78-4.18,46.94-29.1,46.94c-24.92,0-29.1-24.17-29.1-46.94c0-22.77,4.18-46.94,29.1-46.94
			C871.39,558.84,875.56,583,875.56,605.77z M829.01,605.77c0,20.88,2.02,37.83,17.46,37.83c15.44,0,17.46-16.95,17.46-37.83
			s-2.02-37.83-17.46-37.83C831.03,567.95,829.01,584.9,829.01,605.77z"/>
		<path class="st0" d="M901.49,560.61h14.42l29.86,75.41h0.25v-75.41h11.13v90.34h-15.31l-28.97-73.13h-0.25v73.13h-11.13V560.61z"
			/>
		<path class="st0" d="M984.36,560.61h11.13v90.34h-11.13V560.61z"/>
		<path class="st0" d="M1022.69,560.61h11.13v43.78h0.25l31.25-43.78h12.4l-27.33,37.7l29.61,52.63h-12.4l-24.42-43.52l-9.36,12.78
			v30.74h-11.13V560.61z"/>
	</g>
	<g>
		<path class="st0" d="M195.55,705.57c0.52-8.71,8.32-11.33,15.92-11.33c6.75,0,14.87,1.51,14.87,9.63v17.62
			c0,3.08,0.33,6.16,1.18,7.53h-9.43c-0.33-1.05-0.59-2.16-0.65-3.27c-2.95,3.08-7.27,4.19-11.4,4.19
			c-6.42,0-11.53-3.21-11.53-10.15c0-7.66,5.76-9.5,11.53-10.28c5.7-0.85,11-0.65,11-4.45c0-3.99-2.75-4.58-6.03-4.58
			c-3.54,0-5.83,1.44-6.16,5.11H195.55z M217.03,712.45c-1.57,1.38-4.85,1.44-7.73,1.97c-2.88,0.59-5.5,1.57-5.5,4.98
			c0,3.47,2.69,4.32,5.7,4.32c7.27,0,7.53-5.76,7.53-7.79V712.45z"/>
		<path class="st0" d="M233.54,695.16h8.84v4.72h0.2c2.36-3.8,6.42-5.63,10.35-5.63c9.89,0,12.38,5.57,12.38,13.95v20.83h-9.3
			v-19.12c0-5.57-1.64-8.32-5.96-8.32c-5.04,0-7.2,2.82-7.2,9.7v17.75h-9.3V695.16z"/>
		<path class="st0" d="M301.13,682.25h10.55l17.49,46.77h-10.68l-3.54-10.41h-17.49l-3.67,10.41h-10.41L301.13,682.25z
			 M300.15,710.94h12.12l-5.89-17.16h-0.13L300.15,710.94z"/>
		<path class="st0" d="M332.51,695.16h8.78v4.59h0.13c2.42-3.47,5.96-5.5,10.35-5.5c4.26,0,8.06,1.57,9.89,5.63
			c1.97-2.95,5.5-5.63,10.22-5.63c7.21,0,12.38,3.34,12.38,12.12v22.66h-9.3v-19.19c0-4.52-0.39-8.25-5.7-8.25
			c-5.24,0-6.22,4.32-6.22,8.58v18.86h-9.3v-18.99c0-3.93,0.26-8.45-5.63-8.45c-1.83,0-6.29,1.18-6.29,7.79v19.65h-9.3V695.16z"/>
		<path class="st0" d="M391.59,695.16h8.84v4.32h0.13c2.23-3.6,5.89-5.24,10.09-5.24c10.61,0,15.39,8.58,15.39,18.21
			c0,9.04-4.98,17.49-14.87,17.49c-4.06,0-7.93-1.77-10.15-5.11h-0.13v16.11h-9.3V695.16z M416.74,712.18
			c0-5.37-2.16-10.94-8.12-10.94c-6.09,0-8.06,5.43-8.06,10.94c0,5.5,2.1,10.74,8.12,10.74
			C414.77,722.93,416.74,717.69,416.74,712.18z"/>
		<path class="st0" d="M431.6,682.25h9.3v17.62h0.2c2.36-3.8,6.42-5.63,9.89-5.63c9.89,0,12.38,5.57,12.38,13.95v20.83h-9.3v-19.12
			c0-5.57-1.64-8.32-5.96-8.32c-5.04,0-7.2,2.82-7.2,9.7v17.75h-9.3V682.25z"/>
		<path class="st0" d="M478.11,714.35c0.26,5.9,3.14,8.58,8.32,8.58c3.73,0,6.75-2.29,7.34-4.39h8.19
			c-2.62,7.99-8.19,11.4-15.85,11.4c-10.68,0-17.29-7.34-17.29-17.82c0-10.15,7.01-17.88,17.29-17.88c11.53,0,17.09,9.7,16.44,20.11
			H478.11z M493.24,708.45c-0.85-4.71-2.88-7.2-7.4-7.2c-5.89,0-7.6,4.58-7.73,7.2H493.24z"/>
		<path class="st0" d="M508.04,695.16h8.84v4.72h0.2c2.36-3.8,6.42-5.63,10.35-5.63c9.89,0,12.38,5.57,12.38,13.95v20.83h-9.3
			v-19.12c0-5.57-1.64-8.32-5.96-8.32c-5.04,0-7.2,2.82-7.2,9.7v17.75h-9.3V695.16z"/>
		<path class="st0" d="M563.32,694.24c10.68,0,17.55,7.07,17.55,17.88c0,10.74-6.88,17.82-17.55,17.82
			c-10.61,0-17.49-7.07-17.49-17.82C545.83,701.31,552.71,694.24,563.32,694.24z M563.32,722.93c6.35,0,8.25-5.44,8.25-10.81
			c0-5.44-1.9-10.87-8.25-10.87c-6.29,0-8.19,5.43-8.19,10.87C555.13,717.49,557.03,722.93,563.32,722.93z"/>
		<path class="st0" d="M587.16,682.25h9.3v46.77h-9.3V682.25z"/>
		<path class="st0" d="M645.06,707.08c-0.59-3.8-3.01-5.83-6.88-5.83c-5.96,0-7.93,6.02-7.93,11c0,4.85,1.9,10.68,7.73,10.68
			c4.32,0,6.81-2.75,7.4-6.88h8.97c-1.18,8.97-7.4,13.88-16.31,13.88c-10.22,0-17.1-7.2-17.1-17.36c0-10.55,6.29-18.34,17.29-18.34
			c7.99,0,15.33,4.19,15.92,12.84H645.06z"/>
		<path class="st0" d="M676.04,694.24c10.67,0,17.55,7.07,17.55,17.88c0,10.74-6.88,17.82-17.55,17.82
			c-10.61,0-17.49-7.07-17.49-17.82C658.55,701.31,665.43,694.24,676.04,694.24z M676.04,722.93c6.35,0,8.25-5.44,8.25-10.81
			c0-5.44-1.9-10.87-8.25-10.87c-6.29,0-8.19,5.43-8.19,10.87C667.85,717.49,669.75,722.93,676.04,722.93z"/>
		<path class="st0" d="M699.88,695.16h8.78v4.59h0.13c2.42-3.47,5.96-5.5,10.35-5.5c4.26,0,8.06,1.57,9.89,5.63
			c1.97-2.95,5.5-5.63,10.22-5.63c7.21,0,12.38,3.34,12.38,12.12v22.66h-9.3v-19.19c0-4.52-0.39-8.25-5.7-8.25
			c-5.24,0-6.22,4.32-6.22,8.58v18.86h-9.3v-18.99c0-3.93,0.26-8.45-5.63-8.45c-1.83,0-6.29,1.18-6.29,7.79v19.65h-9.3V695.16z"/>
		<path class="st0" d="M758.96,695.16h8.84v4.32h0.13c2.23-3.6,5.9-5.24,10.09-5.24c10.61,0,15.39,8.58,15.39,18.21
			c0,9.04-4.98,17.49-14.87,17.49c-4.06,0-7.93-1.77-10.15-5.11h-0.13v16.11h-9.3V695.16z M784.11,712.18
			c0-5.37-2.16-10.94-8.12-10.94c-6.09,0-8.06,5.43-8.06,10.94c0,5.5,2.1,10.74,8.12,10.74
			C782.15,722.93,784.11,717.69,784.11,712.18z"/>
		<path class="st0" d="M798.59,705.57c0.52-8.71,8.32-11.33,15.92-11.33c6.75,0,14.87,1.51,14.87,9.63v17.62
			c0,3.08,0.33,6.16,1.18,7.53h-9.43c-0.33-1.05-0.59-2.16-0.66-3.27c-2.95,3.08-7.27,4.19-11.4,4.19
			c-6.42,0-11.53-3.21-11.53-10.15c0-7.66,5.76-9.5,11.53-10.28c5.7-0.85,11-0.65,11-4.45c0-3.99-2.75-4.58-6.02-4.58
			c-3.54,0-5.83,1.44-6.16,5.11H798.59z M820.07,712.45c-1.57,1.38-4.85,1.44-7.73,1.97c-2.88,0.59-5.5,1.57-5.5,4.98
			c0,3.47,2.69,4.32,5.7,4.32c7.27,0,7.53-5.76,7.53-7.79V712.45z"/>
		<path class="st0" d="M836.58,695.16h8.84v4.72h0.2c2.36-3.8,6.42-5.63,10.35-5.63c9.89,0,12.38,5.57,12.38,13.95v20.83h-9.3
			v-19.12c0-5.57-1.64-8.32-5.96-8.32c-5.04,0-7.21,2.82-7.21,9.7v17.75h-9.3V695.16z"/>
		<path class="st0" d="M892.12,733.28c-2.03,5.43-5.24,7.66-11.66,7.66c-1.9,0-3.8-0.13-5.7-0.33v-7.66
			c1.77,0.13,3.6,0.39,5.43,0.33c3.21-0.33,4.26-3.67,3.21-6.35l-11.92-31.77h9.95l7.66,23.19h0.13l7.4-23.19h9.63L892.12,733.28z"
			/>
	</g>
	<path class="st1" d="M340.2,437.92H144.2c-40.03-0.76-45.34,19.78-45.45,45.77v78.3h31.36v-78.2c0.02-2.42,0.81-14.5,14.09-14.5
		h176.86L340.2,437.92z"/>
	<path class="st0" d="M371.39,388.54H119.79c-43.6,0-55.45,16.12-63.43,31.36c-7.43,14.19-6.12,38.58-6.12,39.18v103.08H81.6V459.09
		c0-0.1,0.14-10.26,5.01-20.21c6.25-12.76,17.1-18.97,33.17-18.97h232.46L371.39,388.54z"/>
	<g>
		<path class="st0" d="M502.77,371.16l19.14-31.35c-14.24-0.01-50.59-0.05-99.18-0.09l-12.64,20.7l-0.13,0.03L342.7,469.22
			l0.46-0.01l-0.05,0.08h99.23l19.14-31.36h-58.89l10.98-18.02h59.18l19.14-31.36h-59.2l10.63-17.44
			C468.56,371.12,489.04,371.14,502.77,371.16z"/>
		<path class="st1" d="M400.68,339.71c-174.21-0.13-266.48-1.44-309.39,0.11c-38.12,1.38-61.37,14.77-73.71,31.34
			c-19.38,26.02-17.53,48.75-17.53,60.62v130.62h31.36V431.67l0-0.26c-0.01-0.26-0.34-26.19,16.73-43.83
			c10.37-10.71,24.95-16.23,43.34-16.4c41.83-0.39,114.47-0.25,290.06-0.12L400.68,339.71z"/>
	</g>
</g>
</svg>
