<svg enable-background="new 0 0 128 128" id="Social_Icons" version="1.1" viewBox="0 0 128 128" xml:space="preserve" xmlns="http://www.w3.org/2000/svg" xmlns:xlink="http://www.w3.org/1999/xlink"><g id="_x37__stroke"><g id="Airbnb_1_"><rect clip-rule="evenodd" fill="none" fill-rule="evenodd" height="128" width="128"/><path d="M65.991,94.906c-1.067-1.28-1.931-2.472-3.599-4.899c-0.11-0.16-0.11-0.16-0.22-0.32    c-0.064-0.093-0.064-0.093-0.128-0.187c-2.284-3.412-4.136-6.681-5.584-9.948c-1.379-3.15-2.246-5.994-2.593-8.745    c-0.295-2.548-0.132-4.74,0.563-6.571c0.659-1.818,1.911-3.388,3.507-4.423c3.989-2.622,9.678-2.284,13.189,0.805    c1.678,1.456,2.78,3.689,3.058,6.128c0.35,3.119-0.234,6.519-1.639,10.339c-2.158,5.768-5.506,11.303-10.537,17.91l2.027,1.554    L65.991,94.906z M109.457,104.163c-1.12,3.938-3.824,7.39-7.334,9.368c-3.093,1.762-6.829,2.398-10.396,1.791    c-4.248-0.673-8.424-2.868-12.77-6.434c-2.553-2.09-5-4.53-7.956-7.832l0.114,3.284c4.867-6.269,8.376-11.582,11.087-17.133    c3.038-6.24,4.751-12.066,4.932-17.853c0.121-4.346-0.733-8.533-2.585-12.128c-2.501-4.953-6.994-8.853-12.284-10.749    c-4.789-1.742-10.129-1.909-15.054-0.479c-4.735,1.365-8.968,4.259-11.861,8.181c-2.519,3.383-4.031,7.588-4.378,11.975    c-0.462,5.481,0.674,11.183,3.119,17.22c2.893,7.022,7.102,13.732,12.824,20.925l0.049-3.255c-2.09,2.469-4.417,4.819-6.959,7.042    c-4.333,3.734-8.441,6.106-12.662,7.036c-3.712,0.848-7.621,0.396-10.873-1.279c-3.875-1.967-6.862-5.686-7.983-9.938    c-0.843-3.074-0.7-6.481,0.364-9.676c0.626-1.87,1.257-3.378,2.744-6.695c0.062-0.139,0.062-0.139,0.125-0.279    c0.271-0.606,0.447-0.999,0.626-1.405c8.611-19.122,17.729-38.207,27.336-57.234c0.204-0.403,0.367-0.726,0.734-1.452    c0.019-0.037,0.019-0.037,0.037-0.073c1.716-3.401,2.513-4.949,3.527-6.812c1.361-2.465,2.559-4.067,4.005-5.185    c1.733-1.38,3.907-2.12,6.05-2.07c2.292-0.026,4.532,0.805,6.265,2.288c1.547,1.308,2.73,3.034,4.312,6.041    c2.274,4.35,4.253,8.275,7.878,15.567c0.324,0.651,0.324,0.651,0.648,1.303c0.036,0.072,0.036,0.072,0.072,0.144    c8.123,16.379,15.887,32.823,23.286,49.329c0.1,0.231,0.179,0.408,0.367,0.837c0.069,0.157,0.069,0.157,0.139,0.314    c1.391,3.153,1.961,4.585,2.455,6.36c0.813,2.95,0.819,6.098,0.001,8.951L109.457,104.163z M122.663,98.851    c-0.04-3.68-0.838-7.437-2.286-11.187c-0.717-1.862-1.35-3.328-2.784-6.527c-0.042-0.093-0.042-0.093-0.084-0.187    c-0.199-0.445-0.199-0.445-0.398-0.888c-8.798-19.529-18.051-38.89-27.756-58.083c-0.246-0.482-0.441-0.868-0.874-1.723    c-0.009-0.017-0.009-0.017-0.018-0.035c-1.588-3.137-2.319-4.555-3.272-6.298c-1.744-3.17-3.521-5.647-5.668-7.674    c-3.778-3.668-8.89-5.907-14.202-6.243L63.01,0c-5.58,0.277-10.862,2.605-14.747,6.462c-2.035,1.963-3.741,4.367-5.444,7.458    c-0.956,1.744-1.742,3.266-3.241,6.231c-0.089,0.175-0.089,0.175-0.177,0.35c-0.342,0.677-0.491,0.972-0.684,1.352    c-6.459,12.764-12.762,25.704-18.915,38.824c-4.5,9.636-7.678,16.575-10.736,23.507c-1.887,4.299-2.956,7.514-3.424,10.929    c-0.99,6.587,0.424,13.536,3.914,19.249c3.005,4.958,7.513,8.936,12.759,11.239c4.088,1.8,8.593,2.613,13.029,2.347    c5.605-0.303,11.234-2.271,16.449-5.563c4.772-2.983,9.063-6.846,14.096-12.346l-3.761-0.004    c4.611,5.061,8.614,8.732,13.006,11.651c5.158,3.456,10.689,5.624,16.269,6.16c6.487,0.69,13.186-0.963,18.607-4.625    c4.772-3.201,8.541-7.92,10.659-13.338c1.375-3.506,2.058-7.286,1.993-11.049L122.663,98.851z" fill="#FF7977" id="Airbnb"/></g></g></svg>