<?xml version="1.0" encoding="UTF-8" standalone="no"?>
<!-- Generator: Adobe Illustrator 17.0.0, SVG Export Plug-In . SVG Version: 6.00 Build 0)  -->

<svg
   version="1.1"
   id="Layer_1"
   x="0px"
   y="0px"
   width="70"
   height="74.803001"
   viewBox="0 0 70.000007 74.803"
   enable-background="new 0 0 198.689 74.803"
   xml:space="preserve"
   sodipodi:docname="https __kiwifarms.st_public_brand_Kiwi_Farms_Logo_White_Text.svg"
   inkscape:version="1.3-beta (cedbd6c6ff, 2023-05-28)"
   xmlns:inkscape="http://www.inkscape.org/namespaces/inkscape"
   xmlns:sodipodi="http://sodipodi.sourceforge.net/DTD/sodipodi-0.dtd"
   xmlns="http://www.w3.org/2000/svg"
   xmlns:svg="http://www.w3.org/2000/svg"><defs
   id="defs15" /><sodipodi:namedview
   id="namedview15"
   pagecolor="#ffffff"
   bordercolor="#000000"
   borderopacity="0.25"
   inkscape:showpageshadow="2"
   inkscape:pageopacity="0.0"
   inkscape:pagecheckerboard="0"
   inkscape:deskcolor="#d1d1d1"
   showgrid="false"
   inkscape:zoom="4.2730097"
   inkscape:cx="99.344498"
   inkscape:cy="37.32732"
   inkscape:window-width="1366"
   inkscape:window-height="745"
   inkscape:window-x="-8"
   inkscape:window-y="-8"
   inkscape:window-maximized="1"
   inkscape:current-layer="Layer_1" />&#10;<g
   id="g15">&#10;	&#10;		<linearGradient
   id="SVGID_1_"
   gradientUnits="userSpaceOnUse"
   x1="-296.84601"
   y1="-520.1969"
   x2="-296.84601"
   y2="-595"
   gradientTransform="matrix(1,0,0,-1,332,-520.197)">&#10;		<stop
   offset="0"
   style="stop-color:#D7DF23"
   id="stop1" />&#10;		<stop
   offset="0.1996"
   style="stop-color:#D1DD27"
   id="stop2" />&#10;		<stop
   offset="0.4673"
   style="stop-color:#C1D82F"
   id="stop3" />&#10;		<stop
   offset="0.7722"
   style="stop-color:#A6CE39"
   id="stop4" />&#10;		<stop
   offset="1"
   style="stop-color:#8DC63F"
   id="stop5" />&#10;	</linearGradient>&#10;	<path
   fill="url(#SVGID_1_)"
   d="M 38.616,74.803 C 50.653,64.183 52.226,56.965 44.764,43.406 40.79,36.185 35.625,29.619 30.479,21.989 21.04,32.174 13.108,42.034 10.65,55.079 9.184,62.857 12.52,70.242 19.719,74.803 9.365,74.441 0.657,63.005 0.059,51.936 -0.651,38.789 5.151,28.134 12.676,18.145 15.374,14.563 18.757,11.495 21.418,7.89 27.305,-0.086 35.37,-0.922 44.125,0.661 54.614,2.558 64.506,5.685 70.28,15.807 70.326,15.888 70.168,16.086 70.308,15.766 65.307,12.899 60.506,9.424 55.17,7.289 49.819,5.149 43.947,5.163 38.364,6.956 c 4.931,6.67 9.965,12.852 14.288,19.497 4.684,7.199 7.271,15.175 7.026,24.003 -0.351,12.689 -6.81,20.62 -21.062,24.347 z"
   id="path5"
   style="fill:url(#SVGID_1_)" />&#10;	<circle
   fill="#414042"
   cx="31.165001"
   cy="9.6269999"
   r="2.1010001"
   id="circle5" />&#10;	&#10;	&#10;</g>&#10;</svg>
