<svg version="1.1" id="Layer_1" xmlns="http://www.w3.org/2000/svg" xmlns:xlink="http://www.w3.org/1999/xlink" viewBox="0 0 512 512" enable-background="new 0 0 512 512" xml:space="preserve">
<path fill="#005CEF" opacity="1.000000" stroke="none" 
	d="
M281.920105,479.955444 
	C210.315140,486.734467 148.768677,465.568207 98.291550,414.946228 
	C58.060215,374.599457 37.210186,325.144623 34.494663,268.187683 
	C29.201683,157.169785 109.818001,57.690914 219.455063,39.841007 
	C338.860016,20.400803 449.890045,96.517075 474.606201,214.759064 
	C500.105530,336.747650 417.342560,457.608673 294.224762,478.158508 
	C290.284668,478.816162 286.322601,479.341980 281.920105,479.955444 
M358.125763,172.653549 
	C359.074127,172.248291 360.022461,171.843018 361.580994,171.177002 
	C359.615204,170.205246 358.328491,169.516266 357.000031,168.920349 
	C335.175659,159.130493 312.247528,153.841568 288.422424,152.512360 
	C250.510468,150.397247 214.494904,157.338608 181.075348,175.858932 
	C179.051544,176.980484 177.073746,179.442352 176.464966,181.661911 
	C171.406448,200.104660 170.620972,218.812332 174.458771,237.565231 
	C186.347748,295.659180 234.926849,336.286621 294.179932,337.629059 
	C307.796844,337.937531 321.176788,336.051788 334.448029,331.407013 
	C276.144745,288.661499 288.344635,198.032822 358.125763,172.653549 
M203.308350,344.222137 
	C190.783127,335.299713 180.676575,324.086731 171.865295,311.055786 
	C170.533493,318.687256 169.476166,326.119904 169.692764,333.515259 
	C170.285736,353.760895 183.452087,370.793854 203.119675,375.930786 
	C215.795105,379.241425 228.765244,382.000519 241.774811,383.335083 
	C268.890289,386.116669 295.669098,383.183289 321.823395,375.386993 
	C331.959869,372.365448 340.624664,365.215668 343.521606,358.207489 
	C294.811615,376.178864 248.026703,374.044678 203.308350,344.222137 
z"/>
<path fill="#FEFEFF" opacity="1.000000" stroke="none" 
	d="
M357.765686,172.774170 
	C288.344635,198.032822 276.144745,288.661499 334.448029,331.407013 
	C321.176788,336.051788 307.796844,337.937531 294.179932,337.629059 
	C234.926849,336.286621 186.347748,295.659180 174.458771,237.565231 
	C170.620972,218.812332 171.406448,200.104660 176.464966,181.661911 
	C177.073746,179.442352 179.051544,176.980484 181.075348,175.858932 
	C214.494904,157.338608 250.510468,150.397247 288.422424,152.512360 
	C312.247528,153.841568 335.175659,159.130493 357.000031,168.920349 
	C358.328491,169.516266 359.615204,170.205246 361.580994,171.177002 
	C360.022461,171.843018 359.074127,172.248291 357.765686,172.774170 
z"/>
<path fill="#FBFCFF" opacity="1.000000" stroke="none" 
	d="
M203.590424,344.445068 
	C248.026703,374.044678 294.811615,376.178864 343.521606,358.207489 
	C340.624664,365.215668 331.959869,372.365448 321.823395,375.386993 
	C295.669098,383.183289 268.890289,386.116669 241.774811,383.335083 
	C228.765244,382.000519 215.795105,379.241425 203.119675,375.930786 
	C183.452087,370.793854 170.285736,353.760895 169.692764,333.515259 
	C169.476166,326.119904 170.533493,318.687256 171.865295,311.055786 
	C180.676575,324.086731 190.783127,335.299713 203.590424,344.445068 
z"/>
</svg>