<svg version="1.1" id="Layer_1" xmlns="http://www.w3.org/2000/svg" xmlns:xlink="http://www.w3.org/1999/xlink" x="0px" y="0px"
	 width="100%" viewBox="0 0 512 512" enable-background="new 0 0 512 512" xml:space="preserve">
<path fill="#305067" opacity="1.000000" stroke="none" 
	d="
M513.000000,2.000000 
	C513.000000,172.262405 513.000000,342.524811 513.000000,513.000000 
	C342.975159,513.000000 172.950211,513.000000 2.454576,512.536133 
	C1.981741,345.729462 1.978619,179.386627 1.983886,13.043777 
	C1.984002,9.383125 2.079796,5.722476 2.583392,2.037104 
	C173.023880,2.008255 343.011932,2.004128 513.000000,2.000000 
M149.808701,120.323410 
	C128.473434,132.645355 107.157219,145.000534 85.778793,157.247131 
	C83.113670,158.773819 81.733551,160.307190 81.741005,163.744843 
	C81.876167,226.059982 81.865753,288.375519 81.761765,350.690796 
	C81.756546,353.820312 82.867325,355.413879 85.449905,356.900208 
	C141.722763,389.285889 197.962799,421.728699 254.153336,454.256927 
	C256.648193,455.701172 258.392914,455.668304 260.854919,454.243286 
	C317.047028,421.719299 373.281799,389.268951 429.553680,356.883209 
	C432.149872,355.389099 433.233704,353.795135 433.228516,350.673218 
	C433.125092,288.357941 433.127899,226.042450 433.220886,163.727158 
	C433.225464,160.671448 432.302551,159.001816 429.641205,157.470398 
	C373.366638,125.088448 317.137054,92.628159 260.954651,60.086597 
	C258.269806,58.531528 256.395294,58.715336 253.783875,60.233166 
	C219.385712,80.226227 184.911942,100.089218 149.808701,120.323410 
z"/>
<path fill="#9BB4C8" opacity="1.000000" stroke="none" 
	d="
M2.130959,2.061826 
	C2.079796,5.722476 1.984002,9.383125 1.983886,13.043777 
	C1.978619,179.386627 1.981741,345.729462 1.991937,512.536133 
	C1.666664,511.666656 1.047017,510.334229 1.042923,508.999878 
	C0.981057,488.833405 1.000000,468.666656 1.000000,448.500000 
	C1.000000,299.333344 1.000000,150.166672 1.525742,1.266320 
	C2.077976,1.709034 2.104467,1.885430 2.130959,2.061826 
z"/>
<path fill="#537287" opacity="1.000000" stroke="none" 
	d="
M2.583392,2.037104 
	C2.104467,1.885430 2.077976,1.709034 2.025742,1.266320 
	C172.333328,1.000000 342.666656,1.000000 513.000000,1.500000 
	C343.011932,2.004128 173.023880,2.008255 2.583392,2.037104 
z"/>
<path fill="#FDFEFE" opacity="1.000000" stroke="none" 
	d="
M150.132904,120.154099 
	C184.911942,100.089218 219.385712,80.226227 253.783875,60.233166 
	C256.395294,58.715336 258.269806,58.531528 260.954651,60.086597 
	C317.137054,92.628159 373.366638,125.088448 429.641205,157.470398 
	C432.302551,159.001816 433.225464,160.671448 433.220886,163.727158 
	C433.127899,226.042450 433.125092,288.357941 433.228516,350.673218 
	C433.233704,353.795135 432.149872,355.389099 429.553680,356.883209 
	C373.281799,389.268951 317.047028,421.719299 260.854919,454.243286 
	C258.392914,455.668304 256.648193,455.701172 254.153336,454.256927 
	C197.962799,421.728699 141.722763,389.285889 85.449905,356.900208 
	C82.867325,355.413879 81.756546,353.820312 81.761765,350.690796 
	C81.865753,288.375519 81.876167,226.059982 81.741005,163.744843 
	C81.733551,160.307190 83.113670,158.773819 85.778793,157.247131 
	C107.157219,145.000534 128.473434,132.645355 150.132904,120.154099 
M114.975426,175.799469 
	C114.579185,176.074173 114.182953,176.348877 113.154106,176.819611 
	C112.943718,177.579819 112.733337,178.340042 112.370934,180.012680 
	C112.360306,217.655853 112.332230,255.299026 112.348106,292.942200 
	C112.354004,306.929291 112.462891,320.916351 112.277763,335.512299 
	C112.862144,336.296326 113.446526,337.080383 114.591415,338.271637 
	C161.147842,365.176147 207.710983,392.069061 254.239792,419.021271 
	C256.442566,420.297241 258.089050,420.585571 260.512726,419.180023 
	C306.741089,392.371246 353.026550,365.660583 399.354095,339.023499 
	C401.863556,337.580566 402.729065,335.994019 402.723907,333.127014 
	C402.632843,282.475464 402.628876,231.823700 402.714691,181.172150 
	C402.719513,178.308395 401.818512,176.684021 399.361694,175.270370 
	C353.043335,148.618408 306.783478,121.864761 260.414246,95.301903 
	C258.861389,94.412354 255.921677,94.592545 254.262772,95.471458 
	C246.765381,99.443733 239.494324,103.843597 232.145569,108.096039 
	C194.107651,130.107101 156.070892,152.120148 117.418129,174.216919 
	C116.762199,174.700943 116.106277,175.184952 114.975426,175.799469 
z"/>
<path fill="#325168" opacity="1.000000" stroke="none" 
	d="
M118.033745,174.132523 
	C156.070892,152.120148 194.107651,130.107101 232.145569,108.096039 
	C239.494324,103.843597 246.765381,99.443733 254.262772,95.471458 
	C255.921677,94.592545 258.861389,94.412354 260.414246,95.301903 
	C306.783478,121.864761 353.043335,148.618408 399.361694,175.270370 
	C401.818512,176.684021 402.719513,178.308395 402.714691,181.172150 
	C402.628876,231.823700 402.632843,282.475464 402.723907,333.127014 
	C402.729065,335.994019 401.863556,337.580566 399.354095,339.023499 
	C353.026550,365.660583 306.741089,392.371246 260.512726,419.180023 
	C258.089050,420.585571 256.442566,420.297241 254.239792,419.021271 
	C207.710983,392.069061 161.147842,365.176147 114.277847,337.777557 
	C113.484459,336.490112 113.004639,335.696777 112.524811,334.903412 
	C112.462891,320.916351 112.354004,306.929291 112.348106,292.942200 
	C112.332230,255.299026 112.360306,217.655853 112.688988,179.394562 
	C113.266930,178.058807 113.526825,177.341202 113.786713,176.623581 
	C114.182953,176.348877 114.579185,176.074173 115.542587,175.743271 
	C116.751076,175.168884 117.392410,174.650711 118.033745,174.132523 
M267.041656,277.410156 
	C266.694000,278.800873 266.045349,280.191010 266.042877,281.582367 
	C265.986450,313.177582 265.980927,344.772980 266.062775,376.368103 
	C266.066681,377.877960 266.960114,379.385559 267.891937,381.471832 
	C269.674683,381.233551 271.751587,381.508759 273.196655,380.680969 
	C301.176453,364.653748 329.087341,348.506134 356.998077,332.358521 
	C361.250305,329.898438 361.323242,328.700958 357.250275,326.343964 
	C329.053772,310.026581 300.843079,293.733337 272.570312,277.548798 
	C271.267883,276.803253 269.327881,277.171539 267.041656,277.410156 
M248.006683,380.547974 
	C248.135422,380.638275 248.256165,380.782745 248.395187,380.803223 
	C248.527908,380.822723 248.808304,380.701599 248.804733,380.661926 
	C248.453995,376.742950 248.082367,372.825836 247.425461,368.020874 
	C247.403625,339.477356 247.371796,310.933807 247.375641,282.390289 
	C247.376022,279.585907 247.595322,276.781555 248.238098,273.538452 
	C248.064682,270.996765 247.891266,268.455078 247.355591,265.360748 
	C245.585251,263.517212 244.122467,261.144928 241.998474,259.909393 
	C209.793671,241.175583 177.504501,222.586853 145.228851,203.974930 
	C139.855225,200.876205 139.188370,201.270370 139.186783,207.531769 
	C139.177719,243.488968 139.235840,279.446350 139.108154,315.403107 
	C139.092667,319.764008 140.572083,322.470154 144.384003,324.611603 
	C157.869400,332.187408 171.210175,340.020660 184.606232,347.755554 
	C203.619751,358.733948 222.625305,369.726166 241.659653,380.668274 
	C243.685059,381.832611 245.985947,384.027405 248.006683,380.547974 
M346.582581,175.915588 
	C319.044983,160.008743 291.470062,144.165863 264.006683,128.131943 
	C259.440063,125.465836 255.586044,125.453156 251.009766,128.120865 
	C220.226242,146.065964 189.333755,163.824051 158.486969,181.660721 
	C153.393570,184.605896 153.409729,185.451187 158.597626,188.447983 
	C189.596161,206.354324 220.633698,224.193558 251.576355,242.195908 
	C255.862473,244.689575 259.504364,244.555130 263.667847,242.050949 
	C273.225891,236.302109 282.946594,230.823364 292.608582,225.247726 
	C314.095001,212.848633 335.595825,200.474426 357.066711,188.048508 
	C361.371582,185.557129 361.351868,184.560379 357.153778,182.040131 
	C353.871490,180.069656 350.539612,178.181854 346.582581,175.915588 
z"/>
<path fill="#5C6F7D" opacity="1.000000" stroke="none" 
	d="
M112.401291,335.207855 
	C113.004639,335.696777 113.484459,336.490112 113.997589,337.573944 
	C113.446526,337.080383 112.862144,336.296326 112.401291,335.207855 
z"/>
<path fill="#5C6F7D" opacity="1.000000" stroke="none" 
	d="
M117.725937,174.174713 
	C117.392410,174.650711 116.751076,175.168884 115.780045,175.678024 
	C116.106277,175.184952 116.762199,174.700943 117.725937,174.174713 
z"/>
<path fill="#5C6F7D" opacity="1.000000" stroke="none" 
	d="
M113.470413,176.721588 
	C113.526825,177.341202 113.266930,178.058807 112.764999,178.938339 
	C112.733337,178.340042 112.943718,177.579819 113.470413,176.721588 
z"/>
<path fill="#FEFEFE" opacity="1.000000" stroke="none" 
	d="
M247.712997,273.977173 
	C247.595322,276.781555 247.376022,279.585907 247.375641,282.390289 
	C247.371796,310.933807 247.403625,339.477356 247.442825,368.890320 
	C247.545547,373.241364 247.630905,376.722931 247.716263,380.204498 
	C245.985947,384.027405 243.685059,381.832611 241.659653,380.668274 
	C222.625305,369.726166 203.619751,358.733948 184.606232,347.755554 
	C171.210175,340.020660 157.869400,332.187408 144.384003,324.611603 
	C140.572083,322.470154 139.092667,319.764008 139.108154,315.403107 
	C139.235840,279.446350 139.177719,243.488968 139.186783,207.531769 
	C139.188370,201.270370 139.855225,200.876205 145.228851,203.974930 
	C177.504501,222.586853 209.793671,241.175583 241.998474,259.909393 
	C244.122467,261.144928 245.585251,263.517212 247.409882,266.027161 
	C247.547119,269.121429 247.630051,271.549286 247.712997,273.977173 
z"/>
<path fill="#FDFEFE" opacity="1.000000" stroke="none" 
	d="
M346.906189,176.086456 
	C350.539612,178.181854 353.871490,180.069656 357.153778,182.040131 
	C361.351868,184.560379 361.371582,185.557129 357.066711,188.048508 
	C335.595825,200.474426 314.095001,212.848633 292.608582,225.247726 
	C282.946594,230.823364 273.225891,236.302109 263.667847,242.050949 
	C259.504364,244.555130 255.862473,244.689575 251.576355,242.195908 
	C220.633698,224.193558 189.596161,206.354324 158.597626,188.447983 
	C153.409729,185.451187 153.393570,184.605896 158.486969,181.660721 
	C189.333755,163.824051 220.226242,146.065964 251.009766,128.120865 
	C255.586044,125.453156 259.440063,125.465836 264.006683,128.131943 
	C291.470062,144.165863 319.044983,160.008743 346.906189,176.086456 
z"/>
<path fill="#FDFEFE" opacity="1.000000" stroke="none" 
	d="
M267.684814,277.021027 
	C269.327881,277.171539 271.267883,276.803253 272.570312,277.548798 
	C300.843079,293.733337 329.053772,310.026581 357.250275,326.343964 
	C361.323242,328.700958 361.250305,329.898438 356.998077,332.358521 
	C329.087341,348.506134 301.176453,364.653748 273.196655,380.680969 
	C271.751587,381.508759 269.674683,381.233551 267.726715,380.748077 
	C267.602600,345.689880 267.643707,311.355469 267.684814,277.021027 
z"/>
<path fill="#2C475A" opacity="1.000000" stroke="none" 
	d="
M267.363220,277.215576 
	C267.643707,311.355469 267.602600,345.689880 267.500427,380.459259 
	C266.960114,379.385559 266.066681,377.877960 266.062775,376.368103 
	C265.980927,344.772980 265.986450,313.177582 266.042877,281.582367 
	C266.045349,280.191010 266.694000,278.800873 267.363220,277.215576 
z"/>
<path fill="#2A485C" opacity="1.000000" stroke="none" 
	d="
M247.861481,380.376221 
	C247.630905,376.722931 247.545547,373.241364 247.586121,369.334229 
	C248.082367,372.825836 248.453995,376.742950 248.804733,380.661926 
	C248.808304,380.701599 248.527908,380.822723 248.395187,380.803223 
	C248.256165,380.782745 248.135422,380.638275 247.861481,380.376221 
z"/>
<path fill="#2A485C" opacity="1.000000" stroke="none" 
	d="
M247.975555,273.757812 
	C247.630051,271.549286 247.547119,269.121429 247.591003,266.303467 
	C247.891266,268.455078 248.064682,270.996765 247.975555,273.757812 
z"/>
</svg>
