<svg xmlns="http://www.w3.org/2000/svg" fill="none" viewBox="0 0 32 32">
    <g clip-path="url(#clip0)">
        <path fill="#FFCB05" d="M24.798 0H7.202C3.224 0 0 3.224 0 7.202v17.596C0 28.776 3.224 32 7.202 32h17.596C28.776 32 32 28.776 32 24.798V7.202C32 3.224 28.776 0 24.798 0z"/>
        <path fill="#003DA5" d="M16.172 29.287c.125.003.249-.025.36-.082.408-.28.755-.639 1.02-1.057l-4.872 1.2 3.492-.06zM13.624 26.432c.493.163.968.377 1.417.637l3.155-.053.27-.3c.075-.142.075-.27 0-.344-.075-.075-.248-.105-.547-.105h-4.28s-.12 0-.134.06c-.007.022-.007.045 0 .067.037.02.078.032.12.038zM19.964 27.219l-4.758.082s-.045 0-.045.045c0 .337-.45.66-1.05.944-.599.285-1.438.607-1.858.75l-.33.127c-.045 0-.075.06-.06.098.015.037.06.067.218 0l.232-.06c.802-.21 2.248-.577 3.687-.93 1.439-.352 2.923-.652 3.964-.809.083 0 .158-.06.15-.127-.007-.068-.045-.12-.15-.12z"/>
        <path fill="#00F" d="M24.506 7.749c-2.36-2.36-5.246-3.14-9.63-3.14-2.413 0-5.246.052-7.921.127V22.91l3.447.082V8.986c1.454-.038 3.312-.098 4.961-.098 5.081 0 7.764 1.357 7.764 4.804 0 3.994-3.193 5.103-7.57 5.103h-1.723v4.264h1.042c4.362 0 7.27-.749 9.63-3.14 1.492-1.67 2.317-3.833 2.317-6.074 0-2.24-.825-4.402-2.317-6.074V7.75z"/>
    </g>
    <defs>
        <clipPath id="clip0">
            <path fill="#fff" d="M0 0H32V32H0z"/>
        </clipPath>
    </defs>
</svg>
