<svg viewBox="0 0 3159 692" version="1.1" xmlns="http://www.w3.org/2000/svg" xmlns:xlink="http://www.w3.org/1999/xlink" xml:space="preserve" xmlns:serif="http://www.serif.com/" style="fill-rule:evenodd;clip-rule:evenodd;stroke-linejoin:round;stroke-miterlimit:2;">
    <g>
        <path d="M212.5,462.958C316.162,462.958 356.538,399.708 356.538,291.458C356.538,183.208 309.375,107.754 215.625,107.754L110.537,107.754L110.537,462.958L212.5,462.958ZM0,13.25L229.167,13.25C374.746,13.25 468.5,130.625 468.5,291.458C468.5,379.879 438.792,457.625 381.621,505.667C341.208,539.208 288.625,558.25 220.042,558.25L0,558.25L0,13.25Z" style="fill:white;fill-rule:nonzero;"/>
        <path d="M784.375,363.125C784.375,286.875 748.583,235.042 685.292,235.042C621.292,235.042 586.208,286.875 586.208,363.125C586.208,439.375 621.292,490.417 685.292,490.417C748.583,490.417 784.375,439.333 784.375,363.125ZM481,363.125C481,246.463 564.083,156.542 685.167,156.542C806.25,156.542 889.333,246.5 889.333,363.125C889.333,479.75 806.25,569.708 685.167,569.708C564.083,569.708 481,479.75 481,363.125Z" style="fill:white;fill-rule:nonzero;"/>
        <path d="M906.708,363.125C906.708,246.463 982.958,156.542 1101.88,156.542C1203.25,156.542 1265.75,215.25 1279.46,299.837L1178.08,299.837C1171.21,265.546 1144.54,239.625 1106.42,239.625C1043.92,239.625 1011.92,287.671 1011.92,363.125C1011.92,437.042 1041.62,486.625 1104.92,486.625C1146.83,486.625 1176.54,464.5 1183.42,420.292L1283.42,420.292C1276.54,503.375 1211.75,569.708 1107.33,569.708C983.708,569.708 906.708,479.75 906.708,363.125Z" style="fill:white;fill-rule:nonzero;"/>
        <path d="M1553.21,558.25L1553.21,512.417L1550.92,512.417C1524.25,548.212 1493.75,568.792 1438.88,568.792C1351.96,568.792 1303.17,513.167 1303.17,427.792L1303.17,167.212L1406.08,167.212L1406.08,410.379C1406.08,456.208 1426.67,481.208 1470.88,481.208C1519.67,481.208 1549.38,444.625 1549.38,392.792L1549.38,167.212L1653.04,167.212L1653.04,558.25L1553.21,558.25Z" style="fill:white;fill-rule:nonzero;"/>
        <path d="M2158.04,167.417L2261.71,167.417L2261.71,558.458L2158.04,558.458L2158.04,167.417ZM2158.04,15.833L2261.71,15.833L2261.71,112.542L2158.04,112.542L2158.04,15.833Z" style="fill:white;fill-rule:nonzero;"/>
        <path d="M2578.42,345.588C2578.42,288.417 2547.96,239.625 2485.42,239.625C2432.83,239.625 2397.92,280.792 2397.92,346.333C2397.92,412.671 2432.96,451.542 2486.33,451.542C2551.75,451.542 2578.42,403.333 2578.42,345.588ZM2304.79,569.708L2407.67,569.708C2416,594.083 2438.17,613.125 2486.21,613.125C2544.88,613.125 2573.08,584.917 2573.08,531.583L2573.08,488.875L2570.83,488.875C2548,514.792 2518.25,534.708 2468.71,534.708C2381.79,534.708 2296.42,466.125 2296.42,347.958C2296.42,231.292 2366.58,156.625 2465.67,156.625C2514.46,156.625 2550.25,175.667 2574,208.458L2575.5,208.458L2575.5,167.212L2675.5,167.212L2675.5,528.542C2675.5,583.417 2657.96,620.75 2629,647.458C2595.83,677.917 2545.83,691.667 2487.71,691.667C2381,691.667 2315.46,645.917 2304.79,569.708Z" style="fill:white;fill-rule:nonzero;"/>
        <path d="M2820.83,220.588L2823.12,220.588C2849.79,178.671 2885.62,156.542 2939,156.542C3019.79,156.542 3073.92,217.546 3073.92,302.917L3073.92,558.25L2970.42,558.25L2970.42,318.171C2970.42,276.213 2946,246.5 2902.58,246.5C2856.75,246.5 2823.42,283.088 2823.42,336.462L2823.42,558.25L2719.62,558.25L2719.62,167.212L2820.83,167.212L2820.83,220.588Z" style="fill:white;fill-rule:nonzero;"/>
        <path d="M1921.83,229.712C1841.04,212.208 1802.96,199.25 1802.96,155.046C1802.96,116.171 1841.83,91 1901.29,91C1955.46,91 1997.12,116.458 2005.46,167.212L2111.79,167.212C2101,61.333 2022.46,3.333 1902.04,3.333C1780.83,3.333 1693.17,58.963 1693.17,166.458C1693.17,280.046 1782.38,305.958 1879.92,328.046C1963,347.125 2014.83,357.796 2014.83,411.129C2014.83,461.458 1965.29,481.25 1908.92,481.25C1831.12,481.25 1793.79,455.333 1786.17,389.587L1677.83,389.587C1681.67,504.708 1765.33,570.25 1913.38,570.25C2036.12,570.25 2125.29,508.5 2125.29,397.958C2125.38,280.792 2033.92,254.125 1921.83,229.712Z" style="fill:white;fill-rule:nonzero;"/>
        <path d="M3116.17,163.463C3096.95,163.463 3081.38,179.038 3081.38,198.25C3081.38,217.467 3096.95,233.042 3116.17,233.042C3135.38,233.042 3150.96,217.467 3150.96,198.25L3150.96,198.208C3150.94,179.012 3135.36,163.463 3116.17,163.463ZM3116.17,239.458C3093.38,239.458 3074.92,220.992 3074.92,198.208C3074.92,175.429 3093.38,156.963 3116.17,156.963C3138.95,156.963 3157.42,175.429 3157.42,198.208C3157.39,220.983 3138.94,239.437 3116.17,239.458Z" style="fill:white;fill-rule:nonzero;"/>
        <path d="M3109.79,183.833L3109.79,197L3117.71,197C3121.32,197.392 3124.57,194.779 3124.96,191.167C3124.99,190.904 3125,190.642 3125,190.379C3125.09,187.987 3123.77,185.775 3121.62,184.708C3118.95,183.817 3116.1,183.521 3113.29,183.833L3109.79,183.833ZM3102,177.004L3115.42,177.004C3121.04,177.004 3124.79,177.004 3128.5,180.046C3131.59,182.604 3133.31,186.45 3133.17,190.462C3133.38,195.775 3129.94,200.554 3124.83,202.042L3134.21,219.167L3125.21,219.167L3116.67,203.333L3109.62,203.333L3109.62,219.167L3101.83,219.167L3102,177.004Z" style="fill:white;fill-rule:nonzero;"/>
    </g>
</svg>
