<svg clip-rule="evenodd" fill-rule="evenodd" stroke-linejoin="round" stroke-miterlimit="2" version="1.1" viewBox="-.002116 24.688 500 450.63" xml:space="preserve" xmlns="http://www.w3.org/2000/svg">
    <g transform="matrix(18.123 0 0 18.123 -2037.4 -344.63)">
        <path d="m122.74 23.623c0.275 0.052 0.514 0.223 0.652 0.467 0.085 0.18 0.126 0.377 0.118 0.576-5e-3 0.276-0.039 0.551-0.1 0.82-0.065 0.36-0.169 0.713-0.308 1.052-0.126 0.292-0.323 0.549-0.573 0.745-0.85 0.516-1.797 0.852-2.782 0.985-1.428 0.256-2.822 0.672-4.157 1.239-0.838 0.376-1.506 1.05-1.876 1.891-0.304 0.718-0.529 1.467-0.671 2.234l-0.539 2.743h12.372l0.577-2.779h-8.609c0.059-0.309 0.14-0.614 0.243-0.912 0.12-0.289 0.314-0.542 0.564-0.731 0.268-0.182 0.568-0.315 0.883-0.391 0.707-0.2 1.682-0.329 3.118-0.7 1.401-0.252 2.712-0.862 3.808-1.77 0.948-1.039 1.554-2.345 1.737-3.739 0.132-0.591 0.205-1.194 0.218-1.8 0.025-0.579-0.106-1.154-0.379-1.666-0.248-0.413-0.618-0.74-1.058-0.937-1.237-0.448-2.553-0.633-3.865-0.544-1.665-0.128-3.334 0.197-4.829 0.942-1.19 0.729-2.019 2.058-2.48 4.22l-0.13 0.611h3.762l0.143-0.676c0.075-0.499 0.255-0.976 0.528-1.4 0.272-0.318 0.663-0.509 1.081-0.527 0.399-0.042 0.799-0.059 1.2-0.051h0.222c0.379-0.013 0.759 0.018 1.131 0.094l-1e-3 4e-3zm10.377-1.529c-0.437 0.455-4.108 4.3-5.611 5.871-0.296 0.29-0.553 0.616-0.765 0.971-0.158 0.398-0.273 0.812-0.343 1.235-0.16 0.887-0.28 1.7-0.354 2.028-0.018 0.078-0.027 0.157-0.028 0.237-5e-3 0.226 0.094 0.442 0.269 0.586 0.158 0.127 0.356 0.193 0.559 0.188h7.288l-0.671 3.168 3.837-0.362 0.6-2.806h1.37l0.6-2.805h-1.371s1.368-6.4 1.412-6.641c0.471-2.592-0.6-3.35-3.027-3.35-1.448-0.074-2.848 0.551-3.758 1.68h-7e-3zm1.611 8.312h-5.506l6.551-6.788h0.4l-1.445 6.788zm-10.2 14.834c-2.425 0.015-4.808-0.647-6.878-1.911-1.466-0.89-2.727-2.081-3.7-3.493l-0.716 1.864c-0.063 0.147-0.208 0.242-0.367 0.242-0.212 0-0.389-0.168-0.4-0.38l-0.039-3.654c6e-3 -0.215 0.185-0.388 0.4-0.388h3.718c0.212 6e-3 0.383 0.182 0.383 0.394 0 0.162-0.1 0.308-0.251 0.367l-1.814 0.7c2.597 2.348 5.968 3.665 9.469 3.7 0.393 0 0.793-0.018 1.188-0.051 1.947-0.167 3.858-0.632 5.664-1.379 1.436-0.58 2.771-1.386 3.953-2.387l-1.873-0.553c-0.168-0.049-0.284-0.203-0.284-0.378v-0.038c0.019-0.188 0.17-0.338 0.359-0.354l3.632-0.331h0.04c0.092 0 0.182 0.032 0.253 0.091 0.082 0.067 0.133 0.165 0.141 0.271 0.3 3.569 0.3 3.57 0.3 3.583-7e-3 0.214-0.185 0.386-0.4 0.386-0.148 0-0.284-0.082-0.353-0.212l-0.876-1.679c-1.048 1.389-2.354 2.564-3.847 3.459-1.962 1.188-4.174 1.901-6.46 2.083l-0.234 0.019c-0.337 0.021-0.675 0.033-1.008 0.033v-4e-3z" fill="#063773" fill-rule="nonzero"/>
    </g>
</svg>
