<svg viewBox="0 0 66 64" xmlns="http://www.w3.org/2000/svg"><path d="m32.8102 0c-18.1183 0-32.8102 14.6894-32.8102 32.8102 0 14.4964 9.40108 26.7952 22.4377 31.1336 1.6397.3037 2.2418-.7118 2.2418-1.5785 0-.7823-.0308-3.3668-.0446-6.1083-9.1278 1.9845-11.0539-3.8713-11.0539-3.8713-1.4926-3.7924-3.64317-4.801-3.64317-4.801-2.97674-2.0363.22457-1.9942.22457-1.9942 3.2946.2312 5.0294 3.3809 5.0294 3.3809 2.9265 5.0158 7.6757 3.5658 9.5479 2.7274.2946-2.1204 1.1448-3.5681 2.0832-4.3874-7.2876-.8294-14.9485-3.6429-14.9485-16.2147 0-3.5822 1.2816-6.5092 3.3804-8.8069-.3406-.8264-1.4636-4.1633.3179-8.6829 0 0 2.7553-.8818 9.0253 3.3633 2.6171-.727 5.4239-1.0915 8.2122-1.104 2.7884.0125 5.5974.3768 8.2194 1.104 6.2624-4.2448 9.0138-3.363 9.0138-3.363 1.7858 4.519.6623 7.8564.3217 8.6826 2.1037 2.2977 3.3766 5.2247 3.3766 8.8069 0 12.6018-7.6755 15.3766-14.9816 16.1889 1.1768 1.0181 2.2254 3.0149 2.2254 6.0759 0 4.3899-.0379 7.9231-.0379 9.0038 0 .8733.5906 1.8963 2.2536 1.5739 13.0294-4.343 22.4187-16.6372 22.4187-31.1287 0-18.1211-14.6899-32.8105-32.8097-32.8105zm-20.5216 46.7388c-.0723.163-.3289.212-.5624.1-.2381-.1069-.3716-.3292-.2947-.4927.0707-.1679.3278-.2148.5652-.1023.2383.1072.3742.3315.2919.495zm1.6139 1.4401c-.1564.145-.4625.0776-.6701-.1515-.2145-.2287-.2548-.5347-.0961-.6819.1615-.145.458-.0771.6731.1515.2148.2315.2563.5352.0931.6819zm1.1073 1.8424c-.2012.1397-.5298.0088-.7331-.2829-.201-.2917-.201-.6416.0043-.7818.2038-.1403.5276-.0141.7334.2755.2004.2966.2004.6465-.0049.7895zm1.8722 2.134c-.1797.1984-.5629.1451-.8433-.1256-.2868-.2646-.3666-.6398-.1861-.8382.182-.1989.5672-.1431.8497.1256.2845.264.3717.6421.1797.8382zm2.4203.7203c-.0795.257-.4486.3739-.82.2647-.3712-.1125-.6139-.4134-.5391-.6731.0772-.2589.4478-.3804.822-.2635.3707.1118.6142.4104.5371.6719zm2.7539.3057c.0093.2705-.3058.4948-.6959.4999-.3922.0087-.7098-.2102-.7141-.4768 0-.273.3081-.4952.7005-.5019.3902-.0077.7095.2097.7095.4788zm2.7056-.1038c.0466.2641-.2243.5352-.6119.6075-.3806.0695-.7333-.0935-.7818-.3552-.0471-.2707.2289-.5419.6091-.6119.388-.0674.7351.0913.7846.3596z" fill="#fff"/></svg>