<svg viewBox="0 0 24.000999450683594 17" version="1.1" xmlns="http://www.w3.org/2000/svg" xmlns:xlink="http://www.w3.org/1999/xlink" xml:space="preserve" xmlns:serif="http://www.serif.com/" style="fill-rule:evenodd;clip-rule:evenodd;stroke-linejoin:round;stroke-miterlimit:2;">
    <g transform="matrix(1,0,0,1,0,-3.5)">
        <path d="M18.841,5.791C18.09,5.791 17.37,5.943 16.74,6.246C16.005,4.925 14.611,4.015 13.051,4.015C11.85,4.015 10.755,4.531 10.005,5.337L9.99,5.322C9.12,4.212 7.8,3.5 6.27,3.5C3.72,3.5 1.62,5.594 1.62,8.205C1.62,8.859 1.755,9.496 2.01,10.073C0.811,10.786 0,12.107 0,13.625C0,15.902 1.801,17.723 4.005,17.723C4.29,17.723 4.56,17.709 4.83,17.647C5.43,19.317 7.021,20.5 8.88,20.5C10.666,20.5 12.196,19.409 12.855,17.845C13.35,18.073 13.905,18.224 14.505,18.224C15.93,18.224 17.16,17.435 17.805,16.251C18.136,16.312 18.48,16.356 18.825,16.356C21.69,16.356 24.001,13.988 24.001,11.074C24.001,8.16 21.69,5.791 18.841,5.791Z" style="fill:rgb(34,160,224);fill-rule:nonzero;"></path>
    </g>
</svg>