<svg version="1.1" id="Layer_1" xmlns="http://www.w3.org/2000/svg" xmlns:xlink="http://www.w3.org/1999/xlink" x="0px" y="0px"
	 viewBox="0 0 612 792" style="enable-background:new 0 0 612 792;" xml:space="preserve">
<style type="text/css">
	.st0{fill:#008CBC;}
	.st1{fill:#79CCF0;}
	.st2{fill:#0176A7;}
	.st3{fill:#56B9E3;}
	.st4{fill:#34AEE2;}
	.st5{fill:#01698D;}
	.st6{fill:#089FC9;}
	.st7{fill:#025472;}
	.st8{fill:#8BD9FE;}
	.st9{fill:#7BCDF0;}
	.st10{fill:#06ACE7;}
	.st11{fill:#009CE0;}
</style>
<path class="st0" d="M375.13,357.16c0.17,0.75,0.35,1.51,0.52,2.26c-1.95,0.14-1.65,1.6-1.62,2.83c0.44,19.15-0.35,38.29,0.57,57.46
	c0.8,16.85,0.09,33.78,0.05,50.67c-0.55,0.01-1.09,0.02-1.64,0.03c0,0,0.07,0.05,0.07,0.05c0.33-1.19-0.17-2.2-0.55-3.29
	c-3.33-9.68-6.59-19.37-9.87-29.06c-4.41-13.04-8.8-26.07-13.21-39.11c-3.8-11.24-7.61-22.48-11.43-33.72
	c-2.36-6.93-4.72-13.87-7.14-20.78c-0.08-0.23-0.25-2.48-1.28-0.36c-0.65,0.13-1.12,0.38-1.44,1.06
	c-5.78,12.51-11.49,25.04-17.43,37.47c-2.04,4.27-3.4,8.88-6.34,12.71c-0.38-0.32-0.93-0.57-1.12-0.99
	c-4.52-9.85-8.88-19.78-13.52-29.58c-3.51-7.41-6.43-15.09-10.62-22.17c0.03-0.48,0.06-0.97,0.1-1.45l-0.08-0.12
	c0.76-0.04,1.51-0.07,2.27-0.11c16.59,0.05,33.18,0.1,49.76,0.15c0.1,0.65,0.28,1.24,1.02,1.45c11.22,3.19,22.27,6.9,33.35,10.52
	c2.79,0.91,5.42,2.71,8.56,2.56C374.45,356.14,374.79,356.65,375.13,357.16z"/>
<path class="st1" d="M281.42,340.95c-0.76,0.04-1.51,0.07-2.27,0.11c0.02-0.76-0.07-1.54,0.07-2.28
	c2.87-14.43,5.81-28.84,8.61-43.28c0.6-3.09,2.14-6.1,1.25-9.4c2.99-1.7,6.26-0.4,8.74,0.46c5.01,1.72,10.27,1.17,15.16,2.68
	c7.31,2.26,15.07,1.83,22.4,4.24c4.13,1.36,8.74,1.27,13.13,1.79c1.54,0.18,2.1-0.8,2.7-2.09c1.7-3.63,2.93-7.5,5.21-10.85
	c6.27,10.44,12.4,20.96,18.96,31.21c0.99,1.54,0.94,4.53,3.89,4.59l0.24,0.23c-0.07,0.72-0.15,1.43-0.22,2.15
	c-0.24,0.01-0.48,0.02-0.71,0.02c-3.87-0.02-6.81,2.49-10.14,3.86c-5.99,2.47-11.78,5.45-17.73,8.03
	c-6.43,2.79-12.95,5.37-19.43,8.03c-0.94-0.63-0.86-1.39-0.42-2.31c4.34-9.25,8.85-18.43,12.89-27.81c1.72-3.99,4.32-7.79,4.7-12.82
	c-1.17,0.53-1.91,0.75-2.52,1.16c-8.57,5.75-17.27,11.27-26.09,16.64c-10.3,6.28-20.11,13.35-30.56,19.43
	C286.46,336.36,282.96,337.55,281.42,340.95z"/>
<path class="st2" d="M309.81,509.23c-2.08-1.2-1.96-3.58-2.88-5.4c-0.96-1.91-1.8-3.88-2.65-5.84
	c-12.59-29.37-25.17-58.74-37.76-88.11c-2.18-5.09-4.42-10.16-6.64-15.24c0,0,0.19,0.07,0.19,0.07l0.19-0.08
	c14.72,0.49,29.43,0.99,44.15,1.48c0.76,13.65,1.73,27.3,2.21,40.96c0.38,10.77,0.85,21.51,1.53,32.27
	C308.98,482.62,309.28,495.93,309.81,509.23z"/>
<path class="st3" d="M289.1,286.1c0.89,3.3-0.65,6.31-1.25,9.4c-2.8,14.44-5.75,28.86-8.61,43.28c-0.15,0.73-0.05,1.52-0.07,2.28
	c0,0,0.08,0.12,0.08,0.12c-7.32,2.66-15.14,2.93-22.69,4.27c-10.49,1.86-21,3.82-31.58,5.25c-5.93,0.8-11.64,3.16-17.78,2.59
	c3.22-4.1,7.83-6.57,11.72-9.87c8.47-7.19,16.87-14.49,25.67-21.27c8.82-6.79,17.27-14.02,26-20.91
	C276.83,296.31,282.93,291.15,289.1,286.1z"/>
<path class="st4" d="M207.18,353.29c6.14,0.57,11.85-1.79,17.78-2.59c10.58-1.43,21.09-3.38,31.58-5.25
	c7.55-1.34,15.37-1.61,22.69-4.27c-0.03,0.49-0.06,0.97-0.1,1.45c-0.86,0.65-1.13,1.63-1.48,2.58
	c-5.11,14.09-10.25,28.17-15.34,42.26c-0.84,2.33-2.48,4.45-2.06,7.15l-0.19,0.08c0,0-0.19-0.07-0.19-0.07
	c-5.25-3.97-10.52-7.93-15.76-11.92c-9.51-7.24-19.43-13.95-28.7-21.52c-2.32-1.9-4.95-3.43-7.45-5.11
	c-0.74-0.49-1.62-0.83-1.46-1.97c0.05-0.19,0.07-0.39,0.05-0.59C206.74,353.4,206.95,353.31,207.18,353.29z"/>
<path class="st5" d="M329.61,344.14c1.03-2.12,1.2,0.13,1.28,0.36c2.42,6.91,4.79,13.84,7.14,20.78
	c3.82,11.24,7.63,22.48,11.43,33.72c4.41,13.03,8.8,26.07,13.21,39.11c3.28,9.69,6.54,19.39,9.87,29.06
	c0.38,1.1,0.87,2.11,0.55,3.29c-5.12-6.74-10.3-13.43-15.33-20.24c-9.92-13.42-19.74-26.9-29.61-40.35
	c-0.02-0.24-0.03-0.48-0.02-0.72c0.34-7.59,0.37-15.21,0.53-22.79C328.94,372.29,329.75,358.22,329.61,344.14z"/>
<path class="st6" d="M374.65,470.38c0.04-16.89,0.75-33.82-0.05-50.67c-0.92-19.17-0.12-38.31-0.57-57.46
	c-0.03-1.23-0.33-2.69,1.62-2.83c0.21,0.28,0.42,0.56,0.64,0.84c0.06,1.01-0.08,2.08,0.2,3.02c4.54,15.13,9.17,30.24,13.7,45.38
	c2.85,9.54,5.56,19.13,8.34,28.7c-4.16,7.04-9.31,13.42-13.64,20.32c-2.8,4.46-6.72,8.19-8.58,13.24c-0.91,0.19-0.42,1.63-1.49,1.67
	c-0.02-0.3-0.05-0.59-0.07-0.89C374.71,471.27,374.68,470.82,374.65,470.38z"/>
<path class="st7" d="M328.12,409.16c-0.01,0.24,0,0.48,0.02,0.72c-4.1,22.64-8.12,45.3-12.34,67.93c-1.95,10.48-3.31,21.08-6,31.43
	c-0.53-13.3-0.82-26.61-1.66-39.89c-0.68-10.75-1.15-21.5-1.53-32.27c-0.48-13.66-1.45-27.31-2.21-40.96c0,0,0,0,0,0
	c1.01,0.51,2.04,0.97,3.01,1.54C314.26,401.61,320.96,405.8,328.12,409.16z"/>
<path class="st1" d="M380.85,265.44c4.49-1.39,9.06-2.19,13.76-2.63c7.43-0.7,14.84-1.76,22.25-2.66
	c-4.66,7.11-9.39,14.18-13.96,21.35c-1.59,2.49-3.87,4.62-4.38,7.73c0,0,0.03-0.04,0.03-0.04c-1.16,0.08-1.86,0.39-0.77,1.57
	c-5.32,8.22-10.66,16.41-15.91,24.67c-0.69,1.08-1.32,2.13-2.35,2.9c0,0-0.24-0.23-0.23-0.23c0.29-9.72,0.57-19.45,0.88-29.18
	c0.03-0.88,0.16-1.76,0.3-2.63c1.02-6.37-0.18-12.88,1.14-19.25C381.7,266.6,381.12,265.99,380.85,265.44z"/>
<path class="st3" d="M380.85,265.44c0.27,0.54,0.85,1.15,0.76,1.62c-1.32,6.37-0.12,12.87-1.14,19.25c-0.14,0.87-0.27,1.75-0.3,2.63
	c-0.3,9.73-0.59,19.45-0.88,29.18c-2.95-0.06-2.9-3.05-3.89-4.59c-6.56-10.25-12.69-20.78-18.96-31.21
	c7.56-5.39,15.11-10.78,22.68-16.15C379.62,265.82,380.27,265.68,380.85,265.44z"/>
<path class="st3" d="M398.52,437.36c-2.77-9.57-5.48-19.16-8.34-28.7c-4.53-15.14-9.16-30.24-13.7-45.38
	c-0.28-0.94-0.14-2.01-0.2-3.02c2.85,3.47,3.48,8.09,6.08,11.69c7.14,16.87,15.31,33.27,23.13,49.83c1.19,2.52,1.39,5.74,4.34,7.24
	c0.27,0.96,0.58,1.91,0.8,2.88c0.43,1.86,0.15,3.16-2.22,3.19c-2.99,0.04-5.67,1.37-8.44,2.3
	C399.49,437.38,399.01,437.37,398.52,437.36z"/>
<path class="st8" d="M378.58,320.51c0.24,0,0.48-0.01,0.71-0.02c3.59,7.67,7.22,15.33,10.78,23.02c3.51,7.58,6.96,15.19,10.44,22.79
	c0.29,0.63,1.24,1.24,0.46,1.97c-0.74,0.68-1.24-0.22-1.89-0.53c-7.45-3.57-14.94-7.06-22.44-10.54c-0.42-0.19-1-0.03-1.51-0.03
	c-0.34-0.51-0.68-1.03-1.02-1.54C375.6,343.92,377.09,332.21,378.58,320.51z"/>
<path class="st9" d="M409.84,429.02c-2.95-1.5-3.15-4.72-4.34-7.24c-7.82-16.56-15.98-32.96-23.13-49.83
	c4.69-0.06,9.38-0.09,14.07-0.18c1.47-0.03,2.45,0.48,2.75,2c3.58,18.17,7.16,36.33,10.73,54.5
	C409.96,428.5,409.87,428.77,409.84,429.02z"/>
<path class="st9" d="M417.46,259.9c4.71-7.73,9.39-15.47,14.12-23.19c1.96-3.19,4.02-6.33,6.21-9.75c1.21,2.66-0.12,5.02-0.37,7.35
	c-0.93,8.78-2.06,17.54-3.17,26.3c-0.12,0.96-0.27,2.03-1.23,2.66C427.84,262.15,422.65,261.03,417.46,259.9z"/>
<path class="st10" d="M417.46,259.9c5.19,1.13,10.38,2.25,15.57,3.38c-1.3,2.56-4,3.56-6.07,5.2c-8.07,6.35-16.32,12.46-24.5,18.66
	c-1.2,0.91-2.39,1.84-3.94,2.09c0.51-3.11,2.8-5.24,4.38-7.73c4.57-7.17,9.29-14.24,13.96-21.35
	C417.05,260.04,417.25,259.95,417.46,259.9z"/>
<path class="st2" d="M398.52,437.36c0.48,0.01,0.97,0.02,1.45,0.03c2.34,1.96,4.54,4.12,7.06,5.81c2.12,1.42,1.01,2.5-0.06,3.38
	c-8.5,7-17.05,13.93-25.63,20.83c-1.59,1.28-2.61,3.43-5.05,3.51c1.87-5.05,5.79-8.78,8.58-13.24
	C389.21,450.78,394.36,444.4,398.52,437.36z"/>
<path class="st5" d="M374.65,470.38c0.03,0.44,0.06,0.88,0.08,1.33c-0.23,0.19-0.47,0.39-0.71,0.58c-0.34-0.62-0.68-1.25-1.02-1.87
	C373.56,470.4,374.1,470.39,374.65,470.38z"/>
<path class="st10" d="M397.78,290.77c-1.09-1.18-0.39-1.49,0.77-1.57C398.54,289.84,398.56,290.5,397.78,290.77z"/>
<path class="st3" d="M206.57,353.54c0.01,0.2-0.01,0.4-0.05,0.59c-0.15-0.12-0.29-0.24-0.44-0.36
	C206.24,353.7,206.4,353.62,206.57,353.54z"/>
<path class="st0" d="M374.03,472.29c0.24-0.19,0.47-0.39,0.71-0.58c0.02,0.29,0.05,0.59,0.07,0.88
	C374.55,472.49,374.29,472.39,374.03,472.29z"/>
<path class="st11" d="M260.26,394.63c-0.41-2.7,1.22-4.82,2.06-7.15c5.09-14.1,10.23-28.18,15.34-42.26
	c0.35-0.95,0.62-1.93,1.48-2.58c4.19,7.08,7.11,14.77,10.62,22.17c4.64,9.8,9,19.72,13.52,29.58c0.19,0.41,0.74,0.66,1.12,0.99
	c0.01,0.25,0.01,0.49,0.01,0.74c0,0,0,0,0,0C289.69,395.62,274.98,395.13,260.26,394.63z"/>
<path class="st3" d="M281.42,340.95c1.54-3.41,5.04-4.6,7.84-6.23c10.45-6.09,20.26-13.15,30.56-19.43
	c8.82-5.38,17.52-10.89,26.09-16.64c0.61-0.41,1.35-0.63,2.52-1.16c-0.38,5.04-2.98,8.83-4.7,12.82
	c-4.05,9.38-8.55,18.56-12.89,27.81c-0.43,0.92-0.51,1.68,0.42,2.31c-0.05,0.22-0.08,0.44-0.09,0.67
	C314.6,341.05,298.01,341,281.42,340.95z"/>
<path class="st6" d="M331.19,341.1c0.01-0.23,0.05-0.45,0.09-0.67c6.48-2.67,13-5.25,19.43-8.03c5.95-2.58,11.74-5.56,17.73-8.03
	c3.33-1.37,6.27-3.88,10.14-3.86c-1.49,11.71-2.99,23.41-4.48,35.12c-3.14,0.15-5.76-1.64-8.56-2.56
	c-11.08-3.62-22.13-7.33-33.35-10.52C331.46,342.34,331.29,341.75,331.19,341.1z"/>
<path class="st2" d="M304.41,396.11c0-0.25-0.01-0.49-0.01-0.74c2.94-3.82,4.3-8.44,6.34-12.71c5.94-12.43,11.65-24.97,17.43-37.47
	c0.31-0.68,0.79-0.93,1.44-1.06c0.14,14.08-0.67,28.15-0.96,42.23c-0.16,7.58-0.19,15.2-0.53,22.79
	c-7.16-3.36-13.87-7.55-20.7-11.51C306.45,397.09,305.42,396.63,304.41,396.11z"/>
</svg>
