<svg xmlns="http://www.w3.org/2000/svg" viewBox="56.84 5.48 47.92 40.33"><polygon points="74.53 9.56 72.23 18.55 56.84 20.6 74.53 9.56" style="fill:#57bae5"></polygon><polygon points="82.54 29.49 77.56 27.38 78.7 45.81 82.54 29.49" style="fill:#005472"></polygon><polygon points="72.23 18.55 68.18 27.06 56.84 20.6 72.23 18.55" style="fill:#34afe4"></polygon><polygon points="77.56 27.38 68.18 27.06 78.7 45.81 77.56 27.38" style="fill:#0076a7"></polygon><polygon points="72.23 18.55 77.56 27.38 68.18 27.06 72.23 18.55" style="fill:#009de2"></polygon><polygon points="74.53 9.56 87.3 11.2 72.23 18.55 74.53 9.56" style="fill:#7acdf2"></polygon><polygon points="101.28 5.48 93.24 15.04 93.81 6.19 101.28 5.48" style="fill:#7acdf2"></polygon><polygon points="101.28 5.48 105.74 0 104.76 5.91 101.28 5.48" style="fill:#7acdf2"></polygon><polygon points="96.95 10.45 104.76 5.91 101.28 5.48 96.95 10.45" style="fill:#00abe7"></polygon><polygon points="82.54 29.49 82.92 18.52 77.56 27.38 82.54 29.49" style="fill:#0076a7"></polygon><polygon points="82.92 18.52 77.56 27.38 72.23 18.55 82.92 18.52" style="fill:#008dbe"></polygon><polygon points="87.3 11.2 82.92 18.52 72.23 18.55 87.3 11.2" style="fill:#57bae5"></polygon><polyline points="82.92 18.52 82.54 29.49 92.34 39.76 82.92 18.52" style="fill:#00698d"></polyline><polygon points="97.47 34.02 92.29 20.86 92.34 39.76 97.47 34.02" style="fill:#09a1cb"></polygon><polygon points="93.24 15.04 92.29 20.86 82.92 18.52 93.24 15.04" style="fill:#09a1cb"></polygon><polygon points="97.99 22.95 92.29 20.86 93.24 15.04 97.99 22.95" style="fill:#8bdaff"></polygon><polygon points="100.03 33.65 93.82 23.47 97.36 23.47 100.03 33.65" style="fill:#7acdf2"></polygon><polygon points="88.47 9.04 93.24 15.04 93.81 6.19 88.47 9.04" style="fill:#57bae5"></polygon><polygon points="92.29 20.86 82.92 18.52 92.34 39.76 92.29 20.86" style="fill:#008dbe"></polygon><polygon points="97.47 34.02 99.54 35.2 92.37 39.76 97.47 34.02" style="fill:#0076a7"></polygon><polygon points="100.03 33.54 92.29 20.86 97.47 34.02 100.03 33.54" style="fill:#57bae5"></polygon><polygon points="88.47 9.04 82.92 18.52 93.24 15.04 88.47 9.04" style="fill:#7acdf2"></polygon></svg>
