<svg xmlns="http://www.w3.org/2000/svg" version="1.0" viewBox=".48 .2 681.33 648.57">
  <path fill="#56903f" d="M576.1 10.2c-3.2 25.9-14.5 52.8-28.4 67.6-6 6.4-16.3 14.2-18.8 14.2-.9 0-8.6-3.3-17-7.4-43.2-20.8-82.1-32-130.4-37.7-14.5-1.8-59.7-1.8-74-.1-38.8 4.7-69 12.3-104.3 26.3-21.4 8.5-42.5 19.9-64.2 34.7-16.9 11.5-25 18.2-41.6 34.4-7.7 7.6-14.7 13.8-15.5 13.8-2.7 0-15.4-6.7-23.4-12.5-14.4-10.3-31.7-28.8-43-46-3.2-5-7-10.7-8.4-12.9l-2.5-3.8-2 17.3c-2.4 21.2-2.9 70-.8 86.9C5 211.1 12 243.7 17.6 258.8l2.6 7.2-3.6 12.3C12.3 293 10.4 304 9 322c-4.1 55 5 103.1 28.6 150.3 28.4 56.7 81.7 108.9 143.2 140 35.6 18 81 31.2 119.7 34.7 33.8 3 83.8 2.1 109-2.1 107.4-17.8 203.2-87 245.5-177.4 17.9-38.2 25.6-70.7 26.7-112.8.9-35.3-3.7-66.6-14.2-96-9.7-27.2-16.3-40.7-31.9-64.7l-8.1-12.4-.7-21.1c-1.5-48.7-10.9-90.1-28.9-127-6.3-13-18-32.7-19.7-33.3-.5-.1-1.4 4.4-2.1 10z"/>
  <path fill="#272726" d="M416.5 124.9c51.6 8.3 97.8 28.3 138.5 60 19.3 15 43.3 41.5 54.9 60.4 5 8.1 14 26 17.5 34.7 6.4 15.8 12.8 43.6 14.5 63.5 5.6 63.4-9.4 114.5-47.6 162-15 18.7-39.5 40.9-59.3 53.8-47 30.4-93.7 44.8-150 46.4-67.4 1.8-134-17.6-181.5-52.9-14.8-11.1-42.5-38.8-54.4-54.5-24.8-33-38.8-67-43.6-105.8-7-56.6 10.1-116.8 46.8-165.5 8.8-11.7 29.9-33 42.7-43.2 39.5-31.4 78.6-49.3 126.4-57.8 18.9-3.4 26.4-3.9 55.1-3.5 21.2.3 29.8.8 40 2.4z"/>
  <path fill="#56903f" d="M547.5 257.7c-13.4 9.7-46.8 32-56 37.5-3.3 1.9-7.7 3.8-9.9 4.1-4.7.7-5.3 1.3-3.9 3.5.8 1.2 2.2 1.6 5.1 1.4 4-.2 4-.2 5.7 5 2.5 7.8 5.7 12.8 12.3 19.4 8 8.1 12.6 11 20.1 13 13.4 3.4 26-.2 37.5-10.7 6.8-6.2 10.1-11.8 12.3-20.8 1.5-6.3 1.5-8.2.4-15.9-1.5-10.6-5.1-20.1-10.2-26.7-5.2-6.9-5.7-9.5-2.5-13 2.5-2.7 3.4-5.5 1.9-5.5-.5 0-6.2 4-12.8 8.7zM240 280.1c0 .6 1 1.9 2.2 2.9 2.6 2 2.6 3.2 1.3 23.5-2.4 38.2 10.9 67.6 37.4 82.9 18.1 10.4 36.4 11.2 55 2.3 16-7.7 29.3-28.4 33.1-51.7 2.2-13.8 2.5-14.6 7.6-17.1 7.4-3.5 11.2-12.2 6-13.5-1.3-.3-5.4.2-9.2 1.1-15.4 3.9-30.5.6-107.4-23.7-24.6-7.8-26-8.2-26-6.7z"/>
</svg>
