<svg height="136" viewBox="0 0 136 136" width="136" xmlns="http://www.w3.org/2000/svg">
	<g fill="#fff" fill-rule="evenodd">
		<g transform="translate(1 70.027)">
			<path d="m18.8289538 8.2468302c.7473365 2.0964531 26.9450878-.68638934 53.442851-3.86608424 17.6651755-2.1197966 31.8272432-1.56761529 42.4862042 1.65654394v30.533759c-12.196733-3.3056899-26.3588014-3.8578712-42.4862042-1.656544-24.1911042 3.3019909-51.1493844 7.5906198-53.442851 4.2745133 0-18.7455832 0-29.0596459 0-30.942188zm33.9580844 13.880575-5.2586531-7.9742471-.2134915.0113058-3.2344577 8.5714696-3.0483348-6.0115299c-.3969687-.8745664.1536816-1.4348693.7396519-1.486135l.2009627-.017582-.0198223-.2265691-8.2102128.7183005.0200022.2286267.1829014-.0160018c.68588-.0600067 1.5542743.2413757 2.071849 1.1252029l5.7217547 11.9114143c-.5695951 1.6182374-2.0335707 5.7189337-5.0930591 6.5395083l.0200022.2286266c3.5862278.6077524 5.7846349-3.7774384 6.4251449-5.4567098l3.4713775-9.0575581 6.1394883 9.4711171.2158237-.0188821c-.124694-1.4252587.1174143-2.5709088.1174143-2.5709088l3.0264253-14.2039476c.5716278-2.6825251 2.0350881-5.44353587 5.7449566-6.04525039l-.0200023-.22862668c-4.9248402-.21418694-6.9596741 3.45220117-7.5091571 6.42997457zm15.8404287 6.4287486-.2892126.0253029c-.8001934.0700078-1.5055994-.5144837-1.5901278-1.3094904l-1.1100245-12.6876377c-.0466824-.7916366.5441991-1.4819362 1.3395912-1.551524l.2892126-.0253028-.0163441-.2289467-8.2022108.7176004.0236604.2283067.2892126-.0253028c.7969926-.0697279 1.499901.5099139 1.5890791 1.3001365l1.1096045 12.6828368c.0545784.7976269-.538615 1.4957312-1.3388084 1.565739l-.2892126.0253029.0163441.2289467 8.2028966-.7176605zm8.0035793-14.933353c-.0466824-.7916366.5441991-1.4819361 1.3395912-1.5515239l.2892126-.0253028-.0163441-.2289468-8.2022108.7176005.0236604.2283066.2930996-.0256429c.792946-.0712168 1.4958543.508425 1.5850325 1.2986476l1.1096044 12.6828367c.0545784.797627-.538615 1.4957313-1.3388084 1.5657391l-.2892126.0253028.0163442.2289468 8.2028966-.7176605-.0236604-.2283066-.2887556.0252628c-.8008392.0705252-1.5062452-.5139664-1.5907736-1.308973zm19.6779933 16.5645459c-3.1429852.0215612-5.2397613-1.2463675-8.9979677-5.6446657l-5.8854993-6.8866266 3.5048606-5.0805006c.5303644-.7237081 1.4052868-1.2561691 2.4137875-1.3467054l.1001386-.008761-.018042-.2062213-5.5121895.482254.017682.2021059.2208535-.0193221c.6266658-.0548262.965067.4873626.6472385 1.0282179l-4.814591 7.9291971 5.6354715 6.5329872c4.0211442 4.6519762 7.8535298 6.6434901 12.7560051 3.265758zm3.5412522-4.3628361-.2892127.0253028c-.8001933.0700079-1.5055993-.5144837-1.5901277-1.3094903l-1.1100245-12.6876377c-.0466824-.7916366.5441991-1.4819362 1.3395912-1.551524l.2892126-.0253028-.0163441-.2289467-8.2022108.7176004.0236604.2283067.2892126-.0253029c.7969926-.0697278 1.499901.509914 1.5890791 1.3001366l1.1096045 12.6828368c.0545783.7976269-.538615 1.4957312-1.3388084 1.565739l-.2892126.0253028.0163441.2289468 8.2028966-.7176605z"/>
			<path d="m107.035994.56668929v1.68398028c3.970021.50693077 7.260759 1.25416814 9.872215 2.24171212v28.06323041c7.22253.2882906 12.593468-.4316367 16.112814-2.1597819l-6.850663-13.8069836 6.850663-15.31650827c-6.624518 1.07112301-15.286194.83590666-25.985029-.70564904z"/>
			<path d="m.61196656 4.42347375v3.16428029c5.58464705-.22500287 8.7418318-.83744476 9.47155424-1.83732566 0 5.43342682.0139371 14.66827652.0418114 27.70454932 6.2850698 0 11.7111589-.7740672 16.2782672-2.3222016l-6.8506625-13.4753714 6.8506625-16.38831209c-4.1597739 1.25797089-12.7569849 2.30943126-25.79163284 3.15438114z" transform="matrix(-1 0 0 1 27.016 0)"/>
		</g>
		<g transform="translate(10.272 26.973)">
			<path d="m89.2355382 13.5499041c1.045382-4.61661308 7.2212224-10.01632836 11.6424048-10.01632836 4.421182 0 11.155093 1.60976706 12.637665 9.04513806 1.482573 7.4353711.55765 16.9381729-.855427 20.855734s-4.205614 6.1465024-7.025029 6.1465024c-2.819414 0-11.7530611-.5066245-13.3152374-2.661693-1.5621764-2.1550686-3.8117634-7.1665174-3.8117634-11.0846934 0-3.9181759-.3179949-7.6680467.727387-12.2846597zm12.1440908 5.6609152c-1.094136-.6196363-2.1709504-1.0644073-2.0773144-2.1880393.093636-1.147041 1.2640864-1.966356 3.1836244-1.966356 2.317491 0 3.722031 1.17045 3.732331 2.8786048h.225428l.505167-3.8088786h-1.821923c-1.358424-.1355379-3.108481-.2401762-3.951439-.2401762-3.2304418 0-5.1499798 1.568403-5.4542968 4.190211-.257499 2.200446.749088 3.792258 2.8697092 5.0420645l3.8168376 2.231346c3.941139 2.2306435 2.536599 6.3740365-1.747248 6.3740365-4.1902108 0-7.2947122-3.932712-5.0186553-8.042396l-.210681-.163863c-2.9549179 4.156502-.4826934 9.517163 5.7675093 9.517163 7.561107 0 10.627686-7.888833 4.556328-11.335106zm-18.2275576 14.131216c-1.2746663-.9948934-2.4248763-2.2679451-3.5603958-3.7350721-2.2089375-2.7436264-3.5388439-4.9129291-5.8313423-6.1317577 2.60074.1784824 4.8573905-1.8582841 4.8573905-4.8200276 0-3.5946356-3.4459425-4.7097072-6.4596907-4.7097072l-8.6517149.0005046v.2534597h.3100086c.880798.0027769 1.5977559.70686 1.6144177 1.5861434v14.005421c-.0242354.8939256-.7545731 1.5760456-1.6146704 1.5760456h-.3221261v.25245h7.674985l-.0040393-.25245h-.3115232c-.908315.0002523-1.6113884-.7273088-1.6250205-1.5871534v-14.721117h1.9133184c1.8249609.0035343 3.3459721 1.2657843 3.4371066 3.5343.025245.5887136-.0451884.9764768-.0901245 1.2233729-.4473414 2.32254-2.4399291 2.8827266-3.6471451 2.9165548-.3102609.0199434-.6758084.0040389-.7735064.0070682v.2367982c.4622358.1204188.906548.733115 1.3945339 1.5114184.9855646 1.4026122 3.2644309 4.8899564 4.5685877 6.7820691 1.5798511 2.3877659 3.3878464 3.866474 5.2068327 4.7043844-1.4568822 1.9324625-3.0945398 3.6653857-5.190763 3.6653857-3.1132968 0-13.5731202.8651336-15.4721829-2.5089786s-1.7860249-5.1431356-2.7278313-8.3509959c-.9418064-3.2078604-2.2308274-7.2302037-.5031937-10.3577057 1.7276336-3.1275019 5.2469193-10.14153576 8.4145388-12.29987265 3.1676196-2.1583369 8.202936-4.12628013 10.7481701-3.27980654 2.545234.84647358 8.176963 6.03853388 9.3540589 13.24765899 1.177096 7.2091251-.597788 14.4841455-2.598129 17.1056825-.0368137.048246-.0736617.0968987-.1105498.1459269z"/>
			<path d="m42.4775237 4.96173199c3.8729799-1.42704669 11.4089423-1.90511421 13.3363247 2.50285506 1.9273824 4.40796925.5869576 7.20926565-.8067751 9.45764015-1.3937327 2.2483746-1.561244 5.7844244-1.1206073 9.2608037.4406368 3.4763793 3.9723482 8.7485627 1.1206073 13.9074438-2.8517409 5.158881-21.0832977-.1048611-21.6411808-5.1010383-.5578831-4.9961771-1.322736-6.1788231-1.9629856-14.1219028s7.2016368-14.47875493 11.0746168-15.90580161zm.7258964 15.06508731c-1.0941368-.6196363-2.1709508-1.0644073-2.0773148-2.1880393.093636-1.147041 1.264086-1.966356 3.183624-1.966356 2.317491 0 3.722031 1.17045 3.732331 2.8786048h.2254288l.5051662-3.8088786h-1.8219225c-1.3584242-.1355379-3.1084809-.2401762-3.9514389-.2401762-3.230442 0-5.14998 1.568403-5.454297 4.190211-.257499 2.200446.749088 3.792258 2.8697092 5.0420645l3.8168375 2.231346c3.9411393 2.2306435 2.5365993 6.3740365-1.7472477 6.3740365-4.190211 0-7.2947125-3.932712-5.0186555-8.042396l-.210681-.163863c-2.954918 4.156502-.4826935 9.517163 5.7675095 9.517163 7.561107 0 10.627686-7.888833 4.5563278-11.335106zm-29.3792349-15.49378642c8.2924267-.9457776 12.3396171 3.21766619 13.8254187 5.93688382 1.4858017 2.7192177 1.4315932 7.3492942 1.4315932 9.4935017s1.4474405 11.0939432 0 14.7788517c-1.4474405 3.6849086-3.1428575 6.4486986-7.3068525 7.3272371s-14.80637102-1.6155957-17.26499266-5.3759431-4.00537639-10.5828697-4.00537639-16.2764249 5.02778297-14.93832871 13.32020965-15.88410632zm-.3396153 17.55198672c-.7194677-2.3714252.0670747-4.7529008 2.3830051-5.03693 2.8184436-.3495744 4.6318608 2.73105 4.6318608 6.7511556 0 4.260438-2.0537496 6.9696396-5.0688288 6.9696396-3.1898664 0-5.1780708-3.058776-5.1780708-7.6687884 0-2.8621404.764694-5.5057968 1.9757507-6.7695082l-.1310904-.218484c-3.94210669.6738046-6.67315669 3.7325806-6.67315669 7.7308378 0 4.806648 3.9982572 8.0183628 9.98471879 8.0183628 5.9427648 0 9.9191736-3.1461696 9.9191736-8.0620596 0-6.0520068-5.9864616-8.5427244-9.5259024-7.8435756-3.2117148.6336036-3.9982572 3.7579248-2.5796407 6.12935z"/>
		</g>
	</g>
</svg>