<svg xmlns="http://www.w3.org/2000/svg" viewBox="0 0 135 135">
	<g fill="#438ab5" fill-rule="evenodd" transform="translate(11 3)">
		<path d="m59.6189274 90.0356394-7.0054096 19.8442216-.6126404.053273-5.9932212-11.6934407-5.9133115 11.6934407-.5860039-.053273-7.1119557-19.8442216h5.194125l3.1431115 10.2550676 5.0875789-10.4148868h.4794576l5.1142154 10.3349768 3.116475-10.1751576zm7.2766179 19.5245826h-4.5282115v-19.5245826h4.5282115zm22.0332602 0h-5.4604903l-7.1652289-9.136333v9.136333h-4.5282115v-19.5245826h4.5282115v8.4970558l6.8455904-8.4970558h5.3539442l-8.0175981 9.296152zm7.8093487 0h-4.5282115v-19.5245826h4.5282115zm-1.2110317-70.9125052.0000215-13.2740439c0-.2958231-.2045118-.5523578-.4928968-.6182778-5.2142359-1.191888-10.4362091-1.7480388-15.6659194-1.6684526-8.0917462.1231409-18.9057282 6.7874187-18.2131131 16.6760168.4617434 6.5923988 4.4574469 11.9179838 11.9871104 15.976755 9.0110444 5.1029056 13.0050817 10.542826 11.9821118 16.3197611-1.5344548 8.6654027-9.4082947 10.7146727-14.4978063 13.4261013 6.717224.364374 11.5498261-.0370556 14.4978063-1.2042888 6.7645106-2.6783631 10.9864396-8.5124501 11.9997441-13.1875471 2.7977995-12.9082461-7.0829709-18.8289996-11.9997441-22.0994603s-13.0907894-8.7166038-13.0907894-13.2300746 1.9048919-7.98466 8.1391732-8.8080439c6.5496636-.8650377 12.7117317 3.1922186 13.7363648 10.4375851.1325987.9376299.6719111 1.3556198 1.617937 1.2539697z"/>
		<path d="m47.194561 25.2765575c.4497754.2726213.7327784.4462759.8490091.5209635 6.0257155 3.872012 8.8481571 8.4689392 8.4673248 13.7907817-.4085232 5.7088006-4.0301369 11.1794574-10.8648411 16.4119705 1.1836963.3232527 5.4292152 6.780507 12.7365566 19.3717628 4.0085586 4.3818891 9.2336894 6.1710977 15.6753926 5.3676257-4.6578949 3.3475666-9.0863586 4.9056998-13.285391 4.6743997-6.2985486-.3469503-11.8917529-3.9833377-15.1265582-8.0552912-3.2348054-4.0719534-9.9370507-17.9453891-14.4962437-21.962364 4.8448312-.1879018 8.0890871-1.1505327 9.7327677-2.8878926 2.084814-2.203635 3.7263695-5.6974081 3.2246008-10.8218553-.248178-2.5345837-1.7658175-5.4962505-4.1235695-8.6246096-.364076-.4830706-.243055-.9282025.3630629-1.3353957 1.9937635-1.2625308 3.9925874-3.3515061 5.9964715-6.2669257l-.0000524-.000036c.1904336-.2770588.563966-.357398.8514699-.1831338z"/>
		<path d="m21.0838944.1362093c1.847412 0 3.8884481 1.01217399 4.0429493 3.29871026.1030009 1.52435751-.3833442 2.60580736-1.4590351 3.24434953l.7998987 15.12862531 13.6347607.3602969c.1485721.003926.2910465.0599067.4025519.1581698l3.6902924 3.2520337c.2627838.2315757.288083.6323333.0565074.8951171-.0136115.0154458-.027967.0302197-.0430156.0442692l-2.3185794 2.1646454c-.2367725.2210529-.6020757.2281513-.8472572.0164637l-2.4448922-2.1108998h-7.5889137c-1.3713738.6372651-2.1712095 1.4935372-2.3995069 2.5688165-.2282975 1.0752793-.2400116 18.4262153-.0351425 52.0528081 0 6.6204324.6383238 12.4476349 1.9149714 17.4816075l-6.9503901 11.8460505-8.0029285-11.8460505c1.4825107-5.1482135 2.2237661-10.975416 2.2237661-17.4816075l.0351425-22.2287084-3.3469651-3.8310952 3.3469651-3.5288908c.1137299-14.139846.1137299-21.6278839 0-22.4641137-.1705949-1.2543447-.9607226-1.792739-2.2237662-2.5688165h-7.39119025l-2.48547475 2.1058164c-.2516598.2132185-.6247457.1979396-.85812824-.0351428l-2.1685389-2.1657496c-.24783113-.2475124-.24808954-.6490676-.00057719-.8968987.00136129-.0013631.00272879-.0027199.00410244-.0040705l3.29794434-3.2425517c.11446552-.112543.26734992-.1774925.42781846-.1817491l13.56209779-.35975.6613016-15.12862531c-1.051816-.79441584-1.577724-1.87586568-1.577724-3.24434953 0-2.05272577 2.1935436-3.29871026 4.0409557-3.29871026z"/>
	</g>
</svg>