<svg version="1.2" xmlns="http://www.w3.org/2000/svg" viewBox="0 0 1440 1440"><style>.a{fill:#722671}.b{fill:#77a340}.c{fill:#ece2a9}</style><path class="a" d="m734.5 148.6v199.6l159.3-135.3-91.7-115.8z"/><path class="a" d="m908.3 238.7l-173.8 143.3v201.2l267.2-235z"/><path class="a" d="m734.5 625v206l379.9-347.6-96.6-112.7z"/><path class="b" d="m705.5 148.6v199.6l-159.3-135.3 91.7-115.8z"/><path class="b" d="m531.7 238.7l173.8 143.3v201.2l-267.2-235z"/><path class="b" d="m705.5 625v206l-379.9-347.6 96.6-112.7z"/><path class="c" d="m1307.3 670.1h-265.6c0 0-33.8-1.6-33.8 30.6v136.8h-172.2c0 0-38.6-3.2-38.6 27.3v124h-76.4-1.4-76.4v-124c0-30.5-38.6-27.3-38.6-27.3h-172.2v-136.8c0-32.2-33.8-30.6-33.8-30.6h-265.6c-67.6 0-24.2 48.3-24.2 48.3 0 0 537.6 574.6 573.1 608.4 14.6 14 27.8 16.1 38.4 16.1 10.6 0 23.8-2.1 38.4-16.1 35.5-33.8 573.1-608.4 573.1-608.4 0 0 43.4-48.3-24.2-48.3z"/></svg>