<svg xmlns="http://www.w3.org/2000/svg" xml:space="preserve" viewBox="0 0 112.1 111.91">  <defs>    <clipPath id="a" clipPathUnits="userSpaceOnUse">      <path d="M0 90h90V0H0Z"></path>    </clipPath>  </defs>  <path style="fill:#6a1f70;fill-opacity:1;fill-rule:evenodd;stroke:none" d="M0 0v-12.475l9.96 8.451-5.734 7.243Z" transform="matrix(1.33333 0 0 -1.33333 61.207 12.38)"></path>  <path style="fill:#6a1f70;fill-opacity:1;fill-rule:evenodd;stroke:none" d="m0 0-10.865-8.953v-12.576l16.7 14.688z" transform="matrix(1.33333 0 0 -1.33333 75.693 19.892)"></path>  <path style="fill:#6a1f70;fill-opacity:1;fill-rule:evenodd;stroke:none" d="M0 0v-12.877l23.742 21.73-6.036 7.042z" transform="matrix(1.33333 0 0 -1.33333 61.207 52.084)"></path>  <path style="fill:#6aa72f;fill-opacity:1;fill-rule:evenodd;stroke:none" d="M0 0v-12.475l-9.959 8.451 5.734 7.243z" transform="matrix(1.33333 0 0 -1.33333 58.793 12.38)"></path>  <path style="fill:#6aa72f;fill-opacity:1;fill-rule:evenodd;stroke:none" d="m0 0 10.865-8.953v-12.576l-16.7 14.688z" transform="matrix(1.33333 0 0 -1.33333 44.307 19.892)"></path>  <path style="fill:#6aa72f;fill-opacity:1;fill-rule:evenodd;stroke:none" d="M0 0v-12.877l-23.742 21.73 6.036 7.042z" transform="matrix(1.33333 0 0 -1.33333 58.793 52.084)"></path>  <g clip-path="url(#a)" transform="matrix(1.33333 0 0 -1.33333 0 120)">    <path style="fill:#ebe599;fill-opacity:1;fill-rule:nonzero;stroke:none" d="M0 0h-16.601s-2.112.101-2.112-1.911v-8.551h-10.765s-2.414.201-2.414-1.71v-7.747h-9.634v7.747c0 1.911-2.415 1.71-2.415 1.71h-10.765v8.551C-54.706.101-56.818 0-56.818 0h-16.599c-4.226 0-1.509-3.018-1.509-3.018s33.601-35.915 35.814-38.027c.917-.875 1.741-1.008 2.403-1.008s1.486.133 2.402 1.008C-32.093-38.933 1.508-3.018 1.508-3.018S4.225 0 0 0" transform="translate(81.709 48.12)"></path>  </g></svg>