<svg viewBox="0 0 87.1 51.8" version="1.1" xmlns="http://www.w3.org/2000/svg" xmlns:xlink="http://www.w3.org/1999/xlink" xml:space="preserve" style="fill-rule:evenodd;clip-rule:evenodd;stroke-linejoin:round;stroke-miterlimit:2;">
    <g transform="matrix(1,0,0,1,-2.2,-0.8)">
        <g id="solo.to">
            <g>
                <g id="Link_x5F_1_2_">
                    <g>
                        <path d="M53.7,22.5C53.5,21 52.1,20 50.6,20.3C49.1,20.5 48.1,21.9 48.3,23.4C48.5,24.5 48.6,25.6 48.6,26.8C48.6,38.1 39.4,47.3 28.1,47.3C16.8,47.3 7.6,38 7.6,26.7C7.6,15.4 16.8,6.2 28.1,6.2C31.3,6.2 34.4,6.9 37.3,8.4C38.7,9.1 40.3,8.5 41,7.2C41.7,5.9 41.1,4.2 39.8,3.5C36.2,1.7 32.3,0.8 28.2,0.8C13.8,0.8 2.2,12.4 2.2,26.7C2.2,41 13.8,52.6 28.1,52.6C42.4,52.6 54,41 54,26.7C54,25.3 53.9,23.8 53.7,22.5Z" style="fill:rgb(54,115,253);fill-rule:nonzero;"/>
                    </g>
                </g>
                <g id="Link_x5F_1_1_">
                    <g>
                        <path d="M63.6,0.8C49.3,0.8 37.7,12.4 37.7,26.7C37.7,28.1 37.8,29.5 38,30.9C38.2,32.4 39.6,33.4 41.1,33.2C42.6,33 43.6,31.6 43.4,30.1C43.2,29 43.1,27.9 43.1,26.8C43.1,15.5 52.3,6.3 63.6,6.3C74.9,6.3 84,15.4 84,26.7C84,38 74.8,47.2 63.5,47.2C60.3,47.2 57.2,46.5 54.3,45C53,44.3 51.3,44.9 50.6,46.2C49.9,47.5 50.5,49.2 51.8,49.9C55.4,51.7 59.3,52.6 63.4,52.6C77.7,52.6 89.3,41 89.3,26.7C89.5,12.4 77.9,0.8 63.6,0.8Z" style="fill:rgb(54,115,253);fill-rule:nonzero;"/>
                    </g>
                </g>
            </g>
        </g>
    </g>
</svg>
