<svg version="1.1" id="Layer_1" xmlns="http://www.w3.org/2000/svg" xmlns:xlink="http://www.w3.org/1999/xlink" x="0px" y="0px"
	 viewBox="0 0 72 72" style="enable-background:new 0 0 72 72;" xml:space="preserve">
<style type="text/css">
	.st0{fill:#3673FD;}
	.st1{fill:#FFFFFF;}
</style>
<g id="Twitter">
	<rect class="st0" width="72" height="72"/>
</g>
<g id="Guides">
</g>
<g>
	<g id="Link_x5F_1_2_">
		<g>
			<path class="st1" d="M39.2,34c-0.1-0.6-0.7-1-1.3-0.9c-0.6,0.1-1,0.7-0.9,1.3c0.1,0.5,0.1,0.9,0.1,1.4c0,4.7-3.8,8.5-8.5,8.5
				s-8.5-3.8-8.5-8.5s3.8-8.5,8.5-8.5c1.3,0,2.6,0.3,3.8,0.9c0.6,0.3,1.2,0,1.5-0.5s0-1.2-0.5-1.5C32,25.4,30.4,25,28.7,25
				C22.8,25,18,29.8,18,35.7s4.8,10.7,10.7,10.7s10.7-4.8,10.7-10.7C39.4,35.1,39.3,34.5,39.2,34z"/>
		</g>
	</g>
	<g id="Link_x5F_1_1_">
		<g>
			<path class="st1" d="M43.3,25c-5.9,0-10.7,4.8-10.7,10.7c0,0.6,0,1.2,0.1,1.7c0.1,0.6,0.7,1,1.3,0.9c0.6-0.1,1-0.7,0.9-1.3
				c-0.1-0.5-0.1-0.9-0.1-1.4c0-4.7,3.8-8.5,8.5-8.5s8.4,3.8,8.4,8.4s-3.8,8.5-8.5,8.5c-1.3,0-2.6-0.3-3.8-0.9
				c-0.5-0.3-1.2,0-1.5,0.5s0,1.2,0.5,1.5c1.5,0.7,3.1,1.1,4.8,1.1c5.9,0,10.7-4.8,10.7-10.7C54,29.8,49.2,25,43.3,25z"/>
		</g>
	</g>
</g>
</svg>
