<svg width="256" height="252" viewBox="-0.00006198883056640625 0 256.00006103515625 252.00010681152344" fill="none" xmlns="http://www.w3.org/2000/svg">
<path d="M250.482 30.7875C237.995 24.0572 225.072 18.4725 211.423 13.747C193.272 7.58949 174.396 3.43676 154.648 1.43199C153.051 1.28879 151.599 1.86159 150.437 2.86397C139.838 13.6038 130.399 26.6348 122.704 41.5273C122.413 42.2433 122.849 42.9593 123.575 42.9593C125.027 42.9593 126.334 42.9593 127.786 42.9593C157.117 42.9593 185.141 48.8304 210.697 59.427C209.245 71.1693 206.776 82.7683 203.436 93.7945C199.226 107.685 193.563 121.002 186.593 133.603C172.073 159.952 151.889 183.007 127.786 200.906C119.364 194.606 111.523 187.875 104.263 180.429C103.537 179.713 102.375 180.286 102.52 181.288C104.408 192.171 106.877 202.768 110.071 212.792C114.572 226.825 120.38 239.713 127.35 251.455C127.641 251.885 128.221 252.171 128.802 251.885C142.596 243.866 155.665 234.701 167.717 224.391C188.916 206.205 207.212 184.582 221.442 160.381C229.137 147.207 235.672 133.46 241.044 118.997C245.4 106.969 248.885 94.5105 251.353 81.7659C253.967 68.1621 255.564 54.1287 256 39.9522C256 36.0858 253.967 32.5059 250.482 30.7875Z" fill="#1493FF"></path>
<path d="M105.715 41.6705C110.652 31.2171 116.315 21.3365 122.849 12.1718C125.463 8.44866 128.221 5.01192 130.98 1.71837C131.416 1.00238 130.98 0 130.109 0C129.383 0 128.657 0 127.931 0C98.7452 0 70.5758 4.86872 44.4393 13.747C30.9354 18.3293 17.8672 24.0572 5.37973 30.7875C1.89486 32.6491 -0.137977 36.229 0.00722623 40.0953C0.297632 54.4151 1.89486 68.3053 4.65372 81.9091C7.12217 94.6537 10.607 107.112 14.9631 119.14C20.1904 133.603 26.7246 147.494 34.5655 160.525C48.7954 184.725 66.9458 206.348 88.2906 224.534C91.9207 227.684 95.6959 230.691 99.4712 233.555C100.342 234.128 101.504 233.269 101.068 232.41C99.4712 228.543 98.0192 224.534 96.7123 220.524C90.1782 201.193 86.1125 180.429 84.8057 158.949C84.8057 157.947 84.3701 157.088 83.9345 156.372C78.562 149.069 73.7703 141.622 69.4142 133.603C73.3347 131.455 77.5456 129.594 81.7564 128.019C83.6441 127.303 84.8057 125.584 84.9509 123.58C85.9673 109.26 88.1454 95.0833 91.6302 81.6227C91.7755 80.9067 91.1946 80.1907 90.4686 80.3339C77.2552 83.341 64.4773 87.7802 52.7159 93.6513C49.3762 82.4819 46.9078 71.026 45.4557 59.2838C63.1705 51.8376 82.1921 46.8256 101.94 44.3913C103.392 44.3913 104.844 43.2457 105.715 41.6705Z" fill="#1493FF"></path>
</svg>