<svg xmlns="http://www.w3.org/2000/svg" fill="none" viewBox="0 0 256 252"><path fill="#1493FF" d="M250.482 30.788c-12.487-6.73-25.41-12.316-39.059-17.041-18.151-6.158-37.027-10.31-56.775-12.315-1.597-.143-3.049.43-4.211 1.432-10.599 10.74-20.038 23.77-27.733 38.663-.291.716.145 1.432.871 1.432h4.211c29.331 0 57.355 5.871 82.911 16.468a206.496 206.496 0 0 1-7.261 34.367 205.149 205.149 0 0 1-16.843 39.809c-14.52 26.349-34.704 49.404-58.807 67.303-8.422-6.3-16.263-13.031-23.523-20.477-.726-.716-1.888-.143-1.743.859 1.888 10.883 4.357 21.48 7.551 31.504 4.501 14.033 10.309 26.921 17.279 38.663.291.43.871.716 1.452.43 13.794-8.019 26.863-17.184 38.915-27.494 21.199-18.186 39.495-39.809 53.725-64.01a264.135 264.135 0 0 0 19.602-41.384c4.356-12.028 7.841-24.487 10.309-37.231A265.225 265.225 0 0 0 256 39.952c0-3.866-2.033-7.446-5.518-9.164Z"/><path fill="#1493FF" d="M105.715 41.67c4.937-10.453 10.6-20.334 17.134-29.498 2.614-3.723 5.372-7.16 8.131-10.454.436-.716 0-1.718-.871-1.718h-2.178C98.745 0 70.576 4.869 44.439 13.747c-13.504 4.582-26.572 10.31-39.06 17.04C1.896 32.65-.137 36.23.008 40.096c.29 14.32 1.888 28.21 4.647 41.814 2.468 12.745 5.953 25.203 10.31 37.231 5.226 14.463 11.76 28.354 19.602 41.385a251.621 251.621 0 0 0 53.725 64.009c3.63 3.15 7.405 6.157 11.18 9.021.871.573 2.033-.286 1.597-1.145-1.597-3.867-3.049-7.876-4.356-11.886-6.534-19.331-10.6-40.095-11.906-61.575 0-1.002-.436-1.861-.871-2.577-5.373-7.303-10.165-14.75-14.52-22.769 3.92-2.148 8.13-4.009 12.341-5.584 1.888-.716 3.05-2.435 3.195-4.439 1.016-14.32 3.194-28.497 6.68-41.957.144-.716-.436-1.432-1.162-1.29-13.214 3.008-25.992 7.447-37.753 13.318-3.34-11.17-5.808-22.625-7.26-34.367C63.17 51.838 82.192 46.826 101.94 44.39c1.452 0 2.904-1.145 3.775-2.72Z"/></svg>
