<svg fill="none" height="252" viewBox="0 0 256 252" width="256" xmlns="http://www.w3.org/2000/svg"><g fill="#1493ff"><path d="m105.715 41.6705c4.937-10.4534 10.6-20.334 17.134-29.4987 2.614-3.72314 5.372-7.15988 8.131-10.45343.436-.71599 0-1.71837-.871-1.71837-.726 0-1.452 0-2.178 0-29.1858 0-57.3552 4.86872-83.4917 13.747-13.5039 4.5823-26.5721 10.3102-39.05957 17.0405-3.48487 1.8616-5.517707 5.4415-5.37250377 9.3078.29040577 14.3198 1.88763377 28.21 4.64649377 41.8138 2.46845 12.7446 5.95328 25.2029 10.30938 37.2309 5.2273 14.463 11.7615 28.354 19.6024 41.385 14.2299 24.2 32.3803 45.823 53.7251 64.009 3.6301 3.15 7.4053 6.157 11.1806 9.021.8708.573 2.0328-.286 1.5968-1.145-1.5968-3.867-3.0488-7.876-4.3557-11.886-6.5341-19.331-10.5998-40.095-11.9066-61.575 0-1.002-.4356-1.861-.8712-2.577-5.3725-7.303-10.1642-14.75-14.5203-22.769 3.9205-2.148 8.1314-4.009 12.3423-5.584 1.8876-.716 3.0492-2.435 3.1944-4.439 1.0164-14.32 3.1945-28.4967 6.6794-41.9573.1452-.716-.4357-1.432-1.1617-1.2888-13.2134 3.0071-25.9913 7.4463-37.7527 13.3174-3.3397-11.1694-5.8081-22.6253-7.2602-34.3675 17.7148-7.4462 36.7364-12.4582 56.4843-14.8925 1.452 0 2.904-1.1456 3.775-2.7208z"/><path d="m250.482 30.7875c-12.487-6.7303-25.41-12.315-39.059-17.0405-18.151-6.15751-37.027-10.31025-56.775-12.31501-1.597-.1432-3.049.42959-4.211 1.43197-10.599 10.73984-20.038 23.77084-27.733 38.66334-.291.716.145 1.432.871 1.432h4.211c29.331 0 57.355 5.8711 82.911 16.4677-1.452 11.7423-3.921 23.3413-7.261 34.3675-4.21 13.8905-9.873 27.2075-16.843 39.8085-14.52 26.349-34.704 49.404-58.807 67.303-8.422-6.3-16.263-13.031-23.523-20.477-.726-.716-1.888-.143-1.743.859 1.888 10.883 4.357 21.48 7.551 31.504 4.501 14.033 10.309 26.921 17.279 38.663.291.43.871.716 1.452.43 13.794-8.019 26.863-17.184 38.915-27.494 21.199-18.186 39.495-39.809 53.725-64.01 7.695-13.174 14.23-26.921 19.602-41.384 4.356-12.028 7.841-24.4865 10.309-37.2311 2.614-13.6038 4.211-27.6372 4.647-41.8137 0-3.8664-2.033-7.4463-5.518-9.1647z"/></g></svg>