<svg xmlns="http://www.w3.org/2000/svg" xmlns:xlink="http://www.w3.org/1999/xlink" viewBox="0 0 2499.25 862.05">
    <defs>
        <linearGradient id="a" x1="942.76" y1="828.05" x2="942.76" y2="827.09" gradientTransform="matrix(541.83, 0, 0, -580.39, -508666.73, 480878.38)" gradientUnits="userSpaceOnUse">
            <stop offset="0.01" stop-color="#ffe513" />
            <stop offset="1" stop-color="#fdb924" />
        </linearGradient>
        <linearGradient id="b" x1="942.46" y1="827.93" x2="943.37" y2="827.19" gradientTransform="matrix(596.5, 0, 0, -593.57, -560897.22, 491777.95)" gradientUnits="userSpaceOnUse">
            <stop offset="0.01" stop-color="#008cd2" />
            <stop offset="1" stop-color="#00649d" />
        </linearGradient>
        <linearGradient id="c" x1="943.12" y1="827.77" x2="943.12" y2="827.08" gradientTransform="matrix(685.34, 0, 0, -696.57, -645392.01, 576961.05)" gradientUnits="userSpaceOnUse">
            <stop offset="0" stop-color="#26a146" />
            <stop offset="1" stop-color="#008a52" />
        </linearGradient>
        <linearGradient id="d" x1="942.88" y1="827.98" x2="943.02" y2="827.13" gradientTransform="matrix(605.29, 0, 0, -593.57, -570447.61, 491776.91)" gradientUnits="userSpaceOnUse">
            <stop offset="0" stop-color="#d92231" />
            <stop offset="1" stop-color="#ba2234" />
        </linearGradient>
    </defs>
    <path d="M2499.63,184V776.62l-82,80.06V276.77Z" transform="translate(-0.37)" style="fill:#e79225" />
    <path d="M1962.19,184.52l-84.94,92.25,4.4,5.86,532.55-1.95,4.88-3.91L2499.63,184l-537.44.49Z" transform="translate(-0.37)" style="fill:#fff16d" />
    <path d="M1877.25,276.77h541.83v580.4H1877.25Z" transform="translate(-0.37)" style="fill:url(#a)" />
    <path d="M2336.59,485.69a214.7,214.7,0,0,0-47.84-72.24c-20-20.5-42.47-36.12-67.85-46.37-24.89-10.25-51.74-15.62-81-15.62s-56.62,5.37-81.52,15.62c-25.38,10.25-47.83,25.87-67.85,46.37a213.32,213.32,0,0,0-47.35,72.24c-10.74,26.85-15.62,56.14-15.62,88.36q0,46.86,16.11,87.86A217.18,217.18,0,0,0,1991,735.13a198.35,198.35,0,0,0,66.87,45.4c24.9,10.25,52.72,15.62,82.5,15.62a209.57,209.57,0,0,0,80.54-15.62,207,207,0,0,0,67.85-45.4,221.52,221.52,0,0,0,47.84-72.73c10.74-26.85,16.11-56.62,16.11-87.86,0-32.71-5.37-62-16.11-88.85ZM2224.81,677c-21,24.9-48.82,37.59-84.94,37.59s-64.43-12.69-85.42-37.59-31.24-59.55-31.24-103.48c0-44.91,10.74-79.57,31.24-104.95,21-25.38,48.81-37.59,85.42-37.59,36.12,0,64,12.7,84.94,37.59,20.5,25.38,31.24,60,31.24,104.95C2256.05,617.49,2245.8,652.15,2224.81,677Z" transform="translate(-0.37)" style="fill:#fff" />
    <path d="M1824.05,135.7v2.93l69.31,532.56-40.51,112.27-5.37-3.91L1776.21,269l1.46-6.83,44.42-123.5Z" transform="translate(-0.37)" style="fill:#009ada" />
    <path d="M1290.52,209.9l533.53-74.2-44.91,127.89-6.35,6.84-498.87,73.22,2.44-91.28,14.16-42.47Z" transform="translate(-0.37)" style="fill:#91c9ed" />
    <path d="M1779.14,263.59l73.71,519.87-525.72,73.71-70.78-502.3L1287.1,331Z" transform="translate(-0.37)" style="fill:url(#b)" />
    <path d="M1689.81,363.17c-2.44-16.11-7.81-28.31-16.6-36.61a39.1,39.1,0,0,0-26.36-9.76,49.87,49.87,0,0,0-8.29.49c-13.67,1.95-23.92,8.3-30.27,18.55-4.88,7.32-6.83,16.59-6.83,27.33a122.12,122.12,0,0,0,1,12.69l19,135.22-151.32,22.45-19-135.21c-2.44-15.62-7.81-27.83-16.59-36.12A37,37,0,0,0,1408.64,352a37.54,37.54,0,0,0-7.32.48c-14.15,2-24.89,8.3-31.73,18.55-4.88,7.33-6.83,16.6-6.83,27.34,0,3.9.49,8.3,1,13.18l51.74,351.94c2.44,16.11,7.81,28.32,17.57,36.61,7.32,6.35,16.11,9.28,26.85,9.28a52.72,52.72,0,0,0,8.78-.49c13.18-2,23-8.3,29.29-18.55,4.4-7.32,6.35-16.11,6.35-26.36a119.75,119.75,0,0,0-1-12.69l-21-139.12,151.32-22.45,21,139.12c2.45,16.1,7.81,28.31,17.09,36.12a39.12,39.12,0,0,0,26.36,9.76,50,50,0,0,0,8.3-.49c13.66-1.95,23.92-8.3,30.26-18.55,4.39-7.32,6.84-16.1,6.84-26.84a119.93,119.93,0,0,0-1-12.7l-52.72-352.92Z" transform="translate(-0.37)" style="fill:#fff" />
    <path d="M791.15,0,601.27,451l25.87,198.18,1.46-.49L841.92,168.89l-1-10.25L795.06,6.35Z" transform="translate(-0.37)" style="fill:#66bf6b" />
    <path d="M791.15,0l49.3,165.48,1,3.41L1311,379.28l1.46-1-40-158.16Z" transform="translate(-0.37)" style="fill:#98d0a0" />
    <path d="M840.45,165.48l472,212.83L1099.17,862.05l-472-212.83L840.45,165.48Z" transform="translate(-0.37)" style="fill:url(#c)" />
    <path d="M1169.46,417.36c-10.25-27.34-24.41-50.77-43-70.3a206.61,206.61,0,0,0-146.93-63h-1.46c-27.34,0-54.18,6.35-80.54,18.07-27.83,12.2-51.75,28.8-72.25,50.76-20.5,21.48-37.1,47.84-49.79,78.1a261.52,261.52,0,0,0-21,89.82v10.25a224.43,224.43,0,0,0,13.67,77.62A196.75,196.75,0,0,0,810.68,678c18.55,19.53,41.49,35.15,68.83,46.37A196.52,196.52,0,0,0,958.58,741h.49c26.85,0,53.7-5.86,80.06-17.09a218.53,218.53,0,0,0,72.73-51.25A253.77,253.77,0,0,0,1162.14,595c12.69-30.27,19.52-60,21-89.82v-8.79a211.19,211.19,0,0,0-13.67-79.07Zm-94.21,140.58c-17.58,42-41.49,70.78-70.29,86.4-15.62,8.3-31.73,12.69-47.84,12.69-14.16,0-29.29-3.42-44.42-9.76-33.19-14.16-53.7-36.61-62.48-68.83a127.43,127.43,0,0,1-4.4-33.68c0-23.43,5.86-49.3,17.58-77.13,18.06-42.95,42-72.24,70.78-88.35A96.25,96.25,0,0,1,982,366.59c14.65,0,29.29,3.42,44.91,9.76,32.71,14.16,53.21,36.61,62,68.83a121.57,121.57,0,0,1,4.39,33.19C1093.31,502.78,1087.45,529.14,1075.25,557.94Z" transform="translate(-0.37)" style="fill:#fff" />
    <path d="M563.68,76.64l77.13,516.44L605.66,774.67l-4.88-6.34L525.61,269.45v-9.76L558.8,85.42l4.88-8.78Z" transform="translate(-0.37)" style="fill:#760d16" />
    <path d="M.37,343.65,37,161.08l526.7-84.44-35.63,186v12.2L6.72,348.53Z" transform="translate(-0.37)" style="fill:#ef463e" />
    <path d="M528.05,262.62l77.61,512.05L84.33,856.19.37,343.65l527.68-81Z" transform="translate(-0.37)" style="fill:url(#d)" />
    <path d="M471.91,693.15c-3.9-4.88-9.76-8.3-16.59-10.74S440.18,679,429.93,679a195.63,195.63,0,0,0-31.73,2.93L260.55,705.36c1.46-10.74,6.83-24.41,16.11-41.5,10.25-19,25.87-42,45.88-68.33,6.84-9.28,12.21-16.11,16.11-21,2.44-3.42,6.35-7.81,11.23-14.16,31.73-41.49,50.76-75.17,58.57-101.53a209.88,209.88,0,0,0,7.81-45.4,105.73,105.73,0,0,0,.49-12.2A179.11,179.11,0,0,0,413.82,369c-1.46-9.76-3.9-17.57-7.32-23.92s-7.32-11.23-12.2-14.15c-5.37-3.42-13.67-4.89-23.92-4.89A200.74,200.74,0,0,0,339.63,329L180.49,356.34c-19,3.42-33.68,8.79-42.46,17.57a33.61,33.61,0,0,0-10.74,25.38,50,50,0,0,0,.49,8.3c2.44,13.67,9.27,23.43,20.5,28.32,6.83,2.92,14.64,4.39,24.4,4.39a117.19,117.19,0,0,0,21.48-1.95l132.78-23.43c0,2.44.48,4.88.48,6.83A69.58,69.58,0,0,1,323,446.16c-3.9,11.22-13.67,26.84-29.78,46.86-4.39,5.37-11.22,14.15-20.5,25.38-36.12,43.44-61.5,80.54-77.12,111.29a240.53,240.53,0,0,0-22.95,63,175.47,175.47,0,0,0-3.9,34.66,118.35,118.35,0,0,0,1.95,22.94c2,10.74,4.4,19.53,7.81,26.36s8.3,12.21,13.67,15.14,12.69,3.9,23.43,3.9q19.77,0,54.18-5.86l144.49-24.89c25.38-4.39,43.45-10.74,53.7-19A33.76,33.76,0,0,0,480.7,719a53.51,53.51,0,0,0-1-8.78A32.25,32.25,0,0,0,471.91,693.15Z" transform="translate(-0.37)" style="fill:#fff" />
</svg>