<?xml version="1.0" encoding="utf-8"?>
<!-- Generator: Adobe Illustrator 25.4.1, SVG Export Plug-In . SVG Version: 6.00 Build 0)  -->
<svg version="1.1" id="svg" xmlns="http://www.w3.org/2000/svg" xmlns:xlink="http://www.w3.org/1999/xlink" x="0px" y="0px"
	 viewBox="0 0 400 396.8" style="enable-background:new 0 0 400 396.8;" xml:space="preserve">
<style type="text/css">
	.st0{fill:#FCFBFA;}
	.st1{fill-rule:evenodd;clip-rule:evenodd;fill:#FCFBFA;}
	.st2{fill:#FBC342;}
</style>
<g id="svgg">
	<path class="st0" d="M100.6,0c0,0.1-0.1,0.1-0.1,0.2c-0.5,1.2-1.1,2.3-1.8,3.4c3.4-1.3,6.8-2.5,10.3-3.5C106.3,0,103.5,0,100.6,0z"
		/>
	<path class="st0" d="M97.3,26.7c1.1-0.9,2.2-1.7,2.5-1.7c0.3,0,1.4-0.6,2.5-1.4c0.3-0.2,0.7-0.5,1.2-0.7c-4.6,2.2-9.2,4.3-13.6,6.8
		"/>
	<path class="st0" d="M67.1,49.6c0.8-0.8,2.6-2.3,4-3.4c1.4-1.1,3.6-3.1,5-4.5c1.5-1.5,3.4-2.9,4.6-3.4c1.1-0.5,2.3-1.2,2.6-1.6
		c0.3-0.4,1.2-1,2.1-1.4c0.8-0.4,2.1-1.3,2.8-1.9"/>
	<path class="st0" d="M58,52.9l-5.4,10.8"/>
	<path class="st0" d="M112.4,18.3c-2,1.1-4,2.2-6,3.2c6.7-2.5,8.5-3.3,9.5-4.4c0.9-1,3.2-2,4.6-2c0.2,0,1.2-0.5,2.2-1.2
		c1-0.6,2.8-1.4,4.1-1.7c1.3-0.3,3.1-0.9,3.9-1.4c0.9-0.5,2.3-0.9,3.4-0.9c2.3,0,6.4-1,8.3-2c0.9-0.4,3.2-1.1,5.2-1.4
		c2.3-0.4,4.1-0.9,4.7-1.4c2.1-1.6,3.3-2,8.7-2.6c6.5-0.7,7.6-1,7.6-2.3c0,0-3-0.1-8.3-0.1c-0.2,0.1-0.4,0.2-0.6,0.2"/>
	<path class="st0" d="M48,69c-1.8,2.1-4.5,5.1-6,6.8c-1.6,1.7-3.3,3.9-3.9,5c-1.4,2.6-3.1,5.3-4.7,7.3c-0.7,0.9-1.5,2.1-1.7,2.6
		c-0.4,1-1.9,3-4.6,6c-0.9,1-2,2.7-2.5,3.8c-0.5,1.1-1.1,2.2-1.4,2.6c-0.6,0.7-2.7,5.5-3.6,8.2c-0.7,2.3-1.3,3.3-2.6,4.7
		c-0.6,0.7-1.4,2.2-1.8,3.5c-0.4,1.3-1.1,3-1.6,3.8c-0.5,0.8-1.2,2.6-1.5,3.9c-0.3,1.4-0.9,2.9-1.2,3.5c-0.3,0.5-0.6,1.4-0.6,1.9
		c0,1.8-1.6,8.6-2.3,10.1c-0.4,0.8-1,2.7-1.3,4.1c-0.9,4.5-1.2,5.5-2.2,6.6c-1.1,1.3-1.6,3.4-2,8c-0.1,1.5-0.3,2.8-0.4,3.8
		L52.6,63.7C51.3,65.3,49.8,67,48,69z"/>
	<path class="st0" d="M2.2,165.3L0.3,169C1.2,169,1.8,168,2.2,165.3z"/>
	<path class="st1" d="M0,0"/>
	<path class="st2" d="M104.4,219.3c2.8,0.4,3.1,1,3.1,4.7c0,10.8,7.4,17.3,13.7,11.9c2.9-2.5,3-2.6,2.7-9.6
		c-0.3-7.2-0.3-7.3,4.8-7.3c5,0,5.8,0.6,5.8,4.7c0,1.8,0.2,3.8,0.6,4.7c0.3,0.8,0.9,2.5,1.2,3.8c0.5,1.9,0.9,2.4,1.9,2.9
		c0.7,0.4,1.7,1,2.2,1.4c1.4,1.1,3.5,0.9,5.5-0.4c0.9-0.6,1.9-1.3,2.3-1.5c1-0.6,3-8,3-11.3c0-3.8,0.4-4.1,5.7-4.4
		c4.4-0.2,7.2-1.7,8.1-4.3c0.2-0.6,0.8-2.2,1.3-3.6c1.2-3.4,1.7-17.7,0.6-20.3c-0.9-2.2-0.9-17.5,0-19.6c0.5-1.1,0.6-3.2,0.6-9.3
		s-0.1-8.2-0.6-9.3c-0.9-2.1-0.9-17.5,0-19.6c0.9-2,0.9-17.3,0-18c-0.3-0.3-1-1.6-1.4-3c-1.2-3.8-4-5.6-9.1-6.1
		c-4.4-0.4-4.9-1-5.3-6.1c-0.2-3.2-1.8-6.7-3.4-7.7c-0.6-0.3-1.5-1-2.1-1.4c-1.4-1-4-1-5.4,0c-0.6,0.4-1.5,1-2.1,1.3
		c-1.9,1.1-3.6,5.1-3.6,8.4c0,4.5-1.3,5.6-6.3,5.4c-4.1-0.2-4.3-0.5-4.5-7.4c-0.1-2.9-0.3-5.4-0.5-5.6c-5.5-4.7-6.4-4.9-10.1-2.1
		c-4.5,3.4-5.4,5-5.6,9.8c-0.2,5.1-0.6,5.9-3.8,6.5c-1.3,0.2-2.7,0.5-3.1,0.6c-0.9,0.2-4.9,3.2-6.4,4.7c-0.5,0.5-1.8,1.5-3,2.2
		c-2.5,1.4-5.3,4.5-6.1,6.7c-0.3,0.9-1,2.2-1.6,3.1c-1.3,2-2,6.1-1.5,9.3c0.2,1.3,0.3,2.6,0.2,2.8c-0.7,1.1,0.6,10,1.8,12.4
		c0.7,1.4,1.2,3,1.2,3.6c0,1.7,2.3,4.9,5.3,7.3c0.9,0.7,0.4,1.5-2.5,4.4c-3,3-4.6,5.9-5.5,10.2c-0.4,2-1.1,4.4-1.4,5.3
		c-0.6,1.7-1.5,9.7-1.4,13.2c0,0.8,0.4,2.2,0.8,3c0.4,0.8,1.1,2.8,1.4,4.3s1,3.1,1.4,3.5c0.4,0.4,1.1,1.6,1.6,2.5
		c0.5,1,1.4,1.9,2.1,2.3c0.7,0.4,2,1.3,2.9,2.1c0.9,0.8,2.3,1.9,3,2.3c0.8,0.5,2,1.5,2.8,2.3c0.8,0.8,1.6,1.4,1.8,1.4
		c0.2,0,1.5,0.5,2.8,1.2C101.6,218.5,103.4,219.1,104.4,219.3z M103.9,137c0.2-0.9,0.4-2.5,0.4-3.5c0-3.3,4.4-7,8.2-6.9
		c11.7,0.1,19.7-0.1,20.9-0.6c1.3-0.6,8.3-0.7,10.2-0.2c1.5,0.4,2.5,2.6,2.2,4.8c-0.1,1-0.4,5.8-0.5,10.7c-0.4,10.6-0.1,10-5.4,10
		c-2,0-4.9,0.3-6.6,0.6c-5,1.1-17.8,0.5-20.2-1c-1-0.6-2.9-1.6-4.2-2.3C105.4,146.9,102.9,140.9,103.9,137z M103.8,178.6
		c0.5-0.5,1.1-1.4,1.4-1.9c0.3-0.5,1.1-1.2,1.9-1.5s1.9-0.9,2.5-1.4c3.2-2.3,10.8-2.8,29.6-1.7c2.9,0.2,5.4,0.5,5.5,0.6
		c0.3,0.3,1,15.9,1,22.5c0,4.8-0.2,4.9-7.4,4.6c-3.1-0.2-10.7-0.3-16.9-0.3l-11.3-0.1l-1.5-1c-0.9-0.6-1.9-1.2-2.3-1.4
		c-0.4-0.2-1.5-1.4-2.4-2.7l-1.7-2.3l0-3.8C102,183.1,102.6,179.8,103.8,178.6z"/>
	<path class="st2" d="M396.6,190.7c-1-3.5-2.6-16.9-2.4-19.3c0.5-4.3-0.5-11.6-2.2-15.8c-0.8-2.1-1.7-4.7-2-5.9
		c-0.2-1.1-0.8-2.8-1.3-3.7c-0.4-0.9-1.2-3.3-1.6-5.4c-0.4-2.1-1.1-4.3-1.4-4.7s-0.6-1.5-0.6-2.2c0-2.4-1-6-2.3-8.4
		c-0.7-1.3-1.4-2.9-1.7-3.6c-0.2-0.7-1-1.9-1.8-2.7c-1.4-1.5-1.8-2.9-1.8-5.3c0-0.9-0.4-1.9-1.1-2.8c-0.6-0.8-1.3-2.2-1.6-3.1
		c-0.3-0.9-0.9-2.2-1.5-2.8c-0.5-0.6-1.2-1.8-1.4-2.5c-0.6-1.7-4-6.8-5.1-7.4c-0.4-0.3-1.3-1.4-1.8-2.6c-0.6-1.1-1.5-2.5-2-3.1
		c-0.5-0.5-1.2-1.8-1.6-2.8c-1.3-3.3-3.3-6.3-5.4-8.3c-2.9-2.7-3.5-3.3-6.4-6.8c-4.9-5.8-7.2-8.7-8.3-10.5c-0.6-1-1.7-2.1-2.3-2.5
		c-1-0.6-6.2-5-13.9-11.8c-0.7-0.7-2-2.1-2.9-3.1c-1.6-2-4.6-4.1-7.3-5.2c-0.8-0.3-2.1-1.1-2.9-1.7c-0.8-0.6-1.8-1.3-2.4-1.6
		c-1.3-0.7-3.6-2.6-5.7-4.7c-0.9-0.9-2.5-2-3.4-2.4c-1-0.4-2-1.1-2.3-1.4c-0.3-0.4-1.6-1.1-2.8-1.7c-1.2-0.5-2.6-1.3-3-1.7
		c-0.4-0.4-1.7-1-2.8-1.4c-1.1-0.4-3.3-1.4-4.9-2.2s-3.1-1.5-3.4-1.5s-0.8-0.4-1.2-0.8c-0.4-0.4-2-1.2-3.5-1.6
		c-1.5-0.5-3.3-1.2-3.9-1.7c-1.2-1-4.2-1.8-6.7-1.8c-0.8,0-2.2-0.4-2.9-0.8c-0.7-0.4-2.9-1.1-4.7-1.5c-1.8-0.4-4.1-1.1-5.1-1.5
		c-1-0.4-2.6-1-3.6-1.3c-1-0.3-3.5-1.2-5.7-2c-4.1-1.6-12.1-2.8-16.2-2.5c-2.4,0.2-5.2-0.5-5.4-1.5c-0.3-1.2-53.9-1.2-54.3,0
		c-0.3,1-0.9,1.1-7.5,1.8c-5.3,0.6-6.5,0.9-8.6,2.6c-0.6,0.5-2.4,1-4.7,1.4c-2,0.3-4.4,1-5.2,1.4c-2,1-6,2-8.3,2
		c-1.1,0-2.4,0.4-3.4,0.9c-0.9,0.5-2.6,1.1-3.9,1.4c-1.3,0.3-3.2,1.1-4.1,1.7c-1,0.6-2,1.2-2.2,1.2c-1.4,0-3.7,1-4.6,2
		c-1,1.1-2.7,1.9-9.5,4.4c-1,0.5-2,1-2.9,1.4c-0.4,0.2-0.8,0.5-1.2,0.7c-1.1,0.8-2.2,1.4-2.5,1.4c-0.3,0-1.4,0.8-2.5,1.7
		c-3.5,3-5.2,4.3-6.5,5c-0.7,0.3-1.9,1.1-2.6,1.7c-0.7,0.6-2,1.5-2.8,1.9c-0.8,0.4-1.8,1.1-2.1,1.4c-0.3,0.4-1.5,1.1-2.6,1.6
		c-1.2,0.5-3.1,1.9-4.6,3.4c-1.4,1.4-3.7,3.4-5,4.5c-1.4,1.1-3.2,2.6-4,3.4c-0.8,0.8-3,2.7-4.8,4.4c-5,4.5-8.1,7.8-14.3,15.1
		c-1.8,2.1-4.5,5.1-6,6.8c-1.6,1.7-3.3,3.9-3.9,5c-1.4,2.6-3.1,5.3-4.7,7.3c-0.7,0.9-1.5,2.1-1.7,2.6c-0.4,1-1.9,3-4.6,6
		c-0.9,1-2,2.7-2.5,3.8c-0.5,1.1-1.1,2.2-1.4,2.6c-0.6,0.7-2.7,5.5-3.6,8.2c-0.7,2.3-1.3,3.3-2.6,4.7c-0.6,0.7-1.4,2.2-1.8,3.5
		c-0.4,1.3-1.1,3-1.6,3.8c-0.5,0.8-1.2,2.6-1.5,3.9c-0.3,1.4-0.9,2.9-1.2,3.5c-0.3,0.5-0.6,1.4-0.6,1.9c0,1.8-1.6,8.6-2.3,10.1
		c-0.4,0.8-1,2.7-1.3,4.1c-0.9,4.5-1.2,5.5-2.2,6.6c-1.1,1.3-1.6,3.3-2,7.8c-0.4,5.1-0.9,7.3-1.8,7.5c-1,0.3-1.1,2.8-0.2,3.1
		c0.8,0.3,0.8,1.4,0,1.7c-1.1,0.4-0.9,49.2,0.2,49.5c1,0.3,1.8,3,1.4,5c-0.5,3.3,0.8,12.4,2.4,16.1c0.8,1.9,1.7,4.6,2.1,6
		c0.4,1.4,1,3.2,1.4,3.9c0.4,0.7,1,2.9,1.4,4.8c0.4,1.9,1.1,4.2,1.6,5c0.5,0.8,0.8,2.3,0.8,3.2c0,2.1,0.9,4.9,1.9,6.4
		c0.4,0.6,1.1,2.2,1.5,3.5c0.4,1.3,1.1,2.9,1.5,3.6c0.5,0.7,1.8,3.2,2.9,5.8c1.1,2.5,2.4,5.2,2.8,6c0.4,0.8,1.3,2.5,1.9,3.8
		c0.6,1.3,1.5,2.7,1.9,3c0.4,0.3,1,1.3,1.4,2.2s1.3,2.1,2,2.6c0.7,0.5,1.5,1.4,1.8,1.9c0.3,0.6,1.1,1.8,1.8,2.7
		c1.9,2.3,3.6,5.2,7,11.1c0.5,0.9,1.6,2.2,2.5,2.8c0.9,0.7,3.1,3,5,5.1c1.9,2.1,4.7,5.2,6.2,6.8c1.5,1.6,3,3.4,3.3,4
		c0.6,1.2,3.6,4,4.2,4c0.4,0,1.4,0.8,5.6,4.8c0.8,0.8,2.6,2.3,4,3.4c1.4,1.1,4,3.5,5.9,5.4c2.9,2.9,4,3.7,7.2,5.2
		c2.1,1,4,2.1,4.3,2.5s1.2,1,2,1.4c1.5,0.7,3.1,1.9,6.8,5.1c1.1,0.9,2.2,1.7,2.5,1.7c0.3,0,1.5,0.6,2.6,1.4c1.1,0.8,2.7,1.6,3.4,1.8
		c0.7,0.2,2,0.8,2.8,1.4c2,1.4,3.9,2.1,5.8,2.1c1.2,0,1.8,0.3,2.6,1.2c0.6,0.6,1.9,1.5,2.9,1.8c1,0.3,2.4,1.1,3.2,1.6
		c0.8,0.5,2.5,1.2,3.8,1.5c1.3,0.3,3.1,0.9,4,1.4c0.9,0.5,2.3,0.9,3.4,0.9c2.3,0,6.4,1,8.3,2c0.9,0.4,3.2,1.1,5.2,1.4
		c2.3,0.4,4.1,0.9,4.7,1.4c2.1,1.6,3.3,2,8.6,2.6c6.5,0.7,7.2,0.9,7.5,1.8c0.4,1.2,54,1.2,54.3,0c0.3-1,3-1.7,5.4-1.5
		c4.1,0.4,12.1-0.8,16.2-2.5c2.1-0.8,4.7-1.7,5.7-2s2.6-0.8,3.6-1.3c1-0.4,3.3-1.1,5.1-1.5c1.8-0.4,3.9-1.1,4.7-1.5
		c0.8-0.4,2.1-0.8,3-0.8c2.5,0,5.1-0.7,6.4-1.7c0.7-0.5,2.1-1.2,3.3-1.6c1.3-0.4,2.4-1.1,2.9-1.8c0.6-0.8,1.5-1.3,3.1-1.8
		c3.8-1.1,9.8-3.5,10.6-4.2c0.4-0.4,1.8-1.1,3-1.7c1.2-0.5,2.5-1.3,2.8-1.7c0.3-0.4,1.4-1,2.3-1.4c1-0.4,2.5-1.5,3.4-2.4
		c2.7-2.7,4.6-4.1,6.5-4.9c4.5-1.8,8.7-5,13.7-10.5c2-2.1,8.9-8,10.9-9.2c2.3-1.3,5.3-4.4,6.7-6.7c2-3.5,9.7-12.1,12.3-13.8
		c0.5-0.3,1.3-1.3,1.7-2.1c0.4-0.8,1.1-1.7,1.5-1.9c0.8-0.4,2.9-4.1,4.1-7.1c0.7-1.8,2.2-3.9,4.9-6.7c0.9-1,1.9-2.3,2.2-3
		c0.3-0.7,1.1-2.1,1.8-3c0.7-1,1.5-2.4,1.7-3.2c0.3-0.8,0.8-1.8,1.3-2.3c0.8-0.9,1.9-3.6,3.9-9.6c0.6-1.9,1.6-3.9,2.2-4.6
		c0.6-0.7,1.4-1.9,1.7-2.6c0.3-0.8,1.2-2.6,1.9-4c1.1-2.2,1.3-3,1.3-5.1c0-1.9,0.2-2.9,1-4.5c0.6-1.1,1.4-3.7,1.8-5.6
		c0.4-2,1.4-5,2.2-6.6c0.8-1.7,1.6-4,1.9-5.2c0.2-1.2,0.9-3.3,1.5-4.7c0.9-2.4,1-3.2,1.1-9.5c0.1-7.6,1.3-17.4,2.6-21
		C397.5,206.3,397.6,193.9,396.6,190.7z M364.5,209.1c-0.6,2.3-1.1,6-2,14.1c-0.3,2.7-0.6,5-0.8,5.3c-0.1,0.2-0.4,1.4-0.6,2.6
		c-0.2,1.2-0.8,3.3-1.3,4.7c-0.5,1.3-1.1,3.3-1.3,4.4c-0.9,6.3-3.2,15.1-4.6,18.1c-0.6,1.2-1.4,3.1-1.7,4.3
		c-0.4,1.2-1.2,2.7-1.8,3.4c-0.6,0.7-1.5,2.1-2,3.2s-1.1,2.3-1.5,2.7c-0.6,0.7-2.8,5.8-4,9.2c-0.4,1.3-1.7,3.1-3.7,5.5
		c-1.7,2-3.1,3.7-3.1,3.9c0,0.2-0.8,1.4-1.8,2.7c-1,1.3-1.8,2.5-1.8,2.7c0,0.2-0.6,1-1.4,1.7c-0.8,0.7-1.4,1.6-1.4,1.8
		s-0.6,1-1.2,1.6c-0.7,0.6-1.7,2-2.2,3.2c-0.7,1.4-1.5,2.4-2.7,3.3c-1,0.7-2.5,2.1-3.3,3.1c-0.8,1-4.2,4.6-7.6,7.9
		c-3.3,3.3-6.1,6.2-6.1,6.5s-0.8,0.8-1.9,1.3c-1,0.4-2.5,1.3-3.3,2c-0.8,0.7-2.4,2-3.5,3c-1.2,1-2.3,1.8-2.5,1.8
		c-0.2,0-1,0.5-1.7,1.1c-0.7,0.6-1.9,1.5-2.7,1.8c-0.8,0.4-2.8,2-4.6,3.6c-2.3,2.1-3.8,3.1-5.4,3.6c-1.2,0.4-2.3,0.8-2.6,1
		c-0.2,0.2-1.5,0.7-2.8,1.1c-1.3,0.4-2.8,1.2-3.3,1.7s-1.7,1.2-2.6,1.4c-0.9,0.3-2.3,1.2-3.2,2c-1,0.9-2.3,1.7-3.4,2
		c-1,0.3-2.5,0.9-3.4,1.4c-0.9,0.5-3,1.3-4.8,1.8c-1.7,0.5-3.8,1.2-4.5,1.6c-0.9,0.5-2.6,0.8-4.8,0.9c-2.3,0.1-4.4,0.6-6.3,1.3
		c-1.6,0.6-4.1,1.3-5.5,1.6s-3.4,0.7-4.4,1c-3.2,0.8-13.6,2.4-15.9,2.4c-1.2,0-3.2,0.3-4.4,0.6c-2.6,0.7-16.8,0.8-19,0.2
		c-0.7-0.2-3.2-0.5-5.6-0.6c-5.6-0.3-13-1.3-16.7-2.2c-1.6-0.4-4.2-0.9-5.8-1.2c-1.5-0.2-3.6-0.8-4.6-1.3c-1.3-0.6-3-0.9-6-1.1
		c-3.4-0.2-4.6-0.5-6.2-1.3c-1.1-0.6-3.2-1.3-4.7-1.7c-2.7-0.7-9.8-4.3-10.8-5.5c-0.3-0.3-1.7-1-3.1-1.4c-1.4-0.4-3.1-1.2-3.6-1.7
		c-0.5-0.5-1.7-1.2-2.6-1.4c-2.8-0.9-7.1-3.2-8.8-4.8c-0.9-0.8-1.9-1.5-2.2-1.5c-0.3,0-1.3-0.7-2.3-1.4c-0.9-0.8-2.5-1.8-3.4-2.1
		c-0.9-0.4-1.7-1-1.9-1.3c-0.1-0.3-0.9-1-1.8-1.4c-0.9-0.4-1.8-1.2-2.2-1.6c-0.3-0.5-1.5-1.2-2.7-1.6c-1.2-0.4-2.6-1.2-3.1-1.7
		c-0.5-0.5-1.5-1.2-2.1-1.5c-0.6-0.4-1.2-1.1-1.3-1.6c-0.2-0.5-2-2.6-4.1-4.6c-2.1-2-4.1-3.9-4.4-4.3c-2.7-2.8-4.4-4.3-5.6-4.9
		c-0.8-0.4-1.7-1.3-2.1-2s-1-1.4-1.5-1.6c-0.4-0.2-1-1.3-1.4-2.3c-0.4-1.1-1-2.3-1.4-2.6c-0.4-0.4-1.2-1.5-1.8-2.4
		c-0.5-0.9-1.2-1.8-1.6-1.9c-0.3-0.1-1-1-1.4-1.9c-0.5-0.9-1.1-1.7-1.4-1.9c-0.3-0.1-0.9-1-1.3-1.9c-0.4-0.9-1.2-2.3-1.9-3
		c-2-2.3-3.8-5.1-4.6-7.2c-0.4-1.1-1.3-2.6-1.9-3.3c-0.6-0.7-1.3-2-1.5-3c-0.2-1-1-2.4-1.6-3.1c-0.6-0.7-1.3-2-1.4-2.7
		c-0.2-0.9-0.9-2-1.8-2.9c-0.9-0.9-1.7-2.2-2-3.2c-0.2-0.9-0.9-2.6-1.5-3.7c-0.6-1.1-1.4-3.2-1.8-4.7s-1.1-3.5-1.6-4.6
		c-0.7-1.4-1-2.4-0.9-4.2c0-2.4-0.7-4.9-1.9-6.2c-1-1.1-1.8-5-1.9-10.3c-0.1-3.5-0.4-5.9-1-7.9c-0.5-1.6-1-5-1.2-7.5
		c-0.2-2.5-0.5-5.2-0.8-5.9c-0.5-1.7-0.6-16.7,0-18.7c0.2-0.8,0.6-4.1,0.8-7.3c0.2-3.3,0.7-6.9,1-8s0.5-2.6,0.4-3.3
		c-0.2-1.2,0.4-5.6,1.5-12.2c0.2-1.4,0.9-3,1.5-3.9c0.8-1.2,1.1-2.2,1.3-4.9c0.2-2.4,0.6-3.9,1.3-5.3c0.5-1,1.3-3.1,1.7-4.6
		c0.6-2.5,3.6-8.3,5.9-11.5c0.5-0.7,1-2,1.2-2.8c0.1-0.8,0.8-2.1,1.4-2.9c0.6-0.8,1.4-2.2,1.6-3.1c0.2-1,1-2.3,1.6-3
		c0.8-0.9,1.2-1.9,1.4-3.2c0.2-1.6,0.5-2.2,1.9-3.6c2.3-2.3,4.2-4.8,5-6.7c0.4-0.9,1-1.7,1.3-1.9c0.3-0.1,1-0.9,1.4-1.8
		c0.4-0.9,1.2-1.8,1.6-2.2c0.4-0.3,1.2-1.5,1.6-2.7c0.8-2.2,1.8-3.5,4.6-6.6c0.9-1,1.7-2,1.7-2.2c0-0.2,0.7-0.7,1.5-1.1
		c0.8-0.4,2.3-1.6,3.3-2.6c2.2-2.2,2.8-2.8,5-5c1-1,2.1-2.5,2.6-3.3c0.4-0.8,0.9-1.5,1.1-1.5c0.2,0,1.2-0.8,2.2-1.7
		c3.1-2.8,4.4-3.8,6.6-4.6c1.2-0.4,2.4-1.2,2.7-1.6c0.3-0.5,1.3-1.2,2.2-1.6c0.9-0.4,1.7-1.1,1.8-1.4c0.1-0.3,1-0.9,1.9-1.3
		c1.9-0.8,4.4-2.7,6.7-5c1.3-1.3,2-1.7,3.6-1.9c1.3-0.2,2.3-0.6,3-1.2c0.6-0.5,1.9-1.3,3-1.6c1.1-0.4,2.4-1.1,3-1.6
		c0.5-0.5,2.2-1.3,3.6-1.7c1.4-0.4,2.9-1.1,3.1-1.4c1-1.2,8.2-4.8,10.8-5.5c1.5-0.4,3.5-1.1,4.6-1.6c1.3-0.7,2.9-1.1,5.2-1.3
		c2.6-0.3,3.8-0.6,4.9-1.4c0.9-0.6,2.6-1.2,3.9-1.4c6.6-1.1,11-1.7,12.2-1.5c0.7,0.1,2.2-0.1,3.3-0.4s4.7-0.7,8-0.9
		c3.3-0.2,6.5-0.6,7.1-0.7c1.7-0.5,16.8-0.5,18.5,0c0.8,0.2,3.3,0.6,5.7,0.8c2.4,0.2,5.7,0.8,7.3,1.2c2.2,0.6,4.3,0.9,8,1
		c5.7,0.1,8.9,0.8,10.9,2.3c1.6,1.2,3.9,1.8,6.9,1.8c1.3,0,2.6,0.3,3.4,0.8c0.7,0.4,2.7,1.1,4.4,1.6c1.7,0.5,3.9,1.3,4.8,1.8
		c0.9,0.5,2.5,1.2,3.5,1.4c1.3,0.3,2.3,0.9,3.3,2c0.9,0.9,2.1,1.7,3.1,2c0.9,0.3,2.1,0.9,2.6,1.4c0.5,0.5,1.8,1.2,2.9,1.6
		c1.1,0.4,2.5,1,3,1.5c0.5,0.5,2.5,1.6,4.4,2.5c1.9,0.9,4.2,2.3,5.2,3.2c1,0.9,2.4,1.9,3.2,2.3c0.8,0.4,2,1.2,2.7,1.8
		c0.7,0.6,1.5,1.1,1.7,1.1c0.2,0,1.3,0.8,2.5,1.8c1.2,1,2.7,2.3,3.5,3c0.8,0.7,2.1,1.5,2.9,1.8c2.1,0.9,5.5,3.6,6,4.9
		c0.3,0.6,2.2,2.9,4.4,5.1c2.2,2.2,4.6,4.9,5.4,5.9c0.8,1,2.5,2.5,3.7,3.3c2,1.4,5.6,6.4,5.6,7.9c0,0.2,0.6,0.9,1.4,1.7
		c0.8,0.7,1.4,1.5,1.4,1.7s0.7,1.3,1.5,2.4c0.8,1.1,1.8,2.5,2,3c0.3,0.5,0.9,1.4,1.4,2c0.5,0.5,1.2,1.7,1.5,2.5
		c0.3,0.8,1.2,1.9,2,2.5c0.8,0.6,1.6,1.7,2,2.7c1.4,3.9,3.3,8.2,4.1,9.2c0.5,0.6,1.1,2.1,1.5,3.3c0.4,1.5,1.2,2.8,2.2,3.9
		c0.8,0.9,1.6,2.2,1.8,3c0.2,0.7,0.8,2.2,1.4,3.3c0.6,1.1,1.4,3.3,1.8,4.9c0.4,1.6,1,3.6,1.5,4.3c0.7,1.1,0.9,2.3,1.1,5.8
		c0.2,3.4,0.5,5,1.3,7c0.6,1.4,1.2,4,1.5,5.7c0.2,1.7,0.6,3.7,0.8,4.4c0.5,1.5,1.1,6,1.6,12.1c0.2,2.5,0.7,5.7,1,7
		C365.3,193.3,365.3,206.1,364.5,209.1z"/>
	<path class="st2" d="M315.3,186.1c-0.2-4.3-1.2-10.8-2-12.2c-0.3-0.6-0.9-2.1-1.2-3.3c-0.6-1.8-1.3-2.9-3.6-5.4
		c-4.2-4.5-4.2-4.7-2.3-6.3c2.5-2,4.5-5.3,4.9-7.9c0.2-1.2,0.8-3.1,1.3-4.1c1.3-2.5,1.4-3.4,1.7-9.5c0.4-7.4,0.3-8.4-0.8-10.3
		c-0.5-0.9-1.3-2.7-1.6-3.9c-0.4-1.2-1-2.6-1.4-3c-0.4-0.4-1.2-1.4-1.7-2.3c-0.5-0.8-1.4-1.9-2.1-2.3c-0.7-0.4-2.1-1.7-3.1-2.8
		s-2.5-2.3-3.3-2.6c-0.8-0.3-2-1-2.6-1.6c-0.6-0.5-2.1-1.1-3.4-1.4c-4.9-1-4.9-1-5.2-6.6c-0.2-3.8-0.3-4.1-1.5-5.3
		c-0.7-0.7-1.3-1.5-1.3-1.8c0-3.7-6.5-6.3-9.8-3.8c-0.8,0.6-2,1.5-2.6,2l-1.1,0.8v5.3c0,7.6-0.7,8.2-8.5,6.5c-2.9-0.6-3-0.8-3-4.6
		c0-7.6-5.3-11.6-11.7-9c-3.7,1.5-4.2,2.4-4.2,8.2c0,5.7-0.7,6.6-5,6.6c-3.2,0-7.1,1.6-8.3,3.4c-0.4,0.6-1.3,1.7-1.9,2.5l-1.2,1.4
		l0,49.4l0,49.4l2.2,2.9c2.9,3.7,3.9,4.3,8.6,4.3c5.5,0,7,2.8,5.2,9.6c-0.9,3.2,0.6,5.6,4.6,7.3c7.1,3.1,11.6-1.5,11.7-11.9
		c0-3.7,0.3-4.1,3.7-4.5c7.3-1,8.1-0.4,7.7,5.4c-0.6,8.6-0.5,8.9,3,11.5c3.3,2.5,7.2,2.2,9.2-0.6c1.9-2.5,4-8.7,4.2-11.9
		c0.2-3.8,0.4-4.1,3.6-4.8c1.2-0.3,2.6-0.8,3.2-1.2c0.6-0.4,2-1,3.3-1.4c1.9-0.5,2.6-1.1,5-3.5c1.5-1.6,3.7-3.6,4.9-4.5
		c1.4-1.1,2.4-2.2,3-3.6c0.5-1.1,1.3-2.4,1.7-3c1-1.3,2.5-8.7,2.2-10.9C315.5,190.1,315.4,187.9,315.3,186.1z M251.3,126.5l0.7-1.1
		h6.5c4.9,0,6.9,0.1,7.9,0.6c0.9,0.4,2.7,0.6,5,0.6c2,0,6.4,0.2,9.9,0.5l6.2,0.5l2,2l2,2l0,5.7c0,3.4-0.2,6.2-0.4,6.9
		c-0.7,1.7-6.2,6.9-7.9,7.3c-3,0.8-13.5,0.9-16.8,0.2c-2.3-0.5-4.6-0.6-8.6-0.5c-7,0.2-6.4,1-6.8-9.7
		C250.5,127.1,250.5,127.7,251.3,126.5z M293.9,188.7c-1.2,9.8-3.1,10.4-34.9,11.2l-7,0.2l-0.9-1.1c-0.8-1-0.9-1.4-0.6-4.9
		c0.1-2.1,0.4-7.6,0.5-12.3s0.4-8.8,0.6-9c0.2-0.4,2.1-0.5,6.9-0.5c3.6,0,7.1-0.2,7.6-0.4c1.5-0.5,16.8-0.5,18.1,0
		c0.6,0.2,1.8,1.1,2.7,1.9s2,1.6,2.5,1.8C292.1,176.4,294.5,183.6,293.9,188.7z"/>
	<path class="st2" d="M288.6,256.9c-1.7-0.4-10.9,0.2-12.4,0.8c-2,0.8-5.7,3.7-6.2,4.8c-0.2,0.5-1,1.4-1.7,1.9
		c-0.7,0.5-1.7,1.7-2.2,2.7c-1.8,3.5-12.6,13.5-16.5,15.3c-4.5,2.1-5.8,2.9-7.3,4.4c-0.9,0.9-1.8,1.7-2,1.7c-0.2,0-2,0.8-4,1.8
		c-2.7,1.4-4.3,1.9-6.6,2.2c-1.7,0.2-3.5,0.6-4,1c-0.5,0.3-2.1,0.8-3.7,1c-6.9,1.1-9.3,1.7-11.3,2.7c-2.8,1.3-16.6,1.9-20.6,0.8
		c-8.7-2.3-14.7-3.5-18.4-3.5c-1.6,0-2.7-0.2-3.6-0.8c-0.7-0.4-2.4-1.1-3.8-1.4c-1.4-0.4-3.2-1.1-4.1-1.6c-0.8-0.5-2.4-1.3-3.6-1.8
		c-1.1-0.4-2.6-1.3-3.2-1.9c-0.6-0.6-1.7-1.3-2.4-1.4c-0.7-0.1-1.6-0.5-1.9-0.9c-0.3-0.4-1.7-1.4-3.1-2.4c-2.7-1.8-5.3-3.8-6.6-5
		c-4.6-4.3-5.7-5.5-6.2-6.5c-0.3-0.6-1.7-2.2-3-3.5c-1.3-1.3-2.9-3.1-3.5-4c-0.9-1.4-1.7-2.2-5.5-4.9c-0.7-0.5-2.5-1.1-4.4-1.4
		c-1.7-0.3-3.5-0.7-4-0.8c-0.4-0.1-1.2-0.1-1.8,0c-3.4,0.5-5.2,1.1-5.8,1.8c-0.4,0.5-1.4,1.2-2.2,1.8c-0.8,0.5-1.8,1.5-2.1,2.2
		c-0.4,0.7-1,1.6-1.4,2.1c-1.7,1.9-1.3,12.2,0.5,14.6c0.5,0.7,1.1,1.8,1.4,2.5c0.3,0.7,0.8,1.6,1.2,1.9c0.4,0.4,1,1.5,1.4,2.5
		c0.4,1.3,1.6,2.9,3.8,5.2c1.7,1.9,3.2,3.5,3.2,3.7c0,0.3,1.9,1.6,4.6,3.3c1.7,1.1,4.1,3.3,8.7,8.1c0.9,0.9,2.2,2,2.8,2.3
		c0.7,0.3,1.8,1.2,2.6,1.9c1,0.9,2,1.4,3.2,1.6c1,0.1,2.3,0.6,2.8,1.1c0.6,0.4,1.8,1.1,2.7,1.5s2.3,1.2,3.1,1.8c0.8,0.6,1.6,1,1.8,1
		c0.3,0,2,0.8,4,1.8c1.9,1,3.7,1.8,3.9,1.8c0.2,0,1.2,0.5,2.1,1.2c1.3,0.8,2.7,1.3,5.6,1.8c2.1,0.4,4.9,1.1,6.2,1.6
		c1.3,0.5,4.2,1.4,6.3,2c2.2,0.6,5.3,1.4,7,1.8c3.2,0.8,9.8,1.6,10.5,1.2c0.8-0.5,19-0.8,21.1-0.4c1.8,0.4,2.5,0.3,6-0.6
		c2.2-0.6,5.5-1.2,7.4-1.5c2.8-0.4,4-0.8,5.8-1.8c1.7-1,3.3-1.5,6.4-2.1c5.7-1,10.1-2.6,12.2-4.4c0.9-0.8,2.5-1.7,3.5-2
		c1-0.3,2.3-0.9,2.9-1.4c0.6-0.5,2-1.3,3-1.7c1.1-0.5,2.3-1.1,2.7-1.5c1.1-1,5.6-3.4,7.5-4c1.5-0.5,6.2-4.6,6.2-5.4
		c0-0.2,1.5-1.6,3.3-3.1c1.8-1.5,4-3.5,4.9-4.3c0.9-0.8,2.6-2.2,3.9-3.1c1.2-0.8,2.7-2.1,3.1-2.8s1.4-1.9,2-2.6s1.1-1.7,1.1-2.3
		c0-0.5,0.6-1.6,1.3-2.4C300.4,274.7,297.5,259.1,288.6,256.9z"/>
</g>
</svg>
