<svg clip-rule="evenodd" fill-rule="evenodd" stroke-linejoin="round" stroke-miterlimit="2" version="1.1" viewBox="0 22.954 100 54.093" xml:space="preserve" xmlns="http://www.w3.org/2000/svg">
    <g transform="matrix(1.5627 0 0 1.5627 0 22.954)">
        <path d="m44.004 23.277 0.032-0.624 8e-3 -0.3c1e-3 -1.676-0.349-3.333-1.028-4.865l-0.2-0.45-0.222-0.433c-1.069-1.958-2.657-3.585-4.589-4.701l-0.433-0.24-0.443-0.222c-1.521-0.718-3.176-1.108-4.857-1.145l-0.28-7e-3h-0.345l-0.62 0.033c-1.9 0.15-3.68 0.742-5.232 1.676l-0.427 0.27-0.42 0.3c-0.804 0.58-1.534 1.256-2.174 2.013l-0.312 0.387-0.293 0.394c-1.4 1.974-2.24 4.386-2.24 7 1e-3 0.676 0.058 1.351 0.172 2.017l0.1 0.562 0.148 0.602c0.297 1.088 0.746 2.128 1.334 3.09l0.273 0.426 0.293 0.415 0.718 0.9 0.425 0.455 0.4 0.397c2.221 2.065 5.147 3.209 8.18 3.2 2.922 2e-3 5.747-1.063 7.94-2.994l0.36-0.33 0.355-0.35c1.81-1.862 2.969-4.261 3.302-6.836l0.064-0.617m-23.04 6.03-0.27-0.444c-0.672-1.158-1.161-2.413-1.45-3.72-0.316-0.066-0.637-0.099-0.96-0.099l-0.103 5e-3c-0.163 3e-3 -0.326 0.015-0.488 0.036-0.163 0.021-0.324 0.05-0.484 0.087-1.375 0.325-2.535 1.25-3.158 2.519-0.073 0.149-0.138 0.301-0.195 0.456-0.057 0.156-0.106 0.315-0.146 0.476-0.095 0.373-0.143 0.756-0.145 1.14 0 0.907 0.262 1.752 0.707 2.472 0.087 0.141 0.181 0.277 0.282 0.408l0.315 0.368c0.887 0.938 2.123 1.471 3.414 1.471 1.937-3e-3 3.685-1.197 4.394-3-0.524-0.533-1-1.1-1.428-1.728l-0.287-0.434m36.6-4.463-0.034-0.5-0.06-0.5c-0.673-4.43-4.433-7.788-8.911-7.957l-0.34-0.01-0.15 4e-3 -0.489 0.021c-1.334 0.1-2.6 0.46-3.715 1.054 0.694 1.528 1.084 3.176 1.148 4.853l0.013 0.516-4e-3 0.15-0.024 0.656c-0.2 3.244-1.588 6.17-3.737 8.348 1.713 1.907 4.197 3.1 6.957 3.1 2.291 2e-3 4.505-0.843 6.213-2.37l0.367-0.344c0.12-0.119 0.237-0.241 0.351-0.366 1.505-1.66 2.424-3.863 2.424-6.276l-0.01-0.38m1.722-0.33c-0.253 2e-3 -0.506 0.024-0.756 0.066l0.022 0.644c1e-3 2.639-1.013 5.179-2.83 7.092 0.866 1 2.14 1.635 3.564 1.635 2.602 0 4.72-2.117 4.72-4.72s-2.117-4.72-4.72-4.72m-38.802-14.576 0.1 0.515c0.086 0.388 0.199 0.769 0.338 1.141l0.2 0.483c0.069 0.156 0.143 0.309 0.222 0.46 0.228 0.44 0.494 0.86 0.794 1.254 0.601-0.696 1.274-1.327 2.007-1.882l0.422-0.304c0.142-0.099 0.286-0.194 0.432-0.287 1.98-1.264 4.318-2.008 6.828-2.04l0.17-4e-3 0.487 0.012c0.222 8e-3 0.444 0.022 0.665 0.042 1.472 0.129 2.911 0.51 4.255 1.125 0.137-0.614 0.207-1.242 0.207-1.871-1e-3 -0.47-0.039-0.939-0.116-1.403-0.027-0.161-0.058-0.321-0.094-0.48l-0.12-0.474c-1.055-3.689-4.45-6.252-8.287-6.257-3.246 0-6.077 1.804-7.546 4.462-0.082 0.148-0.16 0.299-0.233 0.452l-0.212 0.486c-0.413 1.022-0.625 2.114-0.625 3.216l0.042 0.853c0.017 0.169 0.039 0.337 0.066 0.505m22.956 6.13c1.277-0.671 2.681-1.065 4.12-1.156-0.394-4.424-4.141-7.858-8.582-7.865-0.171 0-0.342 6e-3 -0.512 0.016 0.08 0.495 0.12 1 0.12 1.517 0 0.783-0.096 1.563-0.286 2.323 2.162 1.2 3.95 2.995 5.14 5.165m-30.2 11.033c0.774-1.48 2.178-2.58 3.855-2.94l0.483-0.08s0.324-0.034 0.5-0.04l0.225-6e-3c0.264 0 0.524 0.02 0.78 0.054-0.082-0.588-0.123-1.182-0.124-1.776-3e-3 -2.787 0.893-5.502 2.553-7.74-0.364-0.453-0.687-0.939-0.965-1.45l-0.222-0.44c-0.071-0.149-0.137-0.3-0.2-0.452-0.25-0.606-0.44-1.244-0.56-1.904l-0.657-0.026c-1.563-2e-3 -3.102 0.391-4.473 1.141-0.147 0.081-0.291 0.165-0.433 0.253l-0.412 0.27c-1.53 1.06-2.711 2.552-3.392 4.284-0.06 0.154-0.117 0.309-0.169 0.466s-0.1 0.315-0.144 0.475c-0.22 0.803-0.332 1.633-0.332 2.466 0 3.036 1.454 5.737 3.702 7.447m-0.386 0.93c-2.607-1.869-4.302-4.933-4.302-8.379-1e-3 -0.86 0.106-1.717 0.32-2.55l-0.26-7e-3c-4.721 8e-3 -8.605 3.89-8.615 8.611 7e-3 4.724 3.893 8.61 8.617 8.617 1.743 2e-3 3.446-0.529 4.88-1.52-0.593-0.917-0.908-1.986-0.907-3.078-1e-3 -0.577 0.087-1.15 0.26-1.7m0.988-17.386c-0.385-0.673-0.588-1.435-0.588-2.21 4e-3 -2.457 2.025-4.478 4.482-4.482 0.88 0 1.741 0.26 2.474 0.748-0.543 1.221-0.823 2.543-0.822 3.88l0.032 0.755-0.528-0.013c-1.769-1e-3 -3.509 0.455-5.05 1.324" fill="#1d2d44"/>
    </g>
</svg>
