<svg version="1.1" xmlns="http://www.w3.org/2000/svg" viewBox="0.50 0.50 124.18 76.54"><g transform="translate(-5.5503 -194.65)"><path d="m27.71 195.15c-9.5466-0.0272-22.339 6.798-21.632 23.904 1.1055 26.729 25.457 29.208 35.192 29.423 1.068 5.0136 12.522 22.306 21.002 23.217h37.153c22.278-1.6678 38.961-75.757 26.593-76.038-46.782 2.4769-49.995 2.1384-88.6 0-2.4951-0.0266-5.9723-0.49474-9.7079-0.5054zm2.4913 9.4589c1.3514 13.693 3.5558 21.704 8.0182 33.943-11.383-1.5047-21.07-5.2244-22.852-19.11-0.95096-7.4112 2.3904-15.168 14.833-14.834z" fill="#609926" stroke="#428f29"></path></g><g transform="translate(-5.5503 -33.118)" fill="#fff"><rect transform="rotate(25.915)" x="87.509" y="18.292" width="34.762" height="34.762" ry="5.4826"></rect><path d="m79.805 57.359 3.2411 1.61v-23.713h-3.2627z"></path></g><g transform="translate(-5.5503 -33.118)"><g><g fill="#609926"><circle transform="rotate(-19.796)" cx="49.065" cy="90.078" r="3.4745"></circle><circle transform="rotate(-19.796)" cx="36.81" cy="102.1" r="3.4745"></circle><circle transform="rotate(-19.796)" cx="46.484" cy="111.44" r="3.4745"></circle><rect transform="rotate(26.024)" x="97.333" y="18.062" width="2.6727" height="27.261"></rect></g><path d="m76.558 68.116c12.976 6.3954 13.013 4.1019 4.8909 20.907" fill="none" stroke="#609926" stroke-width="2.68"></path></g></g></svg>
