<svg viewBox="0 0 194 137" version="1.1" xmlns="http://www.w3.org/2000/svg" xmlns:xlink="http://www.w3.org/1999/xlink">
    <g id="Page-1" stroke="none" stroke-width="1" fill="none" fill-rule="evenodd">
        <g id="logo_active24_color_original" fill-rule="nonzero">
            <path d="M6.8,102.6 C-2.1,98.8 -2.2,92.2 6.5,88 L184.7,1.9 C193.4,-2.3 196,0.7 190.4,8.7 L107.4,127.2 C101.9,135.1 90,138.5 81.2,134.7 L6.8,102.6 Z" id="Shape" fill="#EB2136"></path>
            <g id="Group" transform="translate(134.000000, 87.000000)" fill="#EB2136">
                <path d="M16.8,6.7 C16.4,8.5 12.8,10 8.7,10 C7.3,10 6.1,10.7 5.9,11.7 L5.6,13.4 L15.6,13.4 L15.3,15.1 L0.4,15.1 L1,11.8 C1.4,10 5,8.5 9.1,8.5 C10.5,8.5 11.7,7.8 11.9,6.8 L12.6,3.5 C12.8,2.6 11.8,1.8 10.4,1.8 C9,1.8 7.8,2.6 7.6,3.5 L7.3,5.2 L2.3,5.2 L2.6,3.5 C3,1.7 6.6,0.2 10.7,0.2 C14.8,0.2 17.9,1.7 17.5,3.5 L16.8,6.7 Z" id="Shape"></path>
                <path d="M32.9,15 L27.9,15 L28.9,10 L26.4,10 C22.3,10 19.2,8.5 19.6,6.7 L20.9,0.1 L25.9,0.1 L24.6,6.7 C24.4,7.6 25.4,8.4 26.8,8.4 L29.3,8.4 L30.9,0.1 L35.9,0.1 L32.9,15 Z" id="Shape"></path>
            </g>
            <path d="M46.5,87.3 C41.3,87.3 36.6,89.2 36.2,91.5 L35,97.8 C34.5,100.1 38.4,102 43.7,102 C48.9,102 53.5,100.1 54,97.8 L47.7,97.8 C47.5,99 45.9,99.9 44.2,99.9 C42.4,99.9 41.2,99 41.4,97.8 L42.6,91.5 C42.8,90.3 44.4,89.4 46.2,89.4 C48,89.4 49.2,90.3 48.9,91.5 L55.2,91.5 C55.6,89.2 51.7,87.3 46.5,87.3 Z" id="Shape" fill="#FFFFFF"></path>
            <path d="M65.7,84.1 L59.4,84.1 L56.7,97.8 C56.2,100.1 60.1,102 65.4,102 L65.8,99.9 C64,99.9 62.8,99 63,97.8 L64.7,89.4 L67.9,89.4 L68.3,87.3 L65.1,87.3 L65.7,84.1 Z" id="Shape" fill="#FFFFFF"></path>
            <path d="M75.2,84.6 C77.2,84.6 79,83.9 79.2,83 C79.4,82.1 77.9,81.4 75.8,81.4 C73.8,81.4 72,82.1 71.8,83 C71.7,83.9 73.2,84.6 75.2,84.6 Z" id="Shape" fill="#FFFFFF"></path>
            <polygon id="Shape" fill="#FFFFFF" points="68.7 102 75 102 77.9 87.3 71.6 87.3"></polygon>
            <path d="M92.3,97.8 C92.1,99 90.5,99.9 88.8,99.9 L85.6,99.9 L88.1,87.3 L81.8,87.3 L78.9,102.1 L88.4,102.1 C93.6,102.1 98.2,100.2 98.7,97.9 L100.8,87.4 L94.5,87.4 L92.3,97.8 Z" id="Shape" fill="#FFFFFF"></path>
            <path d="M113.7,87.3 C108.5,87.3 103.8,89.2 103.4,91.5 L102.2,97.8 C101.7,100.1 105.6,102 110.9,102 C116.1,102 120.7,100.1 121.2,97.8 L114.9,97.8 C114.7,99 113.1,99.9 111.3,99.9 C109.5,99.9 108.3,99 108.5,97.8 L108.9,95.7 L121.6,95.7 L122.4,91.5 C122.8,89.2 119,87.3 113.7,87.3 Z M116.1,91.5 L115.7,93.6 L109.4,93.6 L109.8,91.5 C110,90.3 111.6,89.4 113.4,89.4 C115.2,89.4 116.3,90.3 116.1,91.5 Z" id="Shape" fill="#FFFFFF"></path>
            <path d="M24.3,87.3 C19.1,87.3 14.4,89.2 14,91.5 L12.8,97.8 C12.3,100.1 16.2,102 21.5,102 L22.5,102 L25,100.1 L24.6,102 L30.9,102 L33.8,87.2 L24.3,87.2 L24.3,87.3 Z M25,99.9 L21.8,99.9 C20,99.9 18.8,99 19,97.8 L20.2,91.5 C20.4,90.3 22,89.4 23.8,89.4 L27,89.4 L25,99.9 Z" id="Shape" fill="#FFFFFF"></path>
        </g>
    </g>
</svg>
