<svg xmlns="http://www.w3.org/2000/svg" viewBox="0 0 1000 1000">
<path d="M 473,903.2 199,236.7 V 774 c 68.9,75.1 165.7,124.2 274,130.8 z M 801,230.4 c -0.1,-0.2 -0.3,-0.3 -0.4,-0.5 L 523.1,904.8 C 633.5,898.1 731.9,847.2 801,769.6 Z M 681.5,399.5 H 521 V 801 Z M 151,289.9 C 113.8,351.2 92.4,423.1 92.4,500 c 0,76.9 21.4,148.8 58.6,210.1 z m 145.1,61.6 H 700.7 L 763.8,193.7 C 692.6,131.9 599.7,94.4 498,94.4 396.6,94.4 303.9,131.6 232.8,193.1 Z M 473,794 V 399.5 H 315.3 Z M 849,703.4 C 883.7,643.6 903.6,574.2 903.6,500 903.6,425.8 883.7,356.5 849,296.7 Z M 998.3,501.6 c 0,275 -223,498 -498,498 -275,0 -498,-223 -498,-498 0,-275 223,-498 498,-498 275.1,0 498,223 498,498 z M 498.8,49.4 C 249.9,49.4 48.2,251.2 48.2,500 48.2,748.9 249.9,950.6 498.8,950.6 747.7,950.6 949.4,748.9 949.4,500 949.3,251.2 747.6,49.4 498.8,49.4 Z" style="fill:#b1956e;fill-opacity:1"/>
</svg>